<svg width="54" height="54" viewBox="0 0 54 54" fill="none" xmlns="http://www.w3.org/2000/svg">
<rect x="1.8501" y="1.8501" width="50.3" height="50.3" rx="3" stroke="#8B1EFF" stroke-width="0.28"/>
<path d="M10.2065 37.1479V7.2959C10.2125 6.94397 10.252 6.59094 10.325 6.24585C10.397 5.90088 10.503 5.56384 10.6411 5.23901C10.9141 4.59497 11.3131 4.00098 11.8071 3.50171C12.2961 3.00769 12.8791 2.60559 13.5145 2.32971C13.8315 2.19177 14.1605 2.08582 14.4979 2.01257C14.8349 1.93958 15.1779 1.90051 15.5214 1.89661C19.4174 1.8656 23.3134 1.85059 27.2079 1.85059C31.1049 1.85059 34.9999 1.8656 38.8963 1.89673C39.2393 1.90076 39.5833 1.9397 39.9208 2.01318C40.2568 2.08618 40.5868 2.19312 40.903 2.33008C41.221 2.46802 41.525 2.63708 41.8108 2.8335C42.0978 3.03052 42.3658 3.25452 42.6108 3.50159C42.8578 3.75061 43.0808 4.02161 43.2748 4.31238C43.4708 4.60437 43.6398 4.91431 43.7772 5.23816C43.9142 5.56311 44.0212 5.90112 44.0934 6.24597C44.1664 6.59094 44.2054 6.94397 44.2104 7.29602C44.2104 7.29602 44.2104 37.1479 44.2101 37.1484C44.1891 37.8424 44.0511 38.5385 43.8027 39.1934C43.5557 39.8484 43.1977 40.4624 42.7389 40.9862C42.5089 41.2483 42.2549 41.4873 41.9799 41.7C41.7069 41.912 41.4139 42.0969 41.1049 42.2539C40.7979 42.4099 40.4769 42.5369 40.1451 42.6315C39.8161 42.7264 39.4771 42.7896 39.1357 42.8154C31.1907 43.2485 23.2267 43.2485 15.2819 42.8154C14.6009 42.7625 13.9259 42.5664 13.3131 42.2549C12.6931 41.9398 12.1351 41.5068 11.6787 40.9869C11.2197 40.4619 10.8627 39.8479 10.6155 39.193C10.3675 38.538 10.2285 37.843 10.2065 37.1479Z" stroke="#8B1EFF" stroke-width="0.283" stroke-miterlimit="10"/>
<rect x="12.8887" y="5.47168" width="28.63" height="34.35" rx="1.46" stroke="#00FFFF" stroke-width="0.28"/>
<path d="M38.6898 3.58646C31.0758 3.48746 23.3388 3.48746 15.7238 3.58646C15.4321 3.59048 15.1431 3.62149 14.858 3.68155C14.787 3.69656 14.7151 3.71255 14.6451 3.73148C14.5751 3.74954 14.5051 3.76956 14.4361 3.79153C14.298 3.83548 14.162 3.88455 14.0311 3.94156C13.8981 3.99857 13.7681 4.06155 13.6421 4.1315C13.578 4.16653 13.515 4.20352 13.453 4.24149C13.3911 4.27957 13.33 4.31949 13.2701 4.36148C13.0321 4.52652 12.8121 4.71451 12.6111 4.92349C12.5101 5.0275 12.4151 5.13748 12.3251 5.25357C12.2791 5.31058 12.2361 5.36954 12.1931 5.42947C12.151 5.48856 12.1111 5.54849 12.0721 5.6105C11.9151 5.8555 11.7841 6.11453 11.677 6.38651C11.651 6.4545 11.625 6.52347 11.6021 6.59354C11.578 6.66348 11.556 6.73355 11.5361 6.8035C11.4951 6.94449 11.4621 7.08646 11.4351 7.2305C11.382 7.51651 11.3551 7.80655 11.3551 8.10257C11.3528 17.5192 11.3519 26.9372 11.3499 36.3542C11.35 36.6476 11.371 36.9375 11.414 37.2235C11.436 37.3666 11.462 37.5086 11.4949 37.6505C11.511 37.7216 11.5289 37.7915 11.548 37.8616C11.567 37.9325 11.588 38.0026 11.61 38.0725C11.699 38.3506 11.809 38.6195 11.9429 38.8766C11.977 38.9416 12.0119 39.0055 12.048 39.0686C12.084 39.1316 12.1219 39.1936 12.162 39.2545C12.241 39.3756 12.324 39.4936 12.4129 39.6056C12.502 39.7185 12.597 39.8275 12.6969 39.9315C12.7469 39.9826 12.798 40.0336 12.852 40.0835C12.905 40.1326 12.959 40.1815 13.0139 40.2276C13.2359 40.4126 13.4729 40.5725 13.727 40.7066C13.7899 40.7395 13.8549 40.7716 13.92 40.8015C13.9859 40.8316 14.0529 40.8595 14.1199 40.8866C14.254 40.9386 14.3909 40.9836 14.5289 41.0216C14.8049 41.0966 15.087 41.1426 15.377 41.1576C23.2194 41.5847 31.1934 41.5847 39.0353 41.1577C39.3265 41.1418 39.6095 41.0959 39.8855 41.0218C40.0235 40.9838 40.1595 40.9388 40.2935 40.8867C40.3605 40.8598 40.4276 40.8318 40.4935 40.8018C40.5595 40.7708 40.6245 40.7388 40.6875 40.7049C40.9435 40.5708 41.1805 40.4108 41.3995 40.2259C41.5105 40.1338 41.6155 40.0348 41.7175 39.9308C41.7665 39.8788 41.8165 39.8249 41.8635 39.7698C41.9115 39.7159 41.9576 39.6598 42.0025 39.6038C42.1805 39.3778 42.3355 39.1367 42.4685 38.8819C42.5345 38.7538 42.5965 38.6228 42.6516 38.4878C42.6795 38.4208 42.7065 38.3528 42.7305 38.2838C42.7565 38.2159 42.7795 38.1468 42.8026 38.0768C42.8895 37.7998 42.9545 37.5168 42.9985 37.2298C43.0096 37.1577 43.0175 37.0847 43.0266 37.0128C43.0345 36.9398 43.0415 36.8669 43.0465 36.7939C43.0575 36.6479 43.0625 36.5008 43.0625 36.3548C43.0609 26.9375 43.0598 17.5196 43.059 8.10208C43.058 7.80716 43.032 7.51419 42.977 7.22415C42.95 7.07913 42.9149 6.93619 42.8749 6.79617C42.834 6.65616 42.7879 6.5181 42.735 6.38309C42.6809 6.2471 42.6219 6.11417 42.5549 5.98416C42.5219 5.9191 42.4879 5.85416 42.451 5.79019C42.4139 5.72708 42.3759 5.66409 42.3369 5.60208C42.1799 5.35709 41.9999 5.12918 41.799 4.9202C41.7489 4.86819 41.6979 4.81717 41.645 4.76712C41.5909 4.71719 41.5379 4.66812 41.481 4.62112C41.3699 4.52615 41.2539 4.43814 41.136 4.35611C40.8979 4.19315 40.6459 4.05411 40.3789 3.94009C40.313 3.91214 40.2449 3.88516 40.1759 3.85916C40.1079 3.83414 40.0389 3.81009 39.9699 3.78909C39.8309 3.74612 39.692 3.70914 39.5509 3.68008C39.269 3.6221 38.9829 3.59012 38.6898 3.58646Z" stroke="#FF00FF" stroke-width="0.283465" stroke-miterlimit="10" stroke-linecap="round" stroke-linejoin="round"/>
<path d="M18.659 19.3189C18.4048 19.6414 18.1815 19.7282 17.9769 19.7282C17.611 19.7282 17.3506 19.4801 17.3506 19.1453C17.3506 18.9468 17.4188 18.7856 17.4994 18.6058C17.9025 17.75 18.4916 16.3361 18.4916 14.1905C18.4916 12.1503 17.9025 10.7365 17.4994 9.88071C17.4188 9.70088 17.3506 9.53965 17.3506 9.34121C17.3506 9.00635 17.611 8.7583 17.9769 8.7583C18.1815 8.7583 18.4048 8.84512 18.659 9.16758C18.9877 9.58306 20.1597 11.245 20.1597 14.1905C20.1597 17.2415 18.9877 18.9034 18.659 19.3189Z" fill="black"/>
<path d="M15.7693 31.7255V31.3287C15.7693 28.7862 16.9847 27.1243 19.0001 27.1243C21.0217 27.1243 22.2123 28.7676 22.2123 31.3287V31.7255C22.2123 34.2618 20.9845 35.9299 18.9753 35.9299C16.9661 35.9299 15.7693 34.2804 15.7693 31.7255ZM17.4436 31.3349V31.7131C17.4436 33.4991 18.0265 34.5657 18.9877 34.5657C19.9489 34.5657 20.5318 33.4991 20.5318 31.7131V31.3349C20.5318 29.5551 19.9489 28.4885 18.9877 28.4885C18.0265 28.4885 17.4436 29.5489 17.4436 31.3349Z" fill="black"/>
<path fill-rule="evenodd" clip-rule="evenodd" d="M32.6544 26.177C33.0463 26.1907 33.3528 26.5195 33.3391 26.9114L33.3344 27.0476L33.3344 27.0478C33.3008 28.0053 33.2704 28.8751 33.2453 29.7007C33.2418 29.8159 33.3715 29.886 33.4676 29.8223C33.8868 29.5443 34.3111 29.3068 34.7324 29.1146C35.6739 28.6851 36.6505 28.4594 37.5464 28.5644C38.4704 28.6727 39.2831 29.1338 39.8065 30.0028C40.6977 31.4828 40.6871 33.1428 39.8219 34.4316C38.962 35.7126 37.3478 36.4992 35.2768 36.469C34.8847 36.4633 34.5715 36.1408 34.5772 35.7487C34.583 35.3566 34.9054 35.0434 35.2975 35.0492C37.0052 35.074 38.1102 34.4338 38.6429 33.6401C39.1705 32.8543 39.2261 31.7917 38.59 30.7354C38.3133 30.2758 37.9086 30.0366 37.3811 29.9748C36.8255 29.9096 36.1166 30.0439 35.3218 30.4065C34.6343 30.7201 33.9202 31.1878 33.239 31.7804C33.2093 31.8062 33.1921 31.8435 33.1914 31.8829C33.1654 33.3707 33.1661 34.8423 33.2088 36.5986C33.2183 36.9906 32.9082 37.3161 32.5162 37.3256C32.1242 37.3352 31.7987 37.0251 31.7892 36.6331C31.7641 35.5998 31.7534 34.6632 31.7539 33.7651C31.754 33.6314 31.5866 33.5746 31.5085 33.6832C31.2791 34.0022 31.0636 34.3371 30.866 34.686C30.6727 35.0271 30.2394 35.147 29.8982 34.9537C29.5571 34.7604 29.4372 34.3272 29.6305 33.986C30.2162 32.9521 30.9447 32.0198 31.7442 31.2308C31.7702 31.2051 31.7853 31.1703 31.7862 31.1338C31.7945 30.7665 31.8043 30.3958 31.8152 30.0175C31.8176 29.9338 31.7466 29.8667 31.6633 29.8746C31.2909 29.91 30.9136 29.9581 30.4292 30.0277C30.0411 30.0835 29.6812 29.8142 29.6254 29.426C29.5696 29.0379 29.839 28.678 30.2271 28.6222C30.8194 28.537 31.2684 28.4815 31.7406 28.442C31.8117 28.4361 31.8674 28.3781 31.8698 28.3068C31.884 27.8904 31.8991 27.4597 31.9148 27.0102L31.9148 27.0102L31.92 26.8617C31.9337 26.4698 32.2625 26.1632 32.6544 26.177Z" fill="black"/>
<path fill-rule="evenodd" clip-rule="evenodd" d="M34.9631 7.9808C35.3233 8.13574 35.4897 8.55335 35.3348 8.91356C35.2627 9.08111 35.1886 9.24727 35.1119 9.41283C35.0673 9.50897 35.1403 9.61879 35.2461 9.6131C36.2144 9.56097 37.2227 9.46842 38.4329 9.31509C38.8219 9.2658 39.1773 9.54121 39.2265 9.93022C39.2758 10.3192 39.0004 10.6745 38.6114 10.7238C36.9368 10.936 35.6306 11.0352 34.3079 11.0724C34.2601 11.0738 34.2162 11.0994 34.1914 11.1403C34.0843 11.317 33.9718 11.4959 33.8531 11.6779C33.7801 11.7898 33.891 11.9401 34.0217 11.912C34.3093 11.85 34.6036 11.8239 34.8999 11.8482C35.4395 11.8926 35.8947 12.0989 36.2236 12.4835C36.4403 12.7369 36.5724 13.0335 36.6554 13.3326C36.6772 13.4113 36.7588 13.4587 36.8369 13.435C37.7279 13.1646 38.6223 12.9446 39.3922 12.7613C39.7737 12.6704 40.1565 12.9061 40.2474 13.2875C40.3382 13.669 40.1026 14.0518 39.7211 14.1427C38.8352 14.3536 37.8449 14.6002 36.9071 14.9002C36.8496 14.9187 36.8106 14.9722 36.8101 15.0326C36.81 15.0414 36.8099 15.0502 36.8098 15.059C36.8077 15.2695 36.8031 15.4677 36.7985 15.6648V15.6648V15.6649V15.6649V15.6649C36.7924 15.9289 36.7863 16.1911 36.7863 16.4787C36.7863 16.8708 36.4684 17.1887 36.0763 17.1887C35.6842 17.1887 35.3663 16.8708 35.3663 16.4787C35.3663 16.1914 35.3732 15.8833 35.3797 15.5949V15.5948V15.5948L35.3797 15.5947V15.5946V15.5946C35.381 15.5363 35.3212 15.4965 35.2681 15.5208C35.2327 15.537 35.1977 15.5533 35.1629 15.5698C34.4967 15.8849 34.0003 16.2177 33.7017 16.5562C33.4229 16.8724 33.3412 17.1585 33.4047 17.4706C33.4266 17.578 33.5022 17.7137 33.7961 17.852C34.1018 17.9958 34.5563 18.0949 35.1377 18.1379C36.2919 18.2231 37.7276 18.0731 38.9187 17.8681C39.3052 17.8016 39.6724 18.0609 39.7389 18.4474C39.8054 18.8338 39.546 19.201 39.1596 19.2675C37.9221 19.4805 36.3555 19.6516 35.0331 19.554C34.3762 19.5055 33.7238 19.3873 33.1916 19.1368C32.6475 18.8809 32.1541 18.4455 32.0133 17.754C31.8419 16.9123 32.1328 16.1884 32.6367 15.6171C33.1208 15.0681 33.817 14.6356 34.5557 14.2862C34.8024 14.1695 35.0607 14.059 35.3266 13.9542C35.3328 13.9518 35.3364 13.9454 35.3354 13.9389V13.9389C35.2869 13.6391 35.2114 13.4848 35.1444 13.4064C35.0976 13.3516 35.0135 13.2824 34.7836 13.2635C34.2703 13.2213 33.6221 13.4915 32.8678 13.9884C32.5068 14.2262 32.1534 14.4938 31.8114 14.7584L31.6367 14.8939C31.3623 15.1072 31.0898 15.3189 30.8468 15.4881C30.5524 15.6933 30.1512 15.6464 29.9119 15.379C29.6726 15.1116 29.6704 14.7077 29.9069 14.4378C30.9814 13.211 31.7755 12.2047 32.3935 11.3056C32.4567 11.2136 32.3907 11.0893 32.2791 11.0884C31.7526 11.0841 31.1981 11.0749 30.5966 11.0633C30.2045 11.0558 29.8928 10.7318 29.9004 10.3398C29.9079 9.94774 30.2319 9.63605 30.6239 9.64361C31.6293 9.66299 32.4954 9.67549 33.3147 9.66947C33.3658 9.66909 33.4127 9.64083 33.4366 9.59569C33.6581 9.17827 33.8511 8.76912 34.0303 8.3525C34.1852 7.99229 34.6029 7.82587 34.9631 7.9808Z" fill="black"/>
</svg>
