<svg width="54" height="55" viewBox="0 0 54 55" fill="none" xmlns="http://www.w3.org/2000/svg">
<rect x="1.84998" y="2.79846" width="50.3" height="50.3" rx="3" stroke="#8B1EFF" stroke-width="0.28"/>
<path d="M10.2065 38.0964V8.24438C10.2125 7.89246 10.252 7.53943 10.325 7.19434C10.397 6.84937 10.503 6.51233 10.6411 6.1875C10.9141 5.54346 11.3131 4.94946 11.8071 4.4502C12.2961 3.95618 12.8791 3.55408 13.5145 3.2782C13.8315 3.14026 14.1605 3.0343 14.4979 2.96106C14.8349 2.88806 15.1779 2.849 15.5214 2.84509C19.4174 2.81409 23.3134 2.79907 27.2079 2.79907C31.1049 2.79907 34.9999 2.81409 38.8963 2.84521C39.2393 2.84924 39.5833 2.88818 39.9208 2.96167C40.2568 3.03467 40.5868 3.1416 40.903 3.27856C41.221 3.4165 41.525 3.58557 41.8108 3.78198C42.0978 3.979 42.3658 4.203 42.6108 4.45007C42.8578 4.6991 43.0808 4.97009 43.2748 5.26086C43.4708 5.55286 43.6398 5.86279 43.7772 6.18665C43.9142 6.5116 44.0212 6.84961 44.0934 7.19446C44.1664 7.53943 44.2054 7.89246 44.2104 8.24451C44.2104 8.24451 44.2104 38.0964 44.2101 38.0969C44.1891 38.7909 44.0511 39.4869 43.8027 40.1418C43.5557 40.7969 43.1977 41.4109 42.7389 41.9347C42.5089 42.1968 42.2549 42.4358 41.9799 42.6484C41.7069 42.8605 41.4139 43.0454 41.1049 43.2024C40.7979 43.3584 40.4769 43.4854 40.1451 43.58C39.8161 43.6749 39.4771 43.738 39.1357 43.7639C31.1907 44.197 23.2267 44.197 15.2819 43.7639C14.6009 43.7109 13.9259 43.5149 13.3131 43.2034C12.6931 42.8883 12.1351 42.4553 11.6787 41.9354C11.2197 41.4104 10.8627 40.7964 10.6155 40.1415C10.3675 39.4865 10.2285 38.7915 10.2065 38.0964Z" stroke="#8B1EFF" stroke-width="0.283" stroke-miterlimit="10"/>
<rect x="12.8885" y="6.42017" width="28.63" height="34.35" rx="1.46" stroke="#00FFFF" stroke-width="0.28"/>
<path d="M38.6898 4.53494C31.0758 4.43594 23.3388 4.43594 15.7238 4.53494C15.4321 4.53897 15.1431 4.56998 14.858 4.63004C14.787 4.64505 14.7151 4.66104 14.6451 4.67996C14.5751 4.69803 14.5051 4.71805 14.4361 4.74002C14.298 4.78397 14.162 4.83304 14.0311 4.89005C13.8981 4.94705 13.7681 5.01004 13.6421 5.07999C13.578 5.11502 13.515 5.15201 13.453 5.18997C13.3911 5.22806 13.33 5.26797 13.2701 5.30997C13.0321 5.47501 12.8121 5.66299 12.6111 5.87198C12.5101 5.97598 12.4151 6.08597 12.3251 6.20206C12.2791 6.25906 12.2361 6.31802 12.1931 6.37796C12.151 6.43704 12.1111 6.49698 12.0721 6.55899C11.9151 6.80399 11.7841 7.06302 11.677 7.33499C11.651 7.40298 11.625 7.47195 11.6021 7.54202C11.578 7.61197 11.556 7.68204 11.5361 7.75198C11.4951 7.89297 11.4621 8.03494 11.4351 8.17899C11.382 8.465 11.3551 8.75504 11.3551 9.05106C11.3528 18.4677 11.3519 27.8857 11.3499 37.3026C11.35 37.5961 11.371 37.886 11.414 38.172C11.436 38.3151 11.462 38.4571 11.4949 38.599C11.511 38.6701 11.5289 38.74 11.548 38.8101C11.567 38.881 11.588 38.9511 11.61 39.021C11.699 39.2991 11.809 39.568 11.9429 39.8251C11.977 39.89 12.0119 39.954 12.048 40.0171C12.084 40.0801 12.1219 40.1421 12.162 40.203C12.241 40.3241 12.324 40.442 12.4129 40.5541C12.502 40.667 12.597 40.776 12.6969 40.88C12.7469 40.9311 12.798 40.9821 12.852 41.032C12.905 41.0811 12.959 41.13 13.0139 41.1761C13.2359 41.3611 13.4729 41.521 13.727 41.6551C13.7899 41.688 13.8549 41.7201 13.92 41.75C13.9859 41.7801 14.0529 41.808 14.1199 41.8351C14.254 41.8871 14.3909 41.932 14.5289 41.9701C14.8049 42.0451 15.087 42.0911 15.377 42.1061C23.2194 42.5332 31.1934 42.5332 39.0353 42.1062C39.3265 42.0902 39.6095 42.0443 39.8855 41.9702C40.0235 41.9323 40.1595 41.8872 40.2935 41.8352C40.3605 41.8083 40.4276 41.7803 40.4935 41.7503C40.5595 41.7193 40.6245 41.6873 40.6875 41.6534C40.9435 41.5193 41.1805 41.3593 41.3995 41.1743C41.5105 41.0823 41.6155 40.9833 41.7175 40.8793C41.7665 40.8273 41.8165 40.7733 41.8635 40.7183C41.9115 40.6643 41.9576 40.6083 42.0025 40.5523C42.1805 40.3263 42.3355 40.0852 42.4685 39.8304C42.5345 39.7023 42.5965 39.5713 42.6516 39.4363C42.6795 39.3693 42.7065 39.3013 42.7305 39.2323C42.7565 39.1643 42.7795 39.0952 42.8026 39.0253C42.8895 38.7483 42.9545 38.4652 42.9985 38.1783C43.0096 38.1062 43.0175 38.0332 43.0266 37.9613C43.0345 37.8883 43.0415 37.8153 43.0465 37.7423C43.0575 37.5963 43.0625 37.4492 43.0625 37.3033C43.0609 27.886 43.0598 18.468 43.059 9.05057C43.058 8.75565 43.032 8.46268 42.977 8.17264C42.95 8.02762 42.9149 7.88467 42.8749 7.74466C42.834 7.60464 42.7879 7.46658 42.735 7.33157C42.6809 7.19559 42.6219 7.06265 42.5549 6.93265C42.5219 6.86758 42.4879 6.80264 42.451 6.73868C42.4139 6.67557 42.3759 6.61258 42.3369 6.55057C42.1799 6.30557 41.9999 6.07767 41.799 5.86868C41.7489 5.81668 41.6979 5.76566 41.645 5.71561C41.5909 5.66568 41.5379 5.61661 41.481 5.56961C41.3699 5.47464 41.2539 5.38663 41.136 5.3046C40.8979 5.14163 40.6459 5.00259 40.3789 4.88858C40.313 4.86063 40.2449 4.83365 40.1759 4.80765C40.1079 4.78262 40.0389 4.75858 39.9699 4.73758C39.8309 4.69461 39.692 4.65762 39.5509 4.62857C39.269 4.57059 38.9829 4.5386 38.6898 4.53494Z" stroke="#FF00FF" stroke-width="0.283465" stroke-miterlimit="10" stroke-linecap="round" stroke-linejoin="round"/>
<path d="M18.6589 20.2675C18.4047 20.59 18.1814 20.6768 17.9768 20.6768C17.6109 20.6768 17.3505 20.4287 17.3505 20.0939C17.3505 19.8954 17.4187 19.7342 17.4993 19.5544C17.9024 18.6986 18.4915 17.2847 18.4915 15.1391C18.4915 13.099 17.9024 11.6851 17.4993 10.8293C17.4187 10.6495 17.3505 10.4883 17.3505 10.2898C17.3505 9.95496 17.6109 9.70691 17.9768 9.70691C18.1814 9.70691 18.4047 9.79373 18.6589 10.1162C18.9876 10.5317 20.1596 12.1936 20.1596 15.1391C20.1596 18.1901 18.9876 19.852 18.6589 20.2675Z" fill="black"/>
<path d="M15.7692 32.674V32.2771C15.7692 29.7347 16.9846 28.0728 19 28.0728C21.0216 28.0728 22.2122 29.7161 22.2122 32.2771V32.674C22.2122 35.2103 20.9844 36.8784 18.9752 36.8784C16.966 36.8784 15.7692 35.2289 15.7692 32.674ZM17.4435 32.2833V32.6616C17.4435 34.4476 18.0264 35.5142 18.9876 35.5142C19.9488 35.5142 20.5317 34.4476 20.5317 32.6616V32.2833C20.5317 30.5036 19.9488 29.437 18.9876 29.437C18.0264 29.437 17.4435 30.4974 17.4435 32.2833Z" fill="black"/>
<path fill-rule="evenodd" clip-rule="evenodd" d="M32.6544 27.1256C33.0463 27.1393 33.3528 27.4681 33.3391 27.86L33.3344 27.9963L33.3344 27.9964C33.3008 28.9539 33.2704 29.8237 33.2453 30.6493C33.2418 30.7645 33.3715 30.8346 33.4676 30.7709C33.8868 30.4929 34.3111 30.2554 34.7324 30.0632C35.6739 29.6337 36.6505 29.408 37.5464 29.513C38.4704 29.6213 39.2831 30.0824 39.8065 30.9515C40.6977 32.4314 40.6871 34.0914 39.8219 35.3802C38.962 36.6612 37.3478 37.4478 35.2768 37.4176C34.8847 37.4119 34.5715 37.0894 34.5772 36.6973C34.583 36.3053 34.9054 35.992 35.2975 35.9978C37.0052 36.0227 38.1102 35.3824 38.6429 34.5887C39.1705 33.8029 39.2261 32.7403 38.59 31.684C38.3133 31.2245 37.9086 30.9852 37.3811 30.9234C36.8255 30.8583 36.1166 30.9926 35.3218 31.3551C34.6343 31.6687 33.9202 32.1364 33.239 32.729C33.2093 32.7548 33.1921 32.7921 33.1914 32.8315C33.1654 34.3193 33.1661 35.7909 33.2088 37.5472C33.2183 37.9392 32.9082 38.2647 32.5162 38.2743C32.1242 38.2838 31.7987 37.9737 31.7892 37.5817C31.7641 36.5484 31.7534 35.6118 31.7539 34.7137C31.754 34.58 31.5866 34.5232 31.5085 34.6318C31.2791 34.9508 31.0636 35.2857 30.866 35.6346C30.6727 35.9757 30.2394 36.0956 29.8982 35.9023C29.5571 35.709 29.4372 35.2758 29.6305 34.9346C30.2162 33.9007 30.9447 32.9684 31.7442 32.1794C31.7702 32.1537 31.7853 32.1189 31.7862 32.0824C31.7945 31.7151 31.8043 31.3444 31.8152 30.9661C31.8176 30.8825 31.7466 30.8153 31.6633 30.8232C31.2909 30.8586 30.9136 30.9067 30.4292 30.9763C30.0411 31.0322 29.6812 30.7628 29.6254 30.3746C29.5696 29.9865 29.839 29.6266 30.2271 29.5708C30.8194 29.4856 31.2684 29.4301 31.7406 29.3907C31.8117 29.3847 31.8674 29.3267 31.8698 29.2554C31.884 28.839 31.8991 28.4083 31.9148 27.9588L31.9148 27.9588L31.92 27.8103C31.9337 27.4184 32.2625 27.1119 32.6544 27.1256Z" fill="black"/>
<path fill-rule="evenodd" clip-rule="evenodd" d="M34.963 8.92941C35.3232 9.08434 35.4896 9.50195 35.3347 9.86217C35.2626 10.0297 35.1885 10.1959 35.1118 10.3614C35.0672 10.4576 35.1401 10.5674 35.246 10.5617C36.2143 10.5096 37.2226 10.417 38.4328 10.2637C38.8218 10.2144 39.1771 10.4898 39.2264 10.8788C39.2757 11.2678 39.0003 11.6232 38.6113 11.6724C36.9367 11.8846 35.6305 11.9838 34.3078 12.021C34.26 12.0224 34.2161 12.048 34.1913 12.0889C34.0842 12.2656 33.9716 12.4445 33.853 12.6265C33.78 12.7385 33.8909 12.8887 34.0215 12.8606C34.3092 12.7986 34.6034 12.7725 34.8998 12.7968C35.4394 12.8412 35.8945 13.0475 36.2234 13.4321C36.4402 13.6855 36.5723 13.9821 36.6552 14.2812C36.677 14.3599 36.7587 14.4073 36.8367 14.3836C37.7278 14.1132 38.6222 13.8932 39.3921 13.7099C39.7736 13.6191 40.1564 13.8547 40.2472 14.2361C40.3381 14.6176 40.1025 15.0004 39.721 15.0913C38.8351 15.3022 37.8448 15.5488 36.907 15.8488C36.8494 15.8673 36.8105 15.9208 36.81 15.9812C36.8099 15.99 36.8098 15.9988 36.8097 16.0076C36.8076 16.2181 36.803 16.4163 36.7984 16.6134V16.6135V16.6135V16.6135V16.6135C36.7923 16.8775 36.7862 17.1397 36.7862 17.4273C36.7862 17.8194 36.4683 18.1373 36.0762 18.1373C35.6841 18.1373 35.3662 17.8194 35.3662 17.4273C35.3662 17.14 35.3731 16.8319 35.3795 16.5435V16.5434V16.5434L35.3795 16.5433V16.5432Lnan nanL35.3795 16.5432C35.3808 16.4849 35.321 16.4451 35.268 16.4694C35.2326 16.4856 35.1975 16.502 35.1627 16.5184C34.4966 16.8335 34.0002 17.1663 33.7016 17.5048C33.4228 17.821 33.341 18.1071 33.4046 18.4192C33.4265 18.5266 33.5021 18.6623 33.796 18.8006C34.1017 18.9444 34.5562 19.0435 35.1376 19.0865C36.2918 19.1717 37.7275 19.0217 38.9186 18.8167C39.305 18.7502 39.6722 19.0095 39.7387 19.396C39.8053 19.7824 39.5459 20.1496 39.1595 20.2161C37.922 20.4291 36.3554 20.6002 35.033 20.5026C34.3761 20.4541 33.7237 20.3359 33.1915 20.0855C32.6474 19.8295 32.154 19.3941 32.0132 18.7026C31.8418 17.8609 32.1327 17.137 32.6365 16.5657C33.1206 16.0167 33.8169 15.5842 34.5556 15.2348C34.8023 15.1181 35.0606 15.0076 35.3265 14.9028C35.3326 14.9004 35.3363 14.894 35.3352 14.8875Lnan nanL35.3352 14.8875C35.2867 14.5877 35.2113 14.4334 35.1443 14.355C35.0974 14.3002 35.0134 14.231 34.7834 14.2121C34.2702 14.1699 33.6219 14.4401 32.8677 14.937C32.5067 15.1748 32.1533 15.4424 31.8113 15.707L31.6366 15.8425C31.3621 16.0558 31.0896 16.2675 30.8467 16.4368C30.5522 16.6419 30.151 16.595 29.9117 16.3276C29.6724 16.0602 29.6703 15.6563 29.9067 15.3864C30.9813 14.1596 31.7754 13.1533 32.3933 12.2542C32.4565 12.1622 32.3906 12.0379 32.279 12.037C31.7525 12.0327 31.198 12.0235 30.5964 12.0119C30.2044 12.0044 29.8927 11.6804 29.9003 11.2884C29.9078 10.8963 30.2318 10.5847 30.6238 10.5922C31.6292 10.6116 32.4953 10.6241 33.3146 10.6181C33.3657 10.6177 33.4125 10.5894 33.4365 10.5443C33.6579 10.1269 33.851 9.71773 34.0302 9.30111C34.1851 8.9409 34.6027 8.77448 34.963 8.92941Z" fill="black"/>
</svg>
