<svg width="54" height="54" viewBox="0 0 54 54" fill="none" xmlns="http://www.w3.org/2000/svg">
<rect x="1.8501" y="1.8501" width="50.3" height="50.3" rx="3" stroke="#8B1EFF" stroke-width="0.28"/>
<path d="M10.2065 37.1479V7.2959C10.2125 6.94397 10.252 6.59094 10.325 6.24585C10.397 5.90088 10.503 5.56384 10.6411 5.23901C10.9141 4.59497 11.3131 4.00098 11.8071 3.50171C12.2961 3.00769 12.8791 2.60559 13.5145 2.32971C13.8315 2.19177 14.1605 2.08582 14.4979 2.01257C14.8349 1.93958 15.1779 1.90051 15.5214 1.89661C19.4174 1.8656 23.3134 1.85059 27.2079 1.85059C31.1049 1.85059 34.9999 1.8656 38.8963 1.89673C39.2393 1.90076 39.5833 1.9397 39.9208 2.01318C40.2568 2.08618 40.5868 2.19312 40.903 2.33008C41.221 2.46802 41.525 2.63708 41.8108 2.8335C42.0978 3.03052 42.3658 3.25452 42.6108 3.50159C42.8578 3.75061 43.0808 4.02161 43.2748 4.31238C43.4708 4.60437 43.6398 4.91431 43.7772 5.23816C43.9142 5.56311 44.0212 5.90112 44.0934 6.24597C44.1664 6.59094 44.2054 6.94397 44.2104 7.29602C44.2104 7.29602 44.2104 37.1479 44.2101 37.1484C44.1891 37.8424 44.0511 38.5385 43.8027 39.1934C43.5557 39.8484 43.1977 40.4624 42.7389 40.9862C42.5089 41.2483 42.2549 41.4873 41.9799 41.7C41.7069 41.912 41.4139 42.0969 41.1049 42.2539C40.7979 42.4099 40.4769 42.5369 40.1451 42.6315C39.8161 42.7264 39.4771 42.7896 39.1357 42.8154C31.1907 43.2485 23.2267 43.2485 15.2819 42.8154C14.6009 42.7625 13.9259 42.5664 13.3131 42.2549C12.6931 41.9398 12.1351 41.5068 11.6787 40.9869C11.2197 40.4619 10.8627 39.8479 10.6155 39.193C10.3675 38.538 10.2285 37.843 10.2065 37.1479Z" stroke="#8B1EFF" stroke-width="0.283" stroke-miterlimit="10"/>
<rect x="12.8887" y="5.47168" width="28.63" height="34.35" rx="1.46" stroke="#00FFFF" stroke-width="0.28"/>
<path d="M38.6898 3.58646C31.0758 3.48746 23.3388 3.48746 15.7238 3.58646C15.4321 3.59048 15.1431 3.62149 14.858 3.68155C14.787 3.69656 14.7151 3.71255 14.6451 3.73148C14.5751 3.74954 14.5051 3.76956 14.4361 3.79153C14.298 3.83548 14.162 3.88455 14.0311 3.94156C13.8981 3.99857 13.7681 4.06155 13.6421 4.1315C13.578 4.16653 13.515 4.20352 13.453 4.24149C13.3911 4.27957 13.33 4.31949 13.2701 4.36148C13.0321 4.52652 12.8121 4.71451 12.6111 4.92349C12.5101 5.0275 12.4151 5.13748 12.3251 5.25357C12.2791 5.31058 12.2361 5.36954 12.1931 5.42947C12.151 5.48856 12.1111 5.54849 12.0721 5.6105C11.9151 5.8555 11.7841 6.11453 11.677 6.38651C11.651 6.4545 11.625 6.52347 11.6021 6.59354C11.578 6.66348 11.556 6.73355 11.5361 6.8035C11.4951 6.94449 11.4621 7.08646 11.4351 7.2305C11.382 7.51651 11.3551 7.80655 11.3551 8.10257C11.3528 17.5192 11.3519 26.9372 11.3499 36.3542C11.35 36.6476 11.371 36.9375 11.414 37.2235C11.436 37.3666 11.462 37.5086 11.4949 37.6505C11.511 37.7216 11.5289 37.7915 11.548 37.8616C11.567 37.9325 11.588 38.0026 11.61 38.0725C11.699 38.3506 11.809 38.6195 11.9429 38.8766C11.977 38.9416 12.0119 39.0055 12.048 39.0686C12.084 39.1316 12.1219 39.1936 12.162 39.2545C12.241 39.3756 12.324 39.4936 12.4129 39.6056C12.502 39.7185 12.597 39.8275 12.6969 39.9315C12.7469 39.9826 12.798 40.0336 12.852 40.0835C12.905 40.1326 12.959 40.1815 13.0139 40.2276C13.2359 40.4126 13.4729 40.5725 13.727 40.7066C13.7899 40.7395 13.8549 40.7716 13.92 40.8015C13.9859 40.8316 14.0529 40.8595 14.1199 40.8866C14.254 40.9386 14.3909 40.9836 14.5289 41.0216C14.8049 41.0966 15.087 41.1426 15.377 41.1576C23.2194 41.5847 31.1934 41.5847 39.0353 41.1577C39.3265 41.1418 39.6095 41.0959 39.8855 41.0218C40.0235 40.9838 40.1595 40.9388 40.2935 40.8867C40.3605 40.8598 40.4276 40.8318 40.4935 40.8018C40.5595 40.7708 40.6245 40.7388 40.6875 40.7049C40.9435 40.5708 41.1805 40.4108 41.3995 40.2259C41.5105 40.1338 41.6155 40.0348 41.7175 39.9308C41.7665 39.8788 41.8165 39.8249 41.8635 39.7698C41.9115 39.7159 41.9576 39.6598 42.0025 39.6038C42.1805 39.3778 42.3355 39.1367 42.4685 38.8819C42.5345 38.7538 42.5965 38.6228 42.6516 38.4878C42.6795 38.4208 42.7065 38.3528 42.7305 38.2838C42.7565 38.2159 42.7795 38.1468 42.8026 38.0768C42.8895 37.7998 42.9545 37.5168 42.9985 37.2298C43.0096 37.1577 43.0175 37.0847 43.0266 37.0128C43.0345 36.9398 43.0415 36.8669 43.0465 36.7939C43.0575 36.6479 43.0625 36.5008 43.0625 36.3548C43.0609 26.9375 43.0598 17.5196 43.059 8.10208C43.058 7.80716 43.032 7.51419 42.977 7.22415C42.95 7.07913 42.9149 6.93619 42.8749 6.79617C42.834 6.65616 42.7879 6.5181 42.735 6.38309C42.6809 6.2471 42.6219 6.11417 42.5549 5.98416C42.5219 5.9191 42.4879 5.85416 42.451 5.79019C42.4139 5.72708 42.3759 5.66409 42.3369 5.60208C42.1799 5.35709 41.9999 5.12918 41.799 4.9202C41.7489 4.86819 41.6979 4.81717 41.645 4.76712C41.5909 4.71719 41.5379 4.66812 41.481 4.62112C41.3699 4.52615 41.2539 4.43814 41.136 4.35611C40.8979 4.19315 40.6459 4.05411 40.3789 3.94009C40.313 3.91214 40.2449 3.88516 40.1759 3.85916C40.1079 3.83414 40.0389 3.81009 39.9699 3.78909C39.8309 3.74612 39.692 3.70914 39.5509 3.68008C39.269 3.6221 38.9829 3.59012 38.6898 3.58646Z" stroke="#FF00FF" stroke-width="0.283465" stroke-miterlimit="10" stroke-linecap="round" stroke-linejoin="round"/>
<path d="M18.2558 14.2896L18.1256 9.91782C18.107 9.43413 18.4853 9.04346 19 9.04346C19.5146 9.04346 19.8991 9.43413 19.8805 9.91782L19.7317 14.2896C19.7131 14.7051 19.3968 14.9966 19 14.9966C18.5907 14.9966 18.2682 14.6927 18.2558 14.2896ZM18.0574 16.9996C18.0574 16.4849 18.4791 16.1252 18.9937 16.1252C19.5146 16.1252 19.9363 16.4849 19.9363 16.9996C19.9363 17.5143 19.5146 17.8739 18.9937 17.8739C18.4791 17.8739 18.0574 17.5143 18.0574 16.9996Z" fill="black"/>
<path d="M18.9471 34.9195V29.1495C18.9471 29.0295 18.8171 28.9695 18.7271 29.0295L18.0671 29.4995C17.8271 29.6595 17.6771 29.7195 17.5171 29.7295C17.1671 29.7495 16.8871 29.5095 16.8671 29.1595C16.8571 28.8895 17.0171 28.6495 17.3471 28.4295L18.4571 27.6595C18.9071 27.3595 19.2571 27.2295 19.6071 27.2295C20.2071 27.2295 20.6071 27.6495 20.6071 28.2695V34.9195C20.6071 35.4895 20.3071 35.8195 19.7771 35.8195C19.2471 35.8195 18.9571 35.4895 18.9571 34.9195H18.9471Z" fill="black"/>
<path fill-rule="evenodd" clip-rule="evenodd" d="M36.3849 27.2593C36.4119 26.8681 36.1166 26.5291 35.7254 26.5022C35.3342 26.4753 34.9952 26.7706 34.9683 27.1618C34.9399 27.574 34.881 28.004 34.7962 28.4414C34.7843 28.5025 34.7331 28.5478 34.6713 28.5541C33.8199 28.6414 33.0717 28.9011 32.427 29.2721C32.3386 29.3229 32.225 29.2693 32.2131 29.168C32.1584 28.7042 32.1276 28.2577 32.1276 27.8456C32.1276 27.4535 31.8097 27.1356 31.4176 27.1356C31.0255 27.1356 30.7076 27.4535 30.7076 27.8456C30.7076 28.6386 30.8055 29.5175 30.9598 30.3938C30.9673 30.4362 30.9549 30.4796 30.9266 30.512C30.5352 30.9598 30.2202 31.4484 29.9816 31.939C29.5597 32.8065 29.3506 33.7289 29.3983 34.511C29.4434 35.251 29.7604 36.1398 30.6727 36.3802C31.3553 36.5602 31.9973 36.2856 32.5206 35.8905C32.5891 35.8387 32.688 35.8564 32.7356 35.928C32.74 35.9345 32.7443 35.941 32.7487 35.9474C32.969 36.2718 33.4106 36.3561 33.7349 36.1358C34.0593 35.9155 34.1436 35.4739 33.9233 35.1495C33.8658 35.0649 33.7929 34.9321 33.7086 34.7531C33.6869 34.7069 33.6928 34.6527 33.7228 34.6115C33.9874 34.2482 34.2398 33.8462 34.4755 33.4212C35.0233 32.4334 35.5094 31.2697 35.8569 30.0791C35.8757 30.0146 35.9375 29.972 36.0043 29.9791C36.7795 30.062 37.302 30.2732 37.6548 30.5234C38.0841 30.8279 38.3241 31.2339 38.4474 31.6945C38.5758 32.1741 38.5726 32.6961 38.5145 33.1664C38.5022 33.2662 38.3899 33.3169 38.3025 33.2673C38.127 33.1679 37.9541 33.0873 37.7837 33.0247C36.9067 32.7024 36.1105 32.871 35.559 33.3838C35.0461 33.8606 34.8192 34.5672 34.8703 35.21C34.9228 35.8688 35.2842 36.567 36.06 36.8649C36.8185 37.1561 37.6249 36.8948 38.2106 36.516C38.4618 36.3536 38.7018 36.1519 38.9137 35.9206C38.9729 35.856 39.0762 35.856 39.131 35.9243C39.197 36.0066 39.2641 36.0928 39.3324 36.1829C39.569 36.4956 40.0143 36.5573 40.327 36.3206C40.6396 36.084 40.7013 35.6387 40.4647 35.326C40.2268 35.0117 39.9922 34.7297 39.7611 34.4786C39.728 34.4428 39.7157 34.3925 39.7282 34.3454C39.9229 33.612 40.1173 32.4411 39.8191 31.3273C39.6256 30.6045 39.2205 29.893 38.4762 29.3651C37.9271 28.9757 37.229 28.7115 36.3646 28.5928C36.2844 28.5818 36.2286 28.5066 36.2423 28.4268C36.3102 28.0311 36.3587 27.64 36.3849 27.2593ZM32.9722 32.7282C33.0068 32.8443 33.1615 32.8621 33.2205 32.7563C33.2249 32.7484 33.2293 32.7404 33.2337 32.7325C33.6461 31.9889 34.0181 31.1375 34.3122 30.2601C34.3462 30.1588 34.2573 30.0603 34.1539 30.0875C33.5471 30.2469 33.022 30.5279 32.5787 30.8838C32.5381 30.9163 32.52 30.9692 32.5312 31.0201C32.617 31.4114 32.7127 31.7995 32.8148 32.1752C32.8662 32.3641 32.9188 32.5488 32.9722 32.7282ZM31.4445 32.5476C31.4222 32.4652 31.3118 32.4521 31.274 32.5287C31.2688 32.5391 31.2637 32.5495 31.2586 32.56C30.9193 33.2578 30.7859 33.9366 30.8156 34.4246C30.848 34.9549 31.0283 35.0055 31.0346 35.0071C31.132 35.0328 31.3989 35.0154 31.8665 34.589C31.9027 34.556 31.9392 34.5213 31.9759 34.485C32.0142 34.4472 32.026 34.3903 32.0076 34.3397C31.8155 33.8113 31.6216 33.1991 31.4445 32.5476V32.5476ZM37.2939 34.3575C37.4678 34.4214 37.6726 34.5299 37.9059 34.6999C37.967 34.7444 37.9791 34.8304 37.9306 34.8883C37.7936 35.0523 37.6257 35.2032 37.4395 35.3236C37.0436 35.5797 36.7288 35.6006 36.569 35.5392C36.4161 35.4805 36.3053 35.3422 36.2858 35.0973C36.2651 34.8363 36.3664 34.572 36.5259 34.4237C36.6467 34.3113 36.8669 34.2006 37.2939 34.3575Z" fill="black"/>
</svg>
