<svg width="54" height="55" viewBox="0 0 54 55" fill="none" xmlns="http://www.w3.org/2000/svg">
<rect x="1.8501" y="2.79846" width="50.3" height="50.3" rx="3" stroke="#8B1EFF" stroke-width="0.28"/>
<path d="M10.2065 38.0964V8.24438C10.2125 7.89246 10.252 7.53943 10.325 7.19434C10.397 6.84937 10.503 6.51233 10.6411 6.1875C10.9141 5.54346 11.3131 4.94946 11.8071 4.4502C12.2961 3.95618 12.8791 3.55408 13.5145 3.2782C13.8315 3.14026 14.1605 3.0343 14.4979 2.96106C14.8349 2.88806 15.1779 2.849 15.5214 2.84509C19.4174 2.81409 23.3134 2.79907 27.2079 2.79907C31.1049 2.79907 34.9999 2.81409 38.8963 2.84521C39.2393 2.84924 39.5833 2.88818 39.9208 2.96167C40.2568 3.03467 40.5868 3.1416 40.903 3.27856C41.221 3.4165 41.525 3.58557 41.8108 3.78198C42.0978 3.979 42.3658 4.203 42.6108 4.45007C42.8578 4.6991 43.0808 4.97009 43.2748 5.26086C43.4708 5.55286 43.6398 5.86279 43.7772 6.18665C43.9142 6.5116 44.0212 6.84961 44.0934 7.19446C44.1664 7.53943 44.2054 7.89246 44.2104 8.24451C44.2104 8.24451 44.2104 38.0964 44.2101 38.0969C44.1891 38.7909 44.0511 39.4869 43.8027 40.1418C43.5557 40.7969 43.1977 41.4109 42.7389 41.9347C42.5089 42.1968 42.2549 42.4358 41.9799 42.6484C41.7069 42.8605 41.4139 43.0454 41.1049 43.2024C40.7979 43.3584 40.4769 43.4854 40.1451 43.58C39.8161 43.6749 39.4771 43.738 39.1357 43.7639C31.1907 44.197 23.2267 44.197 15.2819 43.7639C14.6009 43.7109 13.9259 43.5149 13.3131 43.2034C12.6931 42.8883 12.1351 42.4553 11.6787 41.9354C11.2197 41.4104 10.8627 40.7964 10.6155 40.1415C10.3675 39.4865 10.2285 38.7915 10.2065 38.0964Z" stroke="#8B1EFF" stroke-width="0.283" stroke-miterlimit="10"/>
<rect x="12.8887" y="6.42017" width="28.63" height="34.35" rx="1.46" stroke="#00FFFF" stroke-width="0.28"/>
<path d="M38.6898 4.53494C31.0758 4.43594 23.3388 4.43594 15.7238 4.53494C15.4321 4.53897 15.1431 4.56998 14.858 4.63004C14.787 4.64505 14.7151 4.66104 14.6451 4.67996C14.5751 4.69803 14.5051 4.71805 14.4361 4.74002C14.298 4.78397 14.162 4.83304 14.0311 4.89005C13.8981 4.94705 13.7681 5.01004 13.6421 5.07999C13.578 5.11502 13.515 5.15201 13.453 5.18997C13.3911 5.22806 13.33 5.26797 13.2701 5.30997C13.0321 5.47501 12.8121 5.66299 12.6111 5.87198C12.5101 5.97598 12.4151 6.08597 12.3251 6.20206C12.2791 6.25906 12.2361 6.31802 12.1931 6.37796C12.151 6.43704 12.1111 6.49698 12.0721 6.55899C11.9151 6.80399 11.7841 7.06302 11.677 7.33499C11.651 7.40298 11.625 7.47195 11.6021 7.54202C11.578 7.61197 11.556 7.68204 11.5361 7.75198C11.4951 7.89297 11.4621 8.03494 11.4351 8.17899C11.382 8.465 11.3551 8.75504 11.3551 9.05106C11.3528 18.4677 11.3519 27.8857 11.3499 37.3026C11.35 37.5961 11.371 37.886 11.414 38.172C11.436 38.3151 11.462 38.4571 11.4949 38.599C11.511 38.6701 11.5289 38.74 11.548 38.8101C11.567 38.881 11.588 38.9511 11.61 39.021C11.699 39.2991 11.809 39.568 11.9429 39.8251C11.977 39.89 12.0119 39.954 12.048 40.0171C12.084 40.0801 12.1219 40.1421 12.162 40.203C12.241 40.3241 12.324 40.442 12.4129 40.5541C12.502 40.667 12.597 40.776 12.6969 40.88C12.7469 40.9311 12.798 40.9821 12.852 41.032C12.905 41.0811 12.959 41.13 13.0139 41.1761C13.2359 41.3611 13.4729 41.521 13.727 41.6551C13.7899 41.688 13.8549 41.7201 13.92 41.75C13.9859 41.7801 14.0529 41.808 14.1199 41.8351C14.254 41.8871 14.3909 41.932 14.5289 41.9701C14.8049 42.0451 15.087 42.0911 15.377 42.1061C23.2194 42.5332 31.1934 42.5332 39.0353 42.1062C39.3265 42.0902 39.6095 42.0443 39.8855 41.9702C40.0235 41.9323 40.1595 41.8872 40.2935 41.8352C40.3605 41.8083 40.4276 41.7803 40.4935 41.7503C40.5595 41.7193 40.6245 41.6873 40.6875 41.6534C40.9435 41.5193 41.1805 41.3593 41.3995 41.1743C41.5105 41.0823 41.6155 40.9833 41.7175 40.8793C41.7665 40.8273 41.8165 40.7733 41.8635 40.7183C41.9115 40.6643 41.9576 40.6083 42.0025 40.5523C42.1805 40.3263 42.3355 40.0852 42.4685 39.8304C42.5345 39.7023 42.5965 39.5713 42.6516 39.4363C42.6795 39.3693 42.7065 39.3013 42.7305 39.2323C42.7565 39.1643 42.7795 39.0952 42.8026 39.0253C42.8895 38.7483 42.9545 38.4652 42.9985 38.1783C43.0096 38.1062 43.0175 38.0332 43.0266 37.9613C43.0345 37.8883 43.0415 37.8153 43.0465 37.7423C43.0575 37.5963 43.0625 37.4492 43.0625 37.3033C43.0609 27.886 43.0598 18.468 43.059 9.05057C43.058 8.75565 43.032 8.46268 42.977 8.17264C42.95 8.02762 42.9149 7.88467 42.8749 7.74466C42.834 7.60464 42.7879 7.46658 42.735 7.33157C42.6809 7.19559 42.6219 7.06265 42.5549 6.93265C42.5219 6.86758 42.4879 6.80264 42.451 6.73868C42.4139 6.67557 42.3759 6.61258 42.3369 6.55057C42.1799 6.30557 41.9999 6.07767 41.799 5.86868C41.7489 5.81668 41.6979 5.76566 41.645 5.71561C41.5909 5.66568 41.5379 5.61661 41.481 5.56961C41.3699 5.47464 41.2539 5.38663 41.136 5.3046C40.8979 5.14163 40.6459 5.00259 40.3789 4.88858C40.313 4.86063 40.2449 4.83365 40.1759 4.80765C40.1079 4.78262 40.0389 4.75858 39.9699 4.73758C39.8309 4.69461 39.692 4.65762 39.5509 4.62857C39.269 4.57059 38.9829 4.5386 38.6898 4.53494Z" stroke="#FF00FF" stroke-width="0.283465" stroke-miterlimit="10" stroke-linecap="round" stroke-linejoin="round"/>
<path fill-rule="evenodd" clip-rule="evenodd" d="M30.2024 28.2986C30.2024 27.9065 30.5203 27.5886 30.9124 27.5886L38.7374 27.5887C39.3515 27.5887 39.8615 28.1167 39.7912 28.7581C39.6042 30.4626 39.0607 32.2269 37.8976 33.7428C36.7284 35.2667 34.9697 36.4913 32.4405 37.1652C32.0616 37.2661 31.6725 37.0408 31.5716 36.6619C31.4706 36.283 31.6959 35.894 32.0748 35.7931C34.3333 35.1913 35.8117 34.1287 36.771 32.8784C37.6164 31.7766 38.0868 30.4917 38.3027 29.169C38.3165 29.0846 38.2509 29.0087 38.1654 29.0087L30.9124 29.0086C30.5203 29.0086 30.2024 28.6907 30.2024 28.2986Z" fill="black"/>
<path d="M19.5891 15.3093L19.4712 13.4676C19.4402 13.0459 19.7503 12.6986 20.1968 12.6986C20.6433 12.6986 20.9471 13.0521 20.9161 13.4676L20.7983 15.3093C20.7735 15.6628 20.5254 15.9542 20.1906 15.9542C19.8557 15.9542 19.6077 15.6628 19.5891 15.3093ZM17.1768 15.3093L17.059 13.4676C17.028 13.0459 17.3442 12.6986 17.7845 12.6986C18.231 12.6986 18.5349 13.0521 18.5039 13.4676L18.386 15.3093C18.3612 15.6628 18.1132 15.9542 17.7783 15.9542C17.4435 15.9542 17.1954 15.6628 17.1768 15.3093Z" fill="black"/>
<path d="M16.2057 35.9528C16.2057 35.6328 16.3757 35.3728 16.8957 34.8328L19.2057 32.3428C19.8857 31.6128 20.1557 31.1428 20.1557 30.6228C20.1557 29.9128 19.6457 29.4428 18.8757 29.4428C18.2457 29.4428 17.7757 29.7928 17.5357 30.4428C17.3357 30.8328 17.1157 31.0028 16.7857 30.9928C16.4157 30.9828 16.1157 30.6628 16.1157 30.2728C16.1157 29.1628 17.3057 28.0728 18.9757 28.0728C20.6457 28.0728 21.7957 29.0828 21.7957 30.4828C21.7957 31.3328 21.4157 32.0328 20.3557 33.1528L18.5357 35.1028C18.4557 35.1928 18.5157 35.3428 18.6357 35.3428H21.2957C21.7757 35.3428 22.0757 35.6028 22.0757 36.0328C22.0757 36.4628 21.7857 36.7128 21.2957 36.7128H17.1057C16.5557 36.7128 16.2057 36.4128 16.2057 35.9628V35.9528Z" fill="black"/>
</svg>
