<svg width="54" height="55" viewBox="0 0 54 55" fill="none" xmlns="http://www.w3.org/2000/svg">
<rect x="1.84998" y="2.79846" width="50.3" height="50.3" rx="3" stroke="#8B1EFF" stroke-width="0.28"/>
<path d="M10.2065 38.0964V8.24438C10.2125 7.89246 10.252 7.53943 10.325 7.19434C10.397 6.84937 10.503 6.51233 10.6411 6.1875C10.9141 5.54346 11.3131 4.94946 11.8071 4.4502C12.2961 3.95618 12.8791 3.55408 13.5145 3.2782C13.8315 3.14026 14.1605 3.0343 14.4979 2.96106C14.8349 2.88806 15.1779 2.849 15.5214 2.84509C19.4174 2.81409 23.3134 2.79907 27.2079 2.79907C31.1049 2.79907 34.9999 2.81409 38.8963 2.84521C39.2393 2.84924 39.5833 2.88818 39.9208 2.96167C40.2568 3.03467 40.5868 3.1416 40.903 3.27856C41.221 3.4165 41.525 3.58557 41.8108 3.78198C42.0978 3.979 42.3658 4.203 42.6108 4.45007C42.8578 4.6991 43.0808 4.97009 43.2748 5.26086C43.4708 5.55286 43.6398 5.86279 43.7772 6.18665C43.9142 6.5116 44.0212 6.84961 44.0934 7.19446C44.1664 7.53943 44.2054 7.89246 44.2104 8.24451C44.2104 8.24451 44.2104 38.0964 44.2101 38.0969C44.1891 38.7909 44.0511 39.4869 43.8027 40.1418C43.5557 40.7969 43.1977 41.4109 42.7389 41.9347C42.5089 42.1968 42.2549 42.4358 41.9799 42.6484C41.7069 42.8605 41.4139 43.0454 41.1049 43.2024C40.7979 43.3584 40.4769 43.4854 40.1451 43.58C39.8161 43.6749 39.4771 43.738 39.1357 43.7639C31.1907 44.197 23.2267 44.197 15.2819 43.7639C14.6009 43.7109 13.9259 43.5149 13.3131 43.2034C12.6931 42.8883 12.1351 42.4553 11.6787 41.9354C11.2197 41.4104 10.8627 40.7964 10.6155 40.1415C10.3675 39.4865 10.2285 38.7915 10.2065 38.0964Z" stroke="#8B1EFF" stroke-width="0.283" stroke-miterlimit="10"/>
<rect x="12.8885" y="6.42017" width="28.63" height="34.35" rx="1.46" stroke="#00FFFF" stroke-width="0.28"/>
<path d="M38.6898 4.53494C31.0758 4.43594 23.3388 4.43594 15.7238 4.53494C15.4321 4.53897 15.1431 4.56998 14.858 4.63004C14.787 4.64505 14.7151 4.66104 14.6451 4.67996C14.5751 4.69803 14.5051 4.71805 14.4361 4.74002C14.298 4.78397 14.162 4.83304 14.0311 4.89005C13.8981 4.94705 13.7681 5.01004 13.6421 5.07999C13.578 5.11502 13.515 5.15201 13.453 5.18997C13.3911 5.22806 13.33 5.26797 13.2701 5.30997C13.0321 5.47501 12.8121 5.66299 12.6111 5.87198C12.5101 5.97598 12.4151 6.08597 12.3251 6.20206C12.2791 6.25906 12.2361 6.31802 12.1931 6.37796C12.151 6.43704 12.1111 6.49698 12.0721 6.55899C11.9151 6.80399 11.7841 7.06302 11.677 7.33499C11.651 7.40298 11.625 7.47195 11.6021 7.54202C11.578 7.61197 11.556 7.68204 11.5361 7.75198C11.4951 7.89297 11.4621 8.03494 11.4351 8.17899C11.382 8.465 11.3551 8.75504 11.3551 9.05106C11.3528 18.4677 11.3519 27.8857 11.3499 37.3026C11.35 37.5961 11.371 37.886 11.414 38.172C11.436 38.3151 11.462 38.4571 11.4949 38.599C11.511 38.6701 11.5289 38.74 11.548 38.8101C11.567 38.881 11.588 38.9511 11.61 39.021C11.699 39.2991 11.809 39.568 11.9429 39.8251C11.977 39.89 12.0119 39.954 12.048 40.0171C12.084 40.0801 12.1219 40.1421 12.162 40.203C12.241 40.3241 12.324 40.442 12.4129 40.5541C12.502 40.667 12.597 40.776 12.6969 40.88C12.7469 40.9311 12.798 40.9821 12.852 41.032C12.905 41.0811 12.959 41.13 13.0139 41.1761C13.2359 41.3611 13.4729 41.521 13.727 41.6551C13.7899 41.688 13.8549 41.7201 13.92 41.75C13.9859 41.7801 14.0529 41.808 14.1199 41.8351C14.254 41.8871 14.3909 41.932 14.5289 41.9701C14.8049 42.0451 15.087 42.0911 15.377 42.1061C23.2194 42.5332 31.1934 42.5332 39.0353 42.1062C39.3265 42.0902 39.6095 42.0443 39.8855 41.9702C40.0235 41.9323 40.1595 41.8872 40.2935 41.8352C40.3605 41.8083 40.4276 41.7803 40.4935 41.7503C40.5595 41.7193 40.6245 41.6873 40.6875 41.6534C40.9435 41.5193 41.1805 41.3593 41.3995 41.1743C41.5105 41.0823 41.6155 40.9833 41.7175 40.8793C41.7665 40.8273 41.8165 40.7733 41.8635 40.7183C41.9115 40.6643 41.9576 40.6083 42.0025 40.5523C42.1805 40.3263 42.3355 40.0852 42.4685 39.8304C42.5345 39.7023 42.5965 39.5713 42.6516 39.4363C42.6795 39.3693 42.7065 39.3013 42.7305 39.2323C42.7565 39.1643 42.7795 39.0952 42.8026 39.0253C42.8895 38.7483 42.9545 38.4652 42.9985 38.1783C43.0096 38.1062 43.0175 38.0332 43.0266 37.9613C43.0345 37.8883 43.0415 37.8153 43.0465 37.7423C43.0575 37.5963 43.0625 37.4492 43.0625 37.3033C43.0609 27.886 43.0598 18.468 43.059 9.05057C43.058 8.75565 43.032 8.46268 42.977 8.17264C42.95 8.02762 42.9149 7.88467 42.8749 7.74466C42.834 7.60464 42.7879 7.46658 42.735 7.33157C42.6809 7.19559 42.6219 7.06265 42.5549 6.93265C42.5219 6.86758 42.4879 6.80264 42.451 6.73868C42.4139 6.67557 42.3759 6.61258 42.3369 6.55057C42.1799 6.30557 41.9999 6.07767 41.799 5.86868C41.7489 5.81668 41.6979 5.76566 41.645 5.71561C41.5909 5.66568 41.5379 5.61661 41.481 5.56961C41.3699 5.47464 41.2539 5.38663 41.136 5.3046C40.8979 5.14163 40.6459 5.00259 40.3789 4.88858C40.313 4.86063 40.2449 4.83365 40.1759 4.80765C40.1079 4.78262 40.0389 4.75858 39.9699 4.73758C39.8309 4.69461 39.692 4.65762 39.5509 4.62857C39.269 4.57059 38.9829 4.5386 38.6898 4.53494Z" stroke="#FF00FF" stroke-width="0.283465" stroke-miterlimit="10" stroke-linecap="round" stroke-linejoin="round"/>
<path d="M19 18.0102L19.2885 16.5843C19.3061 16.4976 19.2398 16.4165 19.1513 16.4165H18.0108C17.9441 16.4165 17.8867 16.4635 17.8736 16.5289L17.5303 18.2335C17.4559 18.6179 17.2141 18.8226 16.8854 18.8226C16.5443 18.8226 16.3149 18.5931 16.3149 18.2397C16.3149 18.1653 16.3211 18.0784 16.3335 18.0102L16.6275 16.5848C16.6454 16.4979 16.579 16.4165 16.4903 16.4165H16.1661C15.7072 16.4165 15.4653 16.1809 15.4653 15.8088C15.4653 15.4491 15.7072 15.2197 16.1661 15.2197H16.7829C16.8497 15.2197 16.9072 15.1725 16.9202 15.107L17.1809 13.7933C17.1981 13.7067 17.1318 13.626 17.0436 13.626H16.7614C16.3025 13.626 16.0606 13.3842 16.0606 13.0183C16.0606 12.6524 16.3025 12.423 16.7614 12.423H17.3416C17.4081 12.423 17.4655 12.3762 17.4788 12.311L17.8032 10.7239C17.8714 10.358 18.107 10.1595 18.4109 10.1595C18.7644 10.1595 19.0186 10.4138 19.0186 10.7549C19.0186 10.8169 19.0062 10.8975 18.9938 10.9657L18.7305 12.255C18.7127 12.3417 18.779 12.423 18.8676 12.423H20.0019C20.0684 12.423 20.1258 12.3762 20.1391 12.311L20.4635 10.7239C20.5379 10.3642 20.7735 10.1595 21.0898 10.1595C21.4371 10.1595 21.6851 10.4138 21.6851 10.7549C21.6851 10.8169 21.6789 10.8975 21.6665 10.9657L21.3978 12.2544C21.3797 12.3413 21.446 12.423 21.5348 12.423H21.9394C22.3982 12.423 22.6277 12.6462 22.6277 13.0121C22.6277 13.3904 22.392 13.626 21.927 13.626H21.2415C21.1749 13.626 21.1175 13.6729 21.1043 13.7382L20.8045 15.2197H21.344C21.8029 15.2197 22.0324 15.4367 22.0324 15.8088C22.0324 16.1809 21.7967 16.4165 21.3316 16.4165H20.6773C20.6106 16.4165 20.5532 16.4635 20.5401 16.5289L20.1968 18.2335C20.1224 18.6179 19.8868 18.8226 19.5643 18.8226C19.217 18.8226 18.9752 18.5869 18.9752 18.2397C18.9752 18.1653 18.9876 18.0784 19 18.0102ZM18.4947 13.5082C18.4279 13.5082 18.3705 13.5553 18.3574 13.6207L18.0475 15.1701C18.0302 15.2567 18.0964 15.3375 18.1848 15.3375H19.5298C19.5967 15.3375 19.6542 15.2902 19.6671 15.2245L19.9718 13.6752C19.9888 13.5887 19.9225 13.5082 19.8344 13.5082H18.4947Z" fill="black"/>
<path d="M15.9954 34.9128C15.9954 34.5228 16.2754 34.2328 16.6554 34.2328C16.9254 34.2328 17.1354 34.3628 17.3654 34.7028C17.7254 35.2728 18.2754 35.5728 18.9754 35.5728C19.9054 35.5728 20.5054 35.0728 20.5054 34.3028C20.5054 33.5328 19.8954 33.0128 18.9754 33.0128H18.3654C17.9954 33.0128 17.7254 32.7328 17.7254 32.3528C17.7254 31.9728 17.9954 31.7028 18.3654 31.7028H18.9454C19.7054 31.7028 20.2654 31.2028 20.2654 30.5228C20.2654 29.8428 19.7154 29.3728 18.9354 29.3728C18.3254 29.3728 17.8454 29.6628 17.5154 30.2128C17.3254 30.5228 17.1154 30.6528 16.8254 30.6528C16.4254 30.6528 16.1454 30.3728 16.1454 29.9728C16.1454 28.9828 17.3454 28.0728 18.9554 28.0728C20.6654 28.0728 21.8654 28.9928 21.8654 30.3228C21.8654 31.0728 21.4054 31.8028 20.7754 32.1128C20.6654 32.1728 20.6654 32.3228 20.7854 32.3628C21.5754 32.6528 22.1254 33.4528 22.1254 34.3628C22.1254 35.8428 20.8154 36.8828 18.9454 36.8828C17.2754 36.8828 15.9854 35.9428 15.9854 34.9128H15.9954Z" fill="black"/>
<path fill-rule="evenodd" clip-rule="evenodd" d="M33.6891 27.1536C34.0795 27.1908 34.3657 27.5375 34.3285 27.9278C34.3241 27.974 34.3198 28.0203 34.3155 28.0665C34.3077 28.1516 34.3775 28.2236 34.4628 28.2182C35.5931 28.1463 36.7813 28.0132 38.312 27.8085C38.7007 27.7566 39.0579 28.0295 39.1099 28.4182C39.1618 28.8069 38.8889 29.1641 38.5002 29.216C36.8436 29.4375 35.5665 29.5783 34.3277 29.6489C34.256 29.653 34.1988 29.7104 34.1956 29.7821C34.1787 30.154 34.1683 30.5262 34.1655 30.8988C34.1648 30.9841 34.2404 31.0496 34.3251 31.0393C34.6948 30.9943 35.0849 30.9737 35.4948 30.981C35.6024 30.9829 35.7077 30.9865 35.8109 30.9917C35.8203 30.9922 35.8284 30.9852 35.8293 30.9758C35.8635 30.5852 36.2079 30.2963 36.5985 30.3305C36.9892 30.3647 37.2781 30.7092 37.2438 31.0998C37.2389 31.1563 37.275 31.2084 37.3297 31.2237C37.7093 31.3294 38.0447 31.4675 38.3398 31.6342C39.0522 32.0365 39.4922 32.5846 39.7427 33.1576C40.224 34.2583 39.9796 35.3775 39.8753 35.6842C39.6264 36.4162 39.0473 37.0164 38.3601 37.4415C37.6644 37.8717 36.8032 38.1587 35.8917 38.2346C35.5009 38.2672 35.1578 37.9768 35.1252 37.586C35.0926 37.1953 35.383 36.8521 35.7738 36.8195C36.4716 36.7614 37.1158 36.5414 37.6131 36.2338C38.1188 35.9211 38.4202 35.5526 38.5309 35.2271C38.5729 35.1038 38.7276 34.3806 38.4416 33.7264C38.3085 33.422 38.0734 33.1145 37.6415 32.8706C37.4767 32.7775 37.2783 32.691 37.04 32.6183C36.9699 32.5969 36.8964 32.6359 36.8709 32.7046C36.4485 33.8386 35.7288 34.8798 34.9285 35.6533C34.8634 35.7162 34.7973 35.7779 34.7304 35.838C34.6922 35.8723 34.6751 35.9244 34.6866 35.9744C34.6896 35.9873 34.6926 36.0003 34.6956 36.0133C34.7842 36.3952 34.5465 36.7767 34.1645 36.8654C33.96 36.9129 33.7557 36.8668 33.5964 36.7552C33.5478 36.7211 33.4845 36.7115 33.4314 36.7377C33.2853 36.8099 33.138 36.8729 32.99 36.9256C32.3081 37.1687 31.5386 37.2151 30.8604 36.8179C30.2075 36.4355 29.8545 35.8025 29.8029 35.1086C29.7527 34.4333 29.9857 33.7325 30.421 33.1215C30.9088 32.4366 31.6626 31.8401 32.6545 31.4517C32.7094 31.4302 32.7459 31.3772 32.7455 31.3182C32.7417 30.8259 32.7511 30.3363 32.7713 29.8494C32.7746 29.769 32.71 29.7021 32.6296 29.7027C32.085 29.7065 31.519 29.6984 30.9051 29.6792C30.5132 29.6669 30.2054 29.3392 30.2177 28.9473C30.23 28.5553 30.5577 28.2476 30.9496 28.2599C31.5919 28.28 32.1787 28.2877 32.7443 28.2817C32.8163 28.2809 32.8758 28.2254 32.882 28.1537C32.8925 28.0333 32.9035 27.9131 32.9149 27.7931C32.9521 27.4027 33.2988 27.1164 33.6891 27.1536ZM31.5775 33.9454C31.8061 33.6245 32.152 33.3017 32.6225 33.0348C32.7094 32.9855 32.8155 33.0456 32.8235 33.1452C32.8778 33.8265 32.9623 34.5131 33.0831 35.2051C33.0929 35.2617 33.0677 35.3188 33.0183 35.3479C32.8439 35.4502 32.6743 35.5307 32.5132 35.5881C32.0755 35.7441 31.7756 35.7083 31.5781 35.5926C31.3553 35.4622 31.2384 35.2644 31.219 35.0033C31.1982 34.7234 31.293 34.3447 31.5775 33.9454ZM34.3257 32.4716C34.2553 32.4821 34.2053 32.545 34.2096 32.6161C34.2352 33.0346 34.2724 33.4541 34.3226 33.8746C34.337 33.9947 34.4855 34.0381 34.5599 33.9427C34.8838 33.5271 35.166 33.0669 35.3828 32.5893C35.4236 32.4994 35.3577 32.399 35.259 32.3999C34.9261 32.4031 34.6151 32.4283 34.3257 32.4716Z" fill="black"/>
<path fill-rule="evenodd" clip-rule="evenodd" d="M33.8042 9.86338C34.1934 9.91109 34.4702 10.2653 34.4225 10.6545C34.4194 10.68 34.4163 10.7055 34.4131 10.7311C34.4026 10.8174 34.4724 10.8923 34.5592 10.8876C35.6367 10.8297 36.7142 10.7421 37.4072 10.6251C37.7938 10.5598 38.1602 10.8203 38.2254 11.207C38.2907 11.5936 38.0302 11.96 37.6435 12.0253C36.8249 12.1635 35.562 12.2606 34.3541 12.3201C34.2846 12.3235 34.228 12.3773 34.2216 12.4466C34.194 12.744 34.1703 13.0424 34.1529 13.3396C34.1477 13.4285 34.2263 13.4989 34.3146 13.4873C34.6588 13.4419 35.0232 13.4234 35.4067 13.4356C35.4614 13.4373 35.5114 13.4071 35.5424 13.362C35.6888 13.1488 35.9468 13.0236 36.2208 13.0597C36.5045 13.0971 36.7269 13.2971 36.8065 13.5536C36.8222 13.6043 36.8593 13.6469 36.9099 13.6629C37.7123 13.9167 38.2872 14.3751 38.657 14.9323C39.1266 15.6398 39.2281 16.4517 39.1141 17.0634C38.8584 18.4353 37.8152 19.1939 36.7627 19.5066C36.3868 19.6183 35.9916 19.4041 35.8799 19.0282C35.7683 18.6523 35.9824 18.2571 36.3583 18.1454C37.0797 17.9311 37.5903 17.4892 37.7182 16.8032C37.7695 16.5277 37.7248 16.0956 37.4739 15.7175C37.3285 15.4984 37.0982 15.2742 36.7319 15.1109C36.6568 15.0775 36.5718 15.1217 36.549 15.2007C36.2967 16.0754 35.9107 16.9401 35.4036 17.6308C35.2988 17.7735 35.1866 17.9118 35.067 18.0427C35.0338 18.079 35.0222 18.1295 35.03 18.178C35.0723 18.4415 34.9636 18.7179 34.7285 18.878C34.4854 19.0435 34.1762 19.0377 33.9437 18.8877C33.9418 18.8865 33.9394 18.8863 33.9373 18.8872Lnan nanL33.9373 18.8872C33.3239 19.161 32.6372 19.2003 31.9297 18.9291C31.1781 18.6411 30.7024 18.0558 30.5681 17.3457C30.4389 16.6628 30.637 15.942 31.0501 15.3303C31.412 14.7947 31.9452 14.3251 32.6284 13.9869C32.6758 13.9634 32.7069 13.916 32.7084 13.8631C32.7215 13.4186 32.7504 12.9728 32.7881 12.5343C32.7952 12.4509 32.7284 12.3796 32.6447 12.3815C32.3157 12.3887 32.0179 12.3923 31.7678 12.3923C31.3756 12.3923 31.0578 12.0744 31.0578 11.6823C31.0578 11.2902 31.3756 10.9723 31.7678 10.9723C32.0672 10.9723 32.4324 10.967 32.835 10.9565C32.9044 10.9547 32.9618 10.9023 32.9702 10.8334C32.9846 10.7145 32.9989 10.5972 33.0131 10.4817C33.0608 10.0925 33.415 9.81567 33.8042 9.86338ZM32.2268 16.1252C32.3144 15.9956 32.4248 15.8653 32.5585 15.74C32.6391 15.6646 32.7661 15.7188 32.7789 15.8285C32.8462 16.4057 32.963 16.9732 33.1515 17.5062C33.1787 17.5831 33.1369 17.6689 33.0563 17.6813C32.8666 17.7104 32.6634 17.6896 32.4379 17.6032C32.1324 17.4861 32.0034 17.2937 31.9633 17.0818C31.9181 16.8425 31.9759 16.4967 32.2268 16.1252ZM34.2493 14.9341C34.1822 14.9467 34.1356 15.0075 34.1394 15.0756C34.1644 15.5225 34.2152 15.9434 34.2968 16.3327C34.3215 16.4507 34.4715 16.4756 34.5321 16.3713C34.7654 15.97 34.9632 15.5094 35.1168 15.0303C35.1453 14.9413 35.0781 14.8514 34.9846 14.8545C34.7215 14.8635 34.4765 14.8911 34.2493 14.9341Z" fill="black"/>
</svg>
