<svg width="54" height="54" viewBox="0 0 54 54" fill="none" xmlns="http://www.w3.org/2000/svg">
<rect x="1.8501" y="1.8501" width="50.3" height="50.3" rx="3" stroke="#8B1EFF" stroke-width="0.28"/>
<path d="M10.2065 37.1479V7.2959C10.2125 6.94397 10.252 6.59094 10.325 6.24585C10.397 5.90088 10.503 5.56384 10.6411 5.23901C10.9141 4.59497 11.3131 4.00098 11.8071 3.50171C12.2961 3.00769 12.8791 2.60559 13.5145 2.32971C13.8315 2.19177 14.1605 2.08582 14.4979 2.01257C14.8349 1.93958 15.1779 1.90051 15.5214 1.89661C19.4174 1.8656 23.3134 1.85059 27.2079 1.85059C31.1049 1.85059 34.9999 1.8656 38.8963 1.89673C39.2393 1.90076 39.5833 1.9397 39.9208 2.01318C40.2568 2.08618 40.5868 2.19312 40.903 2.33008C41.221 2.46802 41.525 2.63708 41.8108 2.8335C42.0978 3.03052 42.3658 3.25452 42.6108 3.50159C42.8578 3.75061 43.0808 4.02161 43.2748 4.31238C43.4708 4.60437 43.6398 4.91431 43.7772 5.23816C43.9142 5.56311 44.0212 5.90112 44.0934 6.24597C44.1664 6.59094 44.2054 6.94397 44.2104 7.29602C44.2104 7.29602 44.2104 37.1479 44.2101 37.1484C44.1891 37.8424 44.0511 38.5385 43.8027 39.1934C43.5557 39.8484 43.1977 40.4624 42.7389 40.9862C42.5089 41.2483 42.2549 41.4873 41.9799 41.7C41.7069 41.912 41.4139 42.0969 41.1049 42.2539C40.7979 42.4099 40.4769 42.5369 40.1451 42.6315C39.8161 42.7264 39.4771 42.7896 39.1357 42.8154C31.1907 43.2485 23.2267 43.2485 15.2819 42.8154C14.6009 42.7625 13.9259 42.5664 13.3131 42.2549C12.6931 41.9398 12.1351 41.5068 11.6787 40.9869C11.2197 40.4619 10.8627 39.8479 10.6155 39.193C10.3675 38.538 10.2285 37.843 10.2065 37.1479Z" stroke="#8B1EFF" stroke-width="0.283" stroke-miterlimit="10"/>
<rect x="12.8887" y="5.47168" width="28.63" height="34.35" rx="1.46" stroke="#00FFFF" stroke-width="0.28"/>
<path d="M38.6898 3.58646C31.0758 3.48746 23.3388 3.48746 15.7238 3.58646C15.4321 3.59048 15.1431 3.62149 14.858 3.68155C14.787 3.69656 14.7151 3.71255 14.6451 3.73148C14.5751 3.74954 14.5051 3.76956 14.4361 3.79153C14.298 3.83548 14.162 3.88455 14.0311 3.94156C13.8981 3.99857 13.7681 4.06155 13.6421 4.1315C13.578 4.16653 13.515 4.20352 13.453 4.24149C13.3911 4.27957 13.33 4.31949 13.2701 4.36148C13.0321 4.52652 12.8121 4.71451 12.6111 4.92349C12.5101 5.0275 12.4151 5.13748 12.3251 5.25357C12.2791 5.31058 12.2361 5.36954 12.1931 5.42947C12.151 5.48856 12.1111 5.54849 12.0721 5.6105C11.9151 5.8555 11.7841 6.11453 11.677 6.38651C11.651 6.4545 11.625 6.52347 11.6021 6.59354C11.578 6.66348 11.556 6.73355 11.5361 6.8035C11.4951 6.94449 11.4621 7.08646 11.4351 7.2305C11.382 7.51651 11.3551 7.80655 11.3551 8.10257C11.3528 17.5192 11.3519 26.9372 11.3499 36.3542C11.35 36.6476 11.371 36.9375 11.414 37.2235C11.436 37.3666 11.462 37.5086 11.4949 37.6505C11.511 37.7216 11.5289 37.7915 11.548 37.8616C11.567 37.9325 11.588 38.0026 11.61 38.0725C11.699 38.3506 11.809 38.6195 11.9429 38.8766C11.977 38.9416 12.0119 39.0055 12.048 39.0686C12.084 39.1316 12.1219 39.1936 12.162 39.2545C12.241 39.3756 12.324 39.4936 12.4129 39.6056C12.502 39.7185 12.597 39.8275 12.6969 39.9315C12.7469 39.9826 12.798 40.0336 12.852 40.0835C12.905 40.1326 12.959 40.1815 13.0139 40.2276C13.2359 40.4126 13.4729 40.5725 13.727 40.7066C13.7899 40.7395 13.8549 40.7716 13.92 40.8015C13.9859 40.8316 14.0529 40.8595 14.1199 40.8866C14.254 40.9386 14.3909 40.9836 14.5289 41.0216C14.8049 41.0966 15.087 41.1426 15.377 41.1576C23.2194 41.5847 31.1934 41.5847 39.0353 41.1577C39.3265 41.1418 39.6095 41.0959 39.8855 41.0218C40.0235 40.9838 40.1595 40.9388 40.2935 40.8867C40.3605 40.8598 40.4276 40.8318 40.4935 40.8018C40.5595 40.7708 40.6245 40.7388 40.6875 40.7049C40.9435 40.5708 41.1805 40.4108 41.3995 40.2259C41.5105 40.1338 41.6155 40.0348 41.7175 39.9308C41.7665 39.8788 41.8165 39.8249 41.8635 39.7698C41.9115 39.7159 41.9576 39.6598 42.0025 39.6038C42.1805 39.3778 42.3355 39.1367 42.4685 38.8819C42.5345 38.7538 42.5965 38.6228 42.6516 38.4878C42.6795 38.4208 42.7065 38.3528 42.7305 38.2838C42.7565 38.2159 42.7795 38.1468 42.8026 38.0768C42.8895 37.7998 42.9545 37.5168 42.9985 37.2298C43.0096 37.1577 43.0175 37.0847 43.0266 37.0128C43.0345 36.9398 43.0415 36.8669 43.0465 36.7939C43.0575 36.6479 43.0625 36.5008 43.0625 36.3548C43.0609 26.9375 43.0598 17.5196 43.059 8.10208C43.058 7.80716 43.032 7.51419 42.977 7.22415C42.95 7.07913 42.9149 6.93619 42.8749 6.79617C42.834 6.65616 42.7879 6.5181 42.735 6.38309C42.6809 6.2471 42.6219 6.11417 42.5549 5.98416C42.5219 5.9191 42.4879 5.85416 42.451 5.79019C42.4139 5.72708 42.3759 5.66409 42.3369 5.60208C42.1799 5.35709 41.9999 5.12918 41.799 4.9202C41.7489 4.86819 41.6979 4.81717 41.645 4.76712C41.5909 4.71719 41.5379 4.66812 41.481 4.62112C41.3699 4.52615 41.2539 4.43814 41.136 4.35611C40.8979 4.19315 40.6459 4.05411 40.3789 3.94009C40.313 3.91214 40.2449 3.88516 40.1759 3.85916C40.1079 3.83414 40.0389 3.81009 39.9699 3.78909C39.8309 3.74612 39.692 3.70914 39.5509 3.68008C39.269 3.6221 38.9829 3.59012 38.6898 3.58646Z" stroke="#FF00FF" stroke-width="0.283465" stroke-miterlimit="10" stroke-linecap="round" stroke-linejoin="round"/>
<path d="M19 17.0616L19.2885 15.6357C19.3061 15.549 19.2398 15.4679 19.1513 15.4679H18.0108C17.9441 15.4679 17.8867 15.5149 17.8736 15.5803L17.5303 17.2849C17.4559 17.6693 17.2141 17.874 16.8854 17.874C16.5443 17.874 16.3149 17.6445 16.3149 17.2911C16.3149 17.2167 16.3211 17.1298 16.3335 17.0616L16.6275 15.6362C16.6454 15.5493 16.579 15.4679 16.4903 15.4679H16.1661C15.7072 15.4679 15.4653 15.2323 15.4653 14.8602C15.4653 14.5005 15.7072 14.2711 16.1661 14.2711H16.7829C16.8497 14.2711 16.9072 14.2239 16.9202 14.1583L17.1809 12.8446C17.1981 12.7581 17.1318 12.6774 17.0436 12.6774H16.7614C16.3025 12.6774 16.0606 12.4355 16.0606 12.0697C16.0606 11.7038 16.3025 11.4744 16.7614 11.4744H17.3416C17.4081 11.4744 17.4655 11.4276 17.4788 11.3624L17.8032 9.77524C17.8714 9.40937 18.107 9.21094 18.4109 9.21094C18.7644 9.21094 19.0186 9.46519 19.0186 9.80625C19.0186 9.86826 19.0062 9.94888 18.9938 10.0171L18.7305 11.3063C18.7127 11.3931 18.779 11.4744 18.8676 11.4744H20.0019C20.0684 11.4744 20.1258 11.4276 20.1391 11.3624L20.4635 9.77524C20.5379 9.41558 20.7735 9.21094 21.0898 9.21094C21.4371 9.21094 21.6851 9.46519 21.6851 9.80625C21.6851 9.86826 21.6789 9.94888 21.6665 10.0171L21.3978 11.3058C21.3797 11.3927 21.446 11.4744 21.5348 11.4744H21.9394C22.3982 11.4744 22.6277 11.6976 22.6277 12.0635C22.6277 12.4417 22.392 12.6774 21.927 12.6774H21.2415C21.1749 12.6774 21.1175 12.7243 21.1043 12.7896L20.8045 14.2711H21.344C21.8029 14.2711 22.0324 14.4881 22.0324 14.8602C22.0324 15.2323 21.7967 15.4679 21.3316 15.4679H20.6773C20.6106 15.4679 20.5532 15.5149 20.5401 15.5803L20.1968 17.2849C20.1224 17.6693 19.8868 17.874 19.5643 17.874C19.217 17.874 18.9752 17.6383 18.9752 17.2911C18.9752 17.2167 18.9876 17.1298 19 17.0616ZM18.4947 12.5596C18.4279 12.5596 18.3705 12.6067 18.3574 12.6721L18.0475 14.2215C18.0302 14.3081 18.0964 14.3889 18.1848 14.3889H19.5298C19.5967 14.3889 19.6542 14.3416 19.6671 14.2759L19.9718 12.7266C19.9888 12.6401 19.9225 12.5596 19.8344 12.5596H18.4947Z" fill="black"/>
<path d="M15.9954 33.9643C15.9954 33.5743 16.2754 33.2843 16.6554 33.2843C16.9254 33.2843 17.1354 33.4143 17.3654 33.7543C17.7254 34.3243 18.2754 34.6243 18.9754 34.6243C19.9054 34.6243 20.5054 34.1243 20.5054 33.3543C20.5054 32.5843 19.8954 32.0643 18.9754 32.0643H18.3654C17.9954 32.0643 17.7254 31.7843 17.7254 31.4043C17.7254 31.0243 17.9954 30.7543 18.3654 30.7543H18.9454C19.7054 30.7543 20.2654 30.2543 20.2654 29.5743C20.2654 28.8943 19.7154 28.4243 18.9354 28.4243C18.3254 28.4243 17.8454 28.7143 17.5154 29.2643C17.3254 29.5743 17.1154 29.7043 16.8254 29.7043C16.4254 29.7043 16.1454 29.4243 16.1454 29.0243C16.1454 28.0343 17.3454 27.1243 18.9554 27.1243C20.6654 27.1243 21.8654 28.0443 21.8654 29.3743C21.8654 30.1243 21.4054 30.8543 20.7754 31.1643C20.6654 31.2243 20.6654 31.3743 20.7854 31.4143C21.5754 31.7043 22.1254 32.5043 22.1254 33.4143C22.1254 34.8943 20.8154 35.9343 18.9454 35.9343C17.2754 35.9343 15.9854 34.9943 15.9854 33.9643H15.9954Z" fill="black"/>
<path fill-rule="evenodd" clip-rule="evenodd" d="M33.6891 26.2049C34.0795 26.2421 34.3657 26.5887 34.3285 26.9791C34.3241 27.0253 34.3198 27.0716 34.3155 27.1178C34.3077 27.2029 34.3775 27.2749 34.4628 27.2695C35.5931 27.1976 36.7813 27.0644 38.312 26.8598C38.7007 26.8079 39.0579 27.0808 39.1099 27.4695C39.1618 27.8581 38.8889 28.2153 38.5002 28.2673C36.8436 28.4887 35.5665 28.6296 34.3277 28.7002C34.256 28.7043 34.1988 28.7616 34.1956 28.8333C34.1787 29.2053 34.1683 29.5774 34.1655 29.9501C34.1648 30.0354 34.2404 30.1009 34.3251 30.0906C34.6948 30.0456 35.0849 30.025 35.4948 30.0323C35.6024 30.0342 35.7077 30.0378 35.8109 30.043C35.8203 30.0435 35.8284 30.0365 35.8293 30.0271C35.8635 29.6365 36.2079 29.3476 36.5985 29.3818C36.9892 29.416 37.2781 29.7604 37.2438 30.1511C37.2389 30.2076 37.275 30.2597 37.3297 30.2749C37.7093 30.3807 38.0447 30.5188 38.3398 30.6855C39.0522 31.0878 39.4922 31.6359 39.7427 32.2089C40.224 33.3096 39.9796 34.4288 39.8753 34.7355C39.6264 35.4675 39.0473 36.0677 38.3601 36.4928C37.6644 36.923 36.8032 37.2099 35.8917 37.2859C35.5009 37.3185 35.1578 37.0281 35.1252 36.6373C35.0926 36.2465 35.383 35.9034 35.7738 35.8708C36.4716 35.8126 37.1158 35.5927 37.6131 35.2851C38.1188 34.9723 38.4202 34.6039 38.5309 34.2783C38.5729 34.1551 38.7276 33.4318 38.4416 32.7777C38.3085 32.4732 38.0734 32.1658 37.6415 31.9219C37.4767 31.8288 37.2783 31.7423 37.04 31.6695C36.9699 31.6481 36.8964 31.6872 36.8709 31.7558C36.4485 32.8899 35.7288 33.931 34.9285 34.7046C34.8634 34.7675 34.7973 34.8291 34.7304 34.8893C34.6922 34.9235 34.6751 34.9757 34.6866 35.0256C34.6896 35.0386 34.6926 35.0516 34.6956 35.0645C34.7842 35.4465 34.5465 35.828 34.1645 35.9167C33.96 35.9641 33.7557 35.9181 33.5964 35.8064C33.5478 35.7724 33.4845 35.7627 33.4314 35.789C33.2853 35.8611 33.138 35.9242 32.99 35.9769C32.3081 36.22 31.5386 36.2664 30.8604 35.8692C30.2075 35.4868 29.8545 34.8538 29.8029 34.1598C29.7527 33.4846 29.9857 32.7838 30.421 32.1727C30.9088 31.4879 31.6626 30.8914 32.6545 30.503C32.7094 30.4815 32.7459 30.4285 32.7455 30.3695C32.7417 29.8771 32.7511 29.3876 32.7713 28.9007C32.7746 28.8203 32.71 28.7534 32.6296 28.754C32.085 28.7578 31.519 28.7497 30.9051 28.7304C30.5132 28.7181 30.2054 28.3905 30.2177 27.9985C30.23 27.6066 30.5577 27.2988 30.9496 27.3111C31.5919 27.3313 32.1787 27.339 32.7443 27.333C32.8163 27.3322 32.8758 27.2767 32.882 27.205C32.8925 27.0846 32.9035 26.9644 32.9149 26.8443C32.9521 26.454 33.2988 26.1677 33.6891 26.2049ZM31.5775 32.9966C31.8061 32.6757 32.152 32.353 32.6225 32.086C32.7094 32.0368 32.8155 32.0969 32.8235 32.1964C32.8778 32.8777 32.9623 33.5643 33.0831 34.2564C33.0929 34.3129 33.0677 34.3701 33.0183 34.3991C32.8439 34.5014 32.6743 34.5819 32.5132 34.6393C32.0755 34.7954 31.7756 34.7596 31.5781 34.6439C31.3553 34.5134 31.2384 34.3157 31.219 34.0545C31.1982 33.7747 31.293 33.396 31.5775 32.9966ZM34.3257 31.5228C34.2553 31.5334 34.2053 31.5963 34.2096 31.6673C34.2352 32.0859 34.2724 32.5054 34.3226 32.9259C34.337 33.046 34.4855 33.0894 34.5599 32.9939C34.8838 32.5784 35.166 32.1182 35.3828 31.6405C35.4236 31.5506 35.3577 31.4502 35.259 31.4512C34.9261 31.4544 34.6151 31.4796 34.3257 31.5228Z" fill="black"/>
<path fill-rule="evenodd" clip-rule="evenodd" d="M33.8041 8.91477C34.1933 8.96248 34.4701 9.31667 34.4224 9.70588C34.4193 9.73138 34.4162 9.75692 34.413 9.78251C34.4025 9.86877 34.4723 9.94367 34.559 9.939C35.6366 9.88107 36.714 9.79349 37.407 9.67649C37.7937 9.61121 38.16 9.87173 38.2253 10.2584C38.2906 10.645 38.0301 11.0114 37.6434 11.0767C36.8248 11.2149 35.5619 11.312 34.354 11.3714C34.2845 11.3749 34.2279 11.4287 34.2215 11.498C34.1938 11.7954 34.1702 12.0938 34.1528 12.391C34.1475 12.4799 34.2262 12.5503 34.3145 12.5387C34.6586 12.4933 35.0231 12.4748 35.4066 12.487C35.4613 12.4887 35.5113 12.4585 35.5423 12.4134C35.6887 12.2002 35.9467 12.075 36.2207 12.1111C36.5044 12.1484 36.7268 12.3485 36.8064 12.605C36.8221 12.6557 36.8592 12.6983 36.9097 12.7143C37.7122 12.9681 38.2871 13.4265 38.6569 13.9837C39.1265 14.6912 39.228 15.5031 39.114 16.1148C38.8583 17.4867 37.8151 18.2453 36.7626 18.558C36.3867 18.6697 35.9915 18.4555 35.8798 18.0796C35.7681 17.7037 35.9823 17.3085 36.3582 17.1968C37.0796 16.9825 37.5902 16.5406 37.718 15.8546C37.7694 15.5791 37.7247 15.147 37.4738 14.7689C37.3283 14.5498 37.0981 14.3256 36.7317 14.1623C36.6567 14.1289 36.5717 14.1731 36.5489 14.252C36.2965 15.1268 35.9106 15.9915 35.4035 16.6822C35.2987 16.8249 35.1865 16.9632 35.0669 17.0941C35.0337 17.1304 35.0221 17.1809 35.0299 17.2294C35.0722 17.4929 34.9635 17.7693 34.7283 17.9294C34.4852 18.0949 34.1761 18.0891 33.9436 17.9391C33.9417 17.9379 33.9393 17.9377 33.9372 17.9386Lnan nanL33.9372 17.9386C33.3237 18.2124 32.6371 18.2517 31.9296 17.9805C31.178 17.6925 30.7023 17.1072 30.568 16.3971C30.4388 15.7142 30.6369 14.9933 31.05 14.3817C31.4118 13.8461 31.9451 13.3765 32.6283 13.0383C32.6757 13.0148 32.7068 12.9673 32.7083 12.9145C32.7214 12.47 32.7503 12.0242 32.7879 11.5857C32.7951 11.5023 32.7283 11.431 32.6446 11.4328C32.3156 11.4401 32.0178 11.4437 31.7676 11.4437C31.3755 11.4437 31.0576 11.1258 31.0576 10.7337C31.0576 10.3415 31.3755 10.0237 31.7676 10.0237C32.0671 10.0237 32.4323 10.0184 32.8349 10.0079C32.9042 10.0061 32.9617 9.95365 32.97 9.88479C32.9844 9.76585 32.9988 9.64855 33.013 9.53311C33.0607 9.1439 33.4149 8.86706 33.8041 8.91477ZM32.2267 15.1766C32.3143 15.047 32.4246 14.9166 32.5584 14.7914C32.6389 14.7159 32.766 14.7702 32.7788 14.8799C32.8461 15.4571 32.9629 16.0246 33.1513 16.5576C33.1785 16.6345 33.1368 16.7203 33.0561 16.7327C32.8664 16.7618 32.6633 16.741 32.4378 16.6546C32.1323 16.5375 32.0033 16.3451 31.9632 16.1332C31.918 15.8939 31.9758 15.5481 32.2267 15.1766ZM34.2491 13.9855C34.1821 13.9981 34.1355 14.0589 34.1393 14.127C34.1643 14.5739 34.2151 14.9948 34.2966 15.384C34.3214 15.5021 34.4714 15.5269 34.532 15.4227C34.7653 15.0214 34.9631 14.5608 35.1166 14.0817C35.1452 13.9927 35.0779 13.9028 34.9845 13.9059C34.7214 13.9148 34.4764 13.9425 34.2491 13.9855Z" fill="black"/>
</svg>
