<svg width="54" height="54" viewBox="0 0 54 54" fill="none" xmlns="http://www.w3.org/2000/svg">
<rect x="1.85" y="1.8501" width="50.3" height="50.3" rx="3" stroke="#8B1EFF" stroke-width="0.28"/>
<path d="M10.2065 37.1479V7.2959C10.2125 6.94397 10.252 6.59094 10.325 6.24585C10.397 5.90088 10.503 5.56384 10.6411 5.23901C10.9141 4.59497 11.3131 4.00098 11.8071 3.50171C12.2961 3.00769 12.8791 2.60559 13.5145 2.32971C13.8315 2.19177 14.1605 2.08582 14.4979 2.01257C14.8349 1.93958 15.1779 1.90051 15.5214 1.89661C19.4174 1.8656 23.3134 1.85059 27.2079 1.85059C31.1049 1.85059 34.9999 1.8656 38.8963 1.89673C39.2393 1.90076 39.5833 1.9397 39.9208 2.01318C40.2568 2.08618 40.5868 2.19312 40.903 2.33008C41.221 2.46802 41.525 2.63708 41.8108 2.8335C42.0978 3.03052 42.3658 3.25452 42.6108 3.50159C42.8578 3.75061 43.0808 4.02161 43.2748 4.31238C43.4708 4.60437 43.6398 4.91431 43.7772 5.23816C43.9142 5.56311 44.0212 5.90112 44.0934 6.24597C44.1664 6.59094 44.2054 6.94397 44.2104 7.29602C44.2104 7.29602 44.2104 37.1479 44.2101 37.1484C44.1891 37.8424 44.0511 38.5385 43.8027 39.1934C43.5557 39.8484 43.1977 40.4624 42.7389 40.9862C42.5089 41.2483 42.2549 41.4873 41.9799 41.7C41.7069 41.912 41.4139 42.0969 41.1049 42.2539C40.7979 42.4099 40.4769 42.5369 40.1451 42.6315C39.8161 42.7264 39.4771 42.7896 39.1357 42.8154C31.1907 43.2485 23.2267 43.2485 15.2819 42.8154C14.6009 42.7625 13.9259 42.5664 13.3131 42.2549C12.6931 41.9398 12.1351 41.5068 11.6787 40.9869C11.2197 40.4619 10.8627 39.8479 10.6155 39.193C10.3675 38.538 10.2285 37.843 10.2065 37.1479Z" stroke="#8B1EFF" stroke-width="0.283" stroke-miterlimit="10"/>
<rect x="12.8886" y="5.47168" width="28.63" height="34.35" rx="1.46" stroke="#00FFFF" stroke-width="0.28"/>
<path d="M38.6898 3.58646C31.0758 3.48746 23.3388 3.48746 15.7238 3.58646C15.4321 3.59048 15.1431 3.62149 14.858 3.68155C14.787 3.69656 14.7151 3.71255 14.6451 3.73148C14.5751 3.74954 14.5051 3.76956 14.4361 3.79153C14.298 3.83548 14.162 3.88455 14.0311 3.94156C13.8981 3.99857 13.7681 4.06155 13.6421 4.1315C13.578 4.16653 13.515 4.20352 13.453 4.24149C13.3911 4.27957 13.33 4.31949 13.2701 4.36148C13.0321 4.52652 12.8121 4.71451 12.6111 4.92349C12.5101 5.0275 12.4151 5.13748 12.3251 5.25357C12.2791 5.31058 12.2361 5.36954 12.1931 5.42947C12.151 5.48856 12.1111 5.54849 12.0721 5.6105C11.9151 5.8555 11.7841 6.11453 11.677 6.38651C11.651 6.4545 11.625 6.52347 11.6021 6.59354C11.578 6.66348 11.556 6.73355 11.5361 6.8035C11.4951 6.94449 11.4621 7.08646 11.4351 7.2305C11.382 7.51651 11.3551 7.80655 11.3551 8.10257C11.3528 17.5192 11.3519 26.9372 11.3499 36.3542C11.35 36.6476 11.371 36.9375 11.414 37.2235C11.436 37.3666 11.462 37.5086 11.4949 37.6505C11.511 37.7216 11.5289 37.7915 11.548 37.8616C11.567 37.9325 11.588 38.0026 11.61 38.0725C11.699 38.3506 11.809 38.6195 11.9429 38.8766C11.977 38.9416 12.0119 39.0055 12.048 39.0686C12.084 39.1316 12.1219 39.1936 12.162 39.2545C12.241 39.3756 12.324 39.4936 12.4129 39.6056C12.502 39.7185 12.597 39.8275 12.6969 39.9315C12.7469 39.9826 12.798 40.0336 12.852 40.0835C12.905 40.1326 12.959 40.1815 13.0139 40.2276C13.2359 40.4126 13.4729 40.5725 13.727 40.7066C13.7899 40.7395 13.8549 40.7716 13.92 40.8015C13.9859 40.8316 14.0529 40.8595 14.1199 40.8866C14.254 40.9386 14.3909 40.9836 14.5289 41.0216C14.8049 41.0966 15.087 41.1426 15.377 41.1576C23.2194 41.5847 31.1934 41.5847 39.0353 41.1577C39.3265 41.1418 39.6095 41.0959 39.8855 41.0218C40.0235 40.9838 40.1595 40.9388 40.2935 40.8867C40.3605 40.8598 40.4276 40.8318 40.4935 40.8018C40.5595 40.7708 40.6245 40.7388 40.6875 40.7049C40.9435 40.5708 41.1805 40.4108 41.3995 40.2259C41.5105 40.1338 41.6155 40.0348 41.7175 39.9308C41.7665 39.8788 41.8165 39.8249 41.8635 39.7698C41.9115 39.7159 41.9576 39.6598 42.0025 39.6038C42.1805 39.3778 42.3355 39.1367 42.4685 38.8819C42.5345 38.7538 42.5965 38.6228 42.6516 38.4878C42.6795 38.4208 42.7065 38.3528 42.7305 38.2838C42.7565 38.2159 42.7795 38.1468 42.8026 38.0768C42.8895 37.7998 42.9545 37.5168 42.9985 37.2298C43.0096 37.1577 43.0175 37.0847 43.0266 37.0128C43.0345 36.9398 43.0415 36.8669 43.0465 36.7939C43.0575 36.6479 43.0625 36.5008 43.0625 36.3548C43.0609 26.9375 43.0598 17.5196 43.059 8.10208C43.058 7.80716 43.032 7.51419 42.977 7.22415C42.95 7.07913 42.9149 6.93619 42.8749 6.79617C42.834 6.65616 42.7879 6.5181 42.735 6.38309C42.6809 6.2471 42.6219 6.11417 42.5549 5.98416C42.5219 5.9191 42.4879 5.85416 42.451 5.79019C42.4139 5.72708 42.3759 5.66409 42.3369 5.60208C42.1799 5.35709 41.9999 5.12918 41.799 4.9202C41.7489 4.86819 41.6979 4.81717 41.645 4.76712C41.5909 4.71719 41.5379 4.66812 41.481 4.62112C41.3699 4.52615 41.2539 4.43814 41.136 4.35611C40.8979 4.19315 40.6459 4.05411 40.3789 3.94009C40.313 3.91214 40.2449 3.88516 40.1759 3.85916C40.1079 3.83414 40.0389 3.81009 39.9699 3.78909C39.8309 3.74612 39.692 3.70914 39.5509 3.68008C39.269 3.6221 38.9829 3.59012 38.6898 3.58646Z" stroke="#FF00FF" stroke-width="0.283465" stroke-miterlimit="10" stroke-linecap="round" stroke-linejoin="round"/>
<path d="M35.0124 36.8164C34.7272 36.8164 34.4791 36.6613 34.4791 36.2893V35.9269C34.4791 35.8546 34.424 35.7944 34.3522 35.786C33.5414 35.6908 32.8175 35.4174 32.3459 34.987C31.9676 34.6583 31.7568 34.2801 31.7568 33.9142C31.7568 33.4987 32.042 33.2569 32.4203 33.2569C32.656 33.2569 32.8296 33.3251 33.1459 33.6414C33.704 34.2429 34.3179 34.5219 35.0558 34.5219C36.0418 34.5219 36.5937 34.0754 36.5937 33.3685C36.5937 32.8228 36.2154 32.5003 35.2977 32.2833L34.0388 31.9918C32.625 31.6756 31.887 30.8756 31.887 29.6726C31.887 28.3326 32.8564 27.3863 34.3892 27.1996C34.461 27.1908 34.5163 27.1306 34.5163 27.0583V26.6898C34.5163 26.3178 34.7644 26.1689 35.0434 26.1689C35.3287 26.1689 35.5767 26.324 35.5767 26.6898V27.0813C35.5767 27.1518 35.6291 27.211 35.6988 27.2218C36.4239 27.3343 37.0644 27.6119 37.4991 28.0231C37.8463 28.3642 38.051 28.7424 38.051 29.0897C38.051 29.4494 37.7843 29.6912 37.4371 29.6912C37.1518 29.6912 36.941 29.5858 36.6681 29.3005C36.1286 28.699 35.6449 28.4634 34.9504 28.4634C34.0946 28.4634 33.5489 28.9223 33.5489 29.5548C33.5489 30.0819 33.9334 30.4416 34.721 30.6152L35.9798 30.9004C37.5115 31.2353 38.2494 31.9794 38.2494 33.2073C38.2494 34.5976 37.2595 35.5636 35.6646 35.778C35.5937 35.7876 35.5395 35.8474 35.5395 35.9189V36.2893C35.5395 36.6613 35.2915 36.8164 35.0124 36.8164Z" fill="black"/>
<path d="M21.5983 13.7131C21.5983 14.1696 21.4775 14.5946 21.2649 14.9688C21.2326 15.0257 21.2406 15.0976 21.2871 15.1437L21.8587 15.7098C22.1316 15.9765 22.1378 16.3486 21.8773 16.6028C21.6169 16.8571 21.2758 16.8695 20.9844 16.5842L20.3995 16.0048C20.3534 15.9591 20.2822 15.9515 20.2255 15.983C19.8676 16.1822 19.4514 16.2865 19.0248 16.2865C18.5915 16.2865 18.1791 16.1765 17.8119 15.9756C17.7552 15.9446 17.6843 15.953 17.6389 15.999L17.1272 16.516C16.8482 16.795 16.4823 16.795 16.2219 16.5284C15.9614 16.2679 15.9676 15.9145 16.2467 15.6354L16.7503 15.1318C16.7966 15.0855 16.8042 15.0134 16.7716 14.9565C16.5604 14.5883 16.4451 14.169 16.4451 13.7131C16.4451 13.2809 16.5546 12.8644 16.7545 12.5066C16.7862 12.4497 16.7784 12.3782 16.7324 12.3322L16.1599 11.7597C15.887 11.4868 15.8622 11.1334 16.1289 10.8667C16.3831 10.6125 16.7552 10.5939 17.0404 10.8853L17.6007 11.4456C17.6467 11.4916 17.718 11.4995 17.7747 11.4677C18.1447 11.2602 18.5742 11.1396 19.0248 11.1396C19.4696 11.1396 19.8987 11.2497 20.2687 11.4603C20.3254 11.4926 20.3972 11.4853 20.4436 11.4394L20.9348 10.9535C21.2014 10.6807 21.5673 10.6621 21.8339 10.9287C22.082 11.183 22.1006 11.5489 21.8091 11.8341L21.3101 12.3331C21.2645 12.3787 21.2563 12.4494 21.2874 12.5059C21.4835 12.8631 21.5983 13.275 21.5983 13.7131ZM17.6481 13.7131C17.6481 14.4696 18.2621 15.0835 19.0186 15.0835C19.7751 15.0835 20.3953 14.4696 20.3953 13.7131C20.3953 12.9565 19.7751 12.3426 19.0186 12.3426C18.2621 12.3426 17.6481 12.9565 17.6481 13.7131Z" fill="black"/>
<path d="M17.4448 32.8175H19.6648C19.7448 32.8175 19.8048 32.7575 19.8048 32.6775V28.9575C19.8048 28.8175 19.6248 28.7575 19.5448 28.8775C18.8448 29.9975 17.6948 31.9675 17.3248 32.6075C17.2748 32.6975 17.3448 32.8175 17.4448 32.8175ZM19.8048 34.9775V34.3275C19.8048 34.2475 19.7448 34.1875 19.6648 34.1875H16.7148C16.0848 34.1875 15.6948 33.8475 15.6948 33.2675C15.6948 32.9975 15.7648 32.7575 15.9948 32.2875C16.7048 30.9475 17.3648 29.8175 18.4648 28.1875C18.9848 27.4275 19.3848 27.1675 20.0248 27.1675C20.8648 27.1675 21.3648 27.6175 21.3648 28.3475V32.6675C21.3648 32.7475 21.4248 32.8075 21.5048 32.8075H21.7748C22.2248 32.8075 22.4948 33.0775 22.4948 33.4975C22.4948 33.9175 22.2248 34.1675 21.7748 34.1675H21.5048C21.4248 34.1675 21.3648 34.2275 21.3648 34.3075V34.9575C21.3648 35.4875 21.0648 35.8075 20.5748 35.8075C20.0848 35.8075 19.7948 35.4875 19.7948 34.9575L19.8048 34.9775Z" fill="black"/>
</svg>
