<svg width="54" height="54" viewBox="0 0 54 54" fill="none" xmlns="http://www.w3.org/2000/svg">
<rect x="1.8501" y="1.84961" width="50.3" height="50.3" rx="3" stroke="#8B1EFF" stroke-width="0.28"/>
<path d="M10.2065 37.1479V7.2959C10.2125 6.94397 10.252 6.59094 10.325 6.24585C10.397 5.90088 10.503 5.56384 10.6411 5.23901C10.9141 4.59497 11.3131 4.00098 11.8071 3.50171C12.2961 3.00769 12.8791 2.60559 13.5145 2.32971C13.8315 2.19177 14.1605 2.08582 14.4979 2.01257C14.8349 1.93958 15.1779 1.90051 15.5214 1.89661C19.4174 1.8656 23.3134 1.85059 27.2079 1.85059C31.1049 1.85059 34.9999 1.8656 38.8963 1.89673C39.2393 1.90076 39.5833 1.9397 39.9208 2.01318C40.2568 2.08618 40.5868 2.19312 40.903 2.33008C41.221 2.46802 41.525 2.63708 41.8108 2.8335C42.0978 3.03052 42.3658 3.25452 42.6108 3.50159C42.8578 3.75061 43.0808 4.02161 43.2748 4.31238C43.4708 4.60437 43.6398 4.91431 43.7772 5.23816C43.9142 5.56311 44.0212 5.90112 44.0934 6.24597C44.1664 6.59094 44.2054 6.94397 44.2104 7.29602C44.2104 7.29602 44.2104 37.1479 44.2101 37.1484C44.1891 37.8424 44.0511 38.5385 43.8027 39.1934C43.5557 39.8484 43.1977 40.4624 42.7389 40.9862C42.5089 41.2483 42.2549 41.4873 41.9799 41.7C41.7069 41.912 41.4139 42.0969 41.1049 42.2539C40.7979 42.4099 40.4769 42.5369 40.1451 42.6315C39.8161 42.7264 39.4771 42.7896 39.1357 42.8154C31.1907 43.2485 23.2267 43.2485 15.2819 42.8154C14.6009 42.7625 13.9259 42.5664 13.3131 42.2549C12.6931 41.9398 12.1351 41.5068 11.6787 40.9869C11.2197 40.4619 10.8627 39.8479 10.6155 39.193C10.3675 38.538 10.2285 37.843 10.2065 37.1479Z" stroke="#8B1EFF" stroke-width="0.283" stroke-miterlimit="10"/>
<rect x="12.8887" y="5.47168" width="28.63" height="34.35" rx="1.46" stroke="#00FFFF" stroke-width="0.28"/>
<path d="M38.6898 3.58597C31.0758 3.48697 23.3388 3.48697 15.7238 3.58597C15.4321 3.59 15.1431 3.621 14.858 3.68106C14.787 3.69608 14.7151 3.71207 14.6451 3.73099C14.5751 3.74905 14.5051 3.76907 14.4361 3.79105C14.298 3.83499 14.162 3.88406 14.0311 3.94107C13.8981 3.99808 13.7681 4.06107 13.6421 4.13101C13.578 4.16605 13.515 4.20303 13.453 4.241C13.3911 4.27908 13.33 4.319 13.2701 4.36099C13.0321 4.52603 12.8121 4.71402 12.6111 4.923C12.5101 5.02701 12.4151 5.13699 12.3251 5.25308C12.2791 5.31009 12.2361 5.36905 12.1931 5.42899C12.151 5.48807 12.1111 5.548 12.0721 5.61002C11.9151 5.85501 11.7841 6.11404 11.677 6.38602C11.651 6.45401 11.625 6.52298 11.6021 6.59305C11.578 6.66299 11.556 6.73306 11.5361 6.80301C11.4951 6.944 11.4621 7.08597 11.4351 7.23001C11.382 7.51602 11.3551 7.80606 11.3551 8.10208C11.3528 17.5187 11.3519 26.9367 11.3499 36.3537C11.35 36.6471 11.371 36.937 11.414 37.2231C11.436 37.3661 11.462 37.5081 11.4949 37.6501C11.511 37.7211 11.5289 37.791 11.548 37.8611C11.567 37.932 11.588 38.0021 11.61 38.0721C11.699 38.3501 11.809 38.619 11.9429 38.8761C11.977 38.9411 12.0119 39.005 12.048 39.0681C12.084 39.1311 12.1219 39.1931 12.162 39.2541C12.241 39.3752 12.324 39.4931 12.4129 39.6051C12.502 39.718 12.597 39.8271 12.6969 39.9311C12.7469 39.9821 12.798 40.0331 12.852 40.083C12.905 40.1321 12.959 40.1811 13.0139 40.2271C13.2359 40.4121 13.4729 40.5721 13.727 40.7061C13.7899 40.739 13.8549 40.7711 13.92 40.8011C13.9859 40.8311 14.0529 40.859 14.1199 40.8861C14.254 40.9381 14.3909 40.9831 14.5289 41.0211C14.8049 41.0961 15.087 41.1421 15.377 41.1571C23.2194 41.5843 31.1934 41.5843 39.0353 41.1573C39.3265 41.1413 39.6095 41.0954 39.8855 41.0213C40.0235 40.9833 40.1595 40.9383 40.2935 40.8863C40.3605 40.8593 40.4276 40.8313 40.4935 40.8013C40.5595 40.7703 40.6245 40.7383 40.6875 40.7044C40.9435 40.5703 41.1805 40.4103 41.3995 40.2254C41.5105 40.1333 41.6155 40.0343 41.7175 39.9303C41.7665 39.8783 41.8165 39.8244 41.8635 39.7693C41.9115 39.7154 41.9576 39.6593 42.0025 39.6033C42.1805 39.3773 42.3355 39.1363 42.4685 38.8814C42.5345 38.7533 42.5965 38.6223 42.6516 38.4873C42.6795 38.4203 42.7065 38.3523 42.7305 38.2834C42.7565 38.2154 42.7795 38.1463 42.8026 38.0763C42.8895 37.7993 42.9545 37.5163 42.9985 37.2293C43.0096 37.1573 43.0175 37.0843 43.0266 37.0124C43.0345 36.9394 43.0415 36.8664 43.0465 36.7934C43.0575 36.6474 43.0625 36.5003 43.0625 36.3543C43.0609 26.937 43.0598 17.5191 43.059 8.10159C43.058 7.80667 43.032 7.5137 42.977 7.22366C42.95 7.07864 42.9149 6.9357 42.8749 6.79568C42.834 6.65567 42.7879 6.51761 42.735 6.3826C42.6809 6.24661 42.6219 6.11368 42.5549 5.98367C42.5219 5.91861 42.4879 5.85367 42.451 5.7897C42.4139 5.72659 42.3759 5.6636 42.3369 5.60159C42.1799 5.3566 41.9999 5.12869 41.799 4.91971C41.7489 4.86771 41.6979 4.81668 41.645 4.76663C41.5909 4.71671 41.5379 4.66763 41.481 4.62064C41.3699 4.52567 41.2539 4.43765 41.136 4.35562C40.8979 4.19266 40.6459 4.05362 40.3789 3.93961C40.313 3.91165 40.2449 3.88467 40.1759 3.85867C40.1079 3.83365 40.0389 3.8096 39.9699 3.7886C39.8309 3.74564 39.692 3.70865 39.5509 3.6796C39.269 3.62161 38.9829 3.58963 38.6898 3.58597Z" stroke="#FF00FF" stroke-width="0.283465" stroke-miterlimit="10" stroke-linecap="round" stroke-linejoin="round"/>
<path d="M38.1623 17.1347C38.1498 17.4827 37.8458 17.7499 37.4976 17.7499L32.6437 17.7498C32.2778 17.7498 31.9863 17.4584 31.9863 17.0987C31.9863 16.7949 32.1848 16.553 32.4514 16.4662C33.2142 16.212 33.6792 15.5236 33.6792 14.7547C33.6792 14.5285 33.6525 14.3157 33.6065 14.1125C33.5921 14.0488 33.534 14.0043 33.4686 14.0043H33.0033C32.6002 14.0043 32.3522 13.7935 32.3522 13.44C32.3522 13.0804 32.6002 12.8819 32.9971 12.8819H33.0744C33.1684 12.8819 33.2363 12.792 33.2105 12.7016C33.106 12.3346 33.0281 11.967 33.0281 11.5673C33.0281 10.0046 34.2063 9.12402 36.0109 9.12402C36.5814 9.12402 37.0961 9.20464 37.4248 9.34727C37.6604 9.44028 37.8464 9.65732 37.8464 9.94258C37.8464 10.2836 37.5798 10.5627 37.2325 10.5627C36.9597 10.5627 36.5752 10.4015 36.1473 10.4015C35.2357 10.4015 34.6404 10.8852 34.6404 11.7099C34.6404 12.1041 34.7223 12.4472 34.8209 12.781C34.8386 12.841 34.8941 12.8819 34.9567 12.8819H36.4512C36.8542 12.8819 37.1023 13.0804 37.1023 13.4338C37.1023 13.7935 36.8542 14.0043 36.4512 14.0043H35.3333C35.2431 14.0043 35.1769 14.0871 35.195 14.1755C35.2234 14.3146 35.2419 14.4587 35.2419 14.6121C35.232 15.2462 35.0474 15.8363 34.6359 16.2192C34.5406 16.3077 34.6001 16.4662 34.7302 16.4662L37.524 16.4662C37.8853 16.4662 38.1753 16.7707 38.1623 17.1347Z" fill="black"/>
<path d="M37.5982 31.7126C37.5982 32.1691 37.4774 32.5941 37.2648 32.9683C37.2325 33.0252 37.2405 33.0971 37.287 33.1432L37.8586 33.7094C38.1315 33.976 38.1377 34.3481 37.8772 34.6023C37.6168 34.8566 37.2757 34.869 36.9843 34.5837L36.3994 34.0043C36.3533 33.9586 36.2821 33.951 36.2254 33.9826C35.8675 34.1817 35.4513 34.2861 35.0247 34.2861C34.5914 34.2861 34.179 34.176 33.8118 33.9751C33.7551 33.9441 33.6842 33.9526 33.6388 33.9985L33.1271 34.5155C32.8481 34.7946 32.4822 34.7946 32.2218 34.5279C31.9613 34.2675 31.9675 33.914 32.2466 33.6349L32.7502 33.1314C32.7965 33.085 32.8041 33.0129 32.7715 32.956C32.5603 32.5878 32.445 32.1685 32.445 31.7126C32.445 31.2804 32.5545 30.8639 32.7544 30.5061C32.7861 30.4492 32.7783 30.3777 32.7323 30.3317L32.1598 29.7592C31.8869 29.4864 31.8621 29.1329 32.1288 28.8662C32.383 28.612 32.7551 28.5934 33.0403 28.8848L33.6006 29.4452C33.6466 29.4911 33.7179 29.499 33.7746 29.4673C34.1446 29.2597 34.5741 29.1391 35.0247 29.1391C35.4695 29.1391 35.8986 29.2492 36.2686 29.4599C36.3253 29.4922 36.3971 29.4848 36.4435 29.4389L36.9347 28.9531C37.2013 28.6802 37.5672 28.6616 37.8338 28.9282C38.0819 29.1825 38.1005 29.5484 37.809 29.8336L37.31 30.3327C37.2644 30.3783 37.2562 30.4489 37.2873 30.5054C37.4834 30.8626 37.5982 31.2745 37.5982 31.7126ZM33.648 31.7126C33.648 32.4691 34.262 33.083 35.0185 33.083C35.775 33.083 36.3952 32.4691 36.3952 31.7126C36.3952 30.956 35.775 30.3421 35.0185 30.3421C34.262 30.3421 33.648 30.956 33.648 31.7126Z" fill="black"/>
<path d="M19.0125 18.8164C18.7272 18.8164 18.4792 18.6613 18.4792 18.2893V17.9269C18.4792 17.8546 18.4241 17.7944 18.3523 17.786C17.5414 17.6908 16.8176 17.4174 16.3459 16.987C15.9677 16.6583 15.7568 16.2801 15.7568 15.9142C15.7568 15.4987 16.0421 15.2569 16.4204 15.2569C16.656 15.2569 16.8296 15.3251 17.1459 15.6414C17.704 16.2429 18.3179 16.5219 19.0559 16.5219C20.0418 16.5219 20.5938 16.0754 20.5938 15.3685C20.5938 14.8228 20.2155 14.5003 19.2977 14.2833L18.0389 13.9918C16.625 13.6756 15.8871 12.8756 15.8871 11.6726C15.8871 10.3326 16.8565 9.38626 18.3893 9.19955C18.4611 9.19081 18.5164 9.13063 18.5164 9.05831V8.68984C18.5164 8.31777 18.7644 8.16895 19.0435 8.16895C19.3287 8.16895 19.5768 8.32397 19.5768 8.68984V9.08132C19.5768 9.15177 19.6292 9.21101 19.6988 9.22181C20.424 9.3343 21.0645 9.61193 21.4991 10.0231C21.8464 10.3642 22.051 10.7424 22.051 11.0897C22.051 11.4494 21.7844 11.6912 21.4371 11.6912C21.1519 11.6912 20.941 11.5858 20.6682 11.3005C20.1287 10.699 19.645 10.4634 18.9504 10.4634C18.0947 10.4634 17.549 10.9223 17.549 11.5548C17.549 12.0819 17.9334 12.4416 18.721 12.6152L19.9798 12.9004C21.5115 13.2353 22.2495 13.9794 22.2495 15.2073C22.2495 16.5976 21.2596 17.5636 19.6646 17.778C19.5937 17.7876 19.5396 17.8474 19.5396 17.9189V18.2893C19.5396 18.6613 19.2915 18.8164 19.0125 18.8164Z" fill="black"/>
<path d="M17.4448 32.818H19.6648C19.7448 32.818 19.8048 32.758 19.8048 32.678V28.958C19.8048 28.818 19.6248 28.758 19.5448 28.878C18.8448 29.998 17.6948 31.968 17.3248 32.608C17.2748 32.698 17.3448 32.818 17.4448 32.818ZM19.8048 34.978V34.328C19.8048 34.248 19.7448 34.188 19.6648 34.188H16.7148C16.0848 34.188 15.6948 33.848 15.6948 33.268C15.6948 32.998 15.7648 32.758 15.9948 32.288C16.7048 30.948 17.3648 29.818 18.4648 28.188C18.9848 27.428 19.3848 27.168 20.0248 27.168C20.8648 27.168 21.3648 27.618 21.3648 28.348V32.668C21.3648 32.748 21.4248 32.808 21.5048 32.808H21.7748C22.2248 32.808 22.4948 33.078 22.4948 33.498C22.4948 33.918 22.2248 34.168 21.7748 34.168H21.5048C21.4248 34.168 21.3648 34.228 21.3648 34.308V34.958C21.3648 35.488 21.0648 35.808 20.5748 35.808C20.0848 35.808 19.7948 35.488 19.7948 34.958L19.8048 34.978Z" fill="black"/>
</svg>
