<svg width="54" height="55" viewBox="0 0 54 55" fill="none" xmlns="http://www.w3.org/2000/svg">
<rect x="1.84998" y="2.79846" width="50.3" height="50.3" rx="3" stroke="#8B1EFF" stroke-width="0.28"/>
<path d="M10.2065 38.0964V8.24438C10.2125 7.89246 10.252 7.53943 10.325 7.19434C10.397 6.84937 10.503 6.51233 10.6411 6.1875C10.9141 5.54346 11.3131 4.94946 11.8071 4.4502C12.2961 3.95618 12.8791 3.55408 13.5145 3.2782C13.8315 3.14026 14.1605 3.0343 14.4979 2.96106C14.8349 2.88806 15.1779 2.849 15.5214 2.84509C19.4174 2.81409 23.3134 2.79907 27.2079 2.79907C31.1049 2.79907 34.9999 2.81409 38.8963 2.84521C39.2393 2.84924 39.5833 2.88818 39.9208 2.96167C40.2568 3.03467 40.5868 3.1416 40.903 3.27856C41.221 3.4165 41.525 3.58557 41.8108 3.78198C42.0978 3.979 42.3658 4.203 42.6108 4.45007C42.8578 4.6991 43.0808 4.97009 43.2748 5.26086C43.4708 5.55286 43.6398 5.86279 43.7772 6.18665C43.9142 6.5116 44.0212 6.84961 44.0934 7.19446C44.1664 7.53943 44.2054 7.89246 44.2104 8.24451C44.2104 8.24451 44.2104 38.0964 44.2101 38.0969C44.1891 38.7909 44.0511 39.4869 43.8027 40.1418C43.5557 40.7969 43.1977 41.4109 42.7389 41.9347C42.5089 42.1968 42.2549 42.4358 41.9799 42.6484C41.7069 42.8605 41.4139 43.0454 41.1049 43.2024C40.7979 43.3584 40.4769 43.4854 40.1451 43.58C39.8161 43.6749 39.4771 43.738 39.1357 43.7639C31.1907 44.197 23.2267 44.197 15.2819 43.7639C14.6009 43.7109 13.9259 43.5149 13.3131 43.2034C12.6931 42.8883 12.1351 42.4553 11.6787 41.9354C11.2197 41.4104 10.8627 40.7964 10.6155 40.1415C10.3675 39.4865 10.2285 38.7915 10.2065 38.0964Z" stroke="#8B1EFF" stroke-width="0.283" stroke-miterlimit="10"/>
<rect x="12.8885" y="6.42017" width="28.63" height="34.35" rx="1.46" stroke="#00FFFF" stroke-width="0.28"/>
<path d="M38.6898 4.53494C31.0758 4.43594 23.3388 4.43594 15.7238 4.53494C15.4321 4.53897 15.1431 4.56998 14.858 4.63004C14.787 4.64505 14.7151 4.66104 14.6451 4.67996C14.5751 4.69803 14.5051 4.71805 14.4361 4.74002C14.298 4.78397 14.162 4.83304 14.0311 4.89005C13.8981 4.94705 13.7681 5.01004 13.6421 5.07999C13.578 5.11502 13.515 5.15201 13.453 5.18997C13.3911 5.22806 13.33 5.26797 13.2701 5.30997C13.0321 5.47501 12.8121 5.66299 12.6111 5.87198C12.5101 5.97598 12.4151 6.08597 12.3251 6.20206C12.2791 6.25906 12.2361 6.31802 12.1931 6.37796C12.151 6.43704 12.1111 6.49698 12.0721 6.55899C11.9151 6.80399 11.7841 7.06302 11.677 7.33499C11.651 7.40298 11.625 7.47195 11.6021 7.54202C11.578 7.61197 11.556 7.68204 11.5361 7.75198C11.4951 7.89297 11.4621 8.03494 11.4351 8.17899C11.382 8.465 11.3551 8.75504 11.3551 9.05106C11.3528 18.4677 11.3519 27.8857 11.3499 37.3026C11.35 37.5961 11.371 37.886 11.414 38.172C11.436 38.3151 11.462 38.4571 11.4949 38.599C11.511 38.6701 11.5289 38.74 11.548 38.8101C11.567 38.881 11.588 38.9511 11.61 39.021C11.699 39.2991 11.809 39.568 11.9429 39.8251C11.977 39.89 12.0119 39.954 12.048 40.0171C12.084 40.0801 12.1219 40.1421 12.162 40.203C12.241 40.3241 12.324 40.442 12.4129 40.5541C12.502 40.667 12.597 40.776 12.6969 40.88C12.7469 40.9311 12.798 40.9821 12.852 41.032C12.905 41.0811 12.959 41.13 13.0139 41.1761C13.2359 41.3611 13.4729 41.521 13.727 41.6551C13.7899 41.688 13.8549 41.7201 13.92 41.75C13.9859 41.7801 14.0529 41.808 14.1199 41.8351C14.254 41.8871 14.3909 41.932 14.5289 41.9701C14.8049 42.0451 15.087 42.0911 15.377 42.1061C23.2194 42.5332 31.1934 42.5332 39.0353 42.1062C39.3265 42.0902 39.6095 42.0443 39.8855 41.9702C40.0235 41.9323 40.1595 41.8872 40.2935 41.8352C40.3605 41.8083 40.4276 41.7803 40.4935 41.7503C40.5595 41.7193 40.6245 41.6873 40.6875 41.6534C40.9435 41.5193 41.1805 41.3593 41.3995 41.1743C41.5105 41.0823 41.6155 40.9833 41.7175 40.8793C41.7665 40.8273 41.8165 40.7733 41.8635 40.7183C41.9115 40.6643 41.9576 40.6083 42.0025 40.5523C42.1805 40.3263 42.3355 40.0852 42.4685 39.8304C42.5345 39.7023 42.5965 39.5713 42.6516 39.4363C42.6795 39.3693 42.7065 39.3013 42.7305 39.2323C42.7565 39.1643 42.7795 39.0952 42.8026 39.0253C42.8895 38.7483 42.9545 38.4652 42.9985 38.1783C43.0096 38.1062 43.0175 38.0332 43.0266 37.9613C43.0345 37.8883 43.0415 37.8153 43.0465 37.7423C43.0575 37.5963 43.0625 37.4492 43.0625 37.3033C43.0609 27.886 43.0598 18.468 43.059 9.05057C43.058 8.75565 43.032 8.46268 42.977 8.17264C42.95 8.02762 42.9149 7.88467 42.8749 7.74466C42.834 7.60464 42.7879 7.46658 42.735 7.33157C42.6809 7.19559 42.6219 7.06265 42.5549 6.93265C42.5219 6.86758 42.4879 6.80264 42.451 6.73868C42.4139 6.67557 42.3759 6.61258 42.3369 6.55057C42.1799 6.30557 41.9999 6.07767 41.799 5.86868C41.7489 5.81668 41.6979 5.76566 41.645 5.71561C41.5909 5.66568 41.5379 5.61661 41.481 5.56961C41.3699 5.47464 41.2539 5.38663 41.136 5.3046C40.8979 5.14163 40.6459 5.00259 40.3789 4.88858C40.313 4.86063 40.2449 4.83365 40.1759 4.80765C40.1079 4.78262 40.0389 4.75858 39.9699 4.73758C39.8309 4.69461 39.692 4.65762 39.5509 4.62857C39.269 4.57059 38.9829 4.5386 38.6898 4.53494Z" stroke="#FF00FF" stroke-width="0.283465" stroke-miterlimit="10" stroke-linecap="round" stroke-linejoin="round"/>
<path d="M19.0125 19.7652C18.7272 19.7652 18.4792 19.6102 18.4792 19.2381V18.8757C18.4792 18.8035 18.4241 18.7433 18.3523 18.7348C17.5414 18.6397 16.8176 18.3662 16.3459 17.9359C15.9677 17.6072 15.7568 17.2289 15.7568 16.8631C15.7568 16.4476 16.0421 16.2057 16.4204 16.2057C16.656 16.2057 16.8296 16.274 17.1459 16.5902C17.704 17.1917 18.3179 17.4708 19.0559 17.4708C20.0418 17.4708 20.5938 17.0243 20.5938 16.3174C20.5938 15.7717 20.2155 15.4492 19.2977 15.2322L18.0389 14.9407C16.625 14.6244 15.8871 13.8245 15.8871 12.6215C15.8871 11.2815 16.8565 10.3351 18.3893 10.1484C18.4611 10.1397 18.5164 10.0795 18.5164 10.0072V9.6387C18.5164 9.26663 18.7644 9.1178 19.0435 9.1178C19.3287 9.1178 19.5768 9.27283 19.5768 9.6387V10.0302C19.5768 10.1006 19.6292 10.1599 19.6988 10.1707C20.424 10.2832 21.0645 10.5608 21.4991 10.9719C21.8464 11.313 22.051 11.6913 22.051 12.0385C22.051 12.3982 21.7844 12.6401 21.4371 12.6401C21.1519 12.6401 20.941 12.5346 20.6682 12.2494C20.1287 11.6479 19.645 11.4122 18.9504 11.4122C18.0947 11.4122 17.549 11.8711 17.549 12.5036C17.549 13.0307 17.9334 13.3904 18.721 13.564L19.9798 13.8493C21.5115 14.1842 22.2495 14.9283 22.2495 16.1561C22.2495 17.5464 21.2596 18.5125 19.6646 18.7269C19.5937 18.7364 19.5396 18.7962 19.5396 18.8677V19.2381C19.5396 19.6102 19.2915 19.7652 19.0125 19.7652Z" fill="black"/>
<path d="M17.4448 33.7662H19.6648C19.7448 33.7662 19.8048 33.7062 19.8048 33.6262V29.9062C19.8048 29.7662 19.6248 29.7062 19.5448 29.8262C18.8448 30.9462 17.6948 32.9162 17.3248 33.5562C17.2748 33.6462 17.3448 33.7662 17.4448 33.7662ZM19.8048 35.9262V35.2762C19.8048 35.1962 19.7448 35.1362 19.6648 35.1362H16.7148C16.0848 35.1362 15.6948 34.7962 15.6948 34.2162C15.6948 33.9462 15.7648 33.7062 15.9948 33.2362C16.7048 31.8962 17.3648 30.7662 18.4648 29.1362C18.9848 28.3762 19.3848 28.1162 20.0248 28.1162C20.8648 28.1162 21.3648 28.5662 21.3648 29.2962V33.6162C21.3648 33.6962 21.4248 33.7562 21.5048 33.7562H21.7748C22.2248 33.7562 22.4948 34.0262 22.4948 34.4462C22.4948 34.8662 22.2248 35.1162 21.7748 35.1162H21.5048C21.4248 35.1162 21.3648 35.1762 21.3648 35.2562V35.9062C21.3648 36.4362 21.0648 36.7562 20.5748 36.7562C20.0848 36.7562 19.7948 36.4362 19.7948 35.9062L19.8048 35.9262Z" fill="black"/>
<path fill-rule="evenodd" clip-rule="evenodd" d="M32.7045 27.4165C32.322 27.3299 31.9418 27.5697 31.8552 27.9522C31.7686 28.3346 32.0084 28.7148 32.3909 28.8014C33.8054 29.1217 36.8086 29.4659 37.7492 29.4659C38.1413 29.4659 38.4592 29.148 38.4592 28.7559C38.4592 28.3638 38.1413 28.0459 37.7492 28.0459C36.93 28.0459 34.0329 27.7173 32.7045 27.4165ZM31.5379 32.5049C32.6579 32.1172 34.2641 31.7369 35.6235 31.7331C36.3059 31.7312 36.8635 31.8249 37.2564 32.0098C37.6212 32.1814 37.8286 32.4195 37.9081 32.7701C38.1631 33.8963 37.6522 34.7698 36.6872 35.4432C35.7004 36.1318 34.3383 36.5191 33.2585 36.5802C32.867 36.6024 32.5676 36.9377 32.5898 37.3292C32.6119 37.7207 32.9473 38.0201 33.3388 37.998C34.6303 37.9249 36.2587 37.4737 37.4998 36.6077C38.7627 35.7264 39.7171 34.3291 39.293 32.4565C39.101 31.6089 38.5515 31.0498 37.8609 30.7249C37.1985 30.4132 36.4023 30.3109 35.6195 30.3131C34.0484 30.3175 32.2786 30.7458 31.0734 31.163C30.7029 31.2913 30.5064 31.6956 30.6347 32.0662C30.763 32.4367 31.1674 32.6331 31.5379 32.5049Z" fill="black"/>
<path fill-rule="evenodd" clip-rule="evenodd" d="M33.2341 10.1924C32.8516 10.1058 32.4714 10.3456 32.3848 10.728C32.2982 11.1105 32.538 11.4907 32.9205 11.5773C34.0439 11.8317 36.4211 12.1045 37.175 12.1045C37.5671 12.1045 37.885 11.7866 37.885 11.3945C37.885 11.0024 37.5671 10.6845 37.175 10.6845C36.5426 10.6845 34.2715 10.4273 33.2341 10.1924ZM32.3311 14.8909C33.2044 14.5887 34.4524 14.2942 35.5008 14.2913C36.0278 14.2898 36.4418 14.3627 36.7227 14.4949C36.9755 14.6138 37.1026 14.7673 37.1532 14.9908C37.3363 15.7988 36.9808 16.4314 36.2522 16.9398C35.5018 17.4634 34.4569 17.7618 33.6288 17.8087C33.2373 17.8308 32.9379 18.1662 32.9601 18.5577C32.9822 18.9492 33.3176 19.2486 33.7091 19.2264C34.749 19.1675 36.0601 18.8054 37.0648 18.1043C38.0913 17.388 38.8903 16.2316 38.5382 14.6771C38.375 13.9567 37.9058 13.4822 37.3272 13.21C36.7767 12.951 36.1242 12.8695 35.4968 12.8713C34.2367 12.8748 32.8251 13.2173 31.8666 13.5491C31.4961 13.6773 31.2997 14.0817 31.4279 14.4523C31.5562 14.8228 31.9606 15.0192 32.3311 14.8909Z" fill="black"/>
</svg>
