<svg width="54" height="54" viewBox="0 0 54 54" fill="none" xmlns="http://www.w3.org/2000/svg">
<rect x="1.85" y="1.8501" width="50.3" height="50.3" rx="3" stroke="#8B1EFF" stroke-width="0.28"/>
<path d="M10.2065 37.1479V7.2959C10.2125 6.94397 10.252 6.59094 10.325 6.24585C10.397 5.90088 10.503 5.56384 10.6411 5.23901C10.9141 4.59497 11.3131 4.00098 11.8071 3.50171C12.2961 3.00769 12.8791 2.60559 13.5145 2.32971C13.8315 2.19177 14.1605 2.08582 14.4979 2.01257C14.8349 1.93958 15.1779 1.90051 15.5214 1.89661C19.4174 1.8656 23.3134 1.85059 27.2079 1.85059C31.1049 1.85059 34.9999 1.8656 38.8963 1.89673C39.2393 1.90076 39.5833 1.9397 39.9208 2.01318C40.2568 2.08618 40.5868 2.19312 40.903 2.33008C41.221 2.46802 41.525 2.63708 41.8108 2.8335C42.0978 3.03052 42.3658 3.25452 42.6108 3.50159C42.8578 3.75061 43.0808 4.02161 43.2748 4.31238C43.4708 4.60437 43.6398 4.91431 43.7772 5.23816C43.9142 5.56311 44.0212 5.90112 44.0934 6.24597C44.1664 6.59094 44.2054 6.94397 44.2104 7.29602C44.2104 7.29602 44.2104 37.1479 44.2101 37.1484C44.1891 37.8424 44.0511 38.5385 43.8027 39.1934C43.5557 39.8484 43.1977 40.4624 42.7389 40.9862C42.5089 41.2483 42.2549 41.4873 41.9799 41.7C41.7069 41.912 41.4139 42.0969 41.1049 42.2539C40.7979 42.4099 40.4769 42.5369 40.1451 42.6315C39.8161 42.7264 39.4771 42.7896 39.1357 42.8154C31.1907 43.2485 23.2267 43.2485 15.2819 42.8154C14.6009 42.7625 13.9259 42.5664 13.3131 42.2549C12.6931 41.9398 12.1351 41.5068 11.6787 40.9869C11.2197 40.4619 10.8627 39.8479 10.6155 39.193C10.3675 38.538 10.2285 37.843 10.2065 37.1479Z" stroke="#8B1EFF" stroke-width="0.283" stroke-miterlimit="10"/>
<rect x="12.8886" y="5.47168" width="28.63" height="34.35" rx="1.46" stroke="#00FFFF" stroke-width="0.28"/>
<path d="M38.6898 3.58646C31.0758 3.48746 23.3388 3.48746 15.7238 3.58646C15.4321 3.59048 15.1431 3.62149 14.858 3.68155C14.787 3.69656 14.7151 3.71255 14.6451 3.73148C14.5751 3.74954 14.5051 3.76956 14.4361 3.79153C14.298 3.83548 14.162 3.88455 14.0311 3.94156C13.8981 3.99857 13.7681 4.06155 13.6421 4.1315C13.578 4.16653 13.515 4.20352 13.453 4.24149C13.3911 4.27957 13.33 4.31949 13.2701 4.36148C13.0321 4.52652 12.8121 4.71451 12.6111 4.92349C12.5101 5.0275 12.4151 5.13748 12.3251 5.25357C12.2791 5.31058 12.2361 5.36954 12.1931 5.42947C12.151 5.48856 12.1111 5.54849 12.0721 5.6105C11.9151 5.8555 11.7841 6.11453 11.677 6.38651C11.651 6.4545 11.625 6.52347 11.6021 6.59354C11.578 6.66348 11.556 6.73355 11.5361 6.8035C11.4951 6.94449 11.4621 7.08646 11.4351 7.2305C11.382 7.51651 11.3551 7.80655 11.3551 8.10257C11.3528 17.5192 11.3519 26.9372 11.3499 36.3542C11.35 36.6476 11.371 36.9375 11.414 37.2235C11.436 37.3666 11.462 37.5086 11.4949 37.6505C11.511 37.7216 11.5289 37.7915 11.548 37.8616C11.567 37.9325 11.588 38.0026 11.61 38.0725C11.699 38.3506 11.809 38.6195 11.9429 38.8766C11.977 38.9416 12.0119 39.0055 12.048 39.0686C12.084 39.1316 12.1219 39.1936 12.162 39.2545C12.241 39.3756 12.324 39.4936 12.4129 39.6056C12.502 39.7185 12.597 39.8275 12.6969 39.9315C12.7469 39.9826 12.798 40.0336 12.852 40.0835C12.905 40.1326 12.959 40.1815 13.0139 40.2276C13.2359 40.4126 13.4729 40.5725 13.727 40.7066C13.7899 40.7395 13.8549 40.7716 13.92 40.8015C13.9859 40.8316 14.0529 40.8595 14.1199 40.8866C14.254 40.9386 14.3909 40.9836 14.5289 41.0216C14.8049 41.0966 15.087 41.1426 15.377 41.1576C23.2194 41.5847 31.1934 41.5847 39.0353 41.1577C39.3265 41.1418 39.6095 41.0959 39.8855 41.0218C40.0235 40.9838 40.1595 40.9388 40.2935 40.8867C40.3605 40.8598 40.4276 40.8318 40.4935 40.8018C40.5595 40.7708 40.6245 40.7388 40.6875 40.7049C40.9435 40.5708 41.1805 40.4108 41.3995 40.2259C41.5105 40.1338 41.6155 40.0348 41.7175 39.9308C41.7665 39.8788 41.8165 39.8249 41.8635 39.7698C41.9115 39.7159 41.9576 39.6598 42.0025 39.6038C42.1805 39.3778 42.3355 39.1367 42.4685 38.8819C42.5345 38.7538 42.5965 38.6228 42.6516 38.4878C42.6795 38.4208 42.7065 38.3528 42.7305 38.2838C42.7565 38.2159 42.7795 38.1468 42.8026 38.0768C42.8895 37.7998 42.9545 37.5168 42.9985 37.2298C43.0096 37.1577 43.0175 37.0847 43.0266 37.0128C43.0345 36.9398 43.0415 36.8669 43.0465 36.7939C43.0575 36.6479 43.0625 36.5008 43.0625 36.3548C43.0609 26.9375 43.0598 17.5196 43.059 8.10208C43.058 7.80716 43.032 7.51419 42.977 7.22415C42.95 7.07913 42.9149 6.93619 42.8749 6.79617C42.834 6.65616 42.7879 6.5181 42.735 6.38309C42.6809 6.2471 42.6219 6.11417 42.5549 5.98416C42.5219 5.9191 42.4879 5.85416 42.451 5.79019C42.4139 5.72708 42.3759 5.66409 42.3369 5.60208C42.1799 5.35709 41.9999 5.12918 41.799 4.9202C41.7489 4.86819 41.6979 4.81717 41.645 4.76712C41.5909 4.71719 41.5379 4.66812 41.481 4.62112C41.3699 4.52615 41.2539 4.43814 41.136 4.35611C40.8979 4.19315 40.6459 4.05411 40.3789 3.94009C40.313 3.91214 40.2449 3.88516 40.1759 3.85916C40.1079 3.83414 40.0389 3.81009 39.9699 3.78909C39.8309 3.74612 39.692 3.70914 39.5509 3.68008C39.269 3.6221 38.9829 3.59012 38.6898 3.58646Z" stroke="#FF00FF" stroke-width="0.283465" stroke-miterlimit="10" stroke-linecap="round" stroke-linejoin="round"/>
<path d="M38.2184 33.7097C38.2184 34.9499 36.8231 35.9111 35.2977 35.9111C33.6223 35.9111 32.5114 34.9663 32.2733 33.036C32.2645 32.9647 32.2044 32.9097 32.1326 32.9097H31.9614C31.6204 32.9097 31.4033 32.7299 31.4033 32.426C31.4033 32.1222 31.6142 31.9423 31.9614 31.9423H32.0695C32.1468 31.9423 32.2095 31.8797 32.2095 31.8023V31.2762C32.2095 31.1989 32.1468 31.1362 32.0695 31.1362H31.9614C31.6204 31.1362 31.4033 30.9563 31.4033 30.6525C31.4033 30.3486 31.6142 30.1626 31.9614 30.1626H32.1258C32.1979 30.1626 32.258 30.1074 32.2667 30.0359C32.4897 28.197 33.6122 27.124 35.3039 27.124C36.8169 27.124 38.1812 28.1906 38.1812 29.3502C38.1812 29.8277 37.8649 30.1378 37.4743 30.1378C37.1704 30.1378 36.972 29.9456 36.7921 29.6417C36.4945 28.9782 36.0418 28.5937 35.3597 28.5937C34.5774 28.5937 34.1075 29.0847 33.9712 30.0084C33.9591 30.0905 34.0242 30.1626 34.1072 30.1626H35.3287C35.6759 30.1626 35.893 30.3424 35.893 30.6525C35.893 30.9563 35.6759 31.1362 35.3287 31.1362H34.0114C33.9341 31.1362 33.8714 31.1989 33.8714 31.2762V31.8023C33.8714 31.8797 33.9341 31.9423 34.0114 31.9423H35.3287C35.6759 31.9423 35.893 32.116 35.893 32.426C35.893 32.7299 35.6759 32.9097 35.3287 32.9097H34.1064C34.0237 32.9097 33.9587 32.9814 33.9704 33.0633C34.1007 33.9732 34.5617 34.4414 35.3907 34.4414C36.141 34.4414 36.6123 34.0631 36.8604 33.4306C37.034 33.1144 37.22 32.9221 37.5487 32.9221C37.9704 32.9221 38.2184 33.2508 38.2184 33.7097Z" fill="black"/>
<path d="M14.591 11.2695V11.0277C14.591 9.84326 15.2607 9.03711 16.3521 9.03711C17.4435 9.03711 18.0884 9.83086 18.0884 11.0277V11.2695C18.0884 12.4105 17.4373 13.2663 16.3211 13.2663C15.2421 13.2663 14.591 12.4602 14.591 11.2695ZM15.6142 17.0862L18.6589 13.1671L21.5363 9.40298C21.7223 9.14873 21.958 9.12393 22.1564 9.21694C22.3548 9.26035 22.4975 9.42778 22.5037 9.63242C22.5099 9.76885 22.4541 9.90527 22.3486 10.0417L19.4775 13.75L16.4265 17.7312C16.2343 17.9854 15.9924 17.9978 15.8002 17.911C15.6266 17.8738 15.4715 17.7125 15.4653 17.5265C15.4529 17.3901 15.5025 17.2351 15.6142 17.0862ZM15.763 11.0587V11.2385C15.763 11.9393 15.9862 12.2989 16.3397 12.2989C16.687 12.2989 16.9102 11.9393 16.9102 11.2385V11.0587C16.9102 10.358 16.687 10.0045 16.3397 10.0045C15.9862 10.0045 15.763 10.358 15.763 11.0587ZM19.9116 15.8522V15.6104C19.9116 14.4259 20.5875 13.6198 21.6789 13.6198C22.7703 13.6198 23.409 14.4135 23.409 15.6104V15.8522C23.409 16.9932 22.7579 17.8552 21.6479 17.8552C20.5627 17.8552 19.9116 17.0428 19.9116 15.8522ZM21.0836 15.6414V15.8212C21.0836 16.5219 21.313 16.8878 21.6603 16.8878C22.0076 16.8878 22.237 16.5219 22.237 15.8212V15.6414C22.237 14.9468 22.0138 14.5872 21.6603 14.5872C21.3068 14.5872 21.0836 14.9406 21.0836 15.6414Z" fill="black"/>
<path d="M16.0415 34.0293C16.0415 33.6093 16.3115 33.2893 16.7215 33.2893C16.9815 33.2893 17.1815 33.3993 17.3815 33.6893C17.7615 34.2593 18.2515 34.5493 18.8615 34.5593C19.7415 34.5793 20.4215 34.0193 20.4915 33.1393C20.5715 32.1493 19.9115 31.4493 18.9715 31.4493C18.5515 31.4493 18.1315 31.6093 17.7715 31.8893C17.4015 32.1993 17.2215 32.2693 16.9915 32.2693C16.4815 32.2693 16.1315 31.8993 16.1715 31.3293L16.4115 28.1493C16.4515 27.5593 16.8115 27.2793 17.4915 27.2793H21.0015C21.5015 27.2793 21.7915 27.5293 21.7915 27.9693C21.7915 28.4093 21.5015 28.6493 21.0015 28.6493H17.9215C17.8515 28.6493 17.7815 28.7093 17.7815 28.7793L17.6415 30.5493C17.6315 30.6793 17.7715 30.7493 17.8715 30.6593C18.2415 30.3293 18.8515 30.1693 19.4115 30.1693C21.0215 30.1693 22.1315 31.2893 22.1315 32.9193C22.1315 34.7193 20.8315 35.9293 18.9115 35.9293C17.2315 35.9293 16.0415 34.9793 16.0415 34.0293Z" fill="black"/>
</svg>
