<svg width="54" height="54" viewBox="0 0 54 54" fill="none" xmlns="http://www.w3.org/2000/svg">
<rect x="1.8501" y="1.8501" width="50.3" height="50.3" rx="3" stroke="#8B1EFF" stroke-width="0.28"/>
<path d="M10.2065 37.1479V7.2959C10.2125 6.94397 10.252 6.59094 10.325 6.24585C10.397 5.90088 10.503 5.56384 10.6411 5.23901C10.9141 4.59497 11.3131 4.00098 11.8071 3.50171C12.2961 3.00769 12.8791 2.60559 13.5145 2.32971C13.8315 2.19177 14.1605 2.08582 14.4979 2.01257C14.8349 1.93958 15.1779 1.90051 15.5214 1.89661C19.4174 1.8656 23.3134 1.85059 27.2079 1.85059C31.1049 1.85059 34.9999 1.8656 38.8963 1.89673C39.2393 1.90076 39.5833 1.9397 39.9208 2.01318C40.2568 2.08618 40.5868 2.19312 40.903 2.33008C41.221 2.46802 41.525 2.63708 41.8108 2.8335C42.0978 3.03052 42.3658 3.25452 42.6108 3.50159C42.8578 3.75061 43.0808 4.02161 43.2748 4.31238C43.4708 4.60437 43.6398 4.91431 43.7772 5.23816C43.9142 5.56311 44.0212 5.90112 44.0934 6.24597C44.1664 6.59094 44.2054 6.94397 44.2104 7.29602C44.2104 7.29602 44.2104 37.1479 44.2101 37.1484C44.1891 37.8424 44.0511 38.5385 43.8027 39.1934C43.5557 39.8484 43.1977 40.4624 42.7389 40.9862C42.5089 41.2483 42.2549 41.4873 41.9799 41.7C41.7069 41.912 41.4139 42.0969 41.1049 42.2539C40.7979 42.4099 40.4769 42.5369 40.1451 42.6315C39.8161 42.7264 39.4771 42.7896 39.1357 42.8154C31.1907 43.2485 23.2267 43.2485 15.2819 42.8154C14.6009 42.7625 13.9259 42.5664 13.3131 42.2549C12.6931 41.9398 12.1351 41.5068 11.6787 40.9869C11.2197 40.4619 10.8627 39.8479 10.6155 39.193C10.3675 38.538 10.2285 37.843 10.2065 37.1479Z" stroke="#8B1EFF" stroke-width="0.283" stroke-miterlimit="10"/>
<rect x="12.8887" y="5.47168" width="28.63" height="34.35" rx="1.46" stroke="#00FFFF" stroke-width="0.28"/>
<path d="M38.6898 3.58646C31.0758 3.48746 23.3388 3.48746 15.7238 3.58646C15.4321 3.59048 15.1431 3.62149 14.858 3.68155C14.787 3.69656 14.7151 3.71255 14.6451 3.73148C14.5751 3.74954 14.5051 3.76956 14.4361 3.79153C14.298 3.83548 14.162 3.88455 14.0311 3.94156C13.8981 3.99857 13.7681 4.06155 13.6421 4.1315C13.578 4.16653 13.515 4.20352 13.453 4.24149C13.3911 4.27957 13.33 4.31949 13.2701 4.36148C13.0321 4.52652 12.8121 4.71451 12.6111 4.92349C12.5101 5.0275 12.4151 5.13748 12.3251 5.25357C12.2791 5.31058 12.2361 5.36954 12.1931 5.42947C12.151 5.48856 12.1111 5.54849 12.0721 5.6105C11.9151 5.8555 11.7841 6.11453 11.677 6.38651C11.651 6.4545 11.625 6.52347 11.6021 6.59354C11.578 6.66348 11.556 6.73355 11.5361 6.8035C11.4951 6.94449 11.4621 7.08646 11.4351 7.2305C11.382 7.51651 11.3551 7.80655 11.3551 8.10257C11.3528 17.5192 11.3519 26.9372 11.3499 36.3542C11.35 36.6476 11.371 36.9375 11.414 37.2235C11.436 37.3666 11.462 37.5086 11.4949 37.6505C11.511 37.7216 11.5289 37.7915 11.548 37.8616C11.567 37.9325 11.588 38.0026 11.61 38.0725C11.699 38.3506 11.809 38.6195 11.9429 38.8766C11.977 38.9416 12.0119 39.0055 12.048 39.0686C12.084 39.1316 12.1219 39.1936 12.162 39.2545C12.241 39.3756 12.324 39.4936 12.4129 39.6056C12.502 39.7185 12.597 39.8275 12.6969 39.9315C12.7469 39.9826 12.798 40.0336 12.852 40.0835C12.905 40.1326 12.959 40.1815 13.0139 40.2276C13.2359 40.4126 13.4729 40.5725 13.727 40.7066C13.7899 40.7395 13.8549 40.7716 13.92 40.8015C13.9859 40.8316 14.0529 40.8595 14.1199 40.8866C14.254 40.9386 14.3909 40.9836 14.5289 41.0216C14.8049 41.0966 15.087 41.1426 15.377 41.1576C23.2194 41.5847 31.1934 41.5847 39.0353 41.1577C39.3265 41.1418 39.6095 41.0959 39.8855 41.0218C40.0235 40.9838 40.1595 40.9388 40.2935 40.8867C40.3605 40.8598 40.4276 40.8318 40.4935 40.8018C40.5595 40.7708 40.6245 40.7388 40.6875 40.7049C40.9435 40.5708 41.1805 40.4108 41.3995 40.2259C41.5105 40.1338 41.6155 40.0348 41.7175 39.9308C41.7665 39.8788 41.8165 39.8249 41.8635 39.7698C41.9115 39.7159 41.9576 39.6598 42.0025 39.6038C42.1805 39.3778 42.3355 39.1367 42.4685 38.8819C42.5345 38.7538 42.5965 38.6228 42.6516 38.4878C42.6795 38.4208 42.7065 38.3528 42.7305 38.2838C42.7565 38.2159 42.7795 38.1468 42.8026 38.0768C42.8895 37.7998 42.9545 37.5168 42.9985 37.2298C43.0096 37.1577 43.0175 37.0847 43.0266 37.0128C43.0345 36.9398 43.0415 36.8669 43.0465 36.7939C43.0575 36.6479 43.0625 36.5008 43.0625 36.3548C43.0609 26.9375 43.0598 17.5196 43.059 8.10208C43.058 7.80716 43.032 7.51419 42.977 7.22415C42.95 7.07913 42.9149 6.93619 42.8749 6.79617C42.834 6.65616 42.7879 6.5181 42.735 6.38309C42.6809 6.2471 42.6219 6.11417 42.5549 5.98416C42.5219 5.9191 42.4879 5.85416 42.451 5.79019C42.4139 5.72708 42.3759 5.66409 42.3369 5.60208C42.1799 5.35709 41.9999 5.12918 41.799 4.9202C41.7489 4.86819 41.6979 4.81717 41.645 4.76712C41.5909 4.71719 41.5379 4.66812 41.481 4.62112C41.3699 4.52615 41.2539 4.43814 41.136 4.35611C40.8979 4.19315 40.6459 4.05411 40.3789 3.94009C40.313 3.91214 40.2449 3.88516 40.1759 3.85916C40.1079 3.83414 40.0389 3.81009 39.9699 3.78909C39.8309 3.74612 39.692 3.70914 39.5509 3.68008C39.269 3.6221 38.9829 3.59012 38.6898 3.58646Z" stroke="#FF00FF" stroke-width="0.283465" stroke-miterlimit="10" stroke-linecap="round" stroke-linejoin="round"/>
<path d="M14.5911 11.2698V11.0279C14.5911 9.84351 15.2608 9.03735 16.3522 9.03735C17.4436 9.03735 18.0885 9.8311 18.0885 11.0279V11.2698C18.0885 12.4108 17.4374 13.2666 16.3212 13.2666C15.2422 13.2666 14.5911 12.4604 14.5911 11.2698ZM15.6143 17.0865L18.659 13.1673L21.5364 9.40322C21.7224 9.14897 21.9581 9.12417 22.1565 9.21719C22.3549 9.2606 22.4976 9.42803 22.5038 9.63267C22.51 9.76909 22.4542 9.90552 22.3487 10.0419L19.4776 13.7502L16.4266 17.7314C16.2344 17.9856 15.9925 17.998 15.8003 17.9112C15.6267 17.874 15.4716 17.7128 15.4654 17.5268C15.453 17.3903 15.5026 17.2353 15.6143 17.0865ZM15.7631 11.0589V11.2388C15.7631 11.9395 15.9863 12.2992 16.3398 12.2992C16.6871 12.2992 16.9103 11.9395 16.9103 11.2388V11.0589C16.9103 10.3582 16.6871 10.0047 16.3398 10.0047C15.9863 10.0047 15.7631 10.3582 15.7631 11.0589ZM19.9117 15.8524V15.6106C19.9117 14.4262 20.5876 13.62 21.679 13.62C22.7704 13.62 23.4091 14.4138 23.4091 15.6106V15.8524C23.4091 16.9935 22.758 17.8554 21.648 17.8554C20.5628 17.8554 19.9117 17.0431 19.9117 15.8524ZM21.0837 15.6416V15.8214C21.0837 16.5222 21.3131 16.888 21.6604 16.888C22.0077 16.888 22.2371 16.5222 22.2371 15.8214V15.6416C22.2371 14.9471 22.0139 14.5874 21.6604 14.5874C21.3069 14.5874 21.0837 14.9409 21.0837 15.6416Z" fill="black"/>
<path d="M16.0415 34.0293C16.0415 33.6093 16.3115 33.2893 16.7215 33.2893C16.9815 33.2893 17.1815 33.3993 17.3815 33.6893C17.7615 34.2593 18.2515 34.5493 18.8615 34.5593C19.7415 34.5793 20.4215 34.0193 20.4915 33.1393C20.5715 32.1493 19.9115 31.4493 18.9715 31.4493C18.5515 31.4493 18.1315 31.6093 17.7715 31.8893C17.4015 32.1993 17.2215 32.2693 16.9915 32.2693C16.4815 32.2693 16.1315 31.8993 16.1715 31.3293L16.4115 28.1493C16.4515 27.5593 16.8115 27.2793 17.4915 27.2793H21.0015C21.5015 27.2793 21.7915 27.5293 21.7915 27.9693C21.7915 28.4093 21.5015 28.6493 21.0015 28.6493H17.9215C17.8515 28.6493 17.7815 28.7093 17.7815 28.7793L17.6415 30.5493C17.6315 30.6793 17.7715 30.7493 17.8715 30.6593C18.2415 30.3293 18.8515 30.1693 19.4115 30.1693C21.0215 30.1693 22.1315 31.2893 22.1315 32.9193C22.1315 34.7193 20.8315 35.9293 18.9115 35.9293C17.2315 35.9293 16.0415 34.9793 16.0415 34.0293Z" fill="black"/>
<path fill-rule="evenodd" clip-rule="evenodd" d="M32.3738 26.3142C31.9884 26.2422 31.6175 26.4964 31.5456 26.8818C31.4736 27.2673 31.7278 27.6381 32.1132 27.7101C33.9905 28.0605 35.0615 28.2076 36.9772 28.368C37.368 28.4008 37.7113 28.1105 37.744 27.7198C37.7767 27.329 37.4865 26.9857 37.0957 26.953C35.2291 26.7966 34.2055 26.6561 32.3738 26.3142ZM37.3806 30.4959C37.5958 30.2867 37.6562 29.9647 37.5314 29.6917C37.4066 29.4186 37.1236 29.2536 36.8245 29.2795C34.5578 29.4755 33.2908 29.5446 30.8958 29.5912C30.5038 29.5989 30.1922 29.9229 30.1998 30.3149C30.2074 30.707 30.5314 31.0186 30.9235 31.011C32.3964 30.9823 33.4538 30.945 34.5713 30.8756C34.7023 30.8675 34.7724 31.0276 34.677 31.1177C34.1513 31.6148 33.6227 32.1106 33.1006 32.6004L32.9859 32.7079C31.8551 33.7686 30.7567 34.8004 29.7983 35.743C29.5236 36.0133 29.5146 36.4533 29.778 36.7346C30.0415 37.0158 30.4812 37.0356 30.7688 36.7791C31.0224 36.5529 31.2686 36.3285 31.5082 36.1103L31.5082 36.1103C32.2576 35.4275 32.942 34.804 33.5849 34.3671C34.0031 34.0829 34.3392 33.9251 34.6024 33.8728C34.8353 33.8266 34.9936 33.8634 35.1427 33.9752C35.1772 34.001 35.2171 34.0455 35.2531 34.1722C35.2942 34.3166 35.3117 34.498 35.3303 34.7653L35.3341 34.8195C35.3499 35.051 35.3703 35.3493 35.4359 35.6316C35.5097 35.9495 35.653 36.3097 35.9626 36.6065C36.5063 37.1276 37.1488 37.2534 37.8288 37.1661C38.4546 37.0859 39.1726 36.8179 39.9612 36.5055C40.3258 36.3611 40.5042 35.9485 40.3598 35.5839C40.2154 35.2194 39.8028 35.0409 39.4382 35.1853C38.6194 35.5097 38.0672 35.7039 37.6481 35.7577C37.2835 35.8045 37.1067 35.7361 36.9452 35.5813C36.9022 35.5401 36.8558 35.4684 36.8191 35.3104C36.7801 35.1425 36.7667 34.9501 36.748 34.6818L36.7469 34.6665C36.7296 34.4195 36.7067 34.0925 36.619 33.784C36.5263 33.4579 36.3492 33.1051 35.9947 32.8392C35.8438 32.726 35.6874 32.6387 35.5276 32.5747C35.4251 32.5336 35.3907 32.3969 35.4709 32.3211C36.1141 31.7141 36.7568 31.1023 37.3806 30.4959Z" fill="black"/>
<path fill-rule="evenodd" clip-rule="evenodd" d="M32.9963 9.16013C32.6108 9.08817 32.24 9.34232 32.168 9.72778C32.0961 10.1132 32.3502 10.4841 32.7357 10.556C34.1934 10.8281 35.0274 10.9427 36.5152 11.0673C36.9059 11.1 37.2492 10.8098 37.282 10.419C37.3147 10.0283 37.0245 9.68497 36.6337 9.65224C35.195 9.53172 34.4083 9.42375 32.9963 9.16013ZM36.9526 13.1414C37.1679 12.9321 37.2283 12.6101 37.1034 12.3371C36.9786 12.0641 36.6956 11.899 36.3965 11.9249C34.6463 12.0763 33.6695 12.1296 31.82 12.1656C31.428 12.1732 31.1163 12.4972 31.124 12.8892C31.1316 13.2813 31.4556 13.5929 31.8476 13.5853C32.757 13.5676 33.4625 13.5456 34.1499 13.5102C34.2805 13.5035 34.3494 13.6634 34.2542 13.753C33.975 14.0159 33.6958 14.2778 33.4187 14.5377L33.3304 14.6205C32.4558 15.4409 31.6044 16.2406 30.8613 16.9715C30.5865 17.2418 30.5775 17.6818 30.841 17.9631C31.1044 18.2443 31.5442 18.2641 31.8318 18.0076C32.0322 17.8288 32.2253 17.6529 32.4122 17.4826L32.4122 17.4826C32.9895 16.9567 33.507 16.4854 33.994 16.1543C34.3105 15.9393 34.5496 15.8309 34.7224 15.7966C34.8648 15.7683 34.9392 15.7916 35.0127 15.8467L35.0129 15.8468C35.0143 15.8479 35.0166 15.8496 35.0216 15.8574C35.028 15.8675 35.0396 15.8896 35.0527 15.9319C35.0821 16.0275 35.0991 16.1558 35.117 16.3597L35.1227 16.4265C35.1371 16.5975 35.1562 16.8236 35.2021 17.0341C35.2562 17.2821 35.3627 17.5908 35.6121 17.8499C36.0606 18.316 36.632 18.4072 37.1808 18.3408C37.6948 18.2787 38.2796 18.0698 38.8965 17.8254C39.2611 17.681 39.4396 17.2683 39.2951 16.9038C39.1507 16.5392 38.7381 16.3608 38.3736 16.5052C37.7468 16.7535 37.3195 16.8937 37.0104 16.9311C36.7375 16.9641 36.6743 16.9058 36.6357 16.8657C36.6329 16.862 36.6112 16.8312 36.5894 16.7313C36.5647 16.6178 36.5537 16.4911 36.5377 16.3064L36.5316 16.2356C36.5143 16.0395 36.489 15.7712 36.4097 15.5138C36.3261 15.2424 36.1702 14.9399 35.8647 14.7107C35.8135 14.6723 35.7616 14.6374 35.709 14.6059C35.6232 14.5545 35.6026 14.4331 35.6753 14.3644C36.1057 13.9571 36.5346 13.5477 36.9526 13.1414Z" fill="black"/>
</svg>
