<svg width="54" height="55" viewBox="0 0 54 55" fill="none" xmlns="http://www.w3.org/2000/svg">
<rect x="1.8501" y="2.7984" width="50.3" height="50.3" rx="3" stroke="#8B1EFF" stroke-width="0.28"/>
<path d="M10.2065 38.0963V8.24426C10.2125 7.89233 10.252 7.53931 10.325 7.19421C10.397 6.84924 10.503 6.51221 10.6411 6.18738C10.9141 5.54333 11.3131 4.94934 11.8071 4.45007C12.2961 3.95605 12.8791 3.55396 13.5145 3.27808C13.8315 3.14014 14.1605 3.03418 14.4979 2.96094C14.8349 2.88794 15.1779 2.84888 15.5214 2.84497C19.4174 2.81396 23.3134 2.79895 27.2079 2.79895C31.1049 2.79895 34.9999 2.81396 38.8963 2.84509C39.2393 2.84912 39.5833 2.88806 39.9208 2.96155C40.2568 3.03455 40.5868 3.14148 40.903 3.27844C41.221 3.41638 41.525 3.58545 41.8108 3.78186C42.0978 3.97888 42.3658 4.20288 42.6108 4.44995C42.8578 4.69897 43.0808 4.96997 43.2748 5.26074C43.4708 5.55273 43.6398 5.86267 43.7772 6.18652C43.9142 6.51147 44.0212 6.84949 44.0934 7.19434C44.1664 7.53931 44.2054 7.89233 44.2104 8.24438C44.2104 8.24438 44.2104 38.0963 44.2101 38.0968C44.1891 38.7908 44.0511 39.4868 43.8027 40.1417C43.5557 40.7968 43.1977 41.4108 42.7389 41.9346C42.5089 42.1967 42.2549 42.4357 41.9799 42.6483C41.7069 42.8604 41.4139 43.0453 41.1049 43.2023C40.7979 43.3583 40.4769 43.4852 40.1451 43.5798C39.8161 43.6748 39.4771 43.7379 39.1357 43.7638C31.1907 44.1969 23.2267 44.1969 15.2819 43.7638C14.6009 43.7108 13.9259 43.5148 13.3131 43.2032C12.6931 42.8882 12.1351 42.4552 11.6787 41.9353C11.2197 41.4103 10.8627 40.7963 10.6155 40.1414C10.3675 39.4863 10.2285 38.7914 10.2065 38.0963Z" stroke="#8B1EFF" stroke-width="0.283" stroke-miterlimit="10"/>
<rect x="12.8887" y="6.4201" width="28.63" height="34.35" rx="1.46" stroke="#00FFFF" stroke-width="0.28"/>
<path d="M38.6898 4.53482C31.0758 4.43582 23.3388 4.43582 15.7238 4.53482C15.4321 4.53885 15.1431 4.56985 14.858 4.62991C14.787 4.64493 14.7151 4.66092 14.6451 4.67984C14.5751 4.69791 14.5051 4.71793 14.4361 4.7399C14.298 4.78384 14.162 4.83292 14.0311 4.88992C13.8981 4.94693 13.7681 5.00992 13.6421 5.07986C13.578 5.1149 13.515 5.15189 13.453 5.18985C13.3911 5.22794 13.33 5.26785 13.2701 5.30984C13.0321 5.47488 12.8121 5.66287 12.6111 5.87186C12.5101 5.97586 12.4151 6.08585 12.3251 6.20193C12.2791 6.25894 12.2361 6.3179 12.1931 6.37784C12.151 6.43692 12.1111 6.49686 12.0721 6.55887C11.9151 6.80386 11.7841 7.0629 11.677 7.33487C11.651 7.40286 11.625 7.47183 11.6021 7.5419C11.578 7.61185 11.556 7.68192 11.5361 7.75186C11.4951 7.89285 11.4621 8.03482 11.4351 8.17886C11.382 8.46487 11.3551 8.75491 11.3551 9.05093C11.3528 18.4676 11.3519 27.8855 11.3499 37.3025C11.35 37.596 11.371 37.8859 11.414 38.1719C11.436 38.315 11.462 38.4569 11.4949 38.5989C11.511 38.67 11.5289 38.7399 11.548 38.81C11.567 38.8809 11.588 38.951 11.61 39.0209C11.699 39.299 11.809 39.5679 11.9429 39.825C11.977 39.8899 12.0119 39.9539 12.048 40.017C12.084 40.08 12.1219 40.142 12.162 40.2029C12.241 40.324 12.324 40.4419 12.4129 40.554C12.502 40.6669 12.597 40.7759 12.6969 40.8799C12.7469 40.9309 12.798 40.982 12.852 41.0319C12.905 41.081 12.959 41.1299 13.0139 41.1759C13.2359 41.361 13.4729 41.5209 13.727 41.6549C13.7899 41.6879 13.8549 41.72 13.92 41.7499C13.9859 41.7799 14.0529 41.8079 14.1199 41.835C14.254 41.887 14.3909 41.9319 14.5289 41.97C14.8049 42.045 15.087 42.091 15.377 42.106C23.2194 42.5331 31.1934 42.5331 39.0353 42.1061C39.3265 42.0901 39.6095 42.0442 39.8855 41.9701C40.0235 41.9322 40.1595 41.8871 40.2935 41.8351C40.3605 41.8081 40.4276 41.7802 40.4935 41.7502C40.5595 41.7191 40.6245 41.6872 40.6875 41.6532C40.9435 41.5192 41.1805 41.3592 41.3995 41.1742C41.5105 41.0822 41.6155 40.9832 41.7175 40.8792C41.7665 40.8272 41.8165 40.7732 41.8635 40.7182C41.9115 40.6642 41.9576 40.6082 42.0025 40.5522C42.1805 40.3262 42.3355 40.0851 42.4685 39.8302C42.5345 39.7022 42.5965 39.5712 42.6516 39.4362C42.6795 39.3692 42.7065 39.3012 42.7305 39.2322C42.7565 39.1642 42.7795 39.0951 42.8026 39.0252C42.8895 38.7482 42.9545 38.4651 42.9985 38.1781C43.0096 38.1061 43.0175 38.0331 43.0266 37.9612C43.0345 37.8882 43.0415 37.8152 43.0465 37.7422C43.0575 37.5962 43.0625 37.4491 43.0625 37.3031C43.0609 27.8859 43.0598 18.4679 43.059 9.05045C43.058 8.75552 43.032 8.46255 42.977 8.17252C42.95 8.0275 42.9149 7.88455 42.8749 7.74454C42.834 7.60452 42.7879 7.46646 42.735 7.33145C42.6809 7.19547 42.6219 7.06253 42.5549 6.93253C42.5219 6.86746 42.4879 6.80252 42.451 6.73856C42.4139 6.67545 42.3759 6.61246 42.3369 6.55045C42.1799 6.30545 41.9999 6.07755 41.799 5.86856C41.7489 5.81656 41.6979 5.76553 41.645 5.71548C41.5909 5.66556 41.5379 5.61649 41.481 5.56949C41.3699 5.47452 41.2539 5.38651 41.136 5.30447C40.8979 5.14151 40.6459 5.00247 40.3789 4.88846C40.313 4.8605 40.2449 4.83353 40.1759 4.80753C40.1079 4.7825 40.0389 4.75845 39.9699 4.73746C39.8309 4.69449 39.692 4.6575 39.5509 4.62845C39.269 4.57046 38.9829 4.53848 38.6898 4.53482Z" stroke="#FF00FF" stroke-width="0.283465" stroke-miterlimit="10" stroke-linecap="round" stroke-linejoin="round"/>
<path fill-rule="evenodd" clip-rule="evenodd" d="M31.2809 12.1583C31.2809 11.7662 31.5988 11.4483 31.9909 11.4483H35H38.0091C38.4012 11.4483 38.7191 11.7662 38.7191 12.1583C38.7191 12.5504 38.4012 12.8683 38.0091 12.8683L35.85 12.8683C35.7727 12.8683 35.71 12.931 35.71 13.0083V17.5143C35.71 17.5916 35.7727 17.6543 35.85 17.6543H38.6532C39.0454 17.6543 39.3632 17.9722 39.3632 18.3643C39.3632 18.7564 39.0454 19.0743 38.6532 19.0743H35H31.3467C30.9546 19.0743 30.6367 18.7564 30.6367 18.3643C30.6367 17.9722 30.9546 17.6543 31.3467 17.6543H34.15C34.2273 17.6543 34.29 17.5916 34.29 17.5143L34.29 13.0083C34.29 12.931 34.2273 12.8683 34.15 12.8683L31.9909 12.8683C31.5988 12.8683 31.2809 12.5504 31.2809 12.1583Z" fill="black"/>
<path fill-rule="evenodd" clip-rule="evenodd" d="M31.2809 28.3086C31.2809 27.9164 31.5988 27.5986 31.9909 27.5986H35H38.0091C38.4012 27.5986 38.7191 27.9164 38.7191 28.3086C38.7191 28.7007 38.4012 29.0186 38.0091 29.0186L35.85 29.0186C35.7727 29.0186 35.71 29.0813 35.71 29.1586L35.71 35.2519C35.71 35.3293 35.7727 35.3919 35.85 35.3919H38.6532C39.0454 35.3919 39.3632 35.7098 39.3632 36.1019C39.3632 36.4941 39.0454 36.8119 38.6532 36.8119H31.3467C30.9546 36.8119 30.6367 36.4941 30.6367 36.1019C30.6367 35.7098 30.9546 35.3919 31.3467 35.3919H34.15C34.2273 35.3919 34.29 35.3293 34.29 35.2519L34.29 29.1586C34.29 29.0813 34.2273 29.0186 34.15 29.0186L31.9909 29.0186C31.5988 29.0186 31.2809 28.7007 31.2809 28.3086Z" fill="black"/>
<path d="M14.5911 12.2183V11.9765C14.5911 10.7921 15.2608 9.9859 16.3522 9.9859C17.4436 9.9859 18.0885 10.7797 18.0885 11.9765V12.2183C18.0885 13.3593 17.4374 14.2151 16.3212 14.2151C15.2422 14.2151 14.5911 13.4089 14.5911 12.2183ZM15.6143 18.035L18.659 14.1159L21.5364 10.3518C21.7224 10.0975 21.9581 10.0727 22.1565 10.1657C22.3549 10.2091 22.4976 10.3766 22.5038 10.5812C22.51 10.7176 22.4542 10.8541 22.3487 10.9905L19.4776 14.6988L16.4266 18.6799C16.2344 18.9342 15.9925 18.9466 15.8003 18.8598C15.6267 18.8226 15.4716 18.6613 15.4654 18.4753C15.453 18.3389 15.5026 18.1839 15.6143 18.035ZM15.7631 12.0075V12.1873C15.7631 12.888 15.9863 13.2477 16.3398 13.2477C16.6871 13.2477 16.9103 12.888 16.9103 12.1873V12.0075C16.9103 11.3068 16.6871 10.9533 16.3398 10.9533C15.9863 10.9533 15.7631 11.3068 15.7631 12.0075ZM19.9117 16.801V16.5591C19.9117 15.3747 20.5876 14.5686 21.679 14.5686C22.7704 14.5686 23.4091 15.3623 23.4091 16.5591V16.801C23.4091 17.942 22.758 18.804 21.648 18.804C20.5628 18.804 19.9117 17.9916 19.9117 16.801ZM21.0837 16.5901V16.77C21.0837 17.4707 21.3131 17.8366 21.6604 17.8366C22.0077 17.8366 22.2371 17.4707 22.2371 16.77V16.5901C22.2371 15.8956 22.0139 15.5359 21.6604 15.5359C21.3069 15.5359 21.0837 15.8894 21.0837 16.5901Z" fill="black"/>
<path d="M16.0415 34.9777C16.0415 34.5577 16.3115 34.2377 16.7215 34.2377C16.9815 34.2377 17.1815 34.3477 17.3815 34.6377C17.7615 35.2077 18.2515 35.4977 18.8615 35.5077C19.7415 35.5277 20.4215 34.9677 20.4915 34.0877C20.5715 33.0977 19.9115 32.3977 18.9715 32.3977C18.5515 32.3977 18.1315 32.5577 17.7715 32.8377C17.4015 33.1477 17.2215 33.2177 16.9915 33.2177C16.4815 33.2177 16.1315 32.8477 16.1715 32.2777L16.4115 29.0977C16.4515 28.5077 16.8115 28.2277 17.4915 28.2277H21.0015C21.5015 28.2277 21.7915 28.4777 21.7915 28.9177C21.7915 29.3577 21.5015 29.5977 21.0015 29.5977H17.9215C17.8515 29.5977 17.7815 29.6577 17.7815 29.7277L17.6415 31.4977C17.6315 31.6277 17.7715 31.6977 17.8715 31.6077C18.2415 31.2777 18.8515 31.1177 19.4115 31.1177C21.0215 31.1177 22.1315 32.2377 22.1315 33.8677C22.1315 35.6677 20.8315 36.8777 18.9115 36.8777C17.2315 36.8777 16.0415 35.9277 16.0415 34.9777Z" fill="black"/>
</svg>
