<svg width="54" height="55" viewBox="0 0 54 55" fill="none" xmlns="http://www.w3.org/2000/svg">
<rect x="1.8501" y="2.7984" width="50.3" height="50.3" rx="3" stroke="#8B1EFF" stroke-width="0.28"/>
<path d="M10.2065 38.0963V8.24426C10.2125 7.89233 10.252 7.53931 10.325 7.19421C10.397 6.84924 10.503 6.51221 10.6411 6.18738C10.9141 5.54333 11.3131 4.94934 11.8071 4.45007C12.2961 3.95605 12.8791 3.55396 13.5145 3.27808C13.8315 3.14014 14.1605 3.03418 14.4979 2.96094C14.8349 2.88794 15.1779 2.84888 15.5214 2.84497C19.4174 2.81396 23.3134 2.79895 27.2079 2.79895C31.1049 2.79895 34.9999 2.81396 38.8963 2.84509C39.2393 2.84912 39.5833 2.88806 39.9208 2.96155C40.2568 3.03455 40.5868 3.14148 40.903 3.27844C41.221 3.41638 41.525 3.58545 41.8108 3.78186C42.0978 3.97888 42.3658 4.20288 42.6108 4.44995C42.8578 4.69897 43.0808 4.96997 43.2748 5.26074C43.4708 5.55273 43.6398 5.86267 43.7772 6.18652C43.9142 6.51147 44.0212 6.84949 44.0934 7.19434C44.1664 7.53931 44.2054 7.89233 44.2104 8.24438C44.2104 8.24438 44.2104 38.0963 44.2101 38.0968C44.1891 38.7908 44.0511 39.4868 43.8027 40.1417C43.5557 40.7968 43.1977 41.4108 42.7389 41.9346C42.5089 42.1967 42.2549 42.4357 41.9799 42.6483C41.7069 42.8604 41.4139 43.0453 41.1049 43.2023C40.7979 43.3583 40.4769 43.4852 40.1451 43.5798C39.8161 43.6748 39.4771 43.7379 39.1357 43.7638C31.1907 44.1969 23.2267 44.1969 15.2819 43.7638C14.6009 43.7108 13.9259 43.5148 13.3131 43.2032C12.6931 42.8882 12.1351 42.4552 11.6787 41.9353C11.2197 41.4103 10.8627 40.7963 10.6155 40.1414C10.3675 39.4863 10.2285 38.7914 10.2065 38.0963Z" stroke="#8B1EFF" stroke-width="0.283" stroke-miterlimit="10"/>
<rect x="12.8887" y="6.4201" width="28.63" height="34.35" rx="1.46" stroke="#00FFFF" stroke-width="0.28"/>
<path d="M38.6898 4.53482C31.0758 4.43582 23.3388 4.43582 15.7238 4.53482C15.4321 4.53885 15.1431 4.56985 14.858 4.62991C14.787 4.64493 14.7151 4.66092 14.6451 4.67984C14.5751 4.69791 14.5051 4.71793 14.4361 4.7399C14.298 4.78384 14.162 4.83292 14.0311 4.88992C13.8981 4.94693 13.7681 5.00992 13.6421 5.07986C13.578 5.1149 13.515 5.15189 13.453 5.18985C13.3911 5.22794 13.33 5.26785 13.2701 5.30984C13.0321 5.47488 12.8121 5.66287 12.6111 5.87186C12.5101 5.97586 12.4151 6.08585 12.3251 6.20193C12.2791 6.25894 12.2361 6.3179 12.1931 6.37784C12.151 6.43692 12.1111 6.49686 12.0721 6.55887C11.9151 6.80386 11.7841 7.0629 11.677 7.33487C11.651 7.40286 11.625 7.47183 11.6021 7.5419C11.578 7.61185 11.556 7.68192 11.5361 7.75186C11.4951 7.89285 11.4621 8.03482 11.4351 8.17886C11.382 8.46487 11.3551 8.75491 11.3551 9.05093C11.3528 18.4676 11.3519 27.8855 11.3499 37.3025C11.35 37.596 11.371 37.8859 11.414 38.1719C11.436 38.315 11.462 38.4569 11.4949 38.5989C11.511 38.67 11.5289 38.7399 11.548 38.81C11.567 38.8809 11.588 38.951 11.61 39.0209C11.699 39.299 11.809 39.5679 11.9429 39.825C11.977 39.8899 12.0119 39.9539 12.048 40.017C12.084 40.08 12.1219 40.142 12.162 40.2029C12.241 40.324 12.324 40.4419 12.4129 40.554C12.502 40.6669 12.597 40.7759 12.6969 40.8799C12.7469 40.9309 12.798 40.982 12.852 41.0319C12.905 41.081 12.959 41.1299 13.0139 41.1759C13.2359 41.361 13.4729 41.5209 13.727 41.6549C13.7899 41.6879 13.8549 41.72 13.92 41.7499C13.9859 41.7799 14.0529 41.8079 14.1199 41.835C14.254 41.887 14.3909 41.9319 14.5289 41.97C14.8049 42.045 15.087 42.091 15.377 42.106C23.2194 42.5331 31.1934 42.5331 39.0353 42.1061C39.3265 42.0901 39.6095 42.0442 39.8855 41.9701C40.0235 41.9322 40.1595 41.8871 40.2935 41.8351C40.3605 41.8081 40.4276 41.7802 40.4935 41.7502C40.5595 41.7191 40.6245 41.6872 40.6875 41.6532C40.9435 41.5192 41.1805 41.3592 41.3995 41.1742C41.5105 41.0822 41.6155 40.9832 41.7175 40.8792C41.7665 40.8272 41.8165 40.7732 41.8635 40.7182C41.9115 40.6642 41.9576 40.6082 42.0025 40.5522C42.1805 40.3262 42.3355 40.0851 42.4685 39.8302C42.5345 39.7022 42.5965 39.5712 42.6516 39.4362C42.6795 39.3692 42.7065 39.3012 42.7305 39.2322C42.7565 39.1642 42.7795 39.0951 42.8026 39.0252C42.8895 38.7482 42.9545 38.4651 42.9985 38.1781C43.0096 38.1061 43.0175 38.0331 43.0266 37.9612C43.0345 37.8882 43.0415 37.8152 43.0465 37.7422C43.0575 37.5962 43.0625 37.4491 43.0625 37.3031C43.0609 27.8859 43.0598 18.4679 43.059 9.05045C43.058 8.75552 43.032 8.46255 42.977 8.17252C42.95 8.0275 42.9149 7.88455 42.8749 7.74454C42.834 7.60452 42.7879 7.46646 42.735 7.33145C42.6809 7.19547 42.6219 7.06253 42.5549 6.93253C42.5219 6.86746 42.4879 6.80252 42.451 6.73856C42.4139 6.67545 42.3759 6.61246 42.3369 6.55045C42.1799 6.30545 41.9999 6.07755 41.799 5.86856C41.7489 5.81656 41.6979 5.76553 41.645 5.71548C41.5909 5.66556 41.5379 5.61649 41.481 5.56949C41.3699 5.47452 41.2539 5.38651 41.136 5.30447C40.8979 5.14151 40.6459 5.00247 40.3789 4.88846C40.313 4.8605 40.2449 4.83353 40.1759 4.80753C40.1079 4.7825 40.0389 4.75845 39.9699 4.73746C39.8309 4.69449 39.692 4.6575 39.5509 4.62845C39.269 4.57046 38.9829 4.53848 38.6898 4.53482Z" stroke="#FF00FF" stroke-width="0.283465" stroke-miterlimit="10" stroke-linecap="round" stroke-linejoin="round"/>
<path fill-rule="evenodd" clip-rule="evenodd" d="M36.7142 10.3683C37.1063 10.3683 37.4242 10.6862 37.4242 11.0783L37.4242 11.7622C37.4242 11.8395 37.4869 11.9022 37.5642 11.9022H38.8877C39.2799 11.9022 39.5977 12.2201 39.5977 12.6122C39.5977 13.0043 39.2799 13.3222 38.8877 13.3222H37.5642C37.4869 13.3222 37.4242 13.3849 37.4242 13.4622L37.4242 18.3715C37.4242 18.7636 37.1063 19.0815 36.7142 19.0815C36.3221 19.0815 36.0042 18.7636 36.0042 18.3715L36.0042 15.1433C36.0042 15.0048 35.8198 14.9474 35.7362 15.0579C34.7059 16.42 33.323 17.3222 32.1034 17.898C31.7488 18.0654 31.3256 17.9137 31.1582 17.5591C30.9908 17.2045 31.1425 16.7814 31.4971 16.6139C32.8071 15.9955 34.1998 15.0166 35.0489 13.5248C35.1008 13.4335 35.0336 13.3222 34.9286 13.3222H31.9604C31.5682 13.3222 31.2504 13.0043 31.2504 12.6122C31.2504 12.2201 31.5682 11.9022 31.9604 11.9022L35.8642 11.9022C35.9415 11.9022 36.0042 11.8395 36.0042 11.7622L36.0042 11.0783C36.0042 10.6862 36.3221 10.3683 36.7142 10.3683Z" fill="black"/>
<path fill-rule="evenodd" clip-rule="evenodd" d="M36.7082 27.7484C37.1003 27.7484 37.4182 28.0662 37.4182 28.4584L37.4182 29.649C37.4182 29.7263 37.4809 29.789 37.5582 29.789H39.5458C39.938 29.789 40.2558 30.1069 40.2558 30.499C40.2558 30.8911 39.938 31.209 39.5458 31.209H37.5582C37.4809 31.209 37.4182 31.2717 37.4182 31.349L37.4182 37.7398C37.4182 38.132 37.1003 38.4499 36.7082 38.4499C36.3161 38.4499 35.9982 38.132 35.9982 37.7399L35.9982 32.9683C35.9982 32.8247 35.8017 32.7708 35.7235 32.8911C34.4098 34.9104 32.4586 36.1755 30.7577 36.9786C30.4031 37.146 29.9799 36.9943 29.8125 36.6397C29.6451 36.2851 29.7968 35.8619 30.1514 35.6945C31.944 34.8482 33.863 33.5286 34.9421 31.4075C34.9887 31.3159 34.9212 31.209 34.8185 31.209H30.6583C30.2662 31.209 29.9483 30.8911 29.9483 30.499C29.9483 30.1069 30.2662 29.789 30.6583 29.789L35.8582 29.789C35.9355 29.789 35.9982 29.7263 35.9982 29.649L35.9982 28.4584C35.9982 28.0662 36.3161 27.7484 36.7082 27.7484Z" fill="black"/>
<path fill-rule="evenodd" clip-rule="evenodd" d="M18.509 12.0696C18.7802 11.7984 19.2199 11.7984 19.4911 12.0696L22.5828 15.1613C22.8541 15.4325 22.8541 15.8723 22.5828 16.1435C22.3116 16.4147 21.8719 16.4147 21.6007 16.1435L19.0991 13.6418C19.0444 13.5872 18.9557 13.5872 18.9011 13.6418L16.3994 16.1435C16.1282 16.4147 15.6885 16.4147 15.4173 16.1435C15.1461 15.8723 15.1461 15.4325 15.4173 15.1613L18.509 12.0696Z" fill="black"/>
<path d="M16 33.2182C16 30.3184 17.2299 28.6985 19.4398 28.6985C20.1798 28.6985 20.8697 28.8885 21.3797 29.2285C21.8097 29.5185 22.0697 29.9085 22.0697 30.2284C22.0697 30.5984 21.7997 30.8584 21.4197 30.8584C21.1897 30.8584 21.0197 30.7884 20.7297 30.5584C20.2997 30.1884 19.9198 30.0284 19.4398 30.0284C18.4266 30.0284 17.746 30.7805 17.6095 32.444C17.5989 32.5726 17.7524 32.6471 17.847 32.5593C18.1756 32.2545 18.8089 31.8083 19.6998 31.8083C21.2597 31.8083 22.3496 32.9282 22.3496 34.5481C22.3496 36.318 21.1197 37.4979 19.2798 37.4979C18.1999 37.4979 17.3299 37.0779 16.77 36.278C16.26 35.5681 16 34.5281 16 33.2182ZM17.7699 34.5981C17.7699 35.518 18.3999 36.178 19.2798 36.178C20.1597 36.178 20.7397 35.548 20.7397 34.6081C20.7397 33.6682 20.1397 33.0582 19.2598 33.0582C18.3799 33.0582 17.7699 33.6982 17.7699 34.5981Z" fill="black"/>
</svg>
