<svg width="54" height="55" viewBox="0 0 54 55" fill="none" xmlns="http://www.w3.org/2000/svg">
<rect x="1.84998" y="2.79846" width="50.3" height="50.3" rx="3" stroke="#8B1EFF" stroke-width="0.28"/>
<path d="M10.2065 38.0964V8.24438C10.2125 7.89246 10.252 7.53943 10.325 7.19434C10.397 6.84937 10.503 6.51233 10.6411 6.1875C10.9141 5.54346 11.3131 4.94946 11.8071 4.4502C12.2961 3.95618 12.8791 3.55408 13.5145 3.2782C13.8315 3.14026 14.1605 3.0343 14.4979 2.96106C14.8349 2.88806 15.1779 2.849 15.5214 2.84509C19.4174 2.81409 23.3134 2.79907 27.2079 2.79907C31.1049 2.79907 34.9999 2.81409 38.8963 2.84521C39.2393 2.84924 39.5833 2.88818 39.9208 2.96167C40.2568 3.03467 40.5868 3.1416 40.903 3.27856C41.221 3.4165 41.525 3.58557 41.8108 3.78198C42.0978 3.979 42.3658 4.203 42.6108 4.45007C42.8578 4.6991 43.0808 4.97009 43.2748 5.26086C43.4708 5.55286 43.6398 5.86279 43.7772 6.18665C43.9142 6.5116 44.0212 6.84961 44.0934 7.19446C44.1664 7.53943 44.2054 7.89246 44.2104 8.24451C44.2104 8.24451 44.2104 38.0964 44.2101 38.0969C44.1891 38.7909 44.0511 39.4869 43.8027 40.1418C43.5557 40.7969 43.1977 41.4109 42.7389 41.9347C42.5089 42.1968 42.2549 42.4358 41.9799 42.6484C41.7069 42.8605 41.4139 43.0454 41.1049 43.2024C40.7979 43.3584 40.4769 43.4854 40.1451 43.58C39.8161 43.6749 39.4771 43.738 39.1357 43.7639C31.1907 44.197 23.2267 44.197 15.2819 43.7639C14.6009 43.7109 13.9259 43.5149 13.3131 43.2034C12.6931 42.8883 12.1351 42.4553 11.6787 41.9354C11.2197 41.4104 10.8627 40.7964 10.6155 40.1415C10.3675 39.4865 10.2285 38.7915 10.2065 38.0964Z" stroke="#8B1EFF" stroke-width="0.283" stroke-miterlimit="10"/>
<rect x="12.8885" y="6.42017" width="28.63" height="34.35" rx="1.46" stroke="#00FFFF" stroke-width="0.28"/>
<path d="M38.6898 4.53494C31.0758 4.43594 23.3388 4.43594 15.7238 4.53494C15.4321 4.53897 15.1431 4.56998 14.858 4.63004C14.787 4.64505 14.7151 4.66104 14.6451 4.67996C14.5751 4.69803 14.5051 4.71805 14.4361 4.74002C14.298 4.78397 14.162 4.83304 14.0311 4.89005C13.8981 4.94705 13.7681 5.01004 13.6421 5.07999C13.578 5.11502 13.515 5.15201 13.453 5.18997C13.3911 5.22806 13.33 5.26797 13.2701 5.30997C13.0321 5.47501 12.8121 5.66299 12.6111 5.87198C12.5101 5.97598 12.4151 6.08597 12.3251 6.20206C12.2791 6.25906 12.2361 6.31802 12.1931 6.37796C12.151 6.43704 12.1111 6.49698 12.0721 6.55899C11.9151 6.80399 11.7841 7.06302 11.677 7.33499C11.651 7.40298 11.625 7.47195 11.6021 7.54202C11.578 7.61197 11.556 7.68204 11.5361 7.75198C11.4951 7.89297 11.4621 8.03494 11.4351 8.17899C11.382 8.465 11.3551 8.75504 11.3551 9.05106C11.3528 18.4677 11.3519 27.8857 11.3499 37.3026C11.35 37.5961 11.371 37.886 11.414 38.172C11.436 38.3151 11.462 38.4571 11.4949 38.599C11.511 38.6701 11.5289 38.74 11.548 38.8101C11.567 38.881 11.588 38.9511 11.61 39.021C11.699 39.2991 11.809 39.568 11.9429 39.8251C11.977 39.89 12.0119 39.954 12.048 40.0171C12.084 40.0801 12.1219 40.1421 12.162 40.203C12.241 40.3241 12.324 40.442 12.4129 40.5541C12.502 40.667 12.597 40.776 12.6969 40.88C12.7469 40.9311 12.798 40.9821 12.852 41.032C12.905 41.0811 12.959 41.13 13.0139 41.1761C13.2359 41.3611 13.4729 41.521 13.727 41.6551C13.7899 41.688 13.8549 41.7201 13.92 41.75C13.9859 41.7801 14.0529 41.808 14.1199 41.8351C14.254 41.8871 14.3909 41.932 14.5289 41.9701C14.8049 42.0451 15.087 42.0911 15.377 42.1061C23.2194 42.5332 31.1934 42.5332 39.0353 42.1062C39.3265 42.0902 39.6095 42.0443 39.8855 41.9702C40.0235 41.9323 40.1595 41.8872 40.2935 41.8352C40.3605 41.8083 40.4276 41.7803 40.4935 41.7503C40.5595 41.7193 40.6245 41.6873 40.6875 41.6534C40.9435 41.5193 41.1805 41.3593 41.3995 41.1743C41.5105 41.0823 41.6155 40.9833 41.7175 40.8793C41.7665 40.8273 41.8165 40.7733 41.8635 40.7183C41.9115 40.6643 41.9576 40.6083 42.0025 40.5523C42.1805 40.3263 42.3355 40.0852 42.4685 39.8304C42.5345 39.7023 42.5965 39.5713 42.6516 39.4363C42.6795 39.3693 42.7065 39.3013 42.7305 39.2323C42.7565 39.1643 42.7795 39.0952 42.8026 39.0253C42.8895 38.7483 42.9545 38.4652 42.9985 38.1783C43.0096 38.1062 43.0175 38.0332 43.0266 37.9613C43.0345 37.8883 43.0415 37.8153 43.0465 37.7423C43.0575 37.5963 43.0625 37.4492 43.0625 37.3033C43.0609 27.886 43.0598 18.468 43.059 9.05057C43.058 8.75565 43.032 8.46268 42.977 8.17264C42.95 8.02762 42.9149 7.88467 42.8749 7.74466C42.834 7.60464 42.7879 7.46658 42.735 7.33157C42.6809 7.19559 42.6219 7.06265 42.5549 6.93265C42.5219 6.86758 42.4879 6.80264 42.451 6.73868C42.4139 6.67557 42.3759 6.61258 42.3369 6.55057C42.1799 6.30557 41.9999 6.07767 41.799 5.86868C41.7489 5.81668 41.6979 5.76566 41.645 5.71561C41.5909 5.66568 41.5379 5.61661 41.481 5.56961C41.3699 5.47464 41.2539 5.38663 41.136 5.3046C40.8979 5.14163 40.6459 5.00259 40.3789 4.88858C40.313 4.86063 40.2449 4.83365 40.1759 4.80765C40.1079 4.78262 40.0389 4.75858 39.9699 4.73758C39.8309 4.69461 39.692 4.65762 39.5509 4.62857C39.269 4.57059 38.9829 4.5386 38.6898 4.53494Z" stroke="#FF00FF" stroke-width="0.283465" stroke-miterlimit="10" stroke-linecap="round" stroke-linejoin="round"/>
<path d="M15.3351 16.491C15.3351 15.5857 15.8002 14.8601 16.811 14.2834C16.858 14.252 16.982 14.1835 17.095 14.1232C17.1782 14.0787 17.1972 13.9662 17.1331 13.8969C16.474 13.1845 16.2219 12.6841 16.2219 12.1068C16.2219 10.9596 17.2202 10.1224 18.5659 10.1224C19.9177 10.1224 20.8789 10.9286 20.8789 12.0882C20.8789 12.905 20.3931 13.5636 19.3135 14.1773C19.234 14.2225 19.2155 14.3304 19.2775 14.3977L20.7097 15.951C20.7746 16.0213 20.8888 16.0069 20.925 15.9183C21.0788 15.5411 21.1518 15.0192 21.1518 14.333V14.1966C21.1518 13.7935 21.4308 13.5021 21.8029 13.5021C22.1812 13.5021 22.4602 13.7935 22.4602 14.1966V14.4012C22.4602 15.4387 22.2361 16.3193 21.8304 16.9471C21.794 17.0035 21.7994 17.0779 21.8461 17.1263L22.4354 17.7375C22.5532 17.8677 22.6091 18.0165 22.6091 18.184C22.6091 18.5436 22.3176 18.8413 21.9517 18.8413C21.7657 18.8413 21.5735 18.7607 21.437 18.618L20.9285 18.0781C20.8767 18.023 20.7908 18.0193 20.7319 18.0667C20.096 18.5786 19.1889 18.8847 18.2372 18.8847C16.4947 18.8847 15.3351 17.9173 15.3351 16.491ZM18.3129 13.4545C18.3561 13.4977 18.423 13.5073 18.4765 13.4777C19.222 13.0652 19.5147 12.7124 19.5147 12.1874C19.5147 11.6169 19.124 11.22 18.5535 11.22C17.9892 11.22 17.5861 11.6169 17.5861 12.1874C17.5861 12.5913 17.7739 12.9156 18.3129 13.4545ZM17.7101 15.04C17.0962 15.3996 16.8296 15.8337 16.8296 16.3732C16.8296 17.167 17.4683 17.7065 18.4109 17.7065C18.9763 17.7065 19.5418 17.496 19.9183 17.1526C19.9724 17.1033 19.9725 17.0198 19.923 16.9659L18.0687 14.9456C18.0285 14.9018 17.9655 14.8894 17.9132 14.9176C17.8369 14.9588 17.7387 15.0155 17.7101 15.04Z" fill="black"/>
<path d="M17.1655 36.044C17.1655 35.874 17.2255 35.714 17.3155 35.534L20.1455 29.804C20.1955 29.714 20.1255 29.604 20.0155 29.604H16.7455C16.2255 29.604 15.9355 29.334 15.9355 28.924C15.9355 28.514 16.2255 28.234 16.7455 28.234H21.0855C21.5855 28.234 21.9455 28.564 21.9455 29.074C21.9455 29.394 21.8355 29.754 21.6055 30.214L18.6855 36.264C18.5055 36.614 18.2855 36.794 17.9355 36.794C17.4955 36.794 17.1555 36.494 17.1555 36.044H17.1655Z" fill="black"/>
<path d="M36.6497 34.1175C36.3497 34.1175 36.1497 33.9175 36.1497 33.6375C36.1497 33.1075 36.7797 32.4575 37.7697 32.4575C38.7597 32.4575 39.3597 32.9675 39.3597 33.6775C39.3597 34.2675 38.9897 34.6375 38.5797 34.9875L38.1097 35.4275C38.0197 35.5175 38.0797 35.6775 38.2097 35.6775H38.8897C39.2897 35.6775 39.4897 35.8675 39.4897 36.1475C39.4897 36.4575 39.2997 36.6275 38.8897 36.6275H36.6797C36.3797 36.6275 36.1697 36.4275 36.1697 36.1575C36.1697 36.0175 36.2297 35.8875 36.3397 35.7875L37.6997 34.5175C37.9497 34.2775 38.1597 34.0575 38.1597 33.8175C38.1597 33.5775 37.9697 33.4075 37.7097 33.4075C37.4397 33.4075 37.3097 33.5775 37.1497 33.8375C37.0097 34.0475 36.8697 34.1475 36.6497 34.1475V34.1175ZM31.3497 36.0375L34.3897 32.1175L37.2697 28.3475C37.4597 28.0975 37.6897 28.0675 37.8897 28.1575C38.0897 28.1975 38.2297 28.3675 38.2397 28.5775C38.2397 28.7175 38.1897 28.8475 38.0797 28.9875L35.2097 32.6975L32.1597 36.6775C31.9697 36.9275 31.7297 36.9475 31.5297 36.8575C31.3597 36.8175 31.1997 36.6575 31.1997 36.4775C31.1897 36.3375 31.2397 36.1875 31.3597 36.0375H31.3497ZM31.4897 31.7375V29.4575C31.4897 29.3475 31.3697 29.2775 31.2797 29.3375L31.1497 29.4175C31.0297 29.4875 30.9297 29.5275 30.8297 29.5275C30.5797 29.5275 30.3997 29.3475 30.3997 29.0975C30.3997 28.9375 30.4997 28.7875 30.6697 28.6775L31.2397 28.3375C31.4797 28.1875 31.7597 28.0975 32.0197 28.0975C32.4897 28.0975 32.7497 28.3675 32.7497 28.8175V31.7275C32.7497 32.0875 32.4997 32.3375 32.1297 32.3375C31.7597 32.3375 31.4997 32.0875 31.4997 31.7275L31.4897 31.7375Z" fill="black"/>
</svg>
