<svg width="54" height="54" viewBox="0 0 54 54" fill="none" xmlns="http://www.w3.org/2000/svg">
<rect x="1.8501" y="1.8501" width="50.3" height="50.3" rx="3" stroke="#8B1EFF" stroke-width="0.28"/>
<path d="M10.2065 37.1479V7.2959C10.2125 6.94397 10.252 6.59094 10.325 6.24585C10.397 5.90088 10.503 5.56384 10.6411 5.23901C10.9141 4.59497 11.3131 4.00098 11.8071 3.50171C12.2961 3.00769 12.8791 2.60559 13.5145 2.32971C13.8315 2.19177 14.1605 2.08582 14.4979 2.01257C14.8349 1.93958 15.1779 1.90051 15.5214 1.89661C19.4174 1.8656 23.3134 1.85059 27.2079 1.85059C31.1049 1.85059 34.9999 1.8656 38.8963 1.89673C39.2393 1.90076 39.5833 1.9397 39.9208 2.01318C40.2568 2.08618 40.5868 2.19312 40.903 2.33008C41.221 2.46802 41.525 2.63708 41.8108 2.8335C42.0978 3.03052 42.3658 3.25452 42.6108 3.50159C42.8578 3.75061 43.0808 4.02161 43.2748 4.31238C43.4708 4.60437 43.6398 4.91431 43.7772 5.23816C43.9142 5.56311 44.0212 5.90112 44.0934 6.24597C44.1664 6.59094 44.2054 6.94397 44.2104 7.29602C44.2104 7.29602 44.2104 37.1479 44.2101 37.1484C44.1891 37.8424 44.0511 38.5385 43.8027 39.1934C43.5557 39.8484 43.1977 40.4624 42.7389 40.9862C42.5089 41.2483 42.2549 41.4873 41.9799 41.7C41.7069 41.912 41.4139 42.0969 41.1049 42.2539C40.7979 42.4099 40.4769 42.5369 40.1451 42.6315C39.8161 42.7264 39.4771 42.7896 39.1357 42.8154C31.1907 43.2485 23.2267 43.2485 15.2819 42.8154C14.6009 42.7625 13.9259 42.5664 13.3131 42.2549C12.6931 41.9398 12.1351 41.5068 11.6787 40.9869C11.2197 40.4619 10.8627 39.8479 10.6155 39.193C10.3675 38.538 10.2285 37.843 10.2065 37.1479Z" stroke="#8B1EFF" stroke-width="0.283" stroke-miterlimit="10"/>
<rect x="12.8887" y="5.47168" width="28.63" height="34.35" rx="1.46" stroke="#00FFFF" stroke-width="0.28"/>
<path d="M38.6898 3.58646C31.0758 3.48746 23.3388 3.48746 15.7238 3.58646C15.4321 3.59048 15.1431 3.62149 14.858 3.68155C14.787 3.69656 14.7151 3.71255 14.6451 3.73148C14.5751 3.74954 14.5051 3.76956 14.4361 3.79153C14.298 3.83548 14.162 3.88455 14.0311 3.94156C13.8981 3.99857 13.7681 4.06155 13.6421 4.1315C13.578 4.16653 13.515 4.20352 13.453 4.24149C13.3911 4.27957 13.33 4.31949 13.2701 4.36148C13.0321 4.52652 12.8121 4.71451 12.6111 4.92349C12.5101 5.0275 12.4151 5.13748 12.3251 5.25357C12.2791 5.31058 12.2361 5.36954 12.1931 5.42947C12.151 5.48856 12.1111 5.54849 12.0721 5.6105C11.9151 5.8555 11.7841 6.11453 11.677 6.38651C11.651 6.4545 11.625 6.52347 11.6021 6.59354C11.578 6.66348 11.556 6.73355 11.5361 6.8035C11.4951 6.94449 11.4621 7.08646 11.4351 7.2305C11.382 7.51651 11.3551 7.80655 11.3551 8.10257C11.3528 17.5192 11.3519 26.9372 11.3499 36.3542C11.35 36.6476 11.371 36.9375 11.414 37.2235C11.436 37.3666 11.462 37.5086 11.4949 37.6505C11.511 37.7216 11.5289 37.7915 11.548 37.8616C11.567 37.9325 11.588 38.0026 11.61 38.0725C11.699 38.3506 11.809 38.6195 11.9429 38.8766C11.977 38.9416 12.0119 39.0055 12.048 39.0686C12.084 39.1316 12.1219 39.1936 12.162 39.2545C12.241 39.3756 12.324 39.4936 12.4129 39.6056C12.502 39.7185 12.597 39.8275 12.6969 39.9315C12.7469 39.9826 12.798 40.0336 12.852 40.0835C12.905 40.1326 12.959 40.1815 13.0139 40.2276C13.2359 40.4126 13.4729 40.5725 13.727 40.7066C13.7899 40.7395 13.8549 40.7716 13.92 40.8015C13.9859 40.8316 14.0529 40.8595 14.1199 40.8866C14.254 40.9386 14.3909 40.9836 14.5289 41.0216C14.8049 41.0966 15.087 41.1426 15.377 41.1576C23.2194 41.5847 31.1934 41.5847 39.0353 41.1577C39.3265 41.1418 39.6095 41.0959 39.8855 41.0218C40.0235 40.9838 40.1595 40.9388 40.2935 40.8867C40.3605 40.8598 40.4276 40.8318 40.4935 40.8018C40.5595 40.7708 40.6245 40.7388 40.6875 40.7049C40.9435 40.5708 41.1805 40.4108 41.3995 40.2259C41.5105 40.1338 41.6155 40.0348 41.7175 39.9308C41.7665 39.8788 41.8165 39.8249 41.8635 39.7698C41.9115 39.7159 41.9576 39.6598 42.0025 39.6038C42.1805 39.3778 42.3355 39.1367 42.4685 38.8819C42.5345 38.7538 42.5965 38.6228 42.6516 38.4878C42.6795 38.4208 42.7065 38.3528 42.7305 38.2838C42.7565 38.2159 42.7795 38.1468 42.8026 38.0768C42.8895 37.7998 42.9545 37.5168 42.9985 37.2298C43.0096 37.1577 43.0175 37.0847 43.0266 37.0128C43.0345 36.9398 43.0415 36.8669 43.0465 36.7939C43.0575 36.6479 43.0625 36.5008 43.0625 36.3548C43.0609 26.9375 43.0598 17.5196 43.059 8.10208C43.058 7.80716 43.032 7.51419 42.977 7.22415C42.95 7.07913 42.9149 6.93619 42.8749 6.79617C42.834 6.65616 42.7879 6.5181 42.735 6.38309C42.6809 6.2471 42.6219 6.11417 42.5549 5.98416C42.5219 5.9191 42.4879 5.85416 42.451 5.79019C42.4139 5.72708 42.3759 5.66409 42.3369 5.60208C42.1799 5.35709 41.9999 5.12918 41.799 4.9202C41.7489 4.86819 41.6979 4.81717 41.645 4.76712C41.5909 4.71719 41.5379 4.66812 41.481 4.62112C41.3699 4.52615 41.2539 4.43814 41.136 4.35611C40.8979 4.19315 40.6459 4.05411 40.3789 3.94009C40.313 3.91214 40.2449 3.88516 40.1759 3.85916C40.1079 3.83414 40.0389 3.81009 39.9699 3.78909C39.8309 3.74612 39.692 3.70914 39.5509 3.68008C39.269 3.6221 38.9829 3.59012 38.6898 3.58646Z" stroke="#FF00FF" stroke-width="0.283465" stroke-miterlimit="10" stroke-linecap="round" stroke-linejoin="round"/>
<path d="M18.3736 14.3607L18.2619 12.5189C18.2309 12.0973 18.5348 11.75 18.9937 11.75C19.4464 11.75 19.744 12.1035 19.7192 12.5189L19.6076 14.3607C19.5828 14.7142 19.3223 15.0118 18.9875 15.0118C18.6526 15.0118 18.3922 14.7142 18.3736 14.3607Z" fill="black"/>
<path d="M17.1655 35.0954C17.1655 34.9254 17.2255 34.7654 17.3155 34.5854L20.1455 28.8554C20.1955 28.7654 20.1255 28.6554 20.0155 28.6554H16.7455C16.2255 28.6554 15.9355 28.3854 15.9355 27.9754C15.9355 27.5654 16.2255 27.2854 16.7455 27.2854H21.0855C21.5855 27.2854 21.9455 27.6154 21.9455 28.1254C21.9455 28.4454 21.8355 28.8054 21.6055 29.2654L18.6855 35.3154C18.5055 35.6654 18.2855 35.8454 17.9355 35.8454C17.4955 35.8454 17.1555 35.5454 17.1555 35.0954H17.1655Z" fill="black"/>
<path fill-rule="evenodd" clip-rule="evenodd" d="M36.7025 26.8909C36.6826 26.4993 36.3491 26.1979 35.9575 26.2177C35.5658 26.2376 35.2645 26.5711 35.2843 26.9627L35.3486 28.2335C35.3521 28.3015 35.3061 28.362 35.2399 28.3775C34.9334 28.4493 34.6219 28.5308 34.3105 28.619C33.9687 28.7158 33.6238 28.8217 33.2819 28.9331C33.2085 28.957 33.1294 28.9174 33.1049 28.8442C32.9347 28.3355 32.7506 27.7999 32.5488 27.2242C32.419 26.8542 32.0139 26.6593 31.6439 26.7891C31.2738 26.9188 31.079 27.3239 31.2087 27.694C31.4122 28.2744 31.5972 28.8128 31.7678 29.3231C31.7916 29.3944 31.7547 29.4717 31.6845 29.4985C31.0432 29.7427 30.455 29.987 29.9711 30.2028C29.613 30.3624 29.4521 30.7822 29.6118 31.1404C29.7714 31.4985 30.1912 31.6594 30.5493 31.4997C30.9915 31.3026 31.5256 31.0802 32.1073 30.8571C32.1826 30.8282 32.2666 30.8692 32.2903 30.9464C32.8541 32.7776 33.2627 34.4184 33.7585 36.7275C33.8408 37.1108 34.2184 37.3549 34.6018 37.2726C34.9851 37.1903 35.2292 36.8127 35.1469 36.4293C34.636 34.0499 34.2131 32.358 33.6262 30.4596C33.6036 30.3866 33.6434 30.3088 33.716 30.2851C34.0429 30.1785 34.3721 30.0774 34.6976 29.9852C35.4505 29.7719 36.1658 29.6112 36.7755 29.5367C37.4085 29.4594 37.8354 29.4876 38.0675 29.5713C38.6271 29.7731 38.8306 30.0338 38.9228 30.2371C39.03 30.4734 39.0413 30.75 39.0218 31.0723C39.0111 31.2489 38.8985 31.5968 38.6485 31.9197C38.4071 32.2316 38.0999 32.4413 37.753 32.4863C37.0018 32.5837 36.5826 32.4689 36.242 32.3757C36.2136 32.3679 36.1858 32.3603 36.1584 32.3529C35.7795 32.2516 35.3903 32.4766 35.289 32.8554C35.1878 33.2342 35.4127 33.6234 35.7915 33.7247C35.8173 33.7316 35.8442 33.739 35.8724 33.7467C36.2647 33.8539 36.9028 34.0284 37.9356 33.8945C38.7574 33.7879 39.3724 33.3044 39.7715 32.7888C40.162 32.2842 40.4081 31.6704 40.4392 31.1583C40.4614 30.792 40.4741 30.2195 40.216 29.6505C39.9428 29.0483 39.4143 28.5474 38.5491 28.2354C38.0753 28.0646 37.4958 28.0455 36.9111 28.0951C36.8312 28.1019 36.7608 28.0417 36.7567 27.9616L36.7025 26.8909Z" fill="black"/>
<path fill-rule="evenodd" clip-rule="evenodd" d="M36.4753 9.91532C36.4555 9.5237 36.1219 9.2223 35.7303 9.24214C35.3387 9.26197 35.0373 9.59552 35.0571 9.98714L35.0989 10.8114C35.1023 10.8789 35.057 10.9391 34.9915 10.9552C34.8017 11.0018 34.6105 11.0527 34.4198 11.1068C34.1469 11.1841 33.8716 11.2687 33.599 11.3578C33.5257 11.3818 33.4466 11.3424 33.4218 11.2693C33.3119 10.9443 33.1946 10.6045 33.0685 10.2446C32.9387 9.87452 32.5336 9.67969 32.1636 9.80941C31.7935 9.93913 31.5987 10.3443 31.7284 10.7143C31.8575 11.0826 31.977 11.429 32.0886 11.7593C32.1125 11.8301 32.0765 11.907 32.0071 11.9345C31.65 12.0761 31.3218 12.2146 31.0392 12.3406C30.6811 12.5003 30.5202 12.92 30.6799 13.2782C30.8395 13.6363 31.2593 13.7972 31.6175 13.6375C31.8564 13.531 32.1303 13.4149 32.4273 13.2957C32.5031 13.2653 32.5885 13.3064 32.6122 13.3844C33.0225 14.7348 33.3283 15.9717 33.6967 17.6876C33.779 18.0709 34.1566 18.315 34.5399 18.2327C34.9233 18.1504 35.1674 17.7728 35.0851 17.3894C34.7002 15.5968 34.3793 14.3059 33.944 12.8835C33.9217 12.8107 33.9614 12.7333 34.0337 12.7097C34.2912 12.6254 34.5506 12.5456 34.8069 12.473C35.3854 12.3091 35.9304 12.187 36.391 12.1307C36.8751 12.0716 37.1744 12.0976 37.3173 12.1491C37.716 12.2929 37.8367 12.4676 37.8877 12.5799C37.9536 12.7252 37.9651 12.9059 37.9503 13.1505C37.9296 13.491 37.7146 13.9948 37.083 14.0992C36.7017 14.1623 36.4421 14.1187 36.225 14.0713C35.8419 13.9876 35.4635 14.2303 35.3798 14.6134C35.2961 14.9964 35.5388 15.3748 35.9219 15.4585C36.2354 15.527 36.6903 15.6035 37.3148 15.5002C38.8384 15.2481 39.3237 13.9621 39.3677 13.2364C39.3852 12.9479 39.3977 12.4714 39.1809 11.9933C38.949 11.4821 38.5032 11.0673 37.7989 10.8133C37.457 10.69 37.0577 10.6627 36.6579 10.6826C36.5793 10.6865 36.5113 10.6268 36.5073 10.5482L36.4753 9.91532Z" fill="black"/>
</svg>
