<svg width="54" height="55" viewBox="0 0 54 55" fill="none" xmlns="http://www.w3.org/2000/svg">
<rect x="1.84998" y="2.7984" width="50.3" height="50.3" rx="3" stroke="#8B1EFF" stroke-width="0.28"/>
<path d="M10.2065 38.0963V8.24426C10.2125 7.89233 10.252 7.53931 10.325 7.19421C10.397 6.84924 10.503 6.51221 10.6411 6.18738C10.9141 5.54333 11.3131 4.94934 11.8071 4.45007C12.2961 3.95605 12.8791 3.55396 13.5145 3.27808C13.8315 3.14014 14.1605 3.03418 14.4979 2.96094C14.8349 2.88794 15.1779 2.84888 15.5214 2.84497C19.4174 2.81396 23.3134 2.79895 27.2079 2.79895C31.1049 2.79895 34.9999 2.81396 38.8963 2.84509C39.2393 2.84912 39.5833 2.88806 39.9208 2.96155C40.2568 3.03455 40.5868 3.14148 40.903 3.27844C41.221 3.41638 41.525 3.58545 41.8108 3.78186C42.0978 3.97888 42.3658 4.20288 42.6108 4.44995C42.8578 4.69897 43.0808 4.96997 43.2748 5.26074C43.4708 5.55273 43.6398 5.86267 43.7772 6.18652C43.9142 6.51147 44.0212 6.84949 44.0934 7.19434C44.1664 7.53931 44.2054 7.89233 44.2104 8.24438C44.2104 8.24438 44.2104 38.0963 44.2101 38.0968C44.1891 38.7908 44.0511 39.4868 43.8027 40.1417C43.5557 40.7968 43.1977 41.4108 42.7389 41.9346C42.5089 42.1967 42.2549 42.4357 41.9799 42.6483C41.7069 42.8604 41.4139 43.0453 41.1049 43.2023C40.7979 43.3583 40.4769 43.4852 40.1451 43.5798C39.8161 43.6748 39.4771 43.7379 39.1357 43.7638C31.1907 44.1969 23.2267 44.1969 15.2819 43.7638C14.6009 43.7108 13.9259 43.5148 13.3131 43.2032C12.6931 42.8882 12.1351 42.4552 11.6787 41.9353C11.2197 41.4103 10.8627 40.7963 10.6155 40.1414C10.3675 39.4863 10.2285 38.7914 10.2065 38.0963Z" stroke="#8B1EFF" stroke-width="0.283" stroke-miterlimit="10"/>
<rect x="12.8885" y="6.4201" width="28.63" height="34.35" rx="1.46" stroke="#00FFFF" stroke-width="0.28"/>
<path d="M38.6898 4.53482C31.0758 4.43582 23.3388 4.43582 15.7238 4.53482C15.4321 4.53885 15.1431 4.56985 14.858 4.62991C14.787 4.64493 14.7151 4.66092 14.6451 4.67984C14.5751 4.69791 14.5051 4.71793 14.4361 4.7399C14.298 4.78384 14.162 4.83292 14.0311 4.88992C13.8981 4.94693 13.7681 5.00992 13.6421 5.07986C13.578 5.1149 13.515 5.15189 13.453 5.18985C13.3911 5.22794 13.33 5.26785 13.2701 5.30984C13.0321 5.47488 12.8121 5.66287 12.6111 5.87186C12.5101 5.97586 12.4151 6.08585 12.3251 6.20193C12.2791 6.25894 12.2361 6.3179 12.1931 6.37784C12.151 6.43692 12.1111 6.49686 12.0721 6.55887C11.9151 6.80386 11.7841 7.0629 11.677 7.33487C11.651 7.40286 11.625 7.47183 11.6021 7.5419C11.578 7.61185 11.556 7.68192 11.5361 7.75186C11.4951 7.89285 11.4621 8.03482 11.4351 8.17886C11.382 8.46487 11.3551 8.75491 11.3551 9.05093C11.3528 18.4676 11.3519 27.8855 11.3499 37.3025C11.35 37.596 11.371 37.8859 11.414 38.1719C11.436 38.315 11.462 38.4569 11.4949 38.5989C11.511 38.67 11.5289 38.7399 11.548 38.81C11.567 38.8809 11.588 38.951 11.61 39.0209C11.699 39.299 11.809 39.5679 11.9429 39.825C11.977 39.8899 12.0119 39.9539 12.048 40.017C12.084 40.08 12.1219 40.142 12.162 40.2029C12.241 40.324 12.324 40.4419 12.4129 40.554C12.502 40.6669 12.597 40.7759 12.6969 40.8799C12.7469 40.9309 12.798 40.982 12.852 41.0319C12.905 41.081 12.959 41.1299 13.0139 41.1759C13.2359 41.361 13.4729 41.5209 13.727 41.6549C13.7899 41.6879 13.8549 41.72 13.92 41.7499C13.9859 41.7799 14.0529 41.8079 14.1199 41.835C14.254 41.887 14.3909 41.9319 14.5289 41.97C14.8049 42.045 15.087 42.091 15.377 42.106C23.2194 42.5331 31.1934 42.5331 39.0353 42.1061C39.3265 42.0901 39.6095 42.0442 39.8855 41.9701C40.0235 41.9322 40.1595 41.8871 40.2935 41.8351C40.3605 41.8081 40.4276 41.7802 40.4935 41.7502C40.5595 41.7191 40.6245 41.6872 40.6875 41.6532C40.9435 41.5192 41.1805 41.3592 41.3995 41.1742C41.5105 41.0822 41.6155 40.9832 41.7175 40.8792C41.7665 40.8272 41.8165 40.7732 41.8635 40.7182C41.9115 40.6642 41.9576 40.6082 42.0025 40.5522C42.1805 40.3262 42.3355 40.0851 42.4685 39.8302C42.5345 39.7022 42.5965 39.5712 42.6516 39.4362C42.6795 39.3692 42.7065 39.3012 42.7305 39.2322C42.7565 39.1642 42.7795 39.0951 42.8026 39.0252C42.8895 38.7482 42.9545 38.4651 42.9985 38.1781C43.0096 38.1061 43.0175 38.0331 43.0266 37.9612C43.0345 37.8882 43.0415 37.8152 43.0465 37.7422C43.0575 37.5962 43.0625 37.4491 43.0625 37.3031C43.0609 27.8859 43.0598 18.4679 43.059 9.05045C43.058 8.75552 43.032 8.46255 42.977 8.17252C42.95 8.0275 42.9149 7.88455 42.8749 7.74454C42.834 7.60452 42.7879 7.46646 42.735 7.33145C42.6809 7.19547 42.6219 7.06253 42.5549 6.93253C42.5219 6.86746 42.4879 6.80252 42.451 6.73856C42.4139 6.67545 42.3759 6.61246 42.3369 6.55045C42.1799 6.30545 41.9999 6.07755 41.799 5.86856C41.7489 5.81656 41.6979 5.76553 41.645 5.71548C41.5909 5.66556 41.5379 5.61649 41.481 5.56949C41.3699 5.47452 41.2539 5.38651 41.136 5.30447C40.8979 5.14151 40.6459 5.00247 40.3789 4.88846C40.313 4.8605 40.2449 4.83353 40.1759 4.80753C40.1079 4.7825 40.0389 4.75845 39.9699 4.73746C39.8309 4.69449 39.692 4.6575 39.5509 4.62845C39.269 4.57046 38.9829 4.53848 38.6898 4.53482Z" stroke="#FF00FF" stroke-width="0.283465" stroke-miterlimit="10" stroke-linecap="round" stroke-linejoin="round"/>
<path fill-rule="evenodd" clip-rule="evenodd" d="M34.1109 10.8078C34.0332 10.4235 33.6586 10.1749 33.2742 10.2526C32.8899 10.3303 32.6413 10.7049 32.719 11.0893L32.9568 12.2654C32.9726 12.3432 32.9205 12.4185 32.8422 12.4313L31.2584 12.6901C30.8714 12.7533 30.609 13.1183 30.6722 13.5053C30.7355 13.8923 31.1005 14.1548 31.4875 14.0915L33.1342 13.8224C33.2085 13.8103 33.2791 13.859 33.294 13.9328L34.2192 18.5084C34.2969 18.8927 34.6715 19.1413 35.0558 19.0636C35.4401 18.9858 35.6887 18.6113 35.611 18.2269L34.6985 13.7139C34.6827 13.6361 34.7348 13.5608 34.8131 13.548L37.5757 13.0966C37.6836 13.0789 37.7674 13.1857 37.7163 13.2823C37.4378 13.8094 36.9306 14.3524 36.2167 14.8529C35.8956 15.078 35.8178 15.5208 36.0429 15.8418C36.268 16.1629 36.7108 16.2407 37.0319 16.0156C38.1273 15.2476 39.034 14.2364 39.3055 13.065C39.413 12.6012 39.2367 12.1774 38.9325 11.9115C38.642 11.6576 38.2438 11.5485 37.8545 11.6122L34.5211 12.1569C34.4468 12.169 34.3762 12.1203 34.3613 12.0465L34.1109 10.8078Z" fill="black"/>
<path fill-rule="evenodd" clip-rule="evenodd" d="M33.7152 27.688C33.6375 27.3036 33.2629 27.055 32.8786 27.1328C32.4942 27.2105 32.2457 27.585 32.3234 27.9694L32.632 29.4956C32.6477 29.5733 32.5958 29.6485 32.5176 29.6614L30.2893 30.0303C29.9025 30.0944 29.6408 30.4599 29.7048 30.8468C29.7689 31.2336 30.1344 31.4953 30.5213 31.4313L32.809 31.0525C32.8834 31.0402 32.9542 31.089 32.9691 31.1629L34.217 37.3345C34.2947 37.7188 34.6693 37.9674 35.0536 37.8897C35.4379 37.8119 35.6865 37.4374 35.6088 37.053L34.3729 30.9406C34.3572 30.8629 34.409 30.7877 34.4872 30.7747L38.6458 30.0863C38.7431 30.0702 38.8258 30.1569 38.7977 30.2514C38.5517 31.0815 37.8413 31.9634 36.2373 32.9946C35.9075 33.2066 35.812 33.6459 36.024 33.9757C36.236 34.3056 36.6753 34.4011 37.0052 34.189C39.0207 32.8933 40.1 31.5797 40.2943 30.0066C40.4122 29.0518 39.5226 28.5018 38.7862 28.6237L34.1958 29.3836C34.1215 29.3959 34.0507 29.3471 34.0357 29.2733L33.7152 27.688Z" fill="black"/>
<path d="M18.3737 15.3092L18.2621 13.4675C18.2311 13.0458 18.5349 12.6985 18.9938 12.6985C19.4465 12.6985 19.7441 13.052 19.7193 13.4675L19.6077 15.3092C19.5829 15.6627 19.3225 15.9604 18.9876 15.9604C18.6527 15.9604 18.3923 15.6627 18.3737 15.3092Z" fill="black"/>
<path d="M17.1655 36.0439C17.1655 35.8739 17.2255 35.7139 17.3155 35.5339L20.1455 29.8039C20.1955 29.7139 20.1255 29.6039 20.0155 29.6039H16.7455C16.2255 29.6039 15.9355 29.3339 15.9355 28.9239C15.9355 28.5139 16.2255 28.2339 16.7455 28.2339H21.0855C21.5855 28.2339 21.9455 28.5639 21.9455 29.0739C21.9455 29.3939 21.8355 29.7539 21.6055 30.2139L18.6855 36.2639C18.5055 36.6139 18.2855 36.7939 17.9355 36.7939C17.4955 36.7939 17.1555 36.4939 17.1555 36.0439H17.1655Z" fill="black"/>
</svg>
