<svg width="54" height="54" viewBox="0 0 54 54" fill="none" xmlns="http://www.w3.org/2000/svg">
<rect x="1.8501" y="1.8501" width="50.3" height="50.3" rx="3" stroke="#8B1EFF" stroke-width="0.28"/>
<path d="M10.2065 37.1479V7.2959C10.2125 6.94397 10.252 6.59094 10.325 6.24585C10.397 5.90088 10.503 5.56384 10.6411 5.23901C10.9141 4.59497 11.3131 4.00098 11.8071 3.50171C12.2961 3.00769 12.8791 2.60559 13.5145 2.32971C13.8315 2.19177 14.1605 2.08582 14.4979 2.01257C14.8349 1.93958 15.1779 1.90051 15.5214 1.89661C19.4174 1.8656 23.3134 1.85059 27.2079 1.85059C31.1049 1.85059 34.9999 1.8656 38.8963 1.89673C39.2393 1.90076 39.5833 1.9397 39.9208 2.01318C40.2568 2.08618 40.5868 2.19312 40.903 2.33008C41.221 2.46802 41.525 2.63708 41.8108 2.8335C42.0978 3.03052 42.3658 3.25452 42.6108 3.50159C42.8578 3.75061 43.0808 4.02161 43.2748 4.31238C43.4708 4.60437 43.6398 4.91431 43.7772 5.23816C43.9142 5.56311 44.0212 5.90112 44.0934 6.24597C44.1664 6.59094 44.2054 6.94397 44.2104 7.29602C44.2104 7.29602 44.2104 37.1479 44.2101 37.1484C44.1891 37.8424 44.0511 38.5385 43.8027 39.1934C43.5557 39.8484 43.1977 40.4624 42.7389 40.9862C42.5089 41.2483 42.2549 41.4873 41.9799 41.7C41.7069 41.912 41.4139 42.0969 41.1049 42.2539C40.7979 42.4099 40.4769 42.5369 40.1451 42.6315C39.8161 42.7264 39.4771 42.7896 39.1357 42.8154C31.1907 43.2485 23.2267 43.2485 15.2819 42.8154C14.6009 42.7625 13.9259 42.5664 13.3131 42.2549C12.6931 41.9398 12.1351 41.5068 11.6787 40.9869C11.2197 40.4619 10.8627 39.8479 10.6155 39.193C10.3675 38.538 10.2285 37.843 10.2065 37.1479Z" stroke="#8B1EFF" stroke-width="0.283" stroke-miterlimit="10"/>
<rect x="12.8887" y="5.47168" width="28.63" height="34.35" rx="1.46" stroke="#00FFFF" stroke-width="0.28"/>
<path d="M38.6898 3.58646C31.0758 3.48746 23.3388 3.48746 15.7238 3.58646C15.4321 3.59048 15.1431 3.62149 14.858 3.68155C14.787 3.69656 14.7151 3.71255 14.6451 3.73148C14.5751 3.74954 14.5051 3.76956 14.4361 3.79153C14.298 3.83548 14.162 3.88455 14.0311 3.94156C13.8981 3.99857 13.7681 4.06155 13.6421 4.1315C13.578 4.16653 13.515 4.20352 13.453 4.24149C13.3911 4.27957 13.33 4.31949 13.2701 4.36148C13.0321 4.52652 12.8121 4.71451 12.6111 4.92349C12.5101 5.0275 12.4151 5.13748 12.3251 5.25357C12.2791 5.31058 12.2361 5.36954 12.1931 5.42947C12.151 5.48856 12.1111 5.54849 12.0721 5.6105C11.9151 5.8555 11.7841 6.11453 11.677 6.38651C11.651 6.4545 11.625 6.52347 11.6021 6.59354C11.578 6.66348 11.556 6.73355 11.5361 6.8035C11.4951 6.94449 11.4621 7.08646 11.4351 7.2305C11.382 7.51651 11.3551 7.80655 11.3551 8.10257C11.3528 17.5192 11.3519 26.9372 11.3499 36.3542C11.35 36.6476 11.371 36.9375 11.414 37.2235C11.436 37.3666 11.462 37.5086 11.4949 37.6505C11.511 37.7216 11.5289 37.7915 11.548 37.8616C11.567 37.9325 11.588 38.0026 11.61 38.0725C11.699 38.3506 11.809 38.6195 11.9429 38.8766C11.977 38.9416 12.0119 39.0055 12.048 39.0686C12.084 39.1316 12.1219 39.1936 12.162 39.2545C12.241 39.3756 12.324 39.4936 12.4129 39.6056C12.502 39.7185 12.597 39.8275 12.6969 39.9315C12.7469 39.9826 12.798 40.0336 12.852 40.0835C12.905 40.1326 12.959 40.1815 13.0139 40.2276C13.2359 40.4126 13.4729 40.5725 13.727 40.7066C13.7899 40.7395 13.8549 40.7716 13.92 40.8015C13.9859 40.8316 14.0529 40.8595 14.1199 40.8866C14.254 40.9386 14.3909 40.9836 14.5289 41.0216C14.8049 41.0966 15.087 41.1426 15.377 41.1576C23.2194 41.5847 31.1934 41.5847 39.0353 41.1577C39.3265 41.1418 39.6095 41.0959 39.8855 41.0218C40.0235 40.9838 40.1595 40.9388 40.2935 40.8867C40.3605 40.8598 40.4276 40.8318 40.4935 40.8018C40.5595 40.7708 40.6245 40.7388 40.6875 40.7049C40.9435 40.5708 41.1805 40.4108 41.3995 40.2259C41.5105 40.1338 41.6155 40.0348 41.7175 39.9308C41.7665 39.8788 41.8165 39.8249 41.8635 39.7698C41.9115 39.7159 41.9576 39.6598 42.0025 39.6038C42.1805 39.3778 42.3355 39.1367 42.4685 38.8819C42.5345 38.7538 42.5965 38.6228 42.6516 38.4878C42.6795 38.4208 42.7065 38.3528 42.7305 38.2838C42.7565 38.2159 42.7795 38.1468 42.8026 38.0768C42.8895 37.7998 42.9545 37.5168 42.9985 37.2298C43.0096 37.1577 43.0175 37.0847 43.0266 37.0128C43.0345 36.9398 43.0415 36.8669 43.0465 36.7939C43.0575 36.6479 43.0625 36.5008 43.0625 36.3548C43.0609 26.9375 43.0598 17.5196 43.059 8.10208C43.058 7.80716 43.032 7.51419 42.977 7.22415C42.95 7.07913 42.9149 6.93619 42.8749 6.79617C42.834 6.65616 42.7879 6.5181 42.735 6.38309C42.6809 6.2471 42.6219 6.11417 42.5549 5.98416C42.5219 5.9191 42.4879 5.85416 42.451 5.79019C42.4139 5.72708 42.3759 5.66409 42.3369 5.60208C42.1799 5.35709 41.9999 5.12918 41.799 4.9202C41.7489 4.86819 41.6979 4.81717 41.645 4.76712C41.5909 4.71719 41.5379 4.66812 41.481 4.62112C41.3699 4.52615 41.2539 4.43814 41.136 4.35611C40.8979 4.19315 40.6459 4.05411 40.3789 3.94009C40.313 3.91214 40.2449 3.88516 40.1759 3.85916C40.1079 3.83414 40.0389 3.81009 39.9699 3.78909C39.8309 3.74612 39.692 3.70914 39.5509 3.68008C39.269 3.6221 38.9829 3.59012 38.6898 3.58646Z" stroke="#FF00FF" stroke-width="0.283465" stroke-miterlimit="10" stroke-linecap="round" stroke-linejoin="round"/>
<path fill-rule="evenodd" clip-rule="evenodd" d="M34.1109 9.85946C34.0332 9.47512 33.6586 9.22655 33.2742 9.30426C32.8899 9.38197 32.6413 9.75655 32.719 10.1409L32.9568 11.317C32.9726 11.3948 32.9205 11.4701 32.8422 11.4829L31.2584 11.7417C30.8714 11.805 30.609 12.17 30.6722 12.557C30.7355 12.9439 31.1005 13.2064 31.4875 13.1431L33.1342 12.874C33.2085 12.8619 33.2791 12.9107 33.294 12.9845L34.2192 17.56C34.2969 17.9443 34.6715 18.1929 35.0558 18.1152C35.4401 18.0375 35.6887 17.6629 35.611 17.2786L34.6985 12.7656C34.6827 12.6878 34.7348 12.6125 34.8131 12.5997L37.5757 12.1482C37.6836 12.1306 37.7674 12.2373 37.7163 12.334C37.4378 12.861 36.9306 13.4041 36.2167 13.9045C35.8956 14.1296 35.8178 14.5724 36.0429 14.8935C36.268 15.2146 36.7108 15.2924 37.0319 15.0673C38.1273 14.2993 39.034 13.288 39.3055 12.1167C39.413 11.6529 39.2367 11.2291 38.9325 10.9631C38.642 10.7092 38.2438 10.6002 37.8545 10.6638L34.5211 11.2085C34.4468 11.2207 34.3762 11.1719 34.3613 11.0981L34.1109 9.85946Z" fill="black"/>
<path fill-rule="evenodd" clip-rule="evenodd" d="M33.7151 26.7393C33.6374 26.355 33.2628 26.1064 32.8785 26.1841C32.4941 26.2619 32.2455 26.6364 32.3233 27.0208L32.6318 28.547C32.6476 28.6247 32.5957 28.6999 32.5175 28.7128L30.2892 29.0817C29.9024 29.1458 29.6407 29.5113 29.7047 29.8981C29.7688 30.285 30.1343 30.5467 30.5211 30.4827L32.8089 30.1039C32.8833 30.0916 32.954 30.1404 32.969 30.2143L34.2169 36.3858C34.2946 36.7702 34.6691 37.0188 35.0535 36.941C35.4378 36.8633 35.6864 36.4888 35.6087 36.1044L34.3728 29.992C34.357 29.9143 34.4089 29.839 34.4871 29.8261L38.6457 29.1377C38.743 29.1216 38.8256 29.2083 38.7976 29.3028C38.5516 30.1329 37.8412 31.0148 36.2372 32.0459C35.9073 32.258 35.8118 32.6973 36.0239 33.0271C36.2359 33.357 36.6752 33.4525 37.0051 33.2404C39.0206 31.9447 40.0999 30.6311 40.2942 29.058C40.4121 28.1032 39.5225 27.5532 38.7861 27.6751L34.1957 28.435C34.1213 28.4473 34.0506 28.3985 34.0356 28.3246L33.7151 26.7393Z" fill="black"/>
<path d="M18.3736 14.3607L18.2619 12.5189C18.2309 12.0973 18.5348 11.75 18.9937 11.75C19.4464 11.75 19.744 12.1035 19.7192 12.5189L19.6076 14.3607C19.5828 14.7142 19.3223 15.0118 18.9875 15.0118C18.6526 15.0118 18.3922 14.7142 18.3736 14.3607Z" fill="black"/>
<path d="M17.1655 35.0954C17.1655 34.9254 17.2255 34.7654 17.3155 34.5854L20.1455 28.8554C20.1955 28.7654 20.1255 28.6554 20.0155 28.6554H16.7455C16.2255 28.6554 15.9355 28.3854 15.9355 27.9754C15.9355 27.5654 16.2255 27.2854 16.7455 27.2854H21.0855C21.5855 27.2854 21.9455 27.6154 21.9455 28.1254C21.9455 28.4454 21.8355 28.8054 21.6055 29.2654L18.6855 35.3154C18.5055 35.6654 18.2855 35.8454 17.9355 35.8454C17.4955 35.8454 17.1555 35.5454 17.1555 35.0954H17.1655Z" fill="black"/>
</svg>
