<svg width="54" height="55" viewBox="0 0 54 55" fill="none" xmlns="http://www.w3.org/2000/svg">
<rect x="1.8501" y="2.7984" width="50.3" height="50.3" rx="3" stroke="#8B1EFF" stroke-width="0.28"/>
<path d="M10.2065 38.0963V8.24426C10.2125 7.89233 10.252 7.53931 10.325 7.19421C10.397 6.84924 10.503 6.51221 10.6411 6.18738C10.9141 5.54333 11.3131 4.94934 11.8071 4.45007C12.2961 3.95605 12.8791 3.55396 13.5145 3.27808C13.8315 3.14014 14.1605 3.03418 14.4979 2.96094C14.8349 2.88794 15.1779 2.84888 15.5214 2.84497C19.4174 2.81396 23.3134 2.79895 27.2079 2.79895C31.1049 2.79895 34.9999 2.81396 38.8963 2.84509C39.2393 2.84912 39.5833 2.88806 39.9208 2.96155C40.2568 3.03455 40.5868 3.14148 40.903 3.27844C41.221 3.41638 41.525 3.58545 41.8108 3.78186C42.0978 3.97888 42.3658 4.20288 42.6108 4.44995C42.8578 4.69897 43.0808 4.96997 43.2748 5.26074C43.4708 5.55273 43.6398 5.86267 43.7772 6.18652C43.9142 6.51147 44.0212 6.84949 44.0934 7.19434C44.1664 7.53931 44.2054 7.89233 44.2104 8.24438C44.2104 8.24438 44.2104 38.0963 44.2101 38.0968C44.1891 38.7908 44.0511 39.4868 43.8027 40.1417C43.5557 40.7968 43.1977 41.4108 42.7389 41.9346C42.5089 42.1967 42.2549 42.4357 41.9799 42.6483C41.7069 42.8604 41.4139 43.0453 41.1049 43.2023C40.7979 43.3583 40.4769 43.4852 40.1451 43.5798C39.8161 43.6748 39.4771 43.7379 39.1357 43.7638C31.1907 44.1969 23.2267 44.1969 15.2819 43.7638C14.6009 43.7108 13.9259 43.5148 13.3131 43.2032C12.6931 42.8882 12.1351 42.4552 11.6787 41.9353C11.2197 41.4103 10.8627 40.7963 10.6155 40.1414C10.3675 39.4863 10.2285 38.7914 10.2065 38.0963Z" stroke="#8B1EFF" stroke-width="0.283" stroke-miterlimit="10"/>
<rect x="12.8887" y="6.4201" width="28.63" height="34.35" rx="1.46" stroke="#00FFFF" stroke-width="0.28"/>
<path d="M38.6898 4.53482C31.0758 4.43582 23.3388 4.43582 15.7238 4.53482C15.4321 4.53885 15.1431 4.56985 14.858 4.62991C14.787 4.64493 14.7151 4.66092 14.6451 4.67984C14.5751 4.69791 14.5051 4.71793 14.4361 4.7399C14.298 4.78384 14.162 4.83292 14.0311 4.88992C13.8981 4.94693 13.7681 5.00992 13.6421 5.07986C13.578 5.1149 13.515 5.15189 13.453 5.18985C13.3911 5.22794 13.33 5.26785 13.2701 5.30984C13.0321 5.47488 12.8121 5.66287 12.6111 5.87186C12.5101 5.97586 12.4151 6.08585 12.3251 6.20193C12.2791 6.25894 12.2361 6.3179 12.1931 6.37784C12.151 6.43692 12.1111 6.49686 12.0721 6.55887C11.9151 6.80386 11.7841 7.0629 11.677 7.33487C11.651 7.40286 11.625 7.47183 11.6021 7.5419C11.578 7.61185 11.556 7.68192 11.5361 7.75186C11.4951 7.89285 11.4621 8.03482 11.4351 8.17886C11.382 8.46487 11.3551 8.75491 11.3551 9.05093C11.3528 18.4676 11.3519 27.8855 11.3499 37.3025C11.35 37.596 11.371 37.8859 11.414 38.1719C11.436 38.315 11.462 38.4569 11.4949 38.5989C11.511 38.67 11.5289 38.7399 11.548 38.81C11.567 38.8809 11.588 38.951 11.61 39.0209C11.699 39.299 11.809 39.5679 11.9429 39.825C11.977 39.8899 12.0119 39.9539 12.048 40.017C12.084 40.08 12.1219 40.142 12.162 40.2029C12.241 40.324 12.324 40.4419 12.4129 40.554C12.502 40.6669 12.597 40.7759 12.6969 40.8799C12.7469 40.9309 12.798 40.982 12.852 41.0319C12.905 41.081 12.959 41.1299 13.0139 41.1759C13.2359 41.361 13.4729 41.5209 13.727 41.6549C13.7899 41.6879 13.8549 41.72 13.92 41.7499C13.9859 41.7799 14.0529 41.8079 14.1199 41.835C14.254 41.887 14.3909 41.9319 14.5289 41.97C14.8049 42.045 15.087 42.091 15.377 42.106C23.2194 42.5331 31.1934 42.5331 39.0353 42.1061C39.3265 42.0901 39.6095 42.0442 39.8855 41.9701C40.0235 41.9322 40.1595 41.8871 40.2935 41.8351C40.3605 41.8081 40.4276 41.7802 40.4935 41.7502C40.5595 41.7191 40.6245 41.6872 40.6875 41.6532C40.9435 41.5192 41.1805 41.3592 41.3995 41.1742C41.5105 41.0822 41.6155 40.9832 41.7175 40.8792C41.7665 40.8272 41.8165 40.7732 41.8635 40.7182C41.9115 40.6642 41.9576 40.6082 42.0025 40.5522C42.1805 40.3262 42.3355 40.0851 42.4685 39.8302C42.5345 39.7022 42.5965 39.5712 42.6516 39.4362C42.6795 39.3692 42.7065 39.3012 42.7305 39.2322C42.7565 39.1642 42.7795 39.0951 42.8026 39.0252C42.8895 38.7482 42.9545 38.4651 42.9985 38.1781C43.0096 38.1061 43.0175 38.0331 43.0266 37.9612C43.0345 37.8882 43.0415 37.8152 43.0465 37.7422C43.0575 37.5962 43.0625 37.4491 43.0625 37.3031C43.0609 27.8859 43.0598 18.4679 43.059 9.05045C43.058 8.75552 43.032 8.46255 42.977 8.17252C42.95 8.0275 42.9149 7.88455 42.8749 7.74454C42.834 7.60452 42.7879 7.46646 42.735 7.33145C42.6809 7.19547 42.6219 7.06253 42.5549 6.93253C42.5219 6.86746 42.4879 6.80252 42.451 6.73856C42.4139 6.67545 42.3759 6.61246 42.3369 6.55045C42.1799 6.30545 41.9999 6.07755 41.799 5.86856C41.7489 5.81656 41.6979 5.76553 41.645 5.71548C41.5909 5.66556 41.5379 5.61649 41.481 5.56949C41.3699 5.47452 41.2539 5.38651 41.136 5.30447C40.8979 5.14151 40.6459 5.00247 40.3789 4.88846C40.313 4.8605 40.2449 4.83353 40.1759 4.80753C40.1079 4.7825 40.0389 4.75845 39.9699 4.73746C39.8309 4.69449 39.692 4.6575 39.5509 4.62845C39.269 4.57046 38.9829 4.53848 38.6898 4.53482Z" stroke="#FF00FF" stroke-width="0.283465" stroke-miterlimit="10" stroke-linecap="round" stroke-linejoin="round"/>
<path fill-rule="evenodd" clip-rule="evenodd" d="M37.5674 13.0777C37.5741 12.5253 37.1261 12.0849 36.5846 12.0855L32.2921 12.0904C31.9 12.0909 31.5824 12.4091 31.5829 12.8012C31.5833 13.1933 31.9016 13.5109 32.2937 13.5104L35.9928 13.5062C36.0719 13.5061 36.1355 13.5717 36.1324 13.6508C36.0867 14.8379 35.9541 15.9007 35.8244 16.701C35.7715 17.0277 35.7191 17.3098 35.6737 17.5376C35.6607 17.6027 35.6034 17.6494 35.5369 17.6494H31.3711C30.979 17.6494 30.6611 17.9673 30.6611 18.3594C30.6611 18.7515 30.979 19.0694 31.3711 19.0694H38.6317C39.0238 19.0694 39.3417 18.7515 39.3417 18.3594C39.3417 17.9673 39.0238 17.6494 38.6317 17.6494H37.2681C37.1802 17.6494 37.1141 17.5694 37.1301 17.483C37.1611 17.315 37.1935 17.1294 37.2261 16.9282C37.3849 15.9484 37.5488 14.5898 37.5674 13.0777Z" fill="black"/>
<path fill-rule="evenodd" clip-rule="evenodd" d="M37.6138 35.3297C37.5254 35.3297 37.4592 35.2488 37.476 35.1621C37.5306 34.881 37.5908 34.5497 37.6513 34.1758C37.8535 32.9285 38.062 31.1996 38.0856 29.2765C38.0929 28.6818 37.6105 28.207 37.0266 28.2077L31.5321 28.214C31.14 28.2144 30.8225 28.5327 30.823 28.9248C30.8234 29.3169 31.1416 29.6344 31.5338 29.634L36.5151 29.6283C36.5938 29.6282 36.6572 29.6931 36.6548 29.7718C36.6057 31.4014 36.4256 32.863 36.2496 33.9486C36.1657 34.4666 36.083 34.8976 36.0164 35.2188C36.003 35.2835 35.9458 35.3297 35.8797 35.3297H30.3531C29.9609 35.3297 29.6431 35.6475 29.6431 36.0397C29.6431 36.4318 29.9609 36.7497 30.3531 36.7497H39.6468C40.0389 36.7497 40.3568 36.4318 40.3568 36.0397C40.3568 35.6475 40.0389 35.3297 39.6468 35.3297H37.6138Z" fill="black"/>
<path d="M19.3412 20.2674C19.0187 19.852 17.8467 18.1901 17.8467 15.1391C17.8467 12.1935 19.0187 10.5316 19.3412 10.1161C19.5954 9.79366 19.8249 9.70685 20.0233 9.70685C20.3954 9.70685 20.6496 9.95489 20.6496 10.2898C20.6496 10.4882 20.5814 10.6494 20.5008 10.8293C20.1039 11.685 19.5086 13.0989 19.5086 15.1391C19.5086 17.2847 20.1039 18.6985 20.5008 19.5543C20.5814 19.7341 20.6496 19.8954 20.6496 20.0938C20.6496 20.4287 20.3954 20.6767 20.0233 20.6767C19.8249 20.6767 19.5954 20.5899 19.3412 20.2674Z" fill="black"/>
<path d="M18.9841 36.8727C17.0341 36.8727 15.7241 35.8827 15.7241 34.3927C15.7241 33.4727 16.2641 32.6727 17.1141 32.3527C17.2241 32.3127 17.2341 32.1527 17.1241 32.0927C16.4441 31.7427 16.0541 31.0927 16.0541 30.3127C16.0641 28.9927 17.2741 28.0727 19.0041 28.0727C20.7341 28.0727 21.9441 28.9927 21.9441 30.3127C21.9441 31.0827 21.5441 31.7427 20.8641 32.0927C20.7541 32.1527 20.7641 32.3027 20.8741 32.3527C21.7241 32.6827 22.2741 33.4827 22.2741 34.3927C22.2741 35.8727 20.9441 36.8827 18.9841 36.8827V36.8727ZM19.0041 31.7127C19.7841 31.7127 20.3441 31.2027 20.3441 30.4927C20.3441 29.7827 19.7841 29.2927 19.0041 29.2927C18.2241 29.2927 17.6641 29.7927 17.6641 30.4927C17.6641 31.1927 18.2241 31.7127 19.0041 31.7127ZM19.0041 35.6727C19.9441 35.6727 20.6141 35.0827 20.6141 34.2827C20.6141 33.4827 19.9341 32.8827 19.0041 32.8827C18.0741 32.8827 17.3941 33.4727 17.3941 34.2827C17.3941 35.0927 18.0641 35.6727 19.0041 35.6727Z" fill="black"/>
</svg>
