<svg width="54" height="55" viewBox="0 0 54 55" fill="none" xmlns="http://www.w3.org/2000/svg">
<rect x="1.8501" y="2.7984" width="50.3" height="50.3" rx="3" stroke="#8B1EFF" stroke-width="0.28"/>
<path d="M10.2065 38.0963V8.24426C10.2125 7.89233 10.252 7.53931 10.325 7.19421C10.397 6.84924 10.503 6.51221 10.6411 6.18738C10.9141 5.54333 11.3131 4.94934 11.8071 4.45007C12.2961 3.95605 12.8791 3.55396 13.5145 3.27808C13.8315 3.14014 14.1605 3.03418 14.4979 2.96094C14.8349 2.88794 15.1779 2.84888 15.5214 2.84497C19.4174 2.81396 23.3134 2.79895 27.2079 2.79895C31.1049 2.79895 34.9999 2.81396 38.8963 2.84509C39.2393 2.84912 39.5833 2.88806 39.9208 2.96155C40.2568 3.03455 40.5868 3.14148 40.903 3.27844C41.221 3.41638 41.525 3.58545 41.8108 3.78186C42.0978 3.97888 42.3658 4.20288 42.6108 4.44995C42.8578 4.69897 43.0808 4.96997 43.2748 5.26074C43.4708 5.55273 43.6398 5.86267 43.7772 6.18652C43.9142 6.51147 44.0212 6.84949 44.0934 7.19434C44.1664 7.53931 44.2054 7.89233 44.2104 8.24438C44.2104 8.24438 44.2104 38.0963 44.2101 38.0968C44.1891 38.7908 44.0511 39.4868 43.8027 40.1417C43.5557 40.7968 43.1977 41.4108 42.7389 41.9346C42.5089 42.1967 42.2549 42.4357 41.9799 42.6483C41.7069 42.8604 41.4139 43.0453 41.1049 43.2023C40.7979 43.3583 40.4769 43.4852 40.1451 43.5798C39.8161 43.6748 39.4771 43.7379 39.1357 43.7638C31.1907 44.1969 23.2267 44.1969 15.2819 43.7638C14.6009 43.7108 13.9259 43.5148 13.3131 43.2032C12.6931 42.8882 12.1351 42.4552 11.6787 41.9353C11.2197 41.4103 10.8627 40.7963 10.6155 40.1414C10.3675 39.4863 10.2285 38.7914 10.2065 38.0963Z" stroke="#8B1EFF" stroke-width="0.283" stroke-miterlimit="10"/>
<rect x="12.8887" y="6.4201" width="28.63" height="34.35" rx="1.46" stroke="#00FFFF" stroke-width="0.28"/>
<path d="M38.6898 4.53482C31.0758 4.43582 23.3388 4.43582 15.7238 4.53482C15.4321 4.53885 15.1431 4.56985 14.858 4.62991C14.787 4.64493 14.7151 4.66092 14.6451 4.67984C14.5751 4.69791 14.5051 4.71793 14.4361 4.7399C14.298 4.78384 14.162 4.83292 14.0311 4.88992C13.8981 4.94693 13.7681 5.00992 13.6421 5.07986C13.578 5.1149 13.515 5.15189 13.453 5.18985C13.3911 5.22794 13.33 5.26785 13.2701 5.30984C13.0321 5.47488 12.8121 5.66287 12.6111 5.87186C12.5101 5.97586 12.4151 6.08585 12.3251 6.20193C12.2791 6.25894 12.2361 6.3179 12.1931 6.37784C12.151 6.43692 12.1111 6.49686 12.0721 6.55887C11.9151 6.80386 11.7841 7.0629 11.677 7.33487C11.651 7.40286 11.625 7.47183 11.6021 7.5419C11.578 7.61185 11.556 7.68192 11.5361 7.75186C11.4951 7.89285 11.4621 8.03482 11.4351 8.17886C11.382 8.46487 11.3551 8.75491 11.3551 9.05093C11.3528 18.4676 11.3519 27.8855 11.3499 37.3025C11.35 37.596 11.371 37.8859 11.414 38.1719C11.436 38.315 11.462 38.4569 11.4949 38.5989C11.511 38.67 11.5289 38.7399 11.548 38.81C11.567 38.8809 11.588 38.951 11.61 39.0209C11.699 39.299 11.809 39.5679 11.9429 39.825C11.977 39.8899 12.0119 39.9539 12.048 40.017C12.084 40.08 12.1219 40.142 12.162 40.2029C12.241 40.324 12.324 40.4419 12.4129 40.554C12.502 40.6669 12.597 40.7759 12.6969 40.8799C12.7469 40.9309 12.798 40.982 12.852 41.0319C12.905 41.081 12.959 41.1299 13.0139 41.1759C13.2359 41.361 13.4729 41.5209 13.727 41.6549C13.7899 41.6879 13.8549 41.72 13.92 41.7499C13.9859 41.7799 14.0529 41.8079 14.1199 41.835C14.254 41.887 14.3909 41.9319 14.5289 41.97C14.8049 42.045 15.087 42.091 15.377 42.106C23.2194 42.5331 31.1934 42.5331 39.0353 42.1061C39.3265 42.0901 39.6095 42.0442 39.8855 41.9701C40.0235 41.9322 40.1595 41.8871 40.2935 41.8351C40.3605 41.8081 40.4276 41.7802 40.4935 41.7502C40.5595 41.7191 40.6245 41.6872 40.6875 41.6532C40.9435 41.5192 41.1805 41.3592 41.3995 41.1742C41.5105 41.0822 41.6155 40.9832 41.7175 40.8792C41.7665 40.8272 41.8165 40.7732 41.8635 40.7182C41.9115 40.6642 41.9576 40.6082 42.0025 40.5522C42.1805 40.3262 42.3355 40.0851 42.4685 39.8302C42.5345 39.7022 42.5965 39.5712 42.6516 39.4362C42.6795 39.3692 42.7065 39.3012 42.7305 39.2322C42.7565 39.1642 42.7795 39.0951 42.8026 39.0252C42.8895 38.7482 42.9545 38.4651 42.9985 38.1781C43.0096 38.1061 43.0175 38.0331 43.0266 37.9612C43.0345 37.8882 43.0415 37.8152 43.0465 37.7422C43.0575 37.5962 43.0625 37.4491 43.0625 37.3031C43.0609 27.8859 43.0598 18.4679 43.059 9.05045C43.058 8.75552 43.032 8.46255 42.977 8.17252C42.95 8.0275 42.9149 7.88455 42.8749 7.74454C42.834 7.60452 42.7879 7.46646 42.735 7.33145C42.6809 7.19547 42.6219 7.06253 42.5549 6.93253C42.5219 6.86746 42.4879 6.80252 42.451 6.73856C42.4139 6.67545 42.3759 6.61246 42.3369 6.55045C42.1799 6.30545 41.9999 6.07755 41.799 5.86856C41.7489 5.81656 41.6979 5.76553 41.645 5.71548C41.5909 5.66556 41.5379 5.61649 41.481 5.56949C41.3699 5.47452 41.2539 5.38651 41.136 5.30447C40.8979 5.14151 40.6459 5.00247 40.3789 4.88846C40.313 4.8605 40.2449 4.83353 40.1759 4.80753C40.1079 4.7825 40.0389 4.75845 39.9699 4.73746C39.8309 4.69449 39.692 4.6575 39.5509 4.62845C39.269 4.57046 38.9829 4.53848 38.6898 4.53482Z" stroke="#FF00FF" stroke-width="0.283465" stroke-miterlimit="10" stroke-linecap="round" stroke-linejoin="round"/>
<path d="M19.3412 20.2674C19.0187 19.852 17.8467 18.1901 17.8467 15.1391C17.8467 12.1935 19.0187 10.5316 19.3412 10.1161C19.5954 9.79366 19.8249 9.70685 20.0233 9.70685C20.3954 9.70685 20.6496 9.95489 20.6496 10.2898C20.6496 10.4882 20.5814 10.6494 20.5008 10.8293C20.1039 11.685 19.5086 13.0989 19.5086 15.1391C19.5086 17.2847 20.1039 18.6985 20.5008 19.5543C20.5814 19.7341 20.6496 19.8954 20.6496 20.0938C20.6496 20.4287 20.3954 20.6767 20.0233 20.6767C19.8249 20.6767 19.5954 20.5899 19.3412 20.2674Z" fill="black"/>
<path d="M18.9841 36.8727C17.0341 36.8727 15.7241 35.8827 15.7241 34.3927C15.7241 33.4727 16.2641 32.6727 17.1141 32.3527C17.2241 32.3127 17.2341 32.1527 17.1241 32.0927C16.4441 31.7427 16.0541 31.0927 16.0541 30.3127C16.0641 28.9927 17.2741 28.0727 19.0041 28.0727C20.7341 28.0727 21.9441 28.9927 21.9441 30.3127C21.9441 31.0827 21.5441 31.7427 20.8641 32.0927C20.7541 32.1527 20.7641 32.3027 20.8741 32.3527C21.7241 32.6827 22.2741 33.4827 22.2741 34.3927C22.2741 35.8727 20.9441 36.8827 18.9841 36.8827V36.8727ZM19.0041 31.7127C19.7841 31.7127 20.3441 31.2027 20.3441 30.4927C20.3441 29.7827 19.7841 29.2927 19.0041 29.2927C18.2241 29.2927 17.6641 29.7927 17.6641 30.4927C17.6641 31.1927 18.2241 31.7127 19.0041 31.7127ZM19.0041 35.6727C19.9441 35.6727 20.6141 35.0827 20.6141 34.2827C20.6141 33.4827 19.9341 32.8827 19.0041 32.8827C18.0741 32.8827 17.3941 33.4727 17.3941 34.2827C17.3941 35.0927 18.0641 35.6727 19.0041 35.6727Z" fill="black"/>
<path fill-rule="evenodd" clip-rule="evenodd" d="M36.3087 27.6787C36.2488 27.2912 35.8861 27.0256 35.4986 27.0855C35.1111 27.1453 34.8455 27.508 34.9054 27.8955C34.9422 28.1338 34.9811 28.3859 35.0197 28.6488C35.0304 28.7214 34.983 28.7896 34.9117 28.8071C33.5926 29.1306 32.4513 29.9322 31.5971 30.9997C31.5076 31.1114 31.3194 31.0414 31.3346 30.8991C31.4008 30.2777 31.5045 29.581 31.6581 28.7408C31.7286 28.3551 31.4731 27.9853 31.0874 27.9147C30.7017 27.8442 30.3318 28.0997 30.2613 28.4855C29.6915 31.602 29.7751 32.9162 29.9283 35.3227L29.9526 35.7068C29.9767 36.0895 30.3002 36.384 30.6835 36.372C31.0668 36.3599 31.3712 36.0458 31.3712 35.6623C31.3712 33.1566 32.9832 30.8699 35.0585 30.2411C35.1406 30.2162 35.2235 30.2739 35.2315 30.3594C35.3168 31.268 35.353 32.2204 35.2699 33.1271C35.2153 33.7227 35.112 34.2746 34.9476 34.7693C34.9233 34.8424 34.843 34.8803 34.772 34.8506C34.564 34.7637 34.408 34.6654 34.2898 34.5718C34.0186 34.3571 33.8924 34.1265 33.7992 33.9486C33.6171 33.6014 33.1879 33.4674 32.8407 33.6495C32.4934 33.8316 32.3594 34.2607 32.5415 34.608C32.6592 34.8324 32.8975 35.2806 33.4084 35.6851C33.584 35.8242 33.7856 35.9534 34.0172 36.0669C34.1024 36.1087 34.1279 36.2203 34.0614 36.2881C33.7908 36.5638 33.4691 36.7903 33.0894 36.9601C32.7315 37.1202 32.5711 37.5402 32.7312 37.8981C32.8913 38.2561 33.3113 38.4164 33.6693 38.2563C34.5692 37.8538 35.2171 37.2464 35.6783 36.5274C35.6871 36.5136 35.7028 36.5059 35.7191 36.5073C37.9758 36.7042 39.9715 35.1247 40.1643 32.7975C40.3418 30.6541 38.6662 28.8998 36.5693 28.6776C36.5041 28.6707 36.4509 28.6212 36.4415 28.5564C36.3986 28.2605 36.3556 27.9821 36.316 27.726L36.3087 27.6787ZM36.816 30.1571C36.7259 30.1347 36.6439 30.2101 36.6523 30.3025C36.7382 31.2546 36.774 32.2737 36.684 33.2566C36.6337 33.8058 36.5421 34.3604 36.3918 34.8955C36.365 34.991 36.441 35.0853 36.539 35.0699C37.7248 34.8838 38.6439 33.9508 38.7491 32.6803C38.8445 31.5282 38.0219 30.4579 36.816 30.1571Z" fill="black"/>
<path fill-rule="evenodd" clip-rule="evenodd" d="M36.1761 10.7596C36.1162 10.3721 35.7535 10.1065 35.366 10.1664C34.9785 10.2263 34.7129 10.5889 34.7727 10.9765C34.7935 11.1109 34.8151 11.2506 34.8367 11.3947C34.8474 11.4657 34.8024 11.5329 34.7334 11.5526C33.9324 11.7812 33.2201 12.2284 32.6338 12.8176C32.5359 12.916 32.3598 12.8367 32.3793 12.6993C32.4249 12.3784 32.4822 12.0288 32.5535 11.6391C32.624 11.2534 32.3684 10.8835 31.9827 10.813C31.597 10.7425 31.2271 10.998 31.1566 11.3837C30.7094 13.8298 30.7755 14.8678 30.8951 16.7476L30.914 17.0457C30.938 17.4284 31.2616 17.7228 31.6449 17.7108C32.0281 17.6988 32.3326 17.3846 32.3326 17.0012C32.3326 15.1984 33.4354 13.5673 34.8659 13.0085C34.9498 12.9757 35.0392 13.0346 35.0463 13.1243C35.0964 13.751 35.1119 14.3961 35.0554 15.0124C35.0212 15.3856 34.9625 15.7322 34.8751 16.0483C34.8526 16.1295 34.762 16.1699 34.6896 16.127C34.5061 16.0185 34.4032 15.9015 34.341 15.8177C34.1072 15.5029 33.6625 15.4371 33.3477 15.6708C33.0328 15.9046 32.9671 16.3493 33.2008 16.6641C33.3734 16.8966 33.6103 17.1329 33.9377 17.3319C34.0197 17.3817 34.0361 17.4967 33.9614 17.5568C33.809 17.6795 33.6389 17.7838 33.4496 17.8685C33.0916 18.0286 32.9313 18.4485 33.0914 18.8065C33.2515 19.1644 33.6715 19.3248 34.0294 19.1647C34.7088 18.8608 35.2098 18.4143 35.5762 17.8883C35.6049 17.8472 35.6529 17.8237 35.7029 17.8259C37.4793 17.9031 39.0267 16.6322 39.1799 14.7831C39.3221 13.0667 38.0237 11.6668 36.3814 11.4236C36.3186 11.4143 36.2683 11.3658 36.259 11.3031C36.2327 11.1263 36.2068 10.9587 36.1827 10.8023L36.1761 10.7596ZM36.6441 12.9526C36.553 12.9155 36.4603 12.991 36.4677 13.0891C36.5178 13.7572 36.532 14.4601 36.4695 15.142C36.4388 15.4769 36.3885 15.8167 36.3117 16.1516C36.2885 16.2528 36.3766 16.3454 36.4753 16.3135C37.1811 16.0855 37.6982 15.4691 37.7648 14.6659C37.8248 13.9412 37.3657 13.2465 36.6441 12.9526Z" fill="black"/>
</svg>
