<svg width="54" height="55" viewBox="0 0 54 55" fill="none" xmlns="http://www.w3.org/2000/svg">
<rect x="1.8501" y="2.7984" width="50.3" height="50.3" rx="3" stroke="#8B1EFF" stroke-width="0.28"/>
<path d="M10.2065 38.0963V8.24426C10.2125 7.89233 10.252 7.53931 10.325 7.19421C10.397 6.84924 10.503 6.51221 10.6411 6.18738C10.9141 5.54333 11.3131 4.94934 11.8071 4.45007C12.2961 3.95605 12.8791 3.55396 13.5145 3.27808C13.8315 3.14014 14.1605 3.03418 14.4979 2.96094C14.8349 2.88794 15.1779 2.84888 15.5214 2.84497C19.4174 2.81396 23.3134 2.79895 27.2079 2.79895C31.1049 2.79895 34.9999 2.81396 38.8963 2.84509C39.2393 2.84912 39.5833 2.88806 39.9208 2.96155C40.2568 3.03455 40.5868 3.14148 40.903 3.27844C41.221 3.41638 41.525 3.58545 41.8108 3.78186C42.0978 3.97888 42.3658 4.20288 42.6108 4.44995C42.8578 4.69897 43.0808 4.96997 43.2748 5.26074C43.4708 5.55273 43.6398 5.86267 43.7772 6.18652C43.9142 6.51147 44.0212 6.84949 44.0934 7.19434C44.1664 7.53931 44.2054 7.89233 44.2104 8.24438C44.2104 8.24438 44.2104 38.0963 44.2101 38.0968C44.1891 38.7908 44.0511 39.4868 43.8027 40.1417C43.5557 40.7968 43.1977 41.4108 42.7389 41.9346C42.5089 42.1967 42.2549 42.4357 41.9799 42.6483C41.7069 42.8604 41.4139 43.0453 41.1049 43.2023C40.7979 43.3583 40.4769 43.4852 40.1451 43.5798C39.8161 43.6748 39.4771 43.7379 39.1357 43.7638C31.1907 44.1969 23.2267 44.1969 15.2819 43.7638C14.6009 43.7108 13.9259 43.5148 13.3131 43.2032C12.6931 42.8882 12.1351 42.4552 11.6787 41.9353C11.2197 41.4103 10.8627 40.7963 10.6155 40.1414C10.3675 39.4863 10.2285 38.7914 10.2065 38.0963Z" stroke="#8B1EFF" stroke-width="0.283" stroke-miterlimit="10"/>
<rect x="12.8887" y="6.4201" width="28.63" height="34.35" rx="1.46" stroke="#00FFFF" stroke-width="0.28"/>
<path d="M38.6898 4.53482C31.0758 4.43582 23.3388 4.43582 15.7238 4.53482C15.4321 4.53885 15.1431 4.56985 14.858 4.62991C14.787 4.64493 14.7151 4.66092 14.6451 4.67984C14.5751 4.69791 14.5051 4.71793 14.4361 4.7399C14.298 4.78384 14.162 4.83292 14.0311 4.88992C13.8981 4.94693 13.7681 5.00992 13.6421 5.07986C13.578 5.1149 13.515 5.15189 13.453 5.18985C13.3911 5.22794 13.33 5.26785 13.2701 5.30984C13.0321 5.47488 12.8121 5.66287 12.6111 5.87186C12.5101 5.97586 12.4151 6.08585 12.3251 6.20193C12.2791 6.25894 12.2361 6.3179 12.1931 6.37784C12.151 6.43692 12.1111 6.49686 12.0721 6.55887C11.9151 6.80386 11.7841 7.0629 11.677 7.33487C11.651 7.40286 11.625 7.47183 11.6021 7.5419C11.578 7.61185 11.556 7.68192 11.5361 7.75186C11.4951 7.89285 11.4621 8.03482 11.4351 8.17886C11.382 8.46487 11.3551 8.75491 11.3551 9.05093C11.3528 18.4676 11.3519 27.8855 11.3499 37.3025C11.35 37.596 11.371 37.8859 11.414 38.1719C11.436 38.315 11.462 38.4569 11.4949 38.5989C11.511 38.67 11.5289 38.7399 11.548 38.81C11.567 38.8809 11.588 38.951 11.61 39.0209C11.699 39.299 11.809 39.5679 11.9429 39.825C11.977 39.8899 12.0119 39.9539 12.048 40.017C12.084 40.08 12.1219 40.142 12.162 40.2029C12.241 40.324 12.324 40.4419 12.4129 40.554C12.502 40.6669 12.597 40.7759 12.6969 40.8799C12.7469 40.9309 12.798 40.982 12.852 41.0319C12.905 41.081 12.959 41.1299 13.0139 41.1759C13.2359 41.361 13.4729 41.5209 13.727 41.6549C13.7899 41.6879 13.8549 41.72 13.92 41.7499C13.9859 41.7799 14.0529 41.8079 14.1199 41.835C14.254 41.887 14.3909 41.9319 14.5289 41.97C14.8049 42.045 15.087 42.091 15.377 42.106C23.2194 42.5331 31.1934 42.5331 39.0353 42.1061C39.3265 42.0901 39.6095 42.0442 39.8855 41.9701C40.0235 41.9322 40.1595 41.8871 40.2935 41.8351C40.3605 41.8081 40.4276 41.7802 40.4935 41.7502C40.5595 41.7191 40.6245 41.6872 40.6875 41.6532C40.9435 41.5192 41.1805 41.3592 41.3995 41.1742C41.5105 41.0822 41.6155 40.9832 41.7175 40.8792C41.7665 40.8272 41.8165 40.7732 41.8635 40.7182C41.9115 40.6642 41.9576 40.6082 42.0025 40.5522C42.1805 40.3262 42.3355 40.0851 42.4685 39.8302C42.5345 39.7022 42.5965 39.5712 42.6516 39.4362C42.6795 39.3692 42.7065 39.3012 42.7305 39.2322C42.7565 39.1642 42.7795 39.0951 42.8026 39.0252C42.8895 38.7482 42.9545 38.4651 42.9985 38.1781C43.0096 38.1061 43.0175 38.0331 43.0266 37.9612C43.0345 37.8882 43.0415 37.8152 43.0465 37.7422C43.0575 37.5962 43.0625 37.4491 43.0625 37.3031C43.0609 27.8859 43.0598 18.4679 43.059 9.05045C43.058 8.75552 43.032 8.46255 42.977 8.17252C42.95 8.0275 42.9149 7.88455 42.8749 7.74454C42.834 7.60452 42.7879 7.46646 42.735 7.33145C42.6809 7.19547 42.6219 7.06253 42.5549 6.93253C42.5219 6.86746 42.4879 6.80252 42.451 6.73856C42.4139 6.67545 42.3759 6.61246 42.3369 6.55045C42.1799 6.30545 41.9999 6.07755 41.799 5.86856C41.7489 5.81656 41.6979 5.76553 41.645 5.71548C41.5909 5.66556 41.5379 5.61649 41.481 5.56949C41.3699 5.47452 41.2539 5.38651 41.136 5.30447C40.8979 5.14151 40.6459 5.00247 40.3789 4.88846C40.313 4.8605 40.2449 4.83353 40.1759 4.80753C40.1079 4.7825 40.0389 4.75845 39.9699 4.73746C39.8309 4.69449 39.692 4.6575 39.5509 4.62845C39.269 4.57046 38.9829 4.53848 38.6898 4.53482Z" stroke="#FF00FF" stroke-width="0.283465" stroke-miterlimit="10" stroke-linecap="round" stroke-linejoin="round"/>
<path d="M18.659 20.2674C18.4048 20.5899 18.1815 20.6767 17.9769 20.6767C17.611 20.6767 17.3506 20.4287 17.3506 20.0938C17.3506 19.8954 17.4188 19.7341 17.4994 19.5543C17.9025 18.6985 18.4916 17.2847 18.4916 15.1391C18.4916 13.0989 17.9025 11.685 17.4994 10.8293C17.4188 10.6494 17.3506 10.4882 17.3506 10.2898C17.3506 9.95489 17.611 9.70685 17.9769 9.70685C18.1815 9.70685 18.4048 9.79366 18.659 10.1161C18.9877 10.5316 20.1597 12.1935 20.1597 15.1391C20.1597 18.1901 18.9877 19.852 18.659 20.2674Z" fill="black"/>
<path d="M22.218 32.34C22.218 35.2398 20.9881 36.8597 18.7782 36.8597C18.0382 36.8597 17.3483 36.6697 16.8383 36.3297C16.4083 36.0397 16.1483 35.6497 16.1483 35.3298C16.1483 34.9598 16.4183 34.6998 16.7983 34.6998C17.0283 34.6998 17.1983 34.7698 17.4883 34.9998C17.9183 35.3698 18.2982 35.5298 18.7782 35.5298C19.7914 35.5298 20.472 34.7777 20.6085 33.1142C20.6191 32.9856 20.4656 32.9111 20.371 32.9989C20.0424 33.3037 19.4091 33.7499 18.5182 33.7499C16.9583 33.7499 15.8684 32.63 15.8684 31.0101C15.8684 29.2402 17.0983 28.0603 18.9382 28.0603C20.0181 28.0603 20.8881 28.4803 21.448 29.2802C21.958 29.9901 22.218 31.0301 22.218 32.34ZM20.4481 30.9601C20.4481 30.0402 19.8181 29.3802 18.9382 29.3802C18.0583 29.3802 17.4783 30.0102 17.4783 30.9501C17.4783 31.89 18.0783 32.5 18.9582 32.5C19.8381 32.5 20.4481 31.86 20.4481 30.9601Z" fill="black"/>
<path fill-rule="evenodd" clip-rule="evenodd" d="M35.7576 27.9993C35.7486 27.6073 35.4234 27.2969 35.0314 27.3059C34.6394 27.315 34.329 27.6401 34.338 28.0321C34.3874 30.1714 34.5579 31.8953 34.687 33.2018C34.6938 33.2706 34.7005 33.3383 34.7071 33.4048C34.7163 33.499 34.6313 33.575 34.5381 33.5582C33.6828 33.4041 32.8621 33.445 32.1681 33.6385C31.1888 33.9117 30.205 34.5909 30.1566 35.6956C30.1074 36.817 31.0689 37.5251 31.9201 37.8356C32.8268 38.1664 33.9888 38.2179 34.9798 37.7954C35.5846 37.5375 35.9568 37.091 36.1316 36.486C36.1868 36.295 36.2219 36.0894 36.2421 35.8717C36.2512 35.7735 36.354 35.711 36.4434 35.7527C36.8989 35.965 37.2191 36.1394 37.4766 36.3042C37.8826 36.564 38.1483 36.8088 38.5806 37.2071L38.6564 37.2768C38.9449 37.5424 39.3941 37.5237 39.6596 37.2352C39.9251 36.9467 39.9065 36.4975 39.618 36.232L39.523 36.1444L39.523 36.1444C39.1076 35.7614 38.7563 35.4373 38.2422 35.1082C37.7717 34.8071 37.1787 34.5093 36.2764 34.1254C36.2286 34.105 36.1958 34.06 36.1913 34.0082C36.1632 33.6869 36.1291 33.3439 36.0925 32.9751L36.0925 32.9751C36.0458 32.5051 35.995 31.9932 35.947 31.431C35.9401 31.3501 36.0037 31.2804 36.0849 31.2791C37.3418 31.2578 37.8487 31.1751 39.2511 30.9292C39.6373 30.8614 39.8955 30.4934 39.8278 30.1072C39.76 29.721 39.392 29.4628 39.0058 29.5305C37.6341 29.771 37.2032 29.844 35.9671 29.8609C35.8924 29.8619 35.83 29.8039 35.8258 29.7293C35.7959 29.1923 35.7719 28.6172 35.7576 27.9993ZM32.5496 35.0063C33.1365 34.8426 33.9158 34.8266 34.7441 35.0618C34.8017 35.0782 34.8416 35.1305 34.8428 35.1903C34.8514 35.6043 34.826 35.8892 34.7674 36.0917C34.7054 36.3063 34.6171 36.4064 34.4229 36.4891C33.8159 36.7479 33.0322 36.7298 32.4067 36.5016C31.7257 36.2532 31.5684 35.9128 31.5752 35.7578C31.5828 35.586 31.7814 35.2206 32.5496 35.0063Z" fill="black"/>
<path fill-rule="evenodd" clip-rule="evenodd" d="M35.7382 10.9677C35.7291 10.5757 35.404 10.2652 35.012 10.2743C34.62 10.2834 34.3095 10.6085 34.3186 11.0005C34.3571 12.6679 34.4842 14.0198 34.5799 15.0375Lnan nanL34.5799 15.0375C34.5843 15.084 34.5429 15.1217 34.4969 15.1139C33.8867 15.0109 33.2943 15.0196 32.7739 15.1441C31.9061 15.3517 31.0794 15.9493 31.0332 17.012C30.9865 18.0849 31.787 18.7197 32.5581 18.9684C33.3322 19.2181 34.2915 19.1779 35.0715 18.7912C35.5652 18.5465 35.8661 18.155 36.0076 17.6489C36.0326 17.5593 36.0525 17.4665 36.0681 17.3709C36.0836 17.2758 36.1851 17.2181 36.2716 17.2605C36.5299 17.3868 36.7208 17.4944 36.878 17.596C37.1674 17.7831 37.3556 17.9567 37.6759 18.2522L37.7734 18.3421C38.0619 18.6076 38.5111 18.589 38.7766 18.3005C39.0422 18.0119 39.0236 17.5628 38.735 17.2972L38.6306 17.2009C38.3215 16.915 38.0456 16.6599 37.6488 16.4034C37.2815 16.166 36.8231 15.9341 36.1364 15.6401C36.0886 15.6197 36.0559 15.5746 36.0514 15.5228C36.0321 15.2997 36.0099 15.0645 35.9862 14.8147L35.9862 14.8145C35.9578 14.515 35.9275 14.1944 35.8979 13.8483C35.891 13.7678 35.9541 13.6983 36.0349 13.6963C36.8992 13.6742 37.3209 13.6048 38.3569 13.4231C38.7431 13.3554 39.0013 12.9874 38.9336 12.6011C38.8659 12.2149 38.4979 11.9567 38.1116 12.0244C37.1087 12.2003 36.7543 12.261 35.9232 12.2787C35.848 12.2804 35.7849 12.2218 35.7811 12.1466C35.7627 11.778 35.7478 11.3859 35.7382 10.9677ZM33.1043 16.5252C33.4942 16.4319 34.019 16.4378 34.5944 16.5849C34.6544 16.6002 34.6961 16.6545 34.6959 16.7165C34.6947 16.9666 34.6752 17.1408 34.64 17.2667C34.5998 17.4104 34.5509 17.4643 34.4408 17.519C34.0131 17.731 33.4384 17.7603 32.994 17.617C32.5466 17.4727 32.4441 17.252 32.4519 17.0737C32.4601 16.885 32.582 16.6501 33.1043 16.5252Z" fill="black"/>
</svg>
