<svg width="54" height="55" viewBox="0 0 54 55" fill="none" xmlns="http://www.w3.org/2000/svg">
<rect x="1.8501" y="2.7984" width="50.3" height="50.3" rx="3" stroke="#8B1EFF" stroke-width="0.28"/>
<path d="M10.2065 38.0963V8.24426C10.2125 7.89233 10.252 7.53931 10.325 7.19421C10.397 6.84924 10.503 6.51221 10.6411 6.18738C10.9141 5.54333 11.3131 4.94934 11.8071 4.45007C12.2961 3.95605 12.8791 3.55396 13.5145 3.27808C13.8315 3.14014 14.1605 3.03418 14.4979 2.96094C14.8349 2.88794 15.1779 2.84888 15.5214 2.84497C19.4174 2.81396 23.3134 2.79895 27.2079 2.79895C31.1049 2.79895 34.9999 2.81396 38.8963 2.84509C39.2393 2.84912 39.5833 2.88806 39.9208 2.96155C40.2568 3.03455 40.5868 3.14148 40.903 3.27844C41.221 3.41638 41.525 3.58545 41.8108 3.78186C42.0978 3.97888 42.3658 4.20288 42.6108 4.44995C42.8578 4.69897 43.0808 4.96997 43.2748 5.26074C43.4708 5.55273 43.6398 5.86267 43.7772 6.18652C43.9142 6.51147 44.0212 6.84949 44.0934 7.19434C44.1664 7.53931 44.2054 7.89233 44.2104 8.24438C44.2104 8.24438 44.2104 38.0963 44.2101 38.0968C44.1891 38.7908 44.0511 39.4868 43.8027 40.1417C43.5557 40.7968 43.1977 41.4108 42.7389 41.9346C42.5089 42.1967 42.2549 42.4357 41.9799 42.6483C41.7069 42.8604 41.4139 43.0453 41.1049 43.2023C40.7979 43.3583 40.4769 43.4852 40.1451 43.5798C39.8161 43.6748 39.4771 43.7379 39.1357 43.7638C31.1907 44.1969 23.2267 44.1969 15.2819 43.7638C14.6009 43.7108 13.9259 43.5148 13.3131 43.2032C12.6931 42.8882 12.1351 42.4552 11.6787 41.9353C11.2197 41.4103 10.8627 40.7963 10.6155 40.1414C10.3675 39.4863 10.2285 38.7914 10.2065 38.0963Z" stroke="#8B1EFF" stroke-width="0.283" stroke-miterlimit="10"/>
<rect x="12.8887" y="6.4201" width="28.63" height="34.35" rx="1.46" stroke="#00FFFF" stroke-width="0.28"/>
<path d="M38.6898 4.53482C31.0758 4.43582 23.3388 4.43582 15.7238 4.53482C15.4321 4.53885 15.1431 4.56985 14.858 4.62991C14.787 4.64493 14.7151 4.66092 14.6451 4.67984C14.5751 4.69791 14.5051 4.71793 14.4361 4.7399C14.298 4.78384 14.162 4.83292 14.0311 4.88992C13.8981 4.94693 13.7681 5.00992 13.6421 5.07986C13.578 5.1149 13.515 5.15189 13.453 5.18985C13.3911 5.22794 13.33 5.26785 13.2701 5.30984C13.0321 5.47488 12.8121 5.66287 12.6111 5.87186C12.5101 5.97586 12.4151 6.08585 12.3251 6.20193C12.2791 6.25894 12.2361 6.3179 12.1931 6.37784C12.151 6.43692 12.1111 6.49686 12.0721 6.55887C11.9151 6.80386 11.7841 7.0629 11.677 7.33487C11.651 7.40286 11.625 7.47183 11.6021 7.5419C11.578 7.61185 11.556 7.68192 11.5361 7.75186C11.4951 7.89285 11.4621 8.03482 11.4351 8.17886C11.382 8.46487 11.3551 8.75491 11.3551 9.05093C11.3528 18.4676 11.3519 27.8855 11.3499 37.3025C11.35 37.596 11.371 37.8859 11.414 38.1719C11.436 38.315 11.462 38.4569 11.4949 38.5989C11.511 38.67 11.5289 38.7399 11.548 38.81C11.567 38.8809 11.588 38.951 11.61 39.0209C11.699 39.299 11.809 39.5679 11.9429 39.825C11.977 39.8899 12.0119 39.9539 12.048 40.017C12.084 40.08 12.1219 40.142 12.162 40.2029C12.241 40.324 12.324 40.4419 12.4129 40.554C12.502 40.6669 12.597 40.7759 12.6969 40.8799C12.7469 40.9309 12.798 40.982 12.852 41.0319C12.905 41.081 12.959 41.1299 13.0139 41.1759C13.2359 41.361 13.4729 41.5209 13.727 41.6549C13.7899 41.6879 13.8549 41.72 13.92 41.7499C13.9859 41.7799 14.0529 41.8079 14.1199 41.835C14.254 41.887 14.3909 41.9319 14.5289 41.97C14.8049 42.045 15.087 42.091 15.377 42.106C23.2194 42.5331 31.1934 42.5331 39.0353 42.1061C39.3265 42.0901 39.6095 42.0442 39.8855 41.9701C40.0235 41.9322 40.1595 41.8871 40.2935 41.8351C40.3605 41.8081 40.4276 41.7802 40.4935 41.7502C40.5595 41.7191 40.6245 41.6872 40.6875 41.6532C40.9435 41.5192 41.1805 41.3592 41.3995 41.1742C41.5105 41.0822 41.6155 40.9832 41.7175 40.8792C41.7665 40.8272 41.8165 40.7732 41.8635 40.7182C41.9115 40.6642 41.9576 40.6082 42.0025 40.5522C42.1805 40.3262 42.3355 40.0851 42.4685 39.8302C42.5345 39.7022 42.5965 39.5712 42.6516 39.4362C42.6795 39.3692 42.7065 39.3012 42.7305 39.2322C42.7565 39.1642 42.7795 39.0951 42.8026 39.0252C42.8895 38.7482 42.9545 38.4651 42.9985 38.1781C43.0096 38.1061 43.0175 38.0331 43.0266 37.9612C43.0345 37.8882 43.0415 37.8152 43.0465 37.7422C43.0575 37.5962 43.0625 37.4491 43.0625 37.3031C43.0609 27.8859 43.0598 18.4679 43.059 9.05045C43.058 8.75552 43.032 8.46255 42.977 8.17252C42.95 8.0275 42.9149 7.88455 42.8749 7.74454C42.834 7.60452 42.7879 7.46646 42.735 7.33145C42.6809 7.19547 42.6219 7.06253 42.5549 6.93253C42.5219 6.86746 42.4879 6.80252 42.451 6.73856C42.4139 6.67545 42.3759 6.61246 42.3369 6.55045C42.1799 6.30545 41.9999 6.07755 41.799 5.86856C41.7489 5.81656 41.6979 5.76553 41.645 5.71548C41.5909 5.66556 41.5379 5.61649 41.481 5.56949C41.3699 5.47452 41.2539 5.38651 41.136 5.30447C40.8979 5.14151 40.6459 5.00247 40.3789 4.88846C40.313 4.8605 40.2449 4.83353 40.1759 4.80753C40.1079 4.7825 40.0389 4.75845 39.9699 4.73746C39.8309 4.69449 39.692 4.6575 39.5509 4.62845C39.269 4.57046 38.9829 4.53848 38.6898 4.53482Z" stroke="#FF00FF" stroke-width="0.283465" stroke-miterlimit="10" stroke-linecap="round" stroke-linejoin="round"/>
<path fill-rule="evenodd" clip-rule="evenodd" d="M32.022 11.2691C31.6299 11.2691 31.312 11.587 31.312 11.9791C31.312 12.3712 31.6299 12.6891 32.022 12.6891H37.2345C37.3118 12.6891 37.3745 12.7518 37.3745 12.8291V14.3212C37.3745 14.3985 37.3118 14.4612 37.2345 14.4612H32.1639C31.7718 14.4612 31.4539 14.779 31.4539 15.1712C31.4539 15.5633 31.7718 15.8812 32.1639 15.8812H37.2345C37.3118 15.8812 37.3745 15.9438 37.3745 16.0212V17.5132C37.3745 17.5905 37.3118 17.6532 37.2345 17.6532L31.8772 17.6532C31.4851 17.6532 31.1672 17.9711 31.1672 18.3632C31.1672 18.7553 31.4851 19.0732 31.8772 19.0732H37.3745C38.1587 19.0732 38.7945 18.4375 38.7945 17.6532V12.6891C38.7945 11.9049 38.1587 11.2691 37.3745 11.2691H32.022Z" fill="black"/>
<path fill-rule="evenodd" clip-rule="evenodd" d="M31.2974 27.7585C30.9053 27.7585 30.5874 28.0764 30.5874 28.4685C30.5874 28.8607 30.9053 29.1785 31.2974 29.1785H38.0336C38.1109 29.1785 38.1736 29.2412 38.1736 29.3185V31.6129C38.1736 31.6902 38.1109 31.7529 38.0336 31.7529H31.4749C31.0828 31.7529 30.7649 32.0708 30.7649 32.4629C30.7649 32.855 31.0828 33.1729 31.4749 33.1729H38.0336C38.1109 33.1729 38.1736 33.2356 38.1736 33.3129V35.6072C38.1736 35.6846 38.1109 35.7472 38.0336 35.7472L31.1162 35.7472C30.7241 35.7472 30.4062 36.0651 30.4062 36.4572C30.4062 36.8494 30.7241 37.1672 31.1162 37.1672H38.1736C38.9579 37.1672 39.5936 36.5315 39.5936 35.7472V32.4629V29.1785C39.5936 28.3943 38.9579 27.7585 38.1736 27.7585H31.2974Z" fill="black"/>
<path d="M18.659 20.2674C18.4048 20.5899 18.1815 20.6767 17.9769 20.6767C17.611 20.6767 17.3506 20.4287 17.3506 20.0938C17.3506 19.8954 17.4188 19.7341 17.4994 19.5543C17.9025 18.6985 18.4916 17.2847 18.4916 15.1391C18.4916 13.0989 17.9025 11.685 17.4994 10.8293C17.4188 10.6494 17.3506 10.4882 17.3506 10.2898C17.3506 9.95489 17.611 9.70685 17.9769 9.70685C18.1815 9.70685 18.4048 9.79366 18.659 10.1161C18.9877 10.5316 20.1597 12.1935 20.1597 15.1391C20.1597 18.1901 18.9877 19.852 18.659 20.2674Z" fill="black"/>
<path d="M22.218 32.34C22.218 35.2398 20.9881 36.8597 18.7782 36.8597C18.0382 36.8597 17.3483 36.6697 16.8383 36.3297C16.4083 36.0397 16.1483 35.6497 16.1483 35.3298C16.1483 34.9598 16.4183 34.6998 16.7983 34.6998C17.0283 34.6998 17.1983 34.7698 17.4883 34.9998C17.9183 35.3698 18.2982 35.5298 18.7782 35.5298C19.7914 35.5298 20.472 34.7777 20.6085 33.1142C20.6191 32.9856 20.4656 32.9111 20.371 32.9989C20.0424 33.3037 19.4091 33.7499 18.5182 33.7499C16.9583 33.7499 15.8684 32.63 15.8684 31.0101C15.8684 29.2402 17.0983 28.0603 18.9382 28.0603C20.0181 28.0603 20.8881 28.4803 21.448 29.2802C21.958 29.9901 22.218 31.0301 22.218 32.34ZM20.4481 30.9601C20.4481 30.0402 19.8181 29.3802 18.9382 29.3802C18.0583 29.3802 17.4783 30.0102 17.4783 30.9501C17.4783 31.89 18.0783 32.5 18.9582 32.5C19.8381 32.5 20.4481 31.86 20.4481 30.9601Z" fill="black"/>
</svg>
