<svg width="108" height="54" viewBox="0 0 108 54" fill="none" xmlns="http://www.w3.org/2000/svg">
<rect x="1.85" y="1.84961" width="104.3" height="50.3" rx="3" stroke="#8B1EFF" stroke-width="0.28"/>
<path d="M96.347 40.9109C95.8721 41.425 95.2961 41.8489 94.6602 42.1469C94.0284 42.4433 93.3364 42.6153 92.6455 42.6562C79.7662 43.0703 66.8812 43.2763 53.9952 43.2763C41.1096 43.2773 28.2246 43.0702 15.3456 42.6562C14.6539 42.6166 13.9629 42.4336 13.3329 42.1386C13.0157 41.9899 12.7126 41.8129 12.4297 41.6068C12.1456 41.4012 11.8806 41.1671 11.6426 40.9091C11.4028 40.6513 11.1909 40.3693 11.0049 40.0702C10.8201 39.7714 10.6631 39.4554 10.5342 39.1273C10.2783 38.4746 10.1313 37.7737 10.1104 37.0756V7.2543C10.1154 6.90298 10.1555 6.55106 10.2305 6.20596C10.3046 5.8616 10.4146 5.52457 10.5566 5.20255C10.6982 4.88016 10.8723 4.57217 11.0743 4.28409C11.2758 3.99637 11.5048 3.7283 11.7568 3.48428C12.0091 3.24063 12.2831 3.02054 12.5751 2.82852C12.8671 2.63687 13.1771 2.47183 13.4991 2.3378C13.8201 2.20425 14.1531 2.10025 14.4941 2.02921C14.8353 1.95901 15.1813 1.91995 15.5284 1.9169C41.1729 1.79593 66.8169 1.79593 92.4619 1.9169C92.8091 1.92032 93.156 1.95828 93.4961 2.02921C93.8372 2.09988 94.1711 2.20389 94.4922 2.3378C94.813 2.47256 95.124 2.63663 95.415 2.82852C95.7084 3.02139 95.9823 3.24039 96.2344 3.48331C96.4869 3.7272 96.7159 3.99515 96.918 4.28311C97.1195 4.57217 97.2925 4.88016 97.4346 5.20206C97.5757 5.52505 97.6857 5.86099 97.7607 6.20596C97.8348 6.55032 97.8749 6.90237 97.8799 7.2543V37.0756C97.8579 37.7748 97.7189 38.4759 97.4606 39.1297C97.2015 39.7856 96.8256 40.3936 96.347 40.9109Z" stroke="#8B1EFF" stroke-width="0.283" stroke-miterlimit="10"/>
<path d="M94.3457 40.2979H13.6487C12.4744 40.298 11.5225 39.3459 11.5225 38.1719V6.59497C11.5224 5.42078 12.4744 4.46875 13.6484 4.46875H94.3453C95.5197 4.46875 96.4717 5.42078 96.4717 6.59473V38.1719C96.4717 39.3459 95.5197 40.2979 94.3457 40.2979Z" stroke="#00FFFF" stroke-width="0.28" stroke-miterlimit="10"/>
<path d="M96.9307 33.4842V36.338C96.9308 36.636 96.9078 36.9311 96.8608 37.224C96.8489 37.297 96.8358 37.37 96.8198 37.443C96.8058 37.516 96.7888 37.589 96.7719 37.6601C96.7338 37.804 96.6918 37.9461 96.6448 38.085C96.5958 38.224 96.5408 38.361 96.4799 38.495C96.4188 38.63 96.3508 38.761 96.2759 38.89C96.1268 39.1481 95.9548 39.387 95.7598 39.6071C95.6619 39.7161 95.5588 39.8211 95.4479 39.922C95.3938 39.9711 95.3368 40.0201 95.2798 40.067C95.2228 40.114 95.1638 40.1591 95.1058 40.203C94.8678 40.3771 94.6138 40.5241 94.3458 40.6451C94.2778 40.6751 94.2098 40.703 94.1409 40.73C94.0708 40.757 94.0018 40.782 93.9318 40.8051C93.7908 40.8511 93.6498 40.89 93.5059 40.922C93.2198 40.985 92.9279 41.0201 92.6299 41.028C66.9102 41.7021 41.0852 41.7021 15.3643 41.028C15.2155 41.0241 15.0674 41.0131 14.9194 40.9951C14.8455 40.9861 14.7725 40.9751 14.6984 40.963C14.6254 40.9501 14.5524 40.9361 14.4805 40.9201C14.1924 40.8561 13.9135 40.7631 13.6434 40.6421C13.5764 40.6111 13.5084 40.5791 13.4434 40.5451C13.3765 40.5111 13.3115 40.4751 13.2485 40.4381C13.1204 40.3631 12.9974 40.2821 12.8784 40.1951C12.6425 40.0211 12.4255 39.8221 12.2285 39.5992C12.1785 39.5431 12.1304 39.4861 12.0845 39.4281C12.0394 39.3701 11.9944 39.3122 11.9514 39.2521C11.8665 39.1321 11.7875 39.0091 11.7134 38.8821C11.5674 38.6291 11.4465 38.3601 11.3484 38.0791C11.3245 38.0091 11.3005 37.9381 11.2805 37.8671C11.2584 37.7961 11.2394 37.7251 11.2214 37.6531C11.1854 37.5102 11.1564 37.3661 11.1324 37.2201C11.0854 36.9301 11.0635 36.6361 11.0635 36.338V33.4845C11.0654 25.055 11.0663 16.625 11.0674 8.19595C11.0673 8.04459 11.0753 7.89261 11.0903 7.74161C11.0974 7.66666 11.1074 7.59061 11.1193 7.51663C11.1304 7.44058 11.1434 7.36661 11.1594 7.29263C11.2194 6.99564 11.3093 6.70963 11.4274 6.43362C11.4874 6.29568 11.5533 6.16068 11.6284 6.02762C11.7023 5.89566 11.7823 5.76761 11.8683 5.64468C12.0413 5.39969 12.2363 5.17361 12.4564 4.96658C12.5103 4.91568 12.5663 4.86465 12.6254 4.81558C12.6824 4.76663 12.7413 4.71866 12.8004 4.67264C12.9203 4.5817 13.0433 4.49661 13.1703 4.41763C13.4224 4.25967 13.6913 4.12662 13.9724 4.01859C14.0433 3.99161 14.1143 3.96561 14.1863 3.94168C14.2573 3.91861 14.3303 3.89664 14.4023 3.87662C14.5474 3.8367 14.6923 3.80264 14.8383 3.77469C15.1323 3.72061 15.4313 3.69266 15.7344 3.69058C41.2087 3.52762 66.7847 3.52762 92.2607 3.69058C92.5637 3.69302 92.8617 3.72098 93.1556 3.77505C93.3018 3.80203 93.4478 3.83597 93.5917 3.87601C93.6637 3.897 93.7367 3.91898 93.8087 3.94205C93.8796 3.96597 93.9507 3.991 94.0217 4.01797C94.3037 4.12698 94.5717 4.25906 94.8237 4.41702C94.9507 4.496 95.0737 4.58096 95.1937 4.673C95.2527 4.71902 95.3127 4.76602 95.3698 4.81607C95.4277 4.86502 95.4847 4.91507 95.5387 4.96707C95.7577 5.17398 95.9537 5.40005 96.1257 5.64505C96.2117 5.767 96.2927 5.89505 96.3657 6.02798C96.4407 6.16006 96.5077 6.29703 96.5677 6.43607C96.5977 6.50504 96.6248 6.57498 96.6517 6.647C96.6777 6.71805 96.7017 6.79007 96.7247 6.86197C96.7697 7.00699 96.8077 7.15201 96.8367 7.29898C96.8967 7.59305 96.9268 7.892 96.9266 8.19608C96.9276 16.6252 96.9296 25.0551 96.9307 33.4842Z" stroke="#FF00FF" stroke-width="0.283465" stroke-miterlimit="10" stroke-linecap="round" stroke-linejoin="round"/>
<path d="M90.2987 50.0098V49.5623L91.9791 47.7228C92.1763 47.5074 92.3387 47.3201 92.4663 47.161C92.5939 47.0003 92.6884 46.8495 92.7497 46.7086C92.8127 46.5661 92.8442 46.417 92.8442 46.2612C92.8442 46.0822 92.8011 45.9273 92.7149 45.7963C92.6304 45.6654 92.5144 45.5643 92.3669 45.4931C92.2194 45.4218 92.0537 45.3862 91.8697 45.3862C91.6742 45.3862 91.5035 45.4268 91.3577 45.508C91.2135 45.5875 91.1016 45.6994 91.0221 45.8436C90.9442 45.9877 90.9053 46.1568 90.9053 46.3507H90.3186C90.3186 46.0524 90.3874 45.7905 90.5249 45.5652C90.6625 45.3398 90.8497 45.1641 91.0867 45.0382C91.3254 44.9122 91.593 44.8493 91.8896 44.8493C92.1879 44.8493 92.4522 44.9122 92.6826 45.0382C92.9129 45.1641 93.0936 45.334 93.2245 45.5478C93.3554 45.7615 93.4209 45.9993 93.4209 46.2612C93.4209 46.4484 93.3869 46.6316 93.319 46.8105C93.2527 46.9879 93.1367 47.1859 92.9709 47.4047C92.8069 47.6217 92.579 47.8869 92.2874 48.2001L91.1439 49.4231V49.4629H93.5104V50.0098H90.2987ZM94.9745 50.0495C94.8519 50.0495 94.7466 50.0056 94.6588 49.9178C94.571 49.83 94.5271 49.7247 94.5271 49.6021C94.5271 49.4795 94.571 49.3742 94.6588 49.2864C94.7466 49.1986 94.8519 49.1547 94.9745 49.1547C95.0971 49.1547 95.2024 49.1986 95.2902 49.2864C95.378 49.3742 95.4219 49.4795 95.4219 49.6021C95.4219 49.6833 95.4012 49.7579 95.3598 49.8258C95.32 49.8938 95.2662 49.9484 95.1982 49.9899C95.1319 50.0297 95.0574 50.0495 94.9745 50.0495ZM97.9475 50.0794C97.573 50.0794 97.254 49.9775 96.9905 49.7736C96.727 49.5681 96.5256 49.2707 96.3864 48.8812C96.2472 48.4901 96.1776 48.0178 96.1776 47.4643C96.1776 46.9141 96.2472 46.4443 96.3864 46.0549C96.5273 45.6638 96.7295 45.3655 96.993 45.16C97.2581 44.9528 97.5763 44.8493 97.9475 44.8493C98.3187 44.8493 98.6361 44.9528 98.8996 45.16C99.1647 45.3655 99.3669 45.6638 99.5061 46.0549C99.647 46.4443 99.7174 46.9141 99.7174 47.4643C99.7174 48.0178 99.6478 48.4901 99.5086 48.8812C99.3694 49.2707 99.168 49.5681 98.9045 49.7736C98.641 49.9775 98.322 50.0794 97.9475 50.0794ZM97.9475 49.5325C98.3187 49.5325 98.6071 49.3535 98.8126 48.9956C99.0181 48.6376 99.1208 48.1272 99.1208 47.4643C99.1208 47.0235 99.0736 46.6481 98.9791 46.3382C98.8863 46.0283 98.7521 45.7922 98.5764 45.6298C98.4024 45.4674 98.1928 45.3862 97.9475 45.3862C97.5796 45.3862 97.2921 45.5676 97.0849 45.9306C96.8778 46.2918 96.7742 46.8031 96.7742 47.4643C96.7742 47.9051 96.8206 48.2797 96.9134 48.5879C97.0062 48.8961 97.1396 49.1306 97.3136 49.2914C97.4893 49.4521 97.7006 49.5325 97.9475 49.5325ZM102.323 50.0794C101.948 50.0794 101.629 49.9775 101.365 49.7736C101.102 49.5681 100.901 49.2707 100.761 48.8812C100.622 48.4901 100.553 48.0178 100.553 47.4643C100.553 46.9141 100.622 46.4443 100.761 46.0549C100.902 45.6638 101.104 45.3655 101.368 45.16C101.633 44.9528 101.951 44.8493 102.323 44.8493C102.694 44.8493 103.011 44.9528 103.275 45.16C103.54 45.3655 103.742 45.6638 103.881 46.0549C104.022 46.4443 104.092 46.9141 104.092 47.4643C104.092 48.0178 104.023 48.4901 103.884 48.8812C103.744 49.2707 103.543 49.5681 103.28 49.7736C103.016 49.9775 102.697 50.0794 102.323 50.0794ZM102.323 49.5325C102.694 49.5325 102.982 49.3535 103.188 48.9956C103.393 48.6376 103.496 48.1272 103.496 47.4643C103.496 47.0235 103.449 46.6481 103.354 46.3382C103.261 46.0283 103.127 45.7922 102.951 45.6298C102.777 45.4674 102.568 45.3862 102.323 45.3862C101.955 45.3862 101.667 45.5676 101.46 45.9306C101.253 46.2918 101.149 46.8031 101.149 47.4643C101.149 47.9051 101.196 48.2797 101.288 48.5879C101.381 48.8961 101.515 49.1306 101.689 49.2914C101.864 49.4521 102.076 49.5325 102.323 49.5325Z" fill="#0000FF"/>
<path d="M19.2864 24.7683C20.2143 24.7683 20.7075 24.3825 20.7075 23.6598C20.7075 22.9371 20.1996 22.5659 19.2327 22.5659H18.0217C17.9434 22.5659 17.88 22.6294 17.88 22.7076V24.6265C17.88 24.7048 17.9435 24.7682 18.0217 24.7682H19.2864V24.7683ZM19.0325 21.6722C19.9115 21.6722 20.4047 21.3011 20.4047 20.6467C20.4047 20.0314 19.9798 19.6847 19.2278 19.6847H18.0217C17.9434 19.6847 17.88 19.7482 17.88 19.8264V21.5305C17.88 21.6088 17.9435 21.6722 18.0217 21.6722H19.0325ZM16.6201 25.0955V19.3575C16.6201 18.9473 16.8594 18.7031 17.2501 18.7031H19.5453C20.8248 18.7031 21.6501 19.3917 21.6501 20.4611C21.6501 21.1039 21.2738 21.5636 20.9162 21.8617C20.8378 21.9271 20.8529 22.051 20.9441 22.097C21.4672 22.3611 21.992 22.9278 21.992 23.7477C21.992 24.9881 21.0788 25.7499 19.5747 25.7499H17.2501C16.8594 25.7499 16.6201 25.5057 16.6201 25.0955Z" fill="black"/>
<path d="M26.154 23.8287C26.154 24.4536 25.5975 24.9126 24.9139 24.9126C24.3867 24.9126 24.0302 24.6441 24.0302 24.2194C24.0302 23.7947 24.3671 23.5457 24.9529 23.5066L26.1013 23.4366C26.1298 23.4349 26.1539 23.4575 26.1539 23.4861V23.8289L26.154 23.8287ZM25.2361 20.4648C24.245 20.4648 23.6734 20.8051 23.3811 21.1325C23.2118 21.3222 23.1901 21.7216 23.4223 21.9073C23.6937 22.1243 24.1483 21.9619 24.3045 21.7699C24.4447 21.5975 24.7595 21.4224 25.1871 21.4168C25.7875 21.4089 26.1538 21.7293 26.1538 22.2712V22.4738C26.1538 22.5001 26.1333 22.5218 26.107 22.5233L24.7818 22.5988C23.5224 22.6769 22.8145 23.3502 22.8145 24.268C22.8145 25.1858 23.5444 25.8303 24.5428 25.8303C25.1746 25.8303 25.7905 25.6653 26.0969 25.54C26.1612 25.5137 26.2349 25.5385 26.2711 25.5978C26.2739 25.6023 26.2763 25.6061 26.2783 25.609C26.3597 25.7249 26.5062 25.8449 26.7642 25.8449C27.106 25.8449 27.3549 25.6252 27.3549 25.2347V22.1833C27.3549 21.1434 26.5201 20.4648 25.2361 20.4648Z" fill="black"/>
<path d="M30.6954 25.8506C29.1817 25.8506 28.2051 24.8252 28.2051 23.165C28.2051 21.5048 29.1768 20.4648 30.6856 20.4648C31.7012 20.4648 32.5655 20.9873 32.8145 21.7148C32.8536 21.8173 32.878 21.9199 32.878 22.0078C32.878 22.3105 32.6485 22.4961 32.3555 22.4961C32.1114 22.4961 31.9649 22.3936 31.8233 22.1494C31.5645 21.6758 31.2227 21.4512 30.7198 21.4512C29.9385 21.4512 29.4405 22.1006 29.4405 23.1602C29.4405 24.2198 29.9434 24.8692 30.7149 24.8692C31.252 24.8692 31.584 24.6202 31.8184 24.2051C31.9844 23.9317 32.1163 23.8291 32.3799 23.8291C32.668 23.8291 32.8926 24.0244 32.8926 24.3272C32.8926 24.42 32.8682 24.5225 32.8194 24.6397C32.5313 25.3477 31.6719 25.8506 30.6954 25.8506Z" fill="black"/>
<path d="M34.3531 25.8469C33.9967 25.8469 33.7427 25.6174 33.7427 25.2072V19.2452C33.7427 18.835 33.9966 18.6055 34.3531 18.6055C34.7096 18.6055 34.9586 18.835 34.9586 19.2452V22.3872C34.9586 22.5131 35.1104 22.5765 35.1999 22.488L37.0045 20.7051C37.1608 20.5391 37.2926 20.4707 37.4781 20.4707C37.7808 20.4707 38.0103 20.7002 38.0103 20.9932C38.0103 21.1739 37.9566 21.2862 37.7906 21.4424L36.4106 22.7493C36.3571 22.8 36.3513 22.8832 36.3974 22.9407L37.9371 24.8653C38.0641 25.0411 38.1031 25.1485 38.1031 25.3048C38.1031 25.6222 37.8638 25.8468 37.5269 25.8468C37.2876 25.8468 37.146 25.7638 36.9703 25.5099L35.5131 23.6632C35.4617 23.5981 35.3656 23.5908 35.305 23.6475L35.0483 23.8878C34.9911 23.9414 34.9586 24.0163 34.9586 24.0947V25.2071C34.9586 25.6173 34.7096 25.8468 34.3531 25.8468V25.8469Z" fill="black"/>
<path d="M53.1325 23.8287C53.1325 24.4536 52.576 24.9126 51.8924 24.9126C51.3652 24.9126 51.0087 24.6441 51.0087 24.2194C51.0087 23.7947 51.3456 23.5457 51.9314 23.5066L53.0798 23.4366C53.1083 23.4349 53.1324 23.4575 53.1324 23.4861V23.8289L53.1325 23.8287ZM52.2146 20.4648C51.2235 20.4648 50.6519 20.8051 50.3596 21.1325C50.1903 21.3222 50.1686 21.7216 50.4008 21.9073C50.6722 22.1243 51.1268 21.9619 51.283 21.7699C51.4232 21.5975 51.738 21.4224 52.1656 21.4168C52.766 21.4089 53.1323 21.7293 53.1323 22.2712V22.4738C53.1323 22.5001 53.1118 22.5218 53.0855 22.5233L51.7603 22.5988C50.5009 22.6769 49.793 23.3502 49.793 24.268C49.793 25.1858 50.5229 25.8303 51.5213 25.8303C52.1531 25.8303 52.769 25.6653 53.0754 25.54C53.1397 25.5137 53.2134 25.5385 53.2496 25.5978C53.2524 25.6023 53.2548 25.6061 53.2568 25.609C53.3382 25.7249 53.4847 25.8449 53.7427 25.8449C54.0845 25.8449 54.3334 25.6252 54.3334 25.2347V22.1833C54.3334 21.1434 53.4986 20.4648 52.2146 20.4648Z" fill="black"/>
<path d="M57.6739 25.8506C56.1602 25.8506 55.1836 24.8252 55.1836 23.165C55.1836 21.5048 56.1553 20.4648 57.6641 20.4648C58.6797 20.4648 59.544 20.9873 59.793 21.7148C59.8321 21.8173 59.8565 21.9199 59.8565 22.0078C59.8565 22.3105 59.627 22.4961 59.334 22.4961C59.0899 22.4961 58.9434 22.3936 58.8018 22.1494C58.543 21.6758 58.2012 21.4512 57.6983 21.4512C56.917 21.4512 56.419 22.1006 56.419 23.1602C56.419 24.2198 56.9219 24.8692 57.6934 24.8692C58.2305 24.8692 58.5625 24.6202 58.7969 24.2051C58.9629 23.9317 59.0948 23.8291 59.3584 23.8291C59.6465 23.8291 59.8711 24.0244 59.8711 24.3272C59.8711 24.42 59.8467 24.5225 59.7979 24.6397C59.5098 25.3477 58.6504 25.8506 57.6739 25.8506Z" fill="black"/>
<path d="M63.9966 22.546H61.9074C61.8168 22.546 61.75 22.4622 61.769 22.3736C61.9056 21.7349 62.3772 21.4073 62.9716 21.4073C63.566 21.4073 64.0201 21.7221 64.1363 22.3804C64.1516 22.4669 64.0845 22.546 63.9966 22.546ZM62.9668 20.4648C61.4726 20.4648 60.5205 21.5292 60.5205 23.1797C60.5205 24.8302 61.4531 25.8506 63.0352 25.8506C63.8354 25.8506 64.4214 25.6728 64.9211 25.1178C65.1448 24.8694 65.0849 24.4987 64.7888 24.3402C64.5394 24.2066 64.2557 24.3347 64.1164 24.4641C63.6737 24.8755 63.3489 24.9131 63.0255 24.9131C62.2793 24.9131 61.7893 24.4284 61.7363 23.6049C61.731 23.5228 61.7954 23.4531 61.8777 23.4531H64.8319C65.1131 23.4531 65.3425 23.2283 65.3489 22.9472C65.3816 21.5043 64.4064 20.4648 62.9668 20.4648Z" fill="black"/>
<path d="M46.5012 24.8348C45.7442 24.8348 45.2412 24.1755 45.2363 23.1597C45.2412 22.1537 45.715 21.4846 46.5012 21.4846C47.2874 21.4846 47.7758 22.139 47.7758 23.1597C47.7758 24.1853 47.2582 24.8348 46.5012 24.8348ZM49.0211 23.1595C49.0211 21.5039 48.186 20.4834 46.8722 20.4834C46.3862 20.4834 45.6161 20.7274 45.3152 20.8294C45.2477 20.8523 45.173 20.8226 45.1413 20.7586C45.1333 20.7423 45.125 20.7261 45.1146 20.7113C44.9953 20.5408 44.8196 20.4688 44.6209 20.4688C44.2741 20.4688 44.03 20.6934 44.03 21.0939V26.9496C44.03 27.3599 44.279 27.5894 44.6356 27.5894C44.9922 27.5894 45.2461 27.3599 45.2461 26.9496V25.5914C45.2461 25.4887 45.352 25.4198 45.4456 25.462C45.8075 25.6249 46.4102 25.8311 46.8919 25.8311C48.1909 25.8311 49.0212 24.8104 49.0212 23.1597L49.0211 23.1595Z" fill="black"/>
<path d="M40.9741 25.8505C39.8803 25.8505 39.1137 25.4306 38.8647 24.8105C38.8305 24.7226 38.8159 24.6445 38.8159 24.5712C38.8159 24.2782 39.0307 24.0927 39.3237 24.0927C39.5239 24.0927 39.6948 24.1855 39.851 24.3906C40.1244 24.7861 40.4369 24.9435 41.018 24.9435C41.5991 24.9435 41.9604 24.7226 41.9604 24.332C41.9604 24.0195 41.7651 23.8486 41.2329 23.7265L40.393 23.5361C39.3822 23.3066 38.8842 22.8086 38.8842 22.0566C38.8842 21.0947 39.7143 20.4648 40.9936 20.4648C41.9897 20.4648 42.7612 20.9531 42.9223 21.5488C42.9369 21.6123 42.9467 21.6709 42.9467 21.7295C42.9467 21.9834 42.7856 22.1641 42.4779 22.1641C42.3021 22.1641 42.1263 22.1006 42.014 21.9395C41.7747 21.5831 41.4769 21.3719 40.9642 21.3719C40.4515 21.3719 40.0658 21.6172 40.0658 21.9883C40.0658 22.291 40.2904 22.4961 40.8275 22.6182L41.6527 22.7989C42.7465 23.0479 43.181 23.4434 43.181 24.21C43.181 25.2012 42.2923 25.8506 40.9739 25.8506H40.9741V25.8505Z" fill="black"/>
</svg>
