<svg width="54" height="54" viewBox="0 0 54 54" fill="none" xmlns="http://www.w3.org/2000/svg">
<rect x="1.8501" y="1.85" width="50.3" height="50.3" rx="3" stroke="#8B1EFF" stroke-width="0.28"/>
<path d="M10.2065 37.1479V7.29587C10.2125 6.94394 10.252 6.59091 10.325 6.24582C10.397 5.90085 10.503 5.56381 10.6411 5.23898C10.9141 4.59494 11.3131 4.00095 11.8071 3.50168C12.2961 3.00766 12.8791 2.60556 13.5145 2.32968C13.8315 2.19174 14.1605 2.08578 14.4979 2.01254C14.8349 1.93954 15.1779 1.90048 15.5214 1.89658C19.4174 1.86557 23.3134 1.85056 27.2079 1.85056C31.1049 1.85056 34.9999 1.86557 38.8963 1.8967C39.2393 1.90073 39.5833 1.93967 39.9208 2.01315C40.2568 2.08615 40.5868 2.19308 40.903 2.33005C41.221 2.46799 41.525 2.63705 41.8108 2.83347C42.0978 3.03049 42.3658 3.25449 42.6108 3.50156C42.8578 3.75058 43.0808 4.02158 43.2748 4.31235C43.4708 4.60434 43.6398 4.91428 43.7772 5.23813C43.9142 5.56308 44.0212 5.90109 44.0934 6.24594C44.1664 6.59091 44.2054 6.94394 44.2104 7.29599C44.2104 7.29599 44.2104 37.1479 44.2101 37.1484C44.1891 37.8424 44.0511 38.5384 43.8027 39.1933C43.5557 39.8484 43.1977 40.4624 42.7389 40.9862C42.5089 41.2483 42.2549 41.4873 41.9799 41.6999C41.7069 41.912 41.4139 42.0969 41.1049 42.2539C40.7979 42.4099 40.4769 42.5368 40.1451 42.6314C39.8161 42.7264 39.4771 42.7895 39.1357 42.8154C31.1907 43.2485 23.2267 43.2485 15.2819 42.8154C14.6009 42.7624 13.9259 42.5664 13.3131 42.2549C12.6931 41.9398 12.1351 41.5068 11.6787 40.9869C11.2197 40.4619 10.8627 39.8479 10.6155 39.193C10.3675 38.5379 10.2285 37.843 10.2065 37.1479Z" stroke="#8B1EFF" stroke-width="0.283" stroke-miterlimit="10"/>
<rect x="12.8887" y="5.47166" width="28.63" height="34.35" rx="1.46" stroke="#00FFFF" stroke-width="0.28"/>
<path d="M38.6896 3.5864C31.0756 3.4874 23.3386 3.4874 15.7236 3.5864C15.4318 3.59042 15.1428 3.62143 14.8578 3.68149C14.7868 3.6965 14.7148 3.71249 14.6448 3.73141C14.5748 3.74948 14.5048 3.7695 14.4358 3.79147C14.2978 3.83542 14.1618 3.88449 14.0308 3.9415C13.8978 3.9985 13.7678 4.06149 13.6418 4.13144C13.5778 4.16647 13.5148 4.20346 13.4528 4.24142C13.3908 4.27951 13.3298 4.31943 13.2698 4.36142C13.0318 4.52646 12.8118 4.71445 12.6108 4.92343C12.5098 5.02744 12.4148 5.13742 12.3248 5.25351C12.2788 5.31052 12.2358 5.36948 12.1928 5.42941C12.1508 5.48849 12.1108 5.54843 12.0718 5.61044C11.9148 5.85544 11.7838 6.11447 11.6768 6.38644C11.6508 6.45444 11.6248 6.52341 11.6018 6.59348C11.5778 6.66342 11.5558 6.73349 11.5358 6.80344C11.4948 6.94443 11.4618 7.0864 11.4348 7.23044C11.3818 7.51645 11.3548 7.80649 11.3548 8.10251C11.3526 17.5191 11.3516 26.9371 11.3496 36.3541C11.3497 36.6476 11.3707 36.9375 11.4137 37.2235C11.4357 37.3665 11.4617 37.5085 11.4947 37.6505C11.5107 37.7215 11.5287 37.7915 11.5477 37.8615C11.5667 37.9325 11.5877 38.0025 11.6097 38.0725C11.6987 38.3506 11.8087 38.6195 11.9427 38.8766C11.9767 38.9415 12.0117 39.0055 12.0477 39.0686C12.0837 39.1316 12.1217 39.1936 12.1617 39.2545C12.2407 39.3756 12.3237 39.4935 12.4127 39.6056C12.5017 39.7185 12.5967 39.8275 12.6967 39.9315C12.7467 39.9825 12.7977 40.0335 12.8517 40.0835C12.9047 40.1325 12.9587 40.1815 13.0137 40.2275C13.2357 40.4126 13.4727 40.5725 13.7267 40.7065C13.7897 40.7395 13.8547 40.7716 13.9197 40.8015C13.9857 40.8315 14.0527 40.8595 14.1197 40.8866C14.2537 40.9386 14.3907 40.9835 14.5287 41.0216C14.8047 41.0965 15.0867 41.1425 15.3767 41.1576C23.2191 41.5847 31.1931 41.5847 39.0351 41.1577C39.3263 41.1417 39.6093 41.0958 39.8853 41.0217C40.0233 40.9837 40.1593 40.9387 40.2933 40.8867C40.3603 40.8597 40.4273 40.8318 40.4933 40.8017C40.5593 40.7707 40.6243 40.7387 40.6873 40.7048C40.9433 40.5708 41.1803 40.4107 41.3993 40.2258C41.5103 40.1338 41.6153 40.0348 41.7173 39.9308C41.7663 39.8788 41.8163 39.8248 41.8633 39.7697C41.9113 39.7158 41.9573 39.6598 42.0023 39.6037C42.1803 39.3778 42.3353 39.1367 42.4683 38.8818C42.5343 38.7538 42.5963 38.6228 42.6513 38.4878C42.6793 38.4207 42.7063 38.3528 42.7303 38.2838C42.7563 38.2158 42.7793 38.1467 42.8023 38.0768C42.8893 37.7998 42.9543 37.5167 42.9983 37.2297C43.0093 37.1577 43.0173 37.0847 43.0263 37.0128C43.0343 36.9398 43.0413 36.8668 43.0463 36.7938C43.0573 36.6478 43.0623 36.5007 43.0623 36.3547C43.0606 26.9375 43.0596 17.5195 43.0587 8.10202C43.0577 7.8071 43.0317 7.51413 42.9767 7.22409C42.9497 7.07907 42.9147 6.93613 42.8747 6.79611C42.8337 6.6561 42.7877 6.51804 42.7347 6.38303C42.6807 6.24704 42.6217 6.11411 42.5547 5.9841C42.5217 5.91904 42.4877 5.8541 42.4507 5.79013C42.4137 5.72702 42.3757 5.66403 42.3367 5.60202C42.1797 5.35703 41.9997 5.12912 41.7987 4.92014C41.7487 4.86813 41.6977 4.81711 41.6447 4.76706C41.5907 4.71713 41.5377 4.66806 41.4807 4.62106C41.3697 4.52609 41.2537 4.43808 41.1357 4.35605C40.8977 4.19308 40.6457 4.05405 40.3787 3.94003C40.3127 3.91208 40.2447 3.8851 40.1757 3.8591C40.1077 3.83408 40.0387 3.81003 39.9697 3.78903C39.8307 3.74606 39.6917 3.70908 39.5507 3.68002C39.2687 3.62204 38.9827 3.59006 38.6896 3.5864Z" stroke="#FF00FF" stroke-width="0.283465" stroke-miterlimit="10" stroke-linecap="round" stroke-linejoin="round"/>
<path d="M14.6592 25.8331C14.2686 25.8331 14.0293 25.5938 14.0293 25.1788V19.2754C14.0293 18.8604 14.2686 18.6211 14.6592 18.6211C15.0498 18.6211 15.2891 18.8604 15.2891 19.2754V21.4921C15.2891 21.5704 15.3526 21.6338 15.4308 21.6338H18.5751C18.6534 21.6338 18.7168 21.5703 18.7168 21.4921V19.2754C18.7168 18.8604 18.9512 18.6211 19.3418 18.6211C19.7324 18.6211 19.9717 18.8604 19.9717 19.2754V25.1788C19.9717 25.5938 19.7373 25.8331 19.3418 25.8331C18.9463 25.8331 18.7168 25.5938 18.7168 25.1788V22.8352C18.7168 22.7569 18.6533 22.6935 18.5751 22.6935H15.4308C15.3525 22.6935 15.2891 22.757 15.2891 22.8352V25.1788C15.2891 25.5938 15.0547 25.8331 14.6592 25.8331Z" fill="black"/>
<path d="M38.9497 22.548H36.8605C36.7699 22.548 36.7031 22.4642 36.7221 22.3756C36.8587 21.7369 37.3303 21.4093 37.9247 21.4093C38.5191 21.4093 38.9732 21.7241 39.0894 22.3824C39.1047 22.4689 39.0376 22.548 38.9497 22.548ZM37.9199 20.4668C36.4257 20.4668 35.4736 21.5312 35.4736 23.1817C35.4736 24.8322 36.4062 25.8526 37.9883 25.8526C38.7885 25.8526 39.3745 25.6748 39.8742 25.1198C40.0979 24.8714 40.038 24.5007 39.7419 24.3422C39.4925 24.2086 39.2088 24.3367 39.0695 24.4661C38.6268 24.8775 38.302 24.9151 37.9786 24.9151C37.2324 24.9151 36.7424 24.4304 36.6894 23.6069C36.6841 23.5248 36.7485 23.4551 36.8308 23.4551H39.785C40.0662 23.4551 40.2956 23.2303 40.302 22.9492C40.3347 21.5063 39.3595 20.4668 37.9199 20.4668Z" fill="black"/>
<path d="M27.0708 25.2079V21.0909C27.0708 20.6953 27.3101 20.4706 27.652 20.4706C27.806 20.4706 27.9393 20.5171 28.0411 20.6024C28.1019 20.6533 28.1463 20.7228 28.1765 20.7826C28.2103 20.8496 28.2914 20.8775 28.36 20.847C28.629 20.7276 29.2541 20.4755 29.7374 20.4755C30.3506 20.4755 30.9193 20.7978 31.1129 20.9201C31.1564 20.9476 31.2113 20.9492 31.2564 20.9245C31.4729 20.8057 32.1367 20.4755 32.824 20.4755C33.8447 20.4755 34.5138 21.1642 34.5138 22.1995V25.208C34.5138 25.6134 34.2696 25.8478 33.9082 25.8478C33.5468 25.8478 33.2977 25.6134 33.2977 25.208V22.4974C33.2977 21.8626 32.9657 21.5012 32.3698 21.5012C31.7739 21.5012 31.3832 21.931 31.3832 22.5512V25.208C31.3832 25.6134 31.1536 25.8478 30.7923 25.8478C30.4309 25.8478 30.2013 25.6134 30.2013 25.208V22.4339C30.2013 21.8577 29.8496 21.5011 29.2831 21.5011C28.7166 21.5011 28.2869 21.9553 28.2869 22.5804V25.2079C28.2869 25.6133 28.0378 25.8477 27.6764 25.8477C27.315 25.8477 27.0708 25.6133 27.0708 25.2079Z" fill="black"/>
<path d="M23.585 20.4668C22.0762 20.4668 21.0801 21.4922 21.0801 23.1621C21.0801 24.832 22.0664 25.8526 23.585 25.8526C25.1036 25.8526 26.0899 24.8418 26.0899 23.1621C26.0899 21.4824 25.0938 20.4668 23.585 20.4668ZM23.585 24.8907C22.8135 24.8907 22.3155 24.2657 22.3155 23.1622C22.3155 22.0587 22.8184 21.4337 23.585 21.4337C24.3516 21.4337 24.8545 22.0636 24.8545 23.1622C24.8545 24.2608 24.3564 24.8907 23.585 24.8907Z" fill="black"/>
</svg>
