<svg width="54" height="55" viewBox="0 0 54 55" fill="none" xmlns="http://www.w3.org/2000/svg">
<rect x="1.84998" y="2.7984" width="50.3" height="50.3" rx="3" stroke="#8B1EFF" stroke-width="0.28"/>
<path d="M10.2065 38.0963V8.24426C10.2125 7.89233 10.252 7.53931 10.325 7.19421C10.397 6.84924 10.503 6.51221 10.6411 6.18738C10.9141 5.54333 11.3131 4.94934 11.8071 4.45007C12.2961 3.95605 12.8791 3.55396 13.5145 3.27808C13.8315 3.14014 14.1605 3.03418 14.4979 2.96094C14.8349 2.88794 15.1779 2.84888 15.5214 2.84497C19.4174 2.81396 23.3134 2.79895 27.2079 2.79895C31.1049 2.79895 34.9999 2.81396 38.8963 2.84509C39.2393 2.84912 39.5833 2.88806 39.9208 2.96155C40.2568 3.03455 40.5868 3.14148 40.903 3.27844C41.221 3.41638 41.525 3.58545 41.8108 3.78186C42.0978 3.97888 42.3658 4.20288 42.6108 4.44995C42.8578 4.69897 43.0808 4.96997 43.2748 5.26074C43.4708 5.55273 43.6398 5.86267 43.7772 6.18652C43.9142 6.51147 44.0212 6.84949 44.0934 7.19434C44.1664 7.53931 44.2054 7.89233 44.2104 8.24438C44.2104 8.24438 44.2104 38.0963 44.2101 38.0968C44.1891 38.7908 44.0511 39.4868 43.8027 40.1417C43.5557 40.7968 43.1977 41.4108 42.7389 41.9346C42.5089 42.1967 42.2549 42.4357 41.9799 42.6483C41.7069 42.8604 41.4139 43.0453 41.1049 43.2023C40.7979 43.3583 40.4769 43.4852 40.1451 43.5798C39.8161 43.6748 39.4771 43.7379 39.1357 43.7638C31.1907 44.1969 23.2267 44.1969 15.2819 43.7638C14.6009 43.7108 13.9259 43.5148 13.3131 43.2032C12.6931 42.8882 12.1351 42.4552 11.6787 41.9353C11.2197 41.4103 10.8627 40.7963 10.6155 40.1414C10.3675 39.4863 10.2285 38.7914 10.2065 38.0963Z" stroke="#8B1EFF" stroke-width="0.283" stroke-miterlimit="10"/>
<rect x="12.8885" y="6.4201" width="28.63" height="34.35" rx="1.46" stroke="#00FFFF" stroke-width="0.28"/>
<path d="M38.6898 4.53482C31.0758 4.43582 23.3388 4.43582 15.7238 4.53482C15.4321 4.53885 15.1431 4.56985 14.858 4.62991C14.787 4.64493 14.7151 4.66092 14.6451 4.67984C14.5751 4.69791 14.5051 4.71793 14.4361 4.7399C14.298 4.78384 14.162 4.83292 14.0311 4.88992C13.8981 4.94693 13.7681 5.00992 13.6421 5.07986C13.578 5.1149 13.515 5.15189 13.453 5.18985C13.3911 5.22794 13.33 5.26785 13.2701 5.30984C13.0321 5.47488 12.8121 5.66287 12.6111 5.87186C12.5101 5.97586 12.4151 6.08585 12.3251 6.20193C12.2791 6.25894 12.2361 6.3179 12.1931 6.37784C12.151 6.43692 12.1111 6.49686 12.0721 6.55887C11.9151 6.80386 11.7841 7.0629 11.677 7.33487C11.651 7.40286 11.625 7.47183 11.6021 7.5419C11.578 7.61185 11.556 7.68192 11.5361 7.75186C11.4951 7.89285 11.4621 8.03482 11.4351 8.17886C11.382 8.46487 11.3551 8.75491 11.3551 9.05093C11.3528 18.4676 11.3519 27.8855 11.3499 37.3025C11.35 37.596 11.371 37.8859 11.414 38.1719C11.436 38.315 11.462 38.4569 11.4949 38.5989C11.511 38.67 11.5289 38.7399 11.548 38.81C11.567 38.8809 11.588 38.951 11.61 39.0209C11.699 39.299 11.809 39.5679 11.9429 39.825C11.977 39.8899 12.0119 39.9539 12.048 40.017C12.084 40.08 12.1219 40.142 12.162 40.2029C12.241 40.324 12.324 40.4419 12.4129 40.554C12.502 40.6669 12.597 40.7759 12.6969 40.8799C12.7469 40.9309 12.798 40.982 12.852 41.0319C12.905 41.081 12.959 41.1299 13.0139 41.1759C13.2359 41.361 13.4729 41.5209 13.727 41.6549C13.7899 41.6879 13.8549 41.72 13.92 41.7499C13.9859 41.7799 14.0529 41.8079 14.1199 41.835C14.254 41.887 14.3909 41.9319 14.5289 41.97C14.8049 42.045 15.087 42.091 15.377 42.106C23.2194 42.5331 31.1934 42.5331 39.0353 42.1061C39.3265 42.0901 39.6095 42.0442 39.8855 41.9701C40.0235 41.9322 40.1595 41.8871 40.2935 41.8351C40.3605 41.8081 40.4276 41.7802 40.4935 41.7502C40.5595 41.7191 40.6245 41.6872 40.6875 41.6532C40.9435 41.5192 41.1805 41.3592 41.3995 41.1742C41.5105 41.0822 41.6155 40.9832 41.7175 40.8792C41.7665 40.8272 41.8165 40.7732 41.8635 40.7182C41.9115 40.6642 41.9576 40.6082 42.0025 40.5522C42.1805 40.3262 42.3355 40.0851 42.4685 39.8302C42.5345 39.7022 42.5965 39.5712 42.6516 39.4362C42.6795 39.3692 42.7065 39.3012 42.7305 39.2322C42.7565 39.1642 42.7795 39.0951 42.8026 39.0252C42.8895 38.7482 42.9545 38.4651 42.9985 38.1781C43.0096 38.1061 43.0175 38.0331 43.0266 37.9612C43.0345 37.8882 43.0415 37.8152 43.0465 37.7422C43.0575 37.5962 43.0625 37.4491 43.0625 37.3031C43.0609 27.8859 43.0598 18.4679 43.059 9.05045C43.058 8.75552 43.032 8.46255 42.977 8.17252C42.95 8.0275 42.9149 7.88455 42.8749 7.74454C42.834 7.60452 42.7879 7.46646 42.735 7.33145C42.6809 7.19547 42.6219 7.06253 42.5549 6.93253C42.5219 6.86746 42.4879 6.80252 42.451 6.73856C42.4139 6.67545 42.3759 6.61246 42.3369 6.55045C42.1799 6.30545 41.9999 6.07755 41.799 5.86856C41.7489 5.81656 41.6979 5.76553 41.645 5.71548C41.5909 5.66556 41.5379 5.61649 41.481 5.56949C41.3699 5.47452 41.2539 5.38651 41.136 5.30447C40.8979 5.14151 40.6459 5.00247 40.3789 4.88846C40.313 4.8605 40.2449 4.83353 40.1759 4.80753C40.1079 4.7825 40.0389 4.75845 39.9699 4.73746C39.8309 4.69449 39.692 4.6575 39.5509 4.62845C39.269 4.57046 38.9829 4.53848 38.6898 4.53482Z" stroke="#FF00FF" stroke-width="0.283465" stroke-miterlimit="10" stroke-linecap="round" stroke-linejoin="round"/>
<path d="M16.011 13.9732C16.011 13.5826 16.2776 13.3283 16.7551 13.3283H21.2448C21.7223 13.3283 21.9951 13.5826 21.9951 13.9732C21.9951 14.3639 21.7223 14.6244 21.2448 14.6244H16.7551C16.2776 14.6244 16.011 14.3639 16.011 13.9732ZM16.011 16.5901C16.011 16.1995 16.2776 15.9452 16.7551 15.9452H21.2448C21.7223 15.9452 21.9951 16.1932 21.9951 16.5901C21.9951 16.9808 21.7223 17.2412 21.2448 17.2412H16.7551C16.2776 17.2412 16.011 16.9808 16.011 16.5901Z" fill="black"/>
<path d="M16.8358 33.2259C16.8358 32.7856 17.1397 32.5004 17.673 32.5004H20.3147C20.848 32.5004 21.1456 32.7856 21.1456 33.2197C21.1456 33.66 20.848 33.9514 20.3147 33.9514H17.673C17.1335 33.9514 16.8358 33.66 16.8358 33.2259Z" fill="black"/>
<path fill-rule="evenodd" clip-rule="evenodd" d="M31.9775 28.2743C32.0774 27.8951 31.8511 27.5067 31.4719 27.4067C31.0928 27.3068 30.7043 27.5331 30.6044 27.9123C30.1213 29.7449 29.344 33.3118 30.2956 37.4705C30.3831 37.8528 30.7639 38.0917 31.1461 38.0043C31.5284 37.9168 31.7673 37.536 31.6799 37.1538C30.8043 33.3277 31.5156 30.0264 31.9775 28.2743ZM32.8385 28.6119C32.8602 28.2203 33.1952 27.9205 33.5867 27.9422C35.313 28.0379 37.3747 27.9751 39.0202 27.693C39.4067 27.6267 39.7737 27.8863 39.8399 28.2728C39.9062 28.6593 39.6466 29.0263 39.2601 29.0926C38.8011 29.1713 38.3158 29.2338 37.8173 29.2816C37.7441 29.2886 37.6884 29.3507 37.69 29.4243C37.6982 29.7934 37.708 30.1426 37.7189 30.473C37.7215 30.5535 37.7915 30.615 37.8716 30.6072C38.3524 30.5598 38.8095 30.5008 39.2214 30.4302C39.6079 30.3639 39.9749 30.6235 40.0412 31.01C40.1075 31.3965 39.8479 31.7635 39.4614 31.8297C38.9884 31.9108 38.4649 31.9773 37.9173 32.0293C37.8425 32.0364 37.7864 32.1009 37.7901 32.1759C37.794 32.2545 37.7979 32.3316 37.8019 32.4073C37.8169 32.6984 37.832 32.9713 37.846 33.2267L37.8461 33.2269C37.8633 33.5401 37.8792 33.8268 37.8917 34.0885C37.8942 34.1402 37.925 34.1863 37.9717 34.2088C38.3651 34.3981 38.6623 34.5683 38.9241 34.7573C39.2629 35.002 39.527 35.2695 39.8406 35.5871L39.9611 35.7089C40.2373 35.9873 40.2355 36.4368 39.9571 36.713C39.6787 36.9892 39.2292 36.9874 38.953 36.709L38.8404 36.5953L38.8404 36.5953C38.5083 36.2598 38.3305 36.0802 38.0927 35.9085C38.0846 35.9027 38.0764 35.8968 38.0681 35.8909C37.9847 35.832 37.8715 35.8867 37.8534 35.9872C37.8373 36.0759 37.8179 36.1616 37.7945 36.2443C37.6611 36.7159 37.4099 37.0612 37.0377 37.3427C36.2955 37.9038 35.2146 37.9695 34.3708 37.7215C33.5179 37.4709 32.5902 36.7824 32.6372 35.575C32.6592 35.0086 32.8934 34.54 33.2694 34.1983C33.6295 33.8711 34.087 33.688 34.5387 33.5966C35.0822 33.4866 35.6863 33.4949 36.2659 33.6003C36.357 33.6168 36.4414 33.545 36.4363 33.4526L36.4297 33.3324L36.4297 33.3321L36.4296 33.3317L36.4296 33.3316C36.4153 33.0722 36.3997 32.7897 36.3838 32.4806C36.3803 32.4133 36.3768 32.3449 36.3733 32.2753C36.3694 32.1983 36.3041 32.1389 36.2271 32.142C35.2305 32.1825 34.2405 32.179 33.3977 32.1323C33.0062 32.1106 32.7064 31.7757 32.7281 31.3841C32.7498 30.9926 33.0848 30.6928 33.4763 30.7145C34.278 30.7589 35.2217 30.7616 36.1679 30.7233C36.2446 30.7201 36.3042 30.6555 36.3016 30.5788C36.2905 30.2469 36.2804 29.8961 36.2719 29.5252C36.2702 29.447 36.2048 29.3854 36.1266 29.3879C35.2249 29.4173 34.328 29.4055 33.5081 29.3601C33.1166 29.3384 32.8168 29.0034 32.8385 28.6119ZM34.8203 34.9884C35.289 34.8935 35.8761 34.934 36.4028 35.0901C36.4612 35.1075 36.5002 35.162 36.4988 35.2228C36.4923 35.5217 36.4678 35.7174 36.428 35.858C36.3842 36.0131 36.3228 36.103 36.1812 36.21C35.8958 36.4259 35.3163 36.5193 34.7711 36.3591C34.235 36.2016 34.045 35.9146 34.0561 35.6301C34.0631 35.4504 34.1259 35.3388 34.2243 35.2493C34.3387 35.1454 34.5331 35.0465 34.8203 34.9884Z" fill="black"/>
</svg>
