<svg width="54" height="54" viewBox="0 0 54 54" fill="none" xmlns="http://www.w3.org/2000/svg">
<rect x="1.85" y="1.84998" width="50.3" height="50.3" rx="3" stroke="#8B1EFF" stroke-width="0.28"/>
<path d="M10.2065 37.1479V7.2959C10.2125 6.94397 10.252 6.59094 10.325 6.24585C10.397 5.90088 10.503 5.56384 10.6411 5.23901C10.9141 4.59497 11.3131 4.00098 11.8071 3.50171C12.2961 3.00769 12.8791 2.60559 13.5145 2.32971C13.8315 2.19177 14.1605 2.08582 14.4979 2.01257C14.8349 1.93958 15.1779 1.90051 15.5214 1.89661C19.4174 1.8656 23.3134 1.85059 27.2079 1.85059C31.1049 1.85059 34.9999 1.8656 38.8963 1.89673C39.2393 1.90076 39.5833 1.9397 39.9208 2.01318C40.2568 2.08618 40.5868 2.19312 40.903 2.33008C41.221 2.46802 41.525 2.63708 41.8108 2.8335C42.0978 3.03052 42.3658 3.25452 42.6108 3.50159C42.8578 3.75061 43.0808 4.02161 43.2748 4.31238C43.4708 4.60437 43.6398 4.91431 43.7772 5.23816C43.9142 5.56311 44.0212 5.90112 44.0934 6.24597C44.1664 6.59094 44.2054 6.94397 44.2104 7.29602C44.2104 7.29602 44.2104 37.1479 44.2101 37.1484C44.1891 37.8424 44.0511 38.5385 43.8027 39.1934C43.5557 39.8484 43.1977 40.4624 42.7389 40.9862C42.5089 41.2483 42.2549 41.4873 41.9799 41.7C41.7069 41.912 41.4139 42.0969 41.1049 42.2539C40.7979 42.4099 40.4769 42.5369 40.1451 42.6315C39.8161 42.7264 39.4771 42.7896 39.1357 42.8154C31.1907 43.2485 23.2267 43.2485 15.2819 42.8154C14.6009 42.7625 13.9259 42.5664 13.3131 42.2549C12.6931 41.9398 12.1351 41.5068 11.6787 40.9869C11.2197 40.4619 10.8627 39.8479 10.6155 39.193C10.3675 38.538 10.2285 37.843 10.2065 37.1479Z" stroke="#8B1EFF" stroke-width="0.283" stroke-miterlimit="10"/>
<rect x="12.8886" y="5.47168" width="28.63" height="34.35" rx="1.46" stroke="#00FFFF" stroke-width="0.28"/>
<path d="M38.6898 3.58646C31.0758 3.48746 23.3388 3.48746 15.7238 3.58646C15.4321 3.59048 15.1431 3.62149 14.858 3.68155C14.787 3.69656 14.7151 3.71255 14.6451 3.73148C14.5751 3.74954 14.5051 3.76956 14.4361 3.79153C14.298 3.83548 14.162 3.88455 14.0311 3.94156C13.8981 3.99857 13.7681 4.06155 13.6421 4.1315C13.578 4.16653 13.515 4.20352 13.453 4.24149C13.3911 4.27957 13.33 4.31949 13.2701 4.36148C13.0321 4.52652 12.8121 4.71451 12.6111 4.92349C12.5101 5.0275 12.4151 5.13748 12.3251 5.25357C12.2791 5.31058 12.2361 5.36954 12.1931 5.42947C12.151 5.48856 12.1111 5.54849 12.0721 5.6105C11.9151 5.8555 11.7841 6.11453 11.677 6.38651C11.651 6.4545 11.625 6.52347 11.6021 6.59354C11.578 6.66348 11.556 6.73355 11.5361 6.8035C11.4951 6.94449 11.4621 7.08646 11.4351 7.2305C11.382 7.51651 11.3551 7.80655 11.3551 8.10257C11.3528 17.5192 11.3519 26.9372 11.3499 36.3542C11.35 36.6476 11.371 36.9375 11.414 37.2235C11.436 37.3666 11.462 37.5086 11.4949 37.6505C11.511 37.7216 11.5289 37.7915 11.548 37.8616C11.567 37.9325 11.588 38.0026 11.61 38.0725C11.699 38.3506 11.809 38.6195 11.9429 38.8766C11.977 38.9416 12.0119 39.0055 12.048 39.0686C12.084 39.1316 12.1219 39.1936 12.162 39.2545C12.241 39.3756 12.324 39.4936 12.4129 39.6056C12.502 39.7185 12.597 39.8275 12.6969 39.9315C12.7469 39.9826 12.798 40.0336 12.852 40.0835C12.905 40.1326 12.959 40.1815 13.0139 40.2276C13.2359 40.4126 13.4729 40.5725 13.727 40.7066C13.7899 40.7395 13.8549 40.7716 13.92 40.8015C13.9859 40.8316 14.0529 40.8595 14.1199 40.8866C14.254 40.9386 14.3909 40.9836 14.5289 41.0216C14.8049 41.0966 15.087 41.1426 15.377 41.1576C23.2194 41.5847 31.1934 41.5847 39.0353 41.1577C39.3265 41.1418 39.6095 41.0959 39.8855 41.0218C40.0235 40.9838 40.1595 40.9388 40.2935 40.8867C40.3605 40.8598 40.4276 40.8318 40.4935 40.8018C40.5595 40.7708 40.6245 40.7388 40.6875 40.7049C40.9435 40.5708 41.1805 40.4108 41.3995 40.2259C41.5105 40.1338 41.6155 40.0348 41.7175 39.9308C41.7665 39.8788 41.8165 39.8249 41.8635 39.7698C41.9115 39.7159 41.9576 39.6598 42.0025 39.6038C42.1805 39.3778 42.3355 39.1367 42.4685 38.8819C42.5345 38.7538 42.5965 38.6228 42.6516 38.4878C42.6795 38.4208 42.7065 38.3528 42.7305 38.2838C42.7565 38.2159 42.7795 38.1468 42.8026 38.0768C42.8895 37.7998 42.9545 37.5168 42.9985 37.2298C43.0096 37.1577 43.0175 37.0847 43.0266 37.0128C43.0345 36.9398 43.0415 36.8669 43.0465 36.7939C43.0575 36.6479 43.0625 36.5008 43.0625 36.3548C43.0609 26.9375 43.0598 17.5196 43.059 8.10208C43.058 7.80716 43.032 7.51419 42.977 7.22415C42.95 7.07913 42.9149 6.93619 42.8749 6.79617C42.834 6.65616 42.7879 6.5181 42.735 6.38309C42.6809 6.2471 42.6219 6.11417 42.5549 5.98416C42.5219 5.9191 42.4879 5.85416 42.451 5.79019C42.4139 5.72708 42.3759 5.66409 42.3369 5.60208C42.1799 5.35709 41.9999 5.12918 41.799 4.9202C41.7489 4.86819 41.6979 4.81717 41.645 4.76712C41.5909 4.71719 41.5379 4.66812 41.481 4.62112C41.3699 4.52615 41.2539 4.43814 41.136 4.35611C40.8979 4.19315 40.6459 4.05411 40.3789 3.94009C40.313 3.91214 40.2449 3.88516 40.1759 3.85916C40.1079 3.83414 40.0389 3.81009 39.9699 3.78909C39.8309 3.74612 39.692 3.70914 39.5509 3.68008C39.269 3.6221 38.9829 3.59012 38.6898 3.58646Z" stroke="#FF00FF" stroke-width="0.283465" stroke-miterlimit="10" stroke-linecap="round" stroke-linejoin="round"/>
<path fill-rule="evenodd" clip-rule="evenodd" d="M25.21 19.365C25.21 18.3764 26.0114 17.575 27 17.575C27.9886 17.575 28.79 18.3764 28.79 19.365V19.3686V19.3722V19.3759V19.3796V19.3834V19.3873V19.3912V19.3952V19.3992V19.4033V19.4075V19.4117V19.4159V19.4203V19.4247V19.4291V19.4336V19.4382V19.4428V19.4475V19.4522V19.457V19.4619V19.4668V19.4718V19.4768V19.4818V19.487V19.4922V19.4974V19.5027V19.508V19.5134V19.5189V19.5244V19.5299V19.5356V19.5412V19.5469V19.5527V19.5585V19.5644V19.5703V19.5763V19.5823V19.5884V19.5945V19.6006V19.6069V19.6131V19.6194V19.6258V19.6322V19.6387V19.6452V19.6517V19.6583V19.665V19.6717V19.6784V19.6852V19.6921V19.6989V19.7059V19.7128V19.7198V19.7269V19.734V19.7411V19.7483V19.7556V19.7628V19.7702V19.7775V19.7849V19.7924V19.7999V19.8074V19.8149V19.8226V19.8302V19.8379V19.8456V19.8534V19.8612V19.8691V19.877V19.8849V19.8928V19.9008V19.9089V19.917V19.9251V19.9332V19.9414V19.9497V19.9579V19.9662V19.9746V19.9829V19.9913V19.9998V20.0082V20.0168V20.0253V20.0339V20.0425V20.0511V20.0598V20.0685V20.0773V20.086V20.0948V20.1037V20.1126V20.1215V20.1304V20.1394V20.1483V20.1574V20.1664V20.1755V20.1846V20.1938V20.2029V20.2121V20.2214V20.2306V20.2399V20.2492V20.2585V20.2679V20.2773V20.2867V20.2961V20.3056V20.3151V20.3246V20.3342V20.3437V20.3533V20.3629V20.3726V20.3822V20.3919V20.4016V20.4114V20.4211V20.4309V20.4407V20.4505V20.4604V20.4702V20.4801V20.49V20.5V20.5099V20.5199V20.5299V20.5399V20.5499V20.5599V20.57V20.5801V20.5902V20.6003V20.6104V20.6206V20.6307V20.6409V20.6511V20.6613V20.6716V20.6818V20.6921V20.7023V20.7126V20.7229V20.7333V20.7436V20.7539V20.7643V20.7747V20.7851V20.7955V20.8059V20.8163V20.8267V20.8372V20.8476V20.8581V20.8686V20.8791V20.8896V20.9001V20.9106V20.9211V20.9317V20.9422V20.9528V20.9633V20.9739V20.9845V20.9951V21.0057V21.0163V21.0269V21.0375V21.0481V21.0587V21.0694V21.08V21.0906V21.1013V21.1119V21.1226V21.1276C28.79 21.1301 28.79 21.1326 28.79 21.1351V22.0351C28.79 22.1124 28.7273 22.1751 28.65 22.1751H25.3499C25.3279 22.1751 25.31 22.1572 25.31 22.1351C25.31 21.7429 24.9921 21.4251 24.6 21.4251C24.2078 21.4251 23.89 21.7429 23.89 22.1351C23.89 22.1572 23.8721 22.1751 23.85 22.1751H23.0001C22.608 22.1751 22.2901 22.4929 22.2901 22.8851C22.2901 23.2772 22.608 23.5951 23.0001 23.5951H23.75C23.8273 23.5951 23.89 23.6577 23.89 23.7351V26.035C23.89 26.1124 23.8273 26.175 23.75 26.175H23C22.6079 26.175 22.29 26.4929 22.29 26.885C22.29 27.2772 22.6079 27.595 23 27.595H23.75C23.8273 27.595 23.89 27.6577 23.89 27.735V28.635C23.89 29.0272 24.2078 29.345 24.6 29.345C24.9921 29.345 25.31 29.0272 25.31 28.635V27.735C25.31 27.6577 25.3726 27.595 25.45 27.595H28.65C28.7273 27.595 28.79 27.6577 28.79 27.735V28.635C28.79 29.0272 29.1078 29.345 29.5 29.345C29.8921 29.345 30.21 29.0272 30.21 28.635V27.735C30.21 27.6577 30.2726 27.595 30.35 27.595H31C31.3922 27.595 31.71 27.2772 31.71 26.885C31.71 26.4929 31.3922 26.175 31 26.175H30.35C30.2726 26.175 30.21 26.1124 30.21 26.035L30.21 23.7351C30.21 23.6577 30.2726 23.5951 30.35 23.5951H31.0001C31.3922 23.5951 31.7101 23.2772 31.7101 22.8851C31.7101 22.4929 31.3922 22.1751 31.0001 22.1751H30.2125C30.2111 22.1751 30.21 22.1739 30.21 22.1725V22.1629V22.1531V22.1434V22.1336V22.1239V22.1141V22.1042V22.0944V22.0845V22.0747V22.0648V22.0548V22.0449V22.0349V22.0249V22.0149V22.0049V21.9949V21.9848V21.9747V21.9646V21.9545V21.9444V21.9342V21.9241V21.9139V21.9037V21.8935V21.8832V21.873V21.8627V21.8524V21.8421V21.8318V21.8215V21.8112V21.8008V21.7905V21.7801V21.7697V21.7593V21.7489V21.7385V21.728V21.7176V21.7071V21.6967V21.6862V21.6757V21.6652V21.6547V21.6442V21.6336V21.6231V21.6126V21.602V21.5914V21.5809V21.5703V21.5597V21.5491V21.5385V21.5279V21.5173V21.5067V21.496V21.4854V21.4748V21.4641V21.4535V21.4428V21.4322V21.4215V21.4109V21.4002V21.3895V21.3789V21.3682V21.3575V21.3468V21.3361V21.3255V21.3148V21.3041V21.2934V21.2827V21.272V21.2614V21.2507V21.24V21.2293V21.2186V21.2079V21.1973V21.1866V21.1759V21.1652V21.1546V21.1439V21.1333V21.1226V21.1119V21.1013V21.0906V21.08V21.0694V21.0587V21.0481V21.0375V21.0269V21.0163V21.0057V20.9951V20.9845V20.9739V20.9633V20.9528V20.9422V20.9317V20.9211V20.9106V20.9001V20.8896V20.8791V20.8686V20.8581V20.8476V20.8372V20.8267V20.8163V20.8059V20.7955V20.7851V20.7747V20.7643V20.7539V20.7436V20.7333V20.7229V20.7126V20.7023V20.6921V20.6818V20.6716V20.6613V20.6511V20.6409V20.6307V20.6206V20.6104V20.6003V20.5902V20.5801V20.57V20.5599V20.5499V20.5399V20.5299V20.5199V20.5099V20.5V20.49V20.4801V20.4702V20.4604V20.4505V20.4407V20.4309V20.4211V20.4114V20.4016V20.3919V20.3822V20.3726V20.3629V20.3533V20.3437V20.3342V20.3246V20.3151V20.3056V20.2961V20.2867V20.2773V20.2679V20.2585V20.2492V20.2399V20.2306V20.2214V20.2121V20.2029V20.1938V20.1846V20.1755V20.1664V20.1574V20.1483V20.1394V20.1304V20.1215V20.1126V20.1037V20.0948V20.086V20.0773V20.0685V20.0598V20.0511V20.0425V20.0339V20.0253V20.0168V20.0082V19.9998V19.9913V19.9829V19.9746V19.9662V19.9579V19.9497V19.9414V19.9332V19.9251V19.917V19.9089V19.9008V19.8928V19.8849V19.877V19.8691V19.8612V19.8534V19.8456V19.8379V19.8302V19.8226V19.8149V19.8074V19.7999V19.7924V19.7849V19.7775V19.7702V19.7628V19.7556V19.7483V19.7411V19.734V19.7269V19.7198V19.7128V19.7059V19.6989V19.6921V19.6852V19.6784V19.6717V19.665V19.6583V19.6517V19.6452V19.6387V19.6322V19.6258V19.6194V19.6131V19.6069V19.6006V19.5945V19.5884V19.5823V19.5763V19.5703V19.5644V19.5585V19.5527V19.5469V19.5412V19.5356V19.5299V19.5244V19.5189V19.5134V19.508V19.5027V19.4974V19.4922V19.487V19.4818V19.4768V19.4718V19.4668V19.4619V19.457V19.4522V19.4475V19.4428V19.4382V19.4336V19.4291V19.4247V19.4203V19.4159V19.4117V19.4075V19.4033V19.3992V19.3952V19.3912V19.3873V19.3834V19.3796V19.3759V19.3722V19.3686V19.365C30.21 17.5922 28.7728 16.155 27 16.155C25.2272 16.155 23.79 17.5922 23.79 19.365V19.8651C23.79 20.2572 24.1079 20.5751 24.5 20.5751C24.8921 20.5751 25.21 20.2572 25.21 19.8651V19.365ZM28.79 26.035C28.79 26.1124 28.7273 26.175 28.65 26.175H25.45C25.3726 26.175 25.31 26.1124 25.31 26.035L25.31 23.7351C25.31 23.6577 25.3726 23.5951 25.45 23.5951H28.65C28.7273 23.5951 28.79 23.6577 28.79 23.7351L28.79 26.035Z" fill="black"/>
</svg>
