<svg width="54" height="54" viewBox="0 0 54 54" fill="none" xmlns="http://www.w3.org/2000/svg">
<rect x="1.85" y="1.84998" width="50.3" height="50.3" rx="3" stroke="#8B1EFF" stroke-width="0.28"/>
<path d="M10.2065 37.1479V7.2959C10.2125 6.94397 10.252 6.59094 10.325 6.24585C10.397 5.90088 10.503 5.56384 10.6411 5.23901C10.9141 4.59497 11.3131 4.00098 11.8071 3.50171C12.2961 3.00769 12.8791 2.60559 13.5145 2.32971C13.8315 2.19177 14.1605 2.08582 14.4979 2.01257C14.8349 1.93958 15.1779 1.90051 15.5214 1.89661C19.4174 1.8656 23.3134 1.85059 27.2079 1.85059C31.1049 1.85059 34.9999 1.8656 38.8963 1.89673C39.2393 1.90076 39.5833 1.9397 39.9208 2.01318C40.2568 2.08618 40.5868 2.19312 40.903 2.33008C41.221 2.46802 41.525 2.63708 41.8108 2.8335C42.0978 3.03052 42.3658 3.25452 42.6108 3.50159C42.8578 3.75061 43.0808 4.02161 43.2748 4.31238C43.4708 4.60437 43.6398 4.91431 43.7772 5.23816C43.9142 5.56311 44.0212 5.90112 44.0934 6.24597C44.1664 6.59094 44.2054 6.94397 44.2104 7.29602C44.2104 7.29602 44.2104 37.1479 44.2101 37.1484C44.1891 37.8424 44.0511 38.5385 43.8027 39.1934C43.5557 39.8484 43.1977 40.4624 42.7389 40.9862C42.5089 41.2483 42.2549 41.4873 41.9799 41.7C41.7069 41.912 41.4139 42.0969 41.1049 42.2539C40.7979 42.4099 40.4769 42.5369 40.1451 42.6315C39.8161 42.7264 39.4771 42.7896 39.1357 42.8154C31.1907 43.2485 23.2267 43.2485 15.2819 42.8154C14.6009 42.7625 13.9259 42.5664 13.3131 42.2549C12.6931 41.9398 12.1351 41.5068 11.6787 40.9869C11.2197 40.4619 10.8627 39.8479 10.6155 39.193C10.3675 38.538 10.2285 37.843 10.2065 37.1479Z" stroke="#8B1EFF" stroke-width="0.283" stroke-miterlimit="10"/>
<rect x="12.8886" y="5.47168" width="28.63" height="34.35" rx="1.46" stroke="#00FFFF" stroke-width="0.28"/>
<path d="M38.6898 3.58646C31.0758 3.48746 23.3388 3.48746 15.7238 3.58646C15.4321 3.59048 15.1431 3.62149 14.858 3.68155C14.787 3.69656 14.7151 3.71255 14.6451 3.73148C14.5751 3.74954 14.5051 3.76956 14.4361 3.79153C14.298 3.83548 14.162 3.88455 14.0311 3.94156C13.8981 3.99857 13.7681 4.06155 13.6421 4.1315C13.578 4.16653 13.515 4.20352 13.453 4.24149C13.3911 4.27957 13.33 4.31949 13.2701 4.36148C13.0321 4.52652 12.8121 4.71451 12.6111 4.92349C12.5101 5.0275 12.4151 5.13748 12.3251 5.25357C12.2791 5.31058 12.2361 5.36954 12.1931 5.42947C12.151 5.48856 12.1111 5.54849 12.0721 5.6105C11.9151 5.8555 11.7841 6.11453 11.677 6.38651C11.651 6.4545 11.625 6.52347 11.6021 6.59354C11.578 6.66348 11.556 6.73355 11.5361 6.8035C11.4951 6.94449 11.4621 7.08646 11.4351 7.2305C11.382 7.51651 11.3551 7.80655 11.3551 8.10257C11.3528 17.5192 11.3519 26.9372 11.3499 36.3542C11.35 36.6476 11.371 36.9375 11.414 37.2235C11.436 37.3666 11.462 37.5086 11.4949 37.6505C11.511 37.7216 11.5289 37.7915 11.548 37.8616C11.567 37.9325 11.588 38.0026 11.61 38.0725C11.699 38.3506 11.809 38.6195 11.9429 38.8766C11.977 38.9416 12.0119 39.0055 12.048 39.0686C12.084 39.1316 12.1219 39.1936 12.162 39.2545C12.241 39.3756 12.324 39.4936 12.4129 39.6056C12.502 39.7185 12.597 39.8275 12.6969 39.9315C12.7469 39.9826 12.798 40.0336 12.852 40.0835C12.905 40.1326 12.959 40.1815 13.0139 40.2276C13.2359 40.4126 13.4729 40.5725 13.727 40.7066C13.7899 40.7395 13.8549 40.7716 13.92 40.8015C13.9859 40.8316 14.0529 40.8595 14.1199 40.8866C14.254 40.9386 14.3909 40.9836 14.5289 41.0216C14.8049 41.0966 15.087 41.1426 15.377 41.1576C23.2194 41.5847 31.1934 41.5847 39.0353 41.1577C39.3265 41.1418 39.6095 41.0959 39.8855 41.0218C40.0235 40.9838 40.1595 40.9388 40.2935 40.8867C40.3605 40.8598 40.4276 40.8318 40.4935 40.8018C40.5595 40.7708 40.6245 40.7388 40.6875 40.7049C40.9435 40.5708 41.1805 40.4108 41.3995 40.2259C41.5105 40.1338 41.6155 40.0348 41.7175 39.9308C41.7665 39.8788 41.8165 39.8249 41.8635 39.7698C41.9115 39.7159 41.9576 39.6598 42.0025 39.6038C42.1805 39.3778 42.3355 39.1367 42.4685 38.8819C42.5345 38.7538 42.5965 38.6228 42.6516 38.4878C42.6795 38.4208 42.7065 38.3528 42.7305 38.2838C42.7565 38.2159 42.7795 38.1468 42.8026 38.0768C42.8895 37.7998 42.9545 37.5168 42.9985 37.2298C43.0096 37.1577 43.0175 37.0847 43.0266 37.0128C43.0345 36.9398 43.0415 36.8669 43.0465 36.7939C43.0575 36.6479 43.0625 36.5008 43.0625 36.3548C43.0609 26.9375 43.0598 17.5196 43.059 8.10208C43.058 7.80716 43.032 7.51419 42.977 7.22415C42.95 7.07913 42.9149 6.93619 42.8749 6.79617C42.834 6.65616 42.7879 6.5181 42.735 6.38309C42.6809 6.2471 42.6219 6.11417 42.5549 5.98416C42.5219 5.9191 42.4879 5.85416 42.451 5.79019C42.4139 5.72708 42.3759 5.66409 42.3369 5.60208C42.1799 5.35709 41.9999 5.12918 41.799 4.9202C41.7489 4.86819 41.6979 4.81717 41.645 4.76712C41.5909 4.71719 41.5379 4.66812 41.481 4.62112C41.3699 4.52615 41.2539 4.43814 41.136 4.35611C40.8979 4.19315 40.6459 4.05411 40.3789 3.94009C40.313 3.91214 40.2449 3.88516 40.1759 3.85916C40.1079 3.83414 40.0389 3.81009 39.9699 3.78909C39.8309 3.74612 39.692 3.70914 39.5509 3.68008C39.269 3.6221 38.9829 3.59012 38.6898 3.58646Z" stroke="#FF00FF" stroke-width="0.283465" stroke-miterlimit="10" stroke-linecap="round" stroke-linejoin="round"/>
<path d="M17.8472 18.7041H15.7379C15.3473 18.7041 15.108 18.9482 15.108 19.3584V25.1786C15.108 25.5936 15.3473 25.8329 15.7379 25.8329C16.1285 25.8329 16.3678 25.5936 16.3678 25.1786V23.5626C16.3678 23.4843 16.4313 23.4209 16.5095 23.4209H17.7935C19.2193 23.4209 20.2202 22.4688 20.2202 21.0625C20.2202 19.6562 19.2485 18.7041 17.8472 18.7041ZM17.5103 22.4052H16.5095C16.4312 22.4052 16.3678 22.3417 16.3678 22.2635V19.8761C16.3678 19.7978 16.4313 19.7344 16.5095 19.7344H17.5152C18.4185 19.7344 18.941 20.2178 18.941 21.0625C18.941 21.9072 18.4137 22.4052 17.5104 22.4052H17.5103Z" fill="black"/>
<path d="M30.015 25.8673C28.2328 25.8673 27.1195 24.8028 27.1195 23.2647V19.2754C27.1195 18.8604 27.3588 18.6211 27.7494 18.6211C28.14 18.6211 28.3793 18.8604 28.3793 19.2754V23.1524C28.3793 24.1143 28.9701 24.7686 30.0151 24.7686C31.0601 24.7686 31.6557 24.1143 31.6557 23.1524V19.2754C31.6557 18.8604 31.8901 18.6211 32.2856 18.6211C32.6811 18.6211 32.9106 18.8604 32.9106 19.2754V23.2647C32.9106 24.8028 31.8022 25.8673 30.0151 25.8673H30.015Z" fill="black"/>
<path d="M25.2008 20.4727C24.8542 20.4728 24.7239 20.6779 24.7239 20.6779L24.5746 20.8528C24.5283 20.9071 24.4489 20.9183 24.3891 20.8793C24.1884 20.7488 23.6953 20.4874 22.9647 20.4874C21.632 20.4874 20.8118 21.4784 20.8118 23.0993C20.8118 24.7202 21.6418 25.6966 22.9404 25.6966C23.6169 25.6966 24.1105 25.4739 24.3722 25.3189C24.4665 25.263 24.5857 25.3315 24.5857 25.4411V25.5892C24.5857 26.2776 24.0927 26.7316 23.2675 26.7316C22.9343 26.7316 22.3495 26.4799 22.2228 26.4227C22.0308 26.3361 21.5804 26.2162 21.4015 26.5191C21.2655 26.7495 21.3585 27.0807 21.6367 27.2467C21.9712 27.4462 22.7002 27.6955 23.2577 27.6983C24.8541 27.7081 25.8062 26.8878 25.8062 25.5843V21.0927C25.8062 20.6924 25.5523 20.4727 25.2008 20.4727ZM23.3116 24.6861C22.5552 24.6861 22.0734 24.0909 22.0734 23.0988C22.0734 22.1067 22.5552 21.4926 23.3116 21.4926C24.068 21.4926 24.5787 22.1256 24.5787 23.0988C24.5787 24.072 24.0777 24.6861 23.3116 24.6861Z" fill="black"/>
<path d="M36.7086 24.8363C35.9516 24.8363 35.4486 24.177 35.4437 23.1612C35.4486 22.1552 35.9224 21.4861 36.7086 21.4861C37.4948 21.4861 37.9832 22.1405 37.9832 23.1612C37.9832 24.1868 37.4656 24.8363 36.7086 24.8363ZM39.2285 23.1611C39.2285 21.5055 38.3934 20.4849 37.0796 20.4849C36.5936 20.4849 35.8235 20.7289 35.5226 20.8309C35.4551 20.8538 35.3804 20.8241 35.3487 20.7601C35.3407 20.7438 35.3324 20.7276 35.322 20.7128C35.2027 20.5423 35.027 20.4703 34.8283 20.4703C34.4815 20.4703 34.2374 20.6949 34.2374 21.0954V26.9511C34.2374 27.3614 34.4864 27.5909 34.843 27.5909C35.1996 27.5909 35.4535 27.3614 35.4535 26.9511V25.5929C35.4535 25.4902 35.5594 25.4213 35.653 25.4635C36.0149 25.6264 36.6176 25.8326 37.0993 25.8326C38.3983 25.8326 39.2286 24.8119 39.2286 23.1612L39.2285 23.1611Z" fill="black"/>
</svg>
