<svg width="54" height="55" viewBox="0 0 54 55" fill="none" xmlns="http://www.w3.org/2000/svg">
<rect x="1.84998" y="2.79843" width="50.3" height="50.3" rx="3" stroke="#8B1EFF" stroke-width="0.28"/>
<path d="M10.2065 38.0963V8.24429C10.2125 7.89236 10.252 7.53934 10.325 7.19424C10.397 6.84927 10.503 6.51224 10.6411 6.18741C10.9141 5.54337 11.3131 4.94937 11.8071 4.4501C12.2961 3.95609 12.8791 3.55399 13.5145 3.27811C13.8315 3.14017 14.1605 3.03421 14.4979 2.96097C14.8349 2.88797 15.1779 2.84891 15.5214 2.845C19.4174 2.814 23.3134 2.79898 27.2079 2.79898C31.1049 2.79898 34.9999 2.814 38.8963 2.84512C39.2393 2.84915 39.5833 2.88809 39.9208 2.96158C40.2568 3.03458 40.5868 3.14151 40.903 3.27847C41.221 3.41641 41.525 3.58548 41.8108 3.78189C42.0978 3.97891 42.3658 4.20291 42.6108 4.44998C42.8578 4.69901 43.0808 4.97 43.2748 5.26077C43.4708 5.55276 43.6398 5.8627 43.7772 6.18655C43.9142 6.51151 44.0212 6.84952 44.0934 7.19437C44.1664 7.53934 44.2054 7.89236 44.2104 8.24442C44.2104 8.24442 44.2104 38.0963 44.2101 38.0968C44.1891 38.7908 44.0511 39.4868 43.8027 40.1418C43.5557 40.7968 43.1977 41.4108 42.7389 41.9346C42.5089 42.1967 42.2549 42.4357 41.9799 42.6483C41.7069 42.8604 41.4139 43.0453 41.1049 43.2023C40.7979 43.3583 40.4769 43.4853 40.1451 43.5799C39.8161 43.6748 39.4771 43.7379 39.1357 43.7638C31.1907 44.1969 23.2267 44.1969 15.2819 43.7638C14.6009 43.7108 13.9259 43.5148 13.3131 43.2033C12.6931 42.8882 12.1351 42.4552 11.6787 41.9353C11.2197 41.4103 10.8627 40.7963 10.6155 40.1414C10.3675 39.4864 10.2285 38.7914 10.2065 38.0963Z" stroke="#8B1EFF" stroke-width="0.283" stroke-miterlimit="10"/>
<rect x="12.8885" y="6.42007" width="28.63" height="34.35" rx="1.46" stroke="#00FFFF" stroke-width="0.28"/>
<path d="M38.6898 4.53482C31.0758 4.43582 23.3388 4.43582 15.7238 4.53482C15.4321 4.53885 15.1431 4.56985 14.858 4.62991C14.787 4.64493 14.7151 4.66092 14.6451 4.67984C14.5751 4.69791 14.5051 4.71793 14.4361 4.7399C14.298 4.78384 14.162 4.83292 14.0311 4.88992C13.8981 4.94693 13.7681 5.00992 13.6421 5.07986C13.578 5.1149 13.515 5.15189 13.453 5.18985C13.3911 5.22794 13.33 5.26785 13.2701 5.30984C13.0321 5.47488 12.8121 5.66287 12.6111 5.87186C12.5101 5.97586 12.4151 6.08585 12.3251 6.20193C12.2791 6.25894 12.2361 6.3179 12.1931 6.37784C12.151 6.43692 12.1111 6.49686 12.0721 6.55887C11.9151 6.80386 11.7841 7.0629 11.677 7.33487C11.651 7.40286 11.625 7.47183 11.6021 7.5419C11.578 7.61185 11.556 7.68192 11.5361 7.75186C11.4951 7.89285 11.4621 8.03482 11.4351 8.17886C11.382 8.46487 11.3551 8.75491 11.3551 9.05093C11.3528 18.4676 11.3519 27.8855 11.3499 37.3025C11.35 37.596 11.371 37.8859 11.414 38.1719C11.436 38.315 11.462 38.4569 11.4949 38.5989C11.511 38.67 11.5289 38.7399 11.548 38.81C11.567 38.8809 11.588 38.951 11.61 39.0209C11.699 39.299 11.809 39.5679 11.9429 39.825C11.977 39.8899 12.0119 39.9539 12.048 40.017C12.084 40.08 12.1219 40.142 12.162 40.2029C12.241 40.324 12.324 40.4419 12.4129 40.554C12.502 40.6669 12.597 40.7759 12.6969 40.8799C12.7469 40.9309 12.798 40.982 12.852 41.0319C12.905 41.081 12.959 41.1299 13.0139 41.1759C13.2359 41.361 13.4729 41.5209 13.727 41.6549C13.7899 41.6879 13.8549 41.72 13.92 41.7499C13.9859 41.7799 14.0529 41.8079 14.1199 41.835C14.254 41.887 14.3909 41.9319 14.5289 41.97C14.8049 42.045 15.087 42.091 15.377 42.106C23.2194 42.5331 31.1934 42.5331 39.0353 42.1061C39.3265 42.0901 39.6095 42.0442 39.8855 41.9701C40.0235 41.9322 40.1595 41.8871 40.2935 41.8351C40.3605 41.8081 40.4276 41.7802 40.4935 41.7502C40.5595 41.7191 40.6245 41.6872 40.6875 41.6532C40.9435 41.5192 41.1805 41.3592 41.3995 41.1742C41.5105 41.0822 41.6155 40.9832 41.7175 40.8792C41.7665 40.8272 41.8165 40.7732 41.8635 40.7182C41.9115 40.6642 41.9576 40.6082 42.0025 40.5522C42.1805 40.3262 42.3355 40.0851 42.4685 39.8302C42.5345 39.7022 42.5965 39.5712 42.6516 39.4362C42.6795 39.3692 42.7065 39.3012 42.7305 39.2322C42.7565 39.1642 42.7795 39.0951 42.8026 39.0252C42.8895 38.7482 42.9545 38.4651 42.9985 38.1781C43.0096 38.1061 43.0175 38.0331 43.0266 37.9612C43.0345 37.8882 43.0415 37.8152 43.0465 37.7422C43.0575 37.5962 43.0625 37.4491 43.0625 37.3031C43.0609 27.8859 43.0598 18.4679 43.059 9.05045C43.058 8.75552 43.032 8.46255 42.977 8.17252C42.95 8.0275 42.9149 7.88455 42.8749 7.74454C42.834 7.60452 42.7879 7.46646 42.735 7.33145C42.6809 7.19547 42.6219 7.06253 42.5549 6.93253C42.5219 6.86746 42.4879 6.80252 42.451 6.73856C42.4139 6.67545 42.3759 6.61246 42.3369 6.55045C42.1799 6.30545 41.9999 6.07755 41.799 5.86856C41.7489 5.81656 41.6979 5.76553 41.645 5.71548C41.5909 5.66556 41.5379 5.61649 41.481 5.56949C41.3699 5.47452 41.2539 5.38651 41.136 5.30447C40.8979 5.14151 40.6459 5.00247 40.3789 4.88846C40.313 4.8605 40.2449 4.83353 40.1759 4.80753C40.1079 4.7825 40.0389 4.75845 39.9699 4.73746C39.8309 4.69449 39.692 4.6575 39.5509 4.62845C39.269 4.57046 38.9829 4.53848 38.6898 4.53482Z" stroke="#FF00FF" stroke-width="0.283465" stroke-miterlimit="10" stroke-linecap="round" stroke-linejoin="round"/>
<path d="M40.1017 31.6637H39.3741C39.285 31.6637 39.218 31.5825 39.235 31.495L39.781 28.6803C39.7996 28.5749 39.812 28.4757 39.812 28.3765C39.812 27.9672 39.5144 27.7005 39.0865 27.7005C38.7144 27.7005 38.423 27.9424 38.3672 28.3144L37.8529 31.5443C37.842 31.6131 37.7826 31.6637 37.713 31.6637H36.665C36.5995 31.6637 36.5424 31.6187 36.5272 31.5549L35.7627 28.3579C35.6697 27.9362 35.4216 27.7005 34.9999 27.7005C34.5721 27.7005 34.324 27.9486 34.2248 28.3765L33.4605 31.5551C33.4452 31.6188 33.3882 31.6637 33.3227 31.6637H32.2807C32.211 31.6637 32.1517 31.6131 32.1407 31.5443L31.6265 28.3144C31.5707 27.9486 31.2792 27.7005 30.9072 27.7005C30.4793 27.7005 30.1816 27.9672 30.1816 28.3765C30.1816 28.4757 30.194 28.5749 30.2126 28.6803L30.7587 31.495C30.7757 31.5825 30.7087 31.6637 30.6196 31.6637H29.8919C29.6551 31.6637 29.4435 31.8369 29.4211 32.0727C29.3953 32.3432 29.6073 32.5707 29.8725 32.5707H30.8519C30.9198 32.5707 30.9781 32.6189 30.991 32.6856L31.5955 35.8116C31.6947 36.3263 32.0792 36.624 32.5691 36.624C33.0466 36.624 33.4186 36.3325 33.5241 35.8302L34.28 32.6794C34.2953 32.6157 34.3523 32.5707 34.4179 32.5707H35.5758C35.6414 32.5707 35.6983 32.6157 35.7136 32.6794L36.4696 35.8302C36.575 36.3325 36.9471 36.624 37.4246 36.624C37.9145 36.624 38.299 36.3263 38.3982 35.8116L39.0027 32.6856C39.0155 32.6189 39.0739 32.5707 39.1418 32.5707H40.1211C40.3863 32.5707 40.5983 32.3432 40.5725 32.0727C40.5501 31.8369 40.3386 31.6637 40.1017 31.6637ZM34.859 30.269C34.8936 30.1239 35.1 30.1239 35.1347 30.269L35.4263 31.489C35.4476 31.5781 35.38 31.6637 35.2884 31.6637H34.7052C34.6136 31.6637 34.5461 31.5781 34.5674 31.489L34.859 30.269ZM32.8355 34.1865C32.7995 34.3375 32.5819 34.3291 32.5577 34.1757L32.3297 32.7346C32.3161 32.6486 32.3826 32.5707 32.4697 32.5707H33.0415C33.1331 32.5707 33.2007 32.6563 33.1794 32.7454L32.8355 34.1865ZM37.436 34.1757C37.4117 34.3291 37.1942 34.3375 37.1581 34.1865L36.8143 32.7454C36.793 32.6563 36.8605 32.5707 36.9521 32.5707H37.5239C37.6111 32.5707 37.6775 32.6486 37.6639 32.7346L37.436 34.1757Z" fill="black"/>
<path d="M18.2621 19.8767V10.5439C18.2621 9.99199 18.5845 9.72534 19 9.72534C19.4155 9.72534 19.738 9.99199 19.738 10.5439V19.8767C19.738 20.4286 19.4155 20.6952 19 20.6952C18.5845 20.6952 18.2621 20.4286 18.2621 19.8767Z" fill="black"/>
<path d="M19.6574 38.1743L16.9785 28.6803C16.9599 28.6245 16.9413 28.5253 16.9413 28.4323C16.9289 28.0478 17.2451 27.7253 17.6482 27.7253C17.9831 27.7253 18.2559 27.9238 18.3489 28.2462L21.0216 37.7464C21.0402 37.796 21.0588 37.9015 21.065 37.9883C21.0713 38.3728 20.7612 38.6952 20.3519 38.6952C20.0171 38.6952 19.7442 38.4968 19.6574 38.1743Z" fill="black"/>
</svg>
