<svg width="54" height="54" viewBox="0 0 54 54" fill="none" xmlns="http://www.w3.org/2000/svg">
<rect x="1.84998" y="1.85001" width="50.3" height="50.3" rx="3" stroke="#8B1EFF" stroke-width="0.28"/>
<path d="M10.2065 37.1479V7.29587C10.2125 6.94394 10.252 6.59091 10.325 6.24582C10.397 5.90085 10.503 5.56381 10.6411 5.23898C10.9141 4.59494 11.3131 4.00095 11.8071 3.50168C12.2961 3.00766 12.8791 2.60556 13.5145 2.32968C13.8315 2.19174 14.1605 2.08578 14.4979 2.01254C14.8349 1.93954 15.1779 1.90048 15.5214 1.89658C19.4174 1.86557 23.3134 1.85056 27.2079 1.85056C31.1049 1.85056 34.9999 1.86557 38.8963 1.8967C39.2393 1.90073 39.5833 1.93967 39.9208 2.01315C40.2568 2.08615 40.5868 2.19308 40.903 2.33005C41.221 2.46799 41.525 2.63705 41.8108 2.83347C42.0978 3.03049 42.3658 3.25449 42.6108 3.50156C42.8578 3.75058 43.0808 4.02158 43.2748 4.31235C43.4708 4.60434 43.6398 4.91428 43.7772 5.23813C43.9142 5.56308 44.0212 5.90109 44.0934 6.24594C44.1664 6.59091 44.2054 6.94394 44.2104 7.29599C44.2104 7.29599 44.2104 37.1479 44.2101 37.1484C44.1891 37.8424 44.0511 38.5384 43.8027 39.1933C43.5557 39.8484 43.1977 40.4624 42.7389 40.9862C42.5089 41.2483 42.2549 41.4873 41.9799 41.6999C41.7069 41.912 41.4139 42.0969 41.1049 42.2539C40.7979 42.4099 40.4769 42.5368 40.1451 42.6314C39.8161 42.7264 39.4771 42.7895 39.1357 42.8154C31.1907 43.2485 23.2267 43.2485 15.2819 42.8154C14.6009 42.7624 13.9259 42.5664 13.3131 42.2549C12.6931 41.9398 12.1351 41.5068 11.6787 40.9869C11.2197 40.4619 10.8627 39.8479 10.6155 39.193C10.3675 38.5379 10.2285 37.843 10.2065 37.1479Z" stroke="#8B1EFF" stroke-width="0.283" stroke-miterlimit="10"/>
<rect x="12.8885" y="5.47165" width="28.63" height="34.35" rx="1.46" stroke="#00FFFF" stroke-width="0.28"/>
<path d="M38.6898 3.5864C31.0758 3.4874 23.3388 3.4874 15.7238 3.5864C15.4321 3.59042 15.1431 3.62143 14.858 3.68149C14.787 3.6965 14.7151 3.71249 14.6451 3.73141C14.5751 3.74948 14.5051 3.7695 14.4361 3.79147C14.298 3.83542 14.162 3.88449 14.0311 3.9415C13.8981 3.9985 13.7681 4.06149 13.6421 4.13144C13.578 4.16647 13.515 4.20346 13.453 4.24142C13.3911 4.27951 13.33 4.31943 13.2701 4.36142C13.0321 4.52646 12.8121 4.71445 12.6111 4.92343C12.5101 5.02744 12.4151 5.13742 12.3251 5.25351C12.2791 5.31052 12.2361 5.36948 12.1931 5.42941C12.151 5.48849 12.1111 5.54843 12.0721 5.61044C11.9151 5.85544 11.7841 6.11447 11.677 6.38644C11.651 6.45444 11.625 6.52341 11.6021 6.59348C11.578 6.66342 11.556 6.73349 11.5361 6.80344C11.4951 6.94443 11.4621 7.0864 11.4351 7.23044C11.382 7.51645 11.3551 7.80649 11.3551 8.10251C11.3528 17.5191 11.3519 26.9371 11.3499 36.3541C11.35 36.6476 11.371 36.9375 11.414 37.2235C11.436 37.3665 11.462 37.5085 11.4949 37.6505C11.511 37.7215 11.5289 37.7915 11.548 37.8615C11.567 37.9325 11.588 38.0025 11.61 38.0725C11.699 38.3506 11.809 38.6195 11.9429 38.8766C11.977 38.9415 12.0119 39.0055 12.048 39.0686C12.084 39.1316 12.1219 39.1936 12.162 39.2545C12.241 39.3756 12.324 39.4935 12.4129 39.6056C12.502 39.7185 12.597 39.8275 12.6969 39.9315C12.7469 39.9825 12.798 40.0335 12.852 40.0835C12.905 40.1325 12.959 40.1815 13.0139 40.2275C13.2359 40.4126 13.4729 40.5725 13.727 40.7065C13.7899 40.7395 13.8549 40.7716 13.92 40.8015C13.9859 40.8315 14.0529 40.8595 14.1199 40.8866C14.254 40.9386 14.3909 40.9835 14.5289 41.0216C14.8049 41.0965 15.087 41.1425 15.377 41.1576C23.2194 41.5847 31.1934 41.5847 39.0353 41.1577C39.3265 41.1417 39.6095 41.0958 39.8855 41.0217C40.0235 40.9837 40.1595 40.9387 40.2935 40.8867C40.3605 40.8597 40.4276 40.8318 40.4935 40.8017C40.5595 40.7707 40.6245 40.7387 40.6875 40.7048C40.9435 40.5708 41.1805 40.4107 41.3995 40.2258C41.5105 40.1338 41.6155 40.0348 41.7175 39.9308C41.7665 39.8788 41.8165 39.8248 41.8635 39.7697C41.9115 39.7158 41.9576 39.6598 42.0025 39.6037C42.1805 39.3778 42.3355 39.1367 42.4685 38.8818C42.5345 38.7538 42.5965 38.6228 42.6516 38.4878C42.6795 38.4207 42.7065 38.3528 42.7305 38.2838C42.7565 38.2158 42.7795 38.1467 42.8026 38.0768C42.8895 37.7998 42.9545 37.5167 42.9985 37.2297C43.0096 37.1577 43.0175 37.0847 43.0266 37.0128C43.0345 36.9398 43.0415 36.8668 43.0465 36.7938C43.0575 36.6478 43.0625 36.5007 43.0625 36.3547C43.0609 26.9375 43.0598 17.5195 43.059 8.10202C43.058 7.8071 43.032 7.51413 42.977 7.22409C42.95 7.07907 42.9149 6.93613 42.8749 6.79611C42.834 6.6561 42.7879 6.51804 42.735 6.38303C42.6809 6.24704 42.6219 6.11411 42.5549 5.9841C42.5219 5.91904 42.4879 5.8541 42.451 5.79013C42.4139 5.72702 42.3759 5.66403 42.3369 5.60202C42.1799 5.35703 41.9999 5.12912 41.799 4.92014C41.7489 4.86813 41.6979 4.81711 41.645 4.76706C41.5909 4.71713 41.5379 4.66806 41.481 4.62106C41.3699 4.52609 41.2539 4.43808 41.136 4.35605C40.8979 4.19308 40.6459 4.05405 40.3789 3.94003C40.313 3.91208 40.2449 3.8851 40.1759 3.8591C40.1079 3.83408 40.0389 3.81003 39.9699 3.78903C39.8309 3.74606 39.692 3.70908 39.5509 3.68002C39.269 3.62204 38.9829 3.59006 38.6898 3.5864Z" stroke="#FF00FF" stroke-width="0.283465" stroke-miterlimit="10" stroke-linecap="round" stroke-linejoin="round"/>
<path d="M40.1017 30.7153H39.3741C39.285 30.7153 39.218 30.634 39.235 30.5466L39.781 27.7319C39.7996 27.6265 39.812 27.5273 39.812 27.428C39.812 27.0188 39.5144 26.7521 39.0865 26.7521C38.7144 26.7521 38.423 26.994 38.3672 27.366L37.8529 30.5958C37.842 30.6646 37.7826 30.7153 37.713 30.7153H36.665C36.5995 30.7153 36.5424 30.6703 36.5272 30.6065L35.7627 27.4094C35.6697 26.9878 35.4216 26.7521 34.9999 26.7521C34.5721 26.7521 34.324 27.0002 34.2248 27.428L33.4605 30.6067C33.4452 30.6704 33.3882 30.7153 33.3227 30.7153H32.2807C32.211 30.7153 32.1517 30.6646 32.1407 30.5958L31.6265 27.366C31.5707 27.0002 31.2792 26.7521 30.9072 26.7521C30.4793 26.7521 30.1816 27.0188 30.1816 27.428C30.1816 27.5273 30.194 27.6265 30.2126 27.7319L30.7587 30.5466C30.7757 30.634 30.7087 30.7153 30.6196 30.7153H29.8919C29.6551 30.7153 29.4435 30.8885 29.4211 31.1243C29.3953 31.3948 29.6073 31.6223 29.8725 31.6223H30.8519C30.9198 31.6223 30.9781 31.6705 30.991 31.7371L31.5955 34.8632C31.6947 35.3779 32.0792 35.6756 32.5691 35.6756C33.0466 35.6756 33.4186 35.3841 33.5241 34.8818L34.28 31.731C34.2953 31.6672 34.3523 31.6223 34.4179 31.6223H35.5758C35.6414 31.6223 35.6983 31.6672 35.7136 31.731L36.4696 34.8818C36.575 35.3841 36.9471 35.6756 37.4246 35.6756C37.9145 35.6756 38.299 35.3779 38.3982 34.8632L39.0027 31.7371C39.0155 31.6705 39.0739 31.6223 39.1418 31.6223H40.1211C40.3863 31.6223 40.5983 31.3948 40.5725 31.1243C40.5501 30.8885 40.3386 30.7153 40.1017 30.7153ZM34.859 29.3205C34.8936 29.1755 35.1 29.1755 35.1347 29.3205L35.4263 30.5406C35.4476 30.6297 35.38 30.7153 35.2884 30.7153H34.7052C34.6136 30.7153 34.5461 30.6297 34.5674 30.5406L34.859 29.3205ZM32.8355 33.2381C32.7995 33.389 32.5819 33.3806 32.5577 33.2273L32.3297 31.7862C32.3161 31.7001 32.3826 31.6223 32.4697 31.6223H33.0415C33.1331 31.6223 33.2007 31.7079 33.1794 31.7969L32.8355 33.2381ZM37.436 33.2273C37.4117 33.3806 37.1942 33.389 37.1581 33.2381L36.8143 31.7969C36.793 31.7079 36.8605 31.6223 36.9521 31.6223H37.5239C37.6111 31.6223 37.6775 31.7001 37.6639 31.7862L37.436 33.2273Z" fill="black"/>
<path d="M18.2621 18.9282V9.59547C18.2621 9.04357 18.5845 8.77692 19 8.77692C19.4155 8.77692 19.738 9.04357 19.738 9.59547V18.9282C19.738 19.4801 19.4155 19.7468 19 19.7468C18.5845 19.7468 18.2621 19.4801 18.2621 18.9282Z" fill="black"/>
<path d="M19.6574 37.2259L16.9785 27.7319C16.9599 27.6761 16.9413 27.5769 16.9413 27.4839C16.9289 27.0994 17.2451 26.7769 17.6482 26.7769C17.9831 26.7769 18.2559 26.9754 18.3489 27.2978L21.0216 36.798C21.0402 36.8476 21.0588 36.953 21.065 37.0399C21.0713 37.4243 20.7612 37.7468 20.3519 37.7468C20.0171 37.7468 19.7442 37.5484 19.6574 37.2259Z" fill="black"/>
</svg>
