<svg width="54" height="54" viewBox="0 0 54 54" fill="none" xmlns="http://www.w3.org/2000/svg">
<rect x="1.85" y="1.84998" width="50.3" height="50.3" rx="3" stroke="#8B1EFF" stroke-width="0.28"/>
<path d="M10.2065 37.1479V7.2959C10.2125 6.94397 10.252 6.59094 10.325 6.24585C10.397 5.90088 10.503 5.56384 10.6411 5.23901C10.9141 4.59497 11.3131 4.00098 11.8071 3.50171C12.2961 3.00769 12.8791 2.60559 13.5145 2.32971C13.8315 2.19177 14.1605 2.08582 14.4979 2.01257C14.8349 1.93958 15.1779 1.90051 15.5214 1.89661C19.4174 1.8656 23.3134 1.85059 27.2079 1.85059C31.1049 1.85059 34.9999 1.8656 38.8963 1.89673C39.2393 1.90076 39.5833 1.9397 39.9208 2.01318C40.2568 2.08618 40.5868 2.19312 40.903 2.33008C41.221 2.46802 41.525 2.63708 41.8108 2.8335C42.0978 3.03052 42.3658 3.25452 42.6108 3.50159C42.8578 3.75061 43.0808 4.02161 43.2748 4.31238C43.4708 4.60437 43.6398 4.91431 43.7772 5.23816C43.9142 5.56311 44.0212 5.90112 44.0934 6.24597C44.1664 6.59094 44.2054 6.94397 44.2104 7.29602C44.2104 7.29602 44.2104 37.1479 44.2101 37.1484C44.1891 37.8424 44.0511 38.5385 43.8027 39.1934C43.5557 39.8484 43.1977 40.4624 42.7389 40.9862C42.5089 41.2483 42.2549 41.4873 41.9799 41.7C41.7069 41.912 41.4139 42.0969 41.1049 42.2539C40.7979 42.4099 40.4769 42.5369 40.1451 42.6315C39.8161 42.7264 39.4771 42.7896 39.1357 42.8154C31.1907 43.2485 23.2267 43.2485 15.2819 42.8154C14.6009 42.7625 13.9259 42.5664 13.3131 42.2549C12.6931 41.9398 12.1351 41.5068 11.6787 40.9869C11.2197 40.4619 10.8627 39.8479 10.6155 39.193C10.3675 38.538 10.2285 37.843 10.2065 37.1479Z" stroke="#8B1EFF" stroke-width="0.283" stroke-miterlimit="10"/>
<rect x="12.8886" y="5.47168" width="28.63" height="34.35" rx="1.46" stroke="#00FFFF" stroke-width="0.28"/>
<path d="M38.6898 3.5864C31.0758 3.4874 23.3388 3.4874 15.7238 3.5864C15.4321 3.59042 15.1431 3.62143 14.858 3.68149C14.787 3.6965 14.7151 3.71249 14.6451 3.73141C14.5751 3.74948 14.5051 3.7695 14.4361 3.79147C14.298 3.83542 14.162 3.88449 14.0311 3.9415C13.8981 3.9985 13.7681 4.06149 13.6421 4.13144C13.578 4.16647 13.515 4.20346 13.453 4.24142C13.3911 4.27951 13.33 4.31943 13.2701 4.36142C13.0321 4.52646 12.8121 4.71445 12.6111 4.92343C12.5101 5.02744 12.4151 5.13742 12.3251 5.25351C12.2791 5.31052 12.2361 5.36948 12.1931 5.42941C12.151 5.48849 12.1111 5.54843 12.0721 5.61044C11.9151 5.85544 11.7841 6.11447 11.677 6.38644C11.651 6.45444 11.625 6.52341 11.6021 6.59348C11.578 6.66342 11.556 6.73349 11.5361 6.80344C11.4951 6.94443 11.4621 7.0864 11.4351 7.23044C11.382 7.51645 11.3551 7.80649 11.3551 8.10251C11.3528 17.5191 11.3519 26.9371 11.3499 36.3541C11.35 36.6476 11.371 36.9375 11.414 37.2235C11.436 37.3665 11.462 37.5085 11.4949 37.6505C11.511 37.7215 11.5289 37.7915 11.548 37.8615C11.567 37.9325 11.588 38.0025 11.61 38.0725C11.699 38.3506 11.809 38.6195 11.9429 38.8766C11.977 38.9415 12.0119 39.0055 12.048 39.0686C12.084 39.1316 12.1219 39.1936 12.162 39.2545C12.241 39.3756 12.324 39.4935 12.4129 39.6056C12.502 39.7185 12.597 39.8275 12.6969 39.9315C12.7469 39.9825 12.798 40.0335 12.852 40.0835C12.905 40.1325 12.959 40.1815 13.0139 40.2275C13.2359 40.4126 13.4729 40.5725 13.727 40.7065C13.7899 40.7395 13.8549 40.7716 13.92 40.8015C13.9859 40.8315 14.0529 40.8595 14.1199 40.8866C14.254 40.9386 14.3909 40.9835 14.5289 41.0216C14.8049 41.0965 15.087 41.1425 15.377 41.1576C23.2194 41.5847 31.1934 41.5847 39.0353 41.1577C39.3265 41.1417 39.6095 41.0958 39.8855 41.0217C40.0235 40.9837 40.1595 40.9387 40.2935 40.8867C40.3605 40.8597 40.4276 40.8318 40.4935 40.8017C40.5595 40.7707 40.6245 40.7387 40.6875 40.7048C40.9435 40.5708 41.1805 40.4107 41.3995 40.2258C41.5105 40.1338 41.6155 40.0348 41.7175 39.9308C41.7665 39.8788 41.8165 39.8248 41.8635 39.7697C41.9115 39.7158 41.9576 39.6598 42.0025 39.6037C42.1805 39.3778 42.3355 39.1367 42.4685 38.8818C42.5345 38.7538 42.5965 38.6228 42.6516 38.4878C42.6795 38.4207 42.7065 38.3528 42.7305 38.2838C42.7565 38.2158 42.7795 38.1467 42.8026 38.0768C42.8895 37.7998 42.9545 37.5167 42.9985 37.2297C43.0096 37.1577 43.0175 37.0847 43.0266 37.0128C43.0345 36.9398 43.0415 36.8668 43.0465 36.7938C43.0575 36.6478 43.0625 36.5007 43.0625 36.3547C43.0609 26.9375 43.0598 17.5195 43.059 8.10202C43.058 7.8071 43.032 7.51413 42.977 7.22409C42.95 7.07907 42.9149 6.93613 42.8749 6.79611C42.834 6.6561 42.7879 6.51804 42.735 6.38303C42.6809 6.24704 42.6219 6.11411 42.5549 5.9841C42.5219 5.91904 42.4879 5.8541 42.451 5.79013C42.4139 5.72702 42.3759 5.66403 42.3369 5.60202C42.1799 5.35703 41.9999 5.12912 41.799 4.92014C41.7489 4.86813 41.6979 4.81711 41.645 4.76706C41.5909 4.71713 41.5379 4.66806 41.481 4.62106C41.3699 4.52609 41.2539 4.43808 41.136 4.35605C40.8979 4.19308 40.6459 4.05405 40.3789 3.94003C40.313 3.91208 40.2449 3.8851 40.1759 3.8591C40.1079 3.83408 40.0389 3.81003 39.9699 3.78903C39.8309 3.74606 39.692 3.70908 39.5509 3.68002C39.269 3.62204 38.9829 3.59006 38.6898 3.5864Z" stroke="#FF00FF" stroke-width="0.283465" stroke-miterlimit="10" stroke-linecap="round" stroke-linejoin="round"/>
<path d="M20.6496 15.1691C20.3496 15.1691 20.1496 14.9691 20.1496 14.6891C20.1496 14.1591 20.7796 13.5091 21.7696 13.5091C22.7596 13.5091 23.3596 14.0191 23.3596 14.7291C23.3596 15.3191 22.9896 15.6891 22.5796 16.0391L22.1096 16.4791C22.0196 16.5691 22.0796 16.7291 22.2096 16.7291H22.8896C23.2896 16.7291 23.4896 16.9191 23.4896 17.1991C23.4896 17.5091 23.2996 17.6791 22.8896 17.6791H20.6796C20.3796 17.6791 20.1696 17.4791 20.1696 17.2091C20.1696 17.0691 20.2296 16.9391 20.3396 16.8391L21.6996 15.5691C21.9496 15.3291 22.1596 15.1091 22.1596 14.8691C22.1596 14.6291 21.9696 14.4591 21.7096 14.4591C21.4396 14.4591 21.3096 14.6291 21.1496 14.8891C21.0096 15.0991 20.8696 15.1991 20.6496 15.1991V15.1691ZM15.3496 17.0891L18.3896 13.1691L21.2696 9.39911C21.4596 9.14911 21.6896 9.11911 21.8896 9.20911C22.0896 9.24911 22.2296 9.41911 22.2396 9.62911C22.2396 9.76911 22.1896 9.89911 22.0796 10.0391L19.2096 13.7491L16.1596 17.7291C15.9696 17.9791 15.7296 17.9991 15.5296 17.9091C15.3596 17.8691 15.1996 17.7091 15.1996 17.5291C15.1896 17.3891 15.2396 17.2391 15.3596 17.0891H15.3496ZM15.4896 12.7891V10.5091C15.4896 10.3991 15.3696 10.3291 15.2796 10.3891L15.1496 10.4691C15.0296 10.5391 14.9296 10.5791 14.8296 10.5791C14.5796 10.5791 14.3996 10.3991 14.3996 10.1491C14.3996 9.98911 14.4996 9.83911 14.6696 9.72911L15.2396 9.38911C15.4796 9.23911 15.7596 9.14911 16.0196 9.14911C16.4896 9.14911 16.7496 9.41911 16.7496 9.86911V12.7791C16.7496 13.1391 16.4996 13.3891 16.1296 13.3891C15.7596 13.3891 15.4996 13.1391 15.4996 12.7791L15.4896 12.7891Z" fill="black"/>
<path d="M18.9573 36.1443C19.6273 36.1443 20.0273 35.8043 20.0273 35.3043C20.0273 34.7543 19.4873 34.5743 18.3873 34.2643C17.1873 33.9243 16.4673 33.4343 16.4673 32.4243C16.4673 31.7143 16.8273 31.2543 17.3373 30.9343C17.4273 30.8843 17.4173 30.7543 17.3373 30.6943C16.8173 30.3343 16.5273 29.8543 16.5273 29.1843C16.5273 27.9243 17.6273 27.1243 19.0373 27.1243C19.6673 27.1243 20.2773 27.2943 20.7273 27.5943C21.1273 27.8443 21.3773 28.1843 21.3673 28.5343C21.3573 28.8843 21.0573 29.1143 20.7273 29.0943C20.5273 29.0743 20.3773 28.9843 20.1373 28.7643C19.7673 28.4343 19.4673 28.2743 19.0373 28.2743C18.4073 28.2743 18.0073 28.6243 18.0073 29.1043C18.0073 29.6543 18.5873 29.8643 19.6173 30.1543C20.8973 30.5043 21.5673 30.9443 21.5673 31.9743C21.5673 32.6643 21.2373 33.1743 20.7473 33.5543C20.6673 33.6143 20.6773 33.7343 20.7473 33.7843C21.2673 34.1443 21.5173 34.5543 21.5173 35.1843C21.5173 36.5143 20.3673 37.3143 18.9573 37.3143C18.4273 37.3143 17.8673 37.1943 17.4473 36.9743C16.9073 36.7143 16.5473 36.3043 16.5473 35.8843C16.5473 35.5343 16.8473 35.2843 17.1873 35.3043C17.3873 35.3143 17.5273 35.4043 17.7673 35.6343C18.0973 35.9743 18.4673 36.1543 18.9473 36.1543L18.9573 36.1443ZM19.0173 33.1643C19.0173 33.1643 19.2573 33.2243 19.3873 33.2543C19.4573 33.2743 19.5373 33.2543 19.5973 33.2243C19.8973 33.0443 20.1173 32.6743 20.1173 32.2843C20.1173 31.7543 19.7373 31.4543 18.9873 31.2943C18.9573 31.2943 18.7773 31.2543 18.6673 31.2243C18.6073 31.2143 18.5473 31.2243 18.4973 31.2443C18.1673 31.4043 17.9073 31.8243 17.9073 32.2043C17.9073 32.7043 18.2673 32.9943 19.0173 33.1743V33.1643Z" fill="black"/>
</svg>
