<svg width="54" height="54" viewBox="0 0 54 54" fill="none" xmlns="http://www.w3.org/2000/svg">
<rect x="1.85" y="1.8501" width="50.3" height="50.3" rx="3" stroke="#8B1EFF" stroke-width="0.28"/>
<path d="M10.2065 37.1479V7.2959C10.2125 6.94397 10.252 6.59094 10.325 6.24585C10.397 5.90088 10.503 5.56384 10.6411 5.23901C10.9141 4.59497 11.3131 4.00098 11.8071 3.50171C12.2961 3.00769 12.8791 2.60559 13.5145 2.32971C13.8315 2.19177 14.1605 2.08582 14.4979 2.01257C14.8349 1.93958 15.1779 1.90051 15.5214 1.89661C19.4174 1.8656 23.3134 1.85059 27.2079 1.85059C31.1049 1.85059 34.9999 1.8656 38.8963 1.89673C39.2393 1.90076 39.5833 1.9397 39.9208 2.01318C40.2568 2.08618 40.5868 2.19312 40.903 2.33008C41.221 2.46802 41.525 2.63708 41.8108 2.8335C42.0978 3.03052 42.3658 3.25452 42.6108 3.50159C42.8578 3.75061 43.0808 4.02161 43.2748 4.31238C43.4708 4.60437 43.6398 4.91431 43.7772 5.23816C43.9142 5.56311 44.0212 5.90112 44.0934 6.24597C44.1664 6.59094 44.2054 6.94397 44.2104 7.29602C44.2104 7.29602 44.2104 37.1479 44.2101 37.1484C44.1891 37.8424 44.0511 38.5385 43.8027 39.1934C43.5557 39.8484 43.1977 40.4624 42.7389 40.9862C42.5089 41.2483 42.2549 41.4873 41.9799 41.7C41.7069 41.912 41.4139 42.0969 41.1049 42.2539C40.7979 42.4099 40.4769 42.5369 40.1451 42.6315C39.8161 42.7264 39.4771 42.7896 39.1357 42.8154C31.1907 43.2485 23.2267 43.2485 15.2819 42.8154C14.6009 42.7625 13.9259 42.5664 13.3131 42.2549C12.6931 41.9398 12.1351 41.5068 11.6787 40.9869C11.2197 40.4619 10.8627 39.8479 10.6155 39.193C10.3675 38.538 10.2285 37.843 10.2065 37.1479Z" stroke="#8B1EFF" stroke-width="0.283" stroke-miterlimit="10"/>
<rect x="12.8886" y="5.47168" width="28.63" height="34.35" rx="1.46" stroke="#00FFFF" stroke-width="0.28"/>
<path d="M38.6898 3.58646C31.0758 3.48746 23.3388 3.48746 15.7238 3.58646C15.4321 3.59048 15.1431 3.62149 14.858 3.68155C14.787 3.69656 14.7151 3.71255 14.6451 3.73148C14.5751 3.74954 14.5051 3.76956 14.4361 3.79153C14.298 3.83548 14.162 3.88455 14.0311 3.94156C13.8981 3.99857 13.7681 4.06155 13.6421 4.1315C13.578 4.16653 13.515 4.20352 13.453 4.24149C13.3911 4.27957 13.33 4.31949 13.2701 4.36148C13.0321 4.52652 12.8121 4.71451 12.6111 4.92349C12.5101 5.0275 12.4151 5.13748 12.3251 5.25357C12.2791 5.31058 12.2361 5.36954 12.1931 5.42947C12.151 5.48856 12.1111 5.54849 12.0721 5.6105C11.9151 5.8555 11.7841 6.11453 11.677 6.38651C11.651 6.4545 11.625 6.52347 11.6021 6.59354C11.578 6.66348 11.556 6.73355 11.5361 6.8035C11.4951 6.94449 11.4621 7.08646 11.4351 7.2305C11.382 7.51651 11.3551 7.80655 11.3551 8.10257C11.3528 17.5192 11.3519 26.9372 11.3499 36.3542C11.35 36.6476 11.371 36.9375 11.414 37.2235C11.436 37.3666 11.462 37.5086 11.4949 37.6505C11.511 37.7216 11.5289 37.7915 11.548 37.8616C11.567 37.9325 11.588 38.0026 11.61 38.0725C11.699 38.3506 11.809 38.6195 11.9429 38.8766C11.977 38.9416 12.0119 39.0055 12.048 39.0686C12.084 39.1316 12.1219 39.1936 12.162 39.2545C12.241 39.3756 12.324 39.4936 12.4129 39.6056C12.502 39.7185 12.597 39.8275 12.6969 39.9315C12.7469 39.9826 12.798 40.0336 12.852 40.0835C12.905 40.1326 12.959 40.1815 13.0139 40.2276C13.2359 40.4126 13.4729 40.5725 13.727 40.7066C13.7899 40.7395 13.8549 40.7716 13.92 40.8015C13.9859 40.8316 14.0529 40.8595 14.1199 40.8866C14.254 40.9386 14.3909 40.9836 14.5289 41.0216C14.8049 41.0966 15.087 41.1426 15.377 41.1576C23.2194 41.5847 31.1934 41.5847 39.0353 41.1577C39.3265 41.1418 39.6095 41.0959 39.8855 41.0218C40.0235 40.9838 40.1595 40.9388 40.2935 40.8867C40.3605 40.8598 40.4276 40.8318 40.4935 40.8018C40.5595 40.7708 40.6245 40.7388 40.6875 40.7049C40.9435 40.5708 41.1805 40.4108 41.3995 40.2259C41.5105 40.1338 41.6155 40.0348 41.7175 39.9308C41.7665 39.8788 41.8165 39.8249 41.8635 39.7698C41.9115 39.7159 41.9576 39.6598 42.0025 39.6038C42.1805 39.3778 42.3355 39.1367 42.4685 38.8819C42.5345 38.7538 42.5965 38.6228 42.6516 38.4878C42.6795 38.4208 42.7065 38.3528 42.7305 38.2838C42.7565 38.2159 42.7795 38.1468 42.8026 38.0768C42.8895 37.7998 42.9545 37.5168 42.9985 37.2298C43.0096 37.1577 43.0175 37.0847 43.0266 37.0128C43.0345 36.9398 43.0415 36.8669 43.0465 36.7939C43.0575 36.6479 43.0625 36.5008 43.0625 36.3548C43.0609 26.9375 43.0598 17.5196 43.059 8.10208C43.058 7.80716 43.032 7.51419 42.977 7.22415C42.95 7.07913 42.9149 6.93619 42.8749 6.79617C42.834 6.65616 42.7879 6.5181 42.735 6.38309C42.6809 6.2471 42.6219 6.11417 42.5549 5.98416C42.5219 5.9191 42.4879 5.85416 42.451 5.79019C42.4139 5.72708 42.3759 5.66409 42.3369 5.60208C42.1799 5.35709 41.9999 5.12918 41.799 4.9202C41.7489 4.86819 41.6979 4.81717 41.645 4.76712C41.5909 4.71719 41.5379 4.66812 41.481 4.62112C41.3699 4.52615 41.2539 4.43814 41.136 4.35611C40.8979 4.19315 40.6459 4.05411 40.3789 3.94009C40.313 3.91214 40.2449 3.88516 40.1759 3.85916C40.1079 3.83414 40.0389 3.81009 39.9699 3.78909C39.8309 3.74612 39.692 3.70914 39.5509 3.68008C39.269 3.6221 38.9829 3.59012 38.6898 3.58646Z" stroke="#FF00FF" stroke-width="0.283465" stroke-miterlimit="10" stroke-linecap="round" stroke-linejoin="round"/>
<path fill-rule="evenodd" clip-rule="evenodd" d="M34.5089 29.1209C34.7801 28.8497 35.2199 28.8497 35.4911 29.1209L38.5828 32.2126C38.854 32.4838 38.854 32.9235 38.5828 33.1947C38.3116 33.466 37.8718 33.466 37.6006 33.1947L35.099 30.6931C35.0443 30.6384 34.9557 30.6384 34.901 30.6931L32.3994 33.1947C32.1282 33.466 31.6884 33.466 31.4172 33.1947C31.146 32.9235 31.146 32.4838 31.4172 32.2126L34.5089 29.1209Z" fill="black"/>
<path d="M16 14.2697C16 11.3699 17.2299 9.75 19.4398 9.75C20.1798 9.75 20.8697 9.94 21.3797 10.28C21.8097 10.57 22.0697 10.96 22.0697 11.2799C22.0697 11.6499 21.7997 11.9099 21.4197 11.9099C21.1897 11.9099 21.0197 11.8399 20.7297 11.6099C20.2997 11.2399 19.9198 11.0799 19.4398 11.0799C18.4266 11.0799 17.746 11.832 17.6095 13.4955C17.5989 13.6241 17.7524 13.6986 17.847 13.6108C18.1756 13.306 18.8089 12.8598 19.6998 12.8598C21.2597 12.8598 22.3496 13.9797 22.3496 15.5996C22.3496 17.3695 21.1197 18.5494 19.2798 18.5494C18.1999 18.5494 17.3299 18.1294 16.77 17.3295C16.26 16.6196 16 15.5796 16 14.2697ZM17.7699 15.6496C17.7699 16.5695 18.3999 17.2295 19.2798 17.2295C20.1597 17.2295 20.7397 16.5995 20.7397 15.6596C20.7397 14.7197 20.1397 14.1097 19.2598 14.1097C18.3799 14.1097 17.7699 14.7497 17.7699 15.6496Z" fill="black"/>
<path d="M18.9573 36.144C19.6273 36.144 20.0273 35.804 20.0273 35.304C20.0273 34.754 19.4873 34.574 18.3873 34.264C17.1873 33.924 16.4673 33.434 16.4673 32.424C16.4673 31.714 16.8273 31.254 17.3373 30.934C17.4273 30.884 17.4173 30.754 17.3373 30.694C16.8173 30.334 16.5273 29.854 16.5273 29.184C16.5273 27.924 17.6273 27.124 19.0373 27.124C19.6673 27.124 20.2773 27.294 20.7273 27.594C21.1273 27.844 21.3773 28.184 21.3673 28.534C21.3573 28.884 21.0573 29.114 20.7273 29.094C20.5273 29.074 20.3773 28.984 20.1373 28.764C19.7673 28.434 19.4673 28.274 19.0373 28.274C18.4073 28.274 18.0073 28.624 18.0073 29.104C18.0073 29.654 18.5873 29.864 19.6173 30.154C20.8973 30.504 21.5673 30.944 21.5673 31.974C21.5673 32.664 21.2373 33.174 20.7473 33.554C20.6673 33.614 20.6773 33.734 20.7473 33.784C21.2673 34.144 21.5173 34.554 21.5173 35.184C21.5173 36.514 20.3673 37.314 18.9573 37.314C18.4273 37.314 17.8673 37.194 17.4473 36.974C16.9073 36.714 16.5473 36.304 16.5473 35.884C16.5473 35.534 16.8473 35.284 17.1873 35.304C17.3873 35.314 17.5273 35.404 17.7673 35.634C18.0973 35.974 18.4673 36.154 18.9473 36.154L18.9573 36.144ZM19.0173 33.164C19.0173 33.164 19.2573 33.224 19.3873 33.254C19.4573 33.274 19.5373 33.254 19.5973 33.224C19.8973 33.044 20.1173 32.674 20.1173 32.284C20.1173 31.754 19.7373 31.454 18.9873 31.294C18.9573 31.294 18.7773 31.254 18.6673 31.224C18.6073 31.214 18.5473 31.224 18.4973 31.244C18.1673 31.404 17.9073 31.824 17.9073 32.204C17.9073 32.704 18.2673 32.994 19.0173 33.174V33.164Z" fill="black"/>
</svg>
