<svg width="54" height="54" viewBox="0 0 54 54" fill="none" xmlns="http://www.w3.org/2000/svg">
<rect x="1.8501" y="1.84961" width="50.3" height="50.3" rx="3" stroke="#8B1EFF" stroke-width="0.28"/>
<path d="M10.2065 37.1479V7.2959C10.2125 6.94397 10.252 6.59094 10.325 6.24585C10.397 5.90088 10.503 5.56384 10.6411 5.23901C10.9141 4.59497 11.3131 4.00098 11.8071 3.50171C12.2961 3.00769 12.8791 2.60559 13.5145 2.32971C13.8315 2.19177 14.1605 2.08582 14.4979 2.01257C14.8349 1.93958 15.1779 1.90051 15.5214 1.89661C19.4174 1.8656 23.3134 1.85059 27.2079 1.85059C31.1049 1.85059 34.9999 1.8656 38.8963 1.89673C39.2393 1.90076 39.5833 1.9397 39.9208 2.01318C40.2568 2.08618 40.5868 2.19312 40.903 2.33008C41.221 2.46802 41.525 2.63708 41.8108 2.8335C42.0978 3.03052 42.3658 3.25452 42.6108 3.50159C42.8578 3.75061 43.0808 4.02161 43.2748 4.31238C43.4708 4.60437 43.6398 4.91431 43.7772 5.23816C43.9142 5.56311 44.0212 5.90112 44.0934 6.24597C44.1664 6.59094 44.2054 6.94397 44.2104 7.29602C44.2104 7.29602 44.2104 37.1479 44.2101 37.1484C44.1891 37.8424 44.0511 38.5385 43.8027 39.1934C43.5557 39.8484 43.1977 40.4624 42.7389 40.9862C42.5089 41.2483 42.2549 41.4873 41.9799 41.7C41.7069 41.912 41.4139 42.0969 41.1049 42.2539C40.7979 42.4099 40.4769 42.5369 40.1451 42.6315C39.8161 42.7264 39.4771 42.7896 39.1357 42.8154C31.1907 43.2485 23.2267 43.2485 15.2819 42.8154C14.6009 42.7625 13.9259 42.5664 13.3131 42.2549C12.6931 41.9398 12.1351 41.5068 11.6787 40.9869C11.2197 40.4619 10.8627 39.8479 10.6155 39.193C10.3675 38.538 10.2285 37.843 10.2065 37.1479Z" stroke="#8B1EFF" stroke-width="0.283" stroke-miterlimit="10"/>
<rect x="12.8887" y="5.47168" width="28.63" height="34.35" rx="1.46" stroke="#00FFFF" stroke-width="0.28"/>
<path d="M38.6898 3.58597C31.0758 3.48697 23.3388 3.48697 15.7238 3.58597C15.4321 3.59 15.1431 3.621 14.858 3.68106C14.787 3.69608 14.7151 3.71207 14.6451 3.73099C14.5751 3.74905 14.5051 3.76907 14.4361 3.79105C14.298 3.83499 14.162 3.88406 14.0311 3.94107C13.8981 3.99808 13.7681 4.06107 13.6421 4.13101C13.578 4.16605 13.515 4.20303 13.453 4.241C13.3911 4.27908 13.33 4.319 13.2701 4.36099C13.0321 4.52603 12.8121 4.71402 12.6111 4.923C12.5101 5.02701 12.4151 5.13699 12.3251 5.25308C12.2791 5.31009 12.2361 5.36905 12.1931 5.42899C12.151 5.48807 12.1111 5.548 12.0721 5.61002C11.9151 5.85501 11.7841 6.11404 11.677 6.38602C11.651 6.45401 11.625 6.52298 11.6021 6.59305C11.578 6.66299 11.556 6.73306 11.5361 6.80301C11.4951 6.944 11.4621 7.08597 11.4351 7.23001C11.382 7.51602 11.3551 7.80606 11.3551 8.10208C11.3528 17.5187 11.3519 26.9367 11.3499 36.3537C11.35 36.6471 11.371 36.937 11.414 37.2231C11.436 37.3661 11.462 37.5081 11.4949 37.6501C11.511 37.7211 11.5289 37.791 11.548 37.8611C11.567 37.932 11.588 38.0021 11.61 38.0721C11.699 38.3501 11.809 38.619 11.9429 38.8761C11.977 38.9411 12.0119 39.005 12.048 39.0681C12.084 39.1311 12.1219 39.1931 12.162 39.2541C12.241 39.3752 12.324 39.4931 12.4129 39.6051C12.502 39.718 12.597 39.8271 12.6969 39.9311C12.7469 39.9821 12.798 40.0331 12.852 40.083C12.905 40.1321 12.959 40.1811 13.0139 40.2271C13.2359 40.4121 13.4729 40.5721 13.727 40.7061C13.7899 40.739 13.8549 40.7711 13.92 40.8011C13.9859 40.8311 14.0529 40.859 14.1199 40.8861C14.254 40.9381 14.3909 40.9831 14.5289 41.0211C14.8049 41.0961 15.087 41.1421 15.377 41.1571C23.2194 41.5843 31.1934 41.5843 39.0353 41.1573C39.3265 41.1413 39.6095 41.0954 39.8855 41.0213C40.0235 40.9833 40.1595 40.9383 40.2935 40.8863C40.3605 40.8593 40.4276 40.8313 40.4935 40.8013C40.5595 40.7703 40.6245 40.7383 40.6875 40.7044C40.9435 40.5703 41.1805 40.4103 41.3995 40.2254C41.5105 40.1333 41.6155 40.0343 41.7175 39.9303C41.7665 39.8783 41.8165 39.8244 41.8635 39.7693C41.9115 39.7154 41.9576 39.6593 42.0025 39.6033C42.1805 39.3773 42.3355 39.1363 42.4685 38.8814C42.5345 38.7533 42.5965 38.6223 42.6516 38.4873C42.6795 38.4203 42.7065 38.3523 42.7305 38.2834C42.7565 38.2154 42.7795 38.1463 42.8026 38.0763C42.8895 37.7993 42.9545 37.5163 42.9985 37.2293C43.0096 37.1573 43.0175 37.0843 43.0266 37.0124C43.0345 36.9394 43.0415 36.8664 43.0465 36.7934C43.0575 36.6474 43.0625 36.5003 43.0625 36.3543C43.0609 26.937 43.0598 17.5191 43.059 8.10159C43.058 7.80667 43.032 7.5137 42.977 7.22366C42.95 7.07864 42.9149 6.9357 42.8749 6.79568C42.834 6.65567 42.7879 6.51761 42.735 6.3826C42.6809 6.24661 42.6219 6.11368 42.5549 5.98367C42.5219 5.91861 42.4879 5.85367 42.451 5.7897C42.4139 5.72659 42.3759 5.6636 42.3369 5.60159C42.1799 5.3566 41.9999 5.12869 41.799 4.91971C41.7489 4.86771 41.6979 4.81668 41.645 4.76663C41.5909 4.71671 41.5379 4.66763 41.481 4.62064C41.3699 4.52567 41.2539 4.43765 41.136 4.35562C40.8979 4.19266 40.6459 4.05362 40.3789 3.93961C40.313 3.91165 40.2449 3.88467 40.1759 3.85867C40.1079 3.83365 40.0389 3.8096 39.9699 3.7886C39.8309 3.74564 39.692 3.70865 39.5509 3.6796C39.269 3.62161 38.9829 3.58963 38.6898 3.58597Z" stroke="#FF00FF" stroke-width="0.283465" stroke-miterlimit="10" stroke-linecap="round" stroke-linejoin="round"/>
<path d="M34.3736 32.3607L34.2619 30.5189C34.2309 30.0973 34.5348 29.75 34.9937 29.75C35.4464 29.75 35.744 30.1035 35.7192 30.5189L35.6076 32.3607C35.5828 32.7142 35.3223 33.0118 34.9875 33.0118C34.6526 33.0118 34.3922 32.7142 34.3736 32.3607Z" fill="black"/>
<path d="M38.2174 13.541L31.7965 13.541C31.5596 13.541 31.3481 13.7142 31.3256 13.95C31.2998 14.2205 31.5119 14.448 31.7771 14.448L32.0752 14.448C32.1864 14.448 32.2522 14.569 32.1952 14.6644C32.0464 14.9131 31.9682 15.1946 31.9682 15.4733C31.9682 16.7691 33.1773 17.7674 35.0126 17.7674C36.2279 17.7674 37.2696 17.352 37.7594 16.4839C37.8772 16.2979 37.9516 16.1119 37.9516 15.8763C37.9516 15.5167 37.6664 15.2624 37.3006 15.2624C36.9596 15.2624 36.7798 15.4113 36.6123 15.6531C36.2651 16.2297 35.8001 16.4901 35.0312 16.4901C34.1012 16.4901 33.4997 16.0003 33.4997 15.3741C33.4997 15.0579 33.6009 14.7564 33.8542 14.5236C33.9069 14.4752 33.9757 14.448 34.0474 14.448C34.6135 14.448 37.3684 14.448 38.1984 14.448C38.4353 14.448 38.6463 14.2748 38.6688 14.039C38.6945 13.7685 38.4826 13.541 38.2174 13.541ZM31.7771 12.7832L38.1979 12.7832C38.4348 12.7832 38.6463 12.61 38.6688 12.3741C38.6945 12.1036 38.4826 11.8761 38.2174 11.8761L37.8756 11.8761C37.7683 11.8761 37.7011 11.762 37.7516 11.6673C37.862 11.4602 37.9206 11.2328 37.9206 11.0028C37.9206 9.55806 36.5813 8.7334 34.9568 8.7334C33.9338 8.7334 32.9107 9.04342 32.4023 9.91768C32.2782 10.1099 32.21 10.3021 32.21 10.5253C32.21 10.8725 32.4705 11.133 32.8611 11.133C33.1401 11.133 33.3385 11.0338 33.5245 10.7485C33.8346 10.2339 34.3368 10.0107 34.9506 10.0107C35.7319 10.0107 36.3953 10.3889 36.3953 11.1206C36.3953 11.3612 36.3163 11.6035 36.1486 11.7878C36.0962 11.8454 36.0201 11.8761 35.9422 11.8761L31.7965 11.8761C31.5596 11.8761 31.3481 12.0493 31.3256 12.2851C31.2998 12.5556 31.5119 12.7832 31.7771 12.7832Z" fill="black"/>
<path d="M22.8879 10.9347C22.8879 11.8347 22.0629 12.9147 20.6829 12.9147C19.4979 12.9147 18.1929 11.8947 17.4279 11.8947C16.6029 11.8947 16.3929 12.7947 15.7629 12.7947C15.2829 12.7947 15.1179 12.4197 15.1179 12.0747C15.1179 11.1747 15.9429 10.0947 17.2329 10.0947C18.5079 10.0947 19.8129 11.1147 20.5779 11.1147C21.4029 11.1147 21.6129 10.2147 22.2429 10.2147C22.7229 10.2147 22.8879 10.5897 22.8879 10.9347Z" fill="black"/>
<path d="M18.9219 31.8945L17.7695 30.5762C17.6426 30.4199 17.5645 30.2051 17.5645 29.9805C17.5645 29.4922 17.9648 29.082 18.4531 29.082C18.707 29.082 18.9609 29.1504 19.1953 29.4922L20.123 30.8984C20.2109 31.0352 20.2891 31.2012 20.2891 31.377C20.2891 31.8164 19.9277 32.1777 19.5176 32.1777C19.2734 32.1777 19.0684 32.0605 18.9219 31.8945Z" fill="black"/>
</svg>
