<svg width="54" height="54" viewBox="0 0 54 54" fill="none" xmlns="http://www.w3.org/2000/svg">
<rect x="1.8501" y="1.84961" width="50.3" height="50.3" rx="3" stroke="#8B1EFF" stroke-width="0.28"/>
<path d="M10.2065 37.1479V7.2959C10.2125 6.94397 10.252 6.59094 10.325 6.24585C10.397 5.90088 10.503 5.56384 10.6411 5.23901C10.9141 4.59497 11.3131 4.00098 11.8071 3.50171C12.2961 3.00769 12.8791 2.60559 13.5145 2.32971C13.8315 2.19177 14.1605 2.08582 14.4979 2.01257C14.8349 1.93958 15.1779 1.90051 15.5214 1.89661C19.4174 1.8656 23.3134 1.85059 27.2079 1.85059C31.1049 1.85059 34.9999 1.8656 38.8963 1.89673C39.2393 1.90076 39.5833 1.9397 39.9208 2.01318C40.2568 2.08618 40.5868 2.19312 40.903 2.33008C41.221 2.46802 41.525 2.63708 41.8108 2.8335C42.0978 3.03052 42.3658 3.25452 42.6108 3.50159C42.8578 3.75061 43.0808 4.02161 43.2748 4.31238C43.4708 4.60437 43.6398 4.91431 43.7772 5.23816C43.9142 5.56311 44.0212 5.90112 44.0934 6.24597C44.1664 6.59094 44.2054 6.94397 44.2104 7.29602C44.2104 7.29602 44.2104 37.1479 44.2101 37.1484C44.1891 37.8424 44.0511 38.5385 43.8027 39.1934C43.5557 39.8484 43.1977 40.4624 42.7389 40.9862C42.5089 41.2483 42.2549 41.4873 41.9799 41.7C41.7069 41.912 41.4139 42.0969 41.1049 42.2539C40.7979 42.4099 40.4769 42.5369 40.1451 42.6315C39.8161 42.7264 39.4771 42.7896 39.1357 42.8154C31.1907 43.2485 23.2267 43.2485 15.2819 42.8154C14.6009 42.7625 13.9259 42.5664 13.3131 42.2549C12.6931 41.9398 12.1351 41.5068 11.6787 40.9869C11.2197 40.4619 10.8627 39.8479 10.6155 39.193C10.3675 38.538 10.2285 37.843 10.2065 37.1479Z" stroke="#8B1EFF" stroke-width="0.283" stroke-miterlimit="10"/>
<rect x="12.8887" y="5.47168" width="28.63" height="34.35" rx="1.46" stroke="#00FFFF" stroke-width="0.28"/>
<path d="M38.6898 3.58597C31.0758 3.48697 23.3388 3.48697 15.7238 3.58597C15.4321 3.59 15.1431 3.621 14.858 3.68106C14.787 3.69608 14.7151 3.71207 14.6451 3.73099C14.5751 3.74905 14.5051 3.76907 14.4361 3.79105C14.298 3.83499 14.162 3.88406 14.0311 3.94107C13.8981 3.99808 13.7681 4.06107 13.6421 4.13101C13.578 4.16605 13.515 4.20303 13.453 4.241C13.3911 4.27908 13.33 4.319 13.2701 4.36099C13.0321 4.52603 12.8121 4.71402 12.6111 4.923C12.5101 5.02701 12.4151 5.13699 12.3251 5.25308C12.2791 5.31009 12.2361 5.36905 12.1931 5.42899C12.151 5.48807 12.1111 5.548 12.0721 5.61002C11.9151 5.85501 11.7841 6.11404 11.677 6.38602C11.651 6.45401 11.625 6.52298 11.6021 6.59305C11.578 6.66299 11.556 6.73306 11.5361 6.80301C11.4951 6.944 11.4621 7.08597 11.4351 7.23001C11.382 7.51602 11.3551 7.80606 11.3551 8.10208C11.3528 17.5187 11.3519 26.9367 11.3499 36.3537C11.35 36.6471 11.371 36.937 11.414 37.2231C11.436 37.3661 11.462 37.5081 11.4949 37.6501C11.511 37.7211 11.5289 37.791 11.548 37.8611C11.567 37.932 11.588 38.0021 11.61 38.0721C11.699 38.3501 11.809 38.619 11.9429 38.8761C11.977 38.9411 12.0119 39.005 12.048 39.0681C12.084 39.1311 12.1219 39.1931 12.162 39.2541C12.241 39.3752 12.324 39.4931 12.4129 39.6051C12.502 39.718 12.597 39.8271 12.6969 39.9311C12.7469 39.9821 12.798 40.0331 12.852 40.083C12.905 40.1321 12.959 40.1811 13.0139 40.2271C13.2359 40.4121 13.4729 40.5721 13.727 40.7061C13.7899 40.739 13.8549 40.7711 13.92 40.8011C13.9859 40.8311 14.0529 40.859 14.1199 40.8861C14.254 40.9381 14.3909 40.9831 14.5289 41.0211C14.8049 41.0961 15.087 41.1421 15.377 41.1571C23.2194 41.5843 31.1934 41.5843 39.0353 41.1573C39.3265 41.1413 39.6095 41.0954 39.8855 41.0213C40.0235 40.9833 40.1595 40.9383 40.2935 40.8863C40.3605 40.8593 40.4276 40.8313 40.4935 40.8013C40.5595 40.7703 40.6245 40.7383 40.6875 40.7044C40.9435 40.5703 41.1805 40.4103 41.3995 40.2254C41.5105 40.1333 41.6155 40.0343 41.7175 39.9303C41.7665 39.8783 41.8165 39.8244 41.8635 39.7693C41.9115 39.7154 41.9576 39.6593 42.0025 39.6033C42.1805 39.3773 42.3355 39.1363 42.4685 38.8814C42.5345 38.7533 42.5965 38.6223 42.6516 38.4873C42.6795 38.4203 42.7065 38.3523 42.7305 38.2834C42.7565 38.2154 42.7795 38.1463 42.8026 38.0763C42.8895 37.7993 42.9545 37.5163 42.9985 37.2293C43.0096 37.1573 43.0175 37.0843 43.0266 37.0124C43.0345 36.9394 43.0415 36.8664 43.0465 36.7934C43.0575 36.6474 43.0625 36.5003 43.0625 36.3543C43.0609 26.937 43.0598 17.5191 43.059 8.10159C43.058 7.80667 43.032 7.5137 42.977 7.22366C42.95 7.07864 42.9149 6.9357 42.8749 6.79568C42.834 6.65567 42.7879 6.51761 42.735 6.3826C42.6809 6.24661 42.6219 6.11368 42.5549 5.98367C42.5219 5.91861 42.4879 5.85367 42.451 5.7897C42.4139 5.72659 42.3759 5.6636 42.3369 5.60159C42.1799 5.3566 41.9999 5.12869 41.799 4.91971C41.7489 4.86771 41.6979 4.81668 41.645 4.76663C41.5909 4.71671 41.5379 4.66763 41.481 4.62064C41.3699 4.52567 41.2539 4.43765 41.136 4.35562C40.8979 4.19266 40.6459 4.05362 40.3789 3.93961C40.313 3.91165 40.2449 3.88467 40.1759 3.85867C40.1079 3.83365 40.0389 3.8096 39.9699 3.7886C39.8309 3.74564 39.692 3.70865 39.5509 3.6796C39.269 3.62161 38.9829 3.58963 38.6898 3.58597Z" stroke="#FF00FF" stroke-width="0.283465" stroke-miterlimit="10" stroke-linecap="round" stroke-linejoin="round"/>
<path fill-rule="evenodd" clip-rule="evenodd" d="M26.3629 9.15055C26.3982 9.07859 26.4459 9.0122 26.5049 8.95492C26.6382 8.82517 26.817 8.75407 27 8.75391C27.183 8.75407 27.3618 8.82517 27.4951 8.95492C27.5541 9.0122 27.6018 9.07858 27.6371 9.15054L27.6392 9.15461C27.6451 9.16653 27.6521 9.18106 27.66 9.19827C27.6758 9.23269 27.6951 9.27778 27.7166 9.33411C27.7597 9.44683 27.8113 9.60412 27.8611 9.81053C27.9605 10.2236 28.0516 10.8308 28.0516 11.6687C28.0516 12.4698 27.9954 14.3082 27.9401 15.9312C27.9123 16.746 27.8845 17.5116 27.8636 18.0733C27.8532 18.3542 27.8445 18.5842 27.8384 18.744L27.8314 18.9287L27.8295 18.977L27.8294 18.9796C27.8322 21.168 28.5146 22.752 29.2629 24.4893L29.2804 24.5297C29.5345 25.1196 29.7944 25.7257 30.0277 26.3715C30.0506 26.4348 30.115 26.4735 30.1812 26.4619C30.7479 26.3623 31.1719 26.1948 31.4596 25.9884C31.8022 25.7426 31.9724 25.432 31.9724 25.0002C31.9724 24.5368 31.8722 24.233 31.7204 24.0266C31.5721 23.8249 31.3162 23.6368 30.8476 23.5147C30.5238 23.4304 30.3028 23.1314 30.3173 22.797C30.4145 20.5452 30.6828 18.0437 31.3509 15.8984C32.0123 13.7742 33.1144 11.8458 34.9916 10.9761C35.2114 10.8742 35.468 10.8915 35.6723 11.0219C35.8765 11.1524 36 11.378 36 11.6203V30.3275C36 31.1118 35.3643 31.7475 34.58 31.7475H30.8986C30.8296 31.7475 30.7711 31.7981 30.7589 31.866C30.3727 34.0271 28.7974 35.4777 27.5989 36.5812L27.5272 36.6472C27.3973 36.7911 27.2092 36.8816 27 36.8816C26.9112 36.8816 26.8261 36.8653 26.7477 36.8355C26.6417 36.7951 26.5478 36.7301 26.4731 36.6474L26.4011 36.5812C25.2027 35.4777 23.6273 34.0271 23.2411 31.866C23.2289 31.7981 23.1704 31.7475 23.1014 31.7475H19.42C18.6358 31.7475 18 31.1117 18 30.3275V11.6203C18 11.3779 18.1236 11.1524 18.3278 11.0219C18.532 10.8915 18.7886 10.8742 19.0085 10.976C20.8856 11.8458 21.9877 13.7742 22.6492 15.8984C23.3172 18.0436 23.5855 20.5452 23.6828 22.797C23.6972 23.1313 23.4762 23.4304 23.1524 23.5147C22.6838 23.6368 22.428 23.8249 22.2797 24.0265C22.1279 24.233 22.0276 24.5368 22.0276 25.0002C22.0276 25.4319 22.1978 25.7426 22.5404 25.9883C22.8281 26.1948 23.2521 26.3623 23.8188 26.4619C23.885 26.4735 23.9494 26.4348 23.9723 26.3715C24.2056 25.7257 24.4656 25.1196 24.7196 24.5297L24.7371 24.4893C25.4855 22.752 26.1678 21.168 26.1706 18.9796L26.1705 18.977L26.1686 18.9287L26.1616 18.744C26.1555 18.5842 26.1468 18.3542 26.1364 18.0733C26.1155 17.5116 26.0878 16.746 26.0599 15.9312C26.0046 14.3082 25.9485 12.4698 25.9485 11.6687C25.9485 10.8308 26.0395 10.2236 26.139 9.81053C26.1887 9.60412 26.2403 9.44683 26.2834 9.33411C26.3049 9.27778 26.3242 9.23269 26.34 9.19827C26.3479 9.18106 26.3549 9.16653 26.3608 9.15461L26.3629 9.15055ZM23.4837 27.9952C23.5022 27.9167 23.4516 27.8384 23.3726 27.822C22.7398 27.6905 22.1717 27.4715 21.7126 27.1421C21.2368 26.8007 20.8951 26.351 20.7265 25.8094C20.7077 25.7488 20.6525 25.7059 20.589 25.7059H19.56C19.4827 25.7059 19.42 25.7686 19.42 25.8459V30.1875C19.42 30.2648 19.4827 30.3275 19.56 30.3275H23.0293C23.1044 30.3275 23.166 30.2682 23.1699 30.1932C23.2111 29.3969 23.3245 28.6706 23.4837 27.9952ZM24.7315 30.3275C24.6517 30.3275 24.5879 30.2608 24.5926 30.1811C24.6338 29.485 24.7372 28.8486 24.8829 28.2485C24.9026 28.1674 24.9894 28.1223 25.0652 28.1574C25.3735 28.3 25.6187 28.4997 25.8079 28.7191C26.1577 29.125 26.29 29.567 26.29 29.8031V30.1875C26.29 30.2648 26.2273 30.3275 26.15 30.3275H24.7315ZM24.8367 31.7475C24.7478 31.7475 24.6813 31.8295 24.7032 31.9157C24.9299 32.8061 25.4321 33.5531 26.0525 34.2434C26.1369 34.3373 26.29 34.2765 26.29 34.1502V31.8875C26.29 31.8102 26.2273 31.7475 26.15 31.7475H24.8367ZM27.71 34.1502C27.71 34.2765 27.8631 34.3373 27.9475 34.2434C28.5679 33.5531 29.0701 32.8061 29.2968 31.9157C29.3187 31.8295 29.2522 31.7475 29.1633 31.7475H27.85C27.7727 31.7475 27.71 31.8102 27.71 31.8875V34.1502ZM30.8301 30.1932C30.834 30.2682 30.8956 30.3275 30.9707 30.3275H34.44C34.5174 30.3275 34.58 30.2648 34.58 30.1875V25.8459C34.58 25.7686 34.5174 25.7059 34.44 25.7059H33.411C33.3475 25.7059 33.2924 25.7488 33.2735 25.8094C33.1049 26.351 32.7632 26.8008 32.2874 27.1421C31.8284 27.4715 31.2602 27.6905 30.6274 27.822C30.5484 27.8385 30.4978 27.9167 30.5163 27.9953C30.6755 28.6707 30.7889 29.397 30.8301 30.1932ZM28.9349 28.1574C29.0106 28.1223 29.0974 28.1674 29.1171 28.2486C29.2628 28.8486 29.3662 29.485 29.4074 30.1811C29.4121 30.2608 29.3483 30.3275 29.2685 30.3275H27.85C27.7727 30.3275 27.71 30.2648 27.71 30.1875V29.8031C27.71 29.567 27.8423 29.125 28.1922 28.7191C28.3813 28.4997 28.6265 28.3 28.9349 28.1574ZM28.601 26.6085C28.6286 26.6815 28.5904 26.7624 28.518 26.7913C27.9353 27.024 27.4679 27.3844 27.1165 27.7921C27.1157 27.7931 27.1148 27.7941 27.114 27.7951C27.0545 27.8643 26.9456 27.8643 26.8861 27.7951C26.8852 27.7941 26.8844 27.7931 26.8835 27.7921C26.5322 27.3844 26.0647 27.0239 25.4821 26.7913C25.4096 26.7624 25.3715 26.6814 25.399 26.6085C25.5924 26.0969 25.8059 25.5974 26.0238 25.0915L26.0671 24.991L26.0671 24.991C26.3395 24.3589 26.6179 23.713 26.8609 23.0249C26.9062 22.8967 27.0938 22.8967 27.1391 23.0249C27.3821 23.713 27.6605 24.3589 27.9329 24.991L27.9762 25.0915C28.1941 25.5974 28.4076 26.0969 28.601 26.6085ZM26.9999 18.9615L27 18.9615L27.0001 18.9615L27 18.9615L26.9999 18.9615ZM21.1358 23.1852C20.9162 23.4837 20.7751 23.8175 20.6945 24.1723C20.6796 24.2379 20.6222 24.2859 20.5549 24.2859H19.56C19.4827 24.2859 19.42 24.2232 19.42 24.1459V13.2798C19.42 13.1571 19.5646 13.0959 19.6478 13.1861C20.3457 13.9428 20.8866 15.0143 21.2934 16.3206C21.8501 18.1083 22.1167 20.2135 22.2327 22.2334C22.2361 22.2918 22.2024 22.3458 22.1494 22.3707C21.74 22.5634 21.3963 22.831 21.1358 23.1852ZM32.8643 23.1852C33.0838 23.4838 33.2249 23.8175 33.3055 24.1724C33.3204 24.238 33.3779 24.2859 33.4451 24.2859H34.44C34.5174 24.2859 34.58 24.2232 34.58 24.1459V13.2798C34.58 13.1571 34.4354 13.0959 34.3522 13.1861C33.6543 13.9428 33.1134 15.0143 32.7067 16.3206C32.15 18.1083 31.8833 20.2136 31.7673 22.2334C31.764 22.2918 31.7976 22.3458 31.8506 22.3707C32.2601 22.5634 32.6038 22.831 32.8643 23.1852Z" fill="black"/>
</svg>
