<svg width="54" height="55" viewBox="0 0 54 55" fill="none" xmlns="http://www.w3.org/2000/svg">
<rect x="1.8501" y="2.7984" width="50.3" height="50.3" rx="3" stroke="#8B1EFF" stroke-width="0.28"/>
<path d="M10.2065 38.0963V8.24426C10.2125 7.89233 10.252 7.53931 10.325 7.19421C10.397 6.84924 10.503 6.51221 10.6411 6.18738C10.9141 5.54333 11.3131 4.94934 11.8071 4.45007C12.2961 3.95605 12.8791 3.55396 13.5145 3.27808C13.8315 3.14014 14.1605 3.03418 14.4979 2.96094C14.8349 2.88794 15.1779 2.84888 15.5214 2.84497C19.4174 2.81396 23.3134 2.79895 27.2079 2.79895C31.1049 2.79895 34.9999 2.81396 38.8963 2.84509C39.2393 2.84912 39.5833 2.88806 39.9208 2.96155C40.2568 3.03455 40.5868 3.14148 40.903 3.27844C41.221 3.41638 41.525 3.58545 41.8108 3.78186C42.0978 3.97888 42.3658 4.20288 42.6108 4.44995C42.8578 4.69897 43.0808 4.96997 43.2748 5.26074C43.4708 5.55273 43.6398 5.86267 43.7772 6.18652C43.9142 6.51147 44.0212 6.84949 44.0934 7.19434C44.1664 7.53931 44.2054 7.89233 44.2104 8.24438C44.2104 8.24438 44.2104 38.0963 44.2101 38.0968C44.1891 38.7908 44.0511 39.4868 43.8027 40.1417C43.5557 40.7968 43.1977 41.4108 42.7389 41.9346C42.5089 42.1967 42.2549 42.4357 41.9799 42.6483C41.7069 42.8604 41.4139 43.0453 41.1049 43.2023C40.7979 43.3583 40.4769 43.4852 40.1451 43.5798C39.8161 43.6748 39.4771 43.7379 39.1357 43.7638C31.1907 44.1969 23.2267 44.1969 15.2819 43.7638C14.6009 43.7108 13.9259 43.5148 13.3131 43.2032C12.6931 42.8882 12.1351 42.4552 11.6787 41.9353C11.2197 41.4103 10.8627 40.7963 10.6155 40.1414C10.3675 39.4863 10.2285 38.7914 10.2065 38.0963Z" stroke="#8B1EFF" stroke-width="0.283" stroke-miterlimit="10"/>
<rect x="12.8887" y="6.4201" width="28.63" height="34.35" rx="1.46" stroke="#00FFFF" stroke-width="0.28"/>
<path d="M38.6898 4.53482C31.0758 4.43582 23.3388 4.43582 15.7238 4.53482C15.4321 4.53885 15.1431 4.56985 14.858 4.62991C14.787 4.64493 14.7151 4.66092 14.6451 4.67984C14.5751 4.69791 14.5051 4.71793 14.4361 4.7399C14.298 4.78384 14.162 4.83292 14.0311 4.88992C13.8981 4.94693 13.7681 5.00992 13.6421 5.07986C13.578 5.1149 13.515 5.15189 13.453 5.18985C13.3911 5.22794 13.33 5.26785 13.2701 5.30984C13.0321 5.47488 12.8121 5.66287 12.6111 5.87186C12.5101 5.97586 12.4151 6.08585 12.3251 6.20193C12.2791 6.25894 12.2361 6.3179 12.1931 6.37784C12.151 6.43692 12.1111 6.49686 12.0721 6.55887C11.9151 6.80386 11.7841 7.0629 11.677 7.33487C11.651 7.40286 11.625 7.47183 11.6021 7.5419C11.578 7.61185 11.556 7.68192 11.5361 7.75186C11.4951 7.89285 11.4621 8.03482 11.4351 8.17886C11.382 8.46487 11.3551 8.75491 11.3551 9.05093C11.3528 18.4676 11.3519 27.8855 11.3499 37.3025C11.35 37.596 11.371 37.8859 11.414 38.1719C11.436 38.315 11.462 38.4569 11.4949 38.5989C11.511 38.67 11.5289 38.7399 11.548 38.81C11.567 38.8809 11.588 38.951 11.61 39.0209C11.699 39.299 11.809 39.5679 11.9429 39.825C11.977 39.8899 12.0119 39.9539 12.048 40.017C12.084 40.08 12.1219 40.142 12.162 40.2029C12.241 40.324 12.324 40.4419 12.4129 40.554C12.502 40.6669 12.597 40.7759 12.6969 40.8799C12.7469 40.9309 12.798 40.982 12.852 41.0319C12.905 41.081 12.959 41.1299 13.0139 41.1759C13.2359 41.361 13.4729 41.5209 13.727 41.6549C13.7899 41.6879 13.8549 41.72 13.92 41.7499C13.9859 41.7799 14.0529 41.8079 14.1199 41.835C14.254 41.887 14.3909 41.9319 14.5289 41.97C14.8049 42.045 15.087 42.091 15.377 42.106C23.2194 42.5331 31.1934 42.5331 39.0353 42.1061C39.3265 42.0901 39.6095 42.0442 39.8855 41.9701C40.0235 41.9322 40.1595 41.8871 40.2935 41.8351C40.3605 41.8081 40.4276 41.7802 40.4935 41.7502C40.5595 41.7191 40.6245 41.6872 40.6875 41.6532C40.9435 41.5192 41.1805 41.3592 41.3995 41.1742C41.5105 41.0822 41.6155 40.9832 41.7175 40.8792C41.7665 40.8272 41.8165 40.7732 41.8635 40.7182C41.9115 40.6642 41.9576 40.6082 42.0025 40.5522C42.1805 40.3262 42.3355 40.0851 42.4685 39.8302C42.5345 39.7022 42.5965 39.5712 42.6516 39.4362C42.6795 39.3692 42.7065 39.3012 42.7305 39.2322C42.7565 39.1642 42.7795 39.0951 42.8026 39.0252C42.8895 38.7482 42.9545 38.4651 42.9985 38.1781C43.0096 38.1061 43.0175 38.0331 43.0266 37.9612C43.0345 37.8882 43.0415 37.8152 43.0465 37.7422C43.0575 37.5962 43.0625 37.4491 43.0625 37.3031C43.0609 27.8859 43.0598 18.4679 43.059 9.05045C43.058 8.75552 43.032 8.46255 42.977 8.17252C42.95 8.0275 42.9149 7.88455 42.8749 7.74454C42.834 7.60452 42.7879 7.46646 42.735 7.33145C42.6809 7.19547 42.6219 7.06253 42.5549 6.93253C42.5219 6.86746 42.4879 6.80252 42.451 6.73856C42.4139 6.67545 42.3759 6.61246 42.3369 6.55045C42.1799 6.30545 41.9999 6.07755 41.799 5.86856C41.7489 5.81656 41.6979 5.76553 41.645 5.71548C41.5909 5.66556 41.5379 5.61649 41.481 5.56949C41.3699 5.47452 41.2539 5.38651 41.136 5.30447C40.8979 5.14151 40.6459 5.00247 40.3789 4.88846C40.313 4.8605 40.2449 4.83353 40.1759 4.80753C40.1079 4.7825 40.0389 4.75845 39.9699 4.73746C39.8309 4.69449 39.692 4.6575 39.5509 4.62845C39.269 4.57046 38.9829 4.53848 38.6898 4.53482Z" stroke="#FF00FF" stroke-width="0.283465" stroke-miterlimit="10" stroke-linecap="round" stroke-linejoin="round"/>
<path fill-rule="evenodd" clip-rule="evenodd" d="M28.6799 12.5669C29.072 12.5669 29.3899 12.249 29.3899 11.8569C29.3899 11.4647 29.072 11.1469 28.6799 11.1469C28.2878 11.1469 27.9699 11.4647 27.9699 11.8569C27.9699 12.249 28.2878 12.5669 28.6799 12.5669ZM25.8399 22.2468C26.232 22.2468 26.5499 21.929 26.5499 21.5368C26.5499 21.1447 26.232 20.8268 25.8399 20.8268C25.4478 20.8268 25.1299 21.1447 25.1299 21.5368C25.1299 21.929 25.4478 22.2468 25.8399 22.2468ZM29.3899 14.2769C29.3899 14.669 29.072 14.9869 28.6799 14.9869C28.2878 14.9869 27.9699 14.669 27.9699 14.2769C27.9699 13.8847 28.2878 13.5669 28.6799 13.5669C29.072 13.5669 29.3899 13.8847 29.3899 14.2769ZM28.6799 17.4068C29.072 17.4068 29.3899 17.089 29.3899 16.6968C29.3899 16.3047 29.072 15.9868 28.6799 15.9868C28.2878 15.9868 27.9699 16.3047 27.9699 16.6968C27.9699 17.089 28.2878 17.4068 28.6799 17.4068ZM29.3899 19.1169C29.3899 19.509 29.072 19.8269 28.6799 19.8269C28.2878 19.8269 27.9699 19.509 27.9699 19.1169C27.9699 18.7247 28.2878 18.4069 28.6799 18.4069C29.072 18.4069 29.3899 18.7247 29.3899 19.1169ZM28.6799 22.2468C29.072 22.2468 29.3899 21.929 29.3899 21.5368C29.3899 21.1447 29.072 20.8268 28.6799 20.8268C28.2878 20.8268 27.9699 21.1447 27.9699 21.5368C27.9699 21.929 28.2878 22.2468 28.6799 22.2468ZM26.5499 11.8569C26.5499 12.249 26.232 12.5669 25.8399 12.5669C25.4478 12.5669 25.1299 12.249 25.1299 11.8569C25.1299 11.4647 25.4478 11.1469 25.8399 11.1469C26.232 11.1469 26.5499 11.4647 26.5499 11.8569ZM18.0299 11.1469C17.2456 11.1469 16.6099 11.7826 16.6099 12.5669V20.8269C16.6099 21.6111 17.2456 22.2469 18.0299 22.2469H22.2899C23.0741 22.2469 23.7099 21.6111 23.7099 20.8269V12.5669C23.7099 11.7826 23.0741 11.1469 22.2899 11.1469H18.0299ZM18.1699 20.8269C18.0925 20.8269 18.0299 20.7642 18.0299 20.6869V12.7069C18.0299 12.6296 18.0925 12.5669 18.1699 12.5669H22.1499C22.2272 12.5669 22.2899 12.6296 22.2899 12.7069L22.2899 20.6869C22.2899 20.7642 22.2272 20.8269 22.1499 20.8269H18.1699Z" fill="black"/>
<path d="M35.7117 36.1563V30.1789C35.7117 29.7931 35.9412 29.5538 36.3124 29.5538C36.6836 29.5538 36.9131 29.7931 36.9131 30.1789V31.6546C36.9131 31.7578 37.0197 31.8264 37.1136 31.7836C37.4089 31.649 37.9894 31.4242 38.5735 31.4242C39.7162 31.4242 40.3853 32.1763 40.3853 33.363V36.1564C40.3853 36.5666 40.1314 36.7961 39.7749 36.7961C39.4184 36.7961 39.1693 36.5666 39.1693 36.1564V33.6121C39.1693 32.8893 38.8079 32.4547 38.1047 32.4547C37.4015 32.4547 36.9278 32.9626 36.9278 33.7244V36.1564C36.9278 36.5666 36.6787 36.7961 36.3222 36.7961C35.9657 36.7961 35.7117 36.5665 35.7117 36.1563Z" fill="black"/>
<path d="M32.4556 35.419V32.6027C32.4556 32.5244 32.3921 32.461 32.3139 32.461H32.1285C31.8258 32.461 31.6401 32.2901 31.6401 31.9971C31.6401 31.7041 31.8256 31.5381 32.1285 31.5381H32.3139C32.3922 31.5381 32.4556 31.4746 32.4556 31.3964V30.8334C32.4556 30.4427 32.69 30.1985 33.0661 30.1985C33.4422 30.1985 33.6717 30.4426 33.6717 30.8334V31.3964C33.6717 31.4747 33.7352 31.5381 33.8134 31.5381H34.2333C34.536 31.5381 34.7217 31.7089 34.7217 31.9971C34.7217 32.2853 34.5362 32.461 34.2333 32.461H33.8134C33.7351 32.461 33.6717 32.5245 33.6717 32.6027V35.1553C33.6717 35.546 33.8084 35.7169 34.1601 35.7462L34.248 35.756C34.5703 35.7853 34.7364 35.922 34.7364 36.2053C34.7364 36.5617 34.4239 36.7523 33.8672 36.7523H33.8184C32.915 36.7523 32.4559 36.303 32.4559 35.4191H32.4557L32.4556 35.419Z" fill="black"/>
<path d="M28.2526 32.4301C29.0096 32.4301 29.5126 33.0894 29.5175 34.1052C29.5126 35.1112 29.0388 35.7803 28.2526 35.7803C27.4664 35.7803 26.978 35.1259 26.978 34.1052C26.978 33.0796 27.4956 32.4301 28.2526 32.4301ZM25.7327 34.1053C25.7327 35.7609 26.5678 36.7815 27.8816 36.7815C28.3676 36.7815 29.1377 36.5375 29.4386 36.4355C29.5061 36.4126 29.5808 36.4423 29.6125 36.5063C29.6205 36.5226 29.6288 36.5388 29.6392 36.5536C29.7586 36.7241 29.9343 36.7961 30.133 36.7961C30.4798 36.7961 30.7239 36.5715 30.7239 36.171V30.1934C30.7238 29.7831 30.4748 29.5536 30.1182 29.5536C29.7616 29.5536 29.5077 29.7831 29.5077 30.1934V31.6735C29.5077 31.7762 29.4018 31.8451 29.3082 31.8029C28.9463 31.64 28.3436 31.4338 27.8619 31.4338C26.5629 31.4338 25.7327 32.4545 25.7327 34.1052V34.1053Z" fill="black"/>
<path d="M24.1172 31.42C23.7461 31.42 23.5117 31.669 23.5117 32.0597V36.1564C23.5117 36.5519 23.7461 36.7961 24.1172 36.7961C24.4883 36.7961 24.7276 36.552 24.7276 36.1564V32.0646C24.7276 31.6691 24.4883 31.4201 24.1172 31.4201V31.42ZM24.1172 30.795C24.4981 30.795 24.7959 30.502 24.7959 30.1358C24.7959 29.7696 24.498 29.4766 24.1172 29.4766C23.7364 29.4766 23.4434 29.7647 23.4434 30.1358C23.4434 30.5069 23.7413 30.795 24.1172 30.795Z" fill="black"/>
<path d="M15.968 36.7813C15.5774 36.7813 15.3625 36.5909 15.2405 36.1514L13.678 30.5361C13.6341 30.3798 13.6145 30.248 13.6145 30.1357C13.6145 29.789 13.8586 29.5693 14.2346 29.5693C14.5618 29.5693 14.7668 29.75 14.845 30.0966L15.9099 34.5242C15.9443 34.6671 16.1465 34.6697 16.1846 34.5278L17.3548 30.165C17.4622 29.7451 17.6673 29.5693 18.0384 29.5693C18.4095 29.5693 18.6048 29.7548 18.7122 30.1504L19.8825 34.527C19.9205 34.669 20.1229 34.6664 20.1572 34.5235L21.2219 30.0967C21.3 29.7451 21.5051 29.5694 21.8323 29.5694C22.2083 29.5694 22.4524 29.7891 22.4524 30.1358C22.4524 30.2432 22.4329 30.3751 22.3889 30.5362L20.8215 36.1564C20.7043 36.591 20.4895 36.7814 20.1037 36.7814C19.6984 36.7814 19.4836 36.6007 19.3615 36.1564L18.1696 31.9915C18.1304 31.8545 17.9363 31.8545 17.8971 31.9915L16.7052 36.1564C16.588 36.5959 16.3634 36.7814 15.9679 36.7814L15.968 36.7813Z" fill="black"/>
</svg>
