<svg width="55" height="55" viewBox="0 0 55 55" fill="none" xmlns="http://www.w3.org/2000/svg">
<rect x="2.3501" y="2.7984" width="50.3" height="50.3" rx="3" stroke="#8B1EFF" stroke-width="0.28"/>
<path d="M10.7065 38.0963V8.24426C10.7125 7.89233 10.752 7.53931 10.825 7.19421C10.897 6.84924 11.003 6.51221 11.1411 6.18738C11.4141 5.54333 11.8131 4.94934 12.3071 4.45007C12.7961 3.95605 13.3791 3.55396 14.0145 3.27808C14.3315 3.14014 14.6605 3.03418 14.9979 2.96094C15.3349 2.88794 15.6779 2.84888 16.0214 2.84497C19.9174 2.81396 23.8134 2.79895 27.7079 2.79895C31.6049 2.79895 35.4999 2.81396 39.3963 2.84509C39.7393 2.84912 40.0833 2.88806 40.4208 2.96155C40.7568 3.03455 41.0868 3.14148 41.403 3.27844C41.721 3.41638 42.025 3.58545 42.3108 3.78186C42.5978 3.97888 42.8658 4.20288 43.1108 4.44995C43.3578 4.69897 43.5808 4.96997 43.7748 5.26074C43.9708 5.55273 44.1398 5.86267 44.2772 6.18652C44.4142 6.51147 44.5212 6.84949 44.5934 7.19434C44.6664 7.53931 44.7054 7.89233 44.7104 8.24438C44.7104 8.24438 44.7104 38.0963 44.7101 38.0968C44.6891 38.7908 44.5511 39.4868 44.3027 40.1417C44.0557 40.7968 43.6977 41.4108 43.2389 41.9346C43.0089 42.1967 42.7549 42.4357 42.4799 42.6483C42.2069 42.8604 41.9139 43.0453 41.6049 43.2023C41.2979 43.3583 40.9769 43.4852 40.6451 43.5798C40.3161 43.6748 39.9771 43.7379 39.6357 43.7638C31.6907 44.1969 23.7267 44.1969 15.7819 43.7638C15.1009 43.7108 14.4259 43.5148 13.8131 43.2032C13.1931 42.8882 12.6351 42.4552 12.1787 41.9353C11.7197 41.4103 11.3627 40.7963 11.1155 40.1414C10.8675 39.4863 10.7285 38.7914 10.7065 38.0963Z" stroke="#8B1EFF" stroke-width="0.283" stroke-miterlimit="10"/>
<rect x="13.3887" y="6.4201" width="28.63" height="34.35" rx="1.46" stroke="#00FFFF" stroke-width="0.28"/>
<path d="M39.1898 4.53482C31.5758 4.43582 23.8388 4.43582 16.2238 4.53482C15.9321 4.53885 15.6431 4.56985 15.358 4.62991C15.287 4.64493 15.2151 4.66092 15.1451 4.67984C15.0751 4.69791 15.0051 4.71793 14.9361 4.7399C14.798 4.78384 14.662 4.83292 14.5311 4.88992C14.3981 4.94693 14.2681 5.00992 14.1421 5.07986C14.078 5.1149 14.015 5.15189 13.953 5.18985C13.8911 5.22794 13.83 5.26785 13.7701 5.30984C13.5321 5.47488 13.3121 5.66287 13.1111 5.87186C13.0101 5.97586 12.9151 6.08585 12.8251 6.20193C12.7791 6.25894 12.7361 6.3179 12.6931 6.37784C12.651 6.43692 12.6111 6.49686 12.5721 6.55887C12.4151 6.80386 12.2841 7.0629 12.177 7.33487C12.151 7.40286 12.125 7.47183 12.1021 7.5419C12.078 7.61185 12.056 7.68192 12.0361 7.75186C11.9951 7.89285 11.9621 8.03482 11.9351 8.17886C11.882 8.46487 11.8551 8.75491 11.8551 9.05093C11.8528 18.4676 11.8519 27.8855 11.8499 37.3025C11.85 37.596 11.871 37.8859 11.914 38.1719C11.936 38.315 11.962 38.4569 11.9949 38.5989C12.011 38.67 12.0289 38.7399 12.048 38.81C12.067 38.8809 12.088 38.951 12.11 39.0209C12.199 39.299 12.309 39.5679 12.4429 39.825C12.477 39.8899 12.5119 39.9539 12.548 40.017C12.584 40.08 12.6219 40.142 12.662 40.2029C12.741 40.324 12.824 40.4419 12.9129 40.554C13.002 40.6669 13.097 40.7759 13.1969 40.8799C13.2469 40.9309 13.298 40.982 13.352 41.0319C13.405 41.081 13.459 41.1299 13.5139 41.1759C13.7359 41.361 13.9729 41.5209 14.227 41.6549C14.2899 41.6879 14.3549 41.72 14.42 41.7499C14.4859 41.7799 14.5529 41.8079 14.6199 41.835C14.754 41.887 14.8909 41.9319 15.0289 41.97C15.3049 42.045 15.587 42.091 15.877 42.106C23.7194 42.5331 31.6934 42.5331 39.5353 42.1061C39.8265 42.0901 40.1095 42.0442 40.3855 41.9701C40.5235 41.9322 40.6595 41.8871 40.7935 41.8351C40.8605 41.8081 40.9276 41.7802 40.9935 41.7502C41.0595 41.7191 41.1245 41.6872 41.1875 41.6532C41.4435 41.5192 41.6805 41.3592 41.8995 41.1742C42.0105 41.0822 42.1155 40.9832 42.2175 40.8792C42.2665 40.8272 42.3165 40.7732 42.3635 40.7182C42.4115 40.6642 42.4576 40.6082 42.5025 40.5522C42.6805 40.3262 42.8355 40.0851 42.9685 39.8302C43.0345 39.7022 43.0965 39.5712 43.1516 39.4362C43.1795 39.3692 43.2065 39.3012 43.2305 39.2322C43.2565 39.1642 43.2795 39.0951 43.3026 39.0252C43.3895 38.7482 43.4545 38.4651 43.4985 38.1781C43.5096 38.1061 43.5175 38.0331 43.5266 37.9612C43.5345 37.8882 43.5415 37.8152 43.5465 37.7422C43.5575 37.5962 43.5625 37.4491 43.5625 37.3031C43.5609 27.8859 43.5598 18.4679 43.559 9.05045C43.558 8.75552 43.532 8.46255 43.477 8.17252C43.45 8.0275 43.4149 7.88455 43.3749 7.74454C43.334 7.60452 43.2879 7.46646 43.235 7.33145C43.1809 7.19547 43.1219 7.06253 43.0549 6.93253C43.0219 6.86746 42.9879 6.80252 42.951 6.73856C42.9139 6.67545 42.8759 6.61246 42.8369 6.55045C42.6799 6.30545 42.4999 6.07755 42.299 5.86856C42.2489 5.81656 42.1979 5.76553 42.145 5.71548C42.0909 5.66556 42.0379 5.61649 41.981 5.56949C41.8699 5.47452 41.7539 5.38651 41.636 5.30447C41.3979 5.14151 41.1459 5.00247 40.8789 4.88846C40.813 4.8605 40.7449 4.83353 40.6759 4.80753C40.6079 4.7825 40.5389 4.75845 40.4699 4.73746C40.3309 4.69449 40.192 4.6575 40.0509 4.62845C39.769 4.57046 39.4829 4.53848 39.1898 4.53482Z" stroke="#FF00FF" stroke-width="0.283465" stroke-miterlimit="10" stroke-linecap="round" stroke-linejoin="round"/>
<path fill-rule="evenodd" clip-rule="evenodd" d="M30.7202 27.9407C30.8193 27.9187 30.9228 27.9069 31.0299 27.9069H31.5004C31.8925 27.9069 32.2104 27.5891 32.2104 27.1969C32.2104 26.8048 31.8925 26.4869 31.5004 26.4869H31.0299C30.8187 26.4869 30.612 26.5101 30.4126 26.5544C30.0298 26.6393 29.7883 27.0185 29.8733 27.4013C29.9582 27.7841 30.3374 28.0256 30.7202 27.9407ZM33.9295 26.4869C33.5374 26.4869 33.2195 26.8048 33.2195 27.1969C33.2195 27.5891 33.5374 27.9069 33.9295 27.9069H34.8704C35.2625 27.9069 35.5804 27.5891 35.5804 27.1969C35.5804 26.8048 35.2625 26.4869 34.8704 26.4869H33.9295ZM37.2995 26.4869C36.9074 26.4869 36.5895 26.8048 36.5895 27.1969C36.5895 27.5891 36.9074 27.9069 37.2995 27.9069H37.7699C37.8771 27.9069 37.9806 27.9187 38.0796 27.9407C38.4625 28.0256 38.8416 27.7841 38.9266 27.4013C39.0116 27.0185 38.7701 26.6393 38.3873 26.5544C38.1879 26.5101 37.9812 26.4869 37.7699 26.4869H37.2995ZM29.6437 29.0172C29.7286 28.6344 29.4872 28.2552 29.1043 28.1703C28.7215 28.0853 28.3423 28.3268 28.2574 28.7096C28.2131 28.909 28.1899 29.1157 28.1899 29.3269V29.7974C28.1899 30.1895 28.5078 30.5074 28.8999 30.5074C29.2921 30.5074 29.6099 30.1895 29.6099 29.7974V29.3269C29.6099 29.2198 29.6217 29.1163 29.6437 29.0172ZM40.5425 28.7096C40.4575 28.3268 40.0783 28.0853 39.6955 28.1703C39.3127 28.2552 39.0713 28.6344 39.1562 29.0172C39.1782 29.1163 39.1899 29.2198 39.1899 29.3269V29.7974C39.1899 30.1895 39.5078 30.5074 39.8999 30.5074C40.2921 30.5074 40.6099 30.1895 40.6099 29.7974V29.3269C40.6099 29.1157 40.5868 28.909 40.5425 28.7096ZM40.6099 32.2265C40.6099 31.8344 40.2921 31.5165 39.8999 31.5165C39.5078 31.5165 39.1899 31.8344 39.1899 32.2265V33.1674C39.1899 33.5595 39.5078 33.8774 39.8999 33.8774C40.2921 33.8774 40.6099 33.5595 40.6099 33.1674V32.2265ZM29.6099 32.2265C29.6099 31.8344 29.2921 31.5165 28.8999 31.5165C28.5078 31.5165 28.1899 31.8344 28.1899 32.2265V33.1674C28.1899 33.5595 28.5078 33.8774 28.8999 33.8774C29.2921 33.8774 29.6099 33.5595 29.6099 33.1674V32.2265ZM40.6099 35.5965C40.6099 35.2044 40.2921 34.8865 39.8999 34.8865C39.5078 34.8865 39.1899 35.2044 39.1899 35.5965V36.0669C39.1899 36.1741 39.1782 36.2776 39.1562 36.3766C39.0713 36.7594 39.3127 37.1386 39.6955 37.2236C40.0783 37.3086 40.4575 37.0671 40.5425 36.6843C40.5868 36.4849 40.6099 36.2782 40.6099 36.0669V35.5965ZM29.6099 35.5965C29.6099 35.2044 29.2921 34.8865 28.8999 34.8865C28.5078 34.8865 28.1899 35.2044 28.1899 35.5965V36.0669C28.1899 36.2782 28.2131 36.4849 28.2574 36.6843C28.3423 37.0671 28.7215 37.3086 29.1043 37.2236C29.4872 37.1386 29.7286 36.7594 29.6437 36.3766C29.6217 36.2776 29.6099 36.1741 29.6099 36.0669V35.5965ZM30.7202 37.4532C30.3374 37.3683 29.9582 37.6097 29.8733 37.9925C29.7883 38.3753 30.0298 38.7545 30.4126 38.8395C30.612 38.8837 30.8187 38.9069 31.0299 38.9069H31.5004C31.8925 38.9069 32.2104 38.5891 32.2104 38.1969C32.2104 37.8048 31.8925 37.4869 31.5004 37.4869H31.0299C30.9228 37.4869 30.8193 37.4752 30.7202 37.4532ZM38.3873 38.8395C38.7701 38.7545 39.0116 38.3753 38.9266 37.9925C38.8416 37.6097 38.4625 37.3683 38.0796 37.4532C37.9806 37.4752 37.8771 37.4869 37.7699 37.4869H37.2995C36.9074 37.4869 36.5895 37.8048 36.5895 38.1969C36.5895 38.5891 36.9074 38.9069 37.2995 38.9069H37.7699C37.9812 38.9069 38.1879 38.8837 38.3873 38.8395ZM33.9295 37.4869C33.5374 37.4869 33.2195 37.8048 33.2195 38.1969C33.2195 38.5891 33.5374 38.9069 33.9295 38.9069H34.8704C35.2625 38.9069 35.5804 38.5891 35.5804 38.1969C35.5804 37.8048 35.2625 37.4869 34.8704 37.4869H33.9295ZM31.4849 31.987C31.0928 31.987 30.7749 32.3049 30.7749 32.697C30.7749 33.0891 31.0928 33.407 31.4849 33.407H37.3249C37.7171 33.407 38.0349 33.0891 38.0349 32.697C38.0349 32.3049 37.7171 31.987 37.3249 31.987H31.4849Z" fill="black"/>
<path d="M18.762 19.8768V10.544C18.762 9.99211 19.0844 9.72546 19.4999 9.72546C19.9154 9.72546 20.2378 9.99211 20.2378 10.544V19.8768C20.2378 20.4287 19.9154 20.6953 19.4999 20.6953C19.0844 20.6953 18.762 20.4287 18.762 19.8768Z" fill="black"/>
<path d="M20.3251 36.0537C20.2816 36.5621 19.891 36.7978 19.4942 36.7978C19.0973 36.7978 18.7067 36.5621 18.6633 36.0537V35.3955C18.6633 35.3173 18.5998 35.2538 18.5215 35.2538H17.3735C17.0325 35.2538 16.8155 35.074 16.8155 34.7701C16.8155 34.4725 17.0325 34.2989 17.3735 34.2989H18.5339C18.6122 34.2989 18.6757 34.2354 18.6757 34.1572V33.7524C18.6757 33.6741 18.6122 33.6106 18.5339 33.6106H17.3735C17.0325 33.6106 16.8155 33.4308 16.8155 33.1332C16.8155 32.8293 17.0325 32.6557 17.3735 32.6557H18.0226C18.1327 32.6557 18.2007 32.5357 18.1442 32.4412L16.4868 29.6732C16.2574 29.295 16.2202 29.1275 16.2202 28.9601C16.2202 28.5013 16.5551 28.1974 17.0325 28.1974C17.3797 28.1974 17.6092 28.3897 17.8386 28.8361L19.3715 31.6139C19.4252 31.7113 19.565 31.7117 19.6193 31.6147L21.1745 28.8361C21.3606 28.4889 21.5838 28.1974 21.9868 28.1974C22.4519 28.1974 22.7805 28.5199 22.7805 28.9291C22.7805 29.171 22.6751 29.3694 22.4829 29.698L20.8438 32.4413C20.7874 32.5358 20.8554 32.6557 20.9655 32.6557H21.652C21.993 32.6557 22.2101 32.8293 22.2101 33.1332C22.2101 33.4308 21.993 33.6106 21.652 33.6106H20.4544C20.3761 33.6106 20.3126 33.6741 20.3126 33.7524V34.1572C20.3126 34.2354 20.3761 34.2989 20.4544 34.2989H21.652C21.993 34.2989 22.2101 34.4725 22.2101 34.7701C22.2101 35.074 21.993 35.2538 21.652 35.2538H20.4668C20.3885 35.2538 20.3251 35.3173 20.3251 35.3955V36.0537Z" fill="black"/>
</svg>
