<svg width="54" height="54" viewBox="0 0 54 54" fill="none" xmlns="http://www.w3.org/2000/svg">
<rect x="1.8501" y="1.84998" width="50.3" height="50.3" rx="3" stroke="#8B1EFF" stroke-width="0.28"/>
<path d="M10.2065 37.1479V7.2959C10.2125 6.94397 10.252 6.59094 10.325 6.24585C10.397 5.90088 10.503 5.56384 10.6411 5.23901C10.9141 4.59497 11.3131 4.00098 11.8071 3.50171C12.2961 3.00769 12.8791 2.60559 13.5145 2.32971C13.8315 2.19177 14.1605 2.08582 14.4979 2.01257C14.8349 1.93958 15.1779 1.90051 15.5214 1.89661C19.4174 1.8656 23.3134 1.85059 27.2079 1.85059C31.1049 1.85059 34.9999 1.8656 38.8963 1.89673C39.2393 1.90076 39.5833 1.9397 39.9208 2.01318C40.2568 2.08618 40.5868 2.19312 40.903 2.33008C41.221 2.46802 41.525 2.63708 41.8108 2.8335C42.0978 3.03052 42.3658 3.25452 42.6108 3.50159C42.8578 3.75061 43.0808 4.02161 43.2748 4.31238C43.4708 4.60437 43.6398 4.91431 43.7772 5.23816C43.9142 5.56311 44.0212 5.90112 44.0934 6.24597C44.1664 6.59094 44.2054 6.94397 44.2104 7.29602C44.2104 7.29602 44.2104 37.1479 44.2101 37.1484C44.1891 37.8424 44.0511 38.5385 43.8027 39.1934C43.5557 39.8484 43.1977 40.4624 42.7389 40.9862C42.5089 41.2483 42.2549 41.4873 41.9799 41.7C41.7069 41.912 41.4139 42.0969 41.1049 42.2539C40.7979 42.4099 40.4769 42.5369 40.1451 42.6315C39.8161 42.7264 39.4771 42.7896 39.1357 42.8154C31.1907 43.2485 23.2267 43.2485 15.2819 42.8154C14.6009 42.7625 13.9259 42.5664 13.3131 42.2549C12.6931 41.9398 12.1351 41.5068 11.6787 40.9869C11.2197 40.4619 10.8627 39.8479 10.6155 39.193C10.3675 38.538 10.2285 37.843 10.2065 37.1479Z" stroke="#8B1EFF" stroke-width="0.283" stroke-miterlimit="10"/>
<rect x="12.8887" y="5.47168" width="28.63" height="34.35" rx="1.46" stroke="#00FFFF" stroke-width="0.28"/>
<path d="M38.6898 3.58646C31.0758 3.48746 23.3388 3.48746 15.7238 3.58646C15.4321 3.59048 15.1431 3.62149 14.858 3.68155C14.787 3.69656 14.7151 3.71255 14.6451 3.73148C14.5751 3.74954 14.5051 3.76956 14.4361 3.79153C14.298 3.83548 14.162 3.88455 14.0311 3.94156C13.8981 3.99857 13.7681 4.06155 13.6421 4.1315C13.578 4.16653 13.515 4.20352 13.453 4.24149C13.3911 4.27957 13.33 4.31949 13.2701 4.36148C13.0321 4.52652 12.8121 4.71451 12.6111 4.92349C12.5101 5.0275 12.4151 5.13748 12.3251 5.25357C12.2791 5.31058 12.2361 5.36954 12.1931 5.42947C12.151 5.48856 12.1111 5.54849 12.0721 5.6105C11.9151 5.8555 11.7841 6.11453 11.677 6.38651C11.651 6.4545 11.625 6.52347 11.6021 6.59354C11.578 6.66348 11.556 6.73355 11.5361 6.8035C11.4951 6.94449 11.4621 7.08646 11.4351 7.2305C11.382 7.51651 11.3551 7.80655 11.3551 8.10257C11.3528 17.5192 11.3519 26.9372 11.3499 36.3542C11.35 36.6476 11.371 36.9375 11.414 37.2235C11.436 37.3666 11.462 37.5086 11.4949 37.6505C11.511 37.7216 11.5289 37.7915 11.548 37.8616C11.567 37.9325 11.588 38.0026 11.61 38.0725C11.699 38.3506 11.809 38.6195 11.9429 38.8766C11.977 38.9416 12.0119 39.0055 12.048 39.0686C12.084 39.1316 12.1219 39.1936 12.162 39.2545C12.241 39.3756 12.324 39.4936 12.4129 39.6056C12.502 39.7185 12.597 39.8275 12.6969 39.9315C12.7469 39.9826 12.798 40.0336 12.852 40.0835C12.905 40.1326 12.959 40.1815 13.0139 40.2276C13.2359 40.4126 13.4729 40.5725 13.727 40.7066C13.7899 40.7395 13.8549 40.7716 13.92 40.8015C13.9859 40.8316 14.0529 40.8595 14.1199 40.8866C14.254 40.9386 14.3909 40.9836 14.5289 41.0216C14.8049 41.0966 15.087 41.1426 15.377 41.1576C23.2194 41.5847 31.1934 41.5847 39.0353 41.1577C39.3265 41.1418 39.6095 41.0959 39.8855 41.0218C40.0235 40.9838 40.1595 40.9388 40.2935 40.8867C40.3605 40.8598 40.4276 40.8318 40.4935 40.8018C40.5595 40.7708 40.6245 40.7388 40.6875 40.7049C40.9435 40.5708 41.1805 40.4108 41.3995 40.2259C41.5105 40.1338 41.6155 40.0348 41.7175 39.9308C41.7665 39.8788 41.8165 39.8249 41.8635 39.7698C41.9115 39.7159 41.9576 39.6598 42.0025 39.6038C42.1805 39.3778 42.3355 39.1367 42.4685 38.8819C42.5345 38.7538 42.5965 38.6228 42.6516 38.4878C42.6795 38.4208 42.7065 38.3528 42.7305 38.2838C42.7565 38.2159 42.7795 38.1468 42.8026 38.0768C42.8895 37.7998 42.9545 37.5168 42.9985 37.2298C43.0096 37.1577 43.0175 37.0847 43.0266 37.0128C43.0345 36.9398 43.0415 36.8669 43.0465 36.7939C43.0575 36.6479 43.0625 36.5008 43.0625 36.3548C43.0609 26.9375 43.0598 17.5196 43.059 8.10208C43.058 7.80716 43.032 7.51419 42.977 7.22415C42.95 7.07913 42.9149 6.93619 42.8749 6.79617C42.834 6.65616 42.7879 6.5181 42.735 6.38309C42.6809 6.2471 42.6219 6.11417 42.5549 5.98416C42.5219 5.9191 42.4879 5.85416 42.451 5.79019C42.4139 5.72708 42.3759 5.66409 42.3369 5.60208C42.1799 5.35709 41.9999 5.12918 41.799 4.9202C41.7489 4.86819 41.6979 4.81717 41.645 4.76712C41.5909 4.71719 41.5379 4.66812 41.481 4.62112C41.3699 4.52615 41.2539 4.43814 41.136 4.35611C40.8979 4.19315 40.6459 4.05411 40.3789 3.94009C40.313 3.91214 40.2449 3.88516 40.1759 3.85916C40.1079 3.83414 40.0389 3.81009 39.9699 3.78909C39.8309 3.74612 39.692 3.70914 39.5509 3.68008C39.269 3.6221 38.9829 3.59012 38.6898 3.58646Z" stroke="#FF00FF" stroke-width="0.283465" stroke-miterlimit="10" stroke-linecap="round" stroke-linejoin="round"/>
<path fill-rule="evenodd" clip-rule="evenodd" d="M30.2202 26.9923C30.3193 26.9703 30.4228 26.9586 30.5299 26.9586H31.0004C31.3925 26.9586 31.7104 26.6407 31.7104 26.2486C31.7104 25.8565 31.3925 25.5386 31.0004 25.5386H30.5299C30.3187 25.5386 30.112 25.5618 29.9126 25.606C29.5298 25.691 29.2883 26.0702 29.3733 26.453C29.4582 26.8358 29.8374 27.0772 30.2202 26.9923ZM33.4295 25.5386C33.0374 25.5386 32.7195 25.8565 32.7195 26.2486C32.7195 26.6407 33.0374 26.9586 33.4295 26.9586H34.3704C34.7625 26.9586 35.0804 26.6407 35.0804 26.2486C35.0804 25.8565 34.7625 25.5386 34.3704 25.5386H33.4295ZM36.7995 25.5386C36.4074 25.5386 36.0895 25.8565 36.0895 26.2486C36.0895 26.6407 36.4074 26.9586 36.7995 26.9586H37.2699C37.3771 26.9586 37.4806 26.9703 37.5796 26.9923C37.9625 27.0772 38.3416 26.8358 38.4266 26.453C38.5116 26.0702 38.2701 25.691 37.8873 25.606C37.6879 25.5618 37.4812 25.5386 37.2699 25.5386H36.7995ZM29.1437 28.0689C29.2286 27.6861 28.9872 27.3069 28.6043 27.2219C28.2215 27.137 27.8423 27.3784 27.7574 27.7612C27.7131 27.9606 27.6899 28.1673 27.6899 28.3786V28.849C27.6899 29.2411 28.0078 29.559 28.3999 29.559C28.7921 29.559 29.1099 29.2411 29.1099 28.849V28.3786C29.1099 28.2715 29.1217 28.1679 29.1437 28.0689ZM40.0425 27.7612C39.9575 27.3784 39.5783 27.137 39.1955 27.2219C38.8127 27.3069 38.5713 27.6861 38.6562 28.0689C38.6782 28.1679 38.6899 28.2715 38.6899 28.3786V28.849C38.6899 29.2411 39.0078 29.559 39.3999 29.559C39.7921 29.559 40.1099 29.2411 40.1099 28.849V28.3786C40.1099 28.1673 40.0868 27.9606 40.0425 27.7612ZM40.1099 31.2781C40.1099 30.886 39.7921 30.5681 39.3999 30.5681C39.0078 30.5681 38.6899 30.886 38.6899 31.2781V32.219C38.6899 32.6111 39.0078 32.929 39.3999 32.929C39.7921 32.929 40.1099 32.6111 40.1099 32.219V31.2781ZM29.1099 31.2781C29.1099 30.886 28.7921 30.5681 28.3999 30.5681C28.0078 30.5681 27.6899 30.886 27.6899 31.2781V32.219C27.6899 32.6111 28.0078 32.929 28.3999 32.929C28.7921 32.929 29.1099 32.6111 29.1099 32.219V31.2781ZM40.1099 34.6481C40.1099 34.256 39.7921 33.9381 39.3999 33.9381C39.0078 33.9381 38.6899 34.256 38.6899 34.6481V35.1186C38.6899 35.2257 38.6782 35.3292 38.6562 35.4283C38.5713 35.8111 38.8127 36.1903 39.1955 36.2752C39.5783 36.3602 39.9575 36.1187 40.0425 35.7359C40.0868 35.5365 40.1099 35.3298 40.1099 35.1186V34.6481ZM29.1099 34.6481C29.1099 34.256 28.7921 33.9381 28.3999 33.9381C28.0078 33.9381 27.6899 34.256 27.6899 34.6481V35.1186C27.6899 35.3298 27.7131 35.5365 27.7574 35.7359C27.8423 36.1187 28.2215 36.3602 28.6043 36.2752C28.9872 36.1903 29.2286 35.8111 29.1437 35.4283C29.1217 35.3292 29.1099 35.2257 29.1099 35.1186V34.6481ZM30.2202 36.5049C29.8374 36.4199 29.4582 36.6614 29.3733 37.0442C29.2883 37.427 29.5298 37.8062 29.9126 37.8911C30.112 37.9354 30.3187 37.9586 30.5299 37.9586H31.0004C31.3925 37.9586 31.7104 37.6407 31.7104 37.2486C31.7104 36.8565 31.3925 36.5386 31.0004 36.5386H30.5299C30.4228 36.5386 30.3193 36.5268 30.2202 36.5049ZM37.8873 37.8911C38.2701 37.8062 38.5116 37.427 38.4266 37.0442C38.3416 36.6614 37.9625 36.4199 37.5796 36.5049C37.4806 36.5268 37.3771 36.5386 37.2699 36.5386H36.7995C36.4074 36.5386 36.0895 36.8565 36.0895 37.2486C36.0895 37.6407 36.4074 37.9586 36.7995 37.9586H37.2699C37.4812 37.9586 37.6879 37.9354 37.8873 37.8911ZM33.4295 36.5386C33.0374 36.5386 32.7195 36.8565 32.7195 37.2486C32.7195 37.6407 33.0374 37.9586 33.4295 37.9586H34.3704C34.7625 37.9586 35.0804 37.6407 35.0804 37.2486C35.0804 36.8565 34.7625 36.5386 34.3704 36.5386H33.4295ZM30.9849 31.0387C30.5928 31.0387 30.2749 31.3565 30.2749 31.7487C30.2749 32.1408 30.5928 32.4587 30.9849 32.4587H36.8249C37.2171 32.4587 37.5349 32.1408 37.5349 31.7487C37.5349 31.3565 37.2171 31.0387 36.8249 31.0387H30.9849Z" fill="black"/>
<path d="M18.262 18.9283V9.59553C18.262 9.04363 18.5844 8.77698 18.9999 8.77698C19.4154 8.77698 19.7378 9.04363 19.7378 9.59553V18.9283C19.7378 19.4802 19.4154 19.7469 18.9999 19.7469C18.5844 19.7469 18.262 19.4802 18.262 18.9283Z" fill="black"/>
<path d="M19.8251 35.1053C19.7816 35.6137 19.391 35.8493 18.9942 35.8493C18.5973 35.8493 18.2067 35.6137 18.1633 35.1053V34.4471C18.1633 34.3688 18.0998 34.3054 18.0215 34.3054H16.8735C16.5325 34.3054 16.3155 34.1256 16.3155 33.8217C16.3155 33.5241 16.5325 33.3505 16.8735 33.3505H18.0339C18.1122 33.3505 18.1757 33.287 18.1757 33.2087V32.8039C18.1757 32.7257 18.1122 32.6622 18.0339 32.6622H16.8735C16.5325 32.6622 16.3155 32.4824 16.3155 32.1847C16.3155 31.8809 16.5325 31.7073 16.8735 31.7073H17.5226C17.6327 31.7073 17.7007 31.5872 17.6442 31.4928L15.9868 28.7248C15.7574 28.3465 15.7202 28.1791 15.7202 28.0117C15.7202 27.5529 16.0551 27.249 16.5325 27.249C16.8797 27.249 17.1092 27.4412 17.3386 27.8877L18.8715 30.6655C18.9252 30.7629 19.065 30.7633 19.1193 30.6663L20.6745 27.8877C20.8606 27.5405 21.0838 27.249 21.4868 27.249C21.9519 27.249 22.2805 27.5715 22.2805 27.9807C22.2805 28.2225 22.1751 28.4209 21.9829 28.7496L20.3438 31.4929C20.2874 31.5873 20.3554 31.7073 20.4655 31.7073H21.152C21.493 31.7073 21.7101 31.8809 21.7101 32.1847C21.7101 32.4824 21.493 32.6622 21.152 32.6622H19.9544C19.8761 32.6622 19.8126 32.7257 19.8126 32.8039V33.2087C19.8126 33.287 19.8761 33.3505 19.9544 33.3505H21.152C21.493 33.3505 21.7101 33.5241 21.7101 33.8217C21.7101 34.1256 21.493 34.3054 21.152 34.3054H19.9668C19.8885 34.3054 19.8251 34.3688 19.8251 34.4471V35.1053Z" fill="black"/>
</svg>
