<svg width="465" height="96" viewBox="0 0 465 96" fill="none" xmlns="http://www.w3.org/2000/svg">
  <path
    d="M115.208 61.0845V34.9026H120.744V46.4467H121.089L130.511 34.9026H137.146L127.43 46.6256L137.261 61.0845H130.639L123.467 50.3202L120.744 53.6441V61.0845H115.208Z"
    fill="var(--logo-heading-color)" />
  <path
    d="M142.742 61.0845H136.81L145.848 34.9026H152.982L162.007 61.0845H156.075L149.517 40.8856H149.313L142.742 61.0845ZM142.371 50.7933H156.382V55.1143H142.371V50.7933Z"
    fill="var(--logo-heading-color)" />
  <path
    d="M163.358 61.0845V34.9026H173.688C175.674 34.9026 177.366 35.2819 178.763 36.0404C180.161 36.7904 181.226 37.8345 181.959 39.1725C182.701 40.5021 183.072 42.0362 183.072 43.7748C183.072 45.5134 182.697 47.0475 181.947 48.3771C181.197 49.7066 180.11 50.7421 178.687 51.4836C177.272 52.2251 175.559 52.5958 173.547 52.5958H166.964V48.1597H172.653C173.718 48.1597 174.596 47.9765 175.286 47.61C175.985 47.235 176.505 46.7194 176.846 46.0631C177.195 45.3984 177.37 44.6356 177.37 43.7748C177.37 42.9055 177.195 42.147 176.846 41.4992C176.505 40.843 175.985 40.3359 175.286 39.9779C174.587 39.6114 173.701 39.4282 172.627 39.4282H168.894V61.0845H163.358Z"
    fill="var(--logo-heading-color)" />
  <path d="M191.399 61.0845V34.9026H196.935V56.5205H208.159V61.0845H191.399Z" fill="var(--logo-heading-color)" />
  <path
    d="M218.871 61.468C216.852 61.468 215.113 61.0589 213.656 60.2407C212.207 59.414 211.09 58.2464 210.306 56.7379C209.522 55.2208 209.13 53.4268 209.13 51.3558C209.13 49.3359 209.522 47.5631 210.306 46.0376C211.09 44.512 212.194 43.3231 213.617 42.4708C215.049 41.6185 216.728 41.1924 218.654 41.1924C219.95 41.1924 221.156 41.4012 222.272 41.8188C223.397 42.2279 224.377 42.8458 225.212 43.6725C226.056 44.4992 226.712 45.539 227.181 46.7918C227.65 48.0362 227.884 49.4935 227.884 51.164V52.6597H211.303V49.2847H222.758C222.758 48.5006 222.587 47.806 222.246 47.2009C221.906 46.5958 221.433 46.1228 220.827 45.7819C220.231 45.4325 219.536 45.2577 218.744 45.2577C217.917 45.2577 217.184 45.4495 216.545 45.833C215.914 46.208 215.42 46.7151 215.062 47.3543C214.704 47.985 214.521 48.6881 214.512 49.4637V52.6725C214.512 53.6441 214.691 54.4836 215.049 55.191C215.416 55.8984 215.931 56.4438 216.596 56.8273C217.261 57.2109 218.049 57.4026 218.961 57.4026C219.566 57.4026 220.12 57.3174 220.623 57.147C221.126 56.9765 221.556 56.7208 221.914 56.3799C222.272 56.039 222.545 55.6214 222.732 55.1271L227.769 55.4595C227.514 56.6697 226.989 57.7265 226.197 58.6299C225.413 59.5248 224.398 60.2237 223.154 60.7265C221.918 61.2208 220.491 61.468 218.871 61.468Z"
    fill="var(--logo-heading-color)" />
  <path
    d="M238.485 68.8572C236.721 68.8572 235.208 68.6143 233.946 68.1285C232.694 67.6512 231.697 66.9992 230.955 66.1725C230.214 65.3458 229.732 64.4168 229.51 63.3856L234.547 62.708C234.701 63.1001 234.944 63.4666 235.276 63.8075C235.608 64.1484 236.047 64.4211 236.593 64.6256C237.147 64.8387 237.82 64.9452 238.613 64.9452C239.797 64.9452 240.773 64.6555 241.54 64.0759C242.316 63.5049 242.704 62.5461 242.704 61.1995V57.6072H242.473C242.235 58.1526 241.877 58.6683 241.4 59.1541C240.922 59.6398 240.309 60.0362 239.559 60.343C238.809 60.6498 237.914 60.8032 236.874 60.8032C235.4 60.8032 234.057 60.4623 232.847 59.7805C231.645 59.0901 230.687 58.0376 229.971 56.6228C229.263 55.1995 228.91 53.4012 228.91 51.2279C228.91 49.0035 229.272 47.1455 229.996 45.6541C230.721 44.1626 231.684 43.0461 232.885 42.3046C234.096 41.5631 235.421 41.1924 236.861 41.1924C237.961 41.1924 238.881 41.3799 239.623 41.7549C240.364 42.1214 240.961 42.5816 241.412 43.1356C241.873 43.681 242.226 44.218 242.473 44.7464H242.678V41.4481H248.086V61.2762C248.086 62.9467 247.677 64.3444 246.858 65.4694C246.04 66.5944 244.907 67.4381 243.458 68.0006C242.018 68.5717 240.36 68.8572 238.485 68.8572ZM238.6 56.7123C239.478 56.7123 240.219 56.495 240.824 56.0603C241.438 55.6171 241.907 54.9864 242.231 54.1683C242.563 53.3416 242.729 52.3529 242.729 51.2023C242.729 50.0518 242.567 49.0546 242.243 48.2109C241.92 47.3586 241.451 46.6981 240.837 46.2293C240.223 45.7606 239.478 45.5262 238.6 45.5262C237.705 45.5262 236.951 45.7691 236.337 46.2549C235.723 46.7322 235.259 47.397 234.944 48.2492C234.628 49.1015 234.471 50.0859 234.471 51.2023C234.471 52.3359 234.628 53.316 234.944 54.1427C235.268 54.9609 235.732 55.5958 236.337 56.0475C236.951 56.4907 237.705 56.7123 238.6 56.7123Z"
    fill="var(--logo-heading-color)" />
  <path
    d="M259.568 61.468C257.548 61.468 255.81 61.0589 254.352 60.2407C252.904 59.414 251.787 58.2464 251.003 56.7379C250.219 55.2208 249.827 53.4268 249.827 51.3558C249.827 49.3359 250.219 47.5631 251.003 46.0376C251.787 44.512 252.891 43.3231 254.314 42.4708C255.746 41.6185 257.425 41.1924 259.351 41.1924C260.646 41.1924 261.852 41.4012 262.969 41.8188C264.094 42.2279 265.074 42.8458 265.909 43.6725C266.753 44.4992 267.409 45.539 267.878 46.7918C268.347 48.0362 268.581 49.4935 268.581 51.164V52.6597H252V49.2847H263.455C263.455 48.5006 263.284 47.806 262.943 47.2009C262.602 46.5958 262.129 46.1228 261.524 45.7819C260.928 45.4325 260.233 45.2577 259.441 45.2577C258.614 45.2577 257.881 45.4495 257.242 45.833C256.611 46.208 256.117 46.7151 255.759 47.3543C255.401 47.985 255.218 48.6881 255.209 49.4637V52.6725C255.209 53.6441 255.388 54.4836 255.746 55.191C256.112 55.8984 256.628 56.4438 257.293 56.8273C257.958 57.2109 258.746 57.4026 259.658 57.4026C260.263 57.4026 260.817 57.3174 261.32 57.147C261.823 56.9765 262.253 56.7208 262.611 56.3799C262.969 56.039 263.242 55.6214 263.429 55.1271L268.466 55.4595C268.21 56.6697 267.686 57.7265 266.894 58.6299C266.11 59.5248 265.095 60.2237 263.851 60.7265C262.615 61.2208 261.188 61.468 259.568 61.468Z"
    fill="var(--logo-heading-color)" />
  <path
    d="M275.781 49.7322V61.0845H270.335V41.4481H275.525V44.9126H275.756C276.19 43.7705 276.919 42.8671 277.942 42.2023C278.964 41.5291 280.204 41.1924 281.662 41.1924C283.025 41.1924 284.214 41.4907 285.229 42.0873C286.243 42.6839 287.031 43.5362 287.594 44.6441C288.156 45.7435 288.437 47.056 288.437 48.5816V61.0845H282.991V49.5532C283 48.3515 282.693 47.414 282.071 46.7407C281.449 46.0589 280.592 45.718 279.501 45.718C278.768 45.718 278.121 45.8756 277.558 46.191C277.004 46.5063 276.57 46.9666 276.254 47.5717C275.947 48.1683 275.79 48.8884 275.781 49.7322Z"
    fill="var(--logo-heading-color)" />
  <path
    d="M298.165 61.4041C296.674 61.4041 295.323 61.0205 294.113 60.2535C292.911 59.4779 291.957 58.3401 291.249 56.8401C290.55 55.3316 290.201 53.4822 290.201 51.2918C290.201 49.0418 290.563 47.1711 291.288 45.6796C292.012 44.1796 292.975 43.0589 294.177 42.3174C295.387 41.5674 296.712 41.1924 298.153 41.1924C299.252 41.1924 300.168 41.3799 300.901 41.7549C301.643 42.1214 302.239 42.5816 302.691 43.1356C303.151 43.681 303.501 44.218 303.739 44.7464H303.906V34.9026H309.339V61.0845H303.969V57.9396H303.739C303.484 58.485 303.121 59.0262 302.653 59.5631C302.192 60.0916 301.592 60.5305 300.85 60.8799C300.117 61.2293 299.222 61.4041 298.165 61.4041ZM299.891 57.0702C300.769 57.0702 301.511 56.8316 302.116 56.3543C302.729 55.8685 303.198 55.191 303.522 54.3217C303.854 53.4523 304.021 52.4339 304.021 51.2663C304.021 50.0987 303.859 49.0845 303.535 48.2237C303.211 47.3629 302.742 46.6981 302.129 46.2293C301.515 45.7606 300.769 45.5262 299.891 45.5262C298.996 45.5262 298.242 45.7691 297.629 46.2549C297.015 46.7407 296.55 47.414 296.235 48.2748C295.92 49.1356 295.762 50.1327 295.762 51.2663C295.762 52.4083 295.92 53.4183 296.235 54.2961C296.559 55.1654 297.023 55.8472 297.629 56.3416C298.242 56.8273 298.996 57.0702 299.891 57.0702Z"
    fill="var(--logo-heading-color)" />
  <path
    d="M332.854 42.4325C332.752 41.4012 332.313 40.6001 331.537 40.0291C330.761 39.458 329.709 39.1725 328.379 39.1725C327.476 39.1725 326.713 39.3004 326.091 39.556C325.469 39.8032 324.992 40.1484 324.659 40.5916C324.335 41.0347 324.173 41.5376 324.173 42.1001C324.156 42.5688 324.254 42.9779 324.467 43.3273C324.689 43.6768 324.992 43.9793 325.375 44.235C325.759 44.4822 326.202 44.6995 326.705 44.887C327.208 45.066 327.744 45.2194 328.315 45.3472L330.668 45.9097C331.81 46.1654 332.858 46.5063 333.813 46.9325C334.767 47.3586 335.594 47.8827 336.293 48.5049C336.992 49.1271 337.533 49.86 337.916 50.7038C338.308 51.5475 338.509 52.5148 338.517 53.6058C338.509 55.208 338.1 56.5972 337.29 57.7734C336.489 58.941 335.33 59.8487 333.813 60.4964C332.304 61.1356 330.484 61.4552 328.354 61.4552C326.24 61.4552 324.399 61.1313 322.831 60.4836C321.271 59.8359 320.053 58.8771 319.175 57.6072C318.306 56.3288 317.85 54.7478 317.807 52.8643H323.163C323.223 53.7421 323.475 54.4751 323.918 55.0631C324.369 55.6427 324.97 56.0816 325.72 56.3799C326.479 56.6697 327.335 56.8146 328.29 56.8146C329.227 56.8146 330.041 56.6782 330.732 56.4055C331.431 56.1327 331.972 55.7535 332.355 55.2677C332.739 54.7819 332.931 54.2237 332.931 53.593C332.931 53.0049 332.756 52.5106 332.406 52.11C332.065 51.7095 331.563 51.3685 330.898 51.0873C330.242 50.806 329.436 50.5504 328.482 50.3202L325.631 49.6043C323.423 49.0674 321.681 48.2279 320.402 47.0859C319.124 45.9438 318.489 44.4055 318.497 42.4708C318.489 40.8856 318.911 39.5006 319.763 38.316C320.624 37.1313 321.804 36.2066 323.304 35.5418C324.804 34.8771 326.509 34.5447 328.418 34.5447C330.361 34.5447 332.057 34.8771 333.506 35.5418C334.963 36.2066 336.097 37.1313 336.906 38.316C337.716 39.5006 338.134 40.8728 338.159 42.4325H332.854Z"
    fill="var(--logo-heading-color)" />
  <path
    d="M343.7 68.4481C343.01 68.4481 342.362 68.3927 341.757 68.2819C341.161 68.1796 340.666 68.0475 340.274 67.8856L341.502 63.8202C342.141 64.0163 342.716 64.1228 343.227 64.1398C343.747 64.1569 344.195 64.0376 344.57 63.7819C344.953 63.5262 345.264 63.0916 345.503 62.4779L345.823 61.647L338.779 41.4481H344.506L348.571 55.8685H348.776L352.879 41.4481H358.645L351.013 63.2066C350.647 64.2634 350.148 65.1839 349.517 65.968C348.895 66.7606 348.107 67.37 347.152 67.7961C346.198 68.2308 345.047 68.4481 343.7 68.4481Z"
    fill="var(--logo-heading-color)" />
  <path
    d="M375.97 47.0475L370.984 47.3543C370.899 46.9282 370.716 46.5447 370.435 46.2038C370.153 45.8543 369.783 45.5773 369.322 45.3728C368.871 45.1597 368.329 45.0532 367.699 45.0532C366.855 45.0532 366.143 45.2322 365.564 45.5901C364.984 45.9396 364.695 46.4083 364.695 46.9964C364.695 47.4651 364.882 47.8614 365.257 48.1853C365.632 48.5092 366.275 48.7691 367.187 48.9651L370.741 49.681C372.65 50.0731 374.074 50.7038 375.011 51.5731C375.949 52.4424 376.418 53.5845 376.418 54.9992C376.418 56.2862 376.038 57.4154 375.28 58.387C374.53 59.3586 373.498 60.1171 372.186 60.6626C370.882 61.1995 369.378 61.468 367.673 61.468C365.074 61.468 363.003 60.9268 361.46 59.8444C359.926 58.7535 359.027 57.2705 358.763 55.3955L364.119 55.1143C364.281 55.9069 364.673 56.512 365.295 56.9296C365.918 57.3387 366.714 57.5433 367.686 57.5433C368.641 57.5433 369.408 57.36 369.987 56.9935C370.575 56.6185 370.873 56.137 370.882 55.5489C370.873 55.0546 370.665 54.6498 370.256 54.3345C369.846 54.0106 369.216 53.7634 368.364 53.593L364.963 52.9154C363.045 52.5319 361.618 51.8671 360.68 50.9211C359.751 49.9751 359.287 48.7691 359.287 47.3032C359.287 46.0418 359.628 44.9552 360.31 44.0433C361 43.1313 361.967 42.4282 363.212 41.9339C364.464 41.4396 365.93 41.1924 367.609 41.1924C370.089 41.1924 372.041 41.7166 373.464 42.7648C374.896 43.8131 375.731 45.2407 375.97 47.0475Z"
    fill="var(--logo-heading-color)" />
  <path
    d="M388.491 41.4481V45.539H376.666V41.4481H388.491ZM379.351 36.7435H384.797V55.0504C384.797 55.5532 384.874 55.9452 385.027 56.2265C385.18 56.4992 385.393 56.691 385.666 56.8018C385.947 56.9126 386.271 56.968 386.638 56.968C386.893 56.968 387.149 56.9467 387.405 56.9041C387.66 56.8529 387.857 56.8146 387.993 56.789L388.849 60.8416C388.577 60.9268 388.193 61.0248 387.699 61.1356C387.205 61.2549 386.604 61.3273 385.896 61.3529C384.584 61.4041 383.433 61.2293 382.445 60.8288C381.464 60.4282 380.702 59.806 380.156 58.9623C379.611 58.1185 379.342 57.0532 379.351 55.7663V36.7435Z"
    fill="var(--logo-heading-color)" />
  <path
    d="M398.977 61.468C396.957 61.468 395.218 61.0589 393.761 60.2407C392.312 59.414 391.196 58.2464 390.412 56.7379C389.628 55.2208 389.235 53.4268 389.235 51.3558C389.235 49.3359 389.628 47.5631 390.412 46.0376C391.196 44.512 392.299 43.3231 393.723 42.4708C395.155 41.6185 396.833 41.1924 398.76 41.1924C400.055 41.1924 401.261 41.4012 402.378 41.8188C403.503 42.2279 404.483 42.8458 405.318 43.6725C406.162 44.4992 406.818 45.539 407.287 46.7918C407.755 48.0362 407.99 49.4935 407.99 51.164V52.6597H391.409V49.2847H402.863C402.863 48.5006 402.693 47.806 402.352 47.2009C402.011 46.5958 401.538 46.1228 400.933 45.7819C400.336 45.4325 399.642 45.2577 398.849 45.2577C398.022 45.2577 397.289 45.4495 396.65 45.833C396.02 46.208 395.525 46.7151 395.167 47.3543C394.809 47.985 394.626 48.6881 394.618 49.4637V52.6725C394.618 53.6441 394.797 54.4836 395.155 55.191C395.521 55.8984 396.037 56.4438 396.701 56.8273C397.366 57.2109 398.155 57.4026 399.066 57.4026C399.672 57.4026 400.226 57.3174 400.728 57.147C401.231 56.9765 401.662 56.7208 402.02 56.3799C402.378 56.039 402.65 55.6214 402.838 55.1271L407.875 55.4595C407.619 56.6697 407.095 57.7265 406.302 58.6299C405.518 59.5248 404.504 60.2237 403.26 60.7265C402.024 61.2208 400.596 61.468 398.977 61.468Z"
    fill="var(--logo-heading-color)" />
  <path
    d="M409.744 61.0845V41.4481H414.934V44.9126H415.164C415.573 43.762 416.255 42.8543 417.21 42.1896C418.164 41.5248 419.306 41.1924 420.636 41.1924C421.982 41.1924 423.129 41.5291 424.075 42.2023C425.021 42.8671 425.651 43.7705 425.967 44.9126H426.171C426.572 43.7876 427.296 42.8884 428.345 42.2151C429.401 41.5333 430.65 41.1924 432.09 41.1924C433.923 41.1924 435.41 41.7762 436.552 42.9438C437.703 44.1029 438.278 45.7478 438.278 47.8785V61.0845H432.845V48.9523C432.845 47.8614 432.555 47.0433 431.975 46.4978C431.396 45.9523 430.671 45.6796 429.802 45.6796C428.813 45.6796 428.042 45.995 427.488 46.6256C426.934 47.2478 426.657 48.0702 426.657 49.093V61.0845H421.377V48.8373C421.377 47.8742 421.1 47.1072 420.546 46.5362C420.001 45.9651 419.281 45.6796 418.386 45.6796C417.781 45.6796 417.235 45.833 416.749 46.1398C416.272 46.4381 415.893 46.86 415.612 47.4055C415.33 47.9424 415.19 48.5731 415.19 49.2975V61.0845H409.744Z"
    fill="var(--logo-heading-color)" />
  <path
    d="M454.267 44.3117L450.508 34.9026H452.592L454.932 41.1157L457.258 34.9026H459.342L455.596 44.3117H454.267ZM449.78 44.3117V34.9026H452.145V44.3117H449.78ZM457.706 44.3117V34.9026H460.084V44.3117H457.706ZM442.902 44.3117V35.7208H445.28V44.3117H442.902ZM440.038 36.8586V34.9026H448.143V36.8586H440.038Z"
    fill="var(--logo-heading-color)" />
  <path
    d="M0 6.67493C0 3.36122 2.68629 0.674927 6 0.674927H88.65C91.9637 0.674927 94.65 3.36122 94.65 6.67493V89.3249C94.65 92.6386 91.9637 95.3249 88.65 95.3249H6C2.68629 95.3249 0 92.6386 0 89.3249V6.67493Z"
    fill="var(--logo-background-color)" />
  <path
    d="M43.9786 72.4644C45.8268 74.3126 48.8233 74.3126 50.6714 72.4644L72.4229 50.713C78.8914 44.2444 78.8914 33.7568 72.4229 27.2882C70.5747 25.4401 67.5782 25.4401 65.7301 27.2882C63.8819 29.1364 63.8819 32.1329 65.7301 33.981C68.5023 36.7533 68.5023 41.248 65.7301 44.0202L47.325 62.4252L28.92 44.0202C26.1478 41.248 26.1478 36.7533 28.92 33.981C31.6923 31.2088 36.1869 31.2088 38.9592 33.981L42.5925 37.6143L38.5529 37.6143C35.9392 37.6143 33.8204 39.7332 33.8204 42.3469C33.8204 44.9605 35.9392 47.0794 38.5529 47.0794L54.0053 47.0794C54.0457 47.0795 54.0862 47.0791 54.1266 47.0781C54.7189 47.0648 55.2844 46.9426 55.8037 46.7308C56.3715 46.4998 56.9035 46.1539 57.3642 45.6933C58.2613 44.7962 58.723 43.6285 58.7492 42.453C58.75 42.4135 58.7504 42.3741 58.7503 42.3346L58.7503 26.8819C58.7503 24.2682 56.6315 22.1494 54.0178 22.1494C51.4041 22.1494 49.2853 24.2682 49.2853 26.8819L49.2853 30.9215L45.652 27.2882C39.1834 20.8197 28.6958 20.8196 22.2272 27.2882C15.7586 33.7568 15.7587 44.2444 22.2272 50.713L43.9786 72.4644Z"
    fill="var(--logo-foreground-color)" />
</svg>
