<svg width="216" height="224" viewBox="0 0 216 224" fill="none" xmlns="http://www.w3.org/2000/svg">
  <path
    d="M12 219.353V204.012H15.2435V210.776H15.4457L20.9664 204.012H24.8541L19.1611 210.881L24.9215 219.353H21.0413L16.839 213.046L15.2435 214.993V219.353H12Z"
    fill="var(--logo-heading-color)" />
  <path
    d="M28.1328 219.353H24.6571L29.953 204.012H34.1328L39.4213 219.353H35.9456L32.1029 207.518H31.983L28.1328 219.353ZM27.9155 213.323H36.1254V215.855H27.9155V213.323Z"
    fill="var(--logo-heading-color)" />
  <path
    d="M40.2131 219.353V204.012H46.2656C47.4291 204.012 48.4204 204.234 49.2394 204.679C50.0584 205.118 50.6826 205.73 51.1121 206.514C51.5465 207.293 51.7638 208.192 51.7638 209.211C51.7638 210.229 51.544 211.128 51.1046 211.907C50.6651 212.686 50.0284 213.293 49.1944 213.727C48.3655 214.162 47.3617 214.379 46.1832 214.379H42.3254V211.78H45.6588C46.283 211.78 46.7974 211.673 47.2019 211.458C47.6114 211.238 47.916 210.936 48.1158 210.551C48.3205 210.162 48.4229 209.715 48.4229 209.211C48.4229 208.701 48.3205 208.257 48.1158 207.877C47.916 207.493 47.6114 207.196 47.2019 206.986C46.7924 206.771 46.2731 206.664 45.6438 206.664H43.4565V219.353H40.2131Z"
    fill="var(--logo-heading-color)" />
  <path d="M56.6432 219.353V204.012H59.8867V216.679H66.4636V219.353H56.6432Z" fill="var(--logo-heading-color)" />
  <path
    d="M72.7404 219.578C71.5569 219.578 70.5381 219.338 69.6842 218.859C68.8352 218.374 68.1811 217.69 67.7216 216.806C67.2622 215.917 67.0325 214.866 67.0325 213.653C67.0325 212.469 67.2622 211.43 67.7216 210.536C68.1811 209.643 68.8278 208.946 69.6617 208.446C70.5007 207.947 71.4845 207.697 72.6131 207.697C73.3721 207.697 74.0788 207.82 74.7329 208.064C75.3921 208.304 75.9664 208.666 76.4558 209.151C76.9502 209.635 77.3347 210.244 77.6094 210.978C77.884 211.707 78.0214 212.561 78.0214 213.54V214.417H68.3059V212.439H75.0176C75.0176 211.98 74.9177 211.573 74.718 211.218C74.5182 210.864 74.2411 210.586 73.8865 210.387C73.5369 210.182 73.1299 210.079 72.6655 210.079C72.1811 210.079 71.7516 210.192 71.3771 210.417C71.0076 210.636 70.7179 210.933 70.5082 211.308C70.2984 211.677 70.1911 212.089 70.1861 212.544V214.424C70.1861 214.993 70.2909 215.485 70.5007 215.9C70.7154 216.314 71.0175 216.634 71.4071 216.859C71.7966 217.083 72.2585 217.196 72.7929 217.196C73.1474 217.196 73.472 217.146 73.7666 217.046C74.0613 216.946 74.3135 216.796 74.5232 216.596C74.7329 216.397 74.8927 216.152 75.0026 215.862L77.954 216.057C77.8041 216.766 77.497 217.385 77.0326 217.915C76.5732 218.439 75.9789 218.849 75.2498 219.143C74.5257 219.433 73.6892 219.578 72.7404 219.578Z"
    fill="var(--logo-heading-color)" />
  <path
    d="M84.2327 223.907C83.199 223.907 82.3126 223.765 81.5735 223.48C80.8394 223.201 80.2551 222.819 79.8207 222.334C79.3862 221.85 79.104 221.306 78.9742 220.701L81.9255 220.304C82.0154 220.534 82.1578 220.749 82.3525 220.949C82.5473 221.148 82.8045 221.308 83.1241 221.428C83.4487 221.553 83.8432 221.615 84.3076 221.615C85.0017 221.615 85.5735 221.445 86.023 221.106C86.4774 220.771 86.7046 220.209 86.7046 219.42V217.316H86.5698C86.43 217.635 86.2202 217.937 85.9406 218.222C85.6609 218.507 85.3014 218.739 84.8619 218.919C84.4225 219.098 83.8981 219.188 83.2889 219.188C82.4249 219.188 81.6384 218.988 80.9293 218.589C80.2251 218.184 79.6633 217.568 79.2439 216.739C78.8294 215.905 78.6221 214.851 78.6221 213.578C78.6221 212.274 78.8344 211.186 79.2588 210.312C79.6833 209.438 80.2476 208.784 80.9517 208.349C81.6609 207.915 82.4374 207.697 83.2814 207.697C83.9256 207.697 84.4649 207.807 84.8994 208.027C85.3338 208.242 85.6834 208.511 85.9481 208.836C86.2177 209.156 86.425 209.47 86.5698 209.78H86.6896V207.847H89.8582V219.465C89.8582 220.444 89.6185 221.263 89.1391 221.922C88.6597 222.581 87.9955 223.076 87.1466 223.405C86.3026 223.74 85.3313 223.907 84.2327 223.907ZM84.3001 216.791C84.8145 216.791 85.2489 216.664 85.6035 216.409C85.963 216.149 86.2377 215.78 86.4275 215.301C86.6222 214.816 86.7196 214.237 86.7196 213.563C86.7196 212.888 86.6247 212.304 86.435 211.81C86.2452 211.31 85.9705 210.923 85.611 210.649C85.2514 210.374 84.8145 210.237 84.3001 210.237C83.7758 210.237 83.3338 210.379 82.9742 210.664C82.6147 210.943 82.3425 211.333 82.1578 211.832C81.973 212.332 81.8806 212.908 81.8806 213.563C81.8806 214.227 81.973 214.801 82.1578 215.286C82.3475 215.765 82.6197 216.137 82.9742 216.402C83.3338 216.661 83.7758 216.791 84.3001 216.791Z"
    fill="var(--logo-heading-color)" />
  <path
    d="M96.5864 219.578C95.4028 219.578 94.3841 219.338 93.5302 218.859C92.6812 218.374 92.027 217.69 91.5676 216.806C91.1082 215.917 90.8785 214.866 90.8785 213.653C90.8785 212.469 91.1082 211.43 91.5676 210.536C92.027 209.643 92.6737 208.946 93.5077 208.446C94.3467 207.947 95.3304 207.697 96.459 207.697C97.2181 207.697 97.9247 207.82 98.5789 208.064C99.2381 208.304 99.8124 208.666 100.302 209.151C100.796 209.635 101.181 210.244 101.455 210.978C101.73 211.707 101.867 212.561 101.867 213.54V214.417H92.1519V212.439H98.8636C98.8636 211.98 98.7637 211.573 98.5639 211.218C98.3642 210.864 98.087 210.586 97.7325 210.387C97.3829 210.182 96.9759 210.079 96.5115 210.079C96.0271 210.079 95.5976 210.192 95.2231 210.417C94.8535 210.636 94.5639 210.933 94.3541 211.308C94.1444 211.677 94.037 212.089 94.032 212.544V214.424C94.032 214.993 94.1369 215.485 94.3467 215.9C94.5614 216.314 94.8635 216.634 95.253 216.859C95.6426 217.083 96.1045 217.196 96.6388 217.196C96.9934 217.196 97.318 217.146 97.6126 217.046C97.9072 216.946 98.1594 216.796 98.3692 216.596C98.5789 216.397 98.7387 216.152 98.8486 215.862L101.8 216.057C101.65 216.766 101.343 217.385 100.879 217.915C100.419 218.439 99.8249 218.849 99.0958 219.143C98.3717 219.433 97.5352 219.578 96.5864 219.578Z"
    fill="var(--logo-heading-color)" />
  <path
    d="M106.086 212.701V219.353H102.895V207.847H105.936V209.877H106.071C106.326 209.208 106.753 208.679 107.352 208.289C107.951 207.895 108.678 207.697 109.532 207.697C110.331 207.697 111.028 207.872 111.622 208.222C112.216 208.571 112.678 209.071 113.008 209.72C113.337 210.364 113.502 211.133 113.502 212.027V219.353H110.311V212.596C110.316 211.892 110.136 211.343 109.772 210.948C109.407 210.549 108.905 210.349 108.266 210.349C107.836 210.349 107.457 210.442 107.127 210.626C106.803 210.811 106.548 211.081 106.363 211.435C106.183 211.785 106.091 212.207 106.086 212.701Z"
    fill="var(--logo-heading-color)" />
  <path
    d="M119.202 219.54C118.328 219.54 117.537 219.316 116.827 218.866C116.123 218.412 115.564 217.745 115.15 216.866C114.74 215.982 114.535 214.899 114.535 213.615C114.535 212.297 114.748 211.201 115.172 210.327C115.596 209.448 116.161 208.791 116.865 208.357C117.574 207.917 118.351 207.697 119.195 207.697C119.839 207.697 120.376 207.807 120.805 208.027C121.239 208.242 121.589 208.511 121.854 208.836C122.123 209.156 122.328 209.47 122.468 209.78H122.565V204.012H125.749V219.353H122.603V217.51H122.468C122.318 217.83 122.106 218.147 121.831 218.462C121.562 218.771 121.21 219.028 120.775 219.233C120.346 219.438 119.821 219.54 119.202 219.54ZM120.213 217.001C120.728 217.001 121.162 216.861 121.517 216.581C121.876 216.297 122.151 215.9 122.341 215.39C122.535 214.881 122.633 214.284 122.633 213.6C122.633 212.916 122.538 212.322 122.348 211.817C122.158 211.313 121.884 210.923 121.524 210.649C121.165 210.374 120.728 210.237 120.213 210.237C119.689 210.237 119.247 210.379 118.887 210.664C118.528 210.948 118.256 211.343 118.071 211.847C117.886 212.352 117.794 212.936 117.794 213.6C117.794 214.269 117.886 214.861 118.071 215.375C118.261 215.885 118.533 216.284 118.887 216.574C119.247 216.859 119.689 217.001 120.213 217.001Z"
    fill="var(--logo-heading-color)" />
  <path
    d="M139.527 208.424C139.467 207.82 139.21 207.35 138.756 207.016C138.301 206.681 137.685 206.514 136.906 206.514C136.376 206.514 135.929 206.589 135.565 206.739C135.2 206.883 134.921 207.086 134.726 207.345C134.536 207.605 134.441 207.9 134.441 208.229C134.431 208.504 134.489 208.744 134.613 208.948C134.743 209.153 134.921 209.33 135.145 209.48C135.37 209.625 135.63 209.752 135.924 209.862C136.219 209.967 136.534 210.057 136.868 210.132L138.246 210.462C138.916 210.611 139.53 210.811 140.089 211.061C140.648 211.31 141.133 211.618 141.542 211.982C141.952 212.347 142.269 212.776 142.494 213.271C142.723 213.765 142.841 214.332 142.846 214.971C142.841 215.91 142.601 216.724 142.127 217.413C141.657 218.097 140.978 218.629 140.089 219.008C139.205 219.383 138.139 219.57 136.891 219.57C135.652 219.57 134.573 219.38 133.655 219.001C132.741 218.621 132.027 218.06 131.512 217.316C131.003 216.566 130.736 215.64 130.711 214.536H133.849C133.884 215.051 134.032 215.48 134.291 215.825C134.556 216.164 134.908 216.422 135.348 216.596C135.792 216.766 136.294 216.851 136.853 216.851C137.402 216.851 137.879 216.771 138.284 216.611C138.693 216.452 139.01 216.229 139.235 215.945C139.46 215.66 139.572 215.333 139.572 214.963C139.572 214.619 139.47 214.329 139.265 214.095C139.065 213.86 138.771 213.66 138.381 213.495C137.997 213.33 137.525 213.181 136.966 213.046L135.295 212.626C134.002 212.312 132.98 211.82 132.231 211.151C131.482 210.481 131.11 209.58 131.115 208.446C131.11 207.518 131.357 206.706 131.857 206.012C132.361 205.318 133.053 204.776 133.932 204.387C134.811 203.997 135.809 203.802 136.928 203.802C138.067 203.802 139.06 203.997 139.909 204.387C140.763 204.776 141.427 205.318 141.902 206.012C142.376 206.706 142.621 207.51 142.636 208.424H139.527Z"
    fill="var(--logo-heading-color)" />
  <path
    d="M145.883 223.668C145.478 223.668 145.099 223.635 144.744 223.57C144.395 223.51 144.105 223.433 143.875 223.338L144.594 220.956C144.969 221.071 145.306 221.133 145.606 221.143C145.91 221.153 146.172 221.083 146.392 220.934C146.617 220.784 146.799 220.529 146.939 220.169L147.126 219.683L142.999 207.847H146.355L148.737 216.297H148.857L151.261 207.847H154.64L150.168 220.596C149.953 221.216 149.661 221.755 149.291 222.214C148.927 222.679 148.465 223.036 147.905 223.286C147.346 223.54 146.672 223.668 145.883 223.668Z"
    fill="var(--logo-heading-color)" />
  <path
    d="M164.791 211.128L161.87 211.308C161.82 211.058 161.712 210.834 161.547 210.634C161.383 210.429 161.165 210.267 160.896 210.147C160.631 210.022 160.314 209.96 159.944 209.96C159.45 209.96 159.033 210.064 158.693 210.274C158.354 210.479 158.184 210.754 158.184 211.098C158.184 211.373 158.294 211.605 158.514 211.795C158.733 211.985 159.11 212.137 159.645 212.252L161.727 212.671C162.846 212.901 163.68 213.271 164.229 213.78C164.778 214.289 165.053 214.958 165.053 215.787C165.053 216.541 164.831 217.203 164.386 217.772C163.947 218.342 163.343 218.786 162.574 219.106C161.81 219.42 160.928 219.578 159.929 219.578C158.406 219.578 157.193 219.261 156.289 218.626C155.39 217.987 154.863 217.118 154.708 216.02L157.847 215.855C157.942 216.319 158.172 216.674 158.536 216.919C158.901 217.158 159.368 217.278 159.937 217.278C160.496 217.278 160.946 217.171 161.285 216.956C161.63 216.736 161.805 216.454 161.81 216.11C161.805 215.82 161.682 215.583 161.443 215.398C161.203 215.208 160.833 215.063 160.334 214.963L158.341 214.566C157.218 214.342 156.381 213.952 155.832 213.398C155.288 212.844 155.016 212.137 155.016 211.278C155.016 210.539 155.215 209.902 155.615 209.368C156.019 208.834 156.586 208.422 157.315 208.132C158.049 207.842 158.908 207.697 159.892 207.697C161.345 207.697 162.489 208.005 163.323 208.619C164.162 209.233 164.651 210.069 164.791 211.128Z"
    fill="var(--logo-heading-color)" />
  <path
    d="M172.128 207.847V210.244H165.199V207.847H172.128ZM166.772 205.091H169.963V215.817C169.963 216.112 170.008 216.342 170.098 216.507C170.188 216.666 170.312 216.779 170.472 216.844C170.637 216.909 170.827 216.941 171.042 216.941C171.191 216.941 171.341 216.928 171.491 216.904C171.641 216.874 171.756 216.851 171.836 216.836L172.337 219.211C172.178 219.261 171.953 219.318 171.663 219.383C171.374 219.453 171.022 219.495 170.607 219.51C169.838 219.54 169.164 219.438 168.585 219.203C168.01 218.968 167.563 218.604 167.244 218.11C166.924 217.615 166.767 216.991 166.772 216.237V205.091Z"
    fill="var(--logo-heading-color)" />
  <path
    d="M178.272 219.578C177.088 219.578 176.069 219.338 175.215 218.859C174.366 218.374 173.712 217.69 173.253 216.806C172.793 215.917 172.564 214.866 172.564 213.653C172.564 212.469 172.793 211.43 173.253 210.536C173.712 209.643 174.359 208.946 175.193 208.446C176.032 207.947 177.016 207.697 178.144 207.697C178.903 207.697 179.61 207.82 180.264 208.064C180.923 208.304 181.498 208.666 181.987 209.151C182.481 209.635 182.866 210.244 183.141 210.978C183.415 211.707 183.553 212.561 183.553 213.54V214.417H173.837V212.439H180.549C180.549 211.98 180.449 211.573 180.249 211.218C180.049 210.864 179.772 210.586 179.418 210.387C179.068 210.182 178.661 210.079 178.197 210.079C177.712 210.079 177.283 210.192 176.908 210.417C176.539 210.636 176.249 210.933 176.039 211.308C175.83 211.677 175.722 212.089 175.717 212.544V214.424C175.717 214.993 175.822 215.485 176.032 215.9C176.247 216.314 176.549 216.634 176.938 216.859C177.328 217.083 177.79 217.196 178.324 217.196C178.679 217.196 179.003 217.146 179.298 217.046C179.592 216.946 179.845 216.796 180.054 216.596C180.264 216.397 180.424 216.152 180.534 215.862L183.485 216.057C183.335 216.766 183.028 217.385 182.564 217.915C182.104 218.439 181.51 218.849 180.781 219.143C180.057 219.433 179.22 219.578 178.272 219.578Z"
    fill="var(--logo-heading-color)" />
  <path
    d="M184.58 219.353V207.847H187.622V209.877H187.756C187.996 209.203 188.396 208.671 188.955 208.282C189.514 207.892 190.183 207.697 190.962 207.697C191.751 207.697 192.423 207.895 192.977 208.289C193.532 208.679 193.901 209.208 194.086 209.877H194.206C194.441 209.218 194.865 208.691 195.479 208.297C196.099 207.897 196.83 207.697 197.674 207.697C198.748 207.697 199.619 208.039 200.288 208.724C200.963 209.403 201.3 210.367 201.3 211.615V219.353H198.116V212.244C198.116 211.605 197.946 211.126 197.607 210.806C197.267 210.486 196.843 210.327 196.333 210.327C195.754 210.327 195.302 210.511 194.977 210.881C194.653 211.246 194.491 211.727 194.491 212.327V219.353H191.397V212.177C191.397 211.613 191.235 211.163 190.91 210.829C190.59 210.494 190.168 210.327 189.644 210.327C189.289 210.327 188.97 210.417 188.685 210.596C188.406 210.771 188.183 211.018 188.019 211.338C187.854 211.653 187.771 212.022 187.771 212.447V219.353H184.58Z"
    fill="var(--logo-heading-color)" />
  <path
    d="M210.668 209.525L208.466 204.012H209.687L211.058 207.652L212.421 204.012H213.642L211.447 209.525H210.668ZM208.039 209.525V204.012H209.425V209.525H208.039ZM212.683 209.525V204.012H214.077V209.525H212.683ZM204.009 209.525V204.491H205.402V209.525H204.009ZM202.331 205.158V204.012H207.08V205.158H202.331Z"
    fill="var(--logo-heading-color)" />
  <path
    d="M12 12C12 5.37258 17.3726 0 24 0H189.3C195.927 0 201.3 5.37258 201.3 12V177.3C201.3 183.927 195.927 189.3 189.3 189.3H24C17.3726 189.3 12 183.927 12 177.3V12Z"
    fill="var(--logo-background-color)" />
  <path
    d="M99.9571 143.579C103.653 147.275 109.646 147.275 113.343 143.579L156.846 100.076C169.783 87.1389 169.783 66.1637 156.846 53.2266C153.149 49.5302 147.156 49.5302 143.46 53.2266C139.764 56.9229 139.764 62.9158 143.46 66.6121C149.005 72.1566 149.005 81.146 143.46 86.6905L106.65 123.501L69.8399 86.6905C64.2954 81.146 64.2954 72.1566 69.8399 66.6121C75.3844 61.0676 84.3738 61.0676 89.9183 66.6121L97.1849 73.8788L89.1057 73.8788C83.8783 73.8788 79.6406 78.1164 79.6406 83.3438C79.6406 88.5712 83.8783 92.8088 89.1057 92.8088L120.01 92.8088C120.091 92.809 120.172 92.8082 120.253 92.8064C121.438 92.7796 122.569 92.5353 123.607 92.1117C124.743 91.6497 125.807 90.958 126.728 90.0366C128.523 88.2424 129.446 85.9072 129.498 83.5561C129.5 83.4771 129.501 83.3982 129.501 83.3193L129.501 52.4139C129.501 47.1866 125.263 42.9489 120.036 42.9489C114.808 42.9489 110.57 47.1866 110.57 52.4139L110.57 60.4932L103.304 53.2265C90.3667 40.2894 69.3915 40.2894 56.4543 53.2265C43.5172 66.1637 43.5172 87.1389 56.4543 100.076L99.9571 143.579Z"
    fill="var(--logo-foreground-color)" />
</svg>
