<svg width="512" height="512" viewBox="0 0 512 512" fill="none" xmlns="http://www.w3.org/2000/svg">
<rect width="512" height="512" rx="51.2" fill="#0685EE"/>
<path d="M255.679 386.426C264.368 395.114 278.455 395.114 287.143 386.426L389.403 284.166C419.814 253.756 419.814 204.45 389.403 174.04C380.714 165.351 366.627 165.351 357.938 174.04C349.25 182.728 349.25 196.816 357.938 205.504C370.972 218.538 370.972 239.668 357.938 252.701L271.411 339.229L184.884 252.701C171.851 239.668 171.851 218.537 184.884 205.504C197.917 192.471 219.048 192.471 232.081 205.504L249.162 222.586H230.171C217.883 222.586 207.922 232.547 207.922 244.835C207.922 257.122 217.883 267.083 230.171 267.083H302.817C303.007 267.084 303.197 267.082 303.387 267.078C306.172 267.015 308.83 266.44 311.272 265.445C313.941 264.359 316.442 262.733 318.608 260.567C322.826 256.35 324.996 250.86 325.119 245.334C325.123 245.148 325.125 244.962 325.125 244.777L325.125 172.13C325.125 159.842 315.164 149.881 302.876 149.881C290.588 149.881 280.627 159.842 280.627 172.13V191.121L263.546 174.04C233.135 143.629 183.83 143.629 153.419 174.04C123.009 204.45 123.009 253.756 153.419 284.166L255.679 386.426Z" fill="white"/>
</svg>
