<svg width="64" height="64" viewBox="0 0 64 64" fill="none" xmlns="http://www.w3.org/2000/svg">
  <path fill-rule="evenodd" clip-rule="evenodd"
    d="M6.4 0C2.86538 0 0 2.86538 0 6.4V57.6C0 61.1346 2.86538 64 6.4 64H57.6C61.1346 64 64 61.1346 64 57.6V6.4C64 2.86538 61.1346 0 57.6 0H6.4ZM34.2627 48.5423C33.0131 49.792 30.9869 49.792 29.7373 48.5423L15.0295 33.8345C10.6556 29.4606 10.6556 22.3691 15.0295 17.9953C19.4034 13.6214 26.4948 13.6214 30.8687 17.9953L33.3255 20.452V17.7205C33.3255 15.9532 34.7582 14.5205 36.5255 14.5205C38.2928 14.5205 39.7255 15.9532 39.7255 17.7205V28.1692C39.7256 28.1959 39.7253 28.2226 39.7247 28.2493C39.707 29.0442 39.3949 29.8337 38.7883 30.4403C38.4768 30.7518 38.117 30.9856 37.7331 31.1418C37.3819 31.2851 36.9996 31.3677 36.5991 31.3767C36.5717 31.3773 36.5444 31.3776 36.517 31.3775H26.0685C24.3012 31.3775 22.8685 29.9448 22.8685 28.1775C22.8685 26.4102 24.3012 24.9775 26.0685 24.9775H28.8L26.3432 22.5208C24.4687 20.6462 21.4295 20.6462 19.555 22.5208C17.6805 24.3953 17.6805 27.4345 19.555 29.309L32 41.754L44.445 29.309C46.3196 27.4345 46.3196 24.3953 44.445 22.5208C43.1954 21.2711 43.1954 19.2449 44.445 17.9953C45.6947 16.7456 47.7209 16.7456 48.9705 17.9953C53.3444 22.3692 53.3444 29.4606 48.9705 33.8345L34.2627 48.5423Z"
    fill="var(--ifm-heading-color)" />
</svg>
