<svg width="95" height="54" viewBox="0 0 95 54" fill="none" xmlns="http://www.w3.org/2000/svg">
<rect x="1.8501" y="1.84998" width="90.8" height="50.3" rx="3" stroke="#8B1EFF" stroke-width="0.28"/>
<path d="M83.5361 40.0263C83.3511 40.3174 83.1391 40.5923 82.9031 40.8432C82.6667 41.0949 82.4057 41.3239 82.1267 41.5258C81.847 41.7273 81.549 41.9023 81.237 42.0503C80.6184 42.342 79.9434 42.526 79.2644 42.5849C68.5997 43.013 57.9267 43.227 47.2517 43.227C36.578 43.227 25.905 43.013 15.24 42.5849C14.9002 42.5553 14.5622 42.4944 14.2332 42.4043C13.9013 42.3139 13.5793 42.1939 13.2683 42.0478C12.9567 41.9005 12.6577 41.7264 12.3787 41.5244C12.0983 41.3228 11.8373 41.0948 11.6003 40.8427C11.3645 40.5919 11.1535 40.318 10.9685 40.0258C10.7848 39.7348 10.6288 39.4279 10.4998 39.1098C10.371 38.7934 10.27 38.4654 10.196 38.1313C10.1242 37.7995 10.0792 37.4616 10.0632 37.1225L10.0515 7.25143C10.0791 6.52536 10.2591 5.79636 10.5671 5.13327C10.7208 4.80234 10.9058 4.48837 11.1208 4.19528C11.3344 3.90366 11.5774 3.63266 11.8474 3.39059C12.3811 2.91135 13.0151 2.54538 13.6931 2.29831C14.3685 2.05148 15.0865 1.92551 15.8005 1.91745C36.7678 1.82748 57.7358 1.82748 78.7038 1.91745C78.9576 1.92172 79.2116 1.94064 79.4636 1.97263C79.7147 2.00485 79.9647 2.05087 80.2117 2.11179C80.376 2.15195 80.539 2.19992 80.699 2.25388C81.2168 2.43112 81.7148 2.68112 82.1628 2.99704C82.3885 3.15646 82.6015 3.33249 82.7995 3.52341C82.9983 3.71603 83.1823 3.92404 83.3493 4.14499C83.6835 4.58835 83.9495 5.08444 84.1365 5.60934C84.3239 6.13754 84.4319 6.69455 84.4519 7.25143L84.4411 37.1225C84.4096 37.7999 84.2626 38.4798 84.0069 39.1104C83.8779 39.4294 83.7209 39.7364 83.5361 40.0263Z" stroke="#8B1EFF" stroke-width="0.283" stroke-miterlimit="10"/>
<path d="M16.995 4.0835H13.451M13.451 4.0835C13.4506 4.0835 81.0516 4.0835 81.0516 4.0835C82.2255 4.0835 83.1776 5.03552 83.1776 6.20996C83.1776 6.20996 83.1776 38.5469 83.1775 38.5469C83.1775 39.7209 82.2255 40.6729 81.052 40.6729C81.052 40.6729 13.451 40.6729 13.451 40.673C12.277 40.673 11.325 39.7209 11.325 38.5465C11.325 38.5465 11.325 6.20947 11.325 6.20959C11.325 5.03552 12.2769 4.0835 13.451 4.0835Z" stroke="#00FFFF" stroke-width="0.28" stroke-miterlimit="10"/>
<path d="M83.7106 7.59486C83.6836 17.2888 83.6596 26.9818 83.6386 36.6758C83.6369 36.9682 83.6139 37.2572 83.5689 37.5423C83.5229 37.8272 83.4549 38.1072 83.3599 38.3822C83.3369 38.4512 83.3119 38.5202 83.2839 38.5882C83.2579 38.6563 83.2289 38.7243 83.1979 38.7912C83.1379 38.9252 83.0709 39.0552 82.9989 39.1812C82.9259 39.3071 82.8479 39.4292 82.7619 39.5482C82.6769 39.6662 82.5849 39.7813 82.4869 39.8913C82.2899 40.1112 82.0739 40.3071 81.8389 40.4782C81.7219 40.5642 81.5989 40.6432 81.4719 40.7172C81.4079 40.7542 81.3429 40.7892 81.2769 40.8233C81.2119 40.8562 81.1459 40.8882 81.0789 40.9173C80.8129 41.0361 80.5349 41.1272 80.2499 41.1922C80.1789 41.2081 80.1059 41.2232 80.0339 41.2362C79.9619 41.2482 79.8889 41.2601 79.8159 41.2692C79.6709 41.2882 79.5239 41.3012 79.3769 41.3071C57.997 42.1967 36.502 42.1967 15.122 41.3067C14.9742 41.3013 14.8292 41.2883 14.6832 41.2693C14.6112 41.2603 14.5392 41.2483 14.4672 41.2363C14.3942 41.2233 14.3222 41.2083 14.2512 41.1923C13.9662 41.1283 13.6902 41.0372 13.4242 40.9193C13.3572 40.8893 13.2912 40.8583 13.2252 40.8244C13.1602 40.7913 13.0952 40.7562 13.0322 40.7193C12.9052 40.6463 12.7832 40.5673 12.6662 40.4813C12.4302 40.3103 12.2152 40.1163 12.0182 39.8963C11.9692 39.8423 11.9222 39.7853 11.8762 39.7283C11.8302 39.6723 11.7862 39.6143 11.7432 39.5543C11.6582 39.4363 11.5792 39.3143 11.5072 39.1893C11.4332 39.0632 11.3672 38.9343 11.3062 38.8013C11.2762 38.7343 11.2482 38.6663 11.2202 38.5983C11.1932 38.5303 11.1682 38.4613 11.1432 38.3913C11.1202 38.3223 11.0972 38.2523 11.0772 38.1823C11.0552 38.1123 11.0372 38.0423 11.0192 37.9713C10.9842 37.8303 10.9562 37.6882 10.9322 37.5463C10.8872 37.2603 10.8652 36.9704 10.8639 36.6779C10.8429 26.9839 10.8189 17.2879 10.792 7.59254C10.792 7.43849 10.799 7.28456 10.814 7.13148C10.822 7.05556 10.832 6.97853 10.844 6.90248C10.855 6.82655 10.869 6.7505 10.885 6.67458C10.948 6.37453 11.043 6.08546 11.169 5.80849C11.2 5.73854 11.234 5.67055 11.27 5.60255C11.288 5.5685 11.306 5.53456 11.325 5.50148C11.344 5.46754 11.363 5.43459 11.383 5.4015C11.462 5.27052 11.548 5.14455 11.64 5.02357C11.824 4.78358 12.033 4.56447 12.267 4.36757C12.325 4.31752 12.386 4.27052 12.446 4.22353C12.508 4.17751 12.57 4.13258 12.633 4.08949C12.76 4.00356 12.89 3.92458 13.022 3.85255C13.156 3.77956 13.293 3.71352 13.433 3.65358C13.503 3.62355 13.573 3.5945 13.645 3.56752C13.717 3.54152 13.79 3.51552 13.863 3.49147C14.155 3.3965 14.452 3.32753 14.753 3.28053C15.054 3.23451 15.358 3.21156 15.6659 3.21046C36.6869 3.11647 57.8159 3.11647 78.8368 3.21083C79.1458 3.21181 79.4508 3.23476 79.7528 3.28175C79.9028 3.30385 80.0538 3.33376 80.2028 3.36879C80.3518 3.40382 80.5008 3.44582 80.6468 3.49281C80.9378 3.58876 81.2168 3.70778 81.4848 3.85475C81.5528 3.89076 81.6178 3.92885 81.6838 3.96974C81.7488 4.00978 81.8148 4.05177 81.8768 4.09474C82.0038 4.1808 82.1248 4.27284 82.2408 4.37074C82.3578 4.46877 82.4678 4.57277 82.5728 4.68275C82.6258 4.73878 82.6768 4.79482 82.7268 4.85378C82.7758 4.91176 82.8248 4.97182 82.8708 5.03285C83.0568 5.27577 83.2118 5.53578 83.3378 5.81386C83.3688 5.88283 83.3998 5.95277 83.4268 6.0248C83.4538 6.09584 83.4808 6.16884 83.5038 6.24086C83.5518 6.38783 83.5908 6.53481 83.6218 6.68483C83.6838 6.9828 83.7138 7.28578 83.7128 7.59474" stroke="#FF00FF" stroke-width="0.283465" stroke-miterlimit="10" stroke-linecap="round" stroke-linejoin="round"/>
<path d="M80.859 44.9191V50.01H80.2425V45.5654H80.2127L78.9698 46.3907V45.7643L80.2425 44.9191H80.859ZM82.4598 50.0498C82.3372 50.0498 82.232 50.0059 82.1442 49.918C82.0563 49.8302 82.0124 49.725 82.0124 49.6023C82.0124 49.4797 82.0563 49.3745 82.1442 49.2866C82.232 49.1988 82.3372 49.1549 82.4598 49.1549C82.5825 49.1549 82.6877 49.1988 82.7755 49.2866C82.8634 49.3745 82.9073 49.4797 82.9073 49.6023C82.9073 49.6835 82.8866 49.7581 82.8451 49.8261C82.8054 49.894 82.7515 49.9487 82.6836 49.9901C82.6173 50.0299 82.5427 50.0498 82.4598 50.0498ZM84.0066 50.01L86.2836 45.5057V45.466H83.6586V44.9191H86.92V45.4958L84.6529 50.01H84.0066ZM89.3691 50.0796C89.0775 50.0796 88.8148 50.0216 88.5811 49.9056C88.3475 49.7896 88.1602 49.6305 88.0193 49.4283C87.8785 49.2262 87.8014 48.9958 87.7882 48.7373H88.3847C88.4079 48.9676 88.5123 49.1582 88.698 49.309C88.8852 49.4582 89.1089 49.5327 89.3691 49.5327C89.5779 49.5327 89.7635 49.4838 89.9259 49.3861C90.09 49.2883 90.2184 49.1541 90.3112 48.9834C90.4057 48.811 90.4529 48.6163 90.4529 48.3992C90.4529 48.1771 90.404 47.9791 90.3063 47.8051C90.2101 47.6294 90.0776 47.4911 89.9085 47.39C89.7395 47.2889 89.5464 47.2375 89.3293 47.2359C89.1736 47.2342 89.0136 47.2582 88.8496 47.308C88.6855 47.356 88.5505 47.4182 88.4444 47.4944L87.8677 47.4248L88.1759 44.9191H90.8208V45.466H88.693L88.514 46.9674H88.5438C88.6482 46.8845 88.7792 46.8158 88.9366 46.7611C89.094 46.7064 89.2581 46.679 89.4288 46.679C89.7403 46.679 90.0179 46.7536 90.2615 46.9028C90.5068 47.0503 90.699 47.2524 90.8382 47.5093C90.9791 47.7662 91.0495 48.0595 91.0495 48.3893C91.0495 48.7141 90.9766 49.0041 90.8308 49.2593C90.6866 49.5129 90.4877 49.7134 90.2342 49.8609C89.9806 50.0067 89.6923 50.0796 89.3691 50.0796Z" fill="#0000FF"/>
<path fill-rule="evenodd" clip-rule="evenodd" d="M24.195 17.9962C24.0188 17.9962 23.8507 18.0645 23.727 18.1882L19.617 22.2982C19.3543 22.5609 19.3543 22.9714 19.617 23.2341L19.6183 23.2353L23.727 27.3641C23.8507 27.4875 24.0191 27.5562 24.195 27.5562H33.275C33.6194 27.5562 33.895 27.2775 33.895 26.9362V18.6162C33.895 18.2718 33.6164 17.9962 33.275 17.9962H24.195ZM22.723 17.1841C23.1193 16.7878 23.6512 16.5762 24.195 16.5762H33.275C34.3936 16.5762 35.315 17.4806 35.315 18.6162V26.9362C35.315 28.0548 34.4106 28.9762 33.275 28.9762H24.195C23.6512 28.9762 23.1193 28.7645 22.723 28.3682L22.7217 28.367L18.613 24.2382L18.6122 24.2375C17.7957 23.4201 17.7959 22.1111 18.613 21.2941L22.723 17.1841ZM31.2871 19.9941C31.5644 20.2714 31.5644 20.721 31.2871 20.9982L29.6213 22.664C29.5666 22.7188 29.5666 22.8075 29.6214 22.8621L31.2865 24.5236C31.5641 24.8006 31.5646 25.2501 31.2876 25.5277C31.0107 25.8053 30.5611 25.8058 30.2835 25.5288L28.6171 23.866C28.5624 23.8114 28.4738 23.8115 28.4192 23.8661L26.7571 25.5282C26.4798 25.8055 26.0303 25.8055 25.753 25.5282C25.4757 25.251 25.4757 24.8014 25.753 24.5241L27.4138 22.8634C27.4685 22.8086 27.4685 22.7199 27.4137 22.6653L25.7435 20.9988C25.466 20.7218 25.4655 20.2723 25.7424 19.9947C26.0194 19.7171 26.4689 19.7166 26.7465 19.9936L28.418 21.6614C28.4727 21.716 28.5612 21.7159 28.6159 21.6613L30.283 19.9941C30.5603 19.7169 31.0098 19.7169 31.2871 19.9941Z" fill="black"/>
</svg>
