<svg width="55" height="54" viewBox="0 0 55 54" fill="none" xmlns="http://www.w3.org/2000/svg">
<rect x="2.3501" y="1.85001" width="50.3" height="50.3" rx="3" stroke="#8B1EFF" stroke-width="0.28"/>
<path d="M44.6505 7.31647L44.6325 37.3803C44.6265 37.5443 44.6124 37.7072 44.5923 37.8691C44.5723 38.0311 44.5463 38.1932 44.516 38.3547C44.485 38.5156 44.448 38.6746 44.4036 38.8338C44.3605 38.9919 44.3115 39.1489 44.257 39.3043C44.1389 39.6282 43.9949 39.9433 43.8242 40.2436C43.6512 40.5485 43.4513 40.8376 43.2263 41.1068C42.9993 41.3768 42.7483 41.6258 42.4753 41.8478C42.2013 42.0698 41.9074 42.2658 41.5972 42.43C41.3722 42.5469 41.1371 42.65 40.8978 42.7353C40.7788 42.7773 40.6578 42.8143 40.5356 42.8481C40.4137 42.8821 40.2907 42.9122 40.1676 42.9368C40.0027 42.9717 39.8367 42.9977 39.6687 43.0147L39.6675 43.0143C31.5554 43.5814 23.4135 43.5803 15.3014 43.0129C14.6355 42.9389 13.9805 42.7249 13.3855 42.4037C12.7805 42.0787 12.2395 41.6418 11.7981 41.1209C11.3541 40.596 11.0121 39.9839 10.773 39.3397C10.653 39.0187 10.558 38.6877 10.49 38.352C10.421 38.018 10.3771 37.6771 10.3615 37.3371L10.3447 7.31696C10.3578 6.77496 10.4537 6.23102 10.6215 5.71307C10.7054 5.45416 10.8075 5.20209 10.9258 4.95844C11.0437 4.71552 11.1798 4.48053 11.3307 4.25616C11.4817 4.03412 11.6487 3.82208 11.8317 3.62469C12.0137 3.42877 12.2096 3.24677 12.4188 3.07953C12.6268 2.91449 12.8479 2.76349 13.0767 2.63031C13.3066 2.49738 13.5457 2.38129 13.7915 2.28302C14.1035 2.16107 14.4285 2.06805 14.7576 2.0036C15.0875 1.93866 15.4225 1.90265 15.7578 1.89581C19.6708 1.86481 23.5837 1.84869 27.4971 1.84857C31.41 1.84857 35.323 1.86469 39.2362 1.89606C39.9142 1.90497 40.5952 2.04205 41.2292 2.29669C41.8783 2.55878 42.4763 2.94574 42.9753 3.43292C43.4893 3.93182 43.8983 4.5379 44.1821 5.19806C44.4701 5.86615 44.6301 6.59113 44.6502 7.31305" stroke="#8B1EFF" stroke-width="0.283" stroke-miterlimit="10"/>
<rect x="13.1792" y="5.50507" width="28.63" height="34.3" rx="1.42" stroke="#00FFFF" stroke-width="0.28"/>
<path d="M43.4527 7.68658C43.4477 12.5516 43.4427 17.4166 43.4386 22.2816L43.4237 36.8775C43.4237 37.1668 43.4027 37.4548 43.3617 37.7408C43.3518 37.8118 43.3397 37.8829 43.3268 37.9538C43.3147 38.0248 43.2998 38.0959 43.2838 38.1668C43.2517 38.3078 43.2147 38.4478 43.1728 38.5848C43.0878 38.8588 42.9818 39.1258 42.8507 39.3839C42.8168 39.4478 42.7827 39.5118 42.7467 39.5749C42.7118 39.6368 42.6748 39.6988 42.6367 39.7598C42.5598 39.8818 42.4778 39.9988 42.3908 40.1119C42.3028 40.2248 42.2097 40.3328 42.1098 40.4378C42.0618 40.4898 42.0098 40.5408 41.9578 40.5909C41.9048 40.6398 41.8518 40.6878 41.7968 40.7348C41.5788 40.9199 41.3448 41.0809 41.0938 41.2148C41.0308 41.2488 40.9668 41.2808 40.9018 41.3109C40.8368 41.3419 40.7708 41.3698 40.7038 41.3968C40.5708 41.4499 40.4368 41.4958 40.2998 41.5339C40.0268 41.6108 39.7467 41.6589 39.4608 41.6788C31.5301 42.2228 23.463 42.2228 15.5331 41.6788C15.2461 41.6585 14.9662 41.6105 14.6931 41.5335C14.5562 41.4955 14.4221 41.4495 14.2892 41.3965C14.2222 41.3696 14.1562 41.3405 14.0912 41.3106C14.0261 41.2806 13.9632 41.2486 13.9002 41.2145C13.6481 41.0805 13.4142 40.9196 13.1962 40.7336C13.1421 40.6876 13.0891 40.6396 13.0362 40.5895C12.9842 40.5406 12.9322 40.4886 12.8832 40.4376C12.7842 40.3326 12.6912 40.2245 12.6042 40.1105C12.5161 39.9986 12.4341 39.8806 12.3572 39.7596C12.3191 39.6985 12.2821 39.6365 12.2471 39.5735C12.2112 39.5115 12.1762 39.4476 12.1442 39.3825C12.0132 39.1255 11.9062 38.8586 11.8222 38.5845C11.7792 38.4466 11.7422 38.3076 11.7112 38.1666C11.6952 38.0955 11.6802 38.0246 11.6671 37.9536C11.6542 37.8825 11.6421 37.8116 11.6321 37.7396C11.5912 37.4545 11.5702 37.1675 11.5698 36.8771C11.5618 27.1472 11.5518 17.4162 11.542 7.68622C11.541 7.38922 11.568 7.09723 11.6231 6.80927C11.65 6.6662 11.6841 6.52325 11.7251 6.38226C11.7461 6.31122 11.7681 6.24127 11.7931 6.1712C11.817 6.10126 11.843 6.03326 11.87 5.96527C11.9801 5.69318 12.1151 5.43622 12.276 5.19318C12.3161 5.13226 12.3581 5.07318 12.401 5.01422C12.4451 4.95526 12.4901 4.89716 12.5371 4.84027C12.63 4.72723 12.7271 4.62018 12.8311 4.51727C13.0371 4.31427 13.2621 4.13226 13.5081 3.97321C13.5691 3.93317 13.6321 3.89423 13.6941 3.85822C13.7581 3.82123 13.8211 3.78717 13.8861 3.75323C14.0141 3.68719 14.146 3.62726 14.2801 3.57416C14.4151 3.5202 14.5531 3.47418 14.692 3.43317C14.7621 3.41327 14.833 3.39423 14.9041 3.37726C14.9751 3.36017 15.047 3.34528 15.119 3.33124C15.4051 3.27716 15.6961 3.24823 15.9896 3.24615C23.6208 3.18524 31.3747 3.18524 39.006 3.24615C39.3 3.24921 39.589 3.27716 39.872 3.33112C40.1549 3.38422 40.433 3.4632 40.705 3.57111C40.773 3.59711 40.841 3.62616 40.907 3.65619C40.974 3.6861 41.039 3.7182 41.1039 3.75116C41.2329 3.8172 41.3579 3.8891 41.4789 3.9682C41.7219 4.12421 41.9469 4.30511 42.157 4.51117C42.209 4.56219 42.2599 4.61517 42.309 4.66913C42.3579 4.72321 42.4059 4.77814 42.453 4.83417C42.5449 4.94611 42.632 5.06317 42.7119 5.18414C42.793 5.30511 42.867 5.43011 42.935 5.56012C42.97 5.62421 43.003 5.69012 43.034 5.75714C43.065 5.82416 43.095 5.89215 43.122 5.96014C43.232 6.23212 43.314 6.51312 43.37 6.80219C43.3839 6.87421 43.3949 6.9472 43.4059 7.0202C43.417 7.0932 43.4259 7.16718 43.4319 7.24115C43.4459 7.3891 43.453 7.53717 43.4527 7.68658Z" stroke="#FF00FF" stroke-width="0.283465" stroke-miterlimit="10" stroke-linecap="round" stroke-linejoin="round"/>
<path d="M33.4038 37.0772C33.4038 36.7051 33.6333 36.4633 34.0611 36.4633H35.118C35.1953 36.4633 35.258 36.4006 35.258 36.3233V28.2007C35.258 28.1234 35.1953 28.0607 35.118 28.0607H34.0611C33.6333 28.0607 33.4038 27.8188 33.4038 27.453C33.4038 27.0809 33.6333 26.8391 34.0611 26.8391H35.8037C36.4486 26.8391 36.8207 27.1863 36.8207 27.8188V36.7051C36.8207 37.3376 36.4486 37.6849 35.8037 37.6849H34.0611C33.6333 37.6849 33.4038 37.4431 33.4038 37.0772Z" fill="black"/>
<path d="M19.4983 15.1261C19.1023 15.1261 18.7963 14.8201 18.8143 14.3701L18.8275 13.6689C18.8296 13.5589 18.7099 13.4896 18.6155 13.5462L18.0223 13.9021C17.8783 13.9921 17.7163 14.0281 17.5723 14.0281C17.2123 14.0281 16.9243 13.7401 16.9243 13.3621C16.9243 13.0741 17.0683 12.8581 17.3383 12.7141L17.94 12.3871C18.0375 12.3341 18.0375 12.1941 17.94 12.1411L17.3383 11.8141C17.0683 11.6701 16.9243 11.4541 16.9243 11.1661C16.9243 10.7881 17.2123 10.5001 17.5723 10.5001C17.7163 10.5001 17.8783 10.5361 18.0223 10.6261L18.6136 10.994C18.7079 11.0527 18.8296 10.9836 18.8275 10.8726L18.8143 10.1581C18.7963 9.70813 19.1023 9.40213 19.4983 9.40213C19.8943 9.40213 20.2003 9.70813 20.1823 10.1581L20.1559 10.87C20.1518 10.9815 20.2734 11.0528 20.3686 10.9948L20.9743 10.6261C21.1183 10.5361 21.2803 10.5001 21.4243 10.5001C21.7843 10.5001 22.0723 10.7881 22.0723 11.1661C22.0723 11.4541 21.9283 11.6701 21.6583 11.8141L21.0447 12.1405C20.9457 12.1932 20.9457 12.3351 21.0447 12.3877L21.6583 12.7141C21.9283 12.8581 22.0723 13.0741 22.0723 13.3621C22.0723 13.7401 21.7843 14.0281 21.4243 14.0281C21.2803 14.0281 21.1183 13.9921 20.9743 13.9021L20.3667 13.5455C20.2714 13.4895 20.1518 13.561 20.156 13.6715L20.1823 14.3701C20.2003 14.8201 19.8943 15.1261 19.4983 15.1261Z" fill="black"/>
<path d="M19.5125 36.8167C19.2272 36.8167 18.9792 36.6617 18.9792 36.2896V35.9272C18.9792 35.855 18.9241 35.7948 18.8523 35.7864C18.0414 35.6912 17.3176 35.4177 16.8459 34.9874C16.4677 34.6587 16.2568 34.2804 16.2568 33.9146C16.2568 33.4991 16.5421 33.2573 16.9204 33.2573C17.156 33.2573 17.3296 33.3255 17.6459 33.6417C18.204 34.2432 18.8179 34.5223 19.5559 34.5223C20.5418 34.5223 21.0938 34.0758 21.0938 33.3689C21.0938 32.8232 20.7155 32.5007 19.7977 32.2837L18.5389 31.9922C17.125 31.676 16.3871 30.876 16.3871 29.673C16.3871 28.333 17.3565 27.3866 18.8893 27.1999C18.9611 27.1912 19.0164 27.131 19.0164 27.0587V26.6902C19.0164 26.3181 19.2644 26.1693 19.5435 26.1693C19.8287 26.1693 20.0768 26.3243 20.0768 26.6902V27.0817C20.0768 27.1521 20.1292 27.2114 20.1988 27.2222C20.924 27.3347 21.5645 27.6123 21.9991 28.0235C22.3464 28.3645 22.551 28.7428 22.551 29.0901C22.551 29.4497 22.2844 29.6916 21.9371 29.6916C21.6519 29.6916 21.441 29.5862 21.1682 29.3009C20.6287 28.6994 20.145 28.4637 19.4504 28.4637C18.5947 28.4637 18.049 28.9226 18.049 29.5552C18.049 30.0823 18.4334 30.4419 19.221 30.6156L20.4798 30.9008C22.0115 31.2357 22.7495 31.9798 22.7495 33.2076C22.7495 34.5979 21.7596 35.564 20.1646 35.7784C20.0937 35.7879 20.0396 35.8477 20.0396 35.9192V36.2896C20.0396 36.6617 19.7915 36.8167 19.5125 36.8167Z" fill="black"/>
</svg>
