<svg width="54" height="55" viewBox="0 0 54 55" fill="none" xmlns="http://www.w3.org/2000/svg">
<rect x="1.8501" y="2.79843" width="50.3" height="50.3" rx="3" stroke="#8B1EFF" stroke-width="0.28"/>
<path d="M44.1508 8.26489L44.1327 38.3287C44.1267 38.4927 44.1127 38.6556 44.0925 38.8175C44.0725 38.9795 44.0465 39.1416 44.0162 39.3031C43.9852 39.464 43.9482 39.623 43.9038 39.7822C43.8607 39.9403 43.8118 40.0973 43.7572 40.2527C43.6392 40.5767 43.4951 40.8917 43.3245 41.192C43.1515 41.4969 42.9515 41.786 42.7266 42.0552C42.4995 42.3252 42.2485 42.5742 41.9756 42.7963C41.7015 43.0182 41.4076 43.2142 41.0974 43.3784C40.8724 43.4954 40.6373 43.5984 40.3981 43.6837C40.2791 43.7257 40.1581 43.7627 40.0359 43.7965C39.9139 43.8306 39.7909 43.8606 39.6678 43.8853C39.5029 43.9202 39.3369 43.9462 39.1689 43.9631L39.1677 43.9628C31.0557 44.5298 22.9137 44.5287 14.8016 43.9613C14.1357 43.8873 13.4807 43.6733 12.8857 43.3522C12.2808 43.0271 11.7397 42.5902 11.2983 42.0693C10.8544 41.5444 10.5123 40.9324 10.2732 40.2881C10.1532 39.9672 10.0582 39.6361 9.99024 39.3004C9.92127 38.9664 9.87732 38.6255 9.8617 38.2855L9.84497 8.26538C9.85803 7.72339 9.95398 7.17944 10.1217 6.6615C10.2057 6.40259 10.3077 6.15051 10.426 5.90686C10.5439 5.66394 10.6801 5.42896 10.8309 5.20459C10.9819 4.98254 11.1489 4.77051 11.3319 4.57312C11.5139 4.3772 11.7098 4.19519 11.9191 4.02795C12.1271 3.86291 12.3481 3.71191 12.5769 3.57874C12.8069 3.4458 13.0459 3.32971 13.2918 3.23145C13.6038 3.1095 13.9287 3.01648 14.2578 2.95203C14.5878 2.88708 14.9227 2.85107 15.2581 2.84424C19.171 2.81323 23.084 2.79712 26.9973 2.797C30.9103 2.797 34.8232 2.81311 38.7365 2.84448C39.4144 2.85339 40.0955 2.99048 40.7295 3.24512C41.3785 3.5072 41.9766 3.89417 42.4756 4.38135C42.9895 4.88025 43.3986 5.48633 43.6824 6.14648C43.9703 6.81458 44.1304 7.53955 44.1504 8.26147" stroke="#8B1EFF" stroke-width="0.283" stroke-miterlimit="10"/>
<rect x="12.6792" y="6.45349" width="28.63" height="34.3" rx="1.42" stroke="#00FFFF" stroke-width="0.28"/>
<path d="M42.9527 8.63501C42.9477 13.5 42.9427 18.365 42.9386 23.23L42.9237 37.8259C42.9237 38.1152 42.9027 38.4032 42.8617 38.6892C42.8518 38.7603 42.8397 38.8313 42.8268 38.9022C42.8147 38.9733 42.7998 39.0443 42.7838 39.1152C42.7517 39.2562 42.7147 39.3962 42.6728 39.5332C42.5878 39.8073 42.4818 40.0742 42.3507 40.3323C42.3168 40.3962 42.2827 40.4602 42.2467 40.5233C42.2118 40.5852 42.1748 40.6472 42.1367 40.7083C42.0598 40.8302 41.9778 40.9473 41.8908 41.0603C41.8028 41.1732 41.7097 41.2813 41.6098 41.3862C41.5618 41.4382 41.5098 41.4893 41.4578 41.5393C41.4048 41.5883 41.3518 41.6362 41.2968 41.6832C41.0788 41.8683 40.8448 42.0293 40.5938 42.1632C40.5308 42.1973 40.4668 42.2292 40.4018 42.2593C40.3368 42.2903 40.2708 42.3182 40.2038 42.3452C40.0708 42.3983 39.9368 42.4442 39.7998 42.4823C39.5268 42.5592 39.2467 42.6073 38.9608 42.6272C31.0301 43.1713 22.963 43.1713 15.0331 42.6272C14.7461 42.6069 14.4662 42.559 14.1931 42.4819C14.0562 42.444 13.9221 42.3979 13.7892 42.345C13.7222 42.318 13.6562 42.2889 13.5912 42.259C13.5261 42.229 13.4632 42.197 13.4002 42.163C13.1481 42.0289 12.9142 41.868 12.6962 41.682C12.6421 41.636 12.5891 41.588 12.5362 41.538C12.4842 41.489 12.4322 41.437 12.3832 41.386C12.2842 41.281 12.1912 41.173 12.1042 41.059C12.0161 40.947 11.9341 40.829 11.8572 40.708C11.8191 40.647 11.7821 40.585 11.7471 40.522C11.7112 40.46 11.6762 40.396 11.6442 40.3309C11.5132 40.074 11.4062 39.807 11.3222 39.533C11.2792 39.395 11.2422 39.256 11.2112 39.115C11.1952 39.0439 11.1802 38.973 11.1671 38.902C11.1542 38.8309 11.1421 38.76 11.1321 38.688C11.0912 38.403 11.0702 38.116 11.0698 37.8256C11.0618 28.0956 11.0518 18.3646 11.042 8.63464C11.041 8.33765 11.068 8.04565 11.1231 7.75769C11.15 7.61462 11.1841 7.47168 11.2251 7.33069C11.2461 7.25964 11.2681 7.1897 11.2931 7.11963C11.317 7.04968 11.343 6.98169 11.37 6.9137C11.4801 6.6416 11.6151 6.38464 11.776 6.1416C11.8161 6.08069 11.8581 6.02161 11.901 5.96265C11.9451 5.90369 11.9901 5.84558 12.0371 5.7887C12.13 5.67566 12.2271 5.5686 12.3311 5.4657C12.5371 5.2627 12.7621 5.08069 13.0081 4.92163C13.0691 4.88159 13.1321 4.84265 13.1941 4.80664C13.2581 4.76965 13.3211 4.7356 13.3861 4.70166C13.5141 4.63562 13.646 4.57568 13.7801 4.52258C13.9151 4.46863 14.0531 4.42261 14.192 4.38159C14.2621 4.36169 14.333 4.34265 14.4041 4.32568C14.4751 4.30859 14.547 4.2937 14.619 4.27966C14.9051 4.22559 15.1961 4.19666 15.4896 4.19458C23.1208 4.13367 30.8747 4.13367 38.506 4.19458C38.8 4.19763 39.089 4.22559 39.372 4.27954C39.6549 4.33264 39.933 4.41162 40.205 4.51953C40.273 4.54553 40.341 4.57458 40.407 4.60461C40.474 4.63452 40.539 4.66663 40.6039 4.69958C40.7329 4.76562 40.8579 4.83752 40.9789 4.91663C41.2219 5.07263 41.4469 5.25354 41.657 5.45959C41.709 5.51062 41.7599 5.5636 41.809 5.61755C41.8579 5.67163 41.9059 5.72656 41.953 5.78259C42.0449 5.89453 42.132 6.0116 42.2119 6.13257C42.293 6.25354 42.367 6.37854 42.435 6.50854C42.47 6.57263 42.503 6.63855 42.534 6.70557C42.565 6.77258 42.595 6.84058 42.622 6.90857C42.732 7.18054 42.814 7.46155 42.87 7.75061C42.8839 7.82263 42.8949 7.89563 42.9059 7.96863C42.917 8.04163 42.9259 8.1156 42.9319 8.18958C42.9459 8.33752 42.953 8.4856 42.9527 8.63501Z" stroke="#FF00FF" stroke-width="0.283465" stroke-miterlimit="10" stroke-linecap="round" stroke-linejoin="round"/>
<path d="M15.4399 19.3278V10.3717C15.4399 9.36096 15.9585 8.8512 17.022 8.8512H22.3306C22.9282 8.8512 23.3325 9.2467 23.3325 9.82678C23.3325 10.4069 22.9282 10.7936 22.3306 10.7936H17.9354C17.8581 10.7936 17.7954 10.8563 17.7954 10.9336V13.7298C17.7954 13.8071 17.8581 13.8698 17.9354 13.8698H22.0845C22.647 13.8698 23.0249 14.2301 23.0249 14.7838C23.0249 15.3375 22.647 15.6891 22.0845 15.6891H17.9354C17.8581 15.6891 17.7954 15.7518 17.7954 15.8291V18.7659C17.7954 18.8432 17.8581 18.9059 17.9354 18.9059H22.3042C22.9282 18.9059 23.3325 19.2926 23.3325 19.8815C23.3325 20.4703 22.9282 20.8483 22.3042 20.8483H17.022C15.9585 20.8483 15.4399 20.3473 15.4399 19.3278Z" fill="black"/>
<path fill-rule="evenodd" clip-rule="evenodd" d="M31.3435 30.0714C31.3435 29.6793 31.6614 29.3614 32.0535 29.3614L37.9485 29.3614C38.3407 29.3614 38.6585 29.6793 38.6585 30.0714C38.6585 30.4635 38.3407 30.7814 37.9485 30.7814L32.9035 30.7814C32.8262 30.7814 32.7635 30.8441 32.7635 30.9214L32.7635 34.4754C32.7635 34.5527 32.8262 34.6154 32.9035 34.6154H37.9485C38.3407 34.6154 38.6585 34.9333 38.6585 35.3254C38.6585 35.7175 38.3407 36.0354 37.9485 36.0354H32.0535C31.8652 36.0354 31.6846 35.9606 31.5515 35.8275C31.4183 35.6943 31.3435 35.5137 31.3435 35.3254L31.3435 30.0714Z" fill="black"/>
</svg>
