<svg width="54" height="54" viewBox="0 0 54 54" fill="none" xmlns="http://www.w3.org/2000/svg">
<rect x="1.8501" y="1.8501" width="50.3" height="50.3" rx="3" stroke="#8B1EFF" stroke-width="0.28"/>
<path d="M44.1508 7.31653L44.1327 37.3804C44.1267 37.5443 44.1127 37.7073 44.0925 37.8691C44.0725 38.0311 44.0465 38.1932 44.0162 38.3547C43.9852 38.5156 43.9482 38.6747 43.9038 38.8339C43.8607 38.9919 43.8118 39.1489 43.7572 39.3043C43.6392 39.6283 43.4951 39.9434 43.3245 40.2437C43.1515 40.5486 42.9515 40.8376 42.7266 41.1068C42.4995 41.3768 42.2485 41.6259 41.9756 41.8479C41.7015 42.0698 41.4076 42.2659 41.0974 42.4301C40.8724 42.547 40.6373 42.65 40.3981 42.7354C40.2791 42.7773 40.1581 42.8143 40.0359 42.8481C39.9139 42.8822 39.7909 42.9122 39.6678 42.9369C39.5029 42.9718 39.3369 42.9978 39.1689 43.0148L39.1677 43.0144C31.0557 43.5814 22.9137 43.5803 14.8016 43.0129C14.1357 42.939 13.4807 42.725 12.8857 42.4038C12.2808 42.0787 11.7397 41.6418 11.2983 41.121C10.8544 40.5961 10.5123 39.984 10.2732 39.3397C10.1532 39.0188 10.0582 38.6877 9.99024 38.3521C9.92127 38.0181 9.87732 37.6771 9.8617 37.3372L9.84497 7.31702C9.85803 6.77502 9.95398 6.23108 10.1217 5.71313C10.2057 5.45422 10.3077 5.20215 10.426 4.9585C10.5439 4.71558 10.6801 4.48059 10.8309 4.25623C10.9819 4.03418 11.1489 3.82214 11.3319 3.62476C11.5139 3.42883 11.7098 3.24683 11.9191 3.07959C12.1271 2.91455 12.3481 2.76355 12.5769 2.63037C12.8069 2.49744 13.0459 2.38135 13.2918 2.28308C13.6038 2.16113 13.9287 2.06812 14.2578 2.00366C14.5878 1.93872 14.9227 1.90271 15.2581 1.89587C19.171 1.86487 23.084 1.84875 26.9973 1.84863C30.9103 1.84863 34.8232 1.86475 38.7365 1.89612C39.4144 1.90503 40.0955 2.04211 40.7295 2.29675C41.3785 2.55884 41.9766 2.9458 42.4756 3.43298C42.9895 3.93188 43.3986 4.53796 43.6824 5.19812C43.9703 5.86621 44.1304 6.59119 44.1504 7.31311" stroke="#8B1EFF" stroke-width="0.283" stroke-miterlimit="10"/>
<rect x="12.6792" y="5.50488" width="28.63" height="34.3" rx="1.42" stroke="#00FFFF" stroke-width="0.28"/>
<path d="M42.9527 7.6868C42.9477 12.5518 42.9427 17.4168 42.9386 22.2818L42.9237 36.8777C42.9237 37.167 42.9027 37.455 42.8617 37.741C42.8518 37.812 42.8397 37.8831 42.8268 37.954C42.8147 38.0251 42.7998 38.0961 42.7838 38.167C42.7517 38.308 42.7147 38.448 42.6728 38.585C42.5878 38.859 42.4818 39.126 42.3507 39.3841C42.3168 39.448 42.2827 39.512 42.2467 39.5751C42.2118 39.637 42.1748 39.699 42.1367 39.76C42.0598 39.882 41.9778 39.9991 41.8908 40.1121C41.8028 40.225 41.7097 40.333 41.6098 40.438C41.5618 40.49 41.5098 40.541 41.4578 40.5911C41.4048 40.64 41.3518 40.688 41.2968 40.735C41.0788 40.9201 40.8448 41.0811 40.5938 41.215C40.5308 41.2491 40.4668 41.281 40.4018 41.3111C40.3368 41.3421 40.2708 41.37 40.2038 41.397C40.0708 41.4501 39.9368 41.496 39.7998 41.5341C39.5268 41.611 39.2467 41.6591 38.9608 41.679C31.0301 42.2231 22.963 42.2231 15.0331 41.679C14.7461 41.6587 14.4662 41.6107 14.1931 41.5337C14.0562 41.4958 13.9221 41.4497 13.7892 41.3968C13.7222 41.3698 13.6562 41.3407 13.5912 41.3108C13.5261 41.2808 13.4632 41.2488 13.4002 41.2148C13.1481 41.0807 12.9142 40.9198 12.6962 40.7338C12.6421 40.6878 12.5891 40.6398 12.5362 40.5898C12.4842 40.5408 12.4322 40.4888 12.3832 40.4378C12.2842 40.3328 12.1912 40.2248 12.1042 40.1107C12.0161 39.9988 11.9341 39.8808 11.8572 39.7598C11.8191 39.6988 11.7821 39.6367 11.7471 39.5738C11.7112 39.5117 11.6762 39.4478 11.6442 39.3827C11.5132 39.1258 11.4062 38.8588 11.3222 38.5847C11.2792 38.4468 11.2422 38.3078 11.2112 38.1668C11.1952 38.0957 11.1802 38.0248 11.1671 37.9538C11.1542 37.8827 11.1421 37.8118 11.1321 37.7398C11.0912 37.4547 11.0702 37.1678 11.0698 36.8773C11.0618 27.1474 11.0518 17.4164 11.042 7.68643C11.041 7.38943 11.068 7.09744 11.1231 6.80948C11.15 6.66641 11.1841 6.52347 11.2251 6.38248C11.2461 6.31143 11.2681 6.24149 11.2931 6.17142C11.317 6.10147 11.343 6.03348 11.37 5.96548C11.4801 5.69339 11.6151 5.43643 11.776 5.19339C11.8161 5.13248 11.8581 5.07339 11.901 5.01443C11.9451 4.95547 11.9901 4.89737 12.0371 4.84048C12.13 4.72745 12.2271 4.62039 12.3311 4.51749C12.5371 4.31448 12.7621 4.13248 13.0081 3.97342C13.0691 3.93338 13.1321 3.89444 13.1941 3.85843C13.2581 3.82144 13.3211 3.78738 13.3861 3.75345C13.5141 3.68741 13.646 3.62747 13.7801 3.57437C13.9151 3.52042 14.0531 3.4744 14.192 3.43338C14.2621 3.41348 14.333 3.39444 14.4041 3.37747C14.4751 3.36038 14.547 3.34549 14.619 3.33145C14.9051 3.27737 15.1961 3.24844 15.4896 3.24637C23.1208 3.18546 30.8747 3.18546 38.506 3.24637C38.8 3.24942 39.089 3.27737 39.372 3.33133C39.6549 3.38443 39.933 3.46341 40.205 3.57132C40.273 3.59732 40.341 3.62637 40.407 3.6564C40.474 3.68631 40.539 3.71841 40.6039 3.75137C40.7329 3.81741 40.8579 3.88931 40.9789 3.96841C41.2219 4.12442 41.4469 4.30533 41.657 4.51138C41.709 4.56241 41.7599 4.61539 41.809 4.66934C41.8579 4.72342 41.9059 4.77835 41.953 4.83438C42.0449 4.94632 42.132 5.06338 42.2119 5.18436C42.293 5.30533 42.367 5.43033 42.435 5.56033C42.47 5.62442 42.503 5.69034 42.534 5.75735C42.565 5.82437 42.595 5.89236 42.622 5.96036C42.732 6.23233 42.814 6.51334 42.87 6.8024C42.8839 6.87442 42.8949 6.94742 42.9059 7.02042C42.917 7.09341 42.9259 7.16739 42.9319 7.24136C42.9459 7.38931 42.953 7.53738 42.9527 7.6868Z" stroke="#FF00FF" stroke-width="0.283465" stroke-miterlimit="10" stroke-linecap="round" stroke-linejoin="round"/>
<path fill-rule="evenodd" clip-rule="evenodd" d="M35.8099 10.9204C35.8099 10.5283 35.4921 10.2104 35.0999 10.2104H33.0588C32.4734 10.2104 31.9988 10.685 31.9988 11.2704V16.5793C31.9988 16.9714 32.3167 17.2893 32.7088 17.2893C33.1009 17.2893 33.4188 16.9714 33.4188 16.5793V11.7704C33.4188 11.6931 33.4815 11.6304 33.5588 11.6304H35.0999C35.4921 11.6304 35.8099 11.3126 35.8099 10.9204Z" fill="black"/>
<path fill-rule="evenodd" clip-rule="evenodd" d="M38.2938 25.4516C38.5746 25.1779 39.0241 25.1836 39.2978 25.4644C39.6148 25.7895 40.0359 26.3423 40.302 26.7964C40.5004 27.1347 40.3869 27.5697 40.0486 27.768C39.7104 27.9663 39.2754 27.8528 39.077 27.5145C38.865 27.1529 38.5126 26.6931 38.281 26.4556C38.0073 26.1748 38.013 25.7253 38.2938 25.4516ZM36.4444 26.7789C36.7251 26.5052 37.1746 26.5109 37.4484 26.7917C37.7653 27.1169 38.1864 27.6697 38.4526 28.1237C38.6509 28.462 38.5374 28.897 38.1992 29.0953C37.8609 29.2936 37.4259 29.1802 37.2276 28.8419C37.0156 28.4803 36.6631 28.0204 36.4316 27.783C36.1579 27.5022 36.1636 27.0527 36.4444 26.7789ZM37.2699 36.5402C37.3771 36.5402 37.4806 36.5284 37.5796 36.5064C37.9625 36.4215 38.3416 36.663 38.4266 37.0458C38.5116 37.4286 38.2701 37.8078 37.8873 37.8927C37.6879 37.937 37.4812 37.9602 37.2699 37.9602H36.7995C36.4074 37.9602 36.0895 37.6423 36.0895 37.2502C36.0895 36.858 36.4074 36.5402 36.7995 36.5402H37.2699ZM35.0804 37.2502C35.0804 37.6423 34.7625 37.9602 34.3704 37.9602H33.4295C33.0374 37.9602 32.7195 37.6423 32.7195 37.2502C32.7195 36.858 33.0374 36.5402 33.4295 36.5402H34.3704C34.7625 36.5402 35.0804 36.858 35.0804 37.2502ZM31.7104 37.2502C31.7104 37.6423 31.3925 37.9602 31.0004 37.9602H30.5299C30.3187 37.9602 30.112 37.937 29.9126 37.8927C29.5298 37.8078 29.2883 37.4286 29.3733 37.0458C29.4582 36.663 29.8374 36.4215 30.2202 36.5064C30.3193 36.5284 30.4228 36.5402 30.5299 36.5402H31.0004C31.3925 36.5402 31.7104 36.858 31.7104 37.2502ZM39.1955 36.2768C38.8127 36.1919 38.5713 35.8127 38.6562 35.4299C38.6782 35.3308 38.6899 35.2273 38.6899 35.1202V34.6497C38.6899 34.2576 39.0078 33.9397 39.3999 33.9397C39.7921 33.9397 40.1099 34.2576 40.1099 34.6497V35.1202C40.1099 35.3314 40.0868 35.5381 40.0425 35.7375C39.9575 36.1203 39.5783 36.3618 39.1955 36.2768ZM28.6043 36.2768C28.2215 36.3618 27.8423 36.1203 27.7574 35.7375C27.7131 35.5381 27.6899 35.3314 27.6899 35.1202V34.6497C27.6899 34.2576 28.0078 33.9397 28.3999 33.9397C28.7921 33.9397 29.1099 34.2576 29.1099 34.6497V35.1202C29.1099 35.2273 29.1217 35.3308 29.1437 35.4299C29.2286 35.8127 28.9872 36.1919 28.6043 36.2768ZM28.3999 32.9306C28.0078 32.9306 27.6899 32.6127 27.6899 32.2206V31.2797C27.6899 30.8876 28.0078 30.5697 28.3999 30.5697C28.7921 30.5697 29.1099 30.8876 29.1099 31.2797V32.2206C29.1099 32.6127 28.7921 32.9306 28.3999 32.9306ZM39.3999 32.9306C39.0078 32.9306 38.6899 32.6127 38.6899 32.2206V31.2797C38.6899 30.8876 39.0078 30.5697 39.3999 30.5697C39.7921 30.5697 40.1099 30.8876 40.1099 31.2797V32.2206C40.1099 32.6127 39.7921 32.9306 39.3999 32.9306ZM28.3999 29.5606C28.0078 29.5606 27.6899 29.2427 27.6899 28.8506V28.3802C27.6899 28.1689 27.7131 27.9622 27.7574 27.7628C27.8423 27.38 28.2215 27.1385 28.6043 27.2235C28.9872 27.3085 29.2286 27.6877 29.1437 28.0705C29.1217 28.1695 29.1099 28.273 29.1099 28.3802V28.8506C29.1099 29.2427 28.7921 29.5606 28.3999 29.5606ZM29.3733 26.4546C29.2883 26.0718 29.5298 25.6926 29.9126 25.6076C30.112 25.5634 30.3187 25.5402 30.5299 25.5402H31.0004C31.3925 25.5402 31.7104 25.858 31.7104 26.2502C31.7104 26.6423 31.3925 26.9602 31.0004 26.9602H30.5299C30.4228 26.9602 30.3193 26.9719 30.2202 26.9939C29.8374 27.0788 29.4582 26.8374 29.3733 26.4546ZM35.0804 26.2502C35.0804 26.6423 34.7625 26.9602 34.3704 26.9602H33.4295C33.0374 26.9602 32.7195 26.6423 32.7195 26.2502C32.7195 25.858 33.0374 25.5402 33.4295 25.5402H34.3704C34.7625 25.5402 35.0804 25.858 35.0804 26.2502Z" fill="black"/>
<path d="M17.97 17.4889V16.0189C17.97 15.0789 17.66 14.9689 17.33 14.8689C17.04 14.7789 16.78 14.5989 16.78 14.1289C16.78 13.6189 17.08 13.4489 17.35 13.3689C17.65 13.2789 17.97 13.1589 17.97 12.2289V10.9989C17.97 9.40887 18.86 8.83887 20.14 8.83887C20.66 8.83887 21.1 8.92887 21.1 9.46887C21.1 9.82887 20.91 9.95887 20.51 10.0389C20.03 10.1389 19.52 10.1789 19.52 11.2489V12.6789C19.52 13.3589 19.28 13.7989 18.83 14.0089C18.72 14.0589 18.72 14.2089 18.83 14.2689C19.29 14.4989 19.53 14.9789 19.53 15.6589V17.2689C19.53 18.3489 20.04 18.3889 20.52 18.4789C20.92 18.5589 21.11 18.6889 21.11 19.0389C21.11 19.3689 20.85 19.6389 20.52 19.6589C19.04 19.7789 17.98 19.2289 17.98 17.4889H17.97Z" fill="black"/>
<path d="M17.6853 36.7049V27.8187C17.6853 27.1861 18.0574 26.8389 18.6961 26.8389H20.4386C20.8665 26.8389 21.1021 27.0807 21.1021 27.4528C21.1021 27.8187 20.8665 28.0605 20.4386 28.0605H19.388C19.3107 28.0605 19.248 28.1232 19.248 28.2005V36.3231C19.248 36.4004 19.3107 36.4631 19.388 36.4631H20.4386C20.8665 36.4631 21.1021 36.7049 21.1021 37.077C21.1021 37.4429 20.8665 37.6847 20.4386 37.6847H18.6961C18.0574 37.6847 17.6853 37.3375 17.6853 36.7049Z" fill="black"/>
</svg>
