<svg width="54" height="55" viewBox="0 0 54 55" fill="none" xmlns="http://www.w3.org/2000/svg">
<rect x="1.8501" y="2.79846" width="50.3" height="50.3" rx="3" stroke="#8B1EFF" stroke-width="0.28"/>
<path d="M44.1508 8.26501L44.1327 38.3289C44.1267 38.4928 44.1127 38.6558 44.0925 38.8176C44.0725 38.9796 44.0465 39.1417 44.0162 39.3032C43.9852 39.4641 43.9482 39.6232 43.9038 39.7823C43.8607 39.9404 43.8118 40.0974 43.7572 40.2528C43.6392 40.5768 43.4951 40.8918 43.3245 41.1921C43.1515 41.4971 42.9515 41.7861 42.7266 42.0553C42.4995 42.3253 42.2485 42.5743 41.9756 42.7964C41.7015 43.0183 41.4076 43.2144 41.0974 43.3785C40.8724 43.4955 40.6373 43.5985 40.3981 43.6838C40.2791 43.7258 40.1581 43.7628 40.0359 43.7966C39.9139 43.8307 39.7909 43.8607 39.6678 43.8854C39.5029 43.9203 39.3369 43.9463 39.1689 43.9633L39.1677 43.9629C31.0557 44.5299 22.9137 44.5288 14.8016 43.9614C14.1357 43.8875 13.4807 43.6735 12.8857 43.3523C12.2808 43.0272 11.7397 42.5903 11.2983 42.0695C10.8544 41.5446 10.5123 40.9325 10.2732 40.2882C10.1532 39.9673 10.0582 39.6362 9.99024 39.3005C9.92127 38.9666 9.87732 38.6256 9.8617 38.2856L9.84497 8.2655C9.85803 7.72351 9.95398 7.17957 10.1217 6.66162C10.2057 6.40271 10.3077 6.15063 10.426 5.90698C10.5439 5.66406 10.6801 5.42908 10.8309 5.20471C10.9819 4.98267 11.1489 4.77063 11.3319 4.57324C11.5139 4.37732 11.7098 4.19531 11.9191 4.02808C12.1271 3.86304 12.3481 3.71204 12.5769 3.57886C12.8069 3.44592 13.0459 3.32983 13.2918 3.23157C13.6038 3.10962 13.9287 3.0166 14.2578 2.95215C14.5878 2.88721 14.9227 2.8512 15.2581 2.84436C19.171 2.81335 23.084 2.79724 26.9973 2.79712C30.9103 2.79712 34.8232 2.81323 38.7365 2.8446C39.4144 2.85352 40.0955 2.9906 40.7295 3.24524C41.3785 3.50732 41.9766 3.89429 42.4756 4.38147C42.9895 4.88037 43.3986 5.48645 43.6824 6.14661C43.9703 6.8147 44.1304 7.53967 44.1504 8.2616" stroke="#8B1EFF" stroke-width="0.283" stroke-miterlimit="10"/>
<rect x="12.6792" y="6.45361" width="28.63" height="34.3" rx="1.42" stroke="#00FFFF" stroke-width="0.28"/>
<path d="M42.9527 8.63504C42.9477 13.5 42.9427 18.365 42.9386 23.23L42.9237 37.826C42.9237 38.1153 42.9027 38.4032 42.8617 38.6892C42.8518 38.7603 42.8397 38.8313 42.8268 38.9023C42.8147 38.9733 42.7998 39.0443 42.7838 39.1153C42.7517 39.2563 42.7147 39.3963 42.6728 39.5332C42.5878 39.8073 42.4818 40.0742 42.3507 40.3323C42.3168 40.3963 42.2827 40.4602 42.2467 40.5233C42.2118 40.5852 42.1748 40.6472 42.1367 40.7083C42.0598 40.8302 41.9778 40.9473 41.8908 41.0603C41.8028 41.1732 41.7097 41.2813 41.6098 41.3863C41.5618 41.4383 41.5098 41.4893 41.4578 41.5393C41.4048 41.5883 41.3518 41.6363 41.2968 41.6833C41.0788 41.8683 40.8448 42.0293 40.5938 42.1632C40.5308 42.1973 40.4668 42.2293 40.4018 42.2593C40.3368 42.2903 40.2708 42.3183 40.2038 42.3452C40.0708 42.3983 39.9368 42.4442 39.7998 42.4823C39.5268 42.5592 39.2467 42.6073 38.9608 42.6272C31.0301 43.1713 22.963 43.1713 15.0331 42.6272C14.7461 42.607 14.4662 42.559 14.1931 42.482C14.0562 42.444 13.9221 42.398 13.7892 42.345C13.7222 42.318 13.6562 42.289 13.5912 42.2591C13.5261 42.229 13.4632 42.1971 13.4002 42.163C13.1481 42.029 12.9142 41.8681 12.6962 41.682C12.6421 41.636 12.5891 41.588 12.5362 41.538C12.4842 41.489 12.4322 41.437 12.3832 41.386C12.2842 41.281 12.1912 41.173 12.1042 41.059C12.0161 40.9471 11.9341 40.829 11.8572 40.708C11.8191 40.647 11.7821 40.585 11.7471 40.522C11.7112 40.46 11.6762 40.396 11.6442 40.331C11.5132 40.074 11.4062 39.807 11.3222 39.533C11.2792 39.3951 11.2422 39.256 11.2112 39.115C11.1952 39.044 11.1802 38.9731 11.1671 38.902C11.1542 38.831 11.1421 38.76 11.1321 38.688C11.0912 38.403 11.0702 38.116 11.0698 37.8256C11.0618 28.0956 11.0518 18.3647 11.042 8.63467C11.041 8.33768 11.068 8.04568 11.1231 7.75772C11.15 7.61465 11.1841 7.47171 11.2251 7.33072C11.2461 7.25967 11.2681 7.18973 11.2931 7.11966C11.317 7.04971 11.343 6.98172 11.37 6.91373C11.4801 6.64163 11.6151 6.38467 11.776 6.14163C11.8161 6.08072 11.8581 6.02164 11.901 5.96268C11.9451 5.90372 11.9901 5.84561 12.0371 5.78873C12.13 5.67569 12.2271 5.56863 12.3311 5.46573C12.5371 5.26273 12.7621 5.08072 13.0081 4.92166C13.0691 4.88162 13.1321 4.84268 13.1941 4.80667C13.2581 4.76968 13.3211 4.73563 13.3861 4.70169C13.5141 4.63565 13.646 4.57571 13.7801 4.52261C13.9151 4.46866 14.0531 4.42264 14.192 4.38162C14.2621 4.36172 14.333 4.34268 14.4041 4.32571C14.4751 4.30862 14.547 4.29373 14.619 4.27969C14.9051 4.22562 15.1961 4.19669 15.4896 4.19461C23.1208 4.1337 30.8747 4.1337 38.506 4.19461C38.8 4.19766 39.089 4.22562 39.372 4.27957C39.6549 4.33267 39.933 4.41165 40.205 4.51956C40.273 4.54556 40.341 4.57462 40.407 4.60464C40.474 4.63455 40.539 4.66666 40.6039 4.69962C40.7329 4.76566 40.8579 4.83755 40.9789 4.91666C41.2219 5.07266 41.4469 5.25357 41.657 5.45963C41.709 5.51065 41.7599 5.56363 41.809 5.61758C41.8579 5.67166 41.9059 5.72659 41.953 5.78262C42.0449 5.89456 42.132 6.01163 42.2119 6.1326C42.293 6.25357 42.367 6.37857 42.435 6.50858C42.47 6.57266 42.503 6.63858 42.534 6.7056C42.565 6.77261 42.595 6.84061 42.622 6.9086C42.732 7.18057 42.814 7.46158 42.87 7.75064C42.8839 7.82266 42.8949 7.89566 42.9059 7.96866C42.917 8.04166 42.9259 8.11563 42.9319 8.18961C42.9459 8.33755 42.953 8.48563 42.9527 8.63504Z" stroke="#FF00FF" stroke-width="0.283465" stroke-miterlimit="10" stroke-linecap="round" stroke-linejoin="round"/>
<path fill-rule="evenodd" clip-rule="evenodd" d="M35.8099 11.8692C35.8099 11.4771 35.4921 11.1592 35.0999 11.1592H33.0588C32.4734 11.1592 31.9988 11.6338 31.9988 12.2192V17.5281C31.9988 17.9202 32.3167 18.2381 32.7088 18.2381C33.1009 18.2381 33.4188 17.9202 33.4188 17.5281V12.7192C33.4188 12.6419 33.4815 12.5792 33.5588 12.5792H35.0999C35.4921 12.5792 35.8099 12.2613 35.8099 11.8692Z" fill="black"/>
<path fill-rule="evenodd" clip-rule="evenodd" d="M38.2938 26.4002C38.5746 26.1265 39.0241 26.1322 39.2978 26.413C39.6148 26.7381 40.0359 27.291 40.302 27.745C40.5004 28.0833 40.3869 28.5183 40.0486 28.7166C39.7104 28.9149 39.2754 28.8014 39.077 28.4632C38.865 28.1015 38.5126 27.6417 38.281 27.4042C38.0073 27.1235 38.013 26.6739 38.2938 26.4002ZM36.4444 27.7276C36.7251 27.4538 37.1746 27.4596 37.4484 27.7403C37.7653 28.0655 38.1864 28.6183 38.4526 29.0723C38.6509 29.4106 38.5374 29.8456 38.1992 30.0439C37.8609 30.2422 37.4259 30.1288 37.2276 29.7905C37.0156 29.4289 36.6631 28.9691 36.4316 28.7316C36.1579 28.4508 36.1636 28.0013 36.4444 27.7276ZM37.2699 37.4888C37.3771 37.4888 37.4806 37.477 37.5796 37.4551C37.9625 37.3701 38.3416 37.6116 38.4266 37.9944C38.5116 38.3772 38.2701 38.7564 37.8873 38.8413C37.6879 38.8856 37.4812 38.9088 37.2699 38.9088H36.7995C36.4074 38.9088 36.0895 38.5909 36.0895 38.1988C36.0895 37.8066 36.4074 37.4888 36.7995 37.4888H37.2699ZM35.0804 38.1988C35.0804 38.5909 34.7625 38.9088 34.3704 38.9088H33.4295C33.0374 38.9088 32.7195 38.5909 32.7195 38.1988C32.7195 37.8066 33.0374 37.4888 33.4295 37.4888H34.3704C34.7625 37.4888 35.0804 37.8066 35.0804 38.1988ZM31.7104 38.1988C31.7104 38.5909 31.3925 38.9088 31.0004 38.9088H30.5299C30.3187 38.9088 30.112 38.8856 29.9126 38.8413C29.5298 38.7564 29.2883 38.3772 29.3733 37.9944C29.4582 37.6116 29.8374 37.3701 30.2202 37.4551C30.3193 37.477 30.4228 37.4888 30.5299 37.4888H31.0004C31.3925 37.4888 31.7104 37.8066 31.7104 38.1988ZM39.1955 37.2254C38.8127 37.1405 38.5713 36.7613 38.6562 36.3785C38.6782 36.2794 38.6899 36.1759 38.6899 36.0688V35.5983C38.6899 35.2062 39.0078 34.8883 39.3999 34.8883C39.7921 34.8883 40.1099 35.2062 40.1099 35.5983V36.0688C40.1099 36.28 40.0868 36.4867 40.0425 36.6861C39.9575 37.0689 39.5783 37.3104 39.1955 37.2254ZM28.6043 37.2254C28.2215 37.3104 27.8423 37.0689 27.7574 36.6861C27.7131 36.4867 27.6899 36.28 27.6899 36.0688V35.5983C27.6899 35.2062 28.0078 34.8883 28.3999 34.8883C28.7921 34.8883 29.1099 35.2062 29.1099 35.5983V36.0688C29.1099 36.1759 29.1217 36.2794 29.1437 36.3785C29.2286 36.7613 28.9872 37.1405 28.6043 37.2254ZM28.3999 33.8792C28.0078 33.8792 27.6899 33.5613 27.6899 33.1692V32.2283C27.6899 31.8362 28.0078 31.5183 28.3999 31.5183C28.7921 31.5183 29.1099 31.8362 29.1099 32.2283V33.1692C29.1099 33.5613 28.7921 33.8792 28.3999 33.8792ZM39.3999 33.8792C39.0078 33.8792 38.6899 33.5613 38.6899 33.1692V32.2283C38.6899 31.8362 39.0078 31.5183 39.3999 31.5183C39.7921 31.5183 40.1099 31.8362 40.1099 32.2283V33.1692C40.1099 33.5613 39.7921 33.8792 39.3999 33.8792ZM28.3999 30.5092C28.0078 30.5092 27.6899 30.1913 27.6899 29.7992V29.3288C27.6899 29.1175 27.7131 28.9108 27.7574 28.7114C27.8423 28.3286 28.2215 28.0872 28.6043 28.1721C28.9872 28.2571 29.2286 28.6363 29.1437 29.0191C29.1217 29.1181 29.1099 29.2217 29.1099 29.3288V29.7992C29.1099 30.1913 28.7921 30.5092 28.3999 30.5092ZM29.3733 27.4032C29.2883 27.0204 29.5298 26.6412 29.9126 26.5562C30.112 26.512 30.3187 26.4888 30.5299 26.4888H31.0004C31.3925 26.4888 31.7104 26.8066 31.7104 27.1988C31.7104 27.5909 31.3925 27.9088 31.0004 27.9088H30.5299C30.4228 27.9088 30.3193 27.9205 30.2202 27.9425C29.8374 28.0274 29.4582 27.786 29.3733 27.4032ZM35.0804 27.1988C35.0804 27.5909 34.7625 27.9088 34.3704 27.9088H33.4295C33.0374 27.9088 32.7195 27.5909 32.7195 27.1988C32.7195 26.8066 33.0374 26.4888 33.4295 26.4888H34.3704C34.7625 26.4888 35.0804 26.8066 35.0804 27.1988Z" fill="black"/>
<path d="M17.97 18.4375V16.9675C17.97 16.0275 17.66 15.9175 17.33 15.8175C17.04 15.7275 16.78 15.5475 16.78 15.0775C16.78 14.5675 17.08 14.3975 17.35 14.3175C17.65 14.2275 17.97 14.1075 17.97 13.1775V11.9475C17.97 10.3575 18.86 9.78748 20.14 9.78748C20.66 9.78748 21.1 9.87748 21.1 10.4175C21.1 10.7775 20.91 10.9075 20.51 10.9875C20.03 11.0875 19.52 11.1275 19.52 12.1975V13.6275C19.52 14.3075 19.28 14.7475 18.83 14.9575C18.72 15.0075 18.72 15.1575 18.83 15.2175C19.29 15.4475 19.53 15.9275 19.53 16.6075V18.2175C19.53 19.2975 20.04 19.3375 20.52 19.4275C20.92 19.5075 21.11 19.6375 21.11 19.9875C21.11 20.3175 20.85 20.5875 20.52 20.6075C19.04 20.7275 17.98 20.1775 17.98 18.4375H17.97Z" fill="black"/>
<path d="M17.6853 37.6535V28.7673C17.6853 28.1347 18.0574 27.7875 18.6961 27.7875H20.4386C20.8665 27.7875 21.1021 28.0293 21.1021 28.4014C21.1021 28.7673 20.8665 29.0091 20.4386 29.0091H19.388C19.3107 29.0091 19.248 29.0718 19.248 29.1491V37.2717C19.248 37.349 19.3107 37.4117 19.388 37.4117H20.4386C20.8665 37.4117 21.1021 37.6535 21.1021 38.0256C21.1021 38.3915 20.8665 38.6333 20.4386 38.6333H18.6961C18.0574 38.6333 17.6853 38.2861 17.6853 37.6535Z" fill="black"/>
</svg>
