<svg width="54" height="54" viewBox="0 0 54 54" fill="none" xmlns="http://www.w3.org/2000/svg">
<rect x="1.8501" y="1.85001" width="50.3" height="50.3" rx="3" stroke="#8B1EFF" stroke-width="0.28"/>
<path d="M44.1505 7.31647L44.1325 37.3803C44.1265 37.5443 44.1124 37.7072 44.0923 37.8691C44.0723 38.0311 44.0463 38.1932 44.016 38.3547C43.985 38.5156 43.948 38.6746 43.9036 38.8338C43.8605 38.9919 43.8115 39.1489 43.757 39.3043C43.6389 39.6282 43.4949 39.9433 43.3242 40.2436C43.1512 40.5485 42.9513 40.8376 42.7263 41.1068C42.4993 41.3768 42.2483 41.6258 41.9753 41.8478C41.7013 42.0698 41.4074 42.2658 41.0972 42.43C40.8722 42.5469 40.6371 42.65 40.3978 42.7353C40.2788 42.7773 40.1578 42.8143 40.0356 42.8481C39.9137 42.8821 39.7907 42.9122 39.6676 42.9368C39.5027 42.9717 39.3367 42.9977 39.1687 43.0147L39.1675 43.0143C31.0554 43.5814 22.9135 43.5803 14.8014 43.0129C14.1355 42.9389 13.4805 42.7249 12.8855 42.4037C12.2805 42.0787 11.7395 41.6418 11.2981 41.1209C10.8541 40.596 10.5121 39.9839 10.273 39.3397C10.153 39.0187 10.058 38.6877 9.98999 38.352C9.92102 38.018 9.87708 37.6771 9.86145 37.3371L9.84473 7.31696C9.85779 6.77496 9.95374 6.23102 10.1215 5.71307C10.2054 5.45416 10.3075 5.20209 10.4258 4.95844C10.5437 4.71552 10.6798 4.48053 10.8307 4.25616C10.9817 4.03412 11.1487 3.82208 11.3317 3.62469C11.5137 3.42877 11.7096 3.24677 11.9188 3.07953C12.1268 2.91449 12.3479 2.76349 12.5767 2.63031C12.8066 2.49738 13.0457 2.38129 13.2915 2.28302C13.6035 2.16107 13.9285 2.06805 14.2576 2.0036C14.5875 1.93866 14.9225 1.90265 15.2578 1.89581C19.1708 1.86481 23.0837 1.84869 26.9971 1.84857C30.91 1.84857 34.823 1.86469 38.7362 1.89606C39.4142 1.90497 40.0952 2.04205 40.7292 2.29669C41.3783 2.55878 41.9763 2.94574 42.4753 3.43292C42.9893 3.93182 43.3983 4.5379 43.6821 5.19806C43.9701 5.86615 44.1301 6.59113 44.1502 7.31305" stroke="#8B1EFF" stroke-width="0.283" stroke-miterlimit="10"/>
<rect x="12.6792" y="5.50507" width="28.63" height="34.3" rx="1.42" stroke="#00FFFF" stroke-width="0.28"/>
<path d="M42.9527 7.68658C42.9477 12.5516 42.9427 17.4166 42.9386 22.2816L42.9237 36.8775C42.9237 37.1668 42.9027 37.4548 42.8617 37.7408C42.8518 37.8118 42.8397 37.8829 42.8268 37.9538C42.8147 38.0248 42.7998 38.0959 42.7838 38.1668C42.7517 38.3078 42.7147 38.4478 42.6728 38.5848C42.5878 38.8588 42.4818 39.1258 42.3507 39.3839C42.3168 39.4478 42.2827 39.5118 42.2467 39.5749C42.2118 39.6368 42.1748 39.6988 42.1367 39.7598C42.0598 39.8818 41.9778 39.9988 41.8908 40.1119C41.8028 40.2248 41.7097 40.3328 41.6098 40.4378C41.5618 40.4898 41.5098 40.5408 41.4578 40.5909C41.4048 40.6398 41.3518 40.6878 41.2968 40.7348C41.0788 40.9199 40.8448 41.0809 40.5938 41.2148C40.5308 41.2488 40.4668 41.2808 40.4018 41.3109C40.3368 41.3419 40.2708 41.3698 40.2038 41.3968C40.0708 41.4499 39.9368 41.4958 39.7998 41.5339C39.5268 41.6108 39.2467 41.6589 38.9608 41.6788C31.0301 42.2228 22.963 42.2228 15.0331 41.6788C14.7461 41.6585 14.4662 41.6105 14.1931 41.5335C14.0562 41.4955 13.9221 41.4495 13.7892 41.3965C13.7222 41.3696 13.6562 41.3405 13.5912 41.3106C13.5261 41.2806 13.4632 41.2486 13.4002 41.2145C13.1481 41.0805 12.9142 40.9196 12.6962 40.7336C12.6421 40.6876 12.5891 40.6396 12.5362 40.5895C12.4842 40.5406 12.4322 40.4886 12.3832 40.4376C12.2842 40.3326 12.1912 40.2245 12.1042 40.1105C12.0161 39.9986 11.9341 39.8806 11.8572 39.7596C11.8191 39.6985 11.7821 39.6365 11.7471 39.5735C11.7112 39.5115 11.6762 39.4476 11.6442 39.3825C11.5132 39.1255 11.4062 38.8586 11.3222 38.5845C11.2792 38.4466 11.2422 38.3076 11.2112 38.1666C11.1952 38.0955 11.1802 38.0246 11.1671 37.9536C11.1542 37.8825 11.1421 37.8116 11.1321 37.7396C11.0912 37.4545 11.0702 37.1675 11.0698 36.8771C11.0618 27.1472 11.0518 17.4162 11.042 7.68622C11.041 7.38922 11.068 7.09723 11.1231 6.80927C11.15 6.6662 11.1841 6.52325 11.2251 6.38226C11.2461 6.31122 11.2681 6.24127 11.2931 6.1712C11.317 6.10126 11.343 6.03326 11.37 5.96527C11.4801 5.69318 11.6151 5.43622 11.776 5.19318C11.8161 5.13226 11.8581 5.07318 11.901 5.01422C11.9451 4.95526 11.9901 4.89716 12.0371 4.84027C12.13 4.72723 12.2271 4.62018 12.3311 4.51727C12.5371 4.31427 12.7621 4.13226 13.0081 3.97321C13.0691 3.93317 13.1321 3.89423 13.1941 3.85822C13.2581 3.82123 13.3211 3.78717 13.3861 3.75323C13.5141 3.68719 13.646 3.62726 13.7801 3.57416C13.9151 3.5202 14.0531 3.47418 14.192 3.43317C14.2621 3.41327 14.333 3.39423 14.4041 3.37726C14.4751 3.36017 14.547 3.34528 14.619 3.33124C14.9051 3.27716 15.1961 3.24823 15.4896 3.24615C23.1208 3.18524 30.8747 3.18524 38.506 3.24615C38.8 3.24921 39.089 3.27716 39.372 3.33112C39.6549 3.38422 39.933 3.4632 40.205 3.57111C40.273 3.59711 40.341 3.62616 40.407 3.65619C40.474 3.6861 40.539 3.7182 40.6039 3.75116C40.7329 3.8172 40.8579 3.8891 40.9789 3.9682C41.2219 4.12421 41.4469 4.30511 41.657 4.51117C41.709 4.56219 41.7599 4.61517 41.809 4.66913C41.8579 4.72321 41.9059 4.77814 41.953 4.83417C42.0449 4.94611 42.132 5.06317 42.2119 5.18414C42.293 5.30511 42.367 5.43011 42.435 5.56012C42.47 5.62421 42.503 5.69012 42.534 5.75714C42.565 5.82416 42.595 5.89215 42.622 5.96014C42.732 6.23212 42.814 6.51312 42.87 6.80219C42.8839 6.87421 42.8949 6.9472 42.9059 7.0202C42.917 7.0932 42.9259 7.16718 42.9319 7.24115C42.9459 7.3891 42.953 7.53717 42.9527 7.68658Z" stroke="#FF00FF" stroke-width="0.283465" stroke-miterlimit="10" stroke-linecap="round" stroke-linejoin="round"/>
<path d="M17.8471 18.7041H15.7378C15.3472 18.7041 15.1079 18.9482 15.1079 19.3584V25.1786C15.1079 25.5936 15.3472 25.8329 15.7378 25.8329C16.1284 25.8329 16.3677 25.5936 16.3677 25.1786V23.5626C16.3677 23.4843 16.4312 23.4209 16.5094 23.4209H17.7934C19.2192 23.4209 20.2201 22.4688 20.2201 21.0625C20.2201 19.6562 19.2484 18.7041 17.8471 18.7041ZM17.5102 22.4052H16.5094C16.4311 22.4052 16.3677 22.3417 16.3677 22.2635V19.8761C16.3677 19.7978 16.4312 19.7344 16.5094 19.7344H17.5151C18.4184 19.7344 18.9409 20.2178 18.9409 21.0625C18.9409 21.9072 18.4136 22.4052 17.5103 22.4052H17.5102Z" fill="black"/>
<path d="M30.0146 25.8673C28.2324 25.8673 27.1191 24.8028 27.1191 23.2647V19.2754C27.1191 18.8604 27.3584 18.6211 27.749 18.6211C28.1396 18.6211 28.3789 18.8604 28.3789 19.2754V23.1524C28.3789 24.1143 28.9697 24.7686 30.0147 24.7686C31.0597 24.7686 31.6553 24.1143 31.6553 23.1524V19.2754C31.6553 18.8604 31.8897 18.6211 32.2852 18.6211C32.6807 18.6211 32.9102 18.8604 32.9102 19.2754V23.2647C32.9102 24.8028 31.8018 25.8673 30.0147 25.8673H30.0146Z" fill="black"/>
<path d="M25.2005 20.4727C24.8539 20.4728 24.7236 20.6779 24.7236 20.6779L24.5743 20.8528C24.528 20.9071 24.4486 20.9183 24.3888 20.8793C24.1881 20.7488 23.695 20.4874 22.9644 20.4874C21.6317 20.4874 20.8115 21.4784 20.8115 23.0993C20.8115 24.7202 21.6415 25.6966 22.9401 25.6966C23.6166 25.6966 24.1102 25.4739 24.3719 25.3189C24.4662 25.263 24.5854 25.3315 24.5854 25.4411V25.5892C24.5854 26.2776 24.0924 26.7316 23.2672 26.7316C22.934 26.7316 22.3492 26.4799 22.2225 26.4227C22.0305 26.3361 21.5801 26.2162 21.4012 26.5191C21.2652 26.7495 21.3582 27.0807 21.6364 27.2467C21.9709 27.4462 22.6999 27.6955 23.2574 27.6983C24.8538 27.7081 25.8059 26.8878 25.8059 25.5843V21.0927C25.8059 20.6924 25.552 20.4727 25.2005 20.4727ZM23.3113 24.6861C22.5549 24.6861 22.0731 24.0909 22.0731 23.0988C22.0731 22.1067 22.5549 21.4926 23.3113 21.4926C24.0677 21.4926 24.5784 22.1256 24.5784 23.0988C24.5784 24.072 24.0774 24.6861 23.3113 24.6861Z" fill="black"/>
<path d="M36.7085 24.8364C35.9515 24.8364 35.4485 24.1771 35.4436 23.1613C35.4485 22.1553 35.9223 21.4862 36.7085 21.4862C37.4947 21.4862 37.9831 22.1406 37.9831 23.1613C37.9831 24.1869 37.4655 24.8364 36.7085 24.8364ZM39.2284 23.1612C39.2284 21.5056 38.3933 20.485 37.0795 20.485C36.5935 20.485 35.8234 20.729 35.5225 20.831C35.455 20.8539 35.3803 20.8242 35.3486 20.7602C35.3406 20.7439 35.3323 20.7277 35.3219 20.7129C35.2026 20.5424 35.0269 20.4704 34.8282 20.4704C34.4814 20.4704 34.2373 20.695 34.2373 21.0955V26.9512C34.2373 27.3615 34.4863 27.591 34.8429 27.591C35.1995 27.591 35.4534 27.3615 35.4534 26.9512V25.593C35.4534 25.4903 35.5593 25.4214 35.6529 25.4636C36.0148 25.6265 36.6175 25.8327 37.0992 25.8327C38.3982 25.8327 39.2285 24.812 39.2285 23.1613L39.2284 23.1612Z" fill="black"/>
</svg>
