<svg width="81" height="55" viewBox="0 0 81 55" fill="none" xmlns="http://www.w3.org/2000/svg">
<rect x="1.8501" y="2.79843" width="77.3" height="50.3" rx="3" stroke="#8B1EFF" stroke-width="0.28"/>
<path d="M15.062 43.8139C14.384 43.7569 13.712 43.5679 13.0946 43.2673C12.4726 42.9634 11.9076 42.5473 11.4435 42.0381C10.9785 41.5281 10.6165 40.926 10.3637 40.2807C10.1107 39.6388 9.96672 38.9558 9.9391 38.2704L9.9231 8.28941C9.9371 7.73839 10.0391 7.18541 10.2164 6.66173C10.3054 6.39867 10.4124 6.14476 10.5371 5.89915C10.6621 5.65318 10.8061 5.41722 10.9655 5.19188C11.1245 4.96886 11.3005 4.75682 11.4917 4.55943C11.6817 4.36339 11.8877 4.18236 12.1062 4.01707C12.3232 3.85301 12.5542 3.70506 12.7924 3.5742C13.0314 3.44322 13.2784 3.32921 13.5337 3.2346C13.8537 3.11559 14.1847 3.02757 14.5213 2.96556C14.8573 2.90355 15.1983 2.86864 15.5393 2.86253H15.537C32.181 2.77562 48.825 2.77562 65.4697 2.86217C65.7237 2.86717 65.9777 2.88719 66.2298 2.92296C66.4828 2.95897 66.7328 3.00902 66.9781 3.07579C67.1421 3.12071 67.3041 3.17174 67.4628 3.23045C67.9728 3.42052 68.4578 3.68443 68.8952 4.01378C69.3332 4.34483 69.7222 4.74083 70.0431 5.18553C70.3661 5.63451 70.6211 6.13158 70.7972 6.65636C70.9732 7.18333 71.0692 7.73741 71.0846 8.28929L71.0688 38.271C71.0398 38.956 70.8958 39.644 70.6448 40.2842C70.5178 40.6072 70.3638 40.9182 70.1828 41.2118C70.0008 41.5068 69.7918 41.7858 69.5592 42.0415C69.3262 42.2986 69.0692 42.5316 68.7924 42.7391C68.5154 42.9452 68.2204 43.1262 67.9107 43.2772C67.7557 43.3523 67.5987 43.4203 67.4375 43.4816C67.2775 43.5415 67.1135 43.5935 66.9485 43.6378C66.7835 43.6819 66.6165 43.7169 66.4476 43.7478C66.2806 43.7788 66.1116 43.8048 65.9412 43.8135C57.4672 44.1965 48.9852 44.3874 40.5027 44.3878C32.0207 44.3878 23.5397 44.1958 15.0657 43.8137" stroke="#8B1EFF" stroke-width="0.283" stroke-miterlimit="10"/>
<path d="M67.5541 41.76H13.5141C12.3392 41.7601 11.3872 40.8081 11.3872 39.634V7.15515C11.3871 5.98157 12.3391 5.02954 13.5141 5.02954H17.0571H64.0101H67.5542C68.7281 5.02954 69.6801 5.98157 69.6801 7.15552V39.634C69.6801 40.8081 68.7281 41.76 67.5541 41.76Z" stroke="#00FFFF" stroke-width="0.28" stroke-miterlimit="10"/>
<path d="M70.1071 37.7831C70.1062 38.0772 70.0842 38.3671 70.0402 38.6552C70.0182 38.7991 69.9901 38.9412 69.9561 39.0831C69.9391 39.1542 69.9212 39.2251 69.9001 39.2962C69.8801 39.3661 69.8592 39.4362 69.8361 39.5061C69.7432 39.7842 69.6272 40.0502 69.4871 40.3031C69.4171 40.4302 69.3411 40.5541 69.2581 40.6741C69.2172 40.7341 69.1742 40.7931 69.1291 40.8522C69.0842 40.9102 69.0381 40.9672 68.9901 41.0231C68.9422 41.0791 68.8942 41.1342 68.8432 41.1871C68.7931 41.2401 68.7411 41.2921 68.6891 41.3422C68.5832 41.4422 68.4731 41.5361 68.3581 41.6251C68.2421 41.7132 68.1222 41.7952 67.9972 41.8711C67.9351 41.9092 67.8701 41.9451 67.8061 41.9801C67.7411 42.0152 67.6761 42.0481 67.6102 42.0791C67.3472 42.2031 67.0731 42.2981 66.7891 42.3661C66.6482 42.4002 66.5031 42.4271 66.3581 42.4472C66.2142 42.4672 66.0672 42.4811 65.9212 42.4871C49.0275 43.2421 32.0076 43.2421 15.1126 42.4871C14.8211 42.4735 14.5321 42.4345 14.247 42.3665C14.1761 42.3495 14.1061 42.3306 14.0351 42.3106C13.9651 42.2896 13.8961 42.2675 13.8271 42.2435C13.6901 42.1956 13.5561 42.1405 13.4241 42.0795C13.2931 42.0175 13.1651 41.9495 13.0401 41.8736C12.9781 41.8355 12.9161 41.7955 12.8561 41.7545C12.7951 41.7125 12.7361 41.6705 12.6781 41.6255C12.4471 41.4485 12.2371 41.2495 12.0471 41.0275C12.0001 40.9716 11.9531 40.9155 11.9091 40.8576C11.8651 40.7996 11.8211 40.7395 11.7801 40.6796C11.6971 40.5585 11.6191 40.4345 11.5491 40.3075C11.4791 40.1806 11.4141 40.0506 11.3561 39.9165C11.3261 39.8495 11.2991 39.7825 11.2731 39.7145C11.2461 39.6455 11.2221 39.5766 11.1991 39.5076C11.1061 39.2285 11.0391 38.9456 10.9941 38.6575C10.9721 38.5136 10.9551 38.3685 10.9451 38.2225C10.9341 38.0766 10.9281 37.9306 10.9281 37.7835C10.9237 32.9331 10.9197 28.0822 10.9147 23.2311C10.9107 18.8212 10.9067 14.4102 10.9017 10.0001C10.9017 9.5591 10.9007 9.11708 10.9007 8.67506C10.8994 8.37025 10.9304 8.07033 10.9904 7.77626C11.0204 7.62831 11.0584 7.48232 11.1034 7.33827C11.1264 7.26625 11.1514 7.19423 11.1784 7.12331C11.2044 7.05226 11.2334 6.98232 11.2634 6.91322C11.3844 6.63722 11.5324 6.37733 11.7084 6.13222C11.7524 6.0713 11.7984 6.01125 11.8454 5.95229C11.8934 5.89333 11.9414 5.83522 11.9924 5.77931C12.0934 5.66725 12.1984 5.56032 12.3094 5.46022C12.4204 5.35927 12.5364 5.2643 12.6564 5.17531C12.7174 5.13026 12.7784 5.0873 12.8414 5.04628C12.9044 5.00429 12.9684 4.96425 13.0334 4.92531C13.2944 4.77028 13.5654 4.64333 13.8484 4.5403C13.9894 4.48927 14.1344 4.44423 14.2804 4.40529C14.4274 4.36732 14.5744 4.33522 14.7234 4.31032C15.0184 4.25832 15.3194 4.23232 15.6225 4.23122C32.1794 4.14528 48.8545 4.14528 65.411 4.23109C65.564 4.23207 65.715 4.23915 65.865 4.25209C66.016 4.26515 66.165 4.28407 66.313 4.31007C66.609 4.3611 66.899 4.43715 67.184 4.54018C67.255 4.56618 67.325 4.59315 67.395 4.62209C67.465 4.65114 67.533 4.68117 67.601 4.71315C67.7371 4.77711 67.867 4.84608 67.995 4.92213C68.251 5.07411 68.492 5.25014 68.717 5.45314C68.773 5.50417 68.828 5.55617 68.882 5.61012C68.936 5.66408 68.988 5.71913 69.038 5.77516C69.14 5.88808 69.235 6.00612 69.322 6.12709C69.498 6.37111 69.648 6.63112 69.769 6.90907C69.8 6.97914 69.828 7.05006 69.855 7.12013C69.882 7.19215 69.906 7.26308 69.929 7.3351C69.975 7.47816 70.0131 7.62416 70.0431 7.77113C70.0731 7.91908 70.096 8.06813 70.1121 8.21815C70.118 8.29408 70.124 8.37013 70.128 8.44618C70.132 8.52309 70.1341 8.59914 70.1338 8.67555L70.1197 23.2316C70.1157 27.6415 70.1117 32.0525 70.1077 36.4625C70.1067 36.9036 70.1067 37.3435 70.1058 37.7835" stroke="#FF00FF" stroke-width="0.283465" stroke-miterlimit="10" stroke-linecap="round" stroke-linejoin="round"/>
<path d="M66.4147 45.8675V50.9584H65.7982V46.5138H65.7684L64.5255 47.3391V46.7127L65.7982 45.8675H66.4147ZM68.0155 50.9982C67.8929 50.9982 67.7876 50.9543 67.6998 50.8665C67.612 50.7786 67.5681 50.6734 67.5681 50.5508C67.5681 50.4281 67.612 50.3229 67.6998 50.2351C67.7876 50.1472 67.8929 50.1033 68.0155 50.1033C68.1381 50.1033 68.2434 50.1472 68.3312 50.2351C68.419 50.3229 68.463 50.4281 68.463 50.5508C68.463 50.632 68.4422 50.7065 68.4008 50.7745C68.361 50.8424 68.3072 50.8971 68.2392 50.9385C68.1729 50.9783 68.0984 50.9982 68.0155 50.9982ZM70.9941 51.028C70.7025 51.028 70.4398 50.97 70.2061 50.854C69.9725 50.738 69.7852 50.5789 69.6443 50.3768C69.5035 50.1746 69.4264 49.9442 69.4132 49.6857H70.0097C70.0329 49.9161 70.1373 50.1066 70.323 50.2574C70.5102 50.4066 70.7339 50.4812 70.9941 50.4812C71.2029 50.4812 71.3885 50.4323 71.5509 50.3345C71.715 50.2367 71.8434 50.1025 71.9362 49.9318C72.0307 49.7595 72.0779 49.5647 72.0779 49.3476C72.0779 49.1256 72.029 48.9275 71.9313 48.7535C71.8351 48.5779 71.7026 48.4395 71.5335 48.3384C71.3645 48.2373 71.1714 48.1859 70.9543 48.1843C70.7986 48.1826 70.6386 48.2067 70.4746 48.2564C70.3105 48.3044 70.1755 48.3666 70.0694 48.4428L69.4927 48.3732L69.8009 45.8675H72.4458V46.4144H70.318L70.139 47.9158H70.1688C70.2732 47.833 70.4042 47.7642 70.5616 47.7095C70.719 47.6548 70.8831 47.6275 71.0538 47.6275C71.3653 47.6275 71.6429 47.702 71.8865 47.8512C72.1318 47.9987 72.324 48.2009 72.4632 48.4577C72.6041 48.7146 72.6745 49.0079 72.6745 49.3377C72.6745 49.6625 72.6016 49.9525 72.4558 50.2077C72.3116 50.4613 72.1127 50.6618 71.8592 50.8093C71.6056 50.9551 71.3173 51.028 70.9941 51.028ZM75.3225 51.028C74.948 51.028 74.629 50.9261 74.3655 50.7223C74.102 50.5168 73.9006 50.2193 73.7614 49.8299C73.6222 49.4388 73.5526 48.9665 73.5526 48.413C73.5526 47.8628 73.6222 47.393 73.7614 47.0035C73.9023 46.6124 74.1045 46.3141 74.368 46.1086C74.6331 45.9015 74.9513 45.7979 75.3225 45.7979C75.6937 45.7979 76.0111 45.9015 76.2746 46.1086C76.5397 46.3141 76.7419 46.6124 76.8811 47.0035C77.022 47.393 77.0924 47.8628 77.0924 48.413C77.0924 48.9665 77.0228 49.4388 76.8836 49.8299C76.7444 50.2193 76.543 50.5168 76.2795 50.7223C76.016 50.9261 75.697 51.028 75.3225 51.028ZM75.3225 50.4812C75.6937 50.4812 75.9821 50.3022 76.1876 49.9442C76.3931 49.5863 76.4958 49.0759 76.4958 48.413C76.4958 47.9722 76.4486 47.5968 76.3541 47.2869C76.2613 46.977 76.1271 46.7409 75.9514 46.5785C75.7774 46.4161 75.5678 46.3349 75.3225 46.3349C74.9546 46.3349 74.6671 46.5163 74.4599 46.8792C74.2528 47.2405 74.1492 47.7518 74.1492 48.413C74.1492 48.8538 74.1956 49.2283 74.2884 49.5366C74.3812 49.8448 74.5146 50.0793 74.6886 50.24C74.8643 50.4008 75.0756 50.4812 75.3225 50.4812Z" fill="#0000FF"/>
<path d="M67.1017 31.6637H66.3741C66.285 31.6637 66.218 31.5825 66.235 31.495L66.781 28.6803C66.7996 28.5749 66.812 28.4757 66.812 28.3765C66.812 27.9672 66.5144 27.7005 66.0865 27.7005C65.7144 27.7005 65.423 27.9424 65.3672 28.3144L64.8529 31.5443C64.842 31.6131 64.7826 31.6637 64.713 31.6637H63.665C63.5995 31.6637 63.5424 31.6187 63.5272 31.5549L62.7627 28.3579C62.6697 27.9362 62.4216 27.7005 61.9999 27.7005C61.5721 27.7005 61.324 27.9486 61.2248 28.3765L60.4605 31.5551C60.4452 31.6188 60.3882 31.6637 60.3227 31.6637H59.2807C59.211 31.6637 59.1517 31.6131 59.1407 31.5443L58.6265 28.3144C58.5707 27.9486 58.2792 27.7005 57.9072 27.7005C57.4793 27.7005 57.1816 27.9672 57.1816 28.3765C57.1816 28.4757 57.194 28.5749 57.2126 28.6803L57.7587 31.495C57.7757 31.5825 57.7087 31.6637 57.6196 31.6637H56.8919C56.6551 31.6637 56.4435 31.8369 56.4211 32.0727C56.3953 32.3432 56.6073 32.5707 56.8725 32.5707H57.8519C57.9198 32.5707 57.9781 32.6189 57.991 32.6856L58.5955 35.8116C58.6947 36.3263 59.0792 36.624 59.5691 36.624C60.0466 36.624 60.4186 36.3325 60.5241 35.8302L61.28 32.6794C61.2953 32.6157 61.3523 32.5707 61.4179 32.5707H62.5758C62.6414 32.5707 62.6983 32.6157 62.7136 32.6794L63.4696 35.8302C63.575 36.3325 63.9471 36.624 64.4246 36.624C64.9145 36.624 65.299 36.3263 65.3982 35.8116L66.0027 32.6856C66.0155 32.6189 66.0739 32.5707 66.1418 32.5707H67.1211C67.3863 32.5707 67.5983 32.3432 67.5725 32.0727C67.5501 31.8369 67.3386 31.6637 67.1017 31.6637ZM61.859 30.269C61.8936 30.1239 62.1 30.1239 62.1347 30.269L62.4263 31.489C62.4476 31.5781 62.38 31.6637 62.2884 31.6637H61.7052C61.6136 31.6637 61.5461 31.5781 61.5674 31.489L61.859 30.269ZM59.8355 34.1865C59.7995 34.3375 59.5819 34.3291 59.5577 34.1757L59.3297 32.7346C59.3161 32.6486 59.3826 32.5707 59.4697 32.5707H60.0415C60.1331 32.5707 60.2007 32.6563 60.1794 32.7454L59.8355 34.1865ZM64.436 34.1757C64.4117 34.3291 64.1942 34.3375 64.1581 34.1865L63.8143 32.7454C63.793 32.6563 63.8605 32.5707 63.9521 32.5707H64.5239C64.6111 32.5707 64.6775 32.6486 64.6639 32.7346L64.436 34.1757Z" fill="black"/>
<path d="M18.262 19.8767V10.5439C18.262 9.99199 18.5844 9.72534 18.9999 9.72534C19.4154 9.72534 19.7378 9.99199 19.7378 10.5439V19.8767C19.7378 20.4286 19.4154 20.6952 18.9999 20.6952C18.5844 20.6952 18.262 20.4286 18.262 19.8767Z" fill="black"/>
<path d="M19.6574 38.1743L16.9785 28.6803C16.9599 28.6245 16.9413 28.5253 16.9413 28.4323C16.9289 28.0478 17.2451 27.7253 17.6482 27.7253C17.9831 27.7253 18.2559 27.9238 18.3489 28.2462L21.0216 37.7464C21.0402 37.796 21.0588 37.9015 21.065 37.9883C21.0713 38.3728 20.7612 38.6952 20.3519 38.6952C20.0171 38.6952 19.7442 38.4968 19.6574 38.1743Z" fill="black"/>
</svg>
