<svg width="81" height="55" viewBox="0 0 81 55" fill="none" xmlns="http://www.w3.org/2000/svg">
<rect x="1.8501" y="2.79846" width="77.3" height="50.3" rx="3" stroke="#8B1EFF" stroke-width="0.28"/>
<path d="M15.062 43.814C14.384 43.757 13.712 43.5679 13.0946 43.2674C12.4726 42.9634 11.9076 42.5474 11.4435 42.0381C10.9785 41.5281 10.6165 40.9261 10.3637 40.2808C10.1107 39.6388 9.96672 38.9559 9.9391 38.2704L9.9231 8.28947C9.9371 7.73845 10.0391 7.18547 10.2164 6.66179C10.3054 6.39873 10.4124 6.14482 10.5371 5.89922C10.6621 5.65324 10.8061 5.41728 10.9655 5.19194C11.1245 4.96892 11.3005 4.75688 11.4917 4.55949C11.6817 4.36345 11.8877 4.18242 12.1062 4.01714C12.3232 3.85307 12.5542 3.70512 12.7924 3.57426C13.0314 3.44328 13.2784 3.32927 13.5337 3.23467C13.8537 3.11565 14.1847 3.02763 14.5213 2.96562C14.8573 2.90361 15.1983 2.8687 15.5393 2.86259H15.537C32.181 2.77568 48.825 2.77568 65.4697 2.86223C65.7237 2.86723 65.9777 2.88725 66.2298 2.92302C66.4828 2.95903 66.7328 3.00908 66.9781 3.07585C67.1421 3.12077 67.3041 3.1718 67.4628 3.23051C67.9728 3.42058 68.4578 3.68449 68.8952 4.01384C69.3332 4.34489 69.7222 4.74089 70.0431 5.18559C70.3661 5.63457 70.6211 6.13164 70.7972 6.65642C70.9732 7.1834 71.0692 7.73747 71.0846 8.28935L71.0688 38.271C71.0398 38.9561 70.8958 39.6441 70.6448 40.2842C70.5178 40.6072 70.3638 40.9183 70.1828 41.2118C70.0008 41.5069 69.7918 41.7858 69.5592 42.0415C69.3262 42.2986 69.0692 42.5317 68.7924 42.7392C68.5154 42.9452 68.2204 43.1263 67.9107 43.2773C67.7557 43.3523 67.5987 43.4203 67.4375 43.4816C67.2775 43.5415 67.1135 43.5936 66.9485 43.6379C66.7835 43.6819 66.6165 43.717 66.4476 43.7478C66.2806 43.7789 66.1116 43.8049 65.9412 43.8135C57.4672 44.1966 48.9852 44.3875 40.5027 44.3879C32.0207 44.3879 23.5397 44.1958 15.0657 43.8138" stroke="#8B1EFF" stroke-width="0.283" stroke-miterlimit="10"/>
<path d="M67.5541 41.76H13.5141C12.3392 41.7601 11.3872 40.8081 11.3872 39.634V7.15515C11.3871 5.98157 12.3391 5.02954 13.5141 5.02954H17.0571H64.0101H67.5542C68.7281 5.02954 69.6801 5.98157 69.6801 7.15552V39.634C69.6801 40.8081 68.7281 41.76 67.5541 41.76Z" stroke="#00FFFF" stroke-width="0.28" stroke-miterlimit="10"/>
<path d="M70.1071 37.7831C70.1062 38.0772 70.0842 38.3671 70.0402 38.6552C70.0182 38.7991 69.9901 38.9412 69.9561 39.0831C69.9391 39.1542 69.9212 39.2251 69.9001 39.2962C69.8801 39.3661 69.8592 39.4362 69.8361 39.5061C69.7432 39.7842 69.6272 40.0502 69.4871 40.3031C69.4171 40.4302 69.3411 40.5541 69.2581 40.6741C69.2172 40.7341 69.1742 40.7931 69.1291 40.8522C69.0842 40.9102 69.0381 40.9672 68.9901 41.0231C68.9422 41.0791 68.8942 41.1342 68.8432 41.1871C68.7931 41.2401 68.7411 41.2921 68.6891 41.3422C68.5832 41.4422 68.4731 41.5361 68.3581 41.6251C68.2421 41.7132 68.1222 41.7952 67.9972 41.8711C67.9351 41.9092 67.8701 41.9451 67.8061 41.9801C67.7411 42.0152 67.6761 42.0481 67.6102 42.0791C67.3472 42.2031 67.0731 42.2981 66.7891 42.3661C66.6482 42.4002 66.5031 42.4271 66.3581 42.4472C66.2142 42.4672 66.0672 42.4811 65.9212 42.4871C49.0275 43.2421 32.0076 43.2421 15.1126 42.4871C14.8211 42.4735 14.5321 42.4345 14.247 42.3665C14.1761 42.3495 14.1061 42.3306 14.0351 42.3106C13.9651 42.2896 13.8961 42.2675 13.8271 42.2435C13.6901 42.1956 13.5561 42.1405 13.4241 42.0795C13.2931 42.0175 13.1651 41.9495 13.0401 41.8736C12.9781 41.8355 12.9161 41.7955 12.8561 41.7545C12.7951 41.7125 12.7361 41.6705 12.6781 41.6255C12.4471 41.4485 12.2371 41.2495 12.0471 41.0275C12.0001 40.9716 11.9531 40.9155 11.9091 40.8576C11.8651 40.7996 11.8211 40.7395 11.7801 40.6796C11.6971 40.5585 11.6191 40.4345 11.5491 40.3075C11.4791 40.1806 11.4141 40.0506 11.3561 39.9165C11.3261 39.8495 11.2991 39.7825 11.2731 39.7145C11.2461 39.6455 11.2221 39.5766 11.1991 39.5076C11.1061 39.2285 11.0391 38.9456 10.9941 38.6575C10.9721 38.5136 10.9551 38.3685 10.9451 38.2225C10.9341 38.0766 10.9281 37.9306 10.9281 37.7835C10.9237 32.9331 10.9197 28.0822 10.9147 23.2311C10.9107 18.8212 10.9067 14.4102 10.9017 10.0001C10.9017 9.5591 10.9007 9.11708 10.9007 8.67506C10.8994 8.37025 10.9304 8.07033 10.9904 7.77626C11.0204 7.62831 11.0584 7.48232 11.1034 7.33827C11.1264 7.26625 11.1514 7.19423 11.1784 7.12331C11.2044 7.05226 11.2334 6.98232 11.2634 6.91322C11.3844 6.63722 11.5324 6.37733 11.7084 6.13222C11.7524 6.0713 11.7984 6.01125 11.8454 5.95229C11.8934 5.89333 11.9414 5.83522 11.9924 5.77931C12.0934 5.66725 12.1984 5.56032 12.3094 5.46022C12.4204 5.35927 12.5364 5.2643 12.6564 5.17531C12.7174 5.13026 12.7784 5.0873 12.8414 5.04628C12.9044 5.00429 12.9684 4.96425 13.0334 4.92531C13.2944 4.77028 13.5654 4.64333 13.8484 4.5403C13.9894 4.48927 14.1344 4.44423 14.2804 4.40529C14.4274 4.36732 14.5744 4.33522 14.7234 4.31032C15.0184 4.25832 15.3194 4.23232 15.6225 4.23122C32.1794 4.14528 48.8545 4.14528 65.411 4.23109C65.564 4.23207 65.715 4.23915 65.865 4.25209C66.016 4.26515 66.165 4.28407 66.313 4.31007C66.609 4.3611 66.899 4.43715 67.184 4.54018C67.255 4.56618 67.325 4.59315 67.395 4.62209C67.465 4.65114 67.533 4.68117 67.601 4.71315C67.7371 4.77711 67.867 4.84608 67.995 4.92213C68.251 5.07411 68.492 5.25014 68.717 5.45314C68.773 5.50417 68.828 5.55617 68.882 5.61012C68.936 5.66408 68.988 5.71913 69.038 5.77516C69.14 5.88808 69.235 6.00612 69.322 6.12709C69.498 6.37111 69.648 6.63112 69.769 6.90907C69.8 6.97914 69.828 7.05006 69.855 7.12013C69.882 7.19215 69.906 7.26308 69.929 7.3351C69.975 7.47816 70.0131 7.62416 70.0431 7.77113C70.0731 7.91908 70.096 8.06813 70.1121 8.21815C70.118 8.29408 70.124 8.37013 70.128 8.44618C70.132 8.52309 70.1341 8.59914 70.1338 8.67555L70.1197 23.2316C70.1157 27.6415 70.1117 32.0525 70.1077 36.4625C70.1067 36.9036 70.1067 37.3435 70.1058 37.7835" stroke="#FF00FF" stroke-width="0.283465" stroke-miterlimit="10" stroke-linecap="round" stroke-linejoin="round"/>
<path d="M66.4147 45.8676V50.9585H65.7982V46.5139H65.7684L64.5255 47.3392V46.7128L65.7982 45.8676H66.4147ZM68.0155 50.9983C67.8929 50.9983 67.7876 50.9544 67.6998 50.8665C67.612 50.7787 67.5681 50.6735 67.5681 50.5508C67.5681 50.4282 67.612 50.323 67.6998 50.2351C67.7876 50.1473 67.8929 50.1034 68.0155 50.1034C68.1381 50.1034 68.2434 50.1473 68.3312 50.2351C68.419 50.323 68.463 50.4282 68.463 50.5508C68.463 50.632 68.4422 50.7066 68.4008 50.7745C68.361 50.8425 68.3072 50.8972 68.2392 50.9386C68.1729 50.9784 68.0984 50.9983 68.0155 50.9983ZM70.9941 51.0281C70.7025 51.0281 70.4398 50.9701 70.2061 50.8541C69.9725 50.7381 69.7852 50.579 69.6443 50.3768C69.5035 50.1746 69.4264 49.9443 69.4132 49.6858H70.0097C70.0329 49.9161 70.1373 50.1067 70.323 50.2575C70.5102 50.4066 70.7339 50.4812 70.9941 50.4812C71.2029 50.4812 71.3885 50.4323 71.5509 50.3346C71.715 50.2368 71.8434 50.1026 71.9362 49.9319C72.0307 49.7595 72.0779 49.5648 72.0779 49.3477C72.0779 49.1256 72.029 48.9276 71.9313 48.7536C71.8351 48.5779 71.7026 48.4396 71.5335 48.3385C71.3645 48.2374 71.1714 48.186 70.9543 48.1843C70.7986 48.1827 70.6386 48.2067 70.4746 48.2564C70.3105 48.3045 70.1755 48.3666 70.0694 48.4429L69.4927 48.3733L69.8009 45.8676H72.4458V46.4145H70.318L70.139 47.9159H70.1688C70.2732 47.833 70.4042 47.7642 70.5616 47.7096C70.719 47.6549 70.8831 47.6275 71.0538 47.6275C71.3653 47.6275 71.6429 47.7021 71.8865 47.8513C72.1318 47.9987 72.324 48.2009 72.4632 48.4578C72.6041 48.7147 72.6745 49.008 72.6745 49.3378C72.6745 49.6626 72.6016 49.9526 72.4558 50.2078C72.3116 50.4613 72.1127 50.6619 71.8592 50.8093C71.6056 50.9552 71.3173 51.0281 70.9941 51.0281ZM75.3225 51.0281C74.948 51.0281 74.629 50.9262 74.3655 50.7223C74.102 50.5169 73.9006 50.2194 73.7614 49.8299C73.6222 49.4388 73.5526 48.9665 73.5526 48.413C73.5526 47.8629 73.6222 47.393 73.7614 47.0036C73.9023 46.6125 74.1045 46.3142 74.368 46.1087C74.6331 45.9016 74.9513 45.798 75.3225 45.798C75.6937 45.798 76.0111 45.9016 76.2746 46.1087C76.5397 46.3142 76.7419 46.6125 76.8811 47.0036C77.022 47.393 77.0924 47.8629 77.0924 48.413C77.0924 48.9665 77.0228 49.4388 76.8836 49.8299C76.7444 50.2194 76.543 50.5169 76.2795 50.7223C76.016 50.9262 75.697 51.0281 75.3225 51.0281ZM75.3225 50.4812C75.6937 50.4812 75.9821 50.3022 76.1876 49.9443C76.3931 49.5863 76.4958 49.0759 76.4958 48.413C76.4958 47.9722 76.4486 47.5969 76.3541 47.287C76.2613 46.9771 76.1271 46.7409 75.9514 46.5785C75.7774 46.4161 75.5678 46.3349 75.3225 46.3349C74.9546 46.3349 74.6671 46.5164 74.4599 46.8793C74.2528 47.2406 74.1492 47.7518 74.1492 48.413C74.1492 48.8539 74.1956 49.2284 74.2884 49.5366C74.3812 49.8449 74.5146 50.0794 74.6886 50.2401C74.8643 50.4008 75.0756 50.4812 75.3225 50.4812Z" fill="#0000FF"/>
<path d="M18.262 19.8767V10.5439C18.262 9.99199 18.5844 9.72534 18.9999 9.72534C19.4154 9.72534 19.7378 9.99199 19.7378 10.5439V19.8767C19.7378 20.4286 19.4154 20.6952 18.9999 20.6952C18.5844 20.6952 18.262 20.4286 18.262 19.8767Z" fill="black"/>
<path d="M19.6574 38.1743L16.9785 28.6803C16.9599 28.6245 16.9413 28.5253 16.9413 28.4323C16.9289 28.0478 17.2451 27.7253 17.6482 27.7253C17.9831 27.7253 18.2559 27.9238 18.3489 28.2462L21.0216 37.7464C21.0402 37.796 21.0588 37.9015 21.065 37.9883C21.0713 38.3728 20.7612 38.6952 20.3519 38.6952C20.0171 38.6952 19.7442 38.4968 19.6574 38.1743Z" fill="black"/>
<path fill-rule="evenodd" clip-rule="evenodd" d="M60.4552 27.8039C60.4768 27.4124 60.1769 27.0775 59.7854 27.0559C59.3939 27.0343 59.059 27.3342 59.0374 27.7257C59.0217 28.0098 59.0093 28.2776 58.9997 28.5342C58.997 28.6069 58.9392 28.6656 58.8665 28.6691C58.2053 28.7009 57.6016 28.72 57.1265 28.72C56.7344 28.72 56.4165 29.0378 56.4165 29.43C56.4165 29.8221 56.7344 30.14 57.1265 30.14C57.6003 30.14 58.1884 30.1222 58.829 30.0924C58.9086 30.0887 58.9754 30.1519 58.9762 30.2315C58.9782 30.426 58.9817 30.6211 58.9866 30.8199C58.9887 30.9082 58.9096 30.9763 58.8216 30.969C57.6446 30.8712 56.6615 31.8556 56.3838 32.9854C56.0814 34.2153 56.5994 35.68 57.9137 36.0031C57.9374 36.009 57.961 36.0143 57.9845 36.0193C58.0561 36.0342 58.1079 36.0981 58.1077 36.1712C58.1071 36.3754 58.1367 36.5902 58.2071 36.813C58.4389 37.5462 59.1282 37.9153 59.7314 38.0998C60.3687 38.2947 61.1322 38.3566 61.8698 38.3302C62.6124 38.3037 63.3759 38.1858 64.026 37.9893C64.6353 37.8052 65.2943 37.5086 65.6566 37.0241C66.1577 36.3539 66.1662 35.6047 66.0463 34.9978C65.9456 34.4886 65.736 33.9967 65.5904 33.6552L65.5904 33.6552C65.5683 33.6033 65.5476 33.5548 65.5291 33.5103C65.3781 33.1484 64.9624 32.9774 64.6005 33.1284C64.2386 33.2793 64.0676 33.695 64.2185 34.0569C64.2425 34.1145 64.2667 34.1718 64.2909 34.2288C64.4392 34.5795 64.5836 34.921 64.6532 35.2731C64.7301 35.6622 64.6896 35.9461 64.5194 36.1737C64.4462 36.2716 64.1737 36.4612 63.6152 36.63C63.0975 36.7865 62.4568 36.8883 61.819 36.9112C61.1762 36.9342 60.5828 36.8752 60.1467 36.7419C59.6766 36.5981 59.5759 36.4317 59.5611 36.3849C59.4635 36.0763 59.6051 35.737 59.8603 35.4466C59.8692 35.4364 59.8777 35.4261 59.886 35.4156C60.2631 35.0485 60.5405 34.559 60.6684 34.0388C60.8278 33.3902 60.7592 32.6763 60.4659 32.099C60.4565 32.0806 60.451 32.0604 60.4501 32.0397C60.4201 31.3339 60.4001 30.7314 60.3954 30.135C60.3948 30.061 60.4521 29.9996 60.5259 29.9946C61.2251 29.9476 61.9245 29.893 62.5585 29.8369C62.9491 29.8023 63.2377 29.4576 63.2031 29.067C63.1686 28.6764 62.8239 28.3878 62.4333 28.4224C61.8485 28.4741 61.2116 28.5242 60.5741 28.5681C60.4912 28.5738 60.4217 28.5063 60.4251 28.4233C60.4334 28.225 60.4434 28.0194 60.4552 27.8039ZM58.7995 32.4C58.509 32.3286 57.9496 32.5643 57.7627 33.3244C57.5759 34.0845 57.9622 34.5528 58.2527 34.6242C58.5432 34.6956 59.1026 34.4599 59.2895 33.6998C59.4763 32.9397 59.09 32.4714 58.7995 32.4ZM65.2812 28.6866C64.984 28.4307 64.5357 28.4642 64.2799 28.7613C64.024 29.0585 64.0575 29.5068 64.3546 29.7626C65.2632 30.545 65.5778 30.907 66.1576 31.7827C66.3741 32.1096 66.8147 32.1992 67.1416 31.9827C67.4686 31.7662 67.5581 31.3256 67.3416 30.9987C66.6853 30.0076 66.2822 29.5486 65.2812 28.6866Z" fill="black"/>
</svg>
