<svg width="81" height="54" viewBox="0 0 81 54" fill="none" xmlns="http://www.w3.org/2000/svg">
<rect x="1.8501" y="1.84961" width="77.3" height="50.3" rx="3" stroke="#8B1EFF" stroke-width="0.28"/>
<path d="M15.062 42.8653C14.384 42.8083 13.712 42.6192 13.0946 42.3186C12.4726 42.0147 11.9076 41.5987 11.4435 41.0894C10.9785 40.5794 10.6165 39.9773 10.3637 39.3321C10.1107 38.6901 9.96672 38.0071 9.9391 37.3217L9.9231 7.34074C9.9371 6.78972 10.0391 6.23674 10.2164 5.71306C10.3054 5.45 10.4124 5.19609 10.5371 4.95049C10.6621 4.70451 10.8061 4.46855 10.9655 4.24321C11.1245 4.02019 11.3005 3.80815 11.4917 3.61076C11.6817 3.41472 11.8877 3.23369 12.1062 3.06841C12.3232 2.90434 12.5542 2.75639 12.7924 2.62553C13.0314 2.49455 13.2784 2.38054 13.5337 2.28593C13.8537 2.16692 14.1847 2.0789 14.5213 2.01689C14.8573 1.95488 15.1983 1.91997 15.5393 1.91386H15.537C32.181 1.82695 48.825 1.82695 65.4697 1.9135C65.7237 1.9185 65.9777 1.93852 66.2298 1.97429C66.4828 2.0103 66.7328 2.06035 66.9781 2.12712C67.1421 2.17204 67.3041 2.22307 67.4628 2.28178C67.9728 2.47185 68.4578 2.73576 68.8952 3.06511C69.3332 3.39616 69.7222 3.79216 70.0431 4.23686C70.3661 4.68584 70.6211 5.18291 70.7972 5.70769C70.9732 6.23466 71.0692 6.78874 71.0846 7.34062L71.0688 37.3223C71.0398 38.0074 70.8958 38.6954 70.6448 39.3355C70.5178 39.6585 70.3638 39.9695 70.1828 40.2631C70.0008 40.5582 69.7918 40.8371 69.5592 41.0928C69.3262 41.3499 69.0692 41.5829 68.7924 41.7905C68.5154 41.9965 68.2204 42.1775 67.9107 42.3285C67.7557 42.4036 67.5987 42.4716 67.4375 42.5329C67.2775 42.5928 67.1135 42.6448 66.9485 42.6891C66.7835 42.7332 66.6165 42.7682 66.4476 42.7991C66.2806 42.8301 66.1116 42.8561 65.9412 42.8648C57.4672 43.2478 48.9852 43.4388 40.5027 43.4391C32.0207 43.4391 23.5397 43.2471 15.0657 42.865" stroke="#8B1EFF" stroke-width="0.283" stroke-miterlimit="10"/>
<path d="M67.5541 40.8115H13.5141C12.3392 40.8116 11.3872 39.8596 11.3872 38.6855V6.20667C11.3871 5.03308 12.3391 4.08105 13.5141 4.08105H17.0571H64.0101H67.5542C68.7281 4.08105 69.6801 5.03308 69.6801 6.20703V38.6855C69.6801 39.8596 68.7281 40.8115 67.5541 40.8115Z" stroke="#00FFFF" stroke-width="0.28" stroke-miterlimit="10"/>
<path d="M70.1071 36.8351C70.1062 37.1292 70.0842 37.4191 70.0402 37.7072C70.0182 37.8511 69.9901 37.9932 69.9561 38.1351C69.9391 38.2062 69.9212 38.2771 69.9001 38.3482C69.8801 38.4181 69.8592 38.4882 69.8361 38.5581C69.7432 38.8362 69.6272 39.1022 69.4871 39.3551C69.4171 39.4822 69.3411 39.6061 69.2581 39.7261C69.2172 39.7861 69.1742 39.8451 69.1291 39.9042C69.0842 39.9622 69.0381 40.0192 68.9901 40.0751C68.9422 40.1311 68.8942 40.1862 68.8432 40.2392C68.7931 40.2921 68.7411 40.3441 68.6891 40.3942C68.5832 40.4942 68.4731 40.5881 68.3581 40.6771C68.2421 40.7652 68.1222 40.8472 67.9972 40.9231C67.9351 40.9612 67.8701 40.9971 67.8061 41.0321C67.7411 41.0672 67.6761 41.1001 67.6102 41.1311C67.3472 41.2551 67.0731 41.3501 66.7891 41.4181C66.6482 41.4522 66.5031 41.4791 66.3581 41.4992C66.2142 41.5192 66.0672 41.5331 65.9212 41.5391C49.0275 42.2941 32.0076 42.2941 15.1126 41.5391C14.8211 41.5255 14.5321 41.4865 14.247 41.4185C14.1761 41.4015 14.1061 41.3826 14.0351 41.3626C13.9651 41.3416 13.8961 41.3195 13.8271 41.2955C13.6901 41.2476 13.5561 41.1925 13.4241 41.1315C13.2931 41.0695 13.1651 41.0015 13.0401 40.9256C12.9781 40.8875 12.9161 40.8475 12.8561 40.8065C12.7951 40.7645 12.7361 40.7225 12.6781 40.6775C12.4471 40.5005 12.2371 40.3015 12.0471 40.0795C12.0001 40.0236 11.9531 39.9675 11.9091 39.9096C11.8651 39.8516 11.8211 39.7915 11.7801 39.7316C11.6971 39.6105 11.6191 39.4865 11.5491 39.3595C11.4791 39.2326 11.4141 39.1026 11.3561 38.9685C11.3261 38.9015 11.2991 38.8345 11.2731 38.7665C11.2461 38.6975 11.2221 38.6286 11.1991 38.5596C11.1061 38.2805 11.0391 37.9976 10.9941 37.7095C10.9721 37.5656 10.9551 37.4205 10.9451 37.2746C10.9341 37.1286 10.9281 36.9826 10.9281 36.8355C10.9237 31.9851 10.9197 27.1342 10.9147 22.2831C10.9107 17.8732 10.9067 13.4622 10.9017 9.05214C10.9017 8.6111 10.9007 8.16908 10.9007 7.72707C10.8994 7.42226 10.9304 7.12233 10.9904 6.82826C11.0204 6.68031 11.0584 6.53432 11.1034 6.39027C11.1264 6.31825 11.1514 6.24623 11.1784 6.17531C11.2044 6.10426 11.2334 6.03432 11.2634 5.96523C11.3844 5.68922 11.5324 5.42934 11.7084 5.18422C11.7524 5.12331 11.7984 5.06325 11.8454 5.00429C11.8934 4.94533 11.9414 4.88722 11.9924 4.83131C12.0934 4.71925 12.1984 4.61232 12.3094 4.51222C12.4204 4.41127 12.5364 4.3163 12.6564 4.22731C12.7174 4.18227 12.7784 4.1393 12.8414 4.09828C12.9044 4.05629 12.9684 4.01625 13.0334 3.97731C13.2944 3.82228 13.5654 3.69533 13.8484 3.5923C13.9894 3.54128 14.1344 3.49623 14.2804 3.45729C14.4274 3.41933 14.5744 3.38722 14.7234 3.36232C15.0184 3.31032 15.3194 3.28432 15.6225 3.28322C32.1794 3.19728 48.8545 3.19728 65.411 3.2831C65.564 3.28407 65.715 3.29115 65.865 3.30409C66.016 3.31715 66.165 3.33607 66.313 3.36208C66.609 3.4131 66.899 3.48915 67.184 3.59218C67.255 3.61818 67.325 3.64516 67.395 3.67409C67.465 3.70314 67.533 3.73317 67.601 3.76515C67.7371 3.82912 67.867 3.89809 67.995 3.97414C68.251 4.12611 68.492 4.30214 68.717 4.50514C68.773 4.55617 68.828 4.60817 68.882 4.66212C68.936 4.71608 68.988 4.77113 69.038 4.82716C69.14 4.94008 69.235 5.05812 69.322 5.17909C69.498 5.42311 69.648 5.68312 69.769 5.96107C69.8 6.03114 69.828 6.10207 69.855 6.17213C69.882 6.24416 69.906 6.31508 69.929 6.3871C69.975 6.53017 70.0131 6.67616 70.0431 6.82314C70.0731 6.97108 70.096 7.12013 70.1121 7.27016C70.118 7.34608 70.124 7.42213 70.128 7.49818C70.132 7.57509 70.1341 7.65114 70.1338 7.72755L70.1197 22.2836C70.1157 26.6935 70.1117 31.1045 70.1077 35.5145C70.1067 35.9556 70.1067 36.3955 70.1058 36.8355" stroke="#FF00FF" stroke-width="0.283465" stroke-miterlimit="10" stroke-linecap="round" stroke-linejoin="round"/>
<path d="M66.4147 44.9189V50.0098H65.7982V45.5652H65.7684L64.5255 46.3904V45.764L65.7982 44.9189H66.4147ZM68.0155 50.0495C67.8929 50.0495 67.7876 50.0056 67.6998 49.9178C67.612 49.83 67.5681 49.7247 67.5681 49.6021C67.5681 49.4795 67.612 49.3742 67.6998 49.2864C67.7876 49.1986 67.8929 49.1547 68.0155 49.1547C68.1381 49.1547 68.2434 49.1986 68.3312 49.2864C68.419 49.3742 68.463 49.4795 68.463 49.6021C68.463 49.6833 68.4422 49.7579 68.4008 49.8258C68.361 49.8938 68.3072 49.9484 68.2392 49.9899C68.1729 50.0297 68.0984 50.0495 68.0155 50.0495ZM70.9941 50.0794C70.7025 50.0794 70.4398 50.0214 70.2061 49.9054C69.9725 49.7894 69.7852 49.6303 69.6443 49.4281C69.5035 49.2259 69.4264 48.9956 69.4132 48.737H70.0097C70.0329 48.9674 70.1373 49.158 70.323 49.3088C70.5102 49.4579 70.7339 49.5325 70.9941 49.5325C71.2029 49.5325 71.3885 49.4836 71.5509 49.3858C71.715 49.2881 71.8434 49.1538 71.9362 48.9831C72.0307 48.8108 72.0779 48.6161 72.0779 48.399C72.0779 48.1769 72.029 47.9789 71.9313 47.8049C71.8351 47.6292 71.7026 47.4908 71.5335 47.3897C71.3645 47.2886 71.1714 47.2373 70.9543 47.2356C70.7986 47.234 70.6386 47.258 70.4746 47.3077C70.3105 47.3558 70.1755 47.4179 70.0694 47.4941L69.4927 47.4245L69.8009 44.9189H72.4458V45.4657H70.318L70.139 46.9672H70.1688C70.2732 46.8843 70.4042 46.8155 70.5616 46.7608C70.719 46.7061 70.8831 46.6788 71.0538 46.6788C71.3653 46.6788 71.6429 46.7534 71.8865 46.9025C72.1318 47.05 72.324 47.2522 72.4632 47.5091C72.6041 47.7659 72.6745 48.0592 72.6745 48.389C72.6745 48.7138 72.6016 49.0038 72.4558 49.2591C72.3116 49.5126 72.1127 49.7131 71.8592 49.8606C71.6056 50.0065 71.3173 50.0794 70.9941 50.0794ZM75.3225 50.0794C74.948 50.0794 74.629 49.9775 74.3655 49.7736C74.102 49.5681 73.9006 49.2707 73.7614 48.8812C73.6222 48.4901 73.5526 48.0178 73.5526 47.4643C73.5526 46.9141 73.6222 46.4443 73.7614 46.0549C73.9023 45.6638 74.1045 45.3655 74.368 45.16C74.6331 44.9528 74.9513 44.8493 75.3225 44.8493C75.6937 44.8493 76.0111 44.9528 76.2746 45.16C76.5397 45.3655 76.7419 45.6638 76.8811 46.0549C77.022 46.4443 77.0924 46.9141 77.0924 47.4643C77.0924 48.0178 77.0228 48.4901 76.8836 48.8812C76.7444 49.2707 76.543 49.5681 76.2795 49.7736C76.016 49.9775 75.697 50.0794 75.3225 50.0794ZM75.3225 49.5325C75.6937 49.5325 75.9821 49.3535 76.1876 48.9956C76.3931 48.6376 76.4958 48.1272 76.4958 47.4643C76.4958 47.0235 76.4486 46.6481 76.3541 46.3382C76.2613 46.0283 76.1271 45.7922 75.9514 45.6298C75.7774 45.4674 75.5678 45.3862 75.3225 45.3862C74.9546 45.3862 74.6671 45.5676 74.4599 45.9306C74.2528 46.2918 74.1492 46.8031 74.1492 47.4643C74.1492 47.9051 74.1956 48.2797 74.2884 48.5879C74.3812 48.8961 74.5146 49.1306 74.6886 49.2914C74.8643 49.4521 75.0756 49.5325 75.3225 49.5325Z" fill="#0000FF"/>
<path d="M61.3489 19.2263C61.2559 19.5488 60.9831 19.7472 60.6482 19.7472C60.2451 19.7472 59.9289 19.4248 59.9413 19.0403C59.9413 18.9535 59.9599 18.848 59.9785 18.7984L62.6574 9.29824C62.7442 8.97578 63.0171 8.77734 63.3519 8.77734C63.7612 8.77734 64.0713 9.0998 64.065 9.48428C64.0588 9.57729 64.0402 9.67651 64.0216 9.73232L61.3489 19.2263Z" fill="black"/>
<path d="M18.262 18.9287V9.5959C18.262 9.04399 18.5844 8.77734 18.9999 8.77734C19.4154 8.77734 19.7378 9.04399 19.7378 9.5959V18.9287C19.7378 19.4806 19.4154 19.7472 18.9999 19.7472C18.5844 19.7472 18.262 19.4806 18.262 18.9287Z" fill="black"/>
<path d="M19.6574 37.2263L16.9785 27.7323C16.9599 27.6765 16.9413 27.5773 16.9413 27.4843C16.9289 27.0998 17.2451 26.7773 17.6482 26.7773C17.9831 26.7773 18.2559 26.9758 18.3489 27.2982L21.0216 36.7984C21.0402 36.848 21.0588 36.9535 21.065 37.0403C21.0713 37.4248 20.7612 37.7472 20.3519 37.7472C20.0171 37.7472 19.7442 37.5488 19.6574 37.2263Z" fill="black"/>
</svg>
