<svg width="54" height="54" viewBox="0 0 54 54" fill="none" xmlns="http://www.w3.org/2000/svg">
<rect x="1.8501" y="1.8501" width="50.3" height="50.3" rx="3" stroke="#8B1EFF" stroke-width="0.28"/>
<path d="M44.1508 7.31653L44.1327 37.3804C44.1267 37.5443 44.1127 37.7073 44.0925 37.8691C44.0725 38.0311 44.0465 38.1932 44.0162 38.3547C43.9852 38.5156 43.9482 38.6747 43.9038 38.8339C43.8607 38.9919 43.8118 39.1489 43.7572 39.3043C43.6392 39.6283 43.4951 39.9434 43.3245 40.2437C43.1515 40.5486 42.9515 40.8376 42.7266 41.1068C42.4995 41.3768 42.2485 41.6259 41.9756 41.8479C41.7015 42.0698 41.4076 42.2659 41.0974 42.4301C40.8724 42.547 40.6373 42.65 40.3981 42.7354C40.2791 42.7773 40.1581 42.8143 40.0359 42.8481C39.9139 42.8822 39.7909 42.9122 39.6678 42.9369C39.5029 42.9718 39.3369 42.9978 39.1689 43.0148L39.1677 43.0144C31.0557 43.5814 22.9137 43.5803 14.8016 43.0129C14.1357 42.939 13.4807 42.725 12.8857 42.4038C12.2808 42.0787 11.7397 41.6418 11.2983 41.121C10.8544 40.5961 10.5123 39.984 10.2732 39.3397C10.1532 39.0188 10.0582 38.6877 9.99024 38.3521C9.92127 38.0181 9.87732 37.6771 9.8617 37.3372L9.84497 7.31702C9.85803 6.77502 9.95398 6.23108 10.1217 5.71313C10.2057 5.45422 10.3077 5.20215 10.426 4.9585C10.5439 4.71558 10.6801 4.48059 10.8309 4.25623C10.9819 4.03418 11.1489 3.82214 11.3319 3.62476C11.5139 3.42883 11.7098 3.24683 11.9191 3.07959C12.1271 2.91455 12.3481 2.76355 12.5769 2.63037C12.8069 2.49744 13.0459 2.38135 13.2918 2.28308C13.6038 2.16113 13.9287 2.06812 14.2578 2.00366C14.5878 1.93872 14.9227 1.90271 15.2581 1.89587C19.171 1.86487 23.084 1.84875 26.9973 1.84863C30.9103 1.84863 34.8232 1.86475 38.7365 1.89612C39.4144 1.90503 40.0955 2.04211 40.7295 2.29675C41.3785 2.55884 41.9766 2.9458 42.4756 3.43298C42.9895 3.93188 43.3986 4.53796 43.6824 5.19812C43.9703 5.86621 44.1304 6.59119 44.1504 7.31311" stroke="#8B1EFF" stroke-width="0.283" stroke-miterlimit="10"/>
<rect x="12.6792" y="5.50488" width="28.63" height="34.3" rx="1.42" stroke="#00FFFF" stroke-width="0.28"/>
<path d="M42.9527 7.6868C42.9477 12.5518 42.9427 17.4168 42.9386 22.2818L42.9237 36.8777C42.9237 37.167 42.9027 37.455 42.8617 37.741C42.8518 37.812 42.8397 37.8831 42.8268 37.954C42.8147 38.0251 42.7998 38.0961 42.7838 38.167C42.7517 38.308 42.7147 38.448 42.6728 38.585C42.5878 38.859 42.4818 39.126 42.3507 39.3841C42.3168 39.448 42.2827 39.512 42.2467 39.5751C42.2118 39.637 42.1748 39.699 42.1367 39.76C42.0598 39.882 41.9778 39.9991 41.8908 40.1121C41.8028 40.225 41.7097 40.333 41.6098 40.438C41.5618 40.49 41.5098 40.541 41.4578 40.5911C41.4048 40.64 41.3518 40.688 41.2968 40.735C41.0788 40.9201 40.8448 41.0811 40.5938 41.215C40.5308 41.2491 40.4668 41.281 40.4018 41.3111C40.3368 41.3421 40.2708 41.37 40.2038 41.397C40.0708 41.4501 39.9368 41.496 39.7998 41.5341C39.5268 41.611 39.2467 41.6591 38.9608 41.679C31.0301 42.2231 22.963 42.2231 15.0331 41.679C14.7461 41.6587 14.4662 41.6107 14.1931 41.5337C14.0562 41.4958 13.9221 41.4497 13.7892 41.3968C13.7222 41.3698 13.6562 41.3407 13.5912 41.3108C13.5261 41.2808 13.4632 41.2488 13.4002 41.2148C13.1481 41.0807 12.9142 40.9198 12.6962 40.7338C12.6421 40.6878 12.5891 40.6398 12.5362 40.5898C12.4842 40.5408 12.4322 40.4888 12.3832 40.4378C12.2842 40.3328 12.1912 40.2248 12.1042 40.1107C12.0161 39.9988 11.9341 39.8808 11.8572 39.7598C11.8191 39.6988 11.7821 39.6367 11.7471 39.5738C11.7112 39.5117 11.6762 39.4478 11.6442 39.3827C11.5132 39.1258 11.4062 38.8588 11.3222 38.5847C11.2792 38.4468 11.2422 38.3078 11.2112 38.1668C11.1952 38.0957 11.1802 38.0248 11.1671 37.9538C11.1542 37.8827 11.1421 37.8118 11.1321 37.7398C11.0912 37.4547 11.0702 37.1678 11.0698 36.8773C11.0618 27.1474 11.0518 17.4164 11.042 7.68643C11.041 7.38943 11.068 7.09744 11.1231 6.80948C11.15 6.66641 11.1841 6.52347 11.2251 6.38248C11.2461 6.31143 11.2681 6.24149 11.2931 6.17142C11.317 6.10147 11.343 6.03348 11.37 5.96548C11.4801 5.69339 11.6151 5.43643 11.776 5.19339C11.8161 5.13248 11.8581 5.07339 11.901 5.01443C11.9451 4.95547 11.9901 4.89737 12.0371 4.84048C12.13 4.72745 12.2271 4.62039 12.3311 4.51749C12.5371 4.31448 12.7621 4.13248 13.0081 3.97342C13.0691 3.93338 13.1321 3.89444 13.1941 3.85843C13.2581 3.82144 13.3211 3.78738 13.3861 3.75345C13.5141 3.68741 13.646 3.62747 13.7801 3.57437C13.9151 3.52042 14.0531 3.4744 14.192 3.43338C14.2621 3.41348 14.333 3.39444 14.4041 3.37747C14.4751 3.36038 14.547 3.34549 14.619 3.33145C14.9051 3.27737 15.1961 3.24844 15.4896 3.24637C23.1208 3.18546 30.8747 3.18546 38.506 3.24637C38.8 3.24942 39.089 3.27737 39.372 3.33133C39.6549 3.38443 39.933 3.46341 40.205 3.57132C40.273 3.59732 40.341 3.62637 40.407 3.6564C40.474 3.68631 40.539 3.71841 40.6039 3.75137C40.7329 3.81741 40.8579 3.88931 40.9789 3.96841C41.2219 4.12442 41.4469 4.30533 41.657 4.51138C41.709 4.56241 41.7599 4.61539 41.809 4.66934C41.8579 4.72342 41.9059 4.77835 41.953 4.83438C42.0449 4.94632 42.132 5.06338 42.2119 5.18436C42.293 5.30533 42.367 5.43033 42.435 5.56033C42.47 5.62442 42.503 5.69034 42.534 5.75735C42.565 5.82437 42.595 5.89236 42.622 5.96036C42.732 6.23233 42.814 6.51334 42.87 6.8024C42.8839 6.87442 42.8949 6.94742 42.9059 7.02042C42.917 7.09341 42.9259 7.16739 42.9319 7.24136C42.9459 7.38931 42.953 7.53738 42.9527 7.6868Z" stroke="#FF00FF" stroke-width="0.283465" stroke-miterlimit="10" stroke-linecap="round" stroke-linejoin="round"/>
<path d="M18.3736 14.3607L18.2619 12.5189C18.2309 12.0973 18.5348 11.75 18.9937 11.75C19.4464 11.75 19.744 12.1035 19.7192 12.5189L19.6076 14.3607C19.5828 14.7142 19.3223 15.0118 18.9875 15.0118C18.6526 15.0118 18.3922 14.7142 18.3736 14.3607Z" fill="black"/>
<path d="M18.9246 33.5691C19.6446 33.5691 20.1146 32.9691 20.1146 31.9991C20.1146 31.0291 19.6546 30.4591 18.9346 30.4591C18.2146 30.4591 17.7846 31.0391 17.7846 32.0091C17.7846 32.9791 18.2046 33.5691 18.9246 33.5691ZM13.9446 31.9991C13.9446 28.8491 16.0746 26.7891 19.1546 26.7891C22.0646 26.7891 24.1346 28.6191 24.1346 31.4291C24.1346 33.2991 23.2346 34.5991 21.7646 34.5991C20.9322 34.5991 20.5652 34.2302 20.4131 33.9843C20.3618 33.9013 20.2446 33.8929 20.1831 33.9686C19.9838 34.2142 19.5329 34.5991 18.6646 34.5991C17.3846 34.5991 16.5146 33.5391 16.5146 31.9791C16.5146 30.4191 17.3746 29.4191 18.6046 29.4191C19.3317 29.4191 19.7583 29.6766 19.9813 29.879C20.0592 29.9497 20.1848 29.9133 20.2126 29.8119C20.2214 29.7797 20.2327 29.7478 20.2472 29.718C20.3277 29.5529 20.486 29.4191 20.7646 29.4191C21.1246 29.4191 21.3446 29.6391 21.3446 30.0291V32.9591C21.3446 33.3891 21.5746 33.6391 21.9946 33.6391C22.6446 33.6391 23.0846 32.7691 23.0846 31.5291C23.0846 29.0791 21.3646 27.7091 19.1446 27.7091C16.6446 27.7091 14.9846 29.4691 14.9846 32.0291C14.9846 34.5891 16.7546 36.2091 19.4146 36.2091C19.9746 36.2091 20.3646 36.1391 20.8546 36.0191C20.9546 35.9991 21.0346 35.9991 21.1046 35.9991C21.3846 35.9991 21.5446 36.1491 21.5446 36.3791C21.5446 36.6091 21.4146 36.7791 21.0646 36.8991C20.6346 37.0391 19.9946 37.1391 19.2146 37.1391C16.1346 37.1391 13.9446 35.1991 13.9446 31.9891V31.9991Z" fill="black"/>
<path fill-rule="evenodd" clip-rule="evenodd" d="M38.2938 25.4501C38.5746 25.1764 39.0241 25.1821 39.2978 25.4629C39.6148 25.7881 40.0359 26.3409 40.302 26.7949C40.5004 27.1332 40.3869 27.5682 40.0486 27.7665C39.7104 27.9648 39.2754 27.8514 39.077 27.5131C38.865 27.1515 38.5126 26.6916 38.281 26.4542C38.0073 26.1734 38.013 25.7239 38.2938 25.4501ZM36.4444 26.7775C36.7251 26.5038 37.1746 26.5095 37.4484 26.7903C37.7653 27.1154 38.1864 27.6682 38.4526 28.1223C38.6509 28.4605 38.5374 28.8955 38.1992 29.0938C37.8609 29.2922 37.4259 29.1787 37.2276 28.8404C37.0156 28.4788 36.6631 28.019 36.4316 27.7815C36.1579 27.5007 36.1636 27.0512 36.4444 26.7775ZM37.2699 36.5387C37.3771 36.5387 37.4806 36.527 37.5796 36.505C37.9625 36.42 38.3416 36.6615 38.4266 37.0443C38.5116 37.4271 38.2701 37.8063 37.8873 37.8913C37.6879 37.9355 37.4812 37.9587 37.2699 37.9587H36.7995C36.4074 37.9587 36.0895 37.6408 36.0895 37.2487C36.0895 36.8566 36.4074 36.5387 36.7995 36.5387H37.2699ZM35.0804 37.2487C35.0804 37.6408 34.7625 37.9587 34.3704 37.9587H33.4295C33.0374 37.9587 32.7195 37.6408 32.7195 37.2487C32.7195 36.8566 33.0374 36.5387 33.4295 36.5387H34.3704C34.7625 36.5387 35.0804 36.8566 35.0804 37.2487ZM31.7104 37.2487C31.7104 37.6408 31.3925 37.9587 31.0004 37.9587H30.5299C30.3187 37.9587 30.112 37.9355 29.9126 37.8913C29.5298 37.8063 29.2883 37.4271 29.3733 37.0443C29.4582 36.6615 29.8374 36.42 30.2202 36.505C30.3193 36.527 30.4228 36.5387 30.5299 36.5387H31.0004C31.3925 36.5387 31.7104 36.8566 31.7104 37.2487ZM39.1955 36.2754C38.8127 36.1904 38.5713 35.8112 38.6562 35.4284C38.6782 35.3294 38.6899 35.2258 38.6899 35.1187V34.6483C38.6899 34.2561 39.0078 33.9383 39.3999 33.9383C39.7921 33.9383 40.1099 34.2561 40.1099 34.6483V35.1187C40.1099 35.33 40.0868 35.5366 40.0425 35.736C39.9575 36.1189 39.5783 36.3603 39.1955 36.2754ZM28.6043 36.2754C28.2215 36.3603 27.8423 36.1188 27.7574 35.736C27.7131 35.5366 27.6899 35.33 27.6899 35.1187V34.6483C27.6899 34.2561 28.0078 33.9383 28.3999 33.9383C28.7921 33.9383 29.1099 34.2561 29.1099 34.6483V35.1187C29.1099 35.2258 29.1217 35.3294 29.1437 35.4284C29.2286 35.8112 28.9872 36.1904 28.6043 36.2754ZM28.3999 32.9291C28.0078 32.9291 27.6899 32.6113 27.6899 32.2191V31.2783C27.6899 30.8861 28.0078 30.5683 28.3999 30.5683C28.7921 30.5683 29.1099 30.8861 29.1099 31.2783V32.2191C29.1099 32.6113 28.7921 32.9291 28.3999 32.9291ZM39.3999 32.9291C39.0078 32.9291 38.6899 32.6112 38.6899 32.2191V31.2783C38.6899 30.8861 39.0078 30.5683 39.3999 30.5683C39.7921 30.5683 40.1099 30.8861 40.1099 31.2783V32.2191C40.1099 32.6112 39.7921 32.9291 39.3999 32.9291ZM28.3999 29.5591C28.0078 29.5591 27.6899 29.2413 27.6899 28.8491V28.3787C27.6899 28.1674 27.7131 27.9607 27.7574 27.7614C27.8423 27.3785 28.2215 27.1371 28.6043 27.222C28.9872 27.307 29.2286 27.6862 29.1437 28.069C29.1217 28.168 29.1099 28.2716 29.1099 28.3787V28.8491C29.1099 29.2413 28.7921 29.5591 28.3999 29.5591ZM29.3733 26.4531C29.2883 26.0703 29.5298 25.6911 29.9126 25.6061C30.112 25.5619 30.3187 25.5387 30.5299 25.5387H31.0004C31.3925 25.5387 31.7104 25.8566 31.7104 26.2487C31.7104 26.6408 31.3925 26.9587 31.0004 26.9587H30.5299C30.4228 26.9587 30.3193 26.9704 30.2202 26.9924C29.8374 27.0774 29.4582 26.8359 29.3733 26.4531ZM35.0804 26.2487C35.0804 26.6408 34.7625 26.9587 34.3704 26.9587H33.4295C33.0374 26.9587 32.7195 26.6408 32.7195 26.2487C32.7195 25.8566 33.0374 25.5387 33.4295 25.5387H34.3704C34.7625 25.5387 35.0804 25.8566 35.0804 26.2487Z" fill="black"/>
</svg>
