<svg width="54" height="55" viewBox="0 0 54 55" fill="none" xmlns="http://www.w3.org/2000/svg">
<rect x="1.8501" y="2.79846" width="50.3" height="50.3" rx="3" stroke="#8B1EFF" stroke-width="0.28"/>
<path d="M44.1508 8.26501L44.1327 38.3289C44.1267 38.4928 44.1127 38.6558 44.0925 38.8176C44.0725 38.9796 44.0465 39.1417 44.0162 39.3032C43.9852 39.4641 43.9482 39.6232 43.9038 39.7823C43.8607 39.9404 43.8118 40.0974 43.7572 40.2528C43.6392 40.5768 43.4951 40.8918 43.3245 41.1921C43.1515 41.4971 42.9515 41.7861 42.7266 42.0553C42.4995 42.3253 42.2485 42.5743 41.9756 42.7964C41.7015 43.0183 41.4076 43.2144 41.0974 43.3785C40.8724 43.4955 40.6373 43.5985 40.3981 43.6838C40.2791 43.7258 40.1581 43.7628 40.0359 43.7966C39.9139 43.8307 39.7909 43.8607 39.6678 43.8854C39.5029 43.9203 39.3369 43.9463 39.1689 43.9633L39.1677 43.9629C31.0557 44.5299 22.9137 44.5288 14.8016 43.9614C14.1357 43.8875 13.4807 43.6735 12.8857 43.3523C12.2808 43.0272 11.7397 42.5903 11.2983 42.0695C10.8544 41.5446 10.5123 40.9325 10.2732 40.2882C10.1532 39.9673 10.0582 39.6362 9.99024 39.3005C9.92127 38.9666 9.87732 38.6256 9.8617 38.2856L9.84497 8.2655C9.85803 7.72351 9.95398 7.17957 10.1217 6.66162C10.2057 6.40271 10.3077 6.15063 10.426 5.90698C10.5439 5.66406 10.6801 5.42908 10.8309 5.20471C10.9819 4.98267 11.1489 4.77063 11.3319 4.57324C11.5139 4.37732 11.7098 4.19531 11.9191 4.02808C12.1271 3.86304 12.3481 3.71204 12.5769 3.57886C12.8069 3.44592 13.0459 3.32983 13.2918 3.23157C13.6038 3.10962 13.9287 3.0166 14.2578 2.95215C14.5878 2.88721 14.9227 2.8512 15.2581 2.84436C19.171 2.81335 23.084 2.79724 26.9973 2.79712C30.9103 2.79712 34.8232 2.81323 38.7365 2.8446C39.4144 2.85352 40.0955 2.9906 40.7295 3.24524C41.3785 3.50732 41.9766 3.89429 42.4756 4.38147C42.9895 4.88037 43.3986 5.48645 43.6824 6.14661C43.9703 6.8147 44.1304 7.53967 44.1504 8.2616" stroke="#8B1EFF" stroke-width="0.283" stroke-miterlimit="10"/>
<rect x="12.6792" y="6.45361" width="28.63" height="34.3" rx="1.42" stroke="#00FFFF" stroke-width="0.28"/>
<path d="M42.9527 8.63504C42.9477 13.5 42.9427 18.365 42.9386 23.23L42.9237 37.826C42.9237 38.1153 42.9027 38.4032 42.8617 38.6892C42.8518 38.7603 42.8397 38.8313 42.8268 38.9023C42.8147 38.9733 42.7998 39.0443 42.7838 39.1153C42.7517 39.2563 42.7147 39.3963 42.6728 39.5332C42.5878 39.8073 42.4818 40.0742 42.3507 40.3323C42.3168 40.3963 42.2827 40.4602 42.2467 40.5233C42.2118 40.5852 42.1748 40.6472 42.1367 40.7083C42.0598 40.8302 41.9778 40.9473 41.8908 41.0603C41.8028 41.1732 41.7097 41.2813 41.6098 41.3863C41.5618 41.4383 41.5098 41.4893 41.4578 41.5393C41.4048 41.5883 41.3518 41.6363 41.2968 41.6833C41.0788 41.8683 40.8448 42.0293 40.5938 42.1632C40.5308 42.1973 40.4668 42.2293 40.4018 42.2593C40.3368 42.2903 40.2708 42.3183 40.2038 42.3452C40.0708 42.3983 39.9368 42.4442 39.7998 42.4823C39.5268 42.5592 39.2467 42.6073 38.9608 42.6272C31.0301 43.1713 22.963 43.1713 15.0331 42.6272C14.7461 42.607 14.4662 42.559 14.1931 42.482C14.0562 42.444 13.9221 42.398 13.7892 42.345C13.7222 42.318 13.6562 42.289 13.5912 42.2591C13.5261 42.229 13.4632 42.1971 13.4002 42.163C13.1481 42.029 12.9142 41.8681 12.6962 41.682C12.6421 41.636 12.5891 41.588 12.5362 41.538C12.4842 41.489 12.4322 41.437 12.3832 41.386C12.2842 41.281 12.1912 41.173 12.1042 41.059C12.0161 40.9471 11.9341 40.829 11.8572 40.708C11.8191 40.647 11.7821 40.585 11.7471 40.522C11.7112 40.46 11.6762 40.396 11.6442 40.331C11.5132 40.074 11.4062 39.807 11.3222 39.533C11.2792 39.3951 11.2422 39.256 11.2112 39.115C11.1952 39.044 11.1802 38.9731 11.1671 38.902C11.1542 38.831 11.1421 38.76 11.1321 38.688C11.0912 38.403 11.0702 38.116 11.0698 37.8256C11.0618 28.0956 11.0518 18.3647 11.042 8.63467C11.041 8.33768 11.068 8.04568 11.1231 7.75772C11.15 7.61465 11.1841 7.47171 11.2251 7.33072C11.2461 7.25967 11.2681 7.18973 11.2931 7.11966C11.317 7.04971 11.343 6.98172 11.37 6.91373C11.4801 6.64163 11.6151 6.38467 11.776 6.14163C11.8161 6.08072 11.8581 6.02164 11.901 5.96268C11.9451 5.90372 11.9901 5.84561 12.0371 5.78873C12.13 5.67569 12.2271 5.56863 12.3311 5.46573C12.5371 5.26273 12.7621 5.08072 13.0081 4.92166C13.0691 4.88162 13.1321 4.84268 13.1941 4.80667C13.2581 4.76968 13.3211 4.73563 13.3861 4.70169C13.5141 4.63565 13.646 4.57571 13.7801 4.52261C13.9151 4.46866 14.0531 4.42264 14.192 4.38162C14.2621 4.36172 14.333 4.34268 14.4041 4.32571C14.4751 4.30862 14.547 4.29373 14.619 4.27969C14.9051 4.22562 15.1961 4.19669 15.4896 4.19461C23.1208 4.1337 30.8747 4.1337 38.506 4.19461C38.8 4.19766 39.089 4.22562 39.372 4.27957C39.6549 4.33267 39.933 4.41165 40.205 4.51956C40.273 4.54556 40.341 4.57462 40.407 4.60464C40.474 4.63455 40.539 4.66666 40.6039 4.69962C40.7329 4.76566 40.8579 4.83755 40.9789 4.91666C41.2219 5.07266 41.4469 5.25357 41.657 5.45963C41.709 5.51065 41.7599 5.56363 41.809 5.61758C41.8579 5.67166 41.9059 5.72659 41.953 5.78262C42.0449 5.89456 42.132 6.01163 42.2119 6.1326C42.293 6.25357 42.367 6.37857 42.435 6.50858C42.47 6.57266 42.503 6.63858 42.534 6.7056C42.565 6.77261 42.595 6.84061 42.622 6.9086C42.732 7.18057 42.814 7.46158 42.87 7.75064C42.8839 7.82266 42.8949 7.89566 42.9059 7.96866C42.917 8.04166 42.9259 8.11563 42.9319 8.18961C42.9459 8.33755 42.953 8.48563 42.9527 8.63504Z" stroke="#FF00FF" stroke-width="0.283465" stroke-miterlimit="10" stroke-linecap="round" stroke-linejoin="round"/>
<path d="M33.6613 35.8569C33.6613 36.4339 33.3633 36.7629 32.8363 36.7629C32.3093 36.7629 31.9863 36.4279 31.9863 35.8569V29.0779C31.9863 28.5069 32.2903 28.1719 32.8233 28.1719C33.3563 28.1719 33.6603 28.5069 33.6603 29.0779V31.4499C33.6603 31.5779 33.8163 31.6399 33.9043 31.5479L36.7123 28.5939C37.0033 28.2779 37.1763 28.1789 37.4293 28.1779C37.8283 28.1769 38.1623 28.5069 38.1633 28.9059C38.1633 29.1379 38.0843 29.2869 37.8283 29.5609L35.2863 32.1559C35.2333 32.2099 35.2323 32.2959 35.2833 32.3509L37.9143 35.1979C38.2373 35.5639 38.3173 35.7559 38.3173 36.0039C38.3173 36.4439 38.0013 36.7609 37.5543 36.7609C37.1943 36.7609 36.9713 36.6059 36.6243 36.2029L33.9063 33.2109C33.8193 33.1149 33.6593 33.1769 33.6593 33.3059V35.8549L33.6613 35.8569Z" fill="black"/>
<path fill-rule="evenodd" clip-rule="evenodd" d="M17.813 19.6531C17.813 20.4617 17.3823 20.9363 16.6353 20.9363C15.8794 20.9363 15.4399 20.4617 15.4399 19.6531V10.6619C15.4399 9.41382 15.9849 8.85132 17.2329 8.85132H20.3003C22.8667 8.85132 24.4575 10.2576 24.4575 12.5251C24.4575 13.9911 23.7304 15.1712 22.4809 15.758C22.4059 15.7933 22.3738 15.8842 22.4135 15.957L24.0796 19.0115C24.2114 19.2488 24.2905 19.5476 24.2905 19.8025C24.2905 20.4441 23.7896 20.9011 23.1128 20.9011C22.4888 20.9011 22.1548 20.6375 21.7593 19.864L20.0705 16.5368C20.0227 16.4428 19.9262 16.3835 19.8208 16.3835H17.953C17.8757 16.3835 17.813 16.4462 17.813 16.5235V19.6531ZM17.813 14.4682C17.813 14.5455 17.8757 14.6082 17.953 14.6082H19.9575C21.3022 14.6082 22.0757 13.9402 22.0757 12.7097C22.0757 11.488 21.2935 10.7937 19.9839 10.7937H17.953C17.8757 10.7937 17.813 10.8564 17.813 10.9337V14.4682Z" fill="black"/>
</svg>
