<svg width="54" height="54" viewBox="0 0 54 54" fill="none" xmlns="http://www.w3.org/2000/svg">
<rect x="1.8501" y="1.8501" width="50.3" height="50.3" rx="3" stroke="#8B1EFF" stroke-width="0.28"/>
<path d="M44.1508 7.31653L44.1327 37.3804C44.1267 37.5443 44.1127 37.7073 44.0925 37.8691C44.0725 38.0311 44.0465 38.1932 44.0162 38.3547C43.9852 38.5156 43.9482 38.6747 43.9038 38.8339C43.8607 38.9919 43.8118 39.1489 43.7572 39.3043C43.6392 39.6283 43.4951 39.9434 43.3245 40.2437C43.1515 40.5486 42.9515 40.8376 42.7266 41.1068C42.4995 41.3768 42.2485 41.6259 41.9756 41.8479C41.7015 42.0698 41.4076 42.2659 41.0974 42.4301C40.8724 42.547 40.6373 42.65 40.3981 42.7354C40.2791 42.7773 40.1581 42.8143 40.0359 42.8481C39.9139 42.8822 39.7909 42.9122 39.6678 42.9369C39.5029 42.9718 39.3369 42.9978 39.1689 43.0148L39.1677 43.0144C31.0557 43.5814 22.9137 43.5803 14.8016 43.0129C14.1357 42.939 13.4807 42.725 12.8857 42.4038C12.2808 42.0787 11.7397 41.6418 11.2983 41.121C10.8544 40.5961 10.5123 39.984 10.2732 39.3397C10.1532 39.0188 10.0582 38.6877 9.99024 38.3521C9.92127 38.0181 9.87732 37.6771 9.8617 37.3372L9.84497 7.31702C9.85803 6.77502 9.95398 6.23108 10.1217 5.71313C10.2057 5.45422 10.3077 5.20215 10.426 4.9585C10.5439 4.71558 10.6801 4.48059 10.8309 4.25623C10.9819 4.03418 11.1489 3.82214 11.3319 3.62476C11.5139 3.42883 11.7098 3.24683 11.9191 3.07959C12.1271 2.91455 12.3481 2.76355 12.5769 2.63037C12.8069 2.49744 13.0459 2.38135 13.2918 2.28308C13.6038 2.16113 13.9287 2.06812 14.2578 2.00366C14.5878 1.93872 14.9227 1.90271 15.2581 1.89587C19.171 1.86487 23.084 1.84875 26.9973 1.84863C30.9103 1.84863 34.8232 1.86475 38.7365 1.89612C39.4144 1.90503 40.0955 2.04211 40.7295 2.29675C41.3785 2.55884 41.9766 2.9458 42.4756 3.43298C42.9895 3.93188 43.3986 4.53796 43.6824 5.19812C43.9703 5.86621 44.1304 6.59119 44.1504 7.31311" stroke="#8B1EFF" stroke-width="0.283" stroke-miterlimit="10"/>
<rect x="12.6792" y="5.50488" width="28.63" height="34.3" rx="1.42" stroke="#00FFFF" stroke-width="0.28"/>
<path d="M42.9527 7.6868C42.9477 12.5518 42.9427 17.4168 42.9386 22.2818L42.9237 36.8777C42.9237 37.167 42.9027 37.455 42.8617 37.741C42.8518 37.812 42.8397 37.8831 42.8268 37.954C42.8147 38.0251 42.7998 38.0961 42.7838 38.167C42.7517 38.308 42.7147 38.448 42.6728 38.585C42.5878 38.859 42.4818 39.126 42.3507 39.3841C42.3168 39.448 42.2827 39.512 42.2467 39.5751C42.2118 39.637 42.1748 39.699 42.1367 39.76C42.0598 39.882 41.9778 39.9991 41.8908 40.1121C41.8028 40.225 41.7097 40.333 41.6098 40.438C41.5618 40.49 41.5098 40.541 41.4578 40.5911C41.4048 40.64 41.3518 40.688 41.2968 40.735C41.0788 40.9201 40.8448 41.0811 40.5938 41.215C40.5308 41.2491 40.4668 41.281 40.4018 41.3111C40.3368 41.3421 40.2708 41.37 40.2038 41.397C40.0708 41.4501 39.9368 41.496 39.7998 41.5341C39.5268 41.611 39.2467 41.6591 38.9608 41.679C31.0301 42.2231 22.963 42.2231 15.0331 41.679C14.7461 41.6587 14.4662 41.6107 14.1931 41.5337C14.0562 41.4958 13.9221 41.4497 13.7892 41.3968C13.7222 41.3698 13.6562 41.3407 13.5912 41.3108C13.5261 41.2808 13.4632 41.2488 13.4002 41.2148C13.1481 41.0807 12.9142 40.9198 12.6962 40.7338C12.6421 40.6878 12.5891 40.6398 12.5362 40.5898C12.4842 40.5408 12.4322 40.4888 12.3832 40.4378C12.2842 40.3328 12.1912 40.2248 12.1042 40.1107C12.0161 39.9988 11.9341 39.8808 11.8572 39.7598C11.8191 39.6988 11.7821 39.6367 11.7471 39.5738C11.7112 39.5117 11.6762 39.4478 11.6442 39.3827C11.5132 39.1258 11.4062 38.8588 11.3222 38.5847C11.2792 38.4468 11.2422 38.3078 11.2112 38.1668C11.1952 38.0957 11.1802 38.0248 11.1671 37.9538C11.1542 37.8827 11.1421 37.8118 11.1321 37.7398C11.0912 37.4547 11.0702 37.1678 11.0698 36.8773C11.0618 27.1474 11.0518 17.4164 11.042 7.68643C11.041 7.38943 11.068 7.09744 11.1231 6.80948C11.15 6.66641 11.1841 6.52347 11.2251 6.38248C11.2461 6.31143 11.2681 6.24149 11.2931 6.17142C11.317 6.10147 11.343 6.03348 11.37 5.96548C11.4801 5.69339 11.6151 5.43643 11.776 5.19339C11.8161 5.13248 11.8581 5.07339 11.901 5.01443C11.9451 4.95547 11.9901 4.89737 12.0371 4.84048C12.13 4.72745 12.2271 4.62039 12.3311 4.51749C12.5371 4.31448 12.7621 4.13248 13.0081 3.97342C13.0691 3.93338 13.1321 3.89444 13.1941 3.85843C13.2581 3.82144 13.3211 3.78738 13.3861 3.75345C13.5141 3.68741 13.646 3.62747 13.7801 3.57437C13.9151 3.52042 14.0531 3.4744 14.192 3.43338C14.2621 3.41348 14.333 3.39444 14.4041 3.37747C14.4751 3.36038 14.547 3.34549 14.619 3.33145C14.9051 3.27737 15.1961 3.24844 15.4896 3.24637C23.1208 3.18546 30.8747 3.18546 38.506 3.24637C38.8 3.24942 39.089 3.27737 39.372 3.33133C39.6549 3.38443 39.933 3.46341 40.205 3.57132C40.273 3.59732 40.341 3.62637 40.407 3.6564C40.474 3.68631 40.539 3.71841 40.6039 3.75137C40.7329 3.81741 40.8579 3.88931 40.9789 3.96841C41.2219 4.12442 41.4469 4.30533 41.657 4.51138C41.709 4.56241 41.7599 4.61539 41.809 4.66934C41.8579 4.72342 41.9059 4.77835 41.953 4.83438C42.0449 4.94632 42.132 5.06338 42.2119 5.18436C42.293 5.30533 42.367 5.43033 42.435 5.56033C42.47 5.62442 42.503 5.69034 42.534 5.75735C42.565 5.82437 42.595 5.89236 42.622 5.96036C42.732 6.23233 42.814 6.51334 42.87 6.8024C42.8839 6.87442 42.8949 6.94742 42.9059 7.02042C42.917 7.09341 42.9259 7.16739 42.9319 7.24136C42.9459 7.38931 42.953 7.53738 42.9527 7.6868Z" stroke="#FF00FF" stroke-width="0.283465" stroke-miterlimit="10" stroke-linecap="round" stroke-linejoin="round"/>
<path fill-rule="evenodd" clip-rule="evenodd" d="M17.813 18.7046C17.813 19.5132 17.3823 19.9878 16.6353 19.9878C15.8794 19.9878 15.4399 19.5132 15.4399 18.7046V9.71338C15.4399 8.46533 15.9849 7.90283 17.2329 7.90283H20.3003C22.8667 7.90283 24.4575 9.30908 24.4575 11.5767C24.4575 13.0426 23.7304 14.2227 22.4809 14.8096C22.4059 14.8448 22.3738 14.9358 22.4135 15.0085L24.0796 18.063C24.2114 18.3003 24.2905 18.5991 24.2905 18.854C24.2905 19.4956 23.7896 19.9526 23.1128 19.9526C22.4888 19.9526 22.1548 19.689 21.7593 18.9155L20.0705 15.5883C20.0227 15.4943 19.9262 15.4351 19.8208 15.4351H17.953C17.8757 15.4351 17.813 15.4977 17.813 15.5751V18.7046ZM17.813 13.5197C17.813 13.597 17.8757 13.6597 17.953 13.6597H19.9575C21.3022 13.6597 22.0757 12.9917 22.0757 11.7612C22.0757 10.5396 21.2935 9.84521 19.9839 9.84521H17.953C17.8757 9.84521 17.813 9.9079 17.813 9.98521V13.5197Z" fill="black"/>
<path fill-rule="evenodd" clip-rule="evenodd" d="M36.838 26.8694C36.8543 26.4777 36.5499 26.1468 36.1581 26.1305C35.7663 26.1142 35.4355 26.4186 35.4192 26.8103C35.4082 27.0746 35.3997 27.3307 35.3932 27.5789C35.3913 27.6539 35.3307 27.7142 35.2557 27.7156C33.742 27.7457 32.2258 27.8064 30.2391 27.913C29.8476 27.934 29.5472 28.2684 29.5682 28.66C29.5892 29.0515 29.9236 29.3519 30.3152 29.3309C32.2616 29.2265 33.7494 29.1666 35.2303 29.1364C35.3087 29.1349 35.3731 29.1981 35.3731 29.2766C35.3729 29.4972 35.3735 29.7087 35.374 29.9113V29.9113L35.3744 30.1104C35.3746 30.188 35.2933 30.2394 35.2211 30.211C34.923 30.0938 34.5836 30.0308 34.204 30.0308C33.3941 30.0308 32.7246 30.2992 32.2586 30.7691C31.7988 31.2327 31.5857 31.8444 31.5976 32.4405C31.6095 33.0354 31.8457 33.6345 32.3065 34.0809C32.7752 34.5348 33.4362 34.7926 34.2233 34.7711C34.4268 34.7656 34.624 34.7479 34.8127 34.7142C34.9342 34.6926 35.0328 34.8186 34.96 34.9183C34.9312 34.9578 34.8999 34.9978 34.8659 35.0379C34.5337 35.4305 33.8913 35.9052 32.6171 35.9505C32.2252 35.9645 31.9189 36.2935 31.9328 36.6854C31.9468 37.0772 32.2758 37.3836 32.6676 37.3696C34.3317 37.3104 35.353 36.6606 35.95 35.955C36.2399 35.6124 36.4161 35.2729 36.5209 35.0153C36.5734 34.8862 36.6086 34.776 36.6314 34.694C36.6428 34.6529 36.6512 34.6187 36.6572 34.5924C36.6602 34.5792 36.6626 34.568 36.6644 34.5589L36.665 34.556L36.6664 34.5497L36.6744 34.5109C36.681 34.4785 36.6898 34.433 36.6998 34.3763C36.7196 34.2632 36.7443 34.1041 36.7649 33.9141C36.8055 33.5392 36.8327 33.0201 36.7647 32.4862C36.7565 32.422 36.7468 32.3565 36.7353 32.2901C36.7331 32.2773 36.7326 32.2642 36.7339 32.2513C36.7947 31.6494 36.7962 30.9245 36.7944 30.1074L36.794 29.9107C36.7934 29.6998 36.7929 29.481 36.7931 29.2539C36.7931 29.1771 36.8551 29.1148 36.9319 29.1143C37.787 29.1089 38.6925 29.111 39.7257 29.1182C40.1178 29.1209 40.4378 28.8052 40.4405 28.4131C40.4432 28.021 40.1276 27.7009 39.7354 27.6982C38.7095 27.6911 37.8074 27.689 36.9552 27.6941C36.8762 27.6946 36.8123 27.6296 36.8145 27.5506C36.8205 27.3299 36.8282 27.1029 36.838 26.8694ZM35.0299 31.7693C35.1404 31.9016 35.2267 32.0826 35.2867 32.3056C35.2915 32.3234 35.2924 32.3423 35.2896 32.3606C35.2207 32.8124 35.1126 33.017 35.0088 33.1219C34.9119 33.2197 34.7114 33.3373 34.1846 33.3517C33.741 33.3638 33.4621 33.2233 33.2944 33.0609C33.1189 32.8909 33.0222 32.6556 33.0173 32.412C33.0125 32.1696 33.0987 31.9386 33.2668 31.7691C33.4288 31.6058 33.716 31.4508 34.204 31.4508C34.663 31.4508 34.8902 31.6019 35.0299 31.7693Z" fill="black"/>
</svg>
