<svg width="54" height="54" viewBox="0 0 54 54" fill="none" xmlns="http://www.w3.org/2000/svg">
<rect x="1.84998" y="1.84998" width="50.3" height="50.3" rx="3" stroke="#8B1EFF" stroke-width="0.28"/>
<path d="M44.1508 7.31647L44.1327 37.3803C44.1267 37.5443 44.1127 37.7072 44.0925 37.8691C44.0725 38.0311 44.0465 38.1932 44.0162 38.3547C43.9852 38.5156 43.9482 38.6746 43.9038 38.8338C43.8607 38.9919 43.8118 39.1489 43.7572 39.3043C43.6392 39.6282 43.4951 39.9433 43.3245 40.2436C43.1515 40.5485 42.9515 40.8376 42.7266 41.1068C42.4995 41.3768 42.2485 41.6258 41.9756 41.8478C41.7015 42.0698 41.4076 42.2658 41.0974 42.43C40.8724 42.5469 40.6373 42.65 40.3981 42.7353C40.2791 42.7773 40.1581 42.8143 40.0359 42.8481C39.9139 42.8821 39.7909 42.9122 39.6678 42.9368C39.5029 42.9717 39.3369 42.9977 39.1689 43.0147L39.1677 43.0143C31.0557 43.5814 22.9137 43.5803 14.8016 43.0129C14.1357 42.9389 13.4807 42.7249 12.8857 42.4037C12.2808 42.0787 11.7397 41.6418 11.2983 41.1209C10.8544 40.596 10.5123 39.9839 10.2732 39.3397C10.1532 39.0187 10.0582 38.6877 9.99024 38.352C9.92127 38.018 9.87732 37.6771 9.8617 37.3371L9.84497 7.31696C9.85803 6.77496 9.95398 6.23102 10.1217 5.71307C10.2057 5.45416 10.3077 5.20209 10.426 4.95844C10.5439 4.71552 10.6801 4.48053 10.8309 4.25616C10.9819 4.03412 11.1489 3.82208 11.3319 3.62469C11.5139 3.42877 11.7098 3.24677 11.9191 3.07953C12.1271 2.91449 12.3481 2.76349 12.5769 2.63031C12.8069 2.49738 13.0459 2.38129 13.2918 2.28302C13.6038 2.16107 13.9287 2.06805 14.2578 2.0036C14.5878 1.93866 14.9227 1.90265 15.2581 1.89581C19.171 1.86481 23.084 1.84869 26.9973 1.84857C30.9103 1.84857 34.8232 1.86469 38.7365 1.89606C39.4144 1.90497 40.0955 2.04205 40.7295 2.29669C41.3785 2.55878 41.9766 2.94574 42.4756 3.43292C42.9895 3.93182 43.3986 4.5379 43.6824 5.19806C43.9703 5.86615 44.1304 6.59113 44.1504 7.31305" stroke="#8B1EFF" stroke-width="0.283" stroke-miterlimit="10"/>
<rect x="12.6791" y="5.50507" width="28.63" height="34.3" rx="1.42" stroke="#00FFFF" stroke-width="0.28"/>
<path d="M42.9527 7.68655C42.9477 12.5515 42.9427 17.4165 42.9386 22.2815L42.9237 36.8775C42.9237 37.1668 42.9027 37.4547 42.8617 37.7408C42.8518 37.8118 42.8397 37.8828 42.8268 37.9538C42.8147 38.0248 42.7998 38.0959 42.7838 38.1668C42.7517 38.3078 42.7147 38.4478 42.6728 38.5847C42.5878 38.8588 42.4818 39.1258 42.3507 39.3838C42.3168 39.4478 42.2827 39.5117 42.2467 39.5749C42.2118 39.6367 42.1748 39.6988 42.1367 39.7598C42.0598 39.8817 41.9778 39.9988 41.8908 40.1118C41.8028 40.2248 41.7097 40.3328 41.6098 40.4378C41.5618 40.4898 41.5098 40.5408 41.4578 40.5909C41.4048 40.6398 41.3518 40.6878 41.2968 40.7348C41.0788 40.9198 40.8448 41.0808 40.5938 41.2148C40.5308 41.2488 40.4668 41.2808 40.4018 41.3108C40.3368 41.3418 40.2708 41.3698 40.2038 41.3968C40.0708 41.4499 39.9368 41.4958 39.7998 41.5338C39.5268 41.6107 39.2467 41.6588 38.9608 41.6787C31.0301 42.2228 22.963 42.2228 15.0331 41.6787C14.7461 41.6585 14.4662 41.6105 14.1931 41.5335C14.0562 41.4955 13.9221 41.4495 13.7892 41.3965C13.7222 41.3695 13.6562 41.3405 13.5912 41.3106C13.5261 41.2805 13.4632 41.2486 13.4002 41.2145C13.1481 41.0805 12.9142 40.9196 12.6962 40.7336C12.6421 40.6875 12.5891 40.6396 12.5362 40.5895C12.4842 40.5406 12.4322 40.4886 12.3832 40.4375C12.2842 40.3326 12.1912 40.2245 12.1042 40.1105C12.0161 39.9986 11.9341 39.8805 11.8572 39.7596C11.8191 39.6985 11.7821 39.6365 11.7471 39.5735C11.7112 39.5115 11.6762 39.4475 11.6442 39.3825C11.5132 39.1255 11.4062 38.8586 11.3222 38.5845C11.2792 38.4466 11.2422 38.3075 11.2112 38.1665C11.1952 38.0955 11.1802 38.0246 11.1671 37.9535C11.1542 37.8825 11.1421 37.8116 11.1321 37.7395C11.0912 37.4545 11.0702 37.1675 11.0698 36.8771C11.0618 27.1471 11.0518 17.4162 11.042 7.68619C11.041 7.38919 11.068 7.0972 11.1231 6.80923C11.15 6.66617 11.1841 6.52322 11.2251 6.38223C11.2461 6.31119 11.2681 6.24124 11.2931 6.17117C11.317 6.10123 11.343 6.03323 11.37 5.96524C11.4801 5.69315 11.6151 5.43619 11.776 5.19315C11.8161 5.13223 11.8581 5.07315 11.901 5.01419C11.9451 4.95523 11.9901 4.89713 12.0371 4.84024C12.13 4.7272 12.2271 4.62015 12.3311 4.51724C12.5371 4.31424 12.7621 4.13223 13.0081 3.97318C13.0691 3.93314 13.1321 3.8942 13.1941 3.85818C13.2581 3.8212 13.3211 3.78714 13.3861 3.7532C13.5141 3.68716 13.646 3.62723 13.7801 3.57413C13.9151 3.52017 14.0531 3.47415 14.192 3.43314C14.2621 3.41324 14.333 3.3942 14.4041 3.37723C14.4751 3.36014 14.547 3.34525 14.619 3.33121C14.9051 3.27713 15.1961 3.2482 15.4896 3.24612C23.1208 3.18521 30.8747 3.18521 38.506 3.24612C38.8 3.24918 39.089 3.27713 39.372 3.33109C39.6549 3.38419 39.933 3.46317 40.205 3.57108C40.273 3.59708 40.341 3.62613 40.407 3.65616C40.474 3.68607 40.539 3.71817 40.6039 3.75113C40.7329 3.81717 40.8579 3.88907 40.9789 3.96817C41.2219 4.12418 41.4469 4.30508 41.657 4.51114C41.709 4.56216 41.7599 4.61514 41.809 4.6691C41.8579 4.72318 41.9059 4.77811 41.953 4.83414C42.0449 4.94608 42.132 5.06314 42.2119 5.18411C42.293 5.30508 42.367 5.43008 42.435 5.56009C42.47 5.62418 42.503 5.69009 42.534 5.75711C42.565 5.82413 42.595 5.89212 42.622 5.96011C42.732 6.23209 42.814 6.51309 42.87 6.80215C42.8839 6.87418 42.8949 6.94717 42.9059 7.02017C42.917 7.09317 42.9259 7.16714 42.9319 7.24112C42.9459 7.38907 42.953 7.53714 42.9527 7.68655Z" stroke="#FF00FF" stroke-width="0.283465" stroke-miterlimit="10" stroke-linecap="round" stroke-linejoin="round"/>
<path d="M20.186 19.9878C19.4478 19.9878 18.9995 19.5132 18.9995 18.7222V10.0379C18.9995 9.96063 18.9368 9.89795 18.8595 9.89795H16.4595C15.8706 9.89795 15.4399 9.47607 15.4399 8.90479C15.4399 8.32471 15.8706 7.90283 16.4595 7.90283H23.9214C24.519 7.90283 24.9409 8.31592 24.9409 8.90479C24.9409 9.48486 24.519 9.89795 23.9214 9.89795H21.5126C21.4352 9.89795 21.3726 9.96063 21.3726 10.0379V18.7222C21.3726 19.5044 20.9155 19.9878 20.186 19.9878Z" fill="black"/>
<path fill-rule="evenodd" clip-rule="evenodd" d="M35 28.418C35.3921 28.418 35.71 28.7358 35.71 29.128C35.71 30.2462 35.8922 31.1751 36.2864 31.926C36.6741 32.6645 37.2913 33.2781 38.2508 33.7362C38.6047 33.9051 38.7546 34.3289 38.5856 34.6828C38.4167 35.0367 37.9929 35.1866 37.639 35.0176C36.426 34.4385 35.5707 33.6177 35.0291 32.586Lnan nanL35.0291 32.586C35.0169 32.5626 34.9831 32.5627 34.9708 32.586Lnan nanL34.9708 32.586C34.4292 33.6177 33.5739 34.4385 32.3609 35.0176C32.007 35.1866 31.5832 35.0367 31.4143 34.6828C31.2453 34.3289 31.3953 33.9051 31.7491 33.7362C32.7086 33.2781 33.3258 32.6645 33.7136 31.926C34.1078 31.1751 34.29 30.2462 34.29 29.128C34.29 28.7358 34.6079 28.418 35 28.418Z" fill="black"/>
</svg>
