<svg width="81" height="54" viewBox="0 0 81 54" fill="none" xmlns="http://www.w3.org/2000/svg">
<rect x="1.85" y="1.8501" width="77.3" height="50.3" rx="3" stroke="#8B1EFF" stroke-width="0.28"/>
<path d="M15.062 42.8653C14.384 42.8083 13.712 42.6192 13.0946 42.3186C12.4726 42.0147 11.9076 41.5987 11.4435 41.0894C10.9785 40.5794 10.6165 39.9773 10.3637 39.3321C10.1107 38.6901 9.96672 38.0071 9.9391 37.3217L9.9231 7.34074C9.9371 6.78972 10.0391 6.23674 10.2164 5.71306C10.3054 5.45 10.4124 5.19609 10.5371 4.95049C10.6621 4.70451 10.8061 4.46855 10.9655 4.24321C11.1245 4.02019 11.3005 3.80815 11.4917 3.61076C11.6817 3.41472 11.8877 3.23369 12.1062 3.06841C12.3232 2.90434 12.5542 2.75639 12.7924 2.62553C13.0314 2.49455 13.2784 2.38054 13.5337 2.28593C13.8537 2.16692 14.1847 2.0789 14.5213 2.01689C14.8573 1.95488 15.1983 1.91997 15.5393 1.91386H15.537C32.181 1.82695 48.825 1.82695 65.4697 1.9135C65.7237 1.9185 65.9777 1.93852 66.2298 1.97429C66.4828 2.0103 66.7328 2.06035 66.9781 2.12712C67.1421 2.17204 67.3041 2.22307 67.4628 2.28178C67.9728 2.47185 68.4578 2.73576 68.8952 3.06511C69.3332 3.39616 69.7222 3.79216 70.0431 4.23686C70.3661 4.68584 70.6211 5.18291 70.7972 5.70769C70.9732 6.23466 71.0692 6.78874 71.0846 7.34062L71.0688 37.3223C71.0398 38.0074 70.8958 38.6954 70.6448 39.3355C70.5178 39.6585 70.3638 39.9695 70.1828 40.2631C70.0008 40.5582 69.7918 40.8371 69.5592 41.0928C69.3262 41.3499 69.0692 41.5829 68.7924 41.7905C68.5154 41.9965 68.2204 42.1775 67.9107 42.3285C67.7557 42.4036 67.5987 42.4716 67.4375 42.5329C67.2775 42.5928 67.1135 42.6448 66.9485 42.6891C66.7835 42.7332 66.6165 42.7682 66.4476 42.7991C66.2806 42.8301 66.1116 42.8561 65.9412 42.8648C57.4672 43.2478 48.9852 43.4388 40.5027 43.4391C32.0207 43.4391 23.5397 43.2471 15.0657 42.865" stroke="#8B1EFF" stroke-width="0.283" stroke-miterlimit="10"/>
<path d="M67.5541 40.8115H13.5141C12.3392 40.8116 11.3872 39.8596 11.3872 38.6855V6.20667C11.3871 5.03308 12.3391 4.08105 13.5141 4.08105H17.0571H64.0101H67.5542C68.7281 4.08105 69.6801 5.03308 69.6801 6.20703V38.6855C69.6801 39.8596 68.7281 40.8115 67.5541 40.8115Z" stroke="#00FFFF" stroke-width="0.28" stroke-miterlimit="10"/>
<path d="M70.1071 36.8346C70.1062 37.1287 70.0842 37.4186 70.0402 37.7067C70.0182 37.8506 69.9901 37.9927 69.9561 38.1347C69.9391 38.2057 69.9212 38.2766 69.9001 38.3477C69.8801 38.4176 69.8592 38.4877 69.8361 38.5576C69.7432 38.8357 69.6272 39.1017 69.4871 39.3546C69.4171 39.4817 69.3411 39.6056 69.2581 39.7256C69.2172 39.7857 69.1742 39.8446 69.1291 39.9037C69.0842 39.9617 69.0381 40.0187 68.9901 40.0746C68.9422 40.1306 68.8942 40.1857 68.8432 40.2387C68.7931 40.2916 68.7411 40.3436 68.6891 40.3937C68.5832 40.4937 68.4731 40.5877 68.3581 40.6767C68.2421 40.7647 68.1222 40.8467 67.9972 40.9226C67.9351 40.9607 67.8701 40.9966 67.8061 41.0316C67.7411 41.0667 67.6761 41.0996 67.6102 41.1306C67.3472 41.2547 67.0731 41.3496 66.7891 41.4176C66.6482 41.4517 66.5031 41.4787 66.3581 41.4987C66.2142 41.5187 66.0672 41.5326 65.9212 41.5386C49.0275 42.2936 32.0076 42.2936 15.1126 41.5386C14.8211 41.525 14.5321 41.486 14.247 41.418C14.1761 41.401 14.1061 41.3821 14.0351 41.3621C13.9651 41.3411 13.8961 41.319 13.8271 41.2951C13.6901 41.2471 13.5561 41.192 13.4241 41.131C13.2931 41.069 13.1651 41.001 13.0401 40.9251C12.9781 40.887 12.9161 40.8471 12.8561 40.806C12.7951 40.7641 12.7361 40.7221 12.6781 40.677C12.4471 40.5 12.2371 40.301 12.0471 40.079C12.0001 40.0231 11.9531 39.9671 11.9091 39.9091C11.8651 39.8511 11.8211 39.791 11.7801 39.7311C11.6971 39.61 11.6191 39.486 11.5491 39.359C11.4791 39.2321 11.4141 39.1021 11.3561 38.968C11.3261 38.901 11.2991 38.834 11.2731 38.766C11.2461 38.697 11.2221 38.6281 11.1991 38.5591C11.1061 38.28 11.0391 37.9971 10.9941 37.709C10.9721 37.5651 10.9551 37.4201 10.9451 37.2741C10.9341 37.1281 10.9281 36.9821 10.9281 36.835C10.9237 31.9846 10.9197 27.1337 10.9147 22.2826C10.9107 17.8727 10.9067 13.4617 10.9017 9.05165C10.9017 8.61061 10.9007 8.16859 10.9007 7.72658C10.8994 7.42177 10.9304 7.12184 10.9904 6.82777C11.0204 6.67982 11.0584 6.53383 11.1034 6.38979C11.1264 6.31776 11.1514 6.24574 11.1784 6.17482C11.2044 6.10378 11.2334 6.03383 11.2634 5.96474C11.3844 5.68874 11.5324 5.42885 11.7084 5.18373C11.7524 5.12282 11.7984 5.06276 11.8454 5.0038C11.8934 4.94484 11.9414 4.88673 11.9924 4.83083C12.0934 4.71877 12.1984 4.61183 12.3094 4.51173C12.4204 4.41078 12.5364 4.31581 12.6564 4.22682C12.7174 4.18178 12.7784 4.13881 12.8414 4.09779C12.9044 4.0558 12.9684 4.01576 13.0334 3.97682C13.2944 3.82179 13.5654 3.69484 13.8484 3.59181C13.9894 3.54079 14.1344 3.49574 14.2804 3.4568C14.4274 3.41884 14.5744 3.38673 14.7234 3.36183C15.0184 3.30983 15.3194 3.28383 15.6225 3.28273C32.1794 3.19679 48.8545 3.19679 65.411 3.28261C65.564 3.28358 65.715 3.29066 65.865 3.3036C66.016 3.31667 66.165 3.33559 66.313 3.36159C66.609 3.41261 66.899 3.48866 67.184 3.59169C67.255 3.61769 67.325 3.64467 67.395 3.6736C67.465 3.70265 67.533 3.73268 67.601 3.76466C67.7371 3.82863 67.867 3.8976 67.995 3.97365C68.251 4.12563 68.492 4.30165 68.717 4.50465C68.773 4.55568 68.828 4.60768 68.882 4.66164C68.936 4.71559 68.988 4.77065 69.038 4.82668C69.14 4.93959 69.235 5.05763 69.322 5.1786C69.498 5.42262 69.648 5.68263 69.769 5.96059C69.8 6.03065 69.828 6.10158 69.855 6.17165C69.882 6.24367 69.906 6.31459 69.929 6.38661C69.975 6.52968 70.0131 6.67567 70.0431 6.82265C70.0731 6.9706 70.096 7.11964 70.1121 7.26967C70.118 7.3456 70.124 7.42165 70.128 7.4977C70.132 7.5746 70.1341 7.65065 70.1338 7.72707L70.1197 22.2831C70.1157 26.693 70.1117 31.104 70.1077 35.5141C70.1067 35.9551 70.1067 36.395 70.1058 36.835" stroke="#FF00FF" stroke-width="0.283465" stroke-miterlimit="10" stroke-linecap="round" stroke-linejoin="round"/>
<path d="M66.4147 44.9193V50.0103H65.7982V45.5657H65.7684L64.5255 46.3909V45.7645L65.7982 44.9193H66.4147ZM68.0155 50.05C67.8929 50.05 67.7876 50.0061 67.6998 49.9183C67.612 49.8304 67.5681 49.7252 67.5681 49.6026C67.5681 49.48 67.612 49.3747 67.6998 49.2869C67.7876 49.1991 67.8929 49.1551 68.0155 49.1551C68.1381 49.1551 68.2434 49.1991 68.3312 49.2869C68.419 49.3747 68.463 49.48 68.463 49.6026C68.463 49.6838 68.4422 49.7584 68.4008 49.8263C68.361 49.8943 68.3072 49.9489 68.2392 49.9904C68.1729 50.0301 68.0984 50.05 68.0155 50.05ZM70.9941 50.0799C70.7025 50.0799 70.4398 50.0219 70.2061 49.9059C69.9725 49.7898 69.7852 49.6308 69.6443 49.4286C69.5035 49.2264 69.4264 48.996 69.4132 48.7375H70.0097C70.0329 48.9679 70.1373 49.1585 70.323 49.3093C70.5102 49.4584 70.7339 49.533 70.9941 49.533C71.2029 49.533 71.3885 49.4841 71.5509 49.3863C71.715 49.2885 71.8434 49.1543 71.9362 48.9836C72.0307 48.8113 72.0779 48.6166 72.0779 48.3995C72.0779 48.1774 72.029 47.9794 71.9313 47.8054C71.8351 47.6297 71.7026 47.4913 71.5335 47.3902C71.3645 47.2891 71.1714 47.2378 70.9543 47.2361C70.7986 47.2344 70.6386 47.2585 70.4746 47.3082C70.3105 47.3563 70.1755 47.4184 70.0694 47.4946L69.4927 47.425L69.8009 44.9193H72.4458V45.4662H70.318L70.139 46.9676H70.1688C70.2732 46.8848 70.4042 46.816 70.5616 46.7613C70.719 46.7066 70.8831 46.6793 71.0538 46.6793C71.3653 46.6793 71.6429 46.7539 71.8865 46.903C72.1318 47.0505 72.324 47.2527 72.4632 47.5095C72.6041 47.7664 72.6745 48.0597 72.6745 48.3895C72.6745 48.7143 72.6016 49.0043 72.4558 49.2595C72.3116 49.5131 72.1127 49.7136 71.8592 49.8611C71.6056 50.0069 71.3173 50.0799 70.9941 50.0799ZM75.3225 50.0799C74.948 50.0799 74.629 49.9779 74.3655 49.7741C74.102 49.5686 73.9006 49.2711 73.7614 48.8817C73.6222 48.4906 73.5526 48.0183 73.5526 47.4648C73.5526 46.9146 73.6222 46.4448 73.7614 46.0554C73.9023 45.6643 74.1045 45.366 74.368 45.1605C74.6331 44.9533 74.9513 44.8497 75.3225 44.8497C75.6937 44.8497 76.0111 44.9533 76.2746 45.1605C76.5397 45.366 76.7419 45.6643 76.8811 46.0554C77.022 46.4448 77.0924 46.9146 77.0924 47.4648C77.0924 48.0183 77.0228 48.4906 76.8836 48.8817C76.7444 49.2711 76.543 49.5686 76.2795 49.7741C76.016 49.9779 75.697 50.0799 75.3225 50.0799ZM75.3225 49.533C75.6937 49.533 75.9821 49.354 76.1876 48.996C76.3931 48.6381 76.4958 48.1277 76.4958 47.4648C76.4958 47.024 76.4486 46.6486 76.3541 46.3387C76.2613 46.0288 76.1271 45.7927 75.9514 45.6303C75.7774 45.4679 75.5678 45.3867 75.3225 45.3867C74.9546 45.3867 74.6671 45.5681 74.4599 45.9311C74.2528 46.2923 74.1492 46.8036 74.1492 47.4648C74.1492 47.9056 74.1956 48.2801 74.2884 48.5884C74.3812 48.8966 74.5146 49.1311 74.6886 49.2919C74.8643 49.4526 75.0756 49.533 75.3225 49.533Z" fill="#0000FF"/>
<path d="M18.9688 25.833C18.5782 25.833 18.3438 25.5937 18.3438 25.1787V19.9102C18.3438 19.8319 18.2803 19.7685 18.2021 19.7685H16.7324C16.3906 19.7685 16.1562 19.5634 16.1562 19.2363C16.1562 18.9092 16.3857 18.7041 16.7324 18.7041H21.21C21.5567 18.7041 21.7862 18.9092 21.7862 19.2363C21.7862 19.5634 21.5518 19.7685 21.21 19.7685H19.7404C19.6621 19.7685 19.5987 19.832 19.5987 19.9102V25.1787C19.5987 25.5937 19.3644 25.833 18.9689 25.833H18.9688Z" fill="black"/>
<path d="M24.5351 23.8312C24.5351 24.4561 23.9786 24.9151 23.295 24.9151C22.7678 24.9151 22.4113 24.6466 22.4113 24.2219C22.4113 23.7972 22.7482 23.5482 23.334 23.5091L24.4824 23.4391C24.5109 23.4374 24.535 23.46 24.535 23.4886V23.8314L24.5351 23.8312ZM23.6172 20.4673C22.6261 20.4673 22.0545 20.8076 21.7622 21.135C21.5929 21.3247 21.5712 21.7241 21.8034 21.9098C22.0748 22.1268 22.5294 21.9644 22.6856 21.7724C22.8258 21.6 23.1406 21.4249 23.5682 21.4193C24.1686 21.4114 24.5349 21.7318 24.5349 22.2737V22.4763C24.5349 22.5026 24.5144 22.5243 24.4881 22.5258L23.1629 22.6013C21.9035 22.6794 21.1956 23.3527 21.1956 24.2705C21.1956 25.1883 21.9255 25.8328 22.9239 25.8328C23.5557 25.8328 24.1716 25.6678 24.478 25.5425C24.5423 25.5162 24.616 25.541 24.6522 25.6003C24.655 25.6048 24.6574 25.6086 24.6594 25.6115C24.7408 25.7274 24.8873 25.8474 25.1453 25.8474C25.4871 25.8474 25.736 25.6277 25.736 25.2372V22.1858C25.736 21.1459 24.9012 20.4673 23.6172 20.4673Z" fill="black"/>
<path d="M30.6965 23.1571C30.6965 24.1778 30.2081 24.8322 29.4219 24.8322C28.6357 24.8322 28.1619 24.1631 28.157 23.1571C28.1619 22.1413 28.6649 21.482 29.4219 21.482C30.1789 21.482 30.6965 22.1315 30.6965 23.1571ZM31.9418 23.1571C31.9418 21.5064 31.1116 20.4857 29.8125 20.4857C29.3308 20.4857 28.7281 20.6919 28.3662 20.8548C28.2726 20.8969 28.1667 20.8281 28.1667 20.7254V19.2453C28.1667 18.835 27.9128 18.6055 27.5562 18.6055C27.1996 18.6055 26.9507 18.835 26.9507 19.2453V25.2229C26.9507 25.6234 27.1948 25.848 27.5416 25.848C27.7403 25.848 27.916 25.776 28.0354 25.6055C28.0458 25.5906 28.0541 25.5744 28.0621 25.5582C28.0937 25.4942 28.1685 25.4645 28.236 25.4874C28.5369 25.5894 29.307 25.8334 29.793 25.8334C31.1067 25.8334 31.9419 24.8127 31.9419 23.1572L31.9418 23.1571Z" fill="black"/>
</svg>
