<svg width="54" height="54" viewBox="0 0 54 54" fill="none" xmlns="http://www.w3.org/2000/svg">
<rect x="1.8501" y="1.8501" width="50.3" height="50.3" rx="3" stroke="#8B1EFF" stroke-width="0.28"/>
<path d="M44.1508 7.31653L44.1327 37.3804C44.1267 37.5443 44.1127 37.7073 44.0925 37.8691C44.0725 38.0311 44.0465 38.1932 44.0162 38.3547C43.9852 38.5156 43.9482 38.6747 43.9038 38.8339C43.8607 38.9919 43.8118 39.1489 43.7572 39.3043C43.6392 39.6283 43.4951 39.9434 43.3245 40.2437C43.1515 40.5486 42.9515 40.8376 42.7266 41.1068C42.4995 41.3768 42.2485 41.6259 41.9756 41.8479C41.7015 42.0698 41.4076 42.2659 41.0974 42.4301C40.8724 42.547 40.6373 42.65 40.3981 42.7354C40.2791 42.7773 40.1581 42.8143 40.0359 42.8481C39.9139 42.8822 39.7909 42.9122 39.6678 42.9369C39.5029 42.9718 39.3369 42.9978 39.1689 43.0148L39.1677 43.0144C31.0557 43.5814 22.9137 43.5803 14.8016 43.0129C14.1357 42.939 13.4807 42.725 12.8857 42.4038C12.2808 42.0787 11.7397 41.6418 11.2983 41.121C10.8544 40.5961 10.5123 39.984 10.2732 39.3397C10.1532 39.0188 10.0582 38.6877 9.99024 38.3521C9.92127 38.0181 9.87732 37.6771 9.8617 37.3372L9.84497 7.31702C9.85803 6.77502 9.95398 6.23108 10.1217 5.71313C10.2057 5.45422 10.3077 5.20215 10.426 4.9585C10.5439 4.71558 10.6801 4.48059 10.8309 4.25623C10.9819 4.03418 11.1489 3.82214 11.3319 3.62476C11.5139 3.42883 11.7098 3.24683 11.9191 3.07959C12.1271 2.91455 12.3481 2.76355 12.5769 2.63037C12.8069 2.49744 13.0459 2.38135 13.2918 2.28308C13.6038 2.16113 13.9287 2.06812 14.2578 2.00366C14.5878 1.93872 14.9227 1.90271 15.2581 1.89587C19.171 1.86487 23.084 1.84875 26.9973 1.84863C30.9103 1.84863 34.8232 1.86475 38.7365 1.89612C39.4144 1.90503 40.0955 2.04211 40.7295 2.29675C41.3785 2.55884 41.9766 2.9458 42.4756 3.43298C42.9895 3.93188 43.3986 4.53796 43.6824 5.19812C43.9703 5.86621 44.1304 6.59119 44.1504 7.31311" stroke="#8B1EFF" stroke-width="0.283" stroke-miterlimit="10"/>
<rect x="12.6792" y="5.50513" width="28.63" height="34.3" rx="1.42" stroke="#00FFFF" stroke-width="0.28"/>
<path d="M42.9527 7.68655C42.9477 12.5515 42.9427 17.4165 42.9386 22.2815L42.9237 36.8775C42.9237 37.1668 42.9027 37.4547 42.8617 37.7408C42.8518 37.8118 42.8397 37.8828 42.8268 37.9538C42.8147 38.0248 42.7998 38.0959 42.7838 38.1668C42.7517 38.3078 42.7147 38.4478 42.6728 38.5847C42.5878 38.8588 42.4818 39.1258 42.3507 39.3838C42.3168 39.4478 42.2827 39.5117 42.2467 39.5749C42.2118 39.6367 42.1748 39.6988 42.1367 39.7598C42.0598 39.8817 41.9778 39.9988 41.8908 40.1118C41.8028 40.2248 41.7097 40.3328 41.6098 40.4378C41.5618 40.4898 41.5098 40.5408 41.4578 40.5909C41.4048 40.6398 41.3518 40.6878 41.2968 40.7348C41.0788 40.9198 40.8448 41.0808 40.5938 41.2148C40.5308 41.2488 40.4668 41.2808 40.4018 41.3108C40.3368 41.3418 40.2708 41.3698 40.2038 41.3968C40.0708 41.4499 39.9368 41.4958 39.7998 41.5338C39.5268 41.6107 39.2467 41.6588 38.9608 41.6787C31.0301 42.2228 22.963 42.2228 15.0331 41.6787C14.7461 41.6585 14.4662 41.6105 14.1931 41.5335C14.0562 41.4955 13.9221 41.4495 13.7892 41.3965C13.7222 41.3695 13.6562 41.3405 13.5912 41.3106C13.5261 41.2805 13.4632 41.2486 13.4002 41.2145C13.1481 41.0805 12.9142 40.9196 12.6962 40.7336C12.6421 40.6875 12.5891 40.6396 12.5362 40.5895C12.4842 40.5406 12.4322 40.4886 12.3832 40.4375C12.2842 40.3326 12.1912 40.2245 12.1042 40.1105C12.0161 39.9986 11.9341 39.8805 11.8572 39.7596C11.8191 39.6985 11.7821 39.6365 11.7471 39.5735C11.7112 39.5115 11.6762 39.4475 11.6442 39.3825C11.5132 39.1255 11.4062 38.8586 11.3222 38.5845C11.2792 38.4466 11.2422 38.3075 11.2112 38.1665C11.1952 38.0955 11.1802 38.0246 11.1671 37.9535C11.1542 37.8825 11.1421 37.8116 11.1321 37.7395C11.0912 37.4545 11.0702 37.1675 11.0698 36.8771C11.0618 27.1471 11.0518 17.4162 11.042 7.68619C11.041 7.38919 11.068 7.0972 11.1231 6.80923C11.15 6.66617 11.1841 6.52322 11.2251 6.38223C11.2461 6.31119 11.2681 6.24124 11.2931 6.17117C11.317 6.10123 11.343 6.03323 11.37 5.96524C11.4801 5.69315 11.6151 5.43619 11.776 5.19315C11.8161 5.13223 11.8581 5.07315 11.901 5.01419C11.9451 4.95523 11.9901 4.89713 12.0371 4.84024C12.13 4.7272 12.2271 4.62015 12.3311 4.51724C12.5371 4.31424 12.7621 4.13223 13.0081 3.97318C13.0691 3.93314 13.1321 3.8942 13.1941 3.85818C13.2581 3.8212 13.3211 3.78714 13.3861 3.7532C13.5141 3.68716 13.646 3.62723 13.7801 3.57413C13.9151 3.52017 14.0531 3.47415 14.192 3.43314C14.2621 3.41324 14.333 3.3942 14.4041 3.37723C14.4751 3.36014 14.547 3.34525 14.619 3.33121C14.9051 3.27713 15.1961 3.2482 15.4896 3.24612C23.1208 3.18521 30.8747 3.18521 38.506 3.24612C38.8 3.24918 39.089 3.27713 39.372 3.33109C39.6549 3.38419 39.933 3.46317 40.205 3.57108C40.273 3.59708 40.341 3.62613 40.407 3.65616C40.474 3.68607 40.539 3.71817 40.6039 3.75113C40.7329 3.81717 40.8579 3.88907 40.9789 3.96817C41.2219 4.12418 41.4469 4.30508 41.657 4.51114C41.709 4.56216 41.7599 4.61514 41.809 4.6691C41.8579 4.72318 41.9059 4.77811 41.953 4.83414C42.0449 4.94608 42.132 5.06314 42.2119 5.18411C42.293 5.30508 42.367 5.43008 42.435 5.56009C42.47 5.62418 42.503 5.69009 42.534 5.75711C42.565 5.82413 42.595 5.89212 42.622 5.96011C42.732 6.23209 42.814 6.51309 42.87 6.80215C42.8839 6.87418 42.8949 6.94717 42.9059 7.02017C42.917 7.09317 42.9259 7.16714 42.9319 7.24112C42.9459 7.38907 42.953 7.53714 42.9527 7.68655Z" stroke="#FF00FF" stroke-width="0.283465" stroke-miterlimit="10" stroke-linecap="round" stroke-linejoin="round"/>
<path d="M25.1343 15.7688C25.1343 18.4231 23.2183 20.1545 20.2915 20.1545C17.2593 20.1545 15.4399 18.4055 15.4399 15.7512V9.08032C15.4399 8.28931 15.8882 7.8147 16.6265 7.8147C17.3647 7.8147 17.8218 8.28931 17.8218 9.08032V15.5227C17.8218 17.1399 18.7534 18.1155 20.2915 18.1155C21.812 18.1155 22.7524 17.1223 22.7524 15.5227V9.08032C22.7524 8.28931 23.2007 7.8147 23.939 7.8147C24.6772 7.8147 25.1343 8.28931 25.1343 9.08032V15.7688Z" fill="black"/>
<path fill-rule="evenodd" clip-rule="evenodd" d="M36.2746 27.1692C36.2746 26.7771 35.9568 26.4592 35.5646 26.4592C35.1725 26.4592 34.8546 26.7771 34.8546 27.1692V29.4185C34.8546 29.4204 34.8531 29.422 34.8511 29.422H30.3479C29.9558 29.422 29.6379 29.7399 29.6379 30.132C29.6379 30.5241 29.9558 30.842 30.3479 30.842H34.6685C34.7491 30.842 34.8131 30.9101 34.8075 30.9905C34.7252 32.1818 34.5292 33.0294 34.1737 33.6758C33.7045 34.5288 32.8946 35.1363 31.3396 35.6578C30.9678 35.7825 30.7675 36.1849 30.8921 36.5567C31.0168 36.9285 31.4193 37.1288 31.791 37.0041C33.5182 36.4249 34.708 35.6508 35.4179 34.3601C35.921 33.4454 36.1475 32.3295 36.2322 30.9742C36.2368 30.9001 36.2981 30.842 36.3724 30.842H39.6522C40.0443 30.842 40.3622 30.5241 40.3622 30.132C40.3622 29.7399 40.0443 29.422 39.6522 29.422H36.2781C36.2762 29.422 36.2746 29.4204 36.2746 29.4185V27.1692Z" fill="black"/>
</svg>
