<svg width="81" height="54" viewBox="0 0 81 54" fill="none" xmlns="http://www.w3.org/2000/svg">
<rect x="1.8501" y="1.84998" width="77.3" height="50.3" rx="3" stroke="#8B1EFF" stroke-width="0.28"/>
<path d="M15.062 42.8655C14.384 42.8085 13.712 42.6194 13.0946 42.3189C12.4726 42.0149 11.9076 41.5989 11.4435 41.0896C10.9785 40.5796 10.6165 39.9776 10.3637 39.3323C10.1107 38.6904 9.96672 38.0074 9.9391 37.3219L9.9231 7.34099C9.9371 6.78996 10.0391 6.23698 10.2164 5.7133C10.3054 5.45024 10.4124 5.19633 10.5371 4.95073C10.6621 4.70476 10.8061 4.4688 10.9655 4.24345C11.1245 4.02043 11.3005 3.8084 11.4917 3.61101C11.6817 3.41496 11.8877 3.23393 12.1062 3.06865C12.3232 2.90459 12.5542 2.75664 12.7924 2.62578C13.0314 2.4948 13.2784 2.38078 13.5337 2.28618C13.8537 2.16716 14.1847 2.07915 14.5213 2.01714C14.8573 1.95512 15.1983 1.92021 15.5393 1.91411H15.537C32.181 1.82719 48.825 1.82719 65.4697 1.91374C65.7237 1.91875 65.9777 1.93877 66.2298 1.97453C66.4828 2.01054 66.7328 2.06059 66.9781 2.12737C67.1421 2.17229 67.3041 2.22331 67.4628 2.28203C67.9728 2.47209 68.4578 2.73601 68.8952 3.06535C69.3332 3.39641 69.7222 3.7924 70.0431 4.23711C70.3661 4.68608 70.6211 5.18315 70.7972 5.70793C70.9732 6.23491 71.0692 6.78899 71.0846 7.34087L71.0688 37.3226C71.0398 38.0076 70.8958 38.6956 70.6448 39.3357C70.5178 39.6587 70.3638 39.9698 70.1828 40.2634C70.0008 40.5584 69.7918 40.8373 69.5592 41.0931C69.3262 41.3501 69.0692 41.5832 68.7924 41.7907C68.5154 41.9967 68.2204 42.1778 67.9107 42.3288C67.7557 42.4039 67.5987 42.4718 67.4375 42.5331C67.2775 42.5931 67.1135 42.6451 66.9485 42.6894C66.7835 42.7334 66.6165 42.7685 66.4476 42.7994C66.2806 42.8304 66.1116 42.8564 65.9412 42.865C57.4672 43.2481 48.9852 43.439 40.5027 43.4394C32.0207 43.4394 23.5397 43.2474 15.0657 42.8653" stroke="#8B1EFF" stroke-width="0.283" stroke-miterlimit="10"/>
<path d="M67.5541 40.8115H13.5141C12.3392 40.8116 11.3872 39.8596 11.3872 38.6855V6.20667C11.3871 5.03308 12.3391 4.08105 13.5141 4.08105H17.0571H64.0101H67.5542C68.7281 4.08105 69.6801 5.03308 69.6801 6.20703V38.6855C69.6801 39.8596 68.7281 40.8115 67.5541 40.8115Z" stroke="#00FFFF" stroke-width="0.28" stroke-miterlimit="10"/>
<path d="M70.1071 36.8346C70.1062 37.1287 70.0842 37.4186 70.0402 37.7067C70.0182 37.8506 69.9901 37.9927 69.9561 38.1347C69.9391 38.2057 69.9212 38.2766 69.9001 38.3477C69.8801 38.4176 69.8592 38.4877 69.8361 38.5576C69.7432 38.8357 69.6272 39.1017 69.4871 39.3546C69.4171 39.4817 69.3411 39.6056 69.2581 39.7256C69.2172 39.7857 69.1742 39.8446 69.1291 39.9037C69.0842 39.9617 69.0381 40.0187 68.9901 40.0746C68.9422 40.1306 68.8942 40.1857 68.8432 40.2387C68.7931 40.2916 68.7411 40.3436 68.6891 40.3937C68.5832 40.4937 68.4731 40.5877 68.3581 40.6767C68.2421 40.7647 68.1222 40.8467 67.9972 40.9226C67.9351 40.9607 67.8701 40.9966 67.8061 41.0316C67.7411 41.0667 67.6761 41.0996 67.6102 41.1306C67.3472 41.2547 67.0731 41.3496 66.7891 41.4176C66.6482 41.4517 66.5031 41.4787 66.3581 41.4987C66.2142 41.5187 66.0672 41.5326 65.9212 41.5386C49.0275 42.2936 32.0076 42.2936 15.1126 41.5386C14.8211 41.525 14.5321 41.486 14.247 41.418C14.1761 41.401 14.1061 41.3821 14.0351 41.3621C13.9651 41.3411 13.8961 41.319 13.8271 41.2951C13.6901 41.2471 13.5561 41.192 13.4241 41.131C13.2931 41.069 13.1651 41.001 13.0401 40.9251C12.9781 40.887 12.9161 40.8471 12.8561 40.806C12.7951 40.7641 12.7361 40.7221 12.6781 40.677C12.4471 40.5 12.2371 40.301 12.0471 40.079C12.0001 40.0231 11.9531 39.9671 11.9091 39.9091C11.8651 39.8511 11.8211 39.791 11.7801 39.7311C11.6971 39.61 11.6191 39.486 11.5491 39.359C11.4791 39.2321 11.4141 39.1021 11.3561 38.968C11.3261 38.901 11.2991 38.834 11.2731 38.766C11.2461 38.697 11.2221 38.6281 11.1991 38.5591C11.1061 38.28 11.0391 37.9971 10.9941 37.709C10.9721 37.5651 10.9551 37.4201 10.9451 37.2741C10.9341 37.1281 10.9281 36.9821 10.9281 36.835C10.9237 31.9846 10.9197 27.1337 10.9147 22.2826C10.9107 17.8727 10.9067 13.4617 10.9017 9.05165C10.9017 8.61061 10.9007 8.16859 10.9007 7.72658C10.8994 7.42177 10.9304 7.12184 10.9904 6.82777C11.0204 6.67982 11.0584 6.53383 11.1034 6.38979C11.1264 6.31776 11.1514 6.24574 11.1784 6.17482C11.2044 6.10378 11.2334 6.03383 11.2634 5.96474C11.3844 5.68874 11.5324 5.42885 11.7084 5.18373C11.7524 5.12282 11.7984 5.06276 11.8454 5.0038C11.8934 4.94484 11.9414 4.88673 11.9924 4.83083C12.0934 4.71877 12.1984 4.61183 12.3094 4.51173C12.4204 4.41078 12.5364 4.31581 12.6564 4.22682C12.7174 4.18178 12.7784 4.13881 12.8414 4.09779C12.9044 4.0558 12.9684 4.01576 13.0334 3.97682C13.2944 3.82179 13.5654 3.69484 13.8484 3.59181C13.9894 3.54079 14.1344 3.49574 14.2804 3.4568C14.4274 3.41884 14.5744 3.38673 14.7234 3.36183C15.0184 3.30983 15.3194 3.28383 15.6225 3.28273C32.1794 3.19679 48.8545 3.19679 65.411 3.28261C65.564 3.28358 65.715 3.29066 65.865 3.3036C66.016 3.31667 66.165 3.33559 66.313 3.36159C66.609 3.41261 66.899 3.48866 67.184 3.59169C67.255 3.61769 67.325 3.64467 67.395 3.6736C67.465 3.70265 67.533 3.73268 67.601 3.76466C67.7371 3.82863 67.867 3.8976 67.995 3.97365C68.251 4.12563 68.492 4.30165 68.717 4.50465C68.773 4.55568 68.828 4.60768 68.882 4.66164C68.936 4.71559 68.988 4.77065 69.038 4.82668C69.14 4.93959 69.235 5.05763 69.322 5.1786C69.498 5.42262 69.648 5.68263 69.769 5.96059C69.8 6.03065 69.828 6.10158 69.855 6.17165C69.882 6.24367 69.906 6.31459 69.929 6.38661C69.975 6.52968 70.0131 6.67567 70.0431 6.82265C70.0731 6.9706 70.096 7.11964 70.1121 7.26967C70.118 7.3456 70.124 7.42165 70.128 7.4977C70.132 7.5746 70.1341 7.65065 70.1338 7.72707L70.1197 22.2831C70.1157 26.693 70.1117 31.104 70.1077 35.5141C70.1067 35.9551 70.1067 36.395 70.1058 36.835" stroke="#FF00FF" stroke-width="0.283465" stroke-miterlimit="10" stroke-linecap="round" stroke-linejoin="round"/>
<path d="M63.0299 35.4991V34.0291C63.0299 33.0891 63.3399 32.9791 63.6699 32.8791C63.9599 32.7891 64.2199 32.6091 64.2199 32.1391C64.2199 31.6291 63.9199 31.4591 63.6499 31.3791C63.3499 31.2891 63.0299 31.1691 63.0299 30.2391V29.0091C63.0299 27.4191 62.1399 26.8491 60.8599 26.8491C60.3399 26.8491 59.8999 26.9391 59.8999 27.4791C59.8999 27.8391 60.0899 27.9691 60.4899 28.0491C60.9699 28.1491 61.4799 28.1891 61.4799 29.2591V30.6891C61.4799 31.3691 61.7199 31.8091 62.1699 32.0191C62.2799 32.0691 62.2799 32.2191 62.1699 32.2791C61.7099 32.5091 61.4699 32.9891 61.4699 33.6691V35.2791C61.4699 36.3591 60.9599 36.3991 60.4799 36.4891C60.0799 36.5691 59.8899 36.6991 59.8899 37.0491C59.8899 37.3791 60.1499 37.6491 60.4799 37.6691C61.9599 37.7891 63.0199 37.2391 63.0199 35.4991H63.0299Z" fill="black"/>
<path d="M20.4405 24.175C19.5265 24.175 18.9377 23.8674 18.9377 23.3841C18.9377 23.0765 19.1398 22.8832 19.4386 22.8832C19.711 22.8832 19.8692 23.0502 20.3262 23.0502C20.7568 23.0502 21.0381 22.8305 21.0381 22.479C21.0381 22.1275 20.7657 21.9517 20.212 21.9517C19.6583 21.9517 19.3332 21.732 19.3332 21.3102C19.3332 21.1531 19.4266 20.7503 19.628 20.22C19.6475 20.1686 19.6138 20.1127 19.5594 20.1055C16.9115 19.7585 15.4399 17.8083 15.4399 14.6346V13.0966C15.4399 9.69562 17.2767 7.67432 20.4492 7.67432C21.9696 7.67432 23.2702 8.14012 24.1227 8.98382C24.7115 9.56382 25.0718 10.2845 25.0718 10.8206C25.0718 11.4182 24.6675 11.8049 24.0875 11.8049C23.6657 11.8049 23.3669 11.6379 22.989 11.1721C22.3211 10.1702 21.5917 9.71322 20.581 9.71322C18.8145 9.71322 17.8215 10.9787 17.8215 13.1934V14.5468C17.8215 16.8493 18.797 18.1061 20.581 18.1061C21.6004 18.1061 22.4002 17.6579 23.0329 16.6736C23.4108 16.2078 23.6744 16.0496 24.0787 16.0496C24.6851 16.0496 25.0806 16.4363 25.0806 17.0251C25.0806 17.6579 24.6324 18.4312 23.9293 19.02C23.2199 19.6429 22.2551 20.0358 21.0851 20.1318C21.0512 20.1346 21.0221 20.1571 21.0112 20.1893L20.7852 20.8574C20.7669 20.9114 20.8059 20.9673 20.8628 20.9696C21.8851 21.0103 22.5144 21.5978 22.5144 22.4877C22.5144 23.4808 21.6531 24.1751 20.4404 24.1751L20.4405 24.175Z" fill="black"/>
</svg>
