<svg width="81" height="54" viewBox="0 0 81 54" fill="none" xmlns="http://www.w3.org/2000/svg">
<path d="M15.0618 42.8655C14.3838 42.8085 13.7118 42.6194 13.0944 42.3189C12.4724 42.0149 11.9074 41.5989 11.4433 41.0896C10.9783 40.5796 10.6163 39.9776 10.3635 39.3323C10.1105 38.6904 9.96648 38.0074 9.93886 37.3219L9.92285 7.34099C9.93686 6.78996 10.0389 6.23698 10.2162 5.7133C10.3052 5.45024 10.4122 5.19633 10.5369 4.95073C10.6619 4.70476 10.8059 4.4688 10.9653 4.24345C11.1243 4.02043 11.3003 3.8084 11.4915 3.61101C11.6815 3.41496 11.8875 3.23393 12.106 3.06865C12.323 2.90459 12.554 2.75664 12.7922 2.62578C13.0312 2.4948 13.2782 2.38078 13.5335 2.28618C13.8535 2.16716 14.1845 2.07915 14.5211 2.01714C14.8571 1.95512 15.1981 1.92021 15.5391 1.91411H15.5368C32.1808 1.82719 48.8247 1.82719 65.4694 1.91374C65.7234 1.91875 65.9774 1.93877 66.2295 1.97453C66.4825 2.01054 66.7325 2.06059 66.9778 2.12737C67.1418 2.17229 67.3038 2.22331 67.4626 2.28203C67.9725 2.47209 68.4575 2.73601 68.895 3.06535C69.3329 3.39641 69.722 3.7924 70.0428 4.23711C70.3658 4.68608 70.6208 5.18315 70.797 5.70793C70.973 6.23491 71.069 6.78899 71.0843 7.34087L71.0685 37.3226C71.0395 38.0076 70.8955 38.6956 70.6446 39.3357C70.5176 39.6587 70.3636 39.9698 70.1826 40.2634C70.0005 40.5584 69.7915 40.8373 69.559 41.0931C69.326 41.3501 69.0689 41.5832 68.7922 41.7907C68.5152 41.9967 68.2202 42.1778 67.9105 42.3288C67.7555 42.4039 67.5984 42.4718 67.4373 42.5331C67.2772 42.5931 67.1132 42.6451 66.9482 42.6894C66.7833 42.7334 66.6162 42.7685 66.4474 42.7994C66.2804 42.8304 66.1114 42.8564 65.9409 42.865C57.4669 43.2481 48.985 43.439 40.5025 43.4394C32.0204 43.4394 23.5395 43.2474 15.0655 42.8653" stroke="#16215B" stroke-width="0.283" stroke-miterlimit="10"/>
<path d="M67.5541 40.8116H13.5141C12.3392 40.8117 11.3872 39.8597 11.3872 38.6856V6.20673C11.3871 5.03314 12.3391 4.08112 13.5141 4.08112H17.0571H64.0101H67.5542C68.7281 4.08112 69.6801 5.03314 69.6801 6.20709V38.6856C69.6801 39.8597 68.7281 40.8116 67.5541 40.8116Z" stroke="#00FFFF" stroke-width="0.28" stroke-miterlimit="10"/>
<path d="M70.1069 36.8347C70.1059 37.1287 70.0839 37.4187 70.0399 37.7067C70.0179 37.8507 69.9899 37.9928 69.9559 38.1347C69.9389 38.2058 69.9209 38.2767 69.8999 38.3477C69.8799 38.4177 69.8589 38.4877 69.8359 38.5577C69.7429 38.8358 69.6269 39.1018 69.4869 39.3547C69.4169 39.4818 69.3409 39.6057 69.2579 39.7257C69.2169 39.7857 69.1739 39.8447 69.1289 39.9038C69.0839 39.9617 69.0379 40.0188 68.9899 40.0747C68.9419 40.1307 68.8939 40.1857 68.8429 40.2387C68.7929 40.2917 68.7409 40.3437 68.6889 40.3938C68.5829 40.4937 68.4729 40.5877 68.3579 40.6767C68.2419 40.7647 68.1219 40.8468 67.9969 40.9227C67.9349 40.9608 67.8699 40.9967 67.8059 41.0317C67.7409 41.0667 67.6759 41.0997 67.6099 41.1307C67.3469 41.2547 67.0729 41.3497 66.7889 41.4177C66.6479 41.4517 66.5029 41.4787 66.3579 41.4987C66.2139 41.5188 66.0669 41.5327 65.9209 41.5387C49.0273 42.2937 32.0073 42.2937 15.1123 41.5387C14.8208 41.5251 14.5318 41.486 14.2468 41.418C14.1758 41.4011 14.1058 41.3822 14.0348 41.3621C13.9648 41.3411 13.8958 41.319 13.8268 41.2951C13.6898 41.2471 13.5558 41.1921 13.4238 41.1311C13.2928 41.069 13.1648 41.0011 13.0398 40.9251C12.9778 40.887 12.9158 40.8471 12.8558 40.8061C12.7948 40.7641 12.7358 40.7221 12.6778 40.6771C12.4468 40.5001 12.2368 40.3011 12.0468 40.0791C11.9998 40.0231 11.9528 39.9671 11.9088 39.9091C11.8648 39.8512 11.8208 39.7911 11.7798 39.7312C11.6968 39.6101 11.6188 39.486 11.5488 39.3591C11.4788 39.2321 11.4138 39.1021 11.3558 38.9681C11.3258 38.9011 11.2988 38.8341 11.2728 38.7661C11.2458 38.6971 11.2218 38.6281 11.1988 38.5592C11.1058 38.2801 11.0388 37.9971 10.9938 37.7091C10.9718 37.5651 10.9548 37.4201 10.9448 37.2741C10.9338 37.1281 10.9278 36.9821 10.9278 36.835C10.9234 31.9847 10.9194 27.1337 10.9144 22.2827C10.9104 17.8728 10.9064 13.4617 10.9014 9.05171C10.9014 8.61067 10.9004 8.16866 10.9004 7.72664C10.8991 7.42183 10.9301 7.1219 10.9901 6.82784C11.0201 6.67989 11.0581 6.53389 11.1031 6.38985C11.1261 6.31783 11.1511 6.2458 11.1781 6.17488C11.2041 6.10384 11.2331 6.03389 11.2631 5.9648C11.3841 5.6888 11.5321 5.42891 11.7081 5.18379C11.7521 5.12288 11.7981 5.06282 11.8451 5.00386C11.8931 4.9449 11.9411 4.8868 11.9921 4.83089C12.0931 4.71883 12.1981 4.61189 12.3091 4.5118C12.4201 4.41084 12.5361 4.31587 12.6561 4.22688C12.7171 4.18184 12.7781 4.13887 12.8411 4.09785C12.9041 4.05586 12.9681 4.01582 13.0331 3.97688C13.2941 3.82185 13.5651 3.6949 13.8481 3.59187C13.9891 3.54085 14.1341 3.4958 14.2801 3.45686C14.4271 3.4189 14.5741 3.3868 14.7231 3.36189C15.0181 3.30989 15.3191 3.28389 15.6222 3.28279C32.1792 3.19685 48.8542 3.19685 65.4108 3.28267C65.5638 3.28365 65.7148 3.29073 65.8648 3.30367C66.0158 3.31673 66.1648 3.33565 66.3128 3.36165C66.6088 3.41267 66.8988 3.48872 67.1838 3.59175C67.2548 3.61775 67.3248 3.64473 67.3948 3.67366C67.4648 3.70271 67.5328 3.73274 67.6008 3.76472C67.7368 3.82869 67.8668 3.89766 67.9948 3.97371C68.2508 4.12569 68.4918 4.30171 68.7168 4.50471C68.7728 4.55574 68.8278 4.60774 68.8818 4.6617C68.9358 4.71565 68.9878 4.77071 69.0378 4.82674C69.1398 4.93965 69.2348 5.05769 69.3218 5.17867C69.4978 5.42268 69.6478 5.68269 69.7688 5.96065C69.7998 6.03072 69.8278 6.10164 69.8548 6.17171C69.8818 6.24373 69.9058 6.31465 69.9288 6.38667C69.9748 6.52974 70.0128 6.67574 70.0428 6.82271C70.0728 6.97066 70.0958 7.11971 70.1118 7.26973C70.1178 7.34566 70.1238 7.42171 70.1278 7.49776C70.1318 7.57466 70.1338 7.65071 70.1335 7.72713L70.1195 22.2832C70.1155 26.6931 70.1115 31.1041 70.1075 35.5141C70.1065 35.9552 70.1065 36.3951 70.1055 36.835" stroke="#FF00FF" stroke-width="0.283465" stroke-miterlimit="10" stroke-linecap="round" stroke-linejoin="round"/>
<path d="M68.4144 46.9191V52.01H67.7979V47.5654H67.7681L66.5252 48.3907V47.7643L67.7979 46.9191H68.4144ZM70.0153 52.0498C69.8926 52.0498 69.7874 52.0059 69.6996 51.918C69.6117 51.8302 69.5678 51.725 69.5678 51.6023C69.5678 51.4797 69.6117 51.3745 69.6996 51.2866C69.7874 51.1988 69.8926 51.1549 70.0153 51.1549C70.1379 51.1549 70.2431 51.1988 70.331 51.2866C70.4188 51.3745 70.4627 51.4797 70.4627 51.6023C70.4627 51.6835 70.442 51.7581 70.4006 51.8261C70.3608 51.894 70.3069 51.9487 70.239 51.9901C70.1727 52.0299 70.0981 52.0498 70.0153 52.0498ZM72.9939 52.0796C72.7022 52.0796 72.4395 52.0216 72.2059 51.9056C71.9722 51.7896 71.7849 51.6305 71.6441 51.4283C71.5032 51.2262 71.4262 50.9958 71.4129 50.7373H72.0095C72.0327 50.9676 72.1371 51.1582 72.3227 51.309C72.51 51.4582 72.7337 51.5327 72.9939 51.5327C73.2027 51.5327 73.3883 51.4838 73.5507 51.3861C73.7148 51.2883 73.8432 51.1541 73.936 50.9834C74.0305 50.811 74.0777 50.6163 74.0777 50.3992C74.0777 50.1771 74.0288 49.9791 73.931 49.8051C73.8349 49.6294 73.7023 49.4911 73.5333 49.39C73.3643 49.2889 73.1712 49.2375 72.9541 49.2359C72.7983 49.2342 72.6384 49.2582 72.4743 49.308C72.3103 49.356 72.1752 49.4182 72.0692 49.4944L71.4925 49.4248L71.8007 46.9191H74.4456V47.466H72.3177L72.1388 48.9674H72.1686C72.273 48.8845 72.4039 48.8158 72.5613 48.7611C72.7188 48.7064 72.8828 48.679 73.0535 48.679C73.3651 48.679 73.6427 48.7536 73.8863 48.9028C74.1315 49.0503 74.3238 49.2524 74.463 49.5093C74.6038 49.7662 74.6743 50.0595 74.6743 50.3893C74.6743 50.7141 74.6014 51.0041 74.4555 51.2593C74.3113 51.5129 74.1125 51.7134 73.8589 51.8609C73.6054 52.0067 73.317 52.0796 72.9939 52.0796ZM77.3223 52.0796C76.9477 52.0796 76.6287 51.9777 76.3652 51.7739C76.1017 51.5684 75.9004 51.2709 75.7612 50.8815C75.622 50.4904 75.5524 50.0181 75.5524 49.4646C75.5524 48.9144 75.622 48.4446 75.7612 48.0551C75.902 47.664 76.1042 47.3657 76.3677 47.1602C76.6329 46.9531 76.9511 46.8495 77.3223 46.8495C77.6935 46.8495 78.0108 46.9531 78.2743 47.1602C78.5395 47.3657 78.7417 47.664 78.8809 48.0551C79.0217 48.4446 79.0922 48.9144 79.0922 49.4646C79.0922 50.0181 79.0225 50.4904 78.8833 50.8815C78.7441 51.2709 78.5428 51.5684 78.2793 51.7739C78.0158 51.9777 77.6968 52.0796 77.3223 52.0796ZM77.3223 51.5327C77.6935 51.5327 77.9818 51.3538 78.1873 50.9958C78.3928 50.6379 78.4956 50.1274 78.4956 49.4646C78.4956 49.0237 78.4483 48.6484 78.3539 48.3385C78.2611 48.0286 78.1268 47.7924 77.9512 47.63C77.7772 47.4676 77.5675 47.3864 77.3223 47.3864C76.9544 47.3864 76.6668 47.5679 76.4597 47.9308C76.2525 48.2921 76.149 48.8033 76.149 49.4646C76.149 49.9054 76.1954 50.2799 76.2882 50.5881C76.381 50.8964 76.5144 51.1309 76.6884 51.2916C76.8641 51.4524 77.0753 51.5327 77.3223 51.5327Z" fill="#0000FF"/>
<path d="M19.2864 24.7685C20.2143 24.7685 20.7075 24.3827 20.7075 23.66C20.7075 22.9373 20.1996 22.5661 19.2327 22.5661H18.0217C17.9434 22.5661 17.88 22.6296 17.88 22.7078V24.6267C17.88 24.705 17.9435 24.7684 18.0217 24.7684H19.2864V24.7685ZM19.0325 21.6724C19.9115 21.6724 20.4047 21.3013 20.4047 20.6469C20.4047 20.0316 19.9798 19.6849 19.2278 19.6849H18.0217C17.9434 19.6849 17.88 19.7484 17.88 19.8266V21.5307C17.88 21.609 17.9435 21.6724 18.0217 21.6724H19.0325ZM16.6201 25.0957V19.3577C16.6201 18.9475 16.8594 18.7033 17.2501 18.7033H19.5453C20.8248 18.7033 21.6501 19.3919 21.6501 20.4613C21.6501 21.1041 21.2738 21.5638 20.9162 21.8619C20.8378 21.9273 20.8529 22.0512 20.9441 22.0972C21.4672 22.3613 21.992 22.928 21.992 23.7479C21.992 24.9883 21.0788 25.7501 19.5747 25.7501H17.2501C16.8594 25.7501 16.6201 25.5059 16.6201 25.0957Z" fill="black"/>
<path d="M26.154 23.8313C26.154 24.4562 25.5975 24.9152 24.9139 24.9152C24.3867 24.9152 24.0302 24.6467 24.0302 24.222C24.0302 23.7973 24.3671 23.5483 24.9529 23.5092L26.1013 23.4392C26.1298 23.4375 26.1539 23.4601 26.1539 23.4887V23.8315L26.154 23.8313ZM25.2361 20.4674C24.245 20.4674 23.6734 20.8077 23.3811 21.1351C23.2118 21.3248 23.1901 21.7242 23.4223 21.9099C23.6937 22.1269 24.1483 21.9645 24.3045 21.7725C24.4447 21.6001 24.7595 21.425 25.1871 21.4194C25.7875 21.4115 26.1538 21.7319 26.1538 22.2738V22.4764C26.1538 22.5027 26.1333 22.5244 26.107 22.5259L24.7818 22.6014C23.5224 22.6795 22.8145 23.3528 22.8145 24.2706C22.8145 25.1884 23.5444 25.8329 24.5428 25.8329C25.1746 25.8329 25.7905 25.6679 26.0969 25.5426C26.1612 25.5163 26.2349 25.5411 26.2711 25.6004C26.2739 25.6049 26.2763 25.6087 26.2783 25.6116C26.3597 25.7275 26.5062 25.8475 26.7642 25.8475C27.106 25.8475 27.3549 25.6278 27.3549 25.2373V22.1859C27.3549 21.146 26.5201 20.4674 25.2361 20.4674Z" fill="black"/>
<path d="M30.6954 25.8526C29.1817 25.8526 28.2051 24.8272 28.2051 23.167C28.2051 21.5068 29.1768 20.4668 30.6856 20.4668C31.7012 20.4668 32.5655 20.9893 32.8145 21.7168C32.8536 21.8193 32.878 21.9219 32.878 22.0098C32.878 22.3125 32.6485 22.4981 32.3555 22.4981C32.1114 22.4981 31.9649 22.3956 31.8233 22.1514C31.5645 21.6778 31.2227 21.4532 30.7198 21.4532C29.9385 21.4532 29.4405 22.1026 29.4405 23.1622C29.4405 24.2218 29.9434 24.8712 30.7149 24.8712C31.252 24.8712 31.584 24.6222 31.8184 24.2071C31.9844 23.9337 32.1163 23.8311 32.3799 23.8311C32.668 23.8311 32.8926 24.0264 32.8926 24.3292C32.8926 24.422 32.8682 24.5245 32.8194 24.6417C32.5313 25.3497 31.6719 25.8526 30.6954 25.8526Z" fill="black"/>
<path d="M34.3531 25.8478C33.9967 25.8478 33.7427 25.6183 33.7427 25.2081V19.2461C33.7427 18.8359 33.9966 18.6064 34.3531 18.6064C34.7096 18.6064 34.9586 18.8359 34.9586 19.2461V22.3881C34.9586 22.514 35.1104 22.5774 35.1999 22.4889L37.0045 20.706C37.1608 20.54 37.2926 20.4716 37.4781 20.4716C37.7808 20.4716 38.0103 20.7011 38.0103 20.9941C38.0103 21.1748 37.9566 21.2871 37.7906 21.4433L36.4106 22.7502C36.3571 22.8009 36.3513 22.8841 36.3974 22.9416L37.9371 24.8662C38.0641 25.042 38.1031 25.1494 38.1031 25.3057C38.1031 25.6231 37.8638 25.8477 37.5269 25.8477C37.2876 25.8477 37.146 25.7647 36.9703 25.5108L35.5131 23.6641C35.4617 23.599 35.3656 23.5917 35.305 23.6484L35.0483 23.8887C34.9911 23.9423 34.9586 24.0172 34.9586 24.0956V25.208C34.9586 25.6182 34.7096 25.8477 34.3531 25.8477V25.8478Z" fill="black"/>
<path d="M53.1325 23.8313C53.1325 24.4562 52.576 24.9152 51.8924 24.9152C51.3652 24.9152 51.0087 24.6467 51.0087 24.222C51.0087 23.7973 51.3456 23.5483 51.9314 23.5092L53.0798 23.4392C53.1083 23.4375 53.1324 23.4601 53.1324 23.4887V23.8315L53.1325 23.8313ZM52.2146 20.4674C51.2235 20.4674 50.6519 20.8077 50.3596 21.1351C50.1903 21.3248 50.1686 21.7242 50.4008 21.9099C50.6722 22.1269 51.1268 21.9645 51.283 21.7725C51.4232 21.6001 51.738 21.425 52.1656 21.4194C52.766 21.4115 53.1323 21.7319 53.1323 22.2738V22.4764C53.1323 22.5027 53.1118 22.5244 53.0855 22.5259L51.7603 22.6014C50.5009 22.6795 49.793 23.3528 49.793 24.2706C49.793 25.1884 50.5229 25.8329 51.5213 25.8329C52.1531 25.8329 52.769 25.6679 53.0754 25.5426C53.1397 25.5163 53.2134 25.5411 53.2496 25.6004C53.2524 25.6049 53.2548 25.6087 53.2568 25.6116C53.3382 25.7275 53.4847 25.8475 53.7427 25.8475C54.0845 25.8475 54.3334 25.6278 54.3334 25.2373V22.1859C54.3334 21.146 53.4986 20.4674 52.2146 20.4674Z" fill="black"/>
<path d="M57.6739 25.8526C56.1602 25.8526 55.1836 24.8272 55.1836 23.167C55.1836 21.5068 56.1553 20.4668 57.6641 20.4668C58.6797 20.4668 59.544 20.9893 59.793 21.7168C59.8321 21.8193 59.8565 21.9219 59.8565 22.0098C59.8565 22.3125 59.627 22.4981 59.334 22.4981C59.0899 22.4981 58.9434 22.3956 58.8018 22.1514C58.543 21.6778 58.2012 21.4532 57.6983 21.4532C56.917 21.4532 56.419 22.1026 56.419 23.1622C56.419 24.2218 56.9219 24.8712 57.6934 24.8712C58.2305 24.8712 58.5625 24.6222 58.7969 24.2071C58.9629 23.9337 59.0948 23.8311 59.3584 23.8311C59.6465 23.8311 59.8711 24.0264 59.8711 24.3292C59.8711 24.422 59.8467 24.5245 59.7979 24.6417C59.5098 25.3497 58.6504 25.8526 57.6739 25.8526Z" fill="black"/>
<path d="M63.9966 22.548H61.9074C61.8168 22.548 61.75 22.4642 61.769 22.3756C61.9056 21.7369 62.3772 21.4093 62.9716 21.4093C63.566 21.4093 64.0201 21.7241 64.1363 22.3824C64.1516 22.4689 64.0845 22.548 63.9966 22.548ZM62.9668 20.4668C61.4726 20.4668 60.5205 21.5312 60.5205 23.1817C60.5205 24.8322 61.4531 25.8526 63.0352 25.8526C63.8354 25.8526 64.4214 25.6748 64.9211 25.1198C65.1448 24.8714 65.0849 24.5007 64.7888 24.3422C64.5394 24.2086 64.2557 24.3367 64.1164 24.4661C63.6737 24.8775 63.3489 24.9151 63.0255 24.9151C62.2793 24.9151 61.7893 24.4304 61.7363 23.6069C61.731 23.5248 61.7954 23.4551 61.8777 23.4551H64.8319C65.1131 23.4551 65.3425 23.2303 65.3489 22.9492C65.3816 21.5063 64.4064 20.4668 62.9668 20.4668Z" fill="black"/>
<path d="M46.5015 24.8363C45.7445 24.8363 45.2415 24.177 45.2366 23.1612C45.2415 22.1552 45.7153 21.4861 46.5015 21.4861C47.2877 21.4861 47.7761 22.1405 47.7761 23.1612C47.7761 24.1868 47.2585 24.8363 46.5015 24.8363ZM49.0214 23.1611C49.0214 21.5055 48.1863 20.4849 46.8725 20.4849C46.3865 20.4849 45.6164 20.7289 45.3155 20.8309C45.248 20.8538 45.1733 20.8241 45.1416 20.7601C45.1336 20.7438 45.1253 20.7276 45.1149 20.7128C44.9956 20.5423 44.8199 20.4703 44.6212 20.4703C44.2744 20.4703 44.0303 20.6949 44.0303 21.0954V26.9511C44.0303 27.3614 44.2793 27.5909 44.6359 27.5909C44.9925 27.5909 45.2464 27.3614 45.2464 26.9511V25.5929C45.2464 25.4902 45.3523 25.4213 45.4459 25.4635C45.8078 25.6264 46.4105 25.8326 46.8922 25.8326C48.1912 25.8326 49.0215 24.8119 49.0215 23.1612L49.0214 23.1611Z" fill="black"/>
<path d="M40.9741 25.8525C39.8803 25.8525 39.1137 25.4326 38.8647 24.8125C38.8305 24.7246 38.8159 24.6465 38.8159 24.5732C38.8159 24.2802 39.0307 24.0947 39.3237 24.0947C39.5239 24.0947 39.6948 24.1875 39.851 24.3926C40.1244 24.7881 40.4369 24.9455 41.018 24.9455C41.5991 24.9455 41.9604 24.7246 41.9604 24.334C41.9604 24.0215 41.7651 23.8506 41.2329 23.7285L40.393 23.5381C39.3822 23.3086 38.8842 22.8106 38.8842 22.0586C38.8842 21.0967 39.7143 20.4668 40.9936 20.4668C41.9897 20.4668 42.7612 20.9551 42.9223 21.5508C42.9369 21.6143 42.9467 21.6729 42.9467 21.7315C42.9467 21.9854 42.7856 22.1661 42.4779 22.1661C42.3021 22.1661 42.1263 22.1026 42.014 21.9415C41.7747 21.5851 41.4769 21.3739 40.9642 21.3739C40.4515 21.3739 40.0658 21.6192 40.0658 21.9903C40.0658 22.293 40.2904 22.4981 40.8275 22.6202L41.6527 22.8009C42.7465 23.0499 43.181 23.4454 43.181 24.212C43.181 25.2032 42.2923 25.8526 40.9739 25.8526H40.9741V25.8525Z" fill="black"/>
</svg>
