<svg width="82" height="54" viewBox="0 0 82 54" fill="none" xmlns="http://www.w3.org/2000/svg">
<rect x="2.8501" y="1.85001" width="77.3" height="50.3" rx="3" stroke="#16215B" stroke-width="0.28"/>
<path d="M15.5618 42.8655C14.8838 42.8085 14.2118 42.6194 13.5944 42.3189C12.9724 42.0149 12.4074 41.5989 11.9433 41.0896C11.4783 40.5796 11.1163 39.9776 10.8635 39.3323C10.6105 38.6904 10.4665 38.0074 10.4389 37.3219L10.4229 7.34099C10.4369 6.78996 10.5389 6.23698 10.7162 5.7133C10.8052 5.45024 10.9122 5.19633 11.0369 4.95073C11.1619 4.70476 11.3059 4.4688 11.4653 4.24345C11.6243 4.02043 11.8003 3.8084 11.9915 3.61101C12.1815 3.41496 12.3875 3.23393 12.606 3.06865C12.823 2.90459 13.054 2.75664 13.2922 2.62578C13.5312 2.4948 13.7782 2.38078 14.0335 2.28618C14.3535 2.16716 14.6845 2.07915 15.0211 2.01714C15.3571 1.95512 15.6981 1.92021 16.0391 1.91411H16.0368C32.6808 1.82719 49.3247 1.82719 65.9694 1.91374C66.2234 1.91875 66.4774 1.93877 66.7295 1.97453C66.9825 2.01054 67.2325 2.06059 67.4778 2.12737C67.6418 2.17229 67.8038 2.22331 67.9626 2.28203C68.4725 2.47209 68.9575 2.73601 69.395 3.06535C69.8329 3.39641 70.222 3.7924 70.5428 4.23711C70.8658 4.68608 71.1208 5.18315 71.297 5.70793C71.473 6.23491 71.569 6.78899 71.5843 7.34087L71.5685 37.3226C71.5395 38.0076 71.3955 38.6956 71.1446 39.3357C71.0176 39.6587 70.8636 39.9698 70.6826 40.2634C70.5005 40.5584 70.2915 40.8373 70.059 41.0931C69.826 41.3501 69.5689 41.5832 69.2922 41.7907C69.0152 41.9967 68.7202 42.1778 68.4105 42.3288C68.2555 42.4039 68.0984 42.4718 67.9373 42.5331C67.7772 42.5931 67.6132 42.6451 67.4482 42.6894C67.2833 42.7334 67.1162 42.7685 66.9474 42.7994C66.7804 42.8304 66.6114 42.8564 66.4409 42.865C57.9669 43.2481 49.485 43.439 41.0025 43.4394C32.5204 43.4394 24.0395 43.2474 15.5655 42.8653" stroke="#16215B" stroke-width="0.283" stroke-miterlimit="10"/>
<path d="M68.0541 40.8116H14.0141C12.8392 40.8117 11.8872 39.8597 11.8872 38.6856V6.20673C11.8871 5.03314 12.8391 4.08112 14.0141 4.08112H17.5571H64.5101H68.0542C69.2281 4.08112 70.1801 5.03314 70.1801 6.20709V38.6856C70.1801 39.8597 69.2281 40.8116 68.0541 40.8116Z" stroke="#00FFFF" stroke-width="0.28" stroke-miterlimit="10"/>
<path d="M70.6069 36.8347C70.6059 37.1287 70.5839 37.4187 70.5399 37.7067C70.5179 37.8507 70.4899 37.9928 70.4559 38.1347C70.4389 38.2058 70.4209 38.2767 70.3999 38.3477C70.3799 38.4177 70.3589 38.4877 70.3359 38.5577C70.2429 38.8358 70.1269 39.1018 69.9869 39.3547C69.9169 39.4818 69.8409 39.6057 69.7579 39.7257C69.7169 39.7857 69.6739 39.8447 69.6289 39.9038C69.5839 39.9617 69.5379 40.0188 69.4899 40.0747C69.4419 40.1307 69.3939 40.1857 69.3429 40.2387C69.2929 40.2917 69.2409 40.3437 69.1889 40.3938C69.0829 40.4937 68.9729 40.5877 68.8579 40.6767C68.7419 40.7647 68.6219 40.8468 68.4969 40.9227C68.4349 40.9608 68.3699 40.9967 68.3059 41.0317C68.2409 41.0667 68.1759 41.0997 68.1099 41.1307C67.8469 41.2547 67.5729 41.3497 67.2889 41.4177C67.1479 41.4517 67.0029 41.4787 66.8579 41.4987C66.7139 41.5188 66.5669 41.5327 66.4209 41.5387C49.5273 42.2937 32.5073 42.2937 15.6123 41.5387C15.3208 41.5251 15.0318 41.486 14.7468 41.418C14.6758 41.4011 14.6058 41.3822 14.5348 41.3621C14.4648 41.3411 14.3958 41.319 14.3268 41.2951C14.1898 41.2471 14.0558 41.1921 13.9238 41.1311C13.7928 41.069 13.6648 41.0011 13.5398 40.9251C13.4778 40.887 13.4158 40.8471 13.3558 40.8061C13.2948 40.7641 13.2358 40.7221 13.1778 40.6771C12.9468 40.5001 12.7368 40.3011 12.5468 40.0791C12.4998 40.0231 12.4528 39.9671 12.4088 39.9091C12.3648 39.8512 12.3208 39.7911 12.2798 39.7312C12.1968 39.6101 12.1188 39.486 12.0488 39.3591C11.9788 39.2321 11.9138 39.1021 11.8558 38.9681C11.8258 38.9011 11.7988 38.8341 11.7728 38.7661C11.7458 38.6971 11.7218 38.6281 11.6988 38.5592C11.6058 38.2801 11.5388 37.9971 11.4938 37.7091C11.4718 37.5651 11.4548 37.4201 11.4448 37.2741C11.4338 37.1281 11.4278 36.9821 11.4278 36.835C11.4234 31.9847 11.4194 27.1337 11.4144 22.2827C11.4104 17.8728 11.4064 13.4617 11.4014 9.05171C11.4014 8.61067 11.4004 8.16866 11.4004 7.72664C11.3991 7.42183 11.4301 7.1219 11.4901 6.82784C11.5201 6.67989 11.5581 6.53389 11.6031 6.38985C11.6261 6.31783 11.6511 6.2458 11.6781 6.17488C11.7041 6.10384 11.7331 6.03389 11.7631 5.9648C11.8841 5.6888 12.0321 5.42891 12.2081 5.18379C12.2521 5.12288 12.2981 5.06282 12.3451 5.00386C12.3931 4.9449 12.4411 4.8868 12.4921 4.83089C12.5931 4.71883 12.6981 4.61189 12.8091 4.5118C12.9201 4.41084 13.0361 4.31587 13.1561 4.22688C13.2171 4.18184 13.2781 4.13887 13.3411 4.09785C13.4041 4.05586 13.4681 4.01582 13.5331 3.97688C13.7941 3.82185 14.0651 3.6949 14.3481 3.59187C14.4891 3.54085 14.6341 3.4958 14.7801 3.45686C14.9271 3.4189 15.0741 3.3868 15.2231 3.36189C15.5181 3.30989 15.8191 3.28389 16.1222 3.28279C32.6792 3.19685 49.3542 3.19685 65.9108 3.28267C66.0638 3.28365 66.2148 3.29073 66.3648 3.30367C66.5158 3.31673 66.6648 3.33565 66.8128 3.36165C67.1088 3.41267 67.3988 3.48872 67.6838 3.59175C67.7548 3.61775 67.8248 3.64473 67.8948 3.67366C67.9648 3.70271 68.0328 3.73274 68.1008 3.76472C68.2368 3.82869 68.3668 3.89766 68.4948 3.97371C68.7508 4.12569 68.9918 4.30171 69.2168 4.50471C69.2728 4.55574 69.3278 4.60774 69.3818 4.6617C69.4358 4.71565 69.4878 4.77071 69.5378 4.82674C69.6398 4.93965 69.7348 5.05769 69.8218 5.17867C69.9978 5.42268 70.1478 5.68269 70.2688 5.96065C70.2998 6.03072 70.3278 6.10164 70.3548 6.17171C70.3818 6.24373 70.4058 6.31465 70.4288 6.38667C70.4748 6.52974 70.5128 6.67574 70.5428 6.82271C70.5728 6.97066 70.5958 7.11971 70.6118 7.26973C70.6178 7.34566 70.6238 7.42171 70.6278 7.49776C70.6318 7.57466 70.6338 7.65071 70.6335 7.72713L70.6195 22.2832C70.6155 26.6931 70.6115 31.1041 70.6075 35.5141C70.6065 35.9552 70.6065 36.3951 70.6055 36.835" stroke="#FF00FF" stroke-width="0.283465" stroke-miterlimit="10" stroke-linecap="round" stroke-linejoin="round"/>
<path d="M66.9144 44.9191V50.01H66.2979V45.5654H66.2681L65.0252 46.3907V45.7643L66.2979 44.9191H66.9144ZM68.5153 50.0498C68.3926 50.0498 68.2874 50.0059 68.1996 49.918C68.1117 49.8302 68.0678 49.725 68.0678 49.6023C68.0678 49.4797 68.1117 49.3745 68.1996 49.2866C68.2874 49.1988 68.3926 49.1549 68.5153 49.1549C68.6379 49.1549 68.7431 49.1988 68.831 49.2866C68.9188 49.3745 68.9627 49.4797 68.9627 49.6023C68.9627 49.6835 68.942 49.7581 68.9006 49.8261C68.8608 49.894 68.8069 49.9487 68.739 49.9901C68.6727 50.0299 68.5981 50.0498 68.5153 50.0498ZM71.4939 50.0796C71.2022 50.0796 70.9395 50.0216 70.7059 49.9056C70.4722 49.7896 70.2849 49.6305 70.1441 49.4283C70.0032 49.2262 69.9262 48.9958 69.9129 48.7373H70.5095C70.5327 48.9676 70.6371 49.1582 70.8227 49.309C71.01 49.4582 71.2337 49.5327 71.4939 49.5327C71.7027 49.5327 71.8883 49.4838 72.0507 49.3861C72.2148 49.2883 72.3432 49.1541 72.436 48.9834C72.5305 48.811 72.5777 48.6163 72.5777 48.3992C72.5777 48.1771 72.5288 47.9791 72.431 47.8051C72.3349 47.6294 72.2023 47.4911 72.0333 47.39C71.8643 47.2889 71.6712 47.2375 71.4541 47.2359C71.2983 47.2342 71.1384 47.2582 70.9743 47.308C70.8103 47.356 70.6752 47.4182 70.5692 47.4944L69.9925 47.4248L70.3007 44.9191H72.9456V45.466H70.8177L70.6388 46.9674H70.6686C70.773 46.8845 70.9039 46.8158 71.0613 46.7611C71.2188 46.7064 71.3828 46.679 71.5535 46.679C71.8651 46.679 72.1427 46.7536 72.3863 46.9028C72.6315 47.0503 72.8238 47.2524 72.963 47.5093C73.1038 47.7662 73.1743 48.0595 73.1743 48.3893C73.1743 48.7141 73.1014 49.0041 72.9555 49.2593C72.8113 49.5129 72.6125 49.7134 72.3589 49.8609C72.1054 50.0067 71.817 50.0796 71.4939 50.0796ZM75.8223 50.0796C75.4477 50.0796 75.1287 49.9777 74.8652 49.7739C74.6017 49.5684 74.4004 49.2709 74.2612 48.8815C74.122 48.4904 74.0524 48.0181 74.0524 47.4646C74.0524 46.9144 74.122 46.4446 74.2612 46.0551C74.402 45.664 74.6042 45.3657 74.8677 45.1602C75.1329 44.9531 75.4511 44.8495 75.8223 44.8495C76.1935 44.8495 76.5108 44.9531 76.7743 45.1602C77.0395 45.3657 77.2417 45.664 77.3809 46.0551C77.5217 46.4446 77.5922 46.9144 77.5922 47.4646C77.5922 48.0181 77.5225 48.4904 77.3833 48.8815C77.2441 49.2709 77.0428 49.5684 76.7793 49.7739C76.5158 49.9777 76.1968 50.0796 75.8223 50.0796ZM75.8223 49.5327C76.1935 49.5327 76.4818 49.3538 76.6873 48.9958C76.8928 48.6379 76.9956 48.1274 76.9956 47.4646C76.9956 47.0237 76.9483 46.6484 76.8539 46.3385C76.7611 46.0286 76.6268 45.7924 76.4512 45.63C76.2772 45.4676 76.0675 45.3864 75.8223 45.3864C75.4544 45.3864 75.1668 45.5679 74.9597 45.9308C74.7525 46.2921 74.649 46.8033 74.649 47.4646C74.649 47.9054 74.6954 48.2799 74.7882 48.5881C74.881 48.8964 75.0144 49.1309 75.1884 49.2916C75.3641 49.4524 75.5753 49.5327 75.8223 49.5327Z" fill="#0000FF"/>
<path fill-rule="evenodd" clip-rule="evenodd" d="M22.695 16.9961C22.5188 16.9961 22.3507 17.0645 22.227 17.1882L18.117 21.2982C17.8543 21.5609 17.8543 21.9714 18.117 22.2341L18.1183 22.2353L22.227 26.3641C22.3507 26.4874 22.5191 26.5561 22.695 26.5561H31.775C32.1194 26.5561 32.395 26.2775 32.395 25.9361V17.6161C32.395 17.2717 32.1164 16.9961 31.775 16.9961H22.695ZM21.223 16.1841C21.6193 15.7878 22.1512 15.5761 22.695 15.5761H31.775C32.8936 15.5761 33.815 16.4805 33.815 17.6161V25.9361C33.815 27.0548 32.9106 27.9761 31.775 27.9761H22.695C22.1512 27.9761 21.6193 27.7645 21.223 27.3682L21.2217 27.367L17.113 23.2382L17.1122 23.2374C16.2957 22.4201 16.2959 21.1111 17.113 20.2941L21.223 16.1841ZM29.7871 18.9941C30.0644 19.2714 30.0644 19.7209 29.7871 19.9982L28.1213 21.664C28.0666 21.7187 28.0666 21.8075 28.1214 21.8621L29.7865 23.5236C30.0641 23.8005 30.0646 24.2501 29.7876 24.5277C29.5107 24.8052 29.0611 24.8057 28.7835 24.5288L27.1171 22.866C27.0624 22.8114 26.9738 22.8115 26.9192 22.8661L25.2571 24.5282C24.9798 24.8055 24.5303 24.8055 24.253 24.5282C23.9757 24.2509 23.9757 23.8014 24.253 23.5241L25.9138 21.8633C25.9685 21.8086 25.9685 21.7199 25.9137 21.6652L24.2435 19.9988C23.966 19.7218 23.9655 19.2722 24.2424 18.9947C24.5194 18.7171 24.9689 18.7166 25.2465 18.9936L26.918 20.6614C26.9727 20.7159 27.0612 20.7159 27.1159 20.6612L28.783 18.9941C29.0603 18.7168 29.5098 18.7168 29.7871 18.9941Z" fill="black"/>
<path d="M39.7864 24.7685C40.7143 24.7685 41.2075 24.3827 41.2075 23.66C41.2075 22.9373 40.6996 22.5661 39.7327 22.5661H38.5217C38.4434 22.5661 38.38 22.6296 38.38 22.7078V24.6267C38.38 24.705 38.4435 24.7684 38.5217 24.7684H39.7864V24.7685ZM39.5325 21.6724C40.4115 21.6724 40.9047 21.3013 40.9047 20.6469C40.9047 20.0316 40.4798 19.6849 39.7278 19.6849H38.5217C38.4434 19.6849 38.38 19.7484 38.38 19.8266V21.5307C38.38 21.609 38.4435 21.6724 38.5217 21.6724H39.5325ZM37.1201 25.0957V19.3577C37.1201 18.9475 37.3594 18.7033 37.7501 18.7033H40.0453C41.3248 18.7033 42.1501 19.3919 42.1501 20.4613C42.1501 21.1041 41.7738 21.5638 41.4162 21.8619C41.3378 21.9273 41.3529 22.0512 41.4441 22.0972C41.9672 22.3613 42.492 22.928 42.492 23.7479C42.492 24.9883 41.5788 25.7501 40.0747 25.7501H37.7501C37.3594 25.7501 37.1201 25.5059 37.1201 25.0957Z" fill="black"/>
<path d="M46.654 23.8313C46.654 24.4562 46.0975 24.9152 45.4139 24.9152C44.8867 24.9152 44.5302 24.6467 44.5302 24.222C44.5302 23.7973 44.8671 23.5483 45.4529 23.5092L46.6013 23.4392C46.6298 23.4375 46.6539 23.4601 46.6539 23.4887V23.8315L46.654 23.8313ZM45.7361 20.4674C44.745 20.4674 44.1734 20.8077 43.8811 21.1351C43.7118 21.3248 43.6901 21.7242 43.9223 21.9099C44.1937 22.1269 44.6483 21.9645 44.8045 21.7725C44.9447 21.6001 45.2595 21.425 45.6871 21.4194C46.2875 21.4115 46.6538 21.7319 46.6538 22.2738V22.4764C46.6538 22.5027 46.6333 22.5244 46.607 22.5259L45.2818 22.6014C44.0224 22.6795 43.3145 23.3528 43.3145 24.2706C43.3145 25.1884 44.0444 25.8329 45.0428 25.8329C45.6746 25.8329 46.2905 25.6679 46.5969 25.5426C46.6612 25.5163 46.7349 25.5411 46.7711 25.6004C46.7739 25.6049 46.7763 25.6087 46.7783 25.6116C46.8597 25.7275 47.0062 25.8475 47.2642 25.8475C47.606 25.8475 47.8549 25.6278 47.8549 25.2373V22.1859C47.8549 21.146 47.0201 20.4674 45.7361 20.4674Z" fill="black"/>
<path d="M51.1954 25.8526C49.6817 25.8526 48.7051 24.8272 48.7051 23.167C48.7051 21.5068 49.6768 20.4668 51.1856 20.4668C52.2012 20.4668 53.0655 20.9893 53.3145 21.7168C53.3536 21.8193 53.378 21.9219 53.378 22.0098C53.378 22.3125 53.1485 22.4981 52.8555 22.4981C52.6114 22.4981 52.4649 22.3956 52.3233 22.1514C52.0645 21.6778 51.7227 21.4532 51.2198 21.4532C50.4385 21.4532 49.9405 22.1026 49.9405 23.1622C49.9405 24.2218 50.4434 24.8712 51.2149 24.8712C51.752 24.8712 52.084 24.6222 52.3184 24.2071C52.4844 23.9337 52.6163 23.8311 52.8799 23.8311C53.168 23.8311 53.3926 24.0264 53.3926 24.3292C53.3926 24.422 53.3682 24.5245 53.3194 24.6417C53.0313 25.3497 52.1719 25.8526 51.1954 25.8526Z" fill="black"/>
<path d="M54.8531 25.8478C54.4967 25.8478 54.2427 25.6183 54.2427 25.2081V19.2461C54.2427 18.8359 54.4966 18.6064 54.8531 18.6064C55.2096 18.6064 55.4586 18.8359 55.4586 19.2461V22.3881C55.4586 22.514 55.6104 22.5774 55.6999 22.4889L57.5045 20.706C57.6608 20.54 57.7926 20.4716 57.9781 20.4716C58.2808 20.4716 58.5103 20.7011 58.5103 20.9941C58.5103 21.1748 58.4566 21.2871 58.2906 21.4433L56.9106 22.7502C56.8571 22.8009 56.8513 22.8841 56.8974 22.9416L58.4371 24.8662C58.5641 25.042 58.6031 25.1494 58.6031 25.3057C58.6031 25.6231 58.3638 25.8477 58.0269 25.8477C57.7876 25.8477 57.646 25.7647 57.4703 25.5108L56.0131 23.6641C55.9617 23.599 55.8656 23.5917 55.805 23.6484L55.5483 23.8887C55.4911 23.9423 55.4586 24.0172 55.4586 24.0956V25.208C55.4586 25.6182 55.2096 25.8477 54.8531 25.8477V25.8478Z" fill="black"/>
</svg>
