<svg width="81" height="54" viewBox="0 0 81 54" fill="none" xmlns="http://www.w3.org/2000/svg">
<path d="M15.0618 42.8655C14.3838 42.8085 13.7118 42.6194 13.0944 42.3189C12.4724 42.0149 11.9074 41.5989 11.4433 41.0896C10.9783 40.5796 10.6163 39.9776 10.3635 39.3323C10.1105 38.6904 9.96648 38.0074 9.93886 37.3219L9.92285 7.34099C9.93686 6.78996 10.0389 6.23698 10.2162 5.7133C10.3052 5.45024 10.4122 5.19633 10.5369 4.95073C10.6619 4.70476 10.8059 4.4688 10.9653 4.24345C11.1243 4.02043 11.3003 3.8084 11.4915 3.61101C11.6815 3.41496 11.8875 3.23393 12.106 3.06865C12.323 2.90459 12.554 2.75664 12.7922 2.62578C13.0312 2.4948 13.2782 2.38078 13.5335 2.28618C13.8535 2.16716 14.1845 2.07915 14.5211 2.01714C14.8571 1.95512 15.1981 1.92021 15.5391 1.91411H15.5368C32.1808 1.82719 48.8247 1.82719 65.4694 1.91374C65.7234 1.91875 65.9774 1.93877 66.2295 1.97453C66.4825 2.01054 66.7325 2.06059 66.9778 2.12737C67.1418 2.17229 67.3038 2.22331 67.4626 2.28203C67.9725 2.47209 68.4575 2.73601 68.895 3.06535C69.3329 3.39641 69.722 3.7924 70.0428 4.23711C70.3658 4.68608 70.6208 5.18315 70.797 5.70793C70.973 6.23491 71.069 6.78899 71.0843 7.34087L71.0685 37.3226C71.0395 38.0076 70.8955 38.6956 70.6446 39.3357C70.5176 39.6587 70.3636 39.9698 70.1826 40.2634C70.0005 40.5584 69.7915 40.8373 69.559 41.0931C69.326 41.3501 69.0689 41.5832 68.7922 41.7907C68.5152 41.9967 68.2202 42.1778 67.9105 42.3288C67.7555 42.4039 67.5984 42.4718 67.4373 42.5331C67.2772 42.5931 67.1132 42.6451 66.9482 42.6894C66.7833 42.7334 66.6162 42.7685 66.4474 42.7994C66.2804 42.8304 66.1114 42.8564 65.9409 42.865C57.4669 43.2481 48.985 43.439 40.5025 43.4394C32.0204 43.4394 23.5395 43.2474 15.0655 42.8653" stroke="#16215B" stroke-width="0.283" stroke-miterlimit="10"/>
<path d="M67.5541 40.8115H13.5141C12.3392 40.8116 11.3872 39.8596 11.3872 38.6855V6.20667C11.3871 5.03308 12.3391 4.08105 13.5141 4.08105H17.0571H64.0101H67.5542C68.7281 4.08105 69.6801 5.03308 69.6801 6.20703V38.6855C69.6801 39.8596 68.7281 40.8115 67.5541 40.8115Z" stroke="#00FFFF" stroke-width="0.28" stroke-miterlimit="10"/>
<path d="M70.1069 36.8346C70.1059 37.1287 70.0839 37.4186 70.0399 37.7067C70.0179 37.8506 69.9899 37.9927 69.9559 38.1347C69.9389 38.2057 69.9209 38.2766 69.8999 38.3477C69.8799 38.4176 69.8589 38.4877 69.8359 38.5576C69.7429 38.8357 69.6269 39.1017 69.4869 39.3546C69.4169 39.4817 69.3409 39.6056 69.2579 39.7256C69.2169 39.7857 69.1739 39.8446 69.1289 39.9037C69.0839 39.9617 69.0379 40.0187 68.9899 40.0746C68.9419 40.1306 68.8939 40.1857 68.8429 40.2387C68.7929 40.2916 68.7409 40.3436 68.6889 40.3937C68.5829 40.4937 68.4729 40.5877 68.3579 40.6767C68.2419 40.7647 68.1219 40.8467 67.9969 40.9226C67.9349 40.9607 67.8699 40.9966 67.8059 41.0316C67.7409 41.0667 67.6759 41.0996 67.6099 41.1306C67.3469 41.2547 67.0729 41.3496 66.7889 41.4176C66.6479 41.4517 66.5029 41.4787 66.3579 41.4987C66.2139 41.5187 66.0669 41.5326 65.9209 41.5386C49.0273 42.2936 32.0073 42.2936 15.1123 41.5386C14.8208 41.525 14.5318 41.486 14.2468 41.418C14.1758 41.401 14.1058 41.3821 14.0348 41.3621C13.9648 41.3411 13.8958 41.319 13.8268 41.2951C13.6898 41.2471 13.5558 41.192 13.4238 41.131C13.2928 41.069 13.1648 41.001 13.0398 40.9251C12.9778 40.887 12.9158 40.8471 12.8558 40.806C12.7948 40.7641 12.7358 40.7221 12.6778 40.677C12.4468 40.5 12.2368 40.301 12.0468 40.079C11.9998 40.0231 11.9528 39.9671 11.9088 39.9091C11.8648 39.8511 11.8208 39.791 11.7798 39.7311C11.6968 39.61 11.6188 39.486 11.5488 39.359C11.4788 39.2321 11.4138 39.1021 11.3558 38.968C11.3258 38.901 11.2988 38.834 11.2728 38.766C11.2458 38.697 11.2218 38.6281 11.1988 38.5591C11.1058 38.28 11.0388 37.9971 10.9938 37.709C10.9718 37.5651 10.9548 37.4201 10.9448 37.2741C10.9338 37.1281 10.9278 36.9821 10.9278 36.835C10.9234 31.9846 10.9194 27.1337 10.9144 22.2826C10.9104 17.8727 10.9064 13.4617 10.9014 9.05165C10.9014 8.61061 10.9004 8.16859 10.9004 7.72658C10.8991 7.42177 10.9301 7.12184 10.9901 6.82777C11.0201 6.67982 11.0581 6.53383 11.1031 6.38979C11.1261 6.31776 11.1511 6.24574 11.1781 6.17482C11.2041 6.10378 11.2331 6.03383 11.2631 5.96474C11.3841 5.68874 11.5321 5.42885 11.7081 5.18373C11.7521 5.12282 11.7981 5.06276 11.8451 5.0038C11.8931 4.94484 11.9411 4.88673 11.9921 4.83083C12.0931 4.71877 12.1981 4.61183 12.3091 4.51173C12.4201 4.41078 12.5361 4.31581 12.6561 4.22682C12.7171 4.18178 12.7781 4.13881 12.8411 4.09779C12.9041 4.0558 12.9681 4.01576 13.0331 3.97682C13.2941 3.82179 13.5651 3.69484 13.8481 3.59181C13.9891 3.54079 14.1341 3.49574 14.2801 3.4568C14.4271 3.41884 14.5741 3.38673 14.7231 3.36183C15.0181 3.30983 15.3191 3.28383 15.6222 3.28273C32.1792 3.19679 48.8542 3.19679 65.4108 3.28261C65.5638 3.28358 65.7148 3.29066 65.8648 3.3036C66.0158 3.31667 66.1648 3.33559 66.3128 3.36159C66.6088 3.41261 66.8988 3.48866 67.1838 3.59169C67.2548 3.61769 67.3248 3.64467 67.3948 3.6736C67.4648 3.70265 67.5328 3.73268 67.6008 3.76466C67.7368 3.82863 67.8668 3.8976 67.9948 3.97365C68.2508 4.12563 68.4918 4.30165 68.7168 4.50465C68.7728 4.55568 68.8278 4.60768 68.8818 4.66164C68.9358 4.71559 68.9878 4.77065 69.0378 4.82668C69.1398 4.93959 69.2348 5.05763 69.3218 5.1786C69.4978 5.42262 69.6478 5.68263 69.7688 5.96059C69.7998 6.03065 69.8278 6.10158 69.8548 6.17165C69.8818 6.24367 69.9058 6.31459 69.9288 6.38661C69.9748 6.52968 70.0128 6.67567 70.0428 6.82265C70.0728 6.9706 70.0958 7.11964 70.1118 7.26967C70.1178 7.3456 70.1238 7.42165 70.1278 7.4977C70.1318 7.5746 70.1338 7.65065 70.1335 7.72707L70.1195 22.2831C70.1155 26.693 70.1115 31.104 70.1075 35.5141C70.1065 35.9551 70.1065 36.395 70.1055 36.835" stroke="#FF00FF" stroke-width="0.283465" stroke-miterlimit="10" stroke-linecap="round" stroke-linejoin="round"/>
<path d="M68.4144 46.9191V52.01H67.7979V47.5654H67.7681L66.5252 48.3907V47.7643L67.7979 46.9191H68.4144ZM70.0153 52.0498C69.8926 52.0498 69.7874 52.0059 69.6996 51.918C69.6117 51.8302 69.5678 51.725 69.5678 51.6023C69.5678 51.4797 69.6117 51.3745 69.6996 51.2866C69.7874 51.1988 69.8926 51.1549 70.0153 51.1549C70.1379 51.1549 70.2431 51.1988 70.331 51.2866C70.4188 51.3745 70.4627 51.4797 70.4627 51.6023C70.4627 51.6835 70.442 51.7581 70.4006 51.8261C70.3608 51.894 70.3069 51.9487 70.239 51.9901C70.1727 52.0299 70.0981 52.0498 70.0153 52.0498ZM72.9939 52.0796C72.7022 52.0796 72.4395 52.0216 72.2059 51.9056C71.9722 51.7896 71.7849 51.6305 71.6441 51.4283C71.5032 51.2262 71.4262 50.9958 71.4129 50.7373H72.0095C72.0327 50.9676 72.1371 51.1582 72.3227 51.309C72.51 51.4582 72.7337 51.5327 72.9939 51.5327C73.2027 51.5327 73.3883 51.4838 73.5507 51.3861C73.7148 51.2883 73.8432 51.1541 73.936 50.9834C74.0305 50.811 74.0777 50.6163 74.0777 50.3992C74.0777 50.1771 74.0288 49.9791 73.931 49.8051C73.8349 49.6294 73.7023 49.4911 73.5333 49.39C73.3643 49.2889 73.1712 49.2375 72.9541 49.2359C72.7983 49.2342 72.6384 49.2582 72.4743 49.308C72.3103 49.356 72.1752 49.4182 72.0692 49.4944L71.4925 49.4248L71.8007 46.9191H74.4456V47.466H72.3177L72.1388 48.9674H72.1686C72.273 48.8845 72.4039 48.8158 72.5613 48.7611C72.7188 48.7064 72.8828 48.679 73.0535 48.679C73.3651 48.679 73.6427 48.7536 73.8863 48.9028C74.1315 49.0503 74.3238 49.2524 74.463 49.5093C74.6038 49.7662 74.6743 50.0595 74.6743 50.3893C74.6743 50.7141 74.6014 51.0041 74.4555 51.2593C74.3113 51.5129 74.1125 51.7134 73.8589 51.8609C73.6054 52.0067 73.317 52.0796 72.9939 52.0796ZM77.3223 52.0796C76.9477 52.0796 76.6287 51.9777 76.3652 51.7739C76.1017 51.5684 75.9004 51.2709 75.7612 50.8815C75.622 50.4904 75.5524 50.0181 75.5524 49.4646C75.5524 48.9144 75.622 48.4446 75.7612 48.0551C75.902 47.664 76.1042 47.3657 76.3677 47.1602C76.6329 46.9531 76.9511 46.8495 77.3223 46.8495C77.6935 46.8495 78.0108 46.9531 78.2743 47.1602C78.5395 47.3657 78.7417 47.664 78.8809 48.0551C79.0217 48.4446 79.0922 48.9144 79.0922 49.4646C79.0922 50.0181 79.0225 50.4904 78.8833 50.8815C78.7441 51.2709 78.5428 51.5684 78.2793 51.7739C78.0158 51.9777 77.6968 52.0796 77.3223 52.0796ZM77.3223 51.5327C77.6935 51.5327 77.9818 51.3538 78.1873 50.9958C78.3928 50.6379 78.4956 50.1274 78.4956 49.4646C78.4956 49.0237 78.4483 48.6484 78.3539 48.3385C78.2611 48.0286 78.1268 47.7924 77.9512 47.63C77.7772 47.4676 77.5675 47.3864 77.3223 47.3864C76.9544 47.3864 76.6668 47.5679 76.4597 47.9308C76.2525 48.2921 76.149 48.8033 76.149 49.4646C76.149 49.9054 76.1954 50.2799 76.2882 50.5881C76.381 50.8964 76.5144 51.1309 76.6884 51.2916C76.8641 51.4524 77.0753 51.5327 77.3223 51.5327Z" fill="#0000FF"/>
<path d="M19.2862 24.7688H18.0216C17.9433 24.7688 17.8799 24.7053 17.8799 24.6271V22.7084C17.8799 22.6301 17.9434 22.5667 18.0216 22.5667H19.2325C20.1993 22.5667 20.7071 22.9427 20.7071 23.6605C20.7071 24.3783 20.2139 24.7689 19.2862 24.7689V24.7688ZM17.8799 19.8274C17.8799 19.7491 17.9434 19.6857 18.0216 19.6857H19.2276C19.9796 19.6857 20.4044 20.0324 20.4044 20.6476C20.4044 21.3019 19.9112 21.673 19.0323 21.673H18.0216C17.9433 21.673 17.8799 21.6095 17.8799 21.5313V19.8274ZM20.8385 22.1239C20.7218 22.083 20.7101 21.924 20.8188 21.865C21.3098 21.5985 21.6495 21.0505 21.6495 20.4619C21.6495 19.3926 20.8242 18.7041 19.5449 18.7041H17.25C16.8594 18.7041 16.6201 18.9482 16.6201 19.3584V25.0958C16.6201 25.506 16.8594 25.7501 17.25 25.7501H19.5742C21.0781 25.7501 21.9912 24.9884 21.9912 23.7481C21.9912 22.9785 21.5356 22.3683 20.8385 22.1239Z" fill="black"/>
<path d="M25.2358 20.4668C24.2446 20.4668 23.673 20.8071 23.3807 21.1346C23.2114 21.3243 23.1897 21.7238 23.4219 21.9095C23.6933 22.1265 24.148 21.9641 24.3042 21.7721C24.4444 21.5997 24.7592 21.4246 25.1869 21.419C25.7874 21.4111 26.1537 21.7315 26.1537 22.2735V22.533C26.1537 22.5593 26.1332 22.581 26.1069 22.5825L24.7816 22.658C23.522 22.736 22.814 23.3525 22.814 24.2704C22.814 25.1883 23.544 25.8329 24.5425 25.8329C25.2668 25.8329 25.8036 25.6048 26.0438 25.4795C26.1138 25.443 26.1993 25.4711 26.2356 25.5412C26.3036 25.6725 26.4527 25.8475 26.7641 25.8475C27.1059 25.8475 27.3549 25.6278 27.3549 25.2372V22.1855C27.3549 21.1455 26.52 20.4668 25.2358 20.4668ZM26.1538 23.831C26.1538 24.456 25.5972 24.915 24.9136 24.915C24.3863 24.915 24.0298 24.6465 24.0298 24.2217C24.0298 23.7969 24.3667 23.5479 24.9526 23.5088L26.1011 23.4388C26.1296 23.4371 26.1537 23.4597 26.1537 23.4883V23.8311L26.1538 23.831Z" fill="black"/>
<path d="M30.6954 25.8526C29.1817 25.8526 28.2051 24.8272 28.2051 23.167C28.2051 21.5068 29.1768 20.4668 30.6856 20.4668C31.7012 20.4668 32.5655 20.9893 32.8145 21.7168C32.8536 21.8193 32.878 21.9219 32.878 22.0098C32.878 22.3125 32.6485 22.4981 32.3555 22.4981C32.1114 22.4981 31.9649 22.3956 31.8233 22.1514C31.5645 21.6778 31.2227 21.4532 30.7198 21.4532C29.9385 21.4532 29.4405 22.1026 29.4405 23.1622C29.4405 24.2218 29.9434 24.8712 30.7149 24.8712C31.252 24.8712 31.584 24.6222 31.8184 24.2071C31.9844 23.9337 32.1163 23.8311 32.3799 23.8311C32.668 23.8311 32.8926 24.0264 32.8926 24.3292C32.8926 24.422 32.8682 24.5245 32.8194 24.6417C32.5313 25.3497 31.6719 25.8526 30.6954 25.8526Z" fill="black"/>
<path d="M34.3531 25.8478C33.9967 25.8478 33.7427 25.6183 33.7427 25.2081V19.2461C33.7427 18.8359 33.9966 18.6064 34.3531 18.6064C34.7096 18.6064 34.9586 18.8359 34.9586 19.2461V22.3881C34.9586 22.514 35.1104 22.5774 35.1999 22.4889L37.0045 20.706C37.1608 20.54 37.2926 20.4716 37.4781 20.4716C37.7808 20.4716 38.0103 20.7011 38.0103 20.9941C38.0103 21.1748 37.9566 21.2871 37.7906 21.4433L36.4106 22.7502C36.3571 22.8009 36.3513 22.8841 36.3974 22.9416L37.9371 24.8662C38.0641 25.042 38.1031 25.1494 38.1031 25.3057C38.1031 25.6231 37.8638 25.8477 37.5269 25.8477C37.2876 25.8477 37.146 25.7647 36.9703 25.5108L35.5131 23.6641C35.4617 23.599 35.3656 23.5917 35.305 23.6484L35.0483 23.8887C34.9911 23.9423 34.9586 24.0172 34.9586 24.0956V25.208C34.9586 25.6182 34.7096 25.8477 34.3531 25.8477V25.8478Z" fill="black"/>
<path d="M52.2143 20.4668C51.2231 20.4668 50.6515 20.8071 50.3592 21.1346C50.1899 21.3243 50.1682 21.7238 50.4004 21.9095C50.6718 22.1265 51.1265 21.9641 51.2827 21.7721C51.4229 21.5997 51.7377 21.4246 52.1654 21.419C52.7659 21.4111 53.1322 21.7315 53.1322 22.2735V22.533C53.1322 22.5593 53.1117 22.581 53.0854 22.5825L51.7601 22.658C50.5005 22.736 49.7925 23.3525 49.7925 24.2704C49.7925 25.1883 50.5225 25.8329 51.521 25.8329C52.2453 25.8329 52.7821 25.6048 53.0223 25.4795C53.0923 25.443 53.1778 25.4711 53.2141 25.5412C53.2821 25.6725 53.4312 25.8475 53.7426 25.8475C54.0844 25.8475 54.3334 25.6278 54.3334 25.2372V22.1855C54.3334 21.1455 53.4985 20.4668 52.2143 20.4668ZM53.1323 23.831C53.1323 24.456 52.5757 24.915 51.8921 24.915C51.3648 24.915 51.0083 24.6465 51.0083 24.2217C51.0083 23.7969 51.3452 23.5479 51.9311 23.5088L53.0796 23.4388C53.1081 23.4371 53.1322 23.4597 53.1322 23.4883V23.8311L53.1323 23.831Z" fill="black"/>
<path d="M57.6739 25.8526C56.1602 25.8526 55.1836 24.8272 55.1836 23.167C55.1836 21.5068 56.1553 20.4668 57.6641 20.4668C58.6797 20.4668 59.544 20.9893 59.793 21.7168C59.8321 21.8193 59.8565 21.9219 59.8565 22.0098C59.8565 22.3125 59.627 22.4981 59.334 22.4981C59.0899 22.4981 58.9434 22.3956 58.8018 22.1514C58.543 21.6778 58.2012 21.4532 57.6983 21.4532C56.917 21.4532 56.419 22.1026 56.419 23.1622C56.419 24.2218 56.9219 24.8712 57.6934 24.8712C58.2305 24.8712 58.5625 24.6222 58.7969 24.2071C58.9629 23.9337 59.0948 23.8311 59.3584 23.8311C59.6465 23.8311 59.8711 24.0264 59.8711 24.3292C59.8711 24.422 59.8467 24.5245 59.7979 24.6417C59.5098 25.3497 58.6504 25.8526 57.6739 25.8526Z" fill="black"/>
<path d="M62.9667 20.4668C61.4726 20.4668 60.5205 21.5312 60.5205 23.1816C60.5205 24.832 61.4531 25.8524 63.0351 25.8524C63.8353 25.8524 64.4212 25.6746 64.9209 25.1196C65.1446 24.8712 65.0847 24.5005 64.7886 24.342C64.5392 24.2084 64.2555 24.3365 64.1162 24.4659C63.6735 24.8773 63.3487 24.9149 63.0253 24.9149C62.2791 24.9149 61.7892 24.4302 61.7362 23.6068C61.7309 23.5247 61.7953 23.455 61.8776 23.455H64.8317C65.1129 23.455 65.3423 23.2302 65.3487 22.9491C65.3814 21.5063 64.4062 20.4668 62.9667 20.4668ZM63.9965 22.6011H61.9074C61.8168 22.6011 61.75 22.5173 61.769 22.4287C61.9056 21.79 62.3772 21.4093 62.9715 21.4093C63.5658 21.4093 64.02 21.7772 64.1362 22.4355C64.1515 22.522 64.0843 22.6011 63.9964 22.6011H63.9965Z" fill="black"/>
<path d="M46.8731 20.4863C46.2587 20.4863 45.6837 20.7845 45.4009 20.9582C45.3207 21.0074 45.2166 20.9666 45.1901 20.8763C45.1726 20.8164 45.1442 20.7508 45.0984 20.6904C44.9813 20.5358 44.8113 20.4717 44.6221 20.4717C44.2754 20.4717 44.0312 20.6963 44.0312 21.0967V26.9513C44.0312 27.3615 44.2802 27.591 44.6367 27.591C44.9932 27.591 45.2472 27.3615 45.2472 26.9513V25.5395C45.2472 25.4316 45.3628 25.3632 45.4573 25.4154C45.7485 25.5762 46.3055 25.8331 46.8927 25.8331C48.1915 25.8331 49.0216 24.8126 49.0216 23.1622C49.0216 21.5118 48.1866 20.4864 46.8731 20.4864V20.4863ZM46.502 24.8369C45.7452 24.8369 45.2422 24.1777 45.2373 23.1621C45.2422 22.1562 45.7451 21.4873 46.502 21.4873C47.2589 21.4873 47.7764 22.1416 47.7764 23.1621C47.7764 24.1826 47.2881 24.8369 46.502 24.8369Z" fill="black"/>
<path d="M40.9741 25.8525C39.8803 25.8525 39.1137 25.4326 38.8647 24.8125C38.8305 24.7246 38.8159 24.6465 38.8159 24.5732C38.8159 24.2802 39.0307 24.0947 39.3237 24.0947C39.5239 24.0947 39.6948 24.1875 39.851 24.3926C40.1244 24.7881 40.4369 24.9639 41.018 24.9639C41.5991 24.9639 41.9604 24.7246 41.9604 24.334C41.9604 24.0215 41.7651 23.8506 41.2329 23.7285L40.393 23.5381C39.3822 23.3086 38.8842 22.8106 38.8842 22.0586C38.8842 21.0967 39.7143 20.4668 40.9936 20.4668C41.9897 20.4668 42.7612 20.9551 42.9223 21.5508C42.9369 21.6143 42.9467 21.6729 42.9467 21.7315C42.9467 21.9854 42.7856 22.1661 42.4779 22.1661C42.3021 22.1661 42.1263 22.1026 42.014 21.9415C41.7747 21.5851 41.4769 21.3604 40.9642 21.3604C40.4515 21.3604 40.0658 21.6192 40.0658 21.9903C40.0658 22.293 40.2904 22.4981 40.8275 22.6202L41.6527 22.8009C42.7465 23.0499 43.181 23.4454 43.181 24.212C43.181 25.2032 42.2923 25.8526 40.9739 25.8526L40.9741 25.8525Z" fill="black"/>
</svg>
