<svg width="81" height="55" viewBox="0 0 81 55" fill="none" xmlns="http://www.w3.org/2000/svg">
<path d="M15.0618 42.8655C14.3838 42.8085 13.7118 42.6194 13.0944 42.3189C12.4724 42.0149 11.9074 41.5989 11.4433 41.0896C10.9783 40.5796 10.6163 39.9776 10.3635 39.3323C10.1105 38.6904 9.96648 38.0074 9.93886 37.3219L9.92285 7.34099C9.93686 6.78996 10.0389 6.23698 10.2162 5.7133C10.3052 5.45024 10.4122 5.19633 10.5369 4.95073C10.6619 4.70476 10.8059 4.4688 10.9653 4.24345C11.1243 4.02043 11.3003 3.8084 11.4915 3.61101C11.6815 3.41496 11.8875 3.23393 12.106 3.06865C12.323 2.90459 12.554 2.75664 12.7922 2.62578C13.0312 2.4948 13.2782 2.38078 13.5335 2.28618C13.8535 2.16716 14.1845 2.07915 14.5211 2.01714C14.8571 1.95512 15.1981 1.92021 15.5391 1.91411H15.5368C32.1808 1.82719 48.8247 1.82719 65.4695 1.91374C65.7234 1.91875 65.9774 1.93877 66.2296 1.97453C66.4825 2.01054 66.7325 2.06059 66.9778 2.12737C67.1418 2.17229 67.3038 2.22331 67.4626 2.28203C67.9725 2.47209 68.4575 2.73601 68.895 3.06535C69.3329 3.39641 69.722 3.7924 70.0428 4.23711C70.3658 4.68608 70.6208 5.18315 70.797 5.70793C70.973 6.23491 71.069 6.78899 71.0844 7.34087L71.0685 37.3226C71.0396 38.0076 70.8955 38.6956 70.6446 39.3357C70.5176 39.6587 70.3636 39.9698 70.1826 40.2634C70.0005 40.5584 69.7915 40.8373 69.559 41.0931C69.326 41.3501 69.0689 41.5832 68.7922 41.7907C68.5152 41.9967 68.2202 42.1778 67.9105 42.3288C67.7555 42.4039 67.5984 42.4718 67.4373 42.5331C67.2773 42.5931 67.1133 42.6451 66.9482 42.6894C66.7833 42.7334 66.6162 42.7685 66.4474 42.7994C66.2804 42.8304 66.1114 42.8564 65.9409 42.865C57.4669 43.2481 48.985 43.439 40.5025 43.4394C32.0204 43.4394 23.5395 43.2474 15.0655 42.8653" stroke="#16215B" stroke-width="0.283" stroke-miterlimit="10"/>
<path d="M67.5541 40.8116H13.5141C12.3392 40.8117 11.3872 39.8597 11.3872 38.6856V6.20673C11.3871 5.03314 12.3391 4.08112 13.5141 4.08112H17.0571H64.0101H67.5542C68.7281 4.08112 69.6801 5.03314 69.6801 6.20709V38.6856C69.6801 39.8597 68.7281 40.8116 67.5541 40.8116Z" stroke="#00FFFF" stroke-width="0.28" stroke-miterlimit="10"/>
<path d="M70.1069 36.8347C70.1059 37.1287 70.0839 37.4187 70.0399 37.7067C70.0179 37.8507 69.9899 37.9928 69.9559 38.1347C69.9389 38.2058 69.9209 38.2767 69.8999 38.3477C69.8799 38.4177 69.8589 38.4877 69.8359 38.5577C69.7429 38.8358 69.6269 39.1018 69.4869 39.3547C69.4169 39.4818 69.3409 39.6057 69.2579 39.7257C69.2169 39.7857 69.1739 39.8447 69.1289 39.9038C69.0839 39.9617 69.0379 40.0188 68.9899 40.0747C68.9419 40.1307 68.8939 40.1857 68.8429 40.2387C68.7929 40.2917 68.7409 40.3437 68.6889 40.3938C68.5829 40.4937 68.4729 40.5877 68.3579 40.6767C68.2419 40.7647 68.1219 40.8468 67.9969 40.9227C67.9349 40.9608 67.8699 40.9967 67.8059 41.0317C67.7409 41.0667 67.6759 41.0997 67.6099 41.1307C67.3469 41.2547 67.0729 41.3497 66.7889 41.4177C66.6479 41.4517 66.5029 41.4787 66.3579 41.4987C66.2139 41.5188 66.0669 41.5327 65.9209 41.5387C49.0273 42.2937 32.0073 42.2937 15.1123 41.5387C14.8208 41.5251 14.5318 41.486 14.2468 41.418C14.1758 41.4011 14.1058 41.3822 14.0348 41.3621C13.9648 41.3411 13.8958 41.319 13.8268 41.2951C13.6898 41.2471 13.5558 41.1921 13.4238 41.1311C13.2928 41.069 13.1648 41.0011 13.0398 40.9251C12.9778 40.887 12.9158 40.8471 12.8558 40.8061C12.7948 40.7641 12.7358 40.7221 12.6778 40.6771C12.4468 40.5001 12.2368 40.3011 12.0468 40.0791C11.9998 40.0231 11.9528 39.9671 11.9088 39.9091C11.8648 39.8512 11.8208 39.7911 11.7798 39.7312C11.6968 39.6101 11.6188 39.486 11.5488 39.3591C11.4788 39.2321 11.4138 39.1021 11.3558 38.9681C11.3258 38.9011 11.2988 38.8341 11.2728 38.7661C11.2458 38.6971 11.2218 38.6281 11.1988 38.5592C11.1058 38.2801 11.0388 37.9971 10.9938 37.7091C10.9718 37.5651 10.9548 37.4201 10.9448 37.2741C10.9338 37.1281 10.9278 36.9821 10.9278 36.835C10.9234 31.9847 10.9194 27.1337 10.9144 22.2827C10.9104 17.8728 10.9064 13.4617 10.9014 9.05171C10.9014 8.61067 10.9004 8.16866 10.9004 7.72664C10.8991 7.42183 10.9301 7.1219 10.9901 6.82784C11.0201 6.67989 11.0581 6.53389 11.1031 6.38985C11.1261 6.31783 11.1511 6.2458 11.1781 6.17488C11.2041 6.10384 11.2331 6.03389 11.2631 5.9648C11.3841 5.6888 11.5321 5.42891 11.7081 5.18379C11.7521 5.12288 11.7981 5.06282 11.8451 5.00386C11.8931 4.9449 11.9411 4.8868 11.9921 4.83089C12.0931 4.71883 12.1981 4.61189 12.3091 4.5118C12.4201 4.41084 12.5361 4.31587 12.6561 4.22688C12.7171 4.18184 12.7781 4.13887 12.8411 4.09785C12.9041 4.05586 12.9681 4.01582 13.0331 3.97688C13.2941 3.82185 13.5651 3.6949 13.8481 3.59187C13.9891 3.54085 14.1341 3.4958 14.2801 3.45686C14.4271 3.4189 14.5741 3.3868 14.7231 3.36189C15.0181 3.30989 15.3191 3.28389 15.6222 3.28279C32.1792 3.19685 48.8542 3.19685 65.4108 3.28267C65.5638 3.28365 65.7148 3.29073 65.8648 3.30367C66.0158 3.31673 66.1648 3.33565 66.3128 3.36165C66.6088 3.41267 66.8988 3.48872 67.1838 3.59175C67.2548 3.61775 67.3248 3.64473 67.3948 3.67366C67.4648 3.70271 67.5328 3.73274 67.6008 3.76472C67.7368 3.82869 67.8668 3.89766 67.9948 3.97371C68.2508 4.12569 68.4918 4.30171 68.7168 4.50471C68.7728 4.55574 68.8278 4.60774 68.8818 4.6617C68.9358 4.71565 68.9878 4.77071 69.0378 4.82674C69.1398 4.93965 69.2348 5.05769 69.3218 5.17867C69.4978 5.42268 69.6478 5.68269 69.7688 5.96065C69.7998 6.03072 69.8278 6.10164 69.8548 6.17171C69.8818 6.24373 69.9058 6.31465 69.9288 6.38667C69.9748 6.52974 70.0128 6.67574 70.0428 6.82271C70.0728 6.97066 70.0958 7.11971 70.1118 7.26973C70.1178 7.34566 70.1238 7.42171 70.1278 7.49776C70.1318 7.57466 70.1338 7.65071 70.1335 7.72713L70.1195 22.2832C70.1155 26.6931 70.1115 31.1041 70.1075 35.5141C70.1065 35.9552 70.1065 36.3951 70.1055 36.835" stroke="#FF00FF" stroke-width="0.283465" stroke-miterlimit="10" stroke-linecap="round" stroke-linejoin="round"/>
<path d="M64.7899 46.9191V52.01H64.1734V47.5654H64.1436L62.9007 48.3907V47.7643L64.1734 46.9191H64.7899ZM66.3908 52.0498C66.2681 52.0498 66.1629 52.0059 66.0751 51.918C65.9872 51.8302 65.9433 51.725 65.9433 51.6023C65.9433 51.4797 65.9872 51.3745 66.0751 51.2866C66.1629 51.1988 66.2681 51.1549 66.3908 51.1549C66.5134 51.1549 66.6186 51.1988 66.7065 51.2866C66.7943 51.3745 66.8382 51.4797 66.8382 51.6023C66.8382 51.6835 66.8175 51.7581 66.7761 51.8261C66.7363 51.894 66.6824 51.9487 66.6145 51.9901C66.5482 52.0299 66.4736 52.0498 66.3908 52.0498ZM69.3694 52.0796C69.0777 52.0796 68.815 52.0216 68.5814 51.9056C68.3477 51.7896 68.1604 51.6305 68.0196 51.4283C67.8787 51.2262 67.8017 50.9958 67.7884 50.7373H68.385C68.4082 50.9676 68.5126 51.1582 68.6982 51.309C68.8855 51.4582 69.1092 51.5327 69.3694 51.5327C69.5782 51.5327 69.7638 51.4838 69.9262 51.3861C70.0902 51.2883 70.2187 51.1541 70.3115 50.9834C70.4059 50.811 70.4532 50.6163 70.4532 50.3992C70.4532 50.1771 70.4043 49.9791 70.3065 49.8051C70.2104 49.6294 70.0778 49.4911 69.9088 49.39C69.7397 49.2889 69.5467 49.2375 69.3296 49.2359C69.1738 49.2342 69.0139 49.2582 68.8498 49.308C68.6858 49.356 68.5507 49.4182 68.4446 49.4944L67.8679 49.4248L68.1762 46.9191H70.8211V47.466H68.6932L68.5142 48.9674H68.5441C68.6485 48.8845 68.7794 48.8158 68.9368 48.7611C69.0943 48.7064 69.2583 48.679 69.429 48.679C69.7406 48.679 70.0182 48.7536 70.2618 48.9028C70.507 49.0503 70.6993 49.2524 70.8385 49.5093C70.9793 49.7662 71.0498 50.0595 71.0498 50.3893C71.0498 50.7141 70.9768 51.0041 70.831 51.2593C70.6868 51.5129 70.488 51.7134 70.2344 51.8609C69.9809 52.0067 69.6925 52.0796 69.3694 52.0796Z" fill="#0000FF"/>
<path fill-rule="evenodd" clip-rule="evenodd" d="M22.195 16.9961C22.0188 16.9961 21.8507 17.0645 21.727 17.1882L17.617 21.2982C17.3543 21.5609 17.3543 21.9714 17.617 22.2341L17.6183 22.2353L21.727 26.3641C21.8507 26.4874 22.0191 26.5561 22.195 26.5561H31.275C31.6194 26.5561 31.895 26.2775 31.895 25.9361V17.6161C31.895 17.2717 31.6164 16.9961 31.275 16.9961H22.195ZM20.723 16.1841C21.1193 15.7878 21.6512 15.5761 22.195 15.5761H31.275C32.3936 15.5761 33.315 16.4805 33.315 17.6161V25.9361C33.315 27.0548 32.4106 27.9761 31.275 27.9761H22.195C21.6512 27.9761 21.1193 27.7645 20.723 27.3682L20.7217 27.367L16.613 23.2382L16.6122 23.2374C15.7957 22.4201 15.7959 21.1111 16.613 20.2941L20.723 16.1841ZM29.2871 18.9941C29.5644 19.2714 29.5644 19.7209 29.2871 19.9982L27.6213 21.664C27.5666 21.7187 27.5666 21.8075 27.6214 21.8621L29.2865 23.5236C29.5641 23.8005 29.5646 24.2501 29.2876 24.5277C29.0107 24.8052 28.5611 24.8057 28.2835 24.5288L26.6171 22.866C26.5624 22.8114 26.4738 22.8115 26.4192 22.8661L24.7571 24.5282C24.4798 24.8055 24.0303 24.8055 23.753 24.5282C23.4757 24.2509 23.4757 23.8014 23.753 23.5241L25.4138 21.8633C25.4685 21.8086 25.4685 21.7199 25.4137 21.6652L23.7435 19.9988C23.466 19.7218 23.4655 19.2722 23.7424 18.9947C24.0194 18.7171 24.4689 18.7166 24.7465 18.9936L26.418 20.6614C26.4727 20.7159 26.5612 20.7159 26.6159 20.6612L28.283 18.9941C28.5603 18.7168 29.0098 18.7168 29.2871 18.9941Z" fill="black"/>
<path d="M39.2862 24.7688H38.0216C37.9433 24.7688 37.8799 24.7053 37.8799 24.6271V22.7084C37.8799 22.6301 37.9434 22.5667 38.0216 22.5667H39.2325C40.1993 22.5667 40.7071 22.9427 40.7071 23.6605C40.7071 24.3783 40.2139 24.7689 39.2862 24.7689V24.7688ZM37.8799 19.8274C37.8799 19.7491 37.9434 19.6857 38.0216 19.6857H39.2276C39.9796 19.6857 40.4044 20.0324 40.4044 20.6476C40.4044 21.3019 39.9112 21.673 39.0323 21.673H38.0216C37.9433 21.673 37.8799 21.6095 37.8799 21.5313V19.8274ZM40.8385 22.1239C40.7218 22.083 40.7101 21.924 40.8188 21.865C41.3098 21.5985 41.6495 21.0505 41.6495 20.4619C41.6495 19.3926 40.8242 18.7041 39.5449 18.7041H37.25C36.8594 18.7041 36.6201 18.9482 36.6201 19.3584V25.0958C36.6201 25.506 36.8594 25.7501 37.25 25.7501H39.5742C41.0781 25.7501 41.9912 24.9884 41.9912 23.7481C41.9912 22.9785 41.5356 22.3683 40.8385 22.1239Z" fill="black"/>
<path d="M45.2358 20.4668C44.2446 20.4668 43.673 20.8071 43.3807 21.1346C43.2114 21.3243 43.1897 21.7238 43.4219 21.9095C43.6933 22.1265 44.148 21.9641 44.3042 21.7721C44.4444 21.5997 44.7592 21.4246 45.1869 21.419C45.7874 21.4111 46.1537 21.7315 46.1537 22.2735V22.533C46.1537 22.5593 46.1332 22.581 46.1069 22.5825L44.7816 22.658C43.522 22.736 42.814 23.3525 42.814 24.2704C42.814 25.1883 43.544 25.8329 44.5425 25.8329C45.2668 25.8329 45.8036 25.6048 46.0438 25.4795C46.1138 25.443 46.1993 25.4711 46.2356 25.5412C46.3036 25.6725 46.4527 25.8475 46.7641 25.8475C47.1059 25.8475 47.3549 25.6278 47.3549 25.2372V22.1855C47.3549 21.1455 46.52 20.4668 45.2358 20.4668ZM46.1538 23.831C46.1538 24.456 45.5972 24.915 44.9136 24.915C44.3863 24.915 44.0298 24.6465 44.0298 24.2217C44.0298 23.7969 44.3667 23.5479 44.9526 23.5088L46.1011 23.4388C46.1296 23.4371 46.1537 23.4597 46.1537 23.4883V23.8311L46.1538 23.831Z" fill="black"/>
<path d="M50.6954 25.8526C49.1817 25.8526 48.2051 24.8272 48.2051 23.167C48.2051 21.5068 49.1768 20.4668 50.6856 20.4668C51.7012 20.4668 52.5655 20.9893 52.8145 21.7168C52.8536 21.8193 52.878 21.9219 52.878 22.0098C52.878 22.3125 52.6485 22.4981 52.3555 22.4981C52.1114 22.4981 51.9649 22.3956 51.8233 22.1514C51.5645 21.6778 51.2227 21.4532 50.7198 21.4532C49.9385 21.4532 49.4405 22.1026 49.4405 23.1622C49.4405 24.2218 49.9434 24.8712 50.7149 24.8712C51.252 24.8712 51.584 24.6222 51.8184 24.2071C51.9844 23.9337 52.1163 23.8311 52.3799 23.8311C52.668 23.8311 52.8926 24.0264 52.8926 24.3292C52.8926 24.422 52.8682 24.5245 52.8194 24.6417C52.5313 25.3497 51.6719 25.8526 50.6954 25.8526Z" fill="black"/>
<path d="M54.3531 25.8478C53.9967 25.8478 53.7427 25.6183 53.7427 25.2081V19.2461C53.7427 18.8359 53.9966 18.6064 54.3531 18.6064C54.7096 18.6064 54.9586 18.8359 54.9586 19.2461V22.3881C54.9586 22.514 55.1104 22.5774 55.1999 22.4889L57.0045 20.706C57.1608 20.54 57.2926 20.4716 57.4781 20.4716C57.7808 20.4716 58.0103 20.7011 58.0103 20.9941C58.0103 21.1748 57.9566 21.2871 57.7906 21.4433L56.4106 22.7502C56.3571 22.8009 56.3513 22.8841 56.3974 22.9416L57.9371 24.8662C58.0641 25.042 58.1031 25.1494 58.1031 25.3057C58.1031 25.6231 57.8638 25.8477 57.5269 25.8477C57.2876 25.8477 57.146 25.7647 56.9703 25.5108L55.5131 23.6641C55.4617 23.599 55.3656 23.5917 55.305 23.6484L55.0483 23.8887C54.9911 23.9423 54.9586 24.0172 54.9586 24.0956V25.208C54.9586 25.6182 54.7096 25.8477 54.3531 25.8477V25.8478Z" fill="black"/>
</svg>
