<svg width="55" height="54" viewBox="0 0 55 54" fill="none" xmlns="http://www.w3.org/2000/svg">
<rect x="2.3501" y="1.85001" width="50.3" height="50.3" rx="3" stroke="#16215B" stroke-width="0.28"/>
<path d="M44.6505 7.31647L44.6325 37.3803C44.6265 37.5443 44.6124 37.7072 44.5923 37.8691C44.5723 38.0311 44.5463 38.1932 44.516 38.3547C44.485 38.5156 44.448 38.6746 44.4036 38.8338C44.3605 38.9919 44.3115 39.1489 44.257 39.3043C44.1389 39.6282 43.9949 39.9433 43.8242 40.2436C43.6512 40.5485 43.4513 40.8376 43.2263 41.1068C42.9993 41.3768 42.7483 41.6258 42.4753 41.8478C42.2013 42.0698 41.9074 42.2658 41.5972 42.43C41.3722 42.5469 41.1371 42.65 40.8978 42.7353C40.7788 42.7773 40.6578 42.8143 40.5356 42.8481C40.4137 42.8821 40.2907 42.9122 40.1676 42.9368C40.0027 42.9717 39.8367 42.9977 39.6687 43.0147L39.6675 43.0143C31.5554 43.5814 23.4135 43.5803 15.3014 43.0129C14.6355 42.9389 13.9805 42.7249 13.3855 42.4037C12.7805 42.0787 12.2395 41.6418 11.7981 41.1209C11.3541 40.596 11.0121 39.9839 10.773 39.3397C10.653 39.0187 10.558 38.6877 10.49 38.352C10.421 38.018 10.3771 37.6771 10.3615 37.3371L10.3447 7.31696C10.3578 6.77496 10.4537 6.23102 10.6215 5.71307C10.7054 5.45416 10.8075 5.20209 10.9258 4.95844C11.0437 4.71552 11.1798 4.48053 11.3307 4.25616C11.4817 4.03412 11.6487 3.82208 11.8317 3.62469C12.0137 3.42877 12.2096 3.24677 12.4188 3.07953C12.6268 2.91449 12.8479 2.76349 13.0767 2.63031C13.3066 2.49738 13.5457 2.38129 13.7915 2.28302C14.1035 2.16107 14.4285 2.06805 14.7576 2.0036C15.0875 1.93866 15.4225 1.90265 15.7578 1.89581C19.6708 1.86481 23.5837 1.84869 27.4971 1.84857C31.41 1.84857 35.323 1.86469 39.2362 1.89606C39.9142 1.90497 40.5952 2.04205 41.2292 2.29669C41.8783 2.55878 42.4763 2.94574 42.9753 3.43292C43.4893 3.93182 43.8983 4.5379 44.1821 5.19806C44.4701 5.86615 44.6301 6.59113 44.6502 7.31305" stroke="#16215B" stroke-width="0.283" stroke-miterlimit="10"/>
<rect x="13.1792" y="5.50507" width="28.63" height="34.3" rx="1.42" stroke="#00FFFF" stroke-width="0.28"/>
<path d="M43.4527 7.68658C43.4477 12.5516 43.4427 17.4166 43.4386 22.2816L43.4237 36.8775C43.4237 37.1668 43.4027 37.4548 43.3617 37.7408C43.3518 37.8118 43.3397 37.8829 43.3268 37.9538C43.3147 38.0248 43.2998 38.0959 43.2838 38.1668C43.2517 38.3078 43.2147 38.4478 43.1728 38.5848C43.0878 38.8588 42.9818 39.1258 42.8507 39.3839C42.8168 39.4478 42.7827 39.5118 42.7467 39.5749C42.7118 39.6368 42.6748 39.6988 42.6367 39.7598C42.5598 39.8818 42.4778 39.9988 42.3908 40.1119C42.3028 40.2248 42.2097 40.3328 42.1098 40.4378C42.0618 40.4898 42.0098 40.5408 41.9578 40.5909C41.9048 40.6398 41.8518 40.6878 41.7968 40.7348C41.5788 40.9199 41.3448 41.0809 41.0938 41.2148C41.0308 41.2488 40.9668 41.2808 40.9018 41.3109C40.8368 41.3419 40.7708 41.3698 40.7038 41.3968C40.5708 41.4499 40.4368 41.4958 40.2998 41.5339C40.0268 41.6108 39.7467 41.6589 39.4608 41.6788C31.5301 42.2228 23.463 42.2228 15.5331 41.6788C15.2461 41.6585 14.9662 41.6105 14.6931 41.5335C14.5562 41.4955 14.4221 41.4495 14.2892 41.3965C14.2222 41.3696 14.1562 41.3405 14.0912 41.3106C14.0261 41.2806 13.9632 41.2486 13.9002 41.2145C13.6481 41.0805 13.4142 40.9196 13.1962 40.7336C13.1421 40.6876 13.0891 40.6396 13.0362 40.5895C12.9842 40.5406 12.9322 40.4886 12.8832 40.4376C12.7842 40.3326 12.6912 40.2245 12.6042 40.1105C12.5161 39.9986 12.4341 39.8806 12.3572 39.7596C12.3191 39.6985 12.2821 39.6365 12.2471 39.5735C12.2112 39.5115 12.1762 39.4476 12.1442 39.3825C12.0132 39.1255 11.9062 38.8586 11.8222 38.5845C11.7792 38.4466 11.7422 38.3076 11.7112 38.1666C11.6952 38.0955 11.6802 38.0246 11.6671 37.9536C11.6542 37.8825 11.6421 37.8116 11.6321 37.7396C11.5912 37.4545 11.5702 37.1675 11.5698 36.8771C11.5618 27.1472 11.5518 17.4162 11.542 7.68622C11.541 7.38922 11.568 7.09723 11.6231 6.80927C11.65 6.6662 11.6841 6.52325 11.7251 6.38226C11.7461 6.31122 11.7681 6.24127 11.7931 6.1712C11.817 6.10126 11.843 6.03326 11.87 5.96527C11.9801 5.69318 12.1151 5.43622 12.276 5.19318C12.3161 5.13226 12.3581 5.07318 12.401 5.01422C12.4451 4.95526 12.4901 4.89716 12.5371 4.84027C12.63 4.72723 12.7271 4.62018 12.8311 4.51727C13.0371 4.31427 13.2621 4.13226 13.5081 3.97321C13.5691 3.93317 13.6321 3.89423 13.6941 3.85822C13.7581 3.82123 13.8211 3.78717 13.8861 3.75323C14.0141 3.68719 14.146 3.62726 14.2801 3.57416C14.4151 3.5202 14.5531 3.47418 14.692 3.43317C14.7621 3.41327 14.833 3.39423 14.9041 3.37726C14.9751 3.36017 15.047 3.34528 15.119 3.33124C15.4051 3.27716 15.6961 3.24823 15.9896 3.24615C23.6208 3.18524 31.3747 3.18524 39.006 3.24615C39.3 3.24921 39.589 3.27716 39.872 3.33112C40.1549 3.38422 40.433 3.4632 40.705 3.57111C40.773 3.59711 40.841 3.62616 40.907 3.65619C40.974 3.6861 41.039 3.7182 41.1039 3.75116C41.2329 3.8172 41.3579 3.8891 41.4789 3.9682C41.7219 4.12421 41.9469 4.30511 42.157 4.51117C42.209 4.56219 42.2599 4.61517 42.309 4.66913C42.3579 4.72321 42.4059 4.77814 42.453 4.83417C42.5449 4.94611 42.632 5.06317 42.7119 5.18414C42.793 5.30511 42.867 5.43011 42.935 5.56012C42.97 5.62421 43.003 5.69012 43.034 5.75714C43.065 5.82416 43.095 5.89215 43.122 5.96014C43.232 6.23212 43.314 6.51312 43.37 6.80219C43.3839 6.87421 43.3949 6.9472 43.4059 7.0202C43.417 7.0932 43.4259 7.16718 43.4319 7.24115C43.4459 7.3891 43.453 7.53717 43.4527 7.68658Z" stroke="#FF00FF" stroke-width="0.283465" stroke-miterlimit="10" stroke-linecap="round" stroke-linejoin="round"/>
<path fill-rule="evenodd" clip-rule="evenodd" d="M30.3051 27.53C30.4813 27.53 30.6493 27.4616 30.773 27.3379L34.883 23.2279C35.1457 22.9652 35.1457 22.5548 34.883 22.292L34.8818 22.2908L30.773 18.162C30.6494 18.0387 30.481 17.97 30.3051 17.97L21.2251 17.97C20.8807 17.97 20.6051 18.2486 20.6051 18.59L20.6051 26.91C20.6051 27.2544 20.8837 27.53 21.2251 27.53L30.3051 27.53ZM31.7771 28.342C31.3808 28.7383 30.8488 28.95 30.3051 28.95L21.2251 28.95C20.1064 28.95 19.1851 28.0456 19.1851 26.91L19.1851 18.59C19.1851 17.4713 20.0895 16.55 21.2251 16.55L30.3051 16.55C30.8488 16.55 31.3808 16.7616 31.7771 17.1579L31.7783 17.1592L35.8871 21.2879L35.8879 21.2887C36.7044 22.106 36.7041 23.415 35.8871 24.232L31.7771 28.342ZM23.213 25.532C22.9357 25.2547 22.9357 24.8052 23.213 24.5279L24.8788 22.8621C24.9335 22.8074 24.9334 22.7187 24.8787 22.664L23.2135 21.0026C22.936 20.7256 22.9355 20.2761 23.2124 19.9985C23.4894 19.7209 23.9389 19.7204 24.2165 19.9974L25.883 21.6601C25.9377 21.7147 26.0262 21.7147 26.0808 21.66L27.743 19.9979C28.0202 19.7206 28.4698 19.7206 28.7471 19.9979C29.0243 20.2752 29.0243 20.7247 28.7471 21.002L27.0863 22.6628C27.0315 22.7175 27.0316 22.8062 27.0864 22.8609L28.7565 24.5274C29.0341 24.8043 29.0346 25.2539 28.7576 25.5315C28.4807 25.809 28.0311 25.8095 27.7535 25.5326L26.0821 23.8648C26.0274 23.8102 25.9388 23.8103 25.8842 23.8649L24.2171 25.532C23.9398 25.8093 23.4902 25.8093 23.213 25.532Z" fill="black"/>
</svg>
