<svg width="55" height="54" viewBox="0 0 55 54" fill="none" xmlns="http://www.w3.org/2000/svg">
<rect x="2.3501" y="1.85001" width="50.3" height="50.3" rx="3" stroke="#8B1EFF" stroke-width="0.28"/>
<path d="M44.6505 7.31647L44.6325 37.3803C44.6265 37.5443 44.6124 37.7072 44.5923 37.8691C44.5723 38.0311 44.5463 38.1932 44.516 38.3547C44.485 38.5156 44.448 38.6746 44.4036 38.8338C44.3605 38.9919 44.3115 39.1489 44.257 39.3043C44.1389 39.6282 43.9949 39.9433 43.8242 40.2436C43.6512 40.5485 43.4513 40.8376 43.2263 41.1068C42.9993 41.3768 42.7483 41.6258 42.4753 41.8478C42.2013 42.0698 41.9074 42.2658 41.5972 42.43C41.3722 42.5469 41.1371 42.65 40.8978 42.7353C40.7788 42.7773 40.6578 42.8143 40.5356 42.8481C40.4137 42.8821 40.2907 42.9122 40.1676 42.9368C40.0027 42.9717 39.8367 42.9977 39.6687 43.0147L39.6675 43.0143C31.5554 43.5814 23.4135 43.5803 15.3014 43.0129C14.6355 42.9389 13.9805 42.7249 13.3855 42.4037C12.7805 42.0787 12.2395 41.6418 11.7981 41.1209C11.3541 40.596 11.0121 39.9839 10.773 39.3397C10.653 39.0187 10.558 38.6877 10.49 38.352C10.421 38.018 10.3771 37.6771 10.3615 37.3371L10.3447 7.31696C10.3578 6.77496 10.4537 6.23102 10.6215 5.71307C10.7054 5.45416 10.8075 5.20209 10.9258 4.95844C11.0437 4.71552 11.1798 4.48053 11.3307 4.25616C11.4817 4.03412 11.6487 3.82208 11.8317 3.62469C12.0137 3.42877 12.2096 3.24677 12.4188 3.07953C12.6268 2.91449 12.8479 2.76349 13.0767 2.63031C13.3066 2.49738 13.5457 2.38129 13.7915 2.28302C14.1035 2.16107 14.4285 2.06805 14.7576 2.0036C15.0875 1.93866 15.4225 1.90265 15.7578 1.89581C19.6708 1.86481 23.5837 1.84869 27.4971 1.84857C31.41 1.84857 35.323 1.86469 39.2362 1.89606C39.9142 1.90497 40.5952 2.04205 41.2292 2.29669C41.8783 2.55878 42.4763 2.94574 42.9753 3.43292C43.4893 3.93182 43.8983 4.5379 44.1821 5.19806C44.4701 5.86615 44.6301 6.59113 44.6502 7.31305" stroke="#8B1EFF" stroke-width="0.283" stroke-miterlimit="10"/>
<rect x="13.1792" y="5.50507" width="28.63" height="34.3" rx="1.42" stroke="#00FFFF" stroke-width="0.28"/>
<path d="M43.4527 7.68658C43.4477 12.5516 43.4427 17.4166 43.4386 22.2816L43.4237 36.8775C43.4237 37.1668 43.4027 37.4548 43.3617 37.7408C43.3518 37.8118 43.3397 37.8829 43.3268 37.9538C43.3147 38.0248 43.2998 38.0959 43.2838 38.1668C43.2517 38.3078 43.2147 38.4478 43.1728 38.5848C43.0878 38.8588 42.9818 39.1258 42.8507 39.3839C42.8168 39.4478 42.7827 39.5118 42.7467 39.5749C42.7118 39.6368 42.6748 39.6988 42.6367 39.7598C42.5598 39.8818 42.4778 39.9988 42.3908 40.1119C42.3028 40.2248 42.2097 40.3328 42.1098 40.4378C42.0618 40.4898 42.0098 40.5408 41.9578 40.5909C41.9048 40.6398 41.8518 40.6878 41.7968 40.7348C41.5788 40.9199 41.3448 41.0809 41.0938 41.2148C41.0308 41.2488 40.9668 41.2808 40.9018 41.3109C40.8368 41.3419 40.7708 41.3698 40.7038 41.3968C40.5708 41.4499 40.4368 41.4958 40.2998 41.5339C40.0268 41.6108 39.7467 41.6589 39.4608 41.6788C31.5301 42.2228 23.463 42.2228 15.5331 41.6788C15.2461 41.6585 14.9662 41.6105 14.6931 41.5335C14.5562 41.4955 14.4221 41.4495 14.2892 41.3965C14.2222 41.3696 14.1562 41.3405 14.0912 41.3106C14.0261 41.2806 13.9632 41.2486 13.9002 41.2145C13.6481 41.0805 13.4142 40.9196 13.1962 40.7336C13.1421 40.6876 13.0891 40.6396 13.0362 40.5895C12.9842 40.5406 12.9322 40.4886 12.8832 40.4376C12.7842 40.3326 12.6912 40.2245 12.6042 40.1105C12.5161 39.9986 12.4341 39.8806 12.3572 39.7596C12.3191 39.6985 12.2821 39.6365 12.2471 39.5735C12.2112 39.5115 12.1762 39.4476 12.1442 39.3825C12.0132 39.1255 11.9062 38.8586 11.8222 38.5845C11.7792 38.4466 11.7422 38.3076 11.7112 38.1666C11.6952 38.0955 11.6802 38.0246 11.6671 37.9536C11.6542 37.8825 11.6421 37.8116 11.6321 37.7396C11.5912 37.4545 11.5702 37.1675 11.5698 36.8771C11.5618 27.1472 11.5518 17.4162 11.542 7.68622C11.541 7.38922 11.568 7.09723 11.6231 6.80927C11.65 6.6662 11.6841 6.52325 11.7251 6.38226C11.7461 6.31122 11.7681 6.24127 11.7931 6.1712C11.817 6.10126 11.843 6.03326 11.87 5.96527C11.9801 5.69318 12.1151 5.43622 12.276 5.19318C12.3161 5.13226 12.3581 5.07318 12.401 5.01422C12.4451 4.95526 12.4901 4.89716 12.5371 4.84027C12.63 4.72723 12.7271 4.62018 12.8311 4.51727C13.0371 4.31427 13.2621 4.13226 13.5081 3.97321C13.5691 3.93317 13.6321 3.89423 13.6941 3.85822C13.7581 3.82123 13.8211 3.78717 13.8861 3.75323C14.0141 3.68719 14.146 3.62726 14.2801 3.57416C14.4151 3.5202 14.5531 3.47418 14.692 3.43317C14.7621 3.41327 14.833 3.39423 14.9041 3.37726C14.9751 3.36017 15.047 3.34528 15.119 3.33124C15.4051 3.27716 15.6961 3.24823 15.9896 3.24615C23.6208 3.18524 31.3747 3.18524 39.006 3.24615C39.3 3.24921 39.589 3.27716 39.872 3.33112C40.1549 3.38422 40.433 3.4632 40.705 3.57111C40.773 3.59711 40.841 3.62616 40.907 3.65619C40.974 3.6861 41.039 3.7182 41.1039 3.75116C41.2329 3.8172 41.3579 3.8891 41.4789 3.9682C41.7219 4.12421 41.9469 4.30511 42.157 4.51117C42.209 4.56219 42.2599 4.61517 42.309 4.66913C42.3579 4.72321 42.4059 4.77814 42.453 4.83417C42.5449 4.94611 42.632 5.06317 42.7119 5.18414C42.793 5.30511 42.867 5.43011 42.935 5.56012C42.97 5.62421 43.003 5.69012 43.034 5.75714C43.065 5.82416 43.095 5.89215 43.122 5.96014C43.232 6.23212 43.314 6.51312 43.37 6.80219C43.3839 6.87421 43.3949 6.9472 43.4059 7.0202C43.417 7.0932 43.4259 7.16718 43.4319 7.24115C43.4459 7.3891 43.453 7.53717 43.4527 7.68658Z" stroke="#FF00FF" stroke-width="0.283465" stroke-miterlimit="10" stroke-linecap="round" stroke-linejoin="round"/>
<path d="M17.75 25.7501C17.3594 25.7501 17.1201 25.506 17.1201 25.0958V19.3584C17.1201 18.9482 17.3594 18.7041 17.75 18.7041H21.1827C21.5294 18.7041 21.7589 18.9092 21.7589 19.2363C21.7589 19.5634 21.5294 19.7685 21.1827 19.7685H18.5217C18.4434 19.7685 18.38 19.832 18.38 19.9102V21.5311C18.38 21.6094 18.4435 21.6728 18.5217 21.6728H21.0362C21.3585 21.6728 21.5782 21.8632 21.5782 22.1709C21.5782 22.4786 21.3634 22.6738 21.0362 22.6738H18.5217C18.4434 22.6738 18.38 22.7373 18.38 22.8155V24.5438C18.38 24.6221 18.4435 24.6855 18.5217 24.6855H21.1827C21.5294 24.6855 21.7589 24.8906 21.7589 25.2177C21.7589 25.5448 21.5294 25.7499 21.1827 25.7499H17.75V25.7501Z" fill="black"/>
<path d="M30.3604 25.8526C28.8467 25.8526 27.8701 24.8272 27.8701 23.167C27.8701 21.5068 28.8418 20.4668 30.3506 20.4668C31.3662 20.4668 32.2305 20.9893 32.4795 21.7168C32.5186 21.8193 32.543 21.9219 32.543 22.0098C32.543 22.3125 32.3135 22.4981 32.0205 22.4981C31.7764 22.4981 31.6299 22.3956 31.4883 22.1514C31.2295 21.6778 30.8877 21.4532 30.3848 21.4532C29.6035 21.4532 29.1055 22.1026 29.1055 23.1622C29.1055 24.2218 29.6084 24.8712 30.3799 24.8712C30.917 24.8712 31.249 24.6222 31.4834 24.2071C31.6494 23.9337 31.7813 23.8311 32.0449 23.8311C32.333 23.8311 32.5576 24.0264 32.5576 24.3292C32.5576 24.422 32.5332 24.5245 32.4844 24.6417C32.1963 25.3497 31.3369 25.8526 30.3604 25.8526Z" fill="black"/>
<path d="M24.8496 25.8525C23.7558 25.8525 22.9892 25.4326 22.7402 24.8125C22.706 24.7246 22.6914 24.6465 22.6914 24.5732C22.6914 24.2802 22.9062 24.0947 23.1992 24.0947C23.3994 24.0947 23.5703 24.1875 23.7265 24.3926C23.9999 24.7881 24.3124 24.9455 24.8935 24.9455C25.4746 24.9455 25.8359 24.7246 25.8359 24.334C25.8359 24.0215 25.6406 23.8506 25.1084 23.7285L24.2685 23.5381C23.2577 23.3086 22.7597 22.8106 22.7597 22.0586C22.7597 21.0967 23.5898 20.4668 24.8691 20.4668C25.8652 20.4668 26.6367 20.9551 26.7978 21.5508C26.8124 21.6143 26.8222 21.6729 26.8222 21.7315C26.8222 21.9854 26.6611 22.1661 26.3534 22.1661C26.1776 22.1661 26.0018 22.1026 25.8895 21.9415C25.6502 21.5851 25.3524 21.3739 24.8397 21.3739C24.327 21.3739 23.9413 21.6192 23.9413 21.9903C23.9413 22.293 24.1659 22.4981 24.703 22.6202L25.5282 22.8009C26.622 23.0499 27.0565 23.4454 27.0565 24.212C27.0565 25.2032 26.1678 25.8526 24.8494 25.8526H24.8496V25.8525Z" fill="black"/>
</svg>
