<svg width="82" height="54" viewBox="0 0 82 54" fill="none" xmlns="http://www.w3.org/2000/svg">
<rect x="2.8501" y="1.85001" width="77.3" height="50.3" rx="3" stroke="#16215B" stroke-width="0.28"/>
<path d="M15.5618 42.8655C14.8838 42.8085 14.2118 42.6194 13.5944 42.3189C12.9724 42.0149 12.4074 41.5989 11.9433 41.0896C11.4783 40.5796 11.1163 39.9776 10.8635 39.3323C10.6105 38.6904 10.4665 38.0074 10.4389 37.3219L10.4229 7.34099C10.4369 6.78996 10.5389 6.23698 10.7162 5.7133C10.8052 5.45024 10.9122 5.19633 11.0369 4.95073C11.1619 4.70476 11.3059 4.4688 11.4653 4.24345C11.6243 4.02043 11.8003 3.8084 11.9915 3.61101C12.1815 3.41496 12.3875 3.23393 12.606 3.06865C12.823 2.90459 13.054 2.75664 13.2922 2.62578C13.5312 2.4948 13.7782 2.38078 14.0335 2.28618C14.3535 2.16716 14.6845 2.07915 15.0211 2.01714C15.3571 1.95512 15.6981 1.92021 16.0391 1.91411H16.0368C32.6808 1.82719 49.3247 1.82719 65.9694 1.91374C66.2234 1.91875 66.4774 1.93877 66.7295 1.97453C66.9825 2.01054 67.2325 2.06059 67.4778 2.12737C67.6418 2.17229 67.8038 2.22331 67.9626 2.28203C68.4725 2.47209 68.9575 2.73601 69.395 3.06535C69.8329 3.39641 70.222 3.7924 70.5428 4.23711C70.8658 4.68608 71.1208 5.18315 71.297 5.70793C71.473 6.23491 71.569 6.78899 71.5843 7.34087L71.5685 37.3226C71.5395 38.0076 71.3955 38.6956 71.1446 39.3357C71.0176 39.6587 70.8636 39.9698 70.6826 40.2634C70.5005 40.5584 70.2915 40.8373 70.059 41.0931C69.826 41.3501 69.5689 41.5832 69.2922 41.7907C69.0152 41.9967 68.7202 42.1778 68.4105 42.3288C68.2555 42.4039 68.0984 42.4718 67.9373 42.5331C67.7772 42.5931 67.6132 42.6451 67.4482 42.6894C67.2833 42.7334 67.1162 42.7685 66.9474 42.7994C66.7804 42.8304 66.6114 42.8564 66.4409 42.865C57.9669 43.2481 49.485 43.439 41.0025 43.4394C32.5204 43.4394 24.0395 43.2474 15.5655 42.8653" stroke="#16215B" stroke-width="0.283" stroke-miterlimit="10"/>
<path d="M68.0541 40.8116H14.0141C12.8392 40.8117 11.8872 39.8597 11.8872 38.6856V6.20673C11.8871 5.03314 12.8391 4.08112 14.0141 4.08112H17.5571H64.5101H68.0542C69.2281 4.08112 70.1801 5.03314 70.1801 6.20709V38.6856C70.1801 39.8597 69.2281 40.8116 68.0541 40.8116Z" stroke="#00FFFF" stroke-width="0.28" stroke-miterlimit="10"/>
<path d="M70.6069 36.8347C70.6059 37.1287 70.5839 37.4187 70.5399 37.7067C70.5179 37.8507 70.4899 37.9928 70.4559 38.1347C70.4389 38.2058 70.4209 38.2767 70.3999 38.3477C70.3799 38.4177 70.3589 38.4877 70.3359 38.5577C70.2429 38.8358 70.1269 39.1018 69.9869 39.3547C69.9169 39.4818 69.8409 39.6057 69.7579 39.7257C69.7169 39.7857 69.6739 39.8447 69.6289 39.9038C69.5839 39.9617 69.5379 40.0188 69.4899 40.0747C69.4419 40.1307 69.3939 40.1857 69.3429 40.2387C69.2929 40.2917 69.2409 40.3437 69.1889 40.3938C69.0829 40.4937 68.9729 40.5877 68.8579 40.6767C68.7419 40.7647 68.6219 40.8468 68.4969 40.9227C68.4349 40.9608 68.3699 40.9967 68.3059 41.0317C68.2409 41.0667 68.1759 41.0997 68.1099 41.1307C67.8469 41.2547 67.5729 41.3497 67.2889 41.4177C67.1479 41.4517 67.0029 41.4787 66.8579 41.4987C66.7139 41.5188 66.5669 41.5327 66.4209 41.5387C49.5273 42.2937 32.5073 42.2937 15.6123 41.5387C15.3208 41.5251 15.0318 41.486 14.7468 41.418C14.6758 41.4011 14.6058 41.3822 14.5348 41.3621C14.4648 41.3411 14.3958 41.319 14.3268 41.2951C14.1898 41.2471 14.0558 41.1921 13.9238 41.1311C13.7928 41.069 13.6648 41.0011 13.5398 40.9251C13.4778 40.887 13.4158 40.8471 13.3558 40.8061C13.2948 40.7641 13.2358 40.7221 13.1778 40.6771C12.9468 40.5001 12.7368 40.3011 12.5468 40.0791C12.4998 40.0231 12.4528 39.9671 12.4088 39.9091C12.3648 39.8512 12.3208 39.7911 12.2798 39.7312C12.1968 39.6101 12.1188 39.486 12.0488 39.3591C11.9788 39.2321 11.9138 39.1021 11.8558 38.9681C11.8258 38.9011 11.7988 38.8341 11.7728 38.7661C11.7458 38.6971 11.7218 38.6281 11.6988 38.5592C11.6058 38.2801 11.5388 37.9971 11.4938 37.7091C11.4718 37.5651 11.4548 37.4201 11.4448 37.2741C11.4338 37.1281 11.4278 36.9821 11.4278 36.835C11.4234 31.9847 11.4194 27.1337 11.4144 22.2827C11.4104 17.8728 11.4064 13.4617 11.4014 9.05171C11.4014 8.61067 11.4004 8.16866 11.4004 7.72664C11.3991 7.42183 11.4301 7.1219 11.4901 6.82784C11.5201 6.67989 11.5581 6.53389 11.6031 6.38985C11.6261 6.31783 11.6511 6.2458 11.6781 6.17488C11.7041 6.10384 11.7331 6.03389 11.7631 5.9648C11.8841 5.6888 12.0321 5.42891 12.2081 5.18379C12.2521 5.12288 12.2981 5.06282 12.3451 5.00386C12.3931 4.9449 12.4411 4.8868 12.4921 4.83089C12.5931 4.71883 12.6981 4.61189 12.8091 4.5118C12.9201 4.41084 13.0361 4.31587 13.1561 4.22688C13.2171 4.18184 13.2781 4.13887 13.3411 4.09785C13.4041 4.05586 13.4681 4.01582 13.5331 3.97688C13.7941 3.82185 14.0651 3.6949 14.3481 3.59187C14.4891 3.54085 14.6341 3.4958 14.7801 3.45686C14.9271 3.4189 15.0741 3.3868 15.2231 3.36189C15.5181 3.30989 15.8191 3.28389 16.1222 3.28279C32.6792 3.19685 49.3542 3.19685 65.9108 3.28267C66.0638 3.28365 66.2148 3.29073 66.3648 3.30367C66.5158 3.31673 66.6648 3.33565 66.8128 3.36165C67.1088 3.41267 67.3988 3.48872 67.6838 3.59175C67.7548 3.61775 67.8248 3.64473 67.8948 3.67366C67.9648 3.70271 68.0328 3.73274 68.1008 3.76472C68.2368 3.82869 68.3668 3.89766 68.4948 3.97371C68.7508 4.12569 68.9918 4.30171 69.2168 4.50471C69.2728 4.55574 69.3278 4.60774 69.3818 4.6617C69.4358 4.71565 69.4878 4.77071 69.5378 4.82674C69.6398 4.93965 69.7348 5.05769 69.8218 5.17867C69.9978 5.42268 70.1478 5.68269 70.2688 5.96065C70.2998 6.03072 70.3278 6.10164 70.3548 6.17171C70.3818 6.24373 70.4058 6.31465 70.4288 6.38667C70.4748 6.52974 70.5128 6.67574 70.5428 6.82271C70.5728 6.97066 70.5958 7.11971 70.6118 7.26973C70.6178 7.34566 70.6238 7.42171 70.6278 7.49776C70.6318 7.57466 70.6338 7.65071 70.6335 7.72713L70.6195 22.2832C70.6155 26.6931 70.6115 31.1041 70.6075 35.5141C70.6065 35.9552 70.6065 36.3951 70.6055 36.835" stroke="#FF00FF" stroke-width="0.283465" stroke-miterlimit="10" stroke-linecap="round" stroke-linejoin="round"/>
<path d="M66.9144 44.9191V50.01H66.2979V45.5654H66.2681L65.0252 46.3907V45.7643L66.2979 44.9191H66.9144ZM68.5153 50.0498C68.3926 50.0498 68.2874 50.0059 68.1996 49.918C68.1117 49.8302 68.0678 49.725 68.0678 49.6023C68.0678 49.4797 68.1117 49.3745 68.1996 49.2866C68.2874 49.1988 68.3926 49.1549 68.5153 49.1549C68.6379 49.1549 68.7431 49.1988 68.831 49.2866C68.9188 49.3745 68.9627 49.4797 68.9627 49.6023C68.9627 49.6835 68.942 49.7581 68.9006 49.8261C68.8608 49.894 68.8069 49.9487 68.739 49.9901C68.6727 50.0299 68.5981 50.0498 68.5153 50.0498ZM71.4939 50.0796C71.2022 50.0796 70.9395 50.0216 70.7059 49.9056C70.4722 49.7896 70.2849 49.6305 70.1441 49.4283C70.0032 49.2262 69.9262 48.9958 69.9129 48.7373H70.5095C70.5327 48.9676 70.6371 49.1582 70.8227 49.309C71.01 49.4582 71.2337 49.5327 71.4939 49.5327C71.7027 49.5327 71.8883 49.4838 72.0507 49.3861C72.2148 49.2883 72.3432 49.1541 72.436 48.9834C72.5305 48.811 72.5777 48.6163 72.5777 48.3992C72.5777 48.1771 72.5288 47.9791 72.431 47.8051C72.3349 47.6294 72.2023 47.4911 72.0333 47.39C71.8643 47.2889 71.6712 47.2375 71.4541 47.2359C71.2983 47.2342 71.1384 47.2582 70.9743 47.308C70.8103 47.356 70.6752 47.4182 70.5692 47.4944L69.9925 47.4248L70.3007 44.9191H72.9456V45.466H70.8177L70.6388 46.9674H70.6686C70.773 46.8845 70.9039 46.8158 71.0613 46.7611C71.2188 46.7064 71.3828 46.679 71.5535 46.679C71.8651 46.679 72.1427 46.7536 72.3863 46.9028C72.6315 47.0503 72.8238 47.2524 72.963 47.5093C73.1038 47.7662 73.1743 48.0595 73.1743 48.3893C73.1743 48.7141 73.1014 49.0041 72.9555 49.2593C72.8113 49.5129 72.6125 49.7134 72.3589 49.8609C72.1054 50.0067 71.817 50.0796 71.4939 50.0796ZM75.8223 50.0796C75.4477 50.0796 75.1287 49.9777 74.8652 49.7739C74.6017 49.5684 74.4004 49.2709 74.2612 48.8815C74.122 48.4904 74.0524 48.0181 74.0524 47.4646C74.0524 46.9144 74.122 46.4446 74.2612 46.0551C74.402 45.664 74.6042 45.3657 74.8677 45.1602C75.1329 44.9531 75.4511 44.8495 75.8223 44.8495C76.1935 44.8495 76.5108 44.9531 76.7743 45.1602C77.0395 45.3657 77.2417 45.664 77.3809 46.0551C77.5217 46.4446 77.5922 46.9144 77.5922 47.4646C77.5922 48.0181 77.5225 48.4904 77.3833 48.8815C77.2441 49.2709 77.0428 49.5684 76.7793 49.7739C76.5158 49.9777 76.1968 50.0796 75.8223 50.0796ZM75.8223 49.5327C76.1935 49.5327 76.4818 49.3538 76.6873 48.9958C76.8928 48.6379 76.9956 48.1274 76.9956 47.4646C76.9956 47.0237 76.9483 46.6484 76.8539 46.3385C76.7611 46.0286 76.6268 45.7924 76.4512 45.63C76.2772 45.4676 76.0675 45.3864 75.8223 45.3864C75.4544 45.3864 75.1668 45.5679 74.9597 45.9308C74.7525 46.2921 74.649 46.8033 74.649 47.4646C74.649 47.9054 74.6954 48.2799 74.7882 48.5881C74.881 48.8964 75.0144 49.1309 75.1884 49.2916C75.3641 49.4524 75.5753 49.5327 75.8223 49.5327Z" fill="#0000FF"/>
<path d="M18.8736 14.3608L18.7619 12.5191C18.7309 12.0974 19.0348 11.7501 19.4937 11.7501C19.9464 11.7501 20.244 12.1036 20.2192 12.5191L20.1076 14.3608C20.0828 14.7143 19.8223 15.0119 19.4875 15.0119C19.1526 15.0119 18.8922 14.7143 18.8736 14.3608Z" fill="black"/>
<path d="M19.5 35.0618L19.7885 33.6359C19.8061 33.5491 19.7398 33.4681 19.6513 33.4681H18.5108C18.4441 33.4681 18.3867 33.5151 18.3736 33.5805L18.0303 35.285C17.9559 35.6695 17.7141 35.8742 17.3854 35.8742C17.0443 35.8742 16.8149 35.6447 16.8149 35.2912C16.8149 35.2168 16.8211 35.13 16.8335 35.0618L17.1275 33.6364C17.1454 33.5495 17.079 33.4681 16.9903 33.4681H16.6661C16.2072 33.4681 15.9653 33.2325 15.9653 32.8604C15.9653 32.5007 16.2072 32.2713 16.6661 32.2713H17.2829C17.3497 32.2713 17.4072 32.2241 17.4202 32.1585L17.6809 30.8448C17.6981 30.7583 17.6318 30.6776 17.5436 30.6776H17.2614C16.8025 30.6776 16.5606 30.4357 16.5606 30.0699C16.5606 29.704 16.8025 29.4745 17.2614 29.4745H17.8416C17.9081 29.4745 17.9655 29.4277 17.9788 29.3626L18.3032 27.7754C18.3714 27.4096 18.607 27.2111 18.9109 27.2111C19.2644 27.2111 19.5186 27.4654 19.5186 27.8064C19.5186 27.8684 19.5062 27.9491 19.4938 28.0173L19.2305 29.3065C19.2127 29.3933 19.279 29.4745 19.3676 29.4745H20.5019C20.5684 29.4745 20.6258 29.4277 20.6391 29.3626L20.9635 27.7754C21.0379 27.4158 21.2735 27.2111 21.5898 27.2111C21.9371 27.2111 22.1851 27.4654 22.1851 27.8064C22.1851 27.8684 22.1789 27.9491 22.1665 28.0173L21.8978 29.306C21.8797 29.3929 21.946 29.4745 22.0348 29.4745H22.4394C22.8982 29.4745 23.1277 29.6978 23.1277 30.0637C23.1277 30.4419 22.892 30.6776 22.427 30.6776H21.7415C21.6749 30.6776 21.6175 30.7245 21.6043 30.7898L21.3045 32.2713H21.844C22.3029 32.2713 22.5324 32.4883 22.5324 32.8604C22.5324 33.2325 22.2967 33.4681 21.8316 33.4681H21.1773C21.1106 33.4681 21.0532 33.5151 21.0401 33.5805L20.6968 35.285C20.6224 35.6695 20.3868 35.8742 20.0643 35.8742C19.717 35.8742 19.4752 35.6385 19.4752 35.2912C19.4752 35.2168 19.4876 35.13 19.5 35.0618ZM18.9947 30.5598C18.9279 30.5598 18.8705 30.6069 18.8574 30.6723L18.5475 32.2216C18.5302 32.3083 18.5964 32.3891 18.6848 32.3891H20.0298C20.0967 32.3891 20.1542 32.3418 20.1671 32.2761L20.4718 30.7268C20.4888 30.6403 20.4225 30.5598 20.3344 30.5598H18.9947Z" fill="black"/>
</svg>
