<svg width="81" height="54" viewBox="0 0 81 54" fill="none" xmlns="http://www.w3.org/2000/svg">
<path d="M15.0618 42.8655C14.3838 42.8085 13.7118 42.6194 13.0944 42.3189C12.4724 42.0149 11.9074 41.5989 11.4433 41.0896C10.9783 40.5796 10.6163 39.9776 10.3635 39.3323C10.1105 38.6904 9.96648 38.0074 9.93886 37.3219L9.92285 7.34099C9.93686 6.78996 10.0389 6.23698 10.2162 5.7133C10.3052 5.45024 10.4122 5.19633 10.5369 4.95073C10.6619 4.70476 10.8059 4.4688 10.9653 4.24345C11.1243 4.02043 11.3003 3.8084 11.4915 3.61101C11.6815 3.41496 11.8875 3.23393 12.106 3.06865C12.323 2.90459 12.554 2.75664 12.7922 2.62578C13.0312 2.4948 13.2782 2.38078 13.5335 2.28618C13.8535 2.16716 14.1845 2.07915 14.5211 2.01714C14.8571 1.95512 15.1981 1.92021 15.5391 1.91411H15.5368C32.1808 1.82719 48.8247 1.82719 65.4694 1.91374C65.7234 1.91875 65.9774 1.93877 66.2295 1.97453C66.4825 2.01054 66.7325 2.06059 66.9778 2.12737C67.1418 2.17229 67.3038 2.22331 67.4626 2.28203C67.9725 2.47209 68.4575 2.73601 68.895 3.06535C69.3329 3.39641 69.722 3.7924 70.0428 4.23711C70.3658 4.68608 70.6208 5.18315 70.797 5.70793C70.973 6.23491 71.069 6.78899 71.0843 7.34087L71.0685 37.3226C71.0395 38.0076 70.8955 38.6956 70.6446 39.3357C70.5176 39.6587 70.3636 39.9698 70.1826 40.2634C70.0005 40.5584 69.7915 40.8373 69.559 41.0931C69.326 41.3501 69.0689 41.5832 68.7922 41.7907C68.5152 41.9967 68.2202 42.1778 67.9105 42.3288C67.7555 42.4039 67.5984 42.4718 67.4373 42.5331C67.2772 42.5931 67.1132 42.6451 66.9482 42.6894C66.7833 42.7334 66.6162 42.7685 66.4474 42.7994C66.2804 42.8304 66.1114 42.8564 65.9409 42.865C57.4669 43.2481 48.985 43.439 40.5025 43.4394C32.0204 43.4394 23.5395 43.2474 15.0655 42.8653" stroke="#16215B" stroke-width="0.283" stroke-miterlimit="10"/>
<path d="M67.5541 40.8116H13.5141C12.3392 40.8117 11.3872 39.8597 11.3872 38.6856V6.20673C11.3871 5.03314 12.3391 4.08112 13.5141 4.08112H17.0571H64.0101H67.5542C68.7281 4.08112 69.6801 5.03314 69.6801 6.20709V38.6856C69.6801 39.8597 68.7281 40.8116 67.5541 40.8116Z" stroke="#00FFFF" stroke-width="0.28" stroke-miterlimit="10"/>
<path d="M70.1069 36.8347C70.1059 37.1287 70.0839 37.4187 70.0399 37.7067C70.0179 37.8507 69.9899 37.9928 69.9559 38.1347C69.9389 38.2058 69.9209 38.2767 69.8999 38.3477C69.8799 38.4177 69.8589 38.4877 69.8359 38.5577C69.7429 38.8358 69.6269 39.1018 69.4869 39.3547C69.4169 39.4818 69.3409 39.6057 69.2579 39.7257C69.2169 39.7857 69.1739 39.8447 69.1289 39.9038C69.0839 39.9617 69.0379 40.0188 68.9899 40.0747C68.9419 40.1307 68.8939 40.1857 68.8429 40.2387C68.7929 40.2917 68.7409 40.3437 68.6889 40.3938C68.5829 40.4937 68.4729 40.5877 68.3579 40.6767C68.2419 40.7647 68.1219 40.8468 67.9969 40.9227C67.9349 40.9608 67.8699 40.9967 67.8059 41.0317C67.7409 41.0667 67.6759 41.0997 67.6099 41.1307C67.3469 41.2547 67.0729 41.3497 66.7889 41.4177C66.6479 41.4517 66.5029 41.4787 66.3579 41.4987C66.2139 41.5188 66.0669 41.5327 65.9209 41.5387C49.0273 42.2937 32.0073 42.2937 15.1123 41.5387C14.8208 41.5251 14.5318 41.486 14.2468 41.418C14.1758 41.4011 14.1058 41.3822 14.0348 41.3621C13.9648 41.3411 13.8958 41.319 13.8268 41.2951C13.6898 41.2471 13.5558 41.1921 13.4238 41.1311C13.2928 41.069 13.1648 41.0011 13.0398 40.9251C12.9778 40.887 12.9158 40.8471 12.8558 40.8061C12.7948 40.7641 12.7358 40.7221 12.6778 40.6771C12.4468 40.5001 12.2368 40.3011 12.0468 40.0791C11.9998 40.0231 11.9528 39.9671 11.9088 39.9091C11.8648 39.8512 11.8208 39.7911 11.7798 39.7312C11.6968 39.6101 11.6188 39.486 11.5488 39.3591C11.4788 39.2321 11.4138 39.1021 11.3558 38.9681C11.3258 38.9011 11.2988 38.8341 11.2728 38.7661C11.2458 38.6971 11.2218 38.6281 11.1988 38.5592C11.1058 38.2801 11.0388 37.9971 10.9938 37.7091C10.9718 37.5651 10.9548 37.4201 10.9448 37.2741C10.9338 37.1281 10.9278 36.9821 10.9278 36.835C10.9234 31.9847 10.9194 27.1337 10.9144 22.2827C10.9104 17.8728 10.9064 13.4617 10.9014 9.05171C10.9014 8.61067 10.9004 8.16866 10.9004 7.72664C10.8991 7.42183 10.9301 7.1219 10.9901 6.82784C11.0201 6.67989 11.0581 6.53389 11.1031 6.38985C11.1261 6.31783 11.1511 6.2458 11.1781 6.17488C11.2041 6.10384 11.2331 6.03389 11.2631 5.9648C11.3841 5.6888 11.5321 5.42891 11.7081 5.18379C11.7521 5.12288 11.7981 5.06282 11.8451 5.00386C11.8931 4.9449 11.9411 4.8868 11.9921 4.83089C12.0931 4.71883 12.1981 4.61189 12.3091 4.5118C12.4201 4.41084 12.5361 4.31587 12.6561 4.22688C12.7171 4.18184 12.7781 4.13887 12.8411 4.09785C12.9041 4.05586 12.9681 4.01582 13.0331 3.97688C13.2941 3.82185 13.5651 3.6949 13.8481 3.59187C13.9891 3.54085 14.1341 3.4958 14.2801 3.45686C14.4271 3.4189 14.5741 3.3868 14.7231 3.36189C15.0181 3.30989 15.3191 3.28389 15.6222 3.28279C32.1792 3.19685 48.8542 3.19685 65.4108 3.28267C65.5638 3.28365 65.7148 3.29073 65.8648 3.30367C66.0158 3.31673 66.1648 3.33565 66.3128 3.36165C66.6088 3.41267 66.8988 3.48872 67.1838 3.59175C67.2548 3.61775 67.3248 3.64473 67.3948 3.67366C67.4648 3.70271 67.5328 3.73274 67.6008 3.76472C67.7368 3.82869 67.8668 3.89766 67.9948 3.97371C68.2508 4.12569 68.4918 4.30171 68.7168 4.50471C68.7728 4.55574 68.8278 4.60774 68.8818 4.6617C68.9358 4.71565 68.9878 4.77071 69.0378 4.82674C69.1398 4.93965 69.2348 5.05769 69.3218 5.17867C69.4978 5.42268 69.6478 5.68269 69.7688 5.96065C69.7998 6.03072 69.8278 6.10164 69.8548 6.17171C69.8818 6.24373 69.9058 6.31465 69.9288 6.38667C69.9748 6.52974 70.0128 6.67574 70.0428 6.82271C70.0728 6.97066 70.0958 7.11971 70.1118 7.26973C70.1178 7.34566 70.1238 7.42171 70.1278 7.49776C70.1318 7.57466 70.1338 7.65071 70.1335 7.72713L70.1195 22.2832C70.1155 26.6931 70.1115 31.1041 70.1075 35.5141C70.1065 35.9552 70.1065 36.3951 70.1055 36.835" stroke="#FF00FF" stroke-width="0.283465" stroke-miterlimit="10" stroke-linecap="round" stroke-linejoin="round"/>
<path d="M68.4144 46.9191V52.01H67.7979V47.5654H67.7681L66.5252 48.3907V47.7643L67.7979 46.9191H68.4144ZM70.0153 52.0498C69.8926 52.0498 69.7874 52.0059 69.6996 51.918C69.6117 51.8302 69.5678 51.725 69.5678 51.6023C69.5678 51.4797 69.6117 51.3745 69.6996 51.2866C69.7874 51.1988 69.8926 51.1549 70.0153 51.1549C70.1379 51.1549 70.2431 51.1988 70.331 51.2866C70.4188 51.3745 70.4627 51.4797 70.4627 51.6023C70.4627 51.6835 70.442 51.7581 70.4006 51.8261C70.3608 51.894 70.3069 51.9487 70.239 51.9901C70.1727 52.0299 70.0981 52.0498 70.0153 52.0498ZM72.9939 52.0796C72.7022 52.0796 72.4395 52.0216 72.2059 51.9056C71.9722 51.7896 71.7849 51.6305 71.6441 51.4283C71.5032 51.2262 71.4262 50.9958 71.4129 50.7373H72.0095C72.0327 50.9676 72.1371 51.1582 72.3227 51.309C72.51 51.4582 72.7337 51.5327 72.9939 51.5327C73.2027 51.5327 73.3883 51.4838 73.5507 51.3861C73.7148 51.2883 73.8432 51.1541 73.936 50.9834C74.0305 50.811 74.0777 50.6163 74.0777 50.3992C74.0777 50.1771 74.0288 49.9791 73.931 49.8051C73.8349 49.6294 73.7023 49.4911 73.5333 49.39C73.3643 49.2889 73.1712 49.2375 72.9541 49.2359C72.7983 49.2342 72.6384 49.2582 72.4743 49.308C72.3103 49.356 72.1752 49.4182 72.0692 49.4944L71.4925 49.4248L71.8007 46.9191H74.4456V47.466H72.3177L72.1388 48.9674H72.1686C72.273 48.8845 72.4039 48.8158 72.5613 48.7611C72.7188 48.7064 72.8828 48.679 73.0535 48.679C73.3651 48.679 73.6427 48.7536 73.8863 48.9028C74.1315 49.0503 74.3238 49.2524 74.463 49.5093C74.6038 49.7662 74.6743 50.0595 74.6743 50.3893C74.6743 50.7141 74.6014 51.0041 74.4555 51.2593C74.3113 51.5129 74.1125 51.7134 73.8589 51.8609C73.6054 52.0067 73.317 52.0796 72.9939 52.0796ZM77.3223 52.0796C76.9477 52.0796 76.6287 51.9777 76.3652 51.7739C76.1017 51.5684 75.9004 51.2709 75.7612 50.8815C75.622 50.4904 75.5524 50.0181 75.5524 49.4646C75.5524 48.9144 75.622 48.4446 75.7612 48.0551C75.902 47.664 76.1042 47.3657 76.3677 47.1602C76.6329 46.9531 76.9511 46.8495 77.3223 46.8495C77.6935 46.8495 78.0108 46.9531 78.2743 47.1602C78.5395 47.3657 78.7417 47.664 78.8809 48.0551C79.0217 48.4446 79.0922 48.9144 79.0922 49.4646C79.0922 50.0181 79.0225 50.4904 78.8833 50.8815C78.7441 51.2709 78.5428 51.5684 78.2793 51.7739C78.0158 51.9777 77.6968 52.0796 77.3223 52.0796ZM77.3223 51.5327C77.6935 51.5327 77.9818 51.3538 78.1873 50.9958C78.3928 50.6379 78.4956 50.1274 78.4956 49.4646C78.4956 49.0237 78.4483 48.6484 78.3539 48.3385C78.2611 48.0286 78.1268 47.7924 77.9512 47.63C77.7772 47.4676 77.5675 47.3864 77.3223 47.3864C76.9544 47.3864 76.6668 47.5679 76.4597 47.9308C76.2525 48.2921 76.149 48.8033 76.149 49.4646C76.149 49.9054 76.1954 50.2799 76.2882 50.5881C76.381 50.8964 76.5144 51.1309 76.6884 51.2916C76.8641 51.4524 77.0753 51.5327 77.3223 51.5327Z" fill="#0000FF"/>
<path d="M18.3736 14.3608L18.2619 12.5191C18.2309 12.0974 18.5348 11.7501 18.9937 11.7501C19.4464 11.7501 19.744 12.1036 19.7192 12.5191L19.6076 14.3608C19.5828 14.7143 19.3223 15.0119 18.9875 15.0119C18.6526 15.0119 18.3922 14.7143 18.3736 14.3608Z" fill="black"/>
<path d="M19 35.0618L19.2885 33.6359C19.3061 33.5491 19.2398 33.4681 19.1513 33.4681H18.0108C17.9441 33.4681 17.8867 33.5151 17.8736 33.5805L17.5303 35.285C17.4559 35.6695 17.2141 35.8742 16.8854 35.8742C16.5443 35.8742 16.3149 35.6447 16.3149 35.2912C16.3149 35.2168 16.3211 35.13 16.3335 35.0618L16.6275 33.6364C16.6454 33.5495 16.579 33.4681 16.4903 33.4681H16.1661C15.7072 33.4681 15.4653 33.2325 15.4653 32.8604C15.4653 32.5007 15.7072 32.2713 16.1661 32.2713H16.7829C16.8497 32.2713 16.9072 32.2241 16.9202 32.1585L17.1809 30.8448C17.1981 30.7583 17.1318 30.6776 17.0436 30.6776H16.7614C16.3025 30.6776 16.0606 30.4357 16.0606 30.0699C16.0606 29.704 16.3025 29.4745 16.7614 29.4745H17.3416C17.4081 29.4745 17.4655 29.4277 17.4788 29.3626L17.8032 27.7754C17.8714 27.4096 18.107 27.2111 18.4109 27.2111C18.7644 27.2111 19.0186 27.4654 19.0186 27.8064C19.0186 27.8684 19.0062 27.9491 18.9938 28.0173L18.7305 29.3065C18.7127 29.3933 18.779 29.4745 18.8676 29.4745H20.0019C20.0684 29.4745 20.1258 29.4277 20.1391 29.3626L20.4635 27.7754C20.5379 27.4158 20.7735 27.2111 21.0898 27.2111C21.4371 27.2111 21.6851 27.4654 21.6851 27.8064C21.6851 27.8684 21.6789 27.9491 21.6665 28.0173L21.3978 29.306C21.3797 29.3929 21.446 29.4745 21.5348 29.4745H21.9394C22.3982 29.4745 22.6277 29.6978 22.6277 30.0637C22.6277 30.4419 22.392 30.6776 21.927 30.6776H21.2415C21.1749 30.6776 21.1175 30.7245 21.1043 30.7898L20.8045 32.2713H21.344C21.8029 32.2713 22.0324 32.4883 22.0324 32.8604C22.0324 33.2325 21.7967 33.4681 21.3316 33.4681H20.6773C20.6106 33.4681 20.5532 33.5151 20.5401 33.5805L20.1968 35.285C20.1224 35.6695 19.8868 35.8742 19.5643 35.8742C19.217 35.8742 18.9752 35.6385 18.9752 35.2912C18.9752 35.2168 18.9876 35.13 19 35.0618ZM18.4947 30.5598C18.4279 30.5598 18.3705 30.6069 18.3574 30.6723L18.0475 32.2216C18.0302 32.3083 18.0964 32.3891 18.1848 32.3891H19.5298C19.5967 32.3891 19.6542 32.3418 19.6671 32.2761L19.9718 30.7268C19.9888 30.6403 19.9225 30.5598 19.8344 30.5598H18.4947Z" fill="black"/>
</svg>
