<svg width="68" height="55" viewBox="0 0 68 55" fill="none" xmlns="http://www.w3.org/2000/svg">
<path opacity="0.5" d="M47.4491 46.9191V52.01H46.8326V47.5654H46.8028L45.5599 48.3907V47.7643L46.8326 46.9191H47.4491ZM49.0499 52.0498C48.9273 52.0498 48.8221 52.0059 48.7342 51.918C48.6464 51.8302 48.6025 51.725 48.6025 51.6023C48.6025 51.4797 48.6464 51.3745 48.7342 51.2866C48.8221 51.1988 48.9273 51.1549 49.0499 51.1549C49.1726 51.1549 49.2778 51.1988 49.3656 51.2866C49.4535 51.3745 49.4974 51.4797 49.4974 51.6023C49.4974 51.6835 49.4767 51.7581 49.4352 51.8261C49.3955 51.894 49.3416 51.9487 49.2737 51.9901C49.2074 52.0299 49.1328 52.0498 49.0499 52.0498ZM50.5402 52.01V51.5626L52.2206 49.7231C52.4178 49.5076 52.5802 49.3204 52.7078 49.1613C52.8354 49.0005 52.9299 48.8497 52.9912 48.7089C53.0541 48.5664 53.0856 48.4172 53.0856 48.2614C53.0856 48.0825 53.0425 47.9275 52.9564 47.7966C52.8718 47.6657 52.7558 47.5646 52.6084 47.4933C52.4609 47.4221 52.2951 47.3864 52.1112 47.3864C51.9156 47.3864 51.745 47.427 51.5991 47.5082C51.4549 47.5878 51.3431 47.6996 51.2635 47.8438C51.1857 47.988 51.1467 48.157 51.1467 48.3509H50.5601C50.5601 48.0526 50.6288 47.7908 50.7664 47.5654C50.9039 47.34 51.0912 47.1644 51.3282 47.0384C51.5668 46.9125 51.8344 46.8495 52.1311 46.8495C52.4294 46.8495 52.6937 46.9125 52.9241 47.0384C53.1544 47.1644 53.335 47.3342 53.466 47.548C53.5969 47.7618 53.6623 47.9996 53.6623 48.2614C53.6623 48.4487 53.6284 48.6318 53.5604 48.8108C53.4941 48.9881 53.3781 49.1861 53.2124 49.4049C53.0483 49.622 52.8205 49.8871 52.5288 50.2004L51.3853 51.4234V51.4631H53.7518V52.01H50.5402ZM56.3694 52.0796C56.0777 52.0796 55.815 52.0216 55.5814 51.9056C55.3477 51.7896 55.1604 51.6305 55.0196 51.4283C54.8787 51.2262 54.8017 50.9958 54.7884 50.7373H55.385C55.4082 50.9676 55.5126 51.1582 55.6982 51.309C55.8855 51.4582 56.1092 51.5327 56.3694 51.5327C56.5782 51.5327 56.7638 51.4838 56.9262 51.3861C57.0902 51.2883 57.2187 51.1541 57.3115 50.9834C57.4059 50.811 57.4532 50.6163 57.4532 50.3992C57.4532 50.1771 57.4043 49.9791 57.3065 49.8051C57.2104 49.6294 57.0778 49.4911 56.9088 49.39C56.7397 49.2889 56.5467 49.2375 56.3296 49.2359C56.1738 49.2342 56.0139 49.2582 55.8498 49.308C55.6858 49.356 55.5507 49.4182 55.4446 49.4944L54.8679 49.4248L55.1762 46.9191H57.8211V47.466H55.6932L55.5142 48.9674H55.5441C55.6485 48.8845 55.7794 48.8158 55.9368 48.7611C56.0943 48.7064 56.2583 48.679 56.429 48.679C56.7406 48.679 57.0182 48.7536 57.2618 48.9028C57.507 49.0503 57.6993 49.2524 57.8385 49.5093C57.9793 49.7662 58.0498 50.0595 58.0498 50.3893C58.0498 50.7141 57.9768 51.0041 57.831 51.2593C57.6868 51.5129 57.488 51.7134 57.2344 51.8609C56.9809 52.0067 56.6925 52.0796 56.3694 52.0796Z" fill="#0000FF"/>
<path d="M9.88481 37.1229C9.89581 37.2928 9.91281 37.4619 9.93381 37.6298C9.95581 37.7988 9.98381 37.9658 10.0178 38.1324C10.0518 38.2994 10.0928 38.4654 10.1427 38.6284C10.1917 38.7923 10.2497 38.9533 10.3136 39.1126C10.3786 39.2706 10.4506 39.4276 10.5284 39.5793C10.6074 39.7324 10.6934 39.8813 10.7852 40.0273C10.9702 40.3183 11.1822 40.5922 11.4195 40.843C11.6555 41.0939 11.9175 41.322 12.1972 41.5244C12.4772 41.7253 12.7742 41.9003 13.0859 42.0479C13.7039 42.341 14.3789 42.5259 15.0575 42.5849C25.7235 43.0129 36.3965 43.2279 47.0705 43.2279C48.6835 43.2279 50.2965 43.2228 51.9085 43.2133C52.2715 43.1854 52.6345 43.1303 52.9884 43.0488C53.3454 42.9667 53.6944 42.8577 54.035 42.7194C54.714 42.4444 55.355 42.0505 55.884 41.5445C56.149 41.2906 56.385 41.0085 56.5924 40.707C56.7984 40.406 56.9744 40.085 57.12 39.7507C57.266 39.4196 57.382 39.0756 57.469 38.7232C57.555 38.3742 57.612 38.0181 57.636 37.6597L57.6362 7.11543C57.6092 6.71748 57.5352 6.32148 57.4195 5.93989C57.3025 5.55683 57.1445 5.18989 56.9464 4.84113C56.5554 4.15107 56.0104 3.53706 55.3677 3.07917C55.0637 2.86213 54.7377 2.67414 54.3982 2.51618C54.0682 2.36225 53.7272 2.23725 53.376 2.13862C52.702 1.94856 51.999 1.85761 51.3014 1.852C39.4064 1.84492 27.5134 1.86701 15.6197 1.91779C15.2797 1.9228 14.9407 1.95478 14.6054 2.01032C14.2704 2.06733 13.9394 2.14838 13.6185 2.25605C13.1005 2.43305 12.6045 2.68403 12.1568 3.00043C11.9308 3.15937 11.7178 3.33442 11.5209 3.52595C11.3229 3.71894 11.1399 3.92793 10.9736 4.14863C10.8076 4.37165 10.6586 4.60554 10.5277 4.85078C10.3967 5.09577 10.2837 5.3498 10.1894 5.6125C10.0014 6.1385 9.89142 6.6955 9.87012 7.25105L9.88213 36.853" stroke="#16215B" stroke-width="0.283" stroke-miterlimit="10"/>
<path d="M52.5645 39.9726H14.9404C13.7664 39.9727 12.8145 39.0207 12.8145 37.8466V7.23273C12.8144 6.05841 13.7664 5.10638 14.9404 5.10638H18.4844H49.0215H52.5645C53.7394 5.10638 54.6905 6.05841 54.6905 7.23236L54.6904 37.8466C54.6904 39.0207 53.7394 39.9726 52.5645 39.9726Z" stroke="#00FFFF" stroke-width="0.28" stroke-miterlimit="10"/>
<path d="M23.3964 41.7773C32.7854 42.1103 42.2174 41.9924 51.5594 41.4244C51.8585 41.4068 52.1535 41.3648 52.4445 41.2968C52.5175 41.2787 52.5895 41.2598 52.6615 41.2388C52.7335 41.2188 52.8035 41.1968 52.8735 41.1728C53.0145 41.1248 53.1525 41.0698 53.2885 41.0078C53.4225 40.9459 53.5545 40.8758 53.6835 40.7988C53.7475 40.7598 53.8115 40.7198 53.8725 40.6778C53.9355 40.6358 53.9965 40.5928 54.0545 40.5478C54.2905 40.3679 54.5055 40.1628 54.6985 39.9328C54.7465 39.8758 54.7925 39.8168 54.8375 39.7558C54.8825 39.6959 54.9255 39.6348 54.9675 39.5728C55.0505 39.4488 55.1255 39.3209 55.1955 39.1888C55.2655 39.0578 55.3285 38.9228 55.3845 38.7838C55.4135 38.7158 55.4405 38.6448 55.4645 38.5738C55.4905 38.5038 55.5135 38.4318 55.5365 38.3608C55.6235 38.0757 55.6855 37.7868 55.7265 37.4938C55.7665 37.2007 55.7865 36.9058 55.7862 36.6069V33.7859V22.499C55.7862 17.494 55.7862 12.489 55.7871 7.48334C55.7871 7.33136 55.7791 7.17938 55.7651 7.02838C55.7571 6.95245 55.7481 6.87738 55.7361 6.80243C55.7251 6.72736 55.7121 6.65241 55.6961 6.57843C55.6361 6.28241 55.5461 5.99738 55.4241 5.72345C55.3921 5.65436 55.3601 5.58734 55.3261 5.51935C55.2921 5.45245 55.2551 5.38641 55.2171 5.32135C55.1411 5.19135 55.0581 5.06744 54.9691 4.94843C54.7901 4.71137 54.5861 4.49542 54.3561 4.29938C54.2991 4.2514 54.2401 4.20343 54.1811 4.15839C54.1211 4.11237 54.0601 4.0694 53.9991 4.02741C53.8751 3.94342 53.7481 3.86542 53.6171 3.79535C53.4861 3.72345 53.3511 3.65936 53.2141 3.6004C53.1441 3.57135 53.0741 3.5434 53.0041 3.5174C52.9331 3.49042 52.8621 3.46637 52.7911 3.44342C52.5061 3.35138 52.2161 3.28534 51.9221 3.24139C51.6271 3.19745 51.3281 3.17438 51.0263 3.17279C39.5333 3.09784 27.9163 3.09784 16.4257 3.17377C16.1227 3.17584 15.8237 3.19977 15.5287 3.24786C15.3807 3.27179 15.2347 3.30182 15.0877 3.33783C15.0157 3.35687 14.9427 3.37579 14.8707 3.39789C14.7987 3.41888 14.7277 3.44183 14.6567 3.46588C14.3737 3.56281 14.1027 3.68488 13.8437 3.83283C13.7787 3.86981 13.7137 3.90888 13.6517 3.94977C13.5877 3.98981 13.5257 4.0318 13.4647 4.07587C13.3437 4.16278 13.2277 4.2558 13.1157 4.35382C13.0057 4.45184 12.8997 4.55682 12.7997 4.66681C12.7487 4.72186 12.6997 4.77887 12.6527 4.83783C12.6057 4.89581 12.5597 4.95477 12.5157 5.01581C12.3397 5.25678 12.1937 5.51483 12.0737 5.78888C12.0437 5.85785 12.0157 5.92682 11.9897 5.99786C11.9637 6.06781 11.9397 6.13983 11.9167 6.21185C11.8717 6.35577 11.8347 6.50079 11.8057 6.64679C11.7467 6.93988 11.7187 7.23785 11.7198 7.54193C11.7407 17.272 11.7597 27.003 11.7773 36.7328C11.7773 37.0219 11.7983 37.3079 11.8423 37.5899C11.8863 37.8729 11.9523 38.1529 12.0433 38.4279C12.0883 38.5659 12.1393 38.702 12.1973 38.8349C12.2263 38.9009 12.2563 38.9669 12.2883 39.0319C12.3203 39.0969 12.3533 39.1619 12.3883 39.2259C12.5283 39.4799 12.6903 39.7169 12.8763 39.937C12.9683 40.046 13.0673 40.1519 13.1723 40.2529C13.2243 40.3029 13.2783 40.3519 13.3323 40.3989C13.3863 40.4459 13.4423 40.4919 13.4993 40.5359C13.7253 40.7119 13.9673 40.8619 14.2263 40.9879C14.2923 41.0189 14.3573 41.0489 14.4233 41.077C14.4913 41.1049 14.5573 41.1309 14.6263 41.1559C14.7603 41.2049 14.8973 41.2469 15.0363 41.2819C15.3123 41.3519 15.5943 41.3959 15.8828 41.413C20.4278 41.6921 24.9958 41.8651 29.5738 41.9321L23.3964 41.7773Z" stroke="#FF00FF" stroke-width="0.283465" stroke-miterlimit="10" stroke-linecap="round" stroke-linejoin="round"/>
<path d="M16.6177 19.9878C15.8706 19.9878 15.4399 19.5132 15.4399 18.7046V9.63428C15.4399 8.38623 15.9146 7.90283 17.1538 7.90283H20.186C22.6821 7.90283 24.2905 9.46729 24.2905 11.8403C24.2905 14.3188 22.6646 15.7866 20.0894 15.7866H17.953C17.8757 15.7866 17.813 15.8493 17.813 15.9266V18.7046C17.813 19.5132 17.3735 19.9878 16.6177 19.9878ZM17.813 13.8009C17.813 13.8782 17.8757 13.9409 17.953 13.9409H19.3335C21.1792 13.9409 21.9263 13.4048 21.9263 11.8755C21.9263 10.5571 21.188 9.80127 19.8872 9.80127H17.953C17.8757 9.80127 17.813 9.86395 17.813 9.94127V13.8009Z" fill="black"/>
</svg>
