<svg width="55" height="54" viewBox="0 0 55 54" fill="none" xmlns="http://www.w3.org/2000/svg">
<path d="M44.6505 7.31647L44.6325 37.3803C44.6265 37.5443 44.6124 37.7072 44.5923 37.8691C44.5723 38.0311 44.5463 38.1932 44.516 38.3547C44.485 38.5156 44.448 38.6746 44.4036 38.8338C44.3605 38.9919 44.3115 39.1489 44.257 39.3043C44.1389 39.6282 43.9949 39.9433 43.8242 40.2436C43.6512 40.5485 43.4513 40.8376 43.2263 41.1068C42.9993 41.3768 42.7483 41.6258 42.4753 41.8478C42.2013 42.0698 41.9074 42.2658 41.5972 42.43C41.3722 42.5469 41.1371 42.65 40.8978 42.7353C40.7788 42.7773 40.6578 42.8143 40.5356 42.8481C40.4137 42.8821 40.2907 42.9122 40.1676 42.9368C40.0027 42.9717 39.8367 42.9977 39.6687 43.0147L39.6675 43.0143C31.5554 43.5814 23.4135 43.5803 15.3014 43.0129C14.6355 42.9389 13.9805 42.7249 13.3855 42.4037C12.7805 42.0787 12.2395 41.6418 11.7981 41.1209C11.3541 40.596 11.0121 39.9839 10.773 39.3397C10.653 39.0187 10.558 38.6877 10.49 38.352C10.421 38.018 10.3771 37.6771 10.3615 37.3371L10.3447 7.31696C10.3578 6.77496 10.4537 6.23102 10.6215 5.71307C10.7054 5.45416 10.8075 5.20209 10.9258 4.95844C11.0437 4.71552 11.1798 4.48053 11.3307 4.25616C11.4817 4.03412 11.6487 3.82208 11.8317 3.62469C12.0137 3.42877 12.2096 3.24677 12.4188 3.07953C12.6268 2.91449 12.8479 2.76349 13.0767 2.63031C13.3066 2.49738 13.5457 2.38129 13.7915 2.28302C14.1035 2.16107 14.4285 2.06805 14.7576 2.0036C15.0875 1.93866 15.4225 1.90265 15.7578 1.89581C19.6708 1.86481 23.5837 1.84869 27.4971 1.84857C31.41 1.84857 35.323 1.86469 39.2362 1.89606C39.9142 1.90497 40.5952 2.04205 41.2292 2.29669C41.8783 2.55878 42.4763 2.94574 42.9753 3.43292C43.4893 3.93182 43.8983 4.5379 44.1821 5.19806C44.4701 5.86615 44.6301 6.59113 44.6502 7.31305" stroke="#16215B" stroke-width="0.283" stroke-miterlimit="10"/>
<rect x="13.1792" y="5.50507" width="28.63" height="34.3" rx="1.42" stroke="#00FFFF" stroke-width="0.28"/>
<path d="M43.4527 7.68655C43.4477 12.5515 43.4427 17.4165 43.4386 22.2815L43.4237 36.8775C43.4237 37.1668 43.4027 37.4547 43.3617 37.7408C43.3518 37.8118 43.3397 37.8828 43.3268 37.9538C43.3147 38.0248 43.2998 38.0959 43.2838 38.1668C43.2517 38.3078 43.2147 38.4478 43.1728 38.5847C43.0878 38.8588 42.9818 39.1258 42.8507 39.3838C42.8168 39.4478 42.7827 39.5117 42.7467 39.5749C42.7118 39.6367 42.6748 39.6988 42.6367 39.7598C42.5598 39.8817 42.4778 39.9988 42.3908 40.1118C42.3028 40.2248 42.2097 40.3328 42.1098 40.4378C42.0618 40.4898 42.0098 40.5408 41.9578 40.5909C41.9048 40.6398 41.8518 40.6878 41.7968 40.7348C41.5788 40.9198 41.3448 41.0808 41.0938 41.2148C41.0308 41.2488 40.9668 41.2808 40.9018 41.3108C40.8368 41.3418 40.7708 41.3698 40.7038 41.3968C40.5708 41.4499 40.4368 41.4958 40.2998 41.5338C40.0268 41.6107 39.7467 41.6588 39.4608 41.6787C31.5301 42.2228 23.463 42.2228 15.5331 41.6787C15.2461 41.6585 14.9662 41.6105 14.6931 41.5335C14.5562 41.4955 14.4221 41.4495 14.2892 41.3965C14.2222 41.3695 14.1562 41.3405 14.0912 41.3106C14.0261 41.2805 13.9632 41.2486 13.9002 41.2145C13.6481 41.0805 13.4142 40.9196 13.1962 40.7336C13.1421 40.6875 13.0891 40.6396 13.0362 40.5895C12.9842 40.5406 12.9322 40.4886 12.8832 40.4375C12.7842 40.3326 12.6912 40.2245 12.6042 40.1105C12.5161 39.9986 12.4341 39.8805 12.3572 39.7596C12.3191 39.6985 12.2821 39.6365 12.2471 39.5735C12.2112 39.5115 12.1762 39.4475 12.1442 39.3825C12.0132 39.1255 11.9062 38.8586 11.8222 38.5845C11.7792 38.4466 11.7422 38.3075 11.7112 38.1665C11.6952 38.0955 11.6802 38.0246 11.6671 37.9535C11.6542 37.8825 11.6421 37.8116 11.6321 37.7395C11.5912 37.4545 11.5702 37.1675 11.5698 36.8771C11.5618 27.1471 11.5518 17.4162 11.542 7.68619C11.541 7.38919 11.568 7.0972 11.6231 6.80923C11.65 6.66617 11.6841 6.52322 11.7251 6.38223C11.7461 6.31119 11.7681 6.24124 11.7931 6.17117C11.817 6.10123 11.843 6.03323 11.87 5.96524C11.9801 5.69315 12.1151 5.43619 12.276 5.19315C12.3161 5.13223 12.3581 5.07315 12.401 5.01419C12.4451 4.95523 12.4901 4.89713 12.5371 4.84024C12.63 4.7272 12.7271 4.62015 12.8311 4.51724C13.0371 4.31424 13.2621 4.13223 13.5081 3.97318C13.5691 3.93314 13.6321 3.8942 13.6941 3.85818C13.7581 3.8212 13.8211 3.78714 13.8861 3.7532C14.0141 3.68716 14.146 3.62723 14.2801 3.57413C14.4151 3.52017 14.5531 3.47415 14.692 3.43314C14.7621 3.41324 14.833 3.3942 14.9041 3.37723C14.9751 3.36014 15.047 3.34525 15.119 3.33121C15.4051 3.27713 15.6961 3.2482 15.9896 3.24612C23.6208 3.18521 31.3747 3.18521 39.006 3.24612C39.3 3.24918 39.589 3.27713 39.872 3.33109C40.1549 3.38419 40.433 3.46317 40.705 3.57108C40.773 3.59708 40.841 3.62613 40.907 3.65616C40.974 3.68607 41.039 3.71817 41.1039 3.75113C41.2329 3.81717 41.3579 3.88907 41.4789 3.96817C41.7219 4.12418 41.9469 4.30508 42.157 4.51114C42.209 4.56216 42.2599 4.61514 42.309 4.6691C42.3579 4.72318 42.4059 4.77811 42.453 4.83414C42.5449 4.94608 42.632 5.06314 42.7119 5.18411C42.793 5.30508 42.867 5.43008 42.935 5.56009C42.97 5.62418 43.003 5.69009 43.034 5.75711C43.065 5.82413 43.095 5.89212 43.122 5.96011C43.232 6.23209 43.314 6.51309 43.37 6.80215C43.3839 6.87418 43.3949 6.94717 43.4059 7.02017C43.417 7.09317 43.4259 7.16714 43.4319 7.24112C43.4459 7.38907 43.453 7.53714 43.4527 7.68655Z" stroke="#FF00FF" stroke-width="0.283465" stroke-miterlimit="10" stroke-linecap="round" stroke-linejoin="round"/>
<path d="M18.3471 18.7041H16.2378C15.8472 18.7041 15.6079 18.9482 15.6079 19.3584V25.1786C15.6079 25.5936 15.8472 25.8329 16.2378 25.8329C16.6284 25.8329 16.8677 25.5936 16.8677 25.1786V23.5626C16.8677 23.4843 16.9312 23.4209 17.0094 23.4209H18.2934C19.7192 23.4209 20.7201 22.4688 20.7201 21.0625C20.7201 19.6562 19.7484 18.7041 18.3471 18.7041ZM18.0102 22.4052H17.0094C16.9311 22.4052 16.8677 22.3417 16.8677 22.2635V19.8761C16.8677 19.7978 16.9312 19.7344 17.0094 19.7344H18.0151C18.9184 19.7344 19.4409 20.2178 19.4409 21.0625C19.4409 21.9072 18.9136 22.4052 18.0103 22.4052H18.0102Z" fill="black"/>
<path d="M30.5146 25.8673C28.7324 25.8673 27.6191 24.8028 27.6191 23.2647V19.2754C27.6191 18.8604 27.8584 18.6211 28.249 18.6211C28.6396 18.6211 28.8789 18.8604 28.8789 19.2754V23.1524C28.8789 24.1143 29.4697 24.7686 30.5147 24.7686C31.5597 24.7686 32.1553 24.1143 32.1553 23.1524V19.2754C32.1553 18.8604 32.3897 18.6211 32.7852 18.6211C33.1807 18.6211 33.4102 18.8604 33.4102 19.2754V23.2647C33.4102 24.8028 32.3018 25.8673 30.5147 25.8673H30.5146Z" fill="black"/>
<path d="M25.7007 20.4718C25.354 20.4718 25.2237 20.6769 25.2237 20.6769L25.0744 20.8518C25.0281 20.9061 24.9487 20.9173 24.8889 20.8783C24.6882 20.7478 24.195 20.4864 23.4643 20.4864C22.1313 20.4864 21.311 21.4776 21.311 23.0987C21.311 24.7198 22.1411 25.6964 23.4399 25.6964C24.1165 25.6964 24.6102 25.4737 24.8719 25.3186C24.9662 25.2627 25.0854 25.3312 25.0854 25.4408V25.5889C25.0854 26.2774 24.5923 26.7315 23.767 26.7315C23.4337 26.7315 22.8489 26.4798 22.7221 26.4225C22.5301 26.3359 22.0796 26.216 21.9007 26.5189C21.7647 26.7493 21.8577 27.0806 22.1359 27.2466C22.4705 27.4461 23.1996 27.6955 23.7572 27.6983C25.3539 27.7081 26.3061 26.8877 26.3061 25.584V21.0918C26.3061 20.6914 26.0522 20.4717 25.7006 20.4717L25.7007 20.4718ZM23.811 24.7492C23.0444 24.7492 22.5561 24.134 22.5561 23.1086C22.5561 22.0832 23.0444 21.4484 23.811 21.4484C24.5776 21.4484 25.0952 22.1027 25.0952 23.1086C25.0952 24.1145 24.5874 24.7492 23.811 24.7492Z" fill="black"/>
<path d="M37.5801 20.4863C36.9657 20.4863 36.3907 20.7845 36.1079 20.9582C36.0277 21.0074 35.9236 20.9666 35.8971 20.8763C35.8796 20.8164 35.8512 20.7508 35.8054 20.6904C35.6883 20.5358 35.5183 20.4717 35.3291 20.4717C34.9824 20.4717 34.7383 20.6963 34.7383 21.0967V26.9513C34.7383 27.3615 34.9873 27.591 35.3438 27.591C35.7003 27.591 35.9542 27.3615 35.9542 26.9513V25.5395C35.9542 25.4316 36.0699 25.3632 36.1644 25.4154C36.4556 25.5762 37.0125 25.8331 37.5997 25.8331C38.8985 25.8331 39.7286 24.8126 39.7286 23.1622C39.7286 21.5118 38.8936 20.4864 37.5801 20.4864V20.4863ZM37.209 24.8369C36.4522 24.8369 35.9492 24.1777 35.9443 23.1621C35.9492 22.1562 36.4521 21.4873 37.209 21.4873C37.9659 21.4873 38.4834 22.1416 38.4834 23.1621C38.4834 24.1826 37.9951 24.8369 37.209 24.8369Z" fill="black"/>
</svg>
