<svg width="55" height="54" viewBox="0 0 55 54" fill="none" xmlns="http://www.w3.org/2000/svg">
<path d="M44.6505 7.31647L44.6325 37.3803C44.6265 37.5443 44.6124 37.7072 44.5923 37.8691C44.5723 38.0311 44.5463 38.1932 44.516 38.3547C44.485 38.5156 44.448 38.6746 44.4036 38.8338C44.3605 38.9919 44.3115 39.1489 44.257 39.3043C44.1389 39.6282 43.9949 39.9433 43.8242 40.2436C43.6512 40.5485 43.4513 40.8376 43.2263 41.1068C42.9993 41.3768 42.7483 41.6258 42.4753 41.8478C42.2013 42.0698 41.9074 42.2658 41.5972 42.43C41.3722 42.5469 41.1371 42.65 40.8978 42.7353C40.7788 42.7773 40.6578 42.8143 40.5356 42.8481C40.4137 42.8821 40.2907 42.9122 40.1676 42.9368C40.0027 42.9717 39.8367 42.9977 39.6687 43.0147L39.6675 43.0143C31.5554 43.5814 23.4135 43.5803 15.3014 43.0129C14.6355 42.9389 13.9805 42.7249 13.3855 42.4037C12.7805 42.0787 12.2395 41.6418 11.7981 41.1209C11.3541 40.596 11.0121 39.9839 10.773 39.3397C10.653 39.0187 10.558 38.6877 10.49 38.352C10.421 38.018 10.3771 37.6771 10.3615 37.3371L10.3447 7.31696C10.3578 6.77496 10.4537 6.23102 10.6215 5.71307C10.7054 5.45416 10.8075 5.20209 10.9258 4.95844C11.0437 4.71552 11.1798 4.48053 11.3307 4.25616C11.4817 4.03412 11.6487 3.82208 11.8317 3.62469C12.0137 3.42877 12.2096 3.24677 12.4188 3.07953C12.6268 2.91449 12.8479 2.76349 13.0767 2.63031C13.3066 2.49738 13.5457 2.38129 13.7915 2.28302C14.1035 2.16107 14.4285 2.06805 14.7576 2.0036C15.0875 1.93866 15.4225 1.90265 15.7578 1.89581C19.6708 1.86481 23.5837 1.84869 27.4971 1.84857C31.41 1.84857 35.323 1.86469 39.2362 1.89606C39.9142 1.90497 40.5952 2.04205 41.2292 2.29669C41.8783 2.55878 42.4763 2.94574 42.9753 3.43292C43.4893 3.93182 43.8983 4.5379 44.1821 5.19806C44.4701 5.86615 44.6301 6.59113 44.6502 7.31305" stroke="#16215B" stroke-width="0.283" stroke-miterlimit="10"/>
<rect x="13.1792" y="5.50507" width="28.63" height="34.3" rx="1.42" stroke="#00FFFF" stroke-width="0.28"/>
<path d="M43.4527 7.68655C43.4477 12.5515 43.4427 17.4165 43.4386 22.2815L43.4237 36.8775C43.4237 37.1668 43.4027 37.4547 43.3617 37.7408C43.3518 37.8118 43.3397 37.8828 43.3268 37.9538C43.3147 38.0248 43.2998 38.0959 43.2838 38.1668C43.2517 38.3078 43.2147 38.4478 43.1728 38.5847C43.0878 38.8588 42.9818 39.1258 42.8507 39.3838C42.8168 39.4478 42.7827 39.5117 42.7467 39.5749C42.7118 39.6367 42.6748 39.6988 42.6367 39.7598C42.5598 39.8817 42.4778 39.9988 42.3908 40.1118C42.3028 40.2248 42.2097 40.3328 42.1098 40.4378C42.0618 40.4898 42.0098 40.5408 41.9578 40.5909C41.9048 40.6398 41.8518 40.6878 41.7968 40.7348C41.5788 40.9198 41.3448 41.0808 41.0938 41.2148C41.0308 41.2488 40.9668 41.2808 40.9018 41.3108C40.8368 41.3418 40.7708 41.3698 40.7038 41.3968C40.5708 41.4499 40.4368 41.4958 40.2998 41.5338C40.0268 41.6107 39.7467 41.6588 39.4608 41.6787C31.5301 42.2228 23.463 42.2228 15.5331 41.6787C15.2461 41.6585 14.9662 41.6105 14.6931 41.5335C14.5562 41.4955 14.4221 41.4495 14.2892 41.3965C14.2222 41.3695 14.1562 41.3405 14.0912 41.3106C14.0261 41.2805 13.9632 41.2486 13.9002 41.2145C13.6481 41.0805 13.4142 40.9196 13.1962 40.7336C13.1421 40.6875 13.0891 40.6396 13.0362 40.5895C12.9842 40.5406 12.9322 40.4886 12.8832 40.4375C12.7842 40.3326 12.6912 40.2245 12.6042 40.1105C12.5161 39.9986 12.4341 39.8805 12.3572 39.7596C12.3191 39.6985 12.2821 39.6365 12.2471 39.5735C12.2112 39.5115 12.1762 39.4475 12.1442 39.3825C12.0132 39.1255 11.9062 38.8586 11.8222 38.5845C11.7792 38.4466 11.7422 38.3075 11.7112 38.1665C11.6952 38.0955 11.6802 38.0246 11.6671 37.9535C11.6542 37.8825 11.6421 37.8116 11.6321 37.7395C11.5912 37.4545 11.5702 37.1675 11.5698 36.8771C11.5618 27.1471 11.5518 17.4162 11.542 7.68619C11.541 7.38919 11.568 7.0972 11.6231 6.80923C11.65 6.66617 11.6841 6.52322 11.7251 6.38223C11.7461 6.31119 11.7681 6.24124 11.7931 6.17117C11.817 6.10123 11.843 6.03323 11.87 5.96524C11.9801 5.69315 12.1151 5.43619 12.276 5.19315C12.3161 5.13223 12.3581 5.07315 12.401 5.01419C12.4451 4.95523 12.4901 4.89713 12.5371 4.84024C12.63 4.7272 12.7271 4.62015 12.8311 4.51724C13.0371 4.31424 13.2621 4.13223 13.5081 3.97318C13.5691 3.93314 13.6321 3.8942 13.6941 3.85818C13.7581 3.8212 13.8211 3.78714 13.8861 3.7532C14.0141 3.68716 14.146 3.62723 14.2801 3.57413C14.4151 3.52017 14.5531 3.47415 14.692 3.43314C14.7621 3.41324 14.833 3.3942 14.9041 3.37723C14.9751 3.36014 15.047 3.34525 15.119 3.33121C15.4051 3.27713 15.6961 3.2482 15.9896 3.24612C23.6208 3.18521 31.3747 3.18521 39.006 3.24612C39.3 3.24918 39.589 3.27713 39.872 3.33109C40.1549 3.38419 40.433 3.46317 40.705 3.57108C40.773 3.59708 40.841 3.62613 40.907 3.65616C40.974 3.68607 41.039 3.71817 41.1039 3.75113C41.2329 3.81717 41.3579 3.88907 41.4789 3.96817C41.7219 4.12418 41.9469 4.30508 42.157 4.51114C42.209 4.56216 42.2599 4.61514 42.309 4.6691C42.3579 4.72318 42.4059 4.77811 42.453 4.83414C42.5449 4.94608 42.632 5.06314 42.7119 5.18411C42.793 5.30508 42.867 5.43008 42.935 5.56009C42.97 5.62418 43.003 5.69009 43.034 5.75711C43.065 5.82413 43.095 5.89212 43.122 5.96011C43.232 6.23209 43.314 6.51309 43.37 6.80215C43.3839 6.87418 43.3949 6.94717 43.4059 7.02017C43.417 7.09317 43.4259 7.16714 43.4319 7.24112C43.4459 7.38907 43.453 7.53714 43.4527 7.68655Z" stroke="#FF00FF" stroke-width="0.283465" stroke-miterlimit="10" stroke-linecap="round" stroke-linejoin="round"/>
<path d="M30.3438 18.7041H28.4004C28.0098 18.7041 27.7705 18.9482 27.7705 19.3584V25.0958C27.7705 25.506 28.0098 25.7501 28.4004 25.7501H30.3438C32.4532 25.7501 33.6934 24.4415 33.6934 22.21C33.6934 19.9785 32.4484 18.7041 30.3438 18.7041ZM30.212 24.6856H29.1721C29.0938 24.6856 29.0304 24.6221 29.0304 24.5439V19.9103C29.0304 19.832 29.0939 19.7686 29.1721 19.7686H30.212C31.6183 19.7686 32.4093 20.6378 32.4093 22.2149C32.4093 23.792 31.628 24.6856 30.212 24.6856Z" fill="black"/>
<path d="M35.378 25.8477C35.0216 25.8477 34.7725 25.6182 34.7725 25.208V21.0869C34.7725 20.7109 34.9922 20.4717 35.3536 20.4717C35.5028 20.4717 35.6776 20.5108 35.8128 20.6658C35.8593 20.7191 35.8906 20.7786 35.9118 20.8328C35.9433 20.9137 36.0398 20.9471 36.1148 20.9033C36.378 20.7497 36.9377 20.4766 37.59 20.4766C38.7326 20.4766 39.382 21.209 39.382 22.4053V25.2081C39.382 25.6183 39.133 25.8478 38.7765 25.8478C38.42 25.8478 38.1661 25.6183 38.1661 25.2081V22.6495C38.1661 21.9171 37.8243 21.5069 37.1309 21.5069C36.4375 21.5069 35.9883 22.0098 35.9883 22.752V25.2081C35.9883 25.6183 35.7344 25.8478 35.3779 25.8478L35.378 25.8477Z" fill="black"/>
<path d="M18.4985 18.7041H16.3892C15.9986 18.7041 15.7593 18.9482 15.7593 19.3584V25.1786C15.7593 25.5936 15.9986 25.8329 16.3892 25.8329C16.7798 25.8329 17.0191 25.5936 17.0191 25.1786V23.5626C17.0191 23.4843 17.0826 23.4209 17.1608 23.4209H18.4448C19.8706 23.4209 20.8715 22.4688 20.8715 21.0625C20.8715 19.6562 19.8998 18.7041 18.4985 18.7041ZM18.1616 22.4052H17.1608C17.0825 22.4052 17.0191 22.3417 17.0191 22.2635V19.8761C17.0191 19.7978 17.0826 19.7344 17.1608 19.7344H18.1665C19.0698 19.7344 19.5923 20.2178 19.5923 21.0625C19.5923 21.9072 19.065 22.4052 18.1617 22.4052H18.1616Z" fill="black"/>
<path d="M25.8521 20.4718C25.5054 20.4718 25.3751 20.6769 25.3751 20.6769L25.2258 20.8518C25.1795 20.9061 25.1001 20.9173 25.0403 20.8783C24.8396 20.7478 24.3464 20.4864 23.6157 20.4864C22.2827 20.4864 21.4624 21.4776 21.4624 23.0987C21.4624 24.7198 22.2925 25.6964 23.5913 25.6964C24.2679 25.6964 24.7616 25.4737 25.0233 25.3186C25.1176 25.2627 25.2368 25.3312 25.2368 25.4408V25.5889C25.2368 26.2774 24.7437 26.7315 23.9184 26.7315C23.5851 26.7315 23.0003 26.4798 22.8735 26.4225C22.6815 26.3359 22.231 26.216 22.0521 26.5189C21.9161 26.7493 22.0091 27.0806 22.2873 27.2466C22.6219 27.4461 23.351 27.6955 23.9086 27.6983C25.5053 27.7081 26.4575 26.8877 26.4575 25.584V21.0918C26.4575 20.6914 26.2036 20.4717 25.852 20.4717L25.8521 20.4718ZM23.9624 24.7492C23.1958 24.7492 22.7075 24.134 22.7075 23.1086C22.7075 22.0832 23.1958 21.4484 23.9624 21.4484C24.729 21.4484 25.2466 22.1027 25.2466 23.1086C25.2466 24.1145 24.7388 24.7492 23.9624 24.7492Z" fill="black"/>
</svg>
