<svg width="54" height="54" viewBox="0 0 54 54" fill="none" xmlns="http://www.w3.org/2000/svg">
<rect x="1.8501" y="1.85001" width="50.3" height="50.3" rx="3" stroke="#16215B" stroke-width="0.28"/>
<path d="M44.1505 7.31647L44.1325 37.3803C44.1265 37.5443 44.1124 37.7072 44.0923 37.8691C44.0723 38.0311 44.0463 38.1932 44.016 38.3547C43.985 38.5156 43.948 38.6746 43.9036 38.8338C43.8605 38.9919 43.8115 39.1489 43.757 39.3043C43.6389 39.6282 43.4949 39.9433 43.3242 40.2436C43.1512 40.5485 42.9513 40.8376 42.7263 41.1068C42.4993 41.3768 42.2483 41.6258 41.9753 41.8478C41.7013 42.0698 41.4074 42.2658 41.0972 42.43C40.8722 42.5469 40.6371 42.65 40.3978 42.7353C40.2788 42.7773 40.1578 42.8143 40.0356 42.8481C39.9137 42.8821 39.7907 42.9122 39.6676 42.9368C39.5027 42.9717 39.3367 42.9977 39.1687 43.0147L39.1675 43.0143C31.0554 43.5814 22.9135 43.5803 14.8014 43.0129C14.1355 42.9389 13.4805 42.7249 12.8855 42.4037C12.2805 42.0787 11.7395 41.6418 11.2981 41.1209C10.8541 40.596 10.5121 39.9839 10.273 39.3397C10.153 39.0187 10.058 38.6877 9.98999 38.352C9.92102 38.018 9.87708 37.6771 9.86145 37.3371L9.84473 7.31696C9.85779 6.77496 9.95374 6.23102 10.1215 5.71307C10.2054 5.45416 10.3075 5.20209 10.4258 4.95844C10.5437 4.71552 10.6798 4.48053 10.8307 4.25616C10.9817 4.03412 11.1487 3.82208 11.3317 3.62469C11.5137 3.42877 11.7096 3.24677 11.9188 3.07953C12.1268 2.91449 12.3479 2.76349 12.5767 2.63031C12.8066 2.49738 13.0457 2.38129 13.2915 2.28302C13.6035 2.16107 13.9285 2.06805 14.2576 2.0036C14.5875 1.93866 14.9225 1.90265 15.2578 1.89581C19.1708 1.86481 23.0837 1.84869 26.9971 1.84857C30.91 1.84857 34.823 1.86469 38.7362 1.89606C39.4142 1.90497 40.0952 2.04205 40.7292 2.29669C41.3783 2.55878 41.9763 2.94574 42.4753 3.43292C42.9893 3.93182 43.3983 4.5379 43.6821 5.19806C43.9701 5.86615 44.1301 6.59113 44.1502 7.31305" stroke="#16215B" stroke-width="0.283" stroke-miterlimit="10"/>
<rect x="12.6792" y="5.50507" width="28.63" height="34.3" rx="1.42" stroke="#00FFFF" stroke-width="0.28"/>
<path d="M42.9527 7.68658C42.9477 12.5516 42.9427 17.4166 42.9386 22.2816L42.9237 36.8775C42.9237 37.1668 42.9027 37.4548 42.8617 37.7408C42.8518 37.8118 42.8397 37.8829 42.8268 37.9538C42.8147 38.0248 42.7998 38.0959 42.7838 38.1668C42.7517 38.3078 42.7147 38.4478 42.6728 38.5848C42.5878 38.8588 42.4818 39.1258 42.3507 39.3839C42.3168 39.4478 42.2827 39.5118 42.2467 39.5749C42.2118 39.6368 42.1748 39.6988 42.1367 39.7598C42.0598 39.8818 41.9778 39.9988 41.8908 40.1119C41.8028 40.2248 41.7097 40.3328 41.6098 40.4378C41.5618 40.4898 41.5098 40.5408 41.4578 40.5909C41.4048 40.6398 41.3518 40.6878 41.2968 40.7348C41.0788 40.9199 40.8448 41.0809 40.5938 41.2148C40.5308 41.2488 40.4668 41.2808 40.4018 41.3109C40.3368 41.3419 40.2708 41.3698 40.2038 41.3968C40.0708 41.4499 39.9368 41.4958 39.7998 41.5339C39.5268 41.6108 39.2467 41.6589 38.9608 41.6788C31.0301 42.2228 22.963 42.2228 15.0331 41.6788C14.7461 41.6585 14.4662 41.6105 14.1931 41.5335C14.0562 41.4955 13.9221 41.4495 13.7892 41.3965C13.7222 41.3696 13.6562 41.3405 13.5912 41.3106C13.5261 41.2806 13.4632 41.2486 13.4002 41.2145C13.1481 41.0805 12.9142 40.9196 12.6962 40.7336C12.6421 40.6876 12.5891 40.6396 12.5362 40.5895C12.4842 40.5406 12.4322 40.4886 12.3832 40.4376C12.2842 40.3326 12.1912 40.2245 12.1042 40.1105C12.0161 39.9986 11.9341 39.8806 11.8572 39.7596C11.8191 39.6985 11.7821 39.6365 11.7471 39.5735C11.7112 39.5115 11.6762 39.4476 11.6442 39.3825C11.5132 39.1255 11.4062 38.8586 11.3222 38.5845C11.2792 38.4466 11.2422 38.3076 11.2112 38.1666C11.1952 38.0955 11.1802 38.0246 11.1671 37.9536C11.1542 37.8825 11.1421 37.8116 11.1321 37.7396C11.0912 37.4545 11.0702 37.1675 11.0698 36.8771C11.0618 27.1472 11.0518 17.4162 11.042 7.68622C11.041 7.38922 11.068 7.09723 11.1231 6.80927C11.15 6.6662 11.1841 6.52325 11.2251 6.38226C11.2461 6.31122 11.2681 6.24127 11.2931 6.1712C11.317 6.10126 11.343 6.03326 11.37 5.96527C11.4801 5.69318 11.6151 5.43622 11.776 5.19318C11.8161 5.13226 11.8581 5.07318 11.901 5.01422C11.9451 4.95526 11.9901 4.89716 12.0371 4.84027C12.13 4.72723 12.2271 4.62018 12.3311 4.51727C12.5371 4.31427 12.7621 4.13226 13.0081 3.97321C13.0691 3.93317 13.1321 3.89423 13.1941 3.85822C13.2581 3.82123 13.3211 3.78717 13.3861 3.75323C13.5141 3.68719 13.646 3.62726 13.7801 3.57416C13.9151 3.5202 14.0531 3.47418 14.192 3.43317C14.2621 3.41327 14.333 3.39423 14.4041 3.37726C14.4751 3.36017 14.547 3.34528 14.619 3.33124C14.9051 3.27716 15.1961 3.24823 15.4896 3.24615C23.1208 3.18524 30.8747 3.18524 38.506 3.24615C38.8 3.24921 39.089 3.27716 39.372 3.33112C39.6549 3.38422 39.933 3.4632 40.205 3.57111C40.273 3.59711 40.341 3.62616 40.407 3.65619C40.474 3.6861 40.539 3.7182 40.6039 3.75116C40.7329 3.8172 40.8579 3.8891 40.9789 3.9682C41.2219 4.12421 41.4469 4.30511 41.657 4.51117C41.709 4.56219 41.7599 4.61517 41.809 4.66913C41.8579 4.72321 41.9059 4.77814 41.953 4.83417C42.0449 4.94611 42.132 5.06317 42.2119 5.18414C42.293 5.30511 42.367 5.43011 42.435 5.56012C42.47 5.62421 42.503 5.69012 42.534 5.75714C42.565 5.82416 42.595 5.89215 42.622 5.96014C42.732 6.23212 42.814 6.51312 42.87 6.80219C42.8839 6.87421 42.8949 6.9472 42.9059 7.0202C42.917 7.0932 42.9259 7.16718 42.9319 7.24115C42.9459 7.3891 42.953 7.53717 42.9527 7.68658Z" stroke="#FF00FF" stroke-width="0.283465" stroke-miterlimit="10" stroke-linecap="round" stroke-linejoin="round"/>
<path d="M38.8882 28.9351C38.8882 29.8351 38.0632 30.9151 36.6832 30.9151C35.4982 30.9151 34.1932 29.8951 33.4282 29.8951C32.6032 29.8951 32.3932 30.7951 31.7632 30.7951C31.2832 30.7951 31.1182 30.4201 31.1182 30.0751C31.1182 29.1751 31.9432 28.0951 33.2332 28.0951C34.5082 28.0951 35.8132 29.1151 36.5782 29.1151C37.4032 29.1151 37.6132 28.2151 38.2432 28.2151C38.7232 28.2151 38.8882 28.5901 38.8882 28.9351Z" fill="black"/>
<path d="M18.9983 15.1261C18.6023 15.1261 18.2963 14.8201 18.3143 14.3701L18.3275 13.6689C18.3296 13.5589 18.2099 13.4896 18.1155 13.5462L17.5223 13.9021C17.3783 13.9921 17.2163 14.0281 17.0723 14.0281C16.7123 14.0281 16.4243 13.7401 16.4243 13.3621C16.4243 13.0741 16.5683 12.8581 16.8383 12.7141L17.44 12.3871C17.5375 12.3341 17.5375 12.1941 17.44 12.1411L16.8383 11.8141C16.5683 11.6701 16.4243 11.4541 16.4243 11.1661C16.4243 10.7881 16.7123 10.5001 17.0723 10.5001C17.2163 10.5001 17.3783 10.5361 17.5223 10.6261L18.1136 10.994C18.2079 11.0527 18.3296 10.9836 18.3275 10.8726L18.3143 10.1581C18.2963 9.70813 18.6023 9.40213 18.9983 9.40213C19.3943 9.40213 19.7003 9.70813 19.6823 10.1581L19.6559 10.87C19.6518 10.9815 19.7734 11.0528 19.8686 10.9948L20.4743 10.6261C20.6183 10.5361 20.7803 10.5001 20.9243 10.5001C21.2843 10.5001 21.5723 10.7881 21.5723 11.1661C21.5723 11.4541 21.4283 11.6701 21.1583 11.8141L20.5447 12.1405C20.4457 12.1932 20.4457 12.3351 20.5447 12.3877L21.1583 12.7141C21.4283 12.8581 21.5723 13.0741 21.5723 13.3621C21.5723 13.7401 21.2843 14.0281 20.9243 14.0281C20.7803 14.0281 20.6183 13.9921 20.4743 13.9021L19.8667 13.5455C19.7714 13.4895 19.6518 13.561 19.656 13.6715L19.6823 14.3701C19.7003 14.8201 19.3943 15.1261 18.9983 15.1261Z" fill="black"/>
<path d="M19.6821 35.0618C19.6821 35.5083 19.3969 35.7935 18.9814 35.7935C18.5659 35.7935 18.2807 35.5083 18.2807 35.0618V33.1368C18.2807 33.0595 18.218 32.9968 18.1407 32.9968H16.3831C15.9366 32.9968 15.6514 32.7239 15.6514 32.3085C15.6514 31.8992 15.9366 31.6201 16.3831 31.6201H18.1407C18.218 31.6201 18.2807 31.5574 18.2807 31.4801V29.642C18.2807 29.2017 18.5597 28.9102 18.9814 28.9102C19.3969 28.9102 19.6821 29.2017 19.6821 29.642V31.4801C19.6821 31.5574 19.7448 31.6201 19.8221 31.6201H21.6045C22.0572 31.6201 22.3424 31.893 22.3424 32.3085C22.3424 32.7239 22.0572 32.9968 21.6045 32.9968H19.8221C19.7448 32.9968 19.6821 33.0595 19.6821 33.1368V35.0618Z" fill="black"/>
</svg>
