<svg width="54" height="54" viewBox="0 0 54 54" fill="none" xmlns="http://www.w3.org/2000/svg">
<path d="M44.1508 7.31647L44.1327 37.3803C44.1267 37.5443 44.1127 37.7072 44.0925 37.8691C44.0725 38.0311 44.0465 38.1932 44.0162 38.3547C43.9852 38.5156 43.9482 38.6746 43.9038 38.8338C43.8607 38.9919 43.8118 39.1489 43.7572 39.3043C43.6392 39.6282 43.4951 39.9433 43.3245 40.2436C43.1515 40.5485 42.9515 40.8376 42.7266 41.1068C42.4995 41.3768 42.2485 41.6258 41.9756 41.8478C41.7015 42.0698 41.4076 42.2658 41.0974 42.43C40.8724 42.5469 40.6373 42.65 40.3981 42.7353C40.2791 42.7773 40.1581 42.8143 40.0359 42.8481C39.9139 42.8821 39.7909 42.9122 39.6678 42.9368C39.5029 42.9717 39.3369 42.9977 39.1689 43.0147L39.1677 43.0143C31.0557 43.5814 22.9137 43.5803 14.8016 43.0129C14.1357 42.9389 13.4807 42.7249 12.8857 42.4037C12.2808 42.0787 11.7397 41.6418 11.2983 41.1209C10.8544 40.596 10.5123 39.9839 10.2732 39.3397C10.1532 39.0187 10.0582 38.6877 9.99024 38.352C9.92127 38.018 9.87732 37.6771 9.8617 37.3371L9.84497 7.31696C9.85803 6.77496 9.95398 6.23102 10.1217 5.71307C10.2057 5.45416 10.3077 5.20209 10.426 4.95844C10.5439 4.71552 10.6801 4.48053 10.8309 4.25616C10.9819 4.03412 11.1489 3.82208 11.3319 3.62469C11.5139 3.42877 11.7098 3.24677 11.9191 3.07953C12.1271 2.91449 12.3481 2.76349 12.5769 2.63031C12.8069 2.49738 13.0459 2.38129 13.2918 2.28302C13.6038 2.16107 13.9287 2.06805 14.2578 2.0036C14.5878 1.93866 14.9227 1.90265 15.2581 1.89581C19.171 1.86481 23.084 1.84869 26.9973 1.84857C30.9103 1.84857 34.8232 1.86469 38.7365 1.89606C39.4144 1.90497 40.0955 2.04205 40.7295 2.29669C41.3785 2.55878 41.9766 2.94574 42.4756 3.43292C42.9895 3.93182 43.3986 4.5379 43.6824 5.19806C43.9703 5.86615 44.1304 6.59113 44.1504 7.31305" stroke="#16215B" stroke-width="0.283" stroke-miterlimit="10"/>
<rect x="12.6792" y="5.50507" width="28.63" height="34.3" rx="1.42" stroke="#00FFFF" stroke-width="0.28"/>
<path d="M42.9527 7.68655C42.9477 12.5515 42.9427 17.4165 42.9386 22.2815L42.9237 36.8775C42.9237 37.1668 42.9027 37.4547 42.8617 37.7408C42.8518 37.8118 42.8397 37.8828 42.8268 37.9538C42.8147 38.0248 42.7998 38.0959 42.7838 38.1668C42.7517 38.3078 42.7147 38.4478 42.6728 38.5847C42.5878 38.8588 42.4818 39.1258 42.3507 39.3838C42.3168 39.4478 42.2827 39.5117 42.2467 39.5749C42.2118 39.6367 42.1748 39.6988 42.1367 39.7598C42.0598 39.8817 41.9778 39.9988 41.8908 40.1118C41.8028 40.2248 41.7097 40.3328 41.6098 40.4378C41.5618 40.4898 41.5098 40.5408 41.4578 40.5909C41.4048 40.6398 41.3518 40.6878 41.2968 40.7348C41.0788 40.9198 40.8448 41.0808 40.5938 41.2148C40.5308 41.2488 40.4668 41.2808 40.4018 41.3108C40.3368 41.3418 40.2708 41.3698 40.2038 41.3968C40.0708 41.4499 39.9368 41.4958 39.7998 41.5338C39.5268 41.6107 39.2467 41.6588 38.9608 41.6787C31.0301 42.2228 22.963 42.2228 15.0331 41.6787C14.7461 41.6585 14.4662 41.6105 14.1931 41.5335C14.0562 41.4955 13.9221 41.4495 13.7892 41.3965C13.7222 41.3695 13.6562 41.3405 13.5912 41.3106C13.5261 41.2805 13.4632 41.2486 13.4002 41.2145C13.1481 41.0805 12.9142 40.9196 12.6962 40.7336C12.6421 40.6875 12.5891 40.6396 12.5362 40.5895C12.4842 40.5406 12.4322 40.4886 12.3832 40.4375C12.2842 40.3326 12.1912 40.2245 12.1042 40.1105C12.0161 39.9986 11.9341 39.8805 11.8572 39.7596C11.8191 39.6985 11.7821 39.6365 11.7471 39.5735C11.7112 39.5115 11.6762 39.4475 11.6442 39.3825C11.5132 39.1255 11.4062 38.8586 11.3222 38.5845C11.2792 38.4466 11.2422 38.3075 11.2112 38.1665C11.1952 38.0955 11.1802 38.0246 11.1671 37.9535C11.1542 37.8825 11.1421 37.8116 11.1321 37.7395C11.0912 37.4545 11.0702 37.1675 11.0698 36.8771C11.0618 27.1471 11.0518 17.4162 11.042 7.68619C11.041 7.38919 11.068 7.0972 11.1231 6.80923C11.15 6.66617 11.1841 6.52322 11.2251 6.38223C11.2461 6.31119 11.2681 6.24124 11.2931 6.17117C11.317 6.10123 11.343 6.03323 11.37 5.96524C11.4801 5.69315 11.6151 5.43619 11.776 5.19315C11.8161 5.13223 11.8581 5.07315 11.901 5.01419C11.9451 4.95523 11.9901 4.89713 12.0371 4.84024C12.13 4.7272 12.2271 4.62015 12.3311 4.51724C12.5371 4.31424 12.7621 4.13223 13.0081 3.97318C13.0691 3.93314 13.1321 3.8942 13.1941 3.85818C13.2581 3.8212 13.3211 3.78714 13.3861 3.7532C13.5141 3.68716 13.646 3.62723 13.7801 3.57413C13.9151 3.52017 14.0531 3.47415 14.192 3.43314C14.2621 3.41324 14.333 3.3942 14.4041 3.37723C14.4751 3.36014 14.547 3.34525 14.619 3.33121C14.9051 3.27713 15.1961 3.2482 15.4896 3.24612C23.1208 3.18521 30.8747 3.18521 38.506 3.24612C38.8 3.24918 39.089 3.27713 39.372 3.33109C39.6549 3.38419 39.933 3.46317 40.205 3.57108C40.273 3.59708 40.341 3.62613 40.407 3.65616C40.474 3.68607 40.539 3.71817 40.6039 3.75113C40.7329 3.81717 40.8579 3.88907 40.9789 3.96817C41.2219 4.12418 41.4469 4.30508 41.657 4.51114C41.709 4.56216 41.7599 4.61514 41.809 4.6691C41.8579 4.72318 41.9059 4.77811 41.953 4.83414C42.0449 4.94608 42.132 5.06314 42.2119 5.18411C42.293 5.30508 42.367 5.43008 42.435 5.56009C42.47 5.62418 42.503 5.69009 42.534 5.75711C42.565 5.82413 42.595 5.89212 42.622 5.96011C42.732 6.23209 42.814 6.51309 42.87 6.80215C42.8839 6.87418 42.8949 6.94717 42.9059 7.02017C42.917 7.09317 42.9259 7.16714 42.9319 7.24112C42.9459 7.38907 42.953 7.53714 42.9527 7.68655Z" stroke="#FF00FF" stroke-width="0.283465" stroke-miterlimit="10" stroke-linecap="round" stroke-linejoin="round"/>
<path d="M32.9041 37.0772C32.9041 36.7051 33.1335 36.4633 33.5614 36.4633H34.6182C34.6955 36.4633 34.7582 36.4006 34.7582 36.3233V28.2007C34.7582 28.1234 34.6955 28.0607 34.6182 28.0607H33.5614C33.1335 28.0607 32.9041 27.8188 32.9041 27.453C32.9041 27.0809 33.1335 26.8391 33.5614 26.8391H35.3039C35.9488 26.8391 36.3209 27.1863 36.3209 27.8188V36.7051C36.3209 37.3376 35.9488 37.6849 35.3039 37.6849H33.5614C33.1335 37.6849 32.9041 37.4431 32.9041 37.0772Z" fill="black"/>
<path d="M18.9981 15.1261C18.6021 15.1261 18.2961 14.8201 18.3141 14.3701L18.3273 13.6689C18.3294 13.5589 18.2096 13.4896 18.1153 13.5462L17.5221 13.9021C17.3781 13.9921 17.2161 14.0281 17.0721 14.0281C16.7121 14.0281 16.4241 13.7401 16.4241 13.3621C16.4241 13.0741 16.5681 12.8581 16.8381 12.7141L17.4397 12.3871C17.5373 12.3341 17.5373 12.1941 17.4397 12.1411L16.8381 11.8141C16.5681 11.6701 16.4241 11.4541 16.4241 11.1661C16.4241 10.7881 16.7121 10.5001 17.0721 10.5001C17.2161 10.5001 17.3781 10.5361 17.5221 10.6261L18.1134 10.994C18.2076 11.0527 18.3294 10.9835 18.3273 10.8726L18.3141 10.1581C18.2961 9.7081 18.6021 9.4021 18.9981 9.4021C19.3941 9.4021 19.7001 9.7081 19.6821 10.1581L19.6557 10.87C19.6516 10.9815 19.7731 11.0528 19.8684 10.9948L20.4741 10.6261C20.6181 10.5361 20.7801 10.5001 20.9241 10.5001C21.2841 10.5001 21.5721 10.7881 21.5721 11.1661C21.5721 11.4541 21.4281 11.6701 21.1581 11.8141L20.5444 12.1405C20.4454 12.1932 20.4454 12.335 20.5444 12.3877L21.1581 12.7141C21.4281 12.8581 21.5721 13.0741 21.5721 13.3621C21.5721 13.7401 21.2841 14.0281 20.9241 14.0281C20.7801 14.0281 20.6181 13.9921 20.4741 13.9021L19.8665 13.5455C19.7711 13.4895 19.6515 13.561 19.6557 13.6715L19.6821 14.3701C19.7001 14.8201 19.3941 15.1261 18.9981 15.1261Z" fill="black"/>
<path d="M19.6821 35.0618C19.6821 35.5083 19.3969 35.7935 18.9814 35.7935C18.5659 35.7935 18.2807 35.5083 18.2807 35.0618V33.1368C18.2807 33.0595 18.218 32.9968 18.1407 32.9968H16.3831C15.9366 32.9968 15.6514 32.7239 15.6514 32.3085C15.6514 31.8992 15.9366 31.6201 16.3831 31.6201H18.1407C18.218 31.6201 18.2807 31.5574 18.2807 31.4801V29.642C18.2807 29.2017 18.5597 28.9102 18.9814 28.9102C19.3969 28.9102 19.6821 29.2017 19.6821 29.642V31.4801C19.6821 31.5574 19.7448 31.6201 19.8221 31.6201H21.6045C22.0572 31.6201 22.3424 31.893 22.3424 32.3085C22.3424 32.7239 22.0572 32.9968 21.6045 32.9968H19.8221C19.7448 32.9968 19.6821 33.0595 19.6821 33.1368V35.0618Z" fill="black"/>
</svg>
