<svg width="54" height="54" viewBox="0 0 54 54" fill="none" xmlns="http://www.w3.org/2000/svg">
<path d="M44.1505 7.31653L44.1325 37.3804C44.1265 37.5443 44.1124 37.7073 44.0923 37.8691C44.0723 38.0311 44.0463 38.1932 44.016 38.3547C43.985 38.5156 43.948 38.6747 43.9036 38.8339C43.8605 38.9919 43.8115 39.1489 43.757 39.3043C43.6389 39.6283 43.4949 39.9434 43.3242 40.2437C43.1512 40.5486 42.9513 40.8376 42.7263 41.1068C42.4993 41.3768 42.2483 41.6259 41.9753 41.8479C41.7013 42.0698 41.4074 42.2659 41.0972 42.4301C40.8722 42.547 40.6371 42.65 40.3978 42.7354C40.2788 42.7773 40.1578 42.8143 40.0356 42.8481C39.9137 42.8822 39.7907 42.9122 39.6676 42.9369C39.5027 42.9718 39.3367 42.9978 39.1687 43.0148L39.1675 43.0144C31.0554 43.5814 22.9135 43.5803 14.8014 43.0129C14.1355 42.939 13.4805 42.725 12.8855 42.4038C12.2805 42.0787 11.7395 41.6418 11.2981 41.121C10.8541 40.5961 10.5121 39.984 10.273 39.3397C10.153 39.0188 10.058 38.6877 9.98999 38.3521C9.92102 38.0181 9.87708 37.6771 9.86145 37.3372L9.84473 7.31702C9.85779 6.77502 9.95374 6.23108 10.1215 5.71313C10.2054 5.45422 10.3075 5.20215 10.4258 4.9585C10.5437 4.71558 10.6798 4.48059 10.8307 4.25623C10.9817 4.03418 11.1487 3.82214 11.3317 3.62476C11.5137 3.42883 11.7096 3.24683 11.9188 3.07959C12.1268 2.91455 12.3479 2.76355 12.5767 2.63037C12.8066 2.49744 13.0457 2.38135 13.2915 2.28308C13.6035 2.16113 13.9285 2.06812 14.2576 2.00366C14.5875 1.93872 14.9225 1.90271 15.2578 1.89587C19.1708 1.86487 23.0837 1.84875 26.9971 1.84863C30.91 1.84863 34.823 1.86475 38.7362 1.89612C39.4142 1.90503 40.0952 2.04211 40.7292 2.29675C41.3783 2.55884 41.9763 2.9458 42.4753 3.43298C42.9893 3.93188 43.3983 4.53796 43.6821 5.19812C43.9701 5.86621 44.1301 6.59119 44.1502 7.31311" stroke="#16215B" stroke-width="0.283" stroke-miterlimit="10"/>
<rect x="12.6792" y="5.50513" width="28.63" height="34.3" rx="1.42" stroke="#00FFFF" stroke-width="0.28"/>
<path d="M42.9527 7.68655C42.9477 12.5515 42.9427 17.4165 42.9386 22.2815L42.9237 36.8775C42.9237 37.1668 42.9027 37.4547 42.8617 37.7408C42.8518 37.8118 42.8397 37.8828 42.8268 37.9538C42.8147 38.0248 42.7998 38.0959 42.7838 38.1668C42.7517 38.3078 42.7147 38.4478 42.6728 38.5847C42.5878 38.8588 42.4818 39.1258 42.3507 39.3838C42.3168 39.4478 42.2827 39.5117 42.2467 39.5749C42.2118 39.6367 42.1748 39.6988 42.1367 39.7598C42.0598 39.8817 41.9778 39.9988 41.8908 40.1118C41.8028 40.2248 41.7097 40.3328 41.6098 40.4378C41.5618 40.4898 41.5098 40.5408 41.4578 40.5909C41.4048 40.6398 41.3518 40.6878 41.2968 40.7348C41.0788 40.9198 40.8448 41.0808 40.5938 41.2148C40.5308 41.2488 40.4668 41.2808 40.4018 41.3108C40.3368 41.3418 40.2708 41.3698 40.2038 41.3968C40.0708 41.4499 39.9368 41.4958 39.7998 41.5338C39.5268 41.6107 39.2467 41.6588 38.9608 41.6787C31.0301 42.2228 22.963 42.2228 15.0331 41.6787C14.7461 41.6585 14.4662 41.6105 14.1931 41.5335C14.0562 41.4955 13.9221 41.4495 13.7892 41.3965C13.7222 41.3695 13.6562 41.3405 13.5912 41.3106C13.5261 41.2805 13.4632 41.2486 13.4002 41.2145C13.1481 41.0805 12.9142 40.9196 12.6962 40.7336C12.6421 40.6875 12.5891 40.6396 12.5362 40.5895C12.4842 40.5406 12.4322 40.4886 12.3832 40.4375C12.2842 40.3326 12.1912 40.2245 12.1042 40.1105C12.0161 39.9986 11.9341 39.8805 11.8572 39.7596C11.8191 39.6985 11.7821 39.6365 11.7471 39.5735C11.7112 39.5115 11.6762 39.4475 11.6442 39.3825C11.5132 39.1255 11.4062 38.8586 11.3222 38.5845C11.2792 38.4466 11.2422 38.3075 11.2112 38.1665C11.1952 38.0955 11.1802 38.0246 11.1671 37.9535C11.1542 37.8825 11.1421 37.8116 11.1321 37.7395C11.0912 37.4545 11.0702 37.1675 11.0698 36.8771C11.0618 27.1471 11.0518 17.4162 11.042 7.68619C11.041 7.38919 11.068 7.0972 11.1231 6.80923C11.15 6.66617 11.1841 6.52322 11.2251 6.38223C11.2461 6.31119 11.2681 6.24124 11.2931 6.17117C11.317 6.10123 11.343 6.03323 11.37 5.96524C11.4801 5.69315 11.6151 5.43619 11.776 5.19315C11.8161 5.13223 11.8581 5.07315 11.901 5.01419C11.9451 4.95523 11.9901 4.89713 12.0371 4.84024C12.13 4.7272 12.2271 4.62015 12.3311 4.51724C12.5371 4.31424 12.7621 4.13223 13.0081 3.97318C13.0691 3.93314 13.1321 3.8942 13.1941 3.85818C13.2581 3.8212 13.3211 3.78714 13.3861 3.7532C13.5141 3.68716 13.646 3.62723 13.7801 3.57413C13.9151 3.52017 14.0531 3.47415 14.192 3.43314C14.2621 3.41324 14.333 3.3942 14.4041 3.37723C14.4751 3.36014 14.547 3.34525 14.619 3.33121C14.9051 3.27713 15.1961 3.2482 15.4896 3.24612C23.1208 3.18521 30.8747 3.18521 38.506 3.24612C38.8 3.24918 39.089 3.27713 39.372 3.33109C39.6549 3.38419 39.933 3.46317 40.205 3.57108C40.273 3.59708 40.341 3.62613 40.407 3.65616C40.474 3.68607 40.539 3.71817 40.6039 3.75113C40.7329 3.81717 40.8579 3.88907 40.9789 3.96817C41.2219 4.12418 41.4469 4.30508 41.657 4.51114C41.709 4.56216 41.7599 4.61514 41.809 4.6691C41.8579 4.72318 41.9059 4.77811 41.953 4.83414C42.0449 4.94608 42.132 5.06314 42.2119 5.18411C42.293 5.30508 42.367 5.43008 42.435 5.56009C42.47 5.62418 42.503 5.69009 42.534 5.75711C42.565 5.82413 42.595 5.89212 42.622 5.96011C42.732 6.23209 42.814 6.51309 42.87 6.80215C42.8839 6.87418 42.8949 6.94717 42.9059 7.02017C42.917 7.09317 42.9259 7.16714 42.9319 7.24112C42.9459 7.38907 42.953 7.53714 42.9527 7.68655Z" stroke="#FF00FF" stroke-width="0.283465" stroke-miterlimit="10" stroke-linecap="round" stroke-linejoin="round"/>
<path d="M20.186 19.9878C19.4478 19.9878 18.9995 19.5132 18.9995 18.7222V10.0379C18.9995 9.96063 18.9368 9.89795 18.8595 9.89795H16.4595C15.8706 9.89795 15.4399 9.47607 15.4399 8.90479C15.4399 8.32471 15.8706 7.90283 16.4595 7.90283H23.9214C24.519 7.90283 24.9409 8.31592 24.9409 8.90479C24.9409 9.48486 24.519 9.89795 23.9214 9.89795H21.5126C21.4352 9.89795 21.3726 9.96063 21.3726 10.0379V18.7222C21.3726 19.5044 20.9155 19.9878 20.186 19.9878Z" fill="black"/>
</svg>
