<svg width="81" height="54" viewBox="0 0 81 54" fill="none" xmlns="http://www.w3.org/2000/svg">
<path d="M15.0618 42.8655C14.3838 42.8085 13.7118 42.6194 13.0944 42.3189C12.4724 42.0149 11.9074 41.5989 11.4433 41.0896C10.9783 40.5796 10.6163 39.9776 10.3635 39.3323C10.1105 38.6904 9.96648 38.0074 9.93886 37.3219L9.92285 7.34099C9.93686 6.78996 10.0389 6.23698 10.2162 5.7133C10.3052 5.45024 10.4122 5.19633 10.5369 4.95073C10.6619 4.70476 10.8059 4.4688 10.9653 4.24345C11.1243 4.02043 11.3003 3.8084 11.4915 3.61101C11.6815 3.41496 11.8875 3.23393 12.106 3.06865C12.323 2.90459 12.554 2.75664 12.7922 2.62578C13.0312 2.4948 13.2782 2.38078 13.5335 2.28618C13.8535 2.16716 14.1845 2.07915 14.5211 2.01714C14.8571 1.95512 15.1981 1.92021 15.5391 1.91411H15.5368C32.1808 1.82719 48.8247 1.82719 65.4694 1.91374C65.7234 1.91875 65.9774 1.93877 66.2295 1.97453C66.4825 2.01054 66.7325 2.06059 66.9778 2.12737C67.1418 2.17229 67.3038 2.22331 67.4626 2.28203C67.9725 2.47209 68.4575 2.73601 68.895 3.06535C69.3329 3.39641 69.722 3.7924 70.0428 4.23711C70.3658 4.68608 70.6208 5.18315 70.797 5.70793C70.973 6.23491 71.069 6.78899 71.0843 7.34087L71.0685 37.3226C71.0395 38.0076 70.8955 38.6956 70.6446 39.3357C70.5176 39.6587 70.3636 39.9698 70.1826 40.2634C70.0005 40.5584 69.7915 40.8373 69.559 41.0931C69.326 41.3501 69.0689 41.5832 68.7922 41.7907C68.5152 41.9967 68.2202 42.1778 67.9105 42.3288C67.7555 42.4039 67.5984 42.4718 67.4373 42.5331C67.2772 42.5931 67.1132 42.6451 66.9482 42.6894C66.7833 42.7334 66.6162 42.7685 66.4474 42.7994C66.2804 42.8304 66.1114 42.8564 65.9409 42.865C57.4669 43.2481 48.985 43.439 40.5025 43.4394C32.0204 43.4394 23.5395 43.2474 15.0655 42.8653" stroke="#16215B" stroke-width="0.283" stroke-miterlimit="10"/>
<path d="M67.5541 40.8116H13.5141C12.3392 40.8117 11.3872 39.8597 11.3872 38.6856V6.20673C11.3871 5.03314 12.3391 4.08112 13.5141 4.08112H17.0571H64.0101H67.5542C68.7281 4.08112 69.6801 5.03314 69.6801 6.20709V38.6856C69.6801 39.8597 68.7281 40.8116 67.5541 40.8116Z" stroke="#00FFFF" stroke-width="0.28" stroke-miterlimit="10"/>
<path d="M70.1069 36.8347C70.1059 37.1287 70.0839 37.4187 70.0399 37.7067C70.0179 37.8507 69.9899 37.9928 69.9559 38.1347C69.9389 38.2058 69.9209 38.2767 69.8999 38.3477C69.8799 38.4177 69.8589 38.4877 69.8359 38.5577C69.7429 38.8358 69.6269 39.1018 69.4869 39.3547C69.4169 39.4818 69.3409 39.6057 69.2579 39.7257C69.2169 39.7857 69.1739 39.8447 69.1289 39.9038C69.0839 39.9617 69.0379 40.0188 68.9899 40.0747C68.9419 40.1307 68.8939 40.1857 68.8429 40.2387C68.7929 40.2917 68.7409 40.3437 68.6889 40.3938C68.5829 40.4937 68.4729 40.5877 68.3579 40.6767C68.2419 40.7647 68.1219 40.8468 67.9969 40.9227C67.9349 40.9608 67.8699 40.9967 67.8059 41.0317C67.7409 41.0667 67.6759 41.0997 67.6099 41.1307C67.3469 41.2547 67.0729 41.3497 66.7889 41.4177C66.6479 41.4517 66.5029 41.4787 66.3579 41.4987C66.2139 41.5188 66.0669 41.5327 65.9209 41.5387C49.0273 42.2937 32.0073 42.2937 15.1123 41.5387C14.8208 41.5251 14.5318 41.486 14.2468 41.418C14.1758 41.4011 14.1058 41.3822 14.0348 41.3621C13.9648 41.3411 13.8958 41.319 13.8268 41.2951C13.6898 41.2471 13.5558 41.1921 13.4238 41.1311C13.2928 41.069 13.1648 41.0011 13.0398 40.9251C12.9778 40.887 12.9158 40.8471 12.8558 40.8061C12.7948 40.7641 12.7358 40.7221 12.6778 40.6771C12.4468 40.5001 12.2368 40.3011 12.0468 40.0791C11.9998 40.0231 11.9528 39.9671 11.9088 39.9091C11.8648 39.8512 11.8208 39.7911 11.7798 39.7312C11.6968 39.6101 11.6188 39.486 11.5488 39.3591C11.4788 39.2321 11.4138 39.1021 11.3558 38.9681C11.3258 38.9011 11.2988 38.8341 11.2728 38.7661C11.2458 38.6971 11.2218 38.6281 11.1988 38.5592C11.1058 38.2801 11.0388 37.9971 10.9938 37.7091C10.9718 37.5651 10.9548 37.4201 10.9448 37.2741C10.9338 37.1281 10.9278 36.9821 10.9278 36.835C10.9234 31.9847 10.9194 27.1337 10.9144 22.2827C10.9104 17.8728 10.9064 13.4617 10.9014 9.05171C10.9014 8.61067 10.9004 8.16866 10.9004 7.72664C10.8991 7.42183 10.9301 7.1219 10.9901 6.82784C11.0201 6.67989 11.0581 6.53389 11.1031 6.38985C11.1261 6.31783 11.1511 6.2458 11.1781 6.17488C11.2041 6.10384 11.2331 6.03389 11.2631 5.9648C11.3841 5.6888 11.5321 5.42891 11.7081 5.18379C11.7521 5.12288 11.7981 5.06282 11.8451 5.00386C11.8931 4.9449 11.9411 4.8868 11.9921 4.83089C12.0931 4.71883 12.1981 4.61189 12.3091 4.5118C12.4201 4.41084 12.5361 4.31587 12.6561 4.22688C12.7171 4.18184 12.7781 4.13887 12.8411 4.09785C12.9041 4.05586 12.9681 4.01582 13.0331 3.97688C13.2941 3.82185 13.5651 3.6949 13.8481 3.59187C13.9891 3.54085 14.1341 3.4958 14.2801 3.45686C14.4271 3.4189 14.5741 3.3868 14.7231 3.36189C15.0181 3.30989 15.3191 3.28389 15.6222 3.28279C32.1792 3.19685 48.8542 3.19685 65.4108 3.28267C65.5638 3.28365 65.7148 3.29073 65.8648 3.30367C66.0158 3.31673 66.1648 3.33565 66.3128 3.36165C66.6088 3.41267 66.8988 3.48872 67.1838 3.59175C67.2548 3.61775 67.3248 3.64473 67.3948 3.67366C67.4648 3.70271 67.5328 3.73274 67.6008 3.76472C67.7368 3.82869 67.8668 3.89766 67.9948 3.97371C68.2508 4.12569 68.4918 4.30171 68.7168 4.50471C68.7728 4.55574 68.8278 4.60774 68.8818 4.6617C68.9358 4.71565 68.9878 4.77071 69.0378 4.82674C69.1398 4.93965 69.2348 5.05769 69.3218 5.17867C69.4978 5.42268 69.6478 5.68269 69.7688 5.96065C69.7998 6.03072 69.8278 6.10164 69.8548 6.17171C69.8818 6.24373 69.9058 6.31465 69.9288 6.38667C69.9748 6.52974 70.0128 6.67574 70.0428 6.82271C70.0728 6.97066 70.0958 7.11971 70.1118 7.26973C70.1178 7.34566 70.1238 7.42171 70.1278 7.49776C70.1318 7.57466 70.1338 7.65071 70.1335 7.72713L70.1195 22.2832C70.1155 26.6931 70.1115 31.1041 70.1075 35.5141C70.1065 35.9552 70.1065 36.3951 70.1055 36.835" stroke="#FF00FF" stroke-width="0.283465" stroke-miterlimit="10" stroke-linecap="round" stroke-linejoin="round"/>
<path d="M68.4144 46.9191V52.01H67.7979V47.5654H67.7681L66.5252 48.3907V47.7643L67.7979 46.9191H68.4144ZM70.0153 52.0498C69.8926 52.0498 69.7874 52.0059 69.6996 51.918C69.6117 51.8302 69.5678 51.725 69.5678 51.6023C69.5678 51.4797 69.6117 51.3745 69.6996 51.2866C69.7874 51.1988 69.8926 51.1549 70.0153 51.1549C70.1379 51.1549 70.2431 51.1988 70.331 51.2866C70.4188 51.3745 70.4627 51.4797 70.4627 51.6023C70.4627 51.6835 70.442 51.7581 70.4006 51.8261C70.3608 51.894 70.3069 51.9487 70.239 51.9901C70.1727 52.0299 70.0981 52.0498 70.0153 52.0498ZM72.9939 52.0796C72.7022 52.0796 72.4395 52.0216 72.2059 51.9056C71.9722 51.7896 71.7849 51.6305 71.6441 51.4283C71.5032 51.2262 71.4262 50.9958 71.4129 50.7373H72.0095C72.0327 50.9676 72.1371 51.1582 72.3227 51.309C72.51 51.4582 72.7337 51.5327 72.9939 51.5327C73.2027 51.5327 73.3883 51.4838 73.5507 51.3861C73.7148 51.2883 73.8432 51.1541 73.936 50.9834C74.0305 50.811 74.0777 50.6163 74.0777 50.3992C74.0777 50.1771 74.0288 49.9791 73.931 49.8051C73.8349 49.6294 73.7023 49.4911 73.5333 49.39C73.3643 49.2889 73.1712 49.2375 72.9541 49.2359C72.7983 49.2342 72.6384 49.2582 72.4743 49.308C72.3103 49.356 72.1752 49.4182 72.0692 49.4944L71.4925 49.4248L71.8007 46.9191H74.4456V47.466H72.3177L72.1388 48.9674H72.1686C72.273 48.8845 72.4039 48.8158 72.5613 48.7611C72.7188 48.7064 72.8828 48.679 73.0535 48.679C73.3651 48.679 73.6427 48.7536 73.8863 48.9028C74.1315 49.0503 74.3238 49.2524 74.463 49.5093C74.6038 49.7662 74.6743 50.0595 74.6743 50.3893C74.6743 50.7141 74.6014 51.0041 74.4555 51.2593C74.3113 51.5129 74.1125 51.7134 73.8589 51.8609C73.6054 52.0067 73.317 52.0796 72.9939 52.0796ZM77.3223 52.0796C76.9477 52.0796 76.6287 51.9777 76.3652 51.7739C76.1017 51.5684 75.9004 51.2709 75.7612 50.8815C75.622 50.4904 75.5524 50.0181 75.5524 49.4646C75.5524 48.9144 75.622 48.4446 75.7612 48.0551C75.902 47.664 76.1042 47.3657 76.3677 47.1602C76.6329 46.9531 76.9511 46.8495 77.3223 46.8495C77.6935 46.8495 78.0108 46.9531 78.2743 47.1602C78.5395 47.3657 78.7417 47.664 78.8809 48.0551C79.0217 48.4446 79.0922 48.9144 79.0922 49.4646C79.0922 50.0181 79.0225 50.4904 78.8833 50.8815C78.7441 51.2709 78.5428 51.5684 78.2793 51.7739C78.0158 51.9777 77.6968 52.0796 77.3223 52.0796ZM77.3223 51.5327C77.6935 51.5327 77.9818 51.3538 78.1873 50.9958C78.3928 50.6379 78.4956 50.1274 78.4956 49.4646C78.4956 49.0237 78.4483 48.6484 78.3539 48.3385C78.2611 48.0286 78.1268 47.7924 77.9512 47.63C77.7772 47.4676 77.5675 47.3864 77.3223 47.3864C76.9544 47.3864 76.6668 47.5679 76.4597 47.9308C76.2525 48.2921 76.149 48.8033 76.149 49.4646C76.149 49.9054 76.1954 50.2799 76.2882 50.5881C76.381 50.8964 76.5144 51.1309 76.6884 51.2916C76.8641 51.4524 77.0753 51.5327 77.3223 51.5327Z" fill="#0000FF"/>
<path fill-rule="evenodd" clip-rule="evenodd" d="M22.814 24.5661L26.7193 22.6684C27.4997 22.301 27.4997 21.189 26.7193 20.8216L22.814 18.9239C22.5543 18.7977 22.2433 18.8479 22.0365 19.0494C21.8297 19.251 21.7715 19.5606 21.891 19.8235L22.3515 20.8364C22.3936 20.9291 22.3258 21.0344 22.224 21.0344L16.5796 21.0344C16.1875 21.0344 15.8696 21.3523 15.8696 21.7444C15.8696 22.1365 16.1875 22.4544 16.5796 22.4544L22.22 22.4544C22.3218 22.4544 22.3896 22.5596 22.3475 22.6523L21.891 23.6565C21.8505 23.7456 21.8296 23.8422 21.8296 23.94V23.95C21.8296 24.186 21.9511 24.4054 22.1512 24.5306C22.3513 24.6559 22.6017 24.6693 22.814 24.5661ZM30.1098 19.575C30.1098 19.1829 29.7919 18.865 29.3998 18.865C29.0076 18.865 28.6898 19.1829 28.6898 19.575V23.925C28.6898 24.3171 29.0076 24.635 29.3998 24.635C29.7919 24.635 30.1098 24.3171 30.1098 23.925V19.575Z" fill="black"/>
<path d="M36.4688 25.833C36.0782 25.833 35.8438 25.5937 35.8438 25.1787V19.9102C35.8438 19.8319 35.7803 19.7685 35.7021 19.7685H34.2324C33.8906 19.7685 33.6562 19.5634 33.6562 19.2363C33.6562 18.9092 33.8857 18.7041 34.2324 18.7041H38.71C39.0567 18.7041 39.2862 18.9092 39.2862 19.2363C39.2862 19.5634 39.0518 19.7685 38.71 19.7685H37.2404C37.1621 19.7685 37.0987 19.832 37.0987 19.9102V25.1787C37.0987 25.5937 36.8644 25.833 36.4689 25.833H36.4688Z" fill="black"/>
<path d="M42.0353 23.8313C42.0353 24.4562 41.4788 24.9152 40.7952 24.9152C40.268 24.9152 39.9115 24.6467 39.9115 24.222C39.9115 23.7973 40.2484 23.5483 40.8342 23.5092L41.9826 23.4392C42.0111 23.4375 42.0352 23.4601 42.0352 23.4887V23.8315L42.0353 23.8313ZM41.1174 20.4674C40.1263 20.4674 39.5547 20.8077 39.2624 21.1351C39.0931 21.3248 39.0714 21.7242 39.3036 21.9099C39.575 22.1269 40.0296 21.9645 40.1858 21.7725C40.326 21.6001 40.6408 21.425 41.0684 21.4194C41.6688 21.4115 42.0351 21.7319 42.0351 22.2738V22.4764C42.0351 22.5027 42.0146 22.5244 41.9883 22.5259L40.6631 22.6014C39.4037 22.6795 38.6958 23.3528 38.6958 24.2706C38.6958 25.1884 39.4257 25.8329 40.4241 25.8329C41.0559 25.8329 41.6718 25.6679 41.9782 25.5426C42.0425 25.5163 42.1162 25.5411 42.1524 25.6004C42.1552 25.6049 42.1576 25.6087 42.1596 25.6116C42.241 25.7275 42.3875 25.8475 42.6455 25.8475C42.9873 25.8475 43.2362 25.6278 43.2362 25.2373V22.1859C43.2362 21.146 42.4014 20.4674 41.1174 20.4674Z" fill="black"/>
<path d="M48.1965 23.1568C48.1965 24.1775 47.7081 24.8319 46.9219 24.8319C46.1357 24.8319 45.6619 24.1628 45.657 23.1568C45.6619 22.141 46.1649 21.4817 46.9219 21.4817C47.6789 21.4817 48.1965 22.1312 48.1965 23.1568ZM49.4418 23.1568C49.4418 21.5061 48.6116 20.4854 47.3125 20.4854C46.8308 20.4854 46.2281 20.6916 45.8662 20.8545C45.7726 20.8966 45.6667 20.8278 45.6667 20.7251V19.245C45.6667 18.8347 45.4128 18.6052 45.0562 18.6052C44.6996 18.6052 44.4507 18.8347 44.4507 19.245V25.2226C44.4507 25.6231 44.6948 25.8477 45.0416 25.8477C45.2403 25.8477 45.416 25.7757 45.5354 25.6052C45.5458 25.5903 45.5541 25.5741 45.5621 25.5579C45.5937 25.4939 45.6685 25.4642 45.736 25.4871C46.0369 25.5891 46.807 25.8331 47.293 25.8331C48.6067 25.8331 49.4419 24.8124 49.4419 23.1569L49.4418 23.1568Z" fill="black"/>
</svg>
