<svg width="81" height="54" viewBox="0 0 81 54" fill="none" xmlns="http://www.w3.org/2000/svg">
<rect x="1.8501" y="1.85001" width="77.3" height="50.3" rx="3" stroke="#8B1EFF" stroke-width="0.28"/>
<path d="M15.0618 42.8655C14.3838 42.8085 13.7118 42.6194 13.0944 42.3189C12.4724 42.0149 11.9074 41.5989 11.4433 41.0896C10.9783 40.5796 10.6163 39.9776 10.3635 39.3323C10.1105 38.6904 9.96648 38.0074 9.93886 37.3219L9.92285 7.34099C9.93686 6.78996 10.0389 6.23698 10.2162 5.7133C10.3052 5.45024 10.4122 5.19633 10.5369 4.95073C10.6619 4.70476 10.8059 4.4688 10.9653 4.24345C11.1243 4.02043 11.3003 3.8084 11.4915 3.61101C11.6815 3.41496 11.8875 3.23393 12.106 3.06865C12.323 2.90459 12.554 2.75664 12.7922 2.62578C13.0312 2.4948 13.2782 2.38078 13.5335 2.28618C13.8535 2.16716 14.1845 2.07915 14.5211 2.01714C14.8571 1.95512 15.1981 1.92021 15.5391 1.91411H15.5368C32.1808 1.82719 48.8247 1.82719 65.4694 1.91374C65.7234 1.91875 65.9774 1.93877 66.2295 1.97453C66.4825 2.01054 66.7325 2.06059 66.9778 2.12737C67.1418 2.17229 67.3038 2.22331 67.4626 2.28203C67.9725 2.47209 68.4575 2.73601 68.895 3.06535C69.3329 3.39641 69.722 3.7924 70.0428 4.23711C70.3658 4.68608 70.6208 5.18315 70.797 5.70793C70.973 6.23491 71.069 6.78899 71.0843 7.34087L71.0685 37.3226C71.0395 38.0076 70.8955 38.6956 70.6446 39.3357C70.5176 39.6587 70.3636 39.9698 70.1826 40.2634C70.0005 40.5584 69.7915 40.8373 69.559 41.0931C69.326 41.3501 69.0689 41.5832 68.7922 41.7907C68.5152 41.9967 68.2202 42.1778 67.9105 42.3288C67.7555 42.4039 67.5984 42.4718 67.4373 42.5331C67.2772 42.5931 67.1132 42.6451 66.9482 42.6894C66.7833 42.7334 66.6162 42.7685 66.4474 42.7994C66.2804 42.8304 66.1114 42.8564 65.9409 42.865C57.4669 43.2481 48.985 43.439 40.5025 43.4394C32.0204 43.4394 23.5395 43.2474 15.0655 42.8653" stroke="#8B1EFF" stroke-width="0.283" stroke-miterlimit="10"/>
<path d="M67.5541 40.8116H13.5141C12.3392 40.8117 11.3872 39.8597 11.3872 38.6856V6.20673C11.3871 5.03314 12.3391 4.08112 13.5141 4.08112H17.0571H64.0101H67.5542C68.7281 4.08112 69.6801 5.03314 69.6801 6.20709V38.6856C69.6801 39.8597 68.7281 40.8116 67.5541 40.8116Z" stroke="#00FFFF" stroke-width="0.28" stroke-miterlimit="10"/>
<path d="M70.1069 36.8347C70.1059 37.1287 70.0839 37.4187 70.0399 37.7067C70.0179 37.8507 69.9899 37.9928 69.9559 38.1347C69.9389 38.2058 69.9209 38.2767 69.8999 38.3477C69.8799 38.4177 69.8589 38.4877 69.8359 38.5577C69.7429 38.8358 69.6269 39.1018 69.4869 39.3547C69.4169 39.4818 69.3409 39.6057 69.2579 39.7257C69.2169 39.7857 69.1739 39.8447 69.1289 39.9038C69.0839 39.9617 69.0379 40.0188 68.9899 40.0747C68.9419 40.1307 68.8939 40.1857 68.8429 40.2387C68.7929 40.2917 68.7409 40.3437 68.6889 40.3938C68.5829 40.4937 68.4729 40.5877 68.3579 40.6767C68.2419 40.7647 68.1219 40.8468 67.9969 40.9227C67.9349 40.9608 67.8699 40.9967 67.8059 41.0317C67.7409 41.0667 67.6759 41.0997 67.6099 41.1307C67.3469 41.2547 67.0729 41.3497 66.7889 41.4177C66.6479 41.4517 66.5029 41.4787 66.3579 41.4987C66.2139 41.5188 66.0669 41.5327 65.9209 41.5387C49.0273 42.2937 32.0073 42.2937 15.1123 41.5387C14.8208 41.5251 14.5318 41.486 14.2468 41.418C14.1758 41.4011 14.1058 41.3822 14.0348 41.3621C13.9648 41.3411 13.8958 41.319 13.8268 41.2951C13.6898 41.2471 13.5558 41.1921 13.4238 41.1311C13.2928 41.069 13.1648 41.0011 13.0398 40.9251C12.9778 40.887 12.9158 40.8471 12.8558 40.8061C12.7948 40.7641 12.7358 40.7221 12.6778 40.6771C12.4468 40.5001 12.2368 40.3011 12.0468 40.0791C11.9998 40.0231 11.9528 39.9671 11.9088 39.9091C11.8648 39.8512 11.8208 39.7911 11.7798 39.7312C11.6968 39.6101 11.6188 39.486 11.5488 39.3591C11.4788 39.2321 11.4138 39.1021 11.3558 38.9681C11.3258 38.9011 11.2988 38.8341 11.2728 38.7661C11.2458 38.6971 11.2218 38.6281 11.1988 38.5592C11.1058 38.2801 11.0388 37.9971 10.9938 37.7091C10.9718 37.5651 10.9548 37.4201 10.9448 37.2741C10.9338 37.1281 10.9278 36.9821 10.9278 36.835C10.9234 31.9847 10.9194 27.1337 10.9144 22.2827C10.9104 17.8728 10.9064 13.4617 10.9014 9.05171C10.9014 8.61067 10.9004 8.16866 10.9004 7.72664C10.8991 7.42183 10.9301 7.1219 10.9901 6.82784C11.0201 6.67989 11.0581 6.53389 11.1031 6.38985C11.1261 6.31783 11.1511 6.2458 11.1781 6.17488C11.2041 6.10384 11.2331 6.03389 11.2631 5.9648C11.3841 5.6888 11.5321 5.42891 11.7081 5.18379C11.7521 5.12288 11.7981 5.06282 11.8451 5.00386C11.8931 4.9449 11.9411 4.8868 11.9921 4.83089C12.0931 4.71883 12.1981 4.61189 12.3091 4.5118C12.4201 4.41084 12.5361 4.31587 12.6561 4.22688C12.7171 4.18184 12.7781 4.13887 12.8411 4.09785C12.9041 4.05586 12.9681 4.01582 13.0331 3.97688C13.2941 3.82185 13.5651 3.6949 13.8481 3.59187C13.9891 3.54085 14.1341 3.4958 14.2801 3.45686C14.4271 3.4189 14.5741 3.3868 14.7231 3.36189C15.0181 3.30989 15.3191 3.28389 15.6222 3.28279C32.1792 3.19685 48.8542 3.19685 65.4108 3.28267C65.5638 3.28365 65.7148 3.29073 65.8648 3.30367C66.0158 3.31673 66.1648 3.33565 66.3128 3.36165C66.6088 3.41267 66.8988 3.48872 67.1838 3.59175C67.2548 3.61775 67.3248 3.64473 67.3948 3.67366C67.4648 3.70271 67.5328 3.73274 67.6008 3.76472C67.7368 3.82869 67.8668 3.89766 67.9948 3.97371C68.2508 4.12569 68.4918 4.30171 68.7168 4.50471C68.7728 4.55574 68.8278 4.60774 68.8818 4.6617C68.9358 4.71565 68.9878 4.77071 69.0378 4.82674C69.1398 4.93965 69.2348 5.05769 69.3218 5.17867C69.4978 5.42268 69.6478 5.68269 69.7688 5.96065C69.7998 6.03072 69.8278 6.10164 69.8548 6.17171C69.8818 6.24373 69.9058 6.31465 69.9288 6.38667C69.9748 6.52974 70.0128 6.67574 70.0428 6.82271C70.0728 6.97066 70.0958 7.11971 70.1118 7.26973C70.1178 7.34566 70.1238 7.42171 70.1278 7.49776C70.1318 7.57466 70.1338 7.65071 70.1335 7.72713L70.1195 22.2832C70.1155 26.6931 70.1115 31.1041 70.1075 35.5141C70.1065 35.9552 70.1065 36.3951 70.1055 36.835" stroke="#FF00FF" stroke-width="0.283465" stroke-miterlimit="10" stroke-linecap="round" stroke-linejoin="round"/>
<path d="M66.4144 44.9191V50.01H65.7979V45.5654H65.7681L64.5252 46.3907V45.7643L65.7979 44.9191H66.4144ZM68.0153 50.0498C67.8926 50.0498 67.7874 50.0059 67.6996 49.918C67.6117 49.8302 67.5678 49.725 67.5678 49.6023C67.5678 49.4797 67.6117 49.3745 67.6996 49.2866C67.7874 49.1988 67.8926 49.1549 68.0153 49.1549C68.1379 49.1549 68.2431 49.1988 68.331 49.2866C68.4188 49.3745 68.4627 49.4797 68.4627 49.6023C68.4627 49.6835 68.442 49.7581 68.4006 49.8261C68.3608 49.894 68.3069 49.9487 68.239 49.9901C68.1727 50.0299 68.0981 50.0498 68.0153 50.0498ZM70.9939 50.0796C70.7022 50.0796 70.4395 50.0216 70.2059 49.9056C69.9722 49.7896 69.7849 49.6305 69.6441 49.4283C69.5032 49.2262 69.4262 48.9958 69.4129 48.7373H70.0095C70.0327 48.9676 70.1371 49.1582 70.3227 49.309C70.51 49.4582 70.7337 49.5327 70.9939 49.5327C71.2027 49.5327 71.3883 49.4838 71.5507 49.3861C71.7148 49.2883 71.8432 49.1541 71.936 48.9834C72.0305 48.811 72.0777 48.6163 72.0777 48.3992C72.0777 48.1771 72.0288 47.9791 71.931 47.8051C71.8349 47.6294 71.7023 47.4911 71.5333 47.39C71.3643 47.2889 71.1712 47.2375 70.9541 47.2359C70.7983 47.2342 70.6384 47.2582 70.4743 47.308C70.3103 47.356 70.1752 47.4182 70.0692 47.4944L69.4925 47.4248L69.8007 44.9191H72.4456V45.466H70.3177L70.1388 46.9674H70.1686C70.273 46.8845 70.4039 46.8158 70.5613 46.7611C70.7188 46.7064 70.8828 46.679 71.0535 46.679C71.3651 46.679 71.6427 46.7536 71.8863 46.9028C72.1315 47.0503 72.3238 47.2524 72.463 47.5093C72.6038 47.7662 72.6743 48.0595 72.6743 48.3893C72.6743 48.7141 72.6014 49.0041 72.4555 49.2593C72.3113 49.5129 72.1125 49.7134 71.8589 49.8609C71.6054 50.0067 71.317 50.0796 70.9939 50.0796ZM75.3223 50.0796C74.9477 50.0796 74.6287 49.9777 74.3652 49.7739C74.1017 49.5684 73.9004 49.2709 73.7612 48.8815C73.622 48.4904 73.5524 48.0181 73.5524 47.4646C73.5524 46.9144 73.622 46.4446 73.7612 46.0551C73.902 45.664 74.1042 45.3657 74.3677 45.1602C74.6329 44.9531 74.9511 44.8495 75.3223 44.8495C75.6935 44.8495 76.0108 44.9531 76.2743 45.1602C76.5395 45.3657 76.7417 45.664 76.8809 46.0551C77.0217 46.4446 77.0922 46.9144 77.0922 47.4646C77.0922 48.0181 77.0225 48.4904 76.8833 48.8815C76.7441 49.2709 76.5428 49.5684 76.2793 49.7739C76.0158 49.9777 75.6968 50.0796 75.3223 50.0796ZM75.3223 49.5327C75.6935 49.5327 75.9818 49.3538 76.1873 48.9958C76.3928 48.6379 76.4956 48.1274 76.4956 47.4646C76.4956 47.0237 76.4483 46.6484 76.3539 46.3385C76.2611 46.0286 76.1268 45.7924 75.9512 45.63C75.7772 45.4676 75.5675 45.3864 75.3223 45.3864C74.9544 45.3864 74.6668 45.5679 74.4597 45.9308C74.2525 46.2921 74.149 46.8033 74.149 47.4646C74.149 47.9054 74.1954 48.2799 74.2882 48.5881C74.381 48.8964 74.5144 49.1309 74.6884 49.2916C74.8641 49.4524 75.0753 49.5327 75.3223 49.5327Z" fill="#0000FF"/>
<path fill-rule="evenodd" clip-rule="evenodd" d="M22.814 24.5661L26.7193 22.6684C27.4997 22.301 27.4997 21.189 26.7193 20.8216L22.814 18.9239C22.5543 18.7977 22.2433 18.8479 22.0365 19.0495C21.8297 19.251 21.7715 19.5606 21.891 19.8235L22.3515 20.8365C22.3936 20.9292 22.3258 21.0344 22.224 21.0344L16.5796 21.0344C16.1875 21.0344 15.8696 21.3523 15.8696 21.7444C15.8696 22.1365 16.1875 22.4544 16.5796 22.4544L22.22 22.4544C22.3218 22.4544 22.3896 22.5596 22.3475 22.6523L21.891 23.6566C21.8505 23.7456 21.8296 23.8422 21.8296 23.94V23.95C21.8296 24.1861 21.9511 24.4055 22.1512 24.5307C22.3513 24.6559 22.6017 24.6693 22.814 24.5661ZM30.1098 19.575C30.1098 19.1829 29.7919 18.865 29.3998 18.865C29.0076 18.865 28.6898 19.1829 28.6898 19.575V23.925C28.6898 24.3171 29.0076 24.635 29.3998 24.635C29.7919 24.635 30.1098 24.3171 30.1098 23.925V19.575Z" fill="black"/>
<path d="M36.4687 25.833C36.0781 25.833 35.8437 25.5937 35.8437 25.1787V19.9102C35.8437 19.8319 35.7803 19.7685 35.7021 19.7685H34.2324C33.8906 19.7685 33.6562 19.5634 33.6562 19.2363C33.6562 18.9092 33.8857 18.7041 34.2324 18.7041H38.71C39.0567 18.7041 39.2862 18.9092 39.2862 19.2363C39.2862 19.5634 39.0518 19.7685 38.71 19.7685H37.2404C37.1621 19.7685 37.0987 19.832 37.0987 19.9102V25.1787C37.0987 25.5937 36.8644 25.833 36.4689 25.833H36.4687Z" fill="black"/>
<path d="M42.0353 23.8313C42.0353 24.4562 41.4788 24.9152 40.7952 24.9152C40.268 24.9152 39.9115 24.6467 39.9115 24.222C39.9115 23.7973 40.2484 23.5483 40.8342 23.5092L41.9826 23.4392C42.0111 23.4375 42.0352 23.4601 42.0352 23.4887V23.8315L42.0353 23.8313ZM41.1174 20.4674C40.1263 20.4674 39.5547 20.8077 39.2624 21.1351C39.0931 21.3248 39.0714 21.7242 39.3036 21.9099C39.575 22.1269 40.0296 21.9645 40.1858 21.7725C40.326 21.6001 40.6408 21.425 41.0684 21.4194C41.6688 21.4115 42.0351 21.7319 42.0351 22.2738V22.4764C42.0351 22.5027 42.0146 22.5244 41.9883 22.5259L40.6631 22.6014C39.4037 22.6795 38.6958 23.3528 38.6958 24.2706C38.6958 25.1884 39.4257 25.8329 40.4241 25.8329C41.0559 25.8329 41.6718 25.6679 41.9782 25.5426C42.0425 25.5163 42.1162 25.5411 42.1524 25.6004C42.1552 25.6049 42.1576 25.6087 42.1596 25.6116C42.241 25.7275 42.3875 25.8475 42.6455 25.8475C42.9873 25.8475 43.2362 25.6278 43.2362 25.2373V22.1859C43.2362 21.146 42.4014 20.4674 41.1174 20.4674Z" fill="black"/>
<path d="M48.1965 23.1569C48.1965 24.1776 47.7081 24.832 46.9219 24.832C46.1357 24.832 45.6619 24.1629 45.657 23.1569C45.6619 22.1411 46.1649 21.4818 46.9219 21.4818C47.6789 21.4818 48.1965 22.1313 48.1965 23.1569ZM49.4418 23.1569C49.4418 21.5062 48.6116 20.4855 47.3125 20.4855C46.8308 20.4855 46.2281 20.6917 45.8662 20.8546C45.7726 20.8967 45.6667 20.8279 45.6667 20.7252V19.2451C45.6667 18.8348 45.4128 18.6053 45.0562 18.6053C44.6996 18.6053 44.4507 18.8348 44.4507 19.2451V25.2227C44.4507 25.6232 44.6948 25.8478 45.0416 25.8478C45.2403 25.8478 45.416 25.7758 45.5354 25.6053C45.5458 25.5904 45.5541 25.5742 45.5621 25.558C45.5937 25.494 45.6685 25.4643 45.736 25.4872C46.0369 25.5892 46.807 25.8332 47.293 25.8332C48.6067 25.8332 49.4419 24.8125 49.4419 23.157L49.4418 23.1569Z" fill="black"/>
</svg>
