<svg width="82" height="55" viewBox="0 0 82 55" fill="none" xmlns="http://www.w3.org/2000/svg">
<path d="M15.5618 42.8655C14.8838 42.8085 14.2118 42.6194 13.5944 42.3189C12.9724 42.0149 12.4074 41.5989 11.9433 41.0896C11.4783 40.5796 11.1163 39.9776 10.8635 39.3323C10.6105 38.6904 10.4665 38.0074 10.4389 37.3219L10.4229 7.34099C10.4369 6.78996 10.5389 6.23698 10.7162 5.7133C10.8052 5.45024 10.9122 5.19633 11.0369 4.95073C11.1619 4.70476 11.3059 4.4688 11.4653 4.24345C11.6243 4.02043 11.8003 3.8084 11.9915 3.61101C12.1815 3.41496 12.3875 3.23393 12.606 3.06865C12.823 2.90459 13.054 2.75664 13.2922 2.62578C13.5312 2.4948 13.7782 2.38078 14.0335 2.28618C14.3535 2.16716 14.6845 2.07915 15.0211 2.01714C15.3571 1.95512 15.6981 1.92021 16.0391 1.91411H16.0368C32.6808 1.82719 49.3247 1.82719 65.9695 1.91374C66.2234 1.91875 66.4774 1.93877 66.7296 1.97453C66.9825 2.01054 67.2325 2.06059 67.4778 2.12737C67.6418 2.17229 67.8038 2.22331 67.9626 2.28203C68.4725 2.47209 68.9575 2.73601 69.395 3.06535C69.8329 3.39641 70.222 3.7924 70.5428 4.23711C70.8658 4.68608 71.1208 5.18315 71.297 5.70793C71.473 6.23491 71.569 6.78899 71.5844 7.34087L71.5685 37.3226C71.5396 38.0076 71.3955 38.6956 71.1446 39.3357C71.0176 39.6587 70.8636 39.9698 70.6826 40.2634C70.5005 40.5584 70.2915 40.8373 70.059 41.0931C69.826 41.3501 69.5689 41.5832 69.2922 41.7907C69.0152 41.9967 68.7202 42.1778 68.4105 42.3288C68.2555 42.4039 68.0984 42.4718 67.9373 42.5331C67.7773 42.5931 67.6133 42.6451 67.4482 42.6894C67.2833 42.7334 67.1162 42.7685 66.9474 42.7994C66.7804 42.8304 66.6114 42.8564 66.4409 42.865C57.9669 43.2481 49.485 43.439 41.0025 43.4394C32.5204 43.4394 24.0395 43.2474 15.5655 42.8653" stroke="#16215B" stroke-width="0.283" stroke-miterlimit="10"/>
<path d="M68.0541 40.8116H14.0141C12.8392 40.8117 11.8872 39.8597 11.8872 38.6856V6.20673C11.8871 5.03314 12.8391 4.08112 14.0141 4.08112H17.5571H64.5101H68.0542C69.2281 4.08112 70.1801 5.03314 70.1801 6.20709V38.6856C70.1801 39.8597 69.2281 40.8116 68.0541 40.8116Z" stroke="#00FFFF" stroke-width="0.28" stroke-miterlimit="10"/>
<path d="M70.6069 36.8347C70.6059 37.1287 70.5839 37.4187 70.5399 37.7067C70.5179 37.8507 70.4899 37.9928 70.4559 38.1347C70.4389 38.2058 70.4209 38.2767 70.3999 38.3477C70.3799 38.4177 70.3589 38.4877 70.3359 38.5577C70.2429 38.8358 70.1269 39.1018 69.9869 39.3547C69.9169 39.4818 69.8409 39.6057 69.7579 39.7257C69.7169 39.7857 69.6739 39.8447 69.6289 39.9038C69.5839 39.9617 69.5379 40.0188 69.4899 40.0747C69.4419 40.1307 69.3939 40.1857 69.3429 40.2387C69.2929 40.2917 69.2409 40.3437 69.1889 40.3938C69.0829 40.4937 68.9729 40.5877 68.8579 40.6767C68.7419 40.7647 68.6219 40.8468 68.4969 40.9227C68.4349 40.9608 68.3699 40.9967 68.3059 41.0317C68.2409 41.0667 68.1759 41.0997 68.1099 41.1307C67.8469 41.2547 67.5729 41.3497 67.2889 41.4177C67.1479 41.4517 67.0029 41.4787 66.8579 41.4987C66.7139 41.5188 66.5669 41.5327 66.4209 41.5387C49.5273 42.2937 32.5073 42.2937 15.6123 41.5387C15.3208 41.5251 15.0318 41.486 14.7468 41.418C14.6758 41.4011 14.6058 41.3822 14.5348 41.3621C14.4648 41.3411 14.3958 41.319 14.3268 41.2951C14.1898 41.2471 14.0558 41.1921 13.9238 41.1311C13.7928 41.069 13.6648 41.0011 13.5398 40.9251C13.4778 40.887 13.4158 40.8471 13.3558 40.8061C13.2948 40.7641 13.2358 40.7221 13.1778 40.6771C12.9468 40.5001 12.7368 40.3011 12.5468 40.0791C12.4998 40.0231 12.4528 39.9671 12.4088 39.9091C12.3648 39.8512 12.3208 39.7911 12.2798 39.7312C12.1968 39.6101 12.1188 39.486 12.0488 39.3591C11.9788 39.2321 11.9138 39.1021 11.8558 38.9681C11.8258 38.9011 11.7988 38.8341 11.7728 38.7661C11.7458 38.6971 11.7218 38.6281 11.6988 38.5592C11.6058 38.2801 11.5388 37.9971 11.4938 37.7091C11.4718 37.5651 11.4548 37.4201 11.4448 37.2741C11.4338 37.1281 11.4278 36.9821 11.4278 36.835C11.4234 31.9847 11.4194 27.1337 11.4144 22.2827C11.4104 17.8728 11.4064 13.4617 11.4014 9.05171C11.4014 8.61067 11.4004 8.16866 11.4004 7.72664C11.3991 7.42183 11.4301 7.1219 11.4901 6.82784C11.5201 6.67989 11.5581 6.53389 11.6031 6.38985C11.6261 6.31783 11.6511 6.2458 11.6781 6.17488C11.7041 6.10384 11.7331 6.03389 11.7631 5.9648C11.8841 5.6888 12.0321 5.42891 12.2081 5.18379C12.2521 5.12288 12.2981 5.06282 12.3451 5.00386C12.3931 4.9449 12.4411 4.8868 12.4921 4.83089C12.5931 4.71883 12.6981 4.61189 12.8091 4.5118C12.9201 4.41084 13.0361 4.31587 13.1561 4.22688C13.2171 4.18184 13.2781 4.13887 13.3411 4.09785C13.4041 4.05586 13.4681 4.01582 13.5331 3.97688C13.7941 3.82185 14.0651 3.6949 14.3481 3.59187C14.4891 3.54085 14.6341 3.4958 14.7801 3.45686C14.9271 3.4189 15.0741 3.3868 15.2231 3.36189C15.5181 3.30989 15.8191 3.28389 16.1222 3.28279C32.6792 3.19685 49.3542 3.19685 65.9108 3.28267C66.0638 3.28365 66.2148 3.29073 66.3648 3.30367C66.5158 3.31673 66.6648 3.33565 66.8128 3.36165C67.1088 3.41267 67.3988 3.48872 67.6838 3.59175C67.7548 3.61775 67.8248 3.64473 67.8948 3.67366C67.9648 3.70271 68.0328 3.73274 68.1008 3.76472C68.2368 3.82869 68.3668 3.89766 68.4948 3.97371C68.7508 4.12569 68.9918 4.30171 69.2168 4.50471C69.2728 4.55574 69.3278 4.60774 69.3818 4.6617C69.4358 4.71565 69.4878 4.77071 69.5378 4.82674C69.6398 4.93965 69.7348 5.05769 69.8218 5.17867C69.9978 5.42268 70.1478 5.68269 70.2688 5.96065C70.2998 6.03072 70.3278 6.10164 70.3548 6.17171C70.3818 6.24373 70.4058 6.31465 70.4288 6.38667C70.4748 6.52974 70.5128 6.67574 70.5428 6.82271C70.5728 6.97066 70.5958 7.11971 70.6118 7.26973C70.6178 7.34566 70.6238 7.42171 70.6278 7.49776C70.6318 7.57466 70.6338 7.65071 70.6335 7.72713L70.6195 22.2832C70.6155 26.6931 70.6115 31.1041 70.6075 35.5141C70.6065 35.9552 70.6065 36.3951 70.6055 36.835" stroke="#FF00FF" stroke-width="0.283465" stroke-miterlimit="10" stroke-linecap="round" stroke-linejoin="round"/>
<path d="M65.2899 46.9191V52.01H64.6734V47.5654H64.6436L63.4007 48.3907V47.7643L64.6734 46.9191H65.2899ZM66.8908 52.0498C66.7681 52.0498 66.6629 52.0059 66.5751 51.918C66.4872 51.8302 66.4433 51.725 66.4433 51.6023C66.4433 51.4797 66.4872 51.3745 66.5751 51.2866C66.6629 51.1988 66.7681 51.1549 66.8908 51.1549C67.0134 51.1549 67.1186 51.1988 67.2065 51.2866C67.2943 51.3745 67.3382 51.4797 67.3382 51.6023C67.3382 51.6835 67.3175 51.7581 67.2761 51.8261C67.2363 51.894 67.1824 51.9487 67.1145 51.9901C67.0482 52.0299 66.9736 52.0498 66.8908 52.0498ZM69.8694 52.0796C69.5777 52.0796 69.315 52.0216 69.0814 51.9056C68.8477 51.7896 68.6604 51.6305 68.5196 51.4283C68.3787 51.2262 68.3017 50.9958 68.2884 50.7373H68.885C68.9082 50.9676 69.0126 51.1582 69.1982 51.309C69.3855 51.4582 69.6092 51.5327 69.8694 51.5327C70.0782 51.5327 70.2638 51.4838 70.4262 51.3861C70.5902 51.2883 70.7187 51.1541 70.8115 50.9834C70.9059 50.811 70.9532 50.6163 70.9532 50.3992C70.9532 50.1771 70.9043 49.9791 70.8065 49.8051C70.7104 49.6294 70.5778 49.4911 70.4088 49.39C70.2397 49.2889 70.0467 49.2375 69.8296 49.2359C69.6738 49.2342 69.5139 49.2582 69.3498 49.308C69.1858 49.356 69.0507 49.4182 68.9446 49.4944L68.3679 49.4248L68.6762 46.9191H71.3211V47.466H69.1932L69.0142 48.9674H69.0441C69.1485 48.8845 69.2794 48.8158 69.4368 48.7611C69.5943 48.7064 69.7583 48.679 69.929 48.679C70.2406 48.679 70.5182 48.7536 70.7618 48.9028C71.007 49.0503 71.1993 49.2524 71.3385 49.5093C71.4793 49.7662 71.5498 50.0595 71.5498 50.3893C71.5498 50.7141 71.4768 51.0041 71.331 51.2593C71.1868 51.5129 70.988 51.7134 70.7344 51.8609C70.4809 52.0067 70.1925 52.0796 69.8694 52.0796Z" fill="#0000FF"/>
<path fill-rule="evenodd" clip-rule="evenodd" d="M27.314 25.5661L31.2193 23.6684C31.9997 23.301 31.9997 22.189 31.2193 21.8216L27.314 19.9239C27.0543 19.7977 26.7433 19.8479 26.5365 20.0494C26.3297 20.251 26.2715 20.5606 26.391 20.8235L26.8515 21.8364C26.8936 21.9291 26.8258 22.0344 26.724 22.0344L21.0796 22.0344C20.6875 22.0344 20.3696 22.3523 20.3696 22.7444C20.3696 23.1365 20.6875 23.4544 21.0796 23.4544L26.72 23.4544C26.8218 23.4544 26.8896 23.5596 26.8475 23.6523L26.391 24.6565C26.3505 24.7456 26.3296 24.8422 26.3296 24.94V24.95C26.3296 25.186 26.4511 25.4054 26.6512 25.5306C26.8513 25.6559 27.1017 25.6693 27.314 25.5661ZM34.6098 20.575C34.6098 20.1829 34.2919 19.865 33.8998 19.865C33.5076 19.865 33.1898 20.1829 33.1898 20.575V24.925C33.1898 25.3171 33.5076 25.635 33.8998 25.635C34.2919 25.635 34.6098 25.3171 34.6098 24.925V20.575Z" fill="black"/>
</svg>
