<svg width="54" height="54" viewBox="0 0 54 54" fill="none" xmlns="http://www.w3.org/2000/svg">
<path d="M44.1505 7.31647L44.1325 37.3803C44.1265 37.5443 44.1124 37.7072 44.0923 37.8691C44.0723 38.0311 44.0463 38.1932 44.016 38.3547C43.985 38.5156 43.948 38.6746 43.9036 38.8338C43.8605 38.9919 43.8115 39.1489 43.757 39.3043C43.6389 39.6282 43.4949 39.9433 43.3242 40.2436C43.1512 40.5485 42.9513 40.8376 42.7263 41.1068C42.4993 41.3768 42.2483 41.6258 41.9753 41.8478C41.7013 42.0698 41.4074 42.2658 41.0972 42.43C40.8722 42.5469 40.6371 42.65 40.3978 42.7353C40.2788 42.7773 40.1578 42.8143 40.0356 42.8481C39.9137 42.8821 39.7907 42.9122 39.6676 42.9368C39.5027 42.9717 39.3367 42.9977 39.1687 43.0147L39.1675 43.0143C31.0554 43.5814 22.9135 43.5803 14.8014 43.0129C14.1355 42.9389 13.4805 42.7249 12.8855 42.4037C12.2805 42.0787 11.7395 41.6418 11.2981 41.1209C10.8541 40.596 10.5121 39.9839 10.273 39.3397C10.153 39.0187 10.058 38.6877 9.98999 38.352C9.92102 38.018 9.87708 37.6771 9.86145 37.3371L9.84473 7.31696C9.85779 6.77496 9.95374 6.23102 10.1215 5.71307C10.2054 5.45416 10.3075 5.20209 10.4258 4.95844C10.5437 4.71552 10.6798 4.48053 10.8307 4.25616C10.9817 4.03412 11.1487 3.82208 11.3317 3.62469C11.5137 3.42877 11.7096 3.24677 11.9188 3.07953C12.1268 2.91449 12.3479 2.76349 12.5767 2.63031C12.8066 2.49738 13.0457 2.38129 13.2915 2.28302C13.6035 2.16107 13.9285 2.06805 14.2576 2.0036C14.5875 1.93866 14.9225 1.90265 15.2578 1.89581C19.1708 1.86481 23.0837 1.84869 26.9971 1.84857C30.91 1.84857 34.823 1.86469 38.7362 1.89606C39.4142 1.90497 40.0952 2.04205 40.7292 2.29669C41.3783 2.55878 41.9763 2.94574 42.4753 3.43292C42.9893 3.93182 43.3983 4.5379 43.6821 5.19806C43.9701 5.86615 44.1301 6.59113 44.1502 7.31305" stroke="#16215B" stroke-width="0.283" stroke-miterlimit="10"/>
<rect x="12.6792" y="5.50508" width="28.63" height="34.3" rx="1.42" stroke="#00FFFF" stroke-width="0.28"/>
<path d="M42.9527 7.68658C42.9477 12.5516 42.9427 17.4166 42.9386 22.2816L42.9237 36.8775C42.9237 37.1668 42.9027 37.4548 42.8617 37.7408C42.8518 37.8118 42.8397 37.8829 42.8268 37.9538C42.8147 38.0248 42.7998 38.0959 42.7838 38.1668C42.7517 38.3078 42.7147 38.4478 42.6728 38.5848C42.5878 38.8588 42.4818 39.1258 42.3507 39.3839C42.3168 39.4478 42.2827 39.5118 42.2467 39.5749C42.2118 39.6368 42.1748 39.6988 42.1367 39.7598C42.0598 39.8818 41.9778 39.9988 41.8908 40.1119C41.8028 40.2248 41.7097 40.3328 41.6098 40.4378C41.5618 40.4898 41.5098 40.5408 41.4578 40.5909C41.4048 40.6398 41.3518 40.6878 41.2968 40.7348C41.0788 40.9199 40.8448 41.0809 40.5938 41.2148C40.5308 41.2488 40.4668 41.2808 40.4018 41.3109C40.3368 41.3419 40.2708 41.3698 40.2038 41.3968C40.0708 41.4499 39.9368 41.4958 39.7998 41.5339C39.5268 41.6108 39.2467 41.6589 38.9608 41.6788C31.0301 42.2228 22.963 42.2228 15.0331 41.6788C14.7461 41.6585 14.4662 41.6105 14.1931 41.5335C14.0562 41.4955 13.9221 41.4495 13.7892 41.3965C13.7222 41.3696 13.6562 41.3405 13.5912 41.3106C13.5261 41.2806 13.4632 41.2486 13.4002 41.2145C13.1481 41.0805 12.9142 40.9196 12.6962 40.7336C12.6421 40.6876 12.5891 40.6396 12.5362 40.5895C12.4842 40.5406 12.4322 40.4886 12.3832 40.4376C12.2842 40.3326 12.1912 40.2245 12.1042 40.1105C12.0161 39.9986 11.9341 39.8806 11.8572 39.7596C11.8191 39.6985 11.7821 39.6365 11.7471 39.5735C11.7112 39.5115 11.6762 39.4476 11.6442 39.3825C11.5132 39.1255 11.4062 38.8586 11.3222 38.5845C11.2792 38.4466 11.2422 38.3076 11.2112 38.1666C11.1952 38.0955 11.1802 38.0246 11.1671 37.9536C11.1542 37.8825 11.1421 37.8116 11.1321 37.7396C11.0912 37.4545 11.0702 37.1675 11.0698 36.8771C11.0618 27.1472 11.0518 17.4162 11.042 7.68622C11.041 7.38922 11.068 7.09723 11.1231 6.80927C11.15 6.6662 11.1841 6.52325 11.2251 6.38226C11.2461 6.31122 11.2681 6.24127 11.2931 6.1712C11.317 6.10126 11.343 6.03326 11.37 5.96527C11.4801 5.69318 11.6151 5.43622 11.776 5.19318C11.8161 5.13226 11.8581 5.07318 11.901 5.01422C11.9451 4.95526 11.9901 4.89716 12.0371 4.84027C12.13 4.72723 12.2271 4.62018 12.3311 4.51727C12.5371 4.31427 12.7621 4.13226 13.0081 3.97321C13.0691 3.93317 13.1321 3.89423 13.1941 3.85822C13.2581 3.82123 13.3211 3.78717 13.3861 3.75323C13.5141 3.68719 13.646 3.62726 13.7801 3.57416C13.9151 3.5202 14.0531 3.47418 14.192 3.43317C14.2621 3.41327 14.333 3.39423 14.4041 3.37726C14.4751 3.36017 14.547 3.34528 14.619 3.33124C14.9051 3.27716 15.1961 3.24823 15.4896 3.24615C23.1208 3.18524 30.8747 3.18524 38.506 3.24615C38.8 3.24921 39.089 3.27716 39.372 3.33112C39.6549 3.38422 39.933 3.4632 40.205 3.57111C40.273 3.59711 40.341 3.62616 40.407 3.65619C40.474 3.6861 40.539 3.7182 40.6039 3.75116C40.7329 3.8172 40.8579 3.8891 40.9789 3.9682C41.2219 4.12421 41.4469 4.30511 41.657 4.51117C41.709 4.56219 41.7599 4.61517 41.809 4.66913C41.8579 4.72321 41.9059 4.77814 41.953 4.83417C42.0449 4.94611 42.132 5.06317 42.2119 5.18414C42.293 5.30511 42.367 5.43011 42.435 5.56012C42.47 5.62421 42.503 5.69012 42.534 5.75714C42.565 5.82416 42.595 5.89215 42.622 5.96014C42.732 6.23212 42.814 6.51312 42.87 6.80219C42.8839 6.87421 42.8949 6.9472 42.9059 7.0202C42.917 7.0932 42.9259 7.16718 42.9319 7.24115C42.9459 7.3891 42.953 7.53717 42.9527 7.68658Z" stroke="#FF00FF" stroke-width="0.283465" stroke-miterlimit="10" stroke-linecap="round" stroke-linejoin="round"/>
<path d="M28.9924 16.1679C29.108 16.1679 29.2192 16.2734 29.182 16.4122L27.831 21.4538C27.7981 21.5765 27.8906 21.697 28.0177 21.697H30.6976C30.8588 21.697 30.9491 21.8828 30.8496 22.0096L25.1561 29.2571C25.115 29.3094 25.0606 29.332 25.0071 29.332C24.8915 29.332 24.7803 29.2265 24.8175 29.0877L26.1684 24.0462C26.2013 23.9235 26.1088 23.803 25.9817 23.803H23.3018C23.1406 23.803 23.0503 23.6172 23.1498 23.4904L28.8434 16.2428C28.8845 16.1905 28.9389 16.1679 28.9924 16.1679ZM28.9924 14.7506C28.7543 14.7506 28.5152 14.8049 28.3009 14.9075C28.0796 15.0135 27.8817 15.1726 27.7287 15.3674L22.0353 22.6148C21.8406 22.8627 21.7235 23.1591 21.6967 23.4719C21.672 23.7611 21.7261 24.0522 21.8533 24.3139C21.9805 24.5756 22.176 24.798 22.4187 24.9572C22.6812 25.1294 22.9865 25.2204 23.3017 25.2204H24.2039C24.2959 25.2204 24.3629 25.3077 24.3391 25.3966L23.4483 28.721C23.3833 28.9636 23.3754 29.2207 23.4255 29.4643C23.4739 29.6998 23.577 29.9253 23.7237 30.1165C23.8735 30.3117 24.0697 30.4727 24.291 30.582C24.5128 30.6915 24.7604 30.7494 25.007 30.7494C25.2536 30.7494 25.4842 30.6951 25.6985 30.5925C25.9198 30.4865 26.1177 30.3274 26.2707 30.1326L31.9641 22.8854C32.1588 22.6375 32.2759 22.3411 32.3027 22.0283C32.3274 21.7391 32.2733 21.448 32.1461 21.1863C32.0189 20.9246 31.8234 20.7022 31.5807 20.543C31.3182 20.3708 31.0129 20.2798 30.6977 20.2798H29.7956C29.7035 20.2798 29.6365 20.1925 29.6604 20.1035L30.5512 16.7791C30.6162 16.5365 30.6241 16.2794 30.574 16.0358C30.5256 15.8003 30.4225 15.5748 30.2758 15.3836C30.126 15.1884 29.9298 15.0274 29.7085 14.9181C29.4867 14.8086 29.239 14.7506 28.9924 14.7506Z" fill="black"/>
</svg>
