<svg width="812" height="812" viewBox="0 0 812 812" fill="none" xmlns="http://www.w3.org/2000/svg">
<path d="M137.44 667.697C137.44 667.24 137.625 666.906 138.46 665.808L143.401 659.071C143.47 658.977 143.403 658.846 143.287 658.846H138.662C138.055 658.846 137.651 658.459 137.651 657.879C137.651 657.29 138.064 656.903 138.662 656.903H144.965C145.738 656.903 146.222 657.351 146.222 658.072C146.222 658.538 146.019 658.916 145.193 660.023L140.338 666.734C140.27 666.828 140.337 666.959 140.453 666.959H145.483C146.072 666.959 146.485 667.355 146.485 667.935C146.485 668.506 146.063 668.902 145.474 668.902H138.741C137.967 668.902 137.44 668.41 137.44 667.697Z" fill="#FF00FF"/>
<path d="M191.44 667.915C191.44 667.651 191.545 667.405 191.818 667.019L194.646 663.017C194.715 662.919 194.715 662.787 194.645 662.689L191.835 658.766C191.572 658.414 191.458 658.142 191.458 657.861C191.458 657.246 191.95 656.789 192.618 656.789C193.083 656.789 193.33 656.973 193.848 657.711L196.186 661.197C196.242 661.281 196.367 661.28 196.422 661.195L198.691 657.711C199.165 656.991 199.429 656.789 199.903 656.789C200.554 656.789 201.037 657.246 201.037 657.861C201.037 658.133 200.932 658.379 200.659 658.757L197.774 662.781C197.702 662.881 197.704 663.017 197.778 663.116L200.694 667.019C200.958 667.361 201.064 667.634 201.064 667.915C201.064 668.53 200.571 668.987 199.903 668.987C199.446 668.987 199.236 668.829 198.673 668.064L196.303 664.676C196.246 664.595 196.125 664.596 196.069 664.678L193.787 668.064C193.268 668.803 193.031 668.987 192.574 668.987C191.915 668.987 191.44 668.53 191.44 667.915Z" fill="#FF00FF"/>
<path d="M245.44 663.635V662.097C245.44 658.696 247.277 656.674 250.45 656.674C251.97 656.674 253.271 657.14 254.124 657.984C254.712 658.564 255.073 659.285 255.073 659.821C255.073 660.418 254.668 660.805 254.088 660.805C253.667 660.805 253.368 660.638 252.99 660.172C252.322 659.17 251.592 658.713 250.582 658.713C248.815 658.713 247.822 659.979 247.822 662.194V663.556C247.822 665.859 248.797 667.116 250.582 667.116C251.601 667.116 252.401 666.659 253.034 665.674C253.412 665.208 253.675 665.05 254.08 665.05C254.686 665.05 255.082 665.437 255.082 666.026C255.082 666.659 254.633 667.432 253.93 668.021C253.086 668.75 251.9 669.155 250.45 669.155C247.242 669.155 245.44 667.151 245.44 663.635Z" fill="#FF00FF"/>
<path d="M304.423 665.989C304.465 666.121 304.652 666.12 304.694 665.988L307.208 657.966C307.454 657.131 307.815 656.789 308.448 656.789C309.124 656.789 309.616 657.219 309.616 657.852C309.616 658.089 309.537 658.485 309.432 658.81L306.461 667.334C306.075 668.494 305.521 668.986 304.546 668.986C303.553 668.986 302.981 668.485 302.595 667.334L299.633 658.81C299.51 658.449 299.44 658.107 299.44 657.861C299.44 657.228 299.941 656.789 300.626 656.789C301.241 656.789 301.628 657.158 301.874 657.966L304.423 665.989Z" fill="#FF00FF"/>
<path d="M360.716 662.507C360.716 662.447 360.753 662.393 360.81 662.372C361.867 661.983 362.492 661.072 362.492 659.856C362.492 658.045 361.121 656.903 358.941 656.903H355.522C354.459 656.903 353.94 657.413 353.94 658.423V667.38C353.94 668.399 354.459 668.9 355.522 668.9H358.932C361.472 668.9 363.107 667.573 363.107 665.516C363.107 664.019 362.222 662.935 360.831 662.648C360.764 662.634 360.716 662.576 360.716 662.507ZM356.295 658.829C356.295 658.751 356.359 658.687 356.437 658.687H358.396C359.504 658.687 360.154 659.285 360.154 660.26C360.154 661.306 359.451 661.895 357.86 661.895H356.437C356.359 661.895 356.295 661.832 356.295 661.753V658.829ZM358.053 667.116H356.437C356.359 667.116 356.295 667.053 356.295 666.974V663.689C356.295 663.611 356.359 663.548 356.437 663.548H358.546C359.934 663.548 360.69 664.242 360.69 665.376C360.69 666.518 359.925 667.116 358.053 667.116Z" fill="#FF00FF"/>
<path d="M410.163 667.73C410.163 668.521 409.759 668.987 409.056 668.987C408.353 668.987 407.94 668.512 407.94 667.73V658.247C407.94 657.307 408.353 656.815 409.161 656.815C409.733 656.815 410.067 657.14 410.559 657.87L415 664.633C415.078 664.751 415.26 664.696 415.26 664.556V658.072C415.26 657.281 415.665 656.815 416.368 656.815C417.071 656.815 417.493 657.29 417.493 658.072V667.607C417.493 668.503 417.088 668.987 416.333 668.987C415.761 668.987 415.427 668.749 414.909 667.967L410.424 661.125C410.346 661.007 410.163 661.062 410.163 661.202V667.73Z" fill="#FF00FF"/>
<path d="M462.995 668.987C462.3 668.987 461.94 668.556 461.94 667.73V658.335C461.94 657.377 462.476 656.797 463.328 656.797C464.093 656.797 464.541 657.158 464.954 658.239L467.688 665C467.735 665.118 467.903 665.118 467.951 665L470.675 658.23C471.089 657.14 471.528 656.797 472.31 656.797C473.18 656.797 473.681 657.36 473.681 658.335V667.73C473.681 668.538 473.294 668.987 472.6 668.987C471.915 668.987 471.554 668.556 471.554 667.73V661.448C471.554 661.292 471.34 661.25 471.281 661.394L469.041 666.886C468.716 667.712 468.355 667.976 467.819 667.976C467.274 667.976 466.914 667.695 466.589 666.886L464.348 661.394C464.29 661.25 464.075 661.292 464.075 661.448V667.73C464.075 668.538 463.689 668.987 462.995 668.987Z" fill="#FF00FF"/>
<path fill-rule="evenodd" clip-rule="evenodd" d="M522.892 658.216C522.595 657.818 522.031 657.737 521.633 658.034L516.29 662.029C516.062 662.199 515.929 662.466 515.929 662.75C515.929 663.034 516.062 663.301 516.29 663.471L521.633 667.466C522.031 667.763 522.595 667.682 522.892 667.284C523.19 666.886 523.108 666.322 522.71 666.025L518.481 662.862C518.406 662.806 518.406 662.694 518.481 662.638L522.71 659.475C523.108 659.178 523.19 658.614 522.892 658.216Z" fill="#FF00FF"/>
<path d="M518.576 685.68L518.985 683.721C519.06 683.287 519.401 683.063 519.761 683.063C520.269 683.063 520.623 683.541 520.474 684.025L519.816 685.959C519.73 686.269 519.488 686.437 519.19 686.437C518.775 686.437 518.502 686.09 518.576 685.68Z" fill="#FF00FF"/>
<path fill-rule="evenodd" clip-rule="evenodd" d="M570.108 658.216C570.406 657.818 570.969 657.737 571.367 658.034L576.71 662.029C576.938 662.199 577.071 662.466 577.071 662.75C577.071 663.034 576.938 663.301 576.71 663.471L571.367 667.466C570.969 667.763 570.406 667.682 570.108 667.284C569.81 666.886 569.892 666.322 570.29 666.025L574.519 662.862C574.594 662.806 574.594 662.694 574.519 662.638L570.29 659.475C569.892 659.178 569.81 658.614 570.108 658.216Z" fill="#FF00FF"/>
<path d="M572.533 683.919C572.533 683.392 572.967 682.958 573.494 682.958C574.027 682.958 574.461 683.392 574.461 683.919C574.461 684.452 574.027 684.887 573.494 684.887C572.967 684.887 572.533 684.452 572.533 683.919Z" fill="#FF00FF"/>
<path d="M626.576 667.68L626.985 665.721C627.06 665.287 627.401 665.063 627.761 665.063C628.269 665.063 628.623 665.541 628.474 666.025L627.816 667.959C627.73 668.269 627.488 668.437 627.19 668.437C626.775 668.437 626.502 668.09 626.576 667.68Z" fill="#FF00FF"/>
<path d="M626.533 683.919C626.533 683.392 626.967 682.958 627.494 682.958C628.027 682.958 628.461 683.392 628.461 683.919C628.461 684.452 628.027 684.887 627.494 684.887C626.967 684.887 626.533 684.452 626.533 683.919Z" fill="#FF00FF"/>
<path d="M111.54 615.006C110.89 615.006 110.44 614.606 110.44 614.016C110.44 613.776 110.5 613.506 110.65 613.056L113.68 604.386C114.06 603.266 114.59 602.806 115.6 602.806C116.61 602.806 117.12 603.266 117.5 604.386L120.52 613.056C120.64 613.436 120.7 613.726 120.7 613.966C120.7 614.596 120.25 615.006 119.58 615.006C118.94 615.006 118.57 614.676 118.33 613.856L117.69 611.916C117.67 611.856 117.62 611.816 117.56 611.816H113.56C113.5 611.816 113.44 611.856 113.43 611.916L112.79 613.856C112.54 614.686 112.19 615.006 111.56 615.006H111.54ZM114.16 610.046H116.94C117.04 610.046 117.1 609.956 117.08 609.866L115.7 605.446C115.66 605.316 115.47 605.316 115.43 605.446L114.04 609.866C114.01 609.956 114.08 610.046 114.18 610.046H114.16Z" fill="#FF00FF"/>
<path d="M164.44 612.43C164.44 611.832 164.853 611.41 165.389 611.41C165.785 611.41 166.11 611.577 166.532 612.034C167.208 612.817 168.105 613.221 169.151 613.221C170.557 613.221 171.357 612.658 171.357 611.683C171.357 610.874 170.794 610.373 169.494 610.066L167.701 609.626C165.635 609.152 164.607 608.053 164.607 606.313C164.607 604.107 166.347 602.674 169.019 602.674C170.452 602.674 171.735 603.087 172.526 603.817C173.071 604.309 173.361 604.871 173.361 605.425C173.361 605.979 172.974 606.357 172.403 606.357C172.034 606.357 171.717 606.198 171.436 605.847C170.9 605.047 170.091 604.599 169.054 604.599C167.806 604.599 167.006 605.197 167.006 606.128C167.006 606.875 167.551 607.403 168.667 607.657L170.469 608.088C172.667 608.589 173.704 609.653 173.704 611.419C173.704 613.704 171.884 615.155 169.019 615.155C167.463 615.155 166.083 614.724 165.292 613.977C164.739 613.467 164.44 612.931 164.44 612.43Z" fill="#FF00FF"/>
<path fill-rule="evenodd" clip-rule="evenodd" d="M218.94 613.379V604.423C218.94 603.404 219.467 602.903 220.522 602.903H223.317C226.824 602.903 228.678 604.977 228.678 608.906C228.678 612.825 226.824 614.9 223.317 614.9H220.522C219.467 614.9 218.94 614.399 218.94 613.379ZM221.313 612.817C221.313 612.895 221.376 612.957 221.453 612.957H223.018C225.224 612.957 226.252 611.656 226.252 608.906C226.252 606.137 225.215 604.836 223.018 604.836H221.453C221.376 604.836 221.313 604.899 221.313 604.976V612.817Z" fill="#FF00FF"/>
<path d="M274.144 614.988C273.388 614.988 272.94 614.513 272.94 613.704V604.423C272.94 603.412 273.458 602.903 274.522 602.903H279.734C280.332 602.903 280.745 603.307 280.745 603.887C280.745 604.476 280.332 604.863 279.734 604.863H275.453C275.376 604.863 275.313 604.925 275.313 605.003V608.071C275.313 608.149 275.376 608.211 275.453 608.211H279.286C279.901 608.211 280.296 608.589 280.296 609.169C280.296 609.749 279.892 610.127 279.286 610.127H275.453C275.376 610.127 275.313 610.19 275.313 610.267V613.704C275.313 614.522 274.891 614.988 274.144 614.988Z" fill="#FF00FF"/>
<path d="M326.44 609.758V608.027C326.44 604.704 328.321 602.674 331.458 602.674C332.856 602.674 334.034 603.07 334.886 603.808C335.607 604.397 336.082 605.153 336.082 605.785C336.082 606.374 335.677 606.77 335.106 606.77C334.763 606.77 334.526 606.638 334.271 606.313C333.568 605.381 332.821 604.713 331.617 604.713C329.806 604.713 328.822 605.908 328.822 608.123V609.749C328.822 611.938 329.841 613.168 331.643 613.168C333.084 613.168 334.051 612.307 334.051 611.024V610.408C334.051 610.331 333.989 610.268 333.911 610.268H332.452C331.801 610.268 331.423 609.943 331.423 609.371C331.423 608.8 331.792 608.484 332.452 608.484H334.851C335.862 608.484 336.31 608.932 336.31 609.916V610.883C336.31 613.397 334.359 615.155 331.555 615.155C328.347 615.155 326.44 613.133 326.44 609.758Z" fill="#FF00FF"/>
<path d="M389.536 614.988C388.789 614.988 388.349 614.513 388.349 613.704V609.889C388.349 609.812 388.286 609.749 388.209 609.749H383.453C383.376 609.749 383.313 609.812 383.313 609.889V613.704C383.313 614.513 382.874 614.988 382.126 614.988C381.371 614.988 380.94 614.513 380.94 613.704V604.098C380.94 603.289 381.371 602.815 382.126 602.815C382.874 602.815 383.313 603.289 383.313 604.098V607.658C383.313 607.735 383.376 607.798 383.453 607.798H388.209C388.286 607.798 388.349 607.735 388.349 607.658V604.098C388.349 603.289 388.789 602.815 389.536 602.815C390.292 602.815 390.731 603.289 390.731 604.098V613.704C390.731 614.513 390.292 614.988 389.536 614.988Z" fill="#FF00FF"/>
<path d="M439.792 604.133C439.792 603.289 440.214 602.815 440.97 602.815C441.735 602.815 442.174 603.289 442.174 604.133V611.032C442.174 613.643 440.689 615.155 438.131 615.155C436.804 615.155 435.741 614.785 435.082 614.082C434.677 613.66 434.44 613.133 434.44 612.606C434.44 611.964 434.835 611.551 435.433 611.551C435.855 611.551 436.11 611.744 436.391 612.131C436.787 612.729 437.332 613.107 438.131 613.107C439.212 613.107 439.792 612.448 439.792 611.068V604.133Z" fill="#FF00FF"/>
<path d="M497.018 614.952C496.57 614.952 496.192 614.715 495.796 614.17L492.678 609.816C492.626 609.745 492.522 609.737 492.461 609.8L491.393 610.897C491.342 610.95 491.313 611.021 491.313 611.095V613.704C491.313 614.522 490.891 614.988 490.144 614.988C489.388 614.988 488.94 614.513 488.94 613.704V604.097C488.94 603.288 489.371 602.814 490.127 602.814C490.874 602.814 491.313 603.288 491.313 604.097L491.287 607.966C491.286 608.095 491.445 608.158 491.533 608.064L495.858 603.411C496.218 603.007 496.508 602.849 496.851 602.849C497.448 602.849 497.906 603.306 497.906 603.886C497.906 604.194 497.791 604.413 497.413 604.818L494.425 608.063C494.379 608.113 494.374 608.189 494.414 608.243L497.642 612.658C498.073 613.238 498.178 613.485 498.178 613.819C498.178 614.487 497.703 614.952 497.018 614.952Z" fill="#FF00FF"/>
<path d="M550.542 613.889C550.542 614.495 550.103 614.9 549.479 614.9H544.522C543.458 614.9 542.94 614.399 542.94 613.379V604.098C542.94 603.289 543.371 602.815 544.126 602.815C544.874 602.815 545.313 603.289 545.313 604.098V612.738C545.313 612.815 545.376 612.878 545.453 612.878H549.479C550.103 612.878 550.542 613.291 550.542 613.889Z" fill="#FF00FF"/>
<path d="M599.539 607.715C599.539 607.188 599.973 606.753 600.5 606.753C601.027 606.753 601.461 607.188 601.461 607.715C601.461 608.242 601.027 608.676 600.5 608.676C599.973 608.676 599.539 608.242 599.539 607.715ZM599.539 611.919C599.539 611.392 599.973 610.958 600.5 610.958C601.027 610.958 601.461 611.392 601.461 611.919C601.461 612.452 601.027 612.886 600.5 612.886C599.973 612.886 599.539 612.452 599.539 611.919Z" fill="#FF00FF"/>
<path d="M599.539 625.715C599.539 625.188 599.973 624.753 600.5 624.753C601.033 624.753 601.461 625.188 601.461 625.715C601.461 626.242 601.033 626.676 600.5 626.676C599.973 626.676 599.539 626.242 599.539 625.715ZM599.341 631.941L599.75 629.975C599.818 629.566 600.147 629.324 600.513 629.324C601.015 629.324 601.381 629.826 601.238 630.279L600.581 632.213C600.494 632.523 600.246 632.691 599.954 632.691C599.533 632.691 599.266 632.319 599.341 631.941Z" fill="#FF00FF"/>
<path d="M655.089 609.361L654.971 607.519C654.94 607.097 655.251 606.75 655.697 606.75C656.144 606.75 656.447 607.103 656.416 607.519L656.299 609.361C656.274 609.714 656.026 610.006 655.691 610.006C655.356 610.006 655.108 609.714 655.089 609.361ZM652.677 609.361L652.559 607.519C652.528 607.097 652.844 606.75 653.285 606.75C653.731 606.75 654.035 607.103 654.004 607.519L653.886 609.361C653.861 609.714 653.613 610.006 653.279 610.006C652.944 610.006 652.696 609.714 652.677 609.361Z" fill="#FF00FF"/>
<path d="M653.874 627.361L653.762 625.519C653.731 625.097 654.035 624.75 654.494 624.75C654.946 624.75 655.244 625.103 655.219 625.519L655.108 627.361C655.083 627.714 654.822 628.012 654.487 628.012C654.153 628.012 653.892 627.714 653.874 627.361Z" fill="#FF00FF"/>
<path fill-rule="evenodd" clip-rule="evenodd" d="M105.518 562.271C105.043 562.271 104.674 562.025 104.279 561.462L103.901 560.948C103.864 560.898 103.8 560.879 103.741 560.898C103.238 561.062 102.673 561.155 102.046 561.155C98.812 561.155 96.9399 559.115 96.9399 555.74V554.176C96.9399 550.757 98.856 548.674 102.046 548.674C105.202 548.674 107.153 550.757 107.153 554.176V555.74C107.153 557.477 106.666 558.794 105.805 559.689C105.757 559.739 105.75 559.816 105.791 559.872L106.151 560.372C106.432 560.785 106.494 561.005 106.494 561.278C106.494 561.831 106.098 562.271 105.518 562.271ZM99.313 555.855C99.313 557.964 100.315 559.23 101.95 559.282C102.158 559.282 102.361 559.252 102.547 559.194C102.634 559.167 102.662 559.063 102.608 558.99L102.407 558.72C102.257 558.491 102.152 558.237 102.152 557.99C102.152 557.472 102.53 557.085 103.057 557.085C103.338 557.085 103.593 557.208 103.848 557.507L104.078 557.831C104.133 557.909 104.249 557.91 104.3 557.829C104.601 557.346 104.771 556.745 104.771 555.855V554.167C104.771 551.979 103.646 550.66 102.046 550.66C100.35 550.66 99.313 551.979 99.313 554.167V555.855Z" fill="#FF00FF"/>
<path d="M151.94 559.678L149.453 550.775C149.374 550.476 149.33 550.151 149.33 549.957C149.33 549.272 149.822 548.788 150.525 548.788C151.167 548.788 151.562 549.219 151.765 550.124L153.4 557.27C153.433 557.415 153.64 557.417 153.676 557.271L155.421 550.115C155.641 549.193 156.027 548.788 156.73 548.788C157.442 548.788 157.838 549.21 158.057 550.115L159.801 557.267C159.837 557.413 160.045 557.411 160.077 557.264L161.67 550.124C161.863 549.237 162.276 548.788 162.927 548.788C163.621 548.788 164.104 549.263 164.104 549.94C164.104 550.142 164.069 550.458 164.016 550.66L161.529 559.678C161.274 560.592 160.87 560.952 160.14 560.952C159.376 560.952 158.91 560.565 158.664 559.625L156.872 552.851C156.835 552.711 156.635 552.711 156.598 552.852L154.806 559.678C154.577 560.539 154.102 560.952 153.373 560.952C152.652 560.952 152.213 560.645 151.94 559.678Z" fill="#FF00FF"/>
<path d="M205.44 559.379V550.423C205.44 549.412 205.958 548.903 207.022 548.903H212.331C212.928 548.903 213.333 549.298 213.333 549.878C213.333 550.458 212.928 550.845 212.331 550.845H207.935C207.858 550.845 207.795 550.908 207.795 550.985V553.781C207.795 553.858 207.858 553.921 207.935 553.921H212.084C212.647 553.921 213.025 554.281 213.025 554.835C213.025 555.389 212.647 555.74 212.084 555.74H207.935C207.858 555.74 207.795 555.803 207.795 555.88V558.817C207.795 558.895 207.858 558.957 207.935 558.957H212.304C212.928 558.957 213.333 559.344 213.333 559.933C213.333 560.522 212.928 560.9 212.304 560.9H207.022C205.958 560.9 205.44 560.399 205.44 559.379Z" fill="#FF00FF"/>
<path fill-rule="evenodd" clip-rule="evenodd" d="M261.813 559.704C261.813 560.513 261.382 560.988 260.635 560.988C259.879 560.988 259.44 560.513 259.44 559.704V550.713C259.44 549.465 259.985 548.903 261.233 548.903H264.3C266.867 548.903 268.458 550.309 268.458 552.576C268.458 554.042 267.73 555.222 266.481 555.809C266.406 555.845 266.374 555.936 266.414 556.008L268.08 559.063C268.211 559.3 268.291 559.599 268.291 559.854C268.291 560.495 267.79 560.952 267.113 560.952C266.489 560.952 266.155 560.689 265.759 559.915L264.07 556.588C264.023 556.494 263.926 556.435 263.821 556.435H261.953C261.876 556.435 261.813 556.497 261.813 556.575V559.704ZM261.813 554.519C261.813 554.597 261.876 554.659 261.953 554.659H263.958C265.302 554.659 266.076 553.991 266.076 552.761C266.076 551.539 265.293 550.845 263.984 550.845H261.953C261.876 550.845 261.813 550.908 261.813 550.985V554.519Z" fill="#FF00FF"/>
<path d="M318.186 560.988C317.448 560.988 317 560.513 317 559.722V551.038C317 550.96 316.937 550.898 316.86 550.898H314.459C313.871 550.898 313.44 550.476 313.44 549.905C313.44 549.324 313.871 548.903 314.459 548.903H321.921C322.519 548.903 322.941 549.316 322.941 549.905C322.941 550.485 322.519 550.898 321.921 550.898H319.513C319.435 550.898 319.373 550.96 319.373 551.038V559.722C319.373 560.504 318.916 560.988 318.186 560.988Z" fill="#FF00FF"/>
<path d="M371.643 560.989C370.904 560.989 370.43 560.497 370.447 559.776L370.482 556.191C370.482 556.138 370.468 556.087 370.44 556.041L367.309 550.88C367.037 550.423 366.94 550.16 366.94 549.87C366.94 549.219 367.379 548.788 368.039 548.788C368.549 548.788 368.883 549.043 369.225 549.694L371.51 553.856C371.564 553.953 371.704 553.954 371.758 553.856L374.077 549.694C374.42 549.07 374.781 548.788 375.273 548.788C375.897 548.788 376.345 549.228 376.345 549.834C376.345 550.124 376.231 550.406 375.932 550.916L372.827 556.041C372.8 556.087 372.786 556.138 372.786 556.191L372.82 559.776C372.838 560.497 372.363 560.989 371.643 560.989Z" fill="#FF00FF"/>
<path d="M431.134 556.769C431.134 559.423 429.218 561.155 426.292 561.155C423.259 561.155 421.44 559.406 421.44 556.751V550.08C421.44 549.289 421.888 548.815 422.626 548.815C423.365 548.815 423.822 549.289 423.822 550.08V556.523C423.822 558.14 424.753 559.115 426.292 559.115C427.812 559.115 428.752 558.122 428.752 556.523V550.08C428.752 549.289 429.201 548.815 429.939 548.815C430.677 548.815 431.134 549.289 431.134 550.08V556.769Z" fill="#FF00FF"/>
<path d="M476.635 560.988C475.879 560.988 475.44 560.513 475.44 559.704V550.098C475.44 549.289 475.871 548.815 476.626 548.815C477.374 548.815 477.813 549.289 477.813 550.098V559.704C477.813 560.513 477.382 560.988 476.635 560.988Z" fill="#FF00FF"/>
<path d="M528.94 555.74V554.176C528.94 550.757 530.856 548.674 534.038 548.674C537.237 548.674 539.135 550.757 539.135 554.176V555.74C539.135 559.115 537.237 561.155 534.038 561.155C530.821 561.155 528.94 559.115 528.94 555.74ZM531.313 554.167V555.732C531.313 557.894 532.341 559.168 534.038 559.168C535.734 559.168 536.762 557.894 536.762 555.732V554.167C536.762 551.979 535.734 550.66 534.038 550.66C532.341 550.66 531.313 551.979 531.313 554.167Z" fill="#FF00FF"/>
<path fill-rule="evenodd" clip-rule="evenodd" d="M584.618 560.988C583.871 560.988 583.44 560.513 583.44 559.704V550.634C583.44 549.386 583.915 548.903 585.154 548.903H588.186C590.682 548.903 592.291 550.467 592.291 552.84C592.291 555.319 590.665 556.786 588.089 556.786H585.953C585.876 556.786 585.813 556.849 585.813 556.926V559.704C585.813 560.513 585.374 560.988 584.618 560.988ZM585.813 554.801C585.813 554.878 585.876 554.941 585.953 554.941H587.333C589.179 554.941 589.926 554.405 589.926 552.875C589.926 551.557 589.188 550.801 587.887 550.801H585.953C585.876 550.801 585.813 550.864 585.813 550.941V554.801Z" fill="#FF00FF"/>
<path d="M639.97 558.489V557.019C639.97 556.079 639.66 555.969 639.33 555.869C639.04 555.779 638.78 555.599 638.78 555.129C638.78 554.619 639.08 554.449 639.35 554.369C639.65 554.279 639.97 554.159 639.97 553.229V551.999C639.97 550.409 640.86 549.839 642.14 549.839C642.66 549.839 643.1 549.929 643.1 550.469C643.1 550.829 642.91 550.959 642.51 551.039C642.03 551.139 641.52 551.179 641.52 552.249V553.679C641.52 554.359 641.28 554.799 640.83 555.009C640.72 555.059 640.72 555.209 640.83 555.269C641.29 555.499 641.53 555.979 641.53 556.659V558.269C641.53 559.349 642.04 559.389 642.52 559.479C642.92 559.559 643.11 559.689 643.11 560.039C643.11 560.369 642.85 560.639 642.52 560.659C641.04 560.779 639.98 560.229 639.98 558.489H639.97Z" fill="#FF00FF"/>
<path d="M639.686 577.705V568.819C639.686 568.186 640.058 567.839 640.696 567.839H642.439C642.867 567.839 643.102 568.081 643.102 568.453C643.102 568.819 642.867 569.06 642.439 569.06H641.388C641.311 569.06 641.248 569.123 641.248 569.2V577.323C641.248 577.4 641.311 577.463 641.388 577.463H642.439C642.867 577.463 643.102 577.705 643.102 578.077C643.102 578.443 642.867 578.685 642.439 578.685H640.696C640.058 578.685 639.686 578.337 639.686 577.705Z" fill="#FF00FF"/>
<path d="M696.03 558.499V557.029C696.03 556.089 696.34 555.979 696.67 555.879C696.96 555.789 697.22 555.609 697.22 555.139C697.22 554.629 696.92 554.459 696.65 554.379C696.35 554.289 696.03 554.169 696.03 553.239V552.009C696.03 550.419 695.14 549.849 693.86 549.849C693.34 549.849 692.9 549.939 692.9 550.479C692.9 550.839 693.09 550.969 693.49 551.049C693.97 551.149 694.48 551.189 694.48 552.259V553.689C694.48 554.369 694.72 554.809 695.17 555.019C695.28 555.069 695.28 555.219 695.17 555.279C694.71 555.509 694.47 555.989 694.47 556.669V558.279C694.47 559.359 693.96 559.399 693.48 559.489C693.08 559.569 692.89 559.699 692.89 560.049C692.89 560.379 693.15 560.649 693.48 560.669C694.96 560.789 696.02 560.239 696.02 558.499H696.03Z" fill="#FF00FF"/>
<path d="M692.904 578.077C692.904 577.705 693.133 577.463 693.561 577.463H694.618C694.695 577.463 694.758 577.4 694.758 577.323V569.2C694.758 569.123 694.695 569.06 694.618 569.06H693.561C693.133 569.06 692.904 568.819 692.904 568.453C692.904 568.081 693.133 567.839 693.561 567.839H695.304C695.949 567.839 696.321 568.186 696.321 568.819V577.705C696.321 578.337 695.949 578.685 695.304 578.685H693.561C693.133 578.685 692.904 578.443 692.904 578.077Z" fill="#FF00FF"/>
<path d="M748.262 559.928V550.595C748.262 550.044 748.585 549.777 749 549.777C749.416 549.777 749.738 550.044 749.738 550.595V559.928C749.738 560.48 749.416 560.747 749 560.747C748.585 560.747 748.262 560.48 748.262 559.928Z" fill="#FF00FF"/>
<path d="M749.657 578.226L746.978 568.732C746.96 568.676 746.941 568.577 746.941 568.484C746.929 568.099 747.245 567.777 747.648 567.777C747.983 567.777 748.256 567.975 748.349 568.298L751.022 577.798C751.04 577.848 751.059 577.953 751.065 578.04C751.071 578.424 750.761 578.747 750.352 578.747C750.017 578.747 749.744 578.548 749.657 578.226Z" fill="#FF00FF"/>
<path d="M23.8882 497.935C23.8882 498.835 23.0632 499.915 21.6832 499.915C20.4982 499.915 19.1932 498.895 18.4282 498.895C17.6032 498.895 17.3932 499.795 16.7632 499.795C16.2832 499.795 16.1182 499.42 16.1182 499.075C16.1182 498.175 16.9432 497.095 18.2332 497.095C19.5082 497.095 20.8132 498.115 21.5782 498.115C22.4032 498.115 22.6132 497.215 23.2432 497.215C23.7232 497.215 23.8882 497.59 23.8882 497.935Z" fill="#FF00FF"/>
<path d="M19.9219 518.895L18.7695 517.576C18.6426 517.42 18.5645 517.205 18.5645 516.98C18.5645 516.492 18.9648 516.082 19.4531 516.082C19.707 516.082 19.9609 516.15 20.1953 516.492L21.123 517.898C21.2109 518.035 21.2891 518.201 21.2891 518.377C21.2891 518.816 20.9277 519.178 20.5176 519.178C20.2734 519.178 20.0684 519.061 19.9219 518.895Z" fill="#FF00FF"/>
<path d="M73.2561 501.29L73.1258 496.918C73.1072 496.434 73.4855 496.043 74.0002 496.043C74.5149 496.043 74.8994 496.434 74.8808 496.918L74.7319 501.29C74.7133 501.705 74.3971 501.997 74.0002 501.997C73.5909 501.997 73.2685 501.693 73.2561 501.29ZM73.0576 504C73.0576 503.485 73.4793 503.125 73.994 503.125C74.5149 503.125 74.9366 503.485 74.9366 504C74.9366 504.514 74.5149 504.874 73.994 504.874C73.4793 504.874 73.0576 504.514 73.0576 504Z" fill="#FF00FF"/>
<path d="M73.9471 521.919V516.149C73.9471 516.029 73.8171 515.969 73.7271 516.029L73.0671 516.499C72.8271 516.659 72.6771 516.719 72.5171 516.729C72.1671 516.749 71.8871 516.509 71.8671 516.159C71.8571 515.889 72.0171 515.649 72.3471 515.429L73.4571 514.659C73.9071 514.359 74.2571 514.229 74.6071 514.229C75.2071 514.229 75.6071 514.649 75.6071 515.269V521.919C75.6071 522.489 75.3071 522.819 74.7771 522.819C74.2471 522.819 73.9571 522.489 73.9571 521.919H73.9471Z" fill="#FF00FF"/>
<path d="M128.589 501.361L128.471 499.519C128.44 499.097 128.751 498.75 129.197 498.75C129.644 498.75 129.947 499.103 129.916 499.519L129.799 501.361C129.774 501.714 129.526 502.006 129.191 502.006C128.856 502.006 128.608 501.714 128.589 501.361ZM126.177 501.361L126.059 499.519C126.028 499.097 126.344 498.75 126.785 498.75C127.231 498.75 127.535 499.103 127.504 499.519L127.386 501.361C127.361 501.714 127.113 502.006 126.779 502.006C126.444 502.006 126.196 501.714 126.177 501.361Z" fill="#FF00FF"/>
<path d="M125.206 522.004C125.206 521.684 125.376 521.424 125.896 520.884L128.206 518.394C128.886 517.664 129.156 517.194 129.156 516.674C129.156 515.964 128.646 515.494 127.876 515.494C127.246 515.494 126.776 515.844 126.536 516.494C126.336 516.884 126.116 517.054 125.786 517.044C125.416 517.034 125.116 516.714 125.116 516.324C125.116 515.214 126.306 514.124 127.976 514.124C129.646 514.124 130.796 515.134 130.796 516.534C130.796 517.384 130.416 518.084 129.356 519.204L127.536 521.154C127.456 521.244 127.516 521.394 127.636 521.394H130.296C130.776 521.394 131.076 521.654 131.076 522.084C131.076 522.514 130.786 522.764 130.296 522.764H126.106C125.556 522.764 125.206 522.464 125.206 522.014V522.004Z" fill="#FF00FF"/>
<path fill-rule="evenodd" clip-rule="evenodd" d="M179.531 505.079C179.911 505.014 180.179 504.666 180.179 504.28V499.755C180.179 499.615 180.361 499.56 180.439 499.677L183.757 504.669C183.959 504.958 184.28 505.146 184.659 505.076C185.084 504.997 185.381 504.608 185.381 504.176V497.307C185.381 496.917 185.11 496.566 184.725 496.501C184.24 496.419 183.812 496.8 183.812 497.271V501.803C183.812 501.943 183.63 501.998 183.552 501.882L180.216 496.868C180.027 496.602 179.719 496.439 179.374 496.485C178.93 496.545 178.61 496.944 178.61 497.392V504.309C178.61 504.781 179.047 505.162 179.531 505.079ZM186.938 502.474C186.603 502.474 186.337 502.207 186.337 501.879C186.337 501.551 186.604 501.278 186.938 501.278H189.431C189.76 501.278 190.032 501.545 190.032 501.879C190.032 502.213 189.759 502.474 189.431 502.474H186.938ZM188.166 499.448C188.656 499.448 188.935 499.064 188.935 498.412C188.935 497.76 188.644 497.395 188.166 497.395C187.688 497.395 187.416 497.792 187.416 498.412C187.416 499.063 187.695 499.448 188.166 499.448ZM188.166 500.428C187 500.428 186.207 499.616 186.207 498.419C186.207 497.222 186.994 496.409 188.166 496.409C189.338 496.409 190.15 497.221 190.15 498.418C190.15 499.615 189.35 500.427 188.166 500.427V500.428Z" fill="#FF00FF"/>
<path d="M178.995 520.964C178.995 520.574 179.275 520.284 179.655 520.284C179.925 520.284 180.135 520.414 180.365 520.754C180.725 521.324 181.275 521.624 181.975 521.624C182.905 521.624 183.505 521.124 183.505 520.354C183.505 519.584 182.895 519.064 181.975 519.064H181.365C180.995 519.064 180.725 518.784 180.725 518.404C180.725 518.024 180.995 517.754 181.365 517.754H181.945C182.705 517.754 183.265 517.254 183.265 516.574C183.265 515.894 182.715 515.424 181.935 515.424C181.325 515.424 180.845 515.714 180.515 516.264C180.325 516.574 180.115 516.704 179.825 516.704C179.425 516.704 179.145 516.424 179.145 516.024C179.145 515.034 180.345 514.124 181.955 514.124C183.665 514.124 184.865 515.044 184.865 516.374C184.865 517.124 184.405 517.854 183.775 518.164C183.665 518.224 183.665 518.374 183.785 518.414C184.575 518.704 185.125 519.504 185.125 520.414C185.125 521.894 183.815 522.934 181.945 522.934C180.275 522.934 178.985 521.994 178.985 520.964H178.995Z" fill="#FF00FF"/>
<path d="M235.039 499.715C235.039 499.188 235.473 498.753 236 498.753C236.533 498.753 236.961 499.188 236.961 499.715C236.961 500.242 236.533 500.676 236 500.676C235.473 500.676 235.039 500.242 235.039 499.715ZM234.841 505.941L235.25 503.975C235.318 503.566 235.647 503.324 236.013 503.324C236.515 503.324 236.881 503.826 236.738 504.279L236.081 506.213C235.994 506.523 235.746 506.691 235.454 506.691C235.033 506.691 234.766 506.319 234.841 505.941Z" fill="#FF00FF"/>
<path d="M234.445 519.817H236.665C236.745 519.817 236.805 519.757 236.805 519.677V515.957C236.805 515.817 236.625 515.757 236.545 515.877C235.845 516.997 234.695 518.967 234.325 519.607C234.275 519.697 234.345 519.817 234.445 519.817ZM236.805 521.977V521.327C236.805 521.247 236.745 521.187 236.665 521.187H233.715C233.085 521.187 232.695 520.847 232.695 520.267C232.695 519.997 232.765 519.757 232.995 519.287C233.705 517.947 234.365 516.817 235.465 515.187C235.985 514.427 236.385 514.167 237.025 514.167C237.865 514.167 238.365 514.617 238.365 515.347V519.667C238.365 519.747 238.425 519.807 238.505 519.807H238.775C239.225 519.807 239.495 520.077 239.495 520.497C239.495 520.917 239.225 521.167 238.775 521.167H238.505C238.425 521.167 238.365 521.227 238.365 521.307V521.957C238.365 522.487 238.065 522.807 237.575 522.807C237.085 522.807 236.795 522.487 236.795 521.957L236.805 521.977Z" fill="#FF00FF"/>
<path d="M285.591 498.27V498.028C285.591 496.844 286.261 496.037 287.352 496.037C288.443 496.037 289.088 496.831 289.088 498.028V498.27C289.088 499.411 288.437 500.267 287.321 500.267C286.242 500.267 285.591 499.46 285.591 498.27ZM286.614 504.086L289.659 500.167L292.536 496.403C292.722 496.149 292.958 496.124 293.156 496.217C293.355 496.261 293.497 496.428 293.504 496.633C293.51 496.769 293.454 496.906 293.348 497.042L290.477 500.75L287.426 504.731C287.234 504.986 286.992 504.998 286.8 504.911C286.626 504.874 286.471 504.713 286.465 504.527C286.453 504.39 286.502 504.235 286.614 504.086ZM286.763 498.059V498.239C286.763 498.94 286.986 499.299 287.34 499.299C287.687 499.299 287.91 498.94 287.91 498.239V498.059C287.91 497.358 287.687 497.005 287.34 497.005C286.986 497.005 286.763 497.358 286.763 498.059ZM290.911 502.852V502.611C290.911 501.426 291.587 500.62 292.679 500.62C293.77 500.62 294.409 501.414 294.409 502.611V502.852C294.409 503.993 293.758 504.855 292.648 504.855C291.563 504.855 290.911 504.043 290.911 502.852ZM292.083 502.642V502.821C292.083 503.522 292.313 503.888 292.66 503.888C293.007 503.888 293.237 503.522 293.237 502.821V502.642C293.237 501.947 293.014 501.587 292.66 501.587C292.307 501.587 292.083 501.941 292.083 502.642Z" fill="#FF00FF"/>
<path d="M287.042 521.029C287.042 520.609 287.312 520.289 287.722 520.289C287.982 520.289 288.182 520.399 288.382 520.689C288.762 521.259 289.252 521.549 289.862 521.559C290.742 521.579 291.422 521.019 291.492 520.139C291.572 519.149 290.912 518.449 289.972 518.449C289.552 518.449 289.132 518.609 288.772 518.889C288.402 519.199 288.222 519.269 287.992 519.269C287.482 519.269 287.132 518.899 287.172 518.329L287.412 515.149C287.452 514.559 287.812 514.279 288.492 514.279H292.002C292.502 514.279 292.792 514.529 292.792 514.969C292.792 515.409 292.502 515.649 292.002 515.649H288.922C288.852 515.649 288.782 515.709 288.782 515.779L288.642 517.549C288.632 517.679 288.772 517.749 288.872 517.659C289.242 517.329 289.852 517.169 290.412 517.169C292.022 517.169 293.132 518.289 293.132 519.919C293.132 521.719 291.832 522.929 289.912 522.929C288.232 522.929 287.042 521.979 287.042 521.029Z" fill="#FF00FF"/>
<path d="M343.039 499.715C343.039 499.188 343.473 498.753 344 498.753C344.527 498.753 344.961 499.188 344.961 499.715C344.961 500.242 344.527 500.676 344 500.676C343.473 500.676 343.039 500.242 343.039 499.715ZM343.039 503.919C343.039 503.392 343.473 502.958 344 502.958C344.527 502.958 344.961 503.392 344.961 503.919C344.961 504.452 344.527 504.886 344 504.886C343.473 504.886 343.039 504.452 343.039 503.919Z" fill="#FF00FF"/>
<path d="M341 519.27C341 516.37 342.23 514.75 344.44 514.75C345.18 514.75 345.87 514.94 346.38 515.28C346.81 515.57 347.07 515.96 347.07 516.28C347.07 516.65 346.8 516.91 346.42 516.91C346.19 516.91 346.02 516.84 345.73 516.61C345.3 516.24 344.92 516.08 344.44 516.08C343.427 516.08 342.746 516.832 342.609 518.495C342.599 518.624 342.752 518.699 342.847 518.611C343.176 518.306 343.809 517.86 344.7 517.86C346.26 517.86 347.35 518.98 347.35 520.6C347.35 522.369 346.12 523.549 344.28 523.549C343.2 523.549 342.33 523.129 341.77 522.329C341.26 521.62 341 520.58 341 519.27ZM342.77 520.65C342.77 521.569 343.4 522.229 344.28 522.229C345.16 522.229 345.74 521.599 345.74 520.66C345.74 519.72 345.14 519.11 344.26 519.11C343.38 519.11 342.77 519.75 342.77 520.65Z" fill="#FF00FF"/>
<path d="M396.965 501.55C396.965 500.819 397.256 500.403 398.093 499.746C398.695 499.274 399.029 498.977 399.029 498.431C399.029 497.823 398.49 497.42 397.808 497.42C397.213 497.42 396.803 497.65 396.506 498.158C396.313 498.413 396.165 498.53 395.904 498.53C395.513 498.53 395.296 498.251 395.296 497.91C395.296 497.501 395.538 497.067 395.91 496.738C396.363 496.354 397.039 496.124 397.919 496.124C399.55 496.124 400.685 496.974 400.685 498.357C400.685 499.318 400.158 499.845 399.364 500.434C398.763 500.893 398.558 501.11 398.416 501.631C398.261 501.997 398.099 502.245 397.665 502.245C397.213 502.245 396.965 501.947 396.965 501.55ZM396.729 504C396.729 503.485 397.151 503.125 397.665 503.125C398.18 503.125 398.608 503.485 398.608 504C398.608 504.514 398.18 504.874 397.665 504.874C397.151 504.874 396.729 504.514 396.729 504Z" fill="#FF00FF"/>
<path d="M396.166 522.095C396.166 521.925 396.226 521.765 396.316 521.585L399.146 515.855C399.196 515.765 399.126 515.655 399.016 515.655H395.746C395.226 515.655 394.936 515.385 394.936 514.975C394.936 514.565 395.226 514.285 395.746 514.285H400.086C400.586 514.285 400.946 514.615 400.946 515.125C400.946 515.445 400.836 515.805 400.606 516.265L397.686 522.315C397.506 522.665 397.286 522.845 396.936 522.845C396.496 522.845 396.156 522.545 396.156 522.095H396.166Z" fill="#FF00FF"/>
<path d="M451.998 502.126C451.602 502.126 451.296 501.82 451.314 501.37L451.328 500.669C451.33 500.559 451.21 500.49 451.116 500.546L450.522 500.902C450.378 500.992 450.216 501.028 450.072 501.028C449.712 501.028 449.424 500.74 449.424 500.362C449.424 500.074 449.568 499.858 449.838 499.714L450.44 499.387C450.538 499.334 450.538 499.194 450.44 499.141L449.838 498.814C449.568 498.67 449.424 498.454 449.424 498.166C449.424 497.788 449.712 497.5 450.072 497.5C450.216 497.5 450.378 497.536 450.522 497.626L451.114 497.994C451.208 498.053 451.33 497.984 451.328 497.873L451.314 497.158C451.296 496.708 451.602 496.402 451.998 496.402C452.394 496.402 452.7 496.708 452.682 497.158L452.656 497.87C452.652 497.981 452.773 498.053 452.869 497.995L453.474 497.626C453.618 497.536 453.78 497.5 453.924 497.5C454.284 497.5 454.572 497.788 454.572 498.166C454.572 498.454 454.428 498.67 454.158 498.814L453.545 499.14C453.446 499.193 453.446 499.335 453.545 499.388L454.158 499.714C454.428 499.858 454.572 500.074 454.572 500.362C454.572 500.74 454.284 501.028 453.924 501.028C453.78 501.028 453.618 500.992 453.474 500.902L452.867 500.545C452.771 500.489 452.652 500.561 452.656 500.671L452.682 501.37C452.7 501.82 452.394 502.126 451.998 502.126Z" fill="#FF00FF"/>
<path d="M451.984 522.924C450.034 522.924 448.724 521.934 448.724 520.444C448.724 519.524 449.264 518.724 450.114 518.404C450.224 518.364 450.234 518.204 450.124 518.144C449.444 517.794 449.054 517.144 449.054 516.364C449.064 515.044 450.274 514.124 452.004 514.124C453.734 514.124 454.944 515.044 454.944 516.364C454.944 517.134 454.544 517.794 453.864 518.144C453.754 518.204 453.764 518.354 453.874 518.404C454.724 518.734 455.274 519.534 455.274 520.444C455.274 521.924 453.944 522.934 451.984 522.934V522.924ZM452.004 517.764C452.784 517.764 453.344 517.254 453.344 516.544C453.344 515.834 452.784 515.344 452.004 515.344C451.224 515.344 450.664 515.844 450.664 516.544C450.664 517.244 451.224 517.764 452.004 517.764ZM452.004 521.724C452.944 521.724 453.614 521.134 453.614 520.334C453.614 519.534 452.934 518.934 452.004 518.934C451.074 518.934 450.394 519.524 450.394 520.334C450.394 521.144 451.064 521.724 452.004 521.724Z" fill="#FF00FF"/>
<path d="M506.341 506.319C506.019 505.903 504.847 504.242 504.847 501.191C504.847 498.245 506.019 496.583 506.341 496.168C506.595 495.845 506.825 495.758 507.023 495.758C507.395 495.758 507.65 496.006 507.65 496.341C507.65 496.54 507.581 496.701 507.501 496.881C507.104 497.736 506.509 499.15 506.509 501.191C506.509 503.336 507.104 504.75 507.501 505.606C507.581 505.786 507.65 505.947 507.65 506.145C507.65 506.48 507.395 506.728 507.023 506.728C506.825 506.728 506.595 506.641 506.341 506.319Z" fill="#FF00FF"/>
<path d="M509.218 518.392C509.218 521.291 507.988 522.911 505.778 522.911C505.038 522.911 504.348 522.721 503.838 522.381C503.408 522.091 503.148 521.701 503.148 521.381C503.148 521.011 503.418 520.751 503.798 520.751C504.028 520.751 504.198 520.821 504.488 521.051C504.918 521.421 505.298 521.581 505.778 521.581C506.791 521.581 507.472 520.829 507.608 519.166C507.619 519.037 507.465 518.963 507.371 519.05C507.042 519.355 506.409 519.801 505.518 519.801C503.958 519.801 502.868 518.682 502.868 517.062C502.868 515.292 504.098 514.112 505.938 514.112C507.018 514.112 507.888 514.532 508.448 515.332C508.958 516.042 509.218 517.082 509.218 518.392ZM507.448 517.012C507.448 516.092 506.818 515.432 505.938 515.432C505.058 515.432 504.478 516.062 504.478 517.002C504.478 517.942 505.078 518.552 505.958 518.552C506.838 518.552 507.448 517.912 507.448 517.012Z" fill="#FF00FF"/>
<path d="M559.659 506.319C559.405 506.641 559.182 506.728 558.977 506.728C558.611 506.728 558.351 506.48 558.351 506.145C558.351 505.947 558.419 505.786 558.499 505.606C558.902 504.75 559.492 503.336 559.492 501.191C559.492 499.15 558.902 497.736 558.499 496.881C558.419 496.701 558.351 496.54 558.351 496.341C558.351 496.006 558.611 495.758 558.977 495.758C559.182 495.758 559.405 495.845 559.659 496.168C559.988 496.583 561.16 498.245 561.16 501.191C561.16 504.242 559.988 505.903 559.659 506.319Z" fill="#FF00FF"/>
<path d="M556.769 518.726V518.329C556.769 515.786 557.984 514.124 560 514.124C562.021 514.124 563.212 515.768 563.212 518.329V518.726C563.212 521.262 561.984 522.93 559.975 522.93C557.966 522.93 556.769 521.28 556.769 518.726ZM558.443 518.335V518.713C558.443 520.499 559.026 521.566 559.987 521.566C560.949 521.566 561.532 520.499 561.532 518.713V518.335C561.532 516.555 560.949 515.489 559.987 515.489C559.026 515.489 558.443 516.549 558.443 518.335Z" fill="#FF00FF"/>
<path d="M610.515 505.015C610.515 504.637 610.788 504.389 611.259 504.389H616.735C617.212 504.389 617.485 504.637 617.485 505.015C617.485 505.393 617.212 505.635 616.735 505.635H611.259C610.788 505.635 610.515 505.399 610.515 505.015Z" fill="#FF00FF"/>
<path d="M611.836 519.277C611.836 518.837 612.14 518.552 612.673 518.552H615.315C615.848 518.552 616.146 518.837 616.146 519.271C616.146 519.711 615.848 520.003 615.315 520.003H612.673C612.134 520.003 611.836 519.711 611.836 519.277Z" fill="#FF00FF"/>
<path d="M668.682 504.062C668.682 504.508 668.397 504.793 667.981 504.793C667.566 504.793 667.281 504.508 667.281 504.062V502.137C667.281 502.059 667.218 501.997 667.141 501.997H665.383C664.937 501.997 664.651 501.724 664.651 501.308C664.651 500.899 664.937 500.62 665.383 500.62H667.141C667.218 500.62 667.281 500.557 667.281 500.48V498.642C667.281 498.202 667.56 497.91 667.981 497.91C668.397 497.91 668.682 498.202 668.682 498.642V500.48C668.682 500.557 668.745 500.62 668.822 500.62H670.604C671.057 500.62 671.342 500.893 671.342 501.308C671.342 501.724 671.057 501.997 670.604 501.997H668.822C668.745 501.997 668.682 502.059 668.682 502.137V504.062Z" fill="#FF00FF"/>
<path d="M665.011 518.025C665.011 517.634 665.278 517.38 665.755 517.38H670.245C670.723 517.38 670.995 517.634 670.995 518.025C670.995 518.415 670.723 518.676 670.245 518.676H665.755C665.278 518.676 665.011 518.415 665.011 518.025ZM665.011 520.642C665.011 520.251 665.278 519.997 665.755 519.997H670.245C670.723 519.997 670.995 520.245 670.995 520.642C670.995 521.032 670.723 521.293 670.245 521.293H665.755C665.278 521.293 665.011 521.032 665.011 520.642Z" fill="#FF00FF"/>
<path fill-rule="evenodd" clip-rule="evenodd" d="M27.3629 442.15C27.3982 442.078 27.4459 442.012 27.5049 441.955C27.6382 441.825 27.817 441.754 28 441.754C28.183 441.754 28.3618 441.825 28.4951 441.955C28.5541 442.012 28.6018 442.078 28.6371 442.15L28.6392 442.154C28.6451 442.166 28.6521 442.181 28.66 442.198C28.6758 442.232 28.6951 442.278 28.7166 442.334C28.7597 442.447 28.8113 442.604 28.8611 442.81C28.9605 443.223 29.0516 443.831 29.0516 444.668C29.0516 445.47 28.9954 447.308 28.9401 448.931C28.9123 449.746 28.8845 450.511 28.8636 451.073C28.8532 451.354 28.8445 451.584 28.8384 451.744L28.8314 451.928L28.8295 451.977L28.8294 451.979C28.8322 454.168 29.5146 455.752 30.2629 457.489L30.2804 457.53C30.5345 458.119 30.7944 458.725 31.0277 459.371C31.0506 459.435 31.115 459.473 31.1812 459.462C31.7479 459.362 32.1719 459.195 32.4596 458.988C32.8022 458.742 32.9724 458.432 32.9724 458C32.9724 457.537 32.8722 457.233 32.7204 457.026C32.5721 456.825 32.3162 456.637 31.8476 456.515C31.5238 456.43 31.3028 456.131 31.3173 455.797C31.4145 453.545 31.6828 451.043 32.3509 448.898C33.0123 446.774 34.1144 444.846 35.9916 443.976C36.2114 443.874 36.468 443.891 36.6723 444.022C36.8765 444.152 37 444.378 37 444.62V463.327C37 464.112 36.3643 464.747 35.58 464.747H31.8986C31.8296 464.747 31.7711 464.798 31.7589 464.866C31.3727 467.027 29.7974 468.477 28.5989 469.581L28.5272 469.647C28.3973 469.791 28.2092 469.881 28 469.881C27.9112 469.881 27.8261 469.865 27.7477 469.835C27.6417 469.795 27.5478 469.73 27.4731 469.647L27.4011 469.581C26.2027 468.477 24.6273 467.027 24.2411 464.866C24.2289 464.798 24.1704 464.747 24.1014 464.747H20.42C19.6358 464.747 19 464.111 19 463.327V444.62C19 444.378 19.1236 444.152 19.3278 444.022C19.532 443.891 19.7886 443.874 20.0085 443.976C21.8856 444.846 22.9877 446.774 23.6492 448.898C24.3172 451.043 24.5855 453.545 24.6828 455.797C24.6972 456.131 24.4762 456.43 24.1524 456.514C23.6838 456.637 23.428 456.825 23.2797 457.026C23.1279 457.233 23.0276 457.537 23.0276 458C23.0276 458.432 23.1978 458.742 23.5404 458.988C23.8281 459.195 24.2521 459.362 24.8188 459.462C24.885 459.473 24.9494 459.435 24.9723 459.371C25.2056 458.725 25.4656 458.119 25.7196 457.53L25.7371 457.489C26.4855 455.752 27.1678 454.168 27.1706 451.979L27.1705 451.977L27.1686 451.928L27.1616 451.744C27.1555 451.584 27.1468 451.354 27.1364 451.073C27.1155 450.511 27.0878 449.746 27.0599 448.931C27.0046 447.308 26.9485 445.47 26.9485 444.668C26.9485 443.831 27.0395 443.223 27.139 442.81C27.1887 442.604 27.2403 442.447 27.2834 442.334C27.3049 442.278 27.3242 442.232 27.34 442.198C27.3479 442.181 27.3549 442.166 27.3608 442.154L27.3629 442.15ZM24.4837 460.995C24.5022 460.916 24.4516 460.838 24.3726 460.822C23.7398 460.69 23.1717 460.471 22.7126 460.142C22.2368 459.8 21.8951 459.351 21.7265 458.809C21.7077 458.749 21.6525 458.706 21.589 458.706H20.56C20.4827 458.706 20.42 458.768 20.42 458.846V463.187C20.42 463.265 20.4827 463.327 20.56 463.327H24.0293C24.1044 463.327 24.166 463.268 24.1699 463.193C24.2111 462.397 24.3245 461.67 24.4837 460.995ZM25.7315 463.327C25.6517 463.327 25.5879 463.261 25.5926 463.181C25.6338 462.485 25.7372 461.848 25.8829 461.248C25.9026 461.167 25.9894 461.122 26.0652 461.157C26.3735 461.3 26.6187 461.499 26.8079 461.719C27.1577 462.125 27.29 462.567 27.29 462.803V463.187C27.29 463.265 27.2273 463.327 27.15 463.327H25.7315ZM25.8367 464.747C25.7478 464.747 25.6813 464.829 25.7032 464.915C25.9299 465.806 26.4321 466.553 27.0525 467.243C27.1369 467.337 27.29 467.276 27.29 467.15V464.887C27.29 464.81 27.2273 464.747 27.15 464.747H25.8367ZM28.71 467.15C28.71 467.276 28.8631 467.337 28.9475 467.243C29.5679 466.553 30.0701 465.806 30.2968 464.915C30.3187 464.829 30.2522 464.747 30.1633 464.747H28.85C28.7727 464.747 28.71 464.81 28.71 464.887V467.15ZM31.8301 463.193C31.834 463.268 31.8956 463.327 31.9707 463.327H35.44C35.5174 463.327 35.58 463.265 35.58 463.187V458.846C35.58 458.768 35.5174 458.706 35.44 458.706H34.411C34.3475 458.706 34.2924 458.749 34.2735 458.809C34.1049 459.351 33.7632 459.801 33.2874 460.142C32.8284 460.471 32.2602 460.69 31.6274 460.822C31.5484 460.838 31.4978 460.916 31.5163 460.995C31.6755 461.67 31.7889 462.397 31.8301 463.193ZM29.9349 461.157C30.0106 461.122 30.0974 461.167 30.1171 461.248C30.2628 461.848 30.3662 462.485 30.4074 463.181C30.4121 463.261 30.3483 463.327 30.2685 463.327H28.85C28.7727 463.327 28.71 463.265 28.71 463.187V462.803C28.71 462.567 28.8423 462.125 29.1922 461.719C29.3813 461.499 29.6265 461.3 29.9349 461.157ZM29.601 459.608C29.6286 459.681 29.5904 459.762 29.518 459.791C28.9353 460.024 28.4679 460.384 28.1165 460.792C28.1157 460.793 28.1148 460.794 28.114 460.795C28.0545 460.864 27.9456 460.864 27.8861 460.795C27.8852 460.794 27.8844 460.793 27.8835 460.792C27.5322 460.384 27.0647 460.024 26.4821 459.791C26.4096 459.762 26.3715 459.681 26.399 459.608C26.5924 459.097 26.8059 458.597 27.0238 458.091L27.0671 457.991L27.0671 457.991C27.3395 457.359 27.6179 456.713 27.8609 456.025C27.9062 455.896 28.0938 455.896 28.1391 456.025C28.3821 456.713 28.6605 457.359 28.9329 457.991L28.9762 458.091C29.1941 458.597 29.4076 459.097 29.601 459.608ZM27.9999 451.961L28 451.961L28.0001 451.961L28 451.961L27.9999 451.961ZM22.1358 456.185C21.9162 456.483 21.7751 456.817 21.6945 457.172C21.6796 457.238 21.6222 457.286 21.5549 457.286H20.56C20.4827 457.286 20.42 457.223 20.42 457.146V446.28C20.42 446.157 20.5646 446.096 20.6478 446.186C21.3457 446.943 21.8866 448.014 22.2934 449.32C22.8501 451.108 23.1167 453.213 23.2327 455.233C23.2361 455.292 23.2024 455.346 23.1494 455.37C22.74 455.563 22.3963 455.831 22.1358 456.185ZM33.8643 456.185C34.0838 456.484 34.2249 456.817 34.3055 457.172C34.3204 457.238 34.3779 457.286 34.4451 457.286H35.44C35.5174 457.286 35.58 457.223 35.58 457.146V446.28C35.58 446.157 35.4354 446.096 35.3522 446.186C34.6543 446.943 34.1134 448.014 33.7067 449.32C33.15 451.108 32.8833 453.213 32.7673 455.233C32.764 455.292 32.7976 455.346 32.8506 455.37C33.2601 455.563 33.6038 455.831 33.8643 456.185Z" fill="#FF00FF"/>
<path d="M140.762 397.928V388.595C140.762 388.044 141.085 387.777 141.5 387.777C141.916 387.777 142.238 388.044 142.238 388.595V397.928C142.238 398.48 141.916 398.747 141.5 398.747C141.085 398.747 140.762 398.48 140.762 397.928Z" fill="#FF00FF"/>
<path d="M142.157 416.226L139.478 406.732C139.46 406.676 139.441 406.577 139.441 406.484C139.429 406.099 139.745 405.777 140.148 405.777C140.483 405.777 140.756 405.975 140.849 406.298L143.522 415.798C143.54 415.848 143.559 415.953 143.565 416.04C143.571 416.424 143.261 416.747 142.852 416.747C142.517 416.747 142.244 416.548 142.157 416.226Z" fill="#FF00FF"/>
<path d="M86.7622 397.928V388.595C86.7622 388.044 87.0847 387.777 87.5001 387.777C87.9156 387.777 88.2381 388.044 88.2381 388.595V397.928C88.2381 398.48 87.9156 398.747 87.5001 398.747C87.0847 398.747 86.7622 398.48 86.7622 397.928Z" fill="#FF00FF"/>
<path d="M88.1574 416.226L85.4785 406.732C85.4599 406.676 85.4413 406.577 85.4413 406.484C85.4289 406.099 85.7451 405.777 86.1482 405.777C86.4831 405.777 86.7559 405.975 86.8489 406.298L89.5216 415.798C89.5402 415.848 89.5588 415.953 89.565 416.04C89.5713 416.424 89.2612 416.747 88.8519 416.747C88.5171 416.747 88.2442 416.548 88.1574 416.226Z" fill="#FF00FF"/>
<path fill-rule="evenodd" clip-rule="evenodd" d="M286.608 172.216C286.906 171.818 287.469 171.737 287.867 172.034L293.21 176.029C293.438 176.199 293.571 176.466 293.571 176.75C293.571 177.034 293.438 177.301 293.21 177.471L287.867 181.466C287.469 181.763 286.906 181.682 286.608 181.284C286.31 180.886 286.392 180.322 286.79 180.025L291.019 176.862C291.094 176.806 291.094 176.694 291.019 176.638L286.79 173.475C286.392 173.178 286.31 172.614 286.608 172.216Z" fill="#FF00FF"/>
<path fill-rule="evenodd" clip-rule="evenodd" d="M293.392 190.216C293.095 189.818 292.531 189.737 292.133 190.034L286.79 194.029C286.562 194.199 286.429 194.466 286.429 194.75C286.429 195.034 286.562 195.301 286.79 195.471L292.133 199.466C292.531 199.763 293.095 199.682 293.392 199.284C293.69 198.886 293.608 198.322 293.21 198.025L288.981 194.862C288.906 194.806 288.906 194.694 288.981 194.638L293.21 191.475C293.608 191.178 293.69 190.614 293.392 190.216Z" fill="#FF00FF"/>
<rect x="743.5" y="703" width="67.5" height="54" stroke="#00FFFF"/>
<rect x="676" y="703" width="67.5" height="54" stroke="#00FFFF"/>
<rect x="608.5" y="703" width="67.5" height="54" stroke="#00FFFF"/>
<rect x="541" y="703" width="67.5" height="54" stroke="#00FFFF"/>
<rect x="136" y="703" width="67.5" height="54" stroke="#00FFFF"/>
<rect x="68.5" y="703" width="67.5" height="54" stroke="#00FFFF"/>
<rect x="1" y="703" width="67.5" height="54" stroke="#00FFFF"/>
<rect x="662.5" y="649" width="148.5" height="54" stroke="#00FFFF"/>
<rect x="1" y="649" width="121.5" height="54" stroke="#00FFFF"/>
<rect x="689.5" y="595" width="121.5" height="54" stroke="#00FFFF"/>
<rect x="1" y="595" width="94.5" height="54" stroke="#00FFFF"/>
<rect x="1" y="541" width="81" height="54" stroke="#00FFFF"/>
<rect x="703" y="487" width="108" height="54" stroke="#00FFFF"/>
<rect x="608.5" y="649" width="54" height="54" stroke="#00FFFF"/>
<rect x="554.5" y="649" width="54" height="54" stroke="#00FFFF"/>
<rect x="500.5" y="649" width="54" height="54" stroke="#00FFFF"/>
<rect x="446.5" y="649" width="54" height="54" stroke="#00FFFF"/>
<rect x="392.5" y="649" width="54" height="54" stroke="#00FFFF"/>
<rect x="338.5" y="649" width="54" height="54" stroke="#00FFFF"/>
<rect x="284.5" y="649" width="54" height="54" stroke="#00FFFF"/>
<rect x="230.5" y="649" width="54" height="54" stroke="#00FFFF"/>
<rect x="176.5" y="649" width="54" height="54" stroke="#00FFFF"/>
<rect x="122.5" y="649" width="54" height="54" stroke="#00FFFF"/>
<rect x="635.5" y="595" width="54" height="54" stroke="#00FFFF"/>
<rect x="581.5" y="595" width="54" height="54" stroke="#00FFFF"/>
<rect x="527.5" y="595" width="54" height="54" stroke="#00FFFF"/>
<rect x="473.5" y="595" width="54" height="54" stroke="#00FFFF"/>
<rect x="419.5" y="595" width="54" height="54" stroke="#00FFFF"/>
<rect x="365.5" y="595" width="54" height="54" stroke="#00FFFF"/>
<rect x="311.5" y="595" width="54" height="54" stroke="#00FFFF"/>
<rect x="257.5" y="595" width="54" height="54" stroke="#00FFFF"/>
<rect x="203.5" y="595" width="54" height="54" stroke="#00FFFF"/>
<rect x="149.5" y="595" width="54" height="54" stroke="#00FFFF"/>
<rect x="95.5" y="595" width="54" height="54" stroke="#00FFFF"/>
<rect x="730" y="541" width="81" height="54" stroke="#00FFFF"/>
<rect x="676" y="541" width="54" height="54" stroke="#00FFFF"/>
<rect x="622" y="541" width="54" height="54" stroke="#00FFFF"/>
<rect x="568" y="541" width="54" height="54" stroke="#00FFFF"/>
<rect x="514" y="541" width="54" height="54" stroke="#00FFFF"/>
<rect x="460" y="541" width="54" height="54" stroke="#00FFFF"/>
<rect x="406" y="541" width="54" height="54" stroke="#00FFFF"/>
<rect x="352" y="541" width="54" height="54" stroke="#00FFFF"/>
<rect x="298" y="541" width="54" height="54" stroke="#00FFFF"/>
<rect x="244" y="541" width="54" height="54" stroke="#00FFFF"/>
<rect x="190" y="541" width="54" height="54" stroke="#00FFFF"/>
<rect x="136" y="541" width="54" height="54" stroke="#00FFFF"/>
<rect x="82" y="541" width="54" height="54" stroke="#00FFFF"/>
<rect x="55" y="487" width="54" height="54" stroke="#00FFFF"/>
<rect x="109" y="487" width="54" height="54" stroke="#00FFFF"/>
<rect x="163" y="487" width="54" height="54" stroke="#00FFFF"/>
<rect x="217" y="487" width="54" height="54" stroke="#00FFFF"/>
<rect x="271" y="487" width="54" height="54" stroke="#00FFFF"/>
<rect x="325" y="487" width="54" height="54" stroke="#00FFFF"/>
<rect x="379" y="487" width="54" height="54" stroke="#00FFFF"/>
<rect x="433" y="487" width="54" height="54" stroke="#00FFFF"/>
<rect x="487" y="487" width="54" height="54" stroke="#00FFFF"/>
<rect x="541" y="487" width="54" height="54" stroke="#00FFFF"/>
<rect x="595" y="487" width="54" height="54" stroke="#00FFFF"/>
<rect x="649" y="487" width="54" height="54" stroke="#00FFFF"/>
<rect x="1" y="487" width="54" height="54" stroke="#00FFFF"/>
<rect x="217" y="433" width="54" height="54" stroke="#00FFFF"/>
<rect x="163" y="433" width="54" height="54" stroke="#00FFFF"/>
<rect x="109" y="433" width="54" height="54" stroke="#00FFFF"/>
<rect x="55" y="433" width="54" height="54" stroke="#00FFFF"/>
<rect x="433" y="433" width="54" height="54" stroke="#00FFFF"/>
<rect x="379" y="433" width="54" height="54" stroke="#00FFFF"/>
<rect x="325" y="433" width="54" height="54" stroke="#00FFFF"/>
<rect x="271" y="433" width="54" height="54" stroke="#00FFFF"/>
<rect x="649" y="433" width="54" height="54" stroke="#00FFFF"/>
<rect x="595" y="433" width="54" height="54" stroke="#00FFFF"/>
<rect x="541" y="433" width="54" height="54" stroke="#00FFFF"/>
<rect x="487" y="433" width="54" height="54" stroke="#00FFFF"/>
<rect x="541" y="379" width="54" height="54" stroke="#00FFFF"/>
<rect x="487" y="379" width="54" height="54" stroke="#00FFFF"/>
<rect x="433" y="379" width="54" height="54" stroke="#00FFFF"/>
<rect x="487" y="325" width="54" height="54" stroke="#00FFFF"/>
<rect x="703" y="379" width="54" height="54" stroke="#00FFFF"/>
<rect x="595" y="379" width="108" height="54" stroke="#00FFFF"/>
<rect x="757" y="325" width="54" height="108" stroke="#00FFFF"/>
<rect x="703" y="325" width="54" height="54" stroke="#00FFFF"/>
<rect x="649" y="325" width="54" height="54" stroke="#00FFFF"/>
<rect x="595" y="325" width="54" height="54" stroke="#00FFFF"/>
<rect x="703" y="271" width="54" height="54" stroke="#00FFFF"/>
<rect x="595" y="271" width="54" height="54" stroke="#00FFFF"/>
<rect x="757" y="217" width="54" height="108" stroke="#00FFFF"/>
<rect x="703" y="217" width="54" height="54" stroke="#00FFFF"/>
<rect x="649" y="217" width="54" height="54" stroke="#00FFFF"/>
<rect x="595" y="217" width="54" height="54" stroke="#00FFFF"/>
<rect x="757" y="163" width="54" height="54" stroke="#00FFFF"/>
<rect x="703" y="163" width="54" height="54" stroke="#00FFFF"/>
<rect x="649" y="163" width="54" height="54" stroke="#00FFFF"/>
<rect x="595" y="163" width="54" height="54" stroke="#00FFFF"/>
<rect x="649" y="271" width="54" height="54" stroke="#00FFFF"/>
<rect x="541" y="163" width="54" height="54" stroke="#00FFFF"/>
<rect x="487" y="163" width="54" height="54" stroke="#00FFFF"/>
<rect x="433" y="163" width="54" height="54" stroke="#00FFFF"/>
<rect x="541" y="217" width="54" height="54" stroke="#00FFFF"/>
<rect x="487" y="217" width="54" height="54" stroke="#00FFFF"/>
<rect x="433" y="217" width="54" height="54" stroke="#00FFFF"/>
<rect x="541" y="271" width="54" height="54" stroke="#00FFFF"/>
<rect x="487" y="271" width="54" height="54" stroke="#00FFFF"/>
<rect x="433" y="271" width="54" height="54" stroke="#00FFFF"/>
<rect x="595" y="757" width="81" height="54" stroke="#00FFFF"/>
<rect x="676" y="757" width="54" height="54" stroke="#00FFFF"/>
<rect x="730" y="757" width="81" height="54" stroke="#00FFFF"/>
<rect x="136" y="757" width="81" height="54" stroke="#00FFFF"/>
<rect x="82" y="757" width="54" height="54" stroke="#00FFFF"/>
<rect x="1" y="757" width="81" height="54" stroke="#00FFFF"/>
<rect x="1" y="433" width="54" height="54" stroke="#00FFFF"/>
<rect x="757" y="433" width="54" height="54" stroke="#00FFFF"/>
<rect x="703" y="433" width="54" height="54" stroke="#00FFFF"/>
<rect x="541" y="325" width="54" height="54" stroke="#00FFFF"/>
<rect x="433" y="325" width="54" height="54" stroke="#00FFFF"/>
<rect x="379" y="325" width="54" height="54" stroke="#00FFFF"/>
<rect x="379" y="379" width="54" height="54" stroke="#00FFFF"/>
<rect x="298" y="379" width="81" height="54" stroke="#00FFFF"/>
<rect x="298" y="325" width="81" height="54" stroke="#00FFFF"/>
<rect x="217" y="325" width="81" height="108" stroke="#00FFFF"/>
<rect x="176.5" y="379" width="54" height="54" stroke="#00FFFF"/>
<rect x="122.5" y="379" width="54" height="54" stroke="#00FFFF"/>
<rect x="68.5" y="379" width="54" height="54" stroke="#00FFFF"/>
<rect x="1" y="379" width="67.5" height="54" stroke="#00FFFF"/>
<rect x="109" y="325" width="54" height="54" stroke="#00FFFF"/>
<rect x="55" y="325" width="54" height="54" stroke="#00FFFF"/>
<rect x="1" y="325" width="54" height="54" stroke="#00FFFF"/>
<rect x="163" y="325" width="54" height="54" stroke="#00FFFF"/>
<rect x="271" y="271" width="94.5" height="54" stroke="#00FFFF"/>
<rect x="365.5" y="271" width="67.5" height="54" stroke="#00FFFF"/>
<rect x="217" y="271" width="54" height="54" stroke="#00FFFF"/>
<rect x="163" y="271" width="54" height="54" stroke="#00FFFF"/>
<rect x="95.5" y="271" width="67.5" height="54" stroke="#00FFFF"/>
<rect x="1" y="271" width="94.5" height="54" stroke="#00FFFF"/>
<rect x="379" y="163" width="54" height="54" stroke="#00FFFF"/>
<rect x="271" y="163" width="54" height="54" stroke="#00FFFF"/>
<rect x="163" y="163" width="108" height="54" stroke="#00FFFF"/>
<rect x="95.5" y="163" width="67.5" height="54" stroke="#00FFFF"/>
<rect x="217" y="217" width="54" height="54" stroke="#00FFFF"/>
<rect x="163" y="217" width="54" height="54" stroke="#00FFFF"/>
<rect x="95.5" y="217" width="67.5" height="54" stroke="#00FFFF"/>
<rect x="1" y="217" width="94.5" height="54" stroke="#00FFFF"/>
<rect x="1" y="163" width="94.5" height="54" stroke="#00FFFF"/>
<rect x="730" y="55" width="81" height="108" stroke="#00FFFF"/>
<rect x="635.5" y="109" width="54" height="54" stroke="#00FFFF"/>
<rect x="554.5" y="109" width="81" height="54" stroke="#00FFFF"/>
<rect x="446.5" y="109" width="108" height="54" stroke="#00FFFF"/>
<rect x="311.5" y="109" width="81" height="54" stroke="#00FFFF"/>
<rect x="257.5" y="109" width="54" height="54" stroke="#00FFFF"/>
<rect x="163" y="109" width="94.5" height="54" stroke="#00FFFF"/>
<rect x="82" y="109" width="81" height="54" stroke="#00FFFF"/>
<rect x="1" y="109" width="81" height="54" stroke="#00FFFF"/>
<rect x="635.5" y="55" width="94.5" height="54" stroke="#00FFFF"/>
<rect x="527.5" y="55" width="54" height="54" stroke="#00FFFF"/>
<rect x="473.5" y="55" width="54" height="54" stroke="#00FFFF"/>
<rect x="392.5" y="55" width="81" height="54" stroke="#00FFFF"/>
<rect x="1" y="1" width="54" height="54" stroke="#00FFFF"/>
<rect x="55" y="1" width="54" height="54" stroke="#00FFFF"/>
<rect x="109" y="1" width="54" height="54" stroke="#00FFFF"/>
<rect x="163" y="1" width="54" height="54" stroke="#00FFFF"/>
<rect x="217" y="1" width="54" height="54" stroke="#00FFFF"/>
<rect x="271" y="1" width="54" height="54" stroke="#00FFFF"/>
<rect x="325" y="1" width="54" height="54" stroke="#00FFFF"/>
<rect x="379" y="1" width="54" height="54" stroke="#00FFFF"/>
</svg>
