<svg width="812" height="812" viewBox="0 0 812 812" fill="none" xmlns="http://www.w3.org/2000/svg">
<path fill-rule="evenodd" clip-rule="evenodd" d="M31.4062 516.637C31.4062 515.455 32.3644 514.497 33.5462 514.497H38.4536C39.6355 514.497 40.5936 515.455 40.5936 516.637V521.42C40.5936 521.422 40.5936 521.424 40.5936 521.426L40.5936 523.186C40.5936 523.578 40.2757 523.896 39.8836 523.896C39.4915 523.896 39.1736 523.578 39.1736 523.186L39.1736 522.98C39.1736 522.903 39.1109 522.84 39.0336 522.84H32.9663C32.889 522.84 32.8263 522.903 32.8263 522.98L32.8263 523.191C32.8263 523.583 32.5084 523.901 32.1163 523.901C31.7242 523.901 31.4063 523.583 31.4063 523.191L31.4063 521.428L31.4062 521.42V516.637ZM39.1736 518.055C39.1736 518.057 39.1736 518.058 39.1736 518.06L39.1736 521.28C39.1736 521.357 39.1109 521.42 39.0336 521.42L32.9663 521.42C32.889 521.42 32.8263 521.357 32.8263 521.28L32.8263 518.06L32.8263 518.055V516.637C32.8263 516.239 33.1486 515.917 33.5462 515.917H38.4536C38.8513 515.917 39.1736 516.239 39.1736 516.637V518.055Z" fill="#FF00FF"/>
<path fill-rule="evenodd" clip-rule="evenodd" d="M86.3162 515.011L92.2908 515.011C92.3791 515.011 92.4454 515.091 92.4261 515.177C92.2179 516.105 91.8051 517.079 91.2103 517.998C91.1674 518.064 91.0777 518.081 91.0132 518.035C90.0115 517.327 89.0166 516.713 88.1684 516.291C87.8172 516.117 87.3911 516.26 87.2166 516.611C87.0422 516.963 87.1855 517.389 87.5367 517.563C88.2989 517.942 89.2073 518.501 90.1312 519.151C90.1996 519.199 90.2104 519.296 90.1536 519.357C89.037 520.562 87.5671 521.548 85.8108 522.013C85.4318 522.113 85.2059 522.502 85.3063 522.881C85.4068 523.26 85.7955 523.486 86.1745 523.386C88.2718 522.83 90.0114 521.644 91.3136 520.193C91.3632 520.138 91.4472 520.13 91.5055 520.176C92.2272 520.746 92.9176 521.344 93.5109 521.925C93.7911 522.199 94.2407 522.194 94.5149 521.914C94.7892 521.634 94.7844 521.184 94.5041 520.91C93.8735 520.293 93.1402 519.657 92.3719 519.051C92.3142 519.005 92.3013 518.923 92.3418 518.861C93.2154 517.538 93.7638 516.103 93.9395 514.773C94.0266 514.114 93.4984 513.591 92.8927 513.591L86.3162 513.591C85.924 513.591 85.6062 513.908 85.6062 514.301C85.6062 514.693 85.924 515.011 86.3162 515.011Z" fill="#FF00FF"/>
<path fill-rule="evenodd" clip-rule="evenodd" d="M139.202 514.35C139.202 513.958 139.52 513.64 139.912 513.64L147.737 513.64C148.351 513.64 148.862 514.168 148.791 514.809C148.604 516.514 148.061 518.278 146.898 519.794C145.728 521.318 143.97 522.543 141.44 523.216C141.062 523.317 140.673 523.092 140.572 522.713C140.471 522.334 140.696 521.945 141.075 521.844C143.333 521.243 144.812 520.18 145.771 518.93C146.616 517.828 147.087 516.543 147.303 515.22C147.316 515.136 147.251 515.06 147.165 515.06L139.912 515.06C139.52 515.06 139.202 514.742 139.202 514.35Z" fill="#FF00FF"/>
<path fill-rule="evenodd" clip-rule="evenodd" d="M194.546 498.473L200.363 498.473C200.461 498.473 200.528 498.57 200.489 498.66C200.105 499.548 199.45 500.116 198.657 500.457C198.56 500.499 198.457 500.417 198.471 500.312C198.478 500.25 198.486 500.188 198.494 500.125C198.541 499.736 198.264 499.382 197.875 499.334C197.486 499.287 197.132 499.564 197.084 499.953C196.956 501.001 196.826 501.718 196.495 502.309C196.181 502.87 195.641 503.39 194.533 503.907C194.178 504.073 194.024 504.495 194.19 504.85C194.356 505.206 194.779 505.359 195.134 505.193C196.422 504.592 197.233 503.897 197.734 503.003C197.88 502.742 197.996 502.471 198.089 502.191C198.105 502.144 198.144 502.108 198.192 502.097C199.901 501.688 201.531 500.606 202.087 498.344C202.258 497.646 201.704 497.053 201.062 497.053H194.546C194.154 497.053 193.836 497.371 193.836 497.763C193.836 498.155 194.154 498.473 194.546 498.473Z" fill="#FF00FF"/>
<path fill-rule="evenodd" clip-rule="evenodd" d="M193.692 513.6C193.3 513.6 192.982 513.918 192.982 514.31C192.982 514.702 193.3 515.02 193.692 515.02L201.286 515.021C201.381 515.021 201.449 515.114 201.415 515.203C200.88 516.64 199.763 517.546 198.537 518.034C198.439 518.073 198.338 517.991 198.351 517.887C198.401 517.472 198.428 517.05 198.442 516.626C198.455 516.234 198.148 515.906 197.756 515.893C197.364 515.88 197.036 516.187 197.023 516.579C196.981 517.84 196.813 518.91 196.364 519.815C195.925 520.7 195.191 521.481 193.911 522.115C193.56 522.29 193.416 522.715 193.59 523.067C193.764 523.418 194.19 523.562 194.541 523.388C196.069 522.631 197.045 521.638 197.636 520.446C197.745 520.227 197.84 520.002 197.922 519.774C197.939 519.729 197.976 519.695 198.023 519.684C200.088 519.18 202.339 517.74 202.991 514.877C203.147 514.189 202.603 513.601 201.961 513.601L193.692 513.6Z" fill="#FF00FF"/>
<path fill-rule="evenodd" clip-rule="evenodd" d="M252.558 497.11C252.558 496.718 252.24 496.4 251.848 496.4C251.456 496.4 251.138 496.718 251.138 497.11V497.689C251.138 497.766 251.076 497.829 250.998 497.829L249.101 497.829C248.512 497.829 248.036 498.306 248.036 498.894V500.704C248.036 501.096 248.354 501.414 248.746 501.414C249.138 501.414 249.456 501.096 249.456 500.704V499.389C249.456 499.312 249.518 499.249 249.596 499.249L251.802 499.249C251.817 499.25 251.833 499.251 251.848 499.251C251.864 499.251 251.879 499.25 251.895 499.249L254.343 499.249C254.427 499.249 254.492 499.323 254.48 499.407C254.346 500.356 254.097 501.186 253.616 501.87C253.06 502.664 252.133 503.344 250.484 503.728C250.102 503.817 249.864 504.198 249.953 504.58C250.042 504.962 250.423 505.2 250.805 505.111C252.722 504.665 253.982 503.822 254.779 502.686C255.561 501.572 255.837 500.258 255.959 498.988C256.02 498.355 255.517 497.829 254.902 497.829L252.698 497.829C252.621 497.829 252.558 497.766 252.558 497.689V497.11Z" fill="#FF00FF"/>
<path fill-rule="evenodd" clip-rule="evenodd" d="M252.528 513.88C252.528 513.488 252.21 513.17 251.818 513.17C251.426 513.17 251.108 513.488 251.108 513.88V514.79C251.108 514.867 251.045 514.93 250.968 514.93L248.256 514.93C247.668 514.93 247.191 515.407 247.191 515.995V518.495C247.191 518.887 247.509 519.205 247.901 519.205C248.293 519.205 248.611 518.887 248.611 518.495V516.49C248.611 516.413 248.674 516.35 248.751 516.35L251.772 516.35C251.787 516.351 251.802 516.352 251.818 516.352C251.834 516.352 251.849 516.351 251.864 516.35L255.196 516.35C255.279 516.35 255.344 516.422 255.334 516.505C255.175 517.895 254.901 519.042 254.266 519.973C253.569 520.996 252.365 521.859 250.096 522.396C249.715 522.487 249.479 522.869 249.569 523.251C249.66 523.632 250.042 523.869 250.424 523.778C252.923 523.186 254.485 522.173 255.439 520.773C256.374 519.402 256.651 517.759 256.804 516.089C256.862 515.462 256.366 514.93 255.745 514.93L252.668 514.93C252.591 514.93 252.528 514.867 252.528 514.79V513.88Z" fill="#FF00FF"/>
<path fill-rule="evenodd" clip-rule="evenodd" d="M302.281 498.21C302.281 497.818 302.599 497.5 302.991 497.5H306H309.009C309.401 497.5 309.719 497.818 309.719 498.21C309.719 498.602 309.401 498.92 309.009 498.92L306.85 498.92C306.773 498.92 306.71 498.983 306.71 499.06V503.566C306.71 503.643 306.773 503.706 306.85 503.706H309.653C310.045 503.706 310.363 504.024 310.363 504.416C310.363 504.808 310.045 505.126 309.653 505.126H306H302.347C301.955 505.126 301.637 504.808 301.637 504.416C301.637 504.024 301.955 503.706 302.347 503.706H305.15C305.227 503.706 305.29 503.643 305.29 503.566L305.29 499.06C305.29 498.983 305.227 498.92 305.15 498.92L302.991 498.92C302.599 498.92 302.281 498.602 302.281 498.21Z" fill="#FF00FF"/>
<path fill-rule="evenodd" clip-rule="evenodd" d="M302.281 514.36C302.281 513.968 302.599 513.65 302.991 513.65H306H309.009C309.401 513.65 309.719 513.968 309.719 514.36C309.719 514.752 309.401 515.07 309.009 515.07L306.85 515.07C306.773 515.07 306.71 515.133 306.71 515.21L306.71 521.303C306.71 521.381 306.773 521.443 306.85 521.443H309.653C310.045 521.443 310.363 521.761 310.363 522.153C310.363 522.545 310.045 522.863 309.653 522.863H302.347C301.955 522.863 301.637 522.545 301.637 522.153C301.637 521.761 301.955 521.443 302.347 521.443H305.15C305.227 521.443 305.29 521.381 305.29 521.303L305.29 515.21C305.29 515.133 305.227 515.07 305.15 515.07L302.991 515.07C302.599 515.07 302.281 514.752 302.281 514.36Z" fill="#FF00FF"/>
<path fill-rule="evenodd" clip-rule="evenodd" d="M361.714 496.42C362.106 496.42 362.424 496.738 362.424 497.13L362.424 497.814C362.424 497.891 362.487 497.954 362.564 497.954H363.888C364.28 497.954 364.598 498.272 364.598 498.664C364.598 499.056 364.28 499.374 363.888 499.374H362.564C362.487 499.374 362.424 499.437 362.424 499.514L362.424 504.423C362.424 504.815 362.106 505.133 361.714 505.133C361.322 505.133 361.004 504.815 361.004 504.423L361.004 501.195C361.004 501.056 360.82 500.999 360.736 501.11C359.706 502.472 358.323 503.374 357.103 503.95C356.749 504.117 356.326 503.965 356.158 503.611C355.991 503.256 356.143 502.833 356.497 502.666C357.807 502.047 359.2 501.068 360.049 499.576C360.101 499.485 360.034 499.374 359.929 499.374H356.96C356.568 499.374 356.25 499.056 356.25 498.664C356.25 498.272 356.568 497.954 356.96 497.954L360.864 497.954C360.942 497.954 361.004 497.891 361.004 497.814L361.004 497.13C361.004 496.738 361.322 496.42 361.714 496.42Z" fill="#FF00FF"/>
<path fill-rule="evenodd" clip-rule="evenodd" d="M361.708 513.8C362.1 513.8 362.418 514.118 362.418 514.51L362.418 515.7C362.418 515.778 362.481 515.84 362.558 515.84H364.546C364.938 515.84 365.256 516.158 365.256 516.55C365.256 516.943 364.938 517.26 364.546 517.26H362.558C362.481 517.26 362.418 517.323 362.418 517.4L362.418 523.791C362.418 524.183 362.1 524.501 361.708 524.501C361.316 524.501 360.998 524.183 360.998 523.791L360.998 519.02C360.998 518.876 360.802 518.822 360.723 518.943C359.41 520.962 357.459 522.227 355.758 523.03C355.403 523.197 354.98 523.046 354.813 522.691C354.645 522.337 354.797 521.913 355.151 521.746C356.944 520.9 358.863 519.58 359.942 517.459C359.989 517.367 359.921 517.26 359.818 517.26H355.658C355.266 517.26 354.948 516.943 354.948 516.55C354.948 516.158 355.266 515.84 355.658 515.84L360.858 515.84C360.935 515.84 360.998 515.778 360.998 515.7L360.998 514.51C360.998 514.118 361.316 513.8 361.708 513.8Z" fill="#FF00FF"/>
<path fill-rule="evenodd" clip-rule="evenodd" d="M413.111 496.859C413.033 496.475 412.659 496.227 412.274 496.304C411.89 496.382 411.641 496.757 411.719 497.141L411.957 498.317C411.973 498.395 411.921 498.47 411.842 498.483L410.258 498.742C409.871 498.805 409.609 499.17 409.672 499.557C409.735 499.944 410.1 500.206 410.487 500.143L412.134 499.874C412.208 499.862 412.279 499.911 412.294 499.984L413.219 504.56C413.297 504.944 413.671 505.193 414.056 505.115C414.44 505.037 414.689 504.663 414.611 504.279L413.698 499.766C413.683 499.688 413.735 499.612 413.813 499.6L416.576 499.148C416.684 499.131 416.767 499.237 416.716 499.334C416.438 499.861 415.931 500.404 415.217 500.905C414.896 501.13 414.818 501.572 415.043 501.893C415.268 502.215 415.711 502.292 416.032 502.067C417.127 501.299 418.034 500.288 418.305 499.117C418.413 498.653 418.237 498.229 417.933 497.963C417.642 497.709 417.244 497.6 416.855 497.664L413.521 498.209C413.447 498.221 413.376 498.172 413.361 498.098L413.111 496.859Z" fill="#FF00FF"/>
<path fill-rule="evenodd" clip-rule="evenodd" d="M412.715 513.739C412.637 513.355 412.263 513.106 411.878 513.184C411.494 513.262 411.246 513.636 411.323 514.021L411.632 515.547C411.648 515.625 411.596 515.7 411.517 515.713L409.289 516.082C408.902 516.146 408.641 516.511 408.705 516.898C408.769 517.285 409.134 517.547 409.521 517.483L411.809 517.104C411.883 517.092 411.954 517.14 411.969 517.214L413.217 523.386C413.295 523.77 413.669 524.019 414.053 523.941C414.438 523.863 414.686 523.489 414.609 523.104L413.373 516.992C413.357 516.914 413.409 516.839 413.487 516.826L417.646 516.138C417.743 516.122 417.826 516.208 417.798 516.303C417.552 517.133 416.841 518.015 415.237 519.046C414.907 519.258 414.812 519.697 415.024 520.027C415.236 520.357 415.675 520.452 416.005 520.24C418.021 518.945 419.1 517.631 419.294 516.058C419.412 515.103 418.522 514.553 417.786 514.675L413.196 515.435C413.121 515.447 413.051 515.399 413.036 515.325L412.715 513.739Z" fill="#FF00FF"/>
<path fill-rule="evenodd" clip-rule="evenodd" d="M470.567 499.129C470.574 498.577 470.126 498.137 469.585 498.137L465.292 498.142C464.9 498.143 464.582 498.461 464.583 498.853C464.583 499.245 464.902 499.563 465.294 499.562L468.993 499.558C469.072 499.558 469.135 499.623 469.132 499.702C469.087 500.89 468.954 501.952 468.824 502.753C468.771 503.079 468.719 503.361 468.674 503.589C468.661 503.654 468.603 503.701 468.537 503.701H464.371C463.979 503.701 463.661 504.019 463.661 504.411C463.661 504.803 463.979 505.121 464.371 505.121H471.632C472.024 505.121 472.342 504.803 472.342 504.411C472.342 504.019 472.024 503.701 471.632 503.701H470.268C470.18 503.701 470.114 503.621 470.13 503.535C470.161 503.367 470.194 503.181 470.226 502.98C470.385 502 470.549 500.641 470.567 499.129Z" fill="#FF00FF"/>
<path fill-rule="evenodd" clip-rule="evenodd" d="M470.614 521.381C470.525 521.381 470.459 521.3 470.476 521.214C470.531 520.933 470.591 520.601 470.651 520.227C470.853 518.98 471.062 517.251 471.086 515.328C471.093 514.733 470.61 514.259 470.027 514.259L464.532 514.266C464.14 514.266 463.823 514.584 463.823 514.976C463.823 515.368 464.142 515.686 464.534 515.686L469.515 515.68C469.594 515.68 469.657 515.745 469.655 515.823C469.606 517.453 469.426 518.915 469.25 520C469.166 520.518 469.083 520.949 469.016 521.27C469.003 521.335 468.946 521.381 468.88 521.381H463.353C462.961 521.381 462.643 521.699 462.643 522.091C462.643 522.483 462.961 522.801 463.353 522.801H472.647C473.039 522.801 473.357 522.483 473.357 522.091C473.357 521.699 473.039 521.381 472.647 521.381H470.614Z" fill="#FF00FF"/>
<path fill-rule="evenodd" clip-rule="evenodd" d="M519.022 497.321C518.63 497.321 518.312 497.638 518.312 498.031C518.312 498.423 518.63 498.741 519.022 498.741H524.234C524.312 498.741 524.374 498.803 524.374 498.881V500.373C524.374 500.45 524.312 500.513 524.234 500.513H519.164C518.772 500.513 518.454 500.83 518.454 501.223C518.454 501.615 518.772 501.933 519.164 501.933H524.234C524.312 501.933 524.374 501.995 524.374 502.073V503.565C524.374 503.642 524.312 503.705 524.234 503.705L518.877 503.705C518.485 503.705 518.167 504.023 518.167 504.415C518.167 504.807 518.485 505.125 518.877 505.125H524.374C525.159 505.125 525.794 504.489 525.794 503.705V498.741C525.794 497.956 525.159 497.321 524.374 497.321H519.022Z" fill="#FF00FF"/>
<path fill-rule="evenodd" clip-rule="evenodd" d="M518.297 513.81C517.905 513.81 517.587 514.128 517.587 514.52C517.587 514.912 517.905 515.23 518.297 515.23H525.034C525.111 515.23 525.174 515.293 525.174 515.37V517.664C525.174 517.742 525.111 517.804 525.034 517.804H518.475C518.083 517.804 517.765 518.122 517.765 518.514C517.765 518.907 518.083 519.224 518.475 519.224H525.034C525.111 519.224 525.174 519.287 525.174 519.364V521.659C525.174 521.736 525.111 521.799 525.034 521.799L518.116 521.799C517.724 521.799 517.406 522.117 517.406 522.509C517.406 522.901 517.724 523.219 518.116 523.219H525.174C525.958 523.219 526.594 522.583 526.594 521.799V518.514V515.23C526.594 514.446 525.958 513.81 525.174 513.81H518.297Z" fill="#FF00FF"/>
<path fill-rule="evenodd" clip-rule="evenodd" d="M571.912 496.56C571.52 496.56 571.202 496.878 571.202 497.27C571.202 497.662 571.52 497.98 571.912 497.98L579.165 497.98C579.251 497.98 579.316 498.056 579.303 498.141C579.225 498.619 579.113 499.093 578.963 499.555C578.944 499.612 578.891 499.65 578.831 499.65H572.346C571.954 499.65 571.636 499.968 571.636 500.36C571.636 500.752 571.954 501.07 572.346 501.07H578.049C578.157 501.07 578.224 501.186 578.167 501.278C578.045 501.473 577.914 501.664 577.771 501.85C576.812 503.1 575.333 504.163 573.075 504.765C572.696 504.866 572.471 505.255 572.572 505.634C572.673 506.013 573.062 506.238 573.44 506.137C575.97 505.463 577.728 504.238 578.898 502.714C580.061 501.199 580.604 499.434 580.791 497.73C580.862 497.088 580.351 496.56 579.737 496.56L571.912 496.56Z" fill="#FF00FF"/>
<path fill-rule="evenodd" clip-rule="evenodd" d="M571.191 516.703C571.191 516.115 571.668 515.638 572.256 515.638L579.745 515.638C580.366 515.638 580.862 516.17 580.804 516.797C580.651 518.468 580.374 520.11 579.439 521.481C578.485 522.881 576.923 523.894 574.424 524.486C574.042 524.577 573.66 524.341 573.569 523.959C573.479 523.578 573.715 523.195 574.096 523.105C576.365 522.567 577.569 521.704 578.266 520.682C578.901 519.75 579.175 518.604 579.334 517.213C579.344 517.131 579.279 517.058 579.196 517.058L572.751 517.058C572.674 517.058 572.611 517.121 572.611 517.198V519.203C572.611 519.595 572.293 519.913 571.901 519.913C571.509 519.913 571.191 519.595 571.191 519.203V516.703Z" fill="#FF00FF"/>
<path fill-rule="evenodd" clip-rule="evenodd" d="M625.22 495.994C625.319 495.972 625.423 495.96 625.53 495.96H626C626.392 495.96 626.71 495.642 626.71 495.25C626.71 494.858 626.392 494.54 626 494.54H625.53C625.319 494.54 625.112 494.563 624.913 494.607C624.53 494.692 624.288 495.072 624.373 495.454C624.458 495.837 624.837 496.079 625.22 495.994ZM628.43 494.54C628.037 494.54 627.72 494.858 627.72 495.25C627.72 495.642 628.037 495.96 628.43 495.96H629.37C629.762 495.96 630.08 495.642 630.08 495.25C630.08 494.858 629.762 494.54 629.37 494.54H628.43ZM631.8 494.54C631.407 494.54 631.09 494.858 631.09 495.25C631.09 495.642 631.407 495.96 631.8 495.96H632.27C632.377 495.96 632.481 495.972 632.58 495.994C632.962 496.079 633.342 495.837 633.427 495.454C633.512 495.072 633.27 494.692 632.887 494.607C632.688 494.563 632.481 494.54 632.27 494.54H631.8ZM624.144 497.07C624.229 496.688 623.987 496.308 623.604 496.223C623.222 496.138 622.842 496.38 622.757 496.763C622.713 496.962 622.69 497.169 622.69 497.38V497.85C622.69 498.243 623.008 498.56 623.4 498.56C623.792 498.56 624.11 498.243 624.11 497.85V497.38C624.11 497.273 624.122 497.169 624.144 497.07ZM635.042 496.763C634.958 496.38 634.578 496.138 634.196 496.223C633.813 496.308 633.571 496.688 633.656 497.07C633.678 497.169 633.69 497.273 633.69 497.38V497.85C633.69 498.243 634.008 498.56 634.4 498.56C634.792 498.56 635.11 498.243 635.11 497.85V497.38C635.11 497.169 635.087 496.962 635.042 496.763ZM635.11 500.28C635.11 499.887 634.792 499.57 634.4 499.57C634.008 499.57 633.69 499.887 633.69 500.28V501.22C633.69 501.613 634.008 501.93 634.4 501.93C634.792 501.93 635.11 501.613 635.11 501.22V500.28ZM624.11 500.28C624.11 499.887 623.792 499.57 623.4 499.57C623.008 499.57 622.69 499.887 622.69 500.28V501.22C622.69 501.613 623.008 501.93 623.4 501.93C623.792 501.93 624.11 501.613 624.11 501.22V500.28ZM635.11 503.65C635.11 503.257 634.792 502.94 634.4 502.94C634.008 502.94 633.69 503.257 633.69 503.65V504.12C633.69 504.227 633.678 504.331 633.656 504.43C633.571 504.813 633.813 505.192 634.196 505.277C634.578 505.362 634.958 505.12 635.042 504.737C635.087 504.538 635.11 504.331 635.11 504.12V503.65ZM624.11 503.65C624.11 503.257 623.792 502.94 623.4 502.94C623.008 502.94 622.69 503.257 622.69 503.65V504.12C622.69 504.331 622.713 504.538 622.757 504.737C622.842 505.12 623.222 505.362 623.604 505.277C623.987 505.192 624.229 504.813 624.144 504.43C624.122 504.331 624.11 504.227 624.11 504.12V503.65ZM625.22 505.506C624.837 505.421 624.458 505.663 624.373 506.046C624.288 506.428 624.53 506.808 624.913 506.893C625.112 506.937 625.319 506.96 625.53 506.96H626C626.392 506.96 626.71 506.642 626.71 506.25C626.71 505.858 626.392 505.54 626 505.54H625.53C625.423 505.54 625.319 505.528 625.22 505.506ZM632.887 506.893C633.27 506.808 633.512 506.428 633.427 506.046C633.342 505.663 632.962 505.421 632.58 505.506C632.481 505.528 632.377 505.54 632.27 505.54H631.8C631.407 505.54 631.09 505.858 631.09 506.25C631.09 506.642 631.407 506.96 631.8 506.96H632.27C632.481 506.96 632.688 506.937 632.887 506.893ZM628.43 505.54C628.037 505.54 627.72 505.858 627.72 506.25C627.72 506.642 628.037 506.96 628.43 506.96H629.37C629.762 506.96 630.08 506.642 630.08 506.25C630.08 505.858 629.762 505.54 629.37 505.54H628.43ZM625.985 500.04C625.593 500.04 625.275 500.358 625.275 500.75C625.275 501.142 625.593 501.46 625.985 501.46H631.825C632.217 501.46 632.535 501.142 632.535 500.75C632.535 500.358 632.217 500.04 631.825 500.04H625.985Z" fill="#FF00FF"/>
<path fill-rule="evenodd" clip-rule="evenodd" d="M628.19 523.247C628.19 523.639 628.508 523.957 628.9 523.957C629.292 523.957 629.61 523.639 629.61 523.247L629.61 516.492C629.61 516.414 629.672 516.352 629.75 516.352H633.389C633.781 516.352 634.099 516.034 634.099 515.642C634.099 515.249 633.781 514.932 633.389 514.932L629.75 514.932C629.672 514.932 629.61 514.869 629.61 514.792V513.81C629.61 513.418 629.292 513.1 628.9 513.1C628.508 513.1 628.19 513.418 628.19 513.81V514.792C628.19 514.869 628.127 514.932 628.05 514.932L624.411 514.932C624.018 514.932 623.701 515.249 623.701 515.642C623.701 516.034 624.018 516.352 624.411 516.352H628.05C628.127 516.352 628.19 516.414 628.19 516.492L628.19 523.247ZM626.375 517.557C626.756 517.649 626.991 518.033 626.899 518.414C626.473 520.177 625.858 521.415 624.869 522.629C624.621 522.933 624.174 522.979 623.87 522.731C623.566 522.484 623.52 522.037 623.768 521.733C624.613 520.695 625.138 519.654 625.518 518.081C625.61 517.699 625.994 517.465 626.375 517.557ZM630.901 518.414C630.809 518.033 631.043 517.649 631.424 517.557C631.805 517.465 632.189 517.699 632.281 518.081C632.661 519.654 633.187 520.695 634.032 521.733C634.279 522.037 634.234 522.484 633.93 522.731C633.626 522.979 633.178 522.933 632.931 522.629C631.941 521.415 631.327 520.177 630.901 518.414Z" fill="#FF00FF"/>
<path fill-rule="evenodd" clip-rule="evenodd" d="M678.753 520.902C678.434 520.674 678.361 520.23 678.589 519.912L681.709 515.557C682.103 515.006 682.905 514.96 683.361 515.46C683.894 516.045 684.377 516.584 684.853 517.116C686.116 518.527 687.335 519.889 689.34 521.93C689.614 522.209 689.611 522.659 689.331 522.934C689.051 523.209 688.602 523.205 688.327 522.925C686.297 520.859 685.05 519.465 683.78 518.047C683.435 517.661 683.088 517.274 682.723 516.87C682.664 516.804 682.558 516.81 682.506 516.883L679.744 520.739C679.515 521.057 679.072 521.131 678.753 520.902Z" fill="#FF00FF"/>
<path fill-rule="evenodd" clip-rule="evenodd" d="M127.302 621.989C126.911 622.015 126.615 622.354 126.642 622.745C126.668 623.136 127.007 623.432 127.398 623.406L127.625 623.39C128.447 623.335 129.261 623.28 130.125 623.173C130.209 623.162 130.284 623.227 130.284 623.312V624.387C130.284 624.473 130.283 624.557 130.283 624.64C130.283 624.717 130.22 624.779 130.143 624.779H126.56C126.168 624.779 125.85 625.097 125.85 625.489C125.85 625.881 126.168 626.199 126.56 626.199H130.097C130.178 626.199 130.242 626.267 130.237 626.347C130.174 627.368 130.038 628.119 129.77 628.708C129.39 629.539 128.699 630.131 127.187 630.625C126.814 630.746 126.611 631.147 126.732 631.52C126.854 631.893 127.255 632.096 127.628 631.975C129.355 631.411 130.458 630.621 131.061 629.298C131.435 628.48 131.595 627.496 131.661 626.332C131.665 626.258 131.726 626.199 131.801 626.199H134.44C134.832 626.199 135.15 625.881 135.15 625.489C135.15 625.097 134.832 624.779 134.44 624.779H131.843C131.766 624.779 131.703 624.716 131.703 624.638C131.703 624.555 131.704 624.472 131.704 624.387V623.034C131.704 622.967 131.751 622.91 131.816 622.896C132.407 622.775 133.032 622.621 133.704 622.42C134.079 622.307 134.293 621.912 134.18 621.536C134.068 621.16 133.672 620.947 133.297 621.059C131.028 621.738 129.355 621.85 127.51 621.975L127.302 621.989Z" fill="#FF00FF"/>
<path fill-rule="evenodd" clip-rule="evenodd" d="M182.112 622.115C182.112 621.723 181.794 621.405 181.402 621.405C181.01 621.405 180.692 621.723 180.692 622.115V631.385C180.692 631.778 181.01 632.095 181.402 632.095C181.794 632.095 182.112 631.778 182.112 631.385L182.112 626.68C182.112 626.586 182.203 626.519 182.292 626.547C183.943 627.062 185.902 627.84 187.282 628.525C187.633 628.699 188.059 628.556 188.234 628.205C188.408 627.853 188.265 627.427 187.913 627.253C186.331 626.468 184.041 625.571 182.213 625.04C182.153 625.023 182.112 624.968 182.112 624.905L182.112 622.115Z" fill="#FF00FF"/>
<path fill-rule="evenodd" clip-rule="evenodd" d="M235.589 621.81C235.244 621.623 234.813 621.75 234.626 622.095C234.439 622.439 234.567 622.871 234.911 623.058L237.519 624.474C237.864 624.661 238.295 624.534 238.482 624.189C238.669 623.845 238.542 623.414 238.197 623.226L235.589 621.81ZM242.953 623.976C243.324 624.103 243.522 624.506 243.395 624.877C242.788 626.658 241.937 628.265 240.512 629.49C239.081 630.72 237.141 631.506 234.462 631.772C234.072 631.811 233.724 631.526 233.685 631.136C233.646 630.746 233.931 630.398 234.322 630.359C236.79 630.114 238.43 629.407 239.586 628.414C240.747 627.416 241.488 626.07 242.052 624.419C242.178 624.048 242.582 623.849 242.953 623.976ZM233.65 625.073C233.834 624.727 234.264 624.596 234.61 624.78L237.365 626.249C237.712 626.433 237.843 626.863 237.658 627.209C237.474 627.555 237.044 627.686 236.698 627.502L233.942 626.033C233.596 625.849 233.465 625.419 233.65 625.073Z" fill="#FF00FF"/>
<path fill-rule="evenodd" clip-rule="evenodd" d="M291.152 622.693C291.181 622.302 290.888 621.961 290.497 621.932C290.106 621.903 289.765 622.196 289.736 622.587C289.504 625.689 288.909 627.684 287.318 629.619C287.069 629.922 287.113 630.369 287.416 630.618C287.719 630.867 288.166 630.824 288.415 630.521C290.26 628.278 290.908 625.959 291.152 622.693ZM293.848 622.693C293.819 622.302 294.112 621.961 294.503 621.932C294.894 621.903 295.235 622.196 295.264 622.587C295.496 625.689 296.09 627.684 297.682 629.619C297.931 629.922 297.887 630.369 297.584 630.618C297.281 630.867 296.834 630.824 296.585 630.521C294.74 628.278 294.092 625.959 293.848 622.693Z" fill="#FF00FF"/>
<path fill-rule="evenodd" clip-rule="evenodd" d="M345.539 621.361C345.155 621.444 344.911 621.821 344.994 622.204L345.262 623.452C345.278 623.531 345.226 623.607 345.147 623.62L342.096 624.113C341.709 624.175 341.446 624.54 341.508 624.927C341.571 625.314 341.935 625.577 342.323 625.515L345.46 625.008C345.533 624.996 345.603 625.044 345.619 625.117L345.961 626.709C345.978 626.788 345.926 626.864 345.846 626.877L342.102 627.482C341.715 627.545 341.452 627.909 341.514 628.296C341.577 628.684 341.942 628.947 342.329 628.884L346.159 628.265C346.233 628.253 346.303 628.301 346.318 628.374L346.992 631.513C347.075 631.896 347.452 632.14 347.836 632.058C348.219 631.976 348.463 631.598 348.381 631.215L347.725 628.161C347.708 628.083 347.76 628.006 347.84 627.993L351.207 627.449C351.594 627.387 351.858 627.022 351.795 626.635C351.732 626.248 351.368 625.985 350.981 626.047L347.527 626.605C347.453 626.617 347.383 626.57 347.368 626.497L347.026 624.904C347.009 624.825 347.061 624.749 347.14 624.736L350.313 624.223C350.7 624.161 350.963 623.796 350.9 623.409C350.838 623.022 350.473 622.759 350.086 622.822L346.827 623.348C346.754 623.36 346.684 623.312 346.668 623.239L346.382 621.906C346.3 621.523 345.922 621.279 345.539 621.361Z" fill="#FF00FF"/>
<path fill-rule="evenodd" clip-rule="evenodd" d="M400.64 622.347C400.791 621.985 400.621 621.57 400.259 621.418C399.897 621.267 399.481 621.438 399.33 621.8C398.599 623.549 397.619 624.788 396.121 625.882C395.804 626.113 395.734 626.557 395.966 626.874C396.197 627.19 396.641 627.26 396.958 627.029C398.021 626.252 398.866 625.399 399.552 624.386C399.578 624.347 399.622 624.324 399.668 624.324L403.533 624.324C403.619 624.324 403.685 624.401 403.67 624.485C403.451 625.725 402.984 626.929 402.15 627.963C401.194 629.149 399.718 630.163 397.458 630.739C397.078 630.835 396.848 631.222 396.945 631.602C397.042 631.982 397.428 632.211 397.808 632.115C400.326 631.474 402.083 630.31 403.256 628.854C404.424 627.404 404.973 625.714 405.164 624.079C405.239 623.434 404.726 622.904 404.111 622.904L400.614 622.904C400.511 622.904 400.443 622.797 400.485 622.703C400.538 622.586 400.59 622.468 400.64 622.347Z" fill="#FF00FF"/>
<path fill-rule="evenodd" clip-rule="evenodd" d="M450.102 622.17C449.71 622.17 449.392 622.488 449.392 622.88C449.392 623.272 449.71 623.59 450.102 623.59L457.799 623.59C457.901 623.59 457.969 623.695 457.922 623.785C457.575 624.463 457.011 625.167 456.35 625.824C455.716 626.455 455.036 627.001 454.475 627.393C454.418 627.433 454.34 627.423 454.293 627.372C453.561 626.569 452.795 625.824 452.086 625.243C451.783 624.995 451.335 625.039 451.087 625.343C450.838 625.646 450.883 626.093 451.186 626.342C452.599 627.5 454.304 629.413 455.376 631.015C455.594 631.341 456.035 631.429 456.361 631.211C456.687 630.993 456.775 630.552 456.557 630.226C456.22 629.723 455.827 629.192 455.4 628.662C455.349 628.599 455.362 628.506 455.428 628.458C456.027 628.029 456.712 627.468 457.352 626.831C458.295 625.892 459.225 624.708 459.568 623.471C459.769 622.748 459.178 622.17 458.559 622.17L450.102 622.17Z" fill="#FF00FF"/>
<path fill-rule="evenodd" clip-rule="evenodd" d="M512.365 621.971C512.746 622.065 512.978 622.45 512.884 622.83C512.4 624.787 511.684 626.553 510.444 628.04C509.199 629.533 507.467 630.695 505.031 631.513C504.66 631.638 504.257 631.438 504.132 631.066C504.007 630.695 504.207 630.292 504.579 630.167C506.813 629.417 508.306 628.386 509.354 627.13C510.406 625.868 511.051 624.328 511.506 622.489C511.6 622.109 511.985 621.876 512.365 621.971Z" fill="#FF00FF"/>
<path fill-rule="evenodd" clip-rule="evenodd" d="M566.201 622.303C566.201 621.911 565.883 621.593 565.491 621.593C565.099 621.593 564.781 621.911 564.781 622.303V625.949C564.781 627.635 564.396 628.575 563.778 629.179C563.131 629.812 562.111 630.199 560.558 630.5C560.173 630.574 559.921 630.947 559.996 631.332C560.07 631.717 560.443 631.968 560.828 631.894C562.428 631.584 563.808 631.136 564.771 630.194C565.765 629.222 566.201 627.844 566.201 625.949V622.303ZM558.799 627.549C558.799 627.941 559.117 628.259 559.509 628.259C559.901 628.259 560.219 627.941 560.219 627.549L560.219 622.304C560.219 621.912 559.901 621.594 559.509 621.594C559.117 621.594 558.799 621.912 558.799 622.304V627.549Z" fill="#FF00FF"/>
<path fill-rule="evenodd" clip-rule="evenodd" d="M613.676 630.245C613.599 630.247 613.537 630.184 613.537 630.107L613.537 622.543C613.537 622.151 613.22 621.833 612.827 621.833C612.435 621.833 612.117 622.151 612.117 622.543L612.117 630.298C612.117 630.974 612.624 631.642 613.409 631.664C615.954 631.734 618.972 630.222 620.778 627.26C620.983 626.925 620.877 626.488 620.542 626.284C620.207 626.08 619.77 626.185 619.566 626.52C618.06 628.989 615.634 630.206 613.676 630.245ZM613.537 630.298C613.537 630.299 613.537 630.299 613.537 630.298V630.298Z" fill="#FF00FF"/>
<path fill-rule="evenodd" clip-rule="evenodd" d="M668.934 621.403C669.307 621.525 669.51 621.926 669.387 622.299C669.276 622.637 669.156 622.972 669.021 623.305C668.983 623.398 669.051 623.5 669.152 623.5H675.224C675.616 623.5 675.934 623.818 675.934 624.21C675.934 624.602 675.616 624.92 675.224 624.92H673.165C673.093 624.92 673.032 624.975 673.025 625.047C672.883 626.466 672.569 627.796 671.908 628.949C671.111 630.338 669.846 631.405 667.934 632.091C667.564 632.224 667.158 632.032 667.026 631.663C666.893 631.293 667.085 630.887 667.454 630.755C669.088 630.169 670.067 629.304 670.676 628.242C671.18 627.364 671.456 626.308 671.594 625.074C671.603 624.992 671.539 624.92 671.456 624.92H668.3C668.251 624.92 668.205 624.946 668.18 624.987C667.691 625.783 667.068 626.548 666.242 627.267C665.947 627.525 665.498 627.494 665.241 627.198C664.983 626.903 665.014 626.454 665.309 626.197C666.777 624.918 667.506 623.475 668.038 621.856C668.16 621.483 668.562 621.28 668.934 621.403Z" fill="#FF00FF"/>
<path fill-rule="evenodd" clip-rule="evenodd" d="M157.353 659.288C157.209 658.924 156.796 658.746 156.432 658.89C156.067 659.034 155.889 659.447 156.033 659.812L156.966 662.165C157.111 662.53 157.523 662.708 157.888 662.563C158.252 662.419 158.431 662.006 158.286 661.642L157.353 659.288ZM160.822 659.091C161.213 659.123 161.504 659.466 161.472 659.857C161.351 661.339 161.008 662.752 160.14 663.985C159.267 665.224 157.916 666.209 155.913 666.932C155.544 667.065 155.137 666.873 155.004 666.505C154.871 666.136 155.062 665.729 155.431 665.596C157.235 664.945 158.315 664.111 158.979 663.168C159.646 662.219 159.946 661.087 160.057 659.741C160.089 659.35 160.431 659.059 160.822 659.091ZM153.973 659.353C154.337 659.207 154.75 659.385 154.895 659.749L155.865 662.177C156.011 662.541 155.833 662.954 155.469 663.099C155.105 663.245 154.692 663.067 154.546 662.703L153.577 660.275C153.431 659.911 153.609 659.498 153.973 659.353Z" fill="#FF00FF"/>
<path fill-rule="evenodd" clip-rule="evenodd" d="M157.129 676.199C156.985 675.834 156.572 675.656 156.207 675.8C155.843 675.945 155.664 676.357 155.809 676.722L157.001 679.729C157.146 680.094 157.558 680.272 157.923 680.128C158.287 679.983 158.466 679.571 158.321 679.206L157.129 676.199ZM161.729 676.07C162.12 676.102 162.411 676.445 162.379 676.836C162.225 678.711 161.794 680.478 160.712 682.015C159.626 683.557 157.937 684.794 155.405 685.708C155.036 685.841 154.629 685.65 154.496 685.281C154.363 684.912 154.554 684.505 154.923 684.372C157.256 683.53 158.673 682.443 159.551 681.197C160.432 679.945 160.821 678.459 160.964 676.72C160.996 676.329 161.338 676.038 161.729 676.07ZM153.065 676.391C153.429 676.246 153.843 676.423 153.988 676.787L155.227 679.89C155.373 680.254 155.195 680.667 154.831 680.813C154.467 680.958 154.054 680.781 153.908 680.417L152.669 677.314C152.524 676.95 152.701 676.537 153.065 676.391Z" fill="#FF00FF"/>
<path fill-rule="evenodd" clip-rule="evenodd" d="M214.626 676.564C214.626 676.171 214.308 675.854 213.916 675.854C213.524 675.854 213.206 676.171 213.206 676.564L213.206 678.109C213.206 678.186 213.144 678.249 213.066 678.249H209.83C209.752 678.249 209.69 678.186 209.69 678.109V676.589C209.69 676.197 209.372 675.879 208.98 675.879C208.588 675.879 208.27 676.197 208.27 676.589V678.109C208.27 678.186 208.207 678.249 208.13 678.249H206.66C206.268 678.249 205.95 678.567 205.95 678.959C205.95 679.351 206.268 679.669 206.66 679.669H208.13C208.207 679.669 208.27 679.732 208.27 679.809V682.35C208.27 682.743 208.588 683.06 208.98 683.06C209.372 683.06 209.69 682.743 209.69 682.35V679.809C209.69 679.732 209.752 679.669 209.83 679.669H213.069C213.146 679.669 213.209 679.731 213.209 679.809C213.209 680.301 213.205 680.755 213.177 681.186C213.135 681.867 213.037 682.431 212.84 682.911C212.474 683.8 211.689 684.575 209.669 685.11C209.29 685.211 209.064 685.599 209.165 685.978C209.265 686.357 209.654 686.583 210.033 686.483C212.315 685.878 213.562 684.888 214.153 683.451C214.435 682.767 214.547 682.028 214.595 681.275C214.624 680.809 214.629 680.315 214.629 679.809C214.629 679.732 214.691 679.669 214.769 679.669H216.241C216.633 679.669 216.951 679.351 216.951 678.959C216.951 678.567 216.633 678.249 216.241 678.249H214.766C214.689 678.249 214.626 678.186 214.626 678.109L214.626 676.564Z" fill="#FF00FF"/>
<path fill-rule="evenodd" clip-rule="evenodd" d="M268.922 677.199C268.964 676.809 268.682 676.459 268.292 676.418C267.902 676.376 267.552 676.658 267.51 677.048C267.136 680.565 265.514 683.657 261.593 684.839C261.217 684.952 261.005 685.349 261.118 685.724C261.231 686.099 261.627 686.312 262.003 686.199C266.648 684.798 268.51 681.074 268.922 677.199ZM261.582 680.882C261.717 681.25 262.125 681.439 262.493 681.304C262.861 681.169 263.05 680.762 262.916 680.393C262.5 679.258 261.761 677.845 261.052 676.778C260.835 676.451 260.394 676.362 260.068 676.579C259.741 676.796 259.652 677.237 259.869 677.563C260.526 678.553 261.21 679.866 261.582 680.882Z" fill="#FF00FF"/>
<path fill-rule="evenodd" clip-rule="evenodd" d="M315.334 676.501C315.334 676.109 315.652 675.791 316.044 675.791C316.436 675.791 316.754 676.109 316.754 676.501L316.754 679.321C316.754 679.407 316.83 679.472 316.914 679.459C318.81 679.16 320.894 678.404 322.12 677.673C322.456 677.472 322.892 677.582 323.093 677.918C323.294 678.255 323.184 678.691 322.847 678.892C321.409 679.75 319.025 680.602 316.876 680.9C316.806 680.91 316.754 680.969 316.754 681.039L316.754 683.024C316.754 683.391 316.807 683.653 316.889 683.825C316.96 683.975 317.056 684.067 317.214 684.124C317.435 684.203 317.826 684.261 318.365 684.281C318.886 684.3 319.485 684.283 320.082 684.247C321.278 684.175 322.423 684.027 322.848 683.962C323.236 683.903 323.598 684.169 323.657 684.557C323.717 684.944 323.45 685.307 323.063 685.366C322.602 685.436 321.414 685.589 320.168 685.665C319.546 685.702 318.897 685.722 318.312 685.7C317.745 685.679 317.171 685.617 316.735 685.461C315.595 685.052 315.334 683.949 315.334 683.024L315.334 676.501Z" fill="#FF00FF"/>
<path fill-rule="evenodd" clip-rule="evenodd" d="M376.632 678.044C376.632 677.967 376.57 677.904 376.492 677.904L369.901 677.904C369.508 677.904 369.191 677.587 369.191 677.194C369.191 676.802 369.508 676.484 369.901 676.484L376.632 676.484C377.417 676.484 378.052 677.12 378.052 677.904V683.595C378.052 684.38 377.417 685.015 376.632 685.015L369.657 685.015C369.265 685.015 368.947 684.698 368.947 684.305C368.947 683.913 369.265 683.595 369.657 683.595L376.492 683.595C376.57 683.595 376.632 683.533 376.632 683.455V678.044Z" fill="#FF00FF"/>
<path fill-rule="evenodd" clip-rule="evenodd" d="M424.747 675.698C424.357 675.656 424.007 675.938 423.965 676.328C423.923 676.718 424.205 677.068 424.595 677.11C426.564 677.322 428.96 677.795 430.935 678.379C431.312 678.49 431.706 678.276 431.818 677.9C431.929 677.523 431.714 677.129 431.338 677.017C429.28 676.409 426.8 675.919 424.747 675.698ZM423.774 679.662C423.827 679.273 424.185 679.001 424.573 679.054C426.507 679.318 428.842 679.782 430.898 680.369C431.275 680.477 431.494 680.87 431.386 681.247C431.278 681.624 430.885 681.842 430.508 681.734C428.525 681.168 426.256 680.717 424.381 680.461C423.993 680.408 423.721 680.05 423.774 679.662ZM422.879 683.153C422.932 682.764 423.29 682.492 423.679 682.545C425.608 682.808 429.695 683.669 431.673 684.433C432.038 684.575 432.22 684.986 432.079 685.351C431.938 685.717 431.527 685.899 431.161 685.758C429.33 685.051 425.367 684.209 423.487 683.952C423.098 683.899 422.826 683.542 422.879 683.153Z" fill="#FF00FF"/>
<path fill-rule="evenodd" clip-rule="evenodd" d="M477.599 675.961C477.207 675.961 476.889 676.279 476.889 676.671C476.889 677.063 477.207 677.381 477.599 677.381H479.646C479.723 677.381 479.786 677.444 479.786 677.521V679.252C479.786 679.329 479.723 679.392 479.646 679.392H476.848C476.456 679.392 476.138 679.71 476.138 680.102C476.138 680.494 476.456 680.812 476.848 680.812H479.646C479.723 680.812 479.786 680.875 479.786 680.952V682.793V682.8C479.786 683.166 479.786 683.65 479.914 684.086C480.058 684.574 480.369 685.03 480.964 685.283C481.327 685.437 481.782 685.499 482.211 685.524C482.657 685.55 483.148 685.54 483.621 685.512C484.569 685.458 485.498 685.333 485.952 685.263C486.34 685.204 486.606 684.842 486.547 684.454C486.488 684.066 486.125 683.8 485.738 683.859C485.307 683.925 484.426 684.044 483.54 684.095C483.097 684.12 482.665 684.128 482.294 684.106C481.906 684.084 481.651 684.032 481.52 683.976C481.386 683.919 481.323 683.844 481.276 683.684C481.215 683.476 481.206 683.199 481.206 682.793V680.952C481.206 680.875 481.268 680.812 481.346 680.812H486.152C486.544 680.812 486.862 680.494 486.862 680.102C486.862 679.71 486.544 679.392 486.152 679.392H481.346C481.268 679.392 481.206 679.329 481.206 679.252V677.521C481.206 677.444 481.268 677.381 481.346 677.381H485.406C485.798 677.381 486.116 677.063 486.116 676.671C486.116 676.279 485.798 675.961 485.406 675.961H477.599Z" fill="#FF00FF"/>
<path fill-rule="evenodd" clip-rule="evenodd" d="M531.03 657.96C530.923 657.96 530.819 657.972 530.72 657.994C530.338 658.079 529.958 657.837 529.873 657.454C529.788 657.072 530.03 656.692 530.413 656.607C530.612 656.563 530.819 656.54 531.03 656.54H531.5C531.893 656.54 532.21 656.858 532.21 657.25C532.21 657.642 531.893 657.96 531.5 657.96H531.03ZM533.22 657.25C533.22 656.858 533.537 656.54 533.93 656.54H534.87C535.263 656.54 535.58 656.858 535.58 657.25C535.58 657.642 535.263 657.96 534.87 657.96H533.93C533.537 657.96 533.22 657.642 533.22 657.25ZM536.59 657.25C536.59 656.858 536.907 656.54 537.3 656.54H537.77C537.981 656.54 538.188 656.563 538.387 656.607C538.77 656.692 539.012 657.072 538.927 657.454C538.842 657.837 538.463 658.079 538.08 657.994C537.981 657.972 537.877 657.96 537.77 657.96H537.3C536.907 657.96 536.59 657.642 536.59 657.25ZM529.104 658.223C529.487 658.308 529.729 658.688 529.644 659.07C529.622 659.169 529.61 659.273 529.61 659.38V659.85C529.61 660.243 529.292 660.56 528.9 660.56C528.508 660.56 528.19 660.243 528.19 659.85V659.38C528.19 659.169 528.213 658.962 528.257 658.763C528.342 658.38 528.722 658.138 529.104 658.223ZM539.696 658.223C540.078 658.138 540.458 658.38 540.543 658.763C540.587 658.962 540.61 659.169 540.61 659.38V659.85C540.61 660.243 540.292 660.56 539.9 660.56C539.508 660.56 539.19 660.243 539.19 659.85V659.38C539.19 659.273 539.178 659.169 539.156 659.07C539.071 658.688 539.313 658.308 539.696 658.223ZM539.9 661.57C540.292 661.57 540.61 661.887 540.61 662.28V663.22C540.61 663.613 540.292 663.93 539.9 663.93C539.508 663.93 539.19 663.613 539.19 663.22V662.28C539.19 661.887 539.508 661.57 539.9 661.57ZM528.9 661.57C529.292 661.57 529.61 661.887 529.61 662.28V663.22C529.61 663.613 529.292 663.93 528.9 663.93C528.508 663.93 528.19 663.613 528.19 663.22V662.28C528.19 661.887 528.508 661.57 528.9 661.57ZM539.9 664.94C540.292 664.94 540.61 665.257 540.61 665.65V666.12C540.61 666.331 540.587 666.538 540.543 666.737C540.458 667.12 540.078 667.362 539.696 667.277C539.313 667.192 539.071 666.813 539.156 666.43C539.178 666.331 539.19 666.227 539.19 666.12V665.65C539.19 665.257 539.508 664.94 539.9 664.94ZM538.927 668.046C539.012 668.428 538.77 668.808 538.387 668.893C538.188 668.937 537.981 668.96 537.77 668.96H537.3C536.907 668.96 536.59 668.642 536.59 668.25C536.59 667.858 536.907 667.54 537.3 667.54H537.77C537.877 667.54 537.981 667.528 538.08 667.506C538.463 667.421 538.842 667.663 538.927 668.046ZM533.22 668.25C533.22 667.858 533.537 667.54 533.93 667.54H534.87C535.263 667.54 535.58 667.858 535.58 668.25C535.58 668.642 535.263 668.96 534.87 668.96H533.93C533.537 668.96 533.22 668.642 533.22 668.25ZM528.787 665.478C528.49 665.222 528.042 665.255 527.786 665.552C527.53 665.849 527.563 666.297 527.86 666.553C528.405 667.023 529.238 667.858 529.875 668.737C530.105 669.055 530.548 669.126 530.866 668.896C531.184 668.666 531.255 668.222 531.025 667.905C530.31 666.916 529.395 666.002 528.787 665.478Z" fill="#FF00FF"/>
<path fill-rule="evenodd" clip-rule="evenodd" d="M535.031 675.943C535.031 675.551 534.714 675.233 534.321 675.233C533.929 675.233 533.611 675.551 533.611 675.943V676.752C533.611 676.83 533.549 676.892 533.471 676.892L530.447 676.892C530.055 676.892 529.737 677.21 529.737 677.602C529.737 677.995 530.055 678.312 530.447 678.312L536.346 678.312C536.47 678.312 536.531 678.46 536.439 678.543C536.36 678.615 536.274 678.689 536.182 678.764C535.675 679.183 535.023 679.617 534.286 680.038C532.81 680.882 531.047 681.644 529.529 682.118C529.154 682.235 528.946 682.633 529.062 683.007C529.179 683.382 529.577 683.59 529.952 683.473C531.049 683.131 532.257 682.651 533.409 682.098C533.503 682.053 533.611 682.121 533.611 682.225V685.556C533.611 685.948 533.929 686.266 534.321 686.266C534.714 686.266 535.031 685.948 535.031 685.556V682.047C535.031 681.943 535.141 681.875 535.234 681.921L538.735 683.658C539.087 683.832 539.513 683.688 539.687 683.337C539.861 682.986 539.718 682.56 539.366 682.386L536.165 680.798C536.068 680.75 536.06 680.614 536.149 680.554C536.487 680.326 536.802 680.094 537.086 679.86C537.662 679.385 538.163 678.86 538.433 678.306C538.605 677.951 538.541 677.567 538.332 677.294C538.135 677.036 537.827 676.892 537.507 676.892L535.171 676.892C535.094 676.892 535.031 676.83 535.031 676.752V675.943Z" fill="#FF00FF"/>
<path fill-rule="evenodd" clip-rule="evenodd" d="M585.03 657.96C584.923 657.96 584.819 657.972 584.72 657.994C584.338 658.079 583.958 657.837 583.873 657.454C583.789 657.072 584.03 656.692 584.413 656.607C584.612 656.563 584.819 656.54 585.03 656.54H585.501C585.893 656.54 586.211 656.858 586.211 657.25C586.211 657.642 585.893 657.96 585.501 657.96H585.03ZM587.22 657.25C587.22 656.858 587.538 656.54 587.93 656.54H588.871C589.263 656.54 589.581 656.858 589.581 657.25C589.581 657.642 589.263 657.96 588.871 657.96H587.93C587.538 657.96 587.22 657.642 587.22 657.25ZM590.59 657.25C590.59 656.858 590.908 656.54 591.3 656.54H591.77C591.981 656.54 592.188 656.563 592.387 656.607C592.77 656.692 593.012 657.072 592.927 657.454C592.842 657.837 592.463 658.079 592.08 657.994C591.981 657.972 591.877 657.96 591.77 657.96H591.3C590.908 657.96 590.59 657.642 590.59 657.25ZM583.105 658.223C583.487 658.308 583.729 658.688 583.644 659.07C583.622 659.169 583.61 659.273 583.61 659.38V659.85C583.61 660.243 583.292 660.56 582.9 660.56C582.508 660.56 582.19 660.243 582.19 659.85V659.38C582.19 659.169 582.213 658.962 582.258 658.763C582.343 658.38 582.722 658.138 583.105 658.223ZM593.696 658.223C594.079 658.138 594.458 658.38 594.543 658.763C594.587 658.962 594.61 659.169 594.61 659.38V659.85C594.61 660.243 594.292 660.56 593.9 660.56C593.508 660.56 593.19 660.243 593.19 659.85V659.38C593.19 659.273 593.178 659.169 593.156 659.07C593.071 658.688 593.313 658.308 593.696 658.223ZM593.9 661.57C594.292 661.57 594.61 661.887 594.61 662.28V663.22C594.61 663.613 594.292 663.93 593.9 663.93C593.508 663.93 593.19 663.613 593.19 663.22V662.28C593.19 661.887 593.508 661.57 593.9 661.57ZM582.9 661.57C583.292 661.57 583.61 661.887 583.61 662.28V663.22C583.61 663.613 583.292 663.93 582.9 663.93C582.508 663.93 582.19 663.613 582.19 663.22V662.28C582.19 661.887 582.508 661.57 582.9 661.57ZM593.9 664.94C594.292 664.94 594.61 665.257 594.61 665.65V666.12C594.61 666.331 594.587 666.538 594.543 666.737C594.458 667.12 594.079 667.362 593.696 667.277C593.313 667.192 593.071 666.813 593.156 666.43C593.178 666.331 593.19 666.227 593.19 666.12V665.65C593.19 665.257 593.508 664.94 593.9 664.94ZM592.927 668.046C593.012 668.428 592.77 668.808 592.387 668.893C592.188 668.937 591.981 668.96 591.77 668.96H591.3C590.908 668.96 590.59 668.642 590.59 668.25C590.59 667.858 590.908 667.54 591.3 667.54H591.77C591.877 667.54 591.981 667.528 592.08 667.506C592.463 667.421 592.842 667.663 592.927 668.046ZM587.22 668.25C587.22 667.858 587.538 667.54 587.93 667.54H588.871C589.263 667.54 589.581 667.858 589.581 668.25C589.581 668.642 589.263 668.96 588.871 668.96H587.93C587.538 668.96 587.22 668.642 587.22 668.25ZM581.11 667.555C581.11 666.183 582.223 665.07 583.595 665.07C584.968 665.07 586.08 666.183 586.08 667.555C586.08 668.927 584.968 670.04 583.595 670.04C582.223 670.04 581.11 668.927 581.11 667.555ZM582.53 667.555C582.53 666.967 583.007 666.49 583.595 666.49C584.183 666.49 584.66 666.967 584.66 667.555C584.66 668.143 584.183 668.62 583.595 668.62C583.007 668.62 582.53 668.143 582.53 667.555Z" fill="#FF00FF"/>
<path fill-rule="evenodd" clip-rule="evenodd" d="M587.611 676.311C587.611 675.919 587.293 675.601 586.901 675.601C586.509 675.601 586.191 675.919 586.191 676.311V679.927C586.191 680.827 586.008 681.798 585.658 682.65C585.306 683.508 584.807 684.197 584.211 684.602C583.886 684.823 583.802 685.264 584.023 685.588C584.243 685.913 584.685 685.997 585.009 685.776C585.905 685.167 586.551 684.214 586.972 683.189C587.394 682.16 587.611 681.006 587.611 679.927V676.311ZM590.733 676.312L590.733 684.012C590.733 684.103 590.819 684.17 590.906 684.141C591.693 683.872 592.791 683.068 593.586 681.235C593.741 680.875 594.159 680.71 594.519 680.866C594.879 681.022 595.044 681.44 594.888 681.799C593.798 684.315 592.074 685.454 590.706 685.643C589.807 685.768 589.313 684.972 589.313 684.349L589.313 676.312C589.313 675.919 589.631 675.602 590.023 675.602C590.415 675.602 590.733 675.919 590.733 676.312Z" fill="#FF00FF"/>
<path fill-rule="evenodd" clip-rule="evenodd" d="M638.72 657.994C638.819 657.972 638.923 657.96 639.03 657.96H639.5C639.892 657.96 640.21 657.642 640.21 657.25C640.21 656.858 639.892 656.54 639.5 656.54H639.03C638.819 656.54 638.612 656.563 638.413 656.607C638.03 656.692 637.788 657.072 637.873 657.454C637.958 657.837 638.337 658.079 638.72 657.994ZM641.93 656.54C641.537 656.54 641.22 656.858 641.22 657.25C641.22 657.642 641.537 657.96 641.93 657.96H642.87C643.262 657.96 643.58 657.642 643.58 657.25C643.58 656.858 643.262 656.54 642.87 656.54H641.93ZM645.3 656.54C644.907 656.54 644.59 656.858 644.59 657.25C644.59 657.642 644.907 657.96 645.3 657.96H645.77C645.877 657.96 645.981 657.972 646.08 657.994C646.462 658.079 646.842 657.837 646.927 657.454C647.012 657.072 646.77 656.692 646.387 656.607C646.188 656.563 645.981 656.54 645.77 656.54H645.3ZM637.644 659.07C637.729 658.688 637.487 658.308 637.104 658.223C636.722 658.138 636.342 658.38 636.257 658.763C636.213 658.962 636.19 659.169 636.19 659.38V659.85C636.19 660.243 636.508 660.56 636.9 660.56C637.292 660.56 637.61 660.243 637.61 659.85V659.38C637.61 659.273 637.622 659.169 637.644 659.07ZM648.542 658.763C648.458 658.38 648.078 658.138 647.696 658.223C647.313 658.308 647.071 658.688 647.156 659.07C647.178 659.169 647.19 659.273 647.19 659.38V659.85C647.19 660.243 647.508 660.56 647.9 660.56C648.292 660.56 648.61 660.243 648.61 659.85V659.38C648.61 659.169 648.587 658.962 648.542 658.763ZM648.61 662.28C648.61 661.887 648.292 661.57 647.9 661.57C647.508 661.57 647.19 661.887 647.19 662.28V663.22C647.19 663.613 647.508 663.93 647.9 663.93C648.292 663.93 648.61 663.613 648.61 663.22V662.28ZM637.61 662.28C637.61 661.887 637.292 661.57 636.9 661.57C636.508 661.57 636.19 661.887 636.19 662.28V663.22C636.19 663.613 636.508 663.93 636.9 663.93C637.292 663.93 637.61 663.613 637.61 663.22V662.28ZM648.61 665.65C648.61 665.257 648.292 664.94 647.9 664.94C647.508 664.94 647.19 665.257 647.19 665.65V666.12C647.19 666.227 647.178 666.331 647.156 666.43C647.071 666.813 647.313 667.192 647.696 667.277C648.078 667.362 648.458 667.12 648.542 666.737C648.587 666.538 648.61 666.331 648.61 666.12V665.65ZM637.61 665.65C637.61 665.257 637.292 664.94 636.9 664.94C636.508 664.94 636.19 665.257 636.19 665.65V666.12C636.19 666.331 636.213 666.538 636.257 666.737C636.342 667.12 636.722 667.362 637.104 667.277C637.487 667.192 637.729 666.813 637.644 666.43C637.622 666.331 637.61 666.227 637.61 666.12V665.65ZM638.72 667.506C638.337 667.421 637.958 667.663 637.873 668.046C637.788 668.428 638.03 668.808 638.413 668.893C638.612 668.937 638.819 668.96 639.03 668.96H639.5C639.892 668.96 640.21 668.642 640.21 668.25C640.21 667.858 639.892 667.54 639.5 667.54H639.03C638.923 667.54 638.819 667.528 638.72 667.506ZM646.387 668.893C646.77 668.808 647.012 668.428 646.927 668.046C646.842 667.663 646.462 667.421 646.08 667.506C645.981 667.528 645.877 667.54 645.77 667.54H645.3C644.907 667.54 644.59 667.858 644.59 668.25C644.59 668.642 644.907 668.96 645.3 668.96H645.77C645.981 668.96 646.188 668.937 646.387 668.893ZM641.93 667.54C641.537 667.54 641.22 667.858 641.22 668.25C641.22 668.642 641.537 668.96 641.93 668.96H642.87C643.262 668.96 643.58 668.642 643.58 668.25C643.58 667.858 643.262 667.54 642.87 667.54H641.93ZM642.4 664.17C643.184 664.17 643.82 663.534 643.82 662.75C643.82 661.966 643.184 661.33 642.4 661.33C641.616 661.33 640.98 661.966 640.98 662.75C640.98 663.534 641.616 664.17 642.4 664.17Z" fill="#FF00FF"/>
<path fill-rule="evenodd" clip-rule="evenodd" d="M646.455 676.56C646.55 676.179 646.317 675.794 645.937 675.7C645.556 675.606 645.171 675.838 645.077 676.219C644.753 677.527 644.282 678.734 643.628 679.827C643.584 679.901 643.484 679.916 643.418 679.86C642.316 678.917 641.186 678.084 640.242 677.53C639.904 677.331 639.469 677.444 639.271 677.782C639.072 678.12 639.185 678.555 639.523 678.754C640.431 679.288 641.54 680.112 642.614 681.042C642.671 681.091 642.679 681.177 642.631 681.235C641.553 682.527 640.138 683.614 638.31 684.467C637.954 684.633 637.801 685.055 637.967 685.41C638.133 685.766 638.555 685.919 638.91 685.754C640.908 684.821 642.47 683.624 643.668 682.207C643.721 682.145 643.815 682.14 643.874 682.196C644.626 682.929 645.308 683.678 645.823 684.367C646.058 684.681 646.503 684.745 646.817 684.511C647.131 684.276 647.196 683.831 646.961 683.517C646.362 682.715 645.566 681.85 644.695 681.015C644.646 680.969 644.637 680.894 644.673 680.837C645.491 679.546 646.072 678.112 646.455 676.56Z" fill="#FF00FF"/>
<path fill-rule="evenodd" clip-rule="evenodd" d="M116.759 567.859C117.121 568.01 117.291 568.426 117.14 568.788C117.09 568.909 117.038 569.027 116.985 569.144C116.943 569.238 117.011 569.345 117.114 569.345L120.611 569.345C121.226 569.345 121.739 569.875 121.664 570.52C121.473 572.155 120.924 573.845 119.756 575.295C118.583 576.751 116.826 577.915 114.308 578.556C113.928 578.652 113.542 578.423 113.445 578.043C113.348 577.663 113.578 577.276 113.958 577.18C115.725 576.73 117.013 576.012 117.947 575.153C118.006 575.099 118.006 575.007 117.947 574.952C117.391 574.438 116.702 573.881 116.071 573.476C115.74 573.265 115.644 572.826 115.856 572.495C116.068 572.165 116.507 572.069 116.837 572.281C117.523 572.721 118.252 573.306 118.854 573.857C118.917 573.915 119.017 573.904 119.064 573.832C119.643 572.937 119.99 571.944 120.17 570.926C120.185 570.842 120.119 570.765 120.033 570.765L116.168 570.765C116.122 570.765 116.078 570.788 116.052 570.827C115.366 571.84 114.521 572.693 113.458 573.469C113.141 573.701 112.697 573.631 112.466 573.314C112.234 572.998 112.304 572.554 112.621 572.322C114.119 571.229 115.099 569.99 115.83 568.241C115.981 567.879 116.397 567.708 116.759 567.859Z" fill="#FF00FF"/>
<path fill-rule="evenodd" clip-rule="evenodd" d="M166.691 569.146C166.691 568.754 167.009 568.436 167.401 568.436H174.599C174.991 568.436 175.309 568.754 175.309 569.146C175.309 569.538 174.991 569.856 174.599 569.856H167.401C167.009 569.856 166.691 569.538 166.691 569.146ZM165.638 572.167C165.638 571.775 165.956 571.457 166.348 571.457H175.652C176.044 571.457 176.362 571.775 176.362 572.167C176.362 572.56 176.044 572.877 175.652 572.877H172.173C172.099 572.877 172.038 572.935 172.033 573.009C171.946 574.262 171.734 575.319 171.211 576.185C170.566 577.253 169.522 577.919 168.015 578.41C167.642 578.532 167.241 578.328 167.12 577.956C166.998 577.583 167.202 577.182 167.575 577.06C168.91 576.625 169.595 576.114 169.995 575.451C170.339 574.883 170.522 574.127 170.607 573.027C170.614 572.946 170.549 572.877 170.468 572.877H166.348C165.956 572.877 165.638 572.56 165.638 572.167Z" fill="#FF00FF"/>
<path fill-rule="evenodd" clip-rule="evenodd" d="M228.91 551.816C229.162 551.515 229.122 551.067 228.822 550.816C228.521 550.564 228.073 550.603 227.821 550.904C226.278 552.746 223.795 554.047 221.725 554.774C221.355 554.904 221.16 555.309 221.29 555.679C221.42 556.049 221.826 556.244 222.195 556.114C223.077 555.804 224.052 555.389 225.019 554.865C225.113 554.814 225.228 554.882 225.228 554.988V558.444C225.228 558.836 225.546 559.154 225.938 559.154C226.33 559.154 226.648 558.836 226.648 558.444V553.931C226.648 553.885 226.67 553.842 226.707 553.816C227.519 553.238 228.277 552.572 228.91 551.816Z" fill="#FF00FF"/>
<path fill-rule="evenodd" clip-rule="evenodd" d="M229.632 568.698C229.883 568.396 229.842 567.949 229.54 567.698C229.239 567.447 228.791 567.489 228.541 567.79C227.773 568.713 226.494 569.751 225.041 570.667C223.592 571.581 222.025 572.338 220.711 572.728C220.335 572.84 220.121 573.235 220.233 573.611C220.345 573.987 220.74 574.201 221.116 574.089C222.341 573.725 223.714 573.095 225.019 572.34C225.113 572.285 225.231 572.353 225.231 572.461V577.256C225.231 577.648 225.549 577.966 225.941 577.966C226.333 577.966 226.651 577.648 226.651 577.256V571.378C226.651 571.333 226.673 571.29 226.711 571.263C227.873 570.452 228.916 569.559 229.632 568.698Z" fill="#FF00FF"/>
<path fill-rule="evenodd" clip-rule="evenodd" d="M275.253 568.048C274.861 568.048 274.543 568.366 274.543 568.758C274.543 569.15 274.861 569.468 275.253 569.468H281.029C281.123 569.468 281.191 569.56 281.16 569.649C280.278 572.172 277.77 574.729 274.251 576.079C273.885 576.219 273.702 576.63 273.842 576.996C273.983 577.362 274.393 577.545 274.76 577.405C276.72 576.653 278.434 575.541 279.779 574.23C279.828 574.182 279.905 574.177 279.961 574.218C281.198 575.134 282.02 575.904 282.96 576.982C283.217 577.278 283.666 577.308 283.962 577.051C284.257 576.793 284.288 576.345 284.03 576.049C283.051 574.926 282.18 574.106 280.936 573.173C280.872 573.126 280.861 573.035 280.909 572.972C281.802 571.829 282.431 570.589 282.73 569.336C282.896 568.644 282.349 568.048 281.703 568.048H275.253Z" fill="#FF00FF"/>
<path fill-rule="evenodd" clip-rule="evenodd" d="M333.289 568.22C333.289 567.828 332.971 567.51 332.579 567.51C332.187 567.51 331.869 567.828 331.869 568.22C331.869 568.686 331.864 569.128 331.852 569.549C331.85 569.625 331.788 569.685 331.712 569.685L329.18 569.685C328.788 569.685 328.47 570.003 328.47 570.395C328.47 570.787 328.788 571.105 329.18 571.105L331.602 571.105C331.685 571.105 331.75 571.176 331.74 571.259C331.654 572.023 331.515 572.708 331.296 573.332C330.834 574.643 330.001 575.723 328.419 576.671C328.083 576.872 327.973 577.309 328.175 577.645C328.377 577.981 328.813 578.091 329.149 577.889C330.991 576.786 332.055 575.452 332.635 573.803C332.915 573.009 333.078 572.151 333.171 571.232C333.179 571.16 333.239 571.105 333.311 571.105L336.325 571.105C336.406 571.105 336.471 571.174 336.465 571.255C336.428 571.776 336.407 572.291 336.387 572.776L336.387 572.776L336.387 572.776C336.377 573.011 336.367 573.239 336.356 573.457C336.314 574.305 336.254 574.995 336.109 575.518C335.966 576.039 335.778 576.254 335.585 576.346C335.371 576.448 334.938 576.504 334.076 576.211C333.705 576.086 333.302 576.284 333.176 576.656C333.05 577.027 333.249 577.43 333.62 577.556C334.613 577.893 335.486 577.967 336.197 577.627C336.929 577.278 337.287 576.59 337.478 575.896C337.669 575.204 337.733 574.369 337.775 573.527C337.786 573.287 337.797 573.046 337.807 572.803C337.834 572.165 337.861 571.516 337.922 570.855C337.978 570.238 337.497 569.685 336.857 569.685L333.414 569.685C333.334 569.685 333.271 569.619 333.273 569.54C333.285 569.112 333.289 568.672 333.289 568.22Z" fill="#FF00FF"/>
<path fill-rule="evenodd" clip-rule="evenodd" d="M383.205 568.452C382.845 568.296 382.427 568.461 382.271 568.82C382.114 569.18 382.279 569.598 382.638 569.754C383.608 570.177 384.834 570.958 385.56 571.545C385.864 571.792 386.311 571.745 386.558 571.44C386.805 571.135 386.758 570.688 386.453 570.441C385.643 569.785 384.308 568.933 383.205 568.452ZM391.756 570.39C391.874 570.016 391.666 569.617 391.292 569.499C390.918 569.381 390.519 569.589 390.401 569.963C389.866 571.659 389.163 573.038 388.068 574.057C386.982 575.067 385.446 575.783 383.131 576.032C382.741 576.074 382.459 576.424 382.501 576.814C382.543 577.204 382.893 577.486 383.283 577.444C385.831 577.17 387.677 576.36 389.035 575.097C390.383 573.843 391.184 572.202 391.756 570.39Z" fill="#FF00FF"/>
<path fill-rule="evenodd" clip-rule="evenodd" d="M442.275 568.169C442.275 567.777 441.957 567.459 441.565 567.459C441.173 567.459 440.855 567.777 440.855 568.169V570.418C440.855 570.42 440.853 570.422 440.851 570.422H436.348C435.956 570.422 435.638 570.74 435.638 571.132C435.638 571.524 435.956 571.842 436.348 571.842H440.668C440.749 571.842 440.813 571.91 440.808 571.991C440.725 573.182 440.529 574.029 440.174 574.676C439.704 575.529 438.895 576.136 437.34 576.658C436.968 576.782 436.767 577.185 436.892 577.557C437.017 577.928 437.419 578.129 437.791 578.004C439.518 577.425 440.708 576.651 441.418 575.36C441.921 574.445 442.148 573.33 442.232 571.974C442.237 571.9 442.298 571.842 442.372 571.842H445.652C446.044 571.842 446.362 571.524 446.362 571.132C446.362 570.74 446.044 570.422 445.652 570.422H442.278C442.276 570.422 442.275 570.42 442.275 570.418V568.169Z" fill="#FF00FF"/>
<path fill-rule="evenodd" clip-rule="evenodd" d="M491.548 570.125C491.156 570.125 490.838 569.807 490.838 569.415C490.838 569.023 491.156 568.705 491.548 568.705H498.462C498.854 568.705 499.172 569.023 499.172 569.415C499.172 569.807 498.854 570.125 498.462 570.125L491.548 570.125ZM499.456 575.375L490.543 575.375C490.151 575.375 489.833 575.693 489.833 576.085C489.833 576.477 490.151 576.795 490.543 576.795L499.456 576.795C499.849 576.795 500.166 576.477 500.166 576.085C500.166 575.693 499.849 575.375 499.456 575.375Z" fill="#FF00FF"/>
<path fill-rule="evenodd" clip-rule="evenodd" d="M545.83 567.657C545.438 567.657 545.12 567.975 545.12 568.367C545.12 568.759 545.438 569.077 545.83 569.077L552.257 569.077C552.65 569.077 552.967 568.759 552.967 568.367C552.967 567.975 552.65 567.657 552.257 567.657L545.83 567.657ZM544.95 570.494C544.557 570.494 544.24 570.812 544.24 571.204C544.239 571.597 544.557 571.914 544.949 571.914L552.145 571.915C552.235 571.915 552.302 571.999 552.279 572.086C552.032 573.023 551.551 573.927 550.767 574.673C549.913 575.486 548.664 576.146 546.87 576.432C546.483 576.494 546.219 576.858 546.281 577.245C546.343 577.632 546.707 577.896 547.094 577.834C549.13 577.509 550.656 576.739 551.746 575.702C552.834 574.667 553.452 573.398 553.728 572.133C553.926 571.223 553.186 570.495 552.371 570.495L544.95 570.494Z" fill="#FF00FF"/>
<path fill-rule="evenodd" clip-rule="evenodd" d="M600.48 568.354C600.48 567.962 600.798 567.644 601.19 567.644C601.583 567.644 601.9 567.962 601.9 568.354V570.297C601.9 570.382 601.976 570.448 602.06 570.436L607.077 569.737C607.774 569.64 608.451 570.27 608.237 571.043C607.816 572.56 606.872 573.701 605.238 574.696C604.903 574.9 604.466 574.794 604.262 574.459C604.058 574.124 604.165 573.687 604.499 573.483C605.546 572.846 606.182 572.197 606.564 571.453C606.613 571.355 606.531 571.246 606.423 571.262L602.021 571.875C601.952 571.885 601.9 571.944 601.9 572.014V575.135C601.9 575.502 601.953 575.763 602.035 575.936C602.107 576.086 602.202 576.178 602.361 576.235C602.873 576.418 603.783 576.463 604.768 576.421C605.719 576.381 606.623 576.266 607.048 576.201C607.436 576.142 607.798 576.408 607.857 576.796C607.916 577.183 607.65 577.545 607.263 577.605C606.802 577.675 605.845 577.796 604.829 577.84C603.847 577.882 602.683 577.859 601.881 577.571C600.741 577.162 600.48 576.059 600.48 575.135V572.251C600.48 572.166 600.405 572.1 600.321 572.112L598.531 572.361C598.142 572.416 597.784 572.145 597.73 571.756C597.675 571.368 597.946 571.009 598.335 570.955L600.36 570.673C600.429 570.663 600.48 570.604 600.48 570.534V568.354Z" fill="#FF00FF"/>
<path fill-rule="evenodd" clip-rule="evenodd" d="M657.81 551.921C657.81 551.529 657.492 551.211 657.1 551.211H655.059C654.473 551.211 653.999 551.685 653.999 552.271V557.58C653.999 557.972 654.317 558.29 654.709 558.29C655.101 558.29 655.419 557.972 655.419 557.58V552.771C655.419 552.693 655.481 552.631 655.559 552.631H657.1C657.492 552.631 657.81 552.313 657.81 551.921Z" fill="#FF00FF"/>
<path fill-rule="evenodd" clip-rule="evenodd" d="M660.294 566.452C660.575 566.178 661.024 566.184 661.298 566.464C661.615 566.79 662.036 567.342 662.302 567.796C662.5 568.135 662.387 568.57 662.049 568.768C661.71 568.966 661.275 568.853 661.077 568.515C660.865 568.153 660.513 567.693 660.281 567.456C660.007 567.175 660.013 566.725 660.294 566.452ZM658.444 567.779C658.725 567.505 659.175 567.511 659.448 567.792C659.765 568.117 660.186 568.67 660.453 569.124C660.651 569.462 660.537 569.897 660.199 570.095C659.861 570.294 659.426 570.18 659.228 569.842C659.016 569.48 658.663 569.02 658.432 568.783C658.158 568.502 658.164 568.053 658.444 567.779ZM659.27 577.54C659.377 577.54 659.481 577.528 659.58 577.506C659.962 577.421 660.342 577.663 660.427 578.046C660.512 578.429 660.27 578.808 659.887 578.893C659.688 578.937 659.481 578.96 659.27 578.96H658.8C658.407 578.96 658.09 578.642 658.09 578.25C658.09 577.858 658.407 577.54 658.8 577.54H659.27ZM657.08 578.25C657.08 578.642 656.762 578.96 656.37 578.96H655.43C655.037 578.96 654.72 578.642 654.72 578.25C654.72 577.858 655.037 577.54 655.43 577.54H656.37C656.762 577.54 657.08 577.858 657.08 578.25ZM653.71 578.25C653.71 578.642 653.392 578.96 653 578.96H652.53C652.319 578.96 652.112 578.937 651.913 578.893C651.53 578.808 651.288 578.429 651.373 578.046C651.458 577.663 651.837 577.421 652.22 577.506C652.319 577.528 652.423 577.54 652.53 577.54H653C653.392 577.54 653.71 577.858 653.71 578.25ZM661.196 577.277C660.813 577.192 660.571 576.813 660.656 576.43C660.678 576.331 660.69 576.227 660.69 576.12V575.65C660.69 575.258 661.008 574.94 661.4 574.94C661.792 574.94 662.11 575.258 662.11 575.65V576.12C662.11 576.331 662.087 576.538 662.042 576.738C661.958 577.12 661.578 577.362 661.196 577.277ZM650.604 577.277C650.222 577.362 649.842 577.12 649.757 576.738C649.713 576.538 649.69 576.331 649.69 576.12V575.65C649.69 575.258 650.008 574.94 650.4 574.94C650.792 574.94 651.11 575.258 651.11 575.65V576.12C651.11 576.227 651.122 576.331 651.144 576.43C651.229 576.813 650.987 577.192 650.604 577.277ZM650.4 573.931C650.008 573.931 649.69 573.613 649.69 573.221V572.28C649.69 571.888 650.008 571.57 650.4 571.57C650.792 571.57 651.11 571.888 651.11 572.28V573.221C651.11 573.613 650.792 573.931 650.4 573.931ZM661.4 573.931C661.008 573.931 660.69 573.613 660.69 573.221V572.28C660.69 571.888 661.008 571.57 661.4 571.57C661.792 571.57 662.11 571.888 662.11 572.28V573.221C662.11 573.613 661.792 573.931 661.4 573.931ZM650.4 570.561C650.008 570.561 649.69 570.243 649.69 569.851V569.38C649.69 569.169 649.713 568.962 649.757 568.763C649.842 568.38 650.222 568.139 650.604 568.224C650.987 568.308 651.229 568.688 651.144 569.07C651.122 569.17 651.11 569.273 651.11 569.38V569.851C651.11 570.243 650.792 570.561 650.4 570.561ZM651.373 567.455C651.288 567.072 651.53 566.693 651.913 566.608C652.112 566.563 652.319 566.54 652.53 566.54H653C653.392 566.54 653.71 566.858 653.71 567.25C653.71 567.642 653.392 567.96 653 567.96H652.53C652.423 567.96 652.319 567.972 652.22 567.994C651.837 568.079 651.458 567.837 651.373 567.455ZM657.08 567.25C657.08 567.642 656.762 567.96 656.37 567.96H655.43C655.037 567.96 654.72 567.642 654.72 567.25C654.72 566.858 655.037 566.54 655.43 566.54H656.37C656.762 566.54 657.08 566.858 657.08 567.25Z" fill="#FF00FF"/>
<path fill-rule="evenodd" clip-rule="evenodd" d="M707.99 557.58C707.99 557.972 708.308 558.29 708.7 558.29H710.741C711.327 558.29 711.801 557.815 711.801 557.23V551.921C711.801 551.529 711.483 551.211 711.091 551.211C710.699 551.211 710.381 551.529 710.381 551.921V556.73C710.381 556.807 710.318 556.87 710.241 556.87H708.7C708.308 556.87 707.99 557.187 707.99 557.58Z" fill="#FF00FF"/>
<path fill-rule="evenodd" clip-rule="evenodd" d="M716.4 568.38C716.4 569.556 715.446 570.51 714.27 570.51C713.094 570.51 712.14 569.556 712.14 568.38C712.14 567.204 713.094 566.25 714.27 566.25C715.446 566.25 716.4 567.204 716.4 568.38ZM714.98 568.38C714.98 568.772 714.662 569.09 714.27 569.09C713.878 569.09 713.56 568.772 713.56 568.38C713.56 567.988 713.878 567.67 714.27 567.67C714.662 567.67 714.98 567.988 714.98 568.38ZM713.27 577.54C713.377 577.54 713.481 577.528 713.58 577.506C713.962 577.421 714.342 577.663 714.427 578.046C714.512 578.429 714.27 578.808 713.887 578.893C713.688 578.937 713.481 578.96 713.27 578.96H712.8C712.407 578.96 712.09 578.642 712.09 578.25C712.09 577.858 712.407 577.54 712.8 577.54H713.27ZM711.08 578.25C711.08 578.642 710.762 578.96 710.37 578.96H709.43C709.037 578.96 708.72 578.642 708.72 578.25C708.72 577.858 709.037 577.54 709.43 577.54H710.37C710.762 577.54 711.08 577.858 711.08 578.25ZM707.71 578.25C707.71 578.642 707.392 578.96 707 578.96H706.53C706.319 578.96 706.112 578.937 705.913 578.893C705.53 578.808 705.288 578.429 705.373 578.046C705.458 577.663 705.837 577.421 706.22 577.506C706.319 577.528 706.423 577.54 706.53 577.54H707C707.392 577.54 707.71 577.858 707.71 578.25ZM715.196 577.277C714.813 577.192 714.571 576.813 714.656 576.43C714.678 576.331 714.69 576.227 714.69 576.12V575.65C714.69 575.258 715.008 574.94 715.4 574.94C715.792 574.94 716.11 575.258 716.11 575.65V576.12C716.11 576.331 716.087 576.538 716.042 576.738C715.958 577.12 715.578 577.362 715.196 577.277ZM704.604 577.277C704.222 577.362 703.842 577.12 703.757 576.738C703.713 576.538 703.69 576.331 703.69 576.12V575.65C703.69 575.258 704.008 574.94 704.4 574.94C704.792 574.94 705.11 575.258 705.11 575.65V576.12C705.11 576.227 705.122 576.331 705.144 576.43C705.229 576.813 704.987 577.192 704.604 577.277ZM704.4 573.931C704.008 573.931 703.69 573.613 703.69 573.221V572.28C703.69 571.888 704.008 571.57 704.4 571.57C704.792 571.57 705.11 571.888 705.11 572.28L705.11 573.221C705.11 573.613 704.792 573.931 704.4 573.931ZM715.4 573.931C715.008 573.931 714.69 573.613 714.69 573.221V572.28C714.69 571.888 715.008 571.57 715.4 571.57C715.792 571.57 716.11 571.888 716.11 572.28V573.221C716.11 573.613 715.792 573.931 715.4 573.931ZM704.4 570.561C704.008 570.561 703.69 570.243 703.69 569.851V569.38C703.69 569.169 703.713 568.962 703.757 568.763C703.842 568.38 704.222 568.139 704.604 568.224C704.987 568.308 705.229 568.688 705.144 569.07C705.122 569.17 705.11 569.273 705.11 569.38V569.851C705.11 570.243 704.792 570.561 704.4 570.561ZM705.373 567.455C705.288 567.072 705.53 566.693 705.913 566.608C706.112 566.563 706.319 566.54 706.53 566.54L707 566.54C707.392 566.54 707.71 566.858 707.71 567.25C707.71 567.642 707.392 567.96 707 567.96H706.53C706.423 567.96 706.319 567.972 706.22 567.994C705.837 568.079 705.458 567.837 705.373 567.455ZM711.08 567.25C711.08 567.642 710.762 567.96 710.37 567.96L709.43 567.96C709.037 567.96 708.72 567.642 708.72 567.25C708.72 566.858 709.037 566.54 709.43 566.54L710.37 566.54C710.762 566.54 711.08 566.858 711.08 567.25Z" fill="#FF00FF"/>
<path fill-rule="evenodd" clip-rule="evenodd" d="M787.795 576.074C787.774 576.12 787.73 576.15 787.679 576.154C787.563 576.162 787.451 576.17 787.344 576.177C786.953 576.203 786.656 576.541 786.682 576.932C786.707 577.323 787.045 577.62 787.437 577.594C789.472 577.461 793.343 577.008 795.512 576.632C795.578 576.621 795.642 576.658 795.666 576.72C795.76 576.969 795.85 577.222 795.937 577.477C796.063 577.848 796.466 578.047 796.838 577.921C797.209 577.795 797.408 577.391 797.282 577.02C796.637 575.122 795.778 573.339 794.969 572.075C794.758 571.745 794.319 571.648 793.988 571.86C793.658 572.071 793.562 572.51 793.773 572.84C794.172 573.463 794.591 574.238 794.99 575.102C795.028 575.186 794.977 575.283 794.886 575.297C793.44 575.533 791.386 575.793 789.622 575.976C789.515 575.987 789.437 575.88 789.479 575.781C790.527 573.309 791.487 570.182 791.95 568.375C792.047 567.995 791.818 567.609 791.438 567.511C791.058 567.414 790.671 567.643 790.574 568.023C790.064 570.019 788.937 573.629 787.795 576.074Z" fill="#FF00FF"/>
<path fill-rule="evenodd" clip-rule="evenodd" d="M207.295 414.074C207.274 414.12 207.23 414.15 207.179 414.154C207.063 414.162 206.951 414.17 206.844 414.177C206.453 414.203 206.156 414.541 206.182 414.932C206.207 415.323 206.545 415.62 206.937 415.594C208.972 415.461 212.843 415.008 215.012 414.632C215.078 414.621 215.142 414.658 215.166 414.72C215.26 414.969 215.35 415.222 215.437 415.477C215.563 415.848 215.966 416.047 216.338 415.921C216.709 415.795 216.908 415.391 216.782 415.02C216.137 413.122 215.278 411.339 214.469 410.075C214.258 409.745 213.819 409.648 213.488 409.86C213.158 410.071 213.062 410.51 213.273 410.84C213.672 411.463 214.091 412.238 214.49 413.102C214.528 413.186 214.477 413.283 214.386 413.297C212.94 413.533 210.886 413.793 209.122 413.976C209.015 413.987 208.937 413.88 208.979 413.781C210.027 411.309 210.987 408.182 211.45 406.375C211.547 405.995 211.318 405.609 210.938 405.511C210.558 405.414 210.171 405.643 210.074 406.023C209.564 408.019 208.437 411.629 207.295 414.074Z" fill="#FF00FF"/>
<path fill-rule="evenodd" clip-rule="evenodd" d="M155.934 405.403C156.307 405.525 156.51 405.926 156.387 406.299C156.276 406.637 156.156 406.972 156.021 407.305C155.983 407.398 156.051 407.5 156.152 407.5H162.224C162.616 407.5 162.934 407.818 162.934 408.21C162.934 408.602 162.616 408.92 162.224 408.92H160.165C160.093 408.92 160.032 408.975 160.025 409.047C159.883 410.466 159.569 411.796 158.908 412.949C158.111 414.338 156.846 415.405 154.934 416.091C154.564 416.224 154.158 416.032 154.026 415.663C153.893 415.293 154.085 414.887 154.454 414.755C156.088 414.169 157.067 413.304 157.676 412.242C158.18 411.364 158.456 410.308 158.594 409.074C158.603 408.992 158.539 408.92 158.456 408.92H155.3C155.251 408.92 155.205 408.946 155.18 408.987C154.691 409.783 154.068 410.548 153.242 411.267C152.947 411.525 152.498 411.494 152.241 411.198C151.983 410.903 152.014 410.454 152.309 410.197C153.777 408.918 154.506 407.475 155.038 405.856C155.16 405.483 155.562 405.28 155.934 405.403Z" fill="#FF00FF"/>
<path fill-rule="evenodd" clip-rule="evenodd" d="M99.2949 414.074C99.2736 414.12 99.2296 414.15 99.1794 414.154C99.0629 414.162 98.9509 414.17 98.8442 414.177C98.4529 414.203 98.1564 414.541 98.182 414.932C98.2075 415.323 98.5454 415.62 98.9367 415.594C100.972 415.461 104.843 415.008 107.012 414.632C107.078 414.621 107.142 414.658 107.166 414.72C107.26 414.969 107.35 415.222 107.437 415.477C107.563 415.848 107.966 416.047 108.338 415.921C108.709 415.795 108.908 415.391 108.782 415.02C108.137 413.122 107.278 411.339 106.469 410.075C106.258 409.745 105.819 409.648 105.488 409.86C105.158 410.071 105.062 410.51 105.273 410.84C105.672 411.463 106.091 412.238 106.49 413.102C106.528 413.186 106.477 413.283 106.386 413.297C104.94 413.533 102.886 413.793 101.122 413.976C101.015 413.987 100.937 413.88 100.979 413.781C102.027 411.309 102.987 408.182 103.45 406.375C103.547 405.995 103.318 405.609 102.938 405.511C102.558 405.414 102.171 405.643 102.074 406.023C101.564 408.019 100.437 411.629 99.2949 414.074Z" fill="#FF00FF"/>
<path fill-rule="evenodd" clip-rule="evenodd" d="M140.546 336.473L146.363 336.473C146.461 336.473 146.528 336.57 146.489 336.66C146.105 337.548 145.45 338.116 144.657 338.457C144.56 338.499 144.457 338.417 144.471 338.312C144.478 338.25 144.486 338.188 144.494 338.125C144.541 337.736 144.264 337.382 143.875 337.334C143.486 337.287 143.132 337.564 143.084 337.953C142.956 339.001 142.826 339.718 142.495 340.309C142.181 340.87 141.641 341.39 140.533 341.907C140.178 342.073 140.024 342.495 140.19 342.85C140.356 343.206 140.779 343.359 141.134 343.193C142.422 342.592 143.233 341.897 143.734 341.003C143.88 340.742 143.996 340.471 144.089 340.191C144.105 340.144 144.144 340.108 144.192 340.097C145.901 339.688 147.531 338.606 148.087 336.344C148.258 335.646 147.704 335.053 147.062 335.053H140.546C140.154 335.053 139.836 335.371 139.836 335.763C139.836 336.155 140.154 336.473 140.546 336.473Z" fill="#FF00FF"/>
<path fill-rule="evenodd" clip-rule="evenodd" d="M139.692 351.6C139.3 351.6 138.982 351.918 138.982 352.31C138.982 352.702 139.3 353.02 139.692 353.02L147.286 353.021C147.381 353.021 147.449 353.114 147.415 353.203C146.88 354.64 145.763 355.546 144.537 356.034C144.439 356.073 144.338 355.991 144.351 355.887C144.401 355.472 144.428 355.05 144.442 354.626C144.455 354.234 144.148 353.906 143.756 353.893C143.364 353.88 143.036 354.187 143.023 354.579C142.981 355.84 142.813 356.91 142.364 357.815C141.925 358.7 141.191 359.481 139.911 360.115C139.56 360.29 139.416 360.715 139.59 361.067C139.764 361.418 140.19 361.562 140.541 361.388C142.069 360.631 143.045 359.638 143.636 358.446C143.745 358.227 143.84 358.002 143.922 357.774C143.939 357.729 143.976 357.695 144.023 357.684C146.088 357.18 148.339 355.74 148.991 352.877C149.147 352.189 148.603 351.601 147.961 351.601L139.692 351.6Z" fill="#FF00FF"/>
<path fill-rule="evenodd" clip-rule="evenodd" d="M85.2024 352.35C85.2024 351.958 85.5203 351.64 85.9124 351.64L93.7374 351.64C94.3515 351.64 94.8615 352.168 94.7912 352.809C94.6042 354.514 94.0607 356.278 92.8976 357.794C91.7284 359.318 89.9697 360.543 87.4405 361.216C87.0616 361.317 86.6725 361.092 86.5716 360.713C86.4706 360.334 86.6959 359.945 87.0748 359.844C89.3333 359.243 90.8117 358.18 91.771 356.93C92.6164 355.828 93.0868 354.543 93.3027 353.22C93.3165 353.136 93.2509 353.06 93.1654 353.06L85.9124 353.06C85.5203 353.06 85.2024 352.742 85.2024 352.35Z" fill="#FF00FF"/>
<path fill-rule="evenodd" clip-rule="evenodd" d="M31.4062 354.637C31.4062 353.455 32.3644 352.497 33.5462 352.497H38.4536C39.6355 352.497 40.5936 353.455 40.5936 354.637V359.42C40.5936 359.422 40.5936 359.424 40.5936 359.426L40.5936 361.186C40.5936 361.578 40.2757 361.896 39.8836 361.896C39.4915 361.896 39.1736 361.578 39.1736 361.186L39.1736 360.98C39.1736 360.903 39.1109 360.84 39.0336 360.84H32.9663C32.889 360.84 32.8263 360.903 32.8263 360.98L32.8263 361.191C32.8263 361.583 32.5084 361.901 32.1163 361.901C31.7242 361.901 31.4063 361.583 31.4063 361.191L31.4063 359.428L31.4062 359.42V354.637ZM39.1736 356.055C39.1736 356.057 39.1736 356.058 39.1736 356.06L39.1736 359.28C39.1736 359.357 39.1109 359.42 39.0336 359.42L32.9663 359.42C32.889 359.42 32.8263 359.357 32.8263 359.28L32.8263 356.06L32.8263 356.055V354.637C32.8263 354.239 33.1486 353.917 33.5462 353.917H38.4536C38.8513 353.917 39.1736 354.239 39.1736 354.637V356.055Z" fill="#FF00FF"/>
<rect x="743.5" y="703" width="67.5" height="54" stroke="#00FFFF"/>
<rect x="676" y="703" width="67.5" height="54" stroke="#00FFFF"/>
<rect x="608.5" y="703" width="67.5" height="54" stroke="#00FFFF"/>
<rect x="541" y="703" width="67.5" height="54" stroke="#00FFFF"/>
<rect x="136" y="703" width="67.5" height="54" stroke="#00FFFF"/>
<rect x="68.5" y="703" width="67.5" height="54" stroke="#00FFFF"/>
<rect x="1" y="703" width="67.5" height="54" stroke="#00FFFF"/>
<rect x="662.5" y="649" width="148.5" height="54" stroke="#00FFFF"/>
<rect x="1" y="649" width="121.5" height="54" stroke="#00FFFF"/>
<rect x="689.5" y="595" width="121.5" height="54" stroke="#00FFFF"/>
<rect x="1" y="595" width="94.5" height="54" stroke="#00FFFF"/>
<rect x="1" y="541" width="81" height="54" stroke="#00FFFF"/>
<rect x="703" y="487" width="108" height="54" stroke="#00FFFF"/>
<rect x="608.5" y="649" width="54" height="54" stroke="#00FFFF"/>
<rect x="554.5" y="649" width="54" height="54" stroke="#00FFFF"/>
<rect x="500.5" y="649" width="54" height="54" stroke="#00FFFF"/>
<rect x="446.5" y="649" width="54" height="54" stroke="#00FFFF"/>
<rect x="392.5" y="649" width="54" height="54" stroke="#00FFFF"/>
<rect x="338.5" y="649" width="54" height="54" stroke="#00FFFF"/>
<rect x="284.5" y="649" width="54" height="54" stroke="#00FFFF"/>
<rect x="230.5" y="649" width="54" height="54" stroke="#00FFFF"/>
<rect x="176.5" y="649" width="54" height="54" stroke="#00FFFF"/>
<rect x="122.5" y="649" width="54" height="54" stroke="#00FFFF"/>
<rect x="635.5" y="595" width="54" height="54" stroke="#00FFFF"/>
<rect x="581.5" y="595" width="54" height="54" stroke="#00FFFF"/>
<rect x="527.5" y="595" width="54" height="54" stroke="#00FFFF"/>
<rect x="473.5" y="595" width="54" height="54" stroke="#00FFFF"/>
<rect x="419.5" y="595" width="54" height="54" stroke="#00FFFF"/>
<rect x="365.5" y="595" width="54" height="54" stroke="#00FFFF"/>
<rect x="311.5" y="595" width="54" height="54" stroke="#00FFFF"/>
<rect x="257.5" y="595" width="54" height="54" stroke="#00FFFF"/>
<rect x="203.5" y="595" width="54" height="54" stroke="#00FFFF"/>
<rect x="149.5" y="595" width="54" height="54" stroke="#00FFFF"/>
<rect x="95.5" y="595" width="54" height="54" stroke="#00FFFF"/>
<rect x="730" y="541" width="81" height="54" stroke="#00FFFF"/>
<rect x="676" y="541" width="54" height="54" stroke="#00FFFF"/>
<rect x="622" y="541" width="54" height="54" stroke="#00FFFF"/>
<rect x="568" y="541" width="54" height="54" stroke="#00FFFF"/>
<rect x="514" y="541" width="54" height="54" stroke="#00FFFF"/>
<rect x="460" y="541" width="54" height="54" stroke="#00FFFF"/>
<rect x="406" y="541" width="54" height="54" stroke="#00FFFF"/>
<rect x="352" y="541" width="54" height="54" stroke="#00FFFF"/>
<rect x="298" y="541" width="54" height="54" stroke="#00FFFF"/>
<rect x="244" y="541" width="54" height="54" stroke="#00FFFF"/>
<rect x="190" y="541" width="54" height="54" stroke="#00FFFF"/>
<rect x="136" y="541" width="54" height="54" stroke="#00FFFF"/>
<rect x="82" y="541" width="54" height="54" stroke="#00FFFF"/>
<rect x="55" y="487" width="54" height="54" stroke="#00FFFF"/>
<rect x="109" y="487" width="54" height="54" stroke="#00FFFF"/>
<rect x="163" y="487" width="54" height="54" stroke="#00FFFF"/>
<rect x="217" y="487" width="54" height="54" stroke="#00FFFF"/>
<rect x="271" y="487" width="54" height="54" stroke="#00FFFF"/>
<rect x="325" y="487" width="54" height="54" stroke="#00FFFF"/>
<rect x="379" y="487" width="54" height="54" stroke="#00FFFF"/>
<rect x="433" y="487" width="54" height="54" stroke="#00FFFF"/>
<rect x="487" y="487" width="54" height="54" stroke="#00FFFF"/>
<rect x="541" y="487" width="54" height="54" stroke="#00FFFF"/>
<rect x="595" y="487" width="54" height="54" stroke="#00FFFF"/>
<rect x="649" y="487" width="54" height="54" stroke="#00FFFF"/>
<rect x="1" y="487" width="54" height="54" stroke="#00FFFF"/>
<rect x="217" y="433" width="54" height="54" stroke="#00FFFF"/>
<rect x="163" y="433" width="54" height="54" stroke="#00FFFF"/>
<rect x="109" y="433" width="54" height="54" stroke="#00FFFF"/>
<rect x="55" y="433" width="54" height="54" stroke="#00FFFF"/>
<rect x="433" y="433" width="54" height="54" stroke="#00FFFF"/>
<rect x="379" y="433" width="54" height="54" stroke="#00FFFF"/>
<rect x="325" y="433" width="54" height="54" stroke="#00FFFF"/>
<rect x="271" y="433" width="54" height="54" stroke="#00FFFF"/>
<rect x="649" y="433" width="54" height="54" stroke="#00FFFF"/>
<rect x="595" y="433" width="54" height="54" stroke="#00FFFF"/>
<rect x="541" y="433" width="54" height="54" stroke="#00FFFF"/>
<rect x="487" y="433" width="54" height="54" stroke="#00FFFF"/>
<rect x="541" y="379" width="54" height="54" stroke="#00FFFF"/>
<rect x="487" y="379" width="54" height="54" stroke="#00FFFF"/>
<rect x="433" y="379" width="54" height="54" stroke="#00FFFF"/>
<rect x="487" y="325" width="54" height="54" stroke="#00FFFF"/>
<rect x="703" y="379" width="54" height="54" stroke="#00FFFF"/>
<rect x="595" y="379" width="108" height="54" stroke="#00FFFF"/>
<rect x="757" y="325" width="54" height="108" stroke="#00FFFF"/>
<rect x="703" y="325" width="54" height="54" stroke="#00FFFF"/>
<rect x="649" y="325" width="54" height="54" stroke="#00FFFF"/>
<rect x="595" y="325" width="54" height="54" stroke="#00FFFF"/>
<rect x="703" y="271" width="54" height="54" stroke="#00FFFF"/>
<rect x="595" y="271" width="54" height="54" stroke="#00FFFF"/>
<rect x="757" y="217" width="54" height="108" stroke="#00FFFF"/>
<rect x="703" y="217" width="54" height="54" stroke="#00FFFF"/>
<rect x="649" y="217" width="54" height="54" stroke="#00FFFF"/>
<rect x="595" y="217" width="54" height="54" stroke="#00FFFF"/>
<rect x="757" y="163" width="54" height="54" stroke="#00FFFF"/>
<rect x="703" y="163" width="54" height="54" stroke="#00FFFF"/>
<rect x="649" y="163" width="54" height="54" stroke="#00FFFF"/>
<rect x="595" y="163" width="54" height="54" stroke="#00FFFF"/>
<rect x="649" y="271" width="54" height="54" stroke="#00FFFF"/>
<rect x="541" y="163" width="54" height="54" stroke="#00FFFF"/>
<rect x="487" y="163" width="54" height="54" stroke="#00FFFF"/>
<rect x="433" y="163" width="54" height="54" stroke="#00FFFF"/>
<rect x="541" y="217" width="54" height="54" stroke="#00FFFF"/>
<rect x="487" y="217" width="54" height="54" stroke="#00FFFF"/>
<rect x="433" y="217" width="54" height="54" stroke="#00FFFF"/>
<rect x="541" y="271" width="54" height="54" stroke="#00FFFF"/>
<rect x="487" y="271" width="54" height="54" stroke="#00FFFF"/>
<rect x="433" y="271" width="54" height="54" stroke="#00FFFF"/>
<rect x="595" y="757" width="81" height="54" stroke="#00FFFF"/>
<rect x="676" y="757" width="54" height="54" stroke="#00FFFF"/>
<rect x="730" y="757" width="81" height="54" stroke="#00FFFF"/>
<rect x="136" y="757" width="81" height="54" stroke="#00FFFF"/>
<rect x="82" y="757" width="54" height="54" stroke="#00FFFF"/>
<rect x="1" y="757" width="81" height="54" stroke="#00FFFF"/>
<rect x="1" y="433" width="54" height="54" stroke="#00FFFF"/>
<rect x="757" y="433" width="54" height="54" stroke="#00FFFF"/>
<rect x="703" y="433" width="54" height="54" stroke="#00FFFF"/>
<rect x="541" y="325" width="54" height="54" stroke="#00FFFF"/>
<rect x="433" y="325" width="54" height="54" stroke="#00FFFF"/>
<rect x="379" y="325" width="54" height="54" stroke="#00FFFF"/>
<rect x="379" y="379" width="54" height="54" stroke="#00FFFF"/>
<rect x="298" y="379" width="81" height="54" stroke="#00FFFF"/>
<rect x="298" y="325" width="81" height="54" stroke="#00FFFF"/>
<rect x="217" y="325" width="81" height="108" stroke="#00FFFF"/>
<rect x="176.5" y="379" width="54" height="54" stroke="#00FFFF"/>
<rect x="122.5" y="379" width="54" height="54" stroke="#00FFFF"/>
<rect x="68.5" y="379" width="54" height="54" stroke="#00FFFF"/>
<rect x="1" y="379" width="67.5" height="54" stroke="#00FFFF"/>
<rect x="109" y="325" width="54" height="54" stroke="#00FFFF"/>
<rect x="55" y="325" width="54" height="54" stroke="#00FFFF"/>
<rect x="1" y="325" width="54" height="54" stroke="#00FFFF"/>
<rect x="163" y="325" width="54" height="54" stroke="#00FFFF"/>
<rect x="271" y="271" width="94.5" height="54" stroke="#00FFFF"/>
<rect x="365.5" y="271" width="67.5" height="54" stroke="#00FFFF"/>
<rect x="217" y="271" width="54" height="54" stroke="#00FFFF"/>
<rect x="163" y="271" width="54" height="54" stroke="#00FFFF"/>
<rect x="95.5" y="271" width="67.5" height="54" stroke="#00FFFF"/>
<rect x="1" y="271" width="94.5" height="54" stroke="#00FFFF"/>
<rect x="379" y="163" width="54" height="54" stroke="#00FFFF"/>
<rect x="271" y="163" width="54" height="54" stroke="#00FFFF"/>
<rect x="163" y="163" width="108" height="54" stroke="#00FFFF"/>
<rect x="95.5" y="163" width="67.5" height="54" stroke="#00FFFF"/>
<rect x="217" y="217" width="54" height="54" stroke="#00FFFF"/>
<rect x="163" y="217" width="54" height="54" stroke="#00FFFF"/>
<rect x="95.5" y="217" width="67.5" height="54" stroke="#00FFFF"/>
<rect x="1" y="217" width="94.5" height="54" stroke="#00FFFF"/>
<rect x="1" y="163" width="94.5" height="54" stroke="#00FFFF"/>
<rect x="730" y="55" width="81" height="108" stroke="#00FFFF"/>
<rect x="635.5" y="109" width="54" height="54" stroke="#00FFFF"/>
<rect x="554.5" y="109" width="81" height="54" stroke="#00FFFF"/>
<rect x="446.5" y="109" width="108" height="54" stroke="#00FFFF"/>
<rect x="311.5" y="109" width="81" height="54" stroke="#00FFFF"/>
<rect x="257.5" y="109" width="54" height="54" stroke="#00FFFF"/>
<rect x="163" y="109" width="94.5" height="54" stroke="#00FFFF"/>
<rect x="82" y="109" width="81" height="54" stroke="#00FFFF"/>
<rect x="1" y="109" width="81" height="54" stroke="#00FFFF"/>
<rect x="635.5" y="55" width="94.5" height="54" stroke="#00FFFF"/>
<rect x="527.5" y="55" width="54" height="54" stroke="#00FFFF"/>
<rect x="473.5" y="55" width="54" height="54" stroke="#00FFFF"/>
<rect x="392.5" y="55" width="81" height="54" stroke="#00FFFF"/>
<rect x="1" y="1" width="54" height="54" stroke="#00FFFF"/>
<rect x="55" y="1" width="54" height="54" stroke="#00FFFF"/>
<rect x="109" y="1" width="54" height="54" stroke="#00FFFF"/>
<rect x="163" y="1" width="54" height="54" stroke="#00FFFF"/>
<rect x="217" y="1" width="54" height="54" stroke="#00FFFF"/>
<rect x="271" y="1" width="54" height="54" stroke="#00FFFF"/>
<rect x="325" y="1" width="54" height="54" stroke="#00FFFF"/>
<rect x="379" y="1" width="54" height="54" stroke="#00FFFF"/>
<rect x="433.5" y="1.5" width="53" height="53" stroke="#00FFFF"/>
<rect x="487.5" y="1.5" width="53" height="53" stroke="#00FFFF"/>
</svg>
