<svg width="812" height="812" viewBox="0 0 812 812" fill="none" xmlns="http://www.w3.org/2000/svg">
<path d="M704.583 728.208V724.086C704.583 723.71 704.803 723.471 705.164 723.471C705.371 723.471 705.54 723.551 705.646 723.692C705.671 723.726 705.693 723.765 705.711 723.802C705.745 723.872 705.83 723.902 705.9 723.868C706.167 723.739 706.786 723.476 707.401 723.476C708.544 723.476 709.194 724.208 709.194 725.405V728.208C709.194 728.619 708.945 728.848 708.588 728.848C708.232 728.848 707.978 728.619 707.978 728.208V725.649C707.978 724.917 707.636 724.506 706.942 724.506C706.249 724.506 705.799 725.009 705.799 725.752V728.208C705.799 728.619 705.545 728.848 705.189 728.848C704.832 728.848 704.583 728.619 704.583 728.208Z" fill="#FF00FF"/>
<path d="M702.202 726.832C702.202 727.457 701.645 727.916 700.962 727.916C700.435 727.916 700.078 727.647 700.078 727.222C700.078 726.798 700.415 726.549 701.001 726.51L702.149 726.44C702.178 726.438 702.202 726.46 702.202 726.489V726.832L702.202 726.832ZM701.284 723.468C700.293 723.468 699.721 723.808 699.429 724.135C699.26 724.325 699.238 724.725 699.47 724.91C699.742 725.127 700.196 724.965 700.352 724.773C700.493 724.6 700.807 724.425 701.235 724.42C701.835 724.412 702.202 724.732 702.202 725.274V725.477C702.202 725.503 702.181 725.525 702.155 725.526L700.83 725.602C699.57 725.68 698.862 726.353 698.862 727.271C698.862 728.189 699.592 728.833 700.591 728.833C701.222 728.833 701.838 728.668 702.145 728.543C702.209 728.517 702.283 728.541 702.319 728.601C702.322 728.605 702.324 728.609 702.326 728.612C702.408 728.728 702.554 728.848 702.812 728.848C703.154 728.848 703.403 728.628 703.403 728.238V725.186C703.403 724.146 702.568 723.468 701.284 723.468Z" fill="#FF00FF"/>
<path d="M713.5 726.832C713.5 727.457 712.944 727.916 712.26 727.916C711.733 727.916 711.377 727.647 711.377 727.222C711.377 726.798 711.713 726.549 712.299 726.51L713.448 726.44C713.476 726.438 713.5 726.46 713.5 726.489V726.832L713.5 726.832ZM712.582 723.468C711.591 723.468 711.02 723.808 710.727 724.135C710.558 724.325 710.536 724.725 710.769 724.91C711.04 725.127 711.495 724.965 711.651 724.773C711.791 724.6 712.106 724.425 712.533 724.42C713.134 724.412 713.5 724.732 713.5 725.274V725.477C713.5 725.503 713.48 725.525 713.453 725.526L712.128 725.602C710.869 725.68 710.161 726.353 710.161 727.271C710.161 728.189 710.891 728.833 711.889 728.833C712.521 728.833 713.137 728.668 713.443 728.543C713.508 728.517 713.581 728.541 713.617 728.601C713.62 728.605 713.623 728.609 713.625 728.612C713.706 728.728 713.853 728.848 714.111 728.848C714.452 728.848 714.701 728.628 714.701 728.238V725.186C714.701 724.146 713.866 723.468 712.582 723.468Z" fill="#FF00FF"/>
<path d="M693.25 728.833C692.859 728.833 692.62 728.594 692.62 728.179V722.275C692.62 721.86 692.859 721.621 693.25 721.621C693.641 721.621 693.88 721.86 693.88 722.275V724.623C693.88 724.751 694.038 724.813 694.126 724.719L696.756 721.88C696.927 721.694 697.078 721.616 697.283 721.616C697.62 721.616 697.869 721.87 697.869 722.192C697.869 722.363 697.811 722.495 697.664 722.651L695.632 724.772C695.582 724.824 695.579 724.905 695.625 724.961L697.874 727.681C698.045 727.891 698.118 728.067 698.118 728.233C698.118 728.574 697.854 728.838 697.513 728.838C697.264 728.838 697.093 728.745 696.897 728.501L694.714 725.833C694.66 725.767 694.56 725.763 694.501 725.826L693.957 726.403C693.907 726.455 693.88 726.525 693.88 726.597V728.179C693.88 728.594 693.645 728.833 693.25 728.833L693.25 728.833Z" fill="#FF00FF"/>
<path d="M637.166 728.75C636.775 728.75 636.536 728.506 636.536 728.096V722.358C636.536 721.948 636.775 721.704 637.166 721.704H640.598C640.945 721.704 641.174 721.909 641.174 722.236C641.174 722.563 640.945 722.769 640.598 722.769H637.937C637.859 722.769 637.796 722.832 637.796 722.91V724.531C637.796 724.609 637.859 724.673 637.937 724.673H640.452C640.774 724.673 640.994 724.863 640.994 725.171C640.994 725.479 640.779 725.674 640.452 725.674H637.937C637.859 725.674 637.796 725.737 637.796 725.816V727.544C637.796 727.622 637.859 727.686 637.937 727.686H640.598C640.945 727.686 641.174 727.891 641.174 728.218C641.174 728.545 640.945 728.75 640.598 728.75H637.166V728.75Z" fill="#FF00FF"/>
<path d="M628.386 728.833C628.03 728.833 627.82 728.613 627.82 728.242V722.422C627.82 721.924 628.128 721.621 628.631 721.621C629.065 721.621 629.314 721.807 629.5 722.275L631.326 726.748C631.374 726.865 631.541 726.865 631.589 726.748L633.411 722.275C633.596 721.811 633.85 721.621 634.29 721.621C634.793 721.621 635.091 721.919 635.091 722.422V728.242C635.091 728.613 634.881 728.833 634.524 728.833C634.168 728.833 633.958 728.613 633.958 728.242V724.382C633.958 724.227 633.744 724.185 633.685 724.328L632.054 728.281C631.931 728.574 631.751 728.706 631.458 728.706C631.165 728.706 630.979 728.574 630.862 728.286L629.231 724.329C629.171 724.185 628.958 724.228 628.958 724.383V728.242C628.958 728.613 628.743 728.833 628.386 728.833Z" fill="#FF00FF"/>
<path d="M625.75 728.833C625.359 728.833 625.12 728.594 625.12 728.179V722.275C625.12 721.86 625.359 721.621 625.75 721.621C626.141 721.621 626.38 721.86 626.38 722.275V728.179C626.38 728.594 626.146 728.833 625.75 728.833Z" fill="#FF00FF"/>
<path d="M109.358 726.832C109.358 727.457 108.801 727.916 108.118 727.916C107.591 727.916 107.234 727.647 107.234 727.222C107.234 726.798 107.571 726.549 108.157 726.51L109.305 726.44C109.334 726.438 109.358 726.46 109.358 726.489V726.832L109.358 726.832ZM108.44 723.468C107.449 723.468 106.877 723.808 106.585 724.135C106.416 724.325 106.394 724.725 106.626 724.91C106.898 725.127 107.352 724.965 107.508 724.773C107.649 724.6 107.963 724.425 108.391 724.42C108.991 724.412 109.358 724.732 109.358 725.274V725.477C109.358 725.503 109.337 725.525 109.311 725.526L107.986 725.602C106.726 725.68 106.018 726.353 106.018 727.271C106.018 728.189 106.748 728.833 107.747 728.833C108.378 728.833 108.994 728.668 109.301 728.543C109.365 728.517 109.439 728.541 109.475 728.601C109.478 728.605 109.48 728.609 109.482 728.612C109.564 728.728 109.71 728.848 109.968 728.848C110.31 728.848 110.559 728.628 110.559 728.238V725.186C110.559 724.146 109.724 723.468 108.44 723.468Z" fill="#FF00FF"/>
<path d="M100.378 728.208V722.231C100.378 721.845 100.607 721.605 100.978 721.605C101.35 721.605 101.579 721.845 101.579 722.231V723.706C101.579 723.809 101.686 723.878 101.78 723.835C102.075 723.701 102.655 723.476 103.239 723.476C104.382 723.476 105.051 724.228 105.051 725.415V728.208C105.051 728.618 104.797 728.848 104.441 728.848C104.084 728.848 103.835 728.618 103.835 728.208V725.664C103.835 724.941 103.474 724.506 102.771 724.506C102.067 724.506 101.594 725.014 101.594 725.776V728.208C101.594 728.618 101.345 728.848 100.988 728.848C100.632 728.848 100.378 728.618 100.378 728.208Z" fill="#FF00FF"/>
<path d="M96.8428 727.837C96.0858 727.837 95.5828 727.177 95.5779 726.162C95.5828 725.156 96.0566 724.487 96.8428 724.487C97.629 724.487 98.1174 725.141 98.1174 726.162C98.1174 727.187 97.5998 727.837 96.8428 727.837ZM99.3627 726.162C99.3627 724.506 98.5276 723.485 97.2138 723.485C96.7278 723.485 95.9577 723.729 95.6568 723.831C95.5893 723.854 95.5146 723.825 95.4829 723.761C95.4749 723.744 95.4666 723.728 95.4562 723.713C95.3369 723.543 95.1612 723.471 94.9625 723.471C94.6157 723.471 94.3716 723.695 94.3716 724.096V729.952C94.3716 730.362 94.6206 730.591 94.9772 730.591C95.3338 730.591 95.5877 730.362 95.5877 729.952V728.593C95.5877 728.491 95.6936 728.422 95.7872 728.464C96.1491 728.627 96.7518 728.833 97.2335 728.833C98.5325 728.833 99.3628 727.812 99.3628 726.162L99.3627 726.162Z" fill="#FF00FF"/>
<path d="M92.532 728.848C92.1756 728.848 91.9216 728.618 91.9216 728.208V722.246C91.9216 721.836 92.1755 721.606 92.532 721.606C92.8885 721.606 93.1375 721.836 93.1375 722.246V728.208C93.1375 728.618 92.8885 728.848 92.532 728.848Z" fill="#FF00FF"/>
<path d="M90.8086 727.866L88.7578 722.3C88.5821 721.826 88.2989 721.621 87.835 721.621C87.3711 721.621 87.0928 721.836 86.9219 722.305L84.876 727.866C84.8174 728.018 84.793 728.154 84.793 728.252C84.793 728.608 85.042 728.833 85.4278 728.833C85.755 728.833 85.9405 728.672 86.0577 728.291L86.4885 727.048C86.5083 726.991 86.562 726.953 86.6224 726.953H89.0523C89.1128 726.953 89.1666 726.992 89.1863 727.049L89.6173 728.301C89.7296 728.677 89.92 728.833 90.2618 728.833C90.628 728.833 90.8917 728.594 90.8917 728.252C90.8917 728.14 90.8673 728.027 90.8087 727.866H90.8086ZM86.8806 725.771L87.6935 723.304C87.7362 723.174 87.9195 723.174 87.9626 723.304L88.7836 725.771C88.8141 725.862 88.7458 725.957 88.6491 725.957H87.0152C86.9187 725.957 86.8504 725.863 86.8806 725.771Z" fill="#FF00FF"/>
<path d="M120.682 780.832C120.682 781.457 120.126 781.916 119.442 781.916C118.915 781.916 118.558 781.647 118.558 781.222C118.558 780.798 118.895 780.549 119.481 780.51L120.629 780.44C120.658 780.438 120.682 780.46 120.682 780.489V780.832L120.682 780.832ZM119.764 777.468C118.773 777.468 118.201 777.808 117.909 778.135C117.74 778.325 117.718 778.725 117.95 778.91C118.222 779.127 118.676 778.965 118.833 778.773C118.973 778.6 119.288 778.425 119.715 778.42C120.316 778.412 120.682 778.732 120.682 779.274V779.477C120.682 779.503 120.661 779.525 120.635 779.526L119.31 779.602C118.05 779.68 117.343 780.353 117.343 781.271C117.343 782.189 118.072 782.833 119.071 782.833C119.703 782.833 120.319 782.668 120.625 782.543C120.689 782.517 120.763 782.541 120.799 782.601C120.802 782.605 120.804 782.609 120.806 782.612C120.888 782.728 121.034 782.848 121.292 782.848C121.634 782.848 121.883 782.628 121.883 782.238V779.186C121.883 778.146 121.048 777.468 119.764 777.468Z" fill="#FF00FF"/>
<path d="M111.702 782.208V776.231C111.702 775.845 111.931 775.605 112.303 775.605C112.674 775.605 112.903 775.845 112.903 776.231V777.706C112.903 777.809 113.01 777.878 113.104 777.835C113.399 777.701 113.98 777.476 114.564 777.476C115.706 777.476 116.376 778.228 116.376 779.415V782.208C116.376 782.618 116.122 782.848 115.765 782.848C115.409 782.848 115.16 782.618 115.16 782.208V779.664C115.16 778.941 114.798 778.506 114.095 778.506C113.392 778.506 112.918 779.014 112.918 779.776V782.208C112.918 782.618 112.669 782.848 112.312 782.848C111.956 782.848 111.702 782.618 111.702 782.208Z" fill="#FF00FF"/>
<path d="M108.167 781.837C107.41 781.837 106.907 781.177 106.902 780.162C106.907 779.156 107.381 778.487 108.167 778.487C108.953 778.487 109.442 779.141 109.442 780.162C109.442 781.187 108.924 781.837 108.167 781.837ZM110.687 780.162C110.687 778.506 109.852 777.485 108.538 777.485C108.052 777.485 107.282 777.729 106.981 777.831C106.914 777.854 106.839 777.825 106.807 777.761C106.799 777.744 106.791 777.728 106.78 777.713C106.661 777.543 106.485 777.471 106.287 777.471C105.94 777.471 105.696 777.695 105.696 778.096V783.952C105.696 784.362 105.945 784.591 106.301 784.591C106.658 784.591 106.912 784.362 106.912 783.952V782.593C106.912 782.491 107.018 782.422 107.111 782.464C107.473 782.627 108.076 782.833 108.558 782.833C109.857 782.833 110.687 781.812 110.687 780.162L110.687 780.162Z" fill="#FF00FF"/>
<path d="M103.856 782.848C103.5 782.848 103.246 782.618 103.246 782.208V776.246C103.246 775.836 103.5 775.606 103.856 775.606C104.213 775.606 104.462 775.836 104.462 776.246V782.208C104.462 782.618 104.213 782.848 103.856 782.848Z" fill="#FF00FF"/>
<path d="M102.133 781.866L100.082 776.3C99.9063 775.826 99.6231 775.621 99.1592 775.621C98.6953 775.621 98.417 775.836 98.2461 776.305L96.2002 781.866C96.1416 782.018 96.1172 782.154 96.1172 782.252C96.1172 782.608 96.3662 782.833 96.752 782.833C97.0792 782.833 97.2647 782.672 97.3819 782.291L97.8127 781.048C97.8325 780.991 97.8862 780.953 97.9466 780.953H100.376C100.437 780.953 100.491 780.992 100.51 781.049L100.941 782.301C101.054 782.677 101.244 782.833 101.586 782.833C101.952 782.833 102.216 782.594 102.216 782.252C102.216 782.14 102.191 782.027 102.133 781.866H102.133ZM98.2048 779.771L99.0177 777.304C99.0604 777.174 99.2437 777.174 99.2868 777.304L100.108 779.771C100.138 779.862 100.07 779.957 99.9733 779.957H98.3394C98.2429 779.957 98.1746 779.863 98.2048 779.771Z" fill="#FF00FF"/>
<path d="M190.922 350.207V346.085C190.922 345.709 191.142 345.47 191.504 345.47C191.71 345.47 191.879 345.55 191.985 345.691C192.01 345.725 192.032 345.764 192.05 345.801C192.084 345.871 192.169 345.901 192.24 345.867C192.506 345.738 193.125 345.475 193.74 345.475C194.883 345.475 195.533 346.207 195.533 347.404V350.207C195.533 350.618 195.284 350.847 194.927 350.847C194.571 350.847 194.317 350.618 194.317 350.207V347.648C194.317 346.916 193.975 346.505 193.281 346.505C192.588 346.505 192.139 347.008 192.139 347.751V350.207C192.139 350.618 191.885 350.847 191.528 350.847C191.172 350.847 190.922 350.618 190.922 350.207Z" fill="#FF00FF"/>
<path d="M188.541 348.831C188.541 349.456 187.985 349.915 187.301 349.915C186.774 349.915 186.417 349.647 186.417 349.222C186.417 348.797 186.754 348.548 187.34 348.509L188.488 348.439C188.517 348.437 188.541 348.46 188.541 348.489V348.831L188.541 348.831ZM187.623 345.467C186.632 345.467 186.061 345.808 185.768 346.135C185.599 346.325 185.577 346.724 185.809 346.91C186.081 347.127 186.535 346.964 186.692 346.772C186.832 346.6 187.147 346.425 187.574 346.419C188.175 346.411 188.541 346.732 188.541 347.274V347.476C188.541 347.503 188.52 347.524 188.494 347.526L187.169 347.601C185.91 347.679 185.202 348.353 185.202 349.27C185.202 350.188 185.932 350.833 186.93 350.833C187.562 350.833 188.178 350.668 188.484 350.542C188.548 350.516 188.622 350.541 188.658 350.6C188.661 350.605 188.663 350.609 188.665 350.611C188.747 350.727 188.893 350.847 189.151 350.847C189.493 350.847 189.742 350.628 189.742 350.237V347.186C189.742 346.146 188.907 345.467 187.623 345.467Z" fill="#FF00FF"/>
<path d="M199.839 348.831C199.839 349.456 199.283 349.915 198.599 349.915C198.072 349.915 197.716 349.647 197.716 349.222C197.716 348.797 198.053 348.548 198.638 348.509L199.787 348.439C199.815 348.437 199.839 348.46 199.839 348.489V348.831L199.839 348.831ZM198.922 345.467C197.931 345.467 197.359 345.808 197.067 346.135C196.897 346.325 196.876 346.724 197.108 346.91C197.379 347.127 197.834 346.964 197.99 346.772C198.13 346.6 198.445 346.425 198.873 346.419C199.473 346.411 199.839 346.732 199.839 347.274V347.476C199.839 347.503 199.819 347.524 199.793 347.526L198.467 347.601C197.208 347.679 196.5 348.353 196.5 349.27C196.5 350.188 197.23 350.833 198.228 350.833C198.86 350.833 199.476 350.668 199.782 350.542C199.847 350.516 199.92 350.541 199.957 350.6C199.959 350.605 199.962 350.609 199.964 350.611C200.045 350.727 200.192 350.847 200.45 350.847C200.792 350.847 201.04 350.628 201.04 350.237V347.186C201.04 346.146 200.206 345.467 198.922 345.467Z" fill="#FF00FF"/>
<path d="M179.589 350.833C179.199 350.833 178.959 350.593 178.959 350.178V344.275C178.959 343.86 179.199 343.621 179.589 343.621C179.98 343.621 180.219 343.86 180.219 344.275V346.622C180.219 346.751 180.377 346.813 180.465 346.718L183.095 343.879C183.266 343.694 183.417 343.616 183.622 343.616C183.959 343.616 184.208 343.87 184.208 344.192C184.208 344.363 184.15 344.495 184.003 344.651L181.971 346.772C181.921 346.824 181.919 346.905 181.964 346.96L184.213 349.68C184.384 349.89 184.457 350.066 184.457 350.232C184.457 350.574 184.193 350.838 183.852 350.838C183.603 350.838 183.432 350.745 183.236 350.501L181.053 347.833C180.999 347.766 180.899 347.763 180.841 347.825L180.296 348.402C180.246 348.455 180.219 348.524 180.219 348.597V350.178C180.219 350.593 179.984 350.833 179.589 350.833L179.589 350.833Z" fill="#FF00FF"/>
<path d="M563.212 80.208V74.2306C563.212 73.8448 563.441 73.6055 563.812 73.6055C564.184 73.6055 564.413 73.8448 564.413 74.2306V75.7063C564.413 75.8095 564.52 75.8781 564.614 75.8353C564.909 75.7007 565.489 75.4759 566.073 75.4759C567.216 75.4759 567.885 76.228 567.885 77.4147V80.2081C567.885 80.6183 567.631 80.8478 567.275 80.8478C566.918 80.8478 566.669 80.6183 566.669 80.2081V77.6638C566.669 76.941 566.308 76.5064 565.605 76.5064C564.901 76.5064 564.428 77.0143 564.428 77.7761V80.2081C564.428 80.6183 564.179 80.8478 563.822 80.8478C563.466 80.8478 563.212 80.6182 563.212 80.208Z" fill="#FF00FF"/>
<path d="M559.956 79.4705V76.6542C559.956 76.5759 559.892 76.5125 559.814 76.5125H559.629C559.326 76.5125 559.14 76.3416 559.14 76.0486C559.14 75.7556 559.326 75.5896 559.629 75.5896H559.814C559.892 75.5896 559.956 75.5261 559.956 75.4479V74.8849C559.956 74.4942 560.19 74.25 560.566 74.25C560.942 74.25 561.172 74.4941 561.172 74.8849V75.4479C561.172 75.5262 561.235 75.5896 561.313 75.5896H561.733C562.036 75.5896 562.222 75.7604 562.222 76.0486C562.222 76.3368 562.036 76.5125 561.733 76.5125H561.313C561.235 76.5125 561.172 76.576 561.172 76.6542V79.2068C561.172 79.5975 561.308 79.7684 561.66 79.7977L561.748 79.8075C562.07 79.8368 562.236 79.9735 562.236 80.2568C562.236 80.6132 561.924 80.8038 561.367 80.8038H561.318C560.415 80.8038 559.956 80.3545 559.956 79.4706H559.956L559.956 79.4705Z" fill="#FF00FF"/>
<path d="M555.753 76.482C556.51 76.482 557.013 77.1413 557.017 78.1571C557.013 79.1631 556.539 79.8322 555.753 79.8322C554.966 79.8322 554.478 79.1778 554.478 78.1571C554.478 77.1315 554.996 76.482 555.753 76.482ZM553.233 78.1572C553.233 79.8128 554.068 80.8334 555.382 80.8334C555.868 80.8334 556.638 80.5894 556.939 80.4874C557.006 80.4645 557.081 80.4942 557.112 80.5582C557.12 80.5745 557.129 80.5907 557.139 80.6055C557.259 80.776 557.434 80.848 557.633 80.848C557.98 80.848 558.224 80.6234 558.224 80.2229V74.2453C558.224 73.835 557.975 73.6055 557.618 73.6055C557.262 73.6055 557.008 73.835 557.008 74.2453V75.7254C557.008 75.8281 556.902 75.897 556.808 75.8548C556.446 75.6919 555.844 75.4857 555.362 75.4857C554.063 75.4857 553.233 76.5064 553.233 78.1571V78.1572Z" fill="#FF00FF"/>
<path d="M551.617 75.4717C551.246 75.4717 551.012 75.7207 551.012 76.1114V80.2081C551.012 80.6036 551.246 80.8478 551.617 80.8478C551.988 80.8478 552.228 80.6037 552.228 80.2081V76.1163C552.228 75.7208 551.988 75.4718 551.617 75.4718V75.4717ZM551.617 74.8467C551.998 74.8467 552.296 74.5537 552.296 74.1875C552.296 73.8213 551.998 73.5283 551.617 73.5283C551.236 73.5283 550.943 73.8164 550.943 74.1875C550.943 74.5586 551.241 74.8467 551.617 74.8467Z" fill="#FF00FF"/>
<path d="M543.468 80.8331C543.077 80.8331 542.863 80.6427 542.741 80.2032L541.178 74.5879C541.134 74.4316 541.115 74.2998 541.115 74.1875C541.115 73.8408 541.359 73.6211 541.735 73.6211C542.062 73.6211 542.267 73.8018 542.345 74.1484L543.41 78.576C543.444 78.7189 543.647 78.7215 543.685 78.5796L544.855 74.2168C544.962 73.7969 545.167 73.6211 545.538 73.6211C545.91 73.6211 546.105 73.8066 546.212 74.2022L547.383 78.5788C547.421 78.7208 547.623 78.7182 547.657 78.5753L548.722 74.1485C548.8 73.7969 549.005 73.6212 549.332 73.6212C549.708 73.6212 549.952 73.8409 549.952 74.1876C549.952 74.295 549.933 74.4269 549.889 74.588L548.322 80.2082C548.204 80.6428 547.99 80.8332 547.604 80.8332C547.198 80.8332 546.984 80.6525 546.862 80.2082L545.67 76.0433C545.63 75.9063 545.436 75.9063 545.397 76.0433L544.205 80.2082C544.088 80.6477 543.863 80.8332 543.468 80.8332L543.468 80.8331Z" fill="#FF00FF"/>
<path d="M501.57 80.8672C500.564 80.8672 499.778 80.3887 499.47 79.6074C499.402 79.417 499.363 79.2607 499.363 79.0556C499.363 78.6845 499.592 78.4501 499.949 78.4501C500.266 78.4501 500.452 78.6064 500.554 78.9628C500.701 79.4804 501.052 79.7636 501.555 79.7636C502.229 79.7636 502.595 79.3534 502.595 78.5917V74.2754C502.595 73.8604 502.83 73.6211 503.225 73.6211C503.621 73.6211 503.85 73.8604 503.85 74.2754V78.6016C503.85 80.0372 503 80.8672 501.57 80.8672Z" fill="#FF00FF"/>
<path d="M496.236 81.6387C495.909 81.6387 495.709 81.4385 495.709 81.1602C495.709 81.0771 495.724 80.9941 495.738 80.9404L497.965 73.2744C498.058 72.9619 498.224 72.8154 498.517 72.8154C498.829 72.8154 499.039 73.0156 499.039 73.3135C499.039 73.3818 499.034 73.4404 499.015 73.5137L496.778 81.209C496.69 81.4971 496.52 81.6387 496.236 81.6387Z" fill="#FF00FF"/>
<path d="M490.75 80.7501C490.359 80.7501 490.12 80.506 490.12 80.0958V74.3584C490.12 73.9482 490.359 73.7041 490.75 73.7041H494.183C494.529 73.7041 494.759 73.9092 494.759 74.2363C494.759 74.5634 494.529 74.7685 494.183 74.7685H491.522C491.443 74.7685 491.38 74.832 491.38 74.9102V76.5311C491.38 76.6094 491.444 76.6728 491.522 76.6728H494.036C494.359 76.6728 494.578 76.8632 494.578 77.1709C494.578 77.4786 494.363 77.6738 494.036 77.6738H491.522C491.443 77.6738 491.38 77.7373 491.38 77.8155V79.5438C491.38 79.6221 491.444 79.6855 491.522 79.6855H494.183C494.529 79.6855 494.759 79.8906 494.759 80.2177C494.759 80.5448 494.529 80.7499 494.183 80.7499H490.75V80.7501Z" fill="#FF00FF"/>
<rect x="743.5" y="703" width="67.5" height="54" stroke="#00FFFF"/>
<rect x="676" y="703" width="67.5" height="54" stroke="#00FFFF"/>
<rect x="608.5" y="703" width="67.5" height="54" stroke="#00FFFF"/>
<rect x="541" y="703" width="67.5" height="54" stroke="#00FFFF"/>
<rect x="136" y="703" width="67.5" height="54" stroke="#00FFFF"/>
<rect x="68.5" y="703" width="67.5" height="54" stroke="#00FFFF"/>
<rect x="1" y="703" width="67.5" height="54" stroke="#00FFFF"/>
<rect x="662.5" y="649" width="148.5" height="54" stroke="#00FFFF"/>
<rect x="1" y="649" width="121.5" height="54" stroke="#00FFFF"/>
<rect x="689.5" y="595" width="121.5" height="54" stroke="#00FFFF"/>
<rect x="1" y="595" width="94.5" height="54" stroke="#00FFFF"/>
<rect x="1" y="541" width="81" height="54" stroke="#00FFFF"/>
<rect x="703" y="487" width="108" height="54" stroke="#00FFFF"/>
<rect x="608.5" y="649" width="54" height="54" stroke="#00FFFF"/>
<rect x="554.5" y="649" width="54" height="54" stroke="#00FFFF"/>
<rect x="500.5" y="649" width="54" height="54" stroke="#00FFFF"/>
<rect x="446.5" y="649" width="54" height="54" stroke="#00FFFF"/>
<rect x="392.5" y="649" width="54" height="54" stroke="#00FFFF"/>
<rect x="338.5" y="649" width="54" height="54" stroke="#00FFFF"/>
<rect x="284.5" y="649" width="54" height="54" stroke="#00FFFF"/>
<rect x="230.5" y="649" width="54" height="54" stroke="#00FFFF"/>
<rect x="176.5" y="649" width="54" height="54" stroke="#00FFFF"/>
<rect x="122.5" y="649" width="54" height="54" stroke="#00FFFF"/>
<rect x="635.5" y="595" width="54" height="54" stroke="#00FFFF"/>
<rect x="581.5" y="595" width="54" height="54" stroke="#00FFFF"/>
<rect x="527.5" y="595" width="54" height="54" stroke="#00FFFF"/>
<rect x="473.5" y="595" width="54" height="54" stroke="#00FFFF"/>
<rect x="419.5" y="595" width="54" height="54" stroke="#00FFFF"/>
<rect x="365.5" y="595" width="54" height="54" stroke="#00FFFF"/>
<rect x="311.5" y="595" width="54" height="54" stroke="#00FFFF"/>
<rect x="257.5" y="595" width="54" height="54" stroke="#00FFFF"/>
<rect x="203.5" y="595" width="54" height="54" stroke="#00FFFF"/>
<rect x="149.5" y="595" width="54" height="54" stroke="#00FFFF"/>
<rect x="95.5" y="595" width="54" height="54" stroke="#00FFFF"/>
<rect x="730" y="541" width="81" height="54" stroke="#00FFFF"/>
<rect x="676" y="541" width="54" height="54" stroke="#00FFFF"/>
<rect x="622" y="541" width="54" height="54" stroke="#00FFFF"/>
<rect x="568" y="541" width="54" height="54" stroke="#00FFFF"/>
<rect x="514" y="541" width="54" height="54" stroke="#00FFFF"/>
<rect x="460" y="541" width="54" height="54" stroke="#00FFFF"/>
<rect x="406" y="541" width="54" height="54" stroke="#00FFFF"/>
<rect x="352" y="541" width="54" height="54" stroke="#00FFFF"/>
<rect x="298" y="541" width="54" height="54" stroke="#00FFFF"/>
<rect x="244" y="541" width="54" height="54" stroke="#00FFFF"/>
<rect x="190" y="541" width="54" height="54" stroke="#00FFFF"/>
<rect x="136" y="541" width="54" height="54" stroke="#00FFFF"/>
<rect x="82" y="541" width="54" height="54" stroke="#00FFFF"/>
<rect x="55" y="487" width="54" height="54" stroke="#00FFFF"/>
<rect x="109" y="487" width="54" height="54" stroke="#00FFFF"/>
<rect x="163" y="487" width="54" height="54" stroke="#00FFFF"/>
<rect x="217" y="487" width="54" height="54" stroke="#00FFFF"/>
<rect x="271" y="487" width="54" height="54" stroke="#00FFFF"/>
<rect x="325" y="487" width="54" height="54" stroke="#00FFFF"/>
<rect x="379" y="487" width="54" height="54" stroke="#00FFFF"/>
<rect x="433" y="487" width="54" height="54" stroke="#00FFFF"/>
<rect x="487" y="487" width="54" height="54" stroke="#00FFFF"/>
<rect x="541" y="487" width="54" height="54" stroke="#00FFFF"/>
<rect x="595" y="487" width="54" height="54" stroke="#00FFFF"/>
<rect x="649" y="487" width="54" height="54" stroke="#00FFFF"/>
<rect x="1" y="487" width="54" height="54" stroke="#00FFFF"/>
<rect x="217" y="433" width="54" height="54" stroke="#00FFFF"/>
<rect x="163" y="433" width="54" height="54" stroke="#00FFFF"/>
<rect x="109" y="433" width="54" height="54" stroke="#00FFFF"/>
<rect x="55" y="433" width="54" height="54" stroke="#00FFFF"/>
<rect x="433" y="433" width="54" height="54" stroke="#00FFFF"/>
<rect x="379" y="433" width="54" height="54" stroke="#00FFFF"/>
<rect x="325" y="433" width="54" height="54" stroke="#00FFFF"/>
<rect x="271" y="433" width="54" height="54" stroke="#00FFFF"/>
<rect x="649" y="433" width="54" height="54" stroke="#00FFFF"/>
<rect x="595" y="433" width="54" height="54" stroke="#00FFFF"/>
<rect x="541" y="433" width="54" height="54" stroke="#00FFFF"/>
<rect x="487" y="433" width="54" height="54" stroke="#00FFFF"/>
<rect x="541" y="379" width="54" height="54" stroke="#00FFFF"/>
<rect x="487" y="379" width="54" height="54" stroke="#00FFFF"/>
<rect x="433" y="379" width="54" height="54" stroke="#00FFFF"/>
<rect x="487" y="325" width="54" height="54" stroke="#00FFFF"/>
<rect x="703" y="379" width="54" height="54" stroke="#00FFFF"/>
<rect x="595" y="379" width="108" height="54" stroke="#00FFFF"/>
<rect x="757" y="325" width="54" height="108" stroke="#00FFFF"/>
<rect x="703" y="325" width="54" height="54" stroke="#00FFFF"/>
<rect x="649" y="325" width="54" height="54" stroke="#00FFFF"/>
<rect x="595" y="325" width="54" height="54" stroke="#00FFFF"/>
<rect x="703" y="271" width="54" height="54" stroke="#00FFFF"/>
<rect x="595" y="271" width="54" height="54" stroke="#00FFFF"/>
<rect x="757" y="217" width="54" height="108" stroke="#00FFFF"/>
<rect x="703" y="217" width="54" height="54" stroke="#00FFFF"/>
<rect x="649" y="217" width="54" height="54" stroke="#00FFFF"/>
<rect x="595" y="217" width="54" height="54" stroke="#00FFFF"/>
<rect x="757" y="163" width="54" height="54" stroke="#00FFFF"/>
<rect x="703" y="163" width="54" height="54" stroke="#00FFFF"/>
<rect x="649" y="163" width="54" height="54" stroke="#00FFFF"/>
<rect x="595" y="163" width="54" height="54" stroke="#00FFFF"/>
<rect x="649" y="271" width="54" height="54" stroke="#00FFFF"/>
<rect x="541" y="163" width="54" height="54" stroke="#00FFFF"/>
<rect x="487" y="163" width="54" height="54" stroke="#00FFFF"/>
<rect x="433" y="163" width="54" height="54" stroke="#00FFFF"/>
<rect x="541" y="217" width="54" height="54" stroke="#00FFFF"/>
<rect x="487" y="217" width="54" height="54" stroke="#00FFFF"/>
<rect x="433" y="217" width="54" height="54" stroke="#00FFFF"/>
<rect x="541" y="271" width="54" height="54" stroke="#00FFFF"/>
<rect x="487" y="271" width="54" height="54" stroke="#00FFFF"/>
<rect x="433" y="271" width="54" height="54" stroke="#00FFFF"/>
<rect x="595" y="757" width="81" height="54" stroke="#00FFFF"/>
<rect x="676" y="757" width="54" height="54" stroke="#00FFFF"/>
<rect x="730" y="757" width="81" height="54" stroke="#00FFFF"/>
<rect x="136" y="757" width="81" height="54" stroke="#00FFFF"/>
<rect x="82" y="757" width="54" height="54" stroke="#00FFFF"/>
<rect x="1" y="757" width="81" height="54" stroke="#00FFFF"/>
<rect x="1" y="433" width="54" height="54" stroke="#00FFFF"/>
<rect x="757" y="433" width="54" height="54" stroke="#00FFFF"/>
<rect x="703" y="433" width="54" height="54" stroke="#00FFFF"/>
<rect x="541" y="325" width="54" height="54" stroke="#00FFFF"/>
<rect x="433" y="325" width="54" height="54" stroke="#00FFFF"/>
<rect x="379" y="325" width="54" height="54" stroke="#00FFFF"/>
<rect x="379" y="379" width="54" height="54" stroke="#00FFFF"/>
<rect x="298" y="379" width="81" height="54" stroke="#00FFFF"/>
<rect x="298" y="325" width="81" height="54" stroke="#00FFFF"/>
<rect x="217" y="325" width="81" height="108" stroke="#00FFFF"/>
<rect x="176.5" y="379" width="54" height="54" stroke="#00FFFF"/>
<rect x="122.5" y="379" width="54" height="54" stroke="#00FFFF"/>
<rect x="68.5" y="379" width="54" height="54" stroke="#00FFFF"/>
<rect x="1" y="379" width="67.5" height="54" stroke="#00FFFF"/>
<rect x="109" y="325" width="54" height="54" stroke="#00FFFF"/>
<rect x="55" y="325" width="54" height="54" stroke="#00FFFF"/>
<rect x="1" y="325" width="54" height="54" stroke="#00FFFF"/>
<rect x="163" y="325" width="54" height="54" stroke="#00FFFF"/>
<rect x="271" y="271" width="94.5" height="54" stroke="#00FFFF"/>
<rect x="365.5" y="271" width="67.5" height="54" stroke="#00FFFF"/>
<rect x="217" y="271" width="54" height="54" stroke="#00FFFF"/>
<rect x="163" y="271" width="54" height="54" stroke="#00FFFF"/>
<rect x="95.5" y="271" width="67.5" height="54" stroke="#00FFFF"/>
<rect x="1" y="271" width="94.5" height="54" stroke="#00FFFF"/>
<rect x="379" y="163" width="54" height="54" stroke="#00FFFF"/>
<rect x="271" y="163" width="54" height="54" stroke="#00FFFF"/>
<rect x="163" y="163" width="108" height="54" stroke="#00FFFF"/>
<rect x="95.5" y="163" width="67.5" height="54" stroke="#00FFFF"/>
<rect x="217" y="217" width="54" height="54" stroke="#00FFFF"/>
<rect x="163" y="217" width="54" height="54" stroke="#00FFFF"/>
<rect x="95.5" y="217" width="67.5" height="54" stroke="#00FFFF"/>
<rect x="1" y="217" width="94.5" height="54" stroke="#00FFFF"/>
<rect x="1" y="163" width="94.5" height="54" stroke="#00FFFF"/>
<rect x="730" y="55" width="81" height="108" stroke="#00FFFF"/>
<rect x="635.5" y="109" width="54" height="54" stroke="#00FFFF"/>
<rect x="554.5" y="109" width="81" height="54" stroke="#00FFFF"/>
<rect x="446.5" y="109" width="108" height="54" stroke="#00FFFF"/>
<rect x="311.5" y="109" width="81" height="54" stroke="#00FFFF"/>
<rect x="257.5" y="109" width="54" height="54" stroke="#00FFFF"/>
<rect x="163" y="109" width="94.5" height="54" stroke="#00FFFF"/>
<rect x="82" y="109" width="81" height="54" stroke="#00FFFF"/>
<rect x="1" y="109" width="81" height="54" stroke="#00FFFF"/>
<rect x="635.5" y="55" width="94.5" height="54" stroke="#00FFFF"/>
<rect x="527.5" y="55" width="54" height="54" stroke="#00FFFF"/>
<rect x="473.5" y="55" width="54" height="54" stroke="#00FFFF"/>
<rect x="392.5" y="55" width="81" height="54" stroke="#00FFFF"/>
<rect x="1" y="1" width="54" height="54" stroke="#00FFFF"/>
<rect x="55" y="1" width="54" height="54" stroke="#00FFFF"/>
<rect x="109" y="1" width="54" height="54" stroke="#00FFFF"/>
<rect x="163" y="1" width="54" height="54" stroke="#00FFFF"/>
<rect x="217" y="1" width="54" height="54" stroke="#00FFFF"/>
<rect x="271" y="1" width="54" height="54" stroke="#00FFFF"/>
<rect x="325" y="1" width="54" height="54" stroke="#00FFFF"/>
<rect x="379" y="1" width="54" height="54" stroke="#00FFFF"/>
<rect x="433.5" y="1.5" width="53" height="53" stroke="#00FFFF"/>
<rect x="487.5" y="1.5" width="53" height="53" stroke="#00FFFF"/>
</svg>
