<svg width="812" height="812" viewBox="0 0 812 812" fill="none" xmlns="http://www.w3.org/2000/svg">
<path fill-rule="evenodd" clip-rule="evenodd" d="M627.311 713.177C626.547 713.177 625.927 713.797 625.927 714.561C625.927 715.326 626.547 715.945 627.311 715.945H628.556C628.633 715.945 628.696 715.883 628.696 715.805V714.561C628.696 713.797 628.076 713.177 627.311 713.177ZM630.256 715.945C630.178 715.945 630.116 715.883 630.116 715.805V714.561C630.116 713.012 628.86 711.757 627.311 711.757C625.763 711.757 624.507 713.012 624.507 714.561C624.507 716.11 625.762 717.365 627.311 717.365H628.556C628.633 717.365 628.696 717.428 628.696 717.505V719.994C628.696 720.071 628.633 720.134 628.556 720.134H627.311C625.763 720.134 624.507 721.39 624.507 722.938C624.507 724.487 625.763 725.743 627.311 725.743C628.86 725.743 630.116 724.487 630.116 722.938V721.694C630.116 721.617 630.178 721.554 630.256 721.554H632.744C632.821 721.554 632.884 721.617 632.884 721.694L632.884 722.938C632.884 724.487 634.14 725.743 635.689 725.743C637.237 725.743 638.493 724.487 638.493 722.938C638.493 721.39 637.237 720.134 635.689 720.134H634.444C634.367 720.134 634.304 720.071 634.304 719.994V717.505C634.304 717.428 634.367 717.365 634.444 717.365H635.689C637.237 717.365 638.493 716.11 638.493 714.561C638.493 713.012 637.237 711.757 635.689 711.757C634.14 711.757 632.884 713.012 632.884 714.561V715.805C632.884 715.883 632.822 715.945 632.744 715.945H630.256ZM630.256 717.365C630.178 717.365 630.116 717.428 630.116 717.505V719.994C630.116 720.071 630.178 720.134 630.256 720.134H632.744C632.821 720.134 632.884 720.071 632.884 719.994L632.884 717.505C632.884 717.428 632.822 717.365 632.744 717.365H630.256ZM634.444 721.554C634.367 721.554 634.304 721.617 634.304 721.694V722.938C634.304 723.703 634.924 724.323 635.689 724.323C636.453 724.323 637.073 723.703 637.073 722.938C637.073 722.174 636.453 721.554 635.689 721.554H634.444ZM634.304 715.805C634.304 715.883 634.367 715.945 634.444 715.945H635.689C636.453 715.945 637.073 715.326 637.073 714.561C637.073 713.797 636.453 713.177 635.689 713.177C634.924 713.177 634.304 713.797 634.304 714.561V715.805ZM628.696 721.694C628.696 721.617 628.633 721.554 628.556 721.554H627.311C626.547 721.554 625.927 722.174 625.927 722.938C625.927 723.703 626.547 724.323 627.311 724.323C628.076 724.323 628.696 723.703 628.696 722.938V721.694Z" fill="#FF00FF"/>
<path fill-rule="evenodd" clip-rule="evenodd" d="M557.725 712.756C557.333 712.756 557.015 713.074 557.015 713.466C557.015 713.858 557.333 714.176 557.725 714.176H561C561.138 714.176 561.268 714.244 561.346 714.358L563.803 717.937C564.146 718.437 564.714 718.736 565.32 718.736H570.275C570.667 718.736 570.985 718.418 570.985 718.026C570.985 717.634 570.667 717.316 570.275 717.316H565.32C565.182 717.316 565.052 717.248 564.974 717.134L562.517 713.555C562.174 713.055 561.606 712.756 561 712.756H557.725ZM565.975 712.756C565.583 712.756 565.265 713.074 565.265 713.466C565.265 713.858 565.583 714.176 565.975 714.176H570.275C570.667 714.176 570.985 713.858 570.985 713.466C570.985 713.074 570.667 712.756 570.275 712.756H565.975Z" fill="#FF00FF"/>
<path fill-rule="evenodd" clip-rule="evenodd" d="M152.725 712.756C152.333 712.756 152.015 713.074 152.015 713.466C152.015 713.858 152.333 714.176 152.725 714.176H156C156.138 714.176 156.268 714.244 156.346 714.358L158.803 717.937C159.146 718.437 159.714 718.736 160.32 718.736H165.275C165.667 718.736 165.985 718.418 165.985 718.026C165.985 717.634 165.667 717.316 165.275 717.316H160.32C160.182 717.316 160.052 717.248 159.974 717.134L157.517 713.555C157.174 713.055 156.606 712.756 156 712.756H152.725ZM160.975 712.756C160.583 712.756 160.265 713.074 160.265 713.466C160.265 713.858 160.583 714.176 160.975 714.176H165.275C165.667 714.176 165.985 713.858 165.985 713.466C165.985 713.074 165.667 712.756 165.275 712.756H160.975Z" fill="#FF00FF"/>
<path fill-rule="evenodd" clip-rule="evenodd" d="M87.3113 713.177C86.5469 713.177 85.927 713.797 85.927 714.561C85.927 715.326 86.5468 715.945 87.3113 715.945H88.5556C88.633 715.945 88.6956 715.883 88.6956 715.805V714.561C88.6956 713.797 88.0758 713.177 87.3113 713.177ZM90.2556 715.945C90.1783 715.945 90.1156 715.883 90.1156 715.805V714.561C90.1156 713.012 88.8601 711.757 87.3113 711.757C85.7626 711.757 84.507 713.012 84.507 714.561C84.507 716.11 85.7625 717.365 87.3113 717.365H88.5556C88.633 717.365 88.6956 717.428 88.6956 717.505V719.994C88.6956 720.071 88.633 720.134 88.5556 720.134H87.3113C85.7626 720.134 84.507 721.39 84.507 722.938C84.507 724.487 85.7626 725.743 87.3113 725.743C88.86 725.743 90.1156 724.487 90.1156 722.938V721.694C90.1156 721.617 90.1783 721.554 90.2556 721.554H92.7437C92.821 721.554 92.8836 721.617 92.8837 721.694L92.8843 722.938C92.8843 724.487 94.1399 725.743 95.6887 725.743C97.2374 725.743 98.4929 724.487 98.4929 722.938C98.4929 721.39 97.2375 720.134 95.6887 720.134H94.4444C94.367 720.134 94.3043 720.071 94.3043 719.994V717.505C94.3043 717.428 94.367 717.365 94.4444 717.365H95.6887C97.2374 717.365 98.4929 716.11 98.4929 714.561C98.4929 713.012 97.2374 711.757 95.6887 711.757C94.1399 711.757 92.8843 713.012 92.8843 714.561V715.805C92.8843 715.883 92.8217 715.945 92.7443 715.945H90.2556ZM90.2556 717.365C90.1783 717.365 90.1156 717.428 90.1156 717.505V719.994C90.1156 720.071 90.1783 720.134 90.2556 720.134H92.7436C92.8209 720.134 92.8836 720.071 92.8836 719.994L92.8843 717.505C92.8843 717.428 92.8216 717.365 92.7443 717.365H90.2556ZM94.4444 721.554C94.367 721.554 94.3043 721.617 94.3043 721.694V722.938C94.3043 723.703 94.9242 724.323 95.6887 724.323C96.4531 724.323 97.0729 723.703 97.0729 722.938C97.0729 722.174 96.4532 721.554 95.6887 721.554H94.4444ZM94.3043 715.805C94.3043 715.883 94.367 715.945 94.4444 715.945H95.6887C96.4531 715.945 97.0729 715.326 97.0729 714.561C97.0729 713.797 96.4531 713.177 95.6887 713.177C94.9241 713.177 94.3043 713.797 94.3043 714.561V715.805ZM88.6956 721.694C88.6956 721.617 88.633 721.554 88.5556 721.554H87.3113C86.5469 721.554 85.927 722.174 85.927 722.938C85.927 723.703 86.5469 724.323 87.3113 724.323C88.0758 724.323 88.6956 723.703 88.6956 722.938V721.694Z" fill="#FF00FF"/>
<path fill-rule="evenodd" clip-rule="evenodd" d="M246.209 463.353C246.209 465.33 244.606 466.933 242.629 466.933C240.652 466.933 239.049 465.33 239.049 463.353C239.049 461.376 240.652 459.773 242.629 459.773C244.606 459.773 246.209 461.376 246.209 463.353ZM245.5 467.585C245.453 467.537 245.379 467.53 245.322 467.566C244.545 468.064 243.621 468.353 242.629 468.353C239.868 468.353 237.629 466.114 237.629 463.353C237.629 460.592 239.868 458.353 242.629 458.353C245.39 458.353 247.629 460.592 247.629 463.353C247.629 464.371 247.325 465.318 246.802 466.108C246.765 466.164 246.772 466.239 246.819 466.287L250.1 469.568C250.461 469.929 250.461 470.515 250.1 470.876C249.739 471.237 249.153 471.237 248.792 470.876L245.5 467.585Z" fill="#FF00FF"/>
<path fill-rule="evenodd" clip-rule="evenodd" d="M184.399 461.404C184.261 461.404 184.169 461.506 184.169 461.624V462.914C184.169 463.042 184.271 463.144 184.399 463.144H188.059C188.11 463.144 188.164 463.123 188.21 463.077C188.255 463.031 188.279 462.972 188.279 462.914V461.624C188.279 461.501 188.182 461.404 188.059 461.404H184.399ZM182.749 461.624C182.749 460.702 183.497 459.984 184.399 459.984H188.059C188.956 459.984 189.699 460.707 189.699 461.624V462.914C189.699 463.807 188.971 464.564 188.059 464.564H184.399C183.487 464.564 182.749 463.826 182.749 462.914V461.624ZM193.409 462.074C193.291 462.074 193.189 462.177 193.189 462.294V465.614C193.189 465.752 193.291 465.844 193.409 465.844H195.609C195.727 465.844 195.829 465.752 195.829 465.614V462.294C195.829 462.177 195.727 462.074 195.609 462.074H193.409ZM191.769 462.294C191.769 461.392 192.507 460.654 193.409 460.654H195.609C196.511 460.654 197.249 461.392 197.249 462.294V465.614C197.249 466.517 196.531 467.264 195.609 467.264H193.409C192.507 467.264 191.769 466.537 191.769 465.614V462.294ZM186.339 466.794C186.339 466.747 186.359 466.694 186.403 466.651C186.447 466.607 186.503 466.584 186.559 466.584H189.529C189.588 466.584 189.643 466.608 189.685 466.651C189.73 466.696 189.749 466.749 189.749 466.794V467.864C189.749 467.982 189.647 468.084 189.529 468.084H186.559C186.441 468.084 186.339 467.982 186.339 467.864V466.794ZM186.559 465.164C185.662 465.164 184.919 465.897 184.919 466.794V467.864C184.919 468.766 185.657 469.504 186.559 469.504H189.529C190.431 469.504 191.169 468.766 191.169 467.864V466.794C191.169 465.917 190.446 465.164 189.529 465.164H186.559Z" fill="#FF00FF"/>
<path fill-rule="evenodd" clip-rule="evenodd" d="M135.99 457.99C136.382 457.99 136.7 458.308 136.7 458.7V459.83C136.7 460.222 136.382 460.54 135.99 460.54C135.598 460.54 135.28 460.222 135.28 459.83V458.7C135.28 458.308 135.598 457.99 135.99 457.99ZM140.782 460.962C141.059 460.685 141.059 460.235 140.782 459.958C140.505 459.681 140.055 459.681 139.778 459.958L138.968 460.768C138.691 461.045 138.691 461.495 138.968 461.772C139.245 462.05 139.695 462.05 139.972 461.772L140.782 460.962ZM136 463.33C135.214 463.33 134.58 463.97 134.58 464.75C134.58 465.524 135.218 466.16 136 466.16C136.792 466.16 137.42 465.534 137.42 464.75C137.42 463.962 136.788 463.33 136 463.33ZM133.16 464.75C133.16 463.19 134.426 461.91 136 461.91C137.572 461.91 138.84 463.178 138.84 464.75C138.84 466.327 137.568 467.58 136 467.58C134.442 467.58 133.16 466.317 133.16 464.75ZM136.01 468.96C136.402 468.96 136.72 469.278 136.72 469.67V470.8C136.72 471.192 136.402 471.51 136.01 471.51C135.618 471.51 135.3 471.192 135.3 470.8V469.67C135.3 469.278 135.618 468.96 136.01 468.96ZM139.982 467.718C139.705 467.441 139.255 467.441 138.978 467.718C138.701 467.995 138.701 468.445 138.978 468.722L139.788 469.532C140.065 469.81 140.515 469.81 140.792 469.532C141.069 469.255 141.069 468.805 140.792 468.528L139.982 467.718ZM140.21 464.74C140.21 464.348 140.528 464.03 140.92 464.03H142.05C142.442 464.03 142.76 464.348 142.76 464.74C142.76 465.132 142.442 465.45 142.05 465.45H140.92C140.528 465.45 140.21 465.132 140.21 464.74ZM132.212 459.968C131.935 459.691 131.485 459.691 131.208 459.968C130.931 460.245 130.931 460.695 131.208 460.972L132.018 461.782C132.295 462.06 132.745 462.06 133.022 461.782C133.299 461.505 133.299 461.055 133.022 460.778L132.212 459.968ZM129.24 464.76C129.24 464.368 129.558 464.05 129.95 464.05H131.08C131.472 464.05 131.79 464.368 131.79 464.76C131.79 465.152 131.472 465.47 131.08 465.47H129.95C129.558 465.47 129.24 465.152 129.24 464.76ZM133.032 468.732C133.309 468.455 133.309 468.005 133.032 467.728C132.755 467.451 132.305 467.451 132.028 467.728L131.218 468.538C130.941 468.815 130.941 469.265 131.218 469.542C131.495 469.82 131.945 469.82 132.222 469.542L133.032 468.732Z" fill="#FF00FF"/>
<path fill-rule="evenodd" clip-rule="evenodd" d="M82.7049 459.405C82.7049 459.013 82.387 458.695 81.9949 458.695C81.6028 458.695 81.2849 459.013 81.2849 459.405V459.825C81.2849 460.217 81.6028 460.535 81.9949 460.535C82.387 460.535 82.7049 460.217 82.7049 459.825V459.405ZM86.2769 460.463C86.5542 460.74 86.5542 461.19 86.2769 461.467L85.9769 461.767C85.6997 462.044 85.2501 462.044 84.9728 461.767C84.6956 461.49 84.6956 461.04 84.9728 460.763L85.2728 460.463C85.5501 460.186 85.9997 460.186 86.2769 460.463ZM80.5849 464.755C80.5849 463.983 81.2214 463.335 82.0049 463.335C82.7928 463.335 83.4249 463.967 83.4249 464.755C83.4249 465.538 82.7972 466.165 82.0049 466.165C81.2249 466.165 80.5849 465.521 80.5849 464.755ZM82.0049 461.915C80.4285 461.915 79.1649 463.207 79.1649 464.755C79.1649 466.309 80.445 467.585 82.0049 467.585C83.5727 467.585 84.8449 466.331 84.8449 464.755C84.8449 463.183 83.577 461.915 82.0049 461.915ZM82.7149 469.675C82.7149 469.283 82.397 468.965 82.0049 468.965C81.6128 468.965 81.2949 469.283 81.2949 469.675V470.105C81.2949 470.497 81.6128 470.815 82.0049 470.815C82.397 470.815 82.7149 470.497 82.7149 470.105V469.675ZM84.9829 467.723C85.2601 467.446 85.7097 467.446 85.9869 467.723L86.2869 468.023C86.5642 468.3 86.5642 468.75 86.2869 469.027C86.0097 469.304 85.5601 469.304 85.2829 469.027L84.9829 468.727C84.7056 468.45 84.7056 468 84.9829 467.723ZM86.925 464.035C86.5328 464.035 86.215 464.353 86.215 464.745C86.215 465.137 86.5328 465.455 86.925 465.455H87.355C87.7471 465.455 88.065 465.137 88.065 464.745C88.065 464.353 87.7471 464.035 87.355 464.035H86.925ZM77.713 460.473C77.9902 460.196 78.4398 460.196 78.7171 460.473L79.0171 460.773C79.2943 461.05 79.2943 461.5 79.0171 461.777C78.7398 462.054 78.2902 462.054 78.013 461.777L77.713 461.477C77.4357 461.2 77.4357 460.75 77.713 460.473ZM76.6549 464.045C76.2628 464.045 75.9449 464.363 75.9449 464.755C75.9449 465.147 76.2628 465.465 76.6549 465.465H77.0749C77.4671 465.465 77.7849 465.147 77.7849 464.755C77.7849 464.363 77.4671 464.045 77.0749 464.045H76.6549ZM79.0269 467.733C79.3042 468.01 79.3042 468.46 79.0269 468.737L78.7269 469.037C78.4497 469.314 78.0001 469.314 77.7228 469.037C77.4456 468.76 77.4456 468.31 77.7228 468.033L78.0228 467.733C78.3001 467.455 78.7497 467.455 79.0269 467.733Z" fill="#FF00FF"/>
<path fill-rule="evenodd" clip-rule="evenodd" d="M461.707 461.514H462.618C462.924 461.514 463.172 461.762 463.172 462.068V467.432C463.172 467.738 462.924 467.986 462.618 467.986H461.707C461.401 467.986 461.153 467.738 461.153 467.432V462.068C461.153 461.762 461.401 461.514 461.707 461.514ZM465.613 461.514H466.525C466.83 461.514 467.078 461.762 467.078 462.068V467.432C467.078 467.738 466.83 467.986 466.525 467.986H465.613C465.307 467.986 465.06 467.738 465.06 467.432V462.068C465.06 461.762 465.307 461.514 465.613 461.514ZM458.172 465.616C458.838 465.231 458.838 464.269 458.172 463.884L454.422 461.719C453.755 461.334 452.922 461.815 452.922 462.585V466.915C452.922 467.685 453.755 468.166 454.422 467.781L458.172 465.616Z" fill="#FF00FF"/>
<path fill-rule="evenodd" clip-rule="evenodd" d="M399.608 463.884C398.942 464.269 398.942 465.231 399.608 465.616L403.358 467.781C404.025 468.166 404.858 467.685 404.858 466.915L404.858 462.585C404.858 461.815 404.025 461.334 403.358 461.719L399.608 463.884ZM407.11 463.884C406.443 464.269 406.443 465.231 407.11 465.616L410.86 467.781C411.527 468.166 412.36 467.685 412.36 466.915V462.585C412.36 461.815 411.527 461.334 410.86 461.719L407.11 463.884Z" fill="#FF00FF"/>
<path fill-rule="evenodd" clip-rule="evenodd" d="M358.061 466.69C358.424 467.19 358.421 467.868 358.053 468.366C356.84 470.01 354.884 471.081 352.678 471.081C348.99 471.081 346 468.092 346 464.404C346 462.196 347.074 460.238 348.723 459.025C349.221 458.658 349.899 458.656 350.399 459.02C350.899 459.383 351.107 460.029 350.912 460.615C350.768 461.049 350.69 461.514 350.69 462C350.69 464.426 352.658 466.394 355.086 466.394C355.571 466.394 356.034 466.317 356.466 466.174C357.053 465.98 357.698 466.189 358.061 466.69ZM354.771 469.228C354.878 469.181 354.983 469.131 355.086 469.078C355.677 468.773 356.202 468.36 356.635 467.865C356.725 467.762 356.621 467.611 356.488 467.644C356.039 467.755 355.57 467.814 355.086 467.814C354.887 467.814 354.689 467.804 354.495 467.785C351.752 467.508 349.572 465.326 349.299 462.583C349.28 462.391 349.27 462.197 349.27 462C349.27 461.514 349.33 461.042 349.442 460.591C349.475 460.459 349.324 460.354 349.221 460.444C348.723 460.879 348.307 461.406 348.001 462C347.95 462.099 347.901 462.201 347.856 462.305C347.576 462.948 347.42 463.658 347.42 464.404C347.42 467.307 349.774 469.661 352.678 469.661C353.422 469.661 354.13 469.506 354.771 469.228Z" fill="#FF00FF"/>
<path fill-rule="evenodd" clip-rule="evenodd" d="M298.67 460.72V464.57C298.67 464.937 298.372 465.235 298.005 465.235C297.638 465.235 297.34 464.937 297.34 464.57V460.72C297.34 460.352 297.638 460.055 298.005 460.055C298.372 460.055 298.67 460.352 298.67 460.72ZM295.92 460.72C295.92 459.568 296.853 458.635 298.005 458.635C299.156 458.635 300.09 459.568 300.09 460.72V464.57C300.09 465.721 299.156 466.655 298.005 466.655C296.853 466.655 295.92 465.721 295.92 464.57V460.72ZM300.94 463.475C300.94 463.115 301.22 462.835 301.58 462.835C301.93 462.835 302.21 463.115 302.21 463.475V464.685C302.181 466.793 300.815 468.382 298.763 468.688C298.693 468.698 298.64 468.758 298.64 468.829V469.455C298.64 469.532 298.703 469.595 298.78 469.595H300.5C300.85 469.595 301.14 469.885 301.14 470.235C301.14 470.585 300.86 470.865 300.5 470.865H295.51C295.16 470.865 294.87 470.585 294.87 470.235C294.87 469.885 295.16 469.595 295.51 469.595H297.23C297.307 469.595 297.37 469.532 297.37 469.455V468.829C297.37 468.758 297.317 468.699 297.247 468.688C295.165 468.381 293.79 466.762 293.79 464.605V463.475C293.79 463.115 294.07 462.835 294.43 462.835C294.79 462.835 295.07 463.115 295.07 463.475V464.575C295.07 466.365 296.23 467.525 298.01 467.525C299.79 467.525 300.94 466.365 300.94 464.575V463.475Z" fill="#FF00FF"/>
<path fill-rule="evenodd" clip-rule="evenodd" d="M680.144 459.149C680.454 458.908 680.9 458.964 681.141 459.274C682.314 460.784 683.01 462.677 683.01 464.74C683.01 466.804 682.303 468.706 681.131 470.215C680.89 470.525 680.444 470.581 680.134 470.34C679.825 470.1 679.769 469.654 680.009 469.344C680.997 468.073 681.59 466.475 681.59 464.74C681.59 463.002 681.006 461.415 680.019 460.145C679.779 459.836 679.835 459.389 680.144 459.149ZM679.118 460.579C678.87 460.276 678.422 460.232 678.119 460.481C677.816 460.73 677.772 461.177 678.021 461.48C678.752 462.369 679.19 463.491 679.19 464.74C679.19 465.989 678.751 467.119 678.014 468.006C677.763 468.307 677.804 468.755 678.106 469.005C678.407 469.256 678.855 469.215 679.106 468.914C680.049 467.78 680.61 466.33 680.61 464.74C680.61 463.148 680.048 461.71 679.118 460.579ZM677.064 461.87C676.794 461.586 676.345 461.575 676.06 461.845C675.776 462.116 675.765 462.565 676.036 462.849C676.509 463.346 676.8 464.004 676.8 464.74C676.8 465.476 676.508 466.142 676.03 466.636C675.757 466.918 675.764 467.367 676.046 467.64C676.328 467.912 676.777 467.905 677.05 467.623C677.772 466.877 678.22 465.863 678.22 464.74C678.22 463.615 677.771 462.613 677.064 461.87ZM674.8 461.558C674.8 460.788 673.881 460.426 673.35 460.955L671.673 462.614C671.618 462.668 671.545 462.698 671.469 462.698H670.21C669.529 462.698 669 463.255 669 463.908V465.608C669 466.28 669.538 466.818 670.21 466.818H671.472C671.548 466.818 671.62 466.848 671.675 466.901L673.351 468.544C673.921 469.108 674.8 468.644 674.8 467.938V461.558Z" fill="#FF00FF"/>
<path fill-rule="evenodd" clip-rule="evenodd" d="M622.634 460.753C622.542 460.718 622.442 460.698 622.339 460.698H622.305C622.135 460.698 621.971 460.761 621.845 460.875C621.813 460.899 621.783 460.925 621.753 460.955L620.076 462.615C620.022 462.668 619.949 462.699 619.872 462.699H618.614C618.227 462.699 617.889 462.878 617.67 463.152C617.504 463.355 617.404 463.614 617.404 463.9V463.9C617.404 463.903 617.404 463.906 617.404 463.909V465.609C617.404 466.281 617.942 466.819 618.614 466.819H619.875C619.951 466.819 620.024 466.848 620.078 466.901L621.755 468.544C621.778 468.567 621.802 468.588 621.826 468.608C621.954 468.732 622.126 468.802 622.305 468.802H622.339C622.529 468.802 622.705 468.737 622.846 468.628C623.057 468.474 623.204 468.226 623.204 467.939V461.559C623.204 461.155 622.951 460.863 622.634 460.753ZM624.464 461.845C624.748 461.575 625.198 461.586 625.468 461.87C626.175 462.613 626.624 463.615 626.624 464.74C626.624 465.863 626.176 466.878 625.454 467.623C625.181 467.905 624.732 467.913 624.45 467.64C624.168 467.367 624.161 466.918 624.433 466.636C624.912 466.142 625.204 465.477 625.204 464.74C625.204 464.004 624.913 463.347 624.439 462.849C624.169 462.565 624.18 462.116 624.464 461.845Z" fill="#FF00FF"/>
<path fill-rule="evenodd" clip-rule="evenodd" d="M570.879 461.518C570.879 461.054 570.499 460.698 570.057 460.698H570.022C569.944 460.698 569.867 460.712 569.795 460.737C569.664 460.775 569.538 460.846 569.428 460.955L567.751 462.615C567.697 462.668 567.624 462.699 567.547 462.699H566.289C565.607 462.699 565.079 463.256 565.079 463.909V465.609C565.079 466.281 565.616 466.819 566.289 466.819H567.55C567.626 466.819 567.699 466.848 567.753 466.901L569.43 468.544C569.546 468.659 569.674 468.731 569.805 468.767C569.875 468.79 569.948 468.802 570.022 468.802H570.057C570.505 468.802 570.879 468.441 570.879 467.981V467.939V461.559V461.518Z" fill="#FF00FF"/>
<path fill-rule="evenodd" clip-rule="evenodd" d="M520.39 465.616C521.057 465.231 521.057 464.269 520.39 463.884L516.64 461.719C515.973 461.334 515.14 461.815 515.14 462.585L515.14 466.915C515.14 467.685 515.973 468.166 516.64 467.781L520.39 465.616ZM512.888 465.616C513.555 465.231 513.555 464.269 512.888 463.884L509.138 461.719C508.472 461.334 507.638 461.815 507.638 462.585L507.638 466.915C507.638 467.685 508.472 468.166 509.138 467.781L512.888 465.616Z" fill="#FF00FF"/>
<path fill-rule="evenodd" clip-rule="evenodd" d="M611.725 766.756C611.333 766.756 611.015 767.074 611.015 767.466C611.015 767.858 611.333 768.176 611.725 768.176H615C615.138 768.176 615.268 768.244 615.346 768.358L617.803 771.937C618.146 772.437 618.714 772.736 619.32 772.736H624.275C624.667 772.736 624.985 772.418 624.985 772.026C624.985 771.634 624.667 771.316 624.275 771.316H619.32C619.182 771.316 619.052 771.248 618.974 771.134L616.517 767.555C616.174 767.055 615.606 766.756 615 766.756H611.725ZM619.975 766.756C619.583 766.756 619.265 767.074 619.265 767.466C619.265 767.858 619.583 768.176 619.975 768.176H624.275C624.667 768.176 624.985 767.858 624.985 767.466C624.985 767.074 624.667 766.756 624.275 766.756H619.975Z" fill="#FF00FF"/>
<path fill-rule="evenodd" clip-rule="evenodd" d="M694.811 767.177C694.047 767.177 693.427 767.797 693.427 768.561C693.427 769.326 694.047 769.945 694.811 769.945H696.056C696.133 769.945 696.196 769.883 696.196 769.805V768.561C696.196 767.797 695.576 767.177 694.811 767.177ZM697.756 769.945C697.678 769.945 697.616 769.883 697.616 769.805V768.561C697.616 767.012 696.36 765.757 694.811 765.757C693.263 765.757 692.007 767.012 692.007 768.561C692.007 770.11 693.262 771.365 694.811 771.365H696.056C696.133 771.365 696.196 771.428 696.196 771.505V773.994C696.196 774.071 696.133 774.134 696.056 774.134H694.811C693.263 774.134 692.007 775.39 692.007 776.938C692.007 778.487 693.263 779.743 694.811 779.743C696.36 779.743 697.616 778.487 697.616 776.938V775.694C697.616 775.617 697.678 775.554 697.756 775.554H700.244C700.321 775.554 700.384 775.617 700.384 775.694L700.384 776.938C700.384 778.487 701.64 779.743 703.189 779.743C704.737 779.743 705.993 778.487 705.993 776.938C705.993 775.39 704.737 774.134 703.189 774.134H701.944C701.867 774.134 701.804 774.071 701.804 773.994V771.505C701.804 771.428 701.867 771.365 701.944 771.365H703.189C704.737 771.365 705.993 770.11 705.993 768.561C705.993 767.012 704.737 765.757 703.189 765.757C701.64 765.757 700.384 767.012 700.384 768.561V769.805C700.384 769.883 700.322 769.945 700.244 769.945H697.756ZM697.756 771.365C697.678 771.365 697.616 771.428 697.616 771.505V773.994C697.616 774.071 697.678 774.134 697.756 774.134H700.244C700.321 774.134 700.384 774.071 700.384 773.994L700.384 771.505C700.384 771.428 700.322 771.365 700.244 771.365H697.756ZM701.944 775.554C701.867 775.554 701.804 775.617 701.804 775.694V776.938C701.804 777.703 702.424 778.323 703.189 778.323C703.953 778.323 704.573 777.703 704.573 776.938C704.573 776.174 703.953 775.554 703.189 775.554H701.944ZM701.804 769.805C701.804 769.883 701.867 769.945 701.944 769.945H703.189C703.953 769.945 704.573 769.326 704.573 768.561C704.573 767.797 703.953 767.177 703.189 767.177C702.424 767.177 701.804 767.797 701.804 768.561V769.805ZM696.196 775.694C696.196 775.617 696.133 775.554 696.056 775.554H694.811C694.047 775.554 693.427 776.174 693.427 776.938C693.427 777.703 694.047 778.323 694.811 778.323C695.576 778.323 696.196 777.703 696.196 776.938V775.694Z" fill="#FF00FF"/>
<path fill-rule="evenodd" clip-rule="evenodd" d="M152.725 766.756C152.333 766.756 152.015 767.074 152.015 767.466C152.015 767.858 152.333 768.176 152.725 768.176H156C156.138 768.176 156.268 768.244 156.346 768.358L158.803 771.937C159.146 772.437 159.714 772.736 160.32 772.736H165.275C165.667 772.736 165.985 772.418 165.985 772.026C165.985 771.634 165.667 771.316 165.275 771.316H160.32C160.182 771.316 160.052 771.248 159.974 771.134L157.517 767.555C157.174 767.055 156.606 766.756 156 766.756H152.725ZM160.975 766.756C160.583 766.756 160.265 767.074 160.265 767.466C160.265 767.858 160.583 768.176 160.975 768.176H165.275C165.667 768.176 165.985 767.858 165.985 767.466C165.985 767.074 165.667 766.756 165.275 766.756H160.975Z" fill="#FF00FF"/>
<path fill-rule="evenodd" clip-rule="evenodd" d="M100.811 767.177C100.047 767.177 99.427 767.797 99.427 768.561C99.427 769.326 100.047 769.945 100.811 769.945H102.056C102.133 769.945 102.196 769.883 102.196 769.805V768.561C102.196 767.797 101.576 767.177 100.811 767.177ZM103.756 769.945C103.678 769.945 103.616 769.883 103.616 769.805V768.561C103.616 767.012 102.36 765.757 100.811 765.757C99.2626 765.757 98.007 767.012 98.007 768.561C98.007 770.11 99.2625 771.365 100.811 771.365H102.056C102.133 771.365 102.196 771.428 102.196 771.505V773.994C102.196 774.071 102.133 774.134 102.056 774.134H100.811C99.2626 774.134 98.007 775.39 98.007 776.938C98.007 778.487 99.2626 779.743 100.811 779.743C102.36 779.743 103.616 778.487 103.616 776.938V775.694C103.616 775.617 103.678 775.554 103.756 775.554H106.244C106.321 775.554 106.384 775.617 106.384 775.694L106.384 776.938C106.384 778.487 107.64 779.743 109.189 779.743C110.737 779.743 111.993 778.487 111.993 776.938C111.993 775.39 110.737 774.134 109.189 774.134H107.944C107.867 774.134 107.804 774.071 107.804 773.994V771.505C107.804 771.428 107.867 771.365 107.944 771.365H109.189C110.737 771.365 111.993 770.11 111.993 768.561C111.993 767.012 110.737 765.757 109.189 765.757C107.64 765.757 106.384 767.012 106.384 768.561V769.805C106.384 769.883 106.322 769.945 106.244 769.945H103.756ZM103.756 771.365C103.678 771.365 103.616 771.428 103.616 771.505V773.994C103.616 774.071 103.678 774.134 103.756 774.134H106.244C106.321 774.134 106.384 774.071 106.384 773.994L106.384 771.505C106.384 771.428 106.322 771.365 106.244 771.365H103.756ZM107.944 775.554C107.867 775.554 107.804 775.617 107.804 775.694V776.938C107.804 777.703 108.424 778.323 109.189 778.323C109.953 778.323 110.573 777.703 110.573 776.938C110.573 776.174 109.953 775.554 109.189 775.554H107.944ZM107.804 769.805C107.804 769.883 107.867 769.945 107.944 769.945H109.189C109.953 769.945 110.573 769.326 110.573 768.561C110.573 767.797 109.953 767.177 109.189 767.177C108.424 767.177 107.804 767.797 107.804 768.561V769.805ZM102.196 775.694C102.196 775.617 102.133 775.554 102.056 775.554H100.811C100.047 775.554 99.427 776.174 99.427 776.938C99.427 777.703 100.047 778.323 100.811 778.323C101.576 778.323 102.196 777.703 102.196 776.938V775.694Z" fill="#FF00FF"/>
<path fill-rule="evenodd" clip-rule="evenodd" d="M330.311 119.177C329.547 119.177 328.927 119.797 328.927 120.561C328.927 121.326 329.547 121.945 330.311 121.945H331.556C331.633 121.945 331.696 121.883 331.696 121.805V120.561C331.696 119.797 331.076 119.177 330.311 119.177ZM333.256 121.945C333.178 121.945 333.116 121.883 333.116 121.805V120.561C333.116 119.012 331.86 117.757 330.311 117.757C328.763 117.757 327.507 119.012 327.507 120.561C327.507 122.11 328.762 123.365 330.311 123.365H331.556C331.633 123.365 331.696 123.428 331.696 123.505V125.994C331.696 126.071 331.633 126.134 331.556 126.134H330.311C328.763 126.134 327.507 127.39 327.507 128.938C327.507 130.487 328.763 131.743 330.311 131.743C331.86 131.743 333.116 130.487 333.116 128.938V127.694C333.116 127.617 333.178 127.554 333.256 127.554H335.744C335.821 127.554 335.884 127.617 335.884 127.694L335.884 128.938C335.884 130.487 337.14 131.743 338.689 131.743C340.237 131.743 341.493 130.487 341.493 128.938C341.493 127.39 340.237 126.134 338.689 126.134H337.444C337.367 126.134 337.304 126.071 337.304 125.994V123.505C337.304 123.428 337.367 123.365 337.444 123.365H338.689C340.237 123.365 341.493 122.11 341.493 120.561C341.493 119.012 340.237 117.757 338.689 117.757C337.14 117.757 335.884 119.012 335.884 120.561V121.805C335.884 121.883 335.822 121.945 335.744 121.945H333.256ZM333.256 123.365C333.178 123.365 333.116 123.428 333.116 123.505V125.994C333.116 126.071 333.178 126.134 333.256 126.134H335.744C335.821 126.134 335.884 126.071 335.884 125.994L335.884 123.505C335.884 123.428 335.822 123.365 335.744 123.365H333.256ZM337.444 127.554C337.367 127.554 337.304 127.617 337.304 127.694V128.938C337.304 129.703 337.924 130.323 338.689 130.323C339.453 130.323 340.073 129.703 340.073 128.938C340.073 128.174 339.453 127.554 338.689 127.554H337.444ZM337.304 121.805C337.304 121.883 337.367 121.945 337.444 121.945H338.689C339.453 121.945 340.073 121.326 340.073 120.561C340.073 119.797 339.453 119.177 338.689 119.177C337.924 119.177 337.304 119.797 337.304 120.561V121.805ZM331.696 127.694C331.696 127.617 331.633 127.554 331.556 127.554H330.311C329.547 127.554 328.927 128.174 328.927 128.938C328.927 129.703 329.547 130.323 330.311 130.323C331.076 130.323 331.696 129.703 331.696 128.938V127.694Z" fill="#FF00FF"/>
<path fill-rule="evenodd" clip-rule="evenodd" d="M544.225 64.7559C543.833 64.7559 543.515 65.0737 543.515 65.4659C543.515 65.858 543.833 66.1759 544.225 66.1759H547.5C547.638 66.1759 547.768 66.2441 547.846 66.3582L550.303 69.9371C550.646 70.4371 551.214 70.7359 551.82 70.7359H556.775C557.167 70.7359 557.485 70.418 557.485 70.0259C557.485 69.6337 557.167 69.3159 556.775 69.3159H551.82C551.682 69.3159 551.552 69.2477 551.474 69.1335L549.017 65.5546C548.674 65.0546 548.106 64.7559 547.5 64.7559H544.225ZM552.475 64.7559C552.083 64.7559 551.765 65.0737 551.765 65.4659C551.765 65.858 552.083 66.1759 552.475 66.1759H556.775C557.167 66.1759 557.485 65.858 557.485 65.4659C557.485 65.0737 557.167 64.7559 556.775 64.7559H552.475Z" fill="#FF00FF"/>
<rect x="743.5" y="703" width="67.5" height="54" stroke="#00FFFF"/>
<rect x="676" y="703" width="67.5" height="54" stroke="#00FFFF"/>
<rect x="608.5" y="703" width="67.5" height="54" stroke="#00FFFF"/>
<rect x="541" y="703" width="67.5" height="54" stroke="#00FFFF"/>
<rect x="136" y="703" width="67.5" height="54" stroke="#00FFFF"/>
<rect x="68.5" y="703" width="67.5" height="54" stroke="#00FFFF"/>
<rect x="1" y="703" width="67.5" height="54" stroke="#00FFFF"/>
<rect x="662.5" y="649" width="148.5" height="54" stroke="#00FFFF"/>
<rect x="1" y="649" width="121.5" height="54" stroke="#00FFFF"/>
<rect x="689.5" y="595" width="121.5" height="54" stroke="#00FFFF"/>
<rect x="1" y="595" width="94.5" height="54" stroke="#00FFFF"/>
<rect x="1" y="541" width="81" height="54" stroke="#00FFFF"/>
<rect x="703" y="487" width="108" height="54" stroke="#00FFFF"/>
<rect x="608.5" y="649" width="54" height="54" stroke="#00FFFF"/>
<rect x="554.5" y="649" width="54" height="54" stroke="#00FFFF"/>
<rect x="500.5" y="649" width="54" height="54" stroke="#00FFFF"/>
<rect x="446.5" y="649" width="54" height="54" stroke="#00FFFF"/>
<rect x="392.5" y="649" width="54" height="54" stroke="#00FFFF"/>
<rect x="338.5" y="649" width="54" height="54" stroke="#00FFFF"/>
<rect x="284.5" y="649" width="54" height="54" stroke="#00FFFF"/>
<rect x="230.5" y="649" width="54" height="54" stroke="#00FFFF"/>
<rect x="176.5" y="649" width="54" height="54" stroke="#00FFFF"/>
<rect x="122.5" y="649" width="54" height="54" stroke="#00FFFF"/>
<rect x="635.5" y="595" width="54" height="54" stroke="#00FFFF"/>
<rect x="581.5" y="595" width="54" height="54" stroke="#00FFFF"/>
<rect x="527.5" y="595" width="54" height="54" stroke="#00FFFF"/>
<rect x="473.5" y="595" width="54" height="54" stroke="#00FFFF"/>
<rect x="419.5" y="595" width="54" height="54" stroke="#00FFFF"/>
<rect x="365.5" y="595" width="54" height="54" stroke="#00FFFF"/>
<rect x="311.5" y="595" width="54" height="54" stroke="#00FFFF"/>
<rect x="257.5" y="595" width="54" height="54" stroke="#00FFFF"/>
<rect x="203.5" y="595" width="54" height="54" stroke="#00FFFF"/>
<rect x="149.5" y="595" width="54" height="54" stroke="#00FFFF"/>
<rect x="95.5" y="595" width="54" height="54" stroke="#00FFFF"/>
<rect x="730" y="541" width="81" height="54" stroke="#00FFFF"/>
<rect x="676" y="541" width="54" height="54" stroke="#00FFFF"/>
<rect x="622" y="541" width="54" height="54" stroke="#00FFFF"/>
<rect x="568" y="541" width="54" height="54" stroke="#00FFFF"/>
<rect x="514" y="541" width="54" height="54" stroke="#00FFFF"/>
<rect x="460" y="541" width="54" height="54" stroke="#00FFFF"/>
<rect x="406" y="541" width="54" height="54" stroke="#00FFFF"/>
<rect x="352" y="541" width="54" height="54" stroke="#00FFFF"/>
<rect x="298" y="541" width="54" height="54" stroke="#00FFFF"/>
<rect x="244" y="541" width="54" height="54" stroke="#00FFFF"/>
<rect x="190" y="541" width="54" height="54" stroke="#00FFFF"/>
<rect x="136" y="541" width="54" height="54" stroke="#00FFFF"/>
<rect x="82" y="541" width="54" height="54" stroke="#00FFFF"/>
<rect x="55" y="487" width="54" height="54" stroke="#00FFFF"/>
<rect x="109" y="487" width="54" height="54" stroke="#00FFFF"/>
<rect x="163" y="487" width="54" height="54" stroke="#00FFFF"/>
<rect x="217" y="487" width="54" height="54" stroke="#00FFFF"/>
<rect x="271" y="487" width="54" height="54" stroke="#00FFFF"/>
<rect x="325" y="487" width="54" height="54" stroke="#00FFFF"/>
<rect x="379" y="487" width="54" height="54" stroke="#00FFFF"/>
<rect x="433" y="487" width="54" height="54" stroke="#00FFFF"/>
<rect x="487" y="487" width="54" height="54" stroke="#00FFFF"/>
<rect x="541" y="487" width="54" height="54" stroke="#00FFFF"/>
<rect x="595" y="487" width="54" height="54" stroke="#00FFFF"/>
<rect x="649" y="487" width="54" height="54" stroke="#00FFFF"/>
<rect x="1" y="487" width="54" height="54" stroke="#00FFFF"/>
<rect x="217" y="433" width="54" height="54" stroke="#00FFFF"/>
<rect x="163" y="433" width="54" height="54" stroke="#00FFFF"/>
<rect x="109" y="433" width="54" height="54" stroke="#00FFFF"/>
<rect x="55" y="433" width="54" height="54" stroke="#00FFFF"/>
<rect x="433" y="433" width="54" height="54" stroke="#00FFFF"/>
<rect x="379" y="433" width="54" height="54" stroke="#00FFFF"/>
<rect x="325" y="433" width="54" height="54" stroke="#00FFFF"/>
<rect x="271" y="433" width="54" height="54" stroke="#00FFFF"/>
<rect x="649" y="433" width="54" height="54" stroke="#00FFFF"/>
<rect x="595" y="433" width="54" height="54" stroke="#00FFFF"/>
<rect x="541" y="433" width="54" height="54" stroke="#00FFFF"/>
<rect x="487" y="433" width="54" height="54" stroke="#00FFFF"/>
<rect x="541" y="379" width="54" height="54" stroke="#00FFFF"/>
<rect x="487" y="379" width="54" height="54" stroke="#00FFFF"/>
<rect x="433" y="379" width="54" height="54" stroke="#00FFFF"/>
<rect x="487" y="325" width="54" height="54" stroke="#00FFFF"/>
<rect x="703" y="379" width="54" height="54" stroke="#00FFFF"/>
<rect x="595" y="379" width="108" height="54" stroke="#00FFFF"/>
<rect x="757" y="325" width="54" height="108" stroke="#00FFFF"/>
<rect x="703" y="325" width="54" height="54" stroke="#00FFFF"/>
<rect x="649" y="325" width="54" height="54" stroke="#00FFFF"/>
<rect x="595" y="325" width="54" height="54" stroke="#00FFFF"/>
<rect x="703" y="271" width="54" height="54" stroke="#00FFFF"/>
<rect x="595" y="271" width="54" height="54" stroke="#00FFFF"/>
<rect x="757" y="217" width="54" height="108" stroke="#00FFFF"/>
<rect x="703" y="217" width="54" height="54" stroke="#00FFFF"/>
<rect x="649" y="217" width="54" height="54" stroke="#00FFFF"/>
<rect x="595" y="217" width="54" height="54" stroke="#00FFFF"/>
<rect x="757" y="163" width="54" height="54" stroke="#00FFFF"/>
<rect x="703" y="163" width="54" height="54" stroke="#00FFFF"/>
<rect x="649" y="163" width="54" height="54" stroke="#00FFFF"/>
<rect x="595" y="163" width="54" height="54" stroke="#00FFFF"/>
<rect x="649" y="271" width="54" height="54" stroke="#00FFFF"/>
<rect x="541" y="163" width="54" height="54" stroke="#00FFFF"/>
<rect x="487" y="163" width="54" height="54" stroke="#00FFFF"/>
<rect x="433" y="163" width="54" height="54" stroke="#00FFFF"/>
<rect x="541" y="217" width="54" height="54" stroke="#00FFFF"/>
<rect x="487" y="217" width="54" height="54" stroke="#00FFFF"/>
<rect x="433" y="217" width="54" height="54" stroke="#00FFFF"/>
<rect x="541" y="271" width="54" height="54" stroke="#00FFFF"/>
<rect x="487" y="271" width="54" height="54" stroke="#00FFFF"/>
<rect x="433" y="271" width="54" height="54" stroke="#00FFFF"/>
<rect x="595" y="757" width="81" height="54" stroke="#00FFFF"/>
<rect x="676" y="757" width="54" height="54" stroke="#00FFFF"/>
<rect x="730" y="757" width="81" height="54" stroke="#00FFFF"/>
<rect x="136" y="757" width="81" height="54" stroke="#00FFFF"/>
<rect x="82" y="757" width="54" height="54" stroke="#00FFFF"/>
<rect x="1" y="757" width="81" height="54" stroke="#00FFFF"/>
<rect x="1" y="433" width="54" height="54" stroke="#00FFFF"/>
<rect x="757" y="433" width="54" height="54" stroke="#00FFFF"/>
<rect x="703" y="433" width="54" height="54" stroke="#00FFFF"/>
<rect x="541" y="325" width="54" height="54" stroke="#00FFFF"/>
<rect x="433" y="325" width="54" height="54" stroke="#00FFFF"/>
<rect x="379" y="325" width="54" height="54" stroke="#00FFFF"/>
<rect x="379" y="379" width="54" height="54" stroke="#00FFFF"/>
<rect x="298" y="379" width="81" height="54" stroke="#00FFFF"/>
<rect x="298" y="325" width="81" height="54" stroke="#00FFFF"/>
<rect x="217" y="325" width="81" height="108" stroke="#00FFFF"/>
<rect x="176.5" y="379" width="54" height="54" stroke="#00FFFF"/>
<rect x="122.5" y="379" width="54" height="54" stroke="#00FFFF"/>
<rect x="68.5" y="379" width="54" height="54" stroke="#00FFFF"/>
<rect x="1" y="379" width="67.5" height="54" stroke="#00FFFF"/>
<rect x="109" y="325" width="54" height="54" stroke="#00FFFF"/>
<rect x="55" y="325" width="54" height="54" stroke="#00FFFF"/>
<rect x="1" y="325" width="54" height="54" stroke="#00FFFF"/>
<rect x="163" y="325" width="54" height="54" stroke="#00FFFF"/>
<rect x="271" y="271" width="94.5" height="54" stroke="#00FFFF"/>
<rect x="365.5" y="271" width="67.5" height="54" stroke="#00FFFF"/>
<rect x="217" y="271" width="54" height="54" stroke="#00FFFF"/>
<rect x="163" y="271" width="54" height="54" stroke="#00FFFF"/>
<rect x="95.5" y="271" width="67.5" height="54" stroke="#00FFFF"/>
<rect x="1" y="271" width="94.5" height="54" stroke="#00FFFF"/>
<rect x="379" y="163" width="54" height="54" stroke="#00FFFF"/>
<rect x="271" y="163" width="54" height="54" stroke="#00FFFF"/>
<rect x="163" y="163" width="108" height="54" stroke="#00FFFF"/>
<rect x="95.5" y="163" width="67.5" height="54" stroke="#00FFFF"/>
<rect x="217" y="217" width="54" height="54" stroke="#00FFFF"/>
<rect x="163" y="217" width="54" height="54" stroke="#00FFFF"/>
<rect x="95.5" y="217" width="67.5" height="54" stroke="#00FFFF"/>
<rect x="1" y="217" width="94.5" height="54" stroke="#00FFFF"/>
<rect x="1" y="163" width="94.5" height="54" stroke="#00FFFF"/>
<rect x="730" y="55" width="81" height="108" stroke="#00FFFF"/>
<rect x="635.5" y="109" width="54" height="54" stroke="#00FFFF"/>
<rect x="554.5" y="109" width="81" height="54" stroke="#00FFFF"/>
<rect x="446.5" y="109" width="108" height="54" stroke="#00FFFF"/>
<rect x="311.5" y="109" width="81" height="54" stroke="#00FFFF"/>
<rect x="257.5" y="109" width="54" height="54" stroke="#00FFFF"/>
<rect x="163" y="109" width="94.5" height="54" stroke="#00FFFF"/>
<rect x="82" y="109" width="81" height="54" stroke="#00FFFF"/>
<rect x="1" y="109" width="81" height="54" stroke="#00FFFF"/>
<rect x="635.5" y="55" width="94.5" height="54" stroke="#00FFFF"/>
<rect x="527.5" y="55" width="54" height="54" stroke="#00FFFF"/>
<rect x="473.5" y="55" width="54" height="54" stroke="#00FFFF"/>
<rect x="392.5" y="55" width="81" height="54" stroke="#00FFFF"/>
<rect x="1" y="1" width="54" height="54" stroke="#00FFFF"/>
<rect x="55" y="1" width="54" height="54" stroke="#00FFFF"/>
<rect x="109" y="1" width="54" height="54" stroke="#00FFFF"/>
<rect x="163" y="1" width="54" height="54" stroke="#00FFFF"/>
<rect x="217" y="1" width="54" height="54" stroke="#00FFFF"/>
<rect x="271" y="1" width="54" height="54" stroke="#00FFFF"/>
<rect x="325" y="1" width="54" height="54" stroke="#00FFFF"/>
<rect x="379" y="1" width="54" height="54" stroke="#00FFFF"/>
<rect x="433.5" y="1.5" width="53" height="53" stroke="#00FFFF"/>
<rect x="487.5" y="1.5" width="53" height="53" stroke="#00FFFF"/>
</svg>
