<svg width="812" height="812" viewBox="0 0 812 812" fill="none" xmlns="http://www.w3.org/2000/svg">
<path fill-rule="evenodd" clip-rule="evenodd" d="M475.634 680.713C475.634 681.105 475.951 681.423 476.344 681.423H484.444C484.836 681.423 485.154 681.105 485.154 680.713C485.154 680.321 484.836 680.003 484.444 680.003H476.344C475.951 680.003 475.634 680.321 475.634 680.713Z" fill="#FF00FF"/>
<path fill-rule="evenodd" clip-rule="evenodd" d="M422.344 678.483C421.951 678.483 421.634 678.801 421.634 679.193C421.634 679.585 421.951 679.903 422.344 679.903H425.543C425.621 679.903 425.683 679.966 425.683 680.043V683.385C425.683 683.778 426.001 684.095 426.393 684.095C426.785 684.095 427.103 683.778 427.103 683.385V680.043C427.103 679.966 427.166 679.903 427.243 679.903H430.443C430.836 679.903 431.153 679.585 431.153 679.193C431.153 678.801 430.836 678.483 430.443 678.483H422.344Z" fill="#FF00FF"/>
<path fill-rule="evenodd" clip-rule="evenodd" d="M368.344 678.483C367.952 678.483 367.634 678.801 367.634 679.193C367.634 679.585 367.952 679.903 368.344 679.903H369.79C369.867 679.903 369.93 679.966 369.93 680.043V683.385C369.93 683.778 370.248 684.095 370.64 684.095C371.032 684.095 371.35 683.778 371.35 683.385V680.043C371.35 679.966 371.413 679.903 371.49 679.903H373.297C373.375 679.903 373.437 679.966 373.437 680.043V683.388C373.437 683.78 373.755 684.098 374.147 684.098C374.539 684.098 374.857 683.78 374.857 683.388V680.043C374.857 679.966 374.92 679.903 374.997 679.903H376.444C376.836 679.903 377.154 679.585 377.154 679.193C377.154 678.801 376.836 678.483 376.444 678.483H368.344Z" fill="#FF00FF"/>
<path fill-rule="evenodd" clip-rule="evenodd" d="M315.839 678.123C315.839 677.731 316.157 677.413 316.549 677.413H322.449C322.841 677.413 323.159 677.731 323.159 678.123C323.159 678.515 322.841 678.833 322.449 678.833H322.104C322.026 678.833 321.964 678.896 321.964 678.973L321.964 682.527C321.964 682.604 322.026 682.667 322.104 682.667H322.449C322.841 682.667 323.159 682.985 323.159 683.377C323.159 683.769 322.841 684.087 322.449 684.087H316.549C316.157 684.087 315.839 683.769 315.839 683.377C315.839 682.985 316.157 682.667 316.549 682.667H316.894C316.971 682.667 317.034 682.604 317.034 682.527L317.034 678.973C317.034 678.896 316.971 678.833 316.894 678.833H316.549C316.157 678.833 315.839 678.515 315.839 678.123ZM320.404 682.667C320.481 682.667 320.544 682.604 320.544 682.527L320.544 678.973C320.544 678.896 320.481 678.833 320.404 678.833H318.594C318.516 678.833 318.454 678.896 318.454 678.973L318.454 682.527C318.454 682.604 318.516 682.667 318.594 682.667H320.404Z" fill="#FF00FF"/>
<path fill-rule="evenodd" clip-rule="evenodd" d="M266.21 677.235C266.21 676.843 265.892 676.525 265.5 676.525C265.108 676.525 264.79 676.843 264.79 677.235C264.79 677.496 264.788 677.747 264.782 677.987C264.78 678.063 264.718 678.123 264.642 678.123H262.549C262.157 678.123 261.839 678.441 261.839 678.833C261.839 679.225 262.157 679.543 262.549 679.543H264.512C264.596 679.543 264.662 679.618 264.649 679.702C264.582 680.127 264.487 680.506 264.352 680.844C264.023 681.673 263.446 682.295 262.309 682.705C261.94 682.838 261.749 683.245 261.882 683.614C262.015 683.983 262.422 684.174 262.791 684.041C264.017 683.598 264.841 682.911 265.367 682.001C265.425 681.901 265.575 681.901 265.633 682.001C266.159 682.911 266.983 683.598 268.209 684.041C268.578 684.174 268.985 683.983 269.118 683.614C269.251 683.245 269.06 682.838 268.691 682.705C267.554 682.295 266.977 681.673 266.648 680.844C266.513 680.506 266.418 680.127 266.351 679.702C266.338 679.618 266.404 679.543 266.488 679.543H268.449C268.841 679.543 269.159 679.225 269.159 678.833C269.159 678.441 268.841 678.123 268.449 678.123H266.358C266.282 678.123 266.22 678.063 266.218 677.987C266.212 677.747 266.21 677.496 266.21 677.235Z" fill="#FF00FF"/>
<path fill-rule="evenodd" clip-rule="evenodd" d="M208.554 677.413C208.161 677.413 207.844 677.731 207.844 678.123V680.75V683.377C207.844 683.565 207.918 683.746 208.051 683.879C208.185 684.012 208.365 684.087 208.554 684.087H214.447C214.839 684.087 215.157 683.769 215.157 683.377C215.157 682.985 214.839 682.667 214.447 682.667H209.404C209.326 682.667 209.264 682.604 209.264 682.527L209.264 681.6C209.264 681.523 209.326 681.46 209.404 681.46H214.449C214.841 681.46 215.159 681.142 215.159 680.75C215.159 680.358 214.841 680.04 214.449 680.04H209.404C209.326 680.04 209.264 679.977 209.264 679.9L209.264 678.973C209.264 678.896 209.326 678.833 209.404 678.833L214.447 678.833C214.839 678.833 215.157 678.515 215.157 678.123C215.157 677.731 214.839 677.413 214.447 677.413H208.554Z" fill="#FF00FF"/>
<path fill-rule="evenodd" clip-rule="evenodd" d="M160.447 677.413C160.839 677.413 161.157 677.731 161.157 678.123V680.75V683.378C161.157 683.77 160.839 684.088 160.447 684.088C160.055 684.088 159.737 683.77 159.737 683.378L159.737 681.6C159.737 681.523 159.674 681.46 159.597 681.46H154.549C154.157 681.46 153.839 681.142 153.839 680.75C153.839 680.358 154.157 680.04 154.549 680.04H159.597C159.674 680.04 159.737 679.977 159.737 679.9L159.737 678.973C159.737 678.896 159.674 678.833 159.597 678.833L154.549 678.833C154.157 678.833 153.839 678.515 153.839 678.123C153.839 677.731 154.157 677.413 154.549 677.413L160.447 677.413Z" fill="#FF00FF"/>
<path fill-rule="evenodd" clip-rule="evenodd" d="M562.5 620.573C562.892 620.573 563.21 620.891 563.21 621.283V629.383C563.21 629.775 562.892 630.093 562.5 630.093C562.108 630.093 561.79 629.775 561.79 629.383V621.283C561.79 620.891 562.108 620.573 562.5 620.573Z" fill="#FF00FF"/>
<path fill-rule="evenodd" clip-rule="evenodd" d="M508.858 621.283C508.858 620.891 508.541 620.573 508.148 620.573C507.756 620.573 507.438 620.891 507.438 621.283V625.333V629.383C507.438 629.775 507.756 630.093 508.148 630.093C508.541 630.093 508.858 629.775 508.858 629.383V626.183C508.858 626.105 508.921 626.043 508.998 626.043H510.438C510.831 626.043 511.148 625.725 511.148 625.333C511.148 624.941 510.831 624.623 510.438 624.623H508.998C508.921 624.623 508.858 624.56 508.858 624.483V621.283Z" fill="#FF00FF"/>
<path fill-rule="evenodd" clip-rule="evenodd" d="M456.737 621.283C456.737 620.891 456.419 620.573 456.027 620.573C455.634 620.573 455.317 620.891 455.317 621.283V624.483C455.317 624.56 455.254 624.623 455.177 624.623H453.737C453.344 624.623 453.027 624.941 453.027 625.333C453.027 625.725 453.344 626.043 453.737 626.043H455.177C455.254 626.043 455.317 626.105 455.317 626.183V629.383C455.317 629.775 455.634 630.093 456.027 630.093C456.419 630.093 456.737 629.775 456.737 629.383V625.333V621.283Z" fill="#FF00FF"/>
<path fill-rule="evenodd" clip-rule="evenodd" d="M400.103 624.933C400.103 624.541 399.785 624.223 399.393 624.223C399.001 624.223 398.683 624.541 398.683 624.933L398.683 627.562C398.683 627.639 398.621 627.702 398.543 627.702H395.343C394.951 627.702 394.633 628.02 394.633 628.412C394.633 628.804 394.951 629.122 395.343 629.122H399.355C399.368 629.123 399.38 629.123 399.393 629.123C399.406 629.123 399.419 629.123 399.432 629.122H403.443C403.835 629.122 404.153 628.804 404.153 628.412C404.153 628.02 403.835 627.702 403.443 627.702H400.243C400.166 627.702 400.103 627.639 400.103 627.562L400.103 624.933Z" fill="#FF00FF"/>
<path fill-rule="evenodd" clip-rule="evenodd" d="M347.21 623.273C347.21 623.351 347.273 623.413 347.35 623.413H349.802C350.194 623.413 350.512 623.731 350.512 624.123C350.512 624.515 350.194 624.833 349.802 624.833H343.199C342.806 624.833 342.489 624.515 342.489 624.123C342.489 623.731 342.806 623.413 343.199 623.413H345.65C345.727 623.413 345.79 623.351 345.79 623.273V622.743C345.79 622.351 346.108 622.033 346.5 622.033C346.892 622.033 347.21 622.351 347.21 622.743V623.273ZM345.211 627.478C344.908 627.697 344.8 627.938 344.8 628.133C344.8 628.328 344.908 628.568 345.211 628.787C345.514 629.005 345.967 629.162 346.5 629.162C347.033 629.162 347.486 629.005 347.789 628.787C348.092 628.568 348.2 628.328 348.2 628.133C348.2 627.938 348.092 627.697 347.789 627.478C347.486 627.26 347.033 627.103 346.5 627.103C345.967 627.103 345.514 627.26 345.211 627.478ZM344.38 626.327C344.95 625.916 345.702 625.683 346.5 625.683C347.298 625.683 348.05 625.916 348.62 626.327C349.189 626.738 349.62 627.367 349.62 628.133C349.62 628.899 349.189 629.528 348.62 629.938C348.05 630.35 347.298 630.582 346.5 630.582C345.702 630.582 344.95 630.35 344.38 629.938C343.811 629.528 343.38 628.899 343.38 628.133C343.38 627.367 343.811 626.738 344.38 626.327Z" fill="#FF00FF"/>
<path fill-rule="evenodd" clip-rule="evenodd" d="M288.844 624.123C288.844 623.731 289.161 623.413 289.554 623.413H295.447C295.839 623.413 296.157 623.731 296.157 624.123V626.75C296.157 626.938 296.082 627.119 295.949 627.252C295.815 627.385 295.635 627.46 295.447 627.46L290.404 627.46C290.326 627.46 290.264 627.523 290.264 627.6L290.264 628.527C290.264 628.604 290.326 628.667 290.404 628.667L295.444 628.667C295.836 628.667 296.154 628.985 296.154 629.377C296.154 629.769 295.836 630.087 295.444 630.087L289.554 630.087C289.365 630.087 289.185 630.012 289.051 629.879C288.918 629.746 288.844 629.565 288.844 629.377L288.844 626.75C288.844 626.358 289.161 626.04 289.554 626.04L294.597 626.04C294.674 626.04 294.737 625.977 294.737 625.9V624.973C294.737 624.896 294.674 624.833 294.597 624.833H289.554C289.161 624.833 288.844 624.515 288.844 624.123Z" fill="#FF00FF"/>
<path fill-rule="evenodd" clip-rule="evenodd" d="M238.5 624.655C237.093 624.655 236.086 625.663 236.086 626.75C236.086 627.837 237.093 628.844 238.5 628.844C239.907 628.844 240.914 627.837 240.914 626.75C240.914 625.663 239.907 624.655 238.5 624.655ZM234.666 626.75C234.666 624.739 236.457 623.235 238.5 623.235C240.543 623.235 242.334 624.739 242.334 626.75C242.334 628.761 240.543 630.264 238.5 630.264C236.457 630.264 234.666 628.761 234.666 626.75Z" fill="#FF00FF"/>
<path fill-rule="evenodd" clip-rule="evenodd" d="M188.158 629.375C188.158 629.767 187.84 630.085 187.448 630.085L181.553 630.085C181.16 630.085 180.843 629.767 180.843 629.375V624.125C180.843 623.733 181.16 623.415 181.553 623.415C181.945 623.415 182.263 623.733 182.263 624.125V628.525C182.263 628.602 182.325 628.665 182.403 628.665L187.448 628.665C187.84 628.665 188.158 628.983 188.158 629.375Z" fill="#FF00FF"/>
<path fill-rule="evenodd" clip-rule="evenodd" d="M126.844 624.123C126.844 623.731 127.161 623.413 127.554 623.413H133.447C133.839 623.413 134.157 623.731 134.157 624.123V629.377C134.157 629.769 133.839 630.087 133.447 630.087H127.554C127.161 630.087 126.844 629.769 126.844 629.377V624.123ZM128.404 624.833C128.326 624.833 128.264 624.896 128.264 624.973V628.527C128.264 628.604 128.326 628.667 128.404 628.667H132.597C132.674 628.667 132.737 628.604 132.737 628.527V624.973C132.737 624.896 132.674 624.833 132.597 624.833H128.404Z" fill="#FF00FF"/>
<path fill-rule="evenodd" clip-rule="evenodd" d="M604.814 566.573C605.206 566.573 605.524 566.891 605.524 567.283V575.383C605.524 575.775 605.206 576.093 604.814 576.093C604.422 576.093 604.104 575.775 604.104 575.383V567.283C604.104 566.891 604.422 566.573 604.814 566.573ZM602.113 566.573C602.505 566.573 602.823 566.891 602.823 567.283V571.329C602.823 571.33 602.823 571.332 602.823 571.333C602.823 571.334 602.823 571.336 602.823 571.337V575.383C602.823 575.775 602.505 576.093 602.113 576.093C601.72 576.093 601.403 575.775 601.403 575.383V572.183C601.403 572.106 601.34 572.043 601.263 572.043H599.983C599.591 572.043 599.273 571.725 599.273 571.333C599.273 570.941 599.591 570.623 599.983 570.623H601.263C601.34 570.623 601.403 570.56 601.403 570.483V567.283C601.403 566.891 601.72 566.573 602.113 566.573Z" fill="#FF00FF"/>
<path fill-rule="evenodd" clip-rule="evenodd" d="M550.598 566.573C550.99 566.573 551.308 566.891 551.308 567.283V575.383C551.308 575.775 550.99 576.093 550.598 576.093C550.206 576.093 549.888 575.775 549.888 575.383V572.183C549.888 572.106 549.825 572.043 549.748 572.043H548.253C548.175 572.043 548.113 572.106 548.113 572.183V575.383C548.113 575.775 547.795 576.093 547.403 576.093C547.011 576.093 546.693 575.775 546.693 575.383V571.342C546.693 571.339 546.693 571.336 546.693 571.333C546.693 571.33 546.693 571.327 546.693 571.324V567.283C546.693 566.891 547.011 566.573 547.403 566.573C547.795 566.573 548.113 566.891 548.113 567.283V570.483C548.113 570.56 548.175 570.623 548.253 570.623H549.748C549.825 570.623 549.888 570.56 549.888 570.483V567.283C549.888 566.891 550.206 566.573 550.598 566.573Z" fill="#FF00FF"/>
<path fill-rule="evenodd" clip-rule="evenodd" d="M494.649 566.573C495.041 566.573 495.359 566.891 495.359 567.283V568.728C495.359 568.805 495.421 568.868 495.499 568.868H496.943C497.336 568.868 497.653 569.186 497.653 569.578C497.653 569.97 497.336 570.288 496.943 570.288H495.499C495.421 570.288 495.359 570.351 495.359 570.428V572.238C495.359 572.315 495.421 572.378 495.499 572.378H496.943C497.335 572.378 497.653 572.696 497.653 573.088C497.653 573.48 497.335 573.798 496.943 573.798H495.499C495.421 573.798 495.359 573.861 495.359 573.938V575.383C495.359 575.775 495.041 576.093 494.649 576.093C494.257 576.093 493.939 575.775 493.939 575.383V567.283C493.939 566.891 494.257 566.573 494.649 566.573Z" fill="#FF00FF"/>
<path fill-rule="evenodd" clip-rule="evenodd" d="M442.527 566.573C442.919 566.573 443.237 566.891 443.237 567.283V575.383C443.237 575.775 442.919 576.093 442.527 576.093C442.134 576.093 441.817 575.775 441.817 575.383V573.938C441.817 573.861 441.754 573.798 441.677 573.798H440.231C439.839 573.798 439.521 573.48 439.521 573.088C439.521 572.696 439.839 572.378 440.231 572.378H441.677C441.754 572.378 441.817 572.315 441.817 572.238V570.428C441.817 570.351 441.754 570.288 441.677 570.288H440.231C439.839 570.288 439.521 569.97 439.521 569.578C439.521 569.186 439.839 568.868 440.231 568.868H441.677C441.754 568.868 441.817 568.805 441.817 568.728V567.283C441.817 566.891 442.134 566.573 442.527 566.573Z" fill="#FF00FF"/>
<path fill-rule="evenodd" clip-rule="evenodd" d="M387.648 570.223C388.041 570.223 388.358 570.541 388.358 570.933V573.563C388.358 573.64 388.421 573.703 388.498 573.703H389.944C390.336 573.703 390.654 574.021 390.654 574.413C390.654 574.805 390.336 575.123 389.944 575.123H381.844C381.451 575.123 381.134 574.805 381.134 574.413C381.134 574.021 381.451 573.703 381.844 573.703H383.288C383.366 573.703 383.428 573.64 383.428 573.563L383.428 570.933C383.428 570.541 383.746 570.223 384.138 570.223C384.531 570.223 384.848 570.541 384.848 570.933L384.848 573.563C384.848 573.64 384.911 573.703 384.988 573.703H386.798C386.876 573.703 386.938 573.64 386.938 573.563V570.933C386.938 570.541 387.256 570.223 387.648 570.223Z" fill="#FF00FF"/>
<path fill-rule="evenodd" clip-rule="evenodd" d="M333 569.418C333.392 569.418 333.71 569.736 333.71 570.128C333.71 571.246 333.892 572.175 334.287 572.926C334.674 573.664 335.291 574.278 336.251 574.736C336.605 574.905 336.755 575.329 336.586 575.683C336.417 576.037 335.993 576.187 335.639 576.018C334.426 575.439 333.571 574.618 333.029 573.586V573.586C333.017 573.563 332.983 573.563 332.971 573.586V573.586C332.429 574.618 331.574 575.439 330.361 576.018C330.007 576.187 329.583 576.037 329.414 575.683C329.245 575.329 329.395 574.905 329.749 574.736C330.709 574.278 331.326 573.664 331.714 572.926C332.108 572.175 332.29 571.246 332.29 570.128C332.29 569.736 332.608 569.418 333 569.418Z" fill="#FF00FF"/>
<path fill-rule="evenodd" clip-rule="evenodd" d="M275.344 570.123C275.344 569.731 275.661 569.413 276.054 569.413L281.949 569.413C282.341 569.413 282.659 569.731 282.659 570.123V575.373C282.659 575.765 282.341 576.083 281.949 576.083C281.556 576.083 281.239 575.765 281.239 575.373V570.973C281.239 570.896 281.176 570.833 281.099 570.833L276.054 570.833C275.661 570.833 275.344 570.515 275.344 570.123Z" fill="#FF00FF"/>
<path fill-rule="evenodd" clip-rule="evenodd" d="M221.344 570.123C221.344 569.731 221.661 569.413 222.054 569.413L227.949 569.413C228.341 569.413 228.659 569.731 228.659 570.123C228.659 570.515 228.341 570.833 227.949 570.833L222.904 570.833C222.826 570.833 222.764 570.896 222.764 570.973L222.764 574.527C222.764 574.604 222.826 574.667 222.904 574.667H227.949C228.341 574.667 228.659 574.985 228.659 575.377C228.659 575.769 228.341 576.087 227.949 576.087H222.054C221.865 576.087 221.685 576.012 221.551 575.879C221.418 575.746 221.344 575.565 221.344 575.377L221.344 570.123Z" fill="#FF00FF"/>
<path fill-rule="evenodd" clip-rule="evenodd" d="M168.059 569.413C167.666 569.413 167.349 569.731 167.349 570.123C167.349 570.515 167.666 570.833 168.059 570.833H170.089C170.171 570.833 170.236 570.904 170.227 570.986C170.142 571.733 169.971 572.362 169.707 572.891C169.319 573.668 168.706 574.279 167.749 574.736C167.395 574.905 167.245 575.329 167.414 575.683C167.583 576.037 168.007 576.187 168.361 576.018C169.577 575.437 170.436 574.611 170.978 573.526V573.526C170.987 573.507 171.013 573.507 171.023 573.526V573.526C171.564 574.611 172.423 575.437 173.639 576.018C173.993 576.187 174.417 576.037 174.586 575.683C174.755 575.329 174.605 574.905 174.251 574.736C173.294 574.279 172.681 573.668 172.293 572.891C172.029 572.362 171.858 571.733 171.774 570.986C171.764 570.904 171.829 570.833 171.912 570.833H173.949C174.341 570.833 174.659 570.515 174.659 570.123C174.659 569.731 174.341 569.413 173.949 569.413H168.059Z" fill="#FF00FF"/>
<path fill-rule="evenodd" clip-rule="evenodd" d="M114.054 569.418C114.446 569.418 114.764 569.736 114.764 570.128V571.328C114.764 571.405 114.826 571.468 114.904 571.468H119.097C119.174 571.468 119.237 571.405 119.237 571.328V570.128C119.237 569.736 119.554 569.418 119.947 569.418C120.339 569.418 120.657 569.736 120.657 570.128V575.377C120.657 575.769 120.339 576.087 119.947 576.087H114.054L114.036 576.087C113.993 576.086 113.951 576.081 113.91 576.073C113.587 576.006 113.344 575.72 113.344 575.377L113.344 575.369V572.185C113.344 572.183 113.344 572.18 113.344 572.178C113.344 572.175 113.344 572.173 113.344 572.17V570.128C113.344 569.736 113.661 569.418 114.054 569.418ZM114.904 572.888C114.826 572.888 114.764 572.951 114.764 573.028V574.527C114.764 574.604 114.826 574.667 114.904 574.667H119.097C119.174 574.667 119.237 574.604 119.237 574.527V573.028C119.237 572.951 119.174 572.888 119.097 572.888H114.904Z" fill="#FF00FF"/>
<path d="M797.102 571.715H796.374C796.285 571.715 796.218 571.634 796.235 571.547L796.781 568.732C796.8 568.627 796.812 568.527 796.812 568.428C796.812 568.019 796.514 567.752 796.086 567.752C795.714 567.752 795.423 567.994 795.367 568.366L794.853 571.596C794.842 571.665 794.783 571.715 794.713 571.715H793.665C793.599 571.715 793.542 571.67 793.527 571.607L792.763 568.41C792.67 567.988 792.422 567.752 792 567.752C791.572 567.752 791.324 568 791.225 568.428L790.461 571.607C790.445 571.67 790.388 571.715 790.323 571.715H789.281C789.211 571.715 789.152 571.665 789.141 571.596L788.627 568.366C788.571 568 788.279 567.752 787.907 567.752C787.479 567.752 787.182 568.019 787.182 568.428C787.182 568.527 787.194 568.627 787.213 568.732L787.759 571.547C787.776 571.634 787.709 571.715 787.62 571.715H786.892C786.655 571.715 786.444 571.889 786.421 572.124C786.395 572.395 786.607 572.622 786.873 572.622H787.852C787.92 572.622 787.978 572.671 787.991 572.737L788.596 575.863C788.695 576.378 789.079 576.676 789.569 576.676C790.047 576.676 790.419 576.384 790.524 575.882L791.28 572.731C791.295 572.667 791.352 572.622 791.418 572.622H792.576C792.641 572.622 792.698 572.667 792.714 572.731L793.47 575.882C793.575 576.384 793.947 576.676 794.425 576.676C794.914 576.676 795.299 576.378 795.398 575.863L796.003 572.737C796.016 572.671 796.074 572.622 796.142 572.622H797.121C797.386 572.622 797.598 572.395 797.573 572.124C797.55 571.889 797.339 571.715 797.102 571.715ZM791.859 570.321C791.894 570.176 792.1 570.176 792.135 570.321L792.426 571.541C792.448 571.63 792.38 571.715 792.288 571.715H791.705C791.614 571.715 791.546 571.63 791.567 571.541L791.859 570.321ZM789.836 574.238C789.8 574.389 789.582 574.381 789.558 574.227L789.33 572.786C789.316 572.7 789.383 572.622 789.47 572.622H790.042C790.133 572.622 790.201 572.708 790.179 572.797L789.836 574.238ZM794.436 574.227C794.412 574.381 794.194 574.389 794.158 574.238L793.814 572.797C793.793 572.708 793.861 572.622 793.952 572.622H794.524C794.611 572.622 794.678 572.7 794.664 572.786L794.436 574.227Z" fill="#FF00FF"/>
<path d="M108.602 409.715H107.874C107.785 409.715 107.718 409.634 107.735 409.547L108.281 406.732C108.3 406.627 108.312 406.527 108.312 406.428C108.312 406.019 108.014 405.752 107.586 405.752C107.214 405.752 106.923 405.994 106.867 406.366L106.353 409.596C106.342 409.665 106.283 409.715 106.213 409.715H105.165C105.099 409.715 105.042 409.67 105.027 409.607L104.263 406.41C104.17 405.988 103.922 405.752 103.5 405.752C103.072 405.752 102.824 406 102.725 406.428L101.961 409.607C101.945 409.67 101.888 409.715 101.823 409.715H100.781C100.711 409.715 100.652 409.665 100.641 409.596L100.127 406.366C100.071 406 99.7792 405.752 99.4072 405.752C98.9793 405.752 98.6816 406.019 98.6816 406.428C98.6816 406.527 98.694 406.627 98.7126 406.732L99.2587 409.547C99.2757 409.634 99.2087 409.715 99.1196 409.715H98.3919C98.1551 409.715 97.9435 409.889 97.9211 410.124C97.8953 410.395 98.1073 410.622 98.3725 410.622H99.3519C99.4198 410.622 99.4781 410.671 99.491 410.737L100.096 413.863C100.195 414.378 100.579 414.676 101.069 414.676C101.547 414.676 101.919 414.384 102.024 413.882L102.78 410.731C102.795 410.667 102.852 410.622 102.918 410.622H104.076C104.141 410.622 104.198 410.667 104.214 410.731L104.97 413.882C105.075 414.384 105.447 414.676 105.925 414.676C106.414 414.676 106.799 414.378 106.898 413.863L107.503 410.737C107.516 410.671 107.574 410.622 107.642 410.622H108.621C108.886 410.622 109.098 410.395 109.073 410.124C109.05 409.889 108.839 409.715 108.602 409.715ZM103.359 408.321C103.394 408.176 103.6 408.176 103.635 408.321L103.926 409.541C103.948 409.63 103.88 409.715 103.788 409.715H103.205C103.114 409.715 103.046 409.63 103.067 409.541L103.359 408.321ZM101.336 412.238C101.3 412.389 101.082 412.381 101.058 412.227L100.83 410.786C100.816 410.7 100.883 410.622 100.97 410.622H101.542C101.633 410.622 101.701 410.708 101.679 410.797L101.336 412.238ZM105.936 412.227C105.912 412.381 105.694 412.389 105.658 412.238L105.314 410.797C105.293 410.708 105.361 410.622 105.452 410.622H106.024C106.111 410.622 106.178 410.7 106.164 410.786L105.936 412.227Z" fill="#FF00FF"/>
<rect x="743.5" y="703" width="67.5" height="54" stroke="#00FFFF"/>
<rect x="676" y="703" width="67.5" height="54" stroke="#00FFFF"/>
<rect x="608.5" y="703" width="67.5" height="54" stroke="#00FFFF"/>
<rect x="541" y="703" width="67.5" height="54" stroke="#00FFFF"/>
<rect x="136" y="703" width="67.5" height="54" stroke="#00FFFF"/>
<rect x="68.5" y="703" width="67.5" height="54" stroke="#00FFFF"/>
<rect x="1" y="703" width="67.5" height="54" stroke="#00FFFF"/>
<rect x="662.5" y="649" width="148.5" height="54" stroke="#00FFFF"/>
<rect x="1" y="649" width="121.5" height="54" stroke="#00FFFF"/>
<rect x="689.5" y="595" width="121.5" height="54" stroke="#00FFFF"/>
<rect x="1" y="595" width="94.5" height="54" stroke="#00FFFF"/>
<rect x="1" y="541" width="81" height="54" stroke="#00FFFF"/>
<rect x="703" y="487" width="108" height="54" stroke="#00FFFF"/>
<rect x="608.5" y="649" width="54" height="54" stroke="#00FFFF"/>
<rect x="554.5" y="649" width="54" height="54" stroke="#00FFFF"/>
<rect x="500.5" y="649" width="54" height="54" stroke="#00FFFF"/>
<rect x="446.5" y="649" width="54" height="54" stroke="#00FFFF"/>
<rect x="392.5" y="649" width="54" height="54" stroke="#00FFFF"/>
<rect x="338.5" y="649" width="54" height="54" stroke="#00FFFF"/>
<rect x="284.5" y="649" width="54" height="54" stroke="#00FFFF"/>
<rect x="230.5" y="649" width="54" height="54" stroke="#00FFFF"/>
<rect x="176.5" y="649" width="54" height="54" stroke="#00FFFF"/>
<rect x="122.5" y="649" width="54" height="54" stroke="#00FFFF"/>
<rect x="635.5" y="595" width="54" height="54" stroke="#00FFFF"/>
<rect x="581.5" y="595" width="54" height="54" stroke="#00FFFF"/>
<rect x="527.5" y="595" width="54" height="54" stroke="#00FFFF"/>
<rect x="473.5" y="595" width="54" height="54" stroke="#00FFFF"/>
<rect x="419.5" y="595" width="54" height="54" stroke="#00FFFF"/>
<rect x="365.5" y="595" width="54" height="54" stroke="#00FFFF"/>
<rect x="311.5" y="595" width="54" height="54" stroke="#00FFFF"/>
<rect x="257.5" y="595" width="54" height="54" stroke="#00FFFF"/>
<rect x="203.5" y="595" width="54" height="54" stroke="#00FFFF"/>
<rect x="149.5" y="595" width="54" height="54" stroke="#00FFFF"/>
<rect x="95.5" y="595" width="54" height="54" stroke="#00FFFF"/>
<rect x="730" y="541" width="81" height="54" stroke="#00FFFF"/>
<rect x="676" y="541" width="54" height="54" stroke="#00FFFF"/>
<rect x="622" y="541" width="54" height="54" stroke="#00FFFF"/>
<rect x="568" y="541" width="54" height="54" stroke="#00FFFF"/>
<rect x="514" y="541" width="54" height="54" stroke="#00FFFF"/>
<rect x="460" y="541" width="54" height="54" stroke="#00FFFF"/>
<rect x="406" y="541" width="54" height="54" stroke="#00FFFF"/>
<rect x="352" y="541" width="54" height="54" stroke="#00FFFF"/>
<rect x="298" y="541" width="54" height="54" stroke="#00FFFF"/>
<rect x="244" y="541" width="54" height="54" stroke="#00FFFF"/>
<rect x="190" y="541" width="54" height="54" stroke="#00FFFF"/>
<rect x="136" y="541" width="54" height="54" stroke="#00FFFF"/>
<rect x="82" y="541" width="54" height="54" stroke="#00FFFF"/>
<rect x="55" y="487" width="54" height="54" stroke="#00FFFF"/>
<rect x="109" y="487" width="54" height="54" stroke="#00FFFF"/>
<rect x="163" y="487" width="54" height="54" stroke="#00FFFF"/>
<rect x="217" y="487" width="54" height="54" stroke="#00FFFF"/>
<rect x="271" y="487" width="54" height="54" stroke="#00FFFF"/>
<rect x="325" y="487" width="54" height="54" stroke="#00FFFF"/>
<rect x="379" y="487" width="54" height="54" stroke="#00FFFF"/>
<rect x="433" y="487" width="54" height="54" stroke="#00FFFF"/>
<rect x="487" y="487" width="54" height="54" stroke="#00FFFF"/>
<rect x="541" y="487" width="54" height="54" stroke="#00FFFF"/>
<rect x="595" y="487" width="54" height="54" stroke="#00FFFF"/>
<rect x="649" y="487" width="54" height="54" stroke="#00FFFF"/>
<rect x="1" y="487" width="54" height="54" stroke="#00FFFF"/>
<rect x="217" y="433" width="54" height="54" stroke="#00FFFF"/>
<rect x="163" y="433" width="54" height="54" stroke="#00FFFF"/>
<rect x="109" y="433" width="54" height="54" stroke="#00FFFF"/>
<rect x="55" y="433" width="54" height="54" stroke="#00FFFF"/>
<rect x="433" y="433" width="54" height="54" stroke="#00FFFF"/>
<rect x="379" y="433" width="54" height="54" stroke="#00FFFF"/>
<rect x="325" y="433" width="54" height="54" stroke="#00FFFF"/>
<rect x="271" y="433" width="54" height="54" stroke="#00FFFF"/>
<rect x="649" y="433" width="54" height="54" stroke="#00FFFF"/>
<rect x="595" y="433" width="54" height="54" stroke="#00FFFF"/>
<rect x="541" y="433" width="54" height="54" stroke="#00FFFF"/>
<rect x="487" y="433" width="54" height="54" stroke="#00FFFF"/>
<rect x="541" y="379" width="54" height="54" stroke="#00FFFF"/>
<rect x="487" y="379" width="54" height="54" stroke="#00FFFF"/>
<rect x="433" y="379" width="54" height="54" stroke="#00FFFF"/>
<rect x="487" y="325" width="54" height="54" stroke="#00FFFF"/>
<rect x="703" y="379" width="54" height="54" stroke="#00FFFF"/>
<rect x="595" y="379" width="108" height="54" stroke="#00FFFF"/>
<rect x="757" y="325" width="54" height="108" stroke="#00FFFF"/>
<rect x="703" y="325" width="54" height="54" stroke="#00FFFF"/>
<rect x="649" y="325" width="54" height="54" stroke="#00FFFF"/>
<rect x="595" y="325" width="54" height="54" stroke="#00FFFF"/>
<rect x="703" y="271" width="54" height="54" stroke="#00FFFF"/>
<rect x="595" y="271" width="54" height="54" stroke="#00FFFF"/>
<rect x="757" y="217" width="54" height="108" stroke="#00FFFF"/>
<rect x="703" y="217" width="54" height="54" stroke="#00FFFF"/>
<rect x="649" y="217" width="54" height="54" stroke="#00FFFF"/>
<rect x="595" y="217" width="54" height="54" stroke="#00FFFF"/>
<rect x="757" y="163" width="54" height="54" stroke="#00FFFF"/>
<rect x="703" y="163" width="54" height="54" stroke="#00FFFF"/>
<rect x="649" y="163" width="54" height="54" stroke="#00FFFF"/>
<rect x="595" y="163" width="54" height="54" stroke="#00FFFF"/>
<rect x="649" y="271" width="54" height="54" stroke="#00FFFF"/>
<rect x="541" y="163" width="54" height="54" stroke="#00FFFF"/>
<rect x="487" y="163" width="54" height="54" stroke="#00FFFF"/>
<rect x="433" y="163" width="54" height="54" stroke="#00FFFF"/>
<rect x="541" y="217" width="54" height="54" stroke="#00FFFF"/>
<rect x="487" y="217" width="54" height="54" stroke="#00FFFF"/>
<rect x="433" y="217" width="54" height="54" stroke="#00FFFF"/>
<rect x="541" y="271" width="54" height="54" stroke="#00FFFF"/>
<rect x="487" y="271" width="54" height="54" stroke="#00FFFF"/>
<rect x="433" y="271" width="54" height="54" stroke="#00FFFF"/>
<rect x="595" y="757" width="81" height="54" stroke="#00FFFF"/>
<rect x="676" y="757" width="54" height="54" stroke="#00FFFF"/>
<rect x="730" y="757" width="81" height="54" stroke="#00FFFF"/>
<rect x="136" y="757" width="81" height="54" stroke="#00FFFF"/>
<rect x="82" y="757" width="54" height="54" stroke="#00FFFF"/>
<rect x="1" y="757" width="81" height="54" stroke="#00FFFF"/>
<rect x="1" y="433" width="54" height="54" stroke="#00FFFF"/>
<rect x="757" y="433" width="54" height="54" stroke="#00FFFF"/>
<rect x="703" y="433" width="54" height="54" stroke="#00FFFF"/>
<rect x="541" y="325" width="54" height="54" stroke="#00FFFF"/>
<rect x="433" y="325" width="54" height="54" stroke="#00FFFF"/>
<rect x="379" y="325" width="54" height="54" stroke="#00FFFF"/>
<rect x="379" y="379" width="54" height="54" stroke="#00FFFF"/>
<rect x="298" y="379" width="81" height="54" stroke="#00FFFF"/>
<rect x="298" y="325" width="81" height="54" stroke="#00FFFF"/>
<rect x="217" y="325" width="81" height="108" stroke="#00FFFF"/>
<rect x="176.5" y="379" width="54" height="54" stroke="#00FFFF"/>
<rect x="122.5" y="379" width="54" height="54" stroke="#00FFFF"/>
<rect x="68.5" y="379" width="54" height="54" stroke="#00FFFF"/>
<rect x="1" y="379" width="67.5" height="54" stroke="#00FFFF"/>
<rect x="109" y="325" width="54" height="54" stroke="#00FFFF"/>
<rect x="55" y="325" width="54" height="54" stroke="#00FFFF"/>
<rect x="1" y="325" width="54" height="54" stroke="#00FFFF"/>
<rect x="163" y="325" width="54" height="54" stroke="#00FFFF"/>
<rect x="271" y="271" width="94.5" height="54" stroke="#00FFFF"/>
<rect x="365.5" y="271" width="67.5" height="54" stroke="#00FFFF"/>
<rect x="217" y="271" width="54" height="54" stroke="#00FFFF"/>
<rect x="163" y="271" width="54" height="54" stroke="#00FFFF"/>
<rect x="95.5" y="271" width="67.5" height="54" stroke="#00FFFF"/>
<rect x="1" y="271" width="94.5" height="54" stroke="#00FFFF"/>
<rect x="379" y="163" width="54" height="54" stroke="#00FFFF"/>
<rect x="271" y="163" width="54" height="54" stroke="#00FFFF"/>
<rect x="163" y="163" width="108" height="54" stroke="#00FFFF"/>
<rect x="95.5" y="163" width="67.5" height="54" stroke="#00FFFF"/>
<rect x="217" y="217" width="54" height="54" stroke="#00FFFF"/>
<rect x="163" y="217" width="54" height="54" stroke="#00FFFF"/>
<rect x="95.5" y="217" width="67.5" height="54" stroke="#00FFFF"/>
<rect x="1" y="217" width="94.5" height="54" stroke="#00FFFF"/>
<rect x="1" y="163" width="94.5" height="54" stroke="#00FFFF"/>
<rect x="730" y="55" width="81" height="108" stroke="#00FFFF"/>
<rect x="635.5" y="109" width="54" height="54" stroke="#00FFFF"/>
<rect x="554.5" y="109" width="81" height="54" stroke="#00FFFF"/>
<rect x="446.5" y="109" width="108" height="54" stroke="#00FFFF"/>
<rect x="311.5" y="109" width="81" height="54" stroke="#00FFFF"/>
<rect x="257.5" y="109" width="54" height="54" stroke="#00FFFF"/>
<rect x="163" y="109" width="94.5" height="54" stroke="#00FFFF"/>
<rect x="82" y="109" width="81" height="54" stroke="#00FFFF"/>
<rect x="1" y="109" width="81" height="54" stroke="#00FFFF"/>
<rect x="635.5" y="55" width="94.5" height="54" stroke="#00FFFF"/>
<rect x="527.5" y="55" width="54" height="54" stroke="#00FFFF"/>
<rect x="473.5" y="55" width="54" height="54" stroke="#00FFFF"/>
<rect x="392.5" y="55" width="81" height="54" stroke="#00FFFF"/>
<rect x="1" y="1" width="54" height="54" stroke="#00FFFF"/>
<rect x="55" y="1" width="54" height="54" stroke="#00FFFF"/>
<rect x="109" y="1" width="54" height="54" stroke="#00FFFF"/>
<rect x="163" y="1" width="54" height="54" stroke="#00FFFF"/>
<rect x="217" y="1" width="54" height="54" stroke="#00FFFF"/>
<rect x="271" y="1" width="54" height="54" stroke="#00FFFF"/>
<rect x="325" y="1" width="54" height="54" stroke="#00FFFF"/>
<rect x="379" y="1" width="54" height="54" stroke="#00FFFF"/>
</svg>
