<svg width="812" height="812" viewBox="0 0 812 812" fill="none" xmlns="http://www.w3.org/2000/svg">
<path fill-rule="evenodd" clip-rule="evenodd" d="M695.105 712.157L699.011 710.259C699.223 710.156 699.473 710.169 699.673 710.294C699.874 710.42 699.995 710.639 699.995 710.875V710.885C699.995 710.983 699.974 711.079 699.934 711.168L699.466 712.198C699.425 712.288 699.487 712.39 699.584 712.399C699.681 712.408 699.777 712.419 699.874 712.433C701.267 712.625 702.558 713.273 703.545 714.276C704.532 715.278 705.159 716.579 705.33 717.975C705.501 719.372 705.205 720.785 704.489 721.996C704.29 722.334 703.854 722.445 703.517 722.246C703.179 722.046 703.068 721.611 703.267 721.273C703.824 720.332 704.054 719.233 703.921 718.148C703.788 717.062 703.3 716.051 702.533 715.272C701.766 714.493 700.762 713.989 699.679 713.839C699.662 713.837 699.645 713.834 699.627 713.832C699.522 713.819 699.445 713.927 699.489 714.024L699.934 715.001C700.053 715.264 699.995 715.574 699.788 715.775C699.581 715.977 699.27 716.027 699.011 715.901L695.105 714.003C694.325 713.636 694.325 712.524 695.105 712.157ZM694.733 716.227C694.932 715.889 694.82 715.454 694.483 715.254C694.145 715.054 693.71 715.166 693.51 715.504C692.794 716.715 692.499 718.128 692.67 719.525C692.84 720.921 693.468 722.222 694.455 723.224C695.442 724.227 696.733 724.875 698.126 725.067C698.222 725.081 698.319 725.092 698.415 725.101C698.513 725.11 698.575 725.212 698.534 725.302L698.066 726.331C698.026 726.42 698.005 726.517 698.005 726.615V726.625C698.005 726.861 698.126 727.08 698.326 727.206C698.526 727.331 698.777 727.344 698.989 727.241L702.894 725.343C703.675 724.976 703.675 723.864 702.894 723.497L698.989 721.599C698.729 721.473 698.418 721.523 698.212 721.724C698.005 721.926 697.947 722.235 698.066 722.498L698.51 723.476C698.554 723.573 698.478 723.681 698.372 723.668C698.355 723.665 698.338 723.663 698.321 723.661C697.237 723.511 696.234 723.007 695.467 722.228C694.7 721.449 694.212 720.438 694.079 719.352C693.946 718.267 694.176 717.168 694.733 716.227Z" fill="#FF00FF"/>
<path d="M704.583 738.208V734.086C704.583 733.71 704.803 733.47 705.164 733.47C705.371 733.47 705.54 733.551 705.646 733.692C705.671 733.726 705.693 733.765 705.711 733.801C705.745 733.872 705.83 733.902 705.9 733.868C706.167 733.739 706.786 733.475 707.401 733.475C708.544 733.475 709.194 734.208 709.194 735.404V738.208C709.194 738.618 708.945 738.848 708.588 738.848C708.232 738.848 707.978 738.618 707.978 738.208V735.649C707.978 734.916 707.636 734.506 706.942 734.506C706.249 734.506 705.799 735.009 705.799 735.751V738.208C705.799 738.618 705.545 738.848 705.189 738.848C704.832 738.848 704.583 738.618 704.583 738.208Z" fill="#FF00FF"/>
<path d="M702.202 736.832C702.202 737.457 701.645 737.916 700.962 737.916C700.435 737.916 700.078 737.647 700.078 737.222C700.078 736.798 700.415 736.549 701.001 736.51L702.149 736.44C702.178 736.438 702.202 736.46 702.202 736.489V736.832L702.202 736.832ZM701.284 733.468C700.293 733.468 699.721 733.808 699.429 734.135C699.26 734.325 699.238 734.725 699.47 734.91C699.742 735.127 700.196 734.965 700.352 734.773C700.493 734.6 700.807 734.425 701.235 734.42C701.835 734.412 702.202 734.732 702.202 735.274V735.477C702.202 735.503 702.181 735.525 702.155 735.526L700.83 735.602C699.57 735.68 698.862 736.353 698.862 737.271C698.862 738.189 699.592 738.833 700.591 738.833C701.222 738.833 701.838 738.668 702.145 738.543C702.209 738.517 702.283 738.541 702.319 738.601C702.322 738.605 702.324 738.609 702.326 738.612C702.408 738.728 702.554 738.848 702.812 738.848C703.154 738.848 703.403 738.628 703.403 738.238V735.186C703.403 734.146 702.568 733.468 701.284 733.468Z" fill="#FF00FF"/>
<path d="M713.5 736.832C713.5 737.457 712.944 737.916 712.26 737.916C711.733 737.916 711.377 737.647 711.377 737.222C711.377 736.798 711.713 736.549 712.299 736.51L713.448 736.44C713.476 736.438 713.5 736.46 713.5 736.489V736.832L713.5 736.832ZM712.582 733.468C711.591 733.468 711.02 733.808 710.727 734.135C710.558 734.325 710.536 734.725 710.769 734.91C711.04 735.127 711.495 734.965 711.651 734.773C711.791 734.6 712.106 734.425 712.533 734.42C713.134 734.412 713.5 734.732 713.5 735.274V735.477C713.5 735.503 713.48 735.525 713.453 735.526L712.128 735.602C710.869 735.68 710.161 736.353 710.161 737.271C710.161 738.189 710.891 738.833 711.889 738.833C712.521 738.833 713.137 738.668 713.443 738.543C713.508 738.517 713.581 738.541 713.617 738.601C713.62 738.605 713.623 738.609 713.625 738.612C713.706 738.728 713.853 738.848 714.111 738.848C714.452 738.848 714.701 738.628 714.701 738.238V735.186C714.701 734.146 713.866 733.468 712.582 733.468Z" fill="#FF00FF"/>
<path d="M693.25 738.833C692.859 738.833 692.62 738.594 692.62 738.179V732.275C692.62 731.86 692.859 731.621 693.25 731.621C693.641 731.621 693.88 731.86 693.88 732.275V734.623C693.88 734.751 694.038 734.813 694.126 734.719L696.756 731.88C696.927 731.694 697.078 731.616 697.283 731.616C697.62 731.616 697.869 731.87 697.869 732.192C697.869 732.363 697.811 732.495 697.664 732.651L695.632 734.772C695.582 734.824 695.579 734.905 695.625 734.961L697.874 737.681C698.045 737.891 698.118 738.067 698.118 738.233C698.118 738.574 697.854 738.838 697.513 738.838C697.264 738.838 697.093 738.745 696.897 738.501L694.714 735.833C694.66 735.767 694.56 735.763 694.501 735.826L693.957 736.403C693.907 736.455 693.88 736.525 693.88 736.597V738.179C693.88 738.594 693.645 738.833 693.25 738.833L693.25 738.833Z" fill="#FF00FF"/>
<path fill-rule="evenodd" clip-rule="evenodd" d="M631.143 711.013C631.354 710.892 631.614 710.891 631.826 711.013L636.505 713.694C636.718 713.816 636.85 714.042 636.85 714.288C636.85 714.533 636.719 714.759 636.507 714.882L631.857 717.563C631.645 717.685 631.385 717.686 631.174 717.564L626.494 714.883C626.282 714.761 626.15 714.535 626.15 714.289C626.15 714.044 626.28 713.818 626.493 713.695L631.143 711.013ZM628.42 714.165C628.327 714.219 628.327 714.354 628.421 714.408L631.374 716.1C631.46 716.149 631.567 716.149 631.653 716.1L634.579 714.412C634.673 714.358 634.673 714.223 634.579 714.169L631.626 712.477C631.54 712.427 631.433 712.428 631.347 712.477L628.42 714.165ZM628.679 718.701L630.577 722.606C630.944 723.386 632.056 723.386 632.423 722.606L634.321 718.701C634.447 718.441 634.397 718.13 634.196 717.923C633.994 717.716 633.684 717.658 633.422 717.778L631.621 718.596C631.547 718.63 631.463 718.63 631.389 718.596L629.588 717.778C629.499 717.737 629.403 717.716 629.305 717.716H629.295C629.059 717.716 628.84 717.838 628.714 718.038C628.589 718.238 628.576 718.488 628.679 718.701ZM628.99 722.76C629.317 722.571 629.43 722.152 629.241 721.824C629.052 721.496 628.633 721.384 628.305 721.573L626.493 722.618C626.28 722.74 626.15 722.967 626.15 723.212C626.15 723.458 626.282 723.684 626.494 723.806L631.174 726.487C631.386 726.609 631.646 726.608 631.857 726.486L636.507 723.805C636.72 723.682 636.85 723.456 636.85 723.21C636.85 722.965 636.718 722.739 636.506 722.617L634.694 721.579C634.366 721.391 633.948 721.505 633.759 721.833C633.571 722.161 633.685 722.58 634.013 722.768L634.579 723.092C634.673 723.146 634.673 723.281 634.58 723.335L631.653 725.022C631.567 725.072 631.46 725.072 631.374 725.023L628.421 723.331C628.327 723.277 628.327 723.142 628.421 723.088L628.99 722.76Z" fill="#FF00FF"/>
<path d="M637.166 738.75C636.775 738.75 636.536 738.506 636.536 738.096V732.358C636.536 731.948 636.775 731.704 637.166 731.704H640.598C640.945 731.704 641.174 731.909 641.174 732.236C641.174 732.563 640.945 732.769 640.598 732.769H637.937C637.859 732.769 637.796 732.832 637.796 732.91V734.531C637.796 734.609 637.859 734.673 637.937 734.673H640.452C640.774 734.673 640.994 734.863 640.994 735.171C640.994 735.479 640.779 735.674 640.452 735.674H637.937C637.859 735.674 637.796 735.737 637.796 735.816V737.544C637.796 737.622 637.859 737.686 637.937 737.686H640.598C640.945 737.686 641.174 737.891 641.174 738.218C641.174 738.545 640.945 738.75 640.598 738.75H637.166V738.75Z" fill="#FF00FF"/>
<path d="M628.386 738.833C628.03 738.833 627.82 738.613 627.82 738.242V732.422C627.82 731.924 628.128 731.621 628.631 731.621C629.065 731.621 629.314 731.807 629.5 732.275L631.326 736.748C631.374 736.865 631.541 736.865 631.589 736.748L633.411 732.275C633.596 731.811 633.85 731.621 634.29 731.621C634.793 731.621 635.091 731.919 635.091 732.422V738.242C635.091 738.613 634.881 738.833 634.524 738.833C634.168 738.833 633.958 738.613 633.958 738.242V734.382C633.958 734.227 633.744 734.185 633.685 734.328L632.054 738.281C631.931 738.574 631.751 738.706 631.458 738.706C631.165 738.706 630.979 738.574 630.862 738.286L629.231 734.329C629.171 734.185 628.958 734.228 628.958 734.383V738.242C628.958 738.613 628.743 738.833 628.386 738.833Z" fill="#FF00FF"/>
<path d="M625.75 738.833C625.359 738.833 625.12 738.594 625.12 738.179V732.275C625.12 731.86 625.359 731.621 625.75 731.621C626.141 731.621 626.38 731.86 626.38 732.275V738.179C626.38 738.594 626.146 738.833 625.75 738.833Z" fill="#FF00FF"/>
<path fill-rule="evenodd" clip-rule="evenodd" d="M91.1431 710.398C91.3543 710.276 91.6143 710.276 91.8258 710.397L96.5055 713.078C96.7182 713.2 96.8496 713.427 96.8499 713.672C96.8502 713.917 96.7195 714.144 96.5071 714.266L91.8567 716.948C91.6455 717.069 91.3855 717.07 91.1739 716.949L86.4943 714.267C86.2816 714.145 86.1502 713.919 86.1499 713.674C86.1496 713.428 86.2803 713.202 86.4927 713.079L91.1431 710.398ZM88.4204 713.549C88.3268 713.603 88.327 713.738 88.4207 713.792L91.3738 715.484C91.4603 715.534 91.5666 715.534 91.6529 715.484L94.5794 713.796C94.673 713.742 94.6728 713.607 94.5791 713.554L91.626 711.861C91.5395 711.812 91.4332 711.812 91.3469 711.862L88.4204 713.549ZM94.3211 722.37L92.4234 718.465C92.056 717.685 90.944 717.685 90.5766 718.465L88.6789 722.37C88.5527 722.63 88.6029 722.941 88.8045 723.148C89.006 723.355 89.3156 723.413 89.5785 723.293L91.3791 722.475C91.4528 722.442 91.5373 722.442 91.6109 722.475L93.4116 723.293C93.5006 723.334 93.5972 723.355 93.695 723.355H93.705C93.941 723.355 94.1604 723.233 94.2857 723.033C94.4109 722.833 94.4243 722.583 94.3211 722.37ZM86.2407 723.486C86.4288 723.158 86.8474 723.045 87.1756 723.233L91.3739 725.638C91.4604 725.688 91.5667 725.688 91.653 725.638L95.8228 723.234C96.1506 723.045 96.5694 723.157 96.7584 723.485C96.9474 723.813 96.8349 724.231 96.5072 724.42L91.8568 727.102C91.6456 727.224 91.3856 727.224 91.1741 727.103L86.4944 724.421C86.1662 724.233 86.0526 723.815 86.2407 723.486Z" fill="#FF00FF"/>
<path d="M109.358 736.831C109.358 737.456 108.801 737.915 108.118 737.915C107.591 737.915 107.234 737.647 107.234 737.222C107.234 736.797 107.571 736.548 108.157 736.509L109.305 736.439C109.334 736.437 109.358 736.46 109.358 736.489V736.831L109.358 736.831ZM108.44 733.467C107.449 733.467 106.877 733.808 106.585 734.135C106.416 734.325 106.394 734.724 106.626 734.91C106.898 735.127 107.352 734.964 107.508 734.772C107.649 734.6 107.963 734.425 108.391 734.419C108.991 734.411 109.358 734.732 109.358 735.274V735.476C109.358 735.503 109.337 735.524 109.311 735.526L107.986 735.601C106.726 735.679 106.018 736.353 106.018 737.27C106.018 738.188 106.748 738.833 107.747 738.833C108.378 738.833 108.994 738.668 109.301 738.542C109.365 738.516 109.439 738.541 109.475 738.6C109.478 738.605 109.48 738.609 109.482 738.611C109.564 738.727 109.71 738.847 109.968 738.847C110.31 738.847 110.559 738.628 110.559 738.237V735.186C110.559 734.146 109.724 733.467 108.44 733.467Z" fill="#FF00FF"/>
<path d="M100.378 738.208V732.231C100.378 731.845 100.607 731.605 100.978 731.605C101.35 731.605 101.579 731.845 101.579 732.231V733.706C101.579 733.809 101.686 733.878 101.78 733.835C102.075 733.701 102.655 733.476 103.239 733.476C104.382 733.476 105.051 734.228 105.051 735.415V738.208C105.051 738.618 104.797 738.848 104.441 738.848C104.084 738.848 103.835 738.618 103.835 738.208V735.664C103.835 734.941 103.474 734.506 102.771 734.506C102.067 734.506 101.594 735.014 101.594 735.776V738.208C101.594 738.618 101.345 738.848 100.988 738.848C100.632 738.848 100.378 738.618 100.378 738.208Z" fill="#FF00FF"/>
<path d="M96.8428 737.836C96.0858 737.836 95.5828 737.177 95.5779 736.161C95.5828 735.155 96.0566 734.486 96.8428 734.486C97.629 734.486 98.1174 735.14 98.1174 736.161C98.1174 737.187 97.5998 737.836 96.8428 737.836ZM99.3627 736.161C99.3627 734.505 98.5276 733.485 97.2138 733.485C96.7278 733.485 95.9577 733.729 95.6568 733.831C95.5893 733.854 95.5146 733.824 95.4829 733.76C95.4749 733.744 95.4666 733.728 95.4562 733.713C95.3369 733.542 95.1612 733.47 94.9625 733.47C94.6157 733.47 94.3716 733.695 94.3716 734.095V739.951C94.3716 740.361 94.6206 740.591 94.9772 740.591C95.3338 740.591 95.5877 740.361 95.5877 739.951V738.593C95.5877 738.49 95.6936 738.421 95.7872 738.463C96.1491 738.626 96.7518 738.833 97.2335 738.833C98.5325 738.833 99.3628 737.812 99.3628 736.161L99.3627 736.161Z" fill="#FF00FF"/>
<path d="M92.532 738.848C92.1756 738.848 91.9216 738.618 91.9216 738.208V732.246C91.9216 731.836 92.1755 731.606 92.532 731.606C92.8885 731.606 93.1375 731.836 93.1375 732.246V738.208C93.1375 738.618 92.8885 738.848 92.532 738.848Z" fill="#FF00FF"/>
<path d="M90.8086 737.866L88.7578 732.3C88.5821 731.826 88.2989 731.621 87.835 731.621C87.3711 731.621 87.0928 731.836 86.9219 732.305L84.876 737.866C84.8174 738.018 84.793 738.154 84.793 738.252C84.793 738.608 85.042 738.833 85.4278 738.833C85.755 738.833 85.9405 738.672 86.0577 738.291L86.4885 737.048C86.5083 736.991 86.562 736.953 86.6224 736.953H89.0523C89.1128 736.953 89.1666 736.992 89.1863 737.049L89.6173 738.301C89.7296 738.677 89.92 738.833 90.2618 738.833C90.628 738.833 90.8917 738.594 90.8917 738.252C90.8917 738.14 90.8673 738.027 90.8087 737.866H90.8086ZM86.8806 735.771L87.6935 733.304C87.7362 733.174 87.9195 733.174 87.9626 733.304L88.7836 735.771C88.8141 735.862 88.7458 735.957 88.6491 735.957H87.0152C86.9187 735.957 86.8504 735.863 86.8806 735.771Z" fill="#FF00FF"/>
<path fill-rule="evenodd" clip-rule="evenodd" d="M104.643 764.398C104.854 764.276 105.114 764.276 105.326 764.397L110.005 767.078C110.218 767.2 110.35 767.427 110.35 767.672C110.35 767.917 110.219 768.144 110.007 768.266L105.357 770.948C105.145 771.069 104.885 771.07 104.674 770.949L99.9943 768.267C99.7816 768.145 99.6502 767.919 99.6499 767.674C99.6496 767.428 99.7803 767.202 99.9927 767.079L104.643 764.398ZM101.92 767.549C101.827 767.603 101.827 767.738 101.921 767.792L104.874 769.484C104.96 769.534 105.067 769.534 105.153 769.484L108.079 767.796C108.173 767.742 108.173 767.607 108.079 767.554L105.126 765.861C105.04 765.812 104.933 765.812 104.847 765.862L101.92 767.549ZM107.821 776.37L105.923 772.465C105.556 771.685 104.444 771.685 104.077 772.465L102.179 776.37C102.053 776.63 102.103 776.941 102.304 777.148C102.506 777.355 102.816 777.413 103.078 777.293L104.879 776.475C104.953 776.442 105.037 776.442 105.111 776.475L106.912 777.293C107.001 777.334 107.097 777.355 107.195 777.355H107.205C107.441 777.355 107.66 777.233 107.786 777.033C107.911 776.833 107.924 776.583 107.821 776.37ZM99.7407 777.486C99.9288 777.158 100.347 777.045 100.676 777.233L104.874 779.638C104.96 779.688 105.067 779.688 105.153 779.638L109.323 777.234C109.651 777.045 110.069 777.157 110.258 777.485C110.447 777.813 110.335 778.231 110.007 778.42L105.357 781.102C105.146 781.224 104.886 781.224 104.674 781.103L99.9944 778.421C99.6662 778.233 99.5526 777.815 99.7407 777.486Z" fill="#FF00FF"/>
<path d="M120.682 790.831C120.682 791.456 120.126 791.915 119.442 791.915C118.915 791.915 118.558 791.647 118.558 791.222C118.558 790.797 118.895 790.548 119.481 790.509L120.629 790.439C120.658 790.437 120.682 790.46 120.682 790.489V790.831L120.682 790.831ZM119.764 787.467C118.773 787.467 118.201 787.808 117.909 788.135C117.74 788.325 117.718 788.724 117.95 788.91C118.222 789.127 118.676 788.964 118.833 788.772C118.973 788.6 119.288 788.425 119.715 788.419C120.316 788.411 120.682 788.732 120.682 789.274V789.476C120.682 789.503 120.661 789.524 120.635 789.526L119.31 789.601C118.05 789.679 117.343 790.353 117.343 791.27C117.343 792.188 118.072 792.833 119.071 792.833C119.703 792.833 120.319 792.668 120.625 792.542C120.689 792.516 120.763 792.541 120.799 792.6C120.802 792.605 120.804 792.609 120.806 792.611C120.888 792.727 121.034 792.847 121.292 792.847C121.634 792.847 121.883 792.628 121.883 792.237V789.186C121.883 788.146 121.048 787.467 119.764 787.467Z" fill="#FF00FF"/>
<path d="M111.702 792.208V786.231C111.702 785.845 111.931 785.605 112.303 785.605C112.674 785.605 112.903 785.845 112.903 786.231V787.706C112.903 787.809 113.01 787.878 113.104 787.835C113.399 787.701 113.98 787.476 114.564 787.476C115.706 787.476 116.376 788.228 116.376 789.415V792.208C116.376 792.618 116.122 792.848 115.765 792.848C115.409 792.848 115.16 792.618 115.16 792.208V789.664C115.16 788.941 114.798 788.506 114.095 788.506C113.392 788.506 112.918 789.014 112.918 789.776V792.208C112.918 792.618 112.669 792.848 112.312 792.848C111.956 792.848 111.702 792.618 111.702 792.208Z" fill="#FF00FF"/>
<path d="M108.167 791.836C107.41 791.836 106.907 791.177 106.902 790.161C106.907 789.155 107.381 788.486 108.167 788.486C108.953 788.486 109.442 789.14 109.442 790.161C109.442 791.187 108.924 791.836 108.167 791.836ZM110.687 790.161C110.687 788.505 109.852 787.485 108.538 787.485C108.052 787.485 107.282 787.729 106.981 787.831C106.914 787.854 106.839 787.824 106.807 787.76C106.799 787.744 106.791 787.728 106.78 787.713C106.661 787.542 106.485 787.47 106.287 787.47C105.94 787.47 105.696 787.695 105.696 788.095V793.951C105.696 794.361 105.945 794.591 106.301 794.591C106.658 794.591 106.912 794.361 106.912 793.951V792.593C106.912 792.49 107.018 792.421 107.111 792.463C107.473 792.626 108.076 792.833 108.558 792.833C109.857 792.833 110.687 791.812 110.687 790.161L110.687 790.161Z" fill="#FF00FF"/>
<path d="M103.856 792.848C103.5 792.848 103.246 792.618 103.246 792.208V786.246C103.246 785.836 103.5 785.606 103.856 785.606C104.213 785.606 104.462 785.836 104.462 786.246V792.208C104.462 792.618 104.213 792.848 103.856 792.848Z" fill="#FF00FF"/>
<path d="M102.133 791.866L100.082 786.3C99.9063 785.826 99.6231 785.621 99.1592 785.621C98.6953 785.621 98.417 785.836 98.2461 786.305L96.2002 791.866C96.1416 792.018 96.1172 792.154 96.1172 792.252C96.1172 792.608 96.3662 792.833 96.752 792.833C97.0792 792.833 97.2647 792.672 97.3819 792.291L97.8127 791.048C97.8325 790.991 97.8862 790.953 97.9466 790.953H100.376C100.437 790.953 100.491 790.992 100.51 791.049L100.941 792.301C101.054 792.677 101.244 792.833 101.586 792.833C101.952 792.833 102.216 792.594 102.216 792.252C102.216 792.14 102.191 792.027 102.133 791.866H102.133ZM98.2048 789.771L99.0177 787.304C99.0604 787.174 99.2437 787.174 99.2868 787.304L100.108 789.771C100.138 789.862 100.07 789.957 99.9733 789.957H98.3394C98.2429 789.957 98.1746 789.863 98.2048 789.771Z" fill="#FF00FF"/>
<path d="M189.583 360.208V356.086C189.583 355.71 189.803 355.47 190.164 355.47C190.371 355.47 190.54 355.551 190.646 355.692C190.671 355.726 190.693 355.765 190.711 355.801C190.745 355.872 190.83 355.902 190.9 355.868C191.167 355.739 191.786 355.475 192.401 355.475C193.544 355.475 194.194 356.208 194.194 357.404V360.208C194.194 360.618 193.945 360.848 193.588 360.848C193.232 360.848 192.978 360.618 192.978 360.208V357.649C192.978 356.916 192.636 356.506 191.942 356.506C191.249 356.506 190.799 357.009 190.799 357.751V360.208C190.799 360.618 190.545 360.848 190.189 360.848C189.832 360.848 189.583 360.618 189.583 360.208Z" fill="#FF00FF"/>
<path d="M187.202 358.832C187.202 359.457 186.645 359.916 185.962 359.916C185.435 359.916 185.078 359.647 185.078 359.222C185.078 358.798 185.415 358.549 186.001 358.51L187.149 358.44C187.178 358.438 187.202 358.46 187.202 358.489V358.832L187.202 358.832ZM186.284 355.468C185.293 355.468 184.721 355.808 184.429 356.135C184.26 356.325 184.238 356.725 184.47 356.91C184.742 357.127 185.196 356.965 185.352 356.773C185.493 356.6 185.807 356.425 186.235 356.42C186.835 356.412 187.202 356.732 187.202 357.274V357.477C187.202 357.503 187.181 357.525 187.155 357.526L185.83 357.602C184.57 357.68 183.862 358.353 183.862 359.271C183.862 360.189 184.592 360.833 185.591 360.833C186.222 360.833 186.838 360.668 187.145 360.543C187.209 360.517 187.283 360.541 187.319 360.601C187.322 360.605 187.324 360.609 187.326 360.612C187.408 360.728 187.554 360.848 187.812 360.848C188.154 360.848 188.403 360.628 188.403 360.238V357.186C188.403 356.146 187.568 355.468 186.284 355.468Z" fill="#FF00FF"/>
<path d="M198.5 358.832C198.5 359.457 197.944 359.916 197.26 359.916C196.733 359.916 196.377 359.647 196.377 359.222C196.377 358.798 196.713 358.549 197.299 358.51L198.448 358.44C198.476 358.438 198.5 358.46 198.5 358.489V358.832L198.5 358.832ZM197.582 355.468C196.591 355.468 196.02 355.808 195.727 356.135C195.558 356.325 195.536 356.725 195.769 356.91C196.04 357.127 196.495 356.965 196.651 356.773C196.791 356.6 197.106 356.425 197.533 356.42C198.134 356.412 198.5 356.732 198.5 357.274V357.477C198.5 357.503 198.48 357.525 198.453 357.526L197.128 357.602C195.869 357.68 195.161 358.353 195.161 359.271C195.161 360.189 195.891 360.833 196.889 360.833C197.521 360.833 198.137 360.668 198.443 360.543C198.508 360.517 198.581 360.541 198.617 360.601C198.62 360.605 198.623 360.609 198.625 360.612C198.706 360.728 198.853 360.848 199.111 360.848C199.452 360.848 199.701 360.628 199.701 360.238V357.186C199.701 356.146 198.866 355.468 197.582 355.468Z" fill="#FF00FF"/>
<path d="M178.25 360.833C177.859 360.833 177.62 360.594 177.62 360.179V354.275C177.62 353.86 177.859 353.621 178.25 353.621C178.641 353.621 178.88 353.86 178.88 354.275V356.623C178.88 356.751 179.038 356.813 179.126 356.719L181.756 353.88C181.927 353.694 182.078 353.616 182.283 353.616C182.62 353.616 182.869 353.87 182.869 354.192C182.869 354.363 182.811 354.495 182.664 354.651L180.632 356.772C180.582 356.824 180.579 356.905 180.625 356.961L182.874 359.681C183.045 359.891 183.118 360.067 183.118 360.233C183.118 360.574 182.854 360.838 182.513 360.838C182.264 360.838 182.093 360.745 181.897 360.501L179.714 357.833C179.66 357.767 179.56 357.763 179.501 357.826L178.957 358.403C178.907 358.455 178.88 358.525 178.88 358.597V360.179C178.88 360.594 178.645 360.833 178.25 360.833L178.25 360.833Z" fill="#FF00FF"/>
<path fill-rule="evenodd" clip-rule="evenodd" d="M182.105 334.157L186.011 332.259C186.223 332.156 186.473 332.169 186.673 332.294C186.874 332.42 186.995 332.639 186.995 332.875V332.885C186.995 332.983 186.974 333.079 186.934 333.168L186.466 334.198C186.425 334.288 186.487 334.39 186.584 334.399C186.681 334.408 186.777 334.419 186.874 334.433C188.267 334.625 189.558 335.273 190.545 336.276C191.532 337.278 192.159 338.579 192.33 339.975C192.501 341.372 192.205 342.785 191.489 343.996C191.29 344.334 190.854 344.445 190.517 344.246C190.179 344.046 190.068 343.611 190.267 343.273C190.824 342.332 191.054 341.233 190.921 340.148C190.788 339.062 190.3 338.051 189.533 337.272C188.766 336.493 187.762 335.989 186.679 335.839C186.662 335.837 186.645 335.834 186.627 335.832C186.522 335.819 186.445 335.927 186.489 336.024L186.934 337.001C187.053 337.264 186.995 337.574 186.788 337.775C186.581 337.977 186.27 338.027 186.011 337.901L182.105 336.003C181.325 335.636 181.325 334.524 182.105 334.157ZM181.733 338.227C181.932 337.889 181.82 337.454 181.483 337.254C181.145 337.054 180.71 337.166 180.51 337.504C179.794 338.715 179.499 340.128 179.67 341.525C179.84 342.921 180.468 344.222 181.455 345.224C182.442 346.227 183.733 346.875 185.126 347.067C185.222 347.081 185.319 347.092 185.415 347.101C185.513 347.11 185.575 347.212 185.534 347.302L185.066 348.331C185.026 348.42 185.005 348.517 185.005 348.615V348.625C185.005 348.861 185.126 349.08 185.326 349.206C185.526 349.331 185.777 349.344 185.989 349.241L189.894 347.343C190.675 346.976 190.675 345.864 189.894 345.497L185.989 343.599C185.729 343.473 185.418 343.523 185.212 343.724C185.005 343.926 184.947 344.235 185.066 344.498L185.51 345.476C185.554 345.573 185.478 345.681 185.372 345.668C185.355 345.665 185.338 345.663 185.321 345.661C184.237 345.511 183.234 345.007 182.467 344.228C181.7 343.449 181.212 342.438 181.079 341.352C180.946 340.267 181.176 339.168 181.733 338.227Z" fill="#FF00FF"/>
<path fill-rule="evenodd" clip-rule="evenodd" d="M556.18 66.6182C556.572 66.6182 556.89 66.3004 556.89 65.9082C556.89 65.5161 556.572 65.1982 556.18 65.1982C555.788 65.1982 555.47 65.5161 555.47 65.9082C555.47 66.3004 555.788 66.6182 556.18 66.6182ZM553.34 76.2982C553.732 76.2982 554.05 75.9804 554.05 75.5882C554.05 75.1961 553.732 74.8782 553.34 74.8782C552.948 74.8782 552.63 75.1961 552.63 75.5882C552.63 75.9804 552.948 76.2982 553.34 76.2982ZM556.89 68.3283C556.89 68.7204 556.572 69.0383 556.18 69.0383C555.788 69.0383 555.47 68.7204 555.47 68.3283C555.47 67.9361 555.788 67.6183 556.18 67.6183C556.572 67.6183 556.89 67.9361 556.89 68.3283ZM556.18 71.4582C556.572 71.4582 556.89 71.1404 556.89 70.7482C556.89 70.3561 556.572 70.0382 556.18 70.0382C555.788 70.0382 555.47 70.3561 555.47 70.7482C555.47 71.1404 555.788 71.4582 556.18 71.4582ZM556.89 73.1683C556.89 73.5604 556.572 73.8783 556.18 73.8783C555.788 73.8783 555.47 73.5604 555.47 73.1683C555.47 72.7761 555.788 72.4583 556.18 72.4583C556.572 72.4583 556.89 72.7761 556.89 73.1683ZM556.18 76.2982C556.572 76.2982 556.89 75.9804 556.89 75.5882C556.89 75.1961 556.572 74.8782 556.18 74.8782C555.788 74.8782 555.47 75.1961 555.47 75.5882C555.47 75.9804 555.788 76.2982 556.18 76.2982ZM554.05 65.9082C554.05 66.3004 553.732 66.6182 553.34 66.6182C552.948 66.6182 552.63 66.3004 552.63 65.9082C552.63 65.5161 552.948 65.1982 553.34 65.1982C553.732 65.1982 554.05 65.5161 554.05 65.9082ZM545.53 65.1983C544.746 65.1983 544.11 65.834 544.11 66.6183V74.8783C544.11 75.6625 544.746 76.2983 545.53 76.2983H549.79C550.574 76.2983 551.21 75.6625 551.21 74.8783V66.6183C551.21 65.834 550.574 65.1983 549.79 65.1983H545.53ZM545.67 74.8783C545.593 74.8783 545.53 74.8156 545.53 74.7383V66.7583C545.53 66.6809 545.593 66.6183 545.67 66.6183H549.65C549.727 66.6183 549.79 66.6809 549.79 66.7583L549.79 74.7383C549.79 74.8156 549.727 74.8783 549.65 74.8783H545.67Z" fill="#FF00FF"/>
<path d="M563.212 90.208V84.2306C563.212 83.8448 563.441 83.6055 563.812 83.6055C564.184 83.6055 564.413 83.8448 564.413 84.2306V85.7063C564.413 85.8095 564.52 85.8781 564.614 85.8353C564.909 85.7007 565.489 85.4759 566.073 85.4759C567.216 85.4759 567.885 86.228 567.885 87.4147V90.2081C567.885 90.6183 567.631 90.8478 567.275 90.8478C566.918 90.8478 566.669 90.6183 566.669 90.2081V87.6638C566.669 86.941 566.308 86.5064 565.605 86.5064C564.901 86.5064 564.428 87.0143 564.428 87.7761V90.2081C564.428 90.6183 564.179 90.8478 563.822 90.8478C563.466 90.8478 563.212 90.6182 563.212 90.208Z" fill="#FF00FF"/>
<path d="M559.956 89.4705V86.6542C559.956 86.5759 559.892 86.5125 559.814 86.5125H559.629C559.326 86.5125 559.14 86.3416 559.14 86.0486C559.14 85.7556 559.326 85.5896 559.629 85.5896H559.814C559.892 85.5896 559.956 85.5261 559.956 85.4479V84.8849C559.956 84.4942 560.19 84.25 560.566 84.25C560.942 84.25 561.172 84.4941 561.172 84.8849V85.4479C561.172 85.5262 561.235 85.5896 561.313 85.5896H561.733C562.036 85.5896 562.222 85.7604 562.222 86.0486C562.222 86.3368 562.036 86.5125 561.733 86.5125H561.313C561.235 86.5125 561.172 86.576 561.172 86.6542V89.2068C561.172 89.5975 561.308 89.7684 561.66 89.7977L561.748 89.8075C562.07 89.8368 562.236 89.9735 562.236 90.2568C562.236 90.6132 561.924 90.8038 561.367 90.8038H561.318C560.415 90.8038 559.956 90.3545 559.956 89.4706H559.956L559.956 89.4705Z" fill="#FF00FF"/>
<path d="M555.753 86.482C556.51 86.482 557.013 87.1413 557.017 88.1571C557.013 89.1631 556.539 89.8322 555.753 89.8322C554.966 89.8322 554.478 89.1778 554.478 88.1571C554.478 87.1315 554.996 86.482 555.753 86.482ZM553.233 88.1572C553.233 89.8128 554.068 90.8334 555.382 90.8334C555.868 90.8334 556.638 90.5894 556.939 90.4874C557.006 90.4645 557.081 90.4942 557.112 90.5582C557.12 90.5745 557.129 90.5907 557.139 90.6055C557.259 90.776 557.434 90.848 557.633 90.848C557.98 90.848 558.224 90.6234 558.224 90.2229V84.2453C558.224 83.835 557.975 83.6055 557.618 83.6055C557.262 83.6055 557.008 83.835 557.008 84.2453V85.7254C557.008 85.8281 556.902 85.897 556.808 85.8548C556.446 85.6919 555.844 85.4857 555.362 85.4857C554.063 85.4857 553.233 86.5064 553.233 88.1571V88.1572Z" fill="#FF00FF"/>
<path d="M551.617 85.4717C551.246 85.4717 551.012 85.7207 551.012 86.1114V90.2081C551.012 90.6036 551.246 90.8478 551.617 90.8478C551.988 90.8478 552.228 90.6037 552.228 90.2081V86.1163C552.228 85.7208 551.988 85.4718 551.617 85.4718V85.4717ZM551.617 84.8467C551.998 84.8467 552.296 84.5537 552.296 84.1875C552.296 83.8213 551.998 83.5283 551.617 83.5283C551.236 83.5283 550.943 83.8164 550.943 84.1875C550.943 84.5586 551.241 84.8467 551.617 84.8467Z" fill="#FF00FF"/>
<path d="M543.468 90.8331C543.077 90.8331 542.863 90.6427 542.741 90.2032L541.178 84.5879C541.134 84.4316 541.115 84.2998 541.115 84.1875C541.115 83.8408 541.359 83.6211 541.735 83.6211C542.062 83.6211 542.267 83.8018 542.345 84.1484L543.41 88.576C543.444 88.7189 543.647 88.7215 543.685 88.5796L544.855 84.2168C544.962 83.7969 545.167 83.6211 545.538 83.6211C545.91 83.6211 546.105 83.8066 546.212 84.2022L547.383 88.5788C547.421 88.7208 547.623 88.7182 547.657 88.5753L548.722 84.1485C548.8 83.7969 549.005 83.6212 549.332 83.6212C549.708 83.6212 549.952 83.8409 549.952 84.1876C549.952 84.295 549.933 84.4269 549.889 84.588L548.322 90.2082C548.204 90.6428 547.99 90.8332 547.604 90.8332C547.198 90.8332 546.984 90.6525 546.862 90.2082L545.67 86.0433C545.63 85.9063 545.436 85.9063 545.397 86.0433L544.205 90.2082C544.088 90.6477 543.863 90.8332 543.468 90.8332L543.468 90.8331Z" fill="#FF00FF"/>
<path fill-rule="evenodd" clip-rule="evenodd" d="M492.807 63.1039L490.12 66.5145C489.578 67.1854 490.063 68.1861 490.925 68.1765L495.267 68.1815C495.556 68.1818 495.814 68.0011 495.912 67.7295C496.011 67.458 495.928 67.154 495.706 66.9695L494.88 66.2836C494.798 66.2155 494.819 66.0848 494.92 66.0509L494.97 66.0345C496.01 65.697 497.133 65.7129 498.163 66.0797C499.193 66.4465 500.073 67.1436 500.666 68.0625C501.259 68.9814 501.531 70.0706 501.44 71.1603C501.408 71.5511 501.698 71.8942 502.089 71.9267C502.48 71.9591 502.823 71.6687 502.855 71.2779C502.972 69.876 502.622 68.4749 501.859 67.2928C501.096 66.1106 499.964 65.2138 498.639 64.742C497.314 64.2701 495.87 64.2497 494.532 64.6838C494.439 64.7138 494.348 64.7459 494.257 64.78C494.165 64.8145 494.065 64.7492 494.062 64.651L494.035 63.52C494.032 63.4222 494.009 63.3261 493.966 63.2381L493.962 63.2291C493.859 63.0167 493.654 62.8722 493.419 62.8468C493.185 62.8213 492.953 62.9185 492.807 63.1039ZM502.879 74.9856L500.192 78.3962C500.046 78.5816 499.815 78.6787 499.58 78.6533C499.346 78.6278 499.141 78.4834 499.038 78.271L499.033 78.262C498.991 78.174 498.968 78.0779 498.965 77.9801L498.917 76.0027C498.915 75.9219 498.878 75.8458 498.816 75.7942L497.294 74.5306C497.072 74.3461 496.989 74.0421 497.087 73.7706C497.186 73.499 497.444 73.3182 497.732 73.3186L502.074 73.3236C502.937 73.314 503.422 74.3147 502.879 74.9856ZM491.543 70.5787C491.556 70.1869 491.25 69.8582 490.858 69.8447C490.466 69.8311 490.137 70.1378 490.124 70.5297C490.11 70.9216 490.417 71.2503 490.809 71.2638C491.201 71.2774 491.529 70.9706 491.543 70.5787ZM492.121 73.0802C491.937 72.7341 491.507 72.6028 491.161 72.787C490.815 72.9712 490.684 73.4012 490.868 73.7473C491.052 74.0935 491.482 74.2248 491.828 74.0405C492.174 73.8563 492.306 73.4264 492.121 73.0802ZM492.895 75.1835C493.103 74.8509 493.541 74.7496 493.873 74.9573C494.206 75.1649 494.307 75.6029 494.099 75.9355C493.892 76.2681 493.454 76.3694 493.121 76.1618C492.789 75.9541 492.687 75.5161 492.895 75.1835ZM496.329 75.707C495.937 75.6934 495.608 76.0001 495.595 76.392C495.581 76.7839 495.888 77.1126 496.28 77.1261C496.672 77.1397 497 76.8329 497.014 76.441C497.027 76.0492 496.721 75.7205 496.329 75.707Z" fill="#FF00FF"/>
<path d="M501.085 90.8672C500.079 90.8672 499.293 90.3887 498.985 89.6074C498.917 89.417 498.878 89.2607 498.878 89.0556C498.878 88.6845 499.107 88.4501 499.464 88.4501C499.781 88.4501 499.967 88.6064 500.069 88.9628C500.216 89.4804 500.567 89.7636 501.07 89.7636C501.744 89.7636 502.11 89.3534 502.11 88.5917V84.2754C502.11 83.8604 502.345 83.6211 502.74 83.6211C503.136 83.6211 503.365 83.8604 503.365 84.2754V88.6016C503.365 90.0372 502.516 90.8672 501.085 90.8672Z" fill="#FF00FF"/>
<path d="M495.751 91.6387C495.424 91.6387 495.224 91.4385 495.224 91.1602C495.224 91.0771 495.239 90.9941 495.253 90.9404L497.48 83.2744C497.573 82.9619 497.739 82.8154 498.032 82.8154C498.344 82.8154 498.554 83.0156 498.554 83.3135C498.554 83.3818 498.549 83.4404 498.53 83.5137L496.293 91.209C496.206 91.4971 496.035 91.6387 495.751 91.6387Z" fill="#FF00FF"/>
<path d="M490.265 90.7501C489.874 90.7501 489.635 90.506 489.635 90.0958V84.3584C489.635 83.9482 489.874 83.7041 490.265 83.7041H493.698C494.044 83.7041 494.274 83.9092 494.274 84.2363C494.274 84.5634 494.044 84.7685 493.698 84.7685H491.037C490.958 84.7685 490.895 84.832 490.895 84.9102V86.5311C490.895 86.6094 490.958 86.6728 491.037 86.6728H493.551C493.873 86.6728 494.093 86.8632 494.093 87.1709C494.093 87.4786 493.878 87.6738 493.551 87.6738H491.037C490.958 87.6738 490.895 87.7373 490.895 87.8155V89.5438C490.895 89.6221 490.958 89.6855 491.037 89.6855H493.698C494.044 89.6855 494.274 89.8906 494.274 90.2177C494.274 90.5448 494.044 90.7499 493.698 90.7499H490.265V90.7501Z" fill="#FF00FF"/>
<rect x="743.5" y="703" width="67.5" height="54" stroke="#00FFFF"/>
<rect x="676" y="703" width="67.5" height="54" stroke="#00FFFF"/>
<rect x="608.5" y="703" width="67.5" height="54" stroke="#00FFFF"/>
<rect x="541" y="703" width="67.5" height="54" stroke="#00FFFF"/>
<rect x="136" y="703" width="67.5" height="54" stroke="#00FFFF"/>
<rect x="68.5" y="703" width="67.5" height="54" stroke="#00FFFF"/>
<rect x="1" y="703" width="67.5" height="54" stroke="#00FFFF"/>
<rect x="662.5" y="649" width="148.5" height="54" stroke="#00FFFF"/>
<rect x="1" y="649" width="121.5" height="54" stroke="#00FFFF"/>
<rect x="689.5" y="595" width="121.5" height="54" stroke="#00FFFF"/>
<rect x="1" y="595" width="94.5" height="54" stroke="#00FFFF"/>
<rect x="1" y="541" width="81" height="54" stroke="#00FFFF"/>
<rect x="703" y="487" width="108" height="54" stroke="#00FFFF"/>
<rect x="608.5" y="649" width="54" height="54" stroke="#00FFFF"/>
<rect x="554.5" y="649" width="54" height="54" stroke="#00FFFF"/>
<rect x="500.5" y="649" width="54" height="54" stroke="#00FFFF"/>
<rect x="446.5" y="649" width="54" height="54" stroke="#00FFFF"/>
<rect x="392.5" y="649" width="54" height="54" stroke="#00FFFF"/>
<rect x="338.5" y="649" width="54" height="54" stroke="#00FFFF"/>
<rect x="284.5" y="649" width="54" height="54" stroke="#00FFFF"/>
<rect x="230.5" y="649" width="54" height="54" stroke="#00FFFF"/>
<rect x="176.5" y="649" width="54" height="54" stroke="#00FFFF"/>
<rect x="122.5" y="649" width="54" height="54" stroke="#00FFFF"/>
<rect x="635.5" y="595" width="54" height="54" stroke="#00FFFF"/>
<rect x="581.5" y="595" width="54" height="54" stroke="#00FFFF"/>
<rect x="527.5" y="595" width="54" height="54" stroke="#00FFFF"/>
<rect x="473.5" y="595" width="54" height="54" stroke="#00FFFF"/>
<rect x="419.5" y="595" width="54" height="54" stroke="#00FFFF"/>
<rect x="365.5" y="595" width="54" height="54" stroke="#00FFFF"/>
<rect x="311.5" y="595" width="54" height="54" stroke="#00FFFF"/>
<rect x="257.5" y="595" width="54" height="54" stroke="#00FFFF"/>
<rect x="203.5" y="595" width="54" height="54" stroke="#00FFFF"/>
<rect x="149.5" y="595" width="54" height="54" stroke="#00FFFF"/>
<rect x="95.5" y="595" width="54" height="54" stroke="#00FFFF"/>
<rect x="730" y="541" width="81" height="54" stroke="#00FFFF"/>
<rect x="676" y="541" width="54" height="54" stroke="#00FFFF"/>
<rect x="622" y="541" width="54" height="54" stroke="#00FFFF"/>
<rect x="568" y="541" width="54" height="54" stroke="#00FFFF"/>
<rect x="514" y="541" width="54" height="54" stroke="#00FFFF"/>
<rect x="460" y="541" width="54" height="54" stroke="#00FFFF"/>
<rect x="406" y="541" width="54" height="54" stroke="#00FFFF"/>
<rect x="352" y="541" width="54" height="54" stroke="#00FFFF"/>
<rect x="298" y="541" width="54" height="54" stroke="#00FFFF"/>
<rect x="244" y="541" width="54" height="54" stroke="#00FFFF"/>
<rect x="190" y="541" width="54" height="54" stroke="#00FFFF"/>
<rect x="136" y="541" width="54" height="54" stroke="#00FFFF"/>
<rect x="82" y="541" width="54" height="54" stroke="#00FFFF"/>
<rect x="55" y="487" width="54" height="54" stroke="#00FFFF"/>
<rect x="109" y="487" width="54" height="54" stroke="#00FFFF"/>
<rect x="163" y="487" width="54" height="54" stroke="#00FFFF"/>
<rect x="217" y="487" width="54" height="54" stroke="#00FFFF"/>
<rect x="271" y="487" width="54" height="54" stroke="#00FFFF"/>
<rect x="325" y="487" width="54" height="54" stroke="#00FFFF"/>
<rect x="379" y="487" width="54" height="54" stroke="#00FFFF"/>
<rect x="433" y="487" width="54" height="54" stroke="#00FFFF"/>
<rect x="487" y="487" width="54" height="54" stroke="#00FFFF"/>
<rect x="541" y="487" width="54" height="54" stroke="#00FFFF"/>
<rect x="595" y="487" width="54" height="54" stroke="#00FFFF"/>
<rect x="649" y="487" width="54" height="54" stroke="#00FFFF"/>
<rect x="1" y="487" width="54" height="54" stroke="#00FFFF"/>
<rect x="217" y="433" width="54" height="54" stroke="#00FFFF"/>
<rect x="163" y="433" width="54" height="54" stroke="#00FFFF"/>
<rect x="109" y="433" width="54" height="54" stroke="#00FFFF"/>
<rect x="55" y="433" width="54" height="54" stroke="#00FFFF"/>
<rect x="433" y="433" width="54" height="54" stroke="#00FFFF"/>
<rect x="379" y="433" width="54" height="54" stroke="#00FFFF"/>
<rect x="325" y="433" width="54" height="54" stroke="#00FFFF"/>
<rect x="271" y="433" width="54" height="54" stroke="#00FFFF"/>
<rect x="649" y="433" width="54" height="54" stroke="#00FFFF"/>
<rect x="595" y="433" width="54" height="54" stroke="#00FFFF"/>
<rect x="541" y="433" width="54" height="54" stroke="#00FFFF"/>
<rect x="487" y="433" width="54" height="54" stroke="#00FFFF"/>
<rect x="541" y="379" width="54" height="54" stroke="#00FFFF"/>
<rect x="487" y="379" width="54" height="54" stroke="#00FFFF"/>
<rect x="433" y="379" width="54" height="54" stroke="#00FFFF"/>
<rect x="487" y="325" width="54" height="54" stroke="#00FFFF"/>
<rect x="703" y="379" width="54" height="54" stroke="#00FFFF"/>
<rect x="595" y="379" width="108" height="54" stroke="#00FFFF"/>
<rect x="757" y="325" width="54" height="108" stroke="#00FFFF"/>
<rect x="703" y="325" width="54" height="54" stroke="#00FFFF"/>
<rect x="649" y="325" width="54" height="54" stroke="#00FFFF"/>
<rect x="595" y="325" width="54" height="54" stroke="#00FFFF"/>
<rect x="703" y="271" width="54" height="54" stroke="#00FFFF"/>
<rect x="595" y="271" width="54" height="54" stroke="#00FFFF"/>
<rect x="757" y="217" width="54" height="108" stroke="#00FFFF"/>
<rect x="703" y="217" width="54" height="54" stroke="#00FFFF"/>
<rect x="649" y="217" width="54" height="54" stroke="#00FFFF"/>
<rect x="595" y="217" width="54" height="54" stroke="#00FFFF"/>
<rect x="757" y="163" width="54" height="54" stroke="#00FFFF"/>
<rect x="703" y="163" width="54" height="54" stroke="#00FFFF"/>
<rect x="649" y="163" width="54" height="54" stroke="#00FFFF"/>
<rect x="595" y="163" width="54" height="54" stroke="#00FFFF"/>
<rect x="649" y="271" width="54" height="54" stroke="#00FFFF"/>
<rect x="541" y="163" width="54" height="54" stroke="#00FFFF"/>
<rect x="487" y="163" width="54" height="54" stroke="#00FFFF"/>
<rect x="433" y="163" width="54" height="54" stroke="#00FFFF"/>
<rect x="541" y="217" width="54" height="54" stroke="#00FFFF"/>
<rect x="487" y="217" width="54" height="54" stroke="#00FFFF"/>
<rect x="433" y="217" width="54" height="54" stroke="#00FFFF"/>
<rect x="541" y="271" width="54" height="54" stroke="#00FFFF"/>
<rect x="487" y="271" width="54" height="54" stroke="#00FFFF"/>
<rect x="433" y="271" width="54" height="54" stroke="#00FFFF"/>
<rect x="595" y="757" width="81" height="54" stroke="#00FFFF"/>
<rect x="676" y="757" width="54" height="54" stroke="#00FFFF"/>
<rect x="730" y="757" width="81" height="54" stroke="#00FFFF"/>
<rect x="136" y="757" width="81" height="54" stroke="#00FFFF"/>
<rect x="82" y="757" width="54" height="54" stroke="#00FFFF"/>
<rect x="1" y="757" width="81" height="54" stroke="#00FFFF"/>
<rect x="1" y="433" width="54" height="54" stroke="#00FFFF"/>
<rect x="757" y="433" width="54" height="54" stroke="#00FFFF"/>
<rect x="703" y="433" width="54" height="54" stroke="#00FFFF"/>
<rect x="541" y="325" width="54" height="54" stroke="#00FFFF"/>
<rect x="433" y="325" width="54" height="54" stroke="#00FFFF"/>
<rect x="379" y="325" width="54" height="54" stroke="#00FFFF"/>
<rect x="379" y="379" width="54" height="54" stroke="#00FFFF"/>
<rect x="298" y="379" width="81" height="54" stroke="#00FFFF"/>
<rect x="298" y="325" width="81" height="54" stroke="#00FFFF"/>
<rect x="217" y="325" width="81" height="108" stroke="#00FFFF"/>
<rect x="176.5" y="379" width="54" height="54" stroke="#00FFFF"/>
<rect x="122.5" y="379" width="54" height="54" stroke="#00FFFF"/>
<rect x="68.5" y="379" width="54" height="54" stroke="#00FFFF"/>
<rect x="1" y="379" width="67.5" height="54" stroke="#00FFFF"/>
<rect x="109" y="325" width="54" height="54" stroke="#00FFFF"/>
<rect x="55" y="325" width="54" height="54" stroke="#00FFFF"/>
<rect x="1" y="325" width="54" height="54" stroke="#00FFFF"/>
<rect x="163" y="325" width="54" height="54" stroke="#00FFFF"/>
<rect x="271" y="271" width="94.5" height="54" stroke="#00FFFF"/>
<rect x="365.5" y="271" width="67.5" height="54" stroke="#00FFFF"/>
<rect x="217" y="271" width="54" height="54" stroke="#00FFFF"/>
<rect x="163" y="271" width="54" height="54" stroke="#00FFFF"/>
<rect x="95.5" y="271" width="67.5" height="54" stroke="#00FFFF"/>
<rect x="1" y="271" width="94.5" height="54" stroke="#00FFFF"/>
<rect x="379" y="163" width="54" height="54" stroke="#00FFFF"/>
<rect x="271" y="163" width="54" height="54" stroke="#00FFFF"/>
<rect x="163" y="163" width="108" height="54" stroke="#00FFFF"/>
<rect x="95.5" y="163" width="67.5" height="54" stroke="#00FFFF"/>
<rect x="217" y="217" width="54" height="54" stroke="#00FFFF"/>
<rect x="163" y="217" width="54" height="54" stroke="#00FFFF"/>
<rect x="95.5" y="217" width="67.5" height="54" stroke="#00FFFF"/>
<rect x="1" y="217" width="94.5" height="54" stroke="#00FFFF"/>
<rect x="1" y="163" width="94.5" height="54" stroke="#00FFFF"/>
<rect x="730" y="55" width="81" height="108" stroke="#00FFFF"/>
<rect x="635.5" y="109" width="54" height="54" stroke="#00FFFF"/>
<rect x="554.5" y="109" width="81" height="54" stroke="#00FFFF"/>
<rect x="446.5" y="109" width="108" height="54" stroke="#00FFFF"/>
<rect x="311.5" y="109" width="81" height="54" stroke="#00FFFF"/>
<rect x="257.5" y="109" width="54" height="54" stroke="#00FFFF"/>
<rect x="163" y="109" width="94.5" height="54" stroke="#00FFFF"/>
<rect x="82" y="109" width="81" height="54" stroke="#00FFFF"/>
<rect x="1" y="109" width="81" height="54" stroke="#00FFFF"/>
<rect x="635.5" y="55" width="94.5" height="54" stroke="#00FFFF"/>
<rect x="527.5" y="55" width="54" height="54" stroke="#00FFFF"/>
<rect x="473.5" y="55" width="54" height="54" stroke="#00FFFF"/>
<rect x="392.5" y="55" width="81" height="54" stroke="#00FFFF"/>
<rect x="1" y="1" width="54" height="54" stroke="#00FFFF"/>
<rect x="55" y="1" width="54" height="54" stroke="#00FFFF"/>
<rect x="109" y="1" width="54" height="54" stroke="#00FFFF"/>
<rect x="163" y="1" width="54" height="54" stroke="#00FFFF"/>
<rect x="217" y="1" width="54" height="54" stroke="#00FFFF"/>
<rect x="271" y="1" width="54" height="54" stroke="#00FFFF"/>
<rect x="325" y="1" width="54" height="54" stroke="#00FFFF"/>
<rect x="379" y="1" width="54" height="54" stroke="#00FFFF"/>
<rect x="433.5" y="1.5" width="53" height="53" stroke="#00FFFF"/>
<rect x="487.5" y="1.5" width="53" height="53" stroke="#00FFFF"/>
</svg>
