<svg width="812" height="812" viewBox="0 0 812 812" fill="none" xmlns="http://www.w3.org/2000/svg">
<path d="M128.589 501.361L128.471 499.519C128.44 499.097 128.75 498.75 129.197 498.75C129.643 498.75 129.947 499.103 129.916 499.519L129.798 501.361C129.773 501.714 129.525 502.006 129.191 502.006C128.856 502.006 128.608 501.714 128.589 501.361ZM126.177 501.361L126.059 499.519C126.028 499.097 126.344 498.75 126.785 498.75C127.231 498.75 127.535 499.103 127.504 499.519L127.386 501.361C127.361 501.714 127.113 502.006 126.778 502.006C126.443 502.006 126.195 501.714 126.177 501.361Z" fill="#FF00FF"/>
<path d="M125.206 522.004C125.206 521.684 125.376 521.424 125.896 520.884L128.206 518.394C128.886 517.664 129.156 517.194 129.156 516.674C129.156 515.964 128.646 515.494 127.876 515.494C127.246 515.494 126.776 515.844 126.536 516.494C126.336 516.884 126.116 517.054 125.786 517.044C125.416 517.034 125.116 516.714 125.116 516.324C125.116 515.214 126.306 514.124 127.976 514.124C129.646 514.124 130.796 515.134 130.796 516.534C130.796 517.384 130.416 518.084 129.356 519.204L127.536 521.154C127.456 521.244 127.516 521.394 127.636 521.394H130.296C130.776 521.394 131.076 521.654 131.076 522.084C131.076 522.514 130.786 522.764 130.296 522.764H126.106C125.556 522.764 125.206 522.464 125.206 522.014V522.004Z" fill="#FF00FF"/>
<path d="M340.335 502.542C340.335 501.637 340.8 500.912 341.811 500.335C341.858 500.303 341.982 500.235 342.095 500.175C342.178 500.13 342.197 500.018 342.133 499.948C341.474 499.236 341.222 498.735 341.222 498.158C341.222 497.011 342.22 496.174 343.566 496.174C344.918 496.174 345.879 496.98 345.879 498.14C345.879 498.956 345.393 499.615 344.314 500.229C344.234 500.274 344.216 500.382 344.278 500.449L345.71 502.002C345.775 502.073 345.889 502.058 345.925 501.97C346.079 501.592 346.152 501.071 346.152 500.384V500.248C346.152 499.845 346.431 499.553 346.803 499.553C347.181 499.553 347.46 499.845 347.46 500.248V500.453C347.46 501.49 347.236 502.371 346.831 502.998C346.794 503.055 346.8 503.129 346.846 503.178L347.436 503.789C347.553 503.919 347.609 504.068 347.609 504.235C347.609 504.595 347.318 504.893 346.952 504.893C346.766 504.893 346.574 504.812 346.437 504.669L345.929 504.129C345.877 504.074 345.791 504.071 345.732 504.118C345.096 504.63 344.189 504.936 343.237 504.936C341.495 504.936 340.335 503.969 340.335 502.542ZM343.313 499.506C343.356 499.549 343.423 499.559 343.477 499.529C344.222 499.117 344.515 498.764 344.515 498.239C344.515 497.668 344.124 497.271 343.554 497.271C342.989 497.271 342.586 497.668 342.586 498.239C342.586 498.643 342.774 498.967 343.313 499.506ZM342.71 501.091C342.096 501.451 341.83 501.885 341.83 502.425C341.83 503.218 342.468 503.758 343.411 503.758C343.976 503.758 344.542 503.547 344.918 503.204C344.973 503.155 344.973 503.071 344.923 503.017L343.069 500.997C343.029 500.953 342.966 500.941 342.913 500.969C342.837 501.01 342.739 501.067 342.71 501.091Z" fill="#FF00FF"/>
<path d="M341 519.27C341 516.37 342.23 514.75 344.44 514.75C345.18 514.75 345.87 514.94 346.38 515.28C346.81 515.57 347.07 515.96 347.07 516.28C347.07 516.65 346.8 516.91 346.42 516.91C346.19 516.91 346.02 516.84 345.73 516.61C345.3 516.24 344.92 516.08 344.44 516.08C343.427 516.08 342.746 516.832 342.609 518.495C342.599 518.624 342.752 518.699 342.847 518.611C343.176 518.306 343.809 517.86 344.7 517.86C346.26 517.86 347.35 518.98 347.35 520.6C347.35 522.369 346.12 523.549 344.28 523.549C343.2 523.549 342.33 523.129 341.77 522.329C341.26 521.62 341 520.58 341 519.27ZM342.77 520.65C342.77 521.569 343.4 522.229 344.28 522.229C345.16 522.229 345.74 521.599 345.74 520.66C345.74 519.72 345.14 519.11 344.26 519.11C343.38 519.11 342.77 519.75 342.77 520.65Z" fill="#FF00FF"/>
<path d="M397.374 501.361L397.262 499.519C397.231 499.097 397.535 498.75 397.994 498.75C398.446 498.75 398.744 499.103 398.719 499.519L398.608 501.361C398.583 501.714 398.322 502.012 397.987 502.012C397.653 502.012 397.392 501.714 397.374 501.361Z" fill="#FF00FF"/>
<path d="M396.166 522.095C396.166 521.925 396.226 521.765 396.316 521.585L399.146 515.855C399.196 515.765 399.126 515.655 399.016 515.655H395.746C395.226 515.655 394.936 515.385 394.936 514.975C394.936 514.565 395.226 514.285 395.746 514.285H400.086C400.586 514.285 400.946 514.615 400.946 515.125C400.946 515.445 400.836 515.805 400.606 516.265L397.686 522.315C397.506 522.665 397.286 522.845 396.936 522.845C396.496 522.845 396.156 522.545 396.156 522.095H396.166Z" fill="#FF00FF"/>
<path d="M452.341 506.319C452.019 505.903 450.847 504.242 450.847 501.191C450.847 498.245 452.019 496.583 452.341 496.168C452.595 495.845 452.825 495.758 453.023 495.758C453.395 495.758 453.65 496.006 453.65 496.341C453.65 496.54 453.581 496.701 453.501 496.881C453.104 497.736 452.509 499.15 452.509 501.191C452.509 503.336 453.104 504.75 453.501 505.606C453.581 505.786 453.65 505.947 453.65 506.145C453.65 506.48 453.395 506.728 453.023 506.728C452.825 506.728 452.595 506.641 452.341 506.319Z" fill="#FF00FF"/>
<path d="M451.984 522.924C450.034 522.924 448.724 521.934 448.724 520.444C448.724 519.524 449.264 518.724 450.114 518.404C450.224 518.364 450.234 518.204 450.124 518.144C449.444 517.794 449.054 517.144 449.054 516.364C449.064 515.044 450.274 514.124 452.004 514.124C453.734 514.124 454.944 515.044 454.944 516.364C454.944 517.134 454.544 517.794 453.864 518.144C453.754 518.204 453.764 518.354 453.874 518.404C454.724 518.734 455.274 519.534 455.274 520.444C455.274 521.924 453.944 522.934 451.984 522.934V522.924ZM452.004 517.764C452.784 517.764 453.344 517.254 453.344 516.544C453.344 515.834 452.784 515.344 452.004 515.344C451.224 515.344 450.664 515.844 450.664 516.544C450.664 517.244 451.224 517.764 452.004 517.764ZM452.004 521.724C452.944 521.724 453.614 521.134 453.614 520.334C453.614 519.534 452.934 518.934 452.004 518.934C451.074 518.934 450.394 519.524 450.394 520.334C450.394 521.144 451.064 521.724 452.004 521.724Z" fill="#FF00FF"/>
<path d="M505.659 506.319C505.405 506.641 505.182 506.728 504.977 506.728C504.611 506.728 504.351 506.48 504.351 506.145C504.351 505.947 504.419 505.786 504.499 505.606C504.902 504.75 505.492 503.336 505.492 501.191C505.492 499.15 504.902 497.736 504.499 496.881C504.419 496.701 504.351 496.54 504.351 496.341C504.351 496.006 504.611 495.758 504.977 495.758C505.182 495.758 505.405 495.845 505.659 496.168C505.988 496.583 507.16 498.245 507.16 501.191C507.16 504.242 505.988 505.903 505.659 506.319Z" fill="#FF00FF"/>
<path d="M509.218 518.392C509.218 521.291 507.988 522.911 505.778 522.911C505.038 522.911 504.348 522.721 503.838 522.381C503.408 522.091 503.148 521.701 503.148 521.381C503.148 521.011 503.418 520.751 503.798 520.751C504.028 520.751 504.198 520.821 504.488 521.051C504.918 521.421 505.298 521.581 505.778 521.581C506.791 521.581 507.472 520.829 507.609 519.166C507.619 519.037 507.466 518.963 507.371 519.05C507.042 519.355 506.409 519.801 505.518 519.801C503.958 519.801 502.868 518.682 502.868 517.062C502.868 515.292 504.098 514.112 505.938 514.112C507.018 514.112 507.888 514.532 508.448 515.332C508.958 516.042 509.218 517.082 509.218 518.392ZM507.448 517.012C507.448 516.092 506.818 515.432 505.938 515.432C505.058 515.432 504.478 516.062 504.478 517.002C504.478 517.942 505.078 518.552 505.958 518.552C506.838 518.552 507.448 517.912 507.448 517.012Z" fill="#FF00FF"/>
<path d="M556.769 518.725V518.328C556.769 515.786 557.985 514.124 560 514.124C562.022 514.124 563.212 515.767 563.212 518.328V518.725C563.212 521.262 561.984 522.93 559.975 522.93C557.966 522.93 556.769 521.28 556.769 518.725ZM558.444 518.335V518.713C558.444 520.499 559.027 521.565 559.988 521.565C560.949 521.565 561.532 520.499 561.532 518.713V518.335C561.532 516.555 560.949 515.488 559.988 515.488C559.027 515.488 558.444 516.549 558.444 518.335Z" fill="#FF00FF"/>
<path d="M611.011 500.025C611.011 499.634 611.278 499.38 611.755 499.38H616.245C616.722 499.38 616.995 499.634 616.995 500.025C616.995 500.415 616.722 500.676 616.245 500.676H611.755C611.278 500.676 611.011 500.415 611.011 500.025ZM611.011 502.642C611.011 502.251 611.278 501.997 611.755 501.997H616.245C616.722 501.997 616.995 502.245 616.995 502.642C616.995 503.032 616.722 503.293 616.245 503.293H611.755C611.278 503.293 611.011 503.032 611.011 502.642Z" fill="#FF00FF"/>
<path d="M611.836 519.277C611.836 518.837 612.14 518.552 612.673 518.552H615.315C615.848 518.552 616.146 518.837 616.146 519.271C616.146 519.711 615.848 520.003 615.315 520.003H612.673C612.133 520.003 611.836 519.711 611.836 519.277Z" fill="#FF00FF"/>
<path d="M671.888 497.935C671.888 498.835 671.063 499.915 669.683 499.915C668.498 499.915 667.193 498.895 666.428 498.895C665.603 498.895 665.393 499.795 664.763 499.795C664.283 499.795 664.118 499.42 664.118 499.075C664.118 498.175 664.943 497.095 666.233 497.095C667.508 497.095 668.813 498.115 669.578 498.115C670.403 498.115 670.613 497.215 671.243 497.215C671.723 497.215 671.888 497.59 671.888 497.935Z" fill="#FF00FF"/>
<path fill-rule="evenodd" clip-rule="evenodd" d="M667.509 516.121C667.78 515.85 668.22 515.85 668.491 516.121L671.583 519.213C671.854 519.484 671.854 519.924 671.583 520.195C671.312 520.466 670.872 520.466 670.601 520.195L668.099 517.693C668.044 517.638 667.956 517.638 667.901 517.693L665.399 520.195C665.128 520.466 664.688 520.466 664.417 520.195C664.146 519.924 664.146 519.484 664.417 519.213L667.509 516.121Z" fill="#FF00FF"/>
<path d="M601.182 612.062C601.182 612.508 600.897 612.793 600.481 612.793C600.066 612.793 599.781 612.508 599.781 612.062V610.137C599.781 610.059 599.718 609.997 599.641 609.997H597.883C597.437 609.997 597.151 609.724 597.151 609.308C597.151 608.899 597.437 608.62 597.883 608.62H599.641C599.718 608.62 599.781 608.557 599.781 608.48V606.642C599.781 606.202 600.06 605.91 600.481 605.91C600.897 605.91 601.182 606.202 601.182 606.642V608.48C601.182 608.557 601.245 608.62 601.322 608.62H603.104C603.557 608.62 603.842 608.893 603.842 609.308C603.842 609.724 603.557 609.997 603.104 609.997H601.322C601.245 609.997 601.182 610.059 601.182 610.137V612.062Z" fill="#FF00FF"/>
<path d="M599.539 625.715C599.539 625.188 599.973 624.753 600.5 624.753C601.033 624.753 601.461 625.188 601.461 625.715C601.461 626.242 601.033 626.676 600.5 626.676C599.973 626.676 599.539 626.242 599.539 625.715ZM599.34 631.941L599.75 629.975C599.818 629.566 600.146 629.324 600.512 629.324C601.015 629.324 601.38 629.826 601.238 630.279L600.581 632.213C600.494 632.523 600.246 632.691 599.954 632.691C599.533 632.691 599.266 632.319 599.34 631.941Z" fill="#FF00FF"/>
<path d="M654.498 610.126C654.102 610.126 653.796 609.82 653.814 609.37L653.827 608.669C653.829 608.559 653.71 608.489 653.615 608.546L653.022 608.902C652.878 608.992 652.716 609.028 652.572 609.028C652.212 609.028 651.924 608.74 651.924 608.362C651.924 608.074 652.068 607.858 652.338 607.714L652.94 607.387C653.037 607.334 653.037 607.194 652.94 607.141L652.338 606.814C652.068 606.67 651.924 606.454 651.924 606.166C651.924 605.788 652.212 605.5 652.572 605.5C652.716 605.5 652.878 605.536 653.022 605.626L653.613 605.994C653.708 606.052 653.829 605.983 653.827 605.872L653.814 605.158C653.796 604.708 654.102 604.402 654.498 604.402C654.894 604.402 655.2 604.708 655.182 605.158L655.156 605.87C655.152 605.981 655.273 606.053 655.368 605.995L655.974 605.626C656.118 605.536 656.28 605.5 656.424 605.5C656.784 605.5 657.072 605.788 657.072 606.166C657.072 606.454 656.928 606.67 656.658 606.814L656.044 607.14C655.945 607.193 655.945 607.335 656.044 607.387L656.658 607.714C656.928 607.858 657.072 608.074 657.072 608.362C657.072 608.74 656.784 609.028 656.424 609.028C656.28 609.028 656.118 608.992 655.974 608.902L655.366 608.545C655.271 608.489 655.152 608.561 655.156 608.671L655.182 609.37C655.2 609.82 654.894 610.126 654.498 610.126Z" fill="#FF00FF"/>
<path d="M653.539 625.715C653.539 625.188 653.973 624.753 654.5 624.753C655.027 624.753 655.461 625.188 655.461 625.715C655.461 626.242 655.027 626.676 654.5 626.676C653.973 626.676 653.539 626.242 653.539 625.715ZM653.539 629.919C653.539 629.392 653.973 628.958 654.5 628.958C655.027 628.958 655.461 629.392 655.461 629.919C655.461 630.452 655.027 630.886 654.5 630.886C653.973 630.886 653.539 630.452 653.539 629.919Z" fill="#FF00FF"/>
<path d="M640.374 555.361L640.262 553.519C640.231 553.097 640.535 552.75 640.994 552.75C641.446 552.75 641.744 553.103 641.719 553.519L641.608 555.361C641.583 555.714 641.322 556.012 640.987 556.012C640.653 556.012 640.392 555.714 640.374 555.361Z" fill="#FF00FF"/>
<path d="M640.925 574.569C641.645 574.569 642.115 573.969 642.115 572.999C642.115 572.029 641.655 571.459 640.935 571.459C640.215 571.459 639.785 572.039 639.785 573.009C639.785 573.979 640.205 574.569 640.925 574.569ZM635.945 572.999C635.945 569.849 638.075 567.789 641.155 567.789C644.065 567.789 646.135 569.619 646.135 572.429C646.135 574.299 645.235 575.599 643.765 575.599C642.932 575.599 642.565 575.23 642.413 574.984C642.362 574.901 642.245 574.893 642.183 574.969C641.984 575.214 641.533 575.599 640.665 575.599C639.385 575.599 638.515 574.539 638.515 572.979C638.515 571.419 639.375 570.419 640.605 570.419C641.332 570.419 641.758 570.677 641.981 570.879C642.059 570.95 642.185 570.913 642.213 570.812C642.221 570.78 642.233 570.748 642.247 570.718C642.328 570.553 642.486 570.419 642.765 570.419C643.125 570.419 643.345 570.639 643.345 571.029V573.959C643.345 574.389 643.575 574.639 643.995 574.639C644.645 574.639 645.085 573.769 645.085 572.529C645.085 570.079 643.365 568.709 641.145 568.709C638.645 568.709 636.985 570.469 636.985 573.029C636.985 575.589 638.755 577.209 641.415 577.209C641.975 577.209 642.365 577.139 642.855 577.019C642.955 576.999 643.035 576.999 643.105 576.999C643.385 576.999 643.545 577.149 643.545 577.379C643.545 577.609 643.415 577.779 643.065 577.899C642.635 578.039 641.995 578.139 641.215 578.139C638.135 578.139 635.945 576.199 635.945 572.989V572.999Z" fill="#FF00FF"/>
<path d="M693.97 558.489V557.019C693.97 556.079 693.66 555.969 693.33 555.869C693.04 555.779 692.78 555.599 692.78 555.129C692.78 554.619 693.08 554.449 693.35 554.369C693.65 554.279 693.97 554.159 693.97 553.229V551.999C693.97 550.409 694.86 549.839 696.14 549.839C696.66 549.839 697.1 549.929 697.1 550.469C697.1 550.829 696.91 550.959 696.51 551.039C696.03 551.139 695.52 551.179 695.52 552.249V553.679C695.52 554.359 695.28 554.799 694.83 555.009C694.72 555.059 694.72 555.209 694.83 555.269C695.29 555.499 695.53 555.979 695.53 556.659V558.269C695.53 559.349 696.04 559.389 696.52 559.479C696.92 559.559 697.11 559.689 697.11 560.039C697.11 560.369 696.85 560.639 696.52 560.659C695.04 560.779 693.98 560.229 693.98 558.489H693.97Z" fill="#FF00FF"/>
<path d="M693.685 577.705V568.819C693.685 568.186 694.057 567.839 694.696 567.839H696.439C696.867 567.839 697.102 568.081 697.102 568.453C697.102 568.819 696.867 569.06 696.439 569.06H695.388C695.311 569.06 695.248 569.123 695.248 569.2V577.323C695.248 577.4 695.311 577.463 695.388 577.463H696.439C696.867 577.463 697.102 577.705 697.102 578.077C697.102 578.443 696.867 578.685 696.439 578.685H694.696C694.057 578.685 693.685 578.337 693.685 577.705Z" fill="#FF00FF"/>
<path d="M73.262 451.928V442.595C73.262 442.044 73.5844 441.777 73.9999 441.777C74.4154 441.777 74.7378 442.044 74.7378 442.595V451.928C74.7378 452.48 74.4154 452.747 73.9999 452.747C73.5844 452.747 73.262 452.48 73.262 451.928Z" fill="#FF00FF"/>
<path d="M74.8251 468.105C74.7816 468.614 74.391 468.849 73.9942 468.849C73.5973 468.849 73.2067 468.614 73.1633 468.105V467.447C73.1633 467.369 73.0998 467.305 73.0215 467.305H71.8735C71.5325 467.305 71.3155 467.126 71.3155 466.822C71.3155 466.524 71.5325 466.35 71.8735 466.35H73.0339C73.1122 466.35 73.1757 466.287 73.1757 466.209V465.804C73.1757 465.726 73.1122 465.662 73.0339 465.662H71.8735C71.5325 465.662 71.3155 465.482 71.3155 465.185C71.3155 464.881 71.5325 464.707 71.8735 464.707H72.5226C72.6327 464.707 72.7007 464.587 72.6442 464.493L70.9868 461.725C70.7574 461.347 70.7202 461.179 70.7202 461.012C70.7202 460.553 71.0551 460.249 71.5325 460.249C71.8797 460.249 72.1092 460.441 72.3386 460.888L73.8715 463.666C73.9252 463.763 74.065 463.763 74.1193 463.666L75.6745 460.888C75.8606 460.54 76.0838 460.249 76.4868 460.249C76.9519 460.249 77.2805 460.571 77.2805 460.981C77.2805 461.223 77.1751 461.421 76.9829 461.75L75.3438 464.493C75.2874 464.587 75.3554 464.707 75.4655 464.707H76.152C76.493 464.707 76.7101 464.881 76.7101 465.185C76.7101 465.482 76.493 465.662 76.152 465.662H74.9544C74.8761 465.662 74.8126 465.726 74.8126 465.804V466.209C74.8126 466.287 74.8761 466.35 74.9544 466.35H76.152C76.493 466.35 76.7101 466.524 76.7101 466.822C76.7101 467.126 76.493 467.305 76.152 467.305H74.9668C74.8885 467.305 74.8251 467.369 74.8251 467.447V468.105Z" fill="#FF00FF"/>
<path d="M398.657 416.226L395.978 406.732C395.96 406.676 395.941 406.577 395.941 406.484C395.929 406.099 396.245 405.777 396.648 405.777C396.983 405.777 397.256 405.975 397.349 406.298L400.022 415.798C400.04 415.848 400.059 415.953 400.065 416.04C400.071 416.424 399.761 416.747 399.352 416.747C399.017 416.747 398.744 416.548 398.657 416.226Z" fill="#FF00FF"/>
<path fill-rule="evenodd" clip-rule="evenodd" d="M394.32 387.994C394.419 387.972 394.523 387.96 394.63 387.96H395.1C395.493 387.96 395.81 387.642 395.81 387.25C395.81 386.858 395.493 386.54 395.1 386.54H394.63C394.419 386.54 394.212 386.563 394.013 386.607C393.63 386.692 393.388 387.072 393.473 387.454C393.558 387.837 393.938 388.079 394.32 387.994ZM397.53 386.54C397.137 386.54 396.82 386.858 396.82 387.25C396.82 387.642 397.137 387.96 397.53 387.96H398.47C398.863 387.96 399.18 387.642 399.18 387.25C399.18 386.858 398.863 386.54 398.47 386.54H397.53ZM400.9 386.54C400.507 386.54 400.19 386.858 400.19 387.25C400.19 387.642 400.507 387.96 400.9 387.96H401.37C401.477 387.96 401.581 387.972 401.68 387.994C402.063 388.079 402.442 387.837 402.527 387.454C402.612 387.072 402.37 386.692 401.987 386.607C401.788 386.563 401.581 386.54 401.37 386.54H400.9ZM393.244 389.07C393.329 388.688 393.087 388.308 392.704 388.223C392.322 388.138 391.942 388.38 391.857 388.763C391.813 388.962 391.79 389.169 391.79 389.38V389.85C391.79 390.243 392.108 390.56 392.5 390.56C392.892 390.56 393.21 390.243 393.21 389.85V389.38C393.21 389.273 393.222 389.169 393.244 389.07ZM404.143 388.763C404.058 388.38 403.678 388.138 403.296 388.223C402.913 388.308 402.671 388.688 402.756 389.07C402.778 389.169 402.79 389.273 402.79 389.38V389.85C402.79 390.243 403.108 390.56 403.5 390.56C403.892 390.56 404.21 390.243 404.21 389.85V389.38C404.21 389.169 404.187 388.962 404.143 388.763ZM404.21 392.28C404.21 391.887 403.892 391.57 403.5 391.57C403.108 391.57 402.79 391.887 402.79 392.28V393.22C402.79 393.613 403.108 393.93 403.5 393.93C403.892 393.93 404.21 393.613 404.21 393.22V392.28ZM393.21 392.28C393.21 391.887 392.892 391.57 392.5 391.57C392.108 391.57 391.79 391.887 391.79 392.28V393.22C391.79 393.613 392.108 393.93 392.5 393.93C392.892 393.93 393.21 393.613 393.21 393.22V392.28ZM404.21 395.65C404.21 395.257 403.892 394.94 403.5 394.94C403.108 394.94 402.79 395.257 402.79 395.65V396.12C402.79 396.227 402.778 396.331 402.756 396.43C402.671 396.813 402.913 397.192 403.296 397.277C403.678 397.362 404.058 397.12 404.143 396.737C404.187 396.538 404.21 396.331 404.21 396.12V395.65ZM393.21 395.65C393.21 395.257 392.892 394.94 392.5 394.94C392.108 394.94 391.79 395.257 391.79 395.65V396.12C391.79 396.331 391.813 396.538 391.857 396.737C391.942 397.12 392.322 397.362 392.704 397.277C393.087 397.192 393.329 396.813 393.244 396.43C393.222 396.331 393.21 396.227 393.21 396.12V395.65ZM394.32 397.506C393.938 397.421 393.558 397.663 393.473 398.046C393.388 398.428 393.63 398.808 394.013 398.893C394.212 398.937 394.419 398.96 394.63 398.96H395.1C395.493 398.96 395.81 398.642 395.81 398.25C395.81 397.858 395.493 397.54 395.1 397.54H394.63C394.523 397.54 394.419 397.528 394.32 397.506ZM401.987 398.893C402.37 398.808 402.612 398.428 402.527 398.046C402.442 397.663 402.063 397.421 401.68 397.506C401.581 397.528 401.477 397.54 401.37 397.54H400.9C400.507 397.54 400.19 397.858 400.19 398.25C400.19 398.642 400.507 398.96 400.9 398.96H401.37C401.581 398.96 401.788 398.937 401.987 398.893ZM397.53 397.54C397.137 397.54 396.82 397.858 396.82 398.25C396.82 398.642 397.137 398.96 397.53 398.96H398.47C398.863 398.96 399.18 398.642 399.18 398.25C399.18 397.858 398.863 397.54 398.47 397.54H397.53ZM395.085 400.38C394.693 400.38 394.375 400.698 394.375 401.09C394.375 401.482 394.693 401.8 395.085 401.8H400.925C401.317 401.8 401.635 401.482 401.635 401.09C401.635 400.698 401.317 400.38 400.925 400.38H395.085Z" fill="#FF00FF"/>
<path d="M196.53 396.499V395.029C196.53 394.089 196.84 393.979 197.17 393.879C197.46 393.789 197.72 393.609 197.72 393.139C197.72 392.629 197.42 392.459 197.15 392.379C196.85 392.289 196.53 392.169 196.53 391.239V390.009C196.53 388.419 195.64 387.849 194.36 387.849C193.84 387.849 193.4 387.939 193.4 388.479C193.4 388.839 193.59 388.969 193.99 389.049C194.47 389.149 194.98 389.189 194.98 390.259V391.689C194.98 392.369 195.22 392.809 195.67 393.019C195.78 393.069 195.78 393.219 195.67 393.279C195.21 393.509 194.97 393.989 194.97 394.669V396.279C194.97 397.359 194.46 397.399 193.98 397.489C193.58 397.569 193.39 397.699 193.39 398.049C193.39 398.379 193.65 398.649 193.98 398.669C195.46 398.789 196.52 398.239 196.52 396.499H196.53Z" fill="#FF00FF"/>
<path d="M193.404 416.077C193.404 415.705 193.633 415.463 194.061 415.463H195.118C195.196 415.463 195.258 415.4 195.258 415.323V407.2C195.258 407.123 195.196 407.06 195.118 407.06H194.061C193.633 407.06 193.404 406.819 193.404 406.453C193.404 406.081 193.633 405.839 194.061 405.839H195.804C196.449 405.839 196.821 406.186 196.821 406.819V415.705C196.821 416.337 196.449 416.685 195.804 416.685H194.061C193.633 416.685 193.404 416.443 193.404 416.077Z" fill="#FF00FF"/>
<rect x="743.5" y="703" width="67.5" height="54" stroke="#00FFFF"/>
<rect x="676" y="703" width="67.5" height="54" stroke="#00FFFF"/>
<rect x="608.5" y="703" width="67.5" height="54" stroke="#00FFFF"/>
<rect x="541" y="703" width="67.5" height="54" stroke="#00FFFF"/>
<rect x="136" y="703" width="67.5" height="54" stroke="#00FFFF"/>
<rect x="68.5" y="703" width="67.5" height="54" stroke="#00FFFF"/>
<rect x="1" y="703" width="67.5" height="54" stroke="#00FFFF"/>
<rect x="662.5" y="649" width="148.5" height="54" stroke="#00FFFF"/>
<rect x="1" y="649" width="121.5" height="54" stroke="#00FFFF"/>
<rect x="689.5" y="595" width="121.5" height="54" stroke="#00FFFF"/>
<rect x="1" y="595" width="94.5" height="54" stroke="#00FFFF"/>
<rect x="1" y="541" width="81" height="54" stroke="#00FFFF"/>
<rect x="703" y="487" width="108" height="54" stroke="#00FFFF"/>
<rect x="608.5" y="649" width="54" height="54" stroke="#00FFFF"/>
<rect x="554.5" y="649" width="54" height="54" stroke="#00FFFF"/>
<rect x="500.5" y="649" width="54" height="54" stroke="#00FFFF"/>
<rect x="446.5" y="649" width="54" height="54" stroke="#00FFFF"/>
<rect x="392.5" y="649" width="54" height="54" stroke="#00FFFF"/>
<rect x="338.5" y="649" width="54" height="54" stroke="#00FFFF"/>
<rect x="284.5" y="649" width="54" height="54" stroke="#00FFFF"/>
<rect x="230.5" y="649" width="54" height="54" stroke="#00FFFF"/>
<rect x="176.5" y="649" width="54" height="54" stroke="#00FFFF"/>
<rect x="122.5" y="649" width="54" height="54" stroke="#00FFFF"/>
<rect x="635.5" y="595" width="54" height="54" stroke="#00FFFF"/>
<rect x="581.5" y="595" width="54" height="54" stroke="#00FFFF"/>
<rect x="527.5" y="595" width="54" height="54" stroke="#00FFFF"/>
<rect x="473.5" y="595" width="54" height="54" stroke="#00FFFF"/>
<rect x="419.5" y="595" width="54" height="54" stroke="#00FFFF"/>
<rect x="365.5" y="595" width="54" height="54" stroke="#00FFFF"/>
<rect x="311.5" y="595" width="54" height="54" stroke="#00FFFF"/>
<rect x="257.5" y="595" width="54" height="54" stroke="#00FFFF"/>
<rect x="203.5" y="595" width="54" height="54" stroke="#00FFFF"/>
<rect x="149.5" y="595" width="54" height="54" stroke="#00FFFF"/>
<rect x="95.5" y="595" width="54" height="54" stroke="#00FFFF"/>
<rect x="730" y="541" width="81" height="54" stroke="#00FFFF"/>
<rect x="676" y="541" width="54" height="54" stroke="#00FFFF"/>
<rect x="622" y="541" width="54" height="54" stroke="#00FFFF"/>
<rect x="568" y="541" width="54" height="54" stroke="#00FFFF"/>
<rect x="514" y="541" width="54" height="54" stroke="#00FFFF"/>
<rect x="460" y="541" width="54" height="54" stroke="#00FFFF"/>
<rect x="406" y="541" width="54" height="54" stroke="#00FFFF"/>
<rect x="352" y="541" width="54" height="54" stroke="#00FFFF"/>
<rect x="298" y="541" width="54" height="54" stroke="#00FFFF"/>
<rect x="244" y="541" width="54" height="54" stroke="#00FFFF"/>
<rect x="190" y="541" width="54" height="54" stroke="#00FFFF"/>
<rect x="136" y="541" width="54" height="54" stroke="#00FFFF"/>
<rect x="82" y="541" width="54" height="54" stroke="#00FFFF"/>
<rect x="55" y="487" width="54" height="54" stroke="#00FFFF"/>
<rect x="109" y="487" width="54" height="54" stroke="#00FFFF"/>
<rect x="163" y="487" width="54" height="54" stroke="#00FFFF"/>
<rect x="217" y="487" width="54" height="54" stroke="#00FFFF"/>
<rect x="271" y="487" width="54" height="54" stroke="#00FFFF"/>
<rect x="325" y="487" width="54" height="54" stroke="#00FFFF"/>
<rect x="379" y="487" width="54" height="54" stroke="#00FFFF"/>
<rect x="433" y="487" width="54" height="54" stroke="#00FFFF"/>
<rect x="487" y="487" width="54" height="54" stroke="#00FFFF"/>
<rect x="541" y="487" width="54" height="54" stroke="#00FFFF"/>
<rect x="595" y="487" width="54" height="54" stroke="#00FFFF"/>
<rect x="649" y="487" width="54" height="54" stroke="#00FFFF"/>
<rect x="1" y="487" width="54" height="54" stroke="#00FFFF"/>
<rect x="217" y="433" width="54" height="54" stroke="#00FFFF"/>
<rect x="163" y="433" width="54" height="54" stroke="#00FFFF"/>
<rect x="109" y="433" width="54" height="54" stroke="#00FFFF"/>
<rect x="55" y="433" width="54" height="54" stroke="#00FFFF"/>
<rect x="433" y="433" width="54" height="54" stroke="#00FFFF"/>
<rect x="379" y="433" width="54" height="54" stroke="#00FFFF"/>
<rect x="325" y="433" width="54" height="54" stroke="#00FFFF"/>
<rect x="271" y="433" width="54" height="54" stroke="#00FFFF"/>
<rect x="649" y="433" width="54" height="54" stroke="#00FFFF"/>
<rect x="595" y="433" width="54" height="54" stroke="#00FFFF"/>
<rect x="541" y="433" width="54" height="54" stroke="#00FFFF"/>
<rect x="487" y="433" width="54" height="54" stroke="#00FFFF"/>
<rect x="541" y="379" width="54" height="54" stroke="#00FFFF"/>
<rect x="487" y="379" width="54" height="54" stroke="#00FFFF"/>
<rect x="433" y="379" width="54" height="54" stroke="#00FFFF"/>
<rect x="487" y="325" width="54" height="54" stroke="#00FFFF"/>
<rect x="703" y="379" width="54" height="54" stroke="#00FFFF"/>
<rect x="595" y="379" width="108" height="54" stroke="#00FFFF"/>
<rect x="757" y="325" width="54" height="108" stroke="#00FFFF"/>
<rect x="703" y="325" width="54" height="54" stroke="#00FFFF"/>
<rect x="649" y="325" width="54" height="54" stroke="#00FFFF"/>
<rect x="595" y="325" width="54" height="54" stroke="#00FFFF"/>
<rect x="703" y="271" width="54" height="54" stroke="#00FFFF"/>
<rect x="595" y="271" width="54" height="54" stroke="#00FFFF"/>
<rect x="757" y="217" width="54" height="108" stroke="#00FFFF"/>
<rect x="703" y="217" width="54" height="54" stroke="#00FFFF"/>
<rect x="649" y="217" width="54" height="54" stroke="#00FFFF"/>
<rect x="595" y="217" width="54" height="54" stroke="#00FFFF"/>
<rect x="757" y="163" width="54" height="54" stroke="#00FFFF"/>
<rect x="703" y="163" width="54" height="54" stroke="#00FFFF"/>
<rect x="649" y="163" width="54" height="54" stroke="#00FFFF"/>
<rect x="595" y="163" width="54" height="54" stroke="#00FFFF"/>
<rect x="649" y="271" width="54" height="54" stroke="#00FFFF"/>
<rect x="541" y="163" width="54" height="54" stroke="#00FFFF"/>
<rect x="487" y="163" width="54" height="54" stroke="#00FFFF"/>
<rect x="433" y="163" width="54" height="54" stroke="#00FFFF"/>
<rect x="541" y="217" width="54" height="54" stroke="#00FFFF"/>
<rect x="487" y="217" width="54" height="54" stroke="#00FFFF"/>
<rect x="433" y="217" width="54" height="54" stroke="#00FFFF"/>
<rect x="541" y="271" width="54" height="54" stroke="#00FFFF"/>
<rect x="487" y="271" width="54" height="54" stroke="#00FFFF"/>
<rect x="433" y="271" width="54" height="54" stroke="#00FFFF"/>
<rect x="595" y="757" width="81" height="54" stroke="#00FFFF"/>
<rect x="676" y="757" width="54" height="54" stroke="#00FFFF"/>
<rect x="730" y="757" width="81" height="54" stroke="#00FFFF"/>
<rect x="136" y="757" width="81" height="54" stroke="#00FFFF"/>
<rect x="82" y="757" width="54" height="54" stroke="#00FFFF"/>
<rect x="1" y="757" width="81" height="54" stroke="#00FFFF"/>
<rect x="1" y="433" width="54" height="54" stroke="#00FFFF"/>
<rect x="757" y="433" width="54" height="54" stroke="#00FFFF"/>
<rect x="703" y="433" width="54" height="54" stroke="#00FFFF"/>
<rect x="541" y="325" width="54" height="54" stroke="#00FFFF"/>
<rect x="433" y="325" width="54" height="54" stroke="#00FFFF"/>
<rect x="379" y="325" width="54" height="54" stroke="#00FFFF"/>
<rect x="379" y="379" width="54" height="54" stroke="#00FFFF"/>
<rect x="298" y="379" width="81" height="54" stroke="#00FFFF"/>
<rect x="298" y="325" width="81" height="54" stroke="#00FFFF"/>
<rect x="217" y="325" width="81" height="108" stroke="#00FFFF"/>
<rect x="176.5" y="379" width="54" height="54" stroke="#00FFFF"/>
<rect x="122.5" y="379" width="54" height="54" stroke="#00FFFF"/>
<rect x="68.5" y="379" width="54" height="54" stroke="#00FFFF"/>
<rect x="1" y="379" width="67.5" height="54" stroke="#00FFFF"/>
<rect x="109" y="325" width="54" height="54" stroke="#00FFFF"/>
<rect x="55" y="325" width="54" height="54" stroke="#00FFFF"/>
<rect x="1" y="325" width="54" height="54" stroke="#00FFFF"/>
<rect x="163" y="325" width="54" height="54" stroke="#00FFFF"/>
<rect x="271" y="271" width="94.5" height="54" stroke="#00FFFF"/>
<rect x="365.5" y="271" width="67.5" height="54" stroke="#00FFFF"/>
<rect x="217" y="271" width="54" height="54" stroke="#00FFFF"/>
<rect x="163" y="271" width="54" height="54" stroke="#00FFFF"/>
<rect x="95.5" y="271" width="67.5" height="54" stroke="#00FFFF"/>
<rect x="1" y="271" width="94.5" height="54" stroke="#00FFFF"/>
<rect x="379" y="163" width="54" height="54" stroke="#00FFFF"/>
<rect x="271" y="163" width="54" height="54" stroke="#00FFFF"/>
<rect x="163" y="163" width="108" height="54" stroke="#00FFFF"/>
<rect x="95.5" y="163" width="67.5" height="54" stroke="#00FFFF"/>
<rect x="217" y="217" width="54" height="54" stroke="#00FFFF"/>
<rect x="163" y="217" width="54" height="54" stroke="#00FFFF"/>
<rect x="95.5" y="217" width="67.5" height="54" stroke="#00FFFF"/>
<rect x="1" y="217" width="94.5" height="54" stroke="#00FFFF"/>
<rect x="1" y="163" width="94.5" height="54" stroke="#00FFFF"/>
<rect x="730" y="55" width="81" height="108" stroke="#00FFFF"/>
<rect x="635.5" y="109" width="54" height="54" stroke="#00FFFF"/>
<rect x="554.5" y="109" width="81" height="54" stroke="#00FFFF"/>
<rect x="446.5" y="109" width="108" height="54" stroke="#00FFFF"/>
<rect x="311.5" y="109" width="81" height="54" stroke="#00FFFF"/>
<rect x="257.5" y="109" width="54" height="54" stroke="#00FFFF"/>
<rect x="163" y="109" width="94.5" height="54" stroke="#00FFFF"/>
<rect x="82" y="109" width="81" height="54" stroke="#00FFFF"/>
<rect x="1" y="109" width="81" height="54" stroke="#00FFFF"/>
<rect x="635.5" y="55" width="94.5" height="54" stroke="#00FFFF"/>
<rect x="527.5" y="55" width="54" height="54" stroke="#00FFFF"/>
<rect x="473.5" y="55" width="54" height="54" stroke="#00FFFF"/>
<rect x="392.5" y="55" width="81" height="54" stroke="#00FFFF"/>
<rect x="1" y="1" width="54" height="54" stroke="#00FFFF"/>
<rect x="55" y="1" width="54" height="54" stroke="#00FFFF"/>
<rect x="109" y="1" width="54" height="54" stroke="#00FFFF"/>
<rect x="163" y="1" width="54" height="54" stroke="#00FFFF"/>
<rect x="217" y="1" width="54" height="54" stroke="#00FFFF"/>
<rect x="271" y="1" width="54" height="54" stroke="#00FFFF"/>
<rect x="325" y="1" width="54" height="54" stroke="#00FFFF"/>
<rect x="379" y="1" width="54" height="54" stroke="#00FFFF"/>
</svg>
