<svg width="812" height="812" viewBox="0 0 812 812" fill="none" xmlns="http://www.w3.org/2000/svg">
<path d="M627.798 728.87C625.762 728.87 624.507 727.488 624.507 725.228C624.507 722.967 625.782 721.59 627.774 721.59C629.077 721.59 630.108 722.2 630.572 723.23C630.65 723.392 630.689 723.558 630.689 723.704C630.689 724.041 630.469 724.256 630.132 724.256C629.844 724.256 629.654 724.119 629.517 723.812C629.19 723.055 628.55 722.659 627.784 722.659C626.573 722.659 625.796 723.655 625.796 725.228C625.796 726.8 626.568 727.801 627.789 727.801C628.594 727.801 629.214 727.449 629.537 726.707C629.664 726.419 629.825 726.302 630.098 726.302C630.445 726.302 630.684 726.531 630.684 726.863C630.684 727.024 630.645 727.171 630.567 727.337C630.118 728.294 629.117 728.87 627.798 728.87L627.798 728.87Z" fill="#FF00FF"/>
<path d="M642.778 724.485C643.535 724.485 644.038 725.144 644.043 726.16C644.038 727.166 643.564 727.835 642.778 727.835C641.992 727.835 641.503 727.181 641.503 726.16C641.503 725.134 642.021 724.485 642.778 724.485ZM640.258 726.16C640.258 727.816 641.093 728.836 642.407 728.836C642.893 728.836 643.663 728.592 643.964 728.49C644.031 728.467 644.106 728.497 644.138 728.561C644.146 728.577 644.154 728.594 644.164 728.608C644.284 728.779 644.459 728.851 644.658 728.851C645.005 728.851 645.249 728.626 645.249 728.226V722.248C645.249 721.838 645 721.608 644.643 721.608C644.287 721.608 644.033 721.838 644.033 722.248V723.728C644.033 723.831 643.927 723.9 643.833 723.858C643.471 723.695 642.869 723.489 642.387 723.489C641.088 723.489 640.258 724.509 640.258 726.16V726.16Z" fill="#FF00FF"/>
<path d="M631.855 728.211V724.094C631.855 723.698 632.095 723.474 632.437 723.474C632.591 723.474 632.724 723.52 632.826 723.605C632.887 723.656 632.931 723.726 632.961 723.786C632.995 723.853 633.076 723.881 633.145 723.85C633.414 723.731 634.039 723.479 634.522 723.479C635.135 723.479 635.704 723.801 635.898 723.923C635.941 723.951 635.996 723.952 636.041 723.928C636.258 723.809 636.921 723.479 637.609 723.479C638.629 723.479 639.298 724.167 639.298 725.203V728.211C639.298 728.616 639.054 728.851 638.693 728.851C638.332 728.851 638.082 728.616 638.082 728.211V725.5C638.082 724.866 637.75 724.504 637.154 724.504C636.559 724.504 636.168 724.934 636.168 725.554V728.211C636.168 728.616 635.938 728.851 635.577 728.851C635.216 728.851 634.986 728.616 634.986 728.211V725.437C634.986 724.861 634.634 724.504 634.068 724.504C633.501 724.504 633.072 724.958 633.072 725.583V728.211C633.072 728.616 632.822 728.851 632.461 728.851C632.1 728.851 631.855 728.616 631.855 728.211Z" fill="#FF00FF"/>
<path d="M560.36 721.648C558.304 721.648 557.015 723.05 557.015 725.291C557.015 727.532 558.304 728.929 560.36 728.929C562.416 728.929 563.7 727.532 563.7 725.291C563.7 723.05 562.411 721.648 560.36 721.648ZM560.36 727.855C559.1 727.855 558.304 726.858 558.304 725.291C558.304 723.724 559.1 722.723 560.36 722.723C561.62 722.723 562.416 723.719 562.416 725.291C562.416 726.863 561.615 727.855 560.36 727.855Z" fill="#FF00FF"/>
<path d="M574.949 723.533C574.578 723.533 574.344 723.782 574.344 724.173V728.27C574.344 728.665 574.578 728.909 574.949 728.909C575.32 728.909 575.559 728.665 575.559 728.27V724.178C575.559 723.782 575.32 723.533 574.949 723.533V723.533ZM574.949 722.908C575.33 722.908 575.628 722.615 575.628 722.249C575.628 721.883 575.33 721.59 574.949 721.59C574.568 721.59 574.275 721.878 574.275 722.249C574.275 722.62 574.573 722.908 574.949 722.908Z" fill="#FF00FF"/>
<path d="M582.555 728.269V724.147C582.555 723.771 582.775 723.532 583.136 723.532C583.343 723.532 583.512 723.612 583.617 723.753C583.643 723.787 583.665 723.826 583.682 723.863C583.717 723.933 583.801 723.963 583.872 723.929C584.138 723.8 584.758 723.537 585.373 723.537C586.516 723.537 587.165 724.269 587.165 725.466V728.269C587.165 728.68 586.916 728.909 586.56 728.909C586.203 728.909 585.949 728.68 585.949 728.269V725.71C585.949 724.978 585.607 724.567 584.914 724.567C584.22 724.567 583.771 725.07 583.771 725.813V728.269C583.771 728.68 583.517 728.909 583.161 728.909C582.804 728.909 582.555 728.68 582.555 728.269Z" fill="#FF00FF"/>
<path d="M579.07 723.528C577.561 723.528 576.565 724.554 576.565 726.224C576.565 727.894 577.551 728.914 579.07 728.914C580.589 728.914 581.575 727.903 581.575 726.224C581.575 724.544 580.579 723.528 579.07 723.528ZM579.07 727.952C578.298 727.952 577.8 727.327 577.8 726.224C577.8 725.12 578.303 724.495 579.07 724.495C579.837 724.495 580.339 725.125 580.339 726.224C580.339 727.322 579.841 727.952 579.07 727.952Z" fill="#FF00FF"/>
<path d="M567.254 727.898C566.497 727.898 565.994 727.238 565.989 726.223C565.994 725.217 566.467 724.548 567.254 724.548C568.04 724.548 568.528 725.202 568.528 726.223C568.528 727.248 568.011 727.898 567.254 727.898ZM569.773 726.223C569.773 724.567 568.938 723.546 567.625 723.546C567.139 723.546 566.368 723.79 566.068 723.892C566 723.915 565.925 723.886 565.894 723.822C565.886 723.805 565.877 723.789 565.867 723.774C565.748 723.604 565.572 723.532 565.373 723.532C565.026 723.532 564.782 723.756 564.782 724.157V730.013C564.782 730.423 565.031 730.652 565.388 730.652C565.745 730.652 565.998 730.423 565.998 730.013V728.654C565.998 728.552 566.104 728.483 566.198 728.525C566.56 728.688 567.163 728.894 567.644 728.894C568.943 728.894 569.774 727.873 569.774 726.223L569.773 726.223Z" fill="#FF00FF"/>
<path d="M571.092 727.532V724.716C571.092 724.637 571.028 724.574 570.95 724.574H570.765C570.462 724.574 570.276 724.403 570.276 724.11C570.276 723.817 570.462 723.651 570.765 723.651H570.95C571.028 723.651 571.092 723.588 571.092 723.509V722.946C571.092 722.556 571.326 722.312 571.702 722.312C572.078 722.312 572.308 722.556 572.308 722.946V723.509C572.308 723.588 572.371 723.651 572.45 723.651H572.869C573.172 723.651 573.358 723.822 573.358 724.11C573.358 724.398 573.172 724.574 572.869 724.574H572.45C572.371 724.574 572.308 724.638 572.308 724.716V727.268C572.308 727.659 572.445 727.83 572.796 727.859L572.884 727.869C573.206 727.898 573.373 728.035 573.373 728.318C573.373 728.675 573.06 728.865 572.503 728.865H572.455C571.551 728.865 571.092 728.416 571.092 727.532H571.092L571.092 727.532Z" fill="#FF00FF"/>
<path d="M155.36 721.648C153.304 721.648 152.015 723.05 152.015 725.291C152.015 727.532 153.304 728.929 155.36 728.929C157.416 728.929 158.7 727.532 158.7 725.291C158.7 723.05 157.411 721.648 155.36 721.648ZM155.36 727.855C154.1 727.855 153.304 726.858 153.304 725.291C153.304 723.724 154.1 722.723 155.36 722.723C156.62 722.723 157.416 723.719 157.416 725.291C157.416 726.863 156.615 727.855 155.36 727.855Z" fill="#FF00FF"/>
<path d="M169.949 723.533C169.578 723.533 169.344 723.782 169.344 724.173V728.27C169.344 728.665 169.578 728.909 169.949 728.909C170.32 728.909 170.559 728.665 170.559 728.27V724.178C170.559 723.782 170.32 723.533 169.949 723.533V723.533ZM169.949 722.908C170.33 722.908 170.628 722.615 170.628 722.249C170.628 721.883 170.33 721.59 169.949 721.59C169.568 721.59 169.275 721.878 169.275 722.249C169.275 722.62 169.573 722.908 169.949 722.908Z" fill="#FF00FF"/>
<path d="M177.555 728.269V724.147C177.555 723.771 177.775 723.532 178.136 723.532C178.343 723.532 178.512 723.612 178.617 723.753C178.643 723.787 178.665 723.826 178.682 723.863C178.717 723.933 178.801 723.963 178.872 723.929C179.138 723.8 179.758 723.537 180.373 723.537C181.516 723.537 182.165 724.269 182.165 725.466V728.269C182.165 728.68 181.916 728.909 181.56 728.909C181.203 728.909 180.949 728.68 180.949 728.269V725.71C180.949 724.978 180.607 724.567 179.914 724.567C179.22 724.567 178.771 725.07 178.771 725.813V728.269C178.771 728.68 178.517 728.909 178.161 728.909C177.804 728.909 177.555 728.68 177.555 728.269Z" fill="#FF00FF"/>
<path d="M174.07 723.528C172.561 723.528 171.565 724.554 171.565 726.224C171.565 727.894 172.551 728.914 174.07 728.914C175.589 728.914 176.575 727.903 176.575 726.224C176.575 724.544 175.579 723.528 174.07 723.528ZM174.07 727.952C173.298 727.952 172.8 727.327 172.8 726.224C172.8 725.12 173.303 724.495 174.07 724.495C174.837 724.495 175.339 725.125 175.339 726.224C175.339 727.322 174.841 727.952 174.07 727.952Z" fill="#FF00FF"/>
<path d="M162.254 727.898C161.497 727.898 160.994 727.238 160.989 726.223C160.994 725.217 161.467 724.548 162.254 724.548C163.04 724.548 163.528 725.202 163.528 726.223C163.528 727.248 163.011 727.898 162.254 727.898ZM164.773 726.223C164.773 724.567 163.938 723.546 162.625 723.546C162.139 723.546 161.368 723.79 161.068 723.892C161 723.915 160.925 723.886 160.894 723.822C160.886 723.805 160.877 723.789 160.867 723.774C160.748 723.604 160.572 723.532 160.373 723.532C160.026 723.532 159.782 723.756 159.782 724.157V730.013C159.782 730.423 160.031 730.652 160.388 730.652C160.745 730.652 160.998 730.423 160.998 730.013V728.654C160.998 728.552 161.104 728.483 161.198 728.525C161.56 728.688 162.163 728.894 162.644 728.894C163.943 728.894 164.774 727.873 164.774 726.223L164.773 726.223Z" fill="#FF00FF"/>
<path d="M166.092 727.532V724.716C166.092 724.637 166.028 724.574 165.95 724.574H165.765C165.462 724.574 165.276 724.403 165.276 724.11C165.276 723.817 165.462 723.651 165.765 723.651H165.95C166.028 723.651 166.092 723.588 166.092 723.509V722.946C166.092 722.556 166.326 722.312 166.702 722.312C167.078 722.312 167.308 722.556 167.308 722.946V723.509C167.308 723.588 167.371 723.651 167.45 723.651H167.869C168.172 723.651 168.358 723.822 168.358 724.11C168.358 724.398 168.172 724.574 167.869 724.574H167.45C167.371 724.574 167.308 724.638 167.308 724.716V727.268C167.308 727.659 167.445 727.83 167.796 727.859L167.884 727.869C168.206 727.898 168.373 728.035 168.373 728.318C168.373 728.675 168.06 728.865 167.503 728.865H167.455C166.551 728.865 166.092 728.416 166.092 727.532H166.092L166.092 727.532Z" fill="#FF00FF"/>
<path d="M87.7982 728.87C85.762 728.87 84.5071 727.488 84.5071 725.228C84.5071 722.967 85.7816 721.59 87.7738 721.59C89.0775 721.59 90.1078 722.2 90.5717 723.23C90.6498 723.392 90.6889 723.558 90.6889 723.704C90.6889 724.041 90.4692 724.256 90.1323 724.256C89.8442 724.256 89.6538 724.119 89.5171 723.812C89.1899 723.055 88.5503 722.659 87.7837 722.659C86.5727 722.659 85.7964 723.655 85.7964 725.228C85.7964 726.8 86.5679 727.801 87.7886 727.801C88.5943 727.801 89.2144 727.449 89.5367 726.707C89.6637 726.419 89.8248 726.302 90.0982 726.302C90.4449 726.302 90.6841 726.531 90.6841 726.863C90.6841 727.024 90.645 727.171 90.5669 727.337C90.1177 728.294 89.1167 728.87 87.7983 728.87L87.7982 728.87Z" fill="#FF00FF"/>
<path d="M102.778 724.485C103.535 724.485 104.038 725.144 104.043 726.16C104.038 727.166 103.564 727.835 102.778 727.835C101.992 727.835 101.503 727.181 101.503 726.16C101.503 725.134 102.021 724.485 102.778 724.485ZM100.258 726.16C100.258 727.816 101.093 728.836 102.407 728.836C102.893 728.836 103.663 728.592 103.964 728.49C104.031 728.467 104.106 728.497 104.138 728.561C104.146 728.577 104.154 728.594 104.164 728.608C104.284 728.779 104.459 728.851 104.658 728.851C105.005 728.851 105.249 728.626 105.249 728.226V722.248C105.249 721.838 105 721.608 104.643 721.608C104.287 721.608 104.033 721.838 104.033 722.248V723.728C104.033 723.831 103.927 723.9 103.833 723.858C103.471 723.695 102.869 723.489 102.387 723.489C101.088 723.489 100.258 724.509 100.258 726.16V726.16Z" fill="#FF00FF"/>
<path d="M91.8555 728.211V724.094C91.8555 723.698 92.0948 723.474 92.4366 723.474C92.5906 723.474 92.7239 723.52 92.8257 723.605C92.8865 723.656 92.9309 723.726 92.9611 723.786C92.9949 723.853 93.076 723.881 93.1447 723.85C93.4137 723.731 94.0388 723.479 94.5221 723.479C95.1352 723.479 95.704 723.801 95.8976 723.923C95.9411 723.951 95.996 723.952 96.0411 723.928C96.2576 723.809 96.9214 723.479 97.6086 723.479C98.6294 723.479 99.2985 724.167 99.2985 725.203V728.211C99.2985 728.616 99.0543 728.851 98.6929 728.851C98.3315 728.851 98.0824 728.616 98.0824 728.211V725.5C98.0824 724.866 97.7503 724.504 97.1545 724.504C96.5586 724.504 96.1679 724.934 96.1679 725.554V728.211C96.1679 728.616 95.9383 728.851 95.5769 728.851C95.2155 728.851 94.9859 728.616 94.9859 728.211V725.437C94.9859 724.861 94.6343 724.504 94.0678 724.504C93.5013 724.504 93.0715 724.958 93.0715 725.583V728.211C93.0715 728.616 92.8224 728.851 92.461 728.851C92.0997 728.851 91.8555 728.616 91.8555 728.211Z" fill="#FF00FF"/>
<path d="M631.388 659.935C631.388 660.835 630.563 661.915 629.183 661.915C627.998 661.915 626.693 660.895 625.928 660.895C625.103 660.895 624.893 661.795 624.263 661.795C623.783 661.795 623.618 661.42 623.618 661.075C623.618 660.175 624.443 659.095 625.733 659.095C627.008 659.095 628.313 660.115 629.078 660.115C629.903 660.115 630.113 659.215 630.743 659.215C631.223 659.215 631.388 659.59 631.388 659.935Z" fill="#FF00FF"/>
<path d="M627.422 680.895L626.27 679.576C626.143 679.42 626.064 679.205 626.064 678.98C626.064 678.492 626.465 678.082 626.953 678.082C627.207 678.082 627.461 678.15 627.695 678.492L628.623 679.898C628.711 680.035 628.789 680.201 628.789 680.377C628.789 680.816 628.428 681.178 628.018 681.178C627.773 681.178 627.568 681.061 627.422 680.895Z" fill="#FF00FF"/>
<path fill-rule="evenodd" clip-rule="evenodd" d="M246.209 463.353C246.209 465.33 244.606 466.933 242.629 466.933C240.652 466.933 239.049 465.33 239.049 463.353C239.049 461.376 240.652 459.773 242.629 459.773C244.606 459.773 246.209 461.376 246.209 463.353ZM245.5 467.585C245.453 467.537 245.379 467.53 245.322 467.566C244.545 468.064 243.621 468.353 242.629 468.353C239.868 468.353 237.629 466.114 237.629 463.353C237.629 460.592 239.868 458.353 242.629 458.353C245.39 458.353 247.629 460.592 247.629 463.353C247.629 464.371 247.325 465.318 246.802 466.108C246.765 466.164 246.772 466.239 246.819 466.287L250.1 469.568C250.461 469.929 250.461 470.515 250.1 470.876C249.739 471.237 249.153 471.237 248.792 470.876L245.5 467.585Z" fill="#FF00FF"/>
<path d="M239.085 448.833C238.694 448.833 238.455 448.594 238.455 448.179V442.358C238.455 441.948 238.694 441.704 239.085 441.704H242.454C242.801 441.704 243.03 441.909 243.03 442.236C243.03 442.563 242.796 442.769 242.454 442.769H239.857C239.778 442.769 239.715 442.832 239.715 442.91V444.707C239.715 444.785 239.778 444.849 239.857 444.849H242.2C242.532 444.849 242.752 445.044 242.752 445.361C242.752 445.679 242.532 445.874 242.2 445.874H239.857C239.778 445.874 239.715 445.937 239.715 446.016V448.179C239.715 448.594 239.481 448.833 239.085 448.833V448.833Z" fill="#FF00FF"/>
<path d="M249.016 446.362H248.665C248.587 446.362 248.523 446.299 248.523 446.221V442.534C248.523 441.948 248.138 441.606 247.488 441.606C246.97 441.606 246.663 441.821 246.204 442.505C245.359 443.745 244.558 444.951 244.065 445.835C243.87 446.187 243.792 446.416 243.792 446.69C243.792 447.109 244.09 447.398 244.544 447.398H247.18C247.259 447.398 247.322 447.461 247.322 447.539V448.228C247.322 448.623 247.576 448.848 247.923 448.848C248.269 448.848 248.523 448.623 248.523 448.228V447.539C248.523 447.461 248.587 447.398 248.665 447.398H249.012C249.348 447.398 249.549 447.188 249.549 446.88C249.549 446.572 249.348 446.362 249.016 446.362H249.016ZM247.2 446.392H245.167C245.056 446.392 244.988 446.271 245.046 446.176C245.382 445.625 246.304 444.127 247.083 443.003C247.163 442.889 247.342 442.945 247.342 443.084V446.25C247.342 446.328 247.278 446.392 247.2 446.392Z" fill="#FF00FF"/>
<path fill-rule="evenodd" clip-rule="evenodd" d="M184.399 461.404C184.261 461.404 184.169 461.506 184.169 461.624V462.914C184.169 463.042 184.271 463.144 184.399 463.144H188.059C188.11 463.144 188.164 463.123 188.21 463.077C188.255 463.031 188.279 462.972 188.279 462.914V461.624C188.279 461.501 188.182 461.404 188.059 461.404H184.399ZM182.749 461.624C182.749 460.702 183.497 459.984 184.399 459.984H188.059C188.956 459.984 189.699 460.707 189.699 461.624V462.914C189.699 463.806 188.971 464.564 188.059 464.564H184.399C183.487 464.564 182.749 463.826 182.749 462.914V461.624ZM193.409 462.074C193.291 462.074 193.189 462.176 193.189 462.294V465.614C193.189 465.752 193.291 465.844 193.409 465.844H195.609C195.727 465.844 195.829 465.752 195.829 465.614V462.294C195.829 462.176 195.727 462.074 195.609 462.074H193.409ZM191.769 462.294C191.769 461.392 192.507 460.654 193.409 460.654H195.609C196.511 460.654 197.249 461.392 197.249 462.294V465.614C197.249 466.516 196.531 467.264 195.609 467.264H193.409C192.507 467.264 191.769 466.536 191.769 465.614V462.294ZM186.339 466.794C186.339 466.746 186.359 466.694 186.403 466.651C186.447 466.607 186.503 466.584 186.559 466.584H189.529C189.588 466.584 189.643 466.608 189.685 466.651C189.73 466.695 189.749 466.749 189.749 466.794V467.864C189.749 467.982 189.647 468.084 189.529 468.084H186.559C186.441 468.084 186.339 467.982 186.339 467.864V466.794ZM186.559 465.164C185.662 465.164 184.919 465.897 184.919 466.794V467.864C184.919 468.766 185.657 469.504 186.559 469.504H189.529C190.431 469.504 191.169 468.766 191.169 467.864V466.794C191.169 465.917 190.446 465.164 189.529 465.164H186.559Z" fill="#FF00FF"/>
<path d="M185.291 448.833C184.9 448.833 184.661 448.594 184.661 448.179V442.358C184.661 441.948 184.9 441.704 185.291 441.704H188.66C189.006 441.704 189.236 441.909 189.236 442.236C189.236 442.563 189.002 442.769 188.66 442.769H186.062C185.984 442.769 185.92 442.832 185.92 442.91V444.707C185.92 444.785 185.984 444.849 186.062 444.849H188.406C188.738 444.849 188.958 445.044 188.958 445.361C188.958 445.679 188.738 445.874 188.406 445.874H186.062C185.984 445.874 185.92 445.937 185.92 446.016V448.179C185.92 448.594 185.686 448.833 185.291 448.833V448.833Z" fill="#FF00FF"/>
<path d="M192.703 448.892C191.467 448.892 190.666 448.389 190.3 447.68C190.207 447.51 190.168 447.348 190.168 447.182C190.168 446.85 190.378 446.64 190.73 446.64C190.989 446.64 191.145 446.752 191.277 447.011C191.521 447.544 191.946 447.861 192.718 447.861C193.489 447.861 194.061 447.402 194.061 446.762C194.065 446.01 193.518 445.59 192.615 445.59H192.215C191.902 445.59 191.716 445.4 191.716 445.121C191.716 444.843 191.902 444.652 192.215 444.652H192.586C193.362 444.652 193.88 444.208 193.88 443.583C193.88 442.957 193.479 442.562 192.698 442.562C192.034 442.562 191.648 442.835 191.414 443.387C191.277 443.69 191.14 443.802 190.847 443.802C190.495 443.802 190.31 443.597 190.31 443.275C190.31 443.099 190.344 442.943 190.432 442.772C190.764 442.074 191.545 441.561 192.693 441.561C194.153 441.561 195.091 442.323 195.091 443.412C195.091 444.176 194.583 444.675 194.296 444.895C194.217 444.956 194.225 445.079 194.312 445.13C194.662 445.335 195.34 445.852 195.34 446.792C195.34 448.042 194.246 448.892 192.703 448.892H192.703V448.892Z" fill="#FF00FF"/>
<path fill-rule="evenodd" clip-rule="evenodd" d="M135.99 457.99C136.382 457.99 136.7 458.308 136.7 458.7V459.83C136.7 460.222 136.382 460.54 135.99 460.54C135.598 460.54 135.28 460.222 135.28 459.83V458.7C135.28 458.308 135.598 457.99 135.99 457.99ZM140.782 460.962C141.059 460.685 141.059 460.235 140.782 459.958C140.505 459.681 140.055 459.681 139.778 459.958L138.968 460.768C138.691 461.045 138.691 461.495 138.968 461.772C139.245 462.049 139.695 462.049 139.972 461.772L140.782 460.962ZM136 463.33C135.214 463.33 134.58 463.97 134.58 464.75C134.58 465.524 135.218 466.16 136 466.16C136.792 466.16 137.42 465.534 137.42 464.75C137.42 463.962 136.788 463.33 136 463.33ZM133.16 464.75C133.16 463.19 134.426 461.91 136 461.91C137.572 461.91 138.84 463.178 138.84 464.75C138.84 466.326 137.568 467.58 136 467.58C134.442 467.58 133.16 466.316 133.16 464.75ZM136.01 468.96C136.402 468.96 136.72 469.278 136.72 469.67V470.8C136.72 471.192 136.402 471.51 136.01 471.51C135.618 471.51 135.3 471.192 135.3 470.8V469.67C135.3 469.278 135.618 468.96 136.01 468.96ZM139.982 467.718C139.705 467.441 139.255 467.441 138.978 467.718C138.701 467.995 138.701 468.445 138.978 468.722L139.788 469.532C140.065 469.809 140.515 469.809 140.792 469.532C141.069 469.255 141.069 468.805 140.792 468.528L139.982 467.718ZM140.21 464.74C140.21 464.348 140.528 464.03 140.92 464.03H142.05C142.442 464.03 142.76 464.348 142.76 464.74C142.76 465.132 142.442 465.45 142.05 465.45H140.92C140.528 465.45 140.21 465.132 140.21 464.74ZM132.212 459.968C131.935 459.691 131.485 459.691 131.208 459.968C130.931 460.245 130.931 460.695 131.208 460.972L132.018 461.782C132.295 462.059 132.745 462.059 133.022 461.782C133.299 461.505 133.299 461.055 133.022 460.778L132.212 459.968ZM129.24 464.76C129.24 464.368 129.558 464.05 129.95 464.05H131.08C131.472 464.05 131.79 464.368 131.79 464.76C131.79 465.152 131.472 465.47 131.08 465.47H129.95C129.558 465.47 129.24 465.152 129.24 464.76ZM133.032 468.732C133.309 468.455 133.309 468.005 133.032 467.728C132.755 467.451 132.305 467.451 132.028 467.728L131.218 468.538C130.941 468.815 130.941 469.265 131.218 469.542C131.495 469.819 131.945 469.819 132.222 469.542L133.032 468.732Z" fill="#FF00FF"/>
<path d="M131.366 448.833C130.976 448.833 130.736 448.594 130.736 448.179V442.358C130.736 441.948 130.976 441.704 131.366 441.704H134.735C135.082 441.704 135.312 441.909 135.312 442.236C135.312 442.563 135.077 442.769 134.735 442.769H132.138C132.06 442.769 131.996 442.832 131.996 442.91V444.707C131.996 444.785 132.06 444.849 132.138 444.849H134.481C134.813 444.849 135.033 445.044 135.033 445.361C135.033 445.679 134.814 445.874 134.481 445.874H132.138C132.06 445.874 131.996 445.937 131.996 446.016V448.179C131.996 448.594 131.762 448.833 131.366 448.833V448.833Z" fill="#FF00FF"/>
<path d="M136.83 448.75C136.439 448.75 136.234 448.535 136.234 448.218C136.234 447.974 136.317 447.827 136.586 447.573L138.739 445.44C139.638 444.551 139.862 444.194 139.862 443.657C139.862 443.027 139.379 442.573 138.7 442.573C138.065 442.573 137.621 442.896 137.372 443.53C137.245 443.784 137.099 443.916 136.811 443.916C136.469 443.916 136.264 443.706 136.264 443.393C136.264 443.301 136.278 443.213 136.303 443.13C136.493 442.368 137.338 441.562 138.71 441.562C140.082 441.562 141.093 442.397 141.093 443.579C141.093 444.404 140.697 444.961 139.53 446.104L138.136 447.477C138.045 447.566 138.108 447.72 138.235 447.72H140.726C141.058 447.72 141.264 447.925 141.264 448.237C141.264 448.55 141.058 448.75 140.726 448.75H136.83Z" fill="#FF00FF"/>
<path fill-rule="evenodd" clip-rule="evenodd" d="M82.7049 459.405C82.7049 459.013 82.387 458.695 81.9949 458.695C81.6028 458.695 81.2849 459.013 81.2849 459.405V459.825C81.2849 460.217 81.6028 460.535 81.9949 460.535C82.387 460.535 82.7049 460.217 82.7049 459.825V459.405ZM86.2769 460.463C86.5542 460.74 86.5542 461.19 86.2769 461.467L85.9769 461.767C85.6997 462.044 85.2501 462.044 84.9728 461.767C84.6956 461.49 84.6956 461.04 84.9728 460.763L85.2728 460.463C85.5501 460.186 85.9997 460.186 86.2769 460.463ZM80.5849 464.755C80.5849 463.983 81.2214 463.335 82.0049 463.335C82.7928 463.335 83.4249 463.967 83.4249 464.755C83.4249 465.539 82.7972 466.165 82.0049 466.165C81.2249 466.165 80.5849 465.521 80.5849 464.755ZM82.0049 461.915C80.4285 461.915 79.1649 463.207 79.1649 464.755C79.1649 466.309 80.445 467.585 82.0049 467.585C83.5727 467.585 84.8449 466.332 84.8449 464.755C84.8449 463.183 83.577 461.915 82.0049 461.915ZM82.7149 469.675C82.7149 469.283 82.397 468.965 82.0049 468.965C81.6128 468.965 81.2949 469.283 81.2949 469.675V470.105C81.2949 470.497 81.6128 470.815 82.0049 470.815C82.397 470.815 82.7149 470.497 82.7149 470.105V469.675ZM84.9829 467.723C85.2601 467.446 85.7097 467.446 85.9869 467.723L86.2869 468.023C86.5642 468.3 86.5642 468.75 86.2869 469.027C86.0097 469.304 85.5601 469.304 85.2829 469.027L84.9829 468.727C84.7056 468.45 84.7056 468 84.9829 467.723ZM86.925 464.035C86.5328 464.035 86.215 464.353 86.215 464.745C86.215 465.137 86.5328 465.455 86.925 465.455H87.355C87.7471 465.455 88.065 465.137 88.065 464.745C88.065 464.353 87.7471 464.035 87.355 464.035H86.925ZM77.713 460.473C77.9902 460.196 78.4398 460.196 78.7171 460.473L79.0171 460.773C79.2943 461.05 79.2943 461.5 79.0171 461.777C78.7398 462.054 78.2902 462.054 78.013 461.777L77.713 461.477C77.4357 461.2 77.4357 460.75 77.713 460.473ZM76.6549 464.045C76.2628 464.045 75.9449 464.363 75.9449 464.755C75.9449 465.147 76.2628 465.465 76.6549 465.465H77.0749C77.4671 465.465 77.7849 465.147 77.7849 464.755C77.7849 464.363 77.4671 464.045 77.0749 464.045H76.6549ZM79.0269 467.733C79.3042 468.01 79.3042 468.46 79.0269 468.737L78.7269 469.037C78.4497 469.314 78.0001 469.314 77.7228 469.037C77.4456 468.76 77.4456 468.31 77.7228 468.033L78.0228 467.733C78.3001 467.456 78.7497 467.456 79.0269 467.733Z" fill="#FF00FF"/>
<path d="M78.3673 448.833C77.9767 448.833 77.7374 448.594 77.7374 448.179V442.358C77.7374 441.948 77.9767 441.704 78.3673 441.704H81.7365C82.0832 441.704 82.3127 441.909 82.3127 442.236C82.3127 442.563 82.0783 442.769 81.7365 442.769H79.1389C79.0606 442.769 78.9972 442.832 78.9972 442.91V444.707C78.9972 444.785 79.0607 444.849 79.1389 444.849H81.4825C81.8145 444.849 82.0343 445.044 82.0343 445.361C82.0343 445.679 81.8146 445.874 81.4825 445.874H79.1389C79.0606 445.874 78.9972 445.937 78.9972 446.016V448.179C78.9972 448.594 78.7628 448.833 78.3673 448.833V448.833Z" fill="#FF00FF"/>
<path d="M85.6425 448.848C85.2763 448.848 85.0224 448.594 85.0224 448.213V443.179C85.0224 443.065 84.8937 442.997 84.7998 443.063L83.8603 443.716C83.7382 443.804 83.6406 443.838 83.5038 443.838C83.2401 443.838 83.0497 443.648 83.0497 443.369C83.0497 443.174 83.1278 443.027 83.3378 442.881L84.7782 441.87C85.0907 441.65 85.286 441.606 85.5497 441.606C85.994 441.606 86.2626 441.875 86.2626 442.31V448.213C86.2626 448.594 86.0087 448.848 85.6425 448.848V448.848Z" fill="#FF00FF"/>
<path fill-rule="evenodd" clip-rule="evenodd" d="M461.707 461.514H462.618C462.924 461.514 463.172 461.762 463.172 462.068V467.432C463.172 467.738 462.924 467.986 462.618 467.986H461.707C461.401 467.986 461.153 467.738 461.153 467.432V462.068C461.153 461.762 461.401 461.514 461.707 461.514ZM465.613 461.514H466.525C466.83 461.514 467.078 461.762 467.078 462.068V467.432C467.078 467.738 466.83 467.986 466.525 467.986H465.613C465.307 467.986 465.06 467.738 465.06 467.432V462.068C465.06 461.762 465.307 461.514 465.613 461.514ZM458.172 465.616C458.838 465.231 458.838 464.269 458.172 463.884L454.422 461.719C453.755 461.334 452.922 461.815 452.922 462.585V466.915C452.922 467.685 453.755 468.166 454.422 467.781L458.172 465.616Z" fill="#FF00FF"/>
<path d="M455.18 448.833C454.789 448.833 454.55 448.594 454.55 448.179V442.358C454.55 441.948 454.789 441.704 455.18 441.704H458.549C458.896 441.704 459.125 441.909 459.125 442.236C459.125 442.563 458.891 442.769 458.549 442.769H455.952C455.873 442.769 455.81 442.832 455.81 442.91V444.707C455.81 444.785 455.873 444.849 455.952 444.849H458.295C458.627 444.849 458.847 445.044 458.847 445.361C458.847 445.679 458.627 445.874 458.295 445.874H455.952C455.873 445.874 455.81 445.937 455.81 446.016V448.179C455.81 448.594 455.576 448.833 455.18 448.833V448.833Z" fill="#FF00FF"/>
<path d="M465.449 446.845C465.449 446.005 464.993 445.534 464.346 445.132C464.263 445.081 464.255 444.963 464.331 444.902C464.851 444.479 465.195 444.131 465.195 443.442C465.195 442.357 464.16 441.562 462.705 441.562C461.249 441.562 460.214 442.357 460.214 443.442C460.214 444.131 460.558 444.479 461.078 444.902C461.154 444.963 461.146 445.081 461.063 445.132C460.416 445.534 459.96 446.005 459.96 446.845C459.96 448.047 461.093 448.892 462.704 448.892C464.316 448.892 465.449 448.047 465.449 446.845H465.449ZM462.705 442.514C463.432 442.514 463.95 442.948 463.95 443.569C463.95 444.189 463.437 444.614 462.705 444.614C461.972 444.614 461.459 444.189 461.459 443.569C461.459 442.948 461.977 442.514 462.705 442.514ZM462.705 447.93C461.86 447.93 461.264 447.436 461.264 446.753C461.264 446.069 461.86 445.576 462.705 445.576C463.549 445.576 464.145 446.069 464.145 446.753C464.145 447.436 463.549 447.93 462.705 447.93Z" fill="#FF00FF"/>
<path fill-rule="evenodd" clip-rule="evenodd" d="M399.608 463.884C398.942 464.269 398.942 465.231 399.608 465.616L403.358 467.781C404.025 468.166 404.858 467.685 404.858 466.915L404.858 462.585C404.858 461.815 404.025 461.334 403.358 461.719L399.608 463.884ZM407.11 463.884C406.443 464.269 406.443 465.231 407.11 465.616L410.86 467.781C411.527 468.166 412.36 467.685 412.36 466.915V462.585C412.36 461.815 411.527 461.334 410.86 461.719L407.11 463.884Z" fill="#FF00FF"/>
<path d="M401.495 448.833C401.104 448.833 400.865 448.594 400.865 448.179V442.358C400.865 441.948 401.104 441.704 401.495 441.704H404.864C405.211 441.704 405.44 441.909 405.44 442.236C405.44 442.563 405.206 442.769 404.864 442.769H402.267C402.188 442.769 402.125 442.832 402.125 442.91V444.707C402.125 444.785 402.188 444.849 402.267 444.849H404.61C404.942 444.849 405.162 445.044 405.162 445.361C405.162 445.679 404.942 445.874 404.61 445.874H402.267C402.188 445.874 402.125 445.937 402.125 446.016V448.179C402.125 448.594 401.891 448.833 401.495 448.833V448.833Z" fill="#FF00FF"/>
<path d="M407.584 448.848C407.232 448.848 407.008 448.633 407.008 448.335C407.008 448.189 407.042 448.081 407.115 447.935L409.757 442.942C409.807 442.848 409.739 442.734 409.632 442.734H406.662C406.378 442.734 406.141 442.508 406.138 442.223C406.135 441.907 406.361 441.704 406.675 441.704H410.377C410.826 441.704 411.133 441.968 411.133 442.412C411.133 442.642 411.06 442.837 410.889 443.169L408.15 448.482C408.013 448.75 407.857 448.848 407.584 448.848L407.584 448.848Z" fill="#FF00FF"/>
<path fill-rule="evenodd" clip-rule="evenodd" d="M358.061 466.69C358.424 467.19 358.421 467.868 358.053 468.366C356.84 470.01 354.884 471.081 352.678 471.081C348.99 471.081 346 468.092 346 464.404C346 462.196 347.074 460.238 348.723 459.025C349.221 458.658 349.899 458.656 350.399 459.02C350.899 459.383 351.107 460.029 350.912 460.615C350.768 461.049 350.69 461.514 350.69 462C350.69 464.426 352.658 466.394 355.086 466.394C355.571 466.394 356.034 466.317 356.466 466.174C357.053 465.98 357.698 466.189 358.061 466.69ZM354.771 469.228C354.878 469.181 354.983 469.131 355.086 469.078C355.677 468.773 356.202 468.36 356.635 467.865C356.725 467.762 356.621 467.611 356.488 467.644C356.039 467.755 355.57 467.814 355.086 467.814C354.887 467.814 354.689 467.804 354.495 467.785C351.752 467.508 349.572 465.326 349.299 462.583C349.28 462.391 349.27 462.197 349.27 462C349.27 461.514 349.33 461.042 349.442 460.591C349.475 460.459 349.324 460.354 349.221 460.444C348.723 460.879 348.307 461.406 348.001 462C347.95 462.099 347.901 462.201 347.856 462.305C347.576 462.948 347.42 463.658 347.42 464.404C347.42 467.307 349.774 469.661 352.678 469.661C353.422 469.661 354.13 469.506 354.771 469.228Z" fill="#FF00FF"/>
<path d="M347.19 448.833C346.799 448.833 346.56 448.594 346.56 448.179V442.358C346.56 441.948 346.799 441.704 347.19 441.704H350.559C350.906 441.704 351.135 441.909 351.135 442.236C351.135 442.563 350.901 442.769 350.559 442.769H347.962C347.883 442.769 347.82 442.832 347.82 442.91V444.707C347.82 444.785 347.883 444.849 347.962 444.849H350.305C350.637 444.849 350.857 445.044 350.857 445.361C350.857 445.679 350.637 445.874 350.305 445.874H347.962C347.883 445.874 347.82 445.937 347.82 446.016V448.179C347.82 448.594 347.586 448.833 347.19 448.833V448.833Z" fill="#FF00FF"/>
<path d="M352.356 447.325C352.097 446.783 351.965 446.109 351.965 445.308C351.965 442.96 353.039 441.559 354.831 441.559C355.905 441.559 356.625 441.974 356.961 442.552C357.039 442.694 357.073 442.816 357.073 442.953C357.073 443.241 356.868 443.461 356.536 443.461C356.287 443.461 356.131 443.343 355.936 443.094C355.633 442.773 355.349 442.584 354.826 442.584C353.649 442.584 353.323 443.815 353.234 444.407C353.217 444.52 353.333 444.605 353.436 444.556C353.773 444.392 354.436 444.122 355.134 444.122C356.491 444.122 357.443 445.098 357.443 446.431C357.443 447.862 356.335 448.892 354.811 448.892C353.713 448.892 352.844 448.355 352.356 447.325H352.356ZM356.203 446.48C356.208 445.669 355.617 445.093 354.807 445.093C353.996 445.093 353.386 445.669 353.386 446.456C353.386 447.242 354.006 447.867 354.792 447.867C355.578 447.867 356.203 447.251 356.203 446.48Z" fill="#FF00FF"/>
<path fill-rule="evenodd" clip-rule="evenodd" d="M298.67 460.72V464.57C298.67 464.937 298.372 465.235 298.005 465.235C297.638 465.235 297.34 464.937 297.34 464.57V460.72C297.34 460.353 297.638 460.055 298.005 460.055C298.372 460.055 298.67 460.353 298.67 460.72ZM295.92 460.72C295.92 459.568 296.853 458.635 298.005 458.635C299.156 458.635 300.09 459.568 300.09 460.72V464.57C300.09 465.722 299.156 466.655 298.005 466.655C296.853 466.655 295.92 465.722 295.92 464.57V460.72ZM300.94 463.475C300.94 463.115 301.22 462.835 301.58 462.835C301.93 462.835 302.21 463.115 302.21 463.475V464.685C302.181 466.793 300.815 468.382 298.763 468.688C298.693 468.699 298.64 468.758 298.64 468.829V469.455C298.64 469.532 298.703 469.595 298.78 469.595H300.5C300.85 469.595 301.14 469.885 301.14 470.235C301.14 470.585 300.86 470.865 300.5 470.865H295.51C295.16 470.865 294.87 470.585 294.87 470.235C294.87 469.885 295.16 469.595 295.51 469.595H297.23C297.307 469.595 297.37 469.532 297.37 469.455V468.829C297.37 468.758 297.317 468.699 297.247 468.688C295.165 468.382 293.79 466.763 293.79 464.605V463.475C293.79 463.115 294.07 462.835 294.43 462.835C294.79 462.835 295.07 463.115 295.07 463.475V464.575C295.07 466.365 296.23 467.525 298.01 467.525C299.79 467.525 300.94 466.365 300.94 464.575V463.475Z" fill="#FF00FF"/>
<path d="M293.25 448.833C292.859 448.833 292.62 448.594 292.62 448.179V442.358C292.62 441.948 292.859 441.704 293.25 441.704H296.619C296.966 441.704 297.195 441.909 297.195 442.236C297.195 442.563 296.961 442.769 296.619 442.769H294.022C293.943 442.769 293.88 442.832 293.88 442.91V444.707C293.88 444.785 293.943 444.849 294.022 444.849H296.365C296.697 444.849 296.917 445.044 296.917 445.361C296.917 445.679 296.697 445.874 296.365 445.874H294.022C293.943 445.874 293.88 445.937 293.88 446.016V448.179C293.88 448.594 293.646 448.833 293.25 448.833V448.833Z" fill="#FF00FF"/>
<path d="M298.366 447.607C298.298 447.456 298.254 447.309 298.254 447.129C298.254 446.801 298.464 446.596 298.796 446.596C299.06 446.596 299.221 446.699 299.353 446.958C299.585 447.513 300.034 447.846 300.682 447.865C301.491 447.889 302.164 447.254 302.166 446.444C302.168 445.631 301.576 445.053 300.745 445.053C300.3 445.053 299.914 445.234 299.646 445.497C299.353 445.79 299.231 445.854 298.943 445.854C298.537 445.854 298.337 445.566 298.347 445.224C298.347 445.195 298.347 445.175 298.352 445.146L298.576 442.484C298.62 441.927 298.903 441.703 299.455 441.703H302.493C302.815 441.703 303.025 441.908 303.025 442.216C303.025 442.523 302.815 442.733 302.493 442.733H299.775C299.702 442.733 299.641 442.789 299.634 442.863L299.513 444.223C299.504 444.328 299.61 444.407 299.708 444.366C299.969 444.259 300.45 444.106 301.072 444.106C302.42 444.106 303.382 445.058 303.382 446.406C303.382 447.881 302.298 448.892 300.735 448.892C299.651 448.892 298.713 448.374 298.366 447.607L298.366 447.607Z" fill="#FF00FF"/>
<path fill-rule="evenodd" clip-rule="evenodd" d="M680.144 459.149C680.454 458.908 680.9 458.964 681.141 459.274C682.314 460.784 683.01 462.677 683.01 464.74C683.01 466.804 682.303 468.706 681.131 470.215C680.89 470.525 680.444 470.581 680.134 470.34C679.825 470.1 679.769 469.654 680.009 469.344C680.997 468.073 681.59 466.475 681.59 464.74C681.59 463.002 681.006 461.415 680.019 460.145C679.779 459.836 679.835 459.389 680.144 459.149ZM679.118 460.579C678.87 460.276 678.422 460.232 678.119 460.481C677.816 460.73 677.772 461.177 678.021 461.48C678.752 462.369 679.19 463.491 679.19 464.74C679.19 465.989 678.751 467.119 678.014 468.006C677.763 468.307 677.804 468.755 678.106 469.005C678.407 469.256 678.855 469.215 679.106 468.914C680.049 467.78 680.61 466.33 680.61 464.74C680.61 463.148 680.048 461.71 679.118 460.579ZM677.064 461.87C676.794 461.586 676.345 461.575 676.06 461.845C675.776 462.116 675.765 462.565 676.036 462.849C676.509 463.346 676.8 464.004 676.8 464.74C676.8 465.476 676.508 466.142 676.03 466.636C675.757 466.918 675.764 467.367 676.046 467.64C676.328 467.912 676.777 467.905 677.05 467.623C677.772 466.877 678.22 465.863 678.22 464.74C678.22 463.615 677.771 462.613 677.064 461.87ZM674.8 461.558C674.8 460.788 673.881 460.426 673.35 460.955L671.673 462.614C671.618 462.668 671.545 462.698 671.469 462.698H670.21C669.529 462.698 669 463.255 669 463.908V465.608C669 466.28 669.538 466.818 670.21 466.818H671.472C671.548 466.818 671.62 466.848 671.675 466.901L673.351 468.544C673.921 469.108 674.8 468.644 674.8 467.938V461.558Z" fill="#FF00FF"/>
<path d="M668.93 448.833C668.539 448.833 668.3 448.594 668.3 448.179V442.358C668.3 441.948 668.539 441.704 668.93 441.704H672.299C672.646 441.704 672.875 441.909 672.875 442.236C672.875 442.563 672.641 442.769 672.299 442.769H669.702C669.623 442.769 669.56 442.832 669.56 442.91V444.707C669.56 444.785 669.623 444.849 669.702 444.849H672.045C672.377 444.849 672.597 445.044 672.597 445.361C672.597 445.679 672.377 445.874 672.045 445.874H669.702C669.623 445.874 669.56 445.937 669.56 446.016V448.179C669.56 448.594 669.326 448.833 668.93 448.833V448.833Z" fill="#FF00FF"/>
<path d="M676.205 448.848C675.839 448.848 675.585 448.594 675.585 448.213V443.179C675.585 443.065 675.456 442.997 675.362 443.063L674.423 443.716C674.301 443.804 674.203 443.838 674.066 443.838C673.803 443.838 673.612 443.648 673.612 443.369C673.612 443.174 673.69 443.027 673.9 442.881L675.341 441.87C675.653 441.65 675.849 441.606 676.112 441.606C676.557 441.606 676.825 441.875 676.825 442.31V448.213C676.825 448.594 676.571 448.848 676.205 448.848V448.848Z" fill="#FF00FF"/>
<path d="M679.262 448.75C678.871 448.75 678.666 448.535 678.666 448.218C678.666 447.974 678.749 447.827 679.017 447.573L681.171 445.44C682.069 444.551 682.294 444.194 682.294 443.657C682.294 443.027 681.811 442.573 681.132 442.573C680.497 442.573 680.053 442.896 679.804 443.53C679.677 443.784 679.53 443.916 679.242 443.916C678.9 443.916 678.695 443.706 678.695 443.393C678.695 443.301 678.71 443.213 678.734 443.13C678.925 442.368 679.769 441.562 681.141 441.562C682.514 441.562 683.524 442.397 683.524 443.579C683.524 444.404 683.129 444.961 681.962 446.104L680.567 447.477C680.477 447.566 680.54 447.72 680.667 447.72H683.158C683.49 447.72 683.695 447.925 683.695 448.237C683.695 448.55 683.49 448.75 683.158 448.75H679.262Z" fill="#FF00FF"/>
<path fill-rule="evenodd" clip-rule="evenodd" d="M622.634 460.753C622.542 460.717 622.442 460.698 622.339 460.698H622.305C622.135 460.698 621.971 460.761 621.845 460.875C621.813 460.899 621.783 460.925 621.753 460.955L620.076 462.614C620.022 462.668 619.949 462.698 619.872 462.698H618.614C618.227 462.698 617.889 462.878 617.67 463.152C617.504 463.355 617.404 463.614 617.404 463.899V463.9C617.404 463.902 617.404 463.905 617.404 463.908V465.608C617.404 466.28 617.942 466.818 618.614 466.818H619.875C619.951 466.818 620.024 466.848 620.078 466.901L621.755 468.544C621.778 468.567 621.802 468.588 621.826 468.608C621.954 468.732 622.126 468.802 622.305 468.802H622.339C622.529 468.802 622.705 468.737 622.846 468.627C623.057 468.473 623.204 468.226 623.204 467.938V461.558C623.204 461.155 622.951 460.863 622.634 460.753ZM624.464 461.845C624.748 461.575 625.198 461.586 625.468 461.87C626.175 462.613 626.624 463.615 626.624 464.739C626.624 465.863 626.176 466.877 625.454 467.623C625.181 467.905 624.732 467.912 624.45 467.64C624.168 467.367 624.161 466.918 624.433 466.636C624.912 466.142 625.204 465.476 625.204 464.739C625.204 464.004 624.913 463.346 624.439 462.849C624.169 462.565 624.18 462.115 624.464 461.845Z" fill="#FF00FF"/>
<path d="M615.935 448.833C615.544 448.833 615.305 448.594 615.305 448.179V442.358C615.305 441.948 615.544 441.704 615.935 441.704H619.304C619.651 441.704 619.88 441.909 619.88 442.236C619.88 442.563 619.646 442.769 619.304 442.769H616.707C616.628 442.769 616.565 442.832 616.565 442.91V444.707C616.565 444.785 616.628 444.849 616.707 444.849H619.05C619.382 444.849 619.602 445.044 619.602 445.361C619.602 445.679 619.382 445.874 619.05 445.874H616.707C616.628 445.874 616.565 445.937 616.565 446.016V448.179C616.565 448.594 616.331 448.833 615.935 448.833V448.833Z" fill="#FF00FF"/>
<path d="M623.21 448.848C622.844 448.848 622.59 448.594 622.59 448.213V443.179C622.59 443.065 622.461 442.997 622.367 443.063L621.428 443.716C621.306 443.804 621.208 443.838 621.071 443.838C620.808 443.838 620.617 443.648 620.617 443.369C620.617 443.174 620.695 443.027 620.905 442.881L622.346 441.87C622.658 441.65 622.854 441.606 623.117 441.606C623.562 441.606 623.83 441.875 623.83 442.31V448.213C623.83 448.594 623.576 448.848 623.21 448.848V448.848Z" fill="#FF00FF"/>
<path d="M628.078 448.848C627.712 448.848 627.458 448.594 627.458 448.213V443.179C627.458 443.065 627.329 442.997 627.235 443.063L626.296 443.716C626.174 443.804 626.076 443.838 625.939 443.838C625.676 443.838 625.485 443.648 625.485 443.369C625.485 443.174 625.563 443.027 625.773 442.881L627.214 441.87C627.526 441.65 627.722 441.606 627.985 441.606C628.43 441.606 628.698 441.875 628.698 442.31V448.213C628.698 448.594 628.444 448.848 628.078 448.848V448.848Z" fill="#FF00FF"/>
<path fill-rule="evenodd" clip-rule="evenodd" d="M570.879 461.518C570.879 461.054 570.499 460.698 570.057 460.698H570.022C569.944 460.698 569.867 460.711 569.795 460.737C569.664 460.774 569.538 460.845 569.428 460.955L567.751 462.614C567.697 462.668 567.624 462.698 567.547 462.698H566.289C565.607 462.698 565.079 463.255 565.079 463.908V465.608C565.079 466.28 565.616 466.818 566.289 466.818H567.55C567.626 466.818 567.699 466.848 567.753 466.901L569.43 468.544C569.546 468.658 569.674 468.731 569.805 468.767C569.875 468.79 569.948 468.802 570.022 468.802H570.057C570.505 468.802 570.879 468.441 570.879 467.981V467.938V461.558V461.518Z" fill="#FF00FF"/>
<path d="M560.72 448.833C560.329 448.833 560.09 448.594 560.09 448.179V442.358C560.09 441.948 560.329 441.704 560.72 441.704H564.089C564.436 441.704 564.665 441.909 564.665 442.236C564.665 442.563 564.431 442.769 564.089 442.769H561.492C561.413 442.769 561.35 442.832 561.35 442.91V444.707C561.35 444.785 561.413 444.849 561.492 444.849H563.835C564.167 444.849 564.387 445.044 564.387 445.361C564.387 445.679 564.167 445.874 563.835 445.874H561.492C561.413 445.874 561.35 445.937 561.35 446.016V448.179C561.35 448.594 561.116 448.833 560.72 448.833V448.833Z" fill="#FF00FF"/>
<path d="M567.995 448.848C567.629 448.848 567.375 448.594 567.375 448.213V443.179C567.375 443.065 567.246 442.997 567.152 443.063L566.213 443.716C566.091 443.804 565.993 443.838 565.856 443.838C565.593 443.838 565.402 443.648 565.402 443.369C565.402 443.174 565.48 443.027 565.69 442.881L567.131 441.87C567.443 441.65 567.639 441.606 567.902 441.606C568.347 441.606 568.615 441.875 568.615 442.31V448.213C568.615 448.594 568.361 448.848 567.995 448.848V448.848Z" fill="#FF00FF"/>
<path d="M573.141 447.861C574.094 447.861 574.636 446.89 574.636 445.22C574.636 443.55 574.084 442.593 573.141 442.593C572.199 442.593 571.638 443.574 571.638 445.215C571.638 446.855 572.184 447.861 573.141 447.861ZM573.141 448.892C571.403 448.892 570.368 447.48 570.368 445.22C570.368 442.959 571.413 441.562 573.141 441.562C574.87 441.562 575.905 442.959 575.905 445.215C575.905 447.471 574.875 448.892 573.141 448.892Z" fill="#FF00FF"/>
<path fill-rule="evenodd" clip-rule="evenodd" d="M520.39 465.616C521.057 465.231 521.057 464.269 520.39 463.884L516.64 461.719C515.973 461.334 515.14 461.815 515.14 462.585L515.14 466.915C515.14 467.685 515.973 468.166 516.64 467.781L520.39 465.616ZM512.888 465.616C513.555 465.231 513.555 464.269 512.888 463.884L509.138 461.719C508.472 461.334 507.638 461.815 507.638 462.585L507.638 466.915C507.638 467.685 508.472 468.166 509.138 467.781L512.888 465.616Z" fill="#FF00FF"/>
<path d="M509.205 448.833C508.814 448.833 508.575 448.594 508.575 448.179V442.358C508.575 441.948 508.814 441.704 509.205 441.704H512.574C512.921 441.704 513.15 441.909 513.15 442.236C513.15 442.563 512.916 442.769 512.574 442.769H509.977C509.898 442.769 509.835 442.832 509.835 442.91V444.707C509.835 444.785 509.898 444.849 509.977 444.849H512.32C512.652 444.849 512.872 445.044 512.872 445.361C512.872 445.679 512.652 445.874 512.32 445.874H509.977C509.898 445.874 509.835 445.937 509.835 446.016V448.179C509.835 448.594 509.601 448.833 509.205 448.833V448.833Z" fill="#FF00FF"/>
<path d="M519.034 443.125C519.293 443.667 519.424 444.341 519.424 445.141C519.424 447.49 518.35 448.891 516.559 448.891C515.484 448.891 514.765 448.475 514.429 447.897C514.35 447.755 514.316 447.633 514.316 447.497C514.316 447.209 514.521 446.989 514.853 446.989C515.102 446.989 515.259 447.106 515.454 447.355C515.756 447.677 516.041 447.866 516.563 447.866C517.741 447.866 518.067 446.634 518.156 446.042C518.173 445.93 518.056 445.844 517.954 445.894C517.616 446.058 516.953 446.328 516.256 446.328C514.899 446.328 513.947 445.351 513.947 444.018C513.947 442.588 515.055 441.558 516.578 441.558C517.677 441.558 518.546 442.095 519.034 443.125H519.034ZM515.187 443.969C515.182 444.78 515.772 445.356 516.583 445.356C517.393 445.356 518.004 444.78 518.004 443.994C518.004 443.208 517.384 442.583 516.598 442.583C515.812 442.583 515.187 443.198 515.187 443.969Z" fill="#FF00FF"/>
<path d="M614.726 775.648C612.67 775.648 611.381 777.05 611.381 779.291C611.381 781.532 612.67 782.929 614.726 782.929C616.781 782.929 618.066 781.532 618.066 779.291C618.066 777.05 616.776 775.648 614.726 775.648ZM614.726 781.855C613.466 781.855 612.67 780.858 612.67 779.291C612.67 777.724 613.466 776.723 614.726 776.723C615.985 776.723 616.781 777.719 616.781 779.291C616.781 780.863 615.981 781.855 614.726 781.855Z" fill="#FF00FF"/>
<path d="M629.315 777.533C628.944 777.533 628.709 777.782 628.709 778.173V782.27C628.709 782.665 628.944 782.909 629.315 782.909C629.686 782.909 629.925 782.665 629.925 782.27V778.178C629.925 777.782 629.686 777.533 629.315 777.533V777.533ZM629.315 776.908C629.696 776.908 629.994 776.615 629.994 776.249C629.994 775.883 629.696 775.59 629.315 775.59C628.934 775.59 628.641 775.878 628.641 776.249C628.641 776.62 628.939 776.908 629.315 776.908Z" fill="#FF00FF"/>
<path d="M636.921 782.269V778.147C636.921 777.771 637.14 777.532 637.502 777.532C637.709 777.532 637.878 777.612 637.983 777.753C638.009 777.787 638.031 777.826 638.048 777.863C638.083 777.933 638.167 777.963 638.238 777.929C638.504 777.8 639.123 777.537 639.739 777.537C640.882 777.537 641.531 778.269 641.531 779.466V782.269C641.531 782.68 641.282 782.909 640.926 782.909C640.569 782.909 640.315 782.68 640.315 782.269V779.71C640.315 778.978 639.973 778.567 639.28 778.567C638.586 778.567 638.137 779.07 638.137 779.813V782.269C638.137 782.68 637.883 782.909 637.526 782.909C637.17 782.909 636.921 782.68 636.921 782.269Z" fill="#FF00FF"/>
<path d="M633.436 777.528C631.927 777.528 630.931 778.554 630.931 780.224C630.931 781.894 631.917 782.914 633.436 782.914C634.954 782.914 635.941 781.903 635.941 780.224C635.941 778.544 634.945 777.528 633.436 777.528ZM633.436 781.952C632.664 781.952 632.166 781.327 632.166 780.224C632.166 779.12 632.669 778.495 633.436 778.495C634.202 778.495 634.705 779.125 634.705 780.224C634.705 781.322 634.207 781.952 633.436 781.952Z" fill="#FF00FF"/>
<path d="M621.619 781.898C620.862 781.898 620.359 781.238 620.354 780.223C620.359 779.217 620.833 778.548 621.619 778.548C622.406 778.548 622.894 779.202 622.894 780.223C622.894 781.248 622.376 781.898 621.619 781.898ZM624.139 780.223C624.139 778.567 623.304 777.546 621.99 777.546C621.504 777.546 620.734 777.79 620.433 777.892C620.366 777.915 620.291 777.886 620.259 777.822C620.251 777.805 620.243 777.789 620.233 777.774C620.113 777.604 619.938 777.532 619.739 777.532C619.392 777.532 619.148 777.756 619.148 778.157V784.013C619.148 784.423 619.397 784.652 619.754 784.652C620.11 784.652 620.364 784.423 620.364 784.013V782.654C620.364 782.552 620.47 782.483 620.564 782.525C620.926 782.688 621.528 782.894 622.01 782.894C623.309 782.894 624.139 781.873 624.139 780.223L624.139 780.223Z" fill="#FF00FF"/>
<path d="M625.458 781.532V778.716C625.458 778.637 625.394 778.574 625.316 778.574H625.13C624.828 778.574 624.642 778.403 624.642 778.11C624.642 777.817 624.828 777.651 625.13 777.651H625.316C625.394 777.651 625.458 777.588 625.458 777.509V776.946C625.458 776.556 625.692 776.312 626.068 776.312C626.444 776.312 626.674 776.556 626.674 776.946V777.509C626.674 777.588 626.737 777.651 626.815 777.651H627.235C627.538 777.651 627.724 777.822 627.724 778.11C627.724 778.398 627.538 778.574 627.235 778.574H626.815C626.737 778.574 626.674 778.638 626.674 778.716V781.268C626.674 781.659 626.81 781.83 627.162 781.859L627.25 781.869C627.572 781.898 627.738 782.035 627.738 782.318C627.738 782.675 627.426 782.865 626.869 782.865H626.82C625.917 782.865 625.458 782.416 625.458 781.532H625.458L625.458 781.532Z" fill="#FF00FF"/>
<path d="M695.298 782.867C693.262 782.867 692.007 781.485 692.007 779.225C692.007 776.964 693.282 775.587 695.274 775.587C696.577 775.587 697.608 776.197 698.072 777.228C698.15 777.389 698.189 777.555 698.189 777.701C698.189 778.038 697.969 778.253 697.632 778.253C697.344 778.253 697.154 778.116 697.017 777.809C696.69 777.052 696.05 776.656 695.284 776.656C694.073 776.656 693.296 777.652 693.296 779.225C693.296 780.797 694.068 781.798 695.289 781.798C696.094 781.798 696.714 781.446 697.037 780.704C697.164 780.416 697.325 780.299 697.598 780.299C697.945 780.299 698.184 780.528 698.184 780.86C698.184 781.021 698.145 781.168 698.067 781.334C697.618 782.291 696.617 782.867 695.298 782.867L695.298 782.867Z" fill="#FF00FF"/>
<path d="M710.278 778.482C711.035 778.482 711.538 779.141 711.543 780.157C711.538 781.163 711.064 781.832 710.278 781.832C709.492 781.832 709.003 781.178 709.003 780.157C709.003 779.131 709.521 778.482 710.278 778.482ZM707.758 780.157C707.758 781.813 708.593 782.833 709.907 782.833C710.393 782.833 711.163 782.589 711.464 782.487C711.531 782.464 711.606 782.494 711.638 782.558C711.646 782.574 711.654 782.591 711.664 782.605C711.784 782.776 711.959 782.848 712.158 782.848C712.505 782.848 712.749 782.623 712.749 782.223V776.245C712.749 775.835 712.5 775.605 712.143 775.605C711.787 775.605 711.533 775.835 711.533 776.245V777.725C711.533 777.828 711.427 777.897 711.333 777.855C710.971 777.692 710.369 777.486 709.887 777.486C708.588 777.486 707.758 778.506 707.758 780.157V780.157Z" fill="#FF00FF"/>
<path d="M699.355 782.208V778.091C699.355 777.695 699.595 777.471 699.937 777.471C700.091 777.471 700.224 777.517 700.326 777.602C700.387 777.653 700.431 777.723 700.461 777.783C700.495 777.85 700.576 777.878 700.645 777.847C700.914 777.728 701.539 777.476 702.022 777.476C702.635 777.476 703.204 777.798 703.398 777.92C703.441 777.948 703.496 777.949 703.541 777.925C703.758 777.806 704.421 777.476 705.109 777.476C706.129 777.476 706.798 778.164 706.798 779.2V782.208C706.798 782.613 706.554 782.848 706.193 782.848C705.832 782.848 705.582 782.613 705.582 782.208V779.498C705.582 778.863 705.25 778.501 704.654 778.501C704.059 778.501 703.668 778.931 703.668 779.551V782.208C703.668 782.613 703.438 782.848 703.077 782.848C702.716 782.848 702.486 782.613 702.486 782.208V779.434C702.486 778.858 702.134 778.501 701.568 778.501C701.001 778.501 700.572 778.955 700.572 779.581V782.208C700.572 782.613 700.322 782.848 699.961 782.848C699.6 782.848 699.355 782.613 699.355 782.208Z" fill="#FF00FF"/>
<path d="M155.726 775.648C153.67 775.648 152.381 777.05 152.381 779.291C152.381 781.532 153.67 782.929 155.726 782.929C157.781 782.929 159.066 781.532 159.066 779.291C159.066 777.05 157.776 775.648 155.726 775.648ZM155.726 781.855C154.466 781.855 153.67 780.858 153.67 779.291C153.67 777.724 154.466 776.723 155.726 776.723C156.985 776.723 157.781 777.719 157.781 779.291C157.781 780.863 156.981 781.855 155.726 781.855Z" fill="#FF00FF"/>
<path d="M170.315 777.533C169.944 777.533 169.709 777.782 169.709 778.173V782.27C169.709 782.665 169.944 782.909 170.315 782.909C170.686 782.909 170.925 782.665 170.925 782.27V778.178C170.925 777.782 170.686 777.533 170.315 777.533V777.533ZM170.315 776.908C170.696 776.908 170.994 776.615 170.994 776.249C170.994 775.883 170.696 775.59 170.315 775.59C169.934 775.59 169.641 775.878 169.641 776.249C169.641 776.62 169.939 776.908 170.315 776.908Z" fill="#FF00FF"/>
<path d="M177.921 782.269V778.147C177.921 777.771 178.14 777.532 178.502 777.532C178.709 777.532 178.878 777.612 178.983 777.753C179.009 777.787 179.031 777.826 179.048 777.863C179.083 777.933 179.167 777.963 179.238 777.929C179.504 777.8 180.123 777.537 180.739 777.537C181.882 777.537 182.531 778.269 182.531 779.466V782.269C182.531 782.68 182.282 782.909 181.926 782.909C181.569 782.909 181.315 782.68 181.315 782.269V779.71C181.315 778.978 180.973 778.567 180.28 778.567C179.586 778.567 179.137 779.07 179.137 779.813V782.269C179.137 782.68 178.883 782.909 178.526 782.909C178.17 782.909 177.921 782.68 177.921 782.269Z" fill="#FF00FF"/>
<path d="M174.436 777.528C172.927 777.528 171.931 778.554 171.931 780.224C171.931 781.894 172.917 782.914 174.436 782.914C175.954 782.914 176.941 781.903 176.941 780.224C176.941 778.544 175.945 777.528 174.436 777.528ZM174.436 781.952C173.664 781.952 173.166 781.327 173.166 780.224C173.166 779.12 173.669 778.495 174.436 778.495C175.202 778.495 175.705 779.125 175.705 780.224C175.705 781.322 175.207 781.952 174.436 781.952Z" fill="#FF00FF"/>
<path d="M162.619 781.898C161.862 781.898 161.359 781.238 161.354 780.223C161.359 779.217 161.833 778.548 162.619 778.548C163.406 778.548 163.894 779.202 163.894 780.223C163.894 781.248 163.376 781.898 162.619 781.898ZM165.139 780.223C165.139 778.567 164.304 777.546 162.99 777.546C162.504 777.546 161.734 777.79 161.433 777.892C161.366 777.915 161.291 777.886 161.259 777.822C161.251 777.805 161.243 777.789 161.233 777.774C161.113 777.604 160.938 777.532 160.739 777.532C160.392 777.532 160.148 777.756 160.148 778.157V784.013C160.148 784.423 160.397 784.652 160.754 784.652C161.11 784.652 161.364 784.423 161.364 784.013V782.654C161.364 782.552 161.47 782.483 161.564 782.525C161.926 782.688 162.528 782.894 163.01 782.894C164.309 782.894 165.139 781.873 165.139 780.223L165.139 780.223Z" fill="#FF00FF"/>
<path d="M166.458 781.532V778.716C166.458 778.637 166.394 778.574 166.316 778.574H166.13C165.828 778.574 165.642 778.403 165.642 778.11C165.642 777.817 165.828 777.651 166.13 777.651H166.316C166.394 777.651 166.458 777.588 166.458 777.509V776.946C166.458 776.556 166.692 776.312 167.068 776.312C167.444 776.312 167.674 776.556 167.674 776.946V777.509C167.674 777.588 167.737 777.651 167.815 777.651H168.235C168.538 777.651 168.724 777.822 168.724 778.11C168.724 778.398 168.538 778.574 168.235 778.574H167.815C167.737 778.574 167.674 778.638 167.674 778.716V781.268C167.674 781.659 167.81 781.83 168.162 781.859L168.25 781.869C168.572 781.898 168.738 782.035 168.738 782.318C168.738 782.675 168.426 782.865 167.869 782.865H167.82C166.917 782.865 166.458 782.416 166.458 781.532H166.458L166.458 781.532Z" fill="#FF00FF"/>
<path d="M101.298 782.867C99.262 782.867 98.0071 781.485 98.0071 779.225C98.0071 776.964 99.2816 775.587 101.274 775.587C102.577 775.587 103.608 776.197 104.072 777.228C104.15 777.389 104.189 777.555 104.189 777.701C104.189 778.038 103.969 778.253 103.632 778.253C103.344 778.253 103.154 778.116 103.017 777.809C102.69 777.052 102.05 776.656 101.284 776.656C100.073 776.656 99.2964 777.652 99.2964 779.225C99.2964 780.797 100.068 781.798 101.289 781.798C102.094 781.798 102.714 781.446 103.037 780.704C103.164 780.416 103.325 780.299 103.598 780.299C103.945 780.299 104.184 780.528 104.184 780.86C104.184 781.021 104.145 781.168 104.067 781.334C103.618 782.291 102.617 782.867 101.298 782.867L101.298 782.867Z" fill="#FF00FF"/>
<path d="M116.278 778.482C117.035 778.482 117.538 779.141 117.543 780.157C117.538 781.163 117.064 781.832 116.278 781.832C115.492 781.832 115.003 781.178 115.003 780.157C115.003 779.131 115.521 778.482 116.278 778.482ZM113.758 780.157C113.758 781.813 114.593 782.833 115.907 782.833C116.393 782.833 117.163 782.589 117.464 782.487C117.531 782.464 117.606 782.494 117.638 782.558C117.646 782.574 117.654 782.591 117.664 782.605C117.784 782.776 117.959 782.848 118.158 782.848C118.505 782.848 118.749 782.623 118.749 782.223V776.245C118.749 775.835 118.5 775.605 118.143 775.605C117.787 775.605 117.533 775.835 117.533 776.245V777.725C117.533 777.828 117.427 777.897 117.333 777.855C116.971 777.692 116.369 777.486 115.887 777.486C114.588 777.486 113.758 778.506 113.758 780.157V780.157Z" fill="#FF00FF"/>
<path d="M105.355 782.208V778.091C105.355 777.695 105.595 777.471 105.937 777.471C106.091 777.471 106.224 777.517 106.326 777.602C106.387 777.653 106.431 777.723 106.461 777.783C106.495 777.85 106.576 777.878 106.645 777.847C106.914 777.728 107.539 777.476 108.022 777.476C108.635 777.476 109.204 777.798 109.398 777.92C109.441 777.948 109.496 777.949 109.541 777.925C109.758 777.806 110.421 777.476 111.109 777.476C112.129 777.476 112.798 778.164 112.798 779.2V782.208C112.798 782.613 112.554 782.848 112.193 782.848C111.832 782.848 111.582 782.613 111.582 782.208V779.498C111.582 778.863 111.25 778.501 110.654 778.501C110.059 778.501 109.668 778.931 109.668 779.551V782.208C109.668 782.613 109.438 782.848 109.077 782.848C108.716 782.848 108.486 782.613 108.486 782.208V779.434C108.486 778.858 108.134 778.501 107.568 778.501C107.001 778.501 106.572 778.955 106.572 779.581V782.208C106.572 782.613 106.322 782.848 105.961 782.848C105.6 782.848 105.355 782.613 105.355 782.208Z" fill="#FF00FF"/>
<path d="M20.6759 339.761C20.6759 340.195 20.4031 340.468 19.9752 340.468C19.5411 340.468 19.2745 340.195 19.2745 339.761V338.921C19.2745 338.844 19.2118 338.781 19.1345 338.781H17.5691C17.1599 338.781 16.8746 338.521 16.8746 338.143C16.8746 337.764 17.1599 337.504 17.5691 337.504H19.1345C19.2118 337.504 19.2745 337.441 19.2745 337.364V336.574C19.2745 336.14 19.5411 335.867 19.969 335.867C20.4031 335.867 20.6759 336.14 20.6759 336.574V337.364C20.6759 337.441 20.7386 337.504 20.8159 337.504H22.4371C22.8525 337.504 23.1316 337.764 23.1316 338.143C23.1316 338.521 22.8525 338.781 22.4371 338.781H20.8159C20.7386 338.781 20.6759 338.844 20.6759 338.921V339.761ZM16.8746 341.659C16.8746 341.268 17.1227 341.02 17.5877 341.02H22.4371C22.9021 341.02 23.1502 341.268 23.1502 341.659C23.1502 342.043 22.9021 342.297 22.4371 342.297H17.5877C17.1227 342.297 16.8746 342.043 16.8746 341.659Z" fill="#FF00FF"/>
<path d="M19.9573 361.144C20.6273 361.144 21.0273 360.804 21.0273 360.304C21.0273 359.754 20.4873 359.574 19.3873 359.264C18.1873 358.924 17.4673 358.434 17.4673 357.424C17.4673 356.714 17.8273 356.254 18.3373 355.934C18.4273 355.884 18.4173 355.754 18.3373 355.694C17.8173 355.334 17.5273 354.854 17.5273 354.184C17.5273 352.924 18.6273 352.124 20.0373 352.124C20.6673 352.124 21.2773 352.294 21.7273 352.594C22.1273 352.844 22.3773 353.184 22.3673 353.534C22.3573 353.884 22.0573 354.114 21.7273 354.094C21.5273 354.074 21.3773 353.984 21.1373 353.764C20.7673 353.434 20.4673 353.274 20.0373 353.274C19.4073 353.274 19.0073 353.624 19.0073 354.104C19.0073 354.654 19.5873 354.864 20.6173 355.154C21.8973 355.504 22.5673 355.944 22.5673 356.974C22.5673 357.664 22.2373 358.174 21.7473 358.554C21.6673 358.614 21.6773 358.734 21.7473 358.784C22.2673 359.144 22.5173 359.554 22.5173 360.184C22.5173 361.514 21.3673 362.314 19.9573 362.314C19.4273 362.314 18.8673 362.194 18.4473 361.974C17.9073 361.714 17.5473 361.304 17.5473 360.884C17.5473 360.534 17.8473 360.284 18.1873 360.304C18.3873 360.314 18.5273 360.404 18.7673 360.634C19.0973 360.974 19.4673 361.154 19.9473 361.154L19.9573 361.144ZM20.0173 358.164C20.0173 358.164 20.2573 358.224 20.3873 358.254C20.4573 358.274 20.5373 358.254 20.5973 358.224C20.8973 358.044 21.1173 357.674 21.1173 357.284C21.1173 356.754 20.7373 356.454 19.9873 356.294C19.9573 356.294 19.7773 356.254 19.6673 356.224C19.6073 356.214 19.5473 356.224 19.4973 356.244C19.1673 356.404 18.9073 356.824 18.9073 357.204C18.9073 357.704 19.2673 357.994 20.0173 358.174V358.164Z" fill="#FF00FF"/>
<path d="M331.172 134.87C329.136 134.87 327.881 133.488 327.881 131.228C327.881 128.967 329.155 127.59 331.148 127.59C332.451 127.59 333.482 128.2 333.945 129.231C334.024 129.392 334.063 129.558 334.063 129.704C334.063 130.041 333.843 130.256 333.506 130.256C333.218 130.256 333.028 130.119 332.891 129.812C332.564 129.055 331.924 128.659 331.157 128.659C329.946 128.659 329.17 129.655 329.17 131.228C329.17 132.8 329.942 133.801 331.162 133.801C331.968 133.801 332.588 133.449 332.91 132.707C333.037 132.419 333.199 132.302 333.472 132.302C333.819 132.302 334.058 132.531 334.058 132.863C334.058 133.025 334.019 133.171 333.941 133.337C333.491 134.294 332.49 134.87 331.172 134.87L331.172 134.87Z" fill="#FF00FF"/>
<path d="M361.371 132.835C361.371 133.46 360.815 133.919 360.131 133.919C359.604 133.919 359.248 133.65 359.248 133.225C359.248 132.801 359.585 132.552 360.17 132.513L361.319 132.443C361.347 132.441 361.371 132.463 361.371 132.492V132.835L361.371 132.835ZM360.454 129.471C359.462 129.471 358.891 129.811 358.599 130.138C358.429 130.328 358.408 130.728 358.64 130.913C358.911 131.13 359.366 130.968 359.522 130.776C359.662 130.603 359.977 130.428 360.405 130.423C361.005 130.415 361.371 130.735 361.371 131.277V131.48C361.371 131.506 361.351 131.528 361.324 131.529L359.999 131.605C358.74 131.683 358.032 132.356 358.032 133.274C358.032 134.192 358.762 134.836 359.76 134.836C360.392 134.836 361.008 134.671 361.314 134.546C361.379 134.52 361.452 134.544 361.489 134.604C361.491 134.608 361.494 134.612 361.496 134.615C361.577 134.731 361.724 134.851 361.982 134.851C362.323 134.851 362.572 134.631 362.572 134.241V131.189C362.572 130.149 361.738 129.471 360.454 129.471Z" fill="#FF00FF"/>
<path d="M371.844 130.485C372.601 130.485 373.104 131.144 373.109 132.16C373.104 133.166 372.63 133.835 371.844 133.835C371.058 133.835 370.57 133.181 370.57 132.16C370.57 131.134 371.087 130.485 371.844 130.485ZM369.324 132.16C369.324 133.816 370.159 134.836 371.473 134.836C371.959 134.836 372.729 134.592 373.03 134.49C373.098 134.467 373.172 134.497 373.204 134.561C373.212 134.577 373.22 134.594 373.231 134.608C373.35 134.779 373.526 134.851 373.725 134.851C374.071 134.851 374.315 134.626 374.315 134.226V128.248C374.315 127.838 374.066 127.608 373.71 127.608C373.353 127.608 373.099 127.838 373.099 128.248V129.728C373.099 129.831 372.993 129.9 372.9 129.858C372.538 129.695 371.935 129.489 371.453 129.489C370.154 129.489 369.324 130.509 369.324 132.16V132.16Z" fill="#FF00FF"/>
<path d="M341.005 134.211V130.094C341.005 129.699 341.245 129.474 341.587 129.474C341.741 129.474 341.874 129.52 341.976 129.606C342.036 129.657 342.081 129.726 342.111 129.786C342.145 129.853 342.226 129.881 342.295 129.85C342.564 129.731 343.189 129.479 343.672 129.479C344.285 129.479 344.854 129.801 345.048 129.923C345.091 129.951 345.146 129.952 345.191 129.928C345.407 129.809 346.071 129.479 346.759 129.479C347.779 129.479 348.448 130.167 348.448 131.203V134.211C348.448 134.617 348.204 134.851 347.843 134.851C347.481 134.851 347.232 134.617 347.232 134.211V131.501C347.232 130.866 346.9 130.504 346.304 130.504C345.708 130.504 345.318 130.934 345.318 131.554V134.211C345.318 134.617 345.088 134.851 344.727 134.851C344.365 134.851 344.136 134.617 344.136 134.211V131.437C344.136 130.861 343.784 130.504 343.218 130.504C342.651 130.504 342.221 130.959 342.221 131.584V134.211C342.221 134.617 341.972 134.851 341.611 134.851C341.25 134.851 341.005 134.617 341.005 134.211Z" fill="#FF00FF"/>
<path d="M349.624 134.211V130.094C349.624 129.699 349.863 129.474 350.205 129.474C350.359 129.474 350.492 129.52 350.594 129.606C350.655 129.657 350.699 129.726 350.729 129.786C350.763 129.853 350.844 129.881 350.913 129.85C351.182 129.731 351.807 129.479 352.29 129.479C352.903 129.479 353.472 129.801 353.666 129.923C353.709 129.951 353.764 129.952 353.809 129.928C354.026 129.809 354.689 129.479 355.377 129.479C356.397 129.479 357.067 130.167 357.067 131.203V134.211C357.067 134.617 356.822 134.851 356.461 134.851C356.1 134.851 355.85 134.617 355.85 134.211V131.501C355.85 130.866 355.518 130.504 354.923 130.504C354.327 130.504 353.936 130.934 353.936 131.554V134.211C353.936 134.617 353.706 134.851 353.345 134.851C352.984 134.851 352.754 134.617 352.754 134.211V131.437C352.754 130.861 352.402 130.504 351.836 130.504C351.269 130.504 350.84 130.959 350.84 131.584V134.211C350.84 134.617 350.59 134.851 350.229 134.851C349.868 134.851 349.624 134.617 349.624 134.211Z" fill="#FF00FF"/>
<path d="M363.753 134.211V130.089C363.753 129.713 363.972 129.474 364.334 129.474C364.541 129.474 364.71 129.554 364.815 129.695C364.841 129.729 364.863 129.768 364.88 129.805C364.915 129.875 364.999 129.905 365.07 129.871C365.336 129.742 365.955 129.479 366.571 129.479C367.714 129.479 368.363 130.211 368.363 131.408V134.211C368.363 134.622 368.114 134.851 367.758 134.851C367.401 134.851 367.147 134.621 367.147 134.211V131.652C367.147 130.919 366.805 130.509 366.112 130.509C365.418 130.509 364.969 131.012 364.969 131.755V134.211C364.969 134.622 364.715 134.851 364.358 134.851C364.002 134.851 363.753 134.621 363.753 134.211Z" fill="#FF00FF"/>
<path d="M337.519 129.47C336.011 129.47 335.014 130.495 335.014 132.165C335.014 133.835 336.001 134.856 337.519 134.856C339.038 134.856 340.024 133.845 340.024 132.165C340.024 130.486 339.028 129.47 337.519 129.47ZM337.519 133.894C336.748 133.894 336.25 133.269 336.25 132.165C336.25 131.062 336.753 130.437 337.519 130.437C338.286 130.437 338.789 131.067 338.789 132.165C338.789 133.264 338.291 133.894 337.519 133.894Z" fill="#FF00FF"/>
<path d="M547.226 73.5869C545.17 73.5869 543.881 74.9883 543.881 77.2295C543.881 79.4707 545.17 80.8672 547.226 80.8672C549.281 80.8672 550.566 79.4707 550.566 77.2295C550.566 74.9883 549.276 73.5869 547.226 73.5869ZM547.226 79.793C545.966 79.793 545.17 78.7969 545.17 77.2295C545.17 75.6621 545.966 74.6611 547.226 74.6611C548.485 74.6611 549.281 75.6572 549.281 77.2295C549.281 78.8018 548.481 79.793 547.226 79.793Z" fill="#FF00FF"/>
<path d="M554.119 79.8362C553.362 79.8362 552.859 79.1769 552.854 78.1611C552.859 77.1551 553.333 76.486 554.119 76.486C554.906 76.486 555.394 77.1404 555.394 78.1611C555.394 79.1867 554.876 79.8362 554.119 79.8362ZM556.639 78.161C556.639 76.5054 555.804 75.4848 554.49 75.4848C554.004 75.4848 553.234 75.7288 552.933 75.8308C552.866 75.8537 552.791 75.824 552.759 75.76C552.751 75.7437 552.743 75.7275 552.733 75.7127C552.613 75.5422 552.438 75.4702 552.239 75.4702C551.892 75.4702 551.648 75.6948 551.648 76.0953V81.951C551.648 82.3613 551.897 82.5908 552.254 82.5908C552.61 82.5908 552.864 82.3613 552.864 81.951V80.5928C552.864 80.4901 552.97 80.4212 553.064 80.4634C553.426 80.6263 554.028 80.8325 554.51 80.8325C555.809 80.8325 556.639 79.8118 556.639 78.1611L556.639 78.161Z" fill="#FF00FF"/>
<path d="M557.958 79.4705V76.6542C557.958 76.5759 557.894 76.5125 557.816 76.5125H557.63C557.328 76.5125 557.142 76.3416 557.142 76.0486C557.142 75.7556 557.328 75.5896 557.63 75.5896H557.816C557.894 75.5896 557.958 75.5261 557.958 75.4479V74.8849C557.958 74.4942 558.192 74.25 558.568 74.25C558.944 74.25 559.174 74.4941 559.174 74.8849V75.4479C559.174 75.5262 559.237 75.5896 559.315 75.5896H559.735C560.038 75.5896 560.224 75.7604 560.224 76.0486C560.224 76.3368 560.038 76.5125 559.735 76.5125H559.315C559.237 76.5125 559.174 76.576 559.174 76.6542V79.2068C559.174 79.5975 559.31 79.7684 559.662 79.7977L559.75 79.8075C560.072 79.8368 560.238 79.9735 560.238 80.2568C560.238 80.6132 559.926 80.8038 559.369 80.8038H559.32C558.417 80.8038 557.958 80.3545 557.958 79.4706H557.958L557.958 79.4705Z" fill="#FF00FF"/>
<rect x="743.5" y="703" width="67.5" height="54" stroke="#00FFFF"/>
<rect x="676" y="703" width="67.5" height="54" stroke="#00FFFF"/>
<rect x="608.5" y="703" width="67.5" height="54" stroke="#00FFFF"/>
<rect x="541" y="703" width="67.5" height="54" stroke="#00FFFF"/>
<rect x="136" y="703" width="67.5" height="54" stroke="#00FFFF"/>
<rect x="68.5" y="703" width="67.5" height="54" stroke="#00FFFF"/>
<rect x="1" y="703" width="67.5" height="54" stroke="#00FFFF"/>
<rect x="662.5" y="649" width="148.5" height="54" stroke="#00FFFF"/>
<rect x="1" y="649" width="121.5" height="54" stroke="#00FFFF"/>
<rect x="689.5" y="595" width="121.5" height="54" stroke="#00FFFF"/>
<rect x="1" y="595" width="94.5" height="54" stroke="#00FFFF"/>
<rect x="1" y="541" width="81" height="54" stroke="#00FFFF"/>
<rect x="703" y="487" width="108" height="54" stroke="#00FFFF"/>
<rect x="608.5" y="649" width="54" height="54" stroke="#00FFFF"/>
<rect x="554.5" y="649" width="54" height="54" stroke="#00FFFF"/>
<rect x="500.5" y="649" width="54" height="54" stroke="#00FFFF"/>
<rect x="446.5" y="649" width="54" height="54" stroke="#00FFFF"/>
<rect x="392.5" y="649" width="54" height="54" stroke="#00FFFF"/>
<rect x="338.5" y="649" width="54" height="54" stroke="#00FFFF"/>
<rect x="284.5" y="649" width="54" height="54" stroke="#00FFFF"/>
<rect x="230.5" y="649" width="54" height="54" stroke="#00FFFF"/>
<rect x="176.5" y="649" width="54" height="54" stroke="#00FFFF"/>
<rect x="122.5" y="649" width="54" height="54" stroke="#00FFFF"/>
<rect x="635.5" y="595" width="54" height="54" stroke="#00FFFF"/>
<rect x="581.5" y="595" width="54" height="54" stroke="#00FFFF"/>
<rect x="527.5" y="595" width="54" height="54" stroke="#00FFFF"/>
<rect x="473.5" y="595" width="54" height="54" stroke="#00FFFF"/>
<rect x="419.5" y="595" width="54" height="54" stroke="#00FFFF"/>
<rect x="365.5" y="595" width="54" height="54" stroke="#00FFFF"/>
<rect x="311.5" y="595" width="54" height="54" stroke="#00FFFF"/>
<rect x="257.5" y="595" width="54" height="54" stroke="#00FFFF"/>
<rect x="203.5" y="595" width="54" height="54" stroke="#00FFFF"/>
<rect x="149.5" y="595" width="54" height="54" stroke="#00FFFF"/>
<rect x="95.5" y="595" width="54" height="54" stroke="#00FFFF"/>
<rect x="730" y="541" width="81" height="54" stroke="#00FFFF"/>
<rect x="676" y="541" width="54" height="54" stroke="#00FFFF"/>
<rect x="622" y="541" width="54" height="54" stroke="#00FFFF"/>
<rect x="568" y="541" width="54" height="54" stroke="#00FFFF"/>
<rect x="514" y="541" width="54" height="54" stroke="#00FFFF"/>
<rect x="460" y="541" width="54" height="54" stroke="#00FFFF"/>
<rect x="406" y="541" width="54" height="54" stroke="#00FFFF"/>
<rect x="352" y="541" width="54" height="54" stroke="#00FFFF"/>
<rect x="298" y="541" width="54" height="54" stroke="#00FFFF"/>
<rect x="244" y="541" width="54" height="54" stroke="#00FFFF"/>
<rect x="190" y="541" width="54" height="54" stroke="#00FFFF"/>
<rect x="136" y="541" width="54" height="54" stroke="#00FFFF"/>
<rect x="82" y="541" width="54" height="54" stroke="#00FFFF"/>
<rect x="55" y="487" width="54" height="54" stroke="#00FFFF"/>
<rect x="109" y="487" width="54" height="54" stroke="#00FFFF"/>
<rect x="163" y="487" width="54" height="54" stroke="#00FFFF"/>
<rect x="217" y="487" width="54" height="54" stroke="#00FFFF"/>
<rect x="271" y="487" width="54" height="54" stroke="#00FFFF"/>
<rect x="325" y="487" width="54" height="54" stroke="#00FFFF"/>
<rect x="379" y="487" width="54" height="54" stroke="#00FFFF"/>
<rect x="433" y="487" width="54" height="54" stroke="#00FFFF"/>
<rect x="487" y="487" width="54" height="54" stroke="#00FFFF"/>
<rect x="541" y="487" width="54" height="54" stroke="#00FFFF"/>
<rect x="595" y="487" width="54" height="54" stroke="#00FFFF"/>
<rect x="649" y="487" width="54" height="54" stroke="#00FFFF"/>
<rect x="1" y="487" width="54" height="54" stroke="#00FFFF"/>
<rect x="217" y="433" width="54" height="54" stroke="#00FFFF"/>
<rect x="163" y="433" width="54" height="54" stroke="#00FFFF"/>
<rect x="109" y="433" width="54" height="54" stroke="#00FFFF"/>
<rect x="55" y="433" width="54" height="54" stroke="#00FFFF"/>
<rect x="433" y="433" width="54" height="54" stroke="#00FFFF"/>
<rect x="379" y="433" width="54" height="54" stroke="#00FFFF"/>
<rect x="325" y="433" width="54" height="54" stroke="#00FFFF"/>
<rect x="271" y="433" width="54" height="54" stroke="#00FFFF"/>
<rect x="649" y="433" width="54" height="54" stroke="#00FFFF"/>
<rect x="595" y="433" width="54" height="54" stroke="#00FFFF"/>
<rect x="541" y="433" width="54" height="54" stroke="#00FFFF"/>
<rect x="487" y="433" width="54" height="54" stroke="#00FFFF"/>
<rect x="541" y="379" width="54" height="54" stroke="#00FFFF"/>
<rect x="487" y="379" width="54" height="54" stroke="#00FFFF"/>
<rect x="433" y="379" width="54" height="54" stroke="#00FFFF"/>
<rect x="487" y="325" width="54" height="54" stroke="#00FFFF"/>
<rect x="703" y="379" width="54" height="54" stroke="#00FFFF"/>
<rect x="595" y="379" width="108" height="54" stroke="#00FFFF"/>
<rect x="757" y="325" width="54" height="108" stroke="#00FFFF"/>
<rect x="703" y="325" width="54" height="54" stroke="#00FFFF"/>
<rect x="649" y="325" width="54" height="54" stroke="#00FFFF"/>
<rect x="595" y="325" width="54" height="54" stroke="#00FFFF"/>
<rect x="703" y="271" width="54" height="54" stroke="#00FFFF"/>
<rect x="595" y="271" width="54" height="54" stroke="#00FFFF"/>
<rect x="757" y="217" width="54" height="108" stroke="#00FFFF"/>
<rect x="703" y="217" width="54" height="54" stroke="#00FFFF"/>
<rect x="649" y="217" width="54" height="54" stroke="#00FFFF"/>
<rect x="595" y="217" width="54" height="54" stroke="#00FFFF"/>
<rect x="757" y="163" width="54" height="54" stroke="#00FFFF"/>
<rect x="703" y="163" width="54" height="54" stroke="#00FFFF"/>
<rect x="649" y="163" width="54" height="54" stroke="#00FFFF"/>
<rect x="595" y="163" width="54" height="54" stroke="#00FFFF"/>
<rect x="649" y="271" width="54" height="54" stroke="#00FFFF"/>
<rect x="541" y="163" width="54" height="54" stroke="#00FFFF"/>
<rect x="487" y="163" width="54" height="54" stroke="#00FFFF"/>
<rect x="433" y="163" width="54" height="54" stroke="#00FFFF"/>
<rect x="541" y="217" width="54" height="54" stroke="#00FFFF"/>
<rect x="487" y="217" width="54" height="54" stroke="#00FFFF"/>
<rect x="433" y="217" width="54" height="54" stroke="#00FFFF"/>
<rect x="541" y="271" width="54" height="54" stroke="#00FFFF"/>
<rect x="487" y="271" width="54" height="54" stroke="#00FFFF"/>
<rect x="433" y="271" width="54" height="54" stroke="#00FFFF"/>
<rect x="595" y="757" width="81" height="54" stroke="#00FFFF"/>
<rect x="676" y="757" width="54" height="54" stroke="#00FFFF"/>
<rect x="730" y="757" width="81" height="54" stroke="#00FFFF"/>
<rect x="136" y="757" width="81" height="54" stroke="#00FFFF"/>
<rect x="82" y="757" width="54" height="54" stroke="#00FFFF"/>
<rect x="1" y="757" width="81" height="54" stroke="#00FFFF"/>
<rect x="1" y="433" width="54" height="54" stroke="#00FFFF"/>
<rect x="757" y="433" width="54" height="54" stroke="#00FFFF"/>
<rect x="703" y="433" width="54" height="54" stroke="#00FFFF"/>
<rect x="541" y="325" width="54" height="54" stroke="#00FFFF"/>
<rect x="433" y="325" width="54" height="54" stroke="#00FFFF"/>
<rect x="379" y="325" width="54" height="54" stroke="#00FFFF"/>
<rect x="379" y="379" width="54" height="54" stroke="#00FFFF"/>
<rect x="298" y="379" width="81" height="54" stroke="#00FFFF"/>
<rect x="298" y="325" width="81" height="54" stroke="#00FFFF"/>
<rect x="217" y="325" width="81" height="108" stroke="#00FFFF"/>
<rect x="176.5" y="379" width="54" height="54" stroke="#00FFFF"/>
<rect x="122.5" y="379" width="54" height="54" stroke="#00FFFF"/>
<rect x="68.5" y="379" width="54" height="54" stroke="#00FFFF"/>
<rect x="1" y="379" width="67.5" height="54" stroke="#00FFFF"/>
<rect x="109" y="325" width="54" height="54" stroke="#00FFFF"/>
<rect x="55" y="325" width="54" height="54" stroke="#00FFFF"/>
<rect x="1" y="325" width="54" height="54" stroke="#00FFFF"/>
<rect x="163" y="325" width="54" height="54" stroke="#00FFFF"/>
<rect x="271" y="271" width="94.5" height="54" stroke="#00FFFF"/>
<rect x="365.5" y="271" width="67.5" height="54" stroke="#00FFFF"/>
<rect x="217" y="271" width="54" height="54" stroke="#00FFFF"/>
<rect x="163" y="271" width="54" height="54" stroke="#00FFFF"/>
<rect x="95.5" y="271" width="67.5" height="54" stroke="#00FFFF"/>
<rect x="1" y="271" width="94.5" height="54" stroke="#00FFFF"/>
<rect x="379" y="163" width="54" height="54" stroke="#00FFFF"/>
<rect x="271" y="163" width="54" height="54" stroke="#00FFFF"/>
<rect x="163" y="163" width="108" height="54" stroke="#00FFFF"/>
<rect x="95.5" y="163" width="67.5" height="54" stroke="#00FFFF"/>
<rect x="217" y="217" width="54" height="54" stroke="#00FFFF"/>
<rect x="163" y="217" width="54" height="54" stroke="#00FFFF"/>
<rect x="95.5" y="217" width="67.5" height="54" stroke="#00FFFF"/>
<rect x="1" y="217" width="94.5" height="54" stroke="#00FFFF"/>
<rect x="1" y="163" width="94.5" height="54" stroke="#00FFFF"/>
<rect x="730" y="55" width="81" height="108" stroke="#00FFFF"/>
<rect x="635.5" y="109" width="54" height="54" stroke="#00FFFF"/>
<rect x="554.5" y="109" width="81" height="54" stroke="#00FFFF"/>
<rect x="446.5" y="109" width="108" height="54" stroke="#00FFFF"/>
<rect x="311.5" y="109" width="81" height="54" stroke="#00FFFF"/>
<rect x="257.5" y="109" width="54" height="54" stroke="#00FFFF"/>
<rect x="163" y="109" width="94.5" height="54" stroke="#00FFFF"/>
<rect x="82" y="109" width="81" height="54" stroke="#00FFFF"/>
<rect x="1" y="109" width="81" height="54" stroke="#00FFFF"/>
<rect x="635.5" y="55" width="94.5" height="54" stroke="#00FFFF"/>
<rect x="527.5" y="55" width="54" height="54" stroke="#00FFFF"/>
<rect x="473.5" y="55" width="54" height="54" stroke="#00FFFF"/>
<rect x="392.5" y="55" width="81" height="54" stroke="#00FFFF"/>
<rect x="1" y="1" width="54" height="54" stroke="#00FFFF"/>
<rect x="55" y="1" width="54" height="54" stroke="#00FFFF"/>
<rect x="109" y="1" width="54" height="54" stroke="#00FFFF"/>
<rect x="163" y="1" width="54" height="54" stroke="#00FFFF"/>
<rect x="217" y="1" width="54" height="54" stroke="#00FFFF"/>
<rect x="271" y="1" width="54" height="54" stroke="#00FFFF"/>
<rect x="325" y="1" width="54" height="54" stroke="#00FFFF"/>
<rect x="379" y="1" width="54" height="54" stroke="#00FFFF"/>
<rect x="433.5" y="1.5" width="53" height="53" stroke="#00FFFF"/>
<rect x="487.5" y="1.5" width="53" height="53" stroke="#00FFFF"/>
</svg>
