<svg width="812" height="812" viewBox="0 0 812 812" fill="none" xmlns="http://www.w3.org/2000/svg">
<path fill-rule="evenodd" clip-rule="evenodd" d="M631.311 720.177C630.547 720.177 629.927 720.797 629.927 721.561C629.927 722.326 630.547 722.945 631.311 722.945H632.556C632.633 722.945 632.696 722.883 632.696 722.805V721.561C632.696 720.797 632.076 720.177 631.311 720.177ZM634.256 722.945C634.178 722.945 634.116 722.883 634.116 722.805V721.561C634.116 720.012 632.86 718.757 631.311 718.757C629.763 718.757 628.507 720.012 628.507 721.561C628.507 723.11 629.762 724.365 631.311 724.365H632.556C632.633 724.365 632.696 724.428 632.696 724.505V726.994C632.696 727.071 632.633 727.134 632.556 727.134H631.311C629.763 727.134 628.507 728.39 628.507 729.938C628.507 731.487 629.763 732.743 631.311 732.743C632.86 732.743 634.116 731.487 634.116 729.938V728.694C634.116 728.617 634.178 728.554 634.256 728.554H636.744C636.821 728.554 636.884 728.617 636.884 728.694L636.884 729.938C636.884 731.487 638.14 732.743 639.689 732.743C641.237 732.743 642.493 731.487 642.493 729.938C642.493 728.39 641.237 727.134 639.689 727.134H638.444C638.367 727.134 638.304 727.071 638.304 726.994V724.505C638.304 724.428 638.367 724.365 638.444 724.365H639.689C641.237 724.365 642.493 723.11 642.493 721.561C642.493 720.012 641.237 718.757 639.689 718.757C638.14 718.757 636.884 720.012 636.884 721.561V722.805C636.884 722.883 636.822 722.945 636.744 722.945H634.256ZM634.256 724.365C634.178 724.365 634.116 724.428 634.116 724.505V726.994C634.116 727.071 634.178 727.134 634.256 727.134H636.744C636.821 727.134 636.884 727.071 636.884 726.994L636.884 724.505C636.884 724.428 636.822 724.365 636.744 724.365H634.256ZM638.444 728.554C638.367 728.554 638.304 728.617 638.304 728.694V729.938C638.304 730.703 638.924 731.323 639.689 731.323C640.453 731.323 641.073 730.703 641.073 729.938C641.073 729.174 640.453 728.554 639.689 728.554H638.444ZM638.304 722.805C638.304 722.883 638.367 722.945 638.444 722.945H639.689C640.453 722.945 641.073 722.326 641.073 721.561C641.073 720.797 640.453 720.177 639.689 720.177C638.924 720.177 638.304 720.797 638.304 721.561V722.805ZM632.696 728.694C632.696 728.617 632.633 728.554 632.556 728.554H631.311C630.547 728.554 629.927 729.174 629.927 729.938C629.927 730.703 630.547 731.323 631.311 731.323C632.076 731.323 632.696 730.703 632.696 729.938V728.694Z" fill="#FF00FF"/>
<path fill-rule="evenodd" clip-rule="evenodd" d="M561.725 722.756C561.333 722.756 561.015 723.074 561.015 723.466C561.015 723.858 561.333 724.176 561.725 724.176H565C565.138 724.176 565.268 724.244 565.346 724.358L567.803 727.937C568.146 728.437 568.714 728.736 569.32 728.736H574.275C574.667 728.736 574.985 728.418 574.985 728.026C574.985 727.634 574.667 727.316 574.275 727.316H569.32C569.182 727.316 569.052 727.248 568.974 727.134L566.517 723.555C566.174 723.055 565.606 722.756 565 722.756H561.725ZM569.975 722.756C569.583 722.756 569.265 723.074 569.265 723.466C569.265 723.858 569.583 724.176 569.975 724.176H574.275C574.667 724.176 574.985 723.858 574.985 723.466C574.985 723.074 574.667 722.756 574.275 722.756H569.975Z" fill="#FF00FF"/>
<path fill-rule="evenodd" clip-rule="evenodd" d="M561.725 722.756C561.333 722.756 561.015 723.074 561.015 723.466C561.015 723.858 561.333 724.176 561.725 724.176H565C565.138 724.176 565.268 724.244 565.346 724.358L567.803 727.937C568.146 728.437 568.714 728.736 569.32 728.736H574.275C574.667 728.736 574.985 728.418 574.985 728.026C574.985 727.634 574.667 727.316 574.275 727.316H569.32C569.182 727.316 569.052 727.248 568.974 727.134L566.517 723.555C566.174 723.055 565.606 722.756 565 722.756H561.725ZM569.975 722.756C569.583 722.756 569.265 723.074 569.265 723.466C569.265 723.858 569.583 724.176 569.975 724.176H574.275C574.667 724.176 574.985 723.858 574.985 723.466C574.985 723.074 574.667 722.756 574.275 722.756H569.975Z" fill="#FF00FF"/>
<path fill-rule="evenodd" clip-rule="evenodd" d="M156.725 722.756C156.333 722.756 156.015 723.074 156.015 723.466C156.015 723.858 156.333 724.176 156.725 724.176H160C160.138 724.176 160.268 724.244 160.346 724.358L162.803 727.937C163.146 728.437 163.714 728.736 164.32 728.736H169.275C169.667 728.736 169.985 728.418 169.985 728.026C169.985 727.634 169.667 727.316 169.275 727.316H164.32C164.182 727.316 164.052 727.248 163.974 727.134L161.517 723.555C161.174 723.055 160.606 722.756 160 722.756H156.725ZM164.975 722.756C164.583 722.756 164.265 723.074 164.265 723.466C164.265 723.858 164.583 724.176 164.975 724.176H169.275C169.667 724.176 169.985 723.858 169.985 723.466C169.985 723.074 169.667 722.756 169.275 722.756H164.975Z" fill="#FF00FF"/>
<path fill-rule="evenodd" clip-rule="evenodd" d="M156.725 722.756C156.333 722.756 156.015 723.074 156.015 723.466C156.015 723.858 156.333 724.176 156.725 724.176H160C160.138 724.176 160.268 724.244 160.346 724.358L162.803 727.937C163.146 728.437 163.714 728.736 164.32 728.736H169.275C169.667 728.736 169.985 728.418 169.985 728.026C169.985 727.634 169.667 727.316 169.275 727.316H164.32C164.182 727.316 164.052 727.248 163.974 727.134L161.517 723.555C161.174 723.055 160.606 722.756 160 722.756H156.725ZM164.975 722.756C164.583 722.756 164.265 723.074 164.265 723.466C164.265 723.858 164.583 724.176 164.975 724.176H169.275C169.667 724.176 169.985 723.858 169.985 723.466C169.985 723.074 169.667 722.756 169.275 722.756H164.975Z" fill="#FF00FF"/>
<path fill-rule="evenodd" clip-rule="evenodd" d="M91.3113 720.177C90.5469 720.177 89.927 720.797 89.927 721.561C89.927 722.326 90.5468 722.945 91.3113 722.945H92.5556C92.633 722.945 92.6956 722.883 92.6956 722.805V721.561C92.6956 720.797 92.0758 720.177 91.3113 720.177ZM94.2556 722.945C94.1783 722.945 94.1156 722.883 94.1156 722.805V721.561C94.1156 720.012 92.8601 718.757 91.3113 718.757C89.7626 718.757 88.507 720.012 88.507 721.561C88.507 723.11 89.7625 724.365 91.3113 724.365H92.5556C92.633 724.365 92.6956 724.428 92.6956 724.505V726.994C92.6956 727.071 92.633 727.134 92.5556 727.134H91.3113C89.7626 727.134 88.507 728.39 88.507 729.938C88.507 731.487 89.7626 732.743 91.3113 732.743C92.86 732.743 94.1156 731.487 94.1156 729.938V728.694C94.1156 728.617 94.1783 728.554 94.2556 728.554H96.7437C96.821 728.554 96.8836 728.617 96.8837 728.694L96.8843 729.938C96.8843 731.487 98.1399 732.743 99.6887 732.743C101.237 732.743 102.493 731.487 102.493 729.938C102.493 728.39 101.237 727.134 99.6887 727.134H98.4444C98.367 727.134 98.3043 727.071 98.3043 726.994V724.505C98.3043 724.428 98.367 724.365 98.4444 724.365H99.6887C101.237 724.365 102.493 723.11 102.493 721.561C102.493 720.012 101.237 718.757 99.6887 718.757C98.1399 718.757 96.8843 720.012 96.8843 721.561V722.805C96.8843 722.883 96.8217 722.945 96.7443 722.945H94.2556ZM94.2556 724.365C94.1783 724.365 94.1156 724.428 94.1156 724.505V726.994C94.1156 727.071 94.1783 727.134 94.2556 727.134H96.7436C96.8209 727.134 96.8836 727.071 96.8836 726.994L96.8843 724.505C96.8843 724.428 96.8216 724.365 96.7443 724.365H94.2556ZM98.4444 728.554C98.367 728.554 98.3043 728.617 98.3043 728.694V729.938C98.3043 730.703 98.9242 731.323 99.6887 731.323C100.453 731.323 101.073 730.703 101.073 729.938C101.073 729.174 100.453 728.554 99.6887 728.554H98.4444ZM98.3043 722.805C98.3043 722.883 98.367 722.945 98.4444 722.945H99.6887C100.453 722.945 101.073 722.326 101.073 721.561C101.073 720.797 100.453 720.177 99.6887 720.177C98.9241 720.177 98.3043 720.797 98.3043 721.561V722.805ZM92.6956 728.694C92.6956 728.617 92.633 728.554 92.5556 728.554H91.3113C90.5469 728.554 89.927 729.174 89.927 729.938C89.927 730.703 90.5469 731.323 91.3113 731.323C92.0758 731.323 92.6956 730.703 92.6956 729.938V728.694Z" fill="#FF00FF"/>
<path d="M631.388 659.935C631.388 660.835 630.563 661.915 629.183 661.915C627.998 661.915 626.693 660.895 625.928 660.895C625.103 660.895 624.893 661.795 624.263 661.795C623.783 661.795 623.618 661.42 623.618 661.075C623.618 660.175 624.443 659.095 625.733 659.095C627.008 659.095 628.313 660.115 629.078 660.115C629.903 660.115 630.113 659.215 630.743 659.215C631.223 659.215 631.388 659.59 631.388 659.935Z" fill="#FF00FF"/>
<path d="M627.422 680.895L626.27 679.576C626.143 679.42 626.064 679.205 626.064 678.98C626.064 678.492 626.465 678.082 626.953 678.082C627.207 678.082 627.461 678.15 627.695 678.492L628.623 679.898C628.711 680.035 628.789 680.201 628.789 680.377C628.789 680.816 628.428 681.178 628.018 681.178C627.773 681.178 627.568 681.061 627.422 680.895Z" fill="#FF00FF"/>
<path fill-rule="evenodd" clip-rule="evenodd" d="M246.209 463.353C246.209 465.33 244.606 466.933 242.629 466.933C240.652 466.933 239.049 465.33 239.049 463.353C239.049 461.376 240.652 459.773 242.629 459.773C244.606 459.773 246.209 461.376 246.209 463.353ZM245.5 467.585C245.453 467.537 245.379 467.53 245.322 467.566C244.545 468.064 243.621 468.353 242.629 468.353C239.868 468.353 237.629 466.114 237.629 463.353C237.629 460.592 239.868 458.353 242.629 458.353C245.39 458.353 247.629 460.592 247.629 463.353C247.629 464.371 247.325 465.318 246.802 466.108C246.765 466.164 246.772 466.239 246.819 466.287L250.1 469.568C250.461 469.929 250.461 470.515 250.1 470.876C249.739 471.237 249.153 471.237 248.792 470.876L245.5 467.585Z" fill="#FF00FF"/>
<path d="M239.085 448.833C238.694 448.833 238.455 448.594 238.455 448.179V442.358C238.455 441.948 238.694 441.704 239.085 441.704H242.454C242.801 441.704 243.03 441.909 243.03 442.236C243.03 442.563 242.796 442.769 242.454 442.769H239.857C239.778 442.769 239.715 442.832 239.715 442.91V444.707C239.715 444.785 239.778 444.849 239.857 444.849H242.2C242.532 444.849 242.752 445.044 242.752 445.361C242.752 445.679 242.532 445.874 242.2 445.874H239.857C239.778 445.874 239.715 445.937 239.715 446.016V448.179C239.715 448.594 239.481 448.833 239.085 448.833V448.833Z" fill="#FF00FF"/>
<path d="M249.016 446.362H248.665C248.587 446.362 248.523 446.299 248.523 446.221V442.534C248.523 441.948 248.138 441.606 247.488 441.606C246.97 441.606 246.663 441.821 246.204 442.505C245.359 443.745 244.558 444.951 244.065 445.835C243.87 446.187 243.792 446.416 243.792 446.69C243.792 447.109 244.09 447.398 244.544 447.398H247.18C247.259 447.398 247.322 447.461 247.322 447.539V448.228C247.322 448.623 247.576 448.848 247.923 448.848C248.269 448.848 248.523 448.623 248.523 448.228V447.539C248.523 447.461 248.587 447.398 248.665 447.398H249.012C249.348 447.398 249.549 447.188 249.549 446.88C249.549 446.572 249.348 446.362 249.016 446.362H249.016ZM247.2 446.392H245.167C245.056 446.392 244.988 446.271 245.046 446.176C245.382 445.625 246.304 444.127 247.083 443.003C247.163 442.889 247.342 442.945 247.342 443.084V446.25C247.342 446.328 247.278 446.392 247.2 446.392Z" fill="#FF00FF"/>
<path fill-rule="evenodd" clip-rule="evenodd" d="M184.399 461.404C184.261 461.404 184.169 461.506 184.169 461.624V462.914C184.169 463.042 184.271 463.144 184.399 463.144H188.059C188.11 463.144 188.164 463.123 188.21 463.077C188.255 463.031 188.279 462.972 188.279 462.914V461.624C188.279 461.501 188.182 461.404 188.059 461.404H184.399ZM182.749 461.624C182.749 460.702 183.497 459.984 184.399 459.984H188.059C188.956 459.984 189.699 460.707 189.699 461.624V462.914C189.699 463.807 188.971 464.564 188.059 464.564H184.399C183.487 464.564 182.749 463.826 182.749 462.914V461.624ZM193.409 462.074C193.291 462.074 193.189 462.177 193.189 462.294V465.614C193.189 465.752 193.291 465.844 193.409 465.844H195.609C195.727 465.844 195.829 465.752 195.829 465.614V462.294C195.829 462.177 195.727 462.074 195.609 462.074H193.409ZM191.769 462.294C191.769 461.392 192.507 460.654 193.409 460.654H195.609C196.511 460.654 197.249 461.392 197.249 462.294V465.614C197.249 466.517 196.531 467.264 195.609 467.264H193.409C192.507 467.264 191.769 466.537 191.769 465.614V462.294ZM186.339 466.794C186.339 466.747 186.359 466.694 186.403 466.651C186.447 466.607 186.503 466.584 186.559 466.584H189.529C189.588 466.584 189.643 466.608 189.685 466.651C189.73 466.696 189.749 466.749 189.749 466.794V467.864C189.749 467.982 189.647 468.084 189.529 468.084H186.559C186.441 468.084 186.339 467.982 186.339 467.864V466.794ZM186.559 465.164C185.662 465.164 184.919 465.897 184.919 466.794V467.864C184.919 468.766 185.657 469.504 186.559 469.504H189.529C190.431 469.504 191.169 468.766 191.169 467.864V466.794C191.169 465.917 190.446 465.164 189.529 465.164H186.559Z" fill="#FF00FF"/>
<path d="M185.291 448.833C184.9 448.833 184.661 448.594 184.661 448.179V442.358C184.661 441.948 184.9 441.704 185.291 441.704H188.66C189.006 441.704 189.236 441.909 189.236 442.236C189.236 442.563 189.002 442.769 188.66 442.769H186.062C185.984 442.769 185.92 442.832 185.92 442.91V444.707C185.92 444.785 185.984 444.849 186.062 444.849H188.406C188.738 444.849 188.958 445.044 188.958 445.361C188.958 445.679 188.738 445.874 188.406 445.874H186.062C185.984 445.874 185.92 445.937 185.92 446.016V448.179C185.92 448.594 185.686 448.833 185.291 448.833V448.833Z" fill="#FF00FF"/>
<path d="M192.703 448.892C191.467 448.892 190.666 448.389 190.3 447.681C190.207 447.51 190.168 447.349 190.168 447.183C190.168 446.85 190.378 446.64 190.73 446.64C190.989 446.64 191.145 446.753 191.277 447.012C191.521 447.544 191.946 447.861 192.718 447.861C193.489 447.861 194.061 447.402 194.061 446.762C194.065 446.01 193.518 445.59 192.615 445.59H192.215C191.902 445.59 191.716 445.4 191.716 445.121C191.716 444.843 191.902 444.653 192.215 444.653H192.586C193.362 444.653 193.88 444.208 193.88 443.583C193.88 442.958 193.479 442.562 192.698 442.562C192.034 442.562 191.648 442.836 191.414 443.388C191.277 443.69 191.14 443.803 190.847 443.803C190.495 443.803 190.31 443.598 190.31 443.275C190.31 443.099 190.344 442.943 190.432 442.772C190.764 442.074 191.545 441.562 192.693 441.562C194.153 441.562 195.091 442.323 195.091 443.412C195.091 444.176 194.583 444.675 194.296 444.895C194.217 444.957 194.225 445.079 194.312 445.13C194.662 445.335 195.34 445.852 195.34 446.792C195.34 448.042 194.246 448.892 192.703 448.892H192.703V448.892Z" fill="#FF00FF"/>
<path fill-rule="evenodd" clip-rule="evenodd" d="M135.99 457.99C136.382 457.99 136.7 458.308 136.7 458.7V459.83C136.7 460.222 136.382 460.54 135.99 460.54C135.598 460.54 135.28 460.222 135.28 459.83V458.7C135.28 458.308 135.598 457.99 135.99 457.99ZM140.782 460.962C141.059 460.685 141.059 460.235 140.782 459.958C140.505 459.681 140.055 459.681 139.778 459.958L138.968 460.768C138.691 461.045 138.691 461.495 138.968 461.772C139.245 462.05 139.695 462.05 139.972 461.772L140.782 460.962ZM136 463.33C135.214 463.33 134.58 463.97 134.58 464.75C134.58 465.524 135.218 466.16 136 466.16C136.792 466.16 137.42 465.534 137.42 464.75C137.42 463.962 136.788 463.33 136 463.33ZM133.16 464.75C133.16 463.19 134.426 461.91 136 461.91C137.572 461.91 138.84 463.178 138.84 464.75C138.84 466.327 137.568 467.58 136 467.58C134.442 467.58 133.16 466.317 133.16 464.75ZM136.01 468.96C136.402 468.96 136.72 469.278 136.72 469.67V470.8C136.72 471.192 136.402 471.51 136.01 471.51C135.618 471.51 135.3 471.192 135.3 470.8V469.67C135.3 469.278 135.618 468.96 136.01 468.96ZM139.982 467.718C139.705 467.441 139.255 467.441 138.978 467.718C138.701 467.995 138.701 468.445 138.978 468.722L139.788 469.532C140.065 469.81 140.515 469.81 140.792 469.532C141.069 469.255 141.069 468.805 140.792 468.528L139.982 467.718ZM140.21 464.74C140.21 464.348 140.528 464.03 140.92 464.03H142.05C142.442 464.03 142.76 464.348 142.76 464.74C142.76 465.132 142.442 465.45 142.05 465.45H140.92C140.528 465.45 140.21 465.132 140.21 464.74ZM132.212 459.968C131.935 459.691 131.485 459.691 131.208 459.968C130.931 460.245 130.931 460.695 131.208 460.972L132.018 461.782C132.295 462.06 132.745 462.06 133.022 461.782C133.299 461.505 133.299 461.055 133.022 460.778L132.212 459.968ZM129.24 464.76C129.24 464.368 129.558 464.05 129.95 464.05H131.08C131.472 464.05 131.79 464.368 131.79 464.76C131.79 465.152 131.472 465.47 131.08 465.47H129.95C129.558 465.47 129.24 465.152 129.24 464.76ZM133.032 468.732C133.309 468.455 133.309 468.005 133.032 467.728C132.755 467.451 132.305 467.451 132.028 467.728L131.218 468.538C130.941 468.815 130.941 469.265 131.218 469.542C131.495 469.82 131.945 469.82 132.222 469.542L133.032 468.732Z" fill="#FF00FF"/>
<path d="M131.366 448.833C130.976 448.833 130.736 448.594 130.736 448.179V442.358C130.736 441.948 130.976 441.704 131.366 441.704H134.735C135.082 441.704 135.312 441.909 135.312 442.236C135.312 442.563 135.077 442.769 134.735 442.769H132.138C132.06 442.769 131.996 442.832 131.996 442.91V444.707C131.996 444.785 132.06 444.849 132.138 444.849H134.481C134.813 444.849 135.033 445.044 135.033 445.361C135.033 445.679 134.814 445.874 134.481 445.874H132.138C132.06 445.874 131.996 445.937 131.996 446.016V448.179C131.996 448.594 131.762 448.833 131.366 448.833V448.833Z" fill="#FF00FF"/>
<path d="M136.83 448.75C136.439 448.75 136.234 448.535 136.234 448.218C136.234 447.974 136.317 447.827 136.586 447.573L138.739 445.44C139.638 444.551 139.862 444.194 139.862 443.657C139.862 443.027 139.379 442.573 138.7 442.573C138.065 442.573 137.621 442.896 137.372 443.53C137.245 443.784 137.099 443.916 136.811 443.916C136.469 443.916 136.264 443.706 136.264 443.393C136.264 443.301 136.278 443.213 136.303 443.13C136.493 442.368 137.338 441.562 138.71 441.562C140.082 441.562 141.093 442.397 141.093 443.579C141.093 444.404 140.697 444.961 139.53 446.104L138.136 447.477C138.045 447.566 138.108 447.72 138.235 447.72H140.726C141.058 447.72 141.264 447.925 141.264 448.237C141.264 448.55 141.058 448.75 140.726 448.75H136.83Z" fill="#FF00FF"/>
<path fill-rule="evenodd" clip-rule="evenodd" d="M82.7049 459.405C82.7049 459.013 82.387 458.695 81.9949 458.695C81.6028 458.695 81.2849 459.013 81.2849 459.405V459.825C81.2849 460.217 81.6028 460.535 81.9949 460.535C82.387 460.535 82.7049 460.217 82.7049 459.825V459.405ZM86.2769 460.463C86.5542 460.74 86.5542 461.19 86.2769 461.467L85.9769 461.767C85.6997 462.044 85.2501 462.044 84.9728 461.767C84.6956 461.49 84.6956 461.04 84.9728 460.763L85.2728 460.463C85.5501 460.186 85.9997 460.186 86.2769 460.463ZM80.5849 464.755C80.5849 463.983 81.2214 463.335 82.0049 463.335C82.7928 463.335 83.4249 463.967 83.4249 464.755C83.4249 465.538 82.7972 466.165 82.0049 466.165C81.2249 466.165 80.5849 465.521 80.5849 464.755ZM82.0049 461.915C80.4285 461.915 79.1649 463.207 79.1649 464.755C79.1649 466.309 80.445 467.585 82.0049 467.585C83.5727 467.585 84.8449 466.331 84.8449 464.755C84.8449 463.183 83.577 461.915 82.0049 461.915ZM82.7149 469.675C82.7149 469.283 82.397 468.965 82.0049 468.965C81.6128 468.965 81.2949 469.283 81.2949 469.675V470.105C81.2949 470.497 81.6128 470.815 82.0049 470.815C82.397 470.815 82.7149 470.497 82.7149 470.105V469.675ZM84.9829 467.723C85.2601 467.446 85.7097 467.446 85.9869 467.723L86.2869 468.023C86.5642 468.3 86.5642 468.75 86.2869 469.027C86.0097 469.304 85.5601 469.304 85.2829 469.027L84.9829 468.727C84.7056 468.45 84.7056 468 84.9829 467.723ZM86.925 464.035C86.5328 464.035 86.215 464.353 86.215 464.745C86.215 465.137 86.5328 465.455 86.925 465.455H87.355C87.7471 465.455 88.065 465.137 88.065 464.745C88.065 464.353 87.7471 464.035 87.355 464.035H86.925ZM77.713 460.473C77.9902 460.196 78.4398 460.196 78.7171 460.473L79.0171 460.773C79.2943 461.05 79.2943 461.5 79.0171 461.777C78.7398 462.054 78.2902 462.054 78.013 461.777L77.713 461.477C77.4357 461.2 77.4357 460.75 77.713 460.473ZM76.6549 464.045C76.2628 464.045 75.9449 464.363 75.9449 464.755C75.9449 465.147 76.2628 465.465 76.6549 465.465H77.0749C77.4671 465.465 77.7849 465.147 77.7849 464.755C77.7849 464.363 77.4671 464.045 77.0749 464.045H76.6549ZM79.0269 467.733C79.3042 468.01 79.3042 468.46 79.0269 468.737L78.7269 469.037C78.4497 469.314 78.0001 469.314 77.7228 469.037C77.4456 468.76 77.4456 468.31 77.7228 468.033L78.0228 467.733C78.3001 467.455 78.7497 467.455 79.0269 467.733Z" fill="#FF00FF"/>
<path d="M78.3673 448.833C77.9767 448.833 77.7374 448.594 77.7374 448.179V442.358C77.7374 441.948 77.9767 441.704 78.3673 441.704H81.7365C82.0832 441.704 82.3127 441.909 82.3127 442.236C82.3127 442.563 82.0783 442.769 81.7365 442.769H79.1389C79.0606 442.769 78.9972 442.832 78.9972 442.91V444.707C78.9972 444.785 79.0607 444.849 79.1389 444.849H81.4825C81.8145 444.849 82.0343 445.044 82.0343 445.361C82.0343 445.679 81.8146 445.874 81.4825 445.874H79.1389C79.0606 445.874 78.9972 445.937 78.9972 446.016V448.179C78.9972 448.594 78.7628 448.833 78.3673 448.833V448.833Z" fill="#FF00FF"/>
<path d="M85.6425 448.848C85.2763 448.848 85.0224 448.594 85.0224 448.213V443.179C85.0224 443.065 84.8937 442.997 84.7998 443.063L83.8603 443.716C83.7382 443.804 83.6406 443.838 83.5038 443.838C83.2401 443.838 83.0497 443.648 83.0497 443.369C83.0497 443.174 83.1278 443.027 83.3378 442.881L84.7782 441.87C85.0907 441.65 85.286 441.606 85.5497 441.606C85.994 441.606 86.2626 441.875 86.2626 442.31V448.213C86.2626 448.594 86.0087 448.848 85.6425 448.848V448.848Z" fill="#FF00FF"/>
<path fill-rule="evenodd" clip-rule="evenodd" d="M461.707 461.514H462.618C462.924 461.514 463.172 461.762 463.172 462.068V467.432C463.172 467.738 462.924 467.986 462.618 467.986H461.707C461.401 467.986 461.153 467.738 461.153 467.432V462.068C461.153 461.762 461.401 461.514 461.707 461.514ZM465.613 461.514H466.525C466.83 461.514 467.078 461.762 467.078 462.068V467.432C467.078 467.738 466.83 467.986 466.525 467.986H465.613C465.307 467.986 465.06 467.738 465.06 467.432V462.068C465.06 461.762 465.307 461.514 465.613 461.514ZM458.172 465.616C458.838 465.231 458.838 464.269 458.172 463.884L454.422 461.719C453.755 461.334 452.922 461.815 452.922 462.585V466.915C452.922 467.685 453.755 468.166 454.422 467.781L458.172 465.616Z" fill="#FF00FF"/>
<path d="M455.18 448.833C454.789 448.833 454.55 448.594 454.55 448.179V442.358C454.55 441.948 454.789 441.704 455.18 441.704H458.549C458.896 441.704 459.125 441.909 459.125 442.236C459.125 442.563 458.891 442.769 458.549 442.769H455.952C455.873 442.769 455.81 442.832 455.81 442.91V444.707C455.81 444.785 455.873 444.849 455.952 444.849H458.295C458.627 444.849 458.847 445.044 458.847 445.361C458.847 445.679 458.627 445.874 458.295 445.874H455.952C455.873 445.874 455.81 445.937 455.81 446.016V448.179C455.81 448.594 455.576 448.833 455.18 448.833V448.833Z" fill="#FF00FF"/>
<path d="M465.449 446.845C465.449 446.005 464.993 445.534 464.346 445.132C464.263 445.081 464.255 444.963 464.331 444.902C464.851 444.479 465.195 444.131 465.195 443.442C465.195 442.357 464.16 441.562 462.705 441.562C461.249 441.562 460.214 442.357 460.214 443.442C460.214 444.131 460.558 444.479 461.078 444.902C461.154 444.963 461.146 445.081 461.063 445.132C460.416 445.534 459.96 446.005 459.96 446.845C459.96 448.047 461.093 448.892 462.704 448.892C464.316 448.892 465.449 448.047 465.449 446.845H465.449ZM462.705 442.514C463.432 442.514 463.95 442.948 463.95 443.569C463.95 444.189 463.437 444.614 462.705 444.614C461.972 444.614 461.459 444.189 461.459 443.569C461.459 442.948 461.977 442.514 462.705 442.514ZM462.705 447.93C461.86 447.93 461.264 447.436 461.264 446.753C461.264 446.069 461.86 445.576 462.705 445.576C463.549 445.576 464.145 446.069 464.145 446.753C464.145 447.436 463.549 447.93 462.705 447.93Z" fill="#FF00FF"/>
<path fill-rule="evenodd" clip-rule="evenodd" d="M399.608 463.884C398.942 464.269 398.942 465.231 399.608 465.616L403.358 467.781C404.025 468.166 404.858 467.685 404.858 466.915L404.858 462.585C404.858 461.815 404.025 461.334 403.358 461.719L399.608 463.884ZM407.11 463.884C406.443 464.269 406.443 465.231 407.11 465.616L410.86 467.781C411.527 468.166 412.36 467.685 412.36 466.915V462.585C412.36 461.815 411.527 461.334 410.86 461.719L407.11 463.884Z" fill="#FF00FF"/>
<path d="M401.495 448.833C401.104 448.833 400.865 448.594 400.865 448.179V442.358C400.865 441.948 401.104 441.704 401.495 441.704H404.864C405.211 441.704 405.44 441.909 405.44 442.236C405.44 442.563 405.206 442.769 404.864 442.769H402.267C402.188 442.769 402.125 442.832 402.125 442.91V444.707C402.125 444.785 402.188 444.849 402.267 444.849H404.61C404.942 444.849 405.162 445.044 405.162 445.361C405.162 445.679 404.942 445.874 404.61 445.874H402.267C402.188 445.874 402.125 445.937 402.125 446.016V448.179C402.125 448.594 401.891 448.833 401.495 448.833V448.833Z" fill="#FF00FF"/>
<path d="M407.584 448.848C407.232 448.848 407.008 448.633 407.008 448.335C407.008 448.189 407.042 448.081 407.115 447.935L409.757 442.942C409.807 442.848 409.739 442.734 409.632 442.734H406.662C406.378 442.734 406.141 442.508 406.138 442.223C406.135 441.907 406.361 441.704 406.675 441.704H410.377C410.826 441.704 411.133 441.968 411.133 442.412C411.133 442.642 411.06 442.837 410.889 443.169L408.15 448.482C408.013 448.75 407.857 448.848 407.584 448.848L407.584 448.848Z" fill="#FF00FF"/>
<path fill-rule="evenodd" clip-rule="evenodd" d="M358.061 466.69C358.424 467.19 358.421 467.868 358.053 468.366C356.84 470.01 354.884 471.081 352.678 471.081C348.99 471.081 346 468.092 346 464.404C346 462.196 347.074 460.238 348.723 459.025C349.221 458.658 349.899 458.656 350.399 459.02C350.899 459.383 351.107 460.029 350.912 460.615C350.768 461.049 350.69 461.514 350.69 462C350.69 464.426 352.658 466.394 355.086 466.394C355.571 466.394 356.034 466.317 356.466 466.174C357.053 465.98 357.698 466.189 358.061 466.69ZM354.771 469.228C354.878 469.181 354.983 469.131 355.086 469.078C355.677 468.773 356.202 468.36 356.635 467.865C356.725 467.762 356.621 467.611 356.488 467.644C356.039 467.755 355.57 467.814 355.086 467.814C354.887 467.814 354.689 467.804 354.495 467.785C351.752 467.508 349.572 465.326 349.299 462.583C349.28 462.391 349.27 462.197 349.27 462C349.27 461.514 349.33 461.042 349.442 460.591C349.475 460.459 349.324 460.354 349.221 460.444C348.723 460.879 348.307 461.406 348.001 462C347.95 462.099 347.901 462.201 347.856 462.305C347.576 462.948 347.42 463.658 347.42 464.404C347.42 467.307 349.774 469.661 352.678 469.661C353.422 469.661 354.13 469.506 354.771 469.228Z" fill="#FF00FF"/>
<path d="M347.19 448.833C346.799 448.833 346.56 448.594 346.56 448.179V442.358C346.56 441.948 346.799 441.704 347.19 441.704H350.559C350.906 441.704 351.135 441.909 351.135 442.236C351.135 442.563 350.901 442.769 350.559 442.769H347.962C347.883 442.769 347.82 442.832 347.82 442.91V444.707C347.82 444.785 347.883 444.849 347.962 444.849H350.305C350.637 444.849 350.857 445.044 350.857 445.361C350.857 445.679 350.637 445.874 350.305 445.874H347.962C347.883 445.874 347.82 445.937 347.82 446.016V448.179C347.82 448.594 347.586 448.833 347.19 448.833V448.833Z" fill="#FF00FF"/>
<path d="M352.356 447.325C352.097 446.783 351.965 446.109 351.965 445.308C351.965 442.96 353.039 441.559 354.831 441.559C355.905 441.559 356.625 441.974 356.961 442.552C357.039 442.694 357.073 442.816 357.073 442.953C357.073 443.241 356.868 443.461 356.536 443.461C356.287 443.461 356.131 443.343 355.936 443.094C355.633 442.773 355.349 442.584 354.826 442.584C353.649 442.584 353.323 443.815 353.234 444.407C353.217 444.52 353.333 444.605 353.436 444.556C353.773 444.392 354.436 444.122 355.134 444.122C356.491 444.122 357.443 445.098 357.443 446.431C357.443 447.862 356.335 448.892 354.811 448.892C353.713 448.892 352.844 448.355 352.356 447.325H352.356ZM356.203 446.48C356.208 445.669 355.617 445.093 354.807 445.093C353.996 445.093 353.386 445.669 353.386 446.456C353.386 447.242 354.006 447.867 354.792 447.867C355.578 447.867 356.203 447.251 356.203 446.48Z" fill="#FF00FF"/>
<path fill-rule="evenodd" clip-rule="evenodd" d="M298.67 460.72V464.57C298.67 464.937 298.372 465.235 298.005 465.235C297.638 465.235 297.34 464.937 297.34 464.57V460.72C297.34 460.352 297.638 460.055 298.005 460.055C298.372 460.055 298.67 460.352 298.67 460.72ZM295.92 460.72C295.92 459.568 296.853 458.635 298.005 458.635C299.156 458.635 300.09 459.568 300.09 460.72V464.57C300.09 465.721 299.156 466.655 298.005 466.655C296.853 466.655 295.92 465.721 295.92 464.57V460.72ZM300.94 463.475C300.94 463.115 301.22 462.835 301.58 462.835C301.93 462.835 302.21 463.115 302.21 463.475V464.685C302.181 466.793 300.815 468.382 298.763 468.688C298.693 468.698 298.64 468.758 298.64 468.829V469.455C298.64 469.532 298.703 469.595 298.78 469.595H300.5C300.85 469.595 301.14 469.885 301.14 470.235C301.14 470.585 300.86 470.865 300.5 470.865H295.51C295.16 470.865 294.87 470.585 294.87 470.235C294.87 469.885 295.16 469.595 295.51 469.595H297.23C297.307 469.595 297.37 469.532 297.37 469.455V468.829C297.37 468.758 297.317 468.699 297.247 468.688C295.165 468.381 293.79 466.762 293.79 464.605V463.475C293.79 463.115 294.07 462.835 294.43 462.835C294.79 462.835 295.07 463.115 295.07 463.475V464.575C295.07 466.365 296.23 467.525 298.01 467.525C299.79 467.525 300.94 466.365 300.94 464.575V463.475Z" fill="#FF00FF"/>
<path d="M293.25 448.833C292.859 448.833 292.62 448.594 292.62 448.179V442.358C292.62 441.948 292.859 441.704 293.25 441.704H296.619C296.966 441.704 297.195 441.909 297.195 442.236C297.195 442.563 296.961 442.769 296.619 442.769H294.022C293.943 442.769 293.88 442.832 293.88 442.91V444.707C293.88 444.785 293.943 444.849 294.022 444.849H296.365C296.697 444.849 296.917 445.044 296.917 445.361C296.917 445.679 296.697 445.874 296.365 445.874H294.022C293.943 445.874 293.88 445.937 293.88 446.016V448.179C293.88 448.594 293.646 448.833 293.25 448.833V448.833Z" fill="#FF00FF"/>
<path d="M298.366 447.607C298.298 447.456 298.254 447.31 298.254 447.129C298.254 446.802 298.464 446.597 298.796 446.597C299.06 446.597 299.221 446.699 299.353 446.958C299.585 447.513 300.034 447.847 300.682 447.865C301.491 447.889 302.164 447.254 302.166 446.445C302.168 445.632 301.576 445.053 300.745 445.053C300.3 445.053 299.914 445.234 299.646 445.498C299.353 445.791 299.231 445.854 298.943 445.854C298.537 445.854 298.337 445.566 298.347 445.224C298.347 445.195 298.347 445.175 298.352 445.146L298.576 442.485C298.62 441.928 298.903 441.703 299.455 441.703H302.493C302.815 441.703 303.025 441.908 303.025 442.216C303.025 442.524 302.815 442.734 302.493 442.734H299.775C299.702 442.734 299.641 442.79 299.634 442.863L299.513 444.223C299.504 444.329 299.61 444.407 299.708 444.367C299.969 444.259 300.45 444.106 301.072 444.106C302.42 444.106 303.382 445.058 303.382 446.406C303.382 447.881 302.298 448.892 300.735 448.892C299.651 448.892 298.713 448.374 298.366 447.608L298.366 447.607Z" fill="#FF00FF"/>
<path fill-rule="evenodd" clip-rule="evenodd" d="M680.144 459.149C680.454 458.908 680.9 458.964 681.141 459.274C682.314 460.784 683.01 462.677 683.01 464.74C683.01 466.804 682.303 468.706 681.131 470.215C680.89 470.525 680.444 470.581 680.134 470.34C679.825 470.1 679.769 469.654 680.009 469.344C680.997 468.073 681.59 466.475 681.59 464.74C681.59 463.002 681.006 461.415 680.019 460.145C679.779 459.836 679.835 459.389 680.144 459.149ZM679.118 460.579C678.87 460.276 678.422 460.232 678.119 460.481C677.816 460.73 677.772 461.177 678.021 461.48C678.752 462.369 679.19 463.491 679.19 464.74C679.19 465.989 678.751 467.119 678.014 468.006C677.763 468.307 677.804 468.755 678.106 469.005C678.407 469.256 678.855 469.215 679.106 468.914C680.049 467.78 680.61 466.33 680.61 464.74C680.61 463.148 680.048 461.71 679.118 460.579ZM677.064 461.87C676.794 461.586 676.345 461.575 676.06 461.845C675.776 462.116 675.765 462.565 676.036 462.849C676.509 463.346 676.8 464.004 676.8 464.74C676.8 465.476 676.508 466.142 676.03 466.636C675.757 466.918 675.764 467.367 676.046 467.64C676.328 467.912 676.777 467.905 677.05 467.623C677.772 466.877 678.22 465.863 678.22 464.74C678.22 463.615 677.771 462.613 677.064 461.87ZM674.8 461.558C674.8 460.788 673.881 460.426 673.35 460.955L671.673 462.614C671.618 462.668 671.545 462.698 671.469 462.698H670.21C669.529 462.698 669 463.255 669 463.908V465.608C669 466.28 669.538 466.818 670.21 466.818H671.472C671.548 466.818 671.62 466.848 671.675 466.901L673.351 468.544C673.921 469.108 674.8 468.644 674.8 467.938V461.558Z" fill="#FF00FF"/>
<path d="M668.93 448.833C668.539 448.833 668.3 448.594 668.3 448.179V442.358C668.3 441.948 668.539 441.704 668.93 441.704H672.299C672.646 441.704 672.875 441.909 672.875 442.236C672.875 442.563 672.641 442.769 672.299 442.769H669.702C669.623 442.769 669.56 442.832 669.56 442.91V444.707C669.56 444.785 669.623 444.849 669.702 444.849H672.045C672.377 444.849 672.597 445.044 672.597 445.361C672.597 445.679 672.377 445.874 672.045 445.874H669.702C669.623 445.874 669.56 445.937 669.56 446.016V448.179C669.56 448.594 669.326 448.833 668.93 448.833V448.833Z" fill="#FF00FF"/>
<path d="M676.205 448.848C675.839 448.848 675.585 448.594 675.585 448.213V443.179C675.585 443.065 675.456 442.997 675.362 443.063L674.423 443.716C674.301 443.804 674.203 443.838 674.066 443.838C673.803 443.838 673.612 443.648 673.612 443.369C673.612 443.174 673.69 443.027 673.9 442.881L675.341 441.87C675.653 441.65 675.849 441.606 676.112 441.606C676.557 441.606 676.825 441.875 676.825 442.31V448.213C676.825 448.594 676.571 448.848 676.205 448.848V448.848Z" fill="#FF00FF"/>
<path d="M679.262 448.75C678.871 448.75 678.666 448.535 678.666 448.218C678.666 447.974 678.749 447.827 679.017 447.573L681.171 445.44C682.069 444.551 682.294 444.194 682.294 443.657C682.294 443.027 681.811 442.573 681.132 442.573C680.497 442.573 680.053 442.896 679.804 443.53C679.677 443.784 679.53 443.916 679.242 443.916C678.9 443.916 678.695 443.706 678.695 443.393C678.695 443.301 678.71 443.213 678.734 443.13C678.925 442.368 679.769 441.562 681.141 441.562C682.514 441.562 683.524 442.397 683.524 443.579C683.524 444.404 683.129 444.961 681.962 446.104L680.567 447.477C680.477 447.566 680.54 447.72 680.667 447.72H683.158C683.49 447.72 683.695 447.925 683.695 448.237C683.695 448.55 683.49 448.75 683.158 448.75H679.262Z" fill="#FF00FF"/>
<path fill-rule="evenodd" clip-rule="evenodd" d="M622.634 460.753C622.542 460.718 622.442 460.698 622.339 460.698H622.305C622.135 460.698 621.971 460.761 621.845 460.875C621.813 460.899 621.783 460.925 621.753 460.955L620.076 462.615C620.022 462.668 619.949 462.699 619.872 462.699H618.614C618.227 462.699 617.889 462.878 617.67 463.152C617.504 463.355 617.404 463.614 617.404 463.9V463.9C617.404 463.903 617.404 463.906 617.404 463.909V465.609C617.404 466.281 617.942 466.819 618.614 466.819H619.875C619.951 466.819 620.024 466.848 620.078 466.901L621.755 468.544C621.778 468.567 621.802 468.588 621.826 468.608C621.954 468.732 622.126 468.802 622.305 468.802H622.339C622.529 468.802 622.705 468.737 622.846 468.628C623.057 468.474 623.204 468.226 623.204 467.939V461.559C623.204 461.155 622.951 460.863 622.634 460.753ZM624.464 461.845C624.748 461.575 625.198 461.586 625.468 461.87C626.175 462.613 626.624 463.615 626.624 464.74C626.624 465.863 626.176 466.878 625.454 467.623C625.181 467.905 624.732 467.913 624.45 467.64C624.168 467.367 624.161 466.918 624.433 466.636C624.912 466.142 625.204 465.477 625.204 464.74C625.204 464.004 624.913 463.347 624.439 462.849C624.169 462.565 624.18 462.116 624.464 461.845Z" fill="#FF00FF"/>
<path d="M615.935 448.833C615.544 448.833 615.305 448.594 615.305 448.179V442.358C615.305 441.948 615.544 441.704 615.935 441.704H619.304C619.651 441.704 619.88 441.909 619.88 442.236C619.88 442.563 619.646 442.769 619.304 442.769H616.707C616.628 442.769 616.565 442.832 616.565 442.91V444.707C616.565 444.785 616.628 444.849 616.707 444.849H619.05C619.382 444.849 619.602 445.044 619.602 445.361C619.602 445.679 619.382 445.874 619.05 445.874H616.707C616.628 445.874 616.565 445.937 616.565 446.016V448.179C616.565 448.594 616.331 448.833 615.935 448.833V448.833Z" fill="#FF00FF"/>
<path d="M623.21 448.848C622.844 448.848 622.59 448.594 622.59 448.213V443.179C622.59 443.065 622.461 442.997 622.367 443.063L621.428 443.716C621.306 443.804 621.208 443.838 621.071 443.838C620.808 443.838 620.617 443.648 620.617 443.369C620.617 443.174 620.695 443.027 620.905 442.881L622.346 441.87C622.658 441.65 622.854 441.606 623.117 441.606C623.562 441.606 623.83 441.875 623.83 442.31V448.213C623.83 448.594 623.576 448.848 623.21 448.848V448.848Z" fill="#FF00FF"/>
<path d="M628.078 448.848C627.712 448.848 627.458 448.594 627.458 448.213V443.179C627.458 443.065 627.329 442.997 627.235 443.063L626.296 443.716C626.174 443.804 626.076 443.838 625.939 443.838C625.676 443.838 625.485 443.648 625.485 443.369C625.485 443.174 625.563 443.027 625.773 442.881L627.214 441.87C627.526 441.65 627.722 441.606 627.985 441.606C628.43 441.606 628.698 441.875 628.698 442.31V448.213C628.698 448.594 628.444 448.848 628.078 448.848V448.848Z" fill="#FF00FF"/>
<path fill-rule="evenodd" clip-rule="evenodd" d="M570.879 461.518C570.879 461.054 570.499 460.698 570.057 460.698H570.022C569.944 460.698 569.867 460.712 569.795 460.737C569.664 460.775 569.538 460.846 569.428 460.955L567.751 462.615C567.697 462.668 567.624 462.699 567.547 462.699H566.289C565.607 462.699 565.079 463.256 565.079 463.909V465.609C565.079 466.281 565.616 466.819 566.289 466.819H567.55C567.626 466.819 567.699 466.848 567.753 466.901L569.43 468.544C569.546 468.659 569.674 468.731 569.805 468.767C569.875 468.79 569.948 468.802 570.022 468.802H570.057C570.505 468.802 570.879 468.441 570.879 467.981V467.939V461.559V461.518Z" fill="#FF00FF"/>
<path d="M560.72 448.833C560.329 448.833 560.09 448.594 560.09 448.179V442.358C560.09 441.948 560.329 441.704 560.72 441.704H564.089C564.436 441.704 564.665 441.909 564.665 442.236C564.665 442.563 564.431 442.769 564.089 442.769H561.492C561.413 442.769 561.35 442.832 561.35 442.91V444.707C561.35 444.785 561.413 444.849 561.492 444.849H563.835C564.167 444.849 564.387 445.044 564.387 445.361C564.387 445.679 564.167 445.874 563.835 445.874H561.492C561.413 445.874 561.35 445.937 561.35 446.016V448.179C561.35 448.594 561.116 448.833 560.72 448.833V448.833Z" fill="#FF00FF"/>
<path d="M567.995 448.848C567.629 448.848 567.375 448.594 567.375 448.213V443.179C567.375 443.065 567.246 442.997 567.152 443.063L566.213 443.716C566.091 443.804 565.993 443.838 565.856 443.838C565.593 443.838 565.402 443.648 565.402 443.369C565.402 443.174 565.48 443.027 565.69 442.881L567.131 441.87C567.443 441.65 567.639 441.606 567.902 441.606C568.347 441.606 568.615 441.875 568.615 442.31V448.213C568.615 448.594 568.361 448.848 567.995 448.848V448.848Z" fill="#FF00FF"/>
<path d="M573.141 447.861C574.094 447.861 574.636 446.89 574.636 445.22C574.636 443.55 574.084 442.593 573.141 442.593C572.199 442.593 571.638 443.574 571.638 445.215C571.638 446.855 572.184 447.861 573.141 447.861ZM573.141 448.892C571.403 448.892 570.368 447.48 570.368 445.22C570.368 442.959 571.413 441.562 573.141 441.562C574.87 441.562 575.905 442.959 575.905 445.215C575.905 447.471 574.875 448.892 573.141 448.892Z" fill="#FF00FF"/>
<path fill-rule="evenodd" clip-rule="evenodd" d="M520.39 465.616C521.057 465.231 521.057 464.269 520.39 463.884L516.64 461.719C515.973 461.334 515.14 461.815 515.14 462.585L515.14 466.915C515.14 467.685 515.973 468.166 516.64 467.781L520.39 465.616ZM512.888 465.616C513.555 465.231 513.555 464.269 512.888 463.884L509.138 461.719C508.472 461.334 507.638 461.815 507.638 462.585L507.638 466.915C507.638 467.685 508.472 468.166 509.138 467.781L512.888 465.616Z" fill="#FF00FF"/>
<path d="M509.205 448.833C508.814 448.833 508.575 448.594 508.575 448.179V442.358C508.575 441.948 508.814 441.704 509.205 441.704H512.574C512.921 441.704 513.15 441.909 513.15 442.236C513.15 442.563 512.916 442.769 512.574 442.769H509.977C509.898 442.769 509.835 442.832 509.835 442.91V444.707C509.835 444.785 509.898 444.849 509.977 444.849H512.32C512.652 444.849 512.872 445.044 512.872 445.361C512.872 445.679 512.652 445.874 512.32 445.874H509.977C509.898 445.874 509.835 445.937 509.835 446.016V448.179C509.835 448.594 509.601 448.833 509.205 448.833V448.833Z" fill="#FF00FF"/>
<path d="M519.034 443.125C519.293 443.667 519.424 444.341 519.424 445.141C519.424 447.49 518.35 448.891 516.559 448.891C515.484 448.891 514.765 448.475 514.429 447.897C514.35 447.755 514.316 447.633 514.316 447.497C514.316 447.209 514.521 446.989 514.853 446.989C515.102 446.989 515.259 447.106 515.454 447.355C515.756 447.677 516.041 447.866 516.563 447.866C517.741 447.866 518.067 446.634 518.156 446.042C518.173 445.93 518.056 445.844 517.954 445.894C517.616 446.058 516.953 446.328 516.256 446.328C514.899 446.328 513.947 445.351 513.947 444.018C513.947 442.588 515.055 441.558 516.578 441.558C517.677 441.558 518.546 442.095 519.034 443.125H519.034ZM515.187 443.969C515.182 444.78 515.772 445.356 516.583 445.356C517.393 445.356 518.004 444.78 518.004 443.994C518.004 443.208 517.384 442.583 516.598 442.583C515.812 442.583 515.187 443.198 515.187 443.969Z" fill="#FF00FF"/>
<path fill-rule="evenodd" clip-rule="evenodd" d="M615.725 776.756C615.333 776.756 615.015 777.074 615.015 777.466C615.015 777.858 615.333 778.176 615.725 778.176H619C619.138 778.176 619.268 778.244 619.346 778.358L621.803 781.937C622.146 782.437 622.714 782.736 623.32 782.736H628.275C628.667 782.736 628.985 782.418 628.985 782.026C628.985 781.634 628.667 781.316 628.275 781.316H623.32C623.182 781.316 623.052 781.248 622.974 781.134L620.517 777.555C620.174 777.055 619.606 776.756 619 776.756H615.725ZM623.975 776.756C623.583 776.756 623.265 777.074 623.265 777.466C623.265 777.858 623.583 778.176 623.975 778.176H628.275C628.667 778.176 628.985 777.858 628.985 777.466C628.985 777.074 628.667 776.756 628.275 776.756H623.975Z" fill="#FF00FF"/>
<path fill-rule="evenodd" clip-rule="evenodd" d="M615.725 776.756C615.333 776.756 615.015 777.074 615.015 777.466C615.015 777.858 615.333 778.176 615.725 778.176H619C619.138 778.176 619.268 778.244 619.346 778.358L621.803 781.937C622.146 782.437 622.714 782.736 623.32 782.736H628.275C628.667 782.736 628.985 782.418 628.985 782.026C628.985 781.634 628.667 781.316 628.275 781.316H623.32C623.182 781.316 623.052 781.248 622.974 781.134L620.517 777.555C620.174 777.055 619.606 776.756 619 776.756H615.725ZM623.975 776.756C623.583 776.756 623.265 777.074 623.265 777.466C623.265 777.858 623.583 778.176 623.975 778.176H628.275C628.667 778.176 628.985 777.858 628.985 777.466C628.985 777.074 628.667 776.756 628.275 776.756H623.975Z" fill="#FF00FF"/>
<path fill-rule="evenodd" clip-rule="evenodd" d="M698.811 774.177C698.047 774.177 697.427 774.797 697.427 775.561C697.427 776.326 698.047 776.945 698.811 776.945H700.056C700.133 776.945 700.196 776.883 700.196 776.805V775.561C700.196 774.797 699.576 774.177 698.811 774.177ZM701.756 776.945C701.678 776.945 701.616 776.883 701.616 776.805V775.561C701.616 774.012 700.36 772.757 698.811 772.757C697.263 772.757 696.007 774.012 696.007 775.561C696.007 777.11 697.262 778.365 698.811 778.365H700.056C700.133 778.365 700.196 778.428 700.196 778.505V780.994C700.196 781.071 700.133 781.134 700.056 781.134H698.811C697.263 781.134 696.007 782.39 696.007 783.938C696.007 785.487 697.263 786.743 698.811 786.743C700.36 786.743 701.616 785.487 701.616 783.938V782.694C701.616 782.617 701.678 782.554 701.756 782.554H704.244C704.321 782.554 704.384 782.617 704.384 782.694L704.384 783.938C704.384 785.487 705.64 786.743 707.189 786.743C708.737 786.743 709.993 785.487 709.993 783.938C709.993 782.39 708.737 781.134 707.189 781.134H705.944C705.867 781.134 705.804 781.071 705.804 780.994V778.505C705.804 778.428 705.867 778.365 705.944 778.365H707.189C708.737 778.365 709.993 777.11 709.993 775.561C709.993 774.012 708.737 772.757 707.189 772.757C705.64 772.757 704.384 774.012 704.384 775.561V776.805C704.384 776.883 704.322 776.945 704.244 776.945H701.756ZM701.756 778.365C701.678 778.365 701.616 778.428 701.616 778.505V780.994C701.616 781.071 701.678 781.134 701.756 781.134H704.244C704.321 781.134 704.384 781.071 704.384 780.994L704.384 778.505C704.384 778.428 704.322 778.365 704.244 778.365H701.756ZM705.944 782.554C705.867 782.554 705.804 782.617 705.804 782.694V783.938C705.804 784.703 706.424 785.323 707.189 785.323C707.953 785.323 708.573 784.703 708.573 783.938C708.573 783.174 707.953 782.554 707.189 782.554H705.944ZM705.804 776.805C705.804 776.883 705.867 776.945 705.944 776.945H707.189C707.953 776.945 708.573 776.326 708.573 775.561C708.573 774.797 707.953 774.177 707.189 774.177C706.424 774.177 705.804 774.797 705.804 775.561V776.805ZM700.196 782.694C700.196 782.617 700.133 782.554 700.056 782.554H698.811C698.047 782.554 697.427 783.174 697.427 783.938C697.427 784.703 698.047 785.323 698.811 785.323C699.576 785.323 700.196 784.703 700.196 783.938V782.694Z" fill="#FF00FF"/>
<path fill-rule="evenodd" clip-rule="evenodd" d="M156.725 776.756C156.333 776.756 156.015 777.074 156.015 777.466C156.015 777.858 156.333 778.176 156.725 778.176H160C160.138 778.176 160.268 778.244 160.346 778.358L162.803 781.937C163.146 782.437 163.714 782.736 164.32 782.736H169.275C169.667 782.736 169.985 782.418 169.985 782.026C169.985 781.634 169.667 781.316 169.275 781.316H164.32C164.182 781.316 164.052 781.248 163.974 781.134L161.517 777.555C161.174 777.055 160.606 776.756 160 776.756H156.725ZM164.975 776.756C164.583 776.756 164.265 777.074 164.265 777.466C164.265 777.858 164.583 778.176 164.975 778.176H169.275C169.667 778.176 169.985 777.858 169.985 777.466C169.985 777.074 169.667 776.756 169.275 776.756H164.975Z" fill="#FF00FF"/>
<path fill-rule="evenodd" clip-rule="evenodd" d="M156.725 776.756C156.333 776.756 156.015 777.074 156.015 777.466C156.015 777.858 156.333 778.176 156.725 778.176H160C160.138 778.176 160.268 778.244 160.346 778.358L162.803 781.937C163.146 782.437 163.714 782.736 164.32 782.736H169.275C169.667 782.736 169.985 782.418 169.985 782.026C169.985 781.634 169.667 781.316 169.275 781.316H164.32C164.182 781.316 164.052 781.248 163.974 781.134L161.517 777.555C161.174 777.055 160.606 776.756 160 776.756H156.725ZM164.975 776.756C164.583 776.756 164.265 777.074 164.265 777.466C164.265 777.858 164.583 778.176 164.975 778.176H169.275C169.667 778.176 169.985 777.858 169.985 777.466C169.985 777.074 169.667 776.756 169.275 776.756H164.975Z" fill="#FF00FF"/>
<path fill-rule="evenodd" clip-rule="evenodd" d="M104.811 774.177C104.047 774.177 103.427 774.797 103.427 775.561C103.427 776.326 104.047 776.945 104.811 776.945H106.056C106.133 776.945 106.196 776.883 106.196 776.805V775.561C106.196 774.797 105.576 774.177 104.811 774.177ZM107.756 776.945C107.678 776.945 107.616 776.883 107.616 776.805V775.561C107.616 774.012 106.36 772.757 104.811 772.757C103.263 772.757 102.007 774.012 102.007 775.561C102.007 777.11 103.263 778.365 104.811 778.365H106.056C106.133 778.365 106.196 778.428 106.196 778.505V780.994C106.196 781.071 106.133 781.134 106.056 781.134H104.811C103.263 781.134 102.007 782.39 102.007 783.938C102.007 785.487 103.263 786.743 104.811 786.743C106.36 786.743 107.616 785.487 107.616 783.938V782.694C107.616 782.617 107.678 782.554 107.756 782.554H110.244C110.321 782.554 110.384 782.617 110.384 782.694L110.384 783.938C110.384 785.487 111.64 786.743 113.189 786.743C114.737 786.743 115.993 785.487 115.993 783.938C115.993 782.39 114.737 781.134 113.189 781.134H111.944C111.867 781.134 111.804 781.071 111.804 780.994V778.505C111.804 778.428 111.867 778.365 111.944 778.365H113.189C114.737 778.365 115.993 777.11 115.993 775.561C115.993 774.012 114.737 772.757 113.189 772.757C111.64 772.757 110.384 774.012 110.384 775.561V776.805C110.384 776.883 110.322 776.945 110.244 776.945H107.756ZM107.756 778.365C107.678 778.365 107.616 778.428 107.616 778.505V780.994C107.616 781.071 107.678 781.134 107.756 781.134H110.244C110.321 781.134 110.384 781.071 110.384 780.994L110.384 778.505C110.384 778.428 110.322 778.365 110.244 778.365H107.756ZM111.944 782.554C111.867 782.554 111.804 782.617 111.804 782.694V783.938C111.804 784.703 112.424 785.323 113.189 785.323C113.953 785.323 114.573 784.703 114.573 783.938C114.573 783.174 113.953 782.554 113.189 782.554H111.944ZM111.804 776.805C111.804 776.883 111.867 776.945 111.944 776.945H113.189C113.953 776.945 114.573 776.326 114.573 775.561C114.573 774.797 113.953 774.177 113.189 774.177C112.424 774.177 111.804 774.797 111.804 775.561V776.805ZM106.196 782.694C106.196 782.617 106.133 782.554 106.056 782.554H104.811C104.047 782.554 103.427 783.174 103.427 783.938C103.427 784.703 104.047 785.323 104.811 785.323C105.576 785.323 106.196 784.703 106.196 783.938V782.694Z" fill="#FF00FF"/>
<path d="M20.6759 339.761C20.6759 340.195 20.4031 340.468 19.9752 340.468C19.5411 340.468 19.2745 340.195 19.2745 339.761V338.921C19.2745 338.844 19.2118 338.781 19.1345 338.781H17.5691C17.1599 338.781 16.8746 338.521 16.8746 338.143C16.8746 337.764 17.1599 337.504 17.5691 337.504H19.1345C19.2118 337.504 19.2745 337.441 19.2745 337.364V336.574C19.2745 336.14 19.5411 335.867 19.969 335.867C20.4031 335.867 20.6759 336.14 20.6759 336.574V337.364C20.6759 337.441 20.7386 337.504 20.8159 337.504H22.4371C22.8525 337.504 23.1316 337.764 23.1316 338.143C23.1316 338.521 22.8525 338.781 22.4371 338.781H20.8159C20.7386 338.781 20.6759 338.844 20.6759 338.921V339.761ZM16.8746 341.659C16.8746 341.268 17.1227 341.02 17.5877 341.02H22.4371C22.9021 341.02 23.1502 341.268 23.1502 341.659C23.1502 342.043 22.9021 342.297 22.4371 342.297H17.5877C17.1227 342.297 16.8746 342.043 16.8746 341.659Z" fill="#FF00FF"/>
<path d="M19.9573 361.144C20.6273 361.144 21.0273 360.804 21.0273 360.304C21.0273 359.754 20.4873 359.574 19.3873 359.264C18.1873 358.924 17.4673 358.434 17.4673 357.424C17.4673 356.714 17.8273 356.254 18.3373 355.934C18.4273 355.884 18.4173 355.754 18.3373 355.694C17.8173 355.334 17.5273 354.854 17.5273 354.184C17.5273 352.924 18.6273 352.124 20.0373 352.124C20.6673 352.124 21.2773 352.294 21.7273 352.594C22.1273 352.844 22.3773 353.184 22.3673 353.534C22.3573 353.884 22.0573 354.114 21.7273 354.094C21.5273 354.074 21.3773 353.984 21.1373 353.764C20.7673 353.434 20.4673 353.274 20.0373 353.274C19.4073 353.274 19.0073 353.624 19.0073 354.104C19.0073 354.654 19.5873 354.864 20.6173 355.154C21.8973 355.504 22.5673 355.944 22.5673 356.974C22.5673 357.664 22.2373 358.174 21.7473 358.554C21.6673 358.614 21.6773 358.734 21.7473 358.784C22.2673 359.144 22.5173 359.554 22.5173 360.184C22.5173 361.514 21.3673 362.314 19.9573 362.314C19.4273 362.314 18.8673 362.194 18.4473 361.974C17.9073 361.714 17.5473 361.304 17.5473 360.884C17.5473 360.534 17.8473 360.284 18.1873 360.304C18.3873 360.314 18.5273 360.404 18.7673 360.634C19.0973 360.974 19.4673 361.154 19.9473 361.154L19.9573 361.144ZM20.0173 358.164C20.0173 358.164 20.2573 358.224 20.3873 358.254C20.4573 358.274 20.5373 358.254 20.5973 358.224C20.8973 358.044 21.1173 357.674 21.1173 357.284C21.1173 356.754 20.7373 356.454 19.9873 356.294C19.9573 356.294 19.7773 356.254 19.6673 356.224C19.6073 356.214 19.5473 356.224 19.4973 356.244C19.1673 356.404 18.9073 356.824 18.9073 357.204C18.9073 357.704 19.2673 357.994 20.0173 358.174V358.164Z" fill="#FF00FF"/>
<path fill-rule="evenodd" clip-rule="evenodd" d="M334.311 126.177C333.547 126.177 332.927 126.797 332.927 127.561C332.927 128.326 333.547 128.945 334.311 128.945H335.556C335.633 128.945 335.696 128.883 335.696 128.805V127.561C335.696 126.797 335.076 126.177 334.311 126.177ZM337.256 128.945C337.178 128.945 337.116 128.883 337.116 128.805V127.561C337.116 126.012 335.86 124.757 334.311 124.757C332.763 124.757 331.507 126.012 331.507 127.561C331.507 129.11 332.762 130.365 334.311 130.365H335.556C335.633 130.365 335.696 130.428 335.696 130.505V132.994C335.696 133.071 335.633 133.134 335.556 133.134H334.311C332.763 133.134 331.507 134.39 331.507 135.938C331.507 137.487 332.763 138.743 334.311 138.743C335.86 138.743 337.116 137.487 337.116 135.938V134.694C337.116 134.617 337.178 134.554 337.256 134.554H339.744C339.821 134.554 339.884 134.617 339.884 134.694L339.884 135.938C339.884 137.487 341.14 138.743 342.689 138.743C344.237 138.743 345.493 137.487 345.493 135.938C345.493 134.39 344.237 133.134 342.689 133.134H341.444C341.367 133.134 341.304 133.071 341.304 132.994V130.505C341.304 130.428 341.367 130.365 341.444 130.365H342.689C344.237 130.365 345.493 129.11 345.493 127.561C345.493 126.012 344.237 124.757 342.689 124.757C341.14 124.757 339.884 126.012 339.884 127.561V128.805C339.884 128.883 339.822 128.945 339.744 128.945H337.256ZM337.256 130.365C337.178 130.365 337.116 130.428 337.116 130.505V132.994C337.116 133.071 337.178 133.134 337.256 133.134H339.744C339.821 133.134 339.884 133.071 339.884 132.994L339.884 130.505C339.884 130.428 339.822 130.365 339.744 130.365H337.256ZM341.444 134.554C341.367 134.554 341.304 134.617 341.304 134.694V135.938C341.304 136.703 341.924 137.323 342.689 137.323C343.453 137.323 344.073 136.703 344.073 135.938C344.073 135.174 343.453 134.554 342.689 134.554H341.444ZM341.304 128.805C341.304 128.883 341.367 128.945 341.444 128.945H342.689C343.453 128.945 344.073 128.326 344.073 127.561C344.073 126.797 343.453 126.177 342.689 126.177C341.924 126.177 341.304 126.797 341.304 127.561V128.805ZM335.696 134.694C335.696 134.617 335.633 134.554 335.556 134.554H334.311C333.547 134.554 332.927 135.174 332.927 135.938C332.927 136.703 333.547 137.323 334.311 137.323C335.076 137.323 335.696 136.703 335.696 135.938V134.694Z" fill="#FF00FF"/>
<path fill-rule="evenodd" clip-rule="evenodd" d="M548.225 74.7559C547.833 74.7559 547.515 75.0737 547.515 75.4659C547.515 75.858 547.833 76.1759 548.225 76.1759H551.5C551.638 76.1759 551.768 76.2441 551.846 76.3582L554.303 79.9371C554.646 80.4371 555.214 80.7359 555.82 80.7359H560.775C561.167 80.7359 561.485 80.418 561.485 80.0259C561.485 79.6337 561.167 79.3159 560.775 79.3159H555.82C555.682 79.3159 555.552 79.2477 555.474 79.1335L553.017 75.5546C552.674 75.0546 552.106 74.7559 551.5 74.7559H548.225ZM556.475 74.7559C556.083 74.7559 555.765 75.0737 555.765 75.4659C555.765 75.858 556.083 76.1759 556.475 76.1759H560.775C561.167 76.1759 561.485 75.858 561.485 75.4659C561.485 75.0737 561.167 74.7559 560.775 74.7559H556.475Z" fill="#FF00FF"/>
<rect x="743.5" y="703" width="67.5" height="54" stroke="#00FFFF"/>
<rect x="676" y="703" width="67.5" height="54" stroke="#00FFFF"/>
<rect x="608.5" y="703" width="67.5" height="54" stroke="#00FFFF"/>
<rect x="541" y="703" width="67.5" height="54" stroke="#00FFFF"/>
<rect x="136" y="703" width="67.5" height="54" stroke="#00FFFF"/>
<rect x="68.5" y="703" width="67.5" height="54" stroke="#00FFFF"/>
<rect x="1" y="703" width="67.5" height="54" stroke="#00FFFF"/>
<rect x="662.5" y="649" width="148.5" height="54" stroke="#00FFFF"/>
<rect x="1" y="649" width="121.5" height="54" stroke="#00FFFF"/>
<rect x="689.5" y="595" width="121.5" height="54" stroke="#00FFFF"/>
<rect x="1" y="595" width="94.5" height="54" stroke="#00FFFF"/>
<rect x="1" y="541" width="81" height="54" stroke="#00FFFF"/>
<rect x="703" y="487" width="108" height="54" stroke="#00FFFF"/>
<rect x="608.5" y="649" width="54" height="54" stroke="#00FFFF"/>
<rect x="554.5" y="649" width="54" height="54" stroke="#00FFFF"/>
<rect x="500.5" y="649" width="54" height="54" stroke="#00FFFF"/>
<rect x="446.5" y="649" width="54" height="54" stroke="#00FFFF"/>
<rect x="392.5" y="649" width="54" height="54" stroke="#00FFFF"/>
<rect x="338.5" y="649" width="54" height="54" stroke="#00FFFF"/>
<rect x="284.5" y="649" width="54" height="54" stroke="#00FFFF"/>
<rect x="230.5" y="649" width="54" height="54" stroke="#00FFFF"/>
<rect x="176.5" y="649" width="54" height="54" stroke="#00FFFF"/>
<rect x="122.5" y="649" width="54" height="54" stroke="#00FFFF"/>
<rect x="635.5" y="595" width="54" height="54" stroke="#00FFFF"/>
<rect x="581.5" y="595" width="54" height="54" stroke="#00FFFF"/>
<rect x="527.5" y="595" width="54" height="54" stroke="#00FFFF"/>
<rect x="473.5" y="595" width="54" height="54" stroke="#00FFFF"/>
<rect x="419.5" y="595" width="54" height="54" stroke="#00FFFF"/>
<rect x="365.5" y="595" width="54" height="54" stroke="#00FFFF"/>
<rect x="311.5" y="595" width="54" height="54" stroke="#00FFFF"/>
<rect x="257.5" y="595" width="54" height="54" stroke="#00FFFF"/>
<rect x="203.5" y="595" width="54" height="54" stroke="#00FFFF"/>
<rect x="149.5" y="595" width="54" height="54" stroke="#00FFFF"/>
<rect x="95.5" y="595" width="54" height="54" stroke="#00FFFF"/>
<rect x="730" y="541" width="81" height="54" stroke="#00FFFF"/>
<rect x="676" y="541" width="54" height="54" stroke="#00FFFF"/>
<rect x="622" y="541" width="54" height="54" stroke="#00FFFF"/>
<rect x="568" y="541" width="54" height="54" stroke="#00FFFF"/>
<rect x="514" y="541" width="54" height="54" stroke="#00FFFF"/>
<rect x="460" y="541" width="54" height="54" stroke="#00FFFF"/>
<rect x="406" y="541" width="54" height="54" stroke="#00FFFF"/>
<rect x="352" y="541" width="54" height="54" stroke="#00FFFF"/>
<rect x="298" y="541" width="54" height="54" stroke="#00FFFF"/>
<rect x="244" y="541" width="54" height="54" stroke="#00FFFF"/>
<rect x="190" y="541" width="54" height="54" stroke="#00FFFF"/>
<rect x="136" y="541" width="54" height="54" stroke="#00FFFF"/>
<rect x="82" y="541" width="54" height="54" stroke="#00FFFF"/>
<rect x="55" y="487" width="54" height="54" stroke="#00FFFF"/>
<rect x="109" y="487" width="54" height="54" stroke="#00FFFF"/>
<rect x="163" y="487" width="54" height="54" stroke="#00FFFF"/>
<rect x="217" y="487" width="54" height="54" stroke="#00FFFF"/>
<rect x="271" y="487" width="54" height="54" stroke="#00FFFF"/>
<rect x="325" y="487" width="54" height="54" stroke="#00FFFF"/>
<rect x="379" y="487" width="54" height="54" stroke="#00FFFF"/>
<rect x="433" y="487" width="54" height="54" stroke="#00FFFF"/>
<rect x="487" y="487" width="54" height="54" stroke="#00FFFF"/>
<rect x="541" y="487" width="54" height="54" stroke="#00FFFF"/>
<rect x="595" y="487" width="54" height="54" stroke="#00FFFF"/>
<rect x="649" y="487" width="54" height="54" stroke="#00FFFF"/>
<rect x="1" y="487" width="54" height="54" stroke="#00FFFF"/>
<rect x="217" y="433" width="54" height="54" stroke="#00FFFF"/>
<rect x="163" y="433" width="54" height="54" stroke="#00FFFF"/>
<rect x="109" y="433" width="54" height="54" stroke="#00FFFF"/>
<rect x="55" y="433" width="54" height="54" stroke="#00FFFF"/>
<rect x="433" y="433" width="54" height="54" stroke="#00FFFF"/>
<rect x="379" y="433" width="54" height="54" stroke="#00FFFF"/>
<rect x="325" y="433" width="54" height="54" stroke="#00FFFF"/>
<rect x="271" y="433" width="54" height="54" stroke="#00FFFF"/>
<rect x="649" y="433" width="54" height="54" stroke="#00FFFF"/>
<rect x="595" y="433" width="54" height="54" stroke="#00FFFF"/>
<rect x="541" y="433" width="54" height="54" stroke="#00FFFF"/>
<rect x="487" y="433" width="54" height="54" stroke="#00FFFF"/>
<rect x="541" y="379" width="54" height="54" stroke="#00FFFF"/>
<rect x="487" y="379" width="54" height="54" stroke="#00FFFF"/>
<rect x="433" y="379" width="54" height="54" stroke="#00FFFF"/>
<rect x="487" y="325" width="54" height="54" stroke="#00FFFF"/>
<rect x="703" y="379" width="54" height="54" stroke="#00FFFF"/>
<rect x="595" y="379" width="108" height="54" stroke="#00FFFF"/>
<rect x="757" y="325" width="54" height="108" stroke="#00FFFF"/>
<rect x="703" y="325" width="54" height="54" stroke="#00FFFF"/>
<rect x="649" y="325" width="54" height="54" stroke="#00FFFF"/>
<rect x="595" y="325" width="54" height="54" stroke="#00FFFF"/>
<rect x="703" y="271" width="54" height="54" stroke="#00FFFF"/>
<rect x="595" y="271" width="54" height="54" stroke="#00FFFF"/>
<rect x="757" y="217" width="54" height="108" stroke="#00FFFF"/>
<rect x="703" y="217" width="54" height="54" stroke="#00FFFF"/>
<rect x="649" y="217" width="54" height="54" stroke="#00FFFF"/>
<rect x="595" y="217" width="54" height="54" stroke="#00FFFF"/>
<rect x="757" y="163" width="54" height="54" stroke="#00FFFF"/>
<rect x="703" y="163" width="54" height="54" stroke="#00FFFF"/>
<rect x="649" y="163" width="54" height="54" stroke="#00FFFF"/>
<rect x="595" y="163" width="54" height="54" stroke="#00FFFF"/>
<rect x="649" y="271" width="54" height="54" stroke="#00FFFF"/>
<rect x="541" y="163" width="54" height="54" stroke="#00FFFF"/>
<rect x="487" y="163" width="54" height="54" stroke="#00FFFF"/>
<rect x="433" y="163" width="54" height="54" stroke="#00FFFF"/>
<rect x="541" y="217" width="54" height="54" stroke="#00FFFF"/>
<rect x="487" y="217" width="54" height="54" stroke="#00FFFF"/>
<rect x="433" y="217" width="54" height="54" stroke="#00FFFF"/>
<rect x="541" y="271" width="54" height="54" stroke="#00FFFF"/>
<rect x="487" y="271" width="54" height="54" stroke="#00FFFF"/>
<rect x="433" y="271" width="54" height="54" stroke="#00FFFF"/>
<rect x="595" y="757" width="81" height="54" stroke="#00FFFF"/>
<rect x="676" y="757" width="54" height="54" stroke="#00FFFF"/>
<rect x="730" y="757" width="81" height="54" stroke="#00FFFF"/>
<rect x="136" y="757" width="81" height="54" stroke="#00FFFF"/>
<rect x="82" y="757" width="54" height="54" stroke="#00FFFF"/>
<rect x="1" y="757" width="81" height="54" stroke="#00FFFF"/>
<rect x="1" y="433" width="54" height="54" stroke="#00FFFF"/>
<rect x="757" y="433" width="54" height="54" stroke="#00FFFF"/>
<rect x="703" y="433" width="54" height="54" stroke="#00FFFF"/>
<rect x="541" y="325" width="54" height="54" stroke="#00FFFF"/>
<rect x="433" y="325" width="54" height="54" stroke="#00FFFF"/>
<rect x="379" y="325" width="54" height="54" stroke="#00FFFF"/>
<rect x="379" y="379" width="54" height="54" stroke="#00FFFF"/>
<rect x="298" y="379" width="81" height="54" stroke="#00FFFF"/>
<rect x="298" y="325" width="81" height="54" stroke="#00FFFF"/>
<rect x="217" y="325" width="81" height="108" stroke="#00FFFF"/>
<rect x="176.5" y="379" width="54" height="54" stroke="#00FFFF"/>
<rect x="122.5" y="379" width="54" height="54" stroke="#00FFFF"/>
<rect x="68.5" y="379" width="54" height="54" stroke="#00FFFF"/>
<rect x="1" y="379" width="67.5" height="54" stroke="#00FFFF"/>
<rect x="109" y="325" width="54" height="54" stroke="#00FFFF"/>
<rect x="55" y="325" width="54" height="54" stroke="#00FFFF"/>
<rect x="1" y="325" width="54" height="54" stroke="#00FFFF"/>
<rect x="163" y="325" width="54" height="54" stroke="#00FFFF"/>
<rect x="271" y="271" width="94.5" height="54" stroke="#00FFFF"/>
<rect x="365.5" y="271" width="67.5" height="54" stroke="#00FFFF"/>
<rect x="217" y="271" width="54" height="54" stroke="#00FFFF"/>
<rect x="163" y="271" width="54" height="54" stroke="#00FFFF"/>
<rect x="95.5" y="271" width="67.5" height="54" stroke="#00FFFF"/>
<rect x="1" y="271" width="94.5" height="54" stroke="#00FFFF"/>
<rect x="379" y="163" width="54" height="54" stroke="#00FFFF"/>
<rect x="271" y="163" width="54" height="54" stroke="#00FFFF"/>
<rect x="163" y="163" width="108" height="54" stroke="#00FFFF"/>
<rect x="95.5" y="163" width="67.5" height="54" stroke="#00FFFF"/>
<rect x="217" y="217" width="54" height="54" stroke="#00FFFF"/>
<rect x="163" y="217" width="54" height="54" stroke="#00FFFF"/>
<rect x="95.5" y="217" width="67.5" height="54" stroke="#00FFFF"/>
<rect x="1" y="217" width="94.5" height="54" stroke="#00FFFF"/>
<rect x="1" y="163" width="94.5" height="54" stroke="#00FFFF"/>
<rect x="730" y="55" width="81" height="108" stroke="#00FFFF"/>
<rect x="635.5" y="109" width="54" height="54" stroke="#00FFFF"/>
<rect x="554.5" y="109" width="81" height="54" stroke="#00FFFF"/>
<rect x="446.5" y="109" width="108" height="54" stroke="#00FFFF"/>
<rect x="311.5" y="109" width="81" height="54" stroke="#00FFFF"/>
<rect x="257.5" y="109" width="54" height="54" stroke="#00FFFF"/>
<rect x="163" y="109" width="94.5" height="54" stroke="#00FFFF"/>
<rect x="82" y="109" width="81" height="54" stroke="#00FFFF"/>
<rect x="1" y="109" width="81" height="54" stroke="#00FFFF"/>
<rect x="635.5" y="55" width="94.5" height="54" stroke="#00FFFF"/>
<rect x="527.5" y="55" width="54" height="54" stroke="#00FFFF"/>
<rect x="473.5" y="55" width="54" height="54" stroke="#00FFFF"/>
<rect x="392.5" y="55" width="81" height="54" stroke="#00FFFF"/>
<rect x="1" y="1" width="54" height="54" stroke="#00FFFF"/>
<rect x="55" y="1" width="54" height="54" stroke="#00FFFF"/>
<rect x="109" y="1" width="54" height="54" stroke="#00FFFF"/>
<rect x="163" y="1" width="54" height="54" stroke="#00FFFF"/>
<rect x="217" y="1" width="54" height="54" stroke="#00FFFF"/>
<rect x="271" y="1" width="54" height="54" stroke="#00FFFF"/>
<rect x="325" y="1" width="54" height="54" stroke="#00FFFF"/>
<rect x="379" y="1" width="54" height="54" stroke="#00FFFF"/>
<rect x="433.5" y="1.5" width="53" height="53" stroke="#00FFFF"/>
<rect x="487.5" y="1.5" width="53" height="53" stroke="#00FFFF"/>
</svg>
