<svg width="54" height="54" viewBox="0 0 54 54" fill="none" xmlns="http://www.w3.org/2000/svg">
<path d="M9.91309 37.0476C9.83508 27.0606 9.73608 17.0726 9.61914 7.08457L9.6192 7.08213C9.62323 6.91611 9.63623 6.7501 9.65631 6.58396C9.67633 6.41892 9.70233 6.25498 9.73553 6.09153C9.76752 5.92954 9.80652 5.76853 9.85266 5.60972C9.89966 5.45176 9.95166 5.29575 10.0115 5.14158C10.1985 4.66758 10.4535 4.21665 10.77 3.81431C11.083 3.41733 11.456 3.06833 11.8725 2.78391C12.2875 2.50193 12.7465 2.28391 13.2258 2.13694C13.7078 1.98984 14.2118 1.91392 14.7141 1.90659C18.8081 1.87168 22.9021 1.85459 26.9963 1.85496C31.0893 1.85496 35.1833 1.87192 39.2776 1.9072C39.4396 1.91013 39.6016 1.92112 39.7635 1.93772C40.0035 1.96372 40.2435 2.00474 40.4799 2.0615C40.7139 2.11851 40.9449 2.1904 41.1697 2.27952C41.4037 2.37253 41.6287 2.4835 41.8449 2.61069C42.062 2.73862 42.2689 2.88267 42.4627 3.0416C42.6577 3.20164 42.8417 3.37668 43.0105 3.56321C43.1795 3.75217 43.3355 3.9542 43.476 4.16575C43.757 4.59482 43.975 5.06479 44.125 5.55649C44.276 6.05442 44.358 6.57444 44.373 7.09263C44.252 17.0696 44.154 27.0466 44.08 37.0251C44.074 37.185 44.0601 37.3451 44.039 37.5036C44.018 37.6646 43.991 37.8236 43.9569 37.9813C43.9239 38.1402 43.8839 38.2983 43.8358 38.4537C43.7888 38.6097 43.7349 38.7636 43.675 38.9156C43.484 39.3907 43.228 39.8407 42.9172 40.2495C42.6032 40.6605 42.2352 41.0285 41.8244 41.3395C41.4154 41.6495 40.9624 41.9035 40.4838 42.0906C40.0098 42.2755 39.5098 42.3955 39.0063 42.4435C31.0073 42.9535 22.9843 42.9535 14.9849 42.4436C14.6529 42.4116 14.3229 42.3476 14.0024 42.2535C13.6794 42.1595 13.3654 42.0345 13.0632 41.8819C12.4602 41.5749 11.9092 41.1568 11.4476 40.6577C10.9866 40.1606 10.6126 39.5816 10.349 38.9596C10.219 38.6516 10.115 38.3325 10.0411 38.0056C9.96912 37.6836 9.92407 37.3546 9.91113 37.0245" stroke="#16215B" stroke-width="0.283" stroke-miterlimit="10"/>
<rect x="12.6855" y="5.52831" width="28.63" height="34.31" rx="1.43" stroke="#00FFFF" stroke-width="0.28"/>
<path d="M42.9399 36.5841C42.9578 31.7321 42.9778 26.8791 43.0009 22.0272C43.0219 17.1742 43.0469 12.3221 43.0759 7.46909C43.0767 7.32443 43.0717 7.18039 43.0596 7.03745C43.0497 6.89438 43.0317 6.75143 43.0076 6.61044C42.9606 6.32834 42.8887 6.05441 42.7897 5.7894C42.7646 5.72336 42.7386 5.65744 42.7106 5.59238C42.6816 5.52634 42.6526 5.4614 42.6216 5.39841C42.5587 5.27036 42.4907 5.14743 42.4156 5.02841C42.2667 4.79037 42.0936 4.5704 41.8937 4.36642C41.6957 4.16342 41.4777 3.98642 41.2437 3.83334C41.1266 3.75742 41.0057 3.68637 40.8796 3.62241C40.8167 3.59042 40.7537 3.55942 40.6877 3.53036C40.6237 3.50034 40.5566 3.47336 40.4907 3.44736C40.2236 3.34335 39.9507 3.2684 39.6716 3.21738C39.3926 3.16635 39.1077 3.14035 38.8167 3.13742C37.8378 3.12985 36.8568 3.1218 35.8738 3.11581C34.8898 3.10886 33.9058 3.10385 32.9208 3.09885C30.9498 3.09079 28.9758 3.08688 26.9988 3.08688C26.5038 3.08688 26.0098 3.08688 25.5148 3.08688C25.0208 3.08786 24.5258 3.08884 24.0308 3.08981C23.0418 3.09189 22.0538 3.09482 21.0688 3.09885C19.0968 3.10788 17.1328 3.12082 15.1758 3.13779C15.0301 3.13889 14.8861 3.14682 14.7411 3.15988C14.5981 3.1738 14.4541 3.19284 14.3131 3.21884C14.0301 3.27084 13.7561 3.34787 13.4911 3.45187C13.4251 3.47787 13.3601 3.50485 13.2951 3.53488C13.2301 3.56381 13.1651 3.59579 13.1021 3.6279C12.9751 3.69382 12.8541 3.76486 12.7361 3.84286C12.5011 3.9968 12.2841 4.17587 12.0861 4.37985C12.0371 4.4299 11.9891 4.48288 11.9431 4.53586C11.8971 4.58884 11.8521 4.64279 11.8091 4.69882C11.7231 4.80881 11.6431 4.9238 11.5691 5.04184C11.4951 5.16086 11.4281 5.2839 11.3651 5.40988C11.3351 5.47287 11.3061 5.53683 11.2781 5.60287C11.2501 5.66782 11.2241 5.73483 11.1991 5.80185C11.1011 6.06784 11.0301 6.34079 10.9841 6.61887C10.9381 6.89682 10.9151 7.18088 10.9171 7.46982C10.9454 12.3224 10.9714 17.1744 10.9935 22.0274C11.0165 26.8794 11.0355 31.7324 11.0535 36.5844C11.0541 36.8712 11.0781 37.1551 11.1281 37.4392C11.1411 37.5101 11.1552 37.5811 11.1701 37.6511C11.1862 37.7212 11.2021 37.7911 11.2211 37.8601C11.2581 37.9991 11.3011 38.1351 11.3502 38.2701C11.3991 38.4051 11.4531 38.5382 11.5151 38.6682C11.5461 38.7331 11.5771 38.7982 11.6121 38.8622C11.6461 38.9261 11.6812 38.9901 11.7181 39.0532C11.8651 39.3032 12.0331 39.5361 12.2241 39.7531C12.3192 39.8612 12.4201 39.9652 12.5272 40.0652C12.5791 40.1151 12.6342 40.1632 12.6901 40.2102C12.7451 40.2572 12.8011 40.3021 12.8591 40.3462C13.0881 40.5211 13.3322 40.6721 13.5921 40.7982C13.6571 40.8302 13.7231 40.8601 13.7902 40.8882C13.8571 40.9171 13.9241 40.9431 13.9921 40.9681C14.1281 41.0182 14.2651 41.0611 14.4041 41.0971C14.6801 41.1692 14.9631 41.2131 15.2512 41.2312C16.2243 41.2916 17.1993 41.3446 18.1773 41.3896C19.1533 41.4356 20.1323 41.4726 21.1113 41.5027C23.0683 41.5636 25.0293 41.5936 26.9943 41.5936C27.4853 41.5936 27.9773 41.5916 28.4683 41.5876C28.9593 41.5846 29.4513 41.5786 29.9423 41.5706C30.9253 41.5556 31.9063 41.5335 32.8863 41.5027C34.8443 41.4426 36.7963 41.3526 38.7416 41.2315C38.8866 41.2226 39.0296 41.2066 39.1726 41.1845C39.2436 41.1726 39.3146 41.1596 39.3866 41.1446C39.4566 41.1296 39.5276 41.1136 39.5966 41.0946C39.8766 41.0226 40.1456 40.9226 40.4046 40.7956C40.4706 40.7646 40.5336 40.7315 40.5966 40.6966C40.6606 40.6616 40.7236 40.6246 40.7856 40.5855C40.9096 40.5096 41.0286 40.4266 41.1426 40.3386C41.3726 40.1635 41.5826 39.9666 41.7736 39.7486C41.8216 39.6936 41.8676 39.6375 41.9136 39.5807C41.9586 39.5237 42.0026 39.4655 42.0446 39.4066C42.1296 39.2896 42.2076 39.1685 42.2796 39.0446C42.4256 38.7966 42.5466 38.5376 42.6446 38.2656C42.6696 38.1976 42.6926 38.1286 42.7146 38.0595C42.7356 37.9906 42.7556 37.9216 42.7736 37.8526C42.8106 37.7136 42.8416 37.5746 42.8656 37.4345C42.9146 37.1537 42.9386 36.8706 42.9399 36.5841Z" stroke="#FF00FF" stroke-width="0.283465" stroke-miterlimit="10" stroke-linecap="round" stroke-linejoin="round"/>
<path d="M21.8967 29.8783C21.6253 29.8783 21.3562 29.7803 21.142 29.5892C20.77 29.2573 20.658 28.7291 20.8633 28.2749L21.829 26.1381C21.8574 26.0752 21.8363 26.0012 21.7792 25.9624C21.5379 25.7985 21.3106 25.6232 21.0996 25.4381C20.728 25.1119 20.406 24.7543 20.1426 24.3752C19.8691 23.9815 19.6578 23.5633 19.5147 23.1322C19.3656 22.6828 19.29 22.2179 19.29 21.7506C19.29 20.9466 19.5084 20.1701 19.9391 19.4427C20.3423 18.7618 20.9137 18.1544 21.6374 17.6375C22.3435 17.1332 23.1618 16.7384 24.0697 16.4641C24.9993 16.1832 25.9851 16.0408 26.9997 16.0408C28.0143 16.0408 29 16.1832 29.9296 16.464C30.8375 16.7383 31.6558 17.1331 32.3619 17.6374C33.0856 18.1544 33.657 18.7617 34.0602 19.4426C34.4909 20.17 34.7093 20.9465 34.7093 21.7505C34.7093 22.5545 34.4909 23.331 34.0602 24.0584C33.657 24.7393 33.0856 25.3467 32.3619 25.8636C31.6559 26.3679 30.8375 26.7627 29.9296 27.037C29 27.3178 28.0142 27.4603 26.9997 27.4603C26.78 27.4603 26.5589 27.4534 26.3398 27.4398C26.3113 27.438 26.2829 27.4448 26.2584 27.4595L22.4796 29.7166C22.298 29.825 22.0967 29.8783 21.8967 29.8783ZM26.9997 17.4607C26.1244 17.4607 25.2768 17.5827 24.4804 17.8233C23.7212 18.0527 23.0424 18.3789 22.4628 18.7929C21.3324 19.6003 20.7099 20.6507 20.7099 21.7506C20.7099 22.3826 20.9114 22.9931 21.3088 23.5651C21.7072 24.1385 22.2989 24.6561 23.0201 25.0618C23.2049 25.1659 23.3434 25.3335 23.4107 25.5339C23.4793 25.7382 23.4683 25.9587 23.3796 26.1548L22.6244 27.8258C22.5958 27.889 22.6657 27.9514 22.7253 27.9158L25.7225 26.1255C25.877 26.0334 26.0526 25.993 26.2309 26.0082C26.4839 26.0295 26.7427 26.0404 26.9995 26.0404C27.8748 26.0404 28.7224 25.9184 29.5187 25.6778C30.2779 25.4484 30.9567 25.1222 31.5363 24.7082C32.6666 23.9008 33.2892 22.8504 33.2892 21.7505C33.2892 20.6506 32.6667 19.6002 31.5363 18.7928C30.9567 18.3788 30.2779 18.0526 29.5187 17.8232C28.7224 17.5826 27.8748 17.4606 26.9995 17.4606L26.9997 17.4607ZM26.1114 27.4231C26.1114 27.4231 26.112 27.4231 26.1123 27.4231C26.112 27.4231 26.1117 27.4231 26.1114 27.4231Z" fill="black"/>
</svg>
