<svg width="81" height="54" viewBox="0 0 81 54" fill="none" xmlns="http://www.w3.org/2000/svg">
<path d="M71.0068 37.0027C71.0848 27.0807 71.1919 17.1587 71.3298 7.23665C71.3199 6.87965 71.2788 6.52266 71.2035 6.17201C71.1305 5.82301 71.0245 5.48201 70.8847 5.15382C70.7467 4.82881 70.5757 4.51686 70.376 4.22511C70.176 3.93513 69.948 3.66512 69.6949 3.42079C69.4419 3.17781 69.1649 2.96077 68.8693 2.77412C68.5733 2.58711 68.2583 2.42915 67.9325 2.30342C67.6065 2.17744 67.2675 2.0815 66.9237 2.01741C66.5777 1.95345 66.2278 1.91939 65.8745 1.91585C48.9605 1.82491 32.0455 1.82491 15.1317 1.91548C14.7937 1.92159 14.4567 1.95454 14.1241 2.01485C13.7921 2.07381 13.4641 2.15974 13.1495 2.27437C12.9005 2.36739 12.6575 2.47835 12.4246 2.60493C12.1925 2.73299 11.9685 2.87801 11.7568 3.03865C11.5458 3.20058 11.3468 3.37856 11.163 3.57112C10.9779 3.76515 10.8099 3.97414 10.6587 4.19398C10.5067 4.41493 10.3716 4.64796 10.2538 4.88844C10.1358 5.13149 10.0358 5.38149 9.95245 5.63869C9.78644 6.15468 9.69144 6.69667 9.67773 7.23622C9.81174 17.1582 9.91876 27.0802 10.0002 37.0013C10.0251 37.6633 10.1751 38.3273 10.44 38.9409C10.709 39.5659 11.095 40.1389 11.571 40.6231C12.05 41.1111 12.618 41.5101 13.2408 41.796C13.8578 42.0809 14.5288 42.254 15.2026 42.3051C23.6317 42.6481 32.0667 42.8191 40.5034 42.819C48.9394 42.819 57.3744 42.648 65.8044 42.3047C66.4783 42.2537 67.1483 42.0807 67.7662 41.7968C68.3882 41.5098 68.9572 41.1109 69.4361 40.6232C69.9111 40.1383 70.2971 39.5662 70.5675 38.9408C70.8305 38.3278 70.9825 37.6638 71.0066 37.0007" stroke="#16215B" stroke-width="0.283" stroke-miterlimit="10"/>
<path d="M11.2583 38.7131V6.44019C11.2583 5.26575 12.2093 4.31372 13.3843 4.31372H16.9273H64.1312H67.6743C68.8483 4.31372 69.8003 5.26575 69.8003 6.4397V38.7127C69.8003 39.8871 68.8483 40.8391 67.6743 40.8391L13.3843 40.8392C12.2093 40.8392 11.2583 39.8871 11.2583 38.7131Z" stroke="#00FFFF" stroke-width="0.28" stroke-miterlimit="10"/>
<path d="M65.6805 41.1327C48.9365 41.8178 32.0695 41.8178 15.3265 41.1327C15.0304 41.12 14.7384 41.083 14.4494 41.018C14.3044 40.986 14.1624 40.947 14.0224 40.902C13.8833 40.856 13.7453 40.805 13.6104 40.746C13.4754 40.688 13.3443 40.623 13.2154 40.552C13.1503 40.516 13.0864 40.478 13.0224 40.439C12.9603 40.4 12.8984 40.36 12.8384 40.318C12.5964 40.15 12.3724 39.961 12.1694 39.749C12.1184 39.696 12.0683 39.642 12.0194 39.586C11.9714 39.531 11.9244 39.473 11.8783 39.415C11.7874 39.3 11.7023 39.18 11.6243 39.057C11.4684 38.811 11.3374 38.552 11.2304 38.28C11.2044 38.211 11.1794 38.142 11.1564 38.073C11.1333 38.003 11.1113 37.933 11.0914 37.863C11.0524 37.723 11.0184 37.582 10.9924 37.44C10.9393 37.156 10.9133 36.869 10.9124 36.577C10.8963 31.7904 10.8783 27.0025 10.8583 22.2155C10.8382 17.4284 10.8153 12.6414 10.7903 7.85341C10.7815 7.69783 10.7755 7.54182 10.7765 7.38686C10.7775 7.23085 10.7865 7.07686 10.8035 6.92287C10.8105 6.84584 10.8215 6.76881 10.8335 6.69185C10.8455 6.61482 10.8595 6.53883 10.8755 6.46187C10.9075 6.31087 10.9475 6.16182 10.9955 6.01485C11.0425 5.86885 11.0975 5.72585 11.1625 5.58485C11.1935 5.51485 11.2275 5.44582 11.2635 5.37685C11.3005 5.30885 11.3385 5.24086 11.3785 5.17384C11.5375 4.90883 11.7245 4.66682 11.9395 4.44685C11.9935 4.39186 12.0495 4.33784 12.1065 4.28682C12.1355 4.25984 12.1645 4.23482 12.1935 4.20882C12.2235 4.18385 12.2535 4.15883 12.2835 4.13387C12.4045 4.03682 12.5305 3.94582 12.6605 3.86287C12.9205 3.69685 13.1985 3.55983 13.4925 3.44887C13.7865 3.33882 14.0875 3.25984 14.3925 3.20686C14.6985 3.15382 15.0105 3.12685 15.3255 3.12581C32.07 3.03383 48.937 3.03383 65.68 3.12581C65.9961 3.12691 66.3081 3.15388 66.6131 3.20686C66.9191 3.2599 67.2201 3.33888 67.5141 3.44887C67.8081 3.55989 68.0851 3.69691 68.3461 3.86287C68.4761 3.94588 68.6011 4.0359 68.7221 4.13387C68.7521 4.15889 68.7821 4.18391 68.8121 4.20888C68.8411 4.2339 68.8701 4.2599 68.9001 4.2859C68.9561 4.33791 69.0121 4.39186 69.0661 4.44691C69.2801 4.66591 69.4681 4.90889 69.6281 5.1739C69.6681 5.23988 69.7061 5.30788 69.7421 5.37691C69.7791 5.4449 69.8121 5.51491 69.8441 5.58492C69.9071 5.72487 69.9631 5.86891 70.0111 6.01491C70.0591 6.1609 70.0991 6.30989 70.1301 6.46187C70.1471 6.53792 70.1601 6.61488 70.1731 6.69087C70.1851 6.7679 70.1951 6.84486 70.2031 6.92189C70.2201 7.07588 70.2281 7.23091 70.2301 7.38588C70.2311 7.54091 70.2251 7.69691 70.2161 7.85286C70.191 12.64 70.168 17.428 70.148 22.215C70.127 27.002 70.11 31.79 70.094 36.5767C70.093 36.8687 70.066 37.1587 70.013 37.4458C69.986 37.5907 69.952 37.7327 69.912 37.8717C69.872 38.0117 69.826 38.1497 69.773 38.2847C69.72 38.4198 69.66 38.5527 69.594 38.6837C69.561 38.7497 69.526 38.8147 69.49 38.8787C69.452 38.9428 69.414 39.0058 69.375 39.0667C69.217 39.3137 69.036 39.5427 68.832 39.7547C68.782 39.8067 68.729 39.8587 68.675 39.9087C68.621 39.9597 68.566 40.0087 68.509 40.0567C68.396 40.1527 68.28 40.2417 68.159 40.3237C67.917 40.4898 67.661 40.6317 67.39 40.7487C67.323 40.7777 67.253 40.8057 67.184 40.8317C67.115 40.8577 67.045 40.8817 66.975 40.9038C66.835 40.9497 66.694 40.9877 66.551 41.0197C66.266 41.0827 65.975 41.1207 65.6805 41.1327Z" stroke="#FF00FF" stroke-width="0.283465" stroke-miterlimit="10" stroke-linecap="round" stroke-linejoin="round"/>
<path d="M62.7894 46.9191V52.01H62.1729V47.5654H62.1431L60.9002 48.3907V47.7643L62.1729 46.9191H62.7894ZM64.3903 52.0498C64.2676 52.0498 64.1624 52.0059 64.0746 51.918C63.9867 51.8302 63.9428 51.725 63.9428 51.6023C63.9428 51.4797 63.9867 51.3745 64.0746 51.2866C64.1624 51.1988 64.2676 51.1549 64.3903 51.1549C64.5129 51.1549 64.6181 51.1988 64.706 51.2866C64.7938 51.3745 64.8377 51.4797 64.8377 51.6023C64.8377 51.6835 64.817 51.7581 64.7756 51.8261C64.7358 51.894 64.6819 51.9487 64.614 51.9901C64.5477 52.0299 64.4731 52.0498 64.3903 52.0498ZM67.3689 52.0796C67.0772 52.0796 66.8145 52.0216 66.5809 51.9056C66.3472 51.7896 66.1599 51.6305 66.0191 51.4283C65.8782 51.2262 65.8012 50.9958 65.7879 50.7373H66.3845C66.4077 50.9676 66.5121 51.1582 66.6977 51.309C66.885 51.4582 67.1087 51.5327 67.3689 51.5327C67.5777 51.5327 67.7633 51.4838 67.9257 51.3861C68.0898 51.2883 68.2182 51.1541 68.311 50.9834C68.4055 50.811 68.4527 50.6163 68.4527 50.3992C68.4527 50.1771 68.4038 49.9791 68.306 49.8051C68.2099 49.6294 68.0773 49.4911 67.9083 49.39C67.7393 49.2889 67.5462 49.2375 67.3291 49.2359C67.1733 49.2342 67.0134 49.2582 66.8493 49.308C66.6853 49.356 66.5502 49.4182 66.4442 49.4944L65.8675 49.4248L66.1757 46.9191H68.8206V47.466H66.6927L66.5138 48.9674H66.5436C66.648 48.8845 66.7789 48.8158 66.9363 48.7611C67.0938 48.7064 67.2578 48.679 67.4285 48.679C67.7401 48.679 68.0177 48.7536 68.2613 48.9028C68.5065 49.0503 68.6988 49.2524 68.838 49.5093C68.9788 49.7662 69.0493 50.0595 69.0493 50.3893C69.0493 50.7141 68.9764 51.0041 68.8305 51.2593C68.6863 51.5129 68.4875 51.7134 68.2339 51.8609C67.9804 52.0067 67.692 52.0796 67.3689 52.0796Z" fill="#0000FF"/>
<path fill-rule="evenodd" clip-rule="evenodd" d="M18.5426 7.98524C20.0509 7.12708 21.7922 6.70824 22.9999 6.70824C24.2075 6.70824 25.9488 7.12708 27.4572 7.98524C28.9658 8.8435 30.373 10.2218 30.6408 12.2037C30.9054 14.1613 30.5614 15.7718 29.8921 16.7881C29.7677 16.977 29.6897 17.1434 29.6564 17.2952C29.5076 17.9743 29.2891 18.5206 28.9082 18.949C28.5258 19.3792 28.0441 19.6175 27.5247 19.8048C27.227 19.9122 27.0234 20.1547 26.9742 20.4332C26.7537 21.681 26.4429 22.7766 25.8275 23.5592C25.1662 24.4 24.2295 24.7918 22.9999 24.7918C21.7702 24.7918 20.8335 24.4 20.1723 23.5592C19.5568 22.7766 19.2461 21.681 19.0256 20.4332C18.9764 20.1547 18.7727 19.9122 18.475 19.8048C17.9557 19.6175 17.4739 19.3792 17.0915 18.949C16.7107 18.5206 16.4921 17.9743 16.3433 17.2952C16.3101 17.1434 16.2321 16.977 16.1077 16.7881C15.4384 15.7718 15.0944 14.1613 15.359 12.2037C15.6268 10.2218 17.034 8.8435 18.5426 7.98524ZM18.3614 15.5649C18.2254 14.283 19.6835 13.7117 20.6435 13.6469C21.1522 13.6126 22.4886 13.6469 22.3915 15.0065C22.2459 17.0458 20.6435 17.7014 19.9152 17.6042C19.1868 17.5071 18.5313 17.1672 18.3614 15.5649ZM27.6383 15.5649C27.7743 14.283 26.3162 13.7117 25.3562 13.6469C24.8475 13.6126 23.5111 13.6469 23.6082 15.0065C23.7538 17.0458 25.3562 17.7014 26.0845 17.6042C26.8129 17.5071 27.4684 17.1672 27.6383 15.5649ZM23.055 17.5506C23.0117 17.5256 22.9583 17.5256 22.915 17.5506L22.0311 18.0609C21.7664 18.2138 21.6757 18.5523 21.8286 18.817C21.9814 19.0818 22.3199 19.1725 22.5846 19.0196L22.5873 19.0181L22.845 18.8693C22.9316 18.8193 23.0384 18.8193 23.125 18.8693L23.3827 19.0181L23.3853 19.0196C23.65 19.1724 23.9886 19.0817 24.1414 18.817C24.2942 18.5523 24.2035 18.2137 23.9388 18.0609L23.055 17.5506Z" fill="black"/>
<path d="M35.0394 31.4817C35.7964 31.4817 36.2994 32.141 36.3043 33.1568C36.2994 34.1628 35.8256 34.8319 35.0394 34.8319C34.2532 34.8319 33.7648 34.1775 33.7648 33.1568C33.7648 32.1312 34.2824 31.4817 35.0394 31.4817ZM32.5195 33.1569C32.5195 34.8125 33.3546 35.8331 34.6684 35.8331C35.1544 35.8331 35.9245 35.5891 36.2254 35.4871C36.2929 35.4642 36.3676 35.4939 36.3993 35.5579C36.4073 35.5742 36.4156 35.5904 36.426 35.6052C36.5454 35.7757 36.7211 35.8477 36.9198 35.8477C37.2666 35.8477 37.5107 35.6231 37.5107 35.2226V29.245C37.5106 28.8347 37.2616 28.6052 36.905 28.6052C36.5484 28.6052 36.2945 28.8347 36.2945 29.245V30.7251C36.2945 30.8278 36.1886 30.8967 36.095 30.8545C35.7331 30.6916 35.1304 30.4854 34.6487 30.4854C33.3497 30.4854 32.5195 31.5061 32.5195 33.1568V33.1569Z" fill="black"/>
<path d="M30.3527 33.8314C30.3527 34.4563 29.7962 34.9153 29.1126 34.9153C28.5854 34.9153 28.2289 34.6468 28.2289 34.2221C28.2289 33.7974 28.5658 33.5484 29.1516 33.5093L30.3 33.4393C30.3285 33.4376 30.3526 33.4602 30.3526 33.4888V33.8316L30.3527 33.8314ZM29.4348 30.4675C28.4437 30.4675 27.8721 30.8078 27.5798 31.1352C27.4105 31.3249 27.3888 31.7243 27.621 31.91C27.8924 32.127 28.347 31.9646 28.5032 31.7726C28.6434 31.6002 28.9582 31.4251 29.3858 31.4195C29.9862 31.4116 30.3525 31.732 30.3525 32.2739V32.4765C30.3525 32.5028 30.332 32.5245 30.3057 32.526L28.9805 32.6015C27.7211 32.6796 27.0132 33.3529 27.0132 34.2707C27.0132 35.1885 27.7431 35.833 28.7415 35.833C29.3733 35.833 29.9892 35.668 30.2956 35.5427C30.3599 35.5164 30.4336 35.5412 30.4698 35.6005C30.4726 35.605 30.475 35.6088 30.477 35.6117C30.5584 35.7276 30.7049 35.8476 30.9629 35.8476C31.3047 35.8476 31.5536 35.6279 31.5536 35.2374V32.186C31.5536 31.1461 30.7188 30.4675 29.4348 30.4675Z" fill="black"/>
<path d="M24.8833 32.5481H22.7941C22.7035 32.5481 22.6367 32.4643 22.6557 32.3757C22.7923 31.737 23.2639 31.4094 23.8583 31.4094C24.4527 31.4094 24.9068 31.7242 25.023 32.3825C25.0383 32.469 24.9712 32.5481 24.8833 32.5481ZM23.8535 30.4669C22.3593 30.4669 21.4072 31.5313 21.4072 33.1818C21.4072 34.8323 22.3398 35.8527 23.9219 35.8527C24.7221 35.8527 25.3081 35.6749 25.8078 35.1199C26.0315 34.8715 25.9716 34.5008 25.6755 34.3423C25.4261 34.2087 25.1424 34.3368 25.0031 34.4662C24.5604 34.8776 24.2356 34.9152 23.9122 34.9152C23.166 34.9152 22.676 34.4305 22.623 33.607C22.6177 33.5249 22.6821 33.4552 22.7644 33.4552H25.7186C25.9998 33.4552 26.2292 33.2304 26.2356 32.9493C26.2683 31.5064 25.2931 30.4669 23.8535 30.4669Z" fill="black"/>
<path d="M17.1934 28.704H15.25C14.8594 28.704 14.6201 28.9481 14.6201 29.3583V35.0957C14.6201 35.5059 14.8594 35.75 15.25 35.75H17.1934C19.3028 35.75 20.543 34.4414 20.543 32.2099C20.543 29.9784 19.298 28.704 17.1934 28.704ZM17.0616 34.6855H16.0217C15.9434 34.6855 15.88 34.622 15.88 34.5438V29.9102C15.88 29.8319 15.9435 29.7685 16.0217 29.7685H17.0616C18.4679 29.7685 19.2589 30.6377 19.2589 32.2148C19.2589 33.7919 18.4776 34.6855 17.0616 34.6855Z" fill="black"/>
</svg>
