<svg width="55" height="54" viewBox="0 0 55 54" fill="none" xmlns="http://www.w3.org/2000/svg">
<path d="M10.4131 37.0476C10.3351 27.0606 10.2361 17.0726 10.1191 7.08457L10.1192 7.08213C10.1232 6.91611 10.1362 6.7501 10.1563 6.58396C10.1763 6.41892 10.2023 6.25498 10.2355 6.09153C10.2675 5.92954 10.3065 5.76853 10.3527 5.60972C10.3997 5.45176 10.4517 5.29575 10.5115 5.14158C10.6985 4.66758 10.9535 4.21665 11.27 3.81431C11.583 3.41733 11.956 3.06833 12.3725 2.78391C12.7875 2.50193 13.2465 2.28391 13.7258 2.13694C14.2078 1.98984 14.7118 1.91392 15.2141 1.90659C19.3081 1.87168 23.4021 1.85459 27.4963 1.85496C31.5893 1.85496 35.6833 1.87192 39.7776 1.9072C39.9396 1.91013 40.1016 1.92112 40.2635 1.93772C40.5035 1.96372 40.7435 2.00474 40.9799 2.0615C41.2139 2.11851 41.4449 2.1904 41.6697 2.27952C41.9037 2.37253 42.1287 2.4835 42.3449 2.61069C42.562 2.73862 42.7689 2.88267 42.9627 3.0416C43.1577 3.20164 43.3417 3.37668 43.5105 3.56321C43.6795 3.75217 43.8355 3.9542 43.976 4.16575C44.257 4.59482 44.475 5.06479 44.625 5.55649C44.776 6.05442 44.858 6.57444 44.873 7.09263C44.752 17.0696 44.654 27.0466 44.58 37.0251C44.574 37.185 44.5601 37.3451 44.539 37.5036C44.518 37.6646 44.491 37.8236 44.4569 37.9813C44.4239 38.1402 44.3839 38.2983 44.3358 38.4537C44.2888 38.6097 44.2349 38.7636 44.175 38.9156C43.984 39.3907 43.728 39.8407 43.4172 40.2495C43.1032 40.6605 42.7352 41.0285 42.3244 41.3395C41.9154 41.6495 41.4624 41.9035 40.9838 42.0906C40.5098 42.2755 40.0098 42.3955 39.5063 42.4435C31.5073 42.9535 23.4843 42.9535 15.4849 42.4436C15.1529 42.4116 14.8229 42.3476 14.5024 42.2535C14.1794 42.1595 13.8654 42.0345 13.5632 41.8819C12.9602 41.5749 12.4092 41.1568 11.9476 40.6577C11.4866 40.1606 11.1126 39.5816 10.849 38.9596C10.719 38.6516 10.615 38.3325 10.5411 38.0056C10.4691 37.6836 10.4241 37.3546 10.4111 37.0245" stroke="#16215B" stroke-width="0.283" stroke-miterlimit="10"/>
<rect x="13.1855" y="5.52831" width="28.63" height="34.31" rx="1.43" stroke="#00FFFF" stroke-width="0.28"/>
<path d="M43.4399 36.5841C43.4578 31.7321 43.4778 26.8791 43.5009 22.0272C43.5219 17.1742 43.5469 12.3221 43.5759 7.46909C43.5767 7.32443 43.5717 7.18039 43.5596 7.03745C43.5497 6.89438 43.5317 6.75143 43.5076 6.61044C43.4606 6.32834 43.3887 6.05441 43.2897 5.7894C43.2646 5.72336 43.2386 5.65744 43.2106 5.59238C43.1816 5.52634 43.1526 5.4614 43.1216 5.39841C43.0587 5.27036 42.9907 5.14743 42.9156 5.02841C42.7667 4.79037 42.5936 4.5704 42.3937 4.36642C42.1957 4.16342 41.9777 3.98642 41.7437 3.83334C41.6266 3.75742 41.5057 3.68637 41.3796 3.62241C41.3167 3.59042 41.2537 3.55942 41.1877 3.53036C41.1237 3.50034 41.0566 3.47336 40.9907 3.44736C40.7236 3.34335 40.4507 3.2684 40.1716 3.21738C39.8926 3.16635 39.6077 3.14035 39.3167 3.13742C38.3378 3.12985 37.3568 3.1218 36.3738 3.11581C35.3898 3.10886 34.4058 3.10385 33.4208 3.09885C31.4498 3.09079 29.4758 3.08688 27.4988 3.08688C27.0038 3.08688 26.5098 3.08688 26.0148 3.08688C25.5208 3.08786 25.0258 3.08884 24.5308 3.08981C23.5418 3.09189 22.5538 3.09482 21.5688 3.09885C19.5968 3.10788 17.6328 3.12082 15.6758 3.13779C15.5301 3.13889 15.3861 3.14682 15.2411 3.15988C15.0981 3.1738 14.9541 3.19284 14.8131 3.21884C14.5301 3.27084 14.2561 3.34787 13.9911 3.45187C13.9251 3.47787 13.8601 3.50485 13.7951 3.53488C13.7301 3.56381 13.6651 3.59579 13.6021 3.6279C13.4751 3.69382 13.3541 3.76486 13.2361 3.84286C13.0011 3.9968 12.7841 4.17587 12.5861 4.37985C12.5371 4.4299 12.4891 4.48288 12.4431 4.53586C12.3971 4.58884 12.3521 4.64279 12.3091 4.69882C12.2231 4.80881 12.1431 4.9238 12.0691 5.04184C11.9951 5.16086 11.9281 5.2839 11.8651 5.40988C11.8351 5.47287 11.8061 5.53683 11.7781 5.60287C11.7501 5.66782 11.7241 5.73483 11.6991 5.80185C11.6011 6.06784 11.5301 6.34079 11.4841 6.61887C11.4381 6.89682 11.4151 7.18088 11.4171 7.46982C11.4454 12.3224 11.4714 17.1744 11.4935 22.0274C11.5165 26.8794 11.5355 31.7324 11.5535 36.5844C11.5541 36.8712 11.5781 37.1551 11.6281 37.4392C11.6411 37.5101 11.6552 37.5811 11.6701 37.6511C11.6862 37.7212 11.7021 37.7911 11.7211 37.8601C11.7581 37.9991 11.8011 38.1351 11.8502 38.2701C11.8991 38.4051 11.9531 38.5382 12.0151 38.6682C12.0461 38.7331 12.0771 38.7982 12.1121 38.8622C12.1461 38.9261 12.1812 38.9901 12.2181 39.0532C12.3651 39.3032 12.5331 39.5361 12.7241 39.7531C12.8192 39.8612 12.9201 39.9652 13.0272 40.0652C13.0791 40.1151 13.1342 40.1632 13.1901 40.2102C13.2451 40.2572 13.3011 40.3021 13.3591 40.3462C13.5881 40.5211 13.8322 40.6721 14.0921 40.7982C14.1571 40.8302 14.2231 40.8601 14.2902 40.8882C14.3571 40.9171 14.4241 40.9431 14.4921 40.9681C14.6281 41.0182 14.7651 41.0611 14.9041 41.0971C15.1801 41.1692 15.4631 41.2131 15.7512 41.2312C16.7243 41.2916 17.6993 41.3446 18.6773 41.3896C19.6533 41.4356 20.6323 41.4726 21.6113 41.5027C23.5683 41.5636 25.5293 41.5936 27.4943 41.5936C27.9853 41.5936 28.4773 41.5916 28.9683 41.5876C29.4593 41.5846 29.9513 41.5786 30.4423 41.5706C31.4253 41.5556 32.4063 41.5335 33.3863 41.5027C35.3443 41.4426 37.2963 41.3526 39.2416 41.2315C39.3866 41.2226 39.5296 41.2066 39.6726 41.1845C39.7436 41.1726 39.8146 41.1596 39.8866 41.1446C39.9566 41.1296 40.0276 41.1136 40.0966 41.0946C40.3766 41.0226 40.6456 40.9226 40.9046 40.7956C40.9706 40.7646 41.0336 40.7315 41.0966 40.6966C41.1606 40.6616 41.2236 40.6246 41.2856 40.5855C41.4096 40.5096 41.5286 40.4266 41.6426 40.3386C41.8726 40.1635 42.0826 39.9666 42.2736 39.7486C42.3216 39.6936 42.3676 39.6375 42.4136 39.5807C42.4586 39.5237 42.5026 39.4655 42.5446 39.4066C42.6296 39.2896 42.7076 39.1685 42.7796 39.0446C42.9256 38.7966 43.0466 38.5376 43.1446 38.2656C43.1696 38.1976 43.1926 38.1286 43.2146 38.0595C43.2356 37.9906 43.2556 37.9216 43.2736 37.8526C43.3106 37.7136 43.3416 37.5746 43.3656 37.4345C43.4146 37.1537 43.4386 36.8706 43.4399 36.5841Z" stroke="#FF00FF" stroke-width="0.283465" stroke-miterlimit="10" stroke-linecap="round" stroke-linejoin="round"/>
<path d="M26.9374 9.32666C26.8526 9.04376 26.7142 8.78426 26.526 8.55526C26.3379 8.32626 26.1101 8.14016 25.849 8.00206C25.5778 7.85866 25.2841 7.77436 24.9761 7.75166C24.4534 7.71306 23.9323 7.86166 23.5086 8.16986C23.2438 8.36246 23.0266 8.61056 22.8707 8.89376C22.8174 8.99056 22.6782 8.99126 22.6237 8.89496C22.4665 8.61716 22.2512 8.37326 21.9905 8.18226C21.5606 7.86726 21.031 7.71326 20.4991 7.74876C19.8521 7.79196 19.2534 8.11096 18.8567 8.62386C18.4599 9.13676 18.3016 9.79636 18.4223 10.4335L18.968 13.3137C18.9829 13.3922 18.93 13.4677 18.8511 13.48C18.4809 13.5378 18.1263 13.6559 17.7918 13.8332C17.3285 14.0787 16.9209 14.4354 16.613 14.8648C16.3051 15.2942 16.0979 15.7947 16.0139 16.3122C15.9243 16.8642 15.9711 17.4164 16.1529 17.9535L16.9212 20.223C17.6366 22.3364 19.6164 23.7563 21.8476 23.7563H22.2071C23.3419 23.7563 24.444 23.3466 25.3103 22.6027C26.1719 21.8629 26.7462 20.8398 26.9274 19.7221C26.9661 19.4841 26.9857 19.2412 26.9857 19.0003V18.6609C26.9857 17.9072 26.7496 17.1766 26.3148 16.5686C26.2738 16.5112 26.2561 16.4404 26.2646 16.3704L27.0137 10.2315C27.0511 9.92496 27.0254 9.62046 26.9373 9.32666H26.9374ZM25.5684 19.0003C25.5684 19.1654 25.555 19.3318 25.5284 19.4951C25.4006 20.2834 24.9953 21.0051 24.387 21.5274C23.7776 22.0507 23.0034 22.3389 22.2071 22.3389H21.8476C20.2244 22.3389 18.7841 21.3059 18.2636 19.7684L17.4953 17.4989C17.2859 16.8804 17.3841 16.2213 17.7647 15.6907C18.1453 15.1601 18.738 14.8558 19.391 14.8558H19.6836C19.9299 14.8558 20.1669 14.7522 20.3275 14.5654C20.4881 14.3786 20.5624 14.1155 20.515 13.8652L19.8148 10.1695C19.7689 9.92706 19.8267 9.68606 19.9777 9.49096C20.1287 9.29586 20.3474 9.17926 20.5935 9.16286C21.0068 9.13536 21.378 9.40726 21.4762 9.80966L22.311 13.2318C22.4236 13.6932 23.0797 13.6932 23.1922 13.2318L24.0358 9.77316C24.1288 9.39186 24.4805 9.13606 24.8718 9.16496C25.0921 9.18126 25.2907 9.28416 25.4309 9.45486C25.5711 9.62556 25.6336 9.84026 25.6068 10.0596L24.8876 15.9533C24.8766 16.0438 24.7842 16.1005 24.6985 16.0693L23.728 15.7164C23.3973 15.5961 23.0512 15.5419 22.6994 15.5552L21.3823 15.6053C21.0617 15.6175 20.7484 15.7136 20.4762 15.8834C20.204 16.0531 19.9797 16.2921 19.8277 16.5746C19.6286 16.9444 19.5616 17.3753 19.6388 17.7882C19.7159 18.2004 19.9338 18.5779 20.2524 18.8511C21.0846 19.5647 21.7619 19.9422 22.323 20.0051C22.4344 20.0176 22.5387 20.0727 22.6094 20.1564L22.9271 20.5326C23.0673 20.6986 23.2674 20.784 23.4689 20.784C23.6304 20.784 23.7928 20.7291 23.9258 20.6167C24.2248 20.3642 24.2625 19.9171 24.01 19.618L23.6923 19.2418C23.3858 18.8788 22.9556 18.6496 22.4809 18.5964C22.438 18.5916 22.2716 18.5593 21.9332 18.3467C21.7061 18.204 21.451 18.0117 21.175 17.775C21.0203 17.6424 20.9795 17.425 21.0757 17.2463C21.1473 17.1134 21.2854 17.0272 21.4363 17.0215L22.7533 16.9714C22.921 16.9651 23.0861 16.9909 23.2438 17.0482L25.3457 17.8125C25.3844 17.8266 25.4153 17.8566 25.4297 17.8952C25.5207 18.1379 25.5684 18.3969 25.5684 18.6605V18.9999V19.0003Z" fill="black"/>
<path d="M28.1539 34.4705V31.6542C28.1539 31.5759 28.0904 31.5125 28.0122 31.5125H27.8268C27.5241 31.5125 27.3384 31.3416 27.3384 31.0486C27.3384 30.7556 27.5239 30.5896 27.8268 30.5896H28.0122C28.0905 30.5896 28.1539 30.5261 28.1539 30.4479V29.8849C28.1539 29.4942 28.3883 29.25 28.7644 29.25C29.1405 29.25 29.37 29.4941 29.37 29.8849V30.4479C29.37 30.5262 29.4335 30.5896 29.5117 30.5896H29.9316C30.2343 30.5896 30.42 30.7604 30.42 31.0486C30.42 31.3368 30.2345 31.5125 29.9316 31.5125H29.5117C29.4334 31.5125 29.37 31.576 29.37 31.6542V34.2068C29.37 34.5975 29.5067 34.7684 29.8584 34.7977L29.9463 34.8075C30.2686 34.8368 30.4347 34.9735 30.4347 35.2568C30.4347 35.6132 30.1222 35.8038 29.5655 35.8038H29.5167C28.6133 35.8038 28.1542 35.3545 28.1542 34.4706H28.154L28.1539 34.4705Z" fill="black"/>
<path d="M22.0054 33.9184V31.11C22.0054 30.7046 22.2545 30.4702 22.611 30.4702C22.9675 30.4702 23.2215 30.7046 23.2215 31.1149V33.6742C23.2215 34.4166 23.5829 34.8171 24.2667 34.8171C24.9505 34.8171 25.4047 34.3189 25.4047 33.5668V31.11C25.4047 30.7046 25.6587 30.4702 26.0152 30.4702C26.3717 30.4702 26.6208 30.7046 26.6208 31.1149V35.2323C26.6208 35.623 26.3864 35.8477 26.0396 35.8477C25.8048 35.8477 25.6201 35.7475 25.5232 35.5646C25.5173 35.5534 25.5117 35.5425 25.5064 35.532C25.472 35.4637 25.3897 35.4349 25.3203 35.4671C25.0594 35.5884 24.4406 35.8427 23.8417 35.8427C22.7185 35.8428 22.0054 35.115 22.0054 33.9184Z" fill="black"/>
<path d="M17.6075 28.5869C15.5518 28.5869 14.2627 29.9883 14.2627 32.2295C14.2627 34.4707 15.5518 35.8672 17.6075 35.8672C19.6632 35.8672 20.9474 34.4707 20.9474 32.2295C20.9474 29.9883 19.6583 28.5869 17.6075 28.5869ZM17.6075 34.793C16.3477 34.793 15.5518 33.7969 15.5518 32.2295C15.5518 30.6621 16.3477 29.6611 17.6075 29.6611C18.8673 29.6611 19.6632 30.6572 19.6632 32.2295C19.6632 33.8018 18.8624 34.793 17.6075 34.793Z" fill="black"/>
</svg>
