<svg width="54" height="54" viewBox="0 0 54 54" fill="none" xmlns="http://www.w3.org/2000/svg">
<path d="M9.91309 37.0476C9.83508 27.0606 9.73608 17.0726 9.61914 7.08457L9.6192 7.08213C9.62323 6.91611 9.63623 6.7501 9.65631 6.58396C9.67633 6.41892 9.70233 6.25498 9.73553 6.09153C9.76752 5.92954 9.80652 5.76853 9.85266 5.60972C9.89966 5.45176 9.95166 5.29575 10.0115 5.14158C10.1985 4.66758 10.4535 4.21665 10.77 3.81431C11.083 3.41733 11.456 3.06833 11.8725 2.78391C12.2875 2.50193 12.7465 2.28391 13.2258 2.13694C13.7078 1.98984 14.2118 1.91392 14.7141 1.90659C18.8081 1.87168 22.9021 1.85459 26.9963 1.85496C31.0893 1.85496 35.1833 1.87192 39.2776 1.9072C39.4396 1.91013 39.6016 1.92112 39.7635 1.93772C40.0035 1.96372 40.2435 2.00474 40.4799 2.0615C40.7139 2.11851 40.9449 2.1904 41.1697 2.27952C41.4037 2.37253 41.6287 2.4835 41.8449 2.61069C42.062 2.73862 42.2689 2.88267 42.4627 3.0416C42.6577 3.20164 42.8417 3.37668 43.0105 3.56321C43.1795 3.75217 43.3355 3.9542 43.476 4.16575C43.757 4.59482 43.975 5.06479 44.125 5.55649C44.276 6.05442 44.358 6.57444 44.373 7.09263C44.252 17.0696 44.154 27.0466 44.08 37.0251C44.074 37.185 44.0601 37.3451 44.039 37.5036C44.018 37.6646 43.991 37.8236 43.9569 37.9813C43.9239 38.1402 43.8839 38.2983 43.8358 38.4537C43.7888 38.6097 43.7349 38.7636 43.675 38.9156C43.484 39.3907 43.228 39.8407 42.9172 40.2495C42.6032 40.6605 42.2352 41.0285 41.8244 41.3395C41.4154 41.6495 40.9624 41.9035 40.4838 42.0906C40.0098 42.2755 39.5098 42.3955 39.0063 42.4435C31.0073 42.9535 22.9843 42.9535 14.9849 42.4436C14.6529 42.4116 14.3229 42.3476 14.0024 42.2535C13.6794 42.1595 13.3654 42.0345 13.0632 41.8819C12.4602 41.5749 11.9092 41.1568 11.4476 40.6577C10.9866 40.1606 10.6126 39.5816 10.349 38.9596C10.219 38.6516 10.115 38.3325 10.0411 38.0056C9.96912 37.6836 9.92407 37.3546 9.91113 37.0245" stroke="#16215B" stroke-width="0.283" stroke-miterlimit="10"/>
<rect x="12.6855" y="5.52831" width="28.63" height="34.31" rx="1.43" stroke="#00FFFF" stroke-width="0.28"/>
<path d="M42.9399 36.5841C42.9578 31.7321 42.9778 26.8791 43.0009 22.0272C43.0219 17.1742 43.0469 12.3221 43.0759 7.46909C43.0767 7.32443 43.0717 7.18039 43.0596 7.03745C43.0497 6.89438 43.0317 6.75143 43.0076 6.61044C42.9606 6.32834 42.8887 6.05441 42.7897 5.7894C42.7646 5.72336 42.7386 5.65744 42.7106 5.59238C42.6816 5.52634 42.6526 5.4614 42.6216 5.39841C42.5587 5.27036 42.4907 5.14743 42.4156 5.02841C42.2667 4.79037 42.0936 4.5704 41.8937 4.36642C41.6957 4.16342 41.4777 3.98642 41.2437 3.83334C41.1266 3.75742 41.0057 3.68637 40.8796 3.62241C40.8167 3.59042 40.7537 3.55942 40.6877 3.53036C40.6237 3.50034 40.5566 3.47336 40.4907 3.44736C40.2236 3.34335 39.9507 3.2684 39.6716 3.21738C39.3926 3.16635 39.1077 3.14035 38.8167 3.13742C37.8378 3.12985 36.8568 3.1218 35.8738 3.11581C34.8898 3.10886 33.9058 3.10385 32.9208 3.09885C30.9498 3.09079 28.9758 3.08688 26.9988 3.08688C26.5038 3.08688 26.0098 3.08688 25.5148 3.08688C25.0208 3.08786 24.5258 3.08884 24.0308 3.08981C23.0418 3.09189 22.0538 3.09482 21.0688 3.09885C19.0968 3.10788 17.1328 3.12082 15.1758 3.13779C15.0301 3.13889 14.8861 3.14682 14.7411 3.15988C14.5981 3.1738 14.4541 3.19284 14.3131 3.21884C14.0301 3.27084 13.7561 3.34787 13.4911 3.45187C13.4251 3.47787 13.3601 3.50485 13.2951 3.53488C13.2301 3.56381 13.1651 3.59579 13.1021 3.6279C12.9751 3.69382 12.8541 3.76486 12.7361 3.84286C12.5011 3.9968 12.2841 4.17587 12.0861 4.37985C12.0371 4.4299 11.9891 4.48288 11.9431 4.53586C11.8971 4.58884 11.8521 4.64279 11.8091 4.69882C11.7231 4.80881 11.6431 4.9238 11.5691 5.04184C11.4951 5.16086 11.4281 5.2839 11.3651 5.40988C11.3351 5.47287 11.3061 5.53683 11.2781 5.60287C11.2501 5.66782 11.2241 5.73483 11.1991 5.80185C11.1011 6.06784 11.0301 6.34079 10.9841 6.61887C10.9381 6.89682 10.9151 7.18088 10.9171 7.46982C10.9454 12.3224 10.9714 17.1744 10.9935 22.0274C11.0165 26.8794 11.0355 31.7324 11.0535 36.5844C11.0541 36.8712 11.0781 37.1551 11.1281 37.4392C11.1411 37.5101 11.1552 37.5811 11.1701 37.6511C11.1862 37.7212 11.2021 37.7911 11.2211 37.8601C11.2581 37.9991 11.3011 38.1351 11.3502 38.2701C11.3991 38.4051 11.4531 38.5382 11.5151 38.6682C11.5461 38.7331 11.5771 38.7982 11.6121 38.8622C11.6461 38.9261 11.6812 38.9901 11.7181 39.0532C11.8651 39.3032 12.0331 39.5361 12.2241 39.7531C12.3192 39.8612 12.4201 39.9652 12.5272 40.0652C12.5791 40.1151 12.6342 40.1632 12.6901 40.2102C12.7451 40.2572 12.8011 40.3021 12.8591 40.3462C13.0881 40.5211 13.3322 40.6721 13.5921 40.7982C13.6571 40.8302 13.7231 40.8601 13.7902 40.8882C13.8571 40.9171 13.9241 40.9431 13.9921 40.9681C14.1281 41.0182 14.2651 41.0611 14.4041 41.0971C14.6801 41.1692 14.9631 41.2131 15.2512 41.2312C16.2243 41.2916 17.1993 41.3446 18.1773 41.3896C19.1533 41.4356 20.1323 41.4726 21.1113 41.5027C23.0683 41.5636 25.0293 41.5936 26.9943 41.5936C27.4853 41.5936 27.9773 41.5916 28.4683 41.5876C28.9593 41.5846 29.4513 41.5786 29.9423 41.5706C30.9253 41.5556 31.9063 41.5335 32.8863 41.5027C34.8443 41.4426 36.7963 41.3526 38.7416 41.2315C38.8866 41.2226 39.0296 41.2066 39.1726 41.1845C39.2436 41.1726 39.3146 41.1596 39.3866 41.1446C39.4566 41.1296 39.5276 41.1136 39.5966 41.0946C39.8766 41.0226 40.1456 40.9226 40.4046 40.7956C40.4706 40.7646 40.5336 40.7315 40.5966 40.6966C40.6606 40.6616 40.7236 40.6246 40.7856 40.5855C40.9096 40.5096 41.0286 40.4266 41.1426 40.3386C41.3726 40.1635 41.5826 39.9666 41.7736 39.7486C41.8216 39.6936 41.8676 39.6375 41.9136 39.5807C41.9586 39.5237 42.0026 39.4655 42.0446 39.4066C42.1296 39.2896 42.2076 39.1685 42.2796 39.0446C42.4256 38.7966 42.5466 38.5376 42.6446 38.2656C42.6696 38.1976 42.6926 38.1286 42.7146 38.0595C42.7356 37.9906 42.7556 37.9216 42.7736 37.8526C42.8106 37.7136 42.8416 37.5746 42.8656 37.4345C42.9146 37.1537 42.9386 36.8706 42.9399 36.5841Z" stroke="#FF00FF" stroke-width="0.283465" stroke-miterlimit="10" stroke-linecap="round" stroke-linejoin="round"/>
<path fill-rule="evenodd" clip-rule="evenodd" d="M25.9845 15.5314C25.9289 15.5081 25.8729 15.4974 25.8187 15.4974L25.8189 15.4972C25.5522 15.4972 25.33 15.7564 25.4136 16.0415L25.4169 16.0527C25.5536 16.5233 25.2318 16.8912 25.0564 17.0917L25.0564 17.0917C25.0383 17.1124 25.0217 17.1314 25.0074 17.1484C24.5666 17.6738 24.4035 18.1314 24.6342 18.622C24.6963 18.7543 24.6276 18.9117 24.4879 18.9548C23.8296 19.1581 23.3608 19.497 23.0485 20.0037C22.6425 20.6624 22.5895 21.3112 22.8424 22.0049C22.8912 22.1387 22.8158 22.2858 22.6782 22.3223C22.0052 22.5009 21.5183 22.8541 21.2887 23.4568C21.0261 24.1458 21.0752 24.7443 21.3798 25.2758C21.4563 25.4092 21.3887 25.5789 21.2421 25.6252C19.9041 26.0475 19.285 26.8935 19.4405 28.138C19.5664 29.1454 20.2448 29.7393 21.371 29.7393C21.5402 29.7393 21.7193 29.7259 21.9084 29.6985C22.6576 29.5899 23.3506 29.5482 24.0033 29.5482C25.1142 29.5482 26.1101 29.6689 27.0754 29.7859H27.0754H27.0754C27.9833 29.8959 28.8642 30.0026 29.7883 30.0026C30.6139 30.0026 31.4737 29.9174 32.4182 29.6732C33.6063 29.366 34.6157 28.7472 34.5823 27.7657C34.538 26.4621 33.7803 25.8058 32.8014 25.599C32.6501 25.5671 32.5676 25.403 32.6319 25.2624C32.8673 24.7474 32.9795 24.1983 32.7212 23.5008C32.5267 22.9754 32.0566 22.5694 31.3029 22.3156C31.1732 22.2719 31.1057 22.1286 31.1551 22.0008C31.331 21.5454 31.3747 21.0432 31.0169 20.579C30.6355 20.0844 30.1006 19.8632 29.5382 19.8273C29.3845 19.8175 29.2787 19.6699 29.3201 19.5215C29.5036 18.8649 29.3823 18.1791 28.7038 17.5135C27.4943 16.327 26.5812 15.7816 25.9845 15.5314ZM24.9764 14.2852C25.2362 14.1509 25.5275 14.0799 25.8189 14.0799H25.819C26.0644 14.0799 26.3046 14.1285 26.5329 14.2242C27.5089 14.6334 28.5734 15.3997 29.6967 16.5016C30.2006 16.996 30.539 17.5494 30.7025 18.1464C30.7508 18.3229 30.7836 18.5015 30.8008 18.6819C30.8553 18.7048 30.9092 18.7291 30.9624 18.7548C31.4257 18.9787 31.8218 19.3012 32.1397 19.7136C32.3148 19.9408 32.4516 20.188 32.5463 20.4482C32.6365 20.6962 32.6889 20.957 32.702 21.2236C32.705 21.2859 32.7059 21.3485 32.7047 21.4115C33.4901 21.8978 33.8685 22.5171 34.0505 23.0087C34.2437 23.5305 34.3188 24.0569 34.2738 24.5732C34.2715 24.5999 34.2689 24.6265 34.2659 24.6532C34.5807 24.8351 34.8596 25.0601 35.0964 25.3234C35.3787 25.6374 35.599 26.0033 35.7511 26.4109C35.8996 26.809 35.9831 27.2487 35.999 27.7176C36.0074 27.965 35.9829 28.2105 35.9261 28.4474C35.8713 28.6759 35.7859 28.8983 35.6725 29.1083C35.4768 29.4706 35.1972 29.7979 34.8413 30.0812C34.311 30.5034 33.6152 30.8278 32.7732 31.0455C31.7985 31.2975 30.7981 31.42 29.7885 31.42C28.7789 31.42 27.8263 31.3046 26.9052 31.193C25.9828 31.0812 25.0289 30.9656 24.0035 30.9656C23.3604 30.9656 22.7417 31.01 22.112 31.1013C21.8582 31.1381 21.6089 31.1568 21.3712 31.1568C20.947 31.1568 20.5467 31.0978 20.1815 30.9813C19.7822 30.8539 19.4245 30.6587 19.1183 30.4011C18.5165 29.8947 18.1417 29.173 18.0343 28.3139C17.9757 27.8449 17.9923 27.3951 18.0838 26.977C18.1822 26.527 18.3665 26.1125 18.6315 25.7447C18.9138 25.3531 19.2813 25.0216 19.7302 24.7528C19.7194 24.6716 19.7116 24.5898 19.7068 24.5075C19.6774 24.0012 19.7641 23.4779 19.9644 22.9523C20.1563 22.4488 20.534 21.8332 21.2773 21.3837C21.2672 21.2058 21.2708 21.0288 21.2879 20.8534C21.3414 20.306 21.5278 19.77 21.842 19.2602C22.0944 18.8507 22.4184 18.5005 22.8049 18.2194C22.9045 18.147 23.0089 18.0787 23.118 18.0147C23.1293 17.849 23.1578 17.6833 23.2034 17.5192C23.3223 17.0912 23.5572 16.6719 23.9218 16.2374C23.9454 16.2092 23.9679 16.1835 23.9897 16.1586L23.9937 16.154C23.9688 15.9596 23.9747 15.7619 24.0119 15.5705C24.0643 15.3005 24.1795 15.0409 24.345 14.8199C24.5115 14.5976 24.7298 14.4127 24.9764 14.2852ZM29.1641 26.771H24.8363C24.4127 26.771 24.2198 27.3005 24.5448 27.5721C25.0588 28.0017 25.8639 28.4438 27.0002 28.4438C28.1365 28.4438 28.9415 28.0017 29.4556 27.5721C29.7806 27.3005 29.5876 26.771 29.1641 26.771ZM25.0253 22.5563C25.3384 22.5563 25.5922 23.0639 25.5922 23.6902C25.5922 24.3165 25.3384 24.8241 25.0253 24.8241C24.7122 24.8241 24.4584 24.3165 24.4584 23.6902C24.4584 23.0639 24.7122 22.5563 25.0253 22.5563ZM25.0253 21.6492C24.7325 21.6492 24.4536 21.7542 24.2188 21.9529C24.0569 22.0898 23.9204 22.2681 23.8131 22.4828C23.6418 22.8254 23.5513 23.2429 23.5513 23.6902C23.5513 24.1375 23.6418 24.5551 23.8131 24.8976C23.9204 25.1123 24.0569 25.2905 24.2188 25.4275C24.4536 25.6262 24.7325 25.7312 25.0253 25.7312C25.3181 25.7312 25.597 25.6262 25.8318 25.4275C25.9937 25.2906 26.1302 25.1123 26.2375 24.8976C26.4088 24.555 26.4993 24.1375 26.4993 23.6902C26.4993 23.2429 26.4088 22.8253 26.2375 22.4828C26.1302 22.2681 25.9937 22.0899 25.8318 21.9529C25.597 21.7542 25.3181 21.6492 25.0253 21.6492ZM29.5419 23.7072C29.5419 23.0809 29.2881 22.5733 28.975 22.5733C28.6619 22.5733 28.4081 23.0809 28.4081 23.7072C28.4081 24.3335 28.6619 24.8411 28.975 24.8411C29.2881 24.8411 29.5419 24.3335 29.5419 23.7072ZM28.1685 21.9699C28.4033 21.7712 28.6822 21.6662 28.975 21.6662C29.2678 21.6662 29.5467 21.7712 29.7815 21.9699C29.9434 22.1069 30.0799 22.2851 30.1872 22.4998C30.3585 22.8423 30.449 23.2599 30.449 23.7072C30.449 24.1545 30.3585 24.572 30.1872 24.9146C30.0799 25.1293 29.9434 25.3076 29.7815 25.4445C29.5467 25.6432 29.2678 25.7482 28.975 25.7482C28.6822 25.7482 28.4033 25.6432 28.1685 25.4445C28.0066 25.3075 27.8701 25.1293 27.7628 24.9146C27.5915 24.5721 27.501 24.1545 27.501 23.7072C27.501 23.2599 27.5915 22.8424 27.7628 22.4998C27.8701 22.2851 28.0066 22.1068 28.1685 21.9699Z" fill="black"/>
</svg>
