<svg width="81" height="54" viewBox="0 0 81 54" fill="none" xmlns="http://www.w3.org/2000/svg">
<path d="M71.0068 37.0027C71.0848 27.0807 71.1919 17.1587 71.3298 7.23665C71.3199 6.87965 71.2788 6.52266 71.2035 6.17201C71.1305 5.82301 71.0245 5.48201 70.8847 5.15382C70.7467 4.82881 70.5757 4.51686 70.376 4.22511C70.176 3.93513 69.948 3.66512 69.6949 3.42079C69.4419 3.17781 69.1649 2.96077 68.8693 2.77412C68.5733 2.58711 68.2583 2.42915 67.9325 2.30342C67.6065 2.17744 67.2675 2.0815 66.9237 2.01741C66.5777 1.95345 66.2278 1.91939 65.8745 1.91585C48.9605 1.82491 32.0455 1.82491 15.1317 1.91548C14.7937 1.92159 14.4567 1.95454 14.1241 2.01485C13.7921 2.07381 13.4641 2.15974 13.1495 2.27437C12.9005 2.36739 12.6575 2.47835 12.4246 2.60493C12.1925 2.73299 11.9685 2.87801 11.7568 3.03865C11.5458 3.20058 11.3468 3.37856 11.163 3.57112C10.9779 3.76515 10.8099 3.97414 10.6587 4.19398C10.5067 4.41493 10.3716 4.64796 10.2538 4.88844C10.1358 5.13149 10.0358 5.38149 9.95245 5.63869C9.78644 6.15468 9.69144 6.69667 9.67773 7.23622C9.81174 17.1582 9.91876 27.0802 10.0002 37.0013C10.0251 37.6633 10.1751 38.3273 10.44 38.9409C10.709 39.5659 11.095 40.1389 11.571 40.6231C12.05 41.1111 12.618 41.5101 13.2408 41.796C13.8578 42.0809 14.5288 42.254 15.2026 42.3051C23.6317 42.6481 32.0667 42.8191 40.5034 42.819C48.9394 42.819 57.3744 42.648 65.8044 42.3047C66.4783 42.2537 67.1483 42.0807 67.7662 41.7968C68.3882 41.5098 68.9572 41.1109 69.4361 40.6232C69.9111 40.1383 70.2971 39.5662 70.5675 38.9408C70.8305 38.3278 70.9825 37.6638 71.0066 37.0007" stroke="#16215B" stroke-width="0.283" stroke-miterlimit="10"/>
<path d="M11.2583 38.7131V6.44019C11.2583 5.26575 12.2093 4.31372 13.3843 4.31372H16.9273H64.1312H67.6743C68.8483 4.31372 69.8003 5.26575 69.8003 6.4397V38.7127C69.8003 39.8871 68.8483 40.8391 67.6743 40.8391L13.3843 40.8392C12.2093 40.8392 11.2583 39.8871 11.2583 38.7131Z" stroke="#00FFFF" stroke-width="0.28" stroke-miterlimit="10"/>
<path d="M65.6805 41.1327C48.9365 41.8178 32.0695 41.8178 15.3265 41.1327C15.0304 41.12 14.7384 41.083 14.4494 41.018C14.3044 40.986 14.1624 40.947 14.0224 40.902C13.8833 40.856 13.7453 40.805 13.6104 40.746C13.4754 40.688 13.3443 40.623 13.2154 40.552C13.1503 40.516 13.0864 40.478 13.0224 40.439C12.9603 40.4 12.8984 40.36 12.8384 40.318C12.5964 40.15 12.3724 39.961 12.1694 39.749C12.1184 39.696 12.0683 39.642 12.0194 39.586C11.9714 39.531 11.9244 39.473 11.8783 39.415C11.7874 39.3 11.7023 39.18 11.6243 39.057C11.4684 38.811 11.3374 38.552 11.2304 38.28C11.2044 38.211 11.1794 38.142 11.1564 38.073C11.1333 38.003 11.1113 37.933 11.0914 37.863C11.0524 37.723 11.0184 37.582 10.9924 37.44C10.9393 37.156 10.9133 36.869 10.9124 36.577C10.8963 31.7904 10.8783 27.0025 10.8583 22.2155C10.8382 17.4284 10.8153 12.6414 10.7903 7.85341C10.7815 7.69783 10.7755 7.54182 10.7765 7.38686C10.7775 7.23085 10.7865 7.07686 10.8035 6.92287C10.8105 6.84584 10.8215 6.76881 10.8335 6.69185C10.8455 6.61482 10.8595 6.53883 10.8755 6.46187C10.9075 6.31087 10.9475 6.16182 10.9955 6.01485C11.0425 5.86885 11.0975 5.72585 11.1625 5.58485C11.1935 5.51485 11.2275 5.44582 11.2635 5.37685C11.3005 5.30885 11.3385 5.24086 11.3785 5.17384C11.5375 4.90883 11.7245 4.66682 11.9395 4.44685C11.9935 4.39186 12.0495 4.33784 12.1065 4.28682C12.1355 4.25984 12.1645 4.23482 12.1935 4.20882C12.2235 4.18385 12.2535 4.15883 12.2835 4.13387C12.4045 4.03682 12.5305 3.94582 12.6605 3.86287C12.9205 3.69685 13.1985 3.55983 13.4925 3.44887C13.7865 3.33882 14.0875 3.25984 14.3925 3.20686C14.6985 3.15382 15.0105 3.12685 15.3255 3.12581C32.07 3.03383 48.937 3.03383 65.68 3.12581C65.9961 3.12691 66.3081 3.15388 66.6131 3.20686C66.9191 3.2599 67.2201 3.33888 67.5141 3.44887C67.8081 3.55989 68.0851 3.69691 68.3461 3.86287C68.4761 3.94588 68.6011 4.0359 68.7221 4.13387C68.7521 4.15889 68.7821 4.18391 68.8121 4.20888C68.8411 4.2339 68.8701 4.2599 68.9001 4.2859C68.9561 4.33791 69.0121 4.39186 69.0661 4.44691C69.2801 4.66591 69.4681 4.90889 69.6281 5.1739C69.6681 5.23988 69.7061 5.30788 69.7421 5.37691C69.7791 5.4449 69.8121 5.51491 69.8441 5.58492C69.9071 5.72487 69.9631 5.86891 70.0111 6.01491C70.0591 6.1609 70.0991 6.30989 70.1301 6.46187C70.1471 6.53792 70.1601 6.61488 70.1731 6.69087C70.1851 6.7679 70.1951 6.84486 70.2031 6.92189C70.2201 7.07588 70.2281 7.23091 70.2301 7.38588C70.2311 7.54091 70.2251 7.69691 70.2161 7.85286C70.191 12.64 70.168 17.428 70.148 22.215C70.127 27.002 70.11 31.79 70.094 36.5767C70.093 36.8687 70.066 37.1587 70.013 37.4458C69.986 37.5907 69.952 37.7327 69.912 37.8717C69.872 38.0117 69.826 38.1497 69.773 38.2847C69.72 38.4198 69.66 38.5527 69.594 38.6837C69.561 38.7497 69.526 38.8147 69.49 38.8787C69.452 38.9428 69.414 39.0058 69.375 39.0667C69.217 39.3137 69.036 39.5427 68.832 39.7547C68.782 39.8067 68.729 39.8587 68.675 39.9087C68.621 39.9597 68.566 40.0087 68.509 40.0567C68.396 40.1527 68.28 40.2417 68.159 40.3237C67.917 40.4898 67.661 40.6317 67.39 40.7487C67.323 40.7777 67.253 40.8057 67.184 40.8317C67.115 40.8577 67.045 40.8817 66.975 40.9038C66.835 40.9497 66.694 40.9877 66.551 41.0197C66.266 41.0827 65.975 41.1207 65.6805 41.1327Z" stroke="#FF00FF" stroke-width="0.283465" stroke-miterlimit="10" stroke-linecap="round" stroke-linejoin="round"/>
<path d="M62.7894 46.9191V52.01H62.1729V47.5654H62.1431L60.9002 48.3907V47.7643L62.1729 46.9191H62.7894ZM64.3903 52.0498C64.2676 52.0498 64.1624 52.0059 64.0746 51.918C63.9867 51.8302 63.9428 51.725 63.9428 51.6023C63.9428 51.4797 63.9867 51.3745 64.0746 51.2866C64.1624 51.1988 64.2676 51.1549 64.3903 51.1549C64.5129 51.1549 64.6181 51.1988 64.706 51.2866C64.7938 51.3745 64.8377 51.4797 64.8377 51.6023C64.8377 51.6835 64.817 51.7581 64.7756 51.8261C64.7358 51.894 64.6819 51.9487 64.614 51.9901C64.5477 52.0299 64.4731 52.0498 64.3903 52.0498ZM67.3689 52.0796C67.0772 52.0796 66.8145 52.0216 66.5809 51.9056C66.3472 51.7896 66.1599 51.6305 66.0191 51.4283C65.8782 51.2262 65.8012 50.9958 65.7879 50.7373H66.3845C66.4077 50.9676 66.5121 51.1582 66.6977 51.309C66.885 51.4582 67.1087 51.5327 67.3689 51.5327C67.5777 51.5327 67.7633 51.4838 67.9257 51.3861C68.0898 51.2883 68.2182 51.1541 68.311 50.9834C68.4055 50.811 68.4527 50.6163 68.4527 50.3992C68.4527 50.1771 68.4038 49.9791 68.306 49.8051C68.2099 49.6294 68.0773 49.4911 67.9083 49.39C67.7393 49.2889 67.5462 49.2375 67.3291 49.2359C67.1733 49.2342 67.0134 49.2582 66.8493 49.308C66.6853 49.356 66.5502 49.4182 66.4442 49.4944L65.8675 49.4248L66.1757 46.9191H68.8206V47.466H66.6927L66.5138 48.9674H66.5436C66.648 48.8845 66.7789 48.8158 66.9363 48.7611C67.0938 48.7064 67.2578 48.679 67.4285 48.679C67.7401 48.679 68.0177 48.7536 68.2613 48.9028C68.5065 49.0503 68.6988 49.2524 68.838 49.5093C68.9788 49.7662 69.0493 50.0595 69.0493 50.3893C69.0493 50.7141 68.9764 51.0041 68.8305 51.2593C68.6863 51.5129 68.4875 51.7134 68.2339 51.8609C67.9804 52.0067 67.692 52.0796 67.3689 52.0796Z" fill="#0000FF"/>
<path fill-rule="evenodd" clip-rule="evenodd" d="M21.9845 8.53145C21.9289 8.50815 21.8729 8.49745 21.8187 8.49745L21.8189 8.49725C21.5522 8.49725 21.33 8.75645 21.4136 9.04155L21.4169 9.05275C21.5536 9.52327 21.2318 9.89122 21.0564 10.0917L21.0564 10.0917C21.0383 10.1124 21.0217 10.1314 21.0074 10.1484C20.5666 10.6738 20.4035 11.1314 20.6342 11.622C20.6963 11.7543 20.6276 11.9117 20.4879 11.9548C19.8296 12.1581 19.3608 12.497 19.0485 13.0037C18.6425 13.6624 18.5895 14.3112 18.8424 15.0049C18.8912 15.1387 18.8158 15.2858 18.6782 15.3223C18.0052 15.5009 17.5183 15.8541 17.2887 16.4568C17.0261 17.1458 17.0752 17.7443 17.3798 18.2758C17.4563 18.4092 17.3887 18.5789 17.2421 18.6252C15.9041 19.0475 15.285 19.8935 15.4405 21.138C15.5664 22.1454 16.2448 22.7393 17.371 22.7393C17.5402 22.7393 17.7193 22.7259 17.9084 22.6985C18.6576 22.5899 19.3506 22.5482 20.0033 22.5482C21.1142 22.5482 22.1101 22.6689 23.0754 22.7859H23.0754H23.0754C23.9833 22.8959 24.8642 23.0026 25.7883 23.0026C26.6139 23.0026 27.4737 22.9174 28.4182 22.6732C29.6063 22.366 30.6157 21.7472 30.5823 20.7657C30.538 19.4621 29.7803 18.8058 28.8014 18.599C28.6501 18.5671 28.5676 18.403 28.6319 18.2624C28.8673 17.7474 28.9795 17.1983 28.7212 16.5008C28.5267 15.9754 28.0566 15.5694 27.3029 15.3156C27.1732 15.2719 27.1057 15.1286 27.1551 15.0008C27.331 14.5454 27.3747 14.0432 27.0169 13.579C26.6355 13.0844 26.1006 12.8632 25.5382 12.8273C25.3845 12.8175 25.2787 12.6699 25.3201 12.5215C25.5036 11.8649 25.3823 11.1791 24.7038 10.5135C23.4943 9.32705 22.5812 8.78165 21.9845 8.53145ZM20.9764 7.28525C21.2362 7.15095 21.5275 7.07995 21.8189 7.07995H21.819C22.0644 7.07995 22.3046 7.12855 22.5329 7.22425C23.5089 7.63345 24.5734 8.39975 25.6967 9.50165C26.2006 9.99605 26.539 10.5494 26.7025 11.1464C26.7508 11.3229 26.7836 11.5015 26.8008 11.6819C26.8553 11.7048 26.9092 11.7291 26.9624 11.7548C27.4257 11.9787 27.8218 12.3012 28.1397 12.7136C28.3148 12.9408 28.4516 13.188 28.5463 13.4482C28.6365 13.6962 28.6889 13.957 28.702 14.2236C28.705 14.2859 28.7059 14.3485 28.7047 14.4115C29.4901 14.8978 29.8685 15.5171 30.0505 16.0087C30.2437 16.5305 30.3188 17.0569 30.2738 17.5732C30.2715 17.5999 30.2689 17.6265 30.2659 17.6532C30.5807 17.8351 30.8596 18.0601 31.0964 18.3234C31.3787 18.6374 31.599 19.0033 31.7511 19.4109C31.8996 19.809 31.9831 20.2487 31.999 20.7176C32.0074 20.965 31.9829 21.2105 31.9261 21.4474C31.8713 21.6759 31.7859 21.8983 31.6725 22.1083C31.4768 22.4706 31.1972 22.7979 30.8413 23.0812C30.311 23.5034 29.6152 23.8278 28.7732 24.0455C27.7985 24.2975 26.7981 24.42 25.7885 24.42C24.7789 24.42 23.8263 24.3046 22.9052 24.193C21.9828 24.0812 21.0289 23.9656 20.0035 23.9656C19.3604 23.9656 18.7417 24.01 18.112 24.1013C17.8582 24.1381 17.6089 24.1568 17.3712 24.1568C16.947 24.1568 16.5467 24.0978 16.1815 23.9813C15.7822 23.8539 15.4245 23.6587 15.1183 23.4011C14.5165 22.8947 14.1417 22.173 14.0343 21.3139C13.9757 20.8449 13.9923 20.3951 14.0838 19.977C14.1822 19.527 14.3665 19.1125 14.6315 18.7447C14.9138 18.3531 15.2813 18.0216 15.7302 17.7528C15.7194 17.6716 15.7116 17.5898 15.7068 17.5075C15.6774 17.0012 15.7641 16.4779 15.9644 15.9523C16.1563 15.4488 16.534 14.8332 17.2773 14.3837C17.2672 14.2058 17.2708 14.0288 17.2879 13.8534C17.3414 13.306 17.5278 12.77 17.842 12.2602C18.0944 11.8507 18.4184 11.5005 18.8049 11.2194C18.9045 11.147 19.0089 11.0787 19.118 11.0147C19.1293 10.849 19.1578 10.6833 19.2034 10.5192C19.3223 10.0912 19.5572 9.67195 19.9218 9.23745C19.9454 9.20925 19.9679 9.18355 19.9897 9.15865L19.9937 9.15405C19.9688 8.95965 19.9747 8.76195 20.0119 8.57055C20.0643 8.30055 20.1795 8.04095 20.345 7.81995C20.5115 7.59765 20.7298 7.41275 20.9764 7.28525ZM25.1641 19.771H20.8363C20.4127 19.771 20.2198 20.3005 20.5448 20.5721C21.0588 21.0017 21.8639 21.4438 23.0002 21.4438C24.1365 21.4438 24.9415 21.0017 25.4556 20.5721C25.7806 20.3005 25.5876 19.771 25.1641 19.771ZM21.0253 15.5563C21.3384 15.5563 21.5922 16.0639 21.5922 16.6902C21.5922 17.3165 21.3384 17.8241 21.0253 17.8241C20.7122 17.8241 20.4584 17.3165 20.4584 16.6902C20.4584 16.0639 20.7122 15.5563 21.0253 15.5563ZM21.0253 14.6492C20.7325 14.6492 20.4536 14.7542 20.2188 14.9529C20.0569 15.0898 19.9204 15.2681 19.8131 15.4828C19.6418 15.8254 19.5513 16.2429 19.5513 16.6902C19.5513 17.1375 19.6418 17.5551 19.8131 17.8976C19.9204 18.1123 20.0569 18.2905 20.2188 18.4275C20.4536 18.6262 20.7325 18.7312 21.0253 18.7312C21.3181 18.7312 21.597 18.6262 21.8318 18.4275C21.9937 18.2906 22.1302 18.1123 22.2375 17.8976C22.4088 17.555 22.4993 17.1375 22.4993 16.6902C22.4993 16.2429 22.4088 15.8253 22.2375 15.4828C22.1302 15.2681 21.9937 15.0899 21.8318 14.9529C21.597 14.7542 21.3181 14.6492 21.0253 14.6492ZM25.5419 16.7072C25.5419 16.0809 25.2881 15.5733 24.975 15.5733C24.6619 15.5733 24.4081 16.0809 24.4081 16.7072C24.4081 17.3335 24.6619 17.8411 24.975 17.8411C25.2881 17.8411 25.5419 17.3335 25.5419 16.7072ZM24.1685 14.9699C24.4033 14.7712 24.6822 14.6662 24.975 14.6662C25.2678 14.6662 25.5467 14.7712 25.7815 14.9699C25.9434 15.1069 26.0799 15.2851 26.1872 15.4998C26.3585 15.8423 26.449 16.2599 26.449 16.7072C26.449 17.1545 26.3585 17.572 26.1872 17.9146C26.0799 18.1293 25.9434 18.3076 25.7815 18.4445C25.5467 18.6432 25.2678 18.7482 24.975 18.7482C24.6822 18.7482 24.4033 18.6432 24.1685 18.4445C24.0066 18.3075 23.8701 18.1293 23.7628 17.9146C23.5915 17.5721 23.501 17.1545 23.501 16.7072C23.501 16.2599 23.5915 15.8424 23.7628 15.4998C23.8701 15.2851 24.0066 15.1068 24.1685 14.9699Z" fill="black"/>
<path d="M33.3846 35.2224L32.2612 31.3542C32.2221 31.2028 32.2026 31.1003 32.2026 30.9928C32.2026 30.6851 32.4419 30.4702 32.7887 30.4702C33.0915 30.4702 33.282 30.646 33.3553 30.983L34.0246 34.0282C34.0563 34.1723 34.2597 34.1781 34.2995 34.036L35.1428 31.027C35.2259 30.6656 35.4652 30.4702 35.8364 30.4702C36.2076 30.4702 36.4371 30.6607 36.5202 31.027L37.3516 34.0381C37.3908 34.1802 37.5939 34.1754 37.6265 34.0317L38.3176 30.9781C38.3909 30.6411 38.5765 30.4702 38.8744 30.4702C39.2212 30.4702 39.4556 30.6802 39.4556 30.9879C39.4556 31.0954 39.4361 31.1979 39.3921 31.3444L38.2736 35.2224C38.1515 35.6473 37.9122 35.8476 37.5019 35.8476C37.0672 35.8476 36.8328 35.662 36.7204 35.2175L35.956 32.4581C35.9176 32.3195 35.7211 32.3196 35.6828 32.4581L34.9182 35.2223C34.8156 35.6472 34.5665 35.8475 34.1465 35.8475C33.7265 35.8475 33.5116 35.657 33.3846 35.2223V35.2224Z" fill="black"/>
<path d="M29.0532 30.4667C27.5444 30.4667 26.5483 31.4921 26.5483 33.162C26.5483 34.8319 27.5346 35.8525 29.0532 35.8525C30.5718 35.8525 31.5581 34.8417 31.5581 33.162C31.5581 31.4823 30.562 30.4667 29.0532 30.4667ZM29.0532 34.8906C28.2817 34.8906 27.7837 34.2656 27.7837 33.1621C27.7837 32.0586 28.2866 31.4336 29.0532 31.4336C29.8198 31.4336 30.3227 32.0635 30.3227 33.1621C30.3227 34.2607 29.8246 34.8906 29.0532 34.8906Z" fill="black"/>
<path d="M20.9131 35.2079V29.2305C20.9131 28.8447 21.1426 28.6054 21.5138 28.6054C21.885 28.6054 22.1145 28.8447 22.1145 29.2305V30.7062C22.1145 30.8094 22.2211 30.878 22.315 30.8352C22.6103 30.7006 23.1908 30.4758 23.7749 30.4758C24.9176 30.4758 25.5867 31.2279 25.5867 32.4146V35.208C25.5867 35.6182 25.3328 35.8477 24.9763 35.8477C24.6198 35.8477 24.3707 35.6182 24.3707 35.208V32.6637C24.3707 31.9409 24.0093 31.5063 23.3061 31.5063C22.6029 31.5063 22.1292 32.0142 22.1292 32.776V35.208C22.1292 35.6182 21.8801 35.8477 21.5236 35.8477C21.1671 35.8477 20.9131 35.6181 20.9131 35.2079Z" fill="black"/>
<path d="M17.1006 35.8671C15.6943 35.8671 14.7568 35.2812 14.4834 34.4804C14.4395 34.3632 14.415 34.2363 14.415 34.1191C14.415 33.7675 14.6396 33.5429 14.9716 33.5429C15.2499 33.5429 15.4257 33.6552 15.5624 33.9384C15.7821 34.5488 16.3876 34.8222 17.1396 34.8222C17.9892 34.8222 18.5849 34.4023 18.5849 33.8163C18.5849 33.3085 18.2333 32.996 17.3154 32.8055L16.5586 32.6492C15.1475 32.3611 14.4883 31.697 14.4883 30.6668C14.4883 29.4266 15.5772 28.5867 17.1055 28.5867C18.3506 28.5867 19.3174 29.1433 19.6055 30.076C19.6348 30.1541 19.6494 30.2469 19.6494 30.3641C19.6494 30.6717 19.4297 30.8817 19.1025 30.8817C18.8095 30.8817 18.6289 30.7547 18.497 30.4813C18.2577 29.8856 17.7548 29.6317 17.0956 29.6317C16.3143 29.6317 15.7577 30.0028 15.7577 30.5936C15.7577 31.0721 16.1093 31.3797 16.9882 31.5653L17.745 31.7216C19.2294 32.0292 19.8544 32.6249 19.8544 33.6699C19.8544 35.0176 18.7948 35.8672 17.1005 35.8672L17.1006 35.8671Z" fill="black"/>
</svg>
