<svg width="55" height="54" viewBox="0 0 55 54" fill="none" xmlns="http://www.w3.org/2000/svg">
<path d="M10.4131 37.0476C10.3351 27.0606 10.2361 17.0726 10.1191 7.08457L10.1192 7.08213C10.1232 6.91611 10.1362 6.7501 10.1563 6.58396C10.1763 6.41892 10.2023 6.25498 10.2355 6.09153C10.2675 5.92954 10.3065 5.76853 10.3527 5.60972C10.3997 5.45176 10.4517 5.29575 10.5115 5.14158C10.6985 4.66758 10.9535 4.21665 11.27 3.81431C11.583 3.41733 11.956 3.06833 12.3725 2.78391C12.7875 2.50193 13.2465 2.28391 13.7258 2.13694C14.2078 1.98984 14.7118 1.91392 15.2141 1.90659C19.3081 1.87168 23.4021 1.85459 27.4963 1.85496C31.5893 1.85496 35.6833 1.87192 39.7776 1.9072C39.9396 1.91013 40.1016 1.92112 40.2635 1.93772C40.5035 1.96372 40.7435 2.00474 40.9799 2.0615C41.2139 2.11851 41.4449 2.1904 41.6697 2.27952C41.9037 2.37253 42.1287 2.4835 42.3449 2.61069C42.562 2.73862 42.7689 2.88267 42.9627 3.0416C43.1577 3.20164 43.3417 3.37668 43.5105 3.56321C43.6795 3.75217 43.8355 3.9542 43.976 4.16575C44.257 4.59482 44.475 5.06479 44.625 5.55649C44.776 6.05442 44.858 6.57444 44.873 7.09263C44.752 17.0696 44.654 27.0466 44.58 37.0251C44.574 37.185 44.5601 37.3451 44.539 37.5036C44.518 37.6646 44.491 37.8236 44.4569 37.9813C44.4239 38.1402 44.3839 38.2983 44.3358 38.4537C44.2888 38.6097 44.2349 38.7636 44.175 38.9156C43.984 39.3907 43.728 39.8407 43.4172 40.2495C43.1032 40.6605 42.7352 41.0285 42.3244 41.3395C41.9154 41.6495 41.4624 41.9035 40.9838 42.0906C40.5098 42.2755 40.0098 42.3955 39.5063 42.4435C31.5073 42.9535 23.4843 42.9535 15.4849 42.4436C15.1529 42.4116 14.8229 42.3476 14.5024 42.2535C14.1794 42.1595 13.8654 42.0345 13.5632 41.8819C12.9602 41.5749 12.4092 41.1568 11.9476 40.6577C11.4866 40.1606 11.1126 39.5816 10.849 38.9596C10.719 38.6516 10.615 38.3325 10.5411 38.0056C10.4691 37.6836 10.4241 37.3546 10.4111 37.0245" stroke="#16215B" stroke-width="0.283" stroke-miterlimit="10"/>
<rect x="13.1855" y="5.52831" width="28.63" height="34.31" rx="1.43" stroke="#00FFFF" stroke-width="0.28"/>
<path d="M43.4399 36.5841C43.4578 31.7321 43.4778 26.8791 43.5009 22.0272C43.5219 17.1742 43.5469 12.3221 43.5759 7.46909C43.5767 7.32443 43.5717 7.18039 43.5596 7.03745C43.5497 6.89438 43.5317 6.75143 43.5076 6.61044C43.4606 6.32834 43.3887 6.05441 43.2897 5.7894C43.2646 5.72336 43.2386 5.65744 43.2106 5.59238C43.1816 5.52634 43.1526 5.4614 43.1216 5.39841C43.0587 5.27036 42.9907 5.14743 42.9156 5.02841C42.7667 4.79037 42.5936 4.5704 42.3937 4.36642C42.1957 4.16342 41.9777 3.98642 41.7437 3.83334C41.6266 3.75742 41.5057 3.68637 41.3796 3.62241C41.3167 3.59042 41.2537 3.55942 41.1877 3.53036C41.1237 3.50034 41.0566 3.47336 40.9907 3.44736C40.7236 3.34335 40.4507 3.2684 40.1716 3.21738C39.8926 3.16635 39.6077 3.14035 39.3167 3.13742C38.3378 3.12985 37.3568 3.1218 36.3738 3.11581C35.3898 3.10886 34.4058 3.10385 33.4208 3.09885C31.4498 3.09079 29.4758 3.08688 27.4988 3.08688C27.0038 3.08688 26.5098 3.08688 26.0148 3.08688C25.5208 3.08786 25.0258 3.08884 24.5308 3.08981C23.5418 3.09189 22.5538 3.09482 21.5688 3.09885C19.5968 3.10788 17.6328 3.12082 15.6758 3.13779C15.5301 3.13889 15.3861 3.14682 15.2411 3.15988C15.0981 3.1738 14.9541 3.19284 14.8131 3.21884C14.5301 3.27084 14.2561 3.34787 13.9911 3.45187C13.9251 3.47787 13.8601 3.50485 13.7951 3.53488C13.7301 3.56381 13.6651 3.59579 13.6021 3.6279C13.4751 3.69382 13.3541 3.76486 13.2361 3.84286C13.0011 3.9968 12.7841 4.17587 12.5861 4.37985C12.5371 4.4299 12.4891 4.48288 12.4431 4.53586C12.3971 4.58884 12.3521 4.64279 12.3091 4.69882C12.2231 4.80881 12.1431 4.9238 12.0691 5.04184C11.9951 5.16086 11.9281 5.2839 11.8651 5.40988C11.8351 5.47287 11.8061 5.53683 11.7781 5.60287C11.7501 5.66782 11.7241 5.73483 11.6991 5.80185C11.6011 6.06784 11.5301 6.34079 11.4841 6.61887C11.4381 6.89682 11.4151 7.18088 11.4171 7.46982C11.4454 12.3224 11.4714 17.1744 11.4935 22.0274C11.5165 26.8794 11.5355 31.7324 11.5535 36.5844C11.5541 36.8712 11.5781 37.1551 11.6281 37.4392C11.6411 37.5101 11.6552 37.5811 11.6701 37.6511C11.6862 37.7212 11.7021 37.7911 11.7211 37.8601C11.7581 37.9991 11.8011 38.1351 11.8502 38.2701C11.8991 38.4051 11.9531 38.5382 12.0151 38.6682C12.0461 38.7331 12.0771 38.7982 12.1121 38.8622C12.1461 38.9261 12.1812 38.9901 12.2181 39.0532C12.3651 39.3032 12.5331 39.5361 12.7241 39.7531C12.8192 39.8612 12.9201 39.9652 13.0272 40.0652C13.0791 40.1151 13.1342 40.1632 13.1901 40.2102C13.2451 40.2572 13.3011 40.3021 13.3591 40.3462C13.5881 40.5211 13.8322 40.6721 14.0921 40.7982C14.1571 40.8302 14.2231 40.8601 14.2902 40.8882C14.3571 40.9171 14.4241 40.9431 14.4921 40.9681C14.6281 41.0182 14.7651 41.0611 14.9041 41.0971C15.1801 41.1692 15.4631 41.2131 15.7512 41.2312C16.7243 41.2916 17.6993 41.3446 18.6773 41.3896C19.6533 41.4356 20.6323 41.4726 21.6113 41.5027C23.5683 41.5636 25.5293 41.5936 27.4943 41.5936C27.9853 41.5936 28.4773 41.5916 28.9683 41.5876C29.4593 41.5846 29.9513 41.5786 30.4423 41.5706C31.4253 41.5556 32.4063 41.5335 33.3863 41.5027C35.3443 41.4426 37.2963 41.3526 39.2416 41.2315C39.3866 41.2226 39.5296 41.2066 39.6726 41.1845C39.7436 41.1726 39.8146 41.1596 39.8866 41.1446C39.9566 41.1296 40.0276 41.1136 40.0966 41.0946C40.3766 41.0226 40.6456 40.9226 40.9046 40.7956C40.9706 40.7646 41.0336 40.7315 41.0966 40.6966C41.1606 40.6616 41.2236 40.6246 41.2856 40.5855C41.4096 40.5096 41.5286 40.4266 41.6426 40.3386C41.8726 40.1635 42.0826 39.9666 42.2736 39.7486C42.3216 39.6936 42.3676 39.6375 42.4136 39.5807C42.4586 39.5237 42.5026 39.4655 42.5446 39.4066C42.6296 39.2896 42.7076 39.1685 42.7796 39.0446C42.9256 38.7966 43.0466 38.5376 43.1446 38.2656C43.1696 38.1976 43.1926 38.1286 43.2146 38.0595C43.2356 37.9906 43.2556 37.9216 43.2736 37.8526C43.3106 37.7136 43.3416 37.5746 43.3656 37.4345C43.4146 37.1537 43.4386 36.8706 43.4399 36.5841Z" stroke="#FF00FF" stroke-width="0.283465" stroke-miterlimit="10" stroke-linecap="round" stroke-linejoin="round"/>
<path fill-rule="evenodd" clip-rule="evenodd" d="M22.4845 8.53146C22.4289 8.50816 22.3729 8.49746 22.3187 8.49746L22.3189 8.49726C22.0522 8.49726 21.83 8.75646 21.9136 9.04156L21.9169 9.05276C22.0536 9.52328 21.7318 9.89122 21.5564 10.0917L21.5564 10.0917C21.5383 10.1124 21.5217 10.1314 21.5074 10.1485C21.0666 10.6739 20.9035 11.1315 21.1342 11.6221C21.1963 11.7544 21.1276 11.9118 20.9879 11.9549C20.3296 12.1582 19.8608 12.4971 19.5485 13.0038C19.1425 13.6625 19.0895 14.3113 19.3424 15.005C19.3912 15.1388 19.3158 15.2859 19.1782 15.3224C18.5052 15.501 18.0183 15.8542 17.7887 16.4569C17.5261 17.1459 17.5752 17.7444 17.8798 18.2759C17.9563 18.4093 17.8887 18.579 17.7421 18.6253C16.4041 19.0476 15.785 19.8936 15.9405 21.1381C16.0664 22.1455 16.7448 22.7394 17.871 22.7394C18.0402 22.7394 18.2193 22.726 18.4084 22.6986C19.1576 22.59 19.8506 22.5483 20.5033 22.5483C21.6142 22.5483 22.6101 22.6689 23.5754 22.7859H23.5754H23.5754C24.4833 22.8959 25.3642 23.0027 26.2883 23.0027C27.1139 23.0027 27.9737 22.9175 28.9182 22.6733C30.1063 22.3661 31.1157 21.7473 31.0823 20.7658C31.038 19.4622 30.2803 18.8059 29.3014 18.5991C29.1501 18.5672 29.0676 18.4031 29.1319 18.2625C29.3673 17.7475 29.4795 17.1984 29.2212 16.5009C29.0267 15.9755 28.5566 15.5695 27.8029 15.3157C27.6732 15.272 27.6057 15.1287 27.6551 15.0009C27.831 14.5455 27.8747 14.0433 27.5169 13.5791C27.1355 13.0845 26.6006 12.8633 26.0382 12.8274C25.8845 12.8176 25.7787 12.67 25.8201 12.5216C26.0036 11.865 25.8823 11.1792 25.2038 10.5136C23.9943 9.32706 23.0812 8.78166 22.4845 8.53146ZM21.4764 7.28526C21.7362 7.15096 22.0275 7.07996 22.3189 7.07996H22.319C22.5644 7.07996 22.8046 7.12856 23.0329 7.22426C24.0089 7.63346 25.0734 8.39976 26.1967 9.50166C26.7006 9.99606 27.039 10.5495 27.2025 11.1465C27.2508 11.323 27.2836 11.5016 27.3008 11.682C27.3553 11.7049 27.4092 11.7292 27.4624 11.7549C27.9257 11.9788 28.3218 12.3013 28.6397 12.7137C28.8148 12.9409 28.9516 13.1881 29.0463 13.4483C29.1365 13.6963 29.1889 13.9571 29.202 14.2237C29.205 14.286 29.2059 14.3486 29.2047 14.4116C29.9901 14.8979 30.3685 15.5172 30.5505 16.0088C30.7437 16.5306 30.8188 17.057 30.7738 17.5733C30.7715 17.6 30.7689 17.6266 30.7659 17.6533C31.0807 17.8352 31.3596 18.0602 31.5964 18.3235C31.8787 18.6375 32.099 19.0034 32.2511 19.411C32.3996 19.8091 32.4831 20.2488 32.499 20.7177C32.5074 20.9651 32.4829 21.2106 32.4261 21.4475C32.3713 21.676 32.2859 21.8984 32.1725 22.1084C31.9768 22.4707 31.6972 22.798 31.3413 23.0813C30.811 23.5035 30.1152 23.8279 29.2732 24.0456C28.2985 24.2976 27.2981 24.4201 26.2885 24.4201C25.2789 24.4201 24.3263 24.3047 23.4052 24.1931C22.4828 24.0813 21.5289 23.9657 20.5035 23.9657C19.8604 23.9657 19.2417 24.0101 18.612 24.1014C18.3582 24.1382 18.1089 24.1569 17.8712 24.1569C17.447 24.1569 17.0467 24.0979 16.6815 23.9814C16.2822 23.854 15.9245 23.6588 15.6183 23.4012C15.0165 22.8948 14.6417 22.1731 14.5343 21.314C14.4757 20.845 14.4923 20.3952 14.5838 19.9771C14.6822 19.5271 14.8665 19.1126 15.1315 18.7448C15.4138 18.3532 15.7813 18.0217 16.2302 17.7529C16.2194 17.6717 16.2116 17.5899 16.2068 17.5076C16.1774 17.0013 16.2641 16.478 16.4644 15.9524C16.6563 15.4489 17.034 14.8333 17.7773 14.3838C17.7672 14.2059 17.7708 14.0289 17.7879 13.8535C17.8414 13.3061 18.0278 12.7701 18.342 12.2603C18.5944 11.8508 18.9184 11.5006 19.3049 11.2195C19.4045 11.1471 19.5089 11.0788 19.618 11.0148C19.6293 10.8491 19.6578 10.6834 19.7034 10.5193C19.8223 10.0913 20.0572 9.67196 20.4218 9.23746C20.4454 9.20926 20.4679 9.18356 20.4897 9.15866L20.4937 9.15406C20.4688 8.95966 20.4747 8.76196 20.5119 8.57056C20.5643 8.30056 20.6795 8.04096 20.845 7.81996C21.0115 7.59766 21.2298 7.41276 21.4764 7.28526ZM25.6641 19.7711H21.3363C20.9127 19.7711 20.7198 20.3006 21.0448 20.5722C21.5588 21.0018 22.3639 21.4439 23.5002 21.4439C24.6365 21.4439 25.4415 21.0018 25.9556 20.5722C26.2806 20.3006 26.0876 19.7711 25.6641 19.7711ZM21.5253 15.5564C21.8384 15.5564 22.0922 16.064 22.0922 16.6903C22.0922 17.3166 21.8384 17.8242 21.5253 17.8242C21.2122 17.8242 20.9584 17.3166 20.9584 16.6903C20.9584 16.064 21.2122 15.5564 21.5253 15.5564ZM21.5253 14.6493C21.2325 14.6493 20.9536 14.7543 20.7188 14.953C20.5569 15.0899 20.4204 15.2682 20.3131 15.4829C20.1418 15.8255 20.0513 16.243 20.0513 16.6903C20.0513 17.1376 20.1418 17.5552 20.3131 17.8977C20.4204 18.1124 20.5569 18.2906 20.7188 18.4276C20.9536 18.6263 21.2325 18.7313 21.5253 18.7313C21.8181 18.7313 22.097 18.6263 22.3318 18.4276C22.4937 18.2907 22.6302 18.1124 22.7375 17.8977C22.9088 17.5551 22.9993 17.1376 22.9993 16.6903C22.9993 16.243 22.9088 15.8254 22.7375 15.4829C22.6302 15.2682 22.4937 15.09 22.3318 14.953C22.097 14.7543 21.8181 14.6493 21.5253 14.6493ZM26.0419 16.7073C26.0419 16.081 25.7881 15.5734 25.475 15.5734C25.1619 15.5734 24.9081 16.081 24.9081 16.7073C24.9081 17.3336 25.1619 17.8412 25.475 17.8412C25.7881 17.8412 26.0419 17.3336 26.0419 16.7073ZM24.6685 14.97C24.9033 14.7713 25.1822 14.6663 25.475 14.6663C25.7678 14.6663 26.0467 14.7713 26.2815 14.97C26.4434 15.107 26.5799 15.2852 26.6872 15.4999C26.8585 15.8424 26.949 16.26 26.949 16.7073C26.949 17.1546 26.8585 17.5721 26.6872 17.9147C26.5799 18.1294 26.4434 18.3077 26.2815 18.4446C26.0467 18.6433 25.7678 18.7483 25.475 18.7483C25.1822 18.7483 24.9033 18.6433 24.6685 18.4446C24.5066 18.3076 24.3701 18.1294 24.2628 17.9147C24.0915 17.5722 24.001 17.1546 24.001 16.7073C24.001 16.26 24.0915 15.8425 24.2628 15.4999C24.3701 15.2852 24.5066 15.1069 24.6685 14.97Z" fill="black"/>
<path d="M33.2665 35.2224L32.1431 31.3542C32.104 31.2028 32.0845 31.1003 32.0845 30.9928C32.0845 30.6851 32.3238 30.4702 32.6706 30.4702C32.9734 30.4702 33.1639 30.646 33.2372 30.983L33.9065 34.0282C33.9382 34.1723 34.1416 34.1781 34.1814 34.036L35.0247 31.027C35.1078 30.6656 35.3471 30.4702 35.7183 30.4702C36.0895 30.4702 36.319 30.6607 36.4021 31.027L37.2335 34.0381C37.2727 34.1802 37.4758 34.1754 37.5084 34.0317L38.1995 30.9781C38.2728 30.6411 38.4584 30.4702 38.7563 30.4702C39.1031 30.4702 39.3375 30.6802 39.3375 30.9879C39.3375 31.0954 39.318 31.1979 39.274 31.3444L38.1555 35.2224C38.0334 35.6473 37.7941 35.8476 37.3838 35.8476C36.9491 35.8476 36.7147 35.662 36.6023 35.2175L35.8379 32.4581C35.7995 32.3195 35.603 32.3196 35.5647 32.4581L34.8001 35.2223C34.6975 35.6472 34.4484 35.8475 34.0284 35.8475C33.6084 35.8475 33.3935 35.657 33.2665 35.2223V35.2224Z" fill="black"/>
<path d="M28.9351 30.4667C27.4263 30.4667 26.4302 31.4921 26.4302 33.162C26.4302 34.8319 27.4165 35.8525 28.9351 35.8525C30.4537 35.8525 31.44 34.8417 31.44 33.162C31.44 31.4823 30.4439 30.4667 28.9351 30.4667ZM28.9351 34.8906C28.1636 34.8906 27.6656 34.2656 27.6656 33.1621C27.6656 32.0586 28.1685 31.4336 28.9351 31.4336C29.7017 31.4336 30.2046 32.0635 30.2046 33.1621C30.2046 34.2607 29.7065 34.8906 28.9351 34.8906Z" fill="black"/>
<path d="M20.7949 35.2079V29.2305C20.7949 28.8447 21.0244 28.6054 21.3956 28.6054C21.7668 28.6054 21.9963 28.8447 21.9963 29.2305V30.7062C21.9963 30.8094 22.1029 30.878 22.1968 30.8352C22.4921 30.7006 23.0726 30.4758 23.6567 30.4758C24.7994 30.4758 25.4685 31.2279 25.4685 32.4146V35.208C25.4685 35.6182 25.2146 35.8477 24.8581 35.8477C24.5016 35.8477 24.2525 35.6182 24.2525 35.208V32.6637C24.2525 31.9409 23.8911 31.5063 23.1879 31.5063C22.4847 31.5063 22.011 32.0142 22.011 32.776V35.208C22.011 35.6182 21.7619 35.8477 21.4054 35.8477C21.0489 35.8477 20.7949 35.6181 20.7949 35.2079Z" fill="black"/>
<path d="M16.9825 35.8671C15.5762 35.8671 14.6387 35.2812 14.3653 34.4804C14.3214 34.3632 14.2969 34.2363 14.2969 34.1191C14.2969 33.7675 14.5215 33.5429 14.8535 33.5429C15.1318 33.5429 15.3076 33.6552 15.4443 33.9384C15.664 34.5488 16.2695 34.8222 17.0215 34.8222C17.8711 34.8222 18.4668 34.4023 18.4668 33.8163C18.4668 33.3085 18.1152 32.996 17.1973 32.8055L16.4405 32.6492C15.0294 32.3611 14.3702 31.697 14.3702 30.6668C14.3702 29.4266 15.4591 28.5867 16.9874 28.5867C18.2325 28.5867 19.1993 29.1433 19.4874 30.076C19.5167 30.1541 19.5313 30.2469 19.5313 30.3641C19.5313 30.6717 19.3116 30.8817 18.9844 30.8817C18.6914 30.8817 18.5108 30.7547 18.3789 30.4813C18.1396 29.8856 17.6367 29.6317 16.9775 29.6317C16.1962 29.6317 15.6396 30.0028 15.6396 30.5936C15.6396 31.0721 15.9912 31.3797 16.8701 31.5653L17.6269 31.7216C19.1113 32.0292 19.7363 32.6249 19.7363 33.6699C19.7363 35.0176 18.6767 35.8672 16.9824 35.8672L16.9825 35.8671Z" fill="black"/>
</svg>
