<svg width="68" height="54" viewBox="0 0 68 54" fill="none" xmlns="http://www.w3.org/2000/svg">
<path d="M10.2042 37.0347C10.1252 27.0966 10.0222 17.1597 9.89746 7.22124C9.91747 6.51726 10.0715 5.80827 10.3435 5.15544C10.4795 4.83147 10.6445 4.52055 10.8396 4.22832C11.0316 3.93828 11.2546 3.66728 11.5041 3.42375C11.7511 3.18083 12.0251 2.96477 12.3169 2.77861C12.6079 2.59258 12.9179 2.43657 13.2402 2.30962C13.8842 2.05559 14.5822 1.92058 15.2713 1.91154C27.5883 1.83257 39.9073 1.83257 52.2242 1.91191C52.3903 1.91496 52.5573 1.92387 52.7235 1.9406C52.9716 1.9655 53.2176 2.00456 53.4604 2.05949C53.7035 2.11443 53.9435 2.18547 54.1755 2.27104C54.6665 2.4561 55.1345 2.71501 55.5504 3.0385C55.9694 3.36345 56.3354 3.75346 56.6357 4.18938C56.9377 4.62944 57.1727 5.11748 57.3333 5.62761C57.4952 6.14372 57.5822 6.68266 57.5987 7.22209C57.4707 17.1591 57.3677 27.0971 57.2917 37.035C57.2817 37.366 57.2338 37.696 57.1611 38.0201C57.0861 38.3471 56.9861 38.668 56.8557 38.9766C56.7247 39.2886 56.5627 39.5885 56.3759 39.8709C56.187 40.155 55.973 40.4229 55.7365 40.6684C55.4995 40.9144 55.2386 41.1384 54.9608 41.3365C54.6818 41.5345 54.3878 41.7074 54.0767 41.8533C53.4657 42.1413 52.7977 42.3254 52.1257 42.3811C46.0037 42.6772 39.8767 42.8241 33.7478 42.8244C27.6188 42.8244 21.4918 42.6763 15.3697 42.3809C14.6977 42.3259 14.0297 42.1479 13.4165 41.858C12.7975 41.566 12.2325 41.1609 11.7583 40.668C11.2863 40.179 10.9053 39.6031 10.6398 38.9756C10.3778 38.3606 10.2278 37.6967 10.2028 37.0336" stroke="#16215B" stroke-width="0.283" stroke-miterlimit="10"/>
<path d="M13.3384 4.39252C12.5554 4.39252 11.9204 5.02655 11.9204 5.80914V38.975C11.9204 39.7581 12.5554 40.3922 13.3387 40.3925H54.1567C54.9397 40.3925 55.5737 39.7576 55.5737 38.9755V5.80951C55.5737 5.02655 54.9398 4.39252 54.1568 4.39252" stroke="#00FFFF" stroke-width="0.28" stroke-miterlimit="10"/>
<path d="M11.0405 7.43842V7.31744C11.0415 7.2785 11.0424 7.23846 11.0435 7.19843L11.0495 7.08051C11.0525 7.04047 11.0555 7.00153 11.0594 6.96246C11.0635 6.92352 11.0675 6.88446 11.0715 6.84552L11.0854 6.73041C11.0915 6.69147 11.0975 6.6535 11.1045 6.61542C11.1105 6.57745 11.1174 6.53949 11.1245 6.50153L11.1475 6.38947C11.1564 6.35248 11.1655 6.31451 11.1734 6.27753C11.1824 6.24042 11.1925 6.20343 11.2035 6.16742C11.2124 6.13043 11.2234 6.09344 11.2345 6.05743C11.2465 6.02142 11.2565 5.98444 11.2695 5.94843C11.2814 5.91241 11.2935 5.87653 11.3065 5.84052C11.3195 5.80548 11.3335 5.76947 11.3465 5.73346C11.3735 5.66742 11.4015 5.60052 11.4315 5.53448C11.4604 5.46844 11.4924 5.40448 11.5255 5.34052C11.5585 5.27643 11.5935 5.21344 11.6295 5.15253C11.6665 5.09052 11.7055 5.02948 11.7445 4.96942C11.8244 4.84943 11.9115 4.73346 12.0034 4.6225C12.0955 4.51251 12.1925 4.40741 12.2955 4.30951C12.3985 4.20941 12.5065 4.11749 12.6205 4.02948C12.7355 3.94147 12.8555 3.85846 12.9785 3.78241C13.0405 3.74445 13.1024 3.70844 13.1665 3.67352C13.2295 3.63849 13.2935 3.60541 13.3585 3.57452C13.4234 3.54242 13.4895 3.51251 13.5555 3.48444C13.6235 3.45648 13.6905 3.4295 13.7585 3.40448C13.7775 3.39752 13.7944 3.39142 13.8135 3.38446L13.8695 3.36542C13.8875 3.35944 13.9064 3.35345 13.9255 3.34747L13.9815 3.32953C14.0005 3.32343 14.0195 3.31744 14.0385 3.31244C14.0565 3.30646 14.0764 3.30145 14.0945 3.29547C14.1145 3.29047 14.1325 3.28546 14.1525 3.27948C14.1705 3.27448 14.1905 3.27045 14.2085 3.26544C14.2285 3.25946 14.2485 3.25543 14.2664 3.25043C14.2865 3.24542 14.3055 3.24152 14.3255 3.23651C14.3435 3.23248 14.3634 3.22845 14.3825 3.22345C14.4025 3.21942 14.4214 3.21552 14.4415 3.21149L14.5005 3.19952C14.5195 3.1955 14.5405 3.19244 14.5594 3.18842L14.6185 3.17853C14.6385 3.1745 14.6584 3.17145 14.6785 3.16852C14.6985 3.16547 14.7175 3.16241 14.7384 3.15948C14.7575 3.15643 14.7785 3.15448 14.7984 3.15143C14.8185 3.1485 14.8385 3.14642 14.8585 3.14447C14.8784 3.14142 14.8995 3.13947 14.9194 3.13751C14.9395 3.13446 14.9595 3.13251 14.9805 3.13043C15.0005 3.12848 15.0215 3.12653 15.0424 3.12543C15.0625 3.12347 15.0835 3.1225 15.1035 3.12042C15.1245 3.11847 15.1445 3.11749 15.1655 3.11652C15.1864 3.11444 15.2075 3.11346 15.2274 3.11249C15.2485 3.11151 15.2695 3.11041 15.2905 3.10944C15.3105 3.10846 15.3325 3.10846 15.3524 3.10748C15.3745 3.10651 15.3945 3.10651 15.4165 3.10651C15.4364 3.10541 15.4585 3.10541 15.4795 3.10541C15.5806 3.10541 15.6826 3.10443 15.7856 3.10345C15.8866 3.10345 15.9886 3.10248 16.0905 3.1015C16.1926 3.10052 16.2935 3.10052 16.3965 3.09943C16.4975 3.09845 16.5995 3.09845 16.7025 3.09747C16.8035 3.0965 16.9066 3.0965 17.0076 3.09552C17.1095 3.09442 17.2115 3.09442 17.3136 3.09344C17.4155 3.09344 17.5175 3.09247 17.6205 3.09149C17.7216 3.09149 17.8246 3.09052 17.9256 3.08942C18.0285 3.08942 18.1295 3.08844 18.2325 3.08844C18.3336 3.08746 18.4366 3.08649 18.5376 3.08649C18.6405 3.08551 18.7426 3.08551 18.8445 3.08441C18.9465 3.08441 19.0486 3.08344 19.1505 3.08344C19.2525 3.08246 19.3555 3.08246 19.4565 3.08148C19.5596 3.08148 19.6615 3.08051 19.7635 3.08051C19.8665 3.07953 19.9675 3.07953 20.0706 3.07843C20.1725 3.07745 20.2746 3.07745 20.3766 3.07648C20.4785 3.07648 20.5806 3.0755 20.6835 3.0755C20.7856 3.07452 20.8875 3.07452 20.9906 3.07343C21.0916 3.07343 21.1945 3.07245 21.2966 3.07245C21.3996 3.07147 21.5005 3.07147 21.6035 3.07147C21.7056 3.0705 21.8076 3.0705 21.9106 3.06952C22.0125 3.06952 22.1156 3.06842 22.2166 3.06842L22.5246 3.06647C22.6266 3.06647 22.7285 3.06647 22.8306 3.06549C22.9335 3.06549 23.0365 3.06451 23.1375 3.06451C23.2406 3.06451 23.3425 3.06342 23.4456 3.06342C23.5475 3.06342 23.6505 3.06244 23.7516 3.06244L24.0596 3.06146C24.1626 3.06146 24.2645 3.06049 24.3665 3.06049C24.4686 3.05951 24.5715 3.05951 24.6735 3.05951C24.7765 3.05841 24.8786 3.05841 24.9816 3.05841C25.0825 3.05743 25.1855 3.05743 25.2876 3.05743C25.3905 3.05646 25.4935 3.05646 25.5955 3.05646C25.6985 3.05548 25.8006 3.05548 25.9035 3.05548C26.0055 3.05548 26.1085 3.0545 26.2095 3.0545C26.3125 3.0545 26.4145 3.05353 26.5175 3.05353C26.6205 3.05353 26.7225 3.05353 26.8255 3.05243C26.9275 3.05243 27.0305 3.05243 27.1326 3.05243C27.2355 3.05145 27.3375 3.05145 27.4405 3.05145C27.5425 3.05145 27.6456 3.05048 27.7475 3.05048C27.8505 3.05048 27.9535 3.05048 28.0555 3.0495C28.1586 3.0495 28.2605 3.0495 28.3635 3.0495C28.4655 3.0495 28.5685 3.04852 28.6705 3.04852C28.7735 3.04852 28.8755 3.04852 28.9785 3.04852C29.0806 3.04742 29.1835 3.04742 29.2865 3.04742C29.3885 3.04742 29.4915 3.04742 29.5936 3.04742C29.6965 3.04645 29.7985 3.04645 29.9015 3.04645C30.0036 3.04645 30.1066 3.04645 30.2085 3.04645C30.3115 3.04645 30.4135 3.04547 30.5166 3.04547C30.6196 3.04547 30.7215 3.04547 30.8245 3.04547H31.1315C31.2345 3.04547 31.3365 3.04449 31.4395 3.04449H31.7465C31.8495 3.04449 31.9525 3.04449 32.0555 3.04449H32.3635H32.6705C32.7735 3.04352 32.8755 3.04352 32.9785 3.04352H33.2865H33.5936H33.9025H34.2095H34.5175C34.6205 3.04352 34.7225 3.04352 34.8255 3.04449H35.1326H35.4405C35.5425 3.04449 35.6456 3.04449 35.7475 3.04449H36.0565C36.1595 3.04449 36.2616 3.04547 36.3645 3.04547H36.6716C36.7746 3.04547 36.8765 3.04547 36.9795 3.04547C37.0815 3.04547 37.1846 3.04645 37.2876 3.04645C37.3895 3.04645 37.4925 3.04645 37.5945 3.04645C37.6976 3.04645 37.7995 3.04645 37.9025 3.04742C38.0045 3.04742 38.1075 3.04742 38.2095 3.04742C38.3125 3.04742 38.4145 3.04742 38.5175 3.04852C38.6205 3.04852 38.7225 3.04852 38.8255 3.04852C38.9275 3.04852 39.0305 3.0495 39.1326 3.0495C39.2355 3.0495 39.3375 3.0495 39.4405 3.0495C39.5425 3.05048 39.6456 3.05048 39.7475 3.05048C39.8505 3.05048 39.9535 3.05145 40.0555 3.05145C40.1586 3.05145 40.2605 3.05145 40.3635 3.05243C40.4655 3.05243 40.5685 3.05243 40.6705 3.05243C40.7735 3.05353 40.8755 3.05353 40.9785 3.05353C41.0806 3.05353 41.1825 3.0545 41.2855 3.0545C41.3875 3.0545 41.4906 3.05548 41.5925 3.05548C41.6955 3.05548 41.7975 3.05548 41.9005 3.05646C42.0025 3.05646 42.1055 3.05646 42.2075 3.05743C42.3096 3.05743 42.4126 3.05743 42.5145 3.05841C42.6175 3.05841 42.7195 3.05841 42.8226 3.05951C42.9245 3.05951 43.0275 3.05951 43.1286 3.06049C43.2316 3.06049 43.3335 3.06146 43.4365 3.06146L43.7446 3.06244C43.8455 3.06244 43.9485 3.06342 44.0506 3.06342C44.1535 3.06342 44.2555 3.06451 44.3575 3.06451L44.6645 3.06549C44.7675 3.06647 44.8696 3.06647 44.9715 3.06647C45.0745 3.06744 45.1765 3.06744 45.2785 3.06842L45.5855 3.06952C45.6875 3.0705 45.7895 3.0705 45.8925 3.07147C45.9955 3.07147 46.0965 3.07147 46.1995 3.07245C46.3015 3.07245 46.4035 3.07343 46.5055 3.07343C46.6085 3.07452 46.7095 3.07452 46.8125 3.0755C46.9145 3.0755 47.0166 3.07648 47.1196 3.07648C47.2215 3.07745 47.3235 3.07745 47.4256 3.07843C47.5285 3.07953 47.6295 3.07953 47.7325 3.08051C47.8335 3.08051 47.9365 3.08148 48.0385 3.08148C48.1405 3.08246 48.2435 3.08246 48.3445 3.08344C48.4476 3.08344 48.5495 3.08441 48.6515 3.08441C48.7536 3.08551 48.8555 3.08551 48.9575 3.08649C49.0596 3.08649 49.1626 3.08746 49.2635 3.08844C49.3665 3.08844 49.4675 3.08942 49.5705 3.08942C49.6716 3.09052 49.7746 3.09149 49.8755 3.09149C49.9785 3.09247 50.0795 3.09344 50.1825 3.09344C50.2845 3.09442 50.3855 3.09442 50.4885 3.09552C50.5896 3.0965 50.6926 3.0965 50.7935 3.09747C50.8956 3.09845 50.9975 3.09845 51.0995 3.09943C51.2025 3.10052 51.3035 3.10052 51.4055 3.1015C51.5076 3.10248 51.6095 3.10345 51.7105 3.10345C51.8136 3.10443 51.9145 3.10541 52.0166 3.10541C52.058 3.10553 52.099 3.10651 52.139 3.10748C52.18 3.10846 52.22 3.11053 52.26 3.11249C52.3 3.11444 52.34 3.11652 52.38 3.11945C52.42 3.1225 52.46 3.12543 52.499 3.12946C52.5379 3.13251 52.578 3.13751 52.617 3.14142C52.656 3.14642 52.695 3.15045 52.733 3.15643C52.772 3.16144 52.811 3.16742 52.85 3.17352C52.888 3.18048 52.9259 3.18646 52.964 3.19342C53.002 3.2005 53.04 3.20843 53.078 3.21649C53.115 3.22443 53.153 3.23248 53.19 3.24152C53.227 3.25043 53.265 3.25946 53.302 3.26947C53.339 3.2785 53.376 3.28851 53.412 3.29852C53.449 3.30951 53.485 3.3205 53.521 3.33148C53.558 3.34247 53.5939 3.35553 53.63 3.36652C53.666 3.37848 53.702 3.39142 53.737 3.40448C53.806 3.4295 53.873 3.45648 53.9389 3.48444C54.007 3.51251 54.072 3.54242 54.138 3.57452C54.202 3.60553 54.267 3.63849 54.33 3.67352C54.393 3.70844 54.455 3.74445 54.517 3.78253C54.641 3.85846 54.761 3.94049 54.876 4.02948C54.989 4.11652 55.097 4.20953 55.2 4.30853C55.303 4.40753 55.3999 4.51251 55.492 4.6225C55.585 4.73346 55.671 4.84943 55.751 4.96942C55.791 5.02948 55.829 5.09052 55.866 5.15253C55.902 5.21344 55.937 5.27643 55.971 5.34052C56.004 5.40448 56.035 5.46844 56.0639 5.53448C56.095 5.60052 56.123 5.66644 56.149 5.73346C56.156 5.7525 56.1629 5.77045 56.17 5.78949C56.177 5.80743 56.184 5.82648 56.19 5.84442C56.197 5.86249 56.204 5.88153 56.21 5.89948C56.217 5.91852 56.223 5.93744 56.229 5.95648C56.235 5.97443 56.241 5.99347 56.247 6.01251C56.253 6.03046 56.259 6.0495 56.265 6.06842C56.27 6.08746 56.276 6.10651 56.281 6.12543C56.287 6.14447 56.292 6.16351 56.297 6.18243C56.303 6.20148 56.308 6.22052 56.312 6.23944C56.317 6.25848 56.322 6.27753 56.327 6.29645C56.331 6.31549 56.336 6.33551 56.341 6.35443C56.345 6.37445 56.349 6.39349 56.353 6.41254C56.3569 6.43243 56.361 6.45148 56.365 6.47052L56.377 6.52948C56.38 6.54852 56.384 6.56842 56.388 6.58746C56.391 6.60748 56.394 6.6275 56.397 6.64642C56.3999 6.66742 56.403 6.68646 56.406 6.70648C56.409 6.7265 56.412 6.74652 56.414 6.76642C56.417 6.78644 56.42 6.80548 56.422 6.8255C56.425 6.84552 56.427 6.86542 56.429 6.88544C56.431 6.90643 56.433 6.92645 56.435 6.94647C56.436 6.96649 56.438 6.98651 56.44 7.00653C56.442 7.02753 56.443 7.04742 56.445 7.06744C56.446 7.08746 56.447 7.10846 56.448 7.12848C56.45 7.14948 56.451 7.16949 56.452 7.19049C56.452 7.21051 56.453 7.23151 56.454 7.25153C56.455 7.27252 56.455 7.29352 56.456 7.31342V7.37653V7.43842C56.4541 7.94391 56.451 8.44891 56.448 8.9549C56.4321 12.1459 56.4161 15.338 56.401 18.53C56.395 19.6939 56.391 20.858 56.3861 22.0229C56.365 26.8769 56.3471 31.732 56.3301 36.5859C56.3299 36.6252 56.329 36.6641 56.328 36.7032C56.327 36.7432 56.3259 36.7822 56.324 36.8212C56.3219 36.8602 56.319 36.8992 56.316 36.9372C56.3129 36.9761 56.31 37.0142 56.307 37.0532C56.303 37.0922 56.299 37.1302 56.294 37.1682C56.29 37.2061 56.284 37.2442 56.2789 37.2831C56.273 37.3212 56.268 37.3582 56.2609 37.3962C56.255 37.4341 56.248 37.4722 56.2399 37.5092C56.233 37.5472 56.226 37.5842 56.217 37.6212C56.209 37.6591 56.2 37.6962 56.191 37.7332C56.182 37.7702 56.173 37.8072 56.1619 37.8442C56.152 37.8802 56.142 37.9172 56.131 37.9532C56.1199 37.9902 56.108 38.0272 56.097 38.0632C56.0849 38.0992 56.0719 38.1362 56.06 38.1722C56.047 38.2082 56.034 38.2432 56.0199 38.2802C55.9679 38.4172 55.909 38.5541 55.8439 38.6862C55.7789 38.8172 55.709 38.9442 55.6329 39.0682C55.557 39.1912 55.475 39.3101 55.3869 39.4262C55.299 39.5412 55.2049 39.6522 55.105 39.7581C55.0069 39.8652 54.901 39.9661 54.7919 40.0632C54.682 40.1591 54.5669 40.2512 54.448 40.3372C54.389 40.3792 54.328 40.4212 54.267 40.4601C54.2049 40.5002 54.143 40.5381 54.0799 40.5751C54.017 40.6111 53.953 40.6462 53.889 40.6791C53.823 40.7122 53.7579 40.7442 53.691 40.7742C53.674 40.7822 53.657 40.7891 53.64 40.7972C53.623 40.8051 53.605 40.8122 53.588 40.8192C53.57 40.8262 53.554 40.8342 53.536 40.8411C53.519 40.8482 53.501 40.8552 53.483 40.8621C53.467 40.8692 53.449 40.8762 53.432 40.8821C53.414 40.8892 53.396 40.8952 53.379 40.9022L53.3259 40.9212C53.3089 40.9272 53.291 40.9332 53.272 40.9391C53.255 40.9462 53.237 40.9512 53.22 40.9572C53.202 40.9632 53.185 40.9692 53.166 40.9742C53.148 40.9802 53.131 40.9852 53.112 40.9911C53.095 40.9962 53.077 41.0012 53.0589 41.0062C53.041 41.0121 53.022 41.0162 53.005 41.0212C52.9859 41.0262 52.9689 41.0312 52.95 41.0352C52.933 41.0402 52.914 41.0452 52.896 41.0502C52.8779 41.0541 52.859 41.0582 52.842 41.0622C52.823 41.0672 52.8049 41.0712 52.7869 41.0751L52.7309 41.0872C52.713 41.0911 52.695 41.0942 52.677 41.0982L52.621 41.1082C52.6019 41.1121 52.584 41.1152 52.565 41.1182C52.547 41.1212 52.528 41.1242 52.51 41.1271C52.491 41.1302 52.4729 41.1331 52.453 41.1362C52.435 41.1381 52.416 41.1412 52.397 41.1431C52.379 41.1462 52.359 41.1481 52.341 41.1512C52.3219 41.1531 52.303 41.1552 52.284 41.1572C52.2659 41.1591 52.246 41.1612 52.2269 41.1631C52.208 41.1652 52.1889 41.1672 52.17 41.1682C52.151 41.1702 52.1319 41.1712 52.113 41.1732C52.0939 41.1741 52.075 41.1762 52.056 41.1772C52.036 41.1782 52.018 41.1791 51.998 41.1801C51.896 41.1851 51.795 41.1901 51.692 41.1951L51.388 41.2101C51.285 41.2151 51.1839 41.2202 51.082 41.2242C50.98 41.2292 50.8779 41.2342 50.776 41.2392C50.6749 41.2432 50.5719 41.2482 50.471 41.2532C50.3689 41.2581 50.267 41.2621 50.165 41.2662C50.0629 41.2712 49.961 41.2762 49.859 41.2802C49.7579 41.2841 49.655 41.2891 49.554 41.2932C49.452 41.2982 49.35 41.3022 49.248 41.3062C49.1449 41.3112 49.044 41.3151 48.942 41.3192C48.84 41.3242 48.738 41.3282 48.636 41.3322C48.534 41.3361 48.432 41.3401 48.33 41.3442C48.2269 41.3482 48.126 41.3522 48.024 41.3561C47.922 41.3602 47.82 41.3642 47.718 41.3682C47.616 41.3721 47.514 41.3762 47.411 41.3802C47.31 41.3831 47.207 41.3871 47.105 41.3912C47.0029 41.3942 46.901 41.3981 46.799 41.4022C46.6969 41.4062 46.595 41.4091 46.493 41.4122C46.3909 41.4162 46.2879 41.4202 46.186 41.4232C46.084 41.4272 45.9819 41.4301 45.88 41.4332C45.777 41.4372 45.6759 41.4401 45.573 41.4432C45.471 41.4472 45.3689 41.4501 45.267 41.4532C45.165 41.4561 45.062 41.4592 44.9599 41.4622C44.858 41.4661 44.756 41.4692 44.653 41.4722C44.552 41.4752 44.449 41.4782 44.347 41.4811C44.2439 41.4842 44.143 41.4871 44.04 41.4892C43.937 41.4921 43.836 41.4952 43.733 41.4982C43.631 41.5002 43.528 41.5032 43.427 41.5062C43.324 41.5092 43.222 41.5112 43.1199 41.5142C43.018 41.5162 42.915 41.5192 42.812 41.5222C42.7099 41.5242 42.608 41.5272 42.506 41.5292C42.403 41.5322 42.3009 41.5341 42.199 41.5362L41.892 41.5432C41.789 41.5452 41.687 41.5482 41.5849 41.5502C41.4819 41.5522 41.38 41.5541 41.277 41.5562C41.1759 41.5582 41.073 41.5601 40.971 41.5622L40.6629 41.5682C40.561 41.5701 40.459 41.5722 40.3559 41.5742C40.254 41.5762 40.151 41.5772 40.049 41.5792C39.946 41.5811 39.845 41.5832 39.742 41.5842C39.64 41.5861 39.5369 41.5882 39.435 41.5892C39.332 41.5911 39.229 41.5922 39.1279 41.5942L38.82 41.5982L38.513 41.6022C38.41 41.6032 38.308 41.6052 38.205 41.6061C38.103 41.6071 38.001 41.6092 37.898 41.6102C37.7959 41.6111 37.6929 41.6121 37.591 41.6132L37.2829 41.6161C37.181 41.6171 37.078 41.6182 36.9769 41.6192C36.8739 41.6202 36.771 41.6202 36.669 41.6212C36.566 41.6221 36.4639 41.6232 36.3609 41.6242C36.259 41.6242 36.156 41.6252 36.054 41.6262C35.9509 41.6262 35.849 41.6271 35.746 41.6282C35.643 41.6282 35.541 41.6292 35.4389 41.6292C35.337 41.6302 35.234 41.6302 35.1319 41.6302L34.824 41.6321C34.722 41.6321 34.6189 41.6321 34.517 41.6321C34.414 41.6331 34.311 41.6331 34.209 41.6331C34.1059 41.6331 34.004 41.6331 33.901 41.6331H33.595C33.492 41.6331 33.39 41.6331 33.2869 41.6331C33.185 41.6331 33.082 41.6331 32.979 41.6321C32.877 41.6321 32.7739 41.6321 32.672 41.6321L32.364 41.6302C32.2619 41.6302 32.159 41.6302 32.057 41.6292C31.954 41.6292 31.8519 41.6282 31.75 41.6282C31.647 41.6271 31.545 41.6262 31.442 41.6262C31.34 41.6252 31.237 41.6242 31.135 41.6242C31.032 41.6232 30.9299 41.6221 30.827 41.6212C30.725 41.6202 30.622 41.6202 30.519 41.6192C30.4169 41.6182 30.315 41.6171 30.213 41.6161L29.905 41.6132C29.803 41.6121 29.7 41.6111 29.5979 41.6102C29.4949 41.6092 29.393 41.6071 29.29 41.6061C29.187 41.6052 29.086 41.6032 28.983 41.6022L28.6759 41.5982L28.368 41.5942C28.2659 41.5922 28.164 41.5911 28.061 41.5892C27.959 41.5882 27.8559 41.5861 27.754 41.5842C27.651 41.5832 27.549 41.5811 27.4469 41.5792C27.345 41.5772 27.242 41.5762 27.14 41.5742L26.832 41.5682C26.73 41.5662 26.6279 41.5641 26.5249 41.5622C26.423 41.5601 26.32 41.5582 26.2179 41.5562C26.116 41.5541 26.014 41.5522 25.911 41.5502C25.8089 41.5482 25.7059 41.5452 25.604 41.5432L25.297 41.5362C25.194 41.5341 25.0929 41.5322 24.9899 41.5292C24.888 41.5272 24.785 41.5242 24.6839 41.5222C24.581 41.5192 24.478 41.5162 24.376 41.5142C24.274 41.5112 24.172 41.5092 24.069 41.5062C23.967 41.5032 23.865 41.5002 23.763 41.4982C23.66 41.4952 23.559 41.4921 23.456 41.4892C23.353 41.4871 23.251 41.4842 23.149 41.4811C23.047 41.4782 22.944 41.4752 22.843 41.4722C22.74 41.4692 22.638 41.4661 22.536 41.4622C22.434 41.4592 22.331 41.4561 22.229 41.4532C22.127 41.4501 22.024 41.4472 21.923 41.4432C21.82 41.4401 21.719 41.4372 21.616 41.4332C21.514 41.4301 21.412 41.4272 21.31 41.4232C21.208 41.4202 21.105 41.4162 21.003 41.4122C20.901 41.4091 20.799 41.4062 20.697 41.4022C20.595 41.3981 20.493 41.3942 20.391 41.3912C20.288 41.3871 20.186 41.3831 20.084 41.3802C19.982 41.3762 19.88 41.3721 19.778 41.3682C19.676 41.3642 19.574 41.3602 19.472 41.3561C19.37 41.3522 19.268 41.3482 19.166 41.3442C19.063 41.3401 18.962 41.3361 18.86 41.3322C18.758 41.3282 18.656 41.3242 18.554 41.3192C18.452 41.3151 18.35 41.3112 18.248 41.3062C18.146 41.3022 18.044 41.2982 17.942 41.2932C17.84 41.2891 17.738 41.2841 17.637 41.2802C17.534 41.2762 17.433 41.2712 17.331 41.2662C17.228 41.2621 17.127 41.2581 17.025 41.2532C16.923 41.2482 16.821 41.2432 16.72 41.2392C16.618 41.2342 16.516 41.2292 16.414 41.2242C16.312 41.2202 16.211 41.2151 16.108 41.2101L15.804 41.1951C15.701 41.1901 15.6 41.1851 15.498 41.18C15.312 41.171 15.127 41.1509 14.944 41.1209C14.466 41.04 13.993 40.883 13.563 40.6559C13.132 40.4289 12.732 40.124 12.398 39.7669C12.26 39.618 12.129 39.4589 12.012 39.2919C11.724 38.883 11.503 38.421 11.363 37.9449C11.232 37.5049 11.167 37.0429 11.1661 36.5855C11.149 31.7294 11.1311 26.8735 11.1101 22.0164C11.1051 20.8515 11.1011 19.6855 11.0951 18.5204C11.08 15.3305 11.0641 12.1404 11.048 8.9505C11.0451 8.44647 11.0421 7.94244 11.0391 7.43842" stroke="#FF00FF" stroke-width="0.283465" stroke-miterlimit="10" stroke-linecap="round" stroke-linejoin="round"/>
<path d="M55.4486 46.9191V52.01H54.8321V47.5654H54.8023L53.5594 48.3907V47.7643L54.8321 46.9191H55.4486ZM57.0494 52.0498C56.9268 52.0498 56.8216 52.0059 56.7338 51.918C56.6459 51.8302 56.602 51.725 56.602 51.6023C56.602 51.4797 56.6459 51.3745 56.7338 51.2866C56.8216 51.1988 56.9268 51.1549 57.0494 51.1549C57.1721 51.1549 57.2773 51.1988 57.3651 51.2866C57.453 51.3745 57.4969 51.4797 57.4969 51.6023C57.4969 51.6835 57.4762 51.7581 57.4347 51.8261C57.395 51.894 57.3411 51.9487 57.2732 51.9901C57.2069 52.0299 57.1323 52.0498 57.0494 52.0498ZM58.5397 52.01V51.5626L60.2201 49.7231C60.4173 49.5076 60.5797 49.3204 60.7073 49.1613C60.8349 49.0005 60.9294 48.8497 60.9907 48.7089C61.0537 48.5664 61.0851 48.4172 61.0851 48.2614C61.0851 48.0825 61.0421 47.9275 60.9559 47.7966C60.8714 47.6657 60.7554 47.5646 60.6079 47.4933C60.4604 47.4221 60.2947 47.3864 60.1107 47.3864C59.9152 47.3864 59.7445 47.427 59.5986 47.5082C59.4545 47.5878 59.3426 47.6996 59.2631 47.8438C59.1852 47.988 59.1462 48.157 59.1462 48.3509H58.5596C58.5596 48.0526 58.6283 47.7908 58.7659 47.5654C58.9034 47.34 59.0907 47.1644 59.3277 47.0384C59.5663 46.9125 59.834 46.8495 60.1306 46.8495C60.4289 46.8495 60.6932 46.9125 60.9236 47.0384C61.1539 47.1644 61.3345 47.3342 61.4655 47.548C61.5964 47.7618 61.6618 47.9996 61.6618 48.2614C61.6618 48.4487 61.6279 48.6318 61.5599 48.8108C61.4936 48.9881 61.3776 49.1861 61.2119 49.4049C61.0479 49.622 60.82 49.8871 60.5283 50.2004L59.3849 51.4234V51.4631H61.7513V52.01H58.5397ZM64.3689 52.0796C64.0772 52.0796 63.8145 52.0216 63.5809 51.9056C63.3472 51.7896 63.1599 51.6305 63.0191 51.4283C62.8782 51.2262 62.8012 50.9958 62.7879 50.7373H63.3845C63.4077 50.9676 63.5121 51.1582 63.6977 51.309C63.885 51.4582 64.1087 51.5327 64.3689 51.5327C64.5777 51.5327 64.7633 51.4838 64.9257 51.3861C65.0898 51.2883 65.2182 51.1541 65.311 50.9834C65.4055 50.811 65.4527 50.6163 65.4527 50.3992C65.4527 50.1771 65.4038 49.9791 65.306 49.8051C65.2099 49.6294 65.0773 49.4911 64.9083 49.39C64.7393 49.2889 64.5462 49.2375 64.3291 49.2359C64.1733 49.2342 64.0134 49.2582 63.8493 49.308C63.6853 49.356 63.5502 49.4182 63.4442 49.4944L62.8675 49.4248L63.1757 46.9191H65.8206V47.466H63.6927L63.5138 48.9674H63.5436C63.648 48.8845 63.7789 48.8158 63.9363 48.7611C64.0938 48.7064 64.2578 48.679 64.4285 48.679C64.7401 48.679 65.0177 48.7536 65.2613 48.9028C65.5065 49.0503 65.6988 49.2524 65.838 49.5093C65.9788 49.7662 66.0493 50.0595 66.0493 50.3893C66.0493 50.7141 65.9764 51.0041 65.8305 51.2593C65.6863 51.5129 65.4875 51.7134 65.2339 51.8609C64.9804 52.0067 64.692 52.0796 64.3689 52.0796Z" fill="#0000FF"/>
<path d="M17.8967 22.8783C17.6253 22.8783 17.3562 22.7803 17.142 22.5892C16.77 22.2573 16.658 21.7291 16.8633 21.2749L17.829 19.1381C17.8574 19.0752 17.8363 19.0012 17.7792 18.9624C17.5379 18.7985 17.3106 18.6232 17.0996 18.4381C16.728 18.1119 16.406 17.7543 16.1426 17.3752C15.8691 16.9815 15.6578 16.5633 15.5147 16.1322C15.3656 15.6828 15.29 15.2179 15.29 14.7506C15.29 13.9466 15.5084 13.1701 15.9391 12.4427C16.3423 11.7618 16.9137 11.1544 17.6374 10.6375C18.3435 10.1332 19.1618 9.73837 20.0697 9.46407C20.9993 9.18317 21.9851 9.04077 22.9997 9.04077C24.0143 9.04077 25 9.18317 25.9296 9.46397C26.8375 9.73827 27.6558 10.1331 28.3619 10.6374C29.0856 11.1544 29.657 11.7617 30.0602 12.4426C30.4909 13.17 30.7093 13.9465 30.7093 14.7505C30.7093 15.5545 30.4909 16.331 30.0602 17.0584C29.657 17.7393 29.0856 18.3467 28.3619 18.8636C27.6559 19.3679 26.8375 19.7627 25.9296 20.037C25 20.3178 24.0142 20.4603 22.9997 20.4603C22.78 20.4603 22.5589 20.4534 22.3398 20.4398C22.3113 20.438 22.2829 20.4448 22.2584 20.4595L18.4796 22.7166C18.298 22.825 18.0967 22.8783 17.8967 22.8783ZM22.9997 10.4607C22.1244 10.4607 21.2768 10.5827 20.4804 10.8233C19.7212 11.0527 19.0424 11.3789 18.4628 11.7929C17.3324 12.6003 16.7099 13.6507 16.7099 14.7506C16.7099 15.3826 16.9114 15.9931 17.3088 16.5651C17.7072 17.1385 18.2989 17.6561 19.0201 18.0618C19.2049 18.1659 19.3434 18.3335 19.4107 18.5339C19.4793 18.7382 19.4683 18.9587 19.3796 19.1548L18.6244 20.8258C18.5958 20.889 18.6657 20.9514 18.7253 20.9158L21.7225 19.1255C21.877 19.0334 22.0526 18.993 22.2309 19.0082C22.4839 19.0295 22.7427 19.0404 22.9995 19.0404C23.8748 19.0404 24.7224 18.9184 25.5187 18.6778C26.2779 18.4484 26.9567 18.1222 27.5363 17.7082C28.6666 16.9008 29.2892 15.8504 29.2892 14.7505C29.2892 13.6506 28.6667 12.6002 27.5363 11.7928C26.9567 11.3788 26.2779 11.0526 25.5187 10.8232C24.7224 10.5826 23.8748 10.4606 22.9995 10.4606L22.9997 10.4607ZM22.1114 20.4231C22.1114 20.4231 22.112 20.4231 22.1123 20.4231C22.112 20.4231 22.1117 20.4231 22.1114 20.4231Z" fill="black"/>
<path d="M30.1201 34.8362C29.3631 34.8362 28.8601 34.1769 28.8552 33.1611C28.8601 32.1551 29.3339 31.486 30.1201 31.486C30.9063 31.486 31.3947 32.1404 31.3947 33.1611C31.3947 34.1867 30.8771 34.8362 30.1201 34.8362ZM32.64 33.161C32.64 31.5054 31.8049 30.4848 30.4911 30.4848C30.0051 30.4848 29.235 30.7288 28.9341 30.8308C28.8666 30.8537 28.7919 30.824 28.7602 30.76C28.7522 30.7437 28.7439 30.7275 28.7335 30.7127C28.6142 30.5422 28.4385 30.4702 28.2398 30.4702C27.893 30.4702 27.6489 30.6948 27.6489 31.0953V36.951C27.6489 37.3613 27.8979 37.5908 28.2545 37.5908C28.6111 37.5908 28.865 37.3613 28.865 36.951V35.5928C28.865 35.4901 28.9709 35.4212 29.0645 35.4634C29.4264 35.6263 30.0291 35.8325 30.5108 35.8325C31.8098 35.8325 32.6401 34.8118 32.6401 33.1611L32.64 33.161Z" fill="black"/>
<path d="M25.2677 33.8314C25.2677 34.4563 24.7112 34.9153 24.0276 34.9153C23.5004 34.9153 23.1439 34.6468 23.1439 34.2221C23.1439 33.7974 23.4808 33.5484 24.0666 33.5093L25.215 33.4393C25.2435 33.4376 25.2676 33.4602 25.2676 33.4888V33.8316L25.2677 33.8314ZM24.3498 30.4675C23.3587 30.4675 22.7871 30.8078 22.4948 31.1352C22.3255 31.3249 22.3038 31.7243 22.536 31.91C22.8074 32.127 23.262 31.9646 23.4182 31.7726C23.5584 31.6002 23.8732 31.4251 24.3008 31.4195C24.9012 31.4116 25.2675 31.732 25.2675 32.2739V32.4765C25.2675 32.5028 25.247 32.5245 25.2207 32.526L23.8955 32.6015C22.6361 32.6796 21.9282 33.3529 21.9282 34.2707C21.9282 35.1885 22.6581 35.833 23.6565 35.833C24.2883 35.833 24.9042 35.668 25.2106 35.5427C25.2749 35.5164 25.3486 35.5412 25.3848 35.6005C25.3876 35.605 25.39 35.6088 25.392 35.6117C25.4734 35.7276 25.6199 35.8476 25.8779 35.8476C26.2197 35.8476 26.4686 35.6279 26.4686 35.2374V32.186C26.4686 31.1461 25.6338 30.4675 24.3498 30.4675Z" fill="black"/>
<path d="M19.2276 35.8329C18.837 35.8329 18.6026 35.5936 18.6026 35.1786V33.0563C18.6026 33.001 18.5864 32.9469 18.5561 32.9007L16.4004 29.617C16.3125 29.4754 16.2734 29.3387 16.2734 29.1971C16.2734 28.8651 16.542 28.6209 16.8984 28.6209C17.1621 28.6209 17.3134 28.7137 17.4746 28.9871L19.1174 31.6028C19.1729 31.6912 19.3017 31.6913 19.3574 31.603L21.0049 28.9872C21.1612 28.7235 21.3174 28.621 21.5664 28.621C21.918 28.621 22.1865 28.8651 22.1865 29.1923C22.1865 29.3388 22.1474 29.4706 22.0547 29.6171L19.9038 32.9009C19.8736 32.9471 19.8575 33.001 19.8575 33.0562V35.1787C19.8575 35.5937 19.6231 35.833 19.2276 35.833V35.8329Z" fill="black"/>
</svg>
