<svg width="54" height="54" viewBox="0 0 54 54" fill="none" xmlns="http://www.w3.org/2000/svg">
<rect x="1.8501" y="1.8501" width="50.3" height="50.3" rx="3" stroke="#8B1EFF" stroke-width="0.28"/>
<path d="M11.4159 40.9327C10.9698 40.4187 10.6218 39.8187 10.3779 39.1807C10.1359 38.5486 9.99377 37.8777 9.96387 37.2056L9.94531 7.22314C9.96619 6.68164 10.0662 6.13867 10.2383 5.62256C10.3237 5.36511 10.4277 5.11511 10.5479 4.87305C10.668 4.6333 10.8049 4.40027 10.958 4.1792C11.1099 3.95972 11.2788 3.75171 11.4629 3.55762C11.6456 3.36548 11.8436 3.1875 12.0537 3.02539C12.2628 2.86438 12.4847 2.71936 12.7148 2.59131C12.9446 2.46338 13.1836 2.35229 13.4297 2.25928C13.5842 2.20203 13.7423 2.15002 13.9023 2.10693C14.0616 2.06311 14.2236 2.0271 14.3857 1.99707C14.549 1.96729 14.7129 1.94336 14.877 1.92627C15.042 1.90906 15.208 1.89807 15.374 1.89502C19.2509 1.86475 23.1278 1.84863 27.0049 1.84863C30.8817 1.84912 34.7596 1.86414 38.6367 1.89502C39.3231 1.90503 40.0171 2.04102 40.6592 2.29395C40.981 2.42175 41.2909 2.57874 41.583 2.76465C41.8763 2.95227 42.1514 3.16821 42.4014 3.41016C42.9058 3.89917 43.3108 4.49512 43.5918 5.14307C43.8774 5.80115 44.0394 6.51318 44.0645 7.22314L44.0469 37.2056C44.0157 37.8772 43.8767 38.5492 43.6348 39.1812C43.3896 39.8192 43.0397 40.4182 42.5938 40.9331C42.1498 41.4473 41.6078 41.8783 41.0059 42.1982C40.4106 42.5143 39.7577 42.7234 39.0947 42.8013C31.047 43.4143 22.964 43.4143 14.916 42.8013C14.2518 42.7229 13.5999 42.5118 13.006 42.1962C12.403 41.8751 11.861 41.4462 11.4159 40.9327Z" stroke="#8B1EFF" stroke-width="0.283" stroke-miterlimit="10"/>
<rect x="12.6882" y="5.46777" width="28.63" height="34.34" rx="1.46" stroke="#00FFFF" stroke-width="0.28"/>
<path d="M42.9594 36.7489C42.9584 37.0359 42.9374 37.3198 42.8964 37.6008C42.8544 37.8809 42.7934 38.1578 42.7084 38.4309C42.6863 38.4999 42.6643 38.5679 42.6393 38.6359C42.6154 38.7029 42.5894 38.7709 42.5624 38.8379C42.5083 38.9708 42.4484 39.1008 42.3833 39.2279C42.2523 39.4818 42.0994 39.7229 41.9224 39.9508C41.8783 40.0068 41.8313 40.0629 41.7843 40.1178C41.7373 40.1719 41.6884 40.2239 41.6393 40.2759C41.5413 40.3789 41.4363 40.4758 41.3294 40.5679C41.2204 40.6599 41.1073 40.7458 40.9894 40.8258C40.9303 40.8658 40.8704 40.9049 40.8084 40.9408C40.7473 40.9779 40.6844 41.0138 40.6214 41.0479C40.3683 41.1819 40.1044 41.2869 39.8323 41.3649C39.7633 41.3849 39.6944 41.4019 39.6254 41.4178C39.5553 41.4338 39.4854 41.4479 39.4153 41.4608C39.2733 41.4858 39.1324 41.5028 38.9894 41.5138C37.0055 41.6638 35.0155 41.7759 33.0176 41.8508C32.0186 41.8888 31.0166 41.9169 30.0136 41.9359C29.5126 41.9448 29.0095 41.9519 28.5076 41.9569C28.0055 41.9619 27.5045 41.9639 27.0026 41.9639C24.9976 41.9639 22.9966 41.9269 20.9986 41.8508C19.9995 41.8138 19.0005 41.7668 18.0036 41.7108C17.5055 41.6819 17.0076 41.6519 16.5105 41.6189C16.0136 41.5869 15.5166 41.5519 15.0219 41.5142C14.7368 41.4922 14.4578 41.4442 14.1858 41.3672C14.0498 41.3292 13.9158 41.2832 13.7829 41.2302C13.7168 41.2042 13.6519 41.1752 13.5858 41.1453C13.5219 41.1152 13.4568 41.0833 13.3948 41.0502C13.1438 40.9172 12.9079 40.7592 12.6908 40.5752C12.6359 40.5292 12.5818 40.4812 12.5298 40.4332C12.4778 40.3832 12.4258 40.3322 12.3759 40.2812C12.2769 40.1782 12.1829 40.0702 12.0949 39.9583C12.0069 39.8462 11.9239 39.7292 11.8468 39.6093C11.8089 39.5492 11.7719 39.4882 11.7359 39.4252C11.6989 39.3632 11.6648 39.3002 11.6319 39.2362C11.4988 38.9802 11.3919 38.7152 11.3068 38.4432C11.2638 38.3073 11.2268 38.1682 11.1949 38.0282C11.1789 37.9583 11.1638 37.8882 11.1509 37.8173C11.1378 37.7462 11.1249 37.6761 11.1149 37.6052C11.0729 37.3212 11.0529 37.0363 11.0517 36.7489C11.0297 27.017 11.0047 17.2839 10.9771 7.55188C10.9761 7.25488 11.0021 6.96289 11.0561 6.67493C11.0821 6.53088 11.1161 6.38892 11.1571 6.24792C11.1781 6.17688 11.1991 6.10693 11.224 6.03699C11.2481 5.9679 11.2731 5.89893 11.3011 5.83191C11.411 5.56091 11.547 5.30493 11.7091 5.06396C11.75 5.00391 11.792 4.94495 11.8361 4.88599C11.88 4.82788 11.9261 4.771 11.973 4.71497C12.067 4.60291 12.166 4.49695 12.271 4.39697C12.4801 4.1969 12.708 4.0199 12.9571 3.86597C13.2061 3.71191 13.4671 3.58496 13.739 3.48389C13.875 3.43298 14.0141 3.38892 14.1541 3.35095C14.2261 3.33191 14.297 3.31396 14.3681 3.29797C14.4391 3.28198 14.5121 3.26794 14.5841 3.25598C14.8721 3.20496 15.1641 3.17896 15.4589 3.17688C17.3719 3.16089 19.2908 3.1499 21.2168 3.14197C22.1798 3.13696 23.1448 3.13489 24.1109 3.13293C24.5939 3.13196 25.0758 3.13098 25.5598 3.13098C26.0419 3.12988 26.5259 3.12988 27.0078 3.12988C28.9389 3.12988 30.8649 3.13391 32.7898 3.14099C33.7528 3.1449 34.7139 3.1499 35.6748 3.15588C36.6369 3.16199 37.5949 3.16895 38.5523 3.17688C38.8473 3.17896 39.1372 3.20496 39.4232 3.25488C39.7083 3.30396 39.9883 3.37891 40.2632 3.48096C40.3323 3.50598 40.4003 3.53296 40.4683 3.56189C40.5353 3.59094 40.6012 3.62097 40.6673 3.65295C40.7982 3.71692 40.9253 3.78589 41.0482 3.86194C41.2932 4.01392 41.5222 4.18994 41.7333 4.39197C41.7873 4.44189 41.8393 4.4939 41.8882 4.547C41.9383 4.59998 41.9862 4.65491 42.0332 4.70996C42.1272 4.82092 42.2152 4.93591 42.2963 5.05591C42.3772 5.1759 42.4523 5.29993 42.5203 5.42798C42.5553 5.49292 42.5883 5.55798 42.6193 5.625C42.6503 5.69189 42.6803 5.75989 42.7083 5.82788C42.7353 5.896 42.7622 5.96497 42.7853 6.03491C42.8092 6.10498 42.8323 6.17493 42.8523 6.24597C42.8943 6.38696 42.9282 6.52991 42.9552 6.67395C43.0093 6.96191 43.0353 7.25488 43.0341 7.55225C43.0061 17.2842 42.9801 27.0172 42.9582 36.7491" stroke="#FF00FF" stroke-width="0.283465" stroke-miterlimit="10" stroke-linecap="round" stroke-linejoin="round"/>
<path d="M16.0399 20.0063C15.3899 20.0063 14.9399 19.6063 14.9399 19.0163C14.9399 18.7763 14.9999 18.5063 15.1499 18.0563L18.1799 9.38635C18.5599 8.26635 19.0899 7.80635 20.0999 7.80635C21.1099 7.80635 21.6199 8.26635 21.9999 9.38635L25.0199 18.0563C25.1399 18.4363 25.1999 18.7263 25.1999 18.9663C25.1999 19.5963 24.7499 20.0063 24.0799 20.0063C23.4399 20.0063 23.0699 19.6763 22.8299 18.8563L22.1899 16.9163C22.1699 16.8563 22.1199 16.8163 22.0599 16.8163H18.0599C17.9999 16.8163 17.9399 16.8563 17.9299 16.9163L17.2899 18.8563C17.0399 19.6863 16.6899 20.0063 16.0599 20.0063H16.0399ZM18.6599 15.0463H21.4399C21.5399 15.0463 21.5999 14.9563 21.5799 14.8663L20.1999 10.4463C20.1599 10.3163 19.9699 10.3163 19.9299 10.4463L18.5399 14.8663C18.5099 14.9563 18.5799 15.0463 18.6799 15.0463H18.6599Z" fill="black"/>
<path fill-rule="evenodd" clip-rule="evenodd" d="M31.8021 26.9888C31.4109 27.0153 31.1152 27.3539 31.1417 27.7451C31.1682 28.1363 31.5068 28.432 31.8981 28.4055L32.125 28.3902C32.9467 28.335 33.761 28.2802 34.6253 28.1726C34.7092 28.1622 34.7836 28.2274 34.7836 28.3119V29.3871C34.7836 29.4728 34.7834 29.5571 34.7831 29.6402C34.7828 29.7172 34.7202 29.7793 34.6433 29.7793H31.0601C30.668 29.7793 30.3501 30.0972 30.3501 30.4893C30.3501 30.8814 30.668 31.1993 31.0601 31.1993H34.5975C34.6777 31.1993 34.7416 31.2668 34.7367 31.3469C34.674 32.3677 34.5382 33.1192 34.2695 33.7081C33.8902 34.5395 33.1993 35.1311 31.6871 35.6246C31.3143 35.7462 31.1107 36.147 31.2324 36.5198C31.354 36.8926 31.7548 37.0961 32.1276 36.9745C33.8554 36.4107 34.9576 35.6208 35.5614 34.2976C35.9347 33.4795 36.0949 32.4958 36.1608 31.3324C36.165 31.2579 36.2264 31.1993 36.3011 31.1993H38.9401C39.3322 31.1993 39.6501 30.8814 39.6501 30.4893C39.6501 30.0972 39.3322 29.7793 38.9401 29.7793H36.3433C36.2657 29.7793 36.2029 29.7161 36.2032 29.6385C36.2035 29.5554 36.2036 29.4716 36.2036 29.3871V28.0339C36.2036 27.9671 36.2508 27.9097 36.3162 27.8963C36.9074 27.7752 37.5319 27.6206 38.2035 27.4197C38.5792 27.3073 38.7927 26.9117 38.6803 26.536C38.5679 26.1603 38.1723 25.9469 37.7966 26.0593C35.5282 26.7378 33.8551 26.8505 32.0096 26.9748L31.8021 26.9888Z" fill="black"/>
</svg>
