<svg width="54" height="55" viewBox="0 0 54 55" fill="none" xmlns="http://www.w3.org/2000/svg">
<rect x="1.8501" y="2.79846" width="50.3" height="50.3" rx="3" stroke="#8B1EFF" stroke-width="0.28"/>
<path d="M11.4159 41.8812C10.9698 41.3672 10.6218 40.7672 10.3779 40.1292C10.1359 39.4971 9.99377 38.8262 9.96387 38.1541L9.94531 8.17163C9.96619 7.63013 10.0662 7.08716 10.2383 6.57104C10.3237 6.3136 10.4277 6.0636 10.5479 5.82153C10.668 5.58179 10.8049 5.34875 10.958 5.12769C11.1099 4.9082 11.2788 4.7002 11.4629 4.5061C11.6456 4.31396 11.8436 4.13599 12.0537 3.97388C12.2628 3.81287 12.4847 3.66785 12.7148 3.53979C12.9446 3.41187 13.1836 3.30078 13.4297 3.20776C13.5842 3.15051 13.7423 3.09851 13.9023 3.05542C14.0616 3.0116 14.2236 2.97559 14.3857 2.94556C14.549 2.91577 14.7129 2.89185 14.877 2.87476C15.042 2.85754 15.208 2.84656 15.374 2.84351C19.2509 2.81323 23.1278 2.79712 27.0049 2.79712C30.8817 2.79761 34.7596 2.81262 38.6367 2.84351C39.3231 2.85352 40.0171 2.9895 40.6592 3.24243C40.981 3.37024 41.2909 3.52722 41.583 3.71313C41.8763 3.90076 42.1514 4.1167 42.4014 4.35864C42.9058 4.84766 43.3108 5.4436 43.5918 6.09155C43.8774 6.74963 44.0394 7.46167 44.0645 8.17163L44.0469 38.1541C44.0157 38.8257 43.8767 39.4977 43.6348 40.1296C43.3896 40.7677 43.0397 41.3667 42.5938 41.8816C42.1498 42.3958 41.6078 42.8268 41.0059 43.1467C40.4106 43.4628 39.7577 43.6719 39.0947 43.7498C31.047 44.3628 22.964 44.3628 14.916 43.7498C14.2518 43.6714 13.5999 43.4603 13.006 43.1447C12.403 42.8236 11.861 42.3947 11.4159 41.8812Z" stroke="#8B1EFF" stroke-width="0.283" stroke-miterlimit="10"/>
<rect x="12.6882" y="6.4165" width="28.63" height="34.34" rx="1.46" stroke="#00FFFF" stroke-width="0.28"/>
<path d="M42.9594 37.6973C42.9584 37.9843 42.9374 38.2682 42.8964 38.5492C42.8544 38.8292 42.7934 39.1062 42.7084 39.3793C42.6863 39.4482 42.6643 39.5162 42.6393 39.5842C42.6154 39.6512 42.5894 39.7192 42.5624 39.7863C42.5083 39.9192 42.4484 40.0492 42.3833 40.1763C42.2523 40.4302 42.0994 40.6713 41.9224 40.8992C41.8783 40.9552 41.8313 41.0112 41.7843 41.0662C41.7373 41.1202 41.6884 41.1722 41.6393 41.2242C41.5413 41.3273 41.4363 41.4242 41.3294 41.5162C41.2204 41.6083 41.1073 41.6942 40.9894 41.7742C40.9303 41.8142 40.8704 41.8533 40.8084 41.8892C40.7473 41.9263 40.6844 41.9622 40.6214 41.9962C40.3683 42.1302 40.1044 42.2352 39.8323 42.3132C39.7633 42.3333 39.6944 42.3502 39.6254 42.3662C39.5553 42.3822 39.4854 42.3962 39.4153 42.4092C39.2733 42.4342 39.1324 42.4512 38.9894 42.4622C37.0055 42.6122 35.0155 42.7242 33.0176 42.7992C32.0186 42.8372 31.0166 42.8652 30.0136 42.8843C29.5126 42.8932 29.0095 42.9003 28.5076 42.9053C28.0055 42.9103 27.5045 42.9122 27.0026 42.9122C24.9976 42.9122 22.9966 42.8752 20.9986 42.7992C19.9995 42.7622 19.0005 42.7152 18.0036 42.6592C17.5055 42.6302 17.0076 42.6002 16.5105 42.5673C16.0136 42.5353 15.5166 42.5002 15.0219 42.4625C14.7368 42.4406 14.4578 42.3926 14.1858 42.3156C14.0498 42.2776 13.9158 42.2316 13.7829 42.1786C13.7168 42.1526 13.6519 42.1235 13.5858 42.0936C13.5219 42.0636 13.4568 42.0316 13.3948 41.9985C13.1438 41.8656 12.9079 41.7075 12.6908 41.5236C12.6359 41.4775 12.5818 41.4296 12.5298 41.3816C12.4778 41.3315 12.4258 41.2805 12.3759 41.2296C12.2769 41.1266 12.1829 41.0186 12.0949 40.9066C12.0069 40.7946 11.9239 40.6776 11.8468 40.5576C11.8089 40.4976 11.7719 40.4365 11.7359 40.3735C11.6989 40.3115 11.6648 40.2485 11.6319 40.1846C11.4988 39.9286 11.3919 39.6636 11.3068 39.3916C11.2638 39.2556 11.2268 39.1166 11.1949 38.9766C11.1789 38.9066 11.1638 38.8365 11.1509 38.7656C11.1378 38.6946 11.1249 38.6245 11.1149 38.5536C11.0729 38.2695 11.0529 37.9846 11.0517 37.6973C11.0297 27.9653 11.0047 18.2323 10.9771 8.50024C10.9761 8.20325 11.0021 7.91125 11.0561 7.62329C11.0821 7.47925 11.1161 7.33728 11.1571 7.19629C11.1781 7.12524 11.1991 7.0553 11.224 6.98535C11.2481 6.91626 11.2731 6.84729 11.3011 6.78027C11.411 6.50928 11.547 6.2533 11.7091 6.01233C11.75 5.95227 11.792 5.89331 11.8361 5.83435C11.88 5.77625 11.9261 5.71936 11.973 5.66333C12.067 5.55127 12.166 5.44531 12.271 5.34534C12.4801 5.14526 12.708 4.96826 12.9571 4.81433C13.2061 4.66028 13.4671 4.53333 13.739 4.43225C13.875 4.38135 14.0141 4.33728 14.1541 4.29932C14.2261 4.28027 14.297 4.26233 14.3681 4.24634C14.4391 4.23035 14.5121 4.21631 14.5841 4.20435C14.8721 4.15332 15.1641 4.12732 15.4589 4.12524C17.3719 4.10925 19.2908 4.09827 21.2168 4.09033C22.1798 4.08533 23.1448 4.08325 24.1109 4.0813C24.5939 4.08032 25.0758 4.07935 25.5598 4.07935C26.0419 4.07825 26.5259 4.07825 27.0078 4.07825C28.9389 4.07825 30.8649 4.08228 32.7898 4.08936C33.7528 4.09326 34.7139 4.09827 35.6748 4.10425C36.6369 4.11035 37.5949 4.11731 38.5523 4.12524C38.8473 4.12732 39.1372 4.15332 39.4232 4.20325C39.7083 4.25232 39.9883 4.32727 40.2632 4.42932C40.3323 4.45435 40.4003 4.48132 40.4683 4.51025C40.5353 4.53931 40.6012 4.56934 40.6673 4.60132C40.7982 4.66528 40.9253 4.73425 41.0482 4.8103C41.2932 4.96228 41.5222 5.13831 41.7333 5.34033C41.7873 5.39026 41.8393 5.44226 41.8882 5.49536C41.9383 5.54834 41.9862 5.60327 42.0332 5.65833C42.1272 5.76929 42.2152 5.88428 42.2963 6.00427C42.3772 6.12427 42.4523 6.24829 42.5203 6.37634C42.5553 6.44128 42.5883 6.50635 42.6193 6.57336C42.6503 6.64026 42.6803 6.70825 42.7083 6.77625C42.7353 6.84436 42.7622 6.91333 42.7853 6.98328C42.8092 7.05334 42.8323 7.12329 42.8523 7.19434C42.8943 7.33533 42.9282 7.47827 42.9552 7.62231C43.0093 7.91028 43.0353 8.20325 43.0341 8.50061C43.0061 18.2325 42.9801 27.9656 42.9582 37.6975" stroke="#FF00FF" stroke-width="0.283465" stroke-miterlimit="10" stroke-linecap="round" stroke-linejoin="round"/>
<path d="M18.9246 16.5179C19.6446 16.5179 20.1146 15.9179 20.1146 14.9479C20.1146 13.9779 19.6546 13.4079 18.9346 13.4079C18.2146 13.4079 17.7846 13.9879 17.7846 14.9579C17.7846 15.9279 18.2046 16.5179 18.9246 16.5179ZM13.9446 14.9479C13.9446 11.7979 16.0746 9.73792 19.1546 9.73792C22.0646 9.73792 24.1346 11.5679 24.1346 14.3779C24.1346 16.2479 23.2346 17.5479 21.7646 17.5479C20.9322 17.5479 20.5652 17.179 20.4131 16.9331C20.3618 16.8501 20.2446 16.8417 20.1831 16.9174C19.9838 17.163 19.5329 17.5479 18.6646 17.5479C17.3846 17.5479 16.5146 16.4879 16.5146 14.9279C16.5146 13.3679 17.3746 12.3679 18.6046 12.3679C19.3317 12.3679 19.7583 12.6254 19.9813 12.8278C20.0592 12.8985 20.1848 12.8621 20.2126 12.7607C20.2214 12.7285 20.2327 12.6966 20.2472 12.6668C20.3277 12.5017 20.486 12.3679 20.7646 12.3679C21.1246 12.3679 21.3446 12.5879 21.3446 12.9779V15.9079C21.3446 16.3379 21.5746 16.5879 21.9946 16.5879C22.6446 16.5879 23.0846 15.7179 23.0846 14.4779C23.0846 12.0279 21.3646 10.6579 19.1446 10.6579C16.6446 10.6579 14.9846 12.4179 14.9846 14.9779C14.9846 17.5379 16.7546 19.1579 19.4146 19.1579C19.9746 19.1579 20.3646 19.0879 20.8546 18.9679C20.9546 18.9479 21.0346 18.9479 21.1046 18.9479C21.3846 18.9479 21.5446 19.0979 21.5446 19.3279C21.5446 19.5579 21.4146 19.7279 21.0646 19.8479C20.6346 19.9879 19.9946 20.0879 19.2146 20.0879C16.1346 20.0879 13.9446 18.1479 13.9446 14.9379V14.9479Z" fill="black"/>
<path d="M18.3736 33.3093L18.2619 31.4676C18.2309 31.0459 18.5348 30.6986 18.9937 30.6986C19.4464 30.6986 19.744 31.0521 19.7192 31.4676L19.6076 33.3093C19.5828 33.6628 19.3223 33.9604 18.9875 33.9604C18.6526 33.9604 18.3922 33.6628 18.3736 33.3093Z" fill="black"/>
<path fill-rule="evenodd" clip-rule="evenodd" d="M34.1404 36.77C33.7768 36.9167 33.6009 37.3304 33.7476 37.6941C33.8943 38.0577 34.308 38.2336 34.6717 38.0869C35.4304 37.7808 36.0836 37.4105 36.6083 36.8897C37.1401 36.3619 37.5033 35.7161 37.7369 34.9155C38.0002 34.0132 38.1047 32.8866 38.1017 31.4601C38.1016 31.3898 38.1534 31.33 38.223 31.32C38.7084 31.2501 39.1372 31.1669 39.4733 31.075C39.8515 30.9715 40.0743 30.581 39.9708 30.2028C39.8674 29.8246 39.4769 29.6018 39.0986 29.7053C38.8612 29.7702 38.5608 29.8311 38.2173 29.8853C38.1353 29.8982 38.0608 29.8365 38.057 29.7536C38.0309 29.1792 37.9941 28.5655 37.9489 27.9093C37.9219 27.5182 37.5829 27.2229 37.1917 27.2499C36.8005 27.2769 36.5052 27.6159 36.5322 28.007C36.5803 28.7044 36.6175 29.3418 36.6427 29.9253C36.646 30.0008 36.5887 30.065 36.5134 30.0702C35.4173 30.1446 34.2262 30.149 33.2749 30.0374C32.8855 29.9917 32.5328 30.2704 32.4871 30.6598C32.4414 31.0493 32.7201 31.402 33.1095 31.4477C34.1197 31.5662 35.3656 31.5677 36.5318 31.4921C36.6128 31.4868 36.6816 31.551 36.6813 31.6321C36.6766 32.8849 36.5806 33.8091 36.3738 34.5177C36.1967 35.1243 35.9439 35.5485 35.608 35.8819C35.265 36.2223 34.7989 36.5043 34.1404 36.77ZM31.426 32.6756C31.4037 34.299 31.5588 35.8318 31.861 36.7774C31.9803 37.1509 31.7743 37.5504 31.4008 37.6698C31.0272 37.7891 30.6277 37.5831 30.5083 37.2096C30.1376 36.0494 29.983 34.3385 30.0062 32.656C30.0294 30.9682 30.2332 29.2067 30.6371 27.9363C30.7559 27.5627 31.1551 27.356 31.5288 27.4748C31.9025 27.5937 32.1091 27.9929 31.9903 28.3666C31.6456 29.4509 31.4483 31.0576 31.426 32.6756Z" fill="black"/>
</svg>
