<svg width="54" height="54" viewBox="0 0 54 54" fill="none" xmlns="http://www.w3.org/2000/svg">
<rect x="1.8501" y="1.8501" width="50.3" height="50.3" rx="3" stroke="#8B1EFF" stroke-width="0.28"/>
<path d="M11.4159 40.9327C10.9698 40.4187 10.6218 39.8187 10.3779 39.1807C10.1359 38.5486 9.99377 37.8777 9.96387 37.2056L9.94531 7.22314C9.96619 6.68164 10.0662 6.13867 10.2383 5.62256C10.3237 5.36511 10.4277 5.11511 10.5479 4.87305C10.668 4.6333 10.8049 4.40027 10.958 4.1792C11.1099 3.95972 11.2788 3.75171 11.4629 3.55762C11.6456 3.36548 11.8436 3.1875 12.0537 3.02539C12.2628 2.86438 12.4847 2.71936 12.7148 2.59131C12.9446 2.46338 13.1836 2.35229 13.4297 2.25928C13.5842 2.20203 13.7423 2.15002 13.9023 2.10693C14.0616 2.06311 14.2236 2.0271 14.3857 1.99707C14.549 1.96729 14.7129 1.94336 14.877 1.92627C15.042 1.90906 15.208 1.89807 15.374 1.89502C19.2509 1.86475 23.1278 1.84863 27.0049 1.84863C30.8817 1.84912 34.7596 1.86414 38.6367 1.89502C39.3231 1.90503 40.0171 2.04102 40.6592 2.29395C40.981 2.42175 41.2909 2.57874 41.583 2.76465C41.8763 2.95227 42.1514 3.16821 42.4014 3.41016C42.9058 3.89917 43.3108 4.49512 43.5918 5.14307C43.8774 5.80115 44.0394 6.51318 44.0645 7.22314L44.0469 37.2056C44.0157 37.8772 43.8767 38.5492 43.6348 39.1812C43.3896 39.8192 43.0397 40.4182 42.5938 40.9331C42.1498 41.4473 41.6078 41.8783 41.0059 42.1982C40.4106 42.5143 39.7577 42.7234 39.0947 42.8013C31.047 43.4143 22.964 43.4143 14.916 42.8013C14.2518 42.7229 13.5999 42.5118 13.006 42.1962C12.403 41.8751 11.861 41.4462 11.4159 40.9327Z" stroke="#8B1EFF" stroke-width="0.283" stroke-miterlimit="10"/>
<rect x="12.6882" y="5.46777" width="28.63" height="34.34" rx="1.46" stroke="#00FFFF" stroke-width="0.28"/>
<path d="M42.9594 36.7489C42.9584 37.0359 42.9374 37.3198 42.8964 37.6008C42.8544 37.8809 42.7934 38.1578 42.7084 38.4309C42.6863 38.4999 42.6643 38.5679 42.6393 38.6359C42.6154 38.7029 42.5894 38.7709 42.5624 38.8379C42.5083 38.9708 42.4484 39.1008 42.3833 39.2279C42.2523 39.4818 42.0994 39.7229 41.9224 39.9508C41.8783 40.0068 41.8313 40.0629 41.7843 40.1178C41.7373 40.1719 41.6884 40.2239 41.6393 40.2759C41.5413 40.3789 41.4363 40.4758 41.3294 40.5679C41.2204 40.6599 41.1073 40.7458 40.9894 40.8258C40.9303 40.8658 40.8704 40.9049 40.8084 40.9408C40.7473 40.9779 40.6844 41.0138 40.6214 41.0479C40.3683 41.1819 40.1044 41.2869 39.8323 41.3649C39.7633 41.3849 39.6944 41.4019 39.6254 41.4178C39.5553 41.4338 39.4854 41.4479 39.4153 41.4608C39.2733 41.4858 39.1324 41.5028 38.9894 41.5138C37.0055 41.6638 35.0155 41.7759 33.0176 41.8508C32.0186 41.8888 31.0166 41.9169 30.0136 41.9359C29.5126 41.9448 29.0095 41.9519 28.5076 41.9569C28.0055 41.9619 27.5045 41.9639 27.0026 41.9639C24.9976 41.9639 22.9966 41.9269 20.9986 41.8508C19.9995 41.8138 19.0005 41.7668 18.0036 41.7108C17.5055 41.6819 17.0076 41.6519 16.5105 41.6189C16.0136 41.5869 15.5166 41.5519 15.0219 41.5142C14.7368 41.4922 14.4578 41.4442 14.1858 41.3672C14.0498 41.3292 13.9158 41.2832 13.7829 41.2302C13.7168 41.2042 13.6519 41.1752 13.5858 41.1453C13.5219 41.1152 13.4568 41.0833 13.3948 41.0502C13.1438 40.9172 12.9079 40.7592 12.6908 40.5752C12.6359 40.5292 12.5818 40.4812 12.5298 40.4332C12.4778 40.3832 12.4258 40.3322 12.3759 40.2812C12.2769 40.1782 12.1829 40.0702 12.0949 39.9583C12.0069 39.8462 11.9239 39.7292 11.8468 39.6093C11.8089 39.5492 11.7719 39.4882 11.7359 39.4252C11.6989 39.3632 11.6648 39.3002 11.6319 39.2362C11.4988 38.9802 11.3919 38.7152 11.3068 38.4432C11.2638 38.3073 11.2268 38.1682 11.1949 38.0282C11.1789 37.9583 11.1638 37.8882 11.1509 37.8173C11.1378 37.7462 11.1249 37.6761 11.1149 37.6052C11.0729 37.3212 11.0529 37.0363 11.0517 36.7489C11.0297 27.017 11.0047 17.2839 10.9771 7.55188C10.9761 7.25488 11.0021 6.96289 11.0561 6.67493C11.0821 6.53088 11.1161 6.38892 11.1571 6.24792C11.1781 6.17688 11.1991 6.10693 11.224 6.03699C11.2481 5.9679 11.2731 5.89893 11.3011 5.83191C11.411 5.56091 11.547 5.30493 11.7091 5.06396C11.75 5.00391 11.792 4.94495 11.8361 4.88599C11.88 4.82788 11.9261 4.771 11.973 4.71497C12.067 4.60291 12.166 4.49695 12.271 4.39697C12.4801 4.1969 12.708 4.0199 12.9571 3.86597C13.2061 3.71191 13.4671 3.58496 13.739 3.48389C13.875 3.43298 14.0141 3.38892 14.1541 3.35095C14.2261 3.33191 14.297 3.31396 14.3681 3.29797C14.4391 3.28198 14.5121 3.26794 14.5841 3.25598C14.8721 3.20496 15.1641 3.17896 15.4589 3.17688C17.3719 3.16089 19.2908 3.1499 21.2168 3.14197C22.1798 3.13696 23.1448 3.13489 24.1109 3.13293C24.5939 3.13196 25.0758 3.13098 25.5598 3.13098C26.0419 3.12988 26.5259 3.12988 27.0078 3.12988C28.9389 3.12988 30.8649 3.13391 32.7898 3.14099C33.7528 3.1449 34.7139 3.1499 35.6748 3.15588C36.6369 3.16199 37.5949 3.16895 38.5523 3.17688C38.8473 3.17896 39.1372 3.20496 39.4232 3.25488C39.7083 3.30396 39.9883 3.37891 40.2632 3.48096C40.3323 3.50598 40.4003 3.53296 40.4683 3.56189C40.5353 3.59094 40.6012 3.62097 40.6673 3.65295C40.7982 3.71692 40.9253 3.78589 41.0482 3.86194C41.2932 4.01392 41.5222 4.18994 41.7333 4.39197C41.7873 4.44189 41.8393 4.4939 41.8882 4.547C41.9383 4.59998 41.9862 4.65491 42.0332 4.70996C42.1272 4.82092 42.2152 4.93591 42.2963 5.05591C42.3772 5.1759 42.4523 5.29993 42.5203 5.42798C42.5553 5.49292 42.5883 5.55798 42.6193 5.625C42.6503 5.69189 42.6803 5.75989 42.7083 5.82788C42.7353 5.896 42.7622 5.96497 42.7853 6.03491C42.8092 6.10498 42.8323 6.17493 42.8523 6.24597C42.8943 6.38696 42.9282 6.52991 42.9552 6.67395C43.0093 6.96191 43.0353 7.25488 43.0341 7.55225C43.0061 17.2842 42.9801 27.0172 42.9582 36.7491" stroke="#FF00FF" stroke-width="0.283465" stroke-miterlimit="10" stroke-linecap="round" stroke-linejoin="round"/>
<path d="M20.0299 17.4991V16.0291C20.0299 15.0891 20.3399 14.9791 20.6699 14.8791C20.9599 14.7891 21.2199 14.6091 21.2199 14.1391C21.2199 13.6291 20.9199 13.4591 20.6499 13.3791C20.3499 13.2891 20.0299 13.1691 20.0299 12.2391V11.0091C20.0299 9.41912 19.1399 8.84912 17.8599 8.84912C17.3399 8.84912 16.8999 8.93912 16.8999 9.47912C16.8999 9.83912 17.0899 9.96912 17.4899 10.0491C17.9699 10.1491 18.4799 10.1891 18.4799 11.2591V12.6891C18.4799 13.3691 18.7199 13.8091 19.1699 14.0191C19.2799 14.0691 19.2799 14.2191 19.1699 14.2791C18.7099 14.5091 18.4699 14.9891 18.4699 15.6691V17.2791C18.4699 18.3591 17.9599 18.3991 17.4799 18.4891C17.0799 18.5691 16.8899 18.6991 16.8899 19.0491C16.8899 19.3791 17.1499 19.6491 17.4799 19.6691C18.9599 19.7891 20.0199 19.2391 20.0199 17.4991H20.0299Z" fill="black"/>
<path d="M16.9041 37.077C16.9041 36.7049 17.1335 36.4631 17.5614 36.4631H18.6182C18.6955 36.4631 18.7582 36.4004 18.7582 36.3231V28.2005C18.7582 28.1232 18.6955 28.0605 18.6182 28.0605H17.5614C17.1335 28.0605 16.9041 27.8187 16.9041 27.4528C16.9041 27.0807 17.1335 26.8389 17.5614 26.8389H19.3039C19.9488 26.8389 20.3209 27.1861 20.3209 27.8187V36.7049C20.3209 37.3375 19.9488 37.6847 19.3039 37.6847H17.5614C17.1335 37.6847 16.9041 37.4429 16.9041 37.077Z" fill="black"/>
<path fill-rule="evenodd" clip-rule="evenodd" d="M33.4552 26.8556C33.4768 26.464 33.1769 26.1291 32.7854 26.1075C32.3939 26.086 32.059 26.3858 32.0374 26.7774C32.0217 27.0614 32.0093 27.3292 31.9997 27.5858C31.997 27.6585 31.9392 27.7172 31.8665 27.7207C31.2053 27.7526 30.6016 27.7716 30.1265 27.7716C29.7344 27.7716 29.4165 28.0895 29.4165 28.4816C29.4165 28.8737 29.7344 29.1916 30.1265 29.1916C30.6003 29.1916 31.1884 29.1739 31.829 29.1441C31.9086 29.1404 31.9754 29.2035 31.9762 29.2832C31.9782 29.4776 31.9817 29.6727 31.9866 29.8715C31.9887 29.9598 31.9096 30.0279 31.8216 30.0206C30.6446 29.9228 29.6615 30.9073 29.3838 32.0371C29.0814 33.2669 29.5994 34.7317 30.9137 35.0548C30.9374 35.0606 30.961 35.066 30.9845 35.0709C31.0561 35.0859 31.1079 35.1497 31.1077 35.2228C31.1071 35.427 31.1367 35.6419 31.2071 35.8646C31.4389 36.5978 32.1282 36.967 32.7314 37.1514C33.3687 37.3463 34.1322 37.4083 34.8698 37.3819C35.6124 37.3553 36.3759 37.2374 37.026 37.0409C37.6353 36.8568 38.2943 36.5602 38.6566 36.0757C39.1577 35.4055 39.1662 34.6563 39.0463 34.0494C38.9456 33.5402 38.736 33.0483 38.5904 32.7068L38.5904 32.7068C38.5683 32.6549 38.5476 32.6065 38.5291 32.562C38.3781 32.2001 37.9624 32.029 37.6005 32.18C37.2386 32.3309 37.0676 32.7467 37.2185 33.1086C37.2425 33.1662 37.2667 33.2234 37.2909 33.2805C37.4392 33.6311 37.5836 33.9727 37.6532 34.3248C37.7301 34.7138 37.6896 34.9978 37.5194 35.2254C37.4462 35.3232 37.1737 35.5129 36.6152 35.6817C36.0975 35.8381 35.4568 35.94 34.819 35.9628C34.1762 35.9858 33.5828 35.9269 33.1467 35.7935C32.6766 35.6497 32.5759 35.4833 32.5611 35.4365C32.4635 35.1279 32.6051 34.7886 32.8603 34.4982C32.8692 34.488 32.8777 34.4777 32.886 34.4672C33.2631 34.1001 33.5405 33.6107 33.6684 33.0904C33.8278 32.4419 33.7592 31.728 33.4659 31.1506C33.4565 31.1322 33.451 31.112 33.4501 31.0914C33.4201 30.3856 33.4001 29.7831 33.3954 29.1866C33.3948 29.1127 33.4521 29.0512 33.5259 29.0463C34.2251 28.9992 34.9245 28.9446 35.5585 28.8885C35.9491 28.8539 36.2377 28.5093 36.2031 28.1187C36.1686 27.7281 35.8239 27.4394 35.4333 27.474C34.8485 27.5258 34.2116 27.5758 33.5741 27.6197C33.4912 27.6254 33.4217 27.5579 33.4251 27.4749C33.4334 27.2767 33.4434 27.0711 33.4552 26.8556ZM31.7995 31.4517C31.509 31.3802 30.9496 31.616 30.7627 32.3761C30.5759 33.1362 30.9622 33.6044 31.2527 33.6758C31.5432 33.7472 32.1026 33.5115 32.2895 32.7514C32.4763 31.9913 32.09 31.5231 31.7995 31.4517ZM38.2812 27.7382C37.984 27.4824 37.5357 27.5158 37.2799 27.813C37.024 28.1101 37.0575 28.5584 37.3546 28.8143C38.2632 29.5966 38.5778 29.9587 39.1576 30.8343C39.3741 31.1613 39.8147 31.2508 40.1416 31.0343C40.4686 30.8178 40.5581 30.3773 40.3416 30.0503C39.6853 29.0592 39.2822 28.6002 38.2812 27.7382Z" fill="black"/>
<path fill-rule="evenodd" clip-rule="evenodd" d="M31.99 16.5796C31.99 16.9717 32.3079 17.2896 32.7 17.2896H34.7411C35.3266 17.2896 35.8011 16.815 35.8011 16.2296V10.9207C35.8011 10.5286 35.4833 10.2107 35.0911 10.2107C34.699 10.2107 34.3811 10.5286 34.3811 10.9207V15.7296C34.3811 15.8069 34.3185 15.8696 34.2411 15.8696H32.7C32.3079 15.8696 31.99 16.1874 31.99 16.5796Z" fill="black"/>
</svg>
