<svg width="54" height="54" viewBox="0 0 54 54" fill="none" xmlns="http://www.w3.org/2000/svg">
<rect x="1.8501" y="1.8501" width="50.3" height="50.3" rx="3" stroke="#8B1EFF" stroke-width="0.28"/>
<path d="M11.4159 40.9327C10.9698 40.4187 10.6218 39.8187 10.3779 39.1807C10.1359 38.5486 9.99377 37.8777 9.96387 37.2056L9.94531 7.22314C9.96619 6.68164 10.0662 6.13867 10.2383 5.62256C10.3237 5.36511 10.4277 5.11511 10.5479 4.87305C10.668 4.6333 10.8049 4.40027 10.958 4.1792C11.1099 3.95972 11.2788 3.75171 11.4629 3.55762C11.6456 3.36548 11.8436 3.1875 12.0537 3.02539C12.2628 2.86438 12.4847 2.71936 12.7148 2.59131C12.9446 2.46338 13.1836 2.35229 13.4297 2.25928C13.5842 2.20203 13.7423 2.15002 13.9023 2.10693C14.0616 2.06311 14.2236 2.0271 14.3857 1.99707C14.549 1.96729 14.7129 1.94336 14.877 1.92627C15.042 1.90906 15.208 1.89807 15.374 1.89502C19.2509 1.86475 23.1278 1.84863 27.0049 1.84863C30.8817 1.84912 34.7596 1.86414 38.6367 1.89502C39.3231 1.90503 40.0171 2.04102 40.6592 2.29395C40.981 2.42175 41.2909 2.57874 41.583 2.76465C41.8763 2.95227 42.1514 3.16821 42.4014 3.41016C42.9058 3.89917 43.3108 4.49512 43.5918 5.14307C43.8774 5.80115 44.0394 6.51318 44.0645 7.22314L44.0469 37.2056C44.0157 37.8772 43.8767 38.5492 43.6348 39.1812C43.3896 39.8192 43.0397 40.4182 42.5938 40.9331C42.1498 41.4473 41.6078 41.8783 41.0059 42.1982C40.4106 42.5143 39.7577 42.7234 39.0947 42.8013C31.047 43.4143 22.964 43.4143 14.916 42.8013C14.2518 42.7229 13.5999 42.5118 13.006 42.1962C12.403 41.8751 11.861 41.4462 11.4159 40.9327Z" stroke="#8B1EFF" stroke-width="0.283" stroke-miterlimit="10"/>
<rect x="12.6882" y="5.46777" width="28.63" height="34.34" rx="1.46" stroke="#00FFFF" stroke-width="0.28"/>
<path d="M42.9594 36.7489C42.9584 37.0359 42.9374 37.3198 42.8964 37.6008C42.8544 37.8809 42.7934 38.1578 42.7084 38.4309C42.6863 38.4999 42.6643 38.5679 42.6393 38.6359C42.6154 38.7029 42.5894 38.7709 42.5624 38.8379C42.5083 38.9708 42.4484 39.1008 42.3833 39.2279C42.2523 39.4818 42.0994 39.7229 41.9224 39.9508C41.8783 40.0068 41.8313 40.0629 41.7843 40.1178C41.7373 40.1719 41.6884 40.2239 41.6393 40.2759C41.5413 40.3789 41.4363 40.4758 41.3294 40.5679C41.2204 40.6599 41.1073 40.7458 40.9894 40.8258C40.9303 40.8658 40.8704 40.9049 40.8084 40.9408C40.7473 40.9779 40.6844 41.0138 40.6214 41.0479C40.3683 41.1819 40.1044 41.2869 39.8323 41.3649C39.7633 41.3849 39.6944 41.4019 39.6254 41.4178C39.5553 41.4338 39.4854 41.4479 39.4153 41.4608C39.2733 41.4858 39.1324 41.5028 38.9894 41.5138C37.0055 41.6638 35.0155 41.7759 33.0176 41.8508C32.0186 41.8888 31.0166 41.9169 30.0136 41.9359C29.5126 41.9448 29.0095 41.9519 28.5076 41.9569C28.0055 41.9619 27.5045 41.9639 27.0026 41.9639C24.9976 41.9639 22.9966 41.9269 20.9986 41.8508C19.9995 41.8138 19.0005 41.7668 18.0036 41.7108C17.5055 41.6819 17.0076 41.6519 16.5105 41.6189C16.0136 41.5869 15.5166 41.5519 15.0219 41.5142C14.7368 41.4922 14.4578 41.4442 14.1858 41.3672C14.0498 41.3292 13.9158 41.2832 13.7829 41.2302C13.7168 41.2042 13.6519 41.1752 13.5858 41.1453C13.5219 41.1152 13.4568 41.0833 13.3948 41.0502C13.1438 40.9172 12.9079 40.7592 12.6908 40.5752C12.6359 40.5292 12.5818 40.4812 12.5298 40.4332C12.4778 40.3832 12.4258 40.3322 12.3759 40.2812C12.2769 40.1782 12.1829 40.0702 12.0949 39.9583C12.0069 39.8462 11.9239 39.7292 11.8468 39.6093C11.8089 39.5492 11.7719 39.4882 11.7359 39.4252C11.6989 39.3632 11.6648 39.3002 11.6319 39.2362C11.4988 38.9802 11.3919 38.7152 11.3068 38.4432C11.2638 38.3073 11.2268 38.1682 11.1949 38.0282C11.1789 37.9583 11.1638 37.8882 11.1509 37.8173C11.1378 37.7462 11.1249 37.6761 11.1149 37.6052C11.0729 37.3212 11.0529 37.0363 11.0517 36.7489C11.0297 27.017 11.0047 17.2839 10.9771 7.55188C10.9761 7.25488 11.0021 6.96289 11.0561 6.67493C11.0821 6.53088 11.1161 6.38892 11.1571 6.24792C11.1781 6.17688 11.1991 6.10693 11.224 6.03699C11.2481 5.9679 11.2731 5.89893 11.3011 5.83191C11.411 5.56091 11.547 5.30493 11.7091 5.06396C11.75 5.00391 11.792 4.94495 11.8361 4.88599C11.88 4.82788 11.9261 4.771 11.973 4.71497C12.067 4.60291 12.166 4.49695 12.271 4.39697C12.4801 4.1969 12.708 4.0199 12.9571 3.86597C13.2061 3.71191 13.4671 3.58496 13.739 3.48389C13.875 3.43298 14.0141 3.38892 14.1541 3.35095C14.2261 3.33191 14.297 3.31396 14.3681 3.29797C14.4391 3.28198 14.5121 3.26794 14.5841 3.25598C14.8721 3.20496 15.1641 3.17896 15.4589 3.17688C17.3719 3.16089 19.2908 3.1499 21.2168 3.14197C22.1798 3.13696 23.1448 3.13489 24.1109 3.13293C24.5939 3.13196 25.0758 3.13098 25.5598 3.13098C26.0419 3.12988 26.5259 3.12988 27.0078 3.12988C28.9389 3.12988 30.8649 3.13391 32.7898 3.14099C33.7528 3.1449 34.7139 3.1499 35.6748 3.15588C36.6369 3.16199 37.5949 3.16895 38.5523 3.17688C38.8473 3.17896 39.1372 3.20496 39.4232 3.25488C39.7083 3.30396 39.9883 3.37891 40.2632 3.48096C40.3323 3.50598 40.4003 3.53296 40.4683 3.56189C40.5353 3.59094 40.6012 3.62097 40.6673 3.65295C40.7982 3.71692 40.9253 3.78589 41.0482 3.86194C41.2932 4.01392 41.5222 4.18994 41.7333 4.39197C41.7873 4.44189 41.8393 4.4939 41.8882 4.547C41.9383 4.59998 41.9862 4.65491 42.0332 4.70996C42.1272 4.82092 42.2152 4.93591 42.2963 5.05591C42.3772 5.1759 42.4523 5.29993 42.5203 5.42798C42.5553 5.49292 42.5883 5.55798 42.6193 5.625C42.6503 5.69189 42.6803 5.75989 42.7083 5.82788C42.7353 5.896 42.7622 5.96497 42.7853 6.03491C42.8092 6.10498 42.8323 6.17493 42.8523 6.24597C42.8943 6.38696 42.9282 6.52991 42.9552 6.67395C43.0093 6.96191 43.0353 7.25488 43.0341 7.55225C43.0061 17.2842 42.9801 27.0172 42.9582 36.7491" stroke="#FF00FF" stroke-width="0.283465" stroke-miterlimit="10" stroke-linecap="round" stroke-linejoin="round"/>
<path d="M18.9981 15.1259C18.6021 15.1259 18.2961 14.8199 18.3141 14.3699L18.3273 13.6686C18.3294 13.5586 18.2096 13.4893 18.1153 13.5459L17.5221 13.9019C17.3781 13.9919 17.2161 14.0279 17.0721 14.0279C16.7121 14.0279 16.4241 13.7399 16.4241 13.3619C16.4241 13.0739 16.5681 12.8579 16.8381 12.7139L17.4397 12.3869C17.5373 12.3339 17.5373 12.1939 17.4397 12.1408L16.8381 11.8139C16.5681 11.6699 16.4241 11.4539 16.4241 11.1659C16.4241 10.7879 16.7121 10.4999 17.0721 10.4999C17.2161 10.4999 17.3781 10.5359 17.5221 10.6259L18.1134 10.9938C18.2076 11.0524 18.3294 10.9833 18.3273 10.8723L18.3141 10.1579C18.2961 9.70786 18.6021 9.40186 18.9981 9.40186C19.3941 9.40186 19.7001 9.70786 19.6821 10.1579L19.6557 10.8698C19.6516 10.9812 19.7731 11.0525 19.8684 10.9945L20.4741 10.6259C20.6181 10.5359 20.7801 10.4999 20.9241 10.4999C21.2841 10.4999 21.5721 10.7879 21.5721 11.1659C21.5721 11.4539 21.4281 11.6699 21.1581 11.8139L20.5444 12.1403C20.4454 12.1929 20.4454 12.3348 20.5444 12.3875L21.1581 12.7139C21.4281 12.8579 21.5721 13.0739 21.5721 13.3619C21.5721 13.7399 21.2841 14.0279 20.9241 14.0279C20.7801 14.0279 20.6181 13.9919 20.4741 13.9019L19.8665 13.5452C19.7711 13.4892 19.6515 13.5607 19.6557 13.6712L19.6821 14.3699C19.7001 14.8199 19.3941 15.1259 18.9981 15.1259Z" fill="black"/>
<path d="M18.0388 30.7146C18.0388 30.1875 18.4729 29.7534 19 29.7534C19.5271 29.7534 19.9612 30.1875 19.9612 30.7146C19.9612 31.2417 19.5271 31.6758 19 31.6758C18.4729 31.6758 18.0388 31.2417 18.0388 30.7146ZM18.0388 34.919C18.0388 34.3919 18.4729 33.9578 19 33.9578C19.5271 33.9578 19.9612 34.3919 19.9612 34.919C19.9612 35.4523 19.5271 35.8864 19 35.8864C18.4729 35.8864 18.0388 35.4523 18.0388 34.919Z" fill="black"/>
<path fill-rule="evenodd" clip-rule="evenodd" d="M34.1404 35.8211C33.7768 35.9679 33.6009 36.3816 33.7476 36.7452C33.8943 37.1089 34.308 37.2847 34.6717 37.138C35.4304 36.8319 36.0836 36.4617 36.6083 35.9409C37.1401 35.4131 37.5033 34.7673 37.7369 33.9666C38.0002 33.0643 38.1047 31.9377 38.1017 30.5113C38.1016 30.441 38.1534 30.3812 38.223 30.3712C38.7084 30.3012 39.1372 30.218 39.4733 30.1261C39.8515 30.0226 40.0743 29.6322 39.9708 29.2539C39.8674 28.8757 39.4769 28.653 39.0986 28.7564C38.8612 28.8214 38.5608 28.8823 38.2173 28.9365C38.1353 28.9494 38.0608 28.8877 38.057 28.8048C38.0309 28.2304 37.9941 27.6167 37.9489 26.9605C37.9219 26.5693 37.5829 26.274 37.1917 26.301C36.8005 26.328 36.5052 26.667 36.5322 27.0582C36.5803 27.7555 36.6175 28.3929 36.6427 28.9765C36.646 29.0519 36.5887 29.1162 36.5134 29.1213C35.4173 29.1958 34.2262 29.2001 33.2749 29.0885C32.8855 29.0429 32.5328 29.3215 32.4871 29.711C32.4414 30.1004 32.7201 30.4532 33.1095 30.4989C34.1197 30.6174 35.3656 30.6188 36.5318 30.5432C36.6128 30.538 36.6816 30.6021 36.6813 30.6832C36.6766 31.936 36.5806 32.8602 36.3738 33.5688C36.1967 34.1755 35.9439 34.5997 35.608 34.933C35.265 35.2734 34.7989 35.5555 34.1404 35.8211ZM31.426 31.7267C31.4037 33.3501 31.5588 34.8829 31.861 35.8285C31.9803 36.202 31.7743 36.6016 31.4008 36.7209C31.0272 36.8403 30.6277 36.6342 30.5083 36.2607C30.1376 35.1005 29.983 33.3896 30.0062 31.7072C30.0294 30.0193 30.2332 28.2579 30.6371 26.9875C30.7559 26.6138 31.1551 26.4072 31.5288 26.526C31.9025 26.6448 32.1091 27.0441 31.9903 27.4177C31.6456 28.5021 31.4483 30.1087 31.426 31.7267Z" fill="black"/>
</svg>
