<svg width="95" height="54" viewBox="0 0 95 54" fill="none" xmlns="http://www.w3.org/2000/svg">
<rect x="2.3501" y="1.85001" width="90.8" height="50.3" rx="3" stroke="#8B1EFF" stroke-width="0.28"/>
<path d="M10.6999 37.0328C10.7199 37.6928 10.8699 38.3628 11.1399 38.9728C11.4099 39.6028 11.7899 40.1728 12.2599 40.6628C12.7299 41.1528 13.2999 41.5628 13.9199 41.8528C14.5299 42.1428 15.1999 42.3228 15.8699 42.3728C21.9899 42.6628 28.1199 42.8128 34.2499 42.8128C40.3799 42.8128 46.5099 42.6628 52.6299 42.3728C53.2999 42.3128 53.9699 42.1328 54.5799 41.8428C54.8899 41.6928 55.1799 41.5228 55.4599 41.3228C55.7399 41.1228 55.9999 40.9028 56.2399 40.6528C56.4799 40.4028 56.6899 40.1428 56.8799 39.8528C57.0699 39.5728 57.2299 39.2728 57.3599 38.9628C57.4899 38.6528 57.5899 38.3328 57.6599 38.0028C57.7299 37.6828 57.7799 37.3528 57.7899 37.0128C57.8699 27.0728 57.9699 17.1328 58.0999 7.20277C58.0799 6.66277 57.9999 6.12277 57.8299 5.61277C57.6699 5.10277 57.4399 4.61277 57.1299 4.17277C56.8299 3.73277 56.4599 3.34277 56.0499 3.02277C55.6299 2.70277 55.1699 2.44277 54.6699 2.25277C54.4399 2.16277 54.1999 2.09277 53.9599 2.04277C53.7199 1.99277 53.4699 1.95277 53.2199 1.92277C53.0499 1.90277 52.8899 1.89277 52.7199 1.89277C40.3999 1.83277 28.0799 1.83277 15.7699 1.91277C15.0799 1.91277 14.3799 2.05277 13.7399 2.31277C13.4199 2.44277 13.1099 2.59277 12.8199 2.78277C12.5299 2.97277 12.2499 3.18277 12.0099 3.42277C11.7599 3.66277 11.5399 3.94277 11.3399 4.22277C11.1399 4.51277 10.9799 4.82277 10.8499 5.15277C10.5799 5.80277 10.4199 6.51278 10.3999 7.22277C10.5199 17.1628 10.6299 27.1028 10.7099 37.0328" stroke="#8B1EFF" stroke-width="0.28" stroke-miterlimit="10"/>
<path d="M13.7901 4.34277C13.0101 4.34277 12.3701 4.98277 12.3701 5.76277V38.9228C12.3701 39.7028 13.0001 40.3428 13.7901 40.3428H54.6101C55.3901 40.3428 56.0301 39.7128 56.0301 38.9228V5.76277C56.0301 4.98277 55.3901 4.34277 54.6101 4.34277" stroke="#00FFFF" stroke-width="0.28" stroke-miterlimit="10"/>
<path d="M15.95 41.1328C15.76 41.1328 15.58 41.1028 15.4 41.0728C14.92 40.9928 14.45 40.8328 14.02 40.6128C13.59 40.3828 13.19 40.0828 12.86 39.7228C12.72 39.5728 12.59 39.4128 12.47 39.2528C12.18 38.8428 11.96 38.3828 11.82 37.9028C11.69 37.4628 11.62 37.0028 11.62 36.5428C11.6 31.6828 11.58 26.8328 11.56 21.9728C11.56 20.8028 11.56 19.6428 11.55 18.4728C11.54 15.2828 11.52 12.0928 11.5 8.90277C11.5 8.40277 11.5 7.89277 11.5 7.39277C11.5 7.35277 11.5 7.31277 11.5 7.27277C11.5 7.23277 11.5 7.19277 11.5 7.15277C11.5 7.11277 11.5 7.07277 11.5 7.03277C11.5 6.99277 11.5 6.95277 11.5 6.91277V6.79277C11.5 6.79277 11.52 6.71277 11.53 6.67277C11.53 6.63277 11.54 6.59277 11.55 6.56277C11.55 6.52277 11.56 6.48277 11.57 6.45277C11.57 6.41277 11.58 6.37277 11.59 6.34277C11.59 6.30277 11.61 6.26277 11.61 6.23277C11.62 6.19277 11.63 6.16277 11.64 6.12277C11.64 6.08277 11.66 6.05277 11.67 6.01277C11.68 5.97277 11.69 5.94277 11.7 5.90277C11.71 5.86277 11.72 5.83277 11.74 5.79277C11.75 5.75277 11.77 5.72277 11.78 5.68277C11.81 5.61277 11.84 5.55277 11.87 5.48277C11.9 5.41277 11.93 5.35277 11.97 5.29277C12 5.23277 12.04 5.16277 12.07 5.10277C12.11 5.04277 12.15 4.98277 12.19 4.92277C12.27 4.80277 12.36 4.68277 12.45 4.57277C12.54 4.46277 12.64 4.36277 12.74 4.26277C12.84 4.16277 12.95 4.07277 13.07 3.98277C13.18 3.89277 13.3 3.81277 13.43 3.73277C13.49 3.69277 13.55 3.66277 13.62 3.62277C13.68 3.59277 13.75 3.55277 13.81 3.52277C13.87 3.49277 13.94 3.46277 14.01 3.43277C14.08 3.40277 14.14 3.38277 14.21 3.35277C14.23 3.35277 14.25 3.34277 14.27 3.33277C14.29 3.33277 14.31 3.32277 14.33 3.31277C14.35 3.31277 14.37 3.30277 14.38 3.29277L14.44 3.27277C14.44 3.27277 14.48 3.26277 14.5 3.25277C14.52 3.25277 14.54 3.24277 14.56 3.23277C14.58 3.23277 14.6 3.23277 14.62 3.22277C14.64 3.22277 14.66 3.21277 14.68 3.20277C14.7 3.20277 14.72 3.19277 14.74 3.18277C14.76 3.18277 14.78 3.18277 14.8 3.17277C14.82 3.17277 14.84 3.17277 14.86 3.16277C14.88 3.16277 14.9 3.16277 14.92 3.15277C14.94 3.15277 14.96 3.15277 14.98 3.14277C15 3.14277 15.02 3.14277 15.04 3.13277C15.06 3.13277 15.08 3.13277 15.1 3.13277C15.12 3.13277 15.14 3.13277 15.16 3.12277C15.18 3.12277 15.2 3.12277 15.22 3.12277C15.24 3.12277 15.26 3.12277 15.28 3.12277C15.3 3.12277 15.32 3.12277 15.34 3.12277C15.36 3.12277 15.38 3.12277 15.4 3.12277C15.42 3.12277 15.44 3.12277 15.46 3.12277C15.48 3.12277 15.5 3.12277 15.52 3.12277C15.54 3.12277 15.56 3.12277 15.58 3.12277C15.6 3.12277 15.62 3.12277 15.64 3.12277C15.66 3.12277 15.68 3.12277 15.7 3.12277C15.72 3.12277 15.74 3.12277 15.76 3.12277C15.78 3.12277 15.8 3.12277 15.82 3.12277C15.84 3.12277 15.86 3.12277 15.88 3.12277C15.9 3.12277 15.92 3.12277 15.94 3.12277C16.04 3.12277 16.14 3.12277 16.25 3.12277C16.35 3.12277 16.45 3.12277 16.55 3.12277C16.65 3.12277 16.75 3.12277 16.86 3.12277C16.96 3.12277 17.06 3.12277 17.17 3.12277C17.27 3.12277 17.37 3.12277 17.48 3.12277C17.58 3.12277 17.68 3.12277 17.79 3.12277C17.89 3.12277 17.99 3.12277 18.1 3.12277C18.2 3.12277 18.3 3.12277 18.41 3.12277C18.51 3.12277 18.61 3.12277 18.72 3.12277C18.82 3.12277 18.92 3.12277 19.03 3.12277C19.13 3.12277 19.23 3.12277 19.34 3.12277C19.44 3.12277 19.54 3.12277 19.65 3.12277C19.75 3.12277 19.85 3.12277 19.95 3.12277C20.05 3.12277 20.16 3.12277 20.26 3.12277C20.36 3.12277 20.46 3.12277 20.57 3.12277C20.67 3.12277 20.77 3.12277 20.88 3.12277C20.98 3.12277 21.08 3.12277 21.19 3.12277C21.29 3.12277 21.39 3.12277 21.5 3.12277C21.6 3.12277 21.7 3.12277 21.81 3.12277C21.91 3.12277 22.01 3.12277 22.12 3.12277C22.22 3.12277 22.33 3.12277 22.43 3.12277H22.74C22.84 3.12277 22.94 3.12277 23.05 3.12277C23.15 3.12277 23.25 3.12277 23.36 3.12277C23.46 3.12277 23.57 3.12277 23.67 3.12277C23.77 3.12277 23.87 3.12277 23.98 3.12277C24.09 3.12277 24.18 3.12277 24.29 3.12277C24.39 3.12277 24.49 3.12277 24.6 3.12277H24.91C25.01 3.12277 25.11 3.12277 25.22 3.12277C25.33 3.12277 25.43 3.12277 25.53 3.12277C25.63 3.12277 25.73 3.12277 25.84 3.12277C25.95 3.12277 26.05 3.12277 26.15 3.12277C26.25 3.12277 26.36 3.12277 26.46 3.12277C26.56 3.12277 26.66 3.12277 26.77 3.12277C26.88 3.12277 26.97 3.12277 27.08 3.12277C27.18 3.12277 27.28 3.12277 27.39 3.12277H27.7C27.8 3.12277 27.9 3.12277 28.01 3.12277C28.12 3.12277 28.22 3.12277 28.32 3.12277H28.63C28.73 3.12277 28.84 3.12277 28.94 3.12277C29.04 3.12277 29.14 3.12277 29.25 3.12277H29.56C29.66 3.12277 29.77 3.12277 29.87 3.12277H30.18C30.28 3.12277 30.38 3.12277 30.49 3.12277H30.8C30.9 3.12277 31 3.12277 31.11 3.12277H31.72C31.82 3.12277 31.92 3.12277 32.03 3.12277H33.88C33.98 3.12277 34.09 3.12277 34.19 3.12277H34.5C34.6 3.12277 34.7 3.12277 34.81 3.12277H36.66C36.76 3.12277 36.87 3.12277 36.97 3.12277H37.58C37.68 3.12277 37.79 3.12277 37.89 3.12277H38.2C38.3 3.12277 38.41 3.12277 38.51 3.12277H38.82C38.92 3.12277 39.02 3.12277 39.13 3.12277H39.44C39.54 3.12277 39.64 3.12277 39.75 3.12277C39.86 3.12277 39.95 3.12277 40.06 3.12277H40.37C40.47 3.12277 40.58 3.12277 40.68 3.12277C40.78 3.12277 40.89 3.12277 40.99 3.12277H41.3C41.4 3.12277 41.5 3.12277 41.61 3.12277C41.71 3.12277 41.82 3.12277 41.92 3.12277C42.02 3.12277 42.12 3.12277 42.23 3.12277C42.34 3.12277 42.43 3.12277 42.54 3.12277C42.65 3.12277 42.75 3.12277 42.85 3.12277C42.95 3.12277 43.06 3.12277 43.16 3.12277C43.26 3.12277 43.36 3.12277 43.47 3.12277C43.58 3.12277 43.67 3.12277 43.78 3.12277C43.89 3.12277 43.98 3.12277 44.09 3.12277C44.2 3.12277 44.3 3.12277 44.4 3.12277C44.5 3.12277 44.6 3.12277 44.71 3.12277H45.02C45.12 3.12277 45.22 3.12277 45.33 3.12277C45.43 3.12277 45.54 3.12277 45.64 3.12277C45.74 3.12277 45.84 3.12277 45.95 3.12277C46.05 3.12277 46.15 3.12277 46.26 3.12277C46.36 3.12277 46.46 3.12277 46.57 3.12277C46.67 3.12277 46.78 3.12277 46.88 3.12277C46.98 3.12277 47.08 3.12277 47.19 3.12277C47.29 3.12277 47.39 3.12277 47.5 3.12277C47.6 3.12277 47.7 3.12277 47.81 3.12277C47.91 3.12277 48.01 3.12277 48.12 3.12277C48.22 3.12277 48.32 3.12277 48.43 3.12277C48.53 3.12277 48.63 3.12277 48.74 3.12277C48.84 3.12277 48.95 3.12277 49.05 3.12277C49.15 3.12277 49.25 3.12277 49.36 3.12277C49.46 3.12277 49.56 3.12277 49.67 3.12277C49.77 3.12277 49.88 3.12277 49.98 3.12277C50.08 3.12277 50.18 3.12277 50.29 3.12277C50.39 3.12277 50.49 3.12277 50.59 3.12277C50.69 3.12277 50.79 3.12277 50.9 3.12277C51 3.12277 51.1 3.12277 51.21 3.12277C51.31 3.12277 51.41 3.12277 51.51 3.12277C51.61 3.12277 51.71 3.12277 51.82 3.12277C51.92 3.12277 52.02 3.12277 52.13 3.12277C52.23 3.12277 52.33 3.12277 52.43 3.12277C52.53 3.12277 52.63 3.12277 52.74 3.12277C52.78 3.12277 52.82 3.12277 52.86 3.12277C52.9 3.12277 52.94 3.12277 52.98 3.12277C53.02 3.12277 53.06 3.12277 53.1 3.12277C53.14 3.12277 53.18 3.12277 53.22 3.13277C53.26 3.13277 53.3 3.13277 53.34 3.14277L53.46 3.16277C53.46 3.16277 53.54 3.17277 53.58 3.18277C53.62 3.18277 53.66 3.19277 53.7 3.20277C53.74 3.20277 53.77 3.22277 53.81 3.22277C53.85 3.22277 53.89 3.24277 53.92 3.25277C53.96 3.25277 54 3.27277 54.03 3.28277C54.07 3.28277 54.1 3.30277 54.14 3.31277C54.18 3.32277 54.21 3.33277 54.25 3.34277C54.29 3.35277 54.32 3.36277 54.36 3.37277C54.4 3.38277 54.43 3.39277 54.47 3.41277C54.54 3.44277 54.61 3.46277 54.67 3.49277C54.74 3.52277 54.8 3.55277 54.87 3.58277C54.93 3.61277 55 3.65277 55.06 3.68277C55.12 3.71277 55.19 3.75277 55.25 3.79277C55.37 3.87277 55.49 3.95277 55.61 4.04277C55.72 4.13277 55.83 4.22277 55.93 4.32277C56.03 4.42277 56.13 4.52277 56.22 4.63277C56.31 4.74277 56.4 4.86277 56.48 4.98277C56.52 5.04277 56.56 5.10277 56.59 5.16277C56.63 5.22277 56.66 5.28277 56.69 5.35277C56.72 5.41277 56.75 5.48277 56.78 5.54277C56.81 5.61277 56.84 5.67277 56.86 5.74277C56.86 5.76277 56.87 5.78277 56.88 5.80277C56.88 5.82277 56.89 5.84277 56.9 5.85277L56.92 5.91277C56.92 5.91277 56.93 5.95277 56.94 5.97277C56.94 5.99277 56.95 6.01277 56.96 6.03277C56.96 6.05277 56.97 6.07277 56.98 6.09277C56.98 6.11277 56.99 6.13277 57 6.15277C57 6.17277 57.01 6.19277 57.02 6.21277V6.27277C57.02 6.27277 57.04 6.31277 57.05 6.33277C57.05 6.35277 57.05 6.37277 57.06 6.39277C57.06 6.41277 57.06 6.43277 57.07 6.45277C57.07 6.47277 57.07 6.49277 57.08 6.51277V6.57277C57.08 6.57277 57.1 6.61277 57.1 6.63277C57.1 6.65277 57.1 6.67277 57.1 6.69277C57.1 6.71277 57.1 6.73277 57.1 6.75277C57.1 6.77277 57.1 6.79277 57.1 6.81277C57.1 6.83277 57.1 6.85277 57.1 6.87277C57.1 6.89277 57.1 6.91277 57.1 6.93277C57.1 6.95277 57.1 6.97277 57.1 6.99277C57.1 7.01277 57.1 7.03277 57.1 7.05277C57.1 7.07277 57.1 7.09277 57.1 7.11277C57.1 7.13277 57.1 7.15277 57.1 7.17277V7.23277C57.1 7.23277 57.1 7.27277 57.1 7.29277C57.1 7.31277 57.1 7.33277 57.1 7.35277C57.1 7.37277 57.1 7.39277 57.1 7.41277V7.47277V8.99277C57.08 12.1828 57.07 15.3728 57.05 18.5728C57.05 19.7328 57.04 20.9028 57.04 22.0628C57.02 26.9128 57 31.7728 56.98 36.6228C56.98 36.6628 56.98 36.7028 56.98 36.7428C56.98 36.7828 56.98 36.8228 56.98 36.8628C56.98 36.9028 56.98 36.9428 56.98 36.9828C56.98 37.0228 56.98 37.0628 56.98 37.1028C56.98 37.1428 56.98 37.1828 56.97 37.2128C56.97 37.2528 56.96 37.2928 56.95 37.3228C56.95 37.3628 56.94 37.4028 56.93 37.4328L56.91 37.5428C56.91 37.5428 56.9 37.6228 56.89 37.6528C56.89 37.6928 56.87 37.7328 56.86 37.7628C56.86 37.8028 56.84 37.8328 56.83 37.8728C56.82 37.9128 56.81 37.9428 56.8 37.9828C56.79 38.0228 56.78 38.0528 56.77 38.0928C56.76 38.1328 56.75 38.1628 56.73 38.2028C56.72 38.2428 56.7 38.2728 56.69 38.3128C56.64 38.4528 56.58 38.5828 56.51 38.7228C56.45 38.8528 56.38 38.9828 56.3 39.1028C56.22 39.2228 56.14 39.3428 56.05 39.4628C55.96 39.5728 55.87 39.6928 55.77 39.7928C55.67 39.9028 55.57 40.0028 55.46 40.1028C55.35 40.2028 55.23 40.2928 55.11 40.3728C55.05 40.4128 54.99 40.4528 54.93 40.4928C54.87 40.5328 54.81 40.5728 54.74 40.6028C54.68 40.6428 54.61 40.6728 54.55 40.7028C54.48 40.7328 54.42 40.7728 54.35 40.8028C54.33 40.8028 54.32 40.8128 54.3 40.8228C54.28 40.8328 54.26 40.8428 54.25 40.8428C54.23 40.8428 54.22 40.8528 54.2 40.8628C54.18 40.8628 54.17 40.8728 54.15 40.8828L54.1 40.9028C54.1 40.9028 54.06 40.9128 54.05 40.9228L54 40.9428C54 40.9428 53.97 40.9528 53.95 40.9628C53.93 40.9628 53.91 40.9728 53.9 40.9828C53.88 40.9828 53.86 40.9928 53.85 41.0028C53.83 41.0028 53.81 41.0128 53.8 41.0228C53.78 41.0228 53.76 41.0328 53.75 41.0428C53.73 41.0428 53.71 41.0528 53.7 41.0528L53.65 41.0728C53.65 41.0728 53.61 41.0728 53.6 41.0828C53.58 41.0828 53.56 41.0828 53.55 41.0928C53.53 41.0928 53.51 41.0928 53.49 41.1028C53.47 41.1028 53.45 41.1028 53.43 41.1128C53.41 41.1128 53.39 41.1128 53.38 41.1228C53.36 41.1228 53.34 41.1228 53.32 41.1328C53.3 41.1328 53.28 41.1328 53.26 41.1328H53.21L53.15 41.1528C53.13 41.1528 53.11 41.1528 53.09 41.1528C53.07 41.1528 53.05 41.1528 53.03 41.1528C53.01 41.1528 52.99 41.1528 52.97 41.1528C52.95 41.1528 52.93 41.1528 52.91 41.1528C52.89 41.1528 52.87 41.1528 52.85 41.1528C52.83 41.1528 52.81 41.1528 52.79 41.1528C52.77 41.1528 52.75 41.1528 52.73 41.1528C52.71 41.1528 52.69 41.1528 52.67 41.1528C52.57 41.1528 52.47 41.1628 52.36 41.1728C52.26 41.1728 52.16 41.1828 52.06 41.1928C51.96 41.1928 51.86 41.2028 51.75 41.2028C51.65 41.2028 51.55 41.2128 51.44 41.2228C51.34 41.2228 51.24 41.2228 51.14 41.2328C51.04 41.2328 50.94 41.2328 50.83 41.2428C50.73 41.2428 50.63 41.2428 50.52 41.2528C50.42 41.2528 50.32 41.2528 50.22 41.2628C50.12 41.2628 50.02 41.2628 49.91 41.2728C49.81 41.2728 49.71 41.2728 49.6 41.2828C49.5 41.2828 49.4 41.2828 49.29 41.2928C49.19 41.2928 49.09 41.2928 48.98 41.3028C48.88 41.3028 48.78 41.3028 48.67 41.3128C48.57 41.3128 48.47 41.3128 48.36 41.3228C48.26 41.3228 48.16 41.3228 48.05 41.3328C47.95 41.3328 47.85 41.3328 47.74 41.3428C47.64 41.3428 47.54 41.3428 47.43 41.3528C47.33 41.3528 47.23 41.3528 47.12 41.3628C47.02 41.3628 46.92 41.3628 46.81 41.3728C46.71 41.3728 46.61 41.3728 46.5 41.3828C46.4 41.3828 46.3 41.3828 46.19 41.3828C46.09 41.3828 45.99 41.3828 45.88 41.3928C45.77 41.4028 45.68 41.3928 45.57 41.4028C45.47 41.4028 45.37 41.4028 45.26 41.4028C45.16 41.4028 45.06 41.4028 44.95 41.4028C44.85 41.4028 44.75 41.4028 44.64 41.4028C44.54 41.4028 44.44 41.4028 44.33 41.4028C44.23 41.4028 44.13 41.4028 44.02 41.4028C43.92 41.4028 43.82 41.4028 43.71 41.4028C43.61 41.4028 43.51 41.4028 43.4 41.4028C43.3 41.4028 43.2 41.4028 43.09 41.4028C42.99 41.4028 42.89 41.4028 42.78 41.4028C42.68 41.4028 42.57 41.4028 42.47 41.4028C42.37 41.4028 42.27 41.4028 42.16 41.4028C42.06 41.4028 41.96 41.4028 41.85 41.4028H41.54C41.44 41.4028 41.34 41.4128 41.23 41.4128H40.92C40.82 41.4128 40.72 41.4128 40.61 41.4228C40.51 41.4228 40.41 41.4228 40.3 41.4228C40.2 41.4228 40.09 41.4228 39.99 41.4228C39.89 41.4228 39.79 41.4228 39.68 41.4228H39.37C39.27 41.4228 39.16 41.4228 39.06 41.4228C38.96 41.4228 38.86 41.4228 38.75 41.4228C38.64 41.4228 38.55 41.4228 38.44 41.4228C38.34 41.4228 38.23 41.4228 38.13 41.4228C38.03 41.4228 37.93 41.4228 37.82 41.4228H37.51C37.41 41.4228 37.3 41.4228 37.2 41.4228C37.1 41.4228 36.99 41.4228 36.89 41.4228C36.79 41.4228 36.69 41.4228 36.58 41.4228C36.48 41.4228 36.38 41.4228 36.27 41.4228H35.96H35.65C35.55 41.4228 35.45 41.4228 35.34 41.4228H35.03C34.93 41.4228 34.82 41.4228 34.72 41.4228H33.8C33.7 41.4228 33.6 41.4228 33.49 41.4228H33.18C33.08 41.4228 32.98 41.4228 32.87 41.4228C32.77 41.4228 32.67 41.4228 32.56 41.4228H32.25C32.15 41.4228 32.05 41.4228 31.94 41.4228C31.84 41.4228 31.73 41.4228 31.63 41.4228C31.53 41.4228 31.42 41.4228 31.32 41.4228C31.22 41.4228 31.12 41.4228 31.01 41.4228H30.7H30.39C30.29 41.4228 30.19 41.4228 30.08 41.4228C29.98 41.4228 29.88 41.4228 29.77 41.4228C29.67 41.4228 29.56 41.4228 29.46 41.4228C29.36 41.4228 29.26 41.4228 29.15 41.4228C29.05 41.4228 28.95 41.4228 28.84 41.4228C28.74 41.4228 28.64 41.4228 28.53 41.4228C28.43 41.4228 28.32 41.4228 28.22 41.4228C28.12 41.4228 28.02 41.4228 27.91 41.4228C27.81 41.4228 27.71 41.4228 27.6 41.4228C27.5 41.4228 27.4 41.4228 27.29 41.4228H26.98C26.88 41.4228 26.78 41.4228 26.67 41.4128C26.57 41.4128 26.47 41.4128 26.36 41.4128C26.26 41.4128 26.16 41.4128 26.05 41.4128C25.95 41.4128 25.84 41.4128 25.74 41.4128H25.43C25.33 41.4128 25.23 41.4028 25.12 41.4028C25.02 41.4028 24.91 41.4028 24.81 41.4028C24.71 41.4028 24.6 41.4028 24.5 41.4028C24.4 41.4028 24.3 41.4028 24.19 41.4028C24.09 41.4028 23.99 41.4028 23.88 41.4028C23.78 41.4028 23.68 41.4028 23.57 41.4028C23.47 41.4028 23.37 41.4028 23.26 41.4028C23.16 41.4028 23.06 41.4028 22.95 41.4028C22.85 41.4028 22.75 41.4028 22.64 41.3928C22.54 41.3928 22.44 41.3928 22.33 41.3828C22.23 41.3828 22.13 41.3828 22.02 41.3828C21.92 41.3828 21.82 41.3828 21.71 41.3728C21.61 41.3728 21.51 41.3728 21.4 41.3628C21.3 41.3628 21.2 41.3628 21.09 41.3528C20.99 41.3528 20.89 41.3528 20.78 41.3428C20.68 41.3428 20.58 41.3428 20.47 41.3328C20.37 41.3328 20.27 41.3328 20.16 41.3228C20.06 41.3228 19.96 41.3228 19.85 41.3128C19.75 41.3128 19.65 41.3128 19.54 41.3028C19.44 41.3028 19.34 41.3028 19.23 41.2928C19.13 41.2928 19.03 41.2928 18.92 41.2828C18.82 41.2828 18.72 41.2828 18.61 41.2728C18.51 41.2728 18.41 41.2728 18.3 41.2628C18.2 41.2628 18.1 41.2628 18 41.2528C17.9 41.2528 17.8 41.2528 17.69 41.2428C17.59 41.2428 17.49 41.2428 17.38 41.2328C17.28 41.2328 17.18 41.2228 17.08 41.2228C16.98 41.2228 16.88 41.2128 16.77 41.2028H16.47C16.37 41.1828 16.27 41.1828 16.17 41.1728C16.07 41.1728 15.97 41.1628 15.86 41.1528L15.95 41.1328Z" stroke="#FF00FF" stroke-width="0.28" stroke-linecap="round" stroke-linejoin="round"/>
<path d="M51.3871 44.9191V50.01H50.7706V45.5654H50.7408L49.4979 46.3907V45.7643L50.7706 44.9191H51.3871ZM52.9879 50.0498C52.8653 50.0498 52.7601 50.0059 52.6722 49.918C52.5844 49.8302 52.5405 49.725 52.5405 49.6023C52.5405 49.4797 52.5844 49.3745 52.6722 49.2866C52.7601 49.1988 52.8653 49.1549 52.9879 49.1549C53.1106 49.1549 53.2158 49.1988 53.3036 49.2866C53.3915 49.3745 53.4354 49.4797 53.4354 49.6023C53.4354 49.6835 53.4147 49.7581 53.3732 49.8261C53.3335 49.894 53.2796 49.9487 53.2116 49.9901C53.1454 50.0299 53.0708 50.0498 52.9879 50.0498ZM54.5347 50.01L56.8117 45.5057V45.466H54.1867V44.9191H57.4481V45.4958L55.181 50.01H54.5347ZM59.8972 50.0796C59.6055 50.0796 59.3429 50.0216 59.1092 49.9056C58.8755 49.7896 58.6883 49.6305 58.5474 49.4283C58.4065 49.2262 58.3295 48.9958 58.3162 48.7373H58.9128C58.936 48.9676 59.0404 49.1582 59.226 49.309C59.4133 49.4582 59.637 49.5327 59.8972 49.5327C60.106 49.5327 60.2916 49.4838 60.454 49.3861C60.6181 49.2883 60.7465 49.1541 60.8393 48.9834C60.9338 48.811 60.981 48.6163 60.981 48.3992C60.981 48.1771 60.9321 47.9791 60.8343 47.8051C60.7382 47.6294 60.6056 47.4911 60.4366 47.39C60.2676 47.2889 60.0745 47.2375 59.8574 47.2359C59.7016 47.2342 59.5417 47.2582 59.3777 47.308C59.2136 47.356 59.0785 47.4182 58.9725 47.4944L58.3958 47.4248L58.704 44.9191H61.3489V45.466H59.2211L59.0421 46.9674H59.0719C59.1763 46.8845 59.3072 46.8158 59.4647 46.7611C59.6221 46.7064 59.7862 46.679 59.9569 46.679C60.2684 46.679 60.546 46.7536 60.7896 46.9028C61.0349 47.0503 61.2271 47.2524 61.3663 47.5093C61.5072 47.7662 61.5776 48.0595 61.5776 48.3893C61.5776 48.7141 61.5047 49.0041 61.3588 49.2593C61.2147 49.5129 61.0158 49.7134 60.7623 49.8609C60.5087 50.0067 60.2203 50.0796 59.8972 50.0796ZM67.4074 46.1918C67.3776 45.9399 67.2566 45.7444 67.0445 45.6052C66.8324 45.466 66.5722 45.3964 66.2639 45.3964C66.0386 45.3964 65.8414 45.4328 65.6723 45.5057C65.5049 45.5787 65.374 45.6789 65.2796 45.8065C65.1868 45.9341 65.1404 46.0791 65.1404 46.2415C65.1404 46.3774 65.1727 46.4943 65.2373 46.592C65.3036 46.6882 65.3881 46.7685 65.4909 46.8332C65.5936 46.8961 65.7013 46.9483 65.814 46.9898C65.9267 47.0295 66.0303 47.0619 66.1247 47.0867L66.6418 47.2259C66.7744 47.2607 66.9218 47.3088 67.0843 47.3701C67.2483 47.4314 67.4049 47.5151 67.5541 47.6212C67.7049 47.7256 67.8292 47.8598 67.9269 48.0239C68.0247 48.1879 68.0736 48.3893 68.0736 48.6279C68.0736 48.903 68.0015 49.1516 67.8573 49.3736C67.7148 49.5957 67.506 49.7722 67.2309 49.9031C66.9575 50.034 66.6252 50.0995 66.2341 50.0995C65.8695 50.0995 65.5538 50.0407 65.287 49.923C65.0219 49.8053 64.8131 49.6413 64.6606 49.4308C64.5098 49.2204 64.4244 48.9759 64.4046 48.6975H65.0409C65.0575 48.8897 65.1221 49.0488 65.2348 49.1748C65.3492 49.2991 65.4933 49.3919 65.6673 49.4532C65.843 49.5129 66.0319 49.5427 66.2341 49.5427C66.4694 49.5427 66.6807 49.5046 66.868 49.4283C67.0552 49.3504 67.2036 49.2427 67.3129 49.1052C67.4223 48.966 67.477 48.8036 67.477 48.618C67.477 48.4489 67.4298 48.3114 67.3353 48.2053C67.2409 48.0993 67.1166 48.0131 66.9624 47.9468C66.8083 47.8805 66.6418 47.8225 66.4628 47.7728L65.8364 47.5938C65.4387 47.4795 65.1238 47.3162 64.8918 47.1041C64.6598 46.892 64.5438 46.6144 64.5438 46.2714C64.5438 45.9863 64.6208 45.7378 64.7749 45.5256C64.9307 45.3119 65.1395 45.1461 65.4014 45.0285C65.6649 44.9092 65.959 44.8495 66.2838 44.8495C66.6119 44.8495 66.9036 44.9083 67.1588 45.026C67.414 45.142 67.6162 45.3011 67.7654 45.5033C67.9162 45.7054 67.9957 45.935 68.004 46.1918H67.4074ZM70.6681 46.1918V46.689H68.6895V46.1918H70.6681ZM69.2662 45.2771H69.8528V48.9163C69.8528 49.082 69.8768 49.2063 69.9249 49.2891C69.9746 49.3703 70.0376 49.425 70.1138 49.4532C70.1917 49.4797 70.2737 49.493 70.3599 49.493C70.4245 49.493 70.4776 49.4896 70.519 49.483C70.5604 49.4747 70.5936 49.4681 70.6184 49.4631L70.7377 49.9901C70.698 50.005 70.6425 50.02 70.5712 50.0349C70.4999 50.0514 70.4096 50.0597 70.3002 50.0597C70.1345 50.0597 69.9721 50.0241 69.813 49.9528C69.6556 49.8816 69.5247 49.773 69.4203 49.6272C69.3175 49.4814 69.2662 49.2974 69.2662 49.0754V45.2771ZM73.1104 50.0896C72.7425 50.0896 72.4252 50.0084 72.1584 49.8459C71.8932 49.6819 71.6886 49.4532 71.5444 49.1599C71.4019 48.8649 71.3306 48.5218 71.3306 48.1307C71.3306 47.7396 71.4019 47.395 71.5444 47.0967C71.6886 46.7967 71.8891 46.563 72.146 46.3957C72.4045 46.2266 72.7061 46.1421 73.0508 46.1421C73.2496 46.1421 73.446 46.1753 73.6399 46.2415C73.8338 46.3078 74.0103 46.4155 74.1694 46.5647C74.3285 46.7122 74.4553 46.9077 74.5497 47.1513C74.6442 47.395 74.6914 47.6949 74.6914 48.0512V48.2998H71.7482V47.7927H74.0948C74.0948 47.5772 74.0517 47.385 73.9656 47.216C73.881 47.0469 73.7601 46.9135 73.6026 46.8158C73.4469 46.718 73.2629 46.6691 73.0508 46.6691C72.8171 46.6691 72.6149 46.7271 72.4442 46.8431C72.2752 46.9575 72.1451 47.1066 72.054 47.2905C71.9628 47.4745 71.9173 47.6717 71.9173 47.8822V48.2202C71.9173 48.5086 71.967 48.753 72.0664 48.9535C72.1675 49.1524 72.3075 49.304 72.4865 49.4084C72.6655 49.5112 72.8735 49.5626 73.1104 49.5626C73.2646 49.5626 73.4038 49.541 73.5281 49.4979C73.654 49.4532 73.7625 49.3869 73.8537 49.2991C73.9448 49.2096 74.0153 49.0986 74.065 48.966L74.6317 49.1251C74.5721 49.3173 74.4718 49.4863 74.331 49.6322C74.1901 49.7763 74.0161 49.889 73.8089 49.9702C73.6018 50.0498 73.369 50.0896 73.1104 50.0896ZM75.5838 51.4418V46.1918H76.1506V46.7984H76.2202C76.2633 46.7321 76.3229 46.6476 76.3991 46.5448C76.477 46.4404 76.5881 46.3476 76.7322 46.2664C76.8781 46.1835 77.0753 46.1421 77.3239 46.1421C77.6454 46.1421 77.9287 46.2225 78.174 46.3832C78.4193 46.544 78.6107 46.7718 78.7482 47.0668C78.8858 47.3618 78.9545 47.7098 78.9545 48.1109C78.9545 48.5152 78.8858 48.8657 78.7482 49.1624C78.6107 49.4573 78.4201 49.686 78.1765 49.8484C77.9329 50.0092 77.652 50.0896 77.3338 50.0896C77.0885 50.0896 76.8922 50.049 76.7447 49.9678C76.5972 49.8849 76.4837 49.7913 76.4041 49.6869C76.3246 49.5808 76.2633 49.493 76.2202 49.4234H76.1705V51.4418H75.5838ZM76.1605 48.1009C76.1605 48.3893 76.2028 48.6437 76.2873 48.8641C76.3718 49.0828 76.4953 49.2543 76.6577 49.3786C76.8201 49.5013 77.0189 49.5626 77.2543 49.5626C77.4995 49.5626 77.7042 49.4979 77.8683 49.3687C78.034 49.2378 78.1583 49.0621 78.2411 48.8417C78.3256 48.6196 78.3679 48.3727 78.3679 48.1009C78.3679 47.8325 78.3265 47.5905 78.2436 47.3751C78.1624 47.158 78.0389 46.9865 77.8732 46.8605C77.7092 46.7329 77.5028 46.6691 77.2543 46.6691C77.0156 46.6691 76.8151 46.7296 76.6527 46.8506C76.4903 46.9699 76.3677 47.1373 76.2848 47.3527C76.2019 47.5665 76.1605 47.8159 76.1605 48.1009ZM79.8494 51.4418V46.1918H80.4162V46.7984H80.4858C80.5289 46.7321 80.5885 46.6476 80.6648 46.5448C80.7427 46.4404 80.8537 46.3476 80.9979 46.2664C81.1437 46.1835 81.3409 46.1421 81.5895 46.1421C81.911 46.1421 82.1944 46.2225 82.4396 46.3832C82.6849 46.544 82.8763 46.7718 83.0138 47.0668C83.1514 47.3618 83.2202 47.7098 83.2202 48.1109C83.2202 48.5152 83.1514 48.8657 83.0138 49.1624C82.8763 49.4573 82.6857 49.686 82.4421 49.8484C82.1985 50.0092 81.9176 50.0896 81.5994 50.0896C81.3542 50.0896 81.1578 50.049 81.0103 49.9678C80.8628 49.8849 80.7493 49.7913 80.6697 49.6869C80.5902 49.5808 80.5289 49.493 80.4858 49.4234H80.4361V51.4418H79.8494ZM80.4261 48.1009C80.4261 48.3893 80.4684 48.6437 80.5529 48.8641C80.6374 49.0828 80.7609 49.2543 80.9233 49.3786C81.0857 49.5013 81.2846 49.5626 81.5199 49.5626C81.7652 49.5626 81.9698 49.4979 82.1339 49.3687C82.2996 49.2378 82.4239 49.0621 82.5067 48.8417C82.5913 48.6196 82.6335 48.3727 82.6335 48.1009C82.6335 47.8325 82.5921 47.5905 82.5092 47.3751C82.428 47.158 82.3046 46.9865 82.1388 46.8605C81.9748 46.7329 81.7685 46.6691 81.5199 46.6691C81.2813 46.6691 81.0807 46.7296 80.9183 46.8506C80.7559 46.9699 80.6333 47.1373 80.5504 47.3527C80.4676 47.5665 80.4261 47.8159 80.4261 48.1009ZM85.7159 50.0896C85.348 50.0896 85.0307 50.0084 84.7638 49.8459C84.4987 49.6819 84.294 49.4532 84.1499 49.1599C84.0073 48.8649 83.9361 48.5218 83.9361 48.1307C83.9361 47.7396 84.0073 47.395 84.1499 47.0967C84.294 46.7967 84.4946 46.563 84.7514 46.3957C85.0099 46.2266 85.3116 46.1421 85.6562 46.1421C85.8551 46.1421 86.0515 46.1753 86.2454 46.2415C86.4393 46.3078 86.6158 46.4155 86.7749 46.5647C86.9339 46.7122 87.0607 46.9077 87.1552 47.1513C87.2496 47.395 87.2969 47.6949 87.2969 48.0512V48.2998H84.3537V47.7927H86.7003C86.7003 47.5772 86.6572 47.385 86.571 47.216C86.4865 47.0469 86.3655 46.9135 86.2081 46.8158C86.0523 46.718 85.8684 46.6691 85.6562 46.6691C85.4226 46.6691 85.2204 46.7271 85.0497 46.8431C84.8807 46.9575 84.7506 47.1066 84.6594 47.2905C84.5683 47.4745 84.5227 47.6717 84.5227 47.8822V48.2202C84.5227 48.5086 84.5724 48.753 84.6719 48.9535C84.773 49.1524 84.913 49.304 85.092 49.4084C85.271 49.5112 85.4789 49.5626 85.7159 49.5626C85.87 49.5626 86.0092 49.541 86.1335 49.4979C86.2595 49.4532 86.368 49.3869 86.4592 49.2991C86.5503 49.2096 86.6207 49.0986 86.6705 48.966L87.2372 49.1251C87.1776 49.3173 87.0773 49.4863 86.9364 49.6322C86.7956 49.7763 86.6216 49.889 86.4144 49.9702C86.2073 50.0498 85.9744 50.0896 85.7159 50.0896ZM89.631 50.0896C89.3129 50.0896 89.032 50.0092 88.7884 49.8484C88.5447 49.686 88.3542 49.4573 88.2166 49.1624C88.0791 48.8657 88.0103 48.5152 88.0103 48.1109C88.0103 47.7098 88.0791 47.3618 88.2166 47.0668C88.3542 46.7718 88.5456 46.544 88.7908 46.3832C89.0361 46.2225 89.3195 46.1421 89.641 46.1421C89.8896 46.1421 90.0859 46.1835 90.2301 46.2664C90.3759 46.3476 90.487 46.4404 90.5632 46.5448C90.6411 46.6476 90.7016 46.7321 90.7447 46.7984H90.7944V44.9191H91.381V50.01H90.8143V49.4234H90.7447C90.7016 49.493 90.6403 49.5808 90.5607 49.6869C90.4812 49.7913 90.3677 49.8849 90.2202 49.9678C90.0727 50.049 89.8763 50.0896 89.631 50.0896ZM89.7106 49.5626C89.9459 49.5626 90.1448 49.5013 90.3072 49.3786C90.4696 49.2543 90.593 49.0828 90.6776 48.8641C90.7621 48.6437 90.8043 48.3893 90.8043 48.1009C90.8043 47.8159 90.7629 47.5665 90.68 47.3527C90.5972 47.1373 90.4746 46.9699 90.3121 46.8506C90.1497 46.7296 89.9492 46.6691 89.7106 46.6691C89.462 46.6691 89.2549 46.7329 89.0891 46.8605C88.9251 46.9865 88.8016 47.158 88.7188 47.3751C88.6375 47.5905 88.5969 47.8325 88.5969 48.1009C88.5969 48.3727 88.6384 48.6196 88.7212 48.8417C88.8058 49.0621 88.93 49.2378 89.0941 49.3687C89.2598 49.4979 89.4653 49.5626 89.7106 49.5626Z" fill="#0000FF"/>
<path fill-rule="evenodd" clip-rule="evenodd" d="M23.7242 18.3919C24.0013 18.1148 24.4505 18.1146 24.7278 18.3915L30.3678 24.0215C30.6453 24.2985 30.6457 24.748 30.3687 25.0256C30.0917 25.3031 29.6421 25.3035 29.3646 25.0265L24.3257 19.9964C24.271 19.9418 24.1824 19.9419 24.1278 19.9965L19.0983 25.026C18.821 25.3033 18.3715 25.3033 18.0942 25.026C17.8169 24.7487 17.8169 24.2992 18.0942 24.0219L23.7242 18.3919Z" fill="black"/>
<path d="M37.9034 25.8683C35.8672 25.8683 34.6123 24.4864 34.6123 22.2257C34.6123 19.965 35.8868 18.588 37.879 18.588C39.1827 18.588 40.213 19.1984 40.6769 20.2286C40.755 20.3897 40.7941 20.5558 40.7941 20.7022C40.7941 21.0391 40.5744 21.254 40.2375 21.254C39.9494 21.254 39.759 21.1173 39.6223 20.8097C39.2951 20.0529 38.6555 19.6573 37.8889 19.6573C36.6779 19.6573 35.9016 20.6534 35.9016 22.2257C35.9016 23.798 36.6731 24.799 37.8938 24.799C38.6995 24.799 39.3196 24.4474 39.6419 23.7052C39.7689 23.4171 39.93 23.2999 40.2034 23.2999C40.5501 23.2999 40.7893 23.5294 40.7893 23.8614C40.7893 24.0225 40.7502 24.169 40.6721 24.335C40.2229 25.292 39.2219 25.8682 37.9035 25.8682L37.9034 25.8683Z" fill="black"/>
<path d="M50.0137 25.8489C49.6573 25.8489 49.4033 25.6194 49.4033 25.2092V19.2472C49.4033 18.837 49.6572 18.6075 50.0137 18.6075C50.3702 18.6075 50.6192 18.837 50.6192 19.2472V25.2092C50.6192 25.6194 50.3702 25.8489 50.0137 25.8489Z" fill="black"/>
<path d="M45.6611 25.2089V21.0867C45.6611 20.7057 45.8955 20.4713 46.2423 20.4713C46.4759 20.4713 46.6625 20.5839 46.7551 20.7798C46.757 20.7838 46.7634 20.7999 46.7719 20.8217C46.806 20.9092 46.9143 20.9402 46.9892 20.8835C47.1916 20.7304 47.5739 20.486 47.9518 20.486C48.1423 20.486 48.2888 20.5348 48.3816 20.6179C48.4939 20.7107 48.5525 20.8572 48.5525 21.0575C48.5525 21.2578 48.4939 21.3896 48.3718 21.4873C48.2546 21.5899 48.0739 21.6436 47.8345 21.6485C47.1409 21.6534 46.8772 22.0881 46.8772 22.7181V25.209C46.8772 25.6095 46.633 25.8488 46.2667 25.8488C45.9004 25.8488 45.6611 25.6094 45.6611 25.2089Z" fill="black"/>
<path d="M42.44 24.4717V21.6554C42.44 21.5771 42.3765 21.5137 42.2983 21.5137H42.1129C41.8102 21.5137 41.6245 21.3428 41.6245 21.0498C41.6245 20.7568 41.81 20.5908 42.1129 20.5908H42.2983C42.3766 20.5908 42.44 20.5273 42.44 20.4491V19.8861C42.44 19.4954 42.6744 19.2512 43.0505 19.2512C43.4266 19.2512 43.6561 19.4953 43.6561 19.8861V20.4491C43.6561 20.5274 43.7196 20.5908 43.7978 20.5908H44.2177C44.5204 20.5908 44.7061 20.7616 44.7061 21.0498C44.7061 21.338 44.5206 21.5137 44.2177 21.5137H43.7978C43.7195 21.5137 43.6561 21.5772 43.6561 21.6554V24.208C43.6561 24.5987 43.7928 24.7696 44.1445 24.7989L44.2324 24.8087C44.5547 24.838 44.7208 24.9747 44.7208 25.258C44.7208 25.6144 44.4083 25.805 43.8516 25.805H43.8028C42.8994 25.805 42.4403 25.3557 42.4403 24.4718H42.4401L42.44 24.4717Z" fill="black"/>
</svg>
