<svg width="122" height="54" viewBox="0 0 122 54" fill="none" xmlns="http://www.w3.org/2000/svg">
<rect x="1.8501" y="1.85001" width="117.8" height="50.3" rx="3" stroke="#8B1EFF" stroke-width="0.28"/>
<path d="M109.846 40.8597C109.367 41.3588 108.792 41.7657 108.162 42.0547C107.535 42.3424 106.856 42.5134 106.173 42.5664C91.035 43.0283 75.892 43.2593 60.747 43.2593C45.6022 43.2595 30.4592 43.0284 15.3212 42.5664C14.6389 42.5129 13.9589 42.3339 13.3349 42.0479C13.0195 41.9038 12.7175 41.7328 12.4355 41.5337C12.1523 41.335 11.8873 41.1089 11.6483 40.8589C11.4087 40.6085 11.1937 40.3364 11.0067 40.0454C10.8212 39.7554 10.6622 39.4495 10.5313 39.1304C10.2718 38.4998 10.1188 37.8187 10.0888 37.1396L10.0732 7.25537C10.0995 6.52502 10.2835 5.79309 10.5985 5.12598C10.9123 4.46387 11.3563 3.86292 11.9023 3.38086C12.4453 2.90198 13.0893 2.53894 13.7744 2.29492C14.4592 2.05103 15.1832 1.927 15.9042 1.91992C45.7998 1.82202 75.6938 1.82202 105.59 1.91992C105.951 1.92505 106.314 1.95813 106.671 2.02002C107.028 2.08154 107.379 2.17053 107.72 2.2915C108.404 2.53345 109.047 2.90137 109.592 3.38135C110.139 3.86462 110.586 4.46155 110.899 5.12451C111.214 5.79138 111.395 6.52441 111.421 7.25537L111.405 37.1396C111.375 37.8193 111.23 38.5004 110.968 39.1324C110.704 39.7715 110.324 40.3615 109.846 40.8597Z" stroke="#8B1EFF" stroke-width="0.283" stroke-miterlimit="10"/>
<path d="M11.2354 6.23291V38.5249C11.2354 39.699 12.1873 40.651 13.3613 40.651L108.131 40.6509C109.305 40.6509 110.257 39.699 110.257 38.5249V6.2334C110.257 5.05945 109.305 4.10742 108.131 4.10742H101.753H13.3612C12.1872 4.10742 11.2352 5.05945 11.2354 6.23291Z" stroke="#00FFFF" stroke-width="0.28" stroke-miterlimit="10"/>
<path d="M15.1 41.27C12.68 41.27 10.73 39.21 10.73 36.68V7.61999C10.73 5.19999 12.97 3.23999 15.74 3.23999H105.79C108.54 3.23999 110.76 5.14999 110.76 7.50999L110.69 36.69C110.69 39.23 108.73 41.28 106.31 41.28C75.95 42.24 45.48 42.24 15.12 41.28H15.09L15.1 41.27Z" stroke="#FF00FF" stroke-width="0.28" stroke-linecap="round" stroke-linejoin="round"/>
<path d="M104.374 50.01V49.5626L106.054 47.7231C106.251 47.5076 106.414 47.3204 106.541 47.1613C106.669 47.0005 106.763 46.8497 106.825 46.7089C106.888 46.5664 106.919 46.4172 106.919 46.2614C106.919 46.0825 106.876 45.9275 106.79 45.7966C106.705 45.6657 106.589 45.5646 106.442 45.4933C106.294 45.4221 106.129 45.3864 105.945 45.3864C105.749 45.3864 105.578 45.427 105.433 45.5082C105.288 45.5878 105.177 45.6996 105.097 45.8438C105.019 45.988 104.98 46.157 104.98 46.3509H104.394C104.394 46.0526 104.462 45.7908 104.6 45.5654C104.737 45.34 104.925 45.1644 105.162 45.0384C105.4 44.9125 105.668 44.8495 105.965 44.8495C106.263 44.8495 106.527 44.9125 106.758 45.0384C106.988 45.1644 107.169 45.3342 107.299 45.548C107.43 45.7618 107.496 45.9996 107.496 46.2614C107.496 46.4487 107.462 46.6318 107.394 46.8108C107.328 46.9881 107.212 47.1861 107.046 47.4049C106.882 47.622 106.654 47.8871 106.362 48.2004L105.219 49.4234V49.4631H107.585V50.01H104.374ZM109.049 50.0498C108.927 50.0498 108.822 50.0059 108.734 49.918C108.646 49.8302 108.602 49.725 108.602 49.6023C108.602 49.4797 108.646 49.3745 108.734 49.2866C108.822 49.1988 108.927 49.1549 109.049 49.1549C109.172 49.1549 109.277 49.1988 109.365 49.2866C109.453 49.3745 109.497 49.4797 109.497 49.6023C109.497 49.6835 109.476 49.7581 109.435 49.8261C109.395 49.894 109.341 49.9487 109.273 49.9901C109.207 50.0299 109.132 50.0498 109.049 50.0498ZM110.54 50.01V49.5626L112.22 47.7231C112.417 47.5076 112.58 47.3204 112.707 47.1613C112.835 47.0005 112.929 46.8497 112.991 46.7089C113.054 46.5664 113.085 46.4172 113.085 46.2614C113.085 46.0825 113.042 45.9275 112.956 45.7966C112.871 45.6657 112.755 45.5646 112.608 45.4933C112.46 45.4221 112.295 45.3864 112.111 45.3864C111.915 45.3864 111.744 45.427 111.599 45.5082C111.454 45.5878 111.343 45.6996 111.263 45.8438C111.185 45.988 111.146 46.157 111.146 46.3509H110.56C110.56 46.0526 110.628 45.7908 110.766 45.5654C110.903 45.34 111.091 45.1644 111.328 45.0384C111.566 44.9125 111.834 44.8495 112.131 44.8495C112.429 44.8495 112.693 44.9125 112.924 45.0384C113.154 45.1644 113.335 45.3342 113.465 45.548C113.596 45.7618 113.662 45.9996 113.662 46.2614C113.662 46.4487 113.628 46.6318 113.56 46.8108C113.494 46.9881 113.378 47.1861 113.212 47.4049C113.048 47.622 112.82 47.8871 112.528 48.2004L111.385 49.4234V49.4631H113.751V50.01H110.54ZM116.369 50.0796C116.077 50.0796 115.815 50.0216 115.581 49.9056C115.347 49.7896 115.16 49.6305 115.019 49.4283C114.878 49.2262 114.801 48.9958 114.788 48.7373H115.384C115.408 48.9676 115.512 49.1582 115.698 49.309C115.885 49.4582 116.109 49.5327 116.369 49.5327C116.578 49.5327 116.763 49.4838 116.926 49.3861C117.09 49.2883 117.218 49.1541 117.311 48.9834C117.405 48.811 117.453 48.6163 117.453 48.3992C117.453 48.1771 117.404 47.9791 117.306 47.8051C117.21 47.6294 117.077 47.4911 116.908 47.39C116.739 47.2889 116.546 47.2375 116.329 47.2359C116.173 47.2342 116.013 47.2582 115.849 47.308C115.685 47.356 115.55 47.4182 115.444 47.4944L114.867 47.4248L115.176 44.9191H117.821V45.466H115.693L115.514 46.9674H115.544C115.648 46.8845 115.779 46.8158 115.936 46.7611C116.094 46.7064 116.258 46.679 116.429 46.679C116.74 46.679 117.018 46.7536 117.261 46.9028C117.507 47.0503 117.699 47.2524 117.838 47.5093C117.979 47.7662 118.049 48.0595 118.049 48.3893C118.049 48.7141 117.976 49.0041 117.831 49.2593C117.686 49.5129 117.487 49.7134 117.234 49.8609C116.98 50.0067 116.692 50.0796 116.369 50.0796Z" fill="#0000FF"/>
<path fill-rule="evenodd" clip-rule="evenodd" d="M27.5793 18.6825C27.1872 18.6825 26.8693 19.0004 26.8693 19.3925C26.8693 19.7846 27.1872 20.1025 27.5793 20.1025H28.5693C28.8972 20.1025 29.1593 20.3646 29.1593 20.6925V22.3225C29.1593 22.6504 28.8972 22.9125 28.5693 22.9125H21.4491C21.3473 22.9125 21.2795 22.8073 21.3217 22.7146L21.7779 21.711C21.8183 21.6219 21.8393 21.5253 21.8393 21.4275V21.4175C21.8393 21.1815 21.7177 20.9621 21.5177 20.8369C21.3176 20.7116 21.0672 20.6982 20.8549 20.8014L16.9496 22.6991C16.1692 23.0665 16.1692 24.1785 16.9496 24.5459L20.8549 26.4436C21.1146 26.5698 21.4256 26.5196 21.6324 26.3181C21.8392 26.1165 21.8974 25.8069 21.7779 25.544L21.3171 24.5304C21.275 24.4377 21.3428 24.3325 21.4446 24.3325H28.5693C29.6814 24.3325 30.5793 23.4346 30.5793 22.3225V20.6925C30.5793 19.5804 29.6814 18.6825 28.5693 18.6825H27.5793Z" fill="black"/>
<path d="M35.25 25.7501C34.8594 25.7501 34.6201 25.506 34.6201 25.0958V19.3584C34.6201 18.9482 34.8594 18.7041 35.25 18.7041H38.6827C39.0294 18.7041 39.2589 18.9092 39.2589 19.2363C39.2589 19.5634 39.0294 19.7685 38.6827 19.7685H36.0217C35.9434 19.7685 35.88 19.832 35.88 19.9102V21.5311C35.88 21.6094 35.9435 21.6728 36.0217 21.6728H38.5362C38.8585 21.6728 39.0782 21.8632 39.0782 22.1709C39.0782 22.4786 38.8634 22.6738 38.5362 22.6738H36.0217C35.9434 22.6738 35.88 22.7373 35.88 22.8155V24.5438C35.88 24.6221 35.9435 24.6855 36.0217 24.6855H38.6827C39.0294 24.6855 39.2589 24.8906 39.2589 25.2177C39.2589 25.5448 39.0294 25.7499 38.6827 25.7499H35.25V25.7501Z" fill="black"/>
<path d="M52.8614 22.548H50.7722C50.6816 22.548 50.6148 22.4642 50.6338 22.3756C50.7704 21.7369 51.242 21.4093 51.8364 21.4093C52.4308 21.4093 52.8849 21.7241 53.0011 22.3824C53.0164 22.4689 52.9493 22.548 52.8614 22.548ZM51.8316 20.4668C50.3374 20.4668 49.3853 21.5312 49.3853 23.1817C49.3853 24.8322 50.3179 25.8526 51.9 25.8526C52.7002 25.8526 53.2862 25.6748 53.7859 25.1198C54.0096 24.8714 53.9497 24.5007 53.6536 24.3422C53.4042 24.2086 53.1205 24.3367 52.9812 24.4661C52.5385 24.8775 52.2137 24.9151 51.8903 24.9151C51.1441 24.9151 50.6541 24.4304 50.6011 23.6069C50.5958 23.5248 50.6602 23.4551 50.7425 23.4551H53.6967C53.9779 23.4551 54.2073 23.2303 54.2137 22.9492C54.2464 21.5063 53.2712 20.4668 51.8316 20.4668Z" fill="black"/>
<path d="M40.3516 25.2079V21.0858C40.3516 20.7097 40.5714 20.4704 40.9328 20.4704C41.1396 20.4704 41.3086 20.5509 41.4141 20.6919C41.4397 20.7261 41.4615 20.7648 41.4792 20.8013C41.5136 20.872 41.5981 20.9021 41.6688 20.8678C41.935 20.7388 42.5543 20.4753 43.1697 20.4753C44.3126 20.4753 44.9622 21.2079 44.9622 22.4045V25.208C44.9622 25.6183 44.7131 25.8478 44.3566 25.8478C44.0001 25.8478 43.7461 25.6182 43.7461 25.208V22.6488C43.7461 21.9162 43.4042 21.5059 42.7107 21.5059C42.0172 21.5059 41.5678 22.009 41.5678 22.7513V25.208C41.5678 25.6183 41.3138 25.8478 40.9573 25.8478C40.6008 25.8478 40.3516 25.6182 40.3516 25.2079Z" fill="black"/>
<path d="M55.1992 25.2078V21.0856C55.1992 20.7046 55.4336 20.4702 55.7804 20.4702C56.014 20.4702 56.2006 20.5828 56.2932 20.7787C56.2951 20.7827 56.3015 20.7988 56.31 20.8206C56.3441 20.9081 56.4524 20.9391 56.5273 20.8824C56.7297 20.7293 57.112 20.4849 57.4899 20.4849C57.6804 20.4849 57.8269 20.5337 57.9197 20.6168C58.032 20.7096 58.0906 20.8561 58.0906 21.0564C58.0906 21.2567 58.032 21.3885 57.9099 21.4862C57.7927 21.5888 57.612 21.6425 57.3726 21.6474C56.679 21.6523 56.4153 22.087 56.4153 22.717V25.2079C56.4153 25.6084 56.1711 25.8477 55.8048 25.8477C55.4385 25.8477 55.1992 25.6083 55.1992 25.2078Z" fill="black"/>
<path d="M46.4752 24.4706V21.6543C46.4752 21.576 46.4117 21.5126 46.3335 21.5126H46.1481C45.8454 21.5126 45.6597 21.3417 45.6597 21.0487C45.6597 20.7557 45.8452 20.5897 46.1481 20.5897H46.3335C46.4118 20.5897 46.4752 20.5262 46.4752 20.448V19.885C46.4752 19.4943 46.7096 19.2501 47.0857 19.2501C47.4618 19.2501 47.6913 19.4942 47.6913 19.885V20.448C47.6913 20.5263 47.7548 20.5897 47.833 20.5897H48.2529C48.5556 20.5897 48.7413 20.7605 48.7413 21.0487C48.7413 21.3369 48.5558 21.5126 48.2529 21.5126H47.833C47.7547 21.5126 47.6913 21.5761 47.6913 21.6543V24.2069C47.6913 24.5976 47.828 24.7685 48.1797 24.7978L48.2676 24.8076C48.5899 24.8369 48.756 24.9736 48.756 25.2569C48.756 25.6133 48.4435 25.8039 47.8868 25.8039H47.838C46.9346 25.8039 46.4755 25.3546 46.4755 24.4707H46.4753L46.4752 24.4706Z" fill="black"/>
</svg>
