<svg width="81" height="54" viewBox="0 0 81 54" fill="none" xmlns="http://www.w3.org/2000/svg">
<rect x="1.8501" y="1.84998" width="77.3" height="50.3" rx="3" stroke="#8B1EFF" stroke-width="0.28"/>
<path d="M71.0066 37.0028C71.0846 27.0808 71.1916 17.1588 71.3296 7.23671C71.3196 6.87971 71.2786 6.52272 71.2033 6.17207C71.1303 5.82307 71.0243 5.48207 70.8845 5.15388C70.7465 4.82887 70.5755 4.51692 70.3758 4.22517C70.1758 3.9352 69.9478 3.66518 69.6946 3.42085C69.4416 3.17787 69.1646 2.96083 68.8691 2.77419C68.5731 2.58717 68.2581 2.42921 67.9323 2.30348C67.6063 2.17751 67.2673 2.08156 66.9235 2.01747C66.5775 1.95351 66.2275 1.91945 65.8743 1.91591C48.9603 1.82497 32.0453 1.82497 15.1315 1.91554C14.7935 1.92165 14.4565 1.95461 14.1239 2.01491C13.7919 2.07387 13.4639 2.15981 13.1493 2.27443C12.9003 2.36745 12.6573 2.47841 12.4243 2.605C12.1923 2.73305 11.9683 2.87807 11.7566 3.03871C11.5456 3.20064 11.3466 3.37862 11.1627 3.57118C10.9777 3.76521 10.8097 3.9742 10.6584 4.19405C10.5064 4.41499 10.3714 4.64803 10.2536 4.8885C10.1356 5.13155 10.0356 5.38155 9.95221 5.63875C9.78619 6.15474 9.69119 6.69673 9.67749 7.23628C9.81149 17.1583 9.91852 27.0803 9.99991 37.0014C10.0249 37.6633 10.1749 38.3273 10.4398 38.9409C10.7088 39.5659 11.0948 40.1389 11.5707 40.6232C12.0497 41.1112 12.6177 41.5102 13.2406 41.796C13.8576 42.081 14.5286 42.254 15.2024 42.3052C23.6314 42.6482 32.0664 42.8192 40.5032 42.819C48.9392 42.819 57.3742 42.648 65.8041 42.3048C66.4781 42.2537 67.1481 42.0808 67.766 41.7969C68.388 41.5099 68.957 41.1109 69.4359 40.6233C69.9109 40.1383 70.2969 39.5663 70.5673 38.9408C70.8303 38.3278 70.9823 37.6638 71.0063 37.0008" stroke="#8B1EFF" stroke-width="0.283" stroke-miterlimit="10"/>
<path d="M11.2583 38.7131V6.44019C11.2583 5.26575 12.2093 4.31372 13.3843 4.31372H16.9273H64.1312H67.6743C68.8483 4.31372 69.8003 5.26575 69.8003 6.4397V38.7127C69.8003 39.8871 68.8483 40.8391 67.6743 40.8391L13.3843 40.8392C12.2093 40.8392 11.2583 39.8871 11.2583 38.7131Z" stroke="#00FFFF" stroke-width="0.28" stroke-miterlimit="10"/>
<path d="M65.6807 41.1328C48.9367 41.8178 32.0697 41.8178 15.3267 41.1328C15.0306 41.1201 14.7386 41.0831 14.4496 41.0181C14.3046 40.9861 14.1626 40.9471 14.0226 40.9021C13.8836 40.8561 13.7456 40.8051 13.6106 40.746C13.4756 40.6881 13.3446 40.6231 13.2156 40.5521C13.1506 40.5161 13.0866 40.478 13.0226 40.4391C12.9606 40.4001 12.8986 40.3601 12.8386 40.3181C12.5966 40.1501 12.3726 39.9611 12.1696 39.7491C12.1186 39.6961 12.0686 39.642 12.0196 39.5861C11.9716 39.5311 11.9246 39.4731 11.8786 39.4151C11.7876 39.3001 11.7026 39.1801 11.6246 39.0571C11.4686 38.8111 11.3376 38.5521 11.2306 38.28C11.2046 38.2111 11.1796 38.142 11.1566 38.0731C11.1336 38.0031 11.1116 37.9331 11.0916 37.8631C11.0526 37.7231 11.0186 37.582 10.9926 37.4401C10.9396 37.1561 10.9136 36.8691 10.9126 36.577C10.8965 31.7905 10.8785 27.0025 10.8585 22.2155C10.8385 17.4285 10.8155 12.6415 10.7905 7.85347C10.7817 7.69789 10.7757 7.54189 10.7767 7.38692C10.7777 7.23091 10.7867 7.07692 10.8037 6.92293C10.8107 6.8459 10.8217 6.76888 10.8337 6.69191C10.8457 6.61488 10.8597 6.53889 10.8757 6.46193C10.9077 6.31093 10.9477 6.16188 10.9957 6.01491C11.0427 5.86891 11.0977 5.72591 11.1627 5.58492C11.1937 5.51491 11.2277 5.44588 11.2637 5.37691C11.3007 5.30891 11.3387 5.24092 11.3787 5.1739C11.5377 4.90889 11.7247 4.66689 11.9397 4.44691C11.9937 4.39192 12.0497 4.33791 12.1067 4.28688C12.1357 4.2599 12.1647 4.23488 12.1937 4.20888C12.2237 4.18391 12.2537 4.15889 12.2837 4.13393C12.4047 4.03688 12.5307 3.94588 12.6607 3.86293C12.9207 3.69691 13.1987 3.55989 13.4927 3.44893C13.7867 3.33888 14.0877 3.2599 14.3927 3.20692C14.6987 3.15388 15.0107 3.12691 15.3257 3.12587C32.0702 3.03389 48.9372 3.03389 65.6802 3.12587C65.9963 3.12697 66.3083 3.15395 66.6133 3.20692C66.9193 3.25996 67.2203 3.33894 67.5143 3.44893C67.8083 3.55995 68.0853 3.69698 68.3463 3.86293C68.4763 3.94594 68.6013 4.03596 68.7223 4.13393C68.7523 4.15895 68.7823 4.18398 68.8123 4.20894C68.8413 4.23396 68.8703 4.25996 68.9003 4.28596C68.9563 4.33797 69.0123 4.39192 69.0663 4.44698C69.2803 4.66597 69.4683 4.90895 69.6283 5.17397C69.6683 5.23994 69.7063 5.30794 69.7423 5.37697C69.7793 5.44496 69.8123 5.51497 69.8443 5.58498C69.9073 5.72493 69.9633 5.86897 70.0113 6.01497C70.0593 6.16096 70.0993 6.30995 70.1303 6.46193C70.1473 6.53798 70.1603 6.61494 70.1733 6.69093C70.1853 6.76796 70.1953 6.84492 70.2033 6.92195C70.2203 7.07594 70.2283 7.23097 70.2303 7.38594C70.2313 7.54097 70.2253 7.69698 70.2163 7.85292C70.1912 12.6401 70.1682 17.4281 70.1482 22.215C70.1272 27.0021 70.1102 31.7901 70.0942 36.5768C70.0932 36.8688 70.0662 37.1588 70.0132 37.4458C69.9862 37.5908 69.9522 37.7328 69.9122 37.8718C69.8722 38.0118 69.8262 38.1498 69.7732 38.2848C69.7202 38.4198 69.6602 38.5528 69.5942 38.6838C69.5612 38.7498 69.5262 38.8148 69.4902 38.8788C69.4522 38.9428 69.4142 39.0058 69.3752 39.0668C69.2172 39.3138 69.0362 39.5428 68.8322 39.7548C68.7822 39.8068 68.7292 39.8588 68.6752 39.9088C68.6212 39.9598 68.5662 40.0088 68.5092 40.0568C68.3962 40.1528 68.2802 40.2418 68.1592 40.3238C67.9172 40.4898 67.6612 40.6318 67.3902 40.7488C67.3232 40.7778 67.2532 40.8058 67.1842 40.8318C67.1152 40.8578 67.0452 40.8818 66.9752 40.9038C66.8352 40.9498 66.6942 40.9878 66.5512 41.0198C66.2662 41.0828 65.9752 41.1208 65.6807 41.1328Z" stroke="#FF00FF" stroke-width="0.283465" stroke-miterlimit="10" stroke-linecap="round" stroke-linejoin="round"/>
<path d="M66.4147 44.9191V50.01H65.7982V45.5654H65.7684L64.5255 46.3907V45.7643L65.7982 44.9191H66.4147ZM68.0155 50.0498C67.8929 50.0498 67.7876 50.0059 67.6998 49.918C67.612 49.8302 67.5681 49.725 67.5681 49.6023C67.5681 49.4797 67.612 49.3745 67.6998 49.2866C67.7876 49.1988 67.8929 49.1549 68.0155 49.1549C68.1381 49.1549 68.2434 49.1988 68.3312 49.2866C68.419 49.3745 68.463 49.4797 68.463 49.6023C68.463 49.6835 68.4422 49.7581 68.4008 49.8261C68.361 49.894 68.3072 49.9487 68.2392 49.9901C68.1729 50.0299 68.0984 50.0498 68.0155 50.0498ZM70.9941 50.0796C70.7025 50.0796 70.4398 50.0216 70.2061 49.9056C69.9725 49.7896 69.7852 49.6305 69.6443 49.4283C69.5035 49.2262 69.4264 48.9958 69.4132 48.7373H70.0097C70.0329 48.9676 70.1373 49.1582 70.323 49.309C70.5102 49.4582 70.7339 49.5327 70.9941 49.5327C71.2029 49.5327 71.3885 49.4838 71.5509 49.3861C71.715 49.2883 71.8434 49.1541 71.9362 48.9834C72.0307 48.811 72.0779 48.6163 72.0779 48.3992C72.0779 48.1771 72.029 47.9791 71.9313 47.8051C71.8351 47.6294 71.7026 47.4911 71.5335 47.39C71.3645 47.2889 71.1714 47.2375 70.9543 47.2359C70.7986 47.2342 70.6386 47.2582 70.4746 47.308C70.3105 47.356 70.1755 47.4182 70.0694 47.4944L69.4927 47.4248L69.8009 44.9191H72.4458V45.466H70.318L70.139 46.9674H70.1688C70.2732 46.8845 70.4042 46.8158 70.5616 46.7611C70.719 46.7064 70.8831 46.679 71.0538 46.679C71.3653 46.679 71.6429 46.7536 71.8865 46.9028C72.1318 47.0503 72.324 47.2524 72.4632 47.5093C72.6041 47.7662 72.6745 48.0595 72.6745 48.3893C72.6745 48.7141 72.6016 49.0041 72.4558 49.2593C72.3116 49.5129 72.1127 49.7134 71.8592 49.8609C71.6056 50.0067 71.3173 50.0796 70.9941 50.0796ZM75.3225 50.0796C74.948 50.0796 74.629 49.9777 74.3655 49.7739C74.102 49.5684 73.9006 49.2709 73.7614 48.8815C73.6222 48.4904 73.5526 48.0181 73.5526 47.4646C73.5526 46.9144 73.6222 46.4446 73.7614 46.0551C73.9023 45.664 74.1045 45.3657 74.368 45.1602C74.6331 44.9531 74.9513 44.8495 75.3225 44.8495C75.6937 44.8495 76.0111 44.9531 76.2746 45.1602C76.5397 45.3657 76.7419 45.664 76.8811 46.0551C77.022 46.4446 77.0924 46.9144 77.0924 47.4646C77.0924 48.0181 77.0228 48.4904 76.8836 48.8815C76.7444 49.2709 76.543 49.5684 76.2795 49.7739C76.016 49.9777 75.697 50.0796 75.3225 50.0796ZM75.3225 49.5327C75.6937 49.5327 75.9821 49.3538 76.1876 48.9958C76.3931 48.6379 76.4958 48.1274 76.4958 47.4646C76.4958 47.0237 76.4486 46.6484 76.3541 46.3385C76.2613 46.0286 76.1271 45.7924 75.9514 45.63C75.7774 45.4676 75.5678 45.3864 75.3225 45.3864C74.9546 45.3864 74.6671 45.5679 74.4599 45.9308C74.2528 46.2921 74.1492 46.8033 74.1492 47.4646C74.1492 47.9054 74.1956 48.2799 74.2884 48.5881C74.3812 48.8964 74.5146 49.1309 74.6886 49.2916C74.8643 49.4524 75.0756 49.5327 75.3225 49.5327Z" fill="#0000FF"/>
<path fill-rule="evenodd" clip-rule="evenodd" d="M30.5791 16.4825C30.187 16.4825 29.8691 16.8004 29.8691 17.1925C29.8691 17.5847 30.187 17.9025 30.5791 17.9025H32.5691C32.897 17.9025 33.1591 18.1647 33.1591 18.4925V23.3225C33.1591 23.6504 32.897 23.9125 32.5691 23.9125H25.4489C25.3471 23.9125 25.2793 23.8073 25.3214 23.7146L25.7776 22.711C25.8181 22.622 25.839 22.5253 25.839 22.4276V22.4176C25.839 22.1815 25.7175 21.9621 25.5174 21.8369C25.3174 21.7117 25.0669 21.6983 24.8546 21.8014L20.9493 23.6992C20.1689 24.0665 20.1689 25.1786 20.9493 25.5459L24.8546 27.4437C25.1143 27.5699 25.4253 27.5197 25.6321 27.3181C25.8389 27.1166 25.8971 26.807 25.7776 26.5441L25.3169 25.5305C25.2747 25.4378 25.3425 25.3325 25.4443 25.3325H32.5691C33.6812 25.3325 34.5791 24.4347 34.5791 23.3225V18.4925C34.5791 17.3804 33.6812 16.4825 32.5691 16.4825H30.5791Z" fill="black"/>
</svg>
