<svg width="122" height="54" viewBox="0 0 122 54" fill="none" xmlns="http://www.w3.org/2000/svg">
<rect x="1.85" y="1.84961" width="117.8" height="50.3" rx="3" stroke="#8B1EFF" stroke-width="0.28"/>
<path d="M109.846 40.8599C109.367 41.3589 108.792 41.7659 108.162 42.0549C107.534 42.3426 106.856 42.5136 106.173 42.5666C91.0347 43.0285 75.8917 43.2595 60.7468 43.2595C45.6019 43.2597 30.4589 43.0286 15.321 42.5666C14.6386 42.5131 13.9586 42.334 13.3347 42.048C13.0193 41.904 12.7173 41.733 12.4353 41.5339C12.152 41.3351 11.887 41.1091 11.6481 40.8591C11.4084 40.6087 11.1934 40.3366 11.0065 40.0456C10.821 39.7556 10.662 39.4496 10.531 39.1306C10.2715 38.4999 10.1185 37.8189 10.0886 37.1398L10.073 7.25555C10.0992 6.52521 10.2833 5.79327 10.5983 5.12616C10.912 4.46405 11.3561 3.8631 11.9021 3.38104C12.4451 2.90216 13.0891 2.53912 13.7741 2.2951C14.459 2.05121 15.183 1.92719 15.904 1.9201C45.7996 1.8222 75.6935 1.8222 105.59 1.9201C105.951 1.92523 106.314 1.95831 106.671 2.0202C107.027 2.08173 107.378 2.17072 107.719 2.29169C108.403 2.53363 109.046 2.90155 109.591 3.38153C110.139 3.86481 110.586 4.46173 110.899 5.12469C111.214 5.79156 111.395 6.5246 111.421 7.25555L111.405 37.1398C111.374 37.8195 111.229 38.5005 110.967 39.1326C110.703 39.7717 110.323 40.3616 109.846 40.8599Z" stroke="#8B1EFF" stroke-width="0.283" stroke-miterlimit="10"/>
<path d="M11.2351 6.23291V38.5249C11.2351 39.699 12.1871 40.651 13.3611 40.651L108.131 40.6509C109.305 40.6509 110.257 39.699 110.257 38.5249V6.2334C110.257 5.05945 109.305 4.10742 108.131 4.10742H101.753H13.361C12.187 4.10742 11.2349 5.05945 11.2351 6.23291Z" stroke="#00FFFF" stroke-width="0.28" stroke-miterlimit="10"/>
<path d="M15.1 41.2702C12.68 41.2702 10.73 39.2102 10.73 36.6802V7.62023C10.73 5.20023 12.97 3.24023 15.74 3.24023H105.79C108.54 3.24023 110.76 5.15023 110.76 7.51023L110.69 36.6902C110.69 39.2302 108.73 41.2802 106.31 41.2802C75.95 42.2402 45.48 42.2402 15.12 41.2802H15.09L15.1 41.2702Z" stroke="#FF00FF" stroke-width="0.28" stroke-linecap="round" stroke-linejoin="round"/>
<path d="M104.374 50.0098V49.5623L106.054 47.7228C106.252 47.5074 106.414 47.3201 106.542 47.161C106.669 47.0003 106.764 46.8495 106.825 46.7086C106.888 46.5661 106.919 46.417 106.919 46.2612C106.919 46.0822 106.876 45.9273 106.79 45.7963C106.706 45.6654 106.59 45.5643 106.442 45.4931C106.295 45.4218 106.129 45.3862 105.945 45.3862C105.749 45.3862 105.579 45.4268 105.433 45.508C105.289 45.5875 105.177 45.6994 105.097 45.8436C105.019 45.9877 104.98 46.1568 104.98 46.3507H104.394C104.394 46.0524 104.463 45.7905 104.6 45.5652C104.738 45.3398 104.925 45.1641 105.162 45.0382C105.401 44.9122 105.668 44.8493 105.965 44.8493C106.263 44.8493 106.527 44.9122 106.758 45.0382C106.988 45.1641 107.169 45.334 107.3 45.5478C107.431 45.7615 107.496 45.9993 107.496 46.2612C107.496 46.4484 107.462 46.6316 107.394 46.8105C107.328 46.9879 107.212 47.1859 107.046 47.4047C106.882 47.6217 106.654 47.8869 106.363 48.2001L105.219 49.4231V49.4629H107.586V50.0098H104.374ZM109.05 50.0495C108.927 50.0495 108.822 50.0056 108.734 49.9178C108.646 49.83 108.602 49.7247 108.602 49.6021C108.602 49.4795 108.646 49.3742 108.734 49.2864C108.822 49.1986 108.927 49.1547 109.05 49.1547C109.172 49.1547 109.278 49.1986 109.365 49.2864C109.453 49.3742 109.497 49.4795 109.497 49.6021C109.497 49.6833 109.476 49.7579 109.435 49.8258C109.395 49.8938 109.341 49.9484 109.273 49.9899C109.207 50.0297 109.133 50.0495 109.05 50.0495ZM110.54 50.0098V49.5623L112.22 47.7228C112.418 47.5074 112.58 47.3201 112.708 47.161C112.835 47.0003 112.93 46.8495 112.991 46.7086C113.054 46.5661 113.085 46.417 113.085 46.2612C113.085 46.0822 113.042 45.9273 112.956 45.7963C112.872 45.6654 112.756 45.5643 112.608 45.4931C112.461 45.4218 112.295 45.3862 112.111 45.3862C111.915 45.3862 111.745 45.4268 111.599 45.508C111.455 45.5875 111.343 45.6994 111.263 45.8436C111.185 45.9877 111.146 46.1568 111.146 46.3507H110.56C110.56 46.0524 110.629 45.7905 110.766 45.5652C110.904 45.3398 111.091 45.1641 111.328 45.0382C111.567 44.9122 111.834 44.8493 112.131 44.8493C112.429 44.8493 112.693 44.9122 112.924 45.0382C113.154 45.1641 113.335 45.334 113.466 45.5478C113.597 45.7615 113.662 45.9993 113.662 46.2612C113.662 46.4484 113.628 46.6316 113.56 46.8105C113.494 46.9879 113.378 47.1859 113.212 47.4047C113.048 47.6217 112.82 47.8869 112.529 48.2001L111.385 49.4231V49.4629H113.752V50.0098H110.54ZM116.369 50.0794C116.077 50.0794 115.815 50.0214 115.581 49.9054C115.347 49.7894 115.16 49.6303 115.019 49.4281C114.878 49.2259 114.801 48.9956 114.788 48.737H115.385C115.408 48.9674 115.512 49.158 115.698 49.3088C115.885 49.4579 116.109 49.5325 116.369 49.5325C116.578 49.5325 116.764 49.4836 116.926 49.3858C117.09 49.2881 117.218 49.1538 117.311 48.9831C117.406 48.8108 117.453 48.6161 117.453 48.399C117.453 48.1769 117.404 47.9789 117.306 47.8049C117.21 47.6292 117.078 47.4908 116.909 47.3897C116.74 47.2886 116.546 47.2373 116.329 47.2356C116.174 47.234 116.014 47.258 115.85 47.3077C115.686 47.3558 115.55 47.4179 115.444 47.4941L114.868 47.4245L115.176 44.9189H117.821V45.4657H115.693L115.514 46.9672H115.544C115.648 46.8843 115.779 46.8155 115.937 46.7608C116.094 46.7061 116.258 46.6788 116.429 46.6788C116.74 46.6788 117.018 46.7534 117.262 46.9025C117.507 47.05 117.699 47.2522 117.838 47.5091C117.979 47.7659 118.05 48.0592 118.05 48.389C118.05 48.7138 117.977 49.0038 117.831 49.2591C117.687 49.5126 117.488 49.7131 117.234 49.8606C116.981 50.0065 116.692 50.0794 116.369 50.0794Z" fill="#0000FF"/>
<path fill-rule="evenodd" clip-rule="evenodd" d="M27.5791 18.6826C27.187 18.6826 26.8691 19.0005 26.8691 19.3926C26.8691 19.7847 27.187 20.1026 27.5791 20.1026H28.5691C28.897 20.1026 29.1591 20.3647 29.1591 20.6926V22.3226C29.1591 22.6505 28.897 22.9126 28.5691 22.9126H21.4489C21.3471 22.9126 21.2793 22.8074 21.3214 22.7147L21.7776 21.7111C21.8181 21.6221 21.839 21.5254 21.839 21.4276V21.4176C21.839 21.1816 21.7175 20.9622 21.5174 20.837C21.3174 20.7118 21.0669 20.6984 20.8546 20.8015L16.9493 22.6992C16.1689 23.0666 16.1689 24.1786 16.9493 24.546L20.8546 26.4437C21.1143 26.5699 21.4253 26.5197 21.6321 26.3182C21.8389 26.1166 21.8971 25.8071 21.7776 25.5442L21.3169 24.5306C21.2747 24.4379 21.3425 24.3326 21.4443 24.3326H28.5691C29.6812 24.3326 30.5791 23.4347 30.5791 22.3226V20.6926C30.5791 19.5805 29.6812 18.6826 28.5691 18.6826H27.5791Z" fill="black"/>
<path d="M35.2503 25.7501C34.8597 25.7501 34.6204 25.506 34.6204 25.0958V19.3584C34.6204 18.9482 34.8597 18.7041 35.2503 18.7041H38.683C39.0297 18.7041 39.2592 18.9092 39.2592 19.2363C39.2592 19.5634 39.0297 19.7685 38.683 19.7685H36.022C35.9437 19.7685 35.8803 19.832 35.8803 19.9102V21.5311C35.8803 21.6094 35.9438 21.6728 36.022 21.6728H38.5365C38.8588 21.6728 39.0785 21.8632 39.0785 22.1709C39.0785 22.4786 38.8637 22.6738 38.5365 22.6738H36.022C35.9437 22.6738 35.8803 22.7373 35.8803 22.8155V24.5438C35.8803 24.6221 35.9438 24.6855 36.022 24.6855H38.683C39.0297 24.6855 39.2592 24.8906 39.2592 25.2177C39.2592 25.5448 39.0297 25.7499 38.683 25.7499H35.2503V25.7501Z" fill="black"/>
<path d="M52.8614 22.548H50.7722C50.6816 22.548 50.6148 22.4642 50.6338 22.3756C50.7704 21.7369 51.242 21.4093 51.8364 21.4093C52.4308 21.4093 52.8849 21.7241 53.0011 22.3824C53.0164 22.4689 52.9493 22.548 52.8614 22.548ZM51.8316 20.4668C50.3374 20.4668 49.3853 21.5312 49.3853 23.1817C49.3853 24.8322 50.3179 25.8526 51.9 25.8526C52.7002 25.8526 53.2862 25.6748 53.7859 25.1198C54.0096 24.8714 53.9497 24.5007 53.6536 24.3422C53.4042 24.2086 53.1205 24.3367 52.9812 24.4661C52.5385 24.8775 52.2137 24.9151 51.8903 24.9151C51.1441 24.9151 50.6541 24.4304 50.6011 23.6069C50.5958 23.5248 50.6602 23.4551 50.7425 23.4551H53.6967C53.9779 23.4551 54.2073 23.2303 54.2137 22.9492C54.2464 21.5063 53.2712 20.4668 51.8316 20.4668Z" fill="black"/>
<path d="M40.3511 25.2082V21.0861C40.3511 20.71 40.5709 20.4707 40.9323 20.4707C41.1391 20.4707 41.3081 20.5512 41.4136 20.6922C41.4392 20.7264 41.461 20.7651 41.4787 20.8016C41.5131 20.8723 41.5976 20.9024 41.6683 20.8681C41.9345 20.7391 42.5538 20.4756 43.1692 20.4756C44.3121 20.4756 44.9617 21.2082 44.9617 22.4048V25.2083C44.9617 25.6186 44.7126 25.8481 44.3561 25.8481C43.9996 25.8481 43.7456 25.6185 43.7456 25.2083V22.6491C43.7456 21.9165 43.4037 21.5062 42.7102 21.5062C42.0167 21.5062 41.5673 22.0093 41.5673 22.7516V25.2083C41.5673 25.6186 41.3133 25.8481 40.9568 25.8481C40.6003 25.8481 40.3511 25.6185 40.3511 25.2082Z" fill="black"/>
<path d="M55.1997 25.2073V21.0851C55.1997 20.7041 55.4341 20.4697 55.7809 20.4697C56.0145 20.4697 56.2011 20.5823 56.2937 20.7782C56.2956 20.7822 56.302 20.7983 56.3105 20.8201C56.3446 20.9076 56.4529 20.9386 56.5278 20.8819C56.7302 20.7288 57.1125 20.4844 57.4904 20.4844C57.6809 20.4844 57.8274 20.5332 57.9202 20.6163C58.0325 20.7091 58.0911 20.8556 58.0911 21.0559C58.0911 21.2562 58.0325 21.388 57.9104 21.4857C57.7932 21.5883 57.6125 21.642 57.3731 21.6469C56.6795 21.6518 56.4158 22.0865 56.4158 22.7165V25.2074C56.4158 25.6079 56.1716 25.8472 55.8053 25.8472C55.439 25.8472 55.1997 25.6078 55.1997 25.2073Z" fill="black"/>
<path d="M46.4752 24.4705V21.6542C46.4752 21.5759 46.4117 21.5125 46.3335 21.5125H46.1481C45.8454 21.5125 45.6597 21.3416 45.6597 21.0486C45.6597 20.7556 45.8452 20.5896 46.1481 20.5896H46.3335C46.4118 20.5896 46.4752 20.5261 46.4752 20.4479V19.8849C46.4752 19.4942 46.7096 19.25 47.0857 19.25C47.4618 19.25 47.6913 19.4941 47.6913 19.8849V20.4479C47.6913 20.5262 47.7548 20.5896 47.833 20.5896H48.2529C48.5556 20.5896 48.7413 20.7604 48.7413 21.0486C48.7413 21.3368 48.5558 21.5125 48.2529 21.5125H47.833C47.7547 21.5125 47.6913 21.576 47.6913 21.6542V24.2068C47.6913 24.5975 47.828 24.7684 48.1797 24.7977L48.2676 24.8075C48.5899 24.8368 48.756 24.9735 48.756 25.2568C48.756 25.6132 48.4435 25.8038 47.8868 25.8038H47.838C46.9346 25.8038 46.4755 25.3545 46.4755 24.4706H46.4753L46.4752 24.4705Z" fill="black"/>
</svg>
