<svg width="54" height="54" viewBox="0 0 54 54" fill="none" xmlns="http://www.w3.org/2000/svg">
<rect x="1.8501" y="1.84961" width="50.3" height="50.3" rx="3" stroke="#8B1EFF" stroke-width="0.28"/>
<path d="M11.4159 40.9327C10.9698 40.4187 10.6218 39.8187 10.3779 39.1807C10.1359 38.5486 9.99377 37.8777 9.96387 37.2056L9.94531 7.22314C9.96619 6.68164 10.0662 6.13867 10.2383 5.62256C10.3237 5.36511 10.4277 5.11511 10.5479 4.87305C10.668 4.6333 10.8049 4.40027 10.958 4.1792C11.1099 3.95972 11.2788 3.75171 11.4629 3.55762C11.6456 3.36548 11.8436 3.1875 12.0537 3.02539C12.2628 2.86438 12.4847 2.71936 12.7148 2.59131C12.9446 2.46338 13.1836 2.35229 13.4297 2.25928C13.5842 2.20203 13.7423 2.15002 13.9023 2.10693C14.0616 2.06311 14.2236 2.0271 14.3857 1.99707C14.549 1.96729 14.7129 1.94336 14.877 1.92627C15.042 1.90906 15.208 1.89807 15.374 1.89502C19.2509 1.86475 23.1278 1.84863 27.0049 1.84863C30.8817 1.84912 34.7596 1.86414 38.6367 1.89502C39.3231 1.90503 40.0171 2.04102 40.6592 2.29395C40.981 2.42175 41.2909 2.57874 41.583 2.76465C41.8763 2.95227 42.1514 3.16821 42.4014 3.41016C42.9058 3.89917 43.3108 4.49512 43.5918 5.14307C43.8774 5.80115 44.0394 6.51318 44.0645 7.22314L44.0469 37.2056C44.0157 37.8772 43.8767 38.5492 43.6348 39.1812C43.3896 39.8192 43.0397 40.4182 42.5938 40.9331C42.1498 41.4473 41.6078 41.8783 41.0059 42.1982C40.4106 42.5143 39.7577 42.7234 39.0947 42.8013C31.047 43.4143 22.964 43.4143 14.916 42.8013C14.2518 42.7229 13.5999 42.5118 13.006 42.1962C12.403 41.8751 11.861 41.4462 11.4159 40.9327Z" stroke="#8B1EFF" stroke-width="0.283" stroke-miterlimit="10"/>
<rect x="12.6882" y="5.46777" width="28.63" height="34.34" rx="1.46" stroke="#00FFFF" stroke-width="0.28"/>
<path d="M42.9594 36.7489C42.9584 37.0359 42.9374 37.3198 42.8964 37.6008C42.8544 37.8809 42.7934 38.1578 42.7084 38.4309C42.6863 38.4999 42.6643 38.5679 42.6393 38.6359C42.6154 38.7029 42.5894 38.7709 42.5624 38.8379C42.5083 38.9708 42.4484 39.1008 42.3833 39.2279C42.2523 39.4818 42.0994 39.7229 41.9224 39.9508C41.8783 40.0068 41.8313 40.0629 41.7843 40.1178C41.7373 40.1719 41.6884 40.2239 41.6393 40.2759C41.5413 40.3789 41.4363 40.4758 41.3294 40.5679C41.2204 40.6599 41.1073 40.7458 40.9894 40.8258C40.9303 40.8658 40.8704 40.9049 40.8084 40.9408C40.7473 40.9779 40.6844 41.0138 40.6214 41.0479C40.3683 41.1819 40.1044 41.2869 39.8323 41.3649C39.7633 41.3849 39.6944 41.4019 39.6254 41.4178C39.5553 41.4338 39.4854 41.4479 39.4153 41.4608C39.2733 41.4858 39.1324 41.5028 38.9894 41.5138C37.0055 41.6638 35.0155 41.7759 33.0176 41.8508C32.0186 41.8888 31.0166 41.9169 30.0136 41.9359C29.5126 41.9448 29.0095 41.9519 28.5076 41.9569C28.0055 41.9619 27.5045 41.9639 27.0026 41.9639C24.9976 41.9639 22.9966 41.9269 20.9986 41.8508C19.9995 41.8138 19.0005 41.7668 18.0036 41.7108C17.5055 41.6819 17.0076 41.6519 16.5105 41.6189C16.0136 41.5869 15.5166 41.5519 15.0219 41.5142C14.7368 41.4922 14.4578 41.4442 14.1858 41.3672C14.0498 41.3292 13.9158 41.2832 13.7829 41.2302C13.7168 41.2042 13.6519 41.1752 13.5858 41.1453C13.5219 41.1152 13.4568 41.0833 13.3948 41.0502C13.1438 40.9172 12.9079 40.7592 12.6908 40.5752C12.6359 40.5292 12.5818 40.4812 12.5298 40.4332C12.4778 40.3832 12.4258 40.3322 12.3759 40.2812C12.2769 40.1782 12.1829 40.0702 12.0949 39.9583C12.0069 39.8462 11.9239 39.7292 11.8468 39.6093C11.8089 39.5492 11.7719 39.4882 11.7359 39.4252C11.6989 39.3632 11.6648 39.3002 11.6319 39.2362C11.4988 38.9802 11.3919 38.7152 11.3068 38.4432C11.2638 38.3073 11.2268 38.1682 11.1949 38.0282C11.1789 37.9583 11.1638 37.8882 11.1509 37.8173C11.1378 37.7462 11.1249 37.6761 11.1149 37.6052C11.0729 37.3212 11.0529 37.0363 11.0517 36.7489C11.0297 27.017 11.0047 17.2839 10.9771 7.55188C10.9761 7.25488 11.0021 6.96289 11.0561 6.67493C11.0821 6.53088 11.1161 6.38892 11.1571 6.24792C11.1781 6.17688 11.1991 6.10693 11.224 6.03699C11.2481 5.9679 11.2731 5.89893 11.3011 5.83191C11.411 5.56091 11.547 5.30493 11.7091 5.06396C11.75 5.00391 11.792 4.94495 11.8361 4.88599C11.88 4.82788 11.9261 4.771 11.973 4.71497C12.067 4.60291 12.166 4.49695 12.271 4.39697C12.4801 4.1969 12.708 4.0199 12.9571 3.86597C13.2061 3.71191 13.4671 3.58496 13.739 3.48389C13.875 3.43298 14.0141 3.38892 14.1541 3.35095C14.2261 3.33191 14.297 3.31396 14.3681 3.29797C14.4391 3.28198 14.5121 3.26794 14.5841 3.25598C14.8721 3.20496 15.1641 3.17896 15.4589 3.17688C17.3719 3.16089 19.2908 3.1499 21.2168 3.14197C22.1798 3.13696 23.1448 3.13489 24.1109 3.13293C24.5939 3.13196 25.0758 3.13098 25.5598 3.13098C26.0419 3.12988 26.5259 3.12988 27.0078 3.12988C28.9389 3.12988 30.8649 3.13391 32.7898 3.14099C33.7528 3.1449 34.7139 3.1499 35.6748 3.15588C36.6369 3.16199 37.5949 3.16895 38.5523 3.17688C38.8473 3.17896 39.1372 3.20496 39.4232 3.25488C39.7083 3.30396 39.9883 3.37891 40.2632 3.48096C40.3323 3.50598 40.4003 3.53296 40.4683 3.56189C40.5353 3.59094 40.6012 3.62097 40.6673 3.65295C40.7982 3.71692 40.9253 3.78589 41.0482 3.86194C41.2932 4.01392 41.5222 4.18994 41.7333 4.39197C41.7873 4.44189 41.8393 4.4939 41.8882 4.547C41.9383 4.59998 41.9862 4.65491 42.0332 4.70996C42.1272 4.82092 42.2152 4.93591 42.2963 5.05591C42.3772 5.1759 42.4523 5.29993 42.5203 5.42798C42.5553 5.49292 42.5883 5.55798 42.6193 5.625C42.6503 5.69189 42.6803 5.75989 42.7083 5.82788C42.7353 5.896 42.7622 5.96497 42.7853 6.03491C42.8092 6.10498 42.8323 6.17493 42.8523 6.24597C42.8943 6.38696 42.9282 6.52991 42.9552 6.67395C43.0093 6.96191 43.0353 7.25488 43.0341 7.55225C43.0061 17.2842 42.9801 27.0172 42.9582 36.7491" stroke="#FF00FF" stroke-width="0.283465" stroke-miterlimit="10" stroke-linecap="round" stroke-linejoin="round"/>
<path d="M25.6626 48.5098V43.4189H26.2791V45.6859H28.9936V43.4189H29.6101V48.5098H28.9936V46.2328H26.2791V48.5098H25.6626ZM32.3159 48.5893C31.9712 48.5893 31.6687 48.5073 31.4085 48.3432C31.15 48.1792 30.9478 47.9496 30.802 47.6547C30.6578 47.3597 30.5857 47.015 30.5857 46.6206C30.5857 46.2228 30.6578 45.8757 30.802 45.579C30.9478 45.2824 31.15 45.052 31.4085 44.888C31.6687 44.7239 31.9712 44.6419 32.3159 44.6419C32.6605 44.6419 32.9622 44.7239 33.2207 44.888C33.4809 45.052 33.683 45.2824 33.8272 45.579C33.973 45.8757 34.046 46.2228 34.046 46.6206C34.046 47.015 33.973 47.3597 33.8272 47.6547C33.683 47.9496 33.4809 48.1792 33.2207 48.3432C32.9622 48.5073 32.6605 48.5893 32.3159 48.5893ZM32.3159 48.0623C32.5777 48.0623 32.7931 47.9952 32.9622 47.861C33.1312 47.7267 33.2563 47.5502 33.3375 47.3315C33.4187 47.1127 33.4593 46.8758 33.4593 46.6206C33.4593 46.3654 33.4187 46.1275 33.3375 45.9071C33.2563 45.6867 33.1312 45.5086 32.9622 45.3727C32.7931 45.2368 32.5777 45.1689 32.3159 45.1689C32.054 45.1689 31.8386 45.2368 31.6695 45.3727C31.5005 45.5086 31.3754 45.6867 31.2942 45.9071C31.213 46.1275 31.1724 46.3654 31.1724 46.6206C31.1724 46.8758 31.213 47.1127 31.2942 47.3315C31.3754 47.5502 31.5005 47.7267 31.6695 47.861C31.8386 47.9952 32.054 48.0623 32.3159 48.0623ZM34.9415 48.5098V44.6916H35.5082V45.2882H35.558C35.6375 45.0843 35.7659 44.9261 35.9432 44.8134C36.1206 44.699 36.3335 44.6419 36.5821 44.6419C36.834 44.6419 37.0436 44.699 37.211 44.8134C37.38 44.9261 37.5118 45.0843 37.6062 45.2882H37.646C37.7438 45.091 37.8905 44.9344 38.086 44.8184C38.2816 44.7007 38.516 44.6419 38.7895 44.6419C39.1309 44.6419 39.4101 44.7488 39.6272 44.9625C39.8443 45.1747 39.9528 45.5053 39.9528 45.9544V48.5098H39.3662V45.9544C39.3662 45.6726 39.2891 45.4713 39.135 45.3503C38.9809 45.2293 38.7994 45.1689 38.5906 45.1689C38.3222 45.1689 38.1142 45.2501 37.9667 45.4125C37.8192 45.5732 37.7455 45.777 37.7455 46.024V48.5098H37.1489V45.8947C37.1489 45.6776 37.0784 45.5028 36.9376 45.3702C36.7967 45.236 36.6152 45.1689 36.3932 45.1689C36.2407 45.1689 36.0982 45.2095 35.9656 45.2907C35.8347 45.3719 35.7286 45.4846 35.6474 45.6287C35.5679 45.7712 35.5281 45.9361 35.5281 46.1234V48.5098H34.9415ZM41.0255 48.5098V44.6916H41.6121V48.5098H41.0255ZM41.3238 44.0552C41.2094 44.0552 41.1108 44.0163 41.0279 43.9384C40.9467 43.8605 40.9061 43.7669 40.9061 43.6575C40.9061 43.5481 40.9467 43.4545 41.0279 43.3766C41.1108 43.2987 41.2094 43.2598 41.3238 43.2598C41.4381 43.2598 41.5359 43.2987 41.6171 43.3766C41.6999 43.4545 41.7414 43.5481 41.7414 43.6575C41.7414 43.7669 41.6999 43.8605 41.6171 43.9384C41.5359 44.0163 41.4381 44.0552 41.3238 44.0552ZM43.2732 46.2129V48.5098H42.6866V44.6916H43.2534V45.2882H43.3031C43.3926 45.0943 43.5284 44.9385 43.7107 44.8208C43.893 44.7015 44.1284 44.6419 44.4167 44.6419C44.6752 44.6419 44.9014 44.6949 45.0953 44.801C45.2892 44.9054 45.44 45.0645 45.5477 45.2782C45.6555 45.4904 45.7093 45.7588 45.7093 46.0836V48.5098H45.1227V46.1234C45.1227 45.8234 45.0448 45.5898 44.889 45.4224C44.7332 45.2534 44.5194 45.1689 44.2477 45.1689C44.0604 45.1689 43.893 45.2095 43.7455 45.2907C43.5997 45.3719 43.4845 45.4904 43.4 45.6461C43.3155 45.8019 43.2732 45.9908 43.2732 46.2129ZM48.3225 50.0211C48.0391 50.0211 47.7955 49.9847 47.5917 49.9118C47.3879 49.8405 47.218 49.746 47.0821 49.6284C46.9479 49.5124 46.841 49.3881 46.7614 49.2555L47.2288 48.9274C47.2818 48.997 47.3489 49.0765 47.4301 49.166C47.5113 49.2572 47.6223 49.3359 47.7632 49.4022C47.9057 49.4701 48.0922 49.5041 48.3225 49.5041C48.6307 49.5041 48.8851 49.4295 49.0856 49.2804C49.2862 49.1312 49.3864 48.8975 49.3864 48.5794V47.8038H49.3367C49.2936 47.8734 49.2323 47.9596 49.1528 48.0623C49.0749 48.1634 48.9622 48.2537 48.8147 48.3333C48.6689 48.4112 48.4717 48.4501 48.2231 48.4501C47.9148 48.4501 47.6381 48.3772 47.3928 48.2314C47.1492 48.0855 46.9562 47.8734 46.8136 47.595C46.6728 47.3166 46.6023 46.9785 46.6023 46.5808C46.6023 46.1897 46.6711 45.8491 46.8087 45.5591C46.9462 45.2675 47.1376 45.0421 47.3829 44.883C47.6281 44.7222 47.9115 44.6419 48.233 44.6419C48.4816 44.6419 48.6788 44.6833 48.8246 44.7662C48.9721 44.8474 49.0848 44.9402 49.1627 45.0446C49.2423 45.1473 49.3036 45.2318 49.3467 45.2981H49.4063V44.6916H49.9731V48.6191C49.9731 48.9473 49.8985 49.2141 49.7494 49.4196C49.6019 49.6267 49.403 49.7783 49.1528 49.8745C48.9042 49.9722 48.6274 50.0211 48.3225 50.0211ZM48.3026 47.9231C48.5379 47.9231 48.7368 47.8693 48.8992 47.7615C49.0616 47.6538 49.1851 47.4989 49.2696 47.2967C49.3541 47.0945 49.3964 46.8526 49.3964 46.5708C49.3964 46.2958 49.3549 46.053 49.2721 45.8425C49.1892 45.632 49.0666 45.4672 48.9042 45.3478C48.7418 45.2285 48.5413 45.1689 48.3026 45.1689C48.054 45.1689 47.8469 45.2318 47.6812 45.3578C47.5171 45.4837 47.3937 45.6528 47.3108 45.8649C47.2296 46.077 47.189 46.3123 47.189 46.5708C47.189 46.836 47.2304 47.0705 47.3133 47.2743C47.3978 47.4765 47.5221 47.6356 47.6861 47.7516C47.8519 47.8659 48.0574 47.9231 48.3026 47.9231Z" fill="#0000FF"/>
<path d="M32.386 38.0245H21.6143C21.0904 38.0245 20.6975 37.5963 20.6975 37.1021C20.6975 36.575 21.1231 36.1797 21.6143 36.1797H32.386C32.9099 36.1797 33.3028 36.608 33.3028 37.1021C33.3028 37.5963 32.8772 38.0245 32.386 38.0245Z" stroke="#FF00FF" stroke-width="0.28"/>
<path d="M33.9288 32.1447C33.9004 32.2349 33.9677 32.3268 34.0623 32.3268H35.9071C36.0015 32.3268 36.0689 32.2353 36.0408 32.1451L35.1234 29.2014C35.0826 29.0704 34.8974 29.0702 34.8562 29.2009L33.9288 32.1447ZM32.1534 35.8238C31.6944 35.8238 31.3784 35.5448 31.3784 35.1228C31.3784 34.9558 31.4214 34.7628 31.5274 34.4468L33.6664 28.3328C33.9274 27.5458 34.3114 27.2168 35.0124 27.2168C35.7134 27.2168 36.0914 27.5388 36.3584 28.3328L38.4854 34.4468C38.5784 34.7138 38.6214 34.9178 38.6214 35.0918C38.6214 35.5378 38.3054 35.8238 37.8214 35.8238C37.3754 35.8238 37.1144 35.5878 36.9404 35.0118L36.501 33.6692C36.4822 33.6117 36.4285 33.5728 36.3679 33.5728H33.6005C33.5402 33.5728 33.4866 33.6115 33.4676 33.6687L33.0224 35.0118C32.8484 35.5948 32.6064 35.8238 32.1534 35.8238Z" fill="black"/>
<path d="M16.644 19.9883C15.8882 19.9883 15.4399 19.5137 15.4399 18.7051V9.42383C15.4399 8.41309 15.9585 7.90332 17.022 7.90332H22.2339C22.8315 7.90332 23.2446 8.30762 23.2446 8.8877C23.2446 9.47656 22.8315 9.86328 22.2339 9.86328H17.953C17.8757 9.86328 17.813 9.92596 17.813 10.0033V13.0719C17.813 13.1492 17.8757 13.2119 17.953 13.2119H21.7856C22.4009 13.2119 22.7964 13.5898 22.7964 14.1699C22.7964 14.75 22.3921 15.1279 21.7856 15.1279H17.953C17.8757 15.1279 17.813 15.1906 17.813 15.2679V18.7051C17.813 19.5225 17.3911 19.9883 16.644 19.9883Z" fill="black"/>
</svg>
