<svg width="54" height="55" viewBox="0 0 54 55" fill="none" xmlns="http://www.w3.org/2000/svg">
<rect x="1.8501" y="2.79846" width="50.3" height="50.3" rx="3" stroke="#8B1EFF" stroke-width="0.28"/>
<path d="M11.4159 41.8812C10.9698 41.3672 10.6218 40.7672 10.3779 40.1292C10.1359 39.4971 9.99377 38.8262 9.96387 38.1541L9.94531 8.17163C9.96619 7.63013 10.0662 7.08716 10.2383 6.57104C10.3237 6.3136 10.4277 6.0636 10.5479 5.82153C10.668 5.58179 10.8049 5.34875 10.958 5.12769C11.1099 4.9082 11.2788 4.7002 11.4629 4.5061C11.6456 4.31396 11.8436 4.13599 12.0537 3.97388C12.2628 3.81287 12.4847 3.66785 12.7148 3.53979C12.9446 3.41187 13.1836 3.30078 13.4297 3.20776C13.5842 3.15051 13.7423 3.09851 13.9023 3.05542C14.0616 3.0116 14.2236 2.97559 14.3857 2.94556C14.549 2.91577 14.7129 2.89185 14.877 2.87476C15.042 2.85754 15.208 2.84656 15.374 2.84351C19.2509 2.81323 23.1278 2.79712 27.0049 2.79712C30.8817 2.79761 34.7596 2.81262 38.6367 2.84351C39.3231 2.85352 40.0171 2.9895 40.6592 3.24243C40.981 3.37024 41.2909 3.52722 41.583 3.71313C41.8763 3.90076 42.1514 4.1167 42.4014 4.35864C42.9058 4.84766 43.3108 5.4436 43.5918 6.09155C43.8774 6.74963 44.0394 7.46167 44.0645 8.17163L44.0469 38.1541C44.0157 38.8257 43.8767 39.4977 43.6348 40.1296C43.3896 40.7677 43.0397 41.3667 42.5938 41.8816C42.1498 42.3958 41.6078 42.8268 41.0059 43.1467C40.4106 43.4628 39.7577 43.6719 39.0947 43.7498C31.047 44.3628 22.964 44.3628 14.916 43.7498C14.2518 43.6714 13.5999 43.4603 13.006 43.1447C12.403 42.8236 11.861 42.3947 11.4159 41.8812Z" stroke="#8B1EFF" stroke-width="0.283" stroke-miterlimit="10"/>
<rect x="12.6882" y="6.4165" width="28.63" height="34.34" rx="1.46" stroke="#00FFFF" stroke-width="0.28"/>
<path d="M42.9594 37.6973C42.9584 37.9843 42.9374 38.2682 42.8964 38.5492C42.8544 38.8292 42.7934 39.1062 42.7084 39.3793C42.6863 39.4482 42.6643 39.5162 42.6393 39.5842C42.6154 39.6512 42.5894 39.7192 42.5624 39.7863C42.5083 39.9192 42.4484 40.0492 42.3833 40.1763C42.2523 40.4302 42.0994 40.6713 41.9224 40.8992C41.8783 40.9552 41.8313 41.0112 41.7843 41.0662C41.7373 41.1202 41.6884 41.1722 41.6393 41.2242C41.5413 41.3273 41.4363 41.4242 41.3294 41.5162C41.2204 41.6083 41.1073 41.6942 40.9894 41.7742C40.9303 41.8142 40.8704 41.8533 40.8084 41.8892C40.7473 41.9263 40.6844 41.9622 40.6214 41.9962C40.3683 42.1302 40.1044 42.2352 39.8323 42.3132C39.7633 42.3333 39.6944 42.3502 39.6254 42.3662C39.5553 42.3822 39.4854 42.3962 39.4153 42.4092C39.2733 42.4342 39.1324 42.4512 38.9894 42.4622C37.0055 42.6122 35.0155 42.7242 33.0176 42.7992C32.0186 42.8372 31.0166 42.8652 30.0136 42.8843C29.5126 42.8932 29.0095 42.9003 28.5076 42.9053C28.0055 42.9103 27.5045 42.9122 27.0026 42.9122C24.9976 42.9122 22.9966 42.8752 20.9986 42.7992C19.9995 42.7622 19.0005 42.7152 18.0036 42.6592C17.5055 42.6302 17.0076 42.6002 16.5105 42.5673C16.0136 42.5353 15.5166 42.5002 15.0219 42.4625C14.7368 42.4406 14.4578 42.3926 14.1858 42.3156C14.0498 42.2776 13.9158 42.2316 13.7829 42.1786C13.7168 42.1526 13.6519 42.1235 13.5858 42.0936C13.5219 42.0636 13.4568 42.0316 13.3948 41.9985C13.1438 41.8656 12.9079 41.7075 12.6908 41.5236C12.6359 41.4775 12.5818 41.4296 12.5298 41.3816C12.4778 41.3315 12.4258 41.2805 12.3759 41.2296C12.2769 41.1266 12.1829 41.0186 12.0949 40.9066C12.0069 40.7946 11.9239 40.6776 11.8468 40.5576C11.8089 40.4976 11.7719 40.4365 11.7359 40.3735C11.6989 40.3115 11.6648 40.2485 11.6319 40.1846C11.4988 39.9286 11.3919 39.6636 11.3068 39.3916C11.2638 39.2556 11.2268 39.1166 11.1949 38.9766C11.1789 38.9066 11.1638 38.8365 11.1509 38.7656C11.1378 38.6946 11.1249 38.6245 11.1149 38.5536C11.0729 38.2695 11.0529 37.9846 11.0517 37.6973C11.0297 27.9653 11.0047 18.2323 10.9771 8.50024C10.9761 8.20325 11.0021 7.91125 11.0561 7.62329C11.0821 7.47925 11.1161 7.33728 11.1571 7.19629C11.1781 7.12524 11.1991 7.0553 11.224 6.98535C11.2481 6.91626 11.2731 6.84729 11.3011 6.78027C11.411 6.50928 11.547 6.2533 11.7091 6.01233C11.75 5.95227 11.792 5.89331 11.8361 5.83435C11.88 5.77625 11.9261 5.71936 11.973 5.66333C12.067 5.55127 12.166 5.44531 12.271 5.34534C12.4801 5.14526 12.708 4.96826 12.9571 4.81433C13.2061 4.66028 13.4671 4.53333 13.739 4.43225C13.875 4.38135 14.0141 4.33728 14.1541 4.29932C14.2261 4.28027 14.297 4.26233 14.3681 4.24634C14.4391 4.23035 14.5121 4.21631 14.5841 4.20435C14.8721 4.15332 15.1641 4.12732 15.4589 4.12524C17.3719 4.10925 19.2908 4.09827 21.2168 4.09033C22.1798 4.08533 23.1448 4.08325 24.1109 4.0813C24.5939 4.08032 25.0758 4.07935 25.5598 4.07935C26.0419 4.07825 26.5259 4.07825 27.0078 4.07825C28.9389 4.07825 30.8649 4.08228 32.7898 4.08936C33.7528 4.09326 34.7139 4.09827 35.6748 4.10425C36.6369 4.11035 37.5949 4.11731 38.5523 4.12524C38.8473 4.12732 39.1372 4.15332 39.4232 4.20325C39.7083 4.25232 39.9883 4.32727 40.2632 4.42932C40.3323 4.45435 40.4003 4.48132 40.4683 4.51025C40.5353 4.53931 40.6012 4.56934 40.6673 4.60132C40.7982 4.66528 40.9253 4.73425 41.0482 4.8103C41.2932 4.96228 41.5222 5.13831 41.7333 5.34033C41.7873 5.39026 41.8393 5.44226 41.8882 5.49536C41.9383 5.54834 41.9862 5.60327 42.0332 5.65833C42.1272 5.76929 42.2152 5.88428 42.2963 6.00427C42.3772 6.12427 42.4523 6.24829 42.5203 6.37634C42.5553 6.44128 42.5883 6.50635 42.6193 6.57336C42.6503 6.64026 42.6803 6.70825 42.7083 6.77625C42.7353 6.84436 42.7622 6.91333 42.7853 6.98328C42.8092 7.05334 42.8323 7.12329 42.8523 7.19434C42.8943 7.33533 42.9282 7.47827 42.9552 7.62231C43.0093 7.91028 43.0353 8.20325 43.0341 8.50061C43.0061 18.2325 42.9801 27.9656 42.9582 37.6975" stroke="#FF00FF" stroke-width="0.283465" stroke-miterlimit="10" stroke-linecap="round" stroke-linejoin="round"/>
<path d="M25.6626 49.4585V44.3676H26.2791V46.6346H28.9936V44.3676H29.6101V49.4585H28.9936V47.1815H26.2791V49.4585H25.6626ZM32.3159 49.538C31.9712 49.538 31.6687 49.456 31.4085 49.2919C31.15 49.1279 30.9478 48.8984 30.802 48.6034C30.6578 48.3084 30.5857 47.9637 30.5857 47.5693C30.5857 47.1716 30.6578 46.8244 30.802 46.5277C30.9478 46.2311 31.15 46.0008 31.4085 45.8367C31.6687 45.6726 31.9712 45.5906 32.3159 45.5906C32.6605 45.5906 32.9622 45.6726 33.2207 45.8367C33.4809 46.0008 33.683 46.2311 33.8272 46.5277C33.973 46.8244 34.046 47.1716 34.046 47.5693C34.046 47.9637 33.973 48.3084 33.8272 48.6034C33.683 48.8984 33.4809 49.1279 33.2207 49.2919C32.9622 49.456 32.6605 49.538 32.3159 49.538ZM32.3159 49.0111C32.5777 49.0111 32.7931 48.9439 32.9622 48.8097C33.1312 48.6755 33.2563 48.499 33.3375 48.2802C33.4187 48.0615 33.4593 47.8245 33.4593 47.5693C33.4593 47.3141 33.4187 47.0763 33.3375 46.8559C33.2563 46.6355 33.1312 46.4573 32.9622 46.3214C32.7931 46.1855 32.5777 46.1176 32.3159 46.1176C32.054 46.1176 31.8386 46.1855 31.6695 46.3214C31.5005 46.4573 31.3754 46.6355 31.2942 46.8559C31.213 47.0763 31.1724 47.3141 31.1724 47.5693C31.1724 47.8245 31.213 48.0615 31.2942 48.2802C31.3754 48.499 31.5005 48.6755 31.6695 48.8097C31.8386 48.9439 32.054 49.0111 32.3159 49.0111ZM34.9415 49.4585V45.6403H35.5082V46.2369H35.558C35.6375 46.0331 35.7659 45.8748 35.9432 45.7621C36.1206 45.6478 36.3335 45.5906 36.5821 45.5906C36.834 45.5906 37.0436 45.6478 37.211 45.7621C37.38 45.8748 37.5118 46.0331 37.6062 46.2369H37.646C37.7438 46.0397 37.8905 45.8831 38.086 45.7671C38.2816 45.6494 38.516 45.5906 38.7895 45.5906C39.1309 45.5906 39.4101 45.6975 39.6272 45.9113C39.8443 46.1234 39.9528 46.454 39.9528 46.9031V49.4585H39.3662V46.9031C39.3662 46.6214 39.2891 46.42 39.135 46.2991C38.9809 46.1781 38.7994 46.1176 38.5906 46.1176C38.3222 46.1176 38.1142 46.1988 37.9667 46.3612C37.8192 46.5219 37.7455 46.7258 37.7455 46.9727V49.4585H37.1489V46.8434C37.1489 46.6263 37.0784 46.4515 36.9376 46.3189C36.7967 46.1847 36.6152 46.1176 36.3932 46.1176C36.2407 46.1176 36.0982 46.1582 35.9656 46.2394C35.8347 46.3206 35.7286 46.4333 35.6474 46.5775C35.5679 46.72 35.5281 46.8849 35.5281 47.0721V49.4585H34.9415ZM41.0255 49.4585V45.6403H41.6121V49.4585H41.0255ZM41.3238 45.004C41.2094 45.004 41.1108 44.965 41.0279 44.8871C40.9467 44.8092 40.9061 44.7156 40.9061 44.6062C40.9061 44.4968 40.9467 44.4032 41.0279 44.3253C41.1108 44.2474 41.2094 44.2085 41.3238 44.2085C41.4381 44.2085 41.5359 44.2474 41.6171 44.3253C41.6999 44.4032 41.7414 44.4968 41.7414 44.6062C41.7414 44.7156 41.6999 44.8092 41.6171 44.8871C41.5359 44.965 41.4381 45.004 41.3238 45.004ZM43.2732 47.1616V49.4585H42.6866V45.6403H43.2534V46.2369H43.3031C43.3926 46.043 43.5284 45.8872 43.7107 45.7696C43.893 45.6503 44.1284 45.5906 44.4167 45.5906C44.6752 45.5906 44.9014 45.6436 45.0953 45.7497C45.2892 45.8541 45.44 46.0132 45.5477 46.227C45.6555 46.4391 45.7093 46.7075 45.7093 47.0324V49.4585H45.1227V47.0721C45.1227 46.7722 45.0448 46.5385 44.889 46.3711C44.7332 46.2021 44.5194 46.1176 44.2477 46.1176C44.0604 46.1176 43.893 46.1582 43.7455 46.2394C43.5997 46.3206 43.4845 46.4391 43.4 46.5949C43.3155 46.7506 43.2732 46.9396 43.2732 47.1616ZM48.3225 50.9699C48.0391 50.9699 47.7955 50.9334 47.5917 50.8605C47.3879 50.7892 47.218 50.6948 47.0821 50.5771C46.9479 50.4611 46.841 50.3368 46.7614 50.2042L47.2288 49.8761C47.2818 49.9457 47.3489 50.0253 47.4301 50.1147C47.5113 50.2059 47.6223 50.2846 47.7632 50.3509C47.9057 50.4188 48.0922 50.4528 48.3225 50.4528C48.6307 50.4528 48.8851 50.3782 49.0856 50.2291C49.2862 50.0799 49.3864 49.8463 49.3864 49.5281V48.7525H49.3367C49.2936 48.8221 49.2323 48.9083 49.1528 49.0111C49.0749 49.1121 48.9622 49.2025 48.8147 49.282C48.6689 49.3599 48.4717 49.3988 48.2231 49.3988C47.9148 49.3988 47.6381 49.3259 47.3928 49.1801C47.1492 49.0343 46.9562 48.8221 46.8136 48.5437C46.6728 48.2653 46.6023 47.9272 46.6023 47.5295C46.6023 47.1384 46.6711 46.7979 46.8087 46.5079C46.9462 46.2162 47.1376 45.9908 47.3829 45.8317C47.6281 45.671 47.9115 45.5906 48.233 45.5906C48.4816 45.5906 48.6788 45.632 48.8246 45.7149C48.9721 45.7961 49.0848 45.8889 49.1627 45.9933C49.2423 46.096 49.3036 46.1806 49.3467 46.2468H49.4063V45.6403H49.9731V49.5679C49.9731 49.896 49.8985 50.1628 49.7494 50.3683C49.6019 50.5754 49.403 50.7271 49.1528 50.8232C48.9042 50.921 48.6274 50.9699 48.3225 50.9699ZM48.3026 48.8718C48.5379 48.8718 48.7368 48.818 48.8992 48.7103C49.0616 48.6026 49.1851 48.4476 49.2696 48.2454C49.3541 48.0432 49.3964 47.8013 49.3964 47.5196C49.3964 47.2445 49.3549 47.0017 49.2721 46.7912C49.1892 46.5808 49.0666 46.4159 48.9042 46.2966C48.7418 46.1772 48.5413 46.1176 48.3026 46.1176C48.054 46.1176 47.8469 46.1806 47.6812 46.3065C47.5171 46.4325 47.3937 46.6015 47.3108 46.8136C47.2296 47.0257 47.189 47.2611 47.189 47.5196C47.189 47.7847 47.2304 48.0192 47.3133 48.2231C47.3978 48.4252 47.5221 48.5843 47.6861 48.7003C47.8519 48.8147 48.0574 48.8718 48.3026 48.8718Z" fill="#0000FF"/>
<path d="M32.386 38.9733H21.6143C21.0904 38.9733 20.6975 38.545 20.6975 38.0508C20.6975 37.5237 21.1231 37.1284 21.6143 37.1284H32.386C32.9099 37.1284 33.3028 37.5567 33.3028 38.0508C33.3028 38.545 32.8772 38.9733 32.386 38.9733Z" stroke="#FF00FF" stroke-width="0.28"/>
<path d="M16.644 20.9363C15.8882 20.9363 15.4399 20.4617 15.4399 19.6531V10.3718C15.4399 9.36108 15.9585 8.85132 17.022 8.85132H22.2339C22.8315 8.85132 23.2446 9.25562 23.2446 9.83569C23.2446 10.4246 22.8315 10.8113 22.2339 10.8113H17.953C17.8757 10.8113 17.813 10.874 17.813 10.9513V14.0199C17.813 14.0972 17.8757 14.1599 17.953 14.1599H21.7856C22.4009 14.1599 22.7964 14.5378 22.7964 15.1179C22.7964 15.698 22.3921 16.0759 21.7856 16.0759H17.953C17.8757 16.0759 17.813 16.1386 17.813 16.2159V19.6531C17.813 20.4705 17.3911 20.9363 16.644 20.9363Z" fill="black"/>
<path fill-rule="evenodd" clip-rule="evenodd" d="M33.6518 28.6413C33.681 28.2502 33.3877 27.9096 32.9966 27.8804C32.6056 27.8512 32.265 28.1446 32.2358 28.5356C32.0043 31.6382 31.4095 33.6331 29.8184 35.5674C29.5693 35.8702 29.6129 36.3177 29.9157 36.5668C30.2186 36.8159 30.666 36.7723 30.9151 36.4695C32.7601 34.2265 33.4081 31.9073 33.6518 28.6413ZM36.3481 28.6413C36.3189 28.2503 36.6123 27.9096 37.0033 27.8804C37.3943 27.8512 37.735 28.1446 37.7642 28.5356C37.9957 31.6382 38.5905 33.6331 40.1815 35.5674C40.4306 35.8702 40.3871 36.3177 40.0842 36.5668C39.7814 36.8159 39.334 36.7723 39.0849 36.4695C37.2399 34.2265 36.5918 31.9073 36.3481 28.6413Z" fill="black"/>
</svg>
