<svg width="54" height="55" viewBox="0 0 54 55" fill="none" xmlns="http://www.w3.org/2000/svg">
<rect x="1.8501" y="2.79846" width="50.3" height="50.3" rx="3" stroke="#8B1EFF" stroke-width="0.28"/>
<path d="M11.4159 41.8812C10.9698 41.3672 10.6218 40.7672 10.3779 40.1292C10.1359 39.4971 9.99377 38.8262 9.96387 38.1541L9.94531 8.17163C9.96619 7.63013 10.0662 7.08716 10.2383 6.57104C10.3237 6.3136 10.4277 6.0636 10.5479 5.82153C10.668 5.58179 10.8049 5.34875 10.958 5.12769C11.1099 4.9082 11.2788 4.7002 11.4629 4.5061C11.6456 4.31396 11.8436 4.13599 12.0537 3.97388C12.2628 3.81287 12.4847 3.66785 12.7148 3.53979C12.9446 3.41187 13.1836 3.30078 13.4297 3.20776C13.5842 3.15051 13.7423 3.09851 13.9023 3.05542C14.0616 3.0116 14.2236 2.97559 14.3857 2.94556C14.549 2.91577 14.7129 2.89185 14.877 2.87476C15.042 2.85754 15.208 2.84656 15.374 2.84351C19.2509 2.81323 23.1278 2.79712 27.0049 2.79712C30.8817 2.79761 34.7596 2.81262 38.6367 2.84351C39.3231 2.85352 40.0171 2.9895 40.6592 3.24243C40.981 3.37024 41.2909 3.52722 41.583 3.71313C41.8763 3.90076 42.1514 4.1167 42.4014 4.35864C42.9058 4.84766 43.3108 5.4436 43.5918 6.09155C43.8774 6.74963 44.0394 7.46167 44.0645 8.17163L44.0469 38.1541C44.0157 38.8257 43.8767 39.4977 43.6348 40.1296C43.3896 40.7677 43.0397 41.3667 42.5938 41.8816C42.1498 42.3958 41.6078 42.8268 41.0059 43.1467C40.4106 43.4628 39.7577 43.6719 39.0947 43.7498C31.047 44.3628 22.964 44.3628 14.916 43.7498C14.2518 43.6714 13.5999 43.4603 13.006 43.1447C12.403 42.8236 11.861 42.3947 11.4159 41.8812Z" stroke="#8B1EFF" stroke-width="0.283" stroke-miterlimit="10"/>
<rect x="12.6882" y="6.4165" width="28.63" height="34.34" rx="1.46" stroke="#00FFFF" stroke-width="0.28"/>
<path d="M42.9594 37.6973C42.9584 37.9843 42.9374 38.2682 42.8964 38.5492C42.8544 38.8292 42.7934 39.1062 42.7084 39.3793C42.6863 39.4482 42.6643 39.5162 42.6393 39.5842C42.6154 39.6512 42.5894 39.7192 42.5624 39.7863C42.5083 39.9192 42.4484 40.0492 42.3833 40.1763C42.2523 40.4302 42.0994 40.6713 41.9224 40.8992C41.8783 40.9552 41.8313 41.0112 41.7843 41.0662C41.7373 41.1202 41.6884 41.1722 41.6393 41.2242C41.5413 41.3273 41.4363 41.4242 41.3294 41.5162C41.2204 41.6083 41.1073 41.6942 40.9894 41.7742C40.9303 41.8142 40.8704 41.8533 40.8084 41.8892C40.7473 41.9263 40.6844 41.9622 40.6214 41.9962C40.3683 42.1302 40.1044 42.2352 39.8323 42.3132C39.7633 42.3333 39.6944 42.3502 39.6254 42.3662C39.5553 42.3822 39.4854 42.3962 39.4153 42.4092C39.2733 42.4342 39.1324 42.4512 38.9894 42.4622C37.0055 42.6122 35.0155 42.7242 33.0176 42.7992C32.0186 42.8372 31.0166 42.8652 30.0136 42.8843C29.5126 42.8932 29.0095 42.9003 28.5076 42.9053C28.0055 42.9103 27.5045 42.9122 27.0026 42.9122C24.9976 42.9122 22.9966 42.8752 20.9986 42.7992C19.9995 42.7622 19.0005 42.7152 18.0036 42.6592C17.5055 42.6302 17.0076 42.6002 16.5105 42.5673C16.0136 42.5353 15.5166 42.5002 15.0219 42.4625C14.7368 42.4406 14.4578 42.3926 14.1858 42.3156C14.0498 42.2776 13.9158 42.2316 13.7829 42.1786C13.7168 42.1526 13.6519 42.1235 13.5858 42.0936C13.5219 42.0636 13.4568 42.0316 13.3948 41.9985C13.1438 41.8656 12.9079 41.7075 12.6908 41.5236C12.6359 41.4775 12.5818 41.4296 12.5298 41.3816C12.4778 41.3315 12.4258 41.2805 12.3759 41.2296C12.2769 41.1266 12.1829 41.0186 12.0949 40.9066C12.0069 40.7946 11.9239 40.6776 11.8468 40.5576C11.8089 40.4976 11.7719 40.4365 11.7359 40.3735C11.6989 40.3115 11.6648 40.2485 11.6319 40.1846C11.4988 39.9286 11.3919 39.6636 11.3068 39.3916C11.2638 39.2556 11.2268 39.1166 11.1949 38.9766C11.1789 38.9066 11.1638 38.8365 11.1509 38.7656C11.1378 38.6946 11.1249 38.6245 11.1149 38.5536C11.0729 38.2695 11.0529 37.9846 11.0517 37.6973C11.0297 27.9653 11.0047 18.2323 10.9771 8.50024C10.9761 8.20325 11.0021 7.91125 11.0561 7.62329C11.0821 7.47925 11.1161 7.33728 11.1571 7.19629C11.1781 7.12524 11.1991 7.0553 11.224 6.98535C11.2481 6.91626 11.2731 6.84729 11.3011 6.78027C11.411 6.50928 11.547 6.2533 11.7091 6.01233C11.75 5.95227 11.792 5.89331 11.8361 5.83435C11.88 5.77625 11.9261 5.71936 11.973 5.66333C12.067 5.55127 12.166 5.44531 12.271 5.34534C12.4801 5.14526 12.708 4.96826 12.9571 4.81433C13.2061 4.66028 13.4671 4.53333 13.739 4.43225C13.875 4.38135 14.0141 4.33728 14.1541 4.29932C14.2261 4.28027 14.297 4.26233 14.3681 4.24634C14.4391 4.23035 14.5121 4.21631 14.5841 4.20435C14.8721 4.15332 15.1641 4.12732 15.4589 4.12524C17.3719 4.10925 19.2908 4.09827 21.2168 4.09033C22.1798 4.08533 23.1448 4.08325 24.1109 4.0813C24.5939 4.08032 25.0758 4.07935 25.5598 4.07935C26.0419 4.07825 26.5259 4.07825 27.0078 4.07825C28.9389 4.07825 30.8649 4.08228 32.7898 4.08936C33.7528 4.09326 34.7139 4.09827 35.6748 4.10425C36.6369 4.11035 37.5949 4.11731 38.5523 4.12524C38.8473 4.12732 39.1372 4.15332 39.4232 4.20325C39.7083 4.25232 39.9883 4.32727 40.2632 4.42932C40.3323 4.45435 40.4003 4.48132 40.4683 4.51025C40.5353 4.53931 40.6012 4.56934 40.6673 4.60132C40.7982 4.66528 40.9253 4.73425 41.0482 4.8103C41.2932 4.96228 41.5222 5.13831 41.7333 5.34033C41.7873 5.39026 41.8393 5.44226 41.8882 5.49536C41.9383 5.54834 41.9862 5.60327 42.0332 5.65833C42.1272 5.76929 42.2152 5.88428 42.2963 6.00427C42.3772 6.12427 42.4523 6.24829 42.5203 6.37634C42.5553 6.44128 42.5883 6.50635 42.6193 6.57336C42.6503 6.64026 42.6803 6.70825 42.7083 6.77625C42.7353 6.84436 42.7622 6.91333 42.7853 6.98328C42.8092 7.05334 42.8323 7.12329 42.8523 7.19434C42.8943 7.33533 42.9282 7.47827 42.9552 7.62231C43.0093 7.91028 43.0353 8.20325 43.0341 8.50061C43.0061 18.2325 42.9801 27.9656 42.9582 37.6975" stroke="#FF00FF" stroke-width="0.283465" stroke-miterlimit="10" stroke-linecap="round" stroke-linejoin="round"/>
<path d="M14.9399 15.7068V13.9753C14.9399 10.6531 16.8208 8.6228 19.9585 8.6228C21.356 8.6228 22.5337 9.01831 23.3862 9.75659C24.1069 10.3455 24.5815 11.1013 24.5815 11.7341C24.5815 12.323 24.1772 12.7185 23.606 12.7185C23.2632 12.7185 23.0259 12.5867 22.771 12.2615C22.0679 11.3298 21.3208 10.6619 20.1167 10.6619C18.3062 10.6619 17.3218 11.8572 17.3218 14.072V15.698C17.3218 17.8865 18.3413 19.1169 20.1431 19.1169C21.5845 19.1169 22.5513 18.2556 22.5513 16.9724V16.3566C22.5513 16.2792 22.4886 16.2166 22.4113 16.2166H20.9517C20.3013 16.2166 19.9233 15.8914 19.9233 15.3201C19.9233 14.7488 20.2925 14.4324 20.9517 14.4324H23.3511C24.3618 14.4324 24.8101 14.8806 24.8101 15.865V16.8318C24.8101 19.3455 22.8589 21.1033 20.0552 21.1033C16.8472 21.1033 14.9399 19.0818 14.9399 15.7068Z" fill="black"/>
<path fill-rule="evenodd" clip-rule="evenodd" d="M33.6231 28.0126C33.5251 27.6329 33.7535 27.2457 34.1332 27.1477C34.5129 27.0497 34.9001 27.2781 34.9981 27.6578C35.0522 27.8676 35.1305 28.1022 35.2295 28.3559C35.2533 28.4167 35.3165 28.4523 35.381 28.4416C36.2716 28.2938 37.198 28.0925 38.3211 27.8292C38.7029 27.7398 39.0849 27.9767 39.1744 28.3585C39.2639 28.7403 39.0269 29.1223 38.6451 29.2118C37.6935 29.4348 36.872 29.616 36.0903 29.7591C35.9968 29.7762 35.9466 29.8791 35.9918 29.9626C36.0993 30.1613 36.213 30.3636 36.3319 30.5682C36.3609 30.618 36.4177 30.6448 36.4746 30.6355C37.2882 30.5026 38.1139 30.3291 39.005 30.1009C39.3848 30.0037 39.7716 30.2328 39.8689 30.6127C39.9661 30.9925 39.737 31.3793 39.3571 31.4766C38.6771 31.6507 38.0329 31.7943 37.4047 31.9132C37.3058 31.932 37.2576 32.0456 37.314 32.1289C37.8583 32.9323 38.424 33.6752 38.9332 34.2495C39.1543 34.4988 39.1722 34.8684 38.9762 35.138C38.7802 35.4076 38.4231 35.5046 38.1177 35.3711C36.9751 34.872 34.891 34.4369 33.3659 34.724C33.0262 34.7879 32.6727 34.9818 32.4476 35.2363C32.2349 35.4768 32.1725 35.7193 32.2474 35.9672C32.3208 36.21 32.5637 36.5749 33.4008 36.7557C34.2676 36.9429 35.696 36.9059 37.9345 36.3187C38.3137 36.2192 38.7019 36.446 38.8014 36.8253C38.9009 37.2046 38.674 37.5927 38.2947 37.6922C35.9614 38.3043 34.282 38.3988 33.101 38.1437C31.8905 37.8822 31.1459 37.2311 30.8881 36.3779C30.6391 35.5537 30.925 34.8144 31.384 34.2955C31.8307 33.7905 32.4726 33.4472 33.1032 33.3285C34.0547 33.1494 35.1321 33.1933 36.1354 33.3547C36.2599 33.3747 36.35 33.2338 36.2784 33.1301C36.083 32.8469 35.8901 32.5565 35.7029 32.2632C35.6737 32.2175 35.6209 32.1926 35.5671 32.1992C34.1412 32.3741 32.6952 32.4469 30.9826 32.4883C30.5906 32.4978 30.2652 32.1877 30.2557 31.7957C30.2462 31.4037 30.5563 31.0782 30.9483 31.0687C32.3267 31.0354 33.5138 30.9818 34.6482 30.8716C34.7482 30.8619 34.805 30.7529 34.7571 30.6646C34.6542 30.4753 34.5553 30.2867 34.4613 30.1001C34.4347 30.0474 34.3781 30.0167 34.3195 30.0233C33.2814 30.1401 32.19 30.1938 30.8269 30.1938C30.4348 30.1938 30.1169 29.8759 30.1169 29.4838C30.1169 29.0917 30.4348 28.7738 30.8269 28.7738C31.9072 28.7738 32.8042 28.7395 33.6429 28.6645C33.7339 28.6563 33.7921 28.5641 33.7628 28.4775C33.7084 28.3167 33.6615 28.1613 33.6231 28.0126Z" fill="black"/>
</svg>
