<svg width="54" height="55" viewBox="0 0 54 55" fill="none" xmlns="http://www.w3.org/2000/svg">
<rect x="1.84998" y="2.79846" width="50.3" height="50.3" rx="3" stroke="#8B1EFF" stroke-width="0.28"/>
<path d="M11.4159 41.8812C10.9698 41.3672 10.6218 40.7672 10.3779 40.1292C10.1359 39.4971 9.99377 38.8262 9.96387 38.1541L9.94531 8.17163C9.96619 7.63013 10.0662 7.08716 10.2383 6.57104C10.3237 6.3136 10.4277 6.0636 10.5479 5.82153C10.668 5.58179 10.8049 5.34875 10.958 5.12769C11.1099 4.9082 11.2788 4.7002 11.4629 4.5061C11.6456 4.31396 11.8436 4.13599 12.0537 3.97388C12.2628 3.81287 12.4847 3.66785 12.7148 3.53979C12.9446 3.41187 13.1836 3.30078 13.4297 3.20776C13.5842 3.15051 13.7423 3.09851 13.9023 3.05542C14.0616 3.0116 14.2236 2.97559 14.3857 2.94556C14.549 2.91577 14.7129 2.89185 14.877 2.87476C15.042 2.85754 15.208 2.84656 15.374 2.84351C19.2509 2.81323 23.1278 2.79712 27.0049 2.79712C30.8817 2.79761 34.7596 2.81262 38.6367 2.84351C39.3231 2.85352 40.0171 2.9895 40.6592 3.24243C40.981 3.37024 41.2909 3.52722 41.583 3.71313C41.8763 3.90076 42.1514 4.1167 42.4014 4.35864C42.9058 4.84766 43.3108 5.4436 43.5918 6.09155C43.8774 6.74963 44.0394 7.46167 44.0645 8.17163L44.0469 38.1541C44.0157 38.8257 43.8767 39.4977 43.6348 40.1296C43.3896 40.7677 43.0397 41.3667 42.5938 41.8816C42.1498 42.3958 41.6078 42.8268 41.0059 43.1467C40.4106 43.4628 39.7577 43.6719 39.0947 43.7498C31.047 44.3628 22.964 44.3628 14.916 43.7498C14.2518 43.6714 13.5999 43.4603 13.006 43.1447C12.403 42.8236 11.861 42.3947 11.4159 41.8812Z" stroke="#8B1EFF" stroke-width="0.283" stroke-miterlimit="10"/>
<rect x="12.6881" y="6.4165" width="28.63" height="34.34" rx="1.46" stroke="#00FFFF" stroke-width="0.28"/>
<path d="M42.9594 37.6973C42.9584 37.9843 42.9374 38.2682 42.8964 38.5492C42.8544 38.8292 42.7934 39.1062 42.7084 39.3793C42.6863 39.4482 42.6643 39.5162 42.6393 39.5842C42.6154 39.6512 42.5894 39.7192 42.5624 39.7863C42.5083 39.9192 42.4484 40.0492 42.3833 40.1763C42.2523 40.4302 42.0994 40.6713 41.9224 40.8992C41.8783 40.9552 41.8313 41.0112 41.7843 41.0662C41.7373 41.1202 41.6884 41.1722 41.6393 41.2242C41.5413 41.3273 41.4363 41.4242 41.3294 41.5162C41.2204 41.6083 41.1073 41.6942 40.9894 41.7742C40.9303 41.8142 40.8704 41.8533 40.8084 41.8892C40.7473 41.9263 40.6844 41.9622 40.6214 41.9962C40.3683 42.1302 40.1044 42.2352 39.8323 42.3132C39.7633 42.3333 39.6944 42.3502 39.6254 42.3662C39.5553 42.3822 39.4854 42.3962 39.4153 42.4092C39.2733 42.4342 39.1324 42.4512 38.9894 42.4622C37.0055 42.6122 35.0155 42.7242 33.0176 42.7992C32.0186 42.8372 31.0166 42.8652 30.0136 42.8843C29.5126 42.8932 29.0095 42.9003 28.5076 42.9053C28.0055 42.9103 27.5045 42.9122 27.0026 42.9122C24.9976 42.9122 22.9966 42.8752 20.9986 42.7992C19.9995 42.7622 19.0005 42.7152 18.0036 42.6592C17.5055 42.6302 17.0076 42.6002 16.5105 42.5673C16.0136 42.5353 15.5166 42.5002 15.0219 42.4625C14.7368 42.4406 14.4578 42.3926 14.1858 42.3156C14.0498 42.2776 13.9158 42.2316 13.7829 42.1786C13.7168 42.1526 13.6519 42.1235 13.5858 42.0936C13.5219 42.0636 13.4568 42.0316 13.3948 41.9985C13.1438 41.8656 12.9079 41.7075 12.6908 41.5236C12.6359 41.4775 12.5818 41.4296 12.5298 41.3816C12.4778 41.3315 12.4258 41.2805 12.3759 41.2296C12.2769 41.1266 12.1829 41.0186 12.0949 40.9066C12.0069 40.7946 11.9239 40.6776 11.8468 40.5576C11.8089 40.4976 11.7719 40.4365 11.7359 40.3735C11.6989 40.3115 11.6648 40.2485 11.6319 40.1846C11.4988 39.9286 11.3919 39.6636 11.3068 39.3916C11.2638 39.2556 11.2268 39.1166 11.1949 38.9766C11.1789 38.9066 11.1638 38.8365 11.1509 38.7656C11.1378 38.6946 11.1249 38.6245 11.1149 38.5536C11.0729 38.2695 11.0529 37.9846 11.0517 37.6973C11.0297 27.9653 11.0047 18.2323 10.9771 8.50024C10.9761 8.20325 11.0021 7.91125 11.0561 7.62329C11.0821 7.47925 11.1161 7.33728 11.1571 7.19629C11.1781 7.12524 11.1991 7.0553 11.224 6.98535C11.2481 6.91626 11.2731 6.84729 11.3011 6.78027C11.411 6.50928 11.547 6.2533 11.7091 6.01233C11.75 5.95227 11.792 5.89331 11.8361 5.83435C11.88 5.77625 11.9261 5.71936 11.973 5.66333C12.067 5.55127 12.166 5.44531 12.271 5.34534C12.4801 5.14526 12.708 4.96826 12.9571 4.81433C13.2061 4.66028 13.4671 4.53333 13.739 4.43225C13.875 4.38135 14.0141 4.33728 14.1541 4.29932C14.2261 4.28027 14.297 4.26233 14.3681 4.24634C14.4391 4.23035 14.5121 4.21631 14.5841 4.20435C14.8721 4.15332 15.1641 4.12732 15.4589 4.12524C17.3719 4.10925 19.2908 4.09827 21.2168 4.09033C22.1798 4.08533 23.1448 4.08325 24.1109 4.0813C24.5939 4.08032 25.0758 4.07935 25.5598 4.07935C26.0419 4.07825 26.5259 4.07825 27.0078 4.07825C28.9389 4.07825 30.8649 4.08228 32.7898 4.08936C33.7528 4.09326 34.7139 4.09827 35.6748 4.10425C36.6369 4.11035 37.5949 4.11731 38.5523 4.12524C38.8473 4.12732 39.1372 4.15332 39.4232 4.20325C39.7083 4.25232 39.9883 4.32727 40.2632 4.42932C40.3323 4.45435 40.4003 4.48132 40.4683 4.51025C40.5353 4.53931 40.6012 4.56934 40.6673 4.60132C40.7982 4.66528 40.9253 4.73425 41.0482 4.8103C41.2932 4.96228 41.5222 5.13831 41.7333 5.34033C41.7873 5.39026 41.8393 5.44226 41.8882 5.49536C41.9383 5.54834 41.9862 5.60327 42.0332 5.65833C42.1272 5.76929 42.2152 5.88428 42.2963 6.00427C42.3772 6.12427 42.4523 6.24829 42.5203 6.37634C42.5553 6.44128 42.5883 6.50635 42.6193 6.57336C42.6503 6.64026 42.6803 6.70825 42.7083 6.77625C42.7353 6.84436 42.7622 6.91333 42.7853 6.98328C42.8092 7.05334 42.8323 7.12329 42.8523 7.19434C42.8943 7.33533 42.9282 7.47827 42.9552 7.62231C43.0093 7.91028 43.0353 8.20325 43.0341 8.50061C43.0061 18.2325 42.9801 27.9656 42.9582 37.6975" stroke="#FF00FF" stroke-width="0.283465" stroke-miterlimit="10" stroke-linecap="round" stroke-linejoin="round"/>
<path d="M20.2925 10.0818C20.2925 9.23804 20.7144 8.76343 21.4702 8.76343C22.2349 8.76343 22.6743 9.23804 22.6743 10.0818V16.9812C22.6743 19.5916 21.189 21.1033 18.6313 21.1033C17.3042 21.1033 16.2407 20.7341 15.5815 20.031C15.1772 19.6091 14.9399 19.0818 14.9399 18.5544C14.9399 17.9128 15.3354 17.4998 15.9331 17.4998C16.355 17.4998 16.6099 17.6931 16.8911 18.0798C17.2866 18.6775 17.8315 19.0554 18.6313 19.0554C19.7124 19.0554 20.2925 18.3962 20.2925 17.0164V10.0818Z" fill="black"/>
<path fill-rule="evenodd" clip-rule="evenodd" d="M35.633 26.2999C36.0244 26.3231 36.3229 26.6592 36.2997 27.0507C36.2864 27.2749 36.2763 27.4948 36.2691 27.7105C36.2664 27.7915 36.3333 27.8576 36.4144 27.8541C37.633 27.8019 38.7586 27.7233 39.459 27.6291C39.8476 27.5768 40.205 27.8495 40.2573 28.2381C40.3096 28.6267 40.0369 28.9841 39.6483 29.0364C38.8925 29.1381 37.6916 29.2218 36.4011 29.2759C36.3246 29.2791 36.2647 29.3429 36.267 29.4194C36.2742 29.659 36.2842 29.8923 36.2962 30.1196C36.3003 30.1962 36.3656 30.255 36.4423 30.2513C37.6015 30.1948 38.6775 30.1128 39.3774 30.0186C39.766 29.9664 40.1234 30.239 40.1757 30.6276C40.228 31.0163 39.9553 31.3737 39.5667 31.426C38.8394 31.5238 37.7413 31.6087 36.5571 31.6673C36.4775 31.6712 36.4171 31.7406 36.4244 31.8199C36.4416 32.0062 36.4589 32.1873 36.4758 32.3635L36.4758 32.3635C36.5044 32.6623 36.5316 32.9467 36.5544 33.2173Lnan nanL36.5544 33.2173C36.5548 33.2219 36.5578 33.2258 36.5621 33.2273C37.6982 33.6319 39.0295 34.307 40.1659 35.3021C40.4609 35.5604 40.4906 36.009 40.2323 36.304C39.974 36.599 39.5254 36.6287 39.2304 36.3704C38.4745 35.7084 37.6046 35.2032 36.7858 34.8433C36.6975 34.8045 36.5986 34.8664 36.589 34.9623C36.5784 35.0698 36.564 35.1742 36.5455 35.275C36.4298 35.9049 36.1341 36.4731 35.4998 36.8154C34.5156 37.3465 33.2953 37.3562 32.3681 36.9868C31.8983 36.7997 31.4523 36.4945 31.1618 36.05C30.8588 35.5865 30.7601 35.0218 30.9232 34.4234C31.2669 33.1618 32.4324 32.7875 33.3647 32.7174C33.8858 32.6783 34.426 32.7214 34.9114 32.7985C35.003 32.813 35.0848 32.7378 35.076 32.6455L35.0642 32.5231C35.0439 32.3115 35.0226 32.09 35.0016 31.8588C34.9949 31.7851 34.9321 31.7292 34.8581 31.7311C33.5482 31.7647 32.2952 31.7596 31.4674 31.6983C31.0763 31.6693 30.7828 31.3288 30.8118 30.9378C30.8407 30.5467 31.1812 30.2532 31.5723 30.2821C32.3356 30.3387 33.5059 30.3439 34.7405 30.3137C34.8194 30.3117 34.881 30.2448 34.8769 30.166C34.8651 29.9388 34.8553 29.7051 34.8481 29.465C34.8458 29.3879 34.7819 29.3269 34.7047 29.3285C33.3541 29.3558 32.0726 29.3458 31.2576 29.2854C30.8665 29.2565 30.573 28.916 30.6019 28.5249C30.6309 28.1339 30.9714 27.8403 31.3624 27.8693C32.1408 27.9269 33.3913 27.9355 34.7094 27.9081C34.7842 27.9066 34.8444 27.8465 34.8466 27.7717C34.8543 27.5092 34.8659 27.2408 34.8822 26.9666C34.9054 26.5751 35.2416 26.2766 35.633 26.2999ZM35.195 34.4092C35.1951 34.3448 35.1503 34.2891 35.0873 34.2756C34.595 34.1695 34.0014 34.0936 33.4711 34.1334C32.7242 34.1895 32.3922 34.4334 32.2932 34.7967C32.2349 35.0107 32.2736 35.1557 32.3504 35.2732C32.4396 35.4097 32.6156 35.5569 32.8936 35.6676C33.4619 35.894 34.2402 35.8815 34.8254 35.5657C34.9758 35.4846 35.0865 35.3582 35.1489 35.0184C35.1801 34.8486 35.1944 34.6479 35.195 34.4092Z" fill="black"/>
</svg>
