<svg width="54" height="55" viewBox="0 0 54 55" fill="none" xmlns="http://www.w3.org/2000/svg">
<rect x="1.8501" y="2.79846" width="50.3" height="50.3" rx="3" stroke="#8B1EFF" stroke-width="0.28"/>
<path d="M11.4159 41.8812C10.9698 41.3672 10.6218 40.7672 10.3779 40.1292C10.1359 39.4971 9.99377 38.8262 9.96387 38.1541L9.94531 8.17163C9.96619 7.63013 10.0662 7.08716 10.2383 6.57104C10.3237 6.3136 10.4277 6.0636 10.5479 5.82153C10.668 5.58179 10.8049 5.34875 10.958 5.12769C11.1099 4.9082 11.2788 4.7002 11.4629 4.5061C11.6456 4.31396 11.8436 4.13599 12.0537 3.97388C12.2628 3.81287 12.4847 3.66785 12.7148 3.53979C12.9446 3.41187 13.1836 3.30078 13.4297 3.20776C13.5842 3.15051 13.7423 3.09851 13.9023 3.05542C14.0616 3.0116 14.2236 2.97559 14.3857 2.94556C14.549 2.91577 14.7129 2.89185 14.877 2.87476C15.042 2.85754 15.208 2.84656 15.374 2.84351C19.2509 2.81323 23.1278 2.79712 27.0049 2.79712C30.8817 2.79761 34.7596 2.81262 38.6367 2.84351C39.3231 2.85352 40.0171 2.9895 40.6592 3.24243C40.981 3.37024 41.2909 3.52722 41.583 3.71313C41.8763 3.90076 42.1514 4.1167 42.4014 4.35864C42.9058 4.84766 43.3108 5.4436 43.5918 6.09155C43.8774 6.74963 44.0394 7.46167 44.0645 8.17163L44.0469 38.1541C44.0157 38.8257 43.8767 39.4977 43.6348 40.1296C43.3896 40.7677 43.0397 41.3667 42.5938 41.8816C42.1498 42.3958 41.6078 42.8268 41.0059 43.1467C40.4106 43.4628 39.7577 43.6719 39.0947 43.7498C31.047 44.3628 22.964 44.3628 14.916 43.7498C14.2518 43.6714 13.5999 43.4603 13.006 43.1447C12.403 42.8236 11.861 42.3947 11.4159 41.8812Z" stroke="#8B1EFF" stroke-width="0.283" stroke-miterlimit="10"/>
<rect x="12.6882" y="6.4165" width="28.63" height="34.34" rx="1.46" stroke="#00FFFF" stroke-width="0.28"/>
<path d="M42.9594 37.6973C42.9584 37.9843 42.9374 38.2682 42.8964 38.5492C42.8544 38.8292 42.7934 39.1062 42.7084 39.3793C42.6863 39.4482 42.6643 39.5162 42.6393 39.5842C42.6154 39.6512 42.5894 39.7192 42.5624 39.7863C42.5083 39.9192 42.4484 40.0492 42.3833 40.1763C42.2523 40.4302 42.0994 40.6713 41.9224 40.8992C41.8783 40.9552 41.8313 41.0112 41.7843 41.0662C41.7373 41.1202 41.6884 41.1722 41.6393 41.2242C41.5413 41.3273 41.4363 41.4242 41.3294 41.5162C41.2204 41.6083 41.1073 41.6942 40.9894 41.7742C40.9303 41.8142 40.8704 41.8533 40.8084 41.8892C40.7473 41.9263 40.6844 41.9622 40.6214 41.9962C40.3683 42.1302 40.1044 42.2352 39.8323 42.3132C39.7633 42.3333 39.6944 42.3502 39.6254 42.3662C39.5553 42.3822 39.4854 42.3962 39.4153 42.4092C39.2733 42.4342 39.1324 42.4512 38.9894 42.4622C37.0055 42.6122 35.0155 42.7242 33.0176 42.7992C32.0186 42.8372 31.0166 42.8652 30.0136 42.8843C29.5126 42.8932 29.0095 42.9003 28.5076 42.9053C28.0055 42.9103 27.5045 42.9122 27.0026 42.9122C24.9976 42.9122 22.9966 42.8752 20.9986 42.7992C19.9995 42.7622 19.0005 42.7152 18.0036 42.6592C17.5055 42.6302 17.0076 42.6002 16.5105 42.5673C16.0136 42.5353 15.5166 42.5002 15.0219 42.4625C14.7368 42.4406 14.4578 42.3926 14.1858 42.3156C14.0498 42.2776 13.9158 42.2316 13.7829 42.1786C13.7168 42.1526 13.6519 42.1235 13.5858 42.0936C13.5219 42.0636 13.4568 42.0316 13.3948 41.9985C13.1438 41.8656 12.9079 41.7075 12.6908 41.5236C12.6359 41.4775 12.5818 41.4296 12.5298 41.3816C12.4778 41.3315 12.4258 41.2805 12.3759 41.2296C12.2769 41.1266 12.1829 41.0186 12.0949 40.9066C12.0069 40.7946 11.9239 40.6776 11.8468 40.5576C11.8089 40.4976 11.7719 40.4365 11.7359 40.3735C11.6989 40.3115 11.6648 40.2485 11.6319 40.1846C11.4988 39.9286 11.3919 39.6636 11.3068 39.3916C11.2638 39.2556 11.2268 39.1166 11.1949 38.9766C11.1789 38.9066 11.1638 38.8365 11.1509 38.7656C11.1378 38.6946 11.1249 38.6245 11.1149 38.5536C11.0729 38.2695 11.0529 37.9846 11.0517 37.6973C11.0297 27.9653 11.0047 18.2323 10.9771 8.50024C10.9761 8.20325 11.0021 7.91125 11.0561 7.62329C11.0821 7.47925 11.1161 7.33728 11.1571 7.19629C11.1781 7.12524 11.1991 7.0553 11.224 6.98535C11.2481 6.91626 11.2731 6.84729 11.3011 6.78027C11.411 6.50928 11.547 6.2533 11.7091 6.01233C11.75 5.95227 11.792 5.89331 11.8361 5.83435C11.88 5.77625 11.9261 5.71936 11.973 5.66333C12.067 5.55127 12.166 5.44531 12.271 5.34534C12.4801 5.14526 12.708 4.96826 12.9571 4.81433C13.2061 4.66028 13.4671 4.53333 13.739 4.43225C13.875 4.38135 14.0141 4.33728 14.1541 4.29932C14.2261 4.28027 14.297 4.26233 14.3681 4.24634C14.4391 4.23035 14.5121 4.21631 14.5841 4.20435C14.8721 4.15332 15.1641 4.12732 15.4589 4.12524C17.3719 4.10925 19.2908 4.09827 21.2168 4.09033C22.1798 4.08533 23.1448 4.08325 24.1109 4.0813C24.5939 4.08032 25.0758 4.07935 25.5598 4.07935C26.0419 4.07825 26.5259 4.07825 27.0078 4.07825C28.9389 4.07825 30.8649 4.08228 32.7898 4.08936C33.7528 4.09326 34.7139 4.09827 35.6748 4.10425C36.6369 4.11035 37.5949 4.11731 38.5523 4.12524C38.8473 4.12732 39.1372 4.15332 39.4232 4.20325C39.7083 4.25232 39.9883 4.32727 40.2632 4.42932C40.3323 4.45435 40.4003 4.48132 40.4683 4.51025C40.5353 4.53931 40.6012 4.56934 40.6673 4.60132C40.7982 4.66528 40.9253 4.73425 41.0482 4.8103C41.2932 4.96228 41.5222 5.13831 41.7333 5.34033C41.7873 5.39026 41.8393 5.44226 41.8882 5.49536C41.9383 5.54834 41.9862 5.60327 42.0332 5.65833C42.1272 5.76929 42.2152 5.88428 42.2963 6.00427C42.3772 6.12427 42.4523 6.24829 42.5203 6.37634C42.5553 6.44128 42.5883 6.50635 42.6193 6.57336C42.6503 6.64026 42.6803 6.70825 42.7083 6.77625C42.7353 6.84436 42.7622 6.91333 42.7853 6.98328C42.8092 7.05334 42.8323 7.12329 42.8523 7.19434C42.8943 7.33533 42.9282 7.47827 42.9552 7.62231C43.0093 7.91028 43.0353 8.20325 43.0341 8.50061C43.0061 18.2325 42.9801 27.9656 42.9582 37.6975" stroke="#FF00FF" stroke-width="0.283465" stroke-miterlimit="10" stroke-linecap="round" stroke-linejoin="round"/>
<path d="M31.5336 35.9606L31.9245 35.4627C31.9615 35.4156 31.9641 35.3503 31.9332 35.2991C31.5669 34.692 31.3972 33.9281 31.3972 33.0399V31.9547C31.3972 29.5796 32.7181 28.0665 35.0001 28.0665C35.8843 28.0665 36.6267 28.3012 37.1964 28.7296C37.2585 28.7762 37.347 28.768 37.3962 28.7079L37.6728 28.3704C37.7658 28.2588 37.896 28.1844 38.0511 28.1844C38.3115 28.1844 38.5286 28.4014 38.5286 28.668C38.5286 28.7921 38.4666 28.9099 38.3983 29.0029L38.0467 29.4385C38.0086 29.4857 38.0055 29.5518 38.0369 29.6037C38.4161 30.2302 38.603 31.0302 38.603 31.9547V33.0399C38.603 35.3839 37.2945 36.8846 35.0001 36.8846C34.0923 36.8846 33.3375 36.6334 32.7611 36.1926C32.6989 36.145 32.6094 36.1532 32.56 36.2141L32.253 36.5931C32.1662 36.7048 32.0297 36.7792 31.8747 36.7792C31.6143 36.7792 31.3972 36.5621 31.3972 36.2955C31.3972 36.1653 31.453 36.0536 31.5336 35.9606ZM33.0405 33.0585C33.0405 33.2798 33.061 33.4982 33.0999 33.6916C33.1217 33.8001 33.2558 33.826 33.3254 33.7399L36.2652 30.0995C36.3082 30.0464 36.3069 29.9695 36.2582 29.9217C35.9368 29.6059 35.5074 29.4432 34.9939 29.4432C33.7847 29.4432 33.0405 30.3734 33.0405 31.9361V33.0585ZM34.9939 35.5017C36.2031 35.5017 36.9535 34.615 36.9535 33.0585V31.9361C36.9535 31.6792 36.9273 31.4256 36.8749 31.2039C36.8499 31.0983 36.7184 31.0753 36.6502 31.1597L33.6855 34.8267C33.6425 34.8799 33.6438 34.9568 33.6925 35.0048C34.0206 35.328 34.4625 35.5017 34.9939 35.5017Z" fill="black"/>
<path d="M23.0425 19.8376C23.0425 20.4441 22.603 20.8484 21.979 20.8484H17.022C15.9585 20.8484 15.4399 20.3474 15.4399 19.3279V10.0466C15.4399 9.23804 15.8706 8.76343 16.6265 8.76343C17.3735 8.76343 17.813 9.23804 17.813 10.0466V18.6869C17.813 18.7642 17.8757 18.8269 17.953 18.8269H21.979C22.603 18.8269 23.0425 19.24 23.0425 19.8376Z" fill="black"/>
</svg>
