<svg width="54" height="55" viewBox="0 0 54 55" fill="none" xmlns="http://www.w3.org/2000/svg">
<rect x="1.8501" y="2.79846" width="50.3" height="50.3" rx="3" stroke="#8B1EFF" stroke-width="0.28"/>
<path d="M11.4159 41.8812C10.9698 41.3672 10.6218 40.7672 10.3779 40.1292C10.1359 39.4971 9.99377 38.8262 9.96387 38.1541L9.94531 8.17163C9.96619 7.63013 10.0662 7.08716 10.2383 6.57104C10.3237 6.3136 10.4277 6.0636 10.5479 5.82153C10.668 5.58179 10.8049 5.34875 10.958 5.12769C11.1099 4.9082 11.2788 4.7002 11.4629 4.5061C11.6456 4.31396 11.8436 4.13599 12.0537 3.97388C12.2628 3.81287 12.4847 3.66785 12.7148 3.53979C12.9446 3.41187 13.1836 3.30078 13.4297 3.20776C13.5842 3.15051 13.7423 3.09851 13.9023 3.05542C14.0616 3.0116 14.2236 2.97559 14.3857 2.94556C14.549 2.91577 14.7129 2.89185 14.877 2.87476C15.042 2.85754 15.208 2.84656 15.374 2.84351C19.2509 2.81323 23.1278 2.79712 27.0049 2.79712C30.8817 2.79761 34.7596 2.81262 38.6367 2.84351C39.3231 2.85352 40.0171 2.9895 40.6592 3.24243C40.981 3.37024 41.2909 3.52722 41.583 3.71313C41.8763 3.90076 42.1514 4.1167 42.4014 4.35864C42.9058 4.84766 43.3108 5.4436 43.5918 6.09155C43.8774 6.74963 44.0394 7.46167 44.0645 8.17163L44.0469 38.1541C44.0157 38.8257 43.8767 39.4977 43.6348 40.1296C43.3896 40.7677 43.0397 41.3667 42.5938 41.8816C42.1498 42.3958 41.6078 42.8268 41.0059 43.1467C40.4106 43.4628 39.7577 43.6719 39.0947 43.7498C31.047 44.3628 22.964 44.3628 14.916 43.7498C14.2518 43.6714 13.5999 43.4603 13.006 43.1447C12.403 42.8236 11.861 42.3947 11.4159 41.8812Z" stroke="#8B1EFF" stroke-width="0.283" stroke-miterlimit="10"/>
<rect x="12.6882" y="6.4165" width="28.63" height="34.34" rx="1.46" stroke="#00FFFF" stroke-width="0.28"/>
<path d="M42.9594 37.6973C42.9584 37.9843 42.9374 38.2682 42.8964 38.5492C42.8544 38.8292 42.7934 39.1062 42.7084 39.3793C42.6863 39.4482 42.6643 39.5162 42.6393 39.5842C42.6154 39.6512 42.5894 39.7192 42.5624 39.7863C42.5083 39.9192 42.4484 40.0492 42.3833 40.1763C42.2523 40.4302 42.0994 40.6713 41.9224 40.8992C41.8783 40.9552 41.8313 41.0112 41.7843 41.0662C41.7373 41.1202 41.6884 41.1722 41.6393 41.2242C41.5413 41.3273 41.4363 41.4242 41.3294 41.5162C41.2204 41.6083 41.1073 41.6942 40.9894 41.7742C40.9303 41.8142 40.8704 41.8533 40.8084 41.8892C40.7473 41.9263 40.6844 41.9622 40.6214 41.9962C40.3683 42.1302 40.1044 42.2352 39.8323 42.3132C39.7633 42.3333 39.6944 42.3502 39.6254 42.3662C39.5553 42.3822 39.4854 42.3962 39.4153 42.4092C39.2733 42.4342 39.1324 42.4512 38.9894 42.4622C37.0055 42.6122 35.0155 42.7242 33.0176 42.7992C32.0186 42.8372 31.0166 42.8652 30.0136 42.8843C29.5126 42.8932 29.0095 42.9003 28.5076 42.9053C28.0055 42.9103 27.5045 42.9122 27.0026 42.9122C24.9976 42.9122 22.9966 42.8752 20.9986 42.7992C19.9995 42.7622 19.0005 42.7152 18.0036 42.6592C17.5055 42.6302 17.0076 42.6002 16.5105 42.5673C16.0136 42.5353 15.5166 42.5002 15.0219 42.4625C14.7368 42.4406 14.4578 42.3926 14.1858 42.3156C14.0498 42.2776 13.9158 42.2316 13.7829 42.1786C13.7168 42.1526 13.6519 42.1235 13.5858 42.0936C13.5219 42.0636 13.4568 42.0316 13.3948 41.9985C13.1438 41.8656 12.9079 41.7075 12.6908 41.5236C12.6359 41.4775 12.5818 41.4296 12.5298 41.3816C12.4778 41.3315 12.4258 41.2805 12.3759 41.2296C12.2769 41.1266 12.1829 41.0186 12.0949 40.9066C12.0069 40.7946 11.9239 40.6776 11.8468 40.5576C11.8089 40.4976 11.7719 40.4365 11.7359 40.3735C11.6989 40.3115 11.6648 40.2485 11.6319 40.1846C11.4988 39.9286 11.3919 39.6636 11.3068 39.3916C11.2638 39.2556 11.2268 39.1166 11.1949 38.9766C11.1789 38.9066 11.1638 38.8365 11.1509 38.7656C11.1378 38.6946 11.1249 38.6245 11.1149 38.5536C11.0729 38.2695 11.0529 37.9846 11.0517 37.6973C11.0297 27.9653 11.0047 18.2323 10.9771 8.50024C10.9761 8.20325 11.0021 7.91125 11.0561 7.62329C11.0821 7.47925 11.1161 7.33728 11.1571 7.19629C11.1781 7.12524 11.1991 7.0553 11.224 6.98535C11.2481 6.91626 11.2731 6.84729 11.3011 6.78027C11.411 6.50928 11.547 6.2533 11.7091 6.01233C11.75 5.95227 11.792 5.89331 11.8361 5.83435C11.88 5.77625 11.9261 5.71936 11.973 5.66333C12.067 5.55127 12.166 5.44531 12.271 5.34534C12.4801 5.14526 12.708 4.96826 12.9571 4.81433C13.2061 4.66028 13.4671 4.53333 13.739 4.43225C13.875 4.38135 14.0141 4.33728 14.1541 4.29932C14.2261 4.28027 14.297 4.26233 14.3681 4.24634C14.4391 4.23035 14.5121 4.21631 14.5841 4.20435C14.8721 4.15332 15.1641 4.12732 15.4589 4.12524C17.3719 4.10925 19.2908 4.09827 21.2168 4.09033C22.1798 4.08533 23.1448 4.08325 24.1109 4.0813C24.5939 4.08032 25.0758 4.07935 25.5598 4.07935C26.0419 4.07825 26.5259 4.07825 27.0078 4.07825C28.9389 4.07825 30.8649 4.08228 32.7898 4.08936C33.7528 4.09326 34.7139 4.09827 35.6748 4.10425C36.6369 4.11035 37.5949 4.11731 38.5523 4.12524C38.8473 4.12732 39.1372 4.15332 39.4232 4.20325C39.7083 4.25232 39.9883 4.32727 40.2632 4.42932C40.3323 4.45435 40.4003 4.48132 40.4683 4.51025C40.5353 4.53931 40.6012 4.56934 40.6673 4.60132C40.7982 4.66528 40.9253 4.73425 41.0482 4.8103C41.2932 4.96228 41.5222 5.13831 41.7333 5.34033C41.7873 5.39026 41.8393 5.44226 41.8882 5.49536C41.9383 5.54834 41.9862 5.60327 42.0332 5.65833C42.1272 5.76929 42.2152 5.88428 42.2963 6.00427C42.3772 6.12427 42.4523 6.24829 42.5203 6.37634C42.5553 6.44128 42.5883 6.50635 42.6193 6.57336C42.6503 6.64026 42.6803 6.70825 42.7083 6.77625C42.7353 6.84436 42.7622 6.91333 42.7853 6.98328C42.8092 7.05334 42.8323 7.12329 42.8523 7.19434C42.8943 7.33533 42.9282 7.47827 42.9552 7.62231C43.0093 7.91028 43.0353 8.20325 43.0341 8.50061C43.0061 18.2325 42.9801 27.9656 42.9582 37.6975" stroke="#FF00FF" stroke-width="0.283465" stroke-miterlimit="10" stroke-linecap="round" stroke-linejoin="round"/>
<path d="M34.3674 32.178C34.3674 31.8307 34.5349 31.6571 35.0372 31.4896C35.8123 31.254 36.172 30.8633 36.172 30.2494C36.172 29.5115 35.6511 29.0526 34.8139 29.0526C33.9271 29.0526 33.4559 29.5611 33.4559 30.5222V35.8615C33.4559 36.432 33.152 36.7606 32.6249 36.7606C32.104 36.7606 31.825 36.4382 31.825 35.8615V30.206C31.825 28.6805 32.9598 27.7379 34.8077 27.7379C36.5937 27.7379 37.7719 28.6371 37.7719 30.0013C37.7719 30.9563 37.0897 31.8493 36.2898 31.9547V32.0539C37.6106 32.0663 38.5594 33.0089 38.5594 34.2988C38.5594 35.7808 37.3502 36.7916 35.5767 36.7916C35.1488 36.7916 34.8263 36.7296 34.6093 36.6118C34.386 36.494 34.2744 36.3141 34.2744 36.0723C34.2744 35.7994 34.417 35.6196 34.6775 35.5576C34.8325 35.5204 35.0124 35.5328 35.31 35.5204C36.2898 35.4956 36.8913 34.9871 36.8913 34.1933C36.8913 33.3996 36.3704 33.0089 35.1426 32.8787C34.6341 32.8353 34.3674 32.5934 34.3674 32.178Z" fill="black"/>
<path d="M34.9573 19.0926C35.6273 19.0926 36.0273 18.7526 36.0273 18.2526C36.0273 17.7026 35.4873 17.5226 34.3873 17.2126C33.1873 16.8726 32.4673 16.3826 32.4673 15.3726C32.4673 14.6626 32.8273 14.2026 33.3373 13.8826C33.4273 13.8326 33.4173 13.7026 33.3373 13.6426C32.8173 13.2826 32.5273 12.8026 32.5273 12.1326C32.5273 10.8726 33.6273 10.0726 35.0373 10.0726C35.6673 10.0726 36.2773 10.2426 36.7273 10.5426C37.1273 10.7926 37.3773 11.1326 37.3673 11.4826C37.3573 11.8326 37.0573 12.0626 36.7273 12.0426C36.5273 12.0226 36.3773 11.9326 36.1373 11.7126C35.7673 11.3826 35.4673 11.2226 35.0373 11.2226C34.4073 11.2226 34.0073 11.5726 34.0073 12.0526C34.0073 12.6026 34.5873 12.8126 35.6173 13.1026C36.8973 13.4526 37.5673 13.8926 37.5673 14.9226C37.5673 15.6126 37.2373 16.1226 36.7473 16.5026C36.6673 16.5626 36.6773 16.6826 36.7473 16.7326C37.2673 17.0926 37.5173 17.5026 37.5173 18.1326C37.5173 19.4626 36.3673 20.2626 34.9573 20.2626C34.4273 20.2626 33.8673 20.1426 33.4473 19.9226C32.9073 19.6626 32.5473 19.2526 32.5473 18.8326C32.5473 18.4826 32.8473 18.2326 33.1873 18.2526C33.3873 18.2626 33.5273 18.3526 33.7673 18.5826C34.0973 18.9226 34.4673 19.1026 34.9473 19.1026L34.9573 19.0926ZM35.0173 16.1126C35.0173 16.1126 35.2573 16.1726 35.3873 16.2026C35.4573 16.2226 35.5373 16.2026 35.5973 16.1726C35.8973 15.9926 36.1173 15.6226 36.1173 15.2326C36.1173 14.7026 35.7373 14.4026 34.9873 14.2426C34.9573 14.2426 34.7773 14.2026 34.6673 14.1726C34.6073 14.1626 34.5473 14.1726 34.4973 14.1926C34.1673 14.3526 33.9073 14.7726 33.9073 15.1526C33.9073 15.6526 34.2673 15.9426 35.0173 16.1226V16.1126Z" fill="black"/>
<path d="M14.9399 18.3787C14.9399 17.781 15.353 17.3591 15.8892 17.3591C16.2847 17.3591 16.6099 17.5261 17.0317 17.9832C17.7085 18.7654 18.605 19.1697 19.6509 19.1697C21.0571 19.1697 21.8569 18.6072 21.8569 17.6316C21.8569 16.823 21.2944 16.322 19.9937 16.0144L18.2007 15.575C16.1353 15.1003 15.1069 14.0017 15.1069 12.2615C15.1069 10.0554 16.8472 8.6228 19.519 8.6228C20.9517 8.6228 22.2349 9.03589 23.0259 9.76538C23.5708 10.2576 23.8608 10.8201 23.8608 11.3738C23.8608 11.9275 23.4741 12.3054 22.9028 12.3054C22.5337 12.3054 22.2173 12.1472 21.936 11.7957C21.3999 10.9958 20.5913 10.5476 19.5542 10.5476C18.3062 10.5476 17.5063 11.1453 17.5063 12.0769C17.5063 12.824 18.0513 13.3513 19.1675 13.6062L20.9692 14.0369C23.1665 14.5378 24.2036 15.6013 24.2036 17.3679C24.2036 19.6531 22.3843 21.1033 19.519 21.1033C17.9634 21.1033 16.5835 20.6726 15.7925 19.9255C15.2388 19.4158 14.9399 18.8796 14.9399 18.3787Z" fill="black"/>
</svg>
