<svg width="82" height="54" viewBox="0 0 82 54" fill="none" xmlns="http://www.w3.org/2000/svg">
<rect x="2.1001" y="1.84998" width="77.3" height="50.3" rx="3" stroke="#8B1EFF" stroke-width="0.28"/>
<path d="M71.2568 37.0027C71.3348 27.0807 71.4419 17.1587 71.5798 7.23665C71.5699 6.87965 71.5288 6.52266 71.4535 6.17201C71.3805 5.82301 71.2745 5.48201 71.1347 5.15382C70.9967 4.82881 70.8257 4.51686 70.626 4.22511C70.426 3.93513 70.198 3.66512 69.9449 3.42079C69.6919 3.17781 69.4149 2.96077 69.1193 2.77412C68.8233 2.58711 68.5083 2.42915 68.1825 2.30342C67.8565 2.17744 67.5175 2.0815 67.1737 2.01741C66.8277 1.95345 66.4778 1.91939 66.1245 1.91585C49.2105 1.82491 32.2955 1.82491 15.3817 1.91548C15.0437 1.92159 14.7067 1.95454 14.3741 2.01485C14.0421 2.07381 13.7141 2.15974 13.3995 2.27437C13.1505 2.36739 12.9075 2.47835 12.6746 2.60493C12.4425 2.73299 12.2185 2.87801 12.0068 3.03865C11.7958 3.20058 11.5968 3.37856 11.413 3.57112C11.2279 3.76515 11.0599 3.97414 10.9087 4.19398C10.7567 4.41493 10.6216 4.64796 10.5038 4.88844C10.3858 5.13149 10.2858 5.38149 10.2025 5.63869C10.0364 6.15468 9.94144 6.69667 9.92773 7.23622C10.0617 17.1582 10.1688 27.0802 10.2502 37.0013C10.2751 37.6633 10.4251 38.3273 10.69 38.9409C10.959 39.5659 11.345 40.1389 11.821 40.6231C12.3 41.1111 12.868 41.5101 13.4908 41.796C14.1078 42.0809 14.7788 42.254 15.4526 42.3051C23.8817 42.6481 32.3167 42.8191 40.7534 42.819C49.1894 42.819 57.6244 42.648 66.0544 42.3047C66.7283 42.2537 67.3983 42.0807 68.0162 41.7968C68.6382 41.5098 69.2072 41.1109 69.6861 40.6232C70.1611 40.1383 70.5471 39.5662 70.8175 38.9408C71.0805 38.3278 71.2325 37.6638 71.2566 37.0007" stroke="#8B1EFF" stroke-width="0.283" stroke-miterlimit="10"/>
<path d="M11.5083 38.7131V6.44019C11.5083 5.26575 12.4593 4.31372 13.6343 4.31372H17.1773H64.3812H67.9243C69.0983 4.31372 70.0503 5.26575 70.0503 6.4397V38.7127C70.0503 39.8871 69.0983 40.8391 67.9243 40.8391L13.6343 40.8392C12.4593 40.8392 11.5083 39.8871 11.5083 38.7131Z" stroke="#00FFFF" stroke-width="0.28" stroke-miterlimit="10"/>
<path d="M65.9305 41.1327C49.1865 41.8178 32.3195 41.8178 15.5765 41.1327C15.2804 41.12 14.9884 41.083 14.6994 41.018C14.5544 40.986 14.4124 40.947 14.2724 40.902C14.1333 40.856 13.9953 40.805 13.8604 40.746C13.7254 40.688 13.5943 40.623 13.4654 40.552C13.4003 40.516 13.3364 40.478 13.2724 40.439C13.2103 40.4 13.1484 40.36 13.0884 40.318C12.8464 40.15 12.6224 39.961 12.4194 39.749C12.3684 39.696 12.3183 39.642 12.2694 39.586C12.2214 39.531 12.1744 39.473 12.1283 39.415C12.0374 39.3 11.9523 39.18 11.8743 39.057C11.7184 38.811 11.5874 38.552 11.4804 38.28C11.4544 38.211 11.4294 38.142 11.4064 38.073C11.3833 38.003 11.3613 37.933 11.3414 37.863C11.3024 37.723 11.2684 37.582 11.2424 37.44C11.1893 37.156 11.1633 36.869 11.1624 36.577C11.1463 31.7904 11.1283 27.0025 11.1083 22.2155C11.0882 17.4284 11.0653 12.6414 11.0403 7.85341C11.0315 7.69783 11.0255 7.54182 11.0265 7.38686C11.0275 7.23085 11.0365 7.07686 11.0535 6.92287C11.0605 6.84584 11.0715 6.76881 11.0835 6.69185C11.0955 6.61482 11.1095 6.53883 11.1255 6.46187C11.1575 6.31087 11.1975 6.16182 11.2455 6.01485C11.2925 5.86885 11.3475 5.72585 11.4125 5.58485C11.4435 5.51485 11.4775 5.44582 11.5135 5.37685C11.5505 5.30885 11.5885 5.24086 11.6285 5.17384C11.7875 4.90883 11.9745 4.66682 12.1895 4.44685C12.2435 4.39186 12.2995 4.33784 12.3565 4.28682C12.3855 4.25984 12.4145 4.23482 12.4435 4.20882C12.4735 4.18385 12.5035 4.15883 12.5335 4.13387C12.6545 4.03682 12.7805 3.94582 12.9105 3.86287C13.1705 3.69685 13.4485 3.55983 13.7425 3.44887C14.0365 3.33882 14.3375 3.25984 14.6425 3.20686C14.9485 3.15382 15.2605 3.12685 15.5755 3.12581C32.32 3.03383 49.187 3.03383 65.93 3.12581C66.2461 3.12691 66.5581 3.15388 66.8631 3.20686C67.1691 3.2599 67.4701 3.33888 67.7641 3.44887C68.0581 3.55989 68.3351 3.69691 68.5961 3.86287C68.7261 3.94588 68.8511 4.0359 68.9721 4.13387C69.0021 4.15889 69.0321 4.18391 69.0621 4.20888C69.0911 4.2339 69.1201 4.2599 69.1501 4.2859C69.2061 4.33791 69.2621 4.39186 69.3161 4.44691C69.5301 4.66591 69.7181 4.90889 69.8781 5.1739C69.9181 5.23988 69.9561 5.30788 69.9921 5.37691C70.0291 5.4449 70.0621 5.51491 70.0941 5.58492C70.1571 5.72487 70.2131 5.86891 70.2611 6.01491C70.3091 6.1609 70.3491 6.30989 70.3801 6.46187C70.3971 6.53792 70.4101 6.61488 70.4231 6.69087C70.4351 6.7679 70.4451 6.84486 70.4531 6.92189C70.4701 7.07588 70.4781 7.23091 70.4801 7.38588C70.4811 7.54091 70.4751 7.69691 70.4661 7.85286C70.441 12.64 70.418 17.428 70.398 22.215C70.377 27.002 70.36 31.79 70.344 36.5767C70.343 36.8687 70.316 37.1587 70.263 37.4458C70.236 37.5907 70.202 37.7327 70.162 37.8717C70.122 38.0117 70.076 38.1497 70.023 38.2847C69.97 38.4198 69.91 38.5527 69.844 38.6837C69.811 38.7497 69.776 38.8147 69.74 38.8787C69.702 38.9428 69.664 39.0058 69.625 39.0667C69.467 39.3137 69.286 39.5427 69.082 39.7547C69.032 39.8067 68.979 39.8587 68.925 39.9087C68.871 39.9597 68.816 40.0087 68.759 40.0567C68.646 40.1527 68.53 40.2417 68.409 40.3237C68.167 40.4898 67.911 40.6317 67.64 40.7487C67.573 40.7777 67.503 40.8057 67.434 40.8317C67.365 40.8577 67.295 40.8817 67.225 40.9038C67.085 40.9497 66.944 40.9877 66.801 41.0197C66.516 41.0827 66.225 41.1207 65.9305 41.1327Z" stroke="#FF00FF" stroke-width="0.283465" stroke-miterlimit="10" stroke-linecap="round" stroke-linejoin="round"/>
<path d="M67.1547 44.9091V50H66.5382V45.5554H66.5083L65.2654 46.3807V45.7543L66.5382 44.9091H67.1547ZM68.7555 50.0398C68.6329 50.0398 68.5276 49.9959 68.4398 49.908C68.352 49.8202 68.3081 49.715 68.3081 49.5923C68.3081 49.4697 68.352 49.3645 68.4398 49.2766C68.5276 49.1888 68.6329 49.1449 68.7555 49.1449C68.8781 49.1449 68.9834 49.1888 69.0712 49.2766C69.159 49.3645 69.2029 49.4697 69.2029 49.5923C69.2029 49.6735 69.1822 49.7481 69.1408 49.8161C69.101 49.884 69.0472 49.9387 68.9792 49.9801C68.9129 50.0199 68.8384 50.0398 68.7555 50.0398ZM71.7341 50.0696C71.4424 50.0696 71.1798 50.0116 70.9461 49.8956C70.7124 49.7796 70.5252 49.6205 70.3843 49.4183C70.2435 49.2161 70.1664 48.9858 70.1531 48.7273H70.7497C70.7729 48.9576 70.8773 49.1482 71.0629 49.299C71.2502 49.4482 71.4739 49.5227 71.7341 49.5227C71.9429 49.5227 72.1285 49.4738 72.2909 49.3761C72.455 49.2783 72.5834 49.1441 72.6762 48.9734C72.7707 48.801 72.8179 48.6063 72.8179 48.3892C72.8179 48.1671 72.769 47.9691 72.6713 47.7951C72.5751 47.6194 72.4426 47.4811 72.2735 47.38C72.1045 47.2789 71.9114 47.2275 71.6943 47.2259C71.5386 47.2242 71.3786 47.2482 71.2146 47.2979C71.0505 47.346 70.9155 47.4081 70.8094 47.4844L70.2327 47.4148L70.5409 44.9091H73.1858V45.456H71.058L70.879 46.9574H70.9088C71.0132 46.8745 71.1441 46.8058 71.3016 46.7511C71.459 46.6964 71.6231 46.669 71.7938 46.669C72.1053 46.669 72.3829 46.7436 72.6265 46.8928C72.8718 47.0402 73.064 47.2424 73.2032 47.4993C73.3441 47.7562 73.4145 48.0495 73.4145 48.3793C73.4145 48.7041 73.3416 48.9941 73.1958 49.2493C73.0516 49.5028 72.8527 49.7034 72.5992 49.8509C72.3456 49.9967 72.0573 50.0696 71.7341 50.0696ZM76.0625 50.0696C75.688 50.0696 75.369 49.9677 75.1055 49.7638C74.842 49.5584 74.6406 49.2609 74.5014 48.8714C74.3622 48.4804 74.2926 48.008 74.2926 47.4545C74.2926 46.9044 74.3622 46.4345 74.5014 46.0451C74.6423 45.654 74.8445 45.3557 75.108 45.1502C75.3731 44.9431 75.6913 44.8395 76.0625 44.8395C76.4337 44.8395 76.7511 44.9431 77.0146 45.1502C77.2797 45.3557 77.4819 45.654 77.6211 46.0451C77.762 46.4345 77.8324 46.9044 77.8324 47.4545C77.8324 48.008 77.7628 48.4804 77.6236 48.8714C77.4844 49.2609 77.283 49.5584 77.0195 49.7638C76.756 49.9677 76.437 50.0696 76.0625 50.0696ZM76.0625 49.5227C76.4337 49.5227 76.7221 49.3437 76.9276 48.9858C77.133 48.6278 77.2358 48.1174 77.2358 47.4545C77.2358 47.0137 77.1886 46.6384 77.0941 46.3285C77.0013 46.0186 76.8671 45.7824 76.6914 45.62C76.5174 45.4576 76.3078 45.3764 76.0625 45.3764C75.6946 45.3764 75.4071 45.5579 75.1999 45.9208C74.9928 46.2821 74.8892 46.7933 74.8892 47.4545C74.8892 47.8954 74.9356 48.2699 75.0284 48.5781C75.1212 48.8864 75.2546 49.1209 75.4286 49.2816C75.6043 49.4424 75.8156 49.5227 76.0625 49.5227Z" fill="#0000FF"/>
<path d="M19.8975 18.59C21.2011 18.59 22.2314 19.2005 22.6953 20.2307C22.7734 20.3918 22.8125 20.5579 22.8125 20.7043C22.8125 21.0412 22.5927 21.256 22.2559 21.256C21.9679 21.256 21.7773 21.1192 21.6406 20.8117C21.3134 20.055 20.6738 19.6594 19.9072 19.6594C18.6964 19.6595 17.9199 20.6555 17.9199 22.2277C17.9199 23.7999 18.6916 24.8008 19.9121 24.801C20.7178 24.801 21.3378 24.4493 21.6602 23.7072C21.7871 23.4192 21.9484 23.302 22.2217 23.3019C22.5684 23.3019 22.8076 23.5315 22.8076 23.8635C22.8076 24.0245 22.7685 24.1711 22.6904 24.3371C22.2412 25.294 21.2402 25.8703 19.9219 25.8703L19.7334 25.8664C17.8086 25.7832 16.6309 24.4178 16.6309 22.2277C16.6309 19.9671 17.9053 18.5901 19.8975 18.59Z" fill="black"/>
<path d="M49.2036 20.4705C50.4875 20.4706 51.3218 21.1494 51.3218 22.1893V25.2401C51.3218 25.6306 51.0728 25.8504 50.731 25.8504C50.4734 25.8503 50.327 25.7308 50.2456 25.6151C50.2436 25.6122 50.2416 25.6078 50.2388 25.6033C50.2026 25.544 50.1283 25.5194 50.064 25.5457C49.7575 25.671 49.1419 25.8357 48.5103 25.8358C47.5119 25.8358 46.7817 25.1911 46.7817 24.2733C46.782 23.3557 47.4903 22.6824 48.7495 22.6043L50.0747 22.5291C50.1008 22.5274 50.1206 22.5055 50.1206 22.4793V22.2772C50.1206 21.7354 49.7549 21.4149 49.1548 21.4227C48.7275 21.4283 48.4123 21.6029 48.272 21.7752C48.1158 21.9672 47.6606 22.1299 47.3892 21.9129C47.1574 21.7272 47.1791 21.3282 47.3481 21.1385C47.6404 20.8111 48.2125 20.4705 49.2036 20.4705ZM48.9204 23.5125C48.3346 23.5516 47.9976 23.8007 47.9976 24.2254C47.9977 24.6499 48.3543 24.9188 48.8813 24.9188C49.5647 24.9187 50.1214 24.4594 50.1216 23.8348V23.492C50.1216 23.4635 50.0972 23.4407 50.0688 23.4422L48.9204 23.5125Z" fill="black"/>
<path d="M62.46 18.6084C62.8164 18.6085 63.0653 18.8379 63.0654 19.248V25.2256C63.0654 25.6261 62.8214 25.8505 62.4746 25.8506C62.2759 25.8506 62.0999 25.7789 61.9805 25.6084C61.9702 25.5937 61.962 25.5777 61.9541 25.5615C61.9224 25.4976 61.8477 25.4674 61.7803 25.4902C61.4794 25.5922 60.7087 25.8359 60.2227 25.8359C58.9091 25.8357 58.0742 24.8155 58.0742 23.1602C58.0742 21.5096 58.9043 20.4884 60.2031 20.4883C60.6847 20.4883 61.2875 20.6945 61.6494 20.8574C61.7429 20.8996 61.8495 20.8311 61.8496 20.7285V19.248C61.8497 18.8378 62.1034 18.6084 62.46 18.6084ZM60.5938 21.4854C59.837 21.4856 59.3193 22.1347 59.3193 23.1602C59.3194 24.1806 59.8078 24.8348 60.5938 24.835C61.3799 24.835 61.8544 24.1661 61.8594 23.1602C61.8545 22.1444 61.3507 21.4854 60.5938 21.4854Z" fill="black"/>
<path d="M30.3364 20.4738C30.4904 20.4738 30.6243 20.5203 30.7261 20.6056C30.7866 20.6563 30.8307 20.7257 30.8608 20.7853C30.8946 20.8523 30.9757 20.8802 31.0444 20.8497C31.3134 20.7303 31.9391 20.4786 32.4224 20.4786C33.0352 20.4788 33.6036 20.8006 33.7974 20.923C33.8408 20.9504 33.8958 20.9525 33.9409 20.9279C34.1574 20.8091 34.8211 20.4787 35.5083 20.4786C36.5289 20.4786 37.1986 21.1671 37.1987 22.2023V25.2111C37.1987 25.6163 36.9544 25.8505 36.5933 25.8507C36.2319 25.8507 35.9819 25.6164 35.9819 25.2111V22.5001C35.9818 21.8655 35.6499 21.504 35.0542 21.504C34.4584 21.5041 34.0679 21.9346 34.0679 22.5548V25.2111C34.0679 25.6164 33.8383 25.8506 33.4771 25.8507C33.1157 25.8507 32.8862 25.6164 32.8862 25.2111V22.4366C32.8861 21.8606 32.5336 21.504 31.9673 21.504C31.4011 21.5042 30.9714 21.9583 30.9712 22.5831V25.2111C30.9712 25.6164 30.7222 25.8507 30.3608 25.8507C29.9995 25.8507 29.7554 25.6164 29.7554 25.2111V21.0939C29.7554 20.6984 29.9947 20.4738 30.3364 20.4738Z" fill="black"/>
<path d="M38.9546 20.4738C39.1086 20.4738 39.2424 20.5203 39.3442 20.6056C39.4047 20.6563 39.4489 20.7257 39.479 20.7853C39.5128 20.8523 39.5939 20.8802 39.6626 20.8497C39.9316 20.7303 40.5572 20.4786 41.0405 20.4786C41.6533 20.4788 42.2218 20.8006 42.4155 20.923C42.459 20.9504 42.514 20.9525 42.5591 20.9279C42.7755 20.8091 43.4393 20.4787 44.1265 20.4786C45.1471 20.4786 45.8167 21.1671 45.8169 22.2023V25.2111C45.8169 25.6163 45.5726 25.8505 45.2114 25.8507C44.85 25.8507 44.6001 25.6164 44.6001 25.2111V22.5001C44.5999 21.8655 44.2681 21.504 43.6724 21.504C43.0766 21.5041 42.686 21.9346 42.686 22.5548V25.2111C42.686 25.6164 42.4565 25.8506 42.0952 25.8507C41.7338 25.8507 41.5044 25.6164 41.5044 25.2111V22.4366C41.5042 21.8606 41.1518 21.504 40.5854 21.504C40.0193 21.5042 39.5896 21.9583 39.5894 22.5831V25.2111C39.5894 25.6164 39.3404 25.8507 38.979 25.8507C38.6177 25.8507 38.3735 25.6164 38.3735 25.2111V21.0939C38.3736 20.6984 38.6128 20.4738 38.9546 20.4738Z" fill="black"/>
<path d="M53.084 20.4735C53.2908 20.4735 53.4599 20.5542 53.5654 20.6952C53.591 20.7294 53.6132 20.7681 53.6309 20.8046C53.6653 20.8751 53.7497 20.9052 53.8203 20.871C54.0866 20.7419 54.706 20.4784 55.3213 20.4784C56.464 20.4785 57.1133 21.2116 57.1133 22.4081V25.2108C57.1133 25.6211 56.8643 25.8505 56.5078 25.8505C56.1514 25.8504 55.8975 25.621 55.8975 25.2108V22.6522C55.8975 21.9197 55.5556 21.5088 54.8623 21.5087C54.1688 21.5087 53.7188 22.0125 53.7188 22.7548V25.2108C53.7188 25.6211 53.4649 25.8505 53.1084 25.8505C52.752 25.8504 52.5029 25.621 52.5029 25.2108V21.0887C52.503 20.7128 52.7227 20.4736 53.084 20.4735Z" fill="black"/>
<path d="M26.2695 20.4699C27.7783 20.4699 28.7744 21.4855 28.7744 23.1652C28.7744 24.8449 27.7881 25.8557 26.2695 25.8557C24.7509 25.8556 23.7647 24.8351 23.7646 23.1652C23.7646 21.4953 24.7607 20.4699 26.2695 20.4699ZM26.2695 21.4367C25.503 21.4367 25 22.0618 25 23.1652C25 24.2687 25.498 24.8937 26.2695 24.8937C27.0409 24.8937 27.5391 24.2638 27.5391 23.1652C27.539 22.0667 27.0361 21.4367 26.2695 21.4367Z" fill="black"/>
</svg>
