<svg width="55" height="54" viewBox="0 0 55 54" fill="none" xmlns="http://www.w3.org/2000/svg">
<rect x="2.1001" y="1.85001" width="50.3" height="50.3" rx="3" stroke="#8B1EFF" stroke-width="0.28"/>
<path d="M10.1631 37.0476C10.0851 27.0606 9.98608 17.0726 9.86914 7.08457L9.8692 7.08213C9.87323 6.91611 9.88623 6.7501 9.90631 6.58396C9.92633 6.41892 9.95233 6.25498 9.98553 6.09153C10.0175 5.92954 10.0565 5.76853 10.1027 5.60972C10.1497 5.45176 10.2017 5.29575 10.2615 5.14158C10.4485 4.66758 10.7035 4.21665 11.02 3.81431C11.333 3.41733 11.706 3.06833 12.1225 2.78391C12.5375 2.50193 12.9965 2.28391 13.4758 2.13694C13.9578 1.98984 14.4618 1.91392 14.9641 1.90659C19.0581 1.87168 23.1521 1.85459 27.2463 1.85496C31.3393 1.85496 35.4333 1.87192 39.5276 1.9072C39.6896 1.91013 39.8516 1.92112 40.0135 1.93772C40.2535 1.96372 40.4935 2.00474 40.7299 2.0615C40.9639 2.11851 41.1949 2.1904 41.4197 2.27952C41.6537 2.37253 41.8787 2.4835 42.0949 2.61069C42.312 2.73862 42.5189 2.88267 42.7127 3.0416C42.9077 3.20164 43.0917 3.37668 43.2605 3.56321C43.4295 3.75217 43.5855 3.9542 43.726 4.16575C44.007 4.59482 44.225 5.06479 44.375 5.55649C44.526 6.05442 44.608 6.57444 44.623 7.09263C44.502 17.0696 44.404 27.0466 44.33 37.0251C44.324 37.185 44.3101 37.3451 44.289 37.5036C44.268 37.6646 44.241 37.8236 44.2069 37.9813C44.1739 38.1402 44.1339 38.2983 44.0858 38.4537C44.0388 38.6097 43.9849 38.7636 43.925 38.9156C43.734 39.3907 43.478 39.8407 43.1672 40.2495C42.8532 40.6605 42.4852 41.0285 42.0744 41.3395C41.6654 41.6495 41.2124 41.9035 40.7338 42.0906C40.2598 42.2755 39.7598 42.3955 39.2563 42.4435C31.2573 42.9535 23.2343 42.9535 15.2349 42.4436C14.9029 42.4116 14.5729 42.3476 14.2524 42.2535C13.9294 42.1595 13.6154 42.0345 13.3132 41.8819C12.7102 41.5749 12.1592 41.1568 11.6976 40.6577C11.2366 40.1606 10.8626 39.5816 10.599 38.9596C10.469 38.6516 10.365 38.3325 10.2911 38.0056C10.2191 37.6836 10.1741 37.3546 10.1611 37.0245" stroke="#8B1EFF" stroke-width="0.283" stroke-miterlimit="10"/>
<rect x="12.9355" y="5.52832" width="28.63" height="34.31" rx="1.43" stroke="#00FFFF" stroke-width="0.28"/>
<path d="M43.1899 36.5841C43.2078 31.7321 43.2278 26.8791 43.2509 22.0272C43.2719 17.1742 43.2969 12.3221 43.3259 7.46909C43.3267 7.32443 43.3217 7.18039 43.3096 7.03745C43.2997 6.89438 43.2817 6.75143 43.2576 6.61044C43.2106 6.32834 43.1387 6.05441 43.0397 5.7894C43.0146 5.72336 42.9886 5.65744 42.9606 5.59238C42.9316 5.52634 42.9026 5.4614 42.8716 5.39841C42.8087 5.27036 42.7407 5.14743 42.6656 5.02841C42.5167 4.79037 42.3436 4.5704 42.1437 4.36642C41.9457 4.16342 41.7277 3.98642 41.4937 3.83334C41.3766 3.75742 41.2557 3.68637 41.1296 3.62241C41.0667 3.59042 41.0037 3.55942 40.9377 3.53036C40.8737 3.50034 40.8066 3.47336 40.7407 3.44736C40.4736 3.34335 40.2007 3.2684 39.9216 3.21738C39.6426 3.16635 39.3577 3.14035 39.0667 3.13742C38.0878 3.12985 37.1068 3.1218 36.1238 3.11581C35.1398 3.10886 34.1558 3.10385 33.1708 3.09885C31.1998 3.09079 29.2258 3.08688 27.2488 3.08688C26.7538 3.08688 26.2598 3.08688 25.7648 3.08688C25.2708 3.08786 24.7758 3.08884 24.2808 3.08981C23.2918 3.09189 22.3038 3.09482 21.3188 3.09885C19.3468 3.10788 17.3828 3.12082 15.4258 3.13779C15.2801 3.13889 15.1361 3.14682 14.9911 3.15988C14.8481 3.1738 14.7041 3.19284 14.5631 3.21884C14.2801 3.27084 14.0061 3.34787 13.7411 3.45187C13.6751 3.47787 13.6101 3.50485 13.5451 3.53488C13.4801 3.56381 13.4151 3.59579 13.3521 3.6279C13.2251 3.69382 13.1041 3.76486 12.9861 3.84286C12.7511 3.9968 12.5341 4.17587 12.3361 4.37985C12.2871 4.4299 12.2391 4.48288 12.1931 4.53586C12.1471 4.58884 12.1021 4.64279 12.0591 4.69882C11.9731 4.80881 11.8931 4.9238 11.8191 5.04184C11.7451 5.16086 11.6781 5.2839 11.6151 5.40988C11.5851 5.47287 11.5561 5.53683 11.5281 5.60287C11.5001 5.66782 11.4741 5.73483 11.4491 5.80185C11.3511 6.06784 11.2801 6.34079 11.2341 6.61887C11.1881 6.89682 11.1651 7.18088 11.1671 7.46982C11.1954 12.3224 11.2214 17.1744 11.2435 22.0274C11.2665 26.8794 11.2855 31.7324 11.3035 36.5844C11.3041 36.8712 11.3281 37.1551 11.3781 37.4392C11.3911 37.5101 11.4052 37.5811 11.4201 37.6511C11.4362 37.7212 11.4521 37.7911 11.4711 37.8601C11.5081 37.9991 11.5511 38.1351 11.6002 38.2701C11.6491 38.4051 11.7031 38.5382 11.7651 38.6682C11.7961 38.7331 11.8271 38.7982 11.8621 38.8622C11.8961 38.9261 11.9312 38.9901 11.9681 39.0532C12.1151 39.3032 12.2831 39.5361 12.4741 39.7531C12.5692 39.8612 12.6701 39.9652 12.7772 40.0652C12.8291 40.1151 12.8842 40.1632 12.9401 40.2102C12.9951 40.2572 13.0511 40.3021 13.1091 40.3462C13.3381 40.5211 13.5822 40.6721 13.8421 40.7982C13.9071 40.8302 13.9731 40.8601 14.0402 40.8882C14.1071 40.9171 14.1741 40.9431 14.2421 40.9681C14.3781 41.0182 14.5151 41.0611 14.6541 41.0971C14.9301 41.1692 15.2131 41.2131 15.5012 41.2312C16.4743 41.2916 17.4493 41.3446 18.4273 41.3896C19.4033 41.4356 20.3823 41.4726 21.3613 41.5027C23.3183 41.5636 25.2793 41.5936 27.2443 41.5936C27.7353 41.5936 28.2273 41.5916 28.7183 41.5876C29.2093 41.5846 29.7013 41.5786 30.1923 41.5706C31.1753 41.5556 32.1563 41.5335 33.1363 41.5027C35.0943 41.4426 37.0463 41.3526 38.9916 41.2315C39.1366 41.2226 39.2796 41.2066 39.4226 41.1845C39.4936 41.1726 39.5646 41.1596 39.6366 41.1446C39.7066 41.1296 39.7776 41.1136 39.8466 41.0946C40.1266 41.0226 40.3956 40.9226 40.6546 40.7956C40.7206 40.7646 40.7836 40.7315 40.8466 40.6966C40.9106 40.6616 40.9736 40.6246 41.0356 40.5855C41.1596 40.5096 41.2786 40.4266 41.3926 40.3386C41.6226 40.1635 41.8326 39.9666 42.0236 39.7486C42.0716 39.6936 42.1176 39.6375 42.1636 39.5807C42.2086 39.5237 42.2526 39.4655 42.2946 39.4066C42.3796 39.2896 42.4576 39.1685 42.5296 39.0446C42.6756 38.7966 42.7966 38.5376 42.8946 38.2656C42.9196 38.1976 42.9426 38.1286 42.9646 38.0595C42.9856 37.9906 43.0056 37.9216 43.0236 37.8526C43.0606 37.7136 43.0916 37.5746 43.1156 37.4345C43.1646 37.1537 43.1886 36.8706 43.1899 36.5841Z" stroke="#FF00FF" stroke-width="0.283465" stroke-miterlimit="10" stroke-linecap="round" stroke-linejoin="round"/>
<path d="M19.9756 18.5869C22.0264 18.5869 23.3154 19.9883 23.3154 22.2295C23.3154 24.4707 22.0313 25.8672 19.9756 25.8672C17.9199 25.8672 16.6309 24.4707 16.6309 22.2295C16.6309 19.9883 17.9199 18.5869 19.9756 18.5869ZM19.9756 19.6611C18.7158 19.6612 17.9199 20.6621 17.9199 22.2295C17.9199 23.7969 18.7158 24.7929 19.9756 24.793C21.2305 24.793 22.0312 23.8018 22.0312 22.2295C22.0312 20.6572 21.2354 19.6611 19.9756 19.6611Z" fill="black"/>
<path d="M24.9893 20.4702C25.1879 20.4702 25.3641 20.5419 25.4834 20.7124C25.4938 20.7272 25.5018 20.7439 25.5098 20.7602C25.5415 20.8241 25.6162 20.8534 25.6836 20.8305C25.9844 20.7286 26.7542 20.485 27.2402 20.4848C28.5539 20.4848 29.3895 21.5052 29.3896 23.1606C29.3896 24.8111 28.5595 25.8323 27.2607 25.8325C26.7792 25.8325 26.1764 25.6262 25.8145 25.4633C25.7209 25.4211 25.6143 25.4905 25.6143 25.5932V26.9507C25.6143 27.361 25.3605 27.5903 25.0039 27.5903C24.6474 27.5902 24.3984 27.3609 24.3984 26.9507V21.0952C24.3985 20.6948 24.6425 20.4702 24.9893 20.4702ZM26.8701 21.4858C26.084 21.4858 25.6095 22.1549 25.6045 23.1606C25.6094 24.1764 26.1131 24.8364 26.8701 24.8364C27.6269 24.8361 28.1445 24.186 28.1445 23.1606C28.1444 22.1404 27.6559 21.4861 26.8701 21.4858Z" fill="black"/>
<path d="M31.3179 19.25C31.6939 19.25 31.9233 19.4941 31.9233 19.8848V20.4483C31.9235 20.5263 31.9871 20.5896 32.0649 20.5899H32.4849C32.7876 20.5899 32.9741 20.7607 32.9741 21.0489C32.974 21.3369 32.7877 21.5127 32.4849 21.5127H32.0649C31.9868 21.513 31.9233 21.5763 31.9233 21.6543V24.2071C31.9234 24.5974 32.0603 24.7685 32.4116 24.7979L32.4995 24.8076C32.8218 24.8369 32.9888 24.9736 32.9888 25.2569C32.9887 25.6131 32.676 25.8036 32.1196 25.8037H32.0708C31.1674 25.8037 30.7076 25.3546 30.7075 24.4707V21.6543C30.7075 21.576 30.6441 21.5127 30.5659 21.5127H30.3804C30.0778 21.5127 29.8922 21.3417 29.8921 21.0489C29.8921 20.7559 30.0775 20.5899 30.3804 20.5899H30.5659C30.6441 20.5899 30.7073 20.5263 30.7075 20.4483V19.8848C30.7076 19.4943 30.9419 19.2501 31.3179 19.25Z" fill="black"/>
</svg>
