<svg width="81" height="54" viewBox="0 0 81 54" fill="none" xmlns="http://www.w3.org/2000/svg">
<rect x="1.85" y="1.84961" width="77.3" height="50.3" rx="3" stroke="#8B1EFF" stroke-width="0.28"/>
<path d="M71.0066 37.0028C71.0846 27.0808 71.1916 17.1588 71.3296 7.23671C71.3196 6.87971 71.2786 6.52272 71.2033 6.17207C71.1303 5.82307 71.0243 5.48207 70.8845 5.15388C70.7465 4.82887 70.5755 4.51692 70.3758 4.22517C70.1758 3.9352 69.9478 3.66518 69.6946 3.42085C69.4416 3.17787 69.1646 2.96083 68.8691 2.77419C68.5731 2.58717 68.2581 2.42921 67.9323 2.30348C67.6063 2.17751 67.2673 2.08156 66.9235 2.01747C66.5775 1.95351 66.2275 1.91945 65.8743 1.91591C48.9603 1.82497 32.0453 1.82497 15.1315 1.91554C14.7935 1.92165 14.4565 1.95461 14.1239 2.01491C13.7919 2.07387 13.4639 2.15981 13.1493 2.27443C12.9003 2.36745 12.6573 2.47841 12.4243 2.605C12.1923 2.73305 11.9683 2.87807 11.7566 3.03871C11.5456 3.20064 11.3466 3.37862 11.1627 3.57118C10.9777 3.76521 10.8097 3.9742 10.6584 4.19405C10.5064 4.41499 10.3714 4.64803 10.2536 4.8885C10.1356 5.13155 10.0356 5.38155 9.95221 5.63875C9.78619 6.15474 9.69119 6.69673 9.67749 7.23628C9.81149 17.1583 9.91852 27.0803 9.99991 37.0014C10.0249 37.6633 10.1749 38.3273 10.4398 38.9409C10.7088 39.5659 11.0948 40.1389 11.5707 40.6232C12.0497 41.1112 12.6177 41.5102 13.2406 41.796C13.8576 42.081 14.5286 42.254 15.2024 42.3052C23.6314 42.6482 32.0664 42.8192 40.5032 42.819C48.9392 42.819 57.3742 42.648 65.8041 42.3048C66.4781 42.2537 67.1481 42.0808 67.766 41.7969C68.388 41.5099 68.957 41.1109 69.4359 40.6233C69.9109 40.1383 70.2969 39.5663 70.5673 38.9408C70.8303 38.3278 70.9823 37.6638 71.0063 37.0008" stroke="#8B1EFF" stroke-width="0.283" stroke-miterlimit="10"/>
<path d="M11.2583 38.7139V6.44092C11.2583 5.26648 12.2093 4.31445 13.3843 4.31445H16.9273H64.1312H67.6743C68.8483 4.31445 69.8003 5.26648 69.8003 6.44043V38.7134C69.8003 39.8879 68.8483 40.8398 67.6743 40.8398L13.3843 40.8399C12.2093 40.8399 11.2583 39.8879 11.2583 38.7139Z" stroke="#00FFFF" stroke-width="0.28" stroke-miterlimit="10"/>
<path d="M65.6807 41.1325C48.9367 41.8176 32.0697 41.8176 15.3267 41.1325C15.0306 41.1198 14.7386 41.0828 14.4496 41.0178C14.3046 40.9859 14.1626 40.9469 14.0226 40.9018C13.8836 40.8559 13.7456 40.8048 13.6106 40.7458C13.4756 40.6878 13.3446 40.6228 13.2156 40.5518C13.1506 40.5158 13.0866 40.4778 13.0226 40.4389C12.9606 40.3999 12.8986 40.3598 12.8386 40.3178C12.5966 40.1499 12.3726 39.9608 12.1696 39.7489C12.1186 39.6958 12.0686 39.6418 12.0196 39.5858C11.9716 39.5308 11.9246 39.4729 11.8786 39.4148C11.7876 39.2998 11.7026 39.1798 11.6246 39.0568C11.4686 38.8108 11.3376 38.5518 11.2306 38.2798C11.2046 38.2108 11.1796 38.1418 11.1566 38.0728C11.1336 38.0028 11.1116 37.9328 11.0916 37.8628C11.0526 37.7229 11.0186 37.5818 10.9926 37.4398C10.9396 37.1558 10.9136 36.8689 10.9126 36.5768C10.8965 31.7902 10.8785 27.0023 10.8585 22.2153C10.8385 17.4282 10.8155 12.6413 10.7905 7.85323C10.7817 7.69765 10.7757 7.54164 10.7767 7.38667C10.7777 7.23067 10.7867 7.07668 10.8037 6.92268C10.8107 6.84566 10.8217 6.76863 10.8337 6.69167C10.8457 6.61464 10.8597 6.53865 10.8757 6.46169C10.9077 6.31068 10.9477 6.16164 10.9957 6.01466C11.0427 5.86867 11.0977 5.72566 11.1627 5.58467C11.1937 5.51466 11.2277 5.44563 11.2637 5.37666C11.3007 5.30867 11.3387 5.24068 11.3787 5.17366C11.5377 4.90865 11.7247 4.66664 11.9397 4.44667C11.9937 4.39168 12.0497 4.33766 12.1067 4.28664C12.1357 4.25966 12.1647 4.23463 12.1937 4.20863C12.2237 4.18367 12.2537 4.15865 12.2837 4.13368C12.4047 4.03664 12.5307 3.94563 12.6607 3.86269C12.9207 3.69667 13.1987 3.55965 13.4927 3.44868C13.7867 3.33864 14.0877 3.25966 14.3927 3.20668C14.6987 3.15364 15.0107 3.12666 15.3257 3.12563C32.0702 3.03365 48.9372 3.03365 65.6802 3.12563C65.9963 3.12672 66.3083 3.1537 66.6133 3.20668C66.9193 3.25972 67.2203 3.3387 67.5143 3.44868C67.8083 3.55971 68.0853 3.69673 68.3463 3.86269C68.4763 3.94569 68.6013 4.03572 68.7223 4.13368C68.7523 4.15871 68.7823 4.18373 68.8123 4.20869C68.8413 4.23372 68.8703 4.25972 68.9003 4.28572C68.9563 4.33772 69.0123 4.39168 69.0663 4.44673C69.2803 4.66573 69.4683 4.90871 69.6283 5.17372C69.6683 5.2397 69.7063 5.30769 69.7423 5.37672C69.7793 5.44472 69.8123 5.51472 69.8443 5.58473C69.9073 5.72469 69.9633 5.86873 70.0113 6.01472C70.0593 6.16072 70.0993 6.30971 70.1303 6.46169C70.1473 6.53773 70.1603 6.6147 70.1733 6.69069C70.1853 6.76772 70.1953 6.84468 70.2033 6.92171C70.2203 7.0757 70.2283 7.23073 70.2303 7.3857C70.2313 7.54073 70.2253 7.69673 70.2163 7.85268C70.1912 12.6398 70.1682 17.4278 70.1482 22.2148C70.1272 27.0018 70.1102 31.7898 70.0942 36.5766C70.0932 36.8685 70.0662 37.1585 70.0132 37.4456C69.9862 37.5905 69.9522 37.7326 69.9122 37.8715C69.8722 38.0116 69.8262 38.1496 69.7732 38.2846C69.7202 38.4196 69.6602 38.5526 69.5942 38.6835C69.5612 38.7495 69.5262 38.8145 69.4902 38.8786C69.4522 38.9426 69.4142 39.0056 69.3752 39.0665C69.2172 39.3136 69.0362 39.5426 68.8322 39.7545C68.7822 39.8065 68.7292 39.8585 68.6752 39.9085C68.6212 39.9595 68.5662 40.0086 68.5092 40.0565C68.3962 40.1525 68.2802 40.2415 68.1592 40.3236C67.9172 40.4896 67.6612 40.6315 67.3902 40.7486C67.3232 40.7775 67.2532 40.8056 67.1842 40.8316C67.1152 40.8576 67.0452 40.8815 66.9752 40.9036C66.8352 40.9495 66.6942 40.9876 66.5512 41.0195C66.2662 41.0825 65.9752 41.1206 65.6807 41.1325Z" stroke="#FF00FF" stroke-width="0.283465" stroke-miterlimit="10" stroke-linecap="round" stroke-linejoin="round"/>
<path d="M66.4147 44.9189V50.0098H65.7982V45.5652H65.7684L64.5255 46.3904V45.764L65.7982 44.9189H66.4147ZM68.0155 50.0495C67.8929 50.0495 67.7876 50.0056 67.6998 49.9178C67.612 49.83 67.5681 49.7247 67.5681 49.6021C67.5681 49.4795 67.612 49.3742 67.6998 49.2864C67.7876 49.1986 67.8929 49.1547 68.0155 49.1547C68.1381 49.1547 68.2434 49.1986 68.3312 49.2864C68.419 49.3742 68.463 49.4795 68.463 49.6021C68.463 49.6833 68.4422 49.7579 68.4008 49.8258C68.361 49.8938 68.3072 49.9484 68.2392 49.9899C68.1729 50.0297 68.0984 50.0495 68.0155 50.0495ZM70.9941 50.0794C70.7025 50.0794 70.4398 50.0214 70.2061 49.9054C69.9725 49.7894 69.7852 49.6303 69.6443 49.4281C69.5035 49.2259 69.4264 48.9956 69.4132 48.737H70.0097C70.0329 48.9674 70.1373 49.158 70.323 49.3088C70.5102 49.4579 70.7339 49.5325 70.9941 49.5325C71.2029 49.5325 71.3885 49.4836 71.5509 49.3858C71.715 49.2881 71.8434 49.1538 71.9362 48.9831C72.0307 48.8108 72.0779 48.6161 72.0779 48.399C72.0779 48.1769 72.029 47.9789 71.9313 47.8049C71.8351 47.6292 71.7026 47.4908 71.5335 47.3897C71.3645 47.2886 71.1714 47.2373 70.9543 47.2356C70.7986 47.234 70.6386 47.258 70.4746 47.3077C70.3105 47.3558 70.1755 47.4179 70.0694 47.4941L69.4927 47.4245L69.8009 44.9189H72.4458V45.4657H70.318L70.139 46.9672H70.1688C70.2732 46.8843 70.4042 46.8155 70.5616 46.7608C70.719 46.7061 70.8831 46.6788 71.0538 46.6788C71.3653 46.6788 71.6429 46.7534 71.8865 46.9025C72.1318 47.05 72.324 47.2522 72.4632 47.5091C72.6041 47.7659 72.6745 48.0592 72.6745 48.389C72.6745 48.7138 72.6016 49.0038 72.4558 49.2591C72.3116 49.5126 72.1127 49.7131 71.8592 49.8606C71.6056 50.0065 71.3173 50.0794 70.9941 50.0794ZM75.3225 50.0794C74.948 50.0794 74.629 49.9775 74.3655 49.7736C74.102 49.5681 73.9006 49.2707 73.7614 48.8812C73.6222 48.4901 73.5526 48.0178 73.5526 47.4643C73.5526 46.9141 73.6222 46.4443 73.7614 46.0549C73.9023 45.6638 74.1045 45.3655 74.368 45.16C74.6331 44.9528 74.9513 44.8493 75.3225 44.8493C75.6937 44.8493 76.0111 44.9528 76.2746 45.16C76.5397 45.3655 76.7419 45.6638 76.8811 46.0549C77.022 46.4443 77.0924 46.9141 77.0924 47.4643C77.0924 48.0178 77.0228 48.4901 76.8836 48.8812C76.7444 49.2707 76.543 49.5681 76.2795 49.7736C76.016 49.9775 75.697 50.0794 75.3225 50.0794ZM75.3225 49.5325C75.6937 49.5325 75.9821 49.3535 76.1876 48.9956C76.3931 48.6376 76.4958 48.1272 76.4958 47.4643C76.4958 47.0235 76.4486 46.6481 76.3541 46.3382C76.2613 46.0283 76.1271 45.7922 75.9514 45.6298C75.7774 45.4674 75.5678 45.3862 75.3225 45.3862C74.9546 45.3862 74.6671 45.5676 74.4599 45.9306C74.2528 46.2918 74.1492 46.8031 74.1492 47.4643C74.1492 47.9051 74.1956 48.2797 74.2884 48.5879C74.3812 48.8961 74.5146 49.1306 74.6886 49.2914C74.8643 49.4521 75.0756 49.5325 75.3225 49.5325Z" fill="#0000FF"/>
<path fill-rule="evenodd" clip-rule="evenodd" d="M16.015 15.0259C16.015 15.418 16.3329 15.7359 16.725 15.7359H20.0001C20.6065 15.7359 21.1739 15.4371 21.5171 14.9371L23.9737 11.3582C24.052 11.2441 24.1816 11.1759 24.32 11.1759H24.9699C25.362 11.1759 25.6799 10.858 25.6799 10.4659C25.6799 10.0737 25.362 9.75586 24.9699 9.75586H24.32C23.7136 9.75586 23.1461 10.0546 22.803 10.5546L20.3463 14.1335C20.268 14.2477 20.1385 14.3159 20.0001 14.3159H16.725C16.3329 14.3159 16.015 14.6337 16.015 15.0259ZM24.265 15.0259C24.265 15.418 24.5829 15.7359 24.975 15.7359H29.275C29.6671 15.7359 29.985 15.418 29.985 15.0259C29.985 14.6337 29.6671 14.3159 29.275 14.3159H24.975C24.5829 14.3159 24.265 14.6337 24.265 15.0259ZM27.8349 10.4659C27.8349 10.858 27.517 11.1759 27.1249 11.1759C26.7328 11.1759 26.4149 10.858 26.4149 10.4659C26.4149 10.0737 26.7328 9.75586 27.1249 9.75586C27.517 9.75586 27.8349 10.0737 27.8349 10.4659ZM29.9801 10.4659C29.9801 10.858 29.6622 11.1759 29.2701 11.1759C28.8779 11.1759 28.5601 10.858 28.5601 10.4659C28.5601 10.0737 28.8779 9.75586 29.2701 9.75586C29.6622 9.75586 29.9801 10.0737 29.9801 10.4659Z" fill="black"/>
<path d="M34.8489 35.8662C32.7932 35.8662 31.5139 34.4697 31.5139 32.1992C31.5139 29.9287 32.7883 28.5859 34.8245 28.5859C36.1526 28.5859 37.2122 29.2304 37.6028 30.1387C37.676 30.3047 37.6956 30.4317 37.6956 30.5586C37.6956 30.8906 37.4759 31.1104 37.139 31.1104C36.8656 31.1104 36.6751 30.9883 36.5189 30.7051C36.1673 30.0069 35.596 29.6553 34.8294 29.6553C33.5599 29.6553 32.803 30.5977 32.803 32.1846C32.803 33.7715 33.594 34.7969 34.8636 34.7969C35.8451 34.7969 36.6209 34.2198 36.6852 33.1704C36.6902 33.0887 36.6256 33.0196 36.5437 33.0196H35.4397C35.1272 33.0196 34.9124 32.8341 34.9124 32.5362C34.9124 32.2383 35.1272 32.0577 35.4397 32.0577H37.2952C37.6858 32.0577 37.9202 32.3018 37.9202 32.712V32.8585C37.9202 34.6896 36.7971 35.8663 34.8489 35.8663V35.8662Z" fill="black"/>
<path d="M39.0275 35.2063V31.0841C39.0275 30.7032 39.2619 30.4688 39.6087 30.4688C39.8423 30.4688 40.0289 30.5813 40.1215 30.7772C40.1234 30.7812 40.1298 30.7973 40.1383 30.8191C40.1724 30.9066 40.2807 30.9376 40.3556 30.8809C40.558 30.7278 40.9403 30.4834 41.3182 30.4834C41.5087 30.4834 41.6552 30.5322 41.748 30.6153C41.8603 30.7081 41.9189 30.8546 41.9189 31.0549C41.9189 31.2552 41.8603 31.387 41.7382 31.4847C41.621 31.5873 41.4403 31.641 41.2009 31.6459C40.5073 31.6508 40.2436 32.0855 40.2436 32.7155V35.2064C40.2436 35.6069 39.9994 35.8462 39.6331 35.8462C39.2668 35.8462 39.0275 35.6068 39.0275 35.2063Z" fill="black"/>
<path d="M22.3056 34.8507L20.2548 29.2842C20.0791 28.8106 19.7959 28.6055 19.332 28.6055C18.8681 28.6055 18.5898 28.8203 18.4189 29.2891L16.373 34.8507C16.3144 35.0021 16.29 35.1388 16.29 35.2364C16.29 35.5928 16.539 35.8175 16.9248 35.8175C17.252 35.8175 17.4375 35.6564 17.5547 35.2755L17.9855 34.0329C18.0053 33.9759 18.059 33.9376 18.1194 33.9376H20.5493C20.6098 33.9376 20.6636 33.976 20.6833 34.0332L21.1143 35.2853C21.2266 35.6613 21.417 35.8175 21.7588 35.8175C22.125 35.8175 22.3887 35.5782 22.3887 35.2364C22.3887 35.1241 22.3643 35.0118 22.3057 34.8507H22.3056ZM18.3776 32.7554L19.1905 30.2885C19.2332 30.1589 19.4165 30.1586 19.4596 30.2881L20.2806 32.755C20.3111 32.8468 20.2428 32.9415 20.1461 32.9415H18.5122C18.4157 32.9415 18.3474 32.8471 18.3776 32.7554Z" fill="black"/>
<path d="M24.0291 35.8312C23.6727 35.8312 23.4187 35.6017 23.4187 35.1915V29.2295C23.4187 28.8193 23.6726 28.5898 24.0291 28.5898C24.3856 28.5898 24.6346 28.8193 24.6346 29.2295V35.1915C24.6346 35.6017 24.3856 35.8312 24.0291 35.8312Z" fill="black"/>
<path d="M26.3001 34.4549V31.6386C26.3001 31.5603 26.2366 31.4969 26.1584 31.4969H25.973C25.6703 31.4969 25.4846 31.326 25.4846 31.033C25.4846 30.74 25.6701 30.574 25.973 30.574H26.1584C26.2367 30.574 26.3001 30.5105 26.3001 30.4323V29.8693C26.3001 29.4786 26.5345 29.2344 26.9106 29.2344C27.2867 29.2344 27.5162 29.4785 27.5162 29.8693V30.4323C27.5162 30.5106 27.5797 30.574 27.6579 30.574H28.0778C28.3805 30.574 28.5662 30.7448 28.5662 31.033C28.5662 31.3212 28.3807 31.4969 28.0778 31.4969H27.6579C27.5796 31.4969 27.5162 31.5604 27.5162 31.6386V34.1912C27.5162 34.5819 27.6529 34.7528 28.0046 34.7821L28.0925 34.7919C28.4148 34.8212 28.5809 34.9579 28.5809 35.2412C28.5809 35.5976 28.2684 35.7882 27.7117 35.7882H27.6629C26.7595 35.7882 26.3004 35.3389 26.3004 34.455H26.3002L26.3001 34.4549Z" fill="black"/>
</svg>
