<svg width="68" height="54" viewBox="0 0 68 54" fill="none" xmlns="http://www.w3.org/2000/svg">
<rect x="1.8501" y="1.85001" width="63.8" height="50.3" rx="3" stroke="#8B1EFF" stroke-width="0.28"/>
<path d="M10.1999 37.0328C10.2199 37.6928 10.3699 38.3628 10.6399 38.9728C10.9099 39.6028 11.2899 40.1728 11.7599 40.6628C12.2299 41.1528 12.7999 41.5628 13.4199 41.8528C14.0299 42.1428 14.6999 42.3228 15.3699 42.3728C21.4899 42.6628 27.6199 42.8128 33.7499 42.8128C39.8799 42.8128 46.0099 42.6628 52.1299 42.3728C52.7999 42.3128 53.4699 42.1328 54.0799 41.8428C54.3899 41.6928 54.6799 41.5228 54.9599 41.3228C55.2399 41.1228 55.4999 40.9028 55.7399 40.6528C55.9799 40.4028 56.1899 40.1428 56.3799 39.8528C56.5699 39.5728 56.7299 39.2728 56.8599 38.9628C56.9899 38.6528 57.0899 38.3328 57.1599 38.0028C57.2299 37.6828 57.2799 37.3528 57.2899 37.0128C57.3699 27.0728 57.4699 17.1328 57.5999 7.20277C57.5799 6.66277 57.4999 6.12277 57.3299 5.61277C57.1699 5.10277 56.9399 4.61277 56.6299 4.17277C56.3299 3.73277 55.9599 3.34277 55.5499 3.02277C55.1299 2.70277 54.6699 2.44277 54.1699 2.25277C53.9399 2.16277 53.6999 2.09277 53.4599 2.04277C53.2199 1.99277 52.9699 1.95277 52.7199 1.92277C52.5499 1.90277 52.3899 1.89277 52.2199 1.89277C39.8999 1.83277 27.5799 1.83277 15.2699 1.91277C14.5799 1.91277 13.8799 2.05277 13.2399 2.31277C12.9199 2.44277 12.6099 2.59277 12.3199 2.78277C12.0299 2.97277 11.7499 3.18277 11.5099 3.42277C11.2599 3.66277 11.0399 3.94277 10.8399 4.22277C10.6399 4.51277 10.4799 4.82277 10.3499 5.15277C10.0799 5.80277 9.9199 6.51278 9.8999 7.22277C10.0199 17.1628 10.1299 27.1028 10.2099 37.0328" stroke="#8B1EFF" stroke-width="0.28" stroke-miterlimit="10"/>
<path d="M13.2901 4.34277C12.5101 4.34277 11.8701 4.98277 11.8701 5.76277V38.9228C11.8701 39.7028 12.5001 40.3428 13.2901 40.3428H54.1101C54.8901 40.3428 55.5301 39.7128 55.5301 38.9228V5.76277C55.5301 4.98277 54.8901 4.34277 54.1101 4.34277" stroke="#00FFFF" stroke-width="0.28" stroke-miterlimit="10"/>
<path d="M15.45 41.1328C15.26 41.1328 15.08 41.1028 14.9 41.0728C14.42 40.9928 13.95 40.8328 13.52 40.6128C13.09 40.3828 12.69 40.0828 12.36 39.7228C12.22 39.5728 12.09 39.4128 11.97 39.2528C11.68 38.8428 11.46 38.3828 11.32 37.9028C11.19 37.4628 11.12 37.0028 11.12 36.5428C11.1 31.6828 11.08 26.8328 11.06 21.9728C11.06 20.8028 11.06 19.6428 11.05 18.4728C11.04 15.2828 11.02 12.0928 11 8.90277C11 8.40277 11 7.89277 11 7.39277C11 7.35277 11 7.31277 11 7.27277C11 7.23277 11 7.19277 11 7.15277C11 7.11277 11 7.07277 11 7.03277C11 6.99277 11 6.95277 11 6.91277V6.79277C11 6.79277 11.02 6.71277 11.03 6.67277C11.03 6.63277 11.04 6.59277 11.05 6.56277C11.05 6.52277 11.06 6.48277 11.07 6.45277C11.07 6.41277 11.08 6.37277 11.09 6.34277C11.09 6.30277 11.11 6.26277 11.11 6.23277C11.12 6.19277 11.13 6.16277 11.14 6.12277C11.14 6.08277 11.16 6.05277 11.17 6.01277C11.18 5.97277 11.19 5.94277 11.2 5.90277C11.21 5.86277 11.22 5.83277 11.24 5.79277C11.25 5.75277 11.27 5.72277 11.28 5.68277C11.31 5.61277 11.34 5.55277 11.37 5.48277C11.4 5.41277 11.43 5.35277 11.47 5.29277C11.5 5.23277 11.54 5.16277 11.57 5.10277C11.61 5.04277 11.65 4.98277 11.69 4.92277C11.77 4.80277 11.86 4.68277 11.95 4.57277C12.04 4.46277 12.14 4.36277 12.24 4.26277C12.34 4.16277 12.45 4.07277 12.57 3.98277C12.68 3.89277 12.8 3.81277 12.93 3.73277C12.99 3.69277 13.05 3.66277 13.12 3.62277C13.18 3.59277 13.25 3.55277 13.31 3.52277C13.37 3.49277 13.44 3.46277 13.51 3.43277C13.58 3.40277 13.64 3.38277 13.71 3.35277C13.73 3.35277 13.75 3.34277 13.77 3.33277C13.79 3.33277 13.81 3.32277 13.83 3.31277C13.85 3.31277 13.87 3.30277 13.88 3.29277L13.94 3.27277C13.94 3.27277 13.98 3.26277 14 3.25277C14.02 3.25277 14.04 3.24277 14.06 3.23277C14.08 3.23277 14.1 3.23277 14.12 3.22277C14.14 3.22277 14.16 3.21277 14.18 3.20277C14.2 3.20277 14.22 3.19277 14.24 3.18277C14.26 3.18277 14.28 3.18277 14.3 3.17277C14.32 3.17277 14.34 3.17277 14.36 3.16277C14.38 3.16277 14.4 3.16277 14.42 3.15277C14.44 3.15277 14.46 3.15277 14.48 3.14277C14.5 3.14277 14.52 3.14277 14.54 3.13277C14.56 3.13277 14.58 3.13277 14.6 3.13277C14.62 3.13277 14.64 3.13277 14.66 3.12277C14.68 3.12277 14.7 3.12277 14.72 3.12277C14.74 3.12277 14.76 3.12277 14.78 3.12277C14.8 3.12277 14.82 3.12277 14.84 3.12277C14.86 3.12277 14.88 3.12277 14.9 3.12277C14.92 3.12277 14.94 3.12277 14.96 3.12277C14.98 3.12277 15 3.12277 15.02 3.12277C15.04 3.12277 15.06 3.12277 15.08 3.12277C15.1 3.12277 15.12 3.12277 15.14 3.12277C15.16 3.12277 15.18 3.12277 15.2 3.12277C15.22 3.12277 15.24 3.12277 15.26 3.12277C15.28 3.12277 15.3 3.12277 15.32 3.12277C15.34 3.12277 15.36 3.12277 15.38 3.12277C15.4 3.12277 15.42 3.12277 15.44 3.12277C15.54 3.12277 15.64 3.12277 15.75 3.12277C15.85 3.12277 15.95 3.12277 16.05 3.12277C16.15 3.12277 16.25 3.12277 16.36 3.12277C16.46 3.12277 16.56 3.12277 16.67 3.12277C16.77 3.12277 16.87 3.12277 16.98 3.12277C17.08 3.12277 17.18 3.12277 17.29 3.12277C17.39 3.12277 17.49 3.12277 17.6 3.12277C17.7 3.12277 17.8 3.12277 17.91 3.12277C18.01 3.12277 18.11 3.12277 18.22 3.12277C18.32 3.12277 18.42 3.12277 18.53 3.12277C18.63 3.12277 18.73 3.12277 18.84 3.12277C18.94 3.12277 19.04 3.12277 19.15 3.12277C19.25 3.12277 19.35 3.12277 19.45 3.12277C19.55 3.12277 19.66 3.12277 19.76 3.12277C19.86 3.12277 19.96 3.12277 20.07 3.12277C20.17 3.12277 20.27 3.12277 20.38 3.12277C20.48 3.12277 20.58 3.12277 20.69 3.12277C20.79 3.12277 20.89 3.12277 21 3.12277C21.1 3.12277 21.2 3.12277 21.31 3.12277C21.41 3.12277 21.51 3.12277 21.62 3.12277C21.72 3.12277 21.83 3.12277 21.93 3.12277H22.24C22.34 3.12277 22.44 3.12277 22.55 3.12277C22.65 3.12277 22.75 3.12277 22.86 3.12277C22.96 3.12277 23.07 3.12277 23.17 3.12277C23.27 3.12277 23.37 3.12277 23.48 3.12277C23.59 3.12277 23.68 3.12277 23.79 3.12277C23.89 3.12277 23.99 3.12277 24.1 3.12277H24.41C24.51 3.12277 24.61 3.12277 24.72 3.12277C24.83 3.12277 24.93 3.12277 25.03 3.12277C25.13 3.12277 25.23 3.12277 25.34 3.12277C25.45 3.12277 25.55 3.12277 25.65 3.12277C25.75 3.12277 25.86 3.12277 25.96 3.12277C26.06 3.12277 26.16 3.12277 26.27 3.12277C26.38 3.12277 26.47 3.12277 26.58 3.12277C26.68 3.12277 26.78 3.12277 26.89 3.12277H27.2C27.3 3.12277 27.4 3.12277 27.51 3.12277C27.62 3.12277 27.72 3.12277 27.82 3.12277H28.13C28.23 3.12277 28.34 3.12277 28.44 3.12277C28.54 3.12277 28.64 3.12277 28.75 3.12277H29.06C29.16 3.12277 29.27 3.12277 29.37 3.12277H29.68C29.78 3.12277 29.88 3.12277 29.99 3.12277H30.3C30.4 3.12277 30.5 3.12277 30.61 3.12277H31.22C31.32 3.12277 31.42 3.12277 31.53 3.12277H33.38C33.48 3.12277 33.59 3.12277 33.69 3.12277H34C34.1 3.12277 34.2 3.12277 34.31 3.12277H36.16C36.26 3.12277 36.37 3.12277 36.47 3.12277H37.08C37.18 3.12277 37.29 3.12277 37.39 3.12277H37.7C37.8 3.12277 37.91 3.12277 38.01 3.12277H38.32C38.42 3.12277 38.52 3.12277 38.63 3.12277H38.94C39.04 3.12277 39.14 3.12277 39.25 3.12277C39.36 3.12277 39.45 3.12277 39.56 3.12277H39.87C39.97 3.12277 40.08 3.12277 40.18 3.12277C40.28 3.12277 40.39 3.12277 40.49 3.12277H40.8C40.9 3.12277 41 3.12277 41.11 3.12277C41.21 3.12277 41.32 3.12277 41.42 3.12277C41.52 3.12277 41.62 3.12277 41.73 3.12277C41.84 3.12277 41.93 3.12277 42.04 3.12277C42.15 3.12277 42.25 3.12277 42.35 3.12277C42.45 3.12277 42.56 3.12277 42.66 3.12277C42.76 3.12277 42.86 3.12277 42.97 3.12277C43.08 3.12277 43.17 3.12277 43.28 3.12277C43.39 3.12277 43.48 3.12277 43.59 3.12277C43.7 3.12277 43.8 3.12277 43.9 3.12277C44 3.12277 44.1 3.12277 44.21 3.12277H44.52C44.62 3.12277 44.72 3.12277 44.83 3.12277C44.93 3.12277 45.04 3.12277 45.14 3.12277C45.24 3.12277 45.34 3.12277 45.45 3.12277C45.55 3.12277 45.65 3.12277 45.76 3.12277C45.86 3.12277 45.96 3.12277 46.07 3.12277C46.17 3.12277 46.28 3.12277 46.38 3.12277C46.48 3.12277 46.58 3.12277 46.69 3.12277C46.79 3.12277 46.89 3.12277 47 3.12277C47.1 3.12277 47.2 3.12277 47.31 3.12277C47.41 3.12277 47.51 3.12277 47.62 3.12277C47.72 3.12277 47.82 3.12277 47.93 3.12277C48.03 3.12277 48.13 3.12277 48.24 3.12277C48.34 3.12277 48.45 3.12277 48.55 3.12277C48.65 3.12277 48.75 3.12277 48.86 3.12277C48.96 3.12277 49.06 3.12277 49.17 3.12277C49.27 3.12277 49.38 3.12277 49.48 3.12277C49.58 3.12277 49.68 3.12277 49.79 3.12277C49.89 3.12277 49.99 3.12277 50.09 3.12277C50.19 3.12277 50.29 3.12277 50.4 3.12277C50.5 3.12277 50.6 3.12277 50.71 3.12277C50.81 3.12277 50.91 3.12277 51.01 3.12277C51.11 3.12277 51.21 3.12277 51.32 3.12277C51.42 3.12277 51.52 3.12277 51.63 3.12277C51.73 3.12277 51.83 3.12277 51.93 3.12277C52.03 3.12277 52.13 3.12277 52.24 3.12277C52.28 3.12277 52.32 3.12277 52.36 3.12277C52.4 3.12277 52.44 3.12277 52.48 3.12277C52.52 3.12277 52.56 3.12277 52.6 3.12277C52.64 3.12277 52.68 3.12277 52.72 3.13277C52.76 3.13277 52.8 3.13277 52.84 3.14277L52.96 3.16277C52.96 3.16277 53.04 3.17277 53.08 3.18277C53.12 3.18277 53.16 3.19277 53.2 3.20277C53.24 3.20277 53.27 3.22277 53.31 3.22277C53.35 3.22277 53.39 3.24277 53.42 3.25277C53.46 3.25277 53.5 3.27277 53.53 3.28277C53.57 3.28277 53.6 3.30277 53.64 3.31277C53.68 3.32277 53.71 3.33277 53.75 3.34277C53.79 3.35277 53.82 3.36277 53.86 3.37277C53.9 3.38277 53.93 3.39277 53.97 3.41277C54.04 3.44277 54.11 3.46277 54.17 3.49277C54.24 3.52277 54.3 3.55277 54.37 3.58277C54.43 3.61277 54.5 3.65277 54.56 3.68277C54.62 3.71277 54.69 3.75277 54.75 3.79277C54.87 3.87277 54.99 3.95277 55.11 4.04277C55.22 4.13277 55.33 4.22277 55.43 4.32277C55.53 4.42277 55.63 4.52277 55.72 4.63277C55.81 4.74277 55.9 4.86277 55.98 4.98277C56.02 5.04277 56.06 5.10277 56.09 5.16277C56.13 5.22277 56.16 5.28277 56.19 5.35277C56.22 5.41277 56.25 5.48277 56.28 5.54277C56.31 5.61277 56.34 5.67277 56.36 5.74277C56.36 5.76277 56.37 5.78277 56.38 5.80277C56.38 5.82277 56.39 5.84277 56.4 5.85277L56.42 5.91277C56.42 5.91277 56.43 5.95277 56.44 5.97277C56.44 5.99277 56.45 6.01277 56.46 6.03277C56.46 6.05277 56.47 6.07277 56.48 6.09277C56.48 6.11277 56.49 6.13277 56.5 6.15277C56.5 6.17277 56.51 6.19277 56.52 6.21277V6.27277C56.52 6.27277 56.54 6.31277 56.55 6.33277C56.55 6.35277 56.55 6.37277 56.56 6.39277C56.56 6.41277 56.56 6.43277 56.57 6.45277C56.57 6.47277 56.57 6.49277 56.58 6.51277V6.57277C56.58 6.57277 56.6 6.61277 56.6 6.63277C56.6 6.65277 56.6 6.67277 56.6 6.69277C56.6 6.71277 56.6 6.73277 56.6 6.75277C56.6 6.77277 56.6 6.79277 56.6 6.81277C56.6 6.83277 56.6 6.85277 56.6 6.87277C56.6 6.89277 56.6 6.91277 56.6 6.93277C56.6 6.95277 56.6 6.97277 56.6 6.99277C56.6 7.01277 56.6 7.03277 56.6 7.05277C56.6 7.07277 56.6 7.09277 56.6 7.11277C56.6 7.13277 56.6 7.15277 56.6 7.17277V7.23277C56.6 7.23277 56.6 7.27277 56.6 7.29277C56.6 7.31277 56.6 7.33277 56.6 7.35277C56.6 7.37277 56.6 7.39277 56.6 7.41277V7.47277V8.99277C56.58 12.1828 56.57 15.3728 56.55 18.5728C56.55 19.7328 56.54 20.9028 56.54 22.0628C56.52 26.9128 56.5 31.7728 56.48 36.6228C56.48 36.6628 56.48 36.7028 56.48 36.7428C56.48 36.7828 56.48 36.8228 56.48 36.8628C56.48 36.9028 56.48 36.9428 56.48 36.9828C56.48 37.0228 56.48 37.0628 56.48 37.1028C56.48 37.1428 56.48 37.1828 56.47 37.2128C56.47 37.2528 56.46 37.2928 56.45 37.3228C56.45 37.3628 56.44 37.4028 56.43 37.4328L56.41 37.5428C56.41 37.5428 56.4 37.6228 56.39 37.6528C56.39 37.6928 56.37 37.7328 56.36 37.7628C56.36 37.8028 56.34 37.8328 56.33 37.8728C56.32 37.9128 56.31 37.9428 56.3 37.9828C56.29 38.0228 56.28 38.0528 56.27 38.0928C56.26 38.1328 56.25 38.1628 56.23 38.2028C56.22 38.2428 56.2 38.2728 56.19 38.3128C56.14 38.4528 56.08 38.5828 56.01 38.7228C55.95 38.8528 55.88 38.9828 55.8 39.1028C55.72 39.2228 55.64 39.3428 55.55 39.4628C55.46 39.5728 55.37 39.6928 55.27 39.7928C55.17 39.9028 55.07 40.0028 54.96 40.1028C54.85 40.2028 54.73 40.2928 54.61 40.3728C54.55 40.4128 54.49 40.4528 54.43 40.4928C54.37 40.5328 54.31 40.5728 54.24 40.6028C54.18 40.6428 54.11 40.6728 54.05 40.7028C53.98 40.7328 53.92 40.7728 53.85 40.8028C53.83 40.8028 53.82 40.8128 53.8 40.8228C53.78 40.8328 53.76 40.8428 53.75 40.8428C53.73 40.8428 53.72 40.8528 53.7 40.8628C53.68 40.8628 53.67 40.8728 53.65 40.8828L53.6 40.9028C53.6 40.9028 53.56 40.9128 53.55 40.9228L53.5 40.9428C53.5 40.9428 53.47 40.9528 53.45 40.9628C53.43 40.9628 53.41 40.9728 53.4 40.9828C53.38 40.9828 53.36 40.9928 53.35 41.0028C53.33 41.0028 53.31 41.0128 53.3 41.0228C53.28 41.0228 53.26 41.0328 53.25 41.0428C53.23 41.0428 53.21 41.0528 53.2 41.0528L53.15 41.0728C53.15 41.0728 53.11 41.0728 53.1 41.0828C53.08 41.0828 53.06 41.0828 53.05 41.0928C53.03 41.0928 53.01 41.0928 52.99 41.1028C52.97 41.1028 52.95 41.1028 52.93 41.1128C52.91 41.1128 52.89 41.1128 52.88 41.1228C52.86 41.1228 52.84 41.1228 52.82 41.1328C52.8 41.1328 52.78 41.1328 52.76 41.1328H52.71L52.65 41.1528C52.63 41.1528 52.61 41.1528 52.59 41.1528C52.57 41.1528 52.55 41.1528 52.53 41.1528C52.51 41.1528 52.49 41.1528 52.47 41.1528C52.45 41.1528 52.43 41.1528 52.41 41.1528C52.39 41.1528 52.37 41.1528 52.35 41.1528C52.33 41.1528 52.31 41.1528 52.29 41.1528C52.27 41.1528 52.25 41.1528 52.23 41.1528C52.21 41.1528 52.19 41.1528 52.17 41.1528C52.07 41.1528 51.97 41.1628 51.86 41.1728C51.76 41.1728 51.66 41.1828 51.56 41.1928C51.46 41.1928 51.36 41.2028 51.25 41.2028C51.15 41.2028 51.05 41.2128 50.94 41.2228C50.84 41.2228 50.74 41.2228 50.64 41.2328C50.54 41.2328 50.44 41.2328 50.33 41.2428C50.23 41.2428 50.13 41.2428 50.02 41.2528C49.92 41.2528 49.82 41.2528 49.72 41.2628C49.62 41.2628 49.52 41.2628 49.41 41.2728C49.31 41.2728 49.21 41.2728 49.1 41.2828C49 41.2828 48.9 41.2828 48.79 41.2928C48.69 41.2928 48.59 41.2928 48.48 41.3028C48.38 41.3028 48.28 41.3028 48.17 41.3128C48.07 41.3128 47.97 41.3128 47.86 41.3228C47.76 41.3228 47.66 41.3228 47.55 41.3328C47.45 41.3328 47.35 41.3328 47.24 41.3428C47.14 41.3428 47.04 41.3428 46.93 41.3528C46.83 41.3528 46.73 41.3528 46.62 41.3628C46.52 41.3628 46.42 41.3628 46.31 41.3728C46.21 41.3728 46.11 41.3728 46 41.3828C45.9 41.3828 45.8 41.3828 45.69 41.3828C45.59 41.3828 45.49 41.3828 45.38 41.3928C45.27 41.4028 45.18 41.3928 45.07 41.4028C44.97 41.4028 44.87 41.4028 44.76 41.4028C44.66 41.4028 44.56 41.4028 44.45 41.4028C44.35 41.4028 44.25 41.4028 44.14 41.4028C44.04 41.4028 43.94 41.4028 43.83 41.4028C43.73 41.4028 43.63 41.4028 43.52 41.4028C43.42 41.4028 43.32 41.4028 43.21 41.4028C43.11 41.4028 43.01 41.4028 42.9 41.4028C42.8 41.4028 42.7 41.4028 42.59 41.4028C42.49 41.4028 42.39 41.4028 42.28 41.4028C42.18 41.4028 42.07 41.4028 41.97 41.4028C41.87 41.4028 41.77 41.4028 41.66 41.4028C41.56 41.4028 41.46 41.4028 41.35 41.4028H41.04C40.94 41.4028 40.84 41.4128 40.73 41.4128H40.42C40.32 41.4128 40.22 41.4128 40.11 41.4228C40.01 41.4228 39.91 41.4228 39.8 41.4228C39.7 41.4228 39.59 41.4228 39.49 41.4228C39.39 41.4228 39.29 41.4228 39.18 41.4228H38.87C38.77 41.4228 38.66 41.4228 38.56 41.4228C38.46 41.4228 38.36 41.4228 38.25 41.4228C38.14 41.4228 38.05 41.4228 37.94 41.4228C37.84 41.4228 37.73 41.4228 37.63 41.4228C37.53 41.4228 37.43 41.4228 37.32 41.4228H37.01C36.91 41.4228 36.8 41.4228 36.7 41.4228C36.6 41.4228 36.49 41.4228 36.39 41.4228C36.29 41.4228 36.19 41.4228 36.08 41.4228C35.98 41.4228 35.88 41.4228 35.77 41.4228H35.46H35.15C35.05 41.4228 34.95 41.4228 34.84 41.4228H34.53C34.43 41.4228 34.32 41.4228 34.22 41.4228H33.3C33.2 41.4228 33.1 41.4228 32.99 41.4228H32.68C32.58 41.4228 32.48 41.4228 32.37 41.4228C32.27 41.4228 32.17 41.4228 32.06 41.4228H31.75C31.65 41.4228 31.55 41.4228 31.44 41.4228C31.34 41.4228 31.23 41.4228 31.13 41.4228C31.03 41.4228 30.92 41.4228 30.82 41.4228C30.72 41.4228 30.62 41.4228 30.51 41.4228H30.2H29.89C29.79 41.4228 29.69 41.4228 29.58 41.4228C29.48 41.4228 29.38 41.4228 29.27 41.4228C29.17 41.4228 29.06 41.4228 28.96 41.4228C28.86 41.4228 28.76 41.4228 28.65 41.4228C28.55 41.4228 28.45 41.4228 28.34 41.4228C28.24 41.4228 28.14 41.4228 28.03 41.4228C27.93 41.4228 27.82 41.4228 27.72 41.4228C27.62 41.4228 27.52 41.4228 27.41 41.4228C27.31 41.4228 27.21 41.4228 27.1 41.4228C27 41.4228 26.9 41.4228 26.79 41.4228H26.48C26.38 41.4228 26.28 41.4228 26.17 41.4128C26.07 41.4128 25.97 41.4128 25.86 41.4128C25.76 41.4128 25.66 41.4128 25.55 41.4128C25.45 41.4128 25.34 41.4128 25.24 41.4128H24.93C24.83 41.4128 24.73 41.4028 24.62 41.4028C24.52 41.4028 24.41 41.4028 24.31 41.4028C24.21 41.4028 24.1 41.4028 24 41.4028C23.9 41.4028 23.8 41.4028 23.69 41.4028C23.59 41.4028 23.49 41.4028 23.38 41.4028C23.28 41.4028 23.18 41.4028 23.07 41.4028C22.97 41.4028 22.87 41.4028 22.76 41.4028C22.66 41.4028 22.56 41.4028 22.45 41.4028C22.35 41.4028 22.25 41.4028 22.14 41.3928C22.04 41.3928 21.94 41.3928 21.83 41.3828C21.73 41.3828 21.63 41.3828 21.52 41.3828C21.42 41.3828 21.32 41.3828 21.21 41.3728C21.11 41.3728 21.01 41.3728 20.9 41.3628C20.8 41.3628 20.7 41.3628 20.59 41.3528C20.49 41.3528 20.39 41.3528 20.28 41.3428C20.18 41.3428 20.08 41.3428 19.97 41.3328C19.87 41.3328 19.77 41.3328 19.66 41.3228C19.56 41.3228 19.46 41.3228 19.35 41.3128C19.25 41.3128 19.15 41.3128 19.04 41.3028C18.94 41.3028 18.84 41.3028 18.73 41.2928C18.63 41.2928 18.53 41.2928 18.42 41.2828C18.32 41.2828 18.22 41.2828 18.11 41.2728C18.01 41.2728 17.91 41.2728 17.8 41.2628C17.7 41.2628 17.6 41.2628 17.5 41.2528C17.4 41.2528 17.3 41.2528 17.19 41.2428C17.09 41.2428 16.99 41.2428 16.88 41.2328C16.78 41.2328 16.68 41.2228 16.58 41.2228C16.48 41.2228 16.38 41.2128 16.27 41.2028H15.97C15.87 41.1828 15.77 41.1828 15.67 41.1728C15.57 41.1728 15.47 41.1628 15.36 41.1528L15.45 41.1328Z" stroke="#FF00FF" stroke-width="0.28" stroke-linecap="round" stroke-linejoin="round"/>
<path d="M53.4488 44.9191V50.01H52.8324V45.5654H52.8025L51.5596 46.3907V45.7643L52.8324 44.9191H53.4488ZM55.0497 50.0498C54.9271 50.0498 54.8218 50.0059 54.734 49.918C54.6462 49.8302 54.6023 49.725 54.6023 49.6023C54.6023 49.4797 54.6462 49.3745 54.734 49.2866C54.8218 49.1988 54.9271 49.1549 55.0497 49.1549C55.1723 49.1549 55.2776 49.1988 55.3654 49.2866C55.4532 49.3745 55.4971 49.4797 55.4971 49.6023C55.4971 49.6835 55.4764 49.7581 55.435 49.8261C55.3952 49.894 55.3414 49.9487 55.2734 49.9901C55.2071 50.0299 55.1326 50.0498 55.0497 50.0498ZM56.5399 50.01V49.5626L58.2203 47.7231C58.4175 47.5076 58.5799 47.3204 58.7075 47.1613C58.8351 47.0005 58.9296 46.8497 58.9909 46.7089C59.0539 46.5664 59.0854 46.4172 59.0854 46.2614C59.0854 46.0825 59.0423 45.9275 58.9561 45.7966C58.8716 45.6657 58.7556 45.5646 58.6081 45.4933C58.4606 45.4221 58.2949 45.3864 58.111 45.3864C57.9154 45.3864 57.7447 45.427 57.5989 45.5082C57.4547 45.5878 57.3428 45.6996 57.2633 45.8438C57.1854 45.988 57.1465 46.157 57.1465 46.3509H56.5598C56.5598 46.0526 56.6286 45.7908 56.7661 45.5654C56.9037 45.34 57.0909 45.1644 57.3279 45.0384C57.5666 44.9125 57.8342 44.8495 58.1308 44.8495C58.4291 44.8495 58.6935 44.9125 58.9238 45.0384C59.1542 45.1644 59.3348 45.3342 59.4657 45.548C59.5966 45.7618 59.6621 45.9996 59.6621 46.2614C59.6621 46.4487 59.6281 46.6318 59.5602 46.8108C59.4939 46.9881 59.3779 47.1861 59.2122 47.4049C59.0481 47.622 58.8202 47.8871 58.5286 48.2004L57.3851 49.4234V49.4631H59.7516V50.01H56.5399ZM62.3691 50.0796C62.0775 50.0796 61.8148 50.0216 61.5811 49.9056C61.3475 49.7896 61.1602 49.6305 61.0193 49.4283C60.8785 49.2262 60.8014 48.9958 60.7882 48.7373H61.3847C61.4079 48.9676 61.5123 49.1582 61.698 49.309C61.8852 49.4582 62.1089 49.5327 62.3691 49.5327C62.5779 49.5327 62.7635 49.4838 62.9259 49.3861C63.09 49.2883 63.2184 49.1541 63.3112 48.9834C63.4057 48.811 63.4529 48.6163 63.4529 48.3992C63.4529 48.1771 63.404 47.9791 63.3063 47.8051C63.2101 47.6294 63.0776 47.4911 62.9085 47.39C62.7395 47.2889 62.5464 47.2375 62.3293 47.2359C62.1736 47.2342 62.0136 47.2582 61.8496 47.308C61.6855 47.356 61.5505 47.4182 61.4444 47.4944L60.8677 47.4248L61.1759 44.9191H63.8208V45.466H61.693L61.514 46.9674H61.5438C61.6482 46.8845 61.7792 46.8158 61.9366 46.7611C62.094 46.7064 62.2581 46.679 62.4288 46.679C62.7403 46.679 63.0179 46.7536 63.2615 46.9028C63.5068 47.0503 63.699 47.2524 63.8382 47.5093C63.9791 47.7662 64.0495 48.0595 64.0495 48.3893C64.0495 48.7141 63.9766 49.0041 63.8308 49.2593C63.6866 49.5129 63.4877 49.7134 63.2342 49.8609C62.9806 50.0067 62.6923 50.0796 62.3691 50.0796Z" fill="#0000FF"/>
<path d="M34.8518 25.8703C32.7961 25.8703 31.5168 24.4738 31.5168 22.2033C31.5168 19.9328 32.7912 18.59 34.8274 18.59C36.1555 18.59 37.2151 19.2345 37.6057 20.1428C37.6789 20.3088 37.6985 20.4358 37.6985 20.5627C37.6985 20.8947 37.4788 21.1145 37.1419 21.1145C36.8685 21.1145 36.678 20.9924 36.5218 20.7092C36.1702 20.011 35.5989 19.6594 34.8323 19.6594C33.5628 19.6594 32.8059 20.6018 32.8059 22.1887C32.8059 23.7756 33.5969 24.801 34.8665 24.801C35.848 24.801 36.6238 24.2239 36.6881 23.1745C36.6931 23.0928 36.6285 23.0237 36.5466 23.0237H35.4426C35.1301 23.0237 34.9153 22.8382 34.9153 22.5403C34.9153 22.2424 35.1301 22.0618 35.4426 22.0618H37.2981C37.6887 22.0618 37.9231 22.3059 37.9231 22.7161V22.8626C37.9231 24.6937 36.8 25.8704 34.8518 25.8704V25.8703Z" fill="black"/>
<path d="M39.0305 25.211V21.0888C39.0305 20.7078 39.2649 20.4734 39.6117 20.4734C39.8453 20.4734 40.0319 20.586 40.1245 20.7819C40.1264 20.7859 40.1328 20.802 40.1413 20.8238C40.1754 20.9113 40.2837 20.9423 40.3586 20.8856C40.561 20.7325 40.9433 20.4881 41.3212 20.4881C41.5117 20.4881 41.6582 20.5369 41.751 20.62C41.8633 20.7128 41.9219 20.8593 41.9219 21.0596C41.9219 21.2599 41.8633 21.3917 41.7412 21.4894C41.624 21.592 41.4433 21.6457 41.2039 21.6506C40.5103 21.6555 40.2466 22.0902 40.2466 22.7202V25.2111C40.2466 25.6116 40.0024 25.8509 39.6361 25.8509C39.2698 25.8509 39.0305 25.6115 39.0305 25.211Z" fill="black"/>
<path d="M22.3086 24.8548L20.2578 19.2883C20.0821 18.8147 19.7989 18.6096 19.335 18.6096C18.8711 18.6096 18.5928 18.8244 18.4219 19.2932L16.376 24.8548C16.3174 25.0062 16.293 25.1429 16.293 25.2405C16.293 25.5969 16.542 25.8216 16.9278 25.8216C17.255 25.8216 17.4405 25.6605 17.5577 25.2796L17.9885 24.037C18.0083 23.98 18.062 23.9417 18.1224 23.9417H20.5523C20.6128 23.9417 20.6666 23.9801 20.6863 24.0373L21.1173 25.2894C21.2296 25.6654 21.42 25.8216 21.7618 25.8216C22.128 25.8216 22.3917 25.5823 22.3917 25.2405C22.3917 25.1282 22.3673 25.0159 22.3087 24.8548H22.3086ZM18.3806 22.7595L19.1935 20.2926C19.2362 20.163 19.4195 20.1627 19.4626 20.2922L20.2836 22.7591C20.3141 22.8509 20.2458 22.9456 20.1491 22.9456H18.5152C18.4187 22.9456 18.3504 22.8512 18.3806 22.7595Z" fill="black"/>
<path d="M24.032 25.8362C23.6756 25.8362 23.4216 25.6067 23.4216 25.1965V19.2345C23.4216 18.8243 23.6755 18.5948 24.032 18.5948C24.3885 18.5948 24.6375 18.8243 24.6375 19.2345V25.1965C24.6375 25.6067 24.3885 25.8362 24.032 25.8362Z" fill="black"/>
<path d="M26.303 24.4591V21.6428C26.303 21.5645 26.2395 21.5011 26.1613 21.5011H25.9759C25.6732 21.5011 25.4875 21.3302 25.4875 21.0372C25.4875 20.7442 25.673 20.5782 25.9759 20.5782H26.1613C26.2396 20.5782 26.303 20.5147 26.303 20.4365V19.8735C26.303 19.4828 26.5374 19.2386 26.9135 19.2386C27.2896 19.2386 27.5191 19.4827 27.5191 19.8735V20.4365C27.5191 20.5148 27.5826 20.5782 27.6608 20.5782H28.0807C28.3834 20.5782 28.5691 20.749 28.5691 21.0372C28.5691 21.3254 28.3836 21.5011 28.0807 21.5011H27.6608C27.5825 21.5011 27.5191 21.5646 27.5191 21.6428V24.1954C27.5191 24.5861 27.6558 24.757 28.0075 24.7863L28.0954 24.7961C28.4177 24.8254 28.5838 24.9621 28.5838 25.2454C28.5838 25.6018 28.2713 25.7924 27.7146 25.7924H27.6658C26.7624 25.7924 26.3033 25.3431 26.3033 24.4592H26.3031L26.303 24.4591Z" fill="black"/>
</svg>
