<svg width="54" height="54" viewBox="0 0 54 54" fill="none" xmlns="http://www.w3.org/2000/svg">
<rect x="1.8501" y="1.85001" width="50.3" height="50.3" rx="3" stroke="#8B1EFF" stroke-width="0.28"/>
<path d="M9.91309 37.0476C9.83508 27.0606 9.73608 17.0726 9.61914 7.08457L9.6192 7.08213C9.62323 6.91611 9.63623 6.7501 9.65631 6.58396C9.67633 6.41892 9.70233 6.25498 9.73553 6.09153C9.76752 5.92954 9.80652 5.76853 9.85266 5.60972C9.89966 5.45176 9.95166 5.29575 10.0115 5.14158C10.1985 4.66758 10.4535 4.21665 10.77 3.81431C11.083 3.41733 11.456 3.06833 11.8725 2.78391C12.2875 2.50193 12.7465 2.28391 13.2258 2.13694C13.7078 1.98984 14.2118 1.91392 14.7141 1.90659C18.8081 1.87168 22.9021 1.85459 26.9963 1.85496C31.0893 1.85496 35.1833 1.87192 39.2776 1.9072C39.4396 1.91013 39.6016 1.92112 39.7635 1.93772C40.0035 1.96372 40.2435 2.00474 40.4799 2.0615C40.7139 2.11851 40.9449 2.1904 41.1697 2.27952C41.4037 2.37253 41.6287 2.4835 41.8449 2.61069C42.062 2.73862 42.2689 2.88267 42.4627 3.0416C42.6577 3.20164 42.8417 3.37668 43.0105 3.56321C43.1795 3.75217 43.3355 3.9542 43.476 4.16575C43.757 4.59482 43.975 5.06479 44.125 5.55649C44.276 6.05442 44.358 6.57444 44.373 7.09263C44.252 17.0696 44.154 27.0466 44.08 37.0251C44.074 37.185 44.0601 37.3451 44.039 37.5036C44.018 37.6646 43.991 37.8236 43.9569 37.9813C43.9239 38.1402 43.8839 38.2983 43.8358 38.4537C43.7888 38.6097 43.7349 38.7636 43.675 38.9156C43.484 39.3907 43.228 39.8407 42.9172 40.2495C42.6032 40.6605 42.2352 41.0285 41.8244 41.3395C41.4154 41.6495 40.9624 41.9035 40.4838 42.0906C40.0098 42.2755 39.5098 42.3955 39.0063 42.4435C31.0073 42.9535 22.9843 42.9535 14.9849 42.4436C14.6529 42.4116 14.3229 42.3476 14.0024 42.2535C13.6794 42.1595 13.3654 42.0345 13.0632 41.8819C12.4602 41.5749 11.9092 41.1568 11.4476 40.6577C10.9866 40.1606 10.6126 39.5816 10.349 38.9596C10.219 38.6516 10.115 38.3325 10.0411 38.0056C9.96912 37.6836 9.92407 37.3546 9.91113 37.0245" stroke="#8B1EFF" stroke-width="0.283" stroke-miterlimit="10"/>
<rect x="12.6855" y="5.52832" width="28.63" height="34.31" rx="1.43" stroke="#00FFFF" stroke-width="0.28"/>
<path d="M42.9396 36.5841C42.9576 31.7321 42.9776 26.8791 43.0006 22.0272C43.0216 17.1742 43.0466 12.3221 43.0756 7.46909C43.0764 7.32443 43.0714 7.18039 43.0594 7.03745C43.0494 6.89438 43.0314 6.75143 43.0074 6.61044C42.9604 6.32834 42.8884 6.05441 42.7894 5.7894C42.7644 5.72336 42.7384 5.65744 42.7104 5.59238C42.6814 5.52634 42.6524 5.4614 42.6214 5.39841C42.5584 5.27036 42.4904 5.14743 42.4154 5.02841C42.2664 4.79037 42.0934 4.5704 41.8934 4.36642C41.6954 4.16342 41.4774 3.98642 41.2434 3.83334C41.1264 3.75742 41.0054 3.68637 40.8794 3.62241C40.8164 3.59042 40.7534 3.55942 40.6874 3.53036C40.6234 3.50034 40.5564 3.47336 40.4904 3.44736C40.2234 3.34335 39.9504 3.2684 39.6714 3.21738C39.3924 3.16635 39.1074 3.14035 38.8164 3.13742C37.8376 3.12985 36.8566 3.1218 35.8735 3.11581C34.8896 3.10886 33.9056 3.10385 32.9205 3.09885C30.9496 3.09079 28.9756 3.08688 26.9985 3.08688C26.5035 3.08688 26.0096 3.08688 25.5146 3.08688C25.0206 3.08786 24.5256 3.08884 24.0306 3.08981C23.0416 3.09189 22.0536 3.09482 21.0685 3.09885C19.0966 3.10788 17.1326 3.12082 15.1755 3.13779C15.0298 3.13889 14.8859 3.14682 14.7408 3.15988C14.5979 3.1738 14.4539 3.19284 14.3129 3.21884C14.0298 3.27084 13.7559 3.34787 13.4908 3.45187C13.4249 3.47787 13.3599 3.50485 13.2949 3.53488C13.2299 3.56381 13.1649 3.59579 13.1019 3.6279C12.9749 3.69382 12.8539 3.76486 12.7359 3.84286C12.5009 3.9968 12.2839 4.17587 12.0859 4.37985C12.0369 4.4299 11.9889 4.48288 11.9429 4.53586C11.8969 4.58884 11.8519 4.64279 11.8089 4.69882C11.7229 4.80881 11.6429 4.9238 11.5688 5.04184C11.4949 5.16086 11.4279 5.2839 11.3649 5.40988C11.3349 5.47287 11.3058 5.53683 11.2779 5.60287C11.2499 5.66782 11.2239 5.73483 11.1989 5.80185C11.1009 6.06784 11.0298 6.34079 10.9839 6.61887C10.9379 6.89682 10.9149 7.18088 10.9169 7.46982C10.9452 12.3224 10.9712 17.1744 10.9932 22.0274C11.0162 26.8794 11.0352 31.7324 11.0532 36.5844C11.0539 36.8712 11.0779 37.1551 11.1279 37.4392C11.1409 37.5101 11.1549 37.5811 11.1699 37.6511C11.1859 37.7212 11.2019 37.7911 11.2209 37.8601C11.2579 37.9991 11.3009 38.1351 11.3499 38.2701C11.3989 38.4051 11.4529 38.5382 11.5149 38.6682C11.5459 38.7331 11.5769 38.7982 11.6119 38.8622C11.6459 38.9261 11.6809 38.9901 11.7179 39.0532C11.8649 39.3032 12.0329 39.5361 12.2239 39.7531C12.3189 39.8612 12.4199 39.9652 12.5269 40.0652C12.5789 40.1151 12.6339 40.1632 12.6899 40.2102C12.7449 40.2572 12.8009 40.3021 12.8589 40.3462C13.0879 40.5211 13.3319 40.6721 13.5919 40.7982C13.6569 40.8302 13.7229 40.8601 13.7899 40.8882C13.8569 40.9171 13.9239 40.9431 13.9919 40.9681C14.1279 41.0182 14.2649 41.0611 14.4039 41.0971C14.6799 41.1692 14.9629 41.2131 15.2509 41.2312C16.2241 41.2916 17.1991 41.3446 18.1771 41.3896C19.1531 41.4356 20.1321 41.4726 21.1111 41.5027C23.0681 41.5636 25.0291 41.5936 26.9941 41.5936C27.485 41.5936 27.9771 41.5916 28.4681 41.5876C28.959 41.5846 29.451 41.5786 29.9421 41.5706C30.925 41.5556 31.9061 41.5335 32.886 41.5027C34.8441 41.4426 36.7961 41.3526 38.7414 41.2315C38.8864 41.2226 39.0294 41.2066 39.1724 41.1845C39.2433 41.1726 39.3144 41.1596 39.3864 41.1446C39.4564 41.1296 39.5273 41.1136 39.5964 41.0946C39.8763 41.0226 40.1454 40.9226 40.4044 40.7956C40.4703 40.7646 40.5334 40.7315 40.5964 40.6966C40.6603 40.6616 40.7234 40.6246 40.7853 40.5855C40.9094 40.5096 41.0284 40.4266 41.1423 40.3386C41.3724 40.1635 41.5823 39.9666 41.7734 39.7486C41.8214 39.6936 41.8674 39.6375 41.9134 39.5807C41.9584 39.5237 42.0024 39.4655 42.0444 39.4066C42.1293 39.2896 42.2073 39.1685 42.2794 39.0446C42.4254 38.7966 42.5464 38.5376 42.6443 38.2656C42.6694 38.1976 42.6924 38.1286 42.7144 38.0595C42.7354 37.9906 42.7554 37.9216 42.7734 37.8526C42.8104 37.7136 42.8414 37.5746 42.8654 37.4345C42.9144 37.1537 42.9384 36.8706 42.9396 36.5841Z" stroke="#FF00FF" stroke-width="0.283465" stroke-miterlimit="10" stroke-linecap="round" stroke-linejoin="round"/>
<path fill-rule="evenodd" clip-rule="evenodd" d="M20.0151 25.026C20.0151 25.4181 20.333 25.736 20.7251 25.736H24.0002C24.6066 25.736 25.174 25.4372 25.5172 24.9373L27.9738 21.3583C28.0521 21.2442 28.1817 21.176 28.3201 21.176H28.97C29.3622 21.176 29.68 20.8581 29.68 20.466C29.68 20.0739 29.3622 19.756 28.97 19.756H28.3201C27.7137 19.756 27.1462 20.0548 26.8031 20.5547L24.3465 24.1337C24.2681 24.2478 24.1386 24.316 24.0002 24.316H20.7251C20.333 24.316 20.0151 24.6339 20.0151 25.026ZM28.2651 25.026C28.2651 25.4181 28.583 25.736 28.9751 25.736H33.2751C33.6672 25.736 33.9851 25.4181 33.9851 25.026C33.9851 24.6339 33.6672 24.316 33.2751 24.316H28.9751C28.583 24.316 28.2651 24.6339 28.2651 25.026ZM31.835 20.466C31.835 20.8581 31.5172 21.176 31.125 21.176C30.7329 21.176 30.415 20.8581 30.415 20.466C30.415 20.0739 30.7329 19.756 31.125 19.756C31.5172 19.756 31.835 20.0739 31.835 20.466ZM33.9802 20.466C33.9802 20.8581 33.6623 21.176 33.2702 21.176C32.8781 21.176 32.5602 20.8581 32.5602 20.466C32.5602 20.0739 32.8781 19.756 33.2702 19.756C33.6623 19.756 33.9802 20.0739 33.9802 20.466Z" fill="black"/>
<path fill-rule="evenodd" clip-rule="evenodd" d="M20.0151 25.026C20.0151 25.4181 20.333 25.736 20.7251 25.736H24.0002C24.6066 25.736 25.174 25.4372 25.5172 24.9373L27.9738 21.3583C28.0521 21.2442 28.1817 21.176 28.3201 21.176H28.97C29.3622 21.176 29.68 20.8581 29.68 20.466C29.68 20.0739 29.3622 19.756 28.97 19.756H28.3201C27.7137 19.756 27.1462 20.0548 26.8031 20.5547L24.3465 24.1337C24.2681 24.2478 24.1386 24.316 24.0002 24.316H20.7251C20.333 24.316 20.0151 24.6339 20.0151 25.026ZM28.2651 25.026C28.2651 25.4181 28.583 25.736 28.9751 25.736H33.2751C33.6672 25.736 33.9851 25.4181 33.9851 25.026C33.9851 24.6339 33.6672 24.316 33.2751 24.316H28.9751C28.583 24.316 28.2651 24.6339 28.2651 25.026ZM31.835 20.466C31.835 20.8581 31.5172 21.176 31.125 21.176C30.7329 21.176 30.415 20.8581 30.415 20.466C30.415 20.0739 30.7329 19.756 31.125 19.756C31.5172 19.756 31.835 20.0739 31.835 20.466ZM33.9802 20.466C33.9802 20.8581 33.6623 21.176 33.2702 21.176C32.8781 21.176 32.5602 20.8581 32.5602 20.466C32.5602 20.0739 32.8781 19.756 33.2702 19.756C33.6623 19.756 33.9802 20.0739 33.9802 20.466Z" fill="black"/>
</svg>
