<svg width="108" height="54" viewBox="0 0 108 54" fill="none" xmlns="http://www.w3.org/2000/svg">
<rect x="1.8501" y="1.84998" width="104.3" height="50.3" rx="3" stroke="#8B1EFF" stroke-width="0.28"/>
<path d="M96.347 40.9106C95.8721 41.4247 95.2961 41.8486 94.6602 42.1466C94.0284 42.443 93.3364 42.615 92.6455 42.6559C79.7662 43.07 66.8812 43.276 53.9952 43.276C41.1096 43.2769 28.2246 43.0699 15.3456 42.6559C14.6539 42.6163 13.9629 42.4333 13.3329 42.1383C13.0157 41.9896 12.7126 41.8126 12.4297 41.6065C12.1456 41.4008 11.8806 41.1668 11.6426 40.9088C11.4028 40.651 11.1909 40.369 11.0049 40.0699C10.8201 39.7711 10.6631 39.455 10.5342 39.127C10.2783 38.4743 10.1313 37.7734 10.1104 37.0753V7.254C10.1154 6.90268 10.1555 6.55075 10.2305 6.20566C10.3046 5.8613 10.4146 5.52426 10.5566 5.20224C10.6982 4.87985 10.8723 4.57187 11.0743 4.28378C11.2758 3.99606 11.5048 3.728 11.7568 3.48398C12.0091 3.24033 12.2831 3.02023 12.5751 2.82822C12.8671 2.63657 13.1771 2.47153 13.4991 2.33749C13.8201 2.20395 14.1531 2.09995 14.4941 2.0289C14.8353 1.95871 15.1813 1.91965 15.5284 1.9166C41.1729 1.79562 66.8169 1.79562 92.4619 1.9166C92.8091 1.92001 93.156 1.95798 93.4961 2.0289C93.8372 2.09958 94.1711 2.20358 94.4922 2.33749C94.813 2.47226 95.124 2.63632 95.415 2.82822C95.7084 3.02109 95.9823 3.24008 96.2344 3.483C96.4869 3.7269 96.7159 3.99484 96.918 4.28281C97.1195 4.57187 97.2925 4.87985 97.4346 5.20175C97.5757 5.52475 97.6857 5.86069 97.7607 6.20566C97.8348 6.55002 97.8749 6.90207 97.8799 7.254V37.0753C97.8579 37.7745 97.7189 38.4756 97.4606 39.1294C97.2015 39.7852 96.8256 40.3933 96.347 40.9106Z" stroke="#8B1EFF" stroke-width="0.283" stroke-miterlimit="10"/>
<path d="M94.3457 40.2985H13.6487C12.4744 40.2986 11.5225 39.3466 11.5225 38.1725V6.59558C11.5224 5.42139 12.4744 4.46936 13.6484 4.46936H94.3453C95.5197 4.46936 96.4717 5.42139 96.4717 6.59534V38.1725C96.4717 39.3466 95.5197 40.2985 94.3457 40.2985Z" stroke="#00FFFF" stroke-width="0.28" stroke-miterlimit="10"/>
<path d="M96.9307 33.4841V36.338C96.9308 36.636 96.9078 36.931 96.8608 37.224C96.8489 37.297 96.8358 37.37 96.8198 37.443C96.8058 37.516 96.7888 37.589 96.7719 37.66C96.7338 37.8039 96.6918 37.946 96.6448 38.0849C96.5958 38.224 96.5408 38.3609 96.4799 38.495C96.4188 38.63 96.3508 38.761 96.2759 38.89C96.1268 39.148 95.9548 39.3869 95.7598 39.607C95.6619 39.716 95.5588 39.821 95.4479 39.922C95.3938 39.971 95.3368 40.02 95.2798 40.067C95.2228 40.114 95.1638 40.159 95.1058 40.203C94.8678 40.377 94.6138 40.524 94.3458 40.645C94.2778 40.675 94.2098 40.703 94.1409 40.7299C94.0708 40.7569 94.0018 40.782 93.9318 40.805C93.7908 40.851 93.6498 40.89 93.5059 40.922C93.2198 40.985 92.9279 41.02 92.6299 41.0279C66.9102 41.702 41.0852 41.702 15.3643 41.0279C15.2155 41.024 15.0674 41.013 14.9194 40.9951C14.8455 40.9861 14.7725 40.9751 14.6984 40.963C14.6254 40.95 14.5524 40.936 14.4805 40.92C14.1924 40.856 13.9135 40.763 13.6434 40.6421C13.5764 40.6111 13.5084 40.5791 13.4434 40.545C13.3765 40.5111 13.3115 40.4751 13.2485 40.4381C13.1204 40.363 12.9974 40.2821 12.8784 40.195C12.6425 40.0211 12.4255 39.822 12.2285 39.5991C12.1785 39.5431 12.1304 39.4861 12.0845 39.4281C12.0394 39.3701 11.9944 39.3121 11.9514 39.252C11.8665 39.132 11.7875 39.009 11.7134 38.882C11.5674 38.629 11.4465 38.3601 11.3484 38.0791C11.3245 38.009 11.3005 37.9381 11.2805 37.867C11.2584 37.796 11.2394 37.7251 11.2214 37.653C11.1854 37.5101 11.1564 37.3661 11.1324 37.2201C11.0854 36.93 11.0635 36.6361 11.0635 36.338V33.4845C11.0654 25.0549 11.0663 16.625 11.0674 8.19589C11.0673 8.04453 11.0753 7.89255 11.0903 7.74155C11.0974 7.6666 11.1074 7.59055 11.1193 7.51657C11.1304 7.44052 11.1434 7.36655 11.1594 7.29257C11.2194 6.99557 11.3093 6.70956 11.4274 6.43356C11.4874 6.29562 11.5533 6.16061 11.6284 6.02756C11.7023 5.8956 11.7823 5.76755 11.8683 5.64462C12.0413 5.39963 12.2363 5.17355 12.4564 4.96652C12.5103 4.91562 12.5663 4.86459 12.6254 4.81552C12.6824 4.76657 12.7413 4.7186 12.8004 4.67258C12.9203 4.58163 13.0433 4.49655 13.1703 4.41757C13.4224 4.25961 13.6913 4.12656 13.9724 4.01852C14.0433 3.99155 14.1143 3.96555 14.1863 3.94162C14.2573 3.91855 14.3303 3.89658 14.4023 3.87656C14.5474 3.83664 14.6923 3.80258 14.8383 3.77463C15.1323 3.72055 15.4313 3.6926 15.7344 3.69052C41.2087 3.52756 66.7847 3.52756 92.2607 3.69052C92.5637 3.69296 92.8617 3.72092 93.1556 3.77499C93.3018 3.80197 93.4478 3.83591 93.5917 3.87595C93.6637 3.89694 93.7367 3.91891 93.8087 3.94199C93.8796 3.96591 93.9507 3.99094 94.0217 4.01791C94.3037 4.12692 94.5717 4.259 94.8237 4.41696C94.9507 4.49594 95.0737 4.5809 95.1937 4.67294C95.2527 4.71896 95.3127 4.76596 95.3698 4.81601C95.4277 4.86496 95.4847 4.91501 95.5387 4.96701C95.7577 5.17392 95.9537 5.39999 96.1257 5.64499C96.2117 5.76694 96.2927 5.89499 96.3657 6.02792C96.4407 6.16 96.5077 6.29697 96.5677 6.436C96.5977 6.50497 96.6248 6.57492 96.6517 6.64694C96.6777 6.71799 96.7017 6.79001 96.7247 6.86191C96.7697 7.00693 96.8077 7.15195 96.8367 7.29892C96.8967 7.59299 96.9268 7.89194 96.9266 8.19601C96.9276 16.6251 96.9296 25.055 96.9307 33.4841Z" stroke="#FF00FF" stroke-width="0.283465" stroke-miterlimit="10" stroke-linecap="round" stroke-linejoin="round"/>
<path d="M90.2985 50.01V49.5626L91.9789 47.7231C92.1761 47.5076 92.3385 47.3204 92.4661 47.1613C92.5937 47.0005 92.6882 46.8497 92.7495 46.7089C92.8124 46.5664 92.8439 46.4172 92.8439 46.2614C92.8439 46.0825 92.8008 45.9275 92.7147 45.7966C92.6301 45.6657 92.5141 45.5646 92.3667 45.4933C92.2192 45.4221 92.0534 45.3864 91.8695 45.3864C91.6739 45.3864 91.5033 45.427 91.3574 45.5082C91.2132 45.5878 91.1014 45.6996 91.0218 45.8438C90.944 45.988 90.905 46.157 90.905 46.3509H90.3184C90.3184 46.0526 90.3871 45.7908 90.5247 45.5654C90.6622 45.34 90.8495 45.1644 91.0865 45.0384C91.3251 44.9125 91.5927 44.8495 91.8894 44.8495C92.1877 44.8495 92.452 44.9125 92.6824 45.0384C92.9127 45.1644 93.0933 45.3342 93.2243 45.548C93.3552 45.7618 93.4206 45.9996 93.4206 46.2614C93.4206 46.4487 93.3867 46.6318 93.3187 46.8108C93.2524 46.9881 93.1364 47.1861 92.9707 47.4049C92.8066 47.622 92.5788 47.8871 92.2871 48.2004L91.1436 49.4234V49.4631H93.5101V50.01H90.2985ZM94.9743 50.0498C94.8516 50.0498 94.7464 50.0059 94.6586 49.918C94.5707 49.8302 94.5268 49.725 94.5268 49.6023C94.5268 49.4797 94.5707 49.3745 94.6586 49.2866C94.7464 49.1988 94.8516 49.1549 94.9743 49.1549C95.0969 49.1549 95.2021 49.1988 95.29 49.2866C95.3778 49.3745 95.4217 49.4797 95.4217 49.6023C95.4217 49.6835 95.401 49.7581 95.3596 49.8261C95.3198 49.894 95.2659 49.9487 95.198 49.9901C95.1317 50.0299 95.0571 50.0498 94.9743 50.0498ZM97.9473 50.0796C97.5727 50.0796 97.2537 49.9777 96.9902 49.7739C96.7267 49.5684 96.5254 49.2709 96.3862 48.8815C96.247 48.4904 96.1774 48.0181 96.1774 47.4646C96.1774 46.9144 96.247 46.4446 96.3862 46.0551C96.527 45.664 96.7292 45.3657 96.9927 45.1602C97.2579 44.9531 97.5761 44.8495 97.9473 44.8495C98.3185 44.8495 98.6358 44.9531 98.8993 45.1602C99.1645 45.3657 99.3667 45.664 99.5059 46.0551C99.6467 46.4446 99.7172 46.9144 99.7172 47.4646C99.7172 48.0181 99.6475 48.4904 99.5083 48.8815C99.3691 49.2709 99.1678 49.5684 98.9043 49.7739C98.6408 49.9777 98.3218 50.0796 97.9473 50.0796ZM97.9473 49.5327C98.3185 49.5327 98.6068 49.3538 98.8123 48.9958C99.0178 48.6379 99.1206 48.1274 99.1206 47.4646C99.1206 47.0237 99.0733 46.6484 98.9789 46.3385C98.8861 46.0286 98.7518 45.7924 98.5762 45.63C98.4022 45.4676 98.1925 45.3864 97.9473 45.3864C97.5794 45.3864 97.2918 45.5679 97.0847 45.9308C96.8775 46.2921 96.774 46.8033 96.774 47.4646C96.774 47.9054 96.8204 48.2799 96.9132 48.5881C97.006 48.8964 97.1394 49.1309 97.3134 49.2916C97.4891 49.4524 97.7003 49.5327 97.9473 49.5327ZM102.322 50.0796C101.948 50.0796 101.629 49.9777 101.365 49.7739C101.102 49.5684 100.9 49.2709 100.761 48.8815C100.622 48.4904 100.552 48.0181 100.552 47.4646C100.552 46.9144 100.622 46.4446 100.761 46.0551C100.902 45.664 101.104 45.3657 101.368 45.1602C101.633 44.9531 101.951 44.8495 102.322 44.8495C102.693 44.8495 103.011 44.9531 103.274 45.1602C103.539 45.3657 103.742 45.664 103.881 46.0551C104.022 46.4446 104.092 46.9144 104.092 47.4646C104.092 48.0181 104.023 48.4904 103.883 48.8815C103.744 49.2709 103.543 49.5684 103.279 49.7739C103.016 49.9777 102.697 50.0796 102.322 50.0796ZM102.322 49.5327C102.693 49.5327 102.982 49.3538 103.187 48.9958C103.393 48.6379 103.496 48.1274 103.496 47.4646C103.496 47.0237 103.448 46.6484 103.354 46.3385C103.261 46.0286 103.127 45.7924 102.951 45.63C102.777 45.4676 102.568 45.3864 102.322 45.3864C101.954 45.3864 101.667 45.5679 101.46 45.9308C101.253 46.2921 101.149 46.8033 101.149 47.4646C101.149 47.9054 101.195 48.2799 101.288 48.5881C101.381 48.8964 101.514 49.1309 101.688 49.2916C101.864 49.4524 102.075 49.5327 102.322 49.5327Z" fill="#0000FF"/>
<path fill-rule="evenodd" clip-rule="evenodd" d="M24.195 17.9962C24.0188 17.9962 23.8507 18.0645 23.727 18.1882L19.617 22.2982C19.3543 22.5609 19.3543 22.9714 19.617 23.2341L19.6183 23.2353L23.727 27.3641C23.8507 27.4875 24.0191 27.5562 24.195 27.5562H33.275C33.6194 27.5562 33.895 27.2775 33.895 26.9362V18.6162C33.895 18.2718 33.6164 17.9962 33.275 17.9962H24.195ZM22.723 17.1841C23.1193 16.7878 23.6512 16.5762 24.195 16.5762H33.275C34.3936 16.5762 35.315 17.4806 35.315 18.6162V26.9362C35.315 28.0548 34.4106 28.9762 33.275 28.9762H24.195C23.6512 28.9762 23.1193 28.7645 22.723 28.3682L22.7217 28.367L18.613 24.2382L18.6122 24.2375C17.7957 23.4201 17.7959 22.1111 18.613 21.2941L22.723 17.1841ZM31.2871 19.9941C31.5644 20.2714 31.5644 20.721 31.2871 20.9982L29.6213 22.664C29.5666 22.7188 29.5666 22.8075 29.6214 22.8621L31.2865 24.5236C31.5641 24.8006 31.5646 25.2501 31.2876 25.5277C31.0107 25.8053 30.5611 25.8058 30.2835 25.5288L28.6171 23.866C28.5624 23.8114 28.4738 23.8115 28.4192 23.8661L26.7571 25.5282C26.4798 25.8055 26.0303 25.8055 25.753 25.5282C25.4757 25.251 25.4757 24.8014 25.753 24.5241L27.4138 22.8634C27.4685 22.8086 27.4685 22.7199 27.4137 22.6653L25.7435 20.9988C25.466 20.7218 25.4655 20.2723 25.7424 19.9947C26.0194 19.7171 26.4689 19.7166 26.7465 19.9936L28.418 21.6614C28.4727 21.716 28.5612 21.7159 28.6159 21.6613L30.283 19.9941C30.5603 19.7169 31.0098 19.7169 31.2871 19.9941Z" fill="black"/>
</svg>
