<svg width="108" height="54" viewBox="0 0 108 54" fill="none" xmlns="http://www.w3.org/2000/svg">
<rect x="1.8501" y="1.84998" width="104.3" height="50.3" rx="3" stroke="#8B1EFF" stroke-width="0.28"/>
<path d="M96.347 40.9106C95.8721 41.4247 95.2961 41.8486 94.6602 42.1466C94.0284 42.443 93.3364 42.615 92.6455 42.6559C79.7662 43.07 66.8812 43.276 53.9952 43.276C41.1096 43.2769 28.2246 43.0699 15.3456 42.6559C14.6539 42.6163 13.9629 42.4333 13.3329 42.1383C13.0157 41.9896 12.7126 41.8126 12.4297 41.6065C12.1456 41.4008 11.8806 41.1668 11.6426 40.9088C11.4028 40.651 11.1909 40.369 11.0049 40.0699C10.8201 39.7711 10.6631 39.455 10.5342 39.127C10.2783 38.4743 10.1313 37.7734 10.1104 37.0753V7.254C10.1154 6.90268 10.1555 6.55075 10.2305 6.20566C10.3046 5.8613 10.4146 5.52426 10.5566 5.20224C10.6982 4.87985 10.8723 4.57187 11.0743 4.28378C11.2758 3.99606 11.5048 3.728 11.7568 3.48398C12.0091 3.24033 12.2831 3.02023 12.5751 2.82822C12.8671 2.63657 13.1771 2.47153 13.4991 2.33749C13.8201 2.20395 14.1531 2.09995 14.4941 2.0289C14.8353 1.95871 15.1813 1.91965 15.5284 1.9166C41.1729 1.79562 66.8169 1.79562 92.4619 1.9166C92.8091 1.92001 93.156 1.95798 93.4961 2.0289C93.8372 2.09958 94.1711 2.20358 94.4922 2.33749C94.813 2.47226 95.124 2.63632 95.415 2.82822C95.7084 3.02109 95.9823 3.24008 96.2344 3.483C96.4869 3.7269 96.7159 3.99484 96.918 4.28281C97.1195 4.57187 97.2925 4.87985 97.4346 5.20175C97.5757 5.52475 97.6857 5.86069 97.7607 6.20566C97.8348 6.55002 97.8749 6.90207 97.8799 7.254V37.0753C97.8579 37.7745 97.7189 38.4756 97.4606 39.1294C97.2015 39.7852 96.8256 40.3933 96.347 40.9106Z" stroke="#8B1EFF" stroke-width="0.283" stroke-miterlimit="10"/>
<path d="M94.3457 40.2985H13.6487C12.4744 40.2986 11.5225 39.3466 11.5225 38.1725V6.59558C11.5224 5.42139 12.4744 4.46936 13.6484 4.46936H94.3453C95.5197 4.46936 96.4717 5.42139 96.4717 6.59534V38.1725C96.4717 39.3466 95.5197 40.2985 94.3457 40.2985Z" stroke="#00FFFF" stroke-width="0.28" stroke-miterlimit="10"/>
<path d="M96.9307 33.4841V36.338C96.9308 36.636 96.9078 36.931 96.8608 37.224C96.8489 37.297 96.8358 37.37 96.8198 37.443C96.8058 37.516 96.7888 37.589 96.7719 37.66C96.7338 37.8039 96.6918 37.946 96.6448 38.0849C96.5958 38.224 96.5408 38.3609 96.4799 38.495C96.4188 38.63 96.3508 38.761 96.2759 38.89C96.1268 39.148 95.9548 39.3869 95.7598 39.607C95.6619 39.716 95.5588 39.821 95.4479 39.922C95.3938 39.971 95.3368 40.02 95.2798 40.067C95.2228 40.114 95.1638 40.159 95.1058 40.203C94.8678 40.377 94.6138 40.524 94.3458 40.645C94.2778 40.675 94.2098 40.703 94.1409 40.7299C94.0708 40.7569 94.0018 40.782 93.9318 40.805C93.7908 40.851 93.6498 40.89 93.5059 40.922C93.2198 40.985 92.9279 41.02 92.6299 41.0279C66.9102 41.702 41.0852 41.702 15.3643 41.0279C15.2155 41.024 15.0674 41.013 14.9194 40.9951C14.8455 40.9861 14.7725 40.9751 14.6984 40.963C14.6254 40.95 14.5524 40.936 14.4805 40.92C14.1924 40.856 13.9135 40.763 13.6434 40.6421C13.5764 40.6111 13.5084 40.5791 13.4434 40.545C13.3765 40.5111 13.3115 40.4751 13.2485 40.4381C13.1204 40.363 12.9974 40.2821 12.8784 40.195C12.6425 40.0211 12.4255 39.822 12.2285 39.5991C12.1785 39.5431 12.1304 39.4861 12.0845 39.4281C12.0394 39.3701 11.9944 39.3121 11.9514 39.252C11.8665 39.132 11.7875 39.009 11.7134 38.882C11.5674 38.629 11.4465 38.3601 11.3484 38.0791C11.3245 38.009 11.3005 37.9381 11.2805 37.867C11.2584 37.796 11.2394 37.7251 11.2214 37.653C11.1854 37.5101 11.1564 37.3661 11.1324 37.2201C11.0854 36.93 11.0635 36.6361 11.0635 36.338V33.4845C11.0654 25.0549 11.0663 16.625 11.0674 8.19589C11.0673 8.04453 11.0753 7.89255 11.0903 7.74155C11.0974 7.6666 11.1074 7.59055 11.1193 7.51657C11.1304 7.44052 11.1434 7.36655 11.1594 7.29257C11.2194 6.99557 11.3093 6.70956 11.4274 6.43356C11.4874 6.29562 11.5533 6.16061 11.6284 6.02756C11.7023 5.8956 11.7823 5.76755 11.8683 5.64462C12.0413 5.39963 12.2363 5.17355 12.4564 4.96652C12.5103 4.91562 12.5663 4.86459 12.6254 4.81552C12.6824 4.76657 12.7413 4.7186 12.8004 4.67258C12.9203 4.58163 13.0433 4.49655 13.1703 4.41757C13.4224 4.25961 13.6913 4.12656 13.9724 4.01852C14.0433 3.99155 14.1143 3.96555 14.1863 3.94162C14.2573 3.91855 14.3303 3.89658 14.4023 3.87656C14.5474 3.83664 14.6923 3.80258 14.8383 3.77463C15.1323 3.72055 15.4313 3.6926 15.7344 3.69052C41.2087 3.52756 66.7847 3.52756 92.2607 3.69052C92.5637 3.69296 92.8617 3.72092 93.1556 3.77499C93.3018 3.80197 93.4478 3.83591 93.5917 3.87595C93.6637 3.89694 93.7367 3.91891 93.8087 3.94199C93.8796 3.96591 93.9507 3.99094 94.0217 4.01791C94.3037 4.12692 94.5717 4.259 94.8237 4.41696C94.9507 4.49594 95.0737 4.5809 95.1937 4.67294C95.2527 4.71896 95.3127 4.76596 95.3698 4.81601C95.4277 4.86496 95.4847 4.91501 95.5387 4.96701C95.7577 5.17392 95.9537 5.39999 96.1257 5.64499C96.2117 5.76694 96.2927 5.89499 96.3657 6.02792C96.4407 6.16 96.5077 6.29697 96.5677 6.436C96.5977 6.50497 96.6248 6.57492 96.6517 6.64694C96.6777 6.71799 96.7017 6.79001 96.7247 6.86191C96.7697 7.00693 96.8077 7.15195 96.8367 7.29892C96.8967 7.59299 96.9268 7.89194 96.9266 8.19601C96.9276 16.6251 96.9296 25.055 96.9307 33.4841Z" stroke="#FF00FF" stroke-width="0.283465" stroke-miterlimit="10" stroke-linecap="round" stroke-linejoin="round"/>
<path d="M90.2985 50.01V49.5626L91.9789 47.7231C92.1761 47.5076 92.3385 47.3204 92.4661 47.1613C92.5937 47.0005 92.6882 46.8497 92.7495 46.7089C92.8124 46.5664 92.8439 46.4172 92.8439 46.2614C92.8439 46.0825 92.8008 45.9275 92.7147 45.7966C92.6301 45.6657 92.5141 45.5646 92.3667 45.4933C92.2192 45.4221 92.0534 45.3864 91.8695 45.3864C91.6739 45.3864 91.5033 45.427 91.3574 45.5082C91.2132 45.5878 91.1014 45.6996 91.0218 45.8438C90.944 45.988 90.905 46.157 90.905 46.3509H90.3184C90.3184 46.0526 90.3871 45.7908 90.5247 45.5654C90.6622 45.34 90.8495 45.1644 91.0865 45.0384C91.3251 44.9125 91.5927 44.8495 91.8894 44.8495C92.1877 44.8495 92.452 44.9125 92.6824 45.0384C92.9127 45.1644 93.0933 45.3342 93.2243 45.548C93.3552 45.7618 93.4206 45.9996 93.4206 46.2614C93.4206 46.4487 93.3867 46.6318 93.3187 46.8108C93.2524 46.9881 93.1364 47.1861 92.9707 47.4049C92.8066 47.622 92.5788 47.8871 92.2871 48.2004L91.1436 49.4234V49.4631H93.5101V50.01H90.2985ZM94.9743 50.0498C94.8516 50.0498 94.7464 50.0059 94.6586 49.918C94.5707 49.8302 94.5268 49.725 94.5268 49.6023C94.5268 49.4797 94.5707 49.3745 94.6586 49.2866C94.7464 49.1988 94.8516 49.1549 94.9743 49.1549C95.0969 49.1549 95.2021 49.1988 95.29 49.2866C95.3778 49.3745 95.4217 49.4797 95.4217 49.6023C95.4217 49.6835 95.401 49.7581 95.3596 49.8261C95.3198 49.894 95.2659 49.9487 95.198 49.9901C95.1317 50.0299 95.0571 50.0498 94.9743 50.0498ZM97.9473 50.0796C97.5727 50.0796 97.2537 49.9777 96.9902 49.7739C96.7267 49.5684 96.5254 49.2709 96.3862 48.8815C96.247 48.4904 96.1774 48.0181 96.1774 47.4646C96.1774 46.9144 96.247 46.4446 96.3862 46.0551C96.527 45.664 96.7292 45.3657 96.9927 45.1602C97.2579 44.9531 97.5761 44.8495 97.9473 44.8495C98.3185 44.8495 98.6358 44.9531 98.8993 45.1602C99.1645 45.3657 99.3667 45.664 99.5059 46.0551C99.6467 46.4446 99.7172 46.9144 99.7172 47.4646C99.7172 48.0181 99.6475 48.4904 99.5083 48.8815C99.3691 49.2709 99.1678 49.5684 98.9043 49.7739C98.6408 49.9777 98.3218 50.0796 97.9473 50.0796ZM97.9473 49.5327C98.3185 49.5327 98.6068 49.3538 98.8123 48.9958C99.0178 48.6379 99.1206 48.1274 99.1206 47.4646C99.1206 47.0237 99.0733 46.6484 98.9789 46.3385C98.8861 46.0286 98.7518 45.7924 98.5762 45.63C98.4022 45.4676 98.1925 45.3864 97.9473 45.3864C97.5794 45.3864 97.2918 45.5679 97.0847 45.9308C96.8775 46.2921 96.774 46.8033 96.774 47.4646C96.774 47.9054 96.8204 48.2799 96.9132 48.5881C97.006 48.8964 97.1394 49.1309 97.3134 49.2916C97.4891 49.4524 97.7003 49.5327 97.9473 49.5327ZM102.322 50.0796C101.948 50.0796 101.629 49.9777 101.365 49.7739C101.102 49.5684 100.9 49.2709 100.761 48.8815C100.622 48.4904 100.552 48.0181 100.552 47.4646C100.552 46.9144 100.622 46.4446 100.761 46.0551C100.902 45.664 101.104 45.3657 101.368 45.1602C101.633 44.9531 101.951 44.8495 102.322 44.8495C102.693 44.8495 103.011 44.9531 103.274 45.1602C103.539 45.3657 103.742 45.664 103.881 46.0551C104.022 46.4446 104.092 46.9144 104.092 47.4646C104.092 48.0181 104.023 48.4904 103.883 48.8815C103.744 49.2709 103.543 49.5684 103.279 49.7739C103.016 49.9777 102.697 50.0796 102.322 50.0796ZM102.322 49.5327C102.693 49.5327 102.982 49.3538 103.187 48.9958C103.393 48.6379 103.496 48.1274 103.496 47.4646C103.496 47.0237 103.448 46.6484 103.354 46.3385C103.261 46.0286 103.127 45.7924 102.951 45.63C102.777 45.4676 102.568 45.3864 102.322 45.3864C101.954 45.3864 101.667 45.5679 101.46 45.9308C101.253 46.2921 101.149 46.8033 101.149 47.4646C101.149 47.9054 101.195 48.2799 101.288 48.5881C101.381 48.8964 101.514 49.1309 101.688 49.2916C101.864 49.4524 102.075 49.5327 102.322 49.5327Z" fill="#0000FF"/>
<path d="M19.2864 24.7685C20.2143 24.7685 20.7075 24.3827 20.7075 23.66C20.7075 22.9373 20.1996 22.5661 19.2327 22.5661H18.0217C17.9434 22.5661 17.88 22.6296 17.88 22.7078V24.6267C17.88 24.705 17.9435 24.7684 18.0217 24.7684H19.2864V24.7685ZM19.0325 21.6724C19.9115 21.6724 20.4047 21.3013 20.4047 20.6469C20.4047 20.0316 19.9798 19.6849 19.2278 19.6849H18.0217C17.9434 19.6849 17.88 19.7484 17.88 19.8266V21.5307C17.88 21.609 17.9435 21.6724 18.0217 21.6724H19.0325ZM16.6201 25.0957V19.3577C16.6201 18.9475 16.8594 18.7033 17.2501 18.7033H19.5453C20.8248 18.7033 21.6501 19.3919 21.6501 20.4613C21.6501 21.1041 21.2738 21.5638 20.9162 21.8619C20.8378 21.9273 20.8529 22.0512 20.9441 22.0972C21.4672 22.3613 21.992 22.928 21.992 23.7479C21.992 24.9883 21.0788 25.7501 19.5747 25.7501H17.2501C16.8594 25.7501 16.6201 25.5059 16.6201 25.0957Z" fill="black"/>
<path d="M26.154 23.8313C26.154 24.4562 25.5975 24.9152 24.9139 24.9152C24.3867 24.9152 24.0302 24.6467 24.0302 24.222C24.0302 23.7973 24.3671 23.5483 24.9529 23.5092L26.1013 23.4392C26.1298 23.4375 26.1539 23.4601 26.1539 23.4887V23.8315L26.154 23.8313ZM25.2361 20.4674C24.245 20.4674 23.6734 20.8077 23.3811 21.1351C23.2118 21.3248 23.1901 21.7242 23.4223 21.9099C23.6937 22.1269 24.1483 21.9645 24.3045 21.7725C24.4447 21.6001 24.7595 21.425 25.1871 21.4194C25.7875 21.4115 26.1538 21.7319 26.1538 22.2738V22.4764C26.1538 22.5027 26.1333 22.5244 26.107 22.5259L24.7818 22.6014C23.5224 22.6795 22.8145 23.3528 22.8145 24.2706C22.8145 25.1884 23.5444 25.8329 24.5428 25.8329C25.1746 25.8329 25.7905 25.6679 26.0969 25.5426C26.1612 25.5163 26.2349 25.5411 26.2711 25.6004C26.2739 25.6049 26.2763 25.6087 26.2783 25.6116C26.3597 25.7275 26.5062 25.8475 26.7642 25.8475C27.106 25.8475 27.3549 25.6278 27.3549 25.2373V22.1859C27.3549 21.146 26.5201 20.4674 25.2361 20.4674Z" fill="black"/>
<path d="M30.6954 25.8526C29.1817 25.8526 28.2051 24.8272 28.2051 23.167C28.2051 21.5068 29.1768 20.4668 30.6856 20.4668C31.7012 20.4668 32.5655 20.9893 32.8145 21.7168C32.8536 21.8193 32.878 21.9219 32.878 22.0098C32.878 22.3125 32.6485 22.4981 32.3555 22.4981C32.1114 22.4981 31.9649 22.3956 31.8233 22.1514C31.5645 21.6778 31.2227 21.4532 30.7198 21.4532C29.9385 21.4532 29.4405 22.1026 29.4405 23.1622C29.4405 24.2218 29.9434 24.8712 30.7149 24.8712C31.252 24.8712 31.584 24.6222 31.8184 24.2071C31.9844 23.9337 32.1163 23.8311 32.3799 23.8311C32.668 23.8311 32.8926 24.0264 32.8926 24.3292C32.8926 24.422 32.8682 24.5245 32.8194 24.6417C32.5313 25.3497 31.6719 25.8526 30.6954 25.8526Z" fill="black"/>
<path d="M34.3531 25.8478C33.9967 25.8478 33.7427 25.6183 33.7427 25.2081V19.2461C33.7427 18.8359 33.9966 18.6064 34.3531 18.6064C34.7096 18.6064 34.9586 18.8359 34.9586 19.2461V22.3881C34.9586 22.514 35.1104 22.5774 35.1999 22.4889L37.0045 20.706C37.1608 20.54 37.2926 20.4716 37.4781 20.4716C37.7808 20.4716 38.0103 20.7011 38.0103 20.9941C38.0103 21.1748 37.9566 21.2871 37.7906 21.4433L36.4106 22.7502C36.3571 22.8009 36.3513 22.8841 36.3974 22.9416L37.9371 24.8662C38.0641 25.042 38.1031 25.1494 38.1031 25.3057C38.1031 25.6231 37.8638 25.8477 37.5269 25.8477C37.2876 25.8477 37.146 25.7647 36.9703 25.5108L35.5131 23.6641C35.4617 23.599 35.3656 23.5917 35.305 23.6484L35.0483 23.8887C34.9911 23.9423 34.9586 24.0172 34.9586 24.0956V25.208C34.9586 25.6182 34.7096 25.8477 34.3531 25.8477V25.8478Z" fill="black"/>
<path d="M53.1325 23.8313C53.1325 24.4562 52.576 24.9152 51.8924 24.9152C51.3652 24.9152 51.0087 24.6467 51.0087 24.222C51.0087 23.7973 51.3456 23.5483 51.9314 23.5092L53.0798 23.4392C53.1083 23.4375 53.1324 23.4601 53.1324 23.4887V23.8315L53.1325 23.8313ZM52.2146 20.4674C51.2235 20.4674 50.6519 20.8077 50.3596 21.1351C50.1903 21.3248 50.1686 21.7242 50.4008 21.9099C50.6722 22.1269 51.1268 21.9645 51.283 21.7725C51.4232 21.6001 51.738 21.425 52.1656 21.4194C52.766 21.4115 53.1323 21.7319 53.1323 22.2738V22.4764C53.1323 22.5027 53.1118 22.5244 53.0855 22.5259L51.7603 22.6014C50.5009 22.6795 49.793 23.3528 49.793 24.2706C49.793 25.1884 50.5229 25.8329 51.5213 25.8329C52.1531 25.8329 52.769 25.6679 53.0754 25.5426C53.1397 25.5163 53.2134 25.5411 53.2496 25.6004C53.2524 25.6049 53.2548 25.6087 53.2568 25.6116C53.3382 25.7275 53.4847 25.8475 53.7427 25.8475C54.0845 25.8475 54.3334 25.6278 54.3334 25.2373V22.1859C54.3334 21.146 53.4986 20.4674 52.2146 20.4674Z" fill="black"/>
<path d="M57.6739 25.8526C56.1602 25.8526 55.1836 24.8272 55.1836 23.167C55.1836 21.5068 56.1553 20.4668 57.6641 20.4668C58.6797 20.4668 59.544 20.9893 59.793 21.7168C59.8321 21.8193 59.8565 21.9219 59.8565 22.0098C59.8565 22.3125 59.627 22.4981 59.334 22.4981C59.0899 22.4981 58.9434 22.3956 58.8018 22.1514C58.543 21.6778 58.2012 21.4532 57.6983 21.4532C56.917 21.4532 56.419 22.1026 56.419 23.1622C56.419 24.2218 56.9219 24.8712 57.6934 24.8712C58.2305 24.8712 58.5625 24.6222 58.7969 24.2071C58.9629 23.9337 59.0948 23.8311 59.3584 23.8311C59.6465 23.8311 59.8711 24.0264 59.8711 24.3292C59.8711 24.422 59.8467 24.5245 59.7979 24.6417C59.5098 25.3497 58.6504 25.8526 57.6739 25.8526Z" fill="black"/>
<path d="M63.9966 22.548H61.9074C61.8168 22.548 61.75 22.4642 61.769 22.3756C61.9056 21.7369 62.3772 21.4093 62.9716 21.4093C63.566 21.4093 64.0201 21.7241 64.1363 22.3824C64.1516 22.4689 64.0845 22.548 63.9966 22.548ZM62.9668 20.4668C61.4726 20.4668 60.5205 21.5312 60.5205 23.1817C60.5205 24.8322 61.4531 25.8526 63.0352 25.8526C63.8354 25.8526 64.4214 25.6748 64.9211 25.1198C65.1448 24.8714 65.0849 24.5007 64.7888 24.3422C64.5394 24.2086 64.2557 24.3367 64.1164 24.4661C63.6737 24.8775 63.3489 24.9151 63.0255 24.9151C62.2793 24.9151 61.7893 24.4304 61.7363 23.6069C61.731 23.5248 61.7954 23.4551 61.8777 23.4551H64.8319C65.1131 23.4551 65.3425 23.2303 65.3489 22.9492C65.3816 21.5063 64.4064 20.4668 62.9668 20.4668Z" fill="black"/>
<path d="M46.5015 24.8363C45.7445 24.8363 45.2415 24.177 45.2366 23.1612C45.2415 22.1552 45.7153 21.4861 46.5015 21.4861C47.2877 21.4861 47.7761 22.1405 47.7761 23.1612C47.7761 24.1868 47.2585 24.8363 46.5015 24.8363ZM49.0214 23.1611C49.0214 21.5055 48.1863 20.4849 46.8725 20.4849C46.3865 20.4849 45.6164 20.7289 45.3155 20.8309C45.248 20.8538 45.1733 20.8241 45.1416 20.7601C45.1336 20.7438 45.1253 20.7276 45.1149 20.7128C44.9956 20.5423 44.8199 20.4703 44.6212 20.4703C44.2744 20.4703 44.0303 20.6949 44.0303 21.0954V26.9511C44.0303 27.3614 44.2793 27.5909 44.6359 27.5909C44.9925 27.5909 45.2464 27.3614 45.2464 26.9511V25.5929C45.2464 25.4902 45.3523 25.4213 45.4459 25.4635C45.8078 25.6264 46.4105 25.8326 46.8922 25.8326C48.1912 25.8326 49.0215 24.8119 49.0215 23.1612L49.0214 23.1611Z" fill="black"/>
<path d="M40.9741 25.8525C39.8803 25.8525 39.1137 25.4326 38.8647 24.8125C38.8305 24.7246 38.8159 24.6465 38.8159 24.5732C38.8159 24.2802 39.0307 24.0947 39.3237 24.0947C39.5239 24.0947 39.6948 24.1875 39.851 24.3926C40.1244 24.7881 40.4369 24.9455 41.018 24.9455C41.5991 24.9455 41.9604 24.7246 41.9604 24.334C41.9604 24.0215 41.7651 23.8506 41.2329 23.7285L40.393 23.5381C39.3822 23.3086 38.8842 22.8106 38.8842 22.0586C38.8842 21.0967 39.7143 20.4668 40.9936 20.4668C41.9897 20.4668 42.7612 20.9551 42.9223 21.5508C42.9369 21.6143 42.9467 21.6729 42.9467 21.7315C42.9467 21.9854 42.7856 22.1661 42.4779 22.1661C42.3021 22.1661 42.1263 22.1026 42.014 21.9415C41.7747 21.5851 41.4769 21.3739 40.9642 21.3739C40.4515 21.3739 40.0658 21.6192 40.0658 21.9903C40.0658 22.293 40.2904 22.4981 40.8275 22.6202L41.6527 22.8009C42.7465 23.0499 43.181 23.4454 43.181 24.212C43.181 25.2032 42.2923 25.8526 40.9739 25.8526H40.9741V25.8525Z" fill="black"/>
</svg>
