<svg width="54" height="54" viewBox="0 0 54 54" fill="none" xmlns="http://www.w3.org/2000/svg">
<rect x="1.8501" y="1.84961" width="50.3" height="50.3" rx="3" stroke="#8B1EFF" stroke-width="0.28"/>
<path d="M9.91309 37.0471C9.83508 27.0602 9.73608 17.0721 9.61914 7.08411L9.6192 7.08167C9.62323 6.91566 9.63623 6.74964 9.65631 6.5835C9.67633 6.41846 9.70233 6.25452 9.73553 6.09107C9.76752 5.92908 9.80652 5.76807 9.85266 5.60926C9.89966 5.4513 9.95166 5.29529 10.0115 5.14112C10.1985 4.66712 10.4535 4.21619 10.77 3.81385C11.083 3.41688 11.456 3.06788 11.8725 2.78345C12.2875 2.50147 12.7465 2.28345 13.2258 2.13648C13.7078 1.98939 14.2118 1.91346 14.7141 1.90613C18.8081 1.87122 22.9021 1.85413 26.9963 1.8545C31.0893 1.8545 35.1833 1.87147 39.2776 1.90674C39.4396 1.90967 39.6016 1.92066 39.7635 1.93726C40.0035 1.96326 40.2435 2.00428 40.4799 2.06104C40.7139 2.11805 40.9449 2.18995 41.1697 2.27906C41.4037 2.37208 41.6287 2.48304 41.8449 2.61024C42.062 2.73816 42.2689 2.88221 42.4627 3.04114C42.6577 3.20118 42.8417 3.37623 43.0105 3.56275C43.1795 3.75171 43.3355 3.95374 43.476 4.16529C43.757 4.59437 43.975 5.06434 44.125 5.55604C44.276 6.05396 44.358 6.57398 44.373 7.09217C44.252 17.0691 44.154 27.0462 44.08 37.0247C44.074 37.1846 44.0601 37.3446 44.039 37.5032C44.018 37.6642 43.991 37.8231 43.9569 37.9808C43.9239 38.1398 43.8839 38.2979 43.8358 38.4533C43.7888 38.6093 43.7349 38.7632 43.675 38.9152C43.484 39.3903 43.228 39.8402 42.9172 40.249C42.6032 40.66 42.2352 41.0281 41.8244 41.339C41.4154 41.6491 40.9624 41.9031 40.4838 42.0901C40.0098 42.275 39.5098 42.395 39.0063 42.443C31.0073 42.953 22.9843 42.953 14.9849 42.4431C14.6529 42.4111 14.3229 42.3472 14.0024 42.2531C13.6794 42.1591 13.3654 42.0341 13.0632 41.8815C12.4602 41.5745 11.9092 41.1564 11.4476 40.6572C10.9866 40.1602 10.6126 39.5812 10.349 38.9591C10.219 38.6511 10.115 38.332 10.0411 38.0051C9.96912 37.6831 9.92407 37.3541 9.91113 37.0241" stroke="#8B1EFF" stroke-width="0.283" stroke-miterlimit="10"/>
<rect x="12.6855" y="5.52832" width="28.63" height="34.31" rx="1.43" stroke="#00FFFF" stroke-width="0.28"/>
<path d="M42.9396 36.5841C42.9576 31.7322 42.9776 26.8792 43.0006 22.0272C43.0216 17.1742 43.0466 12.3221 43.0756 7.46912C43.0764 7.32446 43.0714 7.18042 43.0594 7.03748C43.0494 6.89441 43.0314 6.75146 43.0074 6.61047C42.9604 6.32837 42.8884 6.05444 42.7894 5.78943C42.7644 5.72339 42.7384 5.65747 42.7104 5.59241C42.6814 5.52637 42.6524 5.46143 42.6214 5.39844C42.5584 5.27039 42.4904 5.14746 42.4154 5.02844C42.2664 4.79041 42.0934 4.57043 41.8934 4.36646C41.6954 4.16345 41.4774 3.98645 41.2434 3.83337C41.1264 3.75745 41.0054 3.6864 40.8794 3.62244C40.8164 3.59045 40.7534 3.55945 40.6874 3.5304C40.6234 3.50037 40.5564 3.47339 40.4904 3.44739C40.2234 3.34338 39.9504 3.26843 39.6714 3.21741C39.3924 3.16638 39.1074 3.14038 38.8164 3.13745C37.8376 3.12988 36.8566 3.12183 35.8735 3.11584C34.8896 3.10889 33.9056 3.10388 32.9205 3.09888C30.9496 3.09082 28.9756 3.08691 26.9985 3.08691C26.5035 3.08691 26.0096 3.08691 25.5146 3.08691C25.0206 3.08789 24.5256 3.08887 24.0306 3.08984C23.0416 3.09192 22.0536 3.09485 21.0685 3.09888C19.0966 3.10791 17.1326 3.12085 15.1755 3.13782C15.0298 3.13892 14.8859 3.14685 14.7408 3.15991C14.5979 3.17383 14.4539 3.19287 14.3129 3.21887C14.0298 3.27087 13.7559 3.3479 13.4908 3.4519C13.4249 3.47791 13.3599 3.50488 13.2949 3.53491C13.2299 3.56384 13.1649 3.59583 13.1019 3.62793C12.9749 3.69385 12.8539 3.76489 12.7359 3.8429C12.5009 3.99683 12.2839 4.1759 12.0859 4.37988C12.0369 4.42993 11.9889 4.48291 11.9429 4.53589C11.8969 4.58887 11.8519 4.64282 11.8089 4.69885C11.7229 4.80884 11.6429 4.92383 11.5688 5.04187C11.4949 5.16089 11.4279 5.28394 11.3649 5.40991C11.3349 5.4729 11.3058 5.53687 11.2779 5.60291C11.2499 5.66785 11.2239 5.73486 11.1989 5.80188C11.1009 6.06787 11.0298 6.34082 10.9839 6.6189C10.9379 6.89685 10.9149 7.18091 10.9169 7.46985C10.9452 12.3224 10.9712 17.1744 10.9932 22.0275C11.0162 26.8794 11.0352 31.7324 11.0532 36.5845C11.0539 36.8712 11.0779 37.1552 11.1279 37.4392C11.1409 37.5101 11.1549 37.5812 11.1699 37.6511C11.1859 37.7212 11.2019 37.7911 11.2209 37.8601C11.2579 37.9991 11.3009 38.1351 11.3499 38.2701C11.3989 38.4052 11.4529 38.5382 11.5149 38.6682C11.5459 38.7332 11.5769 38.7982 11.6119 38.8622C11.6459 38.9261 11.6809 38.9901 11.7179 39.0532C11.8649 39.3032 12.0329 39.5361 12.2239 39.7532C12.3189 39.8612 12.4199 39.9652 12.5269 40.0652C12.5789 40.1151 12.6339 40.1632 12.6899 40.2102C12.7449 40.2572 12.8009 40.3021 12.8589 40.3462C13.0879 40.5211 13.3319 40.6721 13.5919 40.7982C13.6569 40.8302 13.7229 40.8601 13.7899 40.8882C13.8569 40.9171 13.9239 40.9431 13.9919 40.9681C14.1279 41.0182 14.2649 41.0612 14.4039 41.0972C14.6799 41.1692 14.9629 41.2131 15.2509 41.2312C16.2241 41.2916 17.1991 41.3446 18.1771 41.3896C19.1531 41.4357 20.1321 41.4727 21.1111 41.5027C23.0681 41.5636 25.0291 41.5936 26.9941 41.5936C27.485 41.5936 27.9771 41.5917 28.4681 41.5876C28.959 41.5846 29.451 41.5786 29.9421 41.5707C30.925 41.5557 31.9061 41.5336 32.886 41.5027C34.8441 41.4426 36.7961 41.3527 38.7414 41.2316C38.8864 41.2227 39.0294 41.2067 39.1724 41.1846C39.2433 41.1726 39.3144 41.1597 39.3864 41.1447C39.4564 41.1296 39.5273 41.1136 39.5964 41.0946C39.8763 41.0226 40.1454 40.9226 40.4044 40.7957C40.4703 40.7646 40.5334 40.7316 40.5964 40.6967C40.6603 40.6616 40.7234 40.6246 40.7853 40.5856C40.9094 40.5096 41.0284 40.4266 41.1423 40.3386C41.3724 40.1636 41.5823 39.9667 41.7734 39.7487C41.8214 39.6936 41.8674 39.6376 41.9134 39.5807C41.9584 39.5237 42.0024 39.4656 42.0444 39.4066C42.1293 39.2897 42.2073 39.1686 42.2794 39.0447C42.4254 38.7966 42.5464 38.5376 42.6443 38.2656C42.6694 38.1976 42.6924 38.1287 42.7144 38.0596C42.7354 37.9906 42.7554 37.9216 42.7734 37.8527C42.8104 37.7136 42.8414 37.5746 42.8654 37.4346C42.9144 37.1537 42.9384 36.8706 42.9396 36.5841Z" stroke="#FF00FF" stroke-width="0.283465" stroke-miterlimit="10" stroke-linecap="round" stroke-linejoin="round"/>
<path fill-rule="evenodd" clip-rule="evenodd" d="M22.3922 9.21649C22.0946 8.8185 21.5307 8.73711 21.1327 9.0347L15.7897 13.0298C15.5625 13.1997 15.4287 13.4667 15.4287 13.7504C15.4287 14.0341 15.5625 14.3012 15.7897 14.4711L21.1327 18.4662C21.5307 18.7638 22.0946 18.6824 22.3922 18.2845C22.6898 17.8865 22.6084 17.3226 22.2104 17.025L17.981 13.8626C17.9062 13.8066 17.9062 13.6943 17.981 13.6383L22.2104 10.4759C22.6084 10.1784 22.6898 9.61448 22.3922 9.21649Z" fill="black"/>
<path d="M18.0759 36.6804L18.4852 34.7208C18.5596 34.2867 18.9007 34.0635 19.2604 34.0635C19.7689 34.0635 20.1223 34.541 19.9735 35.0247L19.3162 36.9594C19.2294 37.2695 18.9875 37.4369 18.6899 37.4369C18.2744 37.4369 18.0015 37.0896 18.0759 36.6804Z" fill="black"/>
<path fill-rule="evenodd" clip-rule="evenodd" d="M31.8832 25.9244C32.2745 25.95 32.5709 26.288 32.5453 26.6793C32.4776 27.7117 32.4274 28.9323 32.3957 30.2041C32.3955 30.2132 32.4062 30.2183 32.4131 30.2123V30.2123C33.6935 29.1016 35.2055 28.225 36.7683 28.4906C38.4946 28.7839 39.0695 30.3608 39.2251 31.6359C39.345 32.6191 39.2558 33.6461 39.1261 34.3755C39.1171 34.4257 39.1357 34.4768 39.1749 34.5096C39.5176 34.7965 39.87 35.1286 40.231 35.5093C40.5009 35.7939 40.489 36.2433 40.2045 36.5131C39.9199 36.7829 39.4705 36.771 39.2007 36.4865C39.0332 36.3099 38.8701 36.1473 38.7117 35.9977C38.6488 35.9384 38.5481 35.9514 38.4969 36.0211C38.1678 36.4687 37.737 36.7845 37.264 36.9788C36.5147 37.2866 35.6843 37.2823 35.0023 37.08C34.1311 36.8214 33.5945 36.1771 33.492 35.4204C33.3936 34.694 33.7088 33.9489 34.3336 33.4851C34.9732 33.0103 35.8664 32.8727 36.875 33.1774C37.1169 33.2505 37.3666 33.349 37.6237 33.4749C37.7126 33.5185 37.8194 33.462 37.8281 33.3634C37.8704 32.8788 37.8794 32.3312 37.8155 31.8079C37.6764 30.6676 37.2605 30.0146 36.5304 29.8905C35.6367 29.7386 34.5637 30.2266 33.3435 31.285C33.027 31.5596 32.7118 31.8626 32.3999 32.1858C32.3751 32.2115 32.3612 32.2457 32.3609 32.2814C32.3462 33.9334 32.3631 35.5484 32.4137 36.8371C32.4291 37.2289 32.1239 37.559 31.7321 37.5744C31.3403 37.5898 31.0102 37.2846 30.9948 36.8928C30.9639 36.1075 30.9454 35.2049 30.9387 34.2473C30.9377 34.1157 30.7727 34.0578 30.6908 34.1608C30.4304 34.4884 30.175 34.8196 29.926 35.1485C29.6894 35.4612 29.2441 35.5228 28.9314 35.2861C28.6188 35.0494 28.5572 34.6041 28.7938 34.2915C29.4412 33.4362 30.1561 32.5317 30.912 31.6985C30.935 31.6731 30.948 31.6403 30.9484 31.6061C30.9578 30.9291 30.9723 30.2523 30.9918 29.5946C30.9943 29.5105 30.9227 29.4431 30.8389 29.4515C30.4876 29.4869 30.0876 29.5359 29.6534 29.5979C29.2652 29.6534 28.9056 29.3836 28.8501 28.9955C28.7947 28.6073 29.0644 28.2476 29.4526 28.1922C29.9919 28.1151 30.4934 28.0556 30.9282 28.0166C30.9983 28.0103 31.0532 27.9533 31.0564 27.883C31.0777 27.4279 31.1017 26.9931 31.1283 26.5864C31.154 26.1952 31.492 25.8988 31.8832 25.9244ZM37.393 35.1222C37.4341 35.0604 37.4124 34.9782 37.3487 34.9402C37.0196 34.7443 36.724 34.6152 36.4643 34.5367C35.7955 34.3346 35.3893 34.47 35.18 34.6253C34.9558 34.7917 34.8726 35.034 34.8992 35.2298C34.9216 35.3952 35.0332 35.6079 35.4063 35.7186C35.8154 35.84 36.3095 35.8357 36.7244 35.6653C36.9801 35.5602 37.2154 35.3894 37.393 35.1222Z" fill="black"/>
<path fill-rule="evenodd" clip-rule="evenodd" d="M30.53 8.96004C30.4229 8.96004 30.3194 8.97177 30.2203 8.99375C29.8375 9.07871 29.4583 8.83725 29.3734 8.45444C29.2884 8.07163 29.5299 7.69243 29.9127 7.60748C30.1121 7.56323 30.3188 7.54004 30.53 7.54004H31.0005C31.3926 7.54004 31.7105 7.85792 31.7105 8.25004C31.7105 8.64216 31.3926 8.96004 31.0005 8.96004H30.53ZM32.7196 8.25004C32.7196 7.85792 33.0375 7.54004 33.4296 7.54004H34.3705C34.7626 7.54004 35.0805 7.85792 35.0805 8.25004C35.0805 8.64216 34.7626 8.96004 34.3705 8.96004H33.4296C33.0375 8.96004 32.7196 8.64216 32.7196 8.25004ZM36.0896 8.25004C36.0896 7.85792 36.4075 7.54004 36.7996 7.54004H37.27C37.4813 7.54004 37.688 7.56323 37.8874 7.60748C38.2702 7.69243 38.5116 8.07163 38.4267 8.45444C38.3417 8.83725 37.9625 9.07871 37.5797 8.99375C37.4807 8.97177 37.3771 8.96004 37.27 8.96004H36.7996C36.4075 8.96004 36.0896 8.64216 36.0896 8.25004ZM28.6044 9.22338C28.9872 9.30833 29.2287 9.68753 29.1437 10.0703C29.1218 10.1694 29.11 10.2729 29.11 10.38V10.8505C29.11 11.2426 28.7921 11.5605 28.4 11.5605C28.0079 11.5605 27.69 11.2426 27.69 10.8505V10.38C27.69 10.1688 27.7132 9.96209 27.7575 9.76269C27.8424 9.37989 28.2216 9.13843 28.6044 9.22338ZM39.1956 9.22338C39.5784 9.13843 39.9576 9.37989 40.0426 9.76269C40.0868 9.96209 40.11 10.1688 40.11 10.38V10.8505C40.11 11.2426 39.7921 11.5605 39.4 11.5605C39.0079 11.5605 38.69 11.2426 38.69 10.8505V10.38C38.69 10.2729 38.6783 10.1694 38.6563 10.0703C38.5713 9.68753 38.8128 9.30833 39.1956 9.22338ZM39.4 12.5696C39.7921 12.5696 40.11 12.8875 40.11 13.2796V14.2205C40.11 14.6126 39.7921 14.9305 39.4 14.9305C39.0079 14.9305 38.69 14.6126 38.69 14.2205V13.2796C38.69 12.8875 39.0079 12.5696 39.4 12.5696ZM28.4 12.5696C28.7921 12.5696 29.11 12.8875 29.11 13.2796V14.2205C29.11 14.6126 28.7921 14.9305 28.4 14.9305C28.0079 14.9305 27.69 14.6126 27.69 14.2205V13.2796C27.69 12.8875 28.0079 12.5696 28.4 12.5696ZM39.4 15.9396C39.7921 15.9396 40.11 16.2575 40.11 16.6496V17.12C40.11 17.3313 40.0868 17.538 40.0426 17.7374C39.9576 18.1202 39.5784 18.3617 39.1956 18.2767C38.8128 18.1917 38.5713 17.8125 38.6563 17.4297C38.6783 17.3307 38.69 17.2272 38.69 17.12V16.6496C38.69 16.2575 39.0079 15.9396 39.4 15.9396ZM38.4267 19.0456C38.5116 19.4284 38.2702 19.8076 37.8874 19.8926C37.688 19.9368 37.4813 19.96 37.27 19.96H36.7996C36.4075 19.96 36.0896 19.6422 36.0896 19.25C36.0896 18.8579 36.4075 18.54 36.7996 18.54H37.27C37.3771 18.54 37.4807 18.5283 37.5797 18.5063C37.9625 18.4214 38.3417 18.6628 38.4267 19.0456ZM32.7196 19.25C32.7196 18.8579 33.0375 18.54 33.4296 18.54H34.3705C34.7626 18.54 35.0805 18.8579 35.0805 19.25C35.0805 19.6422 34.7626 19.96 34.3705 19.96H33.4296C33.0375 19.96 32.7196 19.6422 32.7196 19.25ZM28.2869 16.4776C27.9899 16.2216 27.5416 16.2548 27.2855 16.5518C27.0295 16.8488 27.0627 17.2971 27.3597 17.5532C27.9047 18.023 28.7385 18.8576 29.3747 19.7371C29.6045 20.0548 30.0484 20.126 30.3661 19.8962C30.6838 19.6663 30.755 19.2225 30.5252 18.9048C29.8099 17.916 28.8947 17.0016 28.2869 16.4776Z" fill="black"/>
</svg>
