<svg width="54" height="54" viewBox="0 0 54 54" fill="none" xmlns="http://www.w3.org/2000/svg">
<rect x="1.85" y="1.84961" width="50.3" height="50.3" rx="3" stroke="#8B1EFF" stroke-width="0.28"/>
<path d="M9.91309 37.0481C9.83508 27.0612 9.73608 17.0731 9.61914 7.08509L9.6192 7.08265C9.62323 6.91663 9.63623 6.75062 9.65631 6.58448C9.67633 6.41944 9.70233 6.2555 9.73553 6.09205C9.76752 5.93006 9.80652 5.76905 9.85266 5.61024C9.89966 5.45228 9.95166 5.29627 10.0115 5.1421C10.1985 4.6681 10.4535 4.21717 10.77 3.81483C11.083 3.41785 11.456 3.06885 11.8725 2.78443C12.2875 2.50245 12.7465 2.28443 13.2258 2.13746C13.7078 1.99036 14.2118 1.91443 14.7141 1.90711C18.8081 1.8722 22.9021 1.85511 26.9963 1.85547C31.0893 1.85547 35.1833 1.87244 39.2776 1.90772C39.4396 1.91065 39.6016 1.92164 39.7635 1.93824C40.0035 1.96424 40.2435 2.00525 40.4799 2.06202C40.7139 2.11902 40.9449 2.19092 41.1697 2.28004C41.4037 2.37305 41.6287 2.48401 41.8449 2.61121C42.062 2.73914 42.2689 2.88318 42.4627 3.04212C42.6577 3.20215 42.8417 3.3772 43.0105 3.56373C43.1795 3.75269 43.3355 3.95472 43.476 4.16627C43.757 4.59534 43.975 5.06531 44.125 5.55701C44.276 6.05494 44.358 6.57496 44.373 7.09315C44.252 17.0701 44.154 27.0471 44.08 37.0256C44.074 37.1856 44.0601 37.3456 44.039 37.5042C44.018 37.6652 43.991 37.8241 43.9569 37.9818C43.9239 38.1408 43.8839 38.2988 43.8358 38.4542C43.7888 38.6102 43.7349 38.7642 43.675 38.9161C43.484 39.3912 43.228 39.8412 42.9172 40.25C42.6032 40.661 42.2352 41.0291 41.8244 41.34C41.4154 41.65 40.9624 41.9041 40.4838 42.0911C40.0098 42.276 39.5098 42.396 39.0063 42.444C31.0073 42.954 22.9843 42.954 14.9849 42.4441C14.6529 42.4121 14.3229 42.3482 14.0024 42.254C13.6794 42.16 13.3654 42.035 13.0632 41.8825C12.4602 41.5754 11.9092 41.1574 11.4476 40.6582C10.9866 40.1611 10.6126 39.5822 10.349 38.9601C10.219 38.6521 10.115 38.333 10.0411 38.0061C9.96912 37.6841 9.92407 37.3551 9.91113 37.025" stroke="#8B1EFF" stroke-width="0.283" stroke-miterlimit="10"/>
<rect x="12.6854" y="5.52734" width="28.63" height="34.31" rx="1.43" stroke="#00FFFF" stroke-width="0.28"/>
<path d="M42.9396 36.5831C42.9576 31.7312 42.9776 26.8782 43.0006 22.0262C43.0216 17.1732 43.0466 12.3212 43.0756 7.46814C43.0764 7.32349 43.0714 7.17944 43.0594 7.0365C43.0494 6.89343 43.0314 6.75049 43.0074 6.6095C42.9604 6.32739 42.8884 6.05347 42.7894 5.78845C42.7644 5.72241 42.7384 5.65649 42.7104 5.59143C42.6814 5.52539 42.6524 5.46045 42.6214 5.39746C42.5584 5.26941 42.4904 5.14648 42.4154 5.02747C42.2664 4.78943 42.0934 4.56946 41.8934 4.36548C41.6954 4.16248 41.4774 3.98547 41.2434 3.8324C41.1264 3.75647 41.0054 3.68542 40.8794 3.62146C40.8164 3.58948 40.7534 3.55847 40.6874 3.52942C40.6234 3.49939 40.5564 3.47241 40.4904 3.44641C40.2234 3.34241 39.9504 3.26746 39.6714 3.21643C39.3924 3.16541 39.1074 3.1394 38.8164 3.13647C37.8376 3.12891 36.8566 3.12085 35.8735 3.11487C34.8896 3.10791 33.9056 3.10291 32.9205 3.0979C30.9496 3.08984 28.9756 3.08594 26.9985 3.08594C26.5035 3.08594 26.0096 3.08594 25.5146 3.08594C25.0206 3.08691 24.5256 3.08789 24.0306 3.08887C23.0416 3.09094 22.0536 3.09387 21.0685 3.0979C19.0966 3.10693 17.1326 3.11987 15.1755 3.13684C15.0298 3.13794 14.8859 3.14587 14.7408 3.15894C14.5979 3.17285 14.4539 3.19189 14.3129 3.2179C14.0298 3.2699 13.7559 3.34692 13.4908 3.45093C13.4249 3.47693 13.3599 3.50391 13.2949 3.53394C13.2299 3.56287 13.1649 3.59485 13.1019 3.62695C12.9749 3.69287 12.8539 3.76392 12.7359 3.84192C12.5009 3.99585 12.2839 4.17493 12.0859 4.37891C12.0369 4.42896 11.9889 4.48193 11.9429 4.53491C11.8969 4.58789 11.8519 4.64185 11.8089 4.69788C11.7229 4.80786 11.6429 4.92285 11.5688 5.04089C11.4949 5.15991 11.4279 5.28296 11.3649 5.40894C11.3349 5.47192 11.3058 5.53589 11.2779 5.60193C11.2499 5.66687 11.2239 5.73389 11.1989 5.8009C11.1009 6.06689 11.0298 6.33984 10.9839 6.61792C10.9379 6.89587 10.9149 7.17993 10.9169 7.46887C10.9452 12.3214 10.9712 17.1735 10.9932 22.0265C11.0162 26.8784 11.0352 31.7314 11.0532 36.5835C11.0539 36.8702 11.0779 37.1542 11.1279 37.4382C11.1409 37.5092 11.1549 37.5802 11.1699 37.6501C11.1859 37.7202 11.2019 37.7902 11.2209 37.8591C11.2579 37.9982 11.3009 38.1342 11.3499 38.2692C11.3989 38.4042 11.4529 38.5372 11.5149 38.6672C11.5459 38.7322 11.5769 38.7972 11.6119 38.8612C11.6459 38.9252 11.6809 38.9891 11.7179 39.0522C11.8649 39.3022 12.0329 39.5352 12.2239 39.7522C12.3189 39.8602 12.4199 39.9642 12.5269 40.0642C12.5789 40.1141 12.6339 40.1622 12.6899 40.2092C12.7449 40.2562 12.8009 40.3011 12.8589 40.3452C13.0879 40.5201 13.3319 40.6711 13.5919 40.7972C13.6569 40.8292 13.7229 40.8591 13.7899 40.8872C13.8569 40.9161 13.9239 40.9421 13.9919 40.9672C14.1279 41.0172 14.2649 41.0602 14.4039 41.0962C14.6799 41.1682 14.9629 41.2122 15.2509 41.2302C16.2241 41.2906 17.1991 41.3436 18.1771 41.3887C19.1531 41.4347 20.1321 41.4717 21.1111 41.5017C23.0681 41.5626 25.0291 41.5927 26.9941 41.5927C27.485 41.5927 27.9771 41.5907 28.4681 41.5867C28.959 41.5836 29.451 41.5776 29.9421 41.5697C30.925 41.5547 31.9061 41.5326 32.886 41.5017C34.8441 41.4417 36.7961 41.3517 38.7414 41.2306C38.8864 41.2217 39.0294 41.2057 39.1724 41.1836C39.2433 41.1716 39.3144 41.1587 39.3864 41.1437C39.4564 41.1287 39.5273 41.1127 39.5964 41.0936C39.8763 41.0216 40.1454 40.9216 40.4044 40.7947C40.4703 40.7637 40.5334 40.7306 40.5964 40.6957C40.6603 40.6606 40.7234 40.6237 40.7853 40.5846C40.9094 40.5087 41.0284 40.4257 41.1423 40.3376C41.3724 40.1626 41.5823 39.9657 41.7734 39.7477C41.8214 39.6926 41.8674 39.6366 41.9134 39.5797C41.9584 39.5227 42.0024 39.4646 42.0444 39.4056C42.1293 39.2887 42.2073 39.1676 42.2794 39.0437C42.4254 38.7957 42.5464 38.5366 42.6443 38.2646C42.6694 38.1967 42.6924 38.1277 42.7144 38.0586C42.7354 37.9896 42.7554 37.9207 42.7734 37.8517C42.8104 37.7126 42.8414 37.5736 42.8654 37.4336C42.9144 37.1527 42.9384 36.8696 42.9396 36.5831Z" stroke="#FF00FF" stroke-width="0.283465" stroke-miterlimit="10" stroke-linecap="round" stroke-linejoin="round"/>
<path d="M17.25 25.7491C16.8594 25.7491 16.6201 25.505 16.6201 25.0948V19.3574C16.6201 18.9472 16.8594 18.7031 17.25 18.7031H20.6827C21.0294 18.7031 21.2589 18.9082 21.2589 19.2353C21.2589 19.5624 21.0294 19.7675 20.6827 19.7675H18.0217C17.9434 19.7675 17.88 19.831 17.88 19.9092V21.5301C17.88 21.6084 17.9435 21.6718 18.0217 21.6718H20.5362C20.8585 21.6718 21.0782 21.8622 21.0782 22.1699C21.0782 22.4776 20.8634 22.6728 20.5362 22.6728H18.0217C17.9434 22.6728 17.88 22.7363 17.88 22.8145V24.5428C17.88 24.6211 17.9435 24.6845 18.0217 24.6845H20.6827C21.0294 24.6845 21.2589 24.8896 21.2589 25.2167C21.2589 25.5438 21.0294 25.7489 20.6827 25.7489H17.25V25.7491Z" fill="black"/>
<path d="M30.4425 21.48C31.1995 21.48 31.7025 22.1393 31.7074 23.1551C31.7025 24.1611 31.2287 24.8302 30.4425 24.8302C29.6563 24.8302 29.1679 24.1758 29.1679 23.1551C29.1679 22.1295 29.6855 21.48 30.4425 21.48ZM27.9226 23.1552C27.9226 24.8108 28.7577 25.8314 30.0715 25.8314C30.5575 25.8314 31.3276 25.5874 31.6285 25.4854C31.696 25.4625 31.7707 25.4922 31.8024 25.5562C31.8104 25.5725 31.8187 25.5887 31.8291 25.6035C31.9485 25.774 32.1242 25.846 32.3229 25.846C32.6697 25.846 32.9138 25.6214 32.9138 25.2209V19.2433C32.9137 18.833 32.6647 18.6035 32.3081 18.6035C31.9515 18.6035 31.6976 18.833 31.6976 19.2433V20.7234C31.6976 20.8261 31.5917 20.895 31.4981 20.8528C31.1362 20.6899 30.5335 20.4837 30.0518 20.4837C28.7528 20.4837 27.9226 21.5044 27.9226 23.1551V23.1552Z" fill="black"/>
<path d="M22.3511 25.2062V21.0842C22.3511 20.708 22.5709 20.4688 22.9323 20.4688C23.1391 20.4688 23.3081 20.5492 23.4136 20.6902C23.4392 20.7244 23.461 20.7632 23.4787 20.7996C23.5131 20.8704 23.5976 20.9005 23.6683 20.8662C23.9345 20.7372 24.5538 20.4737 25.1692 20.4737C26.3121 20.4737 26.9617 21.2063 26.9617 22.4029V25.2063C26.9617 25.6167 26.7126 25.8461 26.3561 25.8461C25.9996 25.8461 25.7456 25.6165 25.7456 25.2063V22.6471C25.7456 21.9145 25.4037 21.5043 24.7102 21.5043C24.0167 21.5043 23.5673 22.0073 23.5673 22.7497V25.2063C23.5673 25.6167 23.3133 25.8461 22.9568 25.8461C22.6003 25.8461 22.3511 25.6165 22.3511 25.2062Z" fill="black"/>
</svg>
