<svg width="54" height="54" viewBox="0 0 54 54" fill="none" xmlns="http://www.w3.org/2000/svg">
<rect x="1.85" y="1.84961" width="50.3" height="50.3" rx="3" stroke="#8B1EFF" stroke-width="0.28"/>
<path d="M9.91309 37.0481C9.83508 27.0612 9.73608 17.0731 9.61914 7.08509L9.6192 7.08265C9.62323 6.91663 9.63623 6.75062 9.65631 6.58448C9.67633 6.41944 9.70233 6.2555 9.73553 6.09205C9.76752 5.93006 9.80652 5.76905 9.85266 5.61024C9.89966 5.45228 9.95166 5.29627 10.0115 5.1421C10.1985 4.6681 10.4535 4.21717 10.77 3.81483C11.083 3.41785 11.456 3.06885 11.8725 2.78443C12.2875 2.50245 12.7465 2.28443 13.2258 2.13746C13.7078 1.99036 14.2118 1.91443 14.7141 1.90711C18.8081 1.8722 22.9021 1.85511 26.9963 1.85547C31.0893 1.85547 35.1833 1.87244 39.2776 1.90772C39.4396 1.91065 39.6016 1.92164 39.7635 1.93824C40.0035 1.96424 40.2435 2.00525 40.4799 2.06202C40.7139 2.11902 40.9449 2.19092 41.1697 2.28004C41.4037 2.37305 41.6287 2.48401 41.8449 2.61121C42.062 2.73914 42.2689 2.88318 42.4627 3.04212C42.6577 3.20215 42.8417 3.3772 43.0105 3.56373C43.1795 3.75269 43.3355 3.95472 43.476 4.16627C43.757 4.59534 43.975 5.06531 44.125 5.55701C44.276 6.05494 44.358 6.57496 44.373 7.09315C44.252 17.0701 44.154 27.0471 44.08 37.0256C44.074 37.1856 44.0601 37.3456 44.039 37.5042C44.018 37.6652 43.991 37.8241 43.9569 37.9818C43.9239 38.1408 43.8839 38.2988 43.8358 38.4542C43.7888 38.6102 43.7349 38.7642 43.675 38.9161C43.484 39.3912 43.228 39.8412 42.9172 40.25C42.6032 40.661 42.2352 41.0291 41.8244 41.34C41.4154 41.65 40.9624 41.9041 40.4838 42.0911C40.0098 42.276 39.5098 42.396 39.0063 42.444C31.0073 42.954 22.9843 42.954 14.9849 42.4441C14.6529 42.4121 14.3229 42.3482 14.0024 42.254C13.6794 42.16 13.3654 42.035 13.0632 41.8825C12.4602 41.5754 11.9092 41.1574 11.4476 40.6582C10.9866 40.1611 10.6126 39.5822 10.349 38.9601C10.219 38.6521 10.115 38.333 10.0411 38.0061C9.96912 37.6841 9.92407 37.3551 9.91113 37.025" stroke="#8B1EFF" stroke-width="0.283" stroke-miterlimit="10"/>
<rect x="12.6854" y="5.52734" width="28.63" height="34.31" rx="1.43" stroke="#00FFFF" stroke-width="0.28"/>
<path d="M42.9396 36.5831C42.9576 31.7312 42.9776 26.8782 43.0006 22.0262C43.0216 17.1732 43.0466 12.3212 43.0756 7.46814C43.0764 7.32349 43.0714 7.17944 43.0594 7.0365C43.0494 6.89343 43.0314 6.75049 43.0074 6.6095C42.9604 6.32739 42.8884 6.05347 42.7894 5.78845C42.7644 5.72241 42.7384 5.65649 42.7104 5.59143C42.6814 5.52539 42.6524 5.46045 42.6214 5.39746C42.5584 5.26941 42.4904 5.14648 42.4154 5.02747C42.2664 4.78943 42.0934 4.56946 41.8934 4.36548C41.6954 4.16248 41.4774 3.98547 41.2434 3.8324C41.1264 3.75647 41.0054 3.68542 40.8794 3.62146C40.8164 3.58948 40.7534 3.55847 40.6874 3.52942C40.6234 3.49939 40.5564 3.47241 40.4904 3.44641C40.2234 3.34241 39.9504 3.26746 39.6714 3.21643C39.3924 3.16541 39.1074 3.1394 38.8164 3.13647C37.8376 3.12891 36.8566 3.12085 35.8735 3.11487C34.8896 3.10791 33.9056 3.10291 32.9205 3.0979C30.9496 3.08984 28.9756 3.08594 26.9985 3.08594C26.5035 3.08594 26.0096 3.08594 25.5146 3.08594C25.0206 3.08691 24.5256 3.08789 24.0306 3.08887C23.0416 3.09094 22.0536 3.09387 21.0685 3.0979C19.0966 3.10693 17.1326 3.11987 15.1755 3.13684C15.0298 3.13794 14.8859 3.14587 14.7408 3.15894C14.5979 3.17285 14.4539 3.19189 14.3129 3.2179C14.0298 3.2699 13.7559 3.34692 13.4908 3.45093C13.4249 3.47693 13.3599 3.50391 13.2949 3.53394C13.2299 3.56287 13.1649 3.59485 13.1019 3.62695C12.9749 3.69287 12.8539 3.76392 12.7359 3.84192C12.5009 3.99585 12.2839 4.17493 12.0859 4.37891C12.0369 4.42896 11.9889 4.48193 11.9429 4.53491C11.8969 4.58789 11.8519 4.64185 11.8089 4.69788C11.7229 4.80786 11.6429 4.92285 11.5688 5.04089C11.4949 5.15991 11.4279 5.28296 11.3649 5.40894C11.3349 5.47192 11.3058 5.53589 11.2779 5.60193C11.2499 5.66687 11.2239 5.73389 11.1989 5.8009C11.1009 6.06689 11.0298 6.33984 10.9839 6.61792C10.9379 6.89587 10.9149 7.17993 10.9169 7.46887C10.9452 12.3214 10.9712 17.1735 10.9932 22.0265C11.0162 26.8784 11.0352 31.7314 11.0532 36.5835C11.0539 36.8702 11.0779 37.1542 11.1279 37.4382C11.1409 37.5092 11.1549 37.5802 11.1699 37.6501C11.1859 37.7202 11.2019 37.7902 11.2209 37.8591C11.2579 37.9982 11.3009 38.1342 11.3499 38.2692C11.3989 38.4042 11.4529 38.5372 11.5149 38.6672C11.5459 38.7322 11.5769 38.7972 11.6119 38.8612C11.6459 38.9252 11.6809 38.9891 11.7179 39.0522C11.8649 39.3022 12.0329 39.5352 12.2239 39.7522C12.3189 39.8602 12.4199 39.9642 12.5269 40.0642C12.5789 40.1141 12.6339 40.1622 12.6899 40.2092C12.7449 40.2562 12.8009 40.3011 12.8589 40.3452C13.0879 40.5201 13.3319 40.6711 13.5919 40.7972C13.6569 40.8292 13.7229 40.8591 13.7899 40.8872C13.8569 40.9161 13.9239 40.9421 13.9919 40.9672C14.1279 41.0172 14.2649 41.0602 14.4039 41.0962C14.6799 41.1682 14.9629 41.2122 15.2509 41.2302C16.2241 41.2906 17.1991 41.3436 18.1771 41.3887C19.1531 41.4347 20.1321 41.4717 21.1111 41.5017C23.0681 41.5626 25.0291 41.5927 26.9941 41.5927C27.485 41.5927 27.9771 41.5907 28.4681 41.5867C28.959 41.5836 29.451 41.5776 29.9421 41.5697C30.925 41.5547 31.9061 41.5326 32.886 41.5017C34.8441 41.4417 36.7961 41.3517 38.7414 41.2306C38.8864 41.2217 39.0294 41.2057 39.1724 41.1836C39.2433 41.1716 39.3144 41.1587 39.3864 41.1437C39.4564 41.1287 39.5273 41.1127 39.5964 41.0936C39.8763 41.0216 40.1454 40.9216 40.4044 40.7947C40.4703 40.7637 40.5334 40.7306 40.5964 40.6957C40.6603 40.6606 40.7234 40.6237 40.7853 40.5846C40.9094 40.5087 41.0284 40.4257 41.1423 40.3376C41.3724 40.1626 41.5823 39.9657 41.7734 39.7477C41.8214 39.6926 41.8674 39.6366 41.9134 39.5797C41.9584 39.5227 42.0024 39.4646 42.0444 39.4056C42.1293 39.2887 42.2073 39.1676 42.2794 39.0437C42.4254 38.7957 42.5464 38.5366 42.6443 38.2646C42.6694 38.1967 42.6924 38.1277 42.7144 38.0586C42.7354 37.9896 42.7554 37.9207 42.7734 37.8517C42.8104 37.7126 42.8414 37.5736 42.8654 37.4336C42.9144 37.1527 42.9384 36.8696 42.9396 36.5831Z" stroke="#FF00FF" stroke-width="0.283465" stroke-miterlimit="10" stroke-linecap="round" stroke-linejoin="round"/>
<path fill-rule="evenodd" clip-rule="evenodd" d="M18.2201 12.5908C18.2201 12.2494 18.4957 11.9708 18.8401 11.9708H27.1601C27.5014 11.9708 27.7801 12.2464 27.7801 12.5908V20.9108C27.7801 21.2521 27.5045 21.5308 27.1601 21.5308H18.8401C18.4987 21.5308 18.2201 21.2552 18.2201 20.9108V12.5908ZM18.8401 10.5508C17.7045 10.5508 16.8001 11.4721 16.8001 12.5908V20.9108C16.8001 22.0464 17.7214 22.9508 18.8401 22.9508H27.1601C28.2957 22.9508 29.2001 22.0294 29.2001 20.9108V12.5908C29.2001 11.4552 28.2787 10.5508 27.1601 10.5508H18.8401ZM20.2601 16.0408C19.8679 16.0408 19.5501 16.3587 19.5501 16.7508C19.5501 17.1429 19.8679 17.4608 20.2601 17.4608H25.7501C26.1422 17.4608 26.4601 17.1429 26.4601 16.7508C26.4601 16.3587 26.1422 16.0408 25.7501 16.0408H20.2601ZM19.5501 19.5008C19.5501 19.1087 19.8679 18.7908 20.2601 18.7908H25.7501C26.1422 18.7908 26.4601 19.1087 26.4601 19.5008C26.4601 19.8929 26.1422 20.2108 25.7501 20.2108H20.2601C19.8679 20.2108 19.5501 19.8929 19.5501 19.5008ZM20.2601 13.3008C19.8679 13.3008 19.5501 13.6187 19.5501 14.0108C19.5501 14.4029 19.8679 14.7208 20.2601 14.7208H25.7501C26.1422 14.7208 26.4601 14.4029 26.4601 14.0108C26.4601 13.6187 26.1422 13.3008 25.7501 13.3008H20.2601Z" fill="black"/>
<path d="M16.8635 35.8321C16.4729 35.8321 16.2336 35.5928 16.2336 35.1778V29.3574C16.2336 28.9472 16.4729 28.7031 16.8635 28.7031H20.2327C20.5794 28.7031 20.8089 28.9082 20.8089 29.2353C20.8089 29.5624 20.5745 29.7675 20.2327 29.7675H17.6351C17.5568 29.7675 17.4934 29.831 17.4934 29.9092V31.7058C17.4934 31.7841 17.5569 31.8475 17.6351 31.8475H19.9787C20.3107 31.8475 20.5305 32.0428 20.5305 32.3602C20.5305 32.6776 20.3108 32.8729 19.9787 32.8729H17.6351C17.5568 32.8729 17.4934 32.9364 17.4934 33.0146V35.1776C17.4934 35.5926 17.259 35.8319 16.8635 35.8319V35.8321Z" fill="black"/>
<path d="M35.5692 35.8506C34.0555 35.8506 33.0789 34.8252 33.0789 33.165C33.0789 31.5048 34.0506 30.4648 35.5594 30.4648C36.575 30.4648 37.4393 30.9873 37.6883 31.7148C37.7274 31.8173 37.7518 31.9199 37.7518 32.0078C37.7518 32.3105 37.5223 32.4961 37.2293 32.4961C36.9852 32.4961 36.8387 32.3936 36.6971 32.1494C36.4383 31.6758 36.0965 31.4512 35.5936 31.4512C34.8123 31.4512 34.3143 32.1006 34.3143 33.1602C34.3143 34.2198 34.8172 34.8692 35.5887 34.8692C36.1258 34.8692 36.4578 34.6202 36.6922 34.2051C36.8582 33.9317 36.9901 33.8291 37.2537 33.8291C37.5418 33.8291 37.7664 34.0244 37.7664 34.3272C37.7664 34.42 37.742 34.5225 37.6932 34.6397C37.4051 35.3477 36.5457 35.8506 35.5692 35.8506Z" fill="black"/>
<path d="M27.5063 35.2062V31.0842C27.5063 30.708 27.7261 30.4688 28.0875 30.4688C28.2943 30.4688 28.4633 30.5492 28.5688 30.6902C28.5944 30.7244 28.6162 30.7632 28.6339 30.7996C28.6683 30.8704 28.7528 30.9005 28.8235 30.8662C29.0897 30.7372 29.709 30.4737 30.3244 30.4737C31.4673 30.4737 32.1169 31.2063 32.1169 32.4029V35.2063C32.1169 35.6167 31.8678 35.8461 31.5113 35.8461C31.1548 35.8461 30.9008 35.6165 30.9008 35.2063V32.6471C30.9008 31.9145 30.5589 31.5043 29.8654 31.5043C29.1719 31.5043 28.7225 32.0073 28.7225 32.7497V35.2063C28.7225 35.6167 28.4685 35.8461 28.112 35.8461C27.7555 35.8461 27.5063 35.6165 27.5063 35.2062Z" fill="black"/>
<path d="M21.6963 33.9169V31.1085C21.6963 30.7031 21.9454 30.4688 22.3019 30.4688C22.6584 30.4688 22.9124 30.7032 22.9124 31.1134V33.6727C22.9124 34.4151 23.2738 34.8156 23.9576 34.8156C24.6414 34.8156 25.0956 34.3175 25.0956 33.5654V31.1085C25.0956 30.7031 25.3496 30.4688 25.7061 30.4688C26.0626 30.4688 26.3117 30.7032 26.3117 31.1134V35.2308C26.3117 35.6215 26.0773 35.8463 25.7305 35.8463C25.4957 35.8463 25.311 35.746 25.2141 35.5631C25.2082 35.5519 25.2026 35.541 25.1973 35.5306C25.1629 35.4622 25.0806 35.4334 25.0112 35.4657C24.7503 35.5869 24.1315 35.8412 23.5326 35.8412C22.4094 35.8414 21.6963 35.1136 21.6963 33.9169Z" fill="black"/>
</svg>
