<svg width="81" height="54" viewBox="0 0 81 54" fill="none" xmlns="http://www.w3.org/2000/svg">
<rect x="1.8501" y="1.84998" width="77.3" height="50.3" rx="3" stroke="#8B1EFF" stroke-width="0.28"/>
<path d="M71.0066 37.0027C71.0846 27.0807 71.1916 17.1587 71.3296 7.23665C71.3196 6.87965 71.2786 6.52266 71.2033 6.17201C71.1303 5.82301 71.0243 5.48201 70.8845 5.15382C70.7465 4.82881 70.5755 4.51686 70.3758 4.22511C70.1758 3.93513 69.9478 3.66512 69.6946 3.42079C69.4416 3.17781 69.1646 2.96077 68.8691 2.77412C68.5731 2.58711 68.2581 2.42915 67.9323 2.30342C67.6063 2.17744 67.2673 2.0815 66.9235 2.01741C66.5775 1.95345 66.2275 1.91939 65.8743 1.91585C48.9603 1.82491 32.0453 1.82491 15.1315 1.91548C14.7935 1.92159 14.4565 1.95454 14.1239 2.01485C13.7919 2.07381 13.4639 2.15974 13.1493 2.27437C12.9003 2.36739 12.6573 2.47835 12.4243 2.60493C12.1923 2.73299 11.9683 2.87801 11.7566 3.03865C11.5456 3.20058 11.3466 3.37856 11.1627 3.57112C10.9777 3.76515 10.8097 3.97414 10.6584 4.19398C10.5064 4.41493 10.3714 4.64796 10.2536 4.88844C10.1356 5.13149 10.0356 5.38149 9.95221 5.63869C9.78619 6.15468 9.69119 6.69667 9.67749 7.23622C9.81149 17.1582 9.91852 27.0802 9.99991 37.0013C10.0249 37.6633 10.1749 38.3273 10.4398 38.9409C10.7088 39.5659 11.0948 40.1389 11.5707 40.6231C12.0497 41.1111 12.6177 41.5101 13.2406 41.796C13.8576 42.0809 14.5286 42.254 15.2024 42.3051C23.6314 42.6481 32.0664 42.8191 40.5032 42.819C48.9392 42.819 57.3742 42.648 65.8041 42.3047C66.4781 42.2537 67.1481 42.0807 67.766 41.7968C68.388 41.5098 68.957 41.1109 69.4359 40.6232C69.9109 40.1383 70.2969 39.5662 70.5673 38.9408C70.8303 38.3278 70.9823 37.6638 71.0063 37.0007" stroke="#8B1EFF" stroke-width="0.283" stroke-miterlimit="10"/>
<path d="M11.2583 38.7131V6.44019C11.2583 5.26575 12.2093 4.31372 13.3843 4.31372H16.9273H64.1312H67.6743C68.8483 4.31372 69.8003 5.26575 69.8003 6.4397V38.7127C69.8003 39.8871 68.8483 40.8391 67.6743 40.8391L13.3843 40.8392C12.2093 40.8392 11.2583 39.8871 11.2583 38.7131Z" stroke="#00FFFF" stroke-width="0.28" stroke-miterlimit="10"/>
<path d="M65.6807 41.1327C48.9367 41.8178 32.0697 41.8178 15.3267 41.1327C15.0306 41.12 14.7386 41.083 14.4496 41.018C14.3046 40.986 14.1626 40.947 14.0226 40.902C13.8836 40.856 13.7456 40.805 13.6106 40.746C13.4756 40.688 13.3446 40.623 13.2156 40.552C13.1506 40.516 13.0866 40.478 13.0226 40.439C12.9606 40.4 12.8986 40.36 12.8386 40.318C12.5966 40.15 12.3726 39.961 12.1696 39.749C12.1186 39.696 12.0686 39.642 12.0196 39.586C11.9716 39.531 11.9246 39.473 11.8786 39.415C11.7876 39.3 11.7026 39.18 11.6246 39.057C11.4686 38.811 11.3376 38.552 11.2306 38.28C11.2046 38.211 11.1796 38.142 11.1566 38.073C11.1336 38.003 11.1116 37.933 11.0916 37.863C11.0526 37.723 11.0186 37.582 10.9926 37.44C10.9396 37.156 10.9136 36.869 10.9126 36.577C10.8965 31.7904 10.8785 27.0025 10.8585 22.2155C10.8385 17.4284 10.8155 12.6414 10.7905 7.85341C10.7817 7.69783 10.7757 7.54182 10.7767 7.38686C10.7777 7.23085 10.7867 7.07686 10.8037 6.92287C10.8107 6.84584 10.8217 6.76881 10.8337 6.69185C10.8457 6.61482 10.8597 6.53883 10.8757 6.46187C10.9077 6.31087 10.9477 6.16182 10.9957 6.01485C11.0427 5.86885 11.0977 5.72585 11.1627 5.58485C11.1937 5.51485 11.2277 5.44582 11.2637 5.37685C11.3007 5.30885 11.3387 5.24086 11.3787 5.17384C11.5377 4.90883 11.7247 4.66682 11.9397 4.44685C11.9937 4.39186 12.0497 4.33784 12.1067 4.28682C12.1357 4.25984 12.1647 4.23482 12.1937 4.20882C12.2237 4.18385 12.2537 4.15883 12.2837 4.13387C12.4047 4.03682 12.5307 3.94582 12.6607 3.86287C12.9207 3.69685 13.1987 3.55983 13.4927 3.44887C13.7867 3.33882 14.0877 3.25984 14.3927 3.20686C14.6987 3.15382 15.0107 3.12685 15.3257 3.12581C32.0702 3.03383 48.9372 3.03383 65.6802 3.12581C65.9963 3.12691 66.3083 3.15388 66.6133 3.20686C66.9193 3.2599 67.2203 3.33888 67.5143 3.44887C67.8083 3.55989 68.0853 3.69691 68.3463 3.86287C68.4763 3.94588 68.6013 4.0359 68.7223 4.13387C68.7523 4.15889 68.7823 4.18391 68.8123 4.20888C68.8413 4.2339 68.8703 4.2599 68.9003 4.2859C68.9563 4.33791 69.0123 4.39186 69.0663 4.44691C69.2803 4.66591 69.4683 4.90889 69.6283 5.1739C69.6683 5.23988 69.7063 5.30788 69.7423 5.37691C69.7793 5.4449 69.8123 5.51491 69.8443 5.58492C69.9073 5.72487 69.9633 5.86891 70.0113 6.01491C70.0593 6.1609 70.0993 6.30989 70.1303 6.46187C70.1473 6.53792 70.1603 6.61488 70.1733 6.69087C70.1853 6.7679 70.1953 6.84486 70.2033 6.92189C70.2203 7.07588 70.2283 7.23091 70.2303 7.38588C70.2313 7.54091 70.2253 7.69691 70.2163 7.85286C70.1912 12.64 70.1682 17.428 70.1482 22.215C70.1272 27.002 70.1102 31.79 70.0942 36.5767C70.0932 36.8687 70.0662 37.1587 70.0132 37.4458C69.9862 37.5907 69.9522 37.7327 69.9122 37.8717C69.8722 38.0117 69.8262 38.1497 69.7732 38.2847C69.7202 38.4198 69.6602 38.5527 69.5942 38.6837C69.5612 38.7497 69.5262 38.8147 69.4902 38.8787C69.4522 38.9428 69.4142 39.0058 69.3752 39.0667C69.2172 39.3137 69.0362 39.5427 68.8322 39.7547C68.7822 39.8067 68.7292 39.8587 68.6752 39.9087C68.6212 39.9597 68.5662 40.0087 68.5092 40.0567C68.3962 40.1527 68.2802 40.2417 68.1592 40.3237C67.9172 40.4898 67.6612 40.6317 67.3902 40.7487C67.3232 40.7777 67.2532 40.8057 67.1842 40.8317C67.1152 40.8577 67.0452 40.8817 66.9752 40.9038C66.8352 40.9497 66.6942 40.9877 66.5512 41.0197C66.2662 41.0827 65.9752 41.1207 65.6807 41.1327Z" stroke="#FF00FF" stroke-width="0.283465" stroke-miterlimit="10" stroke-linecap="round" stroke-linejoin="round"/>
<path d="M66.4147 44.9191V50.01H65.7982V45.5654H65.7684L64.5255 46.3907V45.7643L65.7982 44.9191H66.4147ZM68.0155 50.0498C67.8929 50.0498 67.7876 50.0059 67.6998 49.918C67.612 49.8302 67.5681 49.725 67.5681 49.6023C67.5681 49.4797 67.612 49.3745 67.6998 49.2866C67.7876 49.1988 67.8929 49.1549 68.0155 49.1549C68.1381 49.1549 68.2434 49.1988 68.3312 49.2866C68.419 49.3745 68.463 49.4797 68.463 49.6023C68.463 49.6835 68.4422 49.7581 68.4008 49.8261C68.361 49.894 68.3072 49.9487 68.2392 49.9901C68.1729 50.0299 68.0984 50.0498 68.0155 50.0498ZM70.9941 50.0796C70.7025 50.0796 70.4398 50.0216 70.2061 49.9056C69.9725 49.7896 69.7852 49.6305 69.6443 49.4283C69.5035 49.2262 69.4264 48.9958 69.4132 48.7373H70.0097C70.0329 48.9676 70.1373 49.1582 70.323 49.309C70.5102 49.4582 70.7339 49.5327 70.9941 49.5327C71.2029 49.5327 71.3885 49.4838 71.5509 49.3861C71.715 49.2883 71.8434 49.1541 71.9362 48.9834C72.0307 48.811 72.0779 48.6163 72.0779 48.3992C72.0779 48.1771 72.029 47.9791 71.9313 47.8051C71.8351 47.6294 71.7026 47.4911 71.5335 47.39C71.3645 47.2889 71.1714 47.2375 70.9543 47.2359C70.7986 47.2342 70.6386 47.2582 70.4746 47.308C70.3105 47.356 70.1755 47.4182 70.0694 47.4944L69.4927 47.4248L69.8009 44.9191H72.4458V45.466H70.318L70.139 46.9674H70.1688C70.2732 46.8845 70.4042 46.8158 70.5616 46.7611C70.719 46.7064 70.8831 46.679 71.0538 46.679C71.3653 46.679 71.6429 46.7536 71.8865 46.9028C72.1318 47.0503 72.324 47.2524 72.4632 47.5093C72.6041 47.7662 72.6745 48.0595 72.6745 48.3893C72.6745 48.7141 72.6016 49.0041 72.4558 49.2593C72.3116 49.5129 72.1127 49.7134 71.8592 49.8609C71.6056 50.0067 71.3173 50.0796 70.9941 50.0796ZM75.3225 50.0796C74.948 50.0796 74.629 49.9777 74.3655 49.7739C74.102 49.5684 73.9006 49.2709 73.7614 48.8815C73.6222 48.4904 73.5526 48.0181 73.5526 47.4646C73.5526 46.9144 73.6222 46.4446 73.7614 46.0551C73.9023 45.664 74.1045 45.3657 74.368 45.1602C74.6331 44.9531 74.9513 44.8495 75.3225 44.8495C75.6937 44.8495 76.0111 44.9531 76.2746 45.1602C76.5397 45.3657 76.7419 45.664 76.8811 46.0551C77.022 46.4446 77.0924 46.9144 77.0924 47.4646C77.0924 48.0181 77.0228 48.4904 76.8836 48.8815C76.7444 49.2709 76.543 49.5684 76.2795 49.7739C76.016 49.9777 75.697 50.0796 75.3225 50.0796ZM75.3225 49.5327C75.6937 49.5327 75.9821 49.3538 76.1876 48.9958C76.3931 48.6379 76.4958 48.1274 76.4958 47.4646C76.4958 47.0237 76.4486 46.6484 76.3541 46.3385C76.2613 46.0286 76.1271 45.7924 75.9514 45.63C75.7774 45.4676 75.5678 45.3864 75.3225 45.3864C74.9546 45.3864 74.6671 45.5679 74.4599 45.9308C74.2528 46.2921 74.1492 46.8033 74.1492 47.4646C74.1492 47.9054 74.1956 48.2799 74.2884 48.5881C74.3812 48.8964 74.5146 49.1309 74.6886 49.2916C74.8643 49.4524 75.0756 49.5327 75.3225 49.5327Z" fill="#0000FF"/>
<path fill-rule="evenodd" clip-rule="evenodd" d="M22.8788 16.8203C22.8788 16.4282 22.561 16.1103 22.1688 16.1103C21.7767 16.1103 21.4588 16.4282 21.4588 16.8203V17.5696C21.4588 17.647 21.3962 17.7096 21.3188 17.7096H18.71C18.3179 17.7096 18 18.0275 18 18.4196C18 18.8118 18.3179 19.1296 18.71 19.1296H22.1677L22.1688 19.1296L22.17 19.1296H25.628C26.0201 19.1296 26.338 18.8118 26.338 18.4196C26.338 18.0275 26.0201 17.7096 25.628 17.7096H23.0188C22.9415 17.7096 22.8788 17.647 22.8788 17.5696V16.8203ZM27.9026 16.1432C28.2947 16.1432 28.6126 16.4611 28.6126 16.8532V20.0128C28.6126 20.0901 28.6753 20.1528 28.7526 20.1528H30.1674C30.5595 20.1528 30.8774 20.4706 30.8774 20.8628C30.8774 21.2549 30.5595 21.5728 30.1674 21.5728H28.7526C28.6753 21.5728 28.6126 21.6355 28.6126 21.7128V25.9095C28.6126 26.3016 28.2947 26.6195 27.9026 26.6195C27.5105 26.6195 27.1926 26.3016 27.1926 25.9095V20.8734L27.1925 20.8628L27.1926 20.8521V16.8532C27.1926 16.4611 27.5105 16.1432 27.9026 16.1432ZM20.6964 21.6181C20.4314 21.7814 20.2696 22.0128 20.2696 22.4346C20.2696 22.8552 20.4312 23.0869 20.6966 23.2506C21.0093 23.4434 21.5102 23.5598 22.1691 23.5598C22.828 23.5598 23.3289 23.4434 23.6416 23.2506C23.907 23.0869 24.0686 22.8552 24.0686 22.4346C24.0686 22.0128 23.9068 21.7814 23.6418 21.6181C23.3292 21.4255 22.8284 21.3095 22.1691 21.3095C21.5098 21.3095 21.009 21.4255 20.6964 21.6181ZM19.9514 20.4092C20.5833 20.0199 21.3872 19.8895 22.1691 19.8895C22.951 19.8895 23.7549 20.0199 24.3868 20.4092C25.0662 20.8279 25.4886 21.5141 25.4886 22.4346C25.4886 23.3545 25.066 24.0404 24.387 24.4592C23.7553 24.8488 22.9514 24.9798 22.1691 24.9798C21.3868 24.9798 20.5829 24.8488 19.9512 24.4592C19.2722 24.0404 18.8496 23.3545 18.8496 22.4346C18.8496 21.5141 19.272 20.8279 19.9514 20.4092ZM21.6036 28.2823C21.6036 28.3596 21.6663 28.4223 21.7436 28.4223L28.2922 28.4223C28.6843 28.4223 29.0022 28.7402 29.0022 29.1323C29.0022 29.5244 28.6843 29.8423 28.2922 29.8423L20.8936 29.8423C20.7053 29.8423 20.5247 29.7675 20.3916 29.6344C20.2584 29.5012 20.1836 29.3206 20.1836 29.1323V26.4414C20.1836 26.0493 20.5015 25.7314 20.8936 25.7314C21.2857 25.7314 21.6036 26.0493 21.6036 26.4414V28.2823ZM42.0421 16.8706C42.0421 16.4785 41.7242 16.1606 41.3321 16.1606C40.9399 16.1606 40.6221 16.4785 40.6221 16.8706V21.3549L40.6219 21.3697L40.6221 21.3845V28.4821C40.6221 28.8742 40.9399 29.1921 41.3321 29.1921C41.7242 29.1921 42.0421 28.8742 42.0421 28.4821V22.2197C42.0421 22.1423 42.1047 22.0797 42.1821 22.0797H43.6686C44.0607 22.0797 44.3786 21.7618 44.3786 21.3697C44.3786 20.9775 44.0607 20.6597 43.6686 20.6597H42.1821C42.1047 20.6597 42.0421 20.597 42.0421 20.5197V16.8706ZM32.445 17.2129C32.0529 17.2129 31.735 17.5308 31.735 17.9229C31.735 18.315 32.0529 18.6329 32.445 18.6329H34.7761C34.8534 18.6329 34.9161 18.6956 34.9161 18.7729V20.5993C34.9161 20.5993 34.9161 20.5994 34.9161 20.5994C34.9161 20.5994 34.9161 20.5994 34.9161 20.5994L34.9161 20.6109C34.9107 21.5249 34.2665 22.6964 31.7749 24.691C31.4688 24.9361 31.4193 25.3829 31.6644 25.689C31.9094 25.9951 32.3562 26.0446 32.6623 25.7995C33.9608 24.7601 34.9011 23.842 35.5053 22.9692C35.5632 22.8854 35.689 22.8854 35.7469 22.9692C36.3511 23.842 37.2914 24.7601 38.5899 25.7995C38.896 26.0446 39.3428 25.9951 39.5878 25.689C39.8329 25.3829 39.7834 24.9361 39.4773 24.691C36.9872 22.6976 36.3422 21.5263 36.3361 20.6125V20.6049L36.3361 20.5994L36.3361 18.7729C36.3361 18.6956 36.3988 18.6329 36.4761 18.6329H38.808C39.2001 18.6329 39.518 18.315 39.518 17.9229C39.518 17.5308 39.2001 17.2129 38.808 17.2129H32.445Z" fill="black"/>
</svg>
