<svg width="54" height="54" viewBox="0 0 54 54" fill="none" xmlns="http://www.w3.org/2000/svg">
<rect x="1.8501" y="1.84998" width="50.3" height="50.3" rx="3" stroke="#8B1EFF" stroke-width="0.28"/>
<path d="M9.91309 37.0476C9.83508 27.0607 9.73608 17.0726 9.61914 7.0846L9.6192 7.08216C9.62323 6.91614 9.63623 6.75013 9.65631 6.58399C9.67633 6.41895 9.70233 6.25501 9.73553 6.09156C9.76752 5.92957 9.80652 5.76856 9.85266 5.60975C9.89966 5.45179 9.95166 5.29578 10.0115 5.14161C10.1985 4.66761 10.4535 4.21668 10.77 3.81434C11.083 3.41736 11.456 3.06837 11.8725 2.78394C12.2875 2.50196 12.7465 2.28394 13.2258 2.13697C13.7078 1.98987 14.2118 1.91395 14.7141 1.90662C18.8081 1.87171 22.9021 1.85462 26.9963 1.85499C31.0893 1.85499 35.1833 1.87195 39.2776 1.90723C39.4396 1.91016 39.6016 1.92115 39.7635 1.93775C40.0035 1.96375 40.2435 2.00477 40.4799 2.06153C40.7139 2.11854 40.9449 2.19044 41.1697 2.27955C41.4037 2.37256 41.6287 2.48353 41.8449 2.61072C42.062 2.73865 42.2689 2.8827 42.4627 3.04163C42.6577 3.20167 42.8417 3.37671 43.0105 3.56324C43.1795 3.7522 43.3355 3.95423 43.476 4.16578C43.757 4.59485 43.975 5.06483 44.125 5.55652C44.276 6.05445 44.358 6.57447 44.373 7.09266C44.252 17.0696 44.154 27.0466 44.08 37.0252C44.074 37.1851 44.0601 37.3451 44.039 37.5037C44.018 37.6647 43.991 37.8236 43.9569 37.9813C43.9239 38.1403 43.8839 38.2983 43.8358 38.4537C43.7888 38.6097 43.7349 38.7637 43.675 38.9157C43.484 39.3908 43.228 39.8407 42.9172 40.2495C42.6032 40.6605 42.2352 41.0286 41.8244 41.3395C41.4154 41.6495 40.9624 41.9036 40.4838 42.0906C40.0098 42.2755 39.5098 42.3955 39.0063 42.4435C31.0073 42.9535 22.9843 42.9535 14.9849 42.4436C14.6529 42.4116 14.3229 42.3477 14.0024 42.2535C13.6794 42.1596 13.3654 42.0346 13.0632 41.882C12.4602 41.575 11.9092 41.1569 11.4476 40.6577C10.9866 40.1607 10.6126 39.5817 10.349 38.9596C10.219 38.6516 10.115 38.3325 10.0411 38.0056C9.96912 37.6836 9.92407 37.3546 9.91113 37.0245" stroke="#8B1EFF" stroke-width="0.283" stroke-miterlimit="10"/>
<rect x="12.6855" y="5.52832" width="28.63" height="34.31" rx="1.43" stroke="#00FFFF" stroke-width="0.28"/>
<path d="M42.9396 36.5841C42.9576 31.7322 42.9776 26.8792 43.0006 22.0272C43.0216 17.1742 43.0466 12.3221 43.0756 7.46912C43.0764 7.32446 43.0714 7.18042 43.0594 7.03748C43.0494 6.89441 43.0314 6.75146 43.0074 6.61047C42.9604 6.32837 42.8884 6.05444 42.7894 5.78943C42.7644 5.72339 42.7384 5.65747 42.7104 5.59241C42.6814 5.52637 42.6524 5.46143 42.6214 5.39844C42.5584 5.27039 42.4904 5.14746 42.4154 5.02844C42.2664 4.79041 42.0934 4.57043 41.8934 4.36646C41.6954 4.16345 41.4774 3.98645 41.2434 3.83337C41.1264 3.75745 41.0054 3.6864 40.8794 3.62244C40.8164 3.59045 40.7534 3.55945 40.6874 3.5304C40.6234 3.50037 40.5564 3.47339 40.4904 3.44739C40.2234 3.34338 39.9504 3.26843 39.6714 3.21741C39.3924 3.16638 39.1074 3.14038 38.8164 3.13745C37.8376 3.12988 36.8566 3.12183 35.8735 3.11584C34.8896 3.10889 33.9056 3.10388 32.9205 3.09888C30.9496 3.09082 28.9756 3.08691 26.9985 3.08691C26.5035 3.08691 26.0096 3.08691 25.5146 3.08691C25.0206 3.08789 24.5256 3.08887 24.0306 3.08984C23.0416 3.09192 22.0536 3.09485 21.0685 3.09888C19.0966 3.10791 17.1326 3.12085 15.1755 3.13782C15.0298 3.13892 14.8859 3.14685 14.7408 3.15991C14.5979 3.17383 14.4539 3.19287 14.3129 3.21887C14.0298 3.27087 13.7559 3.3479 13.4908 3.4519C13.4249 3.47791 13.3599 3.50488 13.2949 3.53491C13.2299 3.56384 13.1649 3.59583 13.1019 3.62793C12.9749 3.69385 12.8539 3.76489 12.7359 3.8429C12.5009 3.99683 12.2839 4.1759 12.0859 4.37988C12.0369 4.42993 11.9889 4.48291 11.9429 4.53589C11.8969 4.58887 11.8519 4.64282 11.8089 4.69885C11.7229 4.80884 11.6429 4.92383 11.5688 5.04187C11.4949 5.16089 11.4279 5.28394 11.3649 5.40991C11.3349 5.4729 11.3058 5.53687 11.2779 5.60291C11.2499 5.66785 11.2239 5.73486 11.1989 5.80188C11.1009 6.06787 11.0298 6.34082 10.9839 6.6189C10.9379 6.89685 10.9149 7.18091 10.9169 7.46985C10.9452 12.3224 10.9712 17.1744 10.9932 22.0275C11.0162 26.8794 11.0352 31.7324 11.0532 36.5845C11.0539 36.8712 11.0779 37.1552 11.1279 37.4392C11.1409 37.5101 11.1549 37.5812 11.1699 37.6511C11.1859 37.7212 11.2019 37.7911 11.2209 37.8601C11.2579 37.9991 11.3009 38.1351 11.3499 38.2701C11.3989 38.4052 11.4529 38.5382 11.5149 38.6682C11.5459 38.7332 11.5769 38.7982 11.6119 38.8622C11.6459 38.9261 11.6809 38.9901 11.7179 39.0532C11.8649 39.3032 12.0329 39.5361 12.2239 39.7532C12.3189 39.8612 12.4199 39.9652 12.5269 40.0652C12.5789 40.1151 12.6339 40.1632 12.6899 40.2102C12.7449 40.2572 12.8009 40.3021 12.8589 40.3462C13.0879 40.5211 13.3319 40.6721 13.5919 40.7982C13.6569 40.8302 13.7229 40.8601 13.7899 40.8882C13.8569 40.9171 13.9239 40.9431 13.9919 40.9681C14.1279 41.0182 14.2649 41.0612 14.4039 41.0972C14.6799 41.1692 14.9629 41.2131 15.2509 41.2312C16.2241 41.2916 17.1991 41.3446 18.1771 41.3896C19.1531 41.4357 20.1321 41.4727 21.1111 41.5027C23.0681 41.5636 25.0291 41.5936 26.9941 41.5936C27.485 41.5936 27.9771 41.5917 28.4681 41.5876C28.959 41.5846 29.451 41.5786 29.9421 41.5707C30.925 41.5557 31.9061 41.5336 32.886 41.5027C34.8441 41.4426 36.7961 41.3527 38.7414 41.2316C38.8864 41.2227 39.0294 41.2067 39.1724 41.1846C39.2433 41.1726 39.3144 41.1597 39.3864 41.1447C39.4564 41.1296 39.5273 41.1136 39.5964 41.0946C39.8763 41.0226 40.1454 40.9226 40.4044 40.7957C40.4703 40.7646 40.5334 40.7316 40.5964 40.6967C40.6603 40.6616 40.7234 40.6246 40.7853 40.5856C40.9094 40.5096 41.0284 40.4266 41.1423 40.3386C41.3724 40.1636 41.5823 39.9667 41.7734 39.7487C41.8214 39.6936 41.8674 39.6376 41.9134 39.5807C41.9584 39.5237 42.0024 39.4656 42.0444 39.4066C42.1293 39.2897 42.2073 39.1686 42.2794 39.0447C42.4254 38.7966 42.5464 38.5376 42.6443 38.2656C42.6694 38.1976 42.6924 38.1287 42.7144 38.0596C42.7354 37.9906 42.7554 37.9216 42.7734 37.8527C42.8104 37.7136 42.8414 37.5746 42.8654 37.4346C42.9144 37.1537 42.9384 36.8706 42.9396 36.5841Z" stroke="#FF00FF" stroke-width="0.283465" stroke-miterlimit="10" stroke-linecap="round" stroke-linejoin="round"/>
<path fill-rule="evenodd" clip-rule="evenodd" d="M27.9972 12.946C28.3092 12.946 28.5622 13.1989 28.5622 13.511V14.931C28.5622 15.243 28.3092 15.496 27.9972 15.496C27.6851 15.496 27.4322 15.243 27.4322 14.931V13.511C27.4322 13.1989 27.6851 12.946 27.9972 12.946ZM27.9972 17.2105C28.3092 17.2105 28.5622 17.4635 28.5622 17.7755V19.1955C28.5622 19.5076 28.3092 19.7605 27.9972 19.7605C27.6851 19.7605 27.4322 19.5076 27.4322 19.1955V17.7755C27.4322 17.4635 27.6851 17.2105 27.9972 17.2105ZM28.5622 22.04C28.5622 21.728 28.3092 21.475 27.9972 21.475C27.6851 21.475 27.4322 21.728 27.4322 22.04V23.46C27.4322 23.7721 27.6851 24.025 27.9972 24.025C28.3092 24.025 28.5622 23.7721 28.5622 23.46V22.04ZM27.9972 25.7396C28.3092 25.7396 28.5622 25.9925 28.5622 26.3046V27.7246C28.5622 28.0366 28.3092 28.2896 27.9972 28.2896C27.6851 28.2896 27.4322 28.0366 27.4322 27.7246V26.3046C27.4322 25.9925 27.6851 25.7396 27.9972 25.7396ZM28.5622 30.5691C28.5622 30.257 28.3092 30.0041 27.9972 30.0041C27.6851 30.0041 27.4322 30.257 27.4322 30.5691V31.9891C27.4322 32.3011 27.6851 32.5541 27.9972 32.5541C28.3092 32.5541 28.5622 32.3011 28.5622 31.9891V30.5691ZM39.7409 16.1103C40.133 16.1103 40.4509 16.4282 40.4509 16.8203V18.9191L40.4509 18.9284L40.4509 18.9377V21.4116L40.4509 21.42L40.4509 21.4285L40.4509 23.7788C40.4509 24.1709 40.133 24.4888 39.7409 24.4888C39.3488 24.4888 39.0309 24.1709 39.0309 23.7788V22.27C39.0309 22.1927 38.9682 22.13 38.8909 22.13H37.6859C37.2938 22.13 36.976 21.8121 36.976 21.42C36.976 21.0279 37.2938 20.71 37.6859 20.71H38.8909C38.9682 20.71 39.0309 20.6473 39.0309 20.57V19.7784C39.0309 19.7011 38.9682 19.6384 38.8909 19.6384H37.686C37.2938 19.6384 36.976 19.3205 36.976 18.9284C36.976 18.5363 37.2938 18.2184 37.686 18.2184H38.8909C38.9682 18.2184 39.0309 18.1557 39.0309 18.0784V16.8203C39.0309 16.4282 39.3488 16.1103 39.7409 16.1103ZM38.2131 26.2583C38.691 26.504 38.909 26.8258 38.909 27.3015C38.909 27.7786 38.6907 28.1003 38.2133 28.3455C37.691 28.6137 36.8993 28.7554 35.9273 28.7554C34.9553 28.7554 34.1637 28.6137 33.6413 28.3455C33.1639 28.1003 32.9457 27.7786 32.9457 27.3015C32.9457 26.8258 33.1637 26.504 33.6415 26.2583C34.164 25.9898 34.9557 25.8476 35.9273 25.8476C36.899 25.8476 37.6907 25.9898 38.2131 26.2583ZM38.8623 24.9954C38.0486 24.5771 36.9945 24.4276 35.9273 24.4276C34.8601 24.4276 33.806 24.5771 32.9923 24.9954C32.1341 25.4366 31.5257 26.1967 31.5257 27.3015C31.5257 28.4072 32.1338 29.1675 32.9925 29.6086C33.8063 30.0266 34.8605 30.1754 35.9273 30.1754C36.9942 30.1754 38.0483 30.0266 38.8621 29.6086C39.7208 29.1675 40.329 28.4072 40.329 27.3015C40.329 26.1967 39.7206 25.4366 38.8623 24.9954ZM34.6807 20.2443C34.6807 19.4232 34.4419 18.9767 34.1654 18.7261C33.8759 18.4637 33.4317 18.3128 32.8354 18.3128C32.239 18.3128 31.7948 18.4637 31.5053 18.7261C31.2288 18.9767 30.99 19.4232 30.99 20.2443C30.99 21.0671 31.229 21.5132 31.5051 21.7633C31.7943 22.0253 32.2384 22.1758 32.8354 22.1758C33.4324 22.1758 33.8764 22.0253 34.1656 21.7633C34.4418 21.5132 34.6807 21.0671 34.6807 20.2443ZM32.8354 16.8928C33.6502 16.8928 34.4837 17.098 35.1191 17.674C35.7675 18.2618 36.1007 19.1361 36.1007 20.2443C36.1007 21.3536 35.7676 22.2282 35.1189 22.8158C34.4833 23.3915 33.6496 23.5958 32.8354 23.5958C32.0211 23.5958 31.1875 23.3915 30.5518 22.8158C29.9031 22.2282 29.57 21.3536 29.57 20.2443C29.57 19.1361 29.9032 18.2618 30.5516 17.674C31.187 17.098 32.0205 16.8928 32.8354 16.8928ZM18.4213 16.8203C18.4213 16.4282 18.1034 16.1103 17.7113 16.1103C17.3192 16.1103 17.0013 16.4282 17.0013 16.8203V17.5696C17.0013 17.647 16.9386 17.7096 16.8613 17.7096H14.2525C13.8604 17.7096 13.5425 18.0275 13.5425 18.4196C13.5425 18.8118 13.8604 19.1296 14.2525 19.1296H17.7101L17.7113 19.1296L17.7125 19.1296H21.1704C21.5626 19.1296 21.8804 18.8118 21.8804 18.4196C21.8804 18.0275 21.5626 17.7096 21.1704 17.7096H18.5613C18.484 17.7096 18.4213 17.647 18.4213 17.5696V16.8203ZM23.4451 16.1432C23.8372 16.1432 24.1551 16.4611 24.1551 16.8532V20.0128C24.1551 20.0901 24.2177 20.1528 24.2951 20.1528H25.7099C26.102 20.1528 26.4199 20.4706 26.4199 20.8628C26.4199 21.2549 26.102 21.5728 25.7099 21.5728H24.2951C24.2177 21.5728 24.1551 21.6355 24.1551 21.7128V25.9095C24.1551 26.3016 23.8372 26.6195 23.4451 26.6195C23.0529 26.6195 22.7351 26.3016 22.7351 25.9095V20.8734L22.735 20.8628L22.7351 20.8521V16.8532C22.7351 16.4611 23.0529 16.1432 23.4451 16.1432ZM16.2389 21.6181C15.9739 21.7814 15.8121 22.0128 15.8121 22.4346C15.8121 22.8552 15.9737 23.0869 16.2391 23.2506C16.5518 23.4434 17.0527 23.5598 17.7116 23.5598C18.3705 23.5598 18.8713 23.4434 19.1841 23.2506C19.4495 23.0869 19.6111 22.8552 19.6111 22.4346C19.6111 22.0128 19.4493 21.7814 19.1843 21.6181C18.8717 21.4255 18.3709 21.3095 17.7116 21.3095C17.0523 21.3095 16.5515 21.4255 16.2389 21.6181ZM15.4939 20.4092C16.1258 20.0199 16.9297 19.8895 17.7116 19.8895C18.4934 19.8895 19.2974 20.0199 19.9293 20.4092C20.6087 20.8279 21.0311 21.5141 21.0311 22.4346C21.0311 23.3545 20.6085 24.0404 19.9295 24.4592C19.2978 24.8488 18.4939 24.9798 17.7116 24.9798C16.9293 24.9798 16.1254 24.8488 15.4937 24.4592C14.8147 24.0404 14.3921 23.3545 14.3921 22.4346C14.3921 21.5141 14.8144 20.8279 15.4939 20.4092ZM17.1461 28.2823C17.1461 28.3596 17.2088 28.4223 17.2861 28.4223L23.8347 28.4223C24.2268 28.4223 24.5447 28.7402 24.5447 29.1323C24.5447 29.5244 24.2268 29.8423 23.8347 29.8423L16.4361 29.8423C16.2478 29.8423 16.0672 29.7675 15.934 29.6344C15.8009 29.5012 15.7261 29.3206 15.7261 29.1323V26.4414C15.7261 26.0493 16.044 25.7314 16.4361 25.7314C16.8282 25.7314 17.1461 26.0493 17.1461 26.4414V28.2823Z" fill="black"/>
</svg>
