<svg width="81" height="54" viewBox="0 0 81 54" fill="none" xmlns="http://www.w3.org/2000/svg">
<rect x="1.8501" y="1.84998" width="77.3" height="50.3" rx="3" stroke="#8B1EFF" stroke-width="0.28"/>
<path d="M71.0066 37.0027C71.0846 27.0807 71.1916 17.1587 71.3296 7.23665C71.3196 6.87965 71.2786 6.52266 71.2033 6.17201C71.1303 5.82301 71.0243 5.48201 70.8845 5.15382C70.7465 4.82881 70.5755 4.51686 70.3758 4.22511C70.1758 3.93513 69.9478 3.66512 69.6946 3.42079C69.4416 3.17781 69.1646 2.96077 68.8691 2.77412C68.5731 2.58711 68.2581 2.42915 67.9323 2.30342C67.6063 2.17744 67.2673 2.0815 66.9235 2.01741C66.5775 1.95345 66.2275 1.91939 65.8743 1.91585C48.9603 1.82491 32.0453 1.82491 15.1315 1.91548C14.7935 1.92159 14.4565 1.95454 14.1239 2.01485C13.7919 2.07381 13.4639 2.15974 13.1493 2.27437C12.9003 2.36739 12.6573 2.47835 12.4243 2.60493C12.1923 2.73299 11.9683 2.87801 11.7566 3.03865C11.5456 3.20058 11.3466 3.37856 11.1627 3.57112C10.9777 3.76515 10.8097 3.97414 10.6584 4.19398C10.5064 4.41493 10.3714 4.64796 10.2536 4.88844C10.1356 5.13149 10.0356 5.38149 9.95221 5.63869C9.78619 6.15468 9.69119 6.69667 9.67749 7.23622C9.81149 17.1582 9.91852 27.0802 9.99991 37.0013C10.0249 37.6633 10.1749 38.3273 10.4398 38.9409C10.7088 39.5659 11.0948 40.1389 11.5707 40.6231C12.0497 41.1111 12.6177 41.5101 13.2406 41.796C13.8576 42.0809 14.5286 42.254 15.2024 42.3051C23.6314 42.6481 32.0664 42.8191 40.5032 42.819C48.9392 42.819 57.3742 42.648 65.8041 42.3047C66.4781 42.2537 67.1481 42.0807 67.766 41.7968C68.388 41.5098 68.957 41.1109 69.4359 40.6232C69.9109 40.1383 70.2969 39.5662 70.5673 38.9408C70.8303 38.3278 70.9823 37.6638 71.0063 37.0007" stroke="#8B1EFF" stroke-width="0.283" stroke-miterlimit="10"/>
<path d="M11.2583 38.7131V6.44019C11.2583 5.26575 12.2093 4.31372 13.3843 4.31372H16.9273H64.1312H67.6743C68.8483 4.31372 69.8003 5.26575 69.8003 6.4397V38.7127C69.8003 39.8871 68.8483 40.8391 67.6743 40.8391L13.3843 40.8392C12.2093 40.8392 11.2583 39.8871 11.2583 38.7131Z" stroke="#00FFFF" stroke-width="0.28" stroke-miterlimit="10"/>
<path d="M65.6807 41.1327C48.9367 41.8178 32.0697 41.8178 15.3267 41.1327C15.0306 41.12 14.7386 41.083 14.4496 41.018C14.3046 40.986 14.1626 40.947 14.0226 40.902C13.8836 40.856 13.7456 40.805 13.6106 40.746C13.4756 40.688 13.3446 40.623 13.2156 40.552C13.1506 40.516 13.0866 40.478 13.0226 40.439C12.9606 40.4 12.8986 40.36 12.8386 40.318C12.5966 40.15 12.3726 39.961 12.1696 39.749C12.1186 39.696 12.0686 39.642 12.0196 39.586C11.9716 39.531 11.9246 39.473 11.8786 39.415C11.7876 39.3 11.7026 39.18 11.6246 39.057C11.4686 38.811 11.3376 38.552 11.2306 38.28C11.2046 38.211 11.1796 38.142 11.1566 38.073C11.1336 38.003 11.1116 37.933 11.0916 37.863C11.0526 37.723 11.0186 37.582 10.9926 37.44C10.9396 37.156 10.9136 36.869 10.9126 36.577C10.8965 31.7904 10.8785 27.0025 10.8585 22.2155C10.8385 17.4284 10.8155 12.6414 10.7905 7.85341C10.7817 7.69783 10.7757 7.54182 10.7767 7.38686C10.7777 7.23085 10.7867 7.07686 10.8037 6.92287C10.8107 6.84584 10.8217 6.76881 10.8337 6.69185C10.8457 6.61482 10.8597 6.53883 10.8757 6.46187C10.9077 6.31087 10.9477 6.16182 10.9957 6.01485C11.0427 5.86885 11.0977 5.72585 11.1627 5.58485C11.1937 5.51485 11.2277 5.44582 11.2637 5.37685C11.3007 5.30885 11.3387 5.24086 11.3787 5.17384C11.5377 4.90883 11.7247 4.66682 11.9397 4.44685C11.9937 4.39186 12.0497 4.33784 12.1067 4.28682C12.1357 4.25984 12.1647 4.23482 12.1937 4.20882C12.2237 4.18385 12.2537 4.15883 12.2837 4.13387C12.4047 4.03682 12.5307 3.94582 12.6607 3.86287C12.9207 3.69685 13.1987 3.55983 13.4927 3.44887C13.7867 3.33882 14.0877 3.25984 14.3927 3.20686C14.6987 3.15382 15.0107 3.12685 15.3257 3.12581C32.0702 3.03383 48.9372 3.03383 65.6802 3.12581C65.9963 3.12691 66.3083 3.15388 66.6133 3.20686C66.9193 3.2599 67.2203 3.33888 67.5143 3.44887C67.8083 3.55989 68.0853 3.69691 68.3463 3.86287C68.4763 3.94588 68.6013 4.0359 68.7223 4.13387C68.7523 4.15889 68.7823 4.18391 68.8123 4.20888C68.8413 4.2339 68.8703 4.2599 68.9003 4.2859C68.9563 4.33791 69.0123 4.39186 69.0663 4.44691C69.2803 4.66591 69.4683 4.90889 69.6283 5.1739C69.6683 5.23988 69.7063 5.30788 69.7423 5.37691C69.7793 5.4449 69.8123 5.51491 69.8443 5.58492C69.9073 5.72487 69.9633 5.86891 70.0113 6.01491C70.0593 6.1609 70.0993 6.30989 70.1303 6.46187C70.1473 6.53792 70.1603 6.61488 70.1733 6.69087C70.1853 6.7679 70.1953 6.84486 70.2033 6.92189C70.2203 7.07588 70.2283 7.23091 70.2303 7.38588C70.2313 7.54091 70.2253 7.69691 70.2163 7.85286C70.1912 12.64 70.1682 17.428 70.1482 22.215C70.1272 27.002 70.1102 31.79 70.0942 36.5767C70.0932 36.8687 70.0662 37.1587 70.0132 37.4458C69.9862 37.5907 69.9522 37.7327 69.9122 37.8717C69.8722 38.0117 69.8262 38.1497 69.7732 38.2847C69.7202 38.4198 69.6602 38.5527 69.5942 38.6837C69.5612 38.7497 69.5262 38.8147 69.4902 38.8787C69.4522 38.9428 69.4142 39.0058 69.3752 39.0667C69.2172 39.3137 69.0362 39.5427 68.8322 39.7547C68.7822 39.8067 68.7292 39.8587 68.6752 39.9087C68.6212 39.9597 68.5662 40.0087 68.5092 40.0567C68.3962 40.1527 68.2802 40.2417 68.1592 40.3237C67.9172 40.4898 67.6612 40.6317 67.3902 40.7487C67.3232 40.7777 67.2532 40.8057 67.1842 40.8317C67.1152 40.8577 67.0452 40.8817 66.9752 40.9038C66.8352 40.9497 66.6942 40.9877 66.5512 41.0197C66.2662 41.0827 65.9752 41.1207 65.6807 41.1327Z" stroke="#FF00FF" stroke-width="0.283465" stroke-miterlimit="10" stroke-linecap="round" stroke-linejoin="round"/>
<path d="M66.4147 44.9191V50.01H65.7982V45.5654H65.7684L64.5255 46.3907V45.7643L65.7982 44.9191H66.4147ZM68.0155 50.0498C67.8929 50.0498 67.7876 50.0059 67.6998 49.918C67.612 49.8302 67.5681 49.725 67.5681 49.6023C67.5681 49.4797 67.612 49.3745 67.6998 49.2866C67.7876 49.1988 67.8929 49.1549 68.0155 49.1549C68.1381 49.1549 68.2434 49.1988 68.3312 49.2866C68.419 49.3745 68.463 49.4797 68.463 49.6023C68.463 49.6835 68.4422 49.7581 68.4008 49.8261C68.361 49.894 68.3072 49.9487 68.2392 49.9901C68.1729 50.0299 68.0984 50.0498 68.0155 50.0498ZM70.9941 50.0796C70.7025 50.0796 70.4398 50.0216 70.2061 49.9056C69.9725 49.7896 69.7852 49.6305 69.6443 49.4283C69.5035 49.2262 69.4264 48.9958 69.4132 48.7373H70.0097C70.0329 48.9676 70.1373 49.1582 70.323 49.309C70.5102 49.4582 70.7339 49.5327 70.9941 49.5327C71.2029 49.5327 71.3885 49.4838 71.5509 49.3861C71.715 49.2883 71.8434 49.1541 71.9362 48.9834C72.0307 48.811 72.0779 48.6163 72.0779 48.3992C72.0779 48.1771 72.029 47.9791 71.9313 47.8051C71.8351 47.6294 71.7026 47.4911 71.5335 47.39C71.3645 47.2889 71.1714 47.2375 70.9543 47.2359C70.7986 47.2342 70.6386 47.2582 70.4746 47.308C70.3105 47.356 70.1755 47.4182 70.0694 47.4944L69.4927 47.4248L69.8009 44.9191H72.4458V45.466H70.318L70.139 46.9674H70.1688C70.2732 46.8845 70.4042 46.8158 70.5616 46.7611C70.719 46.7064 70.8831 46.679 71.0538 46.679C71.3653 46.679 71.6429 46.7536 71.8865 46.9028C72.1318 47.0503 72.324 47.2524 72.4632 47.5093C72.6041 47.7662 72.6745 48.0595 72.6745 48.3893C72.6745 48.7141 72.6016 49.0041 72.4558 49.2593C72.3116 49.5129 72.1127 49.7134 71.8592 49.8609C71.6056 50.0067 71.3173 50.0796 70.9941 50.0796ZM75.3225 50.0796C74.948 50.0796 74.629 49.9777 74.3655 49.7739C74.102 49.5684 73.9006 49.2709 73.7614 48.8815C73.6222 48.4904 73.5526 48.0181 73.5526 47.4646C73.5526 46.9144 73.6222 46.4446 73.7614 46.0551C73.9023 45.664 74.1045 45.3657 74.368 45.1602C74.6331 44.9531 74.9513 44.8495 75.3225 44.8495C75.6937 44.8495 76.0111 44.9531 76.2746 45.1602C76.5397 45.3657 76.7419 45.664 76.8811 46.0551C77.022 46.4446 77.0924 46.9144 77.0924 47.4646C77.0924 48.0181 77.0228 48.4904 76.8836 48.8815C76.7444 49.2709 76.543 49.5684 76.2795 49.7739C76.016 49.9777 75.697 50.0796 75.3225 50.0796ZM75.3225 49.5327C75.6937 49.5327 75.9821 49.3538 76.1876 48.9958C76.3931 48.6379 76.4958 48.1274 76.4958 47.4646C76.4958 47.0237 76.4486 46.6484 76.3541 46.3385C76.2613 46.0286 76.1271 45.7924 75.9514 45.63C75.7774 45.4676 75.5678 45.3864 75.3225 45.3864C74.9546 45.3864 74.6671 45.5679 74.4599 45.9308C74.2528 46.2921 74.1492 46.8033 74.1492 47.4646C74.1492 47.9054 74.1956 48.2799 74.2884 48.5881C74.3812 48.8964 74.5146 49.1309 74.6886 49.2916C74.8643 49.4524 75.0756 49.5327 75.3225 49.5327Z" fill="#0000FF"/>
<path fill-rule="evenodd" clip-rule="evenodd" d="M34.3601 12.9459C34.6721 12.9459 34.9251 13.1989 34.9251 13.5109V14.9309C34.9251 15.243 34.6721 15.4959 34.3601 15.4959C34.048 15.4959 33.7951 15.243 33.7951 14.9309V13.5109C33.7951 13.1989 34.048 12.9459 34.3601 12.9459ZM34.3601 17.2104C34.6721 17.2104 34.9251 17.4634 34.9251 17.7754V19.1954C34.9251 19.5075 34.6721 19.7604 34.3601 19.7604C34.048 19.7604 33.7951 19.5075 33.7951 19.1954V17.7754C33.7951 17.4634 34.048 17.2104 34.3601 17.2104ZM34.9251 22.04C34.9251 21.7279 34.6721 21.475 34.3601 21.475C34.048 21.475 33.7951 21.7279 33.7951 22.04V23.46C33.7951 23.772 34.048 24.025 34.3601 24.025C34.6721 24.025 34.9251 23.772 34.9251 23.46V22.04ZM34.3601 25.7395C34.6721 25.7395 34.9251 25.9925 34.9251 26.3045V27.7245C34.9251 28.0365 34.6721 28.2895 34.3601 28.2895C34.048 28.2895 33.7951 28.0365 33.7951 27.7245V26.3045C33.7951 25.9925 34.048 25.7395 34.3601 25.7395ZM34.9251 30.569C34.9251 30.257 34.6721 30.004 34.3601 30.004C34.048 30.004 33.7951 30.257 33.7951 30.569V31.989C33.7951 32.3011 34.048 32.554 34.3601 32.554C34.6721 32.554 34.9251 32.3011 34.9251 31.989V30.569ZM48.9438 16.1102C49.3359 16.1102 49.6538 16.4281 49.6538 16.8202V18.9191L49.6538 18.9284L49.6538 18.9376V21.4115L49.6538 21.42L49.6538 21.4284L49.6538 23.7788C49.6538 24.1709 49.3359 24.4888 48.9438 24.4888C48.5517 24.4888 48.2338 24.1709 48.2338 23.7788V22.27C48.2338 22.1926 48.1711 22.13 48.0938 22.13H46.8889C46.4967 22.13 46.1789 21.8121 46.1789 21.42C46.1789 21.0278 46.4967 20.71 46.8889 20.71H48.0938C48.1711 20.71 48.2338 20.6473 48.2338 20.57V19.7784C48.2338 19.701 48.1711 19.6384 48.0938 19.6384H46.8889C46.4967 19.6384 46.1789 19.3205 46.1789 18.9284C46.1789 18.5362 46.4967 18.2184 46.8889 18.2184H48.0938C48.1711 18.2184 48.2338 18.1557 48.2338 18.0784V16.8202C48.2338 16.4281 48.5517 16.1102 48.9438 16.1102ZM47.416 26.2582C47.8939 26.5039 48.1119 26.8257 48.1119 27.3015C48.1119 27.7786 47.8936 28.1002 47.4162 28.3454C46.8939 28.6137 46.1022 28.7554 45.1302 28.7554C44.1582 28.7554 43.3666 28.6137 42.8442 28.3454C42.3668 28.1002 42.1486 27.7786 42.1486 27.3015C42.1486 26.8257 42.3666 26.5039 42.8444 26.2582C43.3669 25.9897 44.1586 25.8475 45.1302 25.8475C46.1019 25.8475 46.8936 25.9897 47.416 26.2582ZM48.0652 24.9953C47.2515 24.5771 46.1974 24.4275 45.1302 24.4275C44.063 24.4275 43.0089 24.5771 42.1952 24.9953C41.337 25.4365 40.7286 26.1966 40.7286 27.3015C40.7286 28.4071 41.3367 29.1675 42.1955 29.6085C43.0092 30.0265 44.0634 30.1754 45.1302 30.1754C46.1971 30.1754 47.2512 30.0265 48.065 29.6085C48.9237 29.1675 49.5319 28.4071 49.5319 27.3015C49.5319 26.1966 48.9235 25.4365 48.0652 24.9953ZM43.8836 20.2442C43.8836 19.4231 43.6448 18.9767 43.3683 18.726C43.0788 18.4636 42.6347 18.3128 42.0383 18.3128C41.4419 18.3128 40.9977 18.4636 40.7082 18.726C40.4317 18.9767 40.1929 19.4231 40.1929 20.2442C40.1929 21.067 40.4319 21.5132 40.708 21.7633C40.9972 22.0252 41.4413 22.1757 42.0383 22.1757C42.6353 22.1757 43.0793 22.0252 43.3685 21.7633C43.6447 21.5132 43.8836 21.067 43.8836 20.2442ZM42.0383 16.8928C42.8532 16.8928 43.6866 17.098 44.322 17.674C44.9704 18.2617 45.3036 19.136 45.3036 20.2442C45.3036 21.3535 44.9705 22.2281 44.3218 22.8157C43.6862 23.3915 42.8525 23.5957 42.0383 23.5957C41.224 23.5957 40.3904 23.3915 39.7547 22.8157C39.106 22.2281 38.7729 21.3535 38.7729 20.2442C38.7729 19.136 39.1062 18.2617 39.7545 17.674C40.3899 17.098 41.2234 16.8928 42.0383 16.8928ZM22.8818 16.8202C22.8818 16.4281 22.5639 16.1102 22.1718 16.1102C21.7796 16.1102 21.4618 16.4281 21.4618 16.8202V17.5696C21.4618 17.6469 21.3991 17.7096 21.3218 17.7096H18.7129C18.3208 17.7096 18.0029 18.0275 18.0029 18.4196C18.0029 18.8117 18.3208 19.1296 18.7129 19.1296H22.1706L22.1718 19.1296L22.1729 19.1296H25.6309C26.023 19.1296 26.3409 18.8117 26.3409 18.4196C26.3409 18.0275 26.023 17.7096 25.6309 17.7096H23.0218C22.9444 17.7096 22.8818 17.6469 22.8818 17.5696V16.8202ZM27.9055 16.1431C28.2976 16.1431 28.6155 16.461 28.6155 16.8531V20.0127C28.6155 20.09 28.6782 20.1527 28.7555 20.1527H30.1703C30.5625 20.1527 30.8803 20.4706 30.8803 20.8627C30.8803 21.2548 30.5625 21.5727 30.1703 21.5727H28.7555C28.6782 21.5727 28.6155 21.6354 28.6155 21.7127V25.9095C28.6155 26.3016 28.2976 26.6195 27.9055 26.6195C27.5134 26.6195 27.1955 26.3016 27.1955 25.9095V20.8734L27.1954 20.8627L27.1955 20.8521V16.8531C27.1955 16.461 27.5134 16.1431 27.9055 16.1431ZM20.6993 21.6181C20.4343 21.7814 20.2725 22.0128 20.2725 22.4346C20.2725 22.8552 20.4341 23.0868 20.6995 23.2505C21.0123 23.4434 21.5131 23.5598 22.172 23.5598C22.8309 23.5598 23.3318 23.4434 23.6445 23.2505C23.91 23.0868 24.0715 22.8552 24.0715 22.4346C24.0715 22.0128 23.9097 21.7814 23.6447 21.6181C23.3322 21.4254 22.8314 21.3094 22.172 21.3094C21.5127 21.3094 21.0119 21.4254 20.6993 21.6181ZM19.9544 20.4092C20.5862 20.0198 21.3902 19.8894 22.172 19.8894C22.9539 19.8894 23.7578 20.0198 24.3897 20.4092C25.0692 20.8279 25.4915 21.5141 25.4915 22.4346C25.4915 23.3544 25.0689 24.0404 24.3899 24.4591C23.7582 24.8487 22.9543 24.9798 22.172 24.9798C21.3897 24.9798 20.5859 24.8487 19.9541 24.4591C19.2751 24.0404 18.8525 23.3544 18.8525 22.4346C18.8525 21.5141 19.2749 20.8279 19.9544 20.4092ZM21.6065 28.2823C21.6065 28.3596 21.6692 28.4223 21.7465 28.4223L28.2951 28.4223C28.6872 28.4223 29.0051 28.7401 29.0051 29.1323C29.0051 29.5244 28.6872 29.8423 28.2951 29.8423L20.8965 29.8423C20.7082 29.8423 20.5276 29.7675 20.3945 29.6343C20.2613 29.5012 20.1865 29.3206 20.1865 29.1323V26.4413C20.1865 26.0492 20.5044 25.7313 20.8965 25.7313C21.2887 25.7313 21.6065 26.0492 21.6065 26.4413V28.2823Z" fill="black"/>
</svg>
