<svg width="68" height="54" viewBox="0 0 68 54" fill="none" xmlns="http://www.w3.org/2000/svg">
<rect x="1.8501" y="1.84998" width="63.8" height="50.3" rx="3" stroke="#8B1EFF" stroke-width="0.28"/>
<path d="M10.1999 37.0327C10.2199 37.6927 10.3699 38.3627 10.6399 38.9727C10.9099 39.6027 11.2899 40.1727 11.7599 40.6627C12.2299 41.1527 12.7999 41.5627 13.4199 41.8527C14.0299 42.1427 14.6999 42.3227 15.3699 42.3727C21.4899 42.6627 27.6199 42.8127 33.7499 42.8127C39.8799 42.8127 46.0099 42.6627 52.1299 42.3727C52.7999 42.3127 53.4699 42.1327 54.0799 41.8427C54.3899 41.6927 54.6799 41.5227 54.9599 41.3227C55.2399 41.1227 55.4999 40.9027 55.7399 40.6527C55.9799 40.4027 56.1899 40.1427 56.3799 39.8527C56.5699 39.5727 56.7299 39.2727 56.8599 38.9627C56.9899 38.6527 57.0899 38.3327 57.1599 38.0027C57.2299 37.6827 57.2799 37.3527 57.2899 37.0127C57.3699 27.0727 57.4699 17.1327 57.5999 7.20274C57.5799 6.66274 57.4999 6.12274 57.3299 5.61274C57.1699 5.10274 56.9399 4.61274 56.6299 4.17274C56.3299 3.73274 55.9599 3.34274 55.5499 3.02274C55.1299 2.70274 54.6699 2.44274 54.1699 2.25274C53.9399 2.16274 53.6999 2.09274 53.4599 2.04274C53.2199 1.99274 52.9699 1.95274 52.7199 1.92274C52.5499 1.90274 52.3899 1.89274 52.2199 1.89274C39.8999 1.83274 27.5799 1.83274 15.2699 1.91274C14.5799 1.91274 13.8799 2.05274 13.2399 2.31274C12.9199 2.44274 12.6099 2.59274 12.3199 2.78274C12.0299 2.97274 11.7499 3.18274 11.5099 3.42274C11.2599 3.66274 11.0399 3.94274 10.8399 4.22274C10.6399 4.51274 10.4799 4.82274 10.3499 5.15274C10.0799 5.80274 9.9199 6.51274 9.8999 7.22274C10.0199 17.1627 10.1299 27.1027 10.2099 37.0327" stroke="#8B1EFF" stroke-width="0.28" stroke-miterlimit="10"/>
<path d="M13.2901 4.34277C12.5101 4.34277 11.8701 4.98277 11.8701 5.76277V38.9228C11.8701 39.7028 12.5001 40.3428 13.2901 40.3428H54.1101C54.8901 40.3428 55.5301 39.7128 55.5301 38.9228V5.76277C55.5301 4.98277 54.8901 4.34277 54.1101 4.34277" stroke="#00FFFF" stroke-width="0.28" stroke-miterlimit="10"/>
<path d="M15.45 41.1327C15.26 41.1327 15.08 41.1027 14.9 41.0727C14.42 40.9927 13.95 40.8327 13.52 40.6127C13.09 40.3827 12.69 40.0827 12.36 39.7227C12.22 39.5727 12.09 39.4127 11.97 39.2527C11.68 38.8427 11.46 38.3827 11.32 37.9027C11.19 37.4627 11.12 37.0027 11.12 36.5427C11.1 31.6827 11.08 26.8327 11.06 21.9727C11.06 20.8027 11.06 19.6427 11.05 18.4727C11.04 15.2827 11.02 12.0927 11 8.90274C11 8.40274 11 7.89274 11 7.39274C11 7.35274 11 7.31274 11 7.27274C11 7.23274 11 7.19274 11 7.15274C11 7.11274 11 7.07274 11 7.03274C11 6.99274 11 6.95274 11 6.91274V6.79274C11 6.79274 11.02 6.71274 11.03 6.67274C11.03 6.63274 11.04 6.59274 11.05 6.56274C11.05 6.52274 11.06 6.48274 11.07 6.45274C11.07 6.41274 11.08 6.37274 11.09 6.34274C11.09 6.30274 11.11 6.26274 11.11 6.23274C11.12 6.19274 11.13 6.16274 11.14 6.12274C11.14 6.08274 11.16 6.05274 11.17 6.01274C11.18 5.97274 11.19 5.94274 11.2 5.90274C11.21 5.86274 11.22 5.83274 11.24 5.79274C11.25 5.75274 11.27 5.72274 11.28 5.68274C11.31 5.61274 11.34 5.55274 11.37 5.48274C11.4 5.41274 11.43 5.35274 11.47 5.29274C11.5 5.23274 11.54 5.16274 11.57 5.10274C11.61 5.04274 11.65 4.98274 11.69 4.92274C11.77 4.80274 11.86 4.68274 11.95 4.57274C12.04 4.46274 12.14 4.36274 12.24 4.26274C12.34 4.16274 12.45 4.07274 12.57 3.98274C12.68 3.89274 12.8 3.81274 12.93 3.73274C12.99 3.69274 13.05 3.66274 13.12 3.62274C13.18 3.59274 13.25 3.55274 13.31 3.52274C13.37 3.49274 13.44 3.46274 13.51 3.43274C13.58 3.40274 13.64 3.38274 13.71 3.35274C13.73 3.35274 13.75 3.34274 13.77 3.33274C13.79 3.33274 13.81 3.32274 13.83 3.31274C13.85 3.31274 13.87 3.30274 13.88 3.29274L13.94 3.27274C13.94 3.27274 13.98 3.26274 14 3.25274C14.02 3.25274 14.04 3.24274 14.06 3.23274C14.08 3.23274 14.1 3.23274 14.12 3.22274C14.14 3.22274 14.16 3.21274 14.18 3.20274C14.2 3.20274 14.22 3.19274 14.24 3.18274C14.26 3.18274 14.28 3.18274 14.3 3.17274C14.32 3.17274 14.34 3.17274 14.36 3.16274C14.38 3.16274 14.4 3.16274 14.42 3.15274C14.44 3.15274 14.46 3.15274 14.48 3.14274C14.5 3.14274 14.52 3.14274 14.54 3.13274C14.56 3.13274 14.58 3.13274 14.6 3.13274C14.62 3.13274 14.64 3.13274 14.66 3.12274C14.68 3.12274 14.7 3.12274 14.72 3.12274C14.74 3.12274 14.76 3.12274 14.78 3.12274C14.8 3.12274 14.82 3.12274 14.84 3.12274C14.86 3.12274 14.88 3.12274 14.9 3.12274C14.92 3.12274 14.94 3.12274 14.96 3.12274C14.98 3.12274 15 3.12274 15.02 3.12274C15.04 3.12274 15.06 3.12274 15.08 3.12274C15.1 3.12274 15.12 3.12274 15.14 3.12274C15.16 3.12274 15.18 3.12274 15.2 3.12274C15.22 3.12274 15.24 3.12274 15.26 3.12274C15.28 3.12274 15.3 3.12274 15.32 3.12274C15.34 3.12274 15.36 3.12274 15.38 3.12274C15.4 3.12274 15.42 3.12274 15.44 3.12274C15.54 3.12274 15.64 3.12274 15.75 3.12274C15.85 3.12274 15.95 3.12274 16.05 3.12274C16.15 3.12274 16.25 3.12274 16.36 3.12274C16.46 3.12274 16.56 3.12274 16.67 3.12274C16.77 3.12274 16.87 3.12274 16.98 3.12274C17.08 3.12274 17.18 3.12274 17.29 3.12274C17.39 3.12274 17.49 3.12274 17.6 3.12274C17.7 3.12274 17.8 3.12274 17.91 3.12274C18.01 3.12274 18.11 3.12274 18.22 3.12274C18.32 3.12274 18.42 3.12274 18.53 3.12274C18.63 3.12274 18.73 3.12274 18.84 3.12274C18.94 3.12274 19.04 3.12274 19.15 3.12274C19.25 3.12274 19.35 3.12274 19.45 3.12274C19.55 3.12274 19.66 3.12274 19.76 3.12274C19.86 3.12274 19.96 3.12274 20.07 3.12274C20.17 3.12274 20.27 3.12274 20.38 3.12274C20.48 3.12274 20.58 3.12274 20.69 3.12274C20.79 3.12274 20.89 3.12274 21 3.12274C21.1 3.12274 21.2 3.12274 21.31 3.12274C21.41 3.12274 21.51 3.12274 21.62 3.12274C21.72 3.12274 21.83 3.12274 21.93 3.12274H22.24C22.34 3.12274 22.44 3.12274 22.55 3.12274C22.65 3.12274 22.75 3.12274 22.86 3.12274C22.96 3.12274 23.07 3.12274 23.17 3.12274C23.27 3.12274 23.37 3.12274 23.48 3.12274C23.59 3.12274 23.68 3.12274 23.79 3.12274C23.89 3.12274 23.99 3.12274 24.1 3.12274H24.41C24.51 3.12274 24.61 3.12274 24.72 3.12274C24.83 3.12274 24.93 3.12274 25.03 3.12274C25.13 3.12274 25.23 3.12274 25.34 3.12274C25.45 3.12274 25.55 3.12274 25.65 3.12274C25.75 3.12274 25.86 3.12274 25.96 3.12274C26.06 3.12274 26.16 3.12274 26.27 3.12274C26.38 3.12274 26.47 3.12274 26.58 3.12274C26.68 3.12274 26.78 3.12274 26.89 3.12274H27.2C27.3 3.12274 27.4 3.12274 27.51 3.12274C27.62 3.12274 27.72 3.12274 27.82 3.12274H28.13C28.23 3.12274 28.34 3.12274 28.44 3.12274C28.54 3.12274 28.64 3.12274 28.75 3.12274H29.06C29.16 3.12274 29.27 3.12274 29.37 3.12274H29.68C29.78 3.12274 29.88 3.12274 29.99 3.12274H30.3C30.4 3.12274 30.5 3.12274 30.61 3.12274H31.22C31.32 3.12274 31.42 3.12274 31.53 3.12274H33.38C33.48 3.12274 33.59 3.12274 33.69 3.12274H34C34.1 3.12274 34.2 3.12274 34.31 3.12274H36.16C36.26 3.12274 36.37 3.12274 36.47 3.12274H37.08C37.18 3.12274 37.29 3.12274 37.39 3.12274H37.7C37.8 3.12274 37.91 3.12274 38.01 3.12274H38.32C38.42 3.12274 38.52 3.12274 38.63 3.12274H38.94C39.04 3.12274 39.14 3.12274 39.25 3.12274C39.36 3.12274 39.45 3.12274 39.56 3.12274H39.87C39.97 3.12274 40.08 3.12274 40.18 3.12274C40.28 3.12274 40.39 3.12274 40.49 3.12274H40.8C40.9 3.12274 41 3.12274 41.11 3.12274C41.21 3.12274 41.32 3.12274 41.42 3.12274C41.52 3.12274 41.62 3.12274 41.73 3.12274C41.84 3.12274 41.93 3.12274 42.04 3.12274C42.15 3.12274 42.25 3.12274 42.35 3.12274C42.45 3.12274 42.56 3.12274 42.66 3.12274C42.76 3.12274 42.86 3.12274 42.97 3.12274C43.08 3.12274 43.17 3.12274 43.28 3.12274C43.39 3.12274 43.48 3.12274 43.59 3.12274C43.7 3.12274 43.8 3.12274 43.9 3.12274C44 3.12274 44.1 3.12274 44.21 3.12274H44.52C44.62 3.12274 44.72 3.12274 44.83 3.12274C44.93 3.12274 45.04 3.12274 45.14 3.12274C45.24 3.12274 45.34 3.12274 45.45 3.12274C45.55 3.12274 45.65 3.12274 45.76 3.12274C45.86 3.12274 45.96 3.12274 46.07 3.12274C46.17 3.12274 46.28 3.12274 46.38 3.12274C46.48 3.12274 46.58 3.12274 46.69 3.12274C46.79 3.12274 46.89 3.12274 47 3.12274C47.1 3.12274 47.2 3.12274 47.31 3.12274C47.41 3.12274 47.51 3.12274 47.62 3.12274C47.72 3.12274 47.82 3.12274 47.93 3.12274C48.03 3.12274 48.13 3.12274 48.24 3.12274C48.34 3.12274 48.45 3.12274 48.55 3.12274C48.65 3.12274 48.75 3.12274 48.86 3.12274C48.96 3.12274 49.06 3.12274 49.17 3.12274C49.27 3.12274 49.38 3.12274 49.48 3.12274C49.58 3.12274 49.68 3.12274 49.79 3.12274C49.89 3.12274 49.99 3.12274 50.09 3.12274C50.19 3.12274 50.29 3.12274 50.4 3.12274C50.5 3.12274 50.6 3.12274 50.71 3.12274C50.81 3.12274 50.91 3.12274 51.01 3.12274C51.11 3.12274 51.21 3.12274 51.32 3.12274C51.42 3.12274 51.52 3.12274 51.63 3.12274C51.73 3.12274 51.83 3.12274 51.93 3.12274C52.03 3.12274 52.13 3.12274 52.24 3.12274C52.28 3.12274 52.32 3.12274 52.36 3.12274C52.4 3.12274 52.44 3.12274 52.48 3.12274C52.52 3.12274 52.56 3.12274 52.6 3.12274C52.64 3.12274 52.68 3.12274 52.72 3.13274C52.76 3.13274 52.8 3.13274 52.84 3.14274L52.96 3.16274C52.96 3.16274 53.04 3.17274 53.08 3.18274C53.12 3.18274 53.16 3.19274 53.2 3.20274C53.24 3.20274 53.27 3.22274 53.31 3.22274C53.35 3.22274 53.39 3.24274 53.42 3.25274C53.46 3.25274 53.5 3.27274 53.53 3.28274C53.57 3.28274 53.6 3.30274 53.64 3.31274C53.68 3.32274 53.71 3.33274 53.75 3.34274C53.79 3.35274 53.82 3.36274 53.86 3.37274C53.9 3.38274 53.93 3.39274 53.97 3.41274C54.04 3.44274 54.11 3.46274 54.17 3.49274C54.24 3.52274 54.3 3.55274 54.37 3.58274C54.43 3.61274 54.5 3.65274 54.56 3.68274C54.62 3.71274 54.69 3.75274 54.75 3.79274C54.87 3.87274 54.99 3.95274 55.11 4.04274C55.22 4.13274 55.33 4.22274 55.43 4.32274C55.53 4.42274 55.63 4.52274 55.72 4.63274C55.81 4.74274 55.9 4.86274 55.98 4.98274C56.02 5.04274 56.06 5.10274 56.09 5.16274C56.13 5.22274 56.16 5.28274 56.19 5.35274C56.22 5.41274 56.25 5.48274 56.28 5.54274C56.31 5.61274 56.34 5.67274 56.36 5.74274C56.36 5.76274 56.37 5.78274 56.38 5.80274C56.38 5.82274 56.39 5.84274 56.4 5.85274L56.42 5.91274C56.42 5.91274 56.43 5.95274 56.44 5.97274C56.44 5.99274 56.45 6.01274 56.46 6.03274C56.46 6.05274 56.47 6.07274 56.48 6.09274C56.48 6.11274 56.49 6.13274 56.5 6.15274C56.5 6.17274 56.51 6.19274 56.52 6.21274V6.27274C56.52 6.27274 56.54 6.31274 56.55 6.33274C56.55 6.35274 56.55 6.37274 56.56 6.39274C56.56 6.41274 56.56 6.43274 56.57 6.45274C56.57 6.47274 56.57 6.49274 56.58 6.51274V6.57274C56.58 6.57274 56.6 6.61274 56.6 6.63274C56.6 6.65274 56.6 6.67274 56.6 6.69274C56.6 6.71274 56.6 6.73274 56.6 6.75274C56.6 6.77274 56.6 6.79274 56.6 6.81274C56.6 6.83274 56.6 6.85274 56.6 6.87274C56.6 6.89274 56.6 6.91274 56.6 6.93274C56.6 6.95274 56.6 6.97274 56.6 6.99274C56.6 7.01274 56.6 7.03274 56.6 7.05274C56.6 7.07274 56.6 7.09274 56.6 7.11274C56.6 7.13274 56.6 7.15274 56.6 7.17274V7.23274C56.6 7.23274 56.6 7.27274 56.6 7.29274C56.6 7.31274 56.6 7.33274 56.6 7.35274C56.6 7.37274 56.6 7.39274 56.6 7.41274V7.47274V8.99274C56.58 12.1827 56.57 15.3727 56.55 18.5727C56.55 19.7327 56.54 20.9027 56.54 22.0627C56.52 26.9127 56.5 31.7727 56.48 36.6227C56.48 36.6627 56.48 36.7027 56.48 36.7427C56.48 36.7827 56.48 36.8227 56.48 36.8627C56.48 36.9027 56.48 36.9427 56.48 36.9827C56.48 37.0227 56.48 37.0627 56.48 37.1027C56.48 37.1427 56.48 37.1827 56.47 37.2127C56.47 37.2527 56.46 37.2927 56.45 37.3227C56.45 37.3627 56.44 37.4027 56.43 37.4327L56.41 37.5427C56.41 37.5427 56.4 37.6227 56.39 37.6527C56.39 37.6927 56.37 37.7327 56.36 37.7627C56.36 37.8027 56.34 37.8327 56.33 37.8727C56.32 37.9127 56.31 37.9427 56.3 37.9827C56.29 38.0227 56.28 38.0527 56.27 38.0927C56.26 38.1327 56.25 38.1627 56.23 38.2027C56.22 38.2427 56.2 38.2727 56.19 38.3127C56.14 38.4527 56.08 38.5827 56.01 38.7227C55.95 38.8527 55.88 38.9827 55.8 39.1027C55.72 39.2227 55.64 39.3427 55.55 39.4627C55.46 39.5727 55.37 39.6927 55.27 39.7927C55.17 39.9027 55.07 40.0027 54.96 40.1027C54.85 40.2027 54.73 40.2927 54.61 40.3727C54.55 40.4127 54.49 40.4527 54.43 40.4927C54.37 40.5327 54.31 40.5727 54.24 40.6027C54.18 40.6427 54.11 40.6727 54.05 40.7027C53.98 40.7327 53.92 40.7727 53.85 40.8027C53.83 40.8027 53.82 40.8127 53.8 40.8227C53.78 40.8327 53.76 40.8427 53.75 40.8427C53.73 40.8427 53.72 40.8527 53.7 40.8627C53.68 40.8627 53.67 40.8727 53.65 40.8827L53.6 40.9027C53.6 40.9027 53.56 40.9127 53.55 40.9227L53.5 40.9427C53.5 40.9427 53.47 40.9527 53.45 40.9627C53.43 40.9627 53.41 40.9727 53.4 40.9827C53.38 40.9827 53.36 40.9927 53.35 41.0027C53.33 41.0027 53.31 41.0127 53.3 41.0227C53.28 41.0227 53.26 41.0327 53.25 41.0427C53.23 41.0427 53.21 41.0527 53.2 41.0527L53.15 41.0727C53.15 41.0727 53.11 41.0727 53.1 41.0827C53.08 41.0827 53.06 41.0827 53.05 41.0927C53.03 41.0927 53.01 41.0927 52.99 41.1027C52.97 41.1027 52.95 41.1027 52.93 41.1127C52.91 41.1127 52.89 41.1127 52.88 41.1227C52.86 41.1227 52.84 41.1227 52.82 41.1327C52.8 41.1327 52.78 41.1327 52.76 41.1327H52.71L52.65 41.1527C52.63 41.1527 52.61 41.1527 52.59 41.1527C52.57 41.1527 52.55 41.1527 52.53 41.1527C52.51 41.1527 52.49 41.1527 52.47 41.1527C52.45 41.1527 52.43 41.1527 52.41 41.1527C52.39 41.1527 52.37 41.1527 52.35 41.1527C52.33 41.1527 52.31 41.1527 52.29 41.1527C52.27 41.1527 52.25 41.1527 52.23 41.1527C52.21 41.1527 52.19 41.1527 52.17 41.1527C52.07 41.1527 51.97 41.1627 51.86 41.1727C51.76 41.1727 51.66 41.1827 51.56 41.1927C51.46 41.1927 51.36 41.2027 51.25 41.2027C51.15 41.2027 51.05 41.2127 50.94 41.2227C50.84 41.2227 50.74 41.2227 50.64 41.2327C50.54 41.2327 50.44 41.2327 50.33 41.2427C50.23 41.2427 50.13 41.2427 50.02 41.2527C49.92 41.2527 49.82 41.2527 49.72 41.2627C49.62 41.2627 49.52 41.2627 49.41 41.2727C49.31 41.2727 49.21 41.2727 49.1 41.2827C49 41.2827 48.9 41.2827 48.79 41.2927C48.69 41.2927 48.59 41.2927 48.48 41.3027C48.38 41.3027 48.28 41.3027 48.17 41.3127C48.07 41.3127 47.97 41.3127 47.86 41.3227C47.76 41.3227 47.66 41.3227 47.55 41.3327C47.45 41.3327 47.35 41.3327 47.24 41.3427C47.14 41.3427 47.04 41.3427 46.93 41.3527C46.83 41.3527 46.73 41.3527 46.62 41.3627C46.52 41.3627 46.42 41.3627 46.31 41.3727C46.21 41.3727 46.11 41.3727 46 41.3827C45.9 41.3827 45.8 41.3827 45.69 41.3827C45.59 41.3827 45.49 41.3827 45.38 41.3927C45.27 41.4027 45.18 41.3927 45.07 41.4027C44.97 41.4027 44.87 41.4027 44.76 41.4027C44.66 41.4027 44.56 41.4027 44.45 41.4027C44.35 41.4027 44.25 41.4027 44.14 41.4027C44.04 41.4027 43.94 41.4027 43.83 41.4027C43.73 41.4027 43.63 41.4027 43.52 41.4027C43.42 41.4027 43.32 41.4027 43.21 41.4027C43.11 41.4027 43.01 41.4027 42.9 41.4027C42.8 41.4027 42.7 41.4027 42.59 41.4027C42.49 41.4027 42.39 41.4027 42.28 41.4027C42.18 41.4027 42.07 41.4027 41.97 41.4027C41.87 41.4027 41.77 41.4027 41.66 41.4027C41.56 41.4027 41.46 41.4027 41.35 41.4027H41.04C40.94 41.4027 40.84 41.4127 40.73 41.4127H40.42C40.32 41.4127 40.22 41.4127 40.11 41.4227C40.01 41.4227 39.91 41.4227 39.8 41.4227C39.7 41.4227 39.59 41.4227 39.49 41.4227C39.39 41.4227 39.29 41.4227 39.18 41.4227H38.87C38.77 41.4227 38.66 41.4227 38.56 41.4227C38.46 41.4227 38.36 41.4227 38.25 41.4227C38.14 41.4227 38.05 41.4227 37.94 41.4227C37.84 41.4227 37.73 41.4227 37.63 41.4227C37.53 41.4227 37.43 41.4227 37.32 41.4227H37.01C36.91 41.4227 36.8 41.4227 36.7 41.4227C36.6 41.4227 36.49 41.4227 36.39 41.4227C36.29 41.4227 36.19 41.4227 36.08 41.4227C35.98 41.4227 35.88 41.4227 35.77 41.4227H35.46H35.15C35.05 41.4227 34.95 41.4227 34.84 41.4227H34.53C34.43 41.4227 34.32 41.4227 34.22 41.4227H33.3C33.2 41.4227 33.1 41.4227 32.99 41.4227H32.68C32.58 41.4227 32.48 41.4227 32.37 41.4227C32.27 41.4227 32.17 41.4227 32.06 41.4227H31.75C31.65 41.4227 31.55 41.4227 31.44 41.4227C31.34 41.4227 31.23 41.4227 31.13 41.4227C31.03 41.4227 30.92 41.4227 30.82 41.4227C30.72 41.4227 30.62 41.4227 30.51 41.4227H30.2H29.89C29.79 41.4227 29.69 41.4227 29.58 41.4227C29.48 41.4227 29.38 41.4227 29.27 41.4227C29.17 41.4227 29.06 41.4227 28.96 41.4227C28.86 41.4227 28.76 41.4227 28.65 41.4227C28.55 41.4227 28.45 41.4227 28.34 41.4227C28.24 41.4227 28.14 41.4227 28.03 41.4227C27.93 41.4227 27.82 41.4227 27.72 41.4227C27.62 41.4227 27.52 41.4227 27.41 41.4227C27.31 41.4227 27.21 41.4227 27.1 41.4227C27 41.4227 26.9 41.4227 26.79 41.4227H26.48C26.38 41.4227 26.28 41.4227 26.17 41.4127C26.07 41.4127 25.97 41.4127 25.86 41.4127C25.76 41.4127 25.66 41.4127 25.55 41.4127C25.45 41.4127 25.34 41.4127 25.24 41.4127H24.93C24.83 41.4127 24.73 41.4027 24.62 41.4027C24.52 41.4027 24.41 41.4027 24.31 41.4027C24.21 41.4027 24.1 41.4027 24 41.4027C23.9 41.4027 23.8 41.4027 23.69 41.4027C23.59 41.4027 23.49 41.4027 23.38 41.4027C23.28 41.4027 23.18 41.4027 23.07 41.4027C22.97 41.4027 22.87 41.4027 22.76 41.4027C22.66 41.4027 22.56 41.4027 22.45 41.4027C22.35 41.4027 22.25 41.4027 22.14 41.3927C22.04 41.3927 21.94 41.3927 21.83 41.3827C21.73 41.3827 21.63 41.3827 21.52 41.3827C21.42 41.3827 21.32 41.3827 21.21 41.3727C21.11 41.3727 21.01 41.3727 20.9 41.3627C20.8 41.3627 20.7 41.3627 20.59 41.3527C20.49 41.3527 20.39 41.3527 20.28 41.3427C20.18 41.3427 20.08 41.3427 19.97 41.3327C19.87 41.3327 19.77 41.3327 19.66 41.3227C19.56 41.3227 19.46 41.3227 19.35 41.3127C19.25 41.3127 19.15 41.3127 19.04 41.3027C18.94 41.3027 18.84 41.3027 18.73 41.2927C18.63 41.2927 18.53 41.2927 18.42 41.2827C18.32 41.2827 18.22 41.2827 18.11 41.2727C18.01 41.2727 17.91 41.2727 17.8 41.2627C17.7 41.2627 17.6 41.2627 17.5 41.2527C17.4 41.2527 17.3 41.2527 17.19 41.2427C17.09 41.2427 16.99 41.2427 16.88 41.2327C16.78 41.2327 16.68 41.2227 16.58 41.2227C16.48 41.2227 16.38 41.2127 16.27 41.2027H15.97C15.87 41.1827 15.77 41.1827 15.67 41.1727C15.57 41.1727 15.47 41.1627 15.36 41.1527L15.45 41.1327Z" stroke="#FF00FF" stroke-width="0.28" stroke-linecap="round" stroke-linejoin="round"/>
<path d="M53.4488 44.9191V50.01H52.8324V45.5654H52.8025L51.5596 46.3907V45.7643L52.8324 44.9191H53.4488ZM55.0497 50.0498C54.9271 50.0498 54.8218 50.0059 54.734 49.918C54.6462 49.8302 54.6023 49.725 54.6023 49.6023C54.6023 49.4797 54.6462 49.3745 54.734 49.2866C54.8218 49.1988 54.9271 49.1549 55.0497 49.1549C55.1723 49.1549 55.2776 49.1988 55.3654 49.2866C55.4532 49.3745 55.4971 49.4797 55.4971 49.6023C55.4971 49.6835 55.4764 49.7581 55.435 49.8261C55.3952 49.894 55.3414 49.9487 55.2734 49.9901C55.2071 50.0299 55.1326 50.0498 55.0497 50.0498ZM56.5399 50.01V49.5626L58.2203 47.7231C58.4175 47.5076 58.5799 47.3204 58.7075 47.1613C58.8351 47.0005 58.9296 46.8497 58.9909 46.7089C59.0539 46.5664 59.0854 46.4172 59.0854 46.2614C59.0854 46.0825 59.0423 45.9275 58.9561 45.7966C58.8716 45.6657 58.7556 45.5646 58.6081 45.4933C58.4606 45.4221 58.2949 45.3864 58.111 45.3864C57.9154 45.3864 57.7447 45.427 57.5989 45.5082C57.4547 45.5878 57.3428 45.6996 57.2633 45.8438C57.1854 45.988 57.1465 46.157 57.1465 46.3509H56.5598C56.5598 46.0526 56.6286 45.7908 56.7661 45.5654C56.9037 45.34 57.0909 45.1644 57.3279 45.0384C57.5666 44.9125 57.8342 44.8495 58.1308 44.8495C58.4291 44.8495 58.6935 44.9125 58.9238 45.0384C59.1542 45.1644 59.3348 45.3342 59.4657 45.548C59.5966 45.7618 59.6621 45.9996 59.6621 46.2614C59.6621 46.4487 59.6281 46.6318 59.5602 46.8108C59.4939 46.9881 59.3779 47.1861 59.2122 47.4049C59.0481 47.622 58.8202 47.8871 58.5286 48.2004L57.3851 49.4234V49.4631H59.7516V50.01H56.5399ZM62.3691 50.0796C62.0775 50.0796 61.8148 50.0216 61.5811 49.9056C61.3475 49.7896 61.1602 49.6305 61.0193 49.4283C60.8785 49.2262 60.8014 48.9958 60.7882 48.7373H61.3847C61.4079 48.9676 61.5123 49.1582 61.698 49.309C61.8852 49.4582 62.1089 49.5327 62.3691 49.5327C62.5779 49.5327 62.7635 49.4838 62.9259 49.3861C63.09 49.2883 63.2184 49.1541 63.3112 48.9834C63.4057 48.811 63.4529 48.6163 63.4529 48.3992C63.4529 48.1771 63.404 47.9791 63.3063 47.8051C63.2101 47.6294 63.0776 47.4911 62.9085 47.39C62.7395 47.2889 62.5464 47.2375 62.3293 47.2359C62.1736 47.2342 62.0136 47.2582 61.8496 47.308C61.6855 47.356 61.5505 47.4182 61.4444 47.4944L60.8677 47.4248L61.1759 44.9191H63.8208V45.466H61.693L61.514 46.9674H61.5438C61.6482 46.8845 61.7792 46.8158 61.9366 46.7611C62.094 46.7064 62.2581 46.679 62.4288 46.679C62.7403 46.679 63.0179 46.7536 63.2615 46.9028C63.5068 47.0503 63.699 47.2524 63.8382 47.5093C63.9791 47.7662 64.0495 48.0595 64.0495 48.3893C64.0495 48.7141 63.9766 49.0041 63.8308 49.2593C63.6866 49.5129 63.4877 49.7134 63.2342 49.8609C62.9806 50.0067 62.6923 50.0796 62.3691 50.0796Z" fill="#0000FF"/>
<path fill-rule="evenodd" clip-rule="evenodd" d="M33.9999 12.946C34.312 12.946 34.5649 13.1989 34.5649 13.511V14.931C34.5649 15.243 34.312 15.496 33.9999 15.496C33.6879 15.496 33.4349 15.243 33.4349 14.931V13.511C33.4349 13.1989 33.6879 12.946 33.9999 12.946ZM33.9999 17.2105C34.312 17.2105 34.5649 17.4635 34.5649 17.7755V19.1955C34.5649 19.5076 34.312 19.7605 33.9999 19.7605C33.6879 19.7605 33.4349 19.5076 33.4349 19.1955V17.7755C33.4349 17.4635 33.6879 17.2105 33.9999 17.2105ZM34.5649 22.04C34.5649 21.728 34.312 21.475 33.9999 21.475C33.6879 21.475 33.4349 21.728 33.4349 22.04V23.46C33.4349 23.7721 33.6879 24.025 33.9999 24.025C34.312 24.025 34.5649 23.7721 34.5649 23.46V22.04ZM33.9999 25.7396C34.312 25.7396 34.5649 25.9925 34.5649 26.3046V27.7246C34.5649 28.0366 34.312 28.2896 33.9999 28.2896C33.6879 28.2896 33.4349 28.0366 33.4349 27.7246V26.3046C33.4349 25.9925 33.6879 25.7396 33.9999 25.7396ZM34.5649 30.5691C34.5649 30.257 34.312 30.0041 33.9999 30.0041C33.6879 30.0041 33.4349 30.257 33.4349 30.5691V31.9891C33.4349 32.3011 33.6879 32.5541 33.9999 32.5541C34.312 32.5541 34.5649 32.3011 34.5649 31.9891V30.5691ZM48.5837 16.1103C48.9758 16.1103 49.2937 16.4282 49.2937 16.8203V18.9191L49.2937 18.9284L49.2937 18.9377V21.4116L49.2937 21.42L49.2937 21.4285L49.2937 23.7788C49.2937 24.1709 48.9758 24.4888 48.5837 24.4888C48.1916 24.4888 47.8737 24.1709 47.8737 23.7788V22.27C47.8737 22.1927 47.811 22.13 47.7337 22.13H46.5287C46.1366 22.13 45.8188 21.8121 45.8188 21.42C45.8188 21.0279 46.1366 20.71 46.5287 20.71H47.7337C47.811 20.71 47.8737 20.6473 47.8737 20.57V19.7784C47.8737 19.7011 47.811 19.6384 47.7337 19.6384H46.5288C46.1366 19.6384 45.8188 19.3205 45.8188 18.9284C45.8188 18.5363 46.1366 18.2184 46.5288 18.2184H47.7337C47.811 18.2184 47.8737 18.1557 47.8737 18.0784V16.8203C47.8737 16.4282 48.1916 16.1103 48.5837 16.1103ZM47.0559 26.2583C47.5338 26.504 47.7518 26.8258 47.7518 27.3015C47.7518 27.7786 47.5335 28.1003 47.0561 28.3455C46.5338 28.6137 45.7421 28.7554 44.7701 28.7554C43.7981 28.7554 43.0065 28.6137 42.4841 28.3455C42.0067 28.1003 41.7885 27.7786 41.7885 27.3015C41.7885 26.8258 42.0065 26.504 42.4843 26.2583C43.0068 25.9898 43.7985 25.8476 44.7701 25.8476C45.7418 25.8476 46.5335 25.9898 47.0559 26.2583ZM47.7051 24.9954C46.8914 24.5771 45.8373 24.4276 44.7701 24.4276C43.7029 24.4276 42.6488 24.5771 41.8351 24.9954C40.9769 25.4366 40.3685 26.1967 40.3685 27.3015C40.3685 28.4072 40.9766 29.1675 41.8353 29.6086C42.6491 30.0266 43.7033 30.1754 44.7701 30.1754C45.837 30.1754 46.8911 30.0266 47.7049 29.6086C48.5636 29.1675 49.1718 28.4072 49.1718 27.3015C49.1718 26.1967 48.5634 25.4366 47.7051 24.9954ZM43.5235 20.2443C43.5235 19.4232 43.2847 18.9767 43.0082 18.7261C42.7187 18.4637 42.2745 18.3128 41.6782 18.3128C41.0818 18.3128 40.6376 18.4637 40.3481 18.7261C40.0716 18.9767 39.8328 19.4232 39.8328 20.2443C39.8328 21.0671 40.0718 21.5132 40.3479 21.7633C40.6371 22.0253 41.0812 22.1758 41.6782 22.1758C42.2752 22.1758 42.7192 22.0253 43.0084 21.7633C43.2846 21.5132 43.5235 21.0671 43.5235 20.2443ZM41.6782 16.8928C42.493 16.8928 43.3265 17.098 43.9619 17.674C44.6103 18.2618 44.9435 19.1361 44.9435 20.2443C44.9435 21.3536 44.6104 22.2282 43.9617 22.8158C43.3261 23.3915 42.4924 23.5958 41.6782 23.5958C40.8639 23.5958 40.0303 23.3915 39.3946 22.8158C38.7459 22.2282 38.4128 21.3536 38.4128 20.2443C38.4128 19.1361 38.746 18.2618 39.3944 17.674C40.0298 17.098 40.8633 16.8928 41.6782 16.8928ZM22.5217 16.8203C22.5217 16.4282 22.2038 16.1103 21.8117 16.1103C21.4195 16.1103 21.1017 16.4282 21.1017 16.8203V17.5696C21.1017 17.647 21.039 17.7096 20.9617 17.7096H18.3528C17.9607 17.7096 17.6428 18.0275 17.6428 18.4196C17.6428 18.8118 17.9607 19.1296 18.3528 19.1296H21.8105L21.8117 19.1296L21.8128 19.1296H25.2708C25.6629 19.1296 25.9808 18.8118 25.9808 18.4196C25.9808 18.0275 25.6629 17.7096 25.2708 17.7096H22.6617C22.5843 17.7096 22.5217 17.647 22.5217 17.5696V16.8203ZM27.5454 16.1432C27.9375 16.1432 28.2554 16.4611 28.2554 16.8532V20.0128C28.2554 20.0901 28.3181 20.1528 28.3954 20.1528H29.8102C30.2023 20.1528 30.5202 20.4706 30.5202 20.8628C30.5202 21.2549 30.2023 21.5728 29.8102 21.5728H28.3954C28.3181 21.5728 28.2554 21.6355 28.2554 21.7128V25.9095C28.2554 26.3016 27.9375 26.6195 27.5454 26.6195C27.1533 26.6195 26.8354 26.3016 26.8354 25.9095V20.8734L26.8353 20.8628L26.8354 20.8521V16.8532C26.8354 16.4611 27.1533 16.1432 27.5454 16.1432ZM20.3392 21.6181C20.0742 21.7814 19.9124 22.0128 19.9124 22.4346C19.9124 22.8552 20.074 23.0869 20.3394 23.2506C20.6522 23.4434 21.153 23.5598 21.8119 23.5598C22.4708 23.5598 22.9717 23.4434 23.2844 23.2506C23.5498 23.0869 23.7114 22.8552 23.7114 22.4346C23.7114 22.0128 23.5496 21.7814 23.2846 21.6181C22.972 21.4255 22.4712 21.3095 21.8119 21.3095C21.1526 21.3095 20.6518 21.4255 20.3392 21.6181ZM19.5943 20.4092C20.2261 20.0199 21.0301 19.8895 21.8119 19.8895C22.5938 19.8895 23.3977 20.0199 24.0296 20.4092C24.7091 20.8279 25.1314 21.5141 25.1314 22.4346C25.1314 23.3545 24.7088 24.0404 24.0298 24.4592C23.3981 24.8488 22.5942 24.9798 21.8119 24.9798C21.0296 24.9798 20.2258 24.8488 19.594 24.4592C18.915 24.0404 18.4924 23.3545 18.4924 22.4346C18.4924 21.5141 18.9148 20.8279 19.5943 20.4092ZM21.2464 28.2823C21.2464 28.3596 21.3091 28.4223 21.3864 28.4223L27.935 28.4223C28.3271 28.4223 28.645 28.7402 28.645 29.1323C28.645 29.5244 28.3271 29.8423 27.935 29.8423L20.5364 29.8423C20.3481 29.8423 20.1675 29.7675 20.0344 29.6344C19.9012 29.5012 19.8264 29.3206 19.8264 29.1323V26.4414C19.8264 26.0493 20.1443 25.7314 20.5364 25.7314C20.9285 25.7314 21.2464 26.0493 21.2464 26.4414V28.2823Z" fill="black"/>
</svg>
