<svg width="54" height="108" viewBox="0 0 54 108" fill="none" xmlns="http://www.w3.org/2000/svg">
<rect x="1.85" y="1.84961" width="50.3" height="104.3" rx="3" stroke="#8B1EFF" stroke-width="0.28"/>
<path d="M39.0059 97.5853C39.6829 97.5222 40.3549 97.3222 40.9629 97.0121C41.2709 96.8551 41.5629 96.67 41.8347 96.4586C42.1097 96.2475 42.3636 96.0095 42.5939 95.7495C43.0529 95.2325 43.4159 94.6285 43.6688 93.9813C43.9188 93.3392 44.0598 92.6543 44.0867 91.9706C44.1826 71.1256 44.2826 50.2806 44.3881 29.4354C44.4231 22.4864 44.458 15.5384 44.4951 8.58908C44.4731 7.87509 44.3191 7.15707 44.0348 6.49606C43.7548 5.84299 43.3488 5.24606 42.8407 4.7507C42.3407 4.26279 41.7417 3.8757 41.0925 3.61533C40.4475 3.35739 39.7495 3.22433 39.0593 3.21433C31.0194 3.15244 22.9794 3.15244 14.9402 3.21481C14.2501 3.22372 13.5532 3.35678 12.9071 3.61606C12.2581 3.87497 11.6602 4.26303 11.1598 4.75021C10.6517 5.24411 10.2448 5.84213 9.96484 6.49399C9.68079 7.155 9.52588 7.87289 9.50488 8.58688L9.50439 8.58896C9.61438 29.435 9.71631 50.28 9.81506 71.1262C9.849 78.0742 9.88098 85.0222 9.91284 91.9704C9.93884 92.6545 10.0859 93.3415 10.335 93.981C10.4609 94.3051 10.6139 94.6181 10.7931 94.9145C10.9722 95.2104 11.1791 95.4925 11.4089 95.7524C11.6389 96.0124 11.8929 96.2505 12.166 96.4636C12.439 96.6747 12.731 96.8617 13.0391 97.018C13.3451 97.1731 13.666 97.2981 13.995 97.3955C14.322 97.4914 14.6589 97.5595 14.9979 97.5855C18.9939 97.8335 22.996 97.9585 26.9999 97.9585C31.0029 97.9594 35.0059 97.8344 39.002 97.5854" stroke="#8B1EFF" stroke-width="0.283" stroke-miterlimit="10"/>
<path d="M41.4572 92.7598V10.6398V7.09717C41.4572 5.92273 40.5051 4.9707 39.3311 4.9707H14.6691C13.495 4.9707 12.543 5.92273 12.543 7.0968L12.5431 92.7598C12.5431 93.9338 13.495 94.8859 14.6691 94.8857H39.3312C40.5051 94.8857 41.4572 93.9338 41.4572 92.7598Z" stroke="#00FFFF" stroke-width="0.28" stroke-miterlimit="10"/>
<path d="M10.9342 8.06229C10.9332 7.91324 10.9402 7.76431 10.9542 7.61624C10.9611 7.54227 10.9692 7.46829 10.9802 7.39432C10.9902 7.32132 11.0031 7.24832 11.0162 7.1763C11.0711 6.88724 11.1541 6.60526 11.2662 6.33328C11.2942 6.26529 11.3242 6.19827 11.3552 6.13126C11.3862 6.06424 11.4201 5.99832 11.4552 5.93423C11.5241 5.80533 11.6002 5.68033 11.6812 5.56131C11.7632 5.44131 11.8512 5.32535 11.9461 5.21524C11.9931 5.15933 12.0422 5.10526 12.0912 5.05228C12.1422 4.9993 12.1942 4.9473 12.2481 4.89627C12.3542 4.79532 12.4662 4.70035 12.5822 4.61124C12.6982 4.52225 12.8182 4.44034 12.9413 4.36429C13.0652 4.28824 13.1922 4.21927 13.3232 4.1553C13.3882 4.12332 13.4552 4.09329 13.5222 4.06424C13.5892 4.03629 13.6582 4.00931 13.7262 3.98331C14.0022 3.88223 14.2832 3.80728 14.5692 3.75723C14.8552 3.70731 15.1462 3.6813 15.4413 3.67923C23.1054 3.61734 30.8934 3.61734 38.5575 3.67923C38.8532 3.68216 39.1462 3.70816 39.4342 3.75809C39.5062 3.77115 39.5792 3.78506 39.6502 3.80106C39.7212 3.81705 39.7942 3.83414 39.8642 3.85416C40.0062 3.89212 40.1452 3.93607 40.2812 3.98709C40.5542 4.08804 40.8163 4.21414 41.0653 4.36905C41.1283 4.40713 41.1892 4.44705 41.2502 4.48904C41.3092 4.53006 41.3683 4.57315 41.4253 4.61807C41.5412 4.70609 41.6512 4.80008 41.7552 4.90005C41.8612 5.00015 41.9613 5.10611 42.0562 5.21805C42.1032 5.27408 42.1502 5.33206 42.1942 5.39005C42.2392 5.44815 42.2812 5.50711 42.3222 5.56815C42.4862 5.80911 42.6242 6.06509 42.7352 6.33707C42.7622 6.40506 42.7893 6.47305 42.8132 6.54312C42.8372 6.61307 42.8602 6.68411 42.8812 6.75406C42.9222 6.89505 42.9572 7.03909 42.9842 7.18314C43.0393 7.4711 43.0663 7.76407 43.0653 8.06204L43.0594 10.6402L42.9264 89.2162L42.9237 91.3941C42.9237 91.6844 42.9017 91.9723 42.8586 92.2593C42.8466 92.3304 42.8347 92.4024 42.8197 92.4734C42.8066 92.5443 42.7906 92.6154 42.7746 92.6863C42.7407 92.8273 42.7016 92.9673 42.6577 93.1044C42.5677 93.3783 42.4566 93.6443 42.3197 93.9014C42.2867 93.9654 42.2507 94.0293 42.2137 94.0923C42.1767 94.1543 42.1386 94.2154 42.0997 94.2764C42.0207 94.3964 41.9356 94.5133 41.8457 94.6254C41.7557 94.7373 41.6596 94.8454 41.5587 94.9484C41.5077 95.0004 41.4557 95.0513 41.4017 95.1004C41.3497 95.1493 41.2946 95.1974 41.2386 95.2433C41.0177 95.4263 40.7787 95.5854 40.5257 95.7184C40.4616 95.7523 40.3977 95.7834 40.3316 95.8134C40.2657 95.8434 40.1987 95.8723 40.1317 95.8983C39.9976 95.9513 39.8617 95.9964 39.7247 96.0343C39.4497 96.1104 39.1677 96.1574 38.8797 96.1763C31.0049 96.6884 22.995 96.6884 15.12 96.1763C15.047 96.1721 14.9749 96.1652 14.9029 96.1571C14.8309 96.1481 14.76 96.1381 14.6889 96.1261C14.547 96.1021 14.407 96.0711 14.269 96.0331C14.1319 95.9951 13.995 95.9491 13.8609 95.8961C13.795 95.8701 13.728 95.8411 13.662 95.8112C13.597 95.7812 13.531 95.7481 13.467 95.7151C13.2109 95.5801 12.972 95.4201 12.7519 95.2361C12.641 95.1441 12.536 95.0462 12.4339 94.9422C12.3829 94.8902 12.334 94.8361 12.285 94.7812C12.2369 94.7271 12.191 94.6712 12.146 94.6151C11.9659 94.3902 11.8089 94.1491 11.676 93.8941C11.608 93.7681 11.547 93.6371 11.49 93.5021C11.462 93.4362 11.4339 93.3671 11.41 93.2991C11.385 93.2311 11.36 93.1621 11.339 93.0932C11.25 92.8181 11.1839 92.5391 11.141 92.2552C11.097 91.9721 11.076 91.6851 11.0764 91.3941C11.0573 77.5061 11.0373 63.6171 11.0134 49.7292C10.9903 35.8401 10.9643 21.9511 10.9342 8.06229Z" stroke="#FF00FF" stroke-width="0.283465" stroke-miterlimit="10" stroke-linecap="round" stroke-linejoin="round"/>
<path d="M35.9432 104.01V103.562L37.6236 101.723C37.8209 101.507 37.9833 101.32 38.1109 101.161C38.2385 101 38.3329 100.849 38.3942 100.709C38.4572 100.566 38.4887 100.417 38.4887 100.261C38.4887 100.082 38.4456 99.9273 38.3594 99.7963C38.2749 99.6654 38.1589 99.5643 38.0114 99.4931C37.8639 99.4218 37.6982 99.3862 37.5143 99.3862C37.3187 99.3862 37.148 99.4268 37.0022 99.508C36.858 99.5875 36.7462 99.6994 36.6666 99.8436C36.5887 99.9877 36.5498 100.157 36.5498 100.351H35.9631C35.9631 100.052 36.0319 99.7905 36.1695 99.5652C36.307 99.3398 36.4943 99.1641 36.7312 99.0382C36.9699 98.9122 37.2375 98.8493 37.5342 98.8493C37.8325 98.8493 38.0968 98.9122 38.3271 99.0382C38.5575 99.1641 38.7381 99.334 38.869 99.5478C38.9999 99.7615 39.0654 99.9993 39.0654 100.261C39.0654 100.448 39.0314 100.632 38.9635 100.811C38.8972 100.988 38.7812 101.186 38.6155 101.405C38.4514 101.622 38.2236 101.887 37.9319 102.2L36.7884 103.423V103.463H39.1549V104.01H35.9432ZM40.619 104.05C40.4964 104.05 40.3912 104.006 40.3033 103.918C40.2155 103.83 40.1716 103.725 40.1716 103.602C40.1716 103.479 40.2155 103.374 40.3033 103.286C40.3912 103.199 40.4964 103.155 40.619 103.155C40.7417 103.155 40.8469 103.199 40.9347 103.286C41.0226 103.374 41.0665 103.479 41.0665 103.602C41.0665 103.683 41.0458 103.758 41.0043 103.826C40.9646 103.894 40.9107 103.948 40.8428 103.99C40.7765 104.03 40.7019 104.05 40.619 104.05ZM43.592 104.079C43.2175 104.079 42.8985 103.977 42.635 103.774C42.3715 103.568 42.1702 103.271 42.031 102.881C41.8918 102.49 41.8222 102.018 41.8222 101.464C41.8222 100.914 41.8918 100.444 42.031 100.055C42.1718 99.6638 42.374 99.3655 42.6375 99.16C42.9026 98.9528 43.2208 98.8493 43.592 98.8493C43.9633 98.8493 44.2806 98.9528 44.5441 99.16C44.8093 99.3655 45.0114 99.6638 45.1506 100.055C45.2915 100.444 45.3619 100.914 45.3619 101.464C45.3619 102.018 45.2923 102.49 45.1531 102.881C45.0139 103.271 44.8126 103.568 44.5491 103.774C44.2856 103.977 43.9666 104.079 43.592 104.079ZM43.592 103.532C43.9633 103.532 44.2516 103.354 44.4571 102.996C44.6626 102.638 44.7653 102.127 44.7653 101.464C44.7653 101.023 44.7181 100.648 44.6236 100.338C44.5308 100.028 44.3966 99.7922 44.2209 99.6298C44.0469 99.4674 43.8373 99.3862 43.592 99.3862C43.2241 99.3862 42.9366 99.5676 42.7295 99.9306C42.5223 100.292 42.4187 100.803 42.4187 101.464C42.4187 101.905 42.4651 102.28 42.558 102.588C42.6508 102.896 42.7842 103.131 42.9582 103.291C43.1338 103.452 43.3451 103.532 43.592 103.532ZM46.6048 98.9189L48.1162 103.204H48.1758L49.6872 98.9189H50.3335L48.4642 104.01H47.8278L45.9585 98.9189H46.6048Z" fill="#0000FF"/>
<path fill-rule="evenodd" clip-rule="evenodd" d="M34.0791 49.4824C33.687 49.4824 33.3691 49.8003 33.3691 50.1924C33.3691 50.5845 33.687 50.9024 34.0791 50.9024H36.0691C36.397 50.9024 36.6591 51.1645 36.6591 51.4924V56.3224C36.6591 56.6503 36.397 56.9124 36.0691 56.9124H28.9489C28.8471 56.9124 28.7793 56.8072 28.8214 56.7145L29.2776 55.7109C29.3181 55.6219 29.339 55.5252 29.339 55.4274V55.4174C29.339 55.1814 29.2175 54.962 29.0174 54.8368C28.8174 54.7116 28.5669 54.6982 28.3546 54.8013L24.4493 56.699C23.6689 57.0664 23.6689 58.1784 24.4493 58.5458L28.3546 60.4435C28.6143 60.5697 28.9253 60.5195 29.1321 60.318C29.3389 60.1164 29.3971 59.8069 29.2776 59.544L28.8169 58.5304C28.7747 58.4377 28.8425 58.3324 28.9443 58.3324H36.0691C37.1812 58.3324 38.0791 57.4345 38.0791 56.3224V51.4924C38.0791 50.3803 37.1812 49.4824 36.0691 49.4824H34.0791Z" fill="black"/>
<path d="M15.7503 43.7491C15.3597 43.7491 15.1204 43.505 15.1204 43.0948V37.3574C15.1204 36.9472 15.3597 36.7031 15.7503 36.7031H19.183C19.5297 36.7031 19.7592 36.9082 19.7592 37.2353C19.7592 37.5624 19.5297 37.7675 19.183 37.7675H16.522C16.4437 37.7675 16.3803 37.831 16.3803 37.9092V39.5301C16.3803 39.6084 16.4438 39.6718 16.522 39.6718H19.0365C19.3588 39.6718 19.5785 39.8622 19.5785 40.1699C19.5785 40.4776 19.3637 40.6728 19.0365 40.6728H16.522C16.4437 40.6728 16.3803 40.7363 16.3803 40.8145V42.5428C16.3803 42.6211 16.4438 42.6845 16.522 42.6845H19.183C19.5297 42.6845 19.7592 42.8896 19.7592 43.2167C19.7592 43.5438 19.5297 43.7489 19.183 43.7489H15.7503V43.7491Z" fill="black"/>
<path d="M33.3614 40.546H31.2722C31.1816 40.546 31.1148 40.4622 31.1338 40.3736C31.2704 39.7349 31.742 39.4073 32.3364 39.4073C32.9308 39.4073 33.3849 39.7221 33.5011 40.3804C33.5164 40.4669 33.4493 40.546 33.3614 40.546ZM32.3316 38.4648C30.8374 38.4648 29.8853 39.5292 29.8853 41.1797C29.8853 42.8302 30.8179 43.8506 32.4 43.8506C33.2002 43.8506 33.7862 43.6728 34.2859 43.1178C34.5096 42.8694 34.4497 42.4987 34.1536 42.3402C33.9042 42.2066 33.6205 42.3347 33.4812 42.4641C33.0385 42.8755 32.7137 42.9131 32.3903 42.9131C31.6441 42.9131 31.1541 42.4284 31.1011 41.6049C31.0958 41.5228 31.1602 41.4531 31.2425 41.4531H34.1967C34.4779 41.4531 34.7073 41.2283 34.7137 40.9472C34.7464 39.5043 33.7712 38.4648 32.3316 38.4648Z" fill="black"/>
<path d="M20.8511 43.2062V39.0842C20.8511 38.708 21.0709 38.4688 21.4323 38.4688C21.6391 38.4688 21.8081 38.5492 21.9136 38.6902C21.9392 38.7244 21.961 38.7632 21.9787 38.7996C22.0131 38.8704 22.0976 38.9005 22.1683 38.8662C22.4345 38.7372 23.0538 38.4737 23.6692 38.4737C24.8121 38.4737 25.4617 39.2063 25.4617 40.4029V43.2063C25.4617 43.6167 25.2126 43.8461 24.8561 43.8461C24.4996 43.8461 24.2456 43.6165 24.2456 43.2063V40.6471C24.2456 39.9145 23.9037 39.5043 23.2102 39.5043C22.5167 39.5043 22.0673 40.0073 22.0673 40.7497V43.2063C22.0673 43.6167 21.8133 43.8461 21.4568 43.8461C21.1003 43.8461 20.8511 43.6165 20.8511 43.2062Z" fill="black"/>
<path d="M35.6997 43.2063V39.0841C35.6997 38.7032 35.9341 38.4688 36.2809 38.4688C36.5145 38.4688 36.7011 38.5813 36.7937 38.7772C36.7956 38.7812 36.802 38.7973 36.8105 38.8191C36.8446 38.9066 36.9529 38.9376 37.0278 38.8809C37.2302 38.7278 37.6125 38.4834 37.9904 38.4834C38.1809 38.4834 38.3274 38.5322 38.4202 38.6153C38.5325 38.7081 38.5911 38.8546 38.5911 39.0549C38.5911 39.2552 38.5325 39.387 38.4104 39.4847C38.2932 39.5873 38.1125 39.641 37.8731 39.6459C37.1795 39.6508 36.9158 40.0855 36.9158 40.7155V43.2064C36.9158 43.6069 36.6716 43.8462 36.3053 43.8462C35.939 43.8462 35.6997 43.6068 35.6997 43.2063Z" fill="black"/>
<path d="M26.9752 42.4705V39.6542C26.9752 39.5759 26.9117 39.5125 26.8335 39.5125H26.6481C26.3454 39.5125 26.1597 39.3416 26.1597 39.0486C26.1597 38.7556 26.3452 38.5896 26.6481 38.5896H26.8335C26.9118 38.5896 26.9752 38.5261 26.9752 38.4479V37.8849C26.9752 37.4942 27.2096 37.25 27.5857 37.25C27.9618 37.25 28.1913 37.4941 28.1913 37.8849V38.4479C28.1913 38.5262 28.2548 38.5896 28.333 38.5896H28.7529C29.0556 38.5896 29.2413 38.7604 29.2413 39.0486C29.2413 39.3368 29.0558 39.5125 28.7529 39.5125H28.333C28.2547 39.5125 28.1913 39.576 28.1913 39.6542V42.2068C28.1913 42.5975 28.328 42.7684 28.6797 42.7977L28.7676 42.8075C29.0899 42.8368 29.256 42.9735 29.256 43.2568C29.256 43.6132 28.9435 43.8038 28.3868 43.8038H28.338C27.4346 43.8038 26.9755 43.3545 26.9755 42.4706H26.9753L26.9752 42.4705Z" fill="black"/>
</svg>
