<svg width="108" height="54" viewBox="0 0 108 54" fill="none" xmlns="http://www.w3.org/2000/svg">
<rect x="1.85" y="1.84961" width="104.3" height="50.3" rx="3" stroke="#8B1EFF" stroke-width="0.28"/>
<path d="M10.0468 38.2878C9.97168 28.3758 9.87476 18.4637 9.75488 8.55276C9.7699 8.00967 9.86792 7.46671 10.0386 6.94742C10.2085 6.4335 10.4506 5.94241 10.7612 5.50089C10.9161 5.27982 11.0881 5.07193 11.2767 4.87906C11.4626 4.68607 11.6656 4.50906 11.8804 4.34891C12.0953 4.18887 12.3234 4.04593 12.5598 3.91971C12.7958 3.79373 13.0417 3.68375 13.2942 3.59329C13.6122 3.48135 13.9413 3.39737 14.2739 3.33963C14.6089 3.28165 14.9479 3.24857 15.2865 3.24307C41.0985 3.13516 66.9105 3.13516 92.7227 3.24283C93.4247 3.25089 94.1348 3.38089 94.7959 3.6293C95.126 3.75333 95.444 3.90726 95.7438 4.09134C96.0448 4.27542 96.3268 4.49039 96.5842 4.73209C96.8412 4.97513 97.0732 5.24515 97.2748 5.5358C97.4778 5.82779 97.6488 6.14078 97.7908 6.46768C98.0737 7.12369 98.2338 7.84073 98.2538 8.55301C98.1317 18.464 98.0337 28.376 97.9614 38.2881C97.9374 38.9501 97.7854 39.6131 97.5188 40.225C97.2467 40.8479 96.8567 41.417 96.3781 41.8958C95.8942 42.3797 95.3212 42.7718 94.6964 43.0514C94.0743 43.3305 93.4014 43.4964 92.7267 43.5435C79.8228 43.9566 66.9137 44.1635 54.005 44.1635C41.094 44.1635 28.1851 43.9574 15.2823 43.5432C14.6073 43.4962 13.9343 43.3302 13.3126 43.0514C12.6876 42.7715 12.1136 42.3784 11.6311 41.8957C11.1521 41.4156 10.7611 40.8466 10.4897 40.2231C10.2236 39.6121 10.0707 38.9482 10.0468 38.286" stroke="#8B1EFF" stroke-width="0.283" stroke-miterlimit="10"/>
<path d="M93.689 41.0029H14.3188C13.1448 41.0031 12.1929 40.051 12.1929 38.877V7.97998C12.1927 6.80554 13.1448 5.85352 14.3188 5.85352H17.8628H90.1458H93.689C94.8639 5.85352 95.8149 6.80554 95.8149 7.97949V38.877C95.8149 40.051 94.8639 41.0029 93.689 41.0029Z" stroke="#00FFFF" stroke-width="0.28" stroke-miterlimit="10"/>
<path d="M97.3453 9.19852C97.3542 9.04056 97.3602 8.88358 97.3593 8.72659C97.3573 8.56961 97.3483 8.4136 97.3303 8.2576C97.3223 8.1796 97.3113 8.10159 97.2982 8.02359C97.2853 7.94656 97.2712 7.86856 97.2543 7.79153C97.2203 7.6376 97.1793 7.48758 97.1293 7.34061C97.0782 7.19254 97.0212 7.04764 96.9542 6.90652C96.9203 6.8356 96.8853 6.76553 96.8483 6.69656C96.8103 6.62759 96.7703 6.5596 96.7283 6.49258C96.5623 6.22659 96.3663 5.98453 96.1443 5.76553C96.0873 5.7106 96.0312 5.65762 95.9713 5.60562C95.9413 5.57962 95.9113 5.5546 95.8802 5.52957C95.8502 5.50455 95.8193 5.47952 95.7872 5.45462C95.6622 5.35757 95.5333 5.26859 95.4003 5.18655C95.1323 5.02261 94.8483 4.8876 94.5472 4.78055C94.2473 4.67264 93.9413 4.59561 93.6302 4.54459C93.3193 4.49258 93.0033 4.46756 92.6832 4.46658C66.9321 4.3627 41.0771 4.3627 15.3262 4.46658C15.0057 4.46768 14.6887 4.49258 14.3788 4.54459C14.0668 4.59561 13.7617 4.67264 13.4607 4.78067C13.1608 4.8876 12.8757 5.02359 12.6078 5.18668C12.4738 5.26859 12.3457 5.35867 12.2207 5.4556C12.1887 5.47964 12.1577 5.50467 12.1277 5.52969C12.0968 5.5546 12.0668 5.5806 12.0367 5.6066C11.9778 5.65762 11.9208 5.7117 11.8647 5.76566C11.6407 5.98465 11.4458 6.22659 11.2798 6.49368C11.2378 6.5596 11.1978 6.62869 11.1608 6.69669C11.1228 6.76663 11.0878 6.8367 11.0547 6.90665C10.9867 7.04861 10.9297 7.19266 10.8798 7.34061C10.8297 7.4877 10.7877 7.6387 10.7538 7.79263C10.7367 7.86966 10.7218 7.94669 10.7097 8.02469C10.6968 8.10269 10.6858 8.1796 10.6787 8.2587C10.6608 8.4136 10.6517 8.57059 10.6498 8.72769C10.6477 8.8837 10.6548 9.04166 10.6637 9.19962C10.6876 13.9795 10.7096 18.7596 10.7286 23.5396C10.7487 28.3196 10.7666 33.0995 10.7816 37.8795C10.7828 38.1723 10.8098 38.4622 10.8638 38.7482C10.8907 38.8903 10.9248 39.0323 10.9658 39.1732C10.9858 39.2432 11.0088 39.3133 11.0328 39.3832C11.0558 39.4533 11.0828 39.5222 11.1097 39.5902C11.2187 39.8632 11.3538 40.1222 11.5148 40.3672C11.5948 40.4893 11.6818 40.6082 11.7758 40.7233C11.8228 40.7813 11.8718 40.8372 11.9218 40.8932C11.9708 40.9473 12.0218 41.0013 12.0739 41.0533C12.2828 41.2622 12.5107 41.4483 12.7598 41.6112C12.8208 41.6523 12.8848 41.6923 12.9489 41.7303C13.0118 41.7682 13.0778 41.8052 13.1428 41.8393C13.2748 41.9092 13.4088 41.9712 13.5458 42.0273C13.6818 42.0833 13.8218 42.1332 13.9637 42.1763C14.0338 42.1983 14.1058 42.2183 14.1779 42.2362C14.2498 42.2542 14.3228 42.2722 14.3958 42.2873C14.6877 42.3472 14.9828 42.3813 15.2808 42.3903C41.0608 43.1745 66.9468 43.1745 92.7268 42.3904C93.0251 42.3815 93.3191 42.3474 93.6071 42.2875C93.7511 42.2585 93.8951 42.2224 94.0371 42.1795C94.1071 42.1575 94.1781 42.1344 94.2482 42.1095C94.3191 42.0845 94.3881 42.0575 94.4572 42.0294C94.7332 41.9164 94.9941 41.7804 95.2401 41.6184C95.3632 41.5375 95.4821 41.4505 95.5972 41.3565C95.6552 41.3095 95.7111 41.2615 95.7671 41.2115C95.8231 41.1615 95.8761 41.1105 95.9291 41.0585C96.1381 40.8495 96.3251 40.6225 96.4871 40.3775C96.5271 40.3155 96.5662 40.2534 96.6041 40.1895C96.6411 40.1265 96.6771 40.0605 96.7122 39.9955C96.7811 39.8645 96.8422 39.7315 96.8971 39.5955C97.0061 39.3245 97.0881 39.0435 97.1431 38.7544C97.1571 38.6825 97.1691 38.6095 97.1791 38.5365C97.1901 38.4645 97.1991 38.3915 97.2061 38.3185C97.2191 38.1725 97.2261 38.0265 97.2272 37.8792C97.2432 33.0993 97.2592 28.3192 97.2791 23.5392C97.2981 18.7592 97.3201 13.9793 97.3453 9.19852Z" stroke="#FF00FF" stroke-width="0.283465" stroke-miterlimit="10" stroke-linecap="round" stroke-linejoin="round"/>
<path d="M90.2987 50.0098V49.5623L91.9791 47.7228C92.1763 47.5074 92.3387 47.3201 92.4663 47.161C92.5939 47.0003 92.6884 46.8495 92.7497 46.7086C92.8127 46.5661 92.8442 46.417 92.8442 46.2612C92.8442 46.0822 92.8011 45.9273 92.7149 45.7963C92.6304 45.6654 92.5144 45.5643 92.3669 45.4931C92.2194 45.4218 92.0537 45.3862 91.8697 45.3862C91.6742 45.3862 91.5035 45.4268 91.3577 45.508C91.2135 45.5875 91.1016 45.6994 91.0221 45.8436C90.9442 45.9877 90.9053 46.1568 90.9053 46.3507H90.3186C90.3186 46.0524 90.3874 45.7905 90.5249 45.5652C90.6625 45.3398 90.8497 45.1641 91.0867 45.0382C91.3254 44.9122 91.593 44.8493 91.8896 44.8493C92.1879 44.8493 92.4522 44.9122 92.6826 45.0382C92.9129 45.1641 93.0936 45.334 93.2245 45.5478C93.3554 45.7615 93.4209 45.9993 93.4209 46.2612C93.4209 46.4484 93.3869 46.6316 93.319 46.8105C93.2527 46.9879 93.1367 47.1859 92.9709 47.4047C92.8069 47.6217 92.579 47.8869 92.2874 48.2001L91.1439 49.4231V49.4629H93.5104V50.0098H90.2987ZM94.9745 50.0495C94.8519 50.0495 94.7466 50.0056 94.6588 49.9178C94.571 49.83 94.5271 49.7247 94.5271 49.6021C94.5271 49.4795 94.571 49.3742 94.6588 49.2864C94.7466 49.1986 94.8519 49.1547 94.9745 49.1547C95.0971 49.1547 95.2024 49.1986 95.2902 49.2864C95.378 49.3742 95.4219 49.4795 95.4219 49.6021C95.4219 49.6833 95.4012 49.7579 95.3598 49.8258C95.32 49.8938 95.2662 49.9484 95.1982 49.9899C95.1319 50.0297 95.0574 50.0495 94.9745 50.0495ZM97.9475 50.0794C97.573 50.0794 97.254 49.9775 96.9905 49.7736C96.727 49.5681 96.5256 49.2707 96.3864 48.8812C96.2472 48.4901 96.1776 48.0178 96.1776 47.4643C96.1776 46.9141 96.2472 46.4443 96.3864 46.0549C96.5273 45.6638 96.7295 45.3655 96.993 45.16C97.2581 44.9528 97.5763 44.8493 97.9475 44.8493C98.3187 44.8493 98.6361 44.9528 98.8996 45.16C99.1647 45.3655 99.3669 45.6638 99.5061 46.0549C99.647 46.4443 99.7174 46.9141 99.7174 47.4643C99.7174 48.0178 99.6478 48.4901 99.5086 48.8812C99.3694 49.2707 99.168 49.5681 98.9045 49.7736C98.641 49.9775 98.322 50.0794 97.9475 50.0794ZM97.9475 49.5325C98.3187 49.5325 98.6071 49.3535 98.8126 48.9956C99.0181 48.6376 99.1208 48.1272 99.1208 47.4643C99.1208 47.0235 99.0736 46.6481 98.9791 46.3382C98.8863 46.0283 98.7521 45.7922 98.5764 45.6298C98.4024 45.4674 98.1928 45.3862 97.9475 45.3862C97.5796 45.3862 97.2921 45.5676 97.0849 45.9306C96.8778 46.2918 96.7742 46.8031 96.7742 47.4643C96.7742 47.9051 96.8206 48.2797 96.9134 48.5879C97.0062 48.8961 97.1396 49.1306 97.3136 49.2914C97.4893 49.4521 97.7006 49.5325 97.9475 49.5325ZM102.323 50.0794C101.948 50.0794 101.629 49.9775 101.365 49.7736C101.102 49.5681 100.901 49.2707 100.761 48.8812C100.622 48.4901 100.553 48.0178 100.553 47.4643C100.553 46.9141 100.622 46.4443 100.761 46.0549C100.902 45.6638 101.104 45.3655 101.368 45.16C101.633 44.9528 101.951 44.8493 102.323 44.8493C102.694 44.8493 103.011 44.9528 103.275 45.16C103.54 45.3655 103.742 45.6638 103.881 46.0549C104.022 46.4443 104.092 46.9141 104.092 47.4643C104.092 48.0178 104.023 48.4901 103.884 48.8812C103.744 49.2707 103.543 49.5681 103.28 49.7736C103.016 49.9775 102.697 50.0794 102.323 50.0794ZM102.323 49.5325C102.694 49.5325 102.982 49.3535 103.188 48.9956C103.393 48.6376 103.496 48.1272 103.496 47.4643C103.496 47.0235 103.449 46.6481 103.354 46.3382C103.261 46.0283 103.127 45.7922 102.951 45.6298C102.777 45.4674 102.568 45.3862 102.323 45.3862C101.955 45.3862 101.667 45.5676 101.46 45.9306C101.253 46.2918 101.149 46.8031 101.149 47.4643C101.149 47.9051 101.196 48.2797 101.288 48.5879C101.381 48.8961 101.515 49.1306 101.689 49.2914C101.864 49.4521 102.076 49.5325 102.323 49.5325Z" fill="#0000FF"/>
<path d="M15.4409 14.1953V13.6328C15.4409 10.0293 17.1636 7.67383 20.02 7.67383C22.8852 7.67383 24.5727 10.0029 24.5727 13.6328V14.1953C24.5727 17.79 22.8325 20.1543 19.9848 20.1543C17.1372 20.1543 15.4409 17.8164 15.4409 14.1953ZM17.8139 13.6416V14.1777C17.8139 16.709 18.6401 18.2207 20.0024 18.2207C21.3647 18.2207 22.1909 16.709 22.1909 14.1777V13.6416C22.1909 11.1191 21.3647 9.60742 20.0024 9.60742C18.6401 9.60742 17.8139 11.1104 17.8139 13.6416Z" fill="black"/>
</svg>
