<svg width="54" height="54" viewBox="0 0 54 54" fill="none" xmlns="http://www.w3.org/2000/svg">
<rect x="1.84998" y="1.84998" width="50.3" height="50.3" rx="3" stroke="#8B1EFF" stroke-width="0.28"/>
<path d="M9.91309 37.0476C9.83508 27.0607 9.73608 17.0726 9.61914 7.0846L9.6192 7.08216C9.62323 6.91614 9.63623 6.75013 9.65631 6.58399C9.67633 6.41895 9.70233 6.25501 9.73553 6.09156C9.76752 5.92957 9.80652 5.76856 9.85266 5.60975C9.89966 5.45179 9.95166 5.29578 10.0115 5.14161C10.1985 4.66761 10.4535 4.21668 10.77 3.81434C11.083 3.41736 11.456 3.06837 11.8725 2.78394C12.2875 2.50196 12.7465 2.28394 13.2258 2.13697C13.7078 1.98987 14.2118 1.91395 14.7141 1.90662C18.8081 1.87171 22.9021 1.85462 26.9963 1.85499C31.0893 1.85499 35.1833 1.87195 39.2776 1.90723C39.4396 1.91016 39.6016 1.92115 39.7635 1.93775C40.0035 1.96375 40.2435 2.00477 40.4799 2.06153C40.7139 2.11854 40.9449 2.19044 41.1697 2.27955C41.4037 2.37256 41.6287 2.48353 41.8449 2.61072C42.062 2.73865 42.2689 2.8827 42.4627 3.04163C42.6577 3.20167 42.8417 3.37671 43.0105 3.56324C43.1795 3.7522 43.3355 3.95423 43.476 4.16578C43.757 4.59485 43.975 5.06483 44.125 5.55652C44.276 6.05445 44.358 6.57447 44.373 7.09266C44.252 17.0696 44.154 27.0466 44.08 37.0252C44.074 37.1851 44.0601 37.3451 44.039 37.5037C44.018 37.6647 43.991 37.8236 43.9569 37.9813C43.9239 38.1403 43.8839 38.2983 43.8358 38.4537C43.7888 38.6097 43.7349 38.7637 43.675 38.9157C43.484 39.3908 43.228 39.8407 42.9172 40.2495C42.6032 40.6605 42.2352 41.0286 41.8244 41.3395C41.4154 41.6495 40.9624 41.9036 40.4838 42.0906C40.0098 42.2755 39.5098 42.3955 39.0063 42.4435C31.0073 42.9535 22.9843 42.9535 14.9849 42.4436C14.6529 42.4116 14.3229 42.3477 14.0024 42.2535C13.6794 42.1596 13.3654 42.0346 13.0632 41.882C12.4602 41.575 11.9092 41.1569 11.4476 40.6577C10.9866 40.1607 10.6126 39.5817 10.349 38.9596C10.219 38.6516 10.115 38.3325 10.0411 38.0056C9.96912 37.6836 9.92407 37.3546 9.91113 37.0245" stroke="#8B1EFF" stroke-width="0.283" stroke-miterlimit="10"/>
<rect x="12.6854" y="5.52832" width="28.63" height="34.31" rx="1.43" stroke="#00FFFF" stroke-width="0.28"/>
<path d="M42.9396 36.5841C42.9576 31.7322 42.9776 26.8792 43.0006 22.0272C43.0216 17.1742 43.0466 12.3221 43.0756 7.46912C43.0764 7.32446 43.0714 7.18042 43.0594 7.03748C43.0494 6.89441 43.0314 6.75146 43.0074 6.61047C42.9604 6.32837 42.8884 6.05444 42.7894 5.78943C42.7644 5.72339 42.7384 5.65747 42.7104 5.59241C42.6814 5.52637 42.6524 5.46143 42.6214 5.39844C42.5584 5.27039 42.4904 5.14746 42.4154 5.02844C42.2664 4.79041 42.0934 4.57043 41.8934 4.36646C41.6954 4.16345 41.4774 3.98645 41.2434 3.83337C41.1264 3.75745 41.0054 3.6864 40.8794 3.62244C40.8164 3.59045 40.7534 3.55945 40.6874 3.5304C40.6234 3.50037 40.5564 3.47339 40.4904 3.44739C40.2234 3.34338 39.9504 3.26843 39.6714 3.21741C39.3924 3.16638 39.1074 3.14038 38.8164 3.13745C37.8376 3.12988 36.8566 3.12183 35.8735 3.11584C34.8896 3.10889 33.9056 3.10388 32.9205 3.09888C30.9496 3.09082 28.9756 3.08691 26.9985 3.08691C26.5035 3.08691 26.0096 3.08691 25.5146 3.08691C25.0206 3.08789 24.5256 3.08887 24.0306 3.08984C23.0416 3.09192 22.0536 3.09485 21.0685 3.09888C19.0966 3.10791 17.1326 3.12085 15.1755 3.13782C15.0298 3.13892 14.8859 3.14685 14.7408 3.15991C14.5979 3.17383 14.4539 3.19287 14.3129 3.21887C14.0298 3.27087 13.7559 3.3479 13.4908 3.4519C13.4249 3.47791 13.3599 3.50488 13.2949 3.53491C13.2299 3.56384 13.1649 3.59583 13.1019 3.62793C12.9749 3.69385 12.8539 3.76489 12.7359 3.8429C12.5009 3.99683 12.2839 4.1759 12.0859 4.37988C12.0369 4.42993 11.9889 4.48291 11.9429 4.53589C11.8969 4.58887 11.8519 4.64282 11.8089 4.69885C11.7229 4.80884 11.6429 4.92383 11.5688 5.04187C11.4949 5.16089 11.4279 5.28394 11.3649 5.40991C11.3349 5.4729 11.3058 5.53687 11.2779 5.60291C11.2499 5.66785 11.2239 5.73486 11.1989 5.80188C11.1009 6.06787 11.0298 6.34082 10.9839 6.6189C10.9379 6.89685 10.9149 7.18091 10.9169 7.46985C10.9452 12.3224 10.9712 17.1744 10.9932 22.0275C11.0162 26.8794 11.0352 31.7324 11.0532 36.5845C11.0539 36.8712 11.0779 37.1552 11.1279 37.4392C11.1409 37.5101 11.1549 37.5812 11.1699 37.6511C11.1859 37.7212 11.2019 37.7911 11.2209 37.8601C11.2579 37.9991 11.3009 38.1351 11.3499 38.2701C11.3989 38.4052 11.4529 38.5382 11.5149 38.6682C11.5459 38.7332 11.5769 38.7982 11.6119 38.8622C11.6459 38.9261 11.6809 38.9901 11.7179 39.0532C11.8649 39.3032 12.0329 39.5361 12.2239 39.7532C12.3189 39.8612 12.4199 39.9652 12.5269 40.0652C12.5789 40.1151 12.6339 40.1632 12.6899 40.2102C12.7449 40.2572 12.8009 40.3021 12.8589 40.3462C13.0879 40.5211 13.3319 40.6721 13.5919 40.7982C13.6569 40.8302 13.7229 40.8601 13.7899 40.8882C13.8569 40.9171 13.9239 40.9431 13.9919 40.9681C14.1279 41.0182 14.2649 41.0612 14.4039 41.0972C14.6799 41.1692 14.9629 41.2131 15.2509 41.2312C16.2241 41.2916 17.1991 41.3446 18.1771 41.3896C19.1531 41.4357 20.1321 41.4727 21.1111 41.5027C23.0681 41.5636 25.0291 41.5936 26.9941 41.5936C27.485 41.5936 27.9771 41.5917 28.4681 41.5876C28.959 41.5846 29.451 41.5786 29.9421 41.5707C30.925 41.5557 31.9061 41.5336 32.886 41.5027C34.8441 41.4426 36.7961 41.3527 38.7414 41.2316C38.8864 41.2227 39.0294 41.2067 39.1724 41.1846C39.2433 41.1726 39.3144 41.1597 39.3864 41.1447C39.4564 41.1296 39.5273 41.1136 39.5964 41.0946C39.8763 41.0226 40.1454 40.9226 40.4044 40.7957C40.4703 40.7646 40.5334 40.7316 40.5964 40.6967C40.6603 40.6616 40.7234 40.6246 40.7853 40.5856C40.9094 40.5096 41.0284 40.4266 41.1423 40.3386C41.3724 40.1636 41.5823 39.9667 41.7734 39.7487C41.8214 39.6936 41.8674 39.6376 41.9134 39.5807C41.9584 39.5237 42.0024 39.4656 42.0444 39.4066C42.1293 39.2897 42.2073 39.1686 42.2794 39.0447C42.4254 38.7966 42.5464 38.5376 42.6443 38.2656C42.6694 38.1976 42.6924 38.1287 42.7144 38.0596C42.7354 37.9906 42.7554 37.9216 42.7734 37.8527C42.8104 37.7136 42.8414 37.5746 42.8654 37.4346C42.9144 37.1537 42.9384 36.8706 42.9396 36.5841Z" stroke="#FF00FF" stroke-width="0.283465" stroke-miterlimit="10" stroke-linecap="round" stroke-linejoin="round"/>
<path d="M40.1017 30.7152H39.3741C39.285 30.7152 39.218 30.634 39.235 30.5465L39.781 27.7319C39.7996 27.6264 39.812 27.5272 39.812 27.428C39.812 27.0187 39.5144 26.7521 39.0865 26.7521C38.7144 26.7521 38.423 26.9939 38.3672 27.366L37.8529 30.5958C37.842 30.6646 37.7826 30.7152 37.713 30.7152H36.665C36.5995 30.7152 36.5424 30.6703 36.5272 30.6065L35.7627 27.4094C35.6697 26.9877 35.4216 26.7521 34.9999 26.7521C34.5721 26.7521 34.324 27.0001 34.2248 27.428L33.4605 30.6066C33.4452 30.6703 33.3882 30.7152 33.3227 30.7152H32.2807C32.211 30.7152 32.1517 30.6646 32.1407 30.5958L31.6265 27.366C31.5707 27.0001 31.2792 26.7521 30.9072 26.7521C30.4793 26.7521 30.1816 27.0187 30.1816 27.428C30.1816 27.5272 30.194 27.6264 30.2126 27.7319L30.7587 30.5465C30.7757 30.634 30.7087 30.7152 30.6196 30.7152H29.8919C29.6551 30.7152 29.4435 30.8884 29.4211 31.1243C29.3953 31.3948 29.6073 31.6223 29.8725 31.6223H30.8519C30.9198 31.6223 30.9781 31.6704 30.991 31.7371L31.5955 34.8632C31.6947 35.3779 32.0792 35.6755 32.5691 35.6755C33.0466 35.6755 33.4186 35.3841 33.5241 34.8818L34.28 31.7309C34.2953 31.6672 34.3523 31.6223 34.4179 31.6223H35.5758C35.6414 31.6223 35.6983 31.6672 35.7136 31.7309L36.4696 34.8818C36.575 35.3841 36.9471 35.6755 37.4246 35.6755C37.9145 35.6755 38.299 35.3779 38.3982 34.8632L39.0027 31.7371C39.0155 31.6704 39.0739 31.6223 39.1418 31.6223H40.1211C40.3863 31.6223 40.5983 31.3947 40.5725 31.1242C40.5501 30.8884 40.3386 30.7152 40.1017 30.7152ZM34.859 29.3205C34.8936 29.1755 35.1 29.1754 35.1347 29.3205L35.4263 30.5406C35.4476 30.6297 35.38 30.7152 35.2884 30.7152H34.7052C34.6136 30.7152 34.5461 30.6297 34.5674 30.5406L34.859 29.3205ZM32.8355 33.238C32.7995 33.389 32.5819 33.3806 32.5577 33.2273L32.3297 31.7862C32.3161 31.7001 32.3826 31.6223 32.4697 31.6223H33.0415C33.1331 31.6223 33.2007 31.7078 33.1794 31.7969L32.8355 33.238ZM37.436 33.2273C37.4117 33.3806 37.1942 33.389 37.1581 33.238L36.8143 31.7969C36.793 31.7078 36.8605 31.6223 36.9521 31.6223H37.5239C37.6111 31.6223 37.6775 31.7001 37.6639 31.7862L37.436 33.2273Z" fill="black"/>
<path d="M18.2621 18.9282V9.59541C18.2621 9.04351 18.5845 8.77686 19 8.77686C19.4155 8.77686 19.738 9.04351 19.738 9.59541V18.9282C19.738 19.4801 19.4155 19.7467 19 19.7467C18.5845 19.7467 18.2621 19.4801 18.2621 18.9282Z" fill="black"/>
<path d="M19.6574 37.2258L16.9785 27.7318C16.9599 27.676 16.9413 27.5768 16.9413 27.4838C16.9289 27.0993 17.2451 26.7769 17.6482 26.7769C17.9831 26.7769 18.2559 26.9753 18.3489 27.2978L21.0216 36.7979C21.0402 36.8476 21.0588 36.953 21.065 37.0398C21.0713 37.4243 20.7612 37.7467 20.3519 37.7467C20.0171 37.7467 19.7442 37.5483 19.6574 37.2258Z" fill="black"/>
</svg>
