<svg width="54" height="54" viewBox="0 0 54 54" fill="none" xmlns="http://www.w3.org/2000/svg">
<rect x="1.8501" y="1.8501" width="50.3" height="50.3" rx="3" stroke="#8B1EFF" stroke-width="0.28"/>
<path d="M9.91309 37.0476C9.83508 27.0607 9.73608 17.0726 9.61914 7.0846L9.6192 7.08216C9.62323 6.91614 9.63623 6.75013 9.65631 6.58399C9.67633 6.41895 9.70233 6.25501 9.73553 6.09156C9.76752 5.92957 9.80652 5.76856 9.85266 5.60975C9.89966 5.45179 9.95166 5.29578 10.0115 5.14161C10.1985 4.66761 10.4535 4.21668 10.77 3.81434C11.083 3.41736 11.456 3.06837 11.8725 2.78394C12.2875 2.50196 12.7465 2.28394 13.2258 2.13697C13.7078 1.98987 14.2118 1.91395 14.7141 1.90662C18.8081 1.87171 22.9021 1.85462 26.9963 1.85499C31.0893 1.85499 35.1833 1.87195 39.2776 1.90723C39.4396 1.91016 39.6016 1.92115 39.7635 1.93775C40.0035 1.96375 40.2435 2.00477 40.4799 2.06153C40.7139 2.11854 40.9449 2.19044 41.1697 2.27955C41.4037 2.37256 41.6287 2.48353 41.8449 2.61072C42.062 2.73865 42.2689 2.8827 42.4627 3.04163C42.6577 3.20167 42.8417 3.37671 43.0105 3.56324C43.1795 3.7522 43.3355 3.95423 43.476 4.16578C43.757 4.59485 43.975 5.06483 44.125 5.55652C44.276 6.05445 44.358 6.57447 44.373 7.09266C44.252 17.0696 44.154 27.0466 44.08 37.0252C44.074 37.1851 44.0601 37.3451 44.039 37.5037C44.018 37.6647 43.991 37.8236 43.9569 37.9813C43.9239 38.1403 43.8839 38.2983 43.8358 38.4537C43.7888 38.6097 43.7349 38.7637 43.675 38.9157C43.484 39.3908 43.228 39.8407 42.9172 40.2495C42.6032 40.6605 42.2352 41.0286 41.8244 41.3395C41.4154 41.6495 40.9624 41.9036 40.4838 42.0906C40.0098 42.2755 39.5098 42.3955 39.0063 42.4435C31.0073 42.9535 22.9843 42.9535 14.9849 42.4436C14.6529 42.4116 14.3229 42.3477 14.0024 42.2535C13.6794 42.1596 13.3654 42.0346 13.0632 41.882C12.4602 41.575 11.9092 41.1569 11.4476 40.6577C10.9866 40.1607 10.6126 39.5817 10.349 38.9596C10.219 38.6516 10.115 38.3325 10.0411 38.0056C9.96912 37.6836 9.92407 37.3546 9.91113 37.0245" stroke="#8B1EFF" stroke-width="0.283" stroke-miterlimit="10"/>
<rect x="12.6855" y="5.52832" width="28.63" height="34.31" rx="1.43" stroke="#00FFFF" stroke-width="0.28"/>
<path d="M42.9396 36.5841C42.9576 31.7322 42.9776 26.8792 43.0006 22.0272C43.0216 17.1742 43.0466 12.3221 43.0756 7.46912C43.0764 7.32446 43.0714 7.18042 43.0594 7.03748C43.0494 6.89441 43.0314 6.75146 43.0074 6.61047C42.9604 6.32837 42.8884 6.05444 42.7894 5.78943C42.7644 5.72339 42.7384 5.65747 42.7104 5.59241C42.6814 5.52637 42.6524 5.46143 42.6214 5.39844C42.5584 5.27039 42.4904 5.14746 42.4154 5.02844C42.2664 4.79041 42.0934 4.57043 41.8934 4.36646C41.6954 4.16345 41.4774 3.98645 41.2434 3.83337C41.1264 3.75745 41.0054 3.6864 40.8794 3.62244C40.8164 3.59045 40.7534 3.55945 40.6874 3.5304C40.6234 3.50037 40.5564 3.47339 40.4904 3.44739C40.2234 3.34338 39.9504 3.26843 39.6714 3.21741C39.3924 3.16638 39.1074 3.14038 38.8164 3.13745C37.8376 3.12988 36.8566 3.12183 35.8735 3.11584C34.8896 3.10889 33.9056 3.10388 32.9205 3.09888C30.9496 3.09082 28.9756 3.08691 26.9985 3.08691C26.5035 3.08691 26.0096 3.08691 25.5146 3.08691C25.0206 3.08789 24.5256 3.08887 24.0306 3.08984C23.0416 3.09192 22.0536 3.09485 21.0685 3.09888C19.0966 3.10791 17.1326 3.12085 15.1755 3.13782C15.0298 3.13892 14.8859 3.14685 14.7408 3.15991C14.5979 3.17383 14.4539 3.19287 14.3129 3.21887C14.0298 3.27087 13.7559 3.3479 13.4908 3.4519C13.4249 3.47791 13.3599 3.50488 13.2949 3.53491C13.2299 3.56384 13.1649 3.59583 13.1019 3.62793C12.9749 3.69385 12.8539 3.76489 12.7359 3.8429C12.5009 3.99683 12.2839 4.1759 12.0859 4.37988C12.0369 4.42993 11.9889 4.48291 11.9429 4.53589C11.8969 4.58887 11.8519 4.64282 11.8089 4.69885C11.7229 4.80884 11.6429 4.92383 11.5688 5.04187C11.4949 5.16089 11.4279 5.28394 11.3649 5.40991C11.3349 5.4729 11.3058 5.53687 11.2779 5.60291C11.2499 5.66785 11.2239 5.73486 11.1989 5.80188C11.1009 6.06787 11.0298 6.34082 10.9839 6.6189C10.9379 6.89685 10.9149 7.18091 10.9169 7.46985C10.9452 12.3224 10.9712 17.1744 10.9932 22.0275C11.0162 26.8794 11.0352 31.7324 11.0532 36.5845C11.0539 36.8712 11.0779 37.1552 11.1279 37.4392C11.1409 37.5101 11.1549 37.5812 11.1699 37.6511C11.1859 37.7212 11.2019 37.7911 11.2209 37.8601C11.2579 37.9991 11.3009 38.1351 11.3499 38.2701C11.3989 38.4052 11.4529 38.5382 11.5149 38.6682C11.5459 38.7332 11.5769 38.7982 11.6119 38.8622C11.6459 38.9261 11.6809 38.9901 11.7179 39.0532C11.8649 39.3032 12.0329 39.5361 12.2239 39.7532C12.3189 39.8612 12.4199 39.9652 12.5269 40.0652C12.5789 40.1151 12.6339 40.1632 12.6899 40.2102C12.7449 40.2572 12.8009 40.3021 12.8589 40.3462C13.0879 40.5211 13.3319 40.6721 13.5919 40.7982C13.6569 40.8302 13.7229 40.8601 13.7899 40.8882C13.8569 40.9171 13.9239 40.9431 13.9919 40.9681C14.1279 41.0182 14.2649 41.0612 14.4039 41.0972C14.6799 41.1692 14.9629 41.2131 15.2509 41.2312C16.2241 41.2916 17.1991 41.3446 18.1771 41.3896C19.1531 41.4357 20.1321 41.4727 21.1111 41.5027C23.0681 41.5636 25.0291 41.5936 26.9941 41.5936C27.485 41.5936 27.9771 41.5917 28.4681 41.5876C28.959 41.5846 29.451 41.5786 29.9421 41.5707C30.925 41.5557 31.9061 41.5336 32.886 41.5027C34.8441 41.4426 36.7961 41.3527 38.7414 41.2316C38.8864 41.2227 39.0294 41.2067 39.1724 41.1846C39.2433 41.1726 39.3144 41.1597 39.3864 41.1447C39.4564 41.1296 39.5273 41.1136 39.5964 41.0946C39.8763 41.0226 40.1454 40.9226 40.4044 40.7957C40.4703 40.7646 40.5334 40.7316 40.5964 40.6967C40.6603 40.6616 40.7234 40.6246 40.7853 40.5856C40.9094 40.5096 41.0284 40.4266 41.1423 40.3386C41.3724 40.1636 41.5823 39.9667 41.7734 39.7487C41.8214 39.6936 41.8674 39.6376 41.9134 39.5807C41.9584 39.5237 42.0024 39.4656 42.0444 39.4066C42.1293 39.2897 42.2073 39.1686 42.2794 39.0447C42.4254 38.7966 42.5464 38.5376 42.6443 38.2656C42.6694 38.1976 42.6924 38.1287 42.7144 38.0596C42.7354 37.9906 42.7554 37.9216 42.7734 37.8527C42.8104 37.7136 42.8414 37.5746 42.8654 37.4346C42.9144 37.1537 42.9384 36.8706 42.9396 36.5841Z" stroke="#FF00FF" stroke-width="0.283465" stroke-miterlimit="10" stroke-linecap="round" stroke-linejoin="round"/>
<path fill-rule="evenodd" clip-rule="evenodd" d="M30.2202 8.99375C30.3193 8.97177 30.4228 8.96004 30.5299 8.96004H31.0004C31.3925 8.96004 31.7104 8.64216 31.7104 8.25004C31.7104 7.85792 31.3925 7.54004 31.0004 7.54004H30.5299C30.3187 7.54004 30.112 7.56323 29.9126 7.60748C29.5298 7.69243 29.2883 8.07163 29.3733 8.45444C29.4582 8.83725 29.8374 9.07871 30.2202 8.99375ZM33.4295 7.54004C33.0374 7.54004 32.7195 7.85792 32.7195 8.25004C32.7195 8.64216 33.0374 8.96004 33.4295 8.96004H34.3704C34.7625 8.96004 35.0804 8.64216 35.0804 8.25004C35.0804 7.85792 34.7625 7.54004 34.3704 7.54004H33.4295ZM36.7995 7.54004C36.4074 7.54004 36.0895 7.85792 36.0895 8.25004C36.0895 8.64216 36.4074 8.96004 36.7995 8.96004H37.2699C37.3771 8.96004 37.4806 8.97177 37.5796 8.99375C37.9625 9.07871 38.3416 8.83725 38.4266 8.45444C38.5116 8.07163 38.2701 7.69243 37.8873 7.60748C37.6879 7.56323 37.4812 7.54004 37.2699 7.54004H36.7995ZM29.1437 10.0703C29.2286 9.68753 28.9872 9.30833 28.6043 9.22338C28.2215 9.13843 27.8423 9.37989 27.7574 9.76269C27.7131 9.96209 27.6899 10.1688 27.6899 10.38V10.8505C27.6899 11.2426 28.0078 11.5605 28.3999 11.5605C28.7921 11.5605 29.1099 11.2426 29.1099 10.8505V10.38C29.1099 10.2729 29.1217 10.1694 29.1437 10.0703ZM40.0425 9.76269C39.9575 9.37989 39.5783 9.13843 39.1955 9.22338C38.8127 9.30833 38.5713 9.68753 38.6562 10.0703C38.6782 10.1694 38.6899 10.2729 38.6899 10.38V10.8505C38.6899 11.2426 39.0078 11.5605 39.3999 11.5605C39.7921 11.5605 40.1099 11.2426 40.1099 10.8505V10.38C40.1099 10.1688 40.0868 9.96209 40.0425 9.76269ZM40.1099 13.2796C40.1099 12.8875 39.7921 12.5696 39.3999 12.5696C39.0078 12.5696 38.6899 12.8875 38.6899 13.2796V14.2205C38.6899 14.6126 39.0078 14.9305 39.3999 14.9305C39.7921 14.9305 40.1099 14.6126 40.1099 14.2205V13.2796ZM29.1099 13.2796C29.1099 12.8875 28.7921 12.5696 28.3999 12.5696C28.0078 12.5696 27.6899 12.8875 27.6899 13.2796V14.2205C27.6899 14.6126 28.0078 14.9305 28.3999 14.9305C28.7921 14.9305 29.1099 14.6126 29.1099 14.2205V13.2796ZM40.1099 16.6496C40.1099 16.2575 39.7921 15.9396 39.3999 15.9396C39.0078 15.9396 38.6899 16.2575 38.6899 16.6496V17.12C38.6899 17.2272 38.6782 17.3307 38.6562 17.4297C38.5713 17.8125 38.8127 18.1917 39.1955 18.2767C39.5783 18.3617 39.9575 18.1202 40.0425 17.7374C40.0868 17.538 40.1099 17.3313 40.1099 17.12V16.6496ZM29.1099 16.6496C29.1099 16.2575 28.7921 15.9396 28.3999 15.9396C28.0078 15.9396 27.6899 16.2575 27.6899 16.6496V17.12C27.6899 17.3313 27.7131 17.538 27.7574 17.7374C27.8423 18.1202 28.2215 18.3617 28.6043 18.2767C28.9872 18.1917 29.2286 17.8125 29.1437 17.4297C29.1217 17.3307 29.1099 17.2272 29.1099 17.12V16.6496ZM30.2202 18.5063C29.8374 18.4214 29.4582 18.6628 29.3733 19.0456C29.2883 19.4284 29.5298 19.8076 29.9126 19.8926C30.112 19.9368 30.3187 19.96 30.5299 19.96H31.0004C31.3925 19.96 31.7104 19.6422 31.7104 19.25C31.7104 18.8579 31.3925 18.54 31.0004 18.54H30.5299C30.4228 18.54 30.3193 18.5283 30.2202 18.5063ZM37.8873 19.8926C38.2701 19.8076 38.5116 19.4284 38.4266 19.0456C38.3416 18.6628 37.9625 18.4214 37.5796 18.5063C37.4806 18.5283 37.3771 18.54 37.2699 18.54H36.7995C36.4074 18.54 36.0895 18.8579 36.0895 19.25C36.0895 19.6422 36.4074 19.96 36.7995 19.96H37.2699C37.4812 19.96 37.6879 19.9368 37.8873 19.8926ZM33.4295 18.54C33.0374 18.54 32.7195 18.8579 32.7195 19.25C32.7195 19.6422 33.0374 19.96 33.4295 19.96H34.3704C34.7625 19.96 35.0804 19.6422 35.0804 19.25C35.0804 18.8579 34.7625 18.54 34.3704 18.54H33.4295ZM33.8999 15.17C34.6842 15.17 35.3199 14.5342 35.3199 13.75C35.3199 12.9657 34.6842 12.33 33.8999 12.33C33.1157 12.33 32.4799 12.9657 32.4799 13.75C32.4799 14.5342 33.1157 15.17 33.8999 15.17Z" fill="black"/>
<path fill-rule="evenodd" clip-rule="evenodd" d="M37.9554 27.5599C38.0495 27.1792 37.8173 26.7943 37.4366 26.7001C37.056 26.606 36.6711 26.8382 36.5769 27.2189C36.2535 28.5265 35.7819 29.7337 35.1283 30.8271C35.0841 30.9011 34.9838 30.9164 34.9183 30.8604C33.8156 29.917 32.6865 29.0845 31.7424 28.5297C31.4044 28.3311 30.9693 28.4441 30.7706 28.7822C30.5719 29.1202 30.685 29.5553 31.023 29.754C31.9312 30.2877 33.0396 31.1124 34.1144 32.0419C34.1715 32.0912 34.1789 32.177 34.1305 32.2349C33.0527 33.5266 31.6377 34.6138 29.8098 35.4668C29.4545 35.6326 29.3009 36.0551 29.4667 36.4104C29.6325 36.7658 30.055 36.9194 30.4103 36.7536C32.4083 35.8212 33.9704 34.6241 35.1684 33.2072C35.221 33.145 35.3155 33.1395 35.3739 33.1964C36.1264 33.9288 36.8083 34.6779 37.3234 35.3669C37.5581 35.681 38.0031 35.7453 38.3171 35.5105C38.6312 35.2758 38.6955 34.8308 38.4607 34.5168C37.8617 33.7154 37.0661 32.8498 36.1949 32.0153C36.1462 31.9688 36.1374 31.8943 36.1734 31.8374C36.9915 30.5461 37.5715 29.1116 37.9554 27.5599Z" fill="black"/>
<path d="M17.9645 14.55C17.9645 13.8183 18.256 13.4028 19.0931 12.7455C19.6946 12.2742 20.0295 11.9766 20.0295 11.4309C20.0295 10.8231 19.49 10.4201 18.8079 10.4201C18.2125 10.4201 17.8033 10.6495 17.5056 11.158C17.3134 11.4123 17.1646 11.5301 16.9041 11.5301C16.5134 11.5301 16.2964 11.251 16.2964 10.91C16.2964 10.5007 16.5382 10.0666 16.9103 9.73794C17.363 9.35347 18.0389 9.12402 18.9195 9.12402C20.5504 9.12402 21.6852 9.97358 21.6852 11.3564C21.6852 12.3176 21.1581 12.8447 20.3644 13.4338C19.7628 13.8927 19.5582 14.1098 19.4156 14.6307C19.2605 14.9965 19.0993 15.2446 18.6652 15.2446C18.2125 15.2446 17.9645 14.9469 17.9645 14.55ZM17.7289 16.9995C17.7289 16.4848 18.1505 16.1251 18.6652 16.1251C19.1799 16.1251 19.6078 16.4848 19.6078 16.9995C19.6078 17.5142 19.1799 17.8739 18.6652 17.8739C18.1505 17.8739 17.7289 17.5142 17.7289 16.9995Z" fill="black"/>
<path d="M18.3489 37.2258C18.2559 37.5483 17.9831 37.7467 17.6482 37.7467C17.2451 37.7467 16.9289 37.4243 16.9413 37.0398C16.9413 36.953 16.9599 36.8476 16.9785 36.7979L19.6574 27.2978C19.7442 26.9753 20.0171 26.7769 20.3519 26.7769C20.7612 26.7769 21.0713 27.0993 21.065 27.4838C21.0588 27.5768 21.0402 27.676 21.0216 27.7318L18.3489 37.2258Z" fill="black"/>
</svg>
