<svg width="54" height="54" viewBox="0 0 54 54" fill="none" xmlns="http://www.w3.org/2000/svg">
<rect x="1.8501" y="1.84961" width="50.3" height="50.3" rx="3" stroke="#8B1EFF" stroke-width="0.28"/>
<path d="M9.91309 37.0471C9.83508 27.0602 9.73608 17.0721 9.61914 7.08411L9.6192 7.08167C9.62323 6.91566 9.63623 6.74964 9.65631 6.5835C9.67633 6.41846 9.70233 6.25452 9.73553 6.09107C9.76752 5.92908 9.80652 5.76807 9.85266 5.60926C9.89966 5.4513 9.95166 5.29529 10.0115 5.14112C10.1985 4.66712 10.4535 4.21619 10.77 3.81385C11.083 3.41688 11.456 3.06788 11.8725 2.78345C12.2875 2.50147 12.7465 2.28345 13.2258 2.13648C13.7078 1.98939 14.2118 1.91346 14.7141 1.90613C18.8081 1.87122 22.9021 1.85413 26.9963 1.8545C31.0893 1.8545 35.1833 1.87147 39.2776 1.90674C39.4396 1.90967 39.6016 1.92066 39.7635 1.93726C40.0035 1.96326 40.2435 2.00428 40.4799 2.06104C40.7139 2.11805 40.9449 2.18995 41.1697 2.27906C41.4037 2.37208 41.6287 2.48304 41.8449 2.61024C42.062 2.73816 42.2689 2.88221 42.4627 3.04114C42.6577 3.20118 42.8417 3.37623 43.0105 3.56275C43.1795 3.75171 43.3355 3.95374 43.476 4.16529C43.757 4.59437 43.975 5.06434 44.125 5.55604C44.276 6.05396 44.358 6.57398 44.373 7.09217C44.252 17.0691 44.154 27.0462 44.08 37.0247C44.074 37.1846 44.0601 37.3446 44.039 37.5032C44.018 37.6642 43.991 37.8231 43.9569 37.9808C43.9239 38.1398 43.8839 38.2979 43.8358 38.4533C43.7888 38.6093 43.7349 38.7632 43.675 38.9152C43.484 39.3903 43.228 39.8402 42.9172 40.249C42.6032 40.66 42.2352 41.0281 41.8244 41.339C41.4154 41.6491 40.9624 41.9031 40.4838 42.0901C40.0098 42.275 39.5098 42.395 39.0063 42.443C31.0073 42.953 22.9843 42.953 14.9849 42.4431C14.6529 42.4111 14.3229 42.3472 14.0024 42.2531C13.6794 42.1591 13.3654 42.0341 13.0632 41.8815C12.4602 41.5745 11.9092 41.1564 11.4476 40.6572C10.9866 40.1602 10.6126 39.5812 10.349 38.9591C10.219 38.6511 10.115 38.332 10.0411 38.0051C9.96912 37.6831 9.92407 37.3541 9.91113 37.0241" stroke="#8B1EFF" stroke-width="0.283" stroke-miterlimit="10"/>
<rect x="12.6855" y="5.52832" width="28.63" height="34.31" rx="1.43" stroke="#00FFFF" stroke-width="0.28"/>
<path d="M42.9396 36.5841C42.9576 31.7322 42.9776 26.8792 43.0006 22.0272C43.0216 17.1742 43.0466 12.3221 43.0756 7.46912C43.0764 7.32446 43.0714 7.18042 43.0594 7.03748C43.0494 6.89441 43.0314 6.75146 43.0074 6.61047C42.9604 6.32837 42.8884 6.05444 42.7894 5.78943C42.7644 5.72339 42.7384 5.65747 42.7104 5.59241C42.6814 5.52637 42.6524 5.46143 42.6214 5.39844C42.5584 5.27039 42.4904 5.14746 42.4154 5.02844C42.2664 4.79041 42.0934 4.57043 41.8934 4.36646C41.6954 4.16345 41.4774 3.98645 41.2434 3.83337C41.1264 3.75745 41.0054 3.6864 40.8794 3.62244C40.8164 3.59045 40.7534 3.55945 40.6874 3.5304C40.6234 3.50037 40.5564 3.47339 40.4904 3.44739C40.2234 3.34338 39.9504 3.26843 39.6714 3.21741C39.3924 3.16638 39.1074 3.14038 38.8164 3.13745C37.8376 3.12988 36.8566 3.12183 35.8735 3.11584C34.8896 3.10889 33.9056 3.10388 32.9205 3.09888C30.9496 3.09082 28.9756 3.08691 26.9985 3.08691C26.5035 3.08691 26.0096 3.08691 25.5146 3.08691C25.0206 3.08789 24.5256 3.08887 24.0306 3.08984C23.0416 3.09192 22.0536 3.09485 21.0685 3.09888C19.0966 3.10791 17.1326 3.12085 15.1755 3.13782C15.0298 3.13892 14.8859 3.14685 14.7408 3.15991C14.5979 3.17383 14.4539 3.19287 14.3129 3.21887C14.0298 3.27087 13.7559 3.3479 13.4908 3.4519C13.4249 3.47791 13.3599 3.50488 13.2949 3.53491C13.2299 3.56384 13.1649 3.59583 13.1019 3.62793C12.9749 3.69385 12.8539 3.76489 12.7359 3.8429C12.5009 3.99683 12.2839 4.1759 12.0859 4.37988C12.0369 4.42993 11.9889 4.48291 11.9429 4.53589C11.8969 4.58887 11.8519 4.64282 11.8089 4.69885C11.7229 4.80884 11.6429 4.92383 11.5688 5.04187C11.4949 5.16089 11.4279 5.28394 11.3649 5.40991C11.3349 5.4729 11.3058 5.53687 11.2779 5.60291C11.2499 5.66785 11.2239 5.73486 11.1989 5.80188C11.1009 6.06787 11.0298 6.34082 10.9839 6.6189C10.9379 6.89685 10.9149 7.18091 10.9169 7.46985C10.9452 12.3224 10.9712 17.1744 10.9932 22.0275C11.0162 26.8794 11.0352 31.7324 11.0532 36.5845C11.0539 36.8712 11.0779 37.1552 11.1279 37.4392C11.1409 37.5101 11.1549 37.5812 11.1699 37.6511C11.1859 37.7212 11.2019 37.7911 11.2209 37.8601C11.2579 37.9991 11.3009 38.1351 11.3499 38.2701C11.3989 38.4052 11.4529 38.5382 11.5149 38.6682C11.5459 38.7332 11.5769 38.7982 11.6119 38.8622C11.6459 38.9261 11.6809 38.9901 11.7179 39.0532C11.8649 39.3032 12.0329 39.5361 12.2239 39.7532C12.3189 39.8612 12.4199 39.9652 12.5269 40.0652C12.5789 40.1151 12.6339 40.1632 12.6899 40.2102C12.7449 40.2572 12.8009 40.3021 12.8589 40.3462C13.0879 40.5211 13.3319 40.6721 13.5919 40.7982C13.6569 40.8302 13.7229 40.8601 13.7899 40.8882C13.8569 40.9171 13.9239 40.9431 13.9919 40.9681C14.1279 41.0182 14.2649 41.0612 14.4039 41.0972C14.6799 41.1692 14.9629 41.2131 15.2509 41.2312C16.2241 41.2916 17.1991 41.3446 18.1771 41.3896C19.1531 41.4357 20.1321 41.4727 21.1111 41.5027C23.0681 41.5636 25.0291 41.5936 26.9941 41.5936C27.485 41.5936 27.9771 41.5917 28.4681 41.5876C28.959 41.5846 29.451 41.5786 29.9421 41.5707C30.925 41.5557 31.9061 41.5336 32.886 41.5027C34.8441 41.4426 36.7961 41.3527 38.7414 41.2316C38.8864 41.2227 39.0294 41.2067 39.1724 41.1846C39.2433 41.1726 39.3144 41.1597 39.3864 41.1447C39.4564 41.1296 39.5273 41.1136 39.5964 41.0946C39.8763 41.0226 40.1454 40.9226 40.4044 40.7957C40.4703 40.7646 40.5334 40.7316 40.5964 40.6967C40.6603 40.6616 40.7234 40.6246 40.7853 40.5856C40.9094 40.5096 41.0284 40.4266 41.1423 40.3386C41.3724 40.1636 41.5823 39.9667 41.7734 39.7487C41.8214 39.6936 41.8674 39.6376 41.9134 39.5807C41.9584 39.5237 42.0024 39.4656 42.0444 39.4066C42.1293 39.2897 42.2073 39.1686 42.2794 39.0447C42.4254 38.7966 42.5464 38.5376 42.6443 38.2656C42.6694 38.1976 42.6924 38.1287 42.7144 38.0596C42.7354 37.9906 42.7554 37.9216 42.7734 37.8527C42.8104 37.7136 42.8414 37.5746 42.8654 37.4346C42.9144 37.1537 42.9384 36.8706 42.9396 36.5841Z" stroke="#FF00FF" stroke-width="0.283465" stroke-miterlimit="10" stroke-linecap="round" stroke-linejoin="round"/>
<path d="M36.2277 27.9984C36.2277 28.5131 35.8061 28.8728 35.2914 28.8728C34.7767 28.8728 34.3488 28.5131 34.3488 27.9984C34.3488 27.4837 34.7767 27.124 35.2914 27.124C35.8061 27.124 36.2277 27.4837 36.2277 27.9984ZM32.2776 33.7221C32.2776 32.7609 32.8047 32.2338 33.5984 31.6447C34.2 31.1858 34.4046 30.9688 34.5534 30.4417C34.7022 30.082 34.8635 29.8339 35.2976 29.8339C35.7626 29.8339 35.9983 30.1192 35.9983 30.5657C35.9983 31.285 35.713 31.6757 34.8697 32.333C34.2372 32.8291 33.9395 33.0958 33.9395 33.6104C33.9395 34.2802 34.4728 34.6584 35.1921 34.6584C35.7688 34.6584 36.1533 34.4414 36.4634 33.9205C36.6494 33.6601 36.7982 33.5484 37.0587 33.5484C37.4494 33.5484 37.6664 33.8275 37.6664 34.1624C37.6664 34.5654 37.4184 34.9995 37.0277 35.3406C36.575 35.725 35.9177 35.9545 35.0433 35.9545C33.4124 35.9545 32.2776 35.1049 32.2776 33.7221Z" fill="black"/>
<path d="M17.9645 14.55C17.9645 13.8183 18.256 13.4028 19.0931 12.7455C19.6946 12.2742 20.0295 11.9766 20.0295 11.4309C20.0295 10.8231 19.49 10.4201 18.8079 10.4201C18.2125 10.4201 17.8033 10.6495 17.5056 11.158C17.3134 11.4123 17.1646 11.5301 16.9041 11.5301C16.5134 11.5301 16.2964 11.251 16.2964 10.91C16.2964 10.5007 16.5382 10.0666 16.9103 9.73794C17.363 9.35347 18.0389 9.12402 18.9195 9.12402C20.5504 9.12402 21.6852 9.97358 21.6852 11.3564C21.6852 12.3176 21.1581 12.8447 20.3644 13.4338C19.7628 13.8927 19.5582 14.1098 19.4156 14.6307C19.2605 14.9965 19.0993 15.2446 18.6652 15.2446C18.2125 15.2446 17.9645 14.9469 17.9645 14.55ZM17.7289 16.9995C17.7289 16.4848 18.1505 16.1251 18.6652 16.1251C19.1799 16.1251 19.6078 16.4848 19.6078 16.9995C19.6078 17.5142 19.1799 17.8739 18.6652 17.8739C18.1505 17.8739 17.7289 17.5142 17.7289 16.9995Z" fill="black"/>
<path d="M18.3489 37.2263C18.2559 37.5488 17.9831 37.7472 17.6482 37.7472C17.2451 37.7472 16.9289 37.4248 16.9413 37.0403C16.9413 36.9535 16.9599 36.848 16.9785 36.7984L19.6574 27.2982C19.7442 26.9758 20.0171 26.7773 20.3519 26.7773C20.7612 26.7773 21.0713 27.0998 21.065 27.4843C21.0588 27.5773 21.0402 27.6765 21.0216 27.7323L18.3489 37.2263Z" fill="black"/>
</svg>
