<svg width="122" height="54" viewBox="0 0 122 54" fill="none" xmlns="http://www.w3.org/2000/svg">
<rect x="1.85" y="1.84961" width="117.8" height="50.3" rx="3" stroke="#8B1EFF" stroke-width="0.28"/>
<path d="M10.021 37.0323C10.046 37.6943 10.199 38.3563 10.4684 38.9659C10.7414 39.5869 11.1344 40.1529 11.6169 40.629C12.1029 41.108 12.6789 41.4961 13.3045 41.7706C13.9295 42.0445 14.6035 42.2065 15.2799 42.2497C30.4379 42.6338 45.6009 42.8257 60.7639 42.8255C75.9179 42.8255 91.0719 42.6345 106.221 42.2501C106.897 42.2062 107.571 42.0392 108.193 41.767C108.507 41.6289 108.808 41.465 109.091 41.275C109.374 41.0849 109.641 40.869 109.884 40.6286C110.126 40.3906 110.346 40.1296 110.539 39.8498C110.73 39.5718 110.896 39.2768 111.032 38.9676C111.165 38.6616 111.27 38.3436 111.346 38.0172C111.421 37.6952 111.47 37.3662 111.478 37.0351C111.555 27.1042 111.658 17.1742 111.789 7.24449C111.769 6.52843 111.607 5.80846 111.318 5.14989C111.175 4.82091 111 4.50694 110.794 4.21471C110.59 3.92369 110.356 3.65269 110.095 3.40965C109.576 2.92674 108.951 2.55174 108.286 2.30675C107.952 2.18285 107.608 2.09276 107.258 2.03123C106.908 1.96922 106.55 1.93419 106.195 1.93016C75.8989 1.82921 45.6019 1.82921 15.3061 1.93053C14.5981 1.93748 13.8831 2.06651 13.2161 2.31248C12.8821 2.43553 12.5611 2.58849 12.2575 2.77122C11.9525 2.95421 11.6665 3.1682 11.4063 3.41039C11.1453 3.65331 10.9113 3.9243 10.7068 4.21642C10.5018 4.50938 10.3278 4.82347 10.1849 5.15184C10.0409 5.48094 9.92789 5.82286 9.84918 6.1732C9.76918 6.52415 9.72218 6.88414 9.71167 7.24425C9.83867 17.1742 9.94267 27.1042 10.0217 37.0342" stroke="#8B1EFF" stroke-width="0.283" stroke-miterlimit="10"/>
<path d="M13.3938 4.15723H101.73H108.108C109.282 4.15723 110.234 5.10925 110.234 6.2832V38.4823C110.234 39.656 109.282 40.6079 108.108 40.6079H13.3936C12.2198 40.608 11.2678 39.656 11.2678 38.4819L11.2678 6.28333C11.2678 5.10925 12.2198 4.15723 13.3938 4.15723Z" stroke="#00FFFF" stroke-width="0.28" stroke-miterlimit="10"/>
<path d="M104.374 50.0098V49.5623L106.054 47.7228C106.252 47.5074 106.414 47.3201 106.542 47.161C106.669 47.0003 106.764 46.8495 106.825 46.7086C106.888 46.5661 106.919 46.417 106.919 46.2612C106.919 46.0822 106.876 45.9273 106.79 45.7963C106.706 45.6654 106.59 45.5643 106.442 45.4931C106.295 45.4218 106.129 45.3862 105.945 45.3862C105.749 45.3862 105.579 45.4268 105.433 45.508C105.289 45.5875 105.177 45.6994 105.097 45.8436C105.019 45.9877 104.98 46.1568 104.98 46.3507H104.394C104.394 46.0524 104.463 45.7905 104.6 45.5652C104.738 45.3398 104.925 45.1641 105.162 45.0382C105.401 44.9122 105.668 44.8493 105.965 44.8493C106.263 44.8493 106.527 44.9122 106.758 45.0382C106.988 45.1641 107.169 45.334 107.3 45.5478C107.431 45.7615 107.496 45.9993 107.496 46.2612C107.496 46.4484 107.462 46.6316 107.394 46.8105C107.328 46.9879 107.212 47.1859 107.046 47.4047C106.882 47.6217 106.654 47.8869 106.363 48.2001L105.219 49.4231V49.4629H107.586V50.0098H104.374ZM109.05 50.0495C108.927 50.0495 108.822 50.0056 108.734 49.9178C108.646 49.83 108.602 49.7247 108.602 49.6021C108.602 49.4795 108.646 49.3742 108.734 49.2864C108.822 49.1986 108.927 49.1547 109.05 49.1547C109.172 49.1547 109.278 49.1986 109.365 49.2864C109.453 49.3742 109.497 49.4795 109.497 49.6021C109.497 49.6833 109.476 49.7579 109.435 49.8258C109.395 49.8938 109.341 49.9484 109.273 49.9899C109.207 50.0297 109.133 50.0495 109.05 50.0495ZM110.54 50.0098V49.5623L112.22 47.7228C112.418 47.5074 112.58 47.3201 112.708 47.161C112.835 47.0003 112.93 46.8495 112.991 46.7086C113.054 46.5661 113.085 46.417 113.085 46.2612C113.085 46.0822 113.042 45.9273 112.956 45.7963C112.872 45.6654 112.756 45.5643 112.608 45.4931C112.461 45.4218 112.295 45.3862 112.111 45.3862C111.915 45.3862 111.745 45.4268 111.599 45.508C111.455 45.5875 111.343 45.6994 111.263 45.8436C111.185 45.9877 111.146 46.1568 111.146 46.3507H110.56C110.56 46.0524 110.629 45.7905 110.766 45.5652C110.904 45.3398 111.091 45.1641 111.328 45.0382C111.567 44.9122 111.834 44.8493 112.131 44.8493C112.429 44.8493 112.693 44.9122 112.924 45.0382C113.154 45.1641 113.335 45.334 113.466 45.5478C113.597 45.7615 113.662 45.9993 113.662 46.2612C113.662 46.4484 113.628 46.6316 113.56 46.8105C113.494 46.9879 113.378 47.1859 113.212 47.4047C113.048 47.6217 112.82 47.8869 112.529 48.2001L111.385 49.4231V49.4629H113.752V50.0098H110.54ZM116.369 50.0794C116.077 50.0794 115.815 50.0214 115.581 49.9054C115.347 49.7894 115.16 49.6303 115.019 49.4281C114.878 49.2259 114.801 48.9956 114.788 48.737H115.385C115.408 48.9674 115.512 49.158 115.698 49.3088C115.885 49.4579 116.109 49.5325 116.369 49.5325C116.578 49.5325 116.764 49.4836 116.926 49.3858C117.09 49.2881 117.218 49.1538 117.311 48.9831C117.406 48.8108 117.453 48.6161 117.453 48.399C117.453 48.1769 117.404 47.9789 117.306 47.8049C117.21 47.6292 117.078 47.4908 116.909 47.3897C116.74 47.2886 116.546 47.2373 116.329 47.2356C116.174 47.234 116.014 47.258 115.85 47.3077C115.686 47.3558 115.55 47.4179 115.444 47.4941L114.868 47.4245L115.176 44.9189H117.821V45.4657H115.693L115.514 46.9672H115.544C115.648 46.8843 115.779 46.8155 115.937 46.7608C116.094 46.7061 116.258 46.6788 116.429 46.6788C116.74 46.6788 117.018 46.7534 117.262 46.9025C117.507 47.05 117.699 47.2522 117.838 47.5091C117.979 47.7659 118.05 48.0592 118.05 48.389C118.05 48.7138 117.977 49.0038 117.831 49.2591C117.687 49.5126 117.488 49.7131 117.234 49.8606C116.981 50.0065 116.692 50.0794 116.369 50.0794Z" fill="#0000FF"/>
<path d="M15.1 41.0993C12.68 41.0993 10.73 39.0393 10.73 36.5093V7.44934C10.73 5.02934 12.97 3.06934 15.74 3.06934H105.79C108.54 3.06934 110.76 4.97934 110.76 7.33934L110.69 36.5193C110.69 39.0593 108.73 41.1093 106.31 41.1093C75.95 42.0693 45.48 42.0693 15.12 41.1093H15.09L15.1 41.0993Z" stroke="#FF00FF" stroke-width="0.28" stroke-linecap="round" stroke-linejoin="round"/>
<path d="M18.6006 25.8673C17.1943 25.8673 16.2568 25.2814 15.9834 24.4806C15.9395 24.3634 15.915 24.2365 15.915 24.1193C15.915 23.7677 16.1396 23.5431 16.4716 23.5431C16.7499 23.5431 16.9257 23.6554 17.0624 23.9386C17.2821 24.549 17.8876 24.8224 18.6396 24.8224C19.4892 24.8224 20.0849 24.4025 20.0849 23.8165C20.0849 23.3087 19.7333 22.9962 18.8154 22.8057L18.0586 22.6494C16.6475 22.3613 15.9883 21.6972 15.9883 20.667C15.9883 19.4268 17.0772 18.5869 18.6055 18.5869C19.8506 18.5869 20.8174 19.1435 21.1055 20.0762C21.1348 20.1543 21.1494 20.2471 21.1494 20.3643C21.1494 20.6719 20.9297 20.8819 20.6025 20.8819C20.3095 20.8819 20.1289 20.7549 19.997 20.4815C19.7577 19.8858 19.2548 19.6319 18.5956 19.6319C17.8143 19.6319 17.2577 20.003 17.2577 20.5938C17.2577 21.0723 17.6093 21.3799 18.4882 21.5655L19.245 21.7218C20.7294 22.0294 21.3544 22.6251 21.3544 23.6701C21.3544 25.0178 20.2948 25.8674 18.6005 25.8674L18.6006 25.8673Z" fill="black"/>
<path d="M22.4131 25.208V19.2306C22.4131 18.8448 22.6426 18.6055 23.0138 18.6055C23.385 18.6055 23.6145 18.8448 23.6145 19.2306V20.7063C23.6145 20.8095 23.7211 20.8781 23.815 20.8353C24.1103 20.7007 24.6908 20.4759 25.2749 20.4759C26.4176 20.4759 27.0867 21.228 27.0867 22.4147V25.2081C27.0867 25.6183 26.8328 25.8478 26.4763 25.8478C26.1198 25.8478 25.8707 25.6183 25.8707 25.2081V22.6638C25.8707 21.941 25.5093 21.5064 24.8061 21.5064C24.1029 21.5064 23.6292 22.0143 23.6292 22.7761V25.2081C23.6292 25.6183 23.3801 25.8478 23.0236 25.8478C22.6671 25.8478 22.4131 25.6182 22.4131 25.208Z" fill="black"/>
<path d="M28.8979 20.4717C28.5268 20.4717 28.2924 20.7207 28.2924 21.1114V25.2081C28.2924 25.6036 28.5268 25.8478 28.8979 25.8478C29.269 25.8478 29.5083 25.6037 29.5083 25.2081V21.1163C29.5083 20.7208 29.269 20.4718 28.8979 20.4718V20.4717ZM28.8979 19.8467C29.2788 19.8467 29.5766 19.5537 29.5766 19.1875C29.5766 18.8213 29.2787 18.5283 28.8979 18.5283C28.5171 18.5283 28.2241 18.8164 28.2241 19.1875C28.2241 19.5586 28.522 19.8467 28.8979 19.8467Z" fill="black"/>
<path fill-rule="evenodd" clip-rule="evenodd" d="M31.7618 25.8476C31.3956 25.8476 31.1514 25.623 31.1514 25.2128V21.6534C31.1514 21.5751 31.0879 21.5117 31.0097 21.5117H30.8292C30.5558 21.5117 30.3604 21.3457 30.3604 21.0478C30.3604 20.7499 30.5557 20.5888 30.8292 20.5888H31.0097C31.088 20.5888 31.1514 20.5253 31.1514 20.4471V20.1298C31.1514 19.1191 31.6023 18.6504 32.713 18.6504C33.4889 18.6504 33.5097 18.9954 33.5097 19.1582C33.5097 19.3412 33.3989 19.5304 33.2166 19.5784C33.1311 19.6009 33.0976 19.6035 32.9725 19.6089C32.5285 19.628 32.3475 19.7491 32.3475 20.1837V20.4472C32.3475 20.5237 32.4081 20.586 32.4838 20.5888H33.8681C33.8806 20.5882 33.8932 20.5879 33.9061 20.5879H34.0915C34.1698 20.5879 34.2332 20.5244 34.2332 20.4462V19.8832C34.2332 19.4925 34.4676 19.2483 34.8437 19.2483C35.2198 19.2483 35.4493 19.4924 35.4493 19.8832V20.4462C35.4493 20.5245 35.5128 20.5879 35.591 20.5879H36.0109C36.3136 20.5879 36.4993 20.7587 36.4993 21.0469C36.4993 21.3351 36.3138 21.5108 36.0109 21.5108H35.591C35.5127 21.5108 35.4493 21.5743 35.4493 21.6525V24.2051C35.4493 24.5958 35.586 24.7667 35.9377 24.796L36.0256 24.8058C36.3479 24.8351 36.514 24.9718 36.514 25.2551C36.514 25.6115 36.2015 25.8021 35.6448 25.8021H35.596C34.6926 25.8021 34.2335 25.3528 34.2335 24.4689H34.2333L34.2332 24.4688V21.6525C34.2332 21.5796 34.1782 21.5197 34.1076 21.5117H33.0131C33.0094 21.5118 33.0056 21.5118 33.0018 21.5118H32.5088C32.4305 21.5118 32.3671 21.5753 32.3671 21.6535V25.2129C32.3671 25.6231 32.123 25.8477 31.7616 25.8477L31.7618 25.8476Z" fill="black"/>
</svg>
