<svg width="81" height="54" viewBox="0 0 81 54" fill="none" xmlns="http://www.w3.org/2000/svg">
<rect x="1.85" y="1.84961" width="77.3" height="50.3" rx="3" stroke="#8B1EFF" stroke-width="0.28"/>
<path d="M71.0066 37.0028C71.0846 27.0808 71.1916 17.1588 71.3296 7.23671C71.3196 6.87971 71.2786 6.52272 71.2033 6.17207C71.1303 5.82307 71.0243 5.48207 70.8845 5.15388C70.7465 4.82887 70.5755 4.51692 70.3758 4.22517C70.1758 3.9352 69.9478 3.66518 69.6946 3.42085C69.4416 3.17787 69.1646 2.96083 68.8691 2.77419C68.5731 2.58717 68.2581 2.42921 67.9323 2.30348C67.6063 2.17751 67.2673 2.08156 66.9235 2.01747C66.5775 1.95351 66.2275 1.91945 65.8743 1.91591C48.9603 1.82497 32.0453 1.82497 15.1315 1.91554C14.7935 1.92165 14.4565 1.95461 14.1239 2.01491C13.7919 2.07387 13.4639 2.15981 13.1493 2.27443C12.9003 2.36745 12.6573 2.47841 12.4243 2.605C12.1923 2.73305 11.9683 2.87807 11.7566 3.03871C11.5456 3.20064 11.3466 3.37862 11.1627 3.57118C10.9777 3.76521 10.8097 3.9742 10.6584 4.19405C10.5064 4.41499 10.3714 4.64803 10.2536 4.8885C10.1356 5.13155 10.0356 5.38155 9.95221 5.63875C9.78619 6.15474 9.69119 6.69673 9.67749 7.23628C9.81149 17.1583 9.91852 27.0803 9.99991 37.0014C10.0249 37.6633 10.1749 38.3273 10.4398 38.9409C10.7088 39.5659 11.0948 40.1389 11.5707 40.6232C12.0497 41.1112 12.6177 41.5102 13.2406 41.796C13.8576 42.081 14.5286 42.254 15.2024 42.3052C23.6314 42.6482 32.0664 42.8192 40.5032 42.819C48.9392 42.819 57.3742 42.648 65.8041 42.3048C66.4781 42.2537 67.1481 42.0808 67.766 41.7969C68.388 41.5099 68.957 41.1109 69.4359 40.6233C69.9109 40.1383 70.2969 39.5663 70.5673 38.9408C70.8303 38.3278 70.9823 37.6638 71.0063 37.0008" stroke="#8B1EFF" stroke-width="0.283" stroke-miterlimit="10"/>
<path d="M11.2583 38.7129V6.43994C11.2583 5.2655 12.2093 4.31348 13.3843 4.31348H16.9273H64.1312H67.6743C68.8483 4.31348 69.8003 5.2655 69.8003 6.43945V38.7125C69.8003 39.8869 68.8483 40.8389 67.6743 40.8389L13.3843 40.8389C12.2093 40.8389 11.2583 39.8869 11.2583 38.7129Z" stroke="#00FFFF" stroke-width="0.28" stroke-miterlimit="10"/>
<path d="M65.6807 41.1325C48.9367 41.8176 32.0697 41.8176 15.3267 41.1325C15.0306 41.1198 14.7386 41.0828 14.4496 41.0178C14.3046 40.9859 14.1626 40.9469 14.0226 40.9018C13.8836 40.8559 13.7456 40.8048 13.6106 40.7458C13.4756 40.6878 13.3446 40.6228 13.2156 40.5518C13.1506 40.5158 13.0866 40.4778 13.0226 40.4389C12.9606 40.3999 12.8986 40.3598 12.8386 40.3178C12.5966 40.1499 12.3726 39.9608 12.1696 39.7489C12.1186 39.6958 12.0686 39.6418 12.0196 39.5858C11.9716 39.5308 11.9246 39.4729 11.8786 39.4148C11.7876 39.2998 11.7026 39.1798 11.6246 39.0568C11.4686 38.8108 11.3376 38.5518 11.2306 38.2798C11.2046 38.2108 11.1796 38.1418 11.1566 38.0728C11.1336 38.0028 11.1116 37.9328 11.0916 37.8628C11.0526 37.7229 11.0186 37.5818 10.9926 37.4398C10.9396 37.1558 10.9136 36.8689 10.9126 36.5768C10.8965 31.7902 10.8785 27.0023 10.8585 22.2153C10.8385 17.4282 10.8155 12.6413 10.7905 7.85323C10.7817 7.69765 10.7757 7.54164 10.7767 7.38667C10.7777 7.23067 10.7867 7.07668 10.8037 6.92268C10.8107 6.84566 10.8217 6.76863 10.8337 6.69167C10.8457 6.61464 10.8597 6.53865 10.8757 6.46169C10.9077 6.31068 10.9477 6.16164 10.9957 6.01466C11.0427 5.86867 11.0977 5.72566 11.1627 5.58467C11.1937 5.51466 11.2277 5.44563 11.2637 5.37666C11.3007 5.30867 11.3387 5.24068 11.3787 5.17366C11.5377 4.90865 11.7247 4.66664 11.9397 4.44667C11.9937 4.39168 12.0497 4.33766 12.1067 4.28664C12.1357 4.25966 12.1647 4.23463 12.1937 4.20863C12.2237 4.18367 12.2537 4.15865 12.2837 4.13368C12.4047 4.03664 12.5307 3.94563 12.6607 3.86269C12.9207 3.69667 13.1987 3.55965 13.4927 3.44868C13.7867 3.33864 14.0877 3.25966 14.3927 3.20668C14.6987 3.15364 15.0107 3.12666 15.3257 3.12563C32.0702 3.03365 48.9372 3.03365 65.6802 3.12563C65.9963 3.12672 66.3083 3.1537 66.6133 3.20668C66.9193 3.25972 67.2203 3.3387 67.5143 3.44868C67.8083 3.55971 68.0853 3.69673 68.3463 3.86269C68.4763 3.94569 68.6013 4.03572 68.7223 4.13368C68.7523 4.15871 68.7823 4.18373 68.8123 4.20869C68.8413 4.23372 68.8703 4.25972 68.9003 4.28572C68.9563 4.33772 69.0123 4.39168 69.0663 4.44673C69.2803 4.66573 69.4683 4.90871 69.6283 5.17372C69.6683 5.2397 69.7063 5.30769 69.7423 5.37672C69.7793 5.44472 69.8123 5.51472 69.8443 5.58473C69.9073 5.72469 69.9633 5.86873 70.0113 6.01472C70.0593 6.16072 70.0993 6.30971 70.1303 6.46169C70.1473 6.53773 70.1603 6.6147 70.1733 6.69069C70.1853 6.76772 70.1953 6.84468 70.2033 6.92171C70.2203 7.0757 70.2283 7.23073 70.2303 7.3857C70.2313 7.54073 70.2253 7.69673 70.2163 7.85268C70.1912 12.6398 70.1682 17.4278 70.1482 22.2148C70.1272 27.0018 70.1102 31.7898 70.0942 36.5766C70.0932 36.8685 70.0662 37.1585 70.0132 37.4456C69.9862 37.5905 69.9522 37.7326 69.9122 37.8715C69.8722 38.0116 69.8262 38.1496 69.7732 38.2846C69.7202 38.4196 69.6602 38.5526 69.5942 38.6835C69.5612 38.7495 69.5262 38.8145 69.4902 38.8786C69.4522 38.9426 69.4142 39.0056 69.3752 39.0665C69.2172 39.3136 69.0362 39.5426 68.8322 39.7545C68.7822 39.8065 68.7292 39.8585 68.6752 39.9085C68.6212 39.9595 68.5662 40.0086 68.5092 40.0565C68.3962 40.1525 68.2802 40.2415 68.1592 40.3236C67.9172 40.4896 67.6612 40.6315 67.3902 40.7486C67.3232 40.7775 67.2532 40.8056 67.1842 40.8316C67.1152 40.8576 67.0452 40.8815 66.9752 40.9036C66.8352 40.9495 66.6942 40.9876 66.5512 41.0195C66.2662 41.0825 65.9752 41.1206 65.6807 41.1325Z" stroke="#FF00FF" stroke-width="0.283465" stroke-miterlimit="10" stroke-linecap="round" stroke-linejoin="round"/>
<path d="M66.4147 44.9189V50.0098H65.7982V45.5652H65.7684L64.5255 46.3904V45.764L65.7982 44.9189H66.4147ZM68.0155 50.0495C67.8929 50.0495 67.7876 50.0056 67.6998 49.9178C67.612 49.83 67.5681 49.7247 67.5681 49.6021C67.5681 49.4795 67.612 49.3742 67.6998 49.2864C67.7876 49.1986 67.8929 49.1547 68.0155 49.1547C68.1381 49.1547 68.2434 49.1986 68.3312 49.2864C68.419 49.3742 68.463 49.4795 68.463 49.6021C68.463 49.6833 68.4422 49.7579 68.4008 49.8258C68.361 49.8938 68.3072 49.9484 68.2392 49.9899C68.1729 50.0297 68.0984 50.0495 68.0155 50.0495ZM70.9941 50.0794C70.7025 50.0794 70.4398 50.0214 70.2061 49.9054C69.9725 49.7894 69.7852 49.6303 69.6443 49.4281C69.5035 49.2259 69.4264 48.9956 69.4132 48.737H70.0097C70.0329 48.9674 70.1373 49.158 70.323 49.3088C70.5102 49.4579 70.7339 49.5325 70.9941 49.5325C71.2029 49.5325 71.3885 49.4836 71.5509 49.3858C71.715 49.2881 71.8434 49.1538 71.9362 48.9831C72.0307 48.8108 72.0779 48.6161 72.0779 48.399C72.0779 48.1769 72.029 47.9789 71.9313 47.8049C71.8351 47.6292 71.7026 47.4908 71.5335 47.3897C71.3645 47.2886 71.1714 47.2373 70.9543 47.2356C70.7986 47.234 70.6386 47.258 70.4746 47.3077C70.3105 47.3558 70.1755 47.4179 70.0694 47.4941L69.4927 47.4245L69.8009 44.9189H72.4458V45.4657H70.318L70.139 46.9672H70.1688C70.2732 46.8843 70.4042 46.8155 70.5616 46.7608C70.719 46.7061 70.8831 46.6788 71.0538 46.6788C71.3653 46.6788 71.6429 46.7534 71.8865 46.9025C72.1318 47.05 72.324 47.2522 72.4632 47.5091C72.6041 47.7659 72.6745 48.0592 72.6745 48.389C72.6745 48.7138 72.6016 49.0038 72.4558 49.2591C72.3116 49.5126 72.1127 49.7131 71.8592 49.8606C71.6056 50.0065 71.3173 50.0794 70.9941 50.0794ZM75.3225 50.0794C74.948 50.0794 74.629 49.9775 74.3655 49.7736C74.102 49.5681 73.9006 49.2707 73.7614 48.8812C73.6222 48.4901 73.5526 48.0178 73.5526 47.4643C73.5526 46.9141 73.6222 46.4443 73.7614 46.0549C73.9023 45.6638 74.1045 45.3655 74.368 45.16C74.6331 44.9528 74.9513 44.8493 75.3225 44.8493C75.6937 44.8493 76.0111 44.9528 76.2746 45.16C76.5397 45.3655 76.7419 45.6638 76.8811 46.0549C77.022 46.4443 77.0924 46.9141 77.0924 47.4643C77.0924 48.0178 77.0228 48.4901 76.8836 48.8812C76.7444 49.2707 76.543 49.5681 76.2795 49.7736C76.016 49.9775 75.697 50.0794 75.3225 50.0794ZM75.3225 49.5325C75.6937 49.5325 75.9821 49.3535 76.1876 48.9956C76.3931 48.6376 76.4958 48.1272 76.4958 47.4643C76.4958 47.0235 76.4486 46.6481 76.3541 46.3382C76.2613 46.0283 76.1271 45.7922 75.9514 45.6298C75.7774 45.4674 75.5678 45.3862 75.3225 45.3862C74.9546 45.3862 74.6671 45.5676 74.4599 45.9306C74.2528 46.2918 74.1492 46.8031 74.1492 47.4643C74.1492 47.9051 74.1956 48.2797 74.2884 48.5879C74.3812 48.8961 74.5146 49.1306 74.6886 49.2914C74.8643 49.4521 75.0756 49.5325 75.3225 49.5325Z" fill="#0000FF"/>
<path fill-rule="evenodd" clip-rule="evenodd" d="M23.3157 10.2845C23.1432 10.112 22.8569 10.112 22.6844 10.2845L21.3344 11.6345C21.0669 11.902 20.6332 11.902 20.3657 11.6345C20.0982 11.367 20.0982 10.9333 20.3657 10.6658L21.7157 9.31579C22.4232 8.60828 23.5769 8.60828 24.2844 9.31579L25.6344 10.6658C25.9019 10.9333 25.9019 11.367 25.6344 11.6345C25.3669 11.902 24.9332 11.902 24.6657 11.6345L23.3157 10.2845ZM18.8844 14.0845C19.1519 13.817 19.1519 13.3833 18.8844 13.1158C18.6169 12.8483 18.1832 12.8483 17.9157 13.1158L16.5657 14.4658C15.8582 15.1733 15.8582 16.327 16.5657 17.0345L17.9157 18.3845C18.1832 18.652 18.6169 18.652 18.8844 18.3845C19.1519 18.117 19.1519 17.6833 18.8844 17.4158L17.5344 16.0658C17.3619 15.8933 17.3619 15.607 17.5344 15.4345L18.8844 14.0845ZM21.3344 19.8658C21.0669 19.5983 20.6332 19.5983 20.3657 19.8658C20.0982 20.1333 20.0982 20.567 20.3657 20.8345L21.7157 22.1845C22.4232 22.892 23.5769 22.892 24.2844 22.1845L25.6344 20.8345C25.9019 20.567 25.9019 20.1333 25.6344 19.8658C25.3669 19.5983 24.9332 19.5983 24.6657 19.8658L23.3157 21.2158C23.1432 21.3883 22.8569 21.3883 22.6844 21.2158L21.3344 19.8658ZM28.0844 13.1158C27.8169 12.8483 27.3832 12.8483 27.1157 13.1158C26.8482 13.3833 26.8482 13.817 27.1157 14.0845L28.4657 15.4345C28.6382 15.607 28.6382 15.8933 28.4657 16.0658L27.1157 17.4158C26.8482 17.6833 26.8482 18.117 27.1157 18.3845C27.3832 18.652 27.8169 18.652 28.0844 18.3845L29.4344 17.0345C30.1419 16.327 30.1419 15.1733 29.4344 14.4658L28.0844 13.1158Z" fill="black"/>
<path d="M19.1006 35.8673C17.6943 35.8673 16.7568 35.2814 16.4834 34.4806C16.4395 34.3634 16.415 34.2365 16.415 34.1193C16.415 33.7677 16.6396 33.5431 16.9716 33.5431C17.2499 33.5431 17.4257 33.6554 17.5624 33.9386C17.7821 34.549 18.3876 34.8224 19.1396 34.8224C19.9892 34.8224 20.5849 34.4025 20.5849 33.8165C20.5849 33.3087 20.2333 32.9962 19.3154 32.8057L18.5586 32.6494C17.1475 32.3613 16.4883 31.6972 16.4883 30.667C16.4883 29.4268 17.5772 28.5869 19.1055 28.5869C20.3506 28.5869 21.3174 29.1435 21.6055 30.0762C21.6348 30.1543 21.6494 30.2471 21.6494 30.3643C21.6494 30.6719 21.4297 30.8819 21.1025 30.8819C20.8095 30.8819 20.6289 30.7549 20.497 30.4815C20.2577 29.8858 19.7548 29.6319 19.0956 29.6319C18.3143 29.6319 17.7577 30.003 17.7577 30.5938C17.7577 31.0723 18.1093 31.3799 18.9882 31.5655L19.745 31.7218C21.2294 32.0294 21.8544 32.6251 21.8544 33.6701C21.8544 35.0178 20.7948 35.8674 19.1005 35.8674L19.1006 35.8673Z" fill="black"/>
<path d="M30.8565 34.8367C30.0995 34.8367 29.5965 34.1774 29.5916 33.1616C29.5965 32.1556 30.0703 31.4865 30.8565 31.4865C31.6427 31.4865 32.1311 32.1409 32.1311 33.1616C32.1311 34.1872 31.6135 34.8367 30.8565 34.8367ZM33.3764 33.1615C33.3764 31.5059 32.5413 30.4853 31.2275 30.4853C30.7415 30.4853 29.9714 30.7293 29.6705 30.8313C29.603 30.8542 29.5283 30.8245 29.4966 30.7605C29.4886 30.7442 29.4803 30.728 29.4699 30.7132C29.3506 30.5427 29.1749 30.4707 28.9762 30.4707C28.6294 30.4707 28.3853 30.6953 28.3853 31.0958V36.9515C28.3853 37.3618 28.6343 37.5913 28.9909 37.5913C29.3475 37.5913 29.6014 37.3618 29.6014 36.9515V35.5933C29.6014 35.4906 29.7073 35.4217 29.8009 35.4639C30.1628 35.6268 30.7655 35.833 31.2472 35.833C32.5462 35.833 33.3765 34.8123 33.3765 33.1616L33.3764 33.1615Z" fill="black"/>
<path d="M37.7112 32.548H35.622C35.5314 32.548 35.4646 32.4642 35.4836 32.3756C35.6202 31.7369 36.0918 31.4093 36.6862 31.4093C37.2806 31.4093 37.7347 31.7241 37.8509 32.3824C37.8662 32.4689 37.7991 32.548 37.7112 32.548ZM36.6814 30.4668C35.1872 30.4668 34.2351 31.5312 34.2351 33.1817C34.2351 34.8322 35.1677 35.8526 36.7498 35.8526C37.55 35.8526 38.136 35.6748 38.6357 35.1198C38.8594 34.8714 38.7995 34.5007 38.5034 34.3422C38.254 34.2086 37.9703 34.3367 37.831 34.4661C37.3883 34.8775 37.0635 34.9151 36.7401 34.9151C35.9939 34.9151 35.5039 34.4304 35.4509 33.6069C35.4456 33.5248 35.51 33.4551 35.5923 33.4551H38.5465C38.8277 33.4551 39.0571 33.2303 39.0635 32.9492C39.0962 31.5063 38.121 30.4668 36.6814 30.4668Z" fill="black"/>
<path d="M39.9136 35.2073V31.0851C39.9136 30.7041 40.148 30.4697 40.4948 30.4697C40.7284 30.4697 40.915 30.5823 41.0076 30.7782C41.0095 30.7822 41.0159 30.7983 41.0244 30.8201C41.0585 30.9076 41.1668 30.9386 41.2417 30.8819C41.4441 30.7288 41.8264 30.4844 42.2043 30.4844C42.3948 30.4844 42.5413 30.5332 42.6341 30.6163C42.7464 30.7091 42.805 30.8556 42.805 31.0559C42.805 31.2562 42.7464 31.388 42.6243 31.4857C42.5071 31.5883 42.3264 31.642 42.087 31.6469C41.3934 31.6518 41.1297 32.0865 41.1297 32.7165V35.2074C41.1297 35.6079 40.8855 35.8472 40.5192 35.8472C40.1529 35.8472 39.9136 35.6078 39.9136 35.2073Z" fill="black"/>
<path d="M22.7036 33.9179V31.1095C22.7036 30.7041 22.9527 30.4697 23.3092 30.4697C23.6657 30.4697 23.9197 30.7041 23.9197 31.1144V33.6737C23.9197 34.4161 24.2811 34.8166 24.9649 34.8166C25.6487 34.8166 26.1029 34.3184 26.1029 33.5663V31.1095C26.1029 30.7041 26.3569 30.4697 26.7134 30.4697C27.0699 30.4697 27.319 30.7041 27.319 31.1144V35.2318C27.319 35.6225 27.0846 35.8472 26.7378 35.8472C26.503 35.8472 26.3183 35.747 26.2214 35.5641C26.2155 35.5529 26.2099 35.542 26.2046 35.5315C26.1702 35.4632 26.0879 35.4344 26.0185 35.4666C25.7576 35.5879 25.1388 35.8422 24.5399 35.8422C23.4167 35.8423 22.7036 35.1145 22.7036 33.9179Z" fill="black"/>
</svg>
