<svg width="149" height="54" viewBox="0 0 149 54" fill="none" xmlns="http://www.w3.org/2000/svg">
<rect x="1.85" y="1.84961" width="144.8" height="50.3" rx="3" stroke="#8B1EFF" stroke-width="0.28"/>
<path d="M10.0604 37.034C10.0845 37.6949 10.2385 38.357 10.5087 38.9662C10.7838 39.5851 11.1797 40.1492 11.6631 40.622C12.1511 41.0991 12.73 41.483 13.3577 41.7542C13.9836 42.0242 14.6587 42.1833 15.3354 42.2228C34.9753 42.6248 54.6183 42.8257 74.2628 42.8257C93.8969 42.8257 113.531 42.6247 133.161 42.2242C133.837 42.1832 134.512 42.0191 135.138 41.7498C135.452 41.6148 135.754 41.4518 136.038 41.2642C136.322 41.0762 136.589 40.8611 136.834 40.6219C137.317 40.1509 137.716 39.5839 137.987 38.9667C138.121 38.6617 138.226 38.3437 138.302 38.0182C138.378 37.6962 138.427 37.3672 138.437 37.0367C138.513 27.1066 138.616 17.1767 138.747 7.24762C138.727 6.53058 138.562 5.80756 138.272 5.14801C138.127 4.81805 137.95 4.50409 137.742 4.21136C137.535 3.91937 137.298 3.64935 137.033 3.40619C136.771 3.16425 136.484 2.95026 136.178 2.7663C135.872 2.58221 135.547 2.42926 135.211 2.30682C134.875 2.18488 134.529 2.09479 134.177 2.03326C133.824 1.97125 133.465 1.9372 133.108 1.93317C93.8683 1.82819 54.6284 1.82819 15.3899 1.93365C14.6779 1.93964 13.9589 2.06757 13.2869 2.31219C12.9509 2.43512 12.627 2.58612 12.3206 2.76886C12.0145 2.95184 11.7255 3.16486 11.4626 3.40656C11.1986 3.64948 10.9626 3.92047 10.7553 4.2121C10.5493 4.50507 10.3743 4.81903 10.2287 5.14862C9.93768 5.80963 9.77069 6.5307 9.75024 7.24774C9.8783 17.1768 9.98126 27.1058 10.0603 37.0357" stroke="#8B1EFF" stroke-width="0.283" stroke-miterlimit="10"/>
<path d="M135.112 4.53418C136.286 4.53418 137.238 5.48621 137.238 6.66016V38.835C137.238 40.009 136.286 40.9609 135.112 40.9609H13.2225C12.0475 40.9611 11.0965 40.009 11.0965 38.8352L11.0964 6.66223C11.0964 5.48816 12.0474 4.53613 13.2222 4.53613H131.568H135.112" stroke="#00FFFF" stroke-width="0.28" stroke-miterlimit="10"/>
<path d="M10.861 36.5526C10.845 31.7096 10.828 26.8646 10.807 22.0216C10.788 17.1766 10.765 12.3326 10.7401 7.48849C10.7385 7.18661 10.7654 6.88657 10.8235 6.59055C10.8514 6.4426 10.8875 6.2966 10.9315 6.15353C10.9755 6.01059 11.0275 5.87057 11.0865 5.73361C11.1455 5.59665 11.2125 5.46262 11.2875 5.33163C11.3265 5.26657 11.3655 5.20163 11.4064 5.13864C11.4475 5.07565 11.4905 5.01462 11.5345 4.95456C11.7115 4.71457 11.9155 4.49557 12.1434 4.29965C12.2004 4.2496 12.2595 4.20163 12.3204 4.15561C12.3795 4.10959 12.4415 4.06454 12.5035 4.02158C12.6274 3.93564 12.7565 3.85764 12.8885 3.78464C13.0205 3.71262 13.1564 3.64658 13.2944 3.58762C13.3644 3.55759 13.4345 3.52853 13.5054 3.50266C13.5765 3.47556 13.6495 3.45065 13.7214 3.42661C14.0115 3.33359 14.3065 3.26559 14.6055 3.22055C14.9045 3.17563 15.2065 3.15353 15.5135 3.15353C54.6432 3.04257 93.8542 3.04257 132.983 3.15353C133.291 3.15451 133.595 3.17661 133.896 3.22153C134.046 3.2435 134.195 3.27255 134.345 3.30759C134.419 3.32455 134.493 3.3436 134.567 3.36349C134.64 3.38461 134.712 3.40659 134.784 3.42953C135.073 3.52353 135.351 3.64255 135.617 3.78854C135.684 3.82553 135.749 3.86349 135.814 3.90451C135.878 3.94357 135.942 3.98557 136.004 4.02853C136.127 4.11349 136.246 4.20554 136.36 4.30356C136.473 4.40256 136.581 4.50656 136.684 4.61655C136.735 4.67258 136.784 4.72958 136.833 4.78757C136.881 4.84555 136.927 4.90561 136.971 4.96555C137.149 5.20651 137.295 5.46555 137.413 5.73849C137.444 5.80759 137.471 5.87753 137.497 5.9476C137.523 6.01852 137.547 6.09055 137.569 6.16257C137.612 6.30551 137.649 6.45053 137.677 6.59653C137.733 6.8895 137.759 7.18661 137.758 7.48849C137.732 12.333 137.71 17.177 137.69 22.021C137.67 26.865 137.653 31.709 137.637 36.5529C137.635 36.7007 137.629 36.8476 137.614 36.9946C137.607 37.0687 137.598 37.1417 137.588 37.2147C137.577 37.2877 137.565 37.3607 137.55 37.4326C137.494 37.7236 137.41 38.0046 137.299 38.2766C137.243 38.4116 137.179 38.5456 137.109 38.6766C137.074 38.7426 137.037 38.8066 136.999 38.8707C136.96 38.9337 136.921 38.9957 136.879 39.0566C136.713 39.3016 136.523 39.5266 136.309 39.7336C136.256 39.7856 136.201 39.8357 136.144 39.8846C136.088 39.9347 136.03 39.9817 135.971 40.0277C135.854 40.1196 135.733 40.2057 135.608 40.2846C135.359 40.4426 135.094 40.5757 134.816 40.6856C134.746 40.7126 134.675 40.7376 134.604 40.7617C134.533 40.7856 134.462 40.8087 134.39 40.8286C134.247 40.8696 134.102 40.9046 133.957 40.9326C133.666 40.9886 133.37 41.0196 133.071 41.0266C93.8825 41.8707 54.6155 41.8707 15.4271 41.0271C15.1271 41.02 14.8301 40.989 14.5361 40.932C14.4621 40.9181 14.3881 40.9021 14.3161 40.884C14.2431 40.8661 14.1711 40.847 14.0981 40.826C13.9551 40.785 13.8141 40.737 13.6761 40.683C13.5381 40.629 13.4021 40.568 13.2691 40.5011C13.2031 40.467 13.1361 40.431 13.0721 40.394C13.0071 40.357 12.9421 40.3191 12.8801 40.278C12.6281 40.117 12.3951 39.9341 12.1821 39.728C12.1291 39.677 12.0771 39.624 12.0271 39.5691C11.9761 39.515 11.9261 39.459 11.8791 39.4021C11.7831 39.287 11.6941 39.169 11.6112 39.047C11.4471 38.8029 11.3081 38.544 11.1971 38.271C11.1691 38.203 11.1421 38.134 11.1181 38.0641C11.0931 37.993 11.0701 37.9231 11.0491 37.853C11.0071 37.712 10.9721 37.5691 10.9451 37.426C10.8891 37.139 10.8621 36.848 10.861 36.5526Z" stroke="#FF00FF" stroke-width="0.283465" stroke-miterlimit="10" stroke-linecap="round" stroke-linejoin="round"/>
<path d="M131.784 50.0098V49.5623L133.464 47.7228C133.662 47.5074 133.824 47.3201 133.952 47.161C134.079 47.0003 134.174 46.8495 134.235 46.7086C134.298 46.5661 134.33 46.417 134.33 46.2612C134.33 46.0822 134.286 45.9273 134.2 45.7963C134.116 45.6654 134 45.5643 133.852 45.4931C133.705 45.4218 133.539 45.3862 133.355 45.3862C133.16 45.3862 132.989 45.4268 132.843 45.508C132.699 45.5875 132.587 45.6994 132.507 45.8436C132.43 45.9877 132.391 46.1568 132.391 46.3507H131.804C131.804 46.0524 131.873 45.7905 132.01 45.5652C132.148 45.3398 132.335 45.1641 132.572 45.0382C132.811 44.9122 133.078 44.8493 133.375 44.8493C133.673 44.8493 133.938 44.9122 134.168 45.0382C134.398 45.1641 134.579 45.334 134.71 45.5478C134.841 45.7615 134.906 45.9993 134.906 46.2612C134.906 46.4484 134.872 46.6316 134.804 46.8105C134.738 46.9879 134.622 47.1859 134.456 47.4047C134.292 47.6217 134.064 47.8869 133.773 48.2001L132.629 49.4231V49.4629H134.996V50.0098H131.784ZM136.46 50.0495C136.337 50.0495 136.232 50.0056 136.144 49.9178C136.056 49.83 136.012 49.7247 136.012 49.6021C136.012 49.4795 136.056 49.3742 136.144 49.2864C136.232 49.1986 136.337 49.1547 136.46 49.1547C136.582 49.1547 136.688 49.1986 136.776 49.2864C136.863 49.3742 136.907 49.4795 136.907 49.6021C136.907 49.6833 136.887 49.7579 136.845 49.8258C136.805 49.8938 136.752 49.9484 136.684 49.9899C136.617 50.0297 136.543 50.0495 136.46 50.0495ZM138.007 50.0098L140.284 45.5055V45.4657H137.659V44.9189H140.92V45.4956L138.653 50.0098H138.007ZM143.369 50.0794C143.077 50.0794 142.815 50.0214 142.581 49.9054C142.347 49.7894 142.16 49.6303 142.019 49.4281C141.878 49.2259 141.801 48.9956 141.788 48.737H142.385C142.408 48.9674 142.512 49.158 142.698 49.3088C142.885 49.4579 143.109 49.5325 143.369 49.5325C143.578 49.5325 143.764 49.4836 143.926 49.3858C144.09 49.2881 144.218 49.1538 144.311 48.9831C144.406 48.8108 144.453 48.6161 144.453 48.399C144.453 48.1769 144.404 47.9789 144.306 47.8049C144.21 47.6292 144.078 47.4908 143.909 47.3897C143.74 47.2886 143.546 47.2373 143.329 47.2356C143.174 47.234 143.014 47.258 142.85 47.3077C142.686 47.3558 142.55 47.4179 142.444 47.4941L141.868 47.4245L142.176 44.9189H144.821V45.4657H142.693L142.514 46.9672H142.544C142.648 46.8843 142.779 46.8155 142.937 46.7608C143.094 46.7061 143.258 46.6788 143.429 46.6788C143.74 46.6788 144.018 46.7534 144.262 46.9025C144.507 47.05 144.699 47.2522 144.838 47.5091C144.979 47.7659 145.05 48.0592 145.05 48.389C145.05 48.7138 144.977 49.0038 144.831 49.2591C144.687 49.5126 144.488 49.7131 144.234 49.8606C143.981 50.0065 143.692 50.0794 143.369 50.0794Z" fill="#0000FF"/>
<path fill-rule="evenodd" clip-rule="evenodd" d="M26.2793 16.4148C26.6904 16.0037 27.3572 16.0037 27.7684 16.4148L33.1612 21.8076C33.1644 21.8108 33.1676 21.8141 33.1707 21.8174C33.6232 22.2777 33.7576 22.9644 33.5101 23.562C33.2609 24.1634 32.6739 24.5559 32.0227 24.5559H30.7731C30.6958 24.5559 30.6331 24.6186 30.6331 24.6959V27.7852C30.6331 28.6743 29.9123 29.3951 29.0232 29.3951H25.0242C24.1351 29.3951 23.4143 28.6743 23.4143 27.7852V24.6959C23.4143 24.6186 23.3516 24.5559 23.2743 24.5559H22.0247C21.3735 24.5559 20.7866 24.1635 20.5374 23.5621C20.2885 22.9606 20.426 22.2681 20.8863 21.8077L26.2793 16.4148ZM32.1499 22.8046L27.1228 17.7775C27.0681 17.7228 26.9795 17.7228 26.9248 17.7775L21.8906 22.8116C21.8363 22.866 21.8199 22.9477 21.8494 23.0189C21.8788 23.0899 21.9479 23.1359 22.0247 23.1359H23.9542C24.44 23.1359 24.8343 23.5296 24.8343 24.016V27.7852C24.8343 27.89 24.9193 27.9751 25.0242 27.9751H29.0232C29.1281 27.9751 29.2131 27.89 29.2131 27.7852V24.016C29.2131 23.5299 29.6072 23.1359 30.0932 23.1359H32.0227C32.0994 23.1359 32.1687 23.0897 32.1981 23.0187M32.1499 22.8046C32.1522 22.8069 32.1545 22.8093 32.1569 22.8116C32.2113 22.8661 32.2274 22.9478 32.1981 23.0187" fill="black"/>
</svg>
