<svg width="54" height="54" viewBox="0 0 54 54" fill="none" xmlns="http://www.w3.org/2000/svg">
<rect x="1.8501" y="1.8501" width="50.3" height="50.3" rx="3" stroke="#8B1EFF" stroke-width="0.28"/>
<path d="M9.91309 37.0476C9.83508 27.0607 9.73608 17.0726 9.61914 7.0846L9.6192 7.08216C9.62323 6.91614 9.63623 6.75013 9.65631 6.58399C9.67633 6.41895 9.70233 6.25501 9.73553 6.09156C9.76752 5.92957 9.80652 5.76856 9.85266 5.60975C9.89966 5.45179 9.95166 5.29578 10.0115 5.14161C10.1985 4.66761 10.4535 4.21668 10.77 3.81434C11.083 3.41736 11.456 3.06837 11.8725 2.78394C12.2875 2.50196 12.7465 2.28394 13.2258 2.13697C13.7078 1.98987 14.2118 1.91395 14.7141 1.90662C18.8081 1.87171 22.9021 1.85462 26.9963 1.85499C31.0893 1.85499 35.1833 1.87195 39.2776 1.90723C39.4396 1.91016 39.6016 1.92115 39.7635 1.93775C40.0035 1.96375 40.2435 2.00477 40.4799 2.06153C40.7139 2.11854 40.9449 2.19044 41.1697 2.27955C41.4037 2.37256 41.6287 2.48353 41.8449 2.61072C42.062 2.73865 42.2689 2.8827 42.4627 3.04163C42.6577 3.20167 42.8417 3.37671 43.0105 3.56324C43.1795 3.7522 43.3355 3.95423 43.476 4.16578C43.757 4.59485 43.975 5.06483 44.125 5.55652C44.276 6.05445 44.358 6.57447 44.373 7.09266C44.252 17.0696 44.154 27.0466 44.08 37.0252C44.074 37.1851 44.0601 37.3451 44.039 37.5037C44.018 37.6647 43.991 37.8236 43.9569 37.9813C43.9239 38.1403 43.8839 38.2983 43.8358 38.4537C43.7888 38.6097 43.7349 38.7637 43.675 38.9157C43.484 39.3908 43.228 39.8407 42.9172 40.2495C42.6032 40.6605 42.2352 41.0286 41.8244 41.3395C41.4154 41.6495 40.9624 41.9036 40.4838 42.0906C40.0098 42.2755 39.5098 42.3955 39.0063 42.4435C31.0073 42.9535 22.9843 42.9535 14.9849 42.4436C14.6529 42.4116 14.3229 42.3477 14.0024 42.2535C13.6794 42.1596 13.3654 42.0346 13.0632 41.882C12.4602 41.575 11.9092 41.1569 11.4476 40.6577C10.9866 40.1607 10.6126 39.5817 10.349 38.9596C10.219 38.6516 10.115 38.3325 10.0411 38.0056C9.96912 37.6836 9.92407 37.3546 9.91113 37.0245" stroke="#8B1EFF" stroke-width="0.283" stroke-miterlimit="10"/>
<rect x="12.6855" y="5.52832" width="28.63" height="34.31" rx="1.43" stroke="#00FFFF" stroke-width="0.28"/>
<path d="M42.9396 36.5841C42.9576 31.7322 42.9776 26.8792 43.0006 22.0272C43.0216 17.1742 43.0466 12.3221 43.0756 7.46912C43.0764 7.32446 43.0714 7.18042 43.0594 7.03748C43.0494 6.89441 43.0314 6.75146 43.0074 6.61047C42.9604 6.32837 42.8884 6.05444 42.7894 5.78943C42.7644 5.72339 42.7384 5.65747 42.7104 5.59241C42.6814 5.52637 42.6524 5.46143 42.6214 5.39844C42.5584 5.27039 42.4904 5.14746 42.4154 5.02844C42.2664 4.79041 42.0934 4.57043 41.8934 4.36646C41.6954 4.16345 41.4774 3.98645 41.2434 3.83337C41.1264 3.75745 41.0054 3.6864 40.8794 3.62244C40.8164 3.59045 40.7534 3.55945 40.6874 3.5304C40.6234 3.50037 40.5564 3.47339 40.4904 3.44739C40.2234 3.34338 39.9504 3.26843 39.6714 3.21741C39.3924 3.16638 39.1074 3.14038 38.8164 3.13745C37.8376 3.12988 36.8566 3.12183 35.8735 3.11584C34.8896 3.10889 33.9056 3.10388 32.9205 3.09888C30.9496 3.09082 28.9756 3.08691 26.9985 3.08691C26.5035 3.08691 26.0096 3.08691 25.5146 3.08691C25.0206 3.08789 24.5256 3.08887 24.0306 3.08984C23.0416 3.09192 22.0536 3.09485 21.0685 3.09888C19.0966 3.10791 17.1326 3.12085 15.1755 3.13782C15.0298 3.13892 14.8859 3.14685 14.7408 3.15991C14.5979 3.17383 14.4539 3.19287 14.3129 3.21887C14.0298 3.27087 13.7559 3.3479 13.4908 3.4519C13.4249 3.47791 13.3599 3.50488 13.2949 3.53491C13.2299 3.56384 13.1649 3.59583 13.1019 3.62793C12.9749 3.69385 12.8539 3.76489 12.7359 3.8429C12.5009 3.99683 12.2839 4.1759 12.0859 4.37988C12.0369 4.42993 11.9889 4.48291 11.9429 4.53589C11.8969 4.58887 11.8519 4.64282 11.8089 4.69885C11.7229 4.80884 11.6429 4.92383 11.5688 5.04187C11.4949 5.16089 11.4279 5.28394 11.3649 5.40991C11.3349 5.4729 11.3058 5.53687 11.2779 5.60291C11.2499 5.66785 11.2239 5.73486 11.1989 5.80188C11.1009 6.06787 11.0298 6.34082 10.9839 6.6189C10.9379 6.89685 10.9149 7.18091 10.9169 7.46985C10.9452 12.3224 10.9712 17.1744 10.9932 22.0275C11.0162 26.8794 11.0352 31.7324 11.0532 36.5845C11.0539 36.8712 11.0779 37.1552 11.1279 37.4392C11.1409 37.5101 11.1549 37.5812 11.1699 37.6511C11.1859 37.7212 11.2019 37.7911 11.2209 37.8601C11.2579 37.9991 11.3009 38.1351 11.3499 38.2701C11.3989 38.4052 11.4529 38.5382 11.5149 38.6682C11.5459 38.7332 11.5769 38.7982 11.6119 38.8622C11.6459 38.9261 11.6809 38.9901 11.7179 39.0532C11.8649 39.3032 12.0329 39.5361 12.2239 39.7532C12.3189 39.8612 12.4199 39.9652 12.5269 40.0652C12.5789 40.1151 12.6339 40.1632 12.6899 40.2102C12.7449 40.2572 12.8009 40.3021 12.8589 40.3462C13.0879 40.5211 13.3319 40.6721 13.5919 40.7982C13.6569 40.8302 13.7229 40.8601 13.7899 40.8882C13.8569 40.9171 13.9239 40.9431 13.9919 40.9681C14.1279 41.0182 14.2649 41.0612 14.4039 41.0972C14.6799 41.1692 14.9629 41.2131 15.2509 41.2312C16.2241 41.2916 17.1991 41.3446 18.1771 41.3896C19.1531 41.4357 20.1321 41.4727 21.1111 41.5027C23.0681 41.5636 25.0291 41.5936 26.9941 41.5936C27.485 41.5936 27.9771 41.5917 28.4681 41.5876C28.959 41.5846 29.451 41.5786 29.9421 41.5707C30.925 41.5557 31.9061 41.5336 32.886 41.5027C34.8441 41.4426 36.7961 41.3527 38.7414 41.2316C38.8864 41.2227 39.0294 41.2067 39.1724 41.1846C39.2433 41.1726 39.3144 41.1597 39.3864 41.1447C39.4564 41.1296 39.5273 41.1136 39.5964 41.0946C39.8763 41.0226 40.1454 40.9226 40.4044 40.7957C40.4703 40.7646 40.5334 40.7316 40.5964 40.6967C40.6603 40.6616 40.7234 40.6246 40.7853 40.5856C40.9094 40.5096 41.0284 40.4266 41.1423 40.3386C41.3724 40.1636 41.5823 39.9667 41.7734 39.7487C41.8214 39.6936 41.8674 39.6376 41.9134 39.5807C41.9584 39.5237 42.0024 39.4656 42.0444 39.4066C42.1293 39.2897 42.2073 39.1686 42.2794 39.0447C42.4254 38.7966 42.5464 38.5376 42.6443 38.2656C42.6694 38.1976 42.6924 38.1287 42.7144 38.0596C42.7354 37.9906 42.7554 37.9216 42.7734 37.8527C42.8104 37.7136 42.8414 37.5746 42.8654 37.4346C42.9144 37.1537 42.9384 36.8706 42.9396 36.5841Z" stroke="#FF00FF" stroke-width="0.283465" stroke-miterlimit="10" stroke-linecap="round" stroke-linejoin="round"/>
<path fill-rule="evenodd" clip-rule="evenodd" d="M15.6079 9.21601C15.9055 8.81801 16.4694 8.73662 16.8674 9.03421L22.2104 13.0293C22.4376 13.1992 22.5714 13.4663 22.5714 13.7499C22.5714 14.0336 22.4376 14.3007 22.2104 14.4706L16.8674 18.4657C16.4694 18.7633 15.9055 18.682 15.6079 18.284C15.3104 17.886 15.3917 17.3221 15.7897 17.0245L20.0191 13.8621C20.094 13.8061 20.094 13.6938 20.0191 13.6378L15.7897 10.4755C15.3917 10.1779 15.3104 9.614 15.6079 9.21601Z" fill="black"/>
<path d="M18.0327 34.9192C18.0327 34.3921 18.4668 33.958 18.9939 33.958C19.5272 33.958 19.9613 34.3921 19.9613 34.9192C19.9613 35.4525 19.5272 35.8866 18.9939 35.8866C18.4668 35.8866 18.0327 35.4525 18.0327 34.9192Z" fill="black"/>
<path fill-rule="evenodd" clip-rule="evenodd" d="M38.1296 27.0673C38.2523 27.3253 38.2083 27.6317 38.0181 27.8448C37.2793 28.6728 36.5621 29.3471 35.7916 29.9585C35.6843 30.0436 35.7476 30.224 35.8846 30.2264C37.0909 30.2475 38.267 30.5485 39.098 31.3318C39.7801 31.9747 40.1359 33.2272 39.776 34.3682C39.3853 35.6068 38.2204 36.5781 36.1423 36.7909C35.684 36.8378 35.1799 36.8487 34.6267 36.8194C34.2508 36.7994 33.6773 36.7118 33.1448 36.4878C32.6303 36.2714 31.9917 35.8552 31.7954 35.0877C31.6637 34.5731 31.811 33.9013 32.2659 33.4118C32.7624 32.8775 33.5448 32.6312 34.5416 32.8203C35.5392 33.0095 36.1518 33.6089 36.4763 34.2916C36.6016 34.5554 36.6835 34.8288 36.7329 35.0946C36.7481 35.1764 36.8288 35.2306 36.9086 35.2072C37.8922 34.919 38.2815 34.3857 38.4218 33.941C38.6298 33.2814 38.3815 32.6078 38.124 32.3651C37.5171 31.793 36.4271 31.5493 35.0565 31.6787C33.7154 31.8053 32.2689 32.2774 31.1324 32.9196C30.791 33.1125 30.3579 32.9921 30.165 32.6507C29.9721 32.3093 30.0924 31.8762 30.4338 31.6833C32.6379 30.4379 34.1055 29.5609 35.4253 28.4186C35.5242 28.333 35.459 28.1731 35.3283 28.1781C34.2952 28.217 33.4133 28.2301 31.9783 28.2088C31.5863 28.2029 31.2731 27.8803 31.279 27.4883C31.2848 27.0962 31.6074 26.7831 31.9995 26.7889C34.0458 26.8194 34.9261 26.7789 36.8404 26.691C37.0343 26.6821 37.2388 26.6727 37.4562 26.6628C37.7416 26.6499 38.007 26.8093 38.1296 27.0673ZM35.1857 35.4155C35.2709 35.4159 35.3357 35.3393 35.3162 35.2563C35.2874 35.1341 35.2472 35.0137 35.1937 34.9011C35.0408 34.5792 34.7791 34.3106 34.277 34.2154C33.6525 34.097 33.4021 34.2752 33.3061 34.3785C33.2444 34.4448 33.2044 34.524 33.184 34.6013C33.174 34.6396 33.1699 34.6733 33.1693 34.6996C33.1687 34.7241 33.1712 34.7362 33.1712 34.7362C33.1712 34.7362 33.1711 34.7361 33.1711 34.7358C33.2033 34.8617 33.336 35.0278 33.6953 35.1789C34.0367 35.3224 34.4395 35.3874 34.702 35.4014C34.8702 35.4103 35.0313 35.4149 35.1857 35.4155Z" fill="black"/>
<path fill-rule="evenodd" clip-rule="evenodd" d="M30.5301 8.95857C30.423 8.95857 30.3195 8.97031 30.2204 8.99229C29.8376 9.07724 29.4584 8.83578 29.3735 8.45298C29.2885 8.07017 29.53 7.69097 29.9128 7.60602C30.1122 7.56177 30.3189 7.53857 30.5301 7.53857H31.0006C31.3927 7.53857 31.7106 7.85645 31.7106 8.24857C31.7106 8.6407 31.3927 8.95857 31.0006 8.95857H30.5301ZM32.7197 8.24857C32.7197 7.85645 33.0376 7.53857 33.4297 7.53857H34.3706C34.7627 7.53857 35.0806 7.85645 35.0806 8.24857C35.0806 8.6407 34.7627 8.95857 34.3706 8.95857H33.4297C33.0376 8.95857 32.7197 8.6407 32.7197 8.24857ZM36.0897 8.24857C36.0897 7.85645 36.4076 7.53857 36.7997 7.53857H37.2701C37.4814 7.53857 37.6881 7.56177 37.8875 7.60602C38.2703 7.69097 38.5117 8.07017 38.4268 8.45298C38.3418 8.83578 37.9626 9.07724 37.5798 8.99229C37.4808 8.97031 37.3772 8.95857 37.2701 8.95857H36.7997C36.4076 8.95857 36.0897 8.6407 36.0897 8.24857ZM28.6045 9.22191C28.9873 9.30687 29.2288 9.68606 29.1438 10.0689C29.1219 10.1679 29.1101 10.2715 29.1101 10.3786V10.849C29.1101 11.2411 28.7922 11.559 28.4001 11.559C28.008 11.559 27.6901 11.2411 27.6901 10.849V10.3786C27.6901 10.1673 27.7133 9.96063 27.7576 9.76123C27.8425 9.37842 28.2217 9.13696 28.6045 9.22191ZM39.1957 9.22191C39.5785 9.13696 39.9577 9.37842 40.0427 9.76123C40.0869 9.96063 40.1101 10.1673 40.1101 10.3786V10.849C40.1101 11.2411 39.7922 11.559 39.4001 11.559C39.008 11.559 38.6901 11.2411 38.6901 10.849V10.3786C38.6901 10.2715 38.6784 10.1679 38.6564 10.0689C38.5715 9.68607 38.8129 9.30687 39.1957 9.22191ZM39.4001 12.5681C39.7922 12.5681 40.1101 12.886 40.1101 13.2781V14.219C40.1101 14.6111 39.7922 14.929 39.4001 14.929C39.008 14.929 38.6901 14.6111 38.6901 14.219V13.2781C38.6901 12.886 39.008 12.5681 39.4001 12.5681ZM28.4001 12.5681C28.7922 12.5681 29.1101 12.886 29.1101 13.2781V14.219C29.1101 14.6111 28.7922 14.929 28.4001 14.929C28.008 14.929 27.6901 14.6111 27.6901 14.219V13.2781C27.6901 12.886 28.008 12.5681 28.4001 12.5681ZM39.4001 15.9381C39.7922 15.9381 40.1101 16.256 40.1101 16.6481V17.1186C40.1101 17.3298 40.0869 17.5365 40.0427 17.7359C39.9577 18.1187 39.5785 18.3602 39.1957 18.2752C38.8129 18.1903 38.5715 17.8111 38.6564 17.4283C38.6784 17.3292 38.6901 17.2257 38.6901 17.1186V16.6481C38.6901 16.256 39.008 15.9381 39.4001 15.9381ZM38.4268 19.0442C38.5117 19.427 38.2703 19.8062 37.8875 19.8911C37.6881 19.9354 37.4814 19.9586 37.2701 19.9586H36.7997C36.4076 19.9586 36.0897 19.6407 36.0897 19.2486C36.0897 18.8565 36.4076 18.5386 36.7997 18.5386H37.2701C37.3772 18.5386 37.4808 18.5268 37.5798 18.5049C37.9626 18.4199 38.3418 18.6614 38.4268 19.0442ZM32.7197 19.2486C32.7197 18.8565 33.0376 18.5386 33.4297 18.5386H34.3706C34.7627 18.5386 35.0806 18.8565 35.0806 19.2486C35.0806 19.6407 34.7627 19.9586 34.3706 19.9586H33.4297C33.0376 19.9586 32.7197 19.6407 32.7197 19.2486ZM26.6101 18.5536C26.6101 17.1812 27.7227 16.0686 29.0951 16.0686C30.4675 16.0686 31.5801 17.1812 31.5801 18.5536C31.5801 19.926 30.4675 21.0386 29.0951 21.0386C27.7227 21.0386 26.6101 19.926 26.6101 18.5536ZM28.0301 18.5536C28.0301 17.9654 28.5069 17.4886 29.0951 17.4886C29.6833 17.4886 30.1601 17.9654 30.1601 18.5536C30.1601 19.1418 29.6833 19.6186 29.0951 19.6186C28.5069 19.6186 28.0301 19.1418 28.0301 18.5536Z" fill="black"/>
</svg>
