<svg width="108" height="54" viewBox="0 0 108 54" fill="none" xmlns="http://www.w3.org/2000/svg">
<rect x="1.85" y="1.84961" width="104.3" height="50.3" rx="3" stroke="#8B1EFF" stroke-width="0.28"/>
<path d="M10.0468 38.2878C9.97168 28.3758 9.87476 18.4637 9.75488 8.55276C9.7699 8.00967 9.86792 7.46671 10.0386 6.94742C10.2085 6.4335 10.4506 5.94241 10.7612 5.50089C10.9161 5.27982 11.0881 5.07193 11.2767 4.87906C11.4626 4.68607 11.6656 4.50906 11.8804 4.34891C12.0953 4.18887 12.3234 4.04593 12.5598 3.91971C12.7958 3.79373 13.0417 3.68375 13.2942 3.59329C13.6122 3.48135 13.9413 3.39737 14.2739 3.33963C14.6089 3.28165 14.9479 3.24857 15.2865 3.24307C41.0985 3.13516 66.9105 3.13516 92.7227 3.24283C93.4247 3.25089 94.1348 3.38089 94.7959 3.6293C95.126 3.75333 95.444 3.90726 95.7438 4.09134C96.0448 4.27542 96.3268 4.49039 96.5842 4.73209C96.8412 4.97513 97.0732 5.24515 97.2748 5.5358C97.4778 5.82779 97.6488 6.14078 97.7908 6.46768C98.0737 7.12369 98.2338 7.84073 98.2538 8.55301C98.1317 18.464 98.0337 28.376 97.9614 38.2881C97.9374 38.9501 97.7854 39.6131 97.5188 40.225C97.2467 40.8479 96.8567 41.417 96.3781 41.8958C95.8942 42.3797 95.3212 42.7718 94.6964 43.0514C94.0743 43.3305 93.4014 43.4964 92.7267 43.5435C79.8228 43.9566 66.9137 44.1635 54.005 44.1635C41.094 44.1635 28.1851 43.9574 15.2823 43.5432C14.6073 43.4962 13.9343 43.3302 13.3126 43.0514C12.6876 42.7715 12.1136 42.3784 11.6311 41.8957C11.1521 41.4156 10.7611 40.8466 10.4897 40.2231C10.2236 39.6121 10.0707 38.9482 10.0468 38.286" stroke="#8B1EFF" stroke-width="0.283" stroke-miterlimit="10"/>
<path d="M93.689 41.0039H14.3188C13.1448 41.004 12.1929 40.052 12.1929 38.8779V7.98096C12.1927 6.80652 13.1448 5.85449 14.3188 5.85449H17.8628H90.1458H93.689C94.8639 5.85449 95.8149 6.80652 95.8149 7.98047V38.8779C95.8149 40.052 94.8639 41.0039 93.689 41.0039Z" stroke="#00FFFF" stroke-width="0.28" stroke-miterlimit="10"/>
<path d="M97.3453 9.19949C97.3542 9.04153 97.3602 8.88455 97.3593 8.72757C97.3573 8.57059 97.3483 8.41458 97.3303 8.25858C97.3223 8.18057 97.3113 8.10257 97.2982 8.02457C97.2853 7.94754 97.2712 7.86954 97.2543 7.79251C97.2203 7.63858 97.1793 7.48856 97.1293 7.34158C97.0782 7.19351 97.0212 7.04861 96.9542 6.9075C96.9203 6.83658 96.8853 6.76651 96.8483 6.69754C96.8103 6.62857 96.7703 6.56058 96.7283 6.49356C96.5623 6.22757 96.3663 5.9855 96.1443 5.76651C96.0873 5.71158 96.0312 5.6586 95.9713 5.6066C95.9413 5.5806 95.9113 5.55557 95.8802 5.53055C95.8502 5.50552 95.8193 5.4805 95.7872 5.4556C95.6622 5.35855 95.5333 5.26956 95.4003 5.18753C95.1323 5.02359 94.8483 4.88858 94.5472 4.78152C94.2473 4.67361 93.9413 4.59659 93.6302 4.54556C93.3193 4.49356 93.0033 4.46854 92.6832 4.46756C66.9321 4.36368 41.0771 4.36368 15.3262 4.46756C15.0057 4.46866 14.6887 4.49356 14.3788 4.54556C14.0668 4.59659 13.7617 4.67361 13.4607 4.78165C13.1608 4.88858 12.8757 5.02457 12.6078 5.18765C12.4738 5.26956 12.3457 5.35965 12.2207 5.45657C12.1887 5.48062 12.1577 5.50565 12.1277 5.53067C12.0968 5.55557 12.0668 5.58157 12.0367 5.60757C11.9778 5.6586 11.9208 5.71268 11.8647 5.76663C11.6407 5.98563 11.4458 6.22757 11.2798 6.49466C11.2378 6.56058 11.1978 6.62967 11.1608 6.69766C11.1228 6.76761 11.0878 6.83768 11.0547 6.90762C10.9867 7.04959 10.9297 7.19363 10.8798 7.34158C10.8297 7.48868 10.7877 7.63968 10.7538 7.79361C10.7367 7.87064 10.7218 7.94766 10.7097 8.02567C10.6968 8.10367 10.6858 8.18057 10.6787 8.25967C10.6608 8.41458 10.6517 8.57156 10.6498 8.72867C10.6477 8.88467 10.6548 9.04263 10.6637 9.20059C10.6876 13.9805 10.7096 18.7605 10.7286 23.5406C10.7487 28.3206 10.7666 33.1005 10.7816 37.8805C10.7828 38.1732 10.8098 38.4632 10.8638 38.7492C10.8907 38.8913 10.9248 39.0332 10.9658 39.1742C10.9858 39.2442 11.0088 39.3142 11.0328 39.3842C11.0558 39.4543 11.0828 39.5232 11.1097 39.5912C11.2187 39.8642 11.3538 40.1232 11.5148 40.3682C11.5948 40.4903 11.6818 40.6092 11.7758 40.7243C11.8228 40.7823 11.8718 40.8382 11.9218 40.8942C11.9708 40.9483 12.0218 41.0022 12.0739 41.0542C12.2828 41.2632 12.5107 41.4492 12.7598 41.6122C12.8208 41.6532 12.8848 41.6933 12.9489 41.7312C13.0118 41.7692 13.0778 41.8062 13.1428 41.8402C13.2748 41.9102 13.4088 41.9722 13.5458 42.0282C13.6818 42.0843 13.8218 42.1342 13.9637 42.1773C14.0338 42.1992 14.1058 42.2193 14.1779 42.2372C14.2498 42.2552 14.3228 42.2732 14.3958 42.2882C14.6877 42.3482 14.9828 42.3822 15.2808 42.3913C41.0608 43.1754 66.9468 43.1754 92.7268 42.3914C93.0251 42.3825 93.3191 42.3484 93.6071 42.2885C93.7511 42.2594 93.8951 42.2234 94.0371 42.1805C94.1071 42.1585 94.1781 42.1354 94.2482 42.1105C94.3191 42.0855 94.3881 42.0585 94.4572 42.0304C94.7332 41.9174 94.9941 41.7814 95.2401 41.6194C95.3632 41.5385 95.4821 41.4514 95.5972 41.3575C95.6552 41.3105 95.7111 41.2625 95.7671 41.2124C95.8231 41.1625 95.8761 41.1115 95.9291 41.0595C96.1381 40.8505 96.3251 40.6234 96.4871 40.3784C96.5271 40.3164 96.5662 40.2544 96.6041 40.1905C96.6411 40.1275 96.6771 40.0614 96.7122 39.9965C96.7811 39.8655 96.8422 39.7325 96.8971 39.5965C97.0061 39.3255 97.0881 39.0445 97.1431 38.7554C97.1571 38.6835 97.1691 38.6105 97.1791 38.5375C97.1901 38.4655 97.1991 38.3925 97.2061 38.3195C97.2191 38.1735 97.2261 38.0275 97.2272 37.8802C97.2432 33.1003 97.2592 28.3202 97.2791 23.5402C97.2981 18.7602 97.3201 13.9803 97.3453 9.19949Z" stroke="#FF00FF" stroke-width="0.283465" stroke-miterlimit="10" stroke-linecap="round" stroke-linejoin="round"/>
<path d="M90.2987 50.0098V49.5623L91.9791 47.7228C92.1763 47.5074 92.3387 47.3201 92.4663 47.161C92.5939 47.0003 92.6884 46.8495 92.7497 46.7086C92.8127 46.5661 92.8442 46.417 92.8442 46.2612C92.8442 46.0822 92.8011 45.9273 92.7149 45.7963C92.6304 45.6654 92.5144 45.5643 92.3669 45.4931C92.2194 45.4218 92.0537 45.3862 91.8697 45.3862C91.6742 45.3862 91.5035 45.4268 91.3577 45.508C91.2135 45.5875 91.1016 45.6994 91.0221 45.8436C90.9442 45.9877 90.9053 46.1568 90.9053 46.3507H90.3186C90.3186 46.0524 90.3874 45.7905 90.5249 45.5652C90.6625 45.3398 90.8497 45.1641 91.0867 45.0382C91.3254 44.9122 91.593 44.8493 91.8896 44.8493C92.1879 44.8493 92.4522 44.9122 92.6826 45.0382C92.9129 45.1641 93.0936 45.334 93.2245 45.5478C93.3554 45.7615 93.4209 45.9993 93.4209 46.2612C93.4209 46.4484 93.3869 46.6316 93.319 46.8105C93.2527 46.9879 93.1367 47.1859 92.9709 47.4047C92.8069 47.6217 92.579 47.8869 92.2874 48.2001L91.1439 49.4231V49.4629H93.5104V50.0098H90.2987ZM94.9745 50.0495C94.8519 50.0495 94.7466 50.0056 94.6588 49.9178C94.571 49.83 94.5271 49.7247 94.5271 49.6021C94.5271 49.4795 94.571 49.3742 94.6588 49.2864C94.7466 49.1986 94.8519 49.1547 94.9745 49.1547C95.0971 49.1547 95.2024 49.1986 95.2902 49.2864C95.378 49.3742 95.4219 49.4795 95.4219 49.6021C95.4219 49.6833 95.4012 49.7579 95.3598 49.8258C95.32 49.8938 95.2662 49.9484 95.1982 49.9899C95.1319 50.0297 95.0574 50.0495 94.9745 50.0495ZM97.9475 50.0794C97.573 50.0794 97.254 49.9775 96.9905 49.7736C96.727 49.5681 96.5256 49.2707 96.3864 48.8812C96.2472 48.4901 96.1776 48.0178 96.1776 47.4643C96.1776 46.9141 96.2472 46.4443 96.3864 46.0549C96.5273 45.6638 96.7295 45.3655 96.993 45.16C97.2581 44.9528 97.5763 44.8493 97.9475 44.8493C98.3187 44.8493 98.6361 44.9528 98.8996 45.16C99.1647 45.3655 99.3669 45.6638 99.5061 46.0549C99.647 46.4443 99.7174 46.9141 99.7174 47.4643C99.7174 48.0178 99.6478 48.4901 99.5086 48.8812C99.3694 49.2707 99.168 49.5681 98.9045 49.7736C98.641 49.9775 98.322 50.0794 97.9475 50.0794ZM97.9475 49.5325C98.3187 49.5325 98.6071 49.3535 98.8126 48.9956C99.0181 48.6376 99.1208 48.1272 99.1208 47.4643C99.1208 47.0235 99.0736 46.6481 98.9791 46.3382C98.8863 46.0283 98.7521 45.7922 98.5764 45.6298C98.4024 45.4674 98.1928 45.3862 97.9475 45.3862C97.5796 45.3862 97.2921 45.5676 97.0849 45.9306C96.8778 46.2918 96.7742 46.8031 96.7742 47.4643C96.7742 47.9051 96.8206 48.2797 96.9134 48.5879C97.0062 48.8961 97.1396 49.1306 97.3136 49.2914C97.4893 49.4521 97.7006 49.5325 97.9475 49.5325ZM102.323 50.0794C101.948 50.0794 101.629 49.9775 101.365 49.7736C101.102 49.5681 100.901 49.2707 100.761 48.8812C100.622 48.4901 100.553 48.0178 100.553 47.4643C100.553 46.9141 100.622 46.4443 100.761 46.0549C100.902 45.6638 101.104 45.3655 101.368 45.16C101.633 44.9528 101.951 44.8493 102.323 44.8493C102.694 44.8493 103.011 44.9528 103.275 45.16C103.54 45.3655 103.742 45.6638 103.881 46.0549C104.022 46.4443 104.092 46.9141 104.092 47.4643C104.092 48.0178 104.023 48.4901 103.884 48.8812C103.744 49.2707 103.543 49.5681 103.28 49.7736C103.016 49.9775 102.697 50.0794 102.323 50.0794ZM102.323 49.5325C102.694 49.5325 102.982 49.3535 103.188 48.9956C103.393 48.6376 103.496 48.1272 103.496 47.4643C103.496 47.0235 103.449 46.6481 103.354 46.3382C103.261 46.0283 103.127 45.7922 102.951 45.6298C102.777 45.4674 102.568 45.3862 102.323 45.3862C101.955 45.3862 101.667 45.5676 101.46 45.9306C101.253 46.2918 101.149 46.8031 101.149 47.4643C101.149 47.9051 101.196 48.2797 101.288 48.5879C101.381 48.8961 101.515 49.1306 101.689 49.2914C101.864 49.4521 102.076 49.5325 102.323 49.5325Z" fill="#0000FF"/>
<path d="M19.1006 25.8673C17.6943 25.8673 16.7568 25.2814 16.4834 24.4806C16.4395 24.3634 16.415 24.2365 16.415 24.1193C16.415 23.7677 16.6396 23.5431 16.9716 23.5431C17.2499 23.5431 17.4257 23.6554 17.5624 23.9386C17.7821 24.549 18.3876 24.8224 19.1396 24.8224C19.9892 24.8224 20.5849 24.4025 20.5849 23.8165C20.5849 23.3087 20.2333 22.9962 19.3154 22.8057L18.5586 22.6494C17.1475 22.3613 16.4883 21.6972 16.4883 20.667C16.4883 19.4268 17.5772 18.5869 19.1055 18.5869C20.3506 18.5869 21.3174 19.1435 21.6055 20.0762C21.6348 20.1543 21.6494 20.2471 21.6494 20.3643C21.6494 20.6719 21.4297 20.8819 21.1025 20.8819C20.8095 20.8819 20.6289 20.7549 20.497 20.4815C20.2577 19.8858 19.7548 19.6319 19.0956 19.6319C18.3143 19.6319 17.7577 20.003 17.7577 20.5938C17.7577 21.0723 18.1093 21.3799 18.9882 21.5655L19.745 21.7218C21.2294 22.0294 21.8544 22.6251 21.8544 23.6701C21.8544 25.0178 20.7948 25.8674 19.1005 25.8674L19.1006 25.8673Z" fill="black"/>
<path d="M22.9131 25.208V19.2306C22.9131 18.8448 23.1426 18.6055 23.5138 18.6055C23.885 18.6055 24.1145 18.8448 24.1145 19.2306V20.7063C24.1145 20.8095 24.2211 20.8781 24.315 20.8353C24.6103 20.7007 25.1908 20.4759 25.7749 20.4759C26.9176 20.4759 27.5867 21.228 27.5867 22.4147V25.2081C27.5867 25.6183 27.3328 25.8478 26.9763 25.8478C26.6198 25.8478 26.3707 25.6183 26.3707 25.2081V22.6638C26.3707 21.941 26.0093 21.5064 25.3061 21.5064C24.6029 21.5064 24.1292 22.0143 24.1292 22.7761V25.2081C24.1292 25.6183 23.8801 25.8478 23.5236 25.8478C23.1671 25.8478 22.9131 25.6182 22.9131 25.208Z" fill="black"/>
<path d="M29.3979 20.4717C29.0268 20.4717 28.7924 20.7207 28.7924 21.1114V25.2081C28.7924 25.6036 29.0268 25.8478 29.3979 25.8478C29.769 25.8478 30.0083 25.6037 30.0083 25.2081V21.1163C30.0083 20.7208 29.769 20.4718 29.3979 20.4718V20.4717ZM29.3979 19.8467C29.7788 19.8467 30.0766 19.5537 30.0766 19.1875C30.0766 18.8213 29.7787 18.5283 29.3979 18.5283C29.0171 18.5283 28.7241 18.8164 28.7241 19.1875C28.7241 19.5586 29.022 19.8467 29.3979 19.8467Z" fill="black"/>
<path fill-rule="evenodd" clip-rule="evenodd" d="M32.2618 25.8476C31.8956 25.8476 31.6514 25.623 31.6514 25.2128V21.6534C31.6514 21.5751 31.5879 21.5117 31.5097 21.5117H31.3292C31.0558 21.5117 30.8604 21.3457 30.8604 21.0478C30.8604 20.7499 31.0557 20.5888 31.3292 20.5888H31.5097C31.588 20.5888 31.6514 20.5253 31.6514 20.4471V20.1298C31.6514 19.1191 32.1023 18.6504 33.213 18.6504C33.9889 18.6504 34.0097 18.9954 34.0097 19.1582C34.0097 19.3412 33.8989 19.5304 33.7166 19.5784C33.6311 19.6009 33.5976 19.6035 33.4725 19.6089C33.0285 19.628 32.8475 19.7491 32.8475 20.1837V20.4472C32.8475 20.5237 32.9081 20.586 32.9838 20.5888H34.3681C34.3806 20.5882 34.3932 20.5879 34.4061 20.5879H34.5915C34.6698 20.5879 34.7332 20.5244 34.7332 20.4462V19.8832C34.7332 19.4925 34.9676 19.2483 35.3437 19.2483C35.7198 19.2483 35.9493 19.4924 35.9493 19.8832V20.4462C35.9493 20.5245 36.0128 20.5879 36.091 20.5879H36.5109C36.8136 20.5879 36.9993 20.7587 36.9993 21.0469C36.9993 21.3351 36.8138 21.5108 36.5109 21.5108H36.091C36.0127 21.5108 35.9493 21.5743 35.9493 21.6525V24.2051C35.9493 24.5958 36.086 24.7667 36.4377 24.796L36.5256 24.8058C36.8479 24.8351 37.014 24.9718 37.014 25.2551C37.014 25.6115 36.7015 25.8021 36.1448 25.8021H36.096C35.1926 25.8021 34.7335 25.3528 34.7335 24.4689H34.7333L34.7332 24.4688V21.6525C34.7332 21.5796 34.6782 21.5197 34.6076 21.5117H33.5131C33.5094 21.5118 33.5056 21.5118 33.5018 21.5118H33.0088C32.9305 21.5118 32.8671 21.5753 32.8671 21.6535V25.2129C32.8671 25.6231 32.623 25.8477 32.2616 25.8477L32.2618 25.8476Z" fill="black"/>
</svg>
