<svg width="95" height="54" viewBox="0 0 95 54" fill="none" xmlns="http://www.w3.org/2000/svg">
<rect x="1.85" y="1.84961" width="90.8" height="50.3" rx="3" stroke="#8B1EFF" stroke-width="0.28"/>
<path d="M10.2 37.0324C10.22 37.6924 10.37 38.3624 10.64 38.9724C10.91 39.6024 11.29 40.1724 11.76 40.6624C12.23 41.1524 12.8 41.5624 13.42 41.8524C14.03 42.1424 14.7 42.3224 15.37 42.3724C21.49 42.6624 27.62 42.8124 33.75 42.8124C39.88 42.8124 46.01 42.6624 52.13 42.3724C52.8 42.3124 53.47 42.1324 54.08 41.8424C54.39 41.6924 54.68 41.5224 54.96 41.3224C55.24 41.1224 55.5 40.9024 55.74 40.6524C55.98 40.4024 56.19 40.1424 56.38 39.8524C56.57 39.5724 56.73 39.2724 56.86 38.9624C56.99 38.6524 57.09 38.3324 57.16 38.0024C57.23 37.6824 57.28 37.3524 57.29 37.0124C57.37 27.0724 57.47 17.1324 57.6 7.20238C57.58 6.66238 57.5 6.12238 57.33 5.61238C57.17 5.10238 56.94 4.61238 56.63 4.17238C56.33 3.73238 55.96 3.34238 55.55 3.02238C55.13 2.70238 54.67 2.44238 54.17 2.25238C53.94 2.16238 53.7 2.09238 53.46 2.04238C53.22 1.99238 52.97 1.95238 52.72 1.92238C52.55 1.90238 52.39 1.89238 52.22 1.89238C39.9 1.83238 27.58 1.83238 15.27 1.91238C14.58 1.91238 13.88 2.05238 13.24 2.31238C12.92 2.44238 12.61 2.59238 12.32 2.78238C12.03 2.97238 11.75 3.18238 11.51 3.42238C11.26 3.66238 11.04 3.94238 10.84 4.22238C10.64 4.51238 10.48 4.82238 10.35 5.15238C10.08 5.80238 9.91999 6.51238 9.89999 7.22238C10.02 17.1624 10.13 27.1024 10.21 37.0324" stroke="#8B1EFF" stroke-width="0.28" stroke-miterlimit="10"/>
<path d="M13.29 4.34277C12.51 4.34277 11.87 4.98277 11.87 5.76277V38.9228C11.87 39.7028 12.5 40.3428 13.29 40.3428H54.11C54.89 40.3428 55.53 39.7128 55.53 38.9228V5.76277C55.53 4.98277 54.89 4.34277 54.11 4.34277" stroke="#00FFFF" stroke-width="0.28" stroke-miterlimit="10"/>
<path d="M15.45 41.133C15.26 41.133 15.08 41.103 14.9 41.073C14.42 40.993 13.95 40.833 13.52 40.613C13.09 40.383 12.69 40.083 12.36 39.723C12.22 39.573 12.09 39.413 11.97 39.253C11.68 38.843 11.46 38.383 11.32 37.903C11.19 37.463 11.12 37.003 11.12 36.543C11.1 31.683 11.08 26.833 11.06 21.973C11.06 20.803 11.06 19.643 11.05 18.473C11.04 15.283 11.02 12.093 11 8.90305C11 8.40305 11 7.89305 11 7.39305C11 7.35305 11 7.31305 11 7.27305C11 7.23305 11 7.19305 11 7.15305C11 7.11305 11 7.07305 11 7.03305C11 6.99305 11 6.95305 11 6.91305V6.79305C11 6.79305 11.02 6.71305 11.03 6.67305C11.03 6.63305 11.04 6.59305 11.05 6.56305C11.05 6.52305 11.06 6.48305 11.07 6.45305C11.07 6.41305 11.08 6.37305 11.09 6.34305C11.09 6.30305 11.11 6.26305 11.11 6.23305C11.12 6.19305 11.13 6.16305 11.14 6.12305C11.14 6.08305 11.16 6.05305 11.17 6.01305C11.18 5.97305 11.19 5.94305 11.2 5.90305C11.21 5.86305 11.22 5.83305 11.24 5.79305C11.25 5.75305 11.27 5.72305 11.28 5.68305C11.31 5.61305 11.34 5.55305 11.37 5.48305C11.4 5.41305 11.43 5.35305 11.47 5.29305C11.5 5.23305 11.54 5.16305 11.57 5.10305C11.61 5.04305 11.65 4.98305 11.69 4.92305C11.77 4.80305 11.86 4.68305 11.95 4.57305C12.04 4.46305 12.14 4.36305 12.24 4.26305C12.34 4.16305 12.45 4.07305 12.57 3.98305C12.68 3.89305 12.8 3.81305 12.93 3.73305C12.99 3.69305 13.05 3.66305 13.12 3.62305C13.18 3.59305 13.25 3.55305 13.31 3.52305C13.37 3.49305 13.44 3.46305 13.51 3.43305C13.58 3.40305 13.64 3.38305 13.71 3.35305C13.73 3.35305 13.75 3.34305 13.77 3.33305C13.79 3.33305 13.81 3.32305 13.83 3.31305C13.85 3.31305 13.87 3.30305 13.88 3.29305L13.94 3.27305C13.94 3.27305 13.98 3.26305 14 3.25305C14.02 3.25305 14.04 3.24305 14.06 3.23305C14.08 3.23305 14.1 3.23305 14.12 3.22305C14.14 3.22305 14.16 3.21305 14.18 3.20305C14.2 3.20305 14.22 3.19305 14.24 3.18305C14.26 3.18305 14.28 3.18305 14.3 3.17305C14.32 3.17305 14.34 3.17305 14.36 3.16305C14.38 3.16305 14.4 3.16305 14.42 3.15305C14.44 3.15305 14.46 3.15305 14.48 3.14305C14.5 3.14305 14.52 3.14305 14.54 3.13305C14.56 3.13305 14.58 3.13305 14.6 3.13305C14.62 3.13305 14.64 3.13305 14.66 3.12305C14.68 3.12305 14.7 3.12305 14.72 3.12305C14.74 3.12305 14.76 3.12305 14.78 3.12305C14.8 3.12305 14.82 3.12305 14.84 3.12305C14.86 3.12305 14.88 3.12305 14.9 3.12305C14.92 3.12305 14.94 3.12305 14.96 3.12305C14.98 3.12305 15 3.12305 15.02 3.12305C15.04 3.12305 15.06 3.12305 15.08 3.12305C15.1 3.12305 15.12 3.12305 15.14 3.12305C15.16 3.12305 15.18 3.12305 15.2 3.12305C15.22 3.12305 15.24 3.12305 15.26 3.12305C15.28 3.12305 15.3 3.12305 15.32 3.12305C15.34 3.12305 15.36 3.12305 15.38 3.12305C15.4 3.12305 15.42 3.12305 15.44 3.12305C15.54 3.12305 15.64 3.12305 15.75 3.12305C15.85 3.12305 15.95 3.12305 16.05 3.12305C16.15 3.12305 16.25 3.12305 16.36 3.12305C16.46 3.12305 16.56 3.12305 16.67 3.12305C16.77 3.12305 16.87 3.12305 16.98 3.12305C17.08 3.12305 17.18 3.12305 17.29 3.12305C17.39 3.12305 17.49 3.12305 17.6 3.12305C17.7 3.12305 17.8 3.12305 17.91 3.12305C18.01 3.12305 18.11 3.12305 18.22 3.12305C18.32 3.12305 18.42 3.12305 18.53 3.12305C18.63 3.12305 18.73 3.12305 18.84 3.12305C18.94 3.12305 19.04 3.12305 19.15 3.12305C19.25 3.12305 19.35 3.12305 19.45 3.12305C19.55 3.12305 19.66 3.12305 19.76 3.12305C19.86 3.12305 19.96 3.12305 20.07 3.12305C20.17 3.12305 20.27 3.12305 20.38 3.12305C20.48 3.12305 20.58 3.12305 20.69 3.12305C20.79 3.12305 20.89 3.12305 21 3.12305C21.1 3.12305 21.2 3.12305 21.31 3.12305C21.41 3.12305 21.51 3.12305 21.62 3.12305C21.72 3.12305 21.83 3.12305 21.93 3.12305H22.24C22.34 3.12305 22.44 3.12305 22.55 3.12305C22.65 3.12305 22.75 3.12305 22.86 3.12305C22.96 3.12305 23.07 3.12305 23.17 3.12305C23.27 3.12305 23.37 3.12305 23.48 3.12305C23.59 3.12305 23.68 3.12305 23.79 3.12305C23.89 3.12305 23.99 3.12305 24.1 3.12305H24.41C24.51 3.12305 24.61 3.12305 24.72 3.12305C24.83 3.12305 24.93 3.12305 25.03 3.12305C25.13 3.12305 25.23 3.12305 25.34 3.12305C25.45 3.12305 25.55 3.12305 25.65 3.12305C25.75 3.12305 25.86 3.12305 25.96 3.12305C26.06 3.12305 26.16 3.12305 26.27 3.12305C26.38 3.12305 26.47 3.12305 26.58 3.12305C26.68 3.12305 26.78 3.12305 26.89 3.12305H27.2C27.3 3.12305 27.4 3.12305 27.51 3.12305C27.62 3.12305 27.72 3.12305 27.82 3.12305H28.13C28.23 3.12305 28.34 3.12305 28.44 3.12305C28.54 3.12305 28.64 3.12305 28.75 3.12305H29.06C29.16 3.12305 29.27 3.12305 29.37 3.12305H29.68C29.78 3.12305 29.88 3.12305 29.99 3.12305H30.3C30.4 3.12305 30.5 3.12305 30.61 3.12305H31.22C31.32 3.12305 31.42 3.12305 31.53 3.12305H33.38C33.48 3.12305 33.59 3.12305 33.69 3.12305H34C34.1 3.12305 34.2 3.12305 34.31 3.12305H36.16C36.26 3.12305 36.37 3.12305 36.47 3.12305H37.08C37.18 3.12305 37.29 3.12305 37.39 3.12305H37.7C37.8 3.12305 37.91 3.12305 38.01 3.12305H38.32C38.42 3.12305 38.52 3.12305 38.63 3.12305H38.94C39.04 3.12305 39.14 3.12305 39.25 3.12305C39.36 3.12305 39.45 3.12305 39.56 3.12305H39.87C39.97 3.12305 40.08 3.12305 40.18 3.12305C40.28 3.12305 40.39 3.12305 40.49 3.12305H40.8C40.9 3.12305 41 3.12305 41.11 3.12305C41.21 3.12305 41.32 3.12305 41.42 3.12305C41.52 3.12305 41.62 3.12305 41.73 3.12305C41.84 3.12305 41.93 3.12305 42.04 3.12305C42.15 3.12305 42.25 3.12305 42.35 3.12305C42.45 3.12305 42.56 3.12305 42.66 3.12305C42.76 3.12305 42.86 3.12305 42.97 3.12305C43.08 3.12305 43.17 3.12305 43.28 3.12305C43.39 3.12305 43.48 3.12305 43.59 3.12305C43.7 3.12305 43.8 3.12305 43.9 3.12305C44 3.12305 44.1 3.12305 44.21 3.12305H44.52C44.62 3.12305 44.72 3.12305 44.83 3.12305C44.93 3.12305 45.04 3.12305 45.14 3.12305C45.24 3.12305 45.34 3.12305 45.45 3.12305C45.55 3.12305 45.65 3.12305 45.76 3.12305C45.86 3.12305 45.96 3.12305 46.07 3.12305C46.17 3.12305 46.28 3.12305 46.38 3.12305C46.48 3.12305 46.58 3.12305 46.69 3.12305C46.79 3.12305 46.89 3.12305 47 3.12305C47.1 3.12305 47.2 3.12305 47.31 3.12305C47.41 3.12305 47.51 3.12305 47.62 3.12305C47.72 3.12305 47.82 3.12305 47.93 3.12305C48.03 3.12305 48.13 3.12305 48.24 3.12305C48.34 3.12305 48.45 3.12305 48.55 3.12305C48.65 3.12305 48.75 3.12305 48.86 3.12305C48.96 3.12305 49.06 3.12305 49.17 3.12305C49.27 3.12305 49.38 3.12305 49.48 3.12305C49.58 3.12305 49.68 3.12305 49.79 3.12305C49.89 3.12305 49.99 3.12305 50.09 3.12305C50.19 3.12305 50.29 3.12305 50.4 3.12305C50.5 3.12305 50.6 3.12305 50.71 3.12305C50.81 3.12305 50.91 3.12305 51.01 3.12305C51.11 3.12305 51.21 3.12305 51.32 3.12305C51.42 3.12305 51.52 3.12305 51.63 3.12305C51.73 3.12305 51.83 3.12305 51.93 3.12305C52.03 3.12305 52.13 3.12305 52.24 3.12305C52.28 3.12305 52.32 3.12305 52.36 3.12305C52.4 3.12305 52.44 3.12305 52.48 3.12305C52.52 3.12305 52.56 3.12305 52.6 3.12305C52.64 3.12305 52.68 3.12305 52.72 3.13305C52.76 3.13305 52.8 3.13305 52.84 3.14305L52.96 3.16305C52.96 3.16305 53.04 3.17305 53.08 3.18305C53.12 3.18305 53.16 3.19305 53.2 3.20305C53.24 3.20305 53.27 3.22305 53.31 3.22305C53.35 3.22305 53.39 3.24305 53.42 3.25305C53.46 3.25305 53.5 3.27305 53.53 3.28305C53.57 3.28305 53.6 3.30305 53.64 3.31305C53.68 3.32305 53.71 3.33305 53.75 3.34305C53.79 3.35305 53.82 3.36305 53.86 3.37305C53.9 3.38305 53.93 3.39305 53.97 3.41305C54.04 3.44305 54.11 3.46305 54.17 3.49305C54.24 3.52305 54.3 3.55305 54.37 3.58305C54.43 3.61305 54.5 3.65305 54.56 3.68305C54.62 3.71305 54.69 3.75305 54.75 3.79305C54.87 3.87305 54.99 3.95305 55.11 4.04305C55.22 4.13305 55.33 4.22305 55.43 4.32305C55.53 4.42305 55.63 4.52305 55.72 4.63305C55.81 4.74305 55.9 4.86305 55.98 4.98305C56.02 5.04305 56.06 5.10305 56.09 5.16305C56.13 5.22305 56.16 5.28305 56.19 5.35305C56.22 5.41305 56.25 5.48305 56.28 5.54305C56.31 5.61305 56.34 5.67305 56.36 5.74305C56.36 5.76305 56.37 5.78305 56.38 5.80305C56.38 5.82305 56.39 5.84305 56.4 5.85305L56.42 5.91305C56.42 5.91305 56.43 5.95305 56.44 5.97305C56.44 5.99305 56.45 6.01305 56.46 6.03305C56.46 6.05305 56.47 6.07305 56.48 6.09305C56.48 6.11305 56.49 6.13305 56.5 6.15305C56.5 6.17305 56.51 6.19305 56.52 6.21305V6.27305C56.52 6.27305 56.54 6.31305 56.55 6.33305C56.55 6.35305 56.55 6.37305 56.56 6.39305C56.56 6.41305 56.56 6.43305 56.57 6.45305C56.57 6.47305 56.57 6.49305 56.58 6.51305V6.57305C56.58 6.57305 56.6 6.61305 56.6 6.63305C56.6 6.65305 56.6 6.67305 56.6 6.69305C56.6 6.71305 56.6 6.73305 56.6 6.75305C56.6 6.77305 56.6 6.79305 56.6 6.81305C56.6 6.83305 56.6 6.85305 56.6 6.87305C56.6 6.89305 56.6 6.91305 56.6 6.93305C56.6 6.95305 56.6 6.97305 56.6 6.99305C56.6 7.01305 56.6 7.03305 56.6 7.05305C56.6 7.07305 56.6 7.09305 56.6 7.11305C56.6 7.13305 56.6 7.15305 56.6 7.17305V7.23305C56.6 7.23305 56.6 7.27305 56.6 7.29305C56.6 7.31305 56.6 7.33305 56.6 7.35305C56.6 7.37305 56.6 7.39305 56.6 7.41305V7.47305V8.99305C56.58 12.183 56.57 15.373 56.55 18.573C56.55 19.733 56.54 20.903 56.54 22.063C56.52 26.913 56.5 31.773 56.48 36.623C56.48 36.663 56.48 36.703 56.48 36.743C56.48 36.783 56.48 36.823 56.48 36.863C56.48 36.903 56.48 36.943 56.48 36.983C56.48 37.023 56.48 37.063 56.48 37.103C56.48 37.143 56.48 37.183 56.47 37.213C56.47 37.253 56.46 37.293 56.45 37.323C56.45 37.363 56.44 37.403 56.43 37.433L56.41 37.543C56.41 37.543 56.4 37.623 56.39 37.653C56.39 37.693 56.37 37.733 56.36 37.763C56.36 37.803 56.34 37.833 56.33 37.873C56.32 37.913 56.31 37.943 56.3 37.983C56.29 38.023 56.28 38.053 56.27 38.093C56.26 38.133 56.25 38.163 56.23 38.203C56.22 38.243 56.2 38.273 56.19 38.313C56.14 38.453 56.08 38.583 56.01 38.723C55.95 38.853 55.88 38.983 55.8 39.103C55.72 39.223 55.64 39.343 55.55 39.463C55.46 39.573 55.37 39.693 55.27 39.793C55.17 39.903 55.07 40.003 54.96 40.103C54.85 40.203 54.73 40.293 54.61 40.373C54.55 40.413 54.49 40.453 54.43 40.493C54.37 40.533 54.31 40.573 54.24 40.603C54.18 40.643 54.11 40.673 54.05 40.703C53.98 40.733 53.92 40.773 53.85 40.803C53.83 40.803 53.82 40.813 53.8 40.823C53.78 40.833 53.76 40.843 53.75 40.843C53.73 40.843 53.72 40.853 53.7 40.863C53.68 40.863 53.67 40.873 53.65 40.883L53.6 40.903C53.6 40.903 53.56 40.913 53.55 40.923L53.5 40.943C53.5 40.943 53.47 40.953 53.45 40.963C53.43 40.963 53.41 40.973 53.4 40.983C53.38 40.983 53.36 40.993 53.35 41.003C53.33 41.003 53.31 41.013 53.3 41.023C53.28 41.023 53.26 41.033 53.25 41.043C53.23 41.043 53.21 41.053 53.2 41.053L53.15 41.073C53.15 41.073 53.11 41.073 53.1 41.083C53.08 41.083 53.06 41.083 53.05 41.093C53.03 41.093 53.01 41.093 52.99 41.103C52.97 41.103 52.95 41.103 52.93 41.113C52.91 41.113 52.89 41.113 52.88 41.123C52.86 41.123 52.84 41.123 52.82 41.133C52.8 41.133 52.78 41.133 52.76 41.133H52.71L52.65 41.153C52.63 41.153 52.61 41.153 52.59 41.153C52.57 41.153 52.55 41.153 52.53 41.153C52.51 41.153 52.49 41.153 52.47 41.153C52.45 41.153 52.43 41.153 52.41 41.153C52.39 41.153 52.37 41.153 52.35 41.153C52.33 41.153 52.31 41.153 52.29 41.153C52.27 41.153 52.25 41.153 52.23 41.153C52.21 41.153 52.19 41.153 52.17 41.153C52.07 41.153 51.97 41.163 51.86 41.173C51.76 41.173 51.66 41.183 51.56 41.193C51.46 41.193 51.36 41.203 51.25 41.203C51.15 41.203 51.05 41.213 50.94 41.223C50.84 41.223 50.74 41.223 50.64 41.233C50.54 41.233 50.44 41.233 50.33 41.243C50.23 41.243 50.13 41.243 50.02 41.253C49.92 41.253 49.82 41.253 49.72 41.263C49.62 41.263 49.52 41.263 49.41 41.273C49.31 41.273 49.21 41.273 49.1 41.283C49 41.283 48.9 41.283 48.79 41.293C48.69 41.293 48.59 41.293 48.48 41.303C48.38 41.303 48.28 41.303 48.17 41.313C48.07 41.313 47.97 41.313 47.86 41.323C47.76 41.323 47.66 41.323 47.55 41.333C47.45 41.333 47.35 41.333 47.24 41.343C47.14 41.343 47.04 41.343 46.93 41.353C46.83 41.353 46.73 41.353 46.62 41.363C46.52 41.363 46.42 41.363 46.31 41.373C46.21 41.373 46.11 41.373 46 41.383C45.9 41.383 45.8 41.383 45.69 41.383C45.59 41.383 45.49 41.383 45.38 41.393C45.27 41.403 45.18 41.393 45.07 41.403C44.97 41.403 44.87 41.403 44.76 41.403C44.66 41.403 44.56 41.403 44.45 41.403C44.35 41.403 44.25 41.403 44.14 41.403C44.04 41.403 43.94 41.403 43.83 41.403C43.73 41.403 43.63 41.403 43.52 41.403C43.42 41.403 43.32 41.403 43.21 41.403C43.11 41.403 43.01 41.403 42.9 41.403C42.8 41.403 42.7 41.403 42.59 41.403C42.49 41.403 42.39 41.403 42.28 41.403C42.18 41.403 42.07 41.403 41.97 41.403C41.87 41.403 41.77 41.403 41.66 41.403C41.56 41.403 41.46 41.403 41.35 41.403H41.04C40.94 41.403 40.84 41.413 40.73 41.413H40.42C40.32 41.413 40.22 41.413 40.11 41.423C40.01 41.423 39.91 41.423 39.8 41.423C39.7 41.423 39.59 41.423 39.49 41.423C39.39 41.423 39.29 41.423 39.18 41.423H38.87C38.77 41.423 38.66 41.423 38.56 41.423C38.46 41.423 38.36 41.423 38.25 41.423C38.14 41.423 38.05 41.423 37.94 41.423C37.84 41.423 37.73 41.423 37.63 41.423C37.53 41.423 37.43 41.423 37.32 41.423H37.01C36.91 41.423 36.8 41.423 36.7 41.423C36.6 41.423 36.49 41.423 36.39 41.423C36.29 41.423 36.19 41.423 36.08 41.423C35.98 41.423 35.88 41.423 35.77 41.423H35.46H35.15C35.05 41.423 34.95 41.423 34.84 41.423H34.53C34.43 41.423 34.32 41.423 34.22 41.423H33.3C33.2 41.423 33.1 41.423 32.99 41.423H32.68C32.58 41.423 32.48 41.423 32.37 41.423C32.27 41.423 32.17 41.423 32.06 41.423H31.75C31.65 41.423 31.55 41.423 31.44 41.423C31.34 41.423 31.23 41.423 31.13 41.423C31.03 41.423 30.92 41.423 30.82 41.423C30.72 41.423 30.62 41.423 30.51 41.423H30.2H29.89C29.79 41.423 29.69 41.423 29.58 41.423C29.48 41.423 29.38 41.423 29.27 41.423C29.17 41.423 29.06 41.423 28.96 41.423C28.86 41.423 28.76 41.423 28.65 41.423C28.55 41.423 28.45 41.423 28.34 41.423C28.24 41.423 28.14 41.423 28.03 41.423C27.93 41.423 27.82 41.423 27.72 41.423C27.62 41.423 27.52 41.423 27.41 41.423C27.31 41.423 27.21 41.423 27.1 41.423C27 41.423 26.9 41.423 26.79 41.423H26.48C26.38 41.423 26.28 41.423 26.17 41.413C26.07 41.413 25.97 41.413 25.86 41.413C25.76 41.413 25.66 41.413 25.55 41.413C25.45 41.413 25.34 41.413 25.24 41.413H24.93C24.83 41.413 24.73 41.403 24.62 41.403C24.52 41.403 24.41 41.403 24.31 41.403C24.21 41.403 24.1 41.403 24 41.403C23.9 41.403 23.8 41.403 23.69 41.403C23.59 41.403 23.49 41.403 23.38 41.403C23.28 41.403 23.18 41.403 23.07 41.403C22.97 41.403 22.87 41.403 22.76 41.403C22.66 41.403 22.56 41.403 22.45 41.403C22.35 41.403 22.25 41.403 22.14 41.393C22.04 41.393 21.94 41.393 21.83 41.383C21.73 41.383 21.63 41.383 21.52 41.383C21.42 41.383 21.32 41.383 21.21 41.373C21.11 41.373 21.01 41.373 20.9 41.363C20.8 41.363 20.7 41.363 20.59 41.353C20.49 41.353 20.39 41.353 20.28 41.343C20.18 41.343 20.08 41.343 19.97 41.333C19.87 41.333 19.77 41.333 19.66 41.323C19.56 41.323 19.46 41.323 19.35 41.313C19.25 41.313 19.15 41.313 19.04 41.303C18.94 41.303 18.84 41.303 18.73 41.293C18.63 41.293 18.53 41.293 18.42 41.283C18.32 41.283 18.22 41.283 18.11 41.273C18.01 41.273 17.91 41.273 17.8 41.263C17.7 41.263 17.6 41.263 17.5 41.253C17.4 41.253 17.3 41.253 17.19 41.243C17.09 41.243 16.99 41.243 16.88 41.233C16.78 41.233 16.68 41.223 16.58 41.223C16.48 41.223 16.38 41.213 16.27 41.203H15.97C15.87 41.183 15.77 41.183 15.67 41.173C15.57 41.173 15.47 41.163 15.36 41.153L15.45 41.133Z" stroke="#FF00FF" stroke-width="0.28" stroke-linecap="round" stroke-linejoin="round"/>
<path d="M50.8871 44.9189V50.0098H50.2706V45.5652H50.2408L48.9979 46.3904V45.764L50.2706 44.9189H50.8871ZM52.4879 50.0495C52.3653 50.0495 52.2601 50.0056 52.1722 49.9178C52.0844 49.83 52.0405 49.7247 52.0405 49.6021C52.0405 49.4795 52.0844 49.3742 52.1722 49.2864C52.2601 49.1986 52.3653 49.1547 52.4879 49.1547C52.6106 49.1547 52.7158 49.1986 52.8036 49.2864C52.8915 49.3742 52.9354 49.4795 52.9354 49.6021C52.9354 49.6833 52.9147 49.7579 52.8732 49.8258C52.8335 49.8938 52.7796 49.9484 52.7116 49.9899C52.6454 50.0297 52.5708 50.0495 52.4879 50.0495ZM54.0347 50.0098L56.3117 45.5055V45.4657H53.6867V44.9189H56.9481V45.4956L54.681 50.0098H54.0347ZM59.3972 50.0794C59.1055 50.0794 58.8429 50.0214 58.6092 49.9054C58.3755 49.7894 58.1883 49.6303 58.0474 49.4281C57.9065 49.2259 57.8295 48.9956 57.8162 48.737H58.4128C58.436 48.9674 58.5404 49.158 58.726 49.3088C58.9133 49.4579 59.137 49.5325 59.3972 49.5325C59.606 49.5325 59.7916 49.4836 59.954 49.3858C60.1181 49.2881 60.2465 49.1538 60.3393 48.9831C60.4338 48.8108 60.481 48.6161 60.481 48.399C60.481 48.1769 60.4321 47.9789 60.3343 47.8049C60.2382 47.6292 60.1056 47.4908 59.9366 47.3897C59.7676 47.2886 59.5745 47.2373 59.3574 47.2356C59.2016 47.234 59.0417 47.258 58.8777 47.3077C58.7136 47.3558 58.5785 47.4179 58.4725 47.4941L57.8958 47.4245L58.204 44.9189H60.8489V45.4657H58.7211L58.5421 46.9672H58.5719C58.6763 46.8843 58.8072 46.8155 58.9647 46.7608C59.1221 46.7061 59.2862 46.6788 59.4569 46.6788C59.7684 46.6788 60.046 46.7534 60.2896 46.9025C60.5349 47.05 60.7271 47.2522 60.8663 47.5091C61.0072 47.7659 61.0776 48.0592 61.0776 48.389C61.0776 48.7138 61.0047 49.0038 60.8588 49.2591C60.7147 49.5126 60.5158 49.7131 60.2623 49.8606C60.0087 50.0065 59.7203 50.0794 59.3972 50.0794ZM66.9074 46.1916C66.8776 45.9397 66.7566 45.7441 66.5445 45.6049C66.3324 45.4657 66.0722 45.3961 65.7639 45.3961C65.5386 45.3961 65.3414 45.4326 65.1723 45.5055C65.0049 45.5784 64.874 45.6787 64.7796 45.8063C64.6868 45.9339 64.6404 46.0789 64.6404 46.2413C64.6404 46.3772 64.6727 46.494 64.7373 46.5918C64.8036 46.6879 64.8881 46.7683 64.9909 46.8329C65.0936 46.8959 65.2013 46.9481 65.314 46.9895C65.4267 47.0293 65.5303 47.0616 65.6247 47.0865L66.1418 47.2257C66.2744 47.2605 66.4218 47.3085 66.5843 47.3699C66.7483 47.4312 66.9049 47.5149 67.0541 47.6209C67.2049 47.7253 67.3292 47.8596 67.4269 48.0236C67.5247 48.1877 67.5736 48.389 67.5736 48.6277C67.5736 48.9028 67.5015 49.1513 67.3573 49.3734C67.2148 49.5955 67.006 49.772 66.7309 49.9029C66.4575 50.0338 66.1252 50.0993 65.7341 50.0993C65.3695 50.0993 65.0538 50.0404 64.787 49.9228C64.5219 49.8051 64.3131 49.641 64.1606 49.4306C64.0098 49.2201 63.9244 48.9757 63.9046 48.6973H64.5409C64.5575 48.8895 64.6221 49.0486 64.7348 49.1745C64.8492 49.2988 64.9933 49.3916 65.1673 49.4529C65.343 49.5126 65.5319 49.5424 65.7341 49.5424C65.9694 49.5424 66.1807 49.5043 66.368 49.4281C66.5552 49.3502 66.7036 49.2425 66.8129 49.1049C66.9223 48.9657 66.977 48.8033 66.977 48.6177C66.977 48.4487 66.9298 48.3111 66.8353 48.2051C66.7409 48.099 66.6166 48.0128 66.4624 47.9466C66.3083 47.8803 66.1418 47.8223 65.9628 47.7725L65.3364 47.5936C64.9387 47.4792 64.6238 47.316 64.3918 47.1039C64.1598 46.8917 64.0438 46.6142 64.0438 46.2711C64.0438 45.9861 64.1208 45.7375 64.2749 45.5254C64.4307 45.3116 64.6395 45.1459 64.9014 45.0282C65.1649 44.9089 65.459 44.8493 65.7838 44.8493C66.1119 44.8493 66.4036 44.9081 66.6588 45.0257C66.914 45.1417 67.1162 45.3008 67.2654 45.503C67.4162 45.7052 67.4957 45.9347 67.504 46.1916H66.9074ZM70.1681 46.1916V46.6887H68.1895V46.1916H70.1681ZM68.7662 45.2768H69.3528V48.916C69.3528 49.0817 69.3768 49.206 69.4249 49.2889C69.4746 49.3701 69.5376 49.4248 69.6138 49.4529C69.6917 49.4795 69.7737 49.4927 69.8599 49.4927C69.9245 49.4927 69.9776 49.4894 70.019 49.4828C70.0604 49.4745 70.0936 49.4679 70.1184 49.4629L70.2377 49.9899C70.198 50.0048 70.1425 50.0197 70.0712 50.0346C69.9999 50.0512 69.9096 50.0595 69.8002 50.0595C69.6345 50.0595 69.4721 50.0239 69.313 49.9526C69.1556 49.8813 69.0247 49.7728 68.9203 49.627C68.8175 49.4811 68.7662 49.2972 68.7662 49.0751V45.2768ZM72.6104 50.0893C72.2425 50.0893 71.9252 50.0081 71.6584 49.8457C71.3932 49.6816 71.1886 49.4529 71.0444 49.1596C70.9019 48.8646 70.8306 48.5216 70.8306 48.1305C70.8306 47.7394 70.9019 47.3947 71.0444 47.0964C71.1886 46.7965 71.3891 46.5628 71.646 46.3954C71.9045 46.2264 72.2061 46.1419 72.5508 46.1419C72.7496 46.1419 72.946 46.175 73.1399 46.2413C73.3338 46.3076 73.5103 46.4153 73.6694 46.5645C73.8285 46.7119 73.9553 46.9075 74.0497 47.1511C74.1442 47.3947 74.1914 47.6947 74.1914 48.051V48.2995H71.2482V47.7924H73.5948C73.5948 47.577 73.5517 47.3848 73.4656 47.2157C73.381 47.0467 73.2601 46.9133 73.1026 46.8155C72.9469 46.7177 72.7629 46.6689 72.5508 46.6689C72.3171 46.6689 72.1149 46.7269 71.9442 46.8429C71.7752 46.9572 71.6451 47.1064 71.554 47.2903C71.4628 47.4743 71.4173 47.6715 71.4173 47.8819V48.22C71.4173 48.5083 71.467 48.7528 71.5664 48.9533C71.6675 49.1522 71.8075 49.3038 71.9865 49.4082C72.1655 49.5109 72.3735 49.5623 72.6104 49.5623C72.7646 49.5623 72.9038 49.5408 73.0281 49.4977C73.154 49.4529 73.2625 49.3867 73.3537 49.2988C73.4448 49.2093 73.5153 49.0983 73.565 48.9657L74.1317 49.1248C74.0721 49.3171 73.9718 49.4861 73.831 49.6319C73.6901 49.7761 73.5161 49.8888 73.3089 49.97C73.1018 50.0495 72.869 50.0893 72.6104 50.0893ZM75.0838 51.4416V46.1916H75.6506V46.7981H75.7202C75.7633 46.7318 75.8229 46.6473 75.8991 46.5446C75.977 46.4402 76.0881 46.3474 76.2322 46.2662C76.3781 46.1833 76.5753 46.1419 76.8239 46.1419C77.1454 46.1419 77.4287 46.2222 77.674 46.383C77.9193 46.5437 78.1107 46.7716 78.2482 47.0666C78.3858 47.3616 78.4545 47.7096 78.4545 48.1106C78.4545 48.515 78.3858 48.8655 78.2482 49.1621C78.1107 49.4571 77.9201 49.6858 77.6765 49.8482C77.4329 50.0089 77.152 50.0893 76.8338 50.0893C76.5885 50.0893 76.3922 50.0487 76.2447 49.9675C76.0972 49.8846 75.9837 49.791 75.9041 49.6866C75.8246 49.5806 75.7633 49.4927 75.7202 49.4231H75.6705V51.4416H75.0838ZM75.6605 48.1007C75.6605 48.389 75.7028 48.6434 75.7873 48.8638C75.8718 49.0826 75.9953 49.2541 76.1577 49.3784C76.3201 49.501 76.5189 49.5623 76.7543 49.5623C76.9995 49.5623 77.2042 49.4977 77.3683 49.3684C77.534 49.2375 77.6583 49.0618 77.7411 48.8414C77.8256 48.6194 77.8679 48.3725 77.8679 48.1007C77.8679 47.8322 77.8265 47.5903 77.7436 47.3748C77.6624 47.1577 77.5389 46.9862 77.3732 46.8603C77.2092 46.7327 77.0028 46.6689 76.7543 46.6689C76.5156 46.6689 76.3151 46.7293 76.1527 46.8503C75.9903 46.9696 75.8677 47.137 75.7848 47.3525C75.7019 47.5662 75.6605 47.8156 75.6605 48.1007ZM79.3494 51.4416V46.1916H79.9162V46.7981H79.9858C80.0289 46.7318 80.0885 46.6473 80.1648 46.5446C80.2427 46.4402 80.3537 46.3474 80.4979 46.2662C80.6437 46.1833 80.8409 46.1419 81.0895 46.1419C81.411 46.1419 81.6944 46.2222 81.9396 46.383C82.1849 46.5437 82.3763 46.7716 82.5138 47.0666C82.6514 47.3616 82.7202 47.7096 82.7202 48.1106C82.7202 48.515 82.6514 48.8655 82.5138 49.1621C82.3763 49.4571 82.1857 49.6858 81.9421 49.8482C81.6985 50.0089 81.4176 50.0893 81.0994 50.0893C80.8542 50.0893 80.6578 50.0487 80.5103 49.9675C80.3628 49.8846 80.2493 49.791 80.1697 49.6866C80.0902 49.5806 80.0289 49.4927 79.9858 49.4231H79.9361V51.4416H79.3494ZM79.9261 48.1007C79.9261 48.389 79.9684 48.6434 80.0529 48.8638C80.1374 49.0826 80.2609 49.2541 80.4233 49.3784C80.5857 49.501 80.7846 49.5623 81.0199 49.5623C81.2652 49.5623 81.4698 49.4977 81.6339 49.3684C81.7996 49.2375 81.9239 49.0618 82.0067 48.8414C82.0913 48.6194 82.1335 48.3725 82.1335 48.1007C82.1335 47.8322 82.0921 47.5903 82.0092 47.3748C81.928 47.1577 81.8046 46.9862 81.6388 46.8603C81.4748 46.7327 81.2685 46.6689 81.0199 46.6689C80.7813 46.6689 80.5807 46.7293 80.4183 46.8503C80.2559 46.9696 80.1333 47.137 80.0504 47.3525C79.9676 47.5662 79.9261 47.8156 79.9261 48.1007ZM85.2159 50.0893C84.848 50.0893 84.5307 50.0081 84.2638 49.8457C83.9987 49.6816 83.794 49.4529 83.6499 49.1596C83.5073 48.8646 83.4361 48.5216 83.4361 48.1305C83.4361 47.7394 83.5073 47.3947 83.6499 47.0964C83.794 46.7965 83.9946 46.5628 84.2514 46.3954C84.5099 46.2264 84.8116 46.1419 85.1562 46.1419C85.3551 46.1419 85.5515 46.175 85.7454 46.2413C85.9393 46.3076 86.1158 46.4153 86.2749 46.5645C86.4339 46.7119 86.5607 46.9075 86.6552 47.1511C86.7496 47.3947 86.7969 47.6947 86.7969 48.051V48.2995H83.8537V47.7924H86.2003C86.2003 47.577 86.1572 47.3848 86.071 47.2157C85.9865 47.0467 85.8655 46.9133 85.7081 46.8155C85.5523 46.7177 85.3684 46.6689 85.1562 46.6689C84.9226 46.6689 84.7204 46.7269 84.5497 46.8429C84.3807 46.9572 84.2506 47.1064 84.1594 47.2903C84.0683 47.4743 84.0227 47.6715 84.0227 47.8819V48.22C84.0227 48.5083 84.0724 48.7528 84.1719 48.9533C84.273 49.1522 84.413 49.3038 84.592 49.4082C84.771 49.5109 84.9789 49.5623 85.2159 49.5623C85.37 49.5623 85.5092 49.5408 85.6335 49.4977C85.7595 49.4529 85.868 49.3867 85.9592 49.2988C86.0503 49.2093 86.1207 49.0983 86.1705 48.9657L86.7372 49.1248C86.6776 49.3171 86.5773 49.4861 86.4364 49.6319C86.2956 49.7761 86.1216 49.8888 85.9144 49.97C85.7073 50.0495 85.4744 50.0893 85.2159 50.0893ZM89.131 50.0893C88.8129 50.0893 88.532 50.0089 88.2884 49.8482C88.0447 49.6858 87.8542 49.4571 87.7166 49.1621C87.5791 48.8655 87.5103 48.515 87.5103 48.1106C87.5103 47.7096 87.5791 47.3616 87.7166 47.0666C87.8542 46.7716 88.0456 46.5437 88.2908 46.383C88.5361 46.2222 88.8195 46.1419 89.141 46.1419C89.3896 46.1419 89.5859 46.1833 89.7301 46.2662C89.8759 46.3474 89.987 46.4402 90.0632 46.5446C90.1411 46.6473 90.2016 46.7318 90.2447 46.7981H90.2944V44.9189H90.881V50.0098H90.3143V49.4231H90.2447C90.2016 49.4927 90.1403 49.5806 90.0607 49.6866C89.9812 49.791 89.8677 49.8846 89.7202 49.9675C89.5727 50.0487 89.3763 50.0893 89.131 50.0893ZM89.2106 49.5623C89.4459 49.5623 89.6448 49.501 89.8072 49.3784C89.9696 49.2541 90.093 49.0826 90.1776 48.8638C90.2621 48.6434 90.3043 48.389 90.3043 48.1007C90.3043 47.8156 90.2629 47.5662 90.18 47.3525C90.0972 47.137 89.9746 46.9696 89.8121 46.8503C89.6497 46.7293 89.4492 46.6689 89.2106 46.6689C88.962 46.6689 88.7549 46.7327 88.5891 46.8603C88.4251 46.9862 88.3016 47.1577 88.2188 47.3748C88.1375 47.5903 88.0969 47.8322 88.0969 48.1007C88.0969 48.3725 88.1384 48.6194 88.2212 48.8414C88.3058 49.0618 88.43 49.2375 88.5941 49.3684C88.7598 49.4977 88.9653 49.5623 89.2106 49.5623Z" fill="#0000FF"/>
<path fill-rule="evenodd" clip-rule="evenodd" d="M21.6846 13.9939C21.2734 13.5828 20.6067 13.5828 20.1955 13.9939L14.8025 19.3868C14.3422 19.8472 14.2047 20.5397 14.4536 21.1412C14.7028 21.7426 15.2897 22.135 15.9409 22.135H17.1905C17.2679 22.135 17.3305 22.1977 17.3305 22.275V25.3643C17.3305 26.2534 18.0513 26.9742 18.9404 26.9742H22.9394C23.8286 26.9742 24.5493 26.2534 24.5493 25.3643V22.275C24.5493 22.1977 24.612 22.135 24.6893 22.135H25.9389C26.5902 22.135 27.1771 21.7425 27.4263 21.1411C27.6738 20.5435 27.5394 19.8568 27.0869 19.3965L27.0774 19.3867L21.6846 13.9939ZM21.039 15.3566L26.0661 20.3837L26.0731 20.3907C26.1275 20.4452 26.1437 20.5269 26.1143 20.5978C26.0849 20.6688 26.0156 20.715 25.9389 20.715H24.0094C23.5234 20.715 23.1293 21.1091 23.1293 21.5951V25.3643C23.1293 25.4691 23.0443 25.5542 22.9394 25.5542H18.9404C18.8356 25.5542 18.7505 25.4691 18.7505 25.3643V21.5951C18.7505 21.1087 18.3562 20.715 17.8704 20.715H15.9409C15.8642 20.715 15.795 20.669 15.7656 20.598C15.7361 20.5268 15.7525 20.4451 15.8068 20.3907L20.841 15.3566C20.8957 15.3019 20.9843 15.3019 21.039 15.3566ZM18.0362 28.3942C17.6441 28.3942 17.3262 28.7121 17.3262 29.1042C17.3262 29.4963 17.6441 29.8142 18.0362 29.8142H23.8362C24.2283 29.8142 24.5462 29.4963 24.5462 29.1042C24.5462 28.7121 24.2283 28.3942 23.8362 28.3942H18.0362Z" fill="black"/>
<path d="M33.5511 25.8682C31.5149 25.8682 30.26 24.4863 30.26 22.2256C30.26 19.9649 31.5345 18.5879 33.5267 18.5879C34.8304 18.5879 35.8607 19.1983 36.3246 20.2285C36.4027 20.3896 36.4418 20.5557 36.4418 20.7021C36.4418 21.039 36.2221 21.2539 35.8852 21.2539C35.5971 21.2539 35.4067 21.1172 35.27 20.8096C34.9428 20.0528 34.3032 19.6572 33.5366 19.6572C32.3256 19.6572 31.5493 20.6533 31.5493 22.2256C31.5493 23.7979 32.3208 24.7989 33.5415 24.7989C34.3472 24.7989 34.9673 24.4473 35.2896 23.7051C35.4166 23.417 35.5777 23.2998 35.8511 23.2998C36.1978 23.2998 36.437 23.5293 36.437 23.8613C36.437 24.0224 36.3979 24.1689 36.3198 24.3349C35.8706 25.2919 34.8696 25.8681 33.5512 25.8681L33.5511 25.8682Z" fill="black"/>
<path d="M40.719 23.8327C40.719 24.4576 40.1625 24.9165 39.4789 24.9165C38.9517 24.9165 38.5952 24.648 38.5952 24.2233C38.5952 23.7986 38.9321 23.5496 39.5179 23.5105L40.6663 23.4405C40.6948 23.4388 40.7189 23.4614 40.7189 23.49V23.8328L40.719 23.8327ZM39.8011 20.4688C38.81 20.4688 38.2384 20.809 37.9461 21.1364C37.7768 21.3261 37.7551 21.7255 37.9873 21.9112C38.2587 22.1282 38.7133 21.9658 38.8695 21.7738C39.0097 21.6014 39.3245 21.4263 39.7521 21.4207C40.3525 21.4128 40.7188 21.7332 40.7188 22.2751V22.4777C40.7188 22.504 40.6983 22.5258 40.672 22.5273L39.3468 22.6027C38.0874 22.6808 37.3795 23.3542 37.3795 24.2719C37.3795 25.1897 38.1094 25.8342 39.1078 25.8342C39.7396 25.8342 40.3555 25.6692 40.6619 25.5439C40.7262 25.5176 40.7999 25.5424 40.8361 25.6017C40.8389 25.6062 40.8413 25.61 40.8433 25.6129C40.9247 25.7288 41.0712 25.8488 41.3292 25.8488C41.671 25.8488 41.9199 25.6291 41.9199 25.2386V22.1873C41.9199 21.1474 41.0851 20.4688 39.8011 20.4688Z" fill="black"/>
<path d="M45.5715 24.8377C44.8145 24.8377 44.3115 24.1784 44.3066 23.1626C44.3115 22.1566 44.7853 21.4875 45.5715 21.4875C46.3577 21.4875 46.8461 22.1419 46.8461 23.1626C46.8461 24.1882 46.3285 24.8377 45.5715 24.8377ZM48.0914 23.1625C48.0914 21.5069 47.2563 20.4863 45.9425 20.4863C45.4565 20.4863 44.6864 20.7303 44.3855 20.8323C44.318 20.8552 44.2433 20.8255 44.2116 20.7615C44.2036 20.7452 44.1953 20.729 44.1849 20.7142C44.0656 20.5437 43.8899 20.4717 43.6912 20.4717C43.3444 20.4717 43.1003 20.6963 43.1003 21.0968V26.9525C43.1003 27.3628 43.3493 27.5923 43.7059 27.5923C44.0625 27.5923 44.3164 27.3628 44.3164 26.9525V25.5943C44.3164 25.4916 44.4223 25.4227 44.5159 25.4649C44.8778 25.6278 45.4805 25.834 45.9622 25.834C47.2612 25.834 48.0915 24.8133 48.0915 23.1626L48.0914 23.1625Z" fill="black"/>
<path d="M51.0701 25.8535C49.9763 25.8535 49.2097 25.4336 48.9607 24.8135C48.9265 24.7256 48.9119 24.6475 48.9119 24.5742C48.9119 24.2812 49.1267 24.0957 49.4197 24.0957C49.6199 24.0957 49.7908 24.1885 49.947 24.3936C50.2204 24.7891 50.5329 24.9465 51.114 24.9465C51.6951 24.9465 52.0564 24.7256 52.0564 24.335C52.0564 24.0225 51.8611 23.8516 51.3289 23.7295L50.489 23.5391C49.4782 23.3096 48.9802 22.8116 48.9802 22.0596C48.9802 21.0977 49.8103 20.4678 51.0896 20.4678C52.0857 20.4678 52.8572 20.9561 53.0183 21.5518C53.0329 21.6153 53.0427 21.6739 53.0427 21.7325C53.0427 21.9864 52.8816 22.1671 52.5739 22.1671C52.3981 22.1671 52.2223 22.1036 52.11 21.9425C51.8707 21.5861 51.5729 21.3749 51.0602 21.3749C50.5475 21.3749 50.1618 21.6202 50.1618 21.9913C50.1618 22.294 50.3864 22.4991 50.9235 22.6212L51.7487 22.8019C52.8425 23.0509 53.277 23.4464 53.277 24.213C53.277 25.2042 52.3883 25.8536 51.0699 25.8536H51.0701V25.8535Z" fill="black"/>
</svg>
