<svg width="122" height="54" viewBox="0 0 122 54" fill="none" xmlns="http://www.w3.org/2000/svg">
<rect x="1.85" y="1.84961" width="117.8" height="50.3" rx="3" stroke="#8B1EFF" stroke-width="0.28"/>
<path d="M109.846 40.8599C109.367 41.3589 108.792 41.7659 108.162 42.0549C107.534 42.3426 106.856 42.5136 106.173 42.5666C91.0347 43.0285 75.8917 43.2595 60.7468 43.2595C45.6019 43.2597 30.4589 43.0286 15.321 42.5666C14.6386 42.5131 13.9586 42.334 13.3347 42.048C13.0193 41.904 12.7173 41.733 12.4353 41.5339C12.152 41.3351 11.887 41.1091 11.6481 40.8591C11.4084 40.6087 11.1934 40.3366 11.0065 40.0456C10.821 39.7556 10.662 39.4496 10.531 39.1306C10.2715 38.4999 10.1185 37.8189 10.0886 37.1398L10.073 7.25555C10.0992 6.52521 10.2833 5.79327 10.5983 5.12616C10.912 4.46405 11.3561 3.8631 11.9021 3.38104C12.4451 2.90216 13.0891 2.53912 13.7741 2.2951C14.459 2.05121 15.183 1.92719 15.904 1.9201C45.7996 1.8222 75.6935 1.8222 105.59 1.9201C105.951 1.92523 106.314 1.95831 106.671 2.0202C107.027 2.08173 107.378 2.17072 107.719 2.29169C108.403 2.53363 109.046 2.90155 109.591 3.38153C110.139 3.86481 110.586 4.46173 110.899 5.12469C111.214 5.79156 111.395 6.5246 111.421 7.25555L111.405 37.1398C111.374 37.8195 111.229 38.5005 110.967 39.1326C110.703 39.7717 110.323 40.3616 109.846 40.8599Z" stroke="#8B1EFF" stroke-width="0.283" stroke-miterlimit="10"/>
<path d="M11.2351 6.23291V38.5249C11.2351 39.699 12.1871 40.651 13.3611 40.651L108.131 40.6509C109.305 40.6509 110.257 39.699 110.257 38.5249V6.2334C110.257 5.05945 109.305 4.10742 108.131 4.10742H101.753H13.361C12.187 4.10742 11.2349 5.05945 11.2351 6.23291Z" stroke="#00FFFF" stroke-width="0.28" stroke-miterlimit="10"/>
<path d="M15.1 41.2702C12.68 41.2702 10.73 39.2102 10.73 36.6802V7.62023C10.73 5.20023 12.97 3.24023 15.74 3.24023H105.79C108.54 3.24023 110.76 5.15023 110.76 7.51023L110.69 36.6902C110.69 39.2302 108.73 41.2802 106.31 41.2802C75.95 42.2402 45.48 42.2402 15.12 41.2802H15.09L15.1 41.2702Z" stroke="#FF00FF" stroke-width="0.28" stroke-linecap="round" stroke-linejoin="round"/>
<path d="M104.374 50.0098V49.5623L106.054 47.7228C106.252 47.5074 106.414 47.3201 106.542 47.161C106.669 47.0003 106.764 46.8495 106.825 46.7086C106.888 46.5661 106.919 46.417 106.919 46.2612C106.919 46.0822 106.876 45.9273 106.79 45.7963C106.706 45.6654 106.59 45.5643 106.442 45.4931C106.295 45.4218 106.129 45.3862 105.945 45.3862C105.749 45.3862 105.579 45.4268 105.433 45.508C105.289 45.5875 105.177 45.6994 105.097 45.8436C105.019 45.9877 104.98 46.1568 104.98 46.3507H104.394C104.394 46.0524 104.463 45.7905 104.6 45.5652C104.738 45.3398 104.925 45.1641 105.162 45.0382C105.401 44.9122 105.668 44.8493 105.965 44.8493C106.263 44.8493 106.527 44.9122 106.758 45.0382C106.988 45.1641 107.169 45.334 107.3 45.5478C107.431 45.7615 107.496 45.9993 107.496 46.2612C107.496 46.4484 107.462 46.6316 107.394 46.8105C107.328 46.9879 107.212 47.1859 107.046 47.4047C106.882 47.6217 106.654 47.8869 106.363 48.2001L105.219 49.4231V49.4629H107.586V50.0098H104.374ZM109.05 50.0495C108.927 50.0495 108.822 50.0056 108.734 49.9178C108.646 49.83 108.602 49.7247 108.602 49.6021C108.602 49.4795 108.646 49.3742 108.734 49.2864C108.822 49.1986 108.927 49.1547 109.05 49.1547C109.172 49.1547 109.278 49.1986 109.365 49.2864C109.453 49.3742 109.497 49.4795 109.497 49.6021C109.497 49.6833 109.476 49.7579 109.435 49.8258C109.395 49.8938 109.341 49.9484 109.273 49.9899C109.207 50.0297 109.133 50.0495 109.05 50.0495ZM110.54 50.0098V49.5623L112.22 47.7228C112.418 47.5074 112.58 47.3201 112.708 47.161C112.835 47.0003 112.93 46.8495 112.991 46.7086C113.054 46.5661 113.085 46.417 113.085 46.2612C113.085 46.0822 113.042 45.9273 112.956 45.7963C112.872 45.6654 112.756 45.5643 112.608 45.4931C112.461 45.4218 112.295 45.3862 112.111 45.3862C111.915 45.3862 111.745 45.4268 111.599 45.508C111.455 45.5875 111.343 45.6994 111.263 45.8436C111.185 45.9877 111.146 46.1568 111.146 46.3507H110.56C110.56 46.0524 110.629 45.7905 110.766 45.5652C110.904 45.3398 111.091 45.1641 111.328 45.0382C111.567 44.9122 111.834 44.8493 112.131 44.8493C112.429 44.8493 112.693 44.9122 112.924 45.0382C113.154 45.1641 113.335 45.334 113.466 45.5478C113.597 45.7615 113.662 45.9993 113.662 46.2612C113.662 46.4484 113.628 46.6316 113.56 46.8105C113.494 46.9879 113.378 47.1859 113.212 47.4047C113.048 47.6217 112.82 47.8869 112.529 48.2001L111.385 49.4231V49.4629H113.752V50.0098H110.54ZM116.369 50.0794C116.077 50.0794 115.815 50.0214 115.581 49.9054C115.347 49.7894 115.16 49.6303 115.019 49.4281C114.878 49.2259 114.801 48.9956 114.788 48.737H115.385C115.408 48.9674 115.512 49.158 115.698 49.3088C115.885 49.4579 116.109 49.5325 116.369 49.5325C116.578 49.5325 116.764 49.4836 116.926 49.3858C117.09 49.2881 117.218 49.1538 117.311 48.9831C117.406 48.8108 117.453 48.6161 117.453 48.399C117.453 48.1769 117.404 47.9789 117.306 47.8049C117.21 47.6292 117.078 47.4908 116.909 47.3897C116.74 47.2886 116.546 47.2373 116.329 47.2356C116.174 47.234 116.014 47.258 115.85 47.3077C115.686 47.3558 115.55 47.4179 115.444 47.4941L114.868 47.4245L115.176 44.9189H117.821V45.4657H115.693L115.514 46.9672H115.544C115.648 46.8843 115.779 46.8155 115.937 46.7608C116.094 46.7061 116.258 46.6788 116.429 46.6788C116.74 46.6788 117.018 46.7534 117.262 46.9025C117.507 47.05 117.699 47.2522 117.838 47.5091C117.979 47.7659 118.05 48.0592 118.05 48.389C118.05 48.7138 117.977 49.0038 117.831 49.2591C117.687 49.5126 117.488 49.7131 117.234 49.8606C116.981 50.0065 116.692 50.0794 116.369 50.0794Z" fill="#0000FF"/>
<path d="M17.2501 25.7501C16.8595 25.7501 16.6202 25.506 16.6202 25.0958V19.3584C16.6202 18.9482 16.8595 18.7041 17.2501 18.7041H20.6828C21.0295 18.7041 21.259 18.9092 21.259 19.2363C21.259 19.5634 21.0295 19.7685 20.6828 19.7685H18.0218C17.9435 19.7685 17.8801 19.832 17.8801 19.9102V21.5311C17.8801 21.6094 17.9436 21.6728 18.0218 21.6728H20.5363C20.8586 21.6728 21.0783 21.8632 21.0783 22.1709C21.0783 22.4786 20.8635 22.6738 20.5363 22.6738H18.0218C17.9435 22.6738 17.8801 22.7373 17.8801 22.8155V24.5438C17.8801 24.6221 17.9436 24.6855 18.0218 24.6855H20.6828C21.0295 24.6855 21.259 24.8906 21.259 25.2177C21.259 25.5448 21.0295 25.7499 20.6828 25.7499H17.2501V25.7501Z" fill="black"/>
<path d="M34.8612 22.548H32.772C32.6814 22.548 32.6146 22.4642 32.6336 22.3756C32.7702 21.7369 33.2418 21.4093 33.8362 21.4093C34.4306 21.4093 34.8847 21.7241 35.0009 22.3824C35.0162 22.4689 34.9491 22.548 34.8612 22.548ZM33.8314 20.4668C32.3372 20.4668 31.3851 21.5312 31.3851 23.1817C31.3851 24.8322 32.3177 25.8526 33.8998 25.8526C34.7 25.8526 35.286 25.6748 35.7857 25.1198C36.0094 24.8714 35.9495 24.5007 35.6534 24.3422C35.404 24.2086 35.1203 24.3367 34.981 24.4661C34.5383 24.8775 34.2135 24.9151 33.8901 24.9151C33.1439 24.9151 32.6539 24.4304 32.6009 23.6069C32.5956 23.5248 32.66 23.4551 32.7423 23.4551H35.6965C35.9777 23.4551 36.2071 23.2303 36.2135 22.9492C36.2462 21.5063 35.271 20.4668 33.8314 20.4668Z" fill="black"/>
<path d="M22.351 25.2082V21.0861C22.351 20.71 22.5708 20.4707 22.9322 20.4707C23.139 20.4707 23.308 20.5512 23.4135 20.6922C23.4391 20.7264 23.4609 20.7651 23.4786 20.8016C23.513 20.8723 23.5975 20.9024 23.6682 20.8681C23.9344 20.7391 24.5537 20.4756 25.1691 20.4756C26.312 20.4756 26.9616 21.2082 26.9616 22.4048V25.2083C26.9616 25.6186 26.7125 25.8481 26.356 25.8481C25.9995 25.8481 25.7455 25.6185 25.7455 25.2083V22.6491C25.7455 21.9165 25.4036 21.5062 24.7101 21.5062C24.0166 21.5062 23.5672 22.0093 23.5672 22.7516V25.2083C23.5672 25.6186 23.3132 25.8481 22.9567 25.8481C22.6002 25.8481 22.351 25.6185 22.351 25.2082Z" fill="black"/>
<path d="M37.1996 25.2073V21.0851C37.1996 20.7041 37.434 20.4697 37.7808 20.4697C38.0144 20.4697 38.201 20.5823 38.2936 20.7782C38.2955 20.7822 38.3019 20.7983 38.3104 20.8201C38.3445 20.9076 38.4528 20.9386 38.5277 20.8819C38.7301 20.7288 39.1124 20.4844 39.4903 20.4844C39.6808 20.4844 39.8273 20.5332 39.9201 20.6163C40.0324 20.7091 40.091 20.8556 40.091 21.0559C40.091 21.2562 40.0324 21.388 39.9103 21.4857C39.7931 21.5883 39.6124 21.642 39.373 21.6469C38.6794 21.6518 38.4157 22.0865 38.4157 22.7165V25.2074C38.4157 25.6079 38.1715 25.8472 37.8052 25.8472C37.4389 25.8472 37.1996 25.6078 37.1996 25.2073Z" fill="black"/>
<path d="M28.4751 24.4705V21.6542C28.4751 21.5759 28.4116 21.5125 28.3334 21.5125H28.148C27.8453 21.5125 27.6596 21.3416 27.6596 21.0486C27.6596 20.7556 27.8451 20.5896 28.148 20.5896H28.3334C28.4117 20.5896 28.4751 20.5261 28.4751 20.4479V19.8849C28.4751 19.4942 28.7095 19.25 29.0856 19.25C29.4617 19.25 29.6912 19.4941 29.6912 19.8849V20.4479C29.6912 20.5262 29.7547 20.5896 29.8329 20.5896H30.2528C30.5555 20.5896 30.7412 20.7604 30.7412 21.0486C30.7412 21.3368 30.5557 21.5125 30.2528 21.5125H29.8329C29.7546 21.5125 29.6912 21.576 29.6912 21.6542V24.2068C29.6912 24.5975 29.8279 24.7684 30.1796 24.7977L30.2675 24.8075C30.5898 24.8368 30.7559 24.9735 30.7559 25.2568C30.7559 25.6132 30.4434 25.8038 29.8867 25.8038H29.8379C28.9345 25.8038 28.4754 25.3545 28.4754 24.4706H28.4752L28.4751 24.4705Z" fill="black"/>
</svg>
