<svg width="81" height="54" viewBox="0 0 81 54" fill="none" xmlns="http://www.w3.org/2000/svg">
<rect x="1.8501" y="1.84998" width="77.3" height="50.3" rx="3" stroke="#8B1EFF" stroke-width="0.28"/>
<path d="M71.0066 37.0028C71.0846 27.0808 71.1916 17.1588 71.3296 7.23671C71.3196 6.87971 71.2786 6.52272 71.2033 6.17207C71.1303 5.82307 71.0243 5.48207 70.8845 5.15388C70.7465 4.82887 70.5755 4.51692 70.3758 4.22517C70.1758 3.9352 69.9478 3.66518 69.6946 3.42085C69.4416 3.17787 69.1646 2.96083 68.8691 2.77419C68.5731 2.58717 68.2581 2.42921 67.9323 2.30348C67.6063 2.17751 67.2673 2.08156 66.9235 2.01747C66.5775 1.95351 66.2275 1.91945 65.8743 1.91591C48.9603 1.82497 32.0453 1.82497 15.1315 1.91554C14.7935 1.92165 14.4565 1.95461 14.1239 2.01491C13.7919 2.07387 13.4639 2.15981 13.1493 2.27443C12.9003 2.36745 12.6573 2.47841 12.4243 2.605C12.1923 2.73305 11.9683 2.87807 11.7566 3.03871C11.5456 3.20064 11.3466 3.37862 11.1627 3.57118C10.9777 3.76521 10.8097 3.9742 10.6584 4.19405C10.5064 4.41499 10.3714 4.64803 10.2536 4.8885C10.1356 5.13155 10.0356 5.38155 9.95221 5.63875C9.78619 6.15474 9.69119 6.69673 9.67749 7.23628C9.81149 17.1583 9.91852 27.0803 9.99991 37.0014C10.0249 37.6633 10.1749 38.3273 10.4398 38.9409C10.7088 39.5659 11.0948 40.1389 11.5707 40.6232C12.0497 41.1112 12.6177 41.5102 13.2406 41.796C13.8576 42.081 14.5286 42.254 15.2024 42.3052C23.6314 42.6482 32.0664 42.8192 40.5032 42.819C48.9392 42.819 57.3742 42.648 65.8041 42.3048C66.4781 42.2537 67.1481 42.0808 67.766 41.7969C68.388 41.5099 68.957 41.1109 69.4359 40.6233C69.9109 40.1383 70.2969 39.5663 70.5673 38.9408C70.8303 38.3278 70.9823 37.6638 71.0063 37.0008" stroke="#8B1EFF" stroke-width="0.283" stroke-miterlimit="10"/>
<path d="M11.2583 38.7131V6.44019C11.2583 5.26575 12.2093 4.31372 13.3843 4.31372H16.9273H64.1312H67.6743C68.8483 4.31372 69.8003 5.26575 69.8003 6.4397V38.7127C69.8003 39.8871 68.8483 40.8391 67.6743 40.8391L13.3843 40.8392C12.2093 40.8392 11.2583 39.8871 11.2583 38.7131Z" stroke="#00FFFF" stroke-width="0.28" stroke-miterlimit="10"/>
<path d="M65.6807 41.1328C48.9367 41.8178 32.0697 41.8178 15.3267 41.1328C15.0306 41.1201 14.7386 41.0831 14.4496 41.0181C14.3046 40.9861 14.1626 40.9471 14.0226 40.9021C13.8836 40.8561 13.7456 40.8051 13.6106 40.746C13.4756 40.6881 13.3446 40.6231 13.2156 40.5521C13.1506 40.5161 13.0866 40.478 13.0226 40.4391C12.9606 40.4001 12.8986 40.3601 12.8386 40.3181C12.5966 40.1501 12.3726 39.9611 12.1696 39.7491C12.1186 39.6961 12.0686 39.642 12.0196 39.5861C11.9716 39.5311 11.9246 39.4731 11.8786 39.4151C11.7876 39.3001 11.7026 39.1801 11.6246 39.0571C11.4686 38.8111 11.3376 38.5521 11.2306 38.28C11.2046 38.2111 11.1796 38.142 11.1566 38.0731C11.1336 38.0031 11.1116 37.9331 11.0916 37.8631C11.0526 37.7231 11.0186 37.582 10.9926 37.4401C10.9396 37.1561 10.9136 36.8691 10.9126 36.577C10.8965 31.7905 10.8785 27.0025 10.8585 22.2155C10.8385 17.4285 10.8155 12.6415 10.7905 7.85347C10.7817 7.69789 10.7757 7.54189 10.7767 7.38692C10.7777 7.23091 10.7867 7.07692 10.8037 6.92293C10.8107 6.8459 10.8217 6.76888 10.8337 6.69191C10.8457 6.61488 10.8597 6.53889 10.8757 6.46193C10.9077 6.31093 10.9477 6.16188 10.9957 6.01491C11.0427 5.86891 11.0977 5.72591 11.1627 5.58492C11.1937 5.51491 11.2277 5.44588 11.2637 5.37691C11.3007 5.30891 11.3387 5.24092 11.3787 5.1739C11.5377 4.90889 11.7247 4.66689 11.9397 4.44691C11.9937 4.39192 12.0497 4.33791 12.1067 4.28688C12.1357 4.2599 12.1647 4.23488 12.1937 4.20888C12.2237 4.18391 12.2537 4.15889 12.2837 4.13393C12.4047 4.03688 12.5307 3.94588 12.6607 3.86293C12.9207 3.69691 13.1987 3.55989 13.4927 3.44893C13.7867 3.33888 14.0877 3.2599 14.3927 3.20692C14.6987 3.15388 15.0107 3.12691 15.3257 3.12587C32.0702 3.03389 48.9372 3.03389 65.6802 3.12587C65.9963 3.12697 66.3083 3.15395 66.6133 3.20692C66.9193 3.25996 67.2203 3.33894 67.5143 3.44893C67.8083 3.55995 68.0853 3.69698 68.3463 3.86293C68.4763 3.94594 68.6013 4.03596 68.7223 4.13393C68.7523 4.15895 68.7823 4.18398 68.8123 4.20894C68.8413 4.23396 68.8703 4.25996 68.9003 4.28596C68.9563 4.33797 69.0123 4.39192 69.0663 4.44698C69.2803 4.66597 69.4683 4.90895 69.6283 5.17397C69.6683 5.23994 69.7063 5.30794 69.7423 5.37697C69.7793 5.44496 69.8123 5.51497 69.8443 5.58498C69.9073 5.72493 69.9633 5.86897 70.0113 6.01497C70.0593 6.16096 70.0993 6.30995 70.1303 6.46193C70.1473 6.53798 70.1603 6.61494 70.1733 6.69093C70.1853 6.76796 70.1953 6.84492 70.2033 6.92195C70.2203 7.07594 70.2283 7.23097 70.2303 7.38594C70.2313 7.54097 70.2253 7.69698 70.2163 7.85292C70.1912 12.6401 70.1682 17.4281 70.1482 22.215C70.1272 27.0021 70.1102 31.7901 70.0942 36.5768C70.0932 36.8688 70.0662 37.1588 70.0132 37.4458C69.9862 37.5908 69.9522 37.7328 69.9122 37.8718C69.8722 38.0118 69.8262 38.1498 69.7732 38.2848C69.7202 38.4198 69.6602 38.5528 69.5942 38.6838C69.5612 38.7498 69.5262 38.8148 69.4902 38.8788C69.4522 38.9428 69.4142 39.0058 69.3752 39.0668C69.2172 39.3138 69.0362 39.5428 68.8322 39.7548C68.7822 39.8068 68.7292 39.8588 68.6752 39.9088C68.6212 39.9598 68.5662 40.0088 68.5092 40.0568C68.3962 40.1528 68.2802 40.2418 68.1592 40.3238C67.9172 40.4898 67.6612 40.6318 67.3902 40.7488C67.3232 40.7778 67.2532 40.8058 67.1842 40.8318C67.1152 40.8578 67.0452 40.8818 66.9752 40.9038C66.8352 40.9498 66.6942 40.9878 66.5512 41.0198C66.2662 41.0828 65.9752 41.1208 65.6807 41.1328Z" stroke="#FF00FF" stroke-width="0.283465" stroke-miterlimit="10" stroke-linecap="round" stroke-linejoin="round"/>
<path d="M66.4147 44.9191V50.01H65.7982V45.5654H65.7684L64.5255 46.3907V45.7643L65.7982 44.9191H66.4147ZM68.0155 50.0498C67.8929 50.0498 67.7876 50.0059 67.6998 49.918C67.612 49.8302 67.5681 49.725 67.5681 49.6023C67.5681 49.4797 67.612 49.3745 67.6998 49.2866C67.7876 49.1988 67.8929 49.1549 68.0155 49.1549C68.1381 49.1549 68.2434 49.1988 68.3312 49.2866C68.419 49.3745 68.463 49.4797 68.463 49.6023C68.463 49.6835 68.4422 49.7581 68.4008 49.8261C68.361 49.894 68.3072 49.9487 68.2392 49.9901C68.1729 50.0299 68.0984 50.0498 68.0155 50.0498ZM70.9941 50.0796C70.7025 50.0796 70.4398 50.0216 70.2061 49.9056C69.9725 49.7896 69.7852 49.6305 69.6443 49.4283C69.5035 49.2262 69.4264 48.9958 69.4132 48.7373H70.0097C70.0329 48.9676 70.1373 49.1582 70.323 49.309C70.5102 49.4582 70.7339 49.5327 70.9941 49.5327C71.2029 49.5327 71.3885 49.4838 71.5509 49.3861C71.715 49.2883 71.8434 49.1541 71.9362 48.9834C72.0307 48.811 72.0779 48.6163 72.0779 48.3992C72.0779 48.1771 72.029 47.9791 71.9313 47.8051C71.8351 47.6294 71.7026 47.4911 71.5335 47.39C71.3645 47.2889 71.1714 47.2375 70.9543 47.2359C70.7986 47.2342 70.6386 47.2582 70.4746 47.308C70.3105 47.356 70.1755 47.4182 70.0694 47.4944L69.4927 47.4248L69.8009 44.9191H72.4458V45.466H70.318L70.139 46.9674H70.1688C70.2732 46.8845 70.4042 46.8158 70.5616 46.7611C70.719 46.7064 70.8831 46.679 71.0538 46.679C71.3653 46.679 71.6429 46.7536 71.8865 46.9028C72.1318 47.0503 72.324 47.2524 72.4632 47.5093C72.6041 47.7662 72.6745 48.0595 72.6745 48.3893C72.6745 48.7141 72.6016 49.0041 72.4558 49.2593C72.3116 49.5129 72.1127 49.7134 71.8592 49.8609C71.6056 50.0067 71.3173 50.0796 70.9941 50.0796ZM75.3225 50.0796C74.948 50.0796 74.629 49.9777 74.3655 49.7739C74.102 49.5684 73.9006 49.2709 73.7614 48.8815C73.6222 48.4904 73.5526 48.0181 73.5526 47.4646C73.5526 46.9144 73.6222 46.4446 73.7614 46.0551C73.9023 45.664 74.1045 45.3657 74.368 45.1602C74.6331 44.9531 74.9513 44.8495 75.3225 44.8495C75.6937 44.8495 76.0111 44.9531 76.2746 45.1602C76.5397 45.3657 76.7419 45.664 76.8811 46.0551C77.022 46.4446 77.0924 46.9144 77.0924 47.4646C77.0924 48.0181 77.0228 48.4904 76.8836 48.8815C76.7444 49.2709 76.543 49.5684 76.2795 49.7739C76.016 49.9777 75.697 50.0796 75.3225 50.0796ZM75.3225 49.5327C75.6937 49.5327 75.9821 49.3538 76.1876 48.9958C76.3931 48.6379 76.4958 48.1274 76.4958 47.4646C76.4958 47.0237 76.4486 46.6484 76.3541 46.3385C76.2613 46.0286 76.1271 45.7924 75.9514 45.63C75.7774 45.4676 75.5678 45.3864 75.3225 45.3864C74.9546 45.3864 74.6671 45.5679 74.4599 45.9308C74.2528 46.2921 74.1492 46.8033 74.1492 47.4646C74.1492 47.9054 74.1956 48.2799 74.2884 48.5881C74.3812 48.8964 74.5146 49.1309 74.6886 49.2916C74.8643 49.4524 75.0756 49.5327 75.3225 49.5327Z" fill="#0000FF"/>
<path d="M17.2503 25.7501C16.8597 25.7501 16.6204 25.506 16.6204 25.0958V19.3584C16.6204 18.9482 16.8597 18.7041 17.2503 18.7041H20.683C21.0297 18.7041 21.2592 18.9092 21.2592 19.2363C21.2592 19.5634 21.0297 19.7685 20.683 19.7685H18.022C17.9437 19.7685 17.8803 19.832 17.8803 19.9102V21.5311C17.8803 21.6094 17.9438 21.6728 18.022 21.6728H20.5365C20.8588 21.6728 21.0785 21.8632 21.0785 22.1709C21.0785 22.4786 20.8637 22.6738 20.5365 22.6738H18.022C17.9437 22.6738 17.8803 22.7373 17.8803 22.8155V24.5438C17.8803 24.6221 17.9438 24.6855 18.022 24.6855H20.683C21.0297 24.6855 21.2592 24.8906 21.2592 25.2177C21.2592 25.5448 21.0297 25.7499 20.683 25.7499H17.2503V25.7501Z" fill="black"/>
<path d="M34.8614 22.548H32.7722C32.6816 22.548 32.6148 22.4642 32.6338 22.3756C32.7704 21.7369 33.242 21.4093 33.8364 21.4093C34.4308 21.4093 34.8849 21.7241 35.0011 22.3824C35.0164 22.4689 34.9493 22.548 34.8614 22.548ZM33.8316 20.4668C32.3374 20.4668 31.3853 21.5312 31.3853 23.1817C31.3853 24.8322 32.3179 25.8526 33.9 25.8526C34.7002 25.8526 35.2862 25.6748 35.7859 25.1198C36.0096 24.8714 35.9497 24.5007 35.6536 24.3422C35.4042 24.2086 35.1205 24.3367 34.9812 24.4661C34.5385 24.8775 34.2137 24.9151 33.8903 24.9151C33.1441 24.9151 32.6541 24.4304 32.6011 23.6069C32.5958 23.5248 32.6602 23.4551 32.7425 23.4551H35.6967C35.9779 23.4551 36.2073 23.2303 36.2137 22.9492C36.2464 21.5063 35.2712 20.4668 33.8316 20.4668Z" fill="black"/>
<path d="M22.3511 25.2078V21.0857C22.3511 20.7096 22.5709 20.4703 22.9323 20.4703C23.1391 20.4703 23.3081 20.5508 23.4136 20.6918C23.4392 20.726 23.461 20.7647 23.4787 20.8012C23.5131 20.8719 23.5976 20.902 23.6683 20.8677C23.9345 20.7387 24.5538 20.4752 25.1692 20.4752C26.3121 20.4752 26.9617 21.2078 26.9617 22.4044V25.2079C26.9617 25.6182 26.7126 25.8477 26.3561 25.8477C25.9996 25.8477 25.7456 25.6181 25.7456 25.2079V22.6487C25.7456 21.9161 25.4037 21.5058 24.7102 21.5058C24.0167 21.5058 23.5673 22.0089 23.5673 22.7512V25.2079C23.5673 25.6182 23.3133 25.8477 22.9568 25.8477C22.6003 25.8477 22.3511 25.6181 22.3511 25.2078Z" fill="black"/>
<path d="M37.1997 25.2078V21.0856C37.1997 20.7046 37.4341 20.4702 37.7809 20.4702C38.0145 20.4702 38.2011 20.5828 38.2937 20.7787C38.2956 20.7827 38.302 20.7988 38.3105 20.8206C38.3446 20.9081 38.4529 20.9391 38.5278 20.8824C38.7302 20.7293 39.1125 20.4849 39.4904 20.4849C39.6809 20.4849 39.8274 20.5337 39.9202 20.6168C40.0325 20.7096 40.0911 20.8561 40.0911 21.0564C40.0911 21.2567 40.0325 21.3885 39.9104 21.4862C39.7932 21.5888 39.6125 21.6425 39.3731 21.6474C38.6795 21.6523 38.4158 22.087 38.4158 22.717V25.2079C38.4158 25.6084 38.1716 25.8477 37.8053 25.8477C37.439 25.8477 37.1997 25.6083 37.1997 25.2078Z" fill="black"/>
<path d="M28.4752 24.4706V21.6543C28.4752 21.576 28.4117 21.5126 28.3335 21.5126H28.1481C27.8454 21.5126 27.6597 21.3417 27.6597 21.0487C27.6597 20.7557 27.8452 20.5897 28.1481 20.5897H28.3335C28.4118 20.5897 28.4752 20.5262 28.4752 20.448V19.885C28.4752 19.4943 28.7096 19.2501 29.0857 19.2501C29.4618 19.2501 29.6913 19.4942 29.6913 19.885V20.448C29.6913 20.5263 29.7548 20.5897 29.833 20.5897H30.2529C30.5556 20.5897 30.7413 20.7605 30.7413 21.0487C30.7413 21.3369 30.5558 21.5126 30.2529 21.5126H29.833C29.7547 21.5126 29.6913 21.5761 29.6913 21.6543V24.2069C29.6913 24.5976 29.828 24.7685 30.1797 24.7978L30.2676 24.8076C30.5899 24.8369 30.756 24.9736 30.756 25.2569C30.756 25.6133 30.4435 25.8039 29.8868 25.8039H29.838C28.9346 25.8039 28.4755 25.3546 28.4755 24.4707H28.4753L28.4752 24.4706Z" fill="black"/>
</svg>
