<svg width="95" height="54" viewBox="0 0 95 54" fill="none" xmlns="http://www.w3.org/2000/svg">
<rect x="1.8501" y="1.84998" width="90.8" height="50.3" rx="3" stroke="#8B1EFF" stroke-width="0.28"/>
<path d="M83.5363 40.0263C83.3513 40.3174 83.1393 40.5923 82.9034 40.8432C82.6669 41.0949 82.4059 41.3239 82.127 41.5258C81.8473 41.7273 81.5493 41.9023 81.2373 42.0503C80.6186 42.342 79.9436 42.526 79.2646 42.5849C68.5999 43.013 57.9269 43.227 47.252 43.227C36.5782 43.227 25.9052 43.013 15.2403 42.5849C14.9005 42.5553 14.5625 42.4944 14.2335 42.4043C13.9016 42.3139 13.5796 42.1939 13.2686 42.0478C12.957 41.9005 12.658 41.7264 12.379 41.5244C12.0985 41.3228 11.8376 41.0948 11.6006 40.8427C11.3648 40.5919 11.1538 40.318 10.9688 40.0258C10.785 39.7348 10.6291 39.4279 10.5001 39.1098C10.3712 38.7934 10.2702 38.4654 10.1963 38.1313C10.1245 37.7995 10.0795 37.4616 10.0635 37.1225L10.0518 7.25143C10.0794 6.52536 10.2594 5.79636 10.5674 5.13327C10.7211 4.80234 10.9061 4.48837 11.1211 4.19528C11.3347 3.90366 11.5777 3.63266 11.8477 3.39059C12.3813 2.91135 13.0154 2.54538 13.6934 2.29831C14.3688 2.05148 15.0868 1.92551 15.8008 1.91745C36.7681 1.82748 57.7361 1.82748 78.7041 1.91745C78.9579 1.92172 79.2119 1.94064 79.4639 1.97263C79.715 2.00485 79.965 2.05087 80.212 2.11179C80.3762 2.15195 80.5392 2.19992 80.6992 2.25388C81.217 2.43112 81.715 2.68112 82.1631 2.99704C82.3888 3.15646 82.6017 3.33249 82.7998 3.52341C82.9985 3.71603 83.1825 3.92404 83.3495 4.14499C83.6837 4.58835 83.9497 5.08444 84.1367 5.60934C84.3241 6.13754 84.4321 6.69455 84.4521 7.25143L84.4414 37.1225C84.4099 37.7999 84.2628 38.4798 84.0071 39.1104C83.8781 39.4294 83.7212 39.7364 83.5363 40.0263Z" stroke="#8B1EFF" stroke-width="0.283" stroke-miterlimit="10"/>
<path d="M16.9952 4.0835H13.4512M13.4512 4.0835C13.4508 4.0835 81.0518 4.0835 81.0518 4.0835C82.2258 4.0835 83.1778 5.03552 83.1778 6.20996C83.1778 6.20996 83.1778 38.5469 83.1778 38.5469C83.1778 39.7209 82.2258 40.6729 81.0522 40.6729C81.0522 40.6729 13.4512 40.6729 13.4512 40.673C12.2772 40.673 11.3252 39.7209 11.3252 38.5465C11.3252 38.5465 11.3252 6.20947 11.3252 6.20959C11.3252 5.03552 12.2772 4.0835 13.4512 4.0835Z" stroke="#00FFFF" stroke-width="0.28" stroke-miterlimit="10"/>
<path d="M83.7106 7.59486C83.6836 17.2888 83.6596 26.9818 83.6386 36.6758C83.6369 36.9682 83.6139 37.2572 83.5689 37.5423C83.5229 37.8272 83.4549 38.1072 83.3599 38.3822C83.3369 38.4512 83.3119 38.5202 83.2839 38.5882C83.2579 38.6563 83.2289 38.7243 83.1979 38.7912C83.1379 38.9252 83.0709 39.0552 82.9989 39.1812C82.9259 39.3071 82.8479 39.4292 82.7619 39.5482C82.6769 39.6662 82.5849 39.7813 82.4869 39.8913C82.2899 40.1112 82.0739 40.3071 81.8389 40.4782C81.7219 40.5642 81.5989 40.6432 81.4719 40.7172C81.4079 40.7542 81.3429 40.7892 81.2769 40.8233C81.2119 40.8562 81.1459 40.8882 81.0789 40.9173C80.8129 41.0361 80.5349 41.1272 80.2499 41.1922C80.1789 41.2081 80.1059 41.2232 80.0339 41.2362C79.9619 41.2482 79.8889 41.2601 79.8159 41.2692C79.6709 41.2882 79.5239 41.3012 79.3769 41.3071C57.997 42.1967 36.502 42.1967 15.122 41.3067C14.9742 41.3013 14.8292 41.2883 14.6832 41.2693C14.6112 41.2603 14.5392 41.2483 14.4672 41.2363C14.3942 41.2233 14.3222 41.2083 14.2512 41.1923C13.9662 41.1283 13.6902 41.0372 13.4242 40.9193C13.3572 40.8893 13.2912 40.8583 13.2252 40.8244C13.1602 40.7913 13.0952 40.7562 13.0322 40.7193C12.9052 40.6463 12.7832 40.5673 12.6662 40.4813C12.4302 40.3103 12.2152 40.1163 12.0182 39.8963C11.9692 39.8423 11.9222 39.7853 11.8762 39.7283C11.8302 39.6723 11.7862 39.6143 11.7432 39.5543C11.6582 39.4363 11.5792 39.3143 11.5072 39.1893C11.4332 39.0632 11.3672 38.9343 11.3062 38.8013C11.2762 38.7343 11.2482 38.6663 11.2202 38.5983C11.1932 38.5303 11.1682 38.4613 11.1432 38.3913C11.1202 38.3223 11.0972 38.2523 11.0772 38.1823C11.0552 38.1123 11.0372 38.0423 11.0192 37.9713C10.9842 37.8303 10.9562 37.6882 10.9322 37.5463C10.8872 37.2603 10.8652 36.9704 10.8639 36.6779C10.8429 26.9839 10.8189 17.2879 10.792 7.59254C10.792 7.43849 10.799 7.28456 10.814 7.13148C10.822 7.05556 10.832 6.97853 10.844 6.90248C10.855 6.82655 10.869 6.7505 10.885 6.67458C10.948 6.37453 11.043 6.08546 11.169 5.80849C11.2 5.73854 11.234 5.67055 11.27 5.60255C11.288 5.5685 11.306 5.53456 11.325 5.50148C11.344 5.46754 11.363 5.43459 11.383 5.4015C11.462 5.27052 11.548 5.14455 11.64 5.02357C11.824 4.78358 12.033 4.56447 12.267 4.36757C12.325 4.31752 12.386 4.27052 12.446 4.22353C12.508 4.17751 12.57 4.13258 12.633 4.08949C12.76 4.00356 12.89 3.92458 13.022 3.85255C13.156 3.77956 13.293 3.71352 13.433 3.65358C13.503 3.62355 13.573 3.5945 13.645 3.56752C13.717 3.54152 13.79 3.51552 13.863 3.49147C14.155 3.3965 14.452 3.32753 14.753 3.28053C15.054 3.23451 15.358 3.21156 15.6659 3.21046C36.6869 3.11647 57.8159 3.11647 78.8368 3.21083C79.1458 3.21181 79.4508 3.23476 79.7528 3.28175C79.9028 3.30385 80.0538 3.33376 80.2028 3.36879C80.3518 3.40382 80.5008 3.44582 80.6468 3.49281C80.9378 3.58876 81.2168 3.70778 81.4848 3.85475C81.5528 3.89076 81.6178 3.92885 81.6838 3.96974C81.7488 4.00978 81.8148 4.05177 81.8768 4.09474C82.0038 4.1808 82.1248 4.27284 82.2408 4.37074C82.3578 4.46877 82.4678 4.57277 82.5728 4.68275C82.6258 4.73878 82.6768 4.79482 82.7268 4.85378C82.7758 4.91176 82.8248 4.97182 82.8708 5.03285C83.0568 5.27577 83.2118 5.53578 83.3378 5.81386C83.3688 5.88283 83.3998 5.95277 83.4268 6.0248C83.4538 6.09584 83.4808 6.16884 83.5038 6.24086C83.5518 6.38783 83.5908 6.53481 83.6218 6.68483C83.6838 6.9828 83.7138 7.28578 83.7128 7.59474" stroke="#FF00FF" stroke-width="0.283465" stroke-miterlimit="10" stroke-linecap="round" stroke-linejoin="round"/>
<path d="M80.849 44.9091V50H80.2325V45.5554H80.2027L78.9598 46.3807V45.7543L80.2325 44.9091H80.849ZM82.4498 50.0398C82.3272 50.0398 82.222 49.9959 82.1341 49.908C82.0463 49.8202 82.0024 49.715 82.0024 49.5923C82.0024 49.4697 82.0463 49.3645 82.1341 49.2766C82.222 49.1888 82.3272 49.1449 82.4498 49.1449C82.5725 49.1449 82.6777 49.1888 82.7655 49.2766C82.8534 49.3645 82.8973 49.4697 82.8973 49.5923C82.8973 49.6735 82.8766 49.7481 82.8351 49.8161C82.7954 49.884 82.7415 49.9387 82.6736 49.9801C82.6073 50.0199 82.5327 50.0398 82.4498 50.0398ZM83.9966 50L86.2736 45.4957V45.456H83.6486V44.9091H86.91V45.4858L84.6429 50H83.9966ZM89.3591 50.0696C89.0674 50.0696 88.8048 50.0116 88.5711 49.8956C88.3374 49.7796 88.1502 49.6205 88.0093 49.4183C87.8685 49.2161 87.7914 48.9858 87.7781 48.7273H88.3747C88.3979 48.9576 88.5023 49.1482 88.6879 49.299C88.8752 49.4482 89.0989 49.5227 89.3591 49.5227C89.5679 49.5227 89.7535 49.4738 89.9159 49.3761C90.08 49.2783 90.2084 49.1441 90.3012 48.9734C90.3957 48.801 90.4429 48.6063 90.4429 48.3892C90.4429 48.1671 90.394 47.9691 90.2963 47.7951C90.2001 47.6194 90.0676 47.4811 89.8985 47.38C89.7295 47.2789 89.5364 47.2275 89.3193 47.2259C89.1636 47.2242 89.0036 47.2482 88.8396 47.2979C88.6755 47.346 88.5405 47.4081 88.4344 47.4844L87.8577 47.4148L88.1659 44.9091H90.8108V45.456H88.683L88.504 46.9574H88.5338C88.6382 46.8745 88.7691 46.8058 88.9266 46.7511C89.084 46.6964 89.2481 46.669 89.4188 46.669C89.7303 46.669 90.0079 46.7436 90.2515 46.8928C90.4968 47.0402 90.689 47.2424 90.8282 47.4993C90.9691 47.7562 91.0395 48.0495 91.0395 48.3793C91.0395 48.7041 90.9666 48.9941 90.8208 49.2493C90.6766 49.5028 90.4777 49.7034 90.2242 49.8509C89.9706 49.9967 89.6823 50.0696 89.3591 50.0696Z" fill="#0000FF"/>
<path d="M32.5688 16.4825C33.6807 16.4828 34.5795 17.3804 34.5796 18.4923V23.3224C34.5796 24.4344 33.6808 25.3319 32.5688 25.3322H25.4438C25.342 25.3322 25.2737 25.4377 25.3159 25.5304L25.7778 26.5441C25.8972 26.8069 25.8391 27.117 25.6323 27.3185C25.4255 27.52 25.1137 27.5697 24.854 27.4435L20.9487 25.546C20.1687 25.1786 20.1688 24.0669 20.9487 23.6993L24.854 21.8019C25.0663 21.6987 25.317 21.7118 25.5171 21.837C25.717 21.9622 25.8382 22.1813 25.8384 22.4171V22.4279C25.8383 22.5255 25.8182 22.6222 25.7778 22.7111L25.3208 23.714C25.2786 23.8067 25.3469 23.9122 25.4487 23.9122H32.5688C32.8965 23.912 33.1597 23.6501 33.1597 23.3224V18.4923C33.1595 18.1647 32.8964 17.9027 32.5688 17.9025H30.5796C30.1875 17.9025 29.8696 17.5846 29.8696 17.1925C29.8697 16.8004 30.1875 16.4825 30.5796 16.4825H32.5688Z" fill="black"/>
</svg>
