<svg width="81" height="54" viewBox="0 0 81 54" fill="none" xmlns="http://www.w3.org/2000/svg">
<rect x="1.85" y="1.84961" width="77.3" height="50.3" rx="3" stroke="#8B1EFF" stroke-width="0.28"/>
<path d="M71.0066 37.0028C71.0846 27.0808 71.1916 17.1588 71.3296 7.23671C71.3196 6.87971 71.2786 6.52272 71.2033 6.17207C71.1303 5.82307 71.0243 5.48207 70.8845 5.15388C70.7465 4.82887 70.5755 4.51692 70.3758 4.22517C70.1758 3.9352 69.9478 3.66518 69.6946 3.42085C69.4416 3.17787 69.1646 2.96083 68.8691 2.77419C68.5731 2.58717 68.2581 2.42921 67.9323 2.30348C67.6063 2.17751 67.2673 2.08156 66.9235 2.01747C66.5775 1.95351 66.2275 1.91945 65.8743 1.91591C48.9603 1.82497 32.0453 1.82497 15.1315 1.91554C14.7935 1.92165 14.4565 1.95461 14.1239 2.01491C13.7919 2.07387 13.4639 2.15981 13.1493 2.27443C12.9003 2.36745 12.6573 2.47841 12.4243 2.605C12.1923 2.73305 11.9683 2.87807 11.7566 3.03871C11.5456 3.20064 11.3466 3.37862 11.1627 3.57118C10.9777 3.76521 10.8097 3.9742 10.6584 4.19405C10.5064 4.41499 10.3714 4.64803 10.2536 4.8885C10.1356 5.13155 10.0356 5.38155 9.95221 5.63875C9.78619 6.15474 9.69119 6.69673 9.67749 7.23628C9.81149 17.1583 9.91852 27.0803 9.99991 37.0014C10.0249 37.6633 10.1749 38.3273 10.4398 38.9409C10.7088 39.5659 11.0948 40.1389 11.5707 40.6232C12.0497 41.1112 12.6177 41.5102 13.2406 41.796C13.8576 42.081 14.5286 42.254 15.2024 42.3052C23.6314 42.6482 32.0664 42.8192 40.5032 42.819C48.9392 42.819 57.3742 42.648 65.8041 42.3048C66.4781 42.2537 67.1481 42.0808 67.766 41.7969C68.388 41.5099 68.957 41.1109 69.4359 40.6233C69.9109 40.1383 70.2969 39.5663 70.5673 38.9408C70.8303 38.3278 70.9823 37.6638 71.0063 37.0008" stroke="#8B1EFF" stroke-width="0.283" stroke-miterlimit="10"/>
<path d="M11.2583 38.7129V6.43994C11.2583 5.2655 12.2093 4.31348 13.3843 4.31348H16.9273H64.1312H67.6743C68.8483 4.31348 69.8003 5.2655 69.8003 6.43945V38.7125C69.8003 39.8869 68.8483 40.8389 67.6743 40.8389L13.3843 40.8389C12.2093 40.8389 11.2583 39.8869 11.2583 38.7129Z" stroke="#00FFFF" stroke-width="0.28" stroke-miterlimit="10"/>
<path d="M65.6807 41.1325C48.9367 41.8176 32.0697 41.8176 15.3267 41.1325C15.0306 41.1198 14.7386 41.0828 14.4496 41.0178C14.3046 40.9859 14.1626 40.9469 14.0226 40.9018C13.8836 40.8559 13.7456 40.8048 13.6106 40.7458C13.4756 40.6878 13.3446 40.6228 13.2156 40.5518C13.1506 40.5158 13.0866 40.4778 13.0226 40.4389C12.9606 40.3999 12.8986 40.3598 12.8386 40.3178C12.5966 40.1499 12.3726 39.9608 12.1696 39.7489C12.1186 39.6958 12.0686 39.6418 12.0196 39.5858C11.9716 39.5308 11.9246 39.4729 11.8786 39.4148C11.7876 39.2998 11.7026 39.1798 11.6246 39.0568C11.4686 38.8108 11.3376 38.5518 11.2306 38.2798C11.2046 38.2108 11.1796 38.1418 11.1566 38.0728C11.1336 38.0028 11.1116 37.9328 11.0916 37.8628C11.0526 37.7229 11.0186 37.5818 10.9926 37.4398C10.9396 37.1558 10.9136 36.8689 10.9126 36.5768C10.8965 31.7902 10.8785 27.0023 10.8585 22.2153C10.8385 17.4282 10.8155 12.6413 10.7905 7.85323C10.7817 7.69765 10.7757 7.54164 10.7767 7.38667C10.7777 7.23067 10.7867 7.07668 10.8037 6.92268C10.8107 6.84566 10.8217 6.76863 10.8337 6.69167C10.8457 6.61464 10.8597 6.53865 10.8757 6.46169C10.9077 6.31068 10.9477 6.16164 10.9957 6.01466C11.0427 5.86867 11.0977 5.72566 11.1627 5.58467C11.1937 5.51466 11.2277 5.44563 11.2637 5.37666C11.3007 5.30867 11.3387 5.24068 11.3787 5.17366C11.5377 4.90865 11.7247 4.66664 11.9397 4.44667C11.9937 4.39168 12.0497 4.33766 12.1067 4.28664C12.1357 4.25966 12.1647 4.23463 12.1937 4.20863C12.2237 4.18367 12.2537 4.15865 12.2837 4.13368C12.4047 4.03664 12.5307 3.94563 12.6607 3.86269C12.9207 3.69667 13.1987 3.55965 13.4927 3.44868C13.7867 3.33864 14.0877 3.25966 14.3927 3.20668C14.6987 3.15364 15.0107 3.12666 15.3257 3.12563C32.0702 3.03365 48.9372 3.03365 65.6802 3.12563C65.9963 3.12672 66.3083 3.1537 66.6133 3.20668C66.9193 3.25972 67.2203 3.3387 67.5143 3.44868C67.8083 3.55971 68.0853 3.69673 68.3463 3.86269C68.4763 3.94569 68.6013 4.03572 68.7223 4.13368C68.7523 4.15871 68.7823 4.18373 68.8123 4.20869C68.8413 4.23372 68.8703 4.25972 68.9003 4.28572C68.9563 4.33772 69.0123 4.39168 69.0663 4.44673C69.2803 4.66573 69.4683 4.90871 69.6283 5.17372C69.6683 5.2397 69.7063 5.30769 69.7423 5.37672C69.7793 5.44472 69.8123 5.51472 69.8443 5.58473C69.9073 5.72469 69.9633 5.86873 70.0113 6.01472C70.0593 6.16072 70.0993 6.30971 70.1303 6.46169C70.1473 6.53773 70.1603 6.6147 70.1733 6.69069C70.1853 6.76772 70.1953 6.84468 70.2033 6.92171C70.2203 7.0757 70.2283 7.23073 70.2303 7.3857C70.2313 7.54073 70.2253 7.69673 70.2163 7.85268C70.1912 12.6398 70.1682 17.4278 70.1482 22.2148C70.1272 27.0018 70.1102 31.7898 70.0942 36.5766C70.0932 36.8685 70.0662 37.1585 70.0132 37.4456C69.9862 37.5905 69.9522 37.7326 69.9122 37.8715C69.8722 38.0116 69.8262 38.1496 69.7732 38.2846C69.7202 38.4196 69.6602 38.5526 69.5942 38.6835C69.5612 38.7495 69.5262 38.8145 69.4902 38.8786C69.4522 38.9426 69.4142 39.0056 69.3752 39.0665C69.2172 39.3136 69.0362 39.5426 68.8322 39.7545C68.7822 39.8065 68.7292 39.8585 68.6752 39.9085C68.6212 39.9595 68.5662 40.0086 68.5092 40.0565C68.3962 40.1525 68.2802 40.2415 68.1592 40.3236C67.9172 40.4896 67.6612 40.6315 67.3902 40.7486C67.3232 40.7775 67.2532 40.8056 67.1842 40.8316C67.1152 40.8576 67.0452 40.8815 66.9752 40.9036C66.8352 40.9495 66.6942 40.9876 66.5512 41.0195C66.2662 41.0825 65.9752 41.1206 65.6807 41.1325Z" stroke="#FF00FF" stroke-width="0.283465" stroke-miterlimit="10" stroke-linecap="round" stroke-linejoin="round"/>
<path d="M66.4147 44.9189V50.0098H65.7982V45.5652H65.7684L64.5255 46.3904V45.764L65.7982 44.9189H66.4147ZM68.0155 50.0495C67.8929 50.0495 67.7876 50.0056 67.6998 49.9178C67.612 49.83 67.5681 49.7247 67.5681 49.6021C67.5681 49.4795 67.612 49.3742 67.6998 49.2864C67.7876 49.1986 67.8929 49.1547 68.0155 49.1547C68.1381 49.1547 68.2434 49.1986 68.3312 49.2864C68.419 49.3742 68.463 49.4795 68.463 49.6021C68.463 49.6833 68.4422 49.7579 68.4008 49.8258C68.361 49.8938 68.3072 49.9484 68.2392 49.9899C68.1729 50.0297 68.0984 50.0495 68.0155 50.0495ZM70.9941 50.0794C70.7025 50.0794 70.4398 50.0214 70.2061 49.9054C69.9725 49.7894 69.7852 49.6303 69.6443 49.4281C69.5035 49.2259 69.4264 48.9956 69.4132 48.737H70.0097C70.0329 48.9674 70.1373 49.158 70.323 49.3088C70.5102 49.4579 70.7339 49.5325 70.9941 49.5325C71.2029 49.5325 71.3885 49.4836 71.5509 49.3858C71.715 49.2881 71.8434 49.1538 71.9362 48.9831C72.0307 48.8108 72.0779 48.6161 72.0779 48.399C72.0779 48.1769 72.029 47.9789 71.9313 47.8049C71.8351 47.6292 71.7026 47.4908 71.5335 47.3897C71.3645 47.2886 71.1714 47.2373 70.9543 47.2356C70.7986 47.234 70.6386 47.258 70.4746 47.3077C70.3105 47.3558 70.1755 47.4179 70.0694 47.4941L69.4927 47.4245L69.8009 44.9189H72.4458V45.4657H70.318L70.139 46.9672H70.1688C70.2732 46.8843 70.4042 46.8155 70.5616 46.7608C70.719 46.7061 70.8831 46.6788 71.0538 46.6788C71.3653 46.6788 71.6429 46.7534 71.8865 46.9025C72.1318 47.05 72.324 47.2522 72.4632 47.5091C72.6041 47.7659 72.6745 48.0592 72.6745 48.389C72.6745 48.7138 72.6016 49.0038 72.4558 49.2591C72.3116 49.5126 72.1127 49.7131 71.8592 49.8606C71.6056 50.0065 71.3173 50.0794 70.9941 50.0794ZM75.3225 50.0794C74.948 50.0794 74.629 49.9775 74.3655 49.7736C74.102 49.5681 73.9006 49.2707 73.7614 48.8812C73.6222 48.4901 73.5526 48.0178 73.5526 47.4643C73.5526 46.9141 73.6222 46.4443 73.7614 46.0549C73.9023 45.6638 74.1045 45.3655 74.368 45.16C74.6331 44.9528 74.9513 44.8493 75.3225 44.8493C75.6937 44.8493 76.0111 44.9528 76.2746 45.16C76.5397 45.3655 76.7419 45.6638 76.8811 46.0549C77.022 46.4443 77.0924 46.9141 77.0924 47.4643C77.0924 48.0178 77.0228 48.4901 76.8836 48.8812C76.7444 49.2707 76.543 49.5681 76.2795 49.7736C76.016 49.9775 75.697 50.0794 75.3225 50.0794ZM75.3225 49.5325C75.6937 49.5325 75.9821 49.3535 76.1876 48.9956C76.3931 48.6376 76.4958 48.1272 76.4958 47.4643C76.4958 47.0235 76.4486 46.6481 76.3541 46.3382C76.2613 46.0283 76.1271 45.7922 75.9514 45.6298C75.7774 45.4674 75.5678 45.3862 75.3225 45.3862C74.9546 45.3862 74.6671 45.5676 74.4599 45.9306C74.2528 46.2918 74.1492 46.8031 74.1492 47.4643C74.1492 47.9051 74.1956 48.2797 74.2884 48.5879C74.3812 48.8961 74.5146 49.1306 74.6886 49.2914C74.8643 49.4521 75.0756 49.5325 75.3225 49.5325Z" fill="#0000FF"/>
<path fill-rule="evenodd" clip-rule="evenodd" d="M27.5791 18.6826C27.187 18.6826 26.8691 19.0005 26.8691 19.3926C26.8691 19.7847 27.187 20.1026 27.5791 20.1026H28.5691C28.897 20.1026 29.1591 20.3647 29.1591 20.6926V22.3226C29.1591 22.6505 28.897 22.9126 28.5691 22.9126H21.4489C21.3471 22.9126 21.2793 22.8074 21.3214 22.7147L21.7776 21.7111C21.8181 21.6221 21.839 21.5254 21.839 21.4276V21.4176C21.839 21.1816 21.7175 20.9622 21.5174 20.837C21.3174 20.7118 21.0669 20.6984 20.8546 20.8015L16.9493 22.6992C16.1689 23.0666 16.1689 24.1786 16.9493 24.546L20.8546 26.4437C21.1143 26.5699 21.4253 26.5197 21.6321 26.3182C21.8389 26.1166 21.8971 25.8071 21.7776 25.5442L21.3169 24.5306C21.2747 24.4379 21.3425 24.3326 21.4443 24.3326H28.5691C29.6812 24.3326 30.5791 23.4347 30.5791 22.3226V20.6926C30.5791 19.5805 29.6812 18.6826 28.5691 18.6826H27.5791Z" fill="black"/>
<path d="M35.2503 25.7501C34.8597 25.7501 34.6204 25.506 34.6204 25.0958V19.3584C34.6204 18.9482 34.8597 18.7041 35.2503 18.7041H38.683C39.0297 18.7041 39.2592 18.9092 39.2592 19.2363C39.2592 19.5634 39.0297 19.7685 38.683 19.7685H36.022C35.9437 19.7685 35.8803 19.832 35.8803 19.9102V21.5311C35.8803 21.6094 35.9438 21.6728 36.022 21.6728H38.5365C38.8588 21.6728 39.0785 21.8632 39.0785 22.1709C39.0785 22.4786 38.8637 22.6738 38.5365 22.6738H36.022C35.9437 22.6738 35.8803 22.7373 35.8803 22.8155V24.5438C35.8803 24.6221 35.9438 24.6855 36.022 24.6855H38.683C39.0297 24.6855 39.2592 24.8906 39.2592 25.2177C39.2592 25.5448 39.0297 25.7499 38.683 25.7499H35.2503V25.7501Z" fill="black"/>
<path d="M52.8614 22.548H50.7722C50.6816 22.548 50.6148 22.4642 50.6338 22.3756C50.7704 21.7369 51.242 21.4093 51.8364 21.4093C52.4308 21.4093 52.8849 21.7241 53.0011 22.3824C53.0164 22.4689 52.9493 22.548 52.8614 22.548ZM51.8316 20.4668C50.3374 20.4668 49.3853 21.5312 49.3853 23.1817C49.3853 24.8322 50.3179 25.8526 51.9 25.8526C52.7002 25.8526 53.2862 25.6748 53.7859 25.1198C54.0096 24.8714 53.9497 24.5007 53.6536 24.3422C53.4042 24.2086 53.1205 24.3367 52.9812 24.4661C52.5385 24.8775 52.2137 24.9151 51.8903 24.9151C51.1441 24.9151 50.6541 24.4304 50.6011 23.6069C50.5958 23.5248 50.6602 23.4551 50.7425 23.4551H53.6967C53.9779 23.4551 54.2073 23.2303 54.2137 22.9492C54.2464 21.5063 53.2712 20.4668 51.8316 20.4668Z" fill="black"/>
<path d="M40.3511 25.2082V21.0861C40.3511 20.71 40.5709 20.4707 40.9323 20.4707C41.1391 20.4707 41.3081 20.5512 41.4136 20.6922C41.4392 20.7264 41.461 20.7651 41.4787 20.8016C41.5131 20.8723 41.5976 20.9024 41.6683 20.8681C41.9345 20.7391 42.5538 20.4756 43.1692 20.4756C44.3121 20.4756 44.9617 21.2082 44.9617 22.4048V25.2083C44.9617 25.6186 44.7126 25.8481 44.3561 25.8481C43.9996 25.8481 43.7456 25.6185 43.7456 25.2083V22.6491C43.7456 21.9165 43.4037 21.5062 42.7102 21.5062C42.0167 21.5062 41.5673 22.0093 41.5673 22.7516V25.2083C41.5673 25.6186 41.3133 25.8481 40.9568 25.8481C40.6003 25.8481 40.3511 25.6185 40.3511 25.2082Z" fill="black"/>
<path d="M55.1997 25.2073V21.0851C55.1997 20.7041 55.4341 20.4697 55.7809 20.4697C56.0145 20.4697 56.2011 20.5823 56.2937 20.7782C56.2956 20.7822 56.302 20.7983 56.3105 20.8201C56.3446 20.9076 56.4529 20.9386 56.5278 20.8819C56.7302 20.7288 57.1125 20.4844 57.4904 20.4844C57.6809 20.4844 57.8274 20.5332 57.9202 20.6163C58.0325 20.7091 58.0911 20.8556 58.0911 21.0559C58.0911 21.2562 58.0325 21.388 57.9104 21.4857C57.7932 21.5883 57.6125 21.642 57.3731 21.6469C56.6795 21.6518 56.4158 22.0865 56.4158 22.7165V25.2074C56.4158 25.6079 56.1716 25.8472 55.8053 25.8472C55.439 25.8472 55.1997 25.6078 55.1997 25.2073Z" fill="black"/>
<path d="M46.4752 24.4705V21.6542C46.4752 21.5759 46.4117 21.5125 46.3335 21.5125H46.1481C45.8454 21.5125 45.6597 21.3416 45.6597 21.0486C45.6597 20.7556 45.8452 20.5896 46.1481 20.5896H46.3335C46.4118 20.5896 46.4752 20.5261 46.4752 20.4479V19.8849C46.4752 19.4942 46.7096 19.25 47.0857 19.25C47.4618 19.25 47.6913 19.4941 47.6913 19.8849V20.4479C47.6913 20.5262 47.7548 20.5896 47.833 20.5896H48.2529C48.5556 20.5896 48.7413 20.7604 48.7413 21.0486C48.7413 21.3368 48.5558 21.5125 48.2529 21.5125H47.833C47.7547 21.5125 47.6913 21.576 47.6913 21.6542V24.2068C47.6913 24.5975 47.828 24.7684 48.1797 24.7977L48.2676 24.8075C48.5899 24.8368 48.756 24.9735 48.756 25.2568C48.756 25.6132 48.4435 25.8038 47.8868 25.8038H47.838C46.9346 25.8038 46.4755 25.3545 46.4755 24.4706H46.4753L46.4752 24.4705Z" fill="black"/>
</svg>
