<svg width="95" height="54" viewBox="0 0 95 54" fill="none" xmlns="http://www.w3.org/2000/svg">
<rect x="1.85" y="1.84961" width="90.8" height="50.3" rx="3" stroke="#8B1EFF" stroke-width="0.28"/>
<path d="M83.5361 40.026C83.3511 40.317 83.1391 40.5919 82.9031 40.8429C82.6667 41.0946 82.4057 41.3236 82.1267 41.5255C81.847 41.7269 81.549 41.9019 81.237 42.0499C80.6184 42.3416 79.9434 42.5256 79.2644 42.5846C68.5997 43.0127 57.9267 43.2267 47.2517 43.2267C36.578 43.2267 25.905 43.0127 15.24 42.5846C14.9002 42.5549 14.5622 42.494 14.2332 42.4039C13.9013 42.3136 13.5793 42.1936 13.2683 42.0475C12.9567 41.9001 12.6577 41.726 12.3787 41.524C12.0983 41.3225 11.8373 41.0945 11.6003 40.8424C11.3645 40.5915 11.1535 40.3176 10.9685 40.0255C10.7848 39.7345 10.6288 39.4276 10.4998 39.1095C10.371 38.7931 10.27 38.4651 10.196 38.131C10.1242 37.7992 10.0792 37.4613 10.0632 37.1222L10.0515 7.25107C10.0791 6.52499 10.2591 5.79599 10.5671 5.1329C10.7208 4.80197 10.9058 4.48801 11.1208 4.19492C11.3344 3.90329 11.5774 3.63229 11.8474 3.39023C12.3811 2.91098 13.0151 2.54501 13.6931 2.29794C14.3685 2.05112 15.0865 1.92514 15.8005 1.91708C36.7678 1.82712 57.7358 1.82712 78.7038 1.91708C78.9576 1.92136 79.2116 1.94028 79.4636 1.97226C79.7147 2.00449 79.9647 2.05051 80.2117 2.11142C80.376 2.15158 80.539 2.19955 80.699 2.25351C81.2168 2.43076 81.7148 2.68076 82.1628 2.99667C82.3885 3.1561 82.6015 3.33212 82.7995 3.52304C82.9983 3.71567 83.1823 3.92368 83.3493 4.14462C83.6835 4.58798 83.9495 5.08408 84.1365 5.60898C84.3239 6.13718 84.4319 6.69418 84.4519 7.25107L84.4411 37.1222C84.4096 37.7995 84.2626 38.4795 84.0069 39.1101C83.8779 39.429 83.7209 39.7361 83.5361 40.026Z" stroke="#8B1EFF" stroke-width="0.283" stroke-miterlimit="10"/>
<path d="M16.995 4.08398H13.451M13.451 4.08398C13.4506 4.08398 81.0516 4.08398 81.0516 4.08398C82.2255 4.08398 83.1776 5.03601 83.1776 6.21045C83.1776 6.21045 83.1776 38.5474 83.1775 38.5474C83.1775 39.7214 82.2255 40.6733 81.052 40.6733C81.052 40.6733 13.451 40.6733 13.451 40.6735C12.277 40.6735 11.325 39.7214 11.325 38.547C11.325 38.547 11.325 6.20996 11.325 6.21008C11.325 5.03601 12.2769 4.08398 13.451 4.08398Z" stroke="#00FFFF" stroke-width="0.28" stroke-miterlimit="10"/>
<path d="M83.7106 7.5945C83.6836 17.2885 83.6596 26.9815 83.6386 36.6754C83.6369 36.9678 83.6139 37.2569 83.5689 37.5419C83.5229 37.8268 83.4549 38.1068 83.3599 38.3819C83.3369 38.4508 83.3119 38.5198 83.2839 38.5878C83.2579 38.6559 83.2289 38.7239 83.1979 38.7908C83.1379 38.9248 83.0709 39.0548 82.9989 39.1808C82.9259 39.3068 82.8479 39.4288 82.7619 39.5479C82.6769 39.6658 82.5849 39.7809 82.4869 39.8909C82.2899 40.1109 82.0739 40.3068 81.8389 40.4778C81.7219 40.5639 81.5989 40.6428 81.4719 40.7168C81.4079 40.7538 81.3429 40.7888 81.2769 40.8229C81.2119 40.8559 81.1459 40.8878 81.0789 40.9169C80.8129 41.0358 80.5349 41.1268 80.2499 41.1918C80.1789 41.2078 80.1059 41.2228 80.0339 41.2359C79.9619 41.2478 79.8889 41.2598 79.8159 41.2688C79.6709 41.2879 79.5239 41.3008 79.3769 41.3068C57.997 42.1963 36.502 42.1963 15.122 41.3063C14.9742 41.3009 14.8292 41.288 14.6832 41.2689C14.6112 41.2599 14.5392 41.2479 14.4672 41.236C14.3942 41.2229 14.3222 41.2079 14.2512 41.1919C13.9662 41.1279 13.6902 41.0369 13.4242 40.919C13.3572 40.8889 13.2912 40.8579 13.2252 40.824C13.1602 40.7909 13.0952 40.7559 13.0322 40.7189C12.9052 40.6459 12.7832 40.5669 12.6662 40.481C12.4302 40.31 12.2152 40.116 12.0182 39.8959C11.9692 39.8419 11.9222 39.7849 11.8762 39.7279C11.8302 39.6719 11.7862 39.6139 11.7432 39.554C11.6582 39.4359 11.5792 39.314 11.5072 39.189C11.4332 39.0629 11.3672 38.934 11.3062 38.8009C11.2762 38.7339 11.2482 38.6659 11.2202 38.5979C11.1932 38.5299 11.1682 38.461 11.1432 38.3909C11.1202 38.3219 11.0972 38.252 11.0772 38.1819C11.0552 38.112 11.0372 38.0419 11.0192 37.971C10.9842 37.83 10.9562 37.6879 10.9322 37.5459C10.8872 37.2599 10.8652 36.97 10.8639 36.6775C10.8429 26.9835 10.8189 17.2875 10.792 7.59218C10.792 7.43813 10.799 7.28419 10.814 7.13112C10.822 7.05519 10.832 6.97816 10.844 6.90211C10.855 6.82619 10.869 6.75014 10.885 6.67421C10.948 6.37416 11.043 6.0851 11.169 5.80812C11.2 5.73817 11.234 5.67018 11.27 5.60219C11.288 5.56813 11.306 5.53419 11.325 5.50111C11.344 5.46718 11.363 5.43422 11.383 5.40114C11.462 5.27016 11.548 5.14418 11.64 5.02321C11.824 4.78322 12.033 4.5641 12.267 4.3672C12.325 4.31715 12.386 4.27016 12.446 4.22316C12.508 4.17714 12.57 4.13222 12.633 4.08913C12.76 4.00319 12.89 3.92421 13.022 3.85219C13.156 3.77919 13.293 3.71315 13.433 3.65321C13.503 3.62318 13.573 3.59413 13.645 3.56715C13.717 3.54115 13.79 3.51515 13.863 3.4911C14.155 3.39613 14.452 3.32716 14.753 3.28017C15.054 3.23415 15.358 3.2112 15.6659 3.2101C36.6869 3.1161 57.8159 3.1161 78.8368 3.21046C79.1458 3.21144 79.4508 3.23439 79.7528 3.28139C79.9028 3.30348 80.0538 3.33339 80.2028 3.36842C80.3518 3.40346 80.5008 3.44545 80.6468 3.49245C80.9378 3.58839 81.2168 3.70741 81.4848 3.85439C81.5528 3.8904 81.6178 3.92848 81.6838 3.96938C81.7488 4.00941 81.8148 4.05141 81.8768 4.09438C82.0038 4.18044 82.1248 4.27248 82.2408 4.37038C82.3578 4.4684 82.4678 4.5724 82.5728 4.68239C82.6258 4.73842 82.6768 4.79445 82.7268 4.85341C82.7758 4.91139 82.8248 4.97145 82.8708 5.03249C83.0568 5.27541 83.2118 5.53542 83.3378 5.81349C83.3688 5.88246 83.3998 5.95241 83.4268 6.02443C83.4538 6.09547 83.4808 6.16847 83.5038 6.24049C83.5518 6.38747 83.5908 6.53444 83.6218 6.68446C83.6838 6.98244 83.7138 7.28542 83.7128 7.59438" stroke="#FF00FF" stroke-width="0.283465" stroke-miterlimit="10" stroke-linecap="round" stroke-linejoin="round"/>
<path d="M80.859 44.9189V50.0098H80.2425V45.5652H80.2127L78.9698 46.3904V45.764L80.2425 44.9189H80.859ZM82.4598 50.0495C82.3372 50.0495 82.232 50.0056 82.1442 49.9178C82.0563 49.83 82.0124 49.7247 82.0124 49.6021C82.0124 49.4795 82.0563 49.3742 82.1442 49.2864C82.232 49.1986 82.3372 49.1547 82.4598 49.1547C82.5825 49.1547 82.6877 49.1986 82.7755 49.2864C82.8634 49.3742 82.9073 49.4795 82.9073 49.6021C82.9073 49.6833 82.8866 49.7579 82.8451 49.8258C82.8054 49.8938 82.7515 49.9484 82.6836 49.9899C82.6173 50.0297 82.5427 50.0495 82.4598 50.0495ZM84.0066 50.0098L86.2836 45.5055V45.4657H83.6586V44.9189H86.92V45.4956L84.6529 50.0098H84.0066ZM89.3691 50.0794C89.0775 50.0794 88.8148 50.0214 88.5811 49.9054C88.3475 49.7894 88.1602 49.6303 88.0193 49.4281C87.8785 49.2259 87.8014 48.9956 87.7882 48.737H88.3847C88.4079 48.9674 88.5123 49.158 88.698 49.3088C88.8852 49.4579 89.1089 49.5325 89.3691 49.5325C89.5779 49.5325 89.7635 49.4836 89.9259 49.3858C90.09 49.2881 90.2184 49.1538 90.3112 48.9831C90.4057 48.8108 90.4529 48.6161 90.4529 48.399C90.4529 48.1769 90.404 47.9789 90.3063 47.8049C90.2101 47.6292 90.0776 47.4908 89.9085 47.3897C89.7395 47.2886 89.5464 47.2373 89.3293 47.2356C89.1736 47.234 89.0136 47.258 88.8496 47.3077C88.6855 47.3558 88.5505 47.4179 88.4444 47.4941L87.8677 47.4245L88.1759 44.9189H90.8208V45.4657H88.693L88.514 46.9672H88.5438C88.6482 46.8843 88.7792 46.8155 88.9366 46.7608C89.094 46.7061 89.2581 46.6788 89.4288 46.6788C89.7403 46.6788 90.0179 46.7534 90.2615 46.9025C90.5068 47.05 90.699 47.2522 90.8382 47.5091C90.9791 47.7659 91.0495 48.0592 91.0495 48.389C91.0495 48.7138 90.9766 49.0038 90.8308 49.2591C90.6866 49.5126 90.4877 49.7131 90.2342 49.8606C89.9806 50.0065 89.6923 50.0794 89.3691 50.0794Z" fill="#0000FF"/>
<path fill-rule="evenodd" clip-rule="evenodd" d="M27.5791 18.6826C27.187 18.6826 26.8691 19.0005 26.8691 19.3926C26.8691 19.7847 27.187 20.1026 27.5791 20.1026H28.5691C28.897 20.1026 29.1591 20.3647 29.1591 20.6926V22.3226C29.1591 22.6505 28.897 22.9126 28.5691 22.9126H21.4489C21.3471 22.9126 21.2793 22.8074 21.3214 22.7147L21.7776 21.7111C21.8181 21.6221 21.839 21.5254 21.839 21.4276V21.4176C21.839 21.1816 21.7175 20.9622 21.5174 20.837C21.3174 20.7118 21.0669 20.6984 20.8546 20.8015L16.9493 22.6992C16.1689 23.0666 16.1689 24.1786 16.9493 24.546L20.8546 26.4437C21.1143 26.5699 21.4253 26.5197 21.6321 26.3182C21.8389 26.1166 21.8971 25.8071 21.7776 25.5442L21.3169 24.5306C21.2747 24.4379 21.3425 24.3326 21.4443 24.3326H28.5691C29.6812 24.3326 30.5791 23.4347 30.5791 22.3226V20.6926C30.5791 19.5805 29.6812 18.6826 28.5691 18.6826H27.5791Z" fill="black"/>
<path d="M35.2503 25.7501C34.8597 25.7501 34.6204 25.506 34.6204 25.0958V19.3584C34.6204 18.9482 34.8597 18.7041 35.2503 18.7041H38.683C39.0297 18.7041 39.2592 18.9092 39.2592 19.2363C39.2592 19.5634 39.0297 19.7685 38.683 19.7685H36.022C35.9437 19.7685 35.8803 19.832 35.8803 19.9102V21.5311C35.8803 21.6094 35.9438 21.6728 36.022 21.6728H38.5365C38.8588 21.6728 39.0785 21.8632 39.0785 22.1709C39.0785 22.4786 38.8637 22.6738 38.5365 22.6738H36.022C35.9437 22.6738 35.8803 22.7373 35.8803 22.8155V24.5438C35.8803 24.6221 35.9438 24.6855 36.022 24.6855H38.683C39.0297 24.6855 39.2592 24.8906 39.2592 25.2177C39.2592 25.5448 39.0297 25.7499 38.683 25.7499H35.2503V25.7501Z" fill="black"/>
<path d="M52.8614 22.548H50.7722C50.6816 22.548 50.6148 22.4642 50.6338 22.3756C50.7704 21.7369 51.242 21.4093 51.8364 21.4093C52.4308 21.4093 52.8849 21.7241 53.0011 22.3824C53.0164 22.4689 52.9493 22.548 52.8614 22.548ZM51.8316 20.4668C50.3374 20.4668 49.3853 21.5312 49.3853 23.1817C49.3853 24.8322 50.3179 25.8526 51.9 25.8526C52.7002 25.8526 53.2862 25.6748 53.7859 25.1198C54.0096 24.8714 53.9497 24.5007 53.6536 24.3422C53.4042 24.2086 53.1205 24.3367 52.9812 24.4661C52.5385 24.8775 52.2137 24.9151 51.8903 24.9151C51.1441 24.9151 50.6541 24.4304 50.6011 23.6069C50.5958 23.5248 50.6602 23.4551 50.7425 23.4551H53.6967C53.9779 23.4551 54.2073 23.2303 54.2137 22.9492C54.2464 21.5063 53.2712 20.4668 51.8316 20.4668Z" fill="black"/>
<path d="M40.3511 25.2082V21.0861C40.3511 20.71 40.5709 20.4707 40.9323 20.4707C41.1391 20.4707 41.3081 20.5512 41.4136 20.6922C41.4392 20.7264 41.461 20.7651 41.4787 20.8016C41.5131 20.8723 41.5976 20.9024 41.6683 20.8681C41.9345 20.7391 42.5538 20.4756 43.1692 20.4756C44.3121 20.4756 44.9617 21.2082 44.9617 22.4048V25.2083C44.9617 25.6186 44.7126 25.8481 44.3561 25.8481C43.9996 25.8481 43.7456 25.6185 43.7456 25.2083V22.6491C43.7456 21.9165 43.4037 21.5062 42.7102 21.5062C42.0167 21.5062 41.5673 22.0093 41.5673 22.7516V25.2083C41.5673 25.6186 41.3133 25.8481 40.9568 25.8481C40.6003 25.8481 40.3511 25.6185 40.3511 25.2082Z" fill="black"/>
<path d="M55.1997 25.2073V21.0851C55.1997 20.7041 55.4341 20.4697 55.7809 20.4697C56.0145 20.4697 56.2011 20.5823 56.2937 20.7782C56.2956 20.7822 56.302 20.7983 56.3105 20.8201C56.3446 20.9076 56.4529 20.9386 56.5278 20.8819C56.7302 20.7288 57.1125 20.4844 57.4904 20.4844C57.6809 20.4844 57.8274 20.5332 57.9202 20.6163C58.0325 20.7091 58.0911 20.8556 58.0911 21.0559C58.0911 21.2562 58.0325 21.388 57.9104 21.4857C57.7932 21.5883 57.6125 21.642 57.3731 21.6469C56.6795 21.6518 56.4158 22.0865 56.4158 22.7165V25.2074C56.4158 25.6079 56.1716 25.8472 55.8053 25.8472C55.439 25.8472 55.1997 25.6078 55.1997 25.2073Z" fill="black"/>
<path d="M46.4752 24.4705V21.6542C46.4752 21.5759 46.4117 21.5125 46.3335 21.5125H46.1481C45.8454 21.5125 45.6597 21.3416 45.6597 21.0486C45.6597 20.7556 45.8452 20.5896 46.1481 20.5896H46.3335C46.4118 20.5896 46.4752 20.5261 46.4752 20.4479V19.8849C46.4752 19.4942 46.7096 19.25 47.0857 19.25C47.4618 19.25 47.6913 19.4941 47.6913 19.8849V20.4479C47.6913 20.5262 47.7548 20.5896 47.833 20.5896H48.2529C48.5556 20.5896 48.7413 20.7604 48.7413 21.0486C48.7413 21.3368 48.5558 21.5125 48.2529 21.5125H47.833C47.7547 21.5125 47.6913 21.576 47.6913 21.6542V24.2068C47.6913 24.5975 47.828 24.7684 48.1797 24.7977L48.2676 24.8075C48.5899 24.8368 48.756 24.9735 48.756 25.2568C48.756 25.6132 48.4435 25.8038 47.8868 25.8038H47.838C46.9346 25.8038 46.4755 25.3545 46.4755 24.4706H46.4753L46.4752 24.4705Z" fill="black"/>
</svg>
