<svg width="54" height="54" viewBox="0 0 54 54" fill="none" xmlns="http://www.w3.org/2000/svg">
<rect x="1.85" y="1.84961" width="50.3" height="50.3" rx="3" stroke="#8B1EFF" stroke-width="0.28"/>
<path d="M11.4159 40.9337C10.9698 40.4197 10.6218 39.8197 10.3779 39.1816C10.1359 38.5496 9.99377 37.8787 9.96387 37.2065L9.94531 7.22412C9.96619 6.68262 10.0662 6.13965 10.2383 5.62354C10.3237 5.36609 10.4277 5.11609 10.5479 4.87402C10.668 4.63428 10.8049 4.40125 10.958 4.18018C11.1099 3.96069 11.2788 3.75269 11.4629 3.55859C11.6456 3.36646 11.8436 3.18848 12.0537 3.02637C12.2628 2.86536 12.4847 2.72034 12.7148 2.59229C12.9446 2.46436 13.1836 2.35327 13.4297 2.26025C13.5842 2.203 13.7423 2.151 13.9023 2.10791C14.0616 2.06409 14.2236 2.02808 14.3857 1.99805C14.549 1.96826 14.7129 1.94434 14.877 1.92725C15.042 1.91003 15.208 1.89905 15.374 1.896C19.2509 1.86572 23.1278 1.84961 27.0049 1.84961C30.8817 1.8501 34.7596 1.86511 38.6367 1.896C39.3231 1.90601 40.0171 2.04199 40.6592 2.29492C40.981 2.42273 41.2909 2.57971 41.583 2.76562C41.8763 2.95325 42.1514 3.16919 42.4014 3.41113C42.9058 3.90015 43.3108 4.49609 43.5918 5.14404C43.8774 5.80212 44.0394 6.51416 44.0645 7.22412L44.0469 37.2065C44.0157 37.8782 43.8767 38.5502 43.6348 39.1821C43.3896 39.8202 43.0397 40.4192 42.5938 40.9341C42.1498 41.4482 41.6078 41.8793 41.0059 42.1992C40.4106 42.5153 39.7577 42.7244 39.0947 42.8022C31.047 43.4153 22.964 43.4153 14.916 42.8022C14.2518 42.7239 13.5999 42.5128 13.006 42.1971C12.403 41.8761 11.861 41.4471 11.4159 40.9337Z" stroke="#8B1EFF" stroke-width="0.283" stroke-miterlimit="10"/>
<rect x="12.6881" y="5.46875" width="28.63" height="34.34" rx="1.46" stroke="#00FFFF" stroke-width="0.28"/>
<path d="M42.9594 36.7479C42.9584 37.0349 42.9374 37.3188 42.8964 37.5999C42.8544 37.8799 42.7934 38.1569 42.7084 38.4299C42.6863 38.4989 42.6643 38.5669 42.6393 38.6349C42.6154 38.7019 42.5894 38.7699 42.5624 38.8369C42.5083 38.9698 42.4484 39.0999 42.3833 39.2269C42.2523 39.4808 42.0994 39.7219 41.9224 39.9498C41.8783 40.0059 41.8313 40.0619 41.7843 40.1168C41.7373 40.1709 41.6884 40.2229 41.6393 40.2749C41.5413 40.3779 41.4363 40.4749 41.3294 40.5669C41.2204 40.6589 41.1073 40.7449 40.9894 40.8248C40.9303 40.8649 40.8704 40.9039 40.8084 40.9398C40.7473 40.9769 40.6844 41.0128 40.6214 41.0469C40.3683 41.1809 40.1044 41.2859 39.8323 41.3639C39.7633 41.3839 39.6944 41.4009 39.6254 41.4169C39.5553 41.4329 39.4854 41.4469 39.4153 41.4598C39.2733 41.4849 39.1324 41.5018 38.9894 41.5128C37.0055 41.6628 35.0155 41.7749 33.0176 41.8499C32.0186 41.8878 31.0166 41.9159 30.0136 41.9349C29.5126 41.9438 29.0095 41.9509 28.5076 41.9559C28.0055 41.9609 27.5045 41.9629 27.0026 41.9629C24.9976 41.9629 22.9966 41.9259 20.9986 41.8499C19.9995 41.8129 19.0005 41.7659 18.0036 41.7098C17.5055 41.6809 17.0076 41.6509 16.5105 41.6179C16.0136 41.5859 15.5166 41.5509 15.0219 41.5132C14.7368 41.4912 14.4578 41.4432 14.1858 41.3662C14.0498 41.3282 13.9158 41.2822 13.7829 41.2292C13.7168 41.2032 13.6519 41.1742 13.5858 41.1443C13.5219 41.1143 13.4568 41.0823 13.3948 41.0492C13.1438 40.9163 12.9079 40.7582 12.6908 40.5742C12.6359 40.5282 12.5818 40.4802 12.5298 40.4323C12.4778 40.3822 12.4258 40.3312 12.3759 40.2803C12.2769 40.1772 12.1829 40.0692 12.0949 39.9573C12.0069 39.8452 11.9239 39.7283 11.8468 39.6083C11.8089 39.5482 11.7719 39.4872 11.7359 39.4242C11.6989 39.3622 11.6648 39.2992 11.6319 39.2352C11.4988 38.9792 11.3919 38.7142 11.3068 38.4423C11.2638 38.3063 11.2268 38.1672 11.1949 38.0272C11.1789 37.9573 11.1638 37.8872 11.1509 37.8163C11.1378 37.7452 11.1249 37.6752 11.1149 37.6042C11.0729 37.3202 11.0529 37.0353 11.0517 36.7479C11.0297 27.016 11.0047 17.283 10.9771 7.5509C10.9761 7.25391 11.0021 6.96191 11.0561 6.67395C11.0821 6.52991 11.1161 6.38794 11.1571 6.24695C11.1781 6.1759 11.1991 6.10596 11.224 6.03601C11.2481 5.96692 11.2731 5.89795 11.3011 5.83093C11.411 5.55994 11.547 5.30396 11.7091 5.06299C11.75 5.00293 11.792 4.94397 11.8361 4.88501C11.88 4.8269 11.9261 4.77002 11.973 4.71399C12.067 4.60193 12.166 4.49597 12.271 4.396C12.4801 4.19592 12.708 4.01892 12.9571 3.86499C13.2061 3.71094 13.4671 3.58398 13.739 3.48291C13.875 3.43201 14.0141 3.38794 14.1541 3.34998C14.2261 3.33093 14.297 3.31299 14.3681 3.297C14.4391 3.28101 14.5121 3.26697 14.5841 3.255C14.8721 3.20398 15.1641 3.17798 15.4589 3.1759C17.3719 3.15991 19.2908 3.14893 21.2168 3.14099C22.1798 3.13599 23.1448 3.13391 24.1109 3.13196C24.5939 3.13098 25.0758 3.13 25.5598 3.13C26.0419 3.12891 26.5259 3.12891 27.0078 3.12891C28.9389 3.12891 30.8649 3.13293 32.7898 3.14001C33.7528 3.14392 34.7139 3.14893 35.6748 3.15491C36.6369 3.16101 37.5949 3.16797 38.5523 3.1759C38.8473 3.17798 39.1372 3.20398 39.4232 3.25391C39.7083 3.30298 39.9883 3.37793 40.2632 3.47998C40.3323 3.505 40.4003 3.53198 40.4683 3.56091C40.5353 3.58997 40.6012 3.62 40.6673 3.65198C40.7982 3.71594 40.9253 3.78491 41.0482 3.86096C41.2932 4.01294 41.5222 4.18896 41.7333 4.39099C41.7873 4.44092 41.8393 4.49292 41.8882 4.54602C41.9383 4.599 41.9862 4.65393 42.0332 4.70898C42.1272 4.81995 42.2152 4.93494 42.2963 5.05493C42.3772 5.17493 42.4523 5.29895 42.5203 5.427C42.5553 5.49194 42.5883 5.55701 42.6193 5.62402C42.6503 5.69092 42.6803 5.75891 42.7083 5.8269C42.7353 5.89502 42.7622 5.96399 42.7853 6.03394C42.8092 6.104 42.8323 6.17395 42.8523 6.245C42.8943 6.38599 42.9282 6.52893 42.9552 6.67297C43.0093 6.96094 43.0353 7.25391 43.0341 7.55127C43.0061 17.2832 42.9801 27.0162 42.9582 36.7482" stroke="#FF00FF" stroke-width="0.283465" stroke-miterlimit="10" stroke-linecap="round" stroke-linejoin="round"/>
<path d="M17.7169 15.7442H21.0212C21.0994 15.7442 21.1629 15.6808 21.1629 15.6025V10.0651C21.1629 9.9232 20.9775 9.8693 20.9015 9.98916C19.8925 11.5812 18.0813 14.6923 17.5943 15.5314C17.5395 15.6259 17.6077 15.7442 17.7169 15.7442ZM21.1629 18.8032V17.8198C21.1629 17.7415 21.0994 17.6781 21.0212 17.6781H16.7766C15.88 17.6781 15.335 17.1946 15.335 16.3771C15.335 15.9904 15.4405 15.6475 15.7657 14.9883C16.7678 13.0896 17.7083 11.4898 19.273 9.17793C20.0114 8.10552 20.574 7.73633 21.4881 7.73633C22.6748 7.73633 23.3868 8.36923 23.3868 9.41526V15.6025C23.3868 15.6808 23.4503 15.7442 23.5286 15.7442H23.9758C24.6087 15.7442 24.9954 16.131 24.9954 16.7287C24.9954 17.3177 24.6175 17.6781 23.9758 17.6781H23.5286C23.4503 17.6781 23.3868 17.7415 23.3868 17.8198V18.8032C23.3868 19.5504 22.9649 20.0075 22.2705 20.0075C21.576 20.0075 21.1629 19.5504 21.1629 18.8032Z" fill="black"/>
</svg>
