<svg width="54" height="54" viewBox="0 0 54 54" fill="none" xmlns="http://www.w3.org/2000/svg">
<rect x="1.85" y="1.84961" width="50.3" height="50.3" rx="3" stroke="#8B1EFF" stroke-width="0.28"/>
<path d="M11.4159 40.9327C10.9698 40.4187 10.6218 39.8187 10.3779 39.1807C10.1359 38.5486 9.99377 37.8777 9.96387 37.2056L9.94531 7.22314C9.96619 6.68164 10.0662 6.13867 10.2383 5.62256C10.3237 5.36511 10.4277 5.11511 10.5479 4.87305C10.668 4.6333 10.8049 4.40027 10.958 4.1792C11.1099 3.95972 11.2788 3.75171 11.4629 3.55762C11.6456 3.36548 11.8436 3.1875 12.0537 3.02539C12.2628 2.86438 12.4847 2.71936 12.7148 2.59131C12.9446 2.46338 13.1836 2.35229 13.4297 2.25928C13.5842 2.20203 13.7423 2.15002 13.9023 2.10693C14.0616 2.06311 14.2236 2.0271 14.3857 1.99707C14.549 1.96729 14.7129 1.94336 14.877 1.92627C15.042 1.90906 15.208 1.89807 15.374 1.89502C19.2509 1.86475 23.1278 1.84863 27.0049 1.84863C30.8817 1.84912 34.7596 1.86414 38.6367 1.89502C39.3231 1.90503 40.0171 2.04102 40.6592 2.29395C40.981 2.42175 41.2909 2.57874 41.583 2.76465C41.8763 2.95227 42.1514 3.16821 42.4014 3.41016C42.9058 3.89917 43.3108 4.49512 43.5918 5.14307C43.8774 5.80115 44.0394 6.51318 44.0645 7.22314L44.0469 37.2056C44.0157 37.8772 43.8767 38.5492 43.6348 39.1812C43.3896 39.8192 43.0397 40.4182 42.5938 40.9331C42.1498 41.4473 41.6078 41.8783 41.0059 42.1982C40.4106 42.5143 39.7577 42.7234 39.0947 42.8013C31.047 43.4143 22.964 43.4143 14.916 42.8013C14.2518 42.7229 13.5999 42.5118 13.006 42.1962C12.403 41.8751 11.861 41.4462 11.4159 40.9327Z" stroke="#8B1EFF" stroke-width="0.283" stroke-miterlimit="10"/>
<rect x="12.6881" y="5.46777" width="28.63" height="34.34" rx="1.46" stroke="#00FFFF" stroke-width="0.28"/>
<path d="M42.9594 36.7489C42.9584 37.0359 42.9374 37.3198 42.8964 37.6008C42.8544 37.8809 42.7934 38.1578 42.7084 38.4309C42.6863 38.4999 42.6643 38.5679 42.6393 38.6359C42.6154 38.7029 42.5894 38.7709 42.5624 38.8379C42.5083 38.9708 42.4484 39.1008 42.3833 39.2279C42.2523 39.4818 42.0994 39.7229 41.9224 39.9508C41.8783 40.0068 41.8313 40.0629 41.7843 40.1178C41.7373 40.1719 41.6884 40.2239 41.6393 40.2759C41.5413 40.3789 41.4363 40.4758 41.3294 40.5679C41.2204 40.6599 41.1073 40.7458 40.9894 40.8258C40.9303 40.8658 40.8704 40.9049 40.8084 40.9408C40.7473 40.9779 40.6844 41.0138 40.6214 41.0479C40.3683 41.1819 40.1044 41.2869 39.8323 41.3649C39.7633 41.3849 39.6944 41.4019 39.6254 41.4178C39.5553 41.4338 39.4854 41.4479 39.4153 41.4608C39.2733 41.4858 39.1324 41.5028 38.9894 41.5138C37.0055 41.6638 35.0155 41.7759 33.0176 41.8508C32.0186 41.8888 31.0166 41.9169 30.0136 41.9359C29.5126 41.9448 29.0095 41.9519 28.5076 41.9569C28.0055 41.9619 27.5045 41.9639 27.0026 41.9639C24.9976 41.9639 22.9966 41.9269 20.9986 41.8508C19.9995 41.8138 19.0005 41.7668 18.0036 41.7108C17.5055 41.6819 17.0076 41.6519 16.5105 41.6189C16.0136 41.5869 15.5166 41.5519 15.0219 41.5142C14.7368 41.4922 14.4578 41.4442 14.1858 41.3672C14.0498 41.3292 13.9158 41.2832 13.7829 41.2302C13.7168 41.2042 13.6519 41.1752 13.5858 41.1453C13.5219 41.1152 13.4568 41.0833 13.3948 41.0502C13.1438 40.9172 12.9079 40.7592 12.6908 40.5752C12.6359 40.5292 12.5818 40.4812 12.5298 40.4332C12.4778 40.3832 12.4258 40.3322 12.3759 40.2812C12.2769 40.1782 12.1829 40.0702 12.0949 39.9583C12.0069 39.8462 11.9239 39.7292 11.8468 39.6093C11.8089 39.5492 11.7719 39.4882 11.7359 39.4252C11.6989 39.3632 11.6648 39.3002 11.6319 39.2362C11.4988 38.9802 11.3919 38.7152 11.3068 38.4432C11.2638 38.3073 11.2268 38.1682 11.1949 38.0282C11.1789 37.9583 11.1638 37.8882 11.1509 37.8173C11.1378 37.7462 11.1249 37.6761 11.1149 37.6052C11.0729 37.3212 11.0529 37.0363 11.0517 36.7489C11.0297 27.017 11.0047 17.2839 10.9771 7.55188C10.9761 7.25488 11.0021 6.96289 11.0561 6.67493C11.0821 6.53088 11.1161 6.38892 11.1571 6.24792C11.1781 6.17688 11.1991 6.10693 11.224 6.03699C11.2481 5.9679 11.2731 5.89893 11.3011 5.83191C11.411 5.56091 11.547 5.30493 11.7091 5.06396C11.75 5.00391 11.792 4.94495 11.8361 4.88599C11.88 4.82788 11.9261 4.771 11.973 4.71497C12.067 4.60291 12.166 4.49695 12.271 4.39697C12.4801 4.1969 12.708 4.0199 12.9571 3.86597C13.2061 3.71191 13.4671 3.58496 13.739 3.48389C13.875 3.43298 14.0141 3.38892 14.1541 3.35095C14.2261 3.33191 14.297 3.31396 14.3681 3.29797C14.4391 3.28198 14.5121 3.26794 14.5841 3.25598C14.8721 3.20496 15.1641 3.17896 15.4589 3.17688C17.3719 3.16089 19.2908 3.1499 21.2168 3.14197C22.1798 3.13696 23.1448 3.13489 24.1109 3.13293C24.5939 3.13196 25.0758 3.13098 25.5598 3.13098C26.0419 3.12988 26.5259 3.12988 27.0078 3.12988C28.9389 3.12988 30.8649 3.13391 32.7898 3.14099C33.7528 3.1449 34.7139 3.1499 35.6748 3.15588C36.6369 3.16199 37.5949 3.16895 38.5523 3.17688C38.8473 3.17896 39.1372 3.20496 39.4232 3.25488C39.7083 3.30396 39.9883 3.37891 40.2632 3.48096C40.3323 3.50598 40.4003 3.53296 40.4683 3.56189C40.5353 3.59094 40.6012 3.62097 40.6673 3.65295C40.7982 3.71692 40.9253 3.78589 41.0482 3.86194C41.2932 4.01392 41.5222 4.18994 41.7333 4.39197C41.7873 4.44189 41.8393 4.4939 41.8882 4.547C41.9383 4.59998 41.9862 4.65491 42.0332 4.70996C42.1272 4.82092 42.2152 4.93591 42.2963 5.05591C42.3772 5.1759 42.4523 5.29993 42.5203 5.42798C42.5553 5.49292 42.5883 5.55798 42.6193 5.625C42.6503 5.69189 42.6803 5.75989 42.7083 5.82788C42.7353 5.896 42.7622 5.96497 42.7853 6.03491C42.8092 6.10498 42.8323 6.17493 42.8523 6.24597C42.8943 6.38696 42.9282 6.52991 42.9552 6.67395C43.0093 6.96191 43.0353 7.25488 43.0341 7.55225C43.0061 17.2842 42.9801 27.0172 42.9582 36.7491" stroke="#FF00FF" stroke-width="0.283465" stroke-miterlimit="10" stroke-linecap="round" stroke-linejoin="round"/>
<path d="M17.8472 18.7041H15.7379C15.3473 18.7041 15.108 18.9482 15.108 19.3584V25.1786C15.108 25.5936 15.3473 25.8329 15.7379 25.8329C16.1285 25.8329 16.3678 25.5936 16.3678 25.1786V23.5626C16.3678 23.4843 16.4313 23.4209 16.5095 23.4209H17.7935C19.2193 23.4209 20.2202 22.4688 20.2202 21.0625C20.2202 19.6562 19.2485 18.7041 17.8472 18.7041ZM17.5103 22.4052H16.5095C16.4312 22.4052 16.3678 22.3417 16.3678 22.2635V19.8761C16.3678 19.7978 16.4313 19.7344 16.5095 19.7344H17.5152C18.4185 19.7344 18.941 20.2178 18.941 21.0625C18.941 21.9072 18.4137 22.4052 17.5104 22.4052H17.5103Z" fill="black"/>
<path d="M30.015 25.8673C28.2328 25.8673 27.1195 24.8028 27.1195 23.2647V19.2754C27.1195 18.8604 27.3588 18.6211 27.7494 18.6211C28.14 18.6211 28.3793 18.8604 28.3793 19.2754V23.1524C28.3793 24.1143 28.9701 24.7686 30.0151 24.7686C31.0601 24.7686 31.6557 24.1143 31.6557 23.1524V19.2754C31.6557 18.8604 31.8901 18.6211 32.2856 18.6211C32.6811 18.6211 32.9106 18.8604 32.9106 19.2754V23.2647C32.9106 24.8028 31.8022 25.8673 30.0151 25.8673H30.015Z" fill="black"/>
<path d="M25.2008 20.4727C24.8542 20.4728 24.7239 20.6779 24.7239 20.6779L24.5746 20.8528C24.5283 20.9071 24.4489 20.9183 24.3891 20.8793C24.1884 20.7488 23.6953 20.4874 22.9647 20.4874C21.632 20.4874 20.8118 21.4784 20.8118 23.0993C20.8118 24.7202 21.6418 25.6966 22.9404 25.6966C23.6169 25.6966 24.1105 25.4739 24.3722 25.3189C24.4665 25.263 24.5857 25.3315 24.5857 25.4411V25.5892C24.5857 26.2776 24.0927 26.7316 23.2675 26.7316C22.9343 26.7316 22.3495 26.4799 22.2228 26.4227C22.0308 26.3361 21.5804 26.2162 21.4015 26.5191C21.2655 26.7495 21.3585 27.0807 21.6367 27.2467C21.9712 27.4462 22.7002 27.6955 23.2577 27.6983C24.8541 27.7081 25.8062 26.8878 25.8062 25.5843V21.0927C25.8062 20.6924 25.5523 20.4727 25.2008 20.4727ZM23.3116 24.6861C22.5552 24.6861 22.0734 24.0909 22.0734 23.0988C22.0734 22.1067 22.5552 21.4926 23.3116 21.4926C24.068 21.4926 24.5787 22.1256 24.5787 23.0988C24.5787 24.072 24.0777 24.6861 23.3116 24.6861Z" fill="black"/>
<path d="M36.7086 24.8367C35.9516 24.8367 35.4486 24.1774 35.4437 23.1616C35.4486 22.1556 35.9224 21.4865 36.7086 21.4865C37.4948 21.4865 37.9832 22.1409 37.9832 23.1616C37.9832 24.1872 37.4656 24.8367 36.7086 24.8367ZM39.2285 23.1615C39.2285 21.5059 38.3934 20.4853 37.0796 20.4853C36.5936 20.4853 35.8235 20.7293 35.5226 20.8313C35.4551 20.8542 35.3804 20.8245 35.3487 20.7605C35.3407 20.7442 35.3324 20.728 35.322 20.7132C35.2027 20.5427 35.027 20.4707 34.8283 20.4707C34.4815 20.4707 34.2374 20.6953 34.2374 21.0958V26.9515C34.2374 27.3618 34.4864 27.5913 34.843 27.5913C35.1996 27.5913 35.4535 27.3618 35.4535 26.9515V25.5933C35.4535 25.4906 35.5594 25.4217 35.653 25.4639C36.0149 25.6268 36.6176 25.833 37.0993 25.833C38.3983 25.833 39.2286 24.8123 39.2286 23.1616L39.2285 23.1615Z" fill="black"/>
</svg>
