<svg width="68" height="54" viewBox="0 0 68 54" fill="none" xmlns="http://www.w3.org/2000/svg">
<rect x="1.8501" y="1.84998" width="63.8" height="50.3" rx="3" stroke="#8B1EFF" stroke-width="0.28"/>
<path d="M10.1999 37.0327C10.2199 37.6927 10.3699 38.3627 10.6399 38.9727C10.9099 39.6027 11.2899 40.1727 11.7599 40.6627C12.2299 41.1527 12.7999 41.5627 13.4199 41.8527C14.0299 42.1427 14.6999 42.3227 15.3699 42.3727C21.4899 42.6627 27.6199 42.8127 33.7499 42.8127C39.8799 42.8127 46.0099 42.6627 52.1299 42.3727C52.7999 42.3127 53.4699 42.1327 54.0799 41.8427C54.3899 41.6927 54.6799 41.5227 54.9599 41.3227C55.2399 41.1227 55.4999 40.9027 55.7399 40.6527C55.9799 40.4027 56.1899 40.1427 56.3799 39.8527C56.5699 39.5727 56.7299 39.2727 56.8599 38.9627C56.9899 38.6527 57.0899 38.3327 57.1599 38.0027C57.2299 37.6827 57.2799 37.3527 57.2899 37.0127C57.3699 27.0727 57.4699 17.1327 57.5999 7.20274C57.5799 6.66274 57.4999 6.12274 57.3299 5.61274C57.1699 5.10274 56.9399 4.61274 56.6299 4.17274C56.3299 3.73274 55.9599 3.34274 55.5499 3.02274C55.1299 2.70274 54.6699 2.44274 54.1699 2.25274C53.9399 2.16274 53.6999 2.09274 53.4599 2.04274C53.2199 1.99274 52.9699 1.95274 52.7199 1.92274C52.5499 1.90274 52.3899 1.89274 52.2199 1.89274C39.8999 1.83274 27.5799 1.83274 15.2699 1.91274C14.5799 1.91274 13.8799 2.05274 13.2399 2.31274C12.9199 2.44274 12.6099 2.59274 12.3199 2.78274C12.0299 2.97274 11.7499 3.18274 11.5099 3.42274C11.2599 3.66274 11.0399 3.94274 10.8399 4.22274C10.6399 4.51274 10.4799 4.82274 10.3499 5.15274C10.0799 5.80274 9.9199 6.51274 9.8999 7.22274C10.0199 17.1627 10.1299 27.1027 10.2099 37.0327" stroke="#8B1EFF" stroke-width="0.28" stroke-miterlimit="10"/>
<path d="M13.2901 4.34277C12.5101 4.34277 11.8701 4.98277 11.8701 5.76277V38.9228C11.8701 39.7028 12.5001 40.3428 13.2901 40.3428H54.1101C54.8901 40.3428 55.5301 39.7128 55.5301 38.9228V5.76277C55.5301 4.98277 54.8901 4.34277 54.1101 4.34277" stroke="#00FFFF" stroke-width="0.28" stroke-miterlimit="10"/>
<path d="M15.45 41.1327C15.26 41.1327 15.08 41.1027 14.9 41.0727C14.42 40.9927 13.95 40.8327 13.52 40.6127C13.09 40.3827 12.69 40.0827 12.36 39.7227C12.22 39.5727 12.09 39.4127 11.97 39.2527C11.68 38.8427 11.46 38.3827 11.32 37.9027C11.19 37.4627 11.12 37.0027 11.12 36.5427C11.1 31.6827 11.08 26.8327 11.06 21.9727C11.06 20.8027 11.06 19.6427 11.05 18.4727C11.04 15.2827 11.02 12.0927 11 8.90274C11 8.40274 11 7.89274 11 7.39274C11 7.35274 11 7.31274 11 7.27274C11 7.23274 11 7.19274 11 7.15274C11 7.11274 11 7.07274 11 7.03274C11 6.99274 11 6.95274 11 6.91274V6.79274C11 6.79274 11.02 6.71274 11.03 6.67274C11.03 6.63274 11.04 6.59274 11.05 6.56274C11.05 6.52274 11.06 6.48274 11.07 6.45274C11.07 6.41274 11.08 6.37274 11.09 6.34274C11.09 6.30274 11.11 6.26274 11.11 6.23274C11.12 6.19274 11.13 6.16274 11.14 6.12274C11.14 6.08274 11.16 6.05274 11.17 6.01274C11.18 5.97274 11.19 5.94274 11.2 5.90274C11.21 5.86274 11.22 5.83274 11.24 5.79274C11.25 5.75274 11.27 5.72274 11.28 5.68274C11.31 5.61274 11.34 5.55274 11.37 5.48274C11.4 5.41274 11.43 5.35274 11.47 5.29274C11.5 5.23274 11.54 5.16274 11.57 5.10274C11.61 5.04274 11.65 4.98274 11.69 4.92274C11.77 4.80274 11.86 4.68274 11.95 4.57274C12.04 4.46274 12.14 4.36274 12.24 4.26274C12.34 4.16274 12.45 4.07274 12.57 3.98274C12.68 3.89274 12.8 3.81274 12.93 3.73274C12.99 3.69274 13.05 3.66274 13.12 3.62274C13.18 3.59274 13.25 3.55274 13.31 3.52274C13.37 3.49274 13.44 3.46274 13.51 3.43274C13.58 3.40274 13.64 3.38274 13.71 3.35274C13.73 3.35274 13.75 3.34274 13.77 3.33274C13.79 3.33274 13.81 3.32274 13.83 3.31274C13.85 3.31274 13.87 3.30274 13.88 3.29274L13.94 3.27274C13.94 3.27274 13.98 3.26274 14 3.25274C14.02 3.25274 14.04 3.24274 14.06 3.23274C14.08 3.23274 14.1 3.23274 14.12 3.22274C14.14 3.22274 14.16 3.21274 14.18 3.20274C14.2 3.20274 14.22 3.19274 14.24 3.18274C14.26 3.18274 14.28 3.18274 14.3 3.17274C14.32 3.17274 14.34 3.17274 14.36 3.16274C14.38 3.16274 14.4 3.16274 14.42 3.15274C14.44 3.15274 14.46 3.15274 14.48 3.14274C14.5 3.14274 14.52 3.14274 14.54 3.13274C14.56 3.13274 14.58 3.13274 14.6 3.13274C14.62 3.13274 14.64 3.13274 14.66 3.12274C14.68 3.12274 14.7 3.12274 14.72 3.12274C14.74 3.12274 14.76 3.12274 14.78 3.12274C14.8 3.12274 14.82 3.12274 14.84 3.12274C14.86 3.12274 14.88 3.12274 14.9 3.12274C14.92 3.12274 14.94 3.12274 14.96 3.12274C14.98 3.12274 15 3.12274 15.02 3.12274C15.04 3.12274 15.06 3.12274 15.08 3.12274C15.1 3.12274 15.12 3.12274 15.14 3.12274C15.16 3.12274 15.18 3.12274 15.2 3.12274C15.22 3.12274 15.24 3.12274 15.26 3.12274C15.28 3.12274 15.3 3.12274 15.32 3.12274C15.34 3.12274 15.36 3.12274 15.38 3.12274C15.4 3.12274 15.42 3.12274 15.44 3.12274C15.54 3.12274 15.64 3.12274 15.75 3.12274C15.85 3.12274 15.95 3.12274 16.05 3.12274C16.15 3.12274 16.25 3.12274 16.36 3.12274C16.46 3.12274 16.56 3.12274 16.67 3.12274C16.77 3.12274 16.87 3.12274 16.98 3.12274C17.08 3.12274 17.18 3.12274 17.29 3.12274C17.39 3.12274 17.49 3.12274 17.6 3.12274C17.7 3.12274 17.8 3.12274 17.91 3.12274C18.01 3.12274 18.11 3.12274 18.22 3.12274C18.32 3.12274 18.42 3.12274 18.53 3.12274C18.63 3.12274 18.73 3.12274 18.84 3.12274C18.94 3.12274 19.04 3.12274 19.15 3.12274C19.25 3.12274 19.35 3.12274 19.45 3.12274C19.55 3.12274 19.66 3.12274 19.76 3.12274C19.86 3.12274 19.96 3.12274 20.07 3.12274C20.17 3.12274 20.27 3.12274 20.38 3.12274C20.48 3.12274 20.58 3.12274 20.69 3.12274C20.79 3.12274 20.89 3.12274 21 3.12274C21.1 3.12274 21.2 3.12274 21.31 3.12274C21.41 3.12274 21.51 3.12274 21.62 3.12274C21.72 3.12274 21.83 3.12274 21.93 3.12274H22.24C22.34 3.12274 22.44 3.12274 22.55 3.12274C22.65 3.12274 22.75 3.12274 22.86 3.12274C22.96 3.12274 23.07 3.12274 23.17 3.12274C23.27 3.12274 23.37 3.12274 23.48 3.12274C23.59 3.12274 23.68 3.12274 23.79 3.12274C23.89 3.12274 23.99 3.12274 24.1 3.12274H24.41C24.51 3.12274 24.61 3.12274 24.72 3.12274C24.83 3.12274 24.93 3.12274 25.03 3.12274C25.13 3.12274 25.23 3.12274 25.34 3.12274C25.45 3.12274 25.55 3.12274 25.65 3.12274C25.75 3.12274 25.86 3.12274 25.96 3.12274C26.06 3.12274 26.16 3.12274 26.27 3.12274C26.38 3.12274 26.47 3.12274 26.58 3.12274C26.68 3.12274 26.78 3.12274 26.89 3.12274H27.2C27.3 3.12274 27.4 3.12274 27.51 3.12274C27.62 3.12274 27.72 3.12274 27.82 3.12274H28.13C28.23 3.12274 28.34 3.12274 28.44 3.12274C28.54 3.12274 28.64 3.12274 28.75 3.12274H29.06C29.16 3.12274 29.27 3.12274 29.37 3.12274H29.68C29.78 3.12274 29.88 3.12274 29.99 3.12274H30.3C30.4 3.12274 30.5 3.12274 30.61 3.12274H31.22C31.32 3.12274 31.42 3.12274 31.53 3.12274H33.38C33.48 3.12274 33.59 3.12274 33.69 3.12274H34C34.1 3.12274 34.2 3.12274 34.31 3.12274H36.16C36.26 3.12274 36.37 3.12274 36.47 3.12274H37.08C37.18 3.12274 37.29 3.12274 37.39 3.12274H37.7C37.8 3.12274 37.91 3.12274 38.01 3.12274H38.32C38.42 3.12274 38.52 3.12274 38.63 3.12274H38.94C39.04 3.12274 39.14 3.12274 39.25 3.12274C39.36 3.12274 39.45 3.12274 39.56 3.12274H39.87C39.97 3.12274 40.08 3.12274 40.18 3.12274C40.28 3.12274 40.39 3.12274 40.49 3.12274H40.8C40.9 3.12274 41 3.12274 41.11 3.12274C41.21 3.12274 41.32 3.12274 41.42 3.12274C41.52 3.12274 41.62 3.12274 41.73 3.12274C41.84 3.12274 41.93 3.12274 42.04 3.12274C42.15 3.12274 42.25 3.12274 42.35 3.12274C42.45 3.12274 42.56 3.12274 42.66 3.12274C42.76 3.12274 42.86 3.12274 42.97 3.12274C43.08 3.12274 43.17 3.12274 43.28 3.12274C43.39 3.12274 43.48 3.12274 43.59 3.12274C43.7 3.12274 43.8 3.12274 43.9 3.12274C44 3.12274 44.1 3.12274 44.21 3.12274H44.52C44.62 3.12274 44.72 3.12274 44.83 3.12274C44.93 3.12274 45.04 3.12274 45.14 3.12274C45.24 3.12274 45.34 3.12274 45.45 3.12274C45.55 3.12274 45.65 3.12274 45.76 3.12274C45.86 3.12274 45.96 3.12274 46.07 3.12274C46.17 3.12274 46.28 3.12274 46.38 3.12274C46.48 3.12274 46.58 3.12274 46.69 3.12274C46.79 3.12274 46.89 3.12274 47 3.12274C47.1 3.12274 47.2 3.12274 47.31 3.12274C47.41 3.12274 47.51 3.12274 47.62 3.12274C47.72 3.12274 47.82 3.12274 47.93 3.12274C48.03 3.12274 48.13 3.12274 48.24 3.12274C48.34 3.12274 48.45 3.12274 48.55 3.12274C48.65 3.12274 48.75 3.12274 48.86 3.12274C48.96 3.12274 49.06 3.12274 49.17 3.12274C49.27 3.12274 49.38 3.12274 49.48 3.12274C49.58 3.12274 49.68 3.12274 49.79 3.12274C49.89 3.12274 49.99 3.12274 50.09 3.12274C50.19 3.12274 50.29 3.12274 50.4 3.12274C50.5 3.12274 50.6 3.12274 50.71 3.12274C50.81 3.12274 50.91 3.12274 51.01 3.12274C51.11 3.12274 51.21 3.12274 51.32 3.12274C51.42 3.12274 51.52 3.12274 51.63 3.12274C51.73 3.12274 51.83 3.12274 51.93 3.12274C52.03 3.12274 52.13 3.12274 52.24 3.12274C52.28 3.12274 52.32 3.12274 52.36 3.12274C52.4 3.12274 52.44 3.12274 52.48 3.12274C52.52 3.12274 52.56 3.12274 52.6 3.12274C52.64 3.12274 52.68 3.12274 52.72 3.13274C52.76 3.13274 52.8 3.13274 52.84 3.14274L52.96 3.16274C52.96 3.16274 53.04 3.17274 53.08 3.18274C53.12 3.18274 53.16 3.19274 53.2 3.20274C53.24 3.20274 53.27 3.22274 53.31 3.22274C53.35 3.22274 53.39 3.24274 53.42 3.25274C53.46 3.25274 53.5 3.27274 53.53 3.28274C53.57 3.28274 53.6 3.30274 53.64 3.31274C53.68 3.32274 53.71 3.33274 53.75 3.34274C53.79 3.35274 53.82 3.36274 53.86 3.37274C53.9 3.38274 53.93 3.39274 53.97 3.41274C54.04 3.44274 54.11 3.46274 54.17 3.49274C54.24 3.52274 54.3 3.55274 54.37 3.58274C54.43 3.61274 54.5 3.65274 54.56 3.68274C54.62 3.71274 54.69 3.75274 54.75 3.79274C54.87 3.87274 54.99 3.95274 55.11 4.04274C55.22 4.13274 55.33 4.22274 55.43 4.32274C55.53 4.42274 55.63 4.52274 55.72 4.63274C55.81 4.74274 55.9 4.86274 55.98 4.98274C56.02 5.04274 56.06 5.10274 56.09 5.16274C56.13 5.22274 56.16 5.28274 56.19 5.35274C56.22 5.41274 56.25 5.48274 56.28 5.54274C56.31 5.61274 56.34 5.67274 56.36 5.74274C56.36 5.76274 56.37 5.78274 56.38 5.80274C56.38 5.82274 56.39 5.84274 56.4 5.85274L56.42 5.91274C56.42 5.91274 56.43 5.95274 56.44 5.97274C56.44 5.99274 56.45 6.01274 56.46 6.03274C56.46 6.05274 56.47 6.07274 56.48 6.09274C56.48 6.11274 56.49 6.13274 56.5 6.15274C56.5 6.17274 56.51 6.19274 56.52 6.21274V6.27274C56.52 6.27274 56.54 6.31274 56.55 6.33274C56.55 6.35274 56.55 6.37274 56.56 6.39274C56.56 6.41274 56.56 6.43274 56.57 6.45274C56.57 6.47274 56.57 6.49274 56.58 6.51274V6.57274C56.58 6.57274 56.6 6.61274 56.6 6.63274C56.6 6.65274 56.6 6.67274 56.6 6.69274C56.6 6.71274 56.6 6.73274 56.6 6.75274C56.6 6.77274 56.6 6.79274 56.6 6.81274C56.6 6.83274 56.6 6.85274 56.6 6.87274C56.6 6.89274 56.6 6.91274 56.6 6.93274C56.6 6.95274 56.6 6.97274 56.6 6.99274C56.6 7.01274 56.6 7.03274 56.6 7.05274C56.6 7.07274 56.6 7.09274 56.6 7.11274C56.6 7.13274 56.6 7.15274 56.6 7.17274V7.23274C56.6 7.23274 56.6 7.27274 56.6 7.29274C56.6 7.31274 56.6 7.33274 56.6 7.35274C56.6 7.37274 56.6 7.39274 56.6 7.41274V7.47274V8.99274C56.58 12.1827 56.57 15.3727 56.55 18.5727C56.55 19.7327 56.54 20.9027 56.54 22.0627C56.52 26.9127 56.5 31.7727 56.48 36.6227C56.48 36.6627 56.48 36.7027 56.48 36.7427C56.48 36.7827 56.48 36.8227 56.48 36.8627C56.48 36.9027 56.48 36.9427 56.48 36.9827C56.48 37.0227 56.48 37.0627 56.48 37.1027C56.48 37.1427 56.48 37.1827 56.47 37.2127C56.47 37.2527 56.46 37.2927 56.45 37.3227C56.45 37.3627 56.44 37.4027 56.43 37.4327L56.41 37.5427C56.41 37.5427 56.4 37.6227 56.39 37.6527C56.39 37.6927 56.37 37.7327 56.36 37.7627C56.36 37.8027 56.34 37.8327 56.33 37.8727C56.32 37.9127 56.31 37.9427 56.3 37.9827C56.29 38.0227 56.28 38.0527 56.27 38.0927C56.26 38.1327 56.25 38.1627 56.23 38.2027C56.22 38.2427 56.2 38.2727 56.19 38.3127C56.14 38.4527 56.08 38.5827 56.01 38.7227C55.95 38.8527 55.88 38.9827 55.8 39.1027C55.72 39.2227 55.64 39.3427 55.55 39.4627C55.46 39.5727 55.37 39.6927 55.27 39.7927C55.17 39.9027 55.07 40.0027 54.96 40.1027C54.85 40.2027 54.73 40.2927 54.61 40.3727C54.55 40.4127 54.49 40.4527 54.43 40.4927C54.37 40.5327 54.31 40.5727 54.24 40.6027C54.18 40.6427 54.11 40.6727 54.05 40.7027C53.98 40.7327 53.92 40.7727 53.85 40.8027C53.83 40.8027 53.82 40.8127 53.8 40.8227C53.78 40.8327 53.76 40.8427 53.75 40.8427C53.73 40.8427 53.72 40.8527 53.7 40.8627C53.68 40.8627 53.67 40.8727 53.65 40.8827L53.6 40.9027C53.6 40.9027 53.56 40.9127 53.55 40.9227L53.5 40.9427C53.5 40.9427 53.47 40.9527 53.45 40.9627C53.43 40.9627 53.41 40.9727 53.4 40.9827C53.38 40.9827 53.36 40.9927 53.35 41.0027C53.33 41.0027 53.31 41.0127 53.3 41.0227C53.28 41.0227 53.26 41.0327 53.25 41.0427C53.23 41.0427 53.21 41.0527 53.2 41.0527L53.15 41.0727C53.15 41.0727 53.11 41.0727 53.1 41.0827C53.08 41.0827 53.06 41.0827 53.05 41.0927C53.03 41.0927 53.01 41.0927 52.99 41.1027C52.97 41.1027 52.95 41.1027 52.93 41.1127C52.91 41.1127 52.89 41.1127 52.88 41.1227C52.86 41.1227 52.84 41.1227 52.82 41.1327C52.8 41.1327 52.78 41.1327 52.76 41.1327H52.71L52.65 41.1527C52.63 41.1527 52.61 41.1527 52.59 41.1527C52.57 41.1527 52.55 41.1527 52.53 41.1527C52.51 41.1527 52.49 41.1527 52.47 41.1527C52.45 41.1527 52.43 41.1527 52.41 41.1527C52.39 41.1527 52.37 41.1527 52.35 41.1527C52.33 41.1527 52.31 41.1527 52.29 41.1527C52.27 41.1527 52.25 41.1527 52.23 41.1527C52.21 41.1527 52.19 41.1527 52.17 41.1527C52.07 41.1527 51.97 41.1627 51.86 41.1727C51.76 41.1727 51.66 41.1827 51.56 41.1927C51.46 41.1927 51.36 41.2027 51.25 41.2027C51.15 41.2027 51.05 41.2127 50.94 41.2227C50.84 41.2227 50.74 41.2227 50.64 41.2327C50.54 41.2327 50.44 41.2327 50.33 41.2427C50.23 41.2427 50.13 41.2427 50.02 41.2527C49.92 41.2527 49.82 41.2527 49.72 41.2627C49.62 41.2627 49.52 41.2627 49.41 41.2727C49.31 41.2727 49.21 41.2727 49.1 41.2827C49 41.2827 48.9 41.2827 48.79 41.2927C48.69 41.2927 48.59 41.2927 48.48 41.3027C48.38 41.3027 48.28 41.3027 48.17 41.3127C48.07 41.3127 47.97 41.3127 47.86 41.3227C47.76 41.3227 47.66 41.3227 47.55 41.3327C47.45 41.3327 47.35 41.3327 47.24 41.3427C47.14 41.3427 47.04 41.3427 46.93 41.3527C46.83 41.3527 46.73 41.3527 46.62 41.3627C46.52 41.3627 46.42 41.3627 46.31 41.3727C46.21 41.3727 46.11 41.3727 46 41.3827C45.9 41.3827 45.8 41.3827 45.69 41.3827C45.59 41.3827 45.49 41.3827 45.38 41.3927C45.27 41.4027 45.18 41.3927 45.07 41.4027C44.97 41.4027 44.87 41.4027 44.76 41.4027C44.66 41.4027 44.56 41.4027 44.45 41.4027C44.35 41.4027 44.25 41.4027 44.14 41.4027C44.04 41.4027 43.94 41.4027 43.83 41.4027C43.73 41.4027 43.63 41.4027 43.52 41.4027C43.42 41.4027 43.32 41.4027 43.21 41.4027C43.11 41.4027 43.01 41.4027 42.9 41.4027C42.8 41.4027 42.7 41.4027 42.59 41.4027C42.49 41.4027 42.39 41.4027 42.28 41.4027C42.18 41.4027 42.07 41.4027 41.97 41.4027C41.87 41.4027 41.77 41.4027 41.66 41.4027C41.56 41.4027 41.46 41.4027 41.35 41.4027H41.04C40.94 41.4027 40.84 41.4127 40.73 41.4127H40.42C40.32 41.4127 40.22 41.4127 40.11 41.4227C40.01 41.4227 39.91 41.4227 39.8 41.4227C39.7 41.4227 39.59 41.4227 39.49 41.4227C39.39 41.4227 39.29 41.4227 39.18 41.4227H38.87C38.77 41.4227 38.66 41.4227 38.56 41.4227C38.46 41.4227 38.36 41.4227 38.25 41.4227C38.14 41.4227 38.05 41.4227 37.94 41.4227C37.84 41.4227 37.73 41.4227 37.63 41.4227C37.53 41.4227 37.43 41.4227 37.32 41.4227H37.01C36.91 41.4227 36.8 41.4227 36.7 41.4227C36.6 41.4227 36.49 41.4227 36.39 41.4227C36.29 41.4227 36.19 41.4227 36.08 41.4227C35.98 41.4227 35.88 41.4227 35.77 41.4227H35.46H35.15C35.05 41.4227 34.95 41.4227 34.84 41.4227H34.53C34.43 41.4227 34.32 41.4227 34.22 41.4227H33.3C33.2 41.4227 33.1 41.4227 32.99 41.4227H32.68C32.58 41.4227 32.48 41.4227 32.37 41.4227C32.27 41.4227 32.17 41.4227 32.06 41.4227H31.75C31.65 41.4227 31.55 41.4227 31.44 41.4227C31.34 41.4227 31.23 41.4227 31.13 41.4227C31.03 41.4227 30.92 41.4227 30.82 41.4227C30.72 41.4227 30.62 41.4227 30.51 41.4227H30.2H29.89C29.79 41.4227 29.69 41.4227 29.58 41.4227C29.48 41.4227 29.38 41.4227 29.27 41.4227C29.17 41.4227 29.06 41.4227 28.96 41.4227C28.86 41.4227 28.76 41.4227 28.65 41.4227C28.55 41.4227 28.45 41.4227 28.34 41.4227C28.24 41.4227 28.14 41.4227 28.03 41.4227C27.93 41.4227 27.82 41.4227 27.72 41.4227C27.62 41.4227 27.52 41.4227 27.41 41.4227C27.31 41.4227 27.21 41.4227 27.1 41.4227C27 41.4227 26.9 41.4227 26.79 41.4227H26.48C26.38 41.4227 26.28 41.4227 26.17 41.4127C26.07 41.4127 25.97 41.4127 25.86 41.4127C25.76 41.4127 25.66 41.4127 25.55 41.4127C25.45 41.4127 25.34 41.4127 25.24 41.4127H24.93C24.83 41.4127 24.73 41.4027 24.62 41.4027C24.52 41.4027 24.41 41.4027 24.31 41.4027C24.21 41.4027 24.1 41.4027 24 41.4027C23.9 41.4027 23.8 41.4027 23.69 41.4027C23.59 41.4027 23.49 41.4027 23.38 41.4027C23.28 41.4027 23.18 41.4027 23.07 41.4027C22.97 41.4027 22.87 41.4027 22.76 41.4027C22.66 41.4027 22.56 41.4027 22.45 41.4027C22.35 41.4027 22.25 41.4027 22.14 41.3927C22.04 41.3927 21.94 41.3927 21.83 41.3827C21.73 41.3827 21.63 41.3827 21.52 41.3827C21.42 41.3827 21.32 41.3827 21.21 41.3727C21.11 41.3727 21.01 41.3727 20.9 41.3627C20.8 41.3627 20.7 41.3627 20.59 41.3527C20.49 41.3527 20.39 41.3527 20.28 41.3427C20.18 41.3427 20.08 41.3427 19.97 41.3327C19.87 41.3327 19.77 41.3327 19.66 41.3227C19.56 41.3227 19.46 41.3227 19.35 41.3127C19.25 41.3127 19.15 41.3127 19.04 41.3027C18.94 41.3027 18.84 41.3027 18.73 41.2927C18.63 41.2927 18.53 41.2927 18.42 41.2827C18.32 41.2827 18.22 41.2827 18.11 41.2727C18.01 41.2727 17.91 41.2727 17.8 41.2627C17.7 41.2627 17.6 41.2627 17.5 41.2527C17.4 41.2527 17.3 41.2527 17.19 41.2427C17.09 41.2427 16.99 41.2427 16.88 41.2327C16.78 41.2327 16.68 41.2227 16.58 41.2227C16.48 41.2227 16.38 41.2127 16.27 41.2027H15.97C15.87 41.1827 15.77 41.1827 15.67 41.1727C15.57 41.1727 15.47 41.1627 15.36 41.1527L15.45 41.1327Z" stroke="#FF00FF" stroke-width="0.28" stroke-linecap="round" stroke-linejoin="round"/>
<path d="M53.4388 44.9091V50H52.8224V45.5554H52.7925L51.5496 46.3807V45.7543L52.8224 44.9091H53.4388ZM55.0397 50.0398C54.9171 50.0398 54.8118 49.9959 54.724 49.908C54.6362 49.8202 54.5922 49.715 54.5922 49.5923C54.5922 49.4697 54.6362 49.3645 54.724 49.2766C54.8118 49.1888 54.9171 49.1449 55.0397 49.1449C55.1623 49.1449 55.2675 49.1888 55.3554 49.2766C55.4432 49.3645 55.4871 49.4697 55.4871 49.5923C55.4871 49.6735 55.4664 49.7481 55.425 49.8161C55.3852 49.884 55.3314 49.9387 55.2634 49.9801C55.1971 50.0199 55.1225 50.0398 55.0397 50.0398ZM56.5299 50V49.5526L58.2103 47.7131C58.4075 47.4976 58.5699 47.3104 58.6975 47.1513C58.8251 46.9905 58.9196 46.8397 58.9809 46.6989C59.0439 46.5563 59.0754 46.4072 59.0754 46.2514C59.0754 46.0724 59.0323 45.9175 58.9461 45.7866C58.8616 45.6557 58.7456 45.5546 58.5981 45.4833C58.4506 45.4121 58.2849 45.3764 58.1009 45.3764C57.9054 45.3764 57.7347 45.417 57.5889 45.4982C57.4447 45.5778 57.3328 45.6896 57.2533 45.8338C57.1754 45.978 57.1365 46.147 57.1365 46.3409H56.5498C56.5498 46.0426 56.6186 45.7808 56.7561 45.5554C56.8937 45.33 57.0809 45.1544 57.3179 45.0284C57.5566 44.9025 57.8242 44.8395 58.1208 44.8395C58.4191 44.8395 58.6834 44.9025 58.9138 45.0284C59.1441 45.1544 59.3248 45.3242 59.4557 45.538C59.5866 45.7518 59.6521 45.9896 59.6521 46.2514C59.6521 46.4387 59.6181 46.6218 59.5502 46.8008C59.4839 46.9781 59.3679 47.1761 59.2021 47.3949C59.0381 47.612 58.8102 47.8771 58.5186 48.1903L57.3751 49.4134V49.4531H59.7416V50H56.5299ZM62.3591 50.0696C62.0674 50.0696 61.8048 50.0116 61.5711 49.8956C61.3374 49.7796 61.1502 49.6205 61.0093 49.4183C60.8685 49.2161 60.7914 48.9858 60.7781 48.7273H61.3747C61.3979 48.9576 61.5023 49.1482 61.6879 49.299C61.8752 49.4482 62.0989 49.5227 62.3591 49.5227C62.5679 49.5227 62.7535 49.4738 62.9159 49.3761C63.08 49.2783 63.2084 49.1441 63.3012 48.9734C63.3957 48.801 63.4429 48.6063 63.4429 48.3892C63.4429 48.1671 63.394 47.9691 63.2963 47.7951C63.2001 47.6194 63.0676 47.4811 62.8985 47.38C62.7295 47.2789 62.5364 47.2275 62.3193 47.2259C62.1636 47.2242 62.0036 47.2482 61.8396 47.2979C61.6755 47.346 61.5405 47.4081 61.4344 47.4844L60.8577 47.4148L61.1659 44.9091H63.8108V45.456H61.683L61.504 46.9574H61.5338C61.6382 46.8745 61.7691 46.8058 61.9266 46.7511C62.084 46.6964 62.2481 46.669 62.4188 46.669C62.7303 46.669 63.0079 46.7436 63.2515 46.8928C63.4968 47.0402 63.689 47.2424 63.8282 47.4993C63.9691 47.7562 64.0395 48.0495 64.0395 48.3793C64.0395 48.7041 63.9666 48.9941 63.8208 49.2493C63.6766 49.5028 63.4777 49.7034 63.2242 49.8509C62.9706 49.9967 62.6823 50.0696 62.3591 50.0696Z" fill="#0000FF"/>
<path d="M26.0464 24.0551C26.2531 23.8538 26.5641 23.8032 26.8237 23.9291L30.729 25.8266C31.5093 26.194 31.5093 27.3068 30.729 27.6742L26.8237 29.5717C26.6116 29.6745 26.3605 29.6607 26.1606 29.5356C25.961 29.4104 25.8395 29.1911 25.8394 28.9555V28.9457C25.8394 28.8482 25.8606 28.7504 25.9009 28.6615L26.3569 27.6567C26.399 27.564 26.3317 27.4595 26.23 27.4594H20.5894C20.1977 27.459 19.8796 27.1411 19.8794 26.7494C19.8796 26.3577 20.1977 26.0398 20.5894 26.0395H26.2349C26.3365 26.0393 26.4039 25.9338 26.3618 25.8412L25.9009 24.8285C25.7817 24.5659 25.8401 24.2566 26.0464 24.0551ZM33.4097 23.8696C33.8016 23.8696 34.1194 24.1877 34.1196 24.5795V28.9291C34.1196 29.3212 33.8017 29.639 33.4097 29.6391C33.0177 29.6389 32.6997 29.3211 32.6997 28.9291V24.5795C32.7 24.1877 33.0179 23.8697 33.4097 23.8696ZM20.5894 15.8696C20.9813 15.8696 21.299 16.1876 21.2993 16.5795V20.9291C21.2993 21.3212 20.9815 21.6391 20.5894 21.6391C20.1974 21.6389 19.8794 21.3211 19.8794 20.9291V16.5795C19.8797 16.1878 20.1976 15.8698 20.5894 15.8696ZM27.1753 15.9291C27.4349 15.8031 27.7459 15.8538 27.9526 16.0551C28.1591 16.2566 28.2175 16.5658 28.0981 16.8285L27.6372 17.8412C27.5952 17.9337 27.6627 18.0391 27.7642 18.0395H33.4097C33.8015 18.0397 34.1194 18.3576 34.1196 18.7494C34.1194 19.1412 33.8015 19.4592 33.4097 19.4594H27.769C27.6676 19.4597 27.6002 19.5641 27.6421 19.6567L28.0981 20.6615C28.1384 20.7504 28.1597 20.8482 28.1597 20.9457V20.9555C28.1595 21.1912 28.0381 21.4104 27.8384 21.5356C27.6385 21.6606 27.3874 21.6746 27.1753 21.5717L23.27 19.6742C22.49 19.3067 22.49 18.194 23.27 17.8266L27.1753 15.9291Z" fill="black"/>
</svg>
