<svg width="54" height="54" viewBox="0 0 54 54" fill="none" xmlns="http://www.w3.org/2000/svg">
<rect x="1.8501" y="1.8501" width="50.3" height="50.3" rx="3" stroke="#8B1EFF" stroke-width="0.28"/>
<path d="M11.4159 40.9327C10.9698 40.4187 10.6218 39.8187 10.3779 39.1807C10.1359 38.5486 9.99377 37.8777 9.96387 37.2056L9.94531 7.22314C9.96619 6.68164 10.0662 6.13867 10.2383 5.62256C10.3237 5.36511 10.4277 5.11511 10.5479 4.87305C10.668 4.6333 10.8049 4.40027 10.958 4.1792C11.1099 3.95972 11.2788 3.75171 11.4629 3.55762C11.6456 3.36548 11.8436 3.1875 12.0537 3.02539C12.2628 2.86438 12.4847 2.71936 12.7148 2.59131C12.9446 2.46338 13.1836 2.35229 13.4297 2.25928C13.5842 2.20203 13.7423 2.15002 13.9023 2.10693C14.0616 2.06311 14.2236 2.0271 14.3857 1.99707C14.549 1.96729 14.7129 1.94336 14.877 1.92627C15.042 1.90906 15.208 1.89807 15.374 1.89502C19.2509 1.86475 23.1278 1.84863 27.0049 1.84863C30.8817 1.84912 34.7596 1.86414 38.6367 1.89502C39.3231 1.90503 40.0171 2.04102 40.6592 2.29395C40.981 2.42175 41.2909 2.57874 41.583 2.76465C41.8763 2.95227 42.1514 3.16821 42.4014 3.41016C42.9058 3.89917 43.3108 4.49512 43.5918 5.14307C43.8774 5.80115 44.0394 6.51318 44.0645 7.22314L44.0469 37.2056C44.0157 37.8772 43.8767 38.5492 43.6348 39.1812C43.3896 39.8192 43.0397 40.4182 42.5938 40.9331C42.1498 41.4473 41.6078 41.8783 41.0059 42.1982C40.4106 42.5143 39.7577 42.7234 39.0947 42.8013C31.047 43.4143 22.964 43.4143 14.916 42.8013C14.2518 42.7229 13.5999 42.5118 13.006 42.1962C12.403 41.8751 11.861 41.4462 11.4159 40.9327Z" stroke="#8B1EFF" stroke-width="0.283" stroke-miterlimit="10"/>
<rect x="12.6882" y="5.46777" width="28.63" height="34.34" rx="1.46" stroke="#00FFFF" stroke-width="0.28"/>
<path d="M42.9594 36.7489C42.9584 37.0359 42.9374 37.3198 42.8964 37.6008C42.8544 37.8809 42.7934 38.1578 42.7084 38.4309C42.6863 38.4999 42.6643 38.5679 42.6393 38.6359C42.6154 38.7029 42.5894 38.7709 42.5624 38.8379C42.5083 38.9708 42.4484 39.1008 42.3833 39.2279C42.2523 39.4818 42.0994 39.7229 41.9224 39.9508C41.8783 40.0068 41.8313 40.0629 41.7843 40.1178C41.7373 40.1719 41.6884 40.2239 41.6393 40.2759C41.5413 40.3789 41.4363 40.4758 41.3294 40.5679C41.2204 40.6599 41.1073 40.7458 40.9894 40.8258C40.9303 40.8658 40.8704 40.9049 40.8084 40.9408C40.7473 40.9779 40.6844 41.0138 40.6214 41.0479C40.3683 41.1819 40.1044 41.2869 39.8323 41.3649C39.7633 41.3849 39.6944 41.4019 39.6254 41.4178C39.5553 41.4338 39.4854 41.4479 39.4153 41.4608C39.2733 41.4858 39.1324 41.5028 38.9894 41.5138C37.0055 41.6638 35.0155 41.7759 33.0176 41.8508C32.0186 41.8888 31.0166 41.9169 30.0136 41.9359C29.5126 41.9448 29.0095 41.9519 28.5076 41.9569C28.0055 41.9619 27.5045 41.9639 27.0026 41.9639C24.9976 41.9639 22.9966 41.9269 20.9986 41.8508C19.9995 41.8138 19.0005 41.7668 18.0036 41.7108C17.5055 41.6819 17.0076 41.6519 16.5105 41.6189C16.0136 41.5869 15.5166 41.5519 15.0219 41.5142C14.7368 41.4922 14.4578 41.4442 14.1858 41.3672C14.0498 41.3292 13.9158 41.2832 13.7829 41.2302C13.7168 41.2042 13.6519 41.1752 13.5858 41.1453C13.5219 41.1152 13.4568 41.0833 13.3948 41.0502C13.1438 40.9172 12.9079 40.7592 12.6908 40.5752C12.6359 40.5292 12.5818 40.4812 12.5298 40.4332C12.4778 40.3832 12.4258 40.3322 12.3759 40.2812C12.2769 40.1782 12.1829 40.0702 12.0949 39.9583C12.0069 39.8462 11.9239 39.7292 11.8468 39.6093C11.8089 39.5492 11.7719 39.4882 11.7359 39.4252C11.6989 39.3632 11.6648 39.3002 11.6319 39.2362C11.4988 38.9802 11.3919 38.7152 11.3068 38.4432C11.2638 38.3073 11.2268 38.1682 11.1949 38.0282C11.1789 37.9583 11.1638 37.8882 11.1509 37.8173C11.1378 37.7462 11.1249 37.6761 11.1149 37.6052C11.0729 37.3212 11.0529 37.0363 11.0517 36.7489C11.0297 27.017 11.0047 17.2839 10.9771 7.55188C10.9761 7.25488 11.0021 6.96289 11.0561 6.67493C11.0821 6.53088 11.1161 6.38892 11.1571 6.24792C11.1781 6.17688 11.1991 6.10693 11.224 6.03699C11.2481 5.9679 11.2731 5.89893 11.3011 5.83191C11.411 5.56091 11.547 5.30493 11.7091 5.06396C11.75 5.00391 11.792 4.94495 11.8361 4.88599C11.88 4.82788 11.9261 4.771 11.973 4.71497C12.067 4.60291 12.166 4.49695 12.271 4.39697C12.4801 4.1969 12.708 4.0199 12.9571 3.86597C13.2061 3.71191 13.4671 3.58496 13.739 3.48389C13.875 3.43298 14.0141 3.38892 14.1541 3.35095C14.2261 3.33191 14.297 3.31396 14.3681 3.29797C14.4391 3.28198 14.5121 3.26794 14.5841 3.25598C14.8721 3.20496 15.1641 3.17896 15.4589 3.17688C17.3719 3.16089 19.2908 3.1499 21.2168 3.14197C22.1798 3.13696 23.1448 3.13489 24.1109 3.13293C24.5939 3.13196 25.0758 3.13098 25.5598 3.13098C26.0419 3.12988 26.5259 3.12988 27.0078 3.12988C28.9389 3.12988 30.8649 3.13391 32.7898 3.14099C33.7528 3.1449 34.7139 3.1499 35.6748 3.15588C36.6369 3.16199 37.5949 3.16895 38.5523 3.17688C38.8473 3.17896 39.1372 3.20496 39.4232 3.25488C39.7083 3.30396 39.9883 3.37891 40.2632 3.48096C40.3323 3.50598 40.4003 3.53296 40.4683 3.56189C40.5353 3.59094 40.6012 3.62097 40.6673 3.65295C40.7982 3.71692 40.9253 3.78589 41.0482 3.86194C41.2932 4.01392 41.5222 4.18994 41.7333 4.39197C41.7873 4.44189 41.8393 4.4939 41.8882 4.547C41.9383 4.59998 41.9862 4.65491 42.0332 4.70996C42.1272 4.82092 42.2152 4.93591 42.2963 5.05591C42.3772 5.1759 42.4523 5.29993 42.5203 5.42798C42.5553 5.49292 42.5883 5.55798 42.6193 5.625C42.6503 5.69189 42.6803 5.75989 42.7083 5.82788C42.7353 5.896 42.7622 5.96497 42.7853 6.03491C42.8092 6.10498 42.8323 6.17493 42.8523 6.24597C42.8943 6.38696 42.9282 6.52991 42.9552 6.67395C43.0093 6.96191 43.0353 7.25488 43.0341 7.55225C43.0061 17.2842 42.9801 27.0172 42.9582 36.7491" stroke="#FF00FF" stroke-width="0.283465" stroke-miterlimit="10" stroke-linecap="round" stroke-linejoin="round"/>
<path fill-rule="evenodd" clip-rule="evenodd" d="M30.7949 35.0747C30.7736 35.1203 30.7296 35.1502 30.6794 35.1539C30.5629 35.1626 30.4509 35.1705 30.3442 35.1775C29.9529 35.203 29.6564 35.5409 29.682 35.9322C29.7075 36.3235 30.0454 36.62 30.4367 36.5945C32.472 36.4617 36.3427 36.0084 38.5121 35.6323C38.5782 35.6208 38.6421 35.6578 38.6658 35.7206C38.7596 35.9696 38.8503 36.2222 38.937 36.4774C39.0632 36.8486 39.4665 37.0473 39.8378 36.9211C40.209 36.7949 40.4077 36.3917 40.2815 36.0204C39.6365 34.1227 38.7783 32.3396 37.9691 31.0752C37.7577 30.745 37.3187 30.6486 36.9884 30.8599C36.6581 31.0713 36.5617 31.5104 36.7731 31.8407C37.1718 32.4636 37.5913 33.2382 37.9895 34.1027C38.0279 34.1861 37.9766 34.2829 37.886 34.2976C36.44 34.5332 34.3859 34.7936 32.6218 34.9765C32.5155 34.9875 32.4368 34.88 32.4786 34.7816C33.5267 32.3096 34.4874 29.1823 34.9497 27.3754C35.0469 26.9955 34.8177 26.6088 34.4379 26.5116C34.058 26.4144 33.6712 26.6436 33.574 27.0235C33.0636 29.0188 31.9374 32.6296 30.7949 35.0747Z" fill="black"/>
<path d="M22.8879 10.9352C22.8879 11.8352 22.0629 12.9152 20.6829 12.9152C19.4979 12.9152 18.1929 11.8952 17.4279 11.8952C16.6029 11.8952 16.3929 12.7952 15.7629 12.7952C15.2829 12.7952 15.1179 12.4202 15.1179 12.0752C15.1179 11.1752 15.9429 10.0952 17.2329 10.0952C18.5079 10.0952 19.8129 11.1152 20.5779 11.1152C21.4029 11.1152 21.6129 10.2152 22.2429 10.2152C22.7229 10.2152 22.8879 10.5902 22.8879 10.9352Z" fill="black"/>
<path d="M19 35.0616L19.2885 33.6357C19.3061 33.549 19.2398 33.4679 19.1513 33.4679H18.0108C17.9441 33.4679 17.8867 33.5149 17.8736 33.5803L17.5303 35.2849C17.4559 35.6693 17.2141 35.874 16.8854 35.874C16.5443 35.874 16.3149 35.6445 16.3149 35.2911C16.3149 35.2167 16.3211 35.1298 16.3335 35.0616L16.6275 33.6362C16.6454 33.5493 16.579 33.4679 16.4903 33.4679H16.1661C15.7072 33.4679 15.4653 33.2323 15.4653 32.8602C15.4653 32.5005 15.7072 32.2711 16.1661 32.2711H16.7829C16.8497 32.2711 16.9072 32.2239 16.9202 32.1583L17.1809 30.8446C17.1981 30.7581 17.1318 30.6774 17.0436 30.6774H16.7614C16.3025 30.6774 16.0606 30.4355 16.0606 30.0697C16.0606 29.7038 16.3025 29.4744 16.7614 29.4744H17.3416C17.4081 29.4744 17.4655 29.4276 17.4788 29.3624L17.8032 27.7752C17.8714 27.4094 18.107 27.2109 18.4109 27.2109C18.7644 27.2109 19.0186 27.4652 19.0186 27.8062C19.0186 27.8683 19.0062 27.9489 18.9938 28.0171L18.7305 29.3063C18.7127 29.3931 18.779 29.4744 18.8676 29.4744H20.0019C20.0684 29.4744 20.1258 29.4276 20.1391 29.3624L20.4635 27.7752C20.5379 27.4156 20.7735 27.2109 21.0898 27.2109C21.4371 27.2109 21.6851 27.4652 21.6851 27.8062C21.6851 27.8683 21.6789 27.9489 21.6665 28.0171L21.3978 29.3058C21.3797 29.3927 21.446 29.4744 21.5348 29.4744H21.9394C22.3982 29.4744 22.6277 29.6976 22.6277 30.0635C22.6277 30.4417 22.392 30.6774 21.927 30.6774H21.2415C21.1749 30.6774 21.1175 30.7243 21.1043 30.7896L20.8045 32.2711H21.344C21.8029 32.2711 22.0324 32.4881 22.0324 32.8602C22.0324 33.2323 21.7967 33.4679 21.3316 33.4679H20.6773C20.6106 33.4679 20.5532 33.5149 20.5401 33.5803L20.1968 35.2849C20.1224 35.6693 19.8868 35.874 19.5643 35.874C19.217 35.874 18.9752 35.6383 18.9752 35.2911C18.9752 35.2167 18.9876 35.1298 19 35.0616ZM18.4947 30.5596C18.4279 30.5596 18.3705 30.6067 18.3574 30.6721L18.0475 32.2215C18.0302 32.3081 18.0964 32.3889 18.1848 32.3889H19.5298C19.5967 32.3889 19.6542 32.3416 19.6671 32.2759L19.9718 30.7266C19.9888 30.6401 19.9225 30.5596 19.8344 30.5596H18.4947Z" fill="black"/>
</svg>
