<svg width="95" height="54" viewBox="0 0 95 54" fill="none" xmlns="http://www.w3.org/2000/svg">
<rect x="1.8501" y="1.84998" width="90.8" height="50.3" rx="3" stroke="#8B1EFF" stroke-width="0.28"/>
<path d="M83.5361 40.0263C83.3511 40.3174 83.1391 40.5923 82.9031 40.8432C82.6667 41.0949 82.4057 41.3239 82.1267 41.5258C81.847 41.7273 81.549 41.9023 81.237 42.0503C80.6184 42.342 79.9434 42.526 79.2644 42.5849C68.5997 43.013 57.9267 43.227 47.2517 43.227C36.578 43.227 25.905 43.013 15.24 42.5849C14.9002 42.5553 14.5622 42.4944 14.2332 42.4043C13.9013 42.3139 13.5793 42.1939 13.2683 42.0478C12.9567 41.9005 12.6577 41.7264 12.3787 41.5244C12.0983 41.3228 11.8373 41.0948 11.6003 40.8427C11.3645 40.5919 11.1535 40.318 10.9685 40.0258C10.7848 39.7348 10.6288 39.4279 10.4998 39.1098C10.371 38.7934 10.27 38.4654 10.196 38.1313C10.1242 37.7995 10.0792 37.4616 10.0632 37.1225L10.0515 7.25143C10.0791 6.52536 10.2591 5.79636 10.5671 5.13327C10.7208 4.80234 10.9058 4.48837 11.1208 4.19528C11.3344 3.90366 11.5774 3.63266 11.8474 3.39059C12.3811 2.91135 13.0151 2.54538 13.6931 2.29831C14.3685 2.05148 15.0865 1.92551 15.8005 1.91745C36.7678 1.82748 57.7358 1.82748 78.7038 1.91745C78.9576 1.92172 79.2116 1.94064 79.4636 1.97263C79.7147 2.00485 79.9647 2.05087 80.2117 2.11179C80.376 2.15195 80.539 2.19992 80.699 2.25388C81.2168 2.43112 81.7148 2.68112 82.1628 2.99704C82.3885 3.15646 82.6015 3.33249 82.7995 3.52341C82.9983 3.71603 83.1823 3.92404 83.3493 4.14499C83.6835 4.58835 83.9495 5.08444 84.1365 5.60934C84.3239 6.13754 84.4319 6.69455 84.4519 7.25143L84.4411 37.1225C84.4096 37.7999 84.2626 38.4798 84.0069 39.1104C83.8779 39.4294 83.7209 39.7364 83.5361 40.0263Z" stroke="#8B1EFF" stroke-width="0.283" stroke-miterlimit="10"/>
<path d="M16.995 4.0835H13.451M13.451 4.0835C13.4506 4.0835 81.0516 4.0835 81.0516 4.0835C82.2255 4.0835 83.1776 5.03552 83.1776 6.20996C83.1776 6.20996 83.1776 38.5469 83.1775 38.5469C83.1775 39.7209 82.2255 40.6729 81.052 40.6729C81.052 40.6729 13.451 40.6729 13.451 40.673C12.277 40.673 11.325 39.7209 11.325 38.5465C11.325 38.5465 11.325 6.20947 11.325 6.20959C11.325 5.03552 12.2769 4.0835 13.451 4.0835Z" stroke="#00FFFF" stroke-width="0.28" stroke-miterlimit="10"/>
<path d="M83.7106 7.59486C83.6836 17.2888 83.6596 26.9818 83.6386 36.6758C83.6369 36.9682 83.6139 37.2572 83.5689 37.5423C83.5229 37.8272 83.4549 38.1072 83.3599 38.3822C83.3369 38.4512 83.3119 38.5202 83.2839 38.5882C83.2579 38.6563 83.2289 38.7243 83.1979 38.7912C83.1379 38.9252 83.0709 39.0552 82.9989 39.1812C82.9259 39.3071 82.8479 39.4292 82.7619 39.5482C82.6769 39.6662 82.5849 39.7813 82.4869 39.8913C82.2899 40.1112 82.0739 40.3071 81.8389 40.4782C81.7219 40.5642 81.5989 40.6432 81.4719 40.7172C81.4079 40.7542 81.3429 40.7892 81.2769 40.8233C81.2119 40.8562 81.1459 40.8882 81.0789 40.9173C80.8129 41.0361 80.5349 41.1272 80.2499 41.1922C80.1789 41.2081 80.1059 41.2232 80.0339 41.2362C79.9619 41.2482 79.8889 41.2601 79.8159 41.2692C79.6709 41.2882 79.5239 41.3012 79.3769 41.3071C57.997 42.1967 36.502 42.1967 15.122 41.3067C14.9742 41.3013 14.8292 41.2883 14.6832 41.2693C14.6112 41.2603 14.5392 41.2483 14.4672 41.2363C14.3942 41.2233 14.3222 41.2083 14.2512 41.1923C13.9662 41.1283 13.6902 41.0372 13.4242 40.9193C13.3572 40.8893 13.2912 40.8583 13.2252 40.8244C13.1602 40.7913 13.0952 40.7562 13.0322 40.7193C12.9052 40.6463 12.7832 40.5673 12.6662 40.4813C12.4302 40.3103 12.2152 40.1163 12.0182 39.8963C11.9692 39.8423 11.9222 39.7853 11.8762 39.7283C11.8302 39.6723 11.7862 39.6143 11.7432 39.5543C11.6582 39.4363 11.5792 39.3143 11.5072 39.1893C11.4332 39.0632 11.3672 38.9343 11.3062 38.8013C11.2762 38.7343 11.2482 38.6663 11.2202 38.5983C11.1932 38.5303 11.1682 38.4613 11.1432 38.3913C11.1202 38.3223 11.0972 38.2523 11.0772 38.1823C11.0552 38.1123 11.0372 38.0423 11.0192 37.9713C10.9842 37.8303 10.9562 37.6882 10.9322 37.5463C10.8872 37.2603 10.8652 36.9704 10.8639 36.6779C10.8429 26.9839 10.8189 17.2879 10.792 7.59254C10.792 7.43849 10.799 7.28456 10.814 7.13148C10.822 7.05556 10.832 6.97853 10.844 6.90248C10.855 6.82655 10.869 6.7505 10.885 6.67458C10.948 6.37453 11.043 6.08546 11.169 5.80849C11.2 5.73854 11.234 5.67055 11.27 5.60255C11.288 5.5685 11.306 5.53456 11.325 5.50148C11.344 5.46754 11.363 5.43459 11.383 5.4015C11.462 5.27052 11.548 5.14455 11.64 5.02357C11.824 4.78358 12.033 4.56447 12.267 4.36757C12.325 4.31752 12.386 4.27052 12.446 4.22353C12.508 4.17751 12.57 4.13258 12.633 4.08949C12.76 4.00356 12.89 3.92458 13.022 3.85255C13.156 3.77956 13.293 3.71352 13.433 3.65358C13.503 3.62355 13.573 3.5945 13.645 3.56752C13.717 3.54152 13.79 3.51552 13.863 3.49147C14.155 3.3965 14.452 3.32753 14.753 3.28053C15.054 3.23451 15.358 3.21156 15.6659 3.21046C36.6869 3.11647 57.8159 3.11647 78.8368 3.21083C79.1458 3.21181 79.4508 3.23476 79.7528 3.28175C79.9028 3.30385 80.0538 3.33376 80.2028 3.36879C80.3518 3.40382 80.5008 3.44582 80.6468 3.49281C80.9378 3.58876 81.2168 3.70778 81.4848 3.85475C81.5528 3.89076 81.6178 3.92885 81.6838 3.96974C81.7488 4.00978 81.8148 4.05177 81.8768 4.09474C82.0038 4.1808 82.1248 4.27284 82.2408 4.37074C82.3578 4.46877 82.4678 4.57277 82.5728 4.68275C82.6258 4.73878 82.6768 4.79482 82.7268 4.85378C82.7758 4.91176 82.8248 4.97182 82.8708 5.03285C83.0568 5.27577 83.2118 5.53578 83.3378 5.81386C83.3688 5.88283 83.3998 5.95277 83.4268 6.0248C83.4538 6.09584 83.4808 6.16884 83.5038 6.24086C83.5518 6.38783 83.5908 6.53481 83.6218 6.68483C83.6838 6.9828 83.7138 7.28578 83.7128 7.59474" stroke="#FF00FF" stroke-width="0.283465" stroke-miterlimit="10" stroke-linecap="round" stroke-linejoin="round"/>
<path d="M80.859 44.9191V50.01H80.2425V45.5654H80.2127L78.9698 46.3907V45.7643L80.2425 44.9191H80.859ZM82.4598 50.0498C82.3372 50.0498 82.232 50.0059 82.1442 49.918C82.0563 49.8302 82.0124 49.725 82.0124 49.6023C82.0124 49.4797 82.0563 49.3745 82.1442 49.2866C82.232 49.1988 82.3372 49.1549 82.4598 49.1549C82.5825 49.1549 82.6877 49.1988 82.7755 49.2866C82.8634 49.3745 82.9073 49.4797 82.9073 49.6023C82.9073 49.6835 82.8866 49.7581 82.8451 49.8261C82.8054 49.894 82.7515 49.9487 82.6836 49.9901C82.6173 50.0299 82.5427 50.0498 82.4598 50.0498ZM84.0066 50.01L86.2836 45.5057V45.466H83.6586V44.9191H86.92V45.4958L84.6529 50.01H84.0066ZM89.3691 50.0796C89.0775 50.0796 88.8148 50.0216 88.5811 49.9056C88.3475 49.7896 88.1602 49.6305 88.0193 49.4283C87.8785 49.2262 87.8014 48.9958 87.7882 48.7373H88.3847C88.4079 48.9676 88.5123 49.1582 88.698 49.309C88.8852 49.4582 89.1089 49.5327 89.3691 49.5327C89.5779 49.5327 89.7635 49.4838 89.9259 49.3861C90.09 49.2883 90.2184 49.1541 90.3112 48.9834C90.4057 48.811 90.4529 48.6163 90.4529 48.3992C90.4529 48.1771 90.404 47.9791 90.3063 47.8051C90.2101 47.6294 90.0776 47.4911 89.9085 47.39C89.7395 47.2889 89.5464 47.2375 89.3293 47.2359C89.1736 47.2342 89.0136 47.2582 88.8496 47.308C88.6855 47.356 88.5505 47.4182 88.4444 47.4944L87.8677 47.4248L88.1759 44.9191H90.8208V45.466H88.693L88.514 46.9674H88.5438C88.6482 46.8845 88.7792 46.8158 88.9366 46.7611C89.094 46.7064 89.2581 46.679 89.4288 46.679C89.7403 46.679 90.0179 46.7536 90.2615 46.9028C90.5068 47.0503 90.699 47.2524 90.8382 47.5093C90.9791 47.7662 91.0495 48.0595 91.0495 48.3893C91.0495 48.7141 90.9766 49.0041 90.8308 49.2593C90.6866 49.5129 90.4877 49.7134 90.2342 49.8609C89.9806 50.0067 89.6923 50.0796 89.3691 50.0796Z" fill="#0000FF"/>
<path d="M19.2864 24.7686C20.2143 24.7686 20.7075 24.3828 20.7075 23.6601C20.7075 22.9374 20.1996 22.5662 19.2327 22.5662H18.0217C17.9434 22.5662 17.88 22.6297 17.88 22.7079V24.6268C17.88 24.7051 17.9435 24.7685 18.0217 24.7685H19.2864V24.7686ZM19.0325 21.6725C19.9115 21.6725 20.4047 21.3014 20.4047 20.647C20.4047 20.0317 19.9798 19.685 19.2278 19.685H18.0217C17.9434 19.685 17.88 19.7485 17.88 19.8267V21.5308C17.88 21.6091 17.9435 21.6725 18.0217 21.6725H19.0325ZM16.6201 25.0958V19.3578C16.6201 18.9476 16.8594 18.7034 17.2501 18.7034H19.5453C20.8248 18.7034 21.6501 19.392 21.6501 20.4614C21.6501 21.1042 21.2738 21.5639 20.9162 21.862C20.8378 21.9274 20.8529 22.0513 20.9441 22.0973C21.4672 22.3614 21.992 22.9281 21.992 23.748C21.992 24.9884 21.0788 25.7502 19.5747 25.7502H17.2501C16.8594 25.7502 16.6201 25.506 16.6201 25.0958Z" fill="black"/>
<path d="M26.154 23.8313C26.154 24.4562 25.5975 24.9152 24.9139 24.9152C24.3867 24.9152 24.0302 24.6467 24.0302 24.222C24.0302 23.7973 24.3671 23.5483 24.9529 23.5092L26.1013 23.4392C26.1298 23.4375 26.1539 23.4601 26.1539 23.4887V23.8315L26.154 23.8313ZM25.2361 20.4674C24.245 20.4674 23.6734 20.8077 23.3811 21.1351C23.2118 21.3248 23.1901 21.7242 23.4223 21.9099C23.6937 22.1269 24.1483 21.9645 24.3045 21.7725C24.4447 21.6001 24.7595 21.425 25.1871 21.4194C25.7875 21.4115 26.1538 21.7319 26.1538 22.2738V22.4764C26.1538 22.5027 26.1333 22.5244 26.107 22.5259L24.7818 22.6014C23.5224 22.6795 22.8145 23.3528 22.8145 24.2706C22.8145 25.1884 23.5444 25.8329 24.5428 25.8329C25.1746 25.8329 25.7905 25.6679 26.0969 25.5426C26.1612 25.5163 26.2349 25.5411 26.2711 25.6004C26.2739 25.6049 26.2763 25.6087 26.2783 25.6116C26.3597 25.7275 26.5062 25.8475 26.7642 25.8475C27.106 25.8475 27.3549 25.6278 27.3549 25.2373V22.1859C27.3549 21.146 26.5201 20.4674 25.2361 20.4674Z" fill="black"/>
<path d="M30.6954 25.8526C29.1817 25.8526 28.2051 24.8272 28.2051 23.167C28.2051 21.5068 29.1768 20.4668 30.6856 20.4668C31.7012 20.4668 32.5655 20.9893 32.8145 21.7168C32.8536 21.8193 32.878 21.9219 32.878 22.0098C32.878 22.3125 32.6485 22.4981 32.3555 22.4981C32.1114 22.4981 31.9649 22.3956 31.8233 22.1514C31.5645 21.6778 31.2227 21.4532 30.7198 21.4532C29.9385 21.4532 29.4405 22.1026 29.4405 23.1622C29.4405 24.2218 29.9434 24.8712 30.7149 24.8712C31.252 24.8712 31.584 24.6222 31.8184 24.2071C31.9844 23.9337 32.1163 23.8311 32.3799 23.8311C32.668 23.8311 32.8926 24.0264 32.8926 24.3292C32.8926 24.422 32.8682 24.5245 32.8194 24.6417C32.5313 25.3497 31.6719 25.8526 30.6954 25.8526Z" fill="black"/>
<path d="M34.3531 25.8478C33.9967 25.8478 33.7427 25.6183 33.7427 25.2081V19.2461C33.7427 18.8359 33.9966 18.6064 34.3531 18.6064C34.7096 18.6064 34.9586 18.8359 34.9586 19.2461V22.3881C34.9586 22.514 35.1104 22.5774 35.1999 22.4889L37.0045 20.706C37.1608 20.54 37.2926 20.4716 37.4781 20.4716C37.7808 20.4716 38.0103 20.7011 38.0103 20.9941C38.0103 21.1748 37.9566 21.2871 37.7906 21.4433L36.4106 22.7502C36.3571 22.8009 36.3513 22.8841 36.3974 22.9416L37.9371 24.8662C38.0641 25.042 38.1031 25.1494 38.1031 25.3057C38.1031 25.6231 37.8638 25.8477 37.5269 25.8477C37.2876 25.8477 37.146 25.7647 36.9703 25.5108L35.5131 23.6641C35.4617 23.599 35.3656 23.5917 35.305 23.6484L35.0483 23.8887C34.9911 23.9423 34.9586 24.0172 34.9586 24.0956V25.208C34.9586 25.6182 34.7096 25.8477 34.3531 25.8477V25.8478Z" fill="black"/>
<path d="M53.1325 23.8313C53.1325 24.4562 52.576 24.9152 51.8924 24.9152C51.3652 24.9152 51.0087 24.6467 51.0087 24.222C51.0087 23.7973 51.3456 23.5483 51.9314 23.5092L53.0798 23.4392C53.1083 23.4375 53.1324 23.4601 53.1324 23.4887V23.8315L53.1325 23.8313ZM52.2146 20.4674C51.2235 20.4674 50.6519 20.8077 50.3596 21.1351C50.1903 21.3248 50.1686 21.7242 50.4008 21.9099C50.6722 22.1269 51.1268 21.9645 51.283 21.7725C51.4232 21.6001 51.738 21.425 52.1656 21.4194C52.766 21.4115 53.1323 21.7319 53.1323 22.2738V22.4764C53.1323 22.5027 53.1118 22.5244 53.0855 22.5259L51.7603 22.6014C50.5009 22.6795 49.793 23.3528 49.793 24.2706C49.793 25.1884 50.5229 25.8329 51.5213 25.8329C52.1531 25.8329 52.769 25.6679 53.0754 25.5426C53.1397 25.5163 53.2134 25.5411 53.2496 25.6004C53.2524 25.6049 53.2548 25.6087 53.2568 25.6116C53.3382 25.7275 53.4847 25.8475 53.7427 25.8475C54.0845 25.8475 54.3334 25.6278 54.3334 25.2373V22.1859C54.3334 21.146 53.4986 20.4674 52.2146 20.4674Z" fill="black"/>
<path d="M57.6739 25.8526C56.1602 25.8526 55.1836 24.8272 55.1836 23.167C55.1836 21.5068 56.1553 20.4668 57.6641 20.4668C58.6797 20.4668 59.544 20.9893 59.793 21.7168C59.8321 21.8193 59.8565 21.9219 59.8565 22.0098C59.8565 22.3125 59.627 22.4981 59.334 22.4981C59.0899 22.4981 58.9434 22.3956 58.8018 22.1514C58.543 21.6778 58.2012 21.4532 57.6983 21.4532C56.917 21.4532 56.419 22.1026 56.419 23.1622C56.419 24.2218 56.9219 24.8712 57.6934 24.8712C58.2305 24.8712 58.5625 24.6222 58.7969 24.2071C58.9629 23.9337 59.0948 23.8311 59.3584 23.8311C59.6465 23.8311 59.8711 24.0264 59.8711 24.3292C59.8711 24.422 59.8467 24.5245 59.7979 24.6417C59.5098 25.3497 58.6504 25.8526 57.6739 25.8526Z" fill="black"/>
<path d="M63.9966 22.548H61.9074C61.8168 22.548 61.75 22.4642 61.769 22.3756C61.9056 21.7369 62.3772 21.4093 62.9716 21.4093C63.566 21.4093 64.0201 21.7241 64.1363 22.3824C64.1516 22.4689 64.0845 22.548 63.9966 22.548ZM62.9668 20.4668C61.4726 20.4668 60.5205 21.5312 60.5205 23.1817C60.5205 24.8322 61.4531 25.8526 63.0352 25.8526C63.8354 25.8526 64.4214 25.6748 64.9211 25.1198C65.1448 24.8714 65.0849 24.5007 64.7888 24.3422C64.5394 24.2086 64.2557 24.3367 64.1164 24.4661C63.6737 24.8775 63.3489 24.9151 63.0255 24.9151C62.2793 24.9151 61.7893 24.4304 61.7363 23.6069C61.731 23.5248 61.7954 23.4551 61.8777 23.4551H64.8319C65.1131 23.4551 65.3425 23.2303 65.3489 22.9492C65.3816 21.5063 64.4064 20.4668 62.9668 20.4668Z" fill="black"/>
<path d="M46.5012 24.8363C45.7442 24.8363 45.2412 24.177 45.2363 23.1612C45.2412 22.1552 45.715 21.4861 46.5012 21.4861C47.2874 21.4861 47.7758 22.1405 47.7758 23.1612C47.7758 24.1868 47.2582 24.8363 46.5012 24.8363ZM49.0211 23.1611C49.0211 21.5055 48.186 20.4849 46.8722 20.4849C46.3862 20.4849 45.6161 20.7289 45.3152 20.8309C45.2477 20.8538 45.173 20.8241 45.1413 20.7601C45.1333 20.7438 45.125 20.7276 45.1146 20.7128C44.9953 20.5423 44.8196 20.4703 44.6209 20.4703C44.2741 20.4703 44.03 20.6949 44.03 21.0954V26.9511C44.03 27.3614 44.279 27.5909 44.6356 27.5909C44.9922 27.5909 45.2461 27.3614 45.2461 26.9511V25.5929C45.2461 25.4902 45.352 25.4213 45.4456 25.4635C45.8075 25.6264 46.4102 25.8326 46.8919 25.8326C48.1909 25.8326 49.0212 24.8119 49.0212 23.1612L49.0211 23.1611Z" fill="black"/>
<path d="M40.9741 25.8525C39.8803 25.8525 39.1137 25.4326 38.8647 24.8125C38.8305 24.7246 38.8159 24.6465 38.8159 24.5732C38.8159 24.2802 39.0307 24.0947 39.3237 24.0947C39.5239 24.0947 39.6948 24.1875 39.851 24.3926C40.1244 24.7881 40.4369 24.9455 41.018 24.9455C41.5991 24.9455 41.9604 24.7246 41.9604 24.334C41.9604 24.0215 41.7651 23.8506 41.2329 23.7285L40.393 23.5381C39.3822 23.3086 38.8842 22.8106 38.8842 22.0586C38.8842 21.0967 39.7143 20.4668 40.9936 20.4668C41.9897 20.4668 42.7612 20.9551 42.9223 21.5508C42.9369 21.6143 42.9467 21.6729 42.9467 21.7315C42.9467 21.9854 42.7856 22.1661 42.4779 22.1661C42.3021 22.1661 42.1263 22.1026 42.014 21.9415C41.7747 21.5851 41.4769 21.3739 40.9642 21.3739C40.4515 21.3739 40.0658 21.6192 40.0658 21.9903C40.0658 22.293 40.2904 22.4981 40.8275 22.6202L41.6527 22.8009C42.7465 23.0499 43.181 23.4454 43.181 24.212C43.181 25.2032 42.2923 25.8526 40.9739 25.8526H40.9741V25.8525Z" fill="black"/>
</svg>
