<svg width="81" height="54" viewBox="0 0 81 54" fill="none" xmlns="http://www.w3.org/2000/svg">
<rect x="1.85" y="1.84961" width="77.3" height="50.3" rx="3" stroke="#8B1EFF" stroke-width="0.28"/>
<path d="M15.062 42.8653C14.384 42.8083 13.712 42.6192 13.0946 42.3186C12.4726 42.0147 11.9076 41.5987 11.4435 41.0894C10.9785 40.5794 10.6165 39.9773 10.3637 39.3321C10.1107 38.6901 9.96672 38.0071 9.9391 37.3217L9.9231 7.34074C9.9371 6.78972 10.0391 6.23674 10.2164 5.71306C10.3054 5.45 10.4124 5.19609 10.5371 4.95049C10.6621 4.70451 10.8061 4.46855 10.9655 4.24321C11.1245 4.02019 11.3005 3.80815 11.4917 3.61076C11.6817 3.41472 11.8877 3.23369 12.1062 3.06841C12.3232 2.90434 12.5542 2.75639 12.7924 2.62553C13.0314 2.49455 13.2784 2.38054 13.5337 2.28593C13.8537 2.16692 14.1847 2.0789 14.5213 2.01689C14.8573 1.95488 15.1983 1.91997 15.5393 1.91386H15.537C32.181 1.82695 48.825 1.82695 65.4697 1.9135C65.7237 1.9185 65.9777 1.93852 66.2298 1.97429C66.4828 2.0103 66.7328 2.06035 66.9781 2.12712C67.1421 2.17204 67.3041 2.22307 67.4628 2.28178C67.9728 2.47185 68.4578 2.73576 68.8952 3.06511C69.3332 3.39616 69.7222 3.79216 70.0431 4.23686C70.3661 4.68584 70.6211 5.18291 70.7972 5.70769C70.9732 6.23466 71.0692 6.78874 71.0846 7.34062L71.0688 37.3223C71.0398 38.0074 70.8958 38.6954 70.6448 39.3355C70.5178 39.6585 70.3638 39.9695 70.1828 40.2631C70.0008 40.5582 69.7918 40.8371 69.5592 41.0928C69.3262 41.3499 69.0692 41.5829 68.7924 41.7905C68.5154 41.9965 68.2204 42.1775 67.9107 42.3285C67.7557 42.4036 67.5987 42.4716 67.4375 42.5329C67.2775 42.5928 67.1135 42.6448 66.9485 42.6891C66.7835 42.7332 66.6165 42.7682 66.4476 42.7991C66.2806 42.8301 66.1116 42.8561 65.9412 42.8648C57.4672 43.2478 48.9852 43.4388 40.5027 43.4391C32.0207 43.4391 23.5397 43.2471 15.0657 42.865" stroke="#8B1EFF" stroke-width="0.283" stroke-miterlimit="10"/>
<path d="M67.5541 40.8115H13.5141C12.3392 40.8116 11.3872 39.8596 11.3872 38.6855V6.20667C11.3871 5.03308 12.3391 4.08105 13.5141 4.08105H17.0571H64.0101H67.5542C68.7281 4.08105 69.6801 5.03308 69.6801 6.20703V38.6855C69.6801 39.8596 68.7281 40.8115 67.5541 40.8115Z" stroke="#00FFFF" stroke-width="0.28" stroke-miterlimit="10"/>
<path d="M70.1071 36.8351C70.1062 37.1292 70.0842 37.4191 70.0402 37.7072C70.0182 37.8511 69.9901 37.9932 69.9561 38.1351C69.9391 38.2062 69.9212 38.2771 69.9001 38.3482C69.8801 38.4181 69.8592 38.4882 69.8361 38.5581C69.7432 38.8362 69.6272 39.1022 69.4871 39.3551C69.4171 39.4822 69.3411 39.6061 69.2581 39.7261C69.2172 39.7861 69.1742 39.8451 69.1291 39.9042C69.0842 39.9622 69.0381 40.0192 68.9901 40.0751C68.9422 40.1311 68.8942 40.1862 68.8432 40.2392C68.7931 40.2921 68.7411 40.3441 68.6891 40.3942C68.5832 40.4942 68.4731 40.5881 68.3581 40.6771C68.2421 40.7652 68.1222 40.8472 67.9972 40.9231C67.9351 40.9612 67.8701 40.9971 67.8061 41.0321C67.7411 41.0672 67.6761 41.1001 67.6102 41.1311C67.3472 41.2551 67.0731 41.3501 66.7891 41.4181C66.6482 41.4522 66.5031 41.4791 66.3581 41.4992C66.2142 41.5192 66.0672 41.5331 65.9212 41.5391C49.0275 42.2941 32.0076 42.2941 15.1126 41.5391C14.8211 41.5255 14.5321 41.4865 14.247 41.4185C14.1761 41.4015 14.1061 41.3826 14.0351 41.3626C13.9651 41.3416 13.8961 41.3195 13.8271 41.2955C13.6901 41.2476 13.5561 41.1925 13.4241 41.1315C13.2931 41.0695 13.1651 41.0015 13.0401 40.9256C12.9781 40.8875 12.9161 40.8475 12.8561 40.8065C12.7951 40.7645 12.7361 40.7225 12.6781 40.6775C12.4471 40.5005 12.2371 40.3015 12.0471 40.0795C12.0001 40.0236 11.9531 39.9675 11.9091 39.9096C11.8651 39.8516 11.8211 39.7915 11.7801 39.7316C11.6971 39.6105 11.6191 39.4865 11.5491 39.3595C11.4791 39.2326 11.4141 39.1026 11.3561 38.9685C11.3261 38.9015 11.2991 38.8345 11.2731 38.7665C11.2461 38.6975 11.2221 38.6286 11.1991 38.5596C11.1061 38.2805 11.0391 37.9976 10.9941 37.7095C10.9721 37.5656 10.9551 37.4205 10.9451 37.2746C10.9341 37.1286 10.9281 36.9826 10.9281 36.8355C10.9237 31.9851 10.9197 27.1342 10.9147 22.2831C10.9107 17.8732 10.9067 13.4622 10.9017 9.05214C10.9017 8.6111 10.9007 8.16908 10.9007 7.72707C10.8994 7.42226 10.9304 7.12233 10.9904 6.82826C11.0204 6.68031 11.0584 6.53432 11.1034 6.39027C11.1264 6.31825 11.1514 6.24623 11.1784 6.17531C11.2044 6.10426 11.2334 6.03432 11.2634 5.96523C11.3844 5.68922 11.5324 5.42934 11.7084 5.18422C11.7524 5.12331 11.7984 5.06325 11.8454 5.00429C11.8934 4.94533 11.9414 4.88722 11.9924 4.83131C12.0934 4.71925 12.1984 4.61232 12.3094 4.51222C12.4204 4.41127 12.5364 4.3163 12.6564 4.22731C12.7174 4.18227 12.7784 4.1393 12.8414 4.09828C12.9044 4.05629 12.9684 4.01625 13.0334 3.97731C13.2944 3.82228 13.5654 3.69533 13.8484 3.5923C13.9894 3.54128 14.1344 3.49623 14.2804 3.45729C14.4274 3.41933 14.5744 3.38722 14.7234 3.36232C15.0184 3.31032 15.3194 3.28432 15.6225 3.28322C32.1794 3.19728 48.8545 3.19728 65.411 3.2831C65.564 3.28407 65.715 3.29115 65.865 3.30409C66.016 3.31715 66.165 3.33607 66.313 3.36208C66.609 3.4131 66.899 3.48915 67.184 3.59218C67.255 3.61818 67.325 3.64516 67.395 3.67409C67.465 3.70314 67.533 3.73317 67.601 3.76515C67.7371 3.82912 67.867 3.89809 67.995 3.97414C68.251 4.12611 68.492 4.30214 68.717 4.50514C68.773 4.55617 68.828 4.60817 68.882 4.66212C68.936 4.71608 68.988 4.77113 69.038 4.82716C69.14 4.94008 69.235 5.05812 69.322 5.17909C69.498 5.42311 69.648 5.68312 69.769 5.96107C69.8 6.03114 69.828 6.10207 69.855 6.17213C69.882 6.24416 69.906 6.31508 69.929 6.3871C69.975 6.53017 70.0131 6.67616 70.0431 6.82314C70.0731 6.97108 70.096 7.12013 70.1121 7.27016C70.118 7.34608 70.124 7.42213 70.128 7.49818C70.132 7.57509 70.1341 7.65114 70.1338 7.72755L70.1197 22.2836C70.1157 26.6935 70.1117 31.1045 70.1077 35.5145C70.1067 35.9556 70.1067 36.3955 70.1058 36.8355" stroke="#FF00FF" stroke-width="0.283465" stroke-miterlimit="10" stroke-linecap="round" stroke-linejoin="round"/>
<path d="M66.4147 44.9189V50.0098H65.7982V45.5652H65.7684L64.5255 46.3904V45.764L65.7982 44.9189H66.4147ZM68.0155 50.0495C67.8929 50.0495 67.7876 50.0056 67.6998 49.9178C67.612 49.83 67.5681 49.7247 67.5681 49.6021C67.5681 49.4795 67.612 49.3742 67.6998 49.2864C67.7876 49.1986 67.8929 49.1547 68.0155 49.1547C68.1381 49.1547 68.2434 49.1986 68.3312 49.2864C68.419 49.3742 68.463 49.4795 68.463 49.6021C68.463 49.6833 68.4422 49.7579 68.4008 49.8258C68.361 49.8938 68.3072 49.9484 68.2392 49.9899C68.1729 50.0297 68.0984 50.0495 68.0155 50.0495ZM70.9941 50.0794C70.7025 50.0794 70.4398 50.0214 70.2061 49.9054C69.9725 49.7894 69.7852 49.6303 69.6443 49.4281C69.5035 49.2259 69.4264 48.9956 69.4132 48.737H70.0097C70.0329 48.9674 70.1373 49.158 70.323 49.3088C70.5102 49.4579 70.7339 49.5325 70.9941 49.5325C71.2029 49.5325 71.3885 49.4836 71.5509 49.3858C71.715 49.2881 71.8434 49.1538 71.9362 48.9831C72.0307 48.8108 72.0779 48.6161 72.0779 48.399C72.0779 48.1769 72.029 47.9789 71.9313 47.8049C71.8351 47.6292 71.7026 47.4908 71.5335 47.3897C71.3645 47.2886 71.1714 47.2373 70.9543 47.2356C70.7986 47.234 70.6386 47.258 70.4746 47.3077C70.3105 47.3558 70.1755 47.4179 70.0694 47.4941L69.4927 47.4245L69.8009 44.9189H72.4458V45.4657H70.318L70.139 46.9672H70.1688C70.2732 46.8843 70.4042 46.8155 70.5616 46.7608C70.719 46.7061 70.8831 46.6788 71.0538 46.6788C71.3653 46.6788 71.6429 46.7534 71.8865 46.9025C72.1318 47.05 72.324 47.2522 72.4632 47.5091C72.6041 47.7659 72.6745 48.0592 72.6745 48.389C72.6745 48.7138 72.6016 49.0038 72.4558 49.2591C72.3116 49.5126 72.1127 49.7131 71.8592 49.8606C71.6056 50.0065 71.3173 50.0794 70.9941 50.0794ZM75.3225 50.0794C74.948 50.0794 74.629 49.9775 74.3655 49.7736C74.102 49.5681 73.9006 49.2707 73.7614 48.8812C73.6222 48.4901 73.5526 48.0178 73.5526 47.4643C73.5526 46.9141 73.6222 46.4443 73.7614 46.0549C73.9023 45.6638 74.1045 45.3655 74.368 45.16C74.6331 44.9528 74.9513 44.8493 75.3225 44.8493C75.6937 44.8493 76.0111 44.9528 76.2746 45.16C76.5397 45.3655 76.7419 45.6638 76.8811 46.0549C77.022 46.4443 77.0924 46.9141 77.0924 47.4643C77.0924 48.0178 77.0228 48.4901 76.8836 48.8812C76.7444 49.2707 76.543 49.5681 76.2795 49.7736C76.016 49.9775 75.697 50.0794 75.3225 50.0794ZM75.3225 49.5325C75.6937 49.5325 75.9821 49.3535 76.1876 48.9956C76.3931 48.6376 76.4958 48.1272 76.4958 47.4643C76.4958 47.0235 76.4486 46.6481 76.3541 46.3382C76.2613 46.0283 76.1271 45.7922 75.9514 45.6298C75.7774 45.4674 75.5678 45.3862 75.3225 45.3862C74.9546 45.3862 74.6671 45.5676 74.4599 45.9306C74.2528 46.2918 74.1492 46.8031 74.1492 47.4643C74.1492 47.9051 74.1956 48.2797 74.2884 48.5879C74.3812 48.8961 74.5146 49.1306 74.6886 49.2914C74.8643 49.4521 75.0756 49.5325 75.3225 49.5325Z" fill="#0000FF"/>
<path d="M19.2864 24.7683C20.2143 24.7683 20.7075 24.3825 20.7075 23.6598C20.7075 22.9371 20.1996 22.5659 19.2327 22.5659H18.0217C17.9434 22.5659 17.88 22.6294 17.88 22.7076V24.6265C17.88 24.7048 17.9435 24.7682 18.0217 24.7682H19.2864V24.7683ZM19.0325 21.6722C19.9115 21.6722 20.4047 21.3011 20.4047 20.6467C20.4047 20.0314 19.9798 19.6847 19.2278 19.6847H18.0217C17.9434 19.6847 17.88 19.7482 17.88 19.8264V21.5305C17.88 21.6088 17.9435 21.6722 18.0217 21.6722H19.0325ZM16.6201 25.0955V19.3575C16.6201 18.9473 16.8594 18.7031 17.2501 18.7031H19.5453C20.8248 18.7031 21.6501 19.3917 21.6501 20.4611C21.6501 21.1039 21.2738 21.5636 20.9162 21.8617C20.8378 21.9271 20.8529 22.051 20.9441 22.097C21.4672 22.3611 21.992 22.9278 21.992 23.7477C21.992 24.9881 21.0788 25.7499 19.5747 25.7499H17.2501C16.8594 25.7499 16.6201 25.5057 16.6201 25.0955Z" fill="black"/>
<path d="M26.154 23.8317C26.154 24.4566 25.5975 24.9156 24.9139 24.9156C24.3867 24.9156 24.0302 24.6471 24.0302 24.2224C24.0302 23.7977 24.3671 23.5487 24.9529 23.5096L26.1013 23.4396C26.1298 23.4379 26.1539 23.4605 26.1539 23.4891V23.8319L26.154 23.8317ZM25.2361 20.4678C24.245 20.4678 23.6734 20.8081 23.3811 21.1355C23.2118 21.3252 23.1901 21.7246 23.4223 21.9103C23.6937 22.1273 24.1483 21.9649 24.3045 21.7729C24.4447 21.6005 24.7595 21.4254 25.1871 21.4198C25.7875 21.4119 26.1538 21.7323 26.1538 22.2742V22.4768C26.1538 22.5031 26.1333 22.5248 26.107 22.5263L24.7818 22.6018C23.5224 22.6799 22.8145 23.3532 22.8145 24.271C22.8145 25.1888 23.5444 25.8333 24.5428 25.8333C25.1746 25.8333 25.7905 25.6683 26.0969 25.543C26.1612 25.5167 26.2349 25.5415 26.2711 25.6008C26.2739 25.6053 26.2763 25.6091 26.2783 25.612C26.3597 25.7279 26.5062 25.8479 26.7642 25.8479C27.106 25.8479 27.3549 25.6282 27.3549 25.2377V22.1863C27.3549 21.1464 26.5201 20.4678 25.2361 20.4678Z" fill="black"/>
<path d="M30.6954 25.8526C29.1817 25.8526 28.2051 24.8272 28.2051 23.167C28.2051 21.5068 29.1768 20.4668 30.6856 20.4668C31.7012 20.4668 32.5655 20.9893 32.8145 21.7168C32.8536 21.8193 32.878 21.9219 32.878 22.0098C32.878 22.3125 32.6485 22.4981 32.3555 22.4981C32.1114 22.4981 31.9649 22.3956 31.8233 22.1514C31.5645 21.6778 31.2227 21.4532 30.7198 21.4532C29.9385 21.4532 29.4405 22.1026 29.4405 23.1622C29.4405 24.2218 29.9434 24.8712 30.7149 24.8712C31.252 24.8712 31.584 24.6222 31.8184 24.2071C31.9844 23.9337 32.1163 23.8311 32.3799 23.8311C32.668 23.8311 32.8926 24.0264 32.8926 24.3292C32.8926 24.422 32.8682 24.5245 32.8194 24.6417C32.5313 25.3497 31.6719 25.8526 30.6954 25.8526Z" fill="black"/>
<path d="M34.3531 25.8478C33.9967 25.8478 33.7427 25.6183 33.7427 25.2081V19.2461C33.7427 18.8359 33.9966 18.6064 34.3531 18.6064C34.7096 18.6064 34.9586 18.8359 34.9586 19.2461V22.3881C34.9586 22.514 35.1104 22.5774 35.1999 22.4889L37.0045 20.706C37.1608 20.54 37.2926 20.4716 37.4781 20.4716C37.7808 20.4716 38.0103 20.7011 38.0103 20.9941C38.0103 21.1748 37.9566 21.2871 37.7906 21.4433L36.4106 22.7502C36.3571 22.8009 36.3513 22.8841 36.3974 22.9416L37.9371 24.8662C38.0641 25.042 38.1031 25.1494 38.1031 25.3057C38.1031 25.6231 37.8638 25.8477 37.5269 25.8477C37.2876 25.8477 37.146 25.7647 36.9703 25.5108L35.5131 23.6641C35.4617 23.599 35.3656 23.5917 35.305 23.6484L35.0483 23.8887C34.9911 23.9423 34.9586 24.0172 34.9586 24.0956V25.208C34.9586 25.6182 34.7096 25.8477 34.3531 25.8477V25.8478Z" fill="black"/>
<path d="M53.1325 23.8317C53.1325 24.4566 52.576 24.9156 51.8924 24.9156C51.3652 24.9156 51.0087 24.6471 51.0087 24.2224C51.0087 23.7977 51.3456 23.5487 51.9314 23.5096L53.0798 23.4396C53.1083 23.4379 53.1324 23.4605 53.1324 23.4891V23.8319L53.1325 23.8317ZM52.2146 20.4678C51.2235 20.4678 50.6519 20.8081 50.3596 21.1355C50.1903 21.3252 50.1686 21.7246 50.4008 21.9103C50.6722 22.1273 51.1268 21.9649 51.283 21.7729C51.4232 21.6005 51.738 21.4254 52.1656 21.4198C52.766 21.4119 53.1323 21.7323 53.1323 22.2742V22.4768C53.1323 22.5031 53.1118 22.5248 53.0855 22.5263L51.7603 22.6018C50.5009 22.6799 49.793 23.3532 49.793 24.271C49.793 25.1888 50.5229 25.8333 51.5213 25.8333C52.1531 25.8333 52.769 25.6683 53.0754 25.543C53.1397 25.5167 53.2134 25.5415 53.2496 25.6008C53.2524 25.6053 53.2548 25.6091 53.2568 25.612C53.3382 25.7279 53.4847 25.8479 53.7427 25.8479C54.0845 25.8479 54.3334 25.6282 54.3334 25.2377V22.1863C54.3334 21.1464 53.4986 20.4678 52.2146 20.4678Z" fill="black"/>
<path d="M57.6739 25.8526C56.1602 25.8526 55.1836 24.8272 55.1836 23.167C55.1836 21.5068 56.1553 20.4668 57.6641 20.4668C58.6797 20.4668 59.544 20.9893 59.793 21.7168C59.8321 21.8193 59.8565 21.9219 59.8565 22.0098C59.8565 22.3125 59.627 22.4981 59.334 22.4981C59.0899 22.4981 58.9434 22.3956 58.8018 22.1514C58.543 21.6778 58.2012 21.4532 57.6983 21.4532C56.917 21.4532 56.419 22.1026 56.419 23.1622C56.419 24.2218 56.9219 24.8712 57.6934 24.8712C58.2305 24.8712 58.5625 24.6222 58.7969 24.2071C58.9629 23.9337 59.0948 23.8311 59.3584 23.8311C59.6465 23.8311 59.8711 24.0264 59.8711 24.3292C59.8711 24.422 59.8467 24.5245 59.7979 24.6417C59.5098 25.3497 58.6504 25.8526 57.6739 25.8526Z" fill="black"/>
<path d="M63.9966 22.548H61.9074C61.8168 22.548 61.75 22.4642 61.769 22.3756C61.9056 21.7369 62.3772 21.4093 62.9716 21.4093C63.566 21.4093 64.0201 21.7241 64.1363 22.3824C64.1516 22.4689 64.0845 22.548 63.9966 22.548ZM62.9668 20.4668C61.4726 20.4668 60.5205 21.5312 60.5205 23.1817C60.5205 24.8322 61.4531 25.8526 63.0352 25.8526C63.8354 25.8526 64.4214 25.6748 64.9211 25.1198C65.1448 24.8714 65.0849 24.5007 64.7888 24.3422C64.5394 24.2086 64.2557 24.3367 64.1164 24.4661C63.6737 24.8775 63.3489 24.9151 63.0255 24.9151C62.2793 24.9151 61.7893 24.4304 61.7363 23.6069C61.731 23.5248 61.7954 23.4551 61.8777 23.4551H64.8319C65.1131 23.4551 65.3425 23.2303 65.3489 22.9492C65.3816 21.5063 64.4064 20.4668 62.9668 20.4668Z" fill="black"/>
<path d="M46.5012 24.8367C45.7442 24.8367 45.2412 24.1774 45.2363 23.1616C45.2412 22.1556 45.715 21.4865 46.5012 21.4865C47.2874 21.4865 47.7758 22.1409 47.7758 23.1616C47.7758 24.1872 47.2582 24.8367 46.5012 24.8367ZM49.0211 23.1615C49.0211 21.5059 48.186 20.4853 46.8722 20.4853C46.3862 20.4853 45.6161 20.7293 45.3152 20.8313C45.2477 20.8542 45.173 20.8245 45.1413 20.7605C45.1333 20.7442 45.125 20.728 45.1146 20.7132C44.9953 20.5427 44.8196 20.4707 44.6209 20.4707C44.2741 20.4707 44.03 20.6953 44.03 21.0958V26.9515C44.03 27.3618 44.279 27.5913 44.6356 27.5913C44.9922 27.5913 45.2461 27.3618 45.2461 26.9515V25.5933C45.2461 25.4906 45.352 25.4217 45.4456 25.4639C45.8075 25.6268 46.4102 25.833 46.8919 25.833C48.1909 25.833 49.0212 24.8123 49.0212 23.1616L49.0211 23.1615Z" fill="black"/>
<path d="M40.9741 25.8525C39.8803 25.8525 39.1137 25.4326 38.8647 24.8125C38.8305 24.7246 38.8159 24.6465 38.8159 24.5732C38.8159 24.2802 39.0307 24.0947 39.3237 24.0947C39.5239 24.0947 39.6948 24.1875 39.851 24.3926C40.1244 24.7881 40.4369 24.9455 41.018 24.9455C41.5991 24.9455 41.9604 24.7246 41.9604 24.334C41.9604 24.0215 41.7651 23.8506 41.2329 23.7285L40.393 23.5381C39.3822 23.3086 38.8842 22.8106 38.8842 22.0586C38.8842 21.0967 39.7143 20.4668 40.9936 20.4668C41.9897 20.4668 42.7612 20.9551 42.9223 21.5508C42.9369 21.6143 42.9467 21.6729 42.9467 21.7315C42.9467 21.9854 42.7856 22.1661 42.4779 22.1661C42.3021 22.1661 42.1263 22.1026 42.014 21.9415C41.7747 21.5851 41.4769 21.3739 40.9642 21.3739C40.4515 21.3739 40.0658 21.6192 40.0658 21.9903C40.0658 22.293 40.2904 22.4981 40.8275 22.6202L41.6527 22.8009C42.7465 23.0499 43.181 23.4454 43.181 24.212C43.181 25.2032 42.2923 25.8526 40.9739 25.8526H40.9741V25.8525Z" fill="black"/>
</svg>
