<svg width="54" height="54" viewBox="0 0 54 54" fill="none" xmlns="http://www.w3.org/2000/svg">
<rect x="1.8501" y="1.8501" width="50.3" height="50.3" rx="3" stroke="#8B1EFF" stroke-width="0.28"/>
<path d="M44.1508 7.31653L44.1327 37.3804C44.1267 37.5443 44.1127 37.7073 44.0925 37.8691C44.0725 38.0311 44.0465 38.1932 44.0162 38.3547C43.9852 38.5156 43.9482 38.6747 43.9038 38.8339C43.8607 38.9919 43.8118 39.1489 43.7572 39.3043C43.6392 39.6283 43.4951 39.9434 43.3245 40.2437C43.1515 40.5486 42.9515 40.8376 42.7266 41.1068C42.4995 41.3768 42.2485 41.6259 41.9756 41.8479C41.7015 42.0698 41.4076 42.2659 41.0974 42.4301C40.8724 42.547 40.6373 42.65 40.3981 42.7354C40.2791 42.7773 40.1581 42.8143 40.0359 42.8481C39.9139 42.8822 39.7909 42.9122 39.6678 42.9369C39.5029 42.9718 39.3369 42.9978 39.1689 43.0148L39.1677 43.0144C31.0557 43.5814 22.9137 43.5803 14.8016 43.0129C14.1357 42.939 13.4807 42.725 12.8857 42.4038C12.2808 42.0787 11.7397 41.6418 11.2983 41.121C10.8544 40.5961 10.5123 39.984 10.2732 39.3397C10.1532 39.0188 10.0582 38.6877 9.99024 38.3521C9.92127 38.0181 9.87732 37.6771 9.8617 37.3372L9.84497 7.31702C9.85803 6.77502 9.95398 6.23108 10.1217 5.71313C10.2057 5.45422 10.3077 5.20215 10.426 4.9585C10.5439 4.71558 10.6801 4.48059 10.8309 4.25623C10.9819 4.03418 11.1489 3.82214 11.3319 3.62476C11.5139 3.42883 11.7098 3.24683 11.9191 3.07959C12.1271 2.91455 12.3481 2.76355 12.5769 2.63037C12.8069 2.49744 13.0459 2.38135 13.2918 2.28308C13.6038 2.16113 13.9287 2.06812 14.2578 2.00366C14.5878 1.93872 14.9227 1.90271 15.2581 1.89587C19.171 1.86487 23.084 1.84875 26.9973 1.84863C30.9103 1.84863 34.8232 1.86475 38.7365 1.89612C39.4144 1.90503 40.0955 2.04211 40.7295 2.29675C41.3785 2.55884 41.9766 2.9458 42.4756 3.43298C42.9895 3.93188 43.3986 4.53796 43.6824 5.19812C43.9703 5.86621 44.1304 6.59119 44.1504 7.31311" stroke="#8B1EFF" stroke-width="0.283" stroke-miterlimit="10"/>
<rect x="12.6792" y="5.50488" width="28.63" height="34.3" rx="1.42" stroke="#00FFFF" stroke-width="0.28"/>
<path d="M42.9527 7.6868C42.9477 12.5518 42.9427 17.4168 42.9386 22.2818L42.9237 36.8777C42.9237 37.167 42.9027 37.455 42.8617 37.741C42.8518 37.812 42.8397 37.8831 42.8268 37.954C42.8147 38.0251 42.7998 38.0961 42.7838 38.167C42.7517 38.308 42.7147 38.448 42.6728 38.585C42.5878 38.859 42.4818 39.126 42.3507 39.3841C42.3168 39.448 42.2827 39.512 42.2467 39.5751C42.2118 39.637 42.1748 39.699 42.1367 39.76C42.0598 39.882 41.9778 39.9991 41.8908 40.1121C41.8028 40.225 41.7097 40.333 41.6098 40.438C41.5618 40.49 41.5098 40.541 41.4578 40.5911C41.4048 40.64 41.3518 40.688 41.2968 40.735C41.0788 40.9201 40.8448 41.0811 40.5938 41.215C40.5308 41.2491 40.4668 41.281 40.4018 41.3111C40.3368 41.3421 40.2708 41.37 40.2038 41.397C40.0708 41.4501 39.9368 41.496 39.7998 41.5341C39.5268 41.611 39.2467 41.6591 38.9608 41.679C31.0301 42.2231 22.963 42.2231 15.0331 41.679C14.7461 41.6587 14.4662 41.6107 14.1931 41.5337C14.0562 41.4958 13.9221 41.4497 13.7892 41.3968C13.7222 41.3698 13.6562 41.3407 13.5912 41.3108C13.5261 41.2808 13.4632 41.2488 13.4002 41.2148C13.1481 41.0807 12.9142 40.9198 12.6962 40.7338C12.6421 40.6878 12.5891 40.6398 12.5362 40.5898C12.4842 40.5408 12.4322 40.4888 12.3832 40.4378C12.2842 40.3328 12.1912 40.2248 12.1042 40.1107C12.0161 39.9988 11.9341 39.8808 11.8572 39.7598C11.8191 39.6988 11.7821 39.6367 11.7471 39.5738C11.7112 39.5117 11.6762 39.4478 11.6442 39.3827C11.5132 39.1258 11.4062 38.8588 11.3222 38.5847C11.2792 38.4468 11.2422 38.3078 11.2112 38.1668C11.1952 38.0957 11.1802 38.0248 11.1671 37.9538C11.1542 37.8827 11.1421 37.8118 11.1321 37.7398C11.0912 37.4547 11.0702 37.1678 11.0698 36.8773C11.0618 27.1474 11.0518 17.4164 11.042 7.68643C11.041 7.38943 11.068 7.09744 11.1231 6.80948C11.15 6.66641 11.1841 6.52347 11.2251 6.38248C11.2461 6.31143 11.2681 6.24149 11.2931 6.17142C11.317 6.10147 11.343 6.03348 11.37 5.96548C11.4801 5.69339 11.6151 5.43643 11.776 5.19339C11.8161 5.13248 11.8581 5.07339 11.901 5.01443C11.9451 4.95547 11.9901 4.89737 12.0371 4.84048C12.13 4.72745 12.2271 4.62039 12.3311 4.51749C12.5371 4.31448 12.7621 4.13248 13.0081 3.97342C13.0691 3.93338 13.1321 3.89444 13.1941 3.85843C13.2581 3.82144 13.3211 3.78738 13.3861 3.75345C13.5141 3.68741 13.646 3.62747 13.7801 3.57437C13.9151 3.52042 14.0531 3.4744 14.192 3.43338C14.2621 3.41348 14.333 3.39444 14.4041 3.37747C14.4751 3.36038 14.547 3.34549 14.619 3.33145C14.9051 3.27737 15.1961 3.24844 15.4896 3.24637C23.1208 3.18546 30.8747 3.18546 38.506 3.24637C38.8 3.24942 39.089 3.27737 39.372 3.33133C39.6549 3.38443 39.933 3.46341 40.205 3.57132C40.273 3.59732 40.341 3.62637 40.407 3.6564C40.474 3.68631 40.539 3.71841 40.6039 3.75137C40.7329 3.81741 40.8579 3.88931 40.9789 3.96841C41.2219 4.12442 41.4469 4.30533 41.657 4.51138C41.709 4.56241 41.7599 4.61539 41.809 4.66934C41.8579 4.72342 41.9059 4.77835 41.953 4.83438C42.0449 4.94632 42.132 5.06338 42.2119 5.18436C42.293 5.30533 42.367 5.43033 42.435 5.56033C42.47 5.62442 42.503 5.69034 42.534 5.75735C42.565 5.82437 42.595 5.89236 42.622 5.96036C42.732 6.23233 42.814 6.51334 42.87 6.8024C42.8839 6.87442 42.8949 6.94742 42.9059 7.02042C42.917 7.09341 42.9259 7.16739 42.9319 7.24136C42.9459 7.38931 42.953 7.53738 42.9527 7.6868Z" stroke="#FF00FF" stroke-width="0.283465" stroke-miterlimit="10" stroke-linecap="round" stroke-linejoin="round"/>
<path d="M16.6353 19.9878C15.8794 19.9878 15.4399 19.5132 15.4399 18.7046V9.09814C15.4399 8.28955 15.8706 7.81494 16.6265 7.81494C17.3735 7.81494 17.813 8.28955 17.813 9.09814V18.7046C17.813 19.5132 17.3823 19.9878 16.6353 19.9878Z" fill="black"/>
<path fill-rule="evenodd" clip-rule="evenodd" d="M31.5961 26.5093C31.2168 26.4097 30.8286 26.6365 30.729 27.0157C29.8111 30.5123 29.946 33.3004 30.3716 36.3983C30.425 36.7868 30.7831 37.0585 31.1716 37.0051C31.5601 36.9517 31.8317 36.5936 31.7784 36.2051C31.3661 33.2037 31.2503 30.6224 32.1025 27.3763C32.2021 26.997 31.9753 26.6089 31.5961 26.5093ZM39.4747 28.4494C39.5179 28.8391 39.237 29.1901 38.8473 29.2333C36.9961 29.4388 35.7215 29.4921 33.7668 29.3971C33.3751 29.3781 33.073 29.0452 33.0921 28.6535C33.1111 28.2619 33.444 27.9598 33.8357 27.9788C35.7092 28.0699 36.9083 28.0198 38.6907 27.822C39.0804 27.7788 39.4314 28.0596 39.4747 28.4494ZM34.6506 32.7386C34.9387 32.4726 34.9565 32.0234 34.6905 31.7353C34.4245 31.4473 33.9753 31.4294 33.6872 31.6954C33.4041 31.9569 33.0039 32.4161 32.7853 33.0072C32.555 33.6297 32.5293 34.4068 33.0455 35.167C33.3792 35.6586 33.9173 35.9212 34.4296 36.0681C34.9536 36.2183 35.5515 36.2766 36.1368 36.2866C37.3102 36.3065 38.5655 36.133 39.3741 35.9805C39.7595 35.9079 40.0129 35.5366 39.9403 35.1513C39.8676 34.7659 39.4963 34.5125 39.111 34.5851C38.3522 34.7282 37.2012 34.8845 36.1609 34.8668C35.6394 34.8579 35.1786 34.8056 34.8209 34.703C34.4516 34.5972 34.2851 34.4649 34.2203 34.3694C34.0081 34.057 34.015 33.7759 34.1171 33.4997C34.2309 33.1921 34.4628 32.912 34.6506 32.7386Z" fill="black"/>
</svg>
