<svg width="54" height="108" viewBox="0 0 54 108" fill="none" xmlns="http://www.w3.org/2000/svg">
<rect x="1.85" y="1.84961" width="50.3" height="104.3" rx="3" stroke="#8B1EFF" stroke-width="0.28"/>
<path d="M40.4458 97.4313C40.6827 97.3433 40.9117 97.2364 41.1328 97.1162C41.571 96.8737 41.9741 96.5646 42.3281 96.2066C42.6833 95.8467 42.9873 95.4367 43.2354 94.9966C43.3594 94.7755 43.4694 94.5465 43.5654 94.3125C43.6605 94.0778 43.7416 93.8378 43.8086 93.5938C43.8756 93.3506 43.9307 93.1045 43.9717 92.8545C44.0127 92.6056 44.0397 92.3546 44.0508 92.1026L44.2051 8.66409C44.1895 7.93118 44.0245 7.19522 43.7275 6.51712C43.4342 5.8494 43.0142 5.23941 42.4902 4.73734C41.9817 4.2482 41.3748 3.86124 40.7178 3.59915C40.078 3.34427 39.39 3.20828 38.7051 3.19925C30.9009 3.13931 23.0979 3.13931 15.2949 3.19925C14.5952 3.20816 13.8892 3.35623 13.2393 3.62112C12.9098 3.7554 12.5958 3.91837 12.2988 4.11136C12.0007 4.30533 11.7207 4.52933 11.4668 4.77933C10.9547 5.28275 10.5457 5.89175 10.2607 6.55472C9.9729 7.2222 9.81091 7.94412 9.79492 8.66409L9.94922 92.1026C9.98364 92.7742 10.1166 93.4441 10.3477 94.0801C10.5787 94.7169 10.9088 95.319 11.3408 95.8389C11.7677 96.3549 12.2947 96.7898 12.8848 97.1148C13.4675 97.4357 14.1125 97.6497 14.7686 97.7266C18.8379 98.0423 22.918 98.2002 27 98.2002C31.0824 98.2007 35.1624 98.0426 39.2314 97.7266C39.3976 97.7072 39.5615 97.6791 39.7242 97.6432C39.9692 97.5893 40.2112 97.5192 40.4458 97.4313Z" stroke="#8B1EFF" stroke-width="0.283" stroke-miterlimit="10"/>
<path d="M41.4572 10.1357V89.7827V93.3262C41.4572 94.5002 40.5051 95.4521 39.3312 95.4521H14.6691C13.495 95.4523 12.5431 94.5002 12.5431 93.3262L12.543 7.66321C12.543 6.48914 13.495 5.53711 14.6691 5.53711H39.3311C40.5051 5.53711 41.4572 6.48914 41.4572 7.66357V11.2065" stroke="#00FFFF" stroke-width="0.28" stroke-miterlimit="10"/>
<path d="M10.9346 8.65018C10.9346 8.50015 10.9406 8.3522 10.9546 8.20413C10.9615 8.13016 10.9696 8.05618 10.9806 7.98221C10.9906 7.90921 11.0035 7.83621 11.0166 7.76419C11.0715 7.47513 11.1545 7.19315 11.2666 6.92117C11.2946 6.85318 11.3246 6.78519 11.3556 6.71915C11.3876 6.65213 11.4205 6.58621 11.4556 6.52115C11.5245 6.39212 11.6006 6.26822 11.6816 6.14822C11.7635 6.02921 11.8516 5.91324 11.9465 5.80313C11.9935 5.74722 12.0426 5.69315 12.0916 5.64017C12.1426 5.58719 12.1946 5.53519 12.2485 5.48416C12.3546 5.38321 12.4666 5.28714 12.5836 5.19913C12.6986 5.11014 12.8186 5.02823 12.9417 4.95218C13.0656 4.87613 13.1926 4.80618 13.3236 4.74319C13.3885 4.71121 13.4556 4.68118 13.5226 4.65213C13.5896 4.62418 13.6586 4.5972 13.7266 4.5712C14.0035 4.46915 14.2836 4.39517 14.5696 4.34512C14.8556 4.2952 15.1466 4.2692 15.4417 4.26712C23.1068 4.20523 30.8938 4.20523 38.5588 4.26712C38.8536 4.27005 39.1466 4.29495 39.4346 4.34598C39.5066 4.35794 39.5796 4.37296 39.6506 4.38895C39.7227 4.40396 39.7946 4.42203 39.8646 4.44095C40.0066 4.48001 40.1456 4.52396 40.2826 4.57401C40.5546 4.67593 40.8167 4.80203 41.0657 4.95694C41.1287 4.99503 41.1896 5.03494 41.2506 5.07693C41.3096 5.11795 41.3687 5.16104 41.4257 5.20499C41.5416 5.29398 41.6516 5.38797 41.7566 5.48795C41.8616 5.58804 41.9617 5.694 42.0566 5.80594C42.1036 5.86099 42.1506 5.91898 42.1946 5.97794C42.2396 6.03604 42.2816 6.095 42.3226 6.15494C42.4866 6.397 42.6246 6.65298 42.7356 6.92398C42.7626 6.99197 42.7897 7.06094 42.8136 7.13101C42.8376 7.20096 42.8606 7.27103 42.8816 7.34195C42.9226 7.48294 42.9576 7.62698 42.9846 7.77103C43.0397 8.05899 43.0667 8.35196 43.0657 8.64993L43.0598 11.2281L42.9268 89.8041L42.9241 91.982C42.9241 92.2722 42.9021 92.5602 42.859 92.8472C42.847 92.9182 42.8351 92.9903 42.8201 93.0613C42.807 93.1322 42.7921 93.2033 42.775 93.2742C42.7411 93.4152 42.702 93.5552 42.6581 93.6923C42.5681 93.9662 42.457 94.2322 42.321 94.4893C42.2871 94.5533 42.2511 94.6172 42.2141 94.6792C42.1781 94.7422 42.139 94.8033 42.1001 94.8643C42.0211 94.9843 41.936 95.1012 41.8461 95.2133C41.7561 95.3252 41.66 95.4333 41.5591 95.5363C41.5081 95.5883 41.4561 95.6392 41.4021 95.6883C41.3501 95.7372 41.295 95.7853 41.239 95.8302C41.0181 96.0142 40.7791 96.1732 40.5261 96.3063C40.462 96.3402 40.3981 96.3712 40.332 96.4013C40.2661 96.4313 40.1991 96.4602 40.1321 96.4862C39.998 96.5392 39.8621 96.5843 39.7251 96.6222C39.4501 96.6983 39.1681 96.7453 38.8801 96.7642C31.0052 97.2763 22.9954 97.2763 15.1204 96.7642C15.0483 96.7591 14.9753 96.7531 14.9033 96.745C14.8313 96.736 14.7604 96.726 14.6893 96.714C14.5474 96.69 14.4073 96.659 14.2694 96.621C14.1323 96.583 13.9963 96.537 13.8613 96.484C13.7954 96.458 13.7284 96.429 13.6624 96.3991C13.5974 96.3681 13.5314 96.336 13.4674 96.303C13.2113 96.168 12.9734 96.008 12.7533 95.824C12.6414 95.732 12.5364 95.6341 12.4343 95.5291C12.3844 95.4771 12.3344 95.424 12.2854 95.369C12.2373 95.315 12.1914 95.2591 12.1464 95.203C11.9674 94.9781 11.8103 94.737 11.6764 94.482C11.6084 94.355 11.5474 94.225 11.4904 94.09C11.4624 94.023 11.4353 93.955 11.4104 93.887C11.3854 93.818 11.3613 93.75 11.3394 93.6811C11.2504 93.406 11.1843 93.127 11.1414 92.843C11.0974 92.56 11.0764 92.273 11.0768 91.982C11.0577 78.093 11.0377 64.205 11.0138 50.3159C10.9917 36.427 10.9647 22.539 10.9346 8.65018Z" stroke="#FF00FF" stroke-width="0.283465" stroke-miterlimit="10" stroke-linecap="round" stroke-linejoin="round"/>
<path d="M35.9432 104.01V103.562L37.6236 101.723C37.8209 101.507 37.9833 101.32 38.1109 101.161C38.2385 101 38.3329 100.849 38.3942 100.709C38.4572 100.566 38.4887 100.417 38.4887 100.261C38.4887 100.082 38.4456 99.9273 38.3594 99.7963C38.2749 99.6654 38.1589 99.5643 38.0114 99.4931C37.8639 99.4218 37.6982 99.3862 37.5143 99.3862C37.3187 99.3862 37.148 99.4268 37.0022 99.508C36.858 99.5875 36.7462 99.6994 36.6666 99.8436C36.5887 99.9877 36.5498 100.157 36.5498 100.351H35.9631C35.9631 100.052 36.0319 99.7905 36.1695 99.5652C36.307 99.3398 36.4943 99.1641 36.7312 99.0382C36.9699 98.9122 37.2375 98.8493 37.5342 98.8493C37.8325 98.8493 38.0968 98.9122 38.3271 99.0382C38.5575 99.1641 38.7381 99.334 38.869 99.5478C38.9999 99.7615 39.0654 99.9993 39.0654 100.261C39.0654 100.448 39.0314 100.632 38.9635 100.811C38.8972 100.988 38.7812 101.186 38.6155 101.405C38.4514 101.622 38.2236 101.887 37.9319 102.2L36.7884 103.423V103.463H39.1549V104.01H35.9432ZM40.619 104.05C40.4964 104.05 40.3912 104.006 40.3033 103.918C40.2155 103.83 40.1716 103.725 40.1716 103.602C40.1716 103.479 40.2155 103.374 40.3033 103.286C40.3912 103.199 40.4964 103.155 40.619 103.155C40.7417 103.155 40.8469 103.199 40.9347 103.286C41.0226 103.374 41.0665 103.479 41.0665 103.602C41.0665 103.683 41.0458 103.758 41.0043 103.826C40.9646 103.894 40.9107 103.948 40.8428 103.99C40.7765 104.03 40.7019 104.05 40.619 104.05ZM43.592 104.079C43.2175 104.079 42.8985 103.977 42.635 103.774C42.3715 103.568 42.1702 103.271 42.031 102.881C41.8918 102.49 41.8222 102.018 41.8222 101.464C41.8222 100.914 41.8918 100.444 42.031 100.055C42.1718 99.6638 42.374 99.3655 42.6375 99.16C42.9026 98.9528 43.2208 98.8493 43.592 98.8493C43.9633 98.8493 44.2806 98.9528 44.5441 99.16C44.8093 99.3655 45.0114 99.6638 45.1506 100.055C45.2915 100.444 45.3619 100.914 45.3619 101.464C45.3619 102.018 45.2923 102.49 45.1531 102.881C45.0139 103.271 44.8126 103.568 44.5491 103.774C44.2856 103.977 43.9666 104.079 43.592 104.079ZM43.592 103.532C43.9633 103.532 44.2516 103.354 44.4571 102.996C44.6626 102.638 44.7653 102.127 44.7653 101.464C44.7653 101.023 44.7181 100.648 44.6236 100.338C44.5308 100.028 44.3966 99.7922 44.2209 99.6298C44.0469 99.4674 43.8373 99.3862 43.592 99.3862C43.2241 99.3862 42.9366 99.5676 42.7295 99.9306C42.5223 100.292 42.4187 100.803 42.4187 101.464C42.4187 101.905 42.4651 102.28 42.558 102.588C42.6508 102.896 42.7842 103.131 42.9582 103.291C43.1338 103.452 43.3451 103.532 43.592 103.532ZM46.6048 98.9189L48.1162 103.204H48.1758L49.6872 98.9189H50.3335L48.4642 104.01H47.8278L45.9585 98.9189H46.6048Z" fill="#0000FF"/>
<path d="M21.1568 53.5918C21.1568 54.2246 20.7525 54.6289 20.1636 54.6289C19.5748 54.6289 19.1705 54.2246 19.1705 53.5918V50.805C19.1705 50.7277 19.1078 50.665 19.0305 50.665H16.481C15.8482 50.665 15.4439 50.2783 15.4439 49.6895C15.4439 49.1094 15.8482 48.7139 16.481 48.7139H19.0305C19.1078 48.7139 19.1705 48.6512 19.1705 48.5739V45.9102C19.1705 45.2861 19.566 44.873 20.1636 44.873C20.7525 44.873 21.1568 45.2861 21.1568 45.9102V48.5739C21.1568 48.6512 21.2195 48.7139 21.2968 48.7139H23.8814C24.523 48.7139 24.9273 49.1006 24.9273 49.6895C24.9273 50.2783 24.523 50.665 23.8814 50.665H21.2968C21.2195 50.665 21.1568 50.7277 21.1568 50.805V53.5918Z" fill="black"/>
</svg>
