<svg width="81" height="54" viewBox="0 0 81 54" fill="none" xmlns="http://www.w3.org/2000/svg">
<rect x="1.84998" y="1.84998" width="77.3" height="50.3" rx="3" stroke="#8B1EFF" stroke-width="0.28"/>
<path d="M15.062 42.8655C14.384 42.8085 13.712 42.6194 13.0946 42.3189C12.4726 42.0149 11.9076 41.5989 11.4435 41.0896C10.9785 40.5796 10.6165 39.9776 10.3637 39.3323C10.1107 38.6904 9.96672 38.0074 9.9391 37.3219L9.9231 7.34099C9.9371 6.78996 10.0391 6.23698 10.2164 5.7133C10.3054 5.45024 10.4124 5.19633 10.5371 4.95073C10.6621 4.70476 10.8061 4.4688 10.9655 4.24345C11.1245 4.02043 11.3005 3.8084 11.4917 3.61101C11.6817 3.41496 11.8877 3.23393 12.1062 3.06865C12.3232 2.90459 12.5542 2.75664 12.7924 2.62578C13.0314 2.4948 13.2784 2.38078 13.5337 2.28618C13.8537 2.16716 14.1847 2.07915 14.5213 2.01714C14.8573 1.95512 15.1983 1.92021 15.5393 1.91411H15.537C32.181 1.82719 48.825 1.82719 65.4697 1.91374C65.7237 1.91875 65.9777 1.93877 66.2298 1.97453C66.4828 2.01054 66.7328 2.06059 66.9781 2.12737C67.1421 2.17229 67.3041 2.22331 67.4628 2.28203C67.9728 2.47209 68.4578 2.73601 68.8952 3.06535C69.3332 3.39641 69.7222 3.7924 70.0431 4.23711C70.3661 4.68608 70.6211 5.18315 70.7972 5.70793C70.9732 6.23491 71.0692 6.78899 71.0846 7.34087L71.0688 37.3226C71.0398 38.0076 70.8958 38.6956 70.6448 39.3357C70.5178 39.6587 70.3638 39.9698 70.1828 40.2634C70.0008 40.5584 69.7918 40.8373 69.5592 41.0931C69.3262 41.3501 69.0692 41.5832 68.7924 41.7907C68.5154 41.9967 68.2204 42.1778 67.9107 42.3288C67.7557 42.4039 67.5987 42.4718 67.4375 42.5331C67.2775 42.5931 67.1135 42.6451 66.9485 42.6894C66.7835 42.7334 66.6165 42.7685 66.4476 42.7994C66.2806 42.8304 66.1116 42.8564 65.9412 42.865C57.4672 43.2481 48.9852 43.439 40.5027 43.4394C32.0207 43.4394 23.5397 43.2474 15.0657 42.8653" stroke="#8B1EFF" stroke-width="0.283" stroke-miterlimit="10"/>
<path d="M67.5541 40.8116H13.5141C12.3392 40.8117 11.3872 39.8597 11.3872 38.6856V6.20673C11.3871 5.03314 12.3391 4.08112 13.5141 4.08112H17.0571H64.0101H67.5542C68.7281 4.08112 69.6801 5.03314 69.6801 6.20709V38.6856C69.6801 39.8597 68.7281 40.8116 67.5541 40.8116Z" stroke="#00FFFF" stroke-width="0.28" stroke-miterlimit="10"/>
<path d="M70.1071 36.8347C70.1062 37.1287 70.0842 37.4187 70.0402 37.7067C70.0182 37.8507 69.9901 37.9928 69.9561 38.1347C69.9391 38.2058 69.9212 38.2767 69.9001 38.3477C69.8801 38.4177 69.8592 38.4877 69.8361 38.5577C69.7432 38.8358 69.6272 39.1018 69.4871 39.3547C69.4171 39.4818 69.3411 39.6057 69.2581 39.7257C69.2172 39.7857 69.1742 39.8447 69.1291 39.9038C69.0842 39.9617 69.0381 40.0188 68.9901 40.0747C68.9422 40.1307 68.8942 40.1857 68.8432 40.2387C68.7931 40.2917 68.7411 40.3437 68.6891 40.3938C68.5832 40.4937 68.4731 40.5877 68.3581 40.6767C68.2421 40.7647 68.1222 40.8468 67.9972 40.9227C67.9351 40.9608 67.8701 40.9967 67.8061 41.0317C67.7411 41.0667 67.6761 41.0997 67.6102 41.1307C67.3472 41.2547 67.0731 41.3497 66.7891 41.4177C66.6482 41.4517 66.5031 41.4787 66.3581 41.4987C66.2142 41.5188 66.0672 41.5327 65.9212 41.5387C49.0275 42.2937 32.0076 42.2937 15.1126 41.5387C14.8211 41.5251 14.5321 41.486 14.247 41.418C14.1761 41.4011 14.1061 41.3822 14.0351 41.3621C13.9651 41.3411 13.8961 41.319 13.8271 41.2951C13.6901 41.2471 13.5561 41.1921 13.4241 41.1311C13.2931 41.069 13.1651 41.0011 13.0401 40.9251C12.9781 40.887 12.9161 40.8471 12.8561 40.8061C12.7951 40.7641 12.7361 40.7221 12.6781 40.6771C12.4471 40.5001 12.2371 40.3011 12.0471 40.0791C12.0001 40.0231 11.9531 39.9671 11.9091 39.9091C11.8651 39.8512 11.8211 39.7911 11.7801 39.7312C11.6971 39.6101 11.6191 39.486 11.5491 39.3591C11.4791 39.2321 11.4141 39.1021 11.3561 38.9681C11.3261 38.9011 11.2991 38.8341 11.2731 38.7661C11.2461 38.6971 11.2221 38.6281 11.1991 38.5592C11.1061 38.2801 11.0391 37.9971 10.9941 37.7091C10.9721 37.5651 10.9551 37.4201 10.9451 37.2741C10.9341 37.1281 10.9281 36.9821 10.9281 36.835C10.9237 31.9847 10.9197 27.1337 10.9147 22.2827C10.9107 17.8728 10.9067 13.4617 10.9017 9.05171C10.9017 8.61067 10.9007 8.16866 10.9007 7.72664C10.8994 7.42183 10.9304 7.1219 10.9904 6.82784C11.0204 6.67989 11.0584 6.53389 11.1034 6.38985C11.1264 6.31783 11.1514 6.2458 11.1784 6.17488C11.2044 6.10384 11.2334 6.03389 11.2634 5.9648C11.3844 5.6888 11.5324 5.42891 11.7084 5.18379C11.7524 5.12288 11.7984 5.06282 11.8454 5.00386C11.8934 4.9449 11.9414 4.8868 11.9924 4.83089C12.0934 4.71883 12.1984 4.61189 12.3094 4.5118C12.4204 4.41084 12.5364 4.31587 12.6564 4.22688C12.7174 4.18184 12.7784 4.13887 12.8414 4.09785C12.9044 4.05586 12.9684 4.01582 13.0334 3.97688C13.2944 3.82185 13.5654 3.6949 13.8484 3.59187C13.9894 3.54085 14.1344 3.4958 14.2804 3.45686C14.4274 3.4189 14.5744 3.3868 14.7234 3.36189C15.0184 3.30989 15.3194 3.28389 15.6225 3.28279C32.1794 3.19685 48.8545 3.19685 65.411 3.28267C65.564 3.28365 65.715 3.29073 65.865 3.30367C66.016 3.31673 66.165 3.33565 66.313 3.36165C66.609 3.41267 66.899 3.48872 67.184 3.59175C67.255 3.61775 67.325 3.64473 67.395 3.67366C67.465 3.70271 67.533 3.73274 67.601 3.76472C67.7371 3.82869 67.867 3.89766 67.995 3.97371C68.251 4.12569 68.492 4.30171 68.717 4.50471C68.773 4.55574 68.828 4.60774 68.882 4.6617C68.936 4.71565 68.988 4.77071 69.038 4.82674C69.14 4.93965 69.235 5.05769 69.322 5.17867C69.498 5.42268 69.648 5.68269 69.769 5.96065C69.8 6.03072 69.828 6.10164 69.855 6.17171C69.882 6.24373 69.906 6.31465 69.929 6.38667C69.975 6.52974 70.0131 6.67574 70.0431 6.82271C70.0731 6.97066 70.096 7.11971 70.1121 7.26973C70.118 7.34566 70.124 7.42171 70.128 7.49776C70.132 7.57466 70.1341 7.65071 70.1338 7.72713L70.1197 22.2832C70.1157 26.6931 70.1117 31.1041 70.1077 35.5141C70.1067 35.9552 70.1067 36.3951 70.1058 36.835" stroke="#FF00FF" stroke-width="0.283465" stroke-miterlimit="10" stroke-linecap="round" stroke-linejoin="round"/>
<path d="M66.4147 44.9191V50.01H65.7982V45.5654H65.7684L64.5255 46.3907V45.7643L65.7982 44.9191H66.4147ZM68.0155 50.0498C67.8929 50.0498 67.7876 50.0059 67.6998 49.918C67.612 49.8302 67.5681 49.725 67.5681 49.6023C67.5681 49.4797 67.612 49.3745 67.6998 49.2866C67.7876 49.1988 67.8929 49.1549 68.0155 49.1549C68.1381 49.1549 68.2434 49.1988 68.3312 49.2866C68.419 49.3745 68.463 49.4797 68.463 49.6023C68.463 49.6835 68.4422 49.7581 68.4008 49.8261C68.361 49.894 68.3072 49.9487 68.2392 49.9901C68.1729 50.0299 68.0984 50.0498 68.0155 50.0498ZM70.9941 50.0796C70.7025 50.0796 70.4398 50.0216 70.2061 49.9056C69.9725 49.7896 69.7852 49.6305 69.6443 49.4283C69.5035 49.2262 69.4264 48.9958 69.4132 48.7373H70.0097C70.0329 48.9676 70.1373 49.1582 70.323 49.309C70.5102 49.4582 70.7339 49.5327 70.9941 49.5327C71.2029 49.5327 71.3885 49.4838 71.5509 49.3861C71.715 49.2883 71.8434 49.1541 71.9362 48.9834C72.0307 48.811 72.0779 48.6163 72.0779 48.3992C72.0779 48.1771 72.029 47.9791 71.9313 47.8051C71.8351 47.6294 71.7026 47.4911 71.5335 47.39C71.3645 47.2889 71.1714 47.2375 70.9543 47.2359C70.7986 47.2342 70.6386 47.2582 70.4746 47.308C70.3105 47.356 70.1755 47.4182 70.0694 47.4944L69.4927 47.4248L69.8009 44.9191H72.4458V45.466H70.318L70.139 46.9674H70.1688C70.2732 46.8845 70.4042 46.8158 70.5616 46.7611C70.719 46.7064 70.8831 46.679 71.0538 46.679C71.3653 46.679 71.6429 46.7536 71.8865 46.9028C72.1318 47.0503 72.324 47.2524 72.4632 47.5093C72.6041 47.7662 72.6745 48.0595 72.6745 48.3893C72.6745 48.7141 72.6016 49.0041 72.4558 49.2593C72.3116 49.5129 72.1127 49.7134 71.8592 49.8609C71.6056 50.0067 71.3173 50.0796 70.9941 50.0796ZM75.3225 50.0796C74.948 50.0796 74.629 49.9777 74.3655 49.7739C74.102 49.5684 73.9006 49.2709 73.7614 48.8815C73.6222 48.4904 73.5526 48.0181 73.5526 47.4646C73.5526 46.9144 73.6222 46.4446 73.7614 46.0551C73.9023 45.664 74.1045 45.3657 74.368 45.1602C74.6331 44.9531 74.9513 44.8495 75.3225 44.8495C75.6937 44.8495 76.0111 44.9531 76.2746 45.1602C76.5397 45.3657 76.7419 45.664 76.8811 46.0551C77.022 46.4446 77.0924 46.9144 77.0924 47.4646C77.0924 48.0181 77.0228 48.4904 76.8836 48.8815C76.7444 49.2709 76.543 49.5684 76.2795 49.7739C76.016 49.9777 75.697 50.0796 75.3225 50.0796ZM75.3225 49.5327C75.6937 49.5327 75.9821 49.3538 76.1876 48.9958C76.3931 48.6379 76.4958 48.1274 76.4958 47.4646C76.4958 47.0237 76.4486 46.6484 76.3541 46.3385C76.2613 46.0286 76.1271 45.7924 75.9514 45.63C75.7774 45.4676 75.5678 45.3864 75.3225 45.3864C74.9546 45.3864 74.6671 45.5679 74.4599 45.9308C74.2528 46.2921 74.1492 46.8033 74.1492 47.4646C74.1492 47.9054 74.1956 48.2799 74.2884 48.5881C74.3812 48.8964 74.5146 49.1309 74.6886 49.2916C74.8643 49.4524 75.0756 49.5327 75.3225 49.5327Z" fill="#0000FF"/>
<path d="M67.1017 30.7152H66.3741C66.285 30.7152 66.218 30.634 66.235 30.5465L66.781 27.7319C66.7996 27.6264 66.812 27.5272 66.812 27.428C66.812 27.0187 66.5144 26.7521 66.0865 26.7521C65.7144 26.7521 65.423 26.9939 65.3672 27.366L64.8529 30.5958C64.842 30.6646 64.7826 30.7152 64.713 30.7152H63.665C63.5995 30.7152 63.5424 30.6703 63.5272 30.6065L62.7627 27.4094C62.6697 26.9877 62.4216 26.7521 61.9999 26.7521C61.5721 26.7521 61.324 27.0001 61.2248 27.428L60.4605 30.6066C60.4452 30.6703 60.3882 30.7152 60.3227 30.7152H59.2807C59.211 30.7152 59.1517 30.6646 59.1407 30.5958L58.6265 27.366C58.5707 27.0001 58.2792 26.7521 57.9072 26.7521C57.4793 26.7521 57.1816 27.0187 57.1816 27.428C57.1816 27.5272 57.194 27.6264 57.2126 27.7319L57.7587 30.5465C57.7757 30.634 57.7087 30.7152 57.6196 30.7152H56.8919C56.6551 30.7152 56.4435 30.8884 56.4211 31.1243C56.3953 31.3948 56.6073 31.6223 56.8725 31.6223H57.8519C57.9198 31.6223 57.9781 31.6704 57.991 31.7371L58.5955 34.8632C58.6947 35.3779 59.0792 35.6755 59.5691 35.6755C60.0466 35.6755 60.4186 35.3841 60.5241 34.8818L61.28 31.7309C61.2953 31.6672 61.3523 31.6223 61.4179 31.6223H62.5758C62.6414 31.6223 62.6983 31.6672 62.7136 31.7309L63.4696 34.8818C63.575 35.3841 63.9471 35.6755 64.4246 35.6755C64.9145 35.6755 65.299 35.3779 65.3982 34.8632L66.0027 31.7371C66.0155 31.6704 66.0739 31.6223 66.1418 31.6223H67.1211C67.3863 31.6223 67.5983 31.3947 67.5725 31.1242C67.5501 30.8884 67.3386 30.7152 67.1017 30.7152ZM61.859 29.3205C61.8936 29.1755 62.1 29.1754 62.1347 29.3205L62.4263 30.5406C62.4476 30.6297 62.38 30.7152 62.2884 30.7152H61.7052C61.6136 30.7152 61.5461 30.6297 61.5674 30.5406L61.859 29.3205ZM59.8355 33.238C59.7995 33.389 59.5819 33.3806 59.5577 33.2273L59.3297 31.7862C59.3161 31.7001 59.3826 31.6223 59.4697 31.6223H60.0415C60.1331 31.6223 60.2007 31.7078 60.1794 31.7969L59.8355 33.238ZM64.436 33.2273C64.4117 33.3806 64.1942 33.389 64.1581 33.238L63.8143 31.7969C63.793 31.7078 63.8605 31.6223 63.9521 31.6223H64.5239C64.6111 31.6223 64.6775 31.7001 64.6639 31.7862L64.436 33.2273Z" fill="black"/>
<path d="M18.2621 18.9282V9.59547C18.2621 9.04357 18.5845 8.77692 19 8.77692C19.4155 8.77692 19.738 9.04357 19.738 9.59547V18.9282C19.738 19.4801 19.4155 19.7468 19 19.7468C18.5845 19.7468 18.2621 19.4801 18.2621 18.9282Z" fill="black"/>
<path d="M19.6574 37.2259L16.9785 27.7319C16.9599 27.6761 16.9413 27.5769 16.9413 27.4839C16.9289 27.0994 17.2451 26.7769 17.6482 26.7769C17.9831 26.7769 18.2559 26.9754 18.3489 27.2978L21.0216 36.798C21.0402 36.8476 21.0588 36.953 21.065 37.0399C21.0713 37.4243 20.7612 37.7468 20.3519 37.7468C20.0171 37.7468 19.7442 37.5484 19.6574 37.2259Z" fill="black"/>
</svg>
