<svg width="81" height="54" viewBox="0 0 81 54" fill="none" xmlns="http://www.w3.org/2000/svg">
<rect x="1.8501" y="1.84998" width="77.3" height="50.3" rx="3" stroke="#8B1EFF" stroke-width="0.28"/>
<path d="M15.0618 42.8655C14.3838 42.8085 13.7118 42.6194 13.0944 42.3189C12.4724 42.0149 11.9074 41.5989 11.4433 41.0896C10.9783 40.5796 10.6163 39.9776 10.3635 39.3323C10.1105 38.6904 9.96648 38.0074 9.93886 37.3219L9.92285 7.34099C9.93686 6.78996 10.0389 6.23698 10.2162 5.7133C10.3052 5.45024 10.4122 5.19633 10.5369 4.95073C10.6619 4.70476 10.8059 4.4688 10.9653 4.24345C11.1243 4.02043 11.3003 3.8084 11.4915 3.61101C11.6815 3.41496 11.8875 3.23393 12.106 3.06865C12.323 2.90459 12.554 2.75664 12.7922 2.62578C13.0312 2.4948 13.2782 2.38078 13.5335 2.28618C13.8535 2.16716 14.1845 2.07915 14.5211 2.01714C14.8571 1.95512 15.1981 1.92021 15.5391 1.91411H15.5368C32.1808 1.82719 48.8247 1.82719 65.4695 1.91374C65.7234 1.91875 65.9774 1.93877 66.2296 1.97453C66.4825 2.01054 66.7325 2.06059 66.9778 2.12737C67.1418 2.17229 67.3038 2.22331 67.4626 2.28203C67.9725 2.47209 68.4575 2.73601 68.895 3.06535C69.3329 3.39641 69.722 3.7924 70.0428 4.23711C70.3658 4.68608 70.6208 5.18315 70.797 5.70793C70.973 6.23491 71.069 6.78899 71.0844 7.34087L71.0685 37.3226C71.0396 38.0076 70.8955 38.6956 70.6446 39.3357C70.5176 39.6587 70.3636 39.9698 70.1826 40.2634C70.0005 40.5584 69.7915 40.8373 69.559 41.0931C69.326 41.3501 69.0689 41.5832 68.7922 41.7907C68.5152 41.9967 68.2202 42.1778 67.9105 42.3288C67.7555 42.4039 67.5984 42.4718 67.4373 42.5331C67.2773 42.5931 67.1133 42.6451 66.9482 42.6894C66.7833 42.7334 66.6162 42.7685 66.4474 42.7994C66.2804 42.8304 66.1114 42.8564 65.9409 42.865C57.4669 43.2481 48.985 43.439 40.5025 43.4394C32.0204 43.4394 23.5395 43.2474 15.0655 42.8653" stroke="#8B1EFF" stroke-width="0.283" stroke-miterlimit="10"/>
<path d="M67.5541 40.8116H13.5141C12.3392 40.8117 11.3872 39.8597 11.3872 38.6856V6.20673C11.3871 5.03314 12.3391 4.08112 13.5141 4.08112H17.0571H64.0101H67.5542C68.7281 4.08112 69.6801 5.03314 69.6801 6.20709V38.6856C69.6801 39.8597 68.7281 40.8116 67.5541 40.8116Z" stroke="#00FFFF" stroke-width="0.28" stroke-miterlimit="10"/>
<path d="M70.1069 36.8347C70.1059 37.1287 70.0839 37.4187 70.0399 37.7067C70.0179 37.8507 69.9899 37.9928 69.9559 38.1347C69.9389 38.2058 69.9209 38.2767 69.8999 38.3477C69.8799 38.4177 69.8589 38.4877 69.8359 38.5577C69.7429 38.8358 69.6269 39.1018 69.4869 39.3547C69.4169 39.4818 69.3409 39.6057 69.2579 39.7257C69.2169 39.7857 69.1739 39.8447 69.1289 39.9038C69.0839 39.9617 69.0379 40.0188 68.9899 40.0747C68.9419 40.1307 68.8939 40.1857 68.8429 40.2387C68.7929 40.2917 68.7409 40.3437 68.6889 40.3938C68.5829 40.4937 68.4729 40.5877 68.3579 40.6767C68.2419 40.7647 68.1219 40.8468 67.9969 40.9227C67.9349 40.9608 67.8699 40.9967 67.8059 41.0317C67.7409 41.0667 67.6759 41.0997 67.6099 41.1307C67.3469 41.2547 67.0729 41.3497 66.7889 41.4177C66.6479 41.4517 66.5029 41.4787 66.3579 41.4987C66.2139 41.5188 66.0669 41.5327 65.9209 41.5387C49.0273 42.2937 32.0073 42.2937 15.1123 41.5387C14.8208 41.5251 14.5318 41.486 14.2468 41.418C14.1758 41.4011 14.1058 41.3822 14.0348 41.3621C13.9648 41.3411 13.8958 41.319 13.8268 41.2951C13.6898 41.2471 13.5558 41.1921 13.4238 41.1311C13.2928 41.069 13.1648 41.0011 13.0398 40.9251C12.9778 40.887 12.9158 40.8471 12.8558 40.8061C12.7948 40.7641 12.7358 40.7221 12.6778 40.6771C12.4468 40.5001 12.2368 40.3011 12.0468 40.0791C11.9998 40.0231 11.9528 39.9671 11.9088 39.9091C11.8648 39.8512 11.8208 39.7911 11.7798 39.7312C11.6968 39.6101 11.6188 39.486 11.5488 39.3591C11.4788 39.2321 11.4138 39.1021 11.3558 38.9681C11.3258 38.9011 11.2988 38.8341 11.2728 38.7661C11.2458 38.6971 11.2218 38.6281 11.1988 38.5592C11.1058 38.2801 11.0388 37.9971 10.9938 37.7091C10.9718 37.5651 10.9548 37.4201 10.9448 37.2741C10.9338 37.1281 10.9278 36.9821 10.9278 36.835C10.9234 31.9847 10.9194 27.1337 10.9144 22.2827C10.9104 17.8728 10.9064 13.4617 10.9014 9.05171C10.9014 8.61067 10.9004 8.16866 10.9004 7.72664C10.8991 7.42183 10.9301 7.1219 10.9901 6.82784C11.0201 6.67989 11.0581 6.53389 11.1031 6.38985C11.1261 6.31783 11.1511 6.2458 11.1781 6.17488C11.2041 6.10384 11.2331 6.03389 11.2631 5.9648C11.3841 5.6888 11.5321 5.42891 11.7081 5.18379C11.7521 5.12288 11.7981 5.06282 11.8451 5.00386C11.8931 4.9449 11.9411 4.8868 11.9921 4.83089C12.0931 4.71883 12.1981 4.61189 12.3091 4.5118C12.4201 4.41084 12.5361 4.31587 12.6561 4.22688C12.7171 4.18184 12.7781 4.13887 12.8411 4.09785C12.9041 4.05586 12.9681 4.01582 13.0331 3.97688C13.2941 3.82185 13.5651 3.6949 13.8481 3.59187C13.9891 3.54085 14.1341 3.4958 14.2801 3.45686C14.4271 3.4189 14.5741 3.3868 14.7231 3.36189C15.0181 3.30989 15.3191 3.28389 15.6222 3.28279C32.1792 3.19685 48.8542 3.19685 65.4108 3.28267C65.5638 3.28365 65.7148 3.29073 65.8648 3.30367C66.0158 3.31673 66.1648 3.33565 66.3128 3.36165C66.6088 3.41267 66.8988 3.48872 67.1838 3.59175C67.2548 3.61775 67.3248 3.64473 67.3948 3.67366C67.4648 3.70271 67.5328 3.73274 67.6008 3.76472C67.7368 3.82869 67.8668 3.89766 67.9948 3.97371C68.2508 4.12569 68.4918 4.30171 68.7168 4.50471C68.7728 4.55574 68.8278 4.60774 68.8818 4.6617C68.9358 4.71565 68.9878 4.77071 69.0378 4.82674C69.1398 4.93965 69.2348 5.05769 69.3218 5.17867C69.4978 5.42268 69.6478 5.68269 69.7688 5.96065C69.7998 6.03072 69.8278 6.10164 69.8548 6.17171C69.8818 6.24373 69.9058 6.31465 69.9288 6.38667C69.9748 6.52974 70.0128 6.67574 70.0428 6.82271C70.0728 6.97066 70.0958 7.11971 70.1118 7.26973C70.1178 7.34566 70.1238 7.42171 70.1278 7.49776C70.1318 7.57466 70.1338 7.65071 70.1335 7.72713L70.1195 22.2832C70.1155 26.6931 70.1115 31.1041 70.1075 35.5141C70.1065 35.9552 70.1065 36.3951 70.1055 36.835" stroke="#FF00FF" stroke-width="0.283465" stroke-miterlimit="10" stroke-linecap="round" stroke-linejoin="round"/>
<path d="M66.9047 44.9091V50H66.2882V45.5554H66.2583L65.0154 46.3807V45.7543L66.2882 44.9091H66.9047ZM68.5055 50.0398C68.3829 50.0398 68.2776 49.9959 68.1898 49.908C68.102 49.8202 68.0581 49.715 68.0581 49.5923C68.0581 49.4697 68.102 49.3645 68.1898 49.2766C68.2776 49.1888 68.3829 49.1449 68.5055 49.1449C68.6281 49.1449 68.7334 49.1888 68.8212 49.2766C68.909 49.3645 68.9529 49.4697 68.9529 49.5923C68.9529 49.6735 68.9322 49.7481 68.8908 49.8161C68.851 49.884 68.7972 49.9387 68.7292 49.9801C68.6629 50.0199 68.5884 50.0398 68.5055 50.0398ZM71.4841 50.0696C71.1924 50.0696 70.9298 50.0116 70.6961 49.8956C70.4624 49.7796 70.2752 49.6205 70.1343 49.4183C69.9935 49.2161 69.9164 48.9858 69.9031 48.7273H70.4997C70.5229 48.9576 70.6273 49.1482 70.8129 49.299C71.0002 49.4482 71.2239 49.5227 71.4841 49.5227C71.6929 49.5227 71.8785 49.4738 72.0409 49.3761C72.205 49.2783 72.3334 49.1441 72.4262 48.9734C72.5207 48.801 72.5679 48.6063 72.5679 48.3892C72.5679 48.1671 72.519 47.9691 72.4213 47.7951C72.3251 47.6194 72.1926 47.4811 72.0235 47.38C71.8545 47.2789 71.6614 47.2275 71.4443 47.2259C71.2886 47.2242 71.1286 47.2482 70.9646 47.2979C70.8005 47.346 70.6655 47.4081 70.5594 47.4844L69.9827 47.4148L70.2909 44.9091H72.9358V45.456H70.808L70.629 46.9574H70.6588C70.7632 46.8745 70.8941 46.8058 71.0516 46.7511C71.209 46.6964 71.3731 46.669 71.5438 46.669C71.8553 46.669 72.1329 46.7436 72.3765 46.8928C72.6218 47.0402 72.814 47.2424 72.9532 47.4993C73.0941 47.7562 73.1645 48.0495 73.1645 48.3793C73.1645 48.7041 73.0916 48.9941 72.9458 49.2493C72.8016 49.5028 72.6027 49.7034 72.3492 49.8509C72.0956 49.9967 71.8073 50.0696 71.4841 50.0696ZM75.8125 50.0696C75.438 50.0696 75.119 49.9677 74.8555 49.7638C74.592 49.5584 74.3906 49.2609 74.2514 48.8714C74.1122 48.4804 74.0426 48.008 74.0426 47.4545C74.0426 46.9044 74.1122 46.4345 74.2514 46.0451C74.3923 45.654 74.5945 45.3557 74.858 45.1502C75.1231 44.9431 75.4413 44.8395 75.8125 44.8395C76.1837 44.8395 76.5011 44.9431 76.7646 45.1502C77.0297 45.3557 77.2319 45.654 77.3711 46.0451C77.512 46.4345 77.5824 46.9044 77.5824 47.4545C77.5824 48.008 77.5128 48.4804 77.3736 48.8714C77.2344 49.2609 77.033 49.5584 76.7695 49.7638C76.506 49.9677 76.187 50.0696 75.8125 50.0696ZM75.8125 49.5227C76.1837 49.5227 76.4721 49.3437 76.6776 48.9858C76.883 48.6278 76.9858 48.1174 76.9858 47.4545C76.9858 47.0137 76.9386 46.6384 76.8441 46.3285C76.7513 46.0186 76.6171 45.7824 76.4414 45.62C76.2674 45.4576 76.0578 45.3764 75.8125 45.3764C75.4446 45.3764 75.1571 45.5579 74.9499 45.9208C74.7428 46.2821 74.6392 46.7933 74.6392 47.4545C74.6392 47.8954 74.6856 48.2699 74.7784 48.5781C74.8712 48.8864 75.0046 49.1209 75.1786 49.2816C75.3543 49.4424 75.5656 49.5227 75.8125 49.5227Z" fill="#0000FF"/>
<path d="M33.4102 23.8706C33.8022 23.8706 34.1201 24.1885 34.1201 24.5805V28.9301C34.1198 29.322 33.802 29.64 33.4102 29.6401C33.0182 29.6401 32.7005 29.322 32.7002 28.9301V24.5805C32.7002 24.1884 33.0181 23.8706 33.4102 23.8706ZM26.0469 24.0542C26.2536 23.853 26.5647 23.8032 26.8242 23.9292L30.7295 25.8266C31.5095 26.1941 31.5095 27.3058 30.7295 27.6733L26.8242 29.5717C26.6122 29.6745 26.3619 29.6605 26.1621 29.5356C25.9622 29.4105 25.8401 29.1913 25.8398 28.9555V28.9448C25.8399 28.8473 25.8611 28.7504 25.9014 28.6616L26.3574 27.6577C26.3995 27.565 26.3313 27.4594 26.2295 27.4594H20.5898C20.198 27.4592 19.8801 27.1413 19.8799 26.7495C19.88 26.3576 20.198 26.0397 20.5898 26.0395H26.2344C26.3361 26.0395 26.4032 25.9339 26.3613 25.8413L25.9014 24.8286C25.782 24.5658 25.8403 24.2557 26.0469 24.0542ZM20.5898 15.8706C20.9819 15.8706 21.2998 16.1884 21.2998 16.5805V20.9301C21.2995 21.322 20.9818 21.6401 20.5898 21.6401C20.198 21.64 19.8802 21.322 19.8799 20.9301V16.5805C19.8799 16.1885 20.1978 15.8706 20.5898 15.8706ZM27.1758 15.9292C27.4353 15.8032 27.7464 15.853 27.9531 16.0542C28.1597 16.2557 28.218 16.5658 28.0986 16.8286L27.6387 17.8413C27.5968 17.9339 27.6639 18.0395 27.7656 18.0395H33.4102C33.802 18.0397 34.12 18.3576 34.1201 18.7495C34.1199 19.1413 33.802 19.4592 33.4102 19.4594H27.7705C27.6687 19.4594 27.6005 19.565 27.6426 19.6577L28.0986 20.6616C28.1389 20.7504 28.1601 20.8473 28.1602 20.9448V20.9555C28.1599 21.1913 28.0378 21.4105 27.8379 21.5356C27.6381 21.6605 27.3878 21.6745 27.1758 21.5717L23.2705 19.6733C22.4905 19.3058 22.4905 18.1941 23.2705 17.8266L27.1758 15.9292Z" fill="black"/>
</svg>
