<svg width="54" height="54" viewBox="0 0 54 54" fill="none" xmlns="http://www.w3.org/2000/svg">
<rect x="1.8501" y="1.84961" width="50.3" height="50.3" rx="3" stroke="#8B1EFF" stroke-width="0.28"/>
<path d="M44.1508 7.31653L44.1327 37.3804C44.1267 37.5443 44.1127 37.7073 44.0925 37.8691C44.0725 38.0311 44.0465 38.1932 44.0162 38.3547C43.9852 38.5156 43.9482 38.6747 43.9038 38.8339C43.8607 38.9919 43.8118 39.1489 43.7572 39.3043C43.6392 39.6283 43.4951 39.9434 43.3245 40.2437C43.1515 40.5486 42.9515 40.8376 42.7266 41.1068C42.4995 41.3768 42.2485 41.6259 41.9756 41.8479C41.7015 42.0698 41.4076 42.2659 41.0974 42.4301C40.8724 42.547 40.6373 42.65 40.3981 42.7354C40.2791 42.7773 40.1581 42.8143 40.0359 42.8481C39.9139 42.8822 39.7909 42.9122 39.6678 42.9369C39.5029 42.9718 39.3369 42.9978 39.1689 43.0148L39.1677 43.0144C31.0557 43.5814 22.9137 43.5803 14.8016 43.0129C14.1357 42.939 13.4807 42.725 12.8857 42.4038C12.2808 42.0787 11.7397 41.6418 11.2983 41.121C10.8544 40.5961 10.5123 39.984 10.2732 39.3397C10.1532 39.0188 10.0582 38.6877 9.99024 38.3521C9.92127 38.0181 9.87732 37.6771 9.8617 37.3372L9.84497 7.31702C9.85803 6.77502 9.95398 6.23108 10.1217 5.71313C10.2057 5.45422 10.3077 5.20215 10.426 4.9585C10.5439 4.71558 10.6801 4.48059 10.8309 4.25623C10.9819 4.03418 11.1489 3.82214 11.3319 3.62476C11.5139 3.42883 11.7098 3.24683 11.9191 3.07959C12.1271 2.91455 12.3481 2.76355 12.5769 2.63037C12.8069 2.49744 13.0459 2.38135 13.2918 2.28308C13.6038 2.16113 13.9287 2.06812 14.2578 2.00366C14.5878 1.93872 14.9227 1.90271 15.2581 1.89587C19.171 1.86487 23.084 1.84875 26.9973 1.84863C30.9103 1.84863 34.8232 1.86475 38.7365 1.89612C39.4144 1.90503 40.0955 2.04211 40.7295 2.29675C41.3785 2.55884 41.9766 2.9458 42.4756 3.43298C42.9895 3.93188 43.3986 4.53796 43.6824 5.19812C43.9703 5.86621 44.1304 6.59119 44.1504 7.31311" stroke="#8B1EFF" stroke-width="0.283" stroke-miterlimit="10"/>
<rect x="12.6792" y="5.50488" width="28.63" height="34.3" rx="1.42" stroke="#00FFFF" stroke-width="0.28"/>
<path d="M42.9527 7.68631C42.9477 12.5513 42.9427 17.4163 42.9386 22.2813L42.9237 36.8772C42.9237 37.1665 42.9027 37.4545 42.8617 37.7405C42.8518 37.8116 42.8397 37.8826 42.8268 37.9535C42.8147 38.0246 42.7998 38.0956 42.7838 38.1665C42.7517 38.3075 42.7147 38.4475 42.6728 38.5845C42.5878 38.8586 42.4818 39.1255 42.3507 39.3836C42.3168 39.4475 42.2827 39.5115 42.2467 39.5746C42.2118 39.6365 42.1748 39.6985 42.1367 39.7596C42.0598 39.8815 41.9778 39.9986 41.8908 40.1116C41.8028 40.2245 41.7097 40.3326 41.6098 40.4375C41.5618 40.4895 41.5098 40.5406 41.4578 40.5906C41.4048 40.6396 41.3518 40.6875 41.2968 40.7345C41.0788 40.9196 40.8448 41.0806 40.5938 41.2145C40.5308 41.2486 40.4668 41.2805 40.4018 41.3106C40.3368 41.3416 40.2708 41.3695 40.2038 41.3965C40.0708 41.4496 39.9368 41.4955 39.7998 41.5336C39.5268 41.6105 39.2467 41.6586 38.9608 41.6785C31.0301 42.2226 22.963 42.2226 15.0331 41.6785C14.7461 41.6582 14.4662 41.6103 14.1931 41.5332C14.0562 41.4953 13.9221 41.4492 13.7892 41.3963C13.7222 41.3693 13.6562 41.3402 13.5912 41.3103C13.5261 41.2803 13.4632 41.2483 13.4002 41.2143C13.1481 41.0802 12.9142 40.9193 12.6962 40.7333C12.6421 40.6873 12.5891 40.6393 12.5362 40.5893C12.4842 40.5403 12.4322 40.4883 12.3832 40.4373C12.2842 40.3323 12.1912 40.2243 12.1042 40.1103C12.0161 39.9983 11.9341 39.8803 11.8572 39.7593C11.8191 39.6983 11.7821 39.6363 11.7471 39.5733C11.7112 39.5113 11.6762 39.4473 11.6442 39.3822C11.5132 39.1253 11.4062 38.8583 11.3222 38.5843C11.2792 38.4463 11.2422 38.3073 11.2112 38.1663C11.1952 38.0952 11.1802 38.0243 11.1671 37.9533C11.1542 37.8822 11.1421 37.8113 11.1321 37.7393C11.0912 37.4543 11.0702 37.1673 11.0698 36.8769C11.0618 27.1469 11.0518 17.4159 11.042 7.68594C11.041 7.38895 11.068 7.09695 11.1231 6.80899C11.15 6.66592 11.1841 6.52298 11.2251 6.38199C11.2461 6.31094 11.2681 6.241 11.2931 6.17093C11.317 6.10098 11.343 6.03299 11.37 5.965C11.4801 5.6929 11.6151 5.43594 11.776 5.1929C11.8161 5.13199 11.8581 5.07291 11.901 5.01395C11.9451 4.95499 11.9901 4.89688 12.0371 4.84C12.13 4.72696 12.2271 4.6199 12.3311 4.517C12.5371 4.314 12.7621 4.13199 13.0081 3.97293C13.0691 3.93289 13.1321 3.89395 13.1941 3.85794C13.2581 3.82095 13.3211 3.7869 13.3861 3.75296C13.5141 3.68692 13.646 3.62698 13.7801 3.57388C13.9151 3.51993 14.0531 3.47391 14.192 3.43289C14.2621 3.41299 14.333 3.39395 14.4041 3.37698C14.4751 3.35989 14.547 3.345 14.619 3.33096C14.9051 3.27689 15.1961 3.24796 15.4896 3.24588C23.1208 3.18497 30.8747 3.18497 38.506 3.24588C38.8 3.24893 39.089 3.27689 39.372 3.33084C39.6549 3.38394 39.933 3.46292 40.205 3.57083C40.273 3.59683 40.341 3.62589 40.407 3.65591C40.474 3.68582 40.539 3.71793 40.6039 3.75089C40.7329 3.81693 40.8579 3.88882 40.9789 3.96793C41.2219 4.12393 41.4469 4.30484 41.657 4.51089C41.709 4.56192 41.7599 4.6149 41.809 4.66885C41.8579 4.72293 41.9059 4.77786 41.953 4.83389C42.0449 4.94583 42.132 5.0629 42.2119 5.18387C42.293 5.30484 42.367 5.42984 42.435 5.55984C42.47 5.62393 42.503 5.68985 42.534 5.75687C42.565 5.82388 42.595 5.89188 42.622 5.95987C42.732 6.23184 42.814 6.51285 42.87 6.80191C42.8839 6.87393 42.8949 6.94693 42.9059 7.01993C42.917 7.09293 42.9259 7.1669 42.9319 7.24088C42.9459 7.38882 42.953 7.5369 42.9527 7.68631Z" stroke="#FF00FF" stroke-width="0.283465" stroke-miterlimit="10" stroke-linecap="round" stroke-linejoin="round"/>
<path d="M34.5969 25.9397C34.5969 25.8281 34.6403 25.7227 34.7023 25.6358L35.2852 24.7429C35.434 24.5258 35.5953 24.4824 35.7565 24.4824C36.0666 24.4824 36.3208 24.7367 36.3208 25.0529C36.3208 25.1956 36.2712 25.332 36.1906 25.4312L35.4588 26.2622C35.3658 26.3738 35.2356 26.4482 35.0868 26.4482C34.8201 26.4482 34.5969 26.2188 34.5969 25.9397ZM38.4168 32.8354C38.4168 34.7082 37.0649 35.9298 35 35.9298C32.8605 35.9298 31.5769 34.6958 31.5769 32.823V28.1163C31.5769 27.5582 31.8932 27.2233 32.4141 27.2233C32.935 27.2233 33.2574 27.5582 33.2574 28.1163V32.6618C33.2574 33.8028 33.9147 34.4911 35 34.4911C36.0728 34.4911 36.7363 33.7904 36.7363 32.6618V28.1163C36.7363 27.5582 37.0525 27.2233 37.5734 27.2233C38.0943 27.2233 38.4168 27.5582 38.4168 28.1163V32.8354Z" fill="black"/>
<path d="M25.1343 15.7695C25.1343 18.4238 23.2183 20.1553 20.2915 20.1553C17.2593 20.1553 15.4399 18.4062 15.4399 15.752V9.08105C15.4399 8.29004 15.8882 7.81543 16.6265 7.81543C17.3647 7.81543 17.8218 8.29004 17.8218 9.08105V15.5234C17.8218 17.1406 18.7534 18.1162 20.2915 18.1162C21.812 18.1162 22.7524 17.123 22.7524 15.5234V9.08105C22.7524 8.29004 23.2007 7.81543 23.939 7.81543C24.6772 7.81543 25.1343 8.29004 25.1343 9.08105V15.7695Z" fill="black"/>
</svg>
