<svg width="54" height="54" viewBox="0 0 54 54" fill="none" xmlns="http://www.w3.org/2000/svg">
<rect x="1.84998" y="1.85001" width="50.3" height="50.3" rx="3" stroke="#8B1EFF" stroke-width="0.28"/>
<path d="M44.1508 7.31647L44.1327 37.3803C44.1267 37.5443 44.1127 37.7072 44.0925 37.8691C44.0725 38.0311 44.0465 38.1932 44.0162 38.3547C43.9852 38.5156 43.9482 38.6746 43.9038 38.8338C43.8607 38.9919 43.8118 39.1489 43.7572 39.3043C43.6392 39.6282 43.4951 39.9433 43.3245 40.2436C43.1515 40.5485 42.9515 40.8376 42.7266 41.1068C42.4995 41.3768 42.2485 41.6258 41.9756 41.8478C41.7015 42.0698 41.4076 42.2658 41.0974 42.43C40.8724 42.5469 40.6373 42.65 40.3981 42.7353C40.2791 42.7773 40.1581 42.8143 40.0359 42.8481C39.9139 42.8821 39.7909 42.9122 39.6678 42.9368C39.5029 42.9717 39.3369 42.9977 39.1689 43.0147L39.1677 43.0143C31.0557 43.5814 22.9137 43.5803 14.8016 43.0129C14.1357 42.9389 13.4807 42.7249 12.8857 42.4037C12.2808 42.0787 11.7397 41.6418 11.2983 41.1209C10.8544 40.596 10.5123 39.9839 10.2732 39.3397C10.1532 39.0187 10.0582 38.6877 9.99024 38.352C9.92127 38.018 9.87732 37.6771 9.8617 37.3371L9.84497 7.31696C9.85803 6.77496 9.95398 6.23102 10.1217 5.71307C10.2057 5.45416 10.3077 5.20209 10.426 4.95844C10.5439 4.71552 10.6801 4.48053 10.8309 4.25616C10.9819 4.03412 11.1489 3.82208 11.3319 3.62469C11.5139 3.42877 11.7098 3.24677 11.9191 3.07953C12.1271 2.91449 12.3481 2.76349 12.5769 2.63031C12.8069 2.49738 13.0459 2.38129 13.2918 2.28302C13.6038 2.16107 13.9287 2.06805 14.2578 2.0036C14.5878 1.93866 14.9227 1.90265 15.2581 1.89581C19.171 1.86481 23.084 1.84869 26.9973 1.84857C30.9103 1.84857 34.8232 1.86469 38.7365 1.89606C39.4144 1.90497 40.0955 2.04205 40.7295 2.29669C41.3785 2.55878 41.9766 2.94574 42.4756 3.43292C42.9895 3.93182 43.3986 4.5379 43.6824 5.19806C43.9703 5.86615 44.1304 6.59113 44.1504 7.31305" stroke="#8B1EFF" stroke-width="0.283" stroke-miterlimit="10"/>
<rect x="12.6791" y="5.50507" width="28.63" height="34.3" rx="1.42" stroke="#00FFFF" stroke-width="0.28"/>
<path d="M42.9527 7.68658C42.9477 12.5516 42.9427 17.4166 42.9386 22.2816L42.9237 36.8775C42.9237 37.1668 42.9027 37.4548 42.8617 37.7408C42.8518 37.8118 42.8397 37.8829 42.8268 37.9538C42.8147 38.0248 42.7998 38.0959 42.7838 38.1668C42.7517 38.3078 42.7147 38.4478 42.6728 38.5848C42.5878 38.8588 42.4818 39.1258 42.3507 39.3839C42.3168 39.4478 42.2827 39.5118 42.2467 39.5749C42.2118 39.6368 42.1748 39.6988 42.1367 39.7598C42.0598 39.8818 41.9778 39.9988 41.8908 40.1119C41.8028 40.2248 41.7097 40.3328 41.6098 40.4378C41.5618 40.4898 41.5098 40.5408 41.4578 40.5909C41.4048 40.6398 41.3518 40.6878 41.2968 40.7348C41.0788 40.9199 40.8448 41.0809 40.5938 41.2148C40.5308 41.2488 40.4668 41.2808 40.4018 41.3109C40.3368 41.3419 40.2708 41.3698 40.2038 41.3968C40.0708 41.4499 39.9368 41.4958 39.7998 41.5339C39.5268 41.6108 39.2467 41.6589 38.9608 41.6788C31.0301 42.2228 22.963 42.2228 15.0331 41.6788C14.7461 41.6585 14.4662 41.6105 14.1931 41.5335C14.0562 41.4955 13.9221 41.4495 13.7892 41.3965C13.7222 41.3696 13.6562 41.3405 13.5912 41.3106C13.5261 41.2806 13.4632 41.2486 13.4002 41.2145C13.1481 41.0805 12.9142 40.9196 12.6962 40.7336C12.6421 40.6876 12.5891 40.6396 12.5362 40.5895C12.4842 40.5406 12.4322 40.4886 12.3832 40.4376C12.2842 40.3326 12.1912 40.2245 12.1042 40.1105C12.0161 39.9986 11.9341 39.8806 11.8572 39.7596C11.8191 39.6985 11.7821 39.6365 11.7471 39.5735C11.7112 39.5115 11.6762 39.4476 11.6442 39.3825C11.5132 39.1255 11.4062 38.8586 11.3222 38.5845C11.2792 38.4466 11.2422 38.3076 11.2112 38.1666C11.1952 38.0955 11.1802 38.0246 11.1671 37.9536C11.1542 37.8825 11.1421 37.8116 11.1321 37.7396C11.0912 37.4545 11.0702 37.1675 11.0698 36.8771C11.0618 27.1472 11.0518 17.4162 11.042 7.68622C11.041 7.38922 11.068 7.09723 11.1231 6.80927C11.15 6.6662 11.1841 6.52325 11.2251 6.38226C11.2461 6.31122 11.2681 6.24127 11.2931 6.1712C11.317 6.10126 11.343 6.03326 11.37 5.96527C11.4801 5.69318 11.6151 5.43622 11.776 5.19318C11.8161 5.13226 11.8581 5.07318 11.901 5.01422C11.9451 4.95526 11.9901 4.89716 12.0371 4.84027C12.13 4.72723 12.2271 4.62018 12.3311 4.51727C12.5371 4.31427 12.7621 4.13226 13.0081 3.97321C13.0691 3.93317 13.1321 3.89423 13.1941 3.85822C13.2581 3.82123 13.3211 3.78717 13.3861 3.75323C13.5141 3.68719 13.646 3.62726 13.7801 3.57416C13.9151 3.5202 14.0531 3.47418 14.192 3.43317C14.2621 3.41327 14.333 3.39423 14.4041 3.37726C14.4751 3.36017 14.547 3.34528 14.619 3.33124C14.9051 3.27716 15.1961 3.24823 15.4896 3.24615C23.1208 3.18524 30.8747 3.18524 38.506 3.24615C38.8 3.24921 39.089 3.27716 39.372 3.33112C39.6549 3.38422 39.933 3.4632 40.205 3.57111C40.273 3.59711 40.341 3.62616 40.407 3.65619C40.474 3.6861 40.539 3.7182 40.6039 3.75116C40.7329 3.8172 40.8579 3.8891 40.9789 3.9682C41.2219 4.12421 41.4469 4.30511 41.657 4.51117C41.709 4.56219 41.7599 4.61517 41.809 4.66913C41.8579 4.72321 41.9059 4.77814 41.953 4.83417C42.0449 4.94611 42.132 5.06317 42.2119 5.18414C42.293 5.30511 42.367 5.43011 42.435 5.56012C42.47 5.62421 42.503 5.69012 42.534 5.75714C42.565 5.82416 42.595 5.89215 42.622 5.96014C42.732 6.23212 42.814 6.51312 42.87 6.80219C42.8839 6.87421 42.8949 6.9472 42.9059 7.0202C42.917 7.0932 42.9259 7.16718 42.9319 7.24115C42.9459 7.3891 42.953 7.53717 42.9527 7.68658Z" stroke="#FF00FF" stroke-width="0.283465" stroke-miterlimit="10" stroke-linecap="round" stroke-linejoin="round"/>
<path d="M15.9403 18.678L13.453 9.77481C13.3739 9.47599 13.33 9.1508 13.33 8.95744C13.33 8.2719 13.8221 7.78851 14.5252 7.78851C15.1668 7.78851 15.5623 8.21917 15.7645 9.12443L17.3999 16.2697C17.4332 16.4155 17.6403 16.4169 17.6757 16.2717L19.4207 9.11564C19.6404 8.1928 20.0271 7.78851 20.7302 7.78851C21.4421 7.78851 21.8376 8.21038 22.0574 9.11564L23.8013 16.2674C23.8368 16.413 24.0447 16.411 24.0773 16.2646L25.6696 9.12443C25.863 8.23675 26.276 7.78851 26.9264 7.78851C27.6207 7.78851 28.1041 8.26311 28.1041 8.93986C28.1041 9.14201 28.069 9.45841 28.0162 9.66055L25.529 18.678C25.2741 19.592 24.8698 19.9524 24.1403 19.9524C23.3757 19.9524 22.9099 19.5657 22.6638 18.6252L20.872 11.8515C20.8347 11.7107 20.6348 11.7109 20.5979 11.8517L18.8055 18.678C18.5769 19.5393 18.1023 19.9524 17.3729 19.9524C16.6522 19.9524 16.2127 19.6448 15.9403 18.678Z" fill="black"/>
<path fill-rule="evenodd" clip-rule="evenodd" d="M32.0585 28.4129C31.6664 28.4129 31.3485 28.7308 31.3485 29.1229C31.3485 29.5151 31.6664 29.8329 32.0585 29.8329H34.0887C34.1713 29.8329 34.236 29.9041 34.2267 29.9862C34.142 30.7334 33.9712 31.3624 33.7071 31.8915C33.3193 32.6683 32.7059 33.2795 31.7493 33.7362C31.3954 33.9051 31.2455 34.329 31.4144 34.6828C31.5833 35.0367 32.0072 35.1866 32.361 35.0177C33.5769 34.4372 34.436 33.6107 34.9776 32.5257V32.5257C34.9868 32.507 35.0135 32.507 35.0227 32.5257V32.5257C35.5643 33.6107 36.4234 34.4372 37.6392 35.0177C37.9931 35.1866 38.4169 35.0367 38.5859 34.6828C38.7548 34.329 38.6049 33.9051 38.251 33.7362C37.2944 33.2795 36.681 32.6683 36.2932 31.8915C36.0291 31.3624 35.8582 30.7334 35.7735 29.9862C35.7642 29.9041 35.829 29.8329 35.9116 29.8329H37.9486C38.3407 29.8329 38.6586 29.5151 38.6586 29.1229C38.6586 28.7308 38.3407 28.4129 37.9486 28.4129H32.0585Z" fill="black"/>
</svg>
