<svg width="54" height="54" viewBox="0 0 54 54" fill="none" xmlns="http://www.w3.org/2000/svg">
<rect x="1.8501" y="1.84961" width="50.3" height="50.3" rx="3" stroke="#8B1EFF" stroke-width="0.28"/>
<path d="M10.2065 37.1479V7.2959C10.2125 6.94397 10.252 6.59094 10.325 6.24585C10.397 5.90088 10.503 5.56384 10.6411 5.23901C10.9141 4.59497 11.3131 4.00098 11.8071 3.50171C12.2961 3.00769 12.8791 2.60559 13.5145 2.32971C13.8315 2.19177 14.1605 2.08582 14.4979 2.01257C14.8349 1.93958 15.1779 1.90051 15.5214 1.89661C19.4174 1.8656 23.3134 1.85059 27.2079 1.85059C31.1049 1.85059 34.9999 1.8656 38.8963 1.89673C39.2393 1.90076 39.5833 1.9397 39.9208 2.01318C40.2568 2.08618 40.5868 2.19312 40.903 2.33008C41.221 2.46802 41.525 2.63708 41.8108 2.8335C42.0978 3.03052 42.3658 3.25452 42.6108 3.50159C42.8578 3.75061 43.0808 4.02161 43.2748 4.31238C43.4708 4.60437 43.6398 4.91431 43.7772 5.23816C43.9142 5.56311 44.0212 5.90112 44.0934 6.24597C44.1664 6.59094 44.2054 6.94397 44.2104 7.29602C44.2104 7.29602 44.2104 37.1479 44.2101 37.1484C44.1891 37.8424 44.0511 38.5385 43.8027 39.1934C43.5557 39.8484 43.1977 40.4624 42.7389 40.9862C42.5089 41.2483 42.2549 41.4873 41.9799 41.7C41.7069 41.912 41.4139 42.0969 41.1049 42.2539C40.7979 42.4099 40.4769 42.5369 40.1451 42.6315C39.8161 42.7264 39.4771 42.7896 39.1357 42.8154C31.1907 43.2485 23.2267 43.2485 15.2819 42.8154C14.6009 42.7625 13.9259 42.5664 13.3131 42.2549C12.6931 41.9398 12.1351 41.5068 11.6787 40.9869C11.2197 40.4619 10.8627 39.8479 10.6155 39.193C10.3675 38.538 10.2285 37.843 10.2065 37.1479Z" stroke="#8B1EFF" stroke-width="0.283" stroke-miterlimit="10"/>
<rect x="12.8887" y="5.47168" width="28.63" height="34.35" rx="1.46" stroke="#00FFFF" stroke-width="0.28"/>
<path d="M38.6898 3.58597C31.0758 3.48697 23.3388 3.48697 15.7238 3.58597C15.4321 3.59 15.1431 3.621 14.858 3.68106C14.787 3.69608 14.7151 3.71207 14.6451 3.73099C14.5751 3.74905 14.5051 3.76907 14.4361 3.79105C14.298 3.83499 14.162 3.88406 14.0311 3.94107C13.8981 3.99808 13.7681 4.06107 13.6421 4.13101C13.578 4.16605 13.515 4.20303 13.453 4.241C13.3911 4.27908 13.33 4.319 13.2701 4.36099C13.0321 4.52603 12.8121 4.71402 12.6111 4.923C12.5101 5.02701 12.4151 5.13699 12.3251 5.25308C12.2791 5.31009 12.2361 5.36905 12.1931 5.42899C12.151 5.48807 12.1111 5.548 12.0721 5.61002C11.9151 5.85501 11.7841 6.11404 11.677 6.38602C11.651 6.45401 11.625 6.52298 11.6021 6.59305C11.578 6.66299 11.556 6.73306 11.5361 6.80301C11.4951 6.944 11.4621 7.08597 11.4351 7.23001C11.382 7.51602 11.3551 7.80606 11.3551 8.10208C11.3528 17.5187 11.3519 26.9367 11.3499 36.3537C11.35 36.6471 11.371 36.937 11.414 37.2231C11.436 37.3661 11.462 37.5081 11.4949 37.6501C11.511 37.7211 11.5289 37.791 11.548 37.8611C11.567 37.932 11.588 38.0021 11.61 38.0721C11.699 38.3501 11.809 38.619 11.9429 38.8761C11.977 38.9411 12.0119 39.005 12.048 39.0681C12.084 39.1311 12.1219 39.1931 12.162 39.2541C12.241 39.3752 12.324 39.4931 12.4129 39.6051C12.502 39.718 12.597 39.8271 12.6969 39.9311C12.7469 39.9821 12.798 40.0331 12.852 40.083C12.905 40.1321 12.959 40.1811 13.0139 40.2271C13.2359 40.4121 13.4729 40.5721 13.727 40.7061C13.7899 40.739 13.8549 40.7711 13.92 40.8011C13.9859 40.8311 14.0529 40.859 14.1199 40.8861C14.254 40.9381 14.3909 40.9831 14.5289 41.0211C14.8049 41.0961 15.087 41.1421 15.377 41.1571C23.2194 41.5843 31.1934 41.5843 39.0353 41.1573C39.3265 41.1413 39.6095 41.0954 39.8855 41.0213C40.0235 40.9833 40.1595 40.9383 40.2935 40.8863C40.3605 40.8593 40.4276 40.8313 40.4935 40.8013C40.5595 40.7703 40.6245 40.7383 40.6875 40.7044C40.9435 40.5703 41.1805 40.4103 41.3995 40.2254C41.5105 40.1333 41.6155 40.0343 41.7175 39.9303C41.7665 39.8783 41.8165 39.8244 41.8635 39.7693C41.9115 39.7154 41.9576 39.6593 42.0025 39.6033C42.1805 39.3773 42.3355 39.1363 42.4685 38.8814C42.5345 38.7533 42.5965 38.6223 42.6516 38.4873C42.6795 38.4203 42.7065 38.3523 42.7305 38.2834C42.7565 38.2154 42.7795 38.1463 42.8026 38.0763C42.8895 37.7993 42.9545 37.5163 42.9985 37.2293C43.0096 37.1573 43.0175 37.0843 43.0266 37.0124C43.0345 36.9394 43.0415 36.8664 43.0465 36.7934C43.0575 36.6474 43.0625 36.5003 43.0625 36.3543C43.0609 26.937 43.0598 17.5191 43.059 8.10159C43.058 7.80667 43.032 7.5137 42.977 7.22366C42.95 7.07864 42.9149 6.9357 42.8749 6.79568C42.834 6.65567 42.7879 6.51761 42.735 6.3826C42.6809 6.24661 42.6219 6.11368 42.5549 5.98367C42.5219 5.91861 42.4879 5.85367 42.451 5.7897C42.4139 5.72659 42.3759 5.6636 42.3369 5.60159C42.1799 5.3566 41.9999 5.12869 41.799 4.91971C41.7489 4.86771 41.6979 4.81668 41.645 4.76663C41.5909 4.71671 41.5379 4.66763 41.481 4.62064C41.3699 4.52567 41.2539 4.43765 41.136 4.35562C40.8979 4.19266 40.6459 4.05362 40.3789 3.93961C40.313 3.91165 40.2449 3.88467 40.1759 3.85867C40.1079 3.83365 40.0389 3.8096 39.9699 3.7886C39.8309 3.74564 39.692 3.70865 39.5509 3.6796C39.269 3.62161 38.9829 3.58963 38.6898 3.58597Z" stroke="#FF00FF" stroke-width="0.283465" stroke-miterlimit="10" stroke-linecap="round" stroke-linejoin="round"/>
<path d="M34.984 25.1152C35.974 25.1152 36.634 25.6352 36.634 26.3652C36.634 26.8952 36.334 27.2052 35.904 27.5952L35.374 28.1152C35.284 28.2052 35.344 28.3552 35.474 28.3552H36.144C36.544 28.3552 36.724 28.5552 36.724 28.8252C36.724 29.1352 36.534 29.3252 36.144 29.3252H33.844C33.574 29.3252 33.334 29.1152 33.334 28.8452C33.334 28.6452 33.424 28.4952 33.554 28.3752L35.034 27.0052C35.204 26.8452 35.354 26.6752 35.354 26.4552C35.354 26.2352 35.174 26.0752 34.934 26.0752C34.684 26.0752 34.554 26.2452 34.434 26.4452C34.314 26.6252 34.144 26.7452 33.904 26.7452C33.604 26.7252 33.374 26.5152 33.374 26.2352C33.374 26.1452 33.424 26.0152 33.474 25.9052C33.634 25.5352 34.124 25.1252 34.984 25.1252V25.1152Z" fill="black"/>
<path d="M18.9246 15.5691C19.6446 15.5691 20.1146 14.9691 20.1146 13.9991C20.1146 13.0291 19.6546 12.4591 18.9346 12.4591C18.2146 12.4591 17.7846 13.0391 17.7846 14.0091C17.7846 14.9791 18.2046 15.5691 18.9246 15.5691ZM13.9446 13.9991C13.9446 10.8491 16.0746 8.78906 19.1546 8.78906C22.0646 8.78906 24.1346 10.6191 24.1346 13.4291C24.1346 15.2991 23.2346 16.5991 21.7646 16.5991C20.9322 16.5991 20.5652 16.2302 20.4131 15.9843C20.3618 15.9013 20.2446 15.8929 20.1831 15.9686C19.9838 16.2142 19.5329 16.5991 18.6646 16.5991C17.3846 16.5991 16.5146 15.5391 16.5146 13.9791C16.5146 12.4191 17.3746 11.4191 18.6046 11.4191C19.3317 11.4191 19.7583 11.6766 19.9813 11.879C20.0592 11.9497 20.1848 11.9133 20.2126 11.8119C20.2214 11.7797 20.2327 11.7478 20.2472 11.718C20.3277 11.5529 20.486 11.4191 20.7646 11.4191C21.1246 11.4191 21.3446 11.6391 21.3446 12.0291V14.9591C21.3446 15.3891 21.5746 15.6391 21.9946 15.6391C22.6446 15.6391 23.0846 14.7691 23.0846 13.5291C23.0846 11.0791 21.3646 9.70906 19.1446 9.70906C16.6446 9.70906 14.9846 11.4691 14.9846 14.0291C14.9846 16.5891 16.7546 18.2091 19.4146 18.2091C19.9746 18.2091 20.3646 18.1391 20.8546 18.0191C20.9546 17.9991 21.0346 17.9991 21.1046 17.9991C21.3846 17.9991 21.5446 18.1491 21.5446 18.3791C21.5446 18.6091 21.4146 18.7791 21.0646 18.8991C20.6346 19.0391 19.9946 19.1391 19.2146 19.1391C16.1346 19.1391 13.9446 17.1991 13.9446 13.9891V13.9991Z" fill="black"/>
<path d="M16.2057 35.004C16.2057 34.684 16.3757 34.424 16.8957 33.884L19.2057 31.394C19.8857 30.664 20.1557 30.194 20.1557 29.674C20.1557 28.964 19.6457 28.494 18.8757 28.494C18.2457 28.494 17.7757 28.844 17.5357 29.494C17.3357 29.884 17.1157 30.054 16.7857 30.044C16.4157 30.034 16.1157 29.714 16.1157 29.324C16.1157 28.214 17.3057 27.124 18.9757 27.124C20.6457 27.124 21.7957 28.134 21.7957 29.534C21.7957 30.384 21.4157 31.084 20.3557 32.204L18.5357 34.154C18.4557 34.244 18.5157 34.394 18.6357 34.394H21.2957C21.7757 34.394 22.0757 34.654 22.0757 35.084C22.0757 35.514 21.7857 35.764 21.2957 35.764H17.1057C16.5557 35.764 16.2057 35.464 16.2057 35.014V35.004Z" fill="black"/>
</svg>
