<svg width="54" height="54" viewBox="0 0 54 54" fill="none" xmlns="http://www.w3.org/2000/svg">
<rect x="1.8501" y="1.8501" width="50.3" height="50.3" rx="3" stroke="#8B1EFF" stroke-width="0.28"/>
<path d="M10.2065 37.1479V7.2959C10.2125 6.94397 10.252 6.59094 10.325 6.24585C10.397 5.90088 10.503 5.56384 10.6411 5.23901C10.9141 4.59497 11.3131 4.00098 11.8071 3.50171C12.2961 3.00769 12.8791 2.60559 13.5145 2.32971C13.8315 2.19177 14.1605 2.08582 14.4979 2.01257C14.8349 1.93958 15.1779 1.90051 15.5214 1.89661C19.4174 1.8656 23.3134 1.85059 27.2079 1.85059C31.1049 1.85059 34.9999 1.8656 38.8963 1.89673C39.2393 1.90076 39.5833 1.9397 39.9208 2.01318C40.2568 2.08618 40.5868 2.19312 40.903 2.33008C41.221 2.46802 41.525 2.63708 41.8108 2.8335C42.0978 3.03052 42.3658 3.25452 42.6108 3.50159C42.8578 3.75061 43.0808 4.02161 43.2748 4.31238C43.4708 4.60437 43.6398 4.91431 43.7772 5.23816C43.9142 5.56311 44.0212 5.90112 44.0934 6.24597C44.1664 6.59094 44.2054 6.94397 44.2104 7.29602C44.2104 7.29602 44.2104 37.1479 44.2101 37.1484C44.1891 37.8424 44.0511 38.5385 43.8027 39.1934C43.5557 39.8484 43.1977 40.4624 42.7389 40.9862C42.5089 41.2483 42.2549 41.4873 41.9799 41.7C41.7069 41.912 41.4139 42.0969 41.1049 42.2539C40.7979 42.4099 40.4769 42.5369 40.1451 42.6315C39.8161 42.7264 39.4771 42.7896 39.1357 42.8154C31.1907 43.2485 23.2267 43.2485 15.2819 42.8154C14.6009 42.7625 13.9259 42.5664 13.3131 42.2549C12.6931 41.9398 12.1351 41.5068 11.6787 40.9869C11.2197 40.4619 10.8627 39.8479 10.6155 39.193C10.3675 38.538 10.2285 37.843 10.2065 37.1479Z" stroke="#8B1EFF" stroke-width="0.283" stroke-miterlimit="10"/>
<rect x="12.8887" y="5.47168" width="28.63" height="34.35" rx="1.46" stroke="#00FFFF" stroke-width="0.28"/>
<path d="M38.6898 3.58646C31.0758 3.48746 23.3388 3.48746 15.7238 3.58646C15.4321 3.59048 15.1431 3.62149 14.858 3.68155C14.787 3.69656 14.7151 3.71255 14.6451 3.73148C14.5751 3.74954 14.5051 3.76956 14.4361 3.79153C14.298 3.83548 14.162 3.88455 14.0311 3.94156C13.8981 3.99857 13.7681 4.06155 13.6421 4.1315C13.578 4.16653 13.515 4.20352 13.453 4.24149C13.3911 4.27957 13.33 4.31949 13.2701 4.36148C13.0321 4.52652 12.8121 4.71451 12.6111 4.92349C12.5101 5.0275 12.4151 5.13748 12.3251 5.25357C12.2791 5.31058 12.2361 5.36954 12.1931 5.42947C12.151 5.48856 12.1111 5.54849 12.0721 5.6105C11.9151 5.8555 11.7841 6.11453 11.677 6.38651C11.651 6.4545 11.625 6.52347 11.6021 6.59354C11.578 6.66348 11.556 6.73355 11.5361 6.8035C11.4951 6.94449 11.4621 7.08646 11.4351 7.2305C11.382 7.51651 11.3551 7.80655 11.3551 8.10257C11.3528 17.5192 11.3519 26.9372 11.3499 36.3542C11.35 36.6476 11.371 36.9375 11.414 37.2235C11.436 37.3666 11.462 37.5086 11.4949 37.6505C11.511 37.7216 11.5289 37.7915 11.548 37.8616C11.567 37.9325 11.588 38.0026 11.61 38.0725C11.699 38.3506 11.809 38.6195 11.9429 38.8766C11.977 38.9416 12.0119 39.0055 12.048 39.0686C12.084 39.1316 12.1219 39.1936 12.162 39.2545C12.241 39.3756 12.324 39.4936 12.4129 39.6056C12.502 39.7185 12.597 39.8275 12.6969 39.9315C12.7469 39.9826 12.798 40.0336 12.852 40.0835C12.905 40.1326 12.959 40.1815 13.0139 40.2276C13.2359 40.4126 13.4729 40.5725 13.727 40.7066C13.7899 40.7395 13.8549 40.7716 13.92 40.8015C13.9859 40.8316 14.0529 40.8595 14.1199 40.8866C14.254 40.9386 14.3909 40.9836 14.5289 41.0216C14.8049 41.0966 15.087 41.1426 15.377 41.1576C23.2194 41.5847 31.1934 41.5847 39.0353 41.1577C39.3265 41.1418 39.6095 41.0959 39.8855 41.0218C40.0235 40.9838 40.1595 40.9388 40.2935 40.8867C40.3605 40.8598 40.4276 40.8318 40.4935 40.8018C40.5595 40.7708 40.6245 40.7388 40.6875 40.7049C40.9435 40.5708 41.1805 40.4108 41.3995 40.2259C41.5105 40.1338 41.6155 40.0348 41.7175 39.9308C41.7665 39.8788 41.8165 39.8249 41.8635 39.7698C41.9115 39.7159 41.9576 39.6598 42.0025 39.6038C42.1805 39.3778 42.3355 39.1367 42.4685 38.8819C42.5345 38.7538 42.5965 38.6228 42.6516 38.4878C42.6795 38.4208 42.7065 38.3528 42.7305 38.2838C42.7565 38.2159 42.7795 38.1468 42.8026 38.0768C42.8895 37.7998 42.9545 37.5168 42.9985 37.2298C43.0096 37.1577 43.0175 37.0847 43.0266 37.0128C43.0345 36.9398 43.0415 36.8669 43.0465 36.7939C43.0575 36.6479 43.0625 36.5008 43.0625 36.3548C43.0609 26.9375 43.0598 17.5196 43.059 8.10208C43.058 7.80716 43.032 7.51419 42.977 7.22415C42.95 7.07913 42.9149 6.93619 42.8749 6.79617C42.834 6.65616 42.7879 6.5181 42.735 6.38309C42.6809 6.2471 42.6219 6.11417 42.5549 5.98416C42.5219 5.9191 42.4879 5.85416 42.451 5.79019C42.4139 5.72708 42.3759 5.66409 42.3369 5.60208C42.1799 5.35709 41.9999 5.12918 41.799 4.9202C41.7489 4.86819 41.6979 4.81717 41.645 4.76712C41.5909 4.71719 41.5379 4.66812 41.481 4.62112C41.3699 4.52615 41.2539 4.43814 41.136 4.35611C40.8979 4.19315 40.6459 4.05411 40.3789 3.94009C40.313 3.91214 40.2449 3.88516 40.1759 3.85916C40.1079 3.83414 40.0389 3.81009 39.9699 3.78909C39.8309 3.74612 39.692 3.70914 39.5509 3.68008C39.269 3.6221 38.9829 3.59012 38.6898 3.58646Z" stroke="#FF00FF" stroke-width="0.283465" stroke-miterlimit="10" stroke-linecap="round" stroke-linejoin="round"/>
<path fill-rule="evenodd" clip-rule="evenodd" d="M30.2024 27.3499C30.2024 26.9578 30.5203 26.6399 30.9124 26.6399L38.7374 26.64C39.3515 26.64 39.8615 27.168 39.7912 27.8094C39.6042 29.5139 39.0607 31.2781 37.8976 32.794C36.7284 34.318 34.9697 35.5425 32.4405 36.2165C32.0616 36.3174 31.6725 36.0921 31.5716 35.7132C31.4706 35.3343 31.6959 34.9453 32.0748 34.8443C34.3333 34.2425 35.8117 33.18 36.771 31.9296C37.6164 30.8278 38.0868 29.543 38.3027 28.2202C38.3165 28.1359 38.2509 28.06 38.1654 28.06L30.9124 28.0599C30.5203 28.0599 30.2024 27.742 30.2024 27.3499Z" fill="black"/>
<path d="M18.9246 15.5693C19.6446 15.5693 20.1146 14.9693 20.1146 13.9993C20.1146 13.0293 19.6546 12.4593 18.9346 12.4593C18.2146 12.4593 17.7846 13.0393 17.7846 14.0093C17.7846 14.9793 18.2046 15.5693 18.9246 15.5693ZM13.9446 13.9993C13.9446 10.8493 16.0746 8.78931 19.1546 8.78931C22.0646 8.78931 24.1346 10.6193 24.1346 13.4293C24.1346 15.2993 23.2346 16.5993 21.7646 16.5993C20.9322 16.5993 20.5652 16.2304 20.4131 15.9845C20.3618 15.9015 20.2446 15.8931 20.1831 15.9688C19.9838 16.2144 19.5329 16.5993 18.6646 16.5993C17.3846 16.5993 16.5146 15.5393 16.5146 13.9793C16.5146 12.4193 17.3746 11.4193 18.6046 11.4193C19.3317 11.4193 19.7583 11.6768 19.9813 11.8792C20.0592 11.9499 20.1848 11.9135 20.2126 11.8121C20.2214 11.7799 20.2327 11.748 20.2472 11.7182C20.3277 11.5531 20.486 11.4193 20.7646 11.4193C21.1246 11.4193 21.3446 11.6393 21.3446 12.0293V14.9593C21.3446 15.3893 21.5746 15.6393 21.9946 15.6393C22.6446 15.6393 23.0846 14.7693 23.0846 13.5293C23.0846 11.0793 21.3646 9.70931 19.1446 9.70931C16.6446 9.70931 14.9846 11.4693 14.9846 14.0293C14.9846 16.5893 16.7546 18.2093 19.4146 18.2093C19.9746 18.2093 20.3646 18.1393 20.8546 18.0193C20.9546 17.9993 21.0346 17.9993 21.1046 17.9993C21.3846 17.9993 21.5446 18.1493 21.5446 18.3793C21.5446 18.6093 21.4146 18.7793 21.0646 18.8993C20.6346 19.0393 19.9946 19.1393 19.2146 19.1393C16.1346 19.1393 13.9446 17.1993 13.9446 13.9893V13.9993Z" fill="black"/>
<path d="M16.2057 35.004C16.2057 34.684 16.3757 34.424 16.8957 33.884L19.2057 31.394C19.8857 30.664 20.1557 30.194 20.1557 29.674C20.1557 28.964 19.6457 28.494 18.8757 28.494C18.2457 28.494 17.7757 28.844 17.5357 29.494C17.3357 29.884 17.1157 30.054 16.7857 30.044C16.4157 30.034 16.1157 29.714 16.1157 29.324C16.1157 28.214 17.3057 27.124 18.9757 27.124C20.6457 27.124 21.7957 28.134 21.7957 29.534C21.7957 30.384 21.4157 31.084 20.3557 32.204L18.5357 34.154C18.4557 34.244 18.5157 34.394 18.6357 34.394H21.2957C21.7757 34.394 22.0757 34.654 22.0757 35.084C22.0757 35.514 21.7857 35.764 21.2957 35.764H17.1057C16.5557 35.764 16.2057 35.464 16.2057 35.014V35.004Z" fill="black"/>
</svg>
