<svg width="54" height="54" viewBox="0 0 54 54" fill="none" xmlns="http://www.w3.org/2000/svg">
<rect x="1.8501" y="1.84961" width="50.3" height="50.3" rx="3" stroke="#8B1EFF" stroke-width="0.28"/>
<path d="M10.2065 37.1479V7.2959C10.2125 6.94397 10.252 6.59094 10.325 6.24585C10.397 5.90088 10.503 5.56384 10.6411 5.23901C10.9141 4.59497 11.3131 4.00098 11.8071 3.50171C12.2961 3.00769 12.8791 2.60559 13.5145 2.32971C13.8315 2.19177 14.1605 2.08582 14.4979 2.01257C14.8349 1.93958 15.1779 1.90051 15.5214 1.89661C19.4174 1.8656 23.3134 1.85059 27.2079 1.85059C31.1049 1.85059 34.9999 1.8656 38.8963 1.89673C39.2393 1.90076 39.5833 1.9397 39.9208 2.01318C40.2568 2.08618 40.5868 2.19312 40.903 2.33008C41.221 2.46802 41.525 2.63708 41.8108 2.8335C42.0978 3.03052 42.3658 3.25452 42.6108 3.50159C42.8578 3.75061 43.0808 4.02161 43.2748 4.31238C43.4708 4.60437 43.6398 4.91431 43.7772 5.23816C43.9142 5.56311 44.0212 5.90112 44.0934 6.24597C44.1664 6.59094 44.2054 6.94397 44.2104 7.29602C44.2104 7.29602 44.2104 37.1479 44.2101 37.1484C44.1891 37.8424 44.0511 38.5385 43.8027 39.1934C43.5557 39.8484 43.1977 40.4624 42.7389 40.9862C42.5089 41.2483 42.2549 41.4873 41.9799 41.7C41.7069 41.912 41.4139 42.0969 41.1049 42.2539C40.7979 42.4099 40.4769 42.5369 40.1451 42.6315C39.8161 42.7264 39.4771 42.7896 39.1357 42.8154C31.1907 43.2485 23.2267 43.2485 15.2819 42.8154C14.6009 42.7625 13.9259 42.5664 13.3131 42.2549C12.6931 41.9398 12.1351 41.5068 11.6787 40.9869C11.2197 40.4619 10.8627 39.8479 10.6155 39.193C10.3675 38.538 10.2285 37.843 10.2065 37.1479Z" stroke="#8B1EFF" stroke-width="0.283" stroke-miterlimit="10"/>
<rect x="12.8887" y="5.47168" width="28.63" height="34.35" rx="1.46" stroke="#00FFFF" stroke-width="0.28"/>
<path d="M38.6898 3.58597C31.0758 3.48697 23.3388 3.48697 15.7238 3.58597C15.4321 3.59 15.1431 3.621 14.858 3.68106C14.787 3.69608 14.7151 3.71207 14.6451 3.73099C14.5751 3.74905 14.5051 3.76907 14.4361 3.79105C14.298 3.83499 14.162 3.88406 14.0311 3.94107C13.8981 3.99808 13.7681 4.06107 13.6421 4.13101C13.578 4.16605 13.515 4.20303 13.453 4.241C13.3911 4.27908 13.33 4.319 13.2701 4.36099C13.0321 4.52603 12.8121 4.71402 12.6111 4.923C12.5101 5.02701 12.4151 5.13699 12.3251 5.25308C12.2791 5.31009 12.2361 5.36905 12.1931 5.42899C12.151 5.48807 12.1111 5.548 12.0721 5.61002C11.9151 5.85501 11.7841 6.11404 11.677 6.38602C11.651 6.45401 11.625 6.52298 11.6021 6.59305C11.578 6.66299 11.556 6.73306 11.5361 6.80301C11.4951 6.944 11.4621 7.08597 11.4351 7.23001C11.382 7.51602 11.3551 7.80606 11.3551 8.10208C11.3528 17.5187 11.3519 26.9367 11.3499 36.3537C11.35 36.6471 11.371 36.937 11.414 37.2231C11.436 37.3661 11.462 37.5081 11.4949 37.6501C11.511 37.7211 11.5289 37.791 11.548 37.8611C11.567 37.932 11.588 38.0021 11.61 38.0721C11.699 38.3501 11.809 38.619 11.9429 38.8761C11.977 38.9411 12.0119 39.005 12.048 39.0681C12.084 39.1311 12.1219 39.1931 12.162 39.2541C12.241 39.3752 12.324 39.4931 12.4129 39.6051C12.502 39.718 12.597 39.8271 12.6969 39.9311C12.7469 39.9821 12.798 40.0331 12.852 40.083C12.905 40.1321 12.959 40.1811 13.0139 40.2271C13.2359 40.4121 13.4729 40.5721 13.727 40.7061C13.7899 40.739 13.8549 40.7711 13.92 40.8011C13.9859 40.8311 14.0529 40.859 14.1199 40.8861C14.254 40.9381 14.3909 40.9831 14.5289 41.0211C14.8049 41.0961 15.087 41.1421 15.377 41.1571C23.2194 41.5843 31.1934 41.5843 39.0353 41.1573C39.3265 41.1413 39.6095 41.0954 39.8855 41.0213C40.0235 40.9833 40.1595 40.9383 40.2935 40.8863C40.3605 40.8593 40.4276 40.8313 40.4935 40.8013C40.5595 40.7703 40.6245 40.7383 40.6875 40.7044C40.9435 40.5703 41.1805 40.4103 41.3995 40.2254C41.5105 40.1333 41.6155 40.0343 41.7175 39.9303C41.7665 39.8783 41.8165 39.8244 41.8635 39.7693C41.9115 39.7154 41.9576 39.6593 42.0025 39.6033C42.1805 39.3773 42.3355 39.1363 42.4685 38.8814C42.5345 38.7533 42.5965 38.6223 42.6516 38.4873C42.6795 38.4203 42.7065 38.3523 42.7305 38.2834C42.7565 38.2154 42.7795 38.1463 42.8026 38.0763C42.8895 37.7993 42.9545 37.5163 42.9985 37.2293C43.0096 37.1573 43.0175 37.0843 43.0266 37.0124C43.0345 36.9394 43.0415 36.8664 43.0465 36.7934C43.0575 36.6474 43.0625 36.5003 43.0625 36.3543C43.0609 26.937 43.0598 17.5191 43.059 8.10159C43.058 7.80667 43.032 7.5137 42.977 7.22366C42.95 7.07864 42.9149 6.9357 42.8749 6.79568C42.834 6.65567 42.7879 6.51761 42.735 6.3826C42.6809 6.24661 42.6219 6.11368 42.5549 5.98367C42.5219 5.91861 42.4879 5.85367 42.451 5.7897C42.4139 5.72659 42.3759 5.6636 42.3369 5.60159C42.1799 5.3566 41.9999 5.12869 41.799 4.91971C41.7489 4.86771 41.6979 4.81668 41.645 4.76663C41.5909 4.71671 41.5379 4.66763 41.481 4.62064C41.3699 4.52567 41.2539 4.43765 41.136 4.35562C40.8979 4.19266 40.6459 4.05362 40.3789 3.93961C40.313 3.91165 40.2449 3.88467 40.1759 3.85867C40.1079 3.83365 40.0389 3.8096 39.9699 3.7886C39.8309 3.74564 39.692 3.70865 39.5509 3.6796C39.269 3.62161 38.9829 3.58963 38.6898 3.58597Z" stroke="#FF00FF" stroke-width="0.283465" stroke-miterlimit="10" stroke-linecap="round" stroke-linejoin="round"/>
<path d="M34.8028 27.6223C34.5728 27.6223 34.4228 27.4623 34.4228 27.2223C34.4228 26.9823 34.5828 26.8223 34.8028 26.8223H34.8728C35.1828 26.8223 35.3728 26.6623 35.3728 26.4223C35.3728 26.1823 35.1828 26.0223 34.9128 26.0223C34.7028 26.0223 34.5528 26.1223 34.4528 26.2723C34.3328 26.4123 34.1628 26.5523 33.9428 26.5523C33.6428 26.5523 33.3928 26.3323 33.3928 26.0323C33.3928 25.9223 33.4328 25.8223 33.5128 25.7123C33.7928 25.3323 34.3028 25.1123 35.0228 25.1123C35.9628 25.1123 36.6528 25.5823 36.6528 26.2223C36.6528 26.5923 36.4728 26.8723 36.2328 27.0323C36.1428 27.0923 36.1528 27.2223 36.2528 27.2723C36.5428 27.4223 36.7528 27.7323 36.7528 28.1423C36.7528 28.9123 35.9728 29.4123 34.9528 29.4123C34.2428 29.4123 33.7328 29.1723 33.4728 28.7823C33.3928 28.6723 33.3628 28.5623 33.3628 28.4623C33.3628 28.1723 33.5928 27.9423 33.8928 27.9423C34.1628 27.9423 34.3228 28.0823 34.4328 28.2323C34.5428 28.3923 34.7028 28.4923 34.9328 28.4923C35.2528 28.4923 35.4428 28.3023 35.4428 28.0423C35.4428 27.7823 35.2528 27.6223 34.9028 27.6223H34.8028Z" fill="black"/>
<path d="M19 17.0616L19.2885 15.6357C19.3061 15.549 19.2398 15.4679 19.1513 15.4679H18.0108C17.9441 15.4679 17.8867 15.5149 17.8736 15.5803L17.5303 17.2849C17.4559 17.6693 17.2141 17.874 16.8854 17.874C16.5443 17.874 16.3149 17.6445 16.3149 17.2911C16.3149 17.2167 16.3211 17.1298 16.3335 17.0616L16.6275 15.6362C16.6454 15.5493 16.579 15.4679 16.4903 15.4679H16.1661C15.7072 15.4679 15.4653 15.2323 15.4653 14.8602C15.4653 14.5005 15.7072 14.2711 16.1661 14.2711H16.7829C16.8497 14.2711 16.9072 14.2239 16.9202 14.1583L17.1809 12.8446C17.1981 12.7581 17.1318 12.6774 17.0436 12.6774H16.7614C16.3025 12.6774 16.0606 12.4355 16.0606 12.0697C16.0606 11.7038 16.3025 11.4744 16.7614 11.4744H17.3416C17.4081 11.4744 17.4655 11.4276 17.4788 11.3624L17.8032 9.77524C17.8714 9.40937 18.107 9.21094 18.4109 9.21094C18.7644 9.21094 19.0186 9.46519 19.0186 9.80625C19.0186 9.86826 19.0062 9.94888 18.9938 10.0171L18.7305 11.3063C18.7127 11.3931 18.779 11.4744 18.8676 11.4744H20.0019C20.0684 11.4744 20.1258 11.4276 20.1391 11.3624L20.4635 9.77524C20.5379 9.41558 20.7735 9.21094 21.0898 9.21094C21.4371 9.21094 21.6851 9.46519 21.6851 9.80625C21.6851 9.86826 21.6789 9.94888 21.6665 10.0171L21.3978 11.3058C21.3797 11.3927 21.446 11.4744 21.5348 11.4744H21.9394C22.3982 11.4744 22.6277 11.6976 22.6277 12.0635C22.6277 12.4417 22.392 12.6774 21.927 12.6774H21.2415C21.1749 12.6774 21.1175 12.7243 21.1043 12.7896L20.8045 14.2711H21.344C21.8029 14.2711 22.0324 14.4881 22.0324 14.8602C22.0324 15.2323 21.7967 15.4679 21.3316 15.4679H20.6773C20.6106 15.4679 20.5532 15.5149 20.5401 15.5803L20.1968 17.2849C20.1224 17.6693 19.8868 17.874 19.5643 17.874C19.217 17.874 18.9752 17.6383 18.9752 17.2911C18.9752 17.2167 18.9876 17.1298 19 17.0616ZM18.4947 12.5596C18.4279 12.5596 18.3705 12.6067 18.3574 12.6721L18.0475 14.2215C18.0302 14.3081 18.0964 14.3889 18.1848 14.3889H19.5298C19.5967 14.3889 19.6542 14.3416 19.6671 14.2759L19.9718 12.7266C19.9888 12.6401 19.9225 12.5596 19.8344 12.5596H18.4947Z" fill="black"/>
<path d="M15.9954 33.964C15.9954 33.574 16.2754 33.284 16.6554 33.284C16.9254 33.284 17.1354 33.414 17.3654 33.754C17.7254 34.324 18.2754 34.624 18.9754 34.624C19.9054 34.624 20.5054 34.124 20.5054 33.354C20.5054 32.584 19.8954 32.064 18.9754 32.064H18.3654C17.9954 32.064 17.7254 31.784 17.7254 31.404C17.7254 31.024 17.9954 30.754 18.3654 30.754H18.9454C19.7054 30.754 20.2654 30.254 20.2654 29.574C20.2654 28.894 19.7154 28.424 18.9354 28.424C18.3254 28.424 17.8454 28.714 17.5154 29.264C17.3254 29.574 17.1154 29.704 16.8254 29.704C16.4254 29.704 16.1454 29.424 16.1454 29.024C16.1454 28.034 17.3454 27.124 18.9554 27.124C20.6654 27.124 21.8654 28.044 21.8654 29.374C21.8654 30.124 21.4054 30.854 20.7754 31.164C20.6654 31.224 20.6654 31.374 20.7854 31.414C21.5754 31.704 22.1254 32.504 22.1254 33.414C22.1254 34.894 20.8154 35.934 18.9454 35.934C17.2754 35.934 15.9854 34.994 15.9854 33.964H15.9954Z" fill="black"/>
</svg>
