<svg width="54" height="54" viewBox="0 0 54 54" fill="none" xmlns="http://www.w3.org/2000/svg">
<rect x="1.8501" y="1.84998" width="50.3" height="50.3" rx="3" stroke="#8B1EFF" stroke-width="0.28"/>
<path d="M10.2065 37.1479V7.2959C10.2125 6.94397 10.252 6.59094 10.325 6.24585C10.397 5.90088 10.503 5.56384 10.6411 5.23901C10.9141 4.59497 11.3131 4.00098 11.8071 3.50171C12.2961 3.00769 12.8791 2.60559 13.5145 2.32971C13.8315 2.19177 14.1605 2.08582 14.4979 2.01257C14.8349 1.93958 15.1779 1.90051 15.5214 1.89661C19.4174 1.8656 23.3134 1.85059 27.2079 1.85059C31.1049 1.85059 34.9999 1.8656 38.8963 1.89673C39.2393 1.90076 39.5833 1.9397 39.9208 2.01318C40.2568 2.08618 40.5868 2.19312 40.903 2.33008C41.221 2.46802 41.525 2.63708 41.8108 2.8335C42.0978 3.03052 42.3658 3.25452 42.6108 3.50159C42.8578 3.75061 43.0808 4.02161 43.2748 4.31238C43.4708 4.60437 43.6398 4.91431 43.7772 5.23816C43.9142 5.56311 44.0212 5.90112 44.0934 6.24597C44.1664 6.59094 44.2054 6.94397 44.2104 7.29602C44.2104 7.29602 44.2104 37.1479 44.2101 37.1484C44.1891 37.8424 44.0511 38.5385 43.8027 39.1934C43.5557 39.8484 43.1977 40.4624 42.7389 40.9862C42.5089 41.2483 42.2549 41.4873 41.9799 41.7C41.7069 41.912 41.4139 42.0969 41.1049 42.2539C40.7979 42.4099 40.4769 42.5369 40.1451 42.6315C39.8161 42.7264 39.4771 42.7896 39.1357 42.8154C31.1907 43.2485 23.2267 43.2485 15.2819 42.8154C14.6009 42.7625 13.9259 42.5664 13.3131 42.2549C12.6931 41.9398 12.1351 41.5068 11.6787 40.9869C11.2197 40.4619 10.8627 39.8479 10.6155 39.193C10.3675 38.538 10.2285 37.843 10.2065 37.1479Z" stroke="#8B1EFF" stroke-width="0.283" stroke-miterlimit="10"/>
<rect x="12.8887" y="5.47168" width="28.63" height="34.35" rx="1.46" stroke="#00FFFF" stroke-width="0.28"/>
<path d="M38.6898 3.58646C31.0758 3.48746 23.3388 3.48746 15.7238 3.58646C15.4321 3.59048 15.1431 3.62149 14.858 3.68155C14.787 3.69656 14.7151 3.71255 14.6451 3.73148C14.5751 3.74954 14.5051 3.76956 14.4361 3.79153C14.298 3.83548 14.162 3.88455 14.0311 3.94156C13.8981 3.99857 13.7681 4.06155 13.6421 4.1315C13.578 4.16653 13.515 4.20352 13.453 4.24149C13.3911 4.27957 13.33 4.31949 13.2701 4.36148C13.0321 4.52652 12.8121 4.71451 12.6111 4.92349C12.5101 5.0275 12.4151 5.13748 12.3251 5.25357C12.2791 5.31058 12.2361 5.36954 12.1931 5.42947C12.151 5.48856 12.1111 5.54849 12.0721 5.6105C11.9151 5.8555 11.7841 6.11453 11.677 6.38651C11.651 6.4545 11.625 6.52347 11.6021 6.59354C11.578 6.66348 11.556 6.73355 11.5361 6.8035C11.4951 6.94449 11.4621 7.08646 11.4351 7.2305C11.382 7.51651 11.3551 7.80655 11.3551 8.10257C11.3528 17.5192 11.3519 26.9372 11.3499 36.3542C11.35 36.6476 11.371 36.9375 11.414 37.2235C11.436 37.3666 11.462 37.5086 11.4949 37.6505C11.511 37.7216 11.5289 37.7915 11.548 37.8616C11.567 37.9325 11.588 38.0026 11.61 38.0725C11.699 38.3506 11.809 38.6195 11.9429 38.8766C11.977 38.9416 12.0119 39.0055 12.048 39.0686C12.084 39.1316 12.1219 39.1936 12.162 39.2545C12.241 39.3756 12.324 39.4936 12.4129 39.6056C12.502 39.7185 12.597 39.8275 12.6969 39.9315C12.7469 39.9826 12.798 40.0336 12.852 40.0835C12.905 40.1326 12.959 40.1815 13.0139 40.2276C13.2359 40.4126 13.4729 40.5725 13.727 40.7066C13.7899 40.7395 13.8549 40.7716 13.92 40.8015C13.9859 40.8316 14.0529 40.8595 14.1199 40.8866C14.254 40.9386 14.3909 40.9836 14.5289 41.0216C14.8049 41.0966 15.087 41.1426 15.377 41.1576C23.2194 41.5847 31.1934 41.5847 39.0353 41.1577C39.3265 41.1418 39.6095 41.0959 39.8855 41.0218C40.0235 40.9838 40.1595 40.9388 40.2935 40.8867C40.3605 40.8598 40.4276 40.8318 40.4935 40.8018C40.5595 40.7708 40.6245 40.7388 40.6875 40.7049C40.9435 40.5708 41.1805 40.4108 41.3995 40.2259C41.5105 40.1338 41.6155 40.0348 41.7175 39.9308C41.7665 39.8788 41.8165 39.8249 41.8635 39.7698C41.9115 39.7159 41.9576 39.6598 42.0025 39.6038C42.1805 39.3778 42.3355 39.1367 42.4685 38.8819C42.5345 38.7538 42.5965 38.6228 42.6516 38.4878C42.6795 38.4208 42.7065 38.3528 42.7305 38.2838C42.7565 38.2159 42.7795 38.1468 42.8026 38.0768C42.8895 37.7998 42.9545 37.5168 42.9985 37.2298C43.0096 37.1577 43.0175 37.0847 43.0266 37.0128C43.0345 36.9398 43.0415 36.8669 43.0465 36.7939C43.0575 36.6479 43.0625 36.5008 43.0625 36.3548C43.0609 26.9375 43.0598 17.5196 43.059 8.10208C43.058 7.80716 43.032 7.51419 42.977 7.22415C42.95 7.07913 42.9149 6.93619 42.8749 6.79617C42.834 6.65616 42.7879 6.5181 42.735 6.38309C42.6809 6.2471 42.6219 6.11417 42.5549 5.98416C42.5219 5.9191 42.4879 5.85416 42.451 5.79019C42.4139 5.72708 42.3759 5.66409 42.3369 5.60208C42.1799 5.35709 41.9999 5.12918 41.799 4.9202C41.7489 4.86819 41.6979 4.81717 41.645 4.76712C41.5909 4.71719 41.5379 4.66812 41.481 4.62112C41.3699 4.52615 41.2539 4.43814 41.136 4.35611C40.8979 4.19315 40.6459 4.05411 40.3789 3.94009C40.313 3.91214 40.2449 3.88516 40.1759 3.85916C40.1079 3.83414 40.0389 3.81009 39.9699 3.78909C39.8309 3.74612 39.692 3.70914 39.5509 3.68008C39.269 3.6221 38.9829 3.59012 38.6898 3.58646Z" stroke="#FF00FF" stroke-width="0.283465" stroke-miterlimit="10" stroke-linecap="round" stroke-linejoin="round"/>
<path fill-rule="evenodd" clip-rule="evenodd" d="M33.8041 8.91489C34.1933 8.9626 34.4701 9.31679 34.4224 9.706C34.4193 9.7315 34.4162 9.75705 34.413 9.78263C34.4025 9.86889 34.4723 9.94379 34.559 9.93912C35.6366 9.88119 36.714 9.79361 37.407 9.67661C37.7937 9.61133 38.16 9.87186 38.2253 10.2585C38.2906 10.6452 38.0301 11.0115 37.6434 11.0768C36.8248 11.215 35.5619 11.3121 34.354 11.3716C34.2845 11.375 34.2279 11.4288 34.2215 11.4981C34.1938 11.7955 34.1702 12.0939 34.1528 12.3911C34.1475 12.48 34.2262 12.5504 34.3145 12.5388C34.6586 12.4934 35.0231 12.4749 35.4066 12.4871C35.4613 12.4889 35.5113 12.4586 35.5423 12.4135C35.6887 12.2004 35.9467 12.0751 36.2207 12.1112C36.5044 12.1486 36.7268 12.3486 36.8064 12.6051C36.8221 12.6558 36.8592 12.6984 36.9097 12.7144C37.7122 12.9682 38.2871 13.4266 38.6569 13.9838C39.1265 14.6914 39.228 15.5032 39.114 16.1149C38.8583 17.4868 37.8151 18.2454 36.7626 18.5581C36.3867 18.6698 35.9915 18.4556 35.8798 18.0797C35.7681 17.7038 35.9823 17.3086 36.3582 17.1969C37.0796 16.9826 37.5902 16.5407 37.718 15.8547C37.7694 15.5792 37.7247 15.1471 37.4738 14.769C37.3283 14.5499 37.0981 14.3257 36.7317 14.1625C36.6567 14.129 36.5717 14.1732 36.5489 14.2522C36.2965 15.1269 35.9106 15.9917 35.4035 16.6823C35.2987 16.825 35.1865 16.9633 35.0669 17.0942C35.0337 17.1305 35.0221 17.181 35.0299 17.2295C35.0722 17.493 34.9635 17.7694 34.7283 17.9295C34.4852 18.095 34.1761 18.0892 33.9436 17.9393C33.9417 17.938 33.9393 17.9378 33.9372 17.9388V17.9388C33.3237 18.2126 32.6371 18.2518 31.9296 17.9807C31.178 17.6926 30.7023 17.1074 30.568 16.3972C30.4388 15.7143 30.6369 14.9935 31.05 14.3819C31.4118 13.8462 31.9451 13.3766 32.6283 13.0384C32.6757 13.0149 32.7068 12.9675 32.7083 12.9146C32.7214 12.4702 32.7503 12.0244 32.7879 11.5858C32.7951 11.5024 32.7283 11.4311 32.6446 11.433C32.3156 11.4402 32.0178 11.4438 31.7676 11.4438C31.3755 11.4438 31.0576 11.1259 31.0576 10.7338C31.0576 10.3417 31.3755 10.0238 31.7676 10.0238C32.0671 10.0238 32.4323 10.0185 32.8349 10.008C32.9042 10.0062 32.9617 9.95377 32.97 9.88491C32.9844 9.76597 32.9988 9.64867 33.013 9.53324C33.0607 9.14403 33.4149 8.86718 33.8041 8.91489ZM32.2267 15.1767C32.3143 15.0471 32.4246 14.9168 32.5584 14.7915C32.6389 14.7161 32.766 14.7703 32.7788 14.88C32.8461 15.4573 32.9629 16.0248 33.1513 16.5577C33.1785 16.6346 33.1368 16.7204 33.0561 16.7328C32.8664 16.7619 32.6633 16.7411 32.4378 16.6547C32.1323 16.5376 32.0033 16.3452 31.9632 16.1333C31.918 15.894 31.9758 15.5482 32.2267 15.1767ZM34.2491 13.9856C34.1821 13.9983 34.1355 14.059 34.1393 14.1271C34.1643 14.574 34.2151 14.9949 34.2966 15.3842C34.3214 15.5022 34.4714 15.5271 34.532 15.4228C34.7653 15.0215 34.9631 14.5609 35.1166 14.0819C35.1452 13.9928 35.0779 13.9029 34.9845 13.906C34.7214 13.915 34.4764 13.9426 34.2491 13.9856Z" fill="black"/>
<path fill-rule="evenodd" clip-rule="evenodd" d="M33.6891 26.205C34.0795 26.2422 34.3657 26.5888 34.3285 26.9792C34.3241 27.0254 34.3198 27.0717 34.3155 27.1179C34.3077 27.203 34.3775 27.275 34.4628 27.2696C35.5931 27.1977 36.7813 27.0645 38.312 26.8599C38.7007 26.808 39.0579 27.0809 39.1099 27.4696C39.1618 27.8583 38.8889 28.2155 38.5002 28.2674C36.8436 28.4889 35.5665 28.6297 34.3277 28.7003C34.256 28.7044 34.1988 28.7618 34.1956 28.8335C34.1787 29.2054 34.1683 29.5776 34.1655 29.9502C34.1648 30.0355 34.2404 30.101 34.3251 30.0907C34.6948 30.0457 35.0849 30.0251 35.4948 30.0324C35.6024 30.0343 35.7077 30.0379 35.8109 30.0431C35.8203 30.0436 35.8284 30.0366 35.8293 30.0272V30.0272C35.8635 29.6366 36.2079 29.3477 36.5985 29.3819C36.9892 29.4161 37.2781 29.7606 37.2438 30.1512V30.1512C37.2389 30.2077 37.275 30.2598 37.3297 30.275C37.7093 30.3808 38.0447 30.5189 38.3398 30.6856C39.0522 31.0879 39.4922 31.636 39.7427 32.209C40.224 33.3097 39.9796 34.4289 39.8753 34.7356C39.6264 35.4676 39.0473 36.0678 38.3601 36.4929C37.6644 36.9231 36.8032 37.2101 35.8917 37.286C35.5009 37.3186 35.1578 37.0282 35.1252 36.6374C35.0926 36.2467 35.383 35.9035 35.7738 35.8709C36.4716 35.8128 37.1158 35.5928 37.6131 35.2852C38.1188 34.9724 38.4202 34.604 38.5309 34.2784C38.5729 34.1552 38.7276 33.432 38.4416 32.7778C38.3085 32.4734 38.0734 32.1659 37.6415 31.922C37.4767 31.8289 37.2783 31.7424 37.04 31.6697C36.9699 31.6483 36.8964 31.6873 36.8709 31.7559C36.4485 32.89 35.7288 33.9311 34.9285 34.7047C34.8634 34.7676 34.7973 34.8292 34.7304 34.8894C34.6922 34.9237 34.6751 34.9758 34.6866 35.0258C34.6896 35.0387 34.6926 35.0517 34.6956 35.0646C34.7842 35.4466 34.5465 35.8281 34.1645 35.9168C33.96 35.9642 33.7557 35.9182 33.5964 35.8065C33.5478 35.7725 33.4845 35.7629 33.4314 35.7891C33.2853 35.8613 33.138 35.9243 32.99 35.977C32.3081 36.2201 31.5386 36.2665 30.8604 35.8693C30.2075 35.4869 29.8545 34.8539 29.8029 34.16C29.7527 33.4847 29.9857 32.7839 30.421 32.1729C30.9088 31.488 31.6626 30.8915 32.6545 30.5031C32.7094 30.4816 32.7459 30.4286 32.7455 30.3696C32.7417 29.8773 32.7511 29.3877 32.7713 28.9008C32.7746 28.8204 32.71 28.7535 32.6296 28.7541C32.085 28.7579 31.519 28.7498 30.9051 28.7306C30.5132 28.7183 30.2054 28.3906 30.2177 27.9987C30.23 27.6067 30.5577 27.299 30.9496 27.3113C31.5919 27.3314 32.1787 27.3391 32.7443 27.3331C32.8163 27.3323 32.8758 27.2768 32.882 27.2051C32.8925 27.0847 32.9035 26.9645 32.9149 26.8445C32.9521 26.4541 33.2988 26.1678 33.6891 26.205ZM31.5775 32.9968C31.8061 32.6759 32.152 32.3531 32.6225 32.0862C32.7094 32.0369 32.8155 32.097 32.8235 32.1966C32.8778 32.8779 32.9623 33.5645 33.0831 34.2565C33.0929 34.3131 33.0677 34.3702 33.0183 34.3993C32.8439 34.5016 32.6743 34.582 32.5132 34.6395C32.0755 34.7955 31.7756 34.7597 31.5781 34.644C31.3553 34.5136 31.2384 34.3158 31.219 34.0547C31.1982 33.7748 31.293 33.3961 31.5775 32.9968ZM34.3257 31.523C34.2553 31.5335 34.2053 31.5964 34.2096 31.6674C34.2352 32.086 34.2724 32.5055 34.3226 32.926C34.337 33.0461 34.4855 33.0895 34.5599 32.9941C34.8838 32.5785 35.166 32.1183 35.3828 31.6407C35.4236 31.5508 35.3577 31.4503 35.259 31.4513C34.9261 31.4545 34.6151 31.4797 34.3257 31.523Z" fill="black"/>
<path d="M22.1623 17.135C22.1498 17.4829 21.8458 17.7501 21.4976 17.7501L16.6437 17.7501C16.2778 17.7501 15.9863 17.4586 15.9863 17.099C15.9863 16.7951 16.1848 16.5533 16.4514 16.4665C17.2142 16.2122 17.6792 15.5239 17.6792 14.7549C17.6792 14.5288 17.6525 14.316 17.6065 14.1128C17.5921 14.049 17.534 14.0046 17.4686 14.0046H17.0033C16.6002 14.0046 16.3522 13.7937 16.3522 13.4403C16.3522 13.0806 16.6002 12.8822 16.9971 12.8822H17.0744C17.1684 12.8822 17.2363 12.7923 17.2105 12.7019C17.106 12.3348 17.0281 11.9672 17.0281 11.5675C17.0281 10.0048 18.2063 9.12427 20.0109 9.12427C20.5814 9.12427 21.0961 9.20488 21.4248 9.34751C21.6604 9.44053 21.8464 9.65757 21.8464 9.94282C21.8464 10.2839 21.5798 10.5629 21.2325 10.5629C20.9597 10.5629 20.5752 10.4017 20.1473 10.4017C19.2357 10.4017 18.6404 10.8854 18.6404 11.7102C18.6404 12.1044 18.7223 12.4475 18.8209 12.7812C18.8386 12.8412 18.8941 12.8822 18.9567 12.8822H20.4512C20.8542 12.8822 21.1023 13.0806 21.1023 13.4341C21.1023 13.7937 20.8542 14.0046 20.4512 14.0046H19.3333C19.2431 14.0046 19.1769 14.0874 19.195 14.1757C19.2234 14.3149 19.2419 14.4589 19.2419 14.6123C19.232 15.2465 19.0474 15.8366 18.6359 16.2194C18.5406 16.308 18.6001 16.4665 18.7302 16.4665L21.524 16.4665C21.8853 16.4665 22.1753 16.771 22.1623 17.135Z" fill="black"/>
<path d="M15.9954 33.9643C15.9954 33.5743 16.2754 33.2843 16.6554 33.2843C16.9254 33.2843 17.1354 33.4143 17.3654 33.7543C17.7254 34.3243 18.2754 34.6243 18.9754 34.6243C19.9054 34.6243 20.5054 34.1243 20.5054 33.3543C20.5054 32.5843 19.8954 32.0643 18.9754 32.0643H18.3654C17.9954 32.0643 17.7254 31.7843 17.7254 31.4043C17.7254 31.0243 17.9954 30.7543 18.3654 30.7543H18.9454C19.7054 30.7543 20.2654 30.2543 20.2654 29.5743C20.2654 28.8943 19.7154 28.4243 18.9354 28.4243C18.3254 28.4243 17.8454 28.7143 17.5154 29.2643C17.3254 29.5743 17.1154 29.7043 16.8254 29.7043C16.4254 29.7043 16.1454 29.4243 16.1454 29.0243C16.1454 28.0343 17.3454 27.1243 18.9554 27.1243C20.6654 27.1243 21.8654 28.0443 21.8654 29.3743C21.8654 30.1243 21.4054 30.8543 20.7754 31.1643C20.6654 31.2243 20.6654 31.3743 20.7854 31.4143C21.5754 31.7043 22.1254 32.5043 22.1254 33.4143C22.1254 34.8943 20.8154 35.9343 18.9454 35.9343C17.2754 35.9343 15.9854 34.9943 15.9854 33.9643H15.9954Z" fill="black"/>
</svg>
