<svg width="54" height="54" viewBox="0 0 54 54" fill="none" xmlns="http://www.w3.org/2000/svg">
<rect x="1.8501" y="1.84998" width="50.3" height="50.3" rx="3" stroke="#8B1EFF" stroke-width="0.28"/>
<path d="M10.2065 37.1479V7.2959C10.2125 6.94397 10.252 6.59094 10.325 6.24585C10.397 5.90088 10.503 5.56384 10.6411 5.23901C10.9141 4.59497 11.3131 4.00098 11.8071 3.50171C12.2961 3.00769 12.8791 2.60559 13.5145 2.32971C13.8315 2.19177 14.1605 2.08582 14.4979 2.01257C14.8349 1.93958 15.1779 1.90051 15.5214 1.89661C19.4174 1.8656 23.3134 1.85059 27.2079 1.85059C31.1049 1.85059 34.9999 1.8656 38.8963 1.89673C39.2393 1.90076 39.5833 1.9397 39.9208 2.01318C40.2568 2.08618 40.5868 2.19312 40.903 2.33008C41.221 2.46802 41.525 2.63708 41.8108 2.8335C42.0978 3.03052 42.3658 3.25452 42.6108 3.50159C42.8578 3.75061 43.0808 4.02161 43.2748 4.31238C43.4708 4.60437 43.6398 4.91431 43.7772 5.23816C43.9142 5.56311 44.0212 5.90112 44.0934 6.24597C44.1664 6.59094 44.2054 6.94397 44.2104 7.29602C44.2104 7.29602 44.2104 37.1479 44.2101 37.1484C44.1891 37.8424 44.0511 38.5385 43.8027 39.1934C43.5557 39.8484 43.1977 40.4624 42.7389 40.9862C42.5089 41.2483 42.2549 41.4873 41.9799 41.7C41.7069 41.912 41.4139 42.0969 41.1049 42.2539C40.7979 42.4099 40.4769 42.5369 40.1451 42.6315C39.8161 42.7264 39.4771 42.7896 39.1357 42.8154C31.1907 43.2485 23.2267 43.2485 15.2819 42.8154C14.6009 42.7625 13.9259 42.5664 13.3131 42.2549C12.6931 41.9398 12.1351 41.5068 11.6787 40.9869C11.2197 40.4619 10.8627 39.8479 10.6155 39.193C10.3675 38.538 10.2285 37.843 10.2065 37.1479Z" stroke="#8B1EFF" stroke-width="0.283" stroke-miterlimit="10"/>
<rect x="12.8887" y="5.47168" width="28.63" height="34.35" rx="1.46" stroke="#00FFFF" stroke-width="0.28"/>
<path d="M38.6898 3.58646C31.0758 3.48746 23.3388 3.48746 15.7238 3.58646C15.4321 3.59048 15.1431 3.62149 14.858 3.68155C14.787 3.69656 14.7151 3.71255 14.6451 3.73148C14.5751 3.74954 14.5051 3.76956 14.4361 3.79153C14.298 3.83548 14.162 3.88455 14.0311 3.94156C13.8981 3.99857 13.7681 4.06155 13.6421 4.1315C13.578 4.16653 13.515 4.20352 13.453 4.24149C13.3911 4.27957 13.33 4.31949 13.2701 4.36148C13.0321 4.52652 12.8121 4.71451 12.6111 4.92349C12.5101 5.0275 12.4151 5.13748 12.3251 5.25357C12.2791 5.31058 12.2361 5.36954 12.1931 5.42947C12.151 5.48856 12.1111 5.54849 12.0721 5.6105C11.9151 5.8555 11.7841 6.11453 11.677 6.38651C11.651 6.4545 11.625 6.52347 11.6021 6.59354C11.578 6.66348 11.556 6.73355 11.5361 6.8035C11.4951 6.94449 11.4621 7.08646 11.4351 7.2305C11.382 7.51651 11.3551 7.80655 11.3551 8.10257C11.3528 17.5192 11.3519 26.9372 11.3499 36.3542C11.35 36.6476 11.371 36.9375 11.414 37.2235C11.436 37.3666 11.462 37.5086 11.4949 37.6505C11.511 37.7216 11.5289 37.7915 11.548 37.8616C11.567 37.9325 11.588 38.0026 11.61 38.0725C11.699 38.3506 11.809 38.6195 11.9429 38.8766C11.977 38.9416 12.0119 39.0055 12.048 39.0686C12.084 39.1316 12.1219 39.1936 12.162 39.2545C12.241 39.3756 12.324 39.4936 12.4129 39.6056C12.502 39.7185 12.597 39.8275 12.6969 39.9315C12.7469 39.9826 12.798 40.0336 12.852 40.0835C12.905 40.1326 12.959 40.1815 13.0139 40.2276C13.2359 40.4126 13.4729 40.5725 13.727 40.7066C13.7899 40.7395 13.8549 40.7716 13.92 40.8015C13.9859 40.8316 14.0529 40.8595 14.1199 40.8866C14.254 40.9386 14.3909 40.9836 14.5289 41.0216C14.8049 41.0966 15.087 41.1426 15.377 41.1576C23.2194 41.5847 31.1934 41.5847 39.0353 41.1577C39.3265 41.1418 39.6095 41.0959 39.8855 41.0218C40.0235 40.9838 40.1595 40.9388 40.2935 40.8867C40.3605 40.8598 40.4276 40.8318 40.4935 40.8018C40.5595 40.7708 40.6245 40.7388 40.6875 40.7049C40.9435 40.5708 41.1805 40.4108 41.3995 40.2259C41.5105 40.1338 41.6155 40.0348 41.7175 39.9308C41.7665 39.8788 41.8165 39.8249 41.8635 39.7698C41.9115 39.7159 41.9576 39.6598 42.0025 39.6038C42.1805 39.3778 42.3355 39.1367 42.4685 38.8819C42.5345 38.7538 42.5965 38.6228 42.6516 38.4878C42.6795 38.4208 42.7065 38.3528 42.7305 38.2838C42.7565 38.2159 42.7795 38.1468 42.8026 38.0768C42.8895 37.7998 42.9545 37.5168 42.9985 37.2298C43.0096 37.1577 43.0175 37.0847 43.0266 37.0128C43.0345 36.9398 43.0415 36.8669 43.0465 36.7939C43.0575 36.6479 43.0625 36.5008 43.0625 36.3548C43.0609 26.9375 43.0598 17.5196 43.059 8.10208C43.058 7.80716 43.032 7.51419 42.977 7.22415C42.95 7.07913 42.9149 6.93619 42.8749 6.79617C42.834 6.65616 42.7879 6.5181 42.735 6.38309C42.6809 6.2471 42.6219 6.11417 42.5549 5.98416C42.5219 5.9191 42.4879 5.85416 42.451 5.79019C42.4139 5.72708 42.3759 5.66409 42.3369 5.60208C42.1799 5.35709 41.9999 5.12918 41.799 4.9202C41.7489 4.86819 41.6979 4.81717 41.645 4.76712C41.5909 4.71719 41.5379 4.66812 41.481 4.62112C41.3699 4.52615 41.2539 4.43814 41.136 4.35611C40.8979 4.19315 40.6459 4.05411 40.3789 3.94009C40.313 3.91214 40.2449 3.88516 40.1759 3.85916C40.1079 3.83414 40.0389 3.81009 39.9699 3.78909C39.8309 3.74612 39.692 3.70914 39.5509 3.68008C39.269 3.6221 38.9829 3.59012 38.6898 3.58646Z" stroke="#FF00FF" stroke-width="0.283465" stroke-miterlimit="10" stroke-linecap="round" stroke-linejoin="round"/>
<path fill-rule="evenodd" clip-rule="evenodd" d="M31.5462 11.4726L37.3631 11.4726C37.4607 11.4726 37.5282 11.57 37.4894 11.6596C37.1049 12.5477 36.4501 13.1159 35.6566 13.4569C35.5596 13.4986 35.4573 13.417 35.4705 13.3122C35.4784 13.25 35.4861 13.1876 35.4938 13.125C35.5412 12.7357 35.2642 12.3817 34.8749 12.3342C34.4857 12.2868 34.1317 12.5638 34.0842 12.9531C33.9564 14.0012 33.8261 14.7177 33.4951 15.3087C33.181 15.8694 32.641 16.3894 31.5333 16.9065C31.178 17.0724 31.0244 17.4949 31.1903 17.8502C31.3562 18.2055 31.7787 18.3591 32.134 18.1932C33.422 17.5919 34.2328 16.8973 34.7339 16.0027C34.8799 15.742 34.9955 15.4709 35.0892 15.191C35.1049 15.1439 35.1437 15.1083 35.1919 15.0967C36.9015 14.6875 38.531 13.6058 39.0869 11.3434C39.2582 10.646 38.7042 10.0526 38.0624 10.0526H31.5462C31.1541 10.0526 30.8362 10.3705 30.8362 10.7626C30.8362 11.1547 31.1541 11.4726 31.5462 11.4726Z" fill="black"/>
<path fill-rule="evenodd" clip-rule="evenodd" d="M30.6922 26.6C30.3001 26.6 29.9822 26.9178 29.9822 27.3099C29.9822 27.7021 30.3 28.02 30.6921 28.02L38.286 28.0204C38.3812 28.0204 38.4486 28.1137 38.4153 28.203C37.8801 29.6401 36.7635 30.5463 35.5371 31.0343C35.4394 31.0732 35.3382 30.9909 35.3507 30.8865C35.4006 30.4715 35.4283 30.0501 35.4423 29.6255C35.4552 29.2336 35.148 28.9054 34.7561 28.8925C34.3642 28.8795 34.036 29.1867 34.0231 29.5787C33.9814 30.8395 33.8126 31.9103 33.364 32.815C32.9253 33.6997 32.1909 34.4812 30.9109 35.1153C30.5595 35.2894 30.4158 35.7154 30.5898 36.0667C30.7639 36.4181 31.1899 36.5618 31.5412 36.3878C33.0689 35.6309 34.0449 34.638 34.6361 33.4459C34.745 33.2264 34.8398 33.0022 34.9222 32.7739C34.9385 32.7288 34.976 32.6948 35.0226 32.6835C37.0877 32.1794 39.3394 30.7395 39.9906 27.877C40.1471 27.1891 39.6031 26.6005 38.9613 26.6005L30.6922 26.6Z" fill="black"/>
<path d="M22.1623 17.135C22.1498 17.4829 21.8458 17.7501 21.4976 17.7501L16.6437 17.7501C16.2778 17.7501 15.9863 17.4586 15.9863 17.099C15.9863 16.7951 16.1848 16.5533 16.4514 16.4665C17.2142 16.2122 17.6792 15.5239 17.6792 14.7549C17.6792 14.5288 17.6525 14.316 17.6065 14.1128C17.5921 14.049 17.534 14.0046 17.4686 14.0046H17.0033C16.6002 14.0046 16.3522 13.7937 16.3522 13.4403C16.3522 13.0806 16.6002 12.8822 16.9971 12.8822H17.0744C17.1684 12.8822 17.2363 12.7923 17.2105 12.7019C17.106 12.3348 17.0281 11.9672 17.0281 11.5675C17.0281 10.0048 18.2063 9.12427 20.0109 9.12427C20.5814 9.12427 21.0961 9.20488 21.4248 9.34751C21.6604 9.44053 21.8464 9.65757 21.8464 9.94282C21.8464 10.2839 21.5798 10.5629 21.2325 10.5629C20.9597 10.5629 20.5752 10.4017 20.1473 10.4017C19.2357 10.4017 18.6404 10.8854 18.6404 11.7102C18.6404 12.1044 18.7223 12.4475 18.8209 12.7812C18.8386 12.8412 18.8941 12.8822 18.9567 12.8822H20.4512C20.8542 12.8822 21.1023 13.0806 21.1023 13.4341C21.1023 13.7937 20.8542 14.0046 20.4512 14.0046H19.3333C19.2431 14.0046 19.1769 14.0874 19.195 14.1757C19.2234 14.3149 19.2419 14.4589 19.2419 14.6123C19.232 15.2465 19.0474 15.8366 18.6359 16.2194C18.5406 16.308 18.6001 16.4665 18.7302 16.4665L21.524 16.4665C21.8853 16.4665 22.1753 16.771 22.1623 17.135Z" fill="black"/>
<path d="M15.9954 33.9643C15.9954 33.5743 16.2754 33.2843 16.6554 33.2843C16.9254 33.2843 17.1354 33.4143 17.3654 33.7543C17.7254 34.3243 18.2754 34.6243 18.9754 34.6243C19.9054 34.6243 20.5054 34.1243 20.5054 33.3543C20.5054 32.5843 19.8954 32.0643 18.9754 32.0643H18.3654C17.9954 32.0643 17.7254 31.7843 17.7254 31.4043C17.7254 31.0243 17.9954 30.7543 18.3654 30.7543H18.9454C19.7054 30.7543 20.2654 30.2543 20.2654 29.5743C20.2654 28.8943 19.7154 28.4243 18.9354 28.4243C18.3254 28.4243 17.8454 28.7143 17.5154 29.2643C17.3254 29.5743 17.1154 29.7043 16.8254 29.7043C16.4254 29.7043 16.1454 29.4243 16.1454 29.0243C16.1454 28.0343 17.3454 27.1243 18.9554 27.1243C20.6654 27.1243 21.8654 28.0443 21.8654 29.3743C21.8654 30.1243 21.4054 30.8543 20.7754 31.1643C20.6654 31.2243 20.6654 31.3743 20.7854 31.4143C21.5754 31.7043 22.1254 32.5043 22.1254 33.4143C22.1254 34.8943 20.8154 35.9343 18.9454 35.9343C17.2754 35.9343 15.9854 34.9943 15.9854 33.9643H15.9954Z" fill="black"/>
</svg>
