<svg width="54" height="54" viewBox="0 0 54 54" fill="none" xmlns="http://www.w3.org/2000/svg">
<rect x="1.8501" y="1.8501" width="50.3" height="50.3" rx="3" stroke="#8B1EFF" stroke-width="0.28"/>
<path d="M10.2065 37.1479V7.2959C10.2125 6.94397 10.252 6.59094 10.325 6.24585C10.397 5.90088 10.503 5.56384 10.6411 5.23901C10.9141 4.59497 11.3131 4.00098 11.8071 3.50171C12.2961 3.00769 12.8791 2.60559 13.5145 2.32971C13.8315 2.19177 14.1605 2.08582 14.4979 2.01257C14.8349 1.93958 15.1779 1.90051 15.5214 1.89661C19.4174 1.8656 23.3134 1.85059 27.2079 1.85059C31.1049 1.85059 34.9999 1.8656 38.8963 1.89673C39.2393 1.90076 39.5833 1.9397 39.9208 2.01318C40.2568 2.08618 40.5868 2.19312 40.903 2.33008C41.221 2.46802 41.525 2.63708 41.8108 2.8335C42.0978 3.03052 42.3658 3.25452 42.6108 3.50159C42.8578 3.75061 43.0808 4.02161 43.2748 4.31238C43.4708 4.60437 43.6398 4.91431 43.7772 5.23816C43.9142 5.56311 44.0212 5.90112 44.0934 6.24597C44.1664 6.59094 44.2054 6.94397 44.2104 7.29602C44.2104 7.29602 44.2104 37.1479 44.2101 37.1484C44.1891 37.8424 44.0511 38.5385 43.8027 39.1934C43.5557 39.8484 43.1977 40.4624 42.7389 40.9862C42.5089 41.2483 42.2549 41.4873 41.9799 41.7C41.7069 41.912 41.4139 42.0969 41.1049 42.2539C40.7979 42.4099 40.4769 42.5369 40.1451 42.6315C39.8161 42.7264 39.4771 42.7896 39.1357 42.8154C31.1907 43.2485 23.2267 43.2485 15.2819 42.8154C14.6009 42.7625 13.9259 42.5664 13.3131 42.2549C12.6931 41.9398 12.1351 41.5068 11.6787 40.9869C11.2197 40.4619 10.8627 39.8479 10.6155 39.193C10.3675 38.538 10.2285 37.843 10.2065 37.1479Z" stroke="#8B1EFF" stroke-width="0.283" stroke-miterlimit="10"/>
<rect x="12.8887" y="5.47168" width="28.63" height="34.35" rx="1.46" stroke="#00FFFF" stroke-width="0.28"/>
<path d="M38.6898 3.58646C31.0758 3.48746 23.3388 3.48746 15.7238 3.58646C15.4321 3.59048 15.1431 3.62149 14.858 3.68155C14.787 3.69656 14.7151 3.71255 14.6451 3.73148C14.5751 3.74954 14.5051 3.76956 14.4361 3.79153C14.298 3.83548 14.162 3.88455 14.0311 3.94156C13.8981 3.99857 13.7681 4.06155 13.6421 4.1315C13.578 4.16653 13.515 4.20352 13.453 4.24149C13.3911 4.27957 13.33 4.31949 13.2701 4.36148C13.0321 4.52652 12.8121 4.71451 12.6111 4.92349C12.5101 5.0275 12.4151 5.13748 12.3251 5.25357C12.2791 5.31058 12.2361 5.36954 12.1931 5.42947C12.151 5.48856 12.1111 5.54849 12.0721 5.6105C11.9151 5.8555 11.7841 6.11453 11.677 6.38651C11.651 6.4545 11.625 6.52347 11.6021 6.59354C11.578 6.66348 11.556 6.73355 11.5361 6.8035C11.4951 6.94449 11.4621 7.08646 11.4351 7.2305C11.382 7.51651 11.3551 7.80655 11.3551 8.10257C11.3528 17.5192 11.3519 26.9372 11.3499 36.3542C11.35 36.6476 11.371 36.9375 11.414 37.2235C11.436 37.3666 11.462 37.5086 11.4949 37.6505C11.511 37.7216 11.5289 37.7915 11.548 37.8616C11.567 37.9325 11.588 38.0026 11.61 38.0725C11.699 38.3506 11.809 38.6195 11.9429 38.8766C11.977 38.9416 12.0119 39.0055 12.048 39.0686C12.084 39.1316 12.1219 39.1936 12.162 39.2545C12.241 39.3756 12.324 39.4936 12.4129 39.6056C12.502 39.7185 12.597 39.8275 12.6969 39.9315C12.7469 39.9826 12.798 40.0336 12.852 40.0835C12.905 40.1326 12.959 40.1815 13.0139 40.2276C13.2359 40.4126 13.4729 40.5725 13.727 40.7066C13.7899 40.7395 13.8549 40.7716 13.92 40.8015C13.9859 40.8316 14.0529 40.8595 14.1199 40.8866C14.254 40.9386 14.3909 40.9836 14.5289 41.0216C14.8049 41.0966 15.087 41.1426 15.377 41.1576C23.2194 41.5847 31.1934 41.5847 39.0353 41.1577C39.3265 41.1418 39.6095 41.0959 39.8855 41.0218C40.0235 40.9838 40.1595 40.9388 40.2935 40.8867C40.3605 40.8598 40.4276 40.8318 40.4935 40.8018C40.5595 40.7708 40.6245 40.7388 40.6875 40.7049C40.9435 40.5708 41.1805 40.4108 41.3995 40.2259C41.5105 40.1338 41.6155 40.0348 41.7175 39.9308C41.7665 39.8788 41.8165 39.8249 41.8635 39.7698C41.9115 39.7159 41.9576 39.6598 42.0025 39.6038C42.1805 39.3778 42.3355 39.1367 42.4685 38.8819C42.5345 38.7538 42.5965 38.6228 42.6516 38.4878C42.6795 38.4208 42.7065 38.3528 42.7305 38.2838C42.7565 38.2159 42.7795 38.1468 42.8026 38.0768C42.8895 37.7998 42.9545 37.5168 42.9985 37.2298C43.0096 37.1577 43.0175 37.0847 43.0266 37.0128C43.0345 36.9398 43.0415 36.8669 43.0465 36.7939C43.0575 36.6479 43.0625 36.5008 43.0625 36.3548C43.0609 26.9375 43.0598 17.5196 43.059 8.10208C43.058 7.80716 43.032 7.51419 42.977 7.22415C42.95 7.07913 42.9149 6.93619 42.8749 6.79617C42.834 6.65616 42.7879 6.5181 42.735 6.38309C42.6809 6.2471 42.6219 6.11417 42.5549 5.98416C42.5219 5.9191 42.4879 5.85416 42.451 5.79019C42.4139 5.72708 42.3759 5.66409 42.3369 5.60208C42.1799 5.35709 41.9999 5.12918 41.799 4.9202C41.7489 4.86819 41.6979 4.81717 41.645 4.76712C41.5909 4.71719 41.5379 4.66812 41.481 4.62112C41.3699 4.52615 41.2539 4.43814 41.136 4.35611C40.8979 4.19315 40.6459 4.05411 40.3789 3.94009C40.313 3.91214 40.2449 3.88516 40.1759 3.85916C40.1079 3.83414 40.0389 3.81009 39.9699 3.78909C39.8309 3.74612 39.692 3.70914 39.5509 3.68008C39.269 3.6221 38.9829 3.59012 38.6898 3.58646Z" stroke="#FF00FF" stroke-width="0.283465" stroke-miterlimit="10" stroke-linecap="round" stroke-linejoin="round"/>
<path d="M15.3352 15.5424C15.3352 14.6371 15.8003 13.9115 16.8111 13.3348C16.8581 13.3034 16.9821 13.2349 17.0951 13.1746C17.1784 13.1301 17.1973 13.0176 17.1332 12.9483C16.4742 12.2359 16.222 11.7354 16.222 11.1582C16.222 10.011 17.2204 9.17383 18.566 9.17383C19.9179 9.17383 20.8791 9.97998 20.8791 11.1396C20.8791 11.9564 20.3932 12.615 19.3137 13.2287C19.2341 13.2739 19.2156 13.3818 19.2776 13.4491L20.7098 15.0024C20.7747 15.0727 20.889 15.0583 20.9251 14.9697C21.0789 14.5925 21.1519 14.0706 21.1519 13.3844V13.248C21.1519 12.8449 21.431 12.5535 21.803 12.5535C22.1813 12.5535 22.4604 12.8449 22.4604 13.248V13.4526C22.4604 14.4901 22.2362 15.3707 21.8306 15.9985C21.7941 16.0549 21.7995 16.1293 21.8462 16.1777L22.4355 16.7889C22.5534 16.9191 22.6092 17.0679 22.6092 17.2354C22.6092 17.595 22.3177 17.8927 21.9519 17.8927C21.7658 17.8927 21.5736 17.8121 21.4372 17.6694L20.9286 17.1294C20.8768 17.0744 20.7909 17.0707 20.732 17.1181C20.0961 17.63 19.189 17.9361 18.2374 17.9361C16.4948 17.9361 15.3352 16.9687 15.3352 15.5424ZM18.313 12.5059C18.3562 12.5491 18.4231 12.5587 18.4766 12.5291C19.2221 12.1166 19.5148 11.7638 19.5148 11.2388C19.5148 10.6683 19.1241 10.2714 18.5536 10.2714C17.9893 10.2714 17.5862 10.6683 17.5862 11.2388C17.5862 11.6427 17.774 11.967 18.313 12.5059ZM17.7103 14.0914C17.0963 14.451 16.8297 14.8851 16.8297 15.4246C16.8297 16.2184 17.4684 16.7579 18.411 16.7579C18.9765 16.7579 19.542 16.5474 19.9184 16.204C19.9726 16.1547 19.9726 16.0712 19.9231 16.0173L18.0688 13.997C18.0286 13.9532 17.9657 13.9408 17.9134 13.969C17.8371 14.0102 17.7388 14.0669 17.7103 14.0914Z" fill="black"/>
<path d="M16 32.2697C16 29.3699 17.2299 27.75 19.4398 27.75C20.1798 27.75 20.8697 27.94 21.3797 28.28C21.8097 28.57 22.0697 28.96 22.0697 29.2799C22.0697 29.6499 21.7997 29.9099 21.4197 29.9099C21.1897 29.9099 21.0197 29.8399 20.7297 29.6099C20.2997 29.2399 19.9198 29.0799 19.4398 29.0799C18.4266 29.0799 17.746 29.832 17.6095 31.4955C17.5989 31.6241 17.7524 31.6986 17.847 31.6108C18.1756 31.306 18.8089 30.8598 19.6998 30.8598C21.2597 30.8598 22.3496 31.9797 22.3496 33.5996C22.3496 35.3695 21.1197 36.5494 19.2798 36.5494C18.1999 36.5494 17.3299 36.1294 16.77 35.3295C16.26 34.6196 16 33.5796 16 32.2697ZM17.7699 33.6496C17.7699 34.5695 18.3999 35.2295 19.2798 35.2295C20.1597 35.2295 20.7397 34.5995 20.7397 33.6596C20.7397 32.7197 20.1397 32.1097 19.2598 32.1097C18.3799 32.1097 17.7699 32.7497 17.7699 33.6496Z" fill="black"/>
<path fill-rule="evenodd" clip-rule="evenodd" d="M33.0562 26.3396C33.4481 26.3535 33.7545 26.6825 33.7406 27.0743C33.7237 27.549 33.7126 28.0026 33.7061 28.4361C33.7049 28.5196 33.7768 28.5855 33.8598 28.5767C34.4662 28.5127 35.0545 28.4308 35.6254 28.3307C36.0116 28.2629 36.3796 28.5211 36.4474 28.9074C36.5151 29.2936 36.2569 29.6616 35.8707 29.7293C35.2095 29.8453 34.5289 29.9377 33.8288 30.0074C33.7565 30.0146 33.7015 30.0756 33.7022 30.1482C33.7064 30.5605 33.7139 30.9501 33.7232 31.3182C33.7254 31.4063 33.8075 31.4702 33.8937 31.4524C34.4028 31.3469 34.9572 31.2682 35.558 31.2212C36.6439 31.1362 37.4957 31.2814 38.1441 31.6269C38.8078 31.9805 39.1946 32.5101 39.3966 33.0602C39.5926 33.594 39.6114 34.134 39.58 34.5493C39.5485 34.9646 39.463 35.3034 39.4075 35.4667C39.0816 36.4251 38.1935 36.9538 37.3212 37.07C36.4395 37.1875 35.4341 36.9093 34.7687 36.0967C34.5202 35.7933 34.5648 35.3459 34.8682 35.0975C35.1716 34.8491 35.6189 34.8937 35.8673 35.197C36.172 35.5691 36.6579 35.7258 37.1336 35.6624C37.6187 35.5978 37.9542 35.3298 38.0631 35.0095C38.0807 34.9578 38.1418 34.7364 38.164 34.442C38.1863 34.1476 38.166 33.8285 38.0636 33.5497C37.9672 33.2871 37.7962 33.0505 37.4765 32.8801C37.1415 32.7017 36.5841 32.5652 35.6687 32.6368C34.9949 32.6896 34.4021 32.7848 33.8845 32.9092C33.8204 32.9246 33.7765 32.9833 33.7788 33.0492C33.7845 33.2115 33.7899 33.3678 33.7947 33.5184C33.8186 34.2647 33.8295 34.9026 33.7854 35.4119C33.7432 35.8994 33.6422 36.4139 33.324 36.797C33.272 36.8596 33.2096 36.9129 33.1395 36.9543C32.8331 37.1358 32.4518 37.1697 32.1516 37.161C31.8229 37.1514 31.4602 37.0865 31.114 36.9666C30.4701 36.7435 29.627 36.2265 29.4917 35.251C29.361 34.3086 29.9489 33.3528 30.9312 32.6516C31.2949 32.3921 31.7265 32.1548 32.2279 31.9499C32.2826 31.9276 32.3181 31.8739 32.3163 31.8148C32.3022 31.3408 32.2899 30.8261 32.2835 30.2691C32.2826 30.1895 32.2157 30.1266 32.1362 30.1303C31.5564 30.1576 30.9642 30.171 30.3595 30.1711C29.9673 30.1711 29.6495 29.8532 29.6495 29.4611C29.6494 29.069 29.9673 28.7511 30.3594 28.7511C30.9721 28.751 31.5694 28.7367 32.1515 28.7079C32.2253 28.7042 32.2832 28.6437 32.2842 28.5699C32.2904 28.0805 32.3022 27.5654 32.3215 27.0239C32.3354 26.632 32.6644 26.3256 33.0562 26.3396ZM32.3754 33.5638C32.3736 33.5068 32.3134 33.4709 32.263 33.4975C32.0727 33.5977 31.9041 33.7018 31.7562 33.8074C30.9903 34.3541 30.8702 34.854 30.8983 35.0559C30.9217 35.2248 31.104 35.4603 31.5789 35.6248C31.792 35.6987 32.012 35.7363 32.1927 35.7416C32.1941 35.7416 32.1954 35.7417 32.1968 35.7417C32.2565 35.7433 32.3082 35.7025 32.3208 35.6441C32.3396 35.557 32.3575 35.4415 32.3707 35.2894C32.4065 34.8763 32.3996 34.3197 32.3754 33.5638V33.5638ZM39.2494 30.37C39.4771 30.6893 39.9205 30.7635 40.2397 30.5357C40.5589 30.308 40.6331 29.8646 40.4054 29.5454C39.6464 28.4813 38.7545 27.6911 38.0753 27.1978C37.758 26.9673 37.314 27.0377 37.0836 27.355C36.8532 27.6723 36.9236 28.1163 37.2408 28.3467C37.8247 28.7707 38.5978 29.4565 39.2494 30.37Z" fill="black"/>
<path fill-rule="evenodd" clip-rule="evenodd" d="M33.8041 8.91477C34.1933 8.96248 34.4701 9.31667 34.4224 9.70588C34.4193 9.73138 34.4162 9.75692 34.413 9.78251C34.4025 9.86877 34.4723 9.94367 34.559 9.939C35.6366 9.88107 36.714 9.79349 37.407 9.67649C37.7937 9.61121 38.16 9.87173 38.2253 10.2584C38.2906 10.645 38.0301 11.0114 37.6434 11.0767C36.8248 11.2149 35.5619 11.312 34.354 11.3714C34.2845 11.3749 34.2279 11.4287 34.2215 11.498C34.1938 11.7954 34.1702 12.0938 34.1528 12.391C34.1475 12.4799 34.2262 12.5503 34.3145 12.5387C34.6586 12.4933 35.0231 12.4748 35.4066 12.487C35.4613 12.4887 35.5113 12.4585 35.5423 12.4134C35.6887 12.2002 35.9467 12.075 36.2207 12.1111C36.5044 12.1484 36.7268 12.3485 36.8064 12.605C36.8221 12.6557 36.8592 12.6983 36.9097 12.7143C37.7122 12.9681 38.2871 13.4265 38.6569 13.9837C39.1265 14.6912 39.228 15.5031 39.114 16.1148C38.8583 17.4867 37.8151 18.2453 36.7626 18.558C36.3867 18.6697 35.9915 18.4555 35.8798 18.0796C35.7681 17.7037 35.9823 17.3085 36.3582 17.1968C37.0796 16.9825 37.5902 16.5406 37.718 15.8546C37.7694 15.5791 37.7247 15.147 37.4738 14.7689C37.3283 14.5498 37.0981 14.3256 36.7317 14.1623C36.6567 14.1289 36.5717 14.1731 36.5489 14.252C36.2965 15.1268 35.9106 15.9915 35.4035 16.6822C35.2987 16.8249 35.1865 16.9632 35.0669 17.0941C35.0337 17.1304 35.0221 17.1809 35.0299 17.2294C35.0722 17.4929 34.9635 17.7693 34.7283 17.9294C34.4852 18.0949 34.1761 18.0891 33.9436 17.9391C33.9417 17.9379 33.9393 17.9377 33.9372 17.9386V17.9386C33.3237 18.2124 32.6371 18.2517 31.9296 17.9805C31.178 17.6925 30.7023 17.1072 30.568 16.3971C30.4388 15.7142 30.6369 14.9933 31.05 14.3817C31.4118 13.8461 31.9451 13.3765 32.6283 13.0383C32.6757 13.0148 32.7068 12.9673 32.7083 12.9145C32.7214 12.47 32.7503 12.0242 32.7879 11.5857C32.7951 11.5023 32.7283 11.431 32.6446 11.4328C32.3156 11.4401 32.0178 11.4437 31.7676 11.4437C31.3755 11.4437 31.0576 11.1258 31.0576 10.7337C31.0576 10.3415 31.3755 10.0237 31.7676 10.0237C32.0671 10.0237 32.4323 10.0184 32.8349 10.0079C32.9042 10.0061 32.9617 9.95365 32.97 9.88479C32.9844 9.76585 32.9988 9.64855 33.013 9.53311C33.0607 9.1439 33.4149 8.86706 33.8041 8.91477ZM32.2267 15.1766C32.3143 15.047 32.4246 14.9166 32.5584 14.7914C32.6389 14.7159 32.766 14.7702 32.7788 14.8799C32.8461 15.4571 32.9629 16.0246 33.1513 16.5576C33.1785 16.6345 33.1368 16.7203 33.0561 16.7327C32.8664 16.7618 32.6633 16.741 32.4378 16.6546C32.1323 16.5375 32.0033 16.3451 31.9632 16.1332C31.918 15.8939 31.9758 15.5481 32.2267 15.1766ZM34.2491 13.9855C34.1821 13.9981 34.1355 14.0589 34.1393 14.127C34.1643 14.5739 34.2151 14.9948 34.2966 15.384C34.3214 15.5021 34.4714 15.5269 34.532 15.4227C34.7653 15.0214 34.9631 14.5608 35.1166 14.0817C35.1452 13.9927 35.0779 13.9028 34.9845 13.9059C34.7214 13.9148 34.4764 13.9425 34.2491 13.9855Z" fill="black"/>
</svg>
