<svg width="54" height="54" viewBox="0 0 54 54" fill="none" xmlns="http://www.w3.org/2000/svg">
<rect x="1.8501" y="1.84961" width="50.3" height="50.3" rx="3" stroke="#8B1EFF" stroke-width="0.28"/>
<path d="M10.2065 37.1479V7.2959C10.2125 6.94397 10.252 6.59094 10.325 6.24585C10.397 5.90088 10.503 5.56384 10.6411 5.23901C10.9141 4.59497 11.3131 4.00098 11.8071 3.50171C12.2961 3.00769 12.8791 2.60559 13.5145 2.32971C13.8315 2.19177 14.1605 2.08582 14.4979 2.01257C14.8349 1.93958 15.1779 1.90051 15.5214 1.89661C19.4174 1.8656 23.3134 1.85059 27.2079 1.85059C31.1049 1.85059 34.9999 1.8656 38.8963 1.89673C39.2393 1.90076 39.5833 1.9397 39.9208 2.01318C40.2568 2.08618 40.5868 2.19312 40.903 2.33008C41.221 2.46802 41.525 2.63708 41.8108 2.8335C42.0978 3.03052 42.3658 3.25452 42.6108 3.50159C42.8578 3.75061 43.0808 4.02161 43.2748 4.31238C43.4708 4.60437 43.6398 4.91431 43.7772 5.23816C43.9142 5.56311 44.0212 5.90112 44.0934 6.24597C44.1664 6.59094 44.2054 6.94397 44.2104 7.29602C44.2104 7.29602 44.2104 37.1479 44.2101 37.1484C44.1891 37.8424 44.0511 38.5385 43.8027 39.1934C43.5557 39.8484 43.1977 40.4624 42.7389 40.9862C42.5089 41.2483 42.2549 41.4873 41.9799 41.7C41.7069 41.912 41.4139 42.0969 41.1049 42.2539C40.7979 42.4099 40.4769 42.5369 40.1451 42.6315C39.8161 42.7264 39.4771 42.7896 39.1357 42.8154C31.1907 43.2485 23.2267 43.2485 15.2819 42.8154C14.6009 42.7625 13.9259 42.5664 13.3131 42.2549C12.6931 41.9398 12.1351 41.5068 11.6787 40.9869C11.2197 40.4619 10.8627 39.8479 10.6155 39.193C10.3675 38.538 10.2285 37.843 10.2065 37.1479Z" stroke="#8B1EFF" stroke-width="0.283" stroke-miterlimit="10"/>
<rect x="12.8887" y="5.47168" width="28.63" height="34.35" rx="1.46" stroke="#00FFFF" stroke-width="0.28"/>
<path d="M38.6898 3.58597C31.0758 3.48697 23.3388 3.48697 15.7238 3.58597C15.4321 3.59 15.1431 3.621 14.858 3.68106C14.787 3.69608 14.7151 3.71207 14.6451 3.73099C14.5751 3.74905 14.5051 3.76907 14.4361 3.79105C14.298 3.83499 14.162 3.88406 14.0311 3.94107C13.8981 3.99808 13.7681 4.06107 13.6421 4.13101C13.578 4.16605 13.515 4.20303 13.453 4.241C13.3911 4.27908 13.33 4.319 13.2701 4.36099C13.0321 4.52603 12.8121 4.71402 12.6111 4.923C12.5101 5.02701 12.4151 5.13699 12.3251 5.25308C12.2791 5.31009 12.2361 5.36905 12.1931 5.42899C12.151 5.48807 12.1111 5.548 12.0721 5.61002C11.9151 5.85501 11.7841 6.11404 11.677 6.38602C11.651 6.45401 11.625 6.52298 11.6021 6.59305C11.578 6.66299 11.556 6.73306 11.5361 6.80301C11.4951 6.944 11.4621 7.08597 11.4351 7.23001C11.382 7.51602 11.3551 7.80606 11.3551 8.10208C11.3528 17.5187 11.3519 26.9367 11.3499 36.3537C11.35 36.6471 11.371 36.937 11.414 37.2231C11.436 37.3661 11.462 37.5081 11.4949 37.6501C11.511 37.7211 11.5289 37.791 11.548 37.8611C11.567 37.932 11.588 38.0021 11.61 38.0721C11.699 38.3501 11.809 38.619 11.9429 38.8761C11.977 38.9411 12.0119 39.005 12.048 39.0681C12.084 39.1311 12.1219 39.1931 12.162 39.2541C12.241 39.3752 12.324 39.4931 12.4129 39.6051C12.502 39.718 12.597 39.8271 12.6969 39.9311C12.7469 39.9821 12.798 40.0331 12.852 40.083C12.905 40.1321 12.959 40.1811 13.0139 40.2271C13.2359 40.4121 13.4729 40.5721 13.727 40.7061C13.7899 40.739 13.8549 40.7711 13.92 40.8011C13.9859 40.8311 14.0529 40.859 14.1199 40.8861C14.254 40.9381 14.3909 40.9831 14.5289 41.0211C14.8049 41.0961 15.087 41.1421 15.377 41.1571C23.2194 41.5843 31.1934 41.5843 39.0353 41.1573C39.3265 41.1413 39.6095 41.0954 39.8855 41.0213C40.0235 40.9833 40.1595 40.9383 40.2935 40.8863C40.3605 40.8593 40.4276 40.8313 40.4935 40.8013C40.5595 40.7703 40.6245 40.7383 40.6875 40.7044C40.9435 40.5703 41.1805 40.4103 41.3995 40.2254C41.5105 40.1333 41.6155 40.0343 41.7175 39.9303C41.7665 39.8783 41.8165 39.8244 41.8635 39.7693C41.9115 39.7154 41.9576 39.6593 42.0025 39.6033C42.1805 39.3773 42.3355 39.1363 42.4685 38.8814C42.5345 38.7533 42.5965 38.6223 42.6516 38.4873C42.6795 38.4203 42.7065 38.3523 42.7305 38.2834C42.7565 38.2154 42.7795 38.1463 42.8026 38.0763C42.8895 37.7993 42.9545 37.5163 42.9985 37.2293C43.0096 37.1573 43.0175 37.0843 43.0266 37.0124C43.0345 36.9394 43.0415 36.8664 43.0465 36.7934C43.0575 36.6474 43.0625 36.5003 43.0625 36.3543C43.0609 26.937 43.0598 17.5191 43.059 8.10159C43.058 7.80667 43.032 7.5137 42.977 7.22366C42.95 7.07864 42.9149 6.9357 42.8749 6.79568C42.834 6.65567 42.7879 6.51761 42.735 6.3826C42.6809 6.24661 42.6219 6.11368 42.5549 5.98367C42.5219 5.91861 42.4879 5.85367 42.451 5.7897C42.4139 5.72659 42.3759 5.6636 42.3369 5.60159C42.1799 5.3566 41.9999 5.12869 41.799 4.91971C41.7489 4.86771 41.6979 4.81668 41.645 4.76663C41.5909 4.71671 41.5379 4.66763 41.481 4.62064C41.3699 4.52567 41.2539 4.43765 41.136 4.35562C40.8979 4.19266 40.6459 4.05362 40.3789 3.93961C40.313 3.91165 40.2449 3.88467 40.1759 3.85867C40.1079 3.83365 40.0389 3.8096 39.9699 3.7886C39.8309 3.74564 39.692 3.70865 39.5509 3.6796C39.269 3.62161 38.9829 3.58963 38.6898 3.58597Z" stroke="#FF00FF" stroke-width="0.283465" stroke-miterlimit="10" stroke-linecap="round" stroke-linejoin="round"/>
<path d="M39.1311 34.2411C39.0811 34.2411 39.0411 34.2011 39.0411 34.1511V32.3811C39.0411 31.8911 38.6211 31.6011 38.0711 31.6011C37.6211 31.6011 37.3211 31.8211 37.0811 32.1611C36.7111 32.7011 36.3211 33.3911 36.0111 34.0111C35.9111 34.2411 35.8711 34.3811 35.8711 34.5311C35.8711 34.8911 36.0911 35.1311 36.4811 35.1311H37.7911C37.8911 35.1311 37.9611 35.2111 37.9611 35.3011C37.9611 35.6211 38.2011 35.8311 38.4911 35.8311C38.7811 35.8311 39.0411 35.6111 39.0411 35.3011V35.2211C39.0411 35.1711 39.0811 35.1311 39.1311 35.1311C39.3711 35.1311 39.5611 34.9411 39.5611 34.6811C39.5611 34.4211 39.3711 34.2311 39.1311 34.2311V34.2411ZM37.9011 34.1011C37.9011 34.1811 37.8411 34.2411 37.7611 34.2411H37.1711C37.0711 34.2411 37.0011 34.1311 37.0411 34.0411C37.2211 33.6711 37.4311 33.2611 37.6411 32.8611C37.7111 32.7311 37.9111 32.7811 37.9111 32.9311V34.1011H37.9011ZM34.0011 30.1711C34.0011 29.7311 33.7711 29.4411 33.4911 29.3011C33.3911 29.2511 33.3911 29.1211 33.4811 29.0611C33.7011 28.9111 33.9011 28.6511 33.9011 28.2811C33.8911 27.6111 33.2111 27.1611 32.2911 27.1611C31.7211 27.1611 31.2911 27.4011 30.9611 27.6511C30.7711 27.7911 30.6611 27.9311 30.6611 28.1311C30.6611 28.4411 30.9011 28.6311 31.1811 28.6311C31.4111 28.6311 31.5711 28.5111 31.6711 28.3511C31.7911 28.1811 31.9511 28.0411 32.2311 28.0411C32.5111 28.0411 32.7111 28.2011 32.7111 28.4311C32.7111 28.6611 32.5411 28.8311 32.2311 28.8311H32.0711C31.8811 28.8311 31.6511 28.9811 31.6511 29.2511C31.6511 29.5211 31.8711 29.6811 32.0711 29.6811H32.2411C32.5911 29.6811 32.7711 29.8711 32.7711 30.0911C32.7711 30.3311 32.5711 30.5111 32.2311 30.5111C31.9411 30.5111 31.7511 30.3711 31.6111 30.1911C31.5011 30.0411 31.3411 29.9211 31.1111 29.9211C30.8311 29.9211 30.5911 30.1211 30.5911 30.4211C30.5911 30.5911 30.6911 30.7611 30.8611 30.8911C31.1311 31.2011 31.6011 31.4111 32.2411 31.4111C33.1111 31.4111 34.0011 31.0111 34.0011 30.1711ZM38.5611 27.6311C38.5611 27.4211 38.4211 27.2611 38.2111 27.2111C38.0111 27.1211 37.7811 27.1411 37.5911 27.4011L34.7111 31.1611L31.6711 35.0811C31.5511 35.2311 31.5111 35.3911 31.5111 35.5211C31.5211 35.7111 31.6711 35.8711 31.8511 35.9111C32.0411 36.0011 32.2811 35.9811 32.4811 35.7311L35.5311 31.7511L38.4011 28.0311C38.5111 27.8911 38.5611 27.7611 38.5511 27.6211L38.5611 27.6311Z" fill="black"/>
<path d="M18.9981 15.1263C18.6021 15.1263 18.2961 14.8203 18.3141 14.3703L18.3273 13.6691C18.3294 13.5591 18.2096 13.4898 18.1153 13.5464L17.5221 13.9023C17.3781 13.9923 17.2161 14.0283 17.0721 14.0283C16.7121 14.0283 16.4241 13.7403 16.4241 13.3623C16.4241 13.0743 16.5681 12.8583 16.8381 12.7143L17.4397 12.3874C17.5373 12.3343 17.5373 12.1943 17.4397 12.1413L16.8381 11.8143C16.5681 11.6703 16.4241 11.4543 16.4241 11.1663C16.4241 10.7883 16.7121 10.5003 17.0721 10.5003C17.2161 10.5003 17.3781 10.5363 17.5221 10.6263L18.1134 10.9943C18.2076 11.0529 18.3294 10.9838 18.3273 10.8728L18.3141 10.1583C18.2961 9.70834 18.6021 9.40234 18.9981 9.40234C19.3941 9.40234 19.7001 9.70834 19.6821 10.1583L19.6557 10.8702C19.6516 10.9817 19.7731 11.053 19.8684 10.995L20.4741 10.6263C20.6181 10.5363 20.7801 10.5003 20.9241 10.5003C21.2841 10.5003 21.5721 10.7883 21.5721 11.1663C21.5721 11.4543 21.4281 11.6703 21.1581 11.8143L20.5444 12.1407C20.4454 12.1934 20.4454 12.3353 20.5444 12.3879L21.1581 12.7143C21.4281 12.8583 21.5721 13.0743 21.5721 13.3623C21.5721 13.7403 21.2841 14.0283 20.9241 14.0283C20.7801 14.0283 20.6181 13.9923 20.4741 13.9023L19.8665 13.5457C19.7711 13.4897 19.6515 13.5612 19.6557 13.6717L19.6821 14.3703C19.7001 14.8203 19.3941 15.1263 18.9981 15.1263Z" fill="black"/>
<path d="M18.9841 35.924C17.0341 35.924 15.7241 34.934 15.7241 33.444C15.7241 32.524 16.2641 31.724 17.1141 31.404C17.2241 31.364 17.2341 31.204 17.1241 31.144C16.4441 30.794 16.0541 30.144 16.0541 29.364C16.0641 28.044 17.2741 27.124 19.0041 27.124C20.7341 27.124 21.9441 28.044 21.9441 29.364C21.9441 30.134 21.5441 30.794 20.8641 31.144C20.7541 31.204 20.7641 31.354 20.8741 31.404C21.7241 31.734 22.2741 32.534 22.2741 33.444C22.2741 34.924 20.9441 35.934 18.9841 35.934V35.924ZM19.0041 30.764C19.7841 30.764 20.3441 30.254 20.3441 29.544C20.3441 28.834 19.7841 28.344 19.0041 28.344C18.2241 28.344 17.6641 28.844 17.6641 29.544C17.6641 30.244 18.2241 30.764 19.0041 30.764ZM19.0041 34.724C19.9441 34.724 20.6141 34.134 20.6141 33.334C20.6141 32.534 19.9341 31.934 19.0041 31.934C18.0741 31.934 17.3941 32.524 17.3941 33.334C17.3941 34.144 18.0641 34.724 19.0041 34.724Z" fill="black"/>
</svg>
