<svg width="54" height="54" viewBox="0 0 54 54" fill="none" xmlns="http://www.w3.org/2000/svg">
<rect x="1.8501" y="1.8501" width="50.3" height="50.3" rx="3" stroke="#8B1EFF" stroke-width="0.28"/>
<path d="M10.2065 37.1479V7.2959C10.2125 6.94397 10.252 6.59094 10.325 6.24585C10.397 5.90088 10.503 5.56384 10.6411 5.23901C10.9141 4.59497 11.3131 4.00098 11.8071 3.50171C12.2961 3.00769 12.8791 2.60559 13.5145 2.32971C13.8315 2.19177 14.1605 2.08582 14.4979 2.01257C14.8349 1.93958 15.1779 1.90051 15.5214 1.89661C19.4174 1.8656 23.3134 1.85059 27.2079 1.85059C31.1049 1.85059 34.9999 1.8656 38.8963 1.89673C39.2393 1.90076 39.5833 1.9397 39.9208 2.01318C40.2568 2.08618 40.5868 2.19312 40.903 2.33008C41.221 2.46802 41.525 2.63708 41.8108 2.8335C42.0978 3.03052 42.3658 3.25452 42.6108 3.50159C42.8578 3.75061 43.0808 4.02161 43.2748 4.31238C43.4708 4.60437 43.6398 4.91431 43.7772 5.23816C43.9142 5.56311 44.0212 5.90112 44.0934 6.24597C44.1664 6.59094 44.2054 6.94397 44.2104 7.29602C44.2104 7.29602 44.2104 37.1479 44.2101 37.1484C44.1891 37.8424 44.0511 38.5385 43.8027 39.1934C43.5557 39.8484 43.1977 40.4624 42.7389 40.9862C42.5089 41.2483 42.2549 41.4873 41.9799 41.7C41.7069 41.912 41.4139 42.0969 41.1049 42.2539C40.7979 42.4099 40.4769 42.5369 40.1451 42.6315C39.8161 42.7264 39.4771 42.7896 39.1357 42.8154C31.1907 43.2485 23.2267 43.2485 15.2819 42.8154C14.6009 42.7625 13.9259 42.5664 13.3131 42.2549C12.6931 41.9398 12.1351 41.5068 11.6787 40.9869C11.2197 40.4619 10.8627 39.8479 10.6155 39.193C10.3675 38.538 10.2285 37.843 10.2065 37.1479Z" stroke="#8B1EFF" stroke-width="0.283" stroke-miterlimit="10"/>
<rect x="12.8887" y="5.47168" width="28.63" height="34.35" rx="1.46" stroke="#00FFFF" stroke-width="0.28"/>
<path d="M38.6898 3.58646C31.0758 3.48746 23.3388 3.48746 15.7238 3.58646C15.4321 3.59048 15.1431 3.62149 14.858 3.68155C14.787 3.69656 14.7151 3.71255 14.6451 3.73148C14.5751 3.74954 14.5051 3.76956 14.4361 3.79153C14.298 3.83548 14.162 3.88455 14.0311 3.94156C13.8981 3.99857 13.7681 4.06155 13.6421 4.1315C13.578 4.16653 13.515 4.20352 13.453 4.24149C13.3911 4.27957 13.33 4.31949 13.2701 4.36148C13.0321 4.52652 12.8121 4.71451 12.6111 4.92349C12.5101 5.0275 12.4151 5.13748 12.3251 5.25357C12.2791 5.31058 12.2361 5.36954 12.1931 5.42947C12.151 5.48856 12.1111 5.54849 12.0721 5.6105C11.9151 5.8555 11.7841 6.11453 11.677 6.38651C11.651 6.4545 11.625 6.52347 11.6021 6.59354C11.578 6.66348 11.556 6.73355 11.5361 6.8035C11.4951 6.94449 11.4621 7.08646 11.4351 7.2305C11.382 7.51651 11.3551 7.80655 11.3551 8.10257C11.3528 17.5192 11.3519 26.9372 11.3499 36.3542C11.35 36.6476 11.371 36.9375 11.414 37.2235C11.436 37.3666 11.462 37.5086 11.4949 37.6505C11.511 37.7216 11.5289 37.7915 11.548 37.8616C11.567 37.9325 11.588 38.0026 11.61 38.0725C11.699 38.3506 11.809 38.6195 11.9429 38.8766C11.977 38.9416 12.0119 39.0055 12.048 39.0686C12.084 39.1316 12.1219 39.1936 12.162 39.2545C12.241 39.3756 12.324 39.4936 12.4129 39.6056C12.502 39.7185 12.597 39.8275 12.6969 39.9315C12.7469 39.9826 12.798 40.0336 12.852 40.0835C12.905 40.1326 12.959 40.1815 13.0139 40.2276C13.2359 40.4126 13.4729 40.5725 13.727 40.7066C13.7899 40.7395 13.8549 40.7716 13.92 40.8015C13.9859 40.8316 14.0529 40.8595 14.1199 40.8866C14.254 40.9386 14.3909 40.9836 14.5289 41.0216C14.8049 41.0966 15.087 41.1426 15.377 41.1576C23.2194 41.5847 31.1934 41.5847 39.0353 41.1577C39.3265 41.1418 39.6095 41.0959 39.8855 41.0218C40.0235 40.9838 40.1595 40.9388 40.2935 40.8867C40.3605 40.8598 40.4276 40.8318 40.4935 40.8018C40.5595 40.7708 40.6245 40.7388 40.6875 40.7049C40.9435 40.5708 41.1805 40.4108 41.3995 40.2259C41.5105 40.1338 41.6155 40.0348 41.7175 39.9308C41.7665 39.8788 41.8165 39.8249 41.8635 39.7698C41.9115 39.7159 41.9576 39.6598 42.0025 39.6038C42.1805 39.3778 42.3355 39.1367 42.4685 38.8819C42.5345 38.7538 42.5965 38.6228 42.6516 38.4878C42.6795 38.4208 42.7065 38.3528 42.7305 38.2838C42.7565 38.2159 42.7795 38.1468 42.8026 38.0768C42.8895 37.7998 42.9545 37.5168 42.9985 37.2298C43.0096 37.1577 43.0175 37.0847 43.0266 37.0128C43.0345 36.9398 43.0415 36.8669 43.0465 36.7939C43.0575 36.6479 43.0625 36.5008 43.0625 36.3548C43.0609 26.9375 43.0598 17.5196 43.059 8.10208C43.058 7.80716 43.032 7.51419 42.977 7.22415C42.95 7.07913 42.9149 6.93619 42.8749 6.79617C42.834 6.65616 42.7879 6.5181 42.735 6.38309C42.6809 6.2471 42.6219 6.11417 42.5549 5.98416C42.5219 5.9191 42.4879 5.85416 42.451 5.79019C42.4139 5.72708 42.3759 5.66409 42.3369 5.60208C42.1799 5.35709 41.9999 5.12918 41.799 4.9202C41.7489 4.86819 41.6979 4.81717 41.645 4.76712C41.5909 4.71719 41.5379 4.66812 41.481 4.62112C41.3699 4.52615 41.2539 4.43814 41.136 4.35611C40.8979 4.19315 40.6459 4.05411 40.3789 3.94009C40.313 3.91214 40.2449 3.88516 40.1759 3.85916C40.1079 3.83414 40.0389 3.81009 39.9699 3.78909C39.8309 3.74612 39.692 3.70914 39.5509 3.68008C39.269 3.6221 38.9829 3.59012 38.6898 3.58646Z" stroke="#FF00FF" stroke-width="0.283465" stroke-miterlimit="10" stroke-linecap="round" stroke-linejoin="round"/>
<path fill-rule="evenodd" clip-rule="evenodd" d="M37.5674 12.1294C37.5741 11.577 37.1261 11.1366 36.5846 11.1372L32.2921 11.1421C31.9 11.1426 31.5824 11.4608 31.5829 11.8529C31.5833 12.245 31.9016 12.5626 32.2937 12.5621L35.9928 12.5579C36.0719 12.5578 36.1355 12.6234 36.1324 12.7024C36.0867 13.8896 35.9541 14.9524 35.8244 15.7527C35.7715 16.0794 35.7191 16.3615 35.6737 16.5893C35.6607 16.6544 35.6034 16.7011 35.5369 16.7011H31.3711C30.979 16.7011 30.6611 17.019 30.6611 17.4111C30.6611 17.8032 30.979 18.1211 31.3711 18.1211H38.6317C39.0238 18.1211 39.3417 17.8032 39.3417 17.4111C39.3417 17.019 39.0238 16.7011 38.6317 16.7011H37.2681C37.1802 16.7011 37.1141 16.6211 37.1301 16.5346C37.1611 16.3667 37.1935 16.1811 37.2261 15.9799C37.3849 15.0001 37.5488 13.6415 37.5674 12.1294Z" fill="black"/>
<path fill-rule="evenodd" clip-rule="evenodd" d="M37.6138 34.3812C37.5254 34.3812 37.4592 34.3004 37.476 34.2137C37.5306 33.9326 37.5908 33.6013 37.6513 33.2274C37.8535 31.9801 38.062 30.2512 38.0856 28.3281C38.0929 27.7334 37.6105 27.2586 37.0266 27.2593L31.5321 27.2655C31.14 27.266 30.8225 27.5842 30.823 27.9764C30.8234 28.3685 31.1416 28.686 31.5338 28.6855L36.5151 28.6799C36.5938 28.6798 36.6572 28.7447 36.6548 28.8234C36.6057 30.453 36.4256 31.9145 36.2496 33.0002C36.1657 33.5182 36.083 33.9492 36.0164 34.2703C36.003 34.3351 35.9458 34.3812 35.8797 34.3812H30.3531C29.9609 34.3812 29.6431 34.6991 29.6431 35.0912C29.6431 35.4834 29.9609 35.8012 30.3531 35.8012H39.6468C40.0389 35.8012 40.3568 35.4834 40.3568 35.0912C40.3568 34.6991 40.0389 34.3812 39.6468 34.3812H37.6138Z" fill="black"/>
<path d="M18.9981 15.1261C18.6021 15.1261 18.2961 14.8201 18.3141 14.3701L18.3273 13.6689C18.3294 13.5589 18.2096 13.4896 18.1153 13.5462L17.5221 13.9021C17.3781 13.9921 17.2161 14.0281 17.0721 14.0281C16.7121 14.0281 16.4241 13.7401 16.4241 13.3621C16.4241 13.0741 16.5681 12.8581 16.8381 12.7141L17.4397 12.3871C17.5373 12.3341 17.5373 12.1941 17.4397 12.1411L16.8381 11.8141C16.5681 11.6701 16.4241 11.4541 16.4241 11.1661C16.4241 10.7881 16.7121 10.5001 17.0721 10.5001C17.2161 10.5001 17.3781 10.5361 17.5221 10.6261L18.1134 10.994C18.2076 11.0527 18.3294 10.9835 18.3273 10.8726L18.3141 10.1581C18.2961 9.7081 18.6021 9.4021 18.9981 9.4021C19.3941 9.4021 19.7001 9.7081 19.6821 10.1581L19.6557 10.87C19.6516 10.9815 19.7731 11.0528 19.8684 10.9948L20.4741 10.6261C20.6181 10.5361 20.7801 10.5001 20.9241 10.5001C21.2841 10.5001 21.5721 10.7881 21.5721 11.1661C21.5721 11.4541 21.4281 11.6701 21.1581 11.8141L20.5444 12.1405C20.4454 12.1932 20.4454 12.335 20.5444 12.3877L21.1581 12.7141C21.4281 12.8581 21.5721 13.0741 21.5721 13.3621C21.5721 13.7401 21.2841 14.0281 20.9241 14.0281C20.7801 14.0281 20.6181 13.9921 20.4741 13.9021L19.8665 13.5455C19.7711 13.4895 19.6515 13.561 19.6557 13.6715L19.6821 14.3701C19.7001 14.8201 19.3941 15.1261 18.9981 15.1261Z" fill="black"/>
<path d="M18.9841 35.9243C17.0341 35.9243 15.7241 34.9343 15.7241 33.4443C15.7241 32.5243 16.2641 31.7243 17.1141 31.4043C17.2241 31.3643 17.2341 31.2043 17.1241 31.1443C16.4441 30.7943 16.0541 30.1443 16.0541 29.3643C16.0641 28.0443 17.2741 27.1243 19.0041 27.1243C20.7341 27.1243 21.9441 28.0443 21.9441 29.3643C21.9441 30.1343 21.5441 30.7943 20.8641 31.1443C20.7541 31.2043 20.7641 31.3543 20.8741 31.4043C21.7241 31.7343 22.2741 32.5343 22.2741 33.4443C22.2741 34.9243 20.9441 35.9343 18.9841 35.9343V35.9243ZM19.0041 30.7643C19.7841 30.7643 20.3441 30.2543 20.3441 29.5443C20.3441 28.8343 19.7841 28.3443 19.0041 28.3443C18.2241 28.3443 17.6641 28.8443 17.6641 29.5443C17.6641 30.2443 18.2241 30.7643 19.0041 30.7643ZM19.0041 34.7243C19.9441 34.7243 20.6141 34.1343 20.6141 33.3343C20.6141 32.5343 19.9341 31.9343 19.0041 31.9343C18.0741 31.9343 17.3941 32.5243 17.3941 33.3343C17.3941 34.1443 18.0641 34.7243 19.0041 34.7243Z" fill="black"/>
</svg>
