<svg width="108" height="54" viewBox="0 0 108 54" fill="none" xmlns="http://www.w3.org/2000/svg">
<rect x="1.85" y="1.8501" width="104.3" height="50.3" rx="3" stroke="#8B1EFF" stroke-width="0.28"/>
<path d="M96.347 40.9104C95.8721 41.4245 95.2961 41.8484 94.6602 42.1464C94.0284 42.4428 93.3364 42.6148 92.6455 42.6557C79.7662 43.0699 66.8812 43.2758 53.9952 43.2758C41.1096 43.2768 28.2246 43.0697 15.3456 42.6557C14.6539 42.6161 13.9629 42.4331 13.3329 42.1381C13.0157 41.9894 12.7126 41.8124 12.4297 41.6064C12.1456 41.4007 11.8806 41.1667 11.6426 40.9086C11.4028 40.6508 11.1909 40.3688 11.0049 40.0697C10.8201 39.7709 10.6631 39.4549 10.5342 39.1269C10.2783 38.4742 10.1313 37.7732 10.1104 37.0751V7.25381C10.1154 6.9025 10.1555 6.55057 10.2305 6.20547C10.3046 5.86111 10.4146 5.52408 10.5566 5.20206C10.6982 4.87967 10.8723 4.57169 11.0743 4.2836C11.2758 3.99588 11.5048 3.72781 11.7568 3.4838C12.0091 3.24014 12.2831 3.02005 12.5751 2.82803C12.8671 2.63638 13.1771 2.47134 13.4991 2.33731C13.8201 2.20377 14.1531 2.09976 14.4941 2.02872C14.8353 1.95853 15.1813 1.91946 15.5284 1.91641C41.1729 1.79544 66.8169 1.79544 92.4619 1.91641C92.8091 1.91983 93.156 1.95779 93.4961 2.02872C93.8372 2.0994 94.1711 2.2034 94.4922 2.33731C94.813 2.47208 95.124 2.63614 95.415 2.82803C95.7084 3.0209 95.9823 3.2399 96.2344 3.48282C96.4869 3.72672 96.7159 3.99466 96.918 4.28262C97.1195 4.57169 97.2925 4.87967 97.4346 5.20157C97.5757 5.52457 97.6857 5.8605 97.7607 6.20547C97.8348 6.54984 97.8749 6.90189 97.8799 7.25381V37.0751C97.8579 37.7743 97.7189 38.4754 97.4606 39.1292C97.2015 39.7851 96.8256 40.3931 96.347 40.9104Z" stroke="#8B1EFF" stroke-width="0.283" stroke-miterlimit="10"/>
<path d="M94.3457 40.2983H13.6487C12.4744 40.2985 11.5225 39.3464 11.5225 38.1724V6.59546C11.5224 5.42126 12.4744 4.46924 13.6484 4.46924H94.3453C95.5197 4.46924 96.4717 5.42126 96.4717 6.59521V38.1724C96.4717 39.3464 95.5197 40.2983 94.3457 40.2983Z" stroke="#00FFFF" stroke-width="0.28" stroke-miterlimit="10"/>
<path d="M96.9307 33.4842V36.338C96.9308 36.636 96.9078 36.9311 96.8608 37.224C96.8489 37.297 96.8358 37.37 96.8198 37.443C96.8058 37.516 96.7888 37.589 96.7719 37.6601C96.7338 37.804 96.6918 37.9461 96.6448 38.085C96.5958 38.224 96.5408 38.361 96.4799 38.495C96.4188 38.63 96.3508 38.761 96.2759 38.89C96.1268 39.1481 95.9548 39.387 95.7598 39.6071C95.6619 39.7161 95.5588 39.8211 95.4479 39.922C95.3938 39.9711 95.3368 40.0201 95.2798 40.067C95.2228 40.114 95.1638 40.1591 95.1058 40.203C94.8678 40.3771 94.6138 40.5241 94.3458 40.6451C94.2778 40.6751 94.2098 40.703 94.1409 40.73C94.0708 40.757 94.0018 40.782 93.9318 40.8051C93.7908 40.8511 93.6498 40.89 93.5059 40.922C93.2198 40.985 92.9279 41.0201 92.6299 41.028C66.9102 41.7021 41.0852 41.7021 15.3643 41.028C15.2155 41.0241 15.0674 41.0131 14.9194 40.9951C14.8455 40.9861 14.7725 40.9751 14.6984 40.963C14.6254 40.9501 14.5524 40.9361 14.4805 40.9201C14.1924 40.8561 13.9135 40.7631 13.6434 40.6421C13.5764 40.6111 13.5084 40.5791 13.4434 40.5451C13.3765 40.5111 13.3115 40.4751 13.2485 40.4381C13.1204 40.3631 12.9974 40.2821 12.8784 40.1951C12.6425 40.0211 12.4255 39.8221 12.2285 39.5992C12.1785 39.5431 12.1304 39.4861 12.0845 39.4281C12.0394 39.3701 11.9944 39.3122 11.9514 39.2521C11.8665 39.1321 11.7875 39.0091 11.7134 38.8821C11.5674 38.6291 11.4465 38.3601 11.3484 38.0791C11.3245 38.0091 11.3005 37.9381 11.2805 37.8671C11.2584 37.7961 11.2394 37.7251 11.2214 37.6531C11.1854 37.5102 11.1564 37.3661 11.1324 37.2201C11.0854 36.9301 11.0635 36.6361 11.0635 36.338V33.4845C11.0654 25.055 11.0663 16.625 11.0674 8.19595C11.0673 8.04459 11.0753 7.89261 11.0903 7.74161C11.0974 7.66666 11.1074 7.59061 11.1193 7.51663C11.1304 7.44058 11.1434 7.36661 11.1594 7.29263C11.2194 6.99564 11.3093 6.70963 11.4274 6.43362C11.4874 6.29568 11.5533 6.16068 11.6284 6.02762C11.7023 5.89566 11.7823 5.76761 11.8683 5.64468C12.0413 5.39969 12.2363 5.17361 12.4564 4.96658C12.5103 4.91568 12.5663 4.86465 12.6254 4.81558C12.6824 4.76663 12.7413 4.71866 12.8004 4.67264C12.9203 4.5817 13.0433 4.49661 13.1703 4.41763C13.4224 4.25967 13.6913 4.12662 13.9724 4.01859C14.0433 3.99161 14.1143 3.96561 14.1863 3.94168C14.2573 3.91861 14.3303 3.89664 14.4023 3.87662C14.5474 3.8367 14.6923 3.80264 14.8383 3.77469C15.1323 3.72061 15.4313 3.69266 15.7344 3.69058C41.2087 3.52762 66.7847 3.52762 92.2607 3.69058C92.5637 3.69302 92.8617 3.72098 93.1556 3.77505C93.3018 3.80203 93.4478 3.83597 93.5917 3.87601C93.6637 3.897 93.7367 3.91898 93.8087 3.94205C93.8796 3.96597 93.9507 3.991 94.0217 4.01797C94.3037 4.12698 94.5717 4.25906 94.8237 4.41702C94.9507 4.496 95.0737 4.58096 95.1937 4.673C95.2527 4.71902 95.3127 4.76602 95.3698 4.81607C95.4277 4.86502 95.4847 4.91507 95.5387 4.96707C95.7577 5.17398 95.9537 5.40005 96.1257 5.64505C96.2117 5.767 96.2927 5.89505 96.3657 6.02798C96.4407 6.16006 96.5077 6.29703 96.5677 6.43607C96.5977 6.50504 96.6248 6.57498 96.6517 6.647C96.6777 6.71805 96.7017 6.79007 96.7247 6.86197C96.7697 7.00699 96.8077 7.15201 96.8367 7.29898C96.8967 7.59305 96.9268 7.892 96.9266 8.19608C96.9276 16.6252 96.9296 25.0551 96.9307 33.4842Z" stroke="#FF00FF" stroke-width="0.283465" stroke-miterlimit="10" stroke-linecap="round" stroke-linejoin="round"/>
<path d="M90.2987 50.0103V49.5628L91.9791 47.7233C92.1763 47.5079 92.3387 47.3206 92.4663 47.1615C92.5939 47.0008 92.6884 46.85 92.7497 46.7091C92.8127 46.5666 92.8442 46.4175 92.8442 46.2617C92.8442 46.0827 92.8011 45.9277 92.7149 45.7968C92.6304 45.6659 92.5144 45.5648 92.3669 45.4936C92.2194 45.4223 92.0537 45.3867 91.8697 45.3867C91.6742 45.3867 91.5035 45.4273 91.3577 45.5085C91.2135 45.588 91.1016 45.6999 91.0221 45.8441C90.9442 45.9882 90.9053 46.1573 90.9053 46.3512H90.3186C90.3186 46.0529 90.3874 45.791 90.5249 45.5657C90.6625 45.3403 90.8497 45.1646 91.0867 45.0387C91.3254 44.9127 91.593 44.8497 91.8896 44.8497C92.1879 44.8497 92.4522 44.9127 92.6826 45.0387C92.9129 45.1646 93.0936 45.3345 93.2245 45.5483C93.3554 45.762 93.4209 45.9998 93.4209 46.2617C93.4209 46.4489 93.3869 46.6321 93.319 46.811C93.2527 46.9884 93.1367 47.1864 92.9709 47.4051C92.8069 47.6222 92.579 47.8874 92.2874 48.2006L91.1439 49.4236V49.4634H93.5104V50.0103H90.2987ZM94.9745 50.05C94.8519 50.05 94.7466 50.0061 94.6588 49.9183C94.571 49.8304 94.5271 49.7252 94.5271 49.6026C94.5271 49.48 94.571 49.3747 94.6588 49.2869C94.7466 49.1991 94.8519 49.1551 94.9745 49.1551C95.0971 49.1551 95.2024 49.1991 95.2902 49.2869C95.378 49.3747 95.4219 49.48 95.4219 49.6026C95.4219 49.6838 95.4012 49.7584 95.3598 49.8263C95.32 49.8943 95.2662 49.9489 95.1982 49.9904C95.1319 50.0301 95.0574 50.05 94.9745 50.05ZM97.9475 50.0799C97.573 50.0799 97.254 49.9779 96.9905 49.7741C96.727 49.5686 96.5256 49.2711 96.3864 48.8817C96.2472 48.4906 96.1776 48.0183 96.1776 47.4648C96.1776 46.9146 96.2472 46.4448 96.3864 46.0554C96.5273 45.6643 96.7295 45.366 96.993 45.1605C97.2581 44.9533 97.5763 44.8497 97.9475 44.8497C98.3187 44.8497 98.6361 44.9533 98.8996 45.1605C99.1647 45.366 99.3669 45.6643 99.5061 46.0554C99.647 46.4448 99.7174 46.9146 99.7174 47.4648C99.7174 48.0183 99.6478 48.4906 99.5086 48.8817C99.3694 49.2711 99.168 49.5686 98.9045 49.7741C98.641 49.9779 98.322 50.0799 97.9475 50.0799ZM97.9475 49.533C98.3187 49.533 98.6071 49.354 98.8126 48.996C99.0181 48.6381 99.1208 48.1277 99.1208 47.4648C99.1208 47.024 99.0736 46.6486 98.9791 46.3387C98.8863 46.0288 98.7521 45.7927 98.5764 45.6303C98.4024 45.4679 98.1928 45.3867 97.9475 45.3867C97.5796 45.3867 97.2921 45.5681 97.0849 45.9311C96.8778 46.2923 96.7742 46.8036 96.7742 47.4648C96.7742 47.9056 96.8206 48.2801 96.9134 48.5884C97.0062 48.8966 97.1396 49.1311 97.3136 49.2919C97.4893 49.4526 97.7006 49.533 97.9475 49.533ZM102.323 50.0799C101.948 50.0799 101.629 49.9779 101.365 49.7741C101.102 49.5686 100.901 49.2711 100.761 48.8817C100.622 48.4906 100.553 48.0183 100.553 47.4648C100.553 46.9146 100.622 46.4448 100.761 46.0554C100.902 45.6643 101.104 45.366 101.368 45.1605C101.633 44.9533 101.951 44.8497 102.323 44.8497C102.694 44.8497 103.011 44.9533 103.275 45.1605C103.54 45.366 103.742 45.6643 103.881 46.0554C104.022 46.4448 104.092 46.9146 104.092 47.4648C104.092 48.0183 104.023 48.4906 103.884 48.8817C103.744 49.2711 103.543 49.5686 103.28 49.7741C103.016 49.9779 102.697 50.0799 102.323 50.0799ZM102.323 49.533C102.694 49.533 102.982 49.354 103.188 48.996C103.393 48.6381 103.496 48.1277 103.496 47.4648C103.496 47.024 103.449 46.6486 103.354 46.3387C103.261 46.0288 103.127 45.7927 102.951 45.6303C102.777 45.4679 102.568 45.3867 102.323 45.3867C101.955 45.3867 101.667 45.5681 101.46 45.9311C101.253 46.2923 101.149 46.8036 101.149 47.4648C101.149 47.9056 101.196 48.2801 101.288 48.5884C101.381 48.8966 101.515 49.1311 101.689 49.2919C101.864 49.4526 102.076 49.533 102.323 49.533Z" fill="#0000FF"/>
<path fill-rule="evenodd" clip-rule="evenodd" d="M22.195 16.9962C22.0188 16.9962 21.8508 17.0645 21.7271 17.1882L17.6171 21.2982C17.3543 21.5609 17.3543 21.9714 17.6171 22.2341L17.6183 22.2353L21.7271 26.3641C21.8507 26.4875 22.0191 26.5562 22.195 26.5562H31.275C31.6194 26.5562 31.895 26.2775 31.895 25.9362V17.6162C31.895 17.2718 31.6164 16.9962 31.275 16.9962H22.195ZM20.723 16.1841C21.1193 15.7878 21.6512 15.5762 22.195 15.5762H31.275C32.3937 15.5762 33.315 16.4806 33.315 17.6162V25.9362C33.315 27.0548 32.4106 27.9762 31.275 27.9762H22.195C21.6512 27.9762 21.1193 27.7645 20.723 27.3682L20.7218 27.367L16.613 23.2382L16.6122 23.2375C15.7957 22.4201 15.796 21.1111 16.613 20.2941L20.723 16.1841ZM29.2871 18.9941C29.5644 19.2714 29.5644 19.721 29.2871 19.9982L27.6213 21.664C27.5666 21.7188 27.5666 21.8075 27.6214 21.8621L29.2865 23.5236C29.5641 23.8006 29.5646 24.2501 29.2876 24.5277C29.0107 24.8053 28.5611 24.8058 28.2836 24.5288L26.6171 22.866C26.5624 22.8114 26.4739 22.8115 26.4192 22.8661L24.7571 24.5282C24.4798 24.8055 24.0303 24.8055 23.753 24.5282C23.4757 24.251 23.4757 23.8014 23.753 23.5241L25.4138 21.8634C25.4685 21.8086 25.4685 21.7199 25.4137 21.6653L23.7436 19.9988C23.466 19.7218 23.4655 19.2723 23.7425 18.9947C24.0194 18.7171 24.469 18.7166 24.7465 18.9936L26.418 20.6614C26.4727 20.716 26.5613 20.7159 26.6159 20.6613L28.283 18.9941C28.5603 18.7169 29.0098 18.7169 29.2871 18.9941Z" fill="black"/>
<path d="M40.2864 24.7683C41.2143 24.7683 41.7075 24.3825 41.7075 23.6598C41.7075 22.9371 41.1996 22.5659 40.2327 22.5659H39.0217C38.9434 22.5659 38.88 22.6294 38.88 22.7076V24.6265C38.88 24.7048 38.9435 24.7682 39.0217 24.7682H40.2864V24.7683ZM40.0325 21.6722C40.9115 21.6722 41.4047 21.3011 41.4047 20.6467C41.4047 20.0314 40.9798 19.6847 40.2278 19.6847H39.0217C38.9434 19.6847 38.88 19.7482 38.88 19.8264V21.5305C38.88 21.6088 38.9435 21.6722 39.0217 21.6722H40.0325ZM37.6201 25.0955V19.3575C37.6201 18.9473 37.8594 18.7031 38.2501 18.7031H40.5453C41.8248 18.7031 42.6501 19.3917 42.6501 20.4611C42.6501 21.1039 42.2738 21.5636 41.9162 21.8617C41.8378 21.9271 41.8529 22.051 41.9441 22.097C42.4672 22.3611 42.992 22.9278 42.992 23.7477C42.992 24.9881 42.0788 25.7499 40.5747 25.7499H38.2501C37.8594 25.7499 37.6201 25.5057 37.6201 25.0955Z" fill="black"/>
<path d="M47.154 23.8312C47.154 24.4561 46.5975 24.9151 45.9139 24.9151C45.3867 24.9151 45.0302 24.6466 45.0302 24.2219C45.0302 23.7972 45.3671 23.5482 45.9529 23.5091L47.1013 23.4391C47.1298 23.4374 47.1539 23.46 47.1539 23.4886V23.8314L47.154 23.8312ZM46.2361 20.4673C45.245 20.4673 44.6734 20.8076 44.3811 21.135C44.2118 21.3247 44.1901 21.7241 44.4223 21.9098C44.6937 22.1268 45.1483 21.9644 45.3045 21.7724C45.4447 21.6 45.7595 21.4249 46.1871 21.4193C46.7875 21.4114 47.1538 21.7318 47.1538 22.2737V22.4763C47.1538 22.5026 47.1333 22.5243 47.107 22.5258L45.7818 22.6013C44.5224 22.6794 43.8145 23.3527 43.8145 24.2705C43.8145 25.1883 44.5444 25.8328 45.5428 25.8328C46.1746 25.8328 46.7905 25.6678 47.0969 25.5425C47.1612 25.5162 47.2349 25.541 47.2711 25.6003C47.2739 25.6048 47.2763 25.6086 47.2783 25.6115C47.3597 25.7274 47.5062 25.8474 47.7642 25.8474C48.106 25.8474 48.3549 25.6277 48.3549 25.2372V22.1858C48.3549 21.1459 47.5201 20.4673 46.2361 20.4673Z" fill="black"/>
<path d="M51.6954 25.8526C50.1817 25.8526 49.2051 24.8272 49.2051 23.167C49.2051 21.5068 50.1768 20.4668 51.6856 20.4668C52.7012 20.4668 53.5655 20.9893 53.8145 21.7168C53.8536 21.8193 53.878 21.9219 53.878 22.0098C53.878 22.3125 53.6485 22.4981 53.3555 22.4981C53.1114 22.4981 52.9649 22.3956 52.8233 22.1514C52.5645 21.6778 52.2227 21.4532 51.7198 21.4532C50.9385 21.4532 50.4405 22.1026 50.4405 23.1622C50.4405 24.2218 50.9434 24.8712 51.7149 24.8712C52.252 24.8712 52.584 24.6222 52.8184 24.2071C52.9844 23.9337 53.1163 23.8311 53.3799 23.8311C53.668 23.8311 53.8926 24.0264 53.8926 24.3292C53.8926 24.422 53.8682 24.5245 53.8194 24.6417C53.5313 25.3497 52.6719 25.8526 51.6954 25.8526Z" fill="black"/>
<path d="M55.3531 25.8478C54.9967 25.8478 54.7427 25.6183 54.7427 25.2081V19.2461C54.7427 18.8359 54.9966 18.6064 55.3531 18.6064C55.7096 18.6064 55.9586 18.8359 55.9586 19.2461V22.3881C55.9586 22.514 56.1104 22.5774 56.1999 22.4889L58.0045 20.706C58.1608 20.54 58.2926 20.4716 58.4781 20.4716C58.7808 20.4716 59.0103 20.7011 59.0103 20.9941C59.0103 21.1748 58.9566 21.2871 58.7906 21.4433L57.4106 22.7502C57.3571 22.8009 57.3513 22.8841 57.3974 22.9416L58.9371 24.8662C59.0641 25.042 59.1031 25.1494 59.1031 25.3057C59.1031 25.6231 58.8638 25.8477 58.5269 25.8477C58.2876 25.8477 58.146 25.7647 57.9703 25.5108L56.5131 23.6641C56.4617 23.599 56.3656 23.5917 56.305 23.6484L56.0483 23.8887C55.9911 23.9423 55.9586 24.0172 55.9586 24.0956V25.208C55.9586 25.6182 55.7096 25.8477 55.3531 25.8477V25.8478Z" fill="black"/>
<path d="M74.1325 23.8312C74.1325 24.4561 73.576 24.9151 72.8924 24.9151C72.3652 24.9151 72.0087 24.6466 72.0087 24.2219C72.0087 23.7972 72.3456 23.5482 72.9314 23.5091L74.0798 23.4391C74.1083 23.4374 74.1324 23.46 74.1324 23.4886V23.8314L74.1325 23.8312ZM73.2146 20.4673C72.2235 20.4673 71.6519 20.8076 71.3596 21.135C71.1903 21.3247 71.1686 21.7241 71.4008 21.9098C71.6722 22.1268 72.1268 21.9644 72.283 21.7724C72.4232 21.6 72.738 21.4249 73.1656 21.4193C73.766 21.4114 74.1323 21.7318 74.1323 22.2737V22.4763C74.1323 22.5026 74.1118 22.5243 74.0855 22.5258L72.7603 22.6013C71.5009 22.6794 70.793 23.3527 70.793 24.2705C70.793 25.1883 71.5229 25.8328 72.5213 25.8328C73.1531 25.8328 73.769 25.6678 74.0754 25.5425C74.1397 25.5162 74.2134 25.541 74.2496 25.6003C74.2524 25.6048 74.2548 25.6086 74.2568 25.6115C74.3382 25.7274 74.4847 25.8474 74.7427 25.8474C75.0845 25.8474 75.3334 25.6277 75.3334 25.2372V22.1858C75.3334 21.1459 74.4986 20.4673 73.2146 20.4673Z" fill="black"/>
<path d="M78.6739 25.8526C77.1602 25.8526 76.1836 24.8272 76.1836 23.167C76.1836 21.5068 77.1553 20.4668 78.6641 20.4668C79.6797 20.4668 80.544 20.9893 80.793 21.7168C80.8321 21.8193 80.8565 21.9219 80.8565 22.0098C80.8565 22.3125 80.627 22.4981 80.334 22.4981C80.0899 22.4981 79.9434 22.3956 79.8018 22.1514C79.543 21.6778 79.2012 21.4532 78.6983 21.4532C77.917 21.4532 77.419 22.1026 77.419 23.1622C77.419 24.2218 77.9219 24.8712 78.6934 24.8712C79.2305 24.8712 79.5625 24.6222 79.7969 24.2071C79.9629 23.9337 80.0948 23.8311 80.3584 23.8311C80.6465 23.8311 80.8711 24.0264 80.8711 24.3292C80.8711 24.422 80.8467 24.5245 80.7979 24.6417C80.5098 25.3497 79.6504 25.8526 78.6739 25.8526Z" fill="black"/>
<path d="M84.9966 22.548H82.9074C82.8168 22.548 82.75 22.4642 82.769 22.3756C82.9056 21.7369 83.3772 21.4093 83.9716 21.4093C84.566 21.4093 85.0201 21.7241 85.1363 22.3824C85.1516 22.4689 85.0845 22.548 84.9966 22.548ZM83.9668 20.4668C82.4726 20.4668 81.5205 21.5312 81.5205 23.1817C81.5205 24.8322 82.4531 25.8526 84.0352 25.8526C84.8354 25.8526 85.4214 25.6748 85.9211 25.1198C86.1448 24.8714 86.0849 24.5007 85.7888 24.3422C85.5394 24.2086 85.2557 24.3367 85.1164 24.4661C84.6737 24.8775 84.3489 24.9151 84.0255 24.9151C83.2793 24.9151 82.7893 24.4304 82.7363 23.6069C82.731 23.5248 82.7954 23.4551 82.8777 23.4551H85.8319C86.1131 23.4551 86.3425 23.2303 86.3489 22.9492C86.3816 21.5063 85.4064 20.4668 83.9668 20.4668Z" fill="black"/>
<path d="M67.5012 24.8362C66.7442 24.8362 66.2412 24.1769 66.2363 23.1611C66.2412 22.1551 66.715 21.486 67.5012 21.486C68.2874 21.486 68.7758 22.1404 68.7758 23.1611C68.7758 24.1867 68.2582 24.8362 67.5012 24.8362ZM70.0211 23.161C70.0211 21.5054 69.186 20.4848 67.8722 20.4848C67.3862 20.4848 66.6161 20.7288 66.3152 20.8308C66.2477 20.8537 66.173 20.824 66.1413 20.76C66.1333 20.7437 66.125 20.7275 66.1146 20.7127C65.9953 20.5422 65.8196 20.4702 65.6209 20.4702C65.2741 20.4702 65.03 20.6948 65.03 21.0953V26.951C65.03 27.3613 65.279 27.5908 65.6356 27.5908C65.9922 27.5908 66.2461 27.3613 66.2461 26.951V25.5928C66.2461 25.4901 66.352 25.4212 66.4456 25.4634C66.8075 25.6263 67.4102 25.8325 67.8919 25.8325C69.1909 25.8325 70.0212 24.8118 70.0212 23.1611L70.0211 23.161Z" fill="black"/>
<path d="M61.9741 25.8525C60.8803 25.8525 60.1137 25.4326 59.8647 24.8125C59.8305 24.7246 59.8159 24.6465 59.8159 24.5732C59.8159 24.2802 60.0307 24.0947 60.3237 24.0947C60.5239 24.0947 60.6948 24.1875 60.851 24.3926C61.1244 24.7881 61.4369 24.9455 62.018 24.9455C62.5991 24.9455 62.9604 24.7246 62.9604 24.334C62.9604 24.0215 62.7651 23.8506 62.2329 23.7285L61.393 23.5381C60.3822 23.3086 59.8842 22.8106 59.8842 22.0586C59.8842 21.0967 60.7143 20.4668 61.9936 20.4668C62.9897 20.4668 63.7612 20.9551 63.9223 21.5508C63.9369 21.6143 63.9467 21.6729 63.9467 21.7315C63.9467 21.9854 63.7856 22.1661 63.4779 22.1661C63.3021 22.1661 63.1263 22.1026 63.014 21.9415C62.7747 21.5851 62.4769 21.3739 61.9642 21.3739C61.4515 21.3739 61.0658 21.6192 61.0658 21.9903C61.0658 22.293 61.2904 22.4981 61.8275 22.6202L62.6527 22.8009C63.7465 23.0499 64.181 23.4454 64.181 24.212C64.181 25.2032 63.2923 25.8526 61.9739 25.8526H61.9741V25.8525Z" fill="black"/>
</svg>
