<svg width="108" height="54" viewBox="0 0 108 54" fill="none" xmlns="http://www.w3.org/2000/svg">
<rect x="1.85" y="1.84961" width="104.3" height="50.3" rx="3" stroke="#8B1EFF" stroke-width="0.28"/>
<path d="M96.347 40.9109C95.8721 41.425 95.2961 41.8489 94.6602 42.1469C94.0284 42.4433 93.3364 42.6153 92.6455 42.6562C79.7662 43.0703 66.8812 43.2763 53.9952 43.2763C41.1096 43.2773 28.2246 43.0702 15.3456 42.6562C14.6539 42.6166 13.9629 42.4336 13.3329 42.1386C13.0157 41.9899 12.7126 41.8129 12.4297 41.6068C12.1456 41.4012 11.8806 41.1671 11.6426 40.9091C11.4028 40.6513 11.1909 40.3693 11.0049 40.0702C10.8201 39.7714 10.6631 39.4554 10.5342 39.1273C10.2783 38.4746 10.1313 37.7737 10.1104 37.0756V7.2543C10.1154 6.90298 10.1555 6.55106 10.2305 6.20596C10.3046 5.8616 10.4146 5.52457 10.5566 5.20255C10.6982 4.88016 10.8723 4.57217 11.0743 4.28409C11.2758 3.99637 11.5048 3.7283 11.7568 3.48428C12.0091 3.24063 12.2831 3.02054 12.5751 2.82852C12.8671 2.63687 13.1771 2.47183 13.4991 2.3378C13.8201 2.20425 14.1531 2.10025 14.4941 2.02921C14.8353 1.95901 15.1813 1.91995 15.5284 1.9169C41.1729 1.79593 66.8169 1.79593 92.4619 1.9169C92.8091 1.92032 93.156 1.95828 93.4961 2.02921C93.8372 2.09988 94.1711 2.20389 94.4922 2.3378C94.813 2.47256 95.124 2.63663 95.415 2.82852C95.7084 3.02139 95.9823 3.24039 96.2344 3.48331C96.4869 3.7272 96.7159 3.99515 96.918 4.28311C97.1195 4.57217 97.2925 4.88016 97.4346 5.20206C97.5757 5.52505 97.6857 5.86099 97.7607 6.20596C97.8348 6.55032 97.8749 6.90237 97.8799 7.2543V37.0756C97.8579 37.7748 97.7189 38.4759 97.4606 39.1297C97.2015 39.7856 96.8256 40.3936 96.347 40.9109Z" stroke="#8B1EFF" stroke-width="0.283" stroke-miterlimit="10"/>
<path d="M94.3457 40.2979H13.6487C12.4744 40.298 11.5225 39.3459 11.5225 38.1719V6.59497C11.5224 5.42078 12.4744 4.46875 13.6484 4.46875H94.3453C95.5197 4.46875 96.4717 5.42078 96.4717 6.59473V38.1719C96.4717 39.3459 95.5197 40.2979 94.3457 40.2979Z" stroke="#00FFFF" stroke-width="0.28" stroke-miterlimit="10"/>
<path d="M96.9307 33.4842V36.338C96.9308 36.636 96.9078 36.9311 96.8608 37.224C96.8489 37.297 96.8358 37.37 96.8198 37.443C96.8058 37.516 96.7888 37.589 96.7719 37.6601C96.7338 37.804 96.6918 37.9461 96.6448 38.085C96.5958 38.224 96.5408 38.361 96.4799 38.495C96.4188 38.63 96.3508 38.761 96.2759 38.89C96.1268 39.1481 95.9548 39.387 95.7598 39.6071C95.6619 39.7161 95.5588 39.8211 95.4479 39.922C95.3938 39.9711 95.3368 40.0201 95.2798 40.067C95.2228 40.114 95.1638 40.1591 95.1058 40.203C94.8678 40.3771 94.6138 40.5241 94.3458 40.6451C94.2778 40.6751 94.2098 40.703 94.1409 40.73C94.0708 40.757 94.0018 40.782 93.9318 40.8051C93.7908 40.8511 93.6498 40.89 93.5059 40.922C93.2198 40.985 92.9279 41.0201 92.6299 41.028C66.9102 41.7021 41.0852 41.7021 15.3643 41.028C15.2155 41.0241 15.0674 41.0131 14.9194 40.9951C14.8455 40.9861 14.7725 40.9751 14.6984 40.963C14.6254 40.9501 14.5524 40.9361 14.4805 40.9201C14.1924 40.8561 13.9135 40.7631 13.6434 40.6421C13.5764 40.6111 13.5084 40.5791 13.4434 40.5451C13.3765 40.5111 13.3115 40.4751 13.2485 40.4381C13.1204 40.3631 12.9974 40.2821 12.8784 40.1951C12.6425 40.0211 12.4255 39.8221 12.2285 39.5992C12.1785 39.5431 12.1304 39.4861 12.0845 39.4281C12.0394 39.3701 11.9944 39.3122 11.9514 39.2521C11.8665 39.1321 11.7875 39.0091 11.7134 38.8821C11.5674 38.6291 11.4465 38.3601 11.3484 38.0791C11.3245 38.0091 11.3005 37.9381 11.2805 37.8671C11.2584 37.7961 11.2394 37.7251 11.2214 37.6531C11.1854 37.5102 11.1564 37.3661 11.1324 37.2201C11.0854 36.9301 11.0635 36.6361 11.0635 36.338V33.4845C11.0654 25.055 11.0663 16.625 11.0674 8.19595C11.0673 8.04459 11.0753 7.89261 11.0903 7.74161C11.0974 7.66666 11.1074 7.59061 11.1193 7.51663C11.1304 7.44058 11.1434 7.36661 11.1594 7.29263C11.2194 6.99564 11.3093 6.70963 11.4274 6.43362C11.4874 6.29568 11.5533 6.16068 11.6284 6.02762C11.7023 5.89566 11.7823 5.76761 11.8683 5.64468C12.0413 5.39969 12.2363 5.17361 12.4564 4.96658C12.5103 4.91568 12.5663 4.86465 12.6254 4.81558C12.6824 4.76663 12.7413 4.71866 12.8004 4.67264C12.9203 4.5817 13.0433 4.49661 13.1703 4.41763C13.4224 4.25967 13.6913 4.12662 13.9724 4.01859C14.0433 3.99161 14.1143 3.96561 14.1863 3.94168C14.2573 3.91861 14.3303 3.89664 14.4023 3.87662C14.5474 3.8367 14.6923 3.80264 14.8383 3.77469C15.1323 3.72061 15.4313 3.69266 15.7344 3.69058C41.2087 3.52762 66.7847 3.52762 92.2607 3.69058C92.5637 3.69302 92.8617 3.72098 93.1556 3.77505C93.3018 3.80203 93.4478 3.83597 93.5917 3.87601C93.6637 3.897 93.7367 3.91898 93.8087 3.94205C93.8796 3.96597 93.9507 3.991 94.0217 4.01797C94.3037 4.12698 94.5717 4.25906 94.8237 4.41702C94.9507 4.496 95.0737 4.58096 95.1937 4.673C95.2527 4.71902 95.3127 4.76602 95.3698 4.81607C95.4277 4.86502 95.4847 4.91507 95.5387 4.96707C95.7577 5.17398 95.9537 5.40005 96.1257 5.64505C96.2117 5.767 96.2927 5.89505 96.3657 6.02798C96.4407 6.16006 96.5077 6.29703 96.5677 6.43607C96.5977 6.50504 96.6248 6.57498 96.6517 6.647C96.6777 6.71805 96.7017 6.79007 96.7247 6.86197C96.7697 7.00699 96.8077 7.15201 96.8367 7.29898C96.8967 7.59305 96.9268 7.892 96.9266 8.19608C96.9276 16.6252 96.9296 25.0551 96.9307 33.4842Z" stroke="#FF00FF" stroke-width="0.283465" stroke-miterlimit="10" stroke-linecap="round" stroke-linejoin="round"/>
<path d="M90.2987 50.0098V49.5623L91.9791 47.7228C92.1763 47.5074 92.3387 47.3201 92.4663 47.161C92.5939 47.0003 92.6884 46.8495 92.7497 46.7086C92.8127 46.5661 92.8442 46.417 92.8442 46.2612C92.8442 46.0822 92.8011 45.9273 92.7149 45.7963C92.6304 45.6654 92.5144 45.5643 92.3669 45.4931C92.2194 45.4218 92.0537 45.3862 91.8697 45.3862C91.6742 45.3862 91.5035 45.4268 91.3577 45.508C91.2135 45.5875 91.1016 45.6994 91.0221 45.8436C90.9442 45.9877 90.9053 46.1568 90.9053 46.3507H90.3186C90.3186 46.0524 90.3874 45.7905 90.5249 45.5652C90.6625 45.3398 90.8497 45.1641 91.0867 45.0382C91.3254 44.9122 91.593 44.8493 91.8896 44.8493C92.1879 44.8493 92.4522 44.9122 92.6826 45.0382C92.9129 45.1641 93.0936 45.334 93.2245 45.5478C93.3554 45.7615 93.4209 45.9993 93.4209 46.2612C93.4209 46.4484 93.3869 46.6316 93.319 46.8105C93.2527 46.9879 93.1367 47.1859 92.9709 47.4047C92.8069 47.6217 92.579 47.8869 92.2874 48.2001L91.1439 49.4231V49.4629H93.5104V50.0098H90.2987ZM94.9745 50.0495C94.8519 50.0495 94.7466 50.0056 94.6588 49.9178C94.571 49.83 94.5271 49.7247 94.5271 49.6021C94.5271 49.4795 94.571 49.3742 94.6588 49.2864C94.7466 49.1986 94.8519 49.1547 94.9745 49.1547C95.0971 49.1547 95.2024 49.1986 95.2902 49.2864C95.378 49.3742 95.4219 49.4795 95.4219 49.6021C95.4219 49.6833 95.4012 49.7579 95.3598 49.8258C95.32 49.8938 95.2662 49.9484 95.1982 49.9899C95.1319 50.0297 95.0574 50.0495 94.9745 50.0495ZM97.9475 50.0794C97.573 50.0794 97.254 49.9775 96.9905 49.7736C96.727 49.5681 96.5256 49.2707 96.3864 48.8812C96.2472 48.4901 96.1776 48.0178 96.1776 47.4643C96.1776 46.9141 96.2472 46.4443 96.3864 46.0549C96.5273 45.6638 96.7295 45.3655 96.993 45.16C97.2581 44.9528 97.5763 44.8493 97.9475 44.8493C98.3187 44.8493 98.6361 44.9528 98.8996 45.16C99.1647 45.3655 99.3669 45.6638 99.5061 46.0549C99.647 46.4443 99.7174 46.9141 99.7174 47.4643C99.7174 48.0178 99.6478 48.4901 99.5086 48.8812C99.3694 49.2707 99.168 49.5681 98.9045 49.7736C98.641 49.9775 98.322 50.0794 97.9475 50.0794ZM97.9475 49.5325C98.3187 49.5325 98.6071 49.3535 98.8126 48.9956C99.0181 48.6376 99.1208 48.1272 99.1208 47.4643C99.1208 47.0235 99.0736 46.6481 98.9791 46.3382C98.8863 46.0283 98.7521 45.7922 98.5764 45.6298C98.4024 45.4674 98.1928 45.3862 97.9475 45.3862C97.5796 45.3862 97.2921 45.5676 97.0849 45.9306C96.8778 46.2918 96.7742 46.8031 96.7742 47.4643C96.7742 47.9051 96.8206 48.2797 96.9134 48.5879C97.0062 48.8961 97.1396 49.1306 97.3136 49.2914C97.4893 49.4521 97.7006 49.5325 97.9475 49.5325ZM102.323 50.0794C101.948 50.0794 101.629 49.9775 101.365 49.7736C101.102 49.5681 100.901 49.2707 100.761 48.8812C100.622 48.4901 100.553 48.0178 100.553 47.4643C100.553 46.9141 100.622 46.4443 100.761 46.0549C100.902 45.6638 101.104 45.3655 101.368 45.16C101.633 44.9528 101.951 44.8493 102.323 44.8493C102.694 44.8493 103.011 44.9528 103.275 45.16C103.54 45.3655 103.742 45.6638 103.881 46.0549C104.022 46.4443 104.092 46.9141 104.092 47.4643C104.092 48.0178 104.023 48.4901 103.884 48.8812C103.744 49.2707 103.543 49.5681 103.28 49.7736C103.016 49.9775 102.697 50.0794 102.323 50.0794ZM102.323 49.5325C102.694 49.5325 102.982 49.3535 103.188 48.9956C103.393 48.6376 103.496 48.1272 103.496 47.4643C103.496 47.0235 103.449 46.6481 103.354 46.3382C103.261 46.0283 103.127 45.7922 102.951 45.6298C102.777 45.4674 102.568 45.3862 102.323 45.3862C101.955 45.3862 101.667 45.5676 101.46 45.9306C101.253 46.2918 101.149 46.8031 101.149 47.4643C101.149 47.9051 101.196 48.2797 101.288 48.5879C101.381 48.8961 101.515 49.1306 101.689 49.2914C101.864 49.4521 102.076 49.5325 102.323 49.5325Z" fill="#0000FF"/>
<path fill-rule="evenodd" clip-rule="evenodd" d="M24.195 17.9962C24.0188 17.9962 23.8508 18.0645 23.7271 18.1882L19.6171 22.2982C19.3543 22.5609 19.3543 22.9714 19.6171 23.2341L19.6183 23.2353L23.7271 27.3641C23.8507 27.4875 24.0191 27.5562 24.195 27.5562H33.275C33.6194 27.5562 33.895 27.2775 33.895 26.9362V18.6162C33.895 18.2718 33.6164 17.9962 33.275 17.9962H24.195ZM22.723 17.1841C23.1193 16.7878 23.6512 16.5762 24.195 16.5762H33.275C34.3937 16.5762 35.315 17.4806 35.315 18.6162V26.9362C35.315 28.0548 34.4106 28.9762 33.275 28.9762H24.195C23.6512 28.9762 23.1193 28.7645 22.723 28.3682L22.7218 28.367L18.613 24.2382L18.6122 24.2375C17.7957 23.4201 17.796 22.1111 18.613 21.2941L22.723 17.1841ZM31.2871 19.9941C31.5644 20.2714 31.5644 20.721 31.2871 20.9982L29.6213 22.664C29.5666 22.7188 29.5666 22.8075 29.6214 22.8621L31.2865 24.5236C31.5641 24.8006 31.5646 25.2501 31.2876 25.5277C31.0107 25.8053 30.5611 25.8058 30.2836 25.5288L28.6171 23.866C28.5624 23.8114 28.4739 23.8115 28.4192 23.8661L26.7571 25.5282C26.4798 25.8055 26.0303 25.8055 25.753 25.5282C25.4757 25.251 25.4757 24.8014 25.753 24.5241L27.4138 22.8634C27.4685 22.8086 27.4685 22.7199 27.4137 22.6653L25.7436 20.9988C25.466 20.7218 25.4655 20.2723 25.7425 19.9947C26.0194 19.7171 26.469 19.7166 26.7465 19.9936L28.418 21.6614C28.4727 21.716 28.5613 21.7159 28.6159 21.6613L30.283 19.9941C30.5603 19.7169 31.0098 19.7169 31.2871 19.9941Z" fill="black"/>
</svg>
