<svg width="54" height="54" viewBox="0 0 54 54" fill="none" xmlns="http://www.w3.org/2000/svg">
<rect x="1.85" y="1.8501" width="50.3" height="50.3" rx="3" stroke="#8B1EFF" stroke-width="0.28"/>
<path d="M10.2065 37.1479V7.2959C10.2125 6.94397 10.252 6.59094 10.325 6.24585C10.397 5.90088 10.503 5.56384 10.6411 5.23901C10.9141 4.59497 11.3131 4.00098 11.8071 3.50171C12.2961 3.00769 12.8791 2.60559 13.5145 2.32971C13.8315 2.19177 14.1605 2.08582 14.4979 2.01257C14.8349 1.93958 15.1779 1.90051 15.5214 1.89661C19.4174 1.8656 23.3134 1.85059 27.2079 1.85059C31.1049 1.85059 34.9999 1.8656 38.8963 1.89673C39.2393 1.90076 39.5833 1.9397 39.9208 2.01318C40.2568 2.08618 40.5868 2.19312 40.903 2.33008C41.221 2.46802 41.525 2.63708 41.8108 2.8335C42.0978 3.03052 42.3658 3.25452 42.6108 3.50159C42.8578 3.75061 43.0808 4.02161 43.2748 4.31238C43.4708 4.60437 43.6398 4.91431 43.7772 5.23816C43.9142 5.56311 44.0212 5.90112 44.0934 6.24597C44.1664 6.59094 44.2054 6.94397 44.2104 7.29602C44.2104 7.29602 44.2104 37.1479 44.2101 37.1484C44.1891 37.8424 44.0511 38.5385 43.8027 39.1934C43.5557 39.8484 43.1977 40.4624 42.7389 40.9862C42.5089 41.2483 42.2549 41.4873 41.9799 41.7C41.7069 41.912 41.4139 42.0969 41.1049 42.2539C40.7979 42.4099 40.4769 42.5369 40.1451 42.6315C39.8161 42.7264 39.4771 42.7896 39.1357 42.8154C31.1907 43.2485 23.2267 43.2485 15.2819 42.8154C14.6009 42.7625 13.9259 42.5664 13.3131 42.2549C12.6931 41.9398 12.1351 41.5068 11.6787 40.9869C11.2197 40.4619 10.8627 39.8479 10.6155 39.193C10.3675 38.538 10.2285 37.843 10.2065 37.1479Z" stroke="#8B1EFF" stroke-width="0.283" stroke-miterlimit="10"/>
<rect x="12.8886" y="5.47168" width="28.63" height="34.35" rx="1.46" stroke="#00FFFF" stroke-width="0.28"/>
<path d="M38.6898 3.58646C31.0758 3.48746 23.3388 3.48746 15.7238 3.58646C15.4321 3.59048 15.1431 3.62149 14.858 3.68155C14.787 3.69656 14.7151 3.71255 14.6451 3.73148C14.5751 3.74954 14.5051 3.76956 14.4361 3.79153C14.298 3.83548 14.162 3.88455 14.0311 3.94156C13.8981 3.99857 13.7681 4.06155 13.6421 4.1315C13.578 4.16653 13.515 4.20352 13.453 4.24149C13.3911 4.27957 13.33 4.31949 13.2701 4.36148C13.0321 4.52652 12.8121 4.71451 12.6111 4.92349C12.5101 5.0275 12.4151 5.13748 12.3251 5.25357C12.2791 5.31058 12.2361 5.36954 12.1931 5.42947C12.151 5.48856 12.1111 5.54849 12.0721 5.6105C11.9151 5.8555 11.7841 6.11453 11.677 6.38651C11.651 6.4545 11.625 6.52347 11.6021 6.59354C11.578 6.66348 11.556 6.73355 11.5361 6.8035C11.4951 6.94449 11.4621 7.08646 11.4351 7.2305C11.382 7.51651 11.3551 7.80655 11.3551 8.10257C11.3528 17.5192 11.3519 26.9372 11.3499 36.3542C11.35 36.6476 11.371 36.9375 11.414 37.2235C11.436 37.3666 11.462 37.5086 11.4949 37.6505C11.511 37.7216 11.5289 37.7915 11.548 37.8616C11.567 37.9325 11.588 38.0026 11.61 38.0725C11.699 38.3506 11.809 38.6195 11.9429 38.8766C11.977 38.9416 12.0119 39.0055 12.048 39.0686C12.084 39.1316 12.1219 39.1936 12.162 39.2545C12.241 39.3756 12.324 39.4936 12.4129 39.6056C12.502 39.7185 12.597 39.8275 12.6969 39.9315C12.7469 39.9826 12.798 40.0336 12.852 40.0835C12.905 40.1326 12.959 40.1815 13.0139 40.2276C13.2359 40.4126 13.4729 40.5725 13.727 40.7066C13.7899 40.7395 13.8549 40.7716 13.92 40.8015C13.9859 40.8316 14.0529 40.8595 14.1199 40.8866C14.254 40.9386 14.3909 40.9836 14.5289 41.0216C14.8049 41.0966 15.087 41.1426 15.377 41.1576C23.2194 41.5847 31.1934 41.5847 39.0353 41.1577C39.3265 41.1418 39.6095 41.0959 39.8855 41.0218C40.0235 40.9838 40.1595 40.9388 40.2935 40.8867C40.3605 40.8598 40.4276 40.8318 40.4935 40.8018C40.5595 40.7708 40.6245 40.7388 40.6875 40.7049C40.9435 40.5708 41.1805 40.4108 41.3995 40.2259C41.5105 40.1338 41.6155 40.0348 41.7175 39.9308C41.7665 39.8788 41.8165 39.8249 41.8635 39.7698C41.9115 39.7159 41.9576 39.6598 42.0025 39.6038C42.1805 39.3778 42.3355 39.1367 42.4685 38.8819C42.5345 38.7538 42.5965 38.6228 42.6516 38.4878C42.6795 38.4208 42.7065 38.3528 42.7305 38.2838C42.7565 38.2159 42.7795 38.1468 42.8026 38.0768C42.8895 37.7998 42.9545 37.5168 42.9985 37.2298C43.0096 37.1577 43.0175 37.0847 43.0266 37.0128C43.0345 36.9398 43.0415 36.8669 43.0465 36.7939C43.0575 36.6479 43.0625 36.5008 43.0625 36.3548C43.0609 26.9375 43.0598 17.5196 43.059 8.10208C43.058 7.80716 43.032 7.51419 42.977 7.22415C42.95 7.07913 42.9149 6.93619 42.8749 6.79617C42.834 6.65616 42.7879 6.5181 42.735 6.38309C42.6809 6.2471 42.6219 6.11417 42.5549 5.98416C42.5219 5.9191 42.4879 5.85416 42.451 5.79019C42.4139 5.72708 42.3759 5.66409 42.3369 5.60208C42.1799 5.35709 41.9999 5.12918 41.799 4.9202C41.7489 4.86819 41.6979 4.81717 41.645 4.76712C41.5909 4.71719 41.5379 4.66812 41.481 4.62112C41.3699 4.52615 41.2539 4.43814 41.136 4.35611C40.8979 4.19315 40.6459 4.05411 40.3789 3.94009C40.313 3.91214 40.2449 3.88516 40.1759 3.85916C40.1079 3.83414 40.0389 3.81009 39.9699 3.78909C39.8309 3.74612 39.692 3.70914 39.5509 3.68008C39.269 3.6221 38.9829 3.59012 38.6898 3.58646Z" stroke="#FF00FF" stroke-width="0.283465" stroke-miterlimit="10" stroke-linecap="round" stroke-linejoin="round"/>
<path d="M19.2864 24.7683C20.2143 24.7683 20.7075 24.3825 20.7075 23.6598C20.7075 22.9371 20.1996 22.5659 19.2327 22.5659H18.0217C17.9434 22.5659 17.88 22.6294 17.88 22.7076V24.6265C17.88 24.7048 17.9435 24.7682 18.0217 24.7682H19.2864V24.7683ZM19.0325 21.6722C19.9115 21.6722 20.4047 21.3011 20.4047 20.6467C20.4047 20.0314 19.9798 19.6847 19.2278 19.6847H18.0217C17.9434 19.6847 17.88 19.7482 17.88 19.8264V21.5305C17.88 21.6088 17.9435 21.6722 18.0217 21.6722H19.0325ZM16.6201 25.0955V19.3575C16.6201 18.9473 16.8594 18.7031 17.2501 18.7031H19.5453C20.8248 18.7031 21.6501 19.3917 21.6501 20.4611C21.6501 21.1039 21.2738 21.5636 20.9162 21.8617C20.8378 21.9271 20.8529 22.051 20.9441 22.097C21.4672 22.3611 21.992 22.9278 21.992 23.7477C21.992 24.9881 21.0788 25.7499 19.5747 25.7499H17.2501C16.8594 25.7499 16.6201 25.5057 16.6201 25.0955Z" fill="black"/>
<path d="M26.154 23.8312C26.154 24.4561 25.5975 24.9151 24.9139 24.9151C24.3867 24.9151 24.0302 24.6466 24.0302 24.2219C24.0302 23.7972 24.3671 23.5482 24.9529 23.5091L26.1013 23.4391C26.1298 23.4374 26.1539 23.46 26.1539 23.4886V23.8314L26.154 23.8312ZM25.2361 20.4673C24.245 20.4673 23.6734 20.8076 23.3811 21.135C23.2118 21.3247 23.1901 21.7241 23.4223 21.9098C23.6937 22.1268 24.1483 21.9644 24.3045 21.7724C24.4447 21.6 24.7595 21.4249 25.1871 21.4193C25.7875 21.4114 26.1538 21.7318 26.1538 22.2737V22.4763C26.1538 22.5026 26.1333 22.5243 26.107 22.5258L24.7818 22.6013C23.5224 22.6794 22.8145 23.3527 22.8145 24.2705C22.8145 25.1883 23.5444 25.8328 24.5428 25.8328C25.1746 25.8328 25.7905 25.6678 26.0969 25.5425C26.1612 25.5162 26.2349 25.541 26.2711 25.6003C26.2739 25.6048 26.2763 25.6086 26.2783 25.6115C26.3597 25.7274 26.5062 25.8474 26.7642 25.8474C27.106 25.8474 27.3549 25.6277 27.3549 25.2372V22.1858C27.3549 21.1459 26.5201 20.4673 25.2361 20.4673Z" fill="black"/>
<path d="M30.6954 25.8526C29.1817 25.8526 28.2051 24.8272 28.2051 23.167C28.2051 21.5068 29.1768 20.4668 30.6856 20.4668C31.7012 20.4668 32.5655 20.9893 32.8145 21.7168C32.8536 21.8193 32.878 21.9219 32.878 22.0098C32.878 22.3125 32.6485 22.4981 32.3555 22.4981C32.1114 22.4981 31.9649 22.3956 31.8233 22.1514C31.5645 21.6778 31.2227 21.4532 30.7198 21.4532C29.9385 21.4532 29.4405 22.1026 29.4405 23.1622C29.4405 24.2218 29.9434 24.8712 30.7149 24.8712C31.252 24.8712 31.584 24.6222 31.8184 24.2071C31.9844 23.9337 32.1163 23.8311 32.3799 23.8311C32.668 23.8311 32.8926 24.0264 32.8926 24.3292C32.8926 24.422 32.8682 24.5245 32.8194 24.6417C32.5313 25.3497 31.6719 25.8526 30.6954 25.8526Z" fill="black"/>
<path d="M34.3531 25.8478C33.9967 25.8478 33.7427 25.6183 33.7427 25.2081V19.2461C33.7427 18.8359 33.9966 18.6064 34.3531 18.6064C34.7096 18.6064 34.9586 18.8359 34.9586 19.2461V22.3881C34.9586 22.514 35.1104 22.5774 35.1999 22.4889L37.0045 20.706C37.1608 20.54 37.2926 20.4716 37.4781 20.4716C37.7808 20.4716 38.0103 20.7011 38.0103 20.9941C38.0103 21.1748 37.9566 21.2871 37.7906 21.4433L36.4106 22.7502C36.3571 22.8009 36.3513 22.8841 36.3974 22.9416L37.9371 24.8662C38.0641 25.042 38.1031 25.1494 38.1031 25.3057C38.1031 25.6231 37.8638 25.8477 37.5269 25.8477C37.2876 25.8477 37.146 25.7647 36.9703 25.5108L35.5131 23.6641C35.4617 23.599 35.3656 23.5917 35.305 23.6484L35.0483 23.8887C34.9911 23.9423 34.9586 24.0172 34.9586 24.0956V25.208C34.9586 25.6182 34.7096 25.8477 34.3531 25.8477V25.8478Z" fill="black"/>
</svg>
