<svg width="54" height="54" viewBox="0 0 54 54" fill="none" xmlns="http://www.w3.org/2000/svg">
<rect x="1.85" y="1.8501" width="50.3" height="50.3" rx="3" stroke="#8B1EFF" stroke-width="0.28"/>
<path d="M10.2065 37.1479V7.2959C10.2125 6.94397 10.252 6.59094 10.325 6.24585C10.397 5.90088 10.503 5.56384 10.6411 5.23901C10.9141 4.59497 11.3131 4.00098 11.8071 3.50171C12.2961 3.00769 12.8791 2.60559 13.5145 2.32971C13.8315 2.19177 14.1605 2.08582 14.4979 2.01257C14.8349 1.93958 15.1779 1.90051 15.5214 1.89661C19.4174 1.8656 23.3134 1.85059 27.2079 1.85059C31.1049 1.85059 34.9999 1.8656 38.8963 1.89673C39.2393 1.90076 39.5833 1.9397 39.9208 2.01318C40.2568 2.08618 40.5868 2.19312 40.903 2.33008C41.221 2.46802 41.525 2.63708 41.8108 2.8335C42.0978 3.03052 42.3658 3.25452 42.6108 3.50159C42.8578 3.75061 43.0808 4.02161 43.2748 4.31238C43.4708 4.60437 43.6398 4.91431 43.7772 5.23816C43.9142 5.56311 44.0212 5.90112 44.0934 6.24597C44.1664 6.59094 44.2054 6.94397 44.2104 7.29602C44.2104 7.29602 44.2104 37.1479 44.2101 37.1484C44.1891 37.8424 44.0511 38.5385 43.8027 39.1934C43.5557 39.8484 43.1977 40.4624 42.7389 40.9862C42.5089 41.2483 42.2549 41.4873 41.9799 41.7C41.7069 41.912 41.4139 42.0969 41.1049 42.2539C40.7979 42.4099 40.4769 42.5369 40.1451 42.6315C39.8161 42.7264 39.4771 42.7896 39.1357 42.8154C31.1907 43.2485 23.2267 43.2485 15.2819 42.8154C14.6009 42.7625 13.9259 42.5664 13.3131 42.2549C12.6931 41.9398 12.1351 41.5068 11.6787 40.9869C11.2197 40.4619 10.8627 39.8479 10.6155 39.193C10.3675 38.538 10.2285 37.843 10.2065 37.1479Z" stroke="#8B1EFF" stroke-width="0.283" stroke-miterlimit="10"/>
<rect x="12.8886" y="5.47168" width="28.63" height="34.35" rx="1.46" stroke="#00FFFF" stroke-width="0.28"/>
<path d="M38.6898 3.58646C31.0758 3.48746 23.3388 3.48746 15.7238 3.58646C15.4321 3.59048 15.1431 3.62149 14.858 3.68155C14.787 3.69656 14.7151 3.71255 14.6451 3.73148C14.5751 3.74954 14.5051 3.76956 14.4361 3.79153C14.298 3.83548 14.162 3.88455 14.0311 3.94156C13.8981 3.99857 13.7681 4.06155 13.6421 4.1315C13.578 4.16653 13.515 4.20352 13.453 4.24149C13.3911 4.27957 13.33 4.31949 13.2701 4.36148C13.0321 4.52652 12.8121 4.71451 12.6111 4.92349C12.5101 5.0275 12.4151 5.13748 12.3251 5.25357C12.2791 5.31058 12.2361 5.36954 12.1931 5.42947C12.151 5.48856 12.1111 5.54849 12.0721 5.6105C11.9151 5.8555 11.7841 6.11453 11.677 6.38651C11.651 6.4545 11.625 6.52347 11.6021 6.59354C11.578 6.66348 11.556 6.73355 11.5361 6.8035C11.4951 6.94449 11.4621 7.08646 11.4351 7.2305C11.382 7.51651 11.3551 7.80655 11.3551 8.10257C11.3528 17.5192 11.3519 26.9372 11.3499 36.3542C11.35 36.6476 11.371 36.9375 11.414 37.2235C11.436 37.3666 11.462 37.5086 11.4949 37.6505C11.511 37.7216 11.5289 37.7915 11.548 37.8616C11.567 37.9325 11.588 38.0026 11.61 38.0725C11.699 38.3506 11.809 38.6195 11.9429 38.8766C11.977 38.9416 12.0119 39.0055 12.048 39.0686C12.084 39.1316 12.1219 39.1936 12.162 39.2545C12.241 39.3756 12.324 39.4936 12.4129 39.6056C12.502 39.7185 12.597 39.8275 12.6969 39.9315C12.7469 39.9826 12.798 40.0336 12.852 40.0835C12.905 40.1326 12.959 40.1815 13.0139 40.2276C13.2359 40.4126 13.4729 40.5725 13.727 40.7066C13.7899 40.7395 13.8549 40.7716 13.92 40.8015C13.9859 40.8316 14.0529 40.8595 14.1199 40.8866C14.254 40.9386 14.3909 40.9836 14.5289 41.0216C14.8049 41.0966 15.087 41.1426 15.377 41.1576C23.2194 41.5847 31.1934 41.5847 39.0353 41.1577C39.3265 41.1418 39.6095 41.0959 39.8855 41.0218C40.0235 40.9838 40.1595 40.9388 40.2935 40.8867C40.3605 40.8598 40.4276 40.8318 40.4935 40.8018C40.5595 40.7708 40.6245 40.7388 40.6875 40.7049C40.9435 40.5708 41.1805 40.4108 41.3995 40.2259C41.5105 40.1338 41.6155 40.0348 41.7175 39.9308C41.7665 39.8788 41.8165 39.8249 41.8635 39.7698C41.9115 39.7159 41.9576 39.6598 42.0025 39.6038C42.1805 39.3778 42.3355 39.1367 42.4685 38.8819C42.5345 38.7538 42.5965 38.6228 42.6516 38.4878C42.6795 38.4208 42.7065 38.3528 42.7305 38.2838C42.7565 38.2159 42.7795 38.1468 42.8026 38.0768C42.8895 37.7998 42.9545 37.5168 42.9985 37.2298C43.0096 37.1577 43.0175 37.0847 43.0266 37.0128C43.0345 36.9398 43.0415 36.8669 43.0465 36.7939C43.0575 36.6479 43.0625 36.5008 43.0625 36.3548C43.0609 26.9375 43.0598 17.5196 43.059 8.10208C43.058 7.80716 43.032 7.51419 42.977 7.22415C42.95 7.07913 42.9149 6.93619 42.8749 6.79617C42.834 6.65616 42.7879 6.5181 42.735 6.38309C42.6809 6.2471 42.6219 6.11417 42.5549 5.98416C42.5219 5.9191 42.4879 5.85416 42.451 5.79019C42.4139 5.72708 42.3759 5.66409 42.3369 5.60208C42.1799 5.35709 41.9999 5.12918 41.799 4.9202C41.7489 4.86819 41.6979 4.81717 41.645 4.76712C41.5909 4.71719 41.5379 4.66812 41.481 4.62112C41.3699 4.52615 41.2539 4.43814 41.136 4.35611C40.8979 4.19315 40.6459 4.05411 40.3789 3.94009C40.313 3.91214 40.2449 3.88516 40.1759 3.85916C40.1079 3.83414 40.0389 3.81009 39.9699 3.78909C39.8309 3.74612 39.692 3.70914 39.5509 3.68008C39.269 3.6221 38.9829 3.59012 38.6898 3.58646Z" stroke="#FF00FF" stroke-width="0.283465" stroke-miterlimit="10" stroke-linecap="round" stroke-linejoin="round"/>
<path d="M17.25 25.7501C16.8594 25.7501 16.6201 25.506 16.6201 25.0958V19.3584C16.6201 18.9482 16.8594 18.7041 17.25 18.7041H20.6827C21.0294 18.7041 21.2589 18.9092 21.2589 19.2363C21.2589 19.5634 21.0294 19.7685 20.6827 19.7685H18.0217C17.9434 19.7685 17.88 19.832 17.88 19.9102V21.5311C17.88 21.6094 17.9435 21.6728 18.0217 21.6728H20.5362C20.8585 21.6728 21.0782 21.8632 21.0782 22.1709C21.0782 22.4786 20.8634 22.6738 20.5362 22.6738H18.0217C17.9434 22.6738 17.88 22.7373 17.88 22.8155V24.5438C17.88 24.6221 17.9435 24.6855 18.0217 24.6855H20.6827C21.0294 24.6855 21.2589 24.8906 21.2589 25.2177C21.2589 25.5448 21.0294 25.7499 20.6827 25.7499H17.25V25.7501Z" fill="black"/>
<path d="M30.4425 21.482C31.1995 21.482 31.7025 22.1413 31.7074 23.1571C31.7025 24.1631 31.2287 24.8322 30.4425 24.8322C29.6563 24.8322 29.1679 24.1778 29.1679 23.1571C29.1679 22.1315 29.6855 21.482 30.4425 21.482ZM27.9226 23.1572C27.9226 24.8128 28.7577 25.8334 30.0715 25.8334C30.5575 25.8334 31.3276 25.5894 31.6285 25.4874C31.696 25.4645 31.7707 25.4942 31.8024 25.5582C31.8104 25.5745 31.8187 25.5907 31.8291 25.6055C31.9485 25.776 32.1242 25.848 32.3229 25.848C32.6697 25.848 32.9138 25.6234 32.9138 25.2229V19.2453C32.9137 18.835 32.6647 18.6055 32.3081 18.6055C31.9515 18.6055 31.6976 18.835 31.6976 19.2453V20.7254C31.6976 20.8281 31.5917 20.897 31.4981 20.8548C31.1362 20.6919 30.5335 20.4857 30.0518 20.4857C28.7528 20.4857 27.9226 21.5064 27.9226 23.1571V23.1572Z" fill="black"/>
<path d="M22.3511 25.2077V21.0856C22.3511 20.7095 22.5709 20.4702 22.9323 20.4702C23.1391 20.4702 23.3081 20.5507 23.4136 20.6917C23.4392 20.7259 23.461 20.7646 23.4787 20.8011C23.5131 20.8718 23.5976 20.9019 23.6683 20.8676C23.9345 20.7386 24.5538 20.4751 25.1692 20.4751C26.3121 20.4751 26.9617 21.2077 26.9617 22.4043V25.2078C26.9617 25.6181 26.7126 25.8476 26.3561 25.8476C25.9996 25.8476 25.7456 25.618 25.7456 25.2078V22.6486C25.7456 21.916 25.4037 21.5057 24.7102 21.5057C24.0167 21.5057 23.5673 22.0088 23.5673 22.7511V25.2078C23.5673 25.6181 23.3133 25.8476 22.9568 25.8476C22.6003 25.8476 22.3511 25.618 22.3511 25.2077Z" fill="black"/>
</svg>
