<svg width="54" height="54" viewBox="0 0 54 54" fill="none" xmlns="http://www.w3.org/2000/svg">
<rect x="1.85" y="1.8501" width="50.3" height="50.3" rx="3" stroke="#8B1EFF" stroke-width="0.28"/>
<path d="M10.2065 37.1479V7.2959C10.2125 6.94397 10.252 6.59094 10.325 6.24585C10.397 5.90088 10.503 5.56384 10.6411 5.23901C10.9141 4.59497 11.3131 4.00098 11.8071 3.50171C12.2961 3.00769 12.8791 2.60559 13.5145 2.32971C13.8315 2.19177 14.1605 2.08582 14.4979 2.01257C14.8349 1.93958 15.1779 1.90051 15.5214 1.89661C19.4174 1.8656 23.3134 1.85059 27.2079 1.85059C31.1049 1.85059 34.9999 1.8656 38.8963 1.89673C39.2393 1.90076 39.5833 1.9397 39.9208 2.01318C40.2568 2.08618 40.5868 2.19312 40.903 2.33008C41.221 2.46802 41.525 2.63708 41.8108 2.8335C42.0978 3.03052 42.3658 3.25452 42.6108 3.50159C42.8578 3.75061 43.0808 4.02161 43.2748 4.31238C43.4708 4.60437 43.6398 4.91431 43.7772 5.23816C43.9142 5.56311 44.0212 5.90112 44.0934 6.24597C44.1664 6.59094 44.2054 6.94397 44.2104 7.29602C44.2104 7.29602 44.2104 37.1479 44.2101 37.1484C44.1891 37.8424 44.0511 38.5385 43.8027 39.1934C43.5557 39.8484 43.1977 40.4624 42.7389 40.9862C42.5089 41.2483 42.2549 41.4873 41.9799 41.7C41.7069 41.912 41.4139 42.0969 41.1049 42.2539C40.7979 42.4099 40.4769 42.5369 40.1451 42.6315C39.8161 42.7264 39.4771 42.7896 39.1357 42.8154C31.1907 43.2485 23.2267 43.2485 15.2819 42.8154C14.6009 42.7625 13.9259 42.5664 13.3131 42.2549C12.6931 41.9398 12.1351 41.5068 11.6787 40.9869C11.2197 40.4619 10.8627 39.8479 10.6155 39.193C10.3675 38.538 10.2285 37.843 10.2065 37.1479Z" stroke="#8B1EFF" stroke-width="0.283" stroke-miterlimit="10"/>
<rect x="12.8886" y="5.47168" width="28.63" height="34.35" rx="1.46" stroke="#00FFFF" stroke-width="0.28"/>
<path d="M38.6898 3.58646C31.0758 3.48746 23.3388 3.48746 15.7238 3.58646C15.4321 3.59048 15.1431 3.62149 14.858 3.68155C14.787 3.69656 14.7151 3.71255 14.6451 3.73148C14.5751 3.74954 14.5051 3.76956 14.4361 3.79153C14.298 3.83548 14.162 3.88455 14.0311 3.94156C13.8981 3.99857 13.7681 4.06155 13.6421 4.1315C13.578 4.16653 13.515 4.20352 13.453 4.24149C13.3911 4.27957 13.33 4.31949 13.2701 4.36148C13.0321 4.52652 12.8121 4.71451 12.6111 4.92349C12.5101 5.0275 12.4151 5.13748 12.3251 5.25357C12.2791 5.31058 12.2361 5.36954 12.1931 5.42947C12.151 5.48856 12.1111 5.54849 12.0721 5.6105C11.9151 5.8555 11.7841 6.11453 11.677 6.38651C11.651 6.4545 11.625 6.52347 11.6021 6.59354C11.578 6.66348 11.556 6.73355 11.5361 6.8035C11.4951 6.94449 11.4621 7.08646 11.4351 7.2305C11.382 7.51651 11.3551 7.80655 11.3551 8.10257C11.3528 17.5192 11.3519 26.9372 11.3499 36.3542C11.35 36.6476 11.371 36.9375 11.414 37.2235C11.436 37.3666 11.462 37.5086 11.4949 37.6505C11.511 37.7216 11.5289 37.7915 11.548 37.8616C11.567 37.9325 11.588 38.0026 11.61 38.0725C11.699 38.3506 11.809 38.6195 11.9429 38.8766C11.977 38.9416 12.0119 39.0055 12.048 39.0686C12.084 39.1316 12.1219 39.1936 12.162 39.2545C12.241 39.3756 12.324 39.4936 12.4129 39.6056C12.502 39.7185 12.597 39.8275 12.6969 39.9315C12.7469 39.9826 12.798 40.0336 12.852 40.0835C12.905 40.1326 12.959 40.1815 13.0139 40.2276C13.2359 40.4126 13.4729 40.5725 13.727 40.7066C13.7899 40.7395 13.8549 40.7716 13.92 40.8015C13.9859 40.8316 14.0529 40.8595 14.1199 40.8866C14.254 40.9386 14.3909 40.9836 14.5289 41.0216C14.8049 41.0966 15.087 41.1426 15.377 41.1576C23.2194 41.5847 31.1934 41.5847 39.0353 41.1577C39.3265 41.1418 39.6095 41.0959 39.8855 41.0218C40.0235 40.9838 40.1595 40.9388 40.2935 40.8867C40.3605 40.8598 40.4276 40.8318 40.4935 40.8018C40.5595 40.7708 40.6245 40.7388 40.6875 40.7049C40.9435 40.5708 41.1805 40.4108 41.3995 40.2259C41.5105 40.1338 41.6155 40.0348 41.7175 39.9308C41.7665 39.8788 41.8165 39.8249 41.8635 39.7698C41.9115 39.7159 41.9576 39.6598 42.0025 39.6038C42.1805 39.3778 42.3355 39.1367 42.4685 38.8819C42.5345 38.7538 42.5965 38.6228 42.6516 38.4878C42.6795 38.4208 42.7065 38.3528 42.7305 38.2838C42.7565 38.2159 42.7795 38.1468 42.8026 38.0768C42.8895 37.7998 42.9545 37.5168 42.9985 37.2298C43.0096 37.1577 43.0175 37.0847 43.0266 37.0128C43.0345 36.9398 43.0415 36.8669 43.0465 36.7939C43.0575 36.6479 43.0625 36.5008 43.0625 36.3548C43.0609 26.9375 43.0598 17.5196 43.059 8.10208C43.058 7.80716 43.032 7.51419 42.977 7.22415C42.95 7.07913 42.9149 6.93619 42.8749 6.79617C42.834 6.65616 42.7879 6.5181 42.735 6.38309C42.6809 6.2471 42.6219 6.11417 42.5549 5.98416C42.5219 5.9191 42.4879 5.85416 42.451 5.79019C42.4139 5.72708 42.3759 5.66409 42.3369 5.60208C42.1799 5.35709 41.9999 5.12918 41.799 4.9202C41.7489 4.86819 41.6979 4.81717 41.645 4.76712C41.5909 4.71719 41.5379 4.66812 41.481 4.62112C41.3699 4.52615 41.2539 4.43814 41.136 4.35611C40.8979 4.19315 40.6459 4.05411 40.3789 3.94009C40.313 3.91214 40.2449 3.88516 40.1759 3.85916C40.1079 3.83414 40.0389 3.81009 39.9699 3.78909C39.8309 3.74612 39.692 3.70914 39.5509 3.68008C39.269 3.6221 38.9829 3.59012 38.6898 3.58646Z" stroke="#FF00FF" stroke-width="0.283465" stroke-miterlimit="10" stroke-linecap="round" stroke-linejoin="round"/>
<path fill-rule="evenodd" clip-rule="evenodd" d="M28.707 28.5142H29.6184C29.9242 28.5142 30.1721 28.762 30.1721 29.0678V34.4324C30.1721 34.7382 29.9242 34.986 29.6184 34.986H28.707C28.4012 34.986 28.1533 34.7382 28.1533 34.4324V29.0678C28.1533 28.762 28.4012 28.5142 28.707 28.5142ZM32.6132 28.5142H33.5247C33.8304 28.5142 34.0783 28.762 34.0783 29.0678V34.4324C34.0783 34.7382 33.8304 34.986 33.5247 34.986H32.6132C32.3074 34.986 32.0596 34.7382 32.0596 34.4324V29.0678C32.0596 28.762 32.3074 28.5142 32.6132 28.5142ZM25.1718 32.6161C25.8384 32.2312 25.8384 31.269 25.1718 30.8841L21.4218 28.719C20.7551 28.3341 19.9218 28.8152 19.9218 29.585V33.9152C19.9218 34.685 20.7551 35.1661 21.4218 34.7812L25.1718 32.6161Z" fill="black"/>
<path d="M22.18 15.8331C21.7894 15.8331 21.5501 15.5938 21.5501 15.1788V9.3584C21.5501 8.9482 21.7894 8.7041 22.18 8.7041H25.5492C25.8959 8.7041 26.1254 8.9092 26.1254 9.2363C26.1254 9.5634 25.891 9.7685 25.5492 9.7685H22.9516C22.8733 9.7685 22.8099 9.832 22.8099 9.9102V11.7068C22.8099 11.7851 22.8734 11.8485 22.9516 11.8485H25.2952C25.6272 11.8485 25.847 12.0438 25.847 12.3612C25.847 12.6786 25.6273 12.8739 25.2952 12.8739H22.9516C22.8733 12.8739 22.8099 12.9374 22.8099 13.0156V15.1786C22.8099 15.5936 22.5755 15.8329 22.18 15.8329V15.8331Z" fill="black"/>
<path d="M32.449 13.8454C32.449 13.0054 31.9929 12.5336 31.3459 12.1323C31.263 12.0809 31.2551 11.9632 31.3308 11.9017C31.8511 11.4788 32.195 11.131 32.195 10.4416C32.195 9.35748 31.1598 8.56152 29.7046 8.56152C28.2493 8.56152 27.214 9.35748 27.214 10.4416C27.214 11.1309 27.558 11.4788 28.0783 11.9017C28.154 11.9632 28.1461 12.0809 28.0632 12.1323C27.4162 12.5336 26.96 13.0054 26.96 13.8454C26.96 15.0468 28.0931 15.8916 29.7045 15.8916C31.316 15.8916 32.4489 15.0468 32.4489 13.8454H32.449ZM29.7046 9.51377C30.4322 9.51377 30.9498 9.94845 30.9498 10.5686C30.9498 11.1888 30.437 11.6137 29.7046 11.6137C28.972 11.6137 28.4592 11.1888 28.4592 10.5686C28.4592 9.94845 28.9769 9.51377 29.7046 9.51377ZM29.7046 14.9296C28.8597 14.9296 28.264 14.4363 28.264 13.7526C28.264 13.069 28.8597 12.5757 29.7046 12.5757C30.5494 12.5757 31.1451 13.069 31.1451 13.7526C31.1451 14.4363 30.5493 14.9296 29.7046 14.9296Z" fill="black"/>
</svg>
