<svg width="54" height="54" viewBox="0 0 54 54" fill="none" xmlns="http://www.w3.org/2000/svg">
<rect x="1.85" y="1.8501" width="50.3" height="50.3" rx="3" stroke="#8B1EFF" stroke-width="0.28"/>
<path d="M10.2065 37.1479V7.2959C10.2125 6.94397 10.252 6.59094 10.325 6.24585C10.397 5.90088 10.503 5.56384 10.6411 5.23901C10.9141 4.59497 11.3131 4.00098 11.8071 3.50171C12.2961 3.00769 12.8791 2.60559 13.5145 2.32971C13.8315 2.19177 14.1605 2.08582 14.4979 2.01257C14.8349 1.93958 15.1779 1.90051 15.5214 1.89661C19.4174 1.8656 23.3134 1.85059 27.2079 1.85059C31.1049 1.85059 34.9999 1.8656 38.8963 1.89673C39.2393 1.90076 39.5833 1.9397 39.9208 2.01318C40.2568 2.08618 40.5868 2.19312 40.903 2.33008C41.221 2.46802 41.525 2.63708 41.8108 2.8335C42.0978 3.03052 42.3658 3.25452 42.6108 3.50159C42.8578 3.75061 43.0808 4.02161 43.2748 4.31238C43.4708 4.60437 43.6398 4.91431 43.7772 5.23816C43.9142 5.56311 44.0212 5.90112 44.0934 6.24597C44.1664 6.59094 44.2054 6.94397 44.2104 7.29602C44.2104 7.29602 44.2104 37.1479 44.2101 37.1484C44.1891 37.8424 44.0511 38.5385 43.8027 39.1934C43.5557 39.8484 43.1977 40.4624 42.7389 40.9862C42.5089 41.2483 42.2549 41.4873 41.9799 41.7C41.7069 41.912 41.4139 42.0969 41.1049 42.2539C40.7979 42.4099 40.4769 42.5369 40.1451 42.6315C39.8161 42.7264 39.4771 42.7896 39.1357 42.8154C31.1907 43.2485 23.2267 43.2485 15.2819 42.8154C14.6009 42.7625 13.9259 42.5664 13.3131 42.2549C12.6931 41.9398 12.1351 41.5068 11.6787 40.9869C11.2197 40.4619 10.8627 39.8479 10.6155 39.193C10.3675 38.538 10.2285 37.843 10.2065 37.1479Z" stroke="#8B1EFF" stroke-width="0.283" stroke-miterlimit="10"/>
<rect x="12.8886" y="5.47168" width="28.63" height="34.35" rx="1.46" stroke="#00FFFF" stroke-width="0.28"/>
<path d="M38.6898 3.58646C31.0758 3.48746 23.3388 3.48746 15.7238 3.58646C15.4321 3.59048 15.1431 3.62149 14.858 3.68155C14.787 3.69656 14.7151 3.71255 14.6451 3.73148C14.5751 3.74954 14.5051 3.76956 14.4361 3.79153C14.298 3.83548 14.162 3.88455 14.0311 3.94156C13.8981 3.99857 13.7681 4.06155 13.6421 4.1315C13.578 4.16653 13.515 4.20352 13.453 4.24149C13.3911 4.27957 13.33 4.31949 13.2701 4.36148C13.0321 4.52652 12.8121 4.71451 12.6111 4.92349C12.5101 5.0275 12.4151 5.13748 12.3251 5.25357C12.2791 5.31058 12.2361 5.36954 12.1931 5.42947C12.151 5.48856 12.1111 5.54849 12.0721 5.6105C11.9151 5.8555 11.7841 6.11453 11.677 6.38651C11.651 6.4545 11.625 6.52347 11.6021 6.59354C11.578 6.66348 11.556 6.73355 11.5361 6.8035C11.4951 6.94449 11.4621 7.08646 11.4351 7.2305C11.382 7.51651 11.3551 7.80655 11.3551 8.10257C11.3528 17.5192 11.3519 26.9372 11.3499 36.3542C11.35 36.6476 11.371 36.9375 11.414 37.2235C11.436 37.3666 11.462 37.5086 11.4949 37.6505C11.511 37.7216 11.5289 37.7915 11.548 37.8616C11.567 37.9325 11.588 38.0026 11.61 38.0725C11.699 38.3506 11.809 38.6195 11.9429 38.8766C11.977 38.9416 12.0119 39.0055 12.048 39.0686C12.084 39.1316 12.1219 39.1936 12.162 39.2545C12.241 39.3756 12.324 39.4936 12.4129 39.6056C12.502 39.7185 12.597 39.8275 12.6969 39.9315C12.7469 39.9826 12.798 40.0336 12.852 40.0835C12.905 40.1326 12.959 40.1815 13.0139 40.2276C13.2359 40.4126 13.4729 40.5725 13.727 40.7066C13.7899 40.7395 13.8549 40.7716 13.92 40.8015C13.9859 40.8316 14.0529 40.8595 14.1199 40.8866C14.254 40.9386 14.3909 40.9836 14.5289 41.0216C14.8049 41.0966 15.087 41.1426 15.377 41.1576C23.2194 41.5847 31.1934 41.5847 39.0353 41.1577C39.3265 41.1418 39.6095 41.0959 39.8855 41.0218C40.0235 40.9838 40.1595 40.9388 40.2935 40.8867C40.3605 40.8598 40.4276 40.8318 40.4935 40.8018C40.5595 40.7708 40.6245 40.7388 40.6875 40.7049C40.9435 40.5708 41.1805 40.4108 41.3995 40.2259C41.5105 40.1338 41.6155 40.0348 41.7175 39.9308C41.7665 39.8788 41.8165 39.8249 41.8635 39.7698C41.9115 39.7159 41.9576 39.6598 42.0025 39.6038C42.1805 39.3778 42.3355 39.1367 42.4685 38.8819C42.5345 38.7538 42.5965 38.6228 42.6516 38.4878C42.6795 38.4208 42.7065 38.3528 42.7305 38.2838C42.7565 38.2159 42.7795 38.1468 42.8026 38.0768C42.8895 37.7998 42.9545 37.5168 42.9985 37.2298C43.0096 37.1577 43.0175 37.0847 43.0266 37.0128C43.0345 36.9398 43.0415 36.8669 43.0465 36.7939C43.0575 36.6479 43.0625 36.5008 43.0625 36.3548C43.0609 26.9375 43.0598 17.5196 43.059 8.10208C43.058 7.80716 43.032 7.51419 42.977 7.22415C42.95 7.07913 42.9149 6.93619 42.8749 6.79617C42.834 6.65616 42.7879 6.5181 42.735 6.38309C42.6809 6.2471 42.6219 6.11417 42.5549 5.98416C42.5219 5.9191 42.4879 5.85416 42.451 5.79019C42.4139 5.72708 42.3759 5.66409 42.3369 5.60208C42.1799 5.35709 41.9999 5.12918 41.799 4.9202C41.7489 4.86819 41.6979 4.81717 41.645 4.76712C41.5909 4.71719 41.5379 4.66812 41.481 4.62112C41.3699 4.52615 41.2539 4.43814 41.136 4.35611C40.8979 4.19315 40.6459 4.05411 40.3789 3.94009C40.313 3.91214 40.2449 3.88516 40.1759 3.85916C40.1079 3.83414 40.0389 3.81009 39.9699 3.78909C39.8309 3.74612 39.692 3.70914 39.5509 3.68008C39.269 3.6221 38.9829 3.59012 38.6898 3.58646Z" stroke="#FF00FF" stroke-width="0.283465" stroke-miterlimit="10" stroke-linecap="round" stroke-linejoin="round"/>
<path fill-rule="evenodd" clip-rule="evenodd" d="M27.6699 27.72V31.57C27.6699 31.9373 27.3722 32.235 27.0049 32.235C26.6377 32.235 26.3399 31.9373 26.3399 31.57V27.72C26.3399 27.3527 26.6377 27.055 27.0049 27.055C27.3722 27.055 27.6699 27.3527 27.6699 27.72ZM24.9199 27.72C24.9199 26.5685 25.8534 25.635 27.0049 25.635C28.1565 25.635 29.0899 26.5685 29.0899 27.72V31.57C29.0899 32.7215 28.1565 33.655 27.0049 33.655C25.8534 33.655 24.9199 32.7215 24.9199 31.57V27.72ZM29.9399 30.475C29.9399 30.115 30.2199 29.835 30.5799 29.835C30.9299 29.835 31.2099 30.115 31.2099 30.475V31.685C31.1805 33.7931 29.8147 35.3821 27.763 35.6883C27.6931 35.6987 27.6399 35.7582 27.6399 35.8289V36.455C27.6399 36.5323 27.7026 36.595 27.7799 36.595H29.4999C29.8499 36.595 30.1399 36.885 30.1399 37.235C30.1399 37.585 29.8599 37.865 29.4999 37.865H24.5099C24.1599 37.865 23.8699 37.585 23.8699 37.235C23.8699 36.885 24.1599 36.595 24.5099 36.595H26.2299C26.3073 36.595 26.3699 36.5323 26.3699 36.455V35.8291C26.3699 35.7583 26.3166 35.6988 26.2466 35.6885C24.1654 35.3817 22.7899 33.7627 22.7899 31.605V30.475C22.7899 30.115 23.0699 29.835 23.4299 29.835C23.7899 29.835 24.0699 30.115 24.0699 30.475V31.575C24.0699 33.365 25.2299 34.525 27.0099 34.525C28.7899 34.525 29.9399 33.365 29.9399 31.575V30.475Z" fill="black"/>
<path d="M22.25 15.8331C21.8594 15.8331 21.6201 15.5938 21.6201 15.1788V9.3584C21.6201 8.9482 21.8594 8.7041 22.25 8.7041H25.6192C25.9659 8.7041 26.1954 8.9092 26.1954 9.2363C26.1954 9.5634 25.961 9.7685 25.6192 9.7685H23.0216C22.9433 9.7685 22.8799 9.832 22.8799 9.9102V11.7068C22.8799 11.7851 22.9434 11.8485 23.0216 11.8485H25.3652C25.6972 11.8485 25.917 12.0438 25.917 12.3612C25.917 12.6786 25.6973 12.8739 25.3652 12.8739H23.0216C22.9433 12.8739 22.8799 12.9374 22.8799 13.0156V15.1786C22.8799 15.5936 22.6455 15.8329 22.25 15.8329V15.8331Z" fill="black"/>
<path d="M27.3662 14.6072C27.2978 14.4558 27.2539 14.3093 27.2539 14.1286C27.2539 13.8014 27.4639 13.5963 27.796 13.5963C28.0597 13.5963 28.2209 13.6989 28.3527 13.9577C28.5851 14.5127 29.0341 14.8465 29.6816 14.8652C30.4906 14.8886 31.1636 14.2536 31.1656 13.4443C31.1677 12.6314 30.5761 12.0531 29.7445 12.0531C29.3001 12.0531 28.9143 12.2338 28.6457 12.4975C28.3527 12.7905 28.2306 12.854 27.9425 12.854C27.5372 12.854 27.3369 12.5659 27.3467 12.224C27.3467 12.1947 27.3467 12.1752 27.3516 12.1459L27.5762 9.48428C27.6202 8.92748 27.9034 8.70288 28.4553 8.70288H31.4929C31.8152 8.70288 32.0252 8.90798 32.0252 9.21568C32.0252 9.52338 31.8152 9.73338 31.4929 9.73338H28.7754C28.702 9.73338 28.6407 9.78948 28.6342 9.86258L28.5132 11.2226C28.5038 11.3284 28.6098 11.4068 28.708 11.3664C28.9688 11.2591 29.4504 11.1058 30.0718 11.1058C31.4197 11.1058 32.3817 12.0581 32.3817 13.406C32.3817 14.8808 31.2975 15.8917 29.7348 15.8917C28.6506 15.8917 27.713 15.374 27.3663 14.6073L27.3662 14.6072Z" fill="black"/>
</svg>
