<svg width="54" height="54" viewBox="0 0 54 54" fill="none" xmlns="http://www.w3.org/2000/svg">
<rect x="1.85" y="1.8501" width="50.3" height="50.3" rx="3" stroke="#8B1EFF" stroke-width="0.28"/>
<path d="M10.2065 37.1479V7.2959C10.2125 6.94397 10.252 6.59094 10.325 6.24585C10.397 5.90088 10.503 5.56384 10.6411 5.23901C10.9141 4.59497 11.3131 4.00098 11.8071 3.50171C12.2961 3.00769 12.8791 2.60559 13.5145 2.32971C13.8315 2.19177 14.1605 2.08582 14.4979 2.01257C14.8349 1.93958 15.1779 1.90051 15.5214 1.89661C19.4174 1.8656 23.3134 1.85059 27.2079 1.85059C31.1049 1.85059 34.9999 1.8656 38.8963 1.89673C39.2393 1.90076 39.5833 1.9397 39.9208 2.01318C40.2568 2.08618 40.5868 2.19312 40.903 2.33008C41.221 2.46802 41.525 2.63708 41.8108 2.8335C42.0978 3.03052 42.3658 3.25452 42.6108 3.50159C42.8578 3.75061 43.0808 4.02161 43.2748 4.31238C43.4708 4.60437 43.6398 4.91431 43.7772 5.23816C43.9142 5.56311 44.0212 5.90112 44.0934 6.24597C44.1664 6.59094 44.2054 6.94397 44.2104 7.29602C44.2104 7.29602 44.2104 37.1479 44.2101 37.1484C44.1891 37.8424 44.0511 38.5385 43.8027 39.1934C43.5557 39.8484 43.1977 40.4624 42.7389 40.9862C42.5089 41.2483 42.2549 41.4873 41.9799 41.7C41.7069 41.912 41.4139 42.0969 41.1049 42.2539C40.7979 42.4099 40.4769 42.5369 40.1451 42.6315C39.8161 42.7264 39.4771 42.7896 39.1357 42.8154C31.1907 43.2485 23.2267 43.2485 15.2819 42.8154C14.6009 42.7625 13.9259 42.5664 13.3131 42.2549C12.6931 41.9398 12.1351 41.5068 11.6787 40.9869C11.2197 40.4619 10.8627 39.8479 10.6155 39.193C10.3675 38.538 10.2285 37.843 10.2065 37.1479Z" stroke="#8B1EFF" stroke-width="0.283" stroke-miterlimit="10"/>
<rect x="12.8886" y="5.47168" width="28.63" height="34.35" rx="1.46" stroke="#00FFFF" stroke-width="0.28"/>
<path d="M38.6898 3.58646C31.0758 3.48746 23.3388 3.48746 15.7238 3.58646C15.4321 3.59048 15.1431 3.62149 14.858 3.68155C14.787 3.69656 14.7151 3.71255 14.6451 3.73148C14.5751 3.74954 14.5051 3.76956 14.4361 3.79153C14.298 3.83548 14.162 3.88455 14.0311 3.94156C13.8981 3.99857 13.7681 4.06155 13.6421 4.1315C13.578 4.16653 13.515 4.20352 13.453 4.24149C13.3911 4.27957 13.33 4.31949 13.2701 4.36148C13.0321 4.52652 12.8121 4.71451 12.6111 4.92349C12.5101 5.0275 12.4151 5.13748 12.3251 5.25357C12.2791 5.31058 12.2361 5.36954 12.1931 5.42947C12.151 5.48856 12.1111 5.54849 12.0721 5.6105C11.9151 5.8555 11.7841 6.11453 11.677 6.38651C11.651 6.4545 11.625 6.52347 11.6021 6.59354C11.578 6.66348 11.556 6.73355 11.5361 6.8035C11.4951 6.94449 11.4621 7.08646 11.4351 7.2305C11.382 7.51651 11.3551 7.80655 11.3551 8.10257C11.3528 17.5192 11.3519 26.9372 11.3499 36.3542C11.35 36.6476 11.371 36.9375 11.414 37.2235C11.436 37.3666 11.462 37.5086 11.4949 37.6505C11.511 37.7216 11.5289 37.7915 11.548 37.8616C11.567 37.9325 11.588 38.0026 11.61 38.0725C11.699 38.3506 11.809 38.6195 11.9429 38.8766C11.977 38.9416 12.0119 39.0055 12.048 39.0686C12.084 39.1316 12.1219 39.1936 12.162 39.2545C12.241 39.3756 12.324 39.4936 12.4129 39.6056C12.502 39.7185 12.597 39.8275 12.6969 39.9315C12.7469 39.9826 12.798 40.0336 12.852 40.0835C12.905 40.1326 12.959 40.1815 13.0139 40.2276C13.2359 40.4126 13.4729 40.5725 13.727 40.7066C13.7899 40.7395 13.8549 40.7716 13.92 40.8015C13.9859 40.8316 14.0529 40.8595 14.1199 40.8866C14.254 40.9386 14.3909 40.9836 14.5289 41.0216C14.8049 41.0966 15.087 41.1426 15.377 41.1576C23.2194 41.5847 31.1934 41.5847 39.0353 41.1577C39.3265 41.1418 39.6095 41.0959 39.8855 41.0218C40.0235 40.9838 40.1595 40.9388 40.2935 40.8867C40.3605 40.8598 40.4276 40.8318 40.4935 40.8018C40.5595 40.7708 40.6245 40.7388 40.6875 40.7049C40.9435 40.5708 41.1805 40.4108 41.3995 40.2259C41.5105 40.1338 41.6155 40.0348 41.7175 39.9308C41.7665 39.8788 41.8165 39.8249 41.8635 39.7698C41.9115 39.7159 41.9576 39.6598 42.0025 39.6038C42.1805 39.3778 42.3355 39.1367 42.4685 38.8819C42.5345 38.7538 42.5965 38.6228 42.6516 38.4878C42.6795 38.4208 42.7065 38.3528 42.7305 38.2838C42.7565 38.2159 42.7795 38.1468 42.8026 38.0768C42.8895 37.7998 42.9545 37.5168 42.9985 37.2298C43.0096 37.1577 43.0175 37.0847 43.0266 37.0128C43.0345 36.9398 43.0415 36.8669 43.0465 36.7939C43.0575 36.6479 43.0625 36.5008 43.0625 36.3548C43.0609 26.9375 43.0598 17.5196 43.059 8.10208C43.058 7.80716 43.032 7.51419 42.977 7.22415C42.95 7.07913 42.9149 6.93619 42.8749 6.79617C42.834 6.65616 42.7879 6.5181 42.735 6.38309C42.6809 6.2471 42.6219 6.11417 42.5549 5.98416C42.5219 5.9191 42.4879 5.85416 42.451 5.79019C42.4139 5.72708 42.3759 5.66409 42.3369 5.60208C42.1799 5.35709 41.9999 5.12918 41.799 4.9202C41.7489 4.86819 41.6979 4.81717 41.645 4.76712C41.5909 4.71719 41.5379 4.66812 41.481 4.62112C41.3699 4.52615 41.2539 4.43814 41.136 4.35611C40.8979 4.19315 40.6459 4.05411 40.3789 3.94009C40.313 3.91214 40.2449 3.88516 40.1759 3.85916C40.1079 3.83414 40.0389 3.81009 39.9699 3.78909C39.8309 3.74612 39.692 3.70914 39.5509 3.68008C39.269 3.6221 38.9829 3.59012 38.6898 3.58646Z" stroke="#FF00FF" stroke-width="0.283465" stroke-miterlimit="10" stroke-linecap="round" stroke-linejoin="round"/>
<path fill-rule="evenodd" clip-rule="evenodd" d="M36.9282 12.8218C35.6865 11.5801 34.1266 11.1419 32.6126 10.947C31.1408 10.7575 29.255 10.75 27 10.75C24.745 10.75 22.8592 10.7575 21.3874 10.947C19.8734 11.1419 18.3135 11.5801 17.0718 12.8218C15.8301 14.0635 15.3919 15.6234 15.197 17.1374C15.0075 18.6092 15 20.495 15 22.75C15 25.005 15.0075 26.8908 15.197 28.3626C15.3919 29.8766 15.8301 31.4365 17.0718 32.6782C18.3135 33.9199 19.8734 34.3581 21.3874 34.553C22.8592 34.7425 24.745 34.75 27 34.75C29.255 34.75 31.1408 34.7425 32.6126 34.553C34.1266 34.3581 35.6865 33.9199 36.9282 32.6782C38.1699 31.4365 38.6081 29.8766 38.803 28.3626C38.9925 26.8908 39 25.005 39 22.75C39 20.495 38.9925 18.6092 38.803 17.1374C38.6081 15.6234 38.1699 14.0635 36.9282 12.8218ZM32.4312 12.3554C33.8147 12.5335 35.0058 12.9077 35.924 13.8259C36.8423 14.7442 37.2164 15.9352 37.3945 17.3187C37.5699 18.681 37.5799 20.4653 37.5799 22.75C37.5799 25.0347 37.5699 26.819 37.3945 28.1813C37.2164 29.5648 36.8423 30.7559 35.924 31.6741C35.0058 32.5923 33.8147 32.9665 32.4312 33.1446C31.069 33.32 29.2846 33.33 26.9999 33.33C24.7152 33.33 22.9309 33.32 21.5686 33.1446C20.1851 32.9665 18.9941 32.5923 18.0758 31.6741C17.1576 30.7559 16.7834 29.5648 16.6053 28.1813C16.4299 26.819 16.4199 25.0347 16.4199 22.75C16.4199 20.4653 16.4299 18.681 16.6053 17.3187C16.7834 15.9352 17.1576 14.7442 18.0758 13.8259C18.9941 12.9077 20.1851 12.5335 21.5686 12.3554C22.9309 12.18 24.7152 12.17 26.9999 12.17C29.2846 12.17 31.069 12.18 32.4312 12.3554ZM34.9199 14.83C33.7299 13.64 31.6299 13.59 26.9999 13.59C22.3699 13.59 20.2699 13.64 19.0799 14.83C17.8899 16.02 17.8399 18.12 17.8399 22.75C17.8399 27.38 17.8899 29.48 19.0799 30.67C20.2699 31.86 22.3699 31.91 26.9999 31.91C31.6299 31.91 33.7299 31.86 34.9199 30.67C36.1099 29.48 36.1599 27.38 36.1599 22.75C36.1599 18.12 36.1099 16.02 34.9199 14.83ZM31.2554 28.6442H22.7443C21.726 28.6442 20.9005 27.8187 20.9005 26.8004V24.5645C20.9005 24.3741 20.9335 24.1862 20.9987 24.0059C21.132 23.6371 21.539 23.4463 21.9078 23.5796C22.2766 23.7129 22.4674 24.1199 22.3341 24.4887C22.3251 24.5137 22.3205 24.5392 22.3205 24.5645V26.8004C22.3205 27.0345 22.5103 27.2243 22.7444 27.2243H31.2556C31.4897 27.2243 31.6795 27.0345 31.6795 26.8004V24.7485C31.6795 24.5144 31.4897 24.3246 31.2556 24.3246H29.6475C29.5575 24.3246 29.4681 24.3541 29.3957 24.4075L27.6741 25.6793C27.4777 25.8244 27.2448 25.9012 27.0007 25.9014H26.9996C26.7575 25.9014 26.5218 25.824 26.3268 25.6805L21.6414 22.2327C21.1711 21.8866 20.8904 21.3315 20.8904 20.7476V18.7183C20.8904 18.0137 21.2835 17.3633 21.9147 17.0502C22.5497 16.7352 23.2941 16.8076 23.8564 17.2388L26.7412 19.4516C26.8939 19.5687 27.1061 19.5687 27.2588 19.4516L30.1435 17.2388C30.7046 16.8084 31.4472 16.7354 32.0814 17.0482C32.7156 17.361 33.1095 17.9946 33.1095 18.7018V20.7748C33.1095 21.1826 32.9699 21.581 32.7166 21.8966C32.4711 22.2023 32.0243 22.2512 31.7185 22.0057C31.4127 21.7602 31.3639 21.3134 31.6094 21.0076C31.6604 20.9441 31.6896 20.8592 31.6896 20.7747V18.7017C31.6896 18.4638 31.5243 18.3566 31.4533 18.3216C31.3822 18.2865 31.1966 18.2206 31.0078 18.3654L27.691 20.9096C27.4876 21.0656 27.2438 21.1436 27.0001 21.1436C26.7563 21.1436 26.5126 21.0656 26.3092 20.9096L22.9922 18.3654C22.8035 18.2207 22.6178 18.2866 22.5467 18.3216C22.4756 18.3567 22.3103 18.4639 22.3103 18.7017V20.7475C22.3103 20.8817 22.3748 21.0094 22.4829 21.0889L26.7465 24.2265C26.8966 24.337 27.1012 24.3368 27.2512 24.226L28.5518 23.2652C28.8667 23.0326 29.2558 22.9045 29.6473 22.9045H31.2554C32.2737 22.9045 33.0992 23.73 33.0992 24.7483V26.8002C33.0992 27.8184 32.2737 28.6439 31.2555 28.644L31.2554 28.6441L31.2554 28.6442Z" fill="black"/>
</svg>
