<svg width="54" height="54" viewBox="0 0 54 54" fill="none" xmlns="http://www.w3.org/2000/svg">
<rect x="1.85" y="1.84998" width="50.3" height="50.3" rx="3" stroke="#8B1EFF" stroke-width="0.28"/>
<path d="M10.2065 37.1479V7.2959C10.2125 6.94397 10.252 6.59094 10.325 6.24585C10.397 5.90088 10.503 5.56384 10.6411 5.23901C10.9141 4.59497 11.3131 4.00098 11.8071 3.50171C12.2961 3.00769 12.8791 2.60559 13.5145 2.32971C13.8315 2.19177 14.1605 2.08582 14.4979 2.01257C14.8349 1.93958 15.1779 1.90051 15.5214 1.89661C19.4174 1.8656 23.3134 1.85059 27.2079 1.85059C31.1049 1.85059 34.9999 1.8656 38.8963 1.89673C39.2393 1.90076 39.5833 1.9397 39.9208 2.01318C40.2568 2.08618 40.5868 2.19312 40.903 2.33008C41.221 2.46802 41.525 2.63708 41.8108 2.8335C42.0978 3.03052 42.3658 3.25452 42.6108 3.50159C42.8578 3.75061 43.0808 4.02161 43.2748 4.31238C43.4708 4.60437 43.6398 4.91431 43.7772 5.23816C43.9142 5.56311 44.0212 5.90112 44.0934 6.24597C44.1664 6.59094 44.2054 6.94397 44.2104 7.29602C44.2104 7.29602 44.2104 37.1479 44.2101 37.1484C44.1891 37.8424 44.0511 38.5385 43.8027 39.1934C43.5557 39.8484 43.1977 40.4624 42.7389 40.9862C42.5089 41.2483 42.2549 41.4873 41.9799 41.7C41.7069 41.912 41.4139 42.0969 41.1049 42.2539C40.7979 42.4099 40.4769 42.5369 40.1451 42.6315C39.8161 42.7264 39.4771 42.7896 39.1357 42.8154C31.1907 43.2485 23.2267 43.2485 15.2819 42.8154C14.6009 42.7625 13.9259 42.5664 13.3131 42.2549C12.6931 41.9398 12.1351 41.5068 11.6787 40.9869C11.2197 40.4619 10.8627 39.8479 10.6155 39.193C10.3675 38.538 10.2285 37.843 10.2065 37.1479Z" stroke="#8B1EFF" stroke-width="0.283" stroke-miterlimit="10"/>
<rect x="12.8886" y="5.47168" width="28.63" height="34.35" rx="1.46" stroke="#00FFFF" stroke-width="0.28"/>
<path d="M38.6898 3.5864C31.0758 3.4874 23.3388 3.4874 15.7238 3.5864C15.4321 3.59042 15.1431 3.62143 14.858 3.68149C14.787 3.6965 14.7151 3.71249 14.6451 3.73141C14.5751 3.74948 14.5051 3.7695 14.4361 3.79147C14.298 3.83542 14.162 3.88449 14.0311 3.9415C13.8981 3.9985 13.7681 4.06149 13.6421 4.13144C13.578 4.16647 13.515 4.20346 13.453 4.24142C13.3911 4.27951 13.33 4.31943 13.2701 4.36142C13.0321 4.52646 12.8121 4.71445 12.6111 4.92343C12.5101 5.02744 12.4151 5.13742 12.3251 5.25351C12.2791 5.31052 12.2361 5.36948 12.1931 5.42941C12.151 5.48849 12.1111 5.54843 12.0721 5.61044C11.9151 5.85544 11.7841 6.11447 11.677 6.38644C11.651 6.45444 11.625 6.52341 11.6021 6.59348C11.578 6.66342 11.556 6.73349 11.5361 6.80344C11.4951 6.94443 11.4621 7.0864 11.4351 7.23044C11.382 7.51645 11.3551 7.80649 11.3551 8.10251C11.3528 17.5191 11.3519 26.9371 11.3499 36.3541C11.35 36.6476 11.371 36.9375 11.414 37.2235C11.436 37.3665 11.462 37.5085 11.4949 37.6505C11.511 37.7215 11.5289 37.7915 11.548 37.8615C11.567 37.9325 11.588 38.0025 11.61 38.0725C11.699 38.3506 11.809 38.6195 11.9429 38.8766C11.977 38.9415 12.0119 39.0055 12.048 39.0686C12.084 39.1316 12.1219 39.1936 12.162 39.2545C12.241 39.3756 12.324 39.4935 12.4129 39.6056C12.502 39.7185 12.597 39.8275 12.6969 39.9315C12.7469 39.9825 12.798 40.0335 12.852 40.0835C12.905 40.1325 12.959 40.1815 13.0139 40.2275C13.2359 40.4126 13.4729 40.5725 13.727 40.7065C13.7899 40.7395 13.8549 40.7716 13.92 40.8015C13.9859 40.8315 14.0529 40.8595 14.1199 40.8866C14.254 40.9386 14.3909 40.9835 14.5289 41.0216C14.8049 41.0965 15.087 41.1425 15.377 41.1576C23.2194 41.5847 31.1934 41.5847 39.0353 41.1577C39.3265 41.1417 39.6095 41.0958 39.8855 41.0217C40.0235 40.9837 40.1595 40.9387 40.2935 40.8867C40.3605 40.8597 40.4276 40.8318 40.4935 40.8017C40.5595 40.7707 40.6245 40.7387 40.6875 40.7048C40.9435 40.5708 41.1805 40.4107 41.3995 40.2258C41.5105 40.1338 41.6155 40.0348 41.7175 39.9308C41.7665 39.8788 41.8165 39.8248 41.8635 39.7697C41.9115 39.7158 41.9576 39.6598 42.0025 39.6037C42.1805 39.3778 42.3355 39.1367 42.4685 38.8818C42.5345 38.7538 42.5965 38.6228 42.6516 38.4878C42.6795 38.4207 42.7065 38.3528 42.7305 38.2838C42.7565 38.2158 42.7795 38.1467 42.8026 38.0768C42.8895 37.7998 42.9545 37.5167 42.9985 37.2297C43.0096 37.1577 43.0175 37.0847 43.0266 37.0128C43.0345 36.9398 43.0415 36.8668 43.0465 36.7938C43.0575 36.6478 43.0625 36.5007 43.0625 36.3547C43.0609 26.9375 43.0598 17.5195 43.059 8.10202C43.058 7.8071 43.032 7.51413 42.977 7.22409C42.95 7.07907 42.9149 6.93613 42.8749 6.79611C42.834 6.6561 42.7879 6.51804 42.735 6.38303C42.6809 6.24704 42.6219 6.11411 42.5549 5.9841C42.5219 5.91904 42.4879 5.8541 42.451 5.79013C42.4139 5.72702 42.3759 5.66403 42.3369 5.60202C42.1799 5.35703 41.9999 5.12912 41.799 4.92014C41.7489 4.86813 41.6979 4.81711 41.645 4.76706C41.5909 4.71713 41.5379 4.66806 41.481 4.62106C41.3699 4.52609 41.2539 4.43808 41.136 4.35605C40.8979 4.19308 40.6459 4.05405 40.3789 3.94003C40.313 3.91208 40.2449 3.8851 40.1759 3.8591C40.1079 3.83408 40.0389 3.81003 39.9699 3.78903C39.8309 3.74606 39.692 3.70908 39.5509 3.68002C39.269 3.62204 38.9829 3.59006 38.6898 3.5864Z" stroke="#FF00FF" stroke-width="0.283465" stroke-miterlimit="10" stroke-linecap="round" stroke-linejoin="round"/>
<path fill-rule="evenodd" clip-rule="evenodd" d="M23.7047 16.09C23.3391 16.09 23.0428 16.3863 23.0428 16.7519V21.1906C23.0428 21.2679 23.1054 21.3306 23.1828 21.3306H30.8173C30.8946 21.3306 30.9573 21.2679 30.9573 21.1906V19.6888C30.9573 19.6115 30.8946 19.5488 30.8173 19.5488H28.2223C27.8301 19.5488 27.5123 19.2309 27.5123 18.8388V16.23C27.5123 16.1527 27.4496 16.09 27.3723 16.09H23.7047ZM32.5173 21.3306C32.4399 21.3306 32.3773 21.2679 32.3773 21.1906V18.2712C32.3773 17.7222 32.1604 17.1955 31.7741 16.8057L30.2685 15.2864C29.8774 14.8919 29.3451 14.67 28.7897 14.67H23.7047C22.5548 14.67 21.6228 15.6021 21.6228 16.7519V21.1906C21.6228 21.2679 21.5601 21.3306 21.4828 21.3306H21.19C20.0136 21.3306 19.06 22.2842 19.06 23.4606V26.7506C19.06 27.927 20.0136 28.8806 21.19 28.8806H21.5285C21.6013 28.8806 21.6615 28.9366 21.672 29.0086C21.8199 30.0265 22.6961 30.8083 23.755 30.8083H30.245C31.3038 30.8083 32.18 30.0265 32.328 29.0086C32.3384 28.9366 32.3986 28.8806 32.4714 28.8806H32.81C33.9863 28.8806 34.94 27.927 34.94 26.7506V23.4606C34.94 22.2842 33.9863 21.3306 32.81 21.3306H32.5173ZM29.0955 16.1649C29.0162 16.1235 28.9323 16.1903 28.9323 16.2798V17.9888C28.9323 18.0661 28.9949 18.1288 29.0723 18.1288H30.7675C30.857 18.1288 30.9237 18.0449 30.8824 17.9655C30.852 17.907 30.8127 17.8529 30.7655 17.8053L29.2599 16.286C29.2112 16.2369 29.1557 16.1962 29.0955 16.1649ZM21.65 26.1933V27.3206C21.65 27.3979 21.5873 27.4606 21.51 27.4606H21.19C20.7978 27.4606 20.48 27.1427 20.48 26.7506V23.4606C20.48 23.0685 20.7978 22.7506 21.19 22.7506H32.81C33.2021 22.7506 33.52 23.0685 33.52 23.4606V26.7506C33.52 27.1427 33.2021 27.4606 32.81 27.4606H32.49C32.4126 27.4606 32.35 27.3979 32.35 27.3206V26.1933C32.35 25.594 31.8642 25.1083 31.265 25.1083H22.735C22.1357 25.1083 21.65 25.594 21.65 26.1933ZM23.16 26.4783C23.0826 26.4783 23.02 26.5409 23.02 26.6183V28.7033C23.02 29.1092 23.349 29.4383 23.755 29.4383H30.245C30.6509 29.4383 30.98 29.1092 30.98 28.7033V26.6183C30.98 26.5409 30.9173 26.4783 30.84 26.4783H23.16Z" fill="black"/>
</svg>
