<svg width="54" height="54" viewBox="0 0 54 54" fill="none" xmlns="http://www.w3.org/2000/svg">
<rect x="1.85" y="1.84998" width="50.3" height="50.3" rx="3" stroke="#8B1EFF" stroke-width="0.28"/>
<path d="M10.2065 37.1479V7.2959C10.2125 6.94397 10.252 6.59094 10.325 6.24585C10.397 5.90088 10.503 5.56384 10.6411 5.23901C10.9141 4.59497 11.3131 4.00098 11.8071 3.50171C12.2961 3.00769 12.8791 2.60559 13.5145 2.32971C13.8315 2.19177 14.1605 2.08582 14.4979 2.01257C14.8349 1.93958 15.1779 1.90051 15.5214 1.89661C19.4174 1.8656 23.3134 1.85059 27.2079 1.85059C31.1049 1.85059 34.9999 1.8656 38.8963 1.89673C39.2393 1.90076 39.5833 1.9397 39.9208 2.01318C40.2568 2.08618 40.5868 2.19312 40.903 2.33008C41.221 2.46802 41.525 2.63708 41.8108 2.8335C42.0978 3.03052 42.3658 3.25452 42.6108 3.50159C42.8578 3.75061 43.0808 4.02161 43.2748 4.31238C43.4708 4.60437 43.6398 4.91431 43.7772 5.23816C43.9142 5.56311 44.0212 5.90112 44.0934 6.24597C44.1664 6.59094 44.2054 6.94397 44.2104 7.29602C44.2104 7.29602 44.2104 37.1479 44.2101 37.1484C44.1891 37.8424 44.0511 38.5385 43.8027 39.1934C43.5557 39.8484 43.1977 40.4624 42.7389 40.9862C42.5089 41.2483 42.2549 41.4873 41.9799 41.7C41.7069 41.912 41.4139 42.0969 41.1049 42.2539C40.7979 42.4099 40.4769 42.5369 40.1451 42.6315C39.8161 42.7264 39.4771 42.7896 39.1357 42.8154C31.1907 43.2485 23.2267 43.2485 15.2819 42.8154C14.6009 42.7625 13.9259 42.5664 13.3131 42.2549C12.6931 41.9398 12.1351 41.5068 11.6787 40.9869C11.2197 40.4619 10.8627 39.8479 10.6155 39.193C10.3675 38.538 10.2285 37.843 10.2065 37.1479Z" stroke="#8B1EFF" stroke-width="0.283" stroke-miterlimit="10"/>
<rect x="12.8886" y="5.47168" width="28.63" height="34.35" rx="1.46" stroke="#00FFFF" stroke-width="0.28"/>
<path d="M38.6898 3.58646C31.0758 3.48746 23.3388 3.48746 15.7238 3.58646C15.4321 3.59048 15.1431 3.62149 14.858 3.68155C14.787 3.69656 14.7151 3.71255 14.6451 3.73148C14.5751 3.74954 14.5051 3.76956 14.4361 3.79153C14.298 3.83548 14.162 3.88455 14.0311 3.94156C13.8981 3.99857 13.7681 4.06155 13.6421 4.1315C13.578 4.16653 13.515 4.20352 13.453 4.24149C13.3911 4.27957 13.33 4.31949 13.2701 4.36148C13.0321 4.52652 12.8121 4.71451 12.6111 4.92349C12.5101 5.0275 12.4151 5.13748 12.3251 5.25357C12.2791 5.31058 12.2361 5.36954 12.1931 5.42947C12.151 5.48856 12.1111 5.54849 12.0721 5.6105C11.9151 5.8555 11.7841 6.11453 11.677 6.38651C11.651 6.4545 11.625 6.52347 11.6021 6.59354C11.578 6.66348 11.556 6.73355 11.5361 6.8035C11.4951 6.94449 11.4621 7.08646 11.4351 7.2305C11.382 7.51651 11.3551 7.80655 11.3551 8.10257C11.3528 17.5192 11.3519 26.9372 11.3499 36.3542C11.35 36.6476 11.371 36.9375 11.414 37.2235C11.436 37.3666 11.462 37.5086 11.4949 37.6505C11.511 37.7216 11.5289 37.7915 11.548 37.8616C11.567 37.9325 11.588 38.0026 11.61 38.0725C11.699 38.3506 11.809 38.6195 11.9429 38.8766C11.977 38.9416 12.0119 39.0055 12.048 39.0686C12.084 39.1316 12.1219 39.1936 12.162 39.2545C12.241 39.3756 12.324 39.4936 12.4129 39.6056C12.502 39.7185 12.597 39.8275 12.6969 39.9315C12.7469 39.9826 12.798 40.0336 12.852 40.0835C12.905 40.1326 12.959 40.1815 13.0139 40.2276C13.2359 40.4126 13.4729 40.5725 13.727 40.7066C13.7899 40.7395 13.8549 40.7716 13.92 40.8015C13.9859 40.8316 14.0529 40.8595 14.1199 40.8866C14.254 40.9386 14.3909 40.9836 14.5289 41.0216C14.8049 41.0966 15.087 41.1426 15.377 41.1576C23.2194 41.5847 31.1934 41.5847 39.0353 41.1577C39.3265 41.1418 39.6095 41.0959 39.8855 41.0218C40.0235 40.9838 40.1595 40.9388 40.2935 40.8867C40.3605 40.8598 40.4276 40.8318 40.4935 40.8018C40.5595 40.7708 40.6245 40.7388 40.6875 40.7049C40.9435 40.5708 41.1805 40.4108 41.3995 40.2259C41.5105 40.1338 41.6155 40.0348 41.7175 39.9308C41.7665 39.8788 41.8165 39.8249 41.8635 39.7698C41.9115 39.7159 41.9576 39.6598 42.0025 39.6038C42.1805 39.3778 42.3355 39.1367 42.4685 38.8819C42.5345 38.7538 42.5965 38.6228 42.6516 38.4878C42.6795 38.4208 42.7065 38.3528 42.7305 38.2838C42.7565 38.2159 42.7795 38.1468 42.8026 38.0768C42.8895 37.7998 42.9545 37.5168 42.9985 37.2298C43.0096 37.1577 43.0175 37.0847 43.0266 37.0128C43.0345 36.9398 43.0415 36.8669 43.0465 36.7939C43.0575 36.6479 43.0625 36.5008 43.0625 36.3548C43.0609 26.9375 43.0598 17.5196 43.059 8.10208C43.058 7.80716 43.032 7.51419 42.977 7.22415C42.95 7.07913 42.9149 6.93619 42.8749 6.79617C42.834 6.65616 42.7879 6.5181 42.735 6.38309C42.6809 6.2471 42.6219 6.11417 42.5549 5.98416C42.5219 5.9191 42.4879 5.85416 42.451 5.79019C42.4139 5.72708 42.3759 5.66409 42.3369 5.60208C42.1799 5.35709 41.9999 5.12918 41.799 4.9202C41.7489 4.86819 41.6979 4.81717 41.645 4.76712C41.5909 4.71719 41.5379 4.66812 41.481 4.62112C41.3699 4.52615 41.2539 4.43814 41.136 4.35611C40.8979 4.19315 40.6459 4.05411 40.3789 3.94009C40.313 3.91214 40.2449 3.88516 40.1759 3.85916C40.1079 3.83414 40.0389 3.81009 39.9699 3.78909C39.8309 3.74612 39.692 3.70914 39.5509 3.68008C39.269 3.6221 38.9829 3.59012 38.6898 3.58646Z" stroke="#FF00FF" stroke-width="0.283465" stroke-miterlimit="10" stroke-linecap="round" stroke-linejoin="round"/>
<path d="M16.4974 18.7041H14.3881C13.9975 18.7041 13.7582 18.9482 13.7582 19.3584V25.1786C13.7582 25.5936 13.9975 25.8329 14.3881 25.8329C14.7787 25.8329 15.018 25.5936 15.018 25.1786V23.5626C15.018 23.4843 15.0815 23.4209 15.1597 23.4209H16.4437C17.8695 23.4209 18.8704 22.4688 18.8704 21.0625C18.8704 19.6562 17.8987 18.7041 16.4974 18.7041ZM16.1605 22.4052H15.1597C15.0814 22.4052 15.018 22.3417 15.018 22.2635V19.8761C15.018 19.7978 15.0815 19.7344 15.1597 19.7344H16.1654C17.0687 19.7344 17.5912 20.2178 17.5912 21.0625C17.5912 21.9072 17.0639 22.4052 16.1606 22.4052H16.1605Z" fill="black"/>
<path d="M22.7149 23.8311C22.7149 24.456 22.1584 24.915 21.4748 24.915C20.9476 24.915 20.5911 24.6465 20.5911 24.2218C20.5911 23.7971 20.928 23.5481 21.5138 23.509L22.6622 23.439C22.6907 23.4373 22.7148 23.4599 22.7148 23.4885V23.8313L22.7149 23.8311ZM21.797 20.4672C20.8059 20.4672 20.2343 20.8075 19.942 21.1349C19.7727 21.3246 19.751 21.724 19.9832 21.9097C20.2546 22.1267 20.7092 21.9643 20.8654 21.7723C21.0056 21.5999 21.3204 21.4248 21.748 21.4192C22.3484 21.4113 22.7147 21.7317 22.7147 22.2736V22.4762C22.7147 22.5025 22.6942 22.5242 22.6679 22.5257L21.3427 22.6012C20.0833 22.6793 19.3754 23.3526 19.3754 24.2704C19.3754 25.1882 20.1053 25.8327 21.1037 25.8327C21.7355 25.8327 22.3514 25.6677 22.6578 25.5424C22.7221 25.5161 22.7958 25.5409 22.832 25.6002C22.8348 25.6047 22.8372 25.6085 22.8392 25.6114C22.9206 25.7273 23.0671 25.8473 23.3251 25.8473C23.6669 25.8473 23.9158 25.6276 23.9158 25.2371V22.1857C23.9158 21.1458 23.081 20.4672 21.797 20.4672Z" fill="black"/>
<path d="M24.765 23.9184V21.11C24.765 20.7046 25.0141 20.4702 25.3706 20.4702C25.7271 20.4702 25.9811 20.7046 25.9811 21.1149V23.6742C25.9811 24.4166 26.3425 24.8171 27.0263 24.8171C27.7101 24.8171 28.1643 24.3189 28.1643 23.5668V21.11C28.1643 20.7046 28.4183 20.4702 28.7748 20.4702C29.1313 20.4702 29.3804 20.7046 29.3804 21.1149V25.2323C29.3804 25.623 29.146 25.8477 28.7992 25.8477C28.5644 25.8477 28.3797 25.7475 28.2828 25.5646C28.2769 25.5534 28.2713 25.5425 28.266 25.532C28.2316 25.4637 28.1493 25.4349 28.0799 25.4671C27.819 25.5884 27.2002 25.8427 26.6013 25.8427C25.4781 25.8428 24.765 25.115 24.765 23.9184Z" fill="black"/>
<path d="M32.3888 25.8523C31.295 25.8523 30.5284 25.4324 30.2794 24.8123C30.2452 24.7244 30.2306 24.6463 30.2306 24.573C30.2306 24.28 30.4454 24.0945 30.7384 24.0945C30.9386 24.0945 31.1095 24.1873 31.2657 24.3924C31.5391 24.7879 31.8516 24.9453 32.4327 24.9453C33.0138 24.9453 33.3751 24.7244 33.3751 24.3338C33.3751 24.0213 33.1798 23.8504 32.6476 23.7283L31.8077 23.5379C30.7969 23.3084 30.2989 22.8104 30.2989 22.0584C30.2989 21.0965 31.129 20.4666 32.4083 20.4666C33.4044 20.4666 34.1759 20.9549 34.337 21.5506C34.3516 21.6141 34.3614 21.6727 34.3614 21.7313C34.3614 21.9852 34.2003 22.1659 33.8926 22.1659C33.7168 22.1659 33.541 22.1024 33.4287 21.9413C33.1894 21.5849 32.8916 21.3737 32.3789 21.3737C31.8662 21.3737 31.4805 21.619 31.4805 21.9901C31.4805 22.2928 31.7051 22.4979 32.2422 22.62L33.0674 22.8007C34.1612 23.0497 34.5957 23.4452 34.5957 24.2118C34.5957 25.203 33.707 25.8524 32.3886 25.8524H32.3888V25.8523Z" fill="black"/>
<path d="M38.8554 22.548H36.7662C36.6756 22.548 36.6088 22.4642 36.6278 22.3756C36.7644 21.7369 37.236 21.4093 37.8304 21.4093C38.4248 21.4093 38.8789 21.7241 38.9951 22.3824C39.0104 22.4689 38.9433 22.548 38.8554 22.548ZM37.8256 20.4668C36.3314 20.4668 35.3793 21.5312 35.3793 23.1817C35.3793 24.8322 36.3119 25.8526 37.894 25.8526C38.6942 25.8526 39.2802 25.6748 39.7799 25.1198C40.0036 24.8714 39.9437 24.5007 39.6476 24.3422C39.3982 24.2086 39.1145 24.3367 38.9752 24.4661C38.5325 24.8775 38.2077 24.9151 37.8843 24.9151C37.1381 24.9151 36.6481 24.4304 36.5951 23.6069C36.5898 23.5248 36.6542 23.4551 36.7365 23.4551H39.6907C39.9719 23.4551 40.2013 23.2303 40.2077 22.9492C40.2404 21.5063 39.2652 20.4668 37.8256 20.4668Z" fill="black"/>
</svg>
