<svg width="54" height="54" viewBox="0 0 54 54" fill="none" xmlns="http://www.w3.org/2000/svg">
<rect x="1.8501" y="1.84998" width="50.3" height="50.3" rx="3" stroke="#8B1EFF" stroke-width="0.28"/>
<path d="M10.2065 37.1479V7.2959C10.2125 6.94397 10.252 6.59094 10.325 6.24585C10.397 5.90088 10.503 5.56384 10.6411 5.23901C10.9141 4.59497 11.3131 4.00098 11.8071 3.50171C12.2961 3.00769 12.8791 2.60559 13.5145 2.32971C13.8315 2.19177 14.1605 2.08582 14.4979 2.01257C14.8349 1.93958 15.1779 1.90051 15.5214 1.89661C19.4174 1.8656 23.3134 1.85059 27.2079 1.85059C31.1049 1.85059 34.9999 1.8656 38.8963 1.89673C39.2393 1.90076 39.5833 1.9397 39.9208 2.01318C40.2568 2.08618 40.5868 2.19312 40.903 2.33008C41.221 2.46802 41.525 2.63708 41.8108 2.8335C42.0978 3.03052 42.3658 3.25452 42.6108 3.50159C42.8578 3.75061 43.0808 4.02161 43.2748 4.31238C43.4708 4.60437 43.6398 4.91431 43.7772 5.23816C43.9142 5.56311 44.0212 5.90112 44.0934 6.24597C44.1664 6.59094 44.2054 6.94397 44.2104 7.29602C44.2104 7.29602 44.2104 37.1479 44.2101 37.1484C44.1891 37.8424 44.0511 38.5385 43.8027 39.1934C43.5557 39.8484 43.1977 40.4624 42.7389 40.9862C42.5089 41.2483 42.2549 41.4873 41.9799 41.7C41.7069 41.912 41.4139 42.0969 41.1049 42.2539C40.7979 42.4099 40.4769 42.5369 40.1451 42.6315C39.8161 42.7264 39.4771 42.7896 39.1357 42.8154C31.1907 43.2485 23.2267 43.2485 15.2819 42.8154C14.6009 42.7625 13.9259 42.5664 13.3131 42.2549C12.6931 41.9398 12.1351 41.5068 11.6787 40.9869C11.2197 40.4619 10.8627 39.8479 10.6155 39.193C10.3675 38.538 10.2285 37.843 10.2065 37.1479Z" stroke="#8B1EFF" stroke-width="0.283" stroke-miterlimit="10"/>
<rect x="12.8887" y="5.47168" width="28.63" height="34.35" rx="1.46" stroke="#00FFFF" stroke-width="0.28"/>
<path d="M38.6898 3.5864C31.0758 3.4874 23.3388 3.4874 15.7238 3.5864C15.4321 3.59042 15.1431 3.62143 14.858 3.68149C14.787 3.6965 14.7151 3.71249 14.6451 3.73141C14.5751 3.74948 14.5051 3.7695 14.4361 3.79147C14.298 3.83542 14.162 3.88449 14.0311 3.9415C13.8981 3.9985 13.7681 4.06149 13.6421 4.13144C13.578 4.16647 13.515 4.20346 13.453 4.24142C13.3911 4.27951 13.33 4.31943 13.2701 4.36142C13.0321 4.52646 12.8121 4.71445 12.6111 4.92343C12.5101 5.02744 12.4151 5.13742 12.3251 5.25351C12.2791 5.31052 12.2361 5.36948 12.1931 5.42941C12.151 5.48849 12.1111 5.54843 12.0721 5.61044C11.9151 5.85544 11.7841 6.11447 11.677 6.38644C11.651 6.45444 11.625 6.52341 11.6021 6.59348C11.578 6.66342 11.556 6.73349 11.5361 6.80344C11.4951 6.94443 11.4621 7.0864 11.4351 7.23044C11.382 7.51645 11.3551 7.80649 11.3551 8.10251C11.3528 17.5191 11.3519 26.9371 11.3499 36.3541C11.35 36.6476 11.371 36.9375 11.414 37.2235C11.436 37.3665 11.462 37.5085 11.4949 37.6505C11.511 37.7215 11.5289 37.7915 11.548 37.8615C11.567 37.9325 11.588 38.0025 11.61 38.0725C11.699 38.3506 11.809 38.6195 11.9429 38.8766C11.977 38.9415 12.0119 39.0055 12.048 39.0686C12.084 39.1316 12.1219 39.1936 12.162 39.2545C12.241 39.3756 12.324 39.4935 12.4129 39.6056C12.502 39.7185 12.597 39.8275 12.6969 39.9315C12.7469 39.9825 12.798 40.0335 12.852 40.0835C12.905 40.1325 12.959 40.1815 13.0139 40.2275C13.2359 40.4126 13.4729 40.5725 13.727 40.7065C13.7899 40.7395 13.8549 40.7716 13.92 40.8015C13.9859 40.8315 14.0529 40.8595 14.1199 40.8866C14.254 40.9386 14.3909 40.9835 14.5289 41.0216C14.8049 41.0965 15.087 41.1425 15.377 41.1576C23.2194 41.5847 31.1934 41.5847 39.0353 41.1577C39.3265 41.1417 39.6095 41.0958 39.8855 41.0217C40.0235 40.9837 40.1595 40.9387 40.2935 40.8867C40.3605 40.8597 40.4276 40.8318 40.4935 40.8017C40.5595 40.7707 40.6245 40.7387 40.6875 40.7048C40.9435 40.5708 41.1805 40.4107 41.3995 40.2258C41.5105 40.1338 41.6155 40.0348 41.7175 39.9308C41.7665 39.8788 41.8165 39.8248 41.8635 39.7697C41.9115 39.7158 41.9576 39.6598 42.0025 39.6037C42.1805 39.3778 42.3355 39.1367 42.4685 38.8818C42.5345 38.7538 42.5965 38.6228 42.6516 38.4878C42.6795 38.4207 42.7065 38.3528 42.7305 38.2838C42.7565 38.2158 42.7795 38.1467 42.8026 38.0768C42.8895 37.7998 42.9545 37.5167 42.9985 37.2297C43.0096 37.1577 43.0175 37.0847 43.0266 37.0128C43.0345 36.9398 43.0415 36.8668 43.0465 36.7938C43.0575 36.6478 43.0625 36.5007 43.0625 36.3547C43.0609 26.9375 43.0598 17.5195 43.059 8.10202C43.058 7.8071 43.032 7.51413 42.977 7.22409C42.95 7.07907 42.9149 6.93613 42.8749 6.79611C42.834 6.6561 42.7879 6.51804 42.735 6.38303C42.6809 6.24704 42.6219 6.11411 42.5549 5.9841C42.5219 5.91904 42.4879 5.8541 42.451 5.79013C42.4139 5.72702 42.3759 5.66403 42.3369 5.60202C42.1799 5.35703 41.9999 5.12912 41.799 4.92014C41.7489 4.86813 41.6979 4.81711 41.645 4.76706C41.5909 4.71713 41.5379 4.66806 41.481 4.62106C41.3699 4.52609 41.2539 4.43808 41.136 4.35605C40.8979 4.19308 40.6459 4.05405 40.3789 3.94003C40.313 3.91208 40.2449 3.8851 40.1759 3.8591C40.1079 3.83408 40.0389 3.81003 39.9699 3.78903C39.8309 3.74606 39.692 3.70908 39.5509 3.68002C39.269 3.62204 38.9829 3.59006 38.6898 3.5864Z" stroke="#FF00FF" stroke-width="0.283465" stroke-miterlimit="10" stroke-linecap="round" stroke-linejoin="round"/>
<path fill-rule="evenodd" clip-rule="evenodd" d="M28.6799 11.6184C29.072 11.6184 29.3899 11.3005 29.3899 10.9084C29.3899 10.5163 29.072 10.1984 28.6799 10.1984C28.2878 10.1984 27.9699 10.5163 27.9699 10.9084C27.9699 11.3005 28.2878 11.6184 28.6799 11.6184ZM25.8399 21.2984C26.232 21.2984 26.5499 20.9805 26.5499 20.5884C26.5499 20.1963 26.232 19.8784 25.8399 19.8784C25.4478 19.8784 25.1299 20.1963 25.1299 20.5884C25.1299 20.9805 25.4478 21.2984 25.8399 21.2984ZM29.3899 13.3284C29.3899 13.7206 29.072 14.0384 28.6799 14.0384C28.2878 14.0384 27.9699 13.7206 27.9699 13.3284C27.9699 12.9363 28.2878 12.6184 28.6799 12.6184C29.072 12.6184 29.3899 12.9363 29.3899 13.3284ZM28.6799 16.4584C29.072 16.4584 29.3899 16.1405 29.3899 15.7484C29.3899 15.3563 29.072 15.0384 28.6799 15.0384C28.2878 15.0384 27.9699 15.3563 27.9699 15.7484C27.9699 16.1405 28.2878 16.4584 28.6799 16.4584ZM29.3899 18.1684C29.3899 18.5606 29.072 18.8784 28.6799 18.8784C28.2878 18.8784 27.9699 18.5606 27.9699 18.1684C27.9699 17.7763 28.2878 17.4584 28.6799 17.4584C29.072 17.4584 29.3899 17.7763 29.3899 18.1684ZM28.6799 21.2984C29.072 21.2984 29.3899 20.9805 29.3899 20.5884C29.3899 20.1963 29.072 19.8784 28.6799 19.8784C28.2878 19.8784 27.9699 20.1963 27.9699 20.5884C27.9699 20.9805 28.2878 21.2984 28.6799 21.2984ZM26.5499 10.9084C26.5499 11.3005 26.232 11.6184 25.8399 11.6184C25.4478 11.6184 25.1299 11.3005 25.1299 10.9084C25.1299 10.5163 25.4478 10.1984 25.8399 10.1984C26.232 10.1984 26.5499 10.5163 26.5499 10.9084ZM18.0299 10.1984C17.2456 10.1984 16.6099 10.8342 16.6099 11.6184V19.8784C16.6099 20.6627 17.2456 21.2984 18.0299 21.2984H22.2899C23.0741 21.2984 23.7099 20.6627 23.7099 19.8784V11.6184C23.7099 10.8342 23.0741 10.1984 22.2899 10.1984H18.0299ZM18.1699 19.8784C18.0925 19.8784 18.0299 19.8158 18.0299 19.7384V11.7584C18.0299 11.6811 18.0925 11.6184 18.1699 11.6184H22.1499C22.2272 11.6184 22.2899 11.6811 22.2899 11.7584L22.2899 19.7384C22.2899 19.8158 22.2272 19.8784 22.1499 19.8784H18.1699Z" fill="black"/>
<path d="M35.7117 35.2078V29.2304C35.7117 28.8446 35.9412 28.6053 36.3124 28.6053C36.6836 28.6053 36.9131 28.8446 36.9131 29.2304V30.7061C36.9131 30.8093 37.0197 30.8779 37.1136 30.8351C37.4089 30.7005 37.9894 30.4757 38.5735 30.4757C39.7162 30.4757 40.3853 31.2278 40.3853 32.4145V35.2079C40.3853 35.6181 40.1314 35.8476 39.7749 35.8476C39.4184 35.8476 39.1693 35.6181 39.1693 35.2079V32.6636C39.1693 31.9408 38.8079 31.5062 38.1047 31.5062C37.4015 31.5062 36.9278 32.0141 36.9278 32.7759V35.2079C36.9278 35.6181 36.6787 35.8476 36.3222 35.8476C35.9657 35.8476 35.7117 35.618 35.7117 35.2078Z" fill="black"/>
<path d="M32.4556 34.4705V31.6542C32.4556 31.5759 32.3921 31.5125 32.3139 31.5125H32.1285C31.8258 31.5125 31.6401 31.3416 31.6401 31.0486C31.6401 30.7556 31.8256 30.5896 32.1285 30.5896H32.3139C32.3922 30.5896 32.4556 30.5261 32.4556 30.4479V29.8849C32.4556 29.4942 32.69 29.25 33.0661 29.25C33.4422 29.25 33.6717 29.4941 33.6717 29.8849V30.4479C33.6717 30.5262 33.7352 30.5896 33.8134 30.5896H34.2333C34.536 30.5896 34.7217 30.7604 34.7217 31.0486C34.7217 31.3368 34.5362 31.5125 34.2333 31.5125H33.8134C33.7351 31.5125 33.6717 31.576 33.6717 31.6542V34.2068C33.6717 34.5975 33.8084 34.7684 34.1601 34.7977L34.248 34.8075C34.5703 34.8368 34.7364 34.9735 34.7364 35.2568C34.7364 35.6132 34.4239 35.8038 33.8672 35.8038H33.8184C32.915 35.8038 32.4559 35.3545 32.4559 34.4706H32.4557L32.4556 34.4705Z" fill="black"/>
<path d="M28.2526 31.4816C29.0096 31.4816 29.5126 32.1409 29.5175 33.1567C29.5126 34.1627 29.0388 34.8318 28.2526 34.8318C27.4664 34.8318 26.978 34.1774 26.978 33.1567C26.978 32.1311 27.4956 31.4816 28.2526 31.4816ZM25.7327 33.1568C25.7327 34.8124 26.5678 35.833 27.8816 35.833C28.3676 35.833 29.1377 35.589 29.4386 35.487C29.5061 35.4641 29.5808 35.4938 29.6125 35.5578C29.6205 35.5741 29.6288 35.5903 29.6392 35.6051C29.7586 35.7756 29.9343 35.8476 30.133 35.8476C30.4798 35.8476 30.7239 35.623 30.7239 35.2225V29.2449C30.7238 28.8346 30.4748 28.6051 30.1182 28.6051C29.7616 28.6051 29.5077 28.8346 29.5077 29.2449V30.725C29.5077 30.8277 29.4018 30.8966 29.3082 30.8544C28.9463 30.6915 28.3436 30.4853 27.8619 30.4853C26.5629 30.4853 25.7327 31.506 25.7327 33.1567V33.1568Z" fill="black"/>
<path d="M24.1172 30.4715C23.7461 30.4715 23.5117 30.7205 23.5117 31.1112V35.2079C23.5117 35.6034 23.7461 35.8476 24.1172 35.8476C24.4883 35.8476 24.7276 35.6035 24.7276 35.2079V31.1161C24.7276 30.7206 24.4883 30.4716 24.1172 30.4716V30.4715ZM24.1172 29.8465C24.4981 29.8465 24.7959 29.5535 24.7959 29.1873C24.7959 28.8211 24.498 28.5281 24.1172 28.5281C23.7364 28.5281 23.4434 28.8162 23.4434 29.1873C23.4434 29.5584 23.7413 29.8465 24.1172 29.8465Z" fill="black"/>
<path d="M15.968 35.8328C15.5774 35.8328 15.3625 35.6424 15.2405 35.2029L13.678 29.5876C13.6341 29.4313 13.6145 29.2995 13.6145 29.1872C13.6145 28.8405 13.8586 28.6208 14.2346 28.6208C14.5618 28.6208 14.7668 28.8015 14.845 29.1481L15.9099 33.5757C15.9443 33.7186 16.1465 33.7212 16.1846 33.5793L17.3548 29.2165C17.4622 28.7966 17.6673 28.6208 18.0384 28.6208C18.4095 28.6208 18.6048 28.8063 18.7122 29.2019L19.8825 33.5785C19.9205 33.7205 20.1229 33.7179 20.1572 33.575L21.2219 29.1482C21.3 28.7966 21.5051 28.6209 21.8323 28.6209C22.2083 28.6209 22.4524 28.8406 22.4524 29.1873C22.4524 29.2947 22.4329 29.4266 22.3889 29.5877L20.8215 35.2079C20.7043 35.6425 20.4895 35.8329 20.1037 35.8329C19.6984 35.8329 19.4836 35.6522 19.3615 35.2079L18.1696 31.043C18.1304 30.906 17.9363 30.906 17.8971 31.043L16.7052 35.2079C16.588 35.6474 16.3634 35.8329 15.9679 35.8329L15.968 35.8328Z" fill="black"/>
</svg>
