<svg width="54" height="54" viewBox="0 0 54 54" fill="none" xmlns="http://www.w3.org/2000/svg">
<rect x="1.8501" y="1.85001" width="50.3" height="50.3" rx="3" stroke="#16215B" stroke-width="0.28"/>
<path d="M10.2065 37.1479V7.29587C10.2125 6.94394 10.252 6.59091 10.325 6.24582C10.397 5.90085 10.503 5.56381 10.6411 5.23898C10.9141 4.59494 11.3131 4.00095 11.8071 3.50168C12.2961 3.00766 12.8791 2.60556 13.5145 2.32968C13.8315 2.19174 14.1605 2.08578 14.4979 2.01254C14.8349 1.93954 15.1779 1.90048 15.5214 1.89658C19.4174 1.86557 23.3134 1.85056 27.2079 1.85056C31.1049 1.85056 34.9999 1.86557 38.8963 1.8967C39.2393 1.90073 39.5833 1.93967 39.9208 2.01315C40.2568 2.08615 40.5868 2.19308 40.903 2.33005C41.221 2.46799 41.525 2.63705 41.8108 2.83347C42.0978 3.03049 42.3658 3.25449 42.6108 3.50156C42.8578 3.75058 43.0808 4.02158 43.2748 4.31235C43.4708 4.60434 43.6398 4.91428 43.7772 5.23813C43.9142 5.56308 44.0212 5.90109 44.0934 6.24594C44.1664 6.59091 44.2054 6.94394 44.2104 7.29599C44.2104 7.29599 44.2104 37.1479 44.2101 37.1484C44.1891 37.8424 44.0511 38.5384 43.8027 39.1933C43.5557 39.8484 43.1977 40.4624 42.7389 40.9862C42.5089 41.2483 42.2549 41.4873 41.9799 41.6999C41.7069 41.912 41.4139 42.0969 41.1049 42.2539C40.7979 42.4099 40.4769 42.5368 40.1451 42.6314C39.8161 42.7264 39.4771 42.7895 39.1357 42.8154C31.1907 43.2485 23.2267 43.2485 15.2819 42.8154C14.6009 42.7624 13.9259 42.5664 13.3131 42.2549C12.6931 41.9398 12.1351 41.5068 11.6787 40.9869C11.2197 40.4619 10.8627 39.8479 10.6155 39.193C10.3675 38.5379 10.2285 37.843 10.2065 37.1479Z" stroke="#16215B" stroke-width="0.283" stroke-miterlimit="10"/>
<rect x="12.8887" y="5.47166" width="28.63" height="34.35" rx="1.46" stroke="#00FFFF" stroke-width="0.28"/>
<path d="M38.6896 3.5864C31.0756 3.4874 23.3386 3.4874 15.7236 3.5864C15.4318 3.59042 15.1428 3.62143 14.8578 3.68149C14.7868 3.6965 14.7148 3.71249 14.6448 3.73141C14.5748 3.74948 14.5048 3.7695 14.4358 3.79147C14.2978 3.83542 14.1618 3.88449 14.0308 3.9415C13.8978 3.9985 13.7678 4.06149 13.6418 4.13144C13.5778 4.16647 13.5148 4.20346 13.4528 4.24142C13.3908 4.27951 13.3298 4.31943 13.2698 4.36142C13.0318 4.52646 12.8118 4.71445 12.6108 4.92343C12.5098 5.02744 12.4148 5.13742 12.3248 5.25351C12.2788 5.31052 12.2358 5.36948 12.1928 5.42941C12.1508 5.48849 12.1108 5.54843 12.0718 5.61044C11.9148 5.85544 11.7838 6.11447 11.6768 6.38644C11.6508 6.45444 11.6248 6.52341 11.6018 6.59348C11.5778 6.66342 11.5558 6.73349 11.5358 6.80344C11.4948 6.94443 11.4618 7.0864 11.4348 7.23044C11.3818 7.51645 11.3548 7.80649 11.3548 8.10251C11.3526 17.5191 11.3516 26.9371 11.3496 36.3541C11.3497 36.6476 11.3707 36.9375 11.4137 37.2235C11.4357 37.3665 11.4617 37.5085 11.4947 37.6505C11.5107 37.7215 11.5287 37.7915 11.5477 37.8615C11.5667 37.9325 11.5877 38.0025 11.6097 38.0725C11.6987 38.3506 11.8087 38.6195 11.9427 38.8766C11.9767 38.9415 12.0117 39.0055 12.0477 39.0686C12.0837 39.1316 12.1217 39.1936 12.1617 39.2545C12.2407 39.3756 12.3237 39.4935 12.4127 39.6056C12.5017 39.7185 12.5967 39.8275 12.6967 39.9315C12.7467 39.9825 12.7977 40.0335 12.8517 40.0835C12.9047 40.1325 12.9587 40.1815 13.0137 40.2275C13.2357 40.4126 13.4727 40.5725 13.7267 40.7065C13.7897 40.7395 13.8547 40.7716 13.9197 40.8015C13.9857 40.8315 14.0527 40.8595 14.1197 40.8866C14.2537 40.9386 14.3907 40.9835 14.5287 41.0216C14.8047 41.0965 15.0867 41.1425 15.3767 41.1576C23.2191 41.5847 31.1931 41.5847 39.0351 41.1577C39.3263 41.1417 39.6093 41.0958 39.8853 41.0217C40.0233 40.9837 40.1593 40.9387 40.2933 40.8867C40.3603 40.8597 40.4273 40.8318 40.4933 40.8017C40.5593 40.7707 40.6243 40.7387 40.6873 40.7048C40.9433 40.5708 41.1803 40.4107 41.3993 40.2258C41.5103 40.1338 41.6153 40.0348 41.7173 39.9308C41.7663 39.8788 41.8163 39.8248 41.8633 39.7697C41.9113 39.7158 41.9573 39.6598 42.0023 39.6037C42.1803 39.3778 42.3353 39.1367 42.4683 38.8818C42.5343 38.7538 42.5963 38.6228 42.6513 38.4878C42.6793 38.4207 42.7063 38.3528 42.7303 38.2838C42.7563 38.2158 42.7793 38.1467 42.8023 38.0768C42.8893 37.7998 42.9543 37.5167 42.9983 37.2297C43.0093 37.1577 43.0173 37.0847 43.0263 37.0128C43.0343 36.9398 43.0413 36.8668 43.0463 36.7938C43.0573 36.6478 43.0623 36.5007 43.0623 36.3547C43.0606 26.9375 43.0596 17.5195 43.0587 8.10202C43.0577 7.8071 43.0317 7.51413 42.9767 7.22409C42.9497 7.07907 42.9147 6.93613 42.8747 6.79611C42.8337 6.6561 42.7877 6.51804 42.7347 6.38303C42.6807 6.24704 42.6217 6.11411 42.5547 5.9841C42.5217 5.91904 42.4877 5.8541 42.4507 5.79013C42.4137 5.72702 42.3757 5.66403 42.3367 5.60202C42.1797 5.35703 41.9997 5.12912 41.7987 4.92014C41.7487 4.86813 41.6977 4.81711 41.6447 4.76706C41.5907 4.71713 41.5377 4.66806 41.4807 4.62106C41.3697 4.52609 41.2537 4.43808 41.1357 4.35605C40.8977 4.19308 40.6457 4.05405 40.3787 3.94003C40.3127 3.91208 40.2447 3.8851 40.1757 3.8591C40.1077 3.83408 40.0387 3.81003 39.9697 3.78903C39.8307 3.74606 39.6917 3.70908 39.5507 3.68002C39.2687 3.62204 38.9827 3.59006 38.6896 3.5864Z" stroke="#FF00FF" stroke-width="0.283465" stroke-miterlimit="10" stroke-linecap="round" stroke-linejoin="round"/>
<path d="M22.1623 17.135C22.1498 17.4829 21.8458 17.7501 21.4976 17.7501L16.6437 17.7501C16.2778 17.7501 15.9863 17.4587 15.9863 17.099C15.9863 16.7951 16.1848 16.5533 16.4514 16.4665C17.2142 16.2122 17.6792 15.5239 17.6792 14.755C17.6792 14.5288 17.6525 14.316 17.6065 14.1128C17.5921 14.049 17.534 14.0046 17.4686 14.0046H17.0033C16.6002 14.0046 16.3522 13.7938 16.3522 13.4403C16.3522 13.0806 16.6002 12.8822 16.9971 12.8822H17.0744C17.1684 12.8822 17.2363 12.7923 17.2105 12.7019C17.106 12.3348 17.0281 11.9672 17.0281 11.5676C17.0281 10.0049 18.2063 9.1243 20.0109 9.1243C20.5814 9.1243 21.0961 9.20491 21.4248 9.34754C21.6604 9.44056 21.8464 9.6576 21.8464 9.94285C21.8464 10.2839 21.5798 10.563 21.2325 10.563C20.9597 10.563 20.5752 10.4017 20.1473 10.4017C19.2357 10.4017 18.6404 10.8854 18.6404 11.7102C18.6404 12.1044 18.7223 12.4475 18.8209 12.7813C18.8386 12.8413 18.8941 12.8822 18.9567 12.8822H20.4512C20.8542 12.8822 21.1023 13.0806 21.1023 13.4341C21.1023 13.7938 20.8542 14.0046 20.4512 14.0046H19.3333C19.2431 14.0046 19.1769 14.0874 19.195 14.1757C19.2234 14.3149 19.2419 14.459 19.2419 14.6123C19.232 15.2465 19.0474 15.8366 18.6359 16.2194C18.5406 16.308 18.6001 16.4665 18.7302 16.4665L21.524 16.4665C21.8853 16.4665 22.1753 16.771 22.1623 17.135Z" fill="black"/>
<path d="M15.9954 33.9643C15.9954 33.5743 16.2754 33.2843 16.6554 33.2843C16.9254 33.2843 17.1354 33.4143 17.3654 33.7543C17.7254 34.3243 18.2754 34.6243 18.9754 34.6243C19.9054 34.6243 20.5054 34.1243 20.5054 33.3543C20.5054 32.5843 19.8954 32.0643 18.9754 32.0643H18.3654C17.9954 32.0643 17.7254 31.7843 17.7254 31.4043C17.7254 31.0243 17.9954 30.7543 18.3654 30.7543H18.9454C19.7054 30.7543 20.2654 30.2543 20.2654 29.5743C20.2654 28.8943 19.7154 28.4243 18.9354 28.4243C18.3254 28.4243 17.8454 28.7143 17.5154 29.2643C17.3254 29.5743 17.1154 29.7043 16.8254 29.7043C16.4254 29.7043 16.1454 29.4243 16.1454 29.0243C16.1454 28.0343 17.3454 27.1243 18.9554 27.1243C20.6654 27.1243 21.8654 28.0443 21.8654 29.3743C21.8654 30.1243 21.4054 30.8543 20.7754 31.1643C20.6654 31.2243 20.6654 31.3743 20.7854 31.4143C21.5754 31.7043 22.1254 32.5043 22.1254 33.4143C22.1254 34.8943 20.8154 35.9343 18.9454 35.9343C17.2754 35.9343 15.9854 34.9943 15.9854 33.9643H15.9954Z" fill="black"/>
</svg>
