<svg width="54" height="54" viewBox="0 0 54 54" fill="none" xmlns="http://www.w3.org/2000/svg">
<path d="M10.2065 37.1479V7.2959C10.2125 6.94397 10.252 6.59094 10.325 6.24585C10.397 5.90088 10.503 5.56384 10.6411 5.23901C10.9141 4.59497 11.3131 4.00098 11.8071 3.50171C12.2961 3.00769 12.8791 2.60559 13.5145 2.32971C13.8315 2.19177 14.1605 2.08582 14.4979 2.01257C14.8349 1.93958 15.1779 1.90051 15.5214 1.89661C19.4174 1.8656 23.3134 1.85059 27.2079 1.85059C31.1049 1.85059 34.9999 1.8656 38.8963 1.89673C39.2393 1.90076 39.5833 1.9397 39.9208 2.01318C40.2568 2.08618 40.5868 2.19312 40.903 2.33008C41.221 2.46802 41.525 2.63708 41.8108 2.8335C42.0978 3.03052 42.3658 3.25452 42.6108 3.50159C42.8578 3.75061 43.0808 4.02161 43.2748 4.31238C43.4708 4.60437 43.6398 4.91431 43.7772 5.23816C43.9142 5.56311 44.0212 5.90112 44.0934 6.24597C44.1664 6.59094 44.2054 6.94397 44.2104 7.29602C44.2104 7.29602 44.2104 37.1479 44.2101 37.1484C44.1891 37.8424 44.0511 38.5385 43.8027 39.1934C43.5557 39.8484 43.1977 40.4624 42.7389 40.9862C42.5089 41.2483 42.2549 41.4873 41.9799 41.7C41.7069 41.912 41.4139 42.0969 41.1049 42.2539C40.7979 42.4099 40.4769 42.5369 40.1451 42.6315C39.8161 42.7264 39.4771 42.7896 39.1357 42.8154C31.1907 43.2485 23.2267 43.2485 15.2819 42.8154C14.6009 42.7625 13.9259 42.5664 13.3131 42.2549C12.6931 41.9398 12.1351 41.5068 11.6787 40.9869C11.2197 40.4619 10.8627 39.8479 10.6155 39.193C10.3675 38.538 10.2285 37.843 10.2065 37.1479Z" stroke="#16215B" stroke-width="0.283" stroke-miterlimit="10"/>
<rect x="12.8887" y="5.47168" width="28.63" height="34.35" rx="1.46" stroke="#00FFFF" stroke-width="0.28"/>
<path d="M38.6896 3.5864C31.0756 3.4874 23.3386 3.4874 15.7236 3.5864C15.4318 3.59042 15.1428 3.62143 14.8578 3.68149C14.7868 3.6965 14.7148 3.71249 14.6448 3.73141C14.5748 3.74948 14.5048 3.7695 14.4358 3.79147C14.2978 3.83542 14.1618 3.88449 14.0308 3.9415C13.8978 3.9985 13.7678 4.06149 13.6418 4.13144C13.5778 4.16647 13.5148 4.20346 13.4528 4.24142C13.3908 4.27951 13.3298 4.31943 13.2698 4.36142C13.0318 4.52646 12.8118 4.71445 12.6108 4.92343C12.5098 5.02744 12.4148 5.13742 12.3248 5.25351C12.2788 5.31052 12.2358 5.36948 12.1928 5.42941C12.1508 5.48849 12.1108 5.54843 12.0718 5.61044C11.9148 5.85544 11.7838 6.11447 11.6768 6.38644C11.6508 6.45444 11.6248 6.52341 11.6018 6.59348C11.5778 6.66342 11.5558 6.73349 11.5358 6.80344C11.4948 6.94443 11.4618 7.0864 11.4348 7.23044C11.3818 7.51645 11.3548 7.80649 11.3548 8.10251C11.3526 17.5191 11.3516 26.9371 11.3496 36.3541C11.3497 36.6476 11.3707 36.9375 11.4137 37.2235C11.4357 37.3665 11.4617 37.5085 11.4947 37.6505C11.5107 37.7215 11.5287 37.7915 11.5477 37.8615C11.5667 37.9325 11.5877 38.0025 11.6097 38.0725C11.6987 38.3506 11.8087 38.6195 11.9427 38.8766C11.9767 38.9415 12.0117 39.0055 12.0477 39.0686C12.0837 39.1316 12.1217 39.1936 12.1617 39.2545C12.2407 39.3756 12.3237 39.4935 12.4127 39.6056C12.5017 39.7185 12.5967 39.8275 12.6967 39.9315C12.7467 39.9825 12.7977 40.0335 12.8517 40.0835C12.9047 40.1325 12.9587 40.1815 13.0137 40.2275C13.2357 40.4126 13.4727 40.5725 13.7267 40.7065C13.7897 40.7395 13.8547 40.7716 13.9197 40.8015C13.9857 40.8315 14.0527 40.8595 14.1197 40.8866C14.2537 40.9386 14.3907 40.9835 14.5287 41.0216C14.8047 41.0965 15.0867 41.1425 15.3767 41.1576C23.2191 41.5847 31.1931 41.5847 39.0351 41.1577C39.3263 41.1417 39.6093 41.0958 39.8853 41.0217C40.0233 40.9837 40.1593 40.9387 40.2933 40.8867C40.3603 40.8597 40.4273 40.8318 40.4933 40.8017C40.5593 40.7707 40.6243 40.7387 40.6873 40.7048C40.9433 40.5708 41.1803 40.4107 41.3993 40.2258C41.5103 40.1338 41.6153 40.0348 41.7173 39.9308C41.7663 39.8788 41.8163 39.8248 41.8633 39.7697C41.9113 39.7158 41.9573 39.6598 42.0023 39.6037C42.1803 39.3778 42.3353 39.1367 42.4683 38.8818C42.5343 38.7538 42.5963 38.6228 42.6513 38.4878C42.6793 38.4207 42.7063 38.3528 42.7303 38.2838C42.7563 38.2158 42.7793 38.1467 42.8023 38.0768C42.8893 37.7998 42.9543 37.5167 42.9983 37.2297C43.0093 37.1577 43.0173 37.0847 43.0263 37.0128C43.0343 36.9398 43.0413 36.8668 43.0463 36.7938C43.0573 36.6478 43.0623 36.5007 43.0623 36.3547C43.0606 26.9375 43.0596 17.5195 43.0587 8.10202C43.0577 7.8071 43.0317 7.51413 42.9767 7.22409C42.9497 7.07907 42.9147 6.93613 42.8747 6.79611C42.8337 6.6561 42.7877 6.51804 42.7347 6.38303C42.6807 6.24704 42.6217 6.11411 42.5547 5.9841C42.5217 5.91904 42.4877 5.8541 42.4507 5.79013C42.4137 5.72702 42.3757 5.66403 42.3367 5.60202C42.1797 5.35703 41.9997 5.12912 41.7987 4.92014C41.7487 4.86813 41.6977 4.81711 41.6447 4.76706C41.5907 4.71713 41.5377 4.66806 41.4807 4.62106C41.3697 4.52609 41.2537 4.43808 41.1357 4.35605C40.8977 4.19308 40.6457 4.05405 40.3787 3.94003C40.3127 3.91208 40.2447 3.8851 40.1757 3.8591C40.1077 3.83408 40.0387 3.81003 39.9697 3.78903C39.8307 3.74606 39.6917 3.70908 39.5507 3.68002C39.2687 3.62204 38.9827 3.59006 38.6896 3.5864Z" stroke="#FF00FF" stroke-width="0.283465" stroke-miterlimit="10" stroke-linecap="round" stroke-linejoin="round"/>
<path d="M35 35.0618L35.2885 33.6359C35.3061 33.5491 35.2398 33.4681 35.1513 33.4681H34.0108C33.9441 33.4681 33.8867 33.5151 33.8736 33.5805L33.5303 35.285C33.4559 35.6695 33.2141 35.8742 32.8854 35.8742C32.5443 35.8742 32.3149 35.6447 32.3149 35.2912C32.3149 35.2168 32.3211 35.13 32.3335 35.0618L32.6275 33.6364C32.6454 33.5495 32.579 33.4681 32.4903 33.4681H32.1661C31.7072 33.4681 31.4653 33.2325 31.4653 32.8604C31.4653 32.5007 31.7072 32.2713 32.1661 32.2713H32.7829C32.8497 32.2713 32.9072 32.2241 32.9202 32.1585L33.1809 30.8448C33.1981 30.7583 33.1318 30.6776 33.0436 30.6776H32.7614C32.3025 30.6776 32.0606 30.4357 32.0606 30.0699C32.0606 29.704 32.3025 29.4745 32.7614 29.4745H33.3416C33.4081 29.4745 33.4655 29.4277 33.4788 29.3626L33.8032 27.7754C33.8714 27.4096 34.107 27.2111 34.4109 27.2111C34.7644 27.2111 35.0186 27.4654 35.0186 27.8064C35.0186 27.8684 35.0062 27.9491 34.9938 28.0173L34.7305 29.3065C34.7127 29.3933 34.779 29.4745 34.8676 29.4745H36.0019C36.0684 29.4745 36.1258 29.4277 36.1391 29.3626L36.4635 27.7754C36.5379 27.4158 36.7735 27.2111 37.0898 27.2111C37.4371 27.2111 37.6851 27.4654 37.6851 27.8064C37.6851 27.8684 37.6789 27.9491 37.6665 28.0173L37.3978 29.306C37.3797 29.3929 37.446 29.4745 37.5348 29.4745H37.9394C38.3982 29.4745 38.6277 29.6978 38.6277 30.0637C38.6277 30.4419 38.392 30.6776 37.927 30.6776H37.2415C37.1749 30.6776 37.1175 30.7245 37.1043 30.7898L36.8045 32.2713H37.344C37.8029 32.2713 38.0324 32.4883 38.0324 32.8604C38.0324 33.2325 37.7967 33.4681 37.3316 33.4681H36.6773C36.6106 33.4681 36.5532 33.5151 36.5401 33.5805L36.1968 35.285C36.1224 35.6695 35.8868 35.8742 35.5643 35.8742C35.217 35.8742 34.9752 35.6385 34.9752 35.2912C34.9752 35.2168 34.9876 35.13 35 35.0618ZM34.4947 30.5598C34.4279 30.5598 34.3705 30.6069 34.3574 30.6723L34.0475 32.2216C34.0302 32.3083 34.0964 32.3891 34.1848 32.3891H35.5298C35.5967 32.3891 35.6542 32.3418 35.6671 32.2761L35.9718 30.7268C35.9888 30.6403 35.9225 30.5598 35.8344 30.5598H34.4947Z" fill="black"/>
<path d="M18.0142 13.4635C18.0142 12.924 18.4606 12.4837 18.9939 12.4837C19.5334 12.4837 19.9737 12.924 19.9737 13.4635C19.9737 13.9968 19.5334 14.4433 18.9939 14.4433C18.4606 14.4433 18.0142 13.9968 18.0142 13.4635Z" fill="black"/>
<path d="M15.9954 33.9643C15.9954 33.5743 16.2754 33.2843 16.6554 33.2843C16.9254 33.2843 17.1354 33.4143 17.3654 33.7543C17.7254 34.3243 18.2754 34.6243 18.9754 34.6243C19.9054 34.6243 20.5054 34.1243 20.5054 33.3543C20.5054 32.5843 19.8954 32.0643 18.9754 32.0643H18.3654C17.9954 32.0643 17.7254 31.7843 17.7254 31.4043C17.7254 31.0243 17.9954 30.7543 18.3654 30.7543H18.9454C19.7054 30.7543 20.2654 30.2543 20.2654 29.5743C20.2654 28.8943 19.7154 28.4243 18.9354 28.4243C18.3254 28.4243 17.8454 28.7143 17.5154 29.2643C17.3254 29.5743 17.1154 29.7043 16.8254 29.7043C16.4254 29.7043 16.1454 29.4243 16.1454 29.0243C16.1454 28.0343 17.3454 27.1243 18.9554 27.1243C20.6654 27.1243 21.8654 28.0443 21.8654 29.3743C21.8654 30.1243 21.4054 30.8543 20.7754 31.1643C20.6654 31.2243 20.6654 31.3743 20.7854 31.4143C21.5754 31.7043 22.1254 32.5043 22.1254 33.4143C22.1254 34.8943 20.8154 35.9343 18.9454 35.9343C17.2754 35.9343 15.9854 34.9943 15.9854 33.9643H15.9954Z" fill="black"/>
</svg>
