<svg width="54" height="54" viewBox="0 0 54 54" fill="none" xmlns="http://www.w3.org/2000/svg">
<rect x="1.8501" y="1.85001" width="50.3" height="50.3" rx="3" stroke="#8B1EFF" stroke-width="0.28"/>
<path d="M10.2065 37.1479V7.29587C10.2125 6.94394 10.252 6.59091 10.325 6.24582C10.397 5.90085 10.503 5.56381 10.6411 5.23898C10.9141 4.59494 11.3131 4.00095 11.8071 3.50168C12.2961 3.00766 12.8791 2.60556 13.5145 2.32968C13.8315 2.19174 14.1605 2.08578 14.4979 2.01254C14.8349 1.93954 15.1779 1.90048 15.5214 1.89658C19.4174 1.86557 23.3134 1.85056 27.2079 1.85056C31.1049 1.85056 34.9999 1.86557 38.8963 1.8967C39.2393 1.90073 39.5833 1.93967 39.9208 2.01315C40.2568 2.08615 40.5868 2.19308 40.903 2.33005C41.221 2.46799 41.525 2.63705 41.8108 2.83347C42.0978 3.03049 42.3658 3.25449 42.6108 3.50156C42.8578 3.75058 43.0808 4.02158 43.2748 4.31235C43.4708 4.60434 43.6398 4.91428 43.7772 5.23813C43.9142 5.56308 44.0212 5.90109 44.0934 6.24594C44.1664 6.59091 44.2054 6.94394 44.2104 7.29599C44.2104 7.29599 44.2104 37.1479 44.2101 37.1484C44.1891 37.8424 44.0511 38.5384 43.8027 39.1933C43.5557 39.8484 43.1977 40.4624 42.7389 40.9862C42.5089 41.2483 42.2549 41.4873 41.9799 41.6999C41.7069 41.912 41.4139 42.0969 41.1049 42.2539C40.7979 42.4099 40.4769 42.5368 40.1451 42.6314C39.8161 42.7264 39.4771 42.7895 39.1357 42.8154C31.1907 43.2485 23.2267 43.2485 15.2819 42.8154C14.6009 42.7624 13.9259 42.5664 13.3131 42.2549C12.6931 41.9398 12.1351 41.5068 11.6787 40.9869C11.2197 40.4619 10.8627 39.8479 10.6155 39.193C10.3675 38.5379 10.2285 37.843 10.2065 37.1479Z" stroke="#8B1EFF" stroke-width="0.283" stroke-miterlimit="10"/>
<rect x="12.8887" y="5.47166" width="28.63" height="34.35" rx="1.46" stroke="#00FFFF" stroke-width="0.28"/>
<path d="M38.6896 3.5864C31.0756 3.4874 23.3386 3.4874 15.7236 3.5864C15.4318 3.59042 15.1428 3.62143 14.8578 3.68149C14.7868 3.6965 14.7148 3.71249 14.6448 3.73141C14.5748 3.74948 14.5048 3.7695 14.4358 3.79147C14.2978 3.83542 14.1618 3.88449 14.0308 3.9415C13.8978 3.9985 13.7678 4.06149 13.6418 4.13144C13.5778 4.16647 13.5148 4.20346 13.4528 4.24142C13.3908 4.27951 13.3298 4.31943 13.2698 4.36142C13.0318 4.52646 12.8118 4.71445 12.6108 4.92343C12.5098 5.02744 12.4148 5.13742 12.3248 5.25351C12.2788 5.31052 12.2358 5.36948 12.1928 5.42941C12.1508 5.48849 12.1108 5.54843 12.0718 5.61044C11.9148 5.85544 11.7838 6.11447 11.6768 6.38644C11.6508 6.45444 11.6248 6.52341 11.6018 6.59348C11.5778 6.66342 11.5558 6.73349 11.5358 6.80344C11.4948 6.94443 11.4618 7.0864 11.4348 7.23044C11.3818 7.51645 11.3548 7.80649 11.3548 8.10251C11.3526 17.5191 11.3516 26.9371 11.3496 36.3541C11.3497 36.6476 11.3707 36.9375 11.4137 37.2235C11.4357 37.3665 11.4617 37.5085 11.4947 37.6505C11.5107 37.7215 11.5287 37.7915 11.5477 37.8615C11.5667 37.9325 11.5877 38.0025 11.6097 38.0725C11.6987 38.3506 11.8087 38.6195 11.9427 38.8766C11.9767 38.9415 12.0117 39.0055 12.0477 39.0686C12.0837 39.1316 12.1217 39.1936 12.1617 39.2545C12.2407 39.3756 12.3237 39.4935 12.4127 39.6056C12.5017 39.7185 12.5967 39.8275 12.6967 39.9315C12.7467 39.9825 12.7977 40.0335 12.8517 40.0835C12.9047 40.1325 12.9587 40.1815 13.0137 40.2275C13.2357 40.4126 13.4727 40.5725 13.7267 40.7065C13.7897 40.7395 13.8547 40.7716 13.9197 40.8015C13.9857 40.8315 14.0527 40.8595 14.1197 40.8866C14.2537 40.9386 14.3907 40.9835 14.5287 41.0216C14.8047 41.0965 15.0867 41.1425 15.3767 41.1576C23.2191 41.5847 31.1931 41.5847 39.0351 41.1577C39.3263 41.1417 39.6093 41.0958 39.8853 41.0217C40.0233 40.9837 40.1593 40.9387 40.2933 40.8867C40.3603 40.8597 40.4273 40.8318 40.4933 40.8017C40.5593 40.7707 40.6243 40.7387 40.6873 40.7048C40.9433 40.5708 41.1803 40.4107 41.3993 40.2258C41.5103 40.1338 41.6153 40.0348 41.7173 39.9308C41.7663 39.8788 41.8163 39.8248 41.8633 39.7697C41.9113 39.7158 41.9573 39.6598 42.0023 39.6037C42.1803 39.3778 42.3353 39.1367 42.4683 38.8818C42.5343 38.7538 42.5963 38.6228 42.6513 38.4878C42.6793 38.4207 42.7063 38.3528 42.7303 38.2838C42.7563 38.2158 42.7793 38.1467 42.8023 38.0768C42.8893 37.7998 42.9543 37.5167 42.9983 37.2297C43.0093 37.1577 43.0173 37.0847 43.0263 37.0128C43.0343 36.9398 43.0413 36.8668 43.0463 36.7938C43.0573 36.6478 43.0623 36.5007 43.0623 36.3547C43.0606 26.9375 43.0596 17.5195 43.0587 8.10202C43.0577 7.8071 43.0317 7.51413 42.9767 7.22409C42.9497 7.07907 42.9147 6.93613 42.8747 6.79611C42.8337 6.6561 42.7877 6.51804 42.7347 6.38303C42.6807 6.24704 42.6217 6.11411 42.5547 5.9841C42.5217 5.91904 42.4877 5.8541 42.4507 5.79013C42.4137 5.72702 42.3757 5.66403 42.3367 5.60202C42.1797 5.35703 41.9997 5.12912 41.7987 4.92014C41.7487 4.86813 41.6977 4.81711 41.6447 4.76706C41.5907 4.71713 41.5377 4.66806 41.4807 4.62106C41.3697 4.52609 41.2537 4.43808 41.1357 4.35605C40.8977 4.19308 40.6457 4.05405 40.3787 3.94003C40.3127 3.91208 40.2447 3.8851 40.1757 3.8591C40.1077 3.83408 40.0387 3.81003 39.9697 3.78903C39.8307 3.74606 39.6917 3.70908 39.5507 3.68002C39.2687 3.62204 38.9827 3.59006 38.6896 3.5864Z" stroke="#FF00FF" stroke-width="0.283465" stroke-miterlimit="10" stroke-linecap="round" stroke-linejoin="round"/>
<path d="M38.2184 33.7099C38.2184 34.9502 36.8231 35.9114 35.2977 35.9114C33.6223 35.9114 32.5114 34.9666 32.2733 33.0363C32.2645 32.965 32.2044 32.91 32.1326 32.91H31.9614C31.6204 32.91 31.4033 32.7302 31.4033 32.4263C31.4033 32.1224 31.6142 31.9426 31.9614 31.9426H32.0695C32.1468 31.9426 32.2095 31.8799 32.2095 31.8026V31.2765C32.2095 31.1991 32.1468 31.1365 32.0695 31.1365H31.9614C31.6204 31.1365 31.4033 30.9566 31.4033 30.6528C31.4033 30.3489 31.6142 30.1629 31.9614 30.1629H32.1258C32.1979 30.1629 32.258 30.1077 32.2667 30.0361C32.4897 28.1973 33.6122 27.1243 35.3039 27.1243C36.8169 27.1243 38.1812 28.1909 38.1812 29.3505C38.1812 29.828 37.8649 30.1381 37.4743 30.1381C37.1704 30.1381 36.972 29.9458 36.7921 29.642C36.4945 28.9784 36.0418 28.594 35.3597 28.594C34.5774 28.594 34.1075 29.0849 33.9712 30.0086C33.9591 30.0907 34.0242 30.1629 34.1072 30.1629H35.3287C35.6759 30.1629 35.893 30.3427 35.893 30.6528C35.893 30.9566 35.6759 31.1365 35.3287 31.1365H34.0114C33.9341 31.1365 33.8714 31.1991 33.8714 31.2765V31.8026C33.8714 31.8799 33.9341 31.9426 34.0114 31.9426H35.3287C35.6759 31.9426 35.893 32.1162 35.893 32.4263C35.893 32.7302 35.6759 32.91 35.3287 32.91H34.1064C34.0237 32.91 33.9587 32.9817 33.9704 33.0636C34.1007 33.9735 34.5617 34.4417 35.3907 34.4417C36.141 34.4417 36.6123 34.0634 36.8604 33.4309C37.034 33.1146 37.22 32.9224 37.5487 32.9224C37.9704 32.9224 38.2184 33.2511 38.2184 33.7099Z" fill="black"/>
<path d="M14.5908 11.2699V11.0281C14.5908 9.84363 15.2605 9.03748 16.352 9.03748C17.4434 9.03748 18.0883 9.83123 18.0883 11.0281V11.2699C18.0883 12.4109 17.4372 13.2667 16.3209 13.2667C15.2419 13.2667 14.5908 12.4605 14.5908 11.2699ZM15.614 17.0866L18.6588 13.1675L21.5361 9.40334C21.7222 9.1491 21.9578 9.12429 22.1562 9.21731C22.3547 9.26072 22.4973 9.42815 22.5035 9.63279C22.5097 9.76921 22.4539 9.90564 22.3485 10.0421L19.4773 13.7504L16.4264 17.7315C16.2341 17.9858 15.9923 17.9982 15.8 17.9114C15.6264 17.8741 15.4714 17.7129 15.4652 17.5269C15.4528 17.3905 15.5024 17.2354 15.614 17.0866ZM15.7628 11.0591V11.2389C15.7628 11.9396 15.9861 12.2993 16.3396 12.2993C16.6868 12.2993 16.9101 11.9396 16.9101 11.2389V11.0591C16.9101 10.3583 16.6868 10.0049 16.3396 10.0049C15.9861 10.0049 15.7628 10.3583 15.7628 11.0591ZM19.9114 15.8526V15.6107C19.9114 14.4263 20.5874 13.6201 21.6788 13.6201C22.7702 13.6201 23.4089 14.4139 23.4089 15.6107V15.8526C23.4089 16.9936 22.7578 17.8555 21.6478 17.8555C20.5625 17.8555 19.9114 17.0432 19.9114 15.8526ZM21.0834 15.6417V15.8216C21.0834 16.5223 21.3129 16.8882 21.6602 16.8882C22.0074 16.8882 22.2369 16.5223 22.2369 15.8216V15.6417C22.2369 14.9472 22.0136 14.5875 21.6602 14.5875C21.3067 14.5875 21.0834 14.941 21.0834 15.6417Z" fill="black"/>
<path d="M16.0415 34.0293C16.0415 33.6093 16.3115 33.2893 16.7215 33.2893C16.9815 33.2893 17.1815 33.3993 17.3815 33.6893C17.7615 34.2593 18.2515 34.5493 18.8615 34.5593C19.7415 34.5793 20.4215 34.0193 20.4915 33.1393C20.5715 32.1493 19.9115 31.4493 18.9715 31.4493C18.5515 31.4493 18.1315 31.6093 17.7715 31.8893C17.4015 32.1993 17.2215 32.2693 16.9915 32.2693C16.4815 32.2693 16.1315 31.8993 16.1715 31.3293L16.4115 28.1493C16.4515 27.5593 16.8115 27.2793 17.4915 27.2793H21.0015C21.5015 27.2793 21.7915 27.5293 21.7915 27.9693C21.7915 28.4093 21.5015 28.6493 21.0015 28.6493H17.9215C17.8515 28.6493 17.7815 28.7093 17.7815 28.7793L17.6415 30.5493C17.6315 30.6793 17.7715 30.7493 17.8715 30.6593C18.2415 30.3293 18.8515 30.1693 19.4115 30.1693C21.0215 30.1693 22.1315 31.2893 22.1315 32.9193C22.1315 34.7193 20.8315 35.9293 18.9115 35.9293C17.2315 35.9293 16.0415 34.9793 16.0415 34.0293Z" fill="black"/>
</svg>
