<svg width="54" height="54" viewBox="0 0 54 54" fill="none" xmlns="http://www.w3.org/2000/svg">
<rect x="1.8501" y="1.85001" width="50.3" height="50.3" rx="3" stroke="#16215B" stroke-width="0.28"/>
<path d="M10.2065 37.1479V7.29587C10.2125 6.94394 10.252 6.59091 10.325 6.24582C10.397 5.90085 10.503 5.56381 10.6411 5.23898C10.9141 4.59494 11.3131 4.00095 11.8071 3.50168C12.2961 3.00766 12.8791 2.60556 13.5145 2.32968C13.8315 2.19174 14.1605 2.08578 14.4979 2.01254C14.8349 1.93954 15.1779 1.90048 15.5214 1.89658C19.4174 1.86557 23.3134 1.85056 27.2079 1.85056C31.1049 1.85056 34.9999 1.86557 38.8963 1.8967C39.2393 1.90073 39.5833 1.93967 39.9208 2.01315C40.2568 2.08615 40.5868 2.19308 40.903 2.33005C41.221 2.46799 41.525 2.63705 41.8108 2.83347C42.0978 3.03049 42.3658 3.25449 42.6108 3.50156C42.8578 3.75058 43.0808 4.02158 43.2748 4.31235C43.4708 4.60434 43.6398 4.91428 43.7772 5.23813C43.9142 5.56308 44.0212 5.90109 44.0934 6.24594C44.1664 6.59091 44.2054 6.94394 44.2104 7.29599C44.2104 7.29599 44.2104 37.1479 44.2101 37.1484C44.1891 37.8424 44.0511 38.5384 43.8027 39.1933C43.5557 39.8484 43.1977 40.4624 42.7389 40.9862C42.5089 41.2483 42.2549 41.4873 41.9799 41.6999C41.7069 41.912 41.4139 42.0969 41.1049 42.2539C40.7979 42.4099 40.4769 42.5368 40.1451 42.6314C39.8161 42.7264 39.4771 42.7895 39.1357 42.8154C31.1907 43.2485 23.2267 43.2485 15.2819 42.8154C14.6009 42.7624 13.9259 42.5664 13.3131 42.2549C12.6931 41.9398 12.1351 41.5068 11.6787 40.9869C11.2197 40.4619 10.8627 39.8479 10.6155 39.193C10.3675 38.5379 10.2285 37.843 10.2065 37.1479Z" stroke="#16215B" stroke-width="0.283" stroke-miterlimit="10"/>
<rect x="12.8887" y="5.47165" width="28.63" height="34.35" rx="1.46" stroke="#00FFFF" stroke-width="0.28"/>
<path d="M38.6896 3.5864C31.0756 3.4874 23.3386 3.4874 15.7236 3.5864C15.4318 3.59042 15.1428 3.62143 14.8578 3.68149C14.7868 3.6965 14.7148 3.71249 14.6448 3.73141C14.5748 3.74948 14.5048 3.7695 14.4358 3.79147C14.2978 3.83542 14.1618 3.88449 14.0308 3.9415C13.8978 3.9985 13.7678 4.06149 13.6418 4.13144C13.5778 4.16647 13.5148 4.20346 13.4528 4.24142C13.3908 4.27951 13.3298 4.31943 13.2698 4.36142C13.0318 4.52646 12.8118 4.71445 12.6108 4.92343C12.5098 5.02744 12.4148 5.13742 12.3248 5.25351C12.2788 5.31052 12.2358 5.36948 12.1928 5.42941C12.1508 5.48849 12.1108 5.54843 12.0718 5.61044C11.9148 5.85544 11.7838 6.11447 11.6768 6.38644C11.6508 6.45444 11.6248 6.52341 11.6018 6.59348C11.5778 6.66342 11.5558 6.73349 11.5358 6.80344C11.4948 6.94443 11.4618 7.0864 11.4348 7.23044C11.3818 7.51645 11.3548 7.80649 11.3548 8.10251C11.3526 17.5191 11.3516 26.9371 11.3496 36.3541C11.3497 36.6476 11.3707 36.9375 11.4137 37.2235C11.4357 37.3665 11.4617 37.5085 11.4947 37.6505C11.5107 37.7215 11.5287 37.7915 11.5477 37.8615C11.5667 37.9325 11.5877 38.0025 11.6097 38.0725C11.6987 38.3506 11.8087 38.6195 11.9427 38.8766C11.9767 38.9415 12.0117 39.0055 12.0477 39.0686C12.0837 39.1316 12.1217 39.1936 12.1617 39.2545C12.2407 39.3756 12.3237 39.4935 12.4127 39.6056C12.5017 39.7185 12.5967 39.8275 12.6967 39.9315C12.7467 39.9825 12.7977 40.0335 12.8517 40.0835C12.9047 40.1325 12.9587 40.1815 13.0137 40.2275C13.2357 40.4126 13.4727 40.5725 13.7267 40.7065C13.7897 40.7395 13.8547 40.7716 13.9197 40.8015C13.9857 40.8315 14.0527 40.8595 14.1197 40.8866C14.2537 40.9386 14.3907 40.9835 14.5287 41.0216C14.8047 41.0965 15.0867 41.1425 15.3767 41.1576C23.2191 41.5847 31.1931 41.5847 39.0351 41.1577C39.3263 41.1417 39.6093 41.0958 39.8853 41.0217C40.0233 40.9837 40.1593 40.9387 40.2933 40.8867C40.3603 40.8597 40.4273 40.8318 40.4933 40.8017C40.5593 40.7707 40.6243 40.7387 40.6873 40.7048C40.9433 40.5708 41.1803 40.4107 41.3993 40.2258C41.5103 40.1338 41.6153 40.0348 41.7173 39.9308C41.7663 39.8788 41.8163 39.8248 41.8633 39.7697C41.9113 39.7158 41.9573 39.6598 42.0023 39.6037C42.1803 39.3778 42.3353 39.1367 42.4683 38.8818C42.5343 38.7538 42.5963 38.6228 42.6513 38.4878C42.6793 38.4207 42.7063 38.3528 42.7303 38.2838C42.7563 38.2158 42.7793 38.1467 42.8023 38.0768C42.8893 37.7998 42.9543 37.5167 42.9983 37.2297C43.0093 37.1577 43.0173 37.0847 43.0263 37.0128C43.0343 36.9398 43.0413 36.8668 43.0463 36.7938C43.0573 36.6478 43.0623 36.5007 43.0623 36.3547C43.0606 26.9375 43.0596 17.5195 43.0587 8.10202C43.0577 7.8071 43.0317 7.51413 42.9767 7.22409C42.9497 7.07907 42.9147 6.93613 42.8747 6.79611C42.8337 6.6561 42.7877 6.51804 42.7347 6.38303C42.6807 6.24704 42.6217 6.11411 42.5547 5.9841C42.5217 5.91904 42.4877 5.8541 42.4507 5.79013C42.4137 5.72702 42.3757 5.66403 42.3367 5.60202C42.1797 5.35703 41.9997 5.12912 41.7987 4.92014C41.7487 4.86813 41.6977 4.81711 41.6447 4.76706C41.5907 4.71713 41.5377 4.66806 41.4807 4.62106C41.3697 4.52609 41.2537 4.43808 41.1357 4.35605C40.8977 4.19308 40.6457 4.05405 40.3787 3.94003C40.3127 3.91208 40.2447 3.8851 40.1757 3.8591C40.1077 3.83408 40.0387 3.81003 39.9697 3.78903C39.8307 3.74606 39.6917 3.70908 39.5507 3.68002C39.2687 3.62204 38.9827 3.59006 38.6896 3.5864Z" stroke="#FF00FF" stroke-width="0.283465" stroke-miterlimit="10" stroke-linecap="round" stroke-linejoin="round"/>
<path d="M36.0301 35.4991V34.0291C36.0301 33.0891 36.3401 32.9791 36.6701 32.8791C36.9601 32.7891 37.2201 32.6091 37.2201 32.1391C37.2201 31.6291 36.9201 31.4591 36.6501 31.3791C36.3501 31.2891 36.0301 31.1691 36.0301 30.2391V29.0091C36.0301 27.4191 35.1401 26.8491 33.8601 26.8491C33.3401 26.8491 32.9001 26.9391 32.9001 27.4791C32.9001 27.8391 33.0901 27.9691 33.4901 28.0491C33.9701 28.1491 34.4801 28.1891 34.4801 29.2591V30.6891C34.4801 31.3691 34.7201 31.8091 35.1701 32.0191C35.2801 32.0691 35.2801 32.2191 35.1701 32.2791C34.7101 32.5091 34.4701 32.9891 34.4701 33.6691V35.2791C34.4701 36.3591 33.9601 36.3991 33.4801 36.4891C33.0801 36.5691 32.8901 36.6991 32.8901 37.0491C32.8901 37.3791 33.1501 37.6491 33.4801 37.6691C34.9601 37.7891 36.0201 37.2391 36.0201 35.4991H36.0301Z" fill="black"/>
<path d="M15.769 13.7256V13.3287C15.769 10.7862 16.9845 9.1243 18.9999 9.1243C21.0214 9.1243 22.2121 10.7676 22.2121 13.3287V13.7256C22.2121 16.2618 20.9842 17.93 18.975 17.93C16.9659 17.93 15.769 16.2804 15.769 13.7256ZM17.4434 13.3349V13.7132C17.4434 15.4991 18.0263 16.5657 18.9875 16.5657C19.9486 16.5657 20.5315 15.4991 20.5315 13.7132V13.3349C20.5315 11.5552 19.9486 10.4886 18.9875 10.4886C18.0263 10.4886 17.4434 11.549 17.4434 13.3349Z" fill="black"/>
<path fill-rule="evenodd" clip-rule="evenodd" d="M17.7906 26.1763L18.5224 27.0135C18.6154 27.1189 18.7456 27.1933 18.9006 27.1933C19.1611 27.1933 19.3905 26.9639 19.3905 26.6848C19.3905 26.5732 19.3409 26.4678 19.2851 26.381L18.696 25.488C18.5472 25.2709 18.3859 25.2275 18.2247 25.2275C17.9208 25.2275 17.6604 25.488 17.6604 25.798C17.6604 25.9407 17.71 26.0771 17.7906 26.1763ZM18.7763 33.6588C18.1376 33.6588 17.7036 33.2806 17.7036 32.735C17.7036 32.1956 18.1006 31.8731 18.7702 31.8731H19.8933C19.9715 31.8731 20.035 31.9365 20.035 32.0148V32.5551C20.035 33.1752 19.4831 33.6588 18.7763 33.6588ZM16.0791 32.8342C16.0791 34.0308 16.9471 34.8369 18.2306 34.8369C19.0464 34.8369 19.6273 34.466 19.9094 34.2358C19.9883 34.1714 20.1077 34.2081 20.1354 34.3061C20.2294 34.6391 20.5176 34.812 20.8718 34.812C21.3802 34.812 21.6654 34.4958 21.6654 33.9378V30.3416C21.6654 28.8845 20.6982 28.0661 18.9745 28.0661C18.2552 28.0661 17.7034 28.1901 17.288 28.4071C16.7114 28.6986 16.4448 29.0892 16.4448 29.4736C16.4448 29.8084 16.668 30.0502 17.0276 30.0502C17.2942 30.0502 17.4678 29.982 17.6538 29.8332C18.0197 29.5046 18.3731 29.3186 18.8691 29.3186C19.6194 29.3186 20.0348 29.6659 20.0348 30.3293V30.727C20.0348 30.8052 19.9714 30.8687 19.8931 30.8687H18.4724C16.9781 30.8687 16.0791 31.6376 16.0791 32.8342Z" fill="black"/>
</svg>
