<svg width="54" height="54" viewBox="0 0 54 54" fill="none" xmlns="http://www.w3.org/2000/svg">
<rect x="1.8501" y="1.85001" width="50.3" height="50.3" rx="3" stroke="#16215B" stroke-width="0.28"/>
<path d="M10.2065 37.1479V7.29587C10.2125 6.94394 10.252 6.59091 10.325 6.24582C10.397 5.90085 10.503 5.56381 10.6411 5.23898C10.9141 4.59494 11.3131 4.00095 11.8071 3.50168C12.2961 3.00766 12.8791 2.60556 13.5145 2.32968C13.8315 2.19174 14.1605 2.08578 14.4979 2.01254C14.8349 1.93954 15.1779 1.90048 15.5214 1.89658C19.4174 1.86557 23.3134 1.85056 27.2079 1.85056C31.1049 1.85056 34.9999 1.86557 38.8963 1.8967C39.2393 1.90073 39.5833 1.93967 39.9208 2.01315C40.2568 2.08615 40.5868 2.19308 40.903 2.33005C41.221 2.46799 41.525 2.63705 41.8108 2.83347C42.0978 3.03049 42.3658 3.25449 42.6108 3.50156C42.8578 3.75058 43.0808 4.02158 43.2748 4.31235C43.4708 4.60434 43.6398 4.91428 43.7772 5.23813C43.9142 5.56308 44.0212 5.90109 44.0934 6.24594C44.1664 6.59091 44.2054 6.94394 44.2104 7.29599C44.2104 7.29599 44.2104 37.1479 44.2101 37.1484C44.1891 37.8424 44.0511 38.5384 43.8027 39.1933C43.5557 39.8484 43.1977 40.4624 42.7389 40.9862C42.5089 41.2483 42.2549 41.4873 41.9799 41.6999C41.7069 41.912 41.4139 42.0969 41.1049 42.2539C40.7979 42.4099 40.4769 42.5368 40.1451 42.6314C39.8161 42.7264 39.4771 42.7895 39.1357 42.8154C31.1907 43.2485 23.2267 43.2485 15.2819 42.8154C14.6009 42.7624 13.9259 42.5664 13.3131 42.2549C12.6931 41.9398 12.1351 41.5068 11.6787 40.9869C11.2197 40.4619 10.8627 39.8479 10.6155 39.193C10.3675 38.5379 10.2285 37.843 10.2065 37.1479Z" stroke="#16215B" stroke-width="0.283" stroke-miterlimit="10"/>
<rect x="12.8887" y="5.47166" width="28.63" height="34.35" rx="1.46" stroke="#00FFFF" stroke-width="0.28"/>
<path d="M38.6896 3.5864C31.0756 3.4874 23.3386 3.4874 15.7236 3.5864C15.4318 3.59042 15.1428 3.62143 14.8578 3.68149C14.7868 3.6965 14.7148 3.71249 14.6448 3.73141C14.5748 3.74948 14.5048 3.7695 14.4358 3.79147C14.2978 3.83542 14.1618 3.88449 14.0308 3.9415C13.8978 3.9985 13.7678 4.06149 13.6418 4.13144C13.5778 4.16647 13.5148 4.20346 13.4528 4.24142C13.3908 4.27951 13.3298 4.31943 13.2698 4.36142C13.0318 4.52646 12.8118 4.71445 12.6108 4.92343C12.5098 5.02744 12.4148 5.13742 12.3248 5.25351C12.2788 5.31052 12.2358 5.36948 12.1928 5.42941C12.1508 5.48849 12.1108 5.54843 12.0718 5.61044C11.9148 5.85544 11.7838 6.11447 11.6768 6.38644C11.6508 6.45444 11.6248 6.52341 11.6018 6.59348C11.5778 6.66342 11.5558 6.73349 11.5358 6.80344C11.4948 6.94443 11.4618 7.0864 11.4348 7.23044C11.3818 7.51645 11.3548 7.80649 11.3548 8.10251C11.3526 17.5191 11.3516 26.9371 11.3496 36.3541C11.3497 36.6476 11.3707 36.9375 11.4137 37.2235C11.4357 37.3665 11.4617 37.5085 11.4947 37.6505C11.5107 37.7215 11.5287 37.7915 11.5477 37.8615C11.5667 37.9325 11.5877 38.0025 11.6097 38.0725C11.6987 38.3506 11.8087 38.6195 11.9427 38.8766C11.9767 38.9415 12.0117 39.0055 12.0477 39.0686C12.0837 39.1316 12.1217 39.1936 12.1617 39.2545C12.2407 39.3756 12.3237 39.4935 12.4127 39.6056C12.5017 39.7185 12.5967 39.8275 12.6967 39.9315C12.7467 39.9825 12.7977 40.0335 12.8517 40.0835C12.9047 40.1325 12.9587 40.1815 13.0137 40.2275C13.2357 40.4126 13.4727 40.5725 13.7267 40.7065C13.7897 40.7395 13.8547 40.7716 13.9197 40.8015C13.9857 40.8315 14.0527 40.8595 14.1197 40.8866C14.2537 40.9386 14.3907 40.9835 14.5287 41.0216C14.8047 41.0965 15.0867 41.1425 15.3767 41.1576C23.2191 41.5847 31.1931 41.5847 39.0351 41.1577C39.3263 41.1417 39.6093 41.0958 39.8853 41.0217C40.0233 40.9837 40.1593 40.9387 40.2933 40.8867C40.3603 40.8597 40.4273 40.8318 40.4933 40.8017C40.5593 40.7707 40.6243 40.7387 40.6873 40.7048C40.9433 40.5708 41.1803 40.4107 41.3993 40.2258C41.5103 40.1338 41.6153 40.0348 41.7173 39.9308C41.7663 39.8788 41.8163 39.8248 41.8633 39.7697C41.9113 39.7158 41.9573 39.6598 42.0023 39.6037C42.1803 39.3778 42.3353 39.1367 42.4683 38.8818C42.5343 38.7538 42.5963 38.6228 42.6513 38.4878C42.6793 38.4207 42.7063 38.3528 42.7303 38.2838C42.7563 38.2158 42.7793 38.1467 42.8023 38.0768C42.8893 37.7998 42.9543 37.5167 42.9983 37.2297C43.0093 37.1577 43.0173 37.0847 43.0263 37.0128C43.0343 36.9398 43.0413 36.8668 43.0463 36.7938C43.0573 36.6478 43.0623 36.5007 43.0623 36.3547C43.0606 26.9375 43.0596 17.5195 43.0587 8.10202C43.0577 7.8071 43.0317 7.51413 42.9767 7.22409C42.9497 7.07907 42.9147 6.93613 42.8747 6.79611C42.8337 6.6561 42.7877 6.51804 42.7347 6.38303C42.6807 6.24704 42.6217 6.11411 42.5547 5.9841C42.5217 5.91904 42.4877 5.8541 42.4507 5.79013C42.4137 5.72702 42.3757 5.66403 42.3367 5.60202C42.1797 5.35703 41.9997 5.12912 41.7987 4.92014C41.7487 4.86813 41.6977 4.81711 41.6447 4.76706C41.5907 4.71713 41.5377 4.66806 41.4807 4.62106C41.3697 4.52609 41.2537 4.43808 41.1357 4.35605C40.8977 4.19308 40.6457 4.05405 40.3787 3.94003C40.3127 3.91208 40.2447 3.8851 40.1757 3.8591C40.1077 3.83408 40.0387 3.81003 39.9697 3.78903C39.8307 3.74606 39.6917 3.70908 39.5507 3.68002C39.2687 3.62204 38.9827 3.59006 38.6896 3.5864Z" stroke="#FF00FF" stroke-width="0.283465" stroke-miterlimit="10" stroke-linecap="round" stroke-linejoin="round"/>
<path d="M18.9471 16.9197V11.1497C18.9471 11.0297 18.8171 10.9697 18.7271 11.0297L18.0671 11.4997C17.8271 11.6597 17.6771 11.7197 17.5171 11.7297C17.1671 11.7497 16.8871 11.5097 16.8671 11.1597C16.8571 10.8897 17.0171 10.6497 17.3471 10.4297L18.4571 9.65971C18.9071 9.35971 19.2571 9.22971 19.6071 9.22971C20.2071 9.22971 20.6071 9.64971 20.6071 10.2697V16.9197C20.6071 17.4897 20.3071 17.8197 19.7771 17.8197C19.2471 17.8197 18.9571 17.4897 18.9571 16.9197H18.9471Z" fill="black"/>
<path d="M15.335 33.5425C15.335 32.6371 15.8 31.9116 16.8108 31.3349C16.8579 31.3035 16.9819 31.2349 17.0948 31.1746C17.1781 31.1302 17.197 31.0177 17.1329 30.9484C16.4739 30.236 16.2217 29.7355 16.2217 29.1583C16.2217 28.0111 17.2201 27.1739 18.5658 27.1739C19.9176 27.1739 20.8788 27.9801 20.8788 29.1397C20.8788 29.9565 20.393 30.6151 19.3134 31.2288C19.2339 31.274 19.2153 31.3819 19.2774 31.4491L20.7096 33.0024C20.7745 33.0728 20.8887 33.0584 20.9248 32.9698C21.0787 32.5925 21.1517 32.0706 21.1517 31.3845V31.2481C21.1517 30.845 21.4307 30.5535 21.8028 30.5535C22.1811 30.5535 22.4601 30.845 22.4601 31.2481V31.4527C22.4601 32.4902 22.236 33.3707 21.8303 33.9986C21.7939 34.055 21.7993 34.1294 21.8459 34.1777L22.4353 34.7889C22.5531 34.9192 22.6089 35.068 22.6089 35.2354C22.6089 35.5951 22.3175 35.8928 21.9516 35.8928C21.7656 35.8928 21.5733 35.8121 21.4369 35.6695L20.9284 35.1295C20.8766 35.0745 20.7906 35.0708 20.7318 35.1182C20.0958 35.6301 19.1887 35.9362 18.2371 35.9362C16.4946 35.9362 15.335 34.9688 15.335 33.5425ZM18.3127 30.5059C18.3559 30.5491 18.4229 30.5588 18.4763 30.5292C19.2219 30.1167 19.5146 29.7639 19.5146 29.2389C19.5146 28.6684 19.1239 28.2715 18.5534 28.2715C17.9891 28.2715 17.586 28.6684 17.586 29.2389C17.586 29.6428 17.7737 29.9671 18.3127 30.5059ZM17.71 32.0914C17.0961 32.4511 16.8294 32.8852 16.8294 33.4247C16.8294 34.2184 17.4682 34.7579 18.4107 34.7579C18.9762 34.7579 19.5417 34.5475 19.9182 34.2041C19.9723 34.1548 19.9724 34.0713 19.9228 34.0173L18.0686 31.9971C18.0284 31.9533 17.9654 31.9409 17.9131 31.9691C17.8368 32.0103 17.7386 32.067 17.71 32.0914Z" fill="black"/>
</svg>
