<svg width="108" height="54" viewBox="0 0 108 54" fill="none" xmlns="http://www.w3.org/2000/svg">
<path d="M96.347 40.9107C95.8721 41.4247 95.2961 41.8487 94.6602 42.1466C94.0284 42.443 93.3364 42.615 92.6455 42.6559C79.7662 43.0701 66.8812 43.276 53.9952 43.276C41.1096 43.277 28.2246 43.07 15.3456 42.6559C14.6539 42.6164 13.9629 42.4334 13.3329 42.1383C13.0157 41.9897 12.7126 41.8127 12.4297 41.6066C12.1456 41.4009 11.8806 41.1669 11.6426 40.9088C11.4028 40.651 11.1909 40.369 11.0049 40.07C10.8201 39.7711 10.6631 39.4551 10.5342 39.1271C10.2783 38.4744 10.1313 37.7735 10.1104 37.0753V7.25406C10.1154 6.90274 10.1555 6.55081 10.2305 6.20572C10.3046 5.86136 10.4146 5.52432 10.5566 5.2023C10.6982 4.87991 10.8723 4.57193 11.0743 4.28384C11.2758 3.99612 11.5048 3.72806 11.7568 3.48404C12.0091 3.24039 12.2831 3.02029 12.5751 2.82828C12.8671 2.63663 13.1771 2.47159 13.4991 2.33755C13.8201 2.20401 14.1531 2.10001 14.4941 2.02896C14.8353 1.95877 15.1813 1.91971 15.5284 1.91666C41.1729 1.79568 66.8169 1.79568 92.4619 1.91666C92.8091 1.92007 93.156 1.95804 93.4961 2.02896C93.8372 2.09964 94.1711 2.20364 94.4922 2.33755C94.813 2.47232 95.124 2.63638 95.415 2.82828C95.7084 3.02115 95.9823 3.24014 96.2344 3.48306C96.4869 3.72696 96.7159 3.9949 96.918 4.28287C97.1195 4.57193 97.2925 4.87991 97.4346 5.20181C97.5757 5.52481 97.6857 5.86075 97.7607 6.20572C97.8348 6.55008 97.8749 6.90213 97.8799 7.25406V37.0753C97.8579 37.7746 97.7189 38.4756 97.4606 39.1294C97.2015 39.7853 96.8256 40.3933 96.347 40.9107Z" stroke="#16215B" stroke-width="0.283" stroke-miterlimit="10"/>
<path d="M94.3457 40.2985H13.6487C12.4744 40.2986 11.5225 39.3466 11.5225 38.1725V6.59558C11.5224 5.42139 12.4744 4.46936 13.6484 4.46936H94.3453C95.5197 4.46936 96.4717 5.42139 96.4717 6.59534V38.1725C96.4717 39.3466 95.5197 40.2985 94.3457 40.2985Z" stroke="#00FFFF" stroke-width="0.28" stroke-miterlimit="10"/>
<path d="M96.9307 33.4842V36.338C96.9308 36.636 96.9078 36.9311 96.8608 37.224C96.8489 37.297 96.8358 37.37 96.8198 37.443C96.8058 37.516 96.7888 37.589 96.7719 37.6601C96.7338 37.804 96.6918 37.9461 96.6448 38.085C96.5958 38.224 96.5408 38.361 96.4799 38.495C96.4188 38.63 96.3508 38.761 96.2759 38.89C96.1268 39.1481 95.9548 39.387 95.7598 39.6071C95.6619 39.7161 95.5588 39.8211 95.4479 39.922C95.3938 39.9711 95.3368 40.0201 95.2798 40.067C95.2228 40.114 95.1638 40.1591 95.1058 40.203C94.8678 40.3771 94.6138 40.5241 94.3458 40.6451C94.2778 40.6751 94.2098 40.703 94.1409 40.73C94.0708 40.757 94.0018 40.782 93.9318 40.8051C93.7908 40.8511 93.6498 40.89 93.5059 40.922C93.2198 40.985 92.9279 41.0201 92.6299 41.028C66.9102 41.7021 41.0852 41.7021 15.3643 41.028C15.2155 41.0241 15.0674 41.0131 14.9194 40.9951C14.8455 40.9861 14.7725 40.9751 14.6984 40.963C14.6254 40.9501 14.5524 40.9361 14.4805 40.9201C14.1924 40.8561 13.9135 40.7631 13.6434 40.6421C13.5764 40.6111 13.5084 40.5791 13.4434 40.5451C13.3765 40.5111 13.3115 40.4751 13.2485 40.4381C13.1204 40.3631 12.9974 40.2821 12.8784 40.1951C12.6425 40.0211 12.4255 39.8221 12.2285 39.5992C12.1785 39.5431 12.1304 39.4861 12.0845 39.4281C12.0394 39.3701 11.9944 39.3122 11.9514 39.2521C11.8665 39.1321 11.7875 39.0091 11.7134 38.8821C11.5674 38.6291 11.4465 38.3601 11.3484 38.0791C11.3245 38.0091 11.3005 37.9381 11.2805 37.8671C11.2584 37.7961 11.2394 37.7251 11.2214 37.6531C11.1854 37.5102 11.1564 37.3661 11.1324 37.2201C11.0854 36.9301 11.0635 36.6361 11.0635 36.338V33.4845C11.0654 25.055 11.0663 16.625 11.0674 8.19595C11.0673 8.04459 11.0753 7.89261 11.0903 7.74161C11.0974 7.66666 11.1074 7.59061 11.1193 7.51663C11.1304 7.44058 11.1434 7.36661 11.1594 7.29263C11.2194 6.99564 11.3093 6.70963 11.4274 6.43362C11.4874 6.29568 11.5533 6.16068 11.6284 6.02762C11.7023 5.89566 11.7823 5.76761 11.8683 5.64468C12.0413 5.39969 12.2363 5.17361 12.4564 4.96658C12.5103 4.91568 12.5663 4.86465 12.6254 4.81558C12.6824 4.76663 12.7413 4.71866 12.8004 4.67264C12.9203 4.5817 13.0433 4.49661 13.1703 4.41763C13.4224 4.25967 13.6913 4.12662 13.9724 4.01859C14.0433 3.99161 14.1143 3.96561 14.1863 3.94168C14.2573 3.91861 14.3303 3.89664 14.4023 3.87662C14.5474 3.8367 14.6923 3.80264 14.8383 3.77469C15.1323 3.72061 15.4313 3.69266 15.7344 3.69058C41.2087 3.52762 66.7847 3.52762 92.2607 3.69058C92.5637 3.69302 92.8617 3.72098 93.1556 3.77505C93.3018 3.80203 93.4478 3.83597 93.5917 3.87601C93.6637 3.897 93.7367 3.91898 93.8087 3.94205C93.8796 3.96597 93.9507 3.991 94.0217 4.01797C94.3037 4.12698 94.5717 4.25906 94.8237 4.41702C94.9507 4.496 95.0737 4.58096 95.1937 4.673C95.2527 4.71902 95.3127 4.76602 95.3698 4.81607C95.4277 4.86502 95.4847 4.91507 95.5387 4.96707C95.7577 5.17398 95.9537 5.40005 96.1257 5.64505C96.2117 5.767 96.2927 5.89505 96.3657 6.02798C96.4407 6.16006 96.5077 6.29703 96.5677 6.43607C96.5977 6.50504 96.6248 6.57498 96.6517 6.647C96.6777 6.71805 96.7017 6.79007 96.7247 6.86197C96.7697 7.00699 96.8077 7.15201 96.8367 7.29898C96.8967 7.59305 96.9268 7.892 96.9266 8.19608C96.9276 16.6252 96.9296 25.0551 96.9307 33.4842Z" stroke="#FF00FF" stroke-width="0.283465" stroke-miterlimit="10" stroke-linecap="round" stroke-linejoin="round"/>
<path d="M92.2985 52.01V51.5626L93.9789 49.7231C94.1761 49.5076 94.3385 49.3204 94.4661 49.1613C94.5937 49.0005 94.6882 48.8497 94.7495 48.7089C94.8124 48.5664 94.8439 48.4172 94.8439 48.2614C94.8439 48.0825 94.8008 47.9275 94.7147 47.7966C94.6301 47.6657 94.5141 47.5646 94.3667 47.4933C94.2192 47.4221 94.0534 47.3864 93.8695 47.3864C93.6739 47.3864 93.5033 47.427 93.3574 47.5082C93.2132 47.5878 93.1014 47.6996 93.0218 47.8438C92.944 47.988 92.905 48.157 92.905 48.3509H92.3184C92.3184 48.0526 92.3871 47.7908 92.5247 47.5654C92.6622 47.34 92.8495 47.1644 93.0865 47.0384C93.3251 46.9125 93.5927 46.8495 93.8894 46.8495C94.1877 46.8495 94.452 46.9125 94.6824 47.0384C94.9127 47.1644 95.0933 47.3342 95.2243 47.548C95.3552 47.7618 95.4206 47.9996 95.4206 48.2614C95.4206 48.4487 95.3867 48.6318 95.3187 48.8108C95.2524 48.9881 95.1364 49.1861 94.9707 49.4049C94.8066 49.622 94.5788 49.8871 94.2871 50.2004L93.1436 51.4234V51.4631H95.5101V52.01H92.2985ZM96.9743 52.0498C96.8516 52.0498 96.7464 52.0059 96.6586 51.918C96.5707 51.8302 96.5268 51.725 96.5268 51.6023C96.5268 51.4797 96.5707 51.3745 96.6586 51.2866C96.7464 51.1988 96.8516 51.1549 96.9743 51.1549C97.0969 51.1549 97.2021 51.1988 97.29 51.2866C97.3778 51.3745 97.4217 51.4797 97.4217 51.6023C97.4217 51.6835 97.401 51.7581 97.3596 51.8261C97.3198 51.894 97.2659 51.9487 97.198 51.9901C97.1317 52.0299 97.0571 52.0498 96.9743 52.0498ZM99.9473 52.0796C99.5727 52.0796 99.2537 51.9777 98.9902 51.7739C98.7267 51.5684 98.5254 51.2709 98.3862 50.8815C98.247 50.4904 98.1774 50.0181 98.1774 49.4646C98.1774 48.9144 98.247 48.4446 98.3862 48.0551C98.527 47.664 98.7292 47.3657 98.9927 47.1602C99.2579 46.9531 99.5761 46.8495 99.9473 46.8495C100.318 46.8495 100.636 46.9531 100.899 47.1602C101.164 47.3657 101.367 47.664 101.506 48.0551C101.647 48.4446 101.717 48.9144 101.717 49.4646C101.717 50.0181 101.648 50.4904 101.508 50.8815C101.369 51.2709 101.168 51.5684 100.904 51.7739C100.641 51.9777 100.322 52.0796 99.9473 52.0796ZM99.9473 51.5327C100.318 51.5327 100.607 51.3538 100.812 50.9958C101.018 50.6379 101.121 50.1274 101.121 49.4646C101.121 49.0237 101.073 48.6484 100.979 48.3385C100.886 48.0286 100.752 47.7924 100.576 47.63C100.402 47.4676 100.193 47.3864 99.9473 47.3864C99.5794 47.3864 99.2918 47.5679 99.0847 47.9308C98.8775 48.2921 98.774 48.8033 98.774 49.4646C98.774 49.9054 98.8204 50.2799 98.9132 50.5881C99.006 50.8964 99.1394 51.1309 99.3134 51.2916C99.4891 51.4524 99.7003 51.5327 99.9473 51.5327ZM104.322 52.0796C103.948 52.0796 103.629 51.9777 103.365 51.7739C103.102 51.5684 102.9 51.2709 102.761 50.8815C102.622 50.4904 102.552 50.0181 102.552 49.4646C102.552 48.9144 102.622 48.4446 102.761 48.0551C102.902 47.664 103.104 47.3657 103.368 47.1602C103.633 46.9531 103.951 46.8495 104.322 46.8495C104.693 46.8495 105.011 46.9531 105.274 47.1602C105.539 47.3657 105.742 47.664 105.881 48.0551C106.022 48.4446 106.092 48.9144 106.092 49.4646C106.092 50.0181 106.023 50.4904 105.883 50.8815C105.744 51.2709 105.543 51.5684 105.279 51.7739C105.016 51.9777 104.697 52.0796 104.322 52.0796ZM104.322 51.5327C104.693 51.5327 104.982 51.3538 105.187 50.9958C105.393 50.6379 105.496 50.1274 105.496 49.4646C105.496 49.0237 105.448 48.6484 105.354 48.3385C105.261 48.0286 105.127 47.7924 104.951 47.63C104.777 47.4676 104.568 47.3864 104.322 47.3864C103.954 47.3864 103.667 47.5679 103.46 47.9308C103.253 48.2921 103.149 48.8033 103.149 49.4646C103.149 49.9054 103.195 50.2799 103.288 50.5881C103.381 50.8964 103.514 51.1309 103.688 51.2916C103.864 51.4524 104.075 51.5327 104.322 51.5327Z" fill="#0000FF"/>
<path fill-rule="evenodd" clip-rule="evenodd" d="M22.195 16.9962C22.0188 16.9962 21.8507 17.0645 21.727 17.1882L17.617 21.2982C17.3543 21.5609 17.3543 21.9714 17.617 22.2341L17.6183 22.2353L21.727 26.3641C21.8507 26.4875 22.0191 26.5562 22.195 26.5562H31.275C31.6194 26.5562 31.895 26.2775 31.895 25.9362V17.6162C31.895 17.2718 31.6164 16.9962 31.275 16.9962H22.195ZM20.723 16.1841C21.1193 15.7878 21.6512 15.5762 22.195 15.5762H31.275C32.3936 15.5762 33.315 16.4806 33.315 17.6162V25.9362C33.315 27.0548 32.4106 27.9762 31.275 27.9762H22.195C21.6512 27.9762 21.1193 27.7645 20.723 27.3682L20.7217 27.367L16.613 23.2382L16.6122 23.2375C15.7957 22.4201 15.7959 21.1111 16.613 20.2941L20.723 16.1841ZM29.2871 18.9941C29.5644 19.2714 29.5644 19.721 29.2871 19.9982L27.6213 21.664C27.5666 21.7188 27.5666 21.8075 27.6214 21.8621L29.2865 23.5236C29.5641 23.8006 29.5646 24.2501 29.2876 24.5277C29.0107 24.8053 28.5611 24.8058 28.2835 24.5288L26.6171 22.866C26.5624 22.8114 26.4738 22.8115 26.4192 22.8661L24.7571 24.5282C24.4798 24.8055 24.0303 24.8055 23.753 24.5282C23.4757 24.251 23.4757 23.8014 23.753 23.5241L25.4138 21.8634C25.4685 21.8086 25.4685 21.7199 25.4137 21.6653L23.7435 19.9988C23.466 19.7218 23.4655 19.2723 23.7424 18.9947C24.0194 18.7171 24.4689 18.7166 24.7465 18.9936L26.418 20.6614C26.4727 20.716 26.5612 20.7159 26.6159 20.6613L28.283 18.9941C28.5603 18.7169 29.0098 18.7169 29.2871 18.9941Z" fill="black"/>
<path d="M40.2862 24.7688H39.0216C38.9433 24.7688 38.8799 24.7053 38.8799 24.6271V22.7084C38.8799 22.6301 38.9434 22.5667 39.0216 22.5667H40.2325C41.1993 22.5667 41.7071 22.9427 41.7071 23.6605C41.7071 24.3783 41.2139 24.7689 40.2862 24.7689V24.7688ZM38.8799 19.8274C38.8799 19.7491 38.9434 19.6857 39.0216 19.6857H40.2276C40.9796 19.6857 41.4044 20.0324 41.4044 20.6476C41.4044 21.3019 40.9112 21.673 40.0323 21.673H39.0216C38.9433 21.673 38.8799 21.6095 38.8799 21.5313V19.8274ZM41.8385 22.1239C41.7218 22.083 41.7101 21.924 41.8188 21.865C42.3098 21.5985 42.6495 21.0505 42.6495 20.4619C42.6495 19.3926 41.8242 18.7041 40.5449 18.7041H38.25C37.8594 18.7041 37.6201 18.9482 37.6201 19.3584V25.0958C37.6201 25.506 37.8594 25.7501 38.25 25.7501H40.5742C42.0781 25.7501 42.9912 24.9884 42.9912 23.7481C42.9912 22.9785 42.5356 22.3683 41.8385 22.1239Z" fill="black"/>
<path d="M46.2358 20.4668C45.2446 20.4668 44.673 20.8071 44.3807 21.1346C44.2114 21.3243 44.1897 21.7238 44.4219 21.9095C44.6933 22.1265 45.148 21.9641 45.3042 21.7721C45.4444 21.5997 45.7592 21.4246 46.1869 21.419C46.7874 21.4111 47.1537 21.7315 47.1537 22.2735V22.533C47.1537 22.5593 47.1332 22.581 47.1069 22.5825L45.7816 22.658C44.522 22.736 43.814 23.3525 43.814 24.2704C43.814 25.1883 44.544 25.8329 45.5425 25.8329C46.2668 25.8329 46.8036 25.6048 47.0438 25.4795C47.1138 25.443 47.1993 25.4711 47.2356 25.5412C47.3036 25.6725 47.4527 25.8475 47.7641 25.8475C48.1059 25.8475 48.3549 25.6278 48.3549 25.2372V22.1855C48.3549 21.1455 47.52 20.4668 46.2358 20.4668ZM47.1538 23.831C47.1538 24.456 46.5972 24.915 45.9136 24.915C45.3863 24.915 45.0298 24.6465 45.0298 24.2217C45.0298 23.7969 45.3667 23.5479 45.9526 23.5088L47.1011 23.4388C47.1296 23.4371 47.1537 23.4597 47.1537 23.4883V23.8311L47.1538 23.831Z" fill="black"/>
<path d="M51.6954 25.8526C50.1817 25.8526 49.2051 24.8272 49.2051 23.167C49.2051 21.5068 50.1768 20.4668 51.6856 20.4668C52.7012 20.4668 53.5655 20.9893 53.8145 21.7168C53.8536 21.8193 53.878 21.9219 53.878 22.0098C53.878 22.3125 53.6485 22.4981 53.3555 22.4981C53.1114 22.4981 52.9649 22.3956 52.8233 22.1514C52.5645 21.6778 52.2227 21.4532 51.7198 21.4532C50.9385 21.4532 50.4405 22.1026 50.4405 23.1622C50.4405 24.2218 50.9434 24.8712 51.7149 24.8712C52.252 24.8712 52.584 24.6222 52.8184 24.2071C52.9844 23.9337 53.1163 23.8311 53.3799 23.8311C53.668 23.8311 53.8926 24.0264 53.8926 24.3292C53.8926 24.422 53.8682 24.5245 53.8194 24.6417C53.5313 25.3497 52.6719 25.8526 51.6954 25.8526Z" fill="black"/>
<path d="M55.3531 25.8478C54.9967 25.8478 54.7427 25.6183 54.7427 25.2081V19.2461C54.7427 18.8359 54.9966 18.6064 55.3531 18.6064C55.7096 18.6064 55.9586 18.8359 55.9586 19.2461V22.3881C55.9586 22.514 56.1104 22.5774 56.1999 22.4889L58.0045 20.706C58.1608 20.54 58.2926 20.4716 58.4781 20.4716C58.7808 20.4716 59.0103 20.7011 59.0103 20.9941C59.0103 21.1748 58.9566 21.2871 58.7906 21.4433L57.4106 22.7502C57.3571 22.8009 57.3513 22.8841 57.3974 22.9416L58.9371 24.8662C59.0641 25.042 59.1031 25.1494 59.1031 25.3057C59.1031 25.6231 58.8638 25.8477 58.5269 25.8477C58.2876 25.8477 58.146 25.7647 57.9703 25.5108L56.5131 23.6641C56.4617 23.599 56.3656 23.5917 56.305 23.6484L56.0483 23.8887C55.9911 23.9423 55.9586 24.0172 55.9586 24.0956V25.208C55.9586 25.6182 55.7096 25.8477 55.3531 25.8477V25.8478Z" fill="black"/>
<path d="M73.2143 20.4668C72.2231 20.4668 71.6515 20.8071 71.3592 21.1346C71.1899 21.3243 71.1682 21.7238 71.4004 21.9095C71.6718 22.1265 72.1265 21.9641 72.2827 21.7721C72.4229 21.5997 72.7377 21.4246 73.1654 21.419C73.7659 21.4111 74.1322 21.7315 74.1322 22.2735V22.533C74.1322 22.5593 74.1117 22.581 74.0854 22.5825L72.7601 22.658C71.5005 22.736 70.7925 23.3525 70.7925 24.2704C70.7925 25.1883 71.5225 25.8329 72.521 25.8329C73.2453 25.8329 73.7821 25.6048 74.0223 25.4795C74.0923 25.443 74.1778 25.4711 74.2141 25.5412C74.2821 25.6725 74.4312 25.8475 74.7426 25.8475C75.0844 25.8475 75.3334 25.6278 75.3334 25.2372V22.1855C75.3334 21.1455 74.4985 20.4668 73.2143 20.4668ZM74.1323 23.831C74.1323 24.456 73.5757 24.915 72.8921 24.915C72.3648 24.915 72.0083 24.6465 72.0083 24.2217C72.0083 23.7969 72.3452 23.5479 72.9311 23.5088L74.0796 23.4388C74.1081 23.4371 74.1322 23.4597 74.1322 23.4883V23.8311L74.1323 23.831Z" fill="black"/>
<path d="M78.6739 25.8526C77.1602 25.8526 76.1836 24.8272 76.1836 23.167C76.1836 21.5068 77.1553 20.4668 78.6641 20.4668C79.6797 20.4668 80.544 20.9893 80.793 21.7168C80.8321 21.8193 80.8565 21.9219 80.8565 22.0098C80.8565 22.3125 80.627 22.4981 80.334 22.4981C80.0899 22.4981 79.9434 22.3956 79.8018 22.1514C79.543 21.6778 79.2012 21.4532 78.6983 21.4532C77.917 21.4532 77.419 22.1026 77.419 23.1622C77.419 24.2218 77.9219 24.8712 78.6934 24.8712C79.2305 24.8712 79.5625 24.6222 79.7969 24.2071C79.9629 23.9337 80.0948 23.8311 80.3584 23.8311C80.6465 23.8311 80.8711 24.0264 80.8711 24.3292C80.8711 24.422 80.8467 24.5245 80.7979 24.6417C80.5098 25.3497 79.6504 25.8526 78.6739 25.8526Z" fill="black"/>
<path d="M83.9667 20.4668C82.4726 20.4668 81.5205 21.5312 81.5205 23.1816C81.5205 24.832 82.4531 25.8524 84.0351 25.8524C84.8353 25.8524 85.4212 25.6746 85.9209 25.1196C86.1446 24.8712 86.0847 24.5005 85.7886 24.342C85.5392 24.2084 85.2555 24.3365 85.1162 24.4659C84.6735 24.8773 84.3487 24.9149 84.0253 24.9149C83.2791 24.9149 82.7892 24.4302 82.7362 23.6068C82.7309 23.5247 82.7953 23.455 82.8776 23.455H85.8317C86.1129 23.455 86.3423 23.2302 86.3487 22.9491C86.3814 21.5063 85.4062 20.4668 83.9667 20.4668ZM84.9965 22.6011H82.9074C82.8168 22.6011 82.75 22.5173 82.769 22.4287C82.9056 21.79 83.3772 21.4093 83.9715 21.4093C84.5658 21.4093 85.02 21.7772 85.1362 22.4355C85.1515 22.522 85.0843 22.6011 84.9964 22.6011H84.9965Z" fill="black"/>
<path d="M67.8731 20.4863C67.2587 20.4863 66.6837 20.7845 66.4009 20.9582C66.3207 21.0074 66.2166 20.9666 66.1901 20.8763C66.1726 20.8164 66.1442 20.7508 66.0984 20.6904C65.9813 20.5358 65.8113 20.4717 65.6221 20.4717C65.2754 20.4717 65.0312 20.6963 65.0312 21.0967V26.9513C65.0312 27.3615 65.2802 27.591 65.6367 27.591C65.9932 27.591 66.2472 27.3615 66.2472 26.9513V25.5395C66.2472 25.4316 66.3628 25.3632 66.4573 25.4154C66.7485 25.5762 67.3055 25.8331 67.8927 25.8331C69.1915 25.8331 70.0216 24.8126 70.0216 23.1622C70.0216 21.5118 69.1866 20.4864 67.8731 20.4864V20.4863ZM67.502 24.8369C66.7452 24.8369 66.2422 24.1777 66.2373 23.1621C66.2422 22.1562 66.7451 21.4873 67.502 21.4873C68.2589 21.4873 68.7764 22.1416 68.7764 23.1621C68.7764 24.1826 68.2881 24.8369 67.502 24.8369Z" fill="black"/>
<path d="M61.9741 25.8525C60.8803 25.8525 60.1137 25.4326 59.8647 24.8125C59.8305 24.7246 59.8159 24.6465 59.8159 24.5732C59.8159 24.2802 60.0307 24.0947 60.3237 24.0947C60.5239 24.0947 60.6948 24.1875 60.851 24.3926C61.1244 24.7881 61.4369 24.9639 62.018 24.9639C62.5991 24.9639 62.9604 24.7246 62.9604 24.334C62.9604 24.0215 62.7651 23.8506 62.2329 23.7285L61.393 23.5381C60.3822 23.3086 59.8842 22.8106 59.8842 22.0586C59.8842 21.0967 60.7143 20.4668 61.9936 20.4668C62.9897 20.4668 63.7612 20.9551 63.9223 21.5508C63.9369 21.6143 63.9467 21.6729 63.9467 21.7315C63.9467 21.9854 63.7856 22.1661 63.4779 22.1661C63.3021 22.1661 63.1263 22.1026 63.014 21.9415C62.7747 21.5851 62.4769 21.3604 61.9642 21.3604C61.4515 21.3604 61.0658 21.6192 61.0658 21.9903C61.0658 22.293 61.2904 22.4981 61.8275 22.6202L62.6527 22.8009C63.7465 23.0499 64.181 23.4454 64.181 24.212C64.181 25.2032 63.2923 25.8526 61.9739 25.8526L61.9741 25.8525Z" fill="black"/>
</svg>
