<svg width="54" height="54" viewBox="0 0 54 54" fill="none" xmlns="http://www.w3.org/2000/svg">
<rect x="1.8501" y="1.85001" width="50.3" height="50.3" rx="3" stroke="#8B1EFF" stroke-width="0.28"/>
<path d="M10.2065 37.1479V7.29587C10.2125 6.94394 10.252 6.59091 10.325 6.24582C10.397 5.90085 10.503 5.56381 10.6411 5.23898C10.9141 4.59494 11.3131 4.00095 11.8071 3.50168C12.2961 3.00766 12.8791 2.60556 13.5145 2.32968C13.8315 2.19174 14.1605 2.08578 14.4979 2.01254C14.8349 1.93954 15.1779 1.90048 15.5214 1.89658C19.4174 1.86557 23.3134 1.85056 27.2079 1.85056C31.1049 1.85056 34.9999 1.86557 38.8963 1.8967C39.2393 1.90073 39.5833 1.93967 39.9208 2.01315C40.2568 2.08615 40.5868 2.19308 40.903 2.33005C41.221 2.46799 41.525 2.63705 41.8108 2.83347C42.0978 3.03049 42.3658 3.25449 42.6108 3.50156C42.8578 3.75058 43.0808 4.02158 43.2748 4.31235C43.4708 4.60434 43.6398 4.91428 43.7772 5.23813C43.9142 5.56308 44.0212 5.90109 44.0934 6.24594C44.1664 6.59091 44.2054 6.94394 44.2104 7.29599C44.2104 7.29599 44.2104 37.1479 44.2101 37.1484C44.1891 37.8424 44.0511 38.5384 43.8027 39.1933C43.5557 39.8484 43.1977 40.4624 42.7389 40.9862C42.5089 41.2483 42.2549 41.4873 41.9799 41.6999C41.7069 41.912 41.4139 42.0969 41.1049 42.2539C40.7979 42.4099 40.4769 42.5368 40.1451 42.6314C39.8161 42.7264 39.4771 42.7895 39.1357 42.8154C31.1907 43.2485 23.2267 43.2485 15.2819 42.8154C14.6009 42.7624 13.9259 42.5664 13.3131 42.2549C12.6931 41.9398 12.1351 41.5068 11.6787 40.9869C11.2197 40.4619 10.8627 39.8479 10.6155 39.193C10.3675 38.5379 10.2285 37.843 10.2065 37.1479Z" stroke="#8B1EFF" stroke-width="0.283" stroke-miterlimit="10"/>
<rect x="12.8887" y="5.47165" width="28.63" height="34.35" rx="1.46" stroke="#00FFFF" stroke-width="0.28"/>
<path d="M38.6896 3.5864C31.0756 3.4874 23.3386 3.4874 15.7236 3.5864C15.4318 3.59042 15.1428 3.62143 14.8578 3.68149C14.7868 3.6965 14.7148 3.71249 14.6448 3.73141C14.5748 3.74948 14.5048 3.7695 14.4358 3.79147C14.2978 3.83542 14.1618 3.88449 14.0308 3.9415C13.8978 3.9985 13.7678 4.06149 13.6418 4.13144C13.5778 4.16647 13.5148 4.20346 13.4528 4.24142C13.3908 4.27951 13.3298 4.31943 13.2698 4.36142C13.0318 4.52646 12.8118 4.71445 12.6108 4.92343C12.5098 5.02744 12.4148 5.13742 12.3248 5.25351C12.2788 5.31052 12.2358 5.36948 12.1928 5.42941C12.1508 5.48849 12.1108 5.54843 12.0718 5.61044C11.9148 5.85544 11.7838 6.11447 11.6768 6.38644C11.6508 6.45444 11.6248 6.52341 11.6018 6.59348C11.5778 6.66342 11.5558 6.73349 11.5358 6.80344C11.4948 6.94443 11.4618 7.0864 11.4348 7.23044C11.3818 7.51645 11.3548 7.80649 11.3548 8.10251C11.3526 17.5191 11.3516 26.9371 11.3496 36.3541C11.3497 36.6476 11.3707 36.9375 11.4137 37.2235C11.4357 37.3665 11.4617 37.5085 11.4947 37.6505C11.5107 37.7215 11.5287 37.7915 11.5477 37.8615C11.5667 37.9325 11.5877 38.0025 11.6097 38.0725C11.6987 38.3506 11.8087 38.6195 11.9427 38.8766C11.9767 38.9415 12.0117 39.0055 12.0477 39.0686C12.0837 39.1316 12.1217 39.1936 12.1617 39.2545C12.2407 39.3756 12.3237 39.4935 12.4127 39.6056C12.5017 39.7185 12.5967 39.8275 12.6967 39.9315C12.7467 39.9825 12.7977 40.0335 12.8517 40.0835C12.9047 40.1325 12.9587 40.1815 13.0137 40.2275C13.2357 40.4126 13.4727 40.5725 13.7267 40.7065C13.7897 40.7395 13.8547 40.7716 13.9197 40.8015C13.9857 40.8315 14.0527 40.8595 14.1197 40.8866C14.2537 40.9386 14.3907 40.9835 14.5287 41.0216C14.8047 41.0965 15.0867 41.1425 15.3767 41.1576C23.2191 41.5847 31.1931 41.5847 39.0351 41.1577C39.3263 41.1417 39.6093 41.0958 39.8853 41.0217C40.0233 40.9837 40.1593 40.9387 40.2933 40.8867C40.3603 40.8597 40.4273 40.8318 40.4933 40.8017C40.5593 40.7707 40.6243 40.7387 40.6873 40.7048C40.9433 40.5708 41.1803 40.4107 41.3993 40.2258C41.5103 40.1338 41.6153 40.0348 41.7173 39.9308C41.7663 39.8788 41.8163 39.8248 41.8633 39.7697C41.9113 39.7158 41.9573 39.6598 42.0023 39.6037C42.1803 39.3778 42.3353 39.1367 42.4683 38.8818C42.5343 38.7538 42.5963 38.6228 42.6513 38.4878C42.6793 38.4207 42.7063 38.3528 42.7303 38.2838C42.7563 38.2158 42.7793 38.1467 42.8023 38.0768C42.8893 37.7998 42.9543 37.5167 42.9983 37.2297C43.0093 37.1577 43.0173 37.0847 43.0263 37.0128C43.0343 36.9398 43.0413 36.8668 43.0463 36.7938C43.0573 36.6478 43.0623 36.5007 43.0623 36.3547C43.0606 26.9375 43.0596 17.5195 43.0587 8.10202C43.0577 7.8071 43.0317 7.51413 42.9767 7.22409C42.9497 7.07907 42.9147 6.93613 42.8747 6.79611C42.8337 6.6561 42.7877 6.51804 42.7347 6.38303C42.6807 6.24704 42.6217 6.11411 42.5547 5.9841C42.5217 5.91904 42.4877 5.8541 42.4507 5.79013C42.4137 5.72702 42.3757 5.66403 42.3367 5.60202C42.1797 5.35703 41.9997 5.12912 41.7987 4.92014C41.7487 4.86813 41.6977 4.81711 41.6447 4.76706C41.5907 4.71713 41.5377 4.66806 41.4807 4.62106C41.3697 4.52609 41.2537 4.43808 41.1357 4.35605C40.8977 4.19308 40.6457 4.05405 40.3787 3.94003C40.3127 3.91208 40.2447 3.8851 40.1757 3.8591C40.1077 3.83408 40.0387 3.81003 39.9697 3.78903C39.8307 3.74606 39.6917 3.70908 39.5507 3.68002C39.2687 3.62204 38.9827 3.59006 38.6896 3.5864Z" stroke="#FF00FF" stroke-width="0.283465" stroke-miterlimit="10" stroke-linecap="round" stroke-linejoin="round"/>
<path d="M33.9698 35.489V34.0191C33.9698 33.0791 33.6598 32.9691 33.3298 32.8691C33.0398 32.7791 32.7798 32.5991 32.7798 32.1291C32.7798 31.6191 33.0798 31.4491 33.3498 31.3691C33.6498 31.2791 33.9698 31.1591 33.9698 30.2291V28.9991C33.9698 27.4091 34.8598 26.8391 36.1398 26.8391C36.6598 26.8391 37.0998 26.9291 37.0998 27.4691C37.0998 27.8291 36.9098 27.9591 36.5098 28.0391C36.0298 28.1391 35.5198 28.1791 35.5198 29.2491V30.6791C35.5198 31.3591 35.2798 31.799 34.8298 32.009C34.7198 32.059 34.7198 32.2091 34.8298 32.2691C35.2898 32.4991 35.5298 32.979 35.5298 33.659V35.269C35.5298 36.349 36.0398 36.389 36.5198 36.479C36.9198 36.559 37.1098 36.6891 37.1098 37.0391C37.1098 37.3691 36.8498 37.639 36.5198 37.659C35.0398 37.779 33.9798 37.229 33.9798 35.489H33.9698Z" fill="black"/>
<path d="M22.2178 13.3916C22.2178 16.2914 20.9879 17.9113 18.778 17.9113C18.038 17.9113 17.3481 17.7213 16.8381 17.3813C16.4081 17.0913 16.1481 16.7013 16.1481 16.3814C16.1481 16.0114 16.4181 15.7514 16.7981 15.7514C17.0281 15.7514 17.1981 15.8214 17.4881 16.0514C17.9181 16.4214 18.298 16.5814 18.778 16.5814C19.7912 16.5814 20.4718 15.8293 20.6083 14.1658C20.6189 14.0372 20.4654 13.9627 20.3708 14.0505C20.0422 14.3553 19.4089 14.8015 18.518 14.8015C16.9581 14.8015 15.8682 13.6816 15.8682 12.0617C15.8682 10.2918 17.0981 9.11188 18.938 9.11188C20.0179 9.11188 20.8879 9.53188 21.4478 10.3318C21.9578 11.0417 22.2178 12.0817 22.2178 13.3916ZM20.4479 12.0117C20.4479 11.0918 19.8179 10.4318 18.938 10.4318C18.0581 10.4318 17.4781 11.0618 17.4781 12.0017C17.4781 12.9416 18.0781 13.5516 18.958 13.5516C19.8379 13.5516 20.4479 12.9116 20.4479 12.0117Z" fill="black"/>
<path d="M19.0217 38.0473C18.7302 38.0473 18.5256 38.0039 18.383 37.9419C18.1722 37.8551 18.0123 37.6561 18.0123 37.4498C18.0123 37.1851 18.2293 37.0245 18.4401 37.0245C18.5827 37.0245 18.7378 37.0865 18.9486 37.0865C19.2277 37.0865 19.5191 36.9811 19.5191 36.6648C19.5191 36.3485 19.24 36.3113 18.9424 36.3051C18.5765 36.2989 18.3161 36.1811 18.3161 35.8524C18.3161 35.7575 18.3778 35.4727 18.544 35.0094C18.5735 34.9272 18.5225 34.8383 18.4368 34.8221C17.0375 34.5573 16.2217 33.503 16.2217 31.8915V30.9675C16.2217 29.2187 17.2945 28.0281 19.1859 28.0281C19.8308 28.0281 20.4882 28.1769 20.9843 28.5056C21.3874 28.7661 21.7098 29.1567 21.7098 29.5722C21.7098 29.9505 21.4618 30.2419 21.0587 30.2419C20.7424 30.2419 20.5688 30.0559 20.4014 29.8946C20.1161 29.5597 19.7565 29.3675 19.2728 29.3675C18.355 29.3675 17.9023 30.0496 17.9023 31.0542V31.8108C17.9023 32.8402 18.2992 33.5534 19.2852 33.5534C19.7379 33.5534 20.1286 33.386 20.4572 33.0077C20.6122 32.8589 20.7921 32.6666 21.0959 32.6666C21.4618 32.6666 21.7284 32.9084 21.7284 33.3239C21.7284 33.7394 21.4121 34.1611 20.9346 34.4525C20.5489 34.6804 20.1026 34.8147 19.6424 34.8658C19.5902 34.8716 19.5455 34.9055 19.5261 34.9542L19.4156 35.232C19.3811 35.3187 19.4383 35.4151 19.5311 35.4251C20.1515 35.4925 20.5609 36.0497 20.5609 36.6648C20.5609 37.4524 19.8712 38.0473 19.0217 38.0473Z" fill="black"/>
</svg>
