<svg width="54" height="54" viewBox="0 0 54 54" fill="none" xmlns="http://www.w3.org/2000/svg">
<path d="M10.2065 37.1479V7.2959C10.2125 6.94397 10.252 6.59094 10.325 6.24585C10.397 5.90088 10.503 5.56384 10.6411 5.23901C10.9141 4.59497 11.3131 4.00098 11.8071 3.50171C12.2961 3.00769 12.8791 2.60559 13.5145 2.32971C13.8315 2.19177 14.1605 2.08582 14.4979 2.01257C14.8349 1.93958 15.1779 1.90051 15.5214 1.89661C19.4174 1.8656 23.3134 1.85059 27.2079 1.85059C31.1049 1.85059 34.9999 1.8656 38.8963 1.89673C39.2393 1.90076 39.5833 1.9397 39.9208 2.01318C40.2568 2.08618 40.5868 2.19312 40.903 2.33008C41.221 2.46802 41.525 2.63708 41.8108 2.8335C42.0978 3.03052 42.3658 3.25452 42.6108 3.50159C42.8578 3.75061 43.0808 4.02161 43.2748 4.31238C43.4708 4.60437 43.6398 4.91431 43.7772 5.23816C43.9142 5.56311 44.0212 5.90112 44.0934 6.24597C44.1664 6.59094 44.2054 6.94397 44.2104 7.29602C44.2104 7.29602 44.2104 37.1479 44.2101 37.1484C44.1891 37.8424 44.0511 38.5385 43.8027 39.1934C43.5557 39.8484 43.1977 40.4624 42.7389 40.9862C42.5089 41.2483 42.2549 41.4873 41.9799 41.7C41.7069 41.912 41.4139 42.0969 41.1049 42.2539C40.7979 42.4099 40.4769 42.5369 40.1451 42.6315C39.8161 42.7264 39.4771 42.7896 39.1357 42.8154C31.1907 43.2485 23.2267 43.2485 15.2819 42.8154C14.6009 42.7625 13.9259 42.5664 13.3131 42.2549C12.6931 41.9398 12.1351 41.5068 11.6787 40.9869C11.2197 40.4619 10.8627 39.8479 10.6155 39.193C10.3675 38.538 10.2285 37.843 10.2065 37.1479Z" stroke="#16215B" stroke-width="0.283" stroke-miterlimit="10"/>
<rect x="12.8887" y="5.47168" width="28.63" height="34.35" rx="1.46" stroke="#00FFFF" stroke-width="0.28"/>
<path d="M38.6896 3.58646C31.0756 3.48746 23.3386 3.48746 15.7236 3.58646C15.4318 3.59048 15.1428 3.62149 14.8578 3.68155C14.7868 3.69656 14.7148 3.71255 14.6448 3.73148C14.5748 3.74954 14.5048 3.76956 14.4358 3.79153C14.2978 3.83548 14.1618 3.88455 14.0308 3.94156C13.8978 3.99857 13.7678 4.06155 13.6418 4.1315C13.5778 4.16653 13.5148 4.20352 13.4528 4.24149C13.3908 4.27957 13.3298 4.31949 13.2698 4.36148C13.0318 4.52652 12.8118 4.71451 12.6108 4.92349C12.5098 5.0275 12.4148 5.13748 12.3248 5.25357C12.2788 5.31058 12.2358 5.36954 12.1928 5.42947C12.1508 5.48856 12.1108 5.54849 12.0718 5.6105C11.9148 5.8555 11.7838 6.11453 11.6768 6.38651C11.6508 6.4545 11.6248 6.52347 11.6018 6.59354C11.5778 6.66348 11.5558 6.73355 11.5358 6.8035C11.4948 6.94449 11.4618 7.08646 11.4348 7.2305C11.3818 7.51651 11.3548 7.80655 11.3548 8.10257C11.3526 17.5192 11.3516 26.9372 11.3496 36.3542C11.3497 36.6476 11.3707 36.9375 11.4137 37.2235C11.4357 37.3666 11.4617 37.5086 11.4947 37.6505C11.5107 37.7216 11.5287 37.7915 11.5477 37.8616C11.5667 37.9325 11.5877 38.0026 11.6097 38.0725C11.6987 38.3506 11.8087 38.6195 11.9427 38.8766C11.9767 38.9416 12.0117 39.0055 12.0477 39.0686C12.0837 39.1316 12.1217 39.1936 12.1617 39.2545C12.2407 39.3756 12.3237 39.4936 12.4127 39.6056C12.5017 39.7185 12.5967 39.8275 12.6967 39.9315C12.7467 39.9826 12.7977 40.0336 12.8517 40.0835C12.9047 40.1326 12.9587 40.1815 13.0137 40.2276C13.2357 40.4126 13.4727 40.5725 13.7267 40.7066C13.7897 40.7395 13.8547 40.7716 13.9197 40.8015C13.9857 40.8316 14.0527 40.8595 14.1197 40.8866C14.2537 40.9386 14.3907 40.9836 14.5287 41.0216C14.8047 41.0966 15.0867 41.1426 15.3767 41.1576C23.2191 41.5847 31.1931 41.5847 39.0351 41.1577C39.3263 41.1418 39.6093 41.0959 39.8853 41.0218C40.0233 40.9838 40.1593 40.9388 40.2933 40.8867C40.3603 40.8598 40.4273 40.8318 40.4933 40.8018C40.5593 40.7708 40.6243 40.7388 40.6873 40.7049C40.9433 40.5708 41.1803 40.4108 41.3993 40.2259C41.5103 40.1338 41.6153 40.0348 41.7173 39.9308C41.7663 39.8788 41.8163 39.8249 41.8633 39.7698C41.9113 39.7159 41.9573 39.6598 42.0023 39.6038C42.1803 39.3778 42.3353 39.1367 42.4683 38.8819C42.5343 38.7538 42.5963 38.6228 42.6513 38.4878C42.6793 38.4208 42.7063 38.3528 42.7303 38.2838C42.7563 38.2159 42.7793 38.1468 42.8023 38.0768C42.8893 37.7998 42.9543 37.5168 42.9983 37.2298C43.0093 37.1577 43.0173 37.0847 43.0263 37.0128C43.0343 36.9398 43.0413 36.8669 43.0463 36.7939C43.0573 36.6479 43.0623 36.5008 43.0623 36.3548C43.0606 26.9375 43.0596 17.5196 43.0587 8.10208C43.0577 7.80716 43.0317 7.51419 42.9767 7.22415C42.9497 7.07913 42.9147 6.93619 42.8747 6.79617C42.8337 6.65616 42.7877 6.5181 42.7347 6.38309C42.6807 6.2471 42.6217 6.11417 42.5547 5.98416C42.5217 5.9191 42.4877 5.85416 42.4507 5.79019C42.4137 5.72708 42.3757 5.66409 42.3367 5.60208C42.1797 5.35709 41.9997 5.12918 41.7987 4.9202C41.7487 4.86819 41.6977 4.81717 41.6447 4.76712C41.5907 4.71719 41.5377 4.66812 41.4807 4.62112C41.3697 4.52615 41.2537 4.43814 41.1357 4.35611C40.8977 4.19315 40.6457 4.05411 40.3787 3.94009C40.3127 3.91214 40.2447 3.88516 40.1757 3.85916C40.1077 3.83414 40.0387 3.81009 39.9697 3.78909C39.8307 3.74612 39.6917 3.70914 39.5507 3.68008C39.2687 3.6221 38.9827 3.59012 38.6896 3.58646Z" stroke="#FF00FF" stroke-width="0.283465" stroke-miterlimit="10" stroke-linecap="round" stroke-linejoin="round"/>
<path fill-rule="evenodd" clip-rule="evenodd" d="M31.1444 26.1489C31.454 25.9083 31.9001 25.9643 32.1406 26.2739C33.3143 27.7844 34.01 29.6767 34.01 31.7395C34.01 33.8041 33.3032 35.7061 32.1306 37.2152C31.8901 37.5248 31.444 37.5808 31.1344 37.3402C30.8247 37.0996 30.7687 36.6536 31.0093 36.3439C31.9968 35.073 32.59 33.475 32.59 31.7395C32.59 30.0024 32.0057 28.4147 31.0193 27.1452C30.7787 26.8355 30.8347 26.3895 31.1444 26.1489ZM30.1185 27.5788C29.8696 27.2758 29.4221 27.2321 29.1192 27.481C28.8162 27.73 28.7725 28.1774 29.0214 28.4803C29.7519 29.3692 30.19 30.4915 30.19 31.7396C30.19 32.9886 29.7513 34.1191 29.0141 35.0056C28.7634 35.307 28.8045 35.7547 29.106 36.0054C29.4075 36.2562 29.8551 36.215 30.1059 35.9136C31.0486 34.78 31.61 33.3305 31.61 31.7396C31.61 30.1476 31.048 28.7099 30.1185 27.5788ZM28.0643 28.8701C27.794 28.586 27.3446 28.5749 27.0605 28.8452C26.7764 29.1155 26.7653 29.5649 27.0356 29.849C27.5089 30.3464 27.8 31.0043 27.8 31.7395C27.8 32.4764 27.5079 33.1417 27.0297 33.6358C26.7571 33.9176 26.7644 34.3671 27.0462 34.6397C27.328 34.9124 27.7775 34.9051 28.0502 34.6233C28.772 33.8774 29.22 32.8626 29.22 31.7395C29.22 30.6148 28.771 29.6127 28.0643 28.8701ZM25.8 28.5583C25.8 27.7882 24.8813 27.4257 24.3497 27.9546L22.6728 29.6144C22.6185 29.6682 22.5452 29.6983 22.4688 29.6983H21.21C20.5287 29.6983 20 30.2555 20 30.9083V32.6083C20 33.2804 20.5379 33.8183 21.21 33.8183H22.4718C22.5477 33.8183 22.6205 33.8481 22.6747 33.9012L24.3513 35.5437C24.9207 36.1078 25.8 35.6439 25.8 34.9383V28.5583Z" fill="black"/>
<path d="M19.9302 15.8331C19.5396 15.8331 19.3003 15.5938 19.3003 15.1788V9.3584C19.3003 8.9482 19.5396 8.7041 19.9302 8.7041H23.2994C23.6461 8.7041 23.8756 8.9092 23.8756 9.2363C23.8756 9.5634 23.6412 9.7685 23.2994 9.7685H20.7018C20.6235 9.7685 20.5601 9.832 20.5601 9.9102V11.7068C20.5601 11.7851 20.6236 11.8485 20.7018 11.8485H23.0454C23.3774 11.8485 23.5972 12.0438 23.5972 12.3612C23.5972 12.6786 23.3775 12.8739 23.0454 12.8739H20.7018C20.6235 12.8739 20.5601 12.9374 20.5601 13.0156V15.1786C20.5601 15.5936 20.3257 15.8329 19.9302 15.8329V15.8331Z" fill="black"/>
<path d="M27.2051 15.8478C26.8389 15.8478 26.585 15.5939 26.585 15.213V10.179C26.585 10.0645 26.4563 9.99735 26.3624 10.0626L25.4229 10.7158C25.3008 10.8037 25.2032 10.8379 25.0664 10.8379C24.8027 10.8379 24.6123 10.6475 24.6123 10.3691C24.6123 10.1738 24.6904 10.0273 24.9004 9.88085L26.3408 8.87015C26.6533 8.65045 26.8486 8.60645 27.1123 8.60645C27.5566 8.60645 27.8252 8.87505 27.8252 9.30955V15.2129C27.8252 15.5938 27.5713 15.8477 27.2051 15.8477V15.8478Z" fill="black"/>
<path d="M30.2617 15.7501C29.8711 15.7501 29.666 15.5353 29.666 15.2179C29.666 14.9738 29.749 14.8273 30.0176 14.5734L32.171 12.4396C33.0695 11.5509 33.2941 11.1945 33.2941 10.6573C33.2941 10.0274 32.8107 9.5733 32.132 9.5733C31.4972 9.5733 31.0529 9.8956 30.8039 10.5303C30.6769 10.7842 30.5305 10.916 30.2424 10.916C29.9006 10.916 29.6955 10.706 29.6955 10.3935C29.6955 10.3007 29.7101 10.2128 29.7346 10.1298C29.9248 9.3682 30.7695 8.5625 32.1416 8.5625C33.5137 8.5625 34.5245 9.3975 34.5245 10.5791C34.5245 11.4043 34.129 11.961 32.962 13.1036L31.5674 14.4771C31.4771 14.5661 31.5401 14.7198 31.6669 14.7198H34.1583C34.4903 14.7198 34.6954 14.9249 34.6954 15.2374C34.6954 15.5499 34.4903 15.7501 34.1583 15.7501H30.2617Z" fill="black"/>
</svg>
