<svg width="54" height="54" viewBox="0 0 54 54" fill="none" xmlns="http://www.w3.org/2000/svg">
<path d="M10.2065 37.1479V7.2959C10.2125 6.94397 10.252 6.59094 10.325 6.24585C10.397 5.90088 10.503 5.56384 10.6411 5.23901C10.9141 4.59497 11.3131 4.00098 11.8071 3.50171C12.2961 3.00769 12.8791 2.60559 13.5145 2.32971C13.8315 2.19177 14.1605 2.08582 14.4979 2.01257C14.8349 1.93958 15.1779 1.90051 15.5214 1.89661C19.4174 1.8656 23.3134 1.85059 27.2079 1.85059C31.1049 1.85059 34.9999 1.8656 38.8963 1.89673C39.2393 1.90076 39.5833 1.9397 39.9208 2.01318C40.2568 2.08618 40.5868 2.19312 40.903 2.33008C41.221 2.46802 41.525 2.63708 41.8108 2.8335C42.0978 3.03052 42.3658 3.25452 42.6108 3.50159C42.8578 3.75061 43.0808 4.02161 43.2748 4.31238C43.4708 4.60437 43.6398 4.91431 43.7772 5.23816C43.9142 5.56311 44.0212 5.90112 44.0934 6.24597C44.1664 6.59094 44.2054 6.94397 44.2104 7.29602C44.2104 7.29602 44.2104 37.1479 44.2101 37.1484C44.1891 37.8424 44.0511 38.5385 43.8027 39.1934C43.5557 39.8484 43.1977 40.4624 42.7389 40.9862C42.5089 41.2483 42.2549 41.4873 41.9799 41.7C41.7069 41.912 41.4139 42.0969 41.1049 42.2539C40.7979 42.4099 40.4769 42.5369 40.1451 42.6315C39.8161 42.7264 39.4771 42.7896 39.1357 42.8154C31.1907 43.2485 23.2267 43.2485 15.2819 42.8154C14.6009 42.7625 13.9259 42.5664 13.3131 42.2549C12.6931 41.9398 12.1351 41.5068 11.6787 40.9869C11.2197 40.4619 10.8627 39.8479 10.6155 39.193C10.3675 38.538 10.2285 37.843 10.2065 37.1479Z" stroke="#16215B" stroke-width="0.283" stroke-miterlimit="10"/>
<rect x="12.8887" y="5.47168" width="28.63" height="34.35" rx="1.46" stroke="#00FFFF" stroke-width="0.28"/>
<path d="M38.6896 3.5864C31.0756 3.4874 23.3386 3.4874 15.7236 3.5864C15.4318 3.59042 15.1428 3.62143 14.8578 3.68149C14.7868 3.6965 14.7148 3.71249 14.6448 3.73141C14.5748 3.74948 14.5048 3.7695 14.4358 3.79147C14.2978 3.83542 14.1618 3.88449 14.0308 3.9415C13.8978 3.9985 13.7678 4.06149 13.6418 4.13144C13.5778 4.16647 13.5148 4.20346 13.4528 4.24142C13.3908 4.27951 13.3298 4.31943 13.2698 4.36142C13.0318 4.52646 12.8118 4.71445 12.6108 4.92343C12.5098 5.02744 12.4148 5.13742 12.3248 5.25351C12.2788 5.31052 12.2358 5.36948 12.1928 5.42941C12.1508 5.48849 12.1108 5.54843 12.0718 5.61044C11.9148 5.85544 11.7838 6.11447 11.6768 6.38644C11.6508 6.45444 11.6248 6.52341 11.6018 6.59348C11.5778 6.66342 11.5558 6.73349 11.5358 6.80344C11.4948 6.94443 11.4618 7.0864 11.4348 7.23044C11.3818 7.51645 11.3548 7.80649 11.3548 8.10251C11.3526 17.5191 11.3516 26.9371 11.3496 36.3541C11.3497 36.6476 11.3707 36.9375 11.4137 37.2235C11.4357 37.3665 11.4617 37.5085 11.4947 37.6505C11.5107 37.7215 11.5287 37.7915 11.5477 37.8615C11.5667 37.9325 11.5877 38.0025 11.6097 38.0725C11.6987 38.3506 11.8087 38.6195 11.9427 38.8766C11.9767 38.9415 12.0117 39.0055 12.0477 39.0686C12.0837 39.1316 12.1217 39.1936 12.1617 39.2545C12.2407 39.3756 12.3237 39.4935 12.4127 39.6056C12.5017 39.7185 12.5967 39.8275 12.6967 39.9315C12.7467 39.9825 12.7977 40.0335 12.8517 40.0835C12.9047 40.1325 12.9587 40.1815 13.0137 40.2275C13.2357 40.4126 13.4727 40.5725 13.7267 40.7065C13.7897 40.7395 13.8547 40.7716 13.9197 40.8015C13.9857 40.8315 14.0527 40.8595 14.1197 40.8866C14.2537 40.9386 14.3907 40.9835 14.5287 41.0216C14.8047 41.0965 15.0867 41.1425 15.3767 41.1576C23.2191 41.5847 31.1931 41.5847 39.0351 41.1577C39.3263 41.1417 39.6093 41.0958 39.8853 41.0217C40.0233 40.9837 40.1593 40.9387 40.2933 40.8867C40.3603 40.8597 40.4273 40.8318 40.4933 40.8017C40.5593 40.7707 40.6243 40.7387 40.6873 40.7048C40.9433 40.5708 41.1803 40.4107 41.3993 40.2258C41.5103 40.1338 41.6153 40.0348 41.7173 39.9308C41.7663 39.8788 41.8163 39.8248 41.8633 39.7697C41.9113 39.7158 41.9573 39.6598 42.0023 39.6037C42.1803 39.3778 42.3353 39.1367 42.4683 38.8818C42.5343 38.7538 42.5963 38.6228 42.6513 38.4878C42.6793 38.4207 42.7063 38.3528 42.7303 38.2838C42.7563 38.2158 42.7793 38.1467 42.8023 38.0768C42.8893 37.7998 42.9543 37.5167 42.9983 37.2297C43.0093 37.1577 43.0173 37.0847 43.0263 37.0128C43.0343 36.9398 43.0413 36.8668 43.0463 36.7938C43.0573 36.6478 43.0623 36.5007 43.0623 36.3547C43.0606 26.9375 43.0596 17.5195 43.0587 8.10202C43.0577 7.8071 43.0317 7.51413 42.9767 7.22409C42.9497 7.07907 42.9147 6.93613 42.8747 6.79611C42.8337 6.6561 42.7877 6.51804 42.7347 6.38303C42.6807 6.24704 42.6217 6.11411 42.5547 5.9841C42.5217 5.91904 42.4877 5.8541 42.4507 5.79013C42.4137 5.72702 42.3757 5.66403 42.3367 5.60202C42.1797 5.35703 41.9997 5.12912 41.7987 4.92014C41.7487 4.86813 41.6977 4.81711 41.6447 4.76706C41.5907 4.71713 41.5377 4.66806 41.4807 4.62106C41.3697 4.52609 41.2537 4.43808 41.1357 4.35605C40.8977 4.19308 40.6457 4.05405 40.3787 3.94003C40.3127 3.91208 40.2447 3.8851 40.1757 3.8591C40.1077 3.83408 40.0387 3.81003 39.9697 3.78903C39.8307 3.74606 39.6917 3.70908 39.5507 3.68002C39.2687 3.62204 38.9827 3.59006 38.6896 3.5864Z" stroke="#FF00FF" stroke-width="0.283465" stroke-miterlimit="10" stroke-linecap="round" stroke-linejoin="round"/>
<path fill-rule="evenodd" clip-rule="evenodd" d="M26.9903 24.9901C27.3824 24.9901 27.7003 25.308 27.7003 25.7001V26.8301C27.7003 27.2222 27.3824 27.5401 26.9903 27.5401C26.5982 27.5401 26.2803 27.2222 26.2803 26.8301V25.7001C26.2803 25.308 26.5982 24.9901 26.9903 24.9901ZM31.7823 27.9622C32.0596 27.6849 32.0596 27.2353 31.7823 26.9581C31.505 26.6808 31.0555 26.6808 30.7782 26.9581L29.9682 27.7681C29.6909 28.0453 29.6909 28.4949 29.9682 28.7722C30.2455 29.0494 30.695 29.0494 30.9723 28.7722L31.7823 27.9622ZM27.0003 30.3301C26.2146 30.3301 25.5803 30.9701 25.5803 31.7501C25.5803 32.5237 26.218 33.1601 27.0003 33.1601C27.7925 33.1601 28.4203 32.5336 28.4203 31.7501C28.4203 30.9622 27.7882 30.3301 27.0003 30.3301ZM24.1603 31.7501C24.1603 30.1902 25.426 28.9101 27.0003 28.9101C28.5724 28.9101 29.8403 30.178 29.8403 31.7501C29.8403 33.3266 28.568 34.5801 27.0003 34.5801C25.4425 34.5801 24.1603 33.3166 24.1603 31.7501ZM27.0103 35.9601C27.4024 35.9601 27.7203 36.278 27.7203 36.6701V37.8001C27.7203 38.1922 27.4024 38.5101 27.0103 38.5101C26.6182 38.5101 26.3003 38.1922 26.3003 37.8001V36.6701C26.3003 36.278 26.6182 35.9601 27.0103 35.9601ZM30.9823 34.7181C30.705 34.4408 30.2555 34.4408 29.9782 34.7181C29.7009 34.9953 29.7009 35.4449 29.9782 35.7221L30.7882 36.5321C31.0655 36.8094 31.515 36.8094 31.7923 36.5321C32.0696 36.2549 32.0696 35.8053 31.7923 35.5281L30.9823 34.7181ZM31.2102 31.7401C31.2102 31.348 31.5281 31.0301 31.9202 31.0301H33.0502C33.4423 31.0301 33.7602 31.348 33.7602 31.7401C33.7602 32.1322 33.4423 32.4501 33.0502 32.4501H31.9202C31.5281 32.4501 31.2102 32.1322 31.2102 31.7401ZM23.2123 26.9681C22.935 26.6908 22.4855 26.6908 22.2082 26.9681C21.9309 27.2453 21.9309 27.6949 22.2082 27.9721L23.0182 28.7821C23.2955 29.0594 23.745 29.0594 24.0223 28.7821C24.2996 28.5049 24.2996 28.0553 24.0223 27.7781L23.2123 26.9681ZM20.2402 31.7601C20.2402 31.368 20.5581 31.0501 20.9502 31.0501H22.0802C22.4724 31.0501 22.7902 31.368 22.7902 31.7601C22.7902 32.1522 22.4724 32.4701 22.0802 32.4701H20.9502C20.5581 32.4701 20.2402 32.1522 20.2402 31.7601ZM24.0323 35.7322C24.3096 35.4549 24.3096 35.0053 24.0323 34.7281C23.755 34.4508 23.3055 34.4508 23.0282 34.7281L22.2182 35.5381C21.9409 35.8153 21.9409 36.2649 22.2182 36.5422C22.4955 36.8194 22.945 36.8194 23.2223 36.5422L24.0323 35.7322Z" fill="black"/>
<path d="M22.3662 15.8331C21.9756 15.8331 21.7363 15.5938 21.7363 15.1788V9.3584C21.7363 8.9482 21.9756 8.7041 22.3662 8.7041H25.7354C26.0821 8.7041 26.3116 8.9092 26.3116 9.2363C26.3116 9.5634 26.0772 9.7685 25.7354 9.7685H23.1378C23.0595 9.7685 22.9961 9.832 22.9961 9.9102V11.7068C22.9961 11.7851 23.0596 11.8485 23.1378 11.8485H25.4814C25.8134 11.8485 26.0332 12.0438 26.0332 12.3612C26.0332 12.6786 25.8135 12.8739 25.4814 12.8739H23.1378C23.0595 12.8739 22.9961 12.9374 22.9961 13.0156V15.1786C22.9961 15.5936 22.7617 15.8329 22.3662 15.8329V15.8331Z" fill="black"/>
<path d="M27.8301 15.7501C27.4395 15.7501 27.2344 15.5353 27.2344 15.2179C27.2344 14.9738 27.3174 14.8273 27.586 14.5734L29.7394 12.4396C30.6379 11.5509 30.8625 11.1945 30.8625 10.6573C30.8625 10.0274 30.3791 9.5733 29.7004 9.5733C29.0656 9.5733 28.6213 9.8956 28.3723 10.5303C28.2453 10.7842 28.0989 10.916 27.8108 10.916C27.469 10.916 27.2639 10.706 27.2639 10.3935C27.2639 10.3007 27.2785 10.2128 27.303 10.1298C27.4932 9.3682 28.3379 8.5625 29.71 8.5625C31.0821 8.5625 32.0929 9.3975 32.0929 10.5791C32.0929 11.4043 31.6974 11.961 30.5304 13.1036L29.1358 14.4771C29.0455 14.5661 29.1085 14.7198 29.2353 14.7198H31.7267C32.0587 14.7198 32.2638 14.9249 32.2638 15.2374C32.2638 15.5499 32.0587 15.7501 31.7267 15.7501H27.8301Z" fill="black"/>
</svg>
