<svg width="54" height="54" viewBox="0 0 54 54" fill="none" xmlns="http://www.w3.org/2000/svg">
<path d="M10.2065 37.1479V7.2959C10.2125 6.94397 10.252 6.59094 10.325 6.24585C10.397 5.90088 10.503 5.56384 10.6411 5.23901C10.9141 4.59497 11.3131 4.00098 11.8071 3.50171C12.2961 3.00769 12.8791 2.60559 13.5145 2.32971C13.8315 2.19177 14.1605 2.08582 14.4979 2.01257C14.8349 1.93958 15.1779 1.90051 15.5214 1.89661C19.4174 1.8656 23.3134 1.85059 27.2079 1.85059C31.1049 1.85059 34.9999 1.8656 38.8963 1.89673C39.2393 1.90076 39.5833 1.9397 39.9208 2.01318C40.2568 2.08618 40.5868 2.19312 40.903 2.33008C41.221 2.46802 41.525 2.63708 41.8108 2.8335C42.0978 3.03052 42.3658 3.25452 42.6108 3.50159C42.8578 3.75061 43.0808 4.02161 43.2748 4.31238C43.4708 4.60437 43.6398 4.91431 43.7772 5.23816C43.9142 5.56311 44.0212 5.90112 44.0934 6.24597C44.1664 6.59094 44.2054 6.94397 44.2104 7.29602C44.2104 7.29602 44.2104 37.1479 44.2101 37.1484C44.1891 37.8424 44.0511 38.5385 43.8027 39.1934C43.5557 39.8484 43.1977 40.4624 42.7389 40.9862C42.5089 41.2483 42.2549 41.4873 41.9799 41.7C41.7069 41.912 41.4139 42.0969 41.1049 42.2539C40.7979 42.4099 40.4769 42.5369 40.1451 42.6315C39.8161 42.7264 39.4771 42.7896 39.1357 42.8154C31.1907 43.2485 23.2267 43.2485 15.2819 42.8154C14.6009 42.7625 13.9259 42.5664 13.3131 42.2549C12.6931 41.9398 12.1351 41.5068 11.6787 40.9869C11.2197 40.4619 10.8627 39.8479 10.6155 39.193C10.3675 38.538 10.2285 37.843 10.2065 37.1479Z" stroke="#16215B" stroke-width="0.283" stroke-miterlimit="10"/>
<rect x="12.8887" y="5.47168" width="28.63" height="34.35" rx="1.46" stroke="#00FFFF" stroke-width="0.28"/>
<path d="M38.6896 3.58646C31.0756 3.48746 23.3386 3.48746 15.7236 3.58646C15.4318 3.59048 15.1428 3.62149 14.8578 3.68155C14.7868 3.69656 14.7148 3.71255 14.6448 3.73148C14.5748 3.74954 14.5048 3.76956 14.4358 3.79153C14.2978 3.83548 14.1618 3.88455 14.0308 3.94156C13.8978 3.99857 13.7678 4.06155 13.6418 4.1315C13.5778 4.16653 13.5148 4.20352 13.4528 4.24149C13.3908 4.27957 13.3298 4.31949 13.2698 4.36148C13.0318 4.52652 12.8118 4.71451 12.6108 4.92349C12.5098 5.0275 12.4148 5.13748 12.3248 5.25357C12.2788 5.31058 12.2358 5.36954 12.1928 5.42947C12.1508 5.48856 12.1108 5.54849 12.0718 5.6105C11.9148 5.8555 11.7838 6.11453 11.6768 6.38651C11.6508 6.4545 11.6248 6.52347 11.6018 6.59354C11.5778 6.66348 11.5558 6.73355 11.5358 6.8035C11.4948 6.94449 11.4618 7.08646 11.4348 7.2305C11.3818 7.51651 11.3548 7.80655 11.3548 8.10257C11.3526 17.5192 11.3516 26.9372 11.3496 36.3542C11.3497 36.6476 11.3707 36.9375 11.4137 37.2235C11.4357 37.3666 11.4617 37.5086 11.4947 37.6505C11.5107 37.7216 11.5287 37.7915 11.5477 37.8616C11.5667 37.9325 11.5877 38.0026 11.6097 38.0725C11.6987 38.3506 11.8087 38.6195 11.9427 38.8766C11.9767 38.9416 12.0117 39.0055 12.0477 39.0686C12.0837 39.1316 12.1217 39.1936 12.1617 39.2545C12.2407 39.3756 12.3237 39.4936 12.4127 39.6056C12.5017 39.7185 12.5967 39.8275 12.6967 39.9315C12.7467 39.9826 12.7977 40.0336 12.8517 40.0835C12.9047 40.1326 12.9587 40.1815 13.0137 40.2276C13.2357 40.4126 13.4727 40.5725 13.7267 40.7066C13.7897 40.7395 13.8547 40.7716 13.9197 40.8015C13.9857 40.8316 14.0527 40.8595 14.1197 40.8866C14.2537 40.9386 14.3907 40.9836 14.5287 41.0216C14.8047 41.0966 15.0867 41.1426 15.3767 41.1576C23.2191 41.5847 31.1931 41.5847 39.0351 41.1577C39.3263 41.1418 39.6093 41.0959 39.8853 41.0218C40.0233 40.9838 40.1593 40.9388 40.2933 40.8867C40.3603 40.8598 40.4273 40.8318 40.4933 40.8018C40.5593 40.7708 40.6243 40.7388 40.6873 40.7049C40.9433 40.5708 41.1803 40.4108 41.3993 40.2259C41.5103 40.1338 41.6153 40.0348 41.7173 39.9308C41.7663 39.8788 41.8163 39.8249 41.8633 39.7698C41.9113 39.7159 41.9573 39.6598 42.0023 39.6038C42.1803 39.3778 42.3353 39.1367 42.4683 38.8819C42.5343 38.7538 42.5963 38.6228 42.6513 38.4878C42.6793 38.4208 42.7063 38.3528 42.7303 38.2838C42.7563 38.2159 42.7793 38.1468 42.8023 38.0768C42.8893 37.7998 42.9543 37.5168 42.9983 37.2298C43.0093 37.1577 43.0173 37.0847 43.0263 37.0128C43.0343 36.9398 43.0413 36.8669 43.0463 36.7939C43.0573 36.6479 43.0623 36.5008 43.0623 36.3548C43.0606 26.9375 43.0596 17.5196 43.0587 8.10208C43.0577 7.80716 43.0317 7.51419 42.9767 7.22415C42.9497 7.07913 42.9147 6.93619 42.8747 6.79617C42.8337 6.65616 42.7877 6.5181 42.7347 6.38309C42.6807 6.2471 42.6217 6.11417 42.5547 5.98416C42.5217 5.9191 42.4877 5.85416 42.4507 5.79019C42.4137 5.72708 42.3757 5.66409 42.3367 5.60208C42.1797 5.35709 41.9997 5.12918 41.7987 4.9202C41.7487 4.86819 41.6977 4.81717 41.6447 4.76712C41.5907 4.71719 41.5377 4.66812 41.4807 4.62112C41.3697 4.52615 41.2537 4.43814 41.1357 4.35611C40.8977 4.19315 40.6457 4.05411 40.3787 3.94009C40.3127 3.91214 40.2447 3.88516 40.1757 3.85916C40.1077 3.83414 40.0387 3.81009 39.9697 3.78909C39.8307 3.74612 39.6917 3.70914 39.5507 3.68008C39.2687 3.6221 38.9827 3.59012 38.6896 3.58646Z" stroke="#FF00FF" stroke-width="0.283465" stroke-miterlimit="10" stroke-linecap="round" stroke-linejoin="round"/>
<path fill-rule="evenodd" clip-rule="evenodd" d="M28.7071 28.5142H29.6185C29.9243 28.5142 30.1722 28.762 30.1722 29.0678V34.4324C30.1722 34.7382 29.9243 34.986 29.6185 34.986H28.7071C28.4013 34.986 28.1534 34.7382 28.1534 34.4324V29.0678C28.1534 28.762 28.4013 28.5142 28.7071 28.5142ZM32.6133 28.5142H33.5248C33.8306 28.5142 34.0784 28.762 34.0784 29.0678V34.4324C34.0784 34.7382 33.8306 34.986 33.5248 34.986H32.6133C32.3075 34.986 32.0597 34.7382 32.0597 34.4324V29.0678C32.0597 28.762 32.3075 28.5142 32.6133 28.5142ZM25.1719 32.6161C25.8385 32.2312 25.8385 31.269 25.1719 30.8841L21.4219 28.719C20.7552 28.3341 19.9219 28.8152 19.9219 29.585V33.9152C19.9219 34.685 20.7552 35.1661 21.4219 34.7812L25.1719 32.6161Z" fill="black"/>
<path d="M22.1802 15.8331C21.7896 15.8331 21.5503 15.5938 21.5503 15.1788V9.3584C21.5503 8.9482 21.7896 8.7041 22.1802 8.7041H25.5494C25.8961 8.7041 26.1256 8.9092 26.1256 9.2363C26.1256 9.5634 25.8912 9.7685 25.5494 9.7685H22.9518C22.8735 9.7685 22.8101 9.832 22.8101 9.9102V11.7068C22.8101 11.7851 22.8736 11.8485 22.9518 11.8485H25.2954C25.6274 11.8485 25.8472 12.0438 25.8472 12.3612C25.8472 12.6786 25.6275 12.8739 25.2954 12.8739H22.9518C22.8735 12.8739 22.8101 12.9374 22.8101 13.0156V15.1786C22.8101 15.5936 22.5757 15.8329 22.1802 15.8329V15.8331Z" fill="black"/>
<path d="M29.7042 14.9298C28.8595 14.9298 28.2637 14.4366 28.2637 13.753C28.2637 13.0694 28.8594 12.5762 29.7042 12.5762C30.549 12.5762 31.1447 13.0645 31.1447 13.753C31.1447 14.4415 30.549 14.9298 29.7042 14.9298ZM28.4591 10.5694C28.4591 9.9493 28.9718 9.5147 29.7042 9.5147C30.4366 9.5147 30.9493 9.9444 30.9493 10.5694C30.9493 11.1944 30.4317 11.6143 29.7042 11.6143C28.9767 11.6143 28.4591 11.1846 28.4591 10.5694ZM31.3005 12.1676C31.1686 12.1111 31.1594 11.9271 31.2866 11.8606C31.8472 11.5672 32.1897 11.0522 32.1897 10.4473C32.1897 9.3535 31.1594 8.5625 29.7043 8.5625C28.2492 8.5625 27.214 9.3584 27.214 10.4424C27.214 11.0526 27.5569 11.5706 28.1146 11.861C28.2413 11.927 28.2351 12.1113 28.1038 12.1675C27.4097 12.4644 26.96 13.0859 26.96 13.8458C26.96 15.047 28.0879 15.8917 29.7042 15.8917C31.3205 15.8917 32.4533 15.0518 32.4533 13.8458C32.4533 13.0884 31.9982 12.4665 31.3005 12.1676Z" fill="black"/>
</svg>
