<svg width="54" height="54" viewBox="0 0 54 54" fill="none" xmlns="http://www.w3.org/2000/svg">
<path d="M10.2065 37.1479V7.2959C10.2125 6.94397 10.252 6.59094 10.325 6.24585C10.397 5.90088 10.503 5.56384 10.6411 5.23901C10.9141 4.59497 11.3131 4.00098 11.8071 3.50171C12.2961 3.00769 12.8791 2.60559 13.5145 2.32971C13.8315 2.19177 14.1605 2.08582 14.4979 2.01257C14.8349 1.93958 15.1779 1.90051 15.5214 1.89661C19.4174 1.8656 23.3134 1.85059 27.2079 1.85059C31.1049 1.85059 34.9999 1.8656 38.8963 1.89673C39.2393 1.90076 39.5833 1.9397 39.9208 2.01318C40.2568 2.08618 40.5868 2.19312 40.903 2.33008C41.221 2.46802 41.525 2.63708 41.8108 2.8335C42.0978 3.03052 42.3658 3.25452 42.6108 3.50159C42.8578 3.75061 43.0808 4.02161 43.2748 4.31238C43.4708 4.60437 43.6398 4.91431 43.7772 5.23816C43.9142 5.56311 44.0212 5.90112 44.0934 6.24597C44.1664 6.59094 44.2054 6.94397 44.2104 7.29602C44.2104 7.29602 44.2104 37.1479 44.2101 37.1484C44.1891 37.8424 44.0511 38.5385 43.8027 39.1934C43.5557 39.8484 43.1977 40.4624 42.7389 40.9862C42.5089 41.2483 42.2549 41.4873 41.9799 41.7C41.7069 41.912 41.4139 42.0969 41.1049 42.2539C40.7979 42.4099 40.4769 42.5369 40.1451 42.6315C39.8161 42.7264 39.4771 42.7896 39.1357 42.8154C31.1907 43.2485 23.2267 43.2485 15.2819 42.8154C14.6009 42.7625 13.9259 42.5664 13.3131 42.2549C12.6931 41.9398 12.1351 41.5068 11.6787 40.9869C11.2197 40.4619 10.8627 39.8479 10.6155 39.193C10.3675 38.538 10.2285 37.843 10.2065 37.1479Z" stroke="#16215B" stroke-width="0.283" stroke-miterlimit="10"/>
<rect x="12.8887" y="5.47168" width="28.63" height="34.35" rx="1.46" stroke="#00FFFF" stroke-width="0.28"/>
<path d="M38.6898 3.58646C31.0758 3.48746 23.3388 3.48746 15.7238 3.58646C15.4321 3.59048 15.1431 3.62149 14.858 3.68155C14.787 3.69656 14.7151 3.71255 14.6451 3.73148C14.5751 3.74954 14.5051 3.76956 14.4361 3.79153C14.298 3.83548 14.162 3.88455 14.0311 3.94156C13.8981 3.99857 13.7681 4.06155 13.6421 4.1315C13.578 4.16653 13.515 4.20352 13.453 4.24149C13.3911 4.27957 13.33 4.31949 13.2701 4.36148C13.0321 4.52652 12.8121 4.71451 12.6111 4.92349C12.5101 5.0275 12.4151 5.13748 12.3251 5.25357C12.2791 5.31058 12.2361 5.36954 12.1931 5.42947C12.151 5.48856 12.1111 5.54849 12.0721 5.6105C11.9151 5.8555 11.7841 6.11453 11.677 6.38651C11.651 6.4545 11.625 6.52347 11.6021 6.59354C11.578 6.66348 11.556 6.73355 11.5361 6.8035C11.4951 6.94449 11.4621 7.08646 11.4351 7.2305C11.382 7.51651 11.3551 7.80655 11.3551 8.10257C11.3528 17.5192 11.3519 26.9372 11.3499 36.3542C11.35 36.6476 11.371 36.9375 11.414 37.2235C11.436 37.3666 11.462 37.5086 11.4949 37.6505C11.511 37.7216 11.5289 37.7915 11.548 37.8616C11.567 37.9325 11.588 38.0026 11.61 38.0725C11.699 38.3506 11.809 38.6195 11.9429 38.8766C11.977 38.9416 12.0119 39.0055 12.048 39.0686C12.084 39.1316 12.1219 39.1936 12.162 39.2545C12.241 39.3756 12.324 39.4936 12.4129 39.6056C12.502 39.7185 12.597 39.8275 12.6969 39.9315C12.7469 39.9826 12.798 40.0336 12.852 40.0835C12.905 40.1326 12.959 40.1815 13.0139 40.2276C13.2359 40.4126 13.4729 40.5725 13.727 40.7066C13.7899 40.7395 13.8549 40.7716 13.92 40.8015C13.9859 40.8316 14.0529 40.8595 14.1199 40.8866C14.254 40.9386 14.3909 40.9836 14.5289 41.0216C14.8049 41.0966 15.087 41.1426 15.377 41.1576C23.2194 41.5847 31.1934 41.5847 39.0353 41.1577C39.3265 41.1418 39.6095 41.0959 39.8855 41.0218C40.0235 40.9838 40.1595 40.9388 40.2935 40.8867C40.3605 40.8598 40.4276 40.8318 40.4935 40.8018C40.5595 40.7708 40.6245 40.7388 40.6875 40.7049C40.9435 40.5708 41.1805 40.4108 41.3995 40.2259C41.5105 40.1338 41.6155 40.0348 41.7175 39.9308C41.7665 39.8788 41.8165 39.8249 41.8635 39.7698C41.9115 39.7159 41.9576 39.6598 42.0025 39.6038C42.1805 39.3778 42.3355 39.1367 42.4685 38.8819C42.5345 38.7538 42.5965 38.6228 42.6516 38.4878C42.6795 38.4208 42.7065 38.3528 42.7305 38.2838C42.7565 38.2159 42.7795 38.1468 42.8026 38.0768C42.8895 37.7998 42.9545 37.5168 42.9985 37.2298C43.0096 37.1577 43.0175 37.0847 43.0266 37.0128C43.0345 36.9398 43.0415 36.8669 43.0465 36.7939C43.0575 36.6479 43.0625 36.5008 43.0625 36.3548C43.0609 26.9375 43.0598 17.5196 43.059 8.10208C43.058 7.80716 43.032 7.51419 42.977 7.22415C42.95 7.07913 42.9149 6.93619 42.8749 6.79617C42.834 6.65616 42.7879 6.5181 42.735 6.38309C42.6809 6.2471 42.6219 6.11417 42.5549 5.98416C42.5219 5.9191 42.4879 5.85416 42.451 5.79019C42.4139 5.72708 42.3759 5.66409 42.3369 5.60208C42.1799 5.35709 41.9999 5.12918 41.799 4.9202C41.7489 4.86819 41.6979 4.81717 41.645 4.76712C41.5909 4.71719 41.5379 4.66812 41.481 4.62112C41.3699 4.52615 41.2539 4.43814 41.136 4.35611C40.8979 4.19315 40.6459 4.05411 40.3789 3.94009C40.313 3.91214 40.2449 3.88516 40.1759 3.85916C40.1079 3.83414 40.0389 3.81009 39.9699 3.78909C39.8309 3.74612 39.692 3.70914 39.5509 3.68008C39.269 3.6221 38.9829 3.59012 38.6898 3.58646Z" stroke="#FF00FF" stroke-width="0.283465" stroke-miterlimit="10" stroke-linecap="round" stroke-linejoin="round"/>
<path d="M14.6592 25.8331C14.2686 25.8331 14.0293 25.5938 14.0293 25.1788V19.2754C14.0293 18.8604 14.2686 18.6211 14.6592 18.6211C15.0498 18.6211 15.2891 18.8604 15.2891 19.2754V21.4921C15.2891 21.5704 15.3526 21.6338 15.4308 21.6338H18.5751C18.6534 21.6338 18.7168 21.5703 18.7168 21.4921V19.2754C18.7168 18.8604 18.9512 18.6211 19.3418 18.6211C19.7324 18.6211 19.9717 18.8604 19.9717 19.2754V25.1788C19.9717 25.5938 19.7373 25.8331 19.3418 25.8331C18.9463 25.8331 18.7168 25.5938 18.7168 25.1788V22.8352C18.7168 22.7569 18.6533 22.6935 18.5751 22.6935H15.4308C15.3525 22.6935 15.2891 22.757 15.2891 22.8352V25.1788C15.2891 25.5938 15.0547 25.8331 14.6592 25.8331Z" fill="black"/>
<path d="M37.9201 20.4668C36.426 20.4668 35.4739 21.5312 35.4739 23.1816C35.4739 24.832 36.4065 25.8524 37.9885 25.8524C38.7887 25.8524 39.3746 25.6746 39.8743 25.1196C40.098 24.8712 40.0381 24.5005 39.742 24.342C39.4926 24.2084 39.2089 24.3365 39.0696 24.4659C38.6269 24.8773 38.3021 24.9149 37.9787 24.9149C37.2325 24.9149 36.7426 24.4302 36.6896 23.6068C36.6843 23.5247 36.7487 23.455 36.831 23.455H39.7851C40.0663 23.455 40.2957 23.2302 40.3021 22.9491C40.3348 21.5063 39.3596 20.4668 37.9201 20.4668ZM38.9499 22.6011H36.8608C36.7702 22.6011 36.7034 22.5173 36.7224 22.4287C36.859 21.79 37.3306 21.4093 37.9249 21.4093C38.5192 21.4093 38.9734 21.7772 39.0896 22.4355C39.1049 22.522 39.0377 22.6011 38.9498 22.6011H38.9499Z" fill="black"/>
<path d="M27.6763 25.8478C27.3101 25.8478 27.0708 25.6134 27.0708 25.2081V21.0918C27.0708 20.6963 27.3101 20.4717 27.6519 20.4717C27.8587 20.4717 28.0571 20.5555 28.1645 20.7611C28.172 20.7755 28.1787 20.7901 28.1847 20.8045C28.2164 20.8811 28.3059 20.915 28.3795 20.8768C28.646 20.7385 29.2193 20.4766 29.7369 20.4766C30.018 20.4766 30.5804 20.5298 30.9507 21.0337C30.9954 21.0945 31.0794 21.1106 31.1426 21.0693C31.4149 20.8916 31.9756 20.4766 32.8229 20.4766C33.8434 20.4766 34.5124 21.1651 34.5124 22.2003V25.2081C34.5124 25.6134 34.2683 25.8478 33.9069 25.8478C33.5455 25.8478 33.2965 25.6134 33.2965 25.2081V22.4981C33.2965 21.8633 32.9645 21.502 32.3688 21.502C31.7731 21.502 31.3825 21.9317 31.3825 22.5518V25.2081C31.3825 25.6134 31.153 25.8478 30.7917 25.8478C30.4304 25.8478 30.2009 25.6134 30.2009 25.2081V22.4346C30.2009 21.8584 29.8493 21.502 29.2829 21.502C28.7165 21.502 28.2868 21.9561 28.2868 22.5811V25.2081C28.2868 25.6134 28.0378 25.8478 27.6764 25.8478H27.6763Z" fill="black"/>
<path d="M23.5847 20.4668C22.0759 20.4668 21.0798 21.4922 21.0798 23.1621C21.0798 24.832 22.0661 25.8526 23.5847 25.8526C25.1033 25.8526 26.0896 24.8418 26.0896 23.1621C26.0896 21.4824 25.0935 20.4668 23.5847 20.4668ZM23.5847 24.8907C22.8132 24.8907 22.3152 24.2657 22.3152 23.1622C22.3152 22.0587 22.8181 21.4337 23.5847 21.4337C24.3513 21.4337 24.8542 22.0636 24.8542 23.1622C24.8542 24.2608 24.3561 24.8907 23.5847 24.8907Z" fill="black"/>
</svg>
