<svg width="54" height="54" viewBox="0 0 54 54" fill="none" xmlns="http://www.w3.org/2000/svg">
<rect x="1.8501" y="1.85" width="50.3" height="50.3" rx="3" stroke="#16215B" stroke-width="0.28"/>
<path d="M10.2065 37.1479V7.29587C10.2125 6.94394 10.252 6.59091 10.325 6.24582C10.397 5.90085 10.503 5.56381 10.6411 5.23898C10.9141 4.59494 11.3131 4.00095 11.8071 3.50168C12.2961 3.00766 12.8791 2.60556 13.5145 2.32968C13.8315 2.19174 14.1605 2.08578 14.4979 2.01254C14.8349 1.93954 15.1779 1.90048 15.5214 1.89658C19.4174 1.86557 23.3134 1.85056 27.2079 1.85056C31.1049 1.85056 34.9999 1.86557 38.8963 1.8967C39.2393 1.90073 39.5833 1.93967 39.9208 2.01315C40.2568 2.08615 40.5868 2.19308 40.903 2.33005C41.221 2.46799 41.525 2.63705 41.8108 2.83347C42.0978 3.03049 42.3658 3.25449 42.6108 3.50156C42.8578 3.75058 43.0808 4.02158 43.2748 4.31235C43.4708 4.60434 43.6398 4.91428 43.7772 5.23813C43.9142 5.56308 44.0212 5.90109 44.0934 6.24594C44.1664 6.59091 44.2054 6.94394 44.2104 7.29599C44.2104 7.29599 44.2104 37.1479 44.2101 37.1484C44.1891 37.8424 44.0511 38.5384 43.8027 39.1933C43.5557 39.8484 43.1977 40.4624 42.7389 40.9862C42.5089 41.2483 42.2549 41.4873 41.9799 41.6999C41.7069 41.912 41.4139 42.0969 41.1049 42.2539C40.7979 42.4099 40.4769 42.5368 40.1451 42.6314C39.8161 42.7264 39.4771 42.7895 39.1357 42.8154C31.1907 43.2485 23.2267 43.2485 15.2819 42.8154C14.6009 42.7624 13.9259 42.5664 13.3131 42.2549C12.6931 41.9398 12.1351 41.5068 11.6787 40.9869C11.2197 40.4619 10.8627 39.8479 10.6155 39.193C10.3675 38.5379 10.2285 37.843 10.2065 37.1479Z" stroke="#16215B" stroke-width="0.283" stroke-miterlimit="10"/>
<rect x="12.8887" y="5.47166" width="28.63" height="34.35" rx="1.46" stroke="#00FFFF" stroke-width="0.28"/>
<path d="M38.6896 3.5864C31.0756 3.4874 23.3386 3.4874 15.7236 3.5864C15.4318 3.59042 15.1428 3.62143 14.8578 3.68149C14.7868 3.6965 14.7148 3.71249 14.6448 3.73141C14.5748 3.74948 14.5048 3.7695 14.4358 3.79147C14.2978 3.83542 14.1618 3.88449 14.0308 3.9415C13.8978 3.9985 13.7678 4.06149 13.6418 4.13144C13.5778 4.16647 13.5148 4.20346 13.4528 4.24142C13.3908 4.27951 13.3298 4.31943 13.2698 4.36142C13.0318 4.52646 12.8118 4.71445 12.6108 4.92343C12.5098 5.02744 12.4148 5.13742 12.3248 5.25351C12.2788 5.31052 12.2358 5.36948 12.1928 5.42941C12.1508 5.48849 12.1108 5.54843 12.0718 5.61044C11.9148 5.85544 11.7838 6.11447 11.6768 6.38644C11.6508 6.45444 11.6248 6.52341 11.6018 6.59348C11.5778 6.66342 11.5558 6.73349 11.5358 6.80344C11.4948 6.94443 11.4618 7.0864 11.4348 7.23044C11.3818 7.51645 11.3548 7.80649 11.3548 8.10251C11.3526 17.5191 11.3516 26.9371 11.3496 36.3541C11.3497 36.6476 11.3707 36.9375 11.4137 37.2235C11.4357 37.3665 11.4617 37.5085 11.4947 37.6505C11.5107 37.7215 11.5287 37.7915 11.5477 37.8615C11.5667 37.9325 11.5877 38.0025 11.6097 38.0725C11.6987 38.3506 11.8087 38.6195 11.9427 38.8766C11.9767 38.9415 12.0117 39.0055 12.0477 39.0686C12.0837 39.1316 12.1217 39.1936 12.1617 39.2545C12.2407 39.3756 12.3237 39.4935 12.4127 39.6056C12.5017 39.7185 12.5967 39.8275 12.6967 39.9315C12.7467 39.9825 12.7977 40.0335 12.8517 40.0835C12.9047 40.1325 12.9587 40.1815 13.0137 40.2275C13.2357 40.4126 13.4727 40.5725 13.7267 40.7065C13.7897 40.7395 13.8547 40.7716 13.9197 40.8015C13.9857 40.8315 14.0527 40.8595 14.1197 40.8866C14.2537 40.9386 14.3907 40.9835 14.5287 41.0216C14.8047 41.0965 15.0867 41.1425 15.3767 41.1576C23.2191 41.5847 31.1931 41.5847 39.0351 41.1577C39.3263 41.1417 39.6093 41.0958 39.8853 41.0217C40.0233 40.9837 40.1593 40.9387 40.2933 40.8867C40.3603 40.8597 40.4273 40.8318 40.4933 40.8017C40.5593 40.7707 40.6243 40.7387 40.6873 40.7048C40.9433 40.5708 41.1803 40.4107 41.3993 40.2258C41.5103 40.1338 41.6153 40.0348 41.7173 39.9308C41.7663 39.8788 41.8163 39.8248 41.8633 39.7697C41.9113 39.7158 41.9573 39.6598 42.0023 39.6037C42.1803 39.3778 42.3353 39.1367 42.4683 38.8818C42.5343 38.7538 42.5963 38.6228 42.6513 38.4878C42.6793 38.4207 42.7063 38.3528 42.7303 38.2838C42.7563 38.2158 42.7793 38.1467 42.8023 38.0768C42.8893 37.7998 42.9543 37.5167 42.9983 37.2297C43.0093 37.1577 43.0173 37.0847 43.0263 37.0128C43.0343 36.9398 43.0413 36.8668 43.0463 36.7938C43.0573 36.6478 43.0623 36.5007 43.0623 36.3547C43.0606 26.9375 43.0596 17.5195 43.0587 8.10202C43.0577 7.8071 43.0317 7.51413 42.9767 7.22409C42.9497 7.07907 42.9147 6.93613 42.8747 6.79611C42.8337 6.6561 42.7877 6.51804 42.7347 6.38303C42.6807 6.24704 42.6217 6.11411 42.5547 5.9841C42.5217 5.91904 42.4877 5.8541 42.4507 5.79013C42.4137 5.72702 42.3757 5.66403 42.3367 5.60202C42.1797 5.35703 41.9997 5.12912 41.7987 4.92014C41.7487 4.86813 41.6977 4.81711 41.6447 4.76706C41.5907 4.71713 41.5377 4.66806 41.4807 4.62106C41.3697 4.52609 41.2537 4.43808 41.1357 4.35605C40.8977 4.19308 40.6457 4.05405 40.3787 3.94003C40.3127 3.91208 40.2447 3.8851 40.1757 3.8591C40.1077 3.83408 40.0387 3.81003 39.9697 3.78903C39.8307 3.74606 39.6917 3.70908 39.5507 3.68002C39.2687 3.62204 38.9827 3.59006 38.6896 3.5864Z" stroke="#FF00FF" stroke-width="0.283465" stroke-miterlimit="10" stroke-linecap="round" stroke-linejoin="round"/>
<path fill-rule="evenodd" clip-rule="evenodd" d="M36.9282 12.8218C35.6865 11.5801 34.1266 11.1419 32.6126 10.947C31.1408 10.7575 29.255 10.75 27 10.75C24.745 10.75 22.8592 10.7575 21.3874 10.947C19.8734 11.1419 18.3135 11.5801 17.0718 12.8218C15.8301 14.0635 15.3919 15.6234 15.197 17.1374C15.0075 18.6092 15 20.495 15 22.75C15 25.005 15.0075 26.8908 15.197 28.3626C15.3919 29.8766 15.8301 31.4365 17.0718 32.6782C18.3135 33.9199 19.8734 34.3581 21.3874 34.553C22.8592 34.7425 24.745 34.75 27 34.75C29.255 34.75 31.1408 34.7425 32.6126 34.553C34.1266 34.3581 35.6865 33.9199 36.9282 32.6782C38.1699 31.4365 38.6081 29.8766 38.803 28.3626C38.9925 26.8908 39 25.005 39 22.75C39 20.495 38.9925 18.6092 38.803 17.1374C38.6081 15.6234 38.1699 14.0635 36.9282 12.8218ZM32.4312 12.3554C33.8147 12.5335 35.0058 12.9077 35.924 13.8259C36.8423 14.7442 37.2164 15.9352 37.3945 17.3187C37.5699 18.681 37.5799 20.4653 37.5799 22.75C37.5799 25.0347 37.5699 26.819 37.3945 28.1813C37.2164 29.5648 36.8423 30.7559 35.924 31.6741C35.0058 32.5923 33.8147 32.9665 32.4312 33.1446C31.069 33.32 29.2846 33.33 26.9999 33.33C24.7152 33.33 22.9309 33.32 21.5686 33.1446C20.1851 32.9665 18.9941 32.5923 18.0758 31.6741C17.1576 30.7559 16.7834 29.5648 16.6053 28.1813C16.4299 26.819 16.4199 25.0347 16.4199 22.75C16.4199 20.4653 16.4299 18.681 16.6053 17.3187C16.7834 15.9352 17.1576 14.7442 18.0758 13.8259C18.9941 12.9077 20.1851 12.5335 21.5686 12.3554C22.9309 12.18 24.7152 12.17 26.9999 12.17C29.2846 12.17 31.069 12.18 32.4312 12.3554ZM34.9199 14.83C33.7299 13.64 31.6299 13.59 26.9999 13.59C22.3699 13.59 20.2699 13.64 19.0799 14.83C17.8899 16.02 17.8399 18.12 17.8399 22.75C17.8399 27.38 17.8899 29.48 19.0799 30.67C20.2699 31.86 22.3699 31.91 26.9999 31.91C31.6299 31.91 33.7299 31.86 34.9199 30.67C36.1099 29.48 36.1599 27.38 36.1599 22.75C36.1599 18.12 36.1099 16.02 34.9199 14.83ZM30.5156 17.0732C31.5729 16.2519 33.1097 17.0063 33.1097 18.345V20.895C33.1097 21.3004 32.9722 21.6987 32.7169 22.0168C32.4714 22.3226 32.0245 22.3716 31.7187 22.1261C31.4129 21.8806 31.364 21.4338 31.6095 21.128C31.6594 21.0657 31.6897 20.9821 31.6897 20.895V18.345C31.6897 18.1848 31.5089 18.0994 31.3863 18.195L31.3819 18.1984L31.3819 18.1984L27.8488 20.9086C27.3479 21.2928 26.6515 21.2928 26.1507 20.9086L22.6191 18.1996L22.6186 18.1992C22.5574 18.1528 22.486 18.1471 22.4155 18.1816C22.3452 18.2159 22.3097 18.273 22.3097 18.345V20.895C22.3097 21.0183 22.3689 21.1277 22.4524 21.1873L22.4606 21.1931L22.4605 21.1932L26.9989 24.5329L28.5679 23.3739L28.5686 23.3734C28.8828 23.1419 29.2509 23.025 29.6297 23.025H31.3097C32.3018 23.025 33.0997 23.8229 33.0997 24.815V26.975C33.0997 27.9672 32.3018 28.765 31.3097 28.765H22.6897C21.6976 28.765 20.8997 27.9672 20.8997 26.975V24.685C20.8997 24.4888 20.9351 24.3002 20.9979 24.1264C21.1313 23.7576 21.5383 23.5668 21.907 23.7001C22.2758 23.8334 22.4667 24.2404 22.3333 24.6092C22.3242 24.6345 22.3197 24.66 22.3197 24.685V26.975C22.3197 27.1829 22.4818 27.345 22.6897 27.345H31.3097C31.5176 27.345 31.6797 27.1829 31.6797 26.975V24.815C31.6797 24.6072 31.5176 24.445 31.3097 24.445H29.6297C29.5487 24.445 29.4769 24.4681 29.4112 24.5164L29.4109 24.5166L27.8278 25.686C27.3359 26.0494 26.6647 26.05 26.1721 25.6875L21.6224 22.3395C21.1488 21.9988 20.8897 21.45 20.8897 20.895V18.345C20.8897 17.0074 22.4309 16.2701 23.4803 17.0705L23.4819 17.0717L26.9997 19.7702L30.5156 17.0732Z" fill="black"/>
</svg>
