<svg width="55" height="54" viewBox="0 0 55 54" fill="none" xmlns="http://www.w3.org/2000/svg">
<path d="M10.7065 37.1479V7.2959C10.7125 6.94397 10.752 6.59094 10.825 6.24585C10.897 5.90088 11.003 5.56384 11.1411 5.23901C11.4141 4.59497 11.8131 4.00098 12.3071 3.50171C12.7961 3.00769 13.3791 2.60559 14.0145 2.32971C14.3315 2.19177 14.6605 2.08582 14.9979 2.01257C15.3349 1.93958 15.6779 1.90051 16.0214 1.89661C19.9174 1.8656 23.8134 1.85059 27.7079 1.85059C31.6049 1.85059 35.4999 1.8656 39.3963 1.89673C39.7393 1.90076 40.0833 1.9397 40.4208 2.01318C40.7568 2.08618 41.0868 2.19312 41.403 2.33008C41.721 2.46802 42.025 2.63708 42.3108 2.8335C42.5978 3.03052 42.8658 3.25452 43.1108 3.50159C43.3578 3.75061 43.5808 4.02161 43.7748 4.31238C43.9708 4.60437 44.1398 4.91431 44.2772 5.23816C44.4142 5.56311 44.5212 5.90112 44.5934 6.24597C44.6664 6.59094 44.7054 6.94397 44.7104 7.29602C44.7104 7.29602 44.7104 37.1479 44.7101 37.1484C44.6891 37.8424 44.5511 38.5385 44.3027 39.1934C44.0557 39.8484 43.6977 40.4624 43.2389 40.9862C43.0089 41.2483 42.7549 41.4873 42.4799 41.7C42.2069 41.912 41.9139 42.0969 41.6049 42.2539C41.2979 42.4099 40.9769 42.5369 40.6451 42.6315C40.3161 42.7264 39.9771 42.7896 39.6357 42.8154C31.6907 43.2485 23.7267 43.2485 15.7819 42.8154C15.1009 42.7625 14.4259 42.5664 13.8131 42.2549C13.1931 41.9398 12.6351 41.5068 12.1787 40.9869C11.7197 40.4619 11.3627 39.8479 11.1155 39.193C10.8675 38.538 10.7285 37.843 10.7065 37.1479Z" stroke="#16215B" stroke-width="0.283" stroke-miterlimit="10"/>
<rect x="13.3887" y="5.47168" width="28.63" height="34.35" rx="1.46" stroke="#00FFFF" stroke-width="0.28"/>
<path d="M39.1896 3.5864C31.5756 3.4874 23.8386 3.4874 16.2236 3.5864C15.9318 3.59042 15.6428 3.62143 15.3578 3.68149C15.2868 3.6965 15.2148 3.71249 15.1448 3.73141C15.0748 3.74948 15.0048 3.7695 14.9358 3.79147C14.7978 3.83542 14.6618 3.88449 14.5308 3.9415C14.3978 3.9985 14.2678 4.06149 14.1418 4.13144C14.0778 4.16647 14.0148 4.20346 13.9528 4.24142C13.8908 4.27951 13.8298 4.31943 13.7698 4.36142C13.5318 4.52646 13.3118 4.71445 13.1108 4.92343C13.0098 5.02744 12.9148 5.13742 12.8248 5.25351C12.7788 5.31052 12.7358 5.36948 12.6928 5.42941C12.6508 5.48849 12.6108 5.54843 12.5718 5.61044C12.4148 5.85544 12.2838 6.11447 12.1768 6.38644C12.1508 6.45444 12.1248 6.52341 12.1018 6.59348C12.0778 6.66342 12.0558 6.73349 12.0358 6.80344C11.9948 6.94443 11.9618 7.0864 11.9348 7.23044C11.8818 7.51645 11.8548 7.80649 11.8548 8.10251C11.8526 17.5191 11.8516 26.9371 11.8496 36.3541C11.8497 36.6476 11.8707 36.9375 11.9137 37.2235C11.9357 37.3665 11.9617 37.5085 11.9947 37.6505C12.0107 37.7215 12.0287 37.7915 12.0477 37.8615C12.0667 37.9325 12.0877 38.0025 12.1097 38.0725C12.1987 38.3506 12.3087 38.6195 12.4427 38.8766C12.4767 38.9415 12.5117 39.0055 12.5477 39.0686C12.5837 39.1316 12.6217 39.1936 12.6617 39.2545C12.7407 39.3756 12.8237 39.4935 12.9127 39.6056C13.0017 39.7185 13.0967 39.8275 13.1967 39.9315C13.2467 39.9825 13.2977 40.0335 13.3517 40.0835C13.4047 40.1325 13.4587 40.1815 13.5137 40.2275C13.7357 40.4126 13.9727 40.5725 14.2267 40.7065C14.2897 40.7395 14.3547 40.7716 14.4197 40.8015C14.4857 40.8315 14.5527 40.8595 14.6197 40.8866C14.7537 40.9386 14.8907 40.9835 15.0287 41.0216C15.3047 41.0965 15.5867 41.1425 15.8767 41.1576C23.7191 41.5847 31.6931 41.5847 39.5351 41.1577C39.8263 41.1417 40.1093 41.0958 40.3853 41.0217C40.5233 40.9837 40.6593 40.9387 40.7933 40.8867C40.8603 40.8597 40.9273 40.8318 40.9933 40.8017C41.0593 40.7707 41.1243 40.7387 41.1873 40.7048C41.4433 40.5708 41.6803 40.4107 41.8993 40.2258C42.0103 40.1338 42.1153 40.0348 42.2173 39.9308C42.2663 39.8788 42.3163 39.8248 42.3633 39.7697C42.4113 39.7158 42.4573 39.6598 42.5023 39.6037C42.6803 39.3778 42.8353 39.1367 42.9683 38.8818C43.0343 38.7538 43.0963 38.6228 43.1513 38.4878C43.1793 38.4207 43.2063 38.3528 43.2303 38.2838C43.2563 38.2158 43.2793 38.1467 43.3023 38.0768C43.3893 37.7998 43.4543 37.5167 43.4983 37.2297C43.5093 37.1577 43.5173 37.0847 43.5263 37.0128C43.5343 36.9398 43.5413 36.8668 43.5463 36.7938C43.5573 36.6478 43.5623 36.5007 43.5623 36.3547C43.5606 26.9375 43.5596 17.5195 43.5587 8.10202C43.5577 7.8071 43.5317 7.51413 43.4767 7.22409C43.4497 7.07907 43.4147 6.93613 43.3747 6.79611C43.3337 6.6561 43.2877 6.51804 43.2347 6.38303C43.1807 6.24704 43.1217 6.11411 43.0547 5.9841C43.0217 5.91904 42.9877 5.8541 42.9507 5.79013C42.9137 5.72702 42.8757 5.66403 42.8367 5.60202C42.6797 5.35703 42.4997 5.12912 42.2987 4.92014C42.2487 4.86813 42.1977 4.81711 42.1447 4.76706C42.0907 4.71713 42.0377 4.66806 41.9807 4.62106C41.8697 4.52609 41.7537 4.43808 41.6357 4.35605C41.3977 4.19308 41.1457 4.05405 40.8787 3.94003C40.8127 3.91208 40.7447 3.8851 40.6757 3.8591C40.6077 3.83408 40.5387 3.81003 40.4697 3.78903C40.3307 3.74606 40.1917 3.70908 40.0507 3.68002C39.7687 3.62204 39.4827 3.59006 39.1896 3.5864Z" stroke="#FF00FF" stroke-width="0.283465" stroke-miterlimit="10" stroke-linecap="round" stroke-linejoin="round"/>
<path fill-rule="evenodd" clip-rule="evenodd" d="M37.4282 12.8218C36.1865 11.5801 34.6266 11.1419 33.1126 10.947C31.6408 10.7575 29.755 10.75 27.5 10.75C25.245 10.75 23.3592 10.7575 21.8874 10.947C20.3734 11.1419 18.8135 11.5801 17.5718 12.8218C16.3301 14.0635 15.8919 15.6234 15.697 17.1374C15.5075 18.6092 15.5 20.495 15.5 22.75C15.5 25.005 15.5075 26.8908 15.697 28.3626C15.8919 29.8766 16.3301 31.4365 17.5718 32.6782C18.8135 33.9199 20.3734 34.3581 21.8874 34.553C23.3592 34.7425 25.245 34.75 27.5 34.75C29.755 34.75 31.6408 34.7425 33.1126 34.553C34.6266 34.3581 36.1865 33.9199 37.4282 32.6782C38.6699 31.4365 39.1081 29.8766 39.303 28.3626C39.4925 26.8908 39.5 25.005 39.5 22.75C39.5 20.495 39.4925 18.6092 39.303 17.1374C39.1081 15.6234 38.6699 14.0635 37.4282 12.8218ZM32.9312 12.3554C34.3147 12.5335 35.5058 12.9077 36.424 13.8259C37.3423 14.7442 37.7164 15.9352 37.8945 17.3187C38.0699 18.681 38.0799 20.4653 38.0799 22.75C38.0799 25.0347 38.0699 26.819 37.8945 28.1813C37.7164 29.5648 37.3423 30.7559 36.424 31.6741C35.5058 32.5923 34.3147 32.9665 32.9312 33.1446C31.569 33.32 29.7846 33.33 27.4999 33.33C25.2152 33.33 23.4309 33.32 22.0686 33.1446C20.6851 32.9665 19.4941 32.5923 18.5758 31.6741C17.6576 30.7559 17.2834 29.5648 17.1053 28.1813C16.9299 26.819 16.9199 25.0347 16.9199 22.75C16.9199 20.4653 16.9299 18.681 17.1053 17.3187C17.2834 15.9352 17.6576 14.7442 18.5758 13.8259C19.4941 12.9077 20.6851 12.5335 22.0686 12.3554C23.4309 12.18 25.2152 12.17 27.4999 12.17C29.7846 12.17 31.569 12.18 32.9312 12.3554ZM35.4199 14.83C34.2299 13.64 32.1299 13.59 27.4999 13.59C22.8699 13.59 20.7699 13.64 19.5799 14.83C18.3899 16.02 18.3399 18.12 18.3399 22.75C18.3399 27.38 18.3899 29.48 19.5799 30.67C20.7699 31.86 22.8699 31.91 27.4999 31.91C32.1299 31.91 34.2299 31.86 35.4199 30.67C36.6099 29.48 36.6599 27.38 36.6599 22.75C36.6599 18.12 36.6099 16.02 35.4199 14.83ZM31.0156 17.0732C32.0729 16.2519 33.6097 17.0063 33.6097 18.345V20.895C33.6097 21.3004 33.4722 21.6987 33.2169 22.0168C32.9714 22.3226 32.5245 22.3716 32.2187 22.1261C31.9129 21.8806 31.864 21.4338 32.1095 21.128C32.1594 21.0657 32.1897 20.9821 32.1897 20.895V18.345C32.1897 18.1848 32.0089 18.0994 31.8863 18.195L31.8819 18.1984L31.8819 18.1984L28.3488 20.9086C27.8479 21.2928 27.1515 21.2928 26.6507 20.9086L23.1191 18.1996L23.1186 18.1992C23.0574 18.1528 22.986 18.1471 22.9155 18.1816C22.8452 18.2159 22.8097 18.273 22.8097 18.345V20.895C22.8097 21.0183 22.8689 21.1277 22.9524 21.1873L22.9606 21.1931L22.9605 21.1932L27.4989 24.5329L29.0679 23.3739L29.0686 23.3734C29.3828 23.1419 29.7509 23.025 30.1297 23.025H31.8097C32.8018 23.025 33.5997 23.8229 33.5997 24.815V26.975C33.5997 27.9672 32.8018 28.765 31.8097 28.765H23.1897C22.1976 28.765 21.3997 27.9672 21.3997 26.975V24.685C21.3997 24.4888 21.4351 24.3002 21.4979 24.1264C21.6313 23.7576 22.0383 23.5668 22.407 23.7001C22.7758 23.8334 22.9667 24.2404 22.8333 24.6092C22.8242 24.6345 22.8197 24.66 22.8197 24.685V26.975C22.8197 27.1829 22.9818 27.345 23.1897 27.345H31.8097C32.0176 27.345 32.1797 27.1829 32.1797 26.975V24.815C32.1797 24.6072 32.0176 24.445 31.8097 24.445H30.1297C30.0487 24.445 29.9769 24.4681 29.9112 24.5164L29.9109 24.5166L28.3278 25.686C27.8359 26.0494 27.1647 26.05 26.6721 25.6875L22.1224 22.3395C21.6488 21.9988 21.3897 21.45 21.3897 20.895V18.345C21.3897 17.0074 22.9309 16.2701 23.9803 17.0705L23.9819 17.0717L27.4997 19.7702L31.0156 17.0732Z" fill="black"/>
</svg>
