<svg width="55" height="54" viewBox="0 0 55 54" fill="none" xmlns="http://www.w3.org/2000/svg">
<path d="M10.7065 37.1479V7.2959C10.7125 6.94397 10.752 6.59094 10.825 6.24585C10.897 5.90088 11.003 5.56384 11.1411 5.23901C11.4141 4.59497 11.8131 4.00098 12.3071 3.50171C12.7961 3.00769 13.3791 2.60559 14.0145 2.32971C14.3315 2.19177 14.6605 2.08582 14.9979 2.01257C15.3349 1.93958 15.6779 1.90051 16.0214 1.89661C19.9174 1.8656 23.8134 1.85059 27.7079 1.85059C31.6049 1.85059 35.4999 1.8656 39.3963 1.89673C39.7393 1.90076 40.0833 1.9397 40.4208 2.01318C40.7568 2.08618 41.0868 2.19312 41.403 2.33008C41.721 2.46802 42.025 2.63708 42.3108 2.8335C42.5978 3.03052 42.8658 3.25452 43.1108 3.50159C43.3578 3.75061 43.5808 4.02161 43.7748 4.31238C43.9708 4.60437 44.1398 4.91431 44.2772 5.23816C44.4142 5.56311 44.5212 5.90112 44.5934 6.24597C44.6664 6.59094 44.7054 6.94397 44.7104 7.29602C44.7104 7.29602 44.7104 37.1479 44.7101 37.1484C44.6891 37.8424 44.5511 38.5385 44.3027 39.1934C44.0557 39.8484 43.6977 40.4624 43.2389 40.9862C43.0089 41.2483 42.7549 41.4873 42.4799 41.7C42.2069 41.912 41.9139 42.0969 41.6049 42.2539C41.2979 42.4099 40.9769 42.5369 40.6451 42.6315C40.3161 42.7264 39.9771 42.7896 39.6357 42.8154C31.6907 43.2485 23.7267 43.2485 15.7819 42.8154C15.1009 42.7625 14.4259 42.5664 13.8131 42.2549C13.1931 41.9398 12.6351 41.5068 12.1787 40.9869C11.7197 40.4619 11.3627 39.8479 11.1155 39.193C10.8675 38.538 10.7285 37.843 10.7065 37.1479Z" stroke="#16215B" stroke-width="0.283" stroke-miterlimit="10"/>
<rect x="13.3887" y="5.47168" width="28.63" height="34.35" rx="1.46" stroke="#00FFFF" stroke-width="0.28"/>
<path d="M39.1896 3.5864C31.5756 3.4874 23.8386 3.4874 16.2236 3.5864C15.9318 3.59042 15.6428 3.62143 15.3578 3.68149C15.2868 3.6965 15.2148 3.71249 15.1448 3.73141C15.0748 3.74948 15.0048 3.7695 14.9358 3.79147C14.7978 3.83542 14.6618 3.88449 14.5308 3.9415C14.3978 3.9985 14.2678 4.06149 14.1418 4.13144C14.0778 4.16647 14.0148 4.20346 13.9528 4.24142C13.8908 4.27951 13.8298 4.31943 13.7698 4.36142C13.5318 4.52646 13.3118 4.71445 13.1108 4.92343C13.0098 5.02744 12.9148 5.13742 12.8248 5.25351C12.7788 5.31052 12.7358 5.36948 12.6928 5.42941C12.6508 5.48849 12.6108 5.54843 12.5718 5.61044C12.4148 5.85544 12.2838 6.11447 12.1768 6.38644C12.1508 6.45444 12.1248 6.52341 12.1018 6.59348C12.0778 6.66342 12.0558 6.73349 12.0358 6.80344C11.9948 6.94443 11.9618 7.0864 11.9348 7.23044C11.8818 7.51645 11.8548 7.80649 11.8548 8.10251C11.8526 17.5191 11.8516 26.9371 11.8496 36.3541C11.8497 36.6476 11.8707 36.9375 11.9137 37.2235C11.9357 37.3665 11.9617 37.5085 11.9947 37.6505C12.0107 37.7215 12.0287 37.7915 12.0477 37.8615C12.0667 37.9325 12.0877 38.0025 12.1097 38.0725C12.1987 38.3506 12.3087 38.6195 12.4427 38.8766C12.4767 38.9415 12.5117 39.0055 12.5477 39.0686C12.5837 39.1316 12.6217 39.1936 12.6617 39.2545C12.7407 39.3756 12.8237 39.4935 12.9127 39.6056C13.0017 39.7185 13.0967 39.8275 13.1967 39.9315C13.2467 39.9825 13.2977 40.0335 13.3517 40.0835C13.4047 40.1325 13.4587 40.1815 13.5137 40.2275C13.7357 40.4126 13.9727 40.5725 14.2267 40.7065C14.2897 40.7395 14.3547 40.7716 14.4197 40.8015C14.4857 40.8315 14.5527 40.8595 14.6197 40.8866C14.7537 40.9386 14.8907 40.9835 15.0287 41.0216C15.3047 41.0965 15.5867 41.1425 15.8767 41.1576C23.7191 41.5847 31.6931 41.5847 39.5351 41.1577C39.8263 41.1417 40.1093 41.0958 40.3853 41.0217C40.5233 40.9837 40.6593 40.9387 40.7933 40.8867C40.8603 40.8597 40.9273 40.8318 40.9933 40.8017C41.0593 40.7707 41.1243 40.7387 41.1873 40.7048C41.4433 40.5708 41.6803 40.4107 41.8993 40.2258C42.0103 40.1338 42.1153 40.0348 42.2173 39.9308C42.2663 39.8788 42.3163 39.8248 42.3633 39.7697C42.4113 39.7158 42.4573 39.6598 42.5023 39.6037C42.6803 39.3778 42.8353 39.1367 42.9683 38.8818C43.0343 38.7538 43.0963 38.6228 43.1513 38.4878C43.1793 38.4207 43.2063 38.3528 43.2303 38.2838C43.2563 38.2158 43.2793 38.1467 43.3023 38.0768C43.3893 37.7998 43.4543 37.5167 43.4983 37.2297C43.5093 37.1577 43.5173 37.0847 43.5263 37.0128C43.5343 36.9398 43.5413 36.8668 43.5463 36.7938C43.5573 36.6478 43.5623 36.5007 43.5623 36.3547C43.5606 26.9375 43.5596 17.5195 43.5587 8.10202C43.5577 7.8071 43.5317 7.51413 43.4767 7.22409C43.4497 7.07907 43.4147 6.93613 43.3747 6.79611C43.3337 6.6561 43.2877 6.51804 43.2347 6.38303C43.1807 6.24704 43.1217 6.11411 43.0547 5.9841C43.0217 5.91904 42.9877 5.8541 42.9507 5.79013C42.9137 5.72702 42.8757 5.66403 42.8367 5.60202C42.6797 5.35703 42.4997 5.12912 42.2987 4.92014C42.2487 4.86813 42.1977 4.81711 42.1447 4.76706C42.0907 4.71713 42.0377 4.66806 41.9807 4.62106C41.8697 4.52609 41.7537 4.43808 41.6357 4.35605C41.3977 4.19308 41.1457 4.05405 40.8787 3.94003C40.8127 3.91208 40.7447 3.8851 40.6757 3.8591C40.6077 3.83408 40.5387 3.81003 40.4697 3.78903C40.3307 3.74606 40.1917 3.70908 40.0507 3.68002C39.7687 3.62204 39.4827 3.59006 39.1896 3.5864Z" stroke="#FF00FF" stroke-width="0.283465" stroke-miterlimit="10" stroke-linecap="round" stroke-linejoin="round"/>
<path d="M27.9929 32.5424L37.3027 23.1994C37.5658 22.9349 37.5658 22.506 37.3027 22.2414L35.5202 20.4531C35.2571 20.1886 34.8297 20.1886 34.5658 20.4531L25.2575 29.7961C24.9937 30.0607 24.9937 30.4888 25.2575 30.7533L27.0386 32.5424C27.3032 32.8069 27.7291 32.8069 27.9929 32.5424ZM27.2657 21.0682L29.0475 22.8572C29.3113 23.1218 29.738 23.1218 30.0026 22.8572L33.4841 19.3628C33.7471 19.0976 33.7471 18.6687 33.4841 18.4042L31.7022 16.6158C31.4384 16.352 31.0118 16.352 30.7479 16.6158L27.2657 20.111C27.0027 20.3748 27.0026 20.8036 27.2657 21.0682ZM27.0386 17.472C27.3031 17.7366 27.7291 17.7366 27.9929 17.472L29.7545 15.7039C30.0176 15.4393 30.0176 15.0112 29.7545 14.7459L27.972 12.9576C27.7089 12.6931 27.2815 12.6931 27.0184 12.9576L25.2574 14.7258C24.9936 14.9896 24.9936 15.4184 25.2574 15.683L27.0386 17.472ZM23.2375 21.2521C23.5013 21.5167 23.9287 21.5167 24.1918 21.2521L25.9534 19.4848C26.2165 19.2195 26.2165 18.7914 25.9534 18.5268L24.1716 16.7378C23.9077 16.4733 23.4803 16.4733 23.2172 16.7378L21.4563 18.5059C21.1925 18.7705 21.1925 19.1986 21.4563 19.4632L23.2375 21.2521ZM22.195 23.2478C22.4581 22.9826 22.4581 22.5551 22.195 22.2899L20.4131 20.5016C20.1493 20.2378 19.7219 20.2378 19.4595 20.5016L17.6979 22.269C17.434 22.5335 17.434 22.9631 17.6979 23.2262L19.479 25.0152C19.7435 25.2798 20.1702 25.2798 20.434 25.0152L22.195 23.2478ZM25.4437 21.9222L23.6821 23.6903C23.419 23.9549 23.419 24.383 23.6821 24.6476L25.4632 26.4366C25.7277 26.7011 26.1544 26.7011 26.4182 26.4366L28.1792 24.6692C28.443 24.4039 28.443 23.9758 28.1792 23.7112L26.3973 21.9222C26.1335 21.6577 25.7061 21.6577 25.4437 21.9222Z" fill="black"/>
</svg>
