<svg width="54" height="54" viewBox="0 0 54 54" fill="none" xmlns="http://www.w3.org/2000/svg">
<path d="M10.2065 37.1479V7.2959C10.2125 6.94397 10.252 6.59094 10.325 6.24585C10.397 5.90088 10.503 5.56384 10.6411 5.23901C10.9141 4.59497 11.3131 4.00098 11.8071 3.50171C12.2961 3.00769 12.8791 2.60559 13.5145 2.32971C13.8315 2.19177 14.1605 2.08582 14.4979 2.01257C14.8349 1.93958 15.1779 1.90051 15.5214 1.89661C19.4174 1.8656 23.3134 1.85059 27.2079 1.85059C31.1049 1.85059 34.9999 1.8656 38.8963 1.89673C39.2393 1.90076 39.5833 1.9397 39.9208 2.01318C40.2568 2.08618 40.5868 2.19312 40.903 2.33008C41.221 2.46802 41.525 2.63708 41.8108 2.8335C42.0978 3.03052 42.3658 3.25452 42.6108 3.50159C42.8578 3.75061 43.0808 4.02161 43.2748 4.31238C43.4708 4.60437 43.6398 4.91431 43.7772 5.23816C43.9142 5.56311 44.0212 5.90112 44.0934 6.24597C44.1664 6.59094 44.2054 6.94397 44.2104 7.29602C44.2104 7.29602 44.2104 37.1479 44.2101 37.1484C44.1891 37.8424 44.0511 38.5385 43.8027 39.1934C43.5557 39.8484 43.1977 40.4624 42.7389 40.9862C42.5089 41.2483 42.2549 41.4873 41.9799 41.7C41.7069 41.912 41.4139 42.0969 41.1049 42.2539C40.7979 42.4099 40.4769 42.5369 40.1451 42.6315C39.8161 42.7264 39.4771 42.7896 39.1357 42.8154C31.1907 43.2485 23.2267 43.2485 15.2819 42.8154C14.6009 42.7625 13.9259 42.5664 13.3131 42.2549C12.6931 41.9398 12.1351 41.5068 11.6787 40.9869C11.2197 40.4619 10.8627 39.8479 10.6155 39.193C10.3675 38.538 10.2285 37.843 10.2065 37.1479Z" stroke="#16215B" stroke-width="0.283" stroke-miterlimit="10"/>
<rect x="12.8887" y="5.47168" width="28.63" height="34.35" rx="1.46" stroke="#00FFFF" stroke-width="0.28"/>
<path d="M38.6896 3.58646C31.0756 3.48746 23.3386 3.48746 15.7236 3.58646C15.4318 3.59048 15.1428 3.62149 14.8578 3.68155C14.7868 3.69656 14.7148 3.71255 14.6448 3.73148C14.5748 3.74954 14.5048 3.76956 14.4358 3.79153C14.2978 3.83548 14.1618 3.88455 14.0308 3.94156C13.8978 3.99857 13.7678 4.06155 13.6418 4.1315C13.5778 4.16653 13.5148 4.20352 13.4528 4.24149C13.3908 4.27957 13.3298 4.31949 13.2698 4.36148C13.0318 4.52652 12.8118 4.71451 12.6108 4.92349C12.5098 5.0275 12.4148 5.13748 12.3248 5.25357C12.2788 5.31058 12.2358 5.36954 12.1928 5.42947C12.1508 5.48856 12.1108 5.54849 12.0718 5.6105C11.9148 5.8555 11.7838 6.11453 11.6768 6.38651C11.6508 6.4545 11.6248 6.52347 11.6018 6.59354C11.5778 6.66348 11.5558 6.73355 11.5358 6.8035C11.4948 6.94449 11.4618 7.08646 11.4348 7.2305C11.3818 7.51651 11.3548 7.80655 11.3548 8.10257C11.3526 17.5192 11.3516 26.9372 11.3496 36.3542C11.3497 36.6476 11.3707 36.9375 11.4137 37.2235C11.4357 37.3666 11.4617 37.5086 11.4947 37.6505C11.5107 37.7216 11.5287 37.7915 11.5477 37.8616C11.5667 37.9325 11.5877 38.0026 11.6097 38.0725C11.6987 38.3506 11.8087 38.6195 11.9427 38.8766C11.9767 38.9416 12.0117 39.0055 12.0477 39.0686C12.0837 39.1316 12.1217 39.1936 12.1617 39.2545C12.2407 39.3756 12.3237 39.4936 12.4127 39.6056C12.5017 39.7185 12.5967 39.8275 12.6967 39.9315C12.7467 39.9826 12.7977 40.0336 12.8517 40.0835C12.9047 40.1326 12.9587 40.1815 13.0137 40.2276C13.2357 40.4126 13.4727 40.5725 13.7267 40.7066C13.7897 40.7395 13.8547 40.7716 13.9197 40.8015C13.9857 40.8316 14.0527 40.8595 14.1197 40.8866C14.2537 40.9386 14.3907 40.9836 14.5287 41.0216C14.8047 41.0966 15.0867 41.1426 15.3767 41.1576C23.2191 41.5847 31.1931 41.5847 39.0351 41.1577C39.3263 41.1418 39.6093 41.0959 39.8853 41.0218C40.0233 40.9838 40.1593 40.9388 40.2933 40.8867C40.3603 40.8598 40.4273 40.8318 40.4933 40.8018C40.5593 40.7708 40.6243 40.7388 40.6873 40.7049C40.9433 40.5708 41.1803 40.4108 41.3993 40.2259C41.5103 40.1338 41.6153 40.0348 41.7173 39.9308C41.7663 39.8788 41.8163 39.8249 41.8633 39.7698C41.9113 39.7159 41.9573 39.6598 42.0023 39.6038C42.1803 39.3778 42.3353 39.1367 42.4683 38.8819C42.5343 38.7538 42.5963 38.6228 42.6513 38.4878C42.6793 38.4208 42.7063 38.3528 42.7303 38.2838C42.7563 38.2159 42.7793 38.1468 42.8023 38.0768C42.8893 37.7998 42.9543 37.5168 42.9983 37.2298C43.0093 37.1577 43.0173 37.0847 43.0263 37.0128C43.0343 36.9398 43.0413 36.8669 43.0463 36.7939C43.0573 36.6479 43.0623 36.5008 43.0623 36.3548C43.0606 26.9375 43.0596 17.5196 43.0587 8.10208C43.0577 7.80716 43.0317 7.51419 42.9767 7.22415C42.9497 7.07913 42.9147 6.93619 42.8747 6.79617C42.8337 6.65616 42.7877 6.5181 42.7347 6.38309C42.6807 6.2471 42.6217 6.11417 42.5547 5.98416C42.5217 5.9191 42.4877 5.85416 42.4507 5.79019C42.4137 5.72708 42.3757 5.66409 42.3367 5.60208C42.1797 5.35709 41.9997 5.12918 41.7987 4.9202C41.7487 4.86819 41.6977 4.81717 41.6447 4.76712C41.5907 4.71719 41.5377 4.66812 41.4807 4.62112C41.3697 4.52615 41.2537 4.43814 41.1357 4.35611C40.8977 4.19315 40.6457 4.05411 40.3787 3.94009C40.3127 3.91214 40.2447 3.88516 40.1757 3.85916C40.1077 3.83414 40.0387 3.81009 39.9697 3.78909C39.8307 3.74612 39.6917 3.70914 39.5507 3.68008C39.2687 3.6221 38.9827 3.59012 38.6896 3.58646Z" stroke="#FF00FF" stroke-width="0.283465" stroke-miterlimit="10" stroke-linecap="round" stroke-linejoin="round"/>
<path fill-rule="evenodd" clip-rule="evenodd" d="M25.21 19.365C25.21 18.3764 26.0114 17.575 27 17.575C27.9886 17.575 28.79 18.3764 28.79 19.365V19.3686V19.3722V19.3759V19.3796V19.3834V19.3873V19.3912V19.3952V19.3992V19.4033V19.4075V19.4117V19.4159V19.4203V19.4247V19.4291V19.4336V19.4382V19.4428V19.4475V19.4522V19.457V19.4619V19.4668V19.4718V19.4768V19.4818V19.487V19.4922V19.4974V19.5027V19.508V19.5134V19.5189V19.5244V19.5299V19.5356V19.5412V19.5469V19.5527V19.5585V19.5644V19.5703V19.5763V19.5823V19.5884V19.5945V19.6006V19.6069V19.6131V19.6194V19.6258V19.6322V19.6387V19.6452V19.6517V19.6583V19.665V19.6717V19.6784V19.6852V19.6921V19.6989V19.7059V19.7128V19.7198V19.7269V19.734V19.7411V19.7483V19.7556V19.7628V19.7702V19.7775V19.7849V19.7924V19.7999V19.8074V19.8149V19.8226V19.8302V19.8379V19.8456V19.8534V19.8612V19.8691V19.877V19.8849V19.8928V19.9008V19.9089V19.917V19.9251V19.9332V19.9414V19.9497V19.9579V19.9662V19.9746V19.9829V19.9913V19.9998V20.0082V20.0168V20.0253V20.0339V20.0425V20.0511V20.0598V20.0685V20.0773V20.086V20.0948V20.1037V20.1126V20.1215V20.1304V20.1394V20.1483V20.1574V20.1664V20.1755V20.1846V20.1938V20.2029V20.2121V20.2214V20.2306V20.2399V20.2492V20.2585V20.2679V20.2773V20.2867V20.2961V20.3056V20.3151V20.3246V20.3342V20.3437V20.3533V20.3629V20.3726V20.3822V20.3919V20.4016V20.4114V20.4211V20.4309V20.4407V20.4505V20.4604V20.4702V20.4801V20.49V20.5V20.5099V20.5199V20.5299V20.5399V20.5499V20.5599V20.57V20.5801V20.5902V20.6003V20.6104V20.6206V20.6307V20.6409V20.6511V20.6613V20.6716V20.6818V20.6921V20.7023V20.7126V20.7229V20.7333V20.7436V20.7539V20.7643V20.7747V20.7851V20.7955V20.8059V20.8163V20.8267V20.8372V20.8476V20.8581V20.8686V20.8791V20.8896V20.9001V20.9106V20.9211V20.9317V20.9422V20.9528V20.9633V20.9739V20.9845V20.9951V21.0057V21.0163V21.0269V21.0375V21.0481V21.0587V21.0694V21.08V21.0906V21.1013V21.1119V21.1226V21.1276C28.79 21.1301 28.79 21.1326 28.79 21.1351V22.0351C28.79 22.1124 28.7273 22.1751 28.65 22.1751H25.3499C25.3279 22.1751 25.31 22.1572 25.31 22.1351C25.31 21.7429 24.9921 21.4251 24.6 21.4251C24.2078 21.4251 23.89 21.7429 23.89 22.1351C23.89 22.1572 23.8721 22.1751 23.85 22.1751H23.0001C22.608 22.1751 22.2901 22.4929 22.2901 22.8851C22.2901 23.2772 22.608 23.5951 23.0001 23.5951H23.75C23.8273 23.5951 23.89 23.6577 23.89 23.7351V26.035C23.89 26.1124 23.8273 26.175 23.75 26.175H23C22.6079 26.175 22.29 26.4929 22.29 26.885C22.29 27.2772 22.6079 27.595 23 27.595H23.75C23.8273 27.595 23.89 27.6577 23.89 27.735V28.635C23.89 29.0272 24.2078 29.345 24.6 29.345C24.9921 29.345 25.31 29.0272 25.31 28.635V27.735C25.31 27.6577 25.3726 27.595 25.45 27.595H28.65C28.7273 27.595 28.79 27.6577 28.79 27.735V28.635C28.79 29.0272 29.1078 29.345 29.5 29.345C29.8921 29.345 30.21 29.0272 30.21 28.635V27.735C30.21 27.6577 30.2726 27.595 30.35 27.595H31C31.3922 27.595 31.71 27.2772 31.71 26.885C31.71 26.4929 31.3922 26.175 31 26.175H30.35C30.2726 26.175 30.21 26.1124 30.21 26.035L30.21 23.7351C30.21 23.6577 30.2726 23.5951 30.35 23.5951H31.0001C31.3922 23.5951 31.7101 23.2772 31.7101 22.8851C31.7101 22.4929 31.3922 22.1751 31.0001 22.1751H30.2125C30.2111 22.1751 30.21 22.1739 30.21 22.1725V22.1629V22.1531V22.1434V22.1336V22.1239V22.1141V22.1042V22.0944V22.0845V22.0747V22.0648V22.0548V22.0449V22.0349V22.0249V22.0149V22.0049V21.9949V21.9848V21.9747V21.9646V21.9545V21.9444V21.9342V21.9241V21.9139V21.9037V21.8935V21.8832V21.873V21.8627V21.8524V21.8421V21.8318V21.8215V21.8112V21.8008V21.7905V21.7801V21.7697V21.7593V21.7489V21.7385V21.728V21.7176V21.7071V21.6967V21.6862V21.6757V21.6652V21.6547V21.6442V21.6336V21.6231V21.6126V21.602V21.5914V21.5809V21.5703V21.5597V21.5491V21.5385V21.5279V21.5173V21.5067V21.496V21.4854V21.4748V21.4641V21.4535V21.4428V21.4322V21.4215V21.4109V21.4002V21.3895V21.3789V21.3682V21.3575V21.3468V21.3361V21.3255V21.3148V21.3041V21.2934V21.2827V21.272V21.2614V21.2507V21.24V21.2293V21.2186V21.2079V21.1973V21.1866V21.1759V21.1652V21.1546V21.1439V21.1333V21.1226V21.1119V21.1013V21.0906V21.08V21.0694V21.0587V21.0481V21.0375V21.0269V21.0163V21.0057V20.9951V20.9845V20.9739V20.9633V20.9528V20.9422V20.9317V20.9211V20.9106V20.9001V20.8896V20.8791V20.8686V20.8581V20.8476V20.8372V20.8267V20.8163V20.8059V20.7955V20.7851V20.7747V20.7643V20.7539V20.7436V20.7333V20.7229V20.7126V20.7023V20.6921V20.6818V20.6716V20.6613V20.6511V20.6409V20.6307V20.6206V20.6104V20.6003V20.5902V20.5801V20.57V20.5599V20.5499V20.5399V20.5299V20.5199V20.5099V20.5V20.49V20.4801V20.4702V20.4604V20.4505V20.4407V20.4309V20.4211V20.4114V20.4016V20.3919V20.3822V20.3726V20.3629V20.3533V20.3437V20.3342V20.3246V20.3151V20.3056V20.2961V20.2867V20.2773V20.2679V20.2585V20.2492V20.2399V20.2306V20.2214V20.2121V20.2029V20.1938V20.1846V20.1755V20.1664V20.1574V20.1483V20.1394V20.1304V20.1215V20.1126V20.1037V20.0948V20.086V20.0773V20.0685V20.0598V20.0511V20.0425V20.0339V20.0253V20.0168V20.0082V19.9998V19.9913V19.9829V19.9746V19.9662V19.9579V19.9497V19.9414V19.9332V19.9251V19.917V19.9089V19.9008V19.8928V19.8849V19.877V19.8691V19.8612V19.8534V19.8456V19.8379V19.8302V19.8226V19.8149V19.8074V19.7999V19.7924V19.7849V19.7775V19.7702V19.7628V19.7556V19.7483V19.7411V19.734V19.7269V19.7198V19.7128V19.7059V19.6989V19.6921V19.6852V19.6784V19.6717V19.665V19.6583V19.6517V19.6452V19.6387V19.6322V19.6258V19.6194V19.6131V19.6069V19.6006V19.5945V19.5884V19.5823V19.5763V19.5703V19.5644V19.5585V19.5527V19.5469V19.5412V19.5356V19.5299V19.5244V19.5189V19.5134V19.508V19.5027V19.4974V19.4922V19.487V19.4818V19.4768V19.4718V19.4668V19.4619V19.457V19.4522V19.4475V19.4428V19.4382V19.4336V19.4291V19.4247V19.4203V19.4159V19.4117V19.4075V19.4033V19.3992V19.3952V19.3912V19.3873V19.3834V19.3796V19.3759V19.3722V19.3686V19.365C30.21 17.5922 28.7728 16.155 27 16.155C25.2272 16.155 23.79 17.5922 23.79 19.365V19.8651C23.79 20.2572 24.1079 20.5751 24.5 20.5751C24.8921 20.5751 25.21 20.2572 25.21 19.8651V19.365ZM28.79 26.035C28.79 26.1124 28.7273 26.175 28.65 26.175H25.45C25.3726 26.175 25.31 26.1124 25.31 26.035L25.31 23.7351C25.31 23.6577 25.3726 23.5951 25.45 23.5951H28.65C28.7273 23.5951 28.79 23.6577 28.79 23.7351L28.79 26.035Z" fill="black"/>
</svg>
