<svg width="54" height="54" viewBox="0 0 54 54" fill="none" xmlns="http://www.w3.org/2000/svg">
<rect x="1.8501" y="1.85" width="50.3" height="50.3" rx="3" stroke="#16215B" stroke-width="0.28"/>
<path d="M10.2065 37.1479V7.29587C10.2125 6.94394 10.252 6.59091 10.325 6.24582C10.397 5.90085 10.503 5.56381 10.6411 5.23898C10.9141 4.59494 11.3131 4.00095 11.8071 3.50168C12.2961 3.00766 12.8791 2.60556 13.5145 2.32968C13.8315 2.19174 14.1605 2.08578 14.4979 2.01254C14.8349 1.93954 15.1779 1.90048 15.5214 1.89658C19.4174 1.86557 23.3134 1.85056 27.2079 1.85056C31.1049 1.85056 34.9999 1.86557 38.8963 1.8967C39.2393 1.90073 39.5833 1.93967 39.9208 2.01315C40.2568 2.08615 40.5868 2.19308 40.903 2.33005C41.221 2.46799 41.525 2.63705 41.8108 2.83347C42.0978 3.03049 42.3658 3.25449 42.6108 3.50156C42.8578 3.75058 43.0808 4.02158 43.2748 4.31235C43.4708 4.60434 43.6398 4.91428 43.7772 5.23813C43.9142 5.56308 44.0212 5.90109 44.0934 6.24594C44.1664 6.59091 44.2054 6.94394 44.2104 7.29599C44.2104 7.29599 44.2104 37.1479 44.2101 37.1484C44.1891 37.8424 44.0511 38.5384 43.8027 39.1933C43.5557 39.8484 43.1977 40.4624 42.7389 40.9862C42.5089 41.2483 42.2549 41.4873 41.9799 41.6999C41.7069 41.912 41.4139 42.0969 41.1049 42.2539C40.7979 42.4099 40.4769 42.5368 40.1451 42.6314C39.8161 42.7264 39.4771 42.7895 39.1357 42.8154C31.1907 43.2485 23.2267 43.2485 15.2819 42.8154C14.6009 42.7624 13.9259 42.5664 13.3131 42.2549C12.6931 41.9398 12.1351 41.5068 11.6787 40.9869C11.2197 40.4619 10.8627 39.8479 10.6155 39.193C10.3675 38.5379 10.2285 37.843 10.2065 37.1479Z" stroke="#16215B" stroke-width="0.283" stroke-miterlimit="10"/>
<rect x="12.8887" y="5.47166" width="28.63" height="34.35" rx="1.46" stroke="#00FFFF" stroke-width="0.28"/>
<path d="M38.6896 3.5864C31.0756 3.4874 23.3386 3.4874 15.7236 3.5864C15.4318 3.59042 15.1428 3.62143 14.8578 3.68149C14.7868 3.6965 14.7148 3.71249 14.6448 3.73141C14.5748 3.74948 14.5048 3.7695 14.4358 3.79147C14.2978 3.83542 14.1618 3.88449 14.0308 3.9415C13.8978 3.9985 13.7678 4.06149 13.6418 4.13144C13.5778 4.16647 13.5148 4.20346 13.4528 4.24142C13.3908 4.27951 13.3298 4.31943 13.2698 4.36142C13.0318 4.52646 12.8118 4.71445 12.6108 4.92343C12.5098 5.02744 12.4148 5.13742 12.3248 5.25351C12.2788 5.31052 12.2358 5.36948 12.1928 5.42941C12.1508 5.48849 12.1108 5.54843 12.0718 5.61044C11.9148 5.85544 11.7838 6.11447 11.6768 6.38644C11.6508 6.45444 11.6248 6.52341 11.6018 6.59348C11.5778 6.66342 11.5558 6.73349 11.5358 6.80344C11.4948 6.94443 11.4618 7.0864 11.4348 7.23044C11.3818 7.51645 11.3548 7.80649 11.3548 8.10251C11.3526 17.5191 11.3516 26.9371 11.3496 36.3541C11.3497 36.6476 11.3707 36.9375 11.4137 37.2235C11.4357 37.3665 11.4617 37.5085 11.4947 37.6505C11.5107 37.7215 11.5287 37.7915 11.5477 37.8615C11.5667 37.9325 11.5877 38.0025 11.6097 38.0725C11.6987 38.3506 11.8087 38.6195 11.9427 38.8766C11.9767 38.9415 12.0117 39.0055 12.0477 39.0686C12.0837 39.1316 12.1217 39.1936 12.1617 39.2545C12.2407 39.3756 12.3237 39.4935 12.4127 39.6056C12.5017 39.7185 12.5967 39.8275 12.6967 39.9315C12.7467 39.9825 12.7977 40.0335 12.8517 40.0835C12.9047 40.1325 12.9587 40.1815 13.0137 40.2275C13.2357 40.4126 13.4727 40.5725 13.7267 40.7065C13.7897 40.7395 13.8547 40.7716 13.9197 40.8015C13.9857 40.8315 14.0527 40.8595 14.1197 40.8866C14.2537 40.9386 14.3907 40.9835 14.5287 41.0216C14.8047 41.0965 15.0867 41.1425 15.3767 41.1576C23.2191 41.5847 31.1931 41.5847 39.0351 41.1577C39.3263 41.1417 39.6093 41.0958 39.8853 41.0217C40.0233 40.9837 40.1593 40.9387 40.2933 40.8867C40.3603 40.8597 40.4273 40.8318 40.4933 40.8017C40.5593 40.7707 40.6243 40.7387 40.6873 40.7048C40.9433 40.5708 41.1803 40.4107 41.3993 40.2258C41.5103 40.1338 41.6153 40.0348 41.7173 39.9308C41.7663 39.8788 41.8163 39.8248 41.8633 39.7697C41.9113 39.7158 41.9573 39.6598 42.0023 39.6037C42.1803 39.3778 42.3353 39.1367 42.4683 38.8818C42.5343 38.7538 42.5963 38.6228 42.6513 38.4878C42.6793 38.4207 42.7063 38.3528 42.7303 38.2838C42.7563 38.2158 42.7793 38.1467 42.8023 38.0768C42.8893 37.7998 42.9543 37.5167 42.9983 37.2297C43.0093 37.1577 43.0173 37.0847 43.0263 37.0128C43.0343 36.9398 43.0413 36.8668 43.0463 36.7938C43.0573 36.6478 43.0623 36.5007 43.0623 36.3547C43.0606 26.9375 43.0596 17.5195 43.0587 8.10202C43.0577 7.8071 43.0317 7.51413 42.9767 7.22409C42.9497 7.07907 42.9147 6.93613 42.8747 6.79611C42.8337 6.6561 42.7877 6.51804 42.7347 6.38303C42.6807 6.24704 42.6217 6.11411 42.5547 5.9841C42.5217 5.91904 42.4877 5.8541 42.4507 5.79013C42.4137 5.72702 42.3757 5.66403 42.3367 5.60202C42.1797 5.35703 41.9997 5.12912 41.7987 4.92014C41.7487 4.86813 41.6977 4.81711 41.6447 4.76706C41.5907 4.71713 41.5377 4.66806 41.4807 4.62106C41.3697 4.52609 41.2537 4.43808 41.1357 4.35605C40.8977 4.19308 40.6457 4.05405 40.3787 3.94003C40.3127 3.91208 40.2447 3.8851 40.1757 3.8591C40.1077 3.83408 40.0387 3.81003 39.9697 3.78903C39.8307 3.74606 39.6917 3.70908 39.5507 3.68002C39.2687 3.62204 38.9827 3.59006 38.6896 3.5864Z" stroke="#FF00FF" stroke-width="0.283465" stroke-miterlimit="10" stroke-linecap="round" stroke-linejoin="round"/>
<path d="M29.8438 18.7041H27.9004C27.5098 18.7041 27.2705 18.9482 27.2705 19.3584V25.0958C27.2705 25.506 27.5098 25.7501 27.9004 25.7501H29.8438C31.9532 25.7501 33.1934 24.4415 33.1934 22.21C33.1934 19.9785 31.9484 18.7041 29.8438 18.7041ZM29.712 24.6856H28.6721C28.5938 24.6856 28.5304 24.6221 28.5304 24.5439V19.9103C28.5304 19.832 28.5939 19.7686 28.6721 19.7686H29.712C31.1183 19.7686 31.9093 20.6378 31.9093 22.2149C31.9093 23.792 31.128 24.6856 29.712 24.6856Z" fill="black"/>
<path d="M34.2715 25.2079V21.0858C34.2715 20.7097 34.4913 20.4704 34.8527 20.4704C35.0595 20.4704 35.2285 20.5509 35.334 20.6919C35.3596 20.7261 35.3814 20.7648 35.3991 20.8013C35.4335 20.872 35.518 20.9021 35.5887 20.8678C35.8549 20.7388 36.4742 20.4753 37.0896 20.4753C38.2325 20.4753 38.8821 21.2079 38.8821 22.4045V25.208C38.8821 25.6183 38.633 25.8478 38.2765 25.8478C37.92 25.8478 37.666 25.6182 37.666 25.208V22.6488C37.666 21.9162 37.3241 21.5059 36.6306 21.5059C35.9371 21.5059 35.4877 22.009 35.4877 22.7513V25.208C35.4877 25.6183 35.2337 25.8478 34.8772 25.8478C34.5207 25.8478 34.2715 25.6182 34.2715 25.2079Z" fill="black"/>
<path d="M17.9985 18.7041H15.8892C15.4986 18.7041 15.2593 18.9482 15.2593 19.3584V25.1786C15.2593 25.5936 15.4986 25.8329 15.8892 25.8329C16.2798 25.8329 16.5191 25.5936 16.5191 25.1786V23.5626C16.5191 23.4843 16.5826 23.4209 16.6608 23.4209H17.9448C19.3706 23.4209 20.3715 22.4688 20.3715 21.0625C20.3715 19.6562 19.3998 18.7041 17.9985 18.7041ZM17.6616 22.4052H16.6608C16.5825 22.4052 16.5191 22.3417 16.5191 22.2635V19.8761C16.5191 19.7978 16.5826 19.7344 16.6608 19.7344H17.6665C18.5698 19.7344 19.0923 20.2178 19.0923 21.0625C19.0923 21.9072 18.565 22.4052 17.6617 22.4052H17.6616Z" fill="black"/>
<path d="M25.3519 20.4727C25.0053 20.4728 24.875 20.6779 24.875 20.6779L24.7257 20.8528C24.6794 20.9071 24.6 20.9183 24.5402 20.8793C24.3395 20.7488 23.8464 20.4874 23.1158 20.4874C21.7831 20.4874 20.9629 21.4784 20.9629 23.0993C20.9629 24.7202 21.7929 25.6966 23.0915 25.6966C23.768 25.6966 24.2616 25.4739 24.5233 25.3189C24.6176 25.263 24.7368 25.3315 24.7368 25.4411V25.5892C24.7368 26.2776 24.2438 26.7316 23.4186 26.7316C23.0854 26.7316 22.5006 26.4799 22.3739 26.4227C22.1819 26.3361 21.7315 26.2162 21.5526 26.5191C21.4166 26.7495 21.5096 27.0807 21.7878 27.2467C22.1223 27.4462 22.8513 27.6955 23.4088 27.6983C25.0052 27.7081 25.9573 26.8878 25.9573 25.5843V21.0927C25.9573 20.6924 25.7034 20.4727 25.3519 20.4727ZM23.4627 24.6861C22.7063 24.6861 22.2245 24.0909 22.2245 23.0988C22.2245 22.1067 22.7063 21.4926 23.4627 21.4926C24.2191 21.4926 24.7298 22.1256 24.7298 23.0988C24.7298 24.072 24.2288 24.6861 23.4627 24.6861Z" fill="black"/>
</svg>
