<svg width="54" height="54" viewBox="0 0 54 54" fill="none" xmlns="http://www.w3.org/2000/svg">
<path d="M10.2065 37.1479V7.2959C10.2125 6.94397 10.252 6.59094 10.325 6.24585C10.397 5.90088 10.503 5.56384 10.6411 5.23901C10.9141 4.59497 11.3131 4.00098 11.8071 3.50171C12.2961 3.00769 12.8791 2.60559 13.5145 2.32971C13.8315 2.19177 14.1605 2.08582 14.4979 2.01257C14.8349 1.93958 15.1779 1.90051 15.5214 1.89661C19.4174 1.8656 23.3134 1.85059 27.2079 1.85059C31.1049 1.85059 34.9999 1.8656 38.8963 1.89673C39.2393 1.90076 39.5833 1.9397 39.9208 2.01318C40.2568 2.08618 40.5868 2.19312 40.903 2.33008C41.221 2.46802 41.525 2.63708 41.8108 2.8335C42.0978 3.03052 42.3658 3.25452 42.6108 3.50159C42.8578 3.75061 43.0808 4.02161 43.2748 4.31238C43.4708 4.60437 43.6398 4.91431 43.7772 5.23816C43.9142 5.56311 44.0212 5.90112 44.0934 6.24597C44.1664 6.59094 44.2054 6.94397 44.2104 7.29602C44.2104 7.29602 44.2104 37.1479 44.2101 37.1484C44.1891 37.8424 44.0511 38.5385 43.8027 39.1934C43.5557 39.8484 43.1977 40.4624 42.7389 40.9862C42.5089 41.2483 42.2549 41.4873 41.9799 41.7C41.7069 41.912 41.4139 42.0969 41.1049 42.2539C40.7979 42.4099 40.4769 42.5369 40.1451 42.6315C39.8161 42.7264 39.4771 42.7896 39.1357 42.8154C31.1907 43.2485 23.2267 43.2485 15.2819 42.8154C14.6009 42.7625 13.9259 42.5664 13.3131 42.2549C12.6931 41.9398 12.1351 41.5068 11.6787 40.9869C11.2197 40.4619 10.8627 39.8479 10.6155 39.193C10.3675 38.538 10.2285 37.843 10.2065 37.1479Z" stroke="#16215B" stroke-width="0.283" stroke-miterlimit="10"/>
<rect x="12.8887" y="5.47168" width="28.63" height="34.35" rx="1.46" stroke="#00FFFF" stroke-width="0.28"/>
<path d="M38.6896 3.58646C31.0756 3.48746 23.3386 3.48746 15.7236 3.58646C15.4318 3.59048 15.1428 3.62149 14.8578 3.68155C14.7868 3.69656 14.7148 3.71255 14.6448 3.73148C14.5748 3.74954 14.5048 3.76956 14.4358 3.79153C14.2978 3.83548 14.1618 3.88455 14.0308 3.94156C13.8978 3.99857 13.7678 4.06155 13.6418 4.1315C13.5778 4.16653 13.5148 4.20352 13.4528 4.24149C13.3908 4.27957 13.3298 4.31949 13.2698 4.36148C13.0318 4.52652 12.8118 4.71451 12.6108 4.92349C12.5098 5.0275 12.4148 5.13748 12.3248 5.25357C12.2788 5.31058 12.2358 5.36954 12.1928 5.42947C12.1508 5.48856 12.1108 5.54849 12.0718 5.6105C11.9148 5.8555 11.7838 6.11453 11.6768 6.38651C11.6508 6.4545 11.6248 6.52347 11.6018 6.59354C11.5778 6.66348 11.5558 6.73355 11.5358 6.8035C11.4948 6.94449 11.4618 7.08646 11.4348 7.2305C11.3818 7.51651 11.3548 7.80655 11.3548 8.10257C11.3526 17.5192 11.3516 26.9372 11.3496 36.3542C11.3497 36.6476 11.3707 36.9375 11.4137 37.2235C11.4357 37.3666 11.4617 37.5086 11.4947 37.6505C11.5107 37.7216 11.5287 37.7915 11.5477 37.8616C11.5667 37.9325 11.5877 38.0026 11.6097 38.0725C11.6987 38.3506 11.8087 38.6195 11.9427 38.8766C11.9767 38.9416 12.0117 39.0055 12.0477 39.0686C12.0837 39.1316 12.1217 39.1936 12.1617 39.2545C12.2407 39.3756 12.3237 39.4936 12.4127 39.6056C12.5017 39.7185 12.5967 39.8275 12.6967 39.9315C12.7467 39.9826 12.7977 40.0336 12.8517 40.0835C12.9047 40.1326 12.9587 40.1815 13.0137 40.2276C13.2357 40.4126 13.4727 40.5725 13.7267 40.7066C13.7897 40.7395 13.8547 40.7716 13.9197 40.8015C13.9857 40.8316 14.0527 40.8595 14.1197 40.8866C14.2537 40.9386 14.3907 40.9836 14.5287 41.0216C14.8047 41.0966 15.0867 41.1426 15.3767 41.1576C23.2191 41.5847 31.1931 41.5847 39.0351 41.1577C39.3263 41.1418 39.6093 41.0959 39.8853 41.0218C40.0233 40.9838 40.1593 40.9388 40.2933 40.8867C40.3603 40.8598 40.4273 40.8318 40.4933 40.8018C40.5593 40.7708 40.6243 40.7388 40.6873 40.7049C40.9433 40.5708 41.1803 40.4108 41.3993 40.2259C41.5103 40.1338 41.6153 40.0348 41.7173 39.9308C41.7663 39.8788 41.8163 39.8249 41.8633 39.7698C41.9113 39.7159 41.9573 39.6598 42.0023 39.6038C42.1803 39.3778 42.3353 39.1367 42.4683 38.8819C42.5343 38.7538 42.5963 38.6228 42.6513 38.4878C42.6793 38.4208 42.7063 38.3528 42.7303 38.2838C42.7563 38.2159 42.7793 38.1468 42.8023 38.0768C42.8893 37.7998 42.9543 37.5168 42.9983 37.2298C43.0093 37.1577 43.0173 37.0847 43.0263 37.0128C43.0343 36.9398 43.0413 36.8669 43.0463 36.7939C43.0573 36.6479 43.0623 36.5008 43.0623 36.3548C43.0606 26.9375 43.0596 17.5196 43.0587 8.10208C43.0577 7.80716 43.0317 7.51419 42.9767 7.22415C42.9497 7.07913 42.9147 6.93619 42.8747 6.79617C42.8337 6.65616 42.7877 6.5181 42.7347 6.38309C42.6807 6.2471 42.6217 6.11417 42.5547 5.98416C42.5217 5.9191 42.4877 5.85416 42.4507 5.79019C42.4137 5.72708 42.3757 5.66409 42.3367 5.60208C42.1797 5.35709 41.9997 5.12918 41.7987 4.9202C41.7487 4.86819 41.6977 4.81717 41.6447 4.76712C41.5907 4.71719 41.5377 4.66812 41.4807 4.62112C41.3697 4.52615 41.2537 4.43814 41.1357 4.35611C40.8977 4.19315 40.6457 4.05411 40.3787 3.94009C40.3127 3.91214 40.2447 3.88516 40.1757 3.85916C40.1077 3.83414 40.0387 3.81009 39.9697 3.78909C39.8307 3.74612 39.6917 3.70914 39.5507 3.68008C39.2687 3.6221 38.9827 3.59012 38.6896 3.58646Z" stroke="#FF00FF" stroke-width="0.283465" stroke-miterlimit="10" stroke-linecap="round" stroke-linejoin="round"/>
<path d="M17.8471 18.7041H15.7378C15.3472 18.7041 15.1079 18.9482 15.1079 19.3584V25.1786C15.1079 25.5936 15.3472 25.8329 15.7378 25.8329C16.1284 25.8329 16.3677 25.5936 16.3677 25.1786V23.5626C16.3677 23.4843 16.4312 23.4209 16.5094 23.4209H17.7934C19.2192 23.4209 20.2201 22.4688 20.2201 21.0625C20.2201 19.6562 19.2484 18.7041 17.8471 18.7041ZM17.5102 22.4052H16.5094C16.4311 22.4052 16.3677 22.3417 16.3677 22.2635V19.8761C16.3677 19.7978 16.4312 19.7344 16.5094 19.7344H17.5151C18.4184 19.7344 18.9409 20.2178 18.9409 21.0625C18.9409 21.9072 18.4136 22.4052 17.5103 22.4052H17.5102Z" fill="black"/>
<path d="M30.0146 25.8673C28.2324 25.8673 27.1191 24.8028 27.1191 23.2647V19.2754C27.1191 18.8604 27.3584 18.6211 27.749 18.6211C28.1396 18.6211 28.3789 18.8604 28.3789 19.2754V23.1524C28.3789 24.1143 28.9697 24.7686 30.0147 24.7686C31.0597 24.7686 31.6553 24.1143 31.6553 23.1524V19.2754C31.6553 18.8604 31.8897 18.6211 32.2852 18.6211C32.6807 18.6211 32.9102 18.8604 32.9102 19.2754V23.2647C32.9102 24.8028 31.8018 25.8673 30.0147 25.8673H30.0146Z" fill="black"/>
<path d="M25.2007 20.4718C24.854 20.4718 24.7237 20.6769 24.7237 20.6769L24.5744 20.8518C24.5281 20.9061 24.4487 20.9173 24.3889 20.8783C24.1882 20.7478 23.695 20.4864 22.9643 20.4864C21.6313 20.4864 20.811 21.4776 20.811 23.0987C20.811 24.7198 21.6411 25.6964 22.9399 25.6964C23.6165 25.6964 24.1102 25.4737 24.3719 25.3186C24.4662 25.2627 24.5854 25.3312 24.5854 25.4408V25.5889C24.5854 26.2774 24.0923 26.7315 23.267 26.7315C22.9337 26.7315 22.3489 26.4798 22.2221 26.4225C22.0301 26.3359 21.5796 26.216 21.4007 26.5189C21.2647 26.7493 21.3577 27.0806 21.6359 27.2466C21.9705 27.4461 22.6996 27.6955 23.2572 27.6983C24.8539 27.7081 25.8061 26.8877 25.8061 25.584V21.0918C25.8061 20.6914 25.5522 20.4717 25.2006 20.4717L25.2007 20.4718ZM23.311 24.7492C22.5444 24.7492 22.0561 24.134 22.0561 23.1086C22.0561 22.0832 22.5444 21.4484 23.311 21.4484C24.0776 21.4484 24.5952 22.1027 24.5952 23.1086C24.5952 24.1145 24.0874 24.7492 23.311 24.7492Z" fill="black"/>
<path d="M37.0801 20.4863C36.4657 20.4863 35.8907 20.7845 35.6079 20.9582C35.5277 21.0074 35.4236 20.9666 35.3971 20.8763C35.3796 20.8164 35.3512 20.7508 35.3054 20.6904C35.1883 20.5358 35.0183 20.4717 34.8291 20.4717C34.4824 20.4717 34.2383 20.6963 34.2383 21.0967V26.9513C34.2383 27.3615 34.4873 27.591 34.8438 27.591C35.2003 27.591 35.4542 27.3615 35.4542 26.9513V25.5395C35.4542 25.4316 35.5699 25.3632 35.6644 25.4154C35.9556 25.5762 36.5125 25.8331 37.0997 25.8331C38.3985 25.8331 39.2286 24.8126 39.2286 23.1622C39.2286 21.5118 38.3936 20.4864 37.0801 20.4864V20.4863ZM36.709 24.8369C35.9522 24.8369 35.4492 24.1777 35.4443 23.1621C35.4492 22.1562 35.9521 21.4873 36.709 21.4873C37.4659 21.4873 37.9834 22.1416 37.9834 23.1621C37.9834 24.1826 37.4951 24.8369 36.709 24.8369Z" fill="black"/>
</svg>
