<svg width="54" height="54" viewBox="0 0 54 54" fill="none" xmlns="http://www.w3.org/2000/svg">
<path d="M10.2065 37.1479V7.2959C10.2125 6.94397 10.252 6.59094 10.325 6.24585C10.397 5.90088 10.503 5.56384 10.6411 5.23901C10.9141 4.59497 11.3131 4.00098 11.8071 3.50171C12.2961 3.00769 12.8791 2.60559 13.5145 2.32971C13.8315 2.19177 14.1605 2.08582 14.4979 2.01257C14.8349 1.93958 15.1779 1.90051 15.5214 1.89661C19.4174 1.8656 23.3134 1.85059 27.2079 1.85059C31.1049 1.85059 34.9999 1.8656 38.8963 1.89673C39.2393 1.90076 39.5833 1.9397 39.9208 2.01318C40.2568 2.08618 40.5868 2.19312 40.903 2.33008C41.221 2.46802 41.525 2.63708 41.8108 2.8335C42.0978 3.03052 42.3658 3.25452 42.6108 3.50159C42.8578 3.75061 43.0808 4.02161 43.2748 4.31238C43.4708 4.60437 43.6398 4.91431 43.7772 5.23816C43.9142 5.56311 44.0212 5.90112 44.0934 6.24597C44.1664 6.59094 44.2054 6.94397 44.2104 7.29602C44.2104 7.29602 44.2104 37.1479 44.2101 37.1484C44.1891 37.8424 44.0511 38.5385 43.8027 39.1934C43.5557 39.8484 43.1977 40.4624 42.7389 40.9862C42.5089 41.2483 42.2549 41.4873 41.9799 41.7C41.7069 41.912 41.4139 42.0969 41.1049 42.2539C40.7979 42.4099 40.4769 42.5369 40.1451 42.6315C39.8161 42.7264 39.4771 42.7896 39.1357 42.8154C31.1907 43.2485 23.2267 43.2485 15.2819 42.8154C14.6009 42.7625 13.9259 42.5664 13.3131 42.2549C12.6931 41.9398 12.1351 41.5068 11.6787 40.9869C11.2197 40.4619 10.8627 39.8479 10.6155 39.193C10.3675 38.538 10.2285 37.843 10.2065 37.1479Z" stroke="#16215B" stroke-width="0.283" stroke-miterlimit="10"/>
<rect x="12.8887" y="5.47168" width="28.63" height="34.35" rx="1.46" stroke="#00FFFF" stroke-width="0.28"/>
<path d="M38.6896 3.5864C31.0756 3.4874 23.3386 3.4874 15.7236 3.5864C15.4318 3.59042 15.1428 3.62143 14.8578 3.68149C14.7868 3.6965 14.7148 3.71249 14.6448 3.73141C14.5748 3.74948 14.5048 3.7695 14.4358 3.79147C14.2978 3.83542 14.1618 3.88449 14.0308 3.9415C13.8978 3.9985 13.7678 4.06149 13.6418 4.13144C13.5778 4.16647 13.5148 4.20346 13.4528 4.24142C13.3908 4.27951 13.3298 4.31943 13.2698 4.36142C13.0318 4.52646 12.8118 4.71445 12.6108 4.92343C12.5098 5.02744 12.4148 5.13742 12.3248 5.25351C12.2788 5.31052 12.2358 5.36948 12.1928 5.42941C12.1508 5.48849 12.1108 5.54843 12.0718 5.61044C11.9148 5.85544 11.7838 6.11447 11.6768 6.38644C11.6508 6.45444 11.6248 6.52341 11.6018 6.59348C11.5778 6.66342 11.5558 6.73349 11.5358 6.80344C11.4948 6.94443 11.4618 7.0864 11.4348 7.23044C11.3818 7.51645 11.3548 7.80649 11.3548 8.10251C11.3526 17.5191 11.3516 26.9371 11.3496 36.3541C11.3497 36.6476 11.3707 36.9375 11.4137 37.2235C11.4357 37.3665 11.4617 37.5085 11.4947 37.6505C11.5107 37.7215 11.5287 37.7915 11.5477 37.8615C11.5667 37.9325 11.5877 38.0025 11.6097 38.0725C11.6987 38.3506 11.8087 38.6195 11.9427 38.8766C11.9767 38.9415 12.0117 39.0055 12.0477 39.0686C12.0837 39.1316 12.1217 39.1936 12.1617 39.2545C12.2407 39.3756 12.3237 39.4935 12.4127 39.6056C12.5017 39.7185 12.5967 39.8275 12.6967 39.9315C12.7467 39.9825 12.7977 40.0335 12.8517 40.0835C12.9047 40.1325 12.9587 40.1815 13.0137 40.2275C13.2357 40.4126 13.4727 40.5725 13.7267 40.7065C13.7897 40.7395 13.8547 40.7716 13.9197 40.8015C13.9857 40.8315 14.0527 40.8595 14.1197 40.8866C14.2537 40.9386 14.3907 40.9835 14.5287 41.0216C14.8047 41.0965 15.0867 41.1425 15.3767 41.1576C23.2191 41.5847 31.1931 41.5847 39.0351 41.1577C39.3263 41.1417 39.6093 41.0958 39.8853 41.0217C40.0233 40.9837 40.1593 40.9387 40.2933 40.8867C40.3603 40.8597 40.4273 40.8318 40.4933 40.8017C40.5593 40.7707 40.6243 40.7387 40.6873 40.7048C40.9433 40.5708 41.1803 40.4107 41.3993 40.2258C41.5103 40.1338 41.6153 40.0348 41.7173 39.9308C41.7663 39.8788 41.8163 39.8248 41.8633 39.7697C41.9113 39.7158 41.9573 39.6598 42.0023 39.6037C42.1803 39.3778 42.3353 39.1367 42.4683 38.8818C42.5343 38.7538 42.5963 38.6228 42.6513 38.4878C42.6793 38.4207 42.7063 38.3528 42.7303 38.2838C42.7563 38.2158 42.7793 38.1467 42.8023 38.0768C42.8893 37.7998 42.9543 37.5167 42.9983 37.2297C43.0093 37.1577 43.0173 37.0847 43.0263 37.0128C43.0343 36.9398 43.0413 36.8668 43.0463 36.7938C43.0573 36.6478 43.0623 36.5007 43.0623 36.3547C43.0606 26.9375 43.0596 17.5195 43.0587 8.10202C43.0577 7.8071 43.0317 7.51413 42.9767 7.22409C42.9497 7.07907 42.9147 6.93613 42.8747 6.79611C42.8337 6.6561 42.7877 6.51804 42.7347 6.38303C42.6807 6.24704 42.6217 6.11411 42.5547 5.9841C42.5217 5.91904 42.4877 5.8541 42.4507 5.79013C42.4137 5.72702 42.3757 5.66403 42.3367 5.60202C42.1797 5.35703 41.9997 5.12912 41.7987 4.92014C41.7487 4.86813 41.6977 4.81711 41.6447 4.76706C41.5907 4.71713 41.5377 4.66806 41.4807 4.62106C41.3697 4.52609 41.2537 4.43808 41.1357 4.35605C40.8977 4.19308 40.6457 4.05405 40.3787 3.94003C40.3127 3.91208 40.2447 3.8851 40.1757 3.8591C40.1077 3.83408 40.0387 3.81003 39.9697 3.78903C39.8307 3.74606 39.6917 3.70908 39.5507 3.68002C39.2687 3.62204 38.9827 3.59006 38.6896 3.5864Z" stroke="#FF00FF" stroke-width="0.283465" stroke-miterlimit="10" stroke-linecap="round" stroke-linejoin="round"/>
<path d="M16.4975 18.7041H14.3882C13.9976 18.7041 13.7583 18.9482 13.7583 19.3584V25.1786C13.7583 25.5936 13.9976 25.8329 14.3882 25.8329C14.7788 25.8329 15.0181 25.5936 15.0181 25.1786V23.5626C15.0181 23.4843 15.0816 23.4209 15.1598 23.4209H16.4438C17.8696 23.4209 18.8705 22.4688 18.8705 21.0625C18.8705 19.6562 17.8988 18.7041 16.4975 18.7041ZM16.1606 22.4052H15.1598C15.0815 22.4052 15.0181 22.3417 15.0181 22.2635V19.8761C15.0181 19.7978 15.0816 19.7344 15.1598 19.7344H16.1655C17.0688 19.7344 17.5913 20.2178 17.5913 21.0625C17.5913 21.9072 17.064 22.4052 16.1607 22.4052H16.1606Z" fill="black"/>
<path d="M21.7968 20.4666C20.8056 20.4666 20.234 20.8069 19.9417 21.1344C19.7724 21.3241 19.7507 21.7236 19.9829 21.9093C20.2543 22.1263 20.709 21.9639 20.8652 21.7719C21.0054 21.5995 21.3202 21.4244 21.7479 21.4188C22.3484 21.4109 22.7147 21.7313 22.7147 22.2733V22.5328C22.7147 22.5591 22.6942 22.5808 22.6679 22.5823L21.3426 22.6578C20.083 22.7358 19.375 23.3523 19.375 24.2702C19.375 25.1881 20.105 25.8327 21.1035 25.8327C21.8278 25.8327 22.3646 25.6046 22.6048 25.4793C22.6748 25.4428 22.7603 25.4709 22.7966 25.541C22.8646 25.6723 23.0137 25.8473 23.3251 25.8473C23.6669 25.8473 23.9159 25.6276 23.9159 25.237V22.1853C23.9159 21.1453 23.081 20.4666 21.7968 20.4666ZM22.7148 23.8308C22.7148 24.4558 22.1582 24.9148 21.4746 24.9148C20.9473 24.9148 20.5908 24.6463 20.5908 24.2215C20.5908 23.7967 20.9277 23.5477 21.5136 23.5086L22.6621 23.4386C22.6906 23.4369 22.7147 23.4595 22.7147 23.4881V23.8309L22.7148 23.8308Z" fill="black"/>
<path d="M26.6021 25.8429C25.479 25.8429 24.7661 25.1154 24.7661 23.9191V21.1115C24.7661 20.7062 25.0151 20.4718 25.3716 20.4718C25.7281 20.4718 25.982 20.7062 25.982 21.1163V23.6749C25.982 24.4171 26.3433 24.8175 27.0269 24.8175C27.7105 24.8175 28.1646 24.3194 28.1646 23.5675V21.1114C28.1646 20.7061 28.4185 20.4717 28.775 20.4717C29.1315 20.4717 29.3805 20.7061 29.3805 21.1162V25.2325C29.3805 25.6231 29.1461 25.8477 28.7994 25.8477C28.4527 25.8477 28.3264 25.6373 28.299 25.5926C28.2807 25.5626 28.2652 25.5272 28.2525 25.492C28.2232 25.4108 28.1278 25.3753 28.0518 25.4163C27.7758 25.5648 27.2613 25.8429 26.602 25.8429H26.6021Z" fill="black"/>
<path d="M32.3887 25.8523C31.2949 25.8523 30.5283 25.4324 30.2793 24.8123C30.2451 24.7244 30.2305 24.6463 30.2305 24.573C30.2305 24.28 30.4453 24.0945 30.7383 24.0945C30.9385 24.0945 31.1094 24.1873 31.2656 24.3924C31.539 24.7879 31.8515 24.9637 32.4326 24.9637C33.0137 24.9637 33.375 24.7244 33.375 24.3338C33.375 24.0213 33.1797 23.8504 32.6475 23.7283L31.8076 23.5379C30.7968 23.3084 30.2988 22.8104 30.2988 22.0584C30.2988 21.0965 31.1289 20.4666 32.4082 20.4666C33.4043 20.4666 34.1758 20.9549 34.3369 21.5506C34.3515 21.6141 34.3613 21.6727 34.3613 21.7313C34.3613 21.9852 34.2002 22.1659 33.8925 22.1659C33.7167 22.1659 33.5409 22.1024 33.4286 21.9413C33.1893 21.5849 32.8915 21.3602 32.3788 21.3602C31.8661 21.3602 31.4804 21.619 31.4804 21.9901C31.4804 22.2928 31.705 22.4979 32.2421 22.62L33.0673 22.8007C34.1611 23.0497 34.5956 23.4452 34.5956 24.2118C34.5956 25.203 33.7069 25.8524 32.3885 25.8524L32.3887 25.8523Z" fill="black"/>
<path d="M37.8256 20.4668C36.3315 20.4668 35.3794 21.5312 35.3794 23.1816C35.3794 24.832 36.312 25.8524 37.894 25.8524C38.6942 25.8524 39.2801 25.6746 39.7798 25.1196C40.0035 24.8712 39.9436 24.5005 39.6475 24.342C39.3981 24.2084 39.1144 24.3365 38.9751 24.4659C38.5324 24.8773 38.2076 24.9149 37.8842 24.9149C37.138 24.9149 36.6481 24.4302 36.5951 23.6068C36.5898 23.5247 36.6542 23.455 36.7365 23.455H39.6906C39.9718 23.455 40.2012 23.2302 40.2076 22.9491C40.2403 21.5063 39.2651 20.4668 37.8256 20.4668ZM38.8554 22.6011H36.7663C36.6757 22.6011 36.6089 22.5173 36.6279 22.4287C36.7645 21.79 37.2361 21.4093 37.8304 21.4093C38.4247 21.4093 38.8789 21.7772 38.9951 22.4355C39.0104 22.522 38.9432 22.6011 38.8553 22.6011H38.8554Z" fill="black"/>
</svg>
