<svg width="54" height="54" viewBox="0 0 54 54" fill="none" xmlns="http://www.w3.org/2000/svg">
<rect x="1.8501" y="1.85" width="50.3" height="50.3" rx="3" stroke="#8B1EFF" stroke-width="0.28"/>
<path d="M10.2065 37.1479V7.29587C10.2125 6.94394 10.252 6.59091 10.325 6.24582C10.397 5.90085 10.503 5.56381 10.6411 5.23898C10.9141 4.59494 11.3131 4.00095 11.8071 3.50168C12.2961 3.00766 12.8791 2.60556 13.5145 2.32968C13.8315 2.19174 14.1605 2.08578 14.4979 2.01254C14.8349 1.93954 15.1779 1.90048 15.5214 1.89658C19.4174 1.86557 23.3134 1.85056 27.2079 1.85056C31.1049 1.85056 34.9999 1.86557 38.8963 1.8967C39.2393 1.90073 39.5833 1.93967 39.9208 2.01315C40.2568 2.08615 40.5868 2.19308 40.903 2.33005C41.221 2.46799 41.525 2.63705 41.8108 2.83347C42.0978 3.03049 42.3658 3.25449 42.6108 3.50156C42.8578 3.75058 43.0808 4.02158 43.2748 4.31235C43.4708 4.60434 43.6398 4.91428 43.7772 5.23813C43.9142 5.56308 44.0212 5.90109 44.0934 6.24594C44.1664 6.59091 44.2054 6.94394 44.2104 7.29599C44.2104 7.29599 44.2104 37.1479 44.2101 37.1484C44.1891 37.8424 44.0511 38.5384 43.8027 39.1933C43.5557 39.8484 43.1977 40.4624 42.7389 40.9862C42.5089 41.2483 42.2549 41.4873 41.9799 41.6999C41.7069 41.912 41.4139 42.0969 41.1049 42.2539C40.7979 42.4099 40.4769 42.5368 40.1451 42.6314C39.8161 42.7264 39.4771 42.7895 39.1357 42.8154C31.1907 43.2485 23.2267 43.2485 15.2819 42.8154C14.6009 42.7624 13.9259 42.5664 13.3131 42.2549C12.6931 41.9398 12.1351 41.5068 11.6787 40.9869C11.2197 40.4619 10.8627 39.8479 10.6155 39.193C10.3675 38.5379 10.2285 37.843 10.2065 37.1479Z" stroke="#8B1EFF" stroke-width="0.283" stroke-miterlimit="10"/>
<rect x="12.8887" y="5.47166" width="28.63" height="34.35" rx="1.46" stroke="#00FFFF" stroke-width="0.28"/>
<path d="M38.6896 3.5864C31.0756 3.4874 23.3386 3.4874 15.7236 3.5864C15.4318 3.59042 15.1428 3.62143 14.8578 3.68149C14.7868 3.6965 14.7148 3.71249 14.6448 3.73141C14.5748 3.74948 14.5048 3.7695 14.4358 3.79147C14.2978 3.83542 14.1618 3.88449 14.0308 3.9415C13.8978 3.9985 13.7678 4.06149 13.6418 4.13144C13.5778 4.16647 13.5148 4.20346 13.4528 4.24142C13.3908 4.27951 13.3298 4.31943 13.2698 4.36142C13.0318 4.52646 12.8118 4.71445 12.6108 4.92343C12.5098 5.02744 12.4148 5.13742 12.3248 5.25351C12.2788 5.31052 12.2358 5.36948 12.1928 5.42941C12.1508 5.48849 12.1108 5.54843 12.0718 5.61044C11.9148 5.85544 11.7838 6.11447 11.6768 6.38644C11.6508 6.45444 11.6248 6.52341 11.6018 6.59348C11.5778 6.66342 11.5558 6.73349 11.5358 6.80344C11.4948 6.94443 11.4618 7.0864 11.4348 7.23044C11.3818 7.51645 11.3548 7.80649 11.3548 8.10251C11.3526 17.5191 11.3516 26.9371 11.3496 36.3541C11.3497 36.6476 11.3707 36.9375 11.4137 37.2235C11.4357 37.3665 11.4617 37.5085 11.4947 37.6505C11.5107 37.7215 11.5287 37.7915 11.5477 37.8615C11.5667 37.9325 11.5877 38.0025 11.6097 38.0725C11.6987 38.3506 11.8087 38.6195 11.9427 38.8766C11.9767 38.9415 12.0117 39.0055 12.0477 39.0686C12.0837 39.1316 12.1217 39.1936 12.1617 39.2545C12.2407 39.3756 12.3237 39.4935 12.4127 39.6056C12.5017 39.7185 12.5967 39.8275 12.6967 39.9315C12.7467 39.9825 12.7977 40.0335 12.8517 40.0835C12.9047 40.1325 12.9587 40.1815 13.0137 40.2275C13.2357 40.4126 13.4727 40.5725 13.7267 40.7065C13.7897 40.7395 13.8547 40.7716 13.9197 40.8015C13.9857 40.8315 14.0527 40.8595 14.1197 40.8866C14.2537 40.9386 14.3907 40.9835 14.5287 41.0216C14.8047 41.0965 15.0867 41.1425 15.3767 41.1576C23.2191 41.5847 31.1931 41.5847 39.0351 41.1577C39.3263 41.1417 39.6093 41.0958 39.8853 41.0217C40.0233 40.9837 40.1593 40.9387 40.2933 40.8867C40.3603 40.8597 40.4273 40.8318 40.4933 40.8017C40.5593 40.7707 40.6243 40.7387 40.6873 40.7048C40.9433 40.5708 41.1803 40.4107 41.3993 40.2258C41.5103 40.1338 41.6153 40.0348 41.7173 39.9308C41.7663 39.8788 41.8163 39.8248 41.8633 39.7697C41.9113 39.7158 41.9573 39.6598 42.0023 39.6037C42.1803 39.3778 42.3353 39.1367 42.4683 38.8818C42.5343 38.7538 42.5963 38.6228 42.6513 38.4878C42.6793 38.4207 42.7063 38.3528 42.7303 38.2838C42.7563 38.2158 42.7793 38.1467 42.8023 38.0768C42.8893 37.7998 42.9543 37.5167 42.9983 37.2297C43.0093 37.1577 43.0173 37.0847 43.0263 37.0128C43.0343 36.9398 43.0413 36.8668 43.0463 36.7938C43.0573 36.6478 43.0623 36.5007 43.0623 36.3547C43.0606 26.9375 43.0596 17.5195 43.0587 8.10202C43.0577 7.8071 43.0317 7.51413 42.9767 7.22409C42.9497 7.07907 42.9147 6.93613 42.8747 6.79611C42.8337 6.6561 42.7877 6.51804 42.7347 6.38303C42.6807 6.24704 42.6217 6.11411 42.5547 5.9841C42.5217 5.91904 42.4877 5.8541 42.4507 5.79013C42.4137 5.72702 42.3757 5.66403 42.3367 5.60202C42.1797 5.35703 41.9997 5.12912 41.7987 4.92014C41.7487 4.86813 41.6977 4.81711 41.6447 4.76706C41.5907 4.71713 41.5377 4.66806 41.4807 4.62106C41.3697 4.52609 41.2537 4.43808 41.1357 4.35605C40.8977 4.19308 40.6457 4.05405 40.3787 3.94003C40.3127 3.91208 40.2447 3.8851 40.1757 3.8591C40.1077 3.83408 40.0387 3.81003 39.9697 3.78903C39.8307 3.74606 39.6917 3.70908 39.5507 3.68002C39.2687 3.62204 38.9827 3.59006 38.6896 3.5864Z" stroke="#FF00FF" stroke-width="0.283465" stroke-miterlimit="10" stroke-linecap="round" stroke-linejoin="round"/>
<path d="M19.6758 14.7612C19.6758 15.1952 19.403 15.4681 18.9751 15.4681C18.541 15.4681 18.2744 15.1952 18.2744 14.7612V13.9214C18.2744 13.8441 18.2117 13.7814 18.1344 13.7814H16.569C16.1598 13.7814 15.8745 13.5209 15.8745 13.1427C15.8745 12.7644 16.1598 12.5039 16.569 12.5039H18.1344C18.2117 12.5039 18.2744 12.4413 18.2744 12.3639V11.5738C18.2744 11.1397 18.541 10.8668 18.9689 10.8668C19.403 10.8668 19.6758 11.1397 19.6758 11.5738V12.3639C19.6758 12.4413 19.7385 12.5039 19.8158 12.5039H21.437C21.8524 12.5039 22.1315 12.7644 22.1315 13.1427C22.1315 13.5209 21.8524 13.7814 21.437 13.7814H19.8158C19.7385 13.7814 19.6758 13.8441 19.6758 13.9214V14.7612ZM15.8745 16.6587C15.8745 16.268 16.1226 16.02 16.5876 16.02H21.437C21.9021 16.02 22.1501 16.268 22.1501 16.6587C22.1501 17.0432 21.9021 17.2974 21.437 17.2974H16.5876C16.1226 17.2974 15.8745 17.0432 15.8745 16.6587Z" fill="black"/>
<path d="M18.9573 36.1443C19.6273 36.1443 20.0273 35.8043 20.0273 35.3043C20.0273 34.7543 19.4873 34.5743 18.3873 34.2643C17.1873 33.9243 16.4673 33.4343 16.4673 32.4243C16.4673 31.7143 16.8273 31.2543 17.3373 30.9343C17.4273 30.8843 17.4173 30.7543 17.3373 30.6943C16.8173 30.3343 16.5273 29.8543 16.5273 29.1843C16.5273 27.9243 17.6273 27.1243 19.0373 27.1243C19.6673 27.1243 20.2773 27.2943 20.7273 27.5943C21.1273 27.8443 21.3773 28.1843 21.3673 28.5343C21.3573 28.8843 21.0573 29.1143 20.7273 29.0943C20.5273 29.0743 20.3773 28.9843 20.1373 28.7643C19.7673 28.4343 19.4673 28.2743 19.0373 28.2743C18.4073 28.2743 18.0073 28.6243 18.0073 29.1043C18.0073 29.6543 18.5873 29.8643 19.6173 30.1543C20.8973 30.5043 21.5673 30.9443 21.5673 31.9743C21.5673 32.6643 21.2373 33.1743 20.7473 33.5543C20.6673 33.6143 20.6773 33.7343 20.7473 33.7843C21.2673 34.1443 21.5173 34.5543 21.5173 35.1843C21.5173 36.5143 20.3673 37.3143 18.9573 37.3143C18.4273 37.3143 17.8673 37.1943 17.4473 36.9743C16.9073 36.7143 16.5473 36.3043 16.5473 35.8843C16.5473 35.5343 16.8473 35.2843 17.1873 35.3043C17.3873 35.3143 17.5273 35.4043 17.7673 35.6343C18.0973 35.9743 18.4673 36.1543 18.9473 36.1543L18.9573 36.1443ZM19.0173 33.1643C19.0173 33.1643 19.2573 33.2243 19.3873 33.2543C19.4573 33.2743 19.5373 33.2543 19.5973 33.2243C19.8973 33.0443 20.1173 32.6743 20.1173 32.2843C20.1173 31.7543 19.7373 31.4543 18.9873 31.2943C18.9573 31.2943 18.7773 31.2543 18.6673 31.2243C18.6073 31.2143 18.5473 31.2243 18.4973 31.2443C18.1673 31.4043 17.9073 31.8243 17.9073 32.2043C17.9073 32.7043 18.2673 32.9943 19.0173 33.1743V33.1643Z" fill="black"/>
</svg>
