<svg width="54" height="54" viewBox="0 0 54 54" fill="none" xmlns="http://www.w3.org/2000/svg">
<path d="M10.2065 37.1479V7.2959C10.2125 6.94397 10.252 6.59094 10.325 6.24585C10.397 5.90088 10.503 5.56384 10.6411 5.23901C10.9141 4.59497 11.3131 4.00098 11.8071 3.50171C12.2961 3.00769 12.8791 2.60559 13.5145 2.32971C13.8315 2.19177 14.1605 2.08582 14.4979 2.01257C14.8349 1.93958 15.1779 1.90051 15.5214 1.89661C19.4174 1.8656 23.3134 1.85059 27.2079 1.85059C31.1049 1.85059 34.9999 1.8656 38.8963 1.89673C39.2393 1.90076 39.5833 1.9397 39.9208 2.01318C40.2568 2.08618 40.5868 2.19312 40.903 2.33008C41.221 2.46802 41.525 2.63708 41.8108 2.8335C42.0978 3.03052 42.3658 3.25452 42.6108 3.50159C42.8578 3.75061 43.0808 4.02161 43.2748 4.31238C43.4708 4.60437 43.6398 4.91431 43.7772 5.23816C43.9142 5.56311 44.0212 5.90112 44.0934 6.24597C44.1664 6.59094 44.2054 6.94397 44.2104 7.29602C44.2104 7.29602 44.2104 37.1479 44.2101 37.1484C44.1891 37.8424 44.0511 38.5385 43.8027 39.1934C43.5557 39.8484 43.1977 40.4624 42.7389 40.9862C42.5089 41.2483 42.2549 41.4873 41.9799 41.7C41.7069 41.912 41.4139 42.0969 41.1049 42.2539C40.7979 42.4099 40.4769 42.5369 40.1451 42.6315C39.8161 42.7264 39.4771 42.7896 39.1357 42.8154C31.1907 43.2485 23.2267 43.2485 15.2819 42.8154C14.6009 42.7625 13.9259 42.5664 13.3131 42.2549C12.6931 41.9398 12.1351 41.5068 11.6787 40.9869C11.2197 40.4619 10.8627 39.8479 10.6155 39.193C10.3675 38.538 10.2285 37.843 10.2065 37.1479Z" stroke="#16215B" stroke-width="0.283" stroke-miterlimit="10"/>
<rect x="12.8887" y="5.47168" width="28.63" height="34.35" rx="1.46" stroke="#00FFFF" stroke-width="0.28"/>
<path d="M38.6896 3.5864C31.0756 3.4874 23.3386 3.4874 15.7236 3.5864C15.4318 3.59042 15.1428 3.62143 14.8578 3.68149C14.7868 3.6965 14.7148 3.71249 14.6448 3.73141C14.5748 3.74948 14.5048 3.7695 14.4358 3.79147C14.2978 3.83542 14.1618 3.88449 14.0308 3.9415C13.8978 3.9985 13.7678 4.06149 13.6418 4.13144C13.5778 4.16647 13.5148 4.20346 13.4528 4.24142C13.3908 4.27951 13.3298 4.31943 13.2698 4.36142C13.0318 4.52646 12.8118 4.71445 12.6108 4.92343C12.5098 5.02744 12.4148 5.13742 12.3248 5.25351C12.2788 5.31052 12.2358 5.36948 12.1928 5.42941C12.1508 5.48849 12.1108 5.54843 12.0718 5.61044C11.9148 5.85544 11.7838 6.11447 11.6768 6.38644C11.6508 6.45444 11.6248 6.52341 11.6018 6.59348C11.5778 6.66342 11.5558 6.73349 11.5358 6.80344C11.4948 6.94443 11.4618 7.0864 11.4348 7.23044C11.3818 7.51645 11.3548 7.80649 11.3548 8.10251C11.3526 17.5191 11.3516 26.9371 11.3496 36.3541C11.3497 36.6476 11.3707 36.9375 11.4137 37.2235C11.4357 37.3665 11.4617 37.5085 11.4947 37.6505C11.5107 37.7215 11.5287 37.7915 11.5477 37.8615C11.5667 37.9325 11.5877 38.0025 11.6097 38.0725C11.6987 38.3506 11.8087 38.6195 11.9427 38.8766C11.9767 38.9415 12.0117 39.0055 12.0477 39.0686C12.0837 39.1316 12.1217 39.1936 12.1617 39.2545C12.2407 39.3756 12.3237 39.4935 12.4127 39.6056C12.5017 39.7185 12.5967 39.8275 12.6967 39.9315C12.7467 39.9825 12.7977 40.0335 12.8517 40.0835C12.9047 40.1325 12.9587 40.1815 13.0137 40.2275C13.2357 40.4126 13.4727 40.5725 13.7267 40.7065C13.7897 40.7395 13.8547 40.7716 13.9197 40.8015C13.9857 40.8315 14.0527 40.8595 14.1197 40.8866C14.2537 40.9386 14.3907 40.9835 14.5287 41.0216C14.8047 41.0965 15.0867 41.1425 15.3767 41.1576C23.2191 41.5847 31.1931 41.5847 39.0351 41.1577C39.3263 41.1417 39.6093 41.0958 39.8853 41.0217C40.0233 40.9837 40.1593 40.9387 40.2933 40.8867C40.3603 40.8597 40.4273 40.8318 40.4933 40.8017C40.5593 40.7707 40.6243 40.7387 40.6873 40.7048C40.9433 40.5708 41.1803 40.4107 41.3993 40.2258C41.5103 40.1338 41.6153 40.0348 41.7173 39.9308C41.7663 39.8788 41.8163 39.8248 41.8633 39.7697C41.9113 39.7158 41.9573 39.6598 42.0023 39.6037C42.1803 39.3778 42.3353 39.1367 42.4683 38.8818C42.5343 38.7538 42.5963 38.6228 42.6513 38.4878C42.6793 38.4207 42.7063 38.3528 42.7303 38.2838C42.7563 38.2158 42.7793 38.1467 42.8023 38.0768C42.8893 37.7998 42.9543 37.5167 42.9983 37.2297C43.0093 37.1577 43.0173 37.0847 43.0263 37.0128C43.0343 36.9398 43.0413 36.8668 43.0463 36.7938C43.0573 36.6478 43.0623 36.5007 43.0623 36.3547C43.0606 26.9375 43.0596 17.5195 43.0587 8.10202C43.0577 7.8071 43.0317 7.51413 42.9767 7.22409C42.9497 7.07907 42.9147 6.93613 42.8747 6.79611C42.8337 6.6561 42.7877 6.51804 42.7347 6.38303C42.6807 6.24704 42.6217 6.11411 42.5547 5.9841C42.5217 5.91904 42.4877 5.8541 42.4507 5.79013C42.4137 5.72702 42.3757 5.66403 42.3367 5.60202C42.1797 5.35703 41.9997 5.12912 41.7987 4.92014C41.7487 4.86813 41.6977 4.81711 41.6447 4.76706C41.5907 4.71713 41.5377 4.66806 41.4807 4.62106C41.3697 4.52609 41.2537 4.43808 41.1357 4.35605C40.8977 4.19308 40.6457 4.05405 40.3787 3.94003C40.3127 3.91208 40.2447 3.8851 40.1757 3.8591C40.1077 3.83408 40.0387 3.81003 39.9697 3.78903C39.8307 3.74606 39.6917 3.70908 39.5507 3.68002C39.2687 3.62204 38.9827 3.59006 38.6896 3.5864Z" stroke="#FF00FF" stroke-width="0.283465" stroke-miterlimit="10" stroke-linecap="round" stroke-linejoin="round"/>
<path d="M17.23 25.3903C15.8237 25.3903 14.8862 24.8044 14.6128 24.0036C14.5689 23.8864 14.5444 23.7595 14.5444 23.6423C14.5444 23.2907 14.769 23.0661 15.101 23.0661C15.3793 23.0661 15.5551 23.1784 15.6918 23.4616C15.9115 24.072 16.517 24.3454 17.269 24.3454C18.1186 24.3454 18.7143 23.9255 18.7143 23.3395C18.7143 22.8317 18.3627 22.5192 17.4448 22.3287L16.688 22.1724C15.2769 21.8843 14.6177 21.2202 14.6177 20.19C14.6177 18.9498 15.7066 18.1099 17.2349 18.1099C18.48 18.1099 19.4468 18.6665 19.7349 19.5992C19.7642 19.6773 19.7788 19.7701 19.7788 19.8873C19.7788 20.1949 19.5591 20.4049 19.2319 20.4049C18.9389 20.4049 18.7583 20.2779 18.6264 20.0045C18.3871 19.4088 17.8842 19.1549 17.225 19.1549C16.4437 19.1549 15.8871 19.526 15.8871 20.1168C15.8871 20.5953 16.2387 20.9029 17.1176 21.0885L17.8744 21.2448C19.3588 21.5524 19.9838 22.1481 19.9838 23.1931C19.9838 24.5408 18.9242 25.3904 17.2299 25.3904L17.23 25.3903Z" fill="black"/>
<path d="M23.3155 25.3757C21.8018 25.3757 20.8252 24.3503 20.8252 22.6901C20.8252 21.0299 21.7969 19.9899 23.3057 19.9899C24.3213 19.9899 25.1856 20.5124 25.4346 21.2399C25.4737 21.3424 25.4981 21.445 25.4981 21.5329C25.4981 21.8356 25.2686 22.0212 24.9756 22.0212C24.7315 22.0212 24.585 21.9187 24.4434 21.6745C24.1846 21.2009 23.8428 20.9763 23.3399 20.9763C22.5586 20.9763 22.0606 21.6257 22.0606 22.6853C22.0606 23.7449 22.5635 24.3943 23.335 24.3943C23.8721 24.3943 24.2041 24.1453 24.4385 23.7302C24.6045 23.4568 24.7364 23.3542 25 23.3542C25.2881 23.3542 25.5127 23.5495 25.5127 23.8523C25.5127 23.9451 25.4883 24.0476 25.4395 24.1648C25.1514 24.8728 24.292 25.3757 23.3155 25.3757Z" fill="black"/>
<path d="M26.9688 25.3707C26.6026 25.3707 26.3633 25.1314 26.3633 24.731V20.6099C26.3633 20.229 26.5977 19.9947 26.9444 19.9947C27.2911 19.9947 27.429 20.2272 27.4742 20.3432C27.4806 20.3595 27.4861 20.3765 27.4909 20.3937C27.52 20.4978 27.6519 20.53 27.7279 20.4532C27.9244 20.2548 28.2492 20.0093 28.6534 20.0093C28.8438 20.0093 28.9903 20.0581 29.0831 20.1411C29.1954 20.2339 29.254 20.3804 29.254 20.5806C29.254 20.7808 29.1954 20.9126 29.0733 21.0103C28.9561 21.1128 28.7754 21.1666 28.5362 21.1714C27.8428 21.1763 27.5792 21.6109 27.5792 22.2407V24.731C27.5792 25.1314 27.3351 25.3707 26.9688 25.3707Z" fill="black"/>
<path d="M32.1319 19.9899C30.6231 19.9899 29.627 21.0153 29.627 22.6852C29.627 24.3551 30.6133 25.3757 32.1319 25.3757C33.6505 25.3757 34.6368 24.3649 34.6368 22.6852C34.6368 21.0055 33.6407 19.9899 32.1319 19.9899ZM32.1319 24.4138C31.3604 24.4138 30.8624 23.7888 30.8624 22.6853C30.8624 21.5818 31.3653 20.9568 32.1319 20.9568C32.8985 20.9568 33.4014 21.5867 33.4014 22.6853C33.4014 23.7839 32.9033 24.4138 32.1319 24.4138Z" fill="black"/>
<path d="M36.2627 25.3708C35.9063 25.3708 35.6523 25.1413 35.6523 24.7311V18.7691C35.6523 18.3589 35.9062 18.1294 36.2627 18.1294C36.6192 18.1294 36.8682 18.3589 36.8682 18.7691V24.7311C36.8682 25.1413 36.6192 25.3708 36.2627 25.3708Z" fill="black"/>
<path d="M38.7481 25.3708C38.3917 25.3708 38.1377 25.1413 38.1377 24.7311V18.7691C38.1377 18.3589 38.3916 18.1294 38.7481 18.1294C39.1046 18.1294 39.3536 18.3589 39.3536 18.7691V24.7311C39.3536 25.1413 39.1046 25.3708 38.7481 25.3708Z" fill="black"/>
</svg>
