<svg width="54" height="54" viewBox="0 0 54 54" fill="none" xmlns="http://www.w3.org/2000/svg">
<path d="M10.2065 37.1479V7.2959C10.2125 6.94397 10.252 6.59094 10.325 6.24585C10.397 5.90088 10.503 5.56384 10.6411 5.23901C10.9141 4.59497 11.3131 4.00098 11.8071 3.50171C12.2961 3.00769 12.8791 2.60559 13.5145 2.32971C13.8315 2.19177 14.1605 2.08582 14.4979 2.01257C14.8349 1.93958 15.1779 1.90051 15.5214 1.89661C19.4174 1.8656 23.3134 1.85059 27.2079 1.85059C31.1049 1.85059 34.9999 1.8656 38.8963 1.89673C39.2393 1.90076 39.5833 1.9397 39.9208 2.01318C40.2568 2.08618 40.5868 2.19312 40.903 2.33008C41.221 2.46802 41.525 2.63708 41.8108 2.8335C42.0978 3.03052 42.3658 3.25452 42.6108 3.50159C42.8578 3.75061 43.0808 4.02161 43.2748 4.31238C43.4708 4.60437 43.6398 4.91431 43.7772 5.23816C43.9142 5.56311 44.0212 5.90112 44.0934 6.24597C44.1664 6.59094 44.2054 6.94397 44.2104 7.29602C44.2104 7.29602 44.2104 37.1479 44.2101 37.1484C44.1891 37.8424 44.0511 38.5385 43.8027 39.1934C43.5557 39.8484 43.1977 40.4624 42.7389 40.9862C42.5089 41.2483 42.2549 41.4873 41.9799 41.7C41.7069 41.912 41.4139 42.0969 41.1049 42.2539C40.7979 42.4099 40.4769 42.5369 40.1451 42.6315C39.8161 42.7264 39.4771 42.7896 39.1357 42.8154C31.1907 43.2485 23.2267 43.2485 15.2819 42.8154C14.6009 42.7625 13.9259 42.5664 13.3131 42.2549C12.6931 41.9398 12.1351 41.5068 11.6787 40.9869C11.2197 40.4619 10.8627 39.8479 10.6155 39.193C10.3675 38.538 10.2285 37.843 10.2065 37.1479Z" stroke="#16215B" stroke-width="0.283" stroke-miterlimit="10"/>
<rect x="12.8887" y="5.47168" width="28.63" height="34.35" rx="1.46" stroke="#00FFFF" stroke-width="0.28"/>
<path d="M38.6898 3.5864C31.0758 3.4874 23.3388 3.4874 15.7238 3.5864C15.4321 3.59042 15.1431 3.62143 14.858 3.68149C14.787 3.6965 14.7151 3.71249 14.6451 3.73141C14.5751 3.74948 14.5051 3.7695 14.4361 3.79147C14.298 3.83542 14.162 3.88449 14.0311 3.9415C13.8981 3.9985 13.7681 4.06149 13.6421 4.13144C13.578 4.16647 13.515 4.20346 13.453 4.24142C13.3911 4.27951 13.33 4.31943 13.2701 4.36142C13.0321 4.52646 12.8121 4.71445 12.6111 4.92343C12.5101 5.02744 12.4151 5.13742 12.3251 5.25351C12.2791 5.31052 12.2361 5.36948 12.1931 5.42941C12.151 5.48849 12.1111 5.54843 12.0721 5.61044C11.9151 5.85544 11.7841 6.11447 11.677 6.38644C11.651 6.45444 11.625 6.52341 11.6021 6.59348C11.578 6.66342 11.556 6.73349 11.5361 6.80344C11.4951 6.94443 11.4621 7.0864 11.4351 7.23044C11.382 7.51645 11.3551 7.80649 11.3551 8.10251C11.3528 17.5191 11.3519 26.9371 11.3499 36.3541C11.35 36.6476 11.371 36.9375 11.414 37.2235C11.436 37.3665 11.462 37.5085 11.4949 37.6505C11.511 37.7215 11.5289 37.7915 11.548 37.8615C11.567 37.9325 11.588 38.0025 11.61 38.0725C11.699 38.3506 11.809 38.6195 11.9429 38.8766C11.977 38.9415 12.0119 39.0055 12.048 39.0686C12.084 39.1316 12.1219 39.1936 12.162 39.2545C12.241 39.3756 12.324 39.4935 12.4129 39.6056C12.502 39.7185 12.597 39.8275 12.6969 39.9315C12.7469 39.9825 12.798 40.0335 12.852 40.0835C12.905 40.1325 12.959 40.1815 13.0139 40.2275C13.2359 40.4126 13.4729 40.5725 13.727 40.7065C13.7899 40.7395 13.8549 40.7716 13.92 40.8015C13.9859 40.8315 14.0529 40.8595 14.1199 40.8866C14.254 40.9386 14.3909 40.9835 14.5289 41.0216C14.8049 41.0965 15.087 41.1425 15.377 41.1576C23.2194 41.5847 31.1934 41.5847 39.0353 41.1577C39.3265 41.1417 39.6095 41.0958 39.8855 41.0217C40.0235 40.9837 40.1595 40.9387 40.2935 40.8867C40.3605 40.8597 40.4276 40.8318 40.4935 40.8017C40.5595 40.7707 40.6245 40.7387 40.6875 40.7048C40.9435 40.5708 41.1805 40.4107 41.3995 40.2258C41.5105 40.1338 41.6155 40.0348 41.7175 39.9308C41.7665 39.8788 41.8165 39.8248 41.8635 39.7697C41.9115 39.7158 41.9576 39.6598 42.0025 39.6037C42.1805 39.3778 42.3355 39.1367 42.4685 38.8818C42.5345 38.7538 42.5965 38.6228 42.6516 38.4878C42.6795 38.4207 42.7065 38.3528 42.7305 38.2838C42.7565 38.2158 42.7795 38.1467 42.8026 38.0768C42.8895 37.7998 42.9545 37.5167 42.9985 37.2297C43.0096 37.1577 43.0175 37.0847 43.0266 37.0128C43.0345 36.9398 43.0415 36.8668 43.0465 36.7938C43.0575 36.6478 43.0625 36.5007 43.0625 36.3547C43.0609 26.9375 43.0598 17.5195 43.059 8.10202C43.058 7.8071 43.032 7.51413 42.977 7.22409C42.95 7.07907 42.9149 6.93613 42.8749 6.79611C42.834 6.6561 42.7879 6.51804 42.735 6.38303C42.6809 6.24704 42.6219 6.11411 42.5549 5.9841C42.5219 5.91904 42.4879 5.8541 42.451 5.79013C42.4139 5.72702 42.3759 5.66403 42.3369 5.60202C42.1799 5.35703 41.9999 5.12912 41.799 4.92014C41.7489 4.86813 41.6979 4.81711 41.645 4.76706C41.5909 4.71713 41.5379 4.66806 41.481 4.62106C41.3699 4.52609 41.2539 4.43808 41.136 4.35605C40.8979 4.19308 40.6459 4.05405 40.3789 3.94003C40.313 3.91208 40.2449 3.8851 40.1759 3.8591C40.1079 3.83408 40.0389 3.81003 39.9699 3.78903C39.8309 3.74606 39.692 3.70908 39.5509 3.68002C39.269 3.62204 38.9829 3.59006 38.6898 3.5864Z" stroke="#FF00FF" stroke-width="0.283465" stroke-miterlimit="10" stroke-linecap="round" stroke-linejoin="round"/>
<path d="M17.23 25.3903C15.8237 25.3903 14.8862 24.8044 14.6128 24.0036C14.5689 23.8864 14.5444 23.7595 14.5444 23.6423C14.5444 23.2907 14.769 23.0661 15.101 23.0661C15.3793 23.0661 15.5551 23.1784 15.6918 23.4616C15.9115 24.072 16.517 24.3454 17.269 24.3454C18.1186 24.3454 18.7143 23.9255 18.7143 23.3395C18.7143 22.8317 18.3627 22.5192 17.4448 22.3287L16.688 22.1724C15.2769 21.8843 14.6177 21.2202 14.6177 20.19C14.6177 18.9498 15.7066 18.1099 17.2349 18.1099C18.48 18.1099 19.4468 18.6665 19.7349 19.5992C19.7642 19.6773 19.7788 19.7701 19.7788 19.8873C19.7788 20.1949 19.5591 20.4049 19.2319 20.4049C18.9389 20.4049 18.7583 20.2779 18.6264 20.0045C18.3871 19.4088 17.8842 19.1549 17.225 19.1549C16.4437 19.1549 15.8871 19.526 15.8871 20.1168C15.8871 20.5953 16.2387 20.9029 17.1176 21.0885L17.8744 21.2448C19.3588 21.5524 19.9838 22.1481 19.9838 23.1931C19.9838 24.5408 18.9242 25.3904 17.2299 25.3904L17.23 25.3903Z" fill="black"/>
<path d="M23.3155 25.3757C21.8018 25.3757 20.8252 24.3503 20.8252 22.6901C20.8252 21.0299 21.7969 19.9899 23.3057 19.9899C24.3213 19.9899 25.1856 20.5124 25.4346 21.2399C25.4737 21.3424 25.4981 21.445 25.4981 21.5329C25.4981 21.8356 25.2686 22.0212 24.9756 22.0212C24.7315 22.0212 24.585 21.9187 24.4434 21.6745C24.1846 21.2009 23.8428 20.9763 23.3399 20.9763C22.5586 20.9763 22.0606 21.6257 22.0606 22.6853C22.0606 23.7449 22.5635 24.3943 23.335 24.3943C23.8721 24.3943 24.2041 24.1453 24.4385 23.7302C24.6045 23.4568 24.7364 23.3542 25 23.3542C25.2881 23.3542 25.5127 23.5495 25.5127 23.8523C25.5127 23.9451 25.4883 24.0476 25.4395 24.1648C25.1514 24.8728 24.292 25.3757 23.3155 25.3757Z" fill="black"/>
<path d="M26.3625 24.7308V20.6086C26.3625 20.2276 26.5969 19.9932 26.9437 19.9932C27.1773 19.9932 27.3639 20.1058 27.4565 20.3017C27.4584 20.3057 27.4648 20.3218 27.4733 20.3436C27.5074 20.4311 27.6157 20.4621 27.6906 20.4054C27.893 20.2523 28.2753 20.0079 28.6532 20.0079C28.8437 20.0079 28.9902 20.0567 29.083 20.1398C29.1953 20.2326 29.2539 20.3791 29.2539 20.5794C29.2539 20.7797 29.1953 20.9115 29.0732 21.0092C28.956 21.1118 28.7753 21.1655 28.5359 21.1704C27.8423 21.1753 27.5786 21.61 27.5786 22.24V24.7309C27.5786 25.1314 27.3344 25.3707 26.9681 25.3707C26.6018 25.3707 26.3625 25.1313 26.3625 24.7308Z" fill="black"/>
<path d="M32.1316 19.9899C30.6228 19.9899 29.6267 21.0153 29.6267 22.6852C29.6267 24.3551 30.613 25.3757 32.1316 25.3757C33.6502 25.3757 34.6365 24.3649 34.6365 22.6852C34.6365 21.0055 33.6404 19.9899 32.1316 19.9899ZM32.1316 24.4138C31.3601 24.4138 30.8621 23.7888 30.8621 22.6853C30.8621 21.5818 31.365 20.9568 32.1316 20.9568C32.8982 20.9568 33.4011 21.5867 33.4011 22.6853C33.4011 23.7839 32.903 24.4138 32.1316 24.4138Z" fill="black"/>
<path d="M36.2627 25.3708C35.9063 25.3708 35.6523 25.1413 35.6523 24.7311V18.7691C35.6523 18.3589 35.9062 18.1294 36.2627 18.1294C36.6192 18.1294 36.8682 18.3589 36.8682 18.7691V24.7311C36.8682 25.1413 36.6192 25.3708 36.2627 25.3708Z" fill="black"/>
<path d="M38.7479 25.3708C38.3915 25.3708 38.1375 25.1413 38.1375 24.7311V18.7691C38.1375 18.3589 38.3914 18.1294 38.7479 18.1294C39.1044 18.1294 39.3533 18.3589 39.3533 18.7691V24.7311C39.3533 25.1413 39.1044 25.3708 38.7479 25.3708Z" fill="black"/>
</svg>
