<svg width="54" height="54" viewBox="0 0 54 54" fill="none" xmlns="http://www.w3.org/2000/svg">
<path d="M10.2065 37.1479V7.2959C10.2125 6.94397 10.252 6.59094 10.325 6.24585C10.397 5.90088 10.503 5.56384 10.6411 5.23901C10.9141 4.59497 11.3131 4.00098 11.8071 3.50171C12.2961 3.00769 12.8791 2.60559 13.5145 2.32971C13.8315 2.19177 14.1605 2.08582 14.4979 2.01257C14.8349 1.93958 15.1779 1.90051 15.5214 1.89661C19.4174 1.8656 23.3134 1.85059 27.2079 1.85059C31.1049 1.85059 34.9999 1.8656 38.8963 1.89673C39.2393 1.90076 39.5833 1.9397 39.9208 2.01318C40.2568 2.08618 40.5868 2.19312 40.903 2.33008C41.221 2.46802 41.525 2.63708 41.8108 2.8335C42.0978 3.03052 42.3658 3.25452 42.6108 3.50159C42.8578 3.75061 43.0808 4.02161 43.2748 4.31238C43.4708 4.60437 43.6398 4.91431 43.7772 5.23816C43.9142 5.56311 44.0212 5.90112 44.0934 6.24597C44.1664 6.59094 44.2054 6.94397 44.2104 7.29602C44.2104 7.29602 44.2104 37.1479 44.2101 37.1484C44.1891 37.8424 44.0511 38.5385 43.8027 39.1934C43.5557 39.8484 43.1977 40.4624 42.7389 40.9862C42.5089 41.2483 42.2549 41.4873 41.9799 41.7C41.7069 41.912 41.4139 42.0969 41.1049 42.2539C40.7979 42.4099 40.4769 42.5369 40.1451 42.6315C39.8161 42.7264 39.4771 42.7896 39.1357 42.8154C31.1907 43.2485 23.2267 43.2485 15.2819 42.8154C14.6009 42.7625 13.9259 42.5664 13.3131 42.2549C12.6931 41.9398 12.1351 41.5068 11.6787 40.9869C11.2197 40.4619 10.8627 39.8479 10.6155 39.193C10.3675 38.538 10.2285 37.843 10.2065 37.1479Z" stroke="#16215B" stroke-width="0.283" stroke-miterlimit="10"/>
<rect x="12.8887" y="5.47168" width="28.63" height="34.35" rx="1.46" stroke="#00FFFF" stroke-width="0.28"/>
<path d="M38.6898 3.58646C31.0758 3.48746 23.3388 3.48746 15.7238 3.58646C15.4321 3.59048 15.1431 3.62149 14.858 3.68155C14.787 3.69656 14.7151 3.71255 14.6451 3.73148C14.5751 3.74954 14.5051 3.76956 14.4361 3.79153C14.298 3.83548 14.162 3.88455 14.0311 3.94156C13.8981 3.99857 13.7681 4.06155 13.6421 4.1315C13.578 4.16653 13.515 4.20352 13.453 4.24149C13.3911 4.27957 13.33 4.31949 13.2701 4.36148C13.0321 4.52652 12.8121 4.71451 12.6111 4.92349C12.5101 5.0275 12.4151 5.13748 12.3251 5.25357C12.2791 5.31058 12.2361 5.36954 12.1931 5.42947C12.151 5.48856 12.1111 5.54849 12.0721 5.6105C11.9151 5.8555 11.7841 6.11453 11.677 6.38651C11.651 6.4545 11.625 6.52347 11.6021 6.59354C11.578 6.66348 11.556 6.73355 11.5361 6.8035C11.4951 6.94449 11.4621 7.08646 11.4351 7.2305C11.382 7.51651 11.3551 7.80655 11.3551 8.10257C11.3528 17.5192 11.3519 26.9372 11.3499 36.3542C11.35 36.6476 11.371 36.9375 11.414 37.2235C11.436 37.3666 11.462 37.5086 11.4949 37.6505C11.511 37.7216 11.5289 37.7915 11.548 37.8616C11.567 37.9325 11.588 38.0026 11.61 38.0725C11.699 38.3506 11.809 38.6195 11.9429 38.8766C11.977 38.9416 12.0119 39.0055 12.048 39.0686C12.084 39.1316 12.1219 39.1936 12.162 39.2545C12.241 39.3756 12.324 39.4936 12.4129 39.6056C12.502 39.7185 12.597 39.8275 12.6969 39.9315C12.7469 39.9826 12.798 40.0336 12.852 40.0835C12.905 40.1326 12.959 40.1815 13.0139 40.2276C13.2359 40.4126 13.4729 40.5725 13.727 40.7066C13.7899 40.7395 13.8549 40.7716 13.92 40.8015C13.9859 40.8316 14.0529 40.8595 14.1199 40.8866C14.254 40.9386 14.3909 40.9836 14.5289 41.0216C14.8049 41.0966 15.087 41.1426 15.377 41.1576C23.2194 41.5847 31.1934 41.5847 39.0353 41.1577C39.3265 41.1418 39.6095 41.0959 39.8855 41.0218C40.0235 40.9838 40.1595 40.9388 40.2935 40.8867C40.3605 40.8598 40.4276 40.8318 40.4935 40.8018C40.5595 40.7708 40.6245 40.7388 40.6875 40.7049C40.9435 40.5708 41.1805 40.4108 41.3995 40.2259C41.5105 40.1338 41.6155 40.0348 41.7175 39.9308C41.7665 39.8788 41.8165 39.8249 41.8635 39.7698C41.9115 39.7159 41.9576 39.6598 42.0025 39.6038C42.1805 39.3778 42.3355 39.1367 42.4685 38.8819C42.5345 38.7538 42.5965 38.6228 42.6516 38.4878C42.6795 38.4208 42.7065 38.3528 42.7305 38.2838C42.7565 38.2159 42.7795 38.1468 42.8026 38.0768C42.8895 37.7998 42.9545 37.5168 42.9985 37.2298C43.0096 37.1577 43.0175 37.0847 43.0266 37.0128C43.0345 36.9398 43.0415 36.8669 43.0465 36.7939C43.0575 36.6479 43.0625 36.5008 43.0625 36.3548C43.0609 26.9375 43.0598 17.5196 43.059 8.10208C43.058 7.80716 43.032 7.51419 42.977 7.22415C42.95 7.07913 42.9149 6.93619 42.8749 6.79617C42.834 6.65616 42.7879 6.5181 42.735 6.38309C42.6809 6.2471 42.6219 6.11417 42.5549 5.98416C42.5219 5.9191 42.4879 5.85416 42.451 5.79019C42.4139 5.72708 42.3759 5.66409 42.3369 5.60208C42.1799 5.35709 41.9999 5.12918 41.799 4.9202C41.7489 4.86819 41.6979 4.81717 41.645 4.76712C41.5909 4.71719 41.5379 4.66812 41.481 4.62112C41.3699 4.52615 41.2539 4.43814 41.136 4.35611C40.8979 4.19315 40.6459 4.05411 40.3789 3.94009C40.313 3.91214 40.2449 3.88516 40.1759 3.85916C40.1079 3.83414 40.0389 3.81009 39.9699 3.78909C39.8309 3.74612 39.692 3.70914 39.5509 3.68008C39.269 3.6221 38.9829 3.59012 38.6898 3.58646Z" stroke="#FF00FF" stroke-width="0.283465" stroke-miterlimit="10" stroke-linecap="round" stroke-linejoin="round"/>
<path d="M20.6497 15.169C20.3497 15.169 20.1497 14.969 20.1497 14.689C20.1497 14.159 20.7797 13.509 21.7697 13.509C22.7597 13.509 23.3597 14.019 23.3597 14.729C23.3597 15.319 22.9897 15.689 22.5797 16.039L22.1097 16.479C22.0197 16.569 22.0797 16.729 22.2097 16.729H22.8897C23.2897 16.729 23.4897 16.919 23.4897 17.199C23.4897 17.509 23.2997 17.679 22.8897 17.679H20.6797C20.3797 17.679 20.1697 17.479 20.1697 17.209C20.1697 17.069 20.2297 16.939 20.3397 16.839L21.6997 15.569C21.9497 15.329 22.1597 15.109 22.1597 14.869C22.1597 14.629 21.9697 14.459 21.7097 14.459C21.4397 14.459 21.3097 14.629 21.1497 14.889C21.0097 15.099 20.8697 15.199 20.6497 15.199V15.169ZM15.3497 17.089L18.3897 13.169L21.2697 9.39905C21.4597 9.14905 21.6897 9.11905 21.8897 9.20905C22.0897 9.24905 22.2297 9.41905 22.2397 9.62905C22.2397 9.76905 22.1897 9.89905 22.0797 10.039L19.2097 13.749L16.1597 17.729C15.9697 17.979 15.7297 17.999 15.5297 17.909C15.3597 17.869 15.1997 17.709 15.1997 17.529C15.1897 17.389 15.2397 17.239 15.3597 17.089H15.3497ZM15.4897 12.789V10.509C15.4897 10.399 15.3697 10.329 15.2797 10.389L15.1497 10.469C15.0297 10.539 14.9297 10.579 14.8297 10.579C14.5797 10.579 14.3997 10.399 14.3997 10.149C14.3997 9.98905 14.4997 9.83905 14.6697 9.72905L15.2397 9.38905C15.4797 9.23905 15.7597 9.14905 16.0197 9.14905C16.4897 9.14905 16.7497 9.41905 16.7497 9.86905V12.779C16.7497 13.139 16.4997 13.389 16.1297 13.389C15.7597 13.389 15.4997 13.139 15.4997 12.779L15.4897 12.789Z" fill="black"/>
<path d="M18.9573 36.1443C19.6273 36.1443 20.0273 35.8043 20.0273 35.3043C20.0273 34.7543 19.4873 34.5743 18.3873 34.2643C17.1873 33.9243 16.4673 33.4343 16.4673 32.4243C16.4673 31.7143 16.8273 31.2543 17.3373 30.9343C17.4273 30.8843 17.4173 30.7543 17.3373 30.6943C16.8173 30.3343 16.5273 29.8543 16.5273 29.1843C16.5273 27.9243 17.6273 27.1243 19.0373 27.1243C19.6673 27.1243 20.2773 27.2943 20.7273 27.5943C21.1273 27.8443 21.3773 28.1843 21.3673 28.5343C21.3573 28.8843 21.0573 29.1143 20.7273 29.0943C20.5273 29.0743 20.3773 28.9843 20.1373 28.7643C19.7673 28.4343 19.4673 28.2743 19.0373 28.2743C18.4073 28.2743 18.0073 28.6243 18.0073 29.1043C18.0073 29.6543 18.5873 29.8643 19.6173 30.1543C20.8973 30.5043 21.5673 30.9443 21.5673 31.9743C21.5673 32.6643 21.2373 33.1743 20.7473 33.5543C20.6673 33.6143 20.6773 33.7343 20.7473 33.7843C21.2673 34.1443 21.5173 34.5543 21.5173 35.1843C21.5173 36.5143 20.3673 37.3143 18.9573 37.3143C18.4273 37.3143 17.8673 37.1943 17.4473 36.9743C16.9073 36.7143 16.5473 36.3043 16.5473 35.8843C16.5473 35.5343 16.8473 35.2843 17.1873 35.3043C17.3873 35.3143 17.5273 35.4043 17.7673 35.6343C18.0973 35.9743 18.4673 36.1543 18.9473 36.1543L18.9573 36.1443ZM19.0173 33.1643C19.0173 33.1643 19.2573 33.2243 19.3873 33.2543C19.4573 33.2743 19.5373 33.2543 19.5973 33.2243C19.8973 33.0443 20.1173 32.6743 20.1173 32.2843C20.1173 31.7543 19.7373 31.4543 18.9873 31.2943C18.9573 31.2943 18.7773 31.2543 18.6673 31.2243C18.6073 31.2143 18.5473 31.2243 18.4973 31.2443C18.1673 31.4043 17.9073 31.8243 17.9073 32.2043C17.9073 32.7043 18.2673 32.9943 19.0173 33.1743V33.1643Z" fill="black"/>
</svg>
