<svg width="54" height="54" viewBox="0 0 54 54" fill="none" xmlns="http://www.w3.org/2000/svg">
<path d="M9.91309 37.0476C9.83508 27.0606 9.73608 17.0726 9.61914 7.08457L9.6192 7.08213C9.62323 6.91611 9.63623 6.7501 9.65631 6.58396C9.67633 6.41892 9.70233 6.25498 9.73553 6.09153C9.76752 5.92954 9.80652 5.76853 9.85266 5.60972C9.89966 5.45176 9.95166 5.29575 10.0115 5.14158C10.1985 4.66758 10.4535 4.21665 10.77 3.81431C11.083 3.41733 11.456 3.06833 11.8725 2.78391C12.2875 2.50193 12.7465 2.28391 13.2258 2.13694C13.7078 1.98984 14.2118 1.91392 14.7141 1.90659C18.8081 1.87168 22.9021 1.85459 26.9963 1.85496C31.0893 1.85496 35.1833 1.87192 39.2776 1.9072C39.4396 1.91013 39.6016 1.92112 39.7635 1.93772C40.0035 1.96372 40.2435 2.00474 40.4799 2.0615C40.7139 2.11851 40.9449 2.1904 41.1697 2.27952C41.4037 2.37253 41.6287 2.4835 41.8449 2.61069C42.062 2.73862 42.2689 2.88267 42.4627 3.0416C42.6577 3.20164 42.8417 3.37668 43.0105 3.56321C43.1795 3.75217 43.3355 3.9542 43.476 4.16575C43.757 4.59482 43.975 5.06479 44.125 5.55649C44.276 6.05442 44.358 6.57444 44.373 7.09263C44.252 17.0696 44.154 27.0466 44.08 37.0251C44.074 37.185 44.0601 37.3451 44.039 37.5036C44.018 37.6646 43.991 37.8236 43.9569 37.9813C43.9239 38.1402 43.8839 38.2983 43.8358 38.4537C43.7888 38.6097 43.7349 38.7636 43.675 38.9156C43.484 39.3907 43.228 39.8407 42.9172 40.2495C42.6032 40.6605 42.2352 41.0285 41.8244 41.3395C41.4154 41.6495 40.9624 41.9035 40.4838 42.0906C40.0098 42.2755 39.5098 42.3955 39.0063 42.4435C31.0073 42.9535 22.9843 42.9535 14.9849 42.4436C14.6529 42.4116 14.3229 42.3476 14.0024 42.2535C13.6794 42.1595 13.3654 42.0345 13.0632 41.8819C12.4602 41.5749 11.9092 41.1568 11.4476 40.6577C10.9866 40.1606 10.6126 39.5816 10.349 38.9596C10.219 38.6516 10.115 38.3325 10.0411 38.0056C9.96912 37.6836 9.92407 37.3546 9.91113 37.0245" stroke="#16215B" stroke-width="0.283" stroke-miterlimit="10"/>
<rect x="12.6855" y="5.52831" width="28.63" height="34.31" rx="1.43" stroke="#00FFFF" stroke-width="0.28"/>
<path d="M42.9399 36.5841C42.9578 31.7321 42.9778 26.8791 43.0009 22.0272C43.0219 17.1742 43.0469 12.3221 43.0759 7.46909C43.0767 7.32443 43.0717 7.18039 43.0596 7.03745C43.0497 6.89438 43.0317 6.75143 43.0076 6.61044C42.9606 6.32834 42.8887 6.05441 42.7897 5.7894C42.7646 5.72336 42.7386 5.65744 42.7106 5.59238C42.6816 5.52634 42.6526 5.4614 42.6216 5.39841C42.5587 5.27036 42.4907 5.14743 42.4156 5.02841C42.2667 4.79037 42.0936 4.5704 41.8937 4.36642C41.6957 4.16342 41.4777 3.98642 41.2437 3.83334C41.1266 3.75742 41.0057 3.68637 40.8796 3.62241C40.8167 3.59042 40.7537 3.55942 40.6877 3.53036C40.6237 3.50034 40.5566 3.47336 40.4907 3.44736C40.2236 3.34335 39.9507 3.2684 39.6716 3.21738C39.3926 3.16635 39.1077 3.14035 38.8167 3.13742C37.8378 3.12985 36.8568 3.1218 35.8738 3.11581C34.8898 3.10886 33.9058 3.10385 32.9208 3.09885C30.9498 3.09079 28.9758 3.08688 26.9988 3.08688C26.5038 3.08688 26.0098 3.08688 25.5148 3.08688C25.0208 3.08786 24.5258 3.08884 24.0308 3.08981C23.0418 3.09189 22.0538 3.09482 21.0688 3.09885C19.0968 3.10788 17.1328 3.12082 15.1758 3.13779C15.0301 3.13889 14.8861 3.14682 14.7411 3.15988C14.5981 3.1738 14.4541 3.19284 14.3131 3.21884C14.0301 3.27084 13.7561 3.34787 13.4911 3.45187C13.4251 3.47787 13.3601 3.50485 13.2951 3.53488C13.2301 3.56381 13.1651 3.59579 13.1021 3.6279C12.9751 3.69382 12.8541 3.76486 12.7361 3.84286C12.5011 3.9968 12.2841 4.17587 12.0861 4.37985C12.0371 4.4299 11.9891 4.48288 11.9431 4.53586C11.8971 4.58884 11.8521 4.64279 11.8091 4.69882C11.7231 4.80881 11.6431 4.9238 11.5691 5.04184C11.4951 5.16086 11.4281 5.2839 11.3651 5.40988C11.3351 5.47287 11.3061 5.53683 11.2781 5.60287C11.2501 5.66782 11.2241 5.73483 11.1991 5.80185C11.1011 6.06784 11.0301 6.34079 10.9841 6.61887C10.9381 6.89682 10.9151 7.18088 10.9171 7.46982C10.9454 12.3224 10.9714 17.1744 10.9935 22.0274C11.0165 26.8794 11.0355 31.7324 11.0535 36.5844C11.0541 36.8712 11.0781 37.1551 11.1281 37.4392C11.1411 37.5101 11.1552 37.5811 11.1701 37.6511C11.1862 37.7212 11.2021 37.7911 11.2211 37.8601C11.2581 37.9991 11.3011 38.1351 11.3502 38.2701C11.3991 38.4051 11.4531 38.5382 11.5151 38.6682C11.5461 38.7331 11.5771 38.7982 11.6121 38.8622C11.6461 38.9261 11.6812 38.9901 11.7181 39.0532C11.8651 39.3032 12.0331 39.5361 12.2241 39.7531C12.3192 39.8612 12.4201 39.9652 12.5272 40.0652C12.5791 40.1151 12.6342 40.1632 12.6901 40.2102C12.7451 40.2572 12.8011 40.3021 12.8591 40.3462C13.0881 40.5211 13.3322 40.6721 13.5921 40.7982C13.6571 40.8302 13.7231 40.8601 13.7902 40.8882C13.8571 40.9171 13.9241 40.9431 13.9921 40.9681C14.1281 41.0182 14.2651 41.0611 14.4041 41.0971C14.6801 41.1692 14.9631 41.2131 15.2512 41.2312C16.2243 41.2916 17.1993 41.3446 18.1773 41.3896C19.1533 41.4356 20.1323 41.4726 21.1113 41.5027C23.0683 41.5636 25.0293 41.5936 26.9943 41.5936C27.4853 41.5936 27.9773 41.5916 28.4683 41.5876C28.9593 41.5846 29.4513 41.5786 29.9423 41.5706C30.9253 41.5556 31.9063 41.5335 32.8863 41.5027C34.8443 41.4426 36.7963 41.3526 38.7416 41.2315C38.8866 41.2226 39.0296 41.2066 39.1726 41.1845C39.2436 41.1726 39.3146 41.1596 39.3866 41.1446C39.4566 41.1296 39.5276 41.1136 39.5966 41.0946C39.8766 41.0226 40.1456 40.9226 40.4046 40.7956C40.4706 40.7646 40.5336 40.7315 40.5966 40.6966C40.6606 40.6616 40.7236 40.6246 40.7856 40.5855C40.9096 40.5096 41.0286 40.4266 41.1426 40.3386C41.3726 40.1635 41.5826 39.9666 41.7736 39.7486C41.8216 39.6936 41.8676 39.6375 41.9136 39.5807C41.9586 39.5237 42.0026 39.4655 42.0446 39.4066C42.1296 39.2896 42.2076 39.1685 42.2796 39.0446C42.4256 38.7966 42.5466 38.5376 42.6446 38.2656C42.6696 38.1976 42.6926 38.1286 42.7146 38.0595C42.7356 37.9906 42.7556 37.9216 42.7736 37.8526C42.8106 37.7136 42.8416 37.5746 42.8656 37.4345C42.9146 37.1537 42.9386 36.8706 42.9399 36.5841Z" stroke="#FF00FF" stroke-width="0.283465" stroke-miterlimit="10" stroke-linecap="round" stroke-linejoin="round"/>
<path d="M22.3086 24.87L20.2578 19.3035C20.0821 18.8299 19.7989 18.6248 19.335 18.6248C18.8711 18.6248 18.5928 18.8396 18.4219 19.3084L16.376 24.87C16.3174 25.0214 16.293 25.1581 16.293 25.2557C16.293 25.6121 16.542 25.8368 16.9278 25.8368C17.255 25.8368 17.4405 25.6757 17.5577 25.2948L17.9885 24.0522C18.0083 23.9952 18.062 23.9569 18.1224 23.9569H20.5523C20.6128 23.9569 20.6666 23.9953 20.6863 24.0525L21.1173 25.3046C21.2296 25.6806 21.42 25.8368 21.7618 25.8368C22.128 25.8368 22.3917 25.5975 22.3917 25.2557C22.3917 25.1434 22.3673 25.0311 22.3087 24.87H22.3086ZM18.3806 22.7747L19.1935 20.3078C19.2362 20.1782 19.4195 20.1779 19.4626 20.3074L20.2836 22.7743C20.3141 22.8661 20.2458 22.9608 20.1491 22.9608H18.5152C18.4187 22.9608 18.3504 22.8664 18.3806 22.7747Z" fill="black"/>
<path d="M24.0323 25.8514C23.6759 25.8514 23.4219 25.6219 23.4219 25.2117V19.2497C23.4219 18.8395 23.6758 18.61 24.0323 18.61C24.3888 18.61 24.6378 18.8395 24.6378 19.2497V25.2117C24.6378 25.6219 24.3888 25.8514 24.0323 25.8514Z" fill="black"/>
<path d="M26.3028 24.4743V21.658C26.3028 21.5797 26.2393 21.5163 26.1611 21.5163H25.9757C25.673 21.5163 25.4873 21.3454 25.4873 21.0524C25.4873 20.7594 25.6728 20.5934 25.9757 20.5934H26.1611C26.2394 20.5934 26.3028 20.5299 26.3028 20.4517V19.8887C26.3028 19.498 26.5372 19.2538 26.9133 19.2538C27.2894 19.2538 27.5189 19.4979 27.5189 19.8887V20.4517C27.5189 20.53 27.5824 20.5934 27.6606 20.5934H28.0805C28.3832 20.5934 28.5689 20.7642 28.5689 21.0524C28.5689 21.3406 28.3834 21.5163 28.0805 21.5163H27.6606C27.5823 21.5163 27.5189 21.5798 27.5189 21.658V24.2106C27.5189 24.6013 27.6556 24.7722 28.0073 24.8015L28.0952 24.8113C28.4175 24.8406 28.5836 24.9773 28.5836 25.2606C28.5836 25.617 28.2711 25.8076 27.7144 25.8076H27.6656C26.7622 25.8076 26.3031 25.3583 26.3031 24.4744H26.3029L26.3028 24.4743Z" fill="black"/>
</svg>
