<svg width="82" height="54" viewBox="0 0 82 54" fill="none" xmlns="http://www.w3.org/2000/svg">
<path d="M71.5068 37.0027C71.5848 27.0807 71.6919 17.1587 71.8298 7.23665C71.8199 6.87965 71.7788 6.52266 71.7035 6.17201C71.6305 5.82301 71.5245 5.48201 71.3847 5.15382C71.2467 4.82881 71.0757 4.51686 70.876 4.22511C70.676 3.93513 70.448 3.66512 70.1949 3.42079C69.9419 3.17781 69.6649 2.96077 69.3693 2.77412C69.0733 2.58711 68.7583 2.42915 68.4325 2.30342C68.1065 2.17744 67.7675 2.0815 67.4237 2.01741C67.0777 1.95345 66.7278 1.91939 66.3745 1.91585C49.4605 1.82491 32.5455 1.82491 15.6317 1.91548C15.2937 1.92159 14.9567 1.95454 14.6241 2.01485C14.2921 2.07381 13.9641 2.15974 13.6495 2.27437C13.4005 2.36739 13.1575 2.47835 12.9246 2.60493C12.6925 2.73299 12.4685 2.87801 12.2568 3.03865C12.0458 3.20058 11.8468 3.37856 11.663 3.57112C11.4779 3.76515 11.3099 3.97414 11.1587 4.19398C11.0067 4.41493 10.8716 4.64796 10.7538 4.88844C10.6358 5.13149 10.5358 5.38149 10.4525 5.63869C10.2864 6.15468 10.1914 6.69667 10.1777 7.23622C10.3117 17.1582 10.4188 27.0802 10.5002 37.0013C10.5251 37.6633 10.6751 38.3273 10.94 38.9409C11.209 39.5659 11.595 40.1389 12.071 40.6231C12.55 41.1111 13.118 41.5101 13.7408 41.796C14.3578 42.0809 15.0288 42.254 15.7026 42.3051C24.1317 42.6481 32.5667 42.8191 41.0034 42.819C49.4394 42.819 57.8744 42.648 66.3044 42.3047C66.9783 42.2537 67.6483 42.0807 68.2662 41.7968C68.8882 41.5098 69.4572 41.1109 69.9361 40.6232C70.4111 40.1383 70.7971 39.5662 71.0675 38.9408C71.3305 38.3278 71.4825 37.6638 71.5066 37.0007" stroke="#16215B" stroke-width="0.283" stroke-miterlimit="10"/>
<path d="M11.7583 38.7131V6.44019C11.7583 5.26575 12.7093 4.31372 13.8843 4.31372H17.4273H64.6312H68.1743C69.3483 4.31372 70.3003 5.26575 70.3003 6.4397V38.7127C70.3003 39.8871 69.3483 40.8391 68.1743 40.8391L13.8843 40.8392C12.7093 40.8392 11.7583 39.8871 11.7583 38.7131Z" stroke="#00FFFF" stroke-width="0.28" stroke-miterlimit="10"/>
<path d="M66.1805 41.1327C49.4365 41.8178 32.5695 41.8178 15.8265 41.1327C15.5304 41.12 15.2384 41.083 14.9494 41.018C14.8044 40.986 14.6624 40.947 14.5224 40.902C14.3833 40.856 14.2453 40.805 14.1104 40.746C13.9754 40.688 13.8443 40.623 13.7154 40.552C13.6503 40.516 13.5864 40.478 13.5224 40.439C13.4603 40.4 13.3984 40.36 13.3384 40.318C13.0964 40.15 12.8724 39.961 12.6694 39.749C12.6184 39.696 12.5683 39.642 12.5194 39.586C12.4714 39.531 12.4244 39.473 12.3783 39.415C12.2874 39.3 12.2024 39.18 12.1243 39.057C11.9684 38.811 11.8374 38.552 11.7304 38.28C11.7044 38.211 11.6794 38.142 11.6564 38.073C11.6333 38.003 11.6113 37.933 11.5914 37.863C11.5524 37.723 11.5184 37.582 11.4924 37.44C11.4393 37.156 11.4133 36.869 11.4124 36.577C11.3963 31.7904 11.3783 27.0025 11.3583 22.2155C11.3382 17.4284 11.3153 12.6414 11.2903 7.85341C11.2815 7.69783 11.2755 7.54182 11.2765 7.38686C11.2775 7.23085 11.2865 7.07686 11.3035 6.92287C11.3105 6.84584 11.3215 6.76881 11.3335 6.69185C11.3455 6.61482 11.3595 6.53883 11.3755 6.46187C11.4075 6.31087 11.4475 6.16182 11.4955 6.01485C11.5425 5.86885 11.5975 5.72585 11.6625 5.58485C11.6935 5.51485 11.7275 5.44582 11.7635 5.37685C11.8005 5.30885 11.8385 5.24086 11.8785 5.17384C12.0375 4.90883 12.2245 4.66682 12.4395 4.44685C12.4935 4.39186 12.5495 4.33784 12.6065 4.28682C12.6355 4.25984 12.6645 4.23482 12.6935 4.20882C12.7235 4.18385 12.7535 4.15883 12.7835 4.13387C12.9045 4.03682 13.0305 3.94582 13.1605 3.86287C13.4205 3.69685 13.6985 3.55983 13.9925 3.44887C14.2865 3.33882 14.5875 3.25984 14.8925 3.20686C15.1985 3.15382 15.5105 3.12685 15.8255 3.12581C32.57 3.03383 49.437 3.03383 66.18 3.12581C66.4961 3.12691 66.8081 3.15388 67.1131 3.20686C67.4191 3.2599 67.7201 3.33888 68.0141 3.44887C68.3081 3.55989 68.5851 3.69691 68.8461 3.86287C68.9761 3.94588 69.1011 4.0359 69.2221 4.13387C69.2521 4.15889 69.2821 4.18391 69.3121 4.20888C69.3411 4.2339 69.3701 4.2599 69.4001 4.2859C69.4561 4.33791 69.5121 4.39186 69.5661 4.44691C69.7801 4.66591 69.9681 4.90889 70.1281 5.1739C70.1681 5.23988 70.2061 5.30788 70.2421 5.37691C70.2791 5.4449 70.3121 5.51491 70.3441 5.58492C70.4071 5.72487 70.4631 5.86891 70.5111 6.01491C70.5591 6.1609 70.5991 6.30989 70.6301 6.46187C70.6471 6.53792 70.6601 6.61488 70.6731 6.69087C70.6851 6.7679 70.6951 6.84486 70.7031 6.92189C70.7201 7.07588 70.7281 7.23091 70.7301 7.38588C70.7311 7.54091 70.7251 7.69691 70.7161 7.85286C70.691 12.64 70.668 17.428 70.648 22.215C70.627 27.002 70.61 31.79 70.594 36.5767C70.593 36.8687 70.566 37.1587 70.513 37.4458C70.486 37.5907 70.452 37.7327 70.412 37.8717C70.372 38.0117 70.326 38.1497 70.273 38.2847C70.22 38.4198 70.16 38.5527 70.094 38.6837C70.061 38.7497 70.026 38.8147 69.99 38.8787C69.952 38.9428 69.914 39.0058 69.875 39.0667C69.717 39.3137 69.536 39.5427 69.332 39.7547C69.282 39.8067 69.229 39.8587 69.175 39.9087C69.121 39.9597 69.066 40.0087 69.009 40.0567C68.896 40.1527 68.78 40.2417 68.659 40.3237C68.417 40.4898 68.161 40.6317 67.89 40.7487C67.823 40.7777 67.753 40.8057 67.684 40.8317C67.615 40.8577 67.545 40.8817 67.475 40.9038C67.335 40.9497 67.194 40.9877 67.051 41.0197C66.766 41.0827 66.475 41.1207 66.1805 41.1327Z" stroke="#FF00FF" stroke-width="0.283465" stroke-miterlimit="10" stroke-linecap="round" stroke-linejoin="round"/>
<path d="M73.2894 46.9191V52.01H72.6729V47.5654H72.6431L71.4002 48.3907V47.7643L72.6729 46.9191H73.2894ZM74.8903 52.0498C74.7676 52.0498 74.6624 52.0059 74.5746 51.918C74.4867 51.8302 74.4428 51.725 74.4428 51.6023C74.4428 51.4797 74.4867 51.3745 74.5746 51.2866C74.6624 51.1988 74.7676 51.1549 74.8903 51.1549C75.0129 51.1549 75.1181 51.1988 75.206 51.2866C75.2938 51.3745 75.3377 51.4797 75.3377 51.6023C75.3377 51.6835 75.317 51.7581 75.2756 51.8261C75.2358 51.894 75.1819 51.9487 75.114 51.9901C75.0477 52.0299 74.9731 52.0498 74.8903 52.0498ZM77.8689 52.0796C77.5772 52.0796 77.3145 52.0216 77.0809 51.9056C76.8472 51.7896 76.6599 51.6305 76.5191 51.4283C76.3782 51.2262 76.3012 50.9958 76.2879 50.7373H76.8845C76.9077 50.9676 77.0121 51.1582 77.1977 51.309C77.385 51.4582 77.6087 51.5327 77.8689 51.5327C78.0777 51.5327 78.2633 51.4838 78.4257 51.3861C78.5898 51.2883 78.7182 51.1541 78.811 50.9834C78.9055 50.811 78.9527 50.6163 78.9527 50.3992C78.9527 50.1771 78.9038 49.9791 78.806 49.8051C78.7099 49.6294 78.5773 49.4911 78.4083 49.39C78.2393 49.2889 78.0462 49.2375 77.8291 49.2359C77.6733 49.2342 77.5134 49.2582 77.3493 49.308C77.1853 49.356 77.0502 49.4182 76.9442 49.4944L76.3675 49.4248L76.6757 46.9191H79.3206V47.466H77.1927L77.0138 48.9674H77.0436C77.148 48.8845 77.2789 48.8158 77.4363 48.7611C77.5938 48.7064 77.7578 48.679 77.9285 48.679C78.2401 48.679 78.5177 48.7536 78.7613 48.9028C79.0065 49.0503 79.1988 49.2524 79.338 49.5093C79.4788 49.7662 79.5493 50.0595 79.5493 50.3893C79.5493 50.7141 79.4764 51.0041 79.3305 51.2593C79.1863 51.5129 78.9875 51.7134 78.7339 51.8609C78.4804 52.0067 78.192 52.0796 77.8689 52.0796Z" fill="#0000FF"/>
<path fill-rule="evenodd" clip-rule="evenodd" d="M17.2251 15.736C16.833 15.736 16.5151 15.4181 16.5151 15.026C16.5151 14.6339 16.833 14.316 17.2251 14.316H20.5002C20.6386 14.316 20.7681 14.2478 20.8465 14.1337L23.3031 10.5547C23.6462 10.0548 24.2137 9.75598 24.8201 9.75598H29.7751C30.1673 9.75598 30.4851 10.0739 30.4851 10.466C30.4851 10.8581 30.1673 11.176 29.7751 11.176H24.8201C24.6817 11.176 24.5521 11.2442 24.4738 11.3583L22.0172 14.9373C21.674 15.4372 21.1066 15.736 20.5002 15.736H17.2251ZM25.4751 15.736C25.083 15.736 24.7651 15.4181 24.7651 15.026C24.7651 14.6339 25.083 14.316 25.4751 14.316H29.7751C30.1673 14.316 30.4851 14.6339 30.4851 15.026C30.4851 15.4181 30.1673 15.736 29.7751 15.736H25.4751Z" fill="black"/>
<path d="M22.8086 34.8662L20.7578 29.2997C20.5821 28.8261 20.2989 28.621 19.835 28.621C19.3711 28.621 19.0928 28.8358 18.9219 29.3046L16.876 34.8662C16.8174 35.0176 16.793 35.1543 16.793 35.2519C16.793 35.6083 17.042 35.833 17.4278 35.833C17.755 35.833 17.9405 35.6719 18.0577 35.291L18.4885 34.0484C18.5083 33.9914 18.562 33.9531 18.6224 33.9531H21.0523C21.1128 33.9531 21.1666 33.9915 21.1863 34.0487L21.6173 35.3008C21.7296 35.6768 21.92 35.833 22.2618 35.833C22.628 35.833 22.8917 35.5937 22.8917 35.2519C22.8917 35.1396 22.8673 35.0273 22.8087 34.8662H22.8086ZM18.8806 32.7709L19.6935 30.304C19.7362 30.1744 19.9195 30.1741 19.9626 30.3036L20.7836 32.7705C20.8141 32.8623 20.7458 32.957 20.6491 32.957H19.0152C18.9187 32.957 18.8504 32.8626 18.8806 32.7709Z" fill="black"/>
<path d="M24.5323 35.8477C24.1759 35.8477 23.9219 35.6182 23.9219 35.208V29.246C23.9219 28.8358 24.1758 28.6063 24.5323 28.6063C24.8888 28.6063 25.1378 28.8358 25.1378 29.246V35.208C25.1378 35.6182 24.8888 35.8477 24.5323 35.8477Z" fill="black"/>
<path d="M26.8028 34.4705V31.6542C26.8028 31.5759 26.7393 31.5125 26.6611 31.5125H26.4757C26.173 31.5125 25.9873 31.3416 25.9873 31.0486C25.9873 30.7556 26.1728 30.5896 26.4757 30.5896H26.6611C26.7394 30.5896 26.8028 30.5261 26.8028 30.4479V29.8849C26.8028 29.4942 27.0372 29.25 27.4133 29.25C27.7894 29.25 28.0189 29.4941 28.0189 29.8849V30.4479C28.0189 30.5262 28.0824 30.5896 28.1606 30.5896H28.5805C28.8832 30.5896 29.0689 30.7604 29.0689 31.0486C29.0689 31.3368 28.8834 31.5125 28.5805 31.5125H28.1606C28.0823 31.5125 28.0189 31.576 28.0189 31.6542V34.2068C28.0189 34.5975 28.1556 34.7684 28.5073 34.7977L28.5952 34.8075C28.9175 34.8368 29.0836 34.9735 29.0836 35.2568C29.0836 35.6132 28.7711 35.8038 28.2144 35.8038H28.1656C27.2622 35.8038 26.8031 35.3545 26.8031 34.4706H26.8029L26.8028 34.4705Z" fill="black"/>
</svg>
