<svg width="54" height="54" viewBox="0 0 54 54" fill="none" xmlns="http://www.w3.org/2000/svg">
<path d="M9.91309 37.0476C9.83508 27.0607 9.73608 17.0726 9.61914 7.0846L9.6192 7.08216C9.62323 6.91614 9.63623 6.75013 9.65631 6.58399C9.67633 6.41895 9.70233 6.25501 9.73553 6.09156C9.76752 5.92957 9.80652 5.76856 9.85266 5.60975C9.89966 5.45179 9.95166 5.29578 10.0115 5.14161C10.1985 4.66761 10.4535 4.21668 10.77 3.81434C11.083 3.41736 11.456 3.06837 11.8725 2.78394C12.2875 2.50196 12.7465 2.28394 13.2258 2.13697C13.7078 1.98987 14.2118 1.91395 14.7141 1.90662C18.8081 1.87171 22.9021 1.85462 26.9963 1.85499C31.0893 1.85499 35.1833 1.87195 39.2776 1.90723C39.4396 1.91016 39.6016 1.92115 39.7635 1.93775C40.0035 1.96375 40.2435 2.00477 40.4799 2.06153C40.7139 2.11854 40.9449 2.19044 41.1697 2.27955C41.4037 2.37256 41.6287 2.48353 41.8449 2.61072C42.062 2.73865 42.2689 2.8827 42.4627 3.04163C42.6577 3.20167 42.8417 3.37671 43.0105 3.56324C43.1795 3.7522 43.3355 3.95423 43.476 4.16578C43.757 4.59485 43.975 5.06483 44.125 5.55652C44.276 6.05445 44.358 6.57447 44.373 7.09266C44.252 17.0696 44.154 27.0466 44.08 37.0252C44.074 37.1851 44.0601 37.3451 44.039 37.5037C44.018 37.6647 43.991 37.8236 43.9569 37.9813C43.9239 38.1403 43.8839 38.2983 43.8358 38.4537C43.7888 38.6097 43.7349 38.7637 43.675 38.9157C43.484 39.3908 43.228 39.8407 42.9172 40.2495C42.6032 40.6605 42.2352 41.0286 41.8244 41.3395C41.4154 41.6495 40.9624 41.9036 40.4838 42.0906C40.0098 42.2755 39.5098 42.3955 39.0063 42.4435C31.0073 42.9535 22.9843 42.9535 14.9849 42.4436C14.6529 42.4116 14.3229 42.3477 14.0024 42.2535C13.6794 42.1596 13.3654 42.0346 13.0632 41.882C12.4602 41.575 11.9092 41.1569 11.4476 40.6577C10.9866 40.1607 10.6126 39.5817 10.349 38.9596C10.219 38.6516 10.115 38.3325 10.0411 38.0056C9.96912 37.6836 9.92407 37.3546 9.91113 37.0245" stroke="#16215B" stroke-width="0.283" stroke-miterlimit="10"/>
<rect x="12.6855" y="5.52832" width="28.63" height="34.31" rx="1.43" stroke="#00FFFF" stroke-width="0.28"/>
<path d="M42.9399 36.5841C42.9578 31.7322 42.9778 26.8792 43.0009 22.0272C43.0219 17.1742 43.0469 12.3221 43.0759 7.46912C43.0767 7.32446 43.0717 7.18042 43.0596 7.03748C43.0497 6.89441 43.0317 6.75146 43.0076 6.61047C42.9606 6.32837 42.8887 6.05444 42.7897 5.78943C42.7646 5.72339 42.7386 5.65747 42.7106 5.59241C42.6816 5.52637 42.6526 5.46143 42.6216 5.39844C42.5587 5.27039 42.4907 5.14746 42.4156 5.02844C42.2667 4.79041 42.0936 4.57043 41.8937 4.36646C41.6957 4.16345 41.4777 3.98645 41.2437 3.83337C41.1266 3.75745 41.0057 3.6864 40.8796 3.62244C40.8167 3.59045 40.7537 3.55945 40.6877 3.5304C40.6237 3.50037 40.5566 3.47339 40.4907 3.44739C40.2236 3.34338 39.9507 3.26843 39.6716 3.21741C39.3926 3.16638 39.1077 3.14038 38.8167 3.13745C37.8378 3.12988 36.8568 3.12183 35.8738 3.11584C34.8898 3.10889 33.9058 3.10388 32.9208 3.09888C30.9498 3.09082 28.9758 3.08691 26.9988 3.08691C26.5038 3.08691 26.0098 3.08691 25.5148 3.08691C25.0208 3.08789 24.5258 3.08887 24.0308 3.08984C23.0418 3.09192 22.0538 3.09485 21.0688 3.09888C19.0968 3.10791 17.1328 3.12085 15.1758 3.13782C15.0301 3.13892 14.8861 3.14685 14.7411 3.15991C14.5981 3.17383 14.4541 3.19287 14.3131 3.21887C14.0301 3.27087 13.7561 3.3479 13.4911 3.4519C13.4251 3.47791 13.3601 3.50488 13.2951 3.53491C13.2301 3.56384 13.1651 3.59583 13.1021 3.62793C12.9751 3.69385 12.8541 3.76489 12.7361 3.8429C12.5011 3.99683 12.2841 4.1759 12.0861 4.37988C12.0371 4.42993 11.9891 4.48291 11.9431 4.53589C11.8971 4.58887 11.8521 4.64282 11.8091 4.69885C11.7231 4.80884 11.6431 4.92383 11.5691 5.04187C11.4951 5.16089 11.4281 5.28394 11.3651 5.40991C11.3351 5.4729 11.3061 5.53687 11.2781 5.60291C11.2501 5.66785 11.2241 5.73486 11.1991 5.80188C11.1011 6.06787 11.0301 6.34082 10.9841 6.6189C10.9381 6.89685 10.9151 7.18091 10.9171 7.46985C10.9454 12.3224 10.9714 17.1744 10.9935 22.0275C11.0165 26.8794 11.0355 31.7324 11.0535 36.5845C11.0541 36.8712 11.0781 37.1552 11.1281 37.4392C11.1411 37.5101 11.1552 37.5812 11.1701 37.6511C11.1862 37.7212 11.2021 37.7911 11.2211 37.8601C11.2581 37.9991 11.3011 38.1351 11.3502 38.2701C11.3991 38.4052 11.4531 38.5382 11.5151 38.6682C11.5461 38.7332 11.5771 38.7982 11.6121 38.8622C11.6461 38.9261 11.6812 38.9901 11.7181 39.0532C11.8651 39.3032 12.0331 39.5361 12.2241 39.7532C12.3192 39.8612 12.4201 39.9652 12.5272 40.0652C12.5791 40.1151 12.6342 40.1632 12.6901 40.2102C12.7451 40.2572 12.8011 40.3021 12.8591 40.3462C13.0881 40.5211 13.3322 40.6721 13.5921 40.7982C13.6571 40.8302 13.7231 40.8601 13.7902 40.8882C13.8571 40.9171 13.9241 40.9431 13.9921 40.9681C14.1281 41.0182 14.2651 41.0612 14.4041 41.0972C14.6801 41.1692 14.9631 41.2131 15.2512 41.2312C16.2243 41.2916 17.1993 41.3446 18.1773 41.3896C19.1533 41.4357 20.1323 41.4727 21.1113 41.5027C23.0683 41.5636 25.0293 41.5936 26.9943 41.5936C27.4853 41.5936 27.9773 41.5917 28.4683 41.5876C28.9593 41.5846 29.4513 41.5786 29.9423 41.5707C30.9253 41.5557 31.9063 41.5336 32.8863 41.5027C34.8443 41.4426 36.7963 41.3527 38.7416 41.2316C38.8866 41.2227 39.0296 41.2067 39.1726 41.1846C39.2436 41.1726 39.3146 41.1597 39.3866 41.1447C39.4566 41.1296 39.5276 41.1136 39.5966 41.0946C39.8766 41.0226 40.1456 40.9226 40.4046 40.7957C40.4706 40.7646 40.5336 40.7316 40.5966 40.6967C40.6606 40.6616 40.7236 40.6246 40.7856 40.5856C40.9096 40.5096 41.0286 40.4266 41.1426 40.3386C41.3726 40.1636 41.5826 39.9667 41.7736 39.7487C41.8216 39.6936 41.8676 39.6376 41.9136 39.5807C41.9586 39.5237 42.0026 39.4656 42.0446 39.4066C42.1296 39.2897 42.2076 39.1686 42.2796 39.0447C42.4256 38.7966 42.5466 38.5376 42.6446 38.2656C42.6696 38.1976 42.6926 38.1287 42.7146 38.0596C42.7356 37.9906 42.7556 37.9216 42.7736 37.8527C42.8106 37.7136 42.8416 37.5746 42.8656 37.4346C42.9146 37.1537 42.9386 36.8706 42.9399 36.5841Z" stroke="#FF00FF" stroke-width="0.283465" stroke-miterlimit="10" stroke-linecap="round" stroke-linejoin="round"/>
<path d="M22.3086 24.87L20.2578 19.3035C20.0821 18.8299 19.7989 18.6248 19.335 18.6248C18.8711 18.6248 18.5928 18.8396 18.4219 19.3084L16.376 24.87C16.3174 25.0214 16.293 25.1581 16.293 25.2557C16.293 25.6121 16.542 25.8368 16.9278 25.8368C17.255 25.8368 17.4405 25.6757 17.5577 25.2948L17.9885 24.0522C18.0083 23.9952 18.062 23.9569 18.1224 23.9569H20.5523C20.6128 23.9569 20.6666 23.9953 20.6863 24.0525L21.1173 25.3046C21.2296 25.6806 21.42 25.8368 21.7618 25.8368C22.128 25.8368 22.3917 25.5975 22.3917 25.2557C22.3917 25.1434 22.3673 25.0311 22.3087 24.87H22.3086ZM18.3806 22.7747L19.1935 20.3078C19.2362 20.1782 19.4195 20.1779 19.4626 20.3074L20.2836 22.7743C20.3141 22.8661 20.2458 22.9608 20.1491 22.9608H18.5152C18.4187 22.9608 18.3504 22.8664 18.3806 22.7747Z" fill="black"/>
<path d="M24.0323 25.8514C23.6759 25.8514 23.4219 25.6219 23.4219 25.2117V19.2497C23.4219 18.8395 23.6758 18.61 24.0323 18.61C24.3888 18.61 24.6378 18.8395 24.6378 19.2497V25.2117C24.6378 25.6219 24.3888 25.8514 24.0323 25.8514Z" fill="black"/>
<path d="M26.3027 24.4744V21.6571C26.3027 21.5788 26.2392 21.5154 26.161 21.5154H25.9756C25.6729 21.5154 25.4873 21.3347 25.4873 21.0418C25.4873 20.7489 25.6728 20.5779 25.9756 20.5779H26.161C26.2393 20.5779 26.3027 20.5144 26.3027 20.4362V19.8894C26.3027 19.4988 26.5371 19.2546 26.9131 19.2546C27.2891 19.2546 27.5186 19.4987 27.5186 19.8894V20.4362C27.5186 20.5145 27.5821 20.5779 27.6603 20.5779H28.0801C28.3828 20.5779 28.5684 20.7537 28.5684 21.0418C28.5684 21.3299 28.3829 21.5154 28.0801 21.5154H27.6603C27.582 21.5154 27.5186 21.5789 27.5186 21.6571V24.2107C27.5186 24.6013 27.6553 24.7722 28.0069 24.8015L28.0948 24.8113C28.4171 24.8406 28.5831 24.9773 28.5831 25.2605C28.5831 25.6169 28.2706 25.8074 27.714 25.8074H27.6652C26.7619 25.8074 26.3029 25.3582 26.3029 24.4744H26.3027Z" fill="black"/>
</svg>
