<svg width="81" height="54" viewBox="0 0 81 54" fill="none" xmlns="http://www.w3.org/2000/svg">
<path d="M71.0066 37.0028C71.0846 27.0808 71.1916 17.1588 71.3296 7.23671C71.3196 6.87971 71.2786 6.52272 71.2033 6.17207C71.1303 5.82307 71.0243 5.48207 70.8845 5.15388C70.7465 4.82887 70.5755 4.51692 70.3758 4.22517C70.1758 3.9352 69.9478 3.66518 69.6946 3.42085C69.4416 3.17787 69.1646 2.96083 68.8691 2.77419C68.5731 2.58717 68.2581 2.42921 67.9323 2.30348C67.6063 2.17751 67.2673 2.08156 66.9235 2.01747C66.5775 1.95351 66.2275 1.91945 65.8743 1.91591C48.9603 1.82497 32.0453 1.82497 15.1315 1.91554C14.7935 1.92165 14.4565 1.95461 14.1239 2.01491C13.7919 2.07387 13.4639 2.15981 13.1493 2.27443C12.9003 2.36745 12.6573 2.47841 12.4243 2.605C12.1923 2.73305 11.9683 2.87807 11.7566 3.03871C11.5456 3.20064 11.3466 3.37862 11.1627 3.57118C10.9777 3.76521 10.8097 3.9742 10.6584 4.19405C10.5064 4.41499 10.3714 4.64803 10.2536 4.8885C10.1356 5.13155 10.0356 5.38155 9.95221 5.63875C9.78619 6.15474 9.69119 6.69673 9.67749 7.23628C9.81149 17.1583 9.91852 27.0803 9.99991 37.0014C10.0249 37.6633 10.1749 38.3273 10.4398 38.9409C10.7088 39.5659 11.0948 40.1389 11.5707 40.6232C12.0497 41.1112 12.6177 41.5102 13.2406 41.796C13.8576 42.081 14.5286 42.254 15.2024 42.3052C23.6314 42.6482 32.0664 42.8192 40.5032 42.819C48.9392 42.819 57.3742 42.648 65.8041 42.3048C66.4781 42.2537 67.1481 42.0808 67.766 41.7969C68.388 41.5099 68.957 41.1109 69.4359 40.6233C69.9109 40.1383 70.2969 39.5663 70.5673 38.9408C70.8303 38.3278 70.9823 37.6638 71.0063 37.0008" stroke="#16215B" stroke-width="0.283" stroke-miterlimit="10"/>
<path d="M11.2583 38.7131V6.44019C11.2583 5.26575 12.2093 4.31372 13.3843 4.31372H16.9273H64.1312H67.6743C68.8483 4.31372 69.8003 5.26575 69.8003 6.4397V38.7127C69.8003 39.8871 68.8483 40.8391 67.6743 40.8391L13.3843 40.8392C12.2093 40.8392 11.2583 39.8871 11.2583 38.7131Z" stroke="#00FFFF" stroke-width="0.28" stroke-miterlimit="10"/>
<path d="M65.6807 41.1328C48.9367 41.8178 32.0697 41.8178 15.3267 41.1328C15.0306 41.1201 14.7386 41.0831 14.4496 41.0181C14.3046 40.9861 14.1626 40.9471 14.0226 40.9021C13.8836 40.8561 13.7456 40.8051 13.6106 40.746C13.4756 40.6881 13.3446 40.6231 13.2156 40.5521C13.1506 40.5161 13.0866 40.478 13.0226 40.4391C12.9606 40.4001 12.8986 40.3601 12.8386 40.3181C12.5966 40.1501 12.3726 39.9611 12.1696 39.7491C12.1186 39.6961 12.0686 39.642 12.0196 39.5861C11.9716 39.5311 11.9246 39.4731 11.8786 39.4151C11.7876 39.3001 11.7026 39.1801 11.6246 39.0571C11.4686 38.8111 11.3376 38.5521 11.2306 38.28C11.2046 38.2111 11.1796 38.142 11.1566 38.0731C11.1336 38.0031 11.1116 37.9331 11.0916 37.8631C11.0526 37.7231 11.0186 37.582 10.9926 37.4401C10.9396 37.1561 10.9136 36.8691 10.9126 36.577C10.8965 31.7905 10.8785 27.0025 10.8585 22.2155C10.8385 17.4285 10.8155 12.6415 10.7905 7.85347C10.7817 7.69789 10.7757 7.54189 10.7767 7.38692C10.7777 7.23091 10.7867 7.07692 10.8037 6.92293C10.8107 6.8459 10.8217 6.76888 10.8337 6.69191C10.8457 6.61488 10.8597 6.53889 10.8757 6.46193C10.9077 6.31093 10.9477 6.16188 10.9957 6.01491C11.0427 5.86891 11.0977 5.72591 11.1627 5.58492C11.1937 5.51491 11.2277 5.44588 11.2637 5.37691C11.3007 5.30891 11.3387 5.24092 11.3787 5.1739C11.5377 4.90889 11.7247 4.66689 11.9397 4.44691C11.9937 4.39192 12.0497 4.33791 12.1067 4.28688C12.1357 4.2599 12.1647 4.23488 12.1937 4.20888C12.2237 4.18391 12.2537 4.15889 12.2837 4.13393C12.4047 4.03688 12.5307 3.94588 12.6607 3.86293C12.9207 3.69691 13.1987 3.55989 13.4927 3.44893C13.7867 3.33888 14.0877 3.2599 14.3927 3.20692C14.6987 3.15388 15.0107 3.12691 15.3257 3.12587C32.0702 3.03389 48.9372 3.03389 65.6802 3.12587C65.9963 3.12697 66.3083 3.15395 66.6133 3.20692C66.9193 3.25996 67.2203 3.33894 67.5143 3.44893C67.8083 3.55995 68.0853 3.69698 68.3463 3.86293C68.4763 3.94594 68.6013 4.03596 68.7223 4.13393C68.7523 4.15895 68.7823 4.18398 68.8123 4.20894C68.8413 4.23396 68.8703 4.25996 68.9003 4.28596C68.9563 4.33797 69.0123 4.39192 69.0663 4.44698C69.2803 4.66597 69.4683 4.90895 69.6283 5.17397C69.6683 5.23994 69.7063 5.30794 69.7423 5.37697C69.7793 5.44496 69.8123 5.51497 69.8443 5.58498C69.9073 5.72493 69.9633 5.86897 70.0113 6.01497C70.0593 6.16096 70.0993 6.30995 70.1303 6.46193C70.1473 6.53798 70.1603 6.61494 70.1733 6.69093C70.1853 6.76796 70.1953 6.84492 70.2033 6.92195C70.2203 7.07594 70.2283 7.23097 70.2303 7.38594C70.2313 7.54097 70.2253 7.69698 70.2163 7.85292C70.1912 12.6401 70.1682 17.4281 70.1482 22.215C70.1272 27.0021 70.1102 31.7901 70.0942 36.5768C70.0932 36.8688 70.0662 37.1588 70.0132 37.4458C69.9862 37.5908 69.9522 37.7328 69.9122 37.8718C69.8722 38.0118 69.8262 38.1498 69.7732 38.2848C69.7202 38.4198 69.6602 38.5528 69.5942 38.6838C69.5612 38.7498 69.5262 38.8148 69.4902 38.8788C69.4522 38.9428 69.4142 39.0058 69.3752 39.0668C69.2172 39.3138 69.0362 39.5428 68.8322 39.7548C68.7822 39.8068 68.7292 39.8588 68.6752 39.9088C68.6212 39.9598 68.5662 40.0088 68.5092 40.0568C68.3962 40.1528 68.2802 40.2418 68.1592 40.3238C67.9172 40.4898 67.6612 40.6318 67.3902 40.7488C67.3232 40.7778 67.2532 40.8058 67.1842 40.8318C67.1152 40.8578 67.0452 40.8818 66.9752 40.9038C66.8352 40.9498 66.6942 40.9878 66.5512 41.0198C66.2662 41.0828 65.9752 41.1208 65.6807 41.1328Z" stroke="#FF00FF" stroke-width="0.283465" stroke-miterlimit="10" stroke-linecap="round" stroke-linejoin="round"/>
<path d="M72.7897 46.9191V52.01H72.1732V47.5654H72.1434L70.9005 48.3907V47.7643L72.1732 46.9191H72.7897ZM74.3905 52.0498C74.2679 52.0498 74.1626 52.0059 74.0748 51.918C73.987 51.8302 73.9431 51.725 73.9431 51.6023C73.9431 51.4797 73.987 51.3745 74.0748 51.2866C74.1626 51.1988 74.2679 51.1549 74.3905 51.1549C74.5131 51.1549 74.6184 51.1988 74.7062 51.2866C74.794 51.3745 74.838 51.4797 74.838 51.6023C74.838 51.6835 74.8172 51.7581 74.7758 51.8261C74.736 51.894 74.6822 51.9487 74.6142 51.9901C74.5479 52.0299 74.4734 52.0498 74.3905 52.0498ZM77.3691 52.0796C77.0775 52.0796 76.8148 52.0216 76.5811 51.9056C76.3475 51.7896 76.1602 51.6305 76.0193 51.4283C75.8785 51.2262 75.8014 50.9958 75.7882 50.7373H76.3847C76.4079 50.9676 76.5123 51.1582 76.698 51.309C76.8852 51.4582 77.1089 51.5327 77.3691 51.5327C77.5779 51.5327 77.7635 51.4838 77.9259 51.3861C78.09 51.2883 78.2184 51.1541 78.3112 50.9834C78.4057 50.811 78.4529 50.6163 78.4529 50.3992C78.4529 50.1771 78.404 49.9791 78.3063 49.8051C78.2101 49.6294 78.0776 49.4911 77.9085 49.39C77.7395 49.2889 77.5464 49.2375 77.3293 49.2359C77.1736 49.2342 77.0136 49.2582 76.8496 49.308C76.6855 49.356 76.5505 49.4182 76.4444 49.4944L75.8677 49.4248L76.1759 46.9191H78.8208V47.466H76.693L76.514 48.9674H76.5438C76.6482 48.8845 76.7792 48.8158 76.9366 48.7611C77.094 48.7064 77.2581 48.679 77.4288 48.679C77.7403 48.679 78.0179 48.7536 78.2615 48.9028C78.5068 49.0503 78.699 49.2524 78.8382 49.5093C78.9791 49.7662 79.0495 50.0595 79.0495 50.3893C79.0495 50.7141 78.9766 51.0041 78.8308 51.2593C78.6866 51.5129 78.4877 51.7134 78.2342 51.8609C77.9806 52.0067 77.6923 52.0796 77.3691 52.0796Z" fill="#0000FF"/>
<path fill-rule="evenodd" clip-rule="evenodd" d="M16.0151 15.026C16.0151 15.4181 16.333 15.736 16.7251 15.736H20.0002C20.6066 15.736 21.174 15.4372 21.5172 14.9373L23.9738 11.3583C24.0521 11.2442 24.1817 11.176 24.3201 11.176H24.97C25.3622 11.176 25.68 10.8581 25.68 10.466C25.68 10.0739 25.3622 9.75598 24.97 9.75598H24.3201C23.7137 9.75598 23.1462 10.0548 22.8031 10.5547L20.3465 14.1337C20.2681 14.2478 20.1386 14.316 20.0002 14.316H16.7251C16.333 14.316 16.0151 14.6339 16.0151 15.026ZM24.2651 15.026C24.2651 15.4181 24.583 15.736 24.9751 15.736H29.2751C29.6672 15.736 29.9851 15.4181 29.9851 15.026C29.9851 14.6339 29.6672 14.316 29.2751 14.316H24.9751C24.583 14.316 24.2651 14.6339 24.2651 15.026ZM27.835 10.466C27.835 10.8581 27.5172 11.176 27.125 11.176C26.7329 11.176 26.415 10.8581 26.415 10.466C26.415 10.0739 26.7329 9.75598 27.125 9.75598C27.5172 9.75598 27.835 10.0739 27.835 10.466ZM29.9802 10.466C29.9802 10.8581 29.6623 11.176 29.2702 11.176C28.8781 11.176 28.5602 10.8581 28.5602 10.466C28.5602 10.0739 28.8781 9.75598 29.2702 9.75598C29.6623 9.75598 29.9802 10.0739 29.9802 10.466Z" fill="black"/>
<path d="M34.8489 35.8671C32.7932 35.8671 31.5139 34.4706 31.5139 32.2001C31.5139 29.9296 32.7883 28.5868 34.8245 28.5868C36.1526 28.5868 37.2122 29.2313 37.6028 30.1396C37.676 30.3056 37.6956 30.4326 37.6956 30.5595C37.6956 30.8915 37.4759 31.1113 37.139 31.1113C36.8656 31.1113 36.6751 30.9892 36.5189 30.706C36.1673 30.0078 35.596 29.6562 34.8294 29.6562C33.5599 29.6562 32.803 30.5986 32.803 32.1855C32.803 33.7724 33.594 34.7978 34.8636 34.7978C35.8451 34.7978 36.6209 34.2207 36.6852 33.1713C36.6902 33.0896 36.6256 33.0205 36.5437 33.0205H35.4397C35.1272 33.0205 34.9124 32.835 34.9124 32.5371C34.9124 32.2392 35.1272 32.0586 35.4397 32.0586H37.2952C37.6858 32.0586 37.9202 32.3027 37.9202 32.7129V32.8594C37.9202 34.6905 36.7971 35.8672 34.8489 35.8672V35.8671Z" fill="black"/>
<path d="M39.6338 35.8477C39.2676 35.8477 39.0283 35.6084 39.0283 35.208V31.0869C39.0283 30.706 39.2627 30.4717 39.6094 30.4717C39.9561 30.4717 40.094 30.7042 40.1392 30.8202C40.1456 30.8365 40.1511 30.8535 40.1559 30.8707C40.185 30.9748 40.3169 31.007 40.3929 30.9302C40.5894 30.7318 40.9142 30.4863 41.3184 30.4863C41.5088 30.4863 41.6553 30.5351 41.7481 30.6181C41.8604 30.7109 41.919 30.8574 41.919 31.0576C41.919 31.2578 41.8604 31.3896 41.7383 31.4873C41.6211 31.5898 41.4404 31.6436 41.2012 31.6484C40.5078 31.6533 40.2442 32.0879 40.2442 32.7177V35.208C40.2442 35.6084 40.0001 35.8477 39.6338 35.8477Z" fill="black"/>
<path d="M22.3056 34.8515L20.2548 29.285C20.0791 28.8114 19.7959 28.6063 19.332 28.6063C18.8681 28.6063 18.5898 28.8211 18.4189 29.2899L16.373 34.8515C16.3144 35.0029 16.29 35.1396 16.29 35.2372C16.29 35.5936 16.539 35.8183 16.9248 35.8183C17.252 35.8183 17.4375 35.6572 17.5547 35.2763L17.9855 34.0337C18.0053 33.9767 18.059 33.9384 18.1194 33.9384H20.5493C20.6098 33.9384 20.6636 33.9768 20.6833 34.034L21.1143 35.2861C21.2266 35.6621 21.417 35.8183 21.7588 35.8183C22.125 35.8183 22.3887 35.579 22.3887 35.2372C22.3887 35.1249 22.3643 35.0126 22.3057 34.8515H22.3056ZM18.3776 32.7562L19.1905 30.2893C19.2332 30.1597 19.4165 30.1594 19.4596 30.2889L20.2806 32.7558C20.3111 32.8476 20.2428 32.9423 20.1461 32.9423H18.5122C18.4157 32.9423 18.3474 32.8479 18.3776 32.7562Z" fill="black"/>
<path d="M24.0291 35.833C23.6727 35.833 23.4187 35.6035 23.4187 35.1933V29.2313C23.4187 28.8211 23.6726 28.5916 24.0291 28.5916C24.3856 28.5916 24.6346 28.8211 24.6346 29.2313V35.1933C24.6346 35.6035 24.3856 35.833 24.0291 35.833Z" fill="black"/>
<path d="M26.3 34.456V31.6387C26.3 31.5604 26.2365 31.497 26.1583 31.497H25.9729C25.6702 31.497 25.4846 31.3163 25.4846 31.0234C25.4846 30.7305 25.6701 30.5595 25.9729 30.5595H26.1583C26.2366 30.5595 26.3 30.496 26.3 30.4178V29.871C26.3 29.4804 26.5344 29.2362 26.9104 29.2362C27.2864 29.2362 27.5159 29.4803 27.5159 29.871V30.4178C27.5159 30.4961 27.5794 30.5595 27.6576 30.5595H28.0774C28.3801 30.5595 28.5657 30.7353 28.5657 31.0234C28.5657 31.3115 28.3802 31.497 28.0774 31.497H27.6576C27.5793 31.497 27.5159 31.5605 27.5159 31.6387V34.1923C27.5159 34.5829 27.6526 34.7538 28.0042 34.7831L28.0921 34.7929C28.4144 34.8222 28.5804 34.9589 28.5804 35.2421C28.5804 35.5985 28.2679 35.789 27.7113 35.789H27.6625C26.7592 35.789 26.3002 35.3398 26.3002 34.456H26.3Z" fill="black"/>
</svg>
