<svg width="56" height="54" viewBox="0 0 56 54" fill="none" xmlns="http://www.w3.org/2000/svg">
<rect x="2.3501" y="1.84998" width="50.3" height="50.3" rx="3" stroke="#16215B" stroke-width="0.28"/>
<path d="M10.4131 37.0476C10.3351 27.0607 10.2361 17.0726 10.1191 7.0846L10.1192 7.08216C10.1232 6.91614 10.1362 6.75013 10.1563 6.58399C10.1763 6.41895 10.2023 6.25501 10.2355 6.09156C10.2675 5.92957 10.3065 5.76856 10.3527 5.60975C10.3997 5.45179 10.4517 5.29578 10.5115 5.14161C10.6985 4.66761 10.9535 4.21668 11.27 3.81434C11.583 3.41736 11.956 3.06837 12.3725 2.78394C12.7875 2.50196 13.2465 2.28394 13.7258 2.13697C14.2078 1.98987 14.7118 1.91395 15.2141 1.90662C19.3081 1.87171 23.4021 1.85462 27.4963 1.85499C31.5893 1.85499 35.6833 1.87195 39.7776 1.90723C39.9396 1.91016 40.1016 1.92115 40.2635 1.93775C40.5035 1.96375 40.7435 2.00477 40.9799 2.06153C41.2139 2.11854 41.4449 2.19044 41.6697 2.27955C41.9037 2.37256 42.1287 2.48353 42.3449 2.61072C42.562 2.73865 42.7689 2.8827 42.9627 3.04163C43.1577 3.20167 43.3417 3.37671 43.5105 3.56324C43.6795 3.7522 43.8355 3.95423 43.976 4.16578C44.257 4.59485 44.475 5.06483 44.625 5.55652C44.776 6.05445 44.858 6.57447 44.873 7.09266C44.752 17.0696 44.654 27.0466 44.58 37.0252C44.574 37.1851 44.5601 37.3451 44.539 37.5037C44.518 37.6647 44.491 37.8236 44.4569 37.9813C44.4239 38.1403 44.3839 38.2983 44.3358 38.4537C44.2888 38.6097 44.2349 38.7637 44.175 38.9157C43.984 39.3908 43.728 39.8407 43.4172 40.2495C43.1032 40.6605 42.7352 41.0286 42.3244 41.3395C41.9154 41.6495 41.4624 41.9036 40.9838 42.0906C40.5098 42.2755 40.0098 42.3955 39.5063 42.4435C31.5073 42.9535 23.4843 42.9535 15.4849 42.4436C15.1529 42.4116 14.8229 42.3477 14.5024 42.2535C14.1794 42.1596 13.8654 42.0346 13.5632 41.882C12.9602 41.575 12.4092 41.1569 11.9476 40.6577C11.4866 40.1607 11.1126 39.5817 10.849 38.9596C10.719 38.6516 10.615 38.3325 10.5411 38.0056C10.4691 37.6836 10.4241 37.3546 10.4111 37.0245" stroke="#16215B" stroke-width="0.283" stroke-miterlimit="10"/>
<rect x="13.1855" y="5.52832" width="28.63" height="34.31" rx="1.43" stroke="#00FFFF" stroke-width="0.28"/>
<path d="M43.4399 36.5841C43.4578 31.7322 43.4778 26.8792 43.5009 22.0272C43.5219 17.1742 43.5469 12.3221 43.5759 7.46912C43.5767 7.32446 43.5717 7.18042 43.5596 7.03748C43.5497 6.89441 43.5317 6.75146 43.5076 6.61047C43.4606 6.32837 43.3887 6.05444 43.2897 5.78943C43.2646 5.72339 43.2386 5.65747 43.2106 5.59241C43.1816 5.52637 43.1526 5.46143 43.1216 5.39844C43.0587 5.27039 42.9907 5.14746 42.9156 5.02844C42.7667 4.79041 42.5936 4.57043 42.3937 4.36646C42.1957 4.16345 41.9777 3.98645 41.7437 3.83337C41.6266 3.75745 41.5057 3.6864 41.3796 3.62244C41.3167 3.59045 41.2537 3.55945 41.1877 3.5304C41.1237 3.50037 41.0566 3.47339 40.9907 3.44739C40.7236 3.34338 40.4507 3.26843 40.1716 3.21741C39.8926 3.16638 39.6077 3.14038 39.3167 3.13745C38.3378 3.12988 37.3568 3.12183 36.3738 3.11584C35.3898 3.10889 34.4058 3.10388 33.4208 3.09888C31.4498 3.09082 29.4758 3.08691 27.4988 3.08691C27.0038 3.08691 26.5098 3.08691 26.0148 3.08691C25.5208 3.08789 25.0258 3.08887 24.5308 3.08984C23.5418 3.09192 22.5538 3.09485 21.5688 3.09888C19.5968 3.10791 17.6328 3.12085 15.6758 3.13782C15.5301 3.13892 15.3861 3.14685 15.2411 3.15991C15.0981 3.17383 14.9541 3.19287 14.8131 3.21887C14.5301 3.27087 14.2561 3.3479 13.9911 3.4519C13.9251 3.47791 13.8601 3.50488 13.7951 3.53491C13.7301 3.56384 13.6651 3.59583 13.6021 3.62793C13.4751 3.69385 13.3541 3.76489 13.2361 3.8429C13.0011 3.99683 12.7841 4.1759 12.5861 4.37988C12.5371 4.42993 12.4891 4.48291 12.4431 4.53589C12.3971 4.58887 12.3521 4.64282 12.3091 4.69885C12.2231 4.80884 12.1431 4.92383 12.0691 5.04187C11.9951 5.16089 11.9281 5.28394 11.8651 5.40991C11.8351 5.4729 11.8061 5.53687 11.7781 5.60291C11.7501 5.66785 11.7241 5.73486 11.6991 5.80188C11.6011 6.06787 11.5301 6.34082 11.4841 6.6189C11.4381 6.89685 11.4151 7.18091 11.4171 7.46985C11.4454 12.3224 11.4714 17.1744 11.4935 22.0275C11.5165 26.8794 11.5355 31.7324 11.5535 36.5845C11.5541 36.8712 11.5781 37.1552 11.6281 37.4392C11.6411 37.5101 11.6552 37.5812 11.6701 37.6511C11.6862 37.7212 11.7021 37.7911 11.7211 37.8601C11.7581 37.9991 11.8011 38.1351 11.8502 38.2701C11.8991 38.4052 11.9531 38.5382 12.0151 38.6682C12.0461 38.7332 12.0771 38.7982 12.1121 38.8622C12.1461 38.9261 12.1812 38.9901 12.2181 39.0532C12.3651 39.3032 12.5331 39.5361 12.7241 39.7532C12.8192 39.8612 12.9201 39.9652 13.0272 40.0652C13.0791 40.1151 13.1342 40.1632 13.1901 40.2102C13.2451 40.2572 13.3011 40.3021 13.3591 40.3462C13.5881 40.5211 13.8322 40.6721 14.0921 40.7982C14.1571 40.8302 14.2231 40.8601 14.2902 40.8882C14.3571 40.9171 14.4241 40.9431 14.4921 40.9681C14.6281 41.0182 14.7651 41.0612 14.9041 41.0972C15.1801 41.1692 15.4631 41.2131 15.7512 41.2312C16.7243 41.2916 17.6993 41.3446 18.6773 41.3896C19.6533 41.4357 20.6323 41.4727 21.6113 41.5027C23.5683 41.5636 25.5293 41.5936 27.4943 41.5936C27.9853 41.5936 28.4773 41.5917 28.9683 41.5876C29.4593 41.5846 29.9513 41.5786 30.4423 41.5707C31.4253 41.5557 32.4063 41.5336 33.3863 41.5027C35.3443 41.4426 37.2963 41.3527 39.2416 41.2316C39.3866 41.2227 39.5296 41.2067 39.6726 41.1846C39.7436 41.1726 39.8146 41.1597 39.8866 41.1447C39.9566 41.1296 40.0276 41.1136 40.0966 41.0946C40.3766 41.0226 40.6456 40.9226 40.9046 40.7957C40.9706 40.7646 41.0336 40.7316 41.0966 40.6967C41.1606 40.6616 41.2236 40.6246 41.2856 40.5856C41.4096 40.5096 41.5286 40.4266 41.6426 40.3386C41.8726 40.1636 42.0826 39.9667 42.2736 39.7487C42.3216 39.6936 42.3676 39.6376 42.4136 39.5807C42.4586 39.5237 42.5026 39.4656 42.5446 39.4066C42.6296 39.2897 42.7076 39.1686 42.7796 39.0447C42.9256 38.7966 43.0466 38.5376 43.1446 38.2656C43.1696 38.1976 43.1926 38.1287 43.2146 38.0596C43.2356 37.9906 43.2556 37.9216 43.2736 37.8527C43.3106 37.7136 43.3416 37.5746 43.3656 37.4346C43.4146 37.1537 43.4386 36.8706 43.4399 36.5841Z" stroke="#FF00FF" stroke-width="0.283465" stroke-miterlimit="10" stroke-linecap="round" stroke-linejoin="round"/>
<path fill-rule="evenodd" clip-rule="evenodd" d="M16.5151 15.026C16.5151 15.4181 16.833 15.736 17.2251 15.736H20.5002C21.1066 15.736 21.674 15.4372 22.0172 14.9373L24.4738 11.3583C24.5521 11.2442 24.6817 11.176 24.8201 11.176H25.47C25.8622 11.176 26.18 10.8581 26.18 10.466C26.18 10.0739 25.8622 9.75598 25.47 9.75598H24.8201C24.2137 9.75598 23.6462 10.0548 23.3031 10.5547L20.8465 14.1337C20.7681 14.2478 20.6386 14.316 20.5002 14.316H17.2251C16.833 14.316 16.5151 14.6339 16.5151 15.026ZM24.7651 15.026C24.7651 15.4181 25.083 15.736 25.4751 15.736H29.7751C30.1672 15.736 30.4851 15.4181 30.4851 15.026C30.4851 14.6339 30.1672 14.316 29.7751 14.316H25.4751C25.083 14.316 24.7651 14.6339 24.7651 15.026ZM28.335 10.466C28.335 10.8581 28.0172 11.176 27.625 11.176C27.2329 11.176 26.915 10.8581 26.915 10.466C26.915 10.0739 27.2329 9.75598 27.625 9.75598C28.0172 9.75598 28.335 10.0739 28.335 10.466ZM30.4802 10.466C30.4802 10.8581 30.1623 11.176 29.7702 11.176C29.3781 11.176 29.0602 10.8581 29.0602 10.466C29.0602 10.0739 29.3781 9.75598 29.7702 9.75598C30.1623 9.75598 30.4802 10.0739 30.4802 10.466Z" fill="black"/>
<path d="M33.2442 35.8671C31.1885 35.8671 29.9092 34.4706 29.9092 32.2001C29.9092 29.9296 31.1836 28.5868 33.2198 28.5868C34.5479 28.5868 35.6075 29.2313 35.9981 30.1396C36.0713 30.3056 36.0909 30.4326 36.0909 30.5595C36.0909 30.8915 35.8712 31.1113 35.5343 31.1113C35.2609 31.1113 35.0704 30.9892 34.9142 30.706C34.5626 30.0078 33.9913 29.6562 33.2247 29.6562C31.9552 29.6562 31.1983 30.5986 31.1983 32.1855C31.1983 33.7724 31.9893 34.7978 33.2589 34.7978C34.2404 34.7978 35.0162 34.2207 35.0805 33.1713C35.0855 33.0896 35.0209 33.0205 34.939 33.0205H33.835C33.5225 33.0205 33.3077 32.835 33.3077 32.5371C33.3077 32.2392 33.5225 32.0586 33.835 32.0586H35.6905C36.0811 32.0586 36.3155 32.3027 36.3155 32.7129V32.8594C36.3155 34.6905 35.1924 35.8672 33.2442 35.8672V35.8671Z" fill="black"/>
<path d="M37.4229 35.2078V31.0856C37.4229 30.7046 37.6573 30.4702 38.0041 30.4702C38.2377 30.4702 38.4243 30.5828 38.5169 30.7787C38.5188 30.7827 38.5252 30.7988 38.5337 30.8206C38.5678 30.9081 38.6761 30.9391 38.751 30.8824C38.9534 30.7293 39.3357 30.4849 39.7136 30.4849C39.9041 30.4849 40.0506 30.5337 40.1434 30.6168C40.2557 30.7096 40.3143 30.8561 40.3143 31.0564C40.3143 31.2567 40.2557 31.3885 40.1336 31.4862C40.0164 31.5888 39.8357 31.6425 39.5963 31.6474C38.9027 31.6523 38.639 32.087 38.639 32.717V35.2079C38.639 35.6084 38.3948 35.8477 38.0285 35.8477C37.6622 35.8477 37.4229 35.6083 37.4229 35.2078Z" fill="black"/>
<path d="M20.7011 34.8516L18.6503 29.2851C18.4746 28.8115 18.1914 28.6064 17.7275 28.6064C17.2636 28.6064 16.9853 28.8212 16.8144 29.29L14.7685 34.8516C14.7099 35.003 14.6855 35.1397 14.6855 35.2373C14.6855 35.5937 14.9345 35.8184 15.3203 35.8184C15.6475 35.8184 15.833 35.6573 15.9502 35.2764L16.381 34.0338C16.4008 33.9768 16.4545 33.9385 16.5149 33.9385H18.9448C19.0053 33.9385 19.0591 33.9769 19.0788 34.0341L19.5098 35.2862C19.6221 35.6622 19.8125 35.8184 20.1543 35.8184C20.5205 35.8184 20.7842 35.5791 20.7842 35.2373C20.7842 35.125 20.7598 35.0127 20.7012 34.8516H20.7011ZM16.7731 32.7563L17.586 30.2894C17.6287 30.1598 17.812 30.1595 17.8551 30.289L18.6761 32.7559C18.7066 32.8477 18.6383 32.9424 18.5416 32.9424H16.9077C16.8112 32.9424 16.7429 32.848 16.7731 32.7563Z" fill="black"/>
<path d="M22.4249 35.833C22.0685 35.833 21.8145 35.6035 21.8145 35.1933V29.2313C21.8145 28.8211 22.0684 28.5916 22.4249 28.5916C22.7814 28.5916 23.0304 28.8211 23.0304 29.2313V35.1933C23.0304 35.6035 22.7814 35.833 22.4249 35.833Z" fill="black"/>
<path d="M24.6954 34.4559V31.6396C24.6954 31.5613 24.6319 31.4979 24.5537 31.4979H24.3683C24.0656 31.4979 23.8799 31.327 23.8799 31.034C23.8799 30.741 24.0654 30.575 24.3683 30.575H24.5537C24.632 30.575 24.6954 30.5115 24.6954 30.4333V29.8703C24.6954 29.4796 24.9298 29.2354 25.3059 29.2354C25.682 29.2354 25.9115 29.4795 25.9115 29.8703V30.4333C25.9115 30.5116 25.975 30.575 26.0532 30.575H26.4731C26.7758 30.575 26.9615 30.7458 26.9615 31.034C26.9615 31.3222 26.776 31.4979 26.4731 31.4979H26.0532C25.9749 31.4979 25.9115 31.5614 25.9115 31.6396V34.1922C25.9115 34.5829 26.0482 34.7538 26.3999 34.7831L26.4878 34.7929C26.8101 34.8222 26.9762 34.9589 26.9762 35.2422C26.9762 35.5986 26.6637 35.7892 26.107 35.7892H26.0582C25.1548 35.7892 24.6957 35.3399 24.6957 34.456H24.6955L24.6954 34.4559Z" fill="black"/>
</svg>
