<svg width="81" height="54" viewBox="0 0 81 54" fill="none" xmlns="http://www.w3.org/2000/svg">
<path d="M71.0066 37.0027C71.0846 27.0807 71.1916 17.1587 71.3296 7.23665C71.3196 6.87965 71.2786 6.52266 71.2033 6.17201C71.1303 5.82301 71.0243 5.48201 70.8845 5.15382C70.7465 4.82881 70.5755 4.51686 70.3758 4.22511C70.1758 3.93513 69.9478 3.66512 69.6946 3.42079C69.4416 3.17781 69.1646 2.96077 68.8691 2.77412C68.5731 2.58711 68.2581 2.42915 67.9323 2.30342C67.6063 2.17744 67.2673 2.0815 66.9235 2.01741C66.5775 1.95345 66.2275 1.91939 65.8743 1.91585C48.9603 1.82491 32.0453 1.82491 15.1315 1.91548C14.7935 1.92159 14.4565 1.95454 14.1239 2.01485C13.7919 2.07381 13.4639 2.15974 13.1493 2.27437C12.9003 2.36739 12.6573 2.47835 12.4243 2.60493C12.1923 2.73299 11.9683 2.87801 11.7566 3.03865C11.5456 3.20058 11.3466 3.37856 11.1627 3.57112C10.9777 3.76515 10.8097 3.97414 10.6584 4.19398C10.5064 4.41493 10.3714 4.64796 10.2536 4.88844C10.1356 5.13149 10.0356 5.38149 9.95221 5.63869C9.78619 6.15468 9.69119 6.69667 9.67749 7.23622C9.81149 17.1582 9.91852 27.0802 9.99991 37.0013C10.0249 37.6633 10.1749 38.3273 10.4398 38.9409C10.7088 39.5659 11.0948 40.1389 11.5707 40.6231C12.0497 41.1111 12.6177 41.5101 13.2406 41.796C13.8576 42.0809 14.5286 42.254 15.2024 42.3051C23.6314 42.6481 32.0664 42.8191 40.5032 42.819C48.9392 42.819 57.3742 42.648 65.8041 42.3047C66.4781 42.2537 67.1481 42.0807 67.766 41.7968C68.388 41.5098 68.957 41.1109 69.4359 40.6232C69.9109 40.1383 70.2969 39.5662 70.5673 38.9408C70.8303 38.3278 70.9823 37.6638 71.0063 37.0007" stroke="#16215B" stroke-width="0.283" stroke-miterlimit="10"/>
<path d="M11.2583 38.7131V6.44019C11.2583 5.26575 12.2093 4.31372 13.3843 4.31372H16.9273H64.1312H67.6743C68.8483 4.31372 69.8003 5.26575 69.8003 6.4397V38.7127C69.8003 39.8871 68.8483 40.8391 67.6743 40.8391L13.3843 40.8392C12.2093 40.8392 11.2583 39.8871 11.2583 38.7131Z" stroke="#00FFFF" stroke-width="0.28" stroke-miterlimit="10"/>
<path d="M65.6807 41.1327C48.9367 41.8178 32.0697 41.8178 15.3267 41.1327C15.0306 41.12 14.7386 41.083 14.4496 41.018C14.3046 40.986 14.1626 40.947 14.0226 40.902C13.8836 40.856 13.7456 40.805 13.6106 40.746C13.4756 40.688 13.3446 40.623 13.2156 40.552C13.1506 40.516 13.0866 40.478 13.0226 40.439C12.9606 40.4 12.8986 40.36 12.8386 40.318C12.5966 40.15 12.3726 39.961 12.1696 39.749C12.1186 39.696 12.0686 39.642 12.0196 39.586C11.9716 39.531 11.9246 39.473 11.8786 39.415C11.7876 39.3 11.7026 39.18 11.6246 39.057C11.4686 38.811 11.3376 38.552 11.2306 38.28C11.2046 38.211 11.1796 38.142 11.1566 38.073C11.1336 38.003 11.1116 37.933 11.0916 37.863C11.0526 37.723 11.0186 37.582 10.9926 37.44C10.9396 37.156 10.9136 36.869 10.9126 36.577C10.8965 31.7904 10.8785 27.0025 10.8585 22.2155C10.8385 17.4284 10.8155 12.6414 10.7905 7.85341C10.7817 7.69783 10.7757 7.54182 10.7767 7.38686C10.7777 7.23085 10.7867 7.07686 10.8037 6.92287C10.8107 6.84584 10.8217 6.76881 10.8337 6.69185C10.8457 6.61482 10.8597 6.53883 10.8757 6.46187C10.9077 6.31087 10.9477 6.16182 10.9957 6.01485C11.0427 5.86885 11.0977 5.72585 11.1627 5.58485C11.1937 5.51485 11.2277 5.44582 11.2637 5.37685C11.3007 5.30885 11.3387 5.24086 11.3787 5.17384C11.5377 4.90883 11.7247 4.66682 11.9397 4.44685C11.9937 4.39186 12.0497 4.33784 12.1067 4.28682C12.1357 4.25984 12.1647 4.23482 12.1937 4.20882C12.2237 4.18385 12.2537 4.15883 12.2837 4.13387C12.4047 4.03682 12.5307 3.94582 12.6607 3.86287C12.9207 3.69685 13.1987 3.55983 13.4927 3.44887C13.7867 3.33882 14.0877 3.25984 14.3927 3.20686C14.6987 3.15382 15.0107 3.12685 15.3257 3.12581C32.0702 3.03383 48.9372 3.03383 65.6802 3.12581C65.9963 3.12691 66.3083 3.15388 66.6133 3.20686C66.9193 3.2599 67.2203 3.33888 67.5143 3.44887C67.8083 3.55989 68.0853 3.69691 68.3463 3.86287C68.4763 3.94588 68.6013 4.0359 68.7223 4.13387C68.7523 4.15889 68.7823 4.18391 68.8123 4.20888C68.8413 4.2339 68.8703 4.2599 68.9003 4.2859C68.9563 4.33791 69.0123 4.39186 69.0663 4.44691C69.2803 4.66591 69.4683 4.90889 69.6283 5.1739C69.6683 5.23988 69.7063 5.30788 69.7423 5.37691C69.7793 5.4449 69.8123 5.51491 69.8443 5.58492C69.9073 5.72487 69.9633 5.86891 70.0113 6.01491C70.0593 6.1609 70.0993 6.30989 70.1303 6.46187C70.1473 6.53792 70.1603 6.61488 70.1733 6.69087C70.1853 6.7679 70.1953 6.84486 70.2033 6.92189C70.2203 7.07588 70.2283 7.23091 70.2303 7.38588C70.2313 7.54091 70.2253 7.69691 70.2163 7.85286C70.1912 12.64 70.1682 17.428 70.1482 22.215C70.1272 27.002 70.1102 31.79 70.0942 36.5767C70.0932 36.8687 70.0662 37.1587 70.0132 37.4458C69.9862 37.5907 69.9522 37.7327 69.9122 37.8717C69.8722 38.0117 69.8262 38.1497 69.7732 38.2847C69.7202 38.4198 69.6602 38.5527 69.5942 38.6837C69.5612 38.7497 69.5262 38.8147 69.4902 38.8787C69.4522 38.9428 69.4142 39.0058 69.3752 39.0667C69.2172 39.3137 69.0362 39.5427 68.8322 39.7547C68.7822 39.8067 68.7292 39.8587 68.6752 39.9087C68.6212 39.9597 68.5662 40.0087 68.5092 40.0567C68.3962 40.1527 68.2802 40.2417 68.1592 40.3237C67.9172 40.4898 67.6612 40.6317 67.3902 40.7487C67.3232 40.7777 67.2532 40.8057 67.1842 40.8317C67.1152 40.8577 67.0452 40.8817 66.9752 40.9038C66.8352 40.9497 66.6942 40.9877 66.5512 41.0197C66.2662 41.0827 65.9752 41.1207 65.6807 41.1327Z" stroke="#FF00FF" stroke-width="0.283465" stroke-miterlimit="10" stroke-linecap="round" stroke-linejoin="round"/>
<path d="M72.7897 46.9191V52.01H72.1732V47.5654H72.1434L70.9005 48.3907V47.7643L72.1732 46.9191H72.7897ZM74.3905 52.0498C74.2679 52.0498 74.1626 52.0059 74.0748 51.918C73.987 51.8302 73.9431 51.725 73.9431 51.6023C73.9431 51.4797 73.987 51.3745 74.0748 51.2866C74.1626 51.1988 74.2679 51.1549 74.3905 51.1549C74.5131 51.1549 74.6184 51.1988 74.7062 51.2866C74.794 51.3745 74.838 51.4797 74.838 51.6023C74.838 51.6835 74.8172 51.7581 74.7758 51.8261C74.736 51.894 74.6822 51.9487 74.6142 51.9901C74.5479 52.0299 74.4734 52.0498 74.3905 52.0498ZM77.3691 52.0796C77.0775 52.0796 76.8148 52.0216 76.5811 51.9056C76.3475 51.7896 76.1602 51.6305 76.0193 51.4283C75.8785 51.2262 75.8014 50.9958 75.7882 50.7373H76.3847C76.4079 50.9676 76.5123 51.1582 76.698 51.309C76.8852 51.4582 77.1089 51.5327 77.3691 51.5327C77.5779 51.5327 77.7635 51.4838 77.9259 51.3861C78.09 51.2883 78.2184 51.1541 78.3112 50.9834C78.4057 50.811 78.4529 50.6163 78.4529 50.3992C78.4529 50.1771 78.404 49.9791 78.3063 49.8051C78.2101 49.6294 78.0776 49.4911 77.9085 49.39C77.7395 49.2889 77.5464 49.2375 77.3293 49.2359C77.1736 49.2342 77.0136 49.2582 76.8496 49.308C76.6855 49.356 76.5505 49.4182 76.4444 49.4944L75.8677 49.4248L76.1759 46.9191H78.8208V47.466H76.693L76.514 48.9674H76.5438C76.6482 48.8845 76.7792 48.8158 76.9366 48.7611C77.094 48.7064 77.2581 48.679 77.4288 48.679C77.7403 48.679 78.0179 48.7536 78.2615 48.9028C78.5068 49.0503 78.699 49.2524 78.8382 49.5093C78.9791 49.7662 79.0495 50.0595 79.0495 50.3893C79.0495 50.7141 78.9766 51.0041 78.8308 51.2593C78.6866 51.5129 78.4877 51.7134 78.2342 51.8609C77.9806 52.0067 77.6923 52.0796 77.3691 52.0796Z" fill="#0000FF"/>
<path fill-rule="evenodd" clip-rule="evenodd" d="M16.0151 15.026C16.0151 15.4181 16.333 15.736 16.7251 15.736H20.0002C20.6066 15.736 21.174 15.4372 21.5172 14.9373L23.9738 11.3583C24.0521 11.2442 24.1817 11.176 24.3201 11.176H24.97C25.3622 11.176 25.68 10.8581 25.68 10.466C25.68 10.0739 25.3622 9.75598 24.97 9.75598H24.3201C23.7137 9.75598 23.1462 10.0548 22.8031 10.5547L20.3465 14.1337C20.2681 14.2478 20.1386 14.316 20.0002 14.316H16.7251C16.333 14.316 16.0151 14.6339 16.0151 15.026ZM24.2651 15.026C24.2651 15.4181 24.583 15.736 24.9751 15.736H29.2751C29.6672 15.736 29.9851 15.4181 29.9851 15.026C29.9851 14.6339 29.6672 14.316 29.2751 14.316H24.9751C24.583 14.316 24.2651 14.6339 24.2651 15.026ZM27.835 10.466C27.835 10.8581 27.5172 11.176 27.125 11.176C26.7329 11.176 26.415 10.8581 26.415 10.466C26.415 10.0739 26.7329 9.75598 27.125 9.75598C27.5172 9.75598 27.835 10.0739 27.835 10.466ZM29.9802 10.466C29.9802 10.8581 29.6623 11.176 29.2702 11.176C28.8781 11.176 28.5602 10.8581 28.5602 10.466C28.5602 10.0739 28.8781 9.75598 29.2702 9.75598C29.6623 9.75598 29.9802 10.0739 29.9802 10.466Z" fill="black"/>
<path d="M34.8489 35.8671C32.7932 35.8671 31.5139 34.4706 31.5139 32.2001C31.5139 29.9296 32.7883 28.5868 34.8245 28.5868C36.1526 28.5868 37.2122 29.2313 37.6028 30.1396C37.676 30.3056 37.6956 30.4326 37.6956 30.5595C37.6956 30.8915 37.4759 31.1113 37.139 31.1113C36.8656 31.1113 36.6751 30.9892 36.5189 30.706C36.1673 30.0078 35.596 29.6562 34.8294 29.6562C33.5599 29.6562 32.803 30.5986 32.803 32.1855C32.803 33.7724 33.594 34.7978 34.8636 34.7978C35.8451 34.7978 36.6209 34.2207 36.6852 33.1713C36.6902 33.0896 36.6256 33.0205 36.5437 33.0205H35.4397C35.1272 33.0205 34.9124 32.835 34.9124 32.5371C34.9124 32.2392 35.1272 32.0586 35.4397 32.0586H37.2952C37.6858 32.0586 37.9202 32.3027 37.9202 32.7129V32.8594C37.9202 34.6905 36.7971 35.8672 34.8489 35.8672V35.8671Z" fill="black"/>
<path d="M39.0276 35.2078V31.0856C39.0276 30.7046 39.262 30.4702 39.6088 30.4702C39.8424 30.4702 40.029 30.5828 40.1216 30.7787C40.1235 30.7827 40.1299 30.7988 40.1384 30.8206C40.1725 30.9081 40.2808 30.9391 40.3557 30.8824C40.5581 30.7293 40.9404 30.4849 41.3183 30.4849C41.5088 30.4849 41.6553 30.5337 41.7481 30.6168C41.8604 30.7096 41.919 30.8561 41.919 31.0564C41.919 31.2567 41.8604 31.3885 41.7383 31.4862C41.6211 31.5888 41.4404 31.6425 41.201 31.6474C40.5074 31.6523 40.2437 32.087 40.2437 32.717V35.2079C40.2437 35.6084 39.9995 35.8477 39.6332 35.8477C39.2669 35.8477 39.0276 35.6083 39.0276 35.2078Z" fill="black"/>
<path d="M22.3056 34.8516L20.2548 29.2851C20.0791 28.8115 19.7959 28.6064 19.332 28.6064C18.8681 28.6064 18.5898 28.8212 18.4189 29.29L16.373 34.8516C16.3144 35.003 16.29 35.1397 16.29 35.2373C16.29 35.5937 16.539 35.8184 16.9248 35.8184C17.252 35.8184 17.4375 35.6573 17.5547 35.2764L17.9855 34.0338C18.0053 33.9768 18.059 33.9385 18.1194 33.9385H20.5493C20.6098 33.9385 20.6636 33.9769 20.6833 34.0341L21.1143 35.2862C21.2266 35.6622 21.417 35.8184 21.7588 35.8184C22.125 35.8184 22.3887 35.5791 22.3887 35.2373C22.3887 35.125 22.3643 35.0127 22.3057 34.8516H22.3056ZM18.3776 32.7563L19.1905 30.2894C19.2332 30.1598 19.4165 30.1595 19.4596 30.289L20.2806 32.7559C20.3111 32.8477 20.2428 32.9424 20.1461 32.9424H18.5122C18.4157 32.9424 18.3474 32.848 18.3776 32.7563Z" fill="black"/>
<path d="M24.0291 35.833C23.6727 35.833 23.4187 35.6035 23.4187 35.1933V29.2313C23.4187 28.8211 23.6726 28.5916 24.0291 28.5916C24.3856 28.5916 24.6346 28.8211 24.6346 29.2313V35.1933C24.6346 35.6035 24.3856 35.833 24.0291 35.833Z" fill="black"/>
<path d="M26.3001 34.4559V31.6396C26.3001 31.5613 26.2366 31.4979 26.1584 31.4979H25.973C25.6703 31.4979 25.4846 31.327 25.4846 31.034C25.4846 30.741 25.6701 30.575 25.973 30.575H26.1584C26.2367 30.575 26.3001 30.5115 26.3001 30.4333V29.8703C26.3001 29.4796 26.5345 29.2354 26.9106 29.2354C27.2867 29.2354 27.5162 29.4795 27.5162 29.8703V30.4333C27.5162 30.5116 27.5797 30.575 27.6579 30.575H28.0778C28.3805 30.575 28.5662 30.7458 28.5662 31.034C28.5662 31.3222 28.3807 31.4979 28.0778 31.4979H27.6579C27.5796 31.4979 27.5162 31.5614 27.5162 31.6396V34.1922C27.5162 34.5829 27.6529 34.7538 28.0046 34.7831L28.0925 34.7929C28.4148 34.8222 28.5809 34.9589 28.5809 35.2422C28.5809 35.5986 28.2684 35.7892 27.7117 35.7892H27.6629C26.7595 35.7892 26.3004 35.3399 26.3004 34.456H26.3002L26.3001 34.4559Z" fill="black"/>
</svg>
