<svg width="108" height="55" viewBox="0 0 108 55" fill="none" xmlns="http://www.w3.org/2000/svg">
<path d="M96.347 40.9106C95.8721 41.4247 95.2961 41.8486 94.6602 42.1466C94.0284 42.443 93.3364 42.615 92.6455 42.6559C79.7662 43.07 66.8812 43.276 53.9952 43.276C41.1096 43.2769 28.2246 43.0699 15.3456 42.6559C14.6539 42.6163 13.9629 42.4333 13.3329 42.1383C13.0157 41.9896 12.7126 41.8126 12.4297 41.6065C12.1456 41.4008 11.8806 41.1668 11.6426 40.9088C11.4028 40.651 11.1909 40.369 11.0049 40.0699C10.8201 39.7711 10.6631 39.455 10.5342 39.127C10.2783 38.4743 10.1313 37.7734 10.1104 37.0753V7.254C10.1154 6.90268 10.1555 6.55075 10.2305 6.20566C10.3046 5.8613 10.4146 5.52426 10.5566 5.20224C10.6982 4.87985 10.8723 4.57187 11.0743 4.28378C11.2758 3.99606 11.5048 3.728 11.7568 3.48398C12.0091 3.24033 12.2831 3.02023 12.5751 2.82822C12.8671 2.63657 13.1771 2.47153 13.4991 2.33749C13.8201 2.20395 14.1531 2.09995 14.4941 2.0289C14.8353 1.95871 15.1813 1.91965 15.5284 1.9166C41.1729 1.79562 66.8169 1.79562 92.4619 1.9166C92.8091 1.92001 93.156 1.95798 93.4961 2.0289C93.8372 2.09958 94.1711 2.20358 94.4922 2.33749C94.813 2.47226 95.124 2.63632 95.415 2.82822C95.7084 3.02109 95.9823 3.24008 96.2344 3.483C96.4869 3.7269 96.7159 3.99484 96.918 4.28281C97.1195 4.57187 97.2925 4.87985 97.4346 5.20175C97.5757 5.52475 97.6857 5.86069 97.7607 6.20566C97.8348 6.55002 97.8749 6.90207 97.8799 7.254V37.0753C97.8579 37.7745 97.7189 38.4756 97.4606 39.1294C97.2015 39.7852 96.8256 40.3933 96.347 40.9106Z" stroke="#16215B" stroke-width="0.283" stroke-miterlimit="10"/>
<path d="M94.3457 40.2984H13.6487C12.4744 40.2986 11.5225 39.3465 11.5225 38.1725V6.59555C11.5224 5.42136 12.4744 4.46933 13.6484 4.46933H94.3453C95.5197 4.46933 96.4717 5.42136 96.4717 6.59531V38.1725C96.4717 39.3465 95.5197 40.2984 94.3457 40.2984Z" stroke="#00FFFF" stroke-width="0.28" stroke-miterlimit="10"/>
<path d="M96.9307 33.4841V36.338C96.9308 36.636 96.9078 36.931 96.8608 37.224C96.8489 37.297 96.8358 37.37 96.8198 37.443C96.8058 37.516 96.7888 37.589 96.7719 37.66C96.7338 37.8039 96.6918 37.946 96.6448 38.0849C96.5958 38.224 96.5408 38.3609 96.4799 38.495C96.4188 38.63 96.3508 38.761 96.2759 38.89C96.1268 39.148 95.9548 39.3869 95.7598 39.607C95.6619 39.716 95.5588 39.821 95.4479 39.922C95.3938 39.971 95.3368 40.02 95.2798 40.067C95.2228 40.114 95.1638 40.159 95.1058 40.203C94.8678 40.377 94.6138 40.524 94.3458 40.645C94.2778 40.675 94.2098 40.703 94.1409 40.7299C94.0708 40.7569 94.0018 40.782 93.9318 40.805C93.7908 40.851 93.6498 40.89 93.5059 40.922C93.2198 40.985 92.9279 41.02 92.6299 41.0279C66.9102 41.702 41.0852 41.702 15.3643 41.0279C15.2155 41.024 15.0674 41.013 14.9194 40.9951C14.8455 40.9861 14.7725 40.9751 14.6984 40.963C14.6254 40.95 14.5524 40.936 14.4805 40.92C14.1924 40.856 13.9135 40.763 13.6434 40.6421C13.5764 40.6111 13.5084 40.5791 13.4434 40.545C13.3765 40.5111 13.3115 40.4751 13.2485 40.4381C13.1204 40.363 12.9974 40.2821 12.8784 40.195C12.6425 40.0211 12.4255 39.822 12.2285 39.5991C12.1785 39.5431 12.1304 39.4861 12.0845 39.4281C12.0394 39.3701 11.9944 39.3121 11.9514 39.252C11.8665 39.132 11.7875 39.009 11.7134 38.882C11.5674 38.629 11.4465 38.3601 11.3484 38.0791C11.3245 38.009 11.3005 37.9381 11.2805 37.867C11.2584 37.796 11.2394 37.7251 11.2214 37.653C11.1854 37.5101 11.1564 37.3661 11.1324 37.2201C11.0854 36.93 11.0635 36.6361 11.0635 36.338V33.4845C11.0654 25.0549 11.0663 16.625 11.0674 8.19589C11.0673 8.04453 11.0753 7.89255 11.0903 7.74155C11.0974 7.6666 11.1074 7.59055 11.1193 7.51657C11.1304 7.44052 11.1434 7.36655 11.1594 7.29257C11.2194 6.99557 11.3093 6.70956 11.4274 6.43356C11.4874 6.29562 11.5533 6.16061 11.6284 6.02756C11.7023 5.8956 11.7823 5.76755 11.8683 5.64462C12.0413 5.39963 12.2363 5.17355 12.4564 4.96652C12.5103 4.91562 12.5663 4.86459 12.6254 4.81552C12.6824 4.76657 12.7413 4.7186 12.8004 4.67258C12.9203 4.58163 13.0433 4.49655 13.1703 4.41757C13.4224 4.25961 13.6913 4.12656 13.9724 4.01852C14.0433 3.99155 14.1143 3.96555 14.1863 3.94162C14.2573 3.91855 14.3303 3.89658 14.4023 3.87656C14.5474 3.83664 14.6923 3.80258 14.8383 3.77463C15.1323 3.72055 15.4313 3.6926 15.7344 3.69052C41.2087 3.52756 66.7847 3.52756 92.2607 3.69052C92.5637 3.69296 92.8617 3.72092 93.1556 3.77499C93.3018 3.80197 93.4478 3.83591 93.5917 3.87595C93.6637 3.89694 93.7367 3.91891 93.8087 3.94199C93.8796 3.96591 93.9507 3.99094 94.0217 4.01791C94.3037 4.12692 94.5717 4.259 94.8237 4.41696C94.9507 4.49594 95.0737 4.5809 95.1937 4.67294C95.2527 4.71896 95.3127 4.76596 95.3698 4.81601C95.4277 4.86496 95.4847 4.91501 95.5387 4.96701C95.7577 5.17392 95.9537 5.39999 96.1257 5.64499C96.2117 5.76694 96.2927 5.89499 96.3657 6.02792C96.4407 6.16 96.5077 6.29697 96.5677 6.436C96.5977 6.50497 96.6248 6.57492 96.6517 6.64694C96.6777 6.71799 96.7017 6.79001 96.7247 6.86191C96.7697 7.00693 96.8077 7.15195 96.8367 7.29892C96.8967 7.59299 96.9268 7.89194 96.9266 8.19601C96.9276 16.6251 96.9296 25.055 96.9307 33.4841Z" stroke="#FF00FF" stroke-width="0.283465" stroke-miterlimit="10" stroke-linecap="round" stroke-linejoin="round"/>
<path d="M88.6735 52.01V51.5626L90.3539 49.7231C90.5511 49.5076 90.7135 49.3204 90.8411 49.1613C90.9687 49.0005 91.0632 48.8497 91.1245 48.7089C91.1874 48.5664 91.2189 48.4172 91.2189 48.2614C91.2189 48.0825 91.1758 47.9275 91.0897 47.7966C91.0051 47.6657 90.8891 47.5646 90.7417 47.4933C90.5942 47.4221 90.4284 47.3864 90.2445 47.3864C90.0489 47.3864 89.8783 47.427 89.7324 47.5082C89.5882 47.5878 89.4764 47.6996 89.3968 47.8438C89.319 47.988 89.28 48.157 89.28 48.3509H88.6934C88.6934 48.0526 88.7621 47.7908 88.8997 47.5654C89.0372 47.34 89.2245 47.1644 89.4615 47.0384C89.7001 46.9125 89.9677 46.8495 90.2644 46.8495C90.5627 46.8495 90.827 46.9125 91.0574 47.0384C91.2877 47.1644 91.4683 47.3342 91.5993 47.548C91.7302 47.7618 91.7956 47.9996 91.7956 48.2614C91.7956 48.4487 91.7617 48.6318 91.6937 48.8108C91.6274 48.9881 91.5114 49.1861 91.3457 49.4049C91.1816 49.622 90.9538 49.8871 90.6621 50.2004L89.5186 51.4234V51.4631H91.8851V52.01H88.6735ZM93.3493 52.0498C93.2266 52.0498 93.1214 52.0059 93.0336 51.918C92.9457 51.8302 92.9018 51.725 92.9018 51.6023C92.9018 51.4797 92.9457 51.3745 93.0336 51.2866C93.1214 51.1988 93.2266 51.1549 93.3493 51.1549C93.4719 51.1549 93.5771 51.1988 93.665 51.2866C93.7528 51.3745 93.7967 51.4797 93.7967 51.6023C93.7967 51.6835 93.776 51.7581 93.7346 51.8261C93.6948 51.894 93.6409 51.9487 93.573 51.9901C93.5067 52.0299 93.4321 52.0498 93.3493 52.0498ZM96.3223 52.0796C95.9477 52.0796 95.6287 51.9777 95.3652 51.7739C95.1017 51.5684 94.9004 51.2709 94.7612 50.8815C94.622 50.4904 94.5524 50.0181 94.5524 49.4646C94.5524 48.9144 94.622 48.4446 94.7612 48.0551C94.902 47.664 95.1042 47.3657 95.3677 47.1602C95.6329 46.9531 95.9511 46.8495 96.3223 46.8495C96.6935 46.8495 97.0108 46.9531 97.2743 47.1602C97.5395 47.3657 97.7417 47.664 97.8809 48.0551C98.0217 48.4446 98.0922 48.9144 98.0922 49.4646C98.0922 50.0181 98.0225 50.4904 97.8833 50.8815C97.7441 51.2709 97.5428 51.5684 97.2793 51.7739C97.0158 51.9777 96.6968 52.0796 96.3223 52.0796ZM96.3223 51.5327C96.6935 51.5327 96.9818 51.3538 97.1873 50.9958C97.3928 50.6379 97.4956 50.1274 97.4956 49.4646C97.4956 49.0237 97.4483 48.6484 97.3539 48.3385C97.2611 48.0286 97.1268 47.7924 96.9512 47.63C96.7772 47.4676 96.5675 47.3864 96.3223 47.3864C95.9544 47.3864 95.6668 47.5679 95.4597 47.9308C95.2525 48.2921 95.149 48.8033 95.149 49.4646C95.149 49.9054 95.1954 50.2799 95.2882 50.5881C95.381 50.8964 95.5144 51.1309 95.6884 51.2916C95.8641 51.4524 96.0753 51.5327 96.3223 51.5327Z" fill="#0000FF"/>
<path d="M19.2862 24.7688H18.0216C17.9433 24.7688 17.8799 24.7053 17.8799 24.6271V22.7084C17.8799 22.6301 17.9434 22.5667 18.0216 22.5667H19.2325C20.1993 22.5667 20.7071 22.9427 20.7071 23.6605C20.7071 24.3783 20.2139 24.7689 19.2862 24.7689V24.7688ZM17.8799 19.8274C17.8799 19.7491 17.9434 19.6857 18.0216 19.6857H19.2276C19.9796 19.6857 20.4044 20.0324 20.4044 20.6476C20.4044 21.3019 19.9112 21.673 19.0323 21.673H18.0216C17.9433 21.673 17.8799 21.6095 17.8799 21.5313V19.8274ZM20.8385 22.1239C20.7218 22.083 20.7101 21.924 20.8188 21.865C21.3098 21.5985 21.6495 21.0505 21.6495 20.4619C21.6495 19.3926 20.8242 18.7041 19.5449 18.7041H17.25C16.8594 18.7041 16.6201 18.9482 16.6201 19.3584V25.0958C16.6201 25.506 16.8594 25.7501 17.25 25.7501H19.5742C21.0781 25.7501 21.9912 24.9884 21.9912 23.7481C21.9912 22.9785 21.5356 22.3683 20.8385 22.1239Z" fill="black"/>
<path d="M25.2358 20.4668C24.2446 20.4668 23.673 20.8071 23.3807 21.1346C23.2114 21.3243 23.1897 21.7238 23.4219 21.9095C23.6933 22.1265 24.148 21.9641 24.3042 21.7721C24.4444 21.5997 24.7592 21.4246 25.1869 21.419C25.7874 21.4111 26.1537 21.7315 26.1537 22.2735V22.533C26.1537 22.5593 26.1332 22.581 26.1069 22.5825L24.7816 22.658C23.522 22.736 22.814 23.3525 22.814 24.2704C22.814 25.1883 23.544 25.8329 24.5425 25.8329C25.2668 25.8329 25.8036 25.6048 26.0438 25.4795C26.1138 25.443 26.1993 25.4711 26.2356 25.5412C26.3036 25.6725 26.4527 25.8475 26.7641 25.8475C27.1059 25.8475 27.3549 25.6278 27.3549 25.2372V22.1855C27.3549 21.1455 26.52 20.4668 25.2358 20.4668ZM26.1538 23.831C26.1538 24.456 25.5972 24.915 24.9136 24.915C24.3863 24.915 24.0298 24.6465 24.0298 24.2217C24.0298 23.7969 24.3667 23.5479 24.9526 23.5088L26.1011 23.4388C26.1296 23.4371 26.1537 23.4597 26.1537 23.4883V23.8311L26.1538 23.831Z" fill="black"/>
<path d="M30.6954 25.8526C29.1817 25.8526 28.2051 24.8272 28.2051 23.167C28.2051 21.5068 29.1768 20.4668 30.6856 20.4668C31.7012 20.4668 32.5655 20.9893 32.8145 21.7168C32.8536 21.8193 32.878 21.9219 32.878 22.0098C32.878 22.3125 32.6485 22.4981 32.3555 22.4981C32.1114 22.4981 31.9649 22.3956 31.8233 22.1514C31.5645 21.6778 31.2227 21.4532 30.7198 21.4532C29.9385 21.4532 29.4405 22.1026 29.4405 23.1622C29.4405 24.2218 29.9434 24.8712 30.7149 24.8712C31.252 24.8712 31.584 24.6222 31.8184 24.2071C31.9844 23.9337 32.1163 23.8311 32.3799 23.8311C32.668 23.8311 32.8926 24.0264 32.8926 24.3292C32.8926 24.422 32.8682 24.5245 32.8194 24.6417C32.5313 25.3497 31.6719 25.8526 30.6954 25.8526Z" fill="black"/>
<path d="M34.3531 25.8478C33.9967 25.8478 33.7427 25.6183 33.7427 25.2081V19.2461C33.7427 18.8359 33.9966 18.6064 34.3531 18.6064C34.7096 18.6064 34.9586 18.8359 34.9586 19.2461V22.3881C34.9586 22.514 35.1104 22.5774 35.1999 22.4889L37.0045 20.706C37.1608 20.54 37.2926 20.4716 37.4781 20.4716C37.7808 20.4716 38.0103 20.7011 38.0103 20.9941C38.0103 21.1748 37.9566 21.2871 37.7906 21.4433L36.4106 22.7502C36.3571 22.8009 36.3513 22.8841 36.3974 22.9416L37.9371 24.8662C38.0641 25.042 38.1031 25.1494 38.1031 25.3057C38.1031 25.6231 37.8638 25.8477 37.5269 25.8477C37.2876 25.8477 37.146 25.7647 36.9703 25.5108L35.5131 23.6641C35.4617 23.599 35.3656 23.5917 35.305 23.6484L35.0483 23.8887C34.9911 23.9423 34.9586 24.0172 34.9586 24.0956V25.208C34.9586 25.6182 34.7096 25.8477 34.3531 25.8477V25.8478Z" fill="black"/>
<path d="M52.2143 20.4668C51.2231 20.4668 50.6515 20.8071 50.3592 21.1346C50.1899 21.3243 50.1682 21.7238 50.4004 21.9095C50.6718 22.1265 51.1265 21.9641 51.2827 21.7721C51.4229 21.5997 51.7377 21.4246 52.1654 21.419C52.7659 21.4111 53.1322 21.7315 53.1322 22.2735V22.533C53.1322 22.5593 53.1117 22.581 53.0854 22.5825L51.7601 22.658C50.5005 22.736 49.7925 23.3525 49.7925 24.2704C49.7925 25.1883 50.5225 25.8329 51.521 25.8329C52.2453 25.8329 52.7821 25.6048 53.0223 25.4795C53.0923 25.443 53.1778 25.4711 53.2141 25.5412C53.2821 25.6725 53.4312 25.8475 53.7426 25.8475C54.0844 25.8475 54.3334 25.6278 54.3334 25.2372V22.1855C54.3334 21.1455 53.4985 20.4668 52.2143 20.4668ZM53.1323 23.831C53.1323 24.456 52.5757 24.915 51.8921 24.915C51.3648 24.915 51.0083 24.6465 51.0083 24.2217C51.0083 23.7969 51.3452 23.5479 51.9311 23.5088L53.0796 23.4388C53.1081 23.4371 53.1322 23.4597 53.1322 23.4883V23.8311L53.1323 23.831Z" fill="black"/>
<path d="M57.6739 25.8526C56.1602 25.8526 55.1836 24.8272 55.1836 23.167C55.1836 21.5068 56.1553 20.4668 57.6641 20.4668C58.6797 20.4668 59.544 20.9893 59.793 21.7168C59.8321 21.8193 59.8565 21.9219 59.8565 22.0098C59.8565 22.3125 59.627 22.4981 59.334 22.4981C59.0899 22.4981 58.9434 22.3956 58.8018 22.1514C58.543 21.6778 58.2012 21.4532 57.6983 21.4532C56.917 21.4532 56.419 22.1026 56.419 23.1622C56.419 24.2218 56.9219 24.8712 57.6934 24.8712C58.2305 24.8712 58.5625 24.6222 58.7969 24.2071C58.9629 23.9337 59.0948 23.8311 59.3584 23.8311C59.6465 23.8311 59.8711 24.0264 59.8711 24.3292C59.8711 24.422 59.8467 24.5245 59.7979 24.6417C59.5098 25.3497 58.6504 25.8526 57.6739 25.8526Z" fill="black"/>
<path d="M62.9667 20.4668C61.4726 20.4668 60.5205 21.5312 60.5205 23.1816C60.5205 24.832 61.4531 25.8524 63.0351 25.8524C63.8353 25.8524 64.4212 25.6746 64.9209 25.1196C65.1446 24.8712 65.0847 24.5005 64.7886 24.342C64.5392 24.2084 64.2555 24.3365 64.1162 24.4659C63.6735 24.8773 63.3487 24.9149 63.0253 24.9149C62.2791 24.9149 61.7892 24.4302 61.7362 23.6068C61.7309 23.5247 61.7953 23.455 61.8776 23.455H64.8317C65.1129 23.455 65.3423 23.2302 65.3487 22.9491C65.3814 21.5063 64.4062 20.4668 62.9667 20.4668ZM63.9965 22.6011H61.9074C61.8168 22.6011 61.75 22.5173 61.769 22.4287C61.9056 21.79 62.3772 21.4093 62.9715 21.4093C63.5658 21.4093 64.02 21.7772 64.1362 22.4355C64.1515 22.522 64.0843 22.6011 63.9964 22.6011H63.9965Z" fill="black"/>
<path d="M46.8731 20.4863C46.2587 20.4863 45.6837 20.7845 45.4009 20.9582C45.3207 21.0074 45.2166 20.9666 45.1901 20.8763C45.1726 20.8164 45.1442 20.7508 45.0984 20.6904C44.9813 20.5358 44.8113 20.4717 44.6221 20.4717C44.2754 20.4717 44.0312 20.6963 44.0312 21.0967V26.9513C44.0312 27.3615 44.2802 27.591 44.6367 27.591C44.9932 27.591 45.2472 27.3615 45.2472 26.9513V25.5395C45.2472 25.4316 45.3628 25.3632 45.4573 25.4154C45.7485 25.5762 46.3055 25.8331 46.8927 25.8331C48.1915 25.8331 49.0216 24.8126 49.0216 23.1622C49.0216 21.5118 48.1866 20.4864 46.8731 20.4864V20.4863ZM46.502 24.8369C45.7452 24.8369 45.2422 24.1777 45.2373 23.1621C45.2422 22.1562 45.7451 21.4873 46.502 21.4873C47.2589 21.4873 47.7764 22.1416 47.7764 23.1621C47.7764 24.1826 47.2881 24.8369 46.502 24.8369Z" fill="black"/>
<path d="M40.9741 25.8525C39.8803 25.8525 39.1137 25.4326 38.8647 24.8125C38.8305 24.7246 38.8159 24.6465 38.8159 24.5732C38.8159 24.2802 39.0307 24.0947 39.3237 24.0947C39.5239 24.0947 39.6948 24.1875 39.851 24.3926C40.1244 24.7881 40.4369 24.9639 41.018 24.9639C41.5991 24.9639 41.9604 24.7246 41.9604 24.334C41.9604 24.0215 41.7651 23.8506 41.2329 23.7285L40.393 23.5381C39.3822 23.3086 38.8842 22.8106 38.8842 22.0586C38.8842 21.0967 39.7143 20.4668 40.9936 20.4668C41.9897 20.4668 42.7612 20.9551 42.9223 21.5508C42.9369 21.6143 42.9467 21.6729 42.9467 21.7315C42.9467 21.9854 42.7856 22.1661 42.4779 22.1661C42.3021 22.1661 42.1263 22.1026 42.014 21.9415C41.7747 21.5851 41.4769 21.3604 40.9642 21.3604C40.4515 21.3604 40.0658 21.6192 40.0658 21.9903C40.0658 22.293 40.2904 22.4981 40.8275 22.6202L41.6527 22.8009C42.7465 23.0499 43.181 23.4454 43.181 24.212C43.181 25.2032 42.2923 25.8526 40.9739 25.8526L40.9741 25.8525Z" fill="black"/>
</svg>
