<svg width="108" height="54" viewBox="0 0 108 54" fill="none" xmlns="http://www.w3.org/2000/svg">
<path d="M96.347 40.9106C95.8721 41.4247 95.2961 41.8486 94.6602 42.1466C94.0284 42.443 93.3364 42.615 92.6455 42.6559C79.7662 43.07 66.8812 43.276 53.9952 43.276C41.1096 43.2769 28.2246 43.0699 15.3456 42.6559C14.6539 42.6163 13.9629 42.4333 13.3329 42.1383C13.0157 41.9896 12.7126 41.8126 12.4297 41.6065C12.1456 41.4008 11.8806 41.1668 11.6426 40.9088C11.4028 40.651 11.1909 40.369 11.0049 40.0699C10.8201 39.7711 10.6631 39.455 10.5342 39.127C10.2783 38.4743 10.1313 37.7734 10.1104 37.0753V7.254C10.1154 6.90268 10.1555 6.55075 10.2305 6.20566C10.3046 5.8613 10.4146 5.52426 10.5566 5.20224C10.6982 4.87985 10.8723 4.57187 11.0743 4.28378C11.2758 3.99606 11.5048 3.728 11.7568 3.48398C12.0091 3.24033 12.2831 3.02023 12.5751 2.82822C12.8671 2.63657 13.1771 2.47153 13.4991 2.33749C13.8201 2.20395 14.1531 2.09995 14.4941 2.0289C14.8353 1.95871 15.1813 1.91965 15.5284 1.9166C41.1729 1.79562 66.8169 1.79562 92.4619 1.9166C92.8091 1.92001 93.156 1.95798 93.4961 2.0289C93.8372 2.09958 94.1711 2.20358 94.4922 2.33749C94.813 2.47226 95.124 2.63632 95.415 2.82822C95.7084 3.02109 95.9823 3.24008 96.2344 3.483C96.4869 3.7269 96.7159 3.99484 96.918 4.28281C97.1195 4.57187 97.2925 4.87985 97.4346 5.20175C97.5757 5.52475 97.6857 5.86069 97.7607 6.20566C97.8348 6.55002 97.8749 6.90207 97.8799 7.254V37.0753C97.8579 37.7745 97.7189 38.4756 97.4606 39.1294C97.2015 39.7852 96.8256 40.3933 96.347 40.9106Z" stroke="#16215B" stroke-width="0.283" stroke-miterlimit="10"/>
<path d="M94.3457 40.2984H13.6487C12.4744 40.2986 11.5225 39.3465 11.5225 38.1725V6.59555C11.5224 5.42136 12.4744 4.46933 13.6484 4.46933H94.3453C95.5197 4.46933 96.4717 5.42136 96.4717 6.59531V38.1725C96.4717 39.3465 95.5197 40.2984 94.3457 40.2984Z" stroke="#00FFFF" stroke-width="0.28" stroke-miterlimit="10"/>
<path d="M96.9307 33.4841V36.338C96.9308 36.636 96.9078 36.931 96.8608 37.224C96.8489 37.297 96.8358 37.37 96.8198 37.443C96.8058 37.516 96.7888 37.589 96.7719 37.66C96.7338 37.8039 96.6918 37.946 96.6448 38.0849C96.5958 38.224 96.5408 38.3609 96.4799 38.495C96.4188 38.63 96.3508 38.761 96.2759 38.89C96.1268 39.148 95.9548 39.3869 95.7598 39.607C95.6619 39.716 95.5588 39.821 95.4479 39.922C95.3938 39.971 95.3368 40.02 95.2798 40.067C95.2228 40.114 95.1638 40.159 95.1058 40.203C94.8678 40.377 94.6138 40.524 94.3458 40.645C94.2778 40.675 94.2098 40.703 94.1409 40.7299C94.0708 40.7569 94.0018 40.782 93.9318 40.805C93.7908 40.851 93.6498 40.89 93.5059 40.922C93.2198 40.985 92.9279 41.02 92.6299 41.0279C66.9102 41.702 41.0852 41.702 15.3643 41.0279C15.2155 41.024 15.0674 41.013 14.9194 40.9951C14.8455 40.9861 14.7725 40.9751 14.6984 40.963C14.6254 40.95 14.5524 40.936 14.4805 40.92C14.1924 40.856 13.9135 40.763 13.6434 40.6421C13.5764 40.6111 13.5084 40.5791 13.4434 40.545C13.3765 40.5111 13.3115 40.4751 13.2485 40.4381C13.1204 40.363 12.9974 40.2821 12.8784 40.195C12.6425 40.0211 12.4255 39.822 12.2285 39.5991C12.1785 39.5431 12.1304 39.4861 12.0845 39.4281C12.0394 39.3701 11.9944 39.3121 11.9514 39.252C11.8665 39.132 11.7875 39.009 11.7134 38.882C11.5674 38.629 11.4465 38.3601 11.3484 38.0791C11.3245 38.009 11.3005 37.9381 11.2805 37.867C11.2584 37.796 11.2394 37.7251 11.2214 37.653C11.1854 37.5101 11.1564 37.3661 11.1324 37.2201C11.0854 36.93 11.0635 36.6361 11.0635 36.338V33.4845C11.0654 25.0549 11.0663 16.625 11.0674 8.19589C11.0673 8.04453 11.0753 7.89255 11.0903 7.74155C11.0974 7.6666 11.1074 7.59055 11.1193 7.51657C11.1304 7.44052 11.1434 7.36655 11.1594 7.29257C11.2194 6.99557 11.3093 6.70956 11.4274 6.43356C11.4874 6.29562 11.5533 6.16061 11.6284 6.02756C11.7023 5.8956 11.7823 5.76755 11.8683 5.64462C12.0413 5.39963 12.2363 5.17355 12.4564 4.96652C12.5103 4.91562 12.5663 4.86459 12.6254 4.81552C12.6824 4.76657 12.7413 4.7186 12.8004 4.67258C12.9203 4.58163 13.0433 4.49655 13.1703 4.41757C13.4224 4.25961 13.6913 4.12656 13.9724 4.01852C14.0433 3.99155 14.1143 3.96555 14.1863 3.94162C14.2573 3.91855 14.3303 3.89658 14.4023 3.87656C14.5474 3.83664 14.6923 3.80258 14.8383 3.77463C15.1323 3.72055 15.4313 3.6926 15.7344 3.69052C41.2087 3.52756 66.7847 3.52756 92.2607 3.69052C92.5637 3.69296 92.8617 3.72092 93.1556 3.77499C93.3018 3.80197 93.4478 3.83591 93.5917 3.87595C93.6637 3.89694 93.7367 3.91891 93.8087 3.94199C93.8796 3.96591 93.9507 3.99094 94.0217 4.01791C94.3037 4.12692 94.5717 4.259 94.8237 4.41696C94.9507 4.49594 95.0737 4.5809 95.1937 4.67294C95.2527 4.71896 95.3127 4.76596 95.3698 4.81601C95.4277 4.86496 95.4847 4.91501 95.5387 4.96701C95.7577 5.17392 95.9537 5.39999 96.1257 5.64499C96.2117 5.76694 96.2927 5.89499 96.3657 6.02792C96.4407 6.16 96.5077 6.29697 96.5677 6.436C96.5977 6.50497 96.6248 6.57492 96.6517 6.64694C96.6777 6.71799 96.7017 6.79001 96.7247 6.86191C96.7697 7.00693 96.8077 7.15195 96.8367 7.29892C96.8967 7.59299 96.9268 7.89194 96.9266 8.19601C96.9276 16.6251 96.9296 25.055 96.9307 33.4841Z" stroke="#FF00FF" stroke-width="0.283465" stroke-miterlimit="10" stroke-linecap="round" stroke-linejoin="round"/>
<path d="M92.2985 52.01V51.5626L93.9789 49.7231C94.1761 49.5076 94.3385 49.3204 94.4661 49.1613C94.5937 49.0005 94.6882 48.8497 94.7495 48.7089C94.8124 48.5664 94.8439 48.4172 94.8439 48.2614C94.8439 48.0825 94.8008 47.9275 94.7147 47.7966C94.6301 47.6657 94.5141 47.5646 94.3667 47.4933C94.2192 47.4221 94.0534 47.3864 93.8695 47.3864C93.6739 47.3864 93.5033 47.427 93.3574 47.5082C93.2132 47.5878 93.1014 47.6996 93.0218 47.8438C92.944 47.988 92.905 48.157 92.905 48.3509H92.3184C92.3184 48.0526 92.3871 47.7908 92.5247 47.5654C92.6622 47.34 92.8495 47.1644 93.0865 47.0384C93.3251 46.9125 93.5927 46.8495 93.8894 46.8495C94.1877 46.8495 94.452 46.9125 94.6824 47.0384C94.9127 47.1644 95.0933 47.3342 95.2243 47.548C95.3552 47.7618 95.4206 47.9996 95.4206 48.2614C95.4206 48.4487 95.3867 48.6318 95.3187 48.8108C95.2524 48.9881 95.1364 49.1861 94.9707 49.4049C94.8066 49.622 94.5788 49.8871 94.2871 50.2004L93.1436 51.4234V51.4631H95.5101V52.01H92.2985ZM96.9743 52.0498C96.8516 52.0498 96.7464 52.0059 96.6586 51.918C96.5707 51.8302 96.5268 51.725 96.5268 51.6023C96.5268 51.4797 96.5707 51.3745 96.6586 51.2866C96.7464 51.1988 96.8516 51.1549 96.9743 51.1549C97.0969 51.1549 97.2021 51.1988 97.29 51.2866C97.3778 51.3745 97.4217 51.4797 97.4217 51.6023C97.4217 51.6835 97.401 51.7581 97.3596 51.8261C97.3198 51.894 97.2659 51.9487 97.198 51.9901C97.1317 52.0299 97.0571 52.0498 96.9743 52.0498ZM99.9473 52.0796C99.5727 52.0796 99.2537 51.9777 98.9902 51.7739C98.7267 51.5684 98.5254 51.2709 98.3862 50.8815C98.247 50.4904 98.1774 50.0181 98.1774 49.4646C98.1774 48.9144 98.247 48.4446 98.3862 48.0551C98.527 47.664 98.7292 47.3657 98.9927 47.1602C99.2579 46.9531 99.5761 46.8495 99.9473 46.8495C100.318 46.8495 100.636 46.9531 100.899 47.1602C101.164 47.3657 101.367 47.664 101.506 48.0551C101.647 48.4446 101.717 48.9144 101.717 49.4646C101.717 50.0181 101.648 50.4904 101.508 50.8815C101.369 51.2709 101.168 51.5684 100.904 51.7739C100.641 51.9777 100.322 52.0796 99.9473 52.0796ZM99.9473 51.5327C100.318 51.5327 100.607 51.3538 100.812 50.9958C101.018 50.6379 101.121 50.1274 101.121 49.4646C101.121 49.0237 101.073 48.6484 100.979 48.3385C100.886 48.0286 100.752 47.7924 100.576 47.63C100.402 47.4676 100.193 47.3864 99.9473 47.3864C99.5794 47.3864 99.2918 47.5679 99.0847 47.9308C98.8775 48.2921 98.774 48.8033 98.774 49.4646C98.774 49.9054 98.8204 50.2799 98.9132 50.5881C99.006 50.8964 99.1394 51.1309 99.3134 51.2916C99.4891 51.4524 99.7003 51.5327 99.9473 51.5327ZM104.322 52.0796C103.948 52.0796 103.629 51.9777 103.365 51.7739C103.102 51.5684 102.9 51.2709 102.761 50.8815C102.622 50.4904 102.552 50.0181 102.552 49.4646C102.552 48.9144 102.622 48.4446 102.761 48.0551C102.902 47.664 103.104 47.3657 103.368 47.1602C103.633 46.9531 103.951 46.8495 104.322 46.8495C104.693 46.8495 105.011 46.9531 105.274 47.1602C105.539 47.3657 105.742 47.664 105.881 48.0551C106.022 48.4446 106.092 48.9144 106.092 49.4646C106.092 50.0181 106.023 50.4904 105.883 50.8815C105.744 51.2709 105.543 51.5684 105.279 51.7739C105.016 51.9777 104.697 52.0796 104.322 52.0796ZM104.322 51.5327C104.693 51.5327 104.982 51.3538 105.187 50.9958C105.393 50.6379 105.496 50.1274 105.496 49.4646C105.496 49.0237 105.448 48.6484 105.354 48.3385C105.261 48.0286 105.127 47.7924 104.951 47.63C104.777 47.4676 104.568 47.3864 104.322 47.3864C103.954 47.3864 103.667 47.5679 103.46 47.9308C103.253 48.2921 103.149 48.8033 103.149 49.4646C103.149 49.9054 103.195 50.2799 103.288 50.5881C103.381 50.8964 103.514 51.1309 103.688 51.2916C103.864 51.4524 104.075 51.5327 104.322 51.5327Z" fill="#0000FF"/>
<path d="M19.2864 24.7685C20.2143 24.7685 20.7075 24.3827 20.7075 23.66C20.7075 22.9373 20.1996 22.5661 19.2327 22.5661H18.0217C17.9434 22.5661 17.88 22.6296 17.88 22.7078V24.6267C17.88 24.705 17.9435 24.7684 18.0217 24.7684H19.2864V24.7685ZM19.0325 21.6724C19.9115 21.6724 20.4047 21.3013 20.4047 20.6469C20.4047 20.0316 19.9798 19.6849 19.2278 19.6849H18.0217C17.9434 19.6849 17.88 19.7484 17.88 19.8266V21.5307C17.88 21.609 17.9435 21.6724 18.0217 21.6724H19.0325ZM16.6201 25.0957V19.3577C16.6201 18.9475 16.8594 18.7033 17.2501 18.7033H19.5453C20.8248 18.7033 21.6501 19.3919 21.6501 20.4613C21.6501 21.1041 21.2738 21.5638 20.9162 21.8619C20.8378 21.9273 20.8529 22.0512 20.9441 22.0972C21.4672 22.3613 21.992 22.928 21.992 23.7479C21.992 24.9883 21.0788 25.7501 19.5747 25.7501H17.2501C16.8594 25.7501 16.6201 25.5059 16.6201 25.0957Z" fill="black"/>
<path d="M26.154 23.8313C26.154 24.4562 25.5975 24.9152 24.9139 24.9152C24.3867 24.9152 24.0302 24.6467 24.0302 24.222C24.0302 23.7973 24.3671 23.5483 24.9529 23.5092L26.1013 23.4392C26.1298 23.4375 26.1539 23.4601 26.1539 23.4887V23.8315L26.154 23.8313ZM25.2361 20.4674C24.245 20.4674 23.6734 20.8077 23.3811 21.1351C23.2118 21.3248 23.1901 21.7242 23.4223 21.9099C23.6937 22.1269 24.1483 21.9645 24.3045 21.7725C24.4447 21.6001 24.7595 21.425 25.1871 21.4194C25.7875 21.4115 26.1538 21.7319 26.1538 22.2738V22.4764C26.1538 22.5027 26.1333 22.5244 26.107 22.5259L24.7818 22.6014C23.5224 22.6795 22.8145 23.3528 22.8145 24.2706C22.8145 25.1884 23.5444 25.8329 24.5428 25.8329C25.1746 25.8329 25.7905 25.6679 26.0969 25.5426C26.1612 25.5163 26.2349 25.5411 26.2711 25.6004C26.2739 25.6049 26.2763 25.6087 26.2783 25.6116C26.3597 25.7275 26.5062 25.8475 26.7642 25.8475C27.106 25.8475 27.3549 25.6278 27.3549 25.2373V22.1859C27.3549 21.146 26.5201 20.4674 25.2361 20.4674Z" fill="black"/>
<path d="M30.6954 25.8526C29.1817 25.8526 28.2051 24.8272 28.2051 23.167C28.2051 21.5068 29.1768 20.4668 30.6856 20.4668C31.7012 20.4668 32.5655 20.9893 32.8145 21.7168C32.8536 21.8193 32.878 21.9219 32.878 22.0098C32.878 22.3125 32.6485 22.4981 32.3555 22.4981C32.1114 22.4981 31.9649 22.3956 31.8233 22.1514C31.5645 21.6778 31.2227 21.4532 30.7198 21.4532C29.9385 21.4532 29.4405 22.1026 29.4405 23.1622C29.4405 24.2218 29.9434 24.8712 30.7149 24.8712C31.252 24.8712 31.584 24.6222 31.8184 24.2071C31.9844 23.9337 32.1163 23.8311 32.3799 23.8311C32.668 23.8311 32.8926 24.0264 32.8926 24.3292C32.8926 24.422 32.8682 24.5245 32.8194 24.6417C32.5313 25.3497 31.6719 25.8526 30.6954 25.8526Z" fill="black"/>
<path d="M34.3531 25.8478C33.9967 25.8478 33.7427 25.6183 33.7427 25.2081V19.2461C33.7427 18.8359 33.9966 18.6064 34.3531 18.6064C34.7096 18.6064 34.9586 18.8359 34.9586 19.2461V22.3881C34.9586 22.514 35.1104 22.5774 35.1999 22.4889L37.0045 20.706C37.1608 20.54 37.2926 20.4716 37.4781 20.4716C37.7808 20.4716 38.0103 20.7011 38.0103 20.9941C38.0103 21.1748 37.9566 21.2871 37.7906 21.4433L36.4106 22.7502C36.3571 22.8009 36.3513 22.8841 36.3974 22.9416L37.9371 24.8662C38.0641 25.042 38.1031 25.1494 38.1031 25.3057C38.1031 25.6231 37.8638 25.8477 37.5269 25.8477C37.2876 25.8477 37.146 25.7647 36.9703 25.5108L35.5131 23.6641C35.4617 23.599 35.3656 23.5917 35.305 23.6484L35.0483 23.8887C34.9911 23.9423 34.9586 24.0172 34.9586 24.0956V25.208C34.9586 25.6182 34.7096 25.8477 34.3531 25.8477V25.8478Z" fill="black"/>
<path d="M53.1325 23.8313C53.1325 24.4562 52.576 24.9152 51.8924 24.9152C51.3652 24.9152 51.0087 24.6467 51.0087 24.222C51.0087 23.7973 51.3456 23.5483 51.9314 23.5092L53.0798 23.4392C53.1083 23.4375 53.1324 23.4601 53.1324 23.4887V23.8315L53.1325 23.8313ZM52.2146 20.4674C51.2235 20.4674 50.6519 20.8077 50.3596 21.1351C50.1903 21.3248 50.1686 21.7242 50.4008 21.9099C50.6722 22.1269 51.1268 21.9645 51.283 21.7725C51.4232 21.6001 51.738 21.425 52.1656 21.4194C52.766 21.4115 53.1323 21.7319 53.1323 22.2738V22.4764C53.1323 22.5027 53.1118 22.5244 53.0855 22.5259L51.7603 22.6014C50.5009 22.6795 49.793 23.3528 49.793 24.2706C49.793 25.1884 50.5229 25.8329 51.5213 25.8329C52.1531 25.8329 52.769 25.6679 53.0754 25.5426C53.1397 25.5163 53.2134 25.5411 53.2496 25.6004C53.2524 25.6049 53.2548 25.6087 53.2568 25.6116C53.3382 25.7275 53.4847 25.8475 53.7427 25.8475C54.0845 25.8475 54.3334 25.6278 54.3334 25.2373V22.1859C54.3334 21.146 53.4986 20.4674 52.2146 20.4674Z" fill="black"/>
<path d="M57.6739 25.8526C56.1602 25.8526 55.1836 24.8272 55.1836 23.167C55.1836 21.5068 56.1553 20.4668 57.6641 20.4668C58.6797 20.4668 59.544 20.9893 59.793 21.7168C59.8321 21.8193 59.8565 21.9219 59.8565 22.0098C59.8565 22.3125 59.627 22.4981 59.334 22.4981C59.0899 22.4981 58.9434 22.3956 58.8018 22.1514C58.543 21.6778 58.2012 21.4532 57.6983 21.4532C56.917 21.4532 56.419 22.1026 56.419 23.1622C56.419 24.2218 56.9219 24.8712 57.6934 24.8712C58.2305 24.8712 58.5625 24.6222 58.7969 24.2071C58.9629 23.9337 59.0948 23.8311 59.3584 23.8311C59.6465 23.8311 59.8711 24.0264 59.8711 24.3292C59.8711 24.422 59.8467 24.5245 59.7979 24.6417C59.5098 25.3497 58.6504 25.8526 57.6739 25.8526Z" fill="black"/>
<path d="M63.9966 22.548H61.9074C61.8168 22.548 61.75 22.4642 61.769 22.3756C61.9056 21.7369 62.3772 21.4093 62.9716 21.4093C63.566 21.4093 64.0201 21.7241 64.1363 22.3824C64.1516 22.4689 64.0845 22.548 63.9966 22.548ZM62.9668 20.4668C61.4726 20.4668 60.5205 21.5312 60.5205 23.1817C60.5205 24.8322 61.4531 25.8526 63.0352 25.8526C63.8354 25.8526 64.4214 25.6748 64.9211 25.1198C65.1448 24.8714 65.0849 24.5007 64.7888 24.3422C64.5394 24.2086 64.2557 24.3367 64.1164 24.4661C63.6737 24.8775 63.3489 24.9151 63.0255 24.9151C62.2793 24.9151 61.7893 24.4304 61.7363 23.6069C61.731 23.5248 61.7954 23.4551 61.8777 23.4551H64.8319C65.1131 23.4551 65.3425 23.2303 65.3489 22.9492C65.3816 21.5063 64.4064 20.4668 62.9668 20.4668Z" fill="black"/>
<path d="M46.5015 24.8364C45.7445 24.8364 45.2415 24.1771 45.2366 23.1613C45.2415 22.1553 45.7153 21.4862 46.5015 21.4862C47.2877 21.4862 47.7761 22.1406 47.7761 23.1613C47.7761 24.1869 47.2585 24.8364 46.5015 24.8364ZM49.0214 23.1612C49.0214 21.5056 48.1863 20.485 46.8725 20.485C46.3865 20.485 45.6164 20.729 45.3155 20.831C45.248 20.8539 45.1733 20.8242 45.1416 20.7602C45.1336 20.7439 45.1253 20.7277 45.1149 20.7129C44.9956 20.5424 44.8199 20.4704 44.6212 20.4704C44.2744 20.4704 44.0303 20.695 44.0303 21.0955V26.9512C44.0303 27.3615 44.2793 27.591 44.6359 27.591C44.9925 27.591 45.2464 27.3615 45.2464 26.9512V25.593C45.2464 25.4903 45.3523 25.4214 45.4459 25.4636C45.8078 25.6265 46.4105 25.8327 46.8922 25.8327C48.1912 25.8327 49.0215 24.812 49.0215 23.1613L49.0214 23.1612Z" fill="black"/>
<path d="M40.9741 25.8525C39.8803 25.8525 39.1137 25.4326 38.8647 24.8125C38.8305 24.7246 38.8159 24.6465 38.8159 24.5732C38.8159 24.2802 39.0307 24.0947 39.3237 24.0947C39.5239 24.0947 39.6948 24.1875 39.851 24.3926C40.1244 24.7881 40.4369 24.9455 41.018 24.9455C41.5991 24.9455 41.9604 24.7246 41.9604 24.334C41.9604 24.0215 41.7651 23.8506 41.2329 23.7285L40.393 23.5381C39.3822 23.3086 38.8842 22.8106 38.8842 22.0586C38.8842 21.0967 39.7143 20.4668 40.9936 20.4668C41.9897 20.4668 42.7612 20.9551 42.9223 21.5508C42.9369 21.6143 42.9467 21.6729 42.9467 21.7315C42.9467 21.9854 42.7856 22.1661 42.4779 22.1661C42.3021 22.1661 42.1263 22.1026 42.014 21.9415C41.7747 21.5851 41.4769 21.3739 40.9642 21.3739C40.4515 21.3739 40.0658 21.6192 40.0658 21.9903C40.0658 22.293 40.2904 22.4981 40.8275 22.6202L41.6527 22.8009C42.7465 23.0499 43.181 23.4454 43.181 24.212C43.181 25.2032 42.2923 25.8526 40.9739 25.8526H40.9741V25.8525Z" fill="black"/>
</svg>
