<svg width="56" height="54" viewBox="0 0 56 54" fill="none" xmlns="http://www.w3.org/2000/svg">
<path d="M10.4131 37.0476C10.3351 27.0606 10.2361 17.0726 10.1191 7.08457L10.1192 7.08213C10.1232 6.91611 10.1362 6.7501 10.1563 6.58396C10.1763 6.41892 10.2023 6.25498 10.2355 6.09153C10.2675 5.92954 10.3065 5.76853 10.3527 5.60972C10.3997 5.45176 10.4517 5.29575 10.5115 5.14158C10.6985 4.66758 10.9535 4.21665 11.27 3.81431C11.583 3.41733 11.956 3.06833 12.3725 2.78391C12.7875 2.50193 13.2465 2.28391 13.7258 2.13694C14.2078 1.98984 14.7118 1.91392 15.2141 1.90659C19.3081 1.87168 23.4021 1.85459 27.4963 1.85496C31.5893 1.85496 35.6833 1.87192 39.7776 1.9072C39.9396 1.91013 40.1016 1.92112 40.2635 1.93772C40.5035 1.96372 40.7435 2.00474 40.9799 2.0615C41.2139 2.11851 41.4449 2.1904 41.6697 2.27952C41.9037 2.37253 42.1287 2.4835 42.3449 2.61069C42.562 2.73862 42.7689 2.88267 42.9627 3.0416C43.1577 3.20164 43.3417 3.37668 43.5105 3.56321C43.6795 3.75217 43.8355 3.9542 43.976 4.16575C44.257 4.59482 44.475 5.06479 44.625 5.55649C44.776 6.05442 44.858 6.57444 44.873 7.09263C44.752 17.0696 44.654 27.0466 44.58 37.0251C44.574 37.185 44.5601 37.3451 44.539 37.5036C44.518 37.6646 44.491 37.8236 44.4569 37.9813C44.4239 38.1402 44.3839 38.2983 44.3358 38.4537C44.2888 38.6097 44.2349 38.7636 44.175 38.9156C43.984 39.3907 43.728 39.8407 43.4172 40.2495C43.1032 40.6605 42.7352 41.0285 42.3244 41.3395C41.9154 41.6495 41.4624 41.9035 40.9838 42.0906C40.5098 42.2755 40.0098 42.3955 39.5063 42.4435C31.5073 42.9535 23.4843 42.9535 15.4849 42.4436C15.1529 42.4116 14.8229 42.3476 14.5024 42.2535C14.1794 42.1595 13.8654 42.0345 13.5632 41.8819C12.9602 41.5749 12.4092 41.1568 11.9476 40.6577C11.4866 40.1606 11.1126 39.5816 10.849 38.9596C10.719 38.6516 10.615 38.3325 10.5411 38.0056C10.4691 37.6836 10.4241 37.3546 10.4111 37.0245" stroke="#16215B" stroke-width="0.283" stroke-miterlimit="10"/>
<rect x="13.1855" y="5.52831" width="28.63" height="34.31" rx="1.43" stroke="#00FFFF" stroke-width="0.28"/>
<path d="M43.4399 36.5841C43.4578 31.7321 43.4778 26.8791 43.5009 22.0272C43.5219 17.1742 43.5469 12.3221 43.5759 7.46909C43.5767 7.32443 43.5717 7.18039 43.5596 7.03745C43.5497 6.89438 43.5317 6.75143 43.5076 6.61044C43.4606 6.32834 43.3887 6.05441 43.2897 5.7894C43.2646 5.72336 43.2386 5.65744 43.2106 5.59238C43.1816 5.52634 43.1526 5.4614 43.1216 5.39841C43.0587 5.27036 42.9907 5.14743 42.9156 5.02841C42.7667 4.79037 42.5936 4.5704 42.3937 4.36642C42.1957 4.16342 41.9777 3.98642 41.7437 3.83334C41.6266 3.75742 41.5057 3.68637 41.3796 3.62241C41.3167 3.59042 41.2537 3.55942 41.1877 3.53036C41.1237 3.50034 41.0566 3.47336 40.9907 3.44736C40.7236 3.34335 40.4507 3.2684 40.1716 3.21738C39.8926 3.16635 39.6077 3.14035 39.3167 3.13742C38.3378 3.12985 37.3568 3.1218 36.3738 3.11581C35.3898 3.10886 34.4058 3.10385 33.4208 3.09885C31.4498 3.09079 29.4758 3.08688 27.4988 3.08688C27.0038 3.08688 26.5098 3.08688 26.0148 3.08688C25.5208 3.08786 25.0258 3.08884 24.5308 3.08981C23.5418 3.09189 22.5538 3.09482 21.5688 3.09885C19.5968 3.10788 17.6328 3.12082 15.6758 3.13779C15.5301 3.13889 15.3861 3.14682 15.2411 3.15988C15.0981 3.1738 14.9541 3.19284 14.8131 3.21884C14.5301 3.27084 14.2561 3.34787 13.9911 3.45187C13.9251 3.47787 13.8601 3.50485 13.7951 3.53488C13.7301 3.56381 13.6651 3.59579 13.6021 3.6279C13.4751 3.69382 13.3541 3.76486 13.2361 3.84286C13.0011 3.9968 12.7841 4.17587 12.5861 4.37985C12.5371 4.4299 12.4891 4.48288 12.4431 4.53586C12.3971 4.58884 12.3521 4.64279 12.3091 4.69882C12.2231 4.80881 12.1431 4.9238 12.0691 5.04184C11.9951 5.16086 11.9281 5.2839 11.8651 5.40988C11.8351 5.47287 11.8061 5.53683 11.7781 5.60287C11.7501 5.66782 11.7241 5.73483 11.6991 5.80185C11.6011 6.06784 11.5301 6.34079 11.4841 6.61887C11.4381 6.89682 11.4151 7.18088 11.4171 7.46982C11.4454 12.3224 11.4714 17.1744 11.4935 22.0274C11.5165 26.8794 11.5355 31.7324 11.5535 36.5844C11.5541 36.8712 11.5781 37.1551 11.6281 37.4392C11.6411 37.5101 11.6552 37.5811 11.6701 37.6511C11.6862 37.7212 11.7021 37.7911 11.7211 37.8601C11.7581 37.9991 11.8011 38.1351 11.8502 38.2701C11.8991 38.4051 11.9531 38.5382 12.0151 38.6682C12.0461 38.7331 12.0771 38.7982 12.1121 38.8622C12.1461 38.9261 12.1812 38.9901 12.2181 39.0532C12.3651 39.3032 12.5331 39.5361 12.7241 39.7531C12.8192 39.8612 12.9201 39.9652 13.0272 40.0652C13.0791 40.1151 13.1342 40.1632 13.1901 40.2102C13.2451 40.2572 13.3011 40.3021 13.3591 40.3462C13.5881 40.5211 13.8322 40.6721 14.0921 40.7982C14.1571 40.8302 14.2231 40.8601 14.2902 40.8882C14.3571 40.9171 14.4241 40.9431 14.4921 40.9681C14.6281 41.0182 14.7651 41.0611 14.9041 41.0971C15.1801 41.1692 15.4631 41.2131 15.7512 41.2312C16.7243 41.2916 17.6993 41.3446 18.6773 41.3896C19.6533 41.4356 20.6323 41.4726 21.6113 41.5027C23.5683 41.5636 25.5293 41.5936 27.4943 41.5936C27.9853 41.5936 28.4773 41.5916 28.9683 41.5876C29.4593 41.5846 29.9513 41.5786 30.4423 41.5706C31.4253 41.5556 32.4063 41.5335 33.3863 41.5027C35.3443 41.4426 37.2963 41.3526 39.2416 41.2315C39.3866 41.2226 39.5296 41.2066 39.6726 41.1845C39.7436 41.1726 39.8146 41.1596 39.8866 41.1446C39.9566 41.1296 40.0276 41.1136 40.0966 41.0946C40.3766 41.0226 40.6456 40.9226 40.9046 40.7956C40.9706 40.7646 41.0336 40.7315 41.0966 40.6966C41.1606 40.6616 41.2236 40.6246 41.2856 40.5855C41.4096 40.5096 41.5286 40.4266 41.6426 40.3386C41.8726 40.1635 42.0826 39.9666 42.2736 39.7486C42.3216 39.6936 42.3676 39.6375 42.4136 39.5807C42.4586 39.5237 42.5026 39.4655 42.5446 39.4066C42.6296 39.2896 42.7076 39.1685 42.7796 39.0446C42.9256 38.7966 43.0466 38.5376 43.1446 38.2656C43.1696 38.1976 43.1926 38.1286 43.2146 38.0595C43.2356 37.9906 43.2556 37.9216 43.2736 37.8526C43.3106 37.7136 43.3416 37.5746 43.3656 37.4345C43.4146 37.1537 43.4386 36.8706 43.4399 36.5841Z" stroke="#FF00FF" stroke-width="0.283465" stroke-miterlimit="10" stroke-linecap="round" stroke-linejoin="round"/>
<path fill-rule="evenodd" clip-rule="evenodd" d="M19.3111 10.177C18.5467 10.177 17.9268 10.7969 17.9268 11.5613C17.9268 12.3258 18.5466 12.9456 19.3111 12.9456H20.5554C20.6328 12.9456 20.6954 12.883 20.6954 12.8056V11.5613C20.6954 10.7969 20.0756 10.177 19.3111 10.177ZM22.2554 12.9456C22.1781 12.9456 22.1154 12.883 22.1154 12.8056V11.5613C22.1154 10.0126 20.8599 8.75703 19.3111 8.75703C17.7624 8.75703 16.5068 10.0126 16.5068 11.5613C16.5068 13.11 17.7623 14.3656 19.3111 14.3656H20.5554C20.6328 14.3656 20.6954 14.4283 20.6954 14.5056V16.9943C20.6954 17.0717 20.6328 17.1343 20.5554 17.1343H19.3111C17.7624 17.1343 16.5068 18.3899 16.5068 19.9386C16.5068 21.4874 17.7624 22.7429 19.3111 22.7429C20.8598 22.7429 22.1154 21.4875 22.1154 19.9386V18.6943C22.1154 18.617 22.1781 18.5543 22.2554 18.5543H24.7435C24.8207 18.5543 24.8834 18.617 24.8835 18.6943L24.8841 19.9386C24.8841 21.4874 26.1397 22.7429 27.6884 22.7429C29.2372 22.7429 30.4927 21.4874 30.4927 19.9386C30.4927 18.3899 29.2373 17.1343 27.6884 17.1343H26.4441C26.3668 17.1343 26.3041 17.0717 26.3041 16.9943V14.5056C26.3041 14.4283 26.3668 14.3656 26.4441 14.3656H27.6884C29.2372 14.3656 30.4927 13.1101 30.4927 11.5613C30.4927 10.0126 29.2372 8.75703 27.6884 8.75703C26.1397 8.75703 24.8841 10.0125 24.8841 11.5613V12.8056C24.8841 12.883 24.8215 12.9456 24.7441 12.9456H22.2554ZM22.2554 14.3656C22.1781 14.3656 22.1154 14.4283 22.1154 14.5056V16.9943C22.1154 17.0717 22.1781 17.1343 22.2554 17.1343H24.7434C24.8207 17.1343 24.8834 17.0717 24.8834 16.9944L24.8841 14.5057C24.8841 14.4283 24.8214 14.3656 24.7441 14.3656H22.2554ZM26.4441 18.5543C26.3668 18.5543 26.3041 18.617 26.3041 18.6943V19.9386C26.3041 20.7031 26.924 21.3229 27.6884 21.3229C28.4529 21.3229 29.0727 20.7031 29.0727 19.9386C29.0727 19.1741 28.453 18.5543 27.6884 18.5543H26.4441ZM26.3041 12.8056C26.3041 12.883 26.3668 12.9456 26.4441 12.9456H27.6884C28.4529 12.9456 29.0727 12.3258 29.0727 11.5613C29.0727 10.7969 28.4529 10.177 27.6884 10.177C26.9239 10.177 26.3041 10.7968 26.3041 11.5613V12.8056ZM20.6954 18.6943C20.6954 18.617 20.6328 18.5543 20.5554 18.5543H19.3111C18.5467 18.5543 17.9268 19.1742 17.9268 19.9386C17.9268 20.7031 18.5467 21.3229 19.3111 21.3229C20.0756 21.3229 20.6954 20.7032 20.6954 19.9386V18.6943Z" fill="black"/>
<path d="M19.7979 35.8672C17.7617 35.8672 16.5068 34.4853 16.5068 32.2246C16.5068 29.9639 17.7813 28.5869 19.7735 28.5869C21.0772 28.5869 22.1075 29.1973 22.5714 30.2275C22.6495 30.3886 22.6886 30.5547 22.6886 30.7011C22.6886 31.038 22.4689 31.2529 22.132 31.2529C21.8439 31.2529 21.6535 31.1162 21.5168 30.8086C21.1896 30.0518 20.55 29.6562 19.7834 29.6562C18.5724 29.6562 17.7961 30.6523 17.7961 32.2246C17.7961 33.7969 18.5676 34.7979 19.7883 34.7979C20.594 34.7979 21.2141 34.4463 21.5364 33.7041C21.6634 33.416 21.8245 33.2988 22.0979 33.2988C22.4446 33.2988 22.6838 33.5283 22.6838 33.8603C22.6838 34.0214 22.6447 34.1679 22.5666 34.3339C22.1174 35.2909 21.1164 35.8671 19.798 35.8671L19.7979 35.8672Z" fill="black"/>
<path d="M34.7777 31.4817C35.5347 31.4817 36.0377 32.141 36.0426 33.1568C36.0377 34.1628 35.5639 34.8319 34.7777 34.8319C33.9915 34.8319 33.5031 34.1775 33.5031 33.1568C33.5031 32.1312 34.0207 31.4817 34.7777 31.4817ZM32.2578 33.1569C32.2578 34.8125 33.0929 35.8331 34.4067 35.8331C34.8927 35.8331 35.6628 35.5891 35.9637 35.4871C36.0312 35.4642 36.1059 35.4939 36.1376 35.5579C36.1456 35.5742 36.1539 35.5904 36.1643 35.6052C36.2837 35.7757 36.4594 35.8477 36.6581 35.8477C37.0049 35.8477 37.249 35.6231 37.249 35.2226V29.245C37.2489 28.8347 36.9999 28.6052 36.6433 28.6052C36.2867 28.6052 36.0328 28.8347 36.0328 29.245V30.7251C36.0328 30.8278 35.9269 30.8967 35.8333 30.8545C35.4714 30.6916 34.8687 30.4854 34.387 30.4854C33.088 30.4854 32.2578 31.5061 32.2578 33.1568V33.1569Z" fill="black"/>
<path d="M23.8555 35.2078V31.0908C23.8555 30.6952 24.0948 30.4705 24.4366 30.4705C24.5906 30.4705 24.7239 30.517 24.8257 30.6023C24.8865 30.6532 24.9309 30.7227 24.9611 30.7825C24.9949 30.8495 25.076 30.8774 25.1447 30.8469C25.4137 30.7275 26.0388 30.4754 26.5221 30.4754C27.1352 30.4754 27.704 30.7977 27.8976 30.92C27.9411 30.9475 27.996 30.9491 28.0411 30.9244C28.2576 30.8056 28.9214 30.4754 29.6086 30.4754C30.6294 30.4754 31.2985 31.1641 31.2985 32.1994V35.2079C31.2985 35.6133 31.0543 35.8477 30.6929 35.8477C30.3315 35.8477 30.0824 35.6133 30.0824 35.2079V32.4973C30.0824 31.8624 29.7503 31.501 29.1545 31.501C28.5586 31.501 28.1679 31.9308 28.1679 32.5511V35.2079C28.1679 35.6133 27.9383 35.8477 27.5769 35.8477C27.2155 35.8477 26.9859 35.6133 26.9859 35.2079V32.4338C26.9859 31.8575 26.6343 31.5009 26.0678 31.5009C25.5013 31.5009 25.0715 31.9551 25.0715 32.5803V35.2078C25.0715 35.6132 24.8224 35.8476 24.461 35.8476C24.0997 35.8476 23.8555 35.6132 23.8555 35.2078Z" fill="black"/>
</svg>
