<svg width="82" height="54" viewBox="0 0 82 54" fill="none" xmlns="http://www.w3.org/2000/svg">
<rect x="2.3501" y="1.84998" width="77.3" height="50.3" rx="3" stroke="#8B1EFF" stroke-width="0.28"/>
<path d="M71.5068 37.0027C71.5848 27.0807 71.6919 17.1587 71.8298 7.23665C71.8199 6.87965 71.7788 6.52266 71.7035 6.17201C71.6305 5.82301 71.5245 5.48201 71.3847 5.15382C71.2467 4.82881 71.0757 4.51686 70.876 4.22511C70.676 3.93513 70.448 3.66512 70.1949 3.42079C69.9419 3.17781 69.6649 2.96077 69.3693 2.77412C69.0733 2.58711 68.7583 2.42915 68.4325 2.30342C68.1065 2.17744 67.7675 2.0815 67.4237 2.01741C67.0777 1.95345 66.7278 1.91939 66.3745 1.91585C49.4605 1.82491 32.5455 1.82491 15.6317 1.91548C15.2937 1.92159 14.9567 1.95454 14.6241 2.01485C14.2921 2.07381 13.9641 2.15974 13.6495 2.27437C13.4005 2.36739 13.1575 2.47835 12.9246 2.60493C12.6925 2.73299 12.4685 2.87801 12.2568 3.03865C12.0458 3.20058 11.8468 3.37856 11.663 3.57112C11.4779 3.76515 11.3099 3.97414 11.1587 4.19398C11.0067 4.41493 10.8716 4.64796 10.7538 4.88844C10.6358 5.13149 10.5358 5.38149 10.4525 5.63869C10.2864 6.15468 10.1914 6.69667 10.1777 7.23622C10.3117 17.1582 10.4188 27.0802 10.5002 37.0013C10.5251 37.6633 10.6751 38.3273 10.94 38.9409C11.209 39.5659 11.595 40.1389 12.071 40.6231C12.55 41.1111 13.118 41.5101 13.7408 41.796C14.3578 42.0809 15.0288 42.254 15.7026 42.3051C24.1317 42.6481 32.5667 42.8191 41.0034 42.819C49.4394 42.819 57.8744 42.648 66.3044 42.3047C66.9783 42.2537 67.6483 42.0807 68.2662 41.7968C68.8882 41.5098 69.4572 41.1109 69.9361 40.6232C70.4111 40.1383 70.7971 39.5662 71.0675 38.9408C71.3305 38.3278 71.4825 37.6638 71.5066 37.0007" stroke="#8B1EFF" stroke-width="0.283" stroke-miterlimit="10"/>
<path d="M11.7583 38.7131V6.44019C11.7583 5.26575 12.7093 4.31372 13.8843 4.31372H17.4273H64.6312H68.1743C69.3483 4.31372 70.3003 5.26575 70.3003 6.4397V38.7127C70.3003 39.8871 69.3483 40.8391 68.1743 40.8391L13.8843 40.8392C12.7093 40.8392 11.7583 39.8871 11.7583 38.7131Z" stroke="#00FFFF" stroke-width="0.28" stroke-miterlimit="10"/>
<path d="M66.1805 41.1327C49.4365 41.8178 32.5695 41.8178 15.8265 41.1327C15.5304 41.12 15.2384 41.083 14.9494 41.018C14.8044 40.986 14.6624 40.947 14.5224 40.902C14.3833 40.856 14.2453 40.805 14.1104 40.746C13.9754 40.688 13.8443 40.623 13.7154 40.552C13.6503 40.516 13.5864 40.478 13.5224 40.439C13.4603 40.4 13.3984 40.36 13.3384 40.318C13.0964 40.15 12.8724 39.961 12.6694 39.749C12.6184 39.696 12.5683 39.642 12.5194 39.586C12.4714 39.531 12.4244 39.473 12.3783 39.415C12.2874 39.3 12.2024 39.18 12.1243 39.057C11.9684 38.811 11.8374 38.552 11.7304 38.28C11.7044 38.211 11.6794 38.142 11.6564 38.073C11.6333 38.003 11.6113 37.933 11.5914 37.863C11.5524 37.723 11.5184 37.582 11.4924 37.44C11.4393 37.156 11.4133 36.869 11.4124 36.577C11.3963 31.7904 11.3783 27.0025 11.3583 22.2155C11.3382 17.4284 11.3153 12.6414 11.2903 7.85341C11.2815 7.69783 11.2755 7.54182 11.2765 7.38686C11.2775 7.23085 11.2865 7.07686 11.3035 6.92287C11.3105 6.84584 11.3215 6.76881 11.3335 6.69185C11.3455 6.61482 11.3595 6.53883 11.3755 6.46187C11.4075 6.31087 11.4475 6.16182 11.4955 6.01485C11.5425 5.86885 11.5975 5.72585 11.6625 5.58485C11.6935 5.51485 11.7275 5.44582 11.7635 5.37685C11.8005 5.30885 11.8385 5.24086 11.8785 5.17384C12.0375 4.90883 12.2245 4.66682 12.4395 4.44685C12.4935 4.39186 12.5495 4.33784 12.6065 4.28682C12.6355 4.25984 12.6645 4.23482 12.6935 4.20882C12.7235 4.18385 12.7535 4.15883 12.7835 4.13387C12.9045 4.03682 13.0305 3.94582 13.1605 3.86287C13.4205 3.69685 13.6985 3.55983 13.9925 3.44887C14.2865 3.33882 14.5875 3.25984 14.8925 3.20686C15.1985 3.15382 15.5105 3.12685 15.8255 3.12581C32.57 3.03383 49.437 3.03383 66.18 3.12581C66.4961 3.12691 66.8081 3.15388 67.1131 3.20686C67.4191 3.2599 67.7201 3.33888 68.0141 3.44887C68.3081 3.55989 68.5851 3.69691 68.8461 3.86287C68.9761 3.94588 69.1011 4.0359 69.2221 4.13387C69.2521 4.15889 69.2821 4.18391 69.3121 4.20888C69.3411 4.2339 69.3701 4.2599 69.4001 4.2859C69.4561 4.33791 69.5121 4.39186 69.5661 4.44691C69.7801 4.66591 69.9681 4.90889 70.1281 5.1739C70.1681 5.23988 70.2061 5.30788 70.2421 5.37691C70.2791 5.4449 70.3121 5.51491 70.3441 5.58492C70.4071 5.72487 70.4631 5.86891 70.5111 6.01491C70.5591 6.1609 70.5991 6.30989 70.6301 6.46187C70.6471 6.53792 70.6601 6.61488 70.6731 6.69087C70.6851 6.7679 70.6951 6.84486 70.7031 6.92189C70.7201 7.07588 70.7281 7.23091 70.7301 7.38588C70.7311 7.54091 70.7251 7.69691 70.7161 7.85286C70.691 12.64 70.668 17.428 70.648 22.215C70.627 27.002 70.61 31.79 70.594 36.5767C70.593 36.8687 70.566 37.1587 70.513 37.4458C70.486 37.5907 70.452 37.7327 70.412 37.8717C70.372 38.0117 70.326 38.1497 70.273 38.2847C70.22 38.4198 70.16 38.5527 70.094 38.6837C70.061 38.7497 70.026 38.8147 69.99 38.8787C69.952 38.9428 69.914 39.0058 69.875 39.0667C69.717 39.3137 69.536 39.5427 69.332 39.7547C69.282 39.8067 69.229 39.8587 69.175 39.9087C69.121 39.9597 69.066 40.0087 69.009 40.0567C68.896 40.1527 68.78 40.2417 68.659 40.3237C68.417 40.4898 68.161 40.6317 67.89 40.7487C67.823 40.7777 67.753 40.8057 67.684 40.8317C67.615 40.8577 67.545 40.8817 67.475 40.9038C67.335 40.9497 67.194 40.9877 67.051 41.0197C66.766 41.0827 66.475 41.1207 66.1805 41.1327Z" stroke="#FF00FF" stroke-width="0.283465" stroke-miterlimit="10" stroke-linecap="round" stroke-linejoin="round"/>
<path d="M66.9144 44.9191V50.01H66.2979V45.5654H66.2681L65.0252 46.3907V45.7643L66.2979 44.9191H66.9144ZM68.5153 50.0498C68.3926 50.0498 68.2874 50.0059 68.1996 49.918C68.1117 49.8302 68.0678 49.725 68.0678 49.6023C68.0678 49.4797 68.1117 49.3745 68.1996 49.2866C68.2874 49.1988 68.3926 49.1549 68.5153 49.1549C68.6379 49.1549 68.7431 49.1988 68.831 49.2866C68.9188 49.3745 68.9627 49.4797 68.9627 49.6023C68.9627 49.6835 68.942 49.7581 68.9006 49.8261C68.8608 49.894 68.8069 49.9487 68.739 49.9901C68.6727 50.0299 68.5981 50.0498 68.5153 50.0498ZM71.4939 50.0796C71.2022 50.0796 70.9395 50.0216 70.7059 49.9056C70.4722 49.7896 70.2849 49.6305 70.1441 49.4283C70.0032 49.2262 69.9262 48.9958 69.9129 48.7373H70.5095C70.5327 48.9676 70.6371 49.1582 70.8227 49.309C71.01 49.4582 71.2337 49.5327 71.4939 49.5327C71.7027 49.5327 71.8883 49.4838 72.0507 49.3861C72.2148 49.2883 72.3432 49.1541 72.436 48.9834C72.5305 48.811 72.5777 48.6163 72.5777 48.3992C72.5777 48.1771 72.5288 47.9791 72.431 47.8051C72.3349 47.6294 72.2023 47.4911 72.0333 47.39C71.8643 47.2889 71.6712 47.2375 71.4541 47.2359C71.2983 47.2342 71.1384 47.2582 70.9743 47.308C70.8103 47.356 70.6752 47.4182 70.5692 47.4944L69.9925 47.4248L70.3007 44.9191H72.9456V45.466H70.8177L70.6388 46.9674H70.6686C70.773 46.8845 70.9039 46.8158 71.0613 46.7611C71.2188 46.7064 71.3828 46.679 71.5535 46.679C71.8651 46.679 72.1427 46.7536 72.3863 46.9028C72.6315 47.0503 72.8238 47.2524 72.963 47.5093C73.1038 47.7662 73.1743 48.0595 73.1743 48.3893C73.1743 48.7141 73.1014 49.0041 72.9555 49.2593C72.8113 49.5129 72.6125 49.7134 72.3589 49.8609C72.1054 50.0067 71.817 50.0796 71.4939 50.0796ZM75.8223 50.0796C75.4477 50.0796 75.1287 49.9777 74.8652 49.7739C74.6017 49.5684 74.4004 49.2709 74.2612 48.8815C74.122 48.4904 74.0524 48.0181 74.0524 47.4646C74.0524 46.9144 74.122 46.4446 74.2612 46.0551C74.402 45.664 74.6042 45.3657 74.8677 45.1602C75.1329 44.9531 75.4511 44.8495 75.8223 44.8495C76.1935 44.8495 76.5108 44.9531 76.7743 45.1602C77.0395 45.3657 77.2417 45.664 77.3809 46.0551C77.5217 46.4446 77.5922 46.9144 77.5922 47.4646C77.5922 48.0181 77.5225 48.4904 77.3833 48.8815C77.2441 49.2709 77.0428 49.5684 76.7793 49.7739C76.5158 49.9777 76.1968 50.0796 75.8223 50.0796ZM75.8223 49.5327C76.1935 49.5327 76.4818 49.3538 76.6873 48.9958C76.8928 48.6379 76.9956 48.1274 76.9956 47.4646C76.9956 47.0237 76.9483 46.6484 76.8539 46.3385C76.7611 46.0286 76.6268 45.7924 76.4512 45.63C76.2772 45.4676 76.0675 45.3864 75.8223 45.3864C75.4544 45.3864 75.1668 45.5679 74.9597 45.9308C74.7525 46.2921 74.649 46.8033 74.649 47.4646C74.649 47.9054 74.6954 48.2799 74.7882 48.5881C74.881 48.8964 75.0144 49.1309 75.1884 49.2916C75.3641 49.4524 75.5753 49.5327 75.8223 49.5327Z" fill="#0000FF"/>
<path fill-rule="evenodd" clip-rule="evenodd" d="M19.3111 10.177C18.5467 10.177 17.9268 10.7968 17.9268 11.5613C17.9268 12.3258 18.5466 12.9456 19.3111 12.9456H20.5554C20.6328 12.9456 20.6954 12.8829 20.6954 12.8056V11.5613C20.6954 10.7968 20.0756 10.177 19.3111 10.177ZM22.2554 12.9456C22.1781 12.9456 22.1154 12.8829 22.1154 12.8056V11.5613C22.1154 10.0126 20.8599 8.75702 19.3111 8.75702C17.7624 8.75702 16.5068 10.0126 16.5068 11.5613C16.5068 13.11 17.7623 14.3656 19.3111 14.3656H20.5554C20.6328 14.3656 20.6954 14.4283 20.6954 14.5056V16.9943C20.6954 17.0716 20.6328 17.1343 20.5554 17.1343H19.3111C17.7624 17.1343 16.5068 18.3899 16.5068 19.9386C16.5068 21.4873 17.7624 22.7429 19.3111 22.7429C20.8598 22.7429 22.1154 21.4875 22.1154 19.9386V18.6943C22.1154 18.617 22.1781 18.5543 22.2554 18.5543H24.7435C24.8207 18.5543 24.8834 18.617 24.8835 18.6942L24.8841 19.9386C24.8841 21.4873 26.1397 22.7429 27.6884 22.7429C29.2372 22.7429 30.4927 21.4873 30.4927 19.9386C30.4927 18.3899 29.2373 17.1343 27.6884 17.1343H26.4441C26.3668 17.1343 26.3041 17.0716 26.3041 16.9943V14.5056C26.3041 14.4283 26.3668 14.3656 26.4441 14.3656H27.6884C29.2372 14.3656 30.4927 13.11 30.4927 11.5613C30.4927 10.0126 29.2372 8.75702 27.6884 8.75702C26.1397 8.75702 24.8841 10.0125 24.8841 11.5613V12.8056C24.8841 12.8829 24.8215 12.9456 24.7441 12.9456H22.2554ZM22.2554 14.3656C22.1781 14.3656 22.1154 14.4283 22.1154 14.5056V16.9943C22.1154 17.0716 22.1781 17.1343 22.2554 17.1343H24.7434C24.8207 17.1343 24.8834 17.0717 24.8834 16.9944L24.8841 14.5057C24.8841 14.4283 24.8214 14.3656 24.7441 14.3656H22.2554ZM26.4441 18.5543C26.3668 18.5543 26.3041 18.617 26.3041 18.6943V19.9386C26.3041 20.7031 26.924 21.3229 27.6884 21.3229C28.4529 21.3229 29.0727 20.7031 29.0727 19.9386C29.0727 19.1741 28.453 18.5543 27.6884 18.5543H26.4441ZM26.3041 12.8056C26.3041 12.8829 26.3668 12.9456 26.4441 12.9456H27.6884C28.4529 12.9456 29.0727 12.3258 29.0727 11.5613C29.0727 10.7968 28.4529 10.177 27.6884 10.177C26.9239 10.177 26.3041 10.7968 26.3041 11.5613V12.8056ZM20.6954 18.6943C20.6954 18.617 20.6328 18.5543 20.5554 18.5543H19.3111C18.5467 18.5543 17.9268 19.1741 17.9268 19.9386C17.9268 20.7031 18.5467 21.3229 19.3111 21.3229C20.0756 21.3229 20.6954 20.7032 20.6954 19.9386V18.6943Z" fill="black"/>
<path d="M20.172 35.8672C18.1358 35.8672 16.8809 34.4853 16.8809 32.2246C16.8809 29.9639 18.1554 28.5869 20.1476 28.5869C21.4513 28.5869 22.4816 29.1973 22.9455 30.2275C23.0236 30.3886 23.0627 30.5547 23.0627 30.7011C23.0627 31.038 22.843 31.2529 22.5061 31.2529C22.218 31.2529 22.0276 31.1162 21.8909 30.8086C21.5637 30.0518 20.9241 29.6562 20.1575 29.6562C18.9465 29.6562 18.1702 30.6523 18.1702 32.2246C18.1702 33.7969 18.9417 34.7979 20.1624 34.7979C20.9681 34.7979 21.5882 34.4463 21.9105 33.7041C22.0375 33.416 22.1986 33.2988 22.472 33.2988C22.8187 33.2988 23.0579 33.5283 23.0579 33.8603C23.0579 34.0214 23.0188 34.1679 22.9407 34.3339C22.4915 35.2909 21.4905 35.8671 20.1721 35.8671L20.172 35.8672Z" fill="black"/>
<path d="M50.3712 33.8313C50.3712 34.4562 49.8147 34.9152 49.1311 34.9152C48.6039 34.9152 48.2474 34.6467 48.2474 34.222C48.2474 33.7973 48.5843 33.5483 49.1701 33.5092L50.3185 33.4392C50.347 33.4375 50.3711 33.4601 50.3711 33.4887V33.8315L50.3712 33.8313ZM49.4533 30.4674C48.4622 30.4674 47.8906 30.8077 47.5983 31.1351C47.429 31.3248 47.4073 31.7242 47.6395 31.9099C47.9109 32.1269 48.3655 31.9645 48.5217 31.7725C48.6619 31.6001 48.9767 31.425 49.4043 31.4194C50.0047 31.4115 50.371 31.7319 50.371 32.2738V32.4764C50.371 32.5027 50.3505 32.5244 50.3242 32.5259L48.999 32.6014C47.7396 32.6795 47.0317 33.3528 47.0317 34.2706C47.0317 35.1884 47.7616 35.8329 48.76 35.8329C49.3918 35.8329 50.0077 35.6679 50.3141 35.5426C50.3784 35.5163 50.4521 35.5411 50.4883 35.6004C50.4911 35.6049 50.4935 35.6087 50.4955 35.6116C50.5769 35.7275 50.7234 35.8475 50.9814 35.8475C51.3232 35.8475 51.5721 35.6278 51.5721 35.2373V32.1859C51.5721 31.146 50.7373 30.4674 49.4533 30.4674Z" fill="black"/>
<path d="M60.8441 31.4817C61.6011 31.4817 62.1041 32.141 62.109 33.1568C62.1041 34.1628 61.6303 34.8319 60.8441 34.8319C60.0579 34.8319 59.5695 34.1775 59.5695 33.1568C59.5695 32.1312 60.0871 31.4817 60.8441 31.4817ZM58.3242 33.1569C58.3242 34.8125 59.1593 35.8331 60.4731 35.8331C60.9591 35.8331 61.7292 35.5891 62.0301 35.4871C62.0976 35.4642 62.1723 35.4939 62.204 35.5579C62.212 35.5742 62.2203 35.5904 62.2307 35.6052C62.3501 35.7757 62.5258 35.8477 62.7245 35.8477C63.0713 35.8477 63.3154 35.6231 63.3154 35.2226V29.245C63.3153 28.8347 63.0663 28.6052 62.7097 28.6052C62.3531 28.6052 62.0992 28.8347 62.0992 29.245V30.7251C62.0992 30.8278 61.9933 30.8967 61.8997 30.8545C61.5378 30.6916 60.9351 30.4854 60.4534 30.4854C59.1544 30.4854 58.3242 31.5061 58.3242 33.1568V33.1569Z" fill="black"/>
<path d="M30.0054 35.2079V31.0909C30.0054 30.6953 30.2447 30.4706 30.5865 30.4706C30.7405 30.4706 30.8738 30.5171 30.9756 30.6024C31.0364 30.6533 31.0808 30.7228 31.111 30.7826C31.1448 30.8496 31.2259 30.8775 31.2946 30.847C31.5636 30.7276 32.1887 30.4755 32.672 30.4755C33.2851 30.4755 33.8539 30.7978 34.0475 30.9201C34.091 30.9476 34.1459 30.9492 34.191 30.9245C34.4075 30.8057 35.0713 30.4755 35.7585 30.4755C36.7793 30.4755 37.4484 31.1642 37.4484 32.1995V35.208C37.4484 35.6134 37.2042 35.8478 36.8428 35.8478C36.4814 35.8478 36.2323 35.6134 36.2323 35.208V32.4974C36.2323 31.8625 35.9002 31.5011 35.3044 31.5011C34.7085 31.5011 34.3178 31.9309 34.3178 32.5512V35.208C34.3178 35.6134 34.0882 35.8478 33.7268 35.8478C33.3654 35.8478 33.1358 35.6134 33.1358 35.208V32.4339C33.1358 31.8576 32.7842 31.501 32.2177 31.501C31.6512 31.501 31.2214 31.9552 31.2214 32.5804V35.2079C31.2214 35.6133 30.9723 35.8477 30.6109 35.8477C30.2496 35.8477 30.0054 35.6133 30.0054 35.2079Z" fill="black"/>
<path d="M38.6235 35.2079V31.0909C38.6235 30.6953 38.8628 30.4706 39.2047 30.4706C39.3587 30.4706 39.492 30.5171 39.5938 30.6024C39.6546 30.6533 39.699 30.7228 39.7292 30.7826C39.763 30.8496 39.8441 30.8775 39.9128 30.847C40.1818 30.7276 40.8068 30.4755 41.2901 30.4755C41.9033 30.4755 42.4721 30.7978 42.6657 30.9201C42.7092 30.9476 42.7641 30.9492 42.8092 30.9245C43.0257 30.8057 43.6894 30.4755 44.3767 30.4755C45.3975 30.4755 46.0665 31.1642 46.0665 32.1995V35.208C46.0665 35.6134 45.8223 35.8478 45.461 35.8478C45.0996 35.8478 44.8505 35.6134 44.8505 35.208V32.4974C44.8505 31.8625 44.5184 31.5011 43.9225 31.5011C43.3266 31.5011 42.936 31.9309 42.936 32.5512V35.208C42.936 35.6134 42.7064 35.8478 42.345 35.8478C41.9836 35.8478 41.754 35.6134 41.754 35.208V32.4339C41.754 31.8576 41.4023 31.501 40.8358 31.501C40.2694 31.501 39.8396 31.9552 39.8396 32.5804V35.2079C39.8396 35.6133 39.5905 35.8477 39.2291 35.8477C38.8677 35.8477 38.6235 35.6133 38.6235 35.2079Z" fill="black"/>
<path d="M52.7529 35.2078V31.0857C52.7529 30.7096 52.9727 30.4703 53.3341 30.4703C53.5409 30.4703 53.7099 30.5508 53.8154 30.6918C53.841 30.726 53.8628 30.7647 53.8805 30.8012C53.9149 30.8719 53.9994 30.902 54.0701 30.8677C54.3363 30.7387 54.9556 30.4752 55.571 30.4752C56.7139 30.4752 57.3635 31.2078 57.3635 32.4044V35.2079C57.3635 35.6182 57.1144 35.8477 56.7579 35.8477C56.4014 35.8477 56.1474 35.6181 56.1474 35.2079V32.6487C56.1474 31.9161 55.8055 31.5058 55.112 31.5058C54.4185 31.5058 53.9691 32.0089 53.9691 32.7512V35.2079C53.9691 35.6182 53.7151 35.8477 53.3586 35.8477C53.0021 35.8477 52.7529 35.6181 52.7529 35.2078Z" fill="black"/>
<path d="M26.5195 30.4668C25.0107 30.4668 24.0146 31.4922 24.0146 33.1621C24.0146 34.832 25.0009 35.8526 26.5195 35.8526C28.0381 35.8526 29.0244 34.8418 29.0244 33.1621C29.0244 31.4824 28.0283 30.4668 26.5195 30.4668ZM26.5195 34.8907C25.748 34.8907 25.25 34.2657 25.25 33.1622C25.25 32.0587 25.7529 31.4337 26.5195 31.4337C27.2861 31.4337 27.789 32.0636 27.789 33.1622C27.789 34.2608 27.2909 34.8907 26.5195 34.8907Z" fill="black"/>
</svg>
