<svg width="82" height="55" viewBox="0 0 82 55" fill="none" xmlns="http://www.w3.org/2000/svg">
<path d="M71.5068 37.0027C71.5848 27.0807 71.6919 17.1587 71.8298 7.23665C71.8199 6.87965 71.7788 6.52266 71.7035 6.17201C71.6305 5.82301 71.5245 5.48201 71.3847 5.15382C71.2467 4.82881 71.0757 4.51686 70.876 4.22511C70.676 3.93513 70.448 3.66512 70.1949 3.42079C69.9419 3.17781 69.6649 2.96077 69.3693 2.77412C69.0733 2.58711 68.7583 2.42915 68.4325 2.30342C68.1065 2.17744 67.7675 2.0815 67.4237 2.01741C67.0777 1.95345 66.7278 1.91939 66.3745 1.91585C49.4605 1.82491 32.5455 1.82491 15.6317 1.91548C15.2937 1.92159 14.9567 1.95454 14.6241 2.01485C14.2921 2.07381 13.9641 2.15974 13.6495 2.27437C13.4005 2.36739 13.1575 2.47835 12.9246 2.60493C12.6925 2.73299 12.4685 2.87801 12.2568 3.03865C12.0458 3.20058 11.8468 3.37856 11.663 3.57112C11.4779 3.76515 11.3099 3.97414 11.1587 4.19398C11.0067 4.41493 10.8716 4.64796 10.7538 4.88844C10.6358 5.13149 10.5358 5.38149 10.4525 5.63869C10.2864 6.15468 10.1914 6.69667 10.1777 7.23622C10.3117 17.1582 10.4188 27.0802 10.5002 37.0013C10.5251 37.6633 10.6751 38.3273 10.94 38.9409C11.209 39.5659 11.595 40.1389 12.071 40.6231C12.55 41.1111 13.118 41.5101 13.7408 41.796C14.3578 42.0809 15.0288 42.254 15.7026 42.3051C24.1317 42.6481 32.5667 42.8191 41.0034 42.819C49.4394 42.819 57.8744 42.648 66.3044 42.3047C66.9783 42.2537 67.6483 42.0807 68.2662 41.7968C68.8882 41.5098 69.4572 41.1109 69.9361 40.6232C70.4111 40.1383 70.7971 39.5662 71.0675 38.9408C71.3305 38.3278 71.4825 37.6638 71.5066 37.0007" stroke="#16215B" stroke-width="0.283" stroke-miterlimit="10"/>
<path d="M11.7583 38.7131V6.44019C11.7583 5.26575 12.7093 4.31372 13.8843 4.31372H17.4273H64.6312H68.1743C69.3483 4.31372 70.3003 5.26575 70.3003 6.4397V38.7127C70.3003 39.8871 69.3483 40.8391 68.1743 40.8391L13.8843 40.8392C12.7093 40.8392 11.7583 39.8871 11.7583 38.7131Z" stroke="#00FFFF" stroke-width="0.28" stroke-miterlimit="10"/>
<path d="M66.1805 41.1327C49.4365 41.8178 32.5695 41.8178 15.8265 41.1327C15.5304 41.12 15.2384 41.083 14.9494 41.018C14.8044 40.986 14.6624 40.947 14.5224 40.902C14.3833 40.856 14.2453 40.805 14.1104 40.746C13.9754 40.688 13.8443 40.623 13.7154 40.552C13.6503 40.516 13.5864 40.478 13.5224 40.439C13.4603 40.4 13.3984 40.36 13.3384 40.318C13.0964 40.15 12.8724 39.961 12.6694 39.749C12.6184 39.696 12.5683 39.642 12.5194 39.586C12.4714 39.531 12.4244 39.473 12.3783 39.415C12.2874 39.3 12.2023 39.18 12.1243 39.057C11.9684 38.811 11.8374 38.552 11.7304 38.28C11.7044 38.211 11.6794 38.142 11.6564 38.073C11.6333 38.003 11.6113 37.933 11.5914 37.863C11.5524 37.723 11.5184 37.582 11.4924 37.44C11.4393 37.156 11.4133 36.869 11.4124 36.577C11.3963 31.7904 11.3783 27.0025 11.3583 22.2155C11.3382 17.4284 11.3153 12.6414 11.2903 7.85341C11.2815 7.69783 11.2755 7.54182 11.2765 7.38686C11.2775 7.23085 11.2865 7.07686 11.3035 6.92287C11.3105 6.84584 11.3215 6.76881 11.3335 6.69185C11.3455 6.61482 11.3595 6.53883 11.3755 6.46187C11.4075 6.31087 11.4475 6.16182 11.4955 6.01485C11.5425 5.86885 11.5975 5.72585 11.6625 5.58485C11.6935 5.51485 11.7275 5.44582 11.7635 5.37685C11.8005 5.30885 11.8385 5.24086 11.8785 5.17384C12.0375 4.90883 12.2245 4.66682 12.4395 4.44685C12.4935 4.39186 12.5495 4.33784 12.6065 4.28682C12.6355 4.25984 12.6645 4.23482 12.6935 4.20882C12.7235 4.18385 12.7535 4.15883 12.7835 4.13387C12.9045 4.03682 13.0305 3.94582 13.1605 3.86287C13.4205 3.69685 13.6985 3.55983 13.9925 3.44887C14.2865 3.33882 14.5875 3.25984 14.8925 3.20686C15.1985 3.15382 15.5105 3.12685 15.8255 3.12581C32.57 3.03383 49.437 3.03383 66.18 3.12581C66.4961 3.12691 66.8081 3.15388 67.1131 3.20686C67.4191 3.2599 67.7201 3.33888 68.0141 3.44887C68.3081 3.55989 68.5851 3.69691 68.8461 3.86287C68.9761 3.94588 69.1011 4.0359 69.2221 4.13387C69.2521 4.15889 69.2821 4.18391 69.3121 4.20888C69.3411 4.2339 69.3701 4.2599 69.4001 4.2859C69.4561 4.33791 69.5121 4.39186 69.5661 4.44691C69.7801 4.66591 69.9681 4.90889 70.1281 5.1739C70.1681 5.23988 70.2061 5.30788 70.2421 5.37691C70.2791 5.4449 70.3121 5.51491 70.3441 5.58492C70.4071 5.72487 70.4631 5.86891 70.5111 6.01491C70.5591 6.1609 70.5991 6.30989 70.6301 6.46187C70.6471 6.53792 70.6601 6.61488 70.6731 6.69087C70.6851 6.7679 70.6951 6.84486 70.7031 6.92189C70.7201 7.07588 70.7281 7.23091 70.7301 7.38588C70.7311 7.54091 70.7251 7.69691 70.7161 7.85286C70.691 12.64 70.668 17.428 70.648 22.215C70.627 27.002 70.61 31.79 70.594 36.5767C70.593 36.8687 70.566 37.1587 70.513 37.4458C70.486 37.5907 70.452 37.7327 70.412 37.8717C70.372 38.0117 70.326 38.1497 70.273 38.2847C70.22 38.4198 70.16 38.5527 70.094 38.6837C70.061 38.7497 70.026 38.8147 69.99 38.8787C69.952 38.9428 69.914 39.0058 69.875 39.0667C69.717 39.3137 69.536 39.5427 69.332 39.7547C69.282 39.8067 69.229 39.8587 69.175 39.9087C69.121 39.9597 69.066 40.0087 69.009 40.0567C68.896 40.1527 68.78 40.2417 68.659 40.3237C68.417 40.4898 68.161 40.6317 67.89 40.7487C67.823 40.7777 67.753 40.8057 67.684 40.8317C67.615 40.8577 67.545 40.8817 67.475 40.9038C67.335 40.9497 67.194 40.9877 67.051 41.0197C66.766 41.0827 66.475 41.1207 66.1805 41.1327Z" stroke="#FF00FF" stroke-width="0.283465" stroke-miterlimit="10" stroke-linecap="round" stroke-linejoin="round"/>
<path d="M65.2894 46.9191V52.01H64.6729V47.5654H64.6431L63.4002 48.3907V47.7643L64.6729 46.9191H65.2894ZM66.8903 52.0498C66.7676 52.0498 66.6624 52.0059 66.5746 51.918C66.4867 51.8302 66.4428 51.725 66.4428 51.6023C66.4428 51.4797 66.4867 51.3745 66.5746 51.2866C66.6624 51.1988 66.7676 51.1549 66.8903 51.1549C67.0129 51.1549 67.1181 51.1988 67.206 51.2866C67.2938 51.3745 67.3377 51.4797 67.3377 51.6023C67.3377 51.6835 67.317 51.7581 67.2756 51.8261C67.2358 51.894 67.1819 51.9487 67.114 51.9901C67.0477 52.0299 66.9731 52.0498 66.8903 52.0498ZM69.8689 52.0796C69.5772 52.0796 69.3145 52.0216 69.0809 51.9056C68.8472 51.7896 68.6599 51.6305 68.5191 51.4283C68.3782 51.2262 68.3012 50.9958 68.2879 50.7373H68.8845C68.9077 50.9676 69.0121 51.1582 69.1977 51.309C69.385 51.4582 69.6087 51.5327 69.8689 51.5327C70.0777 51.5327 70.2633 51.4838 70.4257 51.3861C70.5898 51.2883 70.7182 51.1541 70.811 50.9834C70.9055 50.811 70.9527 50.6163 70.9527 50.3992C70.9527 50.1771 70.9038 49.9791 70.806 49.8051C70.7099 49.6294 70.5773 49.4911 70.4083 49.39C70.2393 49.2889 70.0462 49.2375 69.8291 49.2359C69.6733 49.2342 69.5134 49.2582 69.3493 49.308C69.1853 49.356 69.0502 49.4182 68.9442 49.4944L68.3675 49.4248L68.6757 46.9191H71.3206V47.466H69.1927L69.0138 48.9674H69.0436C69.148 48.8845 69.2789 48.8158 69.4363 48.7611C69.5938 48.7064 69.7578 48.679 69.9285 48.679C70.2401 48.679 70.5177 48.7536 70.7613 48.9028C71.0065 49.0503 71.1988 49.2524 71.338 49.5093C71.4788 49.7662 71.5493 50.0595 71.5493 50.3893C71.5493 50.7141 71.4764 51.0041 71.3305 51.2593C71.1863 51.5129 70.9875 51.7134 70.7339 51.8609C70.4804 52.0067 70.192 52.0796 69.8689 52.0796Z" fill="#0000FF"/>
<path fill-rule="evenodd" clip-rule="evenodd" d="M19.3111 10.177C18.5467 10.177 17.9268 10.7969 17.9268 11.5613C17.9268 12.3258 18.5466 12.9456 19.3111 12.9456H20.5554C20.6328 12.9456 20.6954 12.883 20.6954 12.8056V11.5613C20.6954 10.7969 20.0756 10.177 19.3111 10.177ZM22.2554 12.9456C22.1781 12.9456 22.1154 12.883 22.1154 12.8056V11.5613C22.1154 10.0126 20.8599 8.75703 19.3111 8.75703C17.7624 8.75703 16.5068 10.0126 16.5068 11.5613C16.5068 13.11 17.7623 14.3656 19.3111 14.3656H20.5554C20.6328 14.3656 20.6954 14.4283 20.6954 14.5056V16.9943C20.6954 17.0717 20.6328 17.1343 20.5554 17.1343H19.3111C17.7624 17.1343 16.5068 18.3899 16.5068 19.9386C16.5068 21.4874 17.7624 22.7429 19.3111 22.7429C20.8598 22.7429 22.1154 21.4875 22.1154 19.9386V18.6943C22.1154 18.617 22.1781 18.5543 22.2554 18.5543H24.7435C24.8207 18.5543 24.8834 18.617 24.8835 18.6943L24.8841 19.9386C24.8841 21.4874 26.1397 22.7429 27.6884 22.7429C29.2372 22.7429 30.4927 21.4874 30.4927 19.9386C30.4927 18.3899 29.2373 17.1343 27.6884 17.1343H26.4441C26.3668 17.1343 26.3041 17.0717 26.3041 16.9943V14.5056C26.3041 14.4283 26.3668 14.3656 26.4441 14.3656H27.6884C29.2372 14.3656 30.4927 13.1101 30.4927 11.5613C30.4927 10.0126 29.2372 8.75703 27.6884 8.75703C26.1397 8.75703 24.8841 10.0125 24.8841 11.5613V12.8056C24.8841 12.883 24.8215 12.9456 24.7441 12.9456H22.2554ZM22.2554 14.3656C22.1781 14.3656 22.1154 14.4283 22.1154 14.5056V16.9943C22.1154 17.0717 22.1781 17.1343 22.2554 17.1343H24.7434C24.8207 17.1343 24.8834 17.0717 24.8834 16.9944L24.8841 14.5057C24.8841 14.4283 24.8214 14.3656 24.7441 14.3656H22.2554ZM26.4441 18.5543C26.3668 18.5543 26.3041 18.617 26.3041 18.6943V19.9386C26.3041 20.7031 26.924 21.3229 27.6884 21.3229C28.4529 21.3229 29.0727 20.7031 29.0727 19.9386C29.0727 19.1741 28.453 18.5543 27.6884 18.5543H26.4441ZM26.3041 12.8056C26.3041 12.883 26.3668 12.9456 26.4441 12.9456H27.6884C28.4529 12.9456 29.0727 12.3258 29.0727 11.5613C29.0727 10.7969 28.4529 10.177 27.6884 10.177C26.9239 10.177 26.3041 10.7968 26.3041 11.5613V12.8056ZM20.6954 18.6943C20.6954 18.617 20.6328 18.5543 20.5554 18.5543H19.3111C18.5467 18.5543 17.9268 19.1742 17.9268 19.9386C17.9268 20.7031 18.5467 21.3229 19.3111 21.3229C20.0756 21.3229 20.6954 20.7032 20.6954 19.9386V18.6943Z" fill="black"/>
<path d="M20.172 35.8672C18.1358 35.8672 16.8809 34.4853 16.8809 32.2246C16.8809 29.9639 18.1554 28.5869 20.1476 28.5869C21.4513 28.5869 22.4816 29.1973 22.9455 30.2275C23.0236 30.3886 23.0627 30.5547 23.0627 30.7011C23.0627 31.038 22.843 31.2529 22.5061 31.2529C22.218 31.2529 22.0276 31.1162 21.8909 30.8086C21.5637 30.0518 20.9241 29.6562 20.1575 29.6562C18.9465 29.6562 18.1702 30.6523 18.1702 32.2246C18.1702 33.7969 18.9417 34.7979 20.1624 34.7979C20.9681 34.7979 21.5882 34.4463 21.9105 33.7041C22.0375 33.416 22.1986 33.2988 22.472 33.2988C22.8187 33.2988 23.0579 33.5283 23.0579 33.8603C23.0579 34.0214 23.0188 34.1679 22.9407 34.3339C22.4915 35.2909 21.4905 35.8671 20.1721 35.8671L20.172 35.8672Z" fill="black"/>
<path d="M49.4531 30.4668C48.4619 30.4668 47.8903 30.8071 47.598 31.1346C47.4287 31.3243 47.407 31.7238 47.6392 31.9095C47.9106 32.1265 48.3653 31.9641 48.5215 31.7721C48.6617 31.5997 48.9765 31.4246 49.4042 31.419C50.0047 31.4111 50.371 31.7315 50.371 32.2735V32.533C50.371 32.5593 50.3505 32.581 50.3242 32.5825L48.9989 32.658C47.7393 32.736 47.0312 33.3525 47.0312 34.2704C47.0312 35.1883 47.7613 35.8329 48.7598 35.8329C49.4841 35.8329 50.0209 35.6048 50.2611 35.4795C50.3311 35.443 50.4166 35.4711 50.4529 35.5412C50.5209 35.6725 50.67 35.8475 50.9814 35.8475C51.3232 35.8475 51.5722 35.6278 51.5722 35.2372V32.1855C51.5722 31.1455 50.7373 30.4668 49.4531 30.4668ZM50.3711 33.831C50.3711 34.456 49.8145 34.915 49.1309 34.915C48.6036 34.915 48.2471 34.6465 48.2471 34.2217C48.2471 33.7969 48.584 33.5479 49.1699 33.5088L50.3184 33.4388C50.3469 33.4371 50.371 33.4597 50.371 33.4883V33.8311L50.3711 33.831Z" fill="black"/>
<path d="M60.4737 35.8331C61.0881 35.8331 61.6631 35.5349 61.9459 35.3612C62.0261 35.312 62.1302 35.3528 62.1567 35.4431C62.1742 35.503 62.2026 35.5686 62.2484 35.629C62.3655 35.7836 62.5355 35.8477 62.7247 35.8477C63.0714 35.8477 63.3155 35.6231 63.3155 35.2227V29.2461C63.3155 28.8359 63.0665 28.6064 62.71 28.6064C62.3535 28.6064 62.0996 28.8359 62.0996 29.2461V30.7799C62.0996 30.8878 61.9839 30.9562 61.8894 30.904C61.5982 30.7432 61.0413 30.4863 60.4541 30.4863C59.1553 30.4863 58.3252 31.5068 58.3252 33.1572C58.3252 34.8125 59.1602 35.833 60.4737 35.833V35.8331ZM60.8448 31.4825C61.6016 31.4825 62.1046 32.1417 62.1095 33.1573C62.1046 34.1632 61.6017 34.8321 60.8448 34.8321C60.0587 34.8321 59.5704 34.1778 59.5704 33.1573C59.5704 32.1319 60.0587 31.4825 60.8448 31.4825Z" fill="black"/>
<path d="M30.6109 35.8478C30.2447 35.8478 30.0054 35.6133 30.0054 35.208V31.0917C30.0054 30.6962 30.2447 30.4716 30.5865 30.4716C30.7933 30.4716 30.9917 30.5554 31.0991 30.761C31.1066 30.7754 31.1133 30.79 31.1193 30.8044C31.151 30.881 31.2405 30.9149 31.3141 30.8767C31.5806 30.7384 32.1539 30.4765 32.6715 30.4765C32.9526 30.4765 33.515 30.5297 33.8853 31.0336C33.93 31.0944 34.014 31.1105 34.0772 31.0692C34.3495 30.8915 34.9102 30.4765 35.7575 30.4765C36.778 30.4765 37.447 31.1651 37.447 32.2003V35.208C37.447 35.6133 37.2029 35.8478 36.8415 35.8478C36.4801 35.8478 36.2311 35.6133 36.2311 35.208V32.498C36.2311 31.8632 35.8991 31.5019 35.3034 31.5019C34.7077 31.5019 34.3171 31.9316 34.3171 32.5517V35.208C34.3171 35.6133 34.0876 35.8478 33.7263 35.8478C33.365 35.8478 33.1355 35.6133 33.1355 35.208V32.4345C33.1355 31.8583 32.7839 31.5019 32.2175 31.5019C31.6511 31.5019 31.2214 31.956 31.2214 32.581V35.208C31.2214 35.6133 30.9724 35.8478 30.611 35.8478H30.6109Z" fill="black"/>
<path d="M39.229 35.8478C38.8628 35.8478 38.6235 35.6133 38.6235 35.208V31.0917C38.6235 30.6962 38.8628 30.4716 39.2046 30.4716C39.4114 30.4716 39.6098 30.5554 39.7172 30.761C39.7247 30.7754 39.7314 30.79 39.7374 30.8044C39.7691 30.881 39.8586 30.9149 39.9322 30.8767C40.1987 30.7384 40.772 30.4765 41.2896 30.4765C41.5707 30.4765 42.1331 30.5297 42.5034 31.0336C42.5481 31.0944 42.6321 31.1105 42.6953 31.0692C42.9676 30.8915 43.5283 30.4765 44.3756 30.4765C45.3961 30.4765 46.0651 31.1651 46.0651 32.2003V35.208C46.0651 35.6133 45.821 35.8478 45.4596 35.8478C45.0982 35.8478 44.8492 35.6133 44.8492 35.208V32.498C44.8492 31.8632 44.5172 31.5019 43.9215 31.5019C43.3258 31.5019 42.9352 31.9316 42.9352 32.5517V35.208C42.9352 35.6133 42.7057 35.8478 42.3444 35.8478C41.9831 35.8478 41.7536 35.6133 41.7536 35.208V32.4345C41.7536 31.8583 41.402 31.5019 40.8356 31.5019C40.2692 31.5019 39.8395 31.956 39.8395 32.581V35.208C39.8395 35.6133 39.5905 35.8478 39.2291 35.8478H39.229Z" fill="black"/>
<path d="M53.3594 35.8477C53.003 35.8477 52.7539 35.6181 52.7539 35.2079V31.0868C52.7539 30.7108 52.9736 30.4716 53.335 30.4716C53.4842 30.4716 53.659 30.5107 53.7942 30.6657C53.8407 30.719 53.872 30.7786 53.8932 30.8328C53.9247 30.9137 54.0212 30.947 54.0962 30.9032C54.3594 30.7496 54.9191 30.4765 55.5714 30.4765C56.714 30.4765 57.3634 31.209 57.3634 32.4053V35.208C57.3634 35.6182 57.1144 35.8478 56.7579 35.8478C56.4014 35.8478 56.1475 35.6182 56.1475 35.208V32.6494C56.1475 31.917 55.8057 31.5068 55.1123 31.5068C54.4189 31.5068 53.9697 32.0097 53.9697 32.7519V35.208C53.9697 35.6182 53.7158 35.8478 53.3593 35.8478L53.3594 35.8477Z" fill="black"/>
<path d="M26.5195 30.4668C25.0107 30.4668 24.0146 31.4922 24.0146 33.1621C24.0146 34.832 25.0009 35.8526 26.5195 35.8526C28.0381 35.8526 29.0244 34.8418 29.0244 33.1621C29.0244 31.4824 28.0283 30.4668 26.5195 30.4668ZM26.5195 34.8907C25.748 34.8907 25.25 34.2657 25.25 33.1622C25.25 32.0587 25.7529 31.4337 26.5195 31.4337C27.2861 31.4337 27.789 32.0636 27.789 33.1622C27.789 34.2608 27.2909 34.8907 26.5195 34.8907Z" fill="black"/>
</svg>
