<svg width="81" height="54" viewBox="0 0 81 54" fill="none" xmlns="http://www.w3.org/2000/svg">
<path d="M71.0068 37.0028C71.0848 27.0808 71.1919 17.1588 71.3298 7.23671C71.3199 6.87971 71.2788 6.52272 71.2035 6.17207C71.1305 5.82307 71.0245 5.48207 70.8847 5.15388C70.7467 4.82887 70.5757 4.51692 70.376 4.22517C70.176 3.9352 69.948 3.66518 69.6949 3.42085C69.4419 3.17787 69.1649 2.96083 68.8693 2.77419C68.5733 2.58717 68.2583 2.42921 67.9325 2.30348C67.6065 2.17751 67.2675 2.08156 66.9237 2.01747C66.5777 1.95351 66.2278 1.91945 65.8745 1.91591C48.9605 1.82497 32.0455 1.82497 15.1317 1.91554C14.7937 1.92165 14.4567 1.95461 14.1241 2.01491C13.7921 2.07387 13.4641 2.15981 13.1495 2.27443C12.9005 2.36745 12.6575 2.47841 12.4246 2.605C12.1925 2.73305 11.9685 2.87807 11.7568 3.03871C11.5458 3.20064 11.3468 3.37862 11.163 3.57118C10.9779 3.76521 10.8099 3.9742 10.6587 4.19405C10.5067 4.41499 10.3716 4.64803 10.2538 4.8885C10.1358 5.13155 10.0358 5.38155 9.95245 5.63875C9.78644 6.15474 9.69144 6.69673 9.67773 7.23628C9.81174 17.1583 9.91876 27.0803 10.0002 37.0014C10.0251 37.6633 10.1751 38.3273 10.44 38.9409C10.709 39.5659 11.095 40.1389 11.571 40.6232C12.05 41.1112 12.618 41.5102 13.2408 41.796C13.8578 42.081 14.5288 42.254 15.2026 42.3052C23.6317 42.6482 32.0667 42.8192 40.5034 42.819C48.9394 42.819 57.3744 42.648 65.8044 42.3048C66.4783 42.2537 67.1483 42.0808 67.7662 41.7969C68.3882 41.5099 68.9572 41.1109 69.4361 40.6233C69.9111 40.1383 70.2971 39.5663 70.5675 38.9408C70.8305 38.3278 70.9825 37.6638 71.0066 37.0008" stroke="#16215B" stroke-width="0.283" stroke-miterlimit="10"/>
<path d="M11.2583 38.7131V6.44019C11.2583 5.26575 12.2093 4.31372 13.3843 4.31372H16.9273H64.1312H67.6743C68.8483 4.31372 69.8003 5.26575 69.8003 6.4397V38.7127C69.8003 39.8871 68.8483 40.8391 67.6743 40.8391L13.3843 40.8392C12.2093 40.8392 11.2583 39.8871 11.2583 38.7131Z" stroke="#00FFFF" stroke-width="0.28" stroke-miterlimit="10"/>
<path d="M65.6805 41.1328C48.9365 41.8178 32.0695 41.8178 15.3265 41.1328C15.0304 41.1201 14.7384 41.0831 14.4494 41.0181C14.3044 40.9861 14.1624 40.9471 14.0224 40.9021C13.8833 40.8561 13.7453 40.8051 13.6104 40.746C13.4754 40.6881 13.3443 40.6231 13.2154 40.5521C13.1503 40.5161 13.0864 40.478 13.0224 40.4391C12.9603 40.4001 12.8984 40.3601 12.8384 40.3181C12.5964 40.1501 12.3724 39.9611 12.1694 39.7491C12.1184 39.6961 12.0683 39.642 12.0194 39.5861C11.9714 39.5311 11.9244 39.4731 11.8783 39.4151C11.7874 39.3001 11.7024 39.1801 11.6243 39.0571C11.4684 38.8111 11.3374 38.5521 11.2304 38.28C11.2044 38.2111 11.1794 38.142 11.1564 38.0731C11.1333 38.0031 11.1113 37.9331 11.0914 37.8631C11.0524 37.7231 11.0184 37.582 10.9924 37.4401C10.9393 37.1561 10.9133 36.8691 10.9124 36.577C10.8963 31.7905 10.8783 27.0025 10.8583 22.2155C10.8382 17.4285 10.8153 12.6415 10.7903 7.85347C10.7815 7.69789 10.7755 7.54189 10.7765 7.38692C10.7775 7.23091 10.7865 7.07692 10.8035 6.92293C10.8105 6.8459 10.8215 6.76888 10.8335 6.69191C10.8455 6.61488 10.8595 6.53889 10.8755 6.46193C10.9075 6.31093 10.9475 6.16188 10.9955 6.01491C11.0425 5.86891 11.0975 5.72591 11.1625 5.58492C11.1935 5.51491 11.2275 5.44588 11.2635 5.37691C11.3005 5.30891 11.3385 5.24092 11.3785 5.1739C11.5375 4.90889 11.7245 4.66689 11.9395 4.44691C11.9935 4.39192 12.0495 4.33791 12.1065 4.28688C12.1355 4.2599 12.1645 4.23488 12.1935 4.20888C12.2235 4.18391 12.2535 4.15889 12.2835 4.13393C12.4045 4.03688 12.5305 3.94588 12.6605 3.86293C12.9205 3.69691 13.1985 3.55989 13.4925 3.44893C13.7865 3.33888 14.0875 3.2599 14.3925 3.20692C14.6985 3.15388 15.0105 3.12691 15.3255 3.12587C32.07 3.03389 48.937 3.03389 65.68 3.12587C65.9961 3.12697 66.3081 3.15395 66.6131 3.20692C66.9191 3.25996 67.2201 3.33894 67.5141 3.44893C67.8081 3.55995 68.0851 3.69698 68.3461 3.86293C68.4761 3.94594 68.6011 4.03596 68.7221 4.13393C68.7521 4.15895 68.7821 4.18398 68.8121 4.20894C68.8411 4.23396 68.8701 4.25996 68.9001 4.28596C68.9561 4.33797 69.0121 4.39192 69.0661 4.44698C69.2801 4.66597 69.4681 4.90895 69.6281 5.17397C69.6681 5.23994 69.7061 5.30794 69.7421 5.37697C69.7791 5.44496 69.8121 5.51497 69.8441 5.58498C69.9071 5.72493 69.9631 5.86897 70.0111 6.01497C70.0591 6.16096 70.0991 6.30995 70.1301 6.46193C70.1471 6.53798 70.1601 6.61494 70.1731 6.69093C70.1851 6.76796 70.1951 6.84492 70.2031 6.92195C70.2201 7.07594 70.2281 7.23097 70.2301 7.38594C70.2311 7.54097 70.2251 7.69698 70.2161 7.85292C70.191 12.6401 70.168 17.4281 70.148 22.215C70.127 27.0021 70.11 31.7901 70.094 36.5768C70.093 36.8688 70.066 37.1588 70.013 37.4458C69.986 37.5908 69.952 37.7328 69.912 37.8718C69.872 38.0118 69.826 38.1498 69.773 38.2848C69.72 38.4198 69.66 38.5528 69.594 38.6838C69.561 38.7498 69.526 38.8148 69.49 38.8788C69.452 38.9428 69.414 39.0058 69.375 39.0668C69.217 39.3138 69.036 39.5428 68.832 39.7548C68.782 39.8068 68.729 39.8588 68.675 39.9088C68.621 39.9598 68.566 40.0088 68.509 40.0568C68.396 40.1528 68.28 40.2418 68.159 40.3238C67.917 40.4898 67.661 40.6318 67.39 40.7488C67.323 40.7778 67.253 40.8058 67.184 40.8318C67.115 40.8578 67.045 40.8818 66.975 40.9038C66.835 40.9498 66.694 40.9878 66.551 41.0198C66.266 41.0828 65.975 41.1208 65.6805 41.1328Z" stroke="#FF00FF" stroke-width="0.283465" stroke-miterlimit="10" stroke-linecap="round" stroke-linejoin="round"/>
<path d="M72.7894 46.9191V52.01H72.1729V47.5654H72.1431L70.9002 48.3907V47.7643L72.1729 46.9191H72.7894ZM74.3903 52.0498C74.2676 52.0498 74.1624 52.0059 74.0746 51.918C73.9867 51.8302 73.9428 51.725 73.9428 51.6023C73.9428 51.4797 73.9867 51.3745 74.0746 51.2866C74.1624 51.1988 74.2676 51.1549 74.3903 51.1549C74.5129 51.1549 74.6181 51.1988 74.706 51.2866C74.7938 51.3745 74.8377 51.4797 74.8377 51.6023C74.8377 51.6835 74.817 51.7581 74.7756 51.8261C74.7358 51.894 74.6819 51.9487 74.614 51.9901C74.5477 52.0299 74.4731 52.0498 74.3903 52.0498ZM77.3689 52.0796C77.0772 52.0796 76.8145 52.0216 76.5809 51.9056C76.3472 51.7896 76.1599 51.6305 76.0191 51.4283C75.8782 51.2262 75.8012 50.9958 75.7879 50.7373H76.3845C76.4077 50.9676 76.5121 51.1582 76.6977 51.309C76.885 51.4582 77.1087 51.5327 77.3689 51.5327C77.5777 51.5327 77.7633 51.4838 77.9257 51.3861C78.0898 51.2883 78.2182 51.1541 78.311 50.9834C78.4055 50.811 78.4527 50.6163 78.4527 50.3992C78.4527 50.1771 78.4038 49.9791 78.306 49.8051C78.2099 49.6294 78.0773 49.4911 77.9083 49.39C77.7393 49.2889 77.5462 49.2375 77.3291 49.2359C77.1733 49.2342 77.0134 49.2582 76.8493 49.308C76.6853 49.356 76.5502 49.4182 76.4442 49.4944L75.8675 49.4248L76.1757 46.9191H78.8206V47.466H76.6927L76.5138 48.9674H76.5436C76.648 48.8845 76.7789 48.8158 76.9363 48.7611C77.0938 48.7064 77.2578 48.679 77.4285 48.679C77.7401 48.679 78.0177 48.7536 78.2613 48.9028C78.5065 49.0503 78.6988 49.2524 78.838 49.5093C78.9788 49.7662 79.0493 50.0595 79.0493 50.3893C79.0493 50.7141 78.9764 51.0041 78.8305 51.2593C78.6863 51.5129 78.4875 51.7134 78.2339 51.8609C77.9804 52.0067 77.692 52.0796 77.3689 52.0796Z" fill="#0000FF"/>
<path fill-rule="evenodd" clip-rule="evenodd" d="M18.8111 10.1771C18.0467 10.1771 17.4268 10.7969 17.4268 11.5614C17.4268 12.3259 18.0466 12.9457 18.8111 12.9457H20.0554C20.1328 12.9457 20.1954 12.883 20.1954 12.8057V11.5614C20.1954 10.7969 19.5756 10.1771 18.8111 10.1771ZM21.7554 12.9457C21.6781 12.9457 21.6154 12.883 21.6154 12.8057V11.5614C21.6154 10.0127 20.3599 8.75708 18.8111 8.75708C17.2624 8.75708 16.0068 10.0127 16.0068 11.5614C16.0068 13.1101 17.2623 14.3657 18.8111 14.3657H20.0554C20.1328 14.3657 20.1954 14.4284 20.1954 14.5057V16.9944C20.1954 17.0717 20.1328 17.1344 20.0554 17.1344H18.8111C17.2624 17.1344 16.0068 18.39 16.0068 19.9387C16.0068 21.4874 17.2624 22.743 18.8111 22.743C20.3598 22.743 21.6154 21.4875 21.6154 19.9387V18.6944C21.6154 18.6171 21.6781 18.5544 21.7554 18.5544H24.2435C24.3207 18.5544 24.3834 18.617 24.3835 18.6943L24.3841 19.9387C24.3841 21.4874 25.6397 22.743 27.1884 22.743C28.7372 22.743 29.9927 21.4874 29.9927 19.9387C29.9927 18.39 28.7373 17.1344 27.1884 17.1344H25.9441C25.8668 17.1344 25.8041 17.0717 25.8041 16.9944V14.5057C25.8041 14.4284 25.8668 14.3657 25.9441 14.3657H27.1884C28.7372 14.3657 29.9927 13.1101 29.9927 11.5614C29.9927 10.0127 28.7372 8.75708 27.1884 8.75708C25.6397 8.75708 24.3841 10.0125 24.3841 11.5614V12.8057C24.3841 12.883 24.3215 12.9457 24.2441 12.9457H21.7554ZM21.7554 14.3657C21.6781 14.3657 21.6154 14.4284 21.6154 14.5057V16.9944C21.6154 17.0717 21.6781 17.1344 21.7554 17.1344H24.2434C24.3207 17.1344 24.3834 17.0717 24.3834 16.9944L24.3841 14.5057C24.3841 14.4284 24.3214 14.3657 24.2441 14.3657H21.7554ZM25.9441 18.5544C25.8668 18.5544 25.8041 18.6171 25.8041 18.6944V19.9387C25.8041 20.7032 26.424 21.323 27.1884 21.323C27.9529 21.323 28.5727 20.7032 28.5727 19.9387C28.5727 19.1742 27.953 18.5544 27.1884 18.5544H25.9441ZM25.8041 12.8057C25.8041 12.883 25.8668 12.9457 25.9441 12.9457H27.1884C27.9529 12.9457 28.5727 12.3259 28.5727 11.5614C28.5727 10.7969 27.9529 10.1771 27.1884 10.1771C26.4239 10.1771 25.8041 10.7968 25.8041 11.5614V12.8057ZM20.1954 18.6944C20.1954 18.6171 20.1328 18.5544 20.0554 18.5544H18.8111C18.0467 18.5544 17.4268 19.1742 17.4268 19.9387C17.4268 20.7032 18.0467 21.323 18.8111 21.323C19.5756 21.323 20.1954 20.7032 20.1954 19.9387V18.6944Z" fill="black"/>
<path d="M19.672 35.8672C17.6358 35.8672 16.3809 34.4853 16.3809 32.2246C16.3809 29.9639 17.6554 28.5869 19.6476 28.5869C20.9513 28.5869 21.9816 29.1973 22.4455 30.2275C22.5236 30.3886 22.5627 30.5547 22.5627 30.7011C22.5627 31.038 22.343 31.2529 22.0061 31.2529C21.718 31.2529 21.5276 31.1162 21.3909 30.8086C21.0637 30.0518 20.4241 29.6562 19.6575 29.6562C18.4465 29.6562 17.6702 30.6523 17.6702 32.2246C17.6702 33.7969 18.4417 34.7979 19.6624 34.7979C20.4681 34.7979 21.0882 34.4463 21.4105 33.7041C21.5375 33.416 21.6986 33.2988 21.972 33.2988C22.3187 33.2988 22.5579 33.5283 22.5579 33.8603C22.5579 34.0214 22.5188 34.1679 22.4407 34.3339C21.9915 35.2909 20.9905 35.8671 19.6721 35.8671L19.672 35.8672Z" fill="black"/>
<path d="M48.9531 30.4668C47.9619 30.4668 47.3903 30.8071 47.098 31.1346C46.9287 31.3243 46.907 31.7238 47.1392 31.9095C47.4106 32.1265 47.8653 31.9641 48.0215 31.7721C48.1617 31.5997 48.4765 31.4246 48.9042 31.419C49.5047 31.4111 49.871 31.7315 49.871 32.2735V32.533C49.871 32.5593 49.8505 32.581 49.8242 32.5825L48.4989 32.658C47.2393 32.736 46.5312 33.3525 46.5312 34.2704C46.5312 35.1883 47.2613 35.8329 48.2598 35.8329C48.9841 35.8329 49.5209 35.6048 49.7611 35.4795C49.8311 35.443 49.9166 35.4711 49.9529 35.5412C50.0209 35.6725 50.17 35.8475 50.4814 35.8475C50.8232 35.8475 51.0722 35.6278 51.0722 35.2372V32.1855C51.0722 31.1455 50.2373 30.4668 48.9531 30.4668ZM49.8711 33.831C49.8711 34.456 49.3145 34.915 48.6309 34.915C48.1036 34.915 47.7471 34.6465 47.7471 34.2217C47.7471 33.7969 48.084 33.5479 48.6699 33.5088L49.8184 33.4388C49.8469 33.4371 49.871 33.4597 49.871 33.4883V33.8311L49.8711 33.831Z" fill="black"/>
<path d="M59.9737 35.8331C60.5881 35.8331 61.1631 35.5349 61.4459 35.3612C61.5261 35.312 61.6302 35.3528 61.6567 35.4431C61.6742 35.503 61.7026 35.5686 61.7484 35.629C61.8655 35.7836 62.0355 35.8477 62.2247 35.8477C62.5714 35.8477 62.8155 35.6231 62.8155 35.2227V29.2461C62.8155 28.8359 62.5665 28.6064 62.21 28.6064C61.8535 28.6064 61.5996 28.8359 61.5996 29.2461V30.7799C61.5996 30.8878 61.4839 30.9562 61.3894 30.904C61.0982 30.7432 60.5413 30.4863 59.9541 30.4863C58.6553 30.4863 57.8252 31.5068 57.8252 33.1572C57.8252 34.8125 58.6602 35.833 59.9737 35.833V35.8331ZM60.3448 31.4825C61.1016 31.4825 61.6046 32.1417 61.6095 33.1573C61.6046 34.1632 61.1017 34.8321 60.3448 34.8321C59.5587 34.8321 59.0704 34.1778 59.0704 33.1573C59.0704 32.1319 59.5587 31.4825 60.3448 31.4825Z" fill="black"/>
<path d="M30.1109 35.8478C29.7447 35.8478 29.5054 35.6134 29.5054 35.2081V31.0918C29.5054 30.6963 29.7447 30.4717 30.0865 30.4717C30.2933 30.4717 30.4917 30.5555 30.5991 30.7611C30.6066 30.7755 30.6133 30.7901 30.6193 30.8045C30.651 30.8811 30.7405 30.915 30.8141 30.8768C31.0806 30.7385 31.6539 30.4766 32.1715 30.4766C32.4526 30.4766 33.015 30.5298 33.3853 31.0337C33.43 31.0945 33.514 31.1106 33.5772 31.0693C33.8495 30.8916 34.4102 30.4766 35.2575 30.4766C36.278 30.4766 36.947 31.1651 36.947 32.2003V35.2081C36.947 35.6134 36.7029 35.8478 36.3415 35.8478C35.9801 35.8478 35.7311 35.6134 35.7311 35.2081V32.4981C35.7311 31.8633 35.3991 31.502 34.8034 31.502C34.2077 31.502 33.8171 31.9317 33.8171 32.5518V35.2081C33.8171 35.6134 33.5876 35.8478 33.2263 35.8478C32.865 35.8478 32.6355 35.6134 32.6355 35.2081V32.4346C32.6355 31.8584 32.2839 31.502 31.7175 31.502C31.1511 31.502 30.7214 31.9561 30.7214 32.5811V35.2081C30.7214 35.6134 30.4724 35.8478 30.111 35.8478H30.1109Z" fill="black"/>
<path d="M38.729 35.8478C38.3628 35.8478 38.1235 35.6134 38.1235 35.2081V31.0918C38.1235 30.6963 38.3628 30.4717 38.7046 30.4717C38.9114 30.4717 39.1098 30.5555 39.2172 30.7611C39.2247 30.7755 39.2314 30.7901 39.2374 30.8045C39.2691 30.8811 39.3586 30.915 39.4322 30.8768C39.6987 30.7385 40.272 30.4766 40.7896 30.4766C41.0707 30.4766 41.6331 30.5298 42.0034 31.0337C42.0481 31.0945 42.1321 31.1106 42.1953 31.0693C42.4676 30.8916 43.0283 30.4766 43.8756 30.4766C44.8961 30.4766 45.5651 31.1651 45.5651 32.2003V35.2081C45.5651 35.6134 45.321 35.8478 44.9596 35.8478C44.5982 35.8478 44.3492 35.6134 44.3492 35.2081V32.4981C44.3492 31.8633 44.0172 31.502 43.4215 31.502C42.8258 31.502 42.4352 31.9317 42.4352 32.5518V35.2081C42.4352 35.6134 42.2057 35.8478 41.8444 35.8478C41.4831 35.8478 41.2536 35.6134 41.2536 35.2081V32.4346C41.2536 31.8584 40.902 31.502 40.3356 31.502C39.7692 31.502 39.3395 31.9561 39.3395 32.5811V35.2081C39.3395 35.6134 39.0905 35.8478 38.7291 35.8478H38.729Z" fill="black"/>
<path d="M52.8594 35.8477C52.503 35.8477 52.2539 35.6182 52.2539 35.208V31.0869C52.2539 30.7109 52.4736 30.4717 52.835 30.4717C52.9842 30.4717 53.159 30.5108 53.2942 30.6658C53.3407 30.7191 53.372 30.7786 53.3932 30.8328C53.4247 30.9137 53.5212 30.9471 53.5962 30.9033C53.8594 30.7497 54.4191 30.4766 55.0714 30.4766C56.214 30.4766 56.8634 31.209 56.8634 32.4053V35.2081C56.8634 35.6183 56.6144 35.8478 56.2579 35.8478C55.9014 35.8478 55.6475 35.6183 55.6475 35.2081V32.6495C55.6475 31.9171 55.3057 31.5069 54.6123 31.5069C53.9189 31.5069 53.4697 32.0098 53.4697 32.752V35.2081C53.4697 35.6183 53.2158 35.8478 52.8593 35.8478L52.8594 35.8477Z" fill="black"/>
<path d="M26.0195 30.4668C24.5107 30.4668 23.5146 31.4922 23.5146 33.1621C23.5146 34.832 24.5009 35.8526 26.0195 35.8526C27.5381 35.8526 28.5244 34.8418 28.5244 33.1621C28.5244 31.4824 27.5283 30.4668 26.0195 30.4668ZM26.0195 34.8907C25.248 34.8907 24.75 34.2657 24.75 33.1622C24.75 32.0587 25.2529 31.4337 26.0195 31.4337C26.7861 31.4337 27.289 32.0636 27.289 33.1622C27.289 34.2608 26.7909 34.8907 26.0195 34.8907Z" fill="black"/>
</svg>
