<svg width="81" height="55" viewBox="0 0 81 55" fill="none" xmlns="http://www.w3.org/2000/svg">
<path d="M71.0068 37.0027C71.0848 27.0807 71.1919 17.1587 71.3298 7.23665C71.3199 6.87965 71.2788 6.52266 71.2035 6.17201C71.1305 5.82301 71.0245 5.48201 70.8847 5.15382C70.7467 4.82881 70.5757 4.51686 70.376 4.22511C70.176 3.93513 69.948 3.66512 69.6949 3.42079C69.4419 3.17781 69.1649 2.96077 68.8693 2.77412C68.5733 2.58711 68.2583 2.42915 67.9325 2.30342C67.6065 2.17744 67.2675 2.0815 66.9237 2.01741C66.5777 1.95345 66.2278 1.91939 65.8745 1.91585C48.9605 1.82491 32.0455 1.82491 15.1317 1.91548C14.7937 1.92159 14.4567 1.95454 14.1241 2.01485C13.7921 2.07381 13.4641 2.15974 13.1495 2.27437C12.9005 2.36739 12.6575 2.47835 12.4246 2.60493C12.1925 2.73299 11.9685 2.87801 11.7568 3.03865C11.5458 3.20058 11.3468 3.37856 11.163 3.57112C10.9779 3.76515 10.8099 3.97414 10.6587 4.19398C10.5067 4.41493 10.3716 4.64796 10.2538 4.88844C10.1358 5.13149 10.0358 5.38149 9.95245 5.63869C9.78644 6.15468 9.69144 6.69667 9.67773 7.23622C9.81174 17.1582 9.91876 27.0802 10.0002 37.0013C10.0251 37.6633 10.1751 38.3273 10.44 38.9409C10.709 39.5659 11.095 40.1389 11.571 40.6231C12.05 41.1111 12.618 41.5101 13.2408 41.796C13.8578 42.0809 14.5288 42.254 15.2026 42.3051C23.6317 42.6481 32.0667 42.8191 40.5034 42.819C48.9394 42.819 57.3744 42.648 65.8044 42.3047C66.4783 42.2537 67.1483 42.0807 67.7662 41.7968C68.3882 41.5098 68.9572 41.1109 69.4361 40.6232C69.9111 40.1383 70.2971 39.5662 70.5675 38.9408C70.8305 38.3278 70.9825 37.6638 71.0066 37.0007" stroke="#16215B" stroke-width="0.283" stroke-miterlimit="10"/>
<path d="M11.2583 38.7131V6.44019C11.2583 5.26575 12.2093 4.31372 13.3843 4.31372H16.9273H64.1312H67.6743C68.8483 4.31372 69.8003 5.26575 69.8003 6.4397V38.7127C69.8003 39.8871 68.8483 40.8391 67.6743 40.8391L13.3843 40.8392C12.2093 40.8392 11.2583 39.8871 11.2583 38.7131Z" stroke="#00FFFF" stroke-width="0.28" stroke-miterlimit="10"/>
<path d="M65.6805 41.1327C48.9365 41.8178 32.0695 41.8178 15.3265 41.1327C15.0304 41.12 14.7384 41.083 14.4494 41.018C14.3044 40.986 14.1624 40.947 14.0224 40.902C13.8833 40.856 13.7453 40.805 13.6104 40.746C13.4754 40.688 13.3443 40.623 13.2154 40.552C13.1503 40.516 13.0864 40.478 13.0224 40.439C12.9603 40.4 12.8984 40.36 12.8384 40.318C12.5964 40.15 12.3724 39.961 12.1694 39.749C12.1184 39.696 12.0683 39.642 12.0194 39.586C11.9714 39.531 11.9244 39.473 11.8783 39.415C11.7874 39.3 11.7023 39.18 11.6243 39.057C11.4684 38.811 11.3374 38.552 11.2304 38.28C11.2044 38.211 11.1794 38.142 11.1564 38.073C11.1333 38.003 11.1113 37.933 11.0914 37.863C11.0524 37.723 11.0184 37.582 10.9924 37.44C10.9393 37.156 10.9133 36.869 10.9124 36.577C10.8963 31.7904 10.8783 27.0025 10.8583 22.2155C10.8382 17.4284 10.8153 12.6414 10.7903 7.85341C10.7815 7.69783 10.7755 7.54182 10.7765 7.38686C10.7775 7.23085 10.7865 7.07686 10.8035 6.92287C10.8105 6.84584 10.8215 6.76881 10.8335 6.69185C10.8455 6.61482 10.8595 6.53883 10.8755 6.46187C10.9075 6.31087 10.9475 6.16182 10.9955 6.01485C11.0425 5.86885 11.0975 5.72585 11.1625 5.58485C11.1935 5.51485 11.2275 5.44582 11.2635 5.37685C11.3005 5.30885 11.3385 5.24086 11.3785 5.17384C11.5375 4.90883 11.7245 4.66682 11.9395 4.44685C11.9935 4.39186 12.0495 4.33784 12.1065 4.28682C12.1355 4.25984 12.1645 4.23482 12.1935 4.20882C12.2235 4.18385 12.2535 4.15883 12.2835 4.13387C12.4045 4.03682 12.5305 3.94582 12.6605 3.86287C12.9205 3.69685 13.1985 3.55983 13.4925 3.44887C13.7865 3.33882 14.0875 3.25984 14.3925 3.20686C14.6985 3.15382 15.0105 3.12685 15.3255 3.12581C32.07 3.03383 48.937 3.03383 65.68 3.12581C65.9961 3.12691 66.3081 3.15388 66.6131 3.20686C66.9191 3.2599 67.2201 3.33888 67.5141 3.44887C67.8081 3.55989 68.0851 3.69691 68.3461 3.86287C68.4761 3.94588 68.6011 4.0359 68.7221 4.13387C68.7521 4.15889 68.7821 4.18391 68.8121 4.20888C68.8411 4.2339 68.8701 4.2599 68.9001 4.2859C68.9561 4.33791 69.0121 4.39186 69.0661 4.44691C69.2801 4.66591 69.4681 4.90889 69.6281 5.1739C69.6681 5.23988 69.7061 5.30788 69.7421 5.37691C69.7791 5.4449 69.8121 5.51491 69.8441 5.58492C69.9071 5.72487 69.9631 5.86891 70.0111 6.01491C70.0591 6.1609 70.0991 6.30989 70.1301 6.46187C70.1471 6.53792 70.1601 6.61488 70.1731 6.69087C70.1851 6.7679 70.1951 6.84486 70.2031 6.92189C70.2201 7.07588 70.2281 7.23091 70.2301 7.38588C70.2311 7.54091 70.2251 7.69691 70.2161 7.85286C70.191 12.64 70.168 17.428 70.148 22.215C70.127 27.002 70.11 31.79 70.094 36.5767C70.093 36.8687 70.066 37.1587 70.013 37.4458C69.986 37.5907 69.952 37.7327 69.912 37.8717C69.872 38.0117 69.826 38.1497 69.773 38.2847C69.72 38.4198 69.66 38.5527 69.594 38.6837C69.561 38.7497 69.526 38.8147 69.49 38.8787C69.452 38.9428 69.414 39.0058 69.375 39.0667C69.217 39.3137 69.036 39.5427 68.832 39.7547C68.782 39.8067 68.729 39.8587 68.675 39.9087C68.621 39.9597 68.566 40.0087 68.509 40.0567C68.396 40.1527 68.28 40.2417 68.159 40.3237C67.917 40.4898 67.661 40.6317 67.39 40.7487C67.323 40.7777 67.253 40.8057 67.184 40.8317C67.115 40.8577 67.045 40.8817 66.975 40.9038C66.835 40.9497 66.694 40.9877 66.551 41.0197C66.266 41.0827 65.975 41.1207 65.6805 41.1327Z" stroke="#FF00FF" stroke-width="0.283465" stroke-miterlimit="10" stroke-linecap="round" stroke-linejoin="round"/>
<path d="M64.7894 46.9191V52.01H64.1729V47.5654H64.1431L62.9002 48.3907V47.7643L64.1729 46.9191H64.7894ZM66.3903 52.0498C66.2676 52.0498 66.1624 52.0059 66.0746 51.918C65.9867 51.8302 65.9428 51.725 65.9428 51.6023C65.9428 51.4797 65.9867 51.3745 66.0746 51.2866C66.1624 51.1988 66.2676 51.1549 66.3903 51.1549C66.5129 51.1549 66.6181 51.1988 66.706 51.2866C66.7938 51.3745 66.8377 51.4797 66.8377 51.6023C66.8377 51.6835 66.817 51.7581 66.7756 51.8261C66.7358 51.894 66.6819 51.9487 66.614 51.9901C66.5477 52.0299 66.4731 52.0498 66.3903 52.0498ZM69.3689 52.0796C69.0772 52.0796 68.8145 52.0216 68.5809 51.9056C68.3472 51.7896 68.1599 51.6305 68.0191 51.4283C67.8782 51.2262 67.8012 50.9958 67.7879 50.7373H68.3845C68.4077 50.9676 68.5121 51.1582 68.6977 51.309C68.885 51.4582 69.1087 51.5327 69.3689 51.5327C69.5777 51.5327 69.7633 51.4838 69.9257 51.3861C70.0898 51.2883 70.2182 51.1541 70.311 50.9834C70.4055 50.811 70.4527 50.6163 70.4527 50.3992C70.4527 50.1771 70.4038 49.9791 70.306 49.8051C70.2099 49.6294 70.0773 49.4911 69.9083 49.39C69.7393 49.2889 69.5462 49.2375 69.3291 49.2359C69.1733 49.2342 69.0134 49.2582 68.8493 49.308C68.6853 49.356 68.5502 49.4182 68.4442 49.4944L67.8675 49.4248L68.1757 46.9191H70.8206V47.466H68.6927L68.5138 48.9674H68.5436C68.648 48.8845 68.7789 48.8158 68.9363 48.7611C69.0938 48.7064 69.2578 48.679 69.4285 48.679C69.7401 48.679 70.0177 48.7536 70.2613 48.9028C70.5065 49.0503 70.6988 49.2524 70.838 49.5093C70.9788 49.7662 71.0493 50.0595 71.0493 50.3893C71.0493 50.7141 70.9764 51.0041 70.8305 51.2593C70.6863 51.5129 70.4875 51.7134 70.2339 51.8609C69.9804 52.0067 69.692 52.0796 69.3689 52.0796Z" fill="#0000FF"/>
<path fill-rule="evenodd" clip-rule="evenodd" d="M26.4927 18.3919C26.7698 18.1148 27.219 18.1146 27.4964 18.3915L33.1364 24.0215C33.4139 24.2985 33.4143 24.748 33.1373 25.0256C32.8603 25.3031 32.4107 25.3035 32.1332 25.0265L27.0942 19.9964C27.0395 19.9418 26.951 19.9419 26.8963 19.9965L21.8668 25.026C21.5896 25.3033 21.14 25.3033 20.8627 25.026C20.5855 24.7487 20.5855 24.2992 20.8627 24.0219L26.4927 18.3919Z" fill="black"/>
</svg>
