<svg width="54" height="54" viewBox="0 0 54 54" fill="none" xmlns="http://www.w3.org/2000/svg">
<path d="M9.91309 37.0476C9.83508 27.0607 9.73608 17.0726 9.61914 7.0846L9.6192 7.08216C9.62323 6.91614 9.63623 6.75013 9.65631 6.58399C9.67633 6.41895 9.70233 6.25501 9.73553 6.09156C9.76752 5.92957 9.80652 5.76856 9.85266 5.60975C9.89966 5.45179 9.95166 5.29578 10.0115 5.14161C10.1985 4.66761 10.4535 4.21668 10.77 3.81434C11.083 3.41736 11.456 3.06837 11.8725 2.78394C12.2875 2.50196 12.7465 2.28394 13.2258 2.13697C13.7078 1.98987 14.2118 1.91395 14.7141 1.90662C18.8081 1.87171 22.9021 1.85462 26.9963 1.85499C31.0893 1.85499 35.1833 1.87195 39.2776 1.90723C39.4396 1.91016 39.6016 1.92115 39.7635 1.93775C40.0035 1.96375 40.2435 2.00477 40.4799 2.06153C40.7139 2.11854 40.9449 2.19044 41.1697 2.27955C41.4037 2.37256 41.6287 2.48353 41.8449 2.61072C42.062 2.73865 42.2689 2.8827 42.4627 3.04163C42.6577 3.20167 42.8417 3.37671 43.0105 3.56324C43.1795 3.7522 43.3355 3.95423 43.476 4.16578C43.757 4.59485 43.975 5.06483 44.125 5.55652C44.276 6.05445 44.358 6.57447 44.373 7.09266C44.252 17.0696 44.154 27.0466 44.08 37.0252C44.074 37.1851 44.0601 37.3451 44.039 37.5037C44.018 37.6647 43.991 37.8236 43.9569 37.9813C43.9239 38.1403 43.8839 38.2983 43.8358 38.4537C43.7888 38.6097 43.7349 38.7637 43.675 38.9157C43.484 39.3908 43.228 39.8407 42.9172 40.2495C42.6032 40.6605 42.2352 41.0286 41.8244 41.3395C41.4154 41.6495 40.9624 41.9036 40.4838 42.0906C40.0098 42.2755 39.5098 42.3955 39.0063 42.4435C31.0073 42.9535 22.9843 42.9535 14.9849 42.4436C14.6529 42.4116 14.3229 42.3477 14.0024 42.2535C13.6794 42.1596 13.3654 42.0346 13.0632 41.882C12.4602 41.575 11.9092 41.1569 11.4476 40.6577C10.9866 40.1607 10.6126 39.5817 10.349 38.9596C10.219 38.6516 10.115 38.3325 10.0411 38.0056C9.96912 37.6836 9.92407 37.3546 9.91113 37.0245" stroke="#16215B" stroke-width="0.283" stroke-miterlimit="10"/>
<rect x="12.6855" y="5.52832" width="28.63" height="34.31" rx="1.43" stroke="#00FFFF" stroke-width="0.28"/>
<path d="M42.9399 36.5841C42.9578 31.7322 42.9778 26.8792 43.0009 22.0272C43.0219 17.1742 43.0469 12.3221 43.0759 7.46912C43.0767 7.32446 43.0717 7.18042 43.0596 7.03748C43.0497 6.89441 43.0317 6.75146 43.0076 6.61047C42.9606 6.32837 42.8887 6.05444 42.7897 5.78943C42.7646 5.72339 42.7386 5.65747 42.7106 5.59241C42.6816 5.52637 42.6526 5.46143 42.6216 5.39844C42.5587 5.27039 42.4907 5.14746 42.4156 5.02844C42.2667 4.79041 42.0936 4.57043 41.8937 4.36646C41.6957 4.16345 41.4777 3.98645 41.2437 3.83337C41.1266 3.75745 41.0057 3.6864 40.8796 3.62244C40.8167 3.59045 40.7537 3.55945 40.6877 3.5304C40.6237 3.50037 40.5566 3.47339 40.4907 3.44739C40.2236 3.34338 39.9507 3.26843 39.6716 3.21741C39.3926 3.16638 39.1077 3.14038 38.8167 3.13745C37.8378 3.12988 36.8568 3.12183 35.8738 3.11584C34.8898 3.10889 33.9058 3.10388 32.9208 3.09888C30.9498 3.09082 28.9758 3.08691 26.9988 3.08691C26.5038 3.08691 26.0098 3.08691 25.5148 3.08691C25.0208 3.08789 24.5258 3.08887 24.0308 3.08984C23.0418 3.09192 22.0538 3.09485 21.0688 3.09888C19.0968 3.10791 17.1328 3.12085 15.1758 3.13782C15.0301 3.13892 14.8861 3.14685 14.7411 3.15991C14.5981 3.17383 14.4541 3.19287 14.3131 3.21887C14.0301 3.27087 13.7561 3.3479 13.4911 3.4519C13.4251 3.47791 13.3601 3.50488 13.2951 3.53491C13.2301 3.56384 13.1651 3.59583 13.1021 3.62793C12.9751 3.69385 12.8541 3.76489 12.7361 3.8429C12.5011 3.99683 12.2841 4.1759 12.0861 4.37988C12.0371 4.42993 11.9891 4.48291 11.9431 4.53589C11.8971 4.58887 11.8521 4.64282 11.8091 4.69885C11.7231 4.80884 11.6431 4.92383 11.5691 5.04187C11.4951 5.16089 11.4281 5.28394 11.3651 5.40991C11.3351 5.4729 11.3061 5.53687 11.2781 5.60291C11.2501 5.66785 11.2241 5.73486 11.1991 5.80188C11.1011 6.06787 11.0301 6.34082 10.9841 6.6189C10.9381 6.89685 10.9151 7.18091 10.9171 7.46985C10.9454 12.3224 10.9714 17.1744 10.9935 22.0275C11.0165 26.8794 11.0355 31.7324 11.0535 36.5845C11.0541 36.8712 11.0781 37.1552 11.1281 37.4392C11.1411 37.5101 11.1552 37.5812 11.1701 37.6511C11.1862 37.7212 11.2021 37.7911 11.2211 37.8601C11.2581 37.9991 11.3011 38.1351 11.3502 38.2701C11.3991 38.4052 11.4531 38.5382 11.5151 38.6682C11.5461 38.7332 11.5771 38.7982 11.6121 38.8622C11.6461 38.9261 11.6812 38.9901 11.7181 39.0532C11.8651 39.3032 12.0331 39.5361 12.2241 39.7532C12.3192 39.8612 12.4201 39.9652 12.5272 40.0652C12.5791 40.1151 12.6342 40.1632 12.6901 40.2102C12.7451 40.2572 12.8011 40.3021 12.8591 40.3462C13.0881 40.5211 13.3322 40.6721 13.5921 40.7982C13.6571 40.8302 13.7231 40.8601 13.7902 40.8882C13.8571 40.9171 13.9241 40.9431 13.9921 40.9681C14.1281 41.0182 14.2651 41.0612 14.4041 41.0972C14.6801 41.1692 14.9631 41.2131 15.2512 41.2312C16.2243 41.2916 17.1993 41.3446 18.1773 41.3896C19.1533 41.4357 20.1323 41.4727 21.1113 41.5027C23.0683 41.5636 25.0293 41.5936 26.9943 41.5936C27.4853 41.5936 27.9773 41.5917 28.4683 41.5876C28.9593 41.5846 29.4513 41.5786 29.9423 41.5707C30.9253 41.5557 31.9063 41.5336 32.8863 41.5027C34.8443 41.4426 36.7963 41.3527 38.7416 41.2316C38.8866 41.2227 39.0296 41.2067 39.1726 41.1846C39.2436 41.1726 39.3146 41.1597 39.3866 41.1447C39.4566 41.1296 39.5276 41.1136 39.5966 41.0946C39.8766 41.0226 40.1456 40.9226 40.4046 40.7957C40.4706 40.7646 40.5336 40.7316 40.5966 40.6967C40.6606 40.6616 40.7236 40.6246 40.7856 40.5856C40.9096 40.5096 41.0286 40.4266 41.1426 40.3386C41.3726 40.1636 41.5826 39.9667 41.7736 39.7487C41.8216 39.6936 41.8676 39.6376 41.9136 39.5807C41.9586 39.5237 42.0026 39.4656 42.0446 39.4066C42.1296 39.2897 42.2076 39.1686 42.2796 39.0447C42.4256 38.7966 42.5466 38.5376 42.6446 38.2656C42.6696 38.1976 42.6926 38.1287 42.7146 38.0596C42.7356 37.9906 42.7556 37.9216 42.7736 37.8527C42.8106 37.7136 42.8416 37.5746 42.8656 37.4346C42.9146 37.1537 42.9386 36.8706 42.9399 36.5841Z" stroke="#FF00FF" stroke-width="0.283465" stroke-miterlimit="10" stroke-linecap="round" stroke-linejoin="round"/>
<path fill-rule="evenodd" clip-rule="evenodd" d="M34.0793 22.4825C33.6872 22.4825 33.3693 22.8004 33.3693 23.1925C33.3693 23.5847 33.6872 23.9025 34.0793 23.9025H36.0693C36.3972 23.9025 36.6593 24.1647 36.6593 24.4925V29.3225C36.6593 29.6504 36.3972 29.9125 36.0693 29.9125H28.9491C28.8473 29.9125 28.7795 29.8073 28.8217 29.7146L29.2779 28.711C29.3183 28.622 29.3393 28.5253 29.3393 28.4276V28.4176C29.3393 28.1815 29.2177 27.9621 29.0177 27.8369C28.8176 27.7117 28.5672 27.6983 28.3549 27.8014L24.4496 29.6992C23.6692 30.0665 23.6692 31.1786 24.4496 31.5459L28.3549 33.4437C28.6146 33.5699 28.9256 33.5197 29.1324 33.3181C29.3392 33.1166 29.3974 32.807 29.2779 32.5441L28.8171 31.5305C28.775 31.4378 28.8428 31.3325 28.9446 31.3325H36.0693C37.1814 31.3325 38.0793 30.4347 38.0793 29.3225V24.4925C38.0793 23.3804 37.1814 22.4825 36.0693 22.4825H34.0793Z" fill="black"/>
<path d="M15.75 16.7501C15.3594 16.7501 15.1201 16.506 15.1201 16.0958V10.3584C15.1201 9.9482 15.3594 9.7041 15.75 9.7041H19.1827C19.5294 9.7041 19.7589 9.9092 19.7589 10.2363C19.7589 10.5634 19.5294 10.7685 19.1827 10.7685H16.5217C16.4434 10.7685 16.38 10.832 16.38 10.9102V12.5311C16.38 12.6094 16.4435 12.6728 16.5217 12.6728H19.0362C19.3585 12.6728 19.5782 12.8632 19.5782 13.1709C19.5782 13.4786 19.3634 13.6738 19.0362 13.6738H16.5217C16.4434 13.6738 16.38 13.7373 16.38 13.8155V15.5438C16.38 15.6221 16.4435 15.6855 16.5217 15.6855H19.1827C19.5294 15.6855 19.7589 15.8906 19.7589 16.2177C19.7589 16.5448 19.5294 16.7499 19.1827 16.7499H15.75V16.7501Z" fill="black"/>
<path d="M32.3315 11.4668C30.8374 11.4668 29.8853 12.5312 29.8853 14.1816C29.8853 15.832 30.8179 16.8524 32.3999 16.8524C33.2001 16.8524 33.786 16.6746 34.2857 16.1196C34.5094 15.8712 34.4495 15.5005 34.1534 15.342C33.904 15.2084 33.6203 15.3365 33.481 15.4659C33.0383 15.8773 32.7135 15.9149 32.3901 15.9149C31.6439 15.9149 31.154 15.4302 31.101 14.6068C31.0957 14.5247 31.1601 14.455 31.2424 14.455H34.1965C34.4777 14.455 34.7071 14.2302 34.7135 13.9491C34.7462 12.5063 33.771 11.4668 32.3315 11.4668ZM33.3613 13.6011H31.2722C31.1816 13.6011 31.1148 13.5173 31.1338 13.4287C31.2704 12.79 31.742 12.4093 32.3363 12.4093C32.9306 12.4093 33.3848 12.7772 33.501 13.4355C33.5163 13.522 33.4491 13.6011 33.3612 13.6011H33.3613Z" fill="black"/>
<path d="M21.458 16.8477C21.1016 16.8477 20.8525 16.6182 20.8525 16.208V12.0869C20.8525 11.7109 21.0722 11.4717 21.4336 11.4717C21.5828 11.4717 21.7576 11.5108 21.8928 11.6658C21.9393 11.7191 21.9706 11.7786 21.9918 11.8328C22.0233 11.9137 22.1198 11.9471 22.1948 11.9033C22.458 11.7497 23.0177 11.4766 23.67 11.4766C24.8126 11.4766 25.462 12.209 25.462 13.4053V16.2081C25.462 16.6183 25.213 16.8478 24.8565 16.8478C24.5 16.8478 24.2461 16.6183 24.2461 16.2081V13.6495C24.2461 12.9171 23.9043 12.5069 23.2109 12.5069C22.5175 12.5069 22.0683 13.0098 22.0683 13.752V16.2081C22.0683 16.6183 21.8144 16.8478 21.4579 16.8478L21.458 16.8477Z" fill="black"/>
<path d="M36.3057 16.8477C35.9395 16.8477 35.7002 16.6084 35.7002 16.208V12.0869C35.7002 11.706 35.9346 11.4717 36.2813 11.4717C36.628 11.4717 36.7659 11.7042 36.8111 11.8202C36.8175 11.8365 36.823 11.8535 36.8278 11.8707C36.8569 11.9748 36.9888 12.007 37.0648 11.9302C37.2613 11.7318 37.5861 11.4863 37.9903 11.4863C38.1807 11.4863 38.3272 11.5351 38.42 11.6181C38.5323 11.7109 38.5909 11.8574 38.5909 12.0576C38.5909 12.2578 38.5323 12.3896 38.4102 12.4873C38.293 12.5898 38.1123 12.6436 37.8731 12.6484C37.1797 12.6533 36.9161 13.0879 36.9161 13.7177V16.208C36.9161 16.6084 36.672 16.8477 36.3057 16.8477Z" fill="black"/>
<path d="M26.9751 15.4708V12.6535C26.9751 12.5752 26.9116 12.5118 26.8334 12.5118H26.648C26.3453 12.5118 26.1597 12.3311 26.1597 12.0382C26.1597 11.7453 26.3452 11.5743 26.648 11.5743H26.8334C26.9117 11.5743 26.9751 11.5108 26.9751 11.4326V10.8858C26.9751 10.4952 27.2095 10.251 27.5855 10.251C27.9615 10.251 28.191 10.4951 28.191 10.8858V11.4326C28.191 11.5109 28.2545 11.5743 28.3327 11.5743H28.7525C29.0552 11.5743 29.2408 11.7501 29.2408 12.0382C29.2408 12.3263 29.0553 12.5118 28.7525 12.5118H28.3327C28.2544 12.5118 28.191 12.5753 28.191 12.6535V15.2071C28.191 15.5977 28.3277 15.7686 28.6793 15.7979L28.7672 15.8077C29.0895 15.837 29.2555 15.9737 29.2555 16.2569C29.2555 16.6133 28.943 16.8038 28.3864 16.8038H28.3376C27.4343 16.8038 26.9753 16.3546 26.9753 15.4708H26.9751Z" fill="black"/>
</svg>
