<svg width="55" height="54" viewBox="0 0 55 54" fill="none" xmlns="http://www.w3.org/2000/svg">
<rect x="2.3501" y="1.84998" width="50.3" height="50.3" rx="3" stroke="#8B1EFF" stroke-width="0.28"/>
<path d="M10.4131 37.0476C10.3351 27.0607 10.2361 17.0726 10.1191 7.0846L10.1192 7.08216C10.1232 6.91614 10.1362 6.75013 10.1563 6.58399C10.1763 6.41895 10.2023 6.25501 10.2355 6.09156C10.2675 5.92957 10.3065 5.76856 10.3527 5.60975C10.3997 5.45179 10.4517 5.29578 10.5115 5.14161C10.6985 4.66761 10.9535 4.21668 11.27 3.81434C11.583 3.41736 11.956 3.06837 12.3725 2.78394C12.7875 2.50196 13.2465 2.28394 13.7258 2.13697C14.2078 1.98987 14.7118 1.91395 15.2141 1.90662C19.3081 1.87171 23.4021 1.85462 27.4963 1.85499C31.5893 1.85499 35.6833 1.87195 39.7776 1.90723C39.9396 1.91016 40.1016 1.92115 40.2635 1.93775C40.5035 1.96375 40.7435 2.00477 40.9799 2.06153C41.2139 2.11854 41.4449 2.19044 41.6697 2.27955C41.9037 2.37256 42.1287 2.48353 42.3449 2.61072C42.562 2.73865 42.7689 2.8827 42.9627 3.04163C43.1577 3.20167 43.3417 3.37671 43.5105 3.56324C43.6795 3.7522 43.8355 3.95423 43.976 4.16578C44.257 4.59485 44.475 5.06483 44.625 5.55652C44.776 6.05445 44.858 6.57447 44.873 7.09266C44.752 17.0696 44.654 27.0466 44.58 37.0252C44.574 37.1851 44.5601 37.3451 44.539 37.5037C44.518 37.6647 44.491 37.8236 44.4569 37.9813C44.4239 38.1403 44.3839 38.2983 44.3358 38.4537C44.2888 38.6097 44.2349 38.7637 44.175 38.9157C43.984 39.3908 43.728 39.8407 43.4172 40.2495C43.1032 40.6605 42.7352 41.0286 42.3244 41.3395C41.9154 41.6495 41.4624 41.9036 40.9838 42.0906C40.5098 42.2755 40.0098 42.3955 39.5063 42.4435C31.5073 42.9535 23.4843 42.9535 15.4849 42.4436C15.1529 42.4116 14.8229 42.3477 14.5024 42.2535C14.1794 42.1596 13.8654 42.0346 13.5632 41.882C12.9602 41.575 12.4092 41.1569 11.9476 40.6577C11.4866 40.1607 11.1126 39.5817 10.849 38.9596C10.719 38.6516 10.615 38.3325 10.5411 38.0056C10.4691 37.6836 10.4241 37.3546 10.4111 37.0245" stroke="#8B1EFF" stroke-width="0.283" stroke-miterlimit="10"/>
<rect x="13.1855" y="5.52832" width="28.63" height="34.31" rx="1.43" stroke="#00FFFF" stroke-width="0.28"/>
<path d="M43.4399 36.5841C43.4578 31.7322 43.4778 26.8792 43.5009 22.0272C43.5219 17.1742 43.5469 12.3221 43.5759 7.46912C43.5767 7.32446 43.5717 7.18042 43.5596 7.03748C43.5497 6.89441 43.5317 6.75146 43.5076 6.61047C43.4606 6.32837 43.3887 6.05444 43.2897 5.78943C43.2646 5.72339 43.2386 5.65747 43.2106 5.59241C43.1816 5.52637 43.1526 5.46143 43.1216 5.39844C43.0587 5.27039 42.9907 5.14746 42.9156 5.02844C42.7667 4.79041 42.5936 4.57043 42.3937 4.36646C42.1957 4.16345 41.9777 3.98645 41.7437 3.83337C41.6266 3.75745 41.5057 3.6864 41.3796 3.62244C41.3167 3.59045 41.2537 3.55945 41.1877 3.5304C41.1237 3.50037 41.0566 3.47339 40.9907 3.44739C40.7236 3.34338 40.4507 3.26843 40.1716 3.21741C39.8926 3.16638 39.6077 3.14038 39.3167 3.13745C38.3378 3.12988 37.3568 3.12183 36.3738 3.11584C35.3898 3.10889 34.4058 3.10388 33.4208 3.09888C31.4498 3.09082 29.4758 3.08691 27.4988 3.08691C27.0038 3.08691 26.5098 3.08691 26.0148 3.08691C25.5208 3.08789 25.0258 3.08887 24.5308 3.08984C23.5418 3.09192 22.5538 3.09485 21.5688 3.09888C19.5968 3.10791 17.6328 3.12085 15.6758 3.13782C15.5301 3.13892 15.3861 3.14685 15.2411 3.15991C15.0981 3.17383 14.9541 3.19287 14.8131 3.21887C14.5301 3.27087 14.2561 3.3479 13.9911 3.4519C13.9251 3.47791 13.8601 3.50488 13.7951 3.53491C13.7301 3.56384 13.6651 3.59583 13.6021 3.62793C13.4751 3.69385 13.3541 3.76489 13.2361 3.8429C13.0011 3.99683 12.7841 4.1759 12.5861 4.37988C12.5371 4.42993 12.4891 4.48291 12.4431 4.53589C12.3971 4.58887 12.3521 4.64282 12.3091 4.69885C12.2231 4.80884 12.1431 4.92383 12.0691 5.04187C11.9951 5.16089 11.9281 5.28394 11.8651 5.40991C11.8351 5.4729 11.8061 5.53687 11.7781 5.60291C11.7501 5.66785 11.7241 5.73486 11.6991 5.80188C11.6011 6.06787 11.5301 6.34082 11.4841 6.6189C11.4381 6.89685 11.4151 7.18091 11.4171 7.46985C11.4454 12.3224 11.4714 17.1744 11.4935 22.0275C11.5165 26.8794 11.5355 31.7324 11.5535 36.5845C11.5541 36.8712 11.5781 37.1552 11.6281 37.4392C11.6411 37.5101 11.6552 37.5812 11.6701 37.6511C11.6862 37.7212 11.7021 37.7911 11.7211 37.8601C11.7581 37.9991 11.8011 38.1351 11.8502 38.2701C11.8991 38.4052 11.9531 38.5382 12.0151 38.6682C12.0461 38.7332 12.0771 38.7982 12.1121 38.8622C12.1461 38.9261 12.1812 38.9901 12.2181 39.0532C12.3651 39.3032 12.5331 39.5361 12.7241 39.7532C12.8192 39.8612 12.9201 39.9652 13.0272 40.0652C13.0791 40.1151 13.1342 40.1632 13.1901 40.2102C13.2451 40.2572 13.3011 40.3021 13.3591 40.3462C13.5881 40.5211 13.8322 40.6721 14.0921 40.7982C14.1571 40.8302 14.2231 40.8601 14.2902 40.8882C14.3571 40.9171 14.4241 40.9431 14.4921 40.9681C14.6281 41.0182 14.7651 41.0612 14.9041 41.0972C15.1801 41.1692 15.4631 41.2131 15.7512 41.2312C16.7243 41.2916 17.6993 41.3446 18.6773 41.3896C19.6533 41.4357 20.6323 41.4727 21.6113 41.5027C23.5683 41.5636 25.5293 41.5936 27.4943 41.5936C27.9853 41.5936 28.4773 41.5917 28.9683 41.5876C29.4593 41.5846 29.9513 41.5786 30.4423 41.5707C31.4253 41.5557 32.4063 41.5336 33.3863 41.5027C35.3443 41.4426 37.2963 41.3527 39.2416 41.2316C39.3866 41.2227 39.5296 41.2067 39.6726 41.1846C39.7436 41.1726 39.8146 41.1597 39.8866 41.1447C39.9566 41.1296 40.0276 41.1136 40.0966 41.0946C40.3766 41.0226 40.6456 40.9226 40.9046 40.7957C40.9706 40.7646 41.0336 40.7316 41.0966 40.6967C41.1606 40.6616 41.2236 40.6246 41.2856 40.5856C41.4096 40.5096 41.5286 40.4266 41.6426 40.3386C41.8726 40.1636 42.0826 39.9667 42.2736 39.7487C42.3216 39.6936 42.3676 39.6376 42.4136 39.5807C42.4586 39.5237 42.5026 39.4656 42.5446 39.4066C42.6296 39.2897 42.7076 39.1686 42.7796 39.0447C42.9256 38.7966 43.0466 38.5376 43.1446 38.2656C43.1696 38.1976 43.1926 38.1287 43.2146 38.0596C43.2356 37.9906 43.2556 37.9216 43.2736 37.8527C43.3106 37.7136 43.3416 37.5746 43.3656 37.4346C43.4146 37.1537 43.4386 36.8706 43.4399 36.5841Z" stroke="#FF00FF" stroke-width="0.283465" stroke-miterlimit="10" stroke-linecap="round" stroke-linejoin="round"/>
<path fill-rule="evenodd" clip-rule="evenodd" d="M34.5793 22.4825C34.1872 22.4825 33.8693 22.8004 33.8693 23.1925C33.8693 23.5846 34.1872 23.9025 34.5793 23.9025H36.5693C36.8972 23.9025 37.1593 24.1646 37.1593 24.4925V29.3225C37.1593 29.6504 36.8972 29.9125 36.5693 29.9125H29.4491C29.3473 29.9125 29.2795 29.8072 29.3217 29.7146L29.7779 28.7109C29.8183 28.6219 29.8393 28.5253 29.8393 28.4275V28.4175C29.8393 28.1815 29.7177 27.9621 29.5177 27.8368C29.3176 27.7116 29.0672 27.6982 28.8549 27.8014L24.9496 29.6991C24.1692 30.0665 24.1692 31.1785 24.9496 31.5459L28.8549 33.4436C29.1146 33.5698 29.4256 33.5196 29.6324 33.318C29.8392 33.1165 29.8974 32.8069 29.7779 32.544L29.3171 31.5304C29.275 31.4377 29.3428 31.3325 29.4446 31.3325H36.5693C37.6814 31.3325 38.5793 30.4346 38.5793 29.3225V24.4925C38.5793 23.3804 37.6814 22.4825 36.5693 22.4825H34.5793Z" fill="black"/>
<path d="M16.25 16.7501C15.8594 16.7501 15.6201 16.506 15.6201 16.0958V10.3584C15.6201 9.9482 15.8594 9.7041 16.25 9.7041H19.6827C20.0294 9.7041 20.2589 9.9092 20.2589 10.2363C20.2589 10.5634 20.0294 10.7685 19.6827 10.7685H17.0217C16.9434 10.7685 16.88 10.832 16.88 10.9102V12.5311C16.88 12.6094 16.9435 12.6728 17.0217 12.6728H19.5362C19.8585 12.6728 20.0782 12.8632 20.0782 13.1709C20.0782 13.4786 19.8634 13.6738 19.5362 13.6738H17.0217C16.9434 13.6738 16.88 13.7373 16.88 13.8155V15.5438C16.88 15.6221 16.9435 15.6855 17.0217 15.6855H19.6827C20.0294 15.6855 20.2589 15.8906 20.2589 16.2177C20.2589 16.5448 20.0294 16.7499 19.6827 16.7499H16.25V16.7501Z" fill="black"/>
<path d="M33.8614 13.548H31.7722C31.6816 13.548 31.6148 13.4642 31.6338 13.3756C31.7704 12.7369 32.242 12.4093 32.8364 12.4093C33.4308 12.4093 33.8849 12.7241 34.0011 13.3824C34.0164 13.4689 33.9493 13.548 33.8614 13.548ZM32.8316 11.4668C31.3374 11.4668 30.3853 12.5312 30.3853 14.1817C30.3853 15.8322 31.3179 16.8526 32.9 16.8526C33.7002 16.8526 34.2862 16.6748 34.7859 16.1198C35.0096 15.8714 34.9497 15.5007 34.6536 15.3422C34.4042 15.2086 34.1205 15.3367 33.9812 15.4661C33.5385 15.8775 33.2137 15.9151 32.8903 15.9151C32.1441 15.9151 31.6541 15.4304 31.6011 14.6069C31.5958 14.5248 31.6602 14.4551 31.7425 14.4551H34.6967C34.9779 14.4551 35.2073 14.2303 35.2137 13.9492C35.2464 12.5063 34.2712 11.4668 32.8316 11.4668Z" fill="black"/>
<path d="M21.3516 16.2078V12.0857C21.3516 11.7096 21.5714 11.4703 21.9328 11.4703C22.1396 11.4703 22.3086 11.5508 22.4141 11.6918C22.4397 11.726 22.4615 11.7647 22.4792 11.8012C22.5136 11.8719 22.5981 11.902 22.6688 11.8677C22.935 11.7387 23.5543 11.4752 24.1697 11.4752C25.3126 11.4752 25.9622 12.2078 25.9622 13.4044V16.2079C25.9622 16.6182 25.7131 16.8477 25.3566 16.8477C25.0001 16.8477 24.7461 16.6181 24.7461 16.2079V13.6487C24.7461 12.9161 24.4042 12.5058 23.7107 12.5058C23.0172 12.5058 22.5678 13.0089 22.5678 13.7512V16.2079C22.5678 16.6182 22.3138 16.8477 21.9573 16.8477C21.6008 16.8477 21.3516 16.6181 21.3516 16.2078Z" fill="black"/>
<path d="M36.1992 16.2078V12.0856C36.1992 11.7046 36.4336 11.4702 36.7804 11.4702C37.014 11.4702 37.2006 11.5828 37.2932 11.7787C37.2951 11.7827 37.3015 11.7988 37.31 11.8206C37.3441 11.9081 37.4524 11.9391 37.5273 11.8824C37.7297 11.7293 38.112 11.4849 38.4899 11.4849C38.6804 11.4849 38.8269 11.5337 38.9197 11.6168C39.032 11.7096 39.0906 11.8561 39.0906 12.0564C39.0906 12.2567 39.032 12.3885 38.9099 12.4862C38.7927 12.5888 38.612 12.6425 38.3726 12.6474C37.679 12.6523 37.4153 13.087 37.4153 13.717V16.2079C37.4153 16.6084 37.1711 16.8477 36.8048 16.8477C36.4385 16.8477 36.1992 16.6083 36.1992 16.2078Z" fill="black"/>
<path d="M27.4752 15.4706V12.6543C27.4752 12.576 27.4117 12.5126 27.3335 12.5126H27.1481C26.8454 12.5126 26.6597 12.3417 26.6597 12.0487C26.6597 11.7557 26.8452 11.5897 27.1481 11.5897H27.3335C27.4118 11.5897 27.4752 11.5262 27.4752 11.448V10.885C27.4752 10.4943 27.7096 10.2501 28.0857 10.2501C28.4618 10.2501 28.6913 10.4942 28.6913 10.885V11.448C28.6913 11.5263 28.7548 11.5897 28.833 11.5897H29.2529C29.5556 11.5897 29.7413 11.7605 29.7413 12.0487C29.7413 12.3369 29.5558 12.5126 29.2529 12.5126H28.833C28.7547 12.5126 28.6913 12.5761 28.6913 12.6543V15.2069C28.6913 15.5976 28.828 15.7685 29.1797 15.7978L29.2676 15.8076C29.5899 15.8369 29.756 15.9736 29.756 16.2569C29.756 16.6133 29.4435 16.8039 28.8868 16.8039H28.838C27.9346 16.8039 27.4755 16.3546 27.4755 15.4707H27.4753L27.4752 15.4706Z" fill="black"/>
</svg>
