<svg width="54" height="54" viewBox="0 0 54 54" fill="none" xmlns="http://www.w3.org/2000/svg">
<path d="M9.91309 37.0476C9.83508 27.0606 9.73608 17.0726 9.61914 7.08457L9.6192 7.08213C9.62323 6.91611 9.63623 6.7501 9.65631 6.58396C9.67633 6.41892 9.70233 6.25498 9.73553 6.09153C9.76752 5.92954 9.80652 5.76853 9.85266 5.60972C9.89966 5.45176 9.95166 5.29575 10.0115 5.14158C10.1985 4.66758 10.4535 4.21665 10.77 3.81431C11.083 3.41733 11.456 3.06833 11.8725 2.78391C12.2875 2.50193 12.7465 2.28391 13.2258 2.13694C13.7078 1.98984 14.2118 1.91392 14.7141 1.90659C18.8081 1.87168 22.9021 1.85459 26.9963 1.85496C31.0893 1.85496 35.1833 1.87192 39.2776 1.9072C39.4396 1.91013 39.6016 1.92112 39.7635 1.93772C40.0035 1.96372 40.2435 2.00474 40.4799 2.0615C40.7139 2.11851 40.9449 2.1904 41.1697 2.27952C41.4037 2.37253 41.6287 2.4835 41.8449 2.61069C42.062 2.73862 42.2689 2.88267 42.4627 3.0416C42.6577 3.20164 42.8417 3.37668 43.0105 3.56321C43.1795 3.75217 43.3355 3.9542 43.476 4.16575C43.757 4.59482 43.975 5.06479 44.125 5.55649C44.276 6.05442 44.358 6.57444 44.373 7.09263C44.252 17.0696 44.154 27.0466 44.08 37.0251C44.074 37.185 44.0601 37.3451 44.039 37.5036C44.018 37.6646 43.991 37.8236 43.9569 37.9813C43.9239 38.1402 43.8839 38.2983 43.8358 38.4537C43.7888 38.6097 43.7349 38.7636 43.675 38.9156C43.484 39.3907 43.228 39.8407 42.9172 40.2495C42.6032 40.6605 42.2352 41.0285 41.8244 41.3395C41.4154 41.6495 40.9624 41.9035 40.4838 42.0906C40.0098 42.2755 39.5098 42.3955 39.0063 42.4435C31.0073 42.9535 22.9843 42.9535 14.9849 42.4436C14.6529 42.4116 14.3229 42.3476 14.0024 42.2535C13.6794 42.1595 13.3654 42.0345 13.0632 41.8819C12.4602 41.5749 11.9092 41.1568 11.4476 40.6577C10.9866 40.1606 10.6126 39.5816 10.349 38.9596C10.219 38.6516 10.115 38.3325 10.0411 38.0056C9.96912 37.6836 9.92407 37.3546 9.91113 37.0245" stroke="#16215B" stroke-width="0.283" stroke-miterlimit="10"/>
<rect x="12.6855" y="5.52831" width="28.63" height="34.31" rx="1.43" stroke="#00FFFF" stroke-width="0.28"/>
<path d="M42.9399 36.5841C42.9578 31.7321 42.9778 26.8791 43.0009 22.0272C43.0219 17.1742 43.0469 12.3221 43.0759 7.46909C43.0767 7.32443 43.0717 7.18039 43.0596 7.03745C43.0497 6.89438 43.0317 6.75143 43.0076 6.61044C42.9606 6.32834 42.8887 6.05441 42.7897 5.7894C42.7646 5.72336 42.7386 5.65744 42.7106 5.59238C42.6816 5.52634 42.6526 5.4614 42.6216 5.39841C42.5587 5.27036 42.4907 5.14743 42.4156 5.02841C42.2667 4.79037 42.0936 4.5704 41.8937 4.36642C41.6957 4.16342 41.4777 3.98642 41.2437 3.83334C41.1266 3.75742 41.0057 3.68637 40.8796 3.62241C40.8167 3.59042 40.7537 3.55942 40.6877 3.53036C40.6237 3.50034 40.5566 3.47336 40.4907 3.44736C40.2236 3.34335 39.9507 3.2684 39.6716 3.21738C39.3926 3.16635 39.1077 3.14035 38.8167 3.13742C37.8378 3.12985 36.8568 3.1218 35.8738 3.11581C34.8898 3.10886 33.9058 3.10385 32.9208 3.09885C30.9498 3.09079 28.9758 3.08688 26.9988 3.08688C26.5038 3.08688 26.0098 3.08688 25.5148 3.08688C25.0208 3.08786 24.5258 3.08884 24.0308 3.08981C23.0418 3.09189 22.0538 3.09482 21.0688 3.09885C19.0968 3.10788 17.1328 3.12082 15.1758 3.13779C15.0301 3.13889 14.8861 3.14682 14.7411 3.15988C14.5981 3.1738 14.4541 3.19284 14.3131 3.21884C14.0301 3.27084 13.7561 3.34787 13.4911 3.45187C13.4251 3.47787 13.3601 3.50485 13.2951 3.53488C13.2301 3.56381 13.1651 3.59579 13.1021 3.6279C12.9751 3.69382 12.8541 3.76486 12.7361 3.84286C12.5011 3.9968 12.2841 4.17587 12.0861 4.37985C12.0371 4.4299 11.9891 4.48288 11.9431 4.53586C11.8971 4.58884 11.8521 4.64279 11.8091 4.69882C11.7231 4.80881 11.6431 4.9238 11.5691 5.04184C11.4951 5.16086 11.4281 5.2839 11.3651 5.40988C11.3351 5.47287 11.3061 5.53683 11.2781 5.60287C11.2501 5.66782 11.2241 5.73483 11.1991 5.80185C11.1011 6.06784 11.0301 6.34079 10.9841 6.61887C10.9381 6.89682 10.9151 7.18088 10.9171 7.46982C10.9454 12.3224 10.9714 17.1744 10.9935 22.0274C11.0165 26.8794 11.0355 31.7324 11.0535 36.5844C11.0541 36.8712 11.0781 37.1551 11.1281 37.4392C11.1411 37.5101 11.1552 37.5811 11.1701 37.6511C11.1862 37.7212 11.2021 37.7911 11.2211 37.8601C11.2581 37.9991 11.3011 38.1351 11.3502 38.2701C11.3991 38.4051 11.4531 38.5382 11.5151 38.6682C11.5461 38.7331 11.5771 38.7982 11.6121 38.8622C11.6461 38.9261 11.6812 38.9901 11.7181 39.0532C11.8651 39.3032 12.0331 39.5361 12.2241 39.7531C12.3192 39.8612 12.4201 39.9652 12.5272 40.0652C12.5791 40.1151 12.6342 40.1632 12.6901 40.2102C12.7451 40.2572 12.8011 40.3021 12.8591 40.3462C13.0881 40.5211 13.3322 40.6721 13.5921 40.7982C13.6571 40.8302 13.7231 40.8601 13.7902 40.8882C13.8571 40.9171 13.9241 40.9431 13.9921 40.9681C14.1281 41.0182 14.2651 41.0611 14.4041 41.0971C14.6801 41.1692 14.9631 41.2131 15.2512 41.2312C16.2243 41.2916 17.1993 41.3446 18.1773 41.3896C19.1533 41.4356 20.1323 41.4726 21.1113 41.5027C23.0683 41.5636 25.0293 41.5936 26.9943 41.5936C27.4853 41.5936 27.9773 41.5916 28.4683 41.5876C28.9593 41.5846 29.4513 41.5786 29.9423 41.5706C30.9253 41.5556 31.9063 41.5335 32.8863 41.5027C34.8443 41.4426 36.7963 41.3526 38.7416 41.2315C38.8866 41.2226 39.0296 41.2066 39.1726 41.1845C39.2436 41.1726 39.3146 41.1596 39.3866 41.1446C39.4566 41.1296 39.5276 41.1136 39.5966 41.0946C39.8766 41.0226 40.1456 40.9226 40.4046 40.7956C40.4706 40.7646 40.5336 40.7315 40.5966 40.6966C40.6606 40.6616 40.7236 40.6246 40.7856 40.5855C40.9096 40.5096 41.0286 40.4266 41.1426 40.3386C41.3726 40.1635 41.5826 39.9666 41.7736 39.7486C41.8216 39.6936 41.8676 39.6375 41.9136 39.5807C41.9586 39.5237 42.0026 39.4655 42.0446 39.4066C42.1296 39.2896 42.2076 39.1685 42.2796 39.0446C42.4256 38.7966 42.5466 38.5376 42.6446 38.2656C42.6696 38.1976 42.6926 38.1286 42.7146 38.0595C42.7356 37.9906 42.7556 37.9216 42.7736 37.8526C42.8106 37.7136 42.8416 37.5746 42.8656 37.4345C42.9146 37.1537 42.9386 36.8706 42.9399 36.5841Z" stroke="#FF00FF" stroke-width="0.283465" stroke-miterlimit="10" stroke-linecap="round" stroke-linejoin="round"/>
<path fill-rule="evenodd" clip-rule="evenodd" d="M34.0793 22.4825C33.6872 22.4825 33.3693 22.8004 33.3693 23.1925C33.3693 23.5846 33.6872 23.9025 34.0793 23.9025H36.0693C36.3972 23.9025 36.6593 24.1646 36.6593 24.4925V29.3225C36.6593 29.6504 36.3972 29.9125 36.0693 29.9125H28.9491C28.8473 29.9125 28.7795 29.8073 28.8217 29.7146L29.2779 28.711C29.3183 28.6219 29.3393 28.5253 29.3393 28.4275V28.4175C29.3393 28.1815 29.2177 27.9621 29.0177 27.8369C28.8176 27.7116 28.5672 27.6982 28.3549 27.8014L24.4496 29.6991C23.6692 30.0665 23.6692 31.1785 24.4496 31.5459L28.3549 33.4436C28.6146 33.5698 28.9256 33.5196 29.1324 33.3181C29.3392 33.1165 29.3974 32.8069 29.2779 32.5441L28.8171 31.5304C28.775 31.4377 28.8428 31.3325 28.9446 31.3325H36.0693C37.1814 31.3325 38.0793 30.4346 38.0793 29.3225V24.4925C38.0793 23.3804 37.1814 22.4825 36.0693 22.4825H34.0793Z" fill="black"/>
<path d="M15.75 16.7501C15.3594 16.7501 15.1201 16.506 15.1201 16.0958V10.3584C15.1201 9.9482 15.3594 9.7041 15.75 9.7041H19.1827C19.5294 9.7041 19.7589 9.9092 19.7589 10.2363C19.7589 10.5634 19.5294 10.7685 19.1827 10.7685H16.5217C16.4434 10.7685 16.38 10.832 16.38 10.9102V12.5311C16.38 12.6094 16.4435 12.6728 16.5217 12.6728H19.0362C19.3585 12.6728 19.5782 12.8632 19.5782 13.1709C19.5782 13.4786 19.3634 13.6738 19.0362 13.6738H16.5217C16.4434 13.6738 16.38 13.7373 16.38 13.8155V15.5438C16.38 15.6221 16.4435 15.6855 16.5217 15.6855H19.1827C19.5294 15.6855 19.7589 15.8906 19.7589 16.2177C19.7589 16.5448 19.5294 16.7499 19.1827 16.7499H15.75V16.7501Z" fill="black"/>
<path d="M33.3614 13.548H31.2722C31.1816 13.548 31.1148 13.4642 31.1338 13.3756C31.2704 12.7369 31.742 12.4093 32.3364 12.4093C32.9308 12.4093 33.3849 12.7241 33.5011 13.3824C33.5164 13.4689 33.4493 13.548 33.3614 13.548ZM32.3316 11.4668C30.8374 11.4668 29.8853 12.5312 29.8853 14.1817C29.8853 15.8322 30.8179 16.8526 32.4 16.8526C33.2002 16.8526 33.7862 16.6748 34.2859 16.1198C34.5096 15.8714 34.4497 15.5007 34.1536 15.3422C33.9042 15.2086 33.6205 15.3367 33.4812 15.4661C33.0385 15.8775 32.7137 15.9151 32.3903 15.9151C31.6441 15.9151 31.1541 15.4304 31.1011 14.6069C31.0958 14.5248 31.1602 14.4551 31.2425 14.4551H34.1967C34.4779 14.4551 34.7073 14.2303 34.7137 13.9492C34.7464 12.5063 33.7712 11.4668 32.3316 11.4668Z" fill="black"/>
<path d="M20.8516 16.2079V12.0858C20.8516 11.7097 21.0714 11.4704 21.4328 11.4704C21.6396 11.4704 21.8086 11.5509 21.9141 11.6919C21.9397 11.7261 21.9615 11.7648 21.9792 11.8013C22.0136 11.872 22.0981 11.9021 22.1688 11.8678C22.435 11.7388 23.0543 11.4753 23.6697 11.4753C24.8126 11.4753 25.4622 12.2079 25.4622 13.4045V16.208C25.4622 16.6183 25.2131 16.8478 24.8566 16.8478C24.5001 16.8478 24.2461 16.6182 24.2461 16.208V13.6488C24.2461 12.9162 23.9042 12.5059 23.2107 12.5059C22.5172 12.5059 22.0678 13.009 22.0678 13.7513V16.208C22.0678 16.6183 21.8138 16.8478 21.4573 16.8478C21.1008 16.8478 20.8516 16.6182 20.8516 16.2079Z" fill="black"/>
<path d="M35.6992 16.2078V12.0856C35.6992 11.7046 35.9336 11.4702 36.2804 11.4702C36.514 11.4702 36.7006 11.5828 36.7932 11.7787C36.7951 11.7827 36.8015 11.7988 36.81 11.8206C36.8441 11.9081 36.9524 11.9391 37.0273 11.8824C37.2297 11.7293 37.612 11.4849 37.9899 11.4849C38.1804 11.4849 38.3269 11.5337 38.4197 11.6168C38.532 11.7096 38.5906 11.8561 38.5906 12.0564C38.5906 12.2567 38.532 12.3885 38.4099 12.4862C38.2927 12.5888 38.112 12.6425 37.8726 12.6474C37.179 12.6523 36.9153 13.087 36.9153 13.717V16.2079C36.9153 16.6084 36.6711 16.8477 36.3048 16.8477C35.9385 16.8477 35.6992 16.6083 35.6992 16.2078Z" fill="black"/>
<path d="M26.9752 15.4706V12.6543C26.9752 12.576 26.9117 12.5126 26.8335 12.5126H26.6481C26.3454 12.5126 26.1597 12.3417 26.1597 12.0487C26.1597 11.7557 26.3452 11.5897 26.6481 11.5897H26.8335C26.9118 11.5897 26.9752 11.5262 26.9752 11.448V10.885C26.9752 10.4943 27.2096 10.2501 27.5857 10.2501C27.9618 10.2501 28.1913 10.4942 28.1913 10.885V11.448C28.1913 11.5263 28.2548 11.5897 28.333 11.5897H28.7529C29.0556 11.5897 29.2413 11.7605 29.2413 12.0487C29.2413 12.3369 29.0558 12.5126 28.7529 12.5126H28.333C28.2547 12.5126 28.1913 12.5761 28.1913 12.6543V15.2069C28.1913 15.5976 28.328 15.7685 28.6797 15.7978L28.7676 15.8076C29.0899 15.8369 29.256 15.9736 29.256 16.2569C29.256 16.6133 28.9435 16.8039 28.3868 16.8039H28.338C27.4346 16.8039 26.9755 16.3546 26.9755 15.4707H26.9753L26.9752 15.4706Z" fill="black"/>
</svg>
