<svg width="68" height="54" viewBox="0 0 68 54" fill="none" xmlns="http://www.w3.org/2000/svg">
<path d="M10.7042 37.0347C10.6252 27.0965 10.5222 17.1597 10.3975 7.22118C10.4175 6.5172 10.5715 5.80821 10.8435 5.15538C10.9795 4.83141 11.1445 4.52049 11.3396 4.22826C11.5316 3.93822 11.7546 3.66722 12.0041 3.42369C12.2511 3.18077 12.5251 2.96471 12.8169 2.77855C13.1079 2.59251 13.4179 2.43651 13.7402 2.30956C14.3842 2.05553 15.0822 1.92052 15.7713 1.91148C28.0883 1.8325 40.4073 1.8325 52.7242 1.91185C52.8903 1.9149 53.0573 1.92381 53.2235 1.94054C53.4716 1.96544 53.7176 2.0045 53.9604 2.05943C54.2035 2.11436 54.4435 2.18541 54.6755 2.27098C55.1665 2.45604 55.6345 2.71495 56.0504 3.03844C56.4694 3.36339 56.8354 3.7534 57.1357 4.18932C57.4377 4.62938 57.6727 5.11742 57.8333 5.62755C57.9952 6.14366 58.0822 6.6826 58.0987 7.22203C57.9707 17.159 57.8677 27.097 57.7917 37.0349C57.7817 37.366 57.7338 37.6959 57.6611 38.02C57.5861 38.347 57.4861 38.668 57.3557 38.9765C57.2247 39.2886 57.0627 39.5885 56.8759 39.8708C56.687 40.1549 56.473 40.4228 56.2365 40.6683C55.9995 40.9143 55.7386 41.1383 55.4608 41.3364C55.1818 41.5344 54.8878 41.7074 54.5767 41.8533C53.9657 42.1412 53.2977 42.3253 52.6257 42.3811C46.5037 42.6771 40.3767 42.8241 34.2478 42.8243C28.1188 42.8243 21.9918 42.6763 15.8697 42.3808C15.1977 42.3258 14.5297 42.1478 13.9165 41.8579C13.2975 41.5659 12.7325 41.1609 12.2583 40.668C11.7863 40.1789 11.4053 39.603 11.1398 38.9756C10.8778 38.3606 10.7278 37.6966 10.7028 37.0336" stroke="#16215B" stroke-width="0.283" stroke-miterlimit="10"/>
<path d="M13.8384 4.39258C13.0554 4.39258 12.4204 5.02661 12.4204 5.8092V38.9751C12.4204 39.7582 13.0554 40.3922 13.8387 40.3926H54.6567C55.4397 40.3926 56.0737 39.7577 56.0737 38.9756V5.80957C56.0737 5.02661 55.4398 4.39258 54.6568 4.39258" stroke="#00FFFF" stroke-width="0.28" stroke-miterlimit="10"/>
<path d="M11.5405 7.43835V7.31738C11.5415 7.27844 11.5424 7.2384 11.5435 7.19836L11.5495 7.08044C11.5525 7.04041 11.5555 7.00146 11.5594 6.9624C11.5635 6.92346 11.5675 6.8844 11.5715 6.84546L11.5854 6.73035C11.5915 6.69141 11.5975 6.65344 11.6045 6.61536C11.6105 6.57739 11.6174 6.53943 11.6245 6.50146L11.6475 6.3894C11.6564 6.35242 11.6655 6.31445 11.6734 6.27747C11.6824 6.24036 11.6925 6.20337 11.7035 6.16736C11.7124 6.13037 11.7234 6.09338 11.7345 6.05737C11.7465 6.02136 11.7565 5.98438 11.7695 5.94836C11.7814 5.91235 11.7935 5.87646 11.8065 5.84045C11.8195 5.80542 11.8335 5.76941 11.8465 5.7334C11.8735 5.66736 11.9015 5.60046 11.9315 5.53442C11.9604 5.46838 11.9924 5.40442 12.0255 5.34045C12.0585 5.27637 12.0935 5.21338 12.1295 5.15247C12.1665 5.09045 12.2055 5.02942 12.2445 4.96936C12.3244 4.84937 12.4115 4.7334 12.5034 4.62244C12.5955 4.51245 12.6925 4.40735 12.7955 4.30945C12.8985 4.20935 13.0065 4.11743 13.1205 4.02942C13.2355 3.94141 13.3555 3.8584 13.4785 3.78235C13.5405 3.74438 13.6024 3.70837 13.6665 3.67346C13.7295 3.63843 13.7935 3.60535 13.8585 3.57446C13.9234 3.54236 13.9895 3.51245 14.0555 3.48438C14.1235 3.45642 14.1905 3.42944 14.2585 3.40442C14.2775 3.39746 14.2944 3.39136 14.3135 3.3844L14.3695 3.36536C14.3875 3.35938 14.4064 3.35339 14.4255 3.34741L14.4815 3.32947C14.5005 3.32336 14.5195 3.31738 14.5385 3.31238C14.5565 3.3064 14.5764 3.30139 14.5945 3.29541C14.6145 3.29041 14.6325 3.2854 14.6525 3.27942C14.6705 3.27441 14.6905 3.27039 14.7085 3.26538C14.7285 3.2594 14.7485 3.25537 14.7664 3.25037C14.7865 3.24536 14.8055 3.24146 14.8255 3.23645C14.8435 3.23242 14.8634 3.22839 14.8825 3.22339C14.9025 3.21936 14.9214 3.21545 14.9415 3.21143L15.0005 3.19946C15.0195 3.19543 15.0405 3.19238 15.0594 3.18835L15.1185 3.17847C15.1385 3.17444 15.1584 3.17139 15.1785 3.16846C15.1985 3.16541 15.2175 3.16235 15.2384 3.15942C15.2575 3.15637 15.2785 3.15442 15.2984 3.15137C15.3185 3.14844 15.3385 3.14636 15.3585 3.14441C15.3784 3.14136 15.3995 3.1394 15.4194 3.13745C15.4395 3.1344 15.4595 3.13245 15.4805 3.13037C15.5005 3.12842 15.5215 3.12646 15.5424 3.12537C15.5625 3.12341 15.5835 3.12244 15.6035 3.12036C15.6245 3.11841 15.6445 3.11743 15.6655 3.11646C15.6864 3.11438 15.7075 3.1134 15.7274 3.11243C15.7485 3.11145 15.7695 3.11035 15.7905 3.10938C15.8105 3.1084 15.8325 3.1084 15.8524 3.10742C15.8745 3.10645 15.8945 3.10645 15.9165 3.10645C15.9364 3.10535 15.9585 3.10535 15.9795 3.10535C16.0806 3.10535 16.1826 3.10437 16.2856 3.10339C16.3866 3.10339 16.4886 3.10242 16.5905 3.10144C16.6926 3.10046 16.7935 3.10046 16.8965 3.09937C16.9975 3.09839 17.0995 3.09839 17.2025 3.09741C17.3035 3.09644 17.4066 3.09644 17.5076 3.09546C17.6095 3.09436 17.7115 3.09436 17.8136 3.09338C17.9155 3.09338 18.0175 3.09241 18.1205 3.09143C18.2216 3.09143 18.3246 3.09045 18.4256 3.08936C18.5285 3.08936 18.6295 3.08838 18.7325 3.08838C18.8336 3.0874 18.9366 3.08643 19.0376 3.08643C19.1405 3.08545 19.2426 3.08545 19.3445 3.08435C19.4465 3.08435 19.5486 3.08337 19.6505 3.08337C19.7525 3.0824 19.8555 3.0824 19.9565 3.08142C20.0596 3.08142 20.1615 3.08044 20.2635 3.08044C20.3665 3.07947 20.4675 3.07947 20.5706 3.07837C20.6725 3.07739 20.7746 3.07739 20.8766 3.07642C20.9785 3.07642 21.0806 3.07544 21.1835 3.07544C21.2856 3.07446 21.3875 3.07446 21.4906 3.07336C21.5916 3.07336 21.6945 3.07239 21.7966 3.07239C21.8996 3.07141 22.0005 3.07141 22.1035 3.07141C22.2056 3.07043 22.3076 3.07043 22.4106 3.06946C22.5125 3.06946 22.6156 3.06836 22.7166 3.06836L23.0246 3.06641C23.1266 3.06641 23.2285 3.06641 23.3306 3.06543C23.4335 3.06543 23.5365 3.06445 23.6375 3.06445C23.7406 3.06445 23.8425 3.06335 23.9456 3.06335C24.0475 3.06335 24.1505 3.06238 24.2516 3.06238L24.5596 3.0614C24.6626 3.0614 24.7645 3.06042 24.8665 3.06042C24.9686 3.05945 25.0715 3.05945 25.1735 3.05945C25.2765 3.05835 25.3786 3.05835 25.4816 3.05835C25.5825 3.05737 25.6855 3.05737 25.7876 3.05737C25.8905 3.0564 25.9935 3.0564 26.0955 3.0564C26.1985 3.05542 26.3006 3.05542 26.4035 3.05542C26.5055 3.05542 26.6085 3.05444 26.7095 3.05444C26.8125 3.05444 26.9145 3.05347 27.0175 3.05347C27.1205 3.05347 27.2225 3.05347 27.3255 3.05237C27.4275 3.05237 27.5305 3.05237 27.6326 3.05237C27.7355 3.05139 27.8375 3.05139 27.9405 3.05139C28.0425 3.05139 28.1456 3.05042 28.2475 3.05042C28.3505 3.05042 28.4535 3.05042 28.5555 3.04944C28.6586 3.04944 28.7605 3.04944 28.8635 3.04944C28.9655 3.04944 29.0685 3.04846 29.1705 3.04846C29.2735 3.04846 29.3755 3.04846 29.4785 3.04846C29.5806 3.04736 29.6835 3.04736 29.7865 3.04736C29.8885 3.04736 29.9915 3.04736 30.0936 3.04736C30.1965 3.04639 30.2985 3.04639 30.4015 3.04639C30.5036 3.04639 30.6066 3.04639 30.7085 3.04639C30.8115 3.04639 30.9135 3.04541 31.0166 3.04541C31.1196 3.04541 31.2215 3.04541 31.3245 3.04541H31.6315C31.7345 3.04541 31.8365 3.04443 31.9395 3.04443H32.2465C32.3495 3.04443 32.4525 3.04443 32.5555 3.04443H32.8635H33.1705C33.2735 3.04346 33.3755 3.04346 33.4785 3.04346H33.7865H34.0936H34.4025H34.7095H35.0175C35.1205 3.04346 35.2225 3.04346 35.3255 3.04443H35.6326H35.9405C36.0425 3.04443 36.1456 3.04443 36.2475 3.04443H36.5565C36.6595 3.04443 36.7616 3.04541 36.8645 3.04541H37.1716C37.2746 3.04541 37.3765 3.04541 37.4795 3.04541C37.5815 3.04541 37.6846 3.04639 37.7876 3.04639C37.8895 3.04639 37.9925 3.04639 38.0945 3.04639C38.1976 3.04639 38.2995 3.04639 38.4025 3.04736C38.5045 3.04736 38.6075 3.04736 38.7095 3.04736C38.8125 3.04736 38.9145 3.04736 39.0175 3.04846C39.1205 3.04846 39.2225 3.04846 39.3255 3.04846C39.4275 3.04846 39.5305 3.04944 39.6326 3.04944C39.7355 3.04944 39.8375 3.04944 39.9405 3.04944C40.0425 3.05042 40.1456 3.05042 40.2475 3.05042C40.3505 3.05042 40.4535 3.05139 40.5555 3.05139C40.6586 3.05139 40.7605 3.05139 40.8635 3.05237C40.9655 3.05237 41.0685 3.05237 41.1705 3.05237C41.2735 3.05347 41.3755 3.05347 41.4785 3.05347C41.5806 3.05347 41.6825 3.05444 41.7855 3.05444C41.8875 3.05444 41.9906 3.05542 42.0925 3.05542C42.1955 3.05542 42.2975 3.05542 42.4005 3.0564C42.5025 3.0564 42.6055 3.0564 42.7075 3.05737C42.8096 3.05737 42.9126 3.05737 43.0145 3.05835C43.1175 3.05835 43.2195 3.05835 43.3226 3.05945C43.4245 3.05945 43.5275 3.05945 43.6286 3.06042C43.7316 3.06042 43.8335 3.0614 43.9365 3.0614L44.2446 3.06238C44.3455 3.06238 44.4485 3.06335 44.5506 3.06335C44.6535 3.06335 44.7555 3.06445 44.8575 3.06445L45.1645 3.06543C45.2675 3.06641 45.3696 3.06641 45.4715 3.06641C45.5745 3.06738 45.6765 3.06738 45.7785 3.06836L46.0855 3.06946C46.1875 3.07043 46.2895 3.07043 46.3925 3.07141C46.4955 3.07141 46.5965 3.07141 46.6995 3.07239C46.8015 3.07239 46.9035 3.07336 47.0055 3.07336C47.1085 3.07446 47.2095 3.07446 47.3125 3.07544C47.4145 3.07544 47.5166 3.07642 47.6196 3.07642C47.7215 3.07739 47.8235 3.07739 47.9256 3.07837C48.0285 3.07947 48.1295 3.07947 48.2325 3.08044C48.3335 3.08044 48.4365 3.08142 48.5385 3.08142C48.6405 3.0824 48.7435 3.0824 48.8445 3.08337C48.9476 3.08337 49.0495 3.08435 49.1515 3.08435C49.2536 3.08545 49.3555 3.08545 49.4575 3.08643C49.5596 3.08643 49.6626 3.0874 49.7635 3.08838C49.8665 3.08838 49.9675 3.08936 50.0705 3.08936C50.1716 3.09045 50.2746 3.09143 50.3755 3.09143C50.4785 3.09241 50.5795 3.09338 50.6825 3.09338C50.7845 3.09436 50.8855 3.09436 50.9885 3.09546C51.0896 3.09644 51.1926 3.09644 51.2935 3.09741C51.3956 3.09839 51.4975 3.09839 51.5995 3.09937C51.7025 3.10046 51.8035 3.10046 51.9055 3.10144C52.0076 3.10242 52.1095 3.10339 52.2105 3.10339C52.3136 3.10437 52.4145 3.10535 52.5166 3.10535C52.558 3.10547 52.599 3.10645 52.639 3.10742C52.68 3.1084 52.72 3.11047 52.76 3.11243C52.8 3.11438 52.84 3.11646 52.88 3.11938C52.92 3.12244 52.96 3.12537 52.999 3.12939C53.0379 3.13245 53.078 3.13745 53.117 3.14136C53.156 3.14636 53.195 3.15039 53.233 3.15637C53.272 3.16138 53.311 3.16736 53.35 3.17346C53.388 3.18042 53.4259 3.1864 53.464 3.19336C53.502 3.20044 53.54 3.20837 53.578 3.21643C53.615 3.22437 53.653 3.23242 53.69 3.24146C53.727 3.25037 53.765 3.2594 53.802 3.26941C53.839 3.27844 53.876 3.28845 53.912 3.29846C53.949 3.30945 53.985 3.32043 54.021 3.33142C54.058 3.34241 54.0939 3.35547 54.13 3.36646C54.166 3.37842 54.202 3.39136 54.237 3.40442C54.306 3.42944 54.373 3.45642 54.4389 3.48438C54.507 3.51245 54.572 3.54236 54.638 3.57446C54.702 3.60547 54.767 3.63843 54.83 3.67346C54.893 3.70837 54.955 3.74438 55.017 3.78247C55.141 3.8584 55.261 3.94043 55.376 4.02942C55.489 4.11646 55.597 4.20947 55.7 4.30847C55.803 4.40747 55.8999 4.51245 55.992 4.62244C56.085 4.7334 56.171 4.84937 56.251 4.96936C56.291 5.02942 56.329 5.09045 56.366 5.15247C56.402 5.21338 56.437 5.27637 56.471 5.34045C56.504 5.40442 56.535 5.46838 56.5639 5.53442C56.595 5.60046 56.623 5.66638 56.649 5.7334C56.656 5.75244 56.6629 5.77039 56.67 5.78943C56.677 5.80737 56.684 5.82642 56.69 5.84436C56.697 5.86243 56.704 5.88147 56.71 5.89941C56.717 5.91846 56.723 5.93738 56.729 5.95642C56.735 5.97437 56.741 5.99341 56.747 6.01245C56.753 6.0304 56.759 6.04944 56.765 6.06836C56.77 6.0874 56.776 6.10645 56.781 6.12537C56.787 6.14441 56.792 6.16345 56.797 6.18237C56.803 6.20142 56.808 6.22046 56.812 6.23938C56.817 6.25842 56.822 6.27747 56.827 6.29639C56.831 6.31543 56.836 6.33545 56.841 6.35437C56.845 6.37439 56.849 6.39343 56.853 6.41248C56.8569 6.43237 56.861 6.45142 56.865 6.47046L56.877 6.52942C56.88 6.54846 56.884 6.56836 56.888 6.5874C56.891 6.60742 56.894 6.62744 56.897 6.64636C56.8999 6.66736 56.903 6.6864 56.906 6.70642C56.909 6.72644 56.912 6.74646 56.914 6.76636C56.917 6.78638 56.92 6.80542 56.922 6.82544C56.925 6.84546 56.927 6.86536 56.929 6.88538C56.931 6.90637 56.933 6.92639 56.935 6.94641C56.936 6.96643 56.938 6.98645 56.94 7.00647C56.942 7.02747 56.943 7.04736 56.945 7.06738C56.946 7.0874 56.947 7.1084 56.948 7.12842C56.95 7.14941 56.951 7.16943 56.952 7.19043C56.952 7.21045 56.953 7.23145 56.954 7.25146C56.955 7.27246 56.955 7.29346 56.956 7.31335V7.37646V7.43835C56.9541 7.94385 56.951 8.44885 56.948 8.95483C56.9321 12.1459 56.9161 15.3379 56.901 18.5299C56.895 19.6938 56.891 20.8579 56.8861 22.0228C56.865 26.8768 56.8471 31.7319 56.8301 36.5858C56.8299 36.6251 56.829 36.6641 56.828 36.7031C56.827 36.7432 56.8259 36.7821 56.824 36.8212C56.8219 36.8601 56.819 36.8992 56.816 36.9371C56.8129 36.9761 56.81 37.0142 56.807 37.0531C56.803 37.0922 56.799 37.1301 56.794 37.1681C56.79 37.2061 56.784 37.2441 56.7789 37.2831C56.773 37.3212 56.768 37.3582 56.7609 37.3961C56.755 37.4341 56.748 37.4722 56.7399 37.5092C56.733 37.5471 56.726 37.5841 56.717 37.6211C56.709 37.6591 56.7 37.6962 56.691 37.7332C56.682 37.7701 56.673 37.8071 56.6619 37.8441C56.652 37.8801 56.642 37.9171 56.631 37.9531C56.6199 37.9901 56.608 38.0271 56.597 38.0631C56.5849 38.0991 56.5719 38.1361 56.56 38.1721C56.547 38.2081 56.534 38.2432 56.5199 38.2802C56.4679 38.4171 56.409 38.5541 56.3439 38.6862C56.2789 38.8171 56.209 38.9441 56.1329 39.0681C56.057 39.1912 55.975 39.3101 55.8869 39.4261C55.799 39.5411 55.7049 39.6521 55.605 39.7581C55.5069 39.8651 55.401 39.9661 55.2919 40.0631C55.182 40.1591 55.0669 40.2511 54.948 40.3372C54.889 40.3792 54.828 40.4211 54.767 40.4601C54.7049 40.5001 54.643 40.5381 54.5799 40.5751C54.517 40.6111 54.453 40.6461 54.389 40.6791C54.323 40.7122 54.2579 40.7441 54.191 40.7742C54.174 40.7821 54.157 40.7891 54.14 40.7971C54.123 40.8051 54.105 40.8121 54.088 40.8191C54.07 40.8262 54.054 40.8341 54.036 40.8411C54.019 40.8481 54.001 40.8551 53.983 40.8621C53.967 40.8691 53.949 40.8761 53.932 40.8821C53.914 40.8892 53.896 40.8951 53.879 40.9021L53.8259 40.9211C53.8089 40.9271 53.791 40.9331 53.772 40.9391C53.755 40.9462 53.737 40.9512 53.72 40.9572C53.702 40.9631 53.685 40.9691 53.666 40.9741C53.648 40.9801 53.631 40.9851 53.612 40.9911C53.595 40.9961 53.577 41.0011 53.5589 41.0061C53.541 41.0121 53.522 41.0161 53.505 41.0211C53.4859 41.0261 53.4689 41.0311 53.45 41.0352C53.433 41.0402 53.414 41.0452 53.396 41.0502C53.3779 41.0541 53.359 41.0581 53.342 41.0621C53.323 41.0671 53.3049 41.0712 53.2869 41.0751L53.2309 41.0872C53.213 41.0911 53.195 41.0941 53.177 41.0981L53.121 41.1082C53.1019 41.1121 53.084 41.1151 53.065 41.1182C53.047 41.1211 53.028 41.1241 53.01 41.1271C52.991 41.1301 52.9729 41.1331 52.953 41.1361C52.935 41.1381 52.916 41.1411 52.897 41.1431C52.879 41.1461 52.859 41.1481 52.841 41.1511C52.8219 41.1531 52.803 41.1552 52.784 41.1571C52.7659 41.1591 52.746 41.1611 52.7269 41.1631C52.708 41.1652 52.6889 41.1671 52.67 41.1681C52.651 41.1702 52.6319 41.1711 52.613 41.1731C52.5939 41.1741 52.575 41.1761 52.556 41.1771C52.536 41.1781 52.518 41.1791 52.498 41.1801C52.396 41.1851 52.295 41.1901 52.192 41.1951L51.888 41.2101C51.785 41.2151 51.6839 41.2201 51.582 41.2241C51.48 41.2291 51.3779 41.2341 51.276 41.2391C51.1749 41.2432 51.0719 41.2482 50.971 41.2532C50.8689 41.2581 50.767 41.2621 50.665 41.2661C50.5629 41.2711 50.461 41.2761 50.359 41.2802C50.2579 41.2841 50.155 41.2891 50.054 41.2931C49.952 41.2981 49.85 41.3021 49.748 41.3062C49.6449 41.3112 49.544 41.3151 49.442 41.3191C49.34 41.3241 49.238 41.3281 49.136 41.3322C49.034 41.3361 48.932 41.3401 48.83 41.3441C48.7269 41.3481 48.626 41.3522 48.524 41.3561C48.422 41.3601 48.32 41.3641 48.218 41.3682C48.116 41.3721 48.014 41.3761 47.911 41.3801C47.81 41.3831 47.707 41.3871 47.605 41.3911C47.5029 41.3942 47.401 41.3981 47.299 41.4021C47.1969 41.4061 47.095 41.4091 46.993 41.4121C46.8909 41.4161 46.7879 41.4202 46.686 41.4231C46.584 41.4271 46.4819 41.4301 46.38 41.4331C46.277 41.4371 46.1759 41.4401 46.073 41.4431C45.971 41.4471 45.8689 41.4501 45.767 41.4531C45.665 41.4561 45.562 41.4591 45.4599 41.4622C45.358 41.4661 45.256 41.4691 45.153 41.4722C45.052 41.4751 44.949 41.4781 44.847 41.4811C44.7439 41.4841 44.643 41.4871 44.54 41.4891C44.437 41.4921 44.336 41.4951 44.233 41.4982C44.131 41.5001 44.028 41.5032 43.927 41.5061C43.824 41.5092 43.722 41.5111 43.6199 41.5142C43.518 41.5161 43.415 41.5192 43.312 41.5221C43.2099 41.5242 43.108 41.5271 43.006 41.5292C42.903 41.5321 42.8009 41.5341 42.699 41.5361L42.392 41.5431C42.289 41.5452 42.187 41.5481 42.0849 41.5502C41.9819 41.5521 41.88 41.5541 41.777 41.5562C41.6759 41.5581 41.573 41.5601 41.471 41.5621L41.1629 41.5681C41.061 41.5701 40.959 41.5721 40.8559 41.5741C40.754 41.5762 40.651 41.5771 40.549 41.5791C40.446 41.5811 40.345 41.5831 40.242 41.5841C40.14 41.5861 40.0369 41.5881 39.935 41.5891C39.832 41.5911 39.729 41.5922 39.6279 41.5941L39.32 41.5981L39.013 41.6022C38.91 41.6031 38.808 41.6051 38.705 41.6061C38.603 41.6071 38.501 41.6091 38.398 41.6101C38.2959 41.6111 38.1929 41.6121 38.091 41.6132L37.7829 41.6161C37.681 41.6171 37.578 41.6182 37.4769 41.6191C37.3739 41.6201 37.271 41.6201 37.169 41.6211C37.066 41.6221 36.9639 41.6232 36.8609 41.6241C36.759 41.6241 36.656 41.6251 36.554 41.6261C36.4509 41.6261 36.349 41.6271 36.246 41.6282C36.143 41.6282 36.041 41.6292 35.9389 41.6292C35.837 41.6301 35.734 41.6301 35.6319 41.6301L35.324 41.6321C35.222 41.6321 35.1189 41.6321 35.017 41.6321C34.914 41.6331 34.811 41.6331 34.709 41.6331C34.6059 41.6331 34.504 41.6331 34.401 41.6331H34.095C33.992 41.6331 33.89 41.6331 33.7869 41.6331C33.685 41.6331 33.582 41.6331 33.479 41.6321C33.377 41.6321 33.2739 41.6321 33.172 41.6321L32.864 41.6301C32.7619 41.6301 32.659 41.6301 32.557 41.6292C32.454 41.6292 32.3519 41.6282 32.25 41.6282C32.147 41.6271 32.045 41.6261 31.942 41.6261C31.84 41.6251 31.737 41.6241 31.635 41.6241C31.532 41.6232 31.4299 41.6221 31.327 41.6211C31.225 41.6201 31.122 41.6201 31.019 41.6191C30.9169 41.6182 30.815 41.6171 30.713 41.6161L30.405 41.6132C30.303 41.6121 30.2 41.6111 30.0979 41.6101C29.9949 41.6091 29.893 41.6071 29.79 41.6061C29.687 41.6051 29.586 41.6031 29.483 41.6022L29.1759 41.5981L28.868 41.5941C28.7659 41.5922 28.664 41.5911 28.561 41.5891C28.459 41.5881 28.3559 41.5861 28.254 41.5841C28.151 41.5831 28.049 41.5811 27.9469 41.5791C27.845 41.5771 27.742 41.5762 27.64 41.5741L27.332 41.5681C27.23 41.5662 27.1279 41.5641 27.0249 41.5621C26.923 41.5601 26.82 41.5581 26.7179 41.5562C26.616 41.5541 26.514 41.5521 26.411 41.5502C26.3089 41.5481 26.2059 41.5452 26.104 41.5431L25.797 41.5361C25.694 41.5341 25.5929 41.5321 25.4899 41.5292C25.388 41.5271 25.285 41.5242 25.1839 41.5221C25.081 41.5192 24.978 41.5161 24.876 41.5142C24.774 41.5111 24.672 41.5092 24.569 41.5061C24.467 41.5032 24.365 41.5001 24.263 41.4982C24.16 41.4951 24.059 41.4921 23.956 41.4891C23.853 41.4871 23.751 41.4841 23.649 41.4811C23.547 41.4781 23.444 41.4751 23.343 41.4722C23.24 41.4691 23.138 41.4661 23.036 41.4622C22.934 41.4591 22.831 41.4561 22.729 41.4531C22.627 41.4501 22.524 41.4471 22.423 41.4431C22.32 41.4401 22.219 41.4371 22.116 41.4331C22.014 41.4301 21.912 41.4271 21.81 41.4231C21.708 41.4202 21.605 41.4161 21.503 41.4121C21.401 41.4091 21.299 41.4061 21.197 41.4021C21.095 41.3981 20.993 41.3942 20.891 41.3911C20.788 41.3871 20.686 41.3831 20.584 41.3801C20.482 41.3761 20.38 41.3721 20.278 41.3682C20.176 41.3641 20.074 41.3601 19.972 41.3561C19.87 41.3522 19.768 41.3481 19.666 41.3441C19.563 41.3401 19.462 41.3361 19.36 41.3322C19.258 41.3281 19.156 41.3241 19.054 41.3191C18.952 41.3151 18.85 41.3112 18.748 41.3062C18.646 41.3021 18.544 41.2981 18.442 41.2931C18.34 41.2891 18.238 41.2841 18.137 41.2802C18.034 41.2761 17.933 41.2711 17.831 41.2661C17.728 41.2621 17.627 41.2581 17.525 41.2532C17.423 41.2482 17.321 41.2432 17.22 41.2391C17.118 41.2341 17.016 41.2291 16.914 41.2241C16.812 41.2201 16.711 41.2151 16.608 41.2101L16.304 41.1951C16.201 41.1901 16.1 41.1851 15.998 41.1799C15.812 41.1709 15.627 41.1509 15.444 41.1208C14.966 41.0399 14.493 40.8829 14.063 40.6559C13.632 40.4288 13.232 40.1239 12.898 39.7668C12.76 39.6179 12.629 39.4589 12.512 39.2919C12.224 38.8829 12.003 38.4209 11.863 37.9448C11.732 37.5049 11.667 37.0428 11.6661 36.5854C11.649 31.7294 11.6311 26.8734 11.6101 22.0164C11.6051 20.8514 11.6011 19.6854 11.5951 18.5204C11.58 15.3304 11.5641 12.1404 11.548 8.95044C11.5451 8.44641 11.5421 7.94238 11.5391 7.43835" stroke="#FF00FF" stroke-width="0.283465" stroke-miterlimit="10" stroke-linecap="round" stroke-linejoin="round"/>
<path d="M55.9491 46.9191V52.01H55.3326V47.5654H55.3028L54.0599 48.3907V47.7643L55.3326 46.9191H55.9491ZM57.5499 52.0498C57.4273 52.0498 57.3221 52.0059 57.2342 51.918C57.1464 51.8302 57.1025 51.725 57.1025 51.6023C57.1025 51.4797 57.1464 51.3745 57.2342 51.2866C57.3221 51.1988 57.4273 51.1549 57.5499 51.1549C57.6726 51.1549 57.7778 51.1988 57.8656 51.2866C57.9535 51.3745 57.9974 51.4797 57.9974 51.6023C57.9974 51.6835 57.9767 51.7581 57.9352 51.8261C57.8955 51.894 57.8416 51.9487 57.7737 51.9901C57.7074 52.0299 57.6328 52.0498 57.5499 52.0498ZM59.0402 52.01V51.5626L60.7206 49.7231C60.9178 49.5076 61.0802 49.3204 61.2078 49.1613C61.3354 49.0005 61.4299 48.8497 61.4912 48.7089C61.5541 48.5664 61.5856 48.4172 61.5856 48.2614C61.5856 48.0825 61.5425 47.9275 61.4564 47.7966C61.3718 47.6657 61.2558 47.5646 61.1084 47.4933C60.9609 47.4221 60.7951 47.3864 60.6112 47.3864C60.4156 47.3864 60.245 47.427 60.0991 47.5082C59.9549 47.5878 59.8431 47.6996 59.7635 47.8438C59.6857 47.988 59.6467 48.157 59.6467 48.3509H59.0601C59.0601 48.0526 59.1288 47.7908 59.2664 47.5654C59.4039 47.34 59.5912 47.1644 59.8282 47.0384C60.0668 46.9125 60.3344 46.8495 60.6311 46.8495C60.9294 46.8495 61.1937 46.9125 61.4241 47.0384C61.6544 47.1644 61.835 47.3342 61.966 47.548C62.0969 47.7618 62.1623 47.9996 62.1623 48.2614C62.1623 48.4487 62.1284 48.6318 62.0604 48.8108C61.9941 48.9881 61.8781 49.1861 61.7124 49.4049C61.5483 49.622 61.3205 49.8871 61.0288 50.2004L59.8853 51.4234V51.4631H62.2518V52.01H59.0402ZM64.8694 52.0796C64.5777 52.0796 64.315 52.0216 64.0814 51.9056C63.8477 51.7896 63.6604 51.6305 63.5196 51.4283C63.3787 51.2262 63.3017 50.9958 63.2884 50.7373H63.885C63.9082 50.9676 64.0126 51.1582 64.1982 51.309C64.3855 51.4582 64.6092 51.5327 64.8694 51.5327C65.0782 51.5327 65.2638 51.4838 65.4262 51.3861C65.5902 51.2883 65.7187 51.1541 65.8115 50.9834C65.9059 50.811 65.9532 50.6163 65.9532 50.3992C65.9532 50.1771 65.9043 49.9791 65.8065 49.8051C65.7104 49.6294 65.5778 49.4911 65.4088 49.39C65.2397 49.2889 65.0467 49.2375 64.8296 49.2359C64.6738 49.2342 64.5139 49.2582 64.3498 49.308C64.1858 49.356 64.0507 49.4182 63.9446 49.4944L63.3679 49.4248L63.6762 46.9191H66.3211V47.466H64.1932L64.0142 48.9674H64.0441C64.1485 48.8845 64.2794 48.8158 64.4368 48.7611C64.5943 48.7064 64.7583 48.679 64.929 48.679C65.2406 48.679 65.5182 48.7536 65.7618 48.9028C66.007 49.0503 66.1993 49.2524 66.3385 49.5093C66.4793 49.7662 66.5498 50.0595 66.5498 50.3893C66.5498 50.7141 66.4768 51.0041 66.331 51.2593C66.1868 51.5129 65.988 51.7134 65.7344 51.8609C65.4809 52.0067 65.1925 52.0796 64.8694 52.0796Z" fill="#0000FF"/>
<path fill-rule="evenodd" clip-rule="evenodd" d="M18.7203 11.59C18.7203 11.2487 18.9959 10.97 19.3403 10.97H27.6603C28.0017 10.97 28.2803 11.2456 28.2803 11.59V19.91C28.2803 20.2514 28.0047 20.53 27.6603 20.53H19.3403C18.9989 20.53 18.7203 20.2545 18.7203 19.91V11.59ZM19.3403 9.55005C18.2047 9.55005 17.3003 10.4714 17.3003 11.59V19.91C17.3003 21.0456 18.2217 21.95 19.3403 21.95H27.6603C28.7959 21.95 29.7003 21.0287 29.7003 19.91V11.59C29.7003 10.4545 28.7789 9.55005 27.6603 9.55005H19.3403ZM20.7603 15.0401C20.3682 15.0401 20.0503 15.3579 20.0503 15.7501C20.0503 16.1422 20.3682 16.4601 20.7603 16.4601H26.2503C26.6424 16.4601 26.9603 16.1422 26.9603 15.7501C26.9603 15.3579 26.6424 15.0401 26.2503 15.0401H20.7603ZM20.0503 18.5001C20.0503 18.1079 20.3682 17.7901 20.7603 17.7901H26.2503C26.6424 17.7901 26.9603 18.1079 26.9603 18.5001C26.9603 18.8922 26.6424 19.2101 26.2503 19.2101H20.7603C20.3682 19.2101 20.0503 18.8922 20.0503 18.5001ZM20.7603 12.3C20.3682 12.3 20.0503 12.6179 20.0503 13.01C20.0503 13.4022 20.3682 13.72 20.7603 13.72H26.2503C26.6424 13.72 26.9603 13.4022 26.9603 13.01C26.9603 12.6179 26.6424 12.3 26.2503 12.3H20.7603Z" fill="black"/>
<path d="M17.75 35.8331C17.3594 35.8331 17.1201 35.5938 17.1201 35.1788V29.3584C17.1201 28.9482 17.3594 28.7041 17.75 28.7041H21.1192C21.4659 28.7041 21.6954 28.9092 21.6954 29.2363C21.6954 29.5634 21.461 29.7685 21.1192 29.7685H18.5216C18.4433 29.7685 18.3799 29.832 18.3799 29.9102V31.7068C18.3799 31.7851 18.4434 31.8485 18.5216 31.8485H20.8652C21.1972 31.8485 21.417 32.0438 21.417 32.3612C21.417 32.6786 21.1973 32.8739 20.8652 32.8739H18.5216C18.4433 32.8739 18.3799 32.9374 18.3799 33.0156V35.1786C18.3799 35.5936 18.1455 35.8329 17.75 35.8329V35.8331Z" fill="black"/>
<path d="M36.4556 35.8526C34.9419 35.8526 33.9653 34.8272 33.9653 33.167C33.9653 31.5068 34.937 30.4668 36.4458 30.4668C37.4614 30.4668 38.3257 30.9893 38.5747 31.7168C38.6138 31.8193 38.6382 31.9219 38.6382 32.0098C38.6382 32.3125 38.4087 32.4981 38.1157 32.4981C37.8716 32.4981 37.7251 32.3956 37.5835 32.1514C37.3247 31.6778 36.9829 31.4532 36.48 31.4532C35.6987 31.4532 35.2007 32.1026 35.2007 33.1622C35.2007 34.2218 35.7036 34.8712 36.4751 34.8712C37.0122 34.8712 37.3442 34.6222 37.5786 34.2071C37.7446 33.9337 37.8765 33.8311 38.1401 33.8311C38.4282 33.8311 38.6528 34.0264 38.6528 34.3292C38.6528 34.422 38.6284 34.5245 38.5796 34.6417C38.2915 35.3497 37.4321 35.8526 36.4556 35.8526Z" fill="black"/>
<path d="M28.9995 35.8477C28.6431 35.8477 28.394 35.6182 28.394 35.208V31.0869C28.394 30.7109 28.6137 30.4717 28.9751 30.4717C29.1243 30.4717 29.2991 30.5108 29.4343 30.6658C29.4808 30.7191 29.5121 30.7786 29.5333 30.8328C29.5648 30.9137 29.6613 30.9471 29.7363 30.9033C29.9995 30.7497 30.5592 30.4766 31.2115 30.4766C32.3541 30.4766 33.0035 31.209 33.0035 32.4053V35.2081C33.0035 35.6183 32.7545 35.8478 32.398 35.8478C32.0415 35.8478 31.7876 35.6183 31.7876 35.2081V32.6495C31.7876 31.9171 31.4458 31.5069 30.7524 31.5069C30.059 31.5069 29.6098 32.0098 29.6098 32.752V35.2081C29.6098 35.6183 29.3559 35.8478 28.9994 35.8478L28.9995 35.8477Z" fill="black"/>
<path d="M24.42 35.8429C23.2969 35.8429 22.584 35.1154 22.584 33.9191V31.1115C22.584 30.7062 22.833 30.4718 23.1895 30.4718C23.546 30.4718 23.7999 30.7062 23.7999 31.1163V33.6749C23.7999 34.4171 24.1612 34.8175 24.8448 34.8175C25.5284 34.8175 25.9825 34.3194 25.9825 33.5675V31.1114C25.9825 30.7061 26.2364 30.4717 26.5929 30.4717C26.9494 30.4717 27.1984 30.7061 27.1984 31.1162V35.2325C27.1984 35.6231 26.964 35.8477 26.6173 35.8477C26.2706 35.8477 26.1443 35.6373 26.1169 35.5926C26.0986 35.5626 26.0831 35.5272 26.0704 35.492C26.0411 35.4108 25.9457 35.3753 25.8697 35.4163C25.5937 35.5648 25.0792 35.8429 24.4199 35.8429H24.42Z" fill="black"/>
</svg>
