<svg width="82" height="54" viewBox="0 0 82 54" fill="none" xmlns="http://www.w3.org/2000/svg">
<rect x="2.3501" y="1.84998" width="77.3" height="50.3" rx="3" stroke="#8B1EFF" stroke-width="0.28"/>
<path d="M71.5068 37.0027C71.5848 27.0807 71.6919 17.1587 71.8298 7.23665C71.8199 6.87965 71.7788 6.52266 71.7035 6.17201C71.6305 5.82301 71.5245 5.48201 71.3847 5.15382C71.2467 4.82881 71.0757 4.51686 70.876 4.22511C70.676 3.93513 70.448 3.66512 70.1949 3.42079C69.9419 3.17781 69.6649 2.96077 69.3693 2.77412C69.0733 2.58711 68.7583 2.42915 68.4325 2.30342C68.1065 2.17744 67.7675 2.0815 67.4237 2.01741C67.0777 1.95345 66.7278 1.91939 66.3745 1.91585C49.4605 1.82491 32.5455 1.82491 15.6317 1.91548C15.2937 1.92159 14.9567 1.95454 14.6241 2.01485C14.2921 2.07381 13.9641 2.15974 13.6495 2.27437C13.4005 2.36739 13.1575 2.47835 12.9246 2.60493C12.6925 2.73299 12.4685 2.87801 12.2568 3.03865C12.0458 3.20058 11.8468 3.37856 11.663 3.57112C11.4779 3.76515 11.3099 3.97414 11.1587 4.19398C11.0067 4.41493 10.8716 4.64796 10.7538 4.88844C10.6358 5.13149 10.5358 5.38149 10.4525 5.63869C10.2864 6.15468 10.1914 6.69667 10.1777 7.23622C10.3117 17.1582 10.4188 27.0802 10.5002 37.0013C10.5251 37.6633 10.6751 38.3273 10.94 38.9409C11.209 39.5659 11.595 40.1389 12.071 40.6231C12.55 41.1111 13.118 41.5101 13.7408 41.796C14.3578 42.0809 15.0288 42.254 15.7026 42.3051C24.1317 42.6481 32.5667 42.8191 41.0034 42.819C49.4394 42.819 57.8744 42.648 66.3044 42.3047C66.9783 42.2537 67.6483 42.0807 68.2662 41.7968C68.8882 41.5098 69.4572 41.1109 69.9361 40.6232C70.4111 40.1383 70.7971 39.5662 71.0675 38.9408C71.3305 38.3278 71.4825 37.6638 71.5066 37.0007" stroke="#8B1EFF" stroke-width="0.283" stroke-miterlimit="10"/>
<path d="M11.7583 38.7131V6.44019C11.7583 5.26575 12.7093 4.31372 13.8843 4.31372H17.4273H64.6312H68.1743C69.3483 4.31372 70.3003 5.26575 70.3003 6.4397V38.7127C70.3003 39.8871 69.3483 40.8391 68.1743 40.8391L13.8843 40.8392C12.7093 40.8392 11.7583 39.8871 11.7583 38.7131Z" stroke="#00FFFF" stroke-width="0.28" stroke-miterlimit="10"/>
<path d="M66.1805 41.1327C49.4365 41.8178 32.5695 41.8178 15.8265 41.1327C15.5304 41.12 15.2384 41.083 14.9494 41.018C14.8044 40.986 14.6624 40.947 14.5224 40.902C14.3833 40.856 14.2453 40.805 14.1104 40.746C13.9754 40.688 13.8443 40.623 13.7154 40.552C13.6503 40.516 13.5864 40.478 13.5224 40.439C13.4603 40.4 13.3984 40.36 13.3384 40.318C13.0964 40.15 12.8724 39.961 12.6694 39.749C12.6184 39.696 12.5683 39.642 12.5194 39.586C12.4714 39.531 12.4244 39.473 12.3783 39.415C12.2874 39.3 12.2024 39.18 12.1243 39.057C11.9684 38.811 11.8374 38.552 11.7304 38.28C11.7044 38.211 11.6794 38.142 11.6564 38.073C11.6333 38.003 11.6113 37.933 11.5914 37.863C11.5524 37.723 11.5184 37.582 11.4924 37.44C11.4393 37.156 11.4133 36.869 11.4124 36.577C11.3963 31.7904 11.3783 27.0025 11.3583 22.2155C11.3382 17.4284 11.3153 12.6414 11.2903 7.85341C11.2815 7.69783 11.2755 7.54182 11.2765 7.38686C11.2775 7.23085 11.2865 7.07686 11.3035 6.92287C11.3105 6.84584 11.3215 6.76881 11.3335 6.69185C11.3455 6.61482 11.3595 6.53883 11.3755 6.46187C11.4075 6.31087 11.4475 6.16182 11.4955 6.01485C11.5425 5.86885 11.5975 5.72585 11.6625 5.58485C11.6935 5.51485 11.7275 5.44582 11.7635 5.37685C11.8005 5.30885 11.8385 5.24086 11.8785 5.17384C12.0375 4.90883 12.2245 4.66682 12.4395 4.44685C12.4935 4.39186 12.5495 4.33784 12.6065 4.28682C12.6355 4.25984 12.6645 4.23482 12.6935 4.20882C12.7235 4.18385 12.7535 4.15883 12.7835 4.13387C12.9045 4.03682 13.0305 3.94582 13.1605 3.86287C13.4205 3.69685 13.6985 3.55983 13.9925 3.44887C14.2865 3.33882 14.5875 3.25984 14.8925 3.20686C15.1985 3.15382 15.5105 3.12685 15.8255 3.12581C32.57 3.03383 49.437 3.03383 66.18 3.12581C66.4961 3.12691 66.8081 3.15388 67.1131 3.20686C67.4191 3.2599 67.7201 3.33888 68.0141 3.44887C68.3081 3.55989 68.5851 3.69691 68.8461 3.86287C68.9761 3.94588 69.1011 4.0359 69.2221 4.13387C69.2521 4.15889 69.2821 4.18391 69.3121 4.20888C69.3411 4.2339 69.3701 4.2599 69.4001 4.2859C69.4561 4.33791 69.5121 4.39186 69.5661 4.44691C69.7801 4.66591 69.9681 4.90889 70.1281 5.1739C70.1681 5.23988 70.2061 5.30788 70.2421 5.37691C70.2791 5.4449 70.3121 5.51491 70.3441 5.58492C70.4071 5.72487 70.4631 5.86891 70.5111 6.01491C70.5591 6.1609 70.5991 6.30989 70.6301 6.46187C70.6471 6.53792 70.6601 6.61488 70.6731 6.69087C70.6851 6.7679 70.6951 6.84486 70.7031 6.92189C70.7201 7.07588 70.7281 7.23091 70.7301 7.38588C70.7311 7.54091 70.7251 7.69691 70.7161 7.85286C70.691 12.64 70.668 17.428 70.648 22.215C70.627 27.002 70.61 31.79 70.594 36.5767C70.593 36.8687 70.566 37.1587 70.513 37.4458C70.486 37.5907 70.452 37.7327 70.412 37.8717C70.372 38.0117 70.326 38.1497 70.273 38.2847C70.22 38.4198 70.16 38.5527 70.094 38.6837C70.061 38.7497 70.026 38.8147 69.99 38.8787C69.952 38.9428 69.914 39.0058 69.875 39.0667C69.717 39.3137 69.536 39.5427 69.332 39.7547C69.282 39.8067 69.229 39.8587 69.175 39.9087C69.121 39.9597 69.066 40.0087 69.009 40.0567C68.896 40.1527 68.78 40.2417 68.659 40.3237C68.417 40.4898 68.161 40.6317 67.89 40.7487C67.823 40.7777 67.753 40.8057 67.684 40.8317C67.615 40.8577 67.545 40.8817 67.475 40.9038C67.335 40.9497 67.194 40.9877 67.051 41.0197C66.766 41.0827 66.475 41.1207 66.1805 41.1327Z" stroke="#FF00FF" stroke-width="0.283465" stroke-miterlimit="10" stroke-linecap="round" stroke-linejoin="round"/>
<path d="M66.9144 44.9191V50.01H66.2979V45.5654H66.2681L65.0252 46.3907V45.7643L66.2979 44.9191H66.9144ZM68.5153 50.0498C68.3926 50.0498 68.2874 50.0059 68.1996 49.918C68.1117 49.8302 68.0678 49.725 68.0678 49.6023C68.0678 49.4797 68.1117 49.3745 68.1996 49.2866C68.2874 49.1988 68.3926 49.1549 68.5153 49.1549C68.6379 49.1549 68.7431 49.1988 68.831 49.2866C68.9188 49.3745 68.9627 49.4797 68.9627 49.6023C68.9627 49.6835 68.942 49.7581 68.9006 49.8261C68.8608 49.894 68.8069 49.9487 68.739 49.9901C68.6727 50.0299 68.5981 50.0498 68.5153 50.0498ZM71.4939 50.0796C71.2022 50.0796 70.9395 50.0216 70.7059 49.9056C70.4722 49.7896 70.2849 49.6305 70.1441 49.4283C70.0032 49.2262 69.9262 48.9958 69.9129 48.7373H70.5095C70.5327 48.9676 70.6371 49.1582 70.8227 49.309C71.01 49.4582 71.2337 49.5327 71.4939 49.5327C71.7027 49.5327 71.8883 49.4838 72.0507 49.3861C72.2148 49.2883 72.3432 49.1541 72.436 48.9834C72.5305 48.811 72.5777 48.6163 72.5777 48.3992C72.5777 48.1771 72.5288 47.9791 72.431 47.8051C72.3349 47.6294 72.2023 47.4911 72.0333 47.39C71.8643 47.2889 71.6712 47.2375 71.4541 47.2359C71.2983 47.2342 71.1384 47.2582 70.9743 47.308C70.8103 47.356 70.6752 47.4182 70.5692 47.4944L69.9925 47.4248L70.3007 44.9191H72.9456V45.466H70.8177L70.6388 46.9674H70.6686C70.773 46.8845 70.9039 46.8158 71.0613 46.7611C71.2188 46.7064 71.3828 46.679 71.5535 46.679C71.8651 46.679 72.1427 46.7536 72.3863 46.9028C72.6315 47.0503 72.8238 47.2524 72.963 47.5093C73.1038 47.7662 73.1743 48.0595 73.1743 48.3893C73.1743 48.7141 73.1014 49.0041 72.9555 49.2593C72.8113 49.5129 72.6125 49.7134 72.3589 49.8609C72.1054 50.0067 71.817 50.0796 71.4939 50.0796ZM75.8223 50.0796C75.4477 50.0796 75.1287 49.9777 74.8652 49.7739C74.6017 49.5684 74.4004 49.2709 74.2612 48.8815C74.122 48.4904 74.0524 48.0181 74.0524 47.4646C74.0524 46.9144 74.122 46.4446 74.2612 46.0551C74.402 45.664 74.6042 45.3657 74.8677 45.1602C75.1329 44.9531 75.4511 44.8495 75.8223 44.8495C76.1935 44.8495 76.5108 44.9531 76.7743 45.1602C77.0395 45.3657 77.2417 45.664 77.3809 46.0551C77.5217 46.4446 77.5922 46.9144 77.5922 47.4646C77.5922 48.0181 77.5225 48.4904 77.3833 48.8815C77.2441 49.2709 77.0428 49.5684 76.7793 49.7739C76.5158 49.9777 76.1968 50.0796 75.8223 50.0796ZM75.8223 49.5327C76.1935 49.5327 76.4818 49.3538 76.6873 48.9958C76.8928 48.6379 76.9956 48.1274 76.9956 47.4646C76.9956 47.0237 76.9483 46.6484 76.8539 46.3385C76.7611 46.0286 76.6268 45.7924 76.4512 45.63C76.2772 45.4676 76.0675 45.3864 75.8223 45.3864C75.4544 45.3864 75.1668 45.5679 74.9597 45.9308C74.7525 46.2921 74.649 46.8033 74.649 47.4646C74.649 47.9054 74.6954 48.2799 74.7882 48.5881C74.881 48.8964 75.0144 49.1309 75.1884 49.2916C75.3641 49.4524 75.5753 49.5327 75.8223 49.5327Z" fill="#0000FF"/>
<path fill-rule="evenodd" clip-rule="evenodd" d="M18.7203 11.59C18.7203 11.2486 18.9959 10.97 19.3403 10.97H27.6603C28.0017 10.97 28.2803 11.2456 28.2803 11.59V19.91C28.2803 20.2513 28.0047 20.53 27.6603 20.53H19.3403C18.9989 20.53 18.7203 20.2544 18.7203 19.91V11.59ZM19.3403 9.54999C18.2047 9.54999 17.3003 10.4713 17.3003 11.59V19.91C17.3003 21.0456 18.2217 21.95 19.3403 21.95H27.6603C28.7959 21.95 29.7003 21.0286 29.7003 19.91V11.59C29.7003 10.4544 28.7789 9.54999 27.6603 9.54999H19.3403ZM20.7603 15.04C20.3682 15.04 20.0503 15.3579 20.0503 15.75C20.0503 16.1421 20.3682 16.46 20.7603 16.46H26.2503C26.6424 16.46 26.9603 16.1421 26.9603 15.75C26.9603 15.3579 26.6424 15.04 26.2503 15.04H20.7603ZM20.0503 18.5C20.0503 18.1079 20.3682 17.79 20.7603 17.79H26.2503C26.6424 17.79 26.9603 18.1079 26.9603 18.5C26.9603 18.8921 26.6424 19.21 26.2503 19.21H20.7603C20.3682 19.21 20.0503 18.8921 20.0503 18.5ZM20.7603 12.3C20.3682 12.3 20.0503 12.6179 20.0503 13.01C20.0503 13.4021 20.3682 13.72 20.7603 13.72H26.2503C26.6424 13.72 26.9603 13.4021 26.9603 13.01C26.9603 12.6179 26.6424 12.3 26.2503 12.3H20.7603Z" fill="black"/>
<path d="M17.75 35.833C17.3594 35.833 17.1201 35.5937 17.1201 35.1787V29.3583C17.1201 28.9481 17.3594 28.704 17.75 28.704H21.1192C21.4659 28.704 21.6954 28.9091 21.6954 29.2362C21.6954 29.5633 21.461 29.7684 21.1192 29.7684H18.5216C18.4433 29.7684 18.3799 29.8319 18.3799 29.9101V31.7067C18.3799 31.785 18.4434 31.8484 18.5216 31.8484H20.8652C21.1972 31.8484 21.417 32.0437 21.417 32.3611C21.417 32.6785 21.1973 32.8738 20.8652 32.8738H18.5216C18.4433 32.8738 18.3799 32.9373 18.3799 33.0155V35.1785C18.3799 35.5935 18.1455 35.8328 17.75 35.8328V35.833Z" fill="black"/>
<path d="M36.4556 35.8525C34.9419 35.8525 33.9653 34.8271 33.9653 33.1669C33.9653 31.5067 34.937 30.4667 36.4458 30.4667C37.4614 30.4667 38.3257 30.9892 38.5747 31.7167C38.6138 31.8192 38.6382 31.9218 38.6382 32.0097C38.6382 32.3124 38.4087 32.498 38.1157 32.498C37.8716 32.498 37.7251 32.3955 37.5835 32.1513C37.3247 31.6777 36.9829 31.4531 36.48 31.4531C35.6987 31.4531 35.2007 32.1025 35.2007 33.1621C35.2007 34.2217 35.7036 34.8711 36.4751 34.8711C37.0122 34.8711 37.3442 34.6221 37.5786 34.207C37.7446 33.9336 37.8765 33.831 38.1401 33.831C38.4282 33.831 38.6528 34.0263 38.6528 34.3291C38.6528 34.4219 38.6284 34.5244 38.5796 34.6416C38.2915 35.3496 37.4321 35.8525 36.4556 35.8525Z" fill="black"/>
<path d="M28.3926 35.2078V31.0857C28.3926 30.7096 28.6124 30.4703 28.9738 30.4703C29.1806 30.4703 29.3496 30.5508 29.4551 30.6918C29.4807 30.726 29.5025 30.7647 29.5202 30.8012C29.5546 30.8719 29.6391 30.902 29.7098 30.8677C29.976 30.7387 30.5953 30.4752 31.2107 30.4752C32.3536 30.4752 33.0032 31.2078 33.0032 32.4044V35.2079C33.0032 35.6182 32.7541 35.8477 32.3976 35.8477C32.0411 35.8477 31.7871 35.6181 31.7871 35.2079V32.6487C31.7871 31.9161 31.4452 31.5058 30.7517 31.5058C30.0582 31.5058 29.6088 32.0089 29.6088 32.7512V35.2079C29.6088 35.6182 29.3548 35.8477 28.9983 35.8477C28.6418 35.8477 28.3926 35.6181 28.3926 35.2078Z" fill="black"/>
<path d="M22.583 33.9183V31.1099C22.583 30.7045 22.8321 30.4701 23.1886 30.4701C23.5451 30.4701 23.7991 30.7045 23.7991 31.1148V33.6741C23.7991 34.4165 24.1605 34.817 24.8443 34.817C25.5281 34.817 25.9823 34.3188 25.9823 33.5667V31.1099C25.9823 30.7045 26.2363 30.4701 26.5928 30.4701C26.9493 30.4701 27.1984 30.7045 27.1984 31.1148V35.2322C27.1984 35.6229 26.964 35.8476 26.6172 35.8476C26.3824 35.8476 26.1977 35.7474 26.1008 35.5645C26.0949 35.5533 26.0893 35.5424 26.084 35.5319C26.0496 35.4636 25.9673 35.4348 25.8979 35.467C25.637 35.5883 25.0182 35.8426 24.4193 35.8426C23.2961 35.8427 22.583 35.1149 22.583 33.9183Z" fill="black"/>
</svg>
