<svg width="81" height="54" viewBox="0 0 81 54" fill="none" xmlns="http://www.w3.org/2000/svg">
<path d="M71.0068 37.0027C71.0848 27.0807 71.1919 17.1587 71.3298 7.23665C71.3199 6.87965 71.2788 6.52266 71.2035 6.17201C71.1305 5.82301 71.0245 5.48201 70.8847 5.15382C70.7467 4.82881 70.5757 4.51686 70.376 4.22511C70.176 3.93513 69.948 3.66512 69.6949 3.42079C69.4419 3.17781 69.1649 2.96077 68.8693 2.77412C68.5733 2.58711 68.2583 2.42915 67.9325 2.30342C67.6065 2.17744 67.2675 2.0815 66.9237 2.01741C66.5777 1.95345 66.2278 1.91939 65.8745 1.91585C48.9605 1.82491 32.0455 1.82491 15.1317 1.91548C14.7937 1.92159 14.4567 1.95454 14.1241 2.01485C13.7921 2.07381 13.4641 2.15974 13.1495 2.27437C12.9005 2.36739 12.6575 2.47835 12.4246 2.60493C12.1925 2.73299 11.9685 2.87801 11.7568 3.03865C11.5458 3.20058 11.3468 3.37856 11.163 3.57112C10.9779 3.76515 10.8099 3.97414 10.6587 4.19398C10.5067 4.41493 10.3716 4.64796 10.2538 4.88844C10.1358 5.13149 10.0358 5.38149 9.95245 5.63869C9.78644 6.15468 9.69144 6.69667 9.67773 7.23622C9.81174 17.1582 9.91876 27.0802 10.0002 37.0013C10.0251 37.6633 10.1751 38.3273 10.44 38.9409C10.709 39.5659 11.095 40.1389 11.571 40.6231C12.05 41.1111 12.618 41.5101 13.2408 41.796C13.8578 42.0809 14.5288 42.254 15.2026 42.3051C23.6317 42.6481 32.0667 42.8191 40.5034 42.819C48.9394 42.819 57.3744 42.648 65.8044 42.3047C66.4783 42.2537 67.1483 42.0807 67.7662 41.7968C68.3882 41.5098 68.9572 41.1109 69.4361 40.6232C69.9111 40.1383 70.2971 39.5662 70.5675 38.9408C70.8305 38.3278 70.9825 37.6638 71.0066 37.0007" stroke="#16215B" stroke-width="0.283" stroke-miterlimit="10"/>
<path d="M11.2583 38.7131V6.44019C11.2583 5.26575 12.2093 4.31372 13.3843 4.31372H16.9273H64.1312H67.6743C68.8483 4.31372 69.8003 5.26575 69.8003 6.4397V38.7127C69.8003 39.8871 68.8483 40.8391 67.6743 40.8391L13.3843 40.8392C12.2093 40.8392 11.2583 39.8871 11.2583 38.7131Z" stroke="#00FFFF" stroke-width="0.28" stroke-miterlimit="10"/>
<path d="M65.6805 41.1327C48.9365 41.8178 32.0695 41.8178 15.3265 41.1327C15.0304 41.12 14.7384 41.083 14.4494 41.018C14.3044 40.986 14.1624 40.947 14.0224 40.902C13.8833 40.856 13.7453 40.805 13.6104 40.746C13.4754 40.688 13.3443 40.623 13.2154 40.552C13.1503 40.516 13.0864 40.478 13.0224 40.439C12.9603 40.4 12.8984 40.36 12.8384 40.318C12.5964 40.15 12.3724 39.961 12.1694 39.749C12.1184 39.696 12.0683 39.642 12.0194 39.586C11.9714 39.531 11.9244 39.473 11.8783 39.415C11.7874 39.3 11.7024 39.18 11.6243 39.057C11.4684 38.811 11.3374 38.552 11.2304 38.28C11.2044 38.211 11.1794 38.142 11.1564 38.073C11.1333 38.003 11.1113 37.933 11.0914 37.863C11.0524 37.723 11.0184 37.582 10.9924 37.44C10.9393 37.156 10.9133 36.869 10.9124 36.577C10.8963 31.7904 10.8783 27.0025 10.8583 22.2155C10.8382 17.4284 10.8153 12.6414 10.7903 7.85341C10.7815 7.69783 10.7755 7.54182 10.7765 7.38686C10.7775 7.23085 10.7865 7.07686 10.8035 6.92287C10.8105 6.84584 10.8215 6.76881 10.8335 6.69185C10.8455 6.61482 10.8595 6.53883 10.8755 6.46187C10.9075 6.31087 10.9475 6.16182 10.9955 6.01485C11.0425 5.86885 11.0975 5.72585 11.1625 5.58485C11.1935 5.51485 11.2275 5.44582 11.2635 5.37685C11.3005 5.30885 11.3385 5.24086 11.3785 5.17384C11.5375 4.90883 11.7245 4.66682 11.9395 4.44685C11.9935 4.39186 12.0495 4.33784 12.1065 4.28682C12.1355 4.25984 12.1645 4.23482 12.1935 4.20882C12.2235 4.18385 12.2535 4.15883 12.2835 4.13387C12.4045 4.03682 12.5305 3.94582 12.6605 3.86287C12.9205 3.69685 13.1985 3.55983 13.4925 3.44887C13.7865 3.33882 14.0875 3.25984 14.3925 3.20686C14.6985 3.15382 15.0105 3.12685 15.3255 3.12581C32.07 3.03383 48.937 3.03383 65.68 3.12581C65.9961 3.12691 66.3081 3.15388 66.6131 3.20686C66.9191 3.2599 67.2201 3.33888 67.5141 3.44887C67.8081 3.55989 68.0851 3.69691 68.3461 3.86287C68.4761 3.94588 68.6011 4.0359 68.7221 4.13387C68.7521 4.15889 68.7821 4.18391 68.8121 4.20888C68.8411 4.2339 68.8701 4.2599 68.9001 4.2859C68.9561 4.33791 69.0121 4.39186 69.0661 4.44691C69.2801 4.66591 69.4681 4.90889 69.6281 5.1739C69.6681 5.23988 69.7061 5.30788 69.7421 5.37691C69.7791 5.4449 69.8121 5.51491 69.8441 5.58492C69.9071 5.72487 69.9631 5.86891 70.0111 6.01491C70.0591 6.1609 70.0991 6.30989 70.1301 6.46187C70.1471 6.53792 70.1601 6.61488 70.1731 6.69087C70.1851 6.7679 70.1951 6.84486 70.2031 6.92189C70.2201 7.07588 70.2281 7.23091 70.2301 7.38588C70.2311 7.54091 70.2251 7.69691 70.2161 7.85286C70.191 12.64 70.168 17.428 70.148 22.215C70.127 27.002 70.11 31.79 70.094 36.5767C70.093 36.8687 70.066 37.1587 70.013 37.4458C69.986 37.5907 69.952 37.7327 69.912 37.8717C69.872 38.0117 69.826 38.1497 69.773 38.2847C69.72 38.4198 69.66 38.5527 69.594 38.6837C69.561 38.7497 69.526 38.8147 69.49 38.8787C69.452 38.9428 69.414 39.0058 69.375 39.0667C69.217 39.3137 69.036 39.5427 68.832 39.7547C68.782 39.8067 68.729 39.8587 68.675 39.9087C68.621 39.9597 68.566 40.0087 68.509 40.0567C68.396 40.1527 68.28 40.2417 68.159 40.3237C67.917 40.4898 67.661 40.6317 67.39 40.7487C67.323 40.7777 67.253 40.8057 67.184 40.8317C67.115 40.8577 67.045 40.8817 66.975 40.9038C66.835 40.9497 66.694 40.9877 66.551 41.0197C66.266 41.0827 65.975 41.1207 65.6805 41.1327Z" stroke="#FF00FF" stroke-width="0.283465" stroke-miterlimit="10" stroke-linecap="round" stroke-linejoin="round"/>
<path d="M72.7894 46.9191V52.01H72.1729V47.5654H72.1431L70.9002 48.3907V47.7643L72.1729 46.9191H72.7894ZM74.3903 52.0498C74.2676 52.0498 74.1624 52.0059 74.0746 51.918C73.9867 51.8302 73.9428 51.725 73.9428 51.6023C73.9428 51.4797 73.9867 51.3745 74.0746 51.2866C74.1624 51.1988 74.2676 51.1549 74.3903 51.1549C74.5129 51.1549 74.6181 51.1988 74.706 51.2866C74.7938 51.3745 74.8377 51.4797 74.8377 51.6023C74.8377 51.6835 74.817 51.7581 74.7756 51.8261C74.7358 51.894 74.6819 51.9487 74.614 51.9901C74.5477 52.0299 74.4731 52.0498 74.3903 52.0498ZM77.3689 52.0796C77.0772 52.0796 76.8145 52.0216 76.5809 51.9056C76.3472 51.7896 76.1599 51.6305 76.0191 51.4283C75.8782 51.2262 75.8012 50.9958 75.7879 50.7373H76.3845C76.4077 50.9676 76.5121 51.1582 76.6977 51.309C76.885 51.4582 77.1087 51.5327 77.3689 51.5327C77.5777 51.5327 77.7633 51.4838 77.9257 51.3861C78.0898 51.2883 78.2182 51.1541 78.311 50.9834C78.4055 50.811 78.4527 50.6163 78.4527 50.3992C78.4527 50.1771 78.4038 49.9791 78.306 49.8051C78.2099 49.6294 78.0773 49.4911 77.9083 49.39C77.7393 49.2889 77.5462 49.2375 77.3291 49.2359C77.1733 49.2342 77.0134 49.2582 76.8493 49.308C76.6853 49.356 76.5502 49.4182 76.4442 49.4944L75.8675 49.4248L76.1757 46.9191H78.8206V47.466H76.6927L76.5138 48.9674H76.5436C76.648 48.8845 76.7789 48.8158 76.9363 48.7611C77.0938 48.7064 77.2578 48.679 77.4285 48.679C77.7401 48.679 78.0177 48.7536 78.2613 48.9028C78.5065 49.0503 78.6988 49.2524 78.838 49.5093C78.9788 49.7662 79.0493 50.0595 79.0493 50.3893C79.0493 50.7141 78.9764 51.0041 78.8305 51.2593C78.6863 51.5129 78.4875 51.7134 78.2339 51.8609C77.9804 52.0067 77.692 52.0796 77.3689 52.0796Z" fill="#0000FF"/>
<path d="M50.9727 25.2037V21.0816C50.9727 20.7055 51.1925 20.4662 51.5539 20.4662C51.7607 20.4662 51.9297 20.5467 52.0352 20.6877C52.0608 20.7219 52.0826 20.7606 52.1003 20.7971C52.1347 20.8678 52.2192 20.8979 52.2899 20.8636C52.5561 20.7346 53.1754 20.4711 53.7908 20.4711C54.9337 20.4711 55.5833 21.2037 55.5833 22.4003V25.2038C55.5833 25.6141 55.3342 25.8436 54.9777 25.8436C54.6212 25.8436 54.3672 25.614 54.3672 25.2038V22.6446C54.3672 21.912 54.0253 21.5017 53.3318 21.5017C52.6383 21.5017 52.1889 22.0048 52.1889 22.7471V25.2038C52.1889 25.6141 51.9349 25.8436 51.5784 25.8436C51.2219 25.8436 50.9727 25.614 50.9727 25.2037Z" fill="black"/>
<path d="M47.4883 20.4626C45.9795 20.4626 44.9834 21.488 44.9834 23.1579C44.9834 24.8278 45.9697 25.8484 47.4883 25.8484C49.0069 25.8484 49.9932 24.8376 49.9932 23.1579C49.9932 21.4782 48.9971 20.4626 47.4883 20.4626ZM47.4883 24.8865C46.7168 24.8865 46.2188 24.2615 46.2188 23.158C46.2188 22.0545 46.7217 21.4295 47.4883 21.4295C48.2549 21.4295 48.7578 22.0594 48.7578 23.158C48.7578 24.2566 48.2597 24.8865 47.4883 24.8865Z" fill="black"/>
<path d="M43.3672 20.4675C42.9961 20.4675 42.7617 20.7165 42.7617 21.1072V25.2039C42.7617 25.5994 42.9961 25.8436 43.3672 25.8436C43.7383 25.8436 43.9776 25.5995 43.9776 25.2039V21.1121C43.9776 20.7166 43.7383 20.4676 43.3672 20.4676V20.4675ZM43.3672 19.8425C43.7481 19.8425 44.0459 19.5495 44.0459 19.1833C44.0459 18.8171 43.748 18.5241 43.3672 18.5241C42.9864 18.5241 42.6934 18.8122 42.6934 19.1833C42.6934 19.5544 42.9913 19.8425 43.3672 19.8425Z" fill="black"/>
<path d="M39.5098 24.4664V21.6501C39.5098 21.5718 39.4463 21.5084 39.3681 21.5084H39.1827C38.88 21.5084 38.6943 21.3375 38.6943 21.0445C38.6943 20.7515 38.8798 20.5855 39.1827 20.5855H39.3681C39.4464 20.5855 39.5098 20.522 39.5098 20.4438V19.8808C39.5098 19.4901 39.7442 19.2459 40.1203 19.2459C40.4964 19.2459 40.7259 19.49 40.7259 19.8808V20.4438C40.7259 20.5221 40.7894 20.5855 40.8676 20.5855H41.2875C41.5902 20.5855 41.7759 20.7563 41.7759 21.0445C41.7759 21.3327 41.5904 21.5084 41.2875 21.5084H40.8676C40.7893 21.5084 40.7259 21.5719 40.7259 21.6501V24.2027C40.7259 24.5934 40.8626 24.7643 41.2143 24.7936L41.3022 24.8034C41.6245 24.8327 41.7906 24.9694 41.7906 25.2527C41.7906 25.6091 41.4781 25.7997 40.9214 25.7997H40.8726C39.9692 25.7997 39.5101 25.3504 39.5101 24.4665H39.5099L39.5098 24.4664Z" fill="black"/>
<path d="M35.9551 25.8484C34.4414 25.8484 33.4648 24.823 33.4648 23.1628C33.4648 21.5026 34.4365 20.4626 35.9453 20.4626C36.9609 20.4626 37.8252 20.9851 38.0742 21.7126C38.1133 21.8151 38.1377 21.9177 38.1377 22.0056C38.1377 22.3083 37.9082 22.4939 37.6152 22.4939C37.3711 22.4939 37.2246 22.3914 37.083 22.1472C36.8242 21.6736 36.4824 21.449 35.9795 21.449C35.1982 21.449 34.7002 22.0984 34.7002 23.158C34.7002 24.2176 35.2031 24.867 35.9746 24.867C36.5117 24.867 36.8437 24.618 37.0781 24.2029C37.2441 23.9295 37.376 23.8269 37.6396 23.8269C37.9277 23.8269 38.1523 24.0222 38.1523 24.325C38.1523 24.4178 38.1279 24.5203 38.0791 24.6375C37.791 25.3455 36.9316 25.8484 35.9551 25.8484Z" fill="black"/>
<path d="M27.8926 25.2037V21.0816C27.8926 20.7055 28.1124 20.4662 28.4738 20.4662C28.6806 20.4662 28.8496 20.5467 28.9551 20.6877C28.9807 20.7219 29.0025 20.7606 29.0202 20.7971C29.0546 20.8678 29.1391 20.8979 29.2098 20.8636C29.476 20.7346 30.0953 20.4711 30.7107 20.4711C31.8536 20.4711 32.5032 21.2037 32.5032 22.4003V25.2038C32.5032 25.6141 32.2541 25.8436 31.8976 25.8436C31.5411 25.8436 31.2871 25.614 31.2871 25.2038V22.6446C31.2871 21.912 30.9452 21.5017 30.2517 21.5017C29.5582 21.5017 29.1088 22.0048 29.1088 22.7471V25.2038C29.1088 25.6141 28.8548 25.8436 28.4983 25.8436C28.1418 25.8436 27.8926 25.614 27.8926 25.2037Z" fill="black"/>
<path d="M22.083 23.9143V21.1059C22.083 20.7005 22.3321 20.4661 22.6886 20.4661C23.0451 20.4661 23.2991 20.7005 23.2991 21.1108V23.6701C23.2991 24.4125 23.6605 24.813 24.3443 24.813C25.0281 24.813 25.4823 24.3148 25.4823 23.5627V21.1059C25.4823 20.7005 25.7363 20.4661 26.0928 20.4661C26.4493 20.4661 26.6984 20.7005 26.6984 21.1108V25.2282C26.6984 25.6189 26.464 25.8436 26.1172 25.8436C25.8824 25.8436 25.6977 25.7434 25.6008 25.5605C25.5949 25.5493 25.5893 25.5384 25.584 25.5279C25.5496 25.4596 25.4673 25.4308 25.3979 25.463C25.137 25.5843 24.5182 25.8386 23.9193 25.8386C22.7961 25.8387 22.083 25.1109 22.083 23.9143Z" fill="black"/>
<path d="M17.25 25.8289C16.8594 25.8289 16.6201 25.5896 16.6201 25.1746V19.3542C16.6201 18.944 16.8594 18.6999 17.25 18.6999H20.6192C20.9659 18.6999 21.1954 18.905 21.1954 19.2321C21.1954 19.5592 20.961 19.7643 20.6192 19.7643H18.0216C17.9433 19.7643 17.8799 19.8278 17.8799 19.906V21.7026C17.8799 21.7809 17.9434 21.8443 18.0216 21.8443H20.3652C20.6972 21.8443 20.917 22.0396 20.917 22.357C20.917 22.6744 20.6973 22.8697 20.3652 22.8697H18.0216C17.9433 22.8697 17.8799 22.9332 17.8799 23.0114V25.1744C17.8799 25.5894 17.6455 25.8287 17.25 25.8287V25.8289Z" fill="black"/>
</svg>
