<svg width="81" height="55" viewBox="0 0 81 55" fill="none" xmlns="http://www.w3.org/2000/svg">
<path d="M71.0068 37.0027C71.0848 27.0807 71.1919 17.1587 71.3298 7.23665C71.3199 6.87965 71.2788 6.52266 71.2035 6.17201C71.1305 5.82301 71.0245 5.48201 70.8847 5.15382C70.7467 4.82881 70.5757 4.51686 70.376 4.22511C70.176 3.93513 69.948 3.66512 69.6949 3.42079C69.4419 3.17781 69.1649 2.96077 68.8693 2.77412C68.5733 2.58711 68.2583 2.42915 67.9325 2.30342C67.6065 2.17744 67.2675 2.0815 66.9237 2.01741C66.5777 1.95345 66.2278 1.91939 65.8745 1.91585C48.9605 1.82491 32.0455 1.82491 15.1317 1.91548C14.7937 1.92159 14.4567 1.95454 14.1241 2.01485C13.7921 2.07381 13.4641 2.15974 13.1495 2.27437C12.9005 2.36739 12.6575 2.47835 12.4246 2.60493C12.1925 2.73299 11.9685 2.87801 11.7568 3.03865C11.5458 3.20058 11.3468 3.37856 11.163 3.57112C10.9779 3.76515 10.8099 3.97414 10.6587 4.19398C10.5067 4.41493 10.3716 4.64796 10.2538 4.88844C10.1358 5.13149 10.0358 5.38149 9.95245 5.63869C9.78644 6.15468 9.69144 6.69667 9.67773 7.23622C9.81174 17.1582 9.91876 27.0802 10.0002 37.0013C10.0251 37.6633 10.1751 38.3273 10.44 38.9409C10.709 39.5659 11.095 40.1389 11.571 40.6231C12.05 41.1111 12.618 41.5101 13.2408 41.796C13.8578 42.0809 14.5288 42.254 15.2026 42.3051C23.6317 42.6481 32.0667 42.8191 40.5034 42.819C48.9394 42.819 57.3744 42.648 65.8044 42.3047C66.4783 42.2537 67.1483 42.0807 67.7662 41.7968C68.3882 41.5098 68.9572 41.1109 69.4361 40.6232C69.9111 40.1383 70.2971 39.5662 70.5675 38.9408C70.8305 38.3278 70.9825 37.6638 71.0066 37.0007" stroke="#16215B" stroke-width="0.283" stroke-miterlimit="10"/>
<path d="M11.2583 38.7131V6.44019C11.2583 5.26575 12.2093 4.31372 13.3843 4.31372H16.9273H64.1312H67.6743C68.8483 4.31372 69.8003 5.26575 69.8003 6.4397V38.7127C69.8003 39.8871 68.8483 40.8391 67.6743 40.8391L13.3843 40.8392C12.2093 40.8392 11.2583 39.8871 11.2583 38.7131Z" stroke="#00FFFF" stroke-width="0.28" stroke-miterlimit="10"/>
<path d="M65.6805 41.1327C48.9365 41.8178 32.0695 41.8178 15.3265 41.1327C15.0304 41.12 14.7384 41.083 14.4494 41.018C14.3044 40.986 14.1624 40.947 14.0224 40.902C13.8833 40.856 13.7453 40.805 13.6104 40.746C13.4754 40.688 13.3443 40.623 13.2154 40.552C13.1503 40.516 13.0864 40.478 13.0224 40.439C12.9603 40.4 12.8984 40.36 12.8384 40.318C12.5964 40.15 12.3724 39.961 12.1694 39.749C12.1184 39.696 12.0683 39.642 12.0194 39.586C11.9714 39.531 11.9244 39.473 11.8783 39.415C11.7874 39.3 11.7023 39.18 11.6243 39.057C11.4684 38.811 11.3374 38.552 11.2304 38.28C11.2044 38.211 11.1794 38.142 11.1564 38.073C11.1333 38.003 11.1113 37.933 11.0914 37.863C11.0524 37.723 11.0184 37.582 10.9924 37.44C10.9393 37.156 10.9133 36.869 10.9124 36.577C10.8963 31.7904 10.8783 27.0025 10.8583 22.2155C10.8382 17.4284 10.8153 12.6414 10.7903 7.85341C10.7815 7.69783 10.7755 7.54182 10.7765 7.38686C10.7775 7.23085 10.7865 7.07686 10.8035 6.92287C10.8105 6.84584 10.8215 6.76881 10.8335 6.69185C10.8455 6.61482 10.8595 6.53883 10.8755 6.46187C10.9075 6.31087 10.9475 6.16182 10.9955 6.01485C11.0425 5.86885 11.0975 5.72585 11.1625 5.58485C11.1935 5.51485 11.2275 5.44582 11.2635 5.37685C11.3005 5.30885 11.3385 5.24086 11.3785 5.17384C11.5375 4.90883 11.7245 4.66682 11.9395 4.44685C11.9935 4.39186 12.0495 4.33784 12.1065 4.28682C12.1355 4.25984 12.1645 4.23482 12.1935 4.20882C12.2235 4.18385 12.2535 4.15883 12.2835 4.13387C12.4045 4.03682 12.5305 3.94582 12.6605 3.86287C12.9205 3.69685 13.1985 3.55983 13.4925 3.44887C13.7865 3.33882 14.0875 3.25984 14.3925 3.20686C14.6985 3.15382 15.0105 3.12685 15.3255 3.12581C32.07 3.03383 48.937 3.03383 65.68 3.12581C65.9961 3.12691 66.3081 3.15388 66.6131 3.20686C66.9191 3.2599 67.2201 3.33888 67.5141 3.44887C67.8081 3.55989 68.0851 3.69691 68.3461 3.86287C68.4761 3.94588 68.6011 4.0359 68.7221 4.13387C68.7521 4.15889 68.7821 4.18391 68.8121 4.20888C68.8411 4.2339 68.8701 4.2599 68.9001 4.2859C68.9561 4.33791 69.0121 4.39186 69.0661 4.44691C69.2801 4.66591 69.4681 4.90889 69.6281 5.1739C69.6681 5.23988 69.7061 5.30788 69.7421 5.37691C69.7791 5.4449 69.8121 5.51491 69.8441 5.58492C69.9071 5.72487 69.9631 5.86891 70.0111 6.01491C70.0591 6.1609 70.0991 6.30989 70.1301 6.46187C70.1471 6.53792 70.1601 6.61488 70.1731 6.69087C70.1851 6.7679 70.1951 6.84486 70.2031 6.92189C70.2201 7.07588 70.2281 7.23091 70.2301 7.38588C70.2311 7.54091 70.2251 7.69691 70.2161 7.85286C70.191 12.64 70.168 17.428 70.148 22.215C70.127 27.002 70.11 31.79 70.094 36.5767C70.093 36.8687 70.066 37.1587 70.013 37.4458C69.986 37.5907 69.952 37.7327 69.912 37.8717C69.872 38.0117 69.826 38.1497 69.773 38.2847C69.72 38.4198 69.66 38.5527 69.594 38.6837C69.561 38.7497 69.526 38.8147 69.49 38.8787C69.452 38.9428 69.414 39.0058 69.375 39.0667C69.217 39.3137 69.036 39.5427 68.832 39.7547C68.782 39.8067 68.729 39.8587 68.675 39.9087C68.621 39.9597 68.566 40.0087 68.509 40.0567C68.396 40.1527 68.28 40.2417 68.159 40.3237C67.917 40.4898 67.661 40.6317 67.39 40.7487C67.323 40.7777 67.253 40.8057 67.184 40.8317C67.115 40.8577 67.045 40.8817 66.975 40.9038C66.835 40.9497 66.694 40.9877 66.551 41.0197C66.266 41.0827 65.975 41.1207 65.6805 41.1327Z" stroke="#FF00FF" stroke-width="0.283465" stroke-miterlimit="10" stroke-linecap="round" stroke-linejoin="round"/>
<path d="M64.7894 46.9191V52.01H64.1729V47.5654H64.1431L62.9002 48.3907V47.7643L64.1729 46.9191H64.7894ZM66.3903 52.0498C66.2676 52.0498 66.1624 52.0059 66.0746 51.918C65.9867 51.8302 65.9428 51.725 65.9428 51.6023C65.9428 51.4797 65.9867 51.3745 66.0746 51.2866C66.1624 51.1988 66.2676 51.1549 66.3903 51.1549C66.5129 51.1549 66.6181 51.1988 66.706 51.2866C66.7938 51.3745 66.8377 51.4797 66.8377 51.6023C66.8377 51.6835 66.817 51.7581 66.7756 51.8261C66.7358 51.894 66.6819 51.9487 66.614 51.9901C66.5477 52.0299 66.4731 52.0498 66.3903 52.0498ZM69.3689 52.0796C69.0772 52.0796 68.8145 52.0216 68.5809 51.9056C68.3472 51.7896 68.1599 51.6305 68.0191 51.4283C67.8782 51.2262 67.8012 50.9958 67.7879 50.7373H68.3845C68.4077 50.9676 68.5121 51.1582 68.6977 51.309C68.885 51.4582 69.1087 51.5327 69.3689 51.5327C69.5777 51.5327 69.7633 51.4838 69.9257 51.3861C70.0898 51.2883 70.2182 51.1541 70.311 50.9834C70.4055 50.811 70.4527 50.6163 70.4527 50.3992C70.4527 50.1771 70.4038 49.9791 70.306 49.8051C70.2099 49.6294 70.0773 49.4911 69.9083 49.39C69.7393 49.2889 69.5462 49.2375 69.3291 49.2359C69.1733 49.2342 69.0134 49.2582 68.8493 49.308C68.6853 49.356 68.5502 49.4182 68.4442 49.4944L67.8675 49.4248L68.1757 46.9191H70.8206V47.466H68.6927L68.5138 48.9674H68.5436C68.648 48.8845 68.7789 48.8158 68.9363 48.7611C69.0938 48.7064 69.2578 48.679 69.4285 48.679C69.7401 48.679 70.0177 48.7536 70.2613 48.9028C70.5065 49.0503 70.6988 49.2524 70.838 49.5093C70.9788 49.7662 71.0493 50.0595 71.0493 50.3893C71.0493 50.7141 70.9764 51.0041 70.8305 51.2593C70.6863 51.5129 70.4875 51.7134 70.2339 51.8609C69.9804 52.0067 69.692 52.0796 69.3689 52.0796Z" fill="#0000FF"/>
<path d="M51.5796 25.8435C51.2232 25.8435 50.9741 25.614 50.9741 25.2038V21.0827C50.9741 20.7067 51.1938 20.4675 51.5552 20.4675C51.7044 20.4675 51.8792 20.5066 52.0144 20.6616C52.0609 20.7149 52.0922 20.7744 52.1134 20.8286C52.1449 20.9095 52.2414 20.9429 52.3164 20.8991C52.5796 20.7455 53.1393 20.4724 53.7916 20.4724C54.9342 20.4724 55.5836 21.2048 55.5836 22.4011V25.2039C55.5836 25.6141 55.3346 25.8436 54.9781 25.8436C54.6216 25.8436 54.3677 25.6141 54.3677 25.2039V22.6453C54.3677 21.9129 54.0259 21.5027 53.3325 21.5027C52.6391 21.5027 52.1899 22.0056 52.1899 22.7478V25.2039C52.1899 25.6141 51.936 25.8436 51.5795 25.8436L51.5796 25.8435Z" fill="black"/>
<path d="M47.4883 20.4626C45.9795 20.4626 44.9834 21.488 44.9834 23.1579C44.9834 24.8278 45.9697 25.8484 47.4883 25.8484C49.0069 25.8484 49.9932 24.8376 49.9932 23.1579C49.9932 21.4782 48.9971 20.4626 47.4883 20.4626ZM47.4883 24.8865C46.7168 24.8865 46.2188 24.2615 46.2188 23.158C46.2188 22.0545 46.7217 21.4295 47.4883 21.4295C48.2549 21.4295 48.7578 22.0594 48.7578 23.158C48.7578 24.2566 48.2597 24.8865 47.4883 24.8865Z" fill="black"/>
<path d="M43.3672 20.4675C42.9961 20.4675 42.7617 20.7165 42.7617 21.1072V25.2039C42.7617 25.5994 42.9961 25.8436 43.3672 25.8436C43.7383 25.8436 43.9776 25.5995 43.9776 25.2039V21.1121C43.9776 20.7166 43.7383 20.4676 43.3672 20.4676V20.4675ZM43.3672 19.8425C43.7481 19.8425 44.0459 19.5495 44.0459 19.1833C44.0459 18.8171 43.748 18.5241 43.3672 18.5241C42.9864 18.5241 42.6934 18.8122 42.6934 19.1833C42.6934 19.5544 42.9913 19.8425 43.3672 19.8425Z" fill="black"/>
<path d="M39.5097 24.4666V21.6493C39.5097 21.571 39.4462 21.5076 39.368 21.5076H39.1826C38.8799 21.5076 38.6943 21.3269 38.6943 21.034C38.6943 20.7411 38.8798 20.5701 39.1826 20.5701H39.368C39.4463 20.5701 39.5097 20.5066 39.5097 20.4284V19.8816C39.5097 19.491 39.7441 19.2468 40.1201 19.2468C40.4961 19.2468 40.7256 19.4909 40.7256 19.8816V20.4284C40.7256 20.5067 40.7891 20.5701 40.8673 20.5701H41.2871C41.5898 20.5701 41.7754 20.7459 41.7754 21.034C41.7754 21.3221 41.5899 21.5076 41.2871 21.5076H40.8673C40.789 21.5076 40.7256 21.5711 40.7256 21.6493V24.2029C40.7256 24.5935 40.8623 24.7644 41.2139 24.7937L41.3018 24.8035C41.6241 24.8328 41.7901 24.9695 41.7901 25.2527C41.7901 25.6091 41.4776 25.7996 40.921 25.7996H40.8722C39.9689 25.7996 39.5099 25.3504 39.5099 24.4666H39.5097Z" fill="black"/>
<path d="M35.9551 25.8484C34.4414 25.8484 33.4648 24.823 33.4648 23.1628C33.4648 21.5026 34.4365 20.4626 35.9453 20.4626C36.9609 20.4626 37.8252 20.9851 38.0742 21.7126C38.1133 21.8151 38.1377 21.9177 38.1377 22.0056C38.1377 22.3083 37.9082 22.4939 37.6152 22.4939C37.3711 22.4939 37.2246 22.3914 37.083 22.1472C36.8242 21.6736 36.4824 21.449 35.9795 21.449C35.1982 21.449 34.7002 22.0984 34.7002 23.158C34.7002 24.2176 35.2031 24.867 35.9746 24.867C36.5117 24.867 36.8437 24.618 37.0781 24.2029C37.2441 23.9295 37.376 23.8269 37.6396 23.8269C37.9277 23.8269 38.1523 24.0222 38.1523 24.325C38.1523 24.4178 38.1279 24.5203 38.0791 24.6375C37.791 25.3455 36.9316 25.8484 35.9551 25.8484Z" fill="black"/>
<path d="M28.4995 25.8435C28.1431 25.8435 27.894 25.614 27.894 25.2038V21.0827C27.894 20.7067 28.1137 20.4675 28.4751 20.4675C28.6243 20.4675 28.7991 20.5066 28.9343 20.6616C28.9808 20.7149 29.0121 20.7744 29.0333 20.8286C29.0648 20.9095 29.1613 20.9429 29.2363 20.8991C29.4995 20.7455 30.0592 20.4724 30.7115 20.4724C31.8541 20.4724 32.5035 21.2048 32.5035 22.4011V25.2039C32.5035 25.6141 32.2545 25.8436 31.898 25.8436C31.5415 25.8436 31.2876 25.6141 31.2876 25.2039V22.6453C31.2876 21.9129 30.9458 21.5027 30.2524 21.5027C29.559 21.5027 29.1098 22.0056 29.1098 22.7478V25.2039C29.1098 25.6141 28.8559 25.8436 28.4994 25.8436L28.4995 25.8435Z" fill="black"/>
<path d="M23.92 25.8388C22.7969 25.8388 22.084 25.1113 22.084 23.915V21.1074C22.084 20.7021 22.333 20.4677 22.6895 20.4677C23.046 20.4677 23.2999 20.7021 23.2999 21.1122V23.6708C23.2999 24.413 23.6612 24.8134 24.3448 24.8134C25.0284 24.8134 25.4825 24.3153 25.4825 23.5634V21.1073C25.4825 20.702 25.7364 20.4676 26.0929 20.4676C26.4494 20.4676 26.6984 20.702 26.6984 21.1121V25.2284C26.6984 25.619 26.464 25.8436 26.1173 25.8436C25.7706 25.8436 25.6443 25.6332 25.6169 25.5885C25.5986 25.5585 25.5831 25.5231 25.5704 25.4879C25.5411 25.4067 25.4457 25.3712 25.3697 25.4122C25.0937 25.5607 24.5792 25.8388 23.9199 25.8388H23.92Z" fill="black"/>
<path d="M17.25 25.8289C16.8594 25.8289 16.6201 25.5896 16.6201 25.1746V19.3542C16.6201 18.944 16.8594 18.6999 17.25 18.6999H20.6192C20.9659 18.6999 21.1954 18.905 21.1954 19.2321C21.1954 19.5592 20.961 19.7643 20.6192 19.7643H18.0216C17.9433 19.7643 17.8799 19.8278 17.8799 19.906V21.7026C17.8799 21.7809 17.9434 21.8443 18.0216 21.8443H20.3652C20.6972 21.8443 20.917 22.0396 20.917 22.357C20.917 22.6744 20.6973 22.8697 20.3652 22.8697H18.0216C17.9433 22.8697 17.8799 22.9332 17.8799 23.0114V25.1744C17.8799 25.5894 17.6455 25.8287 17.25 25.8287V25.8289Z" fill="black"/>
</svg>
