<svg width="55" height="54" viewBox="0 0 55 54" fill="none" xmlns="http://www.w3.org/2000/svg">
<path d="M9.91309 37.0476C9.83508 27.0607 9.73608 17.0726 9.61914 7.0846L9.6192 7.08216C9.62323 6.91614 9.63623 6.75013 9.65631 6.58399C9.67633 6.41895 9.70233 6.25501 9.73553 6.09156C9.76752 5.92957 9.80652 5.76856 9.85266 5.60975C9.89966 5.45179 9.95166 5.29578 10.0115 5.14161C10.1985 4.66761 10.4535 4.21668 10.77 3.81434C11.083 3.41736 11.456 3.06837 11.8725 2.78394C12.2875 2.50196 12.7465 2.28394 13.2258 2.13697C13.7078 1.98987 14.2118 1.91395 14.7141 1.90662C18.8081 1.87171 22.9021 1.85462 26.9963 1.85499C31.0893 1.85499 35.1833 1.87195 39.2776 1.90723C39.4396 1.91016 39.6016 1.92115 39.7635 1.93775C40.0035 1.96375 40.2435 2.00477 40.4799 2.06153C40.7139 2.11854 40.9449 2.19044 41.1697 2.27955C41.4037 2.37256 41.6287 2.48353 41.8449 2.61072C42.062 2.73865 42.2689 2.8827 42.4627 3.04163C42.6577 3.20167 42.8417 3.37671 43.0105 3.56324C43.1795 3.7522 43.3355 3.95423 43.476 4.16578C43.757 4.59485 43.975 5.06483 44.125 5.55652C44.276 6.05445 44.358 6.57447 44.373 7.09266C44.252 17.0696 44.154 27.0466 44.08 37.0252C44.074 37.1851 44.0601 37.3451 44.039 37.5037C44.018 37.6647 43.991 37.8236 43.9569 37.9813C43.9239 38.1403 43.8839 38.2983 43.8358 38.4537C43.7888 38.6097 43.7349 38.7637 43.675 38.9157C43.484 39.3908 43.228 39.8407 42.9172 40.2495C42.6032 40.6605 42.2352 41.0286 41.8244 41.3395C41.4154 41.6495 40.9624 41.9036 40.4838 42.0906C40.0098 42.2755 39.5098 42.3955 39.0063 42.4435C31.0073 42.9535 22.9843 42.9535 14.9849 42.4436C14.6529 42.4116 14.3229 42.3477 14.0024 42.2535C13.6794 42.1596 13.3654 42.0346 13.0632 41.882C12.4602 41.575 11.9092 41.1569 11.4476 40.6577C10.9866 40.1607 10.6126 39.5817 10.349 38.9596C10.219 38.6516 10.115 38.3325 10.0411 38.0056C9.96912 37.6836 9.92407 37.3546 9.91113 37.0245" stroke="#16215B" stroke-width="0.283" stroke-miterlimit="10"/>
<rect x="12.6855" y="5.52832" width="28.63" height="34.31" rx="1.43" stroke="#00FFFF" stroke-width="0.28"/>
<path d="M42.9399 36.5841C42.9578 31.7322 42.9778 26.8792 43.0009 22.0272C43.0219 17.1742 43.0469 12.3221 43.0759 7.46912C43.0767 7.32446 43.0717 7.18042 43.0596 7.03748C43.0497 6.89441 43.0317 6.75146 43.0076 6.61047C42.9606 6.32837 42.8887 6.05444 42.7897 5.78943C42.7646 5.72339 42.7386 5.65747 42.7106 5.59241C42.6816 5.52637 42.6526 5.46143 42.6216 5.39844C42.5587 5.27039 42.4907 5.14746 42.4156 5.02844C42.2667 4.79041 42.0936 4.57043 41.8937 4.36646C41.6957 4.16345 41.4777 3.98645 41.2437 3.83337C41.1266 3.75745 41.0057 3.6864 40.8796 3.62244C40.8167 3.59045 40.7537 3.55945 40.6877 3.5304C40.6237 3.50037 40.5566 3.47339 40.4907 3.44739C40.2236 3.34338 39.9507 3.26843 39.6716 3.21741C39.3926 3.16638 39.1077 3.14038 38.8167 3.13745C37.8378 3.12988 36.8568 3.12183 35.8738 3.11584C34.8898 3.10889 33.9058 3.10388 32.9208 3.09888C30.9498 3.09082 28.9758 3.08691 26.9988 3.08691C26.5038 3.08691 26.0098 3.08691 25.5148 3.08691C25.0208 3.08789 24.5258 3.08887 24.0308 3.08984C23.0418 3.09192 22.0538 3.09485 21.0688 3.09888C19.0968 3.10791 17.1328 3.12085 15.1758 3.13782C15.0301 3.13892 14.8861 3.14685 14.7411 3.15991C14.5981 3.17383 14.4541 3.19287 14.3131 3.21887C14.0301 3.27087 13.7561 3.3479 13.4911 3.4519C13.4251 3.47791 13.3601 3.50488 13.2951 3.53491C13.2301 3.56384 13.1651 3.59583 13.1021 3.62793C12.9751 3.69385 12.8541 3.76489 12.7361 3.8429C12.5011 3.99683 12.2841 4.1759 12.0861 4.37988C12.0371 4.42993 11.9891 4.48291 11.9431 4.53589C11.8971 4.58887 11.8521 4.64282 11.8091 4.69885C11.7231 4.80884 11.6431 4.92383 11.5691 5.04187C11.4951 5.16089 11.4281 5.28394 11.3651 5.40991C11.3351 5.4729 11.3061 5.53687 11.2781 5.60291C11.2501 5.66785 11.2241 5.73486 11.1991 5.80188C11.1011 6.06787 11.0301 6.34082 10.9841 6.6189C10.9381 6.89685 10.9151 7.18091 10.9171 7.46985C10.9454 12.3224 10.9714 17.1744 10.9935 22.0275C11.0165 26.8794 11.0355 31.7324 11.0535 36.5845C11.0541 36.8712 11.0781 37.1552 11.1281 37.4392C11.1411 37.5101 11.1552 37.5812 11.1701 37.6511C11.1862 37.7212 11.2021 37.7911 11.2211 37.8601C11.2581 37.9991 11.3011 38.1351 11.3502 38.2701C11.3991 38.4052 11.4531 38.5382 11.5151 38.6682C11.5461 38.7332 11.5771 38.7982 11.6121 38.8622C11.6461 38.9261 11.6812 38.9901 11.7181 39.0532C11.8651 39.3032 12.0331 39.5361 12.2241 39.7532C12.3192 39.8612 12.4201 39.9652 12.5272 40.0652C12.5791 40.1151 12.6342 40.1632 12.6901 40.2102C12.7451 40.2572 12.8011 40.3021 12.8591 40.3462C13.0881 40.5211 13.3322 40.6721 13.5921 40.7982C13.6571 40.8302 13.7231 40.8601 13.7902 40.8882C13.8571 40.9171 13.9241 40.9431 13.9921 40.9681C14.1281 41.0182 14.2651 41.0612 14.4041 41.0972C14.6801 41.1692 14.9631 41.2131 15.2512 41.2312C16.2243 41.2916 17.1993 41.3446 18.1773 41.3896C19.1533 41.4357 20.1323 41.4727 21.1113 41.5027C23.0683 41.5636 25.0293 41.5936 26.9943 41.5936C27.4853 41.5936 27.9773 41.5917 28.4683 41.5876C28.9593 41.5846 29.4513 41.5786 29.9423 41.5707C30.9253 41.5557 31.9063 41.5336 32.8863 41.5027C34.8443 41.4426 36.7963 41.3527 38.7416 41.2316C38.8866 41.2227 39.0296 41.2067 39.1726 41.1846C39.2436 41.1726 39.3146 41.1597 39.3866 41.1447C39.4566 41.1296 39.5276 41.1136 39.5966 41.0946C39.8766 41.0226 40.1456 40.9226 40.4046 40.7957C40.4706 40.7646 40.5336 40.7316 40.5966 40.6967C40.6606 40.6616 40.7236 40.6246 40.7856 40.5856C40.9096 40.5096 41.0286 40.4266 41.1426 40.3386C41.3726 40.1636 41.5826 39.9667 41.7736 39.7487C41.8216 39.6936 41.8676 39.6376 41.9136 39.5807C41.9586 39.5237 42.0026 39.4656 42.0446 39.4066C42.1296 39.2897 42.2076 39.1686 42.2796 39.0447C42.4256 38.7966 42.5466 38.5376 42.6446 38.2656C42.6696 38.1976 42.6926 38.1287 42.7146 38.0596C42.7356 37.9906 42.7556 37.9216 42.7736 37.8527C42.8106 37.7136 42.8416 37.5746 42.8656 37.4346C42.9146 37.1537 42.9386 36.8706 42.9399 36.5841Z" stroke="#FF00FF" stroke-width="0.283465" stroke-miterlimit="10" stroke-linecap="round" stroke-linejoin="round"/>
<path fill-rule="evenodd" clip-rule="evenodd" d="M18.2203 12.59C18.2203 12.2487 18.4959 11.97 18.8403 11.97H27.1603C27.5017 11.97 27.7803 12.2456 27.7803 12.59V20.91C27.7803 21.2514 27.5047 21.53 27.1603 21.53H18.8403C18.4989 21.53 18.2203 21.2545 18.2203 20.91V12.59ZM18.8403 10.55C17.7047 10.55 16.8003 11.4714 16.8003 12.59V20.91C16.8003 22.0456 17.7217 22.95 18.8403 22.95H27.1603C28.2959 22.95 29.2003 22.0287 29.2003 20.91V12.59C29.2003 11.4545 28.2789 10.55 27.1603 10.55H18.8403ZM20.2603 16.0401C19.8682 16.0401 19.5503 16.3579 19.5503 16.7501C19.5503 17.1422 19.8682 17.4601 20.2603 17.4601H25.7503C26.1424 17.4601 26.4603 17.1422 26.4603 16.7501C26.4603 16.3579 26.1424 16.0401 25.7503 16.0401H20.2603ZM19.5503 19.5001C19.5503 19.1079 19.8682 18.7901 20.2603 18.7901H25.7503C26.1424 18.7901 26.4603 19.1079 26.4603 19.5001C26.4603 19.8922 26.1424 20.2101 25.7503 20.2101H20.2603C19.8682 20.2101 19.5503 19.8922 19.5503 19.5001ZM20.2603 13.3C19.8682 13.3 19.5503 13.6179 19.5503 14.01C19.5503 14.4022 19.8682 14.72 20.2603 14.72H25.7503C26.1424 14.72 26.4603 14.4022 26.4603 14.01C26.4603 13.6179 26.1424 13.3 25.7503 13.3H20.2603Z" fill="black"/>
<path d="M16.8633 35.8331C16.4727 35.8331 16.2334 35.5938 16.2334 35.1788V29.3584C16.2334 28.9482 16.4727 28.7041 16.8633 28.7041H20.2325C20.5792 28.7041 20.8087 28.9092 20.8087 29.2363C20.8087 29.5634 20.5743 29.7685 20.2325 29.7685H17.6349C17.5566 29.7685 17.4932 29.832 17.4932 29.9102V31.7068C17.4932 31.7851 17.5567 31.8485 17.6349 31.8485H19.9785C20.3105 31.8485 20.5303 32.0438 20.5303 32.3612C20.5303 32.6786 20.3106 32.8739 19.9785 32.8739H17.6349C17.5566 32.8739 17.4932 32.9374 17.4932 33.0156V35.1786C17.4932 35.5936 17.2588 35.8329 16.8633 35.8329V35.8331Z" fill="black"/>
<path d="M35.5689 35.8526C34.0552 35.8526 33.0786 34.8272 33.0786 33.167C33.0786 31.5068 34.0503 30.4668 35.5591 30.4668C36.5747 30.4668 37.439 30.9893 37.688 31.7168C37.7271 31.8193 37.7515 31.9219 37.7515 32.0098C37.7515 32.3125 37.522 32.4981 37.229 32.4981C36.9849 32.4981 36.8384 32.3956 36.6968 32.1514C36.438 31.6778 36.0962 31.4532 35.5933 31.4532C34.812 31.4532 34.314 32.1026 34.314 33.1622C34.314 34.2218 34.8169 34.8712 35.5884 34.8712C36.1255 34.8712 36.4575 34.6222 36.6919 34.2071C36.8579 33.9337 36.9898 33.8311 37.2534 33.8311C37.5415 33.8311 37.7661 34.0264 37.7661 34.3292C37.7661 34.422 37.7417 34.5245 37.6929 34.6417C37.4048 35.3497 36.5454 35.8526 35.5689 35.8526Z" fill="black"/>
<path d="M28.1128 35.8477C27.7564 35.8477 27.5073 35.6182 27.5073 35.208V31.0869C27.5073 30.7109 27.727 30.4717 28.0884 30.4717C28.2376 30.4717 28.4124 30.5108 28.5476 30.6658C28.5941 30.7191 28.6254 30.7786 28.6466 30.8328C28.6781 30.9137 28.7746 30.9471 28.8496 30.9033C29.1128 30.7497 29.6725 30.4766 30.3248 30.4766C31.4674 30.4766 32.1168 31.209 32.1168 32.4053V35.2081C32.1168 35.6183 31.8678 35.8478 31.5113 35.8478C31.1548 35.8478 30.9009 35.6183 30.9009 35.2081V32.6495C30.9009 31.9171 30.5591 31.5069 29.8657 31.5069C29.1723 31.5069 28.7231 32.0098 28.7231 32.752V35.2081C28.7231 35.6183 28.4692 35.8478 28.1127 35.8478L28.1128 35.8477Z" fill="black"/>
<path d="M23.5333 35.8429C22.4102 35.8429 21.6973 35.1154 21.6973 33.9191V31.1115C21.6973 30.7062 21.9463 30.4718 22.3028 30.4718C22.6593 30.4718 22.9132 30.7062 22.9132 31.1163V33.6749C22.9132 34.4171 23.2745 34.8175 23.9581 34.8175C24.6417 34.8175 25.0958 34.3194 25.0958 33.5675V31.1114C25.0958 30.7061 25.3497 30.4717 25.7062 30.4717C26.0627 30.4717 26.3117 30.7061 26.3117 31.1162V35.2325C26.3117 35.6231 26.0773 35.8477 25.7306 35.8477C25.3839 35.8477 25.2576 35.6373 25.2302 35.5926C25.2119 35.5626 25.1964 35.5272 25.1837 35.492C25.1544 35.4108 25.059 35.3753 24.983 35.4163C24.707 35.5648 24.1925 35.8429 23.5332 35.8429H23.5333Z" fill="black"/>
</svg>
