<svg width="81" height="54" viewBox="0 0 81 54" fill="none" xmlns="http://www.w3.org/2000/svg">
<path d="M71.0068 37.0028C71.0848 27.0808 71.1919 17.1588 71.3298 7.23671C71.3199 6.87971 71.2788 6.52272 71.2035 6.17207C71.1305 5.82307 71.0245 5.48207 70.8847 5.15388C70.7467 4.82887 70.5757 4.51692 70.376 4.22517C70.176 3.9352 69.948 3.66518 69.6949 3.42085C69.4419 3.17787 69.1649 2.96083 68.8693 2.77419C68.5733 2.58717 68.2583 2.42921 67.9325 2.30348C67.6065 2.17751 67.2675 2.08156 66.9237 2.01747C66.5777 1.95351 66.2278 1.91945 65.8745 1.91591C48.9605 1.82497 32.0455 1.82497 15.1317 1.91554C14.7937 1.92165 14.4567 1.95461 14.1241 2.01491C13.7921 2.07387 13.4641 2.15981 13.1495 2.27443C12.9005 2.36745 12.6575 2.47841 12.4246 2.605C12.1925 2.73305 11.9685 2.87807 11.7568 3.03871C11.5458 3.20064 11.3468 3.37862 11.163 3.57118C10.9779 3.76521 10.8099 3.9742 10.6587 4.19405C10.5067 4.41499 10.3716 4.64803 10.2538 4.8885C10.1358 5.13155 10.0358 5.38155 9.95245 5.63875C9.78644 6.15474 9.69144 6.69673 9.67773 7.23628C9.81174 17.1583 9.91876 27.0803 10.0002 37.0014C10.0251 37.6633 10.1751 38.3273 10.44 38.9409C10.709 39.5659 11.095 40.1389 11.571 40.6232C12.05 41.1112 12.618 41.5102 13.2408 41.796C13.8578 42.081 14.5288 42.254 15.2026 42.3052C23.6317 42.6482 32.0667 42.8192 40.5034 42.819C48.9394 42.819 57.3744 42.648 65.8044 42.3048C66.4783 42.2537 67.1483 42.0808 67.7662 41.7969C68.3882 41.5099 68.9572 41.1109 69.4361 40.6233C69.9111 40.1383 70.2971 39.5663 70.5675 38.9408C70.8305 38.3278 70.9825 37.6638 71.0066 37.0008" stroke="#16215B" stroke-width="0.283" stroke-miterlimit="10"/>
<path d="M11.2583 38.7131V6.44019C11.2583 5.26575 12.2093 4.31372 13.3843 4.31372H16.9273H64.1312H67.6743C68.8483 4.31372 69.8003 5.26575 69.8003 6.4397V38.7127C69.8003 39.8871 68.8483 40.8391 67.6743 40.8391L13.3843 40.8392C12.2093 40.8392 11.2583 39.8871 11.2583 38.7131Z" stroke="#00FFFF" stroke-width="0.28" stroke-miterlimit="10"/>
<path d="M65.6805 41.1328C48.9365 41.8178 32.0695 41.8178 15.3265 41.1328C15.0304 41.1201 14.7384 41.0831 14.4494 41.0181C14.3044 40.9861 14.1624 40.9471 14.0224 40.9021C13.8833 40.8561 13.7453 40.8051 13.6104 40.746C13.4754 40.6881 13.3443 40.6231 13.2154 40.5521C13.1503 40.5161 13.0864 40.478 13.0224 40.4391C12.9603 40.4001 12.8984 40.3601 12.8384 40.3181C12.5964 40.1501 12.3724 39.9611 12.1694 39.7491C12.1184 39.6961 12.0683 39.642 12.0194 39.5861C11.9714 39.5311 11.9244 39.4731 11.8783 39.4151C11.7874 39.3001 11.7024 39.1801 11.6243 39.0571C11.4684 38.8111 11.3374 38.5521 11.2304 38.28C11.2044 38.2111 11.1794 38.142 11.1564 38.0731C11.1333 38.0031 11.1113 37.9331 11.0914 37.8631C11.0524 37.7231 11.0184 37.582 10.9924 37.4401C10.9393 37.1561 10.9133 36.8691 10.9124 36.577C10.8963 31.7905 10.8783 27.0025 10.8583 22.2155C10.8382 17.4285 10.8153 12.6415 10.7903 7.85347C10.7815 7.69789 10.7755 7.54189 10.7765 7.38692C10.7775 7.23091 10.7865 7.07692 10.8035 6.92293C10.8105 6.8459 10.8215 6.76888 10.8335 6.69191C10.8455 6.61488 10.8595 6.53889 10.8755 6.46193C10.9075 6.31093 10.9475 6.16188 10.9955 6.01491C11.0425 5.86891 11.0975 5.72591 11.1625 5.58492C11.1935 5.51491 11.2275 5.44588 11.2635 5.37691C11.3005 5.30891 11.3385 5.24092 11.3785 5.1739C11.5375 4.90889 11.7245 4.66689 11.9395 4.44691C11.9935 4.39192 12.0495 4.33791 12.1065 4.28688C12.1355 4.2599 12.1645 4.23488 12.1935 4.20888C12.2235 4.18391 12.2535 4.15889 12.2835 4.13393C12.4045 4.03688 12.5305 3.94588 12.6605 3.86293C12.9205 3.69691 13.1985 3.55989 13.4925 3.44893C13.7865 3.33888 14.0875 3.2599 14.3925 3.20692C14.6985 3.15388 15.0105 3.12691 15.3255 3.12587C32.07 3.03389 48.937 3.03389 65.68 3.12587C65.9961 3.12697 66.3081 3.15395 66.6131 3.20692C66.9191 3.25996 67.2201 3.33894 67.5141 3.44893C67.8081 3.55995 68.0851 3.69698 68.3461 3.86293C68.4761 3.94594 68.6011 4.03596 68.7221 4.13393C68.7521 4.15895 68.7821 4.18398 68.8121 4.20894C68.8411 4.23396 68.8701 4.25996 68.9001 4.28596C68.9561 4.33797 69.0121 4.39192 69.0661 4.44698C69.2801 4.66597 69.4681 4.90895 69.6281 5.17397C69.6681 5.23994 69.7061 5.30794 69.7421 5.37697C69.7791 5.44496 69.8121 5.51497 69.8441 5.58498C69.9071 5.72493 69.9631 5.86897 70.0111 6.01497C70.0591 6.16096 70.0991 6.30995 70.1301 6.46193C70.1471 6.53798 70.1601 6.61494 70.1731 6.69093C70.1851 6.76796 70.1951 6.84492 70.2031 6.92195C70.2201 7.07594 70.2281 7.23097 70.2301 7.38594C70.2311 7.54097 70.2251 7.69698 70.2161 7.85292C70.191 12.6401 70.168 17.4281 70.148 22.215C70.127 27.0021 70.11 31.7901 70.094 36.5768C70.093 36.8688 70.066 37.1588 70.013 37.4458C69.986 37.5908 69.952 37.7328 69.912 37.8718C69.872 38.0118 69.826 38.1498 69.773 38.2848C69.72 38.4198 69.66 38.5528 69.594 38.6838C69.561 38.7498 69.526 38.8148 69.49 38.8788C69.452 38.9428 69.414 39.0058 69.375 39.0668C69.217 39.3138 69.036 39.5428 68.832 39.7548C68.782 39.8068 68.729 39.8588 68.675 39.9088C68.621 39.9598 68.566 40.0088 68.509 40.0568C68.396 40.1528 68.28 40.2418 68.159 40.3238C67.917 40.4898 67.661 40.6318 67.39 40.7488C67.323 40.7778 67.253 40.8058 67.184 40.8318C67.115 40.8578 67.045 40.8818 66.975 40.9038C66.835 40.9498 66.694 40.9878 66.551 41.0198C66.266 41.0828 65.975 41.1208 65.6805 41.1328Z" stroke="#FF00FF" stroke-width="0.283465" stroke-miterlimit="10" stroke-linecap="round" stroke-linejoin="round"/>
<path d="M72.7894 46.9191V52.01H72.1729V47.5654H72.1431L70.9002 48.3907V47.7643L72.1729 46.9191H72.7894ZM74.3903 52.0498C74.2676 52.0498 74.1624 52.0059 74.0746 51.918C73.9867 51.8302 73.9428 51.725 73.9428 51.6023C73.9428 51.4797 73.9867 51.3745 74.0746 51.2866C74.1624 51.1988 74.2676 51.1549 74.3903 51.1549C74.5129 51.1549 74.6181 51.1988 74.706 51.2866C74.7938 51.3745 74.8377 51.4797 74.8377 51.6023C74.8377 51.6835 74.817 51.7581 74.7756 51.8261C74.7358 51.894 74.6819 51.9487 74.614 51.9901C74.5477 52.0299 74.4731 52.0498 74.3903 52.0498ZM77.3689 52.0796C77.0772 52.0796 76.8145 52.0216 76.5809 51.9056C76.3472 51.7896 76.1599 51.6305 76.0191 51.4283C75.8782 51.2262 75.8012 50.9958 75.7879 50.7373H76.3845C76.4077 50.9676 76.5121 51.1582 76.6977 51.309C76.885 51.4582 77.1087 51.5327 77.3689 51.5327C77.5777 51.5327 77.7633 51.4838 77.9257 51.3861C78.0898 51.2883 78.2182 51.1541 78.311 50.9834C78.4055 50.811 78.4527 50.6163 78.4527 50.3992C78.4527 50.1771 78.4038 49.9791 78.306 49.8051C78.2099 49.6294 78.0773 49.4911 77.9083 49.39C77.7393 49.2889 77.5462 49.2375 77.3291 49.2359C77.1733 49.2342 77.0134 49.2582 76.8493 49.308C76.6853 49.356 76.5502 49.4182 76.4442 49.4944L75.8675 49.4248L76.1757 46.9191H78.8206V47.466H76.6927L76.5138 48.9674H76.5436C76.648 48.8845 76.7789 48.8158 76.9363 48.7611C77.0938 48.7064 77.2578 48.679 77.4285 48.679C77.7401 48.679 78.0177 48.7536 78.2613 48.9028C78.5065 49.0503 78.6988 49.2524 78.838 49.5093C78.9788 49.7662 79.0493 50.0595 79.0493 50.3893C79.0493 50.7141 78.9764 51.0041 78.8305 51.2593C78.6863 51.5129 78.4875 51.7134 78.2339 51.8609C77.9804 52.0067 77.692 52.0796 77.3689 52.0796Z" fill="#0000FF"/>
<path d="M51.5796 25.8434C51.2232 25.8434 50.9741 25.6139 50.9741 25.2037V21.0826C50.9741 20.7066 51.1938 20.4674 51.5552 20.4674C51.7044 20.4674 51.8792 20.5065 52.0144 20.6615C52.0609 20.7148 52.0922 20.7743 52.1134 20.8285C52.1449 20.9094 52.2414 20.9428 52.3164 20.899C52.5796 20.7454 53.1393 20.4723 53.7916 20.4723C54.9342 20.4723 55.5836 21.2047 55.5836 22.401V25.2038C55.5836 25.614 55.3346 25.8435 54.9781 25.8435C54.6216 25.8435 54.3677 25.614 54.3677 25.2038V22.6452C54.3677 21.9128 54.0259 21.5026 53.3325 21.5026C52.6391 21.5026 52.1899 22.0055 52.1899 22.7477V25.2038C52.1899 25.614 51.936 25.8435 51.5795 25.8435L51.5796 25.8434Z" fill="black"/>
<path d="M47.4883 20.4626C45.9795 20.4626 44.9834 21.488 44.9834 23.1579C44.9834 24.8278 45.9697 25.8484 47.4883 25.8484C49.0069 25.8484 49.9932 24.8376 49.9932 23.1579C49.9932 21.4782 48.9971 20.4626 47.4883 20.4626ZM47.4883 24.8865C46.7168 24.8865 46.2188 24.2615 46.2188 23.158C46.2188 22.0545 46.7217 21.4295 47.4883 21.4295C48.2549 21.4295 48.7578 22.0594 48.7578 23.158C48.7578 24.2566 48.2597 24.8865 47.4883 24.8865Z" fill="black"/>
<path d="M43.3672 20.4674C42.9961 20.4674 42.7617 20.7164 42.7617 21.1071V25.2038C42.7617 25.5993 42.9961 25.8436 43.3672 25.8436C43.7383 25.8436 43.9776 25.5994 43.9776 25.2038V21.112C43.9776 20.7165 43.7383 20.4675 43.3672 20.4675V20.4674ZM43.3672 19.8424C43.7481 19.8424 44.0459 19.5494 44.0459 19.1832C44.0459 18.817 43.748 18.524 43.3672 18.524C42.9864 18.524 42.6934 18.8121 42.6934 19.1832C42.6934 19.5543 42.9913 19.8424 43.3672 19.8424Z" fill="black"/>
<path d="M39.5097 24.4666V21.6493C39.5097 21.571 39.4462 21.5076 39.368 21.5076H39.1826C38.8799 21.5076 38.6943 21.3269 38.6943 21.034C38.6943 20.7411 38.8798 20.5701 39.1826 20.5701H39.368C39.4463 20.5701 39.5097 20.5066 39.5097 20.4284V19.8816C39.5097 19.491 39.7441 19.2468 40.1201 19.2468C40.4961 19.2468 40.7256 19.4909 40.7256 19.8816V20.4284C40.7256 20.5067 40.7891 20.5701 40.8673 20.5701H41.2871C41.5898 20.5701 41.7754 20.7459 41.7754 21.034C41.7754 21.3221 41.5899 21.5076 41.2871 21.5076H40.8673C40.789 21.5076 40.7256 21.5711 40.7256 21.6493V24.2029C40.7256 24.5935 40.8623 24.7644 41.2139 24.7937L41.3018 24.8035C41.6241 24.8328 41.7901 24.9695 41.7901 25.2527C41.7901 25.6091 41.4776 25.7996 40.921 25.7996H40.8722C39.9689 25.7996 39.5099 25.3504 39.5099 24.4666H39.5097Z" fill="black"/>
<path d="M35.9551 25.8484C34.4414 25.8484 33.4648 24.823 33.4648 23.1628C33.4648 21.5026 34.4365 20.4626 35.9453 20.4626C36.9609 20.4626 37.8252 20.9851 38.0742 21.7126C38.1133 21.8151 38.1377 21.9177 38.1377 22.0056C38.1377 22.3083 37.9082 22.4939 37.6152 22.4939C37.3711 22.4939 37.2246 22.3914 37.083 22.1472C36.8242 21.6736 36.4824 21.449 35.9795 21.449C35.1982 21.449 34.7002 22.0984 34.7002 23.158C34.7002 24.2176 35.2031 24.867 35.9746 24.867C36.5117 24.867 36.8437 24.618 37.0781 24.2029C37.2441 23.9295 37.376 23.8269 37.6396 23.8269C37.9277 23.8269 38.1523 24.0222 38.1523 24.325C38.1523 24.4178 38.1279 24.5203 38.0791 24.6375C37.791 25.3455 36.9316 25.8484 35.9551 25.8484Z" fill="black"/>
<path d="M28.4995 25.8434C28.1431 25.8434 27.894 25.6139 27.894 25.2037V21.0826C27.894 20.7066 28.1137 20.4674 28.4751 20.4674C28.6243 20.4674 28.7991 20.5065 28.9343 20.6615C28.9808 20.7148 29.0121 20.7743 29.0333 20.8285C29.0648 20.9094 29.1613 20.9428 29.2363 20.899C29.4995 20.7454 30.0592 20.4723 30.7115 20.4723C31.8541 20.4723 32.5035 21.2047 32.5035 22.401V25.2038C32.5035 25.614 32.2545 25.8435 31.898 25.8435C31.5415 25.8435 31.2876 25.614 31.2876 25.2038V22.6452C31.2876 21.9128 30.9458 21.5026 30.2524 21.5026C29.559 21.5026 29.1098 22.0055 29.1098 22.7477V25.2038C29.1098 25.614 28.8559 25.8435 28.4994 25.8435L28.4995 25.8434Z" fill="black"/>
<path d="M23.92 25.8387C22.7969 25.8387 22.084 25.1112 22.084 23.9149V21.1073C22.084 20.702 22.333 20.4676 22.6895 20.4676C23.046 20.4676 23.2999 20.702 23.2999 21.1121V23.6707C23.2999 24.4129 23.6612 24.8133 24.3448 24.8133C25.0284 24.8133 25.4825 24.3152 25.4825 23.5633V21.1072C25.4825 20.7019 25.7364 20.4675 26.0929 20.4675C26.4494 20.4675 26.6984 20.7019 26.6984 21.112V25.2283C26.6984 25.6189 26.464 25.8435 26.1173 25.8435C25.7706 25.8435 25.6443 25.6331 25.6169 25.5884C25.5986 25.5584 25.5831 25.523 25.5704 25.4878C25.5411 25.4066 25.4457 25.3711 25.3697 25.4121C25.0937 25.5606 24.5792 25.8387 23.9199 25.8387H23.92Z" fill="black"/>
<path d="M17.25 25.829C16.8594 25.829 16.6201 25.5897 16.6201 25.1747V19.3543C16.6201 18.9441 16.8594 18.7 17.25 18.7H20.6192C20.9659 18.7 21.1954 18.9051 21.1954 19.2322C21.1954 19.5593 20.961 19.7644 20.6192 19.7644H18.0216C17.9433 19.7644 17.8799 19.8279 17.8799 19.9061V21.7027C17.8799 21.781 17.9434 21.8444 18.0216 21.8444H20.3652C20.6972 21.8444 20.917 22.0397 20.917 22.3571C20.917 22.6745 20.6973 22.8698 20.3652 22.8698H18.0216C17.9433 22.8698 17.8799 22.9333 17.8799 23.0115V25.1745C17.8799 25.5895 17.6455 25.8288 17.25 25.8288V25.829Z" fill="black"/>
</svg>
