<svg width="55" height="108" viewBox="0 0 55 108" fill="none" xmlns="http://www.w3.org/2000/svg">
<path d="M39.5059 97.5845C40.1829 97.5214 40.8549 97.3214 41.4629 97.0112C41.7709 96.8542 42.0629 96.6692 42.3347 96.4578C42.6097 96.2467 42.8636 96.0087 43.0939 95.7487C43.5529 95.2317 43.9159 94.6277 44.1688 93.9805C44.4188 93.3384 44.5598 92.6534 44.5867 91.9697C44.6826 71.1248 44.7826 50.2798 44.8881 29.4346C44.9231 22.4856 44.958 15.5376 44.9951 8.58826C44.9731 7.87427 44.8191 7.15625 44.5348 6.49524C44.2548 5.84216 43.8488 5.24524 43.3407 4.74988C42.8407 4.26196 42.2417 3.87488 41.5925 3.6145C40.9475 3.35657 40.2495 3.22351 39.5593 3.2135C31.5194 3.15161 23.4794 3.15161 15.4402 3.21399C14.7501 3.2229 14.0532 3.35596 13.4071 3.61523C12.7581 3.87415 12.1602 4.26221 11.6598 4.74939C11.1517 5.24329 10.7448 5.84131 10.4648 6.49316C10.1808 7.15417 10.0259 7.87207 10.0049 8.58606L10.0044 8.58813C10.1144 29.4342 10.2163 50.2792 10.3151 71.1254C10.349 78.0734 10.381 85.0214 10.4128 91.9696C10.4388 92.6537 10.5859 93.3407 10.835 93.9802C10.9609 94.3043 11.1139 94.6173 11.2931 94.9137C11.4722 95.2096 11.6791 95.4917 11.9089 95.7516C12.1389 96.0116 12.3929 96.2496 12.666 96.4628C12.939 96.6738 13.231 96.8608 13.5391 97.0172C13.8451 97.1722 14.166 97.2972 14.495 97.3947C14.822 97.4906 15.1589 97.5587 15.4979 97.5847C19.4939 97.8326 23.496 97.9576 27.4999 97.9576C31.5029 97.9586 35.5059 97.8336 39.502 97.5846" stroke="#16215B" stroke-width="0.283" stroke-miterlimit="10"/>
<path d="M41.9572 92.7594V10.6394V7.09677C41.9572 5.92233 41.0051 4.97031 39.8311 4.97031H15.1691C13.995 4.97031 13.043 5.92233 13.043 7.09641L13.0431 92.7594C13.0431 93.9334 13.995 94.8855 15.1691 94.8853H39.8312C41.0051 94.8853 41.9572 93.9334 41.9572 92.7594Z" stroke="#00FFFF" stroke-width="0.28" stroke-miterlimit="10"/>
<path d="M11.4342 8.06235C11.4332 7.9133 11.4402 7.76437 11.4542 7.6163C11.4611 7.54233 11.4692 7.46835 11.4802 7.39438C11.4902 7.32138 11.5031 7.24838 11.5162 7.17636C11.5711 6.8873 11.6541 6.60532 11.7662 6.33334C11.7942 6.26535 11.8242 6.19833 11.8552 6.13132C11.8862 6.0643 11.9201 5.99838 11.9552 5.9343C12.0241 5.80539 12.1002 5.68039 12.1812 5.56137C12.2632 5.44138 12.3512 5.32541 12.4461 5.2153C12.4931 5.15939 12.5422 5.10532 12.5912 5.05234C12.6422 4.99936 12.6942 4.94736 12.7481 4.89633C12.8542 4.79538 12.9662 4.70041 13.0822 4.6113C13.1982 4.52231 13.3182 4.4404 13.4413 4.36435C13.5652 4.2883 13.6922 4.21933 13.8232 4.15536C13.8882 4.12338 13.9552 4.09335 14.0222 4.0643C14.0892 4.03635 14.1582 4.00937 14.2262 3.98337C14.5022 3.88229 14.7832 3.80734 15.0692 3.75729C15.3552 3.70737 15.6462 3.68137 15.9413 3.67929C23.6054 3.6174 31.3934 3.6174 39.0575 3.67929C39.3532 3.68222 39.6462 3.70822 39.9342 3.75815C40.0062 3.77121 40.0792 3.78513 40.1502 3.80112C40.2212 3.81711 40.2942 3.8342 40.3642 3.85422C40.5062 3.89218 40.6452 3.93613 40.7812 3.98715C41.0542 4.0881 41.3163 4.2142 41.5653 4.36911C41.6283 4.4072 41.6892 4.44711 41.7502 4.48911C41.8092 4.53012 41.8683 4.57321 41.9253 4.61813C42.0412 4.70615 42.1512 4.80014 42.2552 4.90012C42.3612 5.00021 42.4613 5.10617 42.5562 5.21811C42.6032 5.27414 42.6502 5.33212 42.6942 5.39011C42.7392 5.44821 42.7812 5.50717 42.8222 5.56821C42.9862 5.80917 43.1242 6.06515 43.2352 6.33713C43.2622 6.40512 43.2893 6.47311 43.3132 6.54318C43.3372 6.61313 43.3602 6.68417 43.3812 6.75412C43.4222 6.89511 43.4572 7.03915 43.4842 7.1832C43.5393 7.47116 43.5663 7.76413 43.5653 8.0621L43.5594 10.6402L43.4264 89.2163L43.4237 91.3941C43.4237 91.6844 43.4017 91.9724 43.3586 92.2594C43.3466 92.3304 43.3347 92.4024 43.3197 92.4735C43.3066 92.5444 43.2906 92.6154 43.2746 92.6864C43.2407 92.8274 43.2016 92.9674 43.1577 93.1045C43.0677 93.3784 42.9566 93.6444 42.8197 93.9015C42.7867 93.9654 42.7507 94.0294 42.7137 94.0924C42.6767 94.1544 42.6386 94.2154 42.5997 94.2765C42.5207 94.3965 42.4356 94.5134 42.3457 94.6255C42.2557 94.7374 42.1596 94.8454 42.0587 94.9485C42.0077 95.0005 41.9557 95.0514 41.9017 95.1004C41.8497 95.1494 41.7946 95.1975 41.7386 95.2434C41.5177 95.4264 41.2787 95.5854 41.0257 95.7185C40.9616 95.7524 40.8977 95.7834 40.8316 95.8134C40.7657 95.8435 40.6987 95.8724 40.6317 95.8984C40.4976 95.9514 40.3617 95.9964 40.2247 96.0344C39.9497 96.1104 39.6677 96.1574 39.3797 96.1764C31.5049 96.6884 23.495 96.6884 15.62 96.1764C15.547 96.1722 15.4749 96.1653 15.4029 96.1572C15.3309 96.1482 15.26 96.1382 15.1889 96.1262C15.047 96.1021 14.907 96.0711 14.769 96.0332C14.6319 95.9952 14.495 95.9492 14.3609 95.8962C14.295 95.8702 14.228 95.8412 14.162 95.8112C14.097 95.7812 14.031 95.7481 13.967 95.7152C13.7109 95.5802 13.472 95.4201 13.2519 95.2362C13.141 95.1441 13.036 95.0462 12.9339 94.9422C12.8829 94.8902 12.834 94.8362 12.785 94.7812C12.7369 94.7271 12.691 94.6712 12.646 94.6152C12.4659 94.3902 12.3089 94.1491 12.176 93.8941C12.108 93.7682 12.047 93.6372 11.99 93.5022C11.962 93.4362 11.9339 93.3672 11.91 93.2992C11.885 93.2312 11.86 93.1622 11.839 93.0932C11.75 92.8182 11.6839 92.5392 11.641 92.2552C11.597 91.9721 11.576 91.6852 11.5764 91.3941C11.5573 77.5062 11.5373 63.6172 11.5134 49.7292C11.4903 35.8402 11.4643 21.9511 11.4342 8.06235Z" stroke="#FF00FF" stroke-width="0.283465" stroke-miterlimit="10" stroke-linecap="round" stroke-linejoin="round"/>
<path d="M38.443 106.01V105.563L40.1234 103.723C40.3206 103.508 40.483 103.32 40.6106 103.161C40.7382 103.001 40.8327 102.85 40.894 102.709C40.957 102.566 40.9885 102.417 40.9885 102.261C40.9885 102.082 40.9454 101.928 40.8592 101.797C40.7747 101.666 40.6587 101.565 40.5112 101.493C40.3637 101.422 40.198 101.386 40.014 101.386C39.8185 101.386 39.6478 101.427 39.502 101.508C39.3578 101.588 39.2459 101.7 39.1664 101.844C39.0885 101.988 39.0495 102.157 39.0495 102.351H38.4629C38.4629 102.053 38.5317 101.791 38.6692 101.565C38.8068 101.34 38.994 101.164 39.231 101.038C39.4696 100.912 39.7373 100.849 40.0339 100.849C40.3322 100.849 40.5965 100.912 40.8269 101.038C41.0572 101.164 41.2379 101.334 41.3688 101.548C41.4997 101.762 41.5652 102 41.5652 102.261C41.5652 102.449 41.5312 102.632 41.4632 102.811C41.397 102.988 41.281 103.186 41.1152 103.405C40.9512 103.622 40.7233 103.887 40.4316 104.2L39.2882 105.423V105.463H41.6547V106.01H38.443ZM43.1188 106.05C42.9962 106.05 42.8909 106.006 42.8031 105.918C42.7153 105.83 42.6713 105.725 42.6713 105.602C42.6713 105.48 42.7153 105.374 42.8031 105.287C42.8909 105.199 42.9962 105.155 43.1188 105.155C43.2414 105.155 43.3467 105.199 43.4345 105.287C43.5223 105.374 43.5662 105.48 43.5662 105.602C43.5662 105.684 43.5455 105.758 43.5041 105.826C43.4643 105.894 43.4105 105.949 43.3425 105.99C43.2762 106.03 43.2016 106.05 43.1188 106.05ZM46.0918 106.08C45.7173 106.08 45.3983 105.978 45.1348 105.774C44.8713 105.568 44.6699 105.271 44.5307 104.881C44.3915 104.49 44.3219 104.018 44.3219 103.465C44.3219 102.914 44.3915 102.445 44.5307 102.055C44.6716 101.664 44.8738 101.366 45.1373 101.16C45.4024 100.953 45.7206 100.849 46.0918 100.849C46.463 100.849 46.7804 100.953 47.0439 101.16C47.309 101.366 47.5112 101.664 47.6504 102.055C47.7913 102.445 47.8617 102.914 47.8617 103.465C47.8617 104.018 47.7921 104.49 47.6529 104.881C47.5137 105.271 47.3123 105.568 47.0488 105.774C46.7853 105.978 46.4663 106.08 46.0918 106.08ZM46.0918 105.533C46.463 105.533 46.7514 105.354 46.9569 104.996C47.1623 104.638 47.2651 104.127 47.2651 103.465C47.2651 103.024 47.2179 102.648 47.1234 102.338C47.0306 102.029 46.8964 101.792 46.7207 101.63C46.5467 101.468 46.3371 101.386 46.0918 101.386C45.7239 101.386 45.4364 101.568 45.2292 101.931C45.0221 102.292 44.9185 102.803 44.9185 103.465C44.9185 103.905 44.9649 104.28 45.0577 104.588C45.1505 104.896 45.2839 105.131 45.4579 105.292C45.6336 105.452 45.8449 105.533 46.0918 105.533ZM49.1046 100.919L50.6159 105.205H50.6756L52.187 100.919H52.8333L50.964 106.01H50.3276L48.4583 100.919H49.1046Z" fill="#0000FF"/>
<path fill-rule="evenodd" clip-rule="evenodd" d="M34.5793 49.4825C34.1872 49.4825 33.8693 49.8004 33.8693 50.1925C33.8693 50.5846 34.1872 50.9025 34.5793 50.9025H36.5693C36.8972 50.9025 37.1593 51.1646 37.1593 51.4925V56.3225C37.1593 56.6504 36.8972 56.9125 36.5693 56.9125H29.4491C29.3473 56.9125 29.2795 56.8073 29.3217 56.7146L29.7779 55.711C29.8183 55.622 29.8393 55.5253 29.8393 55.4275V55.4175C29.8393 55.1815 29.7177 54.9621 29.5177 54.8369C29.3176 54.7117 29.0672 54.6983 28.8549 54.8014L24.9496 56.6991C24.1692 57.0665 24.1692 58.1785 24.9496 58.5459L28.8549 60.4436C29.1146 60.5698 29.4256 60.5196 29.6324 60.3181C29.8392 60.1165 29.8974 59.8069 29.7779 59.5441L29.3171 58.5304C29.275 58.4378 29.3428 58.3325 29.4446 58.3325H36.5693C37.6814 58.3325 38.5793 57.4346 38.5793 56.3225V51.4925C38.5793 50.3804 37.6814 49.4825 36.5693 49.4825H34.5793Z" fill="black"/>
<path d="M16.25 43.7501C15.8594 43.7501 15.6201 43.506 15.6201 43.0958V37.3584C15.6201 36.9482 15.8594 36.7041 16.25 36.7041H19.6827C20.0294 36.7041 20.2589 36.9092 20.2589 37.2363C20.2589 37.5634 20.0294 37.7685 19.6827 37.7685H17.0217C16.9434 37.7685 16.88 37.832 16.88 37.9102V39.5311C16.88 39.6094 16.9435 39.6728 17.0217 39.6728H19.5362C19.8585 39.6728 20.0782 39.8632 20.0782 40.1709C20.0782 40.4786 19.8634 40.6738 19.5362 40.6738H17.0217C16.9434 40.6738 16.88 40.7373 16.88 40.8155V42.5438C16.88 42.6221 16.9435 42.6855 17.0217 42.6855H19.6827C20.0294 42.6855 20.2589 42.8906 20.2589 43.2177C20.2589 43.5448 20.0294 43.7499 19.6827 43.7499H16.25V43.7501Z" fill="black"/>
<path d="M33.8614 40.548H31.7722C31.6816 40.548 31.6148 40.4642 31.6338 40.3756C31.7704 39.7369 32.242 39.4093 32.8364 39.4093C33.4308 39.4093 33.8849 39.7241 34.0011 40.3824C34.0164 40.4689 33.9493 40.548 33.8614 40.548ZM32.8316 38.4668C31.3374 38.4668 30.3853 39.5312 30.3853 41.1817C30.3853 42.8322 31.3179 43.8526 32.9 43.8526C33.7002 43.8526 34.2862 43.6748 34.7859 43.1198C35.0096 42.8714 34.9497 42.5007 34.6536 42.3422C34.4042 42.2086 34.1205 42.3367 33.9812 42.4661C33.5385 42.8775 33.2137 42.9151 32.8903 42.9151C32.1441 42.9151 31.6541 42.4304 31.6011 41.6069C31.5958 41.5248 31.6602 41.4551 31.7425 41.4551H34.6967C34.9779 41.4551 35.2073 41.2303 35.2137 40.9492C35.2464 39.5063 34.2712 38.4668 32.8316 38.4668Z" fill="black"/>
<path d="M21.3516 43.2079V39.0858C21.3516 38.7097 21.5714 38.4704 21.9328 38.4704C22.1396 38.4704 22.3086 38.5509 22.4141 38.6919C22.4397 38.7261 22.4615 38.7648 22.4792 38.8013C22.5136 38.872 22.5981 38.9021 22.6688 38.8678C22.935 38.7388 23.5543 38.4753 24.1697 38.4753C25.3126 38.4753 25.9622 39.2079 25.9622 40.4045V43.208C25.9622 43.6183 25.7131 43.8478 25.3566 43.8478C25.0001 43.8478 24.7461 43.6182 24.7461 43.208V40.6488C24.7461 39.9162 24.4042 39.5059 23.7107 39.5059C23.0172 39.5059 22.5678 40.009 22.5678 40.7513V43.208C22.5678 43.6183 22.3138 43.8478 21.9573 43.8478C21.6008 43.8478 21.3516 43.6182 21.3516 43.2079Z" fill="black"/>
<path d="M36.1992 43.2078V39.0856C36.1992 38.7046 36.4336 38.4702 36.7804 38.4702C37.014 38.4702 37.2006 38.5828 37.2932 38.7787C37.2951 38.7827 37.3015 38.7988 37.31 38.8206C37.3441 38.9081 37.4524 38.9391 37.5273 38.8824C37.7297 38.7293 38.112 38.4849 38.4899 38.4849C38.6804 38.4849 38.8269 38.5337 38.9197 38.6168C39.032 38.7096 39.0906 38.8561 39.0906 39.0564C39.0906 39.2567 39.032 39.3885 38.9099 39.4862C38.7927 39.5888 38.612 39.6425 38.3726 39.6474C37.679 39.6523 37.4153 40.087 37.4153 40.717V43.2079C37.4153 43.6084 37.1711 43.8477 36.8048 43.8477C36.4385 43.8477 36.1992 43.6083 36.1992 43.2078Z" fill="black"/>
<path d="M27.4752 42.4706V39.6543C27.4752 39.576 27.4117 39.5126 27.3335 39.5126H27.1481C26.8454 39.5126 26.6597 39.3417 26.6597 39.0487C26.6597 38.7557 26.8452 38.5897 27.1481 38.5897H27.3335C27.4118 38.5897 27.4752 38.5262 27.4752 38.448V37.885C27.4752 37.4943 27.7096 37.2501 28.0857 37.2501C28.4618 37.2501 28.6913 37.4942 28.6913 37.885V38.448C28.6913 38.5263 28.7548 38.5897 28.833 38.5897H29.2529C29.5556 38.5897 29.7413 38.7605 29.7413 39.0487C29.7413 39.3369 29.5558 39.5126 29.2529 39.5126H28.833C28.7547 39.5126 28.6913 39.5761 28.6913 39.6543V42.2069C28.6913 42.5976 28.828 42.7685 29.1797 42.7978L29.2676 42.8076C29.5899 42.8369 29.756 42.9736 29.756 43.2569C29.756 43.6133 29.4435 43.8039 28.8868 43.8039H28.838C27.9346 43.8039 27.4755 43.3546 27.4755 42.4707H27.4753L27.4752 42.4706Z" fill="black"/>
</svg>
