<svg width="55" height="108" viewBox="0 0 55 108" fill="none" xmlns="http://www.w3.org/2000/svg">
<path d="M39.5059 97.5844C40.1829 97.5213 40.8549 97.3214 41.4629 97.0112C41.7709 96.8542 42.0629 96.6692 42.3347 96.4577C42.6097 96.2467 42.8636 96.0086 43.0939 95.7486C43.5529 95.2317 43.9159 94.6277 44.1688 93.9804C44.4188 93.3383 44.5598 92.6534 44.5867 91.9697C44.6826 71.1247 44.7826 50.2798 44.8881 29.4345C44.9231 22.4856 44.958 15.5376 44.9951 8.58823C44.9731 7.87424 44.8191 7.15622 44.5348 6.49521C44.2548 5.84213 43.8488 5.24521 43.3407 4.74985C42.8407 4.26193 42.2417 3.87485 41.5925 3.61447C40.9475 3.35654 40.2495 3.22348 39.5593 3.21347C31.5194 3.15158 23.4794 3.15158 15.4402 3.21396C14.7501 3.22287 14.0532 3.35593 13.4071 3.6152C12.7581 3.87412 12.1602 4.26218 11.6598 4.74936C11.1517 5.24326 10.7448 5.84128 10.4648 6.49313C10.1808 7.15414 10.0259 7.87204 10.0049 8.58603L10.0044 8.5881C10.1144 29.4342 10.2163 50.2791 10.3151 71.1253C10.349 78.0733 10.381 85.0213 10.4128 91.9696C10.4388 92.6537 10.5859 93.3407 10.835 93.9802C10.9609 94.3043 11.1139 94.6173 11.2931 94.9137C11.4722 95.2096 11.6791 95.4917 11.9089 95.7516C12.1389 96.0116 12.3929 96.2496 12.666 96.4627C12.939 96.6738 13.231 96.8608 13.5391 97.0172C13.8451 97.1722 14.166 97.2972 14.495 97.3946C14.822 97.4906 15.1589 97.5587 15.4979 97.5847C19.4939 97.8326 23.496 97.9576 27.4999 97.9576C31.5029 97.9586 35.5059 97.8336 39.502 97.5846" stroke="#16215B" stroke-width="0.283" stroke-miterlimit="10"/>
<path d="M41.9572 92.7594V10.6394V7.0968C41.9572 5.92236 41.0051 4.97034 39.8311 4.97034H15.1691C13.995 4.97034 13.043 5.92236 13.043 7.09644L13.0431 92.7594C13.0431 93.9335 13.995 94.8855 15.1691 94.8854H39.8312C41.0051 94.8854 41.9572 93.9335 41.9572 92.7594Z" stroke="#00FFFF" stroke-width="0.28" stroke-miterlimit="10"/>
<path d="M11.4342 8.06229C11.4332 7.91324 11.4402 7.76431 11.4542 7.61624C11.4611 7.54227 11.4692 7.46829 11.4802 7.39432C11.4902 7.32132 11.5031 7.24832 11.5162 7.1763C11.5711 6.88724 11.6541 6.60526 11.7662 6.33328C11.7942 6.26529 11.8242 6.19827 11.8552 6.13126C11.8862 6.06424 11.9201 5.99832 11.9552 5.93423C12.0241 5.80533 12.1002 5.68033 12.1812 5.56131C12.2632 5.44131 12.3512 5.32535 12.4461 5.21524C12.4931 5.15933 12.5422 5.10526 12.5912 5.05228C12.6422 4.9993 12.6942 4.9473 12.7481 4.89627C12.8542 4.79532 12.9662 4.70035 13.0822 4.61124C13.1982 4.52225 13.3182 4.44034 13.4413 4.36429C13.5652 4.28824 13.6922 4.21927 13.8232 4.1553C13.8882 4.12332 13.9552 4.09329 14.0222 4.06424C14.0892 4.03629 14.1582 4.00931 14.2262 3.98331C14.5022 3.88223 14.7832 3.80728 15.0692 3.75723C15.3552 3.70731 15.6462 3.6813 15.9413 3.67923C23.6054 3.61734 31.3934 3.61734 39.0575 3.67923C39.3532 3.68216 39.6462 3.70816 39.9342 3.75809C40.0062 3.77115 40.0792 3.78506 40.1502 3.80106C40.2212 3.81705 40.2942 3.83414 40.3642 3.85416C40.5062 3.89212 40.6452 3.93607 40.7812 3.98709C41.0542 4.08804 41.3163 4.21414 41.5653 4.36905C41.6283 4.40713 41.6892 4.44705 41.7502 4.48904C41.8092 4.53006 41.8683 4.57315 41.9253 4.61807C42.0412 4.70609 42.1512 4.80008 42.2552 4.90005C42.3612 5.00015 42.4613 5.10611 42.5562 5.21805C42.6032 5.27408 42.6502 5.33206 42.6942 5.39005C42.7392 5.44815 42.7812 5.50711 42.8222 5.56815C42.9862 5.80911 43.1242 6.06509 43.2352 6.33707C43.2622 6.40506 43.2893 6.47305 43.3132 6.54312C43.3372 6.61307 43.3602 6.68411 43.3812 6.75406C43.4222 6.89505 43.4572 7.03909 43.4842 7.18314C43.5393 7.4711 43.5663 7.76407 43.5653 8.06204L43.5594 10.6402L43.4264 89.2162L43.4237 91.3941C43.4237 91.6844 43.4017 91.9723 43.3586 92.2593C43.3466 92.3304 43.3347 92.4024 43.3197 92.4734C43.3066 92.5443 43.2906 92.6154 43.2746 92.6863C43.2407 92.8273 43.2016 92.9673 43.1577 93.1044C43.0677 93.3783 42.9566 93.6443 42.8197 93.9014C42.7867 93.9654 42.7507 94.0293 42.7137 94.0923C42.6767 94.1543 42.6386 94.2154 42.5997 94.2764C42.5207 94.3964 42.4356 94.5133 42.3457 94.6254C42.2557 94.7373 42.1596 94.8454 42.0587 94.9484C42.0077 95.0004 41.9557 95.0513 41.9017 95.1004C41.8497 95.1493 41.7946 95.1974 41.7386 95.2433C41.5177 95.4263 41.2787 95.5854 41.0257 95.7184C40.9616 95.7523 40.8977 95.7834 40.8316 95.8134C40.7657 95.8434 40.6987 95.8723 40.6317 95.8983C40.4976 95.9513 40.3617 95.9964 40.2247 96.0343C39.9497 96.1104 39.6677 96.1574 39.3797 96.1763C31.5049 96.6884 23.495 96.6884 15.62 96.1763C15.547 96.1721 15.4749 96.1652 15.4029 96.1571C15.3309 96.1481 15.26 96.1381 15.1889 96.1261C15.047 96.1021 14.907 96.0711 14.769 96.0331C14.6319 95.9951 14.495 95.9491 14.3609 95.8961C14.295 95.8701 14.228 95.8411 14.162 95.8112C14.097 95.7812 14.031 95.7481 13.967 95.7151C13.7109 95.5801 13.472 95.4201 13.2519 95.2361C13.141 95.1441 13.036 95.0462 12.9339 94.9422C12.8829 94.8902 12.834 94.8361 12.785 94.7812C12.7369 94.7271 12.691 94.6712 12.646 94.6151C12.4659 94.3902 12.3089 94.1491 12.176 93.8941C12.108 93.7681 12.047 93.6371 11.99 93.5021C11.962 93.4362 11.9339 93.3671 11.91 93.2991C11.885 93.2311 11.86 93.1621 11.839 93.0932C11.75 92.8181 11.6839 92.5391 11.641 92.2552C11.597 91.9721 11.576 91.6851 11.5764 91.3941C11.5573 77.5061 11.5373 63.6171 11.5134 49.7292C11.4903 35.8401 11.4643 21.9511 11.4342 8.06229Z" stroke="#FF00FF" stroke-width="0.283465" stroke-miterlimit="10" stroke-linecap="round" stroke-linejoin="round"/>
<path d="M38.443 106.01V105.563L40.1234 103.723C40.3206 103.508 40.483 103.32 40.6106 103.161C40.7382 103.001 40.8327 102.85 40.894 102.709C40.957 102.566 40.9885 102.417 40.9885 102.261C40.9885 102.082 40.9454 101.928 40.8592 101.797C40.7747 101.666 40.6587 101.565 40.5112 101.493C40.3637 101.422 40.198 101.386 40.014 101.386C39.8185 101.386 39.6478 101.427 39.502 101.508C39.3578 101.588 39.2459 101.7 39.1664 101.844C39.0885 101.988 39.0495 102.157 39.0495 102.351H38.4629C38.4629 102.053 38.5317 101.791 38.6692 101.565C38.8068 101.34 38.994 101.164 39.231 101.038C39.4696 100.912 39.7373 100.849 40.0339 100.849C40.3322 100.849 40.5965 100.912 40.8269 101.038C41.0572 101.164 41.2379 101.334 41.3688 101.548C41.4997 101.762 41.5652 102 41.5652 102.261C41.5652 102.449 41.5312 102.632 41.4632 102.811C41.397 102.988 41.281 103.186 41.1152 103.405C40.9512 103.622 40.7233 103.887 40.4316 104.2L39.2882 105.423V105.463H41.6547V106.01H38.443ZM43.1188 106.05C42.9962 106.05 42.8909 106.006 42.8031 105.918C42.7153 105.83 42.6713 105.725 42.6713 105.602C42.6713 105.48 42.7153 105.374 42.8031 105.287C42.8909 105.199 42.9962 105.155 43.1188 105.155C43.2414 105.155 43.3467 105.199 43.4345 105.287C43.5223 105.374 43.5662 105.48 43.5662 105.602C43.5662 105.684 43.5455 105.758 43.5041 105.826C43.4643 105.894 43.4105 105.949 43.3425 105.99C43.2762 106.03 43.2016 106.05 43.1188 106.05ZM46.0918 106.08C45.7173 106.08 45.3983 105.978 45.1348 105.774C44.8713 105.568 44.6699 105.271 44.5307 104.881C44.3915 104.49 44.3219 104.018 44.3219 103.465C44.3219 102.914 44.3915 102.445 44.5307 102.055C44.6716 101.664 44.8738 101.366 45.1373 101.16C45.4024 100.953 45.7206 100.849 46.0918 100.849C46.463 100.849 46.7804 100.953 47.0439 101.16C47.309 101.366 47.5112 101.664 47.6504 102.055C47.7913 102.445 47.8617 102.914 47.8617 103.465C47.8617 104.018 47.7921 104.49 47.6529 104.881C47.5137 105.271 47.3123 105.568 47.0488 105.774C46.7853 105.978 46.4663 106.08 46.0918 106.08ZM46.0918 105.533C46.463 105.533 46.7514 105.354 46.9569 104.996C47.1623 104.638 47.2651 104.127 47.2651 103.465C47.2651 103.024 47.2179 102.648 47.1234 102.338C47.0306 102.029 46.8964 101.792 46.7207 101.63C46.5467 101.468 46.3371 101.386 46.0918 101.386C45.7239 101.386 45.4364 101.568 45.2292 101.931C45.0221 102.292 44.9185 102.803 44.9185 103.465C44.9185 103.905 44.9649 104.28 45.0577 104.588C45.1505 104.896 45.2839 105.131 45.4579 105.292C45.6336 105.452 45.8449 105.533 46.0918 105.533ZM49.1046 100.919L50.6159 105.205H50.6756L52.187 100.919H52.8333L50.964 106.01H50.3276L48.4583 100.919H49.1046Z" fill="#0000FF"/>
<path fill-rule="evenodd" clip-rule="evenodd" d="M31.0793 43.4825C30.6872 43.4825 30.3693 43.8004 30.3693 44.1925C30.3693 44.5847 30.6872 44.9025 31.0793 44.9025H33.0693C33.3972 44.9025 33.6593 45.1647 33.6593 45.4925V50.3225C33.6593 50.6504 33.3972 50.9125 33.0693 50.9125H25.9491C25.8473 50.9125 25.7795 50.8073 25.8217 50.7146L26.2779 49.711C26.3183 49.622 26.3393 49.5253 26.3393 49.4276V49.4176C26.3393 49.1815 26.2177 48.9621 26.0177 48.8369C25.8176 48.7117 25.5672 48.6983 25.3549 48.8014L21.4496 50.6992C20.6692 51.0665 20.6692 52.1786 21.4496 52.5459L25.3549 54.4437C25.6146 54.5699 25.9256 54.5197 26.1324 54.3181C26.3392 54.1166 26.3974 53.807 26.2779 53.5441L25.8171 52.5305C25.775 52.4378 25.8428 52.3325 25.9446 52.3325H33.0693C34.1814 52.3325 35.0793 51.4347 35.0793 50.3225V45.4925C35.0793 44.3804 34.1814 43.4825 33.0693 43.4825H31.0793Z" fill="black"/>
</svg>
