<svg width="82" height="54" viewBox="0 0 82 54" fill="none" xmlns="http://www.w3.org/2000/svg">
<rect x="2.3501" y="1.84998" width="77.3" height="50.3" rx="3" stroke="#8B1EFF" stroke-width="0.28"/>
<path d="M71.5068 37.0027C71.5848 27.0807 71.6919 17.1587 71.8298 7.23665C71.8199 6.87965 71.7788 6.52266 71.7035 6.17201C71.6305 5.82301 71.5245 5.48201 71.3847 5.15382C71.2467 4.82881 71.0757 4.51686 70.876 4.22511C70.676 3.93513 70.448 3.66512 70.1949 3.42079C69.9419 3.17781 69.6649 2.96077 69.3693 2.77412C69.0733 2.58711 68.7583 2.42915 68.4325 2.30342C68.1065 2.17744 67.7675 2.0815 67.4237 2.01741C67.0777 1.95345 66.7278 1.91939 66.3745 1.91585C49.4605 1.82491 32.5455 1.82491 15.6317 1.91548C15.2937 1.92159 14.9567 1.95454 14.6241 2.01485C14.2921 2.07381 13.9641 2.15974 13.6495 2.27437C13.4005 2.36739 13.1575 2.47835 12.9246 2.60493C12.6925 2.73299 12.4685 2.87801 12.2568 3.03865C12.0458 3.20058 11.8468 3.37856 11.663 3.57112C11.4779 3.76515 11.3099 3.97414 11.1587 4.19398C11.0067 4.41493 10.8716 4.64796 10.7538 4.88844C10.6358 5.13149 10.5358 5.38149 10.4525 5.63869C10.2864 6.15468 10.1914 6.69667 10.1777 7.23622C10.3117 17.1582 10.4188 27.0802 10.5002 37.0013C10.5251 37.6633 10.6751 38.3273 10.94 38.9409C11.209 39.5659 11.595 40.1389 12.071 40.6231C12.55 41.1111 13.118 41.5101 13.7408 41.796C14.3578 42.0809 15.0288 42.254 15.7026 42.3051C24.1317 42.6481 32.5667 42.8191 41.0034 42.819C49.4394 42.819 57.8744 42.648 66.3044 42.3047C66.9783 42.2537 67.6483 42.0807 68.2662 41.7968C68.8882 41.5098 69.4572 41.1109 69.9361 40.6232C70.4111 40.1383 70.7971 39.5662 71.0675 38.9408C71.3305 38.3278 71.4825 37.6638 71.5066 37.0007" stroke="#8B1EFF" stroke-width="0.283" stroke-miterlimit="10"/>
<path d="M11.7583 38.7131V6.44019C11.7583 5.26575 12.7093 4.31372 13.8843 4.31372H17.4273H64.6312H68.1743C69.3483 4.31372 70.3003 5.26575 70.3003 6.4397V38.7127C70.3003 39.8871 69.3483 40.8391 68.1743 40.8391L13.8843 40.8392C12.7093 40.8392 11.7583 39.8871 11.7583 38.7131Z" stroke="#00FFFF" stroke-width="0.28" stroke-miterlimit="10"/>
<path d="M66.1805 41.1327C49.4365 41.8178 32.5695 41.8178 15.8265 41.1327C15.5304 41.12 15.2384 41.083 14.9494 41.018C14.8044 40.986 14.6624 40.947 14.5224 40.902C14.3833 40.856 14.2453 40.805 14.1104 40.746C13.9754 40.688 13.8443 40.623 13.7154 40.552C13.6503 40.516 13.5864 40.478 13.5224 40.439C13.4603 40.4 13.3984 40.36 13.3384 40.318C13.0964 40.15 12.8724 39.961 12.6694 39.749C12.6184 39.696 12.5683 39.642 12.5194 39.586C12.4714 39.531 12.4244 39.473 12.3783 39.415C12.2874 39.3 12.2024 39.18 12.1243 39.057C11.9684 38.811 11.8374 38.552 11.7304 38.28C11.7044 38.211 11.6794 38.142 11.6564 38.073C11.6333 38.003 11.6113 37.933 11.5914 37.863C11.5524 37.723 11.5184 37.582 11.4924 37.44C11.4393 37.156 11.4133 36.869 11.4124 36.577C11.3963 31.7904 11.3783 27.0025 11.3583 22.2155C11.3382 17.4284 11.3153 12.6414 11.2903 7.85341C11.2815 7.69783 11.2755 7.54182 11.2765 7.38686C11.2775 7.23085 11.2865 7.07686 11.3035 6.92287C11.3105 6.84584 11.3215 6.76881 11.3335 6.69185C11.3455 6.61482 11.3595 6.53883 11.3755 6.46187C11.4075 6.31087 11.4475 6.16182 11.4955 6.01485C11.5425 5.86885 11.5975 5.72585 11.6625 5.58485C11.6935 5.51485 11.7275 5.44582 11.7635 5.37685C11.8005 5.30885 11.8385 5.24086 11.8785 5.17384C12.0375 4.90883 12.2245 4.66682 12.4395 4.44685C12.4935 4.39186 12.5495 4.33784 12.6065 4.28682C12.6355 4.25984 12.6645 4.23482 12.6935 4.20882C12.7235 4.18385 12.7535 4.15883 12.7835 4.13387C12.9045 4.03682 13.0305 3.94582 13.1605 3.86287C13.4205 3.69685 13.6985 3.55983 13.9925 3.44887C14.2865 3.33882 14.5875 3.25984 14.8925 3.20686C15.1985 3.15382 15.5105 3.12685 15.8255 3.12581C32.57 3.03383 49.437 3.03383 66.18 3.12581C66.4961 3.12691 66.8081 3.15388 67.1131 3.20686C67.4191 3.2599 67.7201 3.33888 68.0141 3.44887C68.3081 3.55989 68.5851 3.69691 68.8461 3.86287C68.9761 3.94588 69.1011 4.0359 69.2221 4.13387C69.2521 4.15889 69.2821 4.18391 69.3121 4.20888C69.3411 4.2339 69.3701 4.2599 69.4001 4.2859C69.4561 4.33791 69.5121 4.39186 69.5661 4.44691C69.7801 4.66591 69.9681 4.90889 70.1281 5.1739C70.1681 5.23988 70.2061 5.30788 70.2421 5.37691C70.2791 5.4449 70.3121 5.51491 70.3441 5.58492C70.4071 5.72487 70.4631 5.86891 70.5111 6.01491C70.5591 6.1609 70.5991 6.30989 70.6301 6.46187C70.6471 6.53792 70.6601 6.61488 70.6731 6.69087C70.6851 6.7679 70.6951 6.84486 70.7031 6.92189C70.7201 7.07588 70.7281 7.23091 70.7301 7.38588C70.7311 7.54091 70.7251 7.69691 70.7161 7.85286C70.691 12.64 70.668 17.428 70.648 22.215C70.627 27.002 70.61 31.79 70.594 36.5767C70.593 36.8687 70.566 37.1587 70.513 37.4458C70.486 37.5907 70.452 37.7327 70.412 37.8717C70.372 38.0117 70.326 38.1497 70.273 38.2847C70.22 38.4198 70.16 38.5527 70.094 38.6837C70.061 38.7497 70.026 38.8147 69.99 38.8787C69.952 38.9428 69.914 39.0058 69.875 39.0667C69.717 39.3137 69.536 39.5427 69.332 39.7547C69.282 39.8067 69.229 39.8587 69.175 39.9087C69.121 39.9597 69.066 40.0087 69.009 40.0567C68.896 40.1527 68.78 40.2417 68.659 40.3237C68.417 40.4898 68.161 40.6317 67.89 40.7487C67.823 40.7777 67.753 40.8057 67.684 40.8317C67.615 40.8577 67.545 40.8817 67.475 40.9038C67.335 40.9497 67.194 40.9877 67.051 41.0197C66.766 41.0827 66.475 41.1207 66.1805 41.1327Z" stroke="#FF00FF" stroke-width="0.283465" stroke-miterlimit="10" stroke-linecap="round" stroke-linejoin="round"/>
<path d="M66.9144 44.9191V50.01H66.2979V45.5654H66.2681L65.0252 46.3907V45.7643L66.2979 44.9191H66.9144ZM68.5153 50.0498C68.3926 50.0498 68.2874 50.0059 68.1996 49.918C68.1117 49.8302 68.0678 49.725 68.0678 49.6023C68.0678 49.4797 68.1117 49.3745 68.1996 49.2866C68.2874 49.1988 68.3926 49.1549 68.5153 49.1549C68.6379 49.1549 68.7431 49.1988 68.831 49.2866C68.9188 49.3745 68.9627 49.4797 68.9627 49.6023C68.9627 49.6835 68.942 49.7581 68.9006 49.8261C68.8608 49.894 68.8069 49.9487 68.739 49.9901C68.6727 50.0299 68.5981 50.0498 68.5153 50.0498ZM71.4939 50.0796C71.2022 50.0796 70.9395 50.0216 70.7059 49.9056C70.4722 49.7896 70.2849 49.6305 70.1441 49.4283C70.0032 49.2262 69.9262 48.9958 69.9129 48.7373H70.5095C70.5327 48.9676 70.6371 49.1582 70.8227 49.309C71.01 49.4582 71.2337 49.5327 71.4939 49.5327C71.7027 49.5327 71.8883 49.4838 72.0507 49.3861C72.2148 49.2883 72.3432 49.1541 72.436 48.9834C72.5305 48.811 72.5777 48.6163 72.5777 48.3992C72.5777 48.1771 72.5288 47.9791 72.431 47.8051C72.3349 47.6294 72.2023 47.4911 72.0333 47.39C71.8643 47.2889 71.6712 47.2375 71.4541 47.2359C71.2983 47.2342 71.1384 47.2582 70.9743 47.308C70.8103 47.356 70.6752 47.4182 70.5692 47.4944L69.9925 47.4248L70.3007 44.9191H72.9456V45.466H70.8177L70.6388 46.9674H70.6686C70.773 46.8845 70.9039 46.8158 71.0613 46.7611C71.2188 46.7064 71.3828 46.679 71.5535 46.679C71.8651 46.679 72.1427 46.7536 72.3863 46.9028C72.6315 47.0503 72.8238 47.2524 72.963 47.5093C73.1038 47.7662 73.1743 48.0595 73.1743 48.3893C73.1743 48.7141 73.1014 49.0041 72.9555 49.2593C72.8113 49.5129 72.6125 49.7134 72.3589 49.8609C72.1054 50.0067 71.817 50.0796 71.4939 50.0796ZM75.8223 50.0796C75.4477 50.0796 75.1287 49.9777 74.8652 49.7739C74.6017 49.5684 74.4004 49.2709 74.2612 48.8815C74.122 48.4904 74.0524 48.0181 74.0524 47.4646C74.0524 46.9144 74.122 46.4446 74.2612 46.0551C74.402 45.664 74.6042 45.3657 74.8677 45.1602C75.1329 44.9531 75.4511 44.8495 75.8223 44.8495C76.1935 44.8495 76.5108 44.9531 76.7743 45.1602C77.0395 45.3657 77.2417 45.664 77.3809 46.0551C77.5217 46.4446 77.5922 46.9144 77.5922 47.4646C77.5922 48.0181 77.5225 48.4904 77.3833 48.8815C77.2441 49.2709 77.0428 49.5684 76.7793 49.7739C76.5158 49.9777 76.1968 50.0796 75.8223 50.0796ZM75.8223 49.5327C76.1935 49.5327 76.4818 49.3538 76.6873 48.9958C76.8928 48.6379 76.9956 48.1274 76.9956 47.4646C76.9956 47.0237 76.9483 46.6484 76.8539 46.3385C76.7611 46.0286 76.6268 45.7924 76.4512 45.63C76.2772 45.4676 76.0675 45.3864 75.8223 45.3864C75.4544 45.3864 75.1668 45.5679 74.9597 45.9308C74.7525 46.2921 74.649 46.8033 74.649 47.4646C74.649 47.9054 74.6954 48.2799 74.7882 48.5881C74.881 48.8964 75.0144 49.1309 75.1884 49.2916C75.3641 49.4524 75.5753 49.5327 75.8223 49.5327Z" fill="#0000FF"/>
<path fill-rule="evenodd" clip-rule="evenodd" d="M17.2251 9.75598C16.833 9.75598 16.5151 10.0739 16.5151 10.466C16.5151 10.8581 16.833 11.176 17.2251 11.176H20.5002C20.6386 11.176 20.7681 11.2442 20.8465 11.3583L23.3031 14.9373C23.6462 15.4372 24.2137 15.736 24.8201 15.736H29.7751C30.1673 15.736 30.4851 15.4181 30.4851 15.026C30.4851 14.6339 30.1673 14.316 29.7751 14.316H24.8201C24.6817 14.316 24.5521 14.2478 24.4738 14.1337L22.0172 10.5547C21.674 10.0548 21.1066 9.75598 20.5002 9.75598H17.2251ZM25.4751 9.75598C25.083 9.75598 24.7651 10.0739 24.7651 10.466C24.7651 10.8581 25.083 11.176 25.4751 11.176H29.7751C30.1673 11.176 30.4851 10.8581 30.4851 10.466C30.4851 10.0739 30.1673 9.75598 29.7751 9.75598H25.4751Z" fill="black"/>
<path d="M20.2257 28.5869C18.17 28.5869 16.8809 29.9883 16.8809 32.2295C16.8809 34.4707 18.17 35.8672 20.2257 35.8672C22.2814 35.8672 23.5656 34.4707 23.5656 32.2295C23.5656 29.9883 22.2765 28.5869 20.2257 28.5869ZM20.2257 34.793C18.9659 34.793 18.17 33.7969 18.17 32.2295C18.17 30.6621 18.9659 29.6611 20.2257 29.6611C21.4855 29.6611 22.2814 30.6572 22.2814 32.2295C22.2814 33.8018 21.4806 34.793 20.2257 34.793Z" fill="black"/>
<path d="M34.8149 30.4715C34.4438 30.4715 34.2094 30.7205 34.2094 31.1112V35.2079C34.2094 35.6034 34.4438 35.8476 34.8149 35.8476C35.186 35.8476 35.4253 35.6035 35.4253 35.2079V31.1161C35.4253 30.7206 35.186 30.4716 34.8149 30.4716V30.4715ZM34.8149 29.8465C35.1958 29.8465 35.4936 29.5535 35.4936 29.1873C35.4936 28.8211 35.1957 28.5281 34.8149 28.5281C34.4341 28.5281 34.1411 28.8162 34.1411 29.1873C34.1411 29.5584 34.439 29.8465 34.8149 29.8465Z" fill="black"/>
<path d="M42.4209 35.2077V31.0856C42.4209 30.7095 42.6407 30.4702 43.0021 30.4702C43.2089 30.4702 43.3779 30.5507 43.4834 30.6917C43.509 30.7259 43.5308 30.7646 43.5485 30.8011C43.5829 30.8718 43.6674 30.9019 43.7381 30.8676C44.0043 30.7386 44.6236 30.4751 45.239 30.4751C46.3819 30.4751 47.0315 31.2077 47.0315 32.4043V35.2078C47.0315 35.6181 46.7824 35.8476 46.4259 35.8476C46.0694 35.8476 45.8154 35.618 45.8154 35.2078V32.6486C45.8154 31.916 45.4735 31.5057 44.78 31.5057C44.0865 31.5057 43.6371 32.0088 43.6371 32.7511V35.2078C43.6371 35.6181 43.3831 35.8476 43.0266 35.8476C42.6701 35.8476 42.4209 35.618 42.4209 35.2077Z" fill="black"/>
<path d="M38.9356 30.4667C37.4268 30.4667 36.4307 31.4921 36.4307 33.162C36.4307 34.8319 37.417 35.8525 38.9356 35.8525C40.4542 35.8525 41.4405 34.8417 41.4405 33.162C41.4405 31.4823 40.4444 30.4667 38.9356 30.4667ZM38.9356 34.8906C38.1641 34.8906 37.6661 34.2656 37.6661 33.1621C37.6661 32.0586 38.169 31.4336 38.9356 31.4336C39.7022 31.4336 40.2051 32.0635 40.2051 33.1621C40.2051 34.2607 39.707 34.8906 38.9356 34.8906Z" fill="black"/>
<path d="M27.1196 34.8362C26.3626 34.8362 25.8596 34.1769 25.8547 33.1611C25.8596 32.1551 26.3334 31.486 27.1196 31.486C27.9058 31.486 28.3942 32.1404 28.3942 33.1611C28.3942 34.1867 27.8766 34.8362 27.1196 34.8362ZM29.6395 33.161C29.6395 31.5054 28.8044 30.4848 27.4906 30.4848C27.0046 30.4848 26.2345 30.7288 25.9336 30.8308C25.8661 30.8537 25.7914 30.824 25.7597 30.76C25.7517 30.7437 25.7434 30.7275 25.733 30.7127C25.6137 30.5422 25.438 30.4702 25.2393 30.4702C24.8925 30.4702 24.6484 30.6948 24.6484 31.0953V36.951C24.6484 37.3613 24.8974 37.5908 25.254 37.5908C25.6106 37.5908 25.8645 37.3613 25.8645 36.951V35.5928C25.8645 35.4901 25.9704 35.4212 26.064 35.4634C26.4259 35.6263 27.0286 35.8325 27.5103 35.8325C28.8093 35.8325 29.6396 34.8118 29.6396 33.1611L29.6395 33.161Z" fill="black"/>
<path d="M30.9576 34.4705V31.6542C30.9576 31.5759 30.8941 31.5125 30.8159 31.5125H30.6305C30.3278 31.5125 30.1421 31.3416 30.1421 31.0486C30.1421 30.7556 30.3276 30.5896 30.6305 30.5896H30.8159C30.8942 30.5896 30.9576 30.5261 30.9576 30.4479V29.8849C30.9576 29.4942 31.192 29.25 31.5681 29.25C31.9442 29.25 32.1737 29.4941 32.1737 29.8849V30.4479C32.1737 30.5262 32.2372 30.5896 32.3154 30.5896H32.7353C33.038 30.5896 33.2237 30.7604 33.2237 31.0486C33.2237 31.3368 33.0382 31.5125 32.7353 31.5125H32.3154C32.2371 31.5125 32.1737 31.576 32.1737 31.6542V34.2068C32.1737 34.5975 32.3104 34.7684 32.6621 34.7977L32.75 34.8075C33.0723 34.8368 33.2384 34.9735 33.2384 35.2568C33.2384 35.6132 32.9259 35.8038 32.3692 35.8038H32.3204C31.417 35.8038 30.9579 35.3545 30.9579 34.4706H30.9577L30.9576 34.4705Z" fill="black"/>
</svg>
