<svg width="54" height="54" viewBox="0 0 54 54" fill="none" xmlns="http://www.w3.org/2000/svg">
<path d="M9.91309 37.0476C9.83508 27.0607 9.73608 17.0726 9.61914 7.0846L9.6192 7.08216C9.62323 6.91614 9.63623 6.75013 9.65631 6.58399C9.67633 6.41895 9.70233 6.25501 9.73553 6.09156C9.76752 5.92957 9.80652 5.76856 9.85266 5.60975C9.89966 5.45179 9.95166 5.29578 10.0115 5.14161C10.1985 4.66761 10.4535 4.21668 10.77 3.81434C11.083 3.41736 11.456 3.06837 11.8725 2.78394C12.2875 2.50196 12.7465 2.28394 13.2258 2.13697C13.7078 1.98987 14.2118 1.91395 14.7141 1.90662C18.8081 1.87171 22.9021 1.85462 26.9963 1.85499C31.0893 1.85499 35.1833 1.87195 39.2776 1.90723C39.4396 1.91016 39.6016 1.92115 39.7635 1.93775C40.0035 1.96375 40.2435 2.00477 40.4799 2.06153C40.7139 2.11854 40.9449 2.19044 41.1697 2.27955C41.4037 2.37256 41.6287 2.48353 41.8449 2.61072C42.062 2.73865 42.2689 2.8827 42.4627 3.04163C42.6577 3.20167 42.8417 3.37671 43.0105 3.56324C43.1795 3.7522 43.3355 3.95423 43.476 4.16578C43.757 4.59485 43.975 5.06483 44.125 5.55652C44.276 6.05445 44.358 6.57447 44.373 7.09266C44.252 17.0696 44.154 27.0466 44.08 37.0252C44.074 37.1851 44.0601 37.3451 44.039 37.5037C44.018 37.6647 43.991 37.8236 43.9569 37.9813C43.9239 38.1403 43.8839 38.2983 43.8358 38.4537C43.7888 38.6097 43.7349 38.7637 43.675 38.9157C43.484 39.3908 43.228 39.8407 42.9172 40.2495C42.6032 40.6605 42.2352 41.0286 41.8244 41.3395C41.4154 41.6495 40.9624 41.9036 40.4838 42.0906C40.0098 42.2755 39.5098 42.3955 39.0063 42.4435C31.0073 42.9535 22.9843 42.9535 14.9849 42.4436C14.6529 42.4116 14.3229 42.3477 14.0024 42.2535C13.6794 42.1596 13.3654 42.0346 13.0632 41.882C12.4602 41.575 11.9092 41.1569 11.4476 40.6577C10.9866 40.1607 10.6126 39.5817 10.349 38.9596C10.219 38.6516 10.115 38.3325 10.0411 38.0056C9.96912 37.6836 9.92407 37.3546 9.91113 37.0245" stroke="#16215B" stroke-width="0.283" stroke-miterlimit="10"/>
<rect x="12.6855" y="5.52832" width="28.63" height="34.31" rx="1.43" stroke="#00FFFF" stroke-width="0.28"/>
<path d="M42.9399 36.5841C42.9578 31.7322 42.9778 26.8792 43.0009 22.0272C43.0219 17.1742 43.0469 12.3221 43.0759 7.46912C43.0767 7.32446 43.0717 7.18042 43.0596 7.03748C43.0497 6.89441 43.0317 6.75146 43.0076 6.61047C42.9606 6.32837 42.8887 6.05444 42.7897 5.78943C42.7646 5.72339 42.7386 5.65747 42.7106 5.59241C42.6816 5.52637 42.6526 5.46143 42.6216 5.39844C42.5587 5.27039 42.4907 5.14746 42.4156 5.02844C42.2667 4.79041 42.0936 4.57043 41.8937 4.36646C41.6957 4.16345 41.4777 3.98645 41.2437 3.83337C41.1266 3.75745 41.0057 3.6864 40.8796 3.62244C40.8167 3.59045 40.7537 3.55945 40.6877 3.5304C40.6237 3.50037 40.5566 3.47339 40.4907 3.44739C40.2236 3.34338 39.9507 3.26843 39.6716 3.21741C39.3926 3.16638 39.1077 3.14038 38.8167 3.13745C37.8378 3.12988 36.8568 3.12183 35.8738 3.11584C34.8898 3.10889 33.9058 3.10388 32.9208 3.09888C30.9498 3.09082 28.9758 3.08691 26.9988 3.08691C26.5038 3.08691 26.0098 3.08691 25.5148 3.08691C25.0208 3.08789 24.5258 3.08887 24.0308 3.08984C23.0418 3.09192 22.0538 3.09485 21.0688 3.09888C19.0968 3.10791 17.1328 3.12085 15.1758 3.13782C15.0301 3.13892 14.8861 3.14685 14.7411 3.15991C14.5981 3.17383 14.4541 3.19287 14.3131 3.21887C14.0301 3.27087 13.7561 3.3479 13.4911 3.4519C13.4251 3.47791 13.3601 3.50488 13.2951 3.53491C13.2301 3.56384 13.1651 3.59583 13.1021 3.62793C12.9751 3.69385 12.8541 3.76489 12.7361 3.8429C12.5011 3.99683 12.2841 4.1759 12.0861 4.37988C12.0371 4.42993 11.9891 4.48291 11.9431 4.53589C11.8971 4.58887 11.8521 4.64282 11.8091 4.69885C11.7231 4.80884 11.6431 4.92383 11.5691 5.04187C11.4951 5.16089 11.4281 5.28394 11.3651 5.40991C11.3351 5.4729 11.3061 5.53687 11.2781 5.60291C11.2501 5.66785 11.2241 5.73486 11.1991 5.80188C11.1011 6.06787 11.0301 6.34082 10.9841 6.6189C10.9381 6.89685 10.9151 7.18091 10.9171 7.46985C10.9454 12.3224 10.9714 17.1744 10.9935 22.0275C11.0165 26.8794 11.0355 31.7324 11.0535 36.5845C11.0541 36.8712 11.0781 37.1552 11.1281 37.4392C11.1411 37.5101 11.1552 37.5812 11.1701 37.6511C11.1862 37.7212 11.2021 37.7911 11.2211 37.8601C11.2581 37.9991 11.3011 38.1351 11.3502 38.2701C11.3991 38.4052 11.4531 38.5382 11.5151 38.6682C11.5461 38.7332 11.5771 38.7982 11.6121 38.8622C11.6461 38.9261 11.6812 38.9901 11.7181 39.0532C11.8651 39.3032 12.0331 39.5361 12.2241 39.7532C12.3192 39.8612 12.4201 39.9652 12.5272 40.0652C12.5791 40.1151 12.6342 40.1632 12.6901 40.2102C12.7451 40.2572 12.8011 40.3021 12.8591 40.3462C13.0881 40.5211 13.3322 40.6721 13.5921 40.7982C13.6571 40.8302 13.7231 40.8601 13.7902 40.8882C13.8571 40.9171 13.9241 40.9431 13.9921 40.9681C14.1281 41.0182 14.2651 41.0612 14.4041 41.0972C14.6801 41.1692 14.9631 41.2131 15.2512 41.2312C16.2243 41.2916 17.1993 41.3446 18.1773 41.3896C19.1533 41.4357 20.1323 41.4727 21.1113 41.5027C23.0683 41.5636 25.0293 41.5936 26.9943 41.5936C27.4853 41.5936 27.9773 41.5917 28.4683 41.5876C28.9593 41.5846 29.4513 41.5786 29.9423 41.5707C30.9253 41.5557 31.9063 41.5336 32.8863 41.5027C34.8443 41.4426 36.7963 41.3527 38.7416 41.2316C38.8866 41.2227 39.0296 41.2067 39.1726 41.1846C39.2436 41.1726 39.3146 41.1597 39.3866 41.1447C39.4566 41.1296 39.5276 41.1136 39.5966 41.0946C39.8766 41.0226 40.1456 40.9226 40.4046 40.7957C40.4706 40.7646 40.5336 40.7316 40.5966 40.6967C40.6606 40.6616 40.7236 40.6246 40.7856 40.5856C40.9096 40.5096 41.0286 40.4266 41.1426 40.3386C41.3726 40.1636 41.5826 39.9667 41.7736 39.7487C41.8216 39.6936 41.8676 39.6376 41.9136 39.5807C41.9586 39.5237 42.0026 39.4656 42.0446 39.4066C42.1296 39.2897 42.2076 39.1686 42.2796 39.0447C42.4256 38.7966 42.5466 38.5376 42.6446 38.2656C42.6696 38.1976 42.6926 38.1287 42.7146 38.0596C42.7356 37.9906 42.7556 37.9216 42.7736 37.8527C42.8106 37.7136 42.8416 37.5746 42.8656 37.4346C42.9146 37.1537 42.9386 36.8706 42.9399 36.5841Z" stroke="#FF00FF" stroke-width="0.283465" stroke-miterlimit="10" stroke-linecap="round" stroke-linejoin="round"/>
<path d="M37.8765 22.5481H35.7873C35.6967 22.5481 35.6299 22.4643 35.6489 22.3757C35.7855 21.737 36.2571 21.4094 36.8515 21.4094C37.4459 21.4094 37.9 21.7242 38.0162 22.3825C38.0315 22.469 37.9644 22.5481 37.8765 22.5481ZM36.8467 20.4669C35.3525 20.4669 34.4004 21.5313 34.4004 23.1818C34.4004 24.8323 35.333 25.8527 36.9151 25.8527C37.7153 25.8527 38.3013 25.6749 38.801 25.1199C39.0247 24.8715 38.9648 24.5008 38.6687 24.3423C38.4193 24.2087 38.1356 24.3368 37.9963 24.4662C37.5536 24.8776 37.2288 24.9152 36.9054 24.9152C36.1592 24.9152 35.6692 24.4305 35.6162 23.607C35.6109 23.5249 35.6753 23.4552 35.7576 23.4552H38.7118C38.993 23.4552 39.2224 23.2304 39.2288 22.9493C39.2615 21.5064 38.2863 20.4669 36.8467 20.4669Z" fill="black"/>
<path d="M31.4141 25.8524C30.3203 25.8524 29.5537 25.4325 29.3047 24.8124C29.2705 24.7245 29.2559 24.6464 29.2559 24.5731C29.2559 24.2801 29.4707 24.0946 29.7637 24.0946C29.9639 24.0946 30.1348 24.1874 30.291 24.3925C30.5644 24.788 30.8769 24.9454 31.458 24.9454C32.0391 24.9454 32.4004 24.7245 32.4004 24.3339C32.4004 24.0214 32.2051 23.8505 31.6729 23.7284L30.833 23.538C29.8222 23.3085 29.3242 22.8105 29.3242 22.0585C29.3242 21.0966 30.1543 20.4667 31.4336 20.4667C32.4297 20.4667 33.2012 20.955 33.3623 21.5507C33.3769 21.6142 33.3867 21.6728 33.3867 21.7314C33.3867 21.9853 33.2256 22.166 32.9179 22.166C32.7421 22.166 32.5663 22.1025 32.454 21.9414C32.2147 21.585 31.9169 21.3738 31.4042 21.3738C30.8915 21.3738 30.5058 21.6191 30.5058 21.9902C30.5058 22.2929 30.7304 22.498 31.2675 22.6201L32.0927 22.8008C33.1865 23.0498 33.621 23.4453 33.621 24.2119C33.621 25.2031 32.7323 25.8525 31.4139 25.8525H31.4141V25.8524Z" fill="black"/>
<path d="M27.5859 20.4715C27.2148 20.4715 26.9804 20.7205 26.9804 21.1112V25.2079C26.9804 25.6034 27.2148 25.8476 27.5859 25.8476C27.957 25.8476 28.1963 25.6035 28.1963 25.2079V21.1161C28.1963 20.7206 27.957 20.4716 27.5859 20.4716V20.4715ZM27.5859 19.8465C27.9668 19.8465 28.2646 19.5535 28.2646 19.1873C28.2646 18.8211 27.9667 18.5281 27.5859 18.5281C27.2051 18.5281 26.9121 18.8162 26.9121 19.1873C26.9121 19.5584 27.21 19.8465 27.5859 19.8465Z" fill="black"/>
<path d="M24.5685 23.8313C24.5685 24.4562 24.012 24.9152 23.3284 24.9152C22.8012 24.9152 22.4447 24.6467 22.4447 24.222C22.4447 23.7973 22.7816 23.5483 23.3674 23.5092L24.5158 23.4392C24.5443 23.4375 24.5684 23.4601 24.5684 23.4887V23.8315L24.5685 23.8313ZM23.6506 20.4674C22.6595 20.4674 22.0879 20.8077 21.7956 21.1351C21.6263 21.3248 21.6046 21.7242 21.8368 21.9099C22.1082 22.1269 22.5628 21.9645 22.719 21.7725C22.8592 21.6001 23.174 21.425 23.6016 21.4194C24.202 21.4115 24.5683 21.7319 24.5683 22.2738V22.4764C24.5683 22.5027 24.5478 22.5244 24.5215 22.5259L23.1963 22.6014C21.9369 22.6795 21.229 23.3528 21.229 24.2706C21.229 25.1884 21.9589 25.8329 22.9573 25.8329C23.5891 25.8329 24.205 25.6679 24.5114 25.5426C24.5757 25.5163 24.6494 25.5411 24.6856 25.6004C24.6884 25.6049 24.6908 25.6087 24.6928 25.6116C24.7742 25.7275 24.9207 25.8475 25.1787 25.8475C25.5205 25.8475 25.7694 25.6278 25.7694 25.2373V22.1859C25.7694 21.146 24.9346 20.4674 23.6506 20.4674Z" fill="black"/>
<path d="M19.159 23.0212C19.1183 22.9498 19.1465 22.8585 19.2208 22.8233C19.9496 22.4774 20.3648 21.7604 20.3648 20.8964C20.3648 19.5487 19.4517 18.704 17.9283 18.704H15.7603C15.3697 18.704 15.1304 18.9481 15.1304 19.3583V25.1933C15.1304 25.6035 15.3697 25.8476 15.7603 25.8476C16.1509 25.8476 16.3902 25.6035 16.3902 25.1933V23.2403C16.3902 23.162 16.4537 23.0986 16.5319 23.0986H17.7173C17.7691 23.0986 17.8168 23.1269 17.8417 23.1723L19.0563 25.3935C19.2516 25.7402 19.3981 25.8476 19.696 25.8476C20.0573 25.8476 20.3308 25.6035 20.3308 25.2714C20.3308 25.1249 20.3015 25.0175 20.1941 24.8368L19.1592 23.0211L19.159 23.0212ZM17.8111 22.1318H16.5319C16.4536 22.1318 16.3902 22.0683 16.3902 21.9901V19.8663C16.3902 19.788 16.4537 19.7246 16.5319 19.7246H17.7867C18.5826 19.7246 19.0758 20.1836 19.0758 20.9258C19.0758 21.668 18.6119 22.1319 17.8111 22.1319V22.1318Z" fill="black"/>
</svg>
