<svg width="108" height="54" viewBox="0 0 108 54" fill="none" xmlns="http://www.w3.org/2000/svg">
<path d="M10.0468 38.2873C9.97168 28.3753 9.87476 18.4632 9.75488 8.55228C9.7699 8.00919 9.86792 7.46622 10.0386 6.94693C10.2085 6.43301 10.4506 5.94193 10.7612 5.5004C10.9161 5.27933 11.0881 5.07144 11.2767 4.87857C11.4626 4.68558 11.6656 4.50858 11.8804 4.34842C12.0953 4.18839 12.3234 4.04544 12.5598 3.91922C12.7958 3.79324 13.0417 3.68326 13.2942 3.5928C13.6122 3.48087 13.9413 3.39688 14.2739 3.33914C14.6089 3.28116 14.9479 3.24808 15.2865 3.24258C41.0985 3.13467 66.9105 3.13467 92.7227 3.24234C93.4247 3.2504 94.1348 3.3804 94.7959 3.62881C95.126 3.75284 95.444 3.90677 95.7438 4.09085C96.0448 4.27493 96.3268 4.4899 96.5842 4.7316C96.8412 4.97464 97.0732 5.24466 97.2748 5.53531C97.4778 5.8273 97.6488 6.14029 97.7908 6.46719C98.0737 7.1232 98.2338 7.84024 98.2538 8.55252C98.1317 18.4635 98.0337 28.3755 97.9614 38.2876C97.9374 38.9496 97.7854 39.6126 97.5188 40.2245C97.2467 40.8474 96.8567 41.4165 96.3781 41.8953C95.8942 42.3792 95.3212 42.7713 94.6964 43.0509C94.0743 43.33 93.4014 43.4959 92.7267 43.543C79.8228 43.9561 66.9137 44.163 54.005 44.163C41.094 44.163 28.1851 43.9569 15.2823 43.5428C14.6073 43.4958 13.9343 43.3297 13.3126 43.0509C12.6876 42.771 12.1136 42.378 11.6311 41.8952C11.1521 41.4151 10.7611 40.8461 10.4897 40.2226C10.2236 39.6116 10.0707 38.9477 10.0468 38.2856" stroke="#16215B" stroke-width="0.283" stroke-miterlimit="10"/>
<path d="M93.689 41.0039H14.3188C13.1448 41.004 12.1929 40.052 12.1929 38.8779V7.98096C12.1927 6.80652 13.1448 5.85449 14.3188 5.85449H17.8628H90.1458H93.689C94.8639 5.85449 95.8149 6.80652 95.8149 7.98047V38.8779C95.8149 40.052 94.8639 41.0039 93.689 41.0039Z" stroke="#00FFFF" stroke-width="0.28" stroke-miterlimit="10"/>
<path d="M97.3453 9.19925C97.3542 9.04129 97.3602 8.88431 97.3593 8.72733C97.3573 8.57034 97.3483 8.41434 97.3303 8.25833C97.3223 8.18033 97.3113 8.10233 97.2982 8.02432C97.2853 7.9473 97.2712 7.86929 97.2543 7.79227C97.2203 7.63834 97.1793 7.48831 97.1293 7.34134C97.0782 7.19327 97.0212 7.04837 96.9542 6.90726C96.9203 6.83633 96.8853 6.76627 96.8483 6.6973C96.8103 6.62833 96.7703 6.56033 96.7283 6.49332C96.5623 6.22733 96.3663 5.98526 96.1443 5.76627C96.0873 5.71133 96.0312 5.65836 95.9713 5.60635C95.9413 5.58035 95.9113 5.55533 95.8802 5.5303C95.8502 5.50528 95.8193 5.48026 95.7872 5.45535C95.6622 5.35831 95.5333 5.26932 95.4003 5.18729C95.1323 5.02335 94.8483 4.88834 94.5472 4.78128C94.2473 4.67337 93.9413 4.59634 93.6302 4.54532C93.3193 4.49332 93.0033 4.46829 92.6832 4.46732C66.9321 4.36343 41.0771 4.36343 15.3262 4.46732C15.0057 4.46841 14.6887 4.49332 14.3788 4.54532C14.0668 4.59634 13.7617 4.67337 13.4607 4.7814C13.1608 4.88834 12.8757 5.02432 12.6078 5.18741C12.4738 5.26932 12.3457 5.35941 12.2207 5.45633C12.1887 5.48038 12.1577 5.5054 12.1277 5.53043C12.0968 5.55533 12.0668 5.58133 12.0367 5.60733C11.9778 5.65836 11.9208 5.71243 11.8647 5.76639C11.6407 5.98538 11.4458 6.22733 11.2798 6.49442C11.2378 6.56033 11.1978 6.62943 11.1608 6.69742C11.1228 6.76736 11.0878 6.83743 11.0547 6.90738C10.9867 7.04935 10.9297 7.19339 10.8798 7.34134C10.8297 7.48843 10.7877 7.63943 10.7538 7.79337C10.7367 7.87039 10.7218 7.94742 10.7097 8.02542C10.6968 8.10342 10.6858 8.18033 10.6787 8.25943C10.6608 8.41434 10.6517 8.57132 10.6498 8.72842C10.6477 8.88443 10.6548 9.04239 10.6637 9.20035C10.6876 13.9803 10.7096 18.7603 10.7286 23.5403C10.7487 28.3203 10.7666 33.1003 10.7816 37.8803C10.7828 38.173 10.8098 38.4629 10.8638 38.7489C10.8907 38.891 10.9248 39.033 10.9658 39.174C10.9858 39.2439 11.0088 39.314 11.0328 39.3839C11.0558 39.454 11.0828 39.523 11.1097 39.591C11.2187 39.8639 11.3538 40.123 11.5148 40.368C11.5948 40.49 11.6818 40.6089 11.7758 40.724C11.8228 40.782 11.8718 40.8379 11.9218 40.894C11.9708 40.948 12.0218 41.002 12.0739 41.054C12.2828 41.263 12.5107 41.449 12.7598 41.612C12.8208 41.653 12.8848 41.693 12.9489 41.731C13.0118 41.769 13.0778 41.8059 13.1428 41.84C13.2748 41.9099 13.4088 41.972 13.5458 42.028C13.6818 42.084 13.8218 42.1339 13.9637 42.177C14.0338 42.199 14.1058 42.219 14.1779 42.237C14.2498 42.2549 14.3228 42.273 14.3958 42.288C14.6877 42.3479 14.9828 42.382 15.2808 42.391C41.0608 43.1752 66.9468 43.1752 92.7268 42.3911C93.0251 42.3822 93.3191 42.3482 93.6071 42.2882C93.7511 42.2592 93.8951 42.2232 94.0371 42.1802C94.1071 42.1582 94.1781 42.1352 94.2482 42.1103C94.3191 42.0852 94.3881 42.0583 94.4572 42.0302C94.7332 41.9171 94.9941 41.7812 95.2401 41.6192C95.3632 41.5382 95.4821 41.4512 95.5972 41.3572C95.6552 41.3102 95.7111 41.2622 95.7671 41.2122C95.8231 41.1623 95.8761 41.1112 95.9291 41.0592C96.1381 40.8503 96.3251 40.6232 96.4871 40.3782C96.5271 40.3162 96.5662 40.2542 96.6041 40.1902C96.6411 40.1272 96.6771 40.0612 96.7122 39.9962C96.7811 39.8653 96.8422 39.7322 96.8971 39.5962C97.0061 39.3252 97.0881 39.0442 97.1431 38.7552C97.1571 38.6833 97.1691 38.6103 97.1791 38.5373C97.1901 38.4652 97.1991 38.3922 97.2061 38.3192C97.2191 38.1732 97.2261 38.0273 97.2272 37.8799C97.2432 33.1 97.2592 28.32 97.2791 23.5399C97.2981 18.7599 97.3201 13.98 97.3453 9.19925Z" stroke="#FF00FF" stroke-width="0.283465" stroke-miterlimit="10" stroke-linecap="round" stroke-linejoin="round"/>
<path d="M96.6735 52.01V51.5626L98.3539 49.7231C98.5511 49.5076 98.7135 49.3204 98.8411 49.1613C98.9687 49.0005 99.0632 48.8497 99.1245 48.7089C99.1874 48.5664 99.2189 48.4172 99.2189 48.2614C99.2189 48.0825 99.1758 47.9275 99.0897 47.7966C99.0051 47.6657 98.8891 47.5646 98.7417 47.4933C98.5942 47.4221 98.4284 47.3864 98.2445 47.3864C98.0489 47.3864 97.8783 47.427 97.7324 47.5082C97.5882 47.5878 97.4764 47.6996 97.3968 47.8438C97.319 47.988 97.28 48.157 97.28 48.3509H96.6934C96.6934 48.0526 96.7621 47.7908 96.8997 47.5654C97.0372 47.34 97.2245 47.1644 97.4615 47.0384C97.7001 46.9125 97.9677 46.8495 98.2644 46.8495C98.5627 46.8495 98.827 46.9125 99.0574 47.0384C99.2877 47.1644 99.4683 47.3342 99.5993 47.548C99.7302 47.7618 99.7956 47.9996 99.7956 48.2614C99.7956 48.4487 99.7617 48.6318 99.6937 48.8108C99.6274 48.9881 99.5114 49.1861 99.3457 49.4049C99.1816 49.622 98.9538 49.8871 98.6621 50.2004L97.5186 51.4234V51.4631H99.8851V52.01H96.6735ZM101.349 52.0498C101.227 52.0498 101.121 52.0059 101.034 51.918C100.946 51.8302 100.902 51.725 100.902 51.6023C100.902 51.4797 100.946 51.3745 101.034 51.2866C101.121 51.1988 101.227 51.1549 101.349 51.1549C101.472 51.1549 101.577 51.1988 101.665 51.2866C101.753 51.3745 101.797 51.4797 101.797 51.6023C101.797 51.6835 101.776 51.7581 101.735 51.8261C101.695 51.894 101.641 51.9487 101.573 51.9901C101.507 52.0299 101.432 52.0498 101.349 52.0498ZM104.322 52.0796C103.948 52.0796 103.629 51.9777 103.365 51.7739C103.102 51.5684 102.9 51.2709 102.761 50.8815C102.622 50.4904 102.552 50.0181 102.552 49.4646C102.552 48.9144 102.622 48.4446 102.761 48.0551C102.902 47.664 103.104 47.3657 103.368 47.1602C103.633 46.9531 103.951 46.8495 104.322 46.8495C104.693 46.8495 105.011 46.9531 105.274 47.1602C105.539 47.3657 105.742 47.664 105.881 48.0551C106.022 48.4446 106.092 48.9144 106.092 49.4646C106.092 50.0181 106.023 50.4904 105.883 50.8815C105.744 51.2709 105.543 51.5684 105.279 51.7739C105.016 51.9777 104.697 52.0796 104.322 52.0796ZM104.322 51.5327C104.693 51.5327 104.982 51.3538 105.187 50.9958C105.393 50.6379 105.496 50.1274 105.496 49.4646C105.496 49.0237 105.448 48.6484 105.354 48.3385C105.261 48.0286 105.127 47.7924 104.951 47.63C104.777 47.4676 104.568 47.3864 104.322 47.3864C103.954 47.3864 103.667 47.5679 103.46 47.9308C103.253 48.2921 103.149 48.8033 103.149 49.4646C103.149 49.9054 103.195 50.2799 103.288 50.5881C103.381 50.8964 103.514 51.1309 103.688 51.2916C103.864 51.4524 104.075 51.5327 104.322 51.5327Z" fill="#0000FF"/>
<path d="M19.1006 25.8673C17.6943 25.8673 16.7568 25.2814 16.4834 24.4806C16.4395 24.3634 16.415 24.2365 16.415 24.1193C16.415 23.7677 16.6396 23.5431 16.9716 23.5431C17.2499 23.5431 17.4257 23.6554 17.5624 23.9386C17.7821 24.549 18.3876 24.8224 19.1396 24.8224C19.9892 24.8224 20.5849 24.4025 20.5849 23.8165C20.5849 23.3087 20.2333 22.9962 19.3154 22.8057L18.5586 22.6494C17.1475 22.3613 16.4883 21.6972 16.4883 20.667C16.4883 19.4268 17.5772 18.5869 19.1055 18.5869C20.3506 18.5869 21.3174 19.1435 21.6055 20.0762C21.6348 20.1543 21.6494 20.2471 21.6494 20.3643C21.6494 20.6719 21.4297 20.8819 21.1025 20.8819C20.8095 20.8819 20.6289 20.7549 20.497 20.4815C20.2577 19.8858 19.7548 19.6319 19.0956 19.6319C18.3143 19.6319 17.7577 20.003 17.7577 20.5938C17.7577 21.0723 18.1093 21.3799 18.9882 21.5655L19.745 21.7218C21.2294 22.0294 21.8544 22.6251 21.8544 23.6701C21.8544 25.0178 20.7948 25.8674 19.1005 25.8674L19.1006 25.8673Z" fill="black"/>
<path d="M23.5245 25.8477C23.1681 25.8477 22.9141 25.6182 22.9141 25.208V19.2314C22.9141 18.8457 23.1436 18.6064 23.5147 18.6064C23.8858 18.6064 24.1153 18.8457 24.1153 19.2314V20.7573C24.1153 20.8625 24.2258 20.9311 24.3199 20.8843C24.6248 20.7327 25.0792 20.4766 25.7754 20.4766C26.918 20.4766 27.5869 21.2286 27.5869 22.4151V25.2081C27.5869 25.6183 27.333 25.8478 26.9765 25.8478C26.62 25.8478 26.371 25.6183 26.371 25.2081V22.6641C26.371 21.9414 26.0097 21.5069 25.3065 21.5069C24.6033 21.5069 24.1297 22.0147 24.1297 22.7764V25.2081C24.1297 25.6183 23.8807 25.8478 23.5242 25.8478L23.5245 25.8477Z" fill="black"/>
<path d="M29.3979 20.4717C29.0268 20.4717 28.7924 20.7207 28.7924 21.1114V25.2081C28.7924 25.6036 29.0268 25.8478 29.3979 25.8478C29.769 25.8478 30.0083 25.6037 30.0083 25.2081V21.1163C30.0083 20.7208 29.769 20.4718 29.3979 20.4718V20.4717ZM29.3979 19.8467C29.7788 19.8467 30.0766 19.5537 30.0766 19.1875C30.0766 18.8213 29.7787 18.5283 29.3979 18.5283C29.0171 18.5283 28.7241 18.8164 28.7241 19.1875C28.7241 19.5586 29.022 19.8467 29.3979 19.8467Z" fill="black"/>
<g clip-path="url(#clip0_466_908550)">
<path d="M36.5252 24.8071L36.4373 24.7973C36.0857 24.768 35.949 24.5971 35.949 24.2065V21.6529C35.949 21.5746 36.0125 21.5112 36.0907 21.5112H36.5105C36.8132 21.5112 36.9988 21.3305 36.9988 21.0376C36.9988 20.7447 36.8133 20.5737 36.5105 20.5737H36.0907C36.0124 20.5737 35.949 20.5102 35.949 20.432V19.8852C35.949 19.4946 35.7146 19.2504 35.3435 19.2504C34.9724 19.2504 34.7331 19.4945 34.7331 19.8852V20.432C34.7331 20.5103 34.6696 20.5737 34.5914 20.5737H32.9903C32.9122 20.5737 32.8489 20.5106 32.8486 20.4325L32.8476 20.1836C32.8476 19.749 33.0283 19.5537 33.4726 19.5439C33.58 19.539 33.663 19.5293 33.7412 19.5097C33.9219 19.456 34.0098 19.3437 34.0098 19.1581C34.0098 18.8554 33.7217 18.6503 33.0772 18.6503C32.1446 18.6553 31.6514 19.1192 31.6514 20.1299V20.4319C31.6514 20.5102 31.5879 20.5736 31.5097 20.5736H31.3487C31.046 20.5736 30.8604 20.7494 30.8604 21.0375C30.8604 21.3256 31.0459 21.5111 31.3487 21.5111H31.5097C31.588 21.5111 31.6514 21.5746 31.6514 21.6528V25.2128C31.6514 25.623 31.8955 25.8476 32.2618 25.8476C32.6281 25.8476 32.8673 25.623 32.8673 25.2128L32.8535 21.6533C32.8532 21.5748 32.9167 21.511 32.9952 21.511H34.5915C34.6698 21.511 34.7332 21.5745 34.7332 21.6527V24.47C34.7332 25.3538 35.1922 25.803 36.0955 25.803H36.1443C36.7009 25.803 37.0135 25.6126 37.0135 25.2561C37.0135 24.9729 36.8475 24.8362 36.5252 24.8069V24.8071Z" fill="black"/>
</g>
<defs>
<clipPath id="clip0_466_908550">
<rect width="6.1531" height="7.1973" fill="white" transform="translate(30.8604 18.6504)"/>
</clipPath>
</defs>
</svg>
