<svg width="108" height="54" viewBox="0 0 108 54" fill="none" xmlns="http://www.w3.org/2000/svg">
<path d="M10.0468 38.2873C9.97168 28.3753 9.87476 18.4632 9.75488 8.55228C9.7699 8.00919 9.86792 7.46622 10.0386 6.94693C10.2085 6.43301 10.4506 5.94193 10.7612 5.5004C10.9161 5.27933 11.0881 5.07144 11.2767 4.87857C11.4626 4.68558 11.6656 4.50858 11.8804 4.34842C12.0953 4.18839 12.3234 4.04544 12.5598 3.91922C12.7958 3.79324 13.0417 3.68326 13.2942 3.5928C13.6122 3.48087 13.9413 3.39688 14.2739 3.33914C14.6089 3.28116 14.9479 3.24808 15.2865 3.24258C41.0985 3.13467 66.9105 3.13467 92.7227 3.24234C93.4247 3.2504 94.1348 3.3804 94.7959 3.62881C95.126 3.75284 95.444 3.90677 95.7438 4.09085C96.0448 4.27493 96.3268 4.4899 96.5842 4.7316C96.8412 4.97464 97.0732 5.24466 97.2748 5.53531C97.4778 5.8273 97.6488 6.14029 97.7908 6.46719C98.0737 7.1232 98.2338 7.84024 98.2538 8.55252C98.1317 18.4635 98.0337 28.3755 97.9614 38.2876C97.9374 38.9496 97.7854 39.6126 97.5188 40.2245C97.2467 40.8474 96.8567 41.4165 96.3781 41.8953C95.8942 42.3792 95.3212 42.7713 94.6964 43.0509C94.0743 43.33 93.4014 43.4959 92.7267 43.543C79.8228 43.9561 66.9137 44.163 54.005 44.163C41.094 44.163 28.1851 43.9569 15.2823 43.5428C14.6073 43.4958 13.9343 43.3297 13.3126 43.0509C12.6876 42.771 12.1136 42.378 11.6311 41.8952C11.1521 41.4151 10.7611 40.8461 10.4897 40.2226C10.2236 39.6116 10.0707 38.9477 10.0468 38.2856" stroke="#16215B" stroke-width="0.283" stroke-miterlimit="10"/>
<path d="M93.689 41.0038H14.3188C13.1448 41.004 12.1929 40.0519 12.1929 38.8779V7.9809C12.1927 6.80646 13.1448 5.85443 14.3188 5.85443H17.8628H90.1458H93.689C94.8639 5.85443 95.8149 6.80646 95.8149 7.98041V38.8779C95.8149 40.0519 94.8639 41.0038 93.689 41.0038Z" stroke="#00FFFF" stroke-width="0.28" stroke-miterlimit="10"/>
<path d="M97.3453 9.19919C97.3542 9.04123 97.3602 8.88425 97.3593 8.72726C97.3573 8.57028 97.3483 8.41428 97.3303 8.25827C97.3223 8.18027 97.3113 8.10226 97.2982 8.02426C97.2853 7.94724 97.2712 7.86923 97.2543 7.79221C97.2203 7.63828 97.1793 7.48825 97.1293 7.34128C97.0782 7.19321 97.0212 7.04831 96.9542 6.9072C96.9203 6.83627 96.8853 6.7662 96.8483 6.69724C96.8103 6.62827 96.7703 6.56027 96.7283 6.49326C96.5623 6.22726 96.3663 5.9852 96.1443 5.7662C96.0873 5.71127 96.0312 5.65829 95.9713 5.60629C95.9413 5.58029 95.9113 5.55527 95.8802 5.53024C95.8502 5.50522 95.8193 5.48019 95.7872 5.45529C95.6622 5.35825 95.5333 5.26926 95.4003 5.18723C95.1323 5.02328 94.8483 4.88828 94.5472 4.78122C94.2473 4.67331 93.9413 4.59628 93.6302 4.54526C93.3193 4.49326 93.0033 4.46823 92.6832 4.46725C66.9321 4.36337 41.0771 4.36337 15.3262 4.46725C15.0057 4.46835 14.6887 4.49326 14.3788 4.54526C14.0668 4.59628 13.7617 4.67331 13.4607 4.78134C13.1608 4.88828 12.8757 5.02426 12.6078 5.18735C12.4738 5.26926 12.3457 5.35934 12.2207 5.45627C12.1887 5.48032 12.1577 5.50534 12.1277 5.53036C12.0968 5.55527 12.0668 5.58127 12.0367 5.60727C11.9778 5.65829 11.9208 5.71237 11.8647 5.76633C11.6407 5.98532 11.4458 6.22726 11.2798 6.49435C11.2378 6.56027 11.1978 6.62936 11.1608 6.69736C11.1228 6.7673 11.0878 6.83737 11.0547 6.90732C10.9867 7.04929 10.9297 7.19333 10.8798 7.34128C10.8297 7.48837 10.7877 7.63937 10.7538 7.7933C10.7367 7.87033 10.7218 7.94736 10.7097 8.02536C10.6968 8.10336 10.6858 8.18027 10.6787 8.25937C10.6608 8.41428 10.6517 8.57126 10.6498 8.72836C10.6477 8.88437 10.6548 9.04233 10.6637 9.20029C10.6876 13.9802 10.7096 18.7602 10.7286 23.5403C10.7487 28.3203 10.7666 33.1002 10.7816 37.8802C10.7828 38.1729 10.8098 38.4629 10.8638 38.7489C10.8907 38.891 10.9248 39.0329 10.9658 39.1739C10.9858 39.2439 11.0088 39.3139 11.0328 39.3839C11.0558 39.4539 11.0828 39.5229 11.1097 39.5909C11.2187 39.8639 11.3538 40.1229 11.5148 40.3679C11.5948 40.49 11.6818 40.6089 11.7758 40.724C11.8228 40.782 11.8718 40.8379 11.9218 40.8939C11.9708 40.948 12.0218 41.0019 12.0739 41.0539C12.2828 41.2629 12.5107 41.4489 12.7598 41.6119C12.8208 41.6529 12.8848 41.693 12.9489 41.7309C13.0118 41.7689 13.0778 41.8059 13.1428 41.8399C13.2748 41.9099 13.4088 41.9719 13.5458 42.0279C13.6818 42.084 13.8218 42.1339 13.9637 42.177C14.0338 42.1989 14.1058 42.219 14.1779 42.2369C14.2498 42.2549 14.3228 42.2729 14.3958 42.2879C14.6877 42.3479 14.9828 42.3819 15.2808 42.391C41.0608 43.1751 66.9468 43.1751 92.7268 42.3911C93.0251 42.3822 93.3191 42.3481 93.6071 42.2882C93.7511 42.2591 93.8951 42.2231 94.0371 42.1801C94.1071 42.1582 94.1781 42.1351 94.2482 42.1102C94.3191 42.0852 94.3881 42.0582 94.4572 42.0301C94.7332 41.9171 94.9941 41.7811 95.2401 41.6191C95.3632 41.5382 95.4821 41.4511 95.5972 41.3571C95.6552 41.3102 95.7111 41.2622 95.7671 41.2121C95.8231 41.1622 95.8761 41.1112 95.9291 41.0592C96.1381 40.8502 96.3251 40.6231 96.4871 40.3781C96.5271 40.3161 96.5662 40.2541 96.6041 40.1902C96.6411 40.1272 96.6771 40.0611 96.7122 39.9962C96.7811 39.8652 96.8422 39.7321 96.8971 39.5962C97.0061 39.3252 97.0881 39.0442 97.1431 38.7551C97.1571 38.6832 97.1691 38.6102 97.1791 38.5372C97.1901 38.4652 97.1991 38.3922 97.2061 38.3192C97.2191 38.1732 97.2261 38.0272 97.2272 37.8799C97.2432 33.0999 97.2592 28.3199 97.2791 23.5399C97.2981 18.7599 97.3201 13.9799 97.3453 9.19919Z" stroke="#FF00FF" stroke-width="0.283465" stroke-miterlimit="10" stroke-linecap="round" stroke-linejoin="round"/>
<path d="M96.6735 52.01V51.5626L98.3539 49.7231C98.5511 49.5076 98.7135 49.3204 98.8411 49.1613C98.9687 49.0005 99.0632 48.8497 99.1245 48.7089C99.1874 48.5664 99.2189 48.4172 99.2189 48.2614C99.2189 48.0825 99.1758 47.9275 99.0897 47.7966C99.0051 47.6657 98.8891 47.5646 98.7417 47.4933C98.5942 47.4221 98.4284 47.3864 98.2445 47.3864C98.0489 47.3864 97.8783 47.427 97.7324 47.5082C97.5882 47.5878 97.4764 47.6996 97.3968 47.8438C97.319 47.988 97.28 48.157 97.28 48.3509H96.6934C96.6934 48.0526 96.7621 47.7908 96.8997 47.5654C97.0372 47.34 97.2245 47.1644 97.4615 47.0384C97.7001 46.9125 97.9677 46.8495 98.2644 46.8495C98.5627 46.8495 98.827 46.9125 99.0574 47.0384C99.2877 47.1644 99.4683 47.3342 99.5993 47.548C99.7302 47.7618 99.7956 47.9996 99.7956 48.2614C99.7956 48.4487 99.7617 48.6318 99.6937 48.8108C99.6274 48.9881 99.5114 49.1861 99.3457 49.4049C99.1816 49.622 98.9538 49.8871 98.6621 50.2004L97.5186 51.4234V51.4631H99.8851V52.01H96.6735ZM101.349 52.0498C101.227 52.0498 101.121 52.0059 101.034 51.918C100.946 51.8302 100.902 51.725 100.902 51.6023C100.902 51.4797 100.946 51.3745 101.034 51.2866C101.121 51.1988 101.227 51.1549 101.349 51.1549C101.472 51.1549 101.577 51.1988 101.665 51.2866C101.753 51.3745 101.797 51.4797 101.797 51.6023C101.797 51.6835 101.776 51.7581 101.735 51.8261C101.695 51.894 101.641 51.9487 101.573 51.9901C101.507 52.0299 101.432 52.0498 101.349 52.0498ZM104.322 52.0796C103.948 52.0796 103.629 51.9777 103.365 51.7739C103.102 51.5684 102.9 51.2709 102.761 50.8815C102.622 50.4904 102.552 50.0181 102.552 49.4646C102.552 48.9144 102.622 48.4446 102.761 48.0551C102.902 47.664 103.104 47.3657 103.368 47.1602C103.633 46.9531 103.951 46.8495 104.322 46.8495C104.693 46.8495 105.011 46.9531 105.274 47.1602C105.539 47.3657 105.742 47.664 105.881 48.0551C106.022 48.4446 106.092 48.9144 106.092 49.4646C106.092 50.0181 106.023 50.4904 105.883 50.8815C105.744 51.2709 105.543 51.5684 105.279 51.7739C105.016 51.9777 104.697 52.0796 104.322 52.0796ZM104.322 51.5327C104.693 51.5327 104.982 51.3538 105.187 50.9958C105.393 50.6379 105.496 50.1274 105.496 49.4646C105.496 49.0237 105.448 48.6484 105.354 48.3385C105.261 48.0286 105.127 47.7924 104.951 47.63C104.777 47.4676 104.568 47.3864 104.322 47.3864C103.954 47.3864 103.667 47.5679 103.46 47.9308C103.253 48.2921 103.149 48.8033 103.149 49.4646C103.149 49.9054 103.195 50.2799 103.288 50.5881C103.381 50.8964 103.514 51.1309 103.688 51.2916C103.864 51.4524 104.075 51.5327 104.322 51.5327Z" fill="#0000FF"/>
<path fill-rule="evenodd" clip-rule="evenodd" d="M22.2794 15.4148C22.6906 15.0036 23.3573 15.0036 23.7685 15.4148L29.1613 20.8076C29.1645 20.8108 29.1677 20.814 29.1708 20.8173C29.6233 21.2776 29.7577 21.9643 29.5102 22.5619C29.261 23.1633 28.6741 23.5558 28.0228 23.5558H26.7732C26.6959 23.5558 26.6332 23.6185 26.6332 23.6958V26.7851C26.6332 27.6742 25.9125 28.395 25.0233 28.395H21.0243C20.1352 28.395 19.4144 27.6742 19.4144 26.7851V23.6958C19.4144 23.6185 19.3518 23.5558 19.2744 23.5558H18.0248C17.3736 23.5558 16.7867 23.1635 16.5375 22.5621C16.2886 21.9605 16.4261 21.2681 16.8864 20.8077L22.2794 15.4148ZM28.15 21.8045L23.1229 16.7774C23.0683 16.7227 22.9796 16.7227 22.9249 16.7774L17.8907 21.8116C17.8364 21.8659 17.82 21.9477 17.8495 22.0188C17.8789 22.0899 17.9481 22.1358 18.0248 22.1358H19.9543C20.4401 22.1358 20.8344 22.5295 20.8344 23.0159V26.7851C20.8344 26.89 20.9195 26.975 21.0243 26.975H25.0233C25.1282 26.975 25.2132 26.89 25.2132 26.7851V23.0159C25.2132 22.5299 25.6073 22.1358 26.0933 22.1358H28.0228C28.0995 22.1358 28.1688 22.0896 28.1982 22.0187M28.15 21.8045C28.1523 21.8069 28.1546 21.8092 28.157 21.8116C28.2114 21.866 28.2276 21.9477 28.1982 22.0187" fill="black"/>
<path d="M37.1006 25.8673C35.6943 25.8673 34.7568 25.2814 34.4834 24.4806C34.4395 24.3634 34.415 24.2365 34.415 24.1193C34.415 23.7677 34.6396 23.5431 34.9716 23.5431C35.2499 23.5431 35.4257 23.6554 35.5624 23.9386C35.7821 24.549 36.3876 24.8224 37.1396 24.8224C37.9892 24.8224 38.5849 24.4025 38.5849 23.8165C38.5849 23.3087 38.2333 22.9962 37.3154 22.8057L36.5586 22.6494C35.1475 22.3613 34.4883 21.6972 34.4883 20.667C34.4883 19.4268 35.5772 18.5869 37.1055 18.5869C38.3506 18.5869 39.3174 19.1435 39.6055 20.0762C39.6348 20.1543 39.6494 20.2471 39.6494 20.3643C39.6494 20.6719 39.4297 20.8819 39.1025 20.8819C38.8095 20.8819 38.6289 20.7549 38.497 20.4815C38.2577 19.8858 37.7548 19.6319 37.0956 19.6319C36.3143 19.6319 35.7577 20.003 35.7577 20.5938C35.7577 21.0723 36.1093 21.3799 36.9882 21.5655L37.745 21.7218C39.2294 22.0294 39.8544 22.6251 39.8544 23.6701C39.8544 25.0178 38.7948 25.8674 37.1005 25.8674L37.1006 25.8673Z" fill="black"/>
<path d="M40.9131 25.2081V19.2307C40.9131 18.8449 41.1426 18.6056 41.5138 18.6056C41.885 18.6056 42.1145 18.8449 42.1145 19.2307V20.7064C42.1145 20.8096 42.2211 20.8782 42.315 20.8354C42.6103 20.7008 43.1908 20.476 43.7749 20.476C44.9176 20.476 45.5867 21.2281 45.5867 22.4148V25.2082C45.5867 25.6184 45.3328 25.8479 44.9763 25.8479C44.6198 25.8479 44.3707 25.6184 44.3707 25.2082V22.6639C44.3707 21.9411 44.0093 21.5065 43.3061 21.5065C42.6029 21.5065 42.1292 22.0144 42.1292 22.7762V25.2082C42.1292 25.6184 41.8801 25.8479 41.5236 25.8479C41.1671 25.8479 40.9131 25.6183 40.9131 25.2081Z" fill="black"/>
<path d="M47.3979 20.4717C47.0268 20.4717 46.7924 20.7207 46.7924 21.1114V25.2081C46.7924 25.6036 47.0268 25.8478 47.3979 25.8478C47.769 25.8478 48.0083 25.6037 48.0083 25.2081V21.1163C48.0083 20.7208 47.769 20.4718 47.3979 20.4718V20.4717ZM47.3979 19.8467C47.7788 19.8467 48.0766 19.5537 48.0766 19.1875C48.0766 18.8213 47.7787 18.5283 47.3979 18.5283C47.0171 18.5283 46.7241 18.8164 46.7241 19.1875C46.7241 19.5586 47.022 19.8467 47.3979 19.8467Z" fill="black"/>
<g clip-path="url(#clip0_466_903909)">
<path fill-rule="evenodd" clip-rule="evenodd" d="M50.2618 25.8477C49.8956 25.8477 49.6514 25.6231 49.6514 25.2129V21.6535C49.6514 21.5752 49.5879 21.5118 49.5097 21.5118H49.3292C49.0558 21.5118 48.8604 21.3458 48.8604 21.0479C48.8604 20.75 49.0557 20.5889 49.3292 20.5889H49.5097C49.588 20.5889 49.6514 20.5254 49.6514 20.4472V20.1299C49.6514 19.1192 50.1023 18.6505 51.213 18.6505C51.9889 18.6505 52.0097 18.9955 52.0097 19.1583C52.0097 19.3413 51.8989 19.5305 51.7166 19.5785C51.6311 19.601 51.5976 19.6036 51.4725 19.609C51.0285 19.6281 50.8475 19.7492 50.8475 20.1838V20.4473C50.8475 20.5238 50.9081 20.5861 50.9838 20.5889H52.3681C52.3806 20.5883 52.3932 20.588 52.4061 20.588H52.5915C52.6698 20.588 52.7332 20.5245 52.7332 20.4463V19.8833C52.7332 19.4926 52.9676 19.2484 53.3437 19.2484C53.7198 19.2484 53.9493 19.4925 53.9493 19.8833V20.4463C53.9493 20.5246 54.0128 20.588 54.091 20.588H54.5109C54.8136 20.588 54.9993 20.7588 54.9993 21.047C54.9993 21.3352 54.8138 21.5109 54.5109 21.5109H54.091C54.0127 21.5109 53.9493 21.5744 53.9493 21.6526V24.2052C53.9493 24.5959 54.086 24.7668 54.4377 24.7961L54.5256 24.8059C54.8479 24.8352 55.014 24.9719 55.014 25.2552C55.014 25.6116 54.7015 25.8022 54.1448 25.8022H54.096C53.1926 25.8022 52.7335 25.3529 52.7335 24.469H52.7333L52.7332 24.4689V21.6526C52.7332 21.5797 52.6782 21.5198 52.6076 21.5118H51.5131C51.5094 21.5118 51.5056 21.5119 51.5018 21.5119H51.0088C50.9305 21.5119 50.8671 21.5754 50.8671 21.6536V25.213C50.8671 25.6232 50.623 25.8478 50.2616 25.8478L50.2618 25.8477Z" fill="black"/>
</g>
<defs>
<clipPath id="clip0_466_903909">
<rect width="6.1531" height="7.1973" fill="white" transform="translate(48.8604 18.6504)"/>
</clipPath>
</defs>
</svg>
