<svg width="149" height="54" viewBox="0 0 149 54" fill="none" xmlns="http://www.w3.org/2000/svg">
<path d="M10.0602 37.034C10.0842 37.6949 10.2382 38.357 10.5085 38.9663C10.7835 39.5852 11.1795 40.1493 11.6628 40.622C12.1508 41.0991 12.7298 41.483 13.3574 41.7542C13.9834 42.0243 14.6584 42.1833 15.3351 42.2229C34.9751 42.6248 54.6181 42.8258 74.2626 42.8258C93.8966 42.8258 113.531 42.6247 133.161 42.2242C133.837 42.1832 134.512 42.0191 135.138 41.7498C135.452 41.6148 135.754 41.4519 136.037 41.2643C136.321 41.0763 136.588 40.8612 136.834 40.6219C137.317 40.151 137.716 39.584 137.987 38.9668C138.121 38.6617 138.226 38.3437 138.302 38.0183C138.378 37.6963 138.427 37.3673 138.437 37.0367C138.513 27.1067 138.615 17.1767 138.747 7.24765C138.727 6.53061 138.562 5.80759 138.272 5.14804C138.127 4.81808 137.95 4.50412 137.742 4.2114C137.535 3.9194 137.298 3.64938 137.033 3.40622C136.771 3.16428 136.484 2.95029 136.177 2.76633C135.871 2.58225 135.546 2.42929 135.211 2.30685C134.875 2.18491 134.529 2.09482 134.177 2.03329C133.824 1.97128 133.465 1.93723 133.108 1.9332C93.8681 1.82822 54.6281 1.82822 15.3896 1.93369C14.6777 1.93967 13.9587 2.0676 13.2867 2.31223C12.9507 2.43515 12.6267 2.58615 12.3203 2.76889C12.0143 2.95187 11.7253 3.16489 11.4623 3.40659C11.1984 3.64951 10.9623 3.9205 10.7551 4.21213C10.5491 4.5051 10.3741 4.81906 10.2285 5.14865C9.93744 5.80966 9.77045 6.53073 9.75 7.24777C9.87805 17.1768 9.98102 27.1058 10.0601 37.0357" stroke="#16215B" stroke-width="0.283" stroke-miterlimit="10"/>
<path d="M135.112 4.53378C136.286 4.53378 137.238 5.48581 137.238 6.65976V38.8346C137.238 40.0086 136.286 40.9605 135.112 40.9605H13.2227C12.0477 40.9607 11.0967 40.0086 11.0967 38.8348L11.0967 6.66183C11.0967 5.48776 12.0477 4.53574 13.2224 4.53574H131.568H135.112" stroke="#00FFFF" stroke-width="0.28" stroke-miterlimit="10"/>
<path d="M10.8613 36.5529C10.8453 31.7099 10.8283 26.865 10.8073 22.0219C10.7883 17.177 10.7653 12.333 10.7403 7.48886C10.7387 7.18698 10.7657 6.88693 10.8237 6.59091C10.8517 6.44296 10.8877 6.29697 10.9317 6.1539C10.9757 6.01096 11.0277 5.87094 11.0867 5.73398C11.1457 5.59702 11.2127 5.46298 11.2877 5.332C11.3267 5.26694 11.3657 5.202 11.4067 5.13901C11.4477 5.07602 11.4907 5.01498 11.5347 4.95493C11.7117 4.71494 11.9157 4.49594 12.1437 4.30002C12.2007 4.24997 12.2597 4.202 12.3207 4.15598C12.3797 4.10995 12.4417 4.06491 12.5037 4.02194C12.6277 3.936 12.7567 3.858 12.8887 3.785C13.0207 3.71298 13.1567 3.64694 13.2947 3.58798C13.3647 3.55795 13.4347 3.5289 13.5057 3.50302C13.5767 3.47592 13.6497 3.45102 13.7217 3.42697C14.0117 3.33395 14.3067 3.26596 14.6057 3.22092C14.9047 3.17599 15.2067 3.1539 15.5137 3.1539C54.6434 3.04294 93.8544 3.04294 132.983 3.1539C133.291 3.15488 133.595 3.17697 133.896 3.22189C134.046 3.24387 134.195 3.27292 134.345 3.30795C134.419 3.32492 134.493 3.34396 134.567 3.36386C134.64 3.38498 134.712 3.40695 134.784 3.4299C135.073 3.5239 135.351 3.64291 135.617 3.78891C135.684 3.8259 135.749 3.86386 135.814 3.90488C135.878 3.94394 135.942 3.98593 136.004 4.0289C136.127 4.11386 136.246 4.2059 136.36 4.30392C136.473 4.40292 136.581 4.50693 136.684 4.61691C136.735 4.67294 136.784 4.72995 136.833 4.78793C136.881 4.84592 136.927 4.90598 136.971 4.96591C137.149 5.20688 137.295 5.46591 137.413 5.73886C137.444 5.80795 137.471 5.8779 137.497 5.94797C137.523 6.01889 137.547 6.09091 137.569 6.16293C137.612 6.30588 137.649 6.4509 137.677 6.59689C137.733 6.88986 137.759 7.18698 137.758 7.48886C137.732 12.3333 137.71 17.1773 137.69 22.0213C137.67 26.8653 137.653 31.7093 137.637 36.5533C137.635 36.701 137.629 36.848 137.614 36.995C137.607 37.0691 137.598 37.1421 137.588 37.2151C137.577 37.2881 137.565 37.3611 137.55 37.433C137.494 37.724 137.41 38.005 137.299 38.2769C137.243 38.412 137.179 38.546 137.109 38.677C137.074 38.743 137.037 38.807 136.999 38.8711C136.96 38.9341 136.921 38.9961 136.879 39.057C136.713 39.302 136.523 39.5269 136.309 39.734C136.256 39.786 136.201 39.836 136.144 39.885C136.088 39.935 136.03 39.982 135.971 40.028C135.854 40.12 135.733 40.206 135.608 40.285C135.359 40.443 135.094 40.576 134.816 40.686C134.746 40.713 134.675 40.738 134.604 40.7621C134.533 40.786 134.462 40.8091 134.39 40.8289C134.247 40.87 134.102 40.905 133.957 40.933C133.666 40.989 133.37 41.02 133.071 41.0269C93.8828 41.8711 54.6158 41.8711 15.4274 41.0274C15.1274 41.0204 14.8304 40.9893 14.5364 40.9323C14.4623 40.9184 14.3884 40.9024 14.3164 40.8844C14.2434 40.8664 14.1714 40.8474 14.0984 40.8264C13.9554 40.7854 13.8143 40.7374 13.6763 40.6833C13.5383 40.6294 13.4023 40.5683 13.2694 40.5014C13.2034 40.4674 13.1364 40.4314 13.0724 40.3944C13.0074 40.3574 12.9424 40.3194 12.8804 40.2784C12.6284 40.1174 12.3954 39.9344 12.1824 39.7284C12.1293 39.6773 12.0773 39.6244 12.0273 39.5694C11.9764 39.5154 11.9263 39.4593 11.8793 39.4024C11.7834 39.2873 11.6943 39.1694 11.6114 39.0473C11.4474 38.8033 11.3084 38.5444 11.1974 38.2713C11.1694 38.2033 11.1423 38.1344 11.1184 38.0644C11.0934 37.9934 11.0704 37.9234 11.0494 37.8534C11.0074 37.7124 10.9724 37.5694 10.9454 37.4264C10.8893 37.1394 10.8624 36.8484 10.8613 36.5529Z" stroke="#FF00FF" stroke-width="0.283465" stroke-miterlimit="10" stroke-linecap="round" stroke-linejoin="round"/>
<path d="M133.784 52.01V51.5626L135.464 49.7231C135.661 49.5076 135.824 49.3204 135.951 49.1613C136.079 49.0005 136.174 48.8497 136.235 48.7089C136.298 48.5664 136.329 48.4172 136.329 48.2614C136.329 48.0825 136.286 47.9275 136.2 47.7966C136.116 47.6657 135.999 47.5646 135.852 47.4933C135.705 47.4221 135.539 47.3864 135.355 47.3864C135.159 47.3864 134.989 47.427 134.843 47.5082C134.699 47.5878 134.587 47.6996 134.507 47.8438C134.429 47.988 134.39 48.157 134.39 48.3509H133.804C133.804 48.0526 133.872 47.7908 134.01 47.5654C134.148 47.34 134.335 47.1644 134.572 47.0384C134.81 46.9125 135.078 46.8495 135.375 46.8495C135.673 46.8495 135.937 46.9125 136.168 47.0384C136.398 47.1644 136.579 47.3342 136.71 47.548C136.841 47.7618 136.906 47.9996 136.906 48.2614C136.906 48.4487 136.872 48.6318 136.804 48.8108C136.738 48.9881 136.622 49.1861 136.456 49.4049C136.292 49.622 136.064 49.8871 135.772 50.2004L134.629 51.4234V51.4631H136.995V52.01H133.784ZM138.46 52.0498C138.337 52.0498 138.232 52.0059 138.144 51.918C138.056 51.8302 138.012 51.725 138.012 51.6023C138.012 51.4797 138.056 51.3745 138.144 51.2866C138.232 51.1988 138.337 51.1549 138.46 51.1549C138.582 51.1549 138.687 51.1988 138.775 51.2866C138.863 51.3745 138.907 51.4797 138.907 51.6023C138.907 51.6835 138.886 51.7581 138.845 51.8261C138.805 51.894 138.751 51.9487 138.683 51.9901C138.617 52.0299 138.542 52.0498 138.46 52.0498ZM140.006 52.01L142.283 47.5057V47.466H139.658V46.9191H142.92V47.4958L140.653 52.01H140.006ZM145.369 52.0796C145.077 52.0796 144.815 52.0216 144.581 51.9056C144.347 51.7896 144.16 51.6305 144.019 51.4283C143.878 51.2262 143.801 50.9958 143.788 50.7373H144.384C144.408 50.9676 144.512 51.1582 144.698 51.309C144.885 51.4582 145.109 51.5327 145.369 51.5327C145.578 51.5327 145.763 51.4838 145.926 51.3861C146.09 51.2883 146.218 51.1541 146.311 50.9834C146.405 50.811 146.453 50.6163 146.453 50.3992C146.453 50.1771 146.404 49.9791 146.306 49.8051C146.21 49.6294 146.077 49.4911 145.908 49.39C145.739 49.2889 145.546 49.2375 145.329 49.2359C145.173 49.2342 145.013 49.2582 144.849 49.308C144.685 49.356 144.55 49.4182 144.444 49.4944L143.867 49.4248L144.176 46.9191H146.821V47.466H144.693L144.514 48.9674H144.544C144.648 48.8845 144.779 48.8158 144.936 48.7611C145.094 48.7064 145.258 48.679 145.429 48.679C145.74 48.679 146.018 48.7536 146.261 48.9028C146.507 49.0503 146.699 49.2524 146.838 49.5093C146.979 49.7662 147.049 50.0595 147.049 50.3893C147.049 50.7141 146.976 51.0041 146.831 51.2593C146.686 51.5129 146.487 51.7134 146.234 51.8609C145.98 52.0067 145.692 52.0796 145.369 52.0796Z" fill="#0000FF"/>
<path d="M19.1006 25.8673C17.6943 25.8673 16.7568 25.2814 16.4834 24.4806C16.4395 24.3634 16.415 24.2365 16.415 24.1193C16.415 23.7677 16.6396 23.5431 16.9716 23.5431C17.2499 23.5431 17.4257 23.6554 17.5624 23.9386C17.7821 24.549 18.3876 24.8224 19.1396 24.8224C19.9892 24.8224 20.5849 24.4025 20.5849 23.8165C20.5849 23.3087 20.2333 22.9962 19.3154 22.8057L18.5586 22.6494C17.1475 22.3613 16.4883 21.6972 16.4883 20.667C16.4883 19.4268 17.5772 18.5869 19.1055 18.5869C20.3506 18.5869 21.3174 19.1435 21.6055 20.0762C21.6348 20.1543 21.6494 20.2471 21.6494 20.3643C21.6494 20.6719 21.4297 20.8819 21.1025 20.8819C20.8095 20.8819 20.6289 20.7549 20.497 20.4815C20.2577 19.8858 19.7548 19.6319 19.0956 19.6319C18.3143 19.6319 17.7577 20.003 17.7577 20.5938C17.7577 21.0723 18.1093 21.3799 18.9882 21.5655L19.745 21.7218C21.2294 22.0294 21.8544 22.6251 21.8544 23.6701C21.8544 25.0178 20.7948 25.8674 19.1005 25.8674L19.1006 25.8673Z" fill="black"/>
<path d="M22.9131 25.2081V19.2307C22.9131 18.8449 23.1426 18.6056 23.5138 18.6056C23.885 18.6056 24.1145 18.8449 24.1145 19.2307V20.7064C24.1145 20.8096 24.2211 20.8782 24.315 20.8354C24.6103 20.7008 25.1908 20.476 25.7749 20.476C26.9176 20.476 27.5867 21.2281 27.5867 22.4148V25.2082C27.5867 25.6184 27.3328 25.8479 26.9763 25.8479C26.6198 25.8479 26.3707 25.6184 26.3707 25.2082V22.6639C26.3707 21.9411 26.0093 21.5065 25.3061 21.5065C24.6029 21.5065 24.1292 22.0144 24.1292 22.7762V25.2082C24.1292 25.6184 23.8801 25.8479 23.5236 25.8479C23.1671 25.8479 22.9131 25.6183 22.9131 25.2081Z" fill="black"/>
<path d="M29.3979 20.4717C29.0268 20.4717 28.7924 20.7207 28.7924 21.1114V25.2081C28.7924 25.6036 29.0268 25.8478 29.3979 25.8478C29.769 25.8478 30.0083 25.6037 30.0083 25.2081V21.1163C30.0083 20.7208 29.769 20.4718 29.3979 20.4718V20.4717ZM29.3979 19.8467C29.7788 19.8467 30.0766 19.5537 30.0766 19.1875C30.0766 18.8213 29.7787 18.5283 29.3979 18.5283C29.0171 18.5283 28.7241 18.8164 28.7241 19.1875C28.7241 19.5586 29.022 19.8467 29.3979 19.8467Z" fill="black"/>
<g clip-path="url(#clip0_466_908553)">
<path fill-rule="evenodd" clip-rule="evenodd" d="M32.2618 25.8477C31.8956 25.8477 31.6514 25.6231 31.6514 25.2129V21.6535C31.6514 21.5752 31.5879 21.5118 31.5097 21.5118H31.3292C31.0558 21.5118 30.8604 21.3458 30.8604 21.0479C30.8604 20.75 31.0557 20.5889 31.3292 20.5889H31.5097C31.588 20.5889 31.6514 20.5254 31.6514 20.4472V20.1299C31.6514 19.1192 32.1023 18.6505 33.213 18.6505C33.9889 18.6505 34.0097 18.9955 34.0097 19.1583C34.0097 19.3413 33.8989 19.5305 33.7166 19.5785C33.6311 19.601 33.5976 19.6036 33.4725 19.609C33.0285 19.6281 32.8475 19.7492 32.8475 20.1838V20.4473C32.8475 20.5238 32.9081 20.5861 32.9838 20.5889H34.3681C34.3806 20.5883 34.3932 20.588 34.4061 20.588H34.5915C34.6698 20.588 34.7332 20.5245 34.7332 20.4463V19.8833C34.7332 19.4926 34.9676 19.2484 35.3437 19.2484C35.7198 19.2484 35.9493 19.4925 35.9493 19.8833V20.4463C35.9493 20.5246 36.0128 20.588 36.091 20.588H36.5109C36.8136 20.588 36.9993 20.7588 36.9993 21.047C36.9993 21.3352 36.8138 21.5109 36.5109 21.5109H36.091C36.0127 21.5109 35.9493 21.5744 35.9493 21.6526V24.2052C35.9493 24.5959 36.086 24.7668 36.4377 24.7961L36.5256 24.8059C36.8479 24.8352 37.014 24.9719 37.014 25.2552C37.014 25.6116 36.7015 25.8022 36.1448 25.8022H36.096C35.1926 25.8022 34.7335 25.3529 34.7335 24.469H34.7333L34.7332 24.4689V21.6526C34.7332 21.5797 34.6782 21.5198 34.6076 21.5118H33.5131C33.5094 21.5118 33.5056 21.5119 33.5018 21.5119H33.0088C32.9305 21.5119 32.8671 21.5754 32.8671 21.6536V25.213C32.8671 25.6232 32.623 25.8478 32.2616 25.8478L32.2618 25.8477Z" fill="black"/>
</g>
<defs>
<clipPath id="clip0_466_908553">
<rect width="6.1531" height="7.1973" fill="white" transform="translate(30.8604 18.6504)"/>
</clipPath>
</defs>
</svg>
