<svg width="122" height="54" viewBox="0 0 122 54" fill="none" xmlns="http://www.w3.org/2000/svg">
<path d="M10.021 37.0324C10.046 37.6944 10.199 38.3564 10.4684 38.966C10.7414 39.587 11.1344 40.153 11.6169 40.6291C12.1029 41.1081 12.6789 41.4962 13.3045 41.7707C13.9295 42.0446 14.6035 42.2066 15.2799 42.2498C30.4379 42.6339 45.6009 42.8258 60.7639 42.8256C75.9179 42.8256 91.0719 42.6346 106.221 42.2502C106.897 42.2063 107.571 42.0393 108.193 41.767C108.507 41.629 108.808 41.465 109.091 41.2751C109.374 41.085 109.641 40.8691 109.884 40.6287C110.126 40.3907 110.346 40.1297 110.54 39.8499C110.73 39.5719 110.896 39.2769 111.032 38.9677C111.165 38.6617 111.27 38.3437 111.346 38.0173C111.421 37.6953 111.47 37.3663 111.478 37.0352C111.555 27.1043 111.658 17.1743 111.789 7.24458C111.769 6.52852 111.607 5.80855 111.318 5.14998C111.175 4.821 111 4.50703 110.794 4.2148C110.59 3.92378 110.356 3.65279 110.095 3.40974C109.576 2.92683 108.951 2.55183 108.286 2.30684C107.952 2.18294 107.608 2.09285 107.258 2.03133C106.908 1.96931 106.55 1.93428 106.195 1.93025C75.8989 1.8293 45.6019 1.8293 15.3061 1.93062C14.5981 1.93758 13.8831 2.0666 13.2161 2.31258C12.8821 2.43562 12.5611 2.58858 12.2575 2.77132C11.9525 2.9543 11.6665 3.16829 11.4063 3.41048C11.1453 3.6534 10.9113 3.92439 10.7068 4.21651C10.5018 4.50948 10.3278 4.82356 10.1849 5.15193C10.0409 5.48103 9.92789 5.82295 9.84918 6.17329C9.76918 6.52425 9.72218 6.88423 9.71167 7.24434C9.83867 17.1743 9.94267 27.1043 10.0217 37.0343" stroke="#16215B" stroke-width="0.283" stroke-miterlimit="10"/>
<path d="M13.3938 4.15683H101.73H108.108C109.282 4.15683 110.234 5.10886 110.234 6.28281V38.4819C110.234 39.6556 109.282 40.6075 108.108 40.6075H13.3936C12.2198 40.6076 11.2678 39.6556 11.2678 38.4815L11.2678 6.28293C11.2678 5.10886 12.2198 4.15683 13.3938 4.15683Z" stroke="#00FFFF" stroke-width="0.28" stroke-miterlimit="10"/>
<path d="M110.676 36.5607C110.675 36.7088 110.669 36.8548 110.655 37.0018C110.648 37.0748 110.639 37.1478 110.628 37.2208C110.618 37.2928 110.606 37.3658 110.591 37.4378C110.536 37.7279 110.454 38.0087 110.342 38.2808C110.288 38.4159 110.225 38.5498 110.156 38.6807C110.122 38.7458 110.085 38.8107 110.046 38.8748C110.009 38.9378 109.969 39.0008 109.928 39.0618C109.764 39.3057 109.577 39.5328 109.366 39.7408C109.313 39.7928 109.258 39.8438 109.203 39.8928C109.147 39.9428 109.089 39.9908 109.032 40.0368C108.916 40.1298 108.795 40.2168 108.671 40.2968C108.424 40.4567 108.162 40.5929 107.884 40.7028C107.815 40.7308 107.745 40.7578 107.674 40.7818C107.604 40.8057 107.533 40.8288 107.461 40.8498C107.319 40.8928 107.175 40.9278 107.031 40.9567C106.741 41.0149 106.447 41.0478 106.148 41.0557C75.9149 41.8608 45.5859 41.8608 15.354 41.0557C15.0546 41.0482 14.7586 41.0152 14.4656 40.9561C14.3916 40.9411 14.3196 40.9251 14.2467 40.9072C14.1746 40.8891 14.1016 40.8692 14.0306 40.8482C13.8886 40.8051 13.7486 40.7562 13.6116 40.7011C13.4736 40.6462 13.3397 40.5842 13.2076 40.5162C13.1406 40.4812 13.0756 40.4451 13.0117 40.4082C12.9466 40.3702 12.8827 40.3311 12.8206 40.2901C12.5706 40.1281 12.3406 39.9432 12.1307 39.7352C12.0776 39.6842 12.0266 39.6302 11.9756 39.5761C11.9266 39.5202 11.8776 39.4642 11.8296 39.4072C11.7346 39.2922 11.6466 39.1732 11.5657 39.0512C11.4036 38.8072 11.2666 38.5482 11.1566 38.2752C11.1286 38.2072 11.1027 38.1381 11.0787 38.0682C11.0536 37.9981 11.0316 37.9282 11.0117 37.8571C10.9706 37.7161 10.9356 37.5742 10.9087 37.4312C10.8536 37.1452 10.8256 36.8552 10.8247 36.5611C10.8094 31.7801 10.7924 27.0001 10.7714 22.2191C10.7524 17.439 10.7304 12.658 10.7055 7.87703C10.6968 7.71908 10.6898 7.56112 10.6917 7.40401C10.6937 7.24703 10.7028 7.09005 10.7197 6.93306C10.7288 6.85506 10.7398 6.77706 10.7528 6.69906C10.7647 6.62203 10.7808 6.54403 10.7978 6.46602C10.8317 6.31307 10.8737 6.16207 10.9248 6.01412C10.9748 5.86605 11.0337 5.72103 11.1007 5.57906C11.1347 5.50802 11.1717 5.43905 11.2098 5.3691C11.2477 5.30001 11.2888 5.23201 11.3307 5.16512C11.4987 4.89901 11.6968 4.65706 11.9228 4.43905C11.9777 4.38411 12.0368 4.33101 12.0957 4.28011C12.1567 4.22811 12.2178 4.17806 12.2808 4.12911C12.4078 4.03304 12.5377 3.94405 12.6728 3.86312C12.9427 3.70003 13.2288 3.56612 13.5308 3.45907C13.8327 3.35311 14.1397 3.27608 14.4528 3.22603C14.7647 3.17501 15.0827 3.15011 15.4038 3.14901C44.604 3.04683 73.893 3.04281 103.101 3.13875C103.992 3.14156 104.883 3.14461 105.774 3.14766C105.829 3.14766 105.885 3.14766 105.941 3.14864C105.996 3.14864 106.052 3.14864 106.108 3.14864C106.219 3.14962 106.33 3.15255 106.442 3.15963C106.553 3.16659 106.664 3.17562 106.775 3.18856C106.885 3.20064 106.994 3.21566 107.103 3.23458C107.32 3.27266 107.534 3.32259 107.746 3.38558C107.852 3.41756 107.956 3.45357 108.06 3.49166C108.111 3.51156 108.163 3.53158 108.214 3.55257C108.266 3.57467 108.317 3.59664 108.366 3.61959C108.567 3.71065 108.758 3.81466 108.942 3.93355C109.124 4.05159 109.298 4.18355 109.462 4.33065C109.503 4.36764 109.544 4.40462 109.583 4.44259C109.622 4.48165 109.661 4.52059 109.698 4.55965C109.774 4.63863 109.845 4.72066 109.913 4.80562C110.049 4.97457 110.17 5.15365 110.277 5.34359C110.304 5.39156 110.329 5.43966 110.355 5.48861C110.379 5.53756 110.403 5.58663 110.426 5.63656C110.472 5.73555 110.513 5.83663 110.55 5.93966C110.624 6.14364 110.683 6.35262 110.725 6.56661C110.735 6.62056 110.744 6.67367 110.753 6.7286C110.762 6.78255 110.77 6.83663 110.775 6.89156C110.789 7.00057 110.798 7.10958 110.804 7.21859C110.809 7.32857 110.811 7.43758 110.809 7.54659C110.807 7.65658 110.802 7.76656 110.796 7.87618C110.771 12.6572 110.748 17.4382 110.729 22.2192C110.709 26.9992 110.692 31.7802 110.676 36.5607Z" stroke="#FF00FF" stroke-width="0.283465" stroke-miterlimit="10" stroke-linecap="round" stroke-linejoin="round"/>
<path d="M106.374 52.01V51.5626L108.054 49.7231C108.252 49.5077 108.414 49.3204 108.542 49.1613C108.669 49.0006 108.764 48.8498 108.825 48.7089C108.888 48.5664 108.919 48.4172 108.919 48.2615C108.919 48.0825 108.876 47.9275 108.79 47.7966C108.706 47.6657 108.59 47.5646 108.442 47.4933C108.295 47.4221 108.129 47.3865 107.945 47.3865C107.749 47.3865 107.579 47.4271 107.433 47.5083C107.289 47.5878 107.177 47.6997 107.097 47.8438C107.019 47.988 106.98 48.1571 106.98 48.3509H106.394C106.394 48.0527 106.463 47.7908 106.6 47.5654C106.738 47.3401 106.925 47.1644 107.162 47.0384C107.401 46.9125 107.668 46.8495 107.965 46.8495C108.263 46.8495 108.527 46.9125 108.758 47.0384C108.988 47.1644 109.169 47.3343 109.3 47.548C109.431 47.7618 109.496 47.9996 109.496 48.2615C109.496 48.4487 109.462 48.6318 109.394 48.8108C109.328 48.9881 109.212 49.1862 109.046 49.4049C108.882 49.622 108.654 49.8872 108.363 50.2004L107.219 51.4234V51.4632H109.586V52.01H106.374ZM111.05 52.0498C110.927 52.0498 110.822 52.0059 110.734 51.9181C110.646 51.8302 110.602 51.725 110.602 51.6024C110.602 51.4797 110.646 51.3745 110.734 51.2867C110.822 51.1988 110.927 51.1549 111.05 51.1549C111.172 51.1549 111.278 51.1988 111.365 51.2867C111.453 51.3745 111.497 51.4797 111.497 51.6024C111.497 51.6836 111.476 51.7581 111.435 51.8261C111.395 51.894 111.341 51.9487 111.273 51.9902C111.207 52.0299 111.133 52.0498 111.05 52.0498ZM112.54 52.01V51.5626L114.22 49.7231C114.418 49.5077 114.58 49.3204 114.708 49.1613C114.835 49.0006 114.93 48.8498 114.991 48.7089C115.054 48.5664 115.085 48.4172 115.085 48.2615C115.085 48.0825 115.042 47.9275 114.956 47.7966C114.872 47.6657 114.756 47.5646 114.608 47.4933C114.461 47.4221 114.295 47.3865 114.111 47.3865C113.915 47.3865 113.745 47.4271 113.599 47.5083C113.455 47.5878 113.343 47.6997 113.263 47.8438C113.185 47.988 113.146 48.1571 113.146 48.3509H112.56C112.56 48.0527 112.629 47.7908 112.766 47.5654C112.904 47.3401 113.091 47.1644 113.328 47.0384C113.567 46.9125 113.834 46.8495 114.131 46.8495C114.429 46.8495 114.693 46.9125 114.924 47.0384C115.154 47.1644 115.335 47.3343 115.466 47.548C115.597 47.7618 115.662 47.9996 115.662 48.2615C115.662 48.4487 115.628 48.6318 115.56 48.8108C115.494 48.9881 115.378 49.1862 115.212 49.4049C115.048 49.622 114.82 49.8872 114.529 50.2004L113.385 51.4234V51.4632H115.752V52.01H112.54ZM118.369 52.0796C118.077 52.0796 117.815 52.0216 117.581 51.9056C117.347 51.7896 117.16 51.6305 117.019 51.4284C116.878 51.2262 116.801 50.9958 116.788 50.7373H117.385C117.408 50.9677 117.512 51.1582 117.698 51.309C117.885 51.4582 118.109 51.5328 118.369 51.5328C118.578 51.5328 118.764 51.4839 118.926 51.3861C119.09 51.2883 119.218 51.1541 119.311 50.9834C119.406 50.8111 119.453 50.6163 119.453 50.3992C119.453 50.1772 119.404 49.9791 119.306 49.8051C119.21 49.6295 119.078 49.4911 118.909 49.39C118.74 49.2889 118.546 49.2375 118.329 49.2359C118.174 49.2342 118.014 49.2583 117.85 49.308C117.686 49.356 117.55 49.4182 117.444 49.4944L116.868 49.4248L117.176 46.9191H119.821V47.466H117.693L117.514 48.9674H117.544C117.648 48.8846 117.779 48.8158 117.937 48.7611C118.094 48.7064 118.258 48.6791 118.429 48.6791C118.74 48.6791 119.018 48.7536 119.262 48.9028C119.507 49.0503 119.699 49.2525 119.838 49.5093C119.979 49.7662 120.05 50.0595 120.05 50.3893C120.05 50.7141 119.977 51.0041 119.831 51.2593C119.687 51.5129 119.488 51.7134 119.234 51.8609C118.981 52.0067 118.692 52.0796 118.369 52.0796Z" fill="#0000FF"/>
<path fill-rule="evenodd" clip-rule="evenodd" d="M22.2794 15.4148C22.6906 15.0036 23.3573 15.0036 23.7685 15.4148L29.1613 20.8076C29.1645 20.8108 29.1677 20.814 29.1708 20.8173C29.6233 21.2776 29.7577 21.9643 29.5102 22.5619C29.261 23.1633 28.6741 23.5558 28.0228 23.5558H26.7732C26.6959 23.5558 26.6332 23.6185 26.6332 23.6958V26.7851C26.6332 27.6742 25.9125 28.395 25.0233 28.395H21.0243C20.1352 28.395 19.4144 27.6742 19.4144 26.7851V23.6958C19.4144 23.6185 19.3518 23.5558 19.2744 23.5558H18.0248C17.3736 23.5558 16.7867 23.1635 16.5375 22.5621C16.2886 21.9605 16.4261 21.2681 16.8864 20.8077L22.2794 15.4148ZM28.15 21.8045L23.1229 16.7774C23.0683 16.7227 22.9796 16.7227 22.9249 16.7774L17.8907 21.8116C17.8364 21.8659 17.82 21.9477 17.8495 22.0188C17.8789 22.0899 17.9481 22.1358 18.0248 22.1358H19.9543C20.4401 22.1358 20.8344 22.5295 20.8344 23.0159V26.7851C20.8344 26.89 20.9195 26.975 21.0243 26.975H25.0233C25.1282 26.975 25.2132 26.89 25.2132 26.7851V23.0159C25.2132 22.5299 25.6073 22.1358 26.0933 22.1358H28.0228C28.0995 22.1358 28.1688 22.0896 28.1982 22.0187M28.15 21.8045C28.1523 21.8069 28.1546 21.8092 28.157 21.8116C28.2114 21.866 28.2276 21.9477 28.1982 22.0187" fill="black"/>
<path d="M37.1006 25.8673C35.6943 25.8673 34.7568 25.2814 34.4834 24.4806C34.4395 24.3634 34.415 24.2365 34.415 24.1193C34.415 23.7677 34.6396 23.5431 34.9716 23.5431C35.2499 23.5431 35.4257 23.6554 35.5624 23.9386C35.7821 24.549 36.3876 24.8224 37.1396 24.8224C37.9892 24.8224 38.5849 24.4025 38.5849 23.8165C38.5849 23.3087 38.2333 22.9962 37.3154 22.8057L36.5586 22.6494C35.1475 22.3613 34.4883 21.6972 34.4883 20.667C34.4883 19.4268 35.5772 18.5869 37.1055 18.5869C38.3506 18.5869 39.3174 19.1435 39.6055 20.0762C39.6348 20.1543 39.6494 20.2471 39.6494 20.3643C39.6494 20.6719 39.4297 20.8819 39.1025 20.8819C38.8095 20.8819 38.6289 20.7549 38.497 20.4815C38.2577 19.8858 37.7548 19.6319 37.0956 19.6319C36.3143 19.6319 35.7577 20.003 35.7577 20.5938C35.7577 21.0723 36.1093 21.3799 36.9882 21.5655L37.745 21.7218C39.2294 22.0294 39.8544 22.6251 39.8544 23.6701C39.8544 25.0178 38.7948 25.8674 37.1005 25.8674L37.1006 25.8673Z" fill="black"/>
<path d="M40.9131 25.2081V19.2307C40.9131 18.8449 41.1426 18.6056 41.5138 18.6056C41.885 18.6056 42.1145 18.8449 42.1145 19.2307V20.7064C42.1145 20.8096 42.2211 20.8782 42.315 20.8354C42.6103 20.7008 43.1908 20.476 43.7749 20.476C44.9176 20.476 45.5867 21.2281 45.5867 22.4148V25.2082C45.5867 25.6184 45.3328 25.8479 44.9763 25.8479C44.6198 25.8479 44.3707 25.6184 44.3707 25.2082V22.6639C44.3707 21.9411 44.0093 21.5065 43.3061 21.5065C42.6029 21.5065 42.1292 22.0144 42.1292 22.7762V25.2082C42.1292 25.6184 41.8801 25.8479 41.5236 25.8479C41.1671 25.8479 40.9131 25.6183 40.9131 25.2081Z" fill="black"/>
<path d="M47.3979 20.4717C47.0268 20.4717 46.7924 20.7207 46.7924 21.1114V25.2081C46.7924 25.6036 47.0268 25.8478 47.3979 25.8478C47.769 25.8478 48.0083 25.6037 48.0083 25.2081V21.1163C48.0083 20.7208 47.769 20.4718 47.3979 20.4718V20.4717ZM47.3979 19.8467C47.7788 19.8467 48.0766 19.5537 48.0766 19.1875C48.0766 18.8213 47.7787 18.5283 47.3979 18.5283C47.0171 18.5283 46.7241 18.8164 46.7241 19.1875C46.7241 19.5586 47.022 19.8467 47.3979 19.8467Z" fill="black"/>
<g clip-path="url(#clip0_466_903912)">
<path fill-rule="evenodd" clip-rule="evenodd" d="M50.2618 25.8477C49.8956 25.8477 49.6514 25.6231 49.6514 25.2129V21.6535C49.6514 21.5752 49.5879 21.5118 49.5097 21.5118H49.3292C49.0558 21.5118 48.8604 21.3458 48.8604 21.0479C48.8604 20.75 49.0557 20.5889 49.3292 20.5889H49.5097C49.588 20.5889 49.6514 20.5254 49.6514 20.4472V20.1299C49.6514 19.1192 50.1023 18.6505 51.213 18.6505C51.9889 18.6505 52.0097 18.9955 52.0097 19.1583C52.0097 19.3413 51.8989 19.5305 51.7166 19.5785C51.6311 19.601 51.5976 19.6036 51.4725 19.609C51.0285 19.6281 50.8475 19.7492 50.8475 20.1838V20.4473C50.8475 20.5238 50.9081 20.5861 50.9838 20.5889H52.3681C52.3806 20.5883 52.3932 20.588 52.4061 20.588H52.5915C52.6698 20.588 52.7332 20.5245 52.7332 20.4463V19.8833C52.7332 19.4926 52.9676 19.2484 53.3437 19.2484C53.7198 19.2484 53.9493 19.4925 53.9493 19.8833V20.4463C53.9493 20.5246 54.0128 20.588 54.091 20.588H54.5109C54.8136 20.588 54.9993 20.7588 54.9993 21.047C54.9993 21.3352 54.8138 21.5109 54.5109 21.5109H54.091C54.0127 21.5109 53.9493 21.5744 53.9493 21.6526V24.2052C53.9493 24.5959 54.086 24.7668 54.4377 24.7961L54.5256 24.8059C54.8479 24.8352 55.014 24.9719 55.014 25.2552C55.014 25.6116 54.7015 25.8022 54.1448 25.8022H54.096C53.1926 25.8022 52.7335 25.3529 52.7335 24.469H52.7333L52.7332 24.4689V21.6526C52.7332 21.5797 52.6782 21.5198 52.6076 21.5118H51.5131C51.5094 21.5118 51.5056 21.5119 51.5018 21.5119H51.0088C50.9305 21.5119 50.8671 21.5754 50.8671 21.6536V25.213C50.8671 25.6232 50.623 25.8478 50.2616 25.8478L50.2618 25.8477Z" fill="black"/>
</g>
<defs>
<clipPath id="clip0_466_903912">
<rect width="6.1531" height="7.1973" fill="white" transform="translate(48.8604 18.6504)"/>
</clipPath>
</defs>
</svg>
