<svg width="150" height="54" viewBox="0 0 150 54" fill="none" xmlns="http://www.w3.org/2000/svg">
<rect x="2.8501" y="1.84998" width="144.8" height="50.3" rx="3" stroke="#16215B" stroke-width="0.28"/>
<path d="M10.5602 37.034C10.5842 37.6949 10.7382 38.357 11.0085 38.9662C11.2835 39.5851 11.6795 40.1492 12.1628 40.622C12.6508 41.0991 13.2298 41.483 13.8574 41.7542C14.4834 42.0242 15.1584 42.1833 15.8351 42.2228C35.4751 42.6248 55.1181 42.8257 74.7626 42.8257C94.3966 42.8257 114.031 42.6247 133.661 42.2242C134.337 42.1832 135.012 42.0191 135.638 41.7498C135.952 41.6148 136.254 41.4518 136.537 41.2642C136.821 41.0762 137.088 40.8611 137.334 40.6219C137.817 40.1509 138.216 39.5839 138.487 38.9667C138.621 38.6617 138.726 38.3437 138.802 38.0182C138.878 37.6962 138.927 37.3672 138.937 37.0367C139.013 27.1066 139.115 17.1767 139.247 7.24762C139.227 6.53058 139.062 5.80756 138.772 5.14801C138.627 4.81805 138.45 4.50409 138.242 4.21136C138.035 3.91937 137.798 3.64935 137.533 3.40619C137.271 3.16425 136.984 2.95026 136.677 2.7663C136.371 2.58221 136.046 2.42926 135.711 2.30682C135.375 2.18488 135.029 2.09479 134.677 2.03326C134.324 1.97125 133.965 1.9372 133.608 1.93317C94.3681 1.82819 55.1281 1.82819 15.8896 1.93365C15.1777 1.93964 14.4587 2.06757 13.7867 2.31219C13.4507 2.43512 13.1267 2.58612 12.8203 2.76886C12.5143 2.95184 12.2253 3.16486 11.9623 3.40656C11.6984 3.64948 11.4623 3.92047 11.2551 4.2121C11.0491 4.50507 10.8741 4.81903 10.7285 5.14862C10.4374 5.80963 10.2704 6.5307 10.25 7.24774C10.3781 17.1768 10.481 27.1058 10.5601 37.0357" stroke="#16215B" stroke-width="0.283" stroke-miterlimit="10"/>
<path d="M135.612 4.53381C136.786 4.53381 137.738 5.48584 137.738 6.65979V38.8346C137.738 40.0087 136.786 40.9606 135.612 40.9606H13.7227C12.5477 40.9607 11.5967 40.0087 11.5967 38.8348L11.5967 6.66187C11.5967 5.48779 12.5477 4.53577 13.7224 4.53577H132.068H135.612" stroke="#00FFFF" stroke-width="0.28" stroke-miterlimit="10"/>
<path d="M11.3613 36.5529C11.3453 31.7099 11.3283 26.865 11.3073 22.0219C11.2883 17.177 11.2653 12.333 11.2403 7.48886C11.2387 7.18698 11.2657 6.88693 11.3237 6.59091C11.3517 6.44296 11.3877 6.29697 11.4317 6.1539C11.4757 6.01096 11.5277 5.87094 11.5867 5.73398C11.6457 5.59702 11.7127 5.46298 11.7877 5.332C11.8267 5.26694 11.8657 5.202 11.9067 5.13901C11.9477 5.07602 11.9907 5.01498 12.0347 4.95493C12.2117 4.71494 12.4157 4.49594 12.6437 4.30002C12.7007 4.24997 12.7597 4.202 12.8207 4.15598C12.8797 4.10995 12.9417 4.06491 13.0037 4.02194C13.1277 3.936 13.2567 3.858 13.3887 3.785C13.5207 3.71298 13.6567 3.64694 13.7947 3.58798C13.8647 3.55795 13.9347 3.5289 14.0057 3.50302C14.0767 3.47592 14.1497 3.45102 14.2217 3.42697C14.5117 3.33395 14.8067 3.26596 15.1057 3.22092C15.4047 3.17599 15.7067 3.1539 16.0137 3.1539C55.1434 3.04294 94.3544 3.04294 133.483 3.1539C133.791 3.15488 134.095 3.17697 134.396 3.22189C134.546 3.24387 134.695 3.27292 134.845 3.30795C134.919 3.32492 134.993 3.34396 135.067 3.36386C135.14 3.38498 135.212 3.40695 135.284 3.4299C135.573 3.5239 135.851 3.64291 136.117 3.78891C136.184 3.8259 136.249 3.86386 136.314 3.90488C136.378 3.94394 136.442 3.98593 136.504 4.0289C136.627 4.11386 136.746 4.2059 136.86 4.30392C136.973 4.40292 137.081 4.50693 137.184 4.61691C137.235 4.67294 137.284 4.72995 137.333 4.78793C137.381 4.84592 137.427 4.90598 137.471 4.96591C137.649 5.20688 137.795 5.46591 137.913 5.73886C137.944 5.80795 137.971 5.8779 137.997 5.94797C138.023 6.01889 138.047 6.09091 138.069 6.16293C138.112 6.30588 138.149 6.4509 138.177 6.59689C138.233 6.88986 138.259 7.18698 138.258 7.48886C138.232 12.3333 138.21 17.1773 138.19 22.0213C138.17 26.8653 138.153 31.7093 138.137 36.5533C138.135 36.701 138.129 36.848 138.114 36.995C138.107 37.0691 138.098 37.1421 138.088 37.2151C138.077 37.2881 138.065 37.3611 138.05 37.433C137.994 37.724 137.91 38.005 137.799 38.2769C137.743 38.412 137.679 38.546 137.609 38.677C137.574 38.743 137.537 38.807 137.499 38.8711C137.46 38.9341 137.421 38.9961 137.379 39.057C137.213 39.302 137.023 39.5269 136.809 39.734C136.756 39.786 136.701 39.836 136.644 39.885C136.588 39.935 136.53 39.982 136.471 40.028C136.354 40.12 136.233 40.206 136.108 40.285C135.859 40.443 135.594 40.576 135.316 40.686C135.246 40.713 135.175 40.738 135.104 40.7621C135.033 40.786 134.962 40.8091 134.89 40.8289C134.747 40.87 134.602 40.905 134.457 40.933C134.166 40.989 133.87 41.02 133.571 41.0269C94.3828 41.8711 55.1158 41.8711 15.9274 41.0274C15.6274 41.0204 15.3304 40.9893 15.0364 40.9323C14.9623 40.9184 14.8884 40.9024 14.8164 40.8844C14.7434 40.8664 14.6714 40.8474 14.5984 40.8264C14.4554 40.7854 14.3143 40.7374 14.1763 40.6833C14.0383 40.6294 13.9023 40.5683 13.7694 40.5014C13.7034 40.4674 13.6364 40.4314 13.5724 40.3944C13.5074 40.3574 13.4424 40.3194 13.3804 40.2784C13.1284 40.1174 12.8954 39.9344 12.6824 39.7284C12.6293 39.6773 12.5773 39.6244 12.5273 39.5694C12.4764 39.5154 12.4263 39.4593 12.3793 39.4024C12.2834 39.2873 12.1943 39.1694 12.1114 39.0473C11.9474 38.8033 11.8084 38.5444 11.6974 38.2713C11.6694 38.2033 11.6423 38.1344 11.6184 38.0644C11.5934 37.9934 11.5704 37.9234 11.5494 37.8534C11.5074 37.7124 11.4724 37.5694 11.4454 37.4264C11.3893 37.1394 11.3624 36.8484 11.3613 36.5529Z" stroke="#FF00FF" stroke-width="0.283465" stroke-miterlimit="10" stroke-linecap="round" stroke-linejoin="round"/>
<path d="M132.284 50.01V49.5626L133.964 47.7231C134.161 47.5076 134.324 47.3204 134.451 47.1613C134.579 47.0005 134.674 46.8497 134.735 46.7089C134.798 46.5664 134.829 46.4172 134.829 46.2614C134.829 46.0825 134.786 45.9275 134.7 45.7966C134.616 45.6657 134.499 45.5646 134.352 45.4933C134.205 45.4221 134.039 45.3864 133.855 45.3864C133.659 45.3864 133.489 45.427 133.343 45.5082C133.199 45.5878 133.087 45.6996 133.007 45.8438C132.929 45.988 132.89 46.157 132.89 46.3509H132.304C132.304 46.0526 132.372 45.7908 132.51 45.5654C132.648 45.34 132.835 45.1644 133.072 45.0384C133.31 44.9125 133.578 44.8495 133.875 44.8495C134.173 44.8495 134.437 44.9125 134.668 45.0384C134.898 45.1644 135.079 45.3342 135.21 45.548C135.341 45.7618 135.406 45.9996 135.406 46.2614C135.406 46.4487 135.372 46.6318 135.304 46.8108C135.238 46.9881 135.122 47.1861 134.956 47.4049C134.792 47.622 134.564 47.8871 134.272 48.2004L133.129 49.4234V49.4631H135.495V50.01H132.284ZM136.96 50.0498C136.837 50.0498 136.732 50.0059 136.644 49.918C136.556 49.8302 136.512 49.725 136.512 49.6023C136.512 49.4797 136.556 49.3745 136.644 49.2866C136.732 49.1988 136.837 49.1549 136.96 49.1549C137.082 49.1549 137.187 49.1988 137.275 49.2866C137.363 49.3745 137.407 49.4797 137.407 49.6023C137.407 49.6835 137.386 49.7581 137.345 49.8261C137.305 49.894 137.251 49.9487 137.183 49.9901C137.117 50.0299 137.042 50.0498 136.96 50.0498ZM138.506 50.01L140.783 45.5057V45.466H138.158V44.9191H141.42V45.4958L139.153 50.01H138.506ZM143.869 50.0796C143.577 50.0796 143.315 50.0216 143.081 49.9056C142.847 49.7896 142.66 49.6305 142.519 49.4283C142.378 49.2262 142.301 48.9958 142.288 48.7373H142.884C142.908 48.9676 143.012 49.1582 143.198 49.309C143.385 49.4582 143.609 49.5327 143.869 49.5327C144.078 49.5327 144.263 49.4838 144.426 49.3861C144.59 49.2883 144.718 49.1541 144.811 48.9834C144.905 48.811 144.953 48.6163 144.953 48.3992C144.953 48.1771 144.904 47.9791 144.806 47.8051C144.71 47.6294 144.577 47.4911 144.408 47.39C144.239 47.2889 144.046 47.2375 143.829 47.2359C143.673 47.2342 143.513 47.2582 143.349 47.308C143.185 47.356 143.05 47.4182 142.944 47.4944L142.367 47.4248L142.676 44.9191H145.321V45.466H143.193L143.014 46.9674H143.044C143.148 46.8845 143.279 46.8158 143.436 46.7611C143.594 46.7064 143.758 46.679 143.929 46.679C144.24 46.679 144.518 46.7536 144.761 46.9028C145.007 47.0503 145.199 47.2524 145.338 47.5093C145.479 47.7662 145.549 48.0595 145.549 48.3893C145.549 48.7141 145.476 49.0041 145.331 49.2593C145.186 49.5129 144.987 49.7134 144.734 49.8609C144.48 50.0067 144.192 50.0796 143.869 50.0796Z" fill="#0000FF"/>
<path fill-rule="evenodd" clip-rule="evenodd" d="M26.7794 16.4148C27.1906 16.0036 27.8573 16.0036 28.2685 16.4148L33.6613 21.8076C33.6645 21.8108 33.6677 21.814 33.6708 21.8173C34.1233 22.2776 34.2577 22.9643 34.0102 23.5619C33.761 24.1633 33.1741 24.5558 32.5228 24.5558H31.2732C31.1959 24.5558 31.1332 24.6185 31.1332 24.6958V27.7851C31.1332 28.6742 30.4125 29.395 29.5233 29.395H25.5243C24.6352 29.395 23.9144 28.6742 23.9144 27.7851V24.6958C23.9144 24.6185 23.8518 24.5558 23.7744 24.5558H22.5248C21.8736 24.5558 21.2867 24.1635 21.0375 23.5621C20.7886 22.9605 20.9261 22.2681 21.3864 21.8077L26.7794 16.4148ZM32.65 22.8045L27.6229 17.7774C27.5683 17.7227 27.4796 17.7227 27.4249 17.7774L22.3907 22.8116C22.3364 22.8659 22.32 22.9477 22.3495 23.0188C22.3789 23.0899 22.4481 23.1358 22.5248 23.1358H24.4543C24.9401 23.1358 25.3344 23.5295 25.3344 24.0159V27.7851C25.3344 27.89 25.4195 27.975 25.5243 27.975H29.5233C29.6282 27.975 29.7132 27.89 29.7132 27.7851V24.0159C29.7132 23.5299 30.1073 23.1358 30.5933 23.1358H32.5228C32.5995 23.1358 32.6688 23.0896 32.6982 23.0187M32.65 22.8045C32.6523 22.8069 32.6546 22.8092 32.657 22.8116C32.7114 22.866 32.7276 22.9477 32.6982 23.0187" fill="black"/>
</svg>
