<svg width="122" height="55" viewBox="0 0 122 55" fill="none" xmlns="http://www.w3.org/2000/svg">
<path d="M10.5212 37.0324C10.5462 37.6944 10.6992 38.3564 10.9686 38.966C11.2416 39.587 11.6346 40.153 12.1171 40.6291C12.6031 41.1081 13.1791 41.4962 13.8047 41.7707C14.4297 42.0446 15.1037 42.2066 15.7801 42.2498C30.9381 42.6339 46.1011 42.8258 61.2641 42.8256C76.4181 42.8256 91.5721 42.6346 106.721 42.2502C107.397 42.2063 108.071 42.0393 108.693 41.767C109.007 41.629 109.308 41.465 109.591 41.2751C109.874 41.085 110.141 40.8691 110.384 40.6287C110.626 40.3907 110.846 40.1297 111.04 39.8499C111.231 39.5719 111.397 39.2769 111.532 38.9677C111.665 38.6617 111.77 38.3437 111.846 38.0173C111.921 37.6953 111.97 37.3663 111.979 37.0352C112.056 27.1043 112.159 17.1743 112.289 7.24458C112.269 6.52852 112.107 5.80855 111.818 5.14998C111.675 4.821 111.5 4.50703 111.294 4.2148C111.09 3.92378 110.856 3.65279 110.596 3.40974C110.077 2.92683 109.452 2.55183 108.786 2.30684C108.452 2.18294 108.108 2.09285 107.758 2.03133C107.408 1.96931 107.05 1.93428 106.695 1.93025C76.3991 1.8293 46.1021 1.8293 15.8063 1.93062C15.0983 1.93758 14.3833 2.0666 13.7163 2.31258C13.3823 2.43562 13.0613 2.58858 12.7577 2.77132C12.4527 2.9543 12.1667 3.16829 11.9065 3.41048C11.6455 3.6534 11.4115 3.92439 11.207 4.21651C11.002 4.50948 10.828 4.82356 10.6851 5.15193C10.5411 5.48103 10.4281 5.82295 10.3494 6.17329C10.2694 6.52425 10.2224 6.88423 10.2119 7.24434C10.3389 17.1743 10.4429 27.1043 10.5219 37.0343" stroke="#16215B" stroke-width="0.283" stroke-miterlimit="10"/>
<path d="M13.8936 4.15683H102.23H108.607C109.781 4.15683 110.733 5.10886 110.733 6.28281V38.4819C110.733 39.6556 109.781 40.6075 108.607 40.6075H13.8934C12.7196 40.6076 11.7676 39.6556 11.7676 38.4815L11.7676 6.28293C11.7676 5.10886 12.7196 4.15683 13.8936 4.15683Z" stroke="#00FFFF" stroke-width="0.28" stroke-miterlimit="10"/>
<path d="M111.176 36.5607C111.175 36.7088 111.169 36.8548 111.155 37.0018C111.148 37.0748 111.139 37.1478 111.128 37.2208C111.118 37.2928 111.106 37.3658 111.091 37.4378C111.036 37.7279 110.954 38.0087 110.842 38.2808C110.788 38.4159 110.725 38.5498 110.656 38.6807C110.622 38.7458 110.585 38.8107 110.546 38.8748C110.509 38.9378 110.469 39.0008 110.428 39.0618C110.264 39.3057 110.077 39.5328 109.866 39.7408C109.813 39.7928 109.758 39.8438 109.703 39.8928C109.647 39.9428 109.589 39.9908 109.532 40.0368C109.416 40.1298 109.295 40.2168 109.171 40.2968C108.924 40.4567 108.662 40.5929 108.384 40.7028C108.315 40.7308 108.245 40.7578 108.174 40.7818C108.104 40.8057 108.033 40.8288 107.961 40.8498C107.819 40.8928 107.675 40.9278 107.531 40.9567C107.241 41.0149 106.947 41.0478 106.648 41.0557C76.4149 41.8608 46.0859 41.8608 15.854 41.0557C15.5546 41.0482 15.2586 41.0152 14.9656 40.9561C14.8916 40.9411 14.8196 40.9251 14.7467 40.9072C14.6746 40.8891 14.6016 40.8692 14.5306 40.8482C14.3886 40.8051 14.2486 40.7562 14.1116 40.7011C13.9736 40.6462 13.8397 40.5842 13.7076 40.5162C13.6406 40.4812 13.5756 40.4451 13.5117 40.4082C13.4466 40.3702 13.3827 40.3311 13.3206 40.2901C13.0706 40.1281 12.8406 39.9432 12.6307 39.7352C12.5776 39.6842 12.5266 39.6302 12.4756 39.5761C12.4266 39.5202 12.3776 39.4642 12.3296 39.4072C12.2346 39.2922 12.1466 39.1732 12.0657 39.0512C11.9036 38.8072 11.7666 38.5482 11.6566 38.2752C11.6286 38.2072 11.6027 38.1381 11.5787 38.0682C11.5536 37.9981 11.5316 37.9282 11.5117 37.8571C11.4706 37.7161 11.4356 37.5742 11.4087 37.4312C11.3536 37.1452 11.3256 36.8552 11.3247 36.5611C11.3094 31.7801 11.2924 27.0001 11.2714 22.2191C11.2524 17.439 11.2304 12.658 11.2055 7.87703C11.1968 7.71908 11.1898 7.56112 11.1917 7.40401C11.1937 7.24703 11.2028 7.09005 11.2197 6.93306C11.2288 6.85506 11.2398 6.77706 11.2528 6.69906C11.2647 6.62203 11.2808 6.54403 11.2978 6.46602C11.3317 6.31307 11.3737 6.16207 11.4248 6.01412C11.4748 5.86605 11.5337 5.72103 11.6007 5.57906C11.6347 5.50802 11.6717 5.43905 11.7098 5.3691C11.7477 5.30001 11.7888 5.23201 11.8307 5.16512C11.9987 4.89901 12.1968 4.65706 12.4228 4.43905C12.4777 4.38411 12.5368 4.33101 12.5957 4.28011C12.6567 4.22811 12.7178 4.17806 12.7808 4.12911C12.9078 4.03304 13.0377 3.94405 13.1728 3.86312C13.4427 3.70003 13.7288 3.56612 14.0308 3.45907C14.3327 3.35311 14.6397 3.27608 14.9528 3.22603C15.2647 3.17501 15.5827 3.15011 15.9038 3.14901C45.104 3.04683 74.393 3.04281 103.601 3.13875C104.492 3.14156 105.383 3.14461 106.274 3.14766C106.329 3.14766 106.385 3.14766 106.441 3.14864C106.496 3.14864 106.552 3.14864 106.608 3.14864C106.719 3.14962 106.83 3.15255 106.942 3.15963C107.053 3.16659 107.164 3.17562 107.275 3.18856C107.385 3.20064 107.494 3.21566 107.603 3.23458C107.82 3.27266 108.034 3.32259 108.246 3.38558C108.352 3.41756 108.456 3.45357 108.56 3.49166C108.611 3.51156 108.663 3.53158 108.714 3.55257C108.766 3.57467 108.817 3.59664 108.866 3.61959C109.067 3.71065 109.258 3.81466 109.442 3.93355C109.624 4.05159 109.798 4.18355 109.962 4.33065C110.003 4.36764 110.044 4.40462 110.083 4.44259C110.122 4.48165 110.161 4.52059 110.198 4.55965C110.274 4.63863 110.345 4.72066 110.413 4.80562C110.549 4.97457 110.67 5.15365 110.777 5.34359C110.804 5.39156 110.829 5.43966 110.855 5.48861C110.879 5.53756 110.903 5.58663 110.926 5.63656C110.972 5.73555 111.013 5.83663 111.05 5.93966C111.124 6.14364 111.183 6.35262 111.225 6.56661C111.235 6.62056 111.244 6.67367 111.253 6.7286C111.262 6.78255 111.27 6.83663 111.275 6.89156C111.289 7.00057 111.298 7.10958 111.304 7.21859C111.309 7.32857 111.311 7.43758 111.309 7.54659C111.307 7.65658 111.302 7.76656 111.296 7.87618C111.271 12.6572 111.248 17.4382 111.229 22.2192C111.209 26.9992 111.192 31.7802 111.176 36.5607Z" stroke="#FF00FF" stroke-width="0.283465" stroke-miterlimit="10" stroke-linecap="round" stroke-linejoin="round"/>
<path d="M98.8742 52.01V51.5626L100.555 49.7231C100.752 49.5077 100.914 49.3204 101.042 49.1613C101.169 49.0006 101.264 48.8498 101.325 48.7089C101.388 48.5664 101.42 48.4172 101.42 48.2615C101.42 48.0825 101.377 47.9275 101.29 47.7966C101.206 47.6657 101.09 47.5646 100.942 47.4933C100.795 47.4221 100.629 47.3865 100.445 47.3865C100.25 47.3865 100.079 47.4271 99.9331 47.5083C99.7889 47.5878 99.6771 47.6997 99.5975 47.8438C99.5196 47.988 99.4807 48.1571 99.4807 48.3509H98.894C98.894 48.0527 98.9628 47.7908 99.1004 47.5654C99.2379 47.3401 99.4252 47.1644 99.6622 47.0384C99.9008 46.9125 100.168 46.8495 100.465 46.8495C100.763 46.8495 101.028 46.9125 101.258 47.0384C101.488 47.1644 101.669 47.3343 101.8 47.548C101.931 47.7618 101.996 47.9996 101.996 48.2615C101.996 48.4487 101.962 48.6318 101.894 48.8108C101.828 48.9881 101.712 49.1862 101.546 49.4049C101.382 49.622 101.154 49.8872 100.863 50.2004L99.7193 51.4234V51.4632H102.086V52.01H98.8742ZM103.55 52.0498C103.427 52.0498 103.322 52.0059 103.234 51.9181C103.146 51.8302 103.102 51.725 103.102 51.6024C103.102 51.4797 103.146 51.3745 103.234 51.2867C103.322 51.1988 103.427 51.1549 103.55 51.1549C103.673 51.1549 103.778 51.1988 103.866 51.2867C103.953 51.3745 103.997 51.4797 103.997 51.6024C103.997 51.6836 103.977 51.7581 103.935 51.8261C103.895 51.894 103.842 51.9487 103.774 51.9902C103.707 52.0299 103.633 52.0498 103.55 52.0498ZM105.04 52.01V51.5626L106.721 49.7231C106.918 49.5077 107.08 49.3204 107.208 49.1613C107.335 49.0006 107.43 48.8498 107.491 48.7089C107.554 48.5664 107.586 48.4172 107.586 48.2615C107.586 48.0825 107.543 47.9275 107.456 47.7966C107.372 47.6657 107.256 47.5646 107.108 47.4933C106.961 47.4221 106.795 47.3865 106.611 47.3865C106.416 47.3865 106.245 47.4271 106.099 47.5083C105.955 47.5878 105.843 47.6997 105.764 47.8438C105.686 47.988 105.647 48.1571 105.647 48.3509H105.06C105.06 48.0527 105.129 47.7908 105.266 47.5654C105.404 47.3401 105.591 47.1644 105.828 47.0384C106.067 46.9125 106.334 46.8495 106.631 46.8495C106.929 46.8495 107.194 46.9125 107.424 47.0384C107.654 47.1644 107.835 47.3343 107.966 47.548C108.097 47.7618 108.162 47.9996 108.162 48.2615C108.162 48.4487 108.128 48.6318 108.06 48.8108C107.994 48.9881 107.878 49.1862 107.712 49.4049C107.548 49.622 107.32 49.8872 107.029 50.2004L105.885 51.4234V51.4632H108.252V52.01H105.04ZM110.869 52.0796C110.578 52.0796 110.315 52.0216 110.081 51.9056C109.848 51.7896 109.66 51.6305 109.52 51.4284C109.379 51.2262 109.302 50.9958 109.288 50.7373H109.885C109.908 50.9677 110.013 51.1582 110.198 51.309C110.385 51.4582 110.609 51.5328 110.869 51.5328C111.078 51.5328 111.264 51.4839 111.426 51.3861C111.59 51.2883 111.719 51.1541 111.811 50.9834C111.906 50.8111 111.953 50.6163 111.953 50.3992C111.953 50.1772 111.904 49.9791 111.807 49.8051C111.71 49.6295 111.578 49.4911 111.409 49.39C111.24 49.2889 111.047 49.2375 110.83 49.2359C110.674 49.2342 110.514 49.2583 110.35 49.308C110.186 49.356 110.051 49.4182 109.945 49.4944L109.368 49.4248L109.676 46.9191H112.321V47.466H110.193L110.014 48.9674H110.044C110.148 48.8846 110.279 48.8158 110.437 48.7611C110.594 48.7064 110.758 48.6791 110.929 48.6791C111.241 48.6791 111.518 48.7536 111.762 48.9028C112.007 49.0503 112.199 49.2525 112.338 49.5093C112.479 49.7662 112.55 50.0595 112.55 50.3893C112.55 50.7141 112.477 51.0041 112.331 51.2593C112.187 51.5129 111.988 51.7134 111.734 51.8609C111.481 52.0067 111.193 52.0796 110.869 52.0796Z" fill="#0000FF"/>
<path fill-rule="evenodd" clip-rule="evenodd" d="M22.7794 15.4148C23.1906 15.0036 23.8573 15.0036 24.2685 15.4148L29.6613 20.8076C29.6645 20.8108 29.6677 20.814 29.6708 20.8173C30.1233 21.2776 30.2577 21.9643 30.0102 22.5619C29.761 23.1633 29.1741 23.5558 28.5228 23.5558H27.2732C27.1959 23.5558 27.1332 23.6185 27.1332 23.6958V26.7851C27.1332 27.6742 26.4125 28.395 25.5233 28.395H21.5243C20.6352 28.395 19.9144 27.6742 19.9144 26.7851V23.6958C19.9144 23.6185 19.8518 23.5558 19.7744 23.5558H18.5248C17.8736 23.5558 17.2867 23.1635 17.0375 22.5621C16.7886 21.9605 16.9261 21.2681 17.3864 20.8077L22.7794 15.4148ZM28.65 21.8045L23.6229 16.7774C23.5683 16.7227 23.4796 16.7227 23.4249 16.7774L18.3907 21.8116C18.3364 21.8659 18.32 21.9477 18.3495 22.0188C18.3789 22.0899 18.4481 22.1358 18.5248 22.1358H20.4543C20.9401 22.1358 21.3344 22.5295 21.3344 23.0159V26.7851C21.3344 26.89 21.4195 26.975 21.5243 26.975H25.5233C25.6282 26.975 25.7132 26.89 25.7132 26.7851V23.0159C25.7132 22.5299 26.1073 22.1358 26.5933 22.1358H28.5228C28.5995 22.1358 28.6688 22.0896 28.6982 22.0187M28.65 21.8045C28.6523 21.8069 28.6546 21.8092 28.657 21.8116C28.7114 21.866 28.7276 21.9477 28.6982 22.0187" fill="black"/>
<path d="M37.6006 25.8673C36.1943 25.8673 35.2568 25.2814 34.9834 24.4806C34.9395 24.3634 34.915 24.2365 34.915 24.1193C34.915 23.7677 35.1396 23.5431 35.4716 23.5431C35.7499 23.5431 35.9257 23.6554 36.0624 23.9386C36.2821 24.549 36.8876 24.8224 37.6396 24.8224C38.4892 24.8224 39.0849 24.4025 39.0849 23.8165C39.0849 23.3087 38.7333 22.9962 37.8154 22.8057L37.0586 22.6494C35.6475 22.3613 34.9883 21.6972 34.9883 20.667C34.9883 19.4268 36.0772 18.5869 37.6055 18.5869C38.8506 18.5869 39.8174 19.1435 40.1055 20.0762C40.1348 20.1543 40.1494 20.2471 40.1494 20.3643C40.1494 20.6719 39.9297 20.8819 39.6025 20.8819C39.3095 20.8819 39.1289 20.7549 38.997 20.4815C38.7577 19.8858 38.2548 19.6319 37.5956 19.6319C36.8143 19.6319 36.2577 20.003 36.2577 20.5938C36.2577 21.0723 36.6093 21.3799 37.4882 21.5655L38.245 21.7218C39.7294 22.0294 40.3544 22.6251 40.3544 23.6701C40.3544 25.0178 39.2948 25.8674 37.6005 25.8674L37.6006 25.8673Z" fill="black"/>
<path d="M42.0245 25.8477C41.6681 25.8477 41.4141 25.6182 41.4141 25.208V19.2314C41.4141 18.8457 41.6436 18.6064 42.0147 18.6064C42.3858 18.6064 42.6153 18.8457 42.6153 19.2314V20.7573C42.6153 20.8625 42.7258 20.9311 42.8199 20.8843C43.1248 20.7327 43.5792 20.4766 44.2754 20.4766C45.418 20.4766 46.0869 21.2286 46.0869 22.4151V25.2081C46.0869 25.6183 45.833 25.8478 45.4765 25.8478C45.12 25.8478 44.871 25.6183 44.871 25.2081V22.6641C44.871 21.9414 44.5097 21.5069 43.8065 21.5069C43.1033 21.5069 42.6297 22.0147 42.6297 22.7764V25.2081C42.6297 25.6183 42.3807 25.8478 42.0242 25.8478L42.0245 25.8477Z" fill="black"/>
<path d="M47.8979 20.4717C47.5268 20.4717 47.2924 20.7207 47.2924 21.1114V25.2081C47.2924 25.6036 47.5268 25.8478 47.8979 25.8478C48.269 25.8478 48.5083 25.6037 48.5083 25.2081V21.1163C48.5083 20.7208 48.269 20.4718 47.8979 20.4718V20.4717ZM47.8979 19.8467C48.2788 19.8467 48.5766 19.5537 48.5766 19.1875C48.5766 18.8213 48.2787 18.5283 47.8979 18.5283C47.5171 18.5283 47.2241 18.8164 47.2241 19.1875C47.2241 19.5586 47.522 19.8467 47.8979 19.8467Z" fill="black"/>
<g clip-path="url(#clip0_283_1367669)">
<path d="M55.0252 24.8071L54.9373 24.7973C54.5857 24.768 54.449 24.5971 54.449 24.2065V21.6529C54.449 21.5746 54.5125 21.5112 54.5907 21.5112H55.0105C55.3132 21.5112 55.4988 21.3305 55.4988 21.0376C55.4988 20.7447 55.3133 20.5737 55.0105 20.5737H54.5907C54.5124 20.5737 54.449 20.5102 54.449 20.432V19.8852C54.449 19.4946 54.2146 19.2504 53.8435 19.2504C53.4724 19.2504 53.2331 19.4945 53.2331 19.8852V20.432C53.2331 20.5103 53.1696 20.5737 53.0914 20.5737H51.4903C51.4122 20.5737 51.3489 20.5106 51.3486 20.4325L51.3476 20.1836C51.3476 19.749 51.5283 19.5537 51.9726 19.5439C52.08 19.539 52.163 19.5293 52.2412 19.5097C52.4219 19.456 52.5098 19.3437 52.5098 19.1581C52.5098 18.8554 52.2217 18.6503 51.5772 18.6503C50.6446 18.6553 50.1514 19.1192 50.1514 20.1299V20.4319C50.1514 20.5102 50.0879 20.5736 50.0097 20.5736H49.8487C49.546 20.5736 49.3604 20.7494 49.3604 21.0375C49.3604 21.3256 49.5459 21.5111 49.8487 21.5111H50.0097C50.088 21.5111 50.1514 21.5746 50.1514 21.6528V25.2128C50.1514 25.623 50.3955 25.8476 50.7618 25.8476C51.1281 25.8476 51.3673 25.623 51.3673 25.2128L51.3535 21.6533C51.3532 21.5748 51.4167 21.511 51.4952 21.511H53.0915C53.1698 21.511 53.2332 21.5745 53.2332 21.6527V24.47C53.2332 25.3538 53.6922 25.803 54.5955 25.803H54.6443C55.2009 25.803 55.5135 25.6126 55.5135 25.2561C55.5135 24.9729 55.3475 24.8362 55.0252 24.8069V24.8071Z" fill="black"/>
</g>
<defs>
<clipPath id="clip0_283_1367669">
<rect width="6.1531" height="7.1973" fill="white" transform="translate(49.3604 18.6504)"/>
</clipPath>
</defs>
</svg>
