<svg width="149" height="55" viewBox="0 0 149 55" fill="none" xmlns="http://www.w3.org/2000/svg">
<path d="M10.5602 37.034C10.5842 37.6949 10.7382 38.357 11.0085 38.9663C11.2835 39.5852 11.6795 40.1493 12.1628 40.622C12.6508 41.0991 13.2298 41.483 13.8574 41.7542C14.4834 42.0243 15.1584 42.1833 15.8351 42.2229C35.4751 42.6248 55.1181 42.8258 74.7626 42.8258C94.3966 42.8258 114.031 42.6247 133.661 42.2242C134.337 42.1832 135.012 42.0191 135.638 41.7498C135.952 41.6148 136.254 41.4519 136.537 41.2643C136.821 41.0763 137.088 40.8612 137.334 40.6219C137.817 40.151 138.216 39.584 138.487 38.9668C138.621 38.6617 138.726 38.3437 138.802 38.0183C138.878 37.6963 138.927 37.3673 138.937 37.0367C139.013 27.1067 139.115 17.1767 139.247 7.24765C139.227 6.53061 139.062 5.80759 138.772 5.14804C138.627 4.81808 138.45 4.50412 138.242 4.2114C138.035 3.9194 137.798 3.64938 137.533 3.40622C137.271 3.16428 136.984 2.95029 136.677 2.76633C136.371 2.58225 136.046 2.42929 135.711 2.30685C135.375 2.18491 135.029 2.09482 134.677 2.03329C134.324 1.97128 133.965 1.93723 133.608 1.9332C94.3681 1.82822 55.1281 1.82822 15.8896 1.93369C15.1777 1.93967 14.4587 2.0676 13.7867 2.31223C13.4507 2.43515 13.1267 2.58615 12.8203 2.76889C12.5143 2.95187 12.2253 3.16489 11.9623 3.40659C11.6984 3.64951 11.4623 3.9205 11.2551 4.21213C11.0491 4.5051 10.8741 4.81906 10.7285 5.14865C10.4374 5.80966 10.2704 6.53073 10.25 7.24777C10.3781 17.1768 10.481 27.1058 10.5601 37.0357" stroke="#16215B" stroke-width="0.283" stroke-miterlimit="10"/>
<path d="M135.612 4.53378C136.786 4.53378 137.738 5.48581 137.738 6.65976V38.8346C137.738 40.0086 136.786 40.9605 135.612 40.9605H13.7227C12.5477 40.9607 11.5967 40.0086 11.5967 38.8348L11.5967 6.66183C11.5967 5.48776 12.5477 4.53574 13.7224 4.53574H132.068H135.612" stroke="#00FFFF" stroke-width="0.28" stroke-miterlimit="10"/>
<path d="M11.3613 36.5529C11.3453 31.7099 11.3283 26.865 11.3073 22.0219C11.2883 17.177 11.2653 12.333 11.2403 7.48886C11.2387 7.18698 11.2657 6.88693 11.3237 6.59091C11.3517 6.44296 11.3877 6.29697 11.4317 6.1539C11.4757 6.01096 11.5277 5.87094 11.5867 5.73398C11.6457 5.59702 11.7127 5.46298 11.7877 5.332C11.8267 5.26694 11.8657 5.202 11.9067 5.13901C11.9477 5.07602 11.9907 5.01498 12.0347 4.95493C12.2117 4.71494 12.4157 4.49594 12.6437 4.30002C12.7007 4.24997 12.7597 4.202 12.8207 4.15598C12.8797 4.10995 12.9417 4.06491 13.0037 4.02194C13.1277 3.936 13.2567 3.858 13.3887 3.785C13.5207 3.71298 13.6567 3.64694 13.7947 3.58798C13.8647 3.55795 13.9347 3.5289 14.0057 3.50302C14.0767 3.47592 14.1497 3.45102 14.2217 3.42697C14.5117 3.33395 14.8067 3.26596 15.1057 3.22092C15.4047 3.17599 15.7067 3.1539 16.0137 3.1539C55.1434 3.04294 94.3544 3.04294 133.483 3.1539C133.791 3.15488 134.095 3.17697 134.396 3.22189C134.546 3.24387 134.695 3.27292 134.845 3.30795C134.919 3.32492 134.993 3.34396 135.067 3.36386C135.14 3.38498 135.212 3.40695 135.284 3.4299C135.573 3.5239 135.851 3.64291 136.117 3.78891C136.184 3.8259 136.249 3.86386 136.314 3.90488C136.378 3.94394 136.442 3.98593 136.504 4.0289C136.627 4.11386 136.746 4.2059 136.86 4.30392C136.973 4.40292 137.081 4.50693 137.184 4.61691C137.235 4.67294 137.284 4.72995 137.333 4.78793C137.381 4.84592 137.427 4.90598 137.471 4.96591C137.649 5.20688 137.795 5.46591 137.913 5.73886C137.944 5.80795 137.971 5.8779 137.997 5.94797C138.023 6.01889 138.047 6.09091 138.069 6.16293C138.112 6.30588 138.149 6.4509 138.177 6.59689C138.233 6.88986 138.259 7.18698 138.258 7.48886C138.232 12.3333 138.21 17.1773 138.19 22.0213C138.17 26.8653 138.153 31.7093 138.137 36.5533C138.135 36.701 138.129 36.848 138.114 36.995C138.107 37.0691 138.098 37.1421 138.088 37.2151C138.077 37.2881 138.065 37.3611 138.05 37.433C137.994 37.724 137.91 38.005 137.799 38.2769C137.743 38.412 137.679 38.546 137.609 38.677C137.574 38.743 137.537 38.807 137.499 38.8711C137.46 38.9341 137.421 38.9961 137.379 39.057C137.213 39.302 137.023 39.5269 136.809 39.734C136.756 39.786 136.701 39.836 136.644 39.885C136.588 39.935 136.53 39.982 136.471 40.028C136.354 40.12 136.233 40.206 136.108 40.285C135.859 40.443 135.594 40.576 135.316 40.686C135.246 40.713 135.175 40.738 135.104 40.7621C135.033 40.786 134.962 40.8091 134.89 40.8289C134.747 40.87 134.602 40.905 134.457 40.933C134.166 40.989 133.87 41.02 133.571 41.0269C94.3828 41.8711 55.1158 41.8711 15.9274 41.0274C15.6274 41.0204 15.3304 40.9893 15.0364 40.9323C14.9623 40.9184 14.8884 40.9024 14.8164 40.8844C14.7434 40.8664 14.6714 40.8474 14.5984 40.8264C14.4554 40.7854 14.3143 40.7374 14.1763 40.6833C14.0383 40.6294 13.9023 40.5683 13.7694 40.5014C13.7034 40.4674 13.6364 40.4314 13.5724 40.3944C13.5074 40.3574 13.4424 40.3194 13.3804 40.2784C13.1284 40.1174 12.8954 39.9344 12.6824 39.7284C12.6293 39.6773 12.5773 39.6244 12.5273 39.5694C12.4764 39.5154 12.4263 39.4593 12.3793 39.4024C12.2834 39.2873 12.1943 39.1694 12.1114 39.0473C11.9474 38.8033 11.8084 38.5444 11.6974 38.2713C11.6694 38.2033 11.6423 38.1344 11.6184 38.0644C11.5934 37.9934 11.5704 37.9234 11.5494 37.8534C11.5074 37.7124 11.4724 37.5694 11.4454 37.4264C11.3893 37.1394 11.3624 36.8484 11.3613 36.5529Z" stroke="#FF00FF" stroke-width="0.283465" stroke-miterlimit="10" stroke-linecap="round" stroke-linejoin="round"/>
<path d="M126.284 52.01V51.5626L127.964 49.7231C128.161 49.5076 128.324 49.3204 128.451 49.1613C128.579 49.0005 128.674 48.8497 128.735 48.7089C128.798 48.5664 128.829 48.4172 128.829 48.2614C128.829 48.0825 128.786 47.9275 128.7 47.7966C128.616 47.6657 128.499 47.5646 128.352 47.4933C128.205 47.4221 128.039 47.3864 127.855 47.3864C127.659 47.3864 127.489 47.427 127.343 47.5082C127.199 47.5878 127.087 47.6996 127.007 47.8438C126.929 47.988 126.89 48.157 126.89 48.3509H126.304C126.304 48.0526 126.372 47.7908 126.51 47.5654C126.648 47.34 126.835 47.1644 127.072 47.0384C127.31 46.9125 127.578 46.8495 127.875 46.8495C128.173 46.8495 128.437 46.9125 128.668 47.0384C128.898 47.1644 129.079 47.3342 129.21 47.548C129.341 47.7618 129.406 47.9996 129.406 48.2614C129.406 48.4487 129.372 48.6318 129.304 48.8108C129.238 48.9881 129.122 49.1861 128.956 49.4049C128.792 49.622 128.564 49.8871 128.272 50.2004L127.129 51.4234V51.4631H129.495V52.01H126.284ZM130.96 52.0498C130.837 52.0498 130.732 52.0059 130.644 51.918C130.556 51.8302 130.512 51.725 130.512 51.6023C130.512 51.4797 130.556 51.3745 130.644 51.2866C130.732 51.1988 130.837 51.1549 130.96 51.1549C131.082 51.1549 131.187 51.1988 131.275 51.2866C131.363 51.3745 131.407 51.4797 131.407 51.6023C131.407 51.6835 131.386 51.7581 131.345 51.8261C131.305 51.894 131.251 51.9487 131.183 51.9901C131.117 52.0299 131.042 52.0498 130.96 52.0498ZM132.506 52.01L134.783 47.5057V47.466H132.158V46.9191H135.42V47.4958L133.153 52.01H132.506ZM137.869 52.0796C137.577 52.0796 137.315 52.0216 137.081 51.9056C136.847 51.7896 136.66 51.6305 136.519 51.4283C136.378 51.2262 136.301 50.9958 136.288 50.7373H136.884C136.908 50.9676 137.012 51.1582 137.198 51.309C137.385 51.4582 137.609 51.5327 137.869 51.5327C138.078 51.5327 138.263 51.4838 138.426 51.3861C138.59 51.2883 138.718 51.1541 138.811 50.9834C138.905 50.811 138.953 50.6163 138.953 50.3992C138.953 50.1771 138.904 49.9791 138.806 49.8051C138.71 49.6294 138.577 49.4911 138.408 49.39C138.239 49.2889 138.046 49.2375 137.829 49.2359C137.673 49.2342 137.513 49.2582 137.349 49.308C137.185 49.356 137.05 49.4182 136.944 49.4944L136.367 49.4248L136.676 46.9191H139.321V47.466H137.193L137.014 48.9674H137.044C137.148 48.8845 137.279 48.8158 137.436 48.7611C137.594 48.7064 137.758 48.679 137.929 48.679C138.24 48.679 138.518 48.7536 138.761 48.9028C139.007 49.0503 139.199 49.2524 139.338 49.5093C139.479 49.7662 139.549 50.0595 139.549 50.3893C139.549 50.7141 139.476 51.0041 139.331 51.2593C139.186 51.5129 138.987 51.7134 138.734 51.8609C138.48 52.0067 138.192 52.0796 137.869 52.0796Z" fill="#0000FF"/>
<path fill-rule="evenodd" clip-rule="evenodd" d="M22.7794 15.4148C23.1906 15.0036 23.8573 15.0036 24.2685 15.4148L29.6613 20.8076C29.6645 20.8108 29.6677 20.814 29.6708 20.8173C30.1233 21.2776 30.2577 21.9643 30.0102 22.5619C29.761 23.1633 29.1741 23.5558 28.5228 23.5558H27.2732C27.1959 23.5558 27.1332 23.6185 27.1332 23.6958V26.7851C27.1332 27.6742 26.4125 28.395 25.5233 28.395H21.5243C20.6352 28.395 19.9144 27.6742 19.9144 26.7851V23.6958C19.9144 23.6185 19.8518 23.5558 19.7744 23.5558H18.5248C17.8736 23.5558 17.2867 23.1635 17.0375 22.5621C16.7886 21.9605 16.9261 21.2681 17.3864 20.8077L22.7794 15.4148ZM28.65 21.8045L23.6229 16.7774C23.5683 16.7227 23.4796 16.7227 23.4249 16.7774L18.3907 21.8116C18.3364 21.8659 18.32 21.9477 18.3495 22.0188C18.3789 22.0899 18.4481 22.1358 18.5248 22.1358H20.4543C20.9401 22.1358 21.3344 22.5295 21.3344 23.0159V26.7851C21.3344 26.89 21.4195 26.975 21.5243 26.975H25.5233C25.6282 26.975 25.7132 26.89 25.7132 26.7851V23.0159C25.7132 22.5299 26.1073 22.1358 26.5933 22.1358H28.5228C28.5995 22.1358 28.6688 22.0896 28.6982 22.0187M28.65 21.8045C28.6523 21.8069 28.6546 21.8092 28.657 21.8116C28.7114 21.866 28.7276 21.9477 28.6982 22.0187" fill="black"/>
<path d="M37.6006 25.8673C36.1943 25.8673 35.2568 25.2814 34.9834 24.4806C34.9395 24.3634 34.915 24.2365 34.915 24.1193C34.915 23.7677 35.1396 23.5431 35.4716 23.5431C35.7499 23.5431 35.9257 23.6554 36.0624 23.9386C36.2821 24.549 36.8876 24.8224 37.6396 24.8224C38.4892 24.8224 39.0849 24.4025 39.0849 23.8165C39.0849 23.3087 38.7333 22.9962 37.8154 22.8057L37.0586 22.6494C35.6475 22.3613 34.9883 21.6972 34.9883 20.667C34.9883 19.4268 36.0772 18.5869 37.6055 18.5869C38.8506 18.5869 39.8174 19.1435 40.1055 20.0762C40.1348 20.1543 40.1494 20.2471 40.1494 20.3643C40.1494 20.6719 39.9297 20.8819 39.6025 20.8819C39.3095 20.8819 39.1289 20.7549 38.997 20.4815C38.7577 19.8858 38.2548 19.6319 37.5956 19.6319C36.8143 19.6319 36.2577 20.003 36.2577 20.5938C36.2577 21.0723 36.6093 21.3799 37.4882 21.5655L38.245 21.7218C39.7294 22.0294 40.3544 22.6251 40.3544 23.6701C40.3544 25.0178 39.2948 25.8674 37.6005 25.8674L37.6006 25.8673Z" fill="black"/>
<path d="M42.0245 25.8477C41.6681 25.8477 41.4141 25.6182 41.4141 25.208V19.2314C41.4141 18.8457 41.6436 18.6064 42.0147 18.6064C42.3858 18.6064 42.6153 18.8457 42.6153 19.2314V20.7573C42.6153 20.8625 42.7258 20.9311 42.8199 20.8843C43.1248 20.7327 43.5792 20.4766 44.2754 20.4766C45.418 20.4766 46.0869 21.2286 46.0869 22.4151V25.2081C46.0869 25.6183 45.833 25.8478 45.4765 25.8478C45.12 25.8478 44.871 25.6183 44.871 25.2081V22.6641C44.871 21.9414 44.5097 21.5069 43.8065 21.5069C43.1033 21.5069 42.6297 22.0147 42.6297 22.7764V25.2081C42.6297 25.6183 42.3807 25.8478 42.0242 25.8478L42.0245 25.8477Z" fill="black"/>
<path d="M47.8979 20.4717C47.5268 20.4717 47.2924 20.7207 47.2924 21.1114V25.2081C47.2924 25.6036 47.5268 25.8478 47.8979 25.8478C48.269 25.8478 48.5083 25.6037 48.5083 25.2081V21.1163C48.5083 20.7208 48.269 20.4718 47.8979 20.4718V20.4717ZM47.8979 19.8467C48.2788 19.8467 48.5766 19.5537 48.5766 19.1875C48.5766 18.8213 48.2787 18.5283 47.8979 18.5283C47.5171 18.5283 47.2241 18.8164 47.2241 19.1875C47.2241 19.5586 47.522 19.8467 47.8979 19.8467Z" fill="black"/>
<g clip-path="url(#clip0_283_1409504)">
<path d="M55.0252 24.8071L54.9373 24.7973C54.5857 24.768 54.449 24.5971 54.449 24.2065V21.6529C54.449 21.5746 54.5125 21.5112 54.5907 21.5112H55.0105C55.3132 21.5112 55.4988 21.3305 55.4988 21.0376C55.4988 20.7447 55.3133 20.5737 55.0105 20.5737H54.5907C54.5124 20.5737 54.449 20.5102 54.449 20.432V19.8852C54.449 19.4946 54.2146 19.2504 53.8435 19.2504C53.4724 19.2504 53.2331 19.4945 53.2331 19.8852V20.432C53.2331 20.5103 53.1696 20.5737 53.0914 20.5737H51.4903C51.4122 20.5737 51.3489 20.5106 51.3486 20.4325L51.3476 20.1836C51.3476 19.749 51.5283 19.5537 51.9726 19.5439C52.08 19.539 52.163 19.5293 52.2412 19.5097C52.4219 19.456 52.5098 19.3437 52.5098 19.1581C52.5098 18.8554 52.2217 18.6503 51.5772 18.6503C50.6446 18.6553 50.1514 19.1192 50.1514 20.1299V20.4319C50.1514 20.5102 50.0879 20.5736 50.0097 20.5736H49.8487C49.546 20.5736 49.3604 20.7494 49.3604 21.0375C49.3604 21.3256 49.5459 21.5111 49.8487 21.5111H50.0097C50.088 21.5111 50.1514 21.5746 50.1514 21.6528V25.2128C50.1514 25.623 50.3955 25.8476 50.7618 25.8476C51.1281 25.8476 51.3673 25.623 51.3673 25.2128L51.3535 21.6533C51.3532 21.5748 51.4167 21.511 51.4952 21.511H53.0915C53.1698 21.511 53.2332 21.5745 53.2332 21.6527V24.47C53.2332 25.3538 53.6922 25.803 54.5955 25.803H54.6443C55.2009 25.803 55.5135 25.6126 55.5135 25.2561C55.5135 24.9729 55.3475 24.8362 55.0252 24.8069V24.8071Z" fill="black"/>
</g>
<defs>
<clipPath id="clip0_283_1409504">
<rect width="6.1531" height="7.1973" fill="white" transform="translate(49.3604 18.6504)"/>
</clipPath>
</defs>
</svg>
