<svg width="108" height="54" viewBox="0 0 108 54" fill="none" xmlns="http://www.w3.org/2000/svg">
<rect x="1.8501" y="1.84998" width="104.3" height="50.3" rx="3" stroke="#16215B" stroke-width="0.28"/>
<path d="M10.0468 38.2873C9.97168 28.3753 9.87476 18.4632 9.75488 8.55228C9.7699 8.00919 9.86792 7.46622 10.0386 6.94693C10.2085 6.43301 10.4506 5.94193 10.7612 5.5004C10.9161 5.27933 11.0881 5.07144 11.2767 4.87857C11.4626 4.68558 11.6656 4.50858 11.8804 4.34842C12.0953 4.18839 12.3234 4.04544 12.5598 3.91922C12.7958 3.79324 13.0417 3.68326 13.2942 3.5928C13.6122 3.48087 13.9413 3.39688 14.2739 3.33914C14.6089 3.28116 14.9479 3.24808 15.2865 3.24258C41.0985 3.13467 66.9105 3.13467 92.7227 3.24234C93.4247 3.2504 94.1348 3.3804 94.7959 3.62881C95.126 3.75284 95.444 3.90677 95.7438 4.09085C96.0448 4.27493 96.3268 4.4899 96.5842 4.7316C96.8412 4.97464 97.0732 5.24466 97.2748 5.53531C97.4778 5.8273 97.6488 6.14029 97.7908 6.46719C98.0737 7.1232 98.2338 7.84024 98.2538 8.55252C98.1317 18.4635 98.0337 28.3755 97.9614 38.2876C97.9374 38.9496 97.7854 39.6126 97.5188 40.2245C97.2467 40.8474 96.8567 41.4165 96.3781 41.8953C95.8942 42.3792 95.3212 42.7713 94.6964 43.0509C94.0743 43.33 93.4014 43.4959 92.7267 43.543C79.8228 43.9561 66.9137 44.163 54.005 44.163C41.094 44.163 28.1851 43.9569 15.2823 43.5428C14.6073 43.4958 13.9343 43.3297 13.3126 43.0509C12.6876 42.771 12.1136 42.378 11.6311 41.8952C11.1521 41.4151 10.7611 40.8461 10.4897 40.2226C10.2236 39.6116 10.0707 38.9477 10.0468 38.2856" stroke="#16215B" stroke-width="0.283" stroke-miterlimit="10"/>
<path d="M93.689 41.0038H14.3188C13.1448 41.004 12.1929 40.0519 12.1929 38.8779V7.9809C12.1927 6.80646 13.1448 5.85443 14.3188 5.85443H17.8628H90.1458H93.689C94.8639 5.85443 95.8149 6.80646 95.8149 7.98041V38.8779C95.8149 40.0519 94.8639 41.0038 93.689 41.0038Z" stroke="#00FFFF" stroke-width="0.28" stroke-miterlimit="10"/>
<path d="M97.3453 9.19919C97.3542 9.04123 97.3602 8.88425 97.3593 8.72726C97.3573 8.57028 97.3483 8.41428 97.3303 8.25827C97.3223 8.18027 97.3113 8.10226 97.2982 8.02426C97.2853 7.94724 97.2712 7.86923 97.2543 7.79221C97.2203 7.63828 97.1793 7.48825 97.1293 7.34128C97.0782 7.19321 97.0212 7.04831 96.9542 6.9072C96.9203 6.83627 96.8853 6.7662 96.8483 6.69724C96.8103 6.62827 96.7703 6.56027 96.7283 6.49326C96.5623 6.22726 96.3663 5.9852 96.1443 5.7662C96.0873 5.71127 96.0312 5.65829 95.9713 5.60629C95.9413 5.58029 95.9113 5.55527 95.8802 5.53024C95.8502 5.50522 95.8193 5.48019 95.7872 5.45529C95.6622 5.35825 95.5333 5.26926 95.4003 5.18723C95.1323 5.02328 94.8483 4.88828 94.5472 4.78122C94.2473 4.67331 93.9413 4.59628 93.6302 4.54526C93.3193 4.49326 93.0033 4.46823 92.6832 4.46725C66.9321 4.36337 41.0771 4.36337 15.3262 4.46725C15.0057 4.46835 14.6887 4.49326 14.3788 4.54526C14.0668 4.59628 13.7617 4.67331 13.4607 4.78134C13.1608 4.88828 12.8757 5.02426 12.6078 5.18735C12.4738 5.26926 12.3457 5.35934 12.2207 5.45627C12.1887 5.48032 12.1577 5.50534 12.1277 5.53036C12.0968 5.55527 12.0668 5.58127 12.0367 5.60727C11.9778 5.65829 11.9208 5.71237 11.8647 5.76633C11.6407 5.98532 11.4458 6.22726 11.2798 6.49435C11.2378 6.56027 11.1978 6.62936 11.1608 6.69736C11.1228 6.7673 11.0878 6.83737 11.0547 6.90732C10.9867 7.04929 10.9297 7.19333 10.8798 7.34128C10.8297 7.48837 10.7877 7.63937 10.7538 7.7933C10.7367 7.87033 10.7218 7.94736 10.7097 8.02536C10.6968 8.10336 10.6858 8.18027 10.6787 8.25937C10.6608 8.41428 10.6517 8.57126 10.6498 8.72836C10.6477 8.88437 10.6548 9.04233 10.6637 9.20029C10.6876 13.9802 10.7096 18.7602 10.7286 23.5403C10.7487 28.3203 10.7666 33.1002 10.7816 37.8802C10.7828 38.1729 10.8098 38.4629 10.8638 38.7489C10.8907 38.891 10.9248 39.0329 10.9658 39.1739C10.9858 39.2439 11.0088 39.3139 11.0328 39.3839C11.0558 39.4539 11.0828 39.5229 11.1097 39.5909C11.2187 39.8639 11.3538 40.1229 11.5148 40.3679C11.5948 40.49 11.6818 40.6089 11.7758 40.724C11.8228 40.782 11.8718 40.8379 11.9218 40.8939C11.9708 40.948 12.0218 41.0019 12.0739 41.0539C12.2828 41.2629 12.5107 41.4489 12.7598 41.6119C12.8208 41.6529 12.8848 41.693 12.9489 41.7309C13.0118 41.7689 13.0778 41.8059 13.1428 41.8399C13.2748 41.9099 13.4088 41.9719 13.5458 42.0279C13.6818 42.084 13.8218 42.1339 13.9637 42.177C14.0338 42.1989 14.1058 42.219 14.1779 42.2369C14.2498 42.2549 14.3228 42.2729 14.3958 42.2879C14.6877 42.3479 14.9828 42.3819 15.2808 42.391C41.0608 43.1751 66.9468 43.1751 92.7268 42.3911C93.0251 42.3822 93.3191 42.3481 93.6071 42.2882C93.7511 42.2591 93.8951 42.2231 94.0371 42.1801C94.1071 42.1582 94.1781 42.1351 94.2482 42.1102C94.3191 42.0852 94.3881 42.0582 94.4572 42.0301C94.7332 41.9171 94.9941 41.7811 95.2401 41.6191C95.3632 41.5382 95.4821 41.4511 95.5972 41.3571C95.6552 41.3102 95.7111 41.2622 95.7671 41.2121C95.8231 41.1622 95.8761 41.1112 95.9291 41.0592C96.1381 40.8502 96.3251 40.6231 96.4871 40.3781C96.5271 40.3161 96.5662 40.2541 96.6041 40.1902C96.6411 40.1272 96.6771 40.0611 96.7122 39.9962C96.7811 39.8652 96.8422 39.7321 96.8971 39.5962C97.0061 39.3252 97.0881 39.0442 97.1431 38.7551C97.1571 38.6832 97.1691 38.6102 97.1791 38.5372C97.1901 38.4652 97.1991 38.3922 97.2061 38.3192C97.2191 38.1732 97.2261 38.0272 97.2272 37.8799C97.2432 33.0999 97.2592 28.3199 97.2791 23.5399C97.2981 18.7599 97.3201 13.9799 97.3453 9.19919Z" stroke="#FF00FF" stroke-width="0.283465" stroke-miterlimit="10" stroke-linecap="round" stroke-linejoin="round"/>
<path d="M90.2985 50.01V49.5626L91.9789 47.7231C92.1761 47.5076 92.3385 47.3204 92.4661 47.1613C92.5937 47.0005 92.6882 46.8497 92.7495 46.7089C92.8124 46.5664 92.8439 46.4172 92.8439 46.2614C92.8439 46.0825 92.8008 45.9275 92.7147 45.7966C92.6301 45.6657 92.5141 45.5646 92.3667 45.4933C92.2192 45.4221 92.0534 45.3864 91.8695 45.3864C91.6739 45.3864 91.5033 45.427 91.3574 45.5082C91.2132 45.5878 91.1014 45.6996 91.0218 45.8438C90.944 45.988 90.905 46.157 90.905 46.3509H90.3184C90.3184 46.0526 90.3871 45.7908 90.5247 45.5654C90.6622 45.34 90.8495 45.1644 91.0865 45.0384C91.3251 44.9125 91.5927 44.8495 91.8894 44.8495C92.1877 44.8495 92.452 44.9125 92.6824 45.0384C92.9127 45.1644 93.0933 45.3342 93.2243 45.548C93.3552 45.7618 93.4206 45.9996 93.4206 46.2614C93.4206 46.4487 93.3867 46.6318 93.3187 46.8108C93.2524 46.9881 93.1364 47.1861 92.9707 47.4049C92.8066 47.622 92.5788 47.8871 92.2871 48.2004L91.1436 49.4234V49.4631H93.5101V50.01H90.2985ZM94.9743 50.0498C94.8516 50.0498 94.7464 50.0059 94.6586 49.918C94.5707 49.8302 94.5268 49.725 94.5268 49.6023C94.5268 49.4797 94.5707 49.3745 94.6586 49.2866C94.7464 49.1988 94.8516 49.1549 94.9743 49.1549C95.0969 49.1549 95.2021 49.1988 95.29 49.2866C95.3778 49.3745 95.4217 49.4797 95.4217 49.6023C95.4217 49.6835 95.401 49.7581 95.3596 49.8261C95.3198 49.894 95.2659 49.9487 95.198 49.9901C95.1317 50.0299 95.0571 50.0498 94.9743 50.0498ZM97.9473 50.0796C97.5727 50.0796 97.2537 49.9777 96.9902 49.7739C96.7267 49.5684 96.5254 49.2709 96.3862 48.8815C96.247 48.4904 96.1774 48.0181 96.1774 47.4646C96.1774 46.9144 96.247 46.4446 96.3862 46.0551C96.527 45.664 96.7292 45.3657 96.9927 45.1602C97.2579 44.9531 97.5761 44.8495 97.9473 44.8495C98.3185 44.8495 98.6358 44.9531 98.8993 45.1602C99.1645 45.3657 99.3667 45.664 99.5059 46.0551C99.6467 46.4446 99.7172 46.9144 99.7172 47.4646C99.7172 48.0181 99.6475 48.4904 99.5083 48.8815C99.3691 49.2709 99.1678 49.5684 98.9043 49.7739C98.6408 49.9777 98.3218 50.0796 97.9473 50.0796ZM97.9473 49.5327C98.3185 49.5327 98.6068 49.3538 98.8123 48.9958C99.0178 48.6379 99.1206 48.1274 99.1206 47.4646C99.1206 47.0237 99.0733 46.6484 98.9789 46.3385C98.8861 46.0286 98.7518 45.7924 98.5762 45.63C98.4022 45.4676 98.1925 45.3864 97.9473 45.3864C97.5794 45.3864 97.2918 45.5679 97.0847 45.9308C96.8775 46.2921 96.774 46.8033 96.774 47.4646C96.774 47.9054 96.8204 48.2799 96.9132 48.5881C97.006 48.8964 97.1394 49.1309 97.3134 49.2916C97.4891 49.4524 97.7003 49.5327 97.9473 49.5327ZM102.322 50.0796C101.948 50.0796 101.629 49.9777 101.365 49.7739C101.102 49.5684 100.9 49.2709 100.761 48.8815C100.622 48.4904 100.552 48.0181 100.552 47.4646C100.552 46.9144 100.622 46.4446 100.761 46.0551C100.902 45.664 101.104 45.3657 101.368 45.1602C101.633 44.9531 101.951 44.8495 102.322 44.8495C102.693 44.8495 103.011 44.9531 103.274 45.1602C103.539 45.3657 103.742 45.664 103.881 46.0551C104.022 46.4446 104.092 46.9144 104.092 47.4646C104.092 48.0181 104.023 48.4904 103.883 48.8815C103.744 49.2709 103.543 49.5684 103.279 49.7739C103.016 49.9777 102.697 50.0796 102.322 50.0796ZM102.322 49.5327C102.693 49.5327 102.982 49.3538 103.187 48.9958C103.393 48.6379 103.496 48.1274 103.496 47.4646C103.496 47.0237 103.448 46.6484 103.354 46.3385C103.261 46.0286 103.127 45.7924 102.951 45.63C102.777 45.4676 102.568 45.3864 102.322 45.3864C101.954 45.3864 101.667 45.5679 101.46 45.9308C101.253 46.2921 101.149 46.8033 101.149 47.4646C101.149 47.9054 101.195 48.2799 101.288 48.5881C101.381 48.8964 101.514 49.1309 101.688 49.2916C101.864 49.4524 102.075 49.5327 102.322 49.5327Z" fill="#0000FF"/>
<path fill-rule="evenodd" clip-rule="evenodd" d="M22.2794 15.4148C22.6906 15.0036 23.3573 15.0036 23.7685 15.4148L29.1613 20.8076C29.1645 20.8108 29.1677 20.814 29.1708 20.8173C29.6233 21.2776 29.7577 21.9643 29.5102 22.5619C29.261 23.1633 28.6741 23.5558 28.0228 23.5558H26.7732C26.6959 23.5558 26.6332 23.6185 26.6332 23.6958V26.7851C26.6332 27.6742 25.9125 28.395 25.0233 28.395H21.0243C20.1352 28.395 19.4144 27.6742 19.4144 26.7851V23.6958C19.4144 23.6185 19.3518 23.5558 19.2744 23.5558H18.0248C17.3736 23.5558 16.7867 23.1635 16.5375 22.5621C16.2886 21.9605 16.4261 21.2681 16.8864 20.8077L22.2794 15.4148ZM28.15 21.8045L23.1229 16.7774C23.0683 16.7227 22.9796 16.7227 22.9249 16.7774L17.8907 21.8116C17.8364 21.8659 17.82 21.9477 17.8495 22.0188C17.8789 22.0899 17.9481 22.1358 18.0248 22.1358H19.9543C20.4401 22.1358 20.8344 22.5295 20.8344 23.0159V26.7851C20.8344 26.89 20.9195 26.975 21.0243 26.975H25.0233C25.1282 26.975 25.2132 26.89 25.2132 26.7851V23.0159C25.2132 22.5299 25.6073 22.1358 26.0933 22.1358H28.0228C28.0995 22.1358 28.1688 22.0896 28.1982 22.0187M28.15 21.8045C28.1523 21.8069 28.1546 21.8092 28.157 21.8116C28.2114 21.866 28.2276 21.9477 28.1982 22.0187" fill="black"/>
<path d="M37.1006 25.8673C35.6943 25.8673 34.7568 25.2814 34.4834 24.4806C34.4395 24.3634 34.415 24.2365 34.415 24.1193C34.415 23.7677 34.6396 23.5431 34.9716 23.5431C35.2499 23.5431 35.4257 23.6554 35.5624 23.9386C35.7821 24.549 36.3876 24.8224 37.1396 24.8224C37.9892 24.8224 38.5849 24.4025 38.5849 23.8165C38.5849 23.3087 38.2333 22.9962 37.3154 22.8057L36.5586 22.6494C35.1475 22.3613 34.4883 21.6972 34.4883 20.667C34.4883 19.4268 35.5772 18.5869 37.1055 18.5869C38.3506 18.5869 39.3174 19.1435 39.6055 20.0762C39.6348 20.1543 39.6494 20.2471 39.6494 20.3643C39.6494 20.6719 39.4297 20.8819 39.1025 20.8819C38.8095 20.8819 38.6289 20.7549 38.497 20.4815C38.2577 19.8858 37.7548 19.6319 37.0956 19.6319C36.3143 19.6319 35.7577 20.003 35.7577 20.5938C35.7577 21.0723 36.1093 21.3799 36.9882 21.5655L37.745 21.7218C39.2294 22.0294 39.8544 22.6251 39.8544 23.6701C39.8544 25.0178 38.7948 25.8674 37.1005 25.8674L37.1006 25.8673Z" fill="black"/>
<path d="M40.9131 25.2081V19.2307C40.9131 18.8449 41.1426 18.6056 41.5138 18.6056C41.885 18.6056 42.1145 18.8449 42.1145 19.2307V20.7064C42.1145 20.8096 42.2211 20.8782 42.315 20.8354C42.6103 20.7008 43.1908 20.476 43.7749 20.476C44.9176 20.476 45.5867 21.2281 45.5867 22.4148V25.2082C45.5867 25.6184 45.3328 25.8479 44.9763 25.8479C44.6198 25.8479 44.3707 25.6184 44.3707 25.2082V22.6639C44.3707 21.9411 44.0093 21.5065 43.3061 21.5065C42.6029 21.5065 42.1292 22.0144 42.1292 22.7762V25.2082C42.1292 25.6184 41.8801 25.8479 41.5236 25.8479C41.1671 25.8479 40.9131 25.6183 40.9131 25.2081Z" fill="black"/>
<path d="M47.3979 20.4717C47.0268 20.4717 46.7924 20.7207 46.7924 21.1114V25.2081C46.7924 25.6036 47.0268 25.8478 47.3979 25.8478C47.769 25.8478 48.0083 25.6037 48.0083 25.2081V21.1163C48.0083 20.7208 47.769 20.4718 47.3979 20.4718V20.4717ZM47.3979 19.8467C47.7788 19.8467 48.0766 19.5537 48.0766 19.1875C48.0766 18.8213 47.7787 18.5283 47.3979 18.5283C47.0171 18.5283 46.7241 18.8164 46.7241 19.1875C46.7241 19.5586 47.022 19.8467 47.3979 19.8467Z" fill="black"/>
<path fill-rule="evenodd" clip-rule="evenodd" d="M50.2618 25.8477C49.8956 25.8477 49.6514 25.6231 49.6514 25.2129V21.6535C49.6514 21.5752 49.5879 21.5118 49.5097 21.5118H49.3292C49.0558 21.5118 48.8604 21.3458 48.8604 21.0479C48.8604 20.75 49.0557 20.5889 49.3292 20.5889H49.5097C49.588 20.5889 49.6514 20.5254 49.6514 20.4472V20.1299C49.6514 19.1192 50.1023 18.6505 51.213 18.6505C51.9889 18.6505 52.0097 18.9955 52.0097 19.1583C52.0097 19.3413 51.8989 19.5305 51.7166 19.5785C51.6311 19.601 51.5976 19.6036 51.4725 19.609C51.0285 19.6281 50.8475 19.7492 50.8475 20.1838V20.4473C50.8475 20.5238 50.9081 20.5861 50.9838 20.5889H52.3681C52.3806 20.5883 52.3932 20.588 52.4061 20.588H52.5915C52.6698 20.588 52.7332 20.5245 52.7332 20.4463V19.8833C52.7332 19.4926 52.9676 19.2484 53.3437 19.2484C53.7198 19.2484 53.9493 19.4925 53.9493 19.8833V20.4463C53.9493 20.5246 54.0128 20.588 54.091 20.588H54.5109C54.8136 20.588 54.9993 20.7588 54.9993 21.047C54.9993 21.3352 54.8138 21.5109 54.5109 21.5109H54.091C54.0127 21.5109 53.9493 21.5744 53.9493 21.6526V24.2052C53.9493 24.5959 54.086 24.7668 54.4377 24.7961L54.5256 24.8059C54.8479 24.8352 55.014 24.9719 55.014 25.2552C55.014 25.6116 54.7015 25.8022 54.1448 25.8022H54.096C53.1926 25.8022 52.7335 25.3529 52.7335 24.469H52.7333L52.7332 24.4689V21.6526C52.7332 21.5797 52.6782 21.5198 52.6076 21.5118H51.5131C51.5094 21.5119 51.5056 21.5119 51.5018 21.5119H51.0088C50.9305 21.5119 50.8671 21.5754 50.8671 21.6536V25.213C50.8671 25.6232 50.623 25.8478 50.2616 25.8478L50.2618 25.8477Z" fill="black"/>
</svg>
