<svg width="81" height="54" viewBox="0 0 81 54" fill="none" xmlns="http://www.w3.org/2000/svg">
<path d="M71.0068 37.0028C71.0848 27.0808 71.1919 17.1588 71.3298 7.23671C71.3199 6.87971 71.2788 6.52272 71.2035 6.17207C71.1305 5.82307 71.0245 5.48207 70.8847 5.15388C70.7467 4.82887 70.5757 4.51692 70.376 4.22517C70.176 3.9352 69.948 3.66518 69.6949 3.42085C69.4419 3.17787 69.1649 2.96083 68.8693 2.77419C68.5733 2.58717 68.2583 2.42921 67.9325 2.30348C67.6065 2.17751 67.2675 2.08156 66.9237 2.01747C66.5777 1.95351 66.2278 1.91945 65.8745 1.91591C48.9605 1.82497 32.0455 1.82497 15.1317 1.91554C14.7937 1.92165 14.4567 1.95461 14.1241 2.01491C13.7921 2.07387 13.4641 2.15981 13.1495 2.27443C12.9005 2.36745 12.6575 2.47841 12.4246 2.605C12.1925 2.73305 11.9685 2.87807 11.7568 3.03871C11.5458 3.20064 11.3468 3.37862 11.163 3.57118C10.9779 3.76521 10.8099 3.9742 10.6587 4.19405C10.5067 4.41499 10.3716 4.64803 10.2538 4.8885C10.1358 5.13155 10.0358 5.38155 9.95245 5.63875C9.78644 6.15474 9.69144 6.69673 9.67773 7.23628C9.81174 17.1583 9.91876 27.0803 10.0002 37.0014C10.0251 37.6633 10.1751 38.3273 10.44 38.9409C10.709 39.5659 11.095 40.1389 11.571 40.6232C12.05 41.1112 12.618 41.5102 13.2408 41.796C13.8578 42.081 14.5288 42.254 15.2026 42.3052C23.6317 42.6482 32.0667 42.8192 40.5034 42.819C48.9394 42.819 57.3744 42.648 65.8044 42.3048C66.4783 42.2537 67.1483 42.0808 67.7662 41.7969C68.3882 41.5099 68.9572 41.1109 69.4361 40.6233C69.9111 40.1383 70.2971 39.5663 70.5675 38.9408C70.8305 38.3278 70.9825 37.6638 71.0066 37.0008" stroke="#16215B" stroke-width="0.283" stroke-miterlimit="10"/>
<path d="M11.2583 38.7131V6.44019C11.2583 5.26575 12.2093 4.31372 13.3843 4.31372H16.9273H64.1312H67.6743C68.8483 4.31372 69.8003 5.26575 69.8003 6.4397V38.7127C69.8003 39.8871 68.8483 40.8391 67.6743 40.8391L13.3843 40.8392C12.2093 40.8392 11.2583 39.8871 11.2583 38.7131Z" stroke="#00FFFF" stroke-width="0.28" stroke-miterlimit="10"/>
<path d="M65.6805 41.1328C48.9365 41.8178 32.0695 41.8178 15.3265 41.1328C15.0304 41.1201 14.7384 41.0831 14.4494 41.0181C14.3044 40.9861 14.1624 40.9471 14.0224 40.9021C13.8833 40.8561 13.7453 40.8051 13.6104 40.746C13.4754 40.6881 13.3443 40.6231 13.2154 40.5521C13.1503 40.5161 13.0864 40.478 13.0224 40.4391C12.9603 40.4001 12.8984 40.3601 12.8384 40.3181C12.5964 40.1501 12.3724 39.9611 12.1694 39.7491C12.1184 39.6961 12.0683 39.642 12.0194 39.5861C11.9714 39.5311 11.9244 39.4731 11.8783 39.4151C11.7874 39.3001 11.7024 39.1801 11.6243 39.0571C11.4684 38.8111 11.3374 38.5521 11.2304 38.28C11.2044 38.2111 11.1794 38.142 11.1564 38.0731C11.1333 38.0031 11.1113 37.9331 11.0914 37.8631C11.0524 37.7231 11.0184 37.582 10.9924 37.4401C10.9393 37.1561 10.9133 36.8691 10.9124 36.577C10.8963 31.7905 10.8783 27.0025 10.8583 22.2155C10.8382 17.4285 10.8153 12.6415 10.7903 7.85347C10.7815 7.69789 10.7755 7.54189 10.7765 7.38692C10.7775 7.23091 10.7865 7.07692 10.8035 6.92293C10.8105 6.8459 10.8215 6.76888 10.8335 6.69191C10.8455 6.61488 10.8595 6.53889 10.8755 6.46193C10.9075 6.31093 10.9475 6.16188 10.9955 6.01491C11.0425 5.86891 11.0975 5.72591 11.1625 5.58492C11.1935 5.51491 11.2275 5.44588 11.2635 5.37691C11.3005 5.30891 11.3385 5.24092 11.3785 5.1739C11.5375 4.90889 11.7245 4.66689 11.9395 4.44691C11.9935 4.39192 12.0495 4.33791 12.1065 4.28688C12.1355 4.2599 12.1645 4.23488 12.1935 4.20888C12.2235 4.18391 12.2535 4.15889 12.2835 4.13393C12.4045 4.03688 12.5305 3.94588 12.6605 3.86293C12.9205 3.69691 13.1985 3.55989 13.4925 3.44893C13.7865 3.33888 14.0875 3.2599 14.3925 3.20692C14.6985 3.15388 15.0105 3.12691 15.3255 3.12587C32.07 3.03389 48.937 3.03389 65.68 3.12587C65.9961 3.12697 66.3081 3.15395 66.6131 3.20692C66.9191 3.25996 67.2201 3.33894 67.5141 3.44893C67.8081 3.55995 68.0851 3.69698 68.3461 3.86293C68.4761 3.94594 68.6011 4.03596 68.7221 4.13393C68.7521 4.15895 68.7821 4.18398 68.8121 4.20894C68.8411 4.23396 68.8701 4.25996 68.9001 4.28596C68.9561 4.33797 69.0121 4.39192 69.0661 4.44698C69.2801 4.66597 69.4681 4.90895 69.6281 5.17397C69.6681 5.23994 69.7061 5.30794 69.7421 5.37697C69.7791 5.44496 69.8121 5.51497 69.8441 5.58498C69.9071 5.72493 69.9631 5.86897 70.0111 6.01497C70.0591 6.16096 70.0991 6.30995 70.1301 6.46193C70.1471 6.53798 70.1601 6.61494 70.1731 6.69093C70.1851 6.76796 70.1951 6.84492 70.2031 6.92195C70.2201 7.07594 70.2281 7.23097 70.2301 7.38594C70.2311 7.54097 70.2251 7.69698 70.2161 7.85292C70.191 12.6401 70.168 17.4281 70.148 22.215C70.127 27.0021 70.11 31.7901 70.094 36.5768C70.093 36.8688 70.066 37.1588 70.013 37.4458C69.986 37.5908 69.952 37.7328 69.912 37.8718C69.872 38.0118 69.826 38.1498 69.773 38.2848C69.72 38.4198 69.66 38.5528 69.594 38.6838C69.561 38.7498 69.526 38.8148 69.49 38.8788C69.452 38.9428 69.414 39.0058 69.375 39.0668C69.217 39.3138 69.036 39.5428 68.832 39.7548C68.782 39.8068 68.729 39.8588 68.675 39.9088C68.621 39.9598 68.566 40.0088 68.509 40.0568C68.396 40.1528 68.28 40.2418 68.159 40.3238C67.917 40.4898 67.661 40.6318 67.39 40.7488C67.323 40.7778 67.253 40.8058 67.184 40.8318C67.115 40.8578 67.045 40.8818 66.975 40.9038C66.835 40.9498 66.694 40.9878 66.551 41.0198C66.266 41.0828 65.975 41.1208 65.6805 41.1328Z" stroke="#FF00FF" stroke-width="0.283465" stroke-miterlimit="10" stroke-linecap="round" stroke-linejoin="round"/>
<path d="M72.7894 46.9191V52.01H72.1729V47.5654H72.1431L70.9002 48.3907V47.7643L72.1729 46.9191H72.7894ZM74.3903 52.0498C74.2676 52.0498 74.1624 52.0059 74.0746 51.918C73.9867 51.8302 73.9428 51.725 73.9428 51.6023C73.9428 51.4797 73.9867 51.3745 74.0746 51.2866C74.1624 51.1988 74.2676 51.1549 74.3903 51.1549C74.5129 51.1549 74.6181 51.1988 74.706 51.2866C74.7938 51.3745 74.8377 51.4797 74.8377 51.6023C74.8377 51.6835 74.817 51.7581 74.7756 51.8261C74.7358 51.894 74.6819 51.9487 74.614 51.9901C74.5477 52.0299 74.4731 52.0498 74.3903 52.0498ZM77.3689 52.0796C77.0772 52.0796 76.8145 52.0216 76.5809 51.9056C76.3472 51.7896 76.1599 51.6305 76.0191 51.4283C75.8782 51.2262 75.8012 50.9958 75.7879 50.7373H76.3845C76.4077 50.9676 76.5121 51.1582 76.6977 51.309C76.885 51.4582 77.1087 51.5327 77.3689 51.5327C77.5777 51.5327 77.7633 51.4838 77.9257 51.3861C78.0898 51.2883 78.2182 51.1541 78.311 50.9834C78.4055 50.811 78.4527 50.6163 78.4527 50.3992C78.4527 50.1771 78.4038 49.9791 78.306 49.8051C78.2099 49.6294 78.0773 49.4911 77.9083 49.39C77.7393 49.2889 77.5462 49.2375 77.3291 49.2359C77.1733 49.2342 77.0134 49.2582 76.8493 49.308C76.6853 49.356 76.5502 49.4182 76.4442 49.4944L75.8675 49.4248L76.1757 46.9191H78.8206V47.466H76.6927L76.5138 48.9674H76.5436C76.648 48.8845 76.7789 48.8158 76.9363 48.7611C77.0938 48.7064 77.2578 48.679 77.4285 48.679C77.7401 48.679 78.0177 48.7536 78.2613 48.9028C78.5065 49.0503 78.6988 49.2524 78.838 49.5093C78.9788 49.7662 79.0493 50.0595 79.0493 50.3893C79.0493 50.7141 78.9764 51.0041 78.8305 51.2593C78.6863 51.5129 78.4875 51.7134 78.2339 51.8609C77.9804 52.0067 77.692 52.0796 77.3689 52.0796Z" fill="#0000FF"/>
<path fill-rule="evenodd" clip-rule="evenodd" d="M22.2794 15.4148C22.6906 15.0037 23.3573 15.0037 23.7685 15.4148L29.1613 20.8076C29.1645 20.8108 29.1677 20.8141 29.1708 20.8174C29.6233 21.2777 29.7577 21.9644 29.5102 22.562C29.261 23.1634 28.6741 23.5559 28.0228 23.5559H26.7732C26.6959 23.5559 26.6332 23.6186 26.6332 23.6959V26.7852C26.6332 27.6743 25.9125 28.3951 25.0233 28.3951H21.0243C20.1352 28.3951 19.4144 27.6743 19.4144 26.7852V23.6959C19.4144 23.6186 19.3518 23.5559 19.2744 23.5559H18.0248C17.3736 23.5559 16.7867 23.1635 16.5375 22.5621C16.2886 21.9606 16.4261 21.2681 16.8864 20.8077L22.2794 15.4148ZM28.15 21.8046L23.1229 16.7775C23.0683 16.7228 22.9796 16.7228 22.9249 16.7775L17.8907 21.8116C17.8364 21.866 17.82 21.9477 17.8495 22.0189C17.8789 22.0899 17.9481 22.1359 18.0248 22.1359H19.9543C20.4401 22.1359 20.8344 22.5296 20.8344 23.016V26.7852C20.8344 26.89 20.9195 26.9751 21.0243 26.9751H25.0233C25.1282 26.9751 25.2132 26.89 25.2132 26.7852V23.016C25.2132 22.5299 25.6073 22.1359 26.0933 22.1359H28.0228C28.0995 22.1359 28.1688 22.0897 28.1982 22.0187M28.15 21.8046C28.1523 21.8069 28.1546 21.8093 28.157 21.8116C28.2114 21.8661 28.2276 21.9478 28.1982 22.0187" fill="black"/>
<path d="M37.1006 25.8673C35.6943 25.8673 34.7568 25.2814 34.4834 24.4806C34.4395 24.3634 34.415 24.2365 34.415 24.1193C34.415 23.7677 34.6396 23.5431 34.9716 23.5431C35.2499 23.5431 35.4257 23.6554 35.5624 23.9386C35.7821 24.549 36.3876 24.8224 37.1396 24.8224C37.9892 24.8224 38.5849 24.4025 38.5849 23.8165C38.5849 23.3087 38.2333 22.9962 37.3154 22.8057L36.5586 22.6494C35.1475 22.3613 34.4883 21.6972 34.4883 20.667C34.4883 19.4268 35.5772 18.5869 37.1055 18.5869C38.3506 18.5869 39.3174 19.1435 39.6055 20.0762C39.6348 20.1543 39.6494 20.2471 39.6494 20.3643C39.6494 20.6719 39.4297 20.8819 39.1025 20.8819C38.8095 20.8819 38.6289 20.7549 38.497 20.4815C38.2577 19.8858 37.7548 19.6319 37.0956 19.6319C36.3143 19.6319 35.7577 20.003 35.7577 20.5938C35.7577 21.0723 36.1093 21.3799 36.9882 21.5655L37.745 21.7218C39.2294 22.0294 39.8544 22.6251 39.8544 23.6701C39.8544 25.0178 38.7948 25.8674 37.1005 25.8674L37.1006 25.8673Z" fill="black"/>
<path d="M41.5245 25.8477C41.1681 25.8477 40.9141 25.6182 40.9141 25.208V19.2314C40.9141 18.8457 41.1436 18.6064 41.5147 18.6064C41.8858 18.6064 42.1153 18.8457 42.1153 19.2314V20.7573C42.1153 20.8625 42.2258 20.9311 42.3199 20.8843C42.6248 20.7327 43.0792 20.4766 43.7754 20.4766C44.918 20.4766 45.5869 21.2286 45.5869 22.4151V25.2081C45.5869 25.6183 45.333 25.8478 44.9765 25.8478C44.62 25.8478 44.371 25.6183 44.371 25.2081V22.6641C44.371 21.9414 44.0097 21.5069 43.3065 21.5069C42.6033 21.5069 42.1297 22.0147 42.1297 22.7764V25.2081C42.1297 25.6183 41.8807 25.8478 41.5242 25.8478L41.5245 25.8477Z" fill="black"/>
<path d="M47.3979 20.4717C47.0268 20.4717 46.7924 20.7207 46.7924 21.1114V25.2081C46.7924 25.6036 47.0268 25.8478 47.3979 25.8478C47.769 25.8478 48.0083 25.6037 48.0083 25.2081V21.1163C48.0083 20.7208 47.769 20.4718 47.3979 20.4718V20.4717ZM47.3979 19.8467C47.7788 19.8467 48.0766 19.5537 48.0766 19.1875C48.0766 18.8213 47.7787 18.5283 47.3979 18.5283C47.0171 18.5283 46.7241 18.8164 46.7241 19.1875C46.7241 19.5586 47.022 19.8467 47.3979 19.8467Z" fill="black"/>
<g clip-path="url(#clip0_466_903911)">
<path d="M54.5252 24.8071L54.4373 24.7973C54.0857 24.768 53.949 24.5971 53.949 24.2065V21.6529C53.949 21.5746 54.0125 21.5112 54.0907 21.5112H54.5105C54.8132 21.5112 54.9988 21.3305 54.9988 21.0376C54.9988 20.7447 54.8133 20.5737 54.5105 20.5737H54.0907C54.0124 20.5737 53.949 20.5102 53.949 20.432V19.8852C53.949 19.4946 53.7146 19.2504 53.3435 19.2504C52.9724 19.2504 52.7331 19.4945 52.7331 19.8852V20.432C52.7331 20.5103 52.6696 20.5737 52.5914 20.5737H50.9903C50.9122 20.5737 50.8489 20.5106 50.8486 20.4325L50.8476 20.1836C50.8476 19.749 51.0283 19.5537 51.4726 19.5439C51.58 19.539 51.663 19.5293 51.7412 19.5097C51.9219 19.456 52.0098 19.3437 52.0098 19.1581C52.0098 18.8554 51.7217 18.6503 51.0772 18.6503C50.1446 18.6553 49.6514 19.1192 49.6514 20.1299V20.4319C49.6514 20.5102 49.5879 20.5736 49.5097 20.5736H49.3487C49.046 20.5736 48.8604 20.7494 48.8604 21.0375C48.8604 21.3256 49.0459 21.5111 49.3487 21.5111H49.5097C49.588 21.5111 49.6514 21.5746 49.6514 21.6528V25.2128C49.6514 25.623 49.8955 25.8476 50.2618 25.8476C50.6281 25.8476 50.8673 25.623 50.8673 25.2128L50.8535 21.6533C50.8532 21.5748 50.9167 21.511 50.9952 21.511H52.5915C52.6698 21.511 52.7332 21.5745 52.7332 21.6527V24.47C52.7332 25.3538 53.1922 25.803 54.0955 25.803H54.1443C54.7009 25.803 55.0135 25.6126 55.0135 25.2561C55.0135 24.9729 54.8475 24.8362 54.5252 24.8069V24.8071Z" fill="black"/>
</g>
<defs>
<clipPath id="clip0_466_903911">
<rect width="6.1531" height="7.1973" fill="white" transform="translate(48.8604 18.6504)"/>
</clipPath>
</defs>
</svg>
