<svg width="95" height="54" viewBox="0 0 95 54" fill="none" xmlns="http://www.w3.org/2000/svg">
<path d="M10.4081 37.0565C10.4321 37.7185 10.584 38.3815 10.8498 38.9938C11.1218 39.6169 11.5108 40.1858 11.9894 40.6656C12.4725 41.1505 13.0445 41.5436 13.6692 41.8247C14.2902 42.1037 14.9622 42.2716 15.6375 42.3184C26.3384 42.6734 37.0444 42.8513 47.7508 42.8517C58.4578 42.8517 69.1638 42.6737 79.8646 42.3186C80.5385 42.2707 81.2115 42.0977 81.83 41.8196C82.143 41.6797 82.4431 41.5127 82.7242 41.3199C83.0052 41.1269 83.2702 40.9079 83.5126 40.6662C83.7526 40.4252 83.9706 40.1623 84.1628 39.88C84.3519 39.601 84.5168 39.304 84.6497 38.9943C84.7167 38.8393 84.7757 38.6823 84.8273 38.5229C84.8793 38.3649 84.9243 38.2049 84.9612 38.0419C85.0363 37.7189 85.0853 37.3889 85.0938 37.0575C85.1708 27.1265 85.2728 17.1945 85.4016 7.26358C85.3876 6.71964 85.2916 6.17459 85.1219 5.65445C84.9529 5.13943 84.7089 4.64737 84.3973 4.20535C84.2413 3.98428 84.0693 3.7764 83.8809 3.58304C83.6938 3.39102 83.4919 3.21402 83.2748 3.05325C82.8448 2.73318 82.3639 2.47818 81.8613 2.29691C81.3863 2.12991 80.8873 2.02493 80.3863 1.97757C80.2183 1.96255 80.0503 1.95255 79.8816 1.95047C58.4615 1.85648 37.0406 1.85648 15.6202 1.95023C14.9182 1.95828 14.2112 2.08719 13.5491 2.3378C12.8901 2.5878 12.2741 2.95877 11.764 3.44205C11.2499 3.92801 10.845 4.52701 10.563 5.18057C10.2791 5.83951 10.1201 6.55252 10.0996 7.26395C10.2256 17.195 10.3286 27.126 10.4077 37.0579" stroke="#16215B" stroke-width="0.283" stroke-miterlimit="10"/>
<path d="M81.533 40.8397H13.9791C12.804 40.8398 11.853 39.8878 11.853 38.7137C11.853 38.7141 11.853 6.47296 11.853 6.47296C11.853 5.29901 12.804 4.34698 13.9791 4.34698C13.979 4.34698 17.522 4.34698 17.522 4.34698C17.5219 4.34698 77.9899 4.34698 77.9899 4.34698C77.9897 4.34698 81.5327 4.34698 81.5327 4.34698C82.7077 4.34698 83.6588 5.29901 83.6588 6.47272C83.6588 6.47272 83.6588 38.7137 83.6587 38.7137C83.6587 39.8878 82.708 40.8397 81.533 40.8397ZM81.533 40.8397L81.5308 40.6683C81.5618 40.6673 81.5928 40.6663 81.6248 40.6653" stroke="#00FFFF" stroke-width="0.28" stroke-miterlimit="10"/>
<path d="M84.1267 36.5974C84.1257 36.8904 84.0977 37.1814 84.0438 37.4693C83.9887 37.7584 83.9077 38.0384 83.7997 38.3094C83.7457 38.4454 83.6847 38.5784 83.6177 38.7093C83.5837 38.7744 83.5477 38.8393 83.5107 38.9034C83.4737 38.9674 83.4347 39.0304 83.3937 39.0914C83.2338 39.3374 83.0507 39.5654 82.8437 39.7754C82.7907 39.8284 82.7377 39.8794 82.6827 39.9294C82.6287 39.9794 82.5717 40.0284 82.5147 40.0754C82.3997 40.1694 82.2817 40.2574 82.1597 40.3393C81.9157 40.5024 81.6567 40.6413 81.3837 40.7554C81.3148 40.7844 81.2457 40.8114 81.1757 40.8364C81.1047 40.8624 81.0347 40.8863 80.9647 40.9084C80.8237 40.9514 80.6818 40.9884 80.5377 41.0194C80.2497 41.0804 79.9578 41.1164 79.6611 41.1263C58.4281 41.8644 37.0831 41.8644 15.8513 41.1261C15.5543 41.1161 15.2593 41.0801 14.9693 41.0181C14.8963 41.003 14.8233 40.9851 14.7513 40.9671C14.6803 40.9481 14.6093 40.9271 14.5383 40.9051C14.3982 40.8611 14.2593 40.81 14.1233 40.7541C13.9883 40.6971 13.8543 40.633 13.7243 40.5631C13.6583 40.5281 13.5933 40.4911 13.5303 40.4521C13.4663 40.414 13.4043 40.3741 13.3423 40.3331C13.0963 40.1671 12.8703 39.9801 12.6633 39.7701C12.6123 39.7181 12.5622 39.664 12.5123 39.6091C12.4633 39.5541 12.4153 39.4961 12.3683 39.4391C12.2763 39.3231 12.1903 39.2041 12.1113 39.081C11.9513 38.836 11.8183 38.5771 11.7093 38.305C11.6833 38.2361 11.6573 38.1671 11.6333 38.097C11.6103 38.0281 11.5873 37.9581 11.5683 37.888C11.5273 37.7471 11.4933 37.6061 11.4673 37.4631C11.4133 37.1791 11.3863 36.8891 11.3852 36.597C11.3692 31.8131 11.3522 27.0281 11.3322 22.244C11.3122 17.4601 11.2892 12.675 11.2646 7.89146C11.2556 7.73351 11.2496 7.5775 11.2506 7.42149C11.2526 7.26549 11.2616 7.10948 11.2776 6.95445C11.2866 6.87645 11.2976 6.79955 11.3096 6.72252C11.3216 6.64452 11.3366 6.56749 11.3526 6.49144C11.3866 6.33849 11.4266 6.18846 11.4766 6.04149C11.5246 5.89452 11.5816 5.75047 11.6466 5.60948C11.6806 5.53954 11.7146 5.47044 11.7516 5.40147C11.7886 5.3325 11.8276 5.26451 11.8686 5.19749C12.0326 4.93248 12.2246 4.68944 12.4436 4.47154C12.4986 4.41551 12.5556 4.36253 12.6136 4.31053C12.6436 4.28551 12.6736 4.25951 12.7026 4.23351C12.7326 4.20848 12.7646 4.18456 12.7946 4.15953C12.9176 4.06248 13.0456 3.97252 13.1786 3.89049C13.4416 3.72545 13.7246 3.58946 14.0206 3.48045C14.3186 3.37254 14.6226 3.29454 14.9316 3.24254C15.2396 3.19054 15.5546 3.16454 15.8722 3.16344C37.0902 3.06554 58.4212 3.06554 79.6395 3.16356C79.9265 3.16454 80.2105 3.18553 80.4895 3.22752C80.7695 3.27061 81.0445 3.3336 81.3145 3.42052C81.3835 3.44261 81.4505 3.46654 81.5175 3.49156C81.5845 3.51561 81.6495 3.54259 81.7155 3.56956C81.8465 3.6256 81.9735 3.68651 82.0975 3.75255C82.2215 3.81956 82.3415 3.89159 82.4575 3.97057C82.5165 4.00963 82.5735 4.05052 82.6305 4.09361C82.6875 4.1356 82.7425 4.17955 82.7975 4.22459C83.0155 4.4066 83.2105 4.60655 83.3835 4.82555C83.4695 4.93456 83.5495 5.04955 83.6245 5.16856C83.6615 5.22752 83.6975 5.28856 83.7315 5.35057C83.7665 5.41161 83.7995 5.47459 83.8295 5.53758C83.9535 5.78954 84.0495 6.0526 84.1195 6.32457C84.1365 6.39159 84.1525 6.46056 84.1665 6.52953C84.1815 6.59862 84.1935 6.66856 84.2045 6.73851C84.2275 6.87852 84.2415 7.01854 84.2515 7.16014C84.2255 12.0671 84.2015 16.9731 84.1815 21.8791C84.1605 26.7851 84.1425 31.6911 84.1255 36.597" stroke="#FF00FF" stroke-width="0.283465" stroke-miterlimit="10" stroke-linecap="round" stroke-linejoin="round"/>
<path d="M83.3588 46.9191V52.01H82.7423V47.5654H82.7124L81.4695 48.3907V47.7643L82.7423 46.9191H83.3588ZM84.9596 52.0498C84.837 52.0498 84.7317 52.0059 84.6439 51.918C84.5561 51.8302 84.5122 51.725 84.5122 51.6023C84.5122 51.4797 84.5561 51.3745 84.6439 51.2866C84.7317 51.1988 84.837 51.1549 84.9596 51.1549C85.0822 51.1549 85.1875 51.1988 85.2753 51.2866C85.3631 51.3745 85.407 51.4797 85.407 51.6023C85.407 51.6835 85.3863 51.7581 85.3449 51.8261C85.3051 51.894 85.2513 51.9487 85.1833 51.9901C85.117 52.0299 85.0425 52.0498 84.9596 52.0498ZM86.5064 52.01L88.7834 47.5057V47.466H86.1584V46.9191H89.4197V47.4958L87.1527 52.01H86.5064ZM91.8689 52.0796C91.5772 52.0796 91.3145 52.0216 91.0809 51.9056C90.8472 51.7896 90.6599 51.6305 90.5191 51.4283C90.3782 51.2262 90.3012 50.9958 90.2879 50.7373H90.8845C90.9077 50.9676 91.0121 51.1582 91.1977 51.309C91.385 51.4582 91.6087 51.5327 91.8689 51.5327C92.0777 51.5327 92.2633 51.4838 92.4257 51.3861C92.5898 51.2883 92.7182 51.1541 92.811 50.9834C92.9055 50.811 92.9527 50.6163 92.9527 50.3992C92.9527 50.1771 92.9038 49.9791 92.806 49.8051C92.7099 49.6294 92.5773 49.4911 92.4083 49.39C92.2393 49.2889 92.0462 49.2375 91.8291 49.2359C91.6733 49.2342 91.5134 49.2582 91.3493 49.308C91.1853 49.356 91.0502 49.4182 90.9442 49.4944L90.3675 49.4248L90.6757 46.9191H93.3206V47.466H91.1927L91.0138 48.9674H91.0436C91.148 48.8845 91.2789 48.8158 91.4363 48.7611C91.5938 48.7064 91.7578 48.679 91.9285 48.679C92.2401 48.679 92.5177 48.7536 92.7613 48.9028C93.0065 49.0503 93.1988 49.2524 93.338 49.5093C93.4788 49.7662 93.5493 50.0595 93.5493 50.3893C93.5493 50.7141 93.4764 51.0041 93.3305 51.2593C93.1863 51.5129 92.9875 51.7134 92.7339 51.8609C92.4804 52.0067 92.192 52.0796 91.8689 52.0796Z" fill="#0000FF"/>
<path d="M19.1006 25.8673C17.6943 25.8673 16.7568 25.2814 16.4834 24.4806C16.4395 24.3634 16.415 24.2365 16.415 24.1193C16.415 23.7677 16.6396 23.5431 16.9716 23.5431C17.2499 23.5431 17.4257 23.6554 17.5624 23.9386C17.7821 24.549 18.3876 24.8224 19.1396 24.8224C19.9892 24.8224 20.5849 24.4025 20.5849 23.8165C20.5849 23.3087 20.2333 22.9962 19.3154 22.8057L18.5586 22.6494C17.1475 22.3613 16.4883 21.6972 16.4883 20.667C16.4883 19.4268 17.5772 18.5869 19.1055 18.5869C20.3506 18.5869 21.3174 19.1435 21.6055 20.0762C21.6348 20.1543 21.6494 20.2471 21.6494 20.3643C21.6494 20.6719 21.4297 20.8819 21.1025 20.8819C20.8095 20.8819 20.6289 20.7549 20.497 20.4815C20.2577 19.8858 19.7548 19.6319 19.0956 19.6319C18.3143 19.6319 17.7577 20.003 17.7577 20.5938C17.7577 21.0723 18.1093 21.3799 18.9882 21.5655L19.745 21.7218C21.2294 22.0294 21.8544 22.6251 21.8544 23.6701C21.8544 25.0178 20.7948 25.8674 19.1005 25.8674L19.1006 25.8673Z" fill="black"/>
<path d="M22.9131 25.2081V19.2307C22.9131 18.8449 23.1426 18.6056 23.5138 18.6056C23.885 18.6056 24.1145 18.8449 24.1145 19.2307V20.7064C24.1145 20.8096 24.2211 20.8782 24.315 20.8354C24.6103 20.7008 25.1908 20.476 25.7749 20.476C26.9176 20.476 27.5867 21.2281 27.5867 22.4148V25.2082C27.5867 25.6184 27.3328 25.8479 26.9763 25.8479C26.6198 25.8479 26.3707 25.6184 26.3707 25.2082V22.6639C26.3707 21.9411 26.0093 21.5065 25.3061 21.5065C24.6029 21.5065 24.1292 22.0144 24.1292 22.7762V25.2082C24.1292 25.6184 23.8801 25.8479 23.5236 25.8479C23.1671 25.8479 22.9131 25.6183 22.9131 25.2081Z" fill="black"/>
<path d="M29.3979 20.4717C29.0268 20.4717 28.7924 20.7207 28.7924 21.1114V25.2081C28.7924 25.6036 29.0268 25.8478 29.3979 25.8478C29.769 25.8478 30.0083 25.6037 30.0083 25.2081V21.1163C30.0083 20.7208 29.769 20.4718 29.3979 20.4718V20.4717ZM29.3979 19.8467C29.7788 19.8467 30.0766 19.5537 30.0766 19.1875C30.0766 18.8213 29.7787 18.5283 29.3979 18.5283C29.0171 18.5283 28.7241 18.8164 28.7241 19.1875C28.7241 19.5586 29.022 19.8467 29.3979 19.8467Z" fill="black"/>
<g clip-path="url(#clip0_466_908549)">
<path fill-rule="evenodd" clip-rule="evenodd" d="M32.2618 25.8477C31.8956 25.8477 31.6514 25.6231 31.6514 25.2129V21.6535C31.6514 21.5752 31.5879 21.5118 31.5097 21.5118H31.3292C31.0558 21.5118 30.8604 21.3458 30.8604 21.0479C30.8604 20.75 31.0557 20.5889 31.3292 20.5889H31.5097C31.588 20.5889 31.6514 20.5254 31.6514 20.4472V20.1299C31.6514 19.1192 32.1023 18.6505 33.213 18.6505C33.9889 18.6505 34.0097 18.9955 34.0097 19.1583C34.0097 19.3413 33.8989 19.5305 33.7166 19.5785C33.6311 19.601 33.5976 19.6036 33.4725 19.609C33.0285 19.6281 32.8475 19.7492 32.8475 20.1838V20.4473C32.8475 20.5238 32.9081 20.5861 32.9838 20.5889H34.3681C34.3806 20.5883 34.3932 20.588 34.4061 20.588H34.5915C34.6698 20.588 34.7332 20.5245 34.7332 20.4463V19.8833C34.7332 19.4926 34.9676 19.2484 35.3437 19.2484C35.7198 19.2484 35.9493 19.4925 35.9493 19.8833V20.4463C35.9493 20.5246 36.0128 20.588 36.091 20.588H36.5109C36.8136 20.588 36.9993 20.7588 36.9993 21.047C36.9993 21.3352 36.8138 21.5109 36.5109 21.5109H36.091C36.0127 21.5109 35.9493 21.5744 35.9493 21.6526V24.2052C35.9493 24.5959 36.086 24.7668 36.4377 24.7961L36.5256 24.8059C36.8479 24.8352 37.014 24.9719 37.014 25.2552C37.014 25.6116 36.7015 25.8022 36.1448 25.8022H36.096C35.1926 25.8022 34.7335 25.3529 34.7335 24.469H34.7333L34.7332 24.4689V21.6526C34.7332 21.5797 34.6782 21.5198 34.6076 21.5118H33.5131C33.5094 21.5118 33.5056 21.5119 33.5018 21.5119H33.0088C32.9305 21.5119 32.8671 21.5754 32.8671 21.6536V25.213C32.8671 25.6232 32.623 25.8478 32.2616 25.8478L32.2618 25.8477Z" fill="black"/>
</g>
<defs>
<clipPath id="clip0_466_908549">
<rect width="6.1531" height="7.1973" fill="white" transform="translate(30.8604 18.6504)"/>
</clipPath>
</defs>
</svg>
