<svg width="149" height="54" viewBox="0 0 149 54" fill="none" xmlns="http://www.w3.org/2000/svg">
<rect x="2.3501" y="1.84998" width="144.8" height="50.3" rx="3" stroke="#16215B" stroke-width="0.28"/>
<path d="M10.0602 37.034C10.0842 37.6949 10.2382 38.357 10.5085 38.9662C10.7835 39.5851 11.1795 40.1492 11.6628 40.622C12.1508 41.0991 12.7298 41.483 13.3574 41.7542C13.9834 42.0242 14.6584 42.1833 15.3351 42.2228C34.9751 42.6248 54.6181 42.8257 74.2626 42.8257C93.8966 42.8257 113.531 42.6247 133.161 42.2242C133.837 42.1832 134.512 42.0191 135.138 41.7498C135.452 41.6148 135.754 41.4518 136.037 41.2642C136.321 41.0762 136.588 40.8611 136.834 40.6219C137.317 40.1509 137.716 39.5839 137.987 38.9667C138.121 38.6617 138.226 38.3437 138.302 38.0182C138.378 37.6962 138.427 37.3672 138.437 37.0367C138.513 27.1066 138.615 17.1767 138.747 7.24762C138.727 6.53058 138.562 5.80756 138.272 5.14801C138.127 4.81805 137.95 4.50409 137.742 4.21136C137.535 3.91937 137.298 3.64935 137.033 3.40619C136.771 3.16425 136.484 2.95026 136.177 2.7663C135.871 2.58221 135.546 2.42926 135.211 2.30682C134.875 2.18488 134.529 2.09479 134.177 2.03326C133.824 1.97125 133.465 1.9372 133.108 1.93317C93.8681 1.82819 54.6281 1.82819 15.3896 1.93365C14.6777 1.93964 13.9587 2.06757 13.2867 2.31219C12.9507 2.43512 12.6267 2.58612 12.3203 2.76886C12.0143 2.95184 11.7253 3.16486 11.4623 3.40656C11.1984 3.64948 10.9623 3.92047 10.7551 4.2121C10.5491 4.50507 10.3741 4.81903 10.2285 5.14862C9.93744 5.80963 9.77045 6.5307 9.75 7.24774C9.87805 17.1768 9.98102 27.1058 10.0601 37.0357" stroke="#16215B" stroke-width="0.283" stroke-miterlimit="10"/>
<path d="M135.112 4.53381C136.286 4.53381 137.238 5.48584 137.238 6.65979V38.8346C137.238 40.0087 136.286 40.9606 135.112 40.9606H13.2227C12.0477 40.9607 11.0967 40.0087 11.0967 38.8348L11.0967 6.66187C11.0967 5.48779 12.0477 4.53577 13.2224 4.53577H131.568H135.112" stroke="#00FFFF" stroke-width="0.28" stroke-miterlimit="10"/>
<path d="M10.8613 36.5529C10.8453 31.7099 10.8283 26.865 10.8073 22.0219C10.7883 17.177 10.7653 12.333 10.7403 7.48886C10.7387 7.18698 10.7657 6.88693 10.8237 6.59091C10.8517 6.44296 10.8877 6.29697 10.9317 6.1539C10.9757 6.01096 11.0277 5.87094 11.0867 5.73398C11.1457 5.59702 11.2127 5.46298 11.2877 5.332C11.3267 5.26694 11.3657 5.202 11.4067 5.13901C11.4477 5.07602 11.4907 5.01498 11.5347 4.95493C11.7117 4.71494 11.9157 4.49594 12.1437 4.30002C12.2007 4.24997 12.2597 4.202 12.3207 4.15598C12.3797 4.10995 12.4417 4.06491 12.5037 4.02194C12.6277 3.936 12.7567 3.858 12.8887 3.785C13.0207 3.71298 13.1567 3.64694 13.2947 3.58798C13.3647 3.55795 13.4347 3.5289 13.5057 3.50302C13.5767 3.47592 13.6497 3.45102 13.7217 3.42697C14.0117 3.33395 14.3067 3.26596 14.6057 3.22092C14.9047 3.17599 15.2067 3.1539 15.5137 3.1539C54.6434 3.04294 93.8544 3.04294 132.983 3.1539C133.291 3.15488 133.595 3.17697 133.896 3.22189C134.046 3.24387 134.195 3.27292 134.345 3.30795C134.419 3.32492 134.493 3.34396 134.567 3.36386C134.64 3.38498 134.712 3.40695 134.784 3.4299C135.073 3.5239 135.351 3.64291 135.617 3.78891C135.684 3.8259 135.749 3.86386 135.814 3.90488C135.878 3.94394 135.942 3.98593 136.004 4.0289C136.127 4.11386 136.246 4.2059 136.36 4.30392C136.473 4.40292 136.581 4.50693 136.684 4.61691C136.735 4.67294 136.784 4.72995 136.833 4.78793C136.881 4.84592 136.927 4.90598 136.971 4.96591C137.149 5.20688 137.295 5.46591 137.413 5.73886C137.444 5.80795 137.471 5.8779 137.497 5.94797C137.523 6.01889 137.547 6.09091 137.569 6.16293C137.612 6.30588 137.649 6.4509 137.677 6.59689C137.733 6.88986 137.759 7.18698 137.758 7.48886C137.732 12.3333 137.71 17.1773 137.69 22.0213C137.67 26.8653 137.653 31.7093 137.637 36.5533C137.635 36.701 137.629 36.848 137.614 36.995C137.607 37.0691 137.598 37.1421 137.588 37.2151C137.577 37.2881 137.565 37.3611 137.55 37.433C137.494 37.724 137.41 38.005 137.299 38.2769C137.243 38.412 137.179 38.546 137.109 38.677C137.074 38.743 137.037 38.807 136.999 38.8711C136.96 38.9341 136.921 38.9961 136.879 39.057C136.713 39.302 136.523 39.5269 136.309 39.734C136.256 39.786 136.201 39.836 136.144 39.885C136.088 39.935 136.03 39.982 135.971 40.028C135.854 40.12 135.733 40.206 135.608 40.285C135.359 40.443 135.094 40.576 134.816 40.686C134.746 40.713 134.675 40.738 134.604 40.7621C134.533 40.786 134.462 40.8091 134.39 40.8289C134.247 40.87 134.102 40.905 133.957 40.933C133.666 40.989 133.37 41.02 133.071 41.0269C93.8828 41.8711 54.6158 41.8711 15.4274 41.0274C15.1274 41.0204 14.8304 40.9893 14.5364 40.9323C14.4623 40.9184 14.3884 40.9024 14.3164 40.8844C14.2434 40.8664 14.1714 40.8474 14.0984 40.8264C13.9554 40.7854 13.8143 40.7374 13.6763 40.6833C13.5383 40.6294 13.4023 40.5683 13.2694 40.5014C13.2034 40.4674 13.1364 40.4314 13.0724 40.3944C13.0074 40.3574 12.9424 40.3194 12.8804 40.2784C12.6284 40.1174 12.3954 39.9344 12.1824 39.7284C12.1293 39.6773 12.0773 39.6244 12.0273 39.5694C11.9764 39.5154 11.9263 39.4593 11.8793 39.4024C11.7834 39.2873 11.6943 39.1694 11.6114 39.0473C11.4474 38.8033 11.3084 38.5444 11.1974 38.2713C11.1694 38.2033 11.1423 38.1344 11.1184 38.0644C11.0934 37.9934 11.0704 37.9234 11.0494 37.8534C11.0074 37.7124 10.9724 37.5694 10.9454 37.4264C10.8893 37.1394 10.8624 36.8484 10.8613 36.5529Z" stroke="#FF00FF" stroke-width="0.283465" stroke-miterlimit="10" stroke-linecap="round" stroke-linejoin="round"/>
<path d="M131.784 50.01V49.5626L133.464 47.7231C133.661 47.5076 133.824 47.3204 133.951 47.1613C134.079 47.0005 134.174 46.8497 134.235 46.7089C134.298 46.5664 134.329 46.4172 134.329 46.2614C134.329 46.0825 134.286 45.9275 134.2 45.7966C134.116 45.6657 133.999 45.5646 133.852 45.4933C133.705 45.4221 133.539 45.3864 133.355 45.3864C133.159 45.3864 132.989 45.427 132.843 45.5082C132.699 45.5878 132.587 45.6996 132.507 45.8438C132.429 45.988 132.39 46.157 132.39 46.3509H131.804C131.804 46.0526 131.872 45.7908 132.01 45.5654C132.148 45.34 132.335 45.1644 132.572 45.0384C132.81 44.9125 133.078 44.8495 133.375 44.8495C133.673 44.8495 133.937 44.9125 134.168 45.0384C134.398 45.1644 134.579 45.3342 134.71 45.548C134.841 45.7618 134.906 45.9996 134.906 46.2614C134.906 46.4487 134.872 46.6318 134.804 46.8108C134.738 46.9881 134.622 47.1861 134.456 47.4049C134.292 47.622 134.064 47.8871 133.772 48.2004L132.629 49.4234V49.4631H134.995V50.01H131.784ZM136.46 50.0498C136.337 50.0498 136.232 50.0059 136.144 49.918C136.056 49.8302 136.012 49.725 136.012 49.6023C136.012 49.4797 136.056 49.3745 136.144 49.2866C136.232 49.1988 136.337 49.1549 136.46 49.1549C136.582 49.1549 136.687 49.1988 136.775 49.2866C136.863 49.3745 136.907 49.4797 136.907 49.6023C136.907 49.6835 136.886 49.7581 136.845 49.8261C136.805 49.894 136.751 49.9487 136.683 49.9901C136.617 50.0299 136.542 50.0498 136.46 50.0498ZM138.006 50.01L140.283 45.5057V45.466H137.658V44.9191H140.92V45.4958L138.653 50.01H138.006ZM143.369 50.0796C143.077 50.0796 142.815 50.0216 142.581 49.9056C142.347 49.7896 142.16 49.6305 142.019 49.4283C141.878 49.2262 141.801 48.9958 141.788 48.7373H142.384C142.408 48.9676 142.512 49.1582 142.698 49.309C142.885 49.4582 143.109 49.5327 143.369 49.5327C143.578 49.5327 143.763 49.4838 143.926 49.3861C144.09 49.2883 144.218 49.1541 144.311 48.9834C144.405 48.811 144.453 48.6163 144.453 48.3992C144.453 48.1771 144.404 47.9791 144.306 47.8051C144.21 47.6294 144.077 47.4911 143.908 47.39C143.739 47.2889 143.546 47.2375 143.329 47.2359C143.173 47.2342 143.013 47.2582 142.849 47.308C142.685 47.356 142.55 47.4182 142.444 47.4944L141.867 47.4248L142.176 44.9191H144.821V45.466H142.693L142.514 46.9674H142.544C142.648 46.8845 142.779 46.8158 142.936 46.7611C143.094 46.7064 143.258 46.679 143.429 46.679C143.74 46.679 144.018 46.7536 144.261 46.9028C144.507 47.0503 144.699 47.2524 144.838 47.5093C144.979 47.7662 145.049 48.0595 145.049 48.3893C145.049 48.7141 144.976 49.0041 144.831 49.2593C144.686 49.5129 144.487 49.7134 144.234 49.8609C143.98 50.0067 143.692 50.0796 143.369 50.0796Z" fill="#0000FF"/>
<path d="M19.1006 25.8673C17.6943 25.8673 16.7568 25.2814 16.4834 24.4806C16.4395 24.3634 16.415 24.2365 16.415 24.1193C16.415 23.7677 16.6396 23.5431 16.9716 23.5431C17.2499 23.5431 17.4257 23.6554 17.5624 23.9386C17.7821 24.549 18.3876 24.8224 19.1396 24.8224C19.9892 24.8224 20.5849 24.4025 20.5849 23.8165C20.5849 23.3087 20.2333 22.9962 19.3154 22.8057L18.5586 22.6494C17.1475 22.3613 16.4883 21.6972 16.4883 20.667C16.4883 19.4268 17.5772 18.5869 19.1055 18.5869C20.3506 18.5869 21.3174 19.1435 21.6055 20.0762C21.6348 20.1543 21.6494 20.2471 21.6494 20.3643C21.6494 20.6719 21.4297 20.8819 21.1025 20.8819C20.8095 20.8819 20.6289 20.7549 20.497 20.4815C20.2577 19.8858 19.7548 19.6319 19.0956 19.6319C18.3143 19.6319 17.7577 20.003 17.7577 20.5938C17.7577 21.0723 18.1093 21.3799 18.9882 21.5655L19.745 21.7218C21.2294 22.0294 21.8544 22.6251 21.8544 23.6701C21.8544 25.0178 20.7948 25.8674 19.1005 25.8674L19.1006 25.8673Z" fill="black"/>
<path d="M22.9131 25.2081V19.2307C22.9131 18.8449 23.1426 18.6056 23.5138 18.6056C23.885 18.6056 24.1145 18.8449 24.1145 19.2307V20.7064C24.1145 20.8096 24.2211 20.8782 24.315 20.8354C24.6103 20.7008 25.1908 20.476 25.7749 20.476C26.9176 20.476 27.5867 21.2281 27.5867 22.4148V25.2082C27.5867 25.6184 27.3328 25.8479 26.9763 25.8479C26.6198 25.8479 26.3707 25.6184 26.3707 25.2082V22.6639C26.3707 21.9411 26.0093 21.5065 25.3061 21.5065C24.6029 21.5065 24.1292 22.0144 24.1292 22.7762V25.2082C24.1292 25.6184 23.8801 25.8479 23.5236 25.8479C23.1671 25.8479 22.9131 25.6183 22.9131 25.2081Z" fill="black"/>
<path d="M29.3979 20.4717C29.0268 20.4717 28.7924 20.7207 28.7924 21.1114V25.2081C28.7924 25.6036 29.0268 25.8478 29.3979 25.8478C29.769 25.8478 30.0083 25.6037 30.0083 25.2081V21.1163C30.0083 20.7208 29.769 20.4718 29.3979 20.4718V20.4717ZM29.3979 19.8467C29.7788 19.8467 30.0766 19.5537 30.0766 19.1875C30.0766 18.8213 29.7787 18.5283 29.3979 18.5283C29.0171 18.5283 28.7241 18.8164 28.7241 19.1875C28.7241 19.5586 29.022 19.8467 29.3979 19.8467Z" fill="black"/>
<path fill-rule="evenodd" clip-rule="evenodd" d="M32.2618 25.8477C31.8956 25.8477 31.6514 25.6231 31.6514 25.2129V21.6535C31.6514 21.5752 31.5879 21.5118 31.5097 21.5118H31.3292C31.0558 21.5118 30.8604 21.3458 30.8604 21.0479C30.8604 20.75 31.0557 20.5889 31.3292 20.5889H31.5097C31.588 20.5889 31.6514 20.5254 31.6514 20.4472V20.1299C31.6514 19.1192 32.1023 18.6505 33.213 18.6505C33.9889 18.6505 34.0097 18.9955 34.0097 19.1583C34.0097 19.3413 33.8989 19.5305 33.7166 19.5785C33.6311 19.601 33.5976 19.6036 33.4725 19.609C33.0285 19.6281 32.8475 19.7492 32.8475 20.1838V20.4473C32.8475 20.5238 32.9081 20.5861 32.9838 20.5889H34.3681C34.3806 20.5883 34.3932 20.588 34.4061 20.588H34.5915C34.6698 20.588 34.7332 20.5245 34.7332 20.4463V19.8833C34.7332 19.4926 34.9676 19.2484 35.3437 19.2484C35.7198 19.2484 35.9493 19.4925 35.9493 19.8833V20.4463C35.9493 20.5246 36.0128 20.588 36.091 20.588H36.5109C36.8136 20.588 36.9993 20.7588 36.9993 21.047C36.9993 21.3352 36.8138 21.5109 36.5109 21.5109H36.091C36.0127 21.5109 35.9493 21.5744 35.9493 21.6526V24.2052C35.9493 24.5959 36.086 24.7668 36.4377 24.7961L36.5256 24.8059C36.8479 24.8352 37.014 24.9719 37.014 25.2552C37.014 25.6116 36.7015 25.8022 36.1448 25.8022H36.096C35.1926 25.8022 34.7335 25.3529 34.7335 24.469H34.7333L34.7332 24.4689V21.6526C34.7332 21.5797 34.6782 21.5198 34.6076 21.5118H33.5131C33.5094 21.5119 33.5056 21.5119 33.5018 21.5119H33.0088C32.9305 21.5119 32.8671 21.5754 32.8671 21.6536V25.213C32.8671 25.6232 32.623 25.8478 32.2616 25.8478L32.2618 25.8477Z" fill="black"/>
</svg>
