<svg width="122" height="55" viewBox="0 0 122 55" fill="none" xmlns="http://www.w3.org/2000/svg">
<path d="M10.0212 37.0324C10.0462 37.6944 10.1992 38.3564 10.4686 38.966C10.7416 39.587 11.1346 40.153 11.6171 40.6291C12.1031 41.1081 12.6791 41.4962 13.3047 41.7707C13.9297 42.0446 14.6037 42.2066 15.2801 42.2498C30.4381 42.6339 45.6011 42.8258 60.7641 42.8256C75.9181 42.8256 91.0721 42.6346 106.221 42.2502C106.897 42.2063 107.571 42.0393 108.193 41.767C108.507 41.629 108.808 41.465 109.091 41.2751C109.374 41.085 109.641 40.8691 109.884 40.6287C110.126 40.3907 110.346 40.1297 110.54 39.8499C110.731 39.5719 110.897 39.2769 111.032 38.9677C111.165 38.6617 111.27 38.3437 111.346 38.0173C111.421 37.6953 111.47 37.3663 111.479 37.0352C111.556 27.1043 111.659 17.1743 111.789 7.24458C111.769 6.52852 111.607 5.80855 111.318 5.14998C111.175 4.821 111 4.50703 110.794 4.2148C110.59 3.92378 110.356 3.65279 110.096 3.40974C109.577 2.92683 108.952 2.55183 108.286 2.30684C107.952 2.18294 107.608 2.09285 107.258 2.03133C106.908 1.96931 106.55 1.93428 106.195 1.93025C75.8991 1.8293 45.6021 1.8293 15.3063 1.93062C14.5983 1.93758 13.8833 2.0666 13.2163 2.31258C12.8823 2.43562 12.5613 2.58858 12.2577 2.77132C11.9527 2.9543 11.6667 3.16829 11.4065 3.41048C11.1455 3.6534 10.9115 3.92439 10.707 4.21651C10.502 4.50948 10.328 4.82356 10.1851 5.15193C10.0411 5.48103 9.92813 5.82295 9.84943 6.17329C9.76942 6.52425 9.72243 6.88423 9.71191 7.24434C9.83891 17.1743 9.94292 27.1043 10.0219 37.0343" stroke="#16215B" stroke-width="0.283" stroke-miterlimit="10"/>
<path d="M13.3936 4.15683H101.73H108.107C109.281 4.15683 110.233 5.10886 110.233 6.28281V38.4819C110.233 39.6556 109.281 40.6075 108.107 40.6075H13.3934C12.2196 40.6076 11.2676 39.6556 11.2676 38.4815L11.2676 6.28293C11.2676 5.10886 12.2196 4.15683 13.3936 4.15683Z" stroke="#00FFFF" stroke-width="0.28" stroke-miterlimit="10"/>
<path d="M110.676 36.5607C110.675 36.7088 110.669 36.8548 110.655 37.0018C110.648 37.0748 110.639 37.1478 110.628 37.2208C110.618 37.2928 110.606 37.3658 110.591 37.4378C110.536 37.7279 110.454 38.0087 110.342 38.2808C110.288 38.4159 110.225 38.5498 110.156 38.6807C110.122 38.7458 110.085 38.8107 110.046 38.8748C110.009 38.9378 109.969 39.0008 109.928 39.0618C109.764 39.3057 109.577 39.5328 109.366 39.7408C109.313 39.7928 109.258 39.8438 109.203 39.8928C109.147 39.9428 109.089 39.9908 109.032 40.0368C108.916 40.1298 108.795 40.2168 108.671 40.2968C108.424 40.4567 108.162 40.5929 107.884 40.7028C107.815 40.7308 107.745 40.7578 107.674 40.7818C107.604 40.8057 107.533 40.8288 107.461 40.8498C107.319 40.8928 107.175 40.9278 107.031 40.9567C106.741 41.0149 106.447 41.0478 106.148 41.0557C75.9149 41.8608 45.5859 41.8608 15.354 41.0557C15.0546 41.0482 14.7586 41.0152 14.4656 40.9561C14.3916 40.9411 14.3196 40.9251 14.2467 40.9072C14.1746 40.8891 14.1016 40.8692 14.0306 40.8482C13.8886 40.8051 13.7486 40.7562 13.6116 40.7011C13.4736 40.6462 13.3397 40.5842 13.2076 40.5162C13.1406 40.4812 13.0756 40.4451 13.0117 40.4082C12.9466 40.3702 12.8827 40.3311 12.8206 40.2901C12.5706 40.1281 12.3406 39.9432 12.1307 39.7352C12.0776 39.6842 12.0266 39.6302 11.9756 39.5761C11.9266 39.5202 11.8776 39.4642 11.8296 39.4072C11.7346 39.2922 11.6466 39.1732 11.5657 39.0512C11.4036 38.8072 11.2666 38.5482 11.1566 38.2752C11.1286 38.2072 11.1027 38.1381 11.0787 38.0682C11.0536 37.9981 11.0316 37.9282 11.0117 37.8571C10.9706 37.7161 10.9356 37.5742 10.9087 37.4312C10.8536 37.1452 10.8256 36.8552 10.8247 36.5611C10.8094 31.7801 10.7924 27.0001 10.7714 22.2191C10.7524 17.439 10.7304 12.658 10.7055 7.87703C10.6968 7.71908 10.6898 7.56112 10.6917 7.40401C10.6937 7.24703 10.7028 7.09005 10.7197 6.93306C10.7288 6.85506 10.7398 6.77706 10.7528 6.69906C10.7647 6.62203 10.7808 6.54403 10.7978 6.46602C10.8317 6.31307 10.8737 6.16207 10.9248 6.01412C10.9748 5.86605 11.0337 5.72103 11.1007 5.57906C11.1347 5.50802 11.1717 5.43905 11.2098 5.3691C11.2477 5.30001 11.2888 5.23201 11.3307 5.16512C11.4987 4.89901 11.6968 4.65706 11.9228 4.43905C11.9777 4.38411 12.0368 4.33101 12.0957 4.28011C12.1567 4.22811 12.2178 4.17806 12.2808 4.12911C12.4078 4.03304 12.5377 3.94405 12.6728 3.86312C12.9427 3.70003 13.2288 3.56612 13.5308 3.45907C13.8327 3.35311 14.1397 3.27608 14.4528 3.22603C14.7647 3.17501 15.0827 3.15011 15.4038 3.14901C44.604 3.04683 73.893 3.04281 103.101 3.13875C103.992 3.14156 104.883 3.14461 105.774 3.14766C105.829 3.14766 105.885 3.14766 105.941 3.14864C105.996 3.14864 106.052 3.14864 106.108 3.14864C106.219 3.14962 106.33 3.15255 106.442 3.15963C106.553 3.16659 106.664 3.17562 106.775 3.18856C106.885 3.20064 106.994 3.21566 107.103 3.23458C107.32 3.27266 107.534 3.32259 107.746 3.38558C107.852 3.41756 107.956 3.45357 108.06 3.49166C108.111 3.51156 108.163 3.53158 108.214 3.55257C108.266 3.57467 108.317 3.59664 108.366 3.61959C108.567 3.71065 108.758 3.81466 108.942 3.93355C109.124 4.05159 109.298 4.18355 109.462 4.33065C109.503 4.36764 109.544 4.40462 109.583 4.44259C109.622 4.48165 109.661 4.52059 109.698 4.55965C109.774 4.63863 109.845 4.72066 109.913 4.80562C110.049 4.97457 110.17 5.15365 110.277 5.34359C110.304 5.39156 110.329 5.43966 110.355 5.48861C110.379 5.53756 110.403 5.58663 110.426 5.63656C110.472 5.73555 110.513 5.83663 110.55 5.93966C110.624 6.14364 110.683 6.35262 110.725 6.56661C110.735 6.62056 110.744 6.67367 110.753 6.7286C110.762 6.78255 110.77 6.83663 110.775 6.89156C110.789 7.00057 110.798 7.10958 110.804 7.21859C110.809 7.32857 110.811 7.43758 110.809 7.54659C110.807 7.65658 110.802 7.76656 110.796 7.87618C110.771 12.6572 110.748 17.4382 110.729 22.2192C110.709 26.9992 110.692 31.7802 110.676 36.5607Z" stroke="#FF00FF" stroke-width="0.283465" stroke-miterlimit="10" stroke-linecap="round" stroke-linejoin="round"/>
<path d="M98.3742 52.01V51.5626L100.055 49.7231C100.252 49.5077 100.414 49.3204 100.542 49.1613C100.669 49.0006 100.764 48.8498 100.825 48.7089C100.888 48.5664 100.92 48.4172 100.92 48.2615C100.92 48.0825 100.877 47.9275 100.79 47.7966C100.706 47.6657 100.59 47.5646 100.442 47.4933C100.295 47.4221 100.129 47.3865 99.9452 47.3865C99.7496 47.3865 99.5789 47.4271 99.4331 47.5083C99.2889 47.5878 99.1771 47.6997 99.0975 47.8438C99.0196 47.988 98.9807 48.1571 98.9807 48.3509H98.394C98.394 48.0527 98.4628 47.7908 98.6004 47.5654C98.7379 47.3401 98.9252 47.1644 99.1622 47.0384C99.4008 46.9125 99.6684 46.8495 99.9651 46.8495C100.263 46.8495 100.528 46.9125 100.758 47.0384C100.988 47.1644 101.169 47.3343 101.3 47.548C101.431 47.7618 101.496 47.9996 101.496 48.2615C101.496 48.4487 101.462 48.6318 101.394 48.8108C101.328 48.9881 101.212 49.1862 101.046 49.4049C100.882 49.622 100.654 49.8872 100.363 50.2004L99.2193 51.4234V51.4632H101.586V52.01H98.3742ZM103.05 52.0498C102.927 52.0498 102.822 52.0059 102.734 51.9181C102.646 51.8302 102.602 51.725 102.602 51.6024C102.602 51.4797 102.646 51.3745 102.734 51.2867C102.822 51.1988 102.927 51.1549 103.05 51.1549C103.173 51.1549 103.278 51.1988 103.366 51.2867C103.453 51.3745 103.497 51.4797 103.497 51.6024C103.497 51.6836 103.477 51.7581 103.435 51.8261C103.395 51.894 103.342 51.9487 103.274 51.9902C103.207 52.0299 103.133 52.0498 103.05 52.0498ZM104.54 52.01V51.5626L106.221 49.7231C106.418 49.5077 106.58 49.3204 106.708 49.1613C106.835 49.0006 106.93 48.8498 106.991 48.7089C107.054 48.5664 107.086 48.4172 107.086 48.2615C107.086 48.0825 107.043 47.9275 106.956 47.7966C106.872 47.6657 106.756 47.5646 106.608 47.4933C106.461 47.4221 106.295 47.3865 106.111 47.3865C105.916 47.3865 105.745 47.4271 105.599 47.5083C105.455 47.5878 105.343 47.6997 105.264 47.8438C105.186 47.988 105.147 48.1571 105.147 48.3509H104.56C104.56 48.0527 104.629 47.7908 104.766 47.5654C104.904 47.3401 105.091 47.1644 105.328 47.0384C105.567 46.9125 105.834 46.8495 106.131 46.8495C106.429 46.8495 106.694 46.9125 106.924 47.0384C107.154 47.1644 107.335 47.3343 107.466 47.548C107.597 47.7618 107.662 47.9996 107.662 48.2615C107.662 48.4487 107.628 48.6318 107.56 48.8108C107.494 48.9881 107.378 49.1862 107.212 49.4049C107.048 49.622 106.82 49.8872 106.529 50.2004L105.385 51.4234V51.4632H107.752V52.01H104.54ZM110.369 52.0796C110.078 52.0796 109.815 52.0216 109.581 51.9056C109.348 51.7896 109.16 51.6305 109.02 51.4284C108.879 51.2262 108.802 50.9958 108.788 50.7373H109.385C109.408 50.9677 109.513 51.1582 109.698 51.309C109.885 51.4582 110.109 51.5328 110.369 51.5328C110.578 51.5328 110.764 51.4839 110.926 51.3861C111.09 51.2883 111.219 51.1541 111.311 50.9834C111.406 50.8111 111.453 50.6163 111.453 50.3992C111.453 50.1772 111.404 49.9791 111.307 49.8051C111.21 49.6295 111.078 49.4911 110.909 49.39C110.74 49.2889 110.547 49.2375 110.33 49.2359C110.174 49.2342 110.014 49.2583 109.85 49.308C109.686 49.356 109.551 49.4182 109.445 49.4944L108.868 49.4248L109.176 46.9191H111.821V47.466H109.693L109.514 48.9674H109.544C109.648 48.8846 109.779 48.8158 109.937 48.7611C110.094 48.7064 110.258 48.6791 110.429 48.6791C110.741 48.6791 111.018 48.7536 111.262 48.9028C111.507 49.0503 111.699 49.2525 111.838 49.5093C111.979 49.7662 112.05 50.0595 112.05 50.3893C112.05 50.7141 111.977 51.0041 111.831 51.2593C111.687 51.5129 111.488 51.7134 111.234 51.8609C110.981 52.0067 110.693 52.0796 110.369 52.0796Z" fill="#0000FF"/>
<path d="M18.6006 25.8673C17.1943 25.8673 16.2568 25.2814 15.9834 24.4806C15.9395 24.3634 15.915 24.2365 15.915 24.1193C15.915 23.7677 16.1396 23.5431 16.4716 23.5431C16.7499 23.5431 16.9257 23.6554 17.0624 23.9386C17.2821 24.549 17.8876 24.8224 18.6396 24.8224C19.4892 24.8224 20.0849 24.4025 20.0849 23.8165C20.0849 23.3087 19.7333 22.9962 18.8154 22.8057L18.0586 22.6494C16.6475 22.3613 15.9883 21.6972 15.9883 20.667C15.9883 19.4268 17.0772 18.5869 18.6055 18.5869C19.8506 18.5869 20.8174 19.1435 21.1055 20.0762C21.1348 20.1543 21.1494 20.2471 21.1494 20.3643C21.1494 20.6719 20.9297 20.8819 20.6025 20.8819C20.3095 20.8819 20.1289 20.7549 19.997 20.4815C19.7577 19.8858 19.2548 19.6319 18.5956 19.6319C17.8143 19.6319 17.2577 20.003 17.2577 20.5938C17.2577 21.0723 17.6093 21.3799 18.4882 21.5655L19.245 21.7218C20.7294 22.0294 21.3544 22.6251 21.3544 23.6701C21.3544 25.0178 20.2948 25.8674 18.6005 25.8674L18.6006 25.8673Z" fill="black"/>
<path d="M23.0245 25.8477C22.6681 25.8477 22.4141 25.6182 22.4141 25.208V19.2314C22.4141 18.8457 22.6436 18.6064 23.0147 18.6064C23.3858 18.6064 23.6153 18.8457 23.6153 19.2314V20.7573C23.6153 20.8625 23.7258 20.9311 23.8199 20.8843C24.1248 20.7327 24.5792 20.4766 25.2754 20.4766C26.418 20.4766 27.0869 21.2286 27.0869 22.4151V25.2081C27.0869 25.6183 26.833 25.8478 26.4765 25.8478C26.12 25.8478 25.871 25.6183 25.871 25.2081V22.6641C25.871 21.9414 25.5097 21.5069 24.8065 21.5069C24.1033 21.5069 23.6297 22.0147 23.6297 22.7764V25.2081C23.6297 25.6183 23.3807 25.8478 23.0242 25.8478L23.0245 25.8477Z" fill="black"/>
<path d="M28.8979 20.4717C28.5268 20.4717 28.2924 20.7207 28.2924 21.1114V25.2081C28.2924 25.6036 28.5268 25.8478 28.8979 25.8478C29.269 25.8478 29.5083 25.6037 29.5083 25.2081V21.1163C29.5083 20.7208 29.269 20.4718 28.8979 20.4718V20.4717ZM28.8979 19.8467C29.2788 19.8467 29.5766 19.5537 29.5766 19.1875C29.5766 18.8213 29.2787 18.5283 28.8979 18.5283C28.5171 18.5283 28.2241 18.8164 28.2241 19.1875C28.2241 19.5586 28.522 19.8467 28.8979 19.8467Z" fill="black"/>
<g clip-path="url(#clip0_283_1393170)">
<path d="M36.0252 24.8071L35.9373 24.7973C35.5857 24.768 35.449 24.5971 35.449 24.2065V21.6529C35.449 21.5746 35.5125 21.5112 35.5907 21.5112H36.0105C36.3132 21.5112 36.4988 21.3305 36.4988 21.0376C36.4988 20.7447 36.3133 20.5737 36.0105 20.5737H35.5907C35.5124 20.5737 35.449 20.5102 35.449 20.432V19.8852C35.449 19.4946 35.2146 19.2504 34.8435 19.2504C34.4724 19.2504 34.2331 19.4945 34.2331 19.8852V20.432C34.2331 20.5103 34.1696 20.5737 34.0914 20.5737H32.4903C32.4122 20.5737 32.3489 20.5106 32.3486 20.4325L32.3476 20.1836C32.3476 19.749 32.5283 19.5537 32.9726 19.5439C33.08 19.539 33.163 19.5293 33.2412 19.5097C33.4219 19.456 33.5098 19.3437 33.5098 19.1581C33.5098 18.8554 33.2217 18.6503 32.5772 18.6503C31.6446 18.6553 31.1514 19.1192 31.1514 20.1299V20.4319C31.1514 20.5102 31.0879 20.5736 31.0097 20.5736H30.8487C30.546 20.5736 30.3604 20.7494 30.3604 21.0375C30.3604 21.3256 30.5459 21.5111 30.8487 21.5111H31.0097C31.088 21.5111 31.1514 21.5746 31.1514 21.6528V25.2128C31.1514 25.623 31.3955 25.8476 31.7618 25.8476C32.1281 25.8476 32.3673 25.623 32.3673 25.2128L32.3535 21.6533C32.3532 21.5748 32.4167 21.511 32.4952 21.511H34.0915C34.1698 21.511 34.2332 21.5745 34.2332 21.6527V24.47C34.2332 25.3538 34.6922 25.803 35.5955 25.803H35.6443C36.2009 25.803 36.5135 25.6126 36.5135 25.2561C36.5135 24.9729 36.3475 24.8362 36.0252 24.8069V24.8071Z" fill="black"/>
</g>
<defs>
<clipPath id="clip0_283_1393170">
<rect width="6.1531" height="7.1973" fill="white" transform="translate(30.3604 18.6504)"/>
</clipPath>
</defs>
</svg>
