<svg width="122" height="54" viewBox="0 0 122 54" fill="none" xmlns="http://www.w3.org/2000/svg">
<rect x="2.3501" y="1.84998" width="117.8" height="50.3" rx="3" stroke="#16215B" stroke-width="0.28"/>
<path d="M10.5212 37.0325C10.5462 37.6944 10.6992 38.3564 10.9686 38.966C11.2416 39.587 11.6346 40.1531 12.1171 40.6291C12.6031 41.1081 13.1791 41.4962 13.8047 41.7707C14.4297 42.0447 15.1037 42.2066 15.7801 42.2499C30.9381 42.6339 46.1011 42.8258 61.2641 42.8257C76.4181 42.8257 91.5721 42.6346 106.721 42.2502C107.397 42.2063 108.071 42.0393 108.693 41.7671C109.007 41.629 109.308 41.4651 109.591 41.2751C109.874 41.0851 110.141 40.8691 110.385 40.6288C110.627 40.3907 110.847 40.1297 111.04 39.85C111.231 39.5719 111.397 39.277 111.532 38.9678C111.665 38.6617 111.77 38.3437 111.846 38.0173C111.921 37.6953 111.97 37.3663 111.979 37.0353C112.056 27.1044 112.159 17.1743 112.289 7.24461C112.269 6.52855 112.107 5.80858 111.818 5.15001C111.675 4.82103 111.5 4.50706 111.294 4.21483C111.09 3.92381 110.856 3.65282 110.596 3.40977C110.077 2.92686 109.452 2.55186 108.786 2.30687C108.452 2.18297 108.108 2.09288 107.758 2.03136C107.408 1.96935 107.05 1.93431 106.695 1.93028C76.3991 1.82933 46.1021 1.82933 15.8063 1.93065C15.0983 1.93761 14.3833 2.06664 13.7163 2.31261C13.3823 2.43565 13.0613 2.58861 12.7577 2.77135C12.4527 2.95433 12.1667 3.16832 11.9065 3.41051C11.6455 3.65343 11.4115 3.92442 11.207 4.21654C11.002 4.50951 10.828 4.82359 10.6851 5.15196C10.5411 5.48106 10.4281 5.82298 10.3494 6.17332C10.2694 6.52428 10.2224 6.88426 10.2119 7.24437C10.3389 17.1743 10.4429 27.1044 10.5219 37.0343" stroke="#16215B" stroke-width="0.283" stroke-miterlimit="10"/>
<path d="M13.8936 4.15686H102.23H108.607C109.781 4.15686 110.733 5.10889 110.733 6.28284V38.4819C110.733 39.6556 109.781 40.6075 108.607 40.6075H13.8934C12.7196 40.6077 11.7676 39.6556 11.7676 38.4816L11.7676 6.28296C11.7676 5.10889 12.7196 4.15686 13.8936 4.15686Z" stroke="#00FFFF" stroke-width="0.28" stroke-miterlimit="10"/>
<path d="M111.176 36.5607C111.175 36.7088 111.169 36.8548 111.155 37.0018C111.148 37.0748 111.139 37.1478 111.128 37.2208C111.118 37.2928 111.106 37.3658 111.091 37.4378C111.036 37.7278 110.954 38.0087 110.842 38.2808C110.788 38.4158 110.725 38.5497 110.656 38.6807C110.622 38.7458 110.585 38.8107 110.546 38.8748C110.509 38.9378 110.469 39.0008 110.428 39.0618C110.264 39.3057 110.077 39.5328 109.866 39.7408C109.813 39.7928 109.758 39.8438 109.703 39.8927C109.647 39.9428 109.589 39.9908 109.532 40.0368C109.416 40.1298 109.295 40.2167 109.171 40.2968C108.924 40.4567 108.662 40.5928 108.384 40.7028C108.315 40.7308 108.245 40.7577 108.174 40.7818C108.104 40.8057 108.033 40.8288 107.961 40.8498C107.819 40.8927 107.675 40.9278 107.531 40.9567C107.241 41.0148 106.947 41.0478 106.648 41.0557C76.4149 41.8608 46.0859 41.8608 15.854 41.0557C15.5546 41.0481 15.2586 41.0152 14.9656 40.9561C14.8916 40.9411 14.8196 40.9251 14.7467 40.9072C14.6746 40.8891 14.6016 40.8692 14.5306 40.8482C14.3886 40.8051 14.2486 40.7562 14.1116 40.7011C13.9736 40.6462 13.8397 40.5842 13.7076 40.5162C13.6406 40.4811 13.5756 40.4451 13.5117 40.4081C13.4466 40.3702 13.3827 40.3311 13.3206 40.2901C13.0706 40.1281 12.8406 39.9432 12.6307 39.7352C12.5776 39.6841 12.5266 39.6302 12.4756 39.5761C12.4266 39.5202 12.3776 39.4642 12.3296 39.4072C12.2346 39.2922 12.1466 39.1731 12.0657 39.0512C11.9036 38.8072 11.7666 38.5481 11.6566 38.2752C11.6286 38.2072 11.6027 38.1381 11.5787 38.0682C11.5536 37.9981 11.5316 37.9282 11.5117 37.8571C11.4706 37.7161 11.4356 37.5741 11.4087 37.4312C11.3536 37.1452 11.3256 36.8552 11.3247 36.5611C11.3094 31.7801 11.2924 27.0001 11.2714 22.219C11.2524 17.439 11.2304 12.658 11.2055 7.877C11.1968 7.71904 11.1898 7.56109 11.1917 7.40398C11.1937 7.247 11.2028 7.09002 11.2197 6.93303C11.2288 6.85503 11.2398 6.77703 11.2528 6.69903C11.2647 6.622 11.2808 6.544 11.2978 6.46599C11.3317 6.31304 11.3737 6.16204 11.4248 6.01409C11.4748 5.86602 11.5337 5.721 11.6007 5.57903C11.6347 5.50799 11.6717 5.43902 11.7098 5.36907C11.7477 5.29998 11.7888 5.23198 11.8307 5.16509C11.9987 4.89898 12.1968 4.65703 12.4228 4.43902C12.4777 4.38408 12.5368 4.33098 12.5957 4.28008C12.6567 4.22808 12.7178 4.17803 12.7808 4.12908C12.9078 4.03301 13.0377 3.94402 13.1728 3.86309C13.4427 3.7 13.7288 3.56609 14.0308 3.45904C14.3327 3.35308 14.6397 3.27605 14.9528 3.226C15.2647 3.17498 15.5827 3.15008 15.9038 3.14898C45.104 3.0468 74.393 3.04278 103.601 3.13872C104.492 3.14153 105.383 3.14458 106.274 3.14763C106.329 3.14763 106.385 3.14763 106.441 3.14861C106.496 3.14861 106.552 3.14861 106.608 3.14861C106.719 3.14959 106.83 3.15252 106.942 3.1596C107.053 3.16655 107.164 3.17559 107.275 3.18853C107.385 3.20061 107.494 3.21563 107.603 3.23455C107.82 3.27263 108.034 3.32256 108.246 3.38555C108.352 3.41753 108.456 3.45354 108.56 3.49163C108.611 3.51153 108.663 3.53154 108.714 3.55254C108.766 3.57464 108.817 3.59661 108.866 3.61956C109.067 3.71062 109.258 3.81463 109.442 3.93352C109.624 4.05156 109.798 4.18352 109.962 4.33062C110.003 4.3676 110.044 4.40459 110.083 4.44256C110.122 4.48162 110.161 4.52056 110.198 4.55962C110.274 4.6386 110.345 4.72063 110.413 4.80559C110.549 4.97454 110.67 5.15362 110.777 5.34356C110.804 5.39153 110.829 5.43963 110.855 5.48858C110.879 5.53753 110.903 5.5866 110.926 5.63653C110.972 5.73552 111.013 5.8366 111.05 5.93963C111.124 6.14361 111.183 6.35259 111.225 6.56658C111.235 6.62053 111.244 6.67363 111.253 6.72857C111.262 6.78252 111.27 6.8366 111.275 6.89153C111.289 7.00054 111.298 7.10955 111.304 7.21856C111.309 7.32854 111.311 7.43755 111.309 7.54656C111.307 7.65654 111.302 7.76653 111.296 7.87615C111.271 12.6572 111.248 17.4382 111.229 22.2192C111.209 26.9992 111.192 31.7802 111.176 36.5607Z" stroke="#FF00FF" stroke-width="0.283465" stroke-miterlimit="10" stroke-linecap="round" stroke-linejoin="round"/>
<path d="M104.874 50.01V49.5626L106.555 47.7231C106.752 47.5076 106.914 47.3204 107.042 47.1613C107.169 47.0005 107.264 46.8497 107.325 46.7089C107.388 46.5664 107.42 46.4172 107.42 46.2614C107.42 46.0825 107.377 45.9275 107.29 45.7966C107.206 45.6657 107.09 45.5646 106.942 45.4933C106.795 45.4221 106.629 45.3864 106.445 45.3864C106.25 45.3864 106.079 45.427 105.933 45.5082C105.789 45.5878 105.677 45.6996 105.598 45.8438C105.52 45.988 105.481 46.157 105.481 46.3509H104.894C104.894 46.0526 104.963 45.7908 105.1 45.5654C105.238 45.34 105.425 45.1644 105.662 45.0384C105.901 44.9125 106.168 44.8495 106.465 44.8495C106.763 44.8495 107.028 44.9125 107.258 45.0384C107.488 45.1644 107.669 45.3342 107.8 45.548C107.931 45.7618 107.996 45.9996 107.996 46.2614C107.996 46.4487 107.962 46.6318 107.894 46.8108C107.828 46.9881 107.712 47.1861 107.546 47.4049C107.382 47.622 107.154 47.8871 106.863 48.2004L105.719 49.4234V49.4631H108.086V50.01H104.874ZM109.55 50.0498C109.427 50.0498 109.322 50.0059 109.234 49.918C109.146 49.8302 109.102 49.725 109.102 49.6023C109.102 49.4797 109.146 49.3745 109.234 49.2866C109.322 49.1988 109.427 49.1549 109.55 49.1549C109.673 49.1549 109.778 49.1988 109.866 49.2866C109.953 49.3745 109.997 49.4797 109.997 49.6023C109.997 49.6835 109.977 49.7581 109.935 49.8261C109.895 49.894 109.842 49.9487 109.774 49.9901C109.707 50.0299 109.633 50.0498 109.55 50.0498ZM111.04 50.01V49.5626L112.721 47.7231C112.918 47.5076 113.08 47.3204 113.208 47.1613C113.335 47.0005 113.43 46.8497 113.491 46.7089C113.554 46.5664 113.586 46.4172 113.586 46.2614C113.586 46.0825 113.543 45.9275 113.456 45.7966C113.372 45.6657 113.256 45.5646 113.108 45.4933C112.961 45.4221 112.795 45.3864 112.611 45.3864C112.416 45.3864 112.245 45.427 112.099 45.5082C111.955 45.5878 111.843 45.6996 111.764 45.8438C111.686 45.988 111.647 46.157 111.647 46.3509H111.06C111.06 46.0526 111.129 45.7908 111.266 45.5654C111.404 45.34 111.591 45.1644 111.828 45.0384C112.067 44.9125 112.334 44.8495 112.631 44.8495C112.929 44.8495 113.194 44.9125 113.424 45.0384C113.654 45.1644 113.835 45.3342 113.966 45.548C114.097 45.7618 114.162 45.9996 114.162 46.2614C114.162 46.4487 114.128 46.6318 114.06 46.8108C113.994 46.9881 113.878 47.1861 113.712 47.4049C113.548 47.622 113.32 47.8871 113.029 48.2004L111.885 49.4234V49.4631H114.252V50.01H111.04ZM116.869 50.0796C116.578 50.0796 116.315 50.0216 116.081 49.9056C115.848 49.7896 115.66 49.6305 115.52 49.4283C115.379 49.2262 115.302 48.9958 115.288 48.7373H115.885C115.908 48.9676 116.013 49.1582 116.198 49.309C116.385 49.4582 116.609 49.5327 116.869 49.5327C117.078 49.5327 117.264 49.4838 117.426 49.3861C117.59 49.2883 117.719 49.1541 117.811 48.9834C117.906 48.811 117.953 48.6163 117.953 48.3992C117.953 48.1771 117.904 47.9791 117.807 47.8051C117.71 47.6294 117.578 47.4911 117.409 47.39C117.24 47.2889 117.047 47.2375 116.83 47.2359C116.674 47.2342 116.514 47.2582 116.35 47.308C116.186 47.356 116.051 47.4182 115.945 47.4944L115.368 47.4248L115.676 44.9191H118.321V45.466H116.193L116.014 46.9674H116.044C116.148 46.8845 116.279 46.8158 116.437 46.7611C116.594 46.7064 116.758 46.679 116.929 46.679C117.241 46.679 117.518 46.7536 117.762 46.9028C118.007 47.0503 118.199 47.2524 118.338 47.5093C118.479 47.7662 118.55 48.0595 118.55 48.3893C118.55 48.7141 118.477 49.0041 118.331 49.2593C118.187 49.5129 117.988 49.7134 117.734 49.8609C117.481 50.0067 117.193 50.0796 116.869 50.0796Z" fill="#0000FF"/>
<path d="M19.1006 25.8673C17.6943 25.8673 16.7568 25.2814 16.4834 24.4806C16.4395 24.3634 16.415 24.2365 16.415 24.1193C16.415 23.7677 16.6396 23.5431 16.9716 23.5431C17.2499 23.5431 17.4257 23.6554 17.5624 23.9386C17.7821 24.549 18.3876 24.8224 19.1396 24.8224C19.9892 24.8224 20.5849 24.4025 20.5849 23.8165C20.5849 23.3087 20.2333 22.9962 19.3154 22.8057L18.5586 22.6494C17.1475 22.3613 16.4883 21.6972 16.4883 20.667C16.4883 19.4268 17.5772 18.5869 19.1055 18.5869C20.3506 18.5869 21.3174 19.1435 21.6055 20.0762C21.6348 20.1543 21.6494 20.2471 21.6494 20.3643C21.6494 20.6719 21.4297 20.8819 21.1025 20.8819C20.8095 20.8819 20.6289 20.7549 20.497 20.4815C20.2577 19.8858 19.7548 19.6319 19.0956 19.6319C18.3143 19.6319 17.7577 20.003 17.7577 20.5938C17.7577 21.0723 18.1093 21.3799 18.9882 21.5655L19.745 21.7218C21.2294 22.0294 21.8544 22.6251 21.8544 23.6701C21.8544 25.0178 20.7948 25.8674 19.1005 25.8674L19.1006 25.8673Z" fill="black"/>
<path d="M22.9131 25.2081V19.2307C22.9131 18.8449 23.1426 18.6056 23.5138 18.6056C23.885 18.6056 24.1145 18.8449 24.1145 19.2307V20.7064C24.1145 20.8096 24.2211 20.8782 24.315 20.8354C24.6103 20.7008 25.1908 20.476 25.7749 20.476C26.9176 20.476 27.5867 21.2281 27.5867 22.4148V25.2082C27.5867 25.6184 27.3328 25.8479 26.9763 25.8479C26.6198 25.8479 26.3707 25.6184 26.3707 25.2082V22.6639C26.3707 21.9411 26.0093 21.5065 25.3061 21.5065C24.6029 21.5065 24.1292 22.0144 24.1292 22.7762V25.2082C24.1292 25.6184 23.8801 25.8479 23.5236 25.8479C23.1671 25.8479 22.9131 25.6183 22.9131 25.2081Z" fill="black"/>
<path d="M29.3979 20.4717C29.0268 20.4717 28.7924 20.7207 28.7924 21.1114V25.2081C28.7924 25.6036 29.0268 25.8478 29.3979 25.8478C29.769 25.8478 30.0083 25.6037 30.0083 25.2081V21.1163C30.0083 20.7208 29.769 20.4718 29.3979 20.4718V20.4717ZM29.3979 19.8467C29.7788 19.8467 30.0766 19.5537 30.0766 19.1875C30.0766 18.8213 29.7787 18.5283 29.3979 18.5283C29.0171 18.5283 28.7241 18.8164 28.7241 19.1875C28.7241 19.5586 29.022 19.8467 29.3979 19.8467Z" fill="black"/>
<path fill-rule="evenodd" clip-rule="evenodd" d="M32.2618 25.8477C31.8956 25.8477 31.6514 25.6231 31.6514 25.2129V21.6535C31.6514 21.5752 31.5879 21.5118 31.5097 21.5118H31.3292C31.0558 21.5118 30.8604 21.3458 30.8604 21.0479C30.8604 20.75 31.0557 20.5889 31.3292 20.5889H31.5097C31.588 20.5889 31.6514 20.5254 31.6514 20.4472V20.1299C31.6514 19.1192 32.1023 18.6505 33.213 18.6505C33.9889 18.6505 34.0097 18.9955 34.0097 19.1583C34.0097 19.3413 33.8989 19.5305 33.7166 19.5785C33.6311 19.601 33.5976 19.6036 33.4725 19.609C33.0285 19.6281 32.8475 19.7492 32.8475 20.1838V20.4473C32.8475 20.5238 32.9081 20.5861 32.9838 20.5889H34.3681C34.3806 20.5883 34.3932 20.588 34.4061 20.588H34.5915C34.6698 20.588 34.7332 20.5245 34.7332 20.4463V19.8833C34.7332 19.4926 34.9676 19.2484 35.3437 19.2484C35.7198 19.2484 35.9493 19.4925 35.9493 19.8833V20.4463C35.9493 20.5246 36.0128 20.588 36.091 20.588H36.5109C36.8136 20.588 36.9993 20.7588 36.9993 21.047C36.9993 21.3352 36.8138 21.5109 36.5109 21.5109H36.091C36.0127 21.5109 35.9493 21.5744 35.9493 21.6526V24.2052C35.9493 24.5959 36.086 24.7668 36.4377 24.7961L36.5256 24.8059C36.8479 24.8352 37.014 24.9719 37.014 25.2552C37.014 25.6116 36.7015 25.8022 36.1448 25.8022H36.096C35.1926 25.8022 34.7335 25.3529 34.7335 24.469H34.7333L34.7332 24.4689V21.6526C34.7332 21.5797 34.6782 21.5198 34.6076 21.5118H33.5131C33.5094 21.5119 33.5056 21.5119 33.5018 21.5119H33.0088C32.9305 21.5119 32.8671 21.5754 32.8671 21.6536V25.213C32.8671 25.6232 32.623 25.8478 32.2616 25.8478L32.2618 25.8477Z" fill="black"/>
</svg>
