<svg width="95" height="55" viewBox="0 0 95 55" fill="none" xmlns="http://www.w3.org/2000/svg">
<path d="M10.4081 37.0565C10.4321 37.7185 10.584 38.3815 10.8498 38.9938C11.1218 39.6169 11.5108 40.1858 11.9894 40.6656C12.4725 41.1505 13.0445 41.5436 13.6692 41.8247C14.2902 42.1037 14.9622 42.2716 15.6375 42.3184C26.3384 42.6734 37.0444 42.8513 47.7508 42.8517C58.4578 42.8517 69.1638 42.6737 79.8646 42.3186C80.5385 42.2707 81.2115 42.0977 81.83 41.8196C82.143 41.6797 82.4431 41.5127 82.7242 41.3199C83.0052 41.1269 83.2702 40.9079 83.5126 40.6662C83.7526 40.4252 83.9706 40.1623 84.1628 39.88C84.3519 39.601 84.5168 39.304 84.6497 38.9943C84.7167 38.8393 84.7757 38.6823 84.8273 38.5229C84.8793 38.3649 84.9243 38.2049 84.9612 38.0419C85.0363 37.7189 85.0853 37.3889 85.0938 37.0575C85.1708 27.1265 85.2728 17.1945 85.4016 7.26358C85.3876 6.71964 85.2916 6.17459 85.1219 5.65445C84.9529 5.13943 84.7089 4.64737 84.3973 4.20535C84.2413 3.98428 84.0693 3.7764 83.8809 3.58304C83.6938 3.39102 83.4919 3.21402 83.2748 3.05325C82.8448 2.73318 82.3639 2.47818 81.8613 2.29691C81.3863 2.12991 80.8873 2.02493 80.3863 1.97757C80.2183 1.96255 80.0503 1.95255 79.8816 1.95047C58.4615 1.85648 37.0406 1.85648 15.6202 1.95023C14.9182 1.95828 14.2112 2.08719 13.5491 2.3378C12.8901 2.5878 12.2741 2.95877 11.764 3.44205C11.2499 3.92801 10.845 4.52701 10.563 5.18057C10.2791 5.83951 10.1201 6.55252 10.0996 7.26395C10.2256 17.195 10.3286 27.126 10.4077 37.0579" stroke="#16215B" stroke-width="0.283" stroke-miterlimit="10"/>
<path d="M81.533 40.8397H13.9791C12.804 40.8398 11.853 39.8878 11.853 38.7137C11.853 38.7141 11.853 6.47296 11.853 6.47296C11.853 5.29901 12.804 4.34698 13.9791 4.34698C13.979 4.34698 17.522 4.34698 17.522 4.34698C17.5219 4.34698 77.9899 4.34698 77.9899 4.34698C77.9897 4.34698 81.5327 4.34698 81.5327 4.34698C82.7077 4.34698 83.6588 5.29901 83.6588 6.47272C83.6588 6.47272 83.6588 38.7137 83.6587 38.7137C83.6587 39.8878 82.708 40.8397 81.533 40.8397ZM81.533 40.8397L81.5308 40.6683C81.5618 40.6673 81.5928 40.6663 81.6248 40.6653" stroke="#00FFFF" stroke-width="0.28" stroke-miterlimit="10"/>
<path d="M84.1267 36.5974C84.1257 36.8904 84.0977 37.1814 84.0438 37.4693C83.9887 37.7584 83.9077 38.0384 83.7997 38.3094C83.7457 38.4454 83.6847 38.5784 83.6177 38.7093C83.5837 38.7744 83.5477 38.8393 83.5107 38.9034C83.4737 38.9674 83.4347 39.0304 83.3937 39.0914C83.2338 39.3374 83.0507 39.5654 82.8437 39.7754C82.7907 39.8284 82.7377 39.8794 82.6827 39.9294C82.6287 39.9794 82.5717 40.0284 82.5147 40.0754C82.3997 40.1694 82.2817 40.2574 82.1597 40.3393C81.9157 40.5024 81.6567 40.6413 81.3837 40.7554C81.3148 40.7844 81.2457 40.8114 81.1757 40.8364C81.1047 40.8624 81.0347 40.8863 80.9647 40.9084C80.8237 40.9514 80.6818 40.9884 80.5377 41.0194C80.2497 41.0804 79.9578 41.1164 79.6611 41.1263C58.4281 41.8644 37.0831 41.8644 15.8513 41.1261C15.5543 41.1161 15.2593 41.0801 14.9693 41.0181C14.8963 41.003 14.8233 40.9851 14.7513 40.9671C14.6803 40.9481 14.6093 40.9271 14.5383 40.9051C14.3982 40.8611 14.2593 40.81 14.1233 40.7541C13.9883 40.6971 13.8543 40.633 13.7243 40.5631C13.6583 40.5281 13.5933 40.4911 13.5303 40.4521C13.4663 40.414 13.4043 40.3741 13.3423 40.3331C13.0963 40.1671 12.8703 39.9801 12.6633 39.7701C12.6123 39.7181 12.5622 39.664 12.5123 39.6091C12.4633 39.5541 12.4153 39.4961 12.3683 39.4391C12.2763 39.3231 12.1903 39.2041 12.1113 39.081C11.9513 38.836 11.8183 38.5771 11.7093 38.305C11.6833 38.2361 11.6573 38.1671 11.6333 38.097C11.6103 38.0281 11.5873 37.9581 11.5683 37.888C11.5273 37.7471 11.4933 37.6061 11.4673 37.4631C11.4133 37.1791 11.3863 36.8891 11.3852 36.597C11.3692 31.8131 11.3522 27.0281 11.3322 22.244C11.3122 17.4601 11.2892 12.675 11.2646 7.89146C11.2556 7.73351 11.2496 7.5775 11.2506 7.42149C11.2526 7.26549 11.2616 7.10948 11.2776 6.95445C11.2866 6.87645 11.2976 6.79955 11.3096 6.72252C11.3216 6.64452 11.3366 6.56749 11.3526 6.49144C11.3866 6.33849 11.4266 6.18846 11.4766 6.04149C11.5246 5.89452 11.5816 5.75047 11.6466 5.60948C11.6806 5.53954 11.7146 5.47044 11.7516 5.40147C11.7886 5.3325 11.8276 5.26451 11.8686 5.19749C12.0326 4.93248 12.2246 4.68944 12.4436 4.47154C12.4986 4.41551 12.5556 4.36253 12.6136 4.31053C12.6436 4.28551 12.6736 4.25951 12.7026 4.23351C12.7326 4.20848 12.7646 4.18456 12.7946 4.15953C12.9176 4.06248 13.0456 3.97252 13.1786 3.89049C13.4416 3.72545 13.7246 3.58946 14.0206 3.48045C14.3186 3.37254 14.6226 3.29454 14.9316 3.24254C15.2396 3.19054 15.5546 3.16454 15.8722 3.16344C37.0902 3.06554 58.4212 3.06554 79.6395 3.16356C79.9265 3.16454 80.2105 3.18553 80.4895 3.22752C80.7695 3.27061 81.0445 3.3336 81.3145 3.42052C81.3835 3.44261 81.4505 3.46654 81.5175 3.49156C81.5845 3.51561 81.6495 3.54259 81.7155 3.56956C81.8465 3.6256 81.9735 3.68651 82.0975 3.75255C82.2215 3.81956 82.3415 3.89159 82.4575 3.97057C82.5165 4.00963 82.5735 4.05052 82.6305 4.09361C82.6875 4.1356 82.7425 4.17955 82.7975 4.22459C83.0155 4.4066 83.2105 4.60655 83.3835 4.82555C83.4695 4.93456 83.5495 5.04955 83.6245 5.16856C83.6615 5.22752 83.6975 5.28856 83.7315 5.35057C83.7665 5.41161 83.7995 5.47459 83.8295 5.53758C83.9535 5.78954 84.0495 6.0526 84.1195 6.32457C84.1365 6.39159 84.1525 6.46056 84.1665 6.52953C84.1815 6.59862 84.1935 6.66856 84.2045 6.73851C84.2275 6.87852 84.2415 7.01854 84.2515 7.16014C84.2255 12.0671 84.2015 16.9731 84.1815 21.8791C84.1605 26.7851 84.1425 31.6911 84.1255 36.597" stroke="#FF00FF" stroke-width="0.283465" stroke-miterlimit="10" stroke-linecap="round" stroke-linejoin="round"/>
<path d="M75.3588 46.9191V52.01H74.7423V47.5654H74.7124L73.4695 48.3907V47.7643L74.7423 46.9191H75.3588ZM76.9596 52.0498C76.837 52.0498 76.7317 52.0059 76.6439 51.918C76.5561 51.8302 76.5122 51.725 76.5122 51.6023C76.5122 51.4797 76.5561 51.3745 76.6439 51.2866C76.7317 51.1988 76.837 51.1549 76.9596 51.1549C77.0822 51.1549 77.1875 51.1988 77.2753 51.2866C77.3631 51.3745 77.407 51.4797 77.407 51.6023C77.407 51.6835 77.3863 51.7581 77.3449 51.8261C77.3051 51.894 77.2513 51.9487 77.1833 51.9901C77.117 52.0299 77.0425 52.0498 76.9596 52.0498ZM78.5064 52.01L80.7834 47.5057V47.466H78.1584V46.9191H81.4197V47.4958L79.1527 52.01H78.5064ZM83.8689 52.0796C83.5772 52.0796 83.3145 52.0216 83.0809 51.9056C82.8472 51.7896 82.6599 51.6305 82.5191 51.4283C82.3782 51.2262 82.3012 50.9958 82.2879 50.7373H82.8845C82.9077 50.9676 83.0121 51.1582 83.1977 51.309C83.385 51.4582 83.6087 51.5327 83.8689 51.5327C84.0777 51.5327 84.2633 51.4838 84.4257 51.3861C84.5898 51.2883 84.7182 51.1541 84.811 50.9834C84.9055 50.811 84.9527 50.6163 84.9527 50.3992C84.9527 50.1771 84.9038 49.9791 84.806 49.8051C84.7099 49.6294 84.5773 49.4911 84.4083 49.39C84.2393 49.2889 84.0462 49.2375 83.8291 49.2359C83.6733 49.2342 83.5134 49.2582 83.3493 49.308C83.1853 49.356 83.0502 49.4182 82.9442 49.4944L82.3675 49.4248L82.6757 46.9191H85.3206V47.466H83.1927L83.0138 48.9674H83.0436C83.148 48.8845 83.2789 48.8158 83.4363 48.7611C83.5938 48.7064 83.7578 48.679 83.9285 48.679C84.2401 48.679 84.5177 48.7536 84.7613 48.9028C85.0065 49.0503 85.1988 49.2524 85.338 49.5093C85.4788 49.7662 85.5493 50.0595 85.5493 50.3893C85.5493 50.7141 85.4764 51.0041 85.3305 51.2593C85.1863 51.5129 84.9875 51.7134 84.7339 51.8609C84.4804 52.0067 84.192 52.0796 83.8689 52.0796Z" fill="#0000FF"/>
<path d="M19.1006 25.8673C17.6943 25.8673 16.7568 25.2814 16.4834 24.4806C16.4395 24.3634 16.415 24.2365 16.415 24.1193C16.415 23.7677 16.6396 23.5431 16.9716 23.5431C17.2499 23.5431 17.4257 23.6554 17.5624 23.9386C17.7821 24.549 18.3876 24.8224 19.1396 24.8224C19.9892 24.8224 20.5849 24.4025 20.5849 23.8165C20.5849 23.3087 20.2333 22.9962 19.3154 22.8057L18.5586 22.6494C17.1475 22.3613 16.4883 21.6972 16.4883 20.667C16.4883 19.4268 17.5772 18.5869 19.1055 18.5869C20.3506 18.5869 21.3174 19.1435 21.6055 20.0762C21.6348 20.1543 21.6494 20.2471 21.6494 20.3643C21.6494 20.6719 21.4297 20.8819 21.1025 20.8819C20.8095 20.8819 20.6289 20.7549 20.497 20.4815C20.2577 19.8858 19.7548 19.6319 19.0956 19.6319C18.3143 19.6319 17.7577 20.003 17.7577 20.5938C17.7577 21.0723 18.1093 21.3799 18.9882 21.5655L19.745 21.7218C21.2294 22.0294 21.8544 22.6251 21.8544 23.6701C21.8544 25.0178 20.7948 25.8674 19.1005 25.8674L19.1006 25.8673Z" fill="black"/>
<path d="M23.5245 25.8477C23.1681 25.8477 22.9141 25.6182 22.9141 25.208V19.2314C22.9141 18.8457 23.1436 18.6064 23.5147 18.6064C23.8858 18.6064 24.1153 18.8457 24.1153 19.2314V20.7573C24.1153 20.8625 24.2258 20.9311 24.3199 20.8843C24.6248 20.7327 25.0792 20.4766 25.7754 20.4766C26.918 20.4766 27.5869 21.2286 27.5869 22.4151V25.2081C27.5869 25.6183 27.333 25.8478 26.9765 25.8478C26.62 25.8478 26.371 25.6183 26.371 25.2081V22.6641C26.371 21.9414 26.0097 21.5069 25.3065 21.5069C24.6033 21.5069 24.1297 22.0147 24.1297 22.7764V25.2081C24.1297 25.6183 23.8807 25.8478 23.5242 25.8478L23.5245 25.8477Z" fill="black"/>
<path d="M29.3979 20.4717C29.0268 20.4717 28.7924 20.7207 28.7924 21.1114V25.2081C28.7924 25.6036 29.0268 25.8478 29.3979 25.8478C29.769 25.8478 30.0083 25.6037 30.0083 25.2081V21.1163C30.0083 20.7208 29.769 20.4718 29.3979 20.4718V20.4717ZM29.3979 19.8467C29.7788 19.8467 30.0766 19.5537 30.0766 19.1875C30.0766 18.8213 29.7787 18.5283 29.3979 18.5283C29.0171 18.5283 28.7241 18.8164 28.7241 19.1875C28.7241 19.5586 29.022 19.8467 29.3979 19.8467Z" fill="black"/>
<g clip-path="url(#clip0_283_1393168)">
<path d="M36.5252 24.8071L36.4373 24.7973C36.0857 24.768 35.949 24.5971 35.949 24.2065V21.6529C35.949 21.5746 36.0125 21.5112 36.0907 21.5112H36.5105C36.8132 21.5112 36.9988 21.3305 36.9988 21.0376C36.9988 20.7447 36.8133 20.5737 36.5105 20.5737H36.0907C36.0124 20.5737 35.949 20.5102 35.949 20.432V19.8852C35.949 19.4946 35.7146 19.2504 35.3435 19.2504C34.9724 19.2504 34.7331 19.4945 34.7331 19.8852V20.432C34.7331 20.5103 34.6696 20.5737 34.5914 20.5737H32.9903C32.9122 20.5737 32.8489 20.5106 32.8486 20.4325L32.8476 20.1836C32.8476 19.749 33.0283 19.5537 33.4726 19.5439C33.58 19.539 33.663 19.5293 33.7412 19.5097C33.9219 19.456 34.0098 19.3437 34.0098 19.1581C34.0098 18.8554 33.7217 18.6503 33.0772 18.6503C32.1446 18.6553 31.6514 19.1192 31.6514 20.1299V20.4319C31.6514 20.5102 31.5879 20.5736 31.5097 20.5736H31.3487C31.046 20.5736 30.8604 20.7494 30.8604 21.0375C30.8604 21.3256 31.0459 21.5111 31.3487 21.5111H31.5097C31.588 21.5111 31.6514 21.5746 31.6514 21.6528V25.2128C31.6514 25.623 31.8955 25.8476 32.2618 25.8476C32.6281 25.8476 32.8673 25.623 32.8673 25.2128L32.8535 21.6533C32.8532 21.5748 32.9167 21.511 32.9952 21.511H34.5915C34.6698 21.511 34.7332 21.5745 34.7332 21.6527V24.47C34.7332 25.3538 35.1922 25.803 36.0955 25.803H36.1443C36.7009 25.803 37.0135 25.6126 37.0135 25.2561C37.0135 24.9729 36.8475 24.8362 36.5252 24.8069V24.8071Z" fill="black"/>
</g>
<defs>
<clipPath id="clip0_283_1393168">
<rect width="6.1531" height="7.1973" fill="white" transform="translate(30.8604 18.6504)"/>
</clipPath>
</defs>
</svg>
