<svg width="95" height="54" viewBox="0 0 95 54" fill="none" xmlns="http://www.w3.org/2000/svg">
<path d="M10.4081 37.0565C10.4321 37.7185 10.584 38.3814 10.8498 38.9937C11.1218 39.6168 11.5108 40.1858 11.9894 40.6655C12.4725 41.1505 13.0445 41.5435 13.6692 41.8247C14.2902 42.1036 14.9622 42.2716 15.6375 42.3183C26.3384 42.6733 37.0444 42.8513 47.7508 42.8517C58.4578 42.8517 69.1638 42.6737 79.8646 42.3186C80.5385 42.2706 81.2115 42.0976 81.83 41.8195C82.143 41.6797 82.4431 41.5127 82.7242 41.3198C83.0052 41.1268 83.2702 40.9078 83.5126 40.6661C83.7526 40.4251 83.9706 40.1622 84.1628 39.88C84.3519 39.6009 84.5168 39.3039 84.6497 38.9942C84.7167 38.8392 84.7757 38.6822 84.8273 38.5228C84.8793 38.3648 84.9243 38.2048 84.9612 38.0418C85.0363 37.7188 85.0853 37.3889 85.0938 37.0575C85.1708 27.1264 85.2728 17.1944 85.4016 7.26352C85.3876 6.71957 85.2916 6.17453 85.1219 5.65439C84.9529 5.13937 84.7089 4.64731 84.3973 4.20529C84.2413 3.98422 84.0693 3.77634 83.8809 3.58298C83.6938 3.39096 83.4919 3.21396 83.2748 3.05319C82.8448 2.73312 82.3639 2.47812 81.8613 2.29684C81.3863 2.12985 80.8873 2.02487 80.3863 1.97751C80.2183 1.96249 80.0503 1.95248 79.8816 1.95041C58.4615 1.85641 37.0406 1.85641 15.6202 1.95016C14.9182 1.95822 14.2112 2.08713 13.5491 2.33774C12.8901 2.58774 12.2741 2.95871 11.764 3.44199C11.2499 3.92795 10.845 4.52695 10.563 5.18051C10.2791 5.83945 10.1201 6.55246 10.0996 7.26389C10.2256 17.1949 10.3286 27.1259 10.4077 37.0578" stroke="#16215B" stroke-width="0.283" stroke-miterlimit="10"/>
<path d="M81.533 40.8396H13.9791C12.804 40.8397 11.853 39.8877 11.853 38.7136C11.853 38.714 11.853 6.4729 11.853 6.4729C11.853 5.29895 12.804 4.34692 13.9791 4.34692C13.979 4.34692 17.522 4.34692 17.522 4.34692C17.5219 4.34692 77.9899 4.34692 77.9899 4.34692C77.9897 4.34692 81.5327 4.34692 81.5327 4.34692C82.7077 4.34692 83.6588 5.29895 83.6588 6.47266C83.6588 6.47266 83.6588 38.7136 83.6587 38.7136C83.6587 39.8877 82.708 40.8396 81.533 40.8396ZM81.533 40.8396L81.5308 40.6682C81.5618 40.6672 81.5928 40.6663 81.6248 40.6653" stroke="#00FFFF" stroke-width="0.28" stroke-miterlimit="10"/>
<path d="M84.1267 36.5975C84.1257 36.8904 84.0977 37.1814 84.0438 37.4694C83.9887 37.7585 83.9077 38.0385 83.7997 38.3095C83.7457 38.4455 83.6847 38.5784 83.6177 38.7094C83.5837 38.7745 83.5477 38.8394 83.5107 38.9035C83.4737 38.9675 83.4347 39.0304 83.3937 39.0915C83.2338 39.3374 83.0507 39.5655 82.8437 39.7754C82.7907 39.8284 82.7377 39.8794 82.6827 39.9295C82.6287 39.9794 82.5717 40.0285 82.5147 40.0755C82.3997 40.1695 82.2817 40.2575 82.1597 40.3394C81.9157 40.5025 81.6567 40.6414 81.3837 40.7554C81.3148 40.7845 81.2457 40.8114 81.1757 40.8365C81.1047 40.8625 81.0347 40.8864 80.9647 40.9085C80.8237 40.9515 80.6818 40.9884 80.5377 41.0195C80.2497 41.0805 79.9578 41.1165 79.6611 41.1264C58.4281 41.8644 37.0831 41.8644 15.8513 41.1261C15.5543 41.1161 15.2593 41.0801 14.9693 41.0181C14.8963 41.0031 14.8233 40.9852 14.7513 40.9672C14.6803 40.9482 14.6093 40.9272 14.5383 40.9052C14.3982 40.8611 14.2593 40.8101 14.1233 40.7542C13.9883 40.6972 13.8543 40.6331 13.7243 40.5632C13.6583 40.5281 13.5933 40.4911 13.5303 40.4522C13.4663 40.4141 13.4043 40.3742 13.3423 40.3332C13.0963 40.1672 12.8703 39.9801 12.6633 39.7702C12.6123 39.7182 12.5622 39.6641 12.5123 39.6092C12.4633 39.5541 12.4153 39.4961 12.3683 39.4391C12.2763 39.3232 12.1903 39.2041 12.1113 39.0811C11.9513 38.8361 11.8183 38.5772 11.7093 38.3051C11.6833 38.2361 11.6573 38.1672 11.6333 38.0971C11.6103 38.0281 11.5873 37.9582 11.5683 37.8881C11.5273 37.7471 11.4933 37.6061 11.4673 37.4632C11.4133 37.1791 11.3863 36.8892 11.3852 36.5971C11.3692 31.8132 11.3522 27.0281 11.3322 22.2441C11.3122 17.4601 11.2892 12.6751 11.2646 7.89153C11.2556 7.73357 11.2496 7.57756 11.2506 7.42155C11.2526 7.26555 11.2616 7.10954 11.2776 6.95451C11.2866 6.87651 11.2976 6.79961 11.3096 6.72258C11.3216 6.64458 11.3366 6.56755 11.3526 6.4915C11.3866 6.33855 11.4266 6.18852 11.4766 6.04155C11.5246 5.89458 11.5816 5.75053 11.6466 5.60954C11.6806 5.5396 11.7146 5.4705 11.7516 5.40154C11.7886 5.33257 11.8276 5.26457 11.8686 5.19756C12.0326 4.93254 12.2246 4.6895 12.4436 4.4716C12.4986 4.41557 12.5556 4.36259 12.6136 4.31059C12.6436 4.28557 12.6736 4.25957 12.7026 4.23357C12.7326 4.20854 12.7646 4.18462 12.7946 4.15959C12.9176 4.06255 13.0456 3.97258 13.1786 3.89055C13.4416 3.72551 13.7246 3.58952 14.0206 3.48051C14.3186 3.3726 14.6226 3.2946 14.9316 3.2426C15.2396 3.1906 15.5546 3.1646 15.8722 3.1635C37.0902 3.0656 58.4212 3.0656 79.6395 3.16362C79.9265 3.1646 80.2105 3.18559 80.4895 3.22758C80.7695 3.27068 81.0445 3.33366 81.3145 3.42058C81.3835 3.44267 81.4505 3.4666 81.5175 3.49162C81.5845 3.51567 81.6495 3.54265 81.7155 3.56963C81.8465 3.62566 81.9735 3.68657 82.0975 3.75261C82.2215 3.81963 82.3415 3.89165 82.4575 3.97063C82.5165 4.00969 82.5735 4.05058 82.6305 4.09367C82.6875 4.13567 82.7425 4.17961 82.7975 4.22466C83.0155 4.40666 83.2105 4.60661 83.3835 4.82561C83.4695 4.93462 83.5495 5.04961 83.6245 5.16862C83.6615 5.22758 83.6975 5.28862 83.7315 5.35063C83.7665 5.41167 83.7995 5.47466 83.8295 5.53764C83.9535 5.7896 84.0495 6.05266 84.1195 6.32463C84.1365 6.39165 84.1525 6.46062 84.1665 6.52959C84.1815 6.59868 84.1935 6.66862 84.2045 6.73857C84.2275 6.87859 84.2415 7.0186 84.2515 7.1602C84.2255 12.0672 84.2015 16.9732 84.1815 21.8792C84.1605 26.7852 84.1425 31.6912 84.1255 36.5971" stroke="#FF00FF" stroke-width="0.283465" stroke-miterlimit="10" stroke-linecap="round" stroke-linejoin="round"/>
<path d="M83.3588 46.9191V52.01H82.7423V47.5654H82.7124L81.4695 48.3907V47.7643L82.7423 46.9191H83.3588ZM84.9596 52.0498C84.837 52.0498 84.7317 52.0059 84.6439 51.918C84.5561 51.8302 84.5122 51.725 84.5122 51.6023C84.5122 51.4797 84.5561 51.3745 84.6439 51.2866C84.7317 51.1988 84.837 51.1549 84.9596 51.1549C85.0822 51.1549 85.1875 51.1988 85.2753 51.2866C85.3631 51.3745 85.407 51.4797 85.407 51.6023C85.407 51.6835 85.3863 51.7581 85.3449 51.8261C85.3051 51.894 85.2513 51.9487 85.1833 51.9901C85.117 52.0299 85.0425 52.0498 84.9596 52.0498ZM86.5064 52.01L88.7834 47.5057V47.466H86.1584V46.9191H89.4197V47.4958L87.1527 52.01H86.5064ZM91.8689 52.0796C91.5772 52.0796 91.3145 52.0216 91.0809 51.9056C90.8472 51.7896 90.6599 51.6305 90.5191 51.4283C90.3782 51.2262 90.3012 50.9958 90.2879 50.7373H90.8845C90.9077 50.9676 91.0121 51.1582 91.1977 51.309C91.385 51.4582 91.6087 51.5327 91.8689 51.5327C92.0777 51.5327 92.2633 51.4838 92.4257 51.3861C92.5898 51.2883 92.7182 51.1541 92.811 50.9834C92.9055 50.811 92.9527 50.6163 92.9527 50.3992C92.9527 50.1771 92.9038 49.9791 92.806 49.8051C92.7099 49.6294 92.5773 49.4911 92.4083 49.39C92.2393 49.2889 92.0462 49.2375 91.8291 49.2359C91.6733 49.2342 91.5134 49.2582 91.3493 49.308C91.1853 49.356 91.0502 49.4182 90.9442 49.4944L90.3675 49.4248L90.6757 46.9191H93.3206V47.466H91.1927L91.0138 48.9674H91.0436C91.148 48.8845 91.2789 48.8158 91.4363 48.7611C91.5938 48.7064 91.7578 48.679 91.9285 48.679C92.2401 48.679 92.5177 48.7536 92.7613 48.9028C93.0065 49.0503 93.1988 49.2524 93.338 49.5093C93.4788 49.7662 93.5493 50.0595 93.5493 50.3893C93.5493 50.7141 93.4764 51.0041 93.3305 51.2593C93.1863 51.5129 92.9875 51.7134 92.7339 51.8609C92.4804 52.0067 92.192 52.0796 91.8689 52.0796Z" fill="#0000FF"/>
<path fill-rule="evenodd" clip-rule="evenodd" d="M26.7794 16.4148C27.1906 16.0037 27.8573 16.0037 28.2685 16.4148L33.6613 21.8076C33.6645 21.8108 33.6677 21.8141 33.6708 21.8174C34.1233 22.2777 34.2577 22.9644 34.0102 23.562C33.761 24.1634 33.1741 24.5559 32.5228 24.5559H31.2732C31.1959 24.5559 31.1332 24.6186 31.1332 24.6959V27.7852C31.1332 28.6743 30.4125 29.3951 29.5233 29.3951H25.5243C24.6352 29.3951 23.9144 28.6743 23.9144 27.7852V24.6959C23.9144 24.6186 23.8518 24.5559 23.7744 24.5559H22.5248C21.8736 24.5559 21.2867 24.1635 21.0375 23.5621C20.7886 22.9606 20.9261 22.2681 21.3864 21.8077L26.7794 16.4148ZM32.65 22.8046L27.6229 17.7775C27.5683 17.7228 27.4796 17.7228 27.4249 17.7775L22.3907 22.8116C22.3364 22.866 22.32 22.9477 22.3495 23.0189C22.3789 23.0899 22.4481 23.1359 22.5248 23.1359H24.4543C24.9401 23.1359 25.3344 23.5296 25.3344 24.016V27.7852C25.3344 27.89 25.4195 27.9751 25.5243 27.9751H29.5233C29.6282 27.9751 29.7132 27.89 29.7132 27.7852V24.016C29.7132 23.5299 30.1073 23.1359 30.5933 23.1359H32.5228C32.5995 23.1359 32.6688 23.0897 32.6982 23.0187M32.65 22.8046C32.6523 22.8069 32.6546 22.8093 32.657 22.8116C32.7114 22.8661 32.7276 22.9478 32.6982 23.0187" fill="black"/>
</svg>
