<svg width="122" height="54" viewBox="0 0 122 54" fill="none" xmlns="http://www.w3.org/2000/svg">
<path d="M10.0212 37.0325C10.0462 37.6944 10.1992 38.3564 10.4686 38.966C10.7416 39.587 11.1346 40.1531 11.6171 40.6291C12.1031 41.1081 12.6791 41.4962 13.3047 41.7707C13.9297 42.0447 14.6037 42.2066 15.2801 42.2499C30.4381 42.6339 45.6011 42.8258 60.7641 42.8257C75.9181 42.8257 91.0721 42.6346 106.221 42.2502C106.897 42.2063 107.571 42.0393 108.193 41.7671C108.507 41.629 108.808 41.4651 109.091 41.2751C109.374 41.0851 109.641 40.8691 109.885 40.6288C110.127 40.3907 110.347 40.1297 110.54 39.85C110.731 39.5719 110.897 39.277 111.032 38.9678C111.165 38.6617 111.27 38.3437 111.346 38.0173C111.421 37.6953 111.47 37.3663 111.479 37.0353C111.556 27.1044 111.659 17.1743 111.789 7.24461C111.769 6.52855 111.607 5.80858 111.318 5.15001C111.175 4.82103 111 4.50706 110.794 4.21483C110.59 3.92381 110.356 3.65282 110.096 3.40977C109.577 2.92686 108.952 2.55186 108.286 2.30687C107.952 2.18297 107.608 2.09288 107.258 2.03136C106.908 1.96935 106.55 1.93431 106.195 1.93028C75.8991 1.82933 45.6021 1.82933 15.3063 1.93065C14.5983 1.93761 13.8833 2.06664 13.2163 2.31261C12.8823 2.43565 12.5613 2.58861 12.2577 2.77135C11.9527 2.95433 11.6667 3.16832 11.4065 3.41051C11.1455 3.65343 10.9115 3.92442 10.707 4.21654C10.502 4.50951 10.328 4.82359 10.1851 5.15196C10.0411 5.48106 9.92813 5.82298 9.84943 6.17332C9.76942 6.52428 9.72243 6.88426 9.71191 7.24437C9.83891 17.1743 9.94292 27.1044 10.0219 37.0343" stroke="#16215B" stroke-width="0.283" stroke-miterlimit="10"/>
<path d="M13.3936 4.15686H101.73H108.107C109.281 4.15686 110.233 5.10889 110.233 6.28284V38.4819C110.233 39.6556 109.281 40.6075 108.107 40.6075H13.3934C12.2196 40.6077 11.2676 39.6556 11.2676 38.4816L11.2676 6.28296C11.2676 5.10889 12.2196 4.15686 13.3936 4.15686Z" stroke="#00FFFF" stroke-width="0.28" stroke-miterlimit="10"/>
<path d="M110.676 36.5607C110.675 36.7088 110.669 36.8548 110.655 37.0018C110.648 37.0748 110.639 37.1478 110.628 37.2208C110.618 37.2928 110.606 37.3658 110.591 37.4378C110.536 37.7278 110.454 38.0087 110.342 38.2808C110.288 38.4158 110.225 38.5497 110.156 38.6807C110.122 38.7458 110.085 38.8107 110.046 38.8748C110.009 38.9378 109.969 39.0008 109.928 39.0618C109.764 39.3057 109.577 39.5328 109.366 39.7408C109.313 39.7928 109.258 39.8438 109.203 39.8927C109.147 39.9428 109.089 39.9908 109.032 40.0368C108.916 40.1298 108.795 40.2167 108.671 40.2968C108.424 40.4567 108.162 40.5928 107.884 40.7028C107.815 40.7308 107.745 40.7577 107.674 40.7818C107.604 40.8057 107.533 40.8288 107.461 40.8498C107.319 40.8927 107.175 40.9278 107.031 40.9567C106.741 41.0148 106.447 41.0478 106.148 41.0557C75.9149 41.8608 45.5859 41.8608 15.354 41.0557C15.0546 41.0481 14.7586 41.0152 14.4656 40.9561C14.3916 40.9411 14.3196 40.9251 14.2467 40.9072C14.1746 40.8891 14.1016 40.8692 14.0306 40.8482C13.8886 40.8051 13.7486 40.7562 13.6116 40.7011C13.4736 40.6462 13.3397 40.5842 13.2076 40.5162C13.1406 40.4811 13.0756 40.4451 13.0117 40.4081C12.9466 40.3702 12.8827 40.3311 12.8206 40.2901C12.5706 40.1281 12.3406 39.9432 12.1307 39.7352C12.0776 39.6841 12.0266 39.6302 11.9756 39.5761C11.9266 39.5202 11.8776 39.4642 11.8296 39.4072C11.7346 39.2922 11.6466 39.1731 11.5657 39.0512C11.4036 38.8072 11.2666 38.5481 11.1566 38.2752C11.1286 38.2072 11.1027 38.1381 11.0787 38.0682C11.0536 37.9981 11.0316 37.9282 11.0117 37.8571C10.9706 37.7161 10.9356 37.5741 10.9087 37.4312C10.8536 37.1452 10.8256 36.8552 10.8247 36.5611C10.8094 31.7801 10.7924 27.0001 10.7714 22.219C10.7524 17.439 10.7304 12.658 10.7055 7.877C10.6968 7.71904 10.6898 7.56109 10.6917 7.40398C10.6937 7.247 10.7028 7.09002 10.7197 6.93303C10.7288 6.85503 10.7398 6.77703 10.7528 6.69903C10.7647 6.622 10.7808 6.544 10.7978 6.46599C10.8317 6.31304 10.8737 6.16204 10.9248 6.01409C10.9748 5.86602 11.0337 5.721 11.1007 5.57903C11.1347 5.50799 11.1717 5.43902 11.2098 5.36907C11.2477 5.29998 11.2888 5.23198 11.3307 5.16509C11.4987 4.89898 11.6968 4.65703 11.9228 4.43902C11.9777 4.38408 12.0368 4.33098 12.0957 4.28008C12.1567 4.22808 12.2178 4.17803 12.2808 4.12908C12.4078 4.03301 12.5377 3.94402 12.6728 3.86309C12.9427 3.7 13.2288 3.56609 13.5308 3.45904C13.8327 3.35308 14.1397 3.27605 14.4528 3.226C14.7647 3.17498 15.0827 3.15008 15.4038 3.14898C44.604 3.0468 73.893 3.04278 103.101 3.13872C103.992 3.14153 104.883 3.14458 105.774 3.14763C105.829 3.14763 105.885 3.14763 105.941 3.14861C105.996 3.14861 106.052 3.14861 106.108 3.14861C106.219 3.14959 106.33 3.15252 106.442 3.1596C106.553 3.16655 106.664 3.17559 106.775 3.18853C106.885 3.20061 106.994 3.21563 107.103 3.23455C107.32 3.27263 107.534 3.32256 107.746 3.38555C107.852 3.41753 107.956 3.45354 108.06 3.49163C108.111 3.51153 108.163 3.53154 108.214 3.55254C108.266 3.57464 108.317 3.59661 108.366 3.61956C108.567 3.71062 108.758 3.81463 108.942 3.93352C109.124 4.05156 109.298 4.18352 109.462 4.33062C109.503 4.3676 109.544 4.40459 109.583 4.44256C109.622 4.48162 109.661 4.52056 109.698 4.55962C109.774 4.6386 109.845 4.72063 109.913 4.80559C110.049 4.97454 110.17 5.15362 110.277 5.34356C110.304 5.39153 110.329 5.43963 110.355 5.48858C110.379 5.53753 110.403 5.5866 110.426 5.63653C110.472 5.73552 110.513 5.8366 110.55 5.93963C110.624 6.14361 110.683 6.35259 110.725 6.56658C110.735 6.62053 110.744 6.67363 110.753 6.72857C110.762 6.78252 110.77 6.8366 110.775 6.89153C110.789 7.00054 110.798 7.10955 110.804 7.21856C110.809 7.32854 110.811 7.43755 110.809 7.54656C110.807 7.65654 110.802 7.76653 110.796 7.87615C110.771 12.6572 110.748 17.4382 110.729 22.2192C110.709 26.9992 110.692 31.7802 110.676 36.5607Z" stroke="#FF00FF" stroke-width="0.283465" stroke-miterlimit="10" stroke-linecap="round" stroke-linejoin="round"/>
<path d="M106.374 52.01V51.5626L108.055 49.7231C108.252 49.5076 108.414 49.3204 108.542 49.1613C108.669 49.0005 108.764 48.8497 108.825 48.7089C108.888 48.5664 108.92 48.4172 108.92 48.2614C108.92 48.0825 108.877 47.9275 108.79 47.7966C108.706 47.6657 108.59 47.5646 108.442 47.4933C108.295 47.4221 108.129 47.3864 107.945 47.3864C107.75 47.3864 107.579 47.427 107.433 47.5082C107.289 47.5878 107.177 47.6996 107.098 47.8438C107.02 47.988 106.981 48.157 106.981 48.3509H106.394C106.394 48.0526 106.463 47.7908 106.6 47.5654C106.738 47.34 106.925 47.1644 107.162 47.0384C107.401 46.9125 107.668 46.8495 107.965 46.8495C108.263 46.8495 108.528 46.9125 108.758 47.0384C108.988 47.1644 109.169 47.3342 109.3 47.548C109.431 47.7618 109.496 47.9996 109.496 48.2614C109.496 48.4487 109.462 48.6318 109.394 48.8108C109.328 48.9881 109.212 49.1861 109.046 49.4049C108.882 49.622 108.654 49.8871 108.363 50.2004L107.219 51.4234V51.4631H109.586V52.01H106.374ZM111.05 52.0498C110.927 52.0498 110.822 52.0059 110.734 51.918C110.646 51.8302 110.602 51.725 110.602 51.6023C110.602 51.4797 110.646 51.3745 110.734 51.2866C110.822 51.1988 110.927 51.1549 111.05 51.1549C111.173 51.1549 111.278 51.1988 111.366 51.2866C111.453 51.3745 111.497 51.4797 111.497 51.6023C111.497 51.6835 111.477 51.7581 111.435 51.8261C111.395 51.894 111.342 51.9487 111.274 51.9901C111.207 52.0299 111.133 52.0498 111.05 52.0498ZM112.54 52.01V51.5626L114.221 49.7231C114.418 49.5076 114.58 49.3204 114.708 49.1613C114.835 49.0005 114.93 48.8497 114.991 48.7089C115.054 48.5664 115.086 48.4172 115.086 48.2614C115.086 48.0825 115.043 47.9275 114.956 47.7966C114.872 47.6657 114.756 47.5646 114.608 47.4933C114.461 47.4221 114.295 47.3864 114.111 47.3864C113.916 47.3864 113.745 47.427 113.599 47.5082C113.455 47.5878 113.343 47.6996 113.264 47.8438C113.186 47.988 113.147 48.157 113.147 48.3509H112.56C112.56 48.0526 112.629 47.7908 112.766 47.5654C112.904 47.34 113.091 47.1644 113.328 47.0384C113.567 46.9125 113.834 46.8495 114.131 46.8495C114.429 46.8495 114.694 46.9125 114.924 47.0384C115.154 47.1644 115.335 47.3342 115.466 47.548C115.597 47.7618 115.662 47.9996 115.662 48.2614C115.662 48.4487 115.628 48.6318 115.56 48.8108C115.494 48.9881 115.378 49.1861 115.212 49.4049C115.048 49.622 114.82 49.8871 114.529 50.2004L113.385 51.4234V51.4631H115.752V52.01H112.54ZM118.369 52.0796C118.078 52.0796 117.815 52.0216 117.581 51.9056C117.348 51.7896 117.16 51.6305 117.02 51.4283C116.879 51.2262 116.802 50.9958 116.788 50.7373H117.385C117.408 50.9676 117.513 51.1582 117.698 51.309C117.885 51.4582 118.109 51.5327 118.369 51.5327C118.578 51.5327 118.764 51.4838 118.926 51.3861C119.09 51.2883 119.219 51.1541 119.311 50.9834C119.406 50.811 119.453 50.6163 119.453 50.3992C119.453 50.1771 119.404 49.9791 119.307 49.8051C119.21 49.6294 119.078 49.4911 118.909 49.39C118.74 49.2889 118.547 49.2375 118.33 49.2359C118.174 49.2342 118.014 49.2582 117.85 49.308C117.686 49.356 117.551 49.4182 117.445 49.4944L116.868 49.4248L117.176 46.9191H119.821V47.466H117.693L117.514 48.9674H117.544C117.648 48.8845 117.779 48.8158 117.937 48.7611C118.094 48.7064 118.258 48.679 118.429 48.679C118.741 48.679 119.018 48.7536 119.262 48.9028C119.507 49.0503 119.699 49.2524 119.838 49.5093C119.979 49.7662 120.05 50.0595 120.05 50.3893C120.05 50.7141 119.977 51.0041 119.831 51.2593C119.687 51.5129 119.488 51.7134 119.234 51.8609C118.981 52.0067 118.693 52.0796 118.369 52.0796Z" fill="#0000FF"/>
<path fill-rule="evenodd" clip-rule="evenodd" d="M26.2794 16.4148C26.6906 16.0037 27.3573 16.0037 27.7685 16.4148L33.1613 21.8076C33.1645 21.8108 33.1677 21.8141 33.1708 21.8174C33.6233 22.2777 33.7577 22.9644 33.5102 23.562C33.261 24.1634 32.6741 24.5559 32.0228 24.5559H30.7732C30.6959 24.5559 30.6332 24.6186 30.6332 24.6959V27.7852C30.6332 28.6743 29.9125 29.3951 29.0233 29.3951H25.0243C24.1352 29.3951 23.4144 28.6743 23.4144 27.7852V24.6959C23.4144 24.6186 23.3518 24.5559 23.2744 24.5559H22.0248C21.3736 24.5559 20.7867 24.1635 20.5375 23.5621C20.2886 22.9606 20.4261 22.2681 20.8864 21.8077L26.2794 16.4148ZM32.15 22.8046L27.1229 17.7775C27.0683 17.7228 26.9796 17.7228 26.9249 17.7775L21.8907 22.8116C21.8364 22.866 21.82 22.9477 21.8495 23.0189C21.8789 23.0899 21.9481 23.1359 22.0248 23.1359H23.9543C24.4401 23.1359 24.8344 23.5296 24.8344 24.016V27.7852C24.8344 27.89 24.9195 27.9751 25.0243 27.9751H29.0233C29.1282 27.9751 29.2132 27.89 29.2132 27.7852V24.016C29.2132 23.5299 29.6073 23.1359 30.0933 23.1359H32.0228C32.0995 23.1359 32.1688 23.0897 32.1982 23.0187M32.15 22.8046C32.1523 22.8069 32.1546 22.8093 32.157 22.8116C32.2114 22.8661 32.2276 22.9478 32.1982 23.0187" fill="black"/>
</svg>
