<svg width="108" height="55" viewBox="0 0 108 55" fill="none" xmlns="http://www.w3.org/2000/svg">
<path d="M10.0468 38.2873C9.97168 28.3753 9.87476 18.4632 9.75488 8.55228C9.7699 8.00919 9.86792 7.46622 10.0386 6.94693C10.2085 6.43301 10.4506 5.94193 10.7612 5.5004C10.9161 5.27933 11.0881 5.07144 11.2767 4.87857C11.4626 4.68558 11.6656 4.50858 11.8804 4.34842C12.0953 4.18839 12.3234 4.04544 12.5598 3.91922C12.7958 3.79324 13.0417 3.68326 13.2942 3.5928C13.6122 3.48087 13.9413 3.39688 14.2739 3.33914C14.6089 3.28116 14.9479 3.24808 15.2865 3.24258C41.0985 3.13467 66.9105 3.13467 92.7227 3.24234C93.4247 3.2504 94.1348 3.3804 94.7959 3.62881C95.126 3.75284 95.444 3.90677 95.7438 4.09085C96.0448 4.27493 96.3268 4.4899 96.5842 4.7316C96.8412 4.97464 97.0732 5.24466 97.2748 5.53531C97.4778 5.8273 97.6488 6.14029 97.7908 6.46719C98.0737 7.1232 98.2338 7.84024 98.2538 8.55252C98.1317 18.4635 98.0337 28.3755 97.9614 38.2876C97.9374 38.9496 97.7854 39.6126 97.5188 40.2245C97.2467 40.8474 96.8567 41.4165 96.3781 41.8953C95.8942 42.3792 95.3212 42.7713 94.6964 43.0509C94.0743 43.33 93.4014 43.4959 92.7267 43.543C79.8228 43.9561 66.9137 44.163 54.005 44.163C41.094 44.163 28.1851 43.9569 15.2823 43.5428C14.6073 43.4958 13.9343 43.3297 13.3126 43.0509C12.6876 42.771 12.1136 42.378 11.6311 41.8952C11.1521 41.4151 10.7611 40.8461 10.4897 40.2226C10.2236 39.6116 10.0707 38.9477 10.0468 38.2856" stroke="#16215B" stroke-width="0.283" stroke-miterlimit="10"/>
<path d="M93.689 41.0038H14.3188C13.1448 41.004 12.1929 40.0519 12.1929 38.8779V7.9809C12.1927 6.80646 13.1448 5.85443 14.3188 5.85443H17.8628H90.1458H93.689C94.8639 5.85443 95.8149 6.80646 95.8149 7.98041V38.8779C95.8149 40.0519 94.8639 41.0038 93.689 41.0038Z" stroke="#00FFFF" stroke-width="0.28" stroke-miterlimit="10"/>
<path d="M97.3453 9.19919C97.3542 9.04123 97.3602 8.88425 97.3593 8.72726C97.3573 8.57028 97.3483 8.41428 97.3303 8.25827C97.3223 8.18027 97.3113 8.10226 97.2982 8.02426C97.2853 7.94724 97.2712 7.86923 97.2543 7.79221C97.2203 7.63828 97.1793 7.48825 97.1293 7.34128C97.0782 7.19321 97.0212 7.04831 96.9542 6.9072C96.9203 6.83627 96.8853 6.7662 96.8483 6.69724C96.8103 6.62827 96.7703 6.56027 96.7283 6.49326C96.5623 6.22726 96.3663 5.9852 96.1443 5.7662C96.0873 5.71127 96.0312 5.65829 95.9713 5.60629C95.9413 5.58029 95.9113 5.55527 95.8802 5.53024C95.8502 5.50522 95.8193 5.48019 95.7872 5.45529C95.6622 5.35825 95.5333 5.26926 95.4003 5.18723C95.1323 5.02328 94.8483 4.88828 94.5472 4.78122C94.2473 4.67331 93.9413 4.59628 93.6302 4.54526C93.3193 4.49326 93.0033 4.46823 92.6832 4.46725C66.9321 4.36337 41.0771 4.36337 15.3262 4.46725C15.0057 4.46835 14.6887 4.49326 14.3788 4.54526C14.0668 4.59628 13.7617 4.67331 13.4607 4.78134C13.1608 4.88828 12.8757 5.02426 12.6078 5.18735C12.4738 5.26926 12.3457 5.35934 12.2207 5.45627C12.1887 5.48032 12.1577 5.50534 12.1277 5.53036C12.0968 5.55527 12.0668 5.58127 12.0367 5.60727C11.9778 5.65829 11.9208 5.71237 11.8647 5.76633C11.6407 5.98532 11.4458 6.22726 11.2798 6.49435C11.2378 6.56027 11.1978 6.62936 11.1608 6.69736C11.1228 6.7673 11.0878 6.83737 11.0547 6.90732C10.9867 7.04929 10.9297 7.19333 10.8798 7.34128C10.8297 7.48837 10.7877 7.63937 10.7538 7.7933C10.7367 7.87033 10.7218 7.94736 10.7097 8.02536C10.6968 8.10336 10.6858 8.18027 10.6787 8.25937C10.6608 8.41428 10.6517 8.57126 10.6498 8.72836C10.6477 8.88437 10.6548 9.04233 10.6637 9.20029C10.6876 13.9802 10.7096 18.7602 10.7286 23.5403C10.7487 28.3203 10.7666 33.1002 10.7816 37.8802C10.7828 38.1729 10.8098 38.4629 10.8638 38.7489C10.8907 38.891 10.9248 39.0329 10.9658 39.1739C10.9858 39.2439 11.0088 39.3139 11.0328 39.3839C11.0558 39.4539 11.0828 39.5229 11.1097 39.5909C11.2187 39.8639 11.3538 40.1229 11.5148 40.3679C11.5948 40.49 11.6818 40.6089 11.7758 40.724C11.8228 40.782 11.8718 40.8379 11.9218 40.8939C11.9708 40.948 12.0218 41.0019 12.0739 41.0539C12.2828 41.2629 12.5107 41.4489 12.7598 41.6119C12.8208 41.6529 12.8848 41.693 12.9489 41.7309C13.0118 41.7689 13.0778 41.8059 13.1428 41.8399C13.2748 41.9099 13.4088 41.9719 13.5458 42.0279C13.6818 42.084 13.8218 42.1339 13.9637 42.177C14.0338 42.1989 14.1058 42.219 14.1779 42.2369C14.2498 42.2549 14.3228 42.2729 14.3958 42.2879C14.6877 42.3479 14.9828 42.3819 15.2808 42.391C41.0608 43.1751 66.9468 43.1751 92.7268 42.3911C93.0251 42.3822 93.3191 42.3481 93.6071 42.2882C93.7511 42.2591 93.8951 42.2231 94.0371 42.1801C94.1071 42.1582 94.1781 42.1351 94.2482 42.1102C94.3191 42.0852 94.3881 42.0582 94.4572 42.0301C94.7332 41.9171 94.9941 41.7811 95.2401 41.6191C95.3632 41.5382 95.4821 41.4511 95.5972 41.3571C95.6552 41.3102 95.7111 41.2622 95.7671 41.2121C95.8231 41.1622 95.8761 41.1112 95.9291 41.0592C96.1381 40.8502 96.3251 40.6231 96.4871 40.3781C96.5271 40.3161 96.5662 40.2541 96.6041 40.1902C96.6411 40.1272 96.6771 40.0611 96.7122 39.9962C96.7811 39.8652 96.8422 39.7321 96.8971 39.5962C97.0061 39.3252 97.0881 39.0442 97.1431 38.7551C97.1571 38.6832 97.1691 38.6102 97.1791 38.5372C97.1901 38.4652 97.1991 38.3922 97.2061 38.3192C97.2191 38.1732 97.2261 38.0272 97.2272 37.8799C97.2432 33.0999 97.2592 28.3199 97.2791 23.5399C97.2981 18.7599 97.3201 13.9799 97.3453 9.19919Z" stroke="#FF00FF" stroke-width="0.283465" stroke-miterlimit="10" stroke-linecap="round" stroke-linejoin="round"/>
<path d="M88.6735 52.01V51.5626L90.3539 49.7231C90.5511 49.5076 90.7135 49.3204 90.8411 49.1613C90.9687 49.0005 91.0632 48.8497 91.1245 48.7089C91.1874 48.5664 91.2189 48.4172 91.2189 48.2614C91.2189 48.0825 91.1758 47.9275 91.0897 47.7966C91.0051 47.6657 90.8891 47.5646 90.7417 47.4933C90.5942 47.4221 90.4284 47.3864 90.2445 47.3864C90.0489 47.3864 89.8783 47.427 89.7324 47.5082C89.5882 47.5878 89.4764 47.6996 89.3968 47.8438C89.319 47.988 89.28 48.157 89.28 48.3509H88.6934C88.6934 48.0526 88.7621 47.7908 88.8997 47.5654C89.0372 47.34 89.2245 47.1644 89.4615 47.0384C89.7001 46.9125 89.9677 46.8495 90.2644 46.8495C90.5627 46.8495 90.827 46.9125 91.0574 47.0384C91.2877 47.1644 91.4683 47.3342 91.5993 47.548C91.7302 47.7618 91.7956 47.9996 91.7956 48.2614C91.7956 48.4487 91.7617 48.6318 91.6937 48.8108C91.6274 48.9881 91.5114 49.1861 91.3457 49.4049C91.1816 49.622 90.9538 49.8871 90.6621 50.2004L89.5186 51.4234V51.4631H91.8851V52.01H88.6735ZM93.3493 52.0498C93.2266 52.0498 93.1214 52.0059 93.0336 51.918C92.9457 51.8302 92.9018 51.725 92.9018 51.6023C92.9018 51.4797 92.9457 51.3745 93.0336 51.2866C93.1214 51.1988 93.2266 51.1549 93.3493 51.1549C93.4719 51.1549 93.5771 51.1988 93.665 51.2866C93.7528 51.3745 93.7967 51.4797 93.7967 51.6023C93.7967 51.6835 93.776 51.7581 93.7346 51.8261C93.6948 51.894 93.6409 51.9487 93.573 51.9901C93.5067 52.0299 93.4321 52.0498 93.3493 52.0498ZM96.3223 52.0796C95.9477 52.0796 95.6287 51.9777 95.3652 51.7739C95.1017 51.5684 94.9004 51.2709 94.7612 50.8815C94.622 50.4904 94.5524 50.0181 94.5524 49.4646C94.5524 48.9144 94.622 48.4446 94.7612 48.0551C94.902 47.664 95.1042 47.3657 95.3677 47.1602C95.6329 46.9531 95.9511 46.8495 96.3223 46.8495C96.6935 46.8495 97.0108 46.9531 97.2743 47.1602C97.5395 47.3657 97.7417 47.664 97.8809 48.0551C98.0217 48.4446 98.0922 48.9144 98.0922 49.4646C98.0922 50.0181 98.0225 50.4904 97.8833 50.8815C97.7441 51.2709 97.5428 51.5684 97.2793 51.7739C97.0158 51.9777 96.6968 52.0796 96.3223 52.0796ZM96.3223 51.5327C96.6935 51.5327 96.9818 51.3538 97.1873 50.9958C97.3928 50.6379 97.4956 50.1274 97.4956 49.4646C97.4956 49.0237 97.4483 48.6484 97.3539 48.3385C97.2611 48.0286 97.1268 47.7924 96.9512 47.63C96.7772 47.4676 96.5675 47.3864 96.3223 47.3864C95.9544 47.3864 95.6668 47.5679 95.4597 47.9308C95.2525 48.2921 95.149 48.8033 95.149 49.4646C95.149 49.9054 95.1954 50.2799 95.2882 50.5881C95.381 50.8964 95.5144 51.1309 95.6884 51.2916C95.8641 51.4524 96.0753 51.5327 96.3223 51.5327Z" fill="#0000FF"/>
<path fill-rule="evenodd" clip-rule="evenodd" d="M26.2794 16.4148C26.6906 16.0036 27.3573 16.0036 27.7685 16.4148L33.1613 21.8076C33.1645 21.8108 33.1677 21.814 33.1708 21.8173C33.6233 22.2776 33.7577 22.9643 33.5102 23.5619C33.261 24.1633 32.6741 24.5558 32.0228 24.5558H30.7732C30.6959 24.5558 30.6332 24.6185 30.6332 24.6958V27.7851C30.6332 28.6742 29.9125 29.395 29.0233 29.395H25.0243C24.1352 29.395 23.4144 28.6742 23.4144 27.7851V24.6958C23.4144 24.6185 23.3518 24.5558 23.2744 24.5558H22.0248C21.3736 24.5558 20.7867 24.1635 20.5375 23.5621C20.2886 22.9605 20.4261 22.2681 20.8864 21.8077L26.2794 16.4148ZM32.15 22.8045L27.1229 17.7774C27.0683 17.7227 26.9796 17.7227 26.9249 17.7774L21.8907 22.8116C21.8364 22.8659 21.82 22.9477 21.8495 23.0188C21.8789 23.0899 21.9481 23.1358 22.0248 23.1358H23.9543C24.4401 23.1358 24.8344 23.5295 24.8344 24.0159V27.7851C24.8344 27.89 24.9195 27.975 25.0243 27.975H29.0233C29.1282 27.975 29.2132 27.89 29.2132 27.7851V24.0159C29.2132 23.5299 29.6073 23.1358 30.0933 23.1358H32.0228C32.0995 23.1358 32.1688 23.0896 32.1982 23.0187M32.15 22.8045C32.1523 22.8069 32.1546 22.8092 32.157 22.8116C32.2114 22.866 32.2276 22.9477 32.1982 23.0187" fill="black"/>
</svg>
