<svg width="122" height="54" viewBox="0 0 122 54" fill="none" xmlns="http://www.w3.org/2000/svg">
<path d="M10.521 37.0324C10.546 37.6944 10.699 38.3564 10.9684 38.966C11.2414 39.587 11.6344 40.153 12.1169 40.6291C12.6029 41.1081 13.1789 41.4962 13.8045 41.7707C14.4295 42.0446 15.1035 42.2066 15.7799 42.2498C30.9379 42.6339 46.1009 42.8258 61.2639 42.8256C76.4179 42.8256 91.5719 42.6346 106.721 42.2502C107.397 42.2063 108.071 42.0393 108.693 41.767C109.007 41.629 109.308 41.465 109.591 41.2751C109.874 41.085 110.141 40.8691 110.384 40.6287C110.626 40.3907 110.846 40.1297 111.04 39.8499C111.23 39.5719 111.396 39.2769 111.532 38.9677C111.665 38.6617 111.77 38.3437 111.846 38.0173C111.921 37.6953 111.97 37.3663 111.978 37.0352C112.055 27.1043 112.158 17.1743 112.289 7.24458C112.269 6.52852 112.107 5.80855 111.818 5.14998C111.675 4.821 111.5 4.50703 111.294 4.2148C111.09 3.92378 110.856 3.65279 110.595 3.40974C110.076 2.92683 109.451 2.55183 108.786 2.30684C108.452 2.18294 108.108 2.09285 107.758 2.03133C107.408 1.96931 107.05 1.93428 106.695 1.93025C76.3989 1.8293 46.1019 1.8293 15.8061 1.93062C15.0981 1.93758 14.3831 2.0666 13.7161 2.31258C13.3821 2.43562 13.0611 2.58858 12.7575 2.77132C12.4525 2.9543 12.1665 3.16829 11.9063 3.41048C11.6453 3.6534 11.4113 3.92439 11.2068 4.21651C11.0018 4.50948 10.8278 4.82356 10.6849 5.15193C10.5409 5.48103 10.4279 5.82295 10.3492 6.17329C10.2692 6.52425 10.2222 6.88423 10.2117 7.24434C10.3387 17.1743 10.4427 27.1043 10.5217 37.0343" stroke="#16215B" stroke-width="0.283" stroke-miterlimit="10"/>
<path d="M13.8938 4.15683H102.23H108.608C109.782 4.15683 110.734 5.10886 110.734 6.28281V38.4819C110.734 39.6556 109.782 40.6075 108.608 40.6075H13.8936C12.7198 40.6076 11.7678 39.6556 11.7678 38.4815L11.7678 6.28293C11.7678 5.10886 12.7198 4.15683 13.8938 4.15683Z" stroke="#00FFFF" stroke-width="0.28" stroke-miterlimit="10"/>
<path d="M111.176 36.5607C111.175 36.7088 111.169 36.8548 111.155 37.0018C111.148 37.0748 111.139 37.1478 111.128 37.2208C111.118 37.2928 111.106 37.3658 111.091 37.4378C111.036 37.7279 110.954 38.0087 110.842 38.2808C110.788 38.4159 110.725 38.5498 110.656 38.6807C110.622 38.7458 110.585 38.8107 110.546 38.8748C110.509 38.9378 110.469 39.0008 110.428 39.0618C110.264 39.3057 110.077 39.5328 109.866 39.7408C109.813 39.7928 109.758 39.8438 109.703 39.8928C109.647 39.9428 109.589 39.9908 109.532 40.0368C109.416 40.1298 109.295 40.2168 109.171 40.2968C108.924 40.4567 108.662 40.5929 108.384 40.7028C108.315 40.7308 108.245 40.7578 108.174 40.7818C108.104 40.8057 108.033 40.8288 107.961 40.8498C107.819 40.8928 107.675 40.9278 107.531 40.9567C107.241 41.0149 106.947 41.0478 106.648 41.0557C76.4149 41.8608 46.0859 41.8608 15.854 41.0557C15.5546 41.0482 15.2586 41.0152 14.9656 40.9561C14.8916 40.9411 14.8196 40.9251 14.7467 40.9072C14.6746 40.8891 14.6016 40.8692 14.5306 40.8482C14.3886 40.8051 14.2486 40.7562 14.1116 40.7011C13.9736 40.6462 13.8397 40.5842 13.7076 40.5162C13.6406 40.4812 13.5756 40.4451 13.5117 40.4082C13.4466 40.3702 13.3827 40.3311 13.3206 40.2901C13.0706 40.1281 12.8406 39.9432 12.6307 39.7352C12.5776 39.6842 12.5266 39.6302 12.4756 39.5761C12.4266 39.5202 12.3776 39.4642 12.3296 39.4072C12.2346 39.2922 12.1466 39.1732 12.0657 39.0512C11.9036 38.8072 11.7666 38.5482 11.6566 38.2752C11.6286 38.2072 11.6027 38.1381 11.5787 38.0682C11.5536 37.9981 11.5316 37.9282 11.5117 37.8571C11.4706 37.7161 11.4356 37.5742 11.4087 37.4312C11.3536 37.1452 11.3256 36.8552 11.3247 36.5611C11.3094 31.7801 11.2924 27.0001 11.2714 22.2191C11.2524 17.439 11.2304 12.658 11.2055 7.87703C11.1968 7.71908 11.1898 7.56112 11.1917 7.40401C11.1937 7.24703 11.2028 7.09005 11.2197 6.93306C11.2288 6.85506 11.2398 6.77706 11.2528 6.69906C11.2647 6.62203 11.2808 6.54403 11.2978 6.46602C11.3317 6.31307 11.3737 6.16207 11.4248 6.01412C11.4748 5.86605 11.5337 5.72103 11.6007 5.57906C11.6347 5.50802 11.6717 5.43905 11.7098 5.3691C11.7477 5.30001 11.7888 5.23201 11.8307 5.16512C11.9987 4.89901 12.1968 4.65706 12.4228 4.43905C12.4777 4.38411 12.5368 4.33101 12.5957 4.28011C12.6567 4.22811 12.7178 4.17806 12.7808 4.12911C12.9078 4.03304 13.0377 3.94405 13.1728 3.86312C13.4427 3.70003 13.7288 3.56612 14.0308 3.45907C14.3327 3.35311 14.6397 3.27608 14.9528 3.22603C15.2647 3.17501 15.5827 3.15011 15.9038 3.14901C45.104 3.04683 74.393 3.04281 103.601 3.13875C104.492 3.14156 105.383 3.14461 106.274 3.14766C106.329 3.14766 106.385 3.14766 106.441 3.14864C106.496 3.14864 106.552 3.14864 106.608 3.14864C106.719 3.14962 106.83 3.15255 106.942 3.15963C107.053 3.16659 107.164 3.17562 107.275 3.18856C107.385 3.20064 107.494 3.21566 107.603 3.23458C107.82 3.27266 108.034 3.32259 108.246 3.38558C108.352 3.41756 108.456 3.45357 108.56 3.49166C108.611 3.51156 108.663 3.53158 108.714 3.55257C108.766 3.57467 108.817 3.59664 108.866 3.61959C109.067 3.71065 109.258 3.81466 109.442 3.93355C109.624 4.05159 109.798 4.18355 109.962 4.33065C110.003 4.36764 110.044 4.40462 110.083 4.44259C110.122 4.48165 110.161 4.52059 110.198 4.55965C110.274 4.63863 110.345 4.72066 110.413 4.80562C110.549 4.97457 110.67 5.15365 110.777 5.34359C110.804 5.39156 110.829 5.43966 110.855 5.48861C110.879 5.53756 110.903 5.58663 110.926 5.63656C110.972 5.73555 111.013 5.83663 111.05 5.93966C111.124 6.14364 111.183 6.35262 111.225 6.56661C111.235 6.62056 111.244 6.67367 111.253 6.7286C111.262 6.78255 111.27 6.83663 111.275 6.89156C111.289 7.00057 111.298 7.10958 111.304 7.21859C111.309 7.32857 111.311 7.43758 111.309 7.54659C111.307 7.65658 111.302 7.76656 111.296 7.87618C111.271 12.6572 111.248 17.4382 111.229 22.2192C111.209 26.9992 111.192 31.7802 111.176 36.5607Z" stroke="#FF00FF" stroke-width="0.283465" stroke-miterlimit="10" stroke-linecap="round" stroke-linejoin="round"/>
<path d="M106.874 52.01V51.5626L108.555 49.7231C108.752 49.5077 108.914 49.3204 109.042 49.1613C109.169 49.0006 109.264 48.8498 109.325 48.7089C109.388 48.5664 109.42 48.4172 109.42 48.2615C109.42 48.0825 109.377 47.9275 109.29 47.7966C109.206 47.6657 109.09 47.5646 108.942 47.4933C108.795 47.4221 108.629 47.3865 108.445 47.3865C108.25 47.3865 108.079 47.4271 107.933 47.5083C107.789 47.5878 107.677 47.6997 107.598 47.8438C107.52 47.988 107.481 48.1571 107.481 48.3509H106.894C106.894 48.0527 106.963 47.7908 107.1 47.5654C107.238 47.3401 107.425 47.1644 107.662 47.0384C107.901 46.9125 108.168 46.8495 108.465 46.8495C108.763 46.8495 109.028 46.9125 109.258 47.0384C109.488 47.1644 109.669 47.3343 109.8 47.548C109.931 47.7618 109.996 47.9996 109.996 48.2615C109.996 48.4487 109.962 48.6318 109.894 48.8108C109.828 48.9881 109.712 49.1862 109.546 49.4049C109.382 49.622 109.154 49.8872 108.863 50.2004L107.719 51.4234V51.4632H110.086V52.01H106.874ZM111.55 52.0498C111.427 52.0498 111.322 52.0059 111.234 51.9181C111.146 51.8302 111.102 51.725 111.102 51.6024C111.102 51.4797 111.146 51.3745 111.234 51.2867C111.322 51.1988 111.427 51.1549 111.55 51.1549C111.673 51.1549 111.778 51.1988 111.866 51.2867C111.953 51.3745 111.997 51.4797 111.997 51.6024C111.997 51.6836 111.977 51.7581 111.935 51.8261C111.895 51.894 111.842 51.9487 111.774 51.9902C111.707 52.0299 111.633 52.0498 111.55 52.0498ZM113.04 52.01V51.5626L114.721 49.7231C114.918 49.5077 115.08 49.3204 115.208 49.1613C115.335 49.0006 115.43 48.8498 115.491 48.7089C115.554 48.5664 115.586 48.4172 115.586 48.2615C115.586 48.0825 115.543 47.9275 115.456 47.7966C115.372 47.6657 115.256 47.5646 115.108 47.4933C114.961 47.4221 114.795 47.3865 114.611 47.3865C114.416 47.3865 114.245 47.4271 114.099 47.5083C113.955 47.5878 113.843 47.6997 113.764 47.8438C113.686 47.988 113.647 48.1571 113.647 48.3509H113.06C113.06 48.0527 113.129 47.7908 113.266 47.5654C113.404 47.3401 113.591 47.1644 113.828 47.0384C114.067 46.9125 114.334 46.8495 114.631 46.8495C114.929 46.8495 115.194 46.9125 115.424 47.0384C115.654 47.1644 115.835 47.3343 115.966 47.548C116.097 47.7618 116.162 47.9996 116.162 48.2615C116.162 48.4487 116.128 48.6318 116.06 48.8108C115.994 48.9881 115.878 49.1862 115.712 49.4049C115.548 49.622 115.32 49.8872 115.029 50.2004L113.885 51.4234V51.4632H116.252V52.01H113.04ZM118.869 52.0796C118.578 52.0796 118.315 52.0216 118.081 51.9056C117.848 51.7896 117.66 51.6305 117.52 51.4284C117.379 51.2262 117.302 50.9958 117.288 50.7373H117.885C117.908 50.9677 118.013 51.1582 118.198 51.309C118.385 51.4582 118.609 51.5328 118.869 51.5328C119.078 51.5328 119.264 51.4839 119.426 51.3861C119.59 51.2883 119.719 51.1541 119.811 50.9834C119.906 50.8111 119.953 50.6163 119.953 50.3992C119.953 50.1772 119.904 49.9791 119.807 49.8051C119.71 49.6295 119.578 49.4911 119.409 49.39C119.24 49.2889 119.047 49.2375 118.83 49.2359C118.674 49.2342 118.514 49.2583 118.35 49.308C118.186 49.356 118.051 49.4182 117.945 49.4944L117.368 49.4248L117.676 46.9191H120.321V47.466H118.193L118.014 48.9674H118.044C118.148 48.8846 118.279 48.8158 118.437 48.7611C118.594 48.7064 118.758 48.6791 118.929 48.6791C119.241 48.6791 119.518 48.7536 119.762 48.9028C120.007 49.0503 120.199 49.2525 120.338 49.5093C120.479 49.7662 120.55 50.0595 120.55 50.3893C120.55 50.7141 120.477 51.0041 120.331 51.2593C120.187 51.5129 119.988 51.7134 119.734 51.8609C119.481 52.0067 119.193 52.0796 118.869 52.0796Z" fill="#0000FF"/>
<path d="M19.1006 25.8673C17.6943 25.8673 16.7568 25.2814 16.4834 24.4806C16.4395 24.3634 16.415 24.2365 16.415 24.1193C16.415 23.7677 16.6396 23.5431 16.9716 23.5431C17.2499 23.5431 17.4257 23.6554 17.5624 23.9386C17.7821 24.549 18.3876 24.8224 19.1396 24.8224C19.9892 24.8224 20.5849 24.4025 20.5849 23.8165C20.5849 23.3087 20.2333 22.9962 19.3154 22.8057L18.5586 22.6494C17.1475 22.3613 16.4883 21.6972 16.4883 20.667C16.4883 19.4268 17.5772 18.5869 19.1055 18.5869C20.3506 18.5869 21.3174 19.1435 21.6055 20.0762C21.6348 20.1543 21.6494 20.2471 21.6494 20.3643C21.6494 20.6719 21.4297 20.8819 21.1025 20.8819C20.8095 20.8819 20.6289 20.7549 20.497 20.4815C20.2577 19.8858 19.7548 19.6319 19.0956 19.6319C18.3143 19.6319 17.7577 20.003 17.7577 20.5938C17.7577 21.0723 18.1093 21.3799 18.9882 21.5655L19.745 21.7218C21.2294 22.0294 21.8544 22.6251 21.8544 23.6701C21.8544 25.0178 20.7948 25.8674 19.1005 25.8674L19.1006 25.8673Z" fill="black"/>
<path d="M22.9131 25.2081V19.2307C22.9131 18.8449 23.1426 18.6056 23.5138 18.6056C23.885 18.6056 24.1145 18.8449 24.1145 19.2307V20.7064C24.1145 20.8096 24.2211 20.8782 24.315 20.8354C24.6103 20.7008 25.1908 20.476 25.7749 20.476C26.9176 20.476 27.5867 21.2281 27.5867 22.4148V25.2082C27.5867 25.6184 27.3328 25.8479 26.9763 25.8479C26.6198 25.8479 26.3707 25.6184 26.3707 25.2082V22.6639C26.3707 21.9411 26.0093 21.5065 25.3061 21.5065C24.6029 21.5065 24.1292 22.0144 24.1292 22.7762V25.2082C24.1292 25.6184 23.8801 25.8479 23.5236 25.8479C23.1671 25.8479 22.9131 25.6183 22.9131 25.2081Z" fill="black"/>
<path d="M29.3979 20.4717C29.0268 20.4717 28.7924 20.7207 28.7924 21.1114V25.2081C28.7924 25.6036 29.0268 25.8478 29.3979 25.8478C29.769 25.8478 30.0083 25.6037 30.0083 25.2081V21.1163C30.0083 20.7208 29.769 20.4718 29.3979 20.4718V20.4717ZM29.3979 19.8467C29.7788 19.8467 30.0766 19.5537 30.0766 19.1875C30.0766 18.8213 29.7787 18.5283 29.3979 18.5283C29.0171 18.5283 28.7241 18.8164 28.7241 19.1875C28.7241 19.5586 29.022 19.8467 29.3979 19.8467Z" fill="black"/>
<g clip-path="url(#clip0_466_908552)">
<path fill-rule="evenodd" clip-rule="evenodd" d="M32.2618 25.8477C31.8956 25.8477 31.6514 25.6231 31.6514 25.2129V21.6535C31.6514 21.5752 31.5879 21.5118 31.5097 21.5118H31.3292C31.0558 21.5118 30.8604 21.3458 30.8604 21.0479C30.8604 20.75 31.0557 20.5889 31.3292 20.5889H31.5097C31.588 20.5889 31.6514 20.5254 31.6514 20.4472V20.1299C31.6514 19.1192 32.1023 18.6505 33.213 18.6505C33.9889 18.6505 34.0097 18.9955 34.0097 19.1583C34.0097 19.3413 33.8989 19.5305 33.7166 19.5785C33.6311 19.601 33.5976 19.6036 33.4725 19.609C33.0285 19.6281 32.8475 19.7492 32.8475 20.1838V20.4473C32.8475 20.5238 32.9081 20.5861 32.9838 20.5889H34.3681C34.3806 20.5883 34.3932 20.588 34.4061 20.588H34.5915C34.6698 20.588 34.7332 20.5245 34.7332 20.4463V19.8833C34.7332 19.4926 34.9676 19.2484 35.3437 19.2484C35.7198 19.2484 35.9493 19.4925 35.9493 19.8833V20.4463C35.9493 20.5246 36.0128 20.588 36.091 20.588H36.5109C36.8136 20.588 36.9993 20.7588 36.9993 21.047C36.9993 21.3352 36.8138 21.5109 36.5109 21.5109H36.091C36.0127 21.5109 35.9493 21.5744 35.9493 21.6526V24.2052C35.9493 24.5959 36.086 24.7668 36.4377 24.7961L36.5256 24.8059C36.8479 24.8352 37.014 24.9719 37.014 25.2552C37.014 25.6116 36.7015 25.8022 36.1448 25.8022H36.096C35.1926 25.8022 34.7335 25.3529 34.7335 24.469H34.7333L34.7332 24.4689V21.6526C34.7332 21.5797 34.6782 21.5198 34.6076 21.5118H33.5131C33.5094 21.5118 33.5056 21.5119 33.5018 21.5119H33.0088C32.9305 21.5119 32.8671 21.5754 32.8671 21.6536V25.213C32.8671 25.6232 32.623 25.8478 32.2616 25.8478L32.2618 25.8477Z" fill="black"/>
</g>
<defs>
<clipPath id="clip0_466_908552">
<rect width="6.1531" height="7.1973" fill="white" transform="translate(30.8604 18.6504)"/>
</clipPath>
</defs>
</svg>
