<svg width="54" height="54" viewBox="0 0 54 54" fill="none" xmlns="http://www.w3.org/2000/svg">
<path d="M9.91309 37.0476C9.83508 27.0606 9.73608 17.0726 9.61914 7.08457L9.6192 7.08213C9.62323 6.91611 9.63623 6.7501 9.65631 6.58396C9.67633 6.41892 9.70233 6.25498 9.73553 6.09153C9.76752 5.92954 9.80652 5.76853 9.85266 5.60972C9.89966 5.45176 9.95166 5.29575 10.0115 5.14158C10.1985 4.66758 10.4535 4.21665 10.77 3.81431C11.083 3.41733 11.456 3.06833 11.8725 2.78391C12.2875 2.50193 12.7465 2.28391 13.2258 2.13694C13.7078 1.98984 14.2118 1.91392 14.7141 1.90659C18.8081 1.87168 22.9021 1.85459 26.9963 1.85496C31.0893 1.85496 35.1833 1.87192 39.2776 1.9072C39.4396 1.91013 39.6016 1.92112 39.7635 1.93772C40.0035 1.96372 40.2435 2.00474 40.4799 2.0615C40.7139 2.11851 40.9449 2.1904 41.1697 2.27952C41.4037 2.37253 41.6287 2.4835 41.8449 2.61069C42.062 2.73862 42.2689 2.88267 42.4627 3.0416C42.6577 3.20164 42.8417 3.37668 43.0105 3.56321C43.1795 3.75217 43.3355 3.9542 43.476 4.16575C43.757 4.59482 43.975 5.06479 44.125 5.55649C44.276 6.05442 44.358 6.57444 44.373 7.09263C44.252 17.0696 44.154 27.0466 44.08 37.0251C44.074 37.185 44.0601 37.3451 44.039 37.5036C44.018 37.6646 43.991 37.8236 43.9569 37.9813C43.9239 38.1402 43.8839 38.2983 43.8358 38.4537C43.7888 38.6097 43.7349 38.7636 43.675 38.9156C43.484 39.3907 43.228 39.8407 42.9172 40.2495C42.6032 40.6605 42.2352 41.0285 41.8244 41.3395C41.4154 41.6495 40.9624 41.9035 40.4838 42.0906C40.0098 42.2755 39.5098 42.3955 39.0063 42.4435C31.0073 42.9535 22.9843 42.9535 14.9849 42.4436C14.6529 42.4116 14.3229 42.3476 14.0024 42.2535C13.6794 42.1595 13.3654 42.0345 13.0632 41.8819C12.4602 41.5749 11.9092 41.1568 11.4476 40.6577C10.9866 40.1606 10.6126 39.5816 10.349 38.9596C10.219 38.6516 10.115 38.3325 10.0411 38.0056C9.96912 37.6836 9.92407 37.3546 9.91113 37.0245" stroke="#16215B" stroke-width="0.283" stroke-miterlimit="10"/>
<rect x="12.6855" y="5.52832" width="28.63" height="34.31" rx="1.43" stroke="#00FFFF" stroke-width="0.28"/>
<path d="M42.9399 36.5841C42.9578 31.7321 42.9778 26.8791 43.0009 22.0272C43.0219 17.1742 43.0469 12.3221 43.0759 7.46909C43.0767 7.32443 43.0717 7.18039 43.0596 7.03745C43.0497 6.89438 43.0317 6.75143 43.0076 6.61044C42.9606 6.32834 42.8887 6.05441 42.7897 5.7894C42.7646 5.72336 42.7386 5.65744 42.7106 5.59238C42.6816 5.52634 42.6526 5.4614 42.6216 5.39841C42.5587 5.27036 42.4907 5.14743 42.4156 5.02841C42.2667 4.79037 42.0936 4.5704 41.8937 4.36642C41.6957 4.16342 41.4777 3.98642 41.2437 3.83334C41.1266 3.75742 41.0057 3.68637 40.8796 3.62241C40.8167 3.59042 40.7537 3.55942 40.6877 3.53036C40.6237 3.50034 40.5566 3.47336 40.4907 3.44736C40.2236 3.34335 39.9507 3.2684 39.6716 3.21738C39.3926 3.16635 39.1077 3.14035 38.8167 3.13742C37.8378 3.12985 36.8568 3.1218 35.8738 3.11581C34.8898 3.10886 33.9058 3.10385 32.9208 3.09885C30.9498 3.09079 28.9758 3.08688 26.9988 3.08688C26.5038 3.08688 26.0098 3.08688 25.5148 3.08688C25.0208 3.08786 24.5258 3.08884 24.0308 3.08981C23.0418 3.09189 22.0538 3.09482 21.0688 3.09885C19.0968 3.10788 17.1328 3.12082 15.1758 3.13779C15.0301 3.13889 14.8861 3.14682 14.7411 3.15988C14.5981 3.1738 14.4541 3.19284 14.3131 3.21884C14.0301 3.27084 13.7561 3.34787 13.4911 3.45187C13.4251 3.47787 13.3601 3.50485 13.2951 3.53488C13.2301 3.56381 13.1651 3.59579 13.1021 3.6279C12.9751 3.69382 12.8541 3.76486 12.7361 3.84286C12.5011 3.9968 12.2841 4.17587 12.0861 4.37985C12.0371 4.4299 11.9891 4.48288 11.9431 4.53586C11.8971 4.58884 11.8521 4.64279 11.8091 4.69882C11.7231 4.80881 11.6431 4.9238 11.5691 5.04184C11.4951 5.16086 11.4281 5.2839 11.3651 5.40988C11.3351 5.47287 11.3061 5.53683 11.2781 5.60287C11.2501 5.66782 11.2241 5.73483 11.1991 5.80185C11.1011 6.06784 11.0301 6.34079 10.9841 6.61887C10.9381 6.89682 10.9151 7.18088 10.9171 7.46982C10.9454 12.3224 10.9714 17.1744 10.9935 22.0274C11.0165 26.8794 11.0355 31.7324 11.0535 36.5844C11.0541 36.8712 11.0781 37.1551 11.1281 37.4392C11.1411 37.5101 11.1552 37.5811 11.1701 37.6511C11.1862 37.7212 11.2021 37.7911 11.2211 37.8601C11.2581 37.9991 11.3011 38.1351 11.3502 38.2701C11.3991 38.4051 11.4531 38.5382 11.5151 38.6682C11.5461 38.7331 11.5771 38.7982 11.6121 38.8622C11.6461 38.9261 11.6812 38.9901 11.7181 39.0532C11.8651 39.3032 12.0331 39.5361 12.2241 39.7531C12.3192 39.8612 12.4201 39.9652 12.5272 40.0652C12.5791 40.1151 12.6342 40.1632 12.6901 40.2102C12.7451 40.2572 12.8011 40.3021 12.8591 40.3462C13.0881 40.5211 13.3322 40.6721 13.5921 40.7982C13.6571 40.8302 13.7231 40.8601 13.7902 40.8882C13.8571 40.9171 13.9241 40.9431 13.9921 40.9681C14.1281 41.0182 14.2651 41.0611 14.4041 41.0971C14.6801 41.1692 14.9631 41.2131 15.2512 41.2312C16.2243 41.2916 17.1993 41.3446 18.1773 41.3896C19.1533 41.4356 20.1323 41.4726 21.1113 41.5027C23.0683 41.5636 25.0293 41.5936 26.9943 41.5936C27.4853 41.5936 27.9773 41.5916 28.4683 41.5876C28.9593 41.5846 29.4513 41.5786 29.9423 41.5706C30.9253 41.5556 31.9063 41.5335 32.8863 41.5027C34.8443 41.4426 36.7963 41.3526 38.7416 41.2315C38.8866 41.2226 39.0296 41.2066 39.1726 41.1845C39.2436 41.1726 39.3146 41.1596 39.3866 41.1446C39.4566 41.1296 39.5276 41.1136 39.5966 41.0946C39.8766 41.0226 40.1456 40.9226 40.4046 40.7956C40.4706 40.7646 40.5336 40.7315 40.5966 40.6966C40.6606 40.6616 40.7236 40.6246 40.7856 40.5855C40.9096 40.5096 41.0286 40.4266 41.1426 40.3386C41.3726 40.1635 41.5826 39.9666 41.7736 39.7486C41.8216 39.6936 41.8676 39.6375 41.9136 39.5807C41.9586 39.5237 42.0026 39.4655 42.0446 39.4066C42.1296 39.2896 42.2076 39.1685 42.2796 39.0446C42.4256 38.7966 42.5466 38.5376 42.6446 38.2656C42.6696 38.1976 42.6926 38.1286 42.7146 38.0595C42.7356 37.9906 42.7556 37.9216 42.7736 37.8526C42.8106 37.7136 42.8416 37.5746 42.8656 37.4345C42.9146 37.1537 42.9386 36.8706 42.9399 36.5841Z" stroke="#FF00FF" stroke-width="0.283465" stroke-miterlimit="10" stroke-linecap="round" stroke-linejoin="round"/>
<path d="M19.1421 25.8673C17.7358 25.8673 16.7983 25.2814 16.5249 24.4806C16.481 24.3634 16.4565 24.2365 16.4565 24.1193C16.4565 23.7677 16.6811 23.5431 17.0131 23.5431C17.2914 23.5431 17.4672 23.6554 17.6039 23.9386C17.8236 24.549 18.4291 24.8224 19.1811 24.8224C20.0307 24.8224 20.6264 24.4025 20.6264 23.8165C20.6264 23.3087 20.2748 22.9962 19.3569 22.8057L18.6001 22.6494C17.189 22.3613 16.5298 21.6972 16.5298 20.667C16.5298 19.4268 17.6187 18.5869 19.147 18.5869C20.3921 18.5869 21.3589 19.1435 21.647 20.0762C21.6763 20.1543 21.6909 20.2471 21.6909 20.3643C21.6909 20.6719 21.4712 20.8819 21.144 20.8819C20.851 20.8819 20.6704 20.7549 20.5385 20.4815C20.2992 19.8858 19.7963 19.6319 19.1371 19.6319C18.3558 19.6319 17.7992 20.003 17.7992 20.5938C17.7992 21.0723 18.1508 21.3799 19.0297 21.5655L19.7865 21.7218C21.2709 22.0294 21.8959 22.6251 21.8959 23.6701C21.8959 25.0178 20.8363 25.8674 19.142 25.8674L19.1421 25.8673Z" fill="black"/>
<path d="M22.9541 25.2081V19.2307C22.9541 18.8449 23.1836 18.6056 23.5548 18.6056C23.926 18.6056 24.1555 18.8449 24.1555 19.2307V20.7064C24.1555 20.8096 24.2621 20.8782 24.356 20.8354C24.6513 20.7008 25.2318 20.476 25.8159 20.476C26.9586 20.476 27.6277 21.2281 27.6277 22.4148V25.2082C27.6277 25.6184 27.3738 25.8479 27.0173 25.8479C26.6608 25.8479 26.4117 25.6184 26.4117 25.2082V22.6639C26.4117 21.9411 26.0503 21.5065 25.3471 21.5065C24.6439 21.5065 24.1702 22.0144 24.1702 22.7762V25.2082C24.1702 25.6184 23.9211 25.8479 23.5646 25.8479C23.2081 25.8479 22.9541 25.6183 22.9541 25.2081Z" fill="black"/>
<path d="M29.4394 20.4717C29.0683 20.4717 28.8339 20.7207 28.8339 21.1114V25.2081C28.8339 25.6036 29.0683 25.8478 29.4394 25.8478C29.8105 25.8478 30.0498 25.6037 30.0498 25.2081V21.1163C30.0498 20.7208 29.8105 20.4718 29.4394 20.4718V20.4717ZM29.4394 19.8467C29.8203 19.8467 30.1181 19.5537 30.1181 19.1875C30.1181 18.8213 29.8202 18.5283 29.4394 18.5283C29.0586 18.5283 28.7656 18.8164 28.7656 19.1875C28.7656 19.5586 29.0635 19.8467 29.4394 19.8467Z" fill="black"/>
<g clip-path="url(#clip0_466_908546)">
<path fill-rule="evenodd" clip-rule="evenodd" d="M32.3033 25.8477C31.9371 25.8477 31.6929 25.6231 31.6929 25.2129V21.6535C31.6929 21.5752 31.6294 21.5118 31.5512 21.5118H31.3707C31.0973 21.5118 30.9019 21.3458 30.9019 21.0479C30.9019 20.75 31.0972 20.5889 31.3707 20.5889H31.5512C31.6295 20.5889 31.6929 20.5254 31.6929 20.4472V20.1299C31.6929 19.1192 32.1438 18.6505 33.2545 18.6505C34.0304 18.6505 34.0512 18.9955 34.0512 19.1583C34.0512 19.3413 33.9404 19.5305 33.7581 19.5785C33.6726 19.601 33.6391 19.6036 33.514 19.609C33.07 19.6281 32.889 19.7492 32.889 20.1838V20.4473C32.889 20.5238 32.9496 20.5861 33.0253 20.5889H34.4096C34.4221 20.5883 34.4347 20.588 34.4476 20.588H34.633C34.7113 20.588 34.7747 20.5245 34.7747 20.4463V19.8833C34.7747 19.4926 35.0091 19.2484 35.3852 19.2484C35.7613 19.2484 35.9908 19.4925 35.9908 19.8833V20.4463C35.9908 20.5246 36.0543 20.588 36.1325 20.588H36.5524C36.8551 20.588 37.0408 20.7588 37.0408 21.047C37.0408 21.3352 36.8553 21.5109 36.5524 21.5109H36.1325C36.0542 21.5109 35.9908 21.5744 35.9908 21.6526V24.2052C35.9908 24.5959 36.1275 24.7668 36.4792 24.7961L36.5671 24.8059C36.8894 24.8352 37.0555 24.9719 37.0555 25.2552C37.0555 25.6116 36.743 25.8022 36.1863 25.8022H36.1375C35.2341 25.8022 34.775 25.3529 34.775 24.469H34.7748L34.7747 24.4689V21.6526C34.7747 21.5797 34.7197 21.5198 34.6491 21.5118H33.5546C33.5509 21.5118 33.5471 21.5119 33.5433 21.5119H33.0503C32.972 21.5119 32.9086 21.5754 32.9086 21.6536V25.213C32.9086 25.6232 32.6645 25.8478 32.3031 25.8478L32.3033 25.8477Z" fill="black"/>
</g>
<defs>
<clipPath id="clip0_466_908546">
<rect width="6.1531" height="7.1973" fill="white" transform="translate(30.9019 18.6504)"/>
</clipPath>
</defs>
</svg>
