<svg width="95" height="54" viewBox="0 0 95 54" fill="none" xmlns="http://www.w3.org/2000/svg">
<path d="M9.90808 37.0565C9.93207 37.7185 10.084 38.3814 10.3498 38.9937C10.6218 39.6168 11.0108 40.1858 11.4894 40.6655C11.9725 41.1505 12.5445 41.5435 13.1692 41.8247C13.7902 42.1036 14.4622 42.2716 15.1375 42.3183C25.8384 42.6733 36.5444 42.8513 47.2508 42.8517C57.9578 42.8517 68.6638 42.6737 79.3646 42.3186C80.0385 42.2706 80.7115 42.0976 81.33 41.8195C81.643 41.6797 81.9431 41.5127 82.2242 41.3198C82.5052 41.1268 82.7702 40.9078 83.0126 40.6661C83.2526 40.4251 83.4706 40.1622 83.6628 39.88C83.8519 39.6009 84.0168 39.3039 84.1497 38.9942C84.2167 38.8392 84.2757 38.6822 84.3273 38.5228C84.3793 38.3648 84.4243 38.2048 84.4612 38.0418C84.5363 37.7188 84.5853 37.3889 84.5938 37.0575C84.6708 27.1264 84.7728 17.1944 84.9016 7.26352C84.8876 6.71957 84.7916 6.17453 84.6219 5.65439C84.4529 5.13937 84.2089 4.64731 83.8973 4.20529C83.7413 3.98422 83.5693 3.77634 83.3809 3.58298C83.1938 3.39096 82.9919 3.21396 82.7748 3.05319C82.3448 2.73312 81.8639 2.47812 81.3613 2.29684C80.8863 2.12985 80.3873 2.02487 79.8863 1.97751C79.7183 1.96249 79.5503 1.95248 79.3816 1.95041C57.9615 1.85641 36.5406 1.85641 15.1202 1.95016C14.4182 1.95822 13.7112 2.08713 13.0491 2.33774C12.3901 2.58774 11.7741 2.95871 11.264 3.44199C10.7499 3.92795 10.345 4.52695 10.063 5.18051C9.77905 5.83945 9.62006 6.55246 9.59961 7.26389C9.72565 17.1949 9.82861 27.1259 9.90765 37.0578" stroke="#16215B" stroke-width="0.283" stroke-miterlimit="10"/>
<path d="M81.033 40.8396H13.4791C12.304 40.8397 11.353 39.8877 11.353 38.7136C11.353 38.714 11.353 6.4729 11.353 6.4729C11.353 5.29895 12.304 4.34692 13.4791 4.34692C13.479 4.34692 17.022 4.34692 17.022 4.34692C17.0219 4.34692 77.4899 4.34692 77.4899 4.34692C77.4897 4.34692 81.0327 4.34692 81.0327 4.34692C82.2077 4.34692 83.1588 5.29895 83.1588 6.47266C83.1588 6.47266 83.1588 38.7136 83.1587 38.7136C83.1587 39.8877 82.208 40.8396 81.033 40.8396ZM81.033 40.8396L81.0308 40.6682C81.0618 40.6672 81.0928 40.6663 81.1248 40.6653" stroke="#00FFFF" stroke-width="0.28" stroke-miterlimit="10"/>
<path d="M83.6267 36.5975C83.6257 36.8904 83.5977 37.1814 83.5438 37.4694C83.4887 37.7585 83.4077 38.0385 83.2997 38.3095C83.2457 38.4455 83.1847 38.5784 83.1177 38.7094C83.0837 38.7745 83.0477 38.8394 83.0107 38.9035C82.9737 38.9675 82.9347 39.0304 82.8937 39.0915C82.7338 39.3374 82.5507 39.5655 82.3437 39.7754C82.2907 39.8284 82.2377 39.8794 82.1827 39.9295C82.1287 39.9794 82.0717 40.0285 82.0147 40.0755C81.8997 40.1695 81.7817 40.2575 81.6597 40.3394C81.4157 40.5025 81.1567 40.6414 80.8837 40.7554C80.8148 40.7845 80.7457 40.8114 80.6757 40.8365C80.6047 40.8625 80.5347 40.8864 80.4647 40.9085C80.3237 40.9515 80.1818 40.9884 80.0377 41.0195C79.7497 41.0805 79.4578 41.1165 79.1611 41.1264C57.9281 41.8644 36.5831 41.8644 15.3513 41.1261C15.0543 41.1161 14.7593 41.0801 14.4693 41.0181C14.3963 41.0031 14.3233 40.9852 14.2513 40.9672C14.1803 40.9482 14.1093 40.9272 14.0383 40.9052C13.8982 40.8611 13.7593 40.8101 13.6233 40.7542C13.4883 40.6972 13.3543 40.6331 13.2243 40.5632C13.1583 40.5281 13.0933 40.4911 13.0303 40.4522C12.9663 40.4141 12.9043 40.3742 12.8423 40.3332C12.5963 40.1672 12.3703 39.9801 12.1633 39.7702C12.1123 39.7182 12.0622 39.6641 12.0123 39.6092C11.9633 39.5541 11.9153 39.4961 11.8683 39.4391C11.7763 39.3232 11.6903 39.2041 11.6113 39.0811C11.4513 38.8361 11.3183 38.5772 11.2093 38.3051C11.1833 38.2361 11.1573 38.1672 11.1333 38.0971C11.1103 38.0281 11.0873 37.9582 11.0683 37.8881C11.0273 37.7471 10.9933 37.6061 10.9673 37.4632C10.9133 37.1791 10.8863 36.8892 10.8852 36.5971C10.8692 31.8132 10.8522 27.0281 10.8322 22.2441C10.8122 17.4601 10.7892 12.6751 10.7646 7.89153C10.7556 7.73357 10.7496 7.57756 10.7506 7.42155C10.7526 7.26555 10.7616 7.10954 10.7776 6.95451C10.7866 6.87651 10.7976 6.79961 10.8096 6.72258C10.8216 6.64458 10.8366 6.56755 10.8526 6.4915C10.8866 6.33855 10.9266 6.18852 10.9766 6.04155C11.0246 5.89458 11.0816 5.75053 11.1466 5.60954C11.1806 5.5396 11.2146 5.4705 11.2516 5.40154C11.2886 5.33257 11.3276 5.26457 11.3686 5.19756C11.5326 4.93254 11.7246 4.6895 11.9436 4.4716C11.9986 4.41557 12.0556 4.36259 12.1136 4.31059C12.1436 4.28557 12.1736 4.25957 12.2026 4.23357C12.2326 4.20854 12.2646 4.18462 12.2946 4.15959C12.4176 4.06255 12.5456 3.97258 12.6786 3.89055C12.9416 3.72551 13.2246 3.58952 13.5206 3.48051C13.8186 3.3726 14.1226 3.2946 14.4316 3.2426C14.7396 3.1906 15.0546 3.1646 15.3722 3.1635C36.5902 3.0656 57.9212 3.0656 79.1395 3.16362C79.4265 3.1646 79.7105 3.18559 79.9895 3.22758C80.2695 3.27068 80.5445 3.33366 80.8145 3.42058C80.8835 3.44267 80.9505 3.4666 81.0175 3.49162C81.0845 3.51567 81.1495 3.54265 81.2155 3.56963C81.3465 3.62566 81.4735 3.68657 81.5975 3.75261C81.7215 3.81963 81.8415 3.89165 81.9575 3.97063C82.0165 4.00969 82.0735 4.05058 82.1305 4.09367C82.1875 4.13567 82.2425 4.17961 82.2975 4.22466C82.5155 4.40666 82.7105 4.60661 82.8835 4.82561C82.9695 4.93462 83.0495 5.04961 83.1245 5.16862C83.1615 5.22758 83.1975 5.28862 83.2315 5.35063C83.2665 5.41167 83.2995 5.47466 83.3295 5.53764C83.4535 5.7896 83.5495 6.05266 83.6195 6.32463C83.6365 6.39165 83.6525 6.46062 83.6665 6.52959C83.6815 6.59868 83.6935 6.66862 83.7045 6.73857C83.7275 6.87859 83.7415 7.0186 83.7515 7.1602C83.7255 12.0672 83.7015 16.9732 83.6815 21.8792C83.6605 26.7852 83.6425 31.6912 83.6255 36.5971" stroke="#FF00FF" stroke-width="0.283465" stroke-miterlimit="10" stroke-linecap="round" stroke-linejoin="round"/>
<path d="M82.8588 46.9191V52.01H82.2423V47.5654H82.2124L80.9695 48.3907V47.7643L82.2423 46.9191H82.8588ZM84.4596 52.0498C84.337 52.0498 84.2317 52.0059 84.1439 51.918C84.0561 51.8302 84.0122 51.725 84.0122 51.6023C84.0122 51.4797 84.0561 51.3745 84.1439 51.2866C84.2317 51.1988 84.337 51.1549 84.4596 51.1549C84.5822 51.1549 84.6875 51.1988 84.7753 51.2866C84.8631 51.3745 84.907 51.4797 84.907 51.6023C84.907 51.6835 84.8863 51.7581 84.8449 51.8261C84.8051 51.894 84.7513 51.9487 84.6833 51.9901C84.617 52.0299 84.5425 52.0498 84.4596 52.0498ZM86.0064 52.01L88.2834 47.5057V47.466H85.6584V46.9191H88.9197V47.4958L86.6527 52.01H86.0064ZM91.3689 52.0796C91.0772 52.0796 90.8145 52.0216 90.5809 51.9056C90.3472 51.7896 90.1599 51.6305 90.0191 51.4283C89.8782 51.2262 89.8012 50.9958 89.7879 50.7373H90.3845C90.4077 50.9676 90.5121 51.1582 90.6977 51.309C90.885 51.4582 91.1087 51.5327 91.3689 51.5327C91.5777 51.5327 91.7633 51.4838 91.9257 51.3861C92.0898 51.2883 92.2182 51.1541 92.311 50.9834C92.4055 50.811 92.4527 50.6163 92.4527 50.3992C92.4527 50.1771 92.4038 49.9791 92.306 49.8051C92.2099 49.6294 92.0773 49.4911 91.9083 49.39C91.7393 49.2889 91.5462 49.2375 91.3291 49.2359C91.1733 49.2342 91.0134 49.2582 90.8493 49.308C90.6853 49.356 90.5502 49.4182 90.4442 49.4944L89.8675 49.4248L90.1757 46.9191H92.8206V47.466H90.6927L90.5138 48.9674H90.5436C90.648 48.8845 90.7789 48.8158 90.9363 48.7611C91.0938 48.7064 91.2578 48.679 91.4285 48.679C91.7401 48.679 92.0177 48.7536 92.2613 48.9028C92.5065 49.0503 92.6988 49.2524 92.838 49.5093C92.9788 49.7662 93.0493 50.0595 93.0493 50.3893C93.0493 50.7141 92.9764 51.0041 92.8305 51.2593C92.6863 51.5129 92.4875 51.7134 92.2339 51.8609C91.9804 52.0067 91.692 52.0796 91.3689 52.0796Z" fill="#0000FF"/>
<path fill-rule="evenodd" clip-rule="evenodd" d="M22.2794 15.4148C22.6906 15.0037 23.3573 15.0037 23.7685 15.4148L29.1613 20.8076C29.1645 20.8108 29.1677 20.8141 29.1708 20.8174C29.6233 21.2777 29.7577 21.9644 29.5102 22.562C29.261 23.1634 28.6741 23.5559 28.0228 23.5559H26.7732C26.6959 23.5559 26.6332 23.6186 26.6332 23.6959V26.7852C26.6332 27.6743 25.9125 28.3951 25.0233 28.3951H21.0243C20.1352 28.3951 19.4144 27.6743 19.4144 26.7852V23.6959C19.4144 23.6186 19.3518 23.5559 19.2744 23.5559H18.0248C17.3736 23.5559 16.7867 23.1635 16.5375 22.5621C16.2886 21.9606 16.4261 21.2681 16.8864 20.8077L22.2794 15.4148ZM28.15 21.8046L23.1229 16.7775C23.0683 16.7228 22.9796 16.7228 22.9249 16.7775L17.8907 21.8116C17.8364 21.866 17.82 21.9477 17.8495 22.0189C17.8789 22.0899 17.9481 22.1359 18.0248 22.1359H19.9543C20.4401 22.1359 20.8344 22.5296 20.8344 23.016V26.7852C20.8344 26.89 20.9195 26.9751 21.0243 26.9751H25.0233C25.1282 26.9751 25.2132 26.89 25.2132 26.7852V23.016C25.2132 22.5299 25.6073 22.1359 26.0933 22.1359H28.0228C28.0995 22.1359 28.1688 22.0897 28.1982 22.0187M28.15 21.8046C28.1523 21.8069 28.1546 21.8093 28.157 21.8116C28.2114 21.8661 28.2276 21.9478 28.1982 22.0187" fill="black"/>
<path d="M37.1006 25.8673C35.6943 25.8673 34.7568 25.2814 34.4834 24.4806C34.4395 24.3634 34.415 24.2365 34.415 24.1193C34.415 23.7677 34.6396 23.5431 34.9716 23.5431C35.2499 23.5431 35.4257 23.6554 35.5624 23.9386C35.7821 24.549 36.3876 24.8224 37.1396 24.8224C37.9892 24.8224 38.5849 24.4025 38.5849 23.8165C38.5849 23.3087 38.2333 22.9962 37.3154 22.8057L36.5586 22.6494C35.1475 22.3613 34.4883 21.6972 34.4883 20.667C34.4883 19.4268 35.5772 18.5869 37.1055 18.5869C38.3506 18.5869 39.3174 19.1435 39.6055 20.0762C39.6348 20.1543 39.6494 20.2471 39.6494 20.3643C39.6494 20.6719 39.4297 20.8819 39.1025 20.8819C38.8095 20.8819 38.6289 20.7549 38.497 20.4815C38.2577 19.8858 37.7548 19.6319 37.0956 19.6319C36.3143 19.6319 35.7577 20.003 35.7577 20.5938C35.7577 21.0723 36.1093 21.3799 36.9882 21.5655L37.745 21.7218C39.2294 22.0294 39.8544 22.6251 39.8544 23.6701C39.8544 25.0178 38.7948 25.8674 37.1005 25.8674L37.1006 25.8673Z" fill="black"/>
<path d="M41.5245 25.8477C41.1681 25.8477 40.9141 25.6182 40.9141 25.208V19.2314C40.9141 18.8457 41.1436 18.6064 41.5147 18.6064C41.8858 18.6064 42.1153 18.8457 42.1153 19.2314V20.7573C42.1153 20.8625 42.2258 20.9311 42.3199 20.8843C42.6248 20.7327 43.0792 20.4766 43.7754 20.4766C44.918 20.4766 45.5869 21.2286 45.5869 22.4151V25.2081C45.5869 25.6183 45.333 25.8478 44.9765 25.8478C44.62 25.8478 44.371 25.6183 44.371 25.2081V22.6641C44.371 21.9414 44.0097 21.5069 43.3065 21.5069C42.6033 21.5069 42.1297 22.0147 42.1297 22.7764V25.2081C42.1297 25.6183 41.8807 25.8478 41.5242 25.8478L41.5245 25.8477Z" fill="black"/>
<path d="M47.3979 20.4717C47.0268 20.4717 46.7924 20.7207 46.7924 21.1114V25.2081C46.7924 25.6036 47.0268 25.8478 47.3979 25.8478C47.769 25.8478 48.0083 25.6037 48.0083 25.2081V21.1163C48.0083 20.7208 47.769 20.4718 47.3979 20.4718V20.4717ZM47.3979 19.8467C47.7788 19.8467 48.0766 19.5537 48.0766 19.1875C48.0766 18.8213 47.7787 18.5283 47.3979 18.5283C47.0171 18.5283 46.7241 18.8164 46.7241 19.1875C46.7241 19.5586 47.022 19.8467 47.3979 19.8467Z" fill="black"/>
<g clip-path="url(#clip0_466_903886)">
<path d="M54.5252 24.8071L54.4373 24.7973C54.0857 24.768 53.949 24.5971 53.949 24.2065V21.6529C53.949 21.5746 54.0125 21.5112 54.0907 21.5112H54.5105C54.8132 21.5112 54.9988 21.3305 54.9988 21.0376C54.9988 20.7447 54.8133 20.5737 54.5105 20.5737H54.0907C54.0124 20.5737 53.949 20.5102 53.949 20.432V19.8852C53.949 19.4946 53.7146 19.2504 53.3435 19.2504C52.9724 19.2504 52.7331 19.4945 52.7331 19.8852V20.432C52.7331 20.5103 52.6696 20.5737 52.5914 20.5737H50.9903C50.9122 20.5737 50.8489 20.5106 50.8486 20.4325L50.8476 20.1836C50.8476 19.749 51.0283 19.5537 51.4726 19.5439C51.58 19.539 51.663 19.5293 51.7412 19.5097C51.9219 19.456 52.0098 19.3437 52.0098 19.1581C52.0098 18.8554 51.7217 18.6503 51.0772 18.6503C50.1446 18.6553 49.6514 19.1192 49.6514 20.1299V20.4319C49.6514 20.5102 49.5879 20.5736 49.5097 20.5736H49.3487C49.046 20.5736 48.8604 20.7494 48.8604 21.0375C48.8604 21.3256 49.0459 21.5111 49.3487 21.5111H49.5097C49.588 21.5111 49.6514 21.5746 49.6514 21.6528V25.2128C49.6514 25.623 49.8955 25.8476 50.2618 25.8476C50.6281 25.8476 50.8673 25.623 50.8673 25.2128L50.8535 21.6533C50.8532 21.5748 50.9167 21.511 50.9952 21.511H52.5915C52.6698 21.511 52.7332 21.5745 52.7332 21.6527V24.47C52.7332 25.3538 53.1922 25.803 54.0955 25.803H54.1443C54.7009 25.803 55.0135 25.6126 55.0135 25.2561C55.0135 24.9729 54.8475 24.8362 54.5252 24.8069V24.8071Z" fill="black"/>
</g>
<defs>
<clipPath id="clip0_466_903886">
<rect width="6.1531" height="7.1973" fill="white" transform="translate(48.8604 18.6504)"/>
</clipPath>
</defs>
</svg>
