<svg width="68" height="54" viewBox="0 0 68 54" fill="none" xmlns="http://www.w3.org/2000/svg">
<rect x="2.3501" y="1.84998" width="63.8" height="50.3" rx="3" stroke="#16215B" stroke-width="0.28"/>
<path d="M10.7042 37.0347C10.6252 27.0966 10.5222 17.1597 10.3975 7.22124C10.4175 6.51726 10.5715 5.80827 10.8435 5.15544C10.9795 4.83147 11.1445 4.52055 11.3396 4.22832C11.5316 3.93828 11.7546 3.66728 12.0041 3.42375C12.2511 3.18083 12.5251 2.96477 12.8169 2.77861C13.1079 2.59258 13.4179 2.43657 13.7402 2.30962C14.3842 2.05559 15.0822 1.92058 15.7713 1.91154C28.0883 1.83257 40.4073 1.83257 52.7242 1.91191C52.8903 1.91496 53.0573 1.92387 53.2235 1.9406C53.4716 1.9655 53.7176 2.00456 53.9604 2.05949C54.2035 2.11443 54.4435 2.18547 54.6755 2.27104C55.1665 2.4561 55.6345 2.71501 56.0504 3.0385C56.4694 3.36345 56.8354 3.75346 57.1357 4.18938C57.4377 4.62944 57.6727 5.11748 57.8333 5.62761C57.9952 6.14372 58.0822 6.68266 58.0987 7.22209C57.9707 17.1591 57.8677 27.0971 57.7917 37.035C57.7817 37.366 57.7338 37.696 57.6611 38.0201C57.5861 38.3471 57.4861 38.668 57.3557 38.9766C57.2247 39.2886 57.0627 39.5885 56.8759 39.8709C56.687 40.155 56.473 40.4229 56.2365 40.6684C55.9995 40.9144 55.7386 41.1384 55.4608 41.3365C55.1818 41.5345 54.8878 41.7074 54.5767 41.8533C53.9657 42.1413 53.2977 42.3254 52.6257 42.3811C46.5037 42.6772 40.3767 42.8241 34.2478 42.8244C28.1188 42.8244 21.9918 42.6763 15.8697 42.3809C15.1977 42.3259 14.5297 42.1479 13.9165 41.858C13.2975 41.566 12.7325 41.1609 12.2583 40.668C11.7863 40.179 11.4053 39.6031 11.1398 38.9756C10.8778 38.3606 10.7278 37.6967 10.7028 37.0336" stroke="#16215B" stroke-width="0.283" stroke-miterlimit="10"/>
<path d="M13.8384 4.39252C13.0554 4.39252 12.4204 5.02655 12.4204 5.80914V38.975C12.4204 39.7581 13.0554 40.3922 13.8387 40.3925H54.6567C55.4397 40.3925 56.0737 39.7576 56.0737 38.9755V5.80951C56.0737 5.02655 55.4398 4.39252 54.6568 4.39252" stroke="#00FFFF" stroke-width="0.28" stroke-miterlimit="10"/>
<path d="M11.5405 7.43842V7.31744C11.5415 7.2785 11.5424 7.23846 11.5435 7.19843L11.5495 7.08051C11.5525 7.04047 11.5555 7.00153 11.5594 6.96246C11.5635 6.92352 11.5675 6.88446 11.5715 6.84552L11.5854 6.73041C11.5915 6.69147 11.5975 6.6535 11.6045 6.61542C11.6105 6.57745 11.6174 6.53949 11.6245 6.50153L11.6475 6.38947C11.6564 6.35248 11.6655 6.31451 11.6734 6.27753C11.6824 6.24042 11.6925 6.20343 11.7035 6.16742C11.7124 6.13043 11.7234 6.09344 11.7345 6.05743C11.7465 6.02142 11.7565 5.98444 11.7695 5.94843C11.7814 5.91241 11.7935 5.87653 11.8065 5.84052C11.8195 5.80548 11.8335 5.76947 11.8465 5.73346C11.8735 5.66742 11.9015 5.60052 11.9315 5.53448C11.9604 5.46844 11.9924 5.40448 12.0255 5.34052C12.0585 5.27643 12.0935 5.21344 12.1295 5.15253C12.1665 5.09052 12.2055 5.02948 12.2445 4.96942C12.3244 4.84943 12.4115 4.73346 12.5034 4.6225C12.5955 4.51251 12.6925 4.40741 12.7955 4.30951C12.8985 4.20941 13.0065 4.11749 13.1205 4.02948C13.2355 3.94147 13.3555 3.85846 13.4785 3.78241C13.5405 3.74445 13.6024 3.70844 13.6665 3.67352C13.7295 3.63849 13.7935 3.60541 13.8585 3.57452C13.9234 3.54242 13.9895 3.51251 14.0555 3.48444C14.1235 3.45648 14.1905 3.4295 14.2585 3.40448C14.2775 3.39752 14.2944 3.39142 14.3135 3.38446L14.3695 3.36542C14.3875 3.35944 14.4064 3.35345 14.4255 3.34747L14.4815 3.32953C14.5005 3.32343 14.5195 3.31744 14.5385 3.31244C14.5565 3.30646 14.5764 3.30145 14.5945 3.29547C14.6145 3.29047 14.6325 3.28546 14.6525 3.27948C14.6705 3.27448 14.6905 3.27045 14.7085 3.26544C14.7285 3.25946 14.7485 3.25543 14.7664 3.25043C14.7865 3.24542 14.8055 3.24152 14.8255 3.23651C14.8435 3.23248 14.8634 3.22845 14.8825 3.22345C14.9025 3.21942 14.9214 3.21552 14.9415 3.21149L15.0005 3.19952C15.0195 3.1955 15.0405 3.19244 15.0594 3.18842L15.1185 3.17853C15.1385 3.1745 15.1584 3.17145 15.1785 3.16852C15.1985 3.16547 15.2175 3.16241 15.2384 3.15948C15.2575 3.15643 15.2785 3.15448 15.2984 3.15143C15.3185 3.1485 15.3385 3.14642 15.3585 3.14447C15.3784 3.14142 15.3995 3.13947 15.4194 3.13751C15.4395 3.13446 15.4595 3.13251 15.4805 3.13043C15.5005 3.12848 15.5215 3.12653 15.5424 3.12543C15.5625 3.12347 15.5835 3.1225 15.6035 3.12042C15.6245 3.11847 15.6445 3.11749 15.6655 3.11652C15.6864 3.11444 15.7075 3.11346 15.7274 3.11249C15.7485 3.11151 15.7695 3.11041 15.7905 3.10944C15.8105 3.10846 15.8325 3.10846 15.8524 3.10748C15.8745 3.10651 15.8945 3.10651 15.9165 3.10651C15.9364 3.10541 15.9585 3.10541 15.9795 3.10541C16.0806 3.10541 16.1826 3.10443 16.2856 3.10345C16.3866 3.10345 16.4886 3.10248 16.5905 3.1015C16.6926 3.10052 16.7935 3.10052 16.8965 3.09943C16.9975 3.09845 17.0995 3.09845 17.2025 3.09747C17.3035 3.0965 17.4066 3.0965 17.5076 3.09552C17.6095 3.09442 17.7115 3.09442 17.8136 3.09344C17.9155 3.09344 18.0175 3.09247 18.1205 3.09149C18.2216 3.09149 18.3246 3.09052 18.4256 3.08942C18.5285 3.08942 18.6295 3.08844 18.7325 3.08844C18.8336 3.08746 18.9366 3.08649 19.0376 3.08649C19.1405 3.08551 19.2426 3.08551 19.3445 3.08441C19.4465 3.08441 19.5486 3.08344 19.6505 3.08344C19.7525 3.08246 19.8555 3.08246 19.9565 3.08148C20.0596 3.08148 20.1615 3.08051 20.2635 3.08051C20.3665 3.07953 20.4675 3.07953 20.5706 3.07843C20.6725 3.07745 20.7746 3.07745 20.8766 3.07648C20.9785 3.07648 21.0806 3.0755 21.1835 3.0755C21.2856 3.07452 21.3875 3.07452 21.4906 3.07343C21.5916 3.07343 21.6945 3.07245 21.7966 3.07245C21.8996 3.07147 22.0005 3.07147 22.1035 3.07147C22.2056 3.0705 22.3076 3.0705 22.4106 3.06952C22.5125 3.06952 22.6156 3.06842 22.7166 3.06842L23.0246 3.06647C23.1266 3.06647 23.2285 3.06647 23.3306 3.06549C23.4335 3.06549 23.5365 3.06451 23.6375 3.06451C23.7406 3.06451 23.8425 3.06342 23.9456 3.06342C24.0475 3.06342 24.1505 3.06244 24.2516 3.06244L24.5596 3.06146C24.6626 3.06146 24.7645 3.06049 24.8665 3.06049C24.9686 3.05951 25.0715 3.05951 25.1735 3.05951C25.2765 3.05841 25.3786 3.05841 25.4816 3.05841C25.5825 3.05743 25.6855 3.05743 25.7876 3.05743C25.8905 3.05646 25.9935 3.05646 26.0955 3.05646C26.1985 3.05548 26.3006 3.05548 26.4035 3.05548C26.5055 3.05548 26.6085 3.0545 26.7095 3.0545C26.8125 3.0545 26.9145 3.05353 27.0175 3.05353C27.1205 3.05353 27.2225 3.05353 27.3255 3.05243C27.4275 3.05243 27.5305 3.05243 27.6326 3.05243C27.7355 3.05145 27.8375 3.05145 27.9405 3.05145C28.0425 3.05145 28.1456 3.05048 28.2475 3.05048C28.3505 3.05048 28.4535 3.05048 28.5555 3.0495C28.6586 3.0495 28.7605 3.0495 28.8635 3.0495C28.9655 3.0495 29.0685 3.04852 29.1705 3.04852C29.2735 3.04852 29.3755 3.04852 29.4785 3.04852C29.5806 3.04742 29.6835 3.04742 29.7865 3.04742C29.8885 3.04742 29.9915 3.04742 30.0936 3.04742C30.1965 3.04645 30.2985 3.04645 30.4015 3.04645C30.5036 3.04645 30.6066 3.04645 30.7085 3.04645C30.8115 3.04645 30.9135 3.04547 31.0166 3.04547C31.1196 3.04547 31.2215 3.04547 31.3245 3.04547H31.6315C31.7345 3.04547 31.8365 3.04449 31.9395 3.04449H32.2465C32.3495 3.04449 32.4525 3.04449 32.5555 3.04449H32.8635H33.1705C33.2735 3.04352 33.3755 3.04352 33.4785 3.04352H33.7865H34.0936H34.4025H34.7095H35.0175C35.1205 3.04352 35.2225 3.04352 35.3255 3.04449H35.6326H35.9405C36.0425 3.04449 36.1456 3.04449 36.2475 3.04449H36.5565C36.6595 3.04449 36.7616 3.04547 36.8645 3.04547H37.1716C37.2746 3.04547 37.3765 3.04547 37.4795 3.04547C37.5815 3.04547 37.6846 3.04645 37.7876 3.04645C37.8895 3.04645 37.9925 3.04645 38.0945 3.04645C38.1976 3.04645 38.2995 3.04645 38.4025 3.04742C38.5045 3.04742 38.6075 3.04742 38.7095 3.04742C38.8125 3.04742 38.9145 3.04742 39.0175 3.04852C39.1205 3.04852 39.2225 3.04852 39.3255 3.04852C39.4275 3.04852 39.5305 3.0495 39.6326 3.0495C39.7355 3.0495 39.8375 3.0495 39.9405 3.0495C40.0425 3.05048 40.1456 3.05048 40.2475 3.05048C40.3505 3.05048 40.4535 3.05145 40.5555 3.05145C40.6586 3.05145 40.7605 3.05145 40.8635 3.05243C40.9655 3.05243 41.0685 3.05243 41.1705 3.05243C41.2735 3.05353 41.3755 3.05353 41.4785 3.05353C41.5806 3.05353 41.6825 3.0545 41.7855 3.0545C41.8875 3.0545 41.9906 3.05548 42.0925 3.05548C42.1955 3.05548 42.2975 3.05548 42.4005 3.05646C42.5025 3.05646 42.6055 3.05646 42.7075 3.05743C42.8096 3.05743 42.9126 3.05743 43.0145 3.05841C43.1175 3.05841 43.2195 3.05841 43.3226 3.05951C43.4245 3.05951 43.5275 3.05951 43.6286 3.06049C43.7316 3.06049 43.8335 3.06146 43.9365 3.06146L44.2446 3.06244C44.3455 3.06244 44.4485 3.06342 44.5506 3.06342C44.6535 3.06342 44.7555 3.06451 44.8575 3.06451L45.1645 3.06549C45.2675 3.06647 45.3696 3.06647 45.4715 3.06647C45.5745 3.06744 45.6765 3.06744 45.7785 3.06842L46.0855 3.06952C46.1875 3.0705 46.2895 3.0705 46.3925 3.07147C46.4955 3.07147 46.5965 3.07147 46.6995 3.07245C46.8015 3.07245 46.9035 3.07343 47.0055 3.07343C47.1085 3.07452 47.2095 3.07452 47.3125 3.0755C47.4145 3.0755 47.5166 3.07648 47.6196 3.07648C47.7215 3.07745 47.8235 3.07745 47.9256 3.07843C48.0285 3.07953 48.1295 3.07953 48.2325 3.08051C48.3335 3.08051 48.4365 3.08148 48.5385 3.08148C48.6405 3.08246 48.7435 3.08246 48.8445 3.08344C48.9476 3.08344 49.0495 3.08441 49.1515 3.08441C49.2536 3.08551 49.3555 3.08551 49.4575 3.08649C49.5596 3.08649 49.6626 3.08746 49.7635 3.08844C49.8665 3.08844 49.9675 3.08942 50.0705 3.08942C50.1716 3.09052 50.2746 3.09149 50.3755 3.09149C50.4785 3.09247 50.5795 3.09344 50.6825 3.09344C50.7845 3.09442 50.8855 3.09442 50.9885 3.09552C51.0896 3.0965 51.1926 3.0965 51.2935 3.09747C51.3956 3.09845 51.4975 3.09845 51.5995 3.09943C51.7025 3.10052 51.8035 3.10052 51.9055 3.1015C52.0076 3.10248 52.1095 3.10345 52.2105 3.10345C52.3136 3.10443 52.4145 3.10541 52.5166 3.10541C52.558 3.10553 52.599 3.10651 52.639 3.10748C52.68 3.10846 52.72 3.11053 52.76 3.11249C52.8 3.11444 52.84 3.11652 52.88 3.11945C52.92 3.1225 52.96 3.12543 52.999 3.12946C53.0379 3.13251 53.078 3.13751 53.117 3.14142C53.156 3.14642 53.195 3.15045 53.233 3.15643C53.272 3.16144 53.311 3.16742 53.35 3.17352C53.388 3.18048 53.4259 3.18646 53.464 3.19342C53.502 3.2005 53.54 3.20843 53.578 3.21649C53.615 3.22443 53.653 3.23248 53.69 3.24152C53.727 3.25043 53.765 3.25946 53.802 3.26947C53.839 3.2785 53.876 3.28851 53.912 3.29852C53.949 3.30951 53.985 3.3205 54.021 3.33148C54.058 3.34247 54.0939 3.35553 54.13 3.36652C54.166 3.37848 54.202 3.39142 54.237 3.40448C54.306 3.4295 54.373 3.45648 54.4389 3.48444C54.507 3.51251 54.572 3.54242 54.638 3.57452C54.702 3.60553 54.767 3.63849 54.83 3.67352C54.893 3.70844 54.955 3.74445 55.017 3.78253C55.141 3.85846 55.261 3.94049 55.376 4.02948C55.489 4.11652 55.597 4.20953 55.7 4.30853C55.803 4.40753 55.8999 4.51251 55.992 4.6225C56.085 4.73346 56.171 4.84943 56.251 4.96942C56.291 5.02948 56.329 5.09052 56.366 5.15253C56.402 5.21344 56.437 5.27643 56.471 5.34052C56.504 5.40448 56.535 5.46844 56.5639 5.53448C56.595 5.60052 56.623 5.66644 56.649 5.73346C56.656 5.7525 56.6629 5.77045 56.67 5.78949C56.677 5.80743 56.684 5.82648 56.69 5.84442C56.697 5.86249 56.704 5.88153 56.71 5.89948C56.717 5.91852 56.723 5.93744 56.729 5.95648C56.735 5.97443 56.741 5.99347 56.747 6.01251C56.753 6.03046 56.759 6.0495 56.765 6.06842C56.77 6.08746 56.776 6.10651 56.781 6.12543C56.787 6.14447 56.792 6.16351 56.797 6.18243C56.803 6.20148 56.808 6.22052 56.812 6.23944C56.817 6.25848 56.822 6.27753 56.827 6.29645C56.831 6.31549 56.836 6.33551 56.841 6.35443C56.845 6.37445 56.849 6.39349 56.853 6.41254C56.8569 6.43243 56.861 6.45148 56.865 6.47052L56.877 6.52948C56.88 6.54852 56.884 6.56842 56.888 6.58746C56.891 6.60748 56.894 6.6275 56.897 6.64642C56.8999 6.66742 56.903 6.68646 56.906 6.70648C56.909 6.7265 56.912 6.74652 56.914 6.76642C56.917 6.78644 56.92 6.80548 56.922 6.8255C56.925 6.84552 56.927 6.86542 56.929 6.88544C56.931 6.90643 56.933 6.92645 56.935 6.94647C56.936 6.96649 56.938 6.98651 56.94 7.00653C56.942 7.02753 56.943 7.04742 56.945 7.06744C56.946 7.08746 56.947 7.10846 56.948 7.12848C56.95 7.14948 56.951 7.16949 56.952 7.19049C56.952 7.21051 56.953 7.23151 56.954 7.25153C56.955 7.27252 56.955 7.29352 56.956 7.31342V7.37653V7.43842C56.9541 7.94391 56.951 8.44891 56.948 8.9549C56.9321 12.1459 56.9161 15.338 56.901 18.53C56.895 19.6939 56.891 20.858 56.8861 22.0229C56.865 26.8769 56.8471 31.732 56.8301 36.5859C56.8299 36.6252 56.829 36.6641 56.828 36.7032C56.827 36.7432 56.8259 36.7822 56.824 36.8212C56.8219 36.8602 56.819 36.8992 56.816 36.9372C56.8129 36.9761 56.81 37.0142 56.807 37.0532C56.803 37.0922 56.799 37.1302 56.794 37.1682C56.79 37.2061 56.784 37.2442 56.7789 37.2831C56.773 37.3212 56.768 37.3582 56.7609 37.3962C56.755 37.4341 56.748 37.4722 56.7399 37.5092C56.733 37.5472 56.726 37.5842 56.717 37.6212C56.709 37.6591 56.7 37.6962 56.691 37.7332C56.682 37.7702 56.673 37.8072 56.6619 37.8442C56.652 37.8802 56.642 37.9172 56.631 37.9532C56.6199 37.9902 56.608 38.0272 56.597 38.0632C56.5849 38.0992 56.5719 38.1362 56.56 38.1722C56.547 38.2082 56.534 38.2432 56.5199 38.2802C56.4679 38.4172 56.409 38.5541 56.3439 38.6862C56.2789 38.8172 56.209 38.9442 56.1329 39.0682C56.057 39.1912 55.975 39.3101 55.8869 39.4262C55.799 39.5412 55.7049 39.6522 55.605 39.7581C55.5069 39.8652 55.401 39.9661 55.2919 40.0632C55.182 40.1591 55.0669 40.2512 54.948 40.3372C54.889 40.3792 54.828 40.4212 54.767 40.4601C54.7049 40.5002 54.643 40.5381 54.5799 40.5751C54.517 40.6111 54.453 40.6462 54.389 40.6791C54.323 40.7122 54.2579 40.7442 54.191 40.7742C54.174 40.7822 54.157 40.7891 54.14 40.7972C54.123 40.8051 54.105 40.8122 54.088 40.8192C54.07 40.8262 54.054 40.8342 54.036 40.8411C54.019 40.8482 54.001 40.8552 53.983 40.8621C53.967 40.8692 53.949 40.8762 53.932 40.8821C53.914 40.8892 53.896 40.8952 53.879 40.9022L53.8259 40.9212C53.8089 40.9272 53.791 40.9332 53.772 40.9391C53.755 40.9462 53.737 40.9512 53.72 40.9572C53.702 40.9632 53.685 40.9692 53.666 40.9742C53.648 40.9802 53.631 40.9852 53.612 40.9911C53.595 40.9962 53.577 41.0012 53.5589 41.0062C53.541 41.0121 53.522 41.0162 53.505 41.0212C53.4859 41.0262 53.4689 41.0312 53.45 41.0352C53.433 41.0402 53.414 41.0452 53.396 41.0502C53.3779 41.0541 53.359 41.0582 53.342 41.0622C53.323 41.0672 53.3049 41.0712 53.2869 41.0751L53.2309 41.0872C53.213 41.0911 53.195 41.0942 53.177 41.0982L53.121 41.1082C53.1019 41.1121 53.084 41.1152 53.065 41.1182C53.047 41.1212 53.028 41.1242 53.01 41.1271C52.991 41.1302 52.9729 41.1331 52.953 41.1362C52.935 41.1381 52.916 41.1412 52.897 41.1431C52.879 41.1462 52.859 41.1481 52.841 41.1512C52.8219 41.1531 52.803 41.1552 52.784 41.1572C52.7659 41.1591 52.746 41.1612 52.7269 41.1631C52.708 41.1652 52.6889 41.1672 52.67 41.1682C52.651 41.1702 52.6319 41.1712 52.613 41.1732C52.5939 41.1741 52.575 41.1762 52.556 41.1772C52.536 41.1782 52.518 41.1791 52.498 41.1801C52.396 41.1851 52.295 41.1901 52.192 41.1951L51.888 41.2101C51.785 41.2151 51.6839 41.2202 51.582 41.2242C51.48 41.2292 51.3779 41.2342 51.276 41.2392C51.1749 41.2432 51.0719 41.2482 50.971 41.2532C50.8689 41.2581 50.767 41.2621 50.665 41.2662C50.5629 41.2712 50.461 41.2762 50.359 41.2802C50.2579 41.2841 50.155 41.2891 50.054 41.2932C49.952 41.2982 49.85 41.3022 49.748 41.3062C49.6449 41.3112 49.544 41.3151 49.442 41.3192C49.34 41.3242 49.238 41.3282 49.136 41.3322C49.034 41.3361 48.932 41.3401 48.83 41.3442C48.7269 41.3482 48.626 41.3522 48.524 41.3561C48.422 41.3602 48.32 41.3642 48.218 41.3682C48.116 41.3721 48.014 41.3762 47.911 41.3802C47.81 41.3831 47.707 41.3871 47.605 41.3912C47.5029 41.3942 47.401 41.3981 47.299 41.4022C47.1969 41.4062 47.095 41.4091 46.993 41.4122C46.8909 41.4162 46.7879 41.4202 46.686 41.4232C46.584 41.4272 46.4819 41.4301 46.38 41.4332C46.277 41.4372 46.1759 41.4401 46.073 41.4432C45.971 41.4472 45.8689 41.4501 45.767 41.4532C45.665 41.4561 45.562 41.4592 45.4599 41.4622C45.358 41.4661 45.256 41.4692 45.153 41.4722C45.052 41.4752 44.949 41.4782 44.847 41.4811C44.7439 41.4842 44.643 41.4871 44.54 41.4892C44.437 41.4921 44.336 41.4952 44.233 41.4982C44.131 41.5002 44.028 41.5032 43.927 41.5062C43.824 41.5092 43.722 41.5112 43.6199 41.5142C43.518 41.5162 43.415 41.5192 43.312 41.5222C43.2099 41.5242 43.108 41.5272 43.006 41.5292C42.903 41.5322 42.8009 41.5341 42.699 41.5362L42.392 41.5432C42.289 41.5452 42.187 41.5482 42.0849 41.5502C41.9819 41.5522 41.88 41.5541 41.777 41.5562C41.6759 41.5582 41.573 41.5601 41.471 41.5622L41.1629 41.5682C41.061 41.5701 40.959 41.5722 40.8559 41.5742C40.754 41.5762 40.651 41.5772 40.549 41.5792C40.446 41.5811 40.345 41.5832 40.242 41.5842C40.14 41.5861 40.0369 41.5882 39.935 41.5892C39.832 41.5911 39.729 41.5922 39.6279 41.5942L39.32 41.5982L39.013 41.6022C38.91 41.6032 38.808 41.6052 38.705 41.6061C38.603 41.6071 38.501 41.6092 38.398 41.6102C38.2959 41.6111 38.1929 41.6121 38.091 41.6132L37.7829 41.6161C37.681 41.6171 37.578 41.6182 37.4769 41.6192C37.3739 41.6202 37.271 41.6202 37.169 41.6212C37.066 41.6221 36.9639 41.6232 36.8609 41.6242C36.759 41.6242 36.656 41.6252 36.554 41.6262C36.4509 41.6262 36.349 41.6271 36.246 41.6282C36.143 41.6282 36.041 41.6292 35.9389 41.6292C35.837 41.6302 35.734 41.6302 35.6319 41.6302L35.324 41.6321C35.222 41.6321 35.1189 41.6321 35.017 41.6321C34.914 41.6331 34.811 41.6331 34.709 41.6331C34.6059 41.6331 34.504 41.6331 34.401 41.6331H34.095C33.992 41.6331 33.89 41.6331 33.7869 41.6331C33.685 41.6331 33.582 41.6331 33.479 41.6321C33.377 41.6321 33.2739 41.6321 33.172 41.6321L32.864 41.6302C32.7619 41.6302 32.659 41.6302 32.557 41.6292C32.454 41.6292 32.3519 41.6282 32.25 41.6282C32.147 41.6271 32.045 41.6262 31.942 41.6262C31.84 41.6252 31.737 41.6242 31.635 41.6242C31.532 41.6232 31.4299 41.6221 31.327 41.6212C31.225 41.6202 31.122 41.6202 31.019 41.6192C30.9169 41.6182 30.815 41.6171 30.713 41.6161L30.405 41.6132C30.303 41.6121 30.2 41.6111 30.0979 41.6102C29.9949 41.6092 29.893 41.6071 29.79 41.6061C29.687 41.6052 29.586 41.6032 29.483 41.6022L29.1759 41.5982L28.868 41.5942C28.7659 41.5922 28.664 41.5911 28.561 41.5892C28.459 41.5882 28.3559 41.5861 28.254 41.5842C28.151 41.5832 28.049 41.5811 27.9469 41.5792C27.845 41.5772 27.742 41.5762 27.64 41.5742L27.332 41.5682C27.23 41.5662 27.1279 41.5641 27.0249 41.5622C26.923 41.5601 26.82 41.5582 26.7179 41.5562C26.616 41.5541 26.514 41.5522 26.411 41.5502C26.3089 41.5482 26.2059 41.5452 26.104 41.5432L25.797 41.5362C25.694 41.5341 25.5929 41.5322 25.4899 41.5292C25.388 41.5272 25.285 41.5242 25.1839 41.5222C25.081 41.5192 24.978 41.5162 24.876 41.5142C24.774 41.5112 24.672 41.5092 24.569 41.5062C24.467 41.5032 24.365 41.5002 24.263 41.4982C24.16 41.4952 24.059 41.4921 23.956 41.4892C23.853 41.4871 23.751 41.4842 23.649 41.4811C23.547 41.4782 23.444 41.4752 23.343 41.4722C23.24 41.4692 23.138 41.4661 23.036 41.4622C22.934 41.4592 22.831 41.4561 22.729 41.4532C22.627 41.4501 22.524 41.4472 22.423 41.4432C22.32 41.4401 22.219 41.4372 22.116 41.4332C22.014 41.4301 21.912 41.4272 21.81 41.4232C21.708 41.4202 21.605 41.4162 21.503 41.4122C21.401 41.4091 21.299 41.4062 21.197 41.4022C21.095 41.3981 20.993 41.3942 20.891 41.3912C20.788 41.3871 20.686 41.3831 20.584 41.3802C20.482 41.3762 20.38 41.3721 20.278 41.3682C20.176 41.3642 20.074 41.3602 19.972 41.3561C19.87 41.3522 19.768 41.3482 19.666 41.3442C19.563 41.3401 19.462 41.3361 19.36 41.3322C19.258 41.3282 19.156 41.3242 19.054 41.3192C18.952 41.3151 18.85 41.3112 18.748 41.3062C18.646 41.3022 18.544 41.2982 18.442 41.2932C18.34 41.2891 18.238 41.2841 18.137 41.2802C18.034 41.2762 17.933 41.2712 17.831 41.2662C17.728 41.2621 17.627 41.2581 17.525 41.2532C17.423 41.2482 17.321 41.2432 17.22 41.2392C17.118 41.2342 17.016 41.2292 16.914 41.2242C16.812 41.2202 16.711 41.2151 16.608 41.2101L16.304 41.1951C16.201 41.1901 16.1 41.1851 15.998 41.18C15.812 41.171 15.627 41.1509 15.444 41.1209C14.966 41.04 14.493 40.883 14.063 40.6559C13.632 40.4289 13.232 40.124 12.898 39.7669C12.76 39.618 12.629 39.4589 12.512 39.2919C12.224 38.883 12.003 38.421 11.863 37.9449C11.732 37.5049 11.667 37.0429 11.6661 36.5855C11.649 31.7294 11.6311 26.8735 11.6101 22.0164C11.6051 20.8515 11.6011 19.6855 11.5951 18.5204C11.58 15.3305 11.5641 12.1404 11.548 8.9505C11.5451 8.44647 11.5421 7.94244 11.5391 7.43842" stroke="#FF00FF" stroke-width="0.283465" stroke-miterlimit="10" stroke-linecap="round" stroke-linejoin="round"/>
<path d="M53.9491 44.9191V50.01H53.3326V45.5654H53.3028L52.0599 46.3907V45.7643L53.3326 44.9191H53.9491ZM55.5499 50.0498C55.4273 50.0498 55.3221 50.0059 55.2342 49.918C55.1464 49.8302 55.1025 49.725 55.1025 49.6023C55.1025 49.4797 55.1464 49.3745 55.2342 49.2866C55.3221 49.1988 55.4273 49.1549 55.5499 49.1549C55.6726 49.1549 55.7778 49.1988 55.8656 49.2866C55.9535 49.3745 55.9974 49.4797 55.9974 49.6023C55.9974 49.6835 55.9767 49.7581 55.9352 49.8261C55.8955 49.894 55.8416 49.9487 55.7737 49.9901C55.7074 50.0299 55.6328 50.0498 55.5499 50.0498ZM57.0402 50.01V49.5626L58.7206 47.7231C58.9178 47.5076 59.0802 47.3204 59.2078 47.1613C59.3354 47.0005 59.4299 46.8497 59.4912 46.7089C59.5541 46.5664 59.5856 46.4172 59.5856 46.2614C59.5856 46.0825 59.5425 45.9275 59.4564 45.7966C59.3718 45.6657 59.2558 45.5646 59.1084 45.4933C58.9609 45.4221 58.7951 45.3864 58.6112 45.3864C58.4156 45.3864 58.245 45.427 58.0991 45.5082C57.9549 45.5878 57.8431 45.6996 57.7635 45.8438C57.6857 45.988 57.6467 46.157 57.6467 46.3509H57.0601C57.0601 46.0526 57.1288 45.7908 57.2664 45.5654C57.4039 45.34 57.5912 45.1644 57.8282 45.0384C58.0668 44.9125 58.3344 44.8495 58.6311 44.8495C58.9294 44.8495 59.1937 44.9125 59.4241 45.0384C59.6544 45.1644 59.835 45.3342 59.966 45.548C60.0969 45.7618 60.1623 45.9996 60.1623 46.2614C60.1623 46.4487 60.1284 46.6318 60.0604 46.8108C59.9941 46.9881 59.8781 47.1861 59.7124 47.4049C59.5483 47.622 59.3205 47.8871 59.0288 48.2004L57.8853 49.4234V49.4631H60.2518V50.01H57.0402ZM62.8694 50.0796C62.5777 50.0796 62.315 50.0216 62.0814 49.9056C61.8477 49.7896 61.6604 49.6305 61.5196 49.4283C61.3787 49.2262 61.3017 48.9958 61.2884 48.7373H61.885C61.9082 48.9676 62.0126 49.1582 62.1982 49.309C62.3855 49.4582 62.6092 49.5327 62.8694 49.5327C63.0782 49.5327 63.2638 49.4838 63.4262 49.3861C63.5902 49.2883 63.7187 49.1541 63.8115 48.9834C63.9059 48.811 63.9532 48.6163 63.9532 48.3992C63.9532 48.1771 63.9043 47.9791 63.8065 47.8051C63.7104 47.6294 63.5778 47.4911 63.4088 47.39C63.2397 47.2889 63.0467 47.2375 62.8296 47.2359C62.6738 47.2342 62.5139 47.2582 62.3498 47.308C62.1858 47.356 62.0507 47.4182 61.9446 47.4944L61.3679 47.4248L61.6762 44.9191H64.3211V45.466H62.1932L62.0142 46.9674H62.0441C62.1485 46.8845 62.2794 46.8158 62.4368 46.7611C62.5943 46.7064 62.7583 46.679 62.929 46.679C63.2406 46.679 63.5182 46.7536 63.7618 46.9028C64.007 47.0503 64.1993 47.2524 64.3385 47.5093C64.4793 47.7662 64.5498 48.0595 64.5498 48.3893C64.5498 48.7141 64.4768 49.0041 64.331 49.2593C64.1868 49.5129 63.988 49.7134 63.7344 49.8609C63.4809 50.0067 63.1925 50.0796 62.8694 50.0796Z" fill="#0000FF"/>
<path fill-rule="evenodd" clip-rule="evenodd" d="M21.359 15.4148C21.7702 15.0036 22.4369 15.0036 22.8481 15.4148L28.2409 20.8076C28.2441 20.8108 28.2473 20.814 28.2504 20.8173C28.7029 21.2776 28.8373 21.9643 28.5898 22.5619C28.3406 23.1633 27.7537 23.5558 27.1024 23.5558H25.8528C25.7755 23.5558 25.7128 23.6185 25.7128 23.6958V26.7851C25.7128 27.6742 24.992 28.395 24.1029 28.395H20.1039C19.2148 28.395 18.494 27.6742 18.494 26.7851V23.6958C18.494 23.6185 18.4313 23.5558 18.354 23.5558H17.1044C16.4532 23.5558 15.8663 23.1635 15.6171 22.5621C15.3682 21.9605 15.5057 21.2681 15.966 20.8077L21.359 15.4148ZM27.2296 21.8045L22.2025 16.7774C22.1478 16.7227 22.0592 16.7227 22.0045 16.7774L16.9703 21.8116C16.916 21.8659 16.8996 21.9477 16.9291 22.0188C16.9585 22.0899 17.0277 22.1358 17.1044 22.1358H19.0339C19.5197 22.1358 19.914 22.5295 19.914 23.0159V26.7851C19.914 26.89 19.999 26.975 20.1039 26.975H24.1029C24.2078 26.975 24.2928 26.89 24.2928 26.7851V23.0159C24.2928 22.5299 24.6869 22.1358 25.1729 22.1358H27.1024C27.1791 22.1358 27.2484 22.0896 27.2778 22.0187M27.2296 21.8045C27.2319 21.8069 27.2342 21.8092 27.2366 21.8116C27.291 21.866 27.3072 21.9477 27.2778 22.0187" fill="black"/>
<path d="M35.0938 25.8673C33.6875 25.8673 32.75 25.2814 32.4766 24.4806C32.4327 24.3634 32.4082 24.2365 32.4082 24.1193C32.4082 23.7677 32.6328 23.5431 32.9648 23.5431C33.2431 23.5431 33.4189 23.6554 33.5556 23.9386C33.7753 24.549 34.3808 24.8224 35.1328 24.8224C35.9824 24.8224 36.5781 24.4025 36.5781 23.8165C36.5781 23.3087 36.2265 22.9962 35.3086 22.8057L34.5518 22.6494C33.1407 22.3613 32.4815 21.6972 32.4815 20.667C32.4815 19.4268 33.5704 18.5869 35.0987 18.5869C36.3438 18.5869 37.3106 19.1435 37.5987 20.0762C37.628 20.1543 37.6426 20.2471 37.6426 20.3643C37.6426 20.6719 37.4229 20.8819 37.0957 20.8819C36.8027 20.8819 36.6221 20.7549 36.4902 20.4815C36.2509 19.8858 35.748 19.6319 35.0888 19.6319C34.3075 19.6319 33.7509 20.003 33.7509 20.5938C33.7509 21.0723 34.1025 21.3799 34.9814 21.5655L35.7382 21.7218C37.2226 22.0294 37.8476 22.6251 37.8476 23.6701C37.8476 25.0178 36.788 25.8674 35.0937 25.8674L35.0938 25.8673Z" fill="black"/>
<path d="M38.9062 25.2081V19.2307C38.9062 18.8449 39.1357 18.6056 39.5069 18.6056C39.8781 18.6056 40.1076 18.8449 40.1076 19.2307V20.7064C40.1076 20.8096 40.2142 20.8782 40.3081 20.8354C40.6034 20.7008 41.1839 20.476 41.768 20.476C42.9107 20.476 43.5798 21.2281 43.5798 22.4148V25.2082C43.5798 25.6184 43.326 25.8479 42.9694 25.8479C42.613 25.8479 42.3639 25.6184 42.3639 25.2082V22.6639C42.3639 21.9411 42.0024 21.5065 41.2992 21.5065C40.5961 21.5065 40.1223 22.0144 40.1223 22.7762V25.2082C40.1223 25.6184 39.8733 25.8479 39.5167 25.8479C39.1602 25.8479 38.9062 25.6183 38.9062 25.2081Z" fill="black"/>
<path d="M45.3911 20.4717C45.02 20.4717 44.7856 20.7207 44.7856 21.1114V25.2081C44.7856 25.6036 45.02 25.8478 45.3911 25.8478C45.7622 25.8478 46.0015 25.6037 46.0015 25.2081V21.1163C46.0015 20.7208 45.7622 20.4718 45.3911 20.4718V20.4717ZM45.3911 19.8467C45.772 19.8467 46.0698 19.5537 46.0698 19.1875C46.0698 18.8213 45.7719 18.5283 45.3911 18.5283C45.0103 18.5283 44.7173 18.8164 44.7173 19.1875C44.7173 19.5586 45.0152 19.8467 45.3911 19.8467Z" fill="black"/>
<path fill-rule="evenodd" clip-rule="evenodd" d="M48.2549 25.8477C47.8887 25.8477 47.6445 25.6231 47.6445 25.2129V21.6535C47.6445 21.5752 47.581 21.5118 47.5028 21.5118H47.3223C47.0489 21.5118 46.8535 21.3458 46.8535 21.0479C46.8535 20.75 47.0488 20.5889 47.3223 20.5889H47.5028C47.5811 20.5889 47.6445 20.5254 47.6445 20.4472V20.1299C47.6445 19.1192 48.0954 18.6505 49.2061 18.6505C49.982 18.6505 50.0028 18.9955 50.0028 19.1583C50.0028 19.3413 49.892 19.5305 49.7097 19.5785C49.6242 19.601 49.5907 19.6036 49.4656 19.609C49.0216 19.6281 48.8406 19.7492 48.8406 20.1838V20.4473C48.8406 20.5238 48.9012 20.5861 48.9769 20.5889H50.3613C50.3737 20.5883 50.3864 20.588 50.3993 20.588H50.5847C50.663 20.588 50.7264 20.5245 50.7264 20.4463V19.8833C50.7264 19.4926 50.9608 19.2484 51.3369 19.2484C51.713 19.2484 51.9425 19.4925 51.9425 19.8833V20.4463C51.9425 20.5246 52.006 20.588 52.0842 20.588H52.5041C52.8068 20.588 52.9925 20.7588 52.9925 21.047C52.9925 21.3352 52.807 21.5109 52.5041 21.5109H52.0842C52.0059 21.5109 51.9425 21.5744 51.9425 21.6526V24.2052C51.9425 24.5959 52.0792 24.7668 52.4309 24.7961L52.5188 24.8059C52.8411 24.8352 53.0072 24.9719 53.0072 25.2552C53.0072 25.6116 52.6947 25.8022 52.138 25.8022H52.0892C51.1858 25.8022 50.7267 25.3529 50.7267 24.469H50.7265L50.7264 24.4689V21.6526C50.7264 21.5797 50.6714 21.5198 50.6007 21.5118H49.5063C49.5025 21.5119 49.4987 21.5119 49.4949 21.5119H49.0019C48.9236 21.5119 48.8602 21.5754 48.8602 21.6536V25.213C48.8602 25.6232 48.6161 25.8478 48.2547 25.8478L48.2549 25.8477Z" fill="black"/>
</svg>
