<svg width="82" height="55" viewBox="0 0 82 55" fill="none" xmlns="http://www.w3.org/2000/svg">
<path d="M71.5068 37.0027C71.5848 27.0807 71.6919 17.1587 71.8298 7.23665C71.8199 6.87965 71.7788 6.52266 71.7035 6.17201C71.6305 5.82301 71.5245 5.48201 71.3847 5.15382C71.2467 4.82881 71.0757 4.51686 70.876 4.22511C70.676 3.93513 70.448 3.66512 70.1949 3.42079C69.9419 3.17781 69.6649 2.96077 69.3693 2.77412C69.0733 2.58711 68.7583 2.42915 68.4325 2.30342C68.1065 2.17744 67.7675 2.0815 67.4237 2.01741C67.0777 1.95345 66.7278 1.91939 66.3745 1.91585C49.4605 1.82491 32.5455 1.82491 15.6317 1.91548C15.2937 1.92159 14.9567 1.95454 14.6241 2.01485C14.2921 2.07381 13.9641 2.15974 13.6495 2.27437C13.4005 2.36739 13.1575 2.47835 12.9246 2.60493C12.6925 2.73299 12.4685 2.87801 12.2568 3.03865C12.0458 3.20058 11.8468 3.37856 11.663 3.57112C11.4779 3.76515 11.3099 3.97414 11.1587 4.19398C11.0067 4.41493 10.8716 4.64796 10.7538 4.88844C10.6358 5.13149 10.5358 5.38149 10.4525 5.63869C10.2864 6.15468 10.1914 6.69667 10.1777 7.23622C10.3117 17.1582 10.4188 27.0802 10.5002 37.0013C10.5251 37.6633 10.6751 38.3273 10.94 38.9409C11.209 39.5659 11.595 40.1389 12.071 40.6231C12.55 41.1111 13.118 41.5101 13.7408 41.796C14.3578 42.0809 15.0288 42.254 15.7026 42.3051C24.1317 42.6481 32.5667 42.8191 41.0034 42.819C49.4394 42.819 57.8744 42.648 66.3044 42.3047C66.9783 42.2537 67.6483 42.0807 68.2662 41.7968C68.8882 41.5098 69.4572 41.1109 69.9361 40.6232C70.4111 40.1383 70.7971 39.5662 71.0675 38.9408C71.3305 38.3278 71.4825 37.6638 71.5066 37.0007" stroke="#16215B" stroke-width="0.283" stroke-miterlimit="10"/>
<path d="M11.7583 38.7131V6.44019C11.7583 5.26575 12.7093 4.31372 13.8843 4.31372H17.4273H64.6312H68.1743C69.3483 4.31372 70.3003 5.26575 70.3003 6.4397V38.7127C70.3003 39.8871 69.3483 40.8391 68.1743 40.8391L13.8843 40.8392C12.7093 40.8392 11.7583 39.8871 11.7583 38.7131Z" stroke="#00FFFF" stroke-width="0.28" stroke-miterlimit="10"/>
<path d="M66.1805 41.1327C49.4365 41.8178 32.5695 41.8178 15.8265 41.1327C15.5304 41.12 15.2384 41.083 14.9494 41.018C14.8044 40.986 14.6624 40.947 14.5224 40.902C14.3833 40.856 14.2453 40.805 14.1104 40.746C13.9754 40.688 13.8443 40.623 13.7154 40.552C13.6503 40.516 13.5864 40.478 13.5224 40.439C13.4603 40.4 13.3984 40.36 13.3384 40.318C13.0964 40.15 12.8724 39.961 12.6694 39.749C12.6184 39.696 12.5683 39.642 12.5194 39.586C12.4714 39.531 12.4244 39.473 12.3783 39.415C12.2874 39.3 12.2023 39.18 12.1243 39.057C11.9684 38.811 11.8374 38.552 11.7304 38.28C11.7044 38.211 11.6794 38.142 11.6564 38.073C11.6333 38.003 11.6113 37.933 11.5914 37.863C11.5524 37.723 11.5184 37.582 11.4924 37.44C11.4393 37.156 11.4133 36.869 11.4124 36.577C11.3963 31.7904 11.3783 27.0025 11.3583 22.2155C11.3382 17.4284 11.3153 12.6414 11.2903 7.85341C11.2815 7.69783 11.2755 7.54182 11.2765 7.38686C11.2775 7.23085 11.2865 7.07686 11.3035 6.92287C11.3105 6.84584 11.3215 6.76881 11.3335 6.69185C11.3455 6.61482 11.3595 6.53883 11.3755 6.46187C11.4075 6.31087 11.4475 6.16182 11.4955 6.01485C11.5425 5.86885 11.5975 5.72585 11.6625 5.58485C11.6935 5.51485 11.7275 5.44582 11.7635 5.37685C11.8005 5.30885 11.8385 5.24086 11.8785 5.17384C12.0375 4.90883 12.2245 4.66682 12.4395 4.44685C12.4935 4.39186 12.5495 4.33784 12.6065 4.28682C12.6355 4.25984 12.6645 4.23482 12.6935 4.20882C12.7235 4.18385 12.7535 4.15883 12.7835 4.13387C12.9045 4.03682 13.0305 3.94582 13.1605 3.86287C13.4205 3.69685 13.6985 3.55983 13.9925 3.44887C14.2865 3.33882 14.5875 3.25984 14.8925 3.20686C15.1985 3.15382 15.5105 3.12685 15.8255 3.12581C32.57 3.03383 49.437 3.03383 66.18 3.12581C66.4961 3.12691 66.8081 3.15388 67.1131 3.20686C67.4191 3.2599 67.7201 3.33888 68.0141 3.44887C68.3081 3.55989 68.5851 3.69691 68.8461 3.86287C68.9761 3.94588 69.1011 4.0359 69.2221 4.13387C69.2521 4.15889 69.2821 4.18391 69.3121 4.20888C69.3411 4.2339 69.3701 4.2599 69.4001 4.2859C69.4561 4.33791 69.5121 4.39186 69.5661 4.44691C69.7801 4.66591 69.9681 4.90889 70.1281 5.1739C70.1681 5.23988 70.2061 5.30788 70.2421 5.37691C70.2791 5.4449 70.3121 5.51491 70.3441 5.58492C70.4071 5.72487 70.4631 5.86891 70.5111 6.01491C70.5591 6.1609 70.5991 6.30989 70.6301 6.46187C70.6471 6.53792 70.6601 6.61488 70.6731 6.69087C70.6851 6.7679 70.6951 6.84486 70.7031 6.92189C70.7201 7.07588 70.7281 7.23091 70.7301 7.38588C70.7311 7.54091 70.7251 7.69691 70.7161 7.85286C70.691 12.64 70.668 17.428 70.648 22.215C70.627 27.002 70.61 31.79 70.594 36.5767C70.593 36.8687 70.566 37.1587 70.513 37.4458C70.486 37.5907 70.452 37.7327 70.412 37.8717C70.372 38.0117 70.326 38.1497 70.273 38.2847C70.22 38.4198 70.16 38.5527 70.094 38.6837C70.061 38.7497 70.026 38.8147 69.99 38.8787C69.952 38.9428 69.914 39.0058 69.875 39.0667C69.717 39.3137 69.536 39.5427 69.332 39.7547C69.282 39.8067 69.229 39.8587 69.175 39.9087C69.121 39.9597 69.066 40.0087 69.009 40.0567C68.896 40.1527 68.78 40.2417 68.659 40.3237C68.417 40.4898 68.161 40.6317 67.89 40.7487C67.823 40.7777 67.753 40.8057 67.684 40.8317C67.615 40.8577 67.545 40.8817 67.475 40.9038C67.335 40.9497 67.194 40.9877 67.051 41.0197C66.766 41.0827 66.475 41.1207 66.1805 41.1327Z" stroke="#FF00FF" stroke-width="0.283465" stroke-miterlimit="10" stroke-linecap="round" stroke-linejoin="round"/>
<path d="M65.2894 46.9191V52.01H64.6729V47.5654H64.6431L63.4002 48.3907V47.7643L64.6729 46.9191H65.2894ZM66.8903 52.0498C66.7676 52.0498 66.6624 52.0059 66.5746 51.918C66.4867 51.8302 66.4428 51.725 66.4428 51.6023C66.4428 51.4797 66.4867 51.3745 66.5746 51.2866C66.6624 51.1988 66.7676 51.1549 66.8903 51.1549C67.0129 51.1549 67.1181 51.1988 67.206 51.2866C67.2938 51.3745 67.3377 51.4797 67.3377 51.6023C67.3377 51.6835 67.317 51.7581 67.2756 51.8261C67.2358 51.894 67.1819 51.9487 67.114 51.9901C67.0477 52.0299 66.9731 52.0498 66.8903 52.0498ZM69.8689 52.0796C69.5772 52.0796 69.3145 52.0216 69.0809 51.9056C68.8472 51.7896 68.6599 51.6305 68.5191 51.4283C68.3782 51.2262 68.3012 50.9958 68.2879 50.7373H68.8845C68.9077 50.9676 69.0121 51.1582 69.1977 51.309C69.385 51.4582 69.6087 51.5327 69.8689 51.5327C70.0777 51.5327 70.2633 51.4838 70.4257 51.3861C70.5898 51.2883 70.7182 51.1541 70.811 50.9834C70.9055 50.811 70.9527 50.6163 70.9527 50.3992C70.9527 50.1771 70.9038 49.9791 70.806 49.8051C70.7099 49.6294 70.5773 49.4911 70.4083 49.39C70.2393 49.2889 70.0462 49.2375 69.8291 49.2359C69.6733 49.2342 69.5134 49.2582 69.3493 49.308C69.1853 49.356 69.0502 49.4182 68.9442 49.4944L68.3675 49.4248L68.6757 46.9191H71.3206V47.466H69.1927L69.0138 48.9674H69.0436C69.148 48.8845 69.2789 48.8158 69.4363 48.7611C69.5938 48.7064 69.7578 48.679 69.9285 48.679C70.2401 48.679 70.5177 48.7536 70.7613 48.9028C71.0065 49.0503 71.1988 49.2524 71.338 49.5093C71.4788 49.7662 71.5493 50.0595 71.5493 50.3893C71.5493 50.7141 71.4764 51.0041 71.3305 51.2593C71.1863 51.5129 70.9875 51.7134 70.7339 51.8609C70.4804 52.0067 70.192 52.0796 69.8689 52.0796Z" fill="#0000FF"/>
<path fill-rule="evenodd" clip-rule="evenodd" d="M27.8158 17.2844C27.6433 17.1119 27.357 17.1119 27.1845 17.2844L25.8345 18.6344C25.567 18.9019 25.1333 18.9019 24.8658 18.6344C24.5983 18.3669 24.5983 17.9332 24.8658 17.6657L26.2158 16.3157C26.9233 15.6082 28.077 15.6082 28.7845 16.3157L30.1345 17.6657C30.402 17.9332 30.402 18.3669 30.1345 18.6344C29.867 18.9019 29.4333 18.9019 29.1658 18.6344L27.8158 17.2844ZM23.3845 21.0844C23.652 20.8169 23.652 20.3832 23.3845 20.1157C23.117 19.8482 22.6833 19.8482 22.4158 20.1157L21.0658 21.4657C20.3583 22.1732 20.3583 23.3269 21.0658 24.0344L22.4158 25.3844C22.6833 25.6519 23.117 25.6519 23.3845 25.3844C23.652 25.1169 23.652 24.6832 23.3845 24.4157L22.0345 23.0657C21.862 22.8932 21.862 22.6069 22.0345 22.4344L23.3845 21.0844ZM25.8345 26.8657C25.567 26.5982 25.1333 26.5982 24.8658 26.8657C24.5983 27.1332 24.5983 27.5669 24.8658 27.8344L26.2158 29.1844C26.9233 29.8919 28.077 29.8919 28.7845 29.1844L30.1345 27.8344C30.402 27.5669 30.402 27.1332 30.1345 26.8657C29.867 26.5982 29.4333 26.5982 29.1658 26.8657L27.8158 28.2157C27.6433 28.3882 27.357 28.3882 27.1845 28.2157L25.8345 26.8657ZM32.5845 20.1157C32.317 19.8482 31.8833 19.8482 31.6158 20.1157C31.3483 20.3832 31.3483 20.8169 31.6158 21.0844L32.9658 22.4344C33.1383 22.6069 33.1383 22.8932 32.9658 23.0657L31.6158 24.4157C31.3483 24.6832 31.3483 25.1169 31.6158 25.3844C31.8833 25.6519 32.317 25.6519 32.5845 25.3844L33.9345 24.0344C34.642 23.3269 34.642 22.1732 33.9345 21.4657L32.5845 20.1157Z" fill="black"/>
</svg>
