<svg width="55" height="54" viewBox="0 0 55 54" fill="none" xmlns="http://www.w3.org/2000/svg">
<path d="M10.4131 37.0476C10.3351 27.0606 10.2361 17.0726 10.1191 7.08457L10.1192 7.08213C10.1232 6.91611 10.1362 6.7501 10.1563 6.58396C10.1763 6.41892 10.2023 6.25498 10.2355 6.09153C10.2675 5.92954 10.3065 5.76853 10.3527 5.60972C10.3997 5.45176 10.4517 5.29575 10.5115 5.14158C10.6985 4.66758 10.9535 4.21665 11.27 3.81431C11.583 3.41733 11.956 3.06833 12.3725 2.78391C12.7875 2.50193 13.2465 2.28391 13.7258 2.13694C14.2078 1.98984 14.7118 1.91392 15.2141 1.90659C19.3081 1.87168 23.4021 1.85459 27.4963 1.85496C31.5893 1.85496 35.6833 1.87192 39.7776 1.9072C39.9396 1.91013 40.1016 1.92112 40.2635 1.93772C40.5035 1.96372 40.7435 2.00474 40.9799 2.0615C41.2139 2.11851 41.4449 2.1904 41.6697 2.27952C41.9037 2.37253 42.1287 2.4835 42.3449 2.61069C42.562 2.73862 42.7689 2.88267 42.9627 3.0416C43.1577 3.20164 43.3417 3.37668 43.5105 3.56321C43.6795 3.75217 43.8355 3.9542 43.976 4.16575C44.257 4.59482 44.475 5.06479 44.625 5.55649C44.776 6.05442 44.858 6.57444 44.873 7.09263C44.752 17.0696 44.654 27.0466 44.58 37.0251C44.574 37.185 44.5601 37.3451 44.539 37.5036C44.518 37.6646 44.491 37.8236 44.4569 37.9813C44.4239 38.1402 44.3839 38.2983 44.3358 38.4537C44.2888 38.6097 44.2349 38.7636 44.175 38.9156C43.984 39.3907 43.728 39.8407 43.4172 40.2495C43.1032 40.6605 42.7352 41.0285 42.3244 41.3395C41.9154 41.6495 41.4624 41.9035 40.9838 42.0906C40.5098 42.2755 40.0098 42.3955 39.5063 42.4435C31.5073 42.9535 23.4843 42.9535 15.4849 42.4436C15.1529 42.4116 14.8229 42.3476 14.5024 42.2535C14.1794 42.1595 13.8654 42.0345 13.5632 41.8819C12.9602 41.5749 12.4092 41.1568 11.9476 40.6577C11.4866 40.1606 11.1126 39.5816 10.849 38.9596C10.719 38.6516 10.615 38.3325 10.5411 38.0056C10.4691 37.6836 10.4241 37.3546 10.4111 37.0245" stroke="#16215B" stroke-width="0.283" stroke-miterlimit="10"/>
<rect x="13.1855" y="5.52832" width="28.63" height="34.31" rx="1.43" stroke="#00FFFF" stroke-width="0.28"/>
<path d="M43.4399 36.5841C43.4578 31.7321 43.4778 26.8791 43.5009 22.0272C43.5219 17.1742 43.5469 12.3221 43.5759 7.46909C43.5767 7.32443 43.5717 7.18039 43.5596 7.03745C43.5497 6.89438 43.5317 6.75143 43.5076 6.61044C43.4606 6.32834 43.3887 6.05441 43.2897 5.7894C43.2646 5.72336 43.2386 5.65744 43.2106 5.59238C43.1816 5.52634 43.1526 5.4614 43.1216 5.39841C43.0587 5.27036 42.9907 5.14743 42.9156 5.02841C42.7667 4.79037 42.5936 4.5704 42.3937 4.36642C42.1957 4.16342 41.9777 3.98642 41.7437 3.83334C41.6266 3.75742 41.5057 3.68637 41.3796 3.62241C41.3167 3.59042 41.2537 3.55942 41.1877 3.53036C41.1237 3.50034 41.0566 3.47336 40.9907 3.44736C40.7236 3.34335 40.4507 3.2684 40.1716 3.21738C39.8926 3.16635 39.6077 3.14035 39.3167 3.13742C38.3378 3.12985 37.3568 3.1218 36.3738 3.11581C35.3898 3.10886 34.4058 3.10385 33.4208 3.09885C31.4498 3.09079 29.4758 3.08688 27.4988 3.08688C27.0038 3.08688 26.5098 3.08688 26.0148 3.08688C25.5208 3.08786 25.0258 3.08884 24.5308 3.08981C23.5418 3.09189 22.5538 3.09482 21.5688 3.09885C19.5968 3.10788 17.6328 3.12082 15.6758 3.13779C15.5301 3.13889 15.3861 3.14682 15.2411 3.15988C15.0981 3.1738 14.9541 3.19284 14.8131 3.21884C14.5301 3.27084 14.2561 3.34787 13.9911 3.45187C13.9251 3.47787 13.8601 3.50485 13.7951 3.53488C13.7301 3.56381 13.6651 3.59579 13.6021 3.6279C13.4751 3.69382 13.3541 3.76486 13.2361 3.84286C13.0011 3.9968 12.7841 4.17587 12.5861 4.37985C12.5371 4.4299 12.4891 4.48288 12.4431 4.53586C12.3971 4.58884 12.3521 4.64279 12.3091 4.69882C12.2231 4.80881 12.1431 4.9238 12.0691 5.04184C11.9951 5.16086 11.9281 5.2839 11.8651 5.40988C11.8351 5.47287 11.8061 5.53683 11.7781 5.60287C11.7501 5.66782 11.7241 5.73483 11.6991 5.80185C11.6011 6.06784 11.5301 6.34079 11.4841 6.61887C11.4381 6.89682 11.4151 7.18088 11.4171 7.46982C11.4454 12.3224 11.4714 17.1744 11.4935 22.0274C11.5165 26.8794 11.5355 31.7324 11.5535 36.5844C11.5541 36.8712 11.5781 37.1551 11.6281 37.4392C11.6411 37.5101 11.6552 37.5811 11.6701 37.6511C11.6862 37.7212 11.7021 37.7911 11.7211 37.8601C11.7581 37.9991 11.8011 38.1351 11.8502 38.2701C11.8991 38.4051 11.9531 38.5382 12.0151 38.6682C12.0461 38.7331 12.0771 38.7982 12.1121 38.8622C12.1461 38.9261 12.1812 38.9901 12.2181 39.0532C12.3651 39.3032 12.5331 39.5361 12.7241 39.7531C12.8192 39.8612 12.9201 39.9652 13.0272 40.0652C13.0791 40.1151 13.1342 40.1632 13.1901 40.2102C13.2451 40.2572 13.3011 40.3021 13.3591 40.3462C13.5881 40.5211 13.8322 40.6721 14.0921 40.7982C14.1571 40.8302 14.2231 40.8601 14.2902 40.8882C14.3571 40.9171 14.4241 40.9431 14.4921 40.9681C14.6281 41.0182 14.7651 41.0611 14.9041 41.0971C15.1801 41.1692 15.4631 41.2131 15.7512 41.2312C16.7243 41.2916 17.6993 41.3446 18.6773 41.3896C19.6533 41.4356 20.6323 41.4726 21.6113 41.5027C23.5683 41.5636 25.5293 41.5936 27.4943 41.5936C27.9853 41.5936 28.4773 41.5916 28.9683 41.5876C29.4593 41.5846 29.9513 41.5786 30.4423 41.5706C31.4253 41.5556 32.4063 41.5335 33.3863 41.5027C35.3443 41.4426 37.2963 41.3526 39.2416 41.2315C39.3866 41.2226 39.5296 41.2066 39.6726 41.1845C39.7436 41.1726 39.8146 41.1596 39.8866 41.1446C39.9566 41.1296 40.0276 41.1136 40.0966 41.0946C40.3766 41.0226 40.6456 40.9226 40.9046 40.7956C40.9706 40.7646 41.0336 40.7315 41.0966 40.6966C41.1606 40.6616 41.2236 40.6246 41.2856 40.5855C41.4096 40.5096 41.5286 40.4266 41.6426 40.3386C41.8726 40.1635 42.0826 39.9666 42.2736 39.7486C42.3216 39.6936 42.3676 39.6375 42.4136 39.5807C42.4586 39.5237 42.5026 39.4655 42.5446 39.4066C42.6296 39.2896 42.7076 39.1685 42.7796 39.0446C42.9256 38.7966 43.0466 38.5376 43.1446 38.2656C43.1696 38.1976 43.1926 38.1286 43.2146 38.0595C43.2356 37.9906 43.2556 37.9216 43.2736 37.8526C43.3106 37.7136 43.3416 37.5746 43.3656 37.4345C43.4146 37.1537 43.4386 36.8706 43.4399 36.5841Z" stroke="#FF00FF" stroke-width="0.283465" stroke-miterlimit="10" stroke-linecap="round" stroke-linejoin="round"/>
<path fill-rule="evenodd" clip-rule="evenodd" d="M21.8158 10.2844C21.6433 10.1119 21.357 10.1119 21.1845 10.2844L19.8345 11.6344C19.567 11.9019 19.1333 11.9019 18.8658 11.6344C18.5983 11.3669 18.5983 10.9332 18.8658 10.6657L20.2158 9.31567C20.9233 8.60816 22.077 8.60816 22.7845 9.31567L24.1345 10.6657C24.402 10.9332 24.402 11.3669 24.1345 11.6344C23.867 11.9019 23.4333 11.9019 23.1658 11.6344L21.8158 10.2844ZM17.3845 14.0844C17.652 13.8169 17.652 13.3832 17.3845 13.1157C17.117 12.8482 16.6833 12.8482 16.4158 13.1157L15.0658 14.4657C14.3583 15.1732 14.3583 16.3269 15.0658 17.0344L16.4158 18.3844C16.6833 18.6519 17.117 18.6519 17.3845 18.3844C17.652 18.1169 17.652 17.6832 17.3845 17.4157L16.0345 16.0657C15.862 15.8932 15.862 15.6069 16.0345 15.4344L17.3845 14.0844ZM19.8345 19.8657C19.567 19.5982 19.1333 19.5982 18.8658 19.8657C18.5983 20.1332 18.5983 20.5669 18.8658 20.8344L20.2158 22.1844C20.9233 22.8919 22.077 22.8919 22.7845 22.1844L24.1345 20.8344C24.402 20.5669 24.402 20.1332 24.1345 19.8657C23.867 19.5982 23.4333 19.5982 23.1658 19.8657L21.8158 21.2157C21.6433 21.3882 21.357 21.3882 21.1845 21.2157L19.8345 19.8657ZM26.5845 13.1157C26.317 12.8482 25.8833 12.8482 25.6158 13.1157C25.3483 13.3832 25.3483 13.8169 25.6158 14.0844L26.9658 15.4344C27.1383 15.6069 27.1383 15.8932 26.9658 16.0657L25.6158 17.4157C25.3483 17.6832 25.3483 18.1169 25.6158 18.3844C25.8833 18.6519 26.317 18.6519 26.5845 18.3844L27.9345 17.0344C28.642 16.3269 28.642 15.1732 27.9345 14.4657L26.5845 13.1157Z" fill="black"/>
<path d="M16.9908 35.8671C15.5845 35.8671 14.647 35.2812 14.3736 34.4804C14.3297 34.3632 14.3052 34.2363 14.3052 34.1191C14.3052 33.7675 14.5298 33.5429 14.8618 33.5429C15.1401 33.5429 15.3159 33.6552 15.4526 33.9384C15.6723 34.5488 16.2778 34.8222 17.0298 34.8222C17.8794 34.8222 18.4751 34.4023 18.4751 33.8163C18.4751 33.3085 18.1235 32.996 17.2056 32.8055L16.4488 32.6492C15.0377 32.3611 14.3785 31.697 14.3785 30.6668C14.3785 29.4266 15.4674 28.5867 16.9957 28.5867C18.2408 28.5867 19.2076 29.1433 19.4957 30.076C19.525 30.1541 19.5396 30.2469 19.5396 30.3641C19.5396 30.6717 19.3199 30.8817 18.9927 30.8817C18.6997 30.8817 18.5191 30.7547 18.3872 30.4813C18.1479 29.8856 17.645 29.6317 16.9858 29.6317C16.2045 29.6317 15.6479 30.0028 15.6479 30.5936C15.6479 31.0721 15.9995 31.3797 16.8784 31.5653L17.6352 31.7216C19.1196 32.0292 19.7446 32.6249 19.7446 33.6699C19.7446 35.0176 18.685 35.8672 16.9907 35.8672L16.9908 35.8671Z" fill="black"/>
<path d="M29.1182 30.4861C28.5038 30.4861 27.9288 30.7843 27.646 30.958C27.5658 31.0072 27.4617 30.9664 27.4352 30.8761C27.4177 30.8162 27.3893 30.7506 27.3435 30.6902C27.2264 30.5356 27.0564 30.4715 26.8672 30.4715C26.5205 30.4715 26.2764 30.6961 26.2764 31.0965V36.9511C26.2764 37.3613 26.5254 37.5908 26.8819 37.5908C27.2384 37.5908 27.4923 37.3613 27.4923 36.9511V35.5393C27.4923 35.4314 27.608 35.363 27.7025 35.4152C27.9937 35.576 28.5506 35.8329 29.1378 35.8329C30.4366 35.8329 31.2667 34.8124 31.2667 33.162C31.2667 31.5116 30.4317 30.4862 29.1182 30.4862V30.4861ZM28.7471 34.8367C27.9903 34.8367 27.4873 34.1775 27.4824 33.1619C27.4873 32.156 27.9902 31.4871 28.7471 31.4871C29.504 31.4871 30.0215 32.1414 30.0215 33.1619C30.0215 34.1824 29.5332 34.8367 28.7471 34.8367Z" fill="black"/>
<path d="M34.5712 30.4666C33.0771 30.4666 32.125 31.531 32.125 33.1814C32.125 34.8318 33.0576 35.8522 34.6396 35.8522C35.4398 35.8522 36.0257 35.6744 36.5254 35.1194C36.7491 34.871 36.6892 34.5003 36.3931 34.3418C36.1437 34.2082 35.86 34.3363 35.7207 34.4657C35.278 34.8771 34.9532 34.9147 34.6298 34.9147C33.8836 34.9147 33.3937 34.43 33.3407 33.6066C33.3354 33.5245 33.3998 33.4548 33.4821 33.4548H36.4362C36.7174 33.4548 36.9468 33.23 36.9532 32.9489C36.9859 31.5061 36.0107 30.4666 34.5712 30.4666ZM35.601 32.6009H33.5119C33.4213 32.6009 33.3545 32.5171 33.3735 32.4285C33.5101 31.7898 33.9817 31.4091 34.576 31.4091C35.1703 31.4091 35.6245 31.777 35.7407 32.4353C35.756 32.5218 35.6888 32.6009 35.6009 32.6009H35.601Z" fill="black"/>
<path d="M38.4102 35.8475C38.044 35.8475 37.8047 35.6082 37.8047 35.2078V31.0867C37.8047 30.7058 38.0391 30.4715 38.3858 30.4715C38.7325 30.4715 38.8704 30.704 38.9156 30.82C38.922 30.8363 38.9275 30.8533 38.9323 30.8705C38.9614 30.9746 39.0933 31.0068 39.1693 30.93C39.3658 30.7316 39.6906 30.4861 40.0948 30.4861C40.2852 30.4861 40.4317 30.5349 40.5245 30.6179C40.6368 30.7107 40.6954 30.8572 40.6954 31.0574C40.6954 31.2576 40.6368 31.3894 40.5147 31.4871C40.3975 31.5896 40.2168 31.6434 39.9776 31.6482C39.2842 31.6531 39.0206 32.0877 39.0206 32.7175V35.2078C39.0206 35.6082 38.7765 35.8475 38.4102 35.8475Z" fill="black"/>
<path d="M22.4307 35.8427C21.3076 35.8427 20.5947 35.1152 20.5947 33.9189V31.1113C20.5947 30.706 20.8437 30.4716 21.2002 30.4716C21.5567 30.4716 21.8106 30.706 21.8106 31.1161V33.6747C21.8106 34.4169 22.1719 34.8173 22.8555 34.8173C23.5391 34.8173 23.9932 34.3192 23.9932 33.5673V31.1112C23.9932 30.7059 24.2471 30.4715 24.6036 30.4715C24.9601 30.4715 25.2091 30.7059 25.2091 31.116V35.2323C25.2091 35.6229 24.9747 35.8475 24.628 35.8475C24.2813 35.8475 24.155 35.6371 24.1276 35.5924C24.1093 35.5624 24.0938 35.527 24.0811 35.4918C24.0518 35.4106 23.9564 35.3751 23.8804 35.4161C23.6044 35.5646 23.0899 35.8427 22.4306 35.8427H22.4307Z" fill="black"/>
</svg>
