<svg width="82" height="55" viewBox="0 0 82 55" fill="none" xmlns="http://www.w3.org/2000/svg">
<path d="M71.5068 37.0027C71.5848 27.0807 71.6919 17.1587 71.8298 7.23665C71.8199 6.87965 71.7788 6.52266 71.7035 6.17201C71.6305 5.82301 71.5245 5.48201 71.3847 5.15382C71.2467 4.82881 71.0757 4.51686 70.876 4.22511C70.676 3.93513 70.448 3.66512 70.1949 3.42079C69.9419 3.17781 69.6649 2.96077 69.3693 2.77412C69.0733 2.58711 68.7583 2.42915 68.4325 2.30342C68.1065 2.17744 67.7675 2.0815 67.4237 2.01741C67.0777 1.95345 66.7278 1.91939 66.3745 1.91585C49.4605 1.82491 32.5455 1.82491 15.6317 1.91548C15.2937 1.92159 14.9567 1.95454 14.6241 2.01485C14.2921 2.07381 13.9641 2.15974 13.6495 2.27437C13.4005 2.36739 13.1575 2.47835 12.9246 2.60493C12.6925 2.73299 12.4685 2.87801 12.2568 3.03865C12.0458 3.20058 11.8468 3.37856 11.663 3.57112C11.4779 3.76515 11.3099 3.97414 11.1587 4.19398C11.0067 4.41493 10.8716 4.64796 10.7538 4.88844C10.6358 5.13149 10.5358 5.38149 10.4525 5.63869C10.2864 6.15468 10.1914 6.69667 10.1777 7.23622C10.3117 17.1582 10.4188 27.0802 10.5002 37.0013C10.5251 37.6633 10.6751 38.3273 10.94 38.9409C11.209 39.5659 11.595 40.1389 12.071 40.6231C12.55 41.1111 13.118 41.5101 13.7408 41.796C14.3578 42.0809 15.0288 42.254 15.7026 42.3051C24.1317 42.6481 32.5667 42.8191 41.0034 42.819C49.4394 42.819 57.8744 42.648 66.3044 42.3047C66.9783 42.2537 67.6483 42.0807 68.2662 41.7968C68.8882 41.5098 69.4572 41.1109 69.9361 40.6232C70.4111 40.1383 70.7971 39.5662 71.0675 38.9408C71.3305 38.3278 71.4825 37.6638 71.5066 37.0007" stroke="#16215B" stroke-width="0.283" stroke-miterlimit="10"/>
<path d="M11.7583 38.7131V6.44019C11.7583 5.26575 12.7093 4.31372 13.8843 4.31372H17.4273H64.6312H68.1743C69.3483 4.31372 70.3003 5.26575 70.3003 6.4397V38.7127C70.3003 39.8871 69.3483 40.8391 68.1743 40.8391L13.8843 40.8392C12.7093 40.8392 11.7583 39.8871 11.7583 38.7131Z" stroke="#00FFFF" stroke-width="0.28" stroke-miterlimit="10"/>
<path d="M66.1805 41.1327C49.4365 41.8178 32.5695 41.8178 15.8265 41.1327C15.5304 41.12 15.2384 41.083 14.9494 41.018C14.8044 40.986 14.6624 40.947 14.5224 40.902C14.3833 40.856 14.2453 40.805 14.1104 40.746C13.9754 40.688 13.8443 40.623 13.7154 40.552C13.6503 40.516 13.5864 40.478 13.5224 40.439C13.4603 40.4 13.3984 40.36 13.3384 40.318C13.0964 40.15 12.8724 39.961 12.6694 39.749C12.6184 39.696 12.5683 39.642 12.5194 39.586C12.4714 39.531 12.4244 39.473 12.3783 39.415C12.2874 39.3 12.2023 39.18 12.1243 39.057C11.9684 38.811 11.8374 38.552 11.7304 38.28C11.7044 38.211 11.6794 38.142 11.6564 38.073C11.6333 38.003 11.6113 37.933 11.5914 37.863C11.5524 37.723 11.5184 37.582 11.4924 37.44C11.4393 37.156 11.4133 36.869 11.4124 36.577C11.3963 31.7904 11.3783 27.0025 11.3583 22.2155C11.3382 17.4284 11.3153 12.6414 11.2903 7.85341C11.2815 7.69783 11.2755 7.54182 11.2765 7.38686C11.2775 7.23085 11.2865 7.07686 11.3035 6.92287C11.3105 6.84584 11.3215 6.76881 11.3335 6.69185C11.3455 6.61482 11.3595 6.53883 11.3755 6.46187C11.4075 6.31087 11.4475 6.16182 11.4955 6.01485C11.5425 5.86885 11.5975 5.72585 11.6625 5.58485C11.6935 5.51485 11.7275 5.44582 11.7635 5.37685C11.8005 5.30885 11.8385 5.24086 11.8785 5.17384C12.0375 4.90883 12.2245 4.66682 12.4395 4.44685C12.4935 4.39186 12.5495 4.33784 12.6065 4.28682C12.6355 4.25984 12.6645 4.23482 12.6935 4.20882C12.7235 4.18385 12.7535 4.15883 12.7835 4.13387C12.9045 4.03682 13.0305 3.94582 13.1605 3.86287C13.4205 3.69685 13.6985 3.55983 13.9925 3.44887C14.2865 3.33882 14.5875 3.25984 14.8925 3.20686C15.1985 3.15382 15.5105 3.12685 15.8255 3.12581C32.57 3.03383 49.437 3.03383 66.18 3.12581C66.4961 3.12691 66.8081 3.15388 67.1131 3.20686C67.4191 3.2599 67.7201 3.33888 68.0141 3.44887C68.3081 3.55989 68.5851 3.69691 68.8461 3.86287C68.9761 3.94588 69.1011 4.0359 69.2221 4.13387C69.2521 4.15889 69.2821 4.18391 69.3121 4.20888C69.3411 4.2339 69.3701 4.2599 69.4001 4.2859C69.4561 4.33791 69.5121 4.39186 69.5661 4.44691C69.7801 4.66591 69.9681 4.90889 70.1281 5.1739C70.1681 5.23988 70.2061 5.30788 70.2421 5.37691C70.2791 5.4449 70.3121 5.51491 70.3441 5.58492C70.4071 5.72487 70.4631 5.86891 70.5111 6.01491C70.5591 6.1609 70.5991 6.30989 70.6301 6.46187C70.6471 6.53792 70.6601 6.61488 70.6731 6.69087C70.6851 6.7679 70.6951 6.84486 70.7031 6.92189C70.7201 7.07588 70.7281 7.23091 70.7301 7.38588C70.7311 7.54091 70.7251 7.69691 70.7161 7.85286C70.691 12.64 70.668 17.428 70.648 22.215C70.627 27.002 70.61 31.79 70.594 36.5767C70.593 36.8687 70.566 37.1587 70.513 37.4458C70.486 37.5907 70.452 37.7327 70.412 37.8717C70.372 38.0117 70.326 38.1497 70.273 38.2847C70.22 38.4198 70.16 38.5527 70.094 38.6837C70.061 38.7497 70.026 38.8147 69.99 38.8787C69.952 38.9428 69.914 39.0058 69.875 39.0667C69.717 39.3137 69.536 39.5427 69.332 39.7547C69.282 39.8067 69.229 39.8587 69.175 39.9087C69.121 39.9597 69.066 40.0087 69.009 40.0567C68.896 40.1527 68.78 40.2417 68.659 40.3237C68.417 40.4898 68.161 40.6317 67.89 40.7487C67.823 40.7777 67.753 40.8057 67.684 40.8317C67.615 40.8577 67.545 40.8817 67.475 40.9038C67.335 40.9497 67.194 40.9877 67.051 41.0197C66.766 41.0827 66.475 41.1207 66.1805 41.1327Z" stroke="#FF00FF" stroke-width="0.283465" stroke-miterlimit="10" stroke-linecap="round" stroke-linejoin="round"/>
<path d="M65.2894 46.9191V52.01H64.6729V47.5654H64.6431L63.4002 48.3907V47.7643L64.6729 46.9191H65.2894ZM66.8903 52.0498C66.7676 52.0498 66.6624 52.0059 66.5746 51.918C66.4867 51.8302 66.4428 51.725 66.4428 51.6023C66.4428 51.4797 66.4867 51.3745 66.5746 51.2866C66.6624 51.1988 66.7676 51.1549 66.8903 51.1549C67.0129 51.1549 67.1181 51.1988 67.206 51.2866C67.2938 51.3745 67.3377 51.4797 67.3377 51.6023C67.3377 51.6835 67.317 51.7581 67.2756 51.8261C67.2358 51.894 67.1819 51.9487 67.114 51.9901C67.0477 52.0299 66.9731 52.0498 66.8903 52.0498ZM69.8689 52.0796C69.5772 52.0796 69.3145 52.0216 69.0809 51.9056C68.8472 51.7896 68.6599 51.6305 68.5191 51.4283C68.3782 51.2262 68.3012 50.9958 68.2879 50.7373H68.8845C68.9077 50.9676 69.0121 51.1582 69.1977 51.309C69.385 51.4582 69.6087 51.5327 69.8689 51.5327C70.0777 51.5327 70.2633 51.4838 70.4257 51.3861C70.5898 51.2883 70.7182 51.1541 70.811 50.9834C70.9055 50.811 70.9527 50.6163 70.9527 50.3992C70.9527 50.1771 70.9038 49.9791 70.806 49.8051C70.7099 49.6294 70.5773 49.4911 70.4083 49.39C70.2393 49.2889 70.0462 49.2375 69.8291 49.2359C69.6733 49.2342 69.5134 49.2582 69.3493 49.308C69.1853 49.356 69.0502 49.4182 68.9442 49.4944L68.3675 49.4248L68.6757 46.9191H71.3206V47.466H69.1927L69.0138 48.9674H69.0436C69.148 48.8845 69.2789 48.8158 69.4363 48.7611C69.5938 48.7064 69.7578 48.679 69.9285 48.679C70.2401 48.679 70.5177 48.7536 70.7613 48.9028C71.0065 49.0503 71.1988 49.2524 71.338 49.5093C71.4788 49.7662 71.5493 50.0595 71.5493 50.3893C71.5493 50.7141 71.4764 51.0041 71.3305 51.2593C71.1863 51.5129 70.9875 51.7134 70.7339 51.8609C70.4804 52.0067 70.192 52.0796 69.8689 52.0796Z" fill="#0000FF"/>
<path d="M19.6006 25.8673C18.1943 25.8673 17.2568 25.2814 16.9834 24.4806C16.9395 24.3634 16.915 24.2365 16.915 24.1193C16.915 23.7677 17.1396 23.5431 17.4716 23.5431C17.7499 23.5431 17.9257 23.6554 18.0624 23.9386C18.2821 24.549 18.8876 24.8224 19.6396 24.8224C20.4892 24.8224 21.0849 24.4025 21.0849 23.8165C21.0849 23.3087 20.7333 22.9962 19.8154 22.8057L19.0586 22.6494C17.6475 22.3613 16.9883 21.6972 16.9883 20.667C16.9883 19.4268 18.0772 18.5869 19.6055 18.5869C20.8506 18.5869 21.8174 19.1435 22.1055 20.0762C22.1348 20.1543 22.1494 20.2471 22.1494 20.3643C22.1494 20.6719 21.9297 20.8819 21.6025 20.8819C21.3095 20.8819 21.1289 20.7549 20.997 20.4815C20.7577 19.8858 20.2548 19.6319 19.5956 19.6319C18.8143 19.6319 18.2577 20.003 18.2577 20.5938C18.2577 21.0723 18.6093 21.3799 19.4882 21.5655L20.245 21.7218C21.7294 22.0294 22.3544 22.6251 22.3544 23.6701C22.3544 25.0178 21.2948 25.8674 19.6005 25.8674L19.6006 25.8673Z" fill="black"/>
<path d="M31.728 20.4862C31.1136 20.4862 30.5386 20.7844 30.2558 20.9581C30.1756 21.0073 30.0715 20.9665 30.045 20.8762C30.0275 20.8163 29.9991 20.7507 29.9533 20.6903C29.8362 20.5357 29.6662 20.4716 29.477 20.4716C29.1303 20.4716 28.8862 20.6962 28.8862 21.0966V26.9512C28.8862 27.3614 29.1352 27.591 29.4917 27.591C29.8482 27.591 30.1021 27.3614 30.1021 26.9512V25.5394C30.1021 25.4315 30.2178 25.3632 30.3123 25.4154C30.6035 25.5762 31.1604 25.8331 31.7476 25.8331C33.0464 25.8331 33.8765 24.8125 33.8765 23.1621C33.8765 21.5117 33.0415 20.4863 31.728 20.4863V20.4862ZM31.3569 24.8368C30.6001 24.8368 30.0971 24.1776 30.0922 23.162C30.0971 22.1561 30.6 21.4872 31.3569 21.4872C32.1138 21.4872 32.6313 22.1415 32.6313 23.162C32.6313 24.1825 32.143 24.8368 31.3569 24.8368Z" fill="black"/>
<path d="M37.1816 20.4668C35.6875 20.4668 34.7354 21.5312 34.7354 23.1816C34.7354 24.832 35.668 25.8524 37.25 25.8524C38.0502 25.8524 38.6361 25.6746 39.1358 25.1196C39.3595 24.8712 39.2996 24.5005 39.0035 24.342C38.7541 24.2084 38.4704 24.3365 38.3311 24.4659C37.8884 24.8773 37.5636 24.9149 37.2402 24.9149C36.494 24.9149 36.0041 24.4302 35.9511 23.6068C35.9458 23.5247 36.0102 23.455 36.0925 23.455H39.0466C39.3278 23.455 39.5572 23.2302 39.5636 22.9491C39.5963 21.5063 38.6211 20.4668 37.1816 20.4668ZM38.2114 22.6011H36.1223C36.0317 22.6011 35.9649 22.5173 35.9839 22.4287C36.1205 21.79 36.5921 21.4093 37.1864 21.4093C37.7807 21.4093 38.2349 21.7772 38.3511 22.4355C38.3664 22.522 38.2992 22.6011 38.2113 22.6011H38.2114Z" fill="black"/>
<path d="M41.0196 25.8477C40.6534 25.8477 40.4141 25.6083 40.4141 25.2079V21.0868C40.4141 20.7059 40.6485 20.4716 40.9952 20.4716C41.3419 20.4716 41.4798 20.7042 41.525 20.8202C41.5314 20.8365 41.5369 20.8534 41.5417 20.8706C41.5708 20.9747 41.7027 21.007 41.7787 20.9302C41.9752 20.7318 42.3 20.4862 42.7042 20.4862C42.8946 20.4862 43.0411 20.535 43.1339 20.618C43.2462 20.7108 43.3048 20.8574 43.3048 21.0576C43.3048 21.2578 43.2462 21.3895 43.1241 21.4872C43.0069 21.5897 42.8262 21.6435 42.587 21.6483C41.8936 21.6532 41.63 22.0879 41.63 22.7177V25.2079C41.63 25.6083 41.3859 25.8477 41.0196 25.8477Z" fill="black"/>
<path d="M25.0406 25.8428C23.9175 25.8428 23.2046 25.1153 23.2046 23.919V21.1114C23.2046 20.7061 23.4536 20.4717 23.8101 20.4717C24.1666 20.4717 24.4205 20.7061 24.4205 21.1162V23.6748C24.4205 24.417 24.7818 24.8174 25.4654 24.8174C26.149 24.8174 26.6031 24.3193 26.6031 23.5674V21.1113C26.6031 20.706 26.857 20.4716 27.2135 20.4716C27.57 20.4716 27.819 20.706 27.819 21.1161V25.2324C27.819 25.623 27.5846 25.8476 27.2379 25.8476C26.8912 25.8476 26.7649 25.6372 26.7375 25.5925C26.7192 25.5625 26.7037 25.5271 26.691 25.4919C26.6617 25.4107 26.5663 25.3753 26.4903 25.4163C26.2143 25.5648 25.6998 25.8428 25.0405 25.8428H25.0406Z" fill="black"/>
</svg>
