<svg width="68" height="54" viewBox="0 0 68 54" fill="none" xmlns="http://www.w3.org/2000/svg">
<rect x="1.8501" y="1.85001" width="63.8" height="50.3" rx="3" stroke="#16215B" stroke-width="0.28"/>
<path d="M10.2042 37.0347C10.1252 27.0966 10.0222 17.1597 9.89746 7.22124C9.91747 6.51726 10.0715 5.80827 10.3435 5.15544C10.4795 4.83147 10.6445 4.52055 10.8396 4.22832C11.0316 3.93828 11.2546 3.66728 11.5041 3.42375C11.7511 3.18083 12.0251 2.96477 12.3169 2.77861C12.6079 2.59258 12.9179 2.43657 13.2402 2.30962C13.8842 2.05559 14.5822 1.92058 15.2713 1.91154C27.5883 1.83257 39.9073 1.83257 52.2242 1.91191C52.3903 1.91496 52.5573 1.92387 52.7235 1.9406C52.9716 1.9655 53.2176 2.00456 53.4604 2.05949C53.7035 2.11443 53.9435 2.18547 54.1755 2.27104C54.6665 2.4561 55.1345 2.71501 55.5504 3.0385C55.9694 3.36345 56.3354 3.75346 56.6357 4.18938C56.9377 4.62944 57.1727 5.11748 57.3333 5.62761C57.4952 6.14372 57.5822 6.68266 57.5987 7.22209C57.4707 17.1591 57.3677 27.0971 57.2917 37.035C57.2817 37.366 57.2338 37.696 57.1611 38.0201C57.0861 38.3471 56.9861 38.668 56.8557 38.9766C56.7247 39.2886 56.5627 39.5885 56.3759 39.8709C56.187 40.155 55.973 40.4229 55.7365 40.6684C55.4995 40.9144 55.2386 41.1384 54.9608 41.3365C54.6818 41.5345 54.3878 41.7074 54.0767 41.8533C53.4657 42.1413 52.7977 42.3254 52.1257 42.3811C46.0037 42.6772 39.8767 42.8241 33.7478 42.8244C27.6188 42.8244 21.4918 42.6763 15.3697 42.3809C14.6977 42.3259 14.0297 42.1479 13.4165 41.858C12.7975 41.566 12.2325 41.1609 11.7583 40.668C11.2863 40.179 10.9053 39.6031 10.6398 38.9756C10.3778 38.3606 10.2278 37.6967 10.2028 37.0336" stroke="#16215B" stroke-width="0.283" stroke-miterlimit="10"/>
<path d="M13.3384 4.39252C12.5554 4.39252 11.9204 5.02655 11.9204 5.80914V38.975C11.9204 39.7581 12.5554 40.3922 13.3387 40.3925H54.1567C54.9397 40.3925 55.5737 39.7576 55.5737 38.9755V5.80951C55.5737 5.02655 54.9398 4.39252 54.1568 4.39252" stroke="#00FFFF" stroke-width="0.28" stroke-miterlimit="10"/>
<path d="M11.0405 7.43842V7.31744C11.0415 7.2785 11.0424 7.23846 11.0435 7.19843L11.0495 7.08051C11.0525 7.04047 11.0555 7.00153 11.0594 6.96246C11.0635 6.92352 11.0675 6.88446 11.0715 6.84552L11.0854 6.73041C11.0915 6.69147 11.0975 6.6535 11.1045 6.61542C11.1105 6.57745 11.1174 6.53949 11.1245 6.50153L11.1475 6.38947C11.1564 6.35248 11.1655 6.31451 11.1734 6.27753C11.1824 6.24042 11.1925 6.20343 11.2035 6.16742C11.2124 6.13043 11.2234 6.09344 11.2345 6.05743C11.2465 6.02142 11.2565 5.98444 11.2695 5.94843C11.2814 5.91241 11.2935 5.87653 11.3065 5.84052C11.3195 5.80548 11.3335 5.76947 11.3465 5.73346C11.3735 5.66742 11.4015 5.60052 11.4315 5.53448C11.4604 5.46844 11.4924 5.40448 11.5255 5.34052C11.5585 5.27643 11.5935 5.21344 11.6295 5.15253C11.6665 5.09052 11.7055 5.02948 11.7445 4.96942C11.8244 4.84943 11.9115 4.73346 12.0034 4.6225C12.0955 4.51251 12.1925 4.40741 12.2955 4.30951C12.3985 4.20941 12.5065 4.11749 12.6205 4.02948C12.7355 3.94147 12.8555 3.85846 12.9785 3.78241C13.0405 3.74445 13.1024 3.70844 13.1665 3.67352C13.2295 3.63849 13.2935 3.60541 13.3585 3.57452C13.4234 3.54242 13.4895 3.51251 13.5555 3.48444C13.6235 3.45648 13.6905 3.4295 13.7585 3.40448C13.7775 3.39752 13.7944 3.39142 13.8135 3.38446L13.8695 3.36542C13.8875 3.35944 13.9064 3.35345 13.9255 3.34747L13.9815 3.32953C14.0005 3.32343 14.0195 3.31744 14.0385 3.31244C14.0565 3.30646 14.0764 3.30145 14.0945 3.29547C14.1145 3.29047 14.1325 3.28546 14.1525 3.27948C14.1705 3.27448 14.1905 3.27045 14.2085 3.26544C14.2285 3.25946 14.2485 3.25543 14.2664 3.25043C14.2865 3.24542 14.3055 3.24152 14.3255 3.23651C14.3435 3.23248 14.3634 3.22845 14.3825 3.22345C14.4025 3.21942 14.4214 3.21552 14.4415 3.21149L14.5005 3.19952C14.5195 3.1955 14.5405 3.19244 14.5594 3.18842L14.6185 3.17853C14.6385 3.1745 14.6584 3.17145 14.6785 3.16852C14.6985 3.16547 14.7175 3.16241 14.7384 3.15948C14.7575 3.15643 14.7785 3.15448 14.7984 3.15143C14.8185 3.1485 14.8385 3.14642 14.8585 3.14447C14.8784 3.14142 14.8995 3.13947 14.9194 3.13751C14.9395 3.13446 14.9595 3.13251 14.9805 3.13043C15.0005 3.12848 15.0215 3.12653 15.0424 3.12543C15.0625 3.12347 15.0835 3.1225 15.1035 3.12042C15.1245 3.11847 15.1445 3.11749 15.1655 3.11652C15.1864 3.11444 15.2075 3.11346 15.2274 3.11249C15.2485 3.11151 15.2695 3.11041 15.2905 3.10944C15.3105 3.10846 15.3325 3.10846 15.3524 3.10748C15.3745 3.10651 15.3945 3.10651 15.4165 3.10651C15.4364 3.10541 15.4585 3.10541 15.4795 3.10541C15.5806 3.10541 15.6826 3.10443 15.7856 3.10345C15.8866 3.10345 15.9886 3.10248 16.0905 3.1015C16.1926 3.10052 16.2935 3.10052 16.3965 3.09943C16.4975 3.09845 16.5995 3.09845 16.7025 3.09747C16.8035 3.0965 16.9066 3.0965 17.0076 3.09552C17.1095 3.09442 17.2115 3.09442 17.3136 3.09344C17.4155 3.09344 17.5175 3.09247 17.6205 3.09149C17.7216 3.09149 17.8246 3.09052 17.9256 3.08942C18.0285 3.08942 18.1295 3.08844 18.2325 3.08844C18.3336 3.08746 18.4366 3.08649 18.5376 3.08649C18.6405 3.08551 18.7426 3.08551 18.8445 3.08441C18.9465 3.08441 19.0486 3.08344 19.1505 3.08344C19.2525 3.08246 19.3555 3.08246 19.4565 3.08148C19.5596 3.08148 19.6615 3.08051 19.7635 3.08051C19.8665 3.07953 19.9675 3.07953 20.0706 3.07843C20.1725 3.07745 20.2746 3.07745 20.3766 3.07648C20.4785 3.07648 20.5806 3.0755 20.6835 3.0755C20.7856 3.07452 20.8875 3.07452 20.9906 3.07343C21.0916 3.07343 21.1945 3.07245 21.2966 3.07245C21.3996 3.07147 21.5005 3.07147 21.6035 3.07147C21.7056 3.0705 21.8076 3.0705 21.9106 3.06952C22.0125 3.06952 22.1156 3.06842 22.2166 3.06842L22.5246 3.06647C22.6266 3.06647 22.7285 3.06647 22.8306 3.06549C22.9335 3.06549 23.0365 3.06451 23.1375 3.06451C23.2406 3.06451 23.3425 3.06342 23.4456 3.06342C23.5475 3.06342 23.6505 3.06244 23.7516 3.06244L24.0596 3.06146C24.1626 3.06146 24.2645 3.06049 24.3665 3.06049C24.4686 3.05951 24.5715 3.05951 24.6735 3.05951C24.7765 3.05841 24.8786 3.05841 24.9816 3.05841C25.0825 3.05743 25.1855 3.05743 25.2876 3.05743C25.3905 3.05646 25.4935 3.05646 25.5955 3.05646C25.6985 3.05548 25.8006 3.05548 25.9035 3.05548C26.0055 3.05548 26.1085 3.0545 26.2095 3.0545C26.3125 3.0545 26.4145 3.05353 26.5175 3.05353C26.6205 3.05353 26.7225 3.05353 26.8255 3.05243C26.9275 3.05243 27.0305 3.05243 27.1326 3.05243C27.2355 3.05145 27.3375 3.05145 27.4405 3.05145C27.5425 3.05145 27.6456 3.05048 27.7475 3.05048C27.8505 3.05048 27.9535 3.05048 28.0555 3.0495C28.1586 3.0495 28.2605 3.0495 28.3635 3.0495C28.4655 3.0495 28.5685 3.04852 28.6705 3.04852C28.7735 3.04852 28.8755 3.04852 28.9785 3.04852C29.0806 3.04742 29.1835 3.04742 29.2865 3.04742C29.3885 3.04742 29.4915 3.04742 29.5936 3.04742C29.6965 3.04645 29.7985 3.04645 29.9015 3.04645C30.0036 3.04645 30.1066 3.04645 30.2085 3.04645C30.3115 3.04645 30.4135 3.04547 30.5166 3.04547C30.6196 3.04547 30.7215 3.04547 30.8245 3.04547H31.1315C31.2345 3.04547 31.3365 3.04449 31.4395 3.04449H31.7465C31.8495 3.04449 31.9525 3.04449 32.0555 3.04449H32.3635H32.6705C32.7735 3.04352 32.8755 3.04352 32.9785 3.04352H33.2865H33.5936H33.9025H34.2095H34.5175C34.6205 3.04352 34.7225 3.04352 34.8255 3.04449H35.1326H35.4405C35.5425 3.04449 35.6456 3.04449 35.7475 3.04449H36.0565C36.1595 3.04449 36.2616 3.04547 36.3645 3.04547H36.6716C36.7746 3.04547 36.8765 3.04547 36.9795 3.04547C37.0815 3.04547 37.1846 3.04645 37.2876 3.04645C37.3895 3.04645 37.4925 3.04645 37.5945 3.04645C37.6976 3.04645 37.7995 3.04645 37.9025 3.04742C38.0045 3.04742 38.1075 3.04742 38.2095 3.04742C38.3125 3.04742 38.4145 3.04742 38.5175 3.04852C38.6205 3.04852 38.7225 3.04852 38.8255 3.04852C38.9275 3.04852 39.0305 3.0495 39.1326 3.0495C39.2355 3.0495 39.3375 3.0495 39.4405 3.0495C39.5425 3.05048 39.6456 3.05048 39.7475 3.05048C39.8505 3.05048 39.9535 3.05145 40.0555 3.05145C40.1586 3.05145 40.2605 3.05145 40.3635 3.05243C40.4655 3.05243 40.5685 3.05243 40.6705 3.05243C40.7735 3.05353 40.8755 3.05353 40.9785 3.05353C41.0806 3.05353 41.1825 3.0545 41.2855 3.0545C41.3875 3.0545 41.4906 3.05548 41.5925 3.05548C41.6955 3.05548 41.7975 3.05548 41.9005 3.05646C42.0025 3.05646 42.1055 3.05646 42.2075 3.05743C42.3096 3.05743 42.4126 3.05743 42.5145 3.05841C42.6175 3.05841 42.7195 3.05841 42.8226 3.05951C42.9245 3.05951 43.0275 3.05951 43.1286 3.06049C43.2316 3.06049 43.3335 3.06146 43.4365 3.06146L43.7446 3.06244C43.8455 3.06244 43.9485 3.06342 44.0506 3.06342C44.1535 3.06342 44.2555 3.06451 44.3575 3.06451L44.6645 3.06549C44.7675 3.06647 44.8696 3.06647 44.9715 3.06647C45.0745 3.06744 45.1765 3.06744 45.2785 3.06842L45.5855 3.06952C45.6875 3.0705 45.7895 3.0705 45.8925 3.07147C45.9955 3.07147 46.0965 3.07147 46.1995 3.07245C46.3015 3.07245 46.4035 3.07343 46.5055 3.07343C46.6085 3.07452 46.7095 3.07452 46.8125 3.0755C46.9145 3.0755 47.0166 3.07648 47.1196 3.07648C47.2215 3.07745 47.3235 3.07745 47.4256 3.07843C47.5285 3.07953 47.6295 3.07953 47.7325 3.08051C47.8335 3.08051 47.9365 3.08148 48.0385 3.08148C48.1405 3.08246 48.2435 3.08246 48.3445 3.08344C48.4476 3.08344 48.5495 3.08441 48.6515 3.08441C48.7536 3.08551 48.8555 3.08551 48.9575 3.08649C49.0596 3.08649 49.1626 3.08746 49.2635 3.08844C49.3665 3.08844 49.4675 3.08942 49.5705 3.08942C49.6716 3.09052 49.7746 3.09149 49.8755 3.09149C49.9785 3.09247 50.0795 3.09344 50.1825 3.09344C50.2845 3.09442 50.3855 3.09442 50.4885 3.09552C50.5896 3.0965 50.6926 3.0965 50.7935 3.09747C50.8956 3.09845 50.9975 3.09845 51.0995 3.09943C51.2025 3.10052 51.3035 3.10052 51.4055 3.1015C51.5076 3.10248 51.6095 3.10345 51.7105 3.10345C51.8136 3.10443 51.9145 3.10541 52.0166 3.10541C52.058 3.10553 52.099 3.10651 52.139 3.10748C52.18 3.10846 52.22 3.11053 52.26 3.11249C52.3 3.11444 52.34 3.11652 52.38 3.11945C52.42 3.1225 52.46 3.12543 52.499 3.12946C52.5379 3.13251 52.578 3.13751 52.617 3.14142C52.656 3.14642 52.695 3.15045 52.733 3.15643C52.772 3.16144 52.811 3.16742 52.85 3.17352C52.888 3.18048 52.9259 3.18646 52.964 3.19342C53.002 3.2005 53.04 3.20843 53.078 3.21649C53.115 3.22443 53.153 3.23248 53.19 3.24152C53.227 3.25043 53.265 3.25946 53.302 3.26947C53.339 3.2785 53.376 3.28851 53.412 3.29852C53.449 3.30951 53.485 3.3205 53.521 3.33148C53.558 3.34247 53.5939 3.35553 53.63 3.36652C53.666 3.37848 53.702 3.39142 53.737 3.40448C53.806 3.4295 53.873 3.45648 53.9389 3.48444C54.007 3.51251 54.072 3.54242 54.138 3.57452C54.202 3.60553 54.267 3.63849 54.33 3.67352C54.393 3.70844 54.455 3.74445 54.517 3.78253C54.641 3.85846 54.761 3.94049 54.876 4.02948C54.989 4.11652 55.097 4.20953 55.2 4.30853C55.303 4.40753 55.3999 4.51251 55.492 4.6225C55.585 4.73346 55.671 4.84943 55.751 4.96942C55.791 5.02948 55.829 5.09052 55.866 5.15253C55.902 5.21344 55.937 5.27643 55.971 5.34052C56.004 5.40448 56.035 5.46844 56.0639 5.53448C56.095 5.60052 56.123 5.66644 56.149 5.73346C56.156 5.7525 56.1629 5.77045 56.17 5.78949C56.177 5.80743 56.184 5.82648 56.19 5.84442C56.197 5.86249 56.204 5.88153 56.21 5.89948C56.217 5.91852 56.223 5.93744 56.229 5.95648C56.235 5.97443 56.241 5.99347 56.247 6.01251C56.253 6.03046 56.259 6.0495 56.265 6.06842C56.27 6.08746 56.276 6.10651 56.281 6.12543C56.287 6.14447 56.292 6.16351 56.297 6.18243C56.303 6.20148 56.308 6.22052 56.312 6.23944C56.317 6.25848 56.322 6.27753 56.327 6.29645C56.331 6.31549 56.336 6.33551 56.341 6.35443C56.345 6.37445 56.349 6.39349 56.353 6.41254C56.3569 6.43243 56.361 6.45148 56.365 6.47052L56.377 6.52948C56.38 6.54852 56.384 6.56842 56.388 6.58746C56.391 6.60748 56.394 6.6275 56.397 6.64642C56.3999 6.66742 56.403 6.68646 56.406 6.70648C56.409 6.7265 56.412 6.74652 56.414 6.76642C56.417 6.78644 56.42 6.80548 56.422 6.8255C56.425 6.84552 56.427 6.86542 56.429 6.88544C56.431 6.90643 56.433 6.92645 56.435 6.94647C56.436 6.96649 56.438 6.98651 56.44 7.00653C56.442 7.02753 56.443 7.04742 56.445 7.06744C56.446 7.08746 56.447 7.10846 56.448 7.12848C56.45 7.14948 56.451 7.16949 56.452 7.19049C56.452 7.21051 56.453 7.23151 56.454 7.25153C56.455 7.27252 56.455 7.29352 56.456 7.31342V7.37653V7.43842C56.4541 7.94391 56.451 8.44891 56.448 8.9549C56.4321 12.1459 56.4161 15.338 56.401 18.53C56.395 19.6939 56.391 20.858 56.3861 22.0229C56.365 26.8769 56.3471 31.732 56.3301 36.5859C56.3299 36.6252 56.329 36.6641 56.328 36.7032C56.327 36.7432 56.3259 36.7822 56.324 36.8212C56.3219 36.8602 56.319 36.8992 56.316 36.9372C56.3129 36.9761 56.31 37.0142 56.307 37.0532C56.303 37.0922 56.299 37.1302 56.294 37.1682C56.29 37.2061 56.284 37.2442 56.2789 37.2831C56.273 37.3212 56.268 37.3582 56.2609 37.3962C56.255 37.4341 56.248 37.4722 56.2399 37.5092C56.233 37.5472 56.226 37.5842 56.217 37.6212C56.209 37.6591 56.2 37.6962 56.191 37.7332C56.182 37.7702 56.173 37.8072 56.1619 37.8442C56.152 37.8802 56.142 37.9172 56.131 37.9532C56.1199 37.9902 56.108 38.0272 56.097 38.0632C56.0849 38.0992 56.0719 38.1362 56.06 38.1722C56.047 38.2082 56.034 38.2432 56.0199 38.2802C55.9679 38.4172 55.909 38.5541 55.8439 38.6862C55.7789 38.8172 55.709 38.9442 55.6329 39.0682C55.557 39.1912 55.475 39.3101 55.3869 39.4262C55.299 39.5412 55.2049 39.6522 55.105 39.7581C55.0069 39.8652 54.901 39.9661 54.7919 40.0632C54.682 40.1591 54.5669 40.2512 54.448 40.3372C54.389 40.3792 54.328 40.4212 54.267 40.4601C54.2049 40.5002 54.143 40.5381 54.0799 40.5751C54.017 40.6111 53.953 40.6462 53.889 40.6791C53.823 40.7122 53.7579 40.7442 53.691 40.7742C53.674 40.7822 53.657 40.7891 53.64 40.7972C53.623 40.8051 53.605 40.8122 53.588 40.8192C53.57 40.8262 53.554 40.8342 53.536 40.8411C53.519 40.8482 53.501 40.8552 53.483 40.8621C53.467 40.8692 53.449 40.8762 53.432 40.8821C53.414 40.8892 53.396 40.8952 53.379 40.9022L53.3259 40.9212C53.3089 40.9272 53.291 40.9332 53.272 40.9391C53.255 40.9462 53.237 40.9512 53.22 40.9572C53.202 40.9632 53.185 40.9692 53.166 40.9742C53.148 40.9802 53.131 40.9852 53.112 40.9911C53.095 40.9962 53.077 41.0012 53.0589 41.0062C53.041 41.0121 53.022 41.0162 53.005 41.0212C52.9859 41.0262 52.9689 41.0312 52.95 41.0352C52.933 41.0402 52.914 41.0452 52.896 41.0502C52.8779 41.0541 52.859 41.0582 52.842 41.0622C52.823 41.0672 52.8049 41.0712 52.7869 41.0751L52.7309 41.0872C52.713 41.0911 52.695 41.0942 52.677 41.0982L52.621 41.1082C52.6019 41.1121 52.584 41.1152 52.565 41.1182C52.547 41.1212 52.528 41.1242 52.51 41.1271C52.491 41.1302 52.4729 41.1331 52.453 41.1362C52.435 41.1381 52.416 41.1412 52.397 41.1431C52.379 41.1462 52.359 41.1481 52.341 41.1512C52.3219 41.1531 52.303 41.1552 52.284 41.1572C52.2659 41.1591 52.246 41.1612 52.2269 41.1631C52.208 41.1652 52.1889 41.1672 52.17 41.1682C52.151 41.1702 52.1319 41.1712 52.113 41.1732C52.0939 41.1741 52.075 41.1762 52.056 41.1772C52.036 41.1782 52.018 41.1791 51.998 41.1801C51.896 41.1851 51.795 41.1901 51.692 41.1951L51.388 41.2101C51.285 41.2151 51.1839 41.2202 51.082 41.2242C50.98 41.2292 50.8779 41.2342 50.776 41.2392C50.6749 41.2432 50.5719 41.2482 50.471 41.2532C50.3689 41.2581 50.267 41.2621 50.165 41.2662C50.0629 41.2712 49.961 41.2762 49.859 41.2802C49.7579 41.2841 49.655 41.2891 49.554 41.2932C49.452 41.2982 49.35 41.3022 49.248 41.3062C49.1449 41.3112 49.044 41.3151 48.942 41.3192C48.84 41.3242 48.738 41.3282 48.636 41.3322C48.534 41.3361 48.432 41.3401 48.33 41.3442C48.2269 41.3482 48.126 41.3522 48.024 41.3561C47.922 41.3602 47.82 41.3642 47.718 41.3682C47.616 41.3721 47.514 41.3762 47.411 41.3802C47.31 41.3831 47.207 41.3871 47.105 41.3912C47.0029 41.3942 46.901 41.3981 46.799 41.4022C46.6969 41.4062 46.595 41.4091 46.493 41.4122C46.3909 41.4162 46.2879 41.4202 46.186 41.4232C46.084 41.4272 45.9819 41.4301 45.88 41.4332C45.777 41.4372 45.6759 41.4401 45.573 41.4432C45.471 41.4472 45.3689 41.4501 45.267 41.4532C45.165 41.4561 45.062 41.4592 44.9599 41.4622C44.858 41.4661 44.756 41.4692 44.653 41.4722C44.552 41.4752 44.449 41.4782 44.347 41.4811C44.2439 41.4842 44.143 41.4871 44.04 41.4892C43.937 41.4921 43.836 41.4952 43.733 41.4982C43.631 41.5002 43.528 41.5032 43.427 41.5062C43.324 41.5092 43.222 41.5112 43.1199 41.5142C43.018 41.5162 42.915 41.5192 42.812 41.5222C42.7099 41.5242 42.608 41.5272 42.506 41.5292C42.403 41.5322 42.3009 41.5341 42.199 41.5362L41.892 41.5432C41.789 41.5452 41.687 41.5482 41.5849 41.5502C41.4819 41.5522 41.38 41.5541 41.277 41.5562C41.1759 41.5582 41.073 41.5601 40.971 41.5622L40.6629 41.5682C40.561 41.5701 40.459 41.5722 40.3559 41.5742C40.254 41.5762 40.151 41.5772 40.049 41.5792C39.946 41.5811 39.845 41.5832 39.742 41.5842C39.64 41.5861 39.5369 41.5882 39.435 41.5892C39.332 41.5911 39.229 41.5922 39.1279 41.5942L38.82 41.5982L38.513 41.6022C38.41 41.6032 38.308 41.6052 38.205 41.6061C38.103 41.6071 38.001 41.6092 37.898 41.6102C37.7959 41.6111 37.6929 41.6121 37.591 41.6132L37.2829 41.6161C37.181 41.6171 37.078 41.6182 36.9769 41.6192C36.8739 41.6202 36.771 41.6202 36.669 41.6212C36.566 41.6221 36.4639 41.6232 36.3609 41.6242C36.259 41.6242 36.156 41.6252 36.054 41.6262C35.9509 41.6262 35.849 41.6271 35.746 41.6282C35.643 41.6282 35.541 41.6292 35.4389 41.6292C35.337 41.6302 35.234 41.6302 35.1319 41.6302L34.824 41.6321C34.722 41.6321 34.6189 41.6321 34.517 41.6321C34.414 41.6331 34.311 41.6331 34.209 41.6331C34.1059 41.6331 34.004 41.6331 33.901 41.6331H33.595C33.492 41.6331 33.39 41.6331 33.2869 41.6331C33.185 41.6331 33.082 41.6331 32.979 41.6321C32.877 41.6321 32.7739 41.6321 32.672 41.6321L32.364 41.6302C32.2619 41.6302 32.159 41.6302 32.057 41.6292C31.954 41.6292 31.8519 41.6282 31.75 41.6282C31.647 41.6271 31.545 41.6262 31.442 41.6262C31.34 41.6252 31.237 41.6242 31.135 41.6242C31.032 41.6232 30.9299 41.6221 30.827 41.6212C30.725 41.6202 30.622 41.6202 30.519 41.6192C30.4169 41.6182 30.315 41.6171 30.213 41.6161L29.905 41.6132C29.803 41.6121 29.7 41.6111 29.5979 41.6102C29.4949 41.6092 29.393 41.6071 29.29 41.6061C29.187 41.6052 29.086 41.6032 28.983 41.6022L28.6759 41.5982L28.368 41.5942C28.2659 41.5922 28.164 41.5911 28.061 41.5892C27.959 41.5882 27.8559 41.5861 27.754 41.5842C27.651 41.5832 27.549 41.5811 27.4469 41.5792C27.345 41.5772 27.242 41.5762 27.14 41.5742L26.832 41.5682C26.73 41.5662 26.6279 41.5641 26.5249 41.5622C26.423 41.5601 26.32 41.5582 26.2179 41.5562C26.116 41.5541 26.014 41.5522 25.911 41.5502C25.8089 41.5482 25.7059 41.5452 25.604 41.5432L25.297 41.5362C25.194 41.5341 25.0929 41.5322 24.9899 41.5292C24.888 41.5272 24.785 41.5242 24.6839 41.5222C24.581 41.5192 24.478 41.5162 24.376 41.5142C24.274 41.5112 24.172 41.5092 24.069 41.5062C23.967 41.5032 23.865 41.5002 23.763 41.4982C23.66 41.4952 23.559 41.4921 23.456 41.4892C23.353 41.4871 23.251 41.4842 23.149 41.4811C23.047 41.4782 22.944 41.4752 22.843 41.4722C22.74 41.4692 22.638 41.4661 22.536 41.4622C22.434 41.4592 22.331 41.4561 22.229 41.4532C22.127 41.4501 22.024 41.4472 21.923 41.4432C21.82 41.4401 21.719 41.4372 21.616 41.4332C21.514 41.4301 21.412 41.4272 21.31 41.4232C21.208 41.4202 21.105 41.4162 21.003 41.4122C20.901 41.4091 20.799 41.4062 20.697 41.4022C20.595 41.3981 20.493 41.3942 20.391 41.3912C20.288 41.3871 20.186 41.3831 20.084 41.3802C19.982 41.3762 19.88 41.3721 19.778 41.3682C19.676 41.3642 19.574 41.3602 19.472 41.3561C19.37 41.3522 19.268 41.3482 19.166 41.3442C19.063 41.3401 18.962 41.3361 18.86 41.3322C18.758 41.3282 18.656 41.3242 18.554 41.3192C18.452 41.3151 18.35 41.3112 18.248 41.3062C18.146 41.3022 18.044 41.2982 17.942 41.2932C17.84 41.2891 17.738 41.2841 17.637 41.2802C17.534 41.2762 17.433 41.2712 17.331 41.2662C17.228 41.2621 17.127 41.2581 17.025 41.2532C16.923 41.2482 16.821 41.2432 16.72 41.2392C16.618 41.2342 16.516 41.2292 16.414 41.2242C16.312 41.2202 16.211 41.2151 16.108 41.2101L15.804 41.1951C15.701 41.1901 15.6 41.1851 15.498 41.18C15.312 41.171 15.127 41.1509 14.944 41.1209C14.466 41.04 13.993 40.883 13.563 40.6559C13.132 40.4289 12.732 40.124 12.398 39.7669C12.26 39.618 12.129 39.4589 12.012 39.2919C11.724 38.883 11.503 38.421 11.363 37.9449C11.232 37.5049 11.167 37.0429 11.1661 36.5855C11.149 31.7294 11.1311 26.8735 11.1101 22.0164C11.1051 20.8515 11.1011 19.6855 11.0951 18.5204C11.08 15.3305 11.0641 12.1404 11.048 8.9505C11.0451 8.44647 11.0421 7.94244 11.0391 7.43842" stroke="#FF00FF" stroke-width="0.283465" stroke-miterlimit="10" stroke-linecap="round" stroke-linejoin="round"/>
<path d="M53.4491 44.9191V50.01H52.8326V45.5654H52.8028L51.5599 46.3907V45.7643L52.8326 44.9191H53.4491ZM55.0499 50.0498C54.9273 50.0498 54.8221 50.0059 54.7342 49.918C54.6464 49.8302 54.6025 49.725 54.6025 49.6023C54.6025 49.4797 54.6464 49.3745 54.7342 49.2866C54.8221 49.1988 54.9273 49.1549 55.0499 49.1549C55.1726 49.1549 55.2778 49.1988 55.3656 49.2866C55.4535 49.3745 55.4974 49.4797 55.4974 49.6023C55.4974 49.6835 55.4767 49.7581 55.4352 49.8261C55.3955 49.894 55.3416 49.9487 55.2737 49.9901C55.2074 50.0299 55.1328 50.0498 55.0499 50.0498ZM56.5402 50.01V49.5626L58.2206 47.7231C58.4178 47.5076 58.5802 47.3204 58.7078 47.1613C58.8354 47.0005 58.9299 46.8497 58.9912 46.7089C59.0541 46.5664 59.0856 46.4172 59.0856 46.2614C59.0856 46.0825 59.0425 45.9275 58.9564 45.7966C58.8718 45.6657 58.7558 45.5646 58.6084 45.4933C58.4609 45.4221 58.2951 45.3864 58.1112 45.3864C57.9156 45.3864 57.745 45.427 57.5991 45.5082C57.4549 45.5878 57.3431 45.6996 57.2635 45.8438C57.1857 45.988 57.1467 46.157 57.1467 46.3509H56.5601C56.5601 46.0526 56.6288 45.7908 56.7664 45.5654C56.9039 45.34 57.0912 45.1644 57.3282 45.0384C57.5668 44.9125 57.8344 44.8495 58.1311 44.8495C58.4294 44.8495 58.6937 44.9125 58.9241 45.0384C59.1544 45.1644 59.335 45.3342 59.466 45.548C59.5969 45.7618 59.6623 45.9996 59.6623 46.2614C59.6623 46.4487 59.6284 46.6318 59.5604 46.8108C59.4941 46.9881 59.3781 47.1861 59.2124 47.4049C59.0483 47.622 58.8205 47.8871 58.5288 48.2004L57.3853 49.4234V49.4631H59.7518V50.01H56.5402ZM62.3694 50.0796C62.0777 50.0796 61.815 50.0216 61.5814 49.9056C61.3477 49.7896 61.1604 49.6305 61.0196 49.4283C60.8787 49.2262 60.8017 48.9958 60.7884 48.7373H61.385C61.4082 48.9676 61.5126 49.1582 61.6982 49.309C61.8855 49.4582 62.1092 49.5327 62.3694 49.5327C62.5782 49.5327 62.7638 49.4838 62.9262 49.3861C63.0902 49.2883 63.2187 49.1541 63.3115 48.9834C63.4059 48.811 63.4532 48.6163 63.4532 48.3992C63.4532 48.1771 63.4043 47.9791 63.3065 47.8051C63.2104 47.6294 63.0778 47.4911 62.9088 47.39C62.7397 47.2889 62.5467 47.2375 62.3296 47.2359C62.1738 47.2342 62.0139 47.2582 61.8498 47.308C61.6858 47.356 61.5507 47.4182 61.4446 47.4944L60.8679 47.4248L61.1762 44.9191H63.8211V45.466H61.6932L61.5142 46.9674H61.5441C61.6485 46.8845 61.7794 46.8158 61.9368 46.7611C62.0943 46.7064 62.2583 46.679 62.429 46.679C62.7406 46.679 63.0182 46.7536 63.2618 46.9028C63.507 47.0503 63.6993 47.2524 63.8385 47.5093C63.9793 47.7662 64.0498 48.0595 64.0498 48.3893C64.0498 48.7141 63.9768 49.0041 63.831 49.2593C63.6868 49.5129 63.488 49.7134 63.2344 49.8609C62.9809 50.0067 62.6925 50.0796 62.3694 50.0796Z" fill="#0000FF"/>
<path fill-rule="evenodd" clip-rule="evenodd" d="M23.3158 10.2844C23.1433 10.1119 22.857 10.1119 22.6845 10.2844L21.3345 11.6344C21.067 11.9019 20.6333 11.9019 20.3658 11.6344C20.0983 11.3669 20.0983 10.9332 20.3658 10.6657L21.7158 9.31567C22.4233 8.60816 23.577 8.60816 24.2845 9.31567L25.6345 10.6657C25.902 10.9332 25.902 11.3669 25.6345 11.6344C25.367 11.9019 24.9333 11.9019 24.6658 11.6344L23.3158 10.2844ZM18.8845 14.0844C19.152 13.8169 19.152 13.3832 18.8845 13.1157C18.617 12.8482 18.1833 12.8482 17.9158 13.1157L16.5658 14.4657C15.8583 15.1732 15.8583 16.3269 16.5658 17.0344L17.9158 18.3844C18.1833 18.6519 18.617 18.6519 18.8845 18.3844C19.152 18.1169 19.152 17.6832 18.8845 17.4157L17.5345 16.0657C17.362 15.8932 17.362 15.6069 17.5345 15.4344L18.8845 14.0844ZM21.3345 19.8657C21.067 19.5982 20.6333 19.5982 20.3658 19.8657C20.0983 20.1332 20.0983 20.5669 20.3658 20.8344L21.7158 22.1844C22.4233 22.8919 23.577 22.8919 24.2845 22.1844L25.6345 20.8344C25.902 20.5669 25.902 20.1332 25.6345 19.8657C25.367 19.5982 24.9333 19.5982 24.6658 19.8657L23.3158 21.2157C23.1433 21.3882 22.857 21.3882 22.6845 21.2157L21.3345 19.8657ZM28.0845 13.1157C27.817 12.8482 27.3833 12.8482 27.1158 13.1157C26.8483 13.3832 26.8483 13.8169 27.1158 14.0844L28.4658 15.4344C28.6383 15.6069 28.6383 15.8932 28.4658 16.0657L27.1158 17.4157C26.8483 17.6832 26.8483 18.1169 27.1158 18.3844C27.3833 18.6519 27.817 18.6519 28.0845 18.3844L29.4345 17.0344C30.142 16.3269 30.142 15.1732 29.4345 14.4657L28.0845 13.1157Z" fill="black"/>
<path d="M19.1006 35.8671C17.6943 35.8671 16.7568 35.2812 16.4834 34.4804C16.4395 34.3632 16.415 34.2363 16.415 34.1191C16.415 33.7675 16.6396 33.5429 16.9716 33.5429C17.2499 33.5429 17.4257 33.6552 17.5624 33.9384C17.7821 34.5488 18.3876 34.8222 19.1396 34.8222C19.9892 34.8222 20.5849 34.4023 20.5849 33.8163C20.5849 33.3085 20.2333 32.996 19.3154 32.8055L18.5586 32.6492C17.1475 32.3611 16.4883 31.697 16.4883 30.6668C16.4883 29.4266 17.5772 28.5867 19.1055 28.5867C20.3506 28.5867 21.3174 29.1433 21.6055 30.076C21.6348 30.1541 21.6494 30.2469 21.6494 30.3641C21.6494 30.6717 21.4297 30.8817 21.1025 30.8817C20.8095 30.8817 20.6289 30.7547 20.497 30.4813C20.2577 29.8856 19.7548 29.6317 19.0956 29.6317C18.3143 29.6317 17.7577 30.0028 17.7577 30.5936C17.7577 31.0721 18.1093 31.3797 18.9882 31.5653L19.745 31.7216C21.2294 32.0292 21.8544 32.6249 21.8544 33.6699C21.8544 35.0176 20.7948 35.8672 19.1005 35.8672L19.1006 35.8671Z" fill="black"/>
<path d="M30.8565 34.8362C30.0995 34.8362 29.5965 34.1769 29.5916 33.1611C29.5965 32.1551 30.0703 31.486 30.8565 31.486C31.6427 31.486 32.1311 32.1404 32.1311 33.1611C32.1311 34.1867 31.6135 34.8362 30.8565 34.8362ZM33.3764 33.161C33.3764 31.5054 32.5413 30.4848 31.2275 30.4848C30.7415 30.4848 29.9714 30.7288 29.6705 30.8308C29.603 30.8537 29.5283 30.824 29.4966 30.76C29.4886 30.7437 29.4803 30.7275 29.4699 30.7127C29.3506 30.5422 29.1749 30.4702 28.9762 30.4702C28.6294 30.4702 28.3853 30.6948 28.3853 31.0953V36.951C28.3853 37.3613 28.6343 37.5908 28.9909 37.5908C29.3475 37.5908 29.6014 37.3613 29.6014 36.951V35.5928C29.6014 35.4901 29.7073 35.4212 29.8009 35.4634C30.1628 35.6263 30.7655 35.8325 31.2472 35.8325C32.5462 35.8325 33.3765 34.8118 33.3765 33.1611L33.3764 33.161Z" fill="black"/>
<path d="M37.7115 32.5478H35.6223C35.5317 32.5478 35.4649 32.464 35.4839 32.3754C35.6205 31.7367 36.0921 31.4091 36.6865 31.4091C37.2809 31.4091 37.735 31.7239 37.8512 32.3822C37.8665 32.4687 37.7994 32.5478 37.7115 32.5478ZM36.6817 30.4666C35.1875 30.4666 34.2354 31.531 34.2354 33.1815C34.2354 34.832 35.168 35.8524 36.7501 35.8524C37.5503 35.8524 38.1363 35.6746 38.636 35.1196C38.8597 34.8712 38.7998 34.5005 38.5037 34.342C38.2543 34.2084 37.9706 34.3365 37.8313 34.4659C37.3886 34.8773 37.0638 34.9149 36.7404 34.9149C35.9942 34.9149 35.5042 34.4302 35.4512 33.6067C35.4459 33.5246 35.5103 33.4549 35.5926 33.4549H38.5468C38.828 33.4549 39.0574 33.2301 39.0638 32.949C39.0965 31.5061 38.1213 30.4666 36.6817 30.4666Z" fill="black"/>
<path d="M39.9131 35.2076V31.0854C39.9131 30.7044 40.1475 30.47 40.4943 30.47C40.7279 30.47 40.9145 30.5826 41.0071 30.7785C41.009 30.7825 41.0154 30.7986 41.0239 30.8204C41.058 30.9079 41.1663 30.9389 41.2412 30.8822C41.4436 30.7291 41.8259 30.4847 42.2038 30.4847C42.3943 30.4847 42.5408 30.5335 42.6336 30.6166C42.7459 30.7094 42.8045 30.8559 42.8045 31.0562C42.8045 31.2565 42.7459 31.3883 42.6238 31.486C42.5066 31.5886 42.3259 31.6423 42.0865 31.6472C41.3929 31.6521 41.1292 32.0868 41.1292 32.7168V35.2077C41.1292 35.6082 40.885 35.8475 40.5187 35.8475C40.1524 35.8475 39.9131 35.6081 39.9131 35.2076Z" fill="black"/>
<path d="M22.7036 33.9182V31.1098C22.7036 30.7044 22.9527 30.47 23.3092 30.47C23.6657 30.47 23.9197 30.7044 23.9197 31.1147V33.674C23.9197 34.4164 24.2811 34.8169 24.9649 34.8169C25.6487 34.8169 26.1029 34.3187 26.1029 33.5666V31.1098C26.1029 30.7044 26.3569 30.47 26.7134 30.47C27.0699 30.47 27.319 30.7044 27.319 31.1147V35.2321C27.319 35.6228 27.0846 35.8475 26.7378 35.8475C26.503 35.8475 26.3183 35.7473 26.2214 35.5644C26.2155 35.5532 26.2099 35.5423 26.2046 35.5318C26.1702 35.4635 26.0879 35.4347 26.0185 35.4669C25.7576 35.5882 25.1388 35.8425 24.5399 35.8425C23.4167 35.8426 22.7036 35.1148 22.7036 33.9182Z" fill="black"/>
</svg>
