<svg width="54" height="54" viewBox="0 0 54 54" fill="none" xmlns="http://www.w3.org/2000/svg">
<rect x="1.8501" y="1.84998" width="50.3" height="50.3" rx="3" stroke="#16215B" stroke-width="0.28"/>
<path d="M9.91309 37.0476C9.83508 27.0607 9.73608 17.0726 9.61914 7.0846L9.6192 7.08216C9.62323 6.91614 9.63623 6.75013 9.65631 6.58399C9.67633 6.41895 9.70233 6.25501 9.73553 6.09156C9.76752 5.92957 9.80652 5.76856 9.85266 5.60975C9.89966 5.45179 9.95166 5.29578 10.0115 5.14161C10.1985 4.66761 10.4535 4.21668 10.77 3.81434C11.083 3.41736 11.456 3.06837 11.8725 2.78394C12.2875 2.50196 12.7465 2.28394 13.2258 2.13697C13.7078 1.98987 14.2118 1.91395 14.7141 1.90662C18.8081 1.87171 22.9021 1.85462 26.9963 1.85499C31.0893 1.85499 35.1833 1.87195 39.2776 1.90723C39.4396 1.91016 39.6016 1.92115 39.7635 1.93775C40.0035 1.96375 40.2435 2.00477 40.4799 2.06153C40.7139 2.11854 40.9449 2.19044 41.1697 2.27955C41.4037 2.37256 41.6287 2.48353 41.8449 2.61072C42.062 2.73865 42.2689 2.8827 42.4627 3.04163C42.6577 3.20167 42.8417 3.37671 43.0105 3.56324C43.1795 3.7522 43.3355 3.95423 43.476 4.16578C43.757 4.59485 43.975 5.06483 44.125 5.55652C44.276 6.05445 44.358 6.57447 44.373 7.09266C44.252 17.0696 44.154 27.0466 44.08 37.0252C44.074 37.1851 44.0601 37.3451 44.039 37.5037C44.018 37.6647 43.991 37.8236 43.9569 37.9813C43.9239 38.1403 43.8839 38.2983 43.8358 38.4537C43.7888 38.6097 43.7349 38.7637 43.675 38.9157C43.484 39.3908 43.228 39.8407 42.9172 40.2495C42.6032 40.6605 42.2352 41.0286 41.8244 41.3395C41.4154 41.6495 40.9624 41.9036 40.4838 42.0906C40.0098 42.2755 39.5098 42.3955 39.0063 42.4435C31.0073 42.9535 22.9843 42.9535 14.9849 42.4436C14.6529 42.4116 14.3229 42.3477 14.0024 42.2535C13.6794 42.1596 13.3654 42.0346 13.0632 41.882C12.4602 41.575 11.9092 41.1569 11.4476 40.6577C10.9866 40.1607 10.6126 39.5817 10.349 38.9596C10.219 38.6516 10.115 38.3325 10.0411 38.0056C9.96912 37.6836 9.92407 37.3546 9.91113 37.0245" stroke="#16215B" stroke-width="0.283" stroke-miterlimit="10"/>
<rect x="12.6855" y="5.52832" width="28.63" height="34.31" rx="1.43" stroke="#00FFFF" stroke-width="0.28"/>
<path d="M42.9399 36.5841C42.9578 31.7322 42.9778 26.8792 43.0009 22.0272C43.0219 17.1742 43.0469 12.3221 43.0759 7.46912C43.0767 7.32446 43.0717 7.18042 43.0596 7.03748C43.0497 6.89441 43.0317 6.75146 43.0076 6.61047C42.9606 6.32837 42.8887 6.05444 42.7897 5.78943C42.7646 5.72339 42.7386 5.65747 42.7106 5.59241C42.6816 5.52637 42.6526 5.46143 42.6216 5.39844C42.5587 5.27039 42.4907 5.14746 42.4156 5.02844C42.2667 4.79041 42.0936 4.57043 41.8937 4.36646C41.6957 4.16345 41.4777 3.98645 41.2437 3.83337C41.1266 3.75745 41.0057 3.6864 40.8796 3.62244C40.8167 3.59045 40.7537 3.55945 40.6877 3.5304C40.6237 3.50037 40.5566 3.47339 40.4907 3.44739C40.2236 3.34338 39.9507 3.26843 39.6716 3.21741C39.3926 3.16638 39.1077 3.14038 38.8167 3.13745C37.8378 3.12988 36.8568 3.12183 35.8738 3.11584C34.8898 3.10889 33.9058 3.10388 32.9208 3.09888C30.9498 3.09082 28.9758 3.08691 26.9988 3.08691C26.5038 3.08691 26.0098 3.08691 25.5148 3.08691C25.0208 3.08789 24.5258 3.08887 24.0308 3.08984C23.0418 3.09192 22.0538 3.09485 21.0688 3.09888C19.0968 3.10791 17.1328 3.12085 15.1758 3.13782C15.0301 3.13892 14.8861 3.14685 14.7411 3.15991C14.5981 3.17383 14.4541 3.19287 14.3131 3.21887C14.0301 3.27087 13.7561 3.3479 13.4911 3.4519C13.4251 3.47791 13.3601 3.50488 13.2951 3.53491C13.2301 3.56384 13.1651 3.59583 13.1021 3.62793C12.9751 3.69385 12.8541 3.76489 12.7361 3.8429C12.5011 3.99683 12.2841 4.1759 12.0861 4.37988C12.0371 4.42993 11.9891 4.48291 11.9431 4.53589C11.8971 4.58887 11.8521 4.64282 11.8091 4.69885C11.7231 4.80884 11.6431 4.92383 11.5691 5.04187C11.4951 5.16089 11.4281 5.28394 11.3651 5.40991C11.3351 5.4729 11.3061 5.53687 11.2781 5.60291C11.2501 5.66785 11.2241 5.73486 11.1991 5.80188C11.1011 6.06787 11.0301 6.34082 10.9841 6.6189C10.9381 6.89685 10.9151 7.18091 10.9171 7.46985C10.9454 12.3224 10.9714 17.1744 10.9935 22.0275C11.0165 26.8794 11.0355 31.7324 11.0535 36.5845C11.0541 36.8712 11.0781 37.1552 11.1281 37.4392C11.1411 37.5101 11.1552 37.5812 11.1701 37.6511C11.1862 37.7212 11.2021 37.7911 11.2211 37.8601C11.2581 37.9991 11.3011 38.1351 11.3502 38.2701C11.3991 38.4052 11.4531 38.5382 11.5151 38.6682C11.5461 38.7332 11.5771 38.7982 11.6121 38.8622C11.6461 38.9261 11.6812 38.9901 11.7181 39.0532C11.8651 39.3032 12.0331 39.5361 12.2241 39.7532C12.3192 39.8612 12.4201 39.9652 12.5272 40.0652C12.5791 40.1151 12.6342 40.1632 12.6901 40.2102C12.7451 40.2572 12.8011 40.3021 12.8591 40.3462C13.0881 40.5211 13.3322 40.6721 13.5921 40.7982C13.6571 40.8302 13.7231 40.8601 13.7902 40.8882C13.8571 40.9171 13.9241 40.9431 13.9921 40.9681C14.1281 41.0182 14.2651 41.0612 14.4041 41.0972C14.6801 41.1692 14.9631 41.2131 15.2512 41.2312C16.2243 41.2916 17.1993 41.3446 18.1773 41.3896C19.1533 41.4357 20.1323 41.4727 21.1113 41.5027C23.0683 41.5636 25.0293 41.5936 26.9943 41.5936C27.4853 41.5936 27.9773 41.5917 28.4683 41.5876C28.9593 41.5846 29.4513 41.5786 29.9423 41.5707C30.9253 41.5557 31.9063 41.5336 32.8863 41.5027C34.8443 41.4426 36.7963 41.3527 38.7416 41.2316C38.8866 41.2227 39.0296 41.2067 39.1726 41.1846C39.2436 41.1726 39.3146 41.1597 39.3866 41.1447C39.4566 41.1296 39.5276 41.1136 39.5966 41.0946C39.8766 41.0226 40.1456 40.9226 40.4046 40.7957C40.4706 40.7646 40.5336 40.7316 40.5966 40.6967C40.6606 40.6616 40.7236 40.6246 40.7856 40.5856C40.9096 40.5096 41.0286 40.4266 41.1426 40.3386C41.3726 40.1636 41.5826 39.9667 41.7736 39.7487C41.8216 39.6936 41.8676 39.6376 41.9136 39.5807C41.9586 39.5237 42.0026 39.4656 42.0446 39.4066C42.1296 39.2897 42.2076 39.1686 42.2796 39.0447C42.4256 38.7966 42.5466 38.5376 42.6446 38.2656C42.6696 38.1976 42.6926 38.1287 42.7146 38.0596C42.7356 37.9906 42.7556 37.9216 42.7736 37.8527C42.8106 37.7136 42.8416 37.5746 42.8656 37.4346C42.9146 37.1537 42.9386 36.8706 42.9399 36.5841Z" stroke="#FF00FF" stroke-width="0.283465" stroke-miterlimit="10" stroke-linecap="round" stroke-linejoin="round"/>
<path d="M16.4908 25.8704C15.0845 25.8704 14.147 25.2845 13.8736 24.4837C13.8297 24.3665 13.8052 24.2396 13.8052 24.1224C13.8052 23.7708 14.0298 23.5462 14.3618 23.5462C14.6401 23.5462 14.8159 23.6585 14.9526 23.9417C15.1723 24.5521 15.7778 24.8255 16.5298 24.8255C17.3794 24.8255 17.9751 24.4056 17.9751 23.8196C17.9751 23.3118 17.6235 22.9993 16.7056 22.8088L15.9488 22.6525C14.5377 22.3644 13.8785 21.7003 13.8785 20.6701C13.8785 19.4299 14.9674 18.59 16.4957 18.59C17.7408 18.59 18.7076 19.1466 18.9957 20.0793C19.025 20.1574 19.0396 20.2502 19.0396 20.3674C19.0396 20.675 18.8199 20.885 18.4927 20.885C18.1997 20.885 18.0191 20.758 17.8872 20.4846C17.6479 19.8889 17.145 19.635 16.4858 19.635C15.7045 19.635 15.1479 20.0061 15.1479 20.5969C15.1479 21.0754 15.4995 21.383 16.3784 21.5686L17.1352 21.7249C18.6196 22.0325 19.2446 22.6282 19.2446 23.6732C19.2446 25.0209 18.185 25.8705 16.4907 25.8705L16.4908 25.8704Z" fill="black"/>
<path d="M28.2466 24.8395C27.4896 24.8395 26.9866 24.1802 26.9817 23.1644C26.9866 22.1584 27.4604 21.4893 28.2466 21.4893C29.0328 21.4893 29.5212 22.1437 29.5212 23.1644C29.5212 24.19 29.0036 24.8395 28.2466 24.8395ZM30.7665 23.1643C30.7665 21.5087 29.9314 20.4881 28.6176 20.4881C28.1316 20.4881 27.3615 20.7321 27.0606 20.8341C26.9931 20.857 26.9184 20.8273 26.8867 20.7633C26.8787 20.747 26.8704 20.7308 26.86 20.716C26.7407 20.5455 26.565 20.4735 26.3663 20.4735C26.0195 20.4735 25.7754 20.6981 25.7754 21.0986V26.9543C25.7754 27.3646 26.0244 27.5941 26.381 27.5941C26.7376 27.5941 26.9915 27.3646 26.9915 26.9543V25.5961C26.9915 25.4934 27.0974 25.4245 27.191 25.4667C27.5529 25.6296 28.1556 25.8358 28.6373 25.8358C29.9363 25.8358 30.7666 24.8151 30.7666 23.1644L30.7665 23.1643Z" fill="black"/>
<path d="M35.1011 22.5511H33.0119C32.9213 22.5511 32.8545 22.4673 32.8735 22.3787C33.0101 21.74 33.4817 21.4124 34.0761 21.4124C34.6705 21.4124 35.1246 21.7272 35.2408 22.3855C35.2561 22.472 35.189 22.5511 35.1011 22.5511ZM34.0713 20.4699C32.5771 20.4699 31.625 21.5343 31.625 23.1848C31.625 24.8353 32.5576 25.8557 34.1397 25.8557C34.9399 25.8557 35.5259 25.6779 36.0256 25.1229C36.2493 24.8745 36.1894 24.5038 35.8933 24.3453C35.6439 24.2117 35.3602 24.3398 35.2209 24.4692C34.7782 24.8806 34.4534 24.9182 34.13 24.9182C33.3838 24.9182 32.8938 24.4335 32.8408 23.61C32.8355 23.5279 32.8999 23.4582 32.9822 23.4582H35.9364C36.2176 23.4582 36.447 23.2334 36.4534 22.9523C36.4861 21.5094 35.5109 20.4699 34.0713 20.4699Z" fill="black"/>
<path d="M37.3037 25.2109V21.0887C37.3037 20.7077 37.5381 20.4733 37.8849 20.4733C38.1185 20.4733 38.3051 20.5859 38.3977 20.7818C38.3996 20.7858 38.406 20.8019 38.4145 20.8237C38.4486 20.9112 38.5569 20.9422 38.6318 20.8855C38.8342 20.7324 39.2165 20.488 39.5944 20.488C39.7849 20.488 39.9314 20.5368 40.0242 20.6199C40.1365 20.7127 40.1951 20.8592 40.1951 21.0595C40.1951 21.2598 40.1365 21.3916 40.0144 21.4893C39.8972 21.5919 39.7165 21.6456 39.4771 21.6505C38.7835 21.6554 38.5198 22.0901 38.5198 22.7201V25.211C38.5198 25.6115 38.2756 25.8508 37.9093 25.8508C37.543 25.8508 37.3037 25.6114 37.3037 25.2109Z" fill="black"/>
<path d="M20.0938 23.9215V21.1131C20.0938 20.7077 20.3429 20.4733 20.6994 20.4733C21.0559 20.4733 21.3099 20.7077 21.3099 21.118V23.6773C21.3099 24.4197 21.6713 24.8202 22.3551 24.8202C23.0389 24.8202 23.4931 24.322 23.4931 23.5699V21.1131C23.4931 20.7077 23.7471 20.4733 24.1036 20.4733C24.4601 20.4733 24.7092 20.7077 24.7092 21.118V25.2354C24.7092 25.6261 24.4748 25.8508 24.128 25.8508C23.8932 25.8508 23.7085 25.7506 23.6116 25.5677C23.6057 25.5565 23.6001 25.5456 23.5948 25.5351C23.5604 25.4668 23.4781 25.438 23.4087 25.4702C23.1478 25.5915 22.529 25.8458 21.9301 25.8458C20.8069 25.8459 20.0938 25.1181 20.0938 23.9215Z" fill="black"/>
</svg>
