<svg width="82" height="54" viewBox="0 0 82 54" fill="none" xmlns="http://www.w3.org/2000/svg">
<rect x="2.3501" y="1.84998" width="77.3" height="50.3" rx="3" stroke="#16215B" stroke-width="0.28"/>
<path d="M71.0068 37.0027C71.0848 27.0807 71.1919 17.1587 71.3298 7.23665C71.3199 6.87965 71.2788 6.52266 71.2035 6.17201C71.1305 5.82301 71.0245 5.48201 70.8847 5.15382C70.7467 4.82881 70.5757 4.51686 70.376 4.22511C70.176 3.93513 69.948 3.66512 69.6949 3.42079C69.4419 3.17781 69.1649 2.96077 68.8693 2.77412C68.5733 2.58711 68.2583 2.42915 67.9325 2.30342C67.6065 2.17744 67.2675 2.0815 66.9237 2.01741C66.5777 1.95345 66.2278 1.91939 65.8745 1.91585C48.9605 1.82491 32.0455 1.82491 15.1317 1.91548C14.7937 1.92159 14.4567 1.95454 14.1241 2.01485C13.7921 2.07381 13.4641 2.15974 13.1495 2.27437C12.9005 2.36739 12.6575 2.47835 12.4246 2.60493C12.1925 2.73299 11.9685 2.87801 11.7568 3.03865C11.5458 3.20058 11.3468 3.37856 11.163 3.57112C10.9779 3.76515 10.8099 3.97414 10.6587 4.19398C10.5067 4.41493 10.3716 4.64796 10.2538 4.88844C10.1358 5.13149 10.0358 5.38149 9.95245 5.63869C9.78644 6.15468 9.69144 6.69667 9.67773 7.23622C9.81174 17.1582 9.91876 27.0802 10.0002 37.0013C10.0251 37.6633 10.1751 38.3273 10.44 38.9409C10.709 39.5659 11.095 40.1389 11.571 40.6231C12.05 41.1111 12.618 41.5101 13.2408 41.796C13.8578 42.0809 14.5288 42.254 15.2026 42.3051C23.6317 42.6481 32.0667 42.8191 40.5034 42.819C48.9394 42.819 57.3744 42.648 65.8044 42.3047C66.4783 42.2537 67.1483 42.0807 67.7662 41.7968C68.3882 41.5098 68.9572 41.1109 69.4361 40.6232C69.9111 40.1383 70.2971 39.5662 70.5675 38.9408C70.8305 38.3278 70.9825 37.6638 71.0066 37.0007" stroke="#16215B" stroke-width="0.283" stroke-miterlimit="10"/>
<path d="M11.2583 38.7131V6.44019C11.2583 5.26575 12.2093 4.31372 13.3843 4.31372H16.9273H64.1312H67.6743C68.8483 4.31372 69.8003 5.26575 69.8003 6.4397V38.7127C69.8003 39.8871 68.8483 40.8391 67.6743 40.8391L13.3843 40.8392C12.2093 40.8392 11.2583 39.8871 11.2583 38.7131Z" stroke="#00FFFF" stroke-width="0.28" stroke-miterlimit="10"/>
<path d="M65.6805 41.1327C48.9365 41.8178 32.0695 41.8178 15.3265 41.1327C15.0304 41.12 14.7384 41.083 14.4494 41.018C14.3044 40.986 14.1624 40.947 14.0224 40.902C13.8833 40.856 13.7453 40.805 13.6104 40.746C13.4754 40.688 13.3443 40.623 13.2154 40.552C13.1503 40.516 13.0864 40.478 13.0224 40.439C12.9603 40.4 12.8984 40.36 12.8384 40.318C12.5964 40.15 12.3724 39.961 12.1694 39.749C12.1184 39.696 12.0683 39.642 12.0194 39.586C11.9714 39.531 11.9244 39.473 11.8783 39.415C11.7874 39.3 11.7024 39.18 11.6243 39.057C11.4684 38.811 11.3374 38.552 11.2304 38.28C11.2044 38.211 11.1794 38.142 11.1564 38.073C11.1333 38.003 11.1113 37.933 11.0914 37.863C11.0524 37.723 11.0184 37.582 10.9924 37.44C10.9393 37.156 10.9133 36.869 10.9124 36.577C10.8963 31.7904 10.8783 27.0025 10.8583 22.2155C10.8382 17.4284 10.8153 12.6414 10.7903 7.85341C10.7815 7.69783 10.7755 7.54182 10.7765 7.38686C10.7775 7.23085 10.7865 7.07686 10.8035 6.92287C10.8105 6.84584 10.8215 6.76881 10.8335 6.69185C10.8455 6.61482 10.8595 6.53883 10.8755 6.46187C10.9075 6.31087 10.9475 6.16182 10.9955 6.01485C11.0425 5.86885 11.0975 5.72585 11.1625 5.58485C11.1935 5.51485 11.2275 5.44582 11.2635 5.37685C11.3005 5.30885 11.3385 5.24086 11.3785 5.17384C11.5375 4.90883 11.7245 4.66682 11.9395 4.44685C11.9935 4.39186 12.0495 4.33784 12.1065 4.28682C12.1355 4.25984 12.1645 4.23482 12.1935 4.20882C12.2235 4.18385 12.2535 4.15883 12.2835 4.13387C12.4045 4.03682 12.5305 3.94582 12.6605 3.86287C12.9205 3.69685 13.1985 3.55983 13.4925 3.44887C13.7865 3.33882 14.0875 3.25984 14.3925 3.20686C14.6985 3.15382 15.0105 3.12685 15.3255 3.12581C32.07 3.03383 48.937 3.03383 65.68 3.12581C65.9961 3.12691 66.3081 3.15388 66.6131 3.20686C66.9191 3.2599 67.2201 3.33888 67.5141 3.44887C67.8081 3.55989 68.0851 3.69691 68.3461 3.86287C68.4761 3.94588 68.6011 4.0359 68.7221 4.13387C68.7521 4.15889 68.7821 4.18391 68.8121 4.20888C68.8411 4.2339 68.8701 4.2599 68.9001 4.2859C68.9561 4.33791 69.0121 4.39186 69.0661 4.44691C69.2801 4.66591 69.4681 4.90889 69.6281 5.1739C69.6681 5.23988 69.7061 5.30788 69.7421 5.37691C69.7791 5.4449 69.8121 5.51491 69.8441 5.58492C69.9071 5.72487 69.9631 5.86891 70.0111 6.01491C70.0591 6.1609 70.0991 6.30989 70.1301 6.46187C70.1471 6.53792 70.1601 6.61488 70.1731 6.69087C70.1851 6.7679 70.1951 6.84486 70.2031 6.92189C70.2201 7.07588 70.2281 7.23091 70.2301 7.38588C70.2311 7.54091 70.2251 7.69691 70.2161 7.85286C70.191 12.64 70.168 17.428 70.148 22.215C70.127 27.002 70.11 31.79 70.094 36.5767C70.093 36.8687 70.066 37.1587 70.013 37.4458C69.986 37.5907 69.952 37.7327 69.912 37.8717C69.872 38.0117 69.826 38.1497 69.773 38.2847C69.72 38.4198 69.66 38.5527 69.594 38.6837C69.561 38.7497 69.526 38.8147 69.49 38.8787C69.452 38.9428 69.414 39.0058 69.375 39.0667C69.217 39.3137 69.036 39.5427 68.832 39.7547C68.782 39.8067 68.729 39.8587 68.675 39.9087C68.621 39.9597 68.566 40.0087 68.509 40.0567C68.396 40.1527 68.28 40.2417 68.159 40.3237C67.917 40.4898 67.661 40.6317 67.39 40.7487C67.323 40.7777 67.253 40.8057 67.184 40.8317C67.115 40.8577 67.045 40.8817 66.975 40.9038C66.835 40.9497 66.694 40.9877 66.551 41.0197C66.266 41.0827 65.975 41.1207 65.6805 41.1327Z" stroke="#FF00FF" stroke-width="0.283465" stroke-miterlimit="10" stroke-linecap="round" stroke-linejoin="round"/>
<path d="M66.4144 44.9191V50.01H65.7979V45.5654H65.7681L64.5252 46.3907V45.7643L65.7979 44.9191H66.4144ZM68.0153 50.0498C67.8926 50.0498 67.7874 50.0059 67.6996 49.918C67.6117 49.8302 67.5678 49.725 67.5678 49.6023C67.5678 49.4797 67.6117 49.3745 67.6996 49.2866C67.7874 49.1988 67.8926 49.1549 68.0153 49.1549C68.1379 49.1549 68.2431 49.1988 68.331 49.2866C68.4188 49.3745 68.4627 49.4797 68.4627 49.6023C68.4627 49.6835 68.442 49.7581 68.4006 49.8261C68.3608 49.894 68.3069 49.9487 68.239 49.9901C68.1727 50.0299 68.0981 50.0498 68.0153 50.0498ZM70.9939 50.0796C70.7022 50.0796 70.4395 50.0216 70.2059 49.9056C69.9722 49.7896 69.7849 49.6305 69.6441 49.4283C69.5032 49.2262 69.4262 48.9958 69.4129 48.7373H70.0095C70.0327 48.9676 70.1371 49.1582 70.3227 49.309C70.51 49.4582 70.7337 49.5327 70.9939 49.5327C71.2027 49.5327 71.3883 49.4838 71.5507 49.3861C71.7148 49.2883 71.8432 49.1541 71.936 48.9834C72.0305 48.811 72.0777 48.6163 72.0777 48.3992C72.0777 48.1771 72.0288 47.9791 71.931 47.8051C71.8349 47.6294 71.7023 47.4911 71.5333 47.39C71.3643 47.2889 71.1712 47.2375 70.9541 47.2359C70.7983 47.2342 70.6384 47.2582 70.4743 47.308C70.3103 47.356 70.1752 47.4182 70.0692 47.4944L69.4925 47.4248L69.8007 44.9191H72.4456V45.466H70.3177L70.1388 46.9674H70.1686C70.273 46.8845 70.4039 46.8158 70.5613 46.7611C70.7188 46.7064 70.8828 46.679 71.0535 46.679C71.3651 46.679 71.6427 46.7536 71.8863 46.9028C72.1315 47.0503 72.3238 47.2524 72.463 47.5093C72.6038 47.7662 72.6743 48.0595 72.6743 48.3893C72.6743 48.7141 72.6014 49.0041 72.4555 49.2593C72.3113 49.5129 72.1125 49.7134 71.8589 49.8609C71.6054 50.0067 71.317 50.0796 70.9939 50.0796ZM75.3223 50.0796C74.9477 50.0796 74.6287 49.9777 74.3652 49.7739C74.1017 49.5684 73.9004 49.2709 73.7612 48.8815C73.622 48.4904 73.5524 48.0181 73.5524 47.4646C73.5524 46.9144 73.622 46.4446 73.7612 46.0551C73.902 45.664 74.1042 45.3657 74.3677 45.1602C74.6329 44.9531 74.9511 44.8495 75.3223 44.8495C75.6935 44.8495 76.0108 44.9531 76.2743 45.1602C76.5395 45.3657 76.7417 45.664 76.8809 46.0551C77.0217 46.4446 77.0922 46.9144 77.0922 47.4646C77.0922 48.0181 77.0225 48.4904 76.8833 48.8815C76.7441 49.2709 76.5428 49.5684 76.2793 49.7739C76.0158 49.9777 75.6968 50.0796 75.3223 50.0796ZM75.3223 49.5327C75.6935 49.5327 75.9818 49.3538 76.1873 48.9958C76.3928 48.6379 76.4956 48.1274 76.4956 47.4646C76.4956 47.0237 76.4483 46.6484 76.3539 46.3385C76.2611 46.0286 76.1268 45.7924 75.9512 45.63C75.7772 45.4676 75.5675 45.3864 75.3223 45.3864C74.9544 45.3864 74.6668 45.5679 74.4597 45.9308C74.2525 46.2921 74.149 46.8033 74.149 47.4646C74.149 47.9054 74.1954 48.2799 74.2882 48.5881C74.381 48.8964 74.5144 49.1309 74.6884 49.2916C74.8641 49.4524 75.0753 49.5327 75.3223 49.5327Z" fill="#0000FF"/>
<path fill-rule="evenodd" clip-rule="evenodd" d="M27.3158 17.2844C27.1433 17.1119 26.857 17.1119 26.6845 17.2844L25.3345 18.6344C25.067 18.9019 24.6333 18.9019 24.3658 18.6344C24.0983 18.3669 24.0983 17.9332 24.3658 17.6657L25.7158 16.3157C26.4233 15.6082 27.577 15.6082 28.2845 16.3157L29.6345 17.6657C29.902 17.9332 29.902 18.3669 29.6345 18.6344C29.367 18.9019 28.9333 18.9019 28.6658 18.6344L27.3158 17.2844ZM22.8845 21.0844C23.152 20.8169 23.152 20.3832 22.8845 20.1157C22.617 19.8482 22.1833 19.8482 21.9158 20.1157L20.5658 21.4657C19.8583 22.1732 19.8583 23.3269 20.5658 24.0344L21.9158 25.3844C22.1833 25.6519 22.617 25.6519 22.8845 25.3844C23.152 25.1169 23.152 24.6832 22.8845 24.4157L21.5345 23.0657C21.362 22.8932 21.362 22.6069 21.5345 22.4344L22.8845 21.0844ZM25.3345 26.8657C25.067 26.5982 24.6333 26.5982 24.3658 26.8657C24.0983 27.1332 24.0983 27.5669 24.3658 27.8344L25.7158 29.1844C26.4233 29.8919 27.577 29.8919 28.2845 29.1844L29.6345 27.8344C29.902 27.5669 29.902 27.1332 29.6345 26.8657C29.367 26.5982 28.9333 26.5982 28.6658 26.8657L27.3158 28.2157C27.1433 28.3882 26.857 28.3882 26.6845 28.2157L25.3345 26.8657ZM32.0845 20.1157C31.817 19.8482 31.3833 19.8482 31.1158 20.1157C30.8483 20.3832 30.8483 20.8169 31.1158 21.0844L32.4658 22.4344C32.6383 22.6069 32.6383 22.8932 32.4658 23.0657L31.1158 24.4157C30.8483 24.6832 30.8483 25.1169 31.1158 25.3844C31.3833 25.6519 31.817 25.6519 32.0845 25.3844L33.4345 24.0344C34.142 23.3269 34.142 22.1732 33.4345 21.4657L32.0845 20.1157Z" fill="black"/>
</svg>
