<svg width="68" height="54" viewBox="0 0 68 54" fill="none" xmlns="http://www.w3.org/2000/svg">
<path d="M10.2042 37.0347C10.1252 27.0965 10.0222 17.1597 9.89746 7.22118C9.91747 6.5172 10.0715 5.80821 10.3435 5.15538C10.4795 4.83141 10.6445 4.52049 10.8396 4.22826C11.0316 3.93822 11.2546 3.66722 11.5041 3.42369C11.7511 3.18077 12.0251 2.96471 12.3169 2.77855C12.6079 2.59251 12.9179 2.43651 13.2402 2.30956C13.8842 2.05553 14.5822 1.92052 15.2713 1.91148C27.5883 1.8325 39.9073 1.8325 52.2242 1.91185C52.3903 1.9149 52.5573 1.92381 52.7235 1.94054C52.9716 1.96544 53.2176 2.0045 53.4604 2.05943C53.7035 2.11436 53.9435 2.18541 54.1755 2.27098C54.6665 2.45604 55.1345 2.71495 55.5504 3.03844C55.9694 3.36339 56.3354 3.7534 56.6357 4.18932C56.9377 4.62938 57.1727 5.11742 57.3333 5.62755C57.4952 6.14366 57.5822 6.6826 57.5987 7.22203C57.4707 17.159 57.3677 27.097 57.2917 37.0349C57.2817 37.366 57.2338 37.6959 57.1611 38.02C57.0861 38.347 56.9861 38.668 56.8557 38.9765C56.7247 39.2886 56.5627 39.5885 56.3759 39.8708C56.187 40.1549 55.973 40.4228 55.7365 40.6683C55.4995 40.9143 55.2386 41.1383 54.9608 41.3364C54.6818 41.5344 54.3878 41.7074 54.0767 41.8533C53.4657 42.1412 52.7977 42.3253 52.1257 42.3811C46.0037 42.6771 39.8767 42.8241 33.7478 42.8243C27.6188 42.8243 21.4918 42.6763 15.3697 42.3808C14.6977 42.3258 14.0297 42.1478 13.4165 41.8579C12.7975 41.5659 12.2325 41.1609 11.7583 40.668C11.2863 40.1789 10.9053 39.603 10.6398 38.9756C10.3778 38.3606 10.2278 37.6966 10.2028 37.0336" stroke="#16215B" stroke-width="0.283" stroke-miterlimit="10"/>
<path d="M13.3384 4.39258C12.5554 4.39258 11.9204 5.02661 11.9204 5.8092V38.9751C11.9204 39.7582 12.5554 40.3922 13.3387 40.3926H54.1567C54.9397 40.3926 55.5737 39.7577 55.5737 38.9756V5.80957C55.5737 5.02661 54.9398 4.39258 54.1568 4.39258" stroke="#00FFFF" stroke-width="0.28" stroke-miterlimit="10"/>
<path d="M11.0405 7.43835V7.31738C11.0415 7.27844 11.0424 7.2384 11.0435 7.19836L11.0495 7.08044C11.0525 7.04041 11.0555 7.00146 11.0594 6.9624C11.0635 6.92346 11.0675 6.8844 11.0715 6.84546L11.0854 6.73035C11.0915 6.69141 11.0975 6.65344 11.1045 6.61536C11.1105 6.57739 11.1174 6.53943 11.1245 6.50146L11.1475 6.3894C11.1564 6.35242 11.1655 6.31445 11.1734 6.27747C11.1824 6.24036 11.1925 6.20337 11.2035 6.16736C11.2124 6.13037 11.2234 6.09338 11.2345 6.05737C11.2465 6.02136 11.2565 5.98438 11.2695 5.94836C11.2814 5.91235 11.2935 5.87646 11.3065 5.84045C11.3195 5.80542 11.3335 5.76941 11.3465 5.7334C11.3735 5.66736 11.4015 5.60046 11.4315 5.53442C11.4604 5.46838 11.4924 5.40442 11.5255 5.34045C11.5585 5.27637 11.5935 5.21338 11.6295 5.15247C11.6665 5.09045 11.7055 5.02942 11.7445 4.96936C11.8244 4.84937 11.9115 4.7334 12.0034 4.62244C12.0955 4.51245 12.1925 4.40735 12.2955 4.30945C12.3985 4.20935 12.5065 4.11743 12.6205 4.02942C12.7355 3.94141 12.8555 3.8584 12.9785 3.78235C13.0405 3.74438 13.1024 3.70837 13.1665 3.67346C13.2295 3.63843 13.2935 3.60535 13.3585 3.57446C13.4234 3.54236 13.4895 3.51245 13.5555 3.48438C13.6235 3.45642 13.6905 3.42944 13.7585 3.40442C13.7775 3.39746 13.7944 3.39136 13.8135 3.3844L13.8695 3.36536C13.8875 3.35938 13.9064 3.35339 13.9255 3.34741L13.9815 3.32947C14.0005 3.32336 14.0195 3.31738 14.0385 3.31238C14.0565 3.3064 14.0764 3.30139 14.0945 3.29541C14.1145 3.29041 14.1325 3.2854 14.1525 3.27942C14.1705 3.27441 14.1905 3.27039 14.2085 3.26538C14.2285 3.2594 14.2485 3.25537 14.2664 3.25037C14.2865 3.24536 14.3055 3.24146 14.3255 3.23645C14.3435 3.23242 14.3634 3.22839 14.3825 3.22339C14.4025 3.21936 14.4214 3.21545 14.4415 3.21143L14.5005 3.19946C14.5195 3.19543 14.5405 3.19238 14.5594 3.18835L14.6185 3.17847C14.6385 3.17444 14.6584 3.17139 14.6785 3.16846C14.6985 3.16541 14.7175 3.16235 14.7384 3.15942C14.7575 3.15637 14.7785 3.15442 14.7984 3.15137C14.8185 3.14844 14.8385 3.14636 14.8585 3.14441C14.8784 3.14136 14.8995 3.1394 14.9194 3.13745C14.9395 3.1344 14.9595 3.13245 14.9805 3.13037C15.0005 3.12842 15.0215 3.12646 15.0424 3.12537C15.0625 3.12341 15.0835 3.12244 15.1035 3.12036C15.1245 3.11841 15.1445 3.11743 15.1655 3.11646C15.1864 3.11438 15.2075 3.1134 15.2274 3.11243C15.2485 3.11145 15.2695 3.11035 15.2905 3.10938C15.3105 3.1084 15.3325 3.1084 15.3524 3.10742C15.3745 3.10645 15.3945 3.10645 15.4165 3.10645C15.4364 3.10535 15.4585 3.10535 15.4795 3.10535C15.5806 3.10535 15.6826 3.10437 15.7856 3.10339C15.8866 3.10339 15.9886 3.10242 16.0905 3.10144C16.1926 3.10046 16.2935 3.10046 16.3965 3.09937C16.4975 3.09839 16.5995 3.09839 16.7025 3.09741C16.8035 3.09644 16.9066 3.09644 17.0076 3.09546C17.1095 3.09436 17.2115 3.09436 17.3136 3.09338C17.4155 3.09338 17.5175 3.09241 17.6205 3.09143C17.7216 3.09143 17.8246 3.09045 17.9256 3.08936C18.0285 3.08936 18.1295 3.08838 18.2325 3.08838C18.3336 3.0874 18.4366 3.08643 18.5376 3.08643C18.6405 3.08545 18.7426 3.08545 18.8445 3.08435C18.9465 3.08435 19.0486 3.08337 19.1505 3.08337C19.2525 3.0824 19.3555 3.0824 19.4565 3.08142C19.5596 3.08142 19.6615 3.08044 19.7635 3.08044C19.8665 3.07947 19.9675 3.07947 20.0706 3.07837C20.1725 3.07739 20.2746 3.07739 20.3766 3.07642C20.4785 3.07642 20.5806 3.07544 20.6835 3.07544C20.7856 3.07446 20.8875 3.07446 20.9906 3.07336C21.0916 3.07336 21.1945 3.07239 21.2966 3.07239C21.3996 3.07141 21.5005 3.07141 21.6035 3.07141C21.7056 3.07043 21.8076 3.07043 21.9106 3.06946C22.0125 3.06946 22.1156 3.06836 22.2166 3.06836L22.5246 3.06641C22.6266 3.06641 22.7285 3.06641 22.8306 3.06543C22.9335 3.06543 23.0365 3.06445 23.1375 3.06445C23.2406 3.06445 23.3425 3.06335 23.4456 3.06335C23.5475 3.06335 23.6505 3.06238 23.7516 3.06238L24.0596 3.0614C24.1626 3.0614 24.2645 3.06042 24.3665 3.06042C24.4686 3.05945 24.5715 3.05945 24.6735 3.05945C24.7765 3.05835 24.8786 3.05835 24.9816 3.05835C25.0825 3.05737 25.1855 3.05737 25.2876 3.05737C25.3905 3.0564 25.4935 3.0564 25.5955 3.0564C25.6985 3.05542 25.8006 3.05542 25.9035 3.05542C26.0055 3.05542 26.1085 3.05444 26.2095 3.05444C26.3125 3.05444 26.4145 3.05347 26.5175 3.05347C26.6205 3.05347 26.7225 3.05347 26.8255 3.05237C26.9275 3.05237 27.0305 3.05237 27.1326 3.05237C27.2355 3.05139 27.3375 3.05139 27.4405 3.05139C27.5425 3.05139 27.6456 3.05042 27.7475 3.05042C27.8505 3.05042 27.9535 3.05042 28.0555 3.04944C28.1586 3.04944 28.2605 3.04944 28.3635 3.04944C28.4655 3.04944 28.5685 3.04846 28.6705 3.04846C28.7735 3.04846 28.8755 3.04846 28.9785 3.04846C29.0806 3.04736 29.1835 3.04736 29.2865 3.04736C29.3885 3.04736 29.4915 3.04736 29.5936 3.04736C29.6965 3.04639 29.7985 3.04639 29.9015 3.04639C30.0036 3.04639 30.1066 3.04639 30.2085 3.04639C30.3115 3.04639 30.4135 3.04541 30.5166 3.04541C30.6196 3.04541 30.7215 3.04541 30.8245 3.04541H31.1315C31.2345 3.04541 31.3365 3.04443 31.4395 3.04443H31.7465C31.8495 3.04443 31.9525 3.04443 32.0555 3.04443H32.3635H32.6705C32.7735 3.04346 32.8755 3.04346 32.9785 3.04346H33.2865H33.5936H33.9025H34.2095H34.5175C34.6205 3.04346 34.7225 3.04346 34.8255 3.04443H35.1326H35.4405C35.5425 3.04443 35.6456 3.04443 35.7475 3.04443H36.0565C36.1595 3.04443 36.2616 3.04541 36.3645 3.04541H36.6716C36.7746 3.04541 36.8765 3.04541 36.9795 3.04541C37.0815 3.04541 37.1846 3.04639 37.2876 3.04639C37.3895 3.04639 37.4925 3.04639 37.5945 3.04639C37.6976 3.04639 37.7995 3.04639 37.9025 3.04736C38.0045 3.04736 38.1075 3.04736 38.2095 3.04736C38.3125 3.04736 38.4145 3.04736 38.5175 3.04846C38.6205 3.04846 38.7225 3.04846 38.8255 3.04846C38.9275 3.04846 39.0305 3.04944 39.1326 3.04944C39.2355 3.04944 39.3375 3.04944 39.4405 3.04944C39.5425 3.05042 39.6456 3.05042 39.7475 3.05042C39.8505 3.05042 39.9535 3.05139 40.0555 3.05139C40.1586 3.05139 40.2605 3.05139 40.3635 3.05237C40.4655 3.05237 40.5685 3.05237 40.6705 3.05237C40.7735 3.05347 40.8755 3.05347 40.9785 3.05347C41.0806 3.05347 41.1825 3.05444 41.2855 3.05444C41.3875 3.05444 41.4906 3.05542 41.5925 3.05542C41.6955 3.05542 41.7975 3.05542 41.9005 3.0564C42.0025 3.0564 42.1055 3.0564 42.2075 3.05737C42.3096 3.05737 42.4126 3.05737 42.5145 3.05835C42.6175 3.05835 42.7195 3.05835 42.8226 3.05945C42.9245 3.05945 43.0275 3.05945 43.1286 3.06042C43.2316 3.06042 43.3335 3.0614 43.4365 3.0614L43.7446 3.06238C43.8455 3.06238 43.9485 3.06335 44.0506 3.06335C44.1535 3.06335 44.2555 3.06445 44.3575 3.06445L44.6645 3.06543C44.7675 3.06641 44.8696 3.06641 44.9715 3.06641C45.0745 3.06738 45.1765 3.06738 45.2785 3.06836L45.5855 3.06946C45.6875 3.07043 45.7895 3.07043 45.8925 3.07141C45.9955 3.07141 46.0965 3.07141 46.1995 3.07239C46.3015 3.07239 46.4035 3.07336 46.5055 3.07336C46.6085 3.07446 46.7095 3.07446 46.8125 3.07544C46.9145 3.07544 47.0166 3.07642 47.1196 3.07642C47.2215 3.07739 47.3235 3.07739 47.4256 3.07837C47.5285 3.07947 47.6295 3.07947 47.7325 3.08044C47.8335 3.08044 47.9365 3.08142 48.0385 3.08142C48.1405 3.0824 48.2435 3.0824 48.3445 3.08337C48.4476 3.08337 48.5495 3.08435 48.6515 3.08435C48.7536 3.08545 48.8555 3.08545 48.9575 3.08643C49.0596 3.08643 49.1626 3.0874 49.2635 3.08838C49.3665 3.08838 49.4675 3.08936 49.5705 3.08936C49.6716 3.09045 49.7746 3.09143 49.8755 3.09143C49.9785 3.09241 50.0795 3.09338 50.1825 3.09338C50.2845 3.09436 50.3855 3.09436 50.4885 3.09546C50.5896 3.09644 50.6926 3.09644 50.7935 3.09741C50.8956 3.09839 50.9975 3.09839 51.0995 3.09937C51.2025 3.10046 51.3035 3.10046 51.4055 3.10144C51.5076 3.10242 51.6095 3.10339 51.7105 3.10339C51.8136 3.10437 51.9145 3.10535 52.0166 3.10535C52.058 3.10547 52.099 3.10645 52.139 3.10742C52.18 3.1084 52.22 3.11047 52.26 3.11243C52.3 3.11438 52.34 3.11646 52.38 3.11938C52.42 3.12244 52.46 3.12537 52.499 3.12939C52.5379 3.13245 52.578 3.13745 52.617 3.14136C52.656 3.14636 52.695 3.15039 52.733 3.15637C52.772 3.16138 52.811 3.16736 52.85 3.17346C52.888 3.18042 52.9259 3.1864 52.964 3.19336C53.002 3.20044 53.04 3.20837 53.078 3.21643C53.115 3.22437 53.153 3.23242 53.19 3.24146C53.227 3.25037 53.265 3.2594 53.302 3.26941C53.339 3.27844 53.376 3.28845 53.412 3.29846C53.449 3.30945 53.485 3.32043 53.521 3.33142C53.558 3.34241 53.5939 3.35547 53.63 3.36646C53.666 3.37842 53.702 3.39136 53.737 3.40442C53.806 3.42944 53.873 3.45642 53.9389 3.48438C54.007 3.51245 54.072 3.54236 54.138 3.57446C54.202 3.60547 54.267 3.63843 54.33 3.67346C54.393 3.70837 54.455 3.74438 54.517 3.78247C54.641 3.8584 54.761 3.94043 54.876 4.02942C54.989 4.11646 55.097 4.20947 55.2 4.30847C55.303 4.40747 55.3999 4.51245 55.492 4.62244C55.585 4.7334 55.671 4.84937 55.751 4.96936C55.791 5.02942 55.829 5.09045 55.866 5.15247C55.902 5.21338 55.937 5.27637 55.971 5.34045C56.004 5.40442 56.035 5.46838 56.0639 5.53442C56.095 5.60046 56.123 5.66638 56.149 5.7334C56.156 5.75244 56.1629 5.77039 56.17 5.78943C56.177 5.80737 56.184 5.82642 56.19 5.84436C56.197 5.86243 56.204 5.88147 56.21 5.89941C56.217 5.91846 56.223 5.93738 56.229 5.95642C56.235 5.97437 56.241 5.99341 56.247 6.01245C56.253 6.0304 56.259 6.04944 56.265 6.06836C56.27 6.0874 56.276 6.10645 56.281 6.12537C56.287 6.14441 56.292 6.16345 56.297 6.18237C56.303 6.20142 56.308 6.22046 56.312 6.23938C56.317 6.25842 56.322 6.27747 56.327 6.29639C56.331 6.31543 56.336 6.33545 56.341 6.35437C56.345 6.37439 56.349 6.39343 56.353 6.41248C56.3569 6.43237 56.361 6.45142 56.365 6.47046L56.377 6.52942C56.38 6.54846 56.384 6.56836 56.388 6.5874C56.391 6.60742 56.394 6.62744 56.397 6.64636C56.3999 6.66736 56.403 6.6864 56.406 6.70642C56.409 6.72644 56.412 6.74646 56.414 6.76636C56.417 6.78638 56.42 6.80542 56.422 6.82544C56.425 6.84546 56.427 6.86536 56.429 6.88538C56.431 6.90637 56.433 6.92639 56.435 6.94641C56.436 6.96643 56.438 6.98645 56.44 7.00647C56.442 7.02747 56.443 7.04736 56.445 7.06738C56.446 7.0874 56.447 7.1084 56.448 7.12842C56.45 7.14941 56.451 7.16943 56.452 7.19043C56.452 7.21045 56.453 7.23145 56.454 7.25146C56.455 7.27246 56.455 7.29346 56.456 7.31335V7.37646V7.43835C56.4541 7.94385 56.451 8.44885 56.448 8.95483C56.4321 12.1459 56.4161 15.3379 56.401 18.5299C56.395 19.6938 56.391 20.8579 56.3861 22.0228C56.365 26.8768 56.3471 31.7319 56.3301 36.5858C56.3299 36.6251 56.329 36.6641 56.328 36.7031C56.327 36.7432 56.3259 36.7821 56.324 36.8212C56.3219 36.8601 56.319 36.8992 56.316 36.9371C56.3129 36.9761 56.31 37.0142 56.307 37.0531C56.303 37.0922 56.299 37.1301 56.294 37.1681C56.29 37.2061 56.284 37.2441 56.2789 37.2831C56.273 37.3212 56.268 37.3582 56.2609 37.3961C56.255 37.4341 56.248 37.4722 56.2399 37.5092C56.233 37.5471 56.226 37.5841 56.217 37.6211C56.209 37.6591 56.2 37.6962 56.191 37.7332C56.182 37.7701 56.173 37.8071 56.1619 37.8441C56.152 37.8801 56.142 37.9171 56.131 37.9531C56.1199 37.9901 56.108 38.0271 56.097 38.0631C56.0849 38.0991 56.0719 38.1361 56.06 38.1721C56.047 38.2081 56.034 38.2432 56.0199 38.2802C55.9679 38.4171 55.909 38.5541 55.8439 38.6862C55.7789 38.8171 55.709 38.9441 55.6329 39.0681C55.557 39.1912 55.475 39.3101 55.3869 39.4261C55.299 39.5411 55.2049 39.6521 55.105 39.7581C55.0069 39.8651 54.901 39.9661 54.7919 40.0631C54.682 40.1591 54.5669 40.2511 54.448 40.3372C54.389 40.3792 54.328 40.4211 54.267 40.4601C54.2049 40.5001 54.143 40.5381 54.0799 40.5751C54.017 40.6111 53.953 40.6461 53.889 40.6791C53.823 40.7122 53.7579 40.7441 53.691 40.7742C53.674 40.7821 53.657 40.7891 53.64 40.7971C53.623 40.8051 53.605 40.8121 53.588 40.8191C53.57 40.8262 53.554 40.8341 53.536 40.8411C53.519 40.8481 53.501 40.8551 53.483 40.8621C53.467 40.8691 53.449 40.8761 53.432 40.8821C53.414 40.8892 53.396 40.8951 53.379 40.9021L53.3259 40.9211C53.3089 40.9271 53.291 40.9331 53.272 40.9391C53.255 40.9462 53.237 40.9512 53.22 40.9572C53.202 40.9631 53.185 40.9691 53.166 40.9741C53.148 40.9801 53.131 40.9851 53.112 40.9911C53.095 40.9961 53.077 41.0011 53.0589 41.0061C53.041 41.0121 53.022 41.0161 53.005 41.0211C52.9859 41.0261 52.9689 41.0311 52.95 41.0352C52.933 41.0402 52.914 41.0452 52.896 41.0502C52.8779 41.0541 52.859 41.0581 52.842 41.0621C52.823 41.0671 52.8049 41.0712 52.7869 41.0751L52.7309 41.0872C52.713 41.0911 52.695 41.0941 52.677 41.0981L52.621 41.1082C52.6019 41.1121 52.584 41.1151 52.565 41.1182C52.547 41.1211 52.528 41.1241 52.51 41.1271C52.491 41.1301 52.4729 41.1331 52.453 41.1361C52.435 41.1381 52.416 41.1411 52.397 41.1431C52.379 41.1461 52.359 41.1481 52.341 41.1511C52.3219 41.1531 52.303 41.1552 52.284 41.1571C52.2659 41.1591 52.246 41.1611 52.2269 41.1631C52.208 41.1652 52.1889 41.1671 52.17 41.1681C52.151 41.1702 52.1319 41.1711 52.113 41.1731C52.0939 41.1741 52.075 41.1761 52.056 41.1771C52.036 41.1781 52.018 41.1791 51.998 41.1801C51.896 41.1851 51.795 41.1901 51.692 41.1951L51.388 41.2101C51.285 41.2151 51.1839 41.2201 51.082 41.2241C50.98 41.2291 50.8779 41.2341 50.776 41.2391C50.6749 41.2432 50.5719 41.2482 50.471 41.2532C50.3689 41.2581 50.267 41.2621 50.165 41.2661C50.0629 41.2711 49.961 41.2761 49.859 41.2802C49.7579 41.2841 49.655 41.2891 49.554 41.2931C49.452 41.2981 49.35 41.3021 49.248 41.3062C49.1449 41.3112 49.044 41.3151 48.942 41.3191C48.84 41.3241 48.738 41.3281 48.636 41.3322C48.534 41.3361 48.432 41.3401 48.33 41.3441C48.2269 41.3481 48.126 41.3522 48.024 41.3561C47.922 41.3601 47.82 41.3641 47.718 41.3682C47.616 41.3721 47.514 41.3761 47.411 41.3801C47.31 41.3831 47.207 41.3871 47.105 41.3911C47.0029 41.3942 46.901 41.3981 46.799 41.4021C46.6969 41.4061 46.595 41.4091 46.493 41.4121C46.3909 41.4161 46.2879 41.4202 46.186 41.4231C46.084 41.4271 45.9819 41.4301 45.88 41.4331C45.777 41.4371 45.6759 41.4401 45.573 41.4431C45.471 41.4471 45.3689 41.4501 45.267 41.4531C45.165 41.4561 45.062 41.4591 44.9599 41.4622C44.858 41.4661 44.756 41.4691 44.653 41.4722C44.552 41.4751 44.449 41.4781 44.347 41.4811C44.2439 41.4841 44.143 41.4871 44.04 41.4891C43.937 41.4921 43.836 41.4951 43.733 41.4982C43.631 41.5001 43.528 41.5032 43.427 41.5061C43.324 41.5092 43.222 41.5111 43.1199 41.5142C43.018 41.5161 42.915 41.5192 42.812 41.5221C42.7099 41.5242 42.608 41.5271 42.506 41.5292C42.403 41.5321 42.3009 41.5341 42.199 41.5361L41.892 41.5431C41.789 41.5452 41.687 41.5481 41.5849 41.5502C41.4819 41.5521 41.38 41.5541 41.277 41.5562C41.1759 41.5581 41.073 41.5601 40.971 41.5621L40.6629 41.5681C40.561 41.5701 40.459 41.5721 40.3559 41.5741C40.254 41.5762 40.151 41.5771 40.049 41.5791C39.946 41.5811 39.845 41.5831 39.742 41.5841C39.64 41.5861 39.5369 41.5881 39.435 41.5891C39.332 41.5911 39.229 41.5922 39.1279 41.5941L38.82 41.5981L38.513 41.6022C38.41 41.6031 38.308 41.6051 38.205 41.6061C38.103 41.6071 38.001 41.6091 37.898 41.6101C37.7959 41.6111 37.6929 41.6121 37.591 41.6132L37.2829 41.6161C37.181 41.6171 37.078 41.6182 36.9769 41.6191C36.8739 41.6201 36.771 41.6201 36.669 41.6211C36.566 41.6221 36.4639 41.6232 36.3609 41.6241C36.259 41.6241 36.156 41.6251 36.054 41.6261C35.9509 41.6261 35.849 41.6271 35.746 41.6282C35.643 41.6282 35.541 41.6292 35.4389 41.6292C35.337 41.6301 35.234 41.6301 35.1319 41.6301L34.824 41.6321C34.722 41.6321 34.6189 41.6321 34.517 41.6321C34.414 41.6331 34.311 41.6331 34.209 41.6331C34.1059 41.6331 34.004 41.6331 33.901 41.6331H33.595C33.492 41.6331 33.39 41.6331 33.2869 41.6331C33.185 41.6331 33.082 41.6331 32.979 41.6321C32.877 41.6321 32.7739 41.6321 32.672 41.6321L32.364 41.6301C32.2619 41.6301 32.159 41.6301 32.057 41.6292C31.954 41.6292 31.8519 41.6282 31.75 41.6282C31.647 41.6271 31.545 41.6261 31.442 41.6261C31.34 41.6251 31.237 41.6241 31.135 41.6241C31.032 41.6232 30.9299 41.6221 30.827 41.6211C30.725 41.6201 30.622 41.6201 30.519 41.6191C30.4169 41.6182 30.315 41.6171 30.213 41.6161L29.905 41.6132C29.803 41.6121 29.7 41.6111 29.5979 41.6101C29.4949 41.6091 29.393 41.6071 29.29 41.6061C29.187 41.6051 29.086 41.6031 28.983 41.6022L28.6759 41.5981L28.368 41.5941C28.2659 41.5922 28.164 41.5911 28.061 41.5891C27.959 41.5881 27.8559 41.5861 27.754 41.5841C27.651 41.5831 27.549 41.5811 27.4469 41.5791C27.345 41.5771 27.242 41.5762 27.14 41.5741L26.832 41.5681C26.73 41.5662 26.6279 41.5641 26.5249 41.5621C26.423 41.5601 26.32 41.5581 26.2179 41.5562C26.116 41.5541 26.014 41.5521 25.911 41.5502C25.8089 41.5481 25.7059 41.5452 25.604 41.5431L25.297 41.5361C25.194 41.5341 25.0929 41.5321 24.9899 41.5292C24.888 41.5271 24.785 41.5242 24.6839 41.5221C24.581 41.5192 24.478 41.5161 24.376 41.5142C24.274 41.5111 24.172 41.5092 24.069 41.5061C23.967 41.5032 23.865 41.5001 23.763 41.4982C23.66 41.4951 23.559 41.4921 23.456 41.4891C23.353 41.4871 23.251 41.4841 23.149 41.4811C23.047 41.4781 22.944 41.4751 22.843 41.4722C22.74 41.4691 22.638 41.4661 22.536 41.4622C22.434 41.4591 22.331 41.4561 22.229 41.4531C22.127 41.4501 22.024 41.4471 21.923 41.4431C21.82 41.4401 21.719 41.4371 21.616 41.4331C21.514 41.4301 21.412 41.4271 21.31 41.4231C21.208 41.4202 21.105 41.4161 21.003 41.4121C20.901 41.4091 20.799 41.4061 20.697 41.4021C20.595 41.3981 20.493 41.3942 20.391 41.3911C20.288 41.3871 20.186 41.3831 20.084 41.3801C19.982 41.3761 19.88 41.3721 19.778 41.3682C19.676 41.3641 19.574 41.3601 19.472 41.3561C19.37 41.3522 19.268 41.3481 19.166 41.3441C19.063 41.3401 18.962 41.3361 18.86 41.3322C18.758 41.3281 18.656 41.3241 18.554 41.3191C18.452 41.3151 18.35 41.3112 18.248 41.3062C18.146 41.3021 18.044 41.2981 17.942 41.2931C17.84 41.2891 17.738 41.2841 17.637 41.2802C17.534 41.2761 17.433 41.2711 17.331 41.2661C17.228 41.2621 17.127 41.2581 17.025 41.2532C16.923 41.2482 16.821 41.2432 16.72 41.2391C16.618 41.2341 16.516 41.2291 16.414 41.2241C16.312 41.2201 16.211 41.2151 16.108 41.2101L15.804 41.1951C15.701 41.1901 15.6 41.1851 15.498 41.1799C15.312 41.1709 15.127 41.1509 14.944 41.1208C14.466 41.0399 13.993 40.8829 13.563 40.6559C13.132 40.4288 12.732 40.1239 12.398 39.7668C12.26 39.6179 12.129 39.4589 12.012 39.2919C11.724 38.8829 11.503 38.4209 11.363 37.9448C11.232 37.5049 11.167 37.0428 11.1661 36.5854C11.149 31.7294 11.1311 26.8734 11.1101 22.0164C11.1051 20.8514 11.1011 19.6854 11.0951 18.5204C11.08 15.3304 11.0641 12.1404 11.048 8.95044C11.0451 8.44641 11.0421 7.94238 11.0391 7.43835" stroke="#FF00FF" stroke-width="0.283465" stroke-miterlimit="10" stroke-linecap="round" stroke-linejoin="round"/>
<path d="M55.4491 46.9191V52.01H54.8326V47.5654H54.8028L53.5599 48.3907V47.7643L54.8326 46.9191H55.4491ZM57.0499 52.0498C56.9273 52.0498 56.8221 52.0059 56.7342 51.918C56.6464 51.8302 56.6025 51.725 56.6025 51.6023C56.6025 51.4797 56.6464 51.3745 56.7342 51.2866C56.8221 51.1988 56.9273 51.1549 57.0499 51.1549C57.1726 51.1549 57.2778 51.1988 57.3656 51.2866C57.4535 51.3745 57.4974 51.4797 57.4974 51.6023C57.4974 51.6835 57.4767 51.7581 57.4352 51.8261C57.3955 51.894 57.3416 51.9487 57.2737 51.9901C57.2074 52.0299 57.1328 52.0498 57.0499 52.0498ZM58.5402 52.01V51.5626L60.2206 49.7231C60.4178 49.5076 60.5802 49.3204 60.7078 49.1613C60.8354 49.0005 60.9299 48.8497 60.9912 48.7089C61.0541 48.5664 61.0856 48.4172 61.0856 48.2614C61.0856 48.0825 61.0425 47.9275 60.9564 47.7966C60.8718 47.6657 60.7558 47.5646 60.6084 47.4933C60.4609 47.4221 60.2951 47.3864 60.1112 47.3864C59.9156 47.3864 59.745 47.427 59.5991 47.5082C59.4549 47.5878 59.3431 47.6996 59.2635 47.8438C59.1857 47.988 59.1467 48.157 59.1467 48.3509H58.5601C58.5601 48.0526 58.6288 47.7908 58.7664 47.5654C58.9039 47.34 59.0912 47.1644 59.3282 47.0384C59.5668 46.9125 59.8344 46.8495 60.1311 46.8495C60.4294 46.8495 60.6937 46.9125 60.9241 47.0384C61.1544 47.1644 61.335 47.3342 61.466 47.548C61.5969 47.7618 61.6623 47.9996 61.6623 48.2614C61.6623 48.4487 61.6284 48.6318 61.5604 48.8108C61.4941 48.9881 61.3781 49.1861 61.2124 49.4049C61.0483 49.622 60.8205 49.8871 60.5288 50.2004L59.3853 51.4234V51.4631H61.7518V52.01H58.5402ZM64.3694 52.0796C64.0777 52.0796 63.815 52.0216 63.5814 51.9056C63.3477 51.7896 63.1604 51.6305 63.0196 51.4283C62.8787 51.2262 62.8017 50.9958 62.7884 50.7373H63.385C63.4082 50.9676 63.5126 51.1582 63.6982 51.309C63.8855 51.4582 64.1092 51.5327 64.3694 51.5327C64.5782 51.5327 64.7638 51.4838 64.9262 51.3861C65.0902 51.2883 65.2187 51.1541 65.3115 50.9834C65.4059 50.811 65.4532 50.6163 65.4532 50.3992C65.4532 50.1771 65.4043 49.9791 65.3065 49.8051C65.2104 49.6294 65.0778 49.4911 64.9088 49.39C64.7397 49.2889 64.5467 49.2375 64.3296 49.2359C64.1738 49.2342 64.0139 49.2582 63.8498 49.308C63.6858 49.356 63.5507 49.4182 63.4446 49.4944L62.8679 49.4248L63.1762 46.9191H65.8211V47.466H63.6932L63.5142 48.9674H63.5441C63.6485 48.8845 63.7794 48.8158 63.9368 48.7611C64.0943 48.7064 64.2583 48.679 64.429 48.679C64.7406 48.679 65.0182 48.7536 65.2618 48.9028C65.507 49.0503 65.6993 49.2524 65.8385 49.5093C65.9793 49.7662 66.0498 50.0595 66.0498 50.3893C66.0498 50.7141 65.9768 51.0041 65.831 51.2593C65.6868 51.5129 65.488 51.7134 65.2344 51.8609C64.9809 52.0067 64.6925 52.0796 64.3694 52.0796Z" fill="#0000FF"/>
<path fill-rule="evenodd" clip-rule="evenodd" d="M23.3158 10.2844C23.1433 10.1119 22.857 10.1119 22.6845 10.2844L21.3345 11.6344C21.067 11.9019 20.6333 11.9019 20.3658 11.6344C20.0983 11.3669 20.0983 10.9332 20.3658 10.6657L21.7158 9.31567C22.4233 8.60816 23.577 8.60816 24.2845 9.31567L25.6345 10.6657C25.902 10.9332 25.902 11.3669 25.6345 11.6344C25.367 11.9019 24.9333 11.9019 24.6658 11.6344L23.3158 10.2844ZM18.8845 14.0844C19.152 13.8169 19.152 13.3832 18.8845 13.1157C18.617 12.8482 18.1833 12.8482 17.9158 13.1157L16.5658 14.4657C15.8583 15.1732 15.8583 16.3269 16.5658 17.0344L17.9158 18.3844C18.1833 18.6519 18.617 18.6519 18.8845 18.3844C19.152 18.1169 19.152 17.6832 18.8845 17.4157L17.5345 16.0657C17.362 15.8932 17.362 15.6069 17.5345 15.4344L18.8845 14.0844ZM21.3345 19.8657C21.067 19.5982 20.6333 19.5982 20.3658 19.8657C20.0983 20.1332 20.0983 20.5669 20.3658 20.8344L21.7158 22.1844C22.4233 22.8919 23.577 22.8919 24.2845 22.1844L25.6345 20.8344C25.902 20.5669 25.902 20.1332 25.6345 19.8657C25.367 19.5982 24.9333 19.5982 24.6658 19.8657L23.3158 21.2157C23.1433 21.3882 22.857 21.3882 22.6845 21.2157L21.3345 19.8657ZM28.0845 13.1157C27.817 12.8482 27.3833 12.8482 27.1158 13.1157C26.8483 13.3832 26.8483 13.8169 27.1158 14.0844L28.4658 15.4344C28.6383 15.6069 28.6383 15.8932 28.4658 16.0657L27.1158 17.4157C26.8483 17.6832 26.8483 18.1169 27.1158 18.3844C27.3833 18.6519 27.817 18.6519 28.0845 18.3844L29.4345 17.0344C30.142 16.3269 30.142 15.1732 29.4345 14.4657L28.0845 13.1157Z" fill="black"/>
<path d="M19.1006 35.8672C17.6943 35.8672 16.7568 35.2813 16.4834 34.4805C16.4395 34.3633 16.415 34.2364 16.415 34.1192C16.415 33.7676 16.6396 33.543 16.9716 33.543C17.2499 33.543 17.4257 33.6553 17.5624 33.9385C17.7821 34.5489 18.3876 34.8223 19.1396 34.8223C19.9892 34.8223 20.5849 34.4024 20.5849 33.8164C20.5849 33.3086 20.2333 32.9961 19.3154 32.8056L18.5586 32.6493C17.1475 32.3612 16.4883 31.6971 16.4883 30.6669C16.4883 29.4267 17.5772 28.5868 19.1055 28.5868C20.3506 28.5868 21.3174 29.1434 21.6055 30.0761C21.6348 30.1542 21.6494 30.247 21.6494 30.3642C21.6494 30.6718 21.4297 30.8818 21.1025 30.8818C20.8095 30.8818 20.6289 30.7548 20.497 30.4814C20.2577 29.8857 19.7548 29.6318 19.0956 29.6318C18.3143 29.6318 17.7577 30.0029 17.7577 30.5937C17.7577 31.0722 18.1093 31.3798 18.9882 31.5654L19.745 31.7217C21.2294 32.0293 21.8544 32.625 21.8544 33.67C21.8544 35.0177 20.7948 35.8673 19.1005 35.8673L19.1006 35.8672Z" fill="black"/>
<path d="M31.228 30.4862C30.6136 30.4862 30.0386 30.7844 29.7558 30.9581C29.6756 31.0073 29.5715 30.9665 29.545 30.8762C29.5275 30.8163 29.4991 30.7507 29.4533 30.6903C29.3362 30.5357 29.1662 30.4716 28.977 30.4716C28.6303 30.4716 28.3862 30.6962 28.3862 31.0966V36.9512C28.3862 37.3614 28.6352 37.5909 28.9917 37.5909C29.3482 37.5909 29.6021 37.3614 29.6021 36.9512V35.5394C29.6021 35.4315 29.7178 35.3631 29.8123 35.4153C30.1035 35.5761 30.6604 35.833 31.2476 35.833C32.5464 35.833 33.3765 34.8125 33.3765 33.1621C33.3765 31.5117 32.5415 30.4863 31.228 30.4863V30.4862ZM30.8569 34.8368C30.1001 34.8368 29.5971 34.1776 29.5922 33.162C29.5971 32.1561 30.1 31.4872 30.8569 31.4872C31.6138 31.4872 32.1313 32.1415 32.1313 33.162C32.1313 34.1825 31.643 34.8368 30.8569 34.8368Z" fill="black"/>
<path d="M36.6816 30.4667C35.1875 30.4667 34.2354 31.5311 34.2354 33.1815C34.2354 34.8319 35.168 35.8523 36.75 35.8523C37.5502 35.8523 38.1361 35.6745 38.6358 35.1195C38.8595 34.8711 38.7996 34.5004 38.5035 34.3419C38.2541 34.2083 37.9704 34.3364 37.8311 34.4658C37.3884 34.8772 37.0636 34.9148 36.7402 34.9148C35.994 34.9148 35.5041 34.4301 35.4511 33.6067C35.4458 33.5246 35.5102 33.4549 35.5925 33.4549H38.5466C38.8278 33.4549 39.0572 33.2301 39.0636 32.949C39.0963 31.5062 38.1211 30.4667 36.6816 30.4667ZM37.7114 32.601H35.6223C35.5317 32.601 35.4649 32.5172 35.4839 32.4286C35.6205 31.7899 36.0921 31.4092 36.6864 31.4092C37.2807 31.4092 37.7349 31.7771 37.8511 32.4354C37.8664 32.5219 37.7992 32.601 37.7113 32.601H37.7114Z" fill="black"/>
<path d="M40.5196 35.8476C40.1534 35.8476 39.9141 35.6083 39.9141 35.2079V31.0868C39.9141 30.7059 40.1485 30.4716 40.4952 30.4716C40.8419 30.4716 40.9798 30.7041 41.025 30.8201C41.0314 30.8364 41.0369 30.8534 41.0417 30.8706C41.0708 30.9747 41.2027 31.0069 41.2787 30.9301C41.4752 30.7317 41.8 30.4862 42.2042 30.4862C42.3946 30.4862 42.5411 30.535 42.6339 30.618C42.7462 30.7108 42.8048 30.8573 42.8048 31.0575C42.8048 31.2577 42.7462 31.3895 42.6241 31.4872C42.5069 31.5897 42.3262 31.6435 42.087 31.6483C41.3936 31.6532 41.13 32.0878 41.13 32.7176V35.2079C41.13 35.6083 40.8859 35.8476 40.5196 35.8476Z" fill="black"/>
<path d="M24.5406 35.8428C23.4175 35.8428 22.7046 35.1153 22.7046 33.919V31.1114C22.7046 30.7061 22.9536 30.4717 23.3101 30.4717C23.6666 30.4717 23.9205 30.7061 23.9205 31.1162V33.6748C23.9205 34.417 24.2818 34.8174 24.9654 34.8174C25.649 34.8174 26.1031 34.3193 26.1031 33.5674V31.1113C26.1031 30.706 26.357 30.4716 26.7135 30.4716C27.07 30.4716 27.319 30.706 27.319 31.1161V35.2324C27.319 35.623 27.0846 35.8476 26.7379 35.8476C26.3912 35.8476 26.2649 35.6372 26.2375 35.5925C26.2192 35.5625 26.2037 35.5271 26.191 35.4919C26.1617 35.4107 26.0663 35.3752 25.9903 35.4162C25.7143 35.5647 25.1998 35.8428 24.5405 35.8428H24.5406Z" fill="black"/>
</svg>
