<svg width="82" height="55" viewBox="0 0 82 55" fill="none" xmlns="http://www.w3.org/2000/svg">
<path d="M71.5068 37.0027C71.5848 27.0807 71.6919 17.1587 71.8298 7.23665C71.8199 6.87965 71.7788 6.52266 71.7035 6.17201C71.6305 5.82301 71.5245 5.48201 71.3847 5.15382C71.2467 4.82881 71.0757 4.51686 70.876 4.22511C70.676 3.93513 70.448 3.66512 70.1949 3.42079C69.9419 3.17781 69.6649 2.96077 69.3693 2.77412C69.0733 2.58711 68.7583 2.42915 68.4325 2.30342C68.1065 2.17744 67.7675 2.0815 67.4237 2.01741C67.0777 1.95345 66.7278 1.91939 66.3745 1.91585C49.4605 1.82491 32.5455 1.82491 15.6317 1.91548C15.2937 1.92159 14.9567 1.95454 14.6241 2.01485C14.2921 2.07381 13.9641 2.15974 13.6495 2.27437C13.4005 2.36739 13.1575 2.47835 12.9246 2.60493C12.6925 2.73299 12.4685 2.87801 12.2568 3.03865C12.0458 3.20058 11.8468 3.37856 11.663 3.57112C11.4779 3.76515 11.3099 3.97414 11.1587 4.19398C11.0067 4.41493 10.8716 4.64796 10.7538 4.88844C10.6358 5.13149 10.5358 5.38149 10.4525 5.63869C10.2864 6.15468 10.1914 6.69667 10.1777 7.23622C10.3117 17.1582 10.4188 27.0802 10.5002 37.0013C10.5251 37.6633 10.6751 38.3273 10.94 38.9409C11.209 39.5659 11.595 40.1389 12.071 40.6231C12.55 41.1111 13.118 41.5101 13.7408 41.796C14.3578 42.0809 15.0288 42.254 15.7026 42.3051C24.1317 42.6481 32.5667 42.8191 41.0034 42.819C49.4394 42.819 57.8744 42.648 66.3044 42.3047C66.9783 42.2537 67.6483 42.0807 68.2662 41.7968C68.8882 41.5098 69.4572 41.1109 69.9361 40.6232C70.4111 40.1383 70.7971 39.5662 71.0675 38.9408C71.3305 38.3278 71.4825 37.6638 71.5066 37.0007" stroke="#16215B" stroke-width="0.283" stroke-miterlimit="10"/>
<path d="M11.7583 38.7131V6.44019C11.7583 5.26575 12.7093 4.31372 13.8843 4.31372H17.4273H64.6312H68.1743C69.3483 4.31372 70.3003 5.26575 70.3003 6.4397V38.7127C70.3003 39.8871 69.3483 40.8391 68.1743 40.8391L13.8843 40.8392C12.7093 40.8392 11.7583 39.8871 11.7583 38.7131Z" stroke="#00FFFF" stroke-width="0.28" stroke-miterlimit="10"/>
<path d="M66.1805 41.1327C49.4365 41.8178 32.5695 41.8178 15.8265 41.1327C15.5304 41.12 15.2384 41.083 14.9494 41.018C14.8044 40.986 14.6624 40.947 14.5224 40.902C14.3833 40.856 14.2453 40.805 14.1104 40.746C13.9754 40.688 13.8443 40.623 13.7154 40.552C13.6503 40.516 13.5864 40.478 13.5224 40.439C13.4603 40.4 13.3984 40.36 13.3384 40.318C13.0964 40.15 12.8724 39.961 12.6694 39.749C12.6184 39.696 12.5683 39.642 12.5194 39.586C12.4714 39.531 12.4244 39.473 12.3783 39.415C12.2874 39.3 12.2023 39.18 12.1243 39.057C11.9684 38.811 11.8374 38.552 11.7304 38.28C11.7044 38.211 11.6794 38.142 11.6564 38.073C11.6333 38.003 11.6113 37.933 11.5914 37.863C11.5524 37.723 11.5184 37.582 11.4924 37.44C11.4393 37.156 11.4133 36.869 11.4124 36.577C11.3963 31.7904 11.3783 27.0025 11.3583 22.2155C11.3382 17.4284 11.3153 12.6414 11.2903 7.85341C11.2815 7.69783 11.2755 7.54182 11.2765 7.38686C11.2775 7.23085 11.2865 7.07686 11.3035 6.92287C11.3105 6.84584 11.3215 6.76881 11.3335 6.69185C11.3455 6.61482 11.3595 6.53883 11.3755 6.46187C11.4075 6.31087 11.4475 6.16182 11.4955 6.01485C11.5425 5.86885 11.5975 5.72585 11.6625 5.58485C11.6935 5.51485 11.7275 5.44582 11.7635 5.37685C11.8005 5.30885 11.8385 5.24086 11.8785 5.17384C12.0375 4.90883 12.2245 4.66682 12.4395 4.44685C12.4935 4.39186 12.5495 4.33784 12.6065 4.28682C12.6355 4.25984 12.6645 4.23482 12.6935 4.20882C12.7235 4.18385 12.7535 4.15883 12.7835 4.13387C12.9045 4.03682 13.0305 3.94582 13.1605 3.86287C13.4205 3.69685 13.6985 3.55983 13.9925 3.44887C14.2865 3.33882 14.5875 3.25984 14.8925 3.20686C15.1985 3.15382 15.5105 3.12685 15.8255 3.12581C32.57 3.03383 49.437 3.03383 66.18 3.12581C66.4961 3.12691 66.8081 3.15388 67.1131 3.20686C67.4191 3.2599 67.7201 3.33888 68.0141 3.44887C68.3081 3.55989 68.5851 3.69691 68.8461 3.86287C68.9761 3.94588 69.1011 4.0359 69.2221 4.13387C69.2521 4.15889 69.2821 4.18391 69.3121 4.20888C69.3411 4.2339 69.3701 4.2599 69.4001 4.2859C69.4561 4.33791 69.5121 4.39186 69.5661 4.44691C69.7801 4.66591 69.9681 4.90889 70.1281 5.1739C70.1681 5.23988 70.2061 5.30788 70.2421 5.37691C70.2791 5.4449 70.3121 5.51491 70.3441 5.58492C70.4071 5.72487 70.4631 5.86891 70.5111 6.01491C70.5591 6.1609 70.5991 6.30989 70.6301 6.46187C70.6471 6.53792 70.6601 6.61488 70.6731 6.69087C70.6851 6.7679 70.6951 6.84486 70.7031 6.92189C70.7201 7.07588 70.7281 7.23091 70.7301 7.38588C70.7311 7.54091 70.7251 7.69691 70.7161 7.85286C70.691 12.64 70.668 17.428 70.648 22.215C70.627 27.002 70.61 31.79 70.594 36.5767C70.593 36.8687 70.566 37.1587 70.513 37.4458C70.486 37.5907 70.452 37.7327 70.412 37.8717C70.372 38.0117 70.326 38.1497 70.273 38.2847C70.22 38.4198 70.16 38.5527 70.094 38.6837C70.061 38.7497 70.026 38.8147 69.99 38.8787C69.952 38.9428 69.914 39.0058 69.875 39.0667C69.717 39.3137 69.536 39.5427 69.332 39.7547C69.282 39.8067 69.229 39.8587 69.175 39.9087C69.121 39.9597 69.066 40.0087 69.009 40.0567C68.896 40.1527 68.78 40.2417 68.659 40.3237C68.417 40.4898 68.161 40.6317 67.89 40.7487C67.823 40.7777 67.753 40.8057 67.684 40.8317C67.615 40.8577 67.545 40.8817 67.475 40.9038C67.335 40.9497 67.194 40.9877 67.051 41.0197C66.766 41.0827 66.475 41.1207 66.1805 41.1327Z" stroke="#FF00FF" stroke-width="0.283465" stroke-miterlimit="10" stroke-linecap="round" stroke-linejoin="round"/>
<path d="M65.2894 46.9191V52.01H64.6729V47.5654H64.6431L63.4002 48.3907V47.7643L64.6729 46.9191H65.2894ZM66.8903 52.0498C66.7676 52.0498 66.6624 52.0059 66.5746 51.918C66.4867 51.8302 66.4428 51.725 66.4428 51.6023C66.4428 51.4797 66.4867 51.3745 66.5746 51.2866C66.6624 51.1988 66.7676 51.1549 66.8903 51.1549C67.0129 51.1549 67.1181 51.1988 67.206 51.2866C67.2938 51.3745 67.3377 51.4797 67.3377 51.6023C67.3377 51.6835 67.317 51.7581 67.2756 51.8261C67.2358 51.894 67.1819 51.9487 67.114 51.9901C67.0477 52.0299 66.9731 52.0498 66.8903 52.0498ZM69.8689 52.0796C69.5772 52.0796 69.3145 52.0216 69.0809 51.9056C68.8472 51.7896 68.6599 51.6305 68.5191 51.4283C68.3782 51.2262 68.3012 50.9958 68.2879 50.7373H68.8845C68.9077 50.9676 69.0121 51.1582 69.1977 51.309C69.385 51.4582 69.6087 51.5327 69.8689 51.5327C70.0777 51.5327 70.2633 51.4838 70.4257 51.3861C70.5898 51.2883 70.7182 51.1541 70.811 50.9834C70.9055 50.811 70.9527 50.6163 70.9527 50.3992C70.9527 50.1771 70.9038 49.9791 70.806 49.8051C70.7099 49.6294 70.5773 49.4911 70.4083 49.39C70.2393 49.2889 70.0462 49.2375 69.8291 49.2359C69.6733 49.2342 69.5134 49.2582 69.3493 49.308C69.1853 49.356 69.0502 49.4182 68.9442 49.4944L68.3675 49.4248L68.6757 46.9191H71.3206V47.466H69.1927L69.0138 48.9674H69.0436C69.148 48.8845 69.2789 48.8158 69.4363 48.7611C69.5938 48.7064 69.7578 48.679 69.9285 48.679C70.2401 48.679 70.5177 48.7536 70.7613 48.9028C71.0065 49.0503 71.1988 49.2524 71.338 49.5093C71.4788 49.7662 71.5493 50.0595 71.5493 50.3893C71.5493 50.7141 71.4764 51.0041 71.3305 51.2593C71.1863 51.5129 70.9875 51.7134 70.7339 51.8609C70.4804 52.0067 70.192 52.0796 69.8689 52.0796Z" fill="#0000FF"/>
<path fill-rule="evenodd" clip-rule="evenodd" d="M23.8158 10.2844C23.6433 10.1119 23.357 10.1119 23.1845 10.2844L21.8345 11.6344C21.567 11.9019 21.1333 11.9019 20.8658 11.6344C20.5983 11.3669 20.5983 10.9332 20.8658 10.6657L22.2158 9.31567C22.9233 8.60816 24.077 8.60816 24.7845 9.31567L26.1345 10.6657C26.402 10.9332 26.402 11.3669 26.1345 11.6344C25.867 11.9019 25.4333 11.9019 25.1658 11.6344L23.8158 10.2844ZM19.3845 14.0844C19.652 13.8169 19.652 13.3832 19.3845 13.1157C19.117 12.8482 18.6833 12.8482 18.4158 13.1157L17.0658 14.4657C16.3583 15.1732 16.3583 16.3269 17.0658 17.0344L18.4158 18.3844C18.6833 18.6519 19.117 18.6519 19.3845 18.3844C19.652 18.1169 19.652 17.6832 19.3845 17.4157L18.0345 16.0657C17.862 15.8932 17.862 15.6069 18.0345 15.4344L19.3845 14.0844ZM21.8345 19.8657C21.567 19.5982 21.1333 19.5982 20.8658 19.8657C20.5983 20.1332 20.5983 20.5669 20.8658 20.8344L22.2158 22.1844C22.9233 22.8919 24.077 22.8919 24.7845 22.1844L26.1345 20.8344C26.402 20.5669 26.402 20.1332 26.1345 19.8657C25.867 19.5982 25.4333 19.5982 25.1658 19.8657L23.8158 21.2157C23.6433 21.3882 23.357 21.3882 23.1845 21.2157L21.8345 19.8657ZM28.5845 13.1157C28.317 12.8482 27.8833 12.8482 27.6158 13.1157C27.3483 13.3832 27.3483 13.8169 27.6158 14.0844L28.9658 15.4344C29.1383 15.6069 29.1383 15.8932 28.9658 16.0657L27.6158 17.4157C27.3483 17.6832 27.3483 18.1169 27.6158 18.3844C27.8833 18.6519 28.317 18.6519 28.5845 18.3844L29.9345 17.0344C30.642 16.3269 30.642 15.1732 29.9345 14.4657L28.5845 13.1157Z" fill="black"/>
<path d="M19.6006 35.8672C18.1943 35.8672 17.2568 35.2813 16.9834 34.4805C16.9395 34.3633 16.915 34.2364 16.915 34.1192C16.915 33.7676 17.1396 33.543 17.4716 33.543C17.7499 33.543 17.9257 33.6553 18.0624 33.9385C18.2821 34.5489 18.8876 34.8223 19.6396 34.8223C20.4892 34.8223 21.0849 34.4024 21.0849 33.8164C21.0849 33.3086 20.7333 32.9961 19.8154 32.8056L19.0586 32.6493C17.6475 32.3612 16.9883 31.6971 16.9883 30.6669C16.9883 29.4267 18.0772 28.5868 19.6055 28.5868C20.8506 28.5868 21.8174 29.1434 22.1055 30.0761C22.1348 30.1542 22.1494 30.247 22.1494 30.3642C22.1494 30.6718 21.9297 30.8818 21.6025 30.8818C21.3095 30.8818 21.1289 30.7548 20.997 30.4814C20.7577 29.8857 20.2548 29.6318 19.5956 29.6318C18.8143 29.6318 18.2577 30.0029 18.2577 30.5937C18.2577 31.0722 18.6093 31.3798 19.4882 31.5654L20.245 31.7217C21.7294 32.0293 22.3544 32.625 22.3544 33.67C22.3544 35.0177 21.2948 35.8673 19.6005 35.8673L19.6006 35.8672Z" fill="black"/>
<path d="M31.728 30.4861C31.1136 30.4861 30.5386 30.7843 30.2558 30.958C30.1756 31.0072 30.0715 30.9664 30.045 30.8761C30.0275 30.8162 29.9991 30.7506 29.9533 30.6902C29.8362 30.5356 29.6662 30.4715 29.477 30.4715C29.1303 30.4715 28.8862 30.6961 28.8862 31.0965V36.9511C28.8862 37.3613 29.1352 37.5908 29.4917 37.5908C29.8482 37.5908 30.1021 37.3613 30.1021 36.9511V35.5393C30.1021 35.4314 30.2178 35.363 30.3123 35.4152C30.6035 35.576 31.1604 35.8329 31.7476 35.8329C33.0464 35.8329 33.8765 34.8124 33.8765 33.162C33.8765 31.5116 33.0415 30.4862 31.728 30.4862V30.4861ZM31.3569 34.8367C30.6001 34.8367 30.0971 34.1775 30.0922 33.1619C30.0971 32.156 30.6 31.4871 31.3569 31.4871C32.1138 31.4871 32.6313 32.1414 32.6313 33.1619C32.6313 34.1824 32.143 34.8367 31.3569 34.8367Z" fill="black"/>
<path d="M37.1816 30.4666C35.6875 30.4666 34.7354 31.531 34.7354 33.1814C34.7354 34.8318 35.668 35.8522 37.25 35.8522C38.0502 35.8522 38.6361 35.6744 39.1358 35.1194C39.3595 34.871 39.2996 34.5003 39.0035 34.3418C38.7541 34.2082 38.4704 34.3363 38.3311 34.4657C37.8884 34.8771 37.5636 34.9147 37.2402 34.9147C36.494 34.9147 36.0041 34.43 35.9511 33.6066C35.9458 33.5245 36.0102 33.4548 36.0925 33.4548H39.0466C39.3278 33.4548 39.5572 33.23 39.5636 32.9489C39.5963 31.5061 38.6211 30.4666 37.1816 30.4666ZM38.2114 32.6009H36.1223C36.0317 32.6009 35.9649 32.5171 35.9839 32.4285C36.1205 31.7898 36.5921 31.4091 37.1864 31.4091C37.7807 31.4091 38.2349 31.777 38.3511 32.4353C38.3664 32.5218 38.2992 32.6009 38.2113 32.6009H38.2114Z" fill="black"/>
<path d="M41.0196 35.8475C40.6534 35.8475 40.4141 35.6082 40.4141 35.2078V31.0867C40.4141 30.7058 40.6485 30.4715 40.9952 30.4715C41.3419 30.4715 41.4798 30.704 41.525 30.82C41.5314 30.8363 41.5369 30.8533 41.5417 30.8705C41.5708 30.9746 41.7027 31.0068 41.7787 30.93C41.9752 30.7316 42.3 30.4861 42.7042 30.4861C42.8946 30.4861 43.0411 30.5349 43.1339 30.6179C43.2462 30.7107 43.3048 30.8572 43.3048 31.0574C43.3048 31.2576 43.2462 31.3894 43.1241 31.4871C43.0069 31.5896 42.8262 31.6434 42.587 31.6482C41.8936 31.6531 41.63 32.0877 41.63 32.7175V35.2078C41.63 35.6082 41.3859 35.8475 41.0196 35.8475Z" fill="black"/>
<path d="M25.0406 35.8427C23.9175 35.8427 23.2046 35.1152 23.2046 33.9189V31.1113C23.2046 30.706 23.4536 30.4716 23.8101 30.4716C24.1666 30.4716 24.4205 30.706 24.4205 31.1161V33.6747C24.4205 34.4169 24.7818 34.8173 25.4654 34.8173C26.149 34.8173 26.6031 34.3192 26.6031 33.5673V31.1112C26.6031 30.7059 26.857 30.4715 27.2135 30.4715C27.57 30.4715 27.819 30.7059 27.819 31.116V35.2323C27.819 35.6229 27.5846 35.8475 27.2379 35.8475C26.8912 35.8475 26.7649 35.6371 26.7375 35.5924C26.7192 35.5624 26.7037 35.527 26.691 35.4918C26.6617 35.4106 26.5663 35.3751 26.4903 35.4161C26.2143 35.5646 25.6998 35.8427 25.0405 35.8427H25.0406Z" fill="black"/>
</svg>
