<svg width="82" height="54" viewBox="0 0 82 54" fill="none" xmlns="http://www.w3.org/2000/svg">
<path d="M71.5068 37.0028C71.5848 27.0808 71.6919 17.1588 71.8298 7.23671C71.8199 6.87971 71.7788 6.52272 71.7035 6.17207C71.6305 5.82307 71.5245 5.48207 71.3847 5.15388C71.2467 4.82887 71.0757 4.51692 70.876 4.22517C70.676 3.9352 70.448 3.66518 70.1949 3.42085C69.9419 3.17787 69.6649 2.96083 69.3693 2.77419C69.0733 2.58717 68.7583 2.42921 68.4325 2.30348C68.1065 2.17751 67.7675 2.08156 67.4237 2.01747C67.0777 1.95351 66.7278 1.91945 66.3745 1.91591C49.4605 1.82497 32.5455 1.82497 15.6317 1.91554C15.2937 1.92165 14.9567 1.95461 14.6241 2.01491C14.2921 2.07387 13.9641 2.15981 13.6495 2.27443C13.4005 2.36745 13.1575 2.47841 12.9246 2.605C12.6925 2.73305 12.4685 2.87807 12.2568 3.03871C12.0458 3.20064 11.8468 3.37862 11.663 3.57118C11.4779 3.76521 11.3099 3.9742 11.1587 4.19405C11.0067 4.41499 10.8716 4.64803 10.7538 4.8885C10.6358 5.13155 10.5358 5.38155 10.4525 5.63875C10.2864 6.15474 10.1914 6.69673 10.1777 7.23628C10.3117 17.1583 10.4188 27.0803 10.5002 37.0014C10.5251 37.6633 10.6751 38.3273 10.94 38.9409C11.209 39.5659 11.595 40.1389 12.071 40.6232C12.55 41.1112 13.118 41.5102 13.7408 41.796C14.3578 42.081 15.0288 42.254 15.7026 42.3052C24.1317 42.6482 32.5667 42.8192 41.0034 42.819C49.4394 42.819 57.8744 42.648 66.3044 42.3048C66.9783 42.2537 67.6483 42.0808 68.2662 41.7969C68.8882 41.5099 69.4572 41.1109 69.9361 40.6233C70.4111 40.1383 70.7971 39.5663 71.0675 38.9408C71.3305 38.3278 71.4825 37.6638 71.5066 37.0008" stroke="#16215B" stroke-width="0.283" stroke-miterlimit="10"/>
<path d="M11.7583 38.7131V6.44019C11.7583 5.26575 12.7093 4.31372 13.8843 4.31372H17.4273H64.6312H68.1743C69.3483 4.31372 70.3003 5.26575 70.3003 6.4397V38.7127C70.3003 39.8871 69.3483 40.8391 68.1743 40.8391L13.8843 40.8392C12.7093 40.8392 11.7583 39.8871 11.7583 38.7131Z" stroke="#00FFFF" stroke-width="0.28" stroke-miterlimit="10"/>
<path d="M66.1805 41.1328C49.4365 41.8178 32.5695 41.8178 15.8265 41.1328C15.5304 41.1201 15.2384 41.0831 14.9494 41.0181C14.8044 40.9861 14.6624 40.9471 14.5224 40.9021C14.3833 40.8561 14.2453 40.8051 14.1104 40.746C13.9754 40.6881 13.8443 40.6231 13.7154 40.5521C13.6503 40.5161 13.5864 40.478 13.5224 40.4391C13.4603 40.4001 13.3984 40.3601 13.3384 40.3181C13.0964 40.1501 12.8724 39.9611 12.6694 39.7491C12.6184 39.6961 12.5683 39.642 12.5194 39.5861C12.4714 39.5311 12.4244 39.4731 12.3783 39.4151C12.2874 39.3001 12.2024 39.1801 12.1243 39.0571C11.9684 38.8111 11.8374 38.5521 11.7304 38.28C11.7044 38.2111 11.6794 38.142 11.6564 38.0731C11.6333 38.0031 11.6113 37.9331 11.5914 37.8631C11.5524 37.7231 11.5184 37.582 11.4924 37.4401C11.4393 37.1561 11.4133 36.8691 11.4124 36.577C11.3963 31.7905 11.3783 27.0025 11.3583 22.2155C11.3382 17.4285 11.3153 12.6415 11.2903 7.85347C11.2815 7.69789 11.2755 7.54189 11.2765 7.38692C11.2775 7.23091 11.2865 7.07692 11.3035 6.92293C11.3105 6.8459 11.3215 6.76888 11.3335 6.69191C11.3455 6.61488 11.3595 6.53889 11.3755 6.46193C11.4075 6.31093 11.4475 6.16188 11.4955 6.01491C11.5425 5.86891 11.5975 5.72591 11.6625 5.58492C11.6935 5.51491 11.7275 5.44588 11.7635 5.37691C11.8005 5.30891 11.8385 5.24092 11.8785 5.1739C12.0375 4.90889 12.2245 4.66689 12.4395 4.44691C12.4935 4.39192 12.5495 4.33791 12.6065 4.28688C12.6355 4.2599 12.6645 4.23488 12.6935 4.20888C12.7235 4.18391 12.7535 4.15889 12.7835 4.13393C12.9045 4.03688 13.0305 3.94588 13.1605 3.86293C13.4205 3.69691 13.6985 3.55989 13.9925 3.44893C14.2865 3.33888 14.5875 3.2599 14.8925 3.20692C15.1985 3.15388 15.5105 3.12691 15.8255 3.12587C32.57 3.03389 49.437 3.03389 66.18 3.12587C66.4961 3.12697 66.8081 3.15395 67.1131 3.20692C67.4191 3.25996 67.7201 3.33894 68.0141 3.44893C68.3081 3.55995 68.5851 3.69698 68.8461 3.86293C68.9761 3.94594 69.1011 4.03596 69.2221 4.13393C69.2521 4.15895 69.2821 4.18398 69.3121 4.20894C69.3411 4.23396 69.3701 4.25996 69.4001 4.28596C69.4561 4.33797 69.5121 4.39192 69.5661 4.44698C69.7801 4.66597 69.9681 4.90895 70.1281 5.17397C70.1681 5.23994 70.2061 5.30794 70.2421 5.37697C70.2791 5.44496 70.3121 5.51497 70.3441 5.58498C70.4071 5.72493 70.4631 5.86897 70.5111 6.01497C70.5591 6.16096 70.5991 6.30995 70.6301 6.46193C70.6471 6.53798 70.6601 6.61494 70.6731 6.69093C70.6851 6.76796 70.6951 6.84492 70.7031 6.92195C70.7201 7.07594 70.7281 7.23097 70.7301 7.38594C70.7311 7.54097 70.7251 7.69698 70.7161 7.85292C70.691 12.6401 70.668 17.4281 70.648 22.215C70.627 27.0021 70.61 31.7901 70.594 36.5768C70.593 36.8688 70.566 37.1588 70.513 37.4458C70.486 37.5908 70.452 37.7328 70.412 37.8718C70.372 38.0118 70.326 38.1498 70.273 38.2848C70.22 38.4198 70.16 38.5528 70.094 38.6838C70.061 38.7498 70.026 38.8148 69.99 38.8788C69.952 38.9428 69.914 39.0058 69.875 39.0668C69.717 39.3138 69.536 39.5428 69.332 39.7548C69.282 39.8068 69.229 39.8588 69.175 39.9088C69.121 39.9598 69.066 40.0088 69.009 40.0568C68.896 40.1528 68.78 40.2418 68.659 40.3238C68.417 40.4898 68.161 40.6318 67.89 40.7488C67.823 40.7778 67.753 40.8058 67.684 40.8318C67.615 40.8578 67.545 40.8818 67.475 40.9038C67.335 40.9498 67.194 40.9878 67.051 41.0198C66.766 41.0828 66.475 41.1208 66.1805 41.1328Z" stroke="#FF00FF" stroke-width="0.283465" stroke-miterlimit="10" stroke-linecap="round" stroke-linejoin="round"/>
<path d="M73.2894 46.9191V52.01H72.6729V47.5654H72.6431L71.4002 48.3907V47.7643L72.6729 46.9191H73.2894ZM74.8903 52.0498C74.7676 52.0498 74.6624 52.0059 74.5746 51.918C74.4867 51.8302 74.4428 51.725 74.4428 51.6023C74.4428 51.4797 74.4867 51.3745 74.5746 51.2866C74.6624 51.1988 74.7676 51.1549 74.8903 51.1549C75.0129 51.1549 75.1181 51.1988 75.206 51.2866C75.2938 51.3745 75.3377 51.4797 75.3377 51.6023C75.3377 51.6835 75.317 51.7581 75.2756 51.8261C75.2358 51.894 75.1819 51.9487 75.114 51.9901C75.0477 52.0299 74.9731 52.0498 74.8903 52.0498ZM77.8689 52.0796C77.5772 52.0796 77.3145 52.0216 77.0809 51.9056C76.8472 51.7896 76.6599 51.6305 76.5191 51.4283C76.3782 51.2262 76.3012 50.9958 76.2879 50.7373H76.8845C76.9077 50.9676 77.0121 51.1582 77.1977 51.309C77.385 51.4582 77.6087 51.5327 77.8689 51.5327C78.0777 51.5327 78.2633 51.4838 78.4257 51.3861C78.5898 51.2883 78.7182 51.1541 78.811 50.9834C78.9055 50.811 78.9527 50.6163 78.9527 50.3992C78.9527 50.1771 78.9038 49.9791 78.806 49.8051C78.7099 49.6294 78.5773 49.4911 78.4083 49.39C78.2393 49.2889 78.0462 49.2375 77.8291 49.2359C77.6733 49.2342 77.5134 49.2582 77.3493 49.308C77.1853 49.356 77.0502 49.4182 76.9442 49.4944L76.3675 49.4248L76.6757 46.9191H79.3206V47.466H77.1927L77.0138 48.9674H77.0436C77.148 48.8845 77.2789 48.8158 77.4363 48.7611C77.5938 48.7064 77.7578 48.679 77.9285 48.679C78.2401 48.679 78.5177 48.7536 78.7613 48.9028C79.0065 49.0503 79.1988 49.2524 79.338 49.5093C79.4788 49.7662 79.5493 50.0595 79.5493 50.3893C79.5493 50.7141 79.4764 51.0041 79.3305 51.2593C79.1863 51.5129 78.9875 51.7134 78.7339 51.8609C78.4804 52.0067 78.192 52.0796 77.8689 52.0796Z" fill="#0000FF"/>
<path fill-rule="evenodd" clip-rule="evenodd" d="M27.8158 17.2844C27.6433 17.1119 27.357 17.1119 27.1845 17.2844L25.8345 18.6344C25.567 18.9019 25.1333 18.9019 24.8658 18.6344C24.5983 18.3669 24.5983 17.9332 24.8658 17.6657L26.2158 16.3157C26.9233 15.6082 28.077 15.6082 28.7845 16.3157L30.1345 17.6657C30.402 17.9332 30.402 18.3669 30.1345 18.6344C29.867 18.9019 29.4333 18.9019 29.1658 18.6344L27.8158 17.2844ZM23.3845 21.0844C23.652 20.8169 23.652 20.3832 23.3845 20.1157C23.117 19.8482 22.6833 19.8482 22.4158 20.1157L21.0658 21.4657C20.3583 22.1732 20.3583 23.3269 21.0658 24.0344L22.4158 25.3844C22.6833 25.6519 23.117 25.6519 23.3845 25.3844C23.652 25.1169 23.652 24.6832 23.3845 24.4157L22.0345 23.0657C21.862 22.8932 21.862 22.6069 22.0345 22.4344L23.3845 21.0844ZM25.8345 26.8657C25.567 26.5982 25.1333 26.5982 24.8658 26.8657C24.5983 27.1332 24.5983 27.5669 24.8658 27.8344L26.2158 29.1844C26.9233 29.8919 28.077 29.8919 28.7845 29.1844L30.1345 27.8344C30.402 27.5669 30.402 27.1332 30.1345 26.8657C29.867 26.5982 29.4333 26.5982 29.1658 26.8657L27.8158 28.2157C27.6433 28.3882 27.357 28.3882 27.1845 28.2157L25.8345 26.8657ZM32.5845 20.1157C32.317 19.8482 31.8833 19.8482 31.6158 20.1157C31.3483 20.3832 31.3483 20.8169 31.6158 21.0844L32.9658 22.4344C33.1383 22.6069 33.1383 22.8932 32.9658 23.0657L31.6158 24.4157C31.3483 24.6832 31.3483 25.1169 31.6158 25.3844C31.8833 25.6519 32.317 25.6519 32.5845 25.3844L33.9345 24.0344C34.642 23.3269 34.642 22.1732 33.9345 21.4657L32.5845 20.1157Z" fill="black"/>
</svg>
