<svg width="95" height="55" viewBox="0 0 95 55" fill="none" xmlns="http://www.w3.org/2000/svg">
<path d="M9.90808 37.0565C9.93207 37.7185 10.084 38.3815 10.3498 38.9938C10.6218 39.6169 11.0108 40.1858 11.4894 40.6656C11.9725 41.1505 12.5445 41.5436 13.1692 41.8247C13.7902 42.1037 14.4622 42.2716 15.1375 42.3184C25.8384 42.6734 36.5444 42.8513 47.2508 42.8517C57.9578 42.8517 68.6638 42.6737 79.3646 42.3186C80.0385 42.2707 80.7115 42.0977 81.33 41.8196C81.643 41.6797 81.9431 41.5127 82.2242 41.3199C82.5052 41.1269 82.7702 40.9079 83.0126 40.6662C83.2526 40.4252 83.4706 40.1623 83.6628 39.88C83.8519 39.601 84.0168 39.304 84.1497 38.9943C84.2167 38.8393 84.2757 38.6823 84.3273 38.5229C84.3793 38.3649 84.4243 38.2049 84.4612 38.0419C84.5363 37.7189 84.5853 37.3889 84.5938 37.0575C84.6708 27.1265 84.7728 17.1945 84.9016 7.26358C84.8876 6.71964 84.7916 6.17459 84.6219 5.65445C84.4529 5.13943 84.2089 4.64737 83.8973 4.20535C83.7413 3.98428 83.5693 3.7764 83.3809 3.58304C83.1938 3.39102 82.9919 3.21402 82.7748 3.05325C82.3448 2.73318 81.8639 2.47818 81.3613 2.29691C80.8863 2.12991 80.3873 2.02493 79.8863 1.97757C79.7183 1.96255 79.5503 1.95255 79.3816 1.95047C57.9615 1.85648 36.5406 1.85648 15.1202 1.95023C14.4182 1.95828 13.7112 2.08719 13.0491 2.3378C12.3901 2.5878 11.7741 2.95877 11.264 3.44205C10.7499 3.92801 10.345 4.52701 10.063 5.18057C9.77905 5.83951 9.62006 6.55252 9.59961 7.26395C9.72565 17.195 9.82861 27.126 9.90765 37.0579" stroke="#16215B" stroke-width="0.283" stroke-miterlimit="10"/>
<path d="M81.033 40.8397H13.4791C12.304 40.8398 11.353 39.8878 11.353 38.7137C11.353 38.7141 11.353 6.47296 11.353 6.47296C11.353 5.29901 12.304 4.34698 13.4791 4.34698C13.479 4.34698 17.022 4.34698 17.022 4.34698C17.0219 4.34698 77.4899 4.34698 77.4899 4.34698C77.4897 4.34698 81.0327 4.34698 81.0327 4.34698C82.2077 4.34698 83.1588 5.29901 83.1588 6.47272C83.1588 6.47272 83.1588 38.7137 83.1587 38.7137C83.1587 39.8878 82.208 40.8397 81.033 40.8397ZM81.033 40.8397L81.0308 40.6683C81.0618 40.6673 81.0928 40.6663 81.1248 40.6653" stroke="#00FFFF" stroke-width="0.28" stroke-miterlimit="10"/>
<path d="M83.6267 36.5974C83.6257 36.8904 83.5977 37.1814 83.5438 37.4693C83.4887 37.7584 83.4077 38.0384 83.2997 38.3094C83.2457 38.4454 83.1847 38.5784 83.1177 38.7093C83.0837 38.7744 83.0477 38.8393 83.0107 38.9034C82.9737 38.9674 82.9347 39.0304 82.8937 39.0914C82.7338 39.3374 82.5507 39.5654 82.3437 39.7754C82.2907 39.8284 82.2377 39.8794 82.1827 39.9294C82.1287 39.9794 82.0717 40.0284 82.0147 40.0754C81.8997 40.1694 81.7817 40.2574 81.6597 40.3393C81.4157 40.5024 81.1567 40.6413 80.8837 40.7554C80.8148 40.7844 80.7457 40.8114 80.6757 40.8364C80.6047 40.8624 80.5347 40.8863 80.4647 40.9084C80.3237 40.9514 80.1818 40.9884 80.0377 41.0194C79.7497 41.0804 79.4578 41.1164 79.1611 41.1263C57.9281 41.8644 36.5831 41.8644 15.3513 41.1261C15.0543 41.1161 14.7593 41.0801 14.4693 41.0181C14.3963 41.003 14.3233 40.9851 14.2513 40.9671C14.1803 40.9481 14.1093 40.9271 14.0383 40.9051C13.8982 40.8611 13.7593 40.81 13.6233 40.7541C13.4883 40.6971 13.3543 40.633 13.2243 40.5631C13.1583 40.5281 13.0933 40.4911 13.0303 40.4521C12.9663 40.414 12.9043 40.3741 12.8423 40.3331C12.5963 40.1671 12.3703 39.9801 12.1633 39.7701C12.1123 39.7181 12.0622 39.664 12.0123 39.6091C11.9633 39.5541 11.9153 39.4961 11.8683 39.4391C11.7763 39.3231 11.6903 39.2041 11.6113 39.081C11.4513 38.836 11.3183 38.5771 11.2093 38.305C11.1833 38.2361 11.1573 38.1671 11.1333 38.097C11.1103 38.0281 11.0873 37.9581 11.0683 37.888C11.0273 37.7471 10.9933 37.6061 10.9673 37.4631C10.9133 37.1791 10.8863 36.8891 10.8852 36.597C10.8692 31.8131 10.8522 27.0281 10.8322 22.244C10.8122 17.4601 10.7892 12.675 10.7646 7.89146C10.7556 7.73351 10.7496 7.5775 10.7506 7.42149C10.7526 7.26549 10.7616 7.10948 10.7776 6.95445C10.7866 6.87645 10.7976 6.79955 10.8096 6.72252C10.8216 6.64452 10.8366 6.56749 10.8526 6.49144C10.8866 6.33849 10.9266 6.18846 10.9766 6.04149C11.0246 5.89452 11.0816 5.75047 11.1466 5.60948C11.1806 5.53954 11.2146 5.47044 11.2516 5.40147C11.2886 5.3325 11.3276 5.26451 11.3686 5.19749C11.5326 4.93248 11.7246 4.68944 11.9436 4.47154C11.9986 4.41551 12.0556 4.36253 12.1136 4.31053C12.1436 4.28551 12.1736 4.25951 12.2026 4.23351C12.2326 4.20848 12.2646 4.18456 12.2946 4.15953C12.4176 4.06248 12.5456 3.97252 12.6786 3.89049C12.9416 3.72545 13.2246 3.58946 13.5206 3.48045C13.8186 3.37254 14.1226 3.29454 14.4316 3.24254C14.7396 3.19054 15.0546 3.16454 15.3722 3.16344C36.5902 3.06554 57.9212 3.06554 79.1395 3.16356C79.4265 3.16454 79.7105 3.18553 79.9895 3.22752C80.2695 3.27061 80.5445 3.3336 80.8145 3.42052C80.8835 3.44261 80.9505 3.46654 81.0175 3.49156C81.0845 3.51561 81.1495 3.54259 81.2155 3.56956C81.3465 3.6256 81.4735 3.68651 81.5975 3.75255C81.7215 3.81956 81.8415 3.89159 81.9575 3.97057C82.0165 4.00963 82.0735 4.05052 82.1305 4.09361C82.1875 4.1356 82.2425 4.17955 82.2975 4.22459C82.5155 4.4066 82.7105 4.60655 82.8835 4.82555C82.9695 4.93456 83.0495 5.04955 83.1245 5.16856C83.1615 5.22752 83.1975 5.28856 83.2315 5.35057C83.2665 5.41161 83.2995 5.47459 83.3295 5.53758C83.4535 5.78954 83.5495 6.0526 83.6195 6.32457C83.6365 6.39159 83.6525 6.46056 83.6665 6.52953C83.6815 6.59862 83.6935 6.66856 83.7045 6.73851C83.7275 6.87852 83.7415 7.01854 83.7515 7.16014C83.7255 12.0671 83.7015 16.9731 83.6815 21.8791C83.6605 26.7851 83.6425 31.6911 83.6255 36.597" stroke="#FF00FF" stroke-width="0.283465" stroke-miterlimit="10" stroke-linecap="round" stroke-linejoin="round"/>
<path opacity="0.5" d="M74.8588 46.9191V52.01H74.2423V47.5654H74.2124L72.9695 48.3907V47.7643L74.2423 46.9191H74.8588ZM76.4596 52.0498C76.337 52.0498 76.2317 52.0059 76.1439 51.918C76.0561 51.8302 76.0122 51.725 76.0122 51.6023C76.0122 51.4797 76.0561 51.3745 76.1439 51.2866C76.2317 51.1988 76.337 51.1549 76.4596 51.1549C76.5822 51.1549 76.6875 51.1988 76.7753 51.2866C76.8631 51.3745 76.907 51.4797 76.907 51.6023C76.907 51.6835 76.8863 51.7581 76.8449 51.8261C76.8051 51.894 76.7513 51.9487 76.6833 51.9901C76.617 52.0299 76.5425 52.0498 76.4596 52.0498ZM78.0064 52.01L80.2834 47.5057V47.466H77.6584V46.9191H80.9197V47.4958L78.6527 52.01H78.0064ZM83.3689 52.0796C83.0772 52.0796 82.8145 52.0216 82.5809 51.9056C82.3472 51.7896 82.1599 51.6305 82.0191 51.4283C81.8782 51.2262 81.8012 50.9958 81.7879 50.7373H82.3845C82.4077 50.9676 82.5121 51.1582 82.6977 51.309C82.885 51.4582 83.1087 51.5327 83.3689 51.5327C83.5777 51.5327 83.7633 51.4838 83.9257 51.3861C84.0898 51.2883 84.2182 51.1541 84.311 50.9834C84.4055 50.811 84.4527 50.6163 84.4527 50.3992C84.4527 50.1771 84.4038 49.9791 84.306 49.8051C84.2099 49.6294 84.0773 49.4911 83.9083 49.39C83.7393 49.2889 83.5462 49.2375 83.3291 49.2359C83.1733 49.2342 83.0134 49.2582 82.8493 49.308C82.6853 49.356 82.5502 49.4182 82.4442 49.4944L81.8675 49.4248L82.1757 46.9191H84.8206V47.466H82.6927L82.5138 48.9674H82.5436C82.648 48.8845 82.7789 48.8158 82.9363 48.7611C83.0938 48.7064 83.2578 48.679 83.4285 48.679C83.7401 48.679 84.0177 48.7536 84.2613 48.9028C84.5065 49.0503 84.6988 49.2524 84.838 49.5093C84.9788 49.7662 85.0493 50.0595 85.0493 50.3893C85.0493 50.7141 84.9764 51.0041 84.8305 51.2593C84.6863 51.5129 84.4875 51.7134 84.2339 51.8609C83.9804 52.0067 83.692 52.0796 83.3689 52.0796Z" fill="#0000FF"/>
<path d="M14.9399 18.6974C14.9399 18.2403 15.1245 17.9063 15.9596 16.8075L20.9014 10.071C20.9701 9.97741 20.9033 9.84546 20.7872 9.84546H16.1618C15.5553 9.84546 15.1509 9.45868 15.1509 8.87851C15.1509 8.28955 15.5641 7.90277 16.1618 7.90277H22.4646C23.2381 7.90277 23.7216 8.35108 23.7216 9.0719C23.7216 9.53779 23.5194 9.91578 22.6931 11.0234L17.8377 17.7342C17.7699 17.8279 17.8369 17.959 17.9525 17.959H22.9832C23.5721 17.959 23.9853 18.3546 23.9853 18.9348C23.9853 19.5061 23.5634 19.9017 22.9744 19.9017H16.2409C15.4674 19.9017 14.9399 19.4094 14.9399 18.6974Z" fill="black"/>
</svg>
