<svg width="122" height="54" viewBox="0 0 122 54" fill="none" xmlns="http://www.w3.org/2000/svg">
<rect x="2.3501" y="1.85" width="117.8" height="50.3" rx="3" stroke="#8B1EFF" style="stroke:#8B1EFF;stroke:color(display-p3 0.5448 0.1190 1.0000);stroke-opacity:1;" stroke-width="0.28"/>
<path d="M110.346 40.8597C109.867 41.3588 109.292 41.7657 108.662 42.0547C108.035 42.3424 107.356 42.5134 106.673 42.5664C91.535 43.0283 76.392 43.2593 61.247 43.2593C46.1022 43.2595 30.9592 43.0284 15.8212 42.5664C15.1389 42.5129 14.4589 42.3339 13.8349 42.0479C13.5195 41.9038 13.2175 41.7328 12.9355 41.5337C12.6523 41.335 12.3873 41.1089 12.1483 40.8589C11.9087 40.6085 11.6937 40.3364 11.5067 40.0454C11.3212 39.7554 11.1622 39.4495 11.0312 39.1304C10.7718 38.4998 10.6188 37.8187 10.5888 37.1396L10.5732 7.25537C10.5995 6.52502 10.7835 5.79309 11.0985 5.12598C11.4123 4.46387 11.8563 3.86292 12.4023 3.38086C12.9453 2.90198 13.5893 2.53894 14.2744 2.29492C14.9592 2.05103 15.6832 1.927 16.4042 1.91992C46.2998 1.82202 76.1938 1.82202 106.09 1.91992C106.451 1.92505 106.814 1.95813 107.171 2.02002C107.528 2.08154 107.879 2.17053 108.22 2.2915C108.904 2.53345 109.547 2.90137 110.092 3.38135C110.639 3.86462 111.086 4.46155 111.399 5.12451C111.714 5.79138 111.895 6.52441 111.921 7.25537L111.905 37.1396C111.875 37.8193 111.73 38.5004 111.468 39.1324C111.204 39.7715 110.824 40.3615 110.346 40.8597Z" stroke="#8B1EFF" style="stroke:#8B1EFF;stroke:color(display-p3 0.5448 0.1190 1.0000);stroke-opacity:1;" stroke-width="0.283" stroke-miterlimit="10"/>
<path d="M11.7354 6.23291V38.5249C11.7354 39.699 12.6873 40.651 13.8613 40.651L108.631 40.6509C109.805 40.6509 110.757 39.699 110.757 38.5249V6.2334C110.757 5.05945 109.805 4.10742 108.631 4.10742H102.253H13.8612C12.6872 4.10742 11.7352 5.05945 11.7354 6.23291Z" stroke="#00FFFF" style="stroke:#00FFFF;stroke:color(display-p3 0.0000 1.0000 1.0000);stroke-opacity:1;" stroke-width="0.28" stroke-miterlimit="10"/>
<path d="M15.6 41.27C13.18 41.27 11.23 39.21 11.23 36.68V7.61999C11.23 5.19999 13.47 3.23999 16.24 3.23999H106.29C109.04 3.23999 111.26 5.14999 111.26 7.50999L111.19 36.69C111.19 39.23 109.23 41.28 106.81 41.28C76.45 42.24 45.98 42.24 15.62 41.28H15.59L15.6 41.27Z" stroke="#FF00FF" style="stroke:#FF00FF;stroke:color(display-p3 1.0000 0.0000 1.0000);stroke-opacity:1;" stroke-width="0.28" stroke-linecap="round" stroke-linejoin="round"/>
<path d="M104.874 50.01V49.5626L106.554 47.7231C106.751 47.5077 106.914 47.3204 107.041 47.1613C107.169 47.0006 107.263 46.8498 107.325 46.7089C107.388 46.5664 107.419 46.4172 107.419 46.2614C107.419 46.0825 107.376 45.9275 107.29 45.7966C107.205 45.6657 107.089 45.5646 106.942 45.4933C106.794 45.4221 106.629 45.3864 106.445 45.3864C106.249 45.3864 106.078 45.427 105.933 45.5082C105.788 45.5878 105.677 45.6997 105.597 45.8438C105.519 45.988 105.48 46.157 105.48 46.3509H104.894C104.894 46.0526 104.962 45.7908 105.1 45.5654C105.237 45.34 105.425 45.1644 105.662 45.0384C105.9 44.9125 106.168 44.8495 106.465 44.8495C106.763 44.8495 107.027 44.9125 107.258 45.0384C107.488 45.1644 107.669 45.3342 107.799 45.548C107.93 45.7618 107.996 45.9996 107.996 46.2614C107.996 46.4487 107.962 46.6318 107.894 46.8108C107.828 46.9881 107.712 47.1862 107.546 47.4049C107.382 47.622 107.154 47.8872 106.862 48.2004L105.719 49.4234V49.4632H108.085V50.01H104.874ZM109.549 50.0498C109.427 50.0498 109.322 50.0059 109.234 49.9181C109.146 49.8302 109.102 49.725 109.102 49.6024C109.102 49.4797 109.146 49.3745 109.234 49.2867C109.322 49.1988 109.427 49.1549 109.549 49.1549C109.672 49.1549 109.777 49.1988 109.865 49.2867C109.953 49.3745 109.997 49.4797 109.997 49.6024C109.997 49.6836 109.976 49.7581 109.935 49.8261C109.895 49.894 109.841 49.9487 109.773 49.9901C109.707 50.0299 109.632 50.0498 109.549 50.0498ZM111.04 50.01V49.5626L112.72 47.7231C112.917 47.5077 113.08 47.3204 113.207 47.1613C113.335 47.0006 113.429 46.8498 113.491 46.7089C113.554 46.5664 113.585 46.4172 113.585 46.2614C113.585 46.0825 113.542 45.9275 113.456 45.7966C113.371 45.6657 113.255 45.5646 113.108 45.4933C112.96 45.4221 112.795 45.3864 112.611 45.3864C112.415 45.3864 112.244 45.427 112.099 45.5082C111.954 45.5878 111.843 45.6997 111.763 45.8438C111.685 45.988 111.646 46.157 111.646 46.3509H111.06C111.06 46.0526 111.128 45.7908 111.266 45.5654C111.403 45.34 111.591 45.1644 111.828 45.0384C112.066 44.9125 112.334 44.8495 112.631 44.8495C112.929 44.8495 113.193 44.9125 113.424 45.0384C113.654 45.1644 113.835 45.3342 113.965 45.548C114.096 45.7618 114.162 45.9996 114.162 46.2614C114.162 46.4487 114.128 46.6318 114.06 46.8108C113.994 46.9881 113.878 47.1862 113.712 47.4049C113.548 47.622 113.32 47.8872 113.028 48.2004L111.885 49.4234V49.4632H114.251V50.01H111.04ZM116.869 50.0796C116.577 50.0796 116.315 50.0216 116.081 49.9056C115.847 49.7896 115.66 49.6305 115.519 49.4283C115.378 49.2262 115.301 48.9958 115.288 48.7373H115.884C115.908 48.9676 116.012 49.1582 116.198 49.309C116.385 49.4582 116.609 49.5328 116.869 49.5328C117.078 49.5328 117.263 49.4839 117.426 49.3861C117.59 49.2883 117.718 49.1541 117.811 48.9834C117.905 48.811 117.953 48.6163 117.953 48.3992C117.953 48.1772 117.904 47.9791 117.806 47.8051C117.71 47.6295 117.577 47.4911 117.408 47.39C117.239 47.2889 117.046 47.2375 116.829 47.2359C116.673 47.2342 116.513 47.2582 116.349 47.308C116.185 47.356 116.05 47.4182 115.944 47.4944L115.367 47.4248L115.676 44.9191H118.321V45.466H116.193L116.014 46.9674H116.044C116.148 46.8846 116.279 46.8158 116.436 46.7611C116.594 46.7064 116.758 46.6791 116.929 46.6791C117.24 46.6791 117.518 46.7536 117.761 46.9028C118.007 47.0503 118.199 47.2524 118.338 47.5093C118.479 47.7662 118.549 48.0595 118.549 48.3893C118.549 48.7141 118.476 49.0041 118.331 49.2593C118.186 49.5129 117.987 49.7134 117.734 49.8609C117.48 50.0067 117.192 50.0796 116.869 50.0796Z" fill="#0000FF" style="fill:#0000FF;fill:color(display-p3 0.0000 0.0000 1.0000);fill-opacity:1;"/>
<path d="M20.3465 19.1421C21.9385 19.1421 22.9605 20.0161 22.9605 21.6651C22.9605 23.6031 21.8065 25.3102 19.7445 25.3102C18.0955 25.3102 17.1305 24.3622 17.1305 22.7042C17.1305 20.7992 18.3595 19.1421 20.3465 19.1421ZM19.7615 24.2212C21.0315 24.2212 21.6665 22.8692 21.6665 21.7552C21.6665 20.9302 21.3035 20.2292 20.3555 20.2292C19.0275 20.2292 18.4255 21.5732 18.4255 22.7032C18.4255 23.5112 18.8215 24.2212 19.7615 24.2212ZM29.7307 19.2821C29.8607 19.2821 29.9207 19.4441 29.8217 19.5281L27.5369 21.4862C27.3867 21.6149 27.3451 21.8302 27.4366 22.0056L28.9797 24.9651C29.0287 25.0581 28.9607 25.1701 28.8557 25.1701H27.7127C27.6597 25.1701 27.6117 25.1401 27.5877 25.0931L26.5291 23.0089C26.4037 22.7619 26.0794 22.6989 25.8706 22.8809L25.4914 23.2114C25.4214 23.2724 25.3733 23.3546 25.3545 23.4455L25.0196 25.0581C25.0056 25.1231 24.9486 25.1691 24.8826 25.1691H23.8656C23.7766 25.1691 23.7106 25.0871 23.7286 25.0001L24.8986 19.392C24.9126 19.327 24.9696 19.281 25.0356 19.281H26.0446C26.1336 19.281 26.1996 19.363 26.1816 19.449L25.9699 20.4698C25.8859 20.8747 26.3709 21.1491 26.6747 20.8685L28.3536 19.318C28.3796 19.294 28.4136 19.281 28.4486 19.281L29.7306 19.282L29.7307 19.2821ZM20.3465 17.7251C17.7054 17.7251 15.7134 19.8661 15.7134 22.7052C15.7134 23.9032 16.0964 24.9162 16.8204 25.6352C17.5404 26.3502 18.5514 26.7282 19.7444 26.7282C20.7304 26.7282 21.6378 26.4404 22.3863 25.9012C22.455 25.8517 22.5519 25.8707 22.6014 25.9394C22.6192 25.9641 22.6378 25.9884 22.6574 26.0122C22.9544 26.3772 23.3954 26.5872 23.8654 26.5872H24.8824C25.3964 26.5872 25.8644 26.3315 26.1502 25.9322C26.2184 25.8368 26.3782 25.8347 26.4472 25.9296C26.7405 26.3325 27.194 26.5872 27.7124 26.5872H28.8554C29.3964 26.5872 29.9064 26.3002 30.1874 25.8372C30.4674 25.3742 30.4864 24.7892 30.2364 24.3102L29.1098 22.1489C29.0797 22.0911 29.0934 22.0202 29.1428 21.9778L30.7444 20.6052C31.2364 20.1832 31.4164 19.4912 31.1914 18.8822C30.9664 18.2742 30.3794 17.8652 29.7304 17.8652H28.4484C28.0106 17.8652 27.6623 18.0545 27.3473 18.3232C27.2864 18.3752 27.1946 18.3693 27.1376 18.313C26.8475 18.0263 26.4579 17.8652 26.0444 17.8652H25.0354C24.4093 17.8652 23.8508 18.2443 23.6072 18.8015C23.5608 18.9076 23.4107 18.9419 23.3297 18.8591C23.292 18.8207 23.2546 18.7844 23.2174 18.7502C22.5005 18.0791 21.5075 17.7251 20.3465 17.7251Z" fill="black" style="fill:black;fill-opacity:1;"/>
<path d="M67.2373 25.2078V21.0856C67.2373 20.7046 67.4717 20.4702 67.8185 20.4702C68.0521 20.4702 68.2387 20.5828 68.3313 20.7787C68.3332 20.7827 68.3396 20.7988 68.3481 20.8206C68.3822 20.9081 68.4905 20.9391 68.5654 20.8824C68.7678 20.7293 69.1501 20.4849 69.528 20.4849C69.7185 20.4849 69.865 20.5337 69.9578 20.6168C70.0701 20.7096 70.1287 20.8561 70.1287 21.0564C70.1287 21.2567 70.0701 21.3885 69.948 21.4862C69.8308 21.5888 69.6501 21.6425 69.4107 21.6474C68.7171 21.6523 68.4534 22.087 68.4534 22.717V25.2079C68.4534 25.6084 68.2092 25.8477 67.8429 25.8477C67.4766 25.8477 67.2373 25.6083 67.2373 25.2078Z" fill="black" style="fill:black;fill-opacity:1;"/>
<path d="M64.8994 22.5481H62.8102C62.7196 22.5481 62.6528 22.4643 62.6718 22.3757C62.8084 21.737 63.28 21.4094 63.8744 21.4094C64.4688 21.4094 64.9229 21.7242 65.0391 22.3825C65.0544 22.469 64.9873 22.5481 64.8994 22.5481ZM63.8696 20.4669C62.3754 20.4669 61.4233 21.5313 61.4233 23.1818C61.4233 24.8323 62.3559 25.8527 63.938 25.8527C64.7382 25.8527 65.3242 25.6749 65.8239 25.1199C66.0476 24.8715 65.9877 24.5008 65.6916 24.3423C65.4422 24.2087 65.1585 24.3368 65.0192 24.4662C64.5765 24.8776 64.2517 24.9152 63.9283 24.9152C63.1821 24.9152 62.6921 24.4305 62.6391 23.607C62.6338 23.5249 62.6982 23.4552 62.7805 23.4552H65.7347C66.0159 23.4552 66.2453 23.2304 66.2517 22.9493C66.2844 21.5064 65.3092 20.4669 63.8696 20.4669Z" fill="black" style="fill:black;fill-opacity:1;"/>
<path d="M53.0195 25.2078V21.0908C53.0195 20.6952 53.2588 20.4705 53.6007 20.4705C53.7547 20.4705 53.888 20.517 53.9898 20.6023C54.0506 20.6532 54.095 20.7227 54.1252 20.7825C54.159 20.8495 54.2401 20.8774 54.3088 20.8469C54.5778 20.7275 55.2028 20.4754 55.6861 20.4754C56.2993 20.4754 56.8681 20.7977 57.0617 20.92C57.1052 20.9475 57.1601 20.9491 57.2052 20.9244C57.4217 20.8056 58.0854 20.4754 58.7727 20.4754C59.7935 20.4754 60.4625 21.1641 60.4625 22.1994V25.2079C60.4625 25.6133 60.2183 25.8477 59.857 25.8477C59.4956 25.8477 59.2465 25.6133 59.2465 25.2079V22.4973C59.2465 21.8624 58.9144 21.501 58.3185 21.501C57.7226 21.501 57.332 21.9308 57.332 22.5511V25.2079C57.332 25.6133 57.1024 25.8477 56.741 25.8477C56.3796 25.8477 56.15 25.6133 56.15 25.2079V22.4338C56.15 21.8575 55.7983 21.5009 55.2318 21.5009C54.6654 21.5009 54.2356 21.9551 54.2356 22.5803V25.2078C54.2356 25.6132 53.9865 25.8476 53.6251 25.8476C53.2637 25.8476 53.0195 25.6132 53.0195 25.2078Z" fill="black" style="fill:black;fill-opacity:1;"/>
<path d="M49.5337 20.4667C48.0249 20.4667 47.0288 21.4921 47.0288 23.162C47.0288 24.8319 48.0151 25.8525 49.5337 25.8525C51.0523 25.8525 52.0386 24.8417 52.0386 23.162C52.0386 21.4823 51.0425 20.4667 49.5337 20.4667ZM49.5337 24.8906C48.7622 24.8906 48.2642 24.2656 48.2642 23.1621C48.2642 22.0586 48.7671 21.4336 49.5337 21.4336C50.3003 21.4336 50.8032 22.0635 50.8032 23.1621C50.8032 24.2607 50.3051 24.8906 49.5337 24.8906Z" fill="black" style="fill:black;fill-opacity:1;"/>
<path d="M43.7578 20.4667C42.249 20.4667 41.2529 21.4921 41.2529 23.162C41.2529 24.8319 42.2392 25.8525 43.7578 25.8525C45.2764 25.8525 46.2627 24.8417 46.2627 23.162C46.2627 21.4823 45.2666 20.4667 43.7578 20.4667ZM43.7578 24.8906C42.9863 24.8906 42.4883 24.2656 42.4883 23.1621C42.4883 22.0586 42.9912 21.4336 43.7578 21.4336C44.5244 21.4336 45.0273 22.0635 45.0273 23.1621C45.0273 24.2607 44.5292 24.8906 43.7578 24.8906Z" fill="black" style="fill:black;fill-opacity:1;"/>
<path d="M37.7864 24.7684C38.7143 24.7684 39.2075 24.3826 39.2075 23.6599C39.2075 22.9372 38.6996 22.566 37.7327 22.566H36.5217C36.4434 22.566 36.38 22.6295 36.38 22.7077V24.6266C36.38 24.7049 36.4435 24.7683 36.5217 24.7683H37.7864V24.7684ZM37.5325 21.6723C38.4115 21.6723 38.9047 21.3012 38.9047 20.6468C38.9047 20.0315 38.4798 19.6848 37.7278 19.6848H36.5217C36.4434 19.6848 36.38 19.7483 36.38 19.8265V21.5306C36.38 21.6089 36.4435 21.6723 36.5217 21.6723H37.5325ZM35.1201 25.0956V19.3576C35.1201 18.9474 35.3594 18.7032 35.7501 18.7032H38.0453C39.3248 18.7032 40.1501 19.3918 40.1501 20.4612C40.1501 21.104 39.7738 21.5637 39.4162 21.8618C39.3378 21.9272 39.3529 22.0511 39.4441 22.0971C39.9672 22.3612 40.492 22.9279 40.492 23.7478C40.492 24.9882 39.5788 25.75 38.0747 25.75H35.7501C35.3594 25.75 35.1201 25.5058 35.1201 25.0956Z" fill="black" style="fill:black;fill-opacity:1;"/>
</svg>
