<svg width="54" height="54" viewBox="0 0 54 54" fill="none" xmlns="http://www.w3.org/2000/svg">
<rect x="1.8501" y="1.85" width="50.3" height="50.3" rx="3" stroke="#8B1EFF" stroke-width="0.28"/>
<path d="M9.91309 37.0476C9.83508 27.0606 9.73608 17.0726 9.61914 7.08457L9.6192 7.08213C9.62323 6.91611 9.63623 6.7501 9.65631 6.58396C9.67633 6.41892 9.70233 6.25498 9.73553 6.09153C9.76752 5.92954 9.80652 5.76853 9.85266 5.60972C9.89966 5.45176 9.95166 5.29575 10.0115 5.14158C10.1985 4.66758 10.4535 4.21665 10.77 3.81431C11.083 3.41733 11.456 3.06833 11.8725 2.78391C12.2875 2.50193 12.7465 2.28391 13.2258 2.13694C13.7078 1.98984 14.2118 1.91392 14.7141 1.90659C18.8081 1.87168 22.9021 1.85459 26.9963 1.85496C31.0893 1.85496 35.1833 1.87192 39.2776 1.9072C39.4396 1.91013 39.6016 1.92112 39.7635 1.93772C40.0035 1.96372 40.2435 2.00474 40.4799 2.0615C40.7139 2.11851 40.9449 2.1904 41.1697 2.27952C41.4037 2.37253 41.6287 2.4835 41.8449 2.61069C42.062 2.73862 42.2689 2.88267 42.4627 3.0416C42.6577 3.20164 42.8417 3.37668 43.0105 3.56321C43.1795 3.75217 43.3355 3.9542 43.476 4.16575C43.757 4.59482 43.975 5.06479 44.125 5.55649C44.276 6.05442 44.358 6.57444 44.373 7.09263C44.252 17.0696 44.154 27.0466 44.08 37.0251C44.074 37.185 44.0601 37.3451 44.039 37.5036C44.018 37.6646 43.991 37.8236 43.9569 37.9813C43.9239 38.1402 43.8839 38.2983 43.8358 38.4537C43.7888 38.6097 43.7349 38.7636 43.675 38.9156C43.484 39.3907 43.228 39.8407 42.9172 40.2495C42.6032 40.6605 42.2352 41.0285 41.8244 41.3395C41.4154 41.6495 40.9624 41.9035 40.4838 42.0906C40.0098 42.2755 39.5098 42.3955 39.0063 42.4435C31.0073 42.9535 22.9843 42.9535 14.9849 42.4436C14.6529 42.4116 14.3229 42.3476 14.0024 42.2535C13.6794 42.1595 13.3654 42.0345 13.0632 41.8819C12.4602 41.5749 11.9092 41.1568 11.4476 40.6577C10.9866 40.1606 10.6126 39.5816 10.349 38.9596C10.219 38.6516 10.115 38.3325 10.0411 38.0056C9.96912 37.6836 9.92407 37.3546 9.91113 37.0245" stroke="#8B1EFF" stroke-width="0.283" stroke-miterlimit="10"/>
<rect x="12.6855" y="5.52831" width="28.63" height="34.31" rx="1.43" stroke="#00FFFF" stroke-width="0.28"/>
<path d="M42.9399 36.5841C42.9578 31.7321 42.9778 26.8791 43.0009 22.0272C43.0219 17.1742 43.0469 12.3221 43.0759 7.46909C43.0767 7.32443 43.0717 7.18039 43.0596 7.03745C43.0497 6.89438 43.0317 6.75143 43.0076 6.61044C42.9606 6.32834 42.8887 6.05441 42.7897 5.7894C42.7646 5.72336 42.7386 5.65744 42.7106 5.59238C42.6816 5.52634 42.6526 5.4614 42.6216 5.39841C42.5587 5.27036 42.4907 5.14743 42.4156 5.02841C42.2667 4.79037 42.0936 4.5704 41.8937 4.36642C41.6957 4.16342 41.4777 3.98642 41.2437 3.83334C41.1266 3.75742 41.0057 3.68637 40.8796 3.62241C40.8167 3.59042 40.7537 3.55942 40.6877 3.53036C40.6237 3.50034 40.5566 3.47336 40.4907 3.44736C40.2236 3.34335 39.9507 3.2684 39.6716 3.21738C39.3926 3.16635 39.1077 3.14035 38.8167 3.13742C37.8378 3.12985 36.8568 3.1218 35.8738 3.11581C34.8898 3.10886 33.9058 3.10385 32.9208 3.09885C30.9498 3.09079 28.9758 3.08688 26.9988 3.08688C26.5038 3.08688 26.0098 3.08688 25.5148 3.08688C25.0208 3.08786 24.5258 3.08884 24.0308 3.08981C23.0418 3.09189 22.0538 3.09482 21.0688 3.09885C19.0968 3.10788 17.1328 3.12082 15.1758 3.13779C15.0301 3.13889 14.8861 3.14682 14.7411 3.15988C14.5981 3.1738 14.4541 3.19284 14.3131 3.21884C14.0301 3.27084 13.7561 3.34787 13.4911 3.45187C13.4251 3.47787 13.3601 3.50485 13.2951 3.53488C13.2301 3.56381 13.1651 3.59579 13.1021 3.6279C12.9751 3.69382 12.8541 3.76486 12.7361 3.84286C12.5011 3.9968 12.2841 4.17587 12.0861 4.37985C12.0371 4.4299 11.9891 4.48288 11.9431 4.53586C11.8971 4.58884 11.8521 4.64279 11.8091 4.69882C11.7231 4.80881 11.6431 4.9238 11.5691 5.04184C11.4951 5.16086 11.4281 5.2839 11.3651 5.40988C11.3351 5.47287 11.3061 5.53683 11.2781 5.60287C11.2501 5.66782 11.2241 5.73483 11.1991 5.80185C11.1011 6.06784 11.0301 6.34079 10.9841 6.61887C10.9381 6.89682 10.9151 7.18088 10.9171 7.46982C10.9454 12.3224 10.9714 17.1744 10.9935 22.0274C11.0165 26.8794 11.0355 31.7324 11.0535 36.5844C11.0541 36.8712 11.0781 37.1551 11.1281 37.4392C11.1411 37.5101 11.1552 37.5811 11.1701 37.6511C11.1862 37.7212 11.2021 37.7911 11.2211 37.8601C11.2581 37.9991 11.3011 38.1351 11.3502 38.2701C11.3991 38.4051 11.4531 38.5382 11.5151 38.6682C11.5461 38.7331 11.5771 38.7982 11.6121 38.8622C11.6461 38.9261 11.6812 38.9901 11.7181 39.0532C11.8651 39.3032 12.0331 39.5361 12.2241 39.7531C12.3192 39.8612 12.4201 39.9652 12.5272 40.0652C12.5791 40.1151 12.6342 40.1632 12.6901 40.2102C12.7451 40.2572 12.8011 40.3021 12.8591 40.3462C13.0881 40.5211 13.3322 40.6721 13.5921 40.7982C13.6571 40.8302 13.7231 40.8601 13.7902 40.8882C13.8571 40.9171 13.9241 40.9431 13.9921 40.9681C14.1281 41.0182 14.2651 41.0611 14.4041 41.0971C14.6801 41.1692 14.9631 41.2131 15.2512 41.2312C16.2243 41.2916 17.1993 41.3446 18.1773 41.3896C19.1533 41.4356 20.1323 41.4726 21.1113 41.5027C23.0683 41.5636 25.0293 41.5936 26.9943 41.5936C27.4853 41.5936 27.9773 41.5916 28.4683 41.5876C28.9593 41.5846 29.4513 41.5786 29.9423 41.5706C30.9253 41.5556 31.9063 41.5335 32.8863 41.5027C34.8443 41.4426 36.7963 41.3526 38.7416 41.2315C38.8866 41.2226 39.0296 41.2066 39.1726 41.1845C39.2436 41.1726 39.3146 41.1596 39.3866 41.1446C39.4566 41.1296 39.5276 41.1136 39.5966 41.0946C39.8766 41.0226 40.1456 40.9226 40.4046 40.7956C40.4706 40.7646 40.5336 40.7315 40.5966 40.6966C40.6606 40.6616 40.7236 40.6246 40.7856 40.5855C40.9096 40.5096 41.0286 40.4266 41.1426 40.3386C41.3726 40.1635 41.5826 39.9666 41.7736 39.7486C41.8216 39.6936 41.8676 39.6375 41.9136 39.5807C41.9586 39.5237 42.0026 39.4655 42.0446 39.4066C42.1296 39.2896 42.2076 39.1685 42.2796 39.0446C42.4256 38.7966 42.5466 38.5376 42.6446 38.2656C42.6696 38.1976 42.6926 38.1286 42.7146 38.0595C42.7356 37.9906 42.7556 37.9216 42.7736 37.8526C42.8106 37.7136 42.8416 37.5746 42.8656 37.4345C42.9146 37.1537 42.9386 36.8706 42.9399 36.5841Z" stroke="#FF00FF" stroke-width="0.283465" stroke-miterlimit="10" stroke-linecap="round" stroke-linejoin="round"/>
<path fill-rule="evenodd" clip-rule="evenodd" d="M27.0001 30.96C26.608 30.96 26.2901 30.6421 26.2901 30.25V29.0675C26.2901 28.9598 26.1735 28.8924 26.0801 28.9463L25.3551 29.3649C25.0155 29.5609 24.5813 29.4446 24.3853 29.105C24.1892 28.7654 24.3055 28.3312 24.6451 28.1351L26.2201 27.2258C26.2634 27.2008 26.2901 27.1546 26.2901 27.1046V24.2223C26.2901 24.1145 26.1735 24.0472 26.0801 24.1011L23.5841 25.5421C23.5408 25.5672 23.5141 25.6134 23.5141 25.6634L23.5141 27.482C23.5141 27.8742 23.1962 28.192 22.8041 28.192C22.412 28.192 22.0941 27.8742 22.0941 27.482L22.0941 26.6449C22.0941 26.5371 21.9774 26.4698 21.8841 26.5236L20.86 27.1149C20.5205 27.3109 20.0862 27.1946 19.8902 26.855C19.6941 26.5154 19.8105 26.0812 20.15 25.8851L21.1741 25.2939C21.2674 25.24 21.2674 25.1053 21.1741 25.0514L20.4491 24.6328C20.1095 24.4368 19.9931 24.0025 20.1892 23.6629C20.3853 23.3234 20.8195 23.207 21.1591 23.4031L22.7341 24.3124C22.7774 24.3374 22.8308 24.3374 22.8741 24.3124L25.3702 22.8712C25.4636 22.8173 25.4636 22.6826 25.3702 22.6287L22.8741 21.1876C22.8308 21.1626 22.7774 21.1626 22.7341 21.1876L21.1591 22.0969C20.8195 22.293 20.3853 22.1766 20.1892 21.837C19.9932 21.4975 20.1095 21.0632 20.4491 20.8672L21.1741 20.4486C21.2675 20.3947 21.2675 20.26 21.1741 20.2061L20.1501 19.6149C19.8105 19.4188 19.6941 18.9846 19.8902 18.645C20.0863 18.3054 20.5205 18.1891 20.8601 18.3851L21.8841 18.9763C21.9775 19.0302 22.0941 18.9629 22.0941 18.8551L22.0941 18.0179C22.0941 17.6258 22.412 17.3079 22.8041 17.3079C23.1962 17.3079 23.5141 17.6258 23.5141 18.0179V19.8366C23.5141 19.8866 23.5408 19.9328 23.5841 19.9578L26.0801 21.3989C26.1735 21.4528 26.2901 21.3854 26.2901 21.2777V18.3955C26.2901 18.3454 26.2634 18.2992 26.2201 18.2742L24.6451 17.3649C24.3055 17.1688 24.1892 16.7346 24.3853 16.395C24.5813 16.0554 25.0155 15.9391 25.3551 16.1351L26.0801 16.5537C26.1735 16.6076 26.2901 16.5402 26.2901 16.4325V15.25C26.2901 14.8579 26.608 14.54 27.0001 14.54C27.3923 14.54 27.7101 14.8579 27.7101 15.25V16.4325C27.7101 16.5402 27.8268 16.6076 27.9201 16.5537L28.6451 16.1351C28.9847 15.9391 29.4189 16.0554 29.615 16.395C29.8111 16.7346 29.6947 17.1688 29.3551 17.3649L27.7801 18.2742C27.7368 18.2992 27.7101 18.3454 27.7101 18.3954V21.2778C27.7101 21.3856 27.8268 21.4529 27.9201 21.3991L30.4164 19.9578C30.4597 19.9328 30.4864 19.8866 30.4864 19.8366V18.0179C30.4864 17.6258 30.8043 17.3079 31.1964 17.3079C31.5885 17.3079 31.9064 17.6258 31.9064 18.0179V18.8551C31.9064 18.9629 32.023 19.0302 32.1164 18.9763L33.1404 18.3851C33.48 18.1891 33.9142 18.3054 34.1103 18.645C34.3064 18.9846 34.19 19.4188 33.8504 19.6149L32.8264 20.2061C32.7331 20.26 32.7331 20.3947 32.8264 20.4486L33.5514 20.8672C33.891 21.0632 34.0073 21.4975 33.8113 21.837C33.6152 22.1766 33.181 22.293 32.8414 22.0969L31.2664 21.1876C31.2231 21.1626 31.1697 21.1626 31.1264 21.1876L28.6302 22.6287C28.5369 22.6826 28.5369 22.8173 28.6302 22.8712L31.1264 24.3124C31.1697 24.3374 31.2231 24.3374 31.2664 24.3124L32.8414 23.4031C33.181 23.207 33.6152 23.3234 33.8113 23.6629C34.0074 24.0025 33.891 24.4368 33.5514 24.6328L32.8264 25.0514C32.7331 25.1053 32.7331 25.24 32.8264 25.2939L33.8505 25.8851C34.19 26.0812 34.3064 26.5154 34.1103 26.855C33.9143 27.1946 33.48 27.3109 33.1405 27.1149L32.1164 26.5236C32.0231 26.4698 31.9064 26.5371 31.9064 26.6449V27.482C31.9064 27.8742 31.5885 28.192 31.1964 28.192C30.8043 28.192 30.4864 27.8742 30.4864 27.482V25.6634C30.4864 25.6134 30.4597 25.5672 30.4164 25.5421L27.9201 24.1009C27.8268 24.047 27.7101 24.1144 27.7101 24.2222V27.1046C27.7101 27.1546 27.7368 27.2008 27.7801 27.2258L29.3551 28.1351C29.6947 28.3312 29.8111 28.7654 29.615 29.105C29.4189 29.4446 28.9847 29.5609 28.6451 29.3649L27.9201 28.9463C27.8268 28.8924 27.7101 28.9598 27.7101 29.0675V30.25C27.7101 30.6421 27.3923 30.96 27.0001 30.96Z" fill="black"/>
</svg>
