<svg width="54" height="55" viewBox="0 0 54 55" fill="none" xmlns="http://www.w3.org/2000/svg">
<rect x="1.8501" y="2.7984" width="50.3" height="50.3" rx="3" stroke="#8B1EFF" stroke-width="0.28"/>
<path d="M9.91309 37.996C9.83508 28.009 9.73608 18.021 9.61914 8.03296L9.6192 8.03052C9.62323 7.86451 9.63623 7.69849 9.65631 7.53235C9.67633 7.36732 9.70233 7.20337 9.73553 7.03992C9.76752 6.87794 9.80652 6.71692 9.85266 6.55811C9.89966 6.40015 9.95166 6.24415 10.0115 6.08997C10.1985 5.61597 10.4535 5.16504 10.77 4.7627C11.083 4.36573 11.456 4.01673 11.8725 3.73231C12.2875 3.45032 12.7465 3.23231 13.2258 3.08533C13.7078 2.93824 14.2118 2.86231 14.7141 2.85499C18.8081 2.82007 22.9021 2.80298 26.9963 2.80335C31.0893 2.80335 35.1833 2.82032 39.2776 2.8556C39.4396 2.85853 39.6016 2.86951 39.7635 2.88611C40.0035 2.91212 40.2435 2.95313 40.4799 3.00989C40.7139 3.0669 40.9449 3.1388 41.1697 3.22791C41.4037 3.32093 41.6287 3.43189 41.8449 3.55909C42.062 3.68702 42.2689 3.83106 42.4627 3.99C42.6577 4.15003 42.8417 4.32508 43.0105 4.5116C43.1795 4.70057 43.3355 4.90259 43.476 5.11414C43.757 5.54322 43.975 6.01319 44.125 6.50489C44.276 7.00281 44.358 7.52283 44.373 8.04102C44.252 18.018 44.154 27.995 44.08 37.9735C44.074 38.1334 44.0601 38.2935 44.039 38.452C44.018 38.613 43.991 38.772 43.9569 38.9297C43.9239 39.0886 43.8839 39.2467 43.8358 39.4021C43.7888 39.5581 43.7349 39.712 43.675 39.864C43.484 40.3391 43.228 40.7891 42.9172 41.1979C42.6032 41.6089 42.2352 41.9769 41.8244 42.2878C41.4154 42.5979 40.9624 42.8519 40.4838 43.0389C40.0098 43.2239 39.5098 43.3439 39.0063 43.3919C31.0073 43.9019 22.9843 43.9019 14.9849 43.392C14.6529 43.36 14.3229 43.296 14.0024 43.2019C13.6794 43.1079 13.3654 42.9829 13.0632 42.8303C12.4602 42.5233 11.9092 42.1052 11.4476 41.6061C10.9866 41.109 10.6126 40.53 10.349 39.908C10.219 39.6 10.115 39.2809 10.0411 38.954C9.96912 38.632 9.92407 38.303 9.91113 37.9729" stroke="#8B1EFF" stroke-width="0.283" stroke-miterlimit="10"/>
<rect x="12.6855" y="6.47675" width="28.63" height="34.31" rx="1.43" stroke="#00FFFF" stroke-width="0.28"/>
<path d="M42.9396 37.5325C42.9576 32.6805 42.9776 27.8275 43.0006 22.9756C43.0216 18.1226 43.0466 13.2705 43.0756 8.41748C43.0764 8.27283 43.0714 8.12878 43.0594 7.98584C43.0494 7.84277 43.0314 7.69983 43.0074 7.55884C42.9604 7.27673 42.8884 7.00281 42.7894 6.73779C42.7644 6.67175 42.7384 6.60583 42.7104 6.54077C42.6814 6.47473 42.6524 6.40979 42.6214 6.3468C42.5584 6.21875 42.4904 6.09583 42.4154 5.97681C42.2664 5.73877 42.0934 5.5188 41.8934 5.31482C41.6954 5.11182 41.4774 4.93481 41.2434 4.78174C41.1264 4.70581 41.0054 4.63477 40.8794 4.5708C40.8164 4.53882 40.7534 4.50781 40.6874 4.47876C40.6234 4.44873 40.5564 4.42175 40.4904 4.39575C40.2234 4.29175 39.9504 4.2168 39.6714 4.16577C39.3924 4.11475 39.1074 4.08875 38.8164 4.08582C37.8376 4.07825 36.8566 4.07019 35.8735 4.06421C34.8896 4.05725 33.9056 4.05225 32.9205 4.04724C30.9496 4.03918 28.9756 4.03528 26.9985 4.03528C26.5035 4.03528 26.0096 4.03528 25.5146 4.03528C25.0206 4.03625 24.5256 4.03723 24.0306 4.03821C23.0416 4.04028 22.0536 4.04321 21.0685 4.04724C19.0966 4.05627 17.1326 4.06921 15.1755 4.08618C15.0298 4.08728 14.8859 4.09521 14.7408 4.10828C14.5979 4.12219 14.4539 4.14124 14.3129 4.16724C14.0298 4.21924 13.7559 4.29626 13.4908 4.40027C13.4249 4.42627 13.3599 4.45325 13.2949 4.48328C13.2299 4.51221 13.1649 4.54419 13.1019 4.57629C12.9749 4.64221 12.8539 4.71326 12.7359 4.79126C12.5009 4.94519 12.2839 5.12427 12.0859 5.32825C12.0369 5.3783 11.9889 5.43127 11.9429 5.48425C11.8969 5.53723 11.8519 5.59119 11.8089 5.64722C11.7229 5.7572 11.6429 5.87219 11.5688 5.99023C11.4949 6.10925 11.4279 6.2323 11.3649 6.35828C11.3349 6.42126 11.3058 6.48523 11.2779 6.55127C11.2499 6.61621 11.2239 6.68323 11.1989 6.75024C11.1009 7.01624 11.0298 7.28918 10.9839 7.56726C10.9379 7.84521 10.9149 8.12927 10.9169 8.41821C10.9452 13.2708 10.9712 18.1228 10.9932 22.9758C11.0162 27.8278 11.0352 32.6808 11.0532 37.5328C11.0539 37.8196 11.0779 38.1035 11.1279 38.3876C11.1409 38.4585 11.1549 38.5295 11.1699 38.5995C11.1859 38.6696 11.2019 38.7395 11.2209 38.8085C11.2579 38.9475 11.3009 39.0835 11.3499 39.2185C11.3989 39.3535 11.4529 39.4866 11.5149 39.6166C11.5459 39.6815 11.5769 39.7466 11.6119 39.8105C11.6459 39.8745 11.6809 39.9385 11.7179 40.0016C11.8649 40.2516 12.0329 40.4845 12.2239 40.7015C12.3189 40.8096 12.4199 40.9136 12.5269 41.0135C12.5789 41.0635 12.6339 41.1116 12.6899 41.1586C12.7449 41.2056 12.8009 41.2505 12.8589 41.2946C13.0879 41.4695 13.3319 41.6205 13.5919 41.7466C13.6569 41.7786 13.7229 41.8085 13.7899 41.8365C13.8569 41.8655 13.9239 41.8915 13.9919 41.9165C14.1279 41.9666 14.2649 42.0095 14.4039 42.0455C14.6799 42.1176 14.9629 42.1615 15.2509 42.1796C16.2241 42.24 17.1991 42.293 18.1771 42.338C19.1531 42.384 20.1321 42.421 21.1111 42.451C23.0681 42.512 25.0291 42.542 26.9941 42.542C27.485 42.542 27.9771 42.54 28.4681 42.536C28.959 42.533 29.451 42.527 29.9421 42.519C30.925 42.504 31.9061 42.4819 32.886 42.451C34.8441 42.391 36.7961 42.301 38.7414 42.1799C38.8864 42.171 39.0294 42.155 39.1724 42.1329C39.2433 42.121 39.3144 42.108 39.3864 42.093C39.4564 42.078 39.5273 42.062 39.5964 42.043C39.8763 41.9709 40.1454 41.871 40.4044 41.744C40.4703 41.713 40.5334 41.6799 40.5964 41.645C40.6603 41.61 40.7234 41.573 40.7853 41.5339C40.9094 41.458 41.0284 41.375 41.1423 41.287C41.3724 41.1119 41.5823 40.915 41.7734 40.697C41.8214 40.642 41.8674 40.5859 41.9134 40.5291C41.9584 40.472 42.0024 40.4139 42.0444 40.355C42.1293 40.238 42.2073 40.1169 42.2794 39.993C42.4254 39.745 42.5464 39.486 42.6443 39.214C42.6694 39.146 42.6924 39.077 42.7144 39.0079C42.7354 38.939 42.7554 38.87 42.7734 38.801C42.8104 38.662 42.8414 38.5229 42.8654 38.3829C42.9144 38.1021 42.9384 37.819 42.9396 37.5325Z" stroke="#FF00FF" stroke-width="0.283465" stroke-miterlimit="10" stroke-linecap="round" stroke-linejoin="round"/>
<path fill-rule="evenodd" clip-rule="evenodd" d="M22.6431 8.34635C22.8543 8.22456 23.1143 8.22421 23.3258 8.34542L28.0055 11.027C28.2182 11.1489 28.3496 11.3752 28.3499 11.6204C28.3502 11.8656 28.2195 12.0923 28.0071 12.2147L23.3567 14.8963C23.1455 15.0181 22.8855 15.0185 22.6739 14.8972L17.9943 12.2157C17.7816 12.0938 17.6502 11.8675 17.6499 11.6223C17.6496 11.3771 17.7803 11.1504 17.9927 11.0279L22.6431 8.34635ZM19.9204 11.4978C19.8268 11.5518 19.827 11.6869 19.9207 11.7406L22.8738 13.4328C22.9603 13.4823 23.0666 13.4822 23.1529 13.4324L26.0794 11.7449C26.173 11.6909 26.1728 11.5558 26.0791 11.5021L23.126 9.80989C23.0395 9.76034 22.9332 9.76049 22.8469 9.81027L19.9204 11.4978ZM25.8211 20.3191L23.9234 16.4138C23.556 15.6334 22.444 15.6334 22.0766 16.4138L20.1789 20.3191C20.0527 20.5788 20.1029 20.8898 20.3045 21.0966C20.506 21.3034 20.8156 21.3616 21.0785 21.2421L22.8791 20.4236C22.9528 20.3901 23.0373 20.3901 23.1109 20.4236L24.9116 21.2421C25.0006 21.2826 25.0972 21.3035 25.195 21.3035H25.205C25.441 21.3035 25.6604 21.182 25.7857 20.9819C25.9109 20.7818 25.9243 20.5314 25.8211 20.3191ZM17.7407 21.435C17.9288 21.1068 18.3474 20.9932 18.6756 21.1812L22.8739 23.587C22.9604 23.6366 23.0667 23.6364 23.153 23.5866L27.3228 21.1822C27.6506 20.9932 28.0694 21.1057 28.2584 21.4334C28.4474 21.7611 28.3349 22.18 28.0072 22.369L23.3568 25.0506C23.1456 25.1724 22.8856 25.1727 22.6741 25.0515L17.9944 22.3699C17.6662 22.1818 17.5526 21.7632 17.7407 21.435Z" fill="black"/>
<path d="M38.682 34.7798C38.682 35.4047 38.1255 35.8637 37.4419 35.8637C36.9147 35.8637 36.5582 35.5952 36.5582 35.1705C36.5582 34.7458 36.8951 34.4968 37.4809 34.4577L38.6293 34.3877C38.6578 34.386 38.6819 34.4086 38.6819 34.4372V34.78L38.682 34.7798ZM37.7641 31.4159C36.773 31.4159 36.2014 31.7562 35.9091 32.0836C35.7398 32.2733 35.7181 32.6727 35.9503 32.8584C36.2217 33.0754 36.6763 32.913 36.8325 32.721C36.9727 32.5486 37.2875 32.3735 37.7151 32.3679C38.3155 32.36 38.6818 32.6804 38.6818 33.2223V33.4249C38.6818 33.4512 38.6613 33.4729 38.635 33.4744L37.3098 33.5499C36.0504 33.628 35.3425 34.3013 35.3425 35.2191C35.3425 36.1369 36.0724 36.7814 37.0708 36.7814C37.7026 36.7814 38.3185 36.6164 38.6249 36.4911C38.6892 36.4648 38.7629 36.4896 38.7991 36.5489C38.8019 36.5534 38.8043 36.5572 38.8063 36.5601C38.8877 36.676 39.0342 36.796 39.2922 36.796C39.634 36.796 39.8829 36.5763 39.8829 36.1858V33.1344C39.8829 32.0945 39.0481 31.4159 37.7641 31.4159Z" fill="black"/>
<path d="M29.7019 36.1563V30.1789C29.7019 29.7931 29.9314 29.5538 30.3026 29.5538C30.6738 29.5538 30.9033 29.7931 30.9033 30.1789V31.6546C30.9033 31.7578 31.0099 31.8264 31.1038 31.7836C31.3991 31.649 31.9796 31.4242 32.5637 31.4242C33.7064 31.4242 34.3755 32.1763 34.3755 33.363V36.1564C34.3755 36.5666 34.1216 36.7961 33.7651 36.7961C33.4086 36.7961 33.1595 36.5666 33.1595 36.1564V33.6121C33.1595 32.8893 32.7981 32.4547 32.0949 32.4547C31.3917 32.4547 30.918 32.9626 30.918 33.7244V36.1564C30.918 36.5666 30.6689 36.7961 30.3124 36.7961C29.9559 36.7961 29.7019 36.5665 29.7019 36.1563Z" fill="black"/>
<path d="M26.167 35.7846C25.41 35.7846 24.907 35.1253 24.9021 34.1095C24.907 33.1035 25.3808 32.4344 26.167 32.4344C26.9532 32.4344 27.4416 33.0888 27.4416 34.1095C27.4416 35.1351 26.924 35.7846 26.167 35.7846ZM28.6869 34.1094C28.6869 32.4538 27.8518 31.4332 26.538 31.4332C26.052 31.4332 25.2819 31.6772 24.981 31.7792C24.9135 31.8021 24.8388 31.7724 24.8071 31.7084C24.7991 31.6921 24.7908 31.6759 24.7804 31.6611C24.6611 31.4906 24.4854 31.4186 24.2867 31.4186C23.9399 31.4186 23.6958 31.6432 23.6958 32.0437V37.8994C23.6958 38.3097 23.9448 38.5392 24.3014 38.5392C24.658 38.5392 24.9119 38.3097 24.9119 37.8994V36.5412C24.9119 36.4385 25.0178 36.3696 25.1114 36.4118C25.4733 36.5747 26.076 36.7809 26.5577 36.7809C27.8567 36.7809 28.687 35.7602 28.687 34.1095L28.6869 34.1094Z" fill="black"/>
<path d="M21.8563 36.7961C21.4999 36.7961 21.2458 36.5666 21.2458 36.1564V30.1944C21.2458 29.7842 21.4997 29.5547 21.8563 29.5547C22.2128 29.5547 22.4617 29.7842 22.4617 30.1944V36.1564C22.4617 36.5666 22.2128 36.7961 21.8563 36.7961Z" fill="black"/>
<path d="M20.1328 35.8147L18.082 30.2482C17.9063 29.7746 17.6231 29.5695 17.1592 29.5695C16.6953 29.5695 16.417 29.7843 16.2461 30.2531L14.2002 35.8147C14.1416 35.9661 14.1172 36.1028 14.1172 36.2004C14.1172 36.5568 14.3662 36.7815 14.752 36.7815C15.0792 36.7815 15.2647 36.6204 15.3819 36.2395L15.8127 34.9969C15.8325 34.9399 15.8862 34.9016 15.9466 34.9016H18.3765C18.437 34.9016 18.4908 34.94 18.5105 34.9972L18.9415 36.2493C19.0538 36.6253 19.2442 36.7815 19.586 36.7815C19.9522 36.7815 20.2159 36.5422 20.2159 36.2004C20.2159 36.0881 20.1915 35.9758 20.1329 35.8147H20.1328ZM16.2048 33.7194L17.0177 31.2525C17.0604 31.1229 17.2437 31.1226 17.2868 31.2521L18.1078 33.719C18.1383 33.8108 18.07 33.9055 17.9733 33.9055H16.3394C16.2429 33.9055 16.1746 33.8111 16.2048 33.7194Z" fill="black"/>
</svg>
