<svg width="82" height="54" viewBox="0 0 82 54" fill="none" xmlns="http://www.w3.org/2000/svg">
<rect x="2.3501" y="1.85001" width="77.3" height="50.3" rx="3" stroke="#8B1EFF" stroke-width="0.28"/>
<path d="M71.5066 37.0027C71.5846 27.0807 71.6916 17.1587 71.8296 7.23665C71.8196 6.87965 71.7786 6.52266 71.7033 6.17201C71.6303 5.82301 71.5243 5.48201 71.3845 5.15382C71.2465 4.82881 71.0755 4.51686 70.8758 4.22511C70.6758 3.93513 70.4478 3.66512 70.1946 3.42079C69.9416 3.17781 69.6646 2.96077 69.3691 2.77412C69.0731 2.58711 68.7581 2.42915 68.4323 2.30342C68.1063 2.17744 67.7673 2.0815 67.4235 2.01741C67.0775 1.95345 66.7275 1.91939 66.3743 1.91585C49.4603 1.82491 32.5453 1.82491 15.6315 1.91548C15.2935 1.92159 14.9565 1.95454 14.6239 2.01485C14.2919 2.07381 13.9639 2.15974 13.6493 2.27437C13.4003 2.36739 13.1573 2.47835 12.9243 2.60493C12.6923 2.73299 12.4683 2.87801 12.2566 3.03865C12.0456 3.20058 11.8466 3.37856 11.6627 3.57112C11.4777 3.76515 11.3097 3.97414 11.1584 4.19398C11.0064 4.41493 10.8714 4.64796 10.7536 4.88844C10.6356 5.13149 10.5356 5.38149 10.4522 5.63869C10.2862 6.15468 10.1912 6.69667 10.1775 7.23622C10.3115 17.1582 10.4185 27.0802 10.4999 37.0013C10.5249 37.6633 10.6749 38.3273 10.9398 38.9409C11.2088 39.5659 11.5948 40.1389 12.0707 40.6231C12.5497 41.1111 13.1177 41.5101 13.7406 41.796C14.3576 42.0809 15.0286 42.254 15.7024 42.3051C24.1314 42.6481 32.5664 42.8191 41.0032 42.819C49.4392 42.819 57.8742 42.648 66.3041 42.3047C66.9781 42.2537 67.6481 42.0807 68.266 41.7968C68.888 41.5098 69.457 41.1109 69.9359 40.6232C70.4109 40.1383 70.7969 39.5662 71.0673 38.9408C71.3303 38.3278 71.4823 37.6638 71.5063 37.0007" stroke="#8B1EFF" stroke-width="0.283" stroke-miterlimit="10"/>
<path d="M11.7583 38.7131V6.44019C11.7583 5.26575 12.7093 4.31372 13.8843 4.31372H17.4273H64.6312H68.1743C69.3483 4.31372 70.3003 5.26575 70.3003 6.4397V38.7127C70.3003 39.8871 69.3483 40.8391 68.1743 40.8391L13.8843 40.8392C12.7093 40.8392 11.7583 39.8871 11.7583 38.7131Z" stroke="#00FFFF" stroke-width="0.28" stroke-miterlimit="10"/>
<path d="M66.1807 41.1327C49.4367 41.8178 32.5697 41.8178 15.8267 41.1327C15.5306 41.12 15.2386 41.083 14.9496 41.018C14.8046 40.986 14.6626 40.947 14.5226 40.902C14.3836 40.856 14.2456 40.805 14.1106 40.746C13.9756 40.688 13.8446 40.623 13.7156 40.552C13.6506 40.516 13.5866 40.478 13.5226 40.439C13.4606 40.4 13.3986 40.36 13.3386 40.318C13.0966 40.15 12.8726 39.961 12.6696 39.749C12.6186 39.696 12.5686 39.642 12.5196 39.586C12.4716 39.531 12.4246 39.473 12.3786 39.415C12.2876 39.3 12.2026 39.18 12.1246 39.057C11.9686 38.811 11.8376 38.552 11.7306 38.28C11.7046 38.211 11.6796 38.142 11.6566 38.073C11.6336 38.003 11.6116 37.933 11.5916 37.863C11.5526 37.723 11.5186 37.582 11.4926 37.44C11.4396 37.156 11.4136 36.869 11.4126 36.577C11.3965 31.7904 11.3785 27.0025 11.3585 22.2155C11.3385 17.4284 11.3155 12.6414 11.2905 7.85341C11.2817 7.69783 11.2757 7.54182 11.2767 7.38686C11.2777 7.23085 11.2867 7.07686 11.3037 6.92287C11.3107 6.84584 11.3217 6.76881 11.3337 6.69185C11.3457 6.61482 11.3597 6.53883 11.3757 6.46187C11.4077 6.31087 11.4477 6.16182 11.4957 6.01485C11.5427 5.86885 11.5977 5.72585 11.6627 5.58485C11.6937 5.51485 11.7277 5.44582 11.7637 5.37685C11.8007 5.30885 11.8387 5.24086 11.8787 5.17384C12.0377 4.90883 12.2247 4.66682 12.4397 4.44685C12.4937 4.39186 12.5497 4.33784 12.6067 4.28682C12.6357 4.25984 12.6647 4.23482 12.6937 4.20882C12.7237 4.18385 12.7537 4.15883 12.7837 4.13387C12.9047 4.03682 13.0307 3.94582 13.1607 3.86287C13.4207 3.69685 13.6987 3.55983 13.9927 3.44887C14.2867 3.33882 14.5877 3.25984 14.8927 3.20686C15.1987 3.15382 15.5107 3.12685 15.8257 3.12581C32.5702 3.03383 49.4372 3.03383 66.1802 3.12581C66.4963 3.12691 66.8083 3.15388 67.1133 3.20686C67.4193 3.2599 67.7203 3.33888 68.0143 3.44887C68.3083 3.55989 68.5853 3.69691 68.8463 3.86287C68.9763 3.94588 69.1013 4.0359 69.2223 4.13387C69.2523 4.15889 69.2823 4.18391 69.3123 4.20888C69.3413 4.2339 69.3703 4.2599 69.4003 4.2859C69.4563 4.33791 69.5123 4.39186 69.5663 4.44691C69.7803 4.66591 69.9683 4.90889 70.1283 5.1739C70.1683 5.23988 70.2063 5.30788 70.2423 5.37691C70.2793 5.4449 70.3123 5.51491 70.3443 5.58492C70.4073 5.72487 70.4633 5.86891 70.5113 6.01491C70.5593 6.1609 70.5993 6.30989 70.6303 6.46187C70.6473 6.53792 70.6603 6.61488 70.6733 6.69087C70.6853 6.7679 70.6953 6.84486 70.7033 6.92189C70.7203 7.07588 70.7283 7.23091 70.7303 7.38588C70.7313 7.54091 70.7253 7.69691 70.7163 7.85286C70.6912 12.64 70.6682 17.428 70.6482 22.215C70.6272 27.002 70.6102 31.79 70.5942 36.5767C70.5932 36.8687 70.5662 37.1587 70.5132 37.4458C70.4862 37.5907 70.4522 37.7327 70.4122 37.8717C70.3722 38.0117 70.3262 38.1497 70.2732 38.2847C70.2202 38.4198 70.1602 38.5527 70.0942 38.6837C70.0612 38.7497 70.0262 38.8147 69.9902 38.8787C69.9522 38.9428 69.9142 39.0058 69.8752 39.0667C69.7172 39.3137 69.5362 39.5427 69.3322 39.7547C69.2822 39.8067 69.2292 39.8587 69.1752 39.9087C69.1212 39.9597 69.0662 40.0087 69.0092 40.0567C68.8962 40.1527 68.7802 40.2417 68.6592 40.3237C68.4172 40.4898 68.1612 40.6317 67.8902 40.7487C67.8232 40.7777 67.7532 40.8057 67.6842 40.8317C67.6152 40.8577 67.5452 40.8817 67.4752 40.9038C67.3352 40.9497 67.1942 40.9877 67.0512 41.0197C66.7662 41.0827 66.4752 41.1207 66.1807 41.1327Z" stroke="#FF00FF" stroke-width="0.283465" stroke-miterlimit="10" stroke-linecap="round" stroke-linejoin="round"/>
<path d="M66.9147 44.9191V50.01H66.2982V45.5654H66.2684L65.0255 46.3907V45.7643L66.2982 44.9191H66.9147ZM68.5155 50.0498C68.3929 50.0498 68.2876 50.0059 68.1998 49.918C68.112 49.8302 68.0681 49.725 68.0681 49.6023C68.0681 49.4797 68.112 49.3745 68.1998 49.2866C68.2876 49.1988 68.3929 49.1549 68.5155 49.1549C68.6381 49.1549 68.7434 49.1988 68.8312 49.2866C68.919 49.3745 68.963 49.4797 68.963 49.6023C68.963 49.6835 68.9422 49.7581 68.9008 49.8261C68.861 49.894 68.8072 49.9487 68.7392 49.9901C68.6729 50.0299 68.5984 50.0498 68.5155 50.0498ZM71.4941 50.0796C71.2025 50.0796 70.9398 50.0216 70.7061 49.9056C70.4725 49.7896 70.2852 49.6305 70.1443 49.4283C70.0035 49.2262 69.9264 48.9958 69.9132 48.7373H70.5097C70.5329 48.9676 70.6373 49.1582 70.823 49.309C71.0102 49.4582 71.2339 49.5327 71.4941 49.5327C71.7029 49.5327 71.8885 49.4838 72.0509 49.3861C72.215 49.2883 72.3434 49.1541 72.4362 48.9834C72.5307 48.811 72.5779 48.6163 72.5779 48.3992C72.5779 48.1771 72.529 47.9791 72.4313 47.8051C72.3351 47.6294 72.2026 47.4911 72.0335 47.39C71.8645 47.2889 71.6714 47.2375 71.4543 47.2359C71.2986 47.2342 71.1386 47.2582 70.9746 47.308C70.8105 47.356 70.6755 47.4182 70.5694 47.4944L69.9927 47.4248L70.3009 44.9191H72.9458V45.466H70.818L70.639 46.9674H70.6688C70.7732 46.8845 70.9042 46.8158 71.0616 46.7611C71.219 46.7064 71.3831 46.679 71.5538 46.679C71.8653 46.679 72.1429 46.7536 72.3865 46.9028C72.6318 47.0503 72.824 47.2524 72.9632 47.5093C73.1041 47.7662 73.1745 48.0595 73.1745 48.3893C73.1745 48.7141 73.1016 49.0041 72.9558 49.2593C72.8116 49.5129 72.6127 49.7134 72.3592 49.8609C72.1056 50.0067 71.8173 50.0796 71.4941 50.0796ZM75.8225 50.0796C75.448 50.0796 75.129 49.9777 74.8655 49.7739C74.602 49.5684 74.4006 49.2709 74.2614 48.8815C74.1222 48.4904 74.0526 48.0181 74.0526 47.4646C74.0526 46.9144 74.1222 46.4446 74.2614 46.0551C74.4023 45.664 74.6045 45.3657 74.868 45.1602C75.1331 44.9531 75.4513 44.8495 75.8225 44.8495C76.1937 44.8495 76.5111 44.9531 76.7746 45.1602C77.0397 45.3657 77.2419 45.664 77.3811 46.0551C77.522 46.4446 77.5924 46.9144 77.5924 47.4646C77.5924 48.0181 77.5228 48.4904 77.3836 48.8815C77.2444 49.2709 77.043 49.5684 76.7795 49.7739C76.516 49.9777 76.197 50.0796 75.8225 50.0796ZM75.8225 49.5327C76.1937 49.5327 76.4821 49.3538 76.6876 48.9958C76.8931 48.6379 76.9958 48.1274 76.9958 47.4646C76.9958 47.0237 76.9486 46.6484 76.8541 46.3385C76.7613 46.0286 76.6271 45.7924 76.4514 45.63C76.2774 45.4676 76.0678 45.3864 75.8225 45.3864C75.4546 45.3864 75.1671 45.5679 74.9599 45.9308C74.7528 46.2921 74.6492 46.8033 74.6492 47.4646C74.6492 47.9054 74.6956 48.2799 74.7884 48.5881C74.8812 48.8964 75.0146 49.1309 75.1886 49.2916C75.3643 49.4524 75.5756 49.5327 75.8225 49.5327Z" fill="#0000FF"/>
<path d="M35.3489 25.8703C33.2932 25.8703 32.0139 24.4738 32.0139 22.2033C32.0139 19.9328 33.2883 18.59 35.3245 18.59C36.6526 18.59 37.7122 19.2345 38.1028 20.1428C38.176 20.3088 38.1956 20.4358 38.1956 20.5627C38.1956 20.8947 37.9759 21.1145 37.639 21.1145C37.3656 21.1145 37.1751 20.9924 37.0189 20.7092C36.6673 20.011 36.096 19.6594 35.3294 19.6594C34.0599 19.6594 33.303 20.6018 33.303 22.1887C33.303 23.7756 34.094 24.801 35.3636 24.801C36.3451 24.801 37.1209 24.2239 37.1852 23.1745C37.1902 23.0928 37.1256 23.0237 37.0437 23.0237H35.9397C35.6272 23.0237 35.4124 22.8382 35.4124 22.5403C35.4124 22.2424 35.6272 22.0618 35.9397 22.0618H37.7952C38.1858 22.0618 38.4202 22.3059 38.4202 22.7161V22.8626C38.4202 24.6937 37.2971 25.8704 35.3489 25.8704V25.8703Z" fill="black"/>
<path d="M39.5276 25.211V21.0888C39.5276 20.7078 39.762 20.4734 40.1088 20.4734C40.3424 20.4734 40.529 20.586 40.6216 20.7819C40.6235 20.7859 40.6299 20.802 40.6384 20.8238C40.6725 20.9113 40.7808 20.9423 40.8557 20.8856C41.0581 20.7325 41.4404 20.4881 41.8183 20.4881C42.0088 20.4881 42.1553 20.5369 42.2481 20.62C42.3604 20.7128 42.419 20.8593 42.419 21.0596C42.419 21.2599 42.3604 21.3917 42.2383 21.4894C42.1211 21.592 41.9404 21.6457 41.701 21.6506C41.0074 21.6555 40.7437 22.0902 40.7437 22.7202V25.2111C40.7437 25.6116 40.4995 25.8509 40.1332 25.8509C39.7669 25.8509 39.5276 25.6115 39.5276 25.211Z" fill="black"/>
<path d="M22.8056 24.8548L20.7548 19.2883C20.5791 18.8147 20.2959 18.6096 19.832 18.6096C19.3681 18.6096 19.0898 18.8244 18.9189 19.2932L16.873 24.8548C16.8144 25.0062 16.79 25.1429 16.79 25.2405C16.79 25.5969 17.039 25.8216 17.4248 25.8216C17.752 25.8216 17.9375 25.6605 18.0547 25.2796L18.4855 24.037C18.5053 23.98 18.559 23.9417 18.6194 23.9417H21.0493C21.1098 23.9417 21.1636 23.9801 21.1833 24.0373L21.6143 25.2894C21.7266 25.6654 21.917 25.8216 22.2588 25.8216C22.625 25.8216 22.8887 25.5823 22.8887 25.2405C22.8887 25.1282 22.8643 25.0159 22.8057 24.8548H22.8056ZM18.8776 22.7595L19.6905 20.2926C19.7332 20.163 19.9165 20.1627 19.9596 20.2922L20.7806 22.7591C20.8111 22.8509 20.7428 22.9456 20.6461 22.9456H19.0122C18.9157 22.9456 18.8474 22.8512 18.8776 22.7595Z" fill="black"/>
<path d="M24.5291 25.8362C24.1727 25.8362 23.9187 25.6067 23.9187 25.1965V19.2345C23.9187 18.8243 24.1726 18.5948 24.5291 18.5948C24.8856 18.5948 25.1346 18.8243 25.1346 19.2345V25.1965C25.1346 25.6067 24.8856 25.8362 24.5291 25.8362Z" fill="black"/>
<path d="M26.8001 24.4591V21.6428C26.8001 21.5645 26.7366 21.5011 26.6584 21.5011H26.473C26.1703 21.5011 25.9846 21.3302 25.9846 21.0372C25.9846 20.7442 26.1701 20.5782 26.473 20.5782H26.6584C26.7367 20.5782 26.8001 20.5147 26.8001 20.4365V19.8735C26.8001 19.4828 27.0345 19.2386 27.4106 19.2386C27.7867 19.2386 28.0162 19.4827 28.0162 19.8735V20.4365C28.0162 20.5148 28.0797 20.5782 28.1579 20.5782H28.5778C28.8805 20.5782 29.0662 20.749 29.0662 21.0372C29.0662 21.3254 28.8807 21.5011 28.5778 21.5011H28.1579C28.0796 21.5011 28.0162 21.5646 28.0162 21.6428V24.1954C28.0162 24.5861 28.1529 24.757 28.5046 24.7863L28.5925 24.7961C28.9148 24.8254 29.0809 24.9621 29.0809 25.2454C29.0809 25.6018 28.7684 25.7924 28.2117 25.7924H28.1629C27.2595 25.7924 26.8004 25.3431 26.8004 24.4592H26.8002L26.8001 24.4591Z" fill="black"/>
</svg>
