<svg width="55" height="54" viewBox="0 0 55 54" fill="none" xmlns="http://www.w3.org/2000/svg">
<rect x="2.3501" y="1.85001" width="50.3" height="50.3" rx="3" stroke="#8B1EFF" stroke-width="0.28"/>
<path d="M10.4131 37.0476C10.3351 27.0606 10.2361 17.0726 10.1191 7.08457L10.1192 7.08213C10.1232 6.91611 10.1362 6.7501 10.1563 6.58396C10.1763 6.41892 10.2023 6.25498 10.2355 6.09153C10.2675 5.92954 10.3065 5.76853 10.3527 5.60972C10.3997 5.45176 10.4517 5.29575 10.5115 5.14158C10.6985 4.66758 10.9535 4.21665 11.27 3.81431C11.583 3.41733 11.956 3.06833 12.3725 2.78391C12.7875 2.50193 13.2465 2.28391 13.7258 2.13694C14.2078 1.98984 14.7118 1.91392 15.2141 1.90659C19.3081 1.87168 23.4021 1.85459 27.4963 1.85496C31.5893 1.85496 35.6833 1.87192 39.7776 1.9072C39.9396 1.91013 40.1016 1.92112 40.2635 1.93772C40.5035 1.96372 40.7435 2.00474 40.9799 2.0615C41.2139 2.11851 41.4449 2.1904 41.6697 2.27952C41.9037 2.37253 42.1287 2.4835 42.3449 2.61069C42.562 2.73862 42.7689 2.88267 42.9627 3.0416C43.1577 3.20164 43.3417 3.37668 43.5105 3.56321C43.6795 3.75217 43.8355 3.9542 43.976 4.16575C44.257 4.59482 44.475 5.06479 44.625 5.55649C44.776 6.05442 44.858 6.57444 44.873 7.09263C44.752 17.0696 44.654 27.0466 44.58 37.0251C44.574 37.185 44.5601 37.3451 44.539 37.5036C44.518 37.6646 44.491 37.8236 44.4569 37.9813C44.4239 38.1402 44.3839 38.2983 44.3358 38.4537C44.2888 38.6097 44.2349 38.7636 44.175 38.9156C43.984 39.3907 43.728 39.8407 43.4172 40.2495C43.1032 40.6605 42.7352 41.0285 42.3244 41.3395C41.9154 41.6495 41.4624 41.9035 40.9838 42.0906C40.5098 42.2755 40.0098 42.3955 39.5063 42.4435C31.5073 42.9535 23.4843 42.9535 15.4849 42.4436C15.1529 42.4116 14.8229 42.3476 14.5024 42.2535C14.1794 42.1595 13.8654 42.0345 13.5632 41.8819C12.9602 41.5749 12.4092 41.1568 11.9476 40.6577C11.4866 40.1606 11.1126 39.5816 10.849 38.9596C10.719 38.6516 10.615 38.3325 10.5411 38.0056C10.4691 37.6836 10.4241 37.3546 10.4111 37.0245" stroke="#8B1EFF" stroke-width="0.283" stroke-miterlimit="10"/>
<rect x="13.1855" y="5.52832" width="28.63" height="34.31" rx="1.43" stroke="#00FFFF" stroke-width="0.28"/>
<path d="M43.4396 36.5841C43.4576 31.7321 43.4776 26.8791 43.5006 22.0272C43.5216 17.1742 43.5466 12.3221 43.5756 7.46909C43.5764 7.32443 43.5714 7.18039 43.5594 7.03745C43.5494 6.89438 43.5314 6.75143 43.5074 6.61044C43.4604 6.32834 43.3884 6.05441 43.2894 5.7894C43.2644 5.72336 43.2384 5.65744 43.2104 5.59238C43.1814 5.52634 43.1524 5.4614 43.1214 5.39841C43.0584 5.27036 42.9904 5.14743 42.9154 5.02841C42.7664 4.79037 42.5934 4.5704 42.3934 4.36642C42.1954 4.16342 41.9774 3.98642 41.7434 3.83334C41.6264 3.75742 41.5054 3.68637 41.3794 3.62241C41.3164 3.59042 41.2534 3.55942 41.1874 3.53036C41.1234 3.50034 41.0564 3.47336 40.9904 3.44736C40.7234 3.34335 40.4504 3.2684 40.1714 3.21738C39.8924 3.16635 39.6074 3.14035 39.3164 3.13742C38.3376 3.12985 37.3566 3.1218 36.3735 3.11581C35.3896 3.10886 34.4056 3.10385 33.4205 3.09885C31.4496 3.09079 29.4756 3.08688 27.4985 3.08688C27.0035 3.08688 26.5096 3.08688 26.0146 3.08688C25.5206 3.08786 25.0256 3.08884 24.5306 3.08981C23.5416 3.09189 22.5536 3.09482 21.5685 3.09885C19.5966 3.10788 17.6326 3.12082 15.6755 3.13779C15.5298 3.13889 15.3859 3.14682 15.2408 3.15988C15.0979 3.1738 14.9539 3.19284 14.8129 3.21884C14.5298 3.27084 14.2559 3.34787 13.9908 3.45187C13.9249 3.47787 13.8599 3.50485 13.7949 3.53488C13.7299 3.56381 13.6649 3.59579 13.6019 3.6279C13.4749 3.69382 13.3539 3.76486 13.2359 3.84286C13.0009 3.9968 12.7839 4.17587 12.5859 4.37985C12.5369 4.4299 12.4889 4.48288 12.4429 4.53586C12.3969 4.58884 12.3519 4.64279 12.3089 4.69882C12.2229 4.80881 12.1429 4.9238 12.0688 5.04184C11.9949 5.16086 11.9279 5.2839 11.8649 5.40988C11.8349 5.47287 11.8058 5.53683 11.7779 5.60287C11.7499 5.66782 11.7239 5.73483 11.6989 5.80185C11.6009 6.06784 11.5298 6.34079 11.4839 6.61887C11.4379 6.89682 11.4149 7.18088 11.4169 7.46982C11.4452 12.3224 11.4712 17.1744 11.4932 22.0274C11.5162 26.8794 11.5352 31.7324 11.5532 36.5844C11.5539 36.8712 11.5779 37.1551 11.6279 37.4392C11.6409 37.5101 11.6549 37.5811 11.6699 37.6511C11.6859 37.7212 11.7019 37.7911 11.7209 37.8601C11.7579 37.9991 11.8009 38.1351 11.8499 38.2701C11.8989 38.4051 11.9529 38.5382 12.0149 38.6682C12.0459 38.7331 12.0769 38.7982 12.1119 38.8622C12.1459 38.9261 12.1809 38.9901 12.2179 39.0532C12.3649 39.3032 12.5329 39.5361 12.7239 39.7531C12.8189 39.8612 12.9199 39.9652 13.0269 40.0652C13.0789 40.1151 13.1339 40.1632 13.1899 40.2102C13.2449 40.2572 13.3009 40.3021 13.3589 40.3462C13.5879 40.5211 13.8319 40.6721 14.0919 40.7982C14.1569 40.8302 14.2229 40.8601 14.2899 40.8882C14.3569 40.9171 14.4239 40.9431 14.4919 40.9681C14.6279 41.0182 14.7649 41.0611 14.9039 41.0971C15.1799 41.1692 15.4629 41.2131 15.7509 41.2312C16.7241 41.2916 17.6991 41.3446 18.6771 41.3896C19.6531 41.4356 20.6321 41.4726 21.6111 41.5027C23.5681 41.5636 25.5291 41.5936 27.4941 41.5936C27.985 41.5936 28.4771 41.5916 28.9681 41.5876C29.459 41.5846 29.951 41.5786 30.4421 41.5706C31.425 41.5556 32.4061 41.5335 33.386 41.5027C35.3441 41.4426 37.2961 41.3526 39.2414 41.2315C39.3864 41.2226 39.5294 41.2066 39.6724 41.1845C39.7433 41.1726 39.8144 41.1596 39.8864 41.1446C39.9564 41.1296 40.0273 41.1136 40.0964 41.0946C40.3763 41.0226 40.6454 40.9226 40.9044 40.7956C40.9703 40.7646 41.0334 40.7315 41.0964 40.6966C41.1603 40.6616 41.2234 40.6246 41.2853 40.5855C41.4094 40.5096 41.5284 40.4266 41.6423 40.3386C41.8724 40.1635 42.0823 39.9666 42.2734 39.7486C42.3214 39.6936 42.3674 39.6375 42.4134 39.5807C42.4584 39.5237 42.5024 39.4655 42.5444 39.4066C42.6293 39.2896 42.7073 39.1685 42.7794 39.0446C42.9254 38.7966 43.0464 38.5376 43.1443 38.2656C43.1694 38.1976 43.1924 38.1286 43.2144 38.0595C43.2354 37.9906 43.2554 37.9216 43.2734 37.8526C43.3104 37.7136 43.3414 37.5746 43.3654 37.4345C43.4144 37.1537 43.4384 36.8706 43.4396 36.5841Z" stroke="#FF00FF" stroke-width="0.283465" stroke-miterlimit="10" stroke-linecap="round" stroke-linejoin="round"/>
<path fill-rule="evenodd" clip-rule="evenodd" d="M20.5151 25.026C20.5151 25.4181 20.833 25.736 21.2251 25.736H24.5002C25.1066 25.736 25.674 25.4372 26.0172 24.9373L28.4738 21.3583C28.5521 21.2442 28.6817 21.176 28.8201 21.176H29.47C29.8622 21.176 30.18 20.8581 30.18 20.466C30.18 20.0739 29.8622 19.756 29.47 19.756H28.8201C28.2137 19.756 27.6462 20.0548 27.3031 20.5547L24.8465 24.1337C24.7681 24.2478 24.6386 24.316 24.5002 24.316H21.2251C20.833 24.316 20.5151 24.6339 20.5151 25.026ZM28.7651 25.026C28.7651 25.4181 29.083 25.736 29.4751 25.736H33.7751C34.1672 25.736 34.4851 25.4181 34.4851 25.026C34.4851 24.6339 34.1672 24.316 33.7751 24.316H29.4751C29.083 24.316 28.7651 24.6339 28.7651 25.026ZM32.335 20.466C32.335 20.8581 32.0172 21.176 31.625 21.176C31.2329 21.176 30.915 20.8581 30.915 20.466C30.915 20.0739 31.2329 19.756 31.625 19.756C32.0172 19.756 32.335 20.0739 32.335 20.466ZM34.4802 20.466C34.4802 20.8581 34.1623 21.176 33.7702 21.176C33.3781 21.176 33.0602 20.8581 33.0602 20.466C33.0602 20.0739 33.3781 19.756 33.7702 19.756C34.1623 19.756 34.4802 20.0739 34.4802 20.466Z" fill="black"/>
<path fill-rule="evenodd" clip-rule="evenodd" d="M20.5151 25.026C20.5151 25.4181 20.833 25.736 21.2251 25.736H24.5002C25.1066 25.736 25.674 25.4372 26.0172 24.9373L28.4738 21.3583C28.5521 21.2442 28.6817 21.176 28.8201 21.176H29.47C29.8622 21.176 30.18 20.8581 30.18 20.466C30.18 20.0739 29.8622 19.756 29.47 19.756H28.8201C28.2137 19.756 27.6462 20.0548 27.3031 20.5547L24.8465 24.1337C24.7681 24.2478 24.6386 24.316 24.5002 24.316H21.2251C20.833 24.316 20.5151 24.6339 20.5151 25.026ZM28.7651 25.026C28.7651 25.4181 29.083 25.736 29.4751 25.736H33.7751C34.1672 25.736 34.4851 25.4181 34.4851 25.026C34.4851 24.6339 34.1672 24.316 33.7751 24.316H29.4751C29.083 24.316 28.7651 24.6339 28.7651 25.026ZM32.335 20.466C32.335 20.8581 32.0172 21.176 31.625 21.176C31.2329 21.176 30.915 20.8581 30.915 20.466C30.915 20.0739 31.2329 19.756 31.625 19.756C32.0172 19.756 32.335 20.0739 32.335 20.466ZM34.4802 20.466C34.4802 20.8581 34.1623 21.176 33.7702 21.176C33.3781 21.176 33.0602 20.8581 33.0602 20.466C33.0602 20.0739 33.3781 19.756 33.7702 19.756C34.1623 19.756 34.4802 20.0739 34.4802 20.466Z" fill="black"/>
</svg>
