<svg width="54" height="55" viewBox="0 0 54 55" fill="none" xmlns="http://www.w3.org/2000/svg">
<rect x="1.8501" y="2.79846" width="50.3" height="50.3" rx="3" stroke="#8B1EFF" stroke-width="0.28"/>
<path d="M9.91309 37.9961C9.83508 28.0092 9.73608 18.0211 9.61914 8.03309L9.6192 8.03065C9.62323 7.86463 9.63623 7.69861 9.65631 7.53248C9.67633 7.36744 9.70233 7.2035 9.73553 7.04004C9.76752 6.87806 9.80652 6.71705 9.85266 6.55823C9.89966 6.40027 9.95166 6.24427 10.0115 6.09009C10.1985 5.61609 10.4535 5.16517 10.77 4.76282C11.083 4.36585 11.456 4.01685 11.8725 3.73243C12.2875 3.45045 12.7465 3.23243 13.2258 3.08545C13.7078 2.93836 14.2118 2.86243 14.7141 2.85511C18.8081 2.8202 22.9021 2.80311 26.9963 2.80347C31.0893 2.80347 35.1833 2.82044 39.2776 2.85572C39.4396 2.85865 39.6016 2.86963 39.7635 2.88624C40.0035 2.91224 40.2435 2.95325 40.4799 3.01002C40.7139 3.06702 40.9449 3.13892 41.1697 3.22803C41.4037 3.32105 41.6287 3.43201 41.8449 3.55921C42.062 3.68714 42.2689 3.83118 42.4627 3.99012C42.6577 4.15015 42.8417 4.3252 43.0105 4.51172C43.1795 4.70069 43.3355 4.90272 43.476 5.11426C43.757 5.54334 43.975 6.01331 44.125 6.50501C44.276 7.00294 44.358 7.52295 44.373 8.04114C44.252 18.0181 44.154 27.9951 44.08 37.9736C44.074 38.1336 44.0601 38.2936 44.039 38.4522C44.018 38.6132 43.991 38.7721 43.9569 38.9298C43.9239 39.0888 43.8839 39.2468 43.8358 39.4022C43.7888 39.5582 43.7349 39.7122 43.675 39.8641C43.484 40.3392 43.228 40.7892 42.9172 41.198C42.6032 41.609 42.2352 41.9771 41.8244 42.288C41.4154 42.598 40.9624 42.8521 40.4838 43.0391C40.0098 43.224 39.5098 43.344 39.0063 43.392C31.0073 43.902 22.9843 43.902 14.9849 43.3921C14.6529 43.3601 14.3229 43.2962 14.0024 43.202C13.6794 43.108 13.3654 42.983 13.0632 42.8305C12.4602 42.5234 11.9092 42.1054 11.4476 41.6062C10.9866 41.1091 10.6126 40.5302 10.349 39.9081C10.219 39.6001 10.115 39.281 10.0411 38.9541C9.96912 38.6321 9.92407 38.3031 9.91113 37.973" stroke="#8B1EFF" stroke-width="0.283" stroke-miterlimit="10"/>
<rect x="12.6855" y="6.47681" width="28.63" height="34.31" rx="1.43" stroke="#00FFFF" stroke-width="0.28"/>
<path d="M42.9396 37.5326C42.9576 32.6807 42.9776 27.8276 43.0006 22.9757C43.0216 18.1227 43.0466 13.2706 43.0756 8.4176C43.0764 8.27295 43.0714 8.12891 43.0594 7.98596C43.0494 7.8429 43.0314 7.69995 43.0074 7.55896C42.9604 7.27686 42.8884 7.00293 42.7894 6.73792C42.7644 6.67188 42.7384 6.60596 42.7104 6.54089C42.6814 6.47485 42.6524 6.40991 42.6214 6.34692C42.5584 6.21887 42.4904 6.09595 42.4154 5.97693C42.2664 5.73889 42.0934 5.51892 41.8934 5.31494C41.6954 5.11194 41.4774 4.93494 41.2434 4.78186C41.1264 4.70593 41.0054 4.63489 40.8794 4.57092C40.8164 4.53894 40.7534 4.50793 40.6874 4.47888C40.6234 4.44885 40.5564 4.42188 40.4904 4.39587C40.2234 4.29187 39.9504 4.21692 39.6714 4.16589C39.3924 4.11487 39.1074 4.08887 38.8164 4.08594C37.8376 4.07837 36.8566 4.07031 35.8735 4.06433C34.8896 4.05737 33.9056 4.05237 32.9205 4.04736C30.9496 4.03931 28.9756 4.0354 26.9985 4.0354C26.5035 4.0354 26.0096 4.0354 25.5146 4.0354C25.0206 4.03638 24.5256 4.03735 24.0306 4.03833C23.0416 4.04041 22.0536 4.04333 21.0685 4.04736C19.0966 4.0564 17.1326 4.06934 15.1755 4.0863C15.0298 4.0874 14.8859 4.09534 14.7408 4.1084C14.5979 4.12231 14.4539 4.14136 14.3129 4.16736C14.0298 4.21936 13.7559 4.29639 13.4908 4.40039C13.4249 4.42639 13.3599 4.45337 13.2949 4.4834C13.2299 4.51233 13.1649 4.54431 13.1019 4.57642C12.9749 4.64233 12.8539 4.71338 12.7359 4.79138C12.5009 4.94531 12.2839 5.12439 12.0859 5.32837C12.0369 5.37842 11.9889 5.4314 11.9429 5.48438C11.8969 5.53735 11.8519 5.59131 11.8089 5.64734C11.7229 5.75732 11.6429 5.87231 11.5688 5.99036C11.4949 6.10938 11.4279 6.23242 11.3649 6.3584C11.3349 6.42139 11.3058 6.48535 11.2779 6.55139C11.2499 6.61633 11.2239 6.68335 11.1989 6.75037C11.1009 7.01636 11.0298 7.28931 10.9839 7.56738C10.9379 7.84534 10.9149 8.12939 10.9169 8.41833C10.9452 13.2709 10.9712 18.1229 10.9932 22.976C11.0162 27.8279 11.0352 32.6809 11.0532 37.533C11.0539 37.8197 11.0779 38.1036 11.1279 38.3877C11.1409 38.4586 11.1549 38.5297 11.1699 38.5996C11.1859 38.6697 11.2019 38.7396 11.2209 38.8086C11.2579 38.9476 11.3009 39.0836 11.3499 39.2186C11.3989 39.3536 11.4529 39.4867 11.5149 39.6167C11.5459 39.6816 11.5769 39.7467 11.6119 39.8107C11.6459 39.8746 11.6809 39.9386 11.7179 40.0017C11.8649 40.2517 12.0329 40.4846 12.2239 40.7017C12.3189 40.8097 12.4199 40.9137 12.5269 41.0137C12.5789 41.0636 12.6339 41.1117 12.6899 41.1587C12.7449 41.2057 12.8009 41.2506 12.8589 41.2947C13.0879 41.4696 13.3319 41.6206 13.5919 41.7467C13.6569 41.7787 13.7229 41.8086 13.7899 41.8367C13.8569 41.8656 13.9239 41.8916 13.9919 41.9166C14.1279 41.9667 14.2649 42.0096 14.4039 42.0457C14.6799 42.1177 14.9629 42.1616 15.2509 42.1797C16.2241 42.2401 17.1991 42.2931 18.1771 42.3381C19.1531 42.3842 20.1321 42.4211 21.1111 42.4512C23.0681 42.5121 25.0291 42.5421 26.9941 42.5421C27.485 42.5421 27.9771 42.5402 28.4681 42.5361C28.959 42.5331 29.451 42.5271 29.9421 42.5192C30.925 42.5042 31.9061 42.4821 32.886 42.4512C34.8441 42.3911 36.7961 42.3011 38.7414 42.1801C38.8864 42.1711 39.0294 42.1552 39.1724 42.1331C39.2433 42.1211 39.3144 42.1082 39.3864 42.0931C39.4564 42.0781 39.5273 42.0621 39.5964 42.0431C39.8763 41.9711 40.1454 41.8711 40.4044 41.7441C40.4703 41.7131 40.5334 41.6801 40.5964 41.6451C40.6603 41.6101 40.7234 41.5731 40.7853 41.5341C40.9094 41.4581 41.0284 41.3751 41.1423 41.2871C41.3724 41.1121 41.5823 40.9152 41.7734 40.6971C41.8214 40.6421 41.8674 40.5861 41.9134 40.5292C41.9584 40.4722 42.0024 40.4141 42.0444 40.3551C42.1293 40.2382 42.2073 40.1171 42.2794 39.9932C42.4254 39.7451 42.5464 39.4861 42.6443 39.2141C42.6694 39.1461 42.6924 39.0771 42.7144 39.0081C42.7354 38.9391 42.7554 38.8701 42.7734 38.8011C42.8104 38.6621 42.8414 38.5231 42.8654 38.3831C42.9144 38.1022 42.9384 37.8191 42.9396 37.5326Z" stroke="#FF00FF" stroke-width="0.283465" stroke-miterlimit="10" stroke-linecap="round" stroke-linejoin="round"/>
<path d="M22.2159 14.4557C22.2159 14.3956 22.2532 14.3417 22.3096 14.3209C23.3674 13.9318 23.9919 13.0208 23.9919 11.8045C23.9919 9.99393 22.6208 8.85132 20.4411 8.85132H17.022C15.9585 8.85132 15.4399 9.3611 15.4399 10.3719V19.3282C15.4399 20.3477 15.9585 20.8487 17.022 20.8487H20.4323C22.9724 20.8487 24.6072 19.5215 24.6072 17.4648C24.6072 15.9675 23.7223 14.8831 22.3308 14.5966C22.2639 14.5828 22.2159 14.524 22.2159 14.4557ZM17.7955 10.7773C17.7955 10.699 17.8589 10.6355 17.9372 10.6355H19.8961C21.0036 10.6355 21.654 11.2332 21.654 12.2088C21.654 13.2548 20.9508 13.8436 19.36 13.8436H17.9372C17.8589 13.8436 17.7955 13.7802 17.7955 13.7019V10.7773ZM19.5533 19.0645H17.9372C17.8589 19.0645 17.7955 19.001 17.7955 18.9228V15.6378C17.7955 15.5595 17.8589 15.496 17.9372 15.496H20.0455C21.4343 15.496 22.1901 16.1904 22.1901 17.3242C22.1901 18.4668 21.4255 19.0645 19.5533 19.0645Z" fill="black"/>
<path fill-rule="evenodd" clip-rule="evenodd" d="M31.8112 28.058C31.4203 28.0275 31.0787 28.3198 31.0483 28.7107C31.0179 29.1017 31.3101 29.4432 31.701 29.4737C32.887 29.566 33.747 29.5933 34.6846 29.5835C34.8288 29.582 34.8833 29.7738 34.7591 29.847C34.6994 29.8822 34.6399 29.9173 34.5804 29.9523C34.2426 30.1513 34.13 30.5866 34.329 30.9244C34.528 31.2623 34.9633 31.3748 35.3011 31.1758C35.7129 30.9333 36.1252 30.6895 36.5392 30.4447L36.5397 30.4444L36.5398 30.4443C37.1376 30.0908 37.739 29.7352 38.3475 29.3782C38.6282 29.2136 38.761 28.8792 38.6697 28.5668C38.5785 28.2544 38.2866 28.0441 37.9614 28.0563C37.6798 28.067 37.4162 28.0772 37.1677 28.0868L37.1677 28.0868C34.8412 28.177 33.839 28.2158 31.8112 28.058ZM32.6121 33.4052C32.9303 33.1761 33.0026 32.7324 32.7735 32.4142C32.5443 32.0959 32.1006 32.0237 31.7824 32.2528C31.3674 32.5516 31.0523 32.893 30.8337 33.2921C30.6158 33.6897 30.5134 34.1088 30.4747 34.5356C30.4099 35.2489 30.6509 35.8719 31.1569 36.3382C31.6324 36.7765 32.2965 37.0364 33.0336 37.1821C34.5102 37.474 36.5714 37.3629 38.9576 36.9176C39.3431 36.8457 39.5973 36.4749 39.5254 36.0895C39.4534 35.704 39.0827 35.4498 38.6972 35.5217C36.3752 35.955 34.5232 36.0291 33.3089 35.7891C32.7005 35.6688 32.3247 35.4835 32.1193 35.2941C31.9443 35.1328 31.8633 34.9459 31.8889 34.664C31.9147 34.3801 31.9768 34.1608 32.079 33.9743C32.1804 33.7892 32.3408 33.6006 32.6121 33.4052Z" fill="black"/>
</svg>
