<svg width="54" height="54" viewBox="0 0 54 54" fill="none" xmlns="http://www.w3.org/2000/svg">
<rect x="1.8501" y="1.84961" width="50.3" height="50.3" rx="3" stroke="#8B1EFF" stroke-width="0.28"/>
<path d="M9.91309 37.0471C9.83508 27.0602 9.73608 17.0721 9.61914 7.08411L9.6192 7.08167C9.62323 6.91566 9.63623 6.74964 9.65631 6.5835C9.67633 6.41846 9.70233 6.25452 9.73553 6.09107C9.76752 5.92908 9.80652 5.76807 9.85266 5.60926C9.89966 5.4513 9.95166 5.29529 10.0115 5.14112C10.1985 4.66712 10.4535 4.21619 10.77 3.81385C11.083 3.41688 11.456 3.06788 11.8725 2.78345C12.2875 2.50147 12.7465 2.28345 13.2258 2.13648C13.7078 1.98939 14.2118 1.91346 14.7141 1.90613C18.8081 1.87122 22.9021 1.85413 26.9963 1.8545C31.0893 1.8545 35.1833 1.87147 39.2776 1.90674C39.4396 1.90967 39.6016 1.92066 39.7635 1.93726C40.0035 1.96326 40.2435 2.00428 40.4799 2.06104C40.7139 2.11805 40.9449 2.18995 41.1697 2.27906C41.4037 2.37208 41.6287 2.48304 41.8449 2.61024C42.062 2.73816 42.2689 2.88221 42.4627 3.04114C42.6577 3.20118 42.8417 3.37623 43.0105 3.56275C43.1795 3.75171 43.3355 3.95374 43.476 4.16529C43.757 4.59437 43.975 5.06434 44.125 5.55604C44.276 6.05396 44.358 6.57398 44.373 7.09217C44.252 17.0691 44.154 27.0462 44.08 37.0247C44.074 37.1846 44.0601 37.3446 44.039 37.5032C44.018 37.6642 43.991 37.8231 43.9569 37.9808C43.9239 38.1398 43.8839 38.2979 43.8358 38.4533C43.7888 38.6093 43.7349 38.7632 43.675 38.9152C43.484 39.3903 43.228 39.8402 42.9172 40.249C42.6032 40.66 42.2352 41.0281 41.8244 41.339C41.4154 41.6491 40.9624 41.9031 40.4838 42.0901C40.0098 42.275 39.5098 42.395 39.0063 42.443C31.0073 42.953 22.9843 42.953 14.9849 42.4431C14.6529 42.4111 14.3229 42.3472 14.0024 42.2531C13.6794 42.1591 13.3654 42.0341 13.0632 41.8815C12.4602 41.5745 11.9092 41.1564 11.4476 40.6572C10.9866 40.1602 10.6126 39.5812 10.349 38.9591C10.219 38.6511 10.115 38.332 10.0411 38.0051C9.96912 37.6831 9.92407 37.3541 9.91113 37.0241" stroke="#8B1EFF" stroke-width="0.283" stroke-miterlimit="10"/>
<rect x="12.6855" y="5.52832" width="28.63" height="34.31" rx="1.43" stroke="#00FFFF" stroke-width="0.28"/>
<path d="M42.9396 36.5841C42.9576 31.7322 42.9776 26.8792 43.0006 22.0272C43.0216 17.1742 43.0466 12.3221 43.0756 7.46912C43.0764 7.32446 43.0714 7.18042 43.0594 7.03748C43.0494 6.89441 43.0314 6.75146 43.0074 6.61047C42.9604 6.32837 42.8884 6.05444 42.7894 5.78943C42.7644 5.72339 42.7384 5.65747 42.7104 5.59241C42.6814 5.52637 42.6524 5.46143 42.6214 5.39844C42.5584 5.27039 42.4904 5.14746 42.4154 5.02844C42.2664 4.79041 42.0934 4.57043 41.8934 4.36646C41.6954 4.16345 41.4774 3.98645 41.2434 3.83337C41.1264 3.75745 41.0054 3.6864 40.8794 3.62244C40.8164 3.59045 40.7534 3.55945 40.6874 3.5304C40.6234 3.50037 40.5564 3.47339 40.4904 3.44739C40.2234 3.34338 39.9504 3.26843 39.6714 3.21741C39.3924 3.16638 39.1074 3.14038 38.8164 3.13745C37.8376 3.12988 36.8566 3.12183 35.8735 3.11584C34.8896 3.10889 33.9056 3.10388 32.9205 3.09888C30.9496 3.09082 28.9756 3.08691 26.9985 3.08691C26.5035 3.08691 26.0096 3.08691 25.5146 3.08691C25.0206 3.08789 24.5256 3.08887 24.0306 3.08984C23.0416 3.09192 22.0536 3.09485 21.0685 3.09888C19.0966 3.10791 17.1326 3.12085 15.1755 3.13782C15.0298 3.13892 14.8859 3.14685 14.7408 3.15991C14.5979 3.17383 14.4539 3.19287 14.3129 3.21887C14.0298 3.27087 13.7559 3.3479 13.4908 3.4519C13.4249 3.47791 13.3599 3.50488 13.2949 3.53491C13.2299 3.56384 13.1649 3.59583 13.1019 3.62793C12.9749 3.69385 12.8539 3.76489 12.7359 3.8429C12.5009 3.99683 12.2839 4.1759 12.0859 4.37988C12.0369 4.42993 11.9889 4.48291 11.9429 4.53589C11.8969 4.58887 11.8519 4.64282 11.8089 4.69885C11.7229 4.80884 11.6429 4.92383 11.5688 5.04187C11.4949 5.16089 11.4279 5.28394 11.3649 5.40991C11.3349 5.4729 11.3058 5.53687 11.2779 5.60291C11.2499 5.66785 11.2239 5.73486 11.1989 5.80188C11.1009 6.06787 11.0298 6.34082 10.9839 6.6189C10.9379 6.89685 10.9149 7.18091 10.9169 7.46985C10.9452 12.3224 10.9712 17.1744 10.9932 22.0275C11.0162 26.8794 11.0352 31.7324 11.0532 36.5845C11.0539 36.8712 11.0779 37.1552 11.1279 37.4392C11.1409 37.5101 11.1549 37.5812 11.1699 37.6511C11.1859 37.7212 11.2019 37.7911 11.2209 37.8601C11.2579 37.9991 11.3009 38.1351 11.3499 38.2701C11.3989 38.4052 11.4529 38.5382 11.5149 38.6682C11.5459 38.7332 11.5769 38.7982 11.6119 38.8622C11.6459 38.9261 11.6809 38.9901 11.7179 39.0532C11.8649 39.3032 12.0329 39.5361 12.2239 39.7532C12.3189 39.8612 12.4199 39.9652 12.5269 40.0652C12.5789 40.1151 12.6339 40.1632 12.6899 40.2102C12.7449 40.2572 12.8009 40.3021 12.8589 40.3462C13.0879 40.5211 13.3319 40.6721 13.5919 40.7982C13.6569 40.8302 13.7229 40.8601 13.7899 40.8882C13.8569 40.9171 13.9239 40.9431 13.9919 40.9681C14.1279 41.0182 14.2649 41.0612 14.4039 41.0972C14.6799 41.1692 14.9629 41.2131 15.2509 41.2312C16.2241 41.2916 17.1991 41.3446 18.1771 41.3896C19.1531 41.4357 20.1321 41.4727 21.1111 41.5027C23.0681 41.5636 25.0291 41.5936 26.9941 41.5936C27.485 41.5936 27.9771 41.5917 28.4681 41.5876C28.959 41.5846 29.451 41.5786 29.9421 41.5707C30.925 41.5557 31.9061 41.5336 32.886 41.5027C34.8441 41.4426 36.7961 41.3527 38.7414 41.2316C38.8864 41.2227 39.0294 41.2067 39.1724 41.1846C39.2433 41.1726 39.3144 41.1597 39.3864 41.1447C39.4564 41.1296 39.5273 41.1136 39.5964 41.0946C39.8763 41.0226 40.1454 40.9226 40.4044 40.7957C40.4703 40.7646 40.5334 40.7316 40.5964 40.6967C40.6603 40.6616 40.7234 40.6246 40.7853 40.5856C40.9094 40.5096 41.0284 40.4266 41.1423 40.3386C41.3724 40.1636 41.5823 39.9667 41.7734 39.7487C41.8214 39.6936 41.8674 39.6376 41.9134 39.5807C41.9584 39.5237 42.0024 39.4656 42.0444 39.4066C42.1293 39.2897 42.2073 39.1686 42.2794 39.0447C42.4254 38.7966 42.5464 38.5376 42.6443 38.2656C42.6694 38.1976 42.6924 38.1287 42.7144 38.0596C42.7354 37.9906 42.7554 37.9216 42.7734 37.8527C42.8104 37.7136 42.8414 37.5746 42.8654 37.4346C42.9144 37.1537 42.9384 36.8706 42.9396 36.5841Z" stroke="#FF00FF" stroke-width="0.283465" stroke-miterlimit="10" stroke-linecap="round" stroke-linejoin="round"/>
<path fill-rule="evenodd" clip-rule="evenodd" d="M38.194 27.1899C38.3156 27.4504 38.2681 27.7585 38.0738 27.9703C37.3356 28.7747 36.5434 29.4882 35.7416 30.1457C35.6313 30.2361 35.7104 30.4236 35.8526 30.4129C37.0591 30.3219 38.262 30.53 39.1079 31.3274C39.5416 31.7362 39.8336 32.3697 39.9181 33.0303C40.0046 33.7065 39.8829 34.4811 39.3947 35.1566C38.4039 36.5278 36.2044 37.1486 32.4385 36.4006C32.0539 36.3242 31.804 35.9505 31.8804 35.5659C31.9568 35.1813 32.3305 34.9314 32.7151 35.0078C36.3647 35.7327 37.7734 34.9759 38.2438 34.3249C38.4862 33.9894 38.5584 33.5919 38.5096 33.2105C38.4588 32.8136 38.2863 32.5043 38.134 32.3607C37.567 31.8263 36.4956 31.6662 35.0924 31.9522C33.7332 32.2292 32.2784 32.8867 31.1908 33.6588C30.8798 33.8795 30.45 33.8151 30.2173 33.513C29.9846 33.2108 30.0322 32.7787 30.3251 32.5345C31.0499 31.9301 31.8397 31.3409 32.628 30.7528C33.0017 30.474 33.375 30.1955 33.741 29.9157C34.3283 29.4666 34.9079 29.0063 35.4674 28.519C35.5655 28.4335 35.5022 28.2736 35.3721 28.2761C34.3277 28.2961 33.4413 28.2839 32.0155 28.2627C31.6234 28.2569 31.3103 27.9343 31.3162 27.5422C31.322 27.1501 31.6446 26.837 32.0366 26.8429C34.3076 26.8767 35.1758 26.8872 37.5185 26.781C37.8057 26.768 38.0724 26.9294 38.194 27.1899Z" fill="black"/>
<path d="M19.6574 37.2263L16.9785 27.7323C16.9599 27.6765 16.9413 27.5773 16.9413 27.4843C16.9289 27.0998 17.2451 26.7773 17.6482 26.7773C17.9831 26.7773 18.2559 26.9758 18.3489 27.2982L21.0216 36.7984C21.0402 36.848 21.0588 36.9535 21.065 37.0403C21.0713 37.4248 20.7612 37.7472 20.3519 37.7472C20.0171 37.7472 19.7442 37.5488 19.6574 37.2263Z" fill="black"/>
<path fill-rule="evenodd" clip-rule="evenodd" d="M16.1304 8.9918C16.2294 8.96982 16.333 8.95809 16.4401 8.95809H16.9105C17.3027 8.95809 17.6205 8.64021 17.6205 8.24809C17.6205 7.85596 17.3027 7.53809 16.9105 7.53809H16.4401C16.2288 7.53809 16.0221 7.56128 15.8228 7.60553C15.4399 7.69048 15.1985 8.06968 15.2834 8.45249C15.3684 8.8353 15.7476 9.07676 16.1304 8.9918ZM19.3397 7.53809C18.9475 7.53809 18.6297 7.85596 18.6297 8.24809C18.6297 8.64021 18.9475 8.95809 19.3397 8.95809H20.2805C20.6727 8.95809 20.9905 8.64021 20.9905 8.24809C20.9905 7.85596 20.6727 7.53809 20.2805 7.53809H19.3397ZM22.7097 7.53809C22.3175 7.53809 21.9997 7.85596 21.9997 8.24809C21.9997 8.64021 22.3175 8.95809 22.7097 8.95809H23.1801C23.2872 8.95809 23.3908 8.96982 23.4898 8.9918C23.8726 9.07676 24.2518 8.8353 24.3368 8.45249C24.4217 8.06968 24.1803 7.69048 23.7974 7.60553C23.598 7.56128 23.3914 7.53809 23.1801 7.53809H22.7097ZM15.0538 10.0684C15.1388 9.68558 14.8973 9.30638 14.5145 9.22143C14.1317 9.13647 13.7525 9.37793 13.6675 9.76074C13.6233 9.96014 13.6001 10.1668 13.6001 10.3781V10.8485C13.6001 11.2406 13.918 11.5585 14.3101 11.5585C14.7022 11.5585 15.0201 11.2406 15.0201 10.8485V10.3781C15.0201 10.271 15.0318 10.1674 15.0538 10.0684ZM25.9527 9.76074C25.8677 9.37793 25.4885 9.13647 25.1057 9.22143C24.7229 9.30638 24.4814 9.68558 24.5664 10.0684C24.5884 10.1674 24.6001 10.271 24.6001 10.3781V10.8485C24.6001 11.2406 24.918 11.5585 25.3101 11.5585C25.7022 11.5585 26.0201 11.2406 26.0201 10.8485V10.3781C26.0201 10.1668 25.9969 9.96014 25.9527 9.76074ZM26.0201 13.2777C26.0201 12.8855 25.7022 12.5677 25.3101 12.5677C24.918 12.5677 24.6001 12.8855 24.6001 13.2777V14.2185C24.6001 14.6106 24.918 14.9285 25.3101 14.9285C25.7022 14.9285 26.0201 14.6106 26.0201 14.2185V13.2777ZM15.0201 13.2777C15.0201 12.8855 14.7022 12.5677 14.3101 12.5677C13.918 12.5677 13.6001 12.8855 13.6001 13.2777V14.2185C13.6001 14.6106 13.918 14.9285 14.3101 14.9285C14.7022 14.9285 15.0201 14.6106 15.0201 14.2185V13.2777ZM26.0201 16.6477C26.0201 16.2555 25.7022 15.9377 25.3101 15.9377C24.918 15.9377 24.6001 16.2555 24.6001 16.6477V17.1181C24.6001 17.2252 24.5884 17.3287 24.5664 17.4278C24.4814 17.8106 24.7229 18.1898 25.1057 18.2747C25.4885 18.3597 25.8677 18.1182 25.9527 17.7354C25.9969 17.536 26.0201 17.3294 26.0201 17.1181V16.6477ZM15.0201 16.6477C15.0201 16.2555 14.7022 15.9377 14.3101 15.9377C13.918 15.9377 13.6001 16.2555 13.6001 16.6477V17.1181C13.6001 17.3293 13.6233 17.536 13.6675 17.7354C13.7525 18.1182 14.1317 18.3597 14.5145 18.2747C14.8973 18.1898 15.1388 17.8106 15.0538 17.4278C15.0318 17.3287 15.0201 17.2252 15.0201 17.1181V16.6477ZM16.1304 18.5044C15.7476 18.4194 15.3684 18.6609 15.2834 19.0437C15.1985 19.4265 15.4399 19.8057 15.8228 19.8906C16.0221 19.9349 16.2288 19.9581 16.4401 19.9581H16.9105C17.3027 19.9581 17.6205 19.6402 17.6205 19.2481C17.6205 18.856 17.3027 18.5381 16.9105 18.5381H16.4401C16.333 18.5381 16.2294 18.5264 16.1304 18.5044ZM23.7974 19.8906C24.1803 19.8057 24.4217 19.4265 24.3368 19.0437C24.2518 18.6609 23.8726 18.4194 23.4898 18.5044C23.3908 18.5264 23.2872 18.5381 23.1801 18.5381H22.7097C22.3175 18.5381 21.9997 18.856 21.9997 19.2481C21.9997 19.6402 22.3175 19.9581 22.7097 19.9581H23.1801C23.3914 19.9581 23.598 19.9349 23.7974 19.8906ZM19.3397 18.5381C18.9475 18.5381 18.6297 18.856 18.6297 19.2481C18.6297 19.6402 18.9475 19.9581 19.3397 19.9581H20.2805C20.6727 19.9581 20.9905 19.6402 20.9905 19.2481C20.9905 18.856 20.6727 18.5381 20.2805 18.5381H19.3397ZM16.8951 21.3782C16.503 21.3782 16.1851 21.6961 16.1851 22.0882C16.1851 22.4803 16.503 22.7982 16.8951 22.7982H22.7351C23.1272 22.7982 23.4451 22.4803 23.4451 22.0882C23.4451 21.6961 23.1272 21.3782 22.7351 21.3782H16.8951Z" fill="black"/>
</svg>
