<svg width="54" height="55" viewBox="0 0 54 55" fill="none" xmlns="http://www.w3.org/2000/svg">
<rect x="1.8501" y="2.79846" width="50.3" height="50.3" rx="3" stroke="#8B1EFF" stroke-width="0.28"/>
<path d="M9.91309 37.9961C9.83508 28.0092 9.73608 18.0211 9.61914 8.03309L9.6192 8.03065C9.62323 7.86463 9.63623 7.69861 9.65631 7.53248C9.67633 7.36744 9.70233 7.2035 9.73553 7.04004C9.76752 6.87806 9.80652 6.71705 9.85266 6.55823C9.89966 6.40027 9.95166 6.24427 10.0115 6.09009C10.1985 5.61609 10.4535 5.16517 10.77 4.76282C11.083 4.36585 11.456 4.01685 11.8725 3.73243C12.2875 3.45045 12.7465 3.23243 13.2258 3.08545C13.7078 2.93836 14.2118 2.86243 14.7141 2.85511C18.8081 2.8202 22.9021 2.80311 26.9963 2.80347C31.0893 2.80347 35.1833 2.82044 39.2776 2.85572C39.4396 2.85865 39.6016 2.86963 39.7635 2.88624C40.0035 2.91224 40.2435 2.95325 40.4799 3.01002C40.7139 3.06702 40.9449 3.13892 41.1697 3.22803C41.4037 3.32105 41.6287 3.43201 41.8449 3.55921C42.062 3.68714 42.2689 3.83118 42.4627 3.99012C42.6577 4.15015 42.8417 4.3252 43.0105 4.51172C43.1795 4.70069 43.3355 4.90272 43.476 5.11426C43.757 5.54334 43.975 6.01331 44.125 6.50501C44.276 7.00294 44.358 7.52295 44.373 8.04114C44.252 18.0181 44.154 27.9951 44.08 37.9736C44.074 38.1336 44.0601 38.2936 44.039 38.4522C44.018 38.6132 43.991 38.7721 43.9569 38.9298C43.9239 39.0888 43.8839 39.2468 43.8358 39.4022C43.7888 39.5582 43.7349 39.7122 43.675 39.8641C43.484 40.3392 43.228 40.7892 42.9172 41.198C42.6032 41.609 42.2352 41.9771 41.8244 42.288C41.4154 42.598 40.9624 42.8521 40.4838 43.0391C40.0098 43.224 39.5098 43.344 39.0063 43.392C31.0073 43.902 22.9843 43.902 14.9849 43.3921C14.6529 43.3601 14.3229 43.2962 14.0024 43.202C13.6794 43.108 13.3654 42.983 13.0632 42.8305C12.4602 42.5234 11.9092 42.1054 11.4476 41.6062C10.9866 41.1091 10.6126 40.5302 10.349 39.9081C10.219 39.6001 10.115 39.281 10.0411 38.9541C9.96912 38.6321 9.92407 38.3031 9.91113 37.973" stroke="#8B1EFF" stroke-width="0.283" stroke-miterlimit="10"/>
<rect x="12.6855" y="6.47681" width="28.63" height="34.31" rx="1.43" stroke="#00FFFF" stroke-width="0.28"/>
<path d="M42.9396 37.5326C42.9576 32.6807 42.9776 27.8276 43.0006 22.9757C43.0216 18.1227 43.0466 13.2706 43.0756 8.4176C43.0764 8.27295 43.0714 8.12891 43.0594 7.98596C43.0494 7.8429 43.0314 7.69995 43.0074 7.55896C42.9604 7.27686 42.8884 7.00293 42.7894 6.73792C42.7644 6.67188 42.7384 6.60596 42.7104 6.54089C42.6814 6.47485 42.6524 6.40991 42.6214 6.34692C42.5584 6.21887 42.4904 6.09595 42.4154 5.97693C42.2664 5.73889 42.0934 5.51892 41.8934 5.31494C41.6954 5.11194 41.4774 4.93494 41.2434 4.78186C41.1264 4.70593 41.0054 4.63489 40.8794 4.57092C40.8164 4.53894 40.7534 4.50793 40.6874 4.47888C40.6234 4.44885 40.5564 4.42188 40.4904 4.39587C40.2234 4.29187 39.9504 4.21692 39.6714 4.16589C39.3924 4.11487 39.1074 4.08887 38.8164 4.08594C37.8376 4.07837 36.8566 4.07031 35.8735 4.06433C34.8896 4.05737 33.9056 4.05237 32.9205 4.04736C30.9496 4.03931 28.9756 4.0354 26.9985 4.0354C26.5035 4.0354 26.0096 4.0354 25.5146 4.0354C25.0206 4.03638 24.5256 4.03735 24.0306 4.03833C23.0416 4.04041 22.0536 4.04333 21.0685 4.04736C19.0966 4.0564 17.1326 4.06934 15.1755 4.0863C15.0298 4.0874 14.8859 4.09534 14.7408 4.1084C14.5979 4.12231 14.4539 4.14136 14.3129 4.16736C14.0298 4.21936 13.7559 4.29639 13.4908 4.40039C13.4249 4.42639 13.3599 4.45337 13.2949 4.4834C13.2299 4.51233 13.1649 4.54431 13.1019 4.57642C12.9749 4.64233 12.8539 4.71338 12.7359 4.79138C12.5009 4.94531 12.2839 5.12439 12.0859 5.32837C12.0369 5.37842 11.9889 5.4314 11.9429 5.48438C11.8969 5.53735 11.8519 5.59131 11.8089 5.64734C11.7229 5.75732 11.6429 5.87231 11.5688 5.99036C11.4949 6.10938 11.4279 6.23242 11.3649 6.3584C11.3349 6.42139 11.3058 6.48535 11.2779 6.55139C11.2499 6.61633 11.2239 6.68335 11.1989 6.75037C11.1009 7.01636 11.0298 7.28931 10.9839 7.56738C10.9379 7.84534 10.9149 8.12939 10.9169 8.41833C10.9452 13.2709 10.9712 18.1229 10.9932 22.976C11.0162 27.8279 11.0352 32.6809 11.0532 37.533C11.0539 37.8197 11.0779 38.1036 11.1279 38.3877C11.1409 38.4586 11.1549 38.5297 11.1699 38.5996C11.1859 38.6697 11.2019 38.7396 11.2209 38.8086C11.2579 38.9476 11.3009 39.0836 11.3499 39.2186C11.3989 39.3536 11.4529 39.4867 11.5149 39.6167C11.5459 39.6816 11.5769 39.7467 11.6119 39.8107C11.6459 39.8746 11.6809 39.9386 11.7179 40.0017C11.8649 40.2517 12.0329 40.4846 12.2239 40.7017C12.3189 40.8097 12.4199 40.9137 12.5269 41.0137C12.5789 41.0636 12.6339 41.1117 12.6899 41.1587C12.7449 41.2057 12.8009 41.2506 12.8589 41.2947C13.0879 41.4696 13.3319 41.6206 13.5919 41.7467C13.6569 41.7787 13.7229 41.8086 13.7899 41.8367C13.8569 41.8656 13.9239 41.8916 13.9919 41.9166C14.1279 41.9667 14.2649 42.0096 14.4039 42.0457C14.6799 42.1177 14.9629 42.1616 15.2509 42.1797C16.2241 42.2401 17.1991 42.2931 18.1771 42.3381C19.1531 42.3842 20.1321 42.4211 21.1111 42.4512C23.0681 42.5121 25.0291 42.5421 26.9941 42.5421C27.485 42.5421 27.9771 42.5402 28.4681 42.5361C28.959 42.5331 29.451 42.5271 29.9421 42.5192C30.925 42.5042 31.9061 42.4821 32.886 42.4512C34.8441 42.3911 36.7961 42.3011 38.7414 42.1801C38.8864 42.1711 39.0294 42.1552 39.1724 42.1331C39.2433 42.1211 39.3144 42.1082 39.3864 42.0931C39.4564 42.0781 39.5273 42.0621 39.5964 42.0431C39.8763 41.9711 40.1454 41.8711 40.4044 41.7441C40.4703 41.7131 40.5334 41.6801 40.5964 41.6451C40.6603 41.6101 40.7234 41.5731 40.7853 41.5341C40.9094 41.4581 41.0284 41.3751 41.1423 41.2871C41.3724 41.1121 41.5823 40.9152 41.7734 40.6971C41.8214 40.6421 41.8674 40.5861 41.9134 40.5292C41.9584 40.4722 42.0024 40.4141 42.0444 40.3551C42.1293 40.2382 42.2073 40.1171 42.2794 39.9932C42.4254 39.7451 42.5464 39.4861 42.6443 39.2141C42.6694 39.1461 42.6924 39.0771 42.7144 39.0081C42.7354 38.9391 42.7554 38.8701 42.7734 38.8011C42.8104 38.6621 42.8414 38.5231 42.8654 38.3831C42.9144 38.1022 42.9384 37.8191 42.9396 37.5326Z" stroke="#FF00FF" stroke-width="0.283465" stroke-miterlimit="10" stroke-linecap="round" stroke-linejoin="round"/>
<path fill-rule="evenodd" clip-rule="evenodd" d="M30.4062 30.5851C30.4062 29.4032 31.3644 28.4451 32.5462 28.4451H37.4536C38.6355 28.4451 39.5936 29.4032 39.5936 30.5851V35.3684C39.5936 35.3704 39.5936 35.3724 39.5936 35.3744L39.5936 37.1346C39.5936 37.5267 39.2757 37.8446 38.8836 37.8446C38.4915 37.8446 38.1736 37.5267 38.1736 37.1346L38.1736 36.9284C38.1736 36.8511 38.1109 36.7884 38.0336 36.7884H31.9663C31.889 36.7884 31.8263 36.8511 31.8263 36.9284L31.8263 37.1395C31.8263 37.5317 31.5084 37.8495 31.1163 37.8495C30.7242 37.8495 30.4063 37.5317 30.4063 37.1395L30.4063 35.3764L30.4062 35.3684V30.5851ZM38.1736 32.0036C38.1736 32.0052 38.1736 32.0068 38.1736 32.0084L38.1736 35.2284C38.1736 35.3058 38.1109 35.3684 38.0336 35.3684L31.9663 35.3684C31.889 35.3684 31.8263 35.3058 31.8263 35.2284L31.8263 32.0084L31.8263 32.0033V30.5851C31.8263 30.1874 32.1486 29.8651 32.5462 29.8651H37.4536C37.8513 29.8651 38.1736 30.1874 38.1736 30.5851V32.0036Z" fill="black"/>
<path d="M19.6574 38.1744L16.9785 28.6804C16.9599 28.6246 16.9413 28.5254 16.9413 28.4324C16.9289 28.0479 17.2451 27.7255 17.6482 27.7255C17.9831 27.7255 18.2559 27.9239 18.3489 28.2464L21.0216 37.7466C21.0402 37.7962 21.0588 37.9016 21.065 37.9884C21.0713 38.3729 20.7612 38.6953 20.3519 38.6953C20.0171 38.6953 19.7442 38.4969 19.6574 38.1744Z" fill="black"/>
<path fill-rule="evenodd" clip-rule="evenodd" d="M15.3203 9.94236C15.4194 9.92038 15.5229 9.90865 15.63 9.90865H16.1005C16.4926 9.90865 16.8105 9.59077 16.8105 9.19865C16.8105 8.80653 16.4926 8.48865 16.1005 8.48865H15.63C15.4188 8.48865 15.2121 8.51184 15.0127 8.55609C14.6299 8.64104 14.3884 9.02024 14.4734 9.40305C14.5583 9.78586 14.9375 10.0273 15.3203 9.94236ZM18.5296 8.48865C18.1375 8.48865 17.8196 8.80653 17.8196 9.19865C17.8196 9.59077 18.1375 9.90865 18.5296 9.90865H19.4705C19.8626 9.90865 20.1805 9.59077 20.1805 9.19865C20.1805 8.80653 19.8626 8.48865 19.4705 8.48865H18.5296ZM21.8996 8.48865C21.5075 8.48865 21.1896 8.80653 21.1896 9.19865C21.1896 9.59077 21.5075 9.90865 21.8996 9.90865H22.37C22.4772 9.90865 22.5807 9.92038 22.6797 9.94236C23.0625 10.0273 23.4417 9.78586 23.5267 9.40305C23.6117 9.02024 23.3702 8.64104 22.9874 8.55609C22.788 8.51184 22.5813 8.48865 22.37 8.48865H21.8996ZM14.2438 11.0189C14.3287 10.6361 14.0872 10.2569 13.7044 10.172C13.3216 10.087 12.9424 10.3285 12.8575 10.7113C12.8132 10.9107 12.79 11.1174 12.79 11.3286V11.7991C12.79 12.1912 13.1079 12.5091 13.5 12.5091C13.8922 12.5091 14.21 12.1912 14.21 11.7991V11.3286C14.21 11.2215 14.2218 11.118 14.2438 11.0189ZM25.1426 10.7113C25.0576 10.3285 24.6784 10.087 24.2956 10.172C23.9128 10.2569 23.6714 10.6361 23.7563 11.0189C23.7783 11.118 23.79 11.2215 23.79 11.3286V11.7991C23.79 12.1912 24.1079 12.5091 24.5 12.5091C24.8922 12.5091 25.21 12.1912 25.21 11.7991V11.3286C25.21 11.1174 25.1868 10.9107 25.1426 10.7113ZM25.21 14.2282C25.21 13.8361 24.8922 13.5182 24.5 13.5182C24.1079 13.5182 23.79 13.8361 23.79 14.2282V15.1691C23.79 15.5612 24.1079 15.8791 24.5 15.8791C24.8922 15.8791 25.21 15.5612 25.21 15.1691V14.2282ZM14.21 14.2282C14.21 13.8361 13.8922 13.5182 13.5 13.5182C13.1079 13.5182 12.79 13.8361 12.79 14.2282V15.1691C12.79 15.5612 13.1079 15.8791 13.5 15.8791C13.8922 15.8791 14.21 15.5612 14.21 15.1691V14.2282ZM25.21 17.5982C25.21 17.2061 24.8922 16.8882 24.5 16.8882C24.1079 16.8882 23.79 17.2061 23.79 17.5982V18.0686C23.79 18.1758 23.7783 18.2793 23.7563 18.3783C23.6714 18.7612 23.9128 19.1404 24.2956 19.2253C24.6784 19.3103 25.0576 19.0688 25.1426 18.686C25.1868 18.4866 25.21 18.2799 25.21 18.0686V17.5982ZM14.21 17.5982C14.21 17.2061 13.8922 16.8882 13.5 16.8882C13.1079 16.8882 12.79 17.2061 12.79 17.5982V18.0686C12.79 18.2799 12.8132 18.4866 12.8575 18.686C12.9424 19.0688 13.3216 19.3103 13.7044 19.2253C14.0872 19.1404 14.3287 18.7612 14.2438 18.3783C14.2218 18.2793 14.21 18.1758 14.21 18.0686V17.5982ZM15.3203 19.4549C14.9375 19.37 14.5583 19.6114 14.4734 19.9942C14.3884 20.3771 14.6299 20.7563 15.0127 20.8412C15.2121 20.8855 15.4188 20.9086 15.63 20.9086H16.1005C16.4926 20.9086 16.8105 20.5908 16.8105 20.1986C16.8105 19.8065 16.4926 19.4886 16.1005 19.4886H15.63C15.5229 19.4886 15.4194 19.4769 15.3203 19.4549ZM22.9874 20.8412C23.3702 20.7563 23.6117 20.3771 23.5267 19.9942C23.4417 19.6114 23.0625 19.37 22.6797 19.4549C22.5807 19.4769 22.4772 19.4886 22.37 19.4886H21.8996C21.5075 19.4886 21.1896 19.8065 21.1896 20.1986C21.1896 20.5908 21.5075 20.9086 21.8996 20.9086H22.37C22.5813 20.9086 22.788 20.8855 22.9874 20.8412ZM18.5296 19.4886C18.1375 19.4886 17.8196 19.8065 17.8196 20.1986C17.8196 20.5908 18.1375 20.9086 18.5296 20.9086H19.4705C19.8626 20.9086 20.1805 20.5908 20.1805 20.1986C20.1805 19.8065 19.8626 19.4886 19.4705 19.4886H18.5296ZM16.085 22.3287C15.6929 22.3287 15.375 22.6466 15.375 23.0387C15.375 23.4309 15.6929 23.7487 16.085 23.7487H21.925C22.3172 23.7487 22.635 23.4309 22.635 23.0387C22.635 22.6466 22.3172 22.3287 21.925 22.3287H16.085Z" fill="black"/>
</svg>
