<svg width="54" height="55" viewBox="0 0 54 55" fill="none" xmlns="http://www.w3.org/2000/svg">
<rect x="1.8501" y="2.79843" width="50.3" height="50.3" rx="3" stroke="#8B1EFF" stroke-width="0.28"/>
<path d="M9.91309 37.996C9.83508 28.0091 9.73608 18.021 9.61914 8.033L9.6192 8.03055C9.62323 7.86454 9.63623 7.69852 9.65631 7.53238C9.67633 7.36735 9.70233 7.20341 9.73553 7.03995C9.76752 6.87797 9.80652 6.71696 9.85266 6.55814C9.89966 6.40018 9.95166 6.24418 10.0115 6.09C10.1985 5.616 10.4535 5.16508 10.77 4.76273C11.083 4.36576 11.456 4.01676 11.8725 3.73234C12.2875 3.45035 12.7465 3.23234 13.2258 3.08536C13.7078 2.93827 14.2118 2.86234 14.7141 2.85502C18.8081 2.8201 22.9021 2.80301 26.9963 2.80338C31.0893 2.80338 35.1833 2.82035 39.2776 2.85563C39.4396 2.85856 39.6016 2.86954 39.7635 2.88614C40.0035 2.91215 40.2435 2.95316 40.4799 3.00992C40.7139 3.06693 40.9449 3.13883 41.1697 3.22794C41.4037 3.32096 41.6287 3.43192 41.8449 3.55912C42.062 3.68705 42.2689 3.83109 42.4627 3.99003C42.6577 4.15006 42.8417 4.32511 43.0105 4.51163C43.1795 4.7006 43.3355 4.90262 43.476 5.11417C43.757 5.54325 43.975 6.01322 44.125 6.50492C44.276 7.00284 44.358 7.52286 44.373 8.04105C44.252 18.018 44.154 27.995 44.08 37.9735C44.074 38.1335 44.0601 38.2935 44.039 38.4521C44.018 38.6131 43.991 38.772 43.9569 38.9297C43.9239 39.0887 43.8839 39.2467 43.8358 39.4021C43.7888 39.5581 43.7349 39.7121 43.675 39.8641C43.484 40.3391 43.228 40.7891 42.9172 41.1979C42.6032 41.6089 42.2352 41.977 41.8244 42.2879C41.4154 42.5979 40.9624 42.852 40.4838 43.039C40.0098 43.2239 39.5098 43.3439 39.0063 43.3919C31.0073 43.9019 22.9843 43.9019 14.9849 43.392C14.6529 43.36 14.3229 43.2961 14.0024 43.2019C13.6794 43.1079 13.3654 42.9829 13.0632 42.8304C12.4602 42.5234 11.9092 42.1053 11.4476 41.6061C10.9866 41.109 10.6126 40.5301 10.349 39.908C10.219 39.6 10.115 39.2809 10.0411 38.954C9.96912 38.632 9.92407 38.303 9.91113 37.9729" stroke="#8B1EFF" stroke-width="0.283" stroke-miterlimit="10"/>
<rect x="12.6855" y="6.47675" width="28.63" height="34.31" rx="1.43" stroke="#00FFFF" stroke-width="0.28"/>
<path d="M42.9396 37.5325C42.9576 32.6806 42.9776 27.8275 43.0006 22.9756C43.0216 18.1226 43.0466 13.2705 43.0756 8.41751C43.0764 8.27286 43.0714 8.12881 43.0594 7.98587C43.0494 7.8428 43.0314 7.69986 43.0074 7.55887C42.9604 7.27676 42.8884 7.00284 42.7894 6.73782C42.7644 6.67178 42.7384 6.60587 42.7104 6.5408C42.6814 6.47476 42.6524 6.40982 42.6214 6.34683C42.5584 6.21878 42.4904 6.09586 42.4154 5.97684C42.2664 5.7388 42.0934 5.51883 41.8934 5.31485C41.6954 5.11185 41.4774 4.93485 41.2434 4.78177C41.1264 4.70584 41.0054 4.6348 40.8794 4.57083C40.8164 4.53885 40.7534 4.50784 40.6874 4.47879C40.6234 4.44876 40.5564 4.42178 40.4904 4.39578C40.2234 4.29178 39.9504 4.21683 39.6714 4.1658C39.3924 4.11478 39.1074 4.08878 38.8164 4.08585C37.8376 4.07828 36.8566 4.07022 35.8735 4.06424C34.8896 4.05728 33.9056 4.05228 32.9205 4.04727C30.9496 4.03922 28.9756 4.03531 26.9985 4.03531C26.5035 4.03531 26.0096 4.03531 25.5146 4.03531C25.0206 4.03629 24.5256 4.03726 24.0306 4.03824C23.0416 4.04031 22.0536 4.04324 21.0685 4.04727C19.0966 4.0563 17.1326 4.06924 15.1755 4.08621C15.0298 4.08731 14.8859 4.09525 14.7408 4.10831C14.5979 4.12222 14.4539 4.14127 14.3129 4.16727C14.0298 4.21927 13.7559 4.2963 13.4908 4.4003C13.4249 4.4263 13.3599 4.45328 13.2949 4.48331C13.2299 4.51224 13.1649 4.54422 13.1019 4.57632C12.9749 4.64224 12.8539 4.71329 12.7359 4.79129C12.5009 4.94522 12.2839 5.1243 12.0859 5.32828C12.0369 5.37833 11.9889 5.4313 11.9429 5.48428C11.8969 5.53726 11.8519 5.59122 11.8089 5.64725C11.7229 5.75723 11.6429 5.87222 11.5688 5.99026C11.4949 6.10928 11.4279 6.23233 11.3649 6.35831C11.3349 6.4213 11.3058 6.48526 11.2779 6.5513C11.2499 6.61624 11.2239 6.68326 11.1989 6.75027C11.1009 7.01627 11.0298 7.28922 10.9839 7.56729C10.9379 7.84525 10.9149 8.1293 10.9169 8.41824C10.9452 13.2708 10.9712 18.1228 10.9932 22.9759C11.0162 27.8278 11.0352 32.6808 11.0532 37.5329C11.0539 37.8196 11.0779 38.1035 11.1279 38.3876C11.1409 38.4585 11.1549 38.5296 11.1699 38.5995C11.1859 38.6696 11.2019 38.7395 11.2209 38.8085C11.2579 38.9475 11.3009 39.0835 11.3499 39.2185C11.3989 39.3535 11.4529 39.4866 11.5149 39.6166C11.5459 39.6815 11.5769 39.7466 11.6119 39.8106C11.6459 39.8745 11.6809 39.9385 11.7179 40.0016C11.8649 40.2516 12.0329 40.4845 12.2239 40.7016C12.3189 40.8096 12.4199 40.9136 12.5269 41.0136C12.5789 41.0635 12.6339 41.1116 12.6899 41.1586C12.7449 41.2056 12.8009 41.2505 12.8589 41.2946C13.0879 41.4695 13.3319 41.6205 13.5919 41.7466C13.6569 41.7786 13.7229 41.8085 13.7899 41.8366C13.8569 41.8655 13.9239 41.8915 13.9919 41.9165C14.1279 41.9666 14.2649 42.0096 14.4039 42.0456C14.6799 42.1176 14.9629 42.1615 15.2509 42.1796C16.2241 42.24 17.1991 42.293 18.1771 42.338C19.1531 42.3841 20.1321 42.4211 21.1111 42.4511C23.0681 42.512 25.0291 42.542 26.9941 42.542C27.485 42.542 27.9771 42.5401 28.4681 42.536C28.959 42.533 29.451 42.527 29.9421 42.5191C30.925 42.5041 31.9061 42.482 32.886 42.4511C34.8441 42.391 36.7961 42.3011 38.7414 42.18C38.8864 42.1711 39.0294 42.1551 39.1724 42.133C39.2433 42.121 39.3144 42.1081 39.3864 42.093C39.4564 42.078 39.5273 42.062 39.5964 42.043C39.8763 41.971 40.1454 41.871 40.4044 41.744C40.4703 41.713 40.5334 41.68 40.5964 41.6451C40.6603 41.61 40.7234 41.573 40.7853 41.534C40.9094 41.458 41.0284 41.375 41.1423 41.287C41.3724 41.112 41.5823 40.9151 41.7734 40.6971C41.8214 40.642 41.8674 40.586 41.9134 40.5291C41.9584 40.4721 42.0024 40.414 42.0444 40.355C42.1293 40.2381 42.2073 40.117 42.2794 39.9931C42.4254 39.745 42.5464 39.486 42.6443 39.214C42.6694 39.146 42.6924 39.0771 42.7144 39.008C42.7354 38.939 42.7554 38.87 42.7734 38.8011C42.8104 38.662 42.8414 38.523 42.8654 38.383C42.9144 38.1021 42.9384 37.819 42.9396 37.5325Z" stroke="#FF00FF" stroke-width="0.283465" stroke-miterlimit="10" stroke-linecap="round" stroke-linejoin="round"/>
<path d="M14.9399 15.5836V14.0455C14.9399 10.6442 16.7769 8.62268 19.9497 8.62268C21.4702 8.62268 22.771 9.0885 23.6235 9.93225C24.2124 10.5123 24.5728 11.233 24.5728 11.7692C24.5728 12.3668 24.1685 12.7535 23.5884 12.7535C23.1665 12.7535 22.8677 12.5865 22.4897 12.1207C21.8218 11.1188 21.0923 10.6617 20.0815 10.6617C18.3149 10.6617 17.3218 11.9274 17.3218 14.1422V15.5045C17.3218 17.8073 18.2974 19.0641 20.0815 19.0641C21.1011 19.0641 21.9009 18.6071 22.5337 17.6227C22.9116 17.1569 23.1753 16.9987 23.5796 16.9987C24.186 16.9987 24.5815 17.3854 24.5815 17.9742C24.5815 18.6071 24.1333 19.3805 23.4302 19.9694C22.5864 20.6989 21.3999 21.1031 19.9497 21.1031C16.7417 21.1031 14.9399 19.0992 14.9399 15.5836Z" fill="black"/>
<path fill-rule="evenodd" clip-rule="evenodd" d="M35.71 29.1839C35.71 28.7918 35.3921 28.4739 35 28.4739C34.6079 28.4739 34.29 28.7918 34.29 29.1839C34.29 29.445 34.2876 29.6953 34.2819 29.9355C34.2801 30.0111 34.2181 30.0713 34.1424 30.0713H32.0486C31.6565 30.0713 31.3386 30.3892 31.3386 30.7813C31.3386 31.1734 31.6565 31.4913 32.0486 31.4913H34.0115C34.0964 31.4913 34.1619 31.5663 34.1487 31.6502C34.082 32.0751 33.9866 32.4542 33.8523 32.7925C33.5234 33.6217 32.9456 34.2431 31.8089 34.6536C31.44 34.7868 31.249 35.1937 31.3822 35.5626C31.5154 35.9314 31.9224 36.1224 32.2912 35.9892C33.5173 35.5464 34.3412 34.8599 34.8672 33.9495C34.9249 33.8496 35.075 33.8496 35.1328 33.9495C35.6587 34.8599 36.4826 35.5464 37.7087 35.9892C38.0776 36.1224 38.4845 35.9314 38.6177 35.5626C38.7509 35.1937 38.5599 34.7868 38.1911 34.6536C37.0543 34.2431 36.4766 33.6217 36.1476 32.7925C36.0134 32.4542 35.918 32.0751 35.8513 31.6502C35.8381 31.5663 35.9036 31.4913 35.9885 31.4913H37.9485C38.3407 31.4913 38.6585 31.1734 38.6585 30.7813C38.6585 30.3892 38.3407 30.0713 37.9485 30.0713H35.8577C35.782 30.0713 35.7199 30.0111 35.7181 29.9355C35.7124 29.6953 35.71 29.445 35.71 29.1839Z" fill="black"/>
</svg>
