<svg width="54" height="54" viewBox="0 0 54 54" fill="none" xmlns="http://www.w3.org/2000/svg">
<rect x="1.8501" y="1.84998" width="50.3" height="50.3" rx="3" stroke="#8B1EFF" stroke-width="0.28"/>
<path d="M9.91309 37.0476C9.83508 27.0607 9.73608 17.0726 9.61914 7.0846L9.6192 7.08216C9.62323 6.91614 9.63623 6.75013 9.65631 6.58399C9.67633 6.41895 9.70233 6.25501 9.73553 6.09156C9.76752 5.92957 9.80652 5.76856 9.85266 5.60975C9.89966 5.45179 9.95166 5.29578 10.0115 5.14161C10.1985 4.66761 10.4535 4.21668 10.77 3.81434C11.083 3.41736 11.456 3.06837 11.8725 2.78394C12.2875 2.50196 12.7465 2.28394 13.2258 2.13697C13.7078 1.98987 14.2118 1.91395 14.7141 1.90662C18.8081 1.87171 22.9021 1.85462 26.9963 1.85499C31.0893 1.85499 35.1833 1.87195 39.2776 1.90723C39.4396 1.91016 39.6016 1.92115 39.7635 1.93775C40.0035 1.96375 40.2435 2.00477 40.4799 2.06153C40.7139 2.11854 40.9449 2.19044 41.1697 2.27955C41.4037 2.37256 41.6287 2.48353 41.8449 2.61072C42.062 2.73865 42.2689 2.8827 42.4627 3.04163C42.6577 3.20167 42.8417 3.37671 43.0105 3.56324C43.1795 3.7522 43.3355 3.95423 43.476 4.16578C43.757 4.59485 43.975 5.06483 44.125 5.55652C44.276 6.05445 44.358 6.57447 44.373 7.09266C44.252 17.0696 44.154 27.0466 44.08 37.0252C44.074 37.1851 44.0601 37.3451 44.039 37.5037C44.018 37.6647 43.991 37.8236 43.9569 37.9813C43.9239 38.1403 43.8839 38.2983 43.8358 38.4537C43.7888 38.6097 43.7349 38.7637 43.675 38.9157C43.484 39.3908 43.228 39.8407 42.9172 40.2495C42.6032 40.6605 42.2352 41.0286 41.8244 41.3395C41.4154 41.6495 40.9624 41.9036 40.4838 42.0906C40.0098 42.2755 39.5098 42.3955 39.0063 42.4435C31.0073 42.9535 22.9843 42.9535 14.9849 42.4436C14.6529 42.4116 14.3229 42.3477 14.0024 42.2535C13.6794 42.1596 13.3654 42.0346 13.0632 41.882C12.4602 41.575 11.9092 41.1569 11.4476 40.6577C10.9866 40.1607 10.6126 39.5817 10.349 38.9596C10.219 38.6516 10.115 38.3325 10.0411 38.0056C9.96912 37.6836 9.92407 37.3546 9.91113 37.0245" stroke="#8B1EFF" stroke-width="0.283" stroke-miterlimit="10"/>
<rect x="12.6855" y="5.52832" width="28.63" height="34.31" rx="1.43" stroke="#00FFFF" stroke-width="0.28"/>
<path d="M42.9399 36.5841C42.9578 31.7322 42.9778 26.8792 43.0009 22.0272C43.0219 17.1742 43.0469 12.3221 43.0759 7.46912C43.0767 7.32446 43.0717 7.18042 43.0596 7.03748C43.0497 6.89441 43.0317 6.75146 43.0076 6.61047C42.9606 6.32837 42.8887 6.05444 42.7897 5.78943C42.7646 5.72339 42.7386 5.65747 42.7106 5.59241C42.6816 5.52637 42.6526 5.46143 42.6216 5.39844C42.5587 5.27039 42.4907 5.14746 42.4156 5.02844C42.2667 4.79041 42.0936 4.57043 41.8937 4.36646C41.6957 4.16345 41.4777 3.98645 41.2437 3.83337C41.1266 3.75745 41.0057 3.6864 40.8796 3.62244C40.8167 3.59045 40.7537 3.55945 40.6877 3.5304C40.6237 3.50037 40.5566 3.47339 40.4907 3.44739C40.2236 3.34338 39.9507 3.26843 39.6716 3.21741C39.3926 3.16638 39.1077 3.14038 38.8167 3.13745C37.8378 3.12988 36.8568 3.12183 35.8738 3.11584C34.8898 3.10889 33.9058 3.10388 32.9208 3.09888C30.9498 3.09082 28.9758 3.08691 26.9988 3.08691C26.5038 3.08691 26.0098 3.08691 25.5148 3.08691C25.0208 3.08789 24.5258 3.08887 24.0308 3.08984C23.0418 3.09192 22.0538 3.09485 21.0688 3.09888C19.0968 3.10791 17.1328 3.12085 15.1758 3.13782C15.0301 3.13892 14.8861 3.14685 14.7411 3.15991C14.5981 3.17383 14.4541 3.19287 14.3131 3.21887C14.0301 3.27087 13.7561 3.3479 13.4911 3.4519C13.4251 3.47791 13.3601 3.50488 13.2951 3.53491C13.2301 3.56384 13.1651 3.59583 13.1021 3.62793C12.9751 3.69385 12.8541 3.76489 12.7361 3.8429C12.5011 3.99683 12.2841 4.1759 12.0861 4.37988C12.0371 4.42993 11.9891 4.48291 11.9431 4.53589C11.8971 4.58887 11.8521 4.64282 11.8091 4.69885C11.7231 4.80884 11.6431 4.92383 11.5691 5.04187C11.4951 5.16089 11.4281 5.28394 11.3651 5.40991C11.3351 5.4729 11.3061 5.53687 11.2781 5.60291C11.2501 5.66785 11.2241 5.73486 11.1991 5.80188C11.1011 6.06787 11.0301 6.34082 10.9841 6.6189C10.9381 6.89685 10.9151 7.18091 10.9171 7.46985C10.9454 12.3224 10.9714 17.1744 10.9935 22.0275C11.0165 26.8794 11.0355 31.7324 11.0535 36.5845C11.0541 36.8712 11.0781 37.1552 11.1281 37.4392C11.1411 37.5101 11.1552 37.5812 11.1701 37.6511C11.1862 37.7212 11.2021 37.7911 11.2211 37.8601C11.2581 37.9991 11.3011 38.1351 11.3502 38.2701C11.3991 38.4052 11.4531 38.5382 11.5151 38.6682C11.5461 38.7332 11.5771 38.7982 11.6121 38.8622C11.6461 38.9261 11.6812 38.9901 11.7181 39.0532C11.8651 39.3032 12.0331 39.5361 12.2241 39.7532C12.3192 39.8612 12.4201 39.9652 12.5272 40.0652C12.5791 40.1151 12.6342 40.1632 12.6901 40.2102C12.7451 40.2572 12.8011 40.3021 12.8591 40.3462C13.0881 40.5211 13.3322 40.6721 13.5921 40.7982C13.6571 40.8302 13.7231 40.8601 13.7902 40.8882C13.8571 40.9171 13.9241 40.9431 13.9921 40.9681C14.1281 41.0182 14.2651 41.0612 14.4041 41.0972C14.6801 41.1692 14.9631 41.2131 15.2512 41.2312C16.2243 41.2916 17.1993 41.3446 18.1773 41.3896C19.1533 41.4357 20.1323 41.4727 21.1113 41.5027C23.0683 41.5636 25.0293 41.5936 26.9943 41.5936C27.4853 41.5936 27.9773 41.5917 28.4683 41.5876C28.9593 41.5846 29.4513 41.5786 29.9423 41.5707C30.9253 41.5557 31.9063 41.5336 32.8863 41.5027C34.8443 41.4426 36.7963 41.3527 38.7416 41.2316C38.8866 41.2227 39.0296 41.2067 39.1726 41.1846C39.2436 41.1726 39.3146 41.1597 39.3866 41.1447C39.4566 41.1296 39.5276 41.1136 39.5966 41.0946C39.8766 41.0226 40.1456 40.9226 40.4046 40.7957C40.4706 40.7646 40.5336 40.7316 40.5966 40.6967C40.6606 40.6616 40.7236 40.6246 40.7856 40.5856C40.9096 40.5096 41.0286 40.4266 41.1426 40.3386C41.3726 40.1636 41.5826 39.9667 41.7736 39.7487C41.8216 39.6936 41.8676 39.6376 41.9136 39.5807C41.9586 39.5237 42.0026 39.4656 42.0446 39.4066C42.1296 39.2897 42.2076 39.1686 42.2796 39.0447C42.4256 38.7966 42.5466 38.5376 42.6446 38.2656C42.6696 38.1976 42.6926 38.1287 42.7146 38.0596C42.7356 37.9906 42.7556 37.9216 42.7736 37.8527C42.8106 37.7136 42.8416 37.5746 42.8656 37.4346C42.9146 37.1537 42.9386 36.8706 42.9399 36.5841Z" stroke="#FF00FF" stroke-width="0.283465" stroke-miterlimit="10" stroke-linecap="round" stroke-linejoin="round"/>
<path d="M17.2157 11.8878C16.9481 11.6198 16.514 11.6188 16.246 11.8878C15.9779 12.1554 15.9779 12.59 16.246 12.8575L19.3599 15.9719C19.4145 16.0266 19.4145 16.1152 19.3599 16.1699L16.246 19.2838C15.9779 19.5524 15.9779 19.986 16.246 20.2545C16.3798 20.3883 16.5551 20.4547 16.7308 20.4547C16.9066 20.4547 17.0819 20.3883 17.2157 20.2545L20.9139 16.5563C21.1815 16.2877 21.1815 15.8536 20.9139 15.5861L17.2157 11.8878ZM26.871 19.0836H23.1727C22.7938 19.0836 22.4872 19.3903 22.4872 19.7692C22.4872 20.1481 22.7938 20.4547 23.1727 20.4547H26.871C27.2499 20.4547 27.5565 20.1481 27.5565 19.7692C27.5565 19.3903 27.2499 19.0836 26.871 19.0836Z" fill="black"/>
<path d="M18.3795 35.8672C16.3433 35.8672 15.0884 34.4853 15.0884 32.2246C15.0884 29.9639 16.3629 28.5869 18.3551 28.5869C19.6588 28.5869 20.6891 29.1973 21.153 30.2275C21.2311 30.3886 21.2702 30.5547 21.2702 30.7011C21.2702 31.038 21.0505 31.2529 20.7136 31.2529C20.4255 31.2529 20.2351 31.1162 20.0984 30.8086C19.7712 30.0518 19.1316 29.6562 18.365 29.6562C17.154 29.6562 16.3777 30.6523 16.3777 32.2246C16.3777 33.7969 17.1492 34.7979 18.3699 34.7979C19.1756 34.7979 19.7957 34.4463 20.118 33.7041C20.245 33.416 20.4061 33.2988 20.6795 33.2988C21.0262 33.2988 21.2654 33.5283 21.2654 33.8603C21.2654 34.0214 21.2263 34.1679 21.1482 34.3339C20.699 35.2909 19.698 35.8671 18.3796 35.8671L18.3795 35.8672Z" fill="black"/>
<path d="M30.601 31.4817C31.358 31.4817 31.861 32.141 31.8659 33.1568C31.861 34.1628 31.3872 34.8319 30.601 34.8319C29.8148 34.8319 29.3264 34.1775 29.3264 33.1568C29.3264 32.1312 29.844 31.4817 30.601 31.4817ZM28.0811 33.1569C28.0811 34.8125 28.9162 35.8331 30.23 35.8331C30.716 35.8331 31.4861 35.5891 31.787 35.4871C31.8545 35.4642 31.9292 35.4939 31.9609 35.5579C31.9689 35.5742 31.9772 35.5904 31.9876 35.6052C32.107 35.7757 32.2827 35.8477 32.4814 35.8477C32.8282 35.8477 33.0723 35.6231 33.0723 35.2226V29.245C33.0722 28.8347 32.8232 28.6052 32.4666 28.6052C32.11 28.6052 31.8561 28.8347 31.8561 29.245V30.7251C31.8561 30.8278 31.7502 30.8967 31.6566 30.8545C31.2947 30.6916 30.692 30.4854 30.2103 30.4854C28.9113 30.4854 28.0811 31.5061 28.0811 33.1568V33.1569Z" fill="black"/>
<path d="M37.5591 32.548H35.4699C35.3793 32.548 35.3125 32.4642 35.3315 32.3756C35.4681 31.7369 35.9397 31.4093 36.5341 31.4093C37.1285 31.4093 37.5826 31.7241 37.6988 32.3824C37.7141 32.4689 37.647 32.548 37.5591 32.548ZM36.5293 30.4668C35.0351 30.4668 34.083 31.5312 34.083 33.1817C34.083 34.8322 35.0156 35.8526 36.5977 35.8526C37.3979 35.8526 37.9839 35.6748 38.4836 35.1198C38.7073 34.8714 38.6474 34.5007 38.3513 34.3422C38.1019 34.2086 37.8182 34.3367 37.6789 34.4661C37.2362 34.8775 36.9114 34.9151 36.588 34.9151C35.8418 34.9151 35.3518 34.4304 35.2988 33.6069C35.2935 33.5248 35.3579 33.4551 35.4402 33.4551H38.3944C38.6756 33.4551 38.905 33.2303 38.9114 32.9492C38.9441 31.5063 37.9689 30.4668 36.5293 30.4668Z" fill="black"/>
<path d="M24.7271 30.4668C23.2183 30.4668 22.2222 31.4922 22.2222 33.1621C22.2222 34.832 23.2085 35.8526 24.7271 35.8526C26.2457 35.8526 27.232 34.8418 27.232 33.1621C27.232 31.4824 26.2359 30.4668 24.7271 30.4668ZM24.7271 34.8907C23.9556 34.8907 23.4576 34.2657 23.4576 33.1622C23.4576 32.0587 23.9605 31.4337 24.7271 31.4337C25.4937 31.4337 25.9966 32.0636 25.9966 33.1622C25.9966 34.2608 25.4985 34.8907 24.7271 34.8907Z" fill="black"/>
</svg>
