<svg width="81" height="54" viewBox="0 0 81 54" fill="none" xmlns="http://www.w3.org/2000/svg">
<rect x="1.85" y="1.84961" width="77.3" height="50.3" rx="3" stroke="#8B1EFF" stroke-width="0.28"/>
<path d="M71.0066 37.0028C71.0846 27.0808 71.1916 17.1588 71.3296 7.23671C71.3196 6.87971 71.2786 6.52272 71.2033 6.17207C71.1303 5.82307 71.0243 5.48207 70.8845 5.15388C70.7465 4.82887 70.5755 4.51692 70.3758 4.22517C70.1758 3.9352 69.9478 3.66518 69.6946 3.42085C69.4416 3.17787 69.1646 2.96083 68.8691 2.77419C68.5731 2.58717 68.2581 2.42921 67.9323 2.30348C67.6063 2.17751 67.2673 2.08156 66.9235 2.01747C66.5775 1.95351 66.2275 1.91945 65.8743 1.91591C48.9603 1.82497 32.0453 1.82497 15.1315 1.91554C14.7935 1.92165 14.4565 1.95461 14.1239 2.01491C13.7919 2.07387 13.4639 2.15981 13.1493 2.27443C12.9003 2.36745 12.6573 2.47841 12.4243 2.605C12.1923 2.73305 11.9683 2.87807 11.7566 3.03871C11.5456 3.20064 11.3466 3.37862 11.1627 3.57118C10.9777 3.76521 10.8097 3.9742 10.6584 4.19405C10.5064 4.41499 10.3714 4.64803 10.2536 4.8885C10.1356 5.13155 10.0356 5.38155 9.95221 5.63875C9.78619 6.15474 9.69119 6.69673 9.67749 7.23628C9.81149 17.1583 9.91852 27.0803 9.99991 37.0014C10.0249 37.6633 10.1749 38.3273 10.4398 38.9409C10.7088 39.5659 11.0948 40.1389 11.5707 40.6232C12.0497 41.1112 12.6177 41.5102 13.2406 41.796C13.8576 42.081 14.5286 42.254 15.2024 42.3052C23.6314 42.6482 32.0664 42.8192 40.5032 42.819C48.9392 42.819 57.3742 42.648 65.8041 42.3048C66.4781 42.2537 67.1481 42.0808 67.766 41.7969C68.388 41.5099 68.957 41.1109 69.4359 40.6233C69.9109 40.1383 70.2969 39.5663 70.5673 38.9408C70.8303 38.3278 70.9823 37.6638 71.0063 37.0008" stroke="#8B1EFF" stroke-width="0.283" stroke-miterlimit="10"/>
<path d="M11.2583 38.7139V6.44092C11.2583 5.26648 12.2093 4.31445 13.3843 4.31445H16.9273H64.1312H67.6743C68.8483 4.31445 69.8003 5.26648 69.8003 6.44043V38.7134C69.8003 39.8879 68.8483 40.8398 67.6743 40.8398L13.3843 40.8399C12.2093 40.8399 11.2583 39.8879 11.2583 38.7139Z" stroke="#00FFFF" stroke-width="0.28" stroke-miterlimit="10"/>
<path d="M65.6807 41.1325C48.9367 41.8176 32.0697 41.8176 15.3267 41.1325C15.0306 41.1198 14.7386 41.0828 14.4496 41.0178C14.3046 40.9859 14.1626 40.9469 14.0226 40.9018C13.8836 40.8559 13.7456 40.8048 13.6106 40.7458C13.4756 40.6878 13.3446 40.6228 13.2156 40.5518C13.1506 40.5158 13.0866 40.4778 13.0226 40.4389C12.9606 40.3999 12.8986 40.3598 12.8386 40.3178C12.5966 40.1499 12.3726 39.9608 12.1696 39.7489C12.1186 39.6958 12.0686 39.6418 12.0196 39.5858C11.9716 39.5308 11.9246 39.4729 11.8786 39.4148C11.7876 39.2998 11.7026 39.1798 11.6246 39.0568C11.4686 38.8108 11.3376 38.5518 11.2306 38.2798C11.2046 38.2108 11.1796 38.1418 11.1566 38.0728C11.1336 38.0028 11.1116 37.9328 11.0916 37.8628C11.0526 37.7229 11.0186 37.5818 10.9926 37.4398C10.9396 37.1558 10.9136 36.8689 10.9126 36.5768C10.8965 31.7902 10.8785 27.0023 10.8585 22.2153C10.8385 17.4282 10.8155 12.6413 10.7905 7.85323C10.7817 7.69765 10.7757 7.54164 10.7767 7.38667C10.7777 7.23067 10.7867 7.07668 10.8037 6.92268C10.8107 6.84566 10.8217 6.76863 10.8337 6.69167C10.8457 6.61464 10.8597 6.53865 10.8757 6.46169C10.9077 6.31068 10.9477 6.16164 10.9957 6.01466C11.0427 5.86867 11.0977 5.72566 11.1627 5.58467C11.1937 5.51466 11.2277 5.44563 11.2637 5.37666C11.3007 5.30867 11.3387 5.24068 11.3787 5.17366C11.5377 4.90865 11.7247 4.66664 11.9397 4.44667C11.9937 4.39168 12.0497 4.33766 12.1067 4.28664C12.1357 4.25966 12.1647 4.23463 12.1937 4.20863C12.2237 4.18367 12.2537 4.15865 12.2837 4.13368C12.4047 4.03664 12.5307 3.94563 12.6607 3.86269C12.9207 3.69667 13.1987 3.55965 13.4927 3.44868C13.7867 3.33864 14.0877 3.25966 14.3927 3.20668C14.6987 3.15364 15.0107 3.12666 15.3257 3.12563C32.0702 3.03365 48.9372 3.03365 65.6802 3.12563C65.9963 3.12672 66.3083 3.1537 66.6133 3.20668C66.9193 3.25972 67.2203 3.3387 67.5143 3.44868C67.8083 3.55971 68.0853 3.69673 68.3463 3.86269C68.4763 3.94569 68.6013 4.03572 68.7223 4.13368C68.7523 4.15871 68.7823 4.18373 68.8123 4.20869C68.8413 4.23372 68.8703 4.25972 68.9003 4.28572C68.9563 4.33772 69.0123 4.39168 69.0663 4.44673C69.2803 4.66573 69.4683 4.90871 69.6283 5.17372C69.6683 5.2397 69.7063 5.30769 69.7423 5.37672C69.7793 5.44472 69.8123 5.51472 69.8443 5.58473C69.9073 5.72469 69.9633 5.86873 70.0113 6.01472C70.0593 6.16072 70.0993 6.30971 70.1303 6.46169C70.1473 6.53773 70.1603 6.6147 70.1733 6.69069C70.1853 6.76772 70.1953 6.84468 70.2033 6.92171C70.2203 7.0757 70.2283 7.23073 70.2303 7.3857C70.2313 7.54073 70.2253 7.69673 70.2163 7.85268C70.1912 12.6398 70.1682 17.4278 70.1482 22.2148C70.1272 27.0018 70.1102 31.7898 70.0942 36.5766C70.0932 36.8685 70.0662 37.1585 70.0132 37.4456C69.9862 37.5905 69.9522 37.7326 69.9122 37.8715C69.8722 38.0116 69.8262 38.1496 69.7732 38.2846C69.7202 38.4196 69.6602 38.5526 69.5942 38.6835C69.5612 38.7495 69.5262 38.8145 69.4902 38.8786C69.4522 38.9426 69.4142 39.0056 69.3752 39.0665C69.2172 39.3136 69.0362 39.5426 68.8322 39.7545C68.7822 39.8065 68.7292 39.8585 68.6752 39.9085C68.6212 39.9595 68.5662 40.0086 68.5092 40.0565C68.3962 40.1525 68.2802 40.2415 68.1592 40.3236C67.9172 40.4896 67.6612 40.6315 67.3902 40.7486C67.3232 40.7775 67.2532 40.8056 67.1842 40.8316C67.1152 40.8576 67.0452 40.8815 66.9752 40.9036C66.8352 40.9495 66.6942 40.9876 66.5512 41.0195C66.2662 41.0825 65.9752 41.1206 65.6807 41.1325Z" stroke="#FF00FF" stroke-width="0.283465" stroke-miterlimit="10" stroke-linecap="round" stroke-linejoin="round"/>
<path d="M66.4147 44.9189V50.0098H65.7982V45.5652H65.7684L64.5255 46.3904V45.764L65.7982 44.9189H66.4147ZM68.0155 50.0495C67.8929 50.0495 67.7876 50.0056 67.6998 49.9178C67.612 49.83 67.5681 49.7247 67.5681 49.6021C67.5681 49.4795 67.612 49.3742 67.6998 49.2864C67.7876 49.1986 67.8929 49.1547 68.0155 49.1547C68.1381 49.1547 68.2434 49.1986 68.3312 49.2864C68.419 49.3742 68.463 49.4795 68.463 49.6021C68.463 49.6833 68.4422 49.7579 68.4008 49.8258C68.361 49.8938 68.3072 49.9484 68.2392 49.9899C68.1729 50.0297 68.0984 50.0495 68.0155 50.0495ZM70.9941 50.0794C70.7025 50.0794 70.4398 50.0214 70.2061 49.9054C69.9725 49.7894 69.7852 49.6303 69.6443 49.4281C69.5035 49.2259 69.4264 48.9956 69.4132 48.737H70.0097C70.0329 48.9674 70.1373 49.158 70.323 49.3088C70.5102 49.4579 70.7339 49.5325 70.9941 49.5325C71.2029 49.5325 71.3885 49.4836 71.5509 49.3858C71.715 49.2881 71.8434 49.1538 71.9362 48.9831C72.0307 48.8108 72.0779 48.6161 72.0779 48.399C72.0779 48.1769 72.029 47.9789 71.9313 47.8049C71.8351 47.6292 71.7026 47.4908 71.5335 47.3897C71.3645 47.2886 71.1714 47.2373 70.9543 47.2356C70.7986 47.234 70.6386 47.258 70.4746 47.3077C70.3105 47.3558 70.1755 47.4179 70.0694 47.4941L69.4927 47.4245L69.8009 44.9189H72.4458V45.4657H70.318L70.139 46.9672H70.1688C70.2732 46.8843 70.4042 46.8155 70.5616 46.7608C70.719 46.7061 70.8831 46.6788 71.0538 46.6788C71.3653 46.6788 71.6429 46.7534 71.8865 46.9025C72.1318 47.05 72.324 47.2522 72.4632 47.5091C72.6041 47.7659 72.6745 48.0592 72.6745 48.389C72.6745 48.7138 72.6016 49.0038 72.4558 49.2591C72.3116 49.5126 72.1127 49.7131 71.8592 49.8606C71.6056 50.0065 71.3173 50.0794 70.9941 50.0794ZM75.3225 50.0794C74.948 50.0794 74.629 49.9775 74.3655 49.7736C74.102 49.5681 73.9006 49.2707 73.7614 48.8812C73.6222 48.4901 73.5526 48.0178 73.5526 47.4643C73.5526 46.9141 73.6222 46.4443 73.7614 46.0549C73.9023 45.6638 74.1045 45.3655 74.368 45.16C74.6331 44.9528 74.9513 44.8493 75.3225 44.8493C75.6937 44.8493 76.0111 44.9528 76.2746 45.16C76.5397 45.3655 76.7419 45.6638 76.8811 46.0549C77.022 46.4443 77.0924 46.9141 77.0924 47.4643C77.0924 48.0178 77.0228 48.4901 76.8836 48.8812C76.7444 49.2707 76.543 49.5681 76.2795 49.7736C76.016 49.9775 75.697 50.0794 75.3225 50.0794ZM75.3225 49.5325C75.6937 49.5325 75.9821 49.3535 76.1876 48.9956C76.3931 48.6376 76.4958 48.1272 76.4958 47.4643C76.4958 47.0235 76.4486 46.6481 76.3541 46.3382C76.2613 46.0283 76.1271 45.7922 75.9514 45.6298C75.7774 45.4674 75.5678 45.3862 75.3225 45.3862C74.9546 45.3862 74.6671 45.5676 74.4599 45.9306C74.2528 46.2918 74.1492 46.8031 74.1492 47.4643C74.1492 47.9051 74.1956 48.2797 74.2884 48.5879C74.3812 48.8961 74.5146 49.1306 74.6886 49.2914C74.8643 49.4521 75.0756 49.5325 75.3225 49.5325Z" fill="#0000FF"/>
<path fill-rule="evenodd" clip-rule="evenodd" d="M18.8113 10.1778C18.0469 10.1778 17.427 10.7976 17.427 11.5621C17.427 12.3266 18.0468 12.9464 18.8113 12.9464H20.0556C20.133 12.9464 20.1956 12.8837 20.1956 12.8064V11.5621C20.1956 10.7976 19.5758 10.1778 18.8113 10.1778ZM21.7556 12.9464C21.6783 12.9464 21.6156 12.8837 21.6156 12.8064V11.5621C21.6156 10.0134 20.3601 8.75781 18.8113 8.75781C17.2626 8.75781 16.007 10.0134 16.007 11.5621C16.007 13.1108 17.2625 14.3664 18.8113 14.3664H20.0556C20.133 14.3664 20.1956 14.4291 20.1956 14.5064V16.9951C20.1956 17.0724 20.133 17.1351 20.0556 17.1351H18.8113C17.2626 17.1351 16.007 18.3907 16.007 19.9394C16.007 21.4881 17.2626 22.7437 18.8113 22.7437C20.36 22.7437 21.6156 21.4883 21.6156 19.9394V18.6951C21.6156 18.6178 21.6783 18.5551 21.7556 18.5551H24.2437C24.321 18.5551 24.3836 18.6177 24.3837 18.695L24.3843 19.9394C24.3843 21.4881 25.6399 22.7437 27.1886 22.7437C28.7374 22.7437 29.9929 21.4881 29.9929 19.9394C29.9929 18.3907 28.7375 17.1351 27.1886 17.1351H25.9443C25.867 17.1351 25.8043 17.0724 25.8043 16.9951V14.5064C25.8043 14.4291 25.867 14.3664 25.9443 14.3664H27.1886C28.7374 14.3664 29.9929 13.1108 29.9929 11.5621C29.9929 10.0134 28.7374 8.75781 27.1886 8.75781C25.6399 8.75781 24.3843 10.0133 24.3843 11.5621V12.8064C24.3843 12.8837 24.3217 12.9464 24.2443 12.9464H21.7556ZM21.7556 14.3664C21.6783 14.3664 21.6156 14.4291 21.6156 14.5064V16.9951C21.6156 17.0724 21.6783 17.1351 21.7556 17.1351H24.2436C24.3209 17.1351 24.3836 17.0725 24.3836 16.9952L24.3843 14.5065C24.3843 14.4291 24.3216 14.3664 24.2443 14.3664H21.7556ZM25.9443 18.5551C25.867 18.5551 25.8043 18.6178 25.8043 18.6951V19.9394C25.8043 20.7039 26.4242 21.3237 27.1886 21.3237C27.9531 21.3237 28.5729 20.7039 28.5729 19.9394C28.5729 19.1749 27.9532 18.5551 27.1886 18.5551H25.9443ZM25.8043 12.8064C25.8043 12.8837 25.867 12.9464 25.9443 12.9464H27.1886C27.9531 12.9464 28.5729 12.3266 28.5729 11.5621C28.5729 10.7976 27.9531 10.1778 27.1886 10.1778C26.4241 10.1778 25.8043 10.7976 25.8043 11.5621V12.8064ZM20.1956 18.6951C20.1956 18.6178 20.133 18.5551 20.0556 18.5551H18.8113C18.0469 18.5551 17.427 19.1749 17.427 19.9394C17.427 20.7039 18.0469 21.3237 18.8113 21.3237C19.5758 21.3237 20.1956 20.704 20.1956 19.9394V18.6951Z" fill="black"/>
<path d="M19.672 35.8662C17.6358 35.8662 16.3809 34.4843 16.3809 32.2236C16.3809 29.9629 17.6554 28.5859 19.6476 28.5859C20.9513 28.5859 21.9816 29.1963 22.4455 30.2265C22.5236 30.3876 22.5627 30.5537 22.5627 30.7001C22.5627 31.037 22.343 31.2519 22.0061 31.2519C21.718 31.2519 21.5276 31.1152 21.3909 30.8076C21.0637 30.0508 20.4241 29.6552 19.6575 29.6552C18.4465 29.6552 17.6702 30.6513 17.6702 32.2236C17.6702 33.7959 18.4417 34.7969 19.6624 34.7969C20.4681 34.7969 21.0882 34.4453 21.4105 33.7031C21.5375 33.415 21.6986 33.2978 21.972 33.2978C22.3187 33.2978 22.5579 33.5273 22.5579 33.8593C22.5579 34.0204 22.5188 34.1669 22.4407 34.3329C21.9915 35.2899 20.9905 35.8661 19.6721 35.8661L19.672 35.8662Z" fill="black"/>
<path d="M49.8715 33.8287C49.8715 34.4536 49.315 34.9126 48.6314 34.9126C48.1042 34.9126 47.7477 34.6441 47.7477 34.2194C47.7477 33.7947 48.0846 33.5457 48.6704 33.5066L49.8188 33.4366C49.8473 33.4349 49.8714 33.4575 49.8714 33.4861V33.8289L49.8715 33.8287ZM48.9536 30.4648C47.9625 30.4648 47.3909 30.8051 47.0986 31.1325C46.9293 31.3222 46.9076 31.7216 47.1398 31.9073C47.4112 32.1243 47.8658 31.9619 48.022 31.7699C48.1622 31.5975 48.477 31.4224 48.9046 31.4168C49.505 31.4089 49.8713 31.7293 49.8713 32.2712V32.4738C49.8713 32.5001 49.8508 32.5218 49.8245 32.5233L48.4993 32.5988C47.2399 32.6769 46.532 33.3502 46.532 34.268C46.532 35.1858 47.2619 35.8303 48.2603 35.8303C48.8921 35.8303 49.508 35.6653 49.8144 35.54C49.8787 35.5137 49.9524 35.5385 49.9886 35.5978C49.9914 35.6023 49.9938 35.6061 49.9958 35.609C50.0772 35.7249 50.2237 35.8449 50.4817 35.8449C50.8235 35.8449 51.0724 35.6252 51.0724 35.2347V32.1833C51.0724 31.1434 50.2376 30.4648 48.9536 30.4648Z" fill="black"/>
<path d="M60.3441 31.48C61.1011 31.48 61.6041 32.1393 61.609 33.1551C61.6041 34.1611 61.1303 34.8302 60.3441 34.8302C59.5579 34.8302 59.0695 34.1758 59.0695 33.1551C59.0695 32.1295 59.5871 31.48 60.3441 31.48ZM57.8242 33.1552C57.8242 34.8108 58.6593 35.8314 59.9731 35.8314C60.4591 35.8314 61.2292 35.5874 61.5301 35.4854C61.5976 35.4625 61.6723 35.4922 61.704 35.5562C61.712 35.5725 61.7203 35.5887 61.7307 35.6035C61.8501 35.774 62.0258 35.846 62.2245 35.846C62.5713 35.846 62.8154 35.6214 62.8154 35.2209V29.2433C62.8153 28.833 62.5663 28.6035 62.2097 28.6035C61.8531 28.6035 61.5992 28.833 61.5992 29.2433V30.7234C61.5992 30.8261 61.4933 30.895 61.3997 30.8528C61.0378 30.6899 60.4351 30.4837 59.9534 30.4837C58.6544 30.4837 57.8242 31.5044 57.8242 33.1551V33.1552Z" fill="black"/>
<path d="M29.5054 35.2061V31.089C29.5054 30.6934 29.7447 30.4688 30.0865 30.4688C30.2405 30.4688 30.3738 30.5152 30.4756 30.6005C30.5364 30.6514 30.5808 30.7209 30.611 30.7807C30.6448 30.8477 30.7259 30.8756 30.7946 30.8451C31.0636 30.7257 31.6887 30.4736 32.172 30.4736C32.7851 30.4736 33.3539 30.7959 33.5475 30.9182C33.591 30.9457 33.6459 30.9473 33.691 30.9226C33.9075 30.8038 34.5713 30.4736 35.2585 30.4736C36.2793 30.4736 36.9484 31.1623 36.9484 32.1977V35.2062C36.9484 35.6115 36.7042 35.8459 36.3428 35.8459C35.9814 35.8459 35.7323 35.6115 35.7323 35.2062V32.4956C35.7323 31.8607 35.4002 31.4993 34.8044 31.4993C34.2085 31.4993 33.8178 31.9291 33.8178 32.5494V35.2062C33.8178 35.6115 33.5882 35.8459 33.2268 35.8459C32.8654 35.8459 32.6358 35.6115 32.6358 35.2062V32.4321C32.6358 31.8558 32.2842 31.4992 31.7177 31.4992C31.1512 31.4992 30.7214 31.9534 30.7214 32.5786V35.2061C30.7214 35.6114 30.4723 35.8458 30.1109 35.8458C29.7496 35.8458 29.5054 35.6114 29.5054 35.2061Z" fill="black"/>
<path d="M38.1235 35.2061V31.089C38.1235 30.6934 38.3628 30.4688 38.7047 30.4688C38.8587 30.4688 38.992 30.5152 39.0938 30.6005C39.1546 30.6514 39.199 30.7209 39.2292 30.7807C39.263 30.8477 39.3441 30.8756 39.4128 30.8451C39.6818 30.7257 40.3068 30.4736 40.7901 30.4736C41.4033 30.4736 41.9721 30.7959 42.1657 30.9182C42.2092 30.9457 42.2641 30.9473 42.3092 30.9226C42.5257 30.8038 43.1894 30.4736 43.8767 30.4736C44.8975 30.4736 45.5665 31.1623 45.5665 32.1977V35.2062C45.5665 35.6115 45.3223 35.8459 44.961 35.8459C44.5996 35.8459 44.3505 35.6115 44.3505 35.2062V32.4956C44.3505 31.8607 44.0184 31.4993 43.4225 31.4993C42.8266 31.4993 42.436 31.9291 42.436 32.5494V35.2062C42.436 35.6115 42.2064 35.8459 41.845 35.8459C41.4836 35.8459 41.254 35.6115 41.254 35.2062V32.4321C41.254 31.8558 40.9023 31.4992 40.3358 31.4992C39.7694 31.4992 39.3396 31.9534 39.3396 32.5786V35.2061C39.3396 35.6114 39.0905 35.8458 38.7291 35.8458C38.3677 35.8458 38.1235 35.6114 38.1235 35.2061Z" fill="black"/>
<path d="M52.2527 35.2062V31.0842C52.2527 30.708 52.4725 30.4688 52.8339 30.4688C53.0407 30.4688 53.2097 30.5492 53.3152 30.6902C53.3408 30.7244 53.3626 30.7632 53.3803 30.7996C53.4147 30.8704 53.4992 30.9005 53.5699 30.8662C53.8361 30.7372 54.4554 30.4737 55.0708 30.4737C56.2137 30.4737 56.8633 31.2063 56.8633 32.4029V35.2063C56.8633 35.6167 56.6142 35.8461 56.2577 35.8461C55.9012 35.8461 55.6472 35.6165 55.6472 35.2063V32.6471C55.6472 31.9145 55.3053 31.5043 54.6118 31.5043C53.9183 31.5043 53.4689 32.0073 53.4689 32.7497V35.2063C53.4689 35.6167 53.2149 35.8461 52.8584 35.8461C52.5019 35.8461 52.2527 35.6165 52.2527 35.2062Z" fill="black"/>
<path d="M26.0193 30.4648C24.5105 30.4648 23.5144 31.4902 23.5144 33.1601C23.5144 34.83 24.5007 35.8506 26.0193 35.8506C27.5379 35.8506 28.5242 34.8398 28.5242 33.1601C28.5242 31.4804 27.5281 30.4648 26.0193 30.4648ZM26.0193 34.8887C25.2478 34.8887 24.7498 34.2637 24.7498 33.1602C24.7498 32.0567 25.2527 31.4317 26.0193 31.4317C26.7859 31.4317 27.2888 32.0616 27.2888 33.1602C27.2888 34.2588 26.7907 34.8887 26.0193 34.8887Z" fill="black"/>
</svg>
