<svg width="54" height="55" viewBox="0 0 54 55" fill="none" xmlns="http://www.w3.org/2000/svg">
<rect x="1.84998" y="2.79846" width="50.3" height="50.3" rx="3" stroke="#8B1EFF" stroke-width="0.28"/>
<path d="M9.91309 37.9961C9.83508 28.0092 9.73608 18.0211 9.61914 8.03309L9.6192 8.03065C9.62323 7.86463 9.63623 7.69861 9.65631 7.53248C9.67633 7.36744 9.70233 7.2035 9.73553 7.04004C9.76752 6.87806 9.80652 6.71705 9.85266 6.55823C9.89966 6.40027 9.95166 6.24427 10.0115 6.09009C10.1985 5.61609 10.4535 5.16517 10.77 4.76282C11.083 4.36585 11.456 4.01685 11.8725 3.73243C12.2875 3.45045 12.7465 3.23243 13.2258 3.08545C13.7078 2.93836 14.2118 2.86243 14.7141 2.85511C18.8081 2.8202 22.9021 2.80311 26.9963 2.80347C31.0893 2.80347 35.1833 2.82044 39.2776 2.85572C39.4396 2.85865 39.6016 2.86963 39.7635 2.88624C40.0035 2.91224 40.2435 2.95325 40.4799 3.01002C40.7139 3.06702 40.9449 3.13892 41.1697 3.22803C41.4037 3.32105 41.6287 3.43201 41.8449 3.55921C42.062 3.68714 42.2689 3.83118 42.4627 3.99012C42.6577 4.15015 42.8417 4.3252 43.0105 4.51172C43.1795 4.70069 43.3355 4.90272 43.476 5.11426C43.757 5.54334 43.975 6.01331 44.125 6.50501C44.276 7.00294 44.358 7.52295 44.373 8.04114C44.252 18.0181 44.154 27.9951 44.08 37.9736C44.074 38.1336 44.0601 38.2936 44.039 38.4522C44.018 38.6132 43.991 38.7721 43.9569 38.9298C43.9239 39.0888 43.8839 39.2468 43.8358 39.4022C43.7888 39.5582 43.7349 39.7122 43.675 39.8641C43.484 40.3392 43.228 40.7892 42.9172 41.198C42.6032 41.609 42.2352 41.9771 41.8244 42.288C41.4154 42.598 40.9624 42.8521 40.4838 43.0391C40.0098 43.224 39.5098 43.344 39.0063 43.392C31.0073 43.902 22.9843 43.902 14.9849 43.3921C14.6529 43.3601 14.3229 43.2962 14.0024 43.202C13.6794 43.108 13.3654 42.983 13.0632 42.8305C12.4602 42.5234 11.9092 42.1054 11.4476 41.6062C10.9866 41.1091 10.6126 40.5302 10.349 39.9081C10.219 39.6001 10.115 39.281 10.0411 38.9541C9.96912 38.6321 9.92407 38.3031 9.91113 37.973" stroke="#8B1EFF" stroke-width="0.283" stroke-miterlimit="10"/>
<rect x="12.6854" y="6.47681" width="28.63" height="34.31" rx="1.43" stroke="#00FFFF" stroke-width="0.28"/>
<path d="M42.9396 37.5326C42.9576 32.6807 42.9776 27.8276 43.0006 22.9757C43.0216 18.1227 43.0466 13.2706 43.0756 8.4176C43.0764 8.27295 43.0714 8.12891 43.0594 7.98596C43.0494 7.8429 43.0314 7.69995 43.0074 7.55896C42.9604 7.27686 42.8884 7.00293 42.7894 6.73792C42.7644 6.67188 42.7384 6.60596 42.7104 6.54089C42.6814 6.47485 42.6524 6.40991 42.6214 6.34692C42.5584 6.21887 42.4904 6.09595 42.4154 5.97693C42.2664 5.73889 42.0934 5.51892 41.8934 5.31494C41.6954 5.11194 41.4774 4.93494 41.2434 4.78186C41.1264 4.70593 41.0054 4.63489 40.8794 4.57092C40.8164 4.53894 40.7534 4.50793 40.6874 4.47888C40.6234 4.44885 40.5564 4.42188 40.4904 4.39587C40.2234 4.29187 39.9504 4.21692 39.6714 4.16589C39.3924 4.11487 39.1074 4.08887 38.8164 4.08594C37.8376 4.07837 36.8566 4.07031 35.8735 4.06433C34.8896 4.05737 33.9056 4.05237 32.9205 4.04736C30.9496 4.03931 28.9756 4.0354 26.9985 4.0354C26.5035 4.0354 26.0096 4.0354 25.5146 4.0354C25.0206 4.03638 24.5256 4.03735 24.0306 4.03833C23.0416 4.04041 22.0536 4.04333 21.0685 4.04736C19.0966 4.0564 17.1326 4.06934 15.1755 4.0863C15.0298 4.0874 14.8859 4.09534 14.7408 4.1084C14.5979 4.12231 14.4539 4.14136 14.3129 4.16736C14.0298 4.21936 13.7559 4.29639 13.4908 4.40039C13.4249 4.42639 13.3599 4.45337 13.2949 4.4834C13.2299 4.51233 13.1649 4.54431 13.1019 4.57642C12.9749 4.64233 12.8539 4.71338 12.7359 4.79138C12.5009 4.94531 12.2839 5.12439 12.0859 5.32837C12.0369 5.37842 11.9889 5.4314 11.9429 5.48438C11.8969 5.53735 11.8519 5.59131 11.8089 5.64734C11.7229 5.75732 11.6429 5.87231 11.5688 5.99036C11.4949 6.10938 11.4279 6.23242 11.3649 6.3584C11.3349 6.42139 11.3058 6.48535 11.2779 6.55139C11.2499 6.61633 11.2239 6.68335 11.1989 6.75037C11.1009 7.01636 11.0298 7.28931 10.9839 7.56738C10.9379 7.84534 10.9149 8.12939 10.9169 8.41833C10.9452 13.2709 10.9712 18.1229 10.9932 22.976C11.0162 27.8279 11.0352 32.6809 11.0532 37.533C11.0539 37.8197 11.0779 38.1036 11.1279 38.3877C11.1409 38.4586 11.1549 38.5297 11.1699 38.5996C11.1859 38.6697 11.2019 38.7396 11.2209 38.8086C11.2579 38.9476 11.3009 39.0836 11.3499 39.2186C11.3989 39.3536 11.4529 39.4867 11.5149 39.6167C11.5459 39.6816 11.5769 39.7467 11.6119 39.8107C11.6459 39.8746 11.6809 39.9386 11.7179 40.0017C11.8649 40.2517 12.0329 40.4846 12.2239 40.7017C12.3189 40.8097 12.4199 40.9137 12.5269 41.0137C12.5789 41.0636 12.6339 41.1117 12.6899 41.1587C12.7449 41.2057 12.8009 41.2506 12.8589 41.2947C13.0879 41.4696 13.3319 41.6206 13.5919 41.7467C13.6569 41.7787 13.7229 41.8086 13.7899 41.8367C13.8569 41.8656 13.9239 41.8916 13.9919 41.9166C14.1279 41.9667 14.2649 42.0096 14.4039 42.0457C14.6799 42.1177 14.9629 42.1616 15.2509 42.1797C16.2241 42.2401 17.1991 42.2931 18.1771 42.3381C19.1531 42.3842 20.1321 42.4211 21.1111 42.4512C23.0681 42.5121 25.0291 42.5421 26.9941 42.5421C27.485 42.5421 27.9771 42.5402 28.4681 42.5361C28.959 42.5331 29.451 42.5271 29.9421 42.5192C30.925 42.5042 31.9061 42.4821 32.886 42.4512C34.8441 42.3911 36.7961 42.3011 38.7414 42.1801C38.8864 42.1711 39.0294 42.1552 39.1724 42.1331C39.2433 42.1211 39.3144 42.1082 39.3864 42.0931C39.4564 42.0781 39.5273 42.0621 39.5964 42.0431C39.8763 41.9711 40.1454 41.8711 40.4044 41.7441C40.4703 41.7131 40.5334 41.6801 40.5964 41.6451C40.6603 41.6101 40.7234 41.5731 40.7853 41.5341C40.9094 41.4581 41.0284 41.3751 41.1423 41.2871C41.3724 41.1121 41.5823 40.9152 41.7734 40.6971C41.8214 40.6421 41.8674 40.5861 41.9134 40.5292C41.9584 40.4722 42.0024 40.4141 42.0444 40.3551C42.1293 40.2382 42.2073 40.1171 42.2794 39.9932C42.4254 39.7451 42.5464 39.4861 42.6443 39.2141C42.6694 39.1461 42.6924 39.0771 42.7144 39.0081C42.7354 38.9391 42.7554 38.8701 42.7734 38.8011C42.8104 38.6621 42.8414 38.5231 42.8654 38.3831C42.9144 38.1022 42.9384 37.8191 42.9396 37.5326Z" stroke="#FF00FF" stroke-width="0.283465" stroke-miterlimit="10" stroke-linecap="round" stroke-linejoin="round"/>
<path fill-rule="evenodd" clip-rule="evenodd" d="M22.3922 10.1646C22.0946 9.76662 21.5307 9.68523 21.1327 9.98282L15.7897 13.9779C15.5625 14.1478 15.4287 14.4149 15.4287 14.6985C15.4287 14.9822 15.5625 15.2493 15.7897 15.4192L21.1327 19.4144C21.5307 19.7119 22.0946 19.6306 22.3922 19.2326C22.6898 18.8346 22.6084 18.2707 22.2104 17.9731L17.981 14.8107C17.9062 14.7547 17.9062 14.6424 17.981 14.5864L22.2104 11.4241C22.6084 11.1265 22.6898 10.5626 22.3922 10.1646Z" fill="black"/>
<path d="M18.0761 37.6287L18.4853 35.6692C18.5598 35.2351 18.9008 35.0118 19.2605 35.0118C19.769 35.0118 20.1225 35.4893 19.9736 35.973L19.3163 37.9078C19.2295 38.2178 18.9876 38.3853 18.69 38.3853C18.2745 38.3853 18.0017 38.038 18.0761 37.6287Z" fill="black"/>
<path fill-rule="evenodd" clip-rule="evenodd" d="M31.8834 26.8734C32.2746 26.899 32.5711 27.237 32.5454 27.6283C32.4778 28.6607 32.4275 29.8813 32.3959 31.1531C32.3956 31.1622 32.4063 31.1673 32.4132 31.1613Lnan nanL32.4132 31.1613C33.6937 30.0506 35.2056 29.174 36.7684 29.4395C38.4947 29.7329 39.0696 31.3098 39.2252 32.5849C39.3452 33.5681 39.256 34.5951 39.1262 35.3244C39.1173 35.3747 39.1359 35.4258 39.175 35.4585C39.5178 35.7454 39.8701 36.0776 40.2312 36.4583C40.501 36.7428 40.4891 37.1922 40.2046 37.4621C39.9201 37.7319 39.4707 37.72 39.2008 37.4355C39.0333 37.2588 38.8703 37.0962 38.7118 36.9467C38.649 36.8874 38.5482 36.9004 38.497 36.97C38.1679 37.4177 37.7371 37.7334 37.2641 37.9277C36.5148 38.2356 35.6844 38.2313 35.0024 38.0289C34.1312 37.7704 33.5947 37.1261 33.4921 36.3694C33.3937 35.643 33.7089 34.8979 34.3337 34.4341C34.9734 33.9593 35.8666 33.8217 36.8751 34.1264C37.117 34.1995 37.3668 34.298 37.6238 34.4239C37.7127 34.4675 37.8195 34.411 37.8282 34.3124C37.8705 33.8277 37.8795 33.2802 37.8157 32.7569C37.6765 31.6166 37.2606 30.9635 36.5305 30.8395C35.6368 30.6876 34.5638 31.1756 33.3436 32.234C33.0271 32.5085 32.712 32.8116 32.4 33.1348C32.3752 33.1604 32.3613 33.1947 32.361 33.2304C32.3463 34.8824 32.3632 36.4974 32.4138 37.7861C32.4292 38.1779 32.124 38.508 31.7322 38.5234C31.3404 38.5388 31.0103 38.2336 30.9949 37.8418C30.964 37.0564 30.9455 36.1539 30.9388 35.1963C30.9379 35.0647 30.7729 35.0068 30.691 35.1098C30.4305 35.4374 30.1751 35.7686 29.9262 36.0975C29.6895 36.4101 29.2442 36.4717 28.9316 36.2351C28.6189 35.9984 28.5573 35.5531 28.794 35.2405C29.4413 34.3852 30.1562 33.4807 30.9121 32.6475C30.9351 32.6221 30.9481 32.5893 30.9486 32.555C30.9579 31.8781 30.9724 31.2013 30.992 30.5436C30.9945 30.4595 30.9228 30.392 30.8391 30.4005C30.4877 30.4359 30.0878 30.4849 29.6535 30.5469C29.2654 30.6023 28.9057 30.3326 28.8503 29.9444C28.7948 29.5562 29.0645 29.1966 29.4527 29.1412C29.992 29.0641 30.4935 29.0046 30.9283 28.9655C30.9984 28.9592 31.0533 28.9023 31.0566 28.8319C31.0778 28.3769 31.1018 27.942 31.1284 27.5354C31.1541 27.1441 31.4921 26.8477 31.8834 26.8734ZM37.3931 36.0712C37.4342 36.0094 37.4125 35.9271 37.3488 35.8892C37.0197 35.6933 36.7242 35.5641 36.4644 35.4857C35.7956 35.2836 35.3894 35.4189 35.1801 35.5743C34.956 35.7407 34.8728 35.9829 34.8993 36.1788C34.9217 36.3442 35.0334 36.5569 35.4064 36.6676C35.8155 36.789 36.3096 36.7847 36.7245 36.6143C36.9802 36.5092 37.2155 36.3384 37.3931 36.0712Z" fill="black"/>
<path fill-rule="evenodd" clip-rule="evenodd" d="M30.5301 9.90853C30.423 9.90853 30.3195 9.92026 30.2204 9.94224C29.8376 10.0272 29.4584 9.78574 29.3735 9.40293C29.2885 9.02012 29.53 8.64092 29.9128 8.55597C30.1122 8.51172 30.3189 8.48853 30.5301 8.48853H31.0006C31.3927 8.48853 31.7106 8.8064 31.7106 9.19853C31.7106 9.59065 31.3927 9.90853 31.0006 9.90853H30.5301ZM32.7197 9.19853C32.7197 8.8064 33.0376 8.48853 33.4297 8.48853H34.3706C34.7627 8.48853 35.0806 8.8064 35.0806 9.19853C35.0806 9.59065 34.7627 9.90853 34.3706 9.90853H33.4297C33.0376 9.90853 32.7197 9.59065 32.7197 9.19853ZM36.0897 9.19853C36.0897 8.8064 36.4076 8.48853 36.7997 8.48853H37.2701C37.4814 8.48853 37.6881 8.51172 37.8875 8.55597C38.2703 8.64092 38.5118 9.02012 38.4268 9.40293C38.3418 9.78574 37.9627 10.0272 37.5798 9.94224C37.4808 9.92026 37.3773 9.90853 37.2701 9.90853H36.7997C36.4076 9.90853 36.0897 9.59065 36.0897 9.19853ZM28.6045 10.1719C28.9874 10.2568 29.2288 10.636 29.1439 11.0188C29.1219 11.1179 29.1101 11.2214 29.1101 11.3285V11.799C29.1101 12.1911 28.7923 12.509 28.4001 12.509C28.008 12.509 27.6901 12.1911 27.6901 11.799V11.3285C27.6901 11.1173 27.7133 10.9106 27.7576 10.7112C27.8425 10.3284 28.2217 10.0869 28.6045 10.1719ZM39.1957 10.1719C39.5785 10.0869 39.9577 10.3284 40.0427 10.7112C40.0869 10.9106 40.1101 11.1173 40.1101 11.3285V11.799C40.1101 12.1911 39.7923 12.509 39.4001 12.509C39.008 12.509 38.6901 12.1911 38.6901 11.799V11.3285C38.6901 11.2214 38.6784 11.1179 38.6564 11.0188C38.5715 10.636 38.8129 10.2568 39.1957 10.1719ZM39.4001 13.5181C39.7923 13.5181 40.1101 13.836 40.1101 14.2281V15.169C40.1101 15.5611 39.7923 15.879 39.4001 15.879C39.008 15.879 38.6901 15.5611 38.6901 15.169V14.2281C38.6901 13.836 39.008 13.5181 39.4001 13.5181ZM28.4001 13.5181C28.7923 13.5181 29.1101 13.836 29.1101 14.2281V15.169C29.1101 15.5611 28.7923 15.879 28.4001 15.879C28.008 15.879 27.6901 15.5611 27.6901 15.169V14.2281C27.6901 13.836 28.008 13.5181 28.4001 13.5181ZM39.4001 16.8881C39.7923 16.8881 40.1101 17.206 40.1101 17.5981V18.0685C40.1101 18.2798 40.0869 18.4865 40.0427 18.6859C39.9577 19.0687 39.5785 19.3101 39.1957 19.2252C38.8129 19.1402 38.5715 18.761 38.6564 18.3782C38.6784 18.2792 38.6901 18.1756 38.6901 18.0685V17.5981C38.6901 17.206 39.008 16.8881 39.4001 16.8881ZM38.4268 19.9941C38.5118 20.3769 38.2703 20.7561 37.8875 20.8411C37.6881 20.8853 37.4814 20.9085 37.2701 20.9085H36.7997C36.4076 20.9085 36.0897 20.5906 36.0897 20.1985C36.0897 19.8064 36.4076 19.4885 36.7997 19.4885H37.2701C37.3773 19.4885 37.4808 19.4768 37.5798 19.4548C37.9626 19.3699 38.3418 19.6113 38.4268 19.9941ZM32.7197 20.1985C32.7197 19.8064 33.0376 19.4885 33.4297 19.4885H34.3706C34.7627 19.4885 35.0806 19.8064 35.0806 20.1985C35.0806 20.5906 34.7627 20.9085 34.3706 20.9085H33.4297C33.0376 20.9085 32.7197 20.5906 32.7197 20.1985ZM28.287 17.4261C27.99 17.1701 27.5417 17.2033 27.2857 17.5003C27.0296 17.7973 27.0628 18.2456 27.3598 18.5016C27.9048 18.9715 28.7386 19.8061 29.3748 20.6856C29.6047 21.0033 30.0485 21.0745 30.3662 20.8446C30.6839 20.6148 30.7552 20.1709 30.5253 19.8532C29.81 18.8645 28.8948 17.9501 28.287 17.4261Z" fill="black"/>
</svg>
