<svg width="81" height="54" viewBox="0 0 81 54" fill="none" xmlns="http://www.w3.org/2000/svg">
<rect x="1.85" y="1.84961" width="77.3" height="50.3" rx="3" stroke="#8B1EFF" stroke-width="0.28"/>
<path d="M71.0066 37.0028C71.0846 27.0808 71.1916 17.1588 71.3296 7.23671C71.3196 6.87971 71.2786 6.52272 71.2033 6.17207C71.1303 5.82307 71.0243 5.48207 70.8845 5.15388C70.7465 4.82887 70.5755 4.51692 70.3758 4.22517C70.1758 3.9352 69.9478 3.66518 69.6946 3.42085C69.4416 3.17787 69.1646 2.96083 68.8691 2.77419C68.5731 2.58717 68.2581 2.42921 67.9323 2.30348C67.6063 2.17751 67.2673 2.08156 66.9235 2.01747C66.5775 1.95351 66.2275 1.91945 65.8743 1.91591C48.9603 1.82497 32.0453 1.82497 15.1315 1.91554C14.7935 1.92165 14.4565 1.95461 14.1239 2.01491C13.7919 2.07387 13.4639 2.15981 13.1493 2.27443C12.9003 2.36745 12.6573 2.47841 12.4243 2.605C12.1923 2.73305 11.9683 2.87807 11.7566 3.03871C11.5456 3.20064 11.3466 3.37862 11.1627 3.57118C10.9777 3.76521 10.8097 3.9742 10.6584 4.19405C10.5064 4.41499 10.3714 4.64803 10.2536 4.8885C10.1356 5.13155 10.0356 5.38155 9.95221 5.63875C9.78619 6.15474 9.69119 6.69673 9.67749 7.23628C9.81149 17.1583 9.91852 27.0803 9.99991 37.0014C10.0249 37.6633 10.1749 38.3273 10.4398 38.9409C10.7088 39.5659 11.0948 40.1389 11.5707 40.6232C12.0497 41.1112 12.6177 41.5102 13.2406 41.796C13.8576 42.081 14.5286 42.254 15.2024 42.3052C23.6314 42.6482 32.0664 42.8192 40.5032 42.819C48.9392 42.819 57.3742 42.648 65.8041 42.3048C66.4781 42.2537 67.1481 42.0808 67.766 41.7969C68.388 41.5099 68.957 41.1109 69.4359 40.6233C69.9109 40.1383 70.2969 39.5663 70.5673 38.9408C70.8303 38.3278 70.9823 37.6638 71.0063 37.0008" stroke="#8B1EFF" stroke-width="0.283" stroke-miterlimit="10"/>
<path d="M11.2583 38.7139V6.44092C11.2583 5.26648 12.2093 4.31445 13.3843 4.31445H16.9273H64.1312H67.6743C68.8483 4.31445 69.8003 5.26648 69.8003 6.44043V38.7134C69.8003 39.8879 68.8483 40.8398 67.6743 40.8398L13.3843 40.8399C12.2093 40.8399 11.2583 39.8879 11.2583 38.7139Z" stroke="#00FFFF" stroke-width="0.28" stroke-miterlimit="10"/>
<path d="M65.6807 41.1325C48.9367 41.8176 32.0697 41.8176 15.3267 41.1325C15.0306 41.1198 14.7386 41.0828 14.4496 41.0178C14.3046 40.9859 14.1626 40.9469 14.0226 40.9018C13.8836 40.8559 13.7456 40.8048 13.6106 40.7458C13.4756 40.6878 13.3446 40.6228 13.2156 40.5518C13.1506 40.5158 13.0866 40.4778 13.0226 40.4389C12.9606 40.3999 12.8986 40.3598 12.8386 40.3178C12.5966 40.1499 12.3726 39.9608 12.1696 39.7489C12.1186 39.6958 12.0686 39.6418 12.0196 39.5858C11.9716 39.5308 11.9246 39.4729 11.8786 39.4148C11.7876 39.2998 11.7026 39.1798 11.6246 39.0568C11.4686 38.8108 11.3376 38.5518 11.2306 38.2798C11.2046 38.2108 11.1796 38.1418 11.1566 38.0728C11.1336 38.0028 11.1116 37.9328 11.0916 37.8628C11.0526 37.7229 11.0186 37.5818 10.9926 37.4398C10.9396 37.1558 10.9136 36.8689 10.9126 36.5768C10.8965 31.7902 10.8785 27.0023 10.8585 22.2153C10.8385 17.4282 10.8155 12.6413 10.7905 7.85323C10.7817 7.69765 10.7757 7.54164 10.7767 7.38667C10.7777 7.23067 10.7867 7.07668 10.8037 6.92268C10.8107 6.84566 10.8217 6.76863 10.8337 6.69167C10.8457 6.61464 10.8597 6.53865 10.8757 6.46169C10.9077 6.31068 10.9477 6.16164 10.9957 6.01466C11.0427 5.86867 11.0977 5.72566 11.1627 5.58467C11.1937 5.51466 11.2277 5.44563 11.2637 5.37666C11.3007 5.30867 11.3387 5.24068 11.3787 5.17366C11.5377 4.90865 11.7247 4.66664 11.9397 4.44667C11.9937 4.39168 12.0497 4.33766 12.1067 4.28664C12.1357 4.25966 12.1647 4.23463 12.1937 4.20863C12.2237 4.18367 12.2537 4.15865 12.2837 4.13368C12.4047 4.03664 12.5307 3.94563 12.6607 3.86269C12.9207 3.69667 13.1987 3.55965 13.4927 3.44868C13.7867 3.33864 14.0877 3.25966 14.3927 3.20668C14.6987 3.15364 15.0107 3.12666 15.3257 3.12563C32.0702 3.03365 48.9372 3.03365 65.6802 3.12563C65.9963 3.12672 66.3083 3.1537 66.6133 3.20668C66.9193 3.25972 67.2203 3.3387 67.5143 3.44868C67.8083 3.55971 68.0853 3.69673 68.3463 3.86269C68.4763 3.94569 68.6013 4.03572 68.7223 4.13368C68.7523 4.15871 68.7823 4.18373 68.8123 4.20869C68.8413 4.23372 68.8703 4.25972 68.9003 4.28572C68.9563 4.33772 69.0123 4.39168 69.0663 4.44673C69.2803 4.66573 69.4683 4.90871 69.6283 5.17372C69.6683 5.2397 69.7063 5.30769 69.7423 5.37672C69.7793 5.44472 69.8123 5.51472 69.8443 5.58473C69.9073 5.72469 69.9633 5.86873 70.0113 6.01472C70.0593 6.16072 70.0993 6.30971 70.1303 6.46169C70.1473 6.53773 70.1603 6.6147 70.1733 6.69069C70.1853 6.76772 70.1953 6.84468 70.2033 6.92171C70.2203 7.0757 70.2283 7.23073 70.2303 7.3857C70.2313 7.54073 70.2253 7.69673 70.2163 7.85268C70.1912 12.6398 70.1682 17.4278 70.1482 22.2148C70.1272 27.0018 70.1102 31.7898 70.0942 36.5766C70.0932 36.8685 70.0662 37.1585 70.0132 37.4456C69.9862 37.5905 69.9522 37.7326 69.9122 37.8715C69.8722 38.0116 69.8262 38.1496 69.7732 38.2846C69.7202 38.4196 69.6602 38.5526 69.5942 38.6835C69.5612 38.7495 69.5262 38.8145 69.4902 38.8786C69.4522 38.9426 69.4142 39.0056 69.3752 39.0665C69.2172 39.3136 69.0362 39.5426 68.8322 39.7545C68.7822 39.8065 68.7292 39.8585 68.6752 39.9085C68.6212 39.9595 68.5662 40.0086 68.5092 40.0565C68.3962 40.1525 68.2802 40.2415 68.1592 40.3236C67.9172 40.4896 67.6612 40.6315 67.3902 40.7486C67.3232 40.7775 67.2532 40.8056 67.1842 40.8316C67.1152 40.8576 67.0452 40.8815 66.9752 40.9036C66.8352 40.9495 66.6942 40.9876 66.5512 41.0195C66.2662 41.0825 65.9752 41.1206 65.6807 41.1325Z" stroke="#FF00FF" stroke-width="0.283465" stroke-miterlimit="10" stroke-linecap="round" stroke-linejoin="round"/>
<path d="M66.4147 44.9189V50.0098H65.7982V45.5652H65.7684L64.5255 46.3904V45.764L65.7982 44.9189H66.4147ZM68.0155 50.0495C67.8929 50.0495 67.7876 50.0056 67.6998 49.9178C67.612 49.83 67.5681 49.7247 67.5681 49.6021C67.5681 49.4795 67.612 49.3742 67.6998 49.2864C67.7876 49.1986 67.8929 49.1547 68.0155 49.1547C68.1381 49.1547 68.2434 49.1986 68.3312 49.2864C68.419 49.3742 68.463 49.4795 68.463 49.6021C68.463 49.6833 68.4422 49.7579 68.4008 49.8258C68.361 49.8938 68.3072 49.9484 68.2392 49.9899C68.1729 50.0297 68.0984 50.0495 68.0155 50.0495ZM70.9941 50.0794C70.7025 50.0794 70.4398 50.0214 70.2061 49.9054C69.9725 49.7894 69.7852 49.6303 69.6443 49.4281C69.5035 49.2259 69.4264 48.9956 69.4132 48.737H70.0097C70.0329 48.9674 70.1373 49.158 70.323 49.3088C70.5102 49.4579 70.7339 49.5325 70.9941 49.5325C71.2029 49.5325 71.3885 49.4836 71.5509 49.3858C71.715 49.2881 71.8434 49.1538 71.9362 48.9831C72.0307 48.8108 72.0779 48.6161 72.0779 48.399C72.0779 48.1769 72.029 47.9789 71.9313 47.8049C71.8351 47.6292 71.7026 47.4908 71.5335 47.3897C71.3645 47.2886 71.1714 47.2373 70.9543 47.2356C70.7986 47.234 70.6386 47.258 70.4746 47.3077C70.3105 47.3558 70.1755 47.4179 70.0694 47.4941L69.4927 47.4245L69.8009 44.9189H72.4458V45.4657H70.318L70.139 46.9672H70.1688C70.2732 46.8843 70.4042 46.8155 70.5616 46.7608C70.719 46.7061 70.8831 46.6788 71.0538 46.6788C71.3653 46.6788 71.6429 46.7534 71.8865 46.9025C72.1318 47.05 72.324 47.2522 72.4632 47.5091C72.6041 47.7659 72.6745 48.0592 72.6745 48.389C72.6745 48.7138 72.6016 49.0038 72.4558 49.2591C72.3116 49.5126 72.1127 49.7131 71.8592 49.8606C71.6056 50.0065 71.3173 50.0794 70.9941 50.0794ZM75.3225 50.0794C74.948 50.0794 74.629 49.9775 74.3655 49.7736C74.102 49.5681 73.9006 49.2707 73.7614 48.8812C73.6222 48.4901 73.5526 48.0178 73.5526 47.4643C73.5526 46.9141 73.6222 46.4443 73.7614 46.0549C73.9023 45.6638 74.1045 45.3655 74.368 45.16C74.6331 44.9528 74.9513 44.8493 75.3225 44.8493C75.6937 44.8493 76.0111 44.9528 76.2746 45.16C76.5397 45.3655 76.7419 45.6638 76.8811 46.0549C77.022 46.4443 77.0924 46.9141 77.0924 47.4643C77.0924 48.0178 77.0228 48.4901 76.8836 48.8812C76.7444 49.2707 76.543 49.5681 76.2795 49.7736C76.016 49.9775 75.697 50.0794 75.3225 50.0794ZM75.3225 49.5325C75.6937 49.5325 75.9821 49.3535 76.1876 48.9956C76.3931 48.6376 76.4958 48.1272 76.4958 47.4643C76.4958 47.0235 76.4486 46.6481 76.3541 46.3382C76.2613 46.0283 76.1271 45.7922 75.9514 45.6298C75.7774 45.4674 75.5678 45.3862 75.3225 45.3862C74.9546 45.3862 74.6671 45.5676 74.4599 45.9306C74.2528 46.2918 74.1492 46.8031 74.1492 47.4643C74.1492 47.9051 74.1956 48.2797 74.2884 48.5879C74.3812 48.8961 74.5146 49.1306 74.6886 49.2914C74.8643 49.4521 75.0756 49.5325 75.3225 49.5325Z" fill="#0000FF"/>
<path d="M19.672 25.8701C17.6358 25.8701 16.3809 24.4882 16.3809 22.2275C16.3809 19.9668 17.6554 18.5898 19.6476 18.5898C20.9513 18.5898 21.9816 19.2002 22.4455 20.2304C22.5236 20.3915 22.5627 20.5576 22.5627 20.704C22.5627 21.0409 22.343 21.2558 22.0061 21.2558C21.718 21.2558 21.5276 21.1191 21.3909 20.8115C21.0637 20.0547 20.4241 19.6591 19.6575 19.6591C18.4465 19.6591 17.6702 20.6552 17.6702 22.2275C17.6702 23.7998 18.4417 24.8008 19.6624 24.8008C20.4681 24.8008 21.0882 24.4492 21.4105 23.707C21.5375 23.4189 21.6986 23.3017 21.972 23.3017C22.3187 23.3017 22.5579 23.5312 22.5579 23.8632C22.5579 24.0243 22.5188 24.1708 22.4407 24.3368C21.9915 25.2938 20.9905 25.87 19.6721 25.87L19.672 25.8701Z" fill="black"/>
<path d="M48.7437 25.8508C48.3873 25.8508 48.1333 25.6213 48.1333 25.2111V19.2491C48.1333 18.8389 48.3872 18.6094 48.7437 18.6094C49.1002 18.6094 49.3492 18.8389 49.3492 19.2491V25.2111C49.3492 25.6213 49.1002 25.8508 48.7437 25.8508Z" fill="black"/>
<path d="M29.5042 25.2102V21.0881C29.5042 20.712 29.724 20.4727 30.0854 20.4727C30.2922 20.4727 30.4612 20.5532 30.5667 20.6942C30.5923 20.7284 30.6141 20.7671 30.6318 20.8036C30.6662 20.8743 30.7507 20.9044 30.8214 20.8701C31.0876 20.7411 31.7069 20.4776 32.3223 20.4776C33.4652 20.4776 34.1148 21.2102 34.1148 22.4068V25.2103C34.1148 25.6206 33.8657 25.8501 33.5092 25.8501C33.1527 25.8501 32.8987 25.6205 32.8987 25.2103V22.6511C32.8987 21.9185 32.5568 21.5082 31.8633 21.5082C31.1698 21.5082 30.7204 22.0113 30.7204 22.7536V25.2103C30.7204 25.6206 30.4664 25.8501 30.1099 25.8501C29.7534 25.8501 29.5042 25.6205 29.5042 25.2102Z" fill="black"/>
<path d="M26.0193 20.4688C24.5105 20.4688 23.5144 21.4942 23.5144 23.1641C23.5144 24.834 24.5007 25.8545 26.0193 25.8545C27.5379 25.8545 28.5242 24.8438 28.5242 23.1641C28.5242 21.4844 27.5281 20.4688 26.0193 20.4688ZM26.0193 24.8926C25.2478 24.8926 24.7498 24.2677 24.7498 23.1642C24.7498 22.0607 25.2527 21.4356 26.0193 21.4356C26.7859 21.4356 27.2888 22.0656 27.2888 23.1642C27.2888 24.2628 26.7907 24.8926 26.0193 24.8926Z" fill="black"/>
<path d="M44.613 20.4688C43.1042 20.4688 42.1081 21.4942 42.1081 23.1641C42.1081 24.834 43.0944 25.8545 44.613 25.8545C46.1316 25.8545 47.1179 24.8438 47.1179 23.1641C47.1179 21.4844 46.1218 20.4688 44.613 20.4688ZM44.613 24.8926C43.8415 24.8926 43.3435 24.2677 43.3435 23.1642C43.3435 22.0607 43.8464 21.4356 44.613 21.4356C45.3796 21.4356 45.8825 22.0656 45.8825 23.1642C45.8825 24.2628 45.3844 24.8926 44.613 24.8926Z" fill="black"/>
<path d="M38.8501 25.2103V21.0881C38.8501 20.7071 39.0845 20.4727 39.4313 20.4727C39.6649 20.4727 39.8515 20.5853 39.9441 20.7812C39.946 20.7852 39.9524 20.8013 39.9609 20.8231C39.995 20.9106 40.1033 20.9416 40.1782 20.8849C40.3806 20.7318 40.7629 20.4874 41.1408 20.4874C41.3313 20.4874 41.4778 20.5362 41.5706 20.6193C41.6829 20.7121 41.7415 20.8586 41.7415 21.0589C41.7415 21.2592 41.6829 21.391 41.5608 21.4887C41.4436 21.5913 41.2629 21.645 41.0235 21.6499C40.3299 21.6548 40.0662 22.0895 40.0662 22.7195V25.2104C40.0662 25.6109 39.822 25.8502 39.4557 25.8502C39.0894 25.8502 38.8501 25.6108 38.8501 25.2103Z" fill="black"/>
<path d="M35.6285 24.4744V21.6581C35.6285 21.5798 35.565 21.5164 35.4868 21.5164H35.3014C34.9987 21.5164 34.813 21.3455 34.813 21.0525C34.813 20.7595 34.9985 20.5935 35.3014 20.5935H35.4868C35.5651 20.5935 35.6285 20.53 35.6285 20.4518V19.8888C35.6285 19.4981 35.8629 19.2539 36.239 19.2539C36.6151 19.2539 36.8446 19.498 36.8446 19.8888V20.4518C36.8446 20.5301 36.9081 20.5935 36.9863 20.5935H37.4062C37.7089 20.5935 37.8946 20.7643 37.8946 21.0525C37.8946 21.3407 37.7091 21.5164 37.4062 21.5164H36.9863C36.908 21.5164 36.8446 21.5799 36.8446 21.6581V24.2107C36.8446 24.6014 36.9813 24.7723 37.333 24.8016L37.4209 24.8114C37.7432 24.8407 37.9093 24.9774 37.9093 25.2607C37.9093 25.6171 37.5968 25.8077 37.0401 25.8077H36.9913C36.0879 25.8077 35.6288 25.3584 35.6288 24.4745H35.6286L35.6285 24.4744Z" fill="black"/>
</svg>
