<svg width="68" height="54" viewBox="0 0 68 54" fill="none" xmlns="http://www.w3.org/2000/svg">
<rect x="1.85" y="1.84961" width="63.8" height="50.3" rx="3" stroke="#8B1EFF" stroke-width="0.28"/>
<path d="M10.2 37.0324C10.22 37.6924 10.37 38.3624 10.64 38.9724C10.91 39.6024 11.29 40.1724 11.76 40.6624C12.23 41.1524 12.8 41.5624 13.42 41.8524C14.03 42.1424 14.7 42.3224 15.37 42.3724C21.49 42.6624 27.62 42.8124 33.75 42.8124C39.88 42.8124 46.01 42.6624 52.13 42.3724C52.8 42.3124 53.47 42.1324 54.08 41.8424C54.39 41.6924 54.68 41.5224 54.96 41.3224C55.24 41.1224 55.5 40.9024 55.74 40.6524C55.98 40.4024 56.19 40.1424 56.38 39.8524C56.57 39.5724 56.73 39.2724 56.86 38.9624C56.99 38.6524 57.09 38.3324 57.16 38.0024C57.23 37.6824 57.28 37.3524 57.29 37.0124C57.37 27.0724 57.47 17.1324 57.6 7.20238C57.58 6.66238 57.5 6.12238 57.33 5.61238C57.17 5.10238 56.94 4.61238 56.63 4.17238C56.33 3.73238 55.96 3.34238 55.55 3.02238C55.13 2.70238 54.67 2.44238 54.17 2.25238C53.94 2.16238 53.7 2.09238 53.46 2.04238C53.22 1.99238 52.97 1.95238 52.72 1.92238C52.55 1.90238 52.39 1.89238 52.22 1.89238C39.9 1.83238 27.58 1.83238 15.27 1.91238C14.58 1.91238 13.88 2.05238 13.24 2.31238C12.92 2.44238 12.61 2.59238 12.32 2.78238C12.03 2.97238 11.75 3.18238 11.51 3.42238C11.26 3.66238 11.04 3.94238 10.84 4.22238C10.64 4.51238 10.48 4.82238 10.35 5.15238C10.08 5.80238 9.92 6.51238 9.9 7.22238C10.02 17.1624 10.13 27.1024 10.21 37.0324" stroke="#8B1EFF" stroke-width="0.28" stroke-miterlimit="10"/>
<path d="M13.29 4.3418C12.51 4.3418 11.87 4.9818 11.87 5.7618V38.9218C11.87 39.7018 12.5 40.3418 13.29 40.3418H54.11C54.89 40.3418 55.53 39.7118 55.53 38.9218V5.7618C55.53 4.9818 54.89 4.3418 54.11 4.3418" stroke="#00FFFF" stroke-width="0.28" stroke-miterlimit="10"/>
<path d="M15.45 41.133C15.26 41.133 15.08 41.103 14.9 41.073C14.42 40.993 13.95 40.833 13.52 40.613C13.09 40.383 12.69 40.083 12.36 39.723C12.22 39.573 12.09 39.413 11.97 39.253C11.68 38.843 11.46 38.383 11.32 37.903C11.19 37.463 11.12 37.003 11.12 36.543C11.1 31.683 11.08 26.833 11.06 21.973C11.06 20.803 11.06 19.643 11.05 18.473C11.04 15.283 11.02 12.093 11 8.90305C11 8.40305 11 7.89305 11 7.39305C11 7.35305 11 7.31305 11 7.27305C11 7.23305 11 7.19305 11 7.15305C11 7.11305 11 7.07305 11 7.03305C11 6.99305 11 6.95305 11 6.91305V6.79305C11 6.79305 11.02 6.71305 11.03 6.67305C11.03 6.63305 11.04 6.59305 11.05 6.56305C11.05 6.52305 11.06 6.48305 11.07 6.45305C11.07 6.41305 11.08 6.37305 11.09 6.34305C11.09 6.30305 11.11 6.26305 11.11 6.23305C11.12 6.19305 11.13 6.16305 11.14 6.12305C11.14 6.08305 11.16 6.05305 11.17 6.01305C11.18 5.97305 11.19 5.94305 11.2 5.90305C11.21 5.86305 11.22 5.83305 11.24 5.79305C11.25 5.75305 11.27 5.72305 11.28 5.68305C11.31 5.61305 11.34 5.55305 11.37 5.48305C11.4 5.41305 11.43 5.35305 11.47 5.29305C11.5 5.23305 11.54 5.16305 11.57 5.10305C11.61 5.04305 11.65 4.98305 11.69 4.92305C11.77 4.80305 11.86 4.68305 11.95 4.57305C12.04 4.46305 12.14 4.36305 12.24 4.26305C12.34 4.16305 12.45 4.07305 12.57 3.98305C12.68 3.89305 12.8 3.81305 12.93 3.73305C12.99 3.69305 13.05 3.66305 13.12 3.62305C13.18 3.59305 13.25 3.55305 13.31 3.52305C13.37 3.49305 13.44 3.46305 13.51 3.43305C13.58 3.40305 13.64 3.38305 13.71 3.35305C13.73 3.35305 13.75 3.34305 13.77 3.33305C13.79 3.33305 13.81 3.32305 13.83 3.31305C13.85 3.31305 13.87 3.30305 13.88 3.29305L13.94 3.27305C13.94 3.27305 13.98 3.26305 14 3.25305C14.02 3.25305 14.04 3.24305 14.06 3.23305C14.08 3.23305 14.1 3.23305 14.12 3.22305C14.14 3.22305 14.16 3.21305 14.18 3.20305C14.2 3.20305 14.22 3.19305 14.24 3.18305C14.26 3.18305 14.28 3.18305 14.3 3.17305C14.32 3.17305 14.34 3.17305 14.36 3.16305C14.38 3.16305 14.4 3.16305 14.42 3.15305C14.44 3.15305 14.46 3.15305 14.48 3.14305C14.5 3.14305 14.52 3.14305 14.54 3.13305C14.56 3.13305 14.58 3.13305 14.6 3.13305C14.62 3.13305 14.64 3.13305 14.66 3.12305C14.68 3.12305 14.7 3.12305 14.72 3.12305C14.74 3.12305 14.76 3.12305 14.78 3.12305C14.8 3.12305 14.82 3.12305 14.84 3.12305C14.86 3.12305 14.88 3.12305 14.9 3.12305C14.92 3.12305 14.94 3.12305 14.96 3.12305C14.98 3.12305 15 3.12305 15.02 3.12305C15.04 3.12305 15.06 3.12305 15.08 3.12305C15.1 3.12305 15.12 3.12305 15.14 3.12305C15.16 3.12305 15.18 3.12305 15.2 3.12305C15.22 3.12305 15.24 3.12305 15.26 3.12305C15.28 3.12305 15.3 3.12305 15.32 3.12305C15.34 3.12305 15.36 3.12305 15.38 3.12305C15.4 3.12305 15.42 3.12305 15.44 3.12305C15.54 3.12305 15.64 3.12305 15.75 3.12305C15.85 3.12305 15.95 3.12305 16.05 3.12305C16.15 3.12305 16.25 3.12305 16.36 3.12305C16.46 3.12305 16.56 3.12305 16.67 3.12305C16.77 3.12305 16.87 3.12305 16.98 3.12305C17.08 3.12305 17.18 3.12305 17.29 3.12305C17.39 3.12305 17.49 3.12305 17.6 3.12305C17.7 3.12305 17.8 3.12305 17.91 3.12305C18.01 3.12305 18.11 3.12305 18.22 3.12305C18.32 3.12305 18.42 3.12305 18.53 3.12305C18.63 3.12305 18.73 3.12305 18.84 3.12305C18.94 3.12305 19.04 3.12305 19.15 3.12305C19.25 3.12305 19.35 3.12305 19.45 3.12305C19.55 3.12305 19.66 3.12305 19.76 3.12305C19.86 3.12305 19.96 3.12305 20.07 3.12305C20.17 3.12305 20.27 3.12305 20.38 3.12305C20.48 3.12305 20.58 3.12305 20.69 3.12305C20.79 3.12305 20.89 3.12305 21 3.12305C21.1 3.12305 21.2 3.12305 21.31 3.12305C21.41 3.12305 21.51 3.12305 21.62 3.12305C21.72 3.12305 21.83 3.12305 21.93 3.12305H22.24C22.34 3.12305 22.44 3.12305 22.55 3.12305C22.65 3.12305 22.75 3.12305 22.86 3.12305C22.96 3.12305 23.07 3.12305 23.17 3.12305C23.27 3.12305 23.37 3.12305 23.48 3.12305C23.59 3.12305 23.68 3.12305 23.79 3.12305C23.89 3.12305 23.99 3.12305 24.1 3.12305H24.41C24.51 3.12305 24.61 3.12305 24.72 3.12305C24.83 3.12305 24.93 3.12305 25.03 3.12305C25.13 3.12305 25.23 3.12305 25.34 3.12305C25.45 3.12305 25.55 3.12305 25.65 3.12305C25.75 3.12305 25.86 3.12305 25.96 3.12305C26.06 3.12305 26.16 3.12305 26.27 3.12305C26.38 3.12305 26.47 3.12305 26.58 3.12305C26.68 3.12305 26.78 3.12305 26.89 3.12305H27.2C27.3 3.12305 27.4 3.12305 27.51 3.12305C27.62 3.12305 27.72 3.12305 27.82 3.12305H28.13C28.23 3.12305 28.34 3.12305 28.44 3.12305C28.54 3.12305 28.64 3.12305 28.75 3.12305H29.06C29.16 3.12305 29.27 3.12305 29.37 3.12305H29.68C29.78 3.12305 29.88 3.12305 29.99 3.12305H30.3C30.4 3.12305 30.5 3.12305 30.61 3.12305H31.22C31.32 3.12305 31.42 3.12305 31.53 3.12305H33.38C33.48 3.12305 33.59 3.12305 33.69 3.12305H34C34.1 3.12305 34.2 3.12305 34.31 3.12305H36.16C36.26 3.12305 36.37 3.12305 36.47 3.12305H37.08C37.18 3.12305 37.29 3.12305 37.39 3.12305H37.7C37.8 3.12305 37.91 3.12305 38.01 3.12305H38.32C38.42 3.12305 38.52 3.12305 38.63 3.12305H38.94C39.04 3.12305 39.14 3.12305 39.25 3.12305C39.36 3.12305 39.45 3.12305 39.56 3.12305H39.87C39.97 3.12305 40.08 3.12305 40.18 3.12305C40.28 3.12305 40.39 3.12305 40.49 3.12305H40.8C40.9 3.12305 41 3.12305 41.11 3.12305C41.21 3.12305 41.32 3.12305 41.42 3.12305C41.52 3.12305 41.62 3.12305 41.73 3.12305C41.84 3.12305 41.93 3.12305 42.04 3.12305C42.15 3.12305 42.25 3.12305 42.35 3.12305C42.45 3.12305 42.56 3.12305 42.66 3.12305C42.76 3.12305 42.86 3.12305 42.97 3.12305C43.08 3.12305 43.17 3.12305 43.28 3.12305C43.39 3.12305 43.48 3.12305 43.59 3.12305C43.7 3.12305 43.8 3.12305 43.9 3.12305C44 3.12305 44.1 3.12305 44.21 3.12305H44.52C44.62 3.12305 44.72 3.12305 44.83 3.12305C44.93 3.12305 45.04 3.12305 45.14 3.12305C45.24 3.12305 45.34 3.12305 45.45 3.12305C45.55 3.12305 45.65 3.12305 45.76 3.12305C45.86 3.12305 45.96 3.12305 46.07 3.12305C46.17 3.12305 46.28 3.12305 46.38 3.12305C46.48 3.12305 46.58 3.12305 46.69 3.12305C46.79 3.12305 46.89 3.12305 47 3.12305C47.1 3.12305 47.2 3.12305 47.31 3.12305C47.41 3.12305 47.51 3.12305 47.62 3.12305C47.72 3.12305 47.82 3.12305 47.93 3.12305C48.03 3.12305 48.13 3.12305 48.24 3.12305C48.34 3.12305 48.45 3.12305 48.55 3.12305C48.65 3.12305 48.75 3.12305 48.86 3.12305C48.96 3.12305 49.06 3.12305 49.17 3.12305C49.27 3.12305 49.38 3.12305 49.48 3.12305C49.58 3.12305 49.68 3.12305 49.79 3.12305C49.89 3.12305 49.99 3.12305 50.09 3.12305C50.19 3.12305 50.29 3.12305 50.4 3.12305C50.5 3.12305 50.6 3.12305 50.71 3.12305C50.81 3.12305 50.91 3.12305 51.01 3.12305C51.11 3.12305 51.21 3.12305 51.32 3.12305C51.42 3.12305 51.52 3.12305 51.63 3.12305C51.73 3.12305 51.83 3.12305 51.93 3.12305C52.03 3.12305 52.13 3.12305 52.24 3.12305C52.28 3.12305 52.32 3.12305 52.36 3.12305C52.4 3.12305 52.44 3.12305 52.48 3.12305C52.52 3.12305 52.56 3.12305 52.6 3.12305C52.64 3.12305 52.68 3.12305 52.72 3.13305C52.76 3.13305 52.8 3.13305 52.84 3.14305L52.96 3.16305C52.96 3.16305 53.04 3.17305 53.08 3.18305C53.12 3.18305 53.16 3.19305 53.2 3.20305C53.24 3.20305 53.27 3.22305 53.31 3.22305C53.35 3.22305 53.39 3.24305 53.42 3.25305C53.46 3.25305 53.5 3.27305 53.53 3.28305C53.57 3.28305 53.6 3.30305 53.64 3.31305C53.68 3.32305 53.71 3.33305 53.75 3.34305C53.79 3.35305 53.82 3.36305 53.86 3.37305C53.9 3.38305 53.93 3.39305 53.97 3.41305C54.04 3.44305 54.11 3.46305 54.17 3.49305C54.24 3.52305 54.3 3.55305 54.37 3.58305C54.43 3.61305 54.5 3.65305 54.56 3.68305C54.62 3.71305 54.69 3.75305 54.75 3.79305C54.87 3.87305 54.99 3.95305 55.11 4.04305C55.22 4.13305 55.33 4.22305 55.43 4.32305C55.53 4.42305 55.63 4.52305 55.72 4.63305C55.81 4.74305 55.9 4.86305 55.98 4.98305C56.02 5.04305 56.06 5.10305 56.09 5.16305C56.13 5.22305 56.16 5.28305 56.19 5.35305C56.22 5.41305 56.25 5.48305 56.28 5.54305C56.31 5.61305 56.34 5.67305 56.36 5.74305C56.36 5.76305 56.37 5.78305 56.38 5.80305C56.38 5.82305 56.39 5.84305 56.4 5.85305L56.42 5.91305C56.42 5.91305 56.43 5.95305 56.44 5.97305C56.44 5.99305 56.45 6.01305 56.46 6.03305C56.46 6.05305 56.47 6.07305 56.48 6.09305C56.48 6.11305 56.49 6.13305 56.5 6.15305C56.5 6.17305 56.51 6.19305 56.52 6.21305V6.27305C56.52 6.27305 56.54 6.31305 56.55 6.33305C56.55 6.35305 56.55 6.37305 56.56 6.39305C56.56 6.41305 56.56 6.43305 56.57 6.45305C56.57 6.47305 56.57 6.49305 56.58 6.51305V6.57305C56.58 6.57305 56.6 6.61305 56.6 6.63305C56.6 6.65305 56.6 6.67305 56.6 6.69305C56.6 6.71305 56.6 6.73305 56.6 6.75305C56.6 6.77305 56.6 6.79305 56.6 6.81305C56.6 6.83305 56.6 6.85305 56.6 6.87305C56.6 6.89305 56.6 6.91305 56.6 6.93305C56.6 6.95305 56.6 6.97305 56.6 6.99305C56.6 7.01305 56.6 7.03305 56.6 7.05305C56.6 7.07305 56.6 7.09305 56.6 7.11305C56.6 7.13305 56.6 7.15305 56.6 7.17305V7.23305C56.6 7.23305 56.6 7.27305 56.6 7.29305C56.6 7.31305 56.6 7.33305 56.6 7.35305C56.6 7.37305 56.6 7.39305 56.6 7.41305V7.47305V8.99305C56.58 12.183 56.57 15.373 56.55 18.573C56.55 19.733 56.54 20.903 56.54 22.063C56.52 26.913 56.5 31.773 56.48 36.623C56.48 36.663 56.48 36.703 56.48 36.743C56.48 36.783 56.48 36.823 56.48 36.863C56.48 36.903 56.48 36.943 56.48 36.983C56.48 37.023 56.48 37.063 56.48 37.103C56.48 37.143 56.48 37.183 56.47 37.213C56.47 37.253 56.46 37.293 56.45 37.323C56.45 37.363 56.44 37.403 56.43 37.433L56.41 37.543C56.41 37.543 56.4 37.623 56.39 37.653C56.39 37.693 56.37 37.733 56.36 37.763C56.36 37.803 56.34 37.833 56.33 37.873C56.32 37.913 56.31 37.943 56.3 37.983C56.29 38.023 56.28 38.053 56.27 38.093C56.26 38.133 56.25 38.163 56.23 38.203C56.22 38.243 56.2 38.273 56.19 38.313C56.14 38.453 56.08 38.583 56.01 38.723C55.95 38.853 55.88 38.983 55.8 39.103C55.72 39.223 55.64 39.343 55.55 39.463C55.46 39.573 55.37 39.693 55.27 39.793C55.17 39.903 55.07 40.003 54.96 40.103C54.85 40.203 54.73 40.293 54.61 40.373C54.55 40.413 54.49 40.453 54.43 40.493C54.37 40.533 54.31 40.573 54.24 40.603C54.18 40.643 54.11 40.673 54.05 40.703C53.98 40.733 53.92 40.773 53.85 40.803C53.83 40.803 53.82 40.813 53.8 40.823C53.78 40.833 53.76 40.843 53.75 40.843C53.73 40.843 53.72 40.853 53.7 40.863C53.68 40.863 53.67 40.873 53.65 40.883L53.6 40.903C53.6 40.903 53.56 40.913 53.55 40.923L53.5 40.943C53.5 40.943 53.47 40.953 53.45 40.963C53.43 40.963 53.41 40.973 53.4 40.983C53.38 40.983 53.36 40.993 53.35 41.003C53.33 41.003 53.31 41.013 53.3 41.023C53.28 41.023 53.26 41.033 53.25 41.043C53.23 41.043 53.21 41.053 53.2 41.053L53.15 41.073C53.15 41.073 53.11 41.073 53.1 41.083C53.08 41.083 53.06 41.083 53.05 41.093C53.03 41.093 53.01 41.093 52.99 41.103C52.97 41.103 52.95 41.103 52.93 41.113C52.91 41.113 52.89 41.113 52.88 41.123C52.86 41.123 52.84 41.123 52.82 41.133C52.8 41.133 52.78 41.133 52.76 41.133H52.71L52.65 41.153C52.63 41.153 52.61 41.153 52.59 41.153C52.57 41.153 52.55 41.153 52.53 41.153C52.51 41.153 52.49 41.153 52.47 41.153C52.45 41.153 52.43 41.153 52.41 41.153C52.39 41.153 52.37 41.153 52.35 41.153C52.33 41.153 52.31 41.153 52.29 41.153C52.27 41.153 52.25 41.153 52.23 41.153C52.21 41.153 52.19 41.153 52.17 41.153C52.07 41.153 51.97 41.163 51.86 41.173C51.76 41.173 51.66 41.183 51.56 41.193C51.46 41.193 51.36 41.203 51.25 41.203C51.15 41.203 51.05 41.213 50.94 41.223C50.84 41.223 50.74 41.223 50.64 41.233C50.54 41.233 50.44 41.233 50.33 41.243C50.23 41.243 50.13 41.243 50.02 41.253C49.92 41.253 49.82 41.253 49.72 41.263C49.62 41.263 49.52 41.263 49.41 41.273C49.31 41.273 49.21 41.273 49.1 41.283C49 41.283 48.9 41.283 48.79 41.293C48.69 41.293 48.59 41.293 48.48 41.303C48.38 41.303 48.28 41.303 48.17 41.313C48.07 41.313 47.97 41.313 47.86 41.323C47.76 41.323 47.66 41.323 47.55 41.333C47.45 41.333 47.35 41.333 47.24 41.343C47.14 41.343 47.04 41.343 46.93 41.353C46.83 41.353 46.73 41.353 46.62 41.363C46.52 41.363 46.42 41.363 46.31 41.373C46.21 41.373 46.11 41.373 46 41.383C45.9 41.383 45.8 41.383 45.69 41.383C45.59 41.383 45.49 41.383 45.38 41.393C45.27 41.403 45.18 41.393 45.07 41.403C44.97 41.403 44.87 41.403 44.76 41.403C44.66 41.403 44.56 41.403 44.45 41.403C44.35 41.403 44.25 41.403 44.14 41.403C44.04 41.403 43.94 41.403 43.83 41.403C43.73 41.403 43.63 41.403 43.52 41.403C43.42 41.403 43.32 41.403 43.21 41.403C43.11 41.403 43.01 41.403 42.9 41.403C42.8 41.403 42.7 41.403 42.59 41.403C42.49 41.403 42.39 41.403 42.28 41.403C42.18 41.403 42.07 41.403 41.97 41.403C41.87 41.403 41.77 41.403 41.66 41.403C41.56 41.403 41.46 41.403 41.35 41.403H41.04C40.94 41.403 40.84 41.413 40.73 41.413H40.42C40.32 41.413 40.22 41.413 40.11 41.423C40.01 41.423 39.91 41.423 39.8 41.423C39.7 41.423 39.59 41.423 39.49 41.423C39.39 41.423 39.29 41.423 39.18 41.423H38.87C38.77 41.423 38.66 41.423 38.56 41.423C38.46 41.423 38.36 41.423 38.25 41.423C38.14 41.423 38.05 41.423 37.94 41.423C37.84 41.423 37.73 41.423 37.63 41.423C37.53 41.423 37.43 41.423 37.32 41.423H37.01C36.91 41.423 36.8 41.423 36.7 41.423C36.6 41.423 36.49 41.423 36.39 41.423C36.29 41.423 36.19 41.423 36.08 41.423C35.98 41.423 35.88 41.423 35.77 41.423H35.46H35.15C35.05 41.423 34.95 41.423 34.84 41.423H34.53C34.43 41.423 34.32 41.423 34.22 41.423H33.3C33.2 41.423 33.1 41.423 32.99 41.423H32.68C32.58 41.423 32.48 41.423 32.37 41.423C32.27 41.423 32.17 41.423 32.06 41.423H31.75C31.65 41.423 31.55 41.423 31.44 41.423C31.34 41.423 31.23 41.423 31.13 41.423C31.03 41.423 30.92 41.423 30.82 41.423C30.72 41.423 30.62 41.423 30.51 41.423H30.2H29.89C29.79 41.423 29.69 41.423 29.58 41.423C29.48 41.423 29.38 41.423 29.27 41.423C29.17 41.423 29.06 41.423 28.96 41.423C28.86 41.423 28.76 41.423 28.65 41.423C28.55 41.423 28.45 41.423 28.34 41.423C28.24 41.423 28.14 41.423 28.03 41.423C27.93 41.423 27.82 41.423 27.72 41.423C27.62 41.423 27.52 41.423 27.41 41.423C27.31 41.423 27.21 41.423 27.1 41.423C27 41.423 26.9 41.423 26.79 41.423H26.48C26.38 41.423 26.28 41.423 26.17 41.413C26.07 41.413 25.97 41.413 25.86 41.413C25.76 41.413 25.66 41.413 25.55 41.413C25.45 41.413 25.34 41.413 25.24 41.413H24.93C24.83 41.413 24.73 41.403 24.62 41.403C24.52 41.403 24.41 41.403 24.31 41.403C24.21 41.403 24.1 41.403 24 41.403C23.9 41.403 23.8 41.403 23.69 41.403C23.59 41.403 23.49 41.403 23.38 41.403C23.28 41.403 23.18 41.403 23.07 41.403C22.97 41.403 22.87 41.403 22.76 41.403C22.66 41.403 22.56 41.403 22.45 41.403C22.35 41.403 22.25 41.403 22.14 41.393C22.04 41.393 21.94 41.393 21.83 41.383C21.73 41.383 21.63 41.383 21.52 41.383C21.42 41.383 21.32 41.383 21.21 41.373C21.11 41.373 21.01 41.373 20.9 41.363C20.8 41.363 20.7 41.363 20.59 41.353C20.49 41.353 20.39 41.353 20.28 41.343C20.18 41.343 20.08 41.343 19.97 41.333C19.87 41.333 19.77 41.333 19.66 41.323C19.56 41.323 19.46 41.323 19.35 41.313C19.25 41.313 19.15 41.313 19.04 41.303C18.94 41.303 18.84 41.303 18.73 41.293C18.63 41.293 18.53 41.293 18.42 41.283C18.32 41.283 18.22 41.283 18.11 41.273C18.01 41.273 17.91 41.273 17.8 41.263C17.7 41.263 17.6 41.263 17.5 41.253C17.4 41.253 17.3 41.253 17.19 41.243C17.09 41.243 16.99 41.243 16.88 41.233C16.78 41.233 16.68 41.223 16.58 41.223C16.48 41.223 16.38 41.213 16.27 41.203H15.97C15.87 41.183 15.77 41.183 15.67 41.173C15.57 41.173 15.47 41.163 15.36 41.153L15.45 41.133Z" stroke="#FF00FF" stroke-width="0.28" stroke-linecap="round" stroke-linejoin="round"/>
<path d="M53.4488 44.9189V50.0098H52.8324V45.5652H52.8025L51.5596 46.3904V45.764L52.8324 44.9189H53.4488ZM55.0497 50.0495C54.9271 50.0495 54.8218 50.0056 54.734 49.9178C54.6462 49.83 54.6023 49.7247 54.6023 49.6021C54.6023 49.4795 54.6462 49.3742 54.734 49.2864C54.8218 49.1986 54.9271 49.1547 55.0497 49.1547C55.1723 49.1547 55.2776 49.1986 55.3654 49.2864C55.4532 49.3742 55.4971 49.4795 55.4971 49.6021C55.4971 49.6833 55.4764 49.7579 55.435 49.8258C55.3952 49.8938 55.3414 49.9484 55.2734 49.9899C55.2071 50.0297 55.1326 50.0495 55.0497 50.0495ZM56.5399 50.0098V49.5623L58.2203 47.7228C58.4175 47.5074 58.5799 47.3201 58.7075 47.161C58.8352 47.0003 58.9296 46.8495 58.9909 46.7086C59.0539 46.5661 59.0854 46.417 59.0854 46.2612C59.0854 46.0822 59.0423 45.9273 58.9561 45.7963C58.8716 45.6654 58.7556 45.5643 58.6081 45.4931C58.4606 45.4218 58.2949 45.3862 58.111 45.3862C57.9154 45.3862 57.7447 45.4268 57.5989 45.508C57.4547 45.5875 57.3428 45.6994 57.2633 45.8436C57.1854 45.9877 57.1465 46.1568 57.1465 46.3507H56.5598C56.5598 46.0524 56.6286 45.7905 56.7661 45.5652C56.9037 45.3398 57.091 45.1641 57.3279 45.0382C57.5666 44.9122 57.8342 44.8493 58.1308 44.8493C58.4291 44.8493 58.6935 44.9122 58.9238 45.0382C59.1542 45.1641 59.3348 45.334 59.4657 45.5478C59.5966 45.7615 59.6621 45.9993 59.6621 46.2612C59.6621 46.4484 59.6281 46.6316 59.5602 46.8105C59.4939 46.9879 59.3779 47.1859 59.2122 47.4047C59.0481 47.6217 58.8202 47.8869 58.5286 48.2001L57.3851 49.4231V49.4629H59.7516V50.0098H56.5399ZM62.3691 50.0794C62.0775 50.0794 61.8148 50.0214 61.5811 49.9054C61.3475 49.7894 61.1602 49.6303 61.0193 49.4281C60.8785 49.2259 60.8014 48.9956 60.7882 48.737H61.3848C61.408 48.9674 61.5124 49.158 61.698 49.3088C61.8852 49.4579 62.1089 49.5325 62.3691 49.5325C62.5779 49.5325 62.7635 49.4836 62.9259 49.3858C63.09 49.2881 63.2184 49.1538 63.3112 48.9831C63.4057 48.8108 63.4529 48.6161 63.4529 48.399C63.4529 48.1769 63.404 47.9789 63.3063 47.8049C63.2102 47.6292 63.0776 47.4908 62.9085 47.3897C62.7395 47.2886 62.5464 47.2373 62.3294 47.2356C62.1736 47.234 62.0137 47.258 61.8496 47.3077C61.6855 47.3558 61.5505 47.4179 61.4444 47.4941L60.8677 47.4245L61.1759 44.9189H63.8208V45.4657H61.693L61.514 46.9672H61.5438C61.6482 46.8843 61.7792 46.8155 61.9366 46.7608C62.094 46.7061 62.2581 46.6788 62.4288 46.6788C62.7403 46.6788 63.0179 46.7534 63.2615 46.9025C63.5068 47.05 63.699 47.2522 63.8382 47.5091C63.9791 47.7659 64.0495 48.0592 64.0495 48.389C64.0495 48.7138 63.9766 49.0038 63.8308 49.2591C63.6866 49.5126 63.4877 49.7131 63.2342 49.8606C62.9806 50.0065 62.6923 50.0794 62.3691 50.0794Z" fill="#0000FF"/>
<path d="M19.672 25.8701C17.6358 25.8701 16.3809 24.4882 16.3809 22.2275C16.3809 19.9668 17.6554 18.5898 19.6476 18.5898C20.9513 18.5898 21.9816 19.2002 22.4455 20.2304C22.5236 20.3915 22.5627 20.5576 22.5627 20.704C22.5627 21.0409 22.343 21.2558 22.0061 21.2558C21.718 21.2558 21.5276 21.1191 21.3909 20.8115C21.0637 20.0547 20.4241 19.6591 19.6575 19.6591C18.4465 19.6591 17.6702 20.6552 17.6702 22.2275C17.6702 23.7998 18.4417 24.8008 19.6624 24.8008C20.4681 24.8008 21.0882 24.4492 21.4105 23.707C21.5375 23.4189 21.6986 23.3017 21.972 23.3017C22.3187 23.3017 22.5579 23.5312 22.5579 23.8632C22.5579 24.0243 22.5188 24.1708 22.4407 24.3368C21.9915 25.2938 20.9905 25.87 19.6721 25.87L19.672 25.8701Z" fill="black"/>
<path d="M48.7437 25.8508C48.3873 25.8508 48.1333 25.6213 48.1333 25.2111V19.2491C48.1333 18.8389 48.3872 18.6094 48.7437 18.6094C49.1002 18.6094 49.3492 18.8389 49.3492 19.2491V25.2111C49.3492 25.6213 49.1002 25.8508 48.7437 25.8508Z" fill="black"/>
<path d="M29.5042 25.2102V21.0881C29.5042 20.712 29.724 20.4727 30.0854 20.4727C30.2922 20.4727 30.4612 20.5532 30.5667 20.6942C30.5923 20.7284 30.6141 20.7671 30.6318 20.8036C30.6662 20.8743 30.7507 20.9044 30.8214 20.8701C31.0876 20.7411 31.7069 20.4776 32.3223 20.4776C33.4652 20.4776 34.1148 21.2102 34.1148 22.4068V25.2103C34.1148 25.6206 33.8657 25.8501 33.5092 25.8501C33.1527 25.8501 32.8987 25.6205 32.8987 25.2103V22.6511C32.8987 21.9185 32.5568 21.5082 31.8633 21.5082C31.1698 21.5082 30.7204 22.0113 30.7204 22.7536V25.2103C30.7204 25.6206 30.4664 25.8501 30.1099 25.8501C29.7534 25.8501 29.5042 25.6205 29.5042 25.2102Z" fill="black"/>
<path d="M26.0193 20.4688C24.5105 20.4688 23.5144 21.4942 23.5144 23.1641C23.5144 24.834 24.5007 25.8545 26.0193 25.8545C27.5379 25.8545 28.5242 24.8438 28.5242 23.1641C28.5242 21.4844 27.5281 20.4688 26.0193 20.4688ZM26.0193 24.8926C25.2478 24.8926 24.7498 24.2677 24.7498 23.1642C24.7498 22.0607 25.2527 21.4356 26.0193 21.4356C26.7859 21.4356 27.2888 22.0656 27.2888 23.1642C27.2888 24.2628 26.7907 24.8926 26.0193 24.8926Z" fill="black"/>
<path d="M44.613 20.4688C43.1042 20.4688 42.1081 21.4942 42.1081 23.1641C42.1081 24.834 43.0944 25.8545 44.613 25.8545C46.1316 25.8545 47.1179 24.8438 47.1179 23.1641C47.1179 21.4844 46.1218 20.4688 44.613 20.4688ZM44.613 24.8926C43.8415 24.8926 43.3435 24.2677 43.3435 23.1642C43.3435 22.0607 43.8464 21.4356 44.613 21.4356C45.3796 21.4356 45.8825 22.0656 45.8825 23.1642C45.8825 24.2628 45.3844 24.8926 44.613 24.8926Z" fill="black"/>
<path d="M38.8501 25.2103V21.0881C38.8501 20.7071 39.0845 20.4727 39.4313 20.4727C39.6649 20.4727 39.8515 20.5853 39.9441 20.7812C39.946 20.7852 39.9524 20.8013 39.9609 20.8231C39.995 20.9106 40.1033 20.9416 40.1782 20.8849C40.3806 20.7318 40.7629 20.4874 41.1408 20.4874C41.3313 20.4874 41.4778 20.5362 41.5706 20.6193C41.6829 20.7121 41.7415 20.8586 41.7415 21.0589C41.7415 21.2592 41.6829 21.391 41.5608 21.4887C41.4436 21.5913 41.2629 21.645 41.0235 21.6499C40.3299 21.6548 40.0662 22.0895 40.0662 22.7195V25.2104C40.0662 25.6109 39.822 25.8502 39.4557 25.8502C39.0894 25.8502 38.8501 25.6108 38.8501 25.2103Z" fill="black"/>
<path d="M35.6285 24.4744V21.6581C35.6285 21.5798 35.565 21.5164 35.4868 21.5164H35.3014C34.9987 21.5164 34.813 21.3455 34.813 21.0525C34.813 20.7595 34.9985 20.5935 35.3014 20.5935H35.4868C35.5651 20.5935 35.6285 20.53 35.6285 20.4518V19.8888C35.6285 19.4981 35.8629 19.2539 36.239 19.2539C36.6151 19.2539 36.8446 19.498 36.8446 19.8888V20.4518C36.8446 20.5301 36.9081 20.5935 36.9863 20.5935H37.4062C37.7089 20.5935 37.8946 20.7643 37.8946 21.0525C37.8946 21.3407 37.7091 21.5164 37.4062 21.5164H36.9863C36.908 21.5164 36.8446 21.5799 36.8446 21.6581V24.2107C36.8446 24.6014 36.9813 24.7723 37.333 24.8016L37.4209 24.8114C37.7432 24.8407 37.9093 24.9774 37.9093 25.2607C37.9093 25.6171 37.5968 25.8077 37.0401 25.8077H36.9913C36.0879 25.8077 35.6288 25.3584 35.6288 24.4745H35.6286L35.6285 24.4744Z" fill="black"/>
</svg>
