<svg width="68" height="54" viewBox="0 0 68 54" fill="none" xmlns="http://www.w3.org/2000/svg">
<rect x="2.3501" y="1.84998" width="63.8" height="50.3" rx="3" stroke="#8B1EFF" stroke-width="0.28"/>
<path d="M10.6999 37.0327C10.7199 37.6927 10.8699 38.3627 11.1399 38.9727C11.4099 39.6027 11.7899 40.1727 12.2599 40.6627C12.7299 41.1527 13.2999 41.5627 13.9199 41.8527C14.5299 42.1427 15.1999 42.3227 15.8699 42.3727C21.9899 42.6627 28.1199 42.8127 34.2499 42.8127C40.3799 42.8127 46.5099 42.6627 52.6299 42.3727C53.2999 42.3127 53.9699 42.1327 54.5799 41.8427C54.8899 41.6927 55.1799 41.5227 55.4599 41.3227C55.7399 41.1227 55.9999 40.9027 56.2399 40.6527C56.4799 40.4027 56.6899 40.1427 56.8799 39.8527C57.0699 39.5727 57.2299 39.2727 57.3599 38.9627C57.4899 38.6527 57.5899 38.3327 57.6599 38.0027C57.7299 37.6827 57.7799 37.3527 57.7899 37.0127C57.8699 27.0727 57.9699 17.1327 58.0999 7.20274C58.0799 6.66274 57.9999 6.12274 57.8299 5.61274C57.6699 5.10274 57.4399 4.61274 57.1299 4.17274C56.8299 3.73274 56.4599 3.34274 56.0499 3.02274C55.6299 2.70274 55.1699 2.44274 54.6699 2.25274C54.4399 2.16274 54.1999 2.09274 53.9599 2.04274C53.7199 1.99274 53.4699 1.95274 53.2199 1.92274C53.0499 1.90274 52.8899 1.89274 52.7199 1.89274C40.3999 1.83274 28.0799 1.83274 15.7699 1.91274C15.0799 1.91274 14.3799 2.05274 13.7399 2.31274C13.4199 2.44274 13.1099 2.59274 12.8199 2.78274C12.5299 2.97274 12.2499 3.18274 12.0099 3.42274C11.7599 3.66274 11.5399 3.94274 11.3399 4.22274C11.1399 4.51274 10.9799 4.82274 10.8499 5.15274C10.5799 5.80274 10.4199 6.51274 10.3999 7.22274C10.5199 17.1627 10.6299 27.1027 10.7099 37.0327" stroke="#8B1EFF" stroke-width="0.28" stroke-miterlimit="10"/>
<path d="M13.7901 4.34277C13.0101 4.34277 12.3701 4.98277 12.3701 5.76277V38.9228C12.3701 39.7028 13.0001 40.3428 13.7901 40.3428H54.6101C55.3901 40.3428 56.0301 39.7128 56.0301 38.9228V5.76277C56.0301 4.98277 55.3901 4.34277 54.6101 4.34277" stroke="#00FFFF" stroke-width="0.28" stroke-miterlimit="10"/>
<path d="M15.95 41.1327C15.76 41.1327 15.58 41.1027 15.4 41.0727C14.92 40.9927 14.45 40.8327 14.02 40.6127C13.59 40.3827 13.19 40.0827 12.86 39.7227C12.72 39.5727 12.59 39.4127 12.47 39.2527C12.18 38.8427 11.96 38.3827 11.82 37.9027C11.69 37.4627 11.62 37.0027 11.62 36.5427C11.6 31.6827 11.58 26.8327 11.56 21.9727C11.56 20.8027 11.56 19.6427 11.55 18.4727C11.54 15.2827 11.52 12.0927 11.5 8.90274C11.5 8.40274 11.5 7.89274 11.5 7.39274C11.5 7.35274 11.5 7.31274 11.5 7.27274C11.5 7.23274 11.5 7.19274 11.5 7.15274C11.5 7.11274 11.5 7.07274 11.5 7.03274C11.5 6.99274 11.5 6.95274 11.5 6.91274V6.79274C11.5 6.79274 11.52 6.71274 11.53 6.67274C11.53 6.63274 11.54 6.59274 11.55 6.56274C11.55 6.52274 11.56 6.48274 11.57 6.45274C11.57 6.41274 11.58 6.37274 11.59 6.34274C11.59 6.30274 11.61 6.26274 11.61 6.23274C11.62 6.19274 11.63 6.16274 11.64 6.12274C11.64 6.08274 11.66 6.05274 11.67 6.01274C11.68 5.97274 11.69 5.94274 11.7 5.90274C11.71 5.86274 11.72 5.83274 11.74 5.79274C11.75 5.75274 11.77 5.72274 11.78 5.68274C11.81 5.61274 11.84 5.55274 11.87 5.48274C11.9 5.41274 11.93 5.35274 11.97 5.29274C12 5.23274 12.04 5.16274 12.07 5.10274C12.11 5.04274 12.15 4.98274 12.19 4.92274C12.27 4.80274 12.36 4.68274 12.45 4.57274C12.54 4.46274 12.64 4.36274 12.74 4.26274C12.84 4.16274 12.95 4.07274 13.07 3.98274C13.18 3.89274 13.3 3.81274 13.43 3.73274C13.49 3.69274 13.55 3.66274 13.62 3.62274C13.68 3.59274 13.75 3.55274 13.81 3.52274C13.87 3.49274 13.94 3.46274 14.01 3.43274C14.08 3.40274 14.14 3.38274 14.21 3.35274C14.23 3.35274 14.25 3.34274 14.27 3.33274C14.29 3.33274 14.31 3.32274 14.33 3.31274C14.35 3.31274 14.37 3.30274 14.38 3.29274L14.44 3.27274C14.44 3.27274 14.48 3.26274 14.5 3.25274C14.52 3.25274 14.54 3.24274 14.56 3.23274C14.58 3.23274 14.6 3.23274 14.62 3.22274C14.64 3.22274 14.66 3.21274 14.68 3.20274C14.7 3.20274 14.72 3.19274 14.74 3.18274C14.76 3.18274 14.78 3.18274 14.8 3.17274C14.82 3.17274 14.84 3.17274 14.86 3.16274C14.88 3.16274 14.9 3.16274 14.92 3.15274C14.94 3.15274 14.96 3.15274 14.98 3.14274C15 3.14274 15.02 3.14274 15.04 3.13274C15.06 3.13274 15.08 3.13274 15.1 3.13274C15.12 3.13274 15.14 3.13274 15.16 3.12274C15.18 3.12274 15.2 3.12274 15.22 3.12274C15.24 3.12274 15.26 3.12274 15.28 3.12274C15.3 3.12274 15.32 3.12274 15.34 3.12274C15.36 3.12274 15.38 3.12274 15.4 3.12274C15.42 3.12274 15.44 3.12274 15.46 3.12274C15.48 3.12274 15.5 3.12274 15.52 3.12274C15.54 3.12274 15.56 3.12274 15.58 3.12274C15.6 3.12274 15.62 3.12274 15.64 3.12274C15.66 3.12274 15.68 3.12274 15.7 3.12274C15.72 3.12274 15.74 3.12274 15.76 3.12274C15.78 3.12274 15.8 3.12274 15.82 3.12274C15.84 3.12274 15.86 3.12274 15.88 3.12274C15.9 3.12274 15.92 3.12274 15.94 3.12274C16.04 3.12274 16.14 3.12274 16.25 3.12274C16.35 3.12274 16.45 3.12274 16.55 3.12274C16.65 3.12274 16.75 3.12274 16.86 3.12274C16.96 3.12274 17.06 3.12274 17.17 3.12274C17.27 3.12274 17.37 3.12274 17.48 3.12274C17.58 3.12274 17.68 3.12274 17.79 3.12274C17.89 3.12274 17.99 3.12274 18.1 3.12274C18.2 3.12274 18.3 3.12274 18.41 3.12274C18.51 3.12274 18.61 3.12274 18.72 3.12274C18.82 3.12274 18.92 3.12274 19.03 3.12274C19.13 3.12274 19.23 3.12274 19.34 3.12274C19.44 3.12274 19.54 3.12274 19.65 3.12274C19.75 3.12274 19.85 3.12274 19.95 3.12274C20.05 3.12274 20.16 3.12274 20.26 3.12274C20.36 3.12274 20.46 3.12274 20.57 3.12274C20.67 3.12274 20.77 3.12274 20.88 3.12274C20.98 3.12274 21.08 3.12274 21.19 3.12274C21.29 3.12274 21.39 3.12274 21.5 3.12274C21.6 3.12274 21.7 3.12274 21.81 3.12274C21.91 3.12274 22.01 3.12274 22.12 3.12274C22.22 3.12274 22.33 3.12274 22.43 3.12274H22.74C22.84 3.12274 22.94 3.12274 23.05 3.12274C23.15 3.12274 23.25 3.12274 23.36 3.12274C23.46 3.12274 23.57 3.12274 23.67 3.12274C23.77 3.12274 23.87 3.12274 23.98 3.12274C24.09 3.12274 24.18 3.12274 24.29 3.12274C24.39 3.12274 24.49 3.12274 24.6 3.12274H24.91C25.01 3.12274 25.11 3.12274 25.22 3.12274C25.33 3.12274 25.43 3.12274 25.53 3.12274C25.63 3.12274 25.73 3.12274 25.84 3.12274C25.95 3.12274 26.05 3.12274 26.15 3.12274C26.25 3.12274 26.36 3.12274 26.46 3.12274C26.56 3.12274 26.66 3.12274 26.77 3.12274C26.88 3.12274 26.97 3.12274 27.08 3.12274C27.18 3.12274 27.28 3.12274 27.39 3.12274H27.7C27.8 3.12274 27.9 3.12274 28.01 3.12274C28.12 3.12274 28.22 3.12274 28.32 3.12274H28.63C28.73 3.12274 28.84 3.12274 28.94 3.12274C29.04 3.12274 29.14 3.12274 29.25 3.12274H29.56C29.66 3.12274 29.77 3.12274 29.87 3.12274H30.18C30.28 3.12274 30.38 3.12274 30.49 3.12274H30.8C30.9 3.12274 31 3.12274 31.11 3.12274H31.72C31.82 3.12274 31.92 3.12274 32.03 3.12274H33.88C33.98 3.12274 34.09 3.12274 34.19 3.12274H34.5C34.6 3.12274 34.7 3.12274 34.81 3.12274H36.66C36.76 3.12274 36.87 3.12274 36.97 3.12274H37.58C37.68 3.12274 37.79 3.12274 37.89 3.12274H38.2C38.3 3.12274 38.41 3.12274 38.51 3.12274H38.82C38.92 3.12274 39.02 3.12274 39.13 3.12274H39.44C39.54 3.12274 39.64 3.12274 39.75 3.12274C39.86 3.12274 39.95 3.12274 40.06 3.12274H40.37C40.47 3.12274 40.58 3.12274 40.68 3.12274C40.78 3.12274 40.89 3.12274 40.99 3.12274H41.3C41.4 3.12274 41.5 3.12274 41.61 3.12274C41.71 3.12274 41.82 3.12274 41.92 3.12274C42.02 3.12274 42.12 3.12274 42.23 3.12274C42.34 3.12274 42.43 3.12274 42.54 3.12274C42.65 3.12274 42.75 3.12274 42.85 3.12274C42.95 3.12274 43.06 3.12274 43.16 3.12274C43.26 3.12274 43.36 3.12274 43.47 3.12274C43.58 3.12274 43.67 3.12274 43.78 3.12274C43.89 3.12274 43.98 3.12274 44.09 3.12274C44.2 3.12274 44.3 3.12274 44.4 3.12274C44.5 3.12274 44.6 3.12274 44.71 3.12274H45.02C45.12 3.12274 45.22 3.12274 45.33 3.12274C45.43 3.12274 45.54 3.12274 45.64 3.12274C45.74 3.12274 45.84 3.12274 45.95 3.12274C46.05 3.12274 46.15 3.12274 46.26 3.12274C46.36 3.12274 46.46 3.12274 46.57 3.12274C46.67 3.12274 46.78 3.12274 46.88 3.12274C46.98 3.12274 47.08 3.12274 47.19 3.12274C47.29 3.12274 47.39 3.12274 47.5 3.12274C47.6 3.12274 47.7 3.12274 47.81 3.12274C47.91 3.12274 48.01 3.12274 48.12 3.12274C48.22 3.12274 48.32 3.12274 48.43 3.12274C48.53 3.12274 48.63 3.12274 48.74 3.12274C48.84 3.12274 48.95 3.12274 49.05 3.12274C49.15 3.12274 49.25 3.12274 49.36 3.12274C49.46 3.12274 49.56 3.12274 49.67 3.12274C49.77 3.12274 49.88 3.12274 49.98 3.12274C50.08 3.12274 50.18 3.12274 50.29 3.12274C50.39 3.12274 50.49 3.12274 50.59 3.12274C50.69 3.12274 50.79 3.12274 50.9 3.12274C51 3.12274 51.1 3.12274 51.21 3.12274C51.31 3.12274 51.41 3.12274 51.51 3.12274C51.61 3.12274 51.71 3.12274 51.82 3.12274C51.92 3.12274 52.02 3.12274 52.13 3.12274C52.23 3.12274 52.33 3.12274 52.43 3.12274C52.53 3.12274 52.63 3.12274 52.74 3.12274C52.78 3.12274 52.82 3.12274 52.86 3.12274C52.9 3.12274 52.94 3.12274 52.98 3.12274C53.02 3.12274 53.06 3.12274 53.1 3.12274C53.14 3.12274 53.18 3.12274 53.22 3.13274C53.26 3.13274 53.3 3.13274 53.34 3.14274L53.46 3.16274C53.46 3.16274 53.54 3.17274 53.58 3.18274C53.62 3.18274 53.66 3.19274 53.7 3.20274C53.74 3.20274 53.77 3.22274 53.81 3.22274C53.85 3.22274 53.89 3.24274 53.92 3.25274C53.96 3.25274 54 3.27274 54.03 3.28274C54.07 3.28274 54.1 3.30274 54.14 3.31274C54.18 3.32274 54.21 3.33274 54.25 3.34274C54.29 3.35274 54.32 3.36274 54.36 3.37274C54.4 3.38274 54.43 3.39274 54.47 3.41274C54.54 3.44274 54.61 3.46274 54.67 3.49274C54.74 3.52274 54.8 3.55274 54.87 3.58274C54.93 3.61274 55 3.65274 55.06 3.68274C55.12 3.71274 55.19 3.75274 55.25 3.79274C55.37 3.87274 55.49 3.95274 55.61 4.04274C55.72 4.13274 55.83 4.22274 55.93 4.32274C56.03 4.42274 56.13 4.52274 56.22 4.63274C56.31 4.74274 56.4 4.86274 56.48 4.98274C56.52 5.04274 56.56 5.10274 56.59 5.16274C56.63 5.22274 56.66 5.28274 56.69 5.35274C56.72 5.41274 56.75 5.48274 56.78 5.54274C56.81 5.61274 56.84 5.67274 56.86 5.74274C56.86 5.76274 56.87 5.78274 56.88 5.80274C56.88 5.82274 56.89 5.84274 56.9 5.85274L56.92 5.91274C56.92 5.91274 56.93 5.95274 56.94 5.97274C56.94 5.99274 56.95 6.01274 56.96 6.03274C56.96 6.05274 56.97 6.07274 56.98 6.09274C56.98 6.11274 56.99 6.13274 57 6.15274C57 6.17274 57.01 6.19274 57.02 6.21274V6.27274C57.02 6.27274 57.04 6.31274 57.05 6.33274C57.05 6.35274 57.05 6.37274 57.06 6.39274C57.06 6.41274 57.06 6.43274 57.07 6.45274C57.07 6.47274 57.07 6.49274 57.08 6.51274V6.57274C57.08 6.57274 57.1 6.61274 57.1 6.63274C57.1 6.65274 57.1 6.67274 57.1 6.69274C57.1 6.71274 57.1 6.73274 57.1 6.75274C57.1 6.77274 57.1 6.79274 57.1 6.81274C57.1 6.83274 57.1 6.85274 57.1 6.87274C57.1 6.89274 57.1 6.91274 57.1 6.93274C57.1 6.95274 57.1 6.97274 57.1 6.99274C57.1 7.01274 57.1 7.03274 57.1 7.05274C57.1 7.07274 57.1 7.09274 57.1 7.11274C57.1 7.13274 57.1 7.15274 57.1 7.17274V7.23274C57.1 7.23274 57.1 7.27274 57.1 7.29274C57.1 7.31274 57.1 7.33274 57.1 7.35274C57.1 7.37274 57.1 7.39274 57.1 7.41274V7.47274V8.99274C57.08 12.1827 57.07 15.3727 57.05 18.5727C57.05 19.7327 57.04 20.9027 57.04 22.0627C57.02 26.9127 57 31.7727 56.98 36.6227C56.98 36.6627 56.98 36.7027 56.98 36.7427C56.98 36.7827 56.98 36.8227 56.98 36.8627C56.98 36.9027 56.98 36.9427 56.98 36.9827C56.98 37.0227 56.98 37.0627 56.98 37.1027C56.98 37.1427 56.98 37.1827 56.97 37.2127C56.97 37.2527 56.96 37.2927 56.95 37.3227C56.95 37.3627 56.94 37.4027 56.93 37.4327L56.91 37.5427C56.91 37.5427 56.9 37.6227 56.89 37.6527C56.89 37.6927 56.87 37.7327 56.86 37.7627C56.86 37.8027 56.84 37.8327 56.83 37.8727C56.82 37.9127 56.81 37.9427 56.8 37.9827C56.79 38.0227 56.78 38.0527 56.77 38.0927C56.76 38.1327 56.75 38.1627 56.73 38.2027C56.72 38.2427 56.7 38.2727 56.69 38.3127C56.64 38.4527 56.58 38.5827 56.51 38.7227C56.45 38.8527 56.38 38.9827 56.3 39.1027C56.22 39.2227 56.14 39.3427 56.05 39.4627C55.96 39.5727 55.87 39.6927 55.77 39.7927C55.67 39.9027 55.57 40.0027 55.46 40.1027C55.35 40.2027 55.23 40.2927 55.11 40.3727C55.05 40.4127 54.99 40.4527 54.93 40.4927C54.87 40.5327 54.81 40.5727 54.74 40.6027C54.68 40.6427 54.61 40.6727 54.55 40.7027C54.48 40.7327 54.42 40.7727 54.35 40.8027C54.33 40.8027 54.32 40.8127 54.3 40.8227C54.28 40.8327 54.26 40.8427 54.25 40.8427C54.23 40.8427 54.22 40.8527 54.2 40.8627C54.18 40.8627 54.17 40.8727 54.15 40.8827L54.1 40.9027C54.1 40.9027 54.06 40.9127 54.05 40.9227L54 40.9427C54 40.9427 53.97 40.9527 53.95 40.9627C53.93 40.9627 53.91 40.9727 53.9 40.9827C53.88 40.9827 53.86 40.9927 53.85 41.0027C53.83 41.0027 53.81 41.0127 53.8 41.0227C53.78 41.0227 53.76 41.0327 53.75 41.0427C53.73 41.0427 53.71 41.0527 53.7 41.0527L53.65 41.0727C53.65 41.0727 53.61 41.0727 53.6 41.0827C53.58 41.0827 53.56 41.0827 53.55 41.0927C53.53 41.0927 53.51 41.0927 53.49 41.1027C53.47 41.1027 53.45 41.1027 53.43 41.1127C53.41 41.1127 53.39 41.1127 53.38 41.1227C53.36 41.1227 53.34 41.1227 53.32 41.1327C53.3 41.1327 53.28 41.1327 53.26 41.1327H53.21L53.15 41.1527C53.13 41.1527 53.11 41.1527 53.09 41.1527C53.07 41.1527 53.05 41.1527 53.03 41.1527C53.01 41.1527 52.99 41.1527 52.97 41.1527C52.95 41.1527 52.93 41.1527 52.91 41.1527C52.89 41.1527 52.87 41.1527 52.85 41.1527C52.83 41.1527 52.81 41.1527 52.79 41.1527C52.77 41.1527 52.75 41.1527 52.73 41.1527C52.71 41.1527 52.69 41.1527 52.67 41.1527C52.57 41.1527 52.47 41.1627 52.36 41.1727C52.26 41.1727 52.16 41.1827 52.06 41.1927C51.96 41.1927 51.86 41.2027 51.75 41.2027C51.65 41.2027 51.55 41.2127 51.44 41.2227C51.34 41.2227 51.24 41.2227 51.14 41.2327C51.04 41.2327 50.94 41.2327 50.83 41.2427C50.73 41.2427 50.63 41.2427 50.52 41.2527C50.42 41.2527 50.32 41.2527 50.22 41.2627C50.12 41.2627 50.02 41.2627 49.91 41.2727C49.81 41.2727 49.71 41.2727 49.6 41.2827C49.5 41.2827 49.4 41.2827 49.29 41.2927C49.19 41.2927 49.09 41.2927 48.98 41.3027C48.88 41.3027 48.78 41.3027 48.67 41.3127C48.57 41.3127 48.47 41.3127 48.36 41.3227C48.26 41.3227 48.16 41.3227 48.05 41.3327C47.95 41.3327 47.85 41.3327 47.74 41.3427C47.64 41.3427 47.54 41.3427 47.43 41.3527C47.33 41.3527 47.23 41.3527 47.12 41.3627C47.02 41.3627 46.92 41.3627 46.81 41.3727C46.71 41.3727 46.61 41.3727 46.5 41.3827C46.4 41.3827 46.3 41.3827 46.19 41.3827C46.09 41.3827 45.99 41.3827 45.88 41.3927C45.77 41.4027 45.68 41.3927 45.57 41.4027C45.47 41.4027 45.37 41.4027 45.26 41.4027C45.16 41.4027 45.06 41.4027 44.95 41.4027C44.85 41.4027 44.75 41.4027 44.64 41.4027C44.54 41.4027 44.44 41.4027 44.33 41.4027C44.23 41.4027 44.13 41.4027 44.02 41.4027C43.92 41.4027 43.82 41.4027 43.71 41.4027C43.61 41.4027 43.51 41.4027 43.4 41.4027C43.3 41.4027 43.2 41.4027 43.09 41.4027C42.99 41.4027 42.89 41.4027 42.78 41.4027C42.68 41.4027 42.57 41.4027 42.47 41.4027C42.37 41.4027 42.27 41.4027 42.16 41.4027C42.06 41.4027 41.96 41.4027 41.85 41.4027H41.54C41.44 41.4027 41.34 41.4127 41.23 41.4127H40.92C40.82 41.4127 40.72 41.4127 40.61 41.4227C40.51 41.4227 40.41 41.4227 40.3 41.4227C40.2 41.4227 40.09 41.4227 39.99 41.4227C39.89 41.4227 39.79 41.4227 39.68 41.4227H39.37C39.27 41.4227 39.16 41.4227 39.06 41.4227C38.96 41.4227 38.86 41.4227 38.75 41.4227C38.64 41.4227 38.55 41.4227 38.44 41.4227C38.34 41.4227 38.23 41.4227 38.13 41.4227C38.03 41.4227 37.93 41.4227 37.82 41.4227H37.51C37.41 41.4227 37.3 41.4227 37.2 41.4227C37.1 41.4227 36.99 41.4227 36.89 41.4227C36.79 41.4227 36.69 41.4227 36.58 41.4227C36.48 41.4227 36.38 41.4227 36.27 41.4227H35.96H35.65C35.55 41.4227 35.45 41.4227 35.34 41.4227H35.03C34.93 41.4227 34.82 41.4227 34.72 41.4227H33.8C33.7 41.4227 33.6 41.4227 33.49 41.4227H33.18C33.08 41.4227 32.98 41.4227 32.87 41.4227C32.77 41.4227 32.67 41.4227 32.56 41.4227H32.25C32.15 41.4227 32.05 41.4227 31.94 41.4227C31.84 41.4227 31.73 41.4227 31.63 41.4227C31.53 41.4227 31.42 41.4227 31.32 41.4227C31.22 41.4227 31.12 41.4227 31.01 41.4227H30.7H30.39C30.29 41.4227 30.19 41.4227 30.08 41.4227C29.98 41.4227 29.88 41.4227 29.77 41.4227C29.67 41.4227 29.56 41.4227 29.46 41.4227C29.36 41.4227 29.26 41.4227 29.15 41.4227C29.05 41.4227 28.95 41.4227 28.84 41.4227C28.74 41.4227 28.64 41.4227 28.53 41.4227C28.43 41.4227 28.32 41.4227 28.22 41.4227C28.12 41.4227 28.02 41.4227 27.91 41.4227C27.81 41.4227 27.71 41.4227 27.6 41.4227C27.5 41.4227 27.4 41.4227 27.29 41.4227H26.98C26.88 41.4227 26.78 41.4227 26.67 41.4127C26.57 41.4127 26.47 41.4127 26.36 41.4127C26.26 41.4127 26.16 41.4127 26.05 41.4127C25.95 41.4127 25.84 41.4127 25.74 41.4127H25.43C25.33 41.4127 25.23 41.4027 25.12 41.4027C25.02 41.4027 24.91 41.4027 24.81 41.4027C24.71 41.4027 24.6 41.4027 24.5 41.4027C24.4 41.4027 24.3 41.4027 24.19 41.4027C24.09 41.4027 23.99 41.4027 23.88 41.4027C23.78 41.4027 23.68 41.4027 23.57 41.4027C23.47 41.4027 23.37 41.4027 23.26 41.4027C23.16 41.4027 23.06 41.4027 22.95 41.4027C22.85 41.4027 22.75 41.4027 22.64 41.3927C22.54 41.3927 22.44 41.3927 22.33 41.3827C22.23 41.3827 22.13 41.3827 22.02 41.3827C21.92 41.3827 21.82 41.3827 21.71 41.3727C21.61 41.3727 21.51 41.3727 21.4 41.3627C21.3 41.3627 21.2 41.3627 21.09 41.3527C20.99 41.3527 20.89 41.3527 20.78 41.3427C20.68 41.3427 20.58 41.3427 20.47 41.3327C20.37 41.3327 20.27 41.3327 20.16 41.3227C20.06 41.3227 19.96 41.3227 19.85 41.3127C19.75 41.3127 19.65 41.3127 19.54 41.3027C19.44 41.3027 19.34 41.3027 19.23 41.2927C19.13 41.2927 19.03 41.2927 18.92 41.2827C18.82 41.2827 18.72 41.2827 18.61 41.2727C18.51 41.2727 18.41 41.2727 18.3 41.2627C18.2 41.2627 18.1 41.2627 18 41.2527C17.9 41.2527 17.8 41.2527 17.69 41.2427C17.59 41.2427 17.49 41.2427 17.38 41.2327C17.28 41.2327 17.18 41.2227 17.08 41.2227C16.98 41.2227 16.88 41.2127 16.77 41.2027H16.47C16.37 41.1827 16.27 41.1827 16.17 41.1727C16.07 41.1727 15.97 41.1627 15.86 41.1527L15.95 41.1327Z" stroke="#FF00FF" stroke-width="0.28" stroke-linecap="round" stroke-linejoin="round"/>
<path d="M53.9491 44.9191V50.01H53.3326V45.5654H53.3028L52.0599 46.3907V45.7643L53.3326 44.9191H53.9491ZM55.5499 50.0498C55.4273 50.0498 55.3221 50.0059 55.2342 49.918C55.1464 49.8302 55.1025 49.725 55.1025 49.6023C55.1025 49.4797 55.1464 49.3745 55.2342 49.2866C55.3221 49.1988 55.4273 49.1549 55.5499 49.1549C55.6726 49.1549 55.7778 49.1988 55.8656 49.2866C55.9535 49.3745 55.9974 49.4797 55.9974 49.6023C55.9974 49.6835 55.9767 49.7581 55.9352 49.8261C55.8955 49.894 55.8416 49.9487 55.7737 49.9901C55.7074 50.0299 55.6328 50.0498 55.5499 50.0498ZM57.0402 50.01V49.5626L58.7206 47.7231C58.9178 47.5076 59.0802 47.3204 59.2078 47.1613C59.3354 47.0005 59.4299 46.8497 59.4912 46.7089C59.5541 46.5664 59.5856 46.4172 59.5856 46.2614C59.5856 46.0825 59.5425 45.9275 59.4564 45.7966C59.3718 45.6657 59.2558 45.5646 59.1084 45.4933C58.9609 45.4221 58.7951 45.3864 58.6112 45.3864C58.4156 45.3864 58.245 45.427 58.0991 45.5082C57.9549 45.5878 57.8431 45.6996 57.7635 45.8438C57.6857 45.988 57.6467 46.157 57.6467 46.3509H57.0601C57.0601 46.0526 57.1288 45.7908 57.2664 45.5654C57.4039 45.34 57.5912 45.1644 57.8282 45.0384C58.0668 44.9125 58.3344 44.8495 58.6311 44.8495C58.9294 44.8495 59.1937 44.9125 59.4241 45.0384C59.6544 45.1644 59.835 45.3342 59.966 45.548C60.0969 45.7618 60.1623 45.9996 60.1623 46.2614C60.1623 46.4487 60.1284 46.6318 60.0604 46.8108C59.9941 46.9881 59.8781 47.1861 59.7124 47.4049C59.5483 47.622 59.3205 47.8871 59.0288 48.2004L57.8853 49.4234V49.4631H60.2518V50.01H57.0402ZM62.8694 50.0796C62.5777 50.0796 62.315 50.0216 62.0814 49.9056C61.8477 49.7896 61.6604 49.6305 61.5196 49.4283C61.3787 49.2262 61.3017 48.9958 61.2884 48.7373H61.885C61.9082 48.9676 62.0126 49.1582 62.1982 49.309C62.3855 49.4582 62.6092 49.5327 62.8694 49.5327C63.0782 49.5327 63.2638 49.4838 63.4262 49.3861C63.5902 49.2883 63.7187 49.1541 63.8115 48.9834C63.9059 48.811 63.9532 48.6163 63.9532 48.3992C63.9532 48.1771 63.9043 47.9791 63.8065 47.8051C63.7104 47.6294 63.5778 47.4911 63.4088 47.39C63.2397 47.2889 63.0467 47.2375 62.8296 47.2359C62.6738 47.2342 62.5139 47.2582 62.3498 47.308C62.1858 47.356 62.0507 47.4182 61.9446 47.4944L61.3679 47.4248L61.6762 44.9191H64.3211V45.466H62.1932L62.0142 46.9674H62.0441C62.1485 46.8845 62.2794 46.8158 62.4368 46.7611C62.5943 46.7064 62.7583 46.679 62.929 46.679C63.2406 46.679 63.5182 46.7536 63.7618 46.9028C64.007 47.0503 64.1993 47.2524 64.3385 47.5093C64.4793 47.7662 64.5498 48.0595 64.5498 48.3893C64.5498 48.7141 64.4768 49.0041 64.331 49.2593C64.1868 49.5129 63.988 49.7134 63.7344 49.8609C63.4809 50.0067 63.1925 50.0796 62.8694 50.0796Z" fill="#0000FF"/>
<path d="M20.172 25.8703C18.1358 25.8703 16.8809 24.4884 16.8809 22.2277C16.8809 19.967 18.1554 18.59 20.1476 18.59C21.4513 18.59 22.4816 19.2004 22.9455 20.2306C23.0236 20.3917 23.0627 20.5578 23.0627 20.7042C23.0627 21.0411 22.843 21.256 22.5061 21.256C22.218 21.256 22.0276 21.1193 21.8909 20.8117C21.5637 20.0549 20.9241 19.6593 20.1575 19.6593C18.9465 19.6593 18.1702 20.6554 18.1702 22.2277C18.1702 23.8 18.9417 24.801 20.1624 24.801C20.9681 24.801 21.5882 24.4494 21.9105 23.7072C22.0375 23.4191 22.1986 23.3019 22.472 23.3019C22.8187 23.3019 23.0579 23.5314 23.0579 23.8634C23.0579 24.0245 23.0188 24.171 22.9407 24.337C22.4915 25.294 21.4905 25.8702 20.1721 25.8702L20.172 25.8703Z" fill="black"/>
<path d="M49.2437 25.851C48.8873 25.851 48.6333 25.6215 48.6333 25.2113V19.2493C48.6333 18.8391 48.8872 18.6096 49.2437 18.6096C49.6002 18.6096 49.8492 18.8391 49.8492 19.2493V25.2113C49.8492 25.6215 49.6002 25.851 49.2437 25.851Z" fill="black"/>
<path d="M30.0039 25.211V21.0889C30.0039 20.7128 30.2237 20.4735 30.5851 20.4735C30.7919 20.4735 30.9609 20.554 31.0664 20.695C31.092 20.7292 31.1138 20.7679 31.1315 20.8044C31.1659 20.8751 31.2504 20.9052 31.3211 20.8709C31.5873 20.7419 32.2066 20.4784 32.822 20.4784C33.9649 20.4784 34.6145 21.211 34.6145 22.4076V25.2111C34.6145 25.6214 34.3654 25.8509 34.0089 25.8509C33.6524 25.8509 33.3984 25.6213 33.3984 25.2111V22.6519C33.3984 21.9193 33.0565 21.509 32.363 21.509C31.6695 21.509 31.2201 22.0121 31.2201 22.7544V25.2111C31.2201 25.6214 30.9661 25.8509 30.6096 25.8509C30.2531 25.8509 30.0039 25.6213 30.0039 25.211Z" fill="black"/>
<path d="M26.5195 20.4699C25.0107 20.4699 24.0146 21.4953 24.0146 23.1652C24.0146 24.8351 25.0009 25.8557 26.5195 25.8557C28.0381 25.8557 29.0244 24.8449 29.0244 23.1652C29.0244 21.4855 28.0283 20.4699 26.5195 20.4699ZM26.5195 24.8938C25.748 24.8938 25.25 24.2688 25.25 23.1653C25.25 22.0618 25.7529 21.4368 26.5195 21.4368C27.2861 21.4368 27.789 22.0667 27.789 23.1653C27.789 24.2639 27.2909 24.8938 26.5195 24.8938Z" fill="black"/>
<path d="M45.1128 20.4699C43.604 20.4699 42.6079 21.4953 42.6079 23.1652C42.6079 24.8351 43.5942 25.8557 45.1128 25.8557C46.6314 25.8557 47.6177 24.8449 47.6177 23.1652C47.6177 21.4855 46.6216 20.4699 45.1128 20.4699ZM45.1128 24.8938C44.3413 24.8938 43.8433 24.2688 43.8433 23.1653C43.8433 22.0618 44.3462 21.4368 45.1128 21.4368C45.8794 21.4368 46.3823 22.0667 46.3823 23.1653C46.3823 24.2639 45.8842 24.8938 45.1128 24.8938Z" fill="black"/>
<path d="M39.3496 25.2109V21.0887C39.3496 20.7077 39.584 20.4733 39.9308 20.4733C40.1644 20.4733 40.351 20.5859 40.4436 20.7818C40.4455 20.7858 40.4519 20.8019 40.4604 20.8237C40.4945 20.9112 40.6028 20.9422 40.6777 20.8855C40.8801 20.7324 41.2624 20.488 41.6403 20.488C41.8308 20.488 41.9773 20.5368 42.0701 20.6199C42.1824 20.7127 42.241 20.8592 42.241 21.0595C42.241 21.2598 42.1824 21.3916 42.0603 21.4893C41.9431 21.5919 41.7624 21.6456 41.523 21.6505C40.8294 21.6554 40.5657 22.0901 40.5657 22.7201V25.211C40.5657 25.6115 40.3215 25.8508 39.9552 25.8508C39.5889 25.8508 39.3496 25.6114 39.3496 25.2109Z" fill="black"/>
<path d="M36.1285 24.4737V21.6574C36.1285 21.5791 36.065 21.5157 35.9868 21.5157H35.8014C35.4987 21.5157 35.313 21.3448 35.313 21.0518C35.313 20.7588 35.4985 20.5928 35.8014 20.5928H35.9868C36.0651 20.5928 36.1285 20.5293 36.1285 20.4511V19.8881C36.1285 19.4974 36.3629 19.2532 36.739 19.2532C37.1151 19.2532 37.3446 19.4973 37.3446 19.8881V20.4511C37.3446 20.5294 37.4081 20.5928 37.4863 20.5928H37.9062C38.2089 20.5928 38.3946 20.7636 38.3946 21.0518C38.3946 21.34 38.2091 21.5157 37.9062 21.5157H37.4863C37.408 21.5157 37.3446 21.5792 37.3446 21.6574V24.21C37.3446 24.6007 37.4813 24.7716 37.833 24.8009L37.9209 24.8107C38.2432 24.84 38.4093 24.9767 38.4093 25.26C38.4093 25.6164 38.0968 25.807 37.5401 25.807H37.4913C36.5879 25.807 36.1288 25.3577 36.1288 24.4738H36.1286L36.1285 24.4737Z" fill="black"/>
</svg>
