<svg width="82" height="55" viewBox="0 0 82 55" fill="none" xmlns="http://www.w3.org/2000/svg">
<rect x="2.3501" y="2.7984" width="77.3" height="50.3" rx="3" stroke="#8B1EFF" stroke-width="0.28"/>
<path d="M71.5066 37.9511C71.5846 28.0291 71.6916 18.1071 71.8296 8.18507C71.8196 7.82808 71.7786 7.47108 71.7033 7.12044C71.6303 6.77144 71.5243 6.43044 71.3845 6.10225C71.2465 5.77724 71.0755 5.46529 70.8758 5.17354C70.6758 4.88356 70.4478 4.61354 70.1946 4.36922C69.9416 4.12624 69.6646 3.90919 69.3691 3.72255C69.0731 3.53554 68.7581 3.37758 68.4323 3.25185C68.1063 3.12587 67.7673 3.02992 67.4235 2.96584C67.0775 2.90187 66.7275 2.86781 66.3743 2.86427C49.4603 2.77333 32.5453 2.77333 15.6315 2.86391C15.2935 2.87001 14.9565 2.90297 14.6239 2.96327C14.2919 3.02223 13.9639 3.10817 13.6493 3.22279C13.4003 3.31581 13.1573 3.42677 12.9243 3.55336C12.6923 3.68141 12.4683 3.82643 12.2566 3.98708C12.0456 4.149 11.8466 4.32698 11.6627 4.51955C11.4777 4.71358 11.3097 4.92256 11.1584 5.14241C11.0064 5.36336 10.8714 5.59639 10.7536 5.83687C10.6356 6.07991 10.5356 6.32991 10.4522 6.58711C10.2862 7.1031 10.1912 7.6451 10.1775 8.18465C10.3115 18.1066 10.4185 28.0286 10.4999 37.9497C10.5249 38.6117 10.6749 39.2757 10.9398 39.8893C11.2088 40.5143 11.5948 41.0873 12.0707 41.5715C12.5497 42.0595 13.1177 42.4586 13.7406 42.7444C14.3576 43.0294 15.0286 43.2024 15.7024 43.2536C24.1314 43.5966 32.5664 43.7675 41.0032 43.7674C49.4392 43.7674 57.8742 43.5964 66.3041 43.2531C66.9781 43.2021 67.6481 43.0291 68.266 42.7453C68.888 42.4583 69.457 42.0593 69.9359 41.5717C70.4109 41.0867 70.7969 40.5147 71.0673 39.8892C71.3303 39.2762 71.4823 38.6122 71.5063 37.9492" stroke="#8B1EFF" stroke-width="0.283" stroke-miterlimit="10"/>
<path d="M11.7583 39.6616V7.38861C11.7583 6.21417 12.7093 5.26215 13.8843 5.26215H17.4273H64.6312H68.1743C69.3483 5.26215 70.3003 6.21417 70.3003 7.38812V39.6611C70.3003 40.8356 69.3483 41.7875 68.1743 41.7875L13.8843 41.7876C12.7093 41.7876 11.7583 40.8356 11.7583 39.6616Z" stroke="#00FFFF" stroke-width="0.28" stroke-miterlimit="10"/>
<path d="M66.1807 42.0811C49.4367 42.7662 32.5697 42.7662 15.8267 42.0811C15.5306 42.0684 15.2386 42.0314 14.9496 41.9664C14.8046 41.9345 14.6626 41.8955 14.5226 41.8504C14.3836 41.8045 14.2456 41.7534 14.1106 41.6944C13.9756 41.6364 13.8446 41.5714 13.7156 41.5004C13.6506 41.4644 13.5866 41.4264 13.5226 41.3875C13.4606 41.3485 13.3986 41.3084 13.3386 41.2664C13.0966 41.0985 12.8726 40.9094 12.6696 40.6975C12.6186 40.6444 12.5686 40.5904 12.5196 40.5344C12.4716 40.4794 12.4246 40.4215 12.3786 40.3634C12.2876 40.2484 12.2026 40.1284 12.1246 40.0054C11.9686 39.7594 11.8376 39.5004 11.7306 39.2284C11.7046 39.1594 11.6796 39.0904 11.6566 39.0214C11.6336 38.9514 11.6116 38.8814 11.5916 38.8114C11.5526 38.6715 11.5186 38.5304 11.4926 38.3884C11.4396 38.1044 11.4136 37.8175 11.4126 37.5254C11.3965 32.7388 11.3785 27.9509 11.3585 23.1639C11.3385 18.3768 11.3155 13.5899 11.2905 8.80183C11.2817 8.64626 11.2757 8.49025 11.2767 8.33528C11.2777 8.17928 11.2867 8.02528 11.3037 7.87129C11.3107 7.79427 11.3217 7.71724 11.3337 7.64027C11.3457 7.56325 11.3597 7.48726 11.3757 7.41029C11.4077 7.25929 11.4477 7.11024 11.4957 6.96327C11.5427 6.81728 11.5977 6.67427 11.6627 6.53328C11.6937 6.46327 11.7277 6.39424 11.7637 6.32527C11.8007 6.25728 11.8387 6.18929 11.8787 6.12227C12.0377 5.85725 12.2247 5.61525 12.4397 5.39528C12.4937 5.34029 12.5497 5.28627 12.6067 5.23524C12.6357 5.20827 12.6647 5.18324 12.6937 5.15724C12.7237 5.13228 12.7537 5.10725 12.7837 5.08229C12.9047 4.98524 13.0307 4.89424 13.1607 4.81129C13.4207 4.64528 13.6987 4.50826 13.9927 4.39729C14.2867 4.28725 14.5877 4.20827 14.8927 4.15529C15.1987 4.10225 15.5107 4.07527 15.8257 4.07423C32.5702 3.98225 49.4372 3.98225 66.1802 4.07423C66.4963 4.07533 66.8083 4.10231 67.1133 4.15529C67.4193 4.20833 67.7203 4.28731 68.0143 4.39729C68.3083 4.50832 68.5853 4.64534 68.8463 4.81129C68.9763 4.8943 69.1013 4.98433 69.2223 5.08229C69.2523 5.10732 69.2823 5.13234 69.3123 5.1573C69.3413 5.18233 69.3703 5.20833 69.4003 5.23433C69.4563 5.28633 69.5123 5.34029 69.5663 5.39534C69.7803 5.61433 69.9683 5.85732 70.1283 6.12233C70.1683 6.18831 70.2063 6.2563 70.2423 6.32533C70.2793 6.39333 70.3123 6.46333 70.3443 6.53334C70.4073 6.67329 70.4633 6.81734 70.5113 6.96333C70.5593 7.10933 70.5993 7.25832 70.6303 7.41029C70.6473 7.48634 70.6603 7.56331 70.6733 7.6393C70.6853 7.71632 70.6953 7.79329 70.7033 7.87032C70.7203 8.02431 70.7283 8.17934 70.7303 8.3343C70.7313 8.48933 70.7253 8.64534 70.7163 8.80128C70.6912 13.5885 70.6682 18.3764 70.6482 23.1634C70.6272 27.9505 70.6102 32.7384 70.5942 37.5252C70.5932 37.8172 70.5662 38.1071 70.5132 38.3942C70.4862 38.5391 70.4522 38.6812 70.4122 38.8201C70.3722 38.9602 70.3262 39.0982 70.2732 39.2332C70.2202 39.3682 70.1602 39.5012 70.0942 39.6322C70.0612 39.6981 70.0262 39.7631 69.9902 39.8272C69.9522 39.8912 69.9142 39.9542 69.8752 40.0152C69.7172 40.2622 69.5362 40.4912 69.3322 40.7031C69.2822 40.7551 69.2292 40.8071 69.1752 40.8571C69.1212 40.9082 69.0662 40.9572 69.0092 41.0051C68.8962 41.1012 68.7802 41.1901 68.6592 41.2722C68.4172 41.4382 68.1612 41.5802 67.8902 41.6972C67.8232 41.7262 67.7532 41.7542 67.6842 41.7802C67.6152 41.8062 67.5452 41.8302 67.4752 41.8522C67.3352 41.8981 67.1942 41.9362 67.0512 41.9682C66.7662 42.0311 66.4752 42.0692 66.1807 42.0811Z" stroke="#FF00FF" stroke-width="0.283465" stroke-miterlimit="10" stroke-linecap="round" stroke-linejoin="round"/>
<path d="M66.9147 45.8675V50.9584H66.2982V46.5138H66.2684L65.0255 47.3391V46.7127L66.2982 45.8675H66.9147ZM68.5155 50.9982C68.3929 50.9982 68.2876 50.9543 68.1998 50.8665C68.112 50.7786 68.0681 50.6734 68.0681 50.5508C68.0681 50.4281 68.112 50.3229 68.1998 50.2351C68.2876 50.1472 68.3929 50.1033 68.5155 50.1033C68.6381 50.1033 68.7434 50.1472 68.8312 50.2351C68.919 50.3229 68.963 50.4281 68.963 50.5508C68.963 50.632 68.9422 50.7065 68.9008 50.7745C68.861 50.8424 68.8072 50.8971 68.7392 50.9385C68.6729 50.9783 68.5984 50.9982 68.5155 50.9982ZM71.4941 51.028C71.2025 51.028 70.9398 50.97 70.7061 50.854C70.4725 50.738 70.2852 50.5789 70.1443 50.3768C70.0035 50.1746 69.9264 49.9442 69.9132 49.6857H70.5097C70.5329 49.9161 70.6373 50.1066 70.823 50.2574C71.0102 50.4066 71.2339 50.4812 71.4941 50.4812C71.7029 50.4812 71.8885 50.4323 72.0509 50.3345C72.215 50.2367 72.3434 50.1025 72.4362 49.9318C72.5307 49.7595 72.5779 49.5647 72.5779 49.3476C72.5779 49.1256 72.529 48.9275 72.4313 48.7535C72.3351 48.5779 72.2026 48.4395 72.0335 48.3384C71.8645 48.2373 71.6714 48.1859 71.4543 48.1843C71.2986 48.1826 71.1386 48.2067 70.9746 48.2564C70.8105 48.3044 70.6755 48.3666 70.5694 48.4428L69.9927 48.3732L70.3009 45.8675H72.9458V46.4144H70.818L70.639 47.9158H70.6688C70.7732 47.833 70.9042 47.7642 71.0616 47.7095C71.219 47.6548 71.3831 47.6275 71.5538 47.6275C71.8653 47.6275 72.1429 47.702 72.3865 47.8512C72.6318 47.9987 72.824 48.2009 72.9632 48.4577C73.1041 48.7146 73.1745 49.0079 73.1745 49.3377C73.1745 49.6625 73.1016 49.9525 72.9558 50.2077C72.8116 50.4613 72.6127 50.6618 72.3592 50.8093C72.1056 50.9551 71.8173 51.028 71.4941 51.028ZM75.8225 51.028C75.448 51.028 75.129 50.9261 74.8655 50.7223C74.602 50.5168 74.4006 50.2193 74.2614 49.8299C74.1222 49.4388 74.0526 48.9665 74.0526 48.413C74.0526 47.8628 74.1222 47.393 74.2614 47.0035C74.4023 46.6124 74.6045 46.3141 74.868 46.1086C75.1331 45.9015 75.4513 45.7979 75.8225 45.7979C76.1937 45.7979 76.5111 45.9015 76.7746 46.1086C77.0397 46.3141 77.2419 46.6124 77.3811 47.0035C77.522 47.393 77.5924 47.8628 77.5924 48.413C77.5924 48.9665 77.5228 49.4388 77.3836 49.8299C77.2444 50.2193 77.043 50.5168 76.7795 50.7223C76.516 50.9261 76.197 51.028 75.8225 51.028ZM75.8225 50.4812C76.1937 50.4812 76.4821 50.3022 76.6876 49.9442C76.8931 49.5863 76.9958 49.0759 76.9958 48.413C76.9958 47.9722 76.9486 47.5968 76.8541 47.2869C76.7613 46.977 76.6271 46.7409 76.4514 46.5785C76.2774 46.4161 76.0678 46.3349 75.8225 46.3349C75.4546 46.3349 75.1671 46.5163 74.9599 46.8792C74.7528 47.2405 74.6492 47.7518 74.6492 48.413C74.6492 48.8538 74.6956 49.2283 74.7884 49.5366C74.8812 49.8448 75.0146 50.0793 75.1886 50.24C75.3643 50.4008 75.5756 50.4812 75.8225 50.4812Z" fill="#0000FF"/>
<path fill-rule="evenodd" clip-rule="evenodd" d="M23.3788 17.7687C23.3788 17.3766 23.061 17.0587 22.6688 17.0587C22.2767 17.0587 21.9588 17.3766 21.9588 17.7687V18.5181C21.9588 18.5954 21.8962 18.6581 21.8188 18.6581H19.21C18.8179 18.6581 18.5 18.9759 18.5 19.3681C18.5 19.7602 18.8179 20.0781 19.21 20.0781H22.6677L22.6688 20.0781L22.67 20.0781H26.128C26.5201 20.0781 26.838 19.7602 26.838 19.3681C26.838 18.9759 26.5201 18.6581 26.128 18.6581H23.5188C23.4415 18.6581 23.3788 18.5954 23.3788 18.5181V17.7687ZM28.4026 17.0916C28.7947 17.0916 29.1126 17.4095 29.1126 17.8016V20.9612C29.1126 21.0385 29.1753 21.1012 29.2526 21.1012H30.6674C31.0595 21.1012 31.3774 21.4191 31.3774 21.8112C31.3774 22.2033 31.0595 22.5212 30.6674 22.5212H29.2526C29.1753 22.5212 29.1126 22.5839 29.1126 22.6612V26.8579C29.1126 27.2501 28.7947 27.5679 28.4026 27.5679C28.0105 27.5679 27.6926 27.2501 27.6926 26.8579V21.8218L27.6925 21.8112L27.6926 21.8006V17.8016C27.6926 17.4095 28.0105 17.0916 28.4026 17.0916ZM21.1964 22.5666C20.9314 22.7298 20.7696 22.9612 20.7696 23.3831C20.7696 23.8036 20.9312 24.0353 21.1966 24.199C21.5093 24.3919 22.0102 24.5082 22.6691 24.5082C23.328 24.5082 23.8289 24.3919 24.1416 24.199C24.407 24.0353 24.5686 23.8036 24.5686 23.3831C24.5686 22.9612 24.4068 22.7298 24.1418 22.5666C23.8292 22.3739 23.3284 22.2579 22.6691 22.2579C22.0098 22.2579 21.509 22.3739 21.1964 22.5666ZM20.4514 21.3577C21.0833 20.9683 21.8872 20.8379 22.6691 20.8379C23.451 20.8379 24.2549 20.9683 24.8868 21.3577C25.5662 21.7764 25.9886 22.4625 25.9886 23.3831C25.9886 24.3029 25.566 24.9888 24.887 25.4076C24.2553 25.7972 23.4514 25.9282 22.6691 25.9282C21.8868 25.9282 21.0829 25.7972 20.4512 25.4076C19.7722 24.9888 19.3496 24.3029 19.3496 23.3831C19.3496 22.4625 19.772 21.7764 20.4514 21.3577ZM22.1036 29.2307C22.1036 29.3081 22.1663 29.3707 22.2436 29.3707L28.7922 29.3707C29.1843 29.3707 29.5022 29.6886 29.5022 30.0807C29.5022 30.4729 29.1843 30.7907 28.7922 30.7907L21.3936 30.7907C21.2053 30.7907 21.0247 30.7159 20.8916 30.5828C20.7584 30.4496 20.6836 30.2691 20.6836 30.0807V27.3898C20.6836 26.9977 21.0015 26.6798 21.3936 26.6798C21.7857 26.6798 22.1036 26.9977 22.1036 27.3898V29.2307ZM42.5421 17.8191C42.5421 17.4269 42.2242 17.1091 41.8321 17.1091C41.4399 17.1091 41.1221 17.4269 41.1221 17.8191V22.3033L41.1219 22.3181L41.1221 22.3329V29.4305C41.1221 29.8226 41.4399 30.1405 41.8321 30.1405C42.2242 30.1405 42.5421 29.8226 42.5421 29.4305V23.1681C42.5421 23.0908 42.6047 23.0281 42.6821 23.0281H44.1686C44.5607 23.0281 44.8786 22.7102 44.8786 22.3181C44.8786 21.926 44.5607 21.6081 44.1686 21.6081H42.6821C42.6047 21.6081 42.5421 21.5454 42.5421 21.4681V17.8191ZM32.945 18.1613C32.5529 18.1613 32.235 18.4792 32.235 18.8713C32.235 19.2634 32.5529 19.5813 32.945 19.5813H35.2761C35.3534 19.5813 35.4161 19.644 35.4161 19.7213V21.5478C35.4161 21.5478 35.4161 21.5478 35.4161 21.5478C35.4161 21.5478 35.4161 21.5478 35.4161 21.5479L35.4161 21.5593C35.4107 22.4733 34.7665 23.6448 32.2749 25.6394C31.9688 25.8845 31.9193 26.3313 32.1644 26.6374C32.4094 26.9435 32.8562 26.993 33.1623 26.748C34.4608 25.7085 35.4011 24.7904 36.0053 23.9176C36.0632 23.8338 36.189 23.8338 36.2469 23.9176C36.8511 24.7904 37.7914 25.7085 39.0899 26.748C39.396 26.993 39.8428 26.9435 40.0878 26.6374C40.3329 26.3313 40.2834 25.8845 39.9773 25.6394C37.4872 23.646 36.8422 22.4747 36.8361 21.5609V21.5533L36.8361 21.5478L36.8361 19.7213C36.8361 19.644 36.8988 19.5813 36.9761 19.5813H39.308C39.7001 19.5813 40.018 19.2634 40.018 18.8713C40.018 18.4792 39.7001 18.1613 39.308 18.1613H32.945Z" fill="black"/>
</svg>
