<svg width="68" height="55" viewBox="0 0 68 55" fill="none" xmlns="http://www.w3.org/2000/svg">
<rect x="1.8501" y="2.7984" width="63.8" height="50.3" rx="3" stroke="#8B1EFF" stroke-width="0.28"/>
<path d="M10.1999 37.9812C10.2199 38.6412 10.3699 39.3112 10.6399 39.9212C10.9099 40.5512 11.2899 41.1212 11.7599 41.6112C12.2299 42.1012 12.7999 42.5112 13.4199 42.8012C14.0299 43.0912 14.6999 43.2712 15.3699 43.3212C21.4899 43.6112 27.6199 43.7612 33.7499 43.7612C39.8799 43.7612 46.0099 43.6112 52.1299 43.3212C52.7999 43.2612 53.4699 43.0812 54.0799 42.7912C54.3899 42.6412 54.6799 42.4712 54.9599 42.2712C55.2399 42.0712 55.4999 41.8512 55.7399 41.6012C55.9799 41.3512 56.1899 41.0912 56.3799 40.8012C56.5699 40.5212 56.7299 40.2212 56.8599 39.9112C56.9899 39.6012 57.0899 39.2812 57.1599 38.9512C57.2299 38.6312 57.2799 38.3012 57.2899 37.9612C57.3699 28.0212 57.4699 18.0812 57.5999 8.15117C57.5799 7.61117 57.4999 7.07117 57.3299 6.56117C57.1699 6.05117 56.9399 5.56117 56.6299 5.12117C56.3299 4.68117 55.9599 4.29117 55.5499 3.97117C55.1299 3.65117 54.6699 3.39117 54.1699 3.20117C53.9399 3.11117 53.6999 3.04117 53.4599 2.99117C53.2199 2.94117 52.9699 2.90117 52.7199 2.87117C52.5499 2.85117 52.3899 2.84117 52.2199 2.84117C39.8999 2.78117 27.5799 2.78117 15.2699 2.86117C14.5799 2.86117 13.8799 3.00117 13.2399 3.26117C12.9199 3.39117 12.6099 3.54117 12.3199 3.73117C12.0299 3.92117 11.7499 4.13117 11.5099 4.37117C11.2599 4.61117 11.0399 4.89117 10.8399 5.17117C10.6399 5.46117 10.4799 5.77117 10.3499 6.10117C10.0799 6.75117 9.9199 7.46117 9.8999 8.17117C10.0199 18.1112 10.1299 28.0512 10.2099 37.9812" stroke="#8B1EFF" stroke-width="0.28" stroke-miterlimit="10"/>
<path d="M13.2901 5.2912C12.5101 5.2912 11.8701 5.9312 11.8701 6.7112V39.8712C11.8701 40.6512 12.5001 41.2912 13.2901 41.2912H54.1101C54.8901 41.2912 55.5301 40.6612 55.5301 39.8712V6.7112C55.5301 5.9312 54.8901 5.2912 54.1101 5.2912" stroke="#00FFFF" stroke-width="0.28" stroke-miterlimit="10"/>
<path d="M15.45 42.0812C15.26 42.0812 15.08 42.0512 14.9 42.0212C14.42 41.9412 13.95 41.7812 13.52 41.5612C13.09 41.3312 12.69 41.0312 12.36 40.6712C12.22 40.5212 12.09 40.3612 11.97 40.2012C11.68 39.7912 11.46 39.3312 11.32 38.8512C11.19 38.4112 11.12 37.9512 11.12 37.4912C11.1 32.6312 11.08 27.7812 11.06 22.9212C11.06 21.7512 11.06 20.5912 11.05 19.4212C11.04 16.2312 11.02 13.0412 11 9.85123C11 9.35123 11 8.84123 11 8.34123C11 8.30123 11 8.26123 11 8.22123C11 8.18123 11 8.14123 11 8.10123C11 8.06123 11 8.02123 11 7.98123C11 7.94123 11 7.90123 11 7.86123V7.74123C11 7.74123 11.02 7.66123 11.03 7.62123C11.03 7.58123 11.04 7.54123 11.05 7.51123C11.05 7.47123 11.06 7.43123 11.07 7.40123C11.07 7.36123 11.08 7.32123 11.09 7.29123C11.09 7.25123 11.11 7.21123 11.11 7.18123C11.12 7.14123 11.13 7.11123 11.14 7.07123C11.14 7.03123 11.16 7.00123 11.17 6.96123C11.18 6.92123 11.19 6.89123 11.2 6.85123C11.21 6.81123 11.22 6.78123 11.24 6.74123C11.25 6.70123 11.27 6.67123 11.28 6.63123C11.31 6.56123 11.34 6.50123 11.37 6.43123C11.4 6.36123 11.43 6.30123 11.47 6.24123C11.5 6.18123 11.54 6.11123 11.57 6.05123C11.61 5.99123 11.65 5.93123 11.69 5.87123C11.77 5.75123 11.86 5.63123 11.95 5.52123C12.04 5.41123 12.14 5.31123 12.24 5.21123C12.34 5.11123 12.45 5.02123 12.57 4.93123C12.68 4.84123 12.8 4.76123 12.93 4.68123C12.99 4.64123 13.05 4.61123 13.12 4.57123C13.18 4.54123 13.25 4.50123 13.31 4.47123C13.37 4.44123 13.44 4.41123 13.51 4.38123C13.58 4.35123 13.64 4.33123 13.71 4.30123C13.73 4.30123 13.75 4.29123 13.77 4.28123C13.79 4.28123 13.81 4.27123 13.83 4.26123C13.85 4.26123 13.87 4.25123 13.88 4.24123L13.94 4.22123C13.94 4.22123 13.98 4.21123 14 4.20123C14.02 4.20123 14.04 4.19123 14.06 4.18123C14.08 4.18123 14.1 4.18123 14.12 4.17123C14.14 4.17123 14.16 4.16123 14.18 4.15123C14.2 4.15123 14.22 4.14123 14.24 4.13123C14.26 4.13123 14.28 4.13123 14.3 4.12123C14.32 4.12123 14.34 4.12123 14.36 4.11123C14.38 4.11123 14.4 4.11123 14.42 4.10123C14.44 4.10123 14.46 4.10123 14.48 4.09123C14.5 4.09123 14.52 4.09123 14.54 4.08123C14.56 4.08123 14.58 4.08123 14.6 4.08123C14.62 4.08123 14.64 4.08123 14.66 4.07123C14.68 4.07123 14.7 4.07123 14.72 4.07123C14.74 4.07123 14.76 4.07123 14.78 4.07123C14.8 4.07123 14.82 4.07123 14.84 4.07123C14.86 4.07123 14.88 4.07123 14.9 4.07123C14.92 4.07123 14.94 4.07123 14.96 4.07123C14.98 4.07123 15 4.07123 15.02 4.07123C15.04 4.07123 15.06 4.07123 15.08 4.07123C15.1 4.07123 15.12 4.07123 15.14 4.07123C15.16 4.07123 15.18 4.07123 15.2 4.07123C15.22 4.07123 15.24 4.07123 15.26 4.07123C15.28 4.07123 15.3 4.07123 15.32 4.07123C15.34 4.07123 15.36 4.07123 15.38 4.07123C15.4 4.07123 15.42 4.07123 15.44 4.07123C15.54 4.07123 15.64 4.07123 15.75 4.07123C15.85 4.07123 15.95 4.07123 16.05 4.07123C16.15 4.07123 16.25 4.07123 16.36 4.07123C16.46 4.07123 16.56 4.07123 16.67 4.07123C16.77 4.07123 16.87 4.07123 16.98 4.07123C17.08 4.07123 17.18 4.07123 17.29 4.07123C17.39 4.07123 17.49 4.07123 17.6 4.07123C17.7 4.07123 17.8 4.07123 17.91 4.07123C18.01 4.07123 18.11 4.07123 18.22 4.07123C18.32 4.07123 18.42 4.07123 18.53 4.07123C18.63 4.07123 18.73 4.07123 18.84 4.07123C18.94 4.07123 19.04 4.07123 19.15 4.07123C19.25 4.07123 19.35 4.07123 19.45 4.07123C19.55 4.07123 19.66 4.07123 19.76 4.07123C19.86 4.07123 19.96 4.07123 20.07 4.07123C20.17 4.07123 20.27 4.07123 20.38 4.07123C20.48 4.07123 20.58 4.07123 20.69 4.07123C20.79 4.07123 20.89 4.07123 21 4.07123C21.1 4.07123 21.2 4.07123 21.31 4.07123C21.41 4.07123 21.51 4.07123 21.62 4.07123C21.72 4.07123 21.83 4.07123 21.93 4.07123H22.24C22.34 4.07123 22.44 4.07123 22.55 4.07123C22.65 4.07123 22.75 4.07123 22.86 4.07123C22.96 4.07123 23.07 4.07123 23.17 4.07123C23.27 4.07123 23.37 4.07123 23.48 4.07123C23.59 4.07123 23.68 4.07123 23.79 4.07123C23.89 4.07123 23.99 4.07123 24.1 4.07123H24.41C24.51 4.07123 24.61 4.07123 24.72 4.07123C24.83 4.07123 24.93 4.07123 25.03 4.07123C25.13 4.07123 25.23 4.07123 25.34 4.07123C25.45 4.07123 25.55 4.07123 25.65 4.07123C25.75 4.07123 25.86 4.07123 25.96 4.07123C26.06 4.07123 26.16 4.07123 26.27 4.07123C26.38 4.07123 26.47 4.07123 26.58 4.07123C26.68 4.07123 26.78 4.07123 26.89 4.07123H27.2C27.3 4.07123 27.4 4.07123 27.51 4.07123C27.62 4.07123 27.72 4.07123 27.82 4.07123H28.13C28.23 4.07123 28.34 4.07123 28.44 4.07123C28.54 4.07123 28.64 4.07123 28.75 4.07123H29.06C29.16 4.07123 29.27 4.07123 29.37 4.07123H29.68C29.78 4.07123 29.88 4.07123 29.99 4.07123H30.3C30.4 4.07123 30.5 4.07123 30.61 4.07123H31.22C31.32 4.07123 31.42 4.07123 31.53 4.07123H33.38C33.48 4.07123 33.59 4.07123 33.69 4.07123H34C34.1 4.07123 34.2 4.07123 34.31 4.07123H36.16C36.26 4.07123 36.37 4.07123 36.47 4.07123H37.08C37.18 4.07123 37.29 4.07123 37.39 4.07123H37.7C37.8 4.07123 37.91 4.07123 38.01 4.07123H38.32C38.42 4.07123 38.52 4.07123 38.63 4.07123H38.94C39.04 4.07123 39.14 4.07123 39.25 4.07123C39.36 4.07123 39.45 4.07123 39.56 4.07123H39.87C39.97 4.07123 40.08 4.07123 40.18 4.07123C40.28 4.07123 40.39 4.07123 40.49 4.07123H40.8C40.9 4.07123 41 4.07123 41.11 4.07123C41.21 4.07123 41.32 4.07123 41.42 4.07123C41.52 4.07123 41.62 4.07123 41.73 4.07123C41.84 4.07123 41.93 4.07123 42.04 4.07123C42.15 4.07123 42.25 4.07123 42.35 4.07123C42.45 4.07123 42.56 4.07123 42.66 4.07123C42.76 4.07123 42.86 4.07123 42.97 4.07123C43.08 4.07123 43.17 4.07123 43.28 4.07123C43.39 4.07123 43.48 4.07123 43.59 4.07123C43.7 4.07123 43.8 4.07123 43.9 4.07123C44 4.07123 44.1 4.07123 44.21 4.07123H44.52C44.62 4.07123 44.72 4.07123 44.83 4.07123C44.93 4.07123 45.04 4.07123 45.14 4.07123C45.24 4.07123 45.34 4.07123 45.45 4.07123C45.55 4.07123 45.65 4.07123 45.76 4.07123C45.86 4.07123 45.96 4.07123 46.07 4.07123C46.17 4.07123 46.28 4.07123 46.38 4.07123C46.48 4.07123 46.58 4.07123 46.69 4.07123C46.79 4.07123 46.89 4.07123 47 4.07123C47.1 4.07123 47.2 4.07123 47.31 4.07123C47.41 4.07123 47.51 4.07123 47.62 4.07123C47.72 4.07123 47.82 4.07123 47.93 4.07123C48.03 4.07123 48.13 4.07123 48.24 4.07123C48.34 4.07123 48.45 4.07123 48.55 4.07123C48.65 4.07123 48.75 4.07123 48.86 4.07123C48.96 4.07123 49.06 4.07123 49.17 4.07123C49.27 4.07123 49.38 4.07123 49.48 4.07123C49.58 4.07123 49.68 4.07123 49.79 4.07123C49.89 4.07123 49.99 4.07123 50.09 4.07123C50.19 4.07123 50.29 4.07123 50.4 4.07123C50.5 4.07123 50.6 4.07123 50.71 4.07123C50.81 4.07123 50.91 4.07123 51.01 4.07123C51.11 4.07123 51.21 4.07123 51.32 4.07123C51.42 4.07123 51.52 4.07123 51.63 4.07123C51.73 4.07123 51.83 4.07123 51.93 4.07123C52.03 4.07123 52.13 4.07123 52.24 4.07123C52.28 4.07123 52.32 4.07123 52.36 4.07123C52.4 4.07123 52.44 4.07123 52.48 4.07123C52.52 4.07123 52.56 4.07123 52.6 4.07123C52.64 4.07123 52.68 4.07123 52.72 4.08123C52.76 4.08123 52.8 4.08123 52.84 4.09123L52.96 4.11123C52.96 4.11123 53.04 4.12123 53.08 4.13123C53.12 4.13123 53.16 4.14123 53.2 4.15123C53.24 4.15123 53.27 4.17123 53.31 4.17123C53.35 4.17123 53.39 4.19123 53.42 4.20123C53.46 4.20123 53.5 4.22123 53.53 4.23123C53.57 4.23123 53.6 4.25123 53.64 4.26123C53.68 4.27123 53.71 4.28123 53.75 4.29123C53.79 4.30123 53.82 4.31123 53.86 4.32123C53.9 4.33123 53.93 4.34123 53.97 4.36123C54.04 4.39123 54.11 4.41123 54.17 4.44123C54.24 4.47123 54.3 4.50123 54.37 4.53123C54.43 4.56123 54.5 4.60123 54.56 4.63123C54.62 4.66123 54.69 4.70123 54.75 4.74123C54.87 4.82123 54.99 4.90123 55.11 4.99123C55.22 5.08123 55.33 5.17123 55.43 5.27123C55.53 5.37123 55.63 5.47123 55.72 5.58123C55.81 5.69123 55.9 5.81123 55.98 5.93123C56.02 5.99123 56.06 6.05123 56.09 6.11123C56.13 6.17123 56.16 6.23123 56.19 6.30123C56.22 6.36123 56.25 6.43123 56.28 6.49123C56.31 6.56123 56.34 6.62123 56.36 6.69123C56.36 6.71123 56.37 6.73123 56.38 6.75123C56.38 6.77123 56.39 6.79123 56.4 6.80123L56.42 6.86123C56.42 6.86123 56.43 6.90123 56.44 6.92123C56.44 6.94123 56.45 6.96123 56.46 6.98123C56.46 7.00123 56.47 7.02123 56.48 7.04123C56.48 7.06123 56.49 7.08123 56.5 7.10123C56.5 7.12123 56.51 7.14123 56.52 7.16123V7.22123C56.52 7.22123 56.54 7.26123 56.55 7.28123C56.55 7.30123 56.55 7.32123 56.56 7.34123C56.56 7.36123 56.56 7.38123 56.57 7.40123C56.57 7.42123 56.57 7.44123 56.58 7.46123V7.52123C56.58 7.52123 56.6 7.56123 56.6 7.58123C56.6 7.60123 56.6 7.62123 56.6 7.64123C56.6 7.66123 56.6 7.68123 56.6 7.70123C56.6 7.72123 56.6 7.74123 56.6 7.76123C56.6 7.78123 56.6 7.80123 56.6 7.82123C56.6 7.84123 56.6 7.86123 56.6 7.88123C56.6 7.90123 56.6 7.92123 56.6 7.94123C56.6 7.96123 56.6 7.98123 56.6 8.00123C56.6 8.02123 56.6 8.04123 56.6 8.06123C56.6 8.08123 56.6 8.10123 56.6 8.12123V8.18123C56.6 8.18123 56.6 8.22123 56.6 8.24123C56.6 8.26123 56.6 8.28123 56.6 8.30123C56.6 8.32123 56.6 8.34123 56.6 8.36123V8.42123V9.94123C56.58 13.1312 56.57 16.3212 56.55 19.5212C56.55 20.6812 56.54 21.8512 56.54 23.0112C56.52 27.8612 56.5 32.7212 56.48 37.5712C56.48 37.6112 56.48 37.6512 56.48 37.6912C56.48 37.7312 56.48 37.7712 56.48 37.8112C56.48 37.8512 56.48 37.8912 56.48 37.9312C56.48 37.9712 56.48 38.0112 56.48 38.0512C56.48 38.0912 56.48 38.1312 56.47 38.1612C56.47 38.2012 56.46 38.2412 56.45 38.2712C56.45 38.3112 56.44 38.3512 56.43 38.3812L56.41 38.4912C56.41 38.4912 56.4 38.5712 56.39 38.6012C56.39 38.6412 56.37 38.6812 56.36 38.7112C56.36 38.7512 56.34 38.7812 56.33 38.8212C56.32 38.8612 56.31 38.8912 56.3 38.9312C56.29 38.9712 56.28 39.0012 56.27 39.0412C56.26 39.0812 56.25 39.1112 56.23 39.1512C56.22 39.1912 56.2 39.2212 56.19 39.2612C56.14 39.4012 56.08 39.5312 56.01 39.6712C55.95 39.8012 55.88 39.9312 55.8 40.0512C55.72 40.1712 55.64 40.2912 55.55 40.4112C55.46 40.5212 55.37 40.6412 55.27 40.7412C55.17 40.8512 55.07 40.9512 54.96 41.0512C54.85 41.1512 54.73 41.2412 54.61 41.3212C54.55 41.3612 54.49 41.4012 54.43 41.4412C54.37 41.4812 54.31 41.5212 54.24 41.5512C54.18 41.5912 54.11 41.6212 54.05 41.6512C53.98 41.6812 53.92 41.7212 53.85 41.7512C53.83 41.7512 53.82 41.7612 53.8 41.7712C53.78 41.7812 53.76 41.7912 53.75 41.7912C53.73 41.7912 53.72 41.8012 53.7 41.8112C53.68 41.8112 53.67 41.8212 53.65 41.8312L53.6 41.8512C53.6 41.8512 53.56 41.8612 53.55 41.8712L53.5 41.8912C53.5 41.8912 53.47 41.9012 53.45 41.9112C53.43 41.9112 53.41 41.9212 53.4 41.9312C53.38 41.9312 53.36 41.9412 53.35 41.9512C53.33 41.9512 53.31 41.9612 53.3 41.9712C53.28 41.9712 53.26 41.9812 53.25 41.9912C53.23 41.9912 53.21 42.0012 53.2 42.0012L53.15 42.0212C53.15 42.0212 53.11 42.0212 53.1 42.0312C53.08 42.0312 53.06 42.0312 53.05 42.0412C53.03 42.0412 53.01 42.0412 52.99 42.0512C52.97 42.0512 52.95 42.0512 52.93 42.0612C52.91 42.0612 52.89 42.0612 52.88 42.0712C52.86 42.0712 52.84 42.0712 52.82 42.0812C52.8 42.0812 52.78 42.0812 52.76 42.0812H52.71L52.65 42.1012C52.63 42.1012 52.61 42.1012 52.59 42.1012C52.57 42.1012 52.55 42.1012 52.53 42.1012C52.51 42.1012 52.49 42.1012 52.47 42.1012C52.45 42.1012 52.43 42.1012 52.41 42.1012C52.39 42.1012 52.37 42.1012 52.35 42.1012C52.33 42.1012 52.31 42.1012 52.29 42.1012C52.27 42.1012 52.25 42.1012 52.23 42.1012C52.21 42.1012 52.19 42.1012 52.17 42.1012C52.07 42.1012 51.97 42.1112 51.86 42.1212C51.76 42.1212 51.66 42.1312 51.56 42.1412C51.46 42.1412 51.36 42.1512 51.25 42.1512C51.15 42.1512 51.05 42.1612 50.94 42.1712C50.84 42.1712 50.74 42.1712 50.64 42.1812C50.54 42.1812 50.44 42.1812 50.33 42.1912C50.23 42.1912 50.13 42.1912 50.02 42.2012C49.92 42.2012 49.82 42.2012 49.72 42.2112C49.62 42.2112 49.52 42.2112 49.41 42.2212C49.31 42.2212 49.21 42.2212 49.1 42.2312C49 42.2312 48.9 42.2312 48.79 42.2412C48.69 42.2412 48.59 42.2412 48.48 42.2512C48.38 42.2512 48.28 42.2512 48.17 42.2612C48.07 42.2612 47.97 42.2612 47.86 42.2712C47.76 42.2712 47.66 42.2712 47.55 42.2812C47.45 42.2812 47.35 42.2812 47.24 42.2912C47.14 42.2912 47.04 42.2912 46.93 42.3012C46.83 42.3012 46.73 42.3012 46.62 42.3112C46.52 42.3112 46.42 42.3112 46.31 42.3212C46.21 42.3212 46.11 42.3212 46 42.3312C45.9 42.3312 45.8 42.3312 45.69 42.3312C45.59 42.3312 45.49 42.3312 45.38 42.3412C45.27 42.3512 45.18 42.3412 45.07 42.3512C44.97 42.3512 44.87 42.3512 44.76 42.3512C44.66 42.3512 44.56 42.3512 44.45 42.3512C44.35 42.3512 44.25 42.3512 44.14 42.3512C44.04 42.3512 43.94 42.3512 43.83 42.3512C43.73 42.3512 43.63 42.3512 43.52 42.3512C43.42 42.3512 43.32 42.3512 43.21 42.3512C43.11 42.3512 43.01 42.3512 42.9 42.3512C42.8 42.3512 42.7 42.3512 42.59 42.3512C42.49 42.3512 42.39 42.3512 42.28 42.3512C42.18 42.3512 42.07 42.3512 41.97 42.3512C41.87 42.3512 41.77 42.3512 41.66 42.3512C41.56 42.3512 41.46 42.3512 41.35 42.3512H41.04C40.94 42.3512 40.84 42.3612 40.73 42.3612H40.42C40.32 42.3612 40.22 42.3612 40.11 42.3712C40.01 42.3712 39.91 42.3712 39.8 42.3712C39.7 42.3712 39.59 42.3712 39.49 42.3712C39.39 42.3712 39.29 42.3712 39.18 42.3712H38.87C38.77 42.3712 38.66 42.3712 38.56 42.3712C38.46 42.3712 38.36 42.3712 38.25 42.3712C38.14 42.3712 38.05 42.3712 37.94 42.3712C37.84 42.3712 37.73 42.3712 37.63 42.3712C37.53 42.3712 37.43 42.3712 37.32 42.3712H37.01C36.91 42.3712 36.8 42.3712 36.7 42.3712C36.6 42.3712 36.49 42.3712 36.39 42.3712C36.29 42.3712 36.19 42.3712 36.08 42.3712C35.98 42.3712 35.88 42.3712 35.77 42.3712H35.46H35.15C35.05 42.3712 34.95 42.3712 34.84 42.3712H34.53C34.43 42.3712 34.32 42.3712 34.22 42.3712H33.3C33.2 42.3712 33.1 42.3712 32.99 42.3712H32.68C32.58 42.3712 32.48 42.3712 32.37 42.3712C32.27 42.3712 32.17 42.3712 32.06 42.3712H31.75C31.65 42.3712 31.55 42.3712 31.44 42.3712C31.34 42.3712 31.23 42.3712 31.13 42.3712C31.03 42.3712 30.92 42.3712 30.82 42.3712C30.72 42.3712 30.62 42.3712 30.51 42.3712H30.2H29.89C29.79 42.3712 29.69 42.3712 29.58 42.3712C29.48 42.3712 29.38 42.3712 29.27 42.3712C29.17 42.3712 29.06 42.3712 28.96 42.3712C28.86 42.3712 28.76 42.3712 28.65 42.3712C28.55 42.3712 28.45 42.3712 28.34 42.3712C28.24 42.3712 28.14 42.3712 28.03 42.3712C27.93 42.3712 27.82 42.3712 27.72 42.3712C27.62 42.3712 27.52 42.3712 27.41 42.3712C27.31 42.3712 27.21 42.3712 27.1 42.3712C27 42.3712 26.9 42.3712 26.79 42.3712H26.48C26.38 42.3712 26.28 42.3712 26.17 42.3612C26.07 42.3612 25.97 42.3612 25.86 42.3612C25.76 42.3612 25.66 42.3612 25.55 42.3612C25.45 42.3612 25.34 42.3612 25.24 42.3612H24.93C24.83 42.3612 24.73 42.3512 24.62 42.3512C24.52 42.3512 24.41 42.3512 24.31 42.3512C24.21 42.3512 24.1 42.3512 24 42.3512C23.9 42.3512 23.8 42.3512 23.69 42.3512C23.59 42.3512 23.49 42.3512 23.38 42.3512C23.28 42.3512 23.18 42.3512 23.07 42.3512C22.97 42.3512 22.87 42.3512 22.76 42.3512C22.66 42.3512 22.56 42.3512 22.45 42.3512C22.35 42.3512 22.25 42.3512 22.14 42.3412C22.04 42.3412 21.94 42.3412 21.83 42.3312C21.73 42.3312 21.63 42.3312 21.52 42.3312C21.42 42.3312 21.32 42.3312 21.21 42.3212C21.11 42.3212 21.01 42.3212 20.9 42.3112C20.8 42.3112 20.7 42.3112 20.59 42.3012C20.49 42.3012 20.39 42.3012 20.28 42.2912C20.18 42.2912 20.08 42.2912 19.97 42.2812C19.87 42.2812 19.77 42.2812 19.66 42.2712C19.56 42.2712 19.46 42.2712 19.35 42.2612C19.25 42.2612 19.15 42.2612 19.04 42.2512C18.94 42.2512 18.84 42.2512 18.73 42.2412C18.63 42.2412 18.53 42.2412 18.42 42.2312C18.32 42.2312 18.22 42.2312 18.11 42.2212C18.01 42.2212 17.91 42.2212 17.8 42.2112C17.7 42.2112 17.6 42.2112 17.5 42.2012C17.4 42.2012 17.3 42.2012 17.19 42.1912C17.09 42.1912 16.99 42.1912 16.88 42.1812C16.78 42.1812 16.68 42.1712 16.58 42.1712C16.48 42.1712 16.38 42.1612 16.27 42.1512H15.97C15.87 42.1312 15.77 42.1312 15.67 42.1212C15.57 42.1212 15.47 42.1112 15.36 42.1012L15.45 42.0812Z" stroke="#FF00FF" stroke-width="0.28" stroke-linecap="round" stroke-linejoin="round"/>
<path d="M53.4488 45.8675V50.9584H52.8324V46.5138H52.8025L51.5596 47.3391V46.7127L52.8324 45.8675H53.4488ZM55.0497 50.9982C54.9271 50.9982 54.8218 50.9543 54.734 50.8665C54.6462 50.7786 54.6023 50.6734 54.6023 50.5508C54.6023 50.4281 54.6462 50.3229 54.734 50.2351C54.8218 50.1472 54.9271 50.1033 55.0497 50.1033C55.1723 50.1033 55.2776 50.1472 55.3654 50.2351C55.4532 50.3229 55.4971 50.4281 55.4971 50.5508C55.4971 50.632 55.4764 50.7065 55.435 50.7745C55.3952 50.8424 55.3414 50.8971 55.2734 50.9385C55.2071 50.9783 55.1326 50.9982 55.0497 50.9982ZM56.5399 50.9584V50.511L58.2203 48.6715C58.4175 48.4561 58.5799 48.2688 58.7075 48.1097C58.8351 47.949 58.9296 47.7982 58.9909 47.6573C59.0539 47.5148 59.0854 47.3656 59.0854 47.2099C59.0854 47.0309 59.0423 46.8759 58.9561 46.745C58.8716 46.6141 58.7556 46.513 58.6081 46.4417C58.4606 46.3705 58.2949 46.3349 58.111 46.3349C57.9154 46.3349 57.7447 46.3755 57.5989 46.4567C57.4547 46.5362 57.3428 46.6481 57.2633 46.7922C57.1854 46.9364 57.1465 47.1055 57.1465 47.2993H56.5598C56.5598 47.001 56.6286 46.7392 56.7661 46.5138C56.9037 46.2885 57.0909 46.1128 57.3279 45.9868C57.5666 45.8609 57.8342 45.7979 58.1308 45.7979C58.4291 45.7979 58.6935 45.8609 58.9238 45.9868C59.1542 46.1128 59.3348 46.2827 59.4657 46.4964C59.5966 46.7102 59.6621 46.948 59.6621 47.2099C59.6621 47.3971 59.6281 47.5802 59.5602 47.7592C59.4939 47.9365 59.3779 48.1346 59.2122 48.3533C59.0481 48.5704 58.8202 48.8356 58.5286 49.1488L57.3851 50.3718V50.4116H59.7516V50.9584H56.5399ZM62.3691 51.028C62.0775 51.028 61.8148 50.97 61.5811 50.854C61.3475 50.738 61.1602 50.5789 61.0193 50.3768C60.8785 50.1746 60.8014 49.9442 60.7882 49.6857H61.3847C61.4079 49.9161 61.5123 50.1066 61.698 50.2574C61.8852 50.4066 62.1089 50.4812 62.3691 50.4812C62.5779 50.4812 62.7635 50.4323 62.9259 50.3345C63.09 50.2367 63.2184 50.1025 63.3112 49.9318C63.4057 49.7595 63.4529 49.5647 63.4529 49.3476C63.4529 49.1256 63.404 48.9275 63.3063 48.7535C63.2101 48.5779 63.0776 48.4395 62.9085 48.3384C62.7395 48.2373 62.5464 48.1859 62.3293 48.1843C62.1736 48.1826 62.0136 48.2067 61.8496 48.2564C61.6855 48.3044 61.5505 48.3666 61.4444 48.4428L60.8677 48.3732L61.1759 45.8675H63.8208V46.4144H61.693L61.514 47.9158H61.5438C61.6482 47.833 61.7792 47.7642 61.9366 47.7095C62.094 47.6548 62.2581 47.6275 62.4288 47.6275C62.7403 47.6275 63.0179 47.702 63.2615 47.8512C63.5068 47.9987 63.699 48.2009 63.8382 48.4577C63.9791 48.7146 64.0495 49.0079 64.0495 49.3377C64.0495 49.6625 63.9766 49.9525 63.8308 50.2077C63.6866 50.4613 63.4877 50.6618 63.2342 50.8093C62.9806 50.9551 62.6923 51.028 62.3691 51.028Z" fill="#0000FF"/>
<path fill-rule="evenodd" clip-rule="evenodd" d="M25.3044 17.7687C25.3044 17.3766 24.9865 17.0587 24.5944 17.0587C24.2023 17.0587 23.8844 17.3766 23.8844 17.7687V18.5181C23.8844 18.5954 23.8217 18.6581 23.7444 18.6581H21.1355C20.7434 18.6581 20.4255 18.9759 20.4255 19.3681C20.4255 19.7602 20.7434 20.0781 21.1355 20.0781H24.5932L24.5944 20.0781L24.5956 20.0781H28.0535C28.4456 20.0781 28.7635 19.7602 28.7635 19.3681C28.7635 18.9759 28.4456 18.6581 28.0535 18.6581H25.4444C25.3671 18.6581 25.3044 18.5954 25.3044 18.5181V17.7687ZM30.3281 17.0916C30.7202 17.0916 31.0381 17.4095 31.0381 17.8016V20.9612C31.0381 21.0385 31.1008 21.1012 31.1781 21.1012H32.5929C32.9851 21.1012 33.3029 21.4191 33.3029 21.8112C33.3029 22.2033 32.9851 22.5212 32.5929 22.5212H31.1781C31.1008 22.5212 31.0381 22.5839 31.0381 22.6612V26.8579C31.0381 27.2501 30.7202 27.5679 30.3281 27.5679C29.936 27.5679 29.6181 27.2501 29.6181 26.8579V21.8218L29.618 21.8112L29.6181 21.8006V17.8016C29.6181 17.4095 29.936 17.0916 30.3281 17.0916ZM23.1219 22.5666C22.8569 22.7298 22.6951 22.9612 22.6951 23.3831C22.6951 23.8036 22.8567 24.0353 23.1222 24.199C23.4349 24.3919 23.9357 24.5082 24.5946 24.5082C25.2535 24.5082 25.7544 24.3919 26.0671 24.199C26.3326 24.0353 26.4941 23.8036 26.4941 23.3831C26.4941 22.9612 26.3323 22.7298 26.0674 22.5666C25.7548 22.3739 25.254 22.2579 24.5946 22.2579C23.9353 22.2579 23.4345 22.3739 23.1219 22.5666ZM22.377 21.3577C23.0088 20.9683 23.8128 20.8379 24.5946 20.8379C25.3765 20.8379 26.1805 20.9683 26.8123 21.3577C27.4918 21.7764 27.9141 22.4625 27.9141 23.3831C27.9141 24.3029 27.4916 24.9888 26.8125 25.4076C26.1808 25.7972 25.3769 25.9282 24.5946 25.9282C23.8124 25.9282 23.0085 25.7972 22.3767 25.4076C21.6977 24.9888 21.2751 24.3029 21.2751 23.3831C21.2751 22.4625 21.6975 21.7764 22.377 21.3577ZM24.0291 29.2307C24.0291 29.3081 24.0918 29.3707 24.1691 29.3707L30.7177 29.3707C31.1099 29.3707 31.4277 29.6886 31.4277 30.0807C31.4277 30.4729 31.1099 30.7907 30.7177 30.7907L23.3191 30.7907C23.1308 30.7907 22.9502 30.7159 22.8171 30.5828C22.6839 30.4496 22.6091 30.2691 22.6091 30.0807V27.3898C22.6091 26.9977 22.927 26.6798 23.3191 26.6798C23.7113 26.6798 24.0291 26.9977 24.0291 27.3898V29.2307ZM44.4676 17.8191C44.4676 17.4269 44.1497 17.1091 43.7576 17.1091C43.3655 17.1091 43.0476 17.4269 43.0476 17.8191V22.3033L43.0474 22.3181L43.0476 22.3329V29.4305C43.0476 29.8226 43.3655 30.1405 43.7576 30.1405C44.1497 30.1405 44.4676 29.8226 44.4676 29.4305V23.1681C44.4676 23.0908 44.5303 23.0281 44.6076 23.0281H46.0942C46.4863 23.0281 46.8042 22.7102 46.8042 22.3181C46.8042 21.926 46.4863 21.6081 46.0942 21.6081H44.6076C44.5303 21.6081 44.4676 21.5454 44.4676 21.4681V17.8191ZM34.8705 18.1613C34.4784 18.1613 34.1605 18.4792 34.1605 18.8713C34.1605 19.2634 34.4784 19.5813 34.8705 19.5813H37.2017C37.279 19.5813 37.3417 19.644 37.3417 19.7213V21.5478C37.3417 21.5478 37.3417 21.5478 37.3416 21.5478C37.3416 21.5478 37.3416 21.5478 37.3416 21.5479L37.3416 21.5593C37.3363 22.4733 36.692 23.6448 34.2005 25.6394C33.8943 25.8845 33.8448 26.3313 34.0899 26.6374C34.335 26.9435 34.7818 26.993 35.0879 26.748C36.3864 25.7085 37.3267 24.7904 37.9308 23.9176C37.9888 23.8338 38.1145 23.8338 38.1725 23.9176C38.7766 24.7904 39.7169 25.7085 41.0154 26.748C41.3215 26.993 41.7683 26.9435 42.0134 26.6374C42.2584 26.3313 42.2089 25.8845 41.9028 25.6394C39.4127 23.646 38.7678 22.4747 38.7617 21.5609V21.5533L38.7617 21.5478L38.7617 19.7213C38.7617 19.644 38.8243 19.5813 38.9017 19.5813H41.2335C41.6256 19.5813 41.9435 19.2634 41.9435 18.8713C41.9435 18.4792 41.6256 18.1613 41.2335 18.1613H34.8705Z" fill="black"/>
</svg>
