<svg width="54" height="55" viewBox="0 0 54 55" fill="none" xmlns="http://www.w3.org/2000/svg">
<rect x="1.84998" y="2.7984" width="50.3" height="50.3" rx="3" stroke="#8B1EFF" stroke-width="0.28"/>
<path d="M9.91309 37.996C9.83508 28.009 9.73608 18.021 9.61914 8.03296L9.6192 8.03052C9.62323 7.86451 9.63623 7.69849 9.65631 7.53235C9.67633 7.36732 9.70233 7.20337 9.73553 7.03992C9.76752 6.87794 9.80652 6.71692 9.85266 6.55811C9.89966 6.40015 9.95166 6.24415 10.0115 6.08997C10.1985 5.61597 10.4535 5.16504 10.77 4.7627C11.083 4.36573 11.456 4.01673 11.8725 3.73231C12.2875 3.45032 12.7465 3.23231 13.2258 3.08533C13.7078 2.93824 14.2118 2.86231 14.7141 2.85499C18.8081 2.82007 22.9021 2.80298 26.9963 2.80335C31.0893 2.80335 35.1833 2.82032 39.2776 2.8556C39.4396 2.85853 39.6016 2.86951 39.7635 2.88611C40.0035 2.91212 40.2435 2.95313 40.4799 3.00989C40.7139 3.0669 40.9449 3.1388 41.1697 3.22791C41.4037 3.32093 41.6287 3.43189 41.8449 3.55909C42.062 3.68702 42.2689 3.83106 42.4627 3.99C42.6577 4.15003 42.8417 4.32508 43.0105 4.5116C43.1795 4.70057 43.3355 4.90259 43.476 5.11414C43.757 5.54322 43.975 6.01319 44.125 6.50489C44.276 7.00281 44.358 7.52283 44.373 8.04102C44.252 18.018 44.154 27.995 44.08 37.9735C44.074 38.1334 44.0601 38.2935 44.039 38.452C44.018 38.613 43.991 38.772 43.9569 38.9297C43.9239 39.0886 43.8839 39.2467 43.8358 39.4021C43.7888 39.5581 43.7349 39.712 43.675 39.864C43.484 40.3391 43.228 40.7891 42.9172 41.1979C42.6032 41.6089 42.2352 41.9769 41.8244 42.2878C41.4154 42.5979 40.9624 42.8519 40.4838 43.0389C40.0098 43.2239 39.5098 43.3439 39.0063 43.3919C31.0073 43.9019 22.9843 43.9019 14.9849 43.392C14.6529 43.36 14.3229 43.296 14.0024 43.2019C13.6794 43.1079 13.3654 42.9829 13.0632 42.8303C12.4602 42.5233 11.9092 42.1052 11.4476 41.6061C10.9866 41.109 10.6126 40.53 10.349 39.908C10.219 39.6 10.115 39.2809 10.0411 38.954C9.96912 38.632 9.92407 38.303 9.91113 37.9729" stroke="#8B1EFF" stroke-width="0.283" stroke-miterlimit="10"/>
<rect x="12.6854" y="6.47675" width="28.63" height="34.31" rx="1.43" stroke="#00FFFF" stroke-width="0.28"/>
<path d="M42.9396 37.5325C42.9576 32.6805 42.9776 27.8275 43.0006 22.9756C43.0216 18.1226 43.0466 13.2705 43.0756 8.41748C43.0764 8.27283 43.0714 8.12878 43.0594 7.98584C43.0494 7.84277 43.0314 7.69983 43.0074 7.55884C42.9604 7.27673 42.8884 7.00281 42.7894 6.73779C42.7644 6.67175 42.7384 6.60583 42.7104 6.54077C42.6814 6.47473 42.6524 6.40979 42.6214 6.3468C42.5584 6.21875 42.4904 6.09583 42.4154 5.97681C42.2664 5.73877 42.0934 5.5188 41.8934 5.31482C41.6954 5.11182 41.4774 4.93481 41.2434 4.78174C41.1264 4.70581 41.0054 4.63477 40.8794 4.5708C40.8164 4.53882 40.7534 4.50781 40.6874 4.47876C40.6234 4.44873 40.5564 4.42175 40.4904 4.39575C40.2234 4.29175 39.9504 4.2168 39.6714 4.16577C39.3924 4.11475 39.1074 4.08875 38.8164 4.08582C37.8376 4.07825 36.8566 4.07019 35.8735 4.06421C34.8896 4.05725 33.9056 4.05225 32.9205 4.04724C30.9496 4.03918 28.9756 4.03528 26.9985 4.03528C26.5035 4.03528 26.0096 4.03528 25.5146 4.03528C25.0206 4.03625 24.5256 4.03723 24.0306 4.03821C23.0416 4.04028 22.0536 4.04321 21.0685 4.04724C19.0966 4.05627 17.1326 4.06921 15.1755 4.08618C15.0298 4.08728 14.8859 4.09521 14.7408 4.10828C14.5979 4.12219 14.4539 4.14124 14.3129 4.16724C14.0298 4.21924 13.7559 4.29626 13.4908 4.40027C13.4249 4.42627 13.3599 4.45325 13.2949 4.48328C13.2299 4.51221 13.1649 4.54419 13.1019 4.57629C12.9749 4.64221 12.8539 4.71326 12.7359 4.79126C12.5009 4.94519 12.2839 5.12427 12.0859 5.32825C12.0369 5.3783 11.9889 5.43127 11.9429 5.48425C11.8969 5.53723 11.8519 5.59119 11.8089 5.64722C11.7229 5.7572 11.6429 5.87219 11.5688 5.99023C11.4949 6.10925 11.4279 6.2323 11.3649 6.35828C11.3349 6.42126 11.3058 6.48523 11.2779 6.55127C11.2499 6.61621 11.2239 6.68323 11.1989 6.75024C11.1009 7.01624 11.0298 7.28918 10.9839 7.56726C10.9379 7.84521 10.9149 8.12927 10.9169 8.41821C10.9452 13.2708 10.9712 18.1228 10.9932 22.9758C11.0162 27.8278 11.0352 32.6808 11.0532 37.5328C11.0539 37.8196 11.0779 38.1035 11.1279 38.3876C11.1409 38.4585 11.1549 38.5295 11.1699 38.5995C11.1859 38.6696 11.2019 38.7395 11.2209 38.8085C11.2579 38.9475 11.3009 39.0835 11.3499 39.2185C11.3989 39.3535 11.4529 39.4866 11.5149 39.6166C11.5459 39.6815 11.5769 39.7466 11.6119 39.8105C11.6459 39.8745 11.6809 39.9385 11.7179 40.0016C11.8649 40.2516 12.0329 40.4845 12.2239 40.7015C12.3189 40.8096 12.4199 40.9136 12.5269 41.0135C12.5789 41.0635 12.6339 41.1116 12.6899 41.1586C12.7449 41.2056 12.8009 41.2505 12.8589 41.2946C13.0879 41.4695 13.3319 41.6205 13.5919 41.7466C13.6569 41.7786 13.7229 41.8085 13.7899 41.8365C13.8569 41.8655 13.9239 41.8915 13.9919 41.9165C14.1279 41.9666 14.2649 42.0095 14.4039 42.0455C14.6799 42.1176 14.9629 42.1615 15.2509 42.1796C16.2241 42.24 17.1991 42.293 18.1771 42.338C19.1531 42.384 20.1321 42.421 21.1111 42.451C23.0681 42.512 25.0291 42.542 26.9941 42.542C27.485 42.542 27.9771 42.54 28.4681 42.536C28.959 42.533 29.451 42.527 29.9421 42.519C30.925 42.504 31.9061 42.4819 32.886 42.451C34.8441 42.391 36.7961 42.301 38.7414 42.1799C38.8864 42.171 39.0294 42.155 39.1724 42.1329C39.2433 42.121 39.3144 42.108 39.3864 42.093C39.4564 42.078 39.5273 42.062 39.5964 42.043C39.8763 41.9709 40.1454 41.871 40.4044 41.744C40.4703 41.713 40.5334 41.6799 40.5964 41.645C40.6603 41.61 40.7234 41.573 40.7853 41.5339C40.9094 41.458 41.0284 41.375 41.1423 41.287C41.3724 41.1119 41.5823 40.915 41.7734 40.697C41.8214 40.642 41.8674 40.5859 41.9134 40.5291C41.9584 40.472 42.0024 40.4139 42.0444 40.355C42.1293 40.238 42.2073 40.1169 42.2794 39.993C42.4254 39.745 42.5464 39.486 42.6443 39.214C42.6694 39.146 42.6924 39.077 42.7144 39.0079C42.7354 38.939 42.7554 38.87 42.7734 38.801C42.8104 38.662 42.8414 38.5229 42.8654 38.3829C42.9144 38.1021 42.9384 37.819 42.9396 37.5325Z" stroke="#FF00FF" stroke-width="0.283465" stroke-miterlimit="10" stroke-linecap="round" stroke-linejoin="round"/>
<path fill-rule="evenodd" clip-rule="evenodd" d="M18.3044 17.7687C18.3044 17.3766 17.9865 17.0587 17.5944 17.0587C17.2023 17.0587 16.8844 17.3766 16.8844 17.7687V18.5181C16.8844 18.5954 16.8217 18.6581 16.7444 18.6581H14.1355C13.7434 18.6581 13.4255 18.9759 13.4255 19.3681C13.4255 19.7602 13.7434 20.0781 14.1355 20.0781H17.5932L17.5944 20.0781L17.5956 20.0781H21.0535C21.4456 20.0781 21.7635 19.7602 21.7635 19.3681C21.7635 18.9759 21.4456 18.6581 21.0535 18.6581H18.4444C18.3671 18.6581 18.3044 18.5954 18.3044 18.5181V17.7687ZM23.3281 17.0916C23.7202 17.0916 24.0381 17.4095 24.0381 17.8016V20.9612C24.0381 21.0385 24.1008 21.1012 24.1781 21.1012H25.5929C25.9851 21.1012 26.3029 21.4191 26.3029 21.8112C26.3029 22.2033 25.9851 22.5212 25.5929 22.5212H24.1781C24.1008 22.5212 24.0381 22.5839 24.0381 22.6612V26.8579C24.0381 27.2501 23.7202 27.5679 23.3281 27.5679C22.936 27.5679 22.6181 27.2501 22.6181 26.8579V21.8218L22.618 21.8112L22.6181 21.8006V17.8016C22.6181 17.4095 22.936 17.0916 23.3281 17.0916ZM16.1219 22.5666C15.8569 22.7298 15.6951 22.9612 15.6951 23.3831C15.6951 23.8036 15.8567 24.0353 16.1222 24.199C16.4349 24.3919 16.9357 24.5082 17.5946 24.5082C18.2535 24.5082 18.7544 24.3919 19.0671 24.199C19.3326 24.0353 19.4941 23.8036 19.4941 23.3831C19.4941 22.9612 19.3323 22.7298 19.0674 22.5666C18.7548 22.3739 18.254 22.2579 17.5946 22.2579C16.9353 22.2579 16.4345 22.3739 16.1219 22.5666ZM15.377 21.3577C16.0088 20.9683 16.8128 20.8379 17.5946 20.8379C18.3765 20.8379 19.1805 20.9683 19.8123 21.3577C20.4918 21.7764 20.9141 22.4625 20.9141 23.3831C20.9141 24.3029 20.4916 24.9888 19.8125 25.4076C19.1808 25.7972 18.3769 25.9282 17.5946 25.9282C16.8124 25.9282 16.0085 25.7972 15.3767 25.4076C14.6977 24.9888 14.2751 24.3029 14.2751 23.3831C14.2751 22.4625 14.6975 21.7764 15.377 21.3577ZM17.0291 29.2307C17.0291 29.3081 17.0918 29.3707 17.1691 29.3707L23.7177 29.3707C24.1099 29.3707 24.4277 29.6886 24.4277 30.0807C24.4277 30.4729 24.1099 30.7907 23.7177 30.7907L16.3191 30.7907C16.1308 30.7907 15.9502 30.7159 15.8171 30.5828C15.6839 30.4496 15.6091 30.2691 15.6091 30.0807V27.3898C15.6091 26.9977 15.927 26.6798 16.3191 26.6798C16.7113 26.6798 17.0291 26.9977 17.0291 27.3898V29.2307ZM37.4676 17.8191C37.4676 17.4269 37.1497 17.1091 36.7576 17.1091C36.3655 17.1091 36.0476 17.4269 36.0476 17.8191V22.3033L36.0474 22.3181L36.0476 22.3329V29.4305C36.0476 29.8226 36.3655 30.1405 36.7576 30.1405C37.1497 30.1405 37.4676 29.8226 37.4676 29.4305V23.1681C37.4676 23.0908 37.5303 23.0281 37.6076 23.0281H39.0942C39.4863 23.0281 39.8042 22.7102 39.8042 22.3181C39.8042 21.926 39.4863 21.6081 39.0942 21.6081H37.6076C37.5303 21.6081 37.4676 21.5454 37.4676 21.4681V17.8191ZM27.8705 18.1613C27.4784 18.1613 27.1605 18.4792 27.1605 18.8713C27.1605 19.2634 27.4784 19.5813 27.8705 19.5813H30.2017C30.279 19.5813 30.3417 19.644 30.3417 19.7213V21.5478C30.3417 21.5478 30.3417 21.5478 30.3416 21.5478C30.3416 21.5478 30.3416 21.5478 30.3416 21.5479L30.3416 21.5593C30.3363 22.4733 29.692 23.6448 27.2005 25.6394C26.8943 25.8845 26.8448 26.3313 27.0899 26.6374C27.335 26.9435 27.7818 26.993 28.0879 26.748C29.3864 25.7085 30.3267 24.7904 30.9308 23.9176C30.9888 23.8338 31.1145 23.8338 31.1725 23.9176C31.7766 24.7904 32.7169 25.7085 34.0154 26.748C34.3215 26.993 34.7683 26.9435 35.0134 26.6374C35.2584 26.3313 35.2089 25.8845 34.9028 25.6394C32.4127 23.646 31.7678 22.4747 31.7617 21.5609V21.5533L31.7617 21.5478L31.7617 19.7213C31.7617 19.644 31.8243 19.5813 31.9017 19.5813H34.2335C34.6256 19.5813 34.9435 19.2634 34.9435 18.8713C34.9435 18.4792 34.6256 18.1613 34.2335 18.1613H27.8705Z" fill="black"/>
</svg>
