<svg width="54" height="55" viewBox="0 0 54 55" fill="none" xmlns="http://www.w3.org/2000/svg">
<rect x="1.8501" y="2.7984" width="50.3" height="50.3" rx="3" stroke="#8B1EFF" stroke-width="0.28"/>
<path d="M9.91309 37.996C9.83508 28.009 9.73608 18.021 9.61914 8.03296L9.6192 8.03052C9.62323 7.86451 9.63623 7.69849 9.65631 7.53235C9.67633 7.36732 9.70233 7.20337 9.73553 7.03992C9.76752 6.87794 9.80652 6.71692 9.85266 6.55811C9.89966 6.40015 9.95166 6.24415 10.0115 6.08997C10.1985 5.61597 10.4535 5.16504 10.77 4.7627C11.083 4.36573 11.456 4.01673 11.8725 3.73231C12.2875 3.45032 12.7465 3.23231 13.2258 3.08533C13.7078 2.93824 14.2118 2.86231 14.7141 2.85499C18.8081 2.82007 22.9021 2.80298 26.9963 2.80335C31.0893 2.80335 35.1833 2.82032 39.2776 2.8556C39.4396 2.85853 39.6016 2.86951 39.7635 2.88611C40.0035 2.91212 40.2435 2.95313 40.4799 3.00989C40.7139 3.0669 40.9449 3.1388 41.1697 3.22791C41.4037 3.32093 41.6287 3.43189 41.8449 3.55909C42.062 3.68702 42.2689 3.83106 42.4627 3.99C42.6577 4.15003 42.8417 4.32508 43.0105 4.5116C43.1795 4.70057 43.3355 4.90259 43.476 5.11414C43.757 5.54322 43.975 6.01319 44.125 6.50489C44.276 7.00281 44.358 7.52283 44.373 8.04102C44.252 18.018 44.154 27.995 44.08 37.9735C44.074 38.1334 44.0601 38.2935 44.039 38.452C44.018 38.613 43.991 38.772 43.9569 38.9297C43.9239 39.0886 43.8839 39.2467 43.8358 39.4021C43.7888 39.5581 43.7349 39.712 43.675 39.864C43.484 40.3391 43.228 40.7891 42.9172 41.1979C42.6032 41.6089 42.2352 41.9769 41.8244 42.2878C41.4154 42.5979 40.9624 42.8519 40.4838 43.0389C40.0098 43.2239 39.5098 43.3439 39.0063 43.3919C31.0073 43.9019 22.9843 43.9019 14.9849 43.392C14.6529 43.36 14.3229 43.296 14.0024 43.2019C13.6794 43.1079 13.3654 42.9829 13.0632 42.8303C12.4602 42.5233 11.9092 42.1052 11.4476 41.6061C10.9866 41.109 10.6126 40.53 10.349 39.908C10.219 39.6 10.115 39.2809 10.0411 38.954C9.96912 38.632 9.92407 38.303 9.91113 37.9729" stroke="#8B1EFF" stroke-width="0.283" stroke-miterlimit="10"/>
<rect x="12.6855" y="6.47675" width="28.63" height="34.31" rx="1.43" stroke="#00FFFF" stroke-width="0.28"/>
<path d="M42.9396 37.5325C42.9576 32.6805 42.9776 27.8275 43.0006 22.9756C43.0216 18.1226 43.0466 13.2705 43.0756 8.41748C43.0764 8.27283 43.0714 8.12878 43.0594 7.98584C43.0494 7.84277 43.0314 7.69983 43.0074 7.55884C42.9604 7.27673 42.8884 7.00281 42.7894 6.73779C42.7644 6.67175 42.7384 6.60583 42.7104 6.54077C42.6814 6.47473 42.6524 6.40979 42.6214 6.3468C42.5584 6.21875 42.4904 6.09583 42.4154 5.97681C42.2664 5.73877 42.0934 5.5188 41.8934 5.31482C41.6954 5.11182 41.4774 4.93481 41.2434 4.78174C41.1264 4.70581 41.0054 4.63477 40.8794 4.5708C40.8164 4.53882 40.7534 4.50781 40.6874 4.47876C40.6234 4.44873 40.5564 4.42175 40.4904 4.39575C40.2234 4.29175 39.9504 4.2168 39.6714 4.16577C39.3924 4.11475 39.1074 4.08875 38.8164 4.08582C37.8376 4.07825 36.8566 4.07019 35.8735 4.06421C34.8896 4.05725 33.9056 4.05225 32.9205 4.04724C30.9496 4.03918 28.9756 4.03528 26.9985 4.03528C26.5035 4.03528 26.0096 4.03528 25.5146 4.03528C25.0206 4.03625 24.5256 4.03723 24.0306 4.03821C23.0416 4.04028 22.0536 4.04321 21.0685 4.04724C19.0966 4.05627 17.1326 4.06921 15.1755 4.08618C15.0298 4.08728 14.8859 4.09521 14.7408 4.10828C14.5979 4.12219 14.4539 4.14124 14.3129 4.16724C14.0298 4.21924 13.7559 4.29626 13.4908 4.40027C13.4249 4.42627 13.3599 4.45325 13.2949 4.48328C13.2299 4.51221 13.1649 4.54419 13.1019 4.57629C12.9749 4.64221 12.8539 4.71326 12.7359 4.79126C12.5009 4.94519 12.2839 5.12427 12.0859 5.32825C12.0369 5.3783 11.9889 5.43127 11.9429 5.48425C11.8969 5.53723 11.8519 5.59119 11.8089 5.64722C11.7229 5.7572 11.6429 5.87219 11.5688 5.99023C11.4949 6.10925 11.4279 6.2323 11.3649 6.35828C11.3349 6.42126 11.3058 6.48523 11.2779 6.55127C11.2499 6.61621 11.2239 6.68323 11.1989 6.75024C11.1009 7.01624 11.0298 7.28918 10.9839 7.56726C10.9379 7.84521 10.9149 8.12927 10.9169 8.41821C10.9452 13.2708 10.9712 18.1228 10.9932 22.9758C11.0162 27.8278 11.0352 32.6808 11.0532 37.5328C11.0539 37.8196 11.0779 38.1035 11.1279 38.3876C11.1409 38.4585 11.1549 38.5295 11.1699 38.5995C11.1859 38.6696 11.2019 38.7395 11.2209 38.8085C11.2579 38.9475 11.3009 39.0835 11.3499 39.2185C11.3989 39.3535 11.4529 39.4866 11.5149 39.6166C11.5459 39.6815 11.5769 39.7466 11.6119 39.8105C11.6459 39.8745 11.6809 39.9385 11.7179 40.0016C11.8649 40.2516 12.0329 40.4845 12.2239 40.7015C12.3189 40.8096 12.4199 40.9136 12.5269 41.0135C12.5789 41.0635 12.6339 41.1116 12.6899 41.1586C12.7449 41.2056 12.8009 41.2505 12.8589 41.2946C13.0879 41.4695 13.3319 41.6205 13.5919 41.7466C13.6569 41.7786 13.7229 41.8085 13.7899 41.8365C13.8569 41.8655 13.9239 41.8915 13.9919 41.9165C14.1279 41.9666 14.2649 42.0095 14.4039 42.0455C14.6799 42.1176 14.9629 42.1615 15.2509 42.1796C16.2241 42.24 17.1991 42.293 18.1771 42.338C19.1531 42.384 20.1321 42.421 21.1111 42.451C23.0681 42.512 25.0291 42.542 26.9941 42.542C27.485 42.542 27.9771 42.54 28.4681 42.536C28.959 42.533 29.451 42.527 29.9421 42.519C30.925 42.504 31.9061 42.4819 32.886 42.451C34.8441 42.391 36.7961 42.301 38.7414 42.1799C38.8864 42.171 39.0294 42.155 39.1724 42.1329C39.2433 42.121 39.3144 42.108 39.3864 42.093C39.4564 42.078 39.5273 42.062 39.5964 42.043C39.8763 41.9709 40.1454 41.871 40.4044 41.744C40.4703 41.713 40.5334 41.6799 40.5964 41.645C40.6603 41.61 40.7234 41.573 40.7853 41.5339C40.9094 41.458 41.0284 41.375 41.1423 41.287C41.3724 41.1119 41.5823 40.915 41.7734 40.697C41.8214 40.642 41.8674 40.5859 41.9134 40.5291C41.9584 40.472 42.0024 40.4139 42.0444 40.355C42.1293 40.238 42.2073 40.1169 42.2794 39.993C42.4254 39.745 42.5464 39.486 42.6443 39.214C42.6694 39.146 42.6924 39.077 42.7144 39.0079C42.7354 38.939 42.7554 38.87 42.7734 38.801C42.8104 38.662 42.8414 38.5229 42.8654 38.3829C42.9144 38.1021 42.9384 37.819 42.9396 37.5325Z" stroke="#FF00FF" stroke-width="0.283465" stroke-miterlimit="10" stroke-linecap="round" stroke-linejoin="round"/>
<path fill-rule="evenodd" clip-rule="evenodd" d="M22.6431 8.96195C22.8543 8.84016 23.1143 8.83981 23.3258 8.96102L28.0055 11.6426C28.2182 11.7645 28.3496 11.9908 28.3499 12.236C28.3502 12.4812 28.2195 12.7079 28.0071 12.8303L23.3567 15.5119C23.1455 15.6337 22.8855 15.6341 22.6739 15.5128L17.9943 12.8313C17.7816 12.7094 17.6502 12.4831 17.6499 12.2379C17.6496 11.9927 17.7803 11.766 17.9927 11.6435L22.6431 8.96195ZM19.9204 12.1134C19.8268 12.1674 19.827 12.3025 19.9207 12.3562L22.8738 14.0484C22.9603 14.0979 23.0666 14.0978 23.1529 14.048L26.0794 12.3605C26.173 12.3065 26.1728 12.1714 26.0791 12.1177L23.126 10.4255C23.0395 10.3759 22.9332 10.3761 22.8469 10.4259L19.9204 12.1134ZM20.1789 16.6491L22.0766 20.5544C22.444 21.3348 23.556 21.3348 23.9234 20.5544L25.8211 16.6491C25.9473 16.3894 25.8971 16.0784 25.6955 15.8716C25.494 15.6648 25.1844 15.6066 24.9215 15.7261L23.1209 16.5446C23.0472 16.5781 22.9627 16.5781 22.8891 16.5446L21.0884 15.7261C20.9994 15.6856 20.9028 15.6647 20.805 15.6647H20.795C20.559 15.6647 20.3396 15.7862 20.2143 15.9863C20.0891 16.1864 20.0757 16.4368 20.1789 16.6491ZM20.4896 20.7082C20.8173 20.5192 20.9298 20.1004 20.7408 19.7726C20.5518 19.4449 20.1329 19.3324 19.8052 19.5214L17.9928 20.5665C17.7804 20.689 17.6497 20.9156 17.65 21.1608C17.6504 21.406 17.7817 21.6323 17.9944 21.7542L22.6741 24.4358C22.8856 24.557 23.1456 24.5567 23.3568 24.4349L28.0072 21.7533C28.2196 21.6308 28.3504 21.4042 28.35 21.159C28.3497 20.9138 28.2183 20.6875 28.0056 20.5656L26.1943 19.5277C25.8661 19.3396 25.4475 19.4532 25.2594 19.7814C25.0713 20.1097 25.1849 20.5282 25.5132 20.7163L26.0792 21.0407C26.1729 21.0944 26.1731 21.2295 26.0795 21.2834L23.153 22.971C23.0667 23.0207 22.9604 23.0209 22.8739 22.9713L19.9208 21.2791C19.8271 21.2254 19.8269 21.0903 19.9205 21.0364L20.4896 20.7082Z" fill="black"/>
<path d="M28.6655 36.6984C28.2749 36.6984 28.0356 36.4543 28.0356 36.0441V30.3067C28.0356 29.8965 28.2749 29.6524 28.6655 29.6524H32.0982C32.4449 29.6524 32.6744 29.8575 32.6744 30.1846C32.6744 30.5117 32.4449 30.7168 32.0982 30.7168H29.4372C29.3589 30.7168 29.2955 30.7803 29.2955 30.8585V32.4794C29.2955 32.5577 29.359 32.6211 29.4372 32.6211H31.9517C32.274 32.6211 32.4937 32.8115 32.4937 33.1192C32.4937 33.4269 32.2789 33.6221 31.9517 33.6221H29.4372C29.3589 33.6221 29.2955 33.6856 29.2955 33.7638V35.4921C29.2955 35.5704 29.359 35.6338 29.4372 35.6338H32.0982C32.4449 35.6338 32.6744 35.8389 32.6744 36.166C32.6744 36.4931 32.4449 36.6982 32.0982 36.6982H28.6655V36.6984Z" fill="black"/>
<path d="M19.8865 36.7814C19.5301 36.7814 19.3201 36.5617 19.3201 36.1906V30.3702C19.3201 29.8721 19.6277 29.5694 20.1307 29.5694C20.5653 29.5694 20.8143 29.7549 20.9998 30.2237L22.8265 34.6961C22.8745 34.8137 23.041 34.8136 23.089 34.696L24.911 30.2237C25.0965 29.7598 25.3505 29.5694 25.7899 29.5694C26.2928 29.5694 26.5907 29.8673 26.5907 30.3702V36.1906C26.5907 36.5617 26.3807 36.7814 26.0243 36.7814C25.6679 36.7814 25.4579 36.5617 25.4579 36.1906V32.3305C25.4579 32.1753 25.2444 32.133 25.1852 32.2764L23.5536 36.2297C23.4315 36.5227 23.2509 36.6545 22.9579 36.6545C22.6649 36.6545 22.4794 36.5227 22.3622 36.2346L20.7306 32.2771C20.6714 32.1336 20.4578 32.1759 20.4578 32.3311V36.1906C20.4578 36.5617 20.243 36.7814 19.8865 36.7814Z" fill="black"/>
<path d="M17.25 36.7814C16.8594 36.7814 16.6201 36.5421 16.6201 36.1271V30.2237C16.6201 29.8087 16.8594 29.5694 17.25 29.5694C17.6406 29.5694 17.8799 29.8087 17.8799 30.2237V36.1271C17.8799 36.5421 17.6455 36.7814 17.25 36.7814Z" fill="black"/>
</svg>
