<svg width="68" height="55" viewBox="0 0 68 55" fill="none" xmlns="http://www.w3.org/2000/svg">
<rect x="2.34998" y="2.7984" width="63.8" height="50.3" rx="3" stroke="#8B1EFF" stroke-width="0.28"/>
<path d="M10.7 37.9812C10.72 38.6412 10.87 39.3112 11.14 39.9212C11.41 40.5512 11.79 41.1212 12.26 41.6112C12.73 42.1012 13.3 42.5112 13.92 42.8012C14.53 43.0912 15.2 43.2712 15.87 43.3212C21.99 43.6112 28.12 43.7612 34.25 43.7612C40.38 43.7612 46.51 43.6112 52.63 43.3212C53.3 43.2612 53.97 43.0812 54.58 42.7912C54.89 42.6412 55.18 42.4712 55.46 42.2712C55.74 42.0712 56 41.8512 56.24 41.6012C56.48 41.3512 56.69 41.0912 56.88 40.8012C57.07 40.5212 57.23 40.2212 57.36 39.9112C57.49 39.6012 57.59 39.2812 57.66 38.9512C57.73 38.6312 57.78 38.3012 57.79 37.9612C57.87 28.0212 57.97 18.0812 58.1 8.15117C58.08 7.61117 58 7.07117 57.83 6.56117C57.67 6.05117 57.44 5.56117 57.13 5.12117C56.83 4.68117 56.46 4.29117 56.05 3.97117C55.63 3.65117 55.17 3.39117 54.67 3.20117C54.44 3.11117 54.2 3.04117 53.96 2.99117C53.72 2.94117 53.47 2.90117 53.22 2.87117C53.05 2.85117 52.89 2.84117 52.72 2.84117C40.4 2.78117 28.08 2.78117 15.77 2.86117C15.08 2.86117 14.38 3.00117 13.74 3.26117C13.42 3.39117 13.11 3.54117 12.82 3.73117C12.53 3.92117 12.25 4.13117 12.01 4.37117C11.76 4.61117 11.54 4.89117 11.34 5.17117C11.14 5.46117 10.98 5.77117 10.85 6.10117C10.58 6.75117 10.42 7.46117 10.4 8.17117C10.52 18.1112 10.63 28.0512 10.71 37.9812" stroke="#8B1EFF" stroke-width="0.28" stroke-miterlimit="10"/>
<path d="M13.79 5.2912C13.01 5.2912 12.37 5.9312 12.37 6.7112V39.8712C12.37 40.6512 13 41.2912 13.79 41.2912H54.61C55.39 41.2912 56.03 40.6612 56.03 39.8712V6.7112C56.03 5.9312 55.39 5.2912 54.61 5.2912" stroke="#00FFFF" stroke-width="0.28" stroke-miterlimit="10"/>
<path d="M15.95 42.0812C15.76 42.0812 15.58 42.0512 15.4 42.0212C14.92 41.9412 14.45 41.7812 14.02 41.5612C13.59 41.3312 13.19 41.0312 12.86 40.6712C12.72 40.5212 12.59 40.3612 12.47 40.2012C12.18 39.7912 11.96 39.3312 11.82 38.8512C11.69 38.4112 11.62 37.9512 11.62 37.4912C11.6 32.6312 11.58 27.7812 11.56 22.9212C11.56 21.7512 11.56 20.5912 11.55 19.4212C11.54 16.2312 11.52 13.0412 11.5 9.85117C11.5 9.35117 11.5 8.84117 11.5 8.34117C11.5 8.30117 11.5 8.26117 11.5 8.22117C11.5 8.18117 11.5 8.14117 11.5 8.10117C11.5 8.06117 11.5 8.02117 11.5 7.98117C11.5 7.94117 11.5 7.90117 11.5 7.86117V7.74117C11.5 7.74117 11.52 7.66117 11.53 7.62117C11.53 7.58117 11.54 7.54117 11.55 7.51117C11.55 7.47117 11.56 7.43117 11.57 7.40117C11.57 7.36117 11.58 7.32117 11.59 7.29117C11.59 7.25117 11.61 7.21117 11.61 7.18117C11.62 7.14117 11.63 7.11117 11.64 7.07117C11.64 7.03117 11.66 7.00117 11.67 6.96117C11.68 6.92117 11.69 6.89117 11.7 6.85117C11.71 6.81117 11.72 6.78117 11.74 6.74117C11.75 6.70117 11.77 6.67117 11.78 6.63117C11.81 6.56117 11.84 6.50117 11.87 6.43117C11.9 6.36117 11.93 6.30117 11.97 6.24117C12 6.18117 12.04 6.11117 12.07 6.05117C12.11 5.99117 12.15 5.93117 12.19 5.87117C12.27 5.75117 12.36 5.63117 12.45 5.52117C12.54 5.41117 12.64 5.31117 12.74 5.21117C12.84 5.11117 12.95 5.02117 13.07 4.93117C13.18 4.84117 13.3 4.76117 13.43 4.68117C13.49 4.64117 13.55 4.61117 13.62 4.57117C13.68 4.54117 13.75 4.50117 13.81 4.47117C13.87 4.44117 13.94 4.41117 14.01 4.38117C14.08 4.35117 14.14 4.33117 14.21 4.30117C14.23 4.30117 14.25 4.29117 14.27 4.28117C14.29 4.28117 14.31 4.27117 14.33 4.26117C14.35 4.26117 14.37 4.25117 14.38 4.24117L14.44 4.22117C14.44 4.22117 14.48 4.21117 14.5 4.20117C14.52 4.20117 14.54 4.19117 14.56 4.18117C14.58 4.18117 14.6 4.18117 14.62 4.17117C14.64 4.17117 14.66 4.16117 14.68 4.15117C14.7 4.15117 14.72 4.14117 14.74 4.13117C14.76 4.13117 14.78 4.13117 14.8 4.12117C14.82 4.12117 14.84 4.12117 14.86 4.11117C14.88 4.11117 14.9 4.11117 14.92 4.10117C14.94 4.10117 14.96 4.10117 14.98 4.09117C15 4.09117 15.02 4.09117 15.04 4.08117C15.06 4.08117 15.08 4.08117 15.1 4.08117C15.12 4.08117 15.14 4.08117 15.16 4.07117C15.18 4.07117 15.2 4.07117 15.22 4.07117C15.24 4.07117 15.26 4.07117 15.28 4.07117C15.3 4.07117 15.32 4.07117 15.34 4.07117C15.36 4.07117 15.38 4.07117 15.4 4.07117C15.42 4.07117 15.44 4.07117 15.46 4.07117C15.48 4.07117 15.5 4.07117 15.52 4.07117C15.54 4.07117 15.56 4.07117 15.58 4.07117C15.6 4.07117 15.62 4.07117 15.64 4.07117C15.66 4.07117 15.68 4.07117 15.7 4.07117C15.72 4.07117 15.74 4.07117 15.76 4.07117C15.78 4.07117 15.8 4.07117 15.82 4.07117C15.84 4.07117 15.86 4.07117 15.88 4.07117C15.9 4.07117 15.92 4.07117 15.94 4.07117C16.04 4.07117 16.14 4.07117 16.25 4.07117C16.35 4.07117 16.45 4.07117 16.55 4.07117C16.65 4.07117 16.75 4.07117 16.86 4.07117C16.96 4.07117 17.06 4.07117 17.17 4.07117C17.27 4.07117 17.37 4.07117 17.48 4.07117C17.58 4.07117 17.68 4.07117 17.79 4.07117C17.89 4.07117 17.99 4.07117 18.1 4.07117C18.2 4.07117 18.3 4.07117 18.41 4.07117C18.51 4.07117 18.61 4.07117 18.72 4.07117C18.82 4.07117 18.92 4.07117 19.03 4.07117C19.13 4.07117 19.23 4.07117 19.34 4.07117C19.44 4.07117 19.54 4.07117 19.65 4.07117C19.75 4.07117 19.85 4.07117 19.95 4.07117C20.05 4.07117 20.16 4.07117 20.26 4.07117C20.36 4.07117 20.46 4.07117 20.57 4.07117C20.67 4.07117 20.77 4.07117 20.88 4.07117C20.98 4.07117 21.08 4.07117 21.19 4.07117C21.29 4.07117 21.39 4.07117 21.5 4.07117C21.6 4.07117 21.7 4.07117 21.81 4.07117C21.91 4.07117 22.01 4.07117 22.12 4.07117C22.22 4.07117 22.33 4.07117 22.43 4.07117H22.74C22.84 4.07117 22.94 4.07117 23.05 4.07117C23.15 4.07117 23.25 4.07117 23.36 4.07117C23.46 4.07117 23.57 4.07117 23.67 4.07117C23.77 4.07117 23.87 4.07117 23.98 4.07117C24.09 4.07117 24.18 4.07117 24.29 4.07117C24.39 4.07117 24.49 4.07117 24.6 4.07117H24.91C25.01 4.07117 25.11 4.07117 25.22 4.07117C25.33 4.07117 25.43 4.07117 25.53 4.07117C25.63 4.07117 25.73 4.07117 25.84 4.07117C25.95 4.07117 26.05 4.07117 26.15 4.07117C26.25 4.07117 26.36 4.07117 26.46 4.07117C26.56 4.07117 26.66 4.07117 26.77 4.07117C26.88 4.07117 26.97 4.07117 27.08 4.07117C27.18 4.07117 27.28 4.07117 27.39 4.07117H27.7C27.8 4.07117 27.9 4.07117 28.01 4.07117C28.12 4.07117 28.22 4.07117 28.32 4.07117H28.63C28.73 4.07117 28.84 4.07117 28.94 4.07117C29.04 4.07117 29.14 4.07117 29.25 4.07117H29.56C29.66 4.07117 29.77 4.07117 29.87 4.07117H30.18C30.28 4.07117 30.38 4.07117 30.49 4.07117H30.8C30.9 4.07117 31 4.07117 31.11 4.07117H31.72C31.82 4.07117 31.92 4.07117 32.03 4.07117H33.88C33.98 4.07117 34.09 4.07117 34.19 4.07117H34.5C34.6 4.07117 34.7 4.07117 34.81 4.07117H36.66C36.76 4.07117 36.87 4.07117 36.97 4.07117H37.58C37.68 4.07117 37.79 4.07117 37.89 4.07117H38.2C38.3 4.07117 38.41 4.07117 38.51 4.07117H38.82C38.92 4.07117 39.02 4.07117 39.13 4.07117H39.44C39.54 4.07117 39.64 4.07117 39.75 4.07117C39.86 4.07117 39.95 4.07117 40.06 4.07117H40.37C40.47 4.07117 40.58 4.07117 40.68 4.07117C40.78 4.07117 40.89 4.07117 40.99 4.07117H41.3C41.4 4.07117 41.5 4.07117 41.61 4.07117C41.71 4.07117 41.82 4.07117 41.92 4.07117C42.02 4.07117 42.12 4.07117 42.23 4.07117C42.34 4.07117 42.43 4.07117 42.54 4.07117C42.65 4.07117 42.75 4.07117 42.85 4.07117C42.95 4.07117 43.06 4.07117 43.16 4.07117C43.26 4.07117 43.36 4.07117 43.47 4.07117C43.58 4.07117 43.67 4.07117 43.78 4.07117C43.89 4.07117 43.98 4.07117 44.09 4.07117C44.2 4.07117 44.3 4.07117 44.4 4.07117C44.5 4.07117 44.6 4.07117 44.71 4.07117H45.02C45.12 4.07117 45.22 4.07117 45.33 4.07117C45.43 4.07117 45.54 4.07117 45.64 4.07117C45.74 4.07117 45.84 4.07117 45.95 4.07117C46.05 4.07117 46.15 4.07117 46.26 4.07117C46.36 4.07117 46.46 4.07117 46.57 4.07117C46.67 4.07117 46.78 4.07117 46.88 4.07117C46.98 4.07117 47.08 4.07117 47.19 4.07117C47.29 4.07117 47.39 4.07117 47.5 4.07117C47.6 4.07117 47.7 4.07117 47.81 4.07117C47.91 4.07117 48.01 4.07117 48.12 4.07117C48.22 4.07117 48.32 4.07117 48.43 4.07117C48.53 4.07117 48.63 4.07117 48.74 4.07117C48.84 4.07117 48.95 4.07117 49.05 4.07117C49.15 4.07117 49.25 4.07117 49.36 4.07117C49.46 4.07117 49.56 4.07117 49.67 4.07117C49.77 4.07117 49.88 4.07117 49.98 4.07117C50.08 4.07117 50.18 4.07117 50.29 4.07117C50.39 4.07117 50.49 4.07117 50.59 4.07117C50.69 4.07117 50.79 4.07117 50.9 4.07117C51 4.07117 51.1 4.07117 51.21 4.07117C51.31 4.07117 51.41 4.07117 51.51 4.07117C51.61 4.07117 51.71 4.07117 51.82 4.07117C51.92 4.07117 52.02 4.07117 52.13 4.07117C52.23 4.07117 52.33 4.07117 52.43 4.07117C52.53 4.07117 52.63 4.07117 52.74 4.07117C52.78 4.07117 52.82 4.07117 52.86 4.07117C52.9 4.07117 52.94 4.07117 52.98 4.07117C53.02 4.07117 53.06 4.07117 53.1 4.07117C53.14 4.07117 53.18 4.07117 53.22 4.08117C53.26 4.08117 53.3 4.08117 53.34 4.09117L53.46 4.11117C53.46 4.11117 53.54 4.12117 53.58 4.13117C53.62 4.13117 53.66 4.14117 53.7 4.15117C53.74 4.15117 53.77 4.17117 53.81 4.17117C53.85 4.17117 53.89 4.19117 53.92 4.20117C53.96 4.20117 54 4.22117 54.03 4.23117C54.07 4.23117 54.1 4.25117 54.14 4.26117C54.18 4.27117 54.21 4.28117 54.25 4.29117C54.29 4.30117 54.32 4.31117 54.36 4.32117C54.4 4.33117 54.43 4.34117 54.47 4.36117C54.54 4.39117 54.61 4.41117 54.67 4.44117C54.74 4.47117 54.8 4.50117 54.87 4.53117C54.93 4.56117 55 4.60117 55.06 4.63117C55.12 4.66117 55.19 4.70117 55.25 4.74117C55.37 4.82117 55.49 4.90117 55.61 4.99117C55.72 5.08117 55.83 5.17117 55.93 5.27117C56.03 5.37117 56.13 5.47117 56.22 5.58117C56.31 5.69117 56.4 5.81117 56.48 5.93117C56.52 5.99117 56.56 6.05117 56.59 6.11117C56.63 6.17117 56.66 6.23117 56.69 6.30117C56.72 6.36117 56.75 6.43117 56.78 6.49117C56.81 6.56117 56.84 6.62117 56.86 6.69117C56.86 6.71117 56.87 6.73117 56.88 6.75117C56.88 6.77117 56.89 6.79117 56.9 6.80117L56.92 6.86117C56.92 6.86117 56.93 6.90117 56.94 6.92117C56.94 6.94117 56.95 6.96117 56.96 6.98117C56.96 7.00117 56.97 7.02117 56.98 7.04117C56.98 7.06117 56.99 7.08117 57 7.10117C57 7.12117 57.01 7.14117 57.02 7.16117V7.22117C57.02 7.22117 57.04 7.26117 57.05 7.28117C57.05 7.30117 57.05 7.32117 57.06 7.34117C57.06 7.36117 57.06 7.38117 57.07 7.40117C57.07 7.42117 57.07 7.44117 57.08 7.46117V7.52117C57.08 7.52117 57.1 7.56117 57.1 7.58117C57.1 7.60117 57.1 7.62117 57.1 7.64117C57.1 7.66117 57.1 7.68117 57.1 7.70117C57.1 7.72117 57.1 7.74117 57.1 7.76117C57.1 7.78117 57.1 7.80117 57.1 7.82117C57.1 7.84117 57.1 7.86117 57.1 7.88117C57.1 7.90117 57.1 7.92117 57.1 7.94117C57.1 7.96117 57.1 7.98117 57.1 8.00117C57.1 8.02117 57.1 8.04117 57.1 8.06117C57.1 8.08117 57.1 8.10117 57.1 8.12117V8.18117C57.1 8.18117 57.1 8.22117 57.1 8.24117C57.1 8.26117 57.1 8.28117 57.1 8.30117C57.1 8.32117 57.1 8.34117 57.1 8.36117V8.42117V9.94117C57.08 13.1312 57.07 16.3212 57.05 19.5212C57.05 20.6812 57.04 21.8512 57.04 23.0112C57.02 27.8612 57 32.7212 56.98 37.5712C56.98 37.6112 56.98 37.6512 56.98 37.6912C56.98 37.7312 56.98 37.7712 56.98 37.8112C56.98 37.8512 56.98 37.8912 56.98 37.9312C56.98 37.9712 56.98 38.0112 56.98 38.0512C56.98 38.0912 56.98 38.1312 56.97 38.1612C56.97 38.2012 56.96 38.2412 56.95 38.2712C56.95 38.3112 56.94 38.3512 56.93 38.3812L56.91 38.4912C56.91 38.4912 56.9 38.5712 56.89 38.6012C56.89 38.6412 56.87 38.6812 56.86 38.7112C56.86 38.7512 56.84 38.7812 56.83 38.8212C56.82 38.8612 56.81 38.8912 56.8 38.9312C56.79 38.9712 56.78 39.0012 56.77 39.0412C56.76 39.0812 56.75 39.1112 56.73 39.1512C56.72 39.1912 56.7 39.2212 56.69 39.2612C56.64 39.4012 56.58 39.5312 56.51 39.6712C56.45 39.8012 56.38 39.9312 56.3 40.0512C56.22 40.1712 56.14 40.2912 56.05 40.4112C55.96 40.5212 55.87 40.6412 55.77 40.7412C55.67 40.8512 55.57 40.9512 55.46 41.0512C55.35 41.1512 55.23 41.2412 55.11 41.3212C55.05 41.3612 54.99 41.4012 54.93 41.4412C54.87 41.4812 54.81 41.5212 54.74 41.5512C54.68 41.5912 54.61 41.6212 54.55 41.6512C54.48 41.6812 54.42 41.7212 54.35 41.7512C54.33 41.7512 54.32 41.7612 54.3 41.7712C54.28 41.7812 54.26 41.7912 54.25 41.7912C54.23 41.7912 54.22 41.8012 54.2 41.8112C54.18 41.8112 54.17 41.8212 54.15 41.8312L54.1 41.8512C54.1 41.8512 54.06 41.8612 54.05 41.8712L54 41.8912C54 41.8912 53.97 41.9012 53.95 41.9112C53.93 41.9112 53.91 41.9212 53.9 41.9312C53.88 41.9312 53.86 41.9412 53.85 41.9512C53.83 41.9512 53.81 41.9612 53.8 41.9712C53.78 41.9712 53.76 41.9812 53.75 41.9912C53.73 41.9912 53.71 42.0012 53.7 42.0012L53.65 42.0212C53.65 42.0212 53.61 42.0212 53.6 42.0312C53.58 42.0312 53.56 42.0312 53.55 42.0412C53.53 42.0412 53.51 42.0412 53.49 42.0512C53.47 42.0512 53.45 42.0512 53.43 42.0612C53.41 42.0612 53.39 42.0612 53.38 42.0712C53.36 42.0712 53.34 42.0712 53.32 42.0812C53.3 42.0812 53.28 42.0812 53.26 42.0812H53.21L53.15 42.1012C53.13 42.1012 53.11 42.1012 53.09 42.1012C53.07 42.1012 53.05 42.1012 53.03 42.1012C53.01 42.1012 52.99 42.1012 52.97 42.1012C52.95 42.1012 52.93 42.1012 52.91 42.1012C52.89 42.1012 52.87 42.1012 52.85 42.1012C52.83 42.1012 52.81 42.1012 52.79 42.1012C52.77 42.1012 52.75 42.1012 52.73 42.1012C52.71 42.1012 52.69 42.1012 52.67 42.1012C52.57 42.1012 52.47 42.1112 52.36 42.1212C52.26 42.1212 52.16 42.1312 52.06 42.1412C51.96 42.1412 51.86 42.1512 51.75 42.1512C51.65 42.1512 51.55 42.1612 51.44 42.1712C51.34 42.1712 51.24 42.1712 51.14 42.1812C51.04 42.1812 50.94 42.1812 50.83 42.1912C50.73 42.1912 50.63 42.1912 50.52 42.2012C50.42 42.2012 50.32 42.2012 50.22 42.2112C50.12 42.2112 50.02 42.2112 49.91 42.2212C49.81 42.2212 49.71 42.2212 49.6 42.2312C49.5 42.2312 49.4 42.2312 49.29 42.2412C49.19 42.2412 49.09 42.2412 48.98 42.2512C48.88 42.2512 48.78 42.2512 48.67 42.2612C48.57 42.2612 48.47 42.2612 48.36 42.2712C48.26 42.2712 48.16 42.2712 48.05 42.2812C47.95 42.2812 47.85 42.2812 47.74 42.2912C47.64 42.2912 47.54 42.2912 47.43 42.3012C47.33 42.3012 47.23 42.3012 47.12 42.3112C47.02 42.3112 46.92 42.3112 46.81 42.3212C46.71 42.3212 46.61 42.3212 46.5 42.3312C46.4 42.3312 46.3 42.3312 46.19 42.3312C46.09 42.3312 45.99 42.3312 45.88 42.3412C45.77 42.3512 45.68 42.3412 45.57 42.3512C45.47 42.3512 45.37 42.3512 45.26 42.3512C45.16 42.3512 45.06 42.3512 44.95 42.3512C44.85 42.3512 44.75 42.3512 44.64 42.3512C44.54 42.3512 44.44 42.3512 44.33 42.3512C44.23 42.3512 44.13 42.3512 44.02 42.3512C43.92 42.3512 43.82 42.3512 43.71 42.3512C43.61 42.3512 43.51 42.3512 43.4 42.3512C43.3 42.3512 43.2 42.3512 43.09 42.3512C42.99 42.3512 42.89 42.3512 42.78 42.3512C42.68 42.3512 42.57 42.3512 42.47 42.3512C42.37 42.3512 42.27 42.3512 42.16 42.3512C42.06 42.3512 41.96 42.3512 41.85 42.3512H41.54C41.44 42.3512 41.34 42.3612 41.23 42.3612H40.92C40.82 42.3612 40.72 42.3612 40.61 42.3712C40.51 42.3712 40.41 42.3712 40.3 42.3712C40.2 42.3712 40.09 42.3712 39.99 42.3712C39.89 42.3712 39.79 42.3712 39.68 42.3712H39.37C39.27 42.3712 39.16 42.3712 39.06 42.3712C38.96 42.3712 38.86 42.3712 38.75 42.3712C38.64 42.3712 38.55 42.3712 38.44 42.3712C38.34 42.3712 38.23 42.3712 38.13 42.3712C38.03 42.3712 37.93 42.3712 37.82 42.3712H37.51C37.41 42.3712 37.3 42.3712 37.2 42.3712C37.1 42.3712 36.99 42.3712 36.89 42.3712C36.79 42.3712 36.69 42.3712 36.58 42.3712C36.48 42.3712 36.38 42.3712 36.27 42.3712H35.96H35.65C35.55 42.3712 35.45 42.3712 35.34 42.3712H35.03C34.93 42.3712 34.82 42.3712 34.72 42.3712H33.8C33.7 42.3712 33.6 42.3712 33.49 42.3712H33.18C33.08 42.3712 32.98 42.3712 32.87 42.3712C32.77 42.3712 32.67 42.3712 32.56 42.3712H32.25C32.15 42.3712 32.05 42.3712 31.94 42.3712C31.84 42.3712 31.73 42.3712 31.63 42.3712C31.53 42.3712 31.42 42.3712 31.32 42.3712C31.22 42.3712 31.12 42.3712 31.01 42.3712H30.7H30.39C30.29 42.3712 30.19 42.3712 30.08 42.3712C29.98 42.3712 29.88 42.3712 29.77 42.3712C29.67 42.3712 29.56 42.3712 29.46 42.3712C29.36 42.3712 29.26 42.3712 29.15 42.3712C29.05 42.3712 28.95 42.3712 28.84 42.3712C28.74 42.3712 28.64 42.3712 28.53 42.3712C28.43 42.3712 28.32 42.3712 28.22 42.3712C28.12 42.3712 28.02 42.3712 27.91 42.3712C27.81 42.3712 27.71 42.3712 27.6 42.3712C27.5 42.3712 27.4 42.3712 27.29 42.3712H26.98C26.88 42.3712 26.78 42.3712 26.67 42.3612C26.57 42.3612 26.47 42.3612 26.36 42.3612C26.26 42.3612 26.16 42.3612 26.05 42.3612C25.95 42.3612 25.84 42.3612 25.74 42.3612H25.43C25.33 42.3612 25.23 42.3512 25.12 42.3512C25.02 42.3512 24.91 42.3512 24.81 42.3512C24.71 42.3512 24.6 42.3512 24.5 42.3512C24.4 42.3512 24.3 42.3512 24.19 42.3512C24.09 42.3512 23.99 42.3512 23.88 42.3512C23.78 42.3512 23.68 42.3512 23.57 42.3512C23.47 42.3512 23.37 42.3512 23.26 42.3512C23.16 42.3512 23.06 42.3512 22.95 42.3512C22.85 42.3512 22.75 42.3512 22.64 42.3412C22.54 42.3412 22.44 42.3412 22.33 42.3312C22.23 42.3312 22.13 42.3312 22.02 42.3312C21.92 42.3312 21.82 42.3312 21.71 42.3212C21.61 42.3212 21.51 42.3212 21.4 42.3112C21.3 42.3112 21.2 42.3112 21.09 42.3012C20.99 42.3012 20.89 42.3012 20.78 42.2912C20.68 42.2912 20.58 42.2912 20.47 42.2812C20.37 42.2812 20.27 42.2812 20.16 42.2712C20.06 42.2712 19.96 42.2712 19.85 42.2612C19.75 42.2612 19.65 42.2612 19.54 42.2512C19.44 42.2512 19.34 42.2512 19.23 42.2412C19.13 42.2412 19.03 42.2412 18.92 42.2312C18.82 42.2312 18.72 42.2312 18.61 42.2212C18.51 42.2212 18.41 42.2212 18.3 42.2112C18.2 42.2112 18.1 42.2112 18 42.2012C17.9 42.2012 17.8 42.2012 17.69 42.1912C17.59 42.1912 17.49 42.1912 17.38 42.1812C17.28 42.1812 17.18 42.1712 17.08 42.1712C16.98 42.1712 16.88 42.1612 16.77 42.1512H16.47C16.37 42.1312 16.27 42.1312 16.17 42.1212C16.07 42.1212 15.97 42.1112 15.86 42.1012L15.95 42.0812Z" stroke="#FF00FF" stroke-width="0.28" stroke-linecap="round" stroke-linejoin="round"/>
<path d="M53.9488 45.8675V50.9584H53.3324V46.5138H53.3025L52.0596 47.3391V46.7127L53.3324 45.8675H53.9488ZM55.5497 50.9982C55.4271 50.9982 55.3218 50.9543 55.234 50.8665C55.1462 50.7786 55.1023 50.6734 55.1023 50.5508C55.1023 50.4281 55.1462 50.3229 55.234 50.2351C55.3218 50.1472 55.4271 50.1033 55.5497 50.1033C55.6723 50.1033 55.7776 50.1472 55.8654 50.2351C55.9532 50.3229 55.9971 50.4281 55.9971 50.5508C55.9971 50.632 55.9764 50.7065 55.935 50.7745C55.8952 50.8424 55.8414 50.8971 55.7734 50.9385C55.7071 50.9783 55.6326 50.9982 55.5497 50.9982ZM57.0399 50.9584V50.511L58.7203 48.6715C58.9175 48.4561 59.0799 48.2688 59.2075 48.1097C59.3351 47.949 59.4296 47.7982 59.4909 47.6573C59.5539 47.5148 59.5854 47.3656 59.5854 47.2099C59.5854 47.0309 59.5423 46.8759 59.4561 46.745C59.3716 46.6141 59.2556 46.513 59.1081 46.4417C58.9606 46.3705 58.7949 46.3349 58.611 46.3349C58.4154 46.3349 58.2447 46.3755 58.0989 46.4567C57.9547 46.5362 57.8428 46.6481 57.7633 46.7922C57.6854 46.9364 57.6465 47.1055 57.6465 47.2993H57.0598C57.0598 47.001 57.1286 46.7392 57.2661 46.5138C57.4037 46.2885 57.5909 46.1128 57.8279 45.9868C58.0666 45.8609 58.3342 45.7979 58.6308 45.7979C58.9291 45.7979 59.1935 45.8609 59.4238 45.9868C59.6542 46.1128 59.8348 46.2827 59.9657 46.4964C60.0966 46.7102 60.1621 46.948 60.1621 47.2099C60.1621 47.3971 60.1281 47.5802 60.0602 47.7592C59.9939 47.9365 59.8779 48.1346 59.7122 48.3533C59.5481 48.5704 59.3202 48.8356 59.0286 49.1488L57.8851 50.3718V50.4116H60.2516V50.9584H57.0399ZM62.8691 51.028C62.5775 51.028 62.3148 50.97 62.0811 50.854C61.8475 50.738 61.6602 50.5789 61.5193 50.3768C61.3785 50.1746 61.3014 49.9442 61.2882 49.6857H61.8847C61.9079 49.9161 62.0123 50.1066 62.198 50.2574C62.3852 50.4066 62.6089 50.4812 62.8691 50.4812C63.0779 50.4812 63.2635 50.4323 63.4259 50.3345C63.59 50.2367 63.7184 50.1025 63.8112 49.9318C63.9057 49.7595 63.9529 49.5647 63.9529 49.3476C63.9529 49.1256 63.904 48.9275 63.8063 48.7535C63.7101 48.5779 63.5776 48.4395 63.4085 48.3384C63.2395 48.2373 63.0464 48.1859 62.8293 48.1843C62.6736 48.1826 62.5136 48.2067 62.3496 48.2564C62.1855 48.3044 62.0505 48.3666 61.9444 48.4428L61.3677 48.3732L61.6759 45.8675H64.3208V46.4144H62.193L62.014 47.9158H62.0438C62.1482 47.833 62.2792 47.7642 62.4366 47.7095C62.594 47.6548 62.7581 47.6275 62.9288 47.6275C63.2403 47.6275 63.5179 47.702 63.7615 47.8512C64.0068 47.9987 64.199 48.2009 64.3382 48.4577C64.4791 48.7146 64.5495 49.0079 64.5495 49.3377C64.5495 49.6625 64.4766 49.9525 64.3308 50.2077C64.1866 50.4613 63.9877 50.6618 63.7342 50.8093C63.4806 50.9551 63.1923 51.028 62.8691 51.028Z" fill="#0000FF"/>
<path fill-rule="evenodd" clip-rule="evenodd" d="M19.6054 10.1051L23.5107 8.20738C23.723 8.10422 23.9734 8.11762 24.1735 8.24284C24.3735 8.36806 24.4951 8.58746 24.4951 8.82349V8.83349C24.4951 8.93127 24.4741 9.02792 24.4337 9.11694L23.9655 10.1469C23.9249 10.2363 23.9866 10.3388 24.0844 10.3478C24.1808 10.3567 24.2772 10.3678 24.3735 10.3811C25.767 10.5738 27.0577 11.2218 28.0446 12.2243C29.0315 13.2268 29.6593 14.5275 29.8302 15.9238C30.001 17.3201 29.7054 18.7338 28.9894 19.9447C28.7898 20.2822 28.3544 20.394 28.0169 20.1944C27.6793 19.9948 27.5675 19.5594 27.7671 19.2219C28.3237 18.2806 28.5535 17.1817 28.4207 16.0963C28.2879 15.0108 27.7999 13.9998 27.0327 13.2205C26.2655 12.4412 25.2622 11.9375 24.179 11.7877C24.1618 11.7853 24.1446 11.783 24.1274 11.7808C24.0216 11.7673 23.9453 11.8756 23.9894 11.9727L24.4337 12.95C24.5532 13.2129 24.495 13.5225 24.2882 13.724C24.0814 13.9256 23.7704 13.9758 23.5107 13.8496L19.6054 11.9519C18.825 11.5845 18.825 10.4725 19.6054 10.1051ZM19.2326 14.1751C19.4322 13.8375 19.3204 13.4021 18.9829 13.2025C18.6453 13.0029 18.2099 13.1147 18.0103 13.4523C17.2943 14.6631 16.9987 16.0768 17.1695 17.4731C17.3404 18.8695 17.9682 20.1701 18.9551 21.1726C19.942 22.1751 21.2327 22.8231 22.6262 23.0158C22.7225 23.0292 22.8189 23.0403 22.9154 23.0491C23.0132 23.0581 23.0749 23.1606 23.0342 23.2501L22.5661 24.28C22.5256 24.369 22.5047 24.4657 22.5047 24.5635V24.5735C22.5047 24.8095 22.6262 25.0289 22.8262 25.1541C23.0263 25.2793 23.2768 25.2927 23.489 25.1896L27.3943 23.2918C28.1748 22.9245 28.1748 21.8124 27.3943 21.4451L23.489 19.5473C23.2293 19.4211 22.9183 19.4714 22.7116 19.6729C22.5048 19.8744 22.4466 20.184 22.5661 20.4469L23.0103 21.4243C23.0544 21.5214 22.9781 21.6296 22.8723 21.6161C22.8551 21.6139 22.8379 21.6116 22.8207 21.6092C21.7375 21.4594 20.7342 20.9557 19.967 20.1764C19.1998 19.3971 18.7119 18.3861 18.579 17.3007C18.4462 16.2152 18.676 15.1163 19.2326 14.1751Z" fill="black"/>
<path d="M29.0833 36.1562V32.0341C29.0833 31.658 29.3031 31.4187 29.6645 31.4187C29.8713 31.4187 30.0403 31.4992 30.1458 31.6402C30.1714 31.6744 30.1932 31.7131 30.2109 31.7496C30.2453 31.8203 30.3298 31.8504 30.4005 31.8161C30.6667 31.6871 31.286 31.4236 31.9014 31.4236C33.0443 31.4236 33.6939 32.1562 33.6939 33.3528V36.1563C33.6939 36.5666 33.4448 36.7961 33.0883 36.7961C32.7318 36.7961 32.4778 36.5665 32.4778 36.1563V33.5971C32.4778 32.8645 32.1359 32.4542 31.4424 32.4542C30.7489 32.4542 30.2995 32.9573 30.2995 33.6996V36.1563C30.2995 36.5666 30.0455 36.7961 29.689 36.7961C29.3325 36.7961 29.0833 36.5665 29.0833 36.1562Z" fill="black"/>
<path d="M26.7018 34.7798C26.7018 35.4047 26.1453 35.8637 25.4617 35.8637C24.9345 35.8637 24.578 35.5952 24.578 35.1705C24.578 34.7458 24.9149 34.4968 25.5007 34.4577L26.6491 34.3877C26.6776 34.386 26.7017 34.4086 26.7017 34.4372V34.78L26.7018 34.7798ZM25.7839 31.4159C24.7928 31.4159 24.2212 31.7562 23.9289 32.0836C23.7596 32.2733 23.7379 32.6727 23.9701 32.8584C24.2415 33.0754 24.6961 32.913 24.8523 32.721C24.9925 32.5486 25.3073 32.3735 25.7349 32.3679C26.3353 32.36 26.7016 32.6804 26.7016 33.2223V33.4249C26.7016 33.4512 26.6811 33.4729 26.6548 33.4744L25.3296 33.5499C24.0702 33.628 23.3623 34.3013 23.3623 35.2191C23.3623 36.1369 24.0922 36.7814 25.0906 36.7814C25.7224 36.7814 26.3383 36.6164 26.6447 36.4911C26.709 36.4648 26.7827 36.4896 26.8189 36.5489C26.8217 36.5534 26.8241 36.5572 26.8261 36.5601C26.9075 36.676 27.054 36.796 27.312 36.796C27.6538 36.796 27.9027 36.5763 27.9027 36.1858V33.1344C27.9027 32.0945 27.0679 31.4159 25.7839 31.4159Z" fill="black"/>
<path d="M38.0004 34.7798C38.0004 35.4047 37.4439 35.8637 36.7603 35.8637C36.2331 35.8637 35.8766 35.5952 35.8766 35.1705C35.8766 34.7458 36.2135 34.4968 36.7993 34.4577L37.9477 34.3877C37.9762 34.386 38.0003 34.4086 38.0003 34.4372V34.78L38.0004 34.7798ZM37.0825 31.4159C36.0914 31.4159 35.5198 31.7562 35.2275 32.0836C35.0582 32.2733 35.0365 32.6727 35.2687 32.8584C35.5401 33.0754 35.9947 32.913 36.1509 32.721C36.2911 32.5486 36.6059 32.3735 37.0335 32.3679C37.6339 32.36 38.0002 32.6804 38.0002 33.2223V33.4249C38.0002 33.4512 37.9797 33.4729 37.9534 33.4744L36.6282 33.5499C35.3688 33.628 34.6609 34.3013 34.6609 35.2191C34.6609 36.1369 35.3908 36.7814 36.3892 36.7814C37.021 36.7814 37.6369 36.6164 37.9433 36.4911C38.0076 36.4648 38.0813 36.4896 38.1175 36.5489C38.1203 36.5534 38.1227 36.5572 38.1247 36.5601C38.2061 36.676 38.3526 36.796 38.6106 36.796C38.9524 36.796 39.2013 36.5763 39.2013 36.1858V33.1344C39.2013 32.0945 38.3665 31.4159 37.0825 31.4159Z" fill="black"/>
<path d="M17.75 36.7813C17.3594 36.7813 17.1201 36.542 17.1201 36.127V30.2236C17.1201 29.8086 17.3594 29.5693 17.75 29.5693C18.1406 29.5693 18.3799 29.8086 18.3799 30.2236V32.5707C18.3799 32.6996 18.538 32.7616 18.6256 32.667L21.2559 29.8281C21.4268 29.6426 21.5782 29.5644 21.7832 29.5644C22.1201 29.5644 22.3691 29.8183 22.3691 30.1406C22.3691 30.3115 22.3105 30.4433 22.164 30.5996L20.1321 32.7204C20.0823 32.7723 20.0794 32.8533 20.1252 32.9088L22.3739 35.629C22.5448 35.839 22.618 36.0147 22.618 36.1808C22.618 36.5226 22.3543 36.7863 22.0125 36.7863C21.7635 36.7863 21.5926 36.6935 21.3973 36.4494L19.2142 33.7812C19.1601 33.715 19.0601 33.7115 19.0014 33.7737L18.4569 34.3509C18.4073 34.4035 18.3796 34.4731 18.3796 34.5454V36.1271C18.3796 36.5421 18.1452 36.7814 17.7497 36.7814L17.75 36.7813Z" fill="black"/>
</svg>
