<svg width="55" height="55" viewBox="0 0 55 55" fill="none" xmlns="http://www.w3.org/2000/svg">
<rect x="2.34998" y="2.7984" width="50.3" height="50.3" rx="3" stroke="#8B1EFF" stroke-width="0.28"/>
<path d="M10.4131 37.996C10.3351 28.009 10.2361 18.021 10.1191 8.03296L10.1192 8.03052C10.1232 7.86451 10.1362 7.69849 10.1563 7.53235C10.1763 7.36732 10.2023 7.20337 10.2355 7.03992C10.2675 6.87794 10.3065 6.71692 10.3527 6.55811C10.3997 6.40015 10.4517 6.24415 10.5115 6.08997C10.6985 5.61597 10.9535 5.16504 11.27 4.7627C11.583 4.36573 11.956 4.01673 12.3725 3.73231C12.7875 3.45032 13.2465 3.23231 13.7258 3.08533C14.2078 2.93824 14.7118 2.86231 15.2141 2.85499C19.3081 2.82007 23.4021 2.80298 27.4963 2.80335C31.5893 2.80335 35.6833 2.82032 39.7776 2.8556C39.9396 2.85853 40.1016 2.86951 40.2635 2.88611C40.5035 2.91212 40.7435 2.95313 40.9799 3.00989C41.2139 3.0669 41.4449 3.1388 41.6697 3.22791C41.9037 3.32093 42.1287 3.43189 42.3449 3.55909C42.562 3.68702 42.7689 3.83106 42.9627 3.99C43.1577 4.15003 43.3417 4.32508 43.5105 4.5116C43.6795 4.70057 43.8355 4.90259 43.976 5.11414C44.257 5.54322 44.475 6.01319 44.625 6.50489C44.776 7.00281 44.858 7.52283 44.873 8.04102C44.752 18.018 44.654 27.995 44.58 37.9735C44.574 38.1334 44.5601 38.2935 44.539 38.452C44.518 38.613 44.491 38.772 44.4569 38.9297C44.4239 39.0886 44.3839 39.2467 44.3358 39.4021C44.2888 39.5581 44.2349 39.712 44.175 39.864C43.984 40.3391 43.728 40.7891 43.4172 41.1979C43.1032 41.6089 42.7352 41.9769 42.3244 42.2878C41.9154 42.5979 41.4624 42.8519 40.9838 43.0389C40.5098 43.2239 40.0098 43.3439 39.5063 43.3919C31.5073 43.9019 23.4843 43.9019 15.4849 43.392C15.1529 43.36 14.8229 43.296 14.5024 43.2019C14.1794 43.1079 13.8654 42.9829 13.5632 42.8303C12.9602 42.5233 12.4092 42.1052 11.9476 41.6061C11.4866 41.109 11.1126 40.53 10.849 39.908C10.719 39.6 10.615 39.2809 10.5411 38.954C10.4691 38.632 10.4241 38.303 10.4111 37.9729" stroke="#8B1EFF" stroke-width="0.283" stroke-miterlimit="10"/>
<rect x="13.1854" y="6.47675" width="28.63" height="34.31" rx="1.43" stroke="#00FFFF" stroke-width="0.28"/>
<path d="M43.4396 37.5325C43.4576 32.6805 43.4776 27.8275 43.5006 22.9756C43.5216 18.1226 43.5466 13.2705 43.5756 8.41748C43.5764 8.27283 43.5714 8.12878 43.5594 7.98584C43.5494 7.84277 43.5314 7.69983 43.5074 7.55884C43.4604 7.27673 43.3884 7.00281 43.2894 6.73779C43.2644 6.67175 43.2384 6.60583 43.2104 6.54077C43.1814 6.47473 43.1524 6.40979 43.1214 6.3468C43.0584 6.21875 42.9904 6.09583 42.9154 5.97681C42.7664 5.73877 42.5934 5.5188 42.3934 5.31482C42.1954 5.11182 41.9774 4.93481 41.7434 4.78174C41.6264 4.70581 41.5054 4.63477 41.3794 4.5708C41.3164 4.53882 41.2534 4.50781 41.1874 4.47876C41.1234 4.44873 41.0564 4.42175 40.9904 4.39575C40.7234 4.29175 40.4504 4.2168 40.1714 4.16577C39.8924 4.11475 39.6074 4.08875 39.3164 4.08582C38.3376 4.07825 37.3566 4.07019 36.3735 4.06421C35.3896 4.05725 34.4056 4.05225 33.4205 4.04724C31.4496 4.03918 29.4756 4.03528 27.4985 4.03528C27.0035 4.03528 26.5096 4.03528 26.0146 4.03528C25.5206 4.03625 25.0256 4.03723 24.5306 4.03821C23.5416 4.04028 22.5536 4.04321 21.5685 4.04724C19.5966 4.05627 17.6326 4.06921 15.6755 4.08618C15.5298 4.08728 15.3859 4.09521 15.2408 4.10828C15.0979 4.12219 14.9539 4.14124 14.8129 4.16724C14.5298 4.21924 14.2559 4.29626 13.9908 4.40027C13.9249 4.42627 13.8599 4.45325 13.7949 4.48328C13.7299 4.51221 13.6649 4.54419 13.6019 4.57629C13.4749 4.64221 13.3539 4.71326 13.2359 4.79126C13.0009 4.94519 12.7839 5.12427 12.5859 5.32825C12.5369 5.3783 12.4889 5.43127 12.4429 5.48425C12.3969 5.53723 12.3519 5.59119 12.3089 5.64722C12.2229 5.7572 12.1429 5.87219 12.0688 5.99023C11.9949 6.10925 11.9279 6.2323 11.8649 6.35828C11.8349 6.42126 11.8058 6.48523 11.7779 6.55127C11.7499 6.61621 11.7239 6.68323 11.6989 6.75024C11.6009 7.01624 11.5298 7.28918 11.4839 7.56726C11.4379 7.84521 11.4149 8.12927 11.4169 8.41821C11.4452 13.2708 11.4712 18.1228 11.4932 22.9758C11.5162 27.8278 11.5352 32.6808 11.5532 37.5328C11.5539 37.8196 11.5779 38.1035 11.6279 38.3876C11.6409 38.4585 11.6549 38.5295 11.6699 38.5995C11.6859 38.6696 11.7019 38.7395 11.7209 38.8085C11.7579 38.9475 11.8009 39.0835 11.8499 39.2185C11.8989 39.3535 11.9529 39.4866 12.0149 39.6166C12.0459 39.6815 12.0769 39.7466 12.1119 39.8105C12.1459 39.8745 12.1809 39.9385 12.2179 40.0016C12.3649 40.2516 12.5329 40.4845 12.7239 40.7015C12.8189 40.8096 12.9199 40.9136 13.0269 41.0135C13.0789 41.0635 13.1339 41.1116 13.1899 41.1586C13.2449 41.2056 13.3009 41.2505 13.3589 41.2946C13.5879 41.4695 13.8319 41.6205 14.0919 41.7466C14.1569 41.7786 14.2229 41.8085 14.2899 41.8365C14.3569 41.8655 14.4239 41.8915 14.4919 41.9165C14.6279 41.9666 14.7649 42.0095 14.9039 42.0455C15.1799 42.1176 15.4629 42.1615 15.7509 42.1796C16.7241 42.24 17.6991 42.293 18.6771 42.338C19.6531 42.384 20.6321 42.421 21.6111 42.451C23.5681 42.512 25.5291 42.542 27.4941 42.542C27.985 42.542 28.4771 42.54 28.9681 42.536C29.459 42.533 29.951 42.527 30.4421 42.519C31.425 42.504 32.4061 42.4819 33.386 42.451C35.3441 42.391 37.2961 42.301 39.2414 42.1799C39.3864 42.171 39.5294 42.155 39.6724 42.1329C39.7433 42.121 39.8144 42.108 39.8864 42.093C39.9564 42.078 40.0273 42.062 40.0964 42.043C40.3763 41.9709 40.6454 41.871 40.9044 41.744C40.9703 41.713 41.0334 41.6799 41.0964 41.645C41.1603 41.61 41.2234 41.573 41.2853 41.5339C41.4094 41.458 41.5284 41.375 41.6423 41.287C41.8724 41.1119 42.0823 40.915 42.2734 40.697C42.3214 40.642 42.3674 40.5859 42.4134 40.5291C42.4584 40.472 42.5024 40.4139 42.5444 40.355C42.6293 40.238 42.7073 40.1169 42.7794 39.993C42.9254 39.745 43.0464 39.486 43.1443 39.214C43.1694 39.146 43.1924 39.077 43.2144 39.0079C43.2354 38.939 43.2554 38.87 43.2734 38.801C43.3104 38.662 43.3414 38.5229 43.3654 38.3829C43.4144 38.1021 43.4384 37.819 43.4396 37.5325Z" stroke="#FF00FF" stroke-width="0.283465" stroke-miterlimit="10" stroke-linecap="round" stroke-linejoin="round"/>
<path d="M27.0833 36.1562V32.0341C27.0833 31.658 27.3031 31.4187 27.6645 31.4187C27.8713 31.4187 28.0403 31.4992 28.1458 31.6402C28.1714 31.6744 28.1932 31.7131 28.2109 31.7496C28.2453 31.8203 28.3298 31.8504 28.4005 31.8161C28.6667 31.6871 29.286 31.4236 29.9014 31.4236C31.0443 31.4236 31.6939 32.1562 31.6939 33.3528V36.1563C31.6939 36.5666 31.4448 36.7961 31.0883 36.7961C30.7318 36.7961 30.4778 36.5665 30.4778 36.1563V33.5971C30.4778 32.8645 30.1359 32.4542 29.4424 32.4542C28.7489 32.4542 28.2995 32.9573 28.2995 33.6996V36.1563C28.2995 36.5666 28.0455 36.7961 27.689 36.7961C27.3325 36.7961 27.0833 36.5665 27.0833 36.1562Z" fill="black"/>
<path d="M24.7019 34.7798C24.7019 35.4047 24.1454 35.8637 23.4618 35.8637C22.9346 35.8637 22.5781 35.5952 22.5781 35.1705C22.5781 34.7458 22.915 34.4968 23.5008 34.4577L24.6492 34.3877C24.6777 34.386 24.7018 34.4086 24.7018 34.4372V34.78L24.7019 34.7798ZM23.784 31.4159C22.7929 31.4159 22.2213 31.7562 21.929 32.0836C21.7597 32.2733 21.738 32.6727 21.9702 32.8584C22.2416 33.0754 22.6962 32.913 22.8524 32.721C22.9926 32.5486 23.3074 32.3735 23.735 32.3679C24.3354 32.36 24.7017 32.6804 24.7017 33.2223V33.4249C24.7017 33.4512 24.6812 33.4729 24.6549 33.4744L23.3297 33.5499C22.0703 33.628 21.3624 34.3013 21.3624 35.2191C21.3624 36.1369 22.0923 36.7814 23.0907 36.7814C23.7225 36.7814 24.3384 36.6164 24.6448 36.4911C24.7091 36.4648 24.7828 36.4896 24.819 36.5489C24.8218 36.5534 24.8242 36.5572 24.8262 36.5601C24.9076 36.676 25.0541 36.796 25.3121 36.796C25.6539 36.796 25.9028 36.5763 25.9028 36.1858V33.1344C25.9028 32.0945 25.068 31.4159 23.784 31.4159Z" fill="black"/>
<path d="M36.0004 34.7798C36.0004 35.4047 35.4439 35.8637 34.7603 35.8637C34.2331 35.8637 33.8766 35.5952 33.8766 35.1705C33.8766 34.7458 34.2135 34.4968 34.7993 34.4577L35.9477 34.3877C35.9762 34.386 36.0003 34.4086 36.0003 34.4372V34.78L36.0004 34.7798ZM35.0825 31.4159C34.0914 31.4159 33.5198 31.7562 33.2275 32.0836C33.0582 32.2733 33.0365 32.6727 33.2687 32.8584C33.5401 33.0754 33.9947 32.913 34.1509 32.721C34.2911 32.5486 34.6059 32.3735 35.0335 32.3679C35.6339 32.36 36.0002 32.6804 36.0002 33.2223V33.4249C36.0002 33.4512 35.9797 33.4729 35.9534 33.4744L34.6282 33.5499C33.3688 33.628 32.6609 34.3013 32.6609 35.2191C32.6609 36.1369 33.3908 36.7814 34.3892 36.7814C35.021 36.7814 35.6369 36.6164 35.9433 36.4911C36.0076 36.4648 36.0813 36.4896 36.1175 36.5489C36.1203 36.5534 36.1227 36.5572 36.1247 36.5601C36.2061 36.676 36.3526 36.796 36.6106 36.796C36.9524 36.796 37.2013 36.5763 37.2013 36.1858V33.1344C37.2013 32.0945 36.3665 31.4159 35.0825 31.4159Z" fill="black"/>
<path d="M15.75 36.7813C15.3594 36.7813 15.1201 36.542 15.1201 36.127V30.2236C15.1201 29.8086 15.3594 29.5693 15.75 29.5693C16.1406 29.5693 16.3799 29.8086 16.3799 30.2236V32.5707C16.3799 32.6996 16.538 32.7616 16.6256 32.667L19.2559 29.8281C19.4268 29.6426 19.5782 29.5644 19.7832 29.5644C20.1201 29.5644 20.3691 29.8183 20.3691 30.1406C20.3691 30.3115 20.3105 30.4433 20.164 30.5996L18.1321 32.7204C18.0823 32.7723 18.0794 32.8533 18.1252 32.9088L20.3739 35.629C20.5448 35.839 20.618 36.0147 20.618 36.1808C20.618 36.5226 20.3543 36.7863 20.0125 36.7863C19.7635 36.7863 19.5926 36.6935 19.3973 36.4494L17.2142 33.7812C17.1601 33.715 17.0601 33.7115 17.0014 33.7737L16.4569 34.3509C16.4073 34.4035 16.3796 34.4731 16.3796 34.5454V36.1271C16.3796 36.5421 16.1452 36.7814 15.7497 36.7814L15.75 36.7813Z" fill="black"/>
<path fill-rule="evenodd" clip-rule="evenodd" d="M19.6054 10.1051L23.5107 8.20738C23.723 8.10422 23.9734 8.11762 24.1735 8.24284C24.3735 8.36806 24.4951 8.58746 24.4951 8.82349V8.83349C24.4951 8.93127 24.4741 9.02792 24.4337 9.11694L23.9655 10.1469C23.9249 10.2363 23.9866 10.3388 24.0844 10.3478C24.1808 10.3567 24.2772 10.3678 24.3735 10.3811C25.767 10.5738 27.0577 11.2218 28.0446 12.2243C29.0315 13.2268 29.6593 14.5275 29.8302 15.9238C30.001 17.3201 29.7054 18.7338 28.9894 19.9447C28.7898 20.2822 28.3544 20.394 28.0169 20.1944C27.6793 19.9948 27.5675 19.5594 27.7671 19.2219C28.3237 18.2806 28.5535 17.1817 28.4207 16.0963C28.2879 15.0108 27.7999 13.9998 27.0327 13.2205C26.2655 12.4412 25.2622 11.9375 24.179 11.7877C24.1618 11.7853 24.1446 11.783 24.1274 11.7808C24.0216 11.7673 23.9453 11.8756 23.9894 11.9727L24.4337 12.95C24.5532 13.2129 24.495 13.5225 24.2882 13.724C24.0814 13.9256 23.7704 13.9758 23.5107 13.8496L19.6054 11.9519C18.825 11.5845 18.825 10.4725 19.6054 10.1051ZM19.2326 14.1751C19.4322 13.8375 19.3204 13.4021 18.9829 13.2025C18.6453 13.0029 18.2099 13.1147 18.0103 13.4523C17.2943 14.6631 16.9987 16.0768 17.1695 17.4731C17.3404 18.8695 17.9682 20.1701 18.9551 21.1726C19.942 22.1751 21.2327 22.8231 22.6262 23.0158C22.7225 23.0292 22.8189 23.0403 22.9154 23.0491C23.0132 23.0581 23.0749 23.1606 23.0342 23.2501L22.5661 24.28C22.5256 24.369 22.5047 24.4657 22.5047 24.5635V24.5735C22.5047 24.8095 22.6262 25.0289 22.8262 25.1541C23.0263 25.2793 23.2768 25.2927 23.489 25.1896L27.3943 23.2918C28.1748 22.9245 28.1748 21.8124 27.3943 21.4451L23.489 19.5473C23.2293 19.4211 22.9183 19.4714 22.7116 19.6729C22.5048 19.8744 22.4466 20.184 22.5661 20.4469L23.0103 21.4243C23.0544 21.5214 22.9781 21.6296 22.8723 21.6161C22.8551 21.6139 22.8379 21.6116 22.8207 21.6092C21.7375 21.4594 20.7342 20.9557 19.967 20.1764C19.1998 19.3971 18.7119 18.3861 18.579 17.3007C18.4462 16.2152 18.676 15.1163 19.2326 14.1751Z" fill="black"/>
</svg>
