<svg width="55" height="55" viewBox="0 0 55 55" fill="none" xmlns="http://www.w3.org/2000/svg">
<rect x="2.3501" y="2.7984" width="50.3" height="50.3" rx="3" stroke="#8B1EFF" stroke-width="0.28"/>
<path d="M10.4131 37.996C10.3351 28.009 10.2361 18.021 10.1191 8.03296L10.1192 8.03052C10.1232 7.86451 10.1362 7.69849 10.1563 7.53235C10.1763 7.36732 10.2023 7.20337 10.2355 7.03992C10.2675 6.87794 10.3065 6.71692 10.3527 6.55811C10.3997 6.40015 10.4517 6.24415 10.5115 6.08997C10.6985 5.61597 10.9535 5.16504 11.27 4.7627C11.583 4.36573 11.956 4.01673 12.3725 3.73231C12.7875 3.45032 13.2465 3.23231 13.7258 3.08533C14.2078 2.93824 14.7118 2.86231 15.2141 2.85499C19.3081 2.82007 23.4021 2.80298 27.4963 2.80335C31.5893 2.80335 35.6833 2.82032 39.7776 2.8556C39.9396 2.85853 40.1016 2.86951 40.2635 2.88611C40.5035 2.91212 40.7435 2.95313 40.9799 3.00989C41.2139 3.0669 41.4449 3.1388 41.6697 3.22791C41.9037 3.32093 42.1287 3.43189 42.3449 3.55909C42.562 3.68702 42.7689 3.83106 42.9627 3.99C43.1577 4.15003 43.3417 4.32508 43.5105 4.5116C43.6795 4.70057 43.8355 4.90259 43.976 5.11414C44.257 5.54322 44.475 6.01319 44.625 6.50489C44.776 7.00281 44.858 7.52283 44.873 8.04102C44.752 18.018 44.654 27.995 44.58 37.9735C44.574 38.1334 44.5601 38.2935 44.539 38.452C44.518 38.613 44.491 38.772 44.4569 38.9297C44.4239 39.0886 44.3839 39.2467 44.3358 39.4021C44.2888 39.5581 44.2349 39.712 44.175 39.864C43.984 40.3391 43.728 40.7891 43.4172 41.1979C43.1032 41.6089 42.7352 41.9769 42.3244 42.2878C41.9154 42.5979 41.4624 42.8519 40.9838 43.0389C40.5098 43.2239 40.0098 43.3439 39.5063 43.3919C31.5073 43.9019 23.4843 43.9019 15.4849 43.392C15.1529 43.36 14.8229 43.296 14.5024 43.2019C14.1794 43.1079 13.8654 42.9829 13.5632 42.8303C12.9602 42.5233 12.4092 42.1052 11.9476 41.6061C11.4866 41.109 11.1126 40.53 10.849 39.908C10.719 39.6 10.615 39.2809 10.5411 38.954C10.4691 38.632 10.4241 38.303 10.4111 37.9729" stroke="#8B1EFF" stroke-width="0.283" stroke-miterlimit="10"/>
<rect x="13.1855" y="6.47675" width="28.63" height="34.31" rx="1.43" stroke="#00FFFF" stroke-width="0.28"/>
<path d="M43.4396 37.5325C43.4576 32.6805 43.4776 27.8275 43.5006 22.9756C43.5216 18.1226 43.5466 13.2705 43.5756 8.41748C43.5764 8.27283 43.5714 8.12878 43.5594 7.98584C43.5494 7.84277 43.5314 7.69983 43.5074 7.55884C43.4604 7.27673 43.3884 7.00281 43.2894 6.73779C43.2644 6.67175 43.2384 6.60583 43.2104 6.54077C43.1814 6.47473 43.1524 6.40979 43.1214 6.3468C43.0584 6.21875 42.9904 6.09583 42.9154 5.97681C42.7664 5.73877 42.5934 5.5188 42.3934 5.31482C42.1954 5.11182 41.9774 4.93481 41.7434 4.78174C41.6264 4.70581 41.5054 4.63477 41.3794 4.5708C41.3164 4.53882 41.2534 4.50781 41.1874 4.47876C41.1234 4.44873 41.0564 4.42175 40.9904 4.39575C40.7234 4.29175 40.4504 4.2168 40.1714 4.16577C39.8924 4.11475 39.6074 4.08875 39.3164 4.08582C38.3376 4.07825 37.3566 4.07019 36.3735 4.06421C35.3896 4.05725 34.4056 4.05225 33.4205 4.04724C31.4496 4.03918 29.4756 4.03528 27.4985 4.03528C27.0035 4.03528 26.5096 4.03528 26.0146 4.03528C25.5206 4.03625 25.0256 4.03723 24.5306 4.03821C23.5416 4.04028 22.5536 4.04321 21.5685 4.04724C19.5966 4.05627 17.6326 4.06921 15.6755 4.08618C15.5298 4.08728 15.3859 4.09521 15.2408 4.10828C15.0979 4.12219 14.9539 4.14124 14.8129 4.16724C14.5298 4.21924 14.2559 4.29626 13.9908 4.40027C13.9249 4.42627 13.8599 4.45325 13.7949 4.48328C13.7299 4.51221 13.6649 4.54419 13.6019 4.57629C13.4749 4.64221 13.3539 4.71326 13.2359 4.79126C13.0009 4.94519 12.7839 5.12427 12.5859 5.32825C12.5369 5.3783 12.4889 5.43127 12.4429 5.48425C12.3969 5.53723 12.3519 5.59119 12.3089 5.64722C12.2229 5.7572 12.1429 5.87219 12.0688 5.99023C11.9949 6.10925 11.9279 6.2323 11.8649 6.35828C11.8349 6.42126 11.8058 6.48523 11.7779 6.55127C11.7499 6.61621 11.7239 6.68323 11.6989 6.75024C11.6009 7.01624 11.5298 7.28918 11.4839 7.56726C11.4379 7.84521 11.4149 8.12927 11.4169 8.41821C11.4452 13.2708 11.4712 18.1228 11.4932 22.9758C11.5162 27.8278 11.5352 32.6808 11.5532 37.5328C11.5539 37.8196 11.5779 38.1035 11.6279 38.3876C11.6409 38.4585 11.6549 38.5295 11.6699 38.5995C11.6859 38.6696 11.7019 38.7395 11.7209 38.8085C11.7579 38.9475 11.8009 39.0835 11.8499 39.2185C11.8989 39.3535 11.9529 39.4866 12.0149 39.6166C12.0459 39.6815 12.0769 39.7466 12.1119 39.8105C12.1459 39.8745 12.1809 39.9385 12.2179 40.0016C12.3649 40.2516 12.5329 40.4845 12.7239 40.7015C12.8189 40.8096 12.9199 40.9136 13.0269 41.0135C13.0789 41.0635 13.1339 41.1116 13.1899 41.1586C13.2449 41.2056 13.3009 41.2505 13.3589 41.2946C13.5879 41.4695 13.8319 41.6205 14.0919 41.7466C14.1569 41.7786 14.2229 41.8085 14.2899 41.8365C14.3569 41.8655 14.4239 41.8915 14.4919 41.9165C14.6279 41.9666 14.7649 42.0095 14.9039 42.0455C15.1799 42.1176 15.4629 42.1615 15.7509 42.1796C16.7241 42.24 17.6991 42.293 18.6771 42.338C19.6531 42.384 20.6321 42.421 21.6111 42.451C23.5681 42.512 25.5291 42.542 27.4941 42.542C27.985 42.542 28.4771 42.54 28.9681 42.536C29.459 42.533 29.951 42.527 30.4421 42.519C31.425 42.504 32.4061 42.4819 33.386 42.451C35.3441 42.391 37.2961 42.301 39.2414 42.1799C39.3864 42.171 39.5294 42.155 39.6724 42.1329C39.7433 42.121 39.8144 42.108 39.8864 42.093C39.9564 42.078 40.0273 42.062 40.0964 42.043C40.3763 41.9709 40.6454 41.871 40.9044 41.744C40.9703 41.713 41.0334 41.6799 41.0964 41.645C41.1603 41.61 41.2234 41.573 41.2853 41.5339C41.4094 41.458 41.5284 41.375 41.6423 41.287C41.8724 41.1119 42.0823 40.915 42.2734 40.697C42.3214 40.642 42.3674 40.5859 42.4134 40.5291C42.4584 40.472 42.5024 40.4139 42.5444 40.355C42.6293 40.238 42.7073 40.1169 42.7794 39.993C42.9254 39.745 43.0464 39.486 43.1443 39.214C43.1694 39.146 43.1924 39.077 43.2144 39.0079C43.2354 38.939 43.2554 38.87 43.2734 38.801C43.3104 38.662 43.3414 38.5229 43.3654 38.3829C43.4144 38.1021 43.4384 37.819 43.4396 37.5325Z" stroke="#FF00FF" stroke-width="0.283465" stroke-miterlimit="10" stroke-linecap="round" stroke-linejoin="round"/>
<path fill-rule="evenodd" clip-rule="evenodd" d="M28.4972 13.8944C28.8092 13.8944 29.0622 14.1474 29.0622 14.4594V15.8794C29.0622 16.1915 28.8092 16.4444 28.4972 16.4444C28.1851 16.4444 27.9322 16.1915 27.9322 15.8794V14.4594C27.9322 14.1474 28.1851 13.8944 28.4972 13.8944ZM28.4972 18.1589C28.8092 18.1589 29.0622 18.4119 29.0622 18.7239V20.1439C29.0622 20.456 28.8092 20.7089 28.4972 20.7089C28.1851 20.7089 27.9322 20.456 27.9322 20.1439V18.7239C27.9322 18.4119 28.1851 18.1589 28.4972 18.1589ZM29.0622 22.9885C29.0622 22.6764 28.8092 22.4235 28.4972 22.4235C28.1851 22.4235 27.9322 22.6764 27.9322 22.9885V24.4085C27.9322 24.7205 28.1851 24.9735 28.4972 24.9735C28.8092 24.9735 29.0622 24.7205 29.0622 24.4085V22.9885ZM28.4972 26.688C28.8092 26.688 29.0622 26.9409 29.0622 27.253V28.673C29.0622 28.985 28.8092 29.238 28.4972 29.238C28.1851 29.238 27.9322 28.985 27.9322 28.673V27.253C27.9322 26.9409 28.1851 26.688 28.4972 26.688ZM29.0622 31.5175C29.0622 31.2055 28.8092 30.9525 28.4972 30.9525C28.1851 30.9525 27.9322 31.2055 27.9322 31.5175V32.9375C27.9322 33.2496 28.1851 33.5025 28.4972 33.5025C28.8092 33.5025 29.0622 33.2496 29.0622 32.9375V31.5175ZM40.2409 17.0587C40.633 17.0587 40.9509 17.3766 40.9509 17.7687V19.8676L40.9509 19.8768L40.9509 19.8861V22.36L40.9509 22.3684L40.9509 22.3769L40.9509 24.7273C40.9509 25.1194 40.633 25.4373 40.2409 25.4373C39.8488 25.4373 39.5309 25.1194 39.5309 24.7273V23.2184C39.5309 23.1411 39.4682 23.0784 39.3909 23.0784H38.1859C37.7938 23.0784 37.476 22.7606 37.476 22.3684C37.476 21.9763 37.7938 21.6584 38.1859 21.6584H39.3909C39.4682 21.6584 39.5309 21.5958 39.5309 21.5184V20.7268C39.5309 20.6495 39.4682 20.5868 39.3909 20.5868H38.186C37.7938 20.5868 37.476 20.269 37.476 19.8768C37.476 19.4847 37.7938 19.1668 38.186 19.1668H39.3909C39.4682 19.1668 39.5309 19.1042 39.5309 19.0268V17.7687C39.5309 17.3766 39.8488 17.0587 40.2409 17.0587ZM38.7131 27.2067C39.191 27.4524 39.409 27.7742 39.409 28.2499C39.409 28.727 39.1907 29.0487 38.7133 29.2939C38.191 29.5622 37.3993 29.7039 36.4273 29.7039C35.4553 29.7039 34.6637 29.5622 34.1413 29.2939C33.6639 29.0487 33.4457 28.727 33.4457 28.2499C33.4457 27.7742 33.6637 27.4524 34.1415 27.2067C34.664 26.9382 35.4557 26.796 36.4273 26.796C37.399 26.796 38.1907 26.9382 38.7131 27.2067ZM39.3623 25.9438C38.5486 25.5255 37.4945 25.376 36.4273 25.376C35.3601 25.376 34.306 25.5255 33.4923 25.9438C32.6341 26.385 32.0257 27.1451 32.0257 28.2499C32.0257 29.3556 32.6338 30.116 33.4925 30.557C34.3063 30.975 35.3605 31.1239 36.4273 31.1239C37.4942 31.1239 38.5483 30.975 39.3621 30.557C40.2208 30.116 40.829 29.3556 40.829 28.2499C40.829 27.1451 40.2206 26.385 39.3623 25.9438ZM35.1807 21.1927C35.1807 20.3716 34.9419 19.9252 34.6654 19.6745C34.3759 19.4121 33.9317 19.2613 33.3354 19.2613C32.739 19.2613 32.2948 19.4121 32.0053 19.6745C31.7288 19.9252 31.49 20.3716 31.49 21.1927C31.49 22.0155 31.729 22.4617 32.0051 22.7118C32.2943 22.9737 32.7384 23.1242 33.3354 23.1242C33.9324 23.1242 34.3764 22.9737 34.6656 22.7118C34.9418 22.4617 35.1807 22.0155 35.1807 21.1927ZM33.3354 17.8413C34.1502 17.8413 34.9837 18.0465 35.6191 18.6224C36.2675 19.2102 36.6007 20.0845 36.6007 21.1927C36.6007 22.302 36.2676 23.1766 35.6189 23.7642C34.9833 24.34 34.1496 24.5442 33.3354 24.5442C32.5211 24.5442 31.6875 24.34 31.0518 23.7642C30.4031 23.1766 30.07 22.302 30.07 21.1927C30.07 20.0845 30.4032 19.2102 31.0516 18.6224C31.687 18.0465 32.5205 17.8413 33.3354 17.8413ZM18.9213 17.7687C18.9213 17.3766 18.6034 17.0587 18.2113 17.0587C17.8192 17.0587 17.5013 17.3766 17.5013 17.7687V18.5181C17.5013 18.5954 17.4386 18.6581 17.3613 18.6581H14.7525C14.3604 18.6581 14.0425 18.9759 14.0425 19.3681C14.0425 19.7602 14.3604 20.0781 14.7525 20.0781H18.2101L18.2113 20.0781L18.2125 20.0781H21.6704C22.0626 20.0781 22.3804 19.7602 22.3804 19.3681C22.3804 18.9759 22.0626 18.6581 21.6704 18.6581H19.0613C18.984 18.6581 18.9213 18.5954 18.9213 18.5181V17.7687ZM23.9451 17.0916C24.3372 17.0916 24.6551 17.4095 24.6551 17.8016V20.9612C24.6551 21.0385 24.7177 21.1012 24.7951 21.1012H26.2099C26.602 21.1012 26.9199 21.4191 26.9199 21.8112C26.9199 22.2033 26.602 22.5212 26.2099 22.5212H24.7951C24.7177 22.5212 24.6551 22.5839 24.6551 22.6612V26.8579C24.6551 27.2501 24.3372 27.5679 23.9451 27.5679C23.5529 27.5679 23.2351 27.2501 23.2351 26.8579V21.8218L23.235 21.8112L23.2351 21.8006V17.8016C23.2351 17.4095 23.5529 17.0916 23.9451 17.0916ZM16.7389 22.5666C16.4739 22.7298 16.3121 22.9612 16.3121 23.3831C16.3121 23.8036 16.4737 24.0353 16.7391 24.199C17.0518 24.3919 17.5527 24.5082 18.2116 24.5082C18.8705 24.5082 19.3713 24.3919 19.6841 24.199C19.9495 24.0353 20.1111 23.8036 20.1111 23.3831C20.1111 22.9612 19.9493 22.7298 19.6843 22.5666C19.3717 22.3739 18.8709 22.2579 18.2116 22.2579C17.5523 22.2579 17.0515 22.3739 16.7389 22.5666ZM15.9939 21.3577C16.6258 20.9683 17.4297 20.8379 18.2116 20.8379C18.9934 20.8379 19.7974 20.9683 20.4293 21.3577C21.1087 21.7764 21.5311 22.4625 21.5311 23.3831C21.5311 24.3029 21.1085 24.9888 20.4295 25.4076C19.7978 25.7972 18.9939 25.9282 18.2116 25.9282C17.4293 25.9282 16.6254 25.7972 15.9937 25.4076C15.3147 24.9888 14.8921 24.3029 14.8921 23.3831C14.8921 22.4625 15.3144 21.7764 15.9939 21.3577ZM17.6461 29.2307C17.6461 29.3081 17.7088 29.3707 17.7861 29.3707L24.3347 29.3707C24.7268 29.3707 25.0447 29.6886 25.0447 30.0807C25.0447 30.4729 24.7268 30.7907 24.3347 30.7907L16.9361 30.7907C16.7478 30.7907 16.5672 30.7159 16.434 30.5828C16.3009 30.4496 16.2261 30.2691 16.2261 30.0807V27.3898C16.2261 26.9977 16.544 26.6798 16.9361 26.6798C17.3282 26.6798 17.6461 26.9977 17.6461 27.3898V29.2307Z" fill="black"/>
</svg>
