<svg width="81" height="55" viewBox="0 0 81 55" fill="none" xmlns="http://www.w3.org/2000/svg">
<rect x="1.8501" y="2.7984" width="77.3" height="50.3" rx="3" stroke="#8B1EFF" stroke-width="0.28"/>
<path d="M71.0066 37.9511C71.0846 28.0291 71.1916 18.1071 71.3296 8.18507C71.3196 7.82808 71.2786 7.47108 71.2033 7.12044C71.1303 6.77144 71.0243 6.43044 70.8845 6.10225C70.7465 5.77724 70.5755 5.46529 70.3758 5.17354C70.1758 4.88356 69.9478 4.61354 69.6946 4.36922C69.4416 4.12624 69.1646 3.90919 68.8691 3.72255C68.5731 3.53554 68.2581 3.37758 67.9323 3.25185C67.6063 3.12587 67.2673 3.02992 66.9235 2.96584C66.5775 2.90187 66.2275 2.86781 65.8743 2.86427C48.9603 2.77333 32.0453 2.77333 15.1315 2.86391C14.7935 2.87001 14.4565 2.90297 14.1239 2.96327C13.7919 3.02223 13.4639 3.10817 13.1493 3.22279C12.9003 3.31581 12.6573 3.42677 12.4243 3.55336C12.1923 3.68141 11.9683 3.82643 11.7566 3.98708C11.5456 4.149 11.3466 4.32698 11.1627 4.51955C10.9777 4.71358 10.8097 4.92256 10.6584 5.14241C10.5064 5.36336 10.3714 5.59639 10.2536 5.83687C10.1356 6.07991 10.0356 6.32991 9.95221 6.58711C9.78619 7.1031 9.69119 7.6451 9.67749 8.18465C9.81149 18.1066 9.91852 28.0286 9.99991 37.9497C10.0249 38.6117 10.1749 39.2757 10.4398 39.8893C10.7088 40.5143 11.0948 41.0873 11.5707 41.5715C12.0497 42.0595 12.6177 42.4586 13.2406 42.7444C13.8576 43.0294 14.5286 43.2024 15.2024 43.2536C23.6314 43.5966 32.0664 43.7675 40.5032 43.7674C48.9392 43.7674 57.3742 43.5964 65.8041 43.2531C66.4781 43.2021 67.1481 43.0291 67.766 42.7453C68.388 42.4583 68.957 42.0593 69.4359 41.5717C69.9109 41.0867 70.2969 40.5147 70.5673 39.8892C70.8303 39.2762 70.9823 38.6122 71.0063 37.9492" stroke="#8B1EFF" stroke-width="0.283" stroke-miterlimit="10"/>
<path d="M11.2583 39.6616V7.38861C11.2583 6.21417 12.2093 5.26215 13.3843 5.26215H16.9273H64.1312H67.6743C68.8483 5.26215 69.8003 6.21417 69.8003 7.38812V39.6611C69.8003 40.8356 68.8483 41.7875 67.6743 41.7875L13.3843 41.7876C12.2093 41.7876 11.2583 40.8356 11.2583 39.6616Z" stroke="#00FFFF" stroke-width="0.28" stroke-miterlimit="10"/>
<path d="M65.6807 42.0811C48.9367 42.7662 32.0697 42.7662 15.3267 42.0811C15.0306 42.0684 14.7386 42.0314 14.4496 41.9664C14.3046 41.9345 14.1626 41.8955 14.0226 41.8504C13.8836 41.8045 13.7456 41.7534 13.6106 41.6944C13.4756 41.6364 13.3446 41.5714 13.2156 41.5004C13.1506 41.4644 13.0866 41.4264 13.0226 41.3875C12.9606 41.3485 12.8986 41.3084 12.8386 41.2664C12.5966 41.0985 12.3726 40.9094 12.1696 40.6975C12.1186 40.6444 12.0686 40.5904 12.0196 40.5344C11.9716 40.4794 11.9246 40.4215 11.8786 40.3634C11.7876 40.2484 11.7026 40.1284 11.6246 40.0054C11.4686 39.7594 11.3376 39.5004 11.2306 39.2284C11.2046 39.1594 11.1796 39.0904 11.1566 39.0214C11.1336 38.9514 11.1116 38.8814 11.0916 38.8114C11.0526 38.6715 11.0186 38.5304 10.9926 38.3884C10.9396 38.1044 10.9136 37.8175 10.9126 37.5254C10.8965 32.7388 10.8785 27.9509 10.8585 23.1639C10.8385 18.3768 10.8155 13.5899 10.7905 8.80183C10.7817 8.64626 10.7757 8.49025 10.7767 8.33528C10.7777 8.17928 10.7867 8.02528 10.8037 7.87129C10.8107 7.79427 10.8217 7.71724 10.8337 7.64027C10.8457 7.56325 10.8597 7.48726 10.8757 7.41029C10.9077 7.25929 10.9477 7.11024 10.9957 6.96327C11.0427 6.81728 11.0977 6.67427 11.1627 6.53328C11.1937 6.46327 11.2277 6.39424 11.2637 6.32527C11.3007 6.25728 11.3387 6.18929 11.3787 6.12227C11.5377 5.85725 11.7247 5.61525 11.9397 5.39528C11.9937 5.34029 12.0497 5.28627 12.1067 5.23524C12.1357 5.20827 12.1647 5.18324 12.1937 5.15724C12.2237 5.13228 12.2537 5.10725 12.2837 5.08229C12.4047 4.98524 12.5307 4.89424 12.6607 4.81129C12.9207 4.64528 13.1987 4.50826 13.4927 4.39729C13.7867 4.28725 14.0877 4.20827 14.3927 4.15529C14.6987 4.10225 15.0107 4.07527 15.3257 4.07423C32.0702 3.98225 48.9372 3.98225 65.6802 4.07423C65.9963 4.07533 66.3083 4.10231 66.6133 4.15529C66.9193 4.20833 67.2203 4.28731 67.5143 4.39729C67.8083 4.50832 68.0853 4.64534 68.3463 4.81129C68.4763 4.8943 68.6013 4.98433 68.7223 5.08229C68.7523 5.10732 68.7823 5.13234 68.8123 5.1573C68.8413 5.18233 68.8703 5.20833 68.9003 5.23433C68.9563 5.28633 69.0123 5.34029 69.0663 5.39534C69.2803 5.61433 69.4683 5.85732 69.6283 6.12233C69.6683 6.18831 69.7063 6.2563 69.7423 6.32533C69.7793 6.39333 69.8123 6.46333 69.8443 6.53334C69.9073 6.67329 69.9633 6.81734 70.0113 6.96333C70.0593 7.10933 70.0993 7.25832 70.1303 7.41029C70.1473 7.48634 70.1603 7.56331 70.1733 7.6393C70.1853 7.71632 70.1953 7.79329 70.2033 7.87032C70.2203 8.02431 70.2283 8.17934 70.2303 8.3343C70.2313 8.48933 70.2253 8.64534 70.2163 8.80128C70.1912 13.5885 70.1682 18.3764 70.1482 23.1634C70.1272 27.9505 70.1102 32.7384 70.0942 37.5252C70.0932 37.8172 70.0662 38.1071 70.0132 38.3942C69.9862 38.5391 69.9522 38.6812 69.9122 38.8201C69.8722 38.9602 69.8262 39.0982 69.7732 39.2332C69.7202 39.3682 69.6602 39.5012 69.5942 39.6322C69.5612 39.6981 69.5262 39.7631 69.4902 39.8272C69.4522 39.8912 69.4142 39.9542 69.3752 40.0152C69.2172 40.2622 69.0362 40.4912 68.8322 40.7031C68.7822 40.7551 68.7292 40.8071 68.6752 40.8571C68.6212 40.9082 68.5662 40.9572 68.5092 41.0051C68.3962 41.1012 68.2802 41.1901 68.1592 41.2722C67.9172 41.4382 67.6612 41.5802 67.3902 41.6972C67.3232 41.7262 67.2532 41.7542 67.1842 41.7802C67.1152 41.8062 67.0452 41.8302 66.9752 41.8522C66.8352 41.8981 66.6942 41.9362 66.5512 41.9682C66.2662 42.0311 65.9752 42.0692 65.6807 42.0811Z" stroke="#FF00FF" stroke-width="0.283465" stroke-miterlimit="10" stroke-linecap="round" stroke-linejoin="round"/>
<path d="M66.4147 45.8675V50.9584H65.7982V46.5138H65.7684L64.5255 47.3391V46.7127L65.7982 45.8675H66.4147ZM68.0155 50.9982C67.8929 50.9982 67.7876 50.9543 67.6998 50.8665C67.612 50.7786 67.5681 50.6734 67.5681 50.5508C67.5681 50.4281 67.612 50.3229 67.6998 50.2351C67.7876 50.1472 67.8929 50.1033 68.0155 50.1033C68.1381 50.1033 68.2434 50.1472 68.3312 50.2351C68.419 50.3229 68.463 50.4281 68.463 50.5508C68.463 50.632 68.4422 50.7065 68.4008 50.7745C68.361 50.8424 68.3072 50.8971 68.2392 50.9385C68.1729 50.9783 68.0984 50.9982 68.0155 50.9982ZM70.9941 51.028C70.7025 51.028 70.4398 50.97 70.2061 50.854C69.9725 50.738 69.7852 50.5789 69.6443 50.3768C69.5035 50.1746 69.4264 49.9442 69.4132 49.6857H70.0097C70.0329 49.9161 70.1373 50.1066 70.323 50.2574C70.5102 50.4066 70.7339 50.4812 70.9941 50.4812C71.2029 50.4812 71.3885 50.4323 71.5509 50.3345C71.715 50.2367 71.8434 50.1025 71.9362 49.9318C72.0307 49.7595 72.0779 49.5647 72.0779 49.3476C72.0779 49.1256 72.029 48.9275 71.9313 48.7535C71.8351 48.5779 71.7026 48.4395 71.5335 48.3384C71.3645 48.2373 71.1714 48.1859 70.9543 48.1843C70.7986 48.1826 70.6386 48.2067 70.4746 48.2564C70.3105 48.3044 70.1755 48.3666 70.0694 48.4428L69.4927 48.3732L69.8009 45.8675H72.4458V46.4144H70.318L70.139 47.9158H70.1688C70.2732 47.833 70.4042 47.7642 70.5616 47.7095C70.719 47.6548 70.8831 47.6275 71.0538 47.6275C71.3653 47.6275 71.6429 47.702 71.8865 47.8512C72.1318 47.9987 72.324 48.2009 72.4632 48.4577C72.6041 48.7146 72.6745 49.0079 72.6745 49.3377C72.6745 49.6625 72.6016 49.9525 72.4558 50.2077C72.3116 50.4613 72.1127 50.6618 71.8592 50.8093C71.6056 50.9551 71.3173 51.028 70.9941 51.028ZM75.3225 51.028C74.948 51.028 74.629 50.9261 74.3655 50.7223C74.102 50.5168 73.9006 50.2193 73.7614 49.8299C73.6222 49.4388 73.5526 48.9665 73.5526 48.413C73.5526 47.8628 73.6222 47.393 73.7614 47.0035C73.9023 46.6124 74.1045 46.3141 74.368 46.1086C74.6331 45.9015 74.9513 45.7979 75.3225 45.7979C75.6937 45.7979 76.0111 45.9015 76.2746 46.1086C76.5397 46.3141 76.7419 46.6124 76.8811 47.0035C77.022 47.393 77.0924 47.8628 77.0924 48.413C77.0924 48.9665 77.0228 49.4388 76.8836 49.8299C76.7444 50.2193 76.543 50.5168 76.2795 50.7223C76.016 50.9261 75.697 51.028 75.3225 51.028ZM75.3225 50.4812C75.6937 50.4812 75.9821 50.3022 76.1876 49.9442C76.3931 49.5863 76.4958 49.0759 76.4958 48.413C76.4958 47.9722 76.4486 47.5968 76.3541 47.2869C76.2613 46.977 76.1271 46.7409 75.9514 46.5785C75.7774 46.4161 75.5678 46.3349 75.3225 46.3349C74.9546 46.3349 74.6671 46.5163 74.4599 46.8792C74.2528 47.2405 74.1492 47.7518 74.1492 48.413C74.1492 48.8538 74.1956 49.2283 74.2884 49.5366C74.3812 49.8448 74.5146 50.0793 74.6886 50.24C74.8643 50.4008 75.0756 50.4812 75.3225 50.4812Z" fill="#0000FF"/>
<path fill-rule="evenodd" clip-rule="evenodd" d="M34.3601 13.8943C34.6721 13.8943 34.9251 14.1473 34.9251 14.4593V15.8793C34.9251 16.1914 34.6721 16.4443 34.3601 16.4443C34.048 16.4443 33.7951 16.1914 33.7951 15.8793V14.4593C33.7951 14.1473 34.048 13.8943 34.3601 13.8943ZM34.3601 18.1589C34.6721 18.1589 34.9251 18.4118 34.9251 18.7239V20.1439C34.9251 20.4559 34.6721 20.7089 34.3601 20.7089C34.048 20.7089 33.7951 20.4559 33.7951 20.1439V18.7239C33.7951 18.4118 34.048 18.1589 34.3601 18.1589ZM34.9251 22.9884C34.9251 22.6764 34.6721 22.4234 34.3601 22.4234C34.048 22.4234 33.7951 22.6764 33.7951 22.9884V24.4084C33.7951 24.7204 34.048 24.9734 34.3601 24.9734C34.6721 24.9734 34.9251 24.7204 34.9251 24.4084V22.9884ZM34.3601 26.6879C34.6721 26.6879 34.9251 26.9409 34.9251 27.2529V28.6729C34.9251 28.985 34.6721 29.2379 34.3601 29.2379C34.048 29.2379 33.7951 28.985 33.7951 28.6729V27.2529C33.7951 26.9409 34.048 26.6879 34.3601 26.6879ZM34.9251 31.5175C34.9251 31.2054 34.6721 30.9525 34.3601 30.9525C34.048 30.9525 33.7951 31.2054 33.7951 31.5175V32.9375C33.7951 33.2495 34.048 33.5025 34.3601 33.5025C34.6721 33.5025 34.9251 33.2495 34.9251 32.9375V31.5175ZM48.9438 17.0587C49.3359 17.0587 49.6538 17.3765 49.6538 17.7687V19.8675L49.6538 19.8768L49.6538 19.886V22.3599L49.6538 22.3684L49.6538 22.3768L49.6538 24.7272C49.6538 25.1193 49.3359 25.4372 48.9438 25.4372C48.5517 25.4372 48.2338 25.1193 48.2338 24.7272V23.2184C48.2338 23.1411 48.1711 23.0784 48.0938 23.0784H46.8889C46.4967 23.0784 46.1789 22.7605 46.1789 22.3684C46.1789 21.9763 46.4967 21.6584 46.8889 21.6584H48.0938C48.1711 21.6584 48.2338 21.5957 48.2338 21.5184V20.7268C48.2338 20.6495 48.1711 20.5868 48.0938 20.5868H46.8889C46.4967 20.5868 46.1789 20.2689 46.1789 19.8768C46.1789 19.4847 46.4967 19.1668 46.8889 19.1668H48.0938C48.1711 19.1668 48.2338 19.1041 48.2338 19.0268V17.7687C48.2338 17.3765 48.5517 17.0587 48.9438 17.0587ZM47.416 27.2067C47.8939 27.4523 48.1119 27.7742 48.1119 28.2499C48.1119 28.727 47.8936 29.0486 47.4162 29.2938C46.8939 29.5621 46.1022 29.7038 45.1302 29.7038C44.1582 29.7038 43.3666 29.5621 42.8442 29.2938C42.3668 29.0486 42.1486 28.727 42.1486 28.2499C42.1486 27.7742 42.3666 27.4523 42.8444 27.2067C43.3669 26.9381 44.1586 26.796 45.1302 26.796C46.1019 26.796 46.8936 26.9381 47.416 27.2067ZM48.0652 25.9438C47.2515 25.5255 46.1974 25.376 45.1302 25.376C44.063 25.376 43.0089 25.5255 42.1952 25.9438C41.337 26.3849 40.7286 27.145 40.7286 28.2499C40.7286 29.3556 41.3367 30.1159 42.1955 30.5569C43.0092 30.9749 44.0634 31.1238 45.1302 31.1238C46.1971 31.1238 47.2512 30.9749 48.065 30.5569C48.9237 30.1159 49.5319 29.3556 49.5319 28.2499C49.5319 27.145 48.9235 26.3849 48.0652 25.9438ZM43.8836 21.1927C43.8836 20.3715 43.6448 19.9251 43.3683 19.6744C43.0788 19.412 42.6347 19.2612 42.0383 19.2612C41.4419 19.2612 40.9977 19.412 40.7082 19.6744C40.4317 19.9251 40.1929 20.3715 40.1929 21.1927C40.1929 22.0155 40.4319 22.4616 40.708 22.7117C40.9972 22.9737 41.4413 23.1241 42.0383 23.1241C42.6353 23.1241 43.0793 22.9737 43.3685 22.7117C43.6447 22.4616 43.8836 22.0155 43.8836 21.1927ZM42.0383 17.8412C42.8532 17.8412 43.6866 18.0464 44.322 18.6224C44.9704 19.2101 45.3036 20.0844 45.3036 21.1927C45.3036 22.302 44.9705 23.1766 44.3218 23.7642C43.6862 24.3399 42.8525 24.5441 42.0383 24.5441C41.224 24.5441 40.3904 24.3399 39.7547 23.7642C39.106 23.1766 38.7729 22.302 38.7729 21.1927C38.7729 20.0844 39.1062 19.2101 39.7545 18.6224C40.3899 18.0464 41.2234 17.8412 42.0383 17.8412ZM22.8818 17.7687C22.8818 17.3765 22.5639 17.0587 22.1718 17.0587C21.7796 17.0587 21.4618 17.3765 21.4618 17.7687V18.518C21.4618 18.5953 21.3991 18.658 21.3218 18.658H18.7129C18.3208 18.658 18.0029 18.9759 18.0029 19.368C18.0029 19.7601 18.3208 20.078 18.7129 20.078H22.1706L22.1718 20.078L22.1729 20.078H25.6309C26.023 20.078 26.3409 19.7601 26.3409 19.368C26.3409 18.9759 26.023 18.658 25.6309 18.658H23.0218C22.9444 18.658 22.8818 18.5953 22.8818 18.518V17.7687ZM27.9055 17.0916C28.2976 17.0916 28.6155 17.4094 28.6155 17.8016V20.9611C28.6155 21.0385 28.6782 21.1011 28.7555 21.1011H30.1703C30.5625 21.1011 30.8803 21.419 30.8803 21.8111C30.8803 22.2033 30.5625 22.5211 30.1703 22.5211H28.7555C28.6782 22.5211 28.6155 22.5838 28.6155 22.6611V26.8579C28.6155 27.25 28.2976 27.5679 27.9055 27.5679C27.5134 27.5679 27.1955 27.25 27.1955 26.8579V21.8218L27.1954 21.8111L27.1955 21.8005V17.8016C27.1955 17.4094 27.5134 17.0916 27.9055 17.0916ZM20.6993 22.5665C20.4343 22.7298 20.2725 22.9612 20.2725 23.383C20.2725 23.8036 20.4341 24.0352 20.6995 24.1989C21.0123 24.3918 21.5131 24.5082 22.172 24.5082C22.8309 24.5082 23.3318 24.3918 23.6445 24.1989C23.91 24.0352 24.0715 23.8036 24.0715 23.383C24.0715 22.9612 23.9097 22.7298 23.6447 22.5665C23.3322 22.3739 22.8314 22.2578 22.172 22.2578C21.5127 22.2578 21.0119 22.3739 20.6993 22.5665ZM19.9544 21.3576C20.5862 20.9682 21.3902 20.8378 22.172 20.8378C22.9539 20.8378 23.7578 20.9682 24.3897 21.3576C25.0692 21.7763 25.4915 22.4625 25.4915 23.383C25.4915 24.3029 25.0689 24.9888 24.3899 25.4076C23.7582 25.7972 22.9543 25.9282 22.172 25.9282C21.3897 25.9282 20.5859 25.7972 19.9541 25.4076C19.2751 24.9888 18.8525 24.3029 18.8525 23.383C18.8525 22.4625 19.2749 21.7763 19.9544 21.3576ZM21.6065 29.2307C21.6065 29.308 21.6692 29.3707 21.7465 29.3707L28.2951 29.3707C28.6872 29.3707 29.0051 29.6886 29.0051 30.0807C29.0051 30.4728 28.6872 30.7907 28.2951 30.7907L20.8965 30.7907C20.7082 30.7907 20.5276 30.7159 20.3945 30.5827C20.2613 30.4496 20.1865 30.269 20.1865 30.0807V27.3897C20.1865 26.9976 20.5044 26.6797 20.8965 26.6797C21.2887 26.6797 21.6065 26.9976 21.6065 27.3897V29.2307Z" fill="black"/>
</svg>
