<svg width="54" height="55" viewBox="0 0 54 55" fill="none" xmlns="http://www.w3.org/2000/svg">
<rect x="1.8501" y="2.79846" width="50.3" height="50.3" rx="3" stroke="#8B1EFF" stroke-width="0.28"/>
<path d="M9.91309 37.9961C9.83508 28.0092 9.73608 18.0211 9.61914 8.03309L9.6192 8.03065C9.62323 7.86463 9.63623 7.69861 9.65631 7.53248C9.67633 7.36744 9.70233 7.2035 9.73553 7.04004C9.76752 6.87806 9.80652 6.71705 9.85266 6.55823C9.89966 6.40027 9.95166 6.24427 10.0115 6.09009C10.1985 5.61609 10.4535 5.16517 10.77 4.76282C11.083 4.36585 11.456 4.01685 11.8725 3.73243C12.2875 3.45045 12.7465 3.23243 13.2258 3.08545C13.7078 2.93836 14.2118 2.86243 14.7141 2.85511C18.8081 2.8202 22.9021 2.80311 26.9963 2.80347C31.0893 2.80347 35.1833 2.82044 39.2776 2.85572C39.4396 2.85865 39.6016 2.86963 39.7635 2.88624C40.0035 2.91224 40.2435 2.95325 40.4799 3.01002C40.7139 3.06702 40.9449 3.13892 41.1697 3.22803C41.4037 3.32105 41.6287 3.43201 41.8449 3.55921C42.062 3.68714 42.2689 3.83118 42.4627 3.99012C42.6577 4.15015 42.8417 4.3252 43.0105 4.51172C43.1795 4.70069 43.3355 4.90272 43.476 5.11426C43.757 5.54334 43.975 6.01331 44.125 6.50501C44.276 7.00294 44.358 7.52295 44.373 8.04114C44.252 18.0181 44.154 27.9951 44.08 37.9736C44.074 38.1336 44.0601 38.2936 44.039 38.4522C44.018 38.6132 43.991 38.7721 43.9569 38.9298C43.9239 39.0888 43.8839 39.2468 43.8358 39.4022C43.7888 39.5582 43.7349 39.7122 43.675 39.8641C43.484 40.3392 43.228 40.7892 42.9172 41.198C42.6032 41.609 42.2352 41.9771 41.8244 42.288C41.4154 42.598 40.9624 42.8521 40.4838 43.0391C40.0098 43.224 39.5098 43.344 39.0063 43.392C31.0073 43.902 22.9843 43.902 14.9849 43.3921C14.6529 43.3601 14.3229 43.2962 14.0024 43.202C13.6794 43.108 13.3654 42.983 13.0632 42.8305C12.4602 42.5234 11.9092 42.1054 11.4476 41.6062C10.9866 41.1091 10.6126 40.5302 10.349 39.9081C10.219 39.6001 10.115 39.281 10.0411 38.9541C9.96912 38.6321 9.92407 38.3031 9.91113 37.973" stroke="#8B1EFF" stroke-width="0.283" stroke-miterlimit="10"/>
<rect x="12.6855" y="6.47681" width="28.63" height="34.31" rx="1.43" stroke="#00FFFF" stroke-width="0.28"/>
<path d="M42.9396 37.5326C42.9576 32.6807 42.9776 27.8276 43.0006 22.9757C43.0216 18.1227 43.0466 13.2706 43.0756 8.4176C43.0764 8.27295 43.0714 8.12891 43.0594 7.98596C43.0494 7.8429 43.0314 7.69995 43.0074 7.55896C42.9604 7.27686 42.8884 7.00293 42.7894 6.73792C42.7644 6.67188 42.7384 6.60596 42.7104 6.54089C42.6814 6.47485 42.6524 6.40991 42.6214 6.34692C42.5584 6.21887 42.4904 6.09595 42.4154 5.97693C42.2664 5.73889 42.0934 5.51892 41.8934 5.31494C41.6954 5.11194 41.4774 4.93494 41.2434 4.78186C41.1264 4.70593 41.0054 4.63489 40.8794 4.57092C40.8164 4.53894 40.7534 4.50793 40.6874 4.47888C40.6234 4.44885 40.5564 4.42188 40.4904 4.39587C40.2234 4.29187 39.9504 4.21692 39.6714 4.16589C39.3924 4.11487 39.1074 4.08887 38.8164 4.08594C37.8376 4.07837 36.8566 4.07031 35.8735 4.06433C34.8896 4.05737 33.9056 4.05237 32.9205 4.04736C30.9496 4.03931 28.9756 4.0354 26.9985 4.0354C26.5035 4.0354 26.0096 4.0354 25.5146 4.0354C25.0206 4.03638 24.5256 4.03735 24.0306 4.03833C23.0416 4.04041 22.0536 4.04333 21.0685 4.04736C19.0966 4.0564 17.1326 4.06934 15.1755 4.0863C15.0298 4.0874 14.8859 4.09534 14.7408 4.1084C14.5979 4.12231 14.4539 4.14136 14.3129 4.16736C14.0298 4.21936 13.7559 4.29639 13.4908 4.40039C13.4249 4.42639 13.3599 4.45337 13.2949 4.4834C13.2299 4.51233 13.1649 4.54431 13.1019 4.57642C12.9749 4.64233 12.8539 4.71338 12.7359 4.79138C12.5009 4.94531 12.2839 5.12439 12.0859 5.32837C12.0369 5.37842 11.9889 5.4314 11.9429 5.48438C11.8969 5.53735 11.8519 5.59131 11.8089 5.64734C11.7229 5.75732 11.6429 5.87231 11.5688 5.99036C11.4949 6.10938 11.4279 6.23242 11.3649 6.3584C11.3349 6.42139 11.3058 6.48535 11.2779 6.55139C11.2499 6.61633 11.2239 6.68335 11.1989 6.75037C11.1009 7.01636 11.0298 7.28931 10.9839 7.56738C10.9379 7.84534 10.9149 8.12939 10.9169 8.41833C10.9452 13.2709 10.9712 18.1229 10.9932 22.976C11.0162 27.8279 11.0352 32.6809 11.0532 37.533C11.0539 37.8197 11.0779 38.1036 11.1279 38.3877C11.1409 38.4586 11.1549 38.5297 11.1699 38.5996C11.1859 38.6697 11.2019 38.7396 11.2209 38.8086C11.2579 38.9476 11.3009 39.0836 11.3499 39.2186C11.3989 39.3536 11.4529 39.4867 11.5149 39.6167C11.5459 39.6816 11.5769 39.7467 11.6119 39.8107C11.6459 39.8746 11.6809 39.9386 11.7179 40.0017C11.8649 40.2517 12.0329 40.4846 12.2239 40.7017C12.3189 40.8097 12.4199 40.9137 12.5269 41.0137C12.5789 41.0636 12.6339 41.1117 12.6899 41.1587C12.7449 41.2057 12.8009 41.2506 12.8589 41.2947C13.0879 41.4696 13.3319 41.6206 13.5919 41.7467C13.6569 41.7787 13.7229 41.8086 13.7899 41.8367C13.8569 41.8656 13.9239 41.8916 13.9919 41.9166C14.1279 41.9667 14.2649 42.0096 14.4039 42.0457C14.6799 42.1177 14.9629 42.1616 15.2509 42.1797C16.2241 42.2401 17.1991 42.2931 18.1771 42.3381C19.1531 42.3842 20.1321 42.4211 21.1111 42.4512C23.0681 42.5121 25.0291 42.5421 26.9941 42.5421C27.485 42.5421 27.9771 42.5402 28.4681 42.5361C28.959 42.5331 29.451 42.5271 29.9421 42.5192C30.925 42.5042 31.9061 42.4821 32.886 42.4512C34.8441 42.3911 36.7961 42.3011 38.7414 42.1801C38.8864 42.1711 39.0294 42.1552 39.1724 42.1331C39.2433 42.1211 39.3144 42.1082 39.3864 42.0931C39.4564 42.0781 39.5273 42.0621 39.5964 42.0431C39.8763 41.9711 40.1454 41.8711 40.4044 41.7441C40.4703 41.7131 40.5334 41.6801 40.5964 41.6451C40.6603 41.6101 40.7234 41.5731 40.7853 41.5341C40.9094 41.4581 41.0284 41.3751 41.1423 41.2871C41.3724 41.1121 41.5823 40.9152 41.7734 40.6971C41.8214 40.6421 41.8674 40.5861 41.9134 40.5292C41.9584 40.4722 42.0024 40.4141 42.0444 40.3551C42.1293 40.2382 42.2073 40.1171 42.2794 39.9932C42.4254 39.7451 42.5464 39.4861 42.6443 39.2141C42.6694 39.1461 42.6924 39.0771 42.7144 39.0081C42.7354 38.9391 42.7554 38.8701 42.7734 38.8011C42.8104 38.6621 42.8414 38.5231 42.8654 38.3831C42.9144 38.1022 42.9384 37.8191 42.9396 37.5326Z" stroke="#FF00FF" stroke-width="0.283465" stroke-miterlimit="10" stroke-linecap="round" stroke-linejoin="round"/>
<path d="M17.6634 19.6784C17.6634 20.4693 17.2591 20.9351 16.556 20.9351C15.853 20.9351 15.4399 20.4605 15.4399 19.6784V10.1959C15.4399 9.25557 15.853 8.76343 16.6615 8.76343C17.2327 8.76343 17.5667 9.08859 18.0588 9.81801L22.5003 16.5819C22.5775 16.6996 22.7605 16.6449 22.7605 16.5041V10.0201C22.7605 9.2292 23.1648 8.76343 23.8678 8.76343C24.5709 8.76343 24.9927 9.23799 24.9927 10.0201V19.5553C24.9927 20.4517 24.5884 20.9351 23.8327 20.9351C23.2614 20.9351 22.9275 20.6978 22.409 19.9156L17.9236 13.0731C17.8464 12.9554 17.6634 13.01 17.6634 13.1508V19.6784Z" fill="black"/>
<path fill-rule="evenodd" clip-rule="evenodd" d="M31.0299 27.5629C30.6377 27.5629 30.3199 27.8807 30.3199 28.2729C30.3199 28.665 30.6377 28.9829 31.0299 28.9829H33.8722C33.957 28.9829 34.0224 29.0576 34.0093 29.1413C33.9163 29.734 33.744 30.4035 33.523 31.0868C33.504 31.1453 33.4488 31.1842 33.3874 31.1838C32.139 31.177 31.1796 31.4981 30.5006 32.0675C29.7048 32.735 29.3972 33.658 29.3972 34.4924C29.3972 35.3463 29.7452 36.071 30.3345 36.4753C30.9335 36.8862 31.7205 36.9099 32.3557 36.4444C32.5465 36.3046 32.7164 36.0946 32.8554 35.8998C33.0055 35.6894 33.1638 35.4325 33.3237 35.1465C33.644 34.5734 33.9898 33.8482 34.3085 33.0676C34.3449 32.9783 34.3812 32.8879 34.4172 32.7965C34.4411 32.7358 34.5035 32.6993 34.5679 32.7093C35.5509 32.8629 36.3688 33.15 37.073 33.513C37.1002 33.5271 37.1138 33.5583 37.1056 33.5878Lnan nanL37.1056 33.5878C36.7486 34.874 36.059 35.956 34.7099 36.4435C34.3412 36.5767 34.1502 36.9837 34.2835 37.3525C34.4167 37.7213 34.8237 37.9122 35.1925 37.7789C36.8964 37.1633 37.811 35.8745 38.2979 34.5222C38.3305 34.4316 38.4418 34.3974 38.5172 34.4573C38.7775 34.6645 39.0219 34.8785 39.2553 35.0935C39.5437 35.3592 39.9929 35.3407 40.2586 35.0523C40.5242 34.7639 40.5058 34.3147 40.2173 34.049C39.7921 33.6573 39.3224 33.2593 38.7854 32.889C38.7409 32.8583 38.7176 32.805 38.7253 32.7515C38.8765 31.7099 38.8754 30.725 38.8747 30.0411V30.041L38.8746 29.907C38.8746 29.5149 38.5567 29.197 38.1646 29.197C37.7725 29.197 37.4546 29.5149 37.4546 29.907L37.4546 30.0076C37.4549 30.5418 37.4552 31.195 37.396 31.8857C37.3878 31.9816 37.2867 32.0393 37.1986 32.0007C36.5773 31.7284 35.8815 31.5054 35.0932 31.3587C35.0099 31.3432 34.9581 31.2587 34.9826 31.1776C35.2919 30.155 35.5054 29.1251 35.5054 28.2729C35.5054 27.8807 35.1876 27.5629 34.7954 27.5629H31.0299ZM31.4131 33.1556C31.6859 32.9268 32.1044 32.7224 32.7315 32.641C32.835 32.6275 32.9109 32.7317 32.8701 32.8277C32.606 33.4479 32.3323 34.0097 32.0841 34.4537C31.9402 34.7112 31.8098 34.9204 31.6994 35.0751C31.5826 35.2388 31.5206 35.2952 31.5165 35.2989L31.5164 35.299C31.5163 35.2991 31.5163 35.2991 31.5163 35.2991C31.3903 35.3914 31.2629 35.3902 31.1378 35.3043C31.003 35.2119 30.8172 34.968 30.8172 34.4924C30.8172 33.9975 30.9958 33.5055 31.4131 33.1556Z" fill="black"/>
</svg>
