<svg width="54" height="108" viewBox="0 0 54 108" fill="none" xmlns="http://www.w3.org/2000/svg">
<rect x="1.8501" y="1.84998" width="50.3" height="104.3" rx="3" stroke="#8B1EFF" stroke-width="0.28"/>
<path d="M39.0059 97.5844C39.6829 97.5213 40.3549 97.3214 40.9629 97.0112C41.2709 96.8542 41.5629 96.6692 41.8347 96.4577C42.1097 96.2467 42.3636 96.0086 42.5939 95.7486C43.0529 95.2317 43.4159 94.6277 43.6688 93.9804C43.9188 93.3383 44.0598 92.6534 44.0867 91.9697C44.1826 71.1247 44.2826 50.2798 44.3881 29.4345C44.4231 22.4856 44.458 15.5376 44.4951 8.58823C44.4731 7.87424 44.3191 7.15622 44.0348 6.49521C43.7548 5.84213 43.3488 5.24521 42.8407 4.74985C42.3407 4.26193 41.7417 3.87485 41.0925 3.61447C40.4475 3.35654 39.7495 3.22348 39.0593 3.21347C31.0194 3.15158 22.9794 3.15158 14.9402 3.21396C14.2501 3.22287 13.5532 3.35593 12.9071 3.6152C12.2581 3.87412 11.6602 4.26218 11.1598 4.74936C10.6517 5.24326 10.2448 5.84128 9.96484 6.49313C9.68079 7.15414 9.52588 7.87204 9.50488 8.58603L9.50439 8.5881C9.61438 29.4342 9.71631 50.2791 9.81506 71.1253C9.849 78.0733 9.88098 85.0213 9.91284 91.9696C9.93884 92.6537 10.0859 93.3407 10.335 93.9802C10.4609 94.3043 10.6139 94.6173 10.7931 94.9137C10.9722 95.2096 11.1791 95.4917 11.4089 95.7516C11.6389 96.0116 11.8929 96.2496 12.166 96.4627C12.439 96.6738 12.731 96.8608 13.0391 97.0172C13.3451 97.1722 13.666 97.2972 13.995 97.3946C14.322 97.4906 14.6589 97.5587 14.9979 97.5847C18.9939 97.8326 22.996 97.9576 26.9999 97.9576C31.0029 97.9586 35.0059 97.8336 39.002 97.5846" stroke="#8B1EFF" stroke-width="0.283" stroke-miterlimit="10"/>
<path d="M41.4572 92.7594V10.6394V7.0968C41.4572 5.92236 40.5051 4.97034 39.3311 4.97034H14.6691C13.495 4.97034 12.543 5.92236 12.543 7.09644L12.5431 92.7594C12.5431 93.9335 13.495 94.8855 14.6691 94.8854H39.3312C40.5051 94.8854 41.4572 93.9335 41.4572 92.7594Z" stroke="#00FFFF" stroke-width="0.28" stroke-miterlimit="10"/>
<path d="M10.9342 8.06235C10.9332 7.9133 10.9402 7.76437 10.9542 7.6163C10.9611 7.54233 10.9692 7.46835 10.9802 7.39438C10.9902 7.32138 11.0031 7.24838 11.0162 7.17636C11.0711 6.8873 11.1541 6.60532 11.2662 6.33334C11.2942 6.26535 11.3242 6.19833 11.3552 6.13132C11.3862 6.0643 11.4201 5.99838 11.4552 5.9343C11.5241 5.80539 11.6002 5.68039 11.6812 5.56137C11.7632 5.44138 11.8512 5.32541 11.9461 5.2153C11.9931 5.15939 12.0422 5.10532 12.0912 5.05234C12.1422 4.99936 12.1942 4.94736 12.2481 4.89633C12.3542 4.79538 12.4662 4.70041 12.5822 4.6113C12.6982 4.52231 12.8182 4.4404 12.9413 4.36435C13.0652 4.2883 13.1922 4.21933 13.3232 4.15536C13.3882 4.12338 13.4552 4.09335 13.5222 4.0643C13.5892 4.03635 13.6582 4.00937 13.7262 3.98337C14.0022 3.88229 14.2832 3.80734 14.5692 3.75729C14.8552 3.70737 15.1462 3.68137 15.4413 3.67929C23.1054 3.6174 30.8934 3.6174 38.5575 3.67929C38.8532 3.68222 39.1462 3.70822 39.4342 3.75815C39.5062 3.77121 39.5792 3.78513 39.6502 3.80112C39.7212 3.81711 39.7942 3.8342 39.8642 3.85422C40.0062 3.89218 40.1452 3.93613 40.2812 3.98715C40.5542 4.0881 40.8163 4.2142 41.0653 4.36911C41.1283 4.4072 41.1892 4.44711 41.2502 4.48911C41.3092 4.53012 41.3683 4.57321 41.4253 4.61813C41.5412 4.70615 41.6512 4.80014 41.7552 4.90012C41.8612 5.00021 41.9613 5.10617 42.0562 5.21811C42.1032 5.27414 42.1502 5.33212 42.1942 5.39011C42.2392 5.44821 42.2812 5.50717 42.3222 5.56821C42.4862 5.80917 42.6242 6.06515 42.7352 6.33713C42.7622 6.40512 42.7893 6.47311 42.8132 6.54318C42.8372 6.61313 42.8602 6.68417 42.8812 6.75412C42.9222 6.89511 42.9572 7.03915 42.9842 7.1832C43.0393 7.47116 43.0663 7.76413 43.0653 8.0621L43.0594 10.6402L42.9264 89.2163L42.9237 91.3941C42.9237 91.6844 42.9017 91.9724 42.8586 92.2594C42.8466 92.3304 42.8347 92.4024 42.8197 92.4735C42.8066 92.5444 42.7906 92.6154 42.7746 92.6864C42.7407 92.8274 42.7016 92.9674 42.6577 93.1045C42.5677 93.3784 42.4566 93.6444 42.3197 93.9015C42.2867 93.9654 42.2507 94.0294 42.2137 94.0924C42.1767 94.1544 42.1386 94.2154 42.0997 94.2765C42.0207 94.3965 41.9356 94.5134 41.8457 94.6255C41.7557 94.7374 41.6596 94.8454 41.5587 94.9485C41.5077 95.0005 41.4557 95.0514 41.4017 95.1004C41.3497 95.1494 41.2946 95.1975 41.2386 95.2434C41.0177 95.4264 40.7787 95.5854 40.5257 95.7185C40.4616 95.7524 40.3977 95.7834 40.3316 95.8134C40.2657 95.8435 40.1987 95.8724 40.1317 95.8984C39.9976 95.9514 39.8617 95.9964 39.7247 96.0344C39.4497 96.1104 39.1677 96.1574 38.8797 96.1764C31.0049 96.6884 22.995 96.6884 15.12 96.1764C15.047 96.1722 14.9749 96.1653 14.9029 96.1572C14.8309 96.1482 14.76 96.1382 14.6889 96.1262C14.547 96.1021 14.407 96.0711 14.269 96.0332C14.1319 95.9952 13.995 95.9492 13.8609 95.8962C13.795 95.8702 13.728 95.8412 13.662 95.8112C13.597 95.7812 13.531 95.7481 13.467 95.7152C13.2109 95.5802 12.972 95.4201 12.7519 95.2362C12.641 95.1441 12.536 95.0462 12.4339 94.9422C12.3829 94.8902 12.334 94.8362 12.285 94.7812C12.2369 94.7271 12.191 94.6712 12.146 94.6152C11.9659 94.3902 11.8089 94.1491 11.676 93.8941C11.608 93.7682 11.547 93.6372 11.49 93.5022C11.462 93.4362 11.4339 93.3672 11.41 93.2992C11.385 93.2312 11.36 93.1622 11.339 93.0932C11.25 92.8182 11.1839 92.5392 11.141 92.2552C11.097 91.9721 11.076 91.6852 11.0764 91.3941C11.0573 77.5062 11.0373 63.6172 11.0134 49.7292C10.9903 35.8402 10.9643 21.9511 10.9342 8.06235Z" stroke="#FF00FF" stroke-width="0.283465" stroke-miterlimit="10" stroke-linecap="round" stroke-linejoin="round"/>
<path d="M35.943 104.01V103.563L37.6234 101.723C37.8206 101.508 37.983 101.32 38.1106 101.161C38.2382 101.001 38.3327 100.85 38.394 100.709C38.457 100.566 38.4885 100.417 38.4885 100.261C38.4885 100.082 38.4454 99.9275 38.3592 99.7966C38.2747 99.6657 38.1587 99.5646 38.0112 99.4933C37.8637 99.4221 37.698 99.3864 37.514 99.3864C37.3185 99.3864 37.1478 99.427 37.002 99.5082C36.8578 99.5878 36.7459 99.6996 36.6664 99.8438C36.5885 99.988 36.5495 100.157 36.5495 100.351H35.9629C35.9629 100.053 36.0317 99.7908 36.1692 99.5654C36.3068 99.34 36.494 99.1644 36.731 99.0384C36.9696 98.9125 37.2373 98.8495 37.5339 98.8495C37.8322 98.8495 38.0965 98.9125 38.3269 99.0384C38.5572 99.1644 38.7379 99.3342 38.8688 99.548C38.9997 99.7618 39.0652 99.9996 39.0652 100.261C39.0652 100.449 39.0312 100.632 38.9632 100.811C38.897 100.988 38.781 101.186 38.6152 101.405C38.4512 101.622 38.2233 101.887 37.9316 102.2L36.7882 103.423V103.463H39.1547V104.01H35.943ZM40.6188 104.05C40.4962 104.05 40.3909 104.006 40.3031 103.918C40.2153 103.83 40.1713 103.725 40.1713 103.602C40.1713 103.48 40.2153 103.374 40.3031 103.287C40.3909 103.199 40.4962 103.155 40.6188 103.155C40.7414 103.155 40.8467 103.199 40.9345 103.287C41.0223 103.374 41.0662 103.48 41.0662 103.602C41.0662 103.684 41.0455 103.758 41.0041 103.826C40.9643 103.894 40.9105 103.949 40.8425 103.99C40.7762 104.03 40.7016 104.05 40.6188 104.05ZM43.5918 104.08C43.2173 104.08 42.8983 103.978 42.6348 103.774C42.3713 103.568 42.1699 103.271 42.0307 102.881C41.8915 102.49 41.8219 102.018 41.8219 101.465C41.8219 100.914 41.8915 100.445 42.0307 100.055C42.1716 99.664 42.3738 99.3657 42.6373 99.1602C42.9024 98.9531 43.2206 98.8495 43.5918 98.8495C43.963 98.8495 44.2804 98.9531 44.5439 99.1602C44.809 99.3657 45.0112 99.664 45.1504 100.055C45.2913 100.445 45.3617 100.914 45.3617 101.465C45.3617 102.018 45.2921 102.49 45.1529 102.881C45.0137 103.271 44.8123 103.568 44.5488 103.774C44.2853 103.978 43.9663 104.08 43.5918 104.08ZM43.5918 103.533C43.963 103.533 44.2514 103.354 44.4569 102.996C44.6623 102.638 44.7651 102.127 44.7651 101.465C44.7651 101.024 44.7179 100.648 44.6234 100.338C44.5306 100.029 44.3964 99.7924 44.2207 99.63C44.0467 99.4676 43.8371 99.3864 43.5918 99.3864C43.2239 99.3864 42.9364 99.5679 42.7292 99.9308C42.5221 100.292 42.4185 100.803 42.4185 101.465C42.4185 101.905 42.4649 102.28 42.5577 102.588C42.6505 102.896 42.7839 103.131 42.9579 103.292C43.1336 103.452 43.3449 103.533 43.5918 103.533ZM46.6046 98.9191L48.1159 103.205H48.1756L49.687 98.9191H50.3333L48.464 104.01H47.8276L45.9583 98.9191H46.6046Z" fill="#0000FF"/>
<path d="M15.8946 52.7501C15.504 52.7501 15.2646 52.506 15.2646 52.0958V46.3584C15.2646 45.9482 15.504 45.7041 15.8946 45.7041H19.3272C19.6739 45.7041 19.9035 45.9092 19.9035 46.2363C19.9035 46.5634 19.6739 46.7685 19.3272 46.7685H16.6663C16.588 46.7685 16.5246 46.832 16.5246 46.9102V48.5311C16.5246 48.6094 16.5881 48.6728 16.6663 48.6728H19.1807C19.503 48.6728 19.7227 48.8632 19.7227 49.1709C19.7227 49.4786 19.5079 49.6738 19.1807 49.6738H16.6663C16.588 49.6738 16.5246 49.7373 16.5246 49.8155V51.5438C16.5246 51.6221 16.5881 51.6855 16.6663 51.6855H19.3272C19.6739 51.6855 19.9035 51.8906 19.9035 52.2177C19.9035 52.5448 19.6739 52.7499 19.3272 52.7499H15.8946V52.7501Z" fill="black"/>
<path d="M33.5059 49.548H31.4167C31.3261 49.548 31.2593 49.4642 31.2783 49.3756C31.4149 48.7369 31.8865 48.4093 32.4809 48.4093C33.0753 48.4093 33.5294 48.7241 33.6456 49.3824C33.6609 49.4689 33.5938 49.548 33.5059 49.548ZM32.4761 47.4668C30.9819 47.4668 30.0298 48.5312 30.0298 50.1817C30.0298 51.8322 30.9624 52.8526 32.5445 52.8526C33.3447 52.8526 33.9307 52.6748 34.4304 52.1198C34.6541 51.8714 34.5942 51.5007 34.2981 51.3422C34.0487 51.2086 33.765 51.3367 33.6257 51.4661C33.183 51.8775 32.8582 51.9151 32.5348 51.9151C31.7886 51.9151 31.2986 51.4304 31.2456 50.6069C31.2403 50.5248 31.3047 50.4551 31.387 50.4551H34.3412C34.6224 50.4551 34.8518 50.2303 34.8582 49.9492C34.8909 48.5063 33.9157 47.4668 32.4761 47.4668Z" fill="black"/>
<path d="M20.9961 52.2078V48.0857C20.9961 47.7096 21.2159 47.4703 21.5773 47.4703C21.7841 47.4703 21.9531 47.5508 22.0586 47.6918C22.0842 47.726 22.106 47.7647 22.1237 47.8012C22.1581 47.8719 22.2426 47.902 22.3133 47.8677C22.5795 47.7387 23.1988 47.4752 23.8142 47.4752C24.9571 47.4752 25.6067 48.2078 25.6067 49.4044V52.2079C25.6067 52.6182 25.3576 52.8477 25.0011 52.8477C24.6446 52.8477 24.3906 52.6181 24.3906 52.2079V49.6487C24.3906 48.9161 24.0487 48.5058 23.3552 48.5058C22.6617 48.5058 22.2123 49.0089 22.2123 49.7512V52.2079C22.2123 52.6182 21.9583 52.8477 21.6018 52.8477C21.2453 52.8477 20.9961 52.6181 20.9961 52.2078Z" fill="black"/>
<path d="M35.8438 52.2078V48.0856C35.8438 47.7046 36.0781 47.4702 36.4249 47.4702C36.6585 47.4702 36.8451 47.5828 36.9377 47.7787C36.9396 47.7827 36.946 47.7988 36.9545 47.8206C36.9886 47.9081 37.0969 47.9391 37.1718 47.8824C37.3742 47.7293 37.7566 47.4849 38.1345 47.4849C38.325 47.4849 38.4714 47.5337 38.5642 47.6168C38.6765 47.7096 38.7352 47.8561 38.7352 48.0564C38.7352 48.2567 38.6766 48.3885 38.5545 48.4862C38.4373 48.5888 38.2565 48.6425 38.0171 48.6474C37.3235 48.6523 37.0598 49.087 37.0598 49.717V52.2079C37.0598 52.6084 36.8157 52.8477 36.4494 52.8477C36.083 52.8477 35.8438 52.6083 35.8438 52.2078Z" fill="black"/>
<path d="M27.1197 51.4706V48.6543C27.1197 48.576 27.0562 48.5126 26.978 48.5126H26.7926C26.4899 48.5126 26.3042 48.3417 26.3042 48.0487C26.3042 47.7557 26.4897 47.5897 26.7926 47.5897H26.978C27.0563 47.5897 27.1197 47.5262 27.1197 47.448V46.885C27.1197 46.4943 27.3541 46.2501 27.7302 46.2501C28.1063 46.2501 28.3358 46.4942 28.3358 46.885V47.448C28.3358 47.5263 28.3993 47.5897 28.4775 47.5897H28.8974C29.2001 47.5897 29.3858 47.7605 29.3858 48.0487C29.3858 48.3369 29.2003 48.5126 28.8974 48.5126H28.4775C28.3992 48.5126 28.3358 48.5761 28.3358 48.6543V51.2069C28.3358 51.5976 28.4725 51.7685 28.8242 51.7978L28.9121 51.8076C29.2344 51.8369 29.4005 51.9736 29.4005 52.2569C29.4005 52.6133 29.088 52.8039 28.5313 52.8039H28.4825C27.5791 52.8039 27.12 52.3546 27.12 51.4707H27.1198L27.1197 51.4706Z" fill="black"/>
</svg>
