<svg width="54" height="55" viewBox="0 0 54 55" fill="none" xmlns="http://www.w3.org/2000/svg">
<rect x="1.8501" y="2.79846" width="50.3" height="50.3" rx="3" stroke="#8B1EFF" stroke-width="0.28"/>
<path d="M9.91309 37.9961C9.83508 28.0092 9.73608 18.0211 9.61914 8.03309L9.6192 8.03065C9.62323 7.86463 9.63623 7.69861 9.65631 7.53248C9.67633 7.36744 9.70233 7.2035 9.73553 7.04004C9.76752 6.87806 9.80652 6.71705 9.85266 6.55823C9.89966 6.40027 9.95166 6.24427 10.0115 6.09009C10.1985 5.61609 10.4535 5.16517 10.77 4.76282C11.083 4.36585 11.456 4.01685 11.8725 3.73243C12.2875 3.45045 12.7465 3.23243 13.2258 3.08545C13.7078 2.93836 14.2118 2.86243 14.7141 2.85511C18.8081 2.8202 22.9021 2.80311 26.9963 2.80347C31.0893 2.80347 35.1833 2.82044 39.2776 2.85572C39.4396 2.85865 39.6016 2.86963 39.7635 2.88624C40.0035 2.91224 40.2435 2.95325 40.4799 3.01002C40.7139 3.06702 40.9449 3.13892 41.1697 3.22803C41.4037 3.32105 41.6287 3.43201 41.8449 3.55921C42.062 3.68714 42.2689 3.83118 42.4627 3.99012C42.6577 4.15015 42.8417 4.3252 43.0105 4.51172C43.1795 4.70069 43.3355 4.90272 43.476 5.11426C43.757 5.54334 43.975 6.01331 44.125 6.50501C44.276 7.00294 44.358 7.52295 44.373 8.04114C44.252 18.0181 44.154 27.9951 44.08 37.9736C44.074 38.1336 44.0601 38.2936 44.039 38.4522C44.018 38.6132 43.991 38.7721 43.9569 38.9298C43.9239 39.0888 43.8839 39.2468 43.8358 39.4022C43.7888 39.5582 43.7349 39.7122 43.675 39.8641C43.484 40.3392 43.228 40.7892 42.9172 41.198C42.6032 41.609 42.2352 41.9771 41.8244 42.288C41.4154 42.598 40.9624 42.8521 40.4838 43.0391C40.0098 43.224 39.5098 43.344 39.0063 43.392C31.0073 43.902 22.9843 43.902 14.9849 43.3921C14.6529 43.3601 14.3229 43.2962 14.0024 43.202C13.6794 43.108 13.3654 42.983 13.0632 42.8305C12.4602 42.5234 11.9092 42.1054 11.4476 41.6062C10.9866 41.1091 10.6126 40.5302 10.349 39.9081C10.219 39.6001 10.115 39.281 10.0411 38.9541C9.96912 38.6321 9.92407 38.3031 9.91113 37.973" stroke="#8B1EFF" stroke-width="0.283" stroke-miterlimit="10"/>
<rect x="12.6855" y="6.47681" width="28.63" height="34.31" rx="1.43" stroke="#00FFFF" stroke-width="0.28"/>
<path d="M42.9396 37.5326C42.9576 32.6807 42.9776 27.8276 43.0006 22.9757C43.0216 18.1227 43.0466 13.2706 43.0756 8.4176C43.0764 8.27295 43.0714 8.12891 43.0594 7.98596C43.0494 7.8429 43.0314 7.69995 43.0074 7.55896C42.9604 7.27686 42.8884 7.00293 42.7894 6.73792C42.7644 6.67188 42.7384 6.60596 42.7104 6.54089C42.6814 6.47485 42.6524 6.40991 42.6214 6.34692C42.5584 6.21887 42.4904 6.09595 42.4154 5.97693C42.2664 5.73889 42.0934 5.51892 41.8934 5.31494C41.6954 5.11194 41.4774 4.93494 41.2434 4.78186C41.1264 4.70593 41.0054 4.63489 40.8794 4.57092C40.8164 4.53894 40.7534 4.50793 40.6874 4.47888C40.6234 4.44885 40.5564 4.42188 40.4904 4.39587C40.2234 4.29187 39.9504 4.21692 39.6714 4.16589C39.3924 4.11487 39.1074 4.08887 38.8164 4.08594C37.8376 4.07837 36.8566 4.07031 35.8735 4.06433C34.8896 4.05737 33.9056 4.05237 32.9205 4.04736C30.9496 4.03931 28.9756 4.0354 26.9985 4.0354C26.5035 4.0354 26.0096 4.0354 25.5146 4.0354C25.0206 4.03638 24.5256 4.03735 24.0306 4.03833C23.0416 4.04041 22.0536 4.04333 21.0685 4.04736C19.0966 4.0564 17.1326 4.06934 15.1755 4.0863C15.0298 4.0874 14.8859 4.09534 14.7408 4.1084C14.5979 4.12231 14.4539 4.14136 14.3129 4.16736C14.0298 4.21936 13.7559 4.29639 13.4908 4.40039C13.4249 4.42639 13.3599 4.45337 13.2949 4.4834C13.2299 4.51233 13.1649 4.54431 13.1019 4.57642C12.9749 4.64233 12.8539 4.71338 12.7359 4.79138C12.5009 4.94531 12.2839 5.12439 12.0859 5.32837C12.0369 5.37842 11.9889 5.4314 11.9429 5.48438C11.8969 5.53735 11.8519 5.59131 11.8089 5.64734C11.7229 5.75732 11.6429 5.87231 11.5688 5.99036C11.4949 6.10938 11.4279 6.23242 11.3649 6.3584C11.3349 6.42139 11.3058 6.48535 11.2779 6.55139C11.2499 6.61633 11.2239 6.68335 11.1989 6.75037C11.1009 7.01636 11.0298 7.28931 10.9839 7.56738C10.9379 7.84534 10.9149 8.12939 10.9169 8.41833C10.9452 13.2709 10.9712 18.1229 10.9932 22.976C11.0162 27.8279 11.0352 32.6809 11.0532 37.533C11.0539 37.8197 11.0779 38.1036 11.1279 38.3877C11.1409 38.4586 11.1549 38.5297 11.1699 38.5996C11.1859 38.6697 11.2019 38.7396 11.2209 38.8086C11.2579 38.9476 11.3009 39.0836 11.3499 39.2186C11.3989 39.3536 11.4529 39.4867 11.5149 39.6167C11.5459 39.6816 11.5769 39.7467 11.6119 39.8107C11.6459 39.8746 11.6809 39.9386 11.7179 40.0017C11.8649 40.2517 12.0329 40.4846 12.2239 40.7017C12.3189 40.8097 12.4199 40.9137 12.5269 41.0137C12.5789 41.0636 12.6339 41.1117 12.6899 41.1587C12.7449 41.2057 12.8009 41.2506 12.8589 41.2947C13.0879 41.4696 13.3319 41.6206 13.5919 41.7467C13.6569 41.7787 13.7229 41.8086 13.7899 41.8367C13.8569 41.8656 13.9239 41.8916 13.9919 41.9166C14.1279 41.9667 14.2649 42.0096 14.4039 42.0457C14.6799 42.1177 14.9629 42.1616 15.2509 42.1797C16.2241 42.2401 17.1991 42.2931 18.1771 42.3381C19.1531 42.3842 20.1321 42.4211 21.1111 42.4512C23.0681 42.5121 25.0291 42.5421 26.9941 42.5421C27.485 42.5421 27.9771 42.5402 28.4681 42.5361C28.959 42.5331 29.451 42.5271 29.9421 42.5192C30.925 42.5042 31.9061 42.4821 32.886 42.4512C34.8441 42.3911 36.7961 42.3011 38.7414 42.1801C38.8864 42.1711 39.0294 42.1552 39.1724 42.1331C39.2433 42.1211 39.3144 42.1082 39.3864 42.0931C39.4564 42.0781 39.5273 42.0621 39.5964 42.0431C39.8763 41.9711 40.1454 41.8711 40.4044 41.7441C40.4703 41.7131 40.5334 41.6801 40.5964 41.6451C40.6603 41.6101 40.7234 41.5731 40.7853 41.5341C40.9094 41.4581 41.0284 41.3751 41.1423 41.2871C41.3724 41.1121 41.5823 40.9152 41.7734 40.6971C41.8214 40.6421 41.8674 40.5861 41.9134 40.5292C41.9584 40.4722 42.0024 40.4141 42.0444 40.3551C42.1293 40.2382 42.2073 40.1171 42.2794 39.9932C42.4254 39.7451 42.5464 39.4861 42.6443 39.2141C42.6694 39.1461 42.6924 39.0771 42.7144 39.0081C42.7354 38.9391 42.7554 38.8701 42.7734 38.8011C42.8104 38.6621 42.8414 38.5231 42.8654 38.3831C42.9144 38.1022 42.9384 37.8191 42.9396 37.5326Z" stroke="#FF00FF" stroke-width="0.283465" stroke-miterlimit="10" stroke-linecap="round" stroke-linejoin="round"/>
<path d="M17.9645 15.4988C17.9645 14.767 18.256 14.3516 19.0931 13.6942C19.6946 13.2229 20.0295 12.9253 20.0295 12.3796C20.0295 11.7719 19.49 11.3688 18.8079 11.3688C18.2125 11.3688 17.8033 11.5982 17.5056 12.1067C17.3134 12.361 17.1646 12.4788 16.9041 12.4788C16.5134 12.4788 16.2964 12.1998 16.2964 11.8587C16.2964 11.4494 16.5382 11.0153 16.9103 10.6867C17.363 10.3022 18.0389 10.0728 18.9195 10.0728C20.5504 10.0728 21.6852 10.9223 21.6852 12.3052C21.6852 13.2664 21.1581 13.7935 20.3644 14.3826C19.7628 14.8415 19.5582 15.0585 19.4156 15.5794C19.2605 15.9453 19.0993 16.1933 18.6652 16.1933C18.2125 16.1933 17.9645 15.8957 17.9645 15.4988ZM17.7289 17.9482C17.7289 17.4335 18.1505 17.0739 18.6652 17.0739C19.1799 17.0739 19.6078 17.4335 19.6078 17.9482C19.6078 18.4629 19.1799 18.8226 18.6652 18.8226C18.1505 18.8226 17.7289 18.4629 17.7289 17.9482Z" fill="black"/>
<path d="M18.3489 38.1744C18.2559 38.4969 17.9831 38.6953 17.6482 38.6953C17.2451 38.6953 16.9289 38.3729 16.9413 37.9884C16.9413 37.9016 16.9599 37.7962 16.9785 37.7466L19.6574 28.2464C19.7442 27.9239 20.0171 27.7255 20.3519 27.7255C20.7612 27.7255 21.0713 28.0479 21.065 28.4324C21.0588 28.5254 21.0402 28.6246 21.0216 28.6804L18.3489 38.1744Z" fill="black"/>
<path fill-rule="evenodd" clip-rule="evenodd" d="M37.1604 28.1943C37.1768 27.8025 36.8725 27.4716 36.4808 27.4551C36.089 27.4387 35.7581 27.7429 35.7416 28.1347C35.7276 28.4672 35.6942 28.8099 35.6435 29.1576C35.6339 29.2237 35.5782 29.2731 35.5114 29.2769C34.6202 29.3268 33.8176 29.5371 33.1134 29.8585C33.0302 29.8964 32.9322 29.8486 32.9149 29.7588C32.8358 29.348 32.7817 28.9421 32.7602 28.5503C32.7388 28.1588 32.4039 27.8588 32.0124 27.8803C31.6209 27.9018 31.3209 28.2366 31.3424 28.6281C31.3794 29.3026 31.4967 29.9966 31.6626 30.677C31.6753 30.7289 31.6575 30.7836 31.6171 30.8186C31.1218 31.2477 30.7161 31.7371 30.4078 32.2488C29.9213 33.0565 29.6588 33.9511 29.7003 34.7785C29.7425 35.618 30.1074 36.4245 30.8987 36.8936C31.7491 37.3978 32.6354 37.1998 33.3569 36.7183C33.5475 36.5911 33.7329 36.4411 33.9125 36.2723C33.9708 36.2174 34.0625 36.2212 34.1272 36.2683C34.3626 36.4396 34.6895 36.4545 34.9441 36.2815C35.2685 36.0612 35.3528 35.6196 35.1325 35.2952C35.0924 35.2361 35.0472 35.1659 34.9978 35.0856C34.9696 35.0396 34.9711 34.9814 35.0005 34.9362C35.0737 34.8237 35.1452 34.7089 35.2149 34.5922C35.8423 33.5418 36.3763 32.2504 36.7268 30.9244C36.7463 30.8505 36.8213 30.805 36.8949 30.8255C37.7075 31.052 38.182 31.5095 38.4663 32.0002C38.868 32.6935 38.9332 33.5348 38.8476 34.1006C38.7395 34.8151 38.3379 35.3391 37.7987 35.7373C37.2494 36.1429 36.5862 36.3933 36.0534 36.5366C35.6747 36.6384 35.4503 37.028 35.5521 37.4066C35.654 37.7853 36.0435 38.0097 36.4222 37.9079C37.0476 37.7397 37.8969 37.4299 38.6423 36.8796C39.3977 36.3217 40.073 35.4937 40.2516 34.313C40.3738 33.5057 40.2938 32.3219 39.6949 31.2883C39.2032 30.4397 38.3877 29.7398 37.1694 29.4295C37.0985 29.4114 37.0517 29.3432 37.0617 29.2707C37.112 28.9065 37.1456 28.5463 37.1604 28.1943ZM34.0695 33.2816C34.1163 33.3866 34.2619 33.3915 34.3146 33.2893C34.6869 32.5674 35.0104 31.752 35.2554 30.9151C35.2832 30.8203 35.2054 30.7287 35.1077 30.7427C34.4765 30.8332 33.9145 31.0263 33.4255 31.2878C33.367 31.3191 33.3402 31.388 33.3608 31.451C33.4859 31.8332 33.6238 32.2084 33.7682 32.569C33.8674 32.8167 33.9686 33.0551 34.0695 33.2816ZM32.2235 32.5055C32.1872 32.4059 32.0581 32.3802 31.991 32.4623C31.8529 32.6309 31.7305 32.805 31.6242 32.9815C31.2513 33.6005 31.094 34.2182 31.1185 34.7073C31.1425 35.1842 31.3297 35.4983 31.6229 35.6721C31.857 35.8109 32.1404 35.823 32.5687 35.5371C32.7729 35.4009 32.9872 35.2085 33.2049 34.9644C33.2429 34.9219 33.25 34.8604 33.2242 34.8096C32.9722 34.3129 32.703 33.729 32.4499 33.0968C32.3732 32.9051 32.2973 32.7076 32.2235 32.5055Z" fill="black"/>
<path fill-rule="evenodd" clip-rule="evenodd" d="M30.2202 9.94065C30.3193 9.91867 30.4228 9.90694 30.5299 9.90694H31.0004C31.3925 9.90694 31.7104 9.58906 31.7104 9.19694C31.7104 8.80482 31.3925 8.48694 31.0004 8.48694H30.5299C30.3187 8.48694 30.112 8.51013 29.9126 8.55438C29.5298 8.63933 29.2883 9.01853 29.3733 9.40134C29.4582 9.78415 29.8374 10.0256 30.2202 9.94065ZM33.4295 8.48694C33.0374 8.48694 32.7195 8.80482 32.7195 9.19694C32.7195 9.58906 33.0374 9.90694 33.4295 9.90694H34.3704C34.7625 9.90694 35.0804 9.58906 35.0804 9.19694C35.0804 8.80482 34.7625 8.48694 34.3704 8.48694H33.4295ZM36.7995 8.48694C36.4074 8.48694 36.0895 8.80482 36.0895 9.19694C36.0895 9.58906 36.4074 9.90694 36.7995 9.90694H37.2699C37.3771 9.90694 37.4806 9.91867 37.5796 9.94065C37.9625 10.0256 38.3416 9.78415 38.4266 9.40134C38.5116 9.01853 38.2701 8.63933 37.8873 8.55438C37.6879 8.51013 37.4812 8.48694 37.2699 8.48694H36.7995ZM29.1437 11.0172C29.2286 10.6344 28.9872 10.2552 28.6043 10.1703C28.2215 10.0853 27.8423 10.3268 27.7574 10.7096C27.7131 10.909 27.6899 11.1157 27.6899 11.3269V11.7974C27.6899 12.1895 28.0078 12.5074 28.3999 12.5074C28.7921 12.5074 29.1099 12.1895 29.1099 11.7974V11.3269C29.1099 11.2198 29.1217 11.1163 29.1437 11.0172ZM40.0425 10.7096C39.9575 10.3268 39.5783 10.0853 39.1955 10.1703C38.8127 10.2552 38.5713 10.6344 38.6562 11.0172C38.6782 11.1163 38.6899 11.2198 38.6899 11.3269V11.7974C38.6899 12.1895 39.0078 12.5074 39.3999 12.5074C39.7921 12.5074 40.1099 12.1895 40.1099 11.7974V11.3269C40.1099 11.1157 40.0868 10.909 40.0425 10.7096ZM40.1099 14.2265C40.1099 13.8344 39.7921 13.5165 39.3999 13.5165C39.0078 13.5165 38.6899 13.8344 38.6899 14.2265V15.1674C38.6899 15.5595 39.0078 15.8774 39.3999 15.8774C39.7921 15.8774 40.1099 15.5595 40.1099 15.1674V14.2265ZM29.1099 14.2265C29.1099 13.8344 28.7921 13.5165 28.3999 13.5165C28.0078 13.5165 27.6899 13.8344 27.6899 14.2265V15.1674C27.6899 15.5595 28.0078 15.8774 28.3999 15.8774C28.7921 15.8774 29.1099 15.5595 29.1099 15.1674V14.2265ZM40.1099 17.5965C40.1099 17.2044 39.7921 16.8865 39.3999 16.8865C39.0078 16.8865 38.6899 17.2044 38.6899 17.5965V18.0669C38.6899 18.1741 38.6782 18.2776 38.6562 18.3766C38.5713 18.7594 38.8127 19.1386 39.1955 19.2236C39.5783 19.3086 39.9575 19.0671 40.0425 18.6843C40.0868 18.4849 40.1099 18.2782 40.1099 18.0669V17.5965ZM29.1099 17.5965C29.1099 17.2044 28.7921 16.8865 28.3999 16.8865C28.0078 16.8865 27.6899 17.2044 27.6899 17.5965V18.0669C27.6899 18.2782 27.7131 18.4849 27.7574 18.6843C27.8423 19.0671 28.2215 19.3086 28.6043 19.2236C28.9872 19.1386 29.2286 18.7594 29.1437 18.3766C29.1217 18.2776 29.1099 18.1741 29.1099 18.0669V17.5965ZM30.2202 19.4532C29.8374 19.3683 29.4582 19.6097 29.3733 19.9925C29.2883 20.3753 29.5298 20.7545 29.9126 20.8395C30.112 20.8837 30.3187 20.9069 30.5299 20.9069H31.0004C31.3925 20.9069 31.7104 20.5891 31.7104 20.1969C31.7104 19.8048 31.3925 19.4869 31.0004 19.4869H30.5299C30.4228 19.4869 30.3193 19.4752 30.2202 19.4532ZM37.8873 20.8395C38.2701 20.7545 38.5116 20.3753 38.4266 19.9925C38.3416 19.6097 37.9625 19.3683 37.5796 19.4532C37.4806 19.4752 37.3771 19.4869 37.2699 19.4869H36.7995C36.4074 19.4869 36.0895 19.8048 36.0895 20.1969C36.0895 20.5891 36.4074 20.9069 36.7995 20.9069H37.2699C37.4812 20.9069 37.6879 20.8837 37.8873 20.8395ZM33.4295 19.4869C33.0374 19.4869 32.7195 19.8048 32.7195 20.1969C32.7195 20.5891 33.0374 20.9069 33.4295 20.9069H34.3704C34.7625 20.9069 35.0804 20.5891 35.0804 20.1969C35.0804 19.8048 34.7625 19.4869 34.3704 19.4869H33.4295ZM33.8999 16.1169C34.6842 16.1169 35.3199 15.4811 35.3199 14.6969C35.3199 13.9126 34.6842 13.2769 33.8999 13.2769C33.1157 13.2769 32.4799 13.9126 32.4799 14.6969C32.4799 15.4811 33.1157 16.1169 33.8999 16.1169Z" fill="black"/>
</svg>
