<svg width="54" height="54" viewBox="0 0 54 54" fill="none" xmlns="http://www.w3.org/2000/svg">
<rect x="1.8501" y="1.8501" width="50.3" height="50.3" rx="3" stroke="#8B1EFF" stroke-width="0.28"/>
<path d="M9.91309 37.0476C9.83508 27.0607 9.73608 17.0726 9.61914 7.0846L9.6192 7.08216C9.62323 6.91614 9.63623 6.75013 9.65631 6.58399C9.67633 6.41895 9.70233 6.25501 9.73553 6.09156C9.76752 5.92957 9.80652 5.76856 9.85266 5.60975C9.89966 5.45179 9.95166 5.29578 10.0115 5.14161C10.1985 4.66761 10.4535 4.21668 10.77 3.81434C11.083 3.41736 11.456 3.06837 11.8725 2.78394C12.2875 2.50196 12.7465 2.28394 13.2258 2.13697C13.7078 1.98987 14.2118 1.91395 14.7141 1.90662C18.8081 1.87171 22.9021 1.85462 26.9963 1.85499C31.0893 1.85499 35.1833 1.87195 39.2776 1.90723C39.4396 1.91016 39.6016 1.92115 39.7635 1.93775C40.0035 1.96375 40.2435 2.00477 40.4799 2.06153C40.7139 2.11854 40.9449 2.19044 41.1697 2.27955C41.4037 2.37256 41.6287 2.48353 41.8449 2.61072C42.062 2.73865 42.2689 2.8827 42.4627 3.04163C42.6577 3.20167 42.8417 3.37671 43.0105 3.56324C43.1795 3.7522 43.3355 3.95423 43.476 4.16578C43.757 4.59485 43.975 5.06483 44.125 5.55652C44.276 6.05445 44.358 6.57447 44.373 7.09266C44.252 17.0696 44.154 27.0466 44.08 37.0252C44.074 37.1851 44.0601 37.3451 44.039 37.5037C44.018 37.6647 43.991 37.8236 43.9569 37.9813C43.9239 38.1403 43.8839 38.2983 43.8358 38.4537C43.7888 38.6097 43.7349 38.7637 43.675 38.9157C43.484 39.3908 43.228 39.8407 42.9172 40.2495C42.6032 40.6605 42.2352 41.0286 41.8244 41.3395C41.4154 41.6495 40.9624 41.9036 40.4838 42.0906C40.0098 42.2755 39.5098 42.3955 39.0063 42.4435C31.0073 42.9535 22.9843 42.9535 14.9849 42.4436C14.6529 42.4116 14.3229 42.3477 14.0024 42.2535C13.6794 42.1596 13.3654 42.0346 13.0632 41.882C12.4602 41.575 11.9092 41.1569 11.4476 40.6577C10.9866 40.1607 10.6126 39.5817 10.349 38.9596C10.219 38.6516 10.115 38.3325 10.0411 38.0056C9.96912 37.6836 9.92407 37.3546 9.91113 37.0245" stroke="#8B1EFF" stroke-width="0.283" stroke-miterlimit="10"/>
<rect x="12.6855" y="5.52832" width="28.63" height="34.31" rx="1.43" stroke="#00FFFF" stroke-width="0.28"/>
<path d="M42.9396 36.5841C42.9576 31.7322 42.9776 26.8792 43.0006 22.0272C43.0216 17.1742 43.0466 12.3221 43.0756 7.46912C43.0764 7.32446 43.0714 7.18042 43.0594 7.03748C43.0494 6.89441 43.0314 6.75146 43.0074 6.61047C42.9604 6.32837 42.8884 6.05444 42.7894 5.78943C42.7644 5.72339 42.7384 5.65747 42.7104 5.59241C42.6814 5.52637 42.6524 5.46143 42.6214 5.39844C42.5584 5.27039 42.4904 5.14746 42.4154 5.02844C42.2664 4.79041 42.0934 4.57043 41.8934 4.36646C41.6954 4.16345 41.4774 3.98645 41.2434 3.83337C41.1264 3.75745 41.0054 3.6864 40.8794 3.62244C40.8164 3.59045 40.7534 3.55945 40.6874 3.5304C40.6234 3.50037 40.5564 3.47339 40.4904 3.44739C40.2234 3.34338 39.9504 3.26843 39.6714 3.21741C39.3924 3.16638 39.1074 3.14038 38.8164 3.13745C37.8376 3.12988 36.8566 3.12183 35.8735 3.11584C34.8896 3.10889 33.9056 3.10388 32.9205 3.09888C30.9496 3.09082 28.9756 3.08691 26.9985 3.08691C26.5035 3.08691 26.0096 3.08691 25.5146 3.08691C25.0206 3.08789 24.5256 3.08887 24.0306 3.08984C23.0416 3.09192 22.0536 3.09485 21.0685 3.09888C19.0966 3.10791 17.1326 3.12085 15.1755 3.13782C15.0298 3.13892 14.8859 3.14685 14.7408 3.15991C14.5979 3.17383 14.4539 3.19287 14.3129 3.21887C14.0298 3.27087 13.7559 3.3479 13.4908 3.4519C13.4249 3.47791 13.3599 3.50488 13.2949 3.53491C13.2299 3.56384 13.1649 3.59583 13.1019 3.62793C12.9749 3.69385 12.8539 3.76489 12.7359 3.8429C12.5009 3.99683 12.2839 4.1759 12.0859 4.37988C12.0369 4.42993 11.9889 4.48291 11.9429 4.53589C11.8969 4.58887 11.8519 4.64282 11.8089 4.69885C11.7229 4.80884 11.6429 4.92383 11.5688 5.04187C11.4949 5.16089 11.4279 5.28394 11.3649 5.40991C11.3349 5.4729 11.3058 5.53687 11.2779 5.60291C11.2499 5.66785 11.2239 5.73486 11.1989 5.80188C11.1009 6.06787 11.0298 6.34082 10.9839 6.6189C10.9379 6.89685 10.9149 7.18091 10.9169 7.46985C10.9452 12.3224 10.9712 17.1744 10.9932 22.0275C11.0162 26.8794 11.0352 31.7324 11.0532 36.5845C11.0539 36.8712 11.0779 37.1552 11.1279 37.4392C11.1409 37.5101 11.1549 37.5812 11.1699 37.6511C11.1859 37.7212 11.2019 37.7911 11.2209 37.8601C11.2579 37.9991 11.3009 38.1351 11.3499 38.2701C11.3989 38.4052 11.4529 38.5382 11.5149 38.6682C11.5459 38.7332 11.5769 38.7982 11.6119 38.8622C11.6459 38.9261 11.6809 38.9901 11.7179 39.0532C11.8649 39.3032 12.0329 39.5361 12.2239 39.7532C12.3189 39.8612 12.4199 39.9652 12.5269 40.0652C12.5789 40.1151 12.6339 40.1632 12.6899 40.2102C12.7449 40.2572 12.8009 40.3021 12.8589 40.3462C13.0879 40.5211 13.3319 40.6721 13.5919 40.7982C13.6569 40.8302 13.7229 40.8601 13.7899 40.8882C13.8569 40.9171 13.9239 40.9431 13.9919 40.9681C14.1279 41.0182 14.2649 41.0612 14.4039 41.0972C14.6799 41.1692 14.9629 41.2131 15.2509 41.2312C16.2241 41.2916 17.1991 41.3446 18.1771 41.3896C19.1531 41.4357 20.1321 41.4727 21.1111 41.5027C23.0681 41.5636 25.0291 41.5936 26.9941 41.5936C27.485 41.5936 27.9771 41.5917 28.4681 41.5876C28.959 41.5846 29.451 41.5786 29.9421 41.5707C30.925 41.5557 31.9061 41.5336 32.886 41.5027C34.8441 41.4426 36.7961 41.3527 38.7414 41.2316C38.8864 41.2227 39.0294 41.2067 39.1724 41.1846C39.2433 41.1726 39.3144 41.1597 39.3864 41.1447C39.4564 41.1296 39.5273 41.1136 39.5964 41.0946C39.8763 41.0226 40.1454 40.9226 40.4044 40.7957C40.4703 40.7646 40.5334 40.7316 40.5964 40.6967C40.6603 40.6616 40.7234 40.6246 40.7853 40.5856C40.9094 40.5096 41.0284 40.4266 41.1423 40.3386C41.3724 40.1636 41.5823 39.9667 41.7734 39.7487C41.8214 39.6936 41.8674 39.6376 41.9134 39.5807C41.9584 39.5237 42.0024 39.4656 42.0444 39.4066C42.1293 39.2897 42.2073 39.1686 42.2794 39.0447C42.4254 38.7966 42.5464 38.5376 42.6443 38.2656C42.6694 38.1976 42.6924 38.1287 42.7144 38.0596C42.7354 37.9906 42.7554 37.9216 42.7734 37.8527C42.8104 37.7136 42.8414 37.5746 42.8654 37.4346C42.9144 37.1537 42.9384 36.8706 42.9396 36.5841Z" stroke="#FF00FF" stroke-width="0.283465" stroke-miterlimit="10" stroke-linecap="round" stroke-linejoin="round"/>
<path d="M17.9645 14.55C17.9645 13.8183 18.256 13.4028 19.0931 12.7455C19.6946 12.2742 20.0295 11.9766 20.0295 11.4309C20.0295 10.8231 19.49 10.4201 18.8079 10.4201C18.2125 10.4201 17.8033 10.6495 17.5056 11.158C17.3134 11.4123 17.1646 11.5301 16.9041 11.5301C16.5134 11.5301 16.2964 11.251 16.2964 10.91C16.2964 10.5007 16.5382 10.0666 16.9103 9.73794C17.363 9.35347 18.0389 9.12402 18.9195 9.12402C20.5504 9.12402 21.6852 9.97358 21.6852 11.3564C21.6852 12.3176 21.1581 12.8447 20.3644 13.4338C19.7628 13.8927 19.5582 14.1098 19.4156 14.6307C19.2605 14.9965 19.0993 15.2446 18.6652 15.2446C18.2125 15.2446 17.9645 14.9469 17.9645 14.55ZM17.7289 16.9995C17.7289 16.4848 18.1505 16.1251 18.6652 16.1251C19.1799 16.1251 19.6078 16.4848 19.6078 16.9995C19.6078 17.5142 19.1799 17.8739 18.6652 17.8739C18.1505 17.8739 17.7289 17.5142 17.7289 16.9995Z" fill="black"/>
<path d="M18.3489 37.2258C18.2559 37.5483 17.9831 37.7467 17.6482 37.7467C17.2451 37.7467 16.9289 37.4243 16.9413 37.0398C16.9413 36.953 16.9599 36.8476 16.9785 36.7979L19.6574 27.2978C19.7442 26.9753 20.0171 26.7769 20.3519 26.7769C20.7612 26.7769 21.0713 27.0993 21.065 27.4838C21.0588 27.5768 21.0402 27.676 21.0216 27.7318L18.3489 37.2258Z" fill="black"/>
<path fill-rule="evenodd" clip-rule="evenodd" d="M37.1604 27.2457C37.1768 26.8539 36.8725 26.5229 36.4808 26.5065C36.089 26.49 35.7581 26.7943 35.7416 27.1861C35.7276 27.5186 35.6942 27.8613 35.6435 28.209C35.6339 28.2751 35.5782 28.3245 35.5114 28.3283C34.6202 28.3781 33.8176 28.5884 33.1134 28.9099C33.0302 28.9478 32.9322 28.9 32.9149 28.8102C32.8358 28.3994 32.7817 27.9935 32.7602 27.6017C32.7388 27.2102 32.4039 26.9102 32.0124 26.9317C31.6209 26.9532 31.3209 27.288 31.3424 27.6795C31.3794 28.354 31.4967 29.048 31.6626 29.7284C31.6753 29.7803 31.6575 29.835 31.6171 29.87C31.1218 30.2991 30.7161 30.7885 30.4078 31.3002C29.9213 32.1079 29.6588 33.0025 29.7003 33.8299C29.7425 34.6694 30.1074 35.4759 30.8987 35.945C31.7491 36.4492 32.6354 36.2512 33.3569 35.7697C33.5475 35.6425 33.7329 35.4925 33.9125 35.3236C33.9708 35.2688 34.0625 35.2726 34.1272 35.3197C34.3626 35.491 34.6895 35.5058 34.9441 35.3329C35.2685 35.1125 35.3528 34.671 35.1325 34.3466C35.0924 34.2875 35.0472 34.2173 34.9978 34.137C34.9696 34.091 34.9711 34.0328 35.0005 33.9876C35.0737 33.8751 35.1452 33.7603 35.2149 33.6436C35.8423 32.5932 36.3763 31.3018 36.7268 29.9758C36.7463 29.9019 36.8213 29.8563 36.8949 29.8769C37.7075 30.1034 38.182 30.5609 38.4663 31.0516C38.868 31.7449 38.9332 32.5862 38.8476 33.152C38.7395 33.8665 38.3379 34.3905 37.7987 34.7887C37.2494 35.1943 36.5862 35.4447 36.0534 35.588C35.6747 35.6898 35.4503 36.0793 35.5521 36.458C35.654 36.8367 36.0435 37.0611 36.4222 36.9593C37.0476 36.7911 37.8969 36.4813 38.6423 35.931C39.3977 35.3731 40.073 34.5451 40.2516 33.3644C40.3738 32.5571 40.2938 31.3733 39.6949 30.3396C39.2032 29.4911 38.3877 28.7912 37.1694 28.4809C37.0985 28.4628 37.0517 28.3945 37.0617 28.322C37.112 27.9579 37.1456 27.5977 37.1604 27.2457ZM34.0695 32.333C34.1163 32.438 34.2619 32.4429 34.3146 32.3407C34.6869 31.6188 35.0104 30.8034 35.2554 29.9664C35.2832 29.8717 35.2054 29.78 35.1077 29.7941C34.4765 29.8846 33.9145 30.0777 33.4255 30.3392C33.367 30.3705 33.3402 30.4394 33.3608 30.5024C33.4859 30.8846 33.6238 31.2598 33.7682 31.6204C33.8674 31.8681 33.9686 32.1065 34.0695 32.333ZM32.2235 31.5569C32.1872 31.4573 32.0581 31.4316 31.991 31.5137C31.8529 31.6823 31.7305 31.8564 31.6242 32.0329C31.2513 32.6519 31.094 33.2696 31.1185 33.7587C31.1425 34.2356 31.3297 34.5497 31.6229 34.7235C31.857 34.8623 32.1404 34.8744 32.5687 34.5885C32.7729 34.4523 32.9872 34.2598 33.2049 34.0158C33.2429 33.9733 33.25 33.9118 33.2242 33.861C32.9722 33.3643 32.703 32.7804 32.4499 32.1482C32.3732 31.9565 32.2973 31.759 32.2235 31.5569Z" fill="black"/>
<path fill-rule="evenodd" clip-rule="evenodd" d="M30.2202 8.99229C30.3193 8.97031 30.4228 8.95857 30.5299 8.95857H31.0004C31.3925 8.95857 31.7104 8.6407 31.7104 8.24857C31.7104 7.85645 31.3925 7.53857 31.0004 7.53857H30.5299C30.3187 7.53857 30.112 7.56177 29.9126 7.60602C29.5298 7.69097 29.2883 8.07017 29.3733 8.45298C29.4582 8.83578 29.8374 9.07724 30.2202 8.99229ZM33.4295 7.53857C33.0374 7.53857 32.7195 7.85645 32.7195 8.24857C32.7195 8.6407 33.0374 8.95857 33.4295 8.95857H34.3704C34.7625 8.95857 35.0804 8.6407 35.0804 8.24857C35.0804 7.85645 34.7625 7.53857 34.3704 7.53857H33.4295ZM36.7995 7.53857C36.4074 7.53857 36.0895 7.85645 36.0895 8.24857C36.0895 8.6407 36.4074 8.95857 36.7995 8.95857H37.2699C37.3771 8.95857 37.4806 8.97031 37.5796 8.99229C37.9625 9.07724 38.3416 8.83578 38.4266 8.45298C38.5116 8.07017 38.2701 7.69097 37.8873 7.60602C37.6879 7.56177 37.4812 7.53857 37.2699 7.53857H36.7995ZM29.1437 10.0689C29.2286 9.68606 28.9872 9.30687 28.6043 9.22191C28.2215 9.13696 27.8423 9.37842 27.7574 9.76123C27.7131 9.96063 27.6899 10.1673 27.6899 10.3786V10.849C27.6899 11.2411 28.0078 11.559 28.3999 11.559C28.7921 11.559 29.1099 11.2411 29.1099 10.849V10.3786C29.1099 10.2715 29.1217 10.1679 29.1437 10.0689ZM40.0425 9.76123C39.9575 9.37842 39.5783 9.13696 39.1955 9.22191C38.8127 9.30687 38.5713 9.68607 38.6562 10.0689C38.6782 10.1679 38.6899 10.2715 38.6899 10.3786V10.849C38.6899 11.2411 39.0078 11.559 39.3999 11.559C39.7921 11.559 40.1099 11.2411 40.1099 10.849V10.3786C40.1099 10.1673 40.0868 9.96063 40.0425 9.76123ZM40.1099 13.2781C40.1099 12.886 39.7921 12.5681 39.3999 12.5681C39.0078 12.5681 38.6899 12.886 38.6899 13.2781V14.219C38.6899 14.6111 39.0078 14.929 39.3999 14.929C39.7921 14.929 40.1099 14.6111 40.1099 14.219V13.2781ZM29.1099 13.2781C29.1099 12.886 28.7921 12.5681 28.3999 12.5681C28.0078 12.5681 27.6899 12.886 27.6899 13.2781V14.219C27.6899 14.6111 28.0078 14.929 28.3999 14.929C28.7921 14.929 29.1099 14.6111 29.1099 14.219V13.2781ZM40.1099 16.6481C40.1099 16.256 39.7921 15.9381 39.3999 15.9381C39.0078 15.9381 38.6899 16.256 38.6899 16.6481V17.1186C38.6899 17.2257 38.6782 17.3292 38.6562 17.4283C38.5713 17.8111 38.8127 18.1903 39.1955 18.2752C39.5783 18.3602 39.9575 18.1187 40.0425 17.7359C40.0868 17.5365 40.1099 17.3298 40.1099 17.1186V16.6481ZM29.1099 16.6481C29.1099 16.256 28.7921 15.9381 28.3999 15.9381C28.0078 15.9381 27.6899 16.256 27.6899 16.6481V17.1186C27.6899 17.3298 27.7131 17.5365 27.7574 17.7359C27.8423 18.1187 28.2215 18.3602 28.6043 18.2752C28.9872 18.1903 29.2286 17.8111 29.1437 17.4283C29.1217 17.3292 29.1099 17.2257 29.1099 17.1186V16.6481ZM30.2202 18.5049C29.8374 18.4199 29.4582 18.6614 29.3733 19.0442C29.2883 19.427 29.5298 19.8062 29.9126 19.8911C30.112 19.9354 30.3187 19.9586 30.5299 19.9586H31.0004C31.3925 19.9586 31.7104 19.6407 31.7104 19.2486C31.7104 18.8565 31.3925 18.5386 31.0004 18.5386H30.5299C30.4228 18.5386 30.3193 18.5268 30.2202 18.5049ZM37.8873 19.8911C38.2701 19.8062 38.5116 19.427 38.4266 19.0442C38.3416 18.6614 37.9625 18.4199 37.5796 18.5049C37.4806 18.5268 37.3771 18.5386 37.2699 18.5386H36.7995C36.4074 18.5386 36.0895 18.8565 36.0895 19.2486C36.0895 19.6407 36.4074 19.9586 36.7995 19.9586H37.2699C37.4812 19.9586 37.6879 19.9354 37.8873 19.8911ZM33.4295 18.5386C33.0374 18.5386 32.7195 18.8565 32.7195 19.2486C32.7195 19.6407 33.0374 19.9586 33.4295 19.9586H34.3704C34.7625 19.9586 35.0804 19.6407 35.0804 19.2486C35.0804 18.8565 34.7625 18.5386 34.3704 18.5386H33.4295ZM33.8999 15.1685C34.6842 15.1685 35.3199 14.5328 35.3199 13.7485C35.3199 12.9643 34.6842 12.3285 33.8999 12.3285C33.1157 12.3285 32.4799 12.9643 32.4799 13.7485C32.4799 14.5328 33.1157 15.1685 33.8999 15.1685Z" fill="black"/>
</svg>
