<svg width="54" height="54" viewBox="0 0 54 54" fill="none" xmlns="http://www.w3.org/2000/svg">
<rect x="1.85" y="1.84961" width="50.3" height="50.3" rx="3" stroke="#8B1EFF" stroke-width="0.28"/>
<path d="M9.91309 37.0471C9.83508 27.0602 9.73608 17.0721 9.61914 7.08411L9.6192 7.08167C9.62323 6.91566 9.63623 6.74964 9.65631 6.5835C9.67633 6.41846 9.70233 6.25452 9.73553 6.09107C9.76752 5.92908 9.80652 5.76807 9.85266 5.60926C9.89966 5.4513 9.95166 5.29529 10.0115 5.14112C10.1985 4.66712 10.4535 4.21619 10.77 3.81385C11.083 3.41688 11.456 3.06788 11.8725 2.78345C12.2875 2.50147 12.7465 2.28345 13.2258 2.13648C13.7078 1.98939 14.2118 1.91346 14.7141 1.90613C18.8081 1.87122 22.9021 1.85413 26.9963 1.8545C31.0893 1.8545 35.1833 1.87147 39.2776 1.90674C39.4396 1.90967 39.6016 1.92066 39.7635 1.93726C40.0035 1.96326 40.2435 2.00428 40.4799 2.06104C40.7139 2.11805 40.9449 2.18995 41.1697 2.27906C41.4037 2.37208 41.6287 2.48304 41.8449 2.61024C42.062 2.73816 42.2689 2.88221 42.4627 3.04114C42.6577 3.20118 42.8417 3.37623 43.0105 3.56275C43.1795 3.75171 43.3355 3.95374 43.476 4.16529C43.757 4.59437 43.975 5.06434 44.125 5.55604C44.276 6.05396 44.358 6.57398 44.373 7.09217C44.252 17.0691 44.154 27.0462 44.08 37.0247C44.074 37.1846 44.0601 37.3446 44.039 37.5032C44.018 37.6642 43.991 37.8231 43.9569 37.9808C43.9239 38.1398 43.8839 38.2979 43.8358 38.4533C43.7888 38.6093 43.7349 38.7632 43.675 38.9152C43.484 39.3903 43.228 39.8402 42.9172 40.249C42.6032 40.66 42.2352 41.0281 41.8244 41.339C41.4154 41.6491 40.9624 41.9031 40.4838 42.0901C40.0098 42.275 39.5098 42.395 39.0063 42.443C31.0073 42.953 22.9843 42.953 14.9849 42.4431C14.6529 42.4111 14.3229 42.3472 14.0024 42.2531C13.6794 42.1591 13.3654 42.0341 13.0632 41.8815C12.4602 41.5745 11.9092 41.1564 11.4476 40.6572C10.9866 40.1602 10.6126 39.5812 10.349 38.9591C10.219 38.6511 10.115 38.332 10.0411 38.0051C9.96912 37.6831 9.92407 37.3541 9.91113 37.0241" stroke="#8B1EFF" stroke-width="0.283" stroke-miterlimit="10"/>
<rect x="12.6854" y="5.52832" width="28.63" height="34.31" rx="1.43" stroke="#00FFFF" stroke-width="0.28"/>
<path d="M42.9396 36.5841C42.9576 31.7322 42.9776 26.8792 43.0006 22.0272C43.0216 17.1742 43.0466 12.3221 43.0756 7.46912C43.0764 7.32446 43.0714 7.18042 43.0594 7.03748C43.0494 6.89441 43.0314 6.75146 43.0074 6.61047C42.9604 6.32837 42.8884 6.05444 42.7894 5.78943C42.7644 5.72339 42.7384 5.65747 42.7104 5.59241C42.6814 5.52637 42.6524 5.46143 42.6214 5.39844C42.5584 5.27039 42.4904 5.14746 42.4154 5.02844C42.2664 4.79041 42.0934 4.57043 41.8934 4.36646C41.6954 4.16345 41.4774 3.98645 41.2434 3.83337C41.1264 3.75745 41.0054 3.6864 40.8794 3.62244C40.8164 3.59045 40.7534 3.55945 40.6874 3.5304C40.6234 3.50037 40.5564 3.47339 40.4904 3.44739C40.2234 3.34338 39.9504 3.26843 39.6714 3.21741C39.3924 3.16638 39.1074 3.14038 38.8164 3.13745C37.8376 3.12988 36.8566 3.12183 35.8735 3.11584C34.8896 3.10889 33.9056 3.10388 32.9205 3.09888C30.9496 3.09082 28.9756 3.08691 26.9985 3.08691C26.5035 3.08691 26.0096 3.08691 25.5146 3.08691C25.0206 3.08789 24.5256 3.08887 24.0306 3.08984C23.0416 3.09192 22.0536 3.09485 21.0685 3.09888C19.0966 3.10791 17.1326 3.12085 15.1755 3.13782C15.0298 3.13892 14.8859 3.14685 14.7408 3.15991C14.5979 3.17383 14.4539 3.19287 14.3129 3.21887C14.0298 3.27087 13.7559 3.3479 13.4908 3.4519C13.4249 3.47791 13.3599 3.50488 13.2949 3.53491C13.2299 3.56384 13.1649 3.59583 13.1019 3.62793C12.9749 3.69385 12.8539 3.76489 12.7359 3.8429C12.5009 3.99683 12.2839 4.1759 12.0859 4.37988C12.0369 4.42993 11.9889 4.48291 11.9429 4.53589C11.8969 4.58887 11.8519 4.64282 11.8089 4.69885C11.7229 4.80884 11.6429 4.92383 11.5688 5.04187C11.4949 5.16089 11.4279 5.28394 11.3649 5.40991C11.3349 5.4729 11.3058 5.53687 11.2779 5.60291C11.2499 5.66785 11.2239 5.73486 11.1989 5.80188C11.1009 6.06787 11.0298 6.34082 10.9839 6.6189C10.9379 6.89685 10.9149 7.18091 10.9169 7.46985C10.9452 12.3224 10.9712 17.1744 10.9932 22.0275C11.0162 26.8794 11.0352 31.7324 11.0532 36.5845C11.0539 36.8712 11.0779 37.1552 11.1279 37.4392C11.1409 37.5101 11.1549 37.5812 11.1699 37.6511C11.1859 37.7212 11.2019 37.7911 11.2209 37.8601C11.2579 37.9991 11.3009 38.1351 11.3499 38.2701C11.3989 38.4052 11.4529 38.5382 11.5149 38.6682C11.5459 38.7332 11.5769 38.7982 11.6119 38.8622C11.6459 38.9261 11.6809 38.9901 11.7179 39.0532C11.8649 39.3032 12.0329 39.5361 12.2239 39.7532C12.3189 39.8612 12.4199 39.9652 12.5269 40.0652C12.5789 40.1151 12.6339 40.1632 12.6899 40.2102C12.7449 40.2572 12.8009 40.3021 12.8589 40.3462C13.0879 40.5211 13.3319 40.6721 13.5919 40.7982C13.6569 40.8302 13.7229 40.8601 13.7899 40.8882C13.8569 40.9171 13.9239 40.9431 13.9919 40.9681C14.1279 41.0182 14.2649 41.0612 14.4039 41.0972C14.6799 41.1692 14.9629 41.2131 15.2509 41.2312C16.2241 41.2916 17.1991 41.3446 18.1771 41.3896C19.1531 41.4357 20.1321 41.4727 21.1111 41.5027C23.0681 41.5636 25.0291 41.5936 26.9941 41.5936C27.485 41.5936 27.9771 41.5917 28.4681 41.5876C28.959 41.5846 29.451 41.5786 29.9421 41.5707C30.925 41.5557 31.9061 41.5336 32.886 41.5027C34.8441 41.4426 36.7961 41.3527 38.7414 41.2316C38.8864 41.2227 39.0294 41.2067 39.1724 41.1846C39.2433 41.1726 39.3144 41.1597 39.3864 41.1447C39.4564 41.1296 39.5273 41.1136 39.5964 41.0946C39.8763 41.0226 40.1454 40.9226 40.4044 40.7957C40.4703 40.7646 40.5334 40.7316 40.5964 40.6967C40.6603 40.6616 40.7234 40.6246 40.7853 40.5856C40.9094 40.5096 41.0284 40.4266 41.1423 40.3386C41.3724 40.1636 41.5823 39.9667 41.7734 39.7487C41.8214 39.6936 41.8674 39.6376 41.9134 39.5807C41.9584 39.5237 42.0024 39.4656 42.0444 39.4066C42.1293 39.2897 42.2073 39.1686 42.2794 39.0447C42.4254 38.7966 42.5464 38.5376 42.6443 38.2656C42.6694 38.1976 42.6924 38.1287 42.7144 38.0596C42.7354 37.9906 42.7554 37.9216 42.7734 37.8527C42.8104 37.7136 42.8414 37.5746 42.8654 37.4346C42.9144 37.1537 42.9384 36.8706 42.9396 36.5841Z" stroke="#FF00FF" stroke-width="0.283465" stroke-miterlimit="10" stroke-linecap="round" stroke-linejoin="round"/>
<path d="M37.8766 22.548H35.7874C35.6968 22.548 35.63 22.4642 35.649 22.3756C35.7856 21.7369 36.2572 21.4093 36.8516 21.4093C37.446 21.4093 37.9001 21.7241 38.0163 22.3824C38.0316 22.4689 37.9645 22.548 37.8766 22.548ZM36.8468 20.4668C35.3526 20.4668 34.4005 21.5312 34.4005 23.1817C34.4005 24.8322 35.3331 25.8526 36.9152 25.8526C37.7154 25.8526 38.3014 25.6748 38.8011 25.1198C39.0248 24.8714 38.9649 24.5007 38.6688 24.3422C38.4194 24.2086 38.1357 24.3367 37.9964 24.4661C37.5537 24.8775 37.2289 24.9151 36.9055 24.9151C36.1593 24.9151 35.6693 24.4304 35.6163 23.6069C35.611 23.5248 35.6754 23.4551 35.7577 23.4551H38.7119C38.9931 23.4551 39.2225 23.2303 39.2289 22.9492C39.2616 21.5063 38.2864 20.4668 36.8468 20.4668Z" fill="black"/>
<path d="M31.4142 25.8525C30.3204 25.8525 29.5538 25.4326 29.3048 24.8125C29.2706 24.7246 29.256 24.6465 29.256 24.5732C29.256 24.2802 29.4708 24.0947 29.7638 24.0947C29.964 24.0947 30.1349 24.1875 30.2911 24.3926C30.5645 24.7881 30.877 24.9455 31.4581 24.9455C32.0392 24.9455 32.4005 24.7246 32.4005 24.334C32.4005 24.0215 32.2052 23.8506 31.673 23.7285L30.8331 23.5381C29.8223 23.3086 29.3243 22.8106 29.3243 22.0586C29.3243 21.0967 30.1544 20.4668 31.4337 20.4668C32.4298 20.4668 33.2013 20.9551 33.3624 21.5508C33.377 21.6143 33.3868 21.6729 33.3868 21.7315C33.3868 21.9854 33.2257 22.1661 32.918 22.1661C32.7422 22.1661 32.5664 22.1026 32.4541 21.9415C32.2148 21.5851 31.917 21.3739 31.4043 21.3739C30.8916 21.3739 30.5059 21.6192 30.5059 21.9903C30.5059 22.293 30.7305 22.4981 31.2676 22.6202L32.0928 22.8009C33.1866 23.0499 33.6211 23.4454 33.6211 24.212C33.6211 25.2032 32.7324 25.8526 31.414 25.8526H31.4142V25.8525Z" fill="black"/>
<path d="M27.5863 20.4717C27.2152 20.4717 26.9808 20.7207 26.9808 21.1114V25.2081C26.9808 25.6036 27.2152 25.8478 27.5863 25.8478C27.9574 25.8478 28.1967 25.6037 28.1967 25.2081V21.1163C28.1967 20.7208 27.9574 20.4718 27.5863 20.4718V20.4717ZM27.5863 19.8467C27.9672 19.8467 28.265 19.5537 28.265 19.1875C28.265 18.8213 27.9671 18.5283 27.5863 18.5283C27.2055 18.5283 26.9125 18.8164 26.9125 19.1875C26.9125 19.5586 27.2104 19.8467 27.5863 19.8467Z" fill="black"/>
<path d="M24.5688 23.8317C24.5688 24.4566 24.0123 24.9156 23.3287 24.9156C22.8015 24.9156 22.445 24.6471 22.445 24.2224C22.445 23.7977 22.7819 23.5487 23.3677 23.5096L24.5161 23.4396C24.5446 23.4379 24.5687 23.4605 24.5687 23.4891V23.8319L24.5688 23.8317ZM23.6509 20.4678C22.6598 20.4678 22.0882 20.8081 21.7959 21.1355C21.6266 21.3252 21.6049 21.7246 21.8371 21.9103C22.1085 22.1273 22.5631 21.9649 22.7193 21.7729C22.8595 21.6005 23.1743 21.4254 23.6019 21.4198C24.2023 21.4119 24.5686 21.7323 24.5686 22.2742V22.4768C24.5686 22.5031 24.5481 22.5248 24.5218 22.5263L23.1966 22.6018C21.9372 22.6799 21.2293 23.3532 21.2293 24.271C21.2293 25.1888 21.9592 25.8333 22.9576 25.8333C23.5894 25.8333 24.2053 25.6683 24.5117 25.543C24.576 25.5167 24.6497 25.5415 24.6859 25.6008C24.6887 25.6053 24.6911 25.6091 24.6931 25.612C24.7745 25.7279 24.921 25.8479 25.179 25.8479C25.5208 25.8479 25.7697 25.6282 25.7697 25.2377V22.1863C25.7697 21.1464 24.9349 20.4678 23.6509 20.4678Z" fill="black"/>
<path d="M19.1591 23.0213C19.1184 22.9499 19.1466 22.8586 19.2209 22.8234C19.9497 22.4775 20.3649 21.7605 20.3649 20.8965C20.3649 19.5488 19.4518 18.7041 17.9284 18.7041H15.7604C15.3698 18.7041 15.1305 18.9482 15.1305 19.3584V25.1934C15.1305 25.6036 15.3698 25.8477 15.7604 25.8477C16.151 25.8477 16.3903 25.6036 16.3903 25.1934V23.2404C16.3903 23.1621 16.4538 23.0987 16.532 23.0987H17.7174C17.7692 23.0987 17.8169 23.127 17.8418 23.1724L19.0564 25.3936C19.2517 25.7403 19.3982 25.8477 19.6961 25.8477C20.0574 25.8477 20.3309 25.6036 20.3309 25.2715C20.3309 25.125 20.3016 25.0176 20.1942 24.8369L19.1593 23.0212L19.1591 23.0213ZM17.8112 22.1319H16.532C16.4537 22.1319 16.3903 22.0684 16.3903 21.9902V19.8664C16.3903 19.7881 16.4538 19.7247 16.532 19.7247H17.7868C18.5827 19.7247 19.0759 20.1837 19.0759 20.9259C19.0759 21.6681 18.612 22.132 17.8112 22.132V22.1319Z" fill="black"/>
</svg>
