<svg width="122" height="54" viewBox="0 0 122 54" fill="none" xmlns="http://www.w3.org/2000/svg">
<rect x="1.8501" y="1.84998" width="117.8" height="50.3" rx="3" stroke="#8B1EFF" stroke-width="0.28"/>
<path d="M10.0212 37.0325C10.0462 37.6944 10.1992 38.3564 10.4686 38.966C10.7416 39.587 11.1346 40.1531 11.6171 40.6291C12.1031 41.1081 12.6791 41.4962 13.3047 41.7707C13.9297 42.0447 14.6037 42.2066 15.2801 42.2499C30.4381 42.6339 45.6011 42.8258 60.7641 42.8257C75.9181 42.8257 91.0721 42.6346 106.221 42.2502C106.897 42.2063 107.571 42.0393 108.193 41.7671C108.507 41.629 108.808 41.4651 109.091 41.2751C109.374 41.0851 109.641 40.8691 109.885 40.6288C110.127 40.3907 110.347 40.1297 110.54 39.85C110.731 39.5719 110.897 39.277 111.032 38.9678C111.165 38.6617 111.27 38.3437 111.346 38.0173C111.421 37.6953 111.47 37.3663 111.479 37.0353C111.556 27.1044 111.659 17.1743 111.789 7.24461C111.769 6.52855 111.607 5.80858 111.318 5.15001C111.175 4.82103 111 4.50706 110.794 4.21483C110.59 3.92381 110.356 3.65282 110.096 3.40977C109.577 2.92686 108.952 2.55186 108.286 2.30687C107.952 2.18297 107.608 2.09288 107.258 2.03136C106.908 1.96935 106.55 1.93431 106.195 1.93028C75.8991 1.82933 45.6021 1.82933 15.3063 1.93065C14.5983 1.93761 13.8833 2.06664 13.2163 2.31261C12.8823 2.43565 12.5613 2.58861 12.2577 2.77135C11.9527 2.95433 11.6667 3.16832 11.4065 3.41051C11.1455 3.65343 10.9115 3.92442 10.707 4.21654C10.502 4.50951 10.328 4.82359 10.1851 5.15196C10.0411 5.48106 9.92813 5.82298 9.84943 6.17332C9.76942 6.52428 9.72243 6.88426 9.71191 7.24437C9.83891 17.1743 9.94292 27.1044 10.0219 37.0343" stroke="#8B1EFF" stroke-width="0.283" stroke-miterlimit="10"/>
<path d="M13.3936 4.15686H101.73H108.107C109.281 4.15686 110.233 5.10889 110.233 6.28284V38.4819C110.233 39.6556 109.281 40.6075 108.107 40.6075H13.3934C12.2196 40.6077 11.2676 39.6556 11.2676 38.4816L11.2676 6.28296C11.2676 5.10889 12.2196 4.15686 13.3936 4.15686Z" stroke="#00FFFF" stroke-width="0.28" stroke-miterlimit="10"/>
<path d="M104.374 50.01V49.5626L106.055 47.7231C106.252 47.5076 106.414 47.3204 106.542 47.1613C106.669 47.0005 106.764 46.8497 106.825 46.7089C106.888 46.5664 106.92 46.4172 106.92 46.2614C106.92 46.0825 106.877 45.9275 106.79 45.7966C106.706 45.6657 106.59 45.5646 106.442 45.4933C106.295 45.4221 106.129 45.3864 105.945 45.3864C105.75 45.3864 105.579 45.427 105.433 45.5082C105.289 45.5878 105.177 45.6996 105.098 45.8438C105.02 45.988 104.981 46.157 104.981 46.3509H104.394C104.394 46.0526 104.463 45.7908 104.6 45.5654C104.738 45.34 104.925 45.1644 105.162 45.0384C105.401 44.9125 105.668 44.8495 105.965 44.8495C106.263 44.8495 106.528 44.9125 106.758 45.0384C106.988 45.1644 107.169 45.3342 107.3 45.548C107.431 45.7618 107.496 45.9996 107.496 46.2614C107.496 46.4487 107.462 46.6318 107.394 46.8108C107.328 46.9881 107.212 47.1861 107.046 47.4049C106.882 47.622 106.654 47.8871 106.363 48.2004L105.219 49.4234V49.4631H107.586V50.01H104.374ZM109.05 50.0498C108.927 50.0498 108.822 50.0059 108.734 49.918C108.646 49.8302 108.602 49.725 108.602 49.6023C108.602 49.4797 108.646 49.3745 108.734 49.2866C108.822 49.1988 108.927 49.1549 109.05 49.1549C109.173 49.1549 109.278 49.1988 109.366 49.2866C109.453 49.3745 109.497 49.4797 109.497 49.6023C109.497 49.6835 109.477 49.7581 109.435 49.8261C109.395 49.894 109.342 49.9487 109.274 49.9901C109.207 50.0299 109.133 50.0498 109.05 50.0498ZM110.54 50.01V49.5626L112.221 47.7231C112.418 47.5076 112.58 47.3204 112.708 47.1613C112.835 47.0005 112.93 46.8497 112.991 46.7089C113.054 46.5664 113.086 46.4172 113.086 46.2614C113.086 46.0825 113.043 45.9275 112.956 45.7966C112.872 45.6657 112.756 45.5646 112.608 45.4933C112.461 45.4221 112.295 45.3864 112.111 45.3864C111.916 45.3864 111.745 45.427 111.599 45.5082C111.455 45.5878 111.343 45.6996 111.264 45.8438C111.186 45.988 111.147 46.157 111.147 46.3509H110.56C110.56 46.0526 110.629 45.7908 110.766 45.5654C110.904 45.34 111.091 45.1644 111.328 45.0384C111.567 44.9125 111.834 44.8495 112.131 44.8495C112.429 44.8495 112.694 44.9125 112.924 45.0384C113.154 45.1644 113.335 45.3342 113.466 45.548C113.597 45.7618 113.662 45.9996 113.662 46.2614C113.662 46.4487 113.628 46.6318 113.56 46.8108C113.494 46.9881 113.378 47.1861 113.212 47.4049C113.048 47.622 112.82 47.8871 112.529 48.2004L111.385 49.4234V49.4631H113.752V50.01H110.54ZM116.369 50.0796C116.078 50.0796 115.815 50.0216 115.581 49.9056C115.348 49.7896 115.16 49.6305 115.02 49.4283C114.879 49.2262 114.802 48.9958 114.788 48.7373H115.385C115.408 48.9676 115.513 49.1582 115.698 49.309C115.885 49.4582 116.109 49.5327 116.369 49.5327C116.578 49.5327 116.764 49.4838 116.926 49.3861C117.09 49.2883 117.219 49.1541 117.311 48.9834C117.406 48.811 117.453 48.6163 117.453 48.3992C117.453 48.1771 117.404 47.9791 117.307 47.8051C117.21 47.6294 117.078 47.4911 116.909 47.39C116.74 47.2889 116.547 47.2375 116.33 47.2359C116.174 47.2342 116.014 47.2582 115.85 47.308C115.686 47.356 115.551 47.4182 115.445 47.4944L114.868 47.4248L115.176 44.9191H117.821V45.466H115.693L115.514 46.9674H115.544C115.648 46.8845 115.779 46.8158 115.937 46.7611C116.094 46.7064 116.258 46.679 116.429 46.679C116.741 46.679 117.018 46.7536 117.262 46.9028C117.507 47.0503 117.699 47.2524 117.838 47.5093C117.979 47.7662 118.05 48.0595 118.05 48.3893C118.05 48.7141 117.977 49.0041 117.831 49.2593C117.687 49.5129 117.488 49.7134 117.234 49.8609C116.981 50.0067 116.693 50.0796 116.369 50.0796Z" fill="#0000FF"/>
<path d="M15.1 41.0995C12.68 41.0995 10.73 39.0395 10.73 36.5095V7.44946C10.73 5.02946 12.97 3.06946 15.74 3.06946H105.79C108.54 3.06946 110.76 4.97946 110.76 7.33946L110.69 36.5195C110.69 39.0595 108.73 41.1095 106.31 41.1095C75.95 42.0695 45.48 42.0695 15.12 41.1095H15.09L15.1 41.0995Z" stroke="#FF00FF" stroke-width="0.28" stroke-linecap="round" stroke-linejoin="round"/>
<path fill-rule="evenodd" clip-rule="evenodd" d="M26.2794 16.4148C26.6906 16.0036 27.3573 16.0036 27.7685 16.4148L33.1613 21.8076C33.1645 21.8108 33.1677 21.814 33.1708 21.8173C33.6233 22.2776 33.7577 22.9643 33.5102 23.5619C33.261 24.1633 32.6741 24.5558 32.0228 24.5558H30.7732C30.6959 24.5558 30.6332 24.6185 30.6332 24.6958V27.7851C30.6332 28.6742 29.9125 29.395 29.0233 29.395H25.0243C24.1352 29.395 23.4144 28.6742 23.4144 27.7851V24.6958C23.4144 24.6185 23.3518 24.5558 23.2744 24.5558H22.0248C21.3736 24.5558 20.7867 24.1635 20.5375 23.5621C20.2886 22.9605 20.4261 22.2681 20.8864 21.8077L26.2794 16.4148ZM32.15 22.8045L27.1229 17.7774C27.0683 17.7227 26.9796 17.7227 26.9249 17.7774L21.8907 22.8116C21.8364 22.8659 21.82 22.9477 21.8495 23.0188C21.8789 23.0899 21.9481 23.1358 22.0248 23.1358H23.9543C24.4401 23.1358 24.8344 23.5295 24.8344 24.0159V27.7851C24.8344 27.89 24.9195 27.975 25.0243 27.975H29.0233C29.1282 27.975 29.2132 27.89 29.2132 27.7851V24.0159C29.2132 23.5299 29.6073 23.1358 30.0933 23.1358H32.0228C32.0995 23.1358 32.1688 23.0896 32.1982 23.0187M32.15 22.8045C32.1523 22.8069 32.1546 22.8092 32.157 22.8116C32.2114 22.866 32.2276 22.9477 32.1982 23.0187" fill="black"/>
</svg>
