<svg width="95" height="54" viewBox="0 0 95 54" fill="none" xmlns="http://www.w3.org/2000/svg">
<rect x="1.8501" y="1.84998" width="90.8" height="50.3" rx="3" stroke="#8B1EFF" stroke-width="0.28"/>
<path d="M9.90808 37.0565C9.93207 37.7185 10.084 38.3815 10.3498 38.9938C10.6218 39.6169 11.0108 40.1858 11.4894 40.6656C11.9725 41.1505 12.5445 41.5436 13.1692 41.8247C13.7902 42.1037 14.4622 42.2716 15.1375 42.3184C25.8384 42.6734 36.5444 42.8513 47.2508 42.8517C57.9578 42.8517 68.6638 42.6737 79.3646 42.3186C80.0385 42.2707 80.7115 42.0977 81.33 41.8196C81.643 41.6797 81.9431 41.5127 82.2242 41.3199C82.5052 41.1269 82.7702 40.9079 83.0126 40.6662C83.2526 40.4252 83.4706 40.1623 83.6628 39.88C83.8519 39.601 84.0168 39.304 84.1497 38.9943C84.2167 38.8393 84.2757 38.6823 84.3273 38.5229C84.3793 38.3649 84.4243 38.2049 84.4612 38.0419C84.5363 37.7189 84.5853 37.3889 84.5938 37.0575C84.6708 27.1265 84.7728 17.1945 84.9016 7.26358C84.8876 6.71964 84.7916 6.17459 84.6219 5.65445C84.4529 5.13943 84.2089 4.64737 83.8973 4.20535C83.7413 3.98428 83.5693 3.7764 83.3809 3.58304C83.1938 3.39102 82.9919 3.21402 82.7748 3.05325C82.3448 2.73318 81.8639 2.47818 81.3613 2.29691C80.8863 2.12991 80.3873 2.02493 79.8863 1.97757C79.7183 1.96255 79.5503 1.95255 79.3816 1.95047C57.9615 1.85648 36.5406 1.85648 15.1202 1.95023C14.4182 1.95828 13.7112 2.08719 13.0491 2.3378C12.3901 2.5878 11.7741 2.95877 11.264 3.44205C10.7499 3.92801 10.345 4.52701 10.063 5.18057C9.77905 5.83951 9.62006 6.55252 9.59961 7.26395C9.72565 17.195 9.82861 27.126 9.90765 37.0579" stroke="#8B1EFF" stroke-width="0.283" stroke-miterlimit="10"/>
<path d="M81.033 40.8397H13.4791C12.304 40.8398 11.353 39.8878 11.353 38.7137C11.353 38.7141 11.353 6.47296 11.353 6.47296C11.353 5.29901 12.304 4.34698 13.4791 4.34698C13.479 4.34698 17.022 4.34698 17.022 4.34698C17.0219 4.34698 77.4899 4.34698 77.4899 4.34698C77.4897 4.34698 81.0327 4.34698 81.0327 4.34698C82.2077 4.34698 83.1588 5.29901 83.1588 6.47272C83.1588 6.47272 83.1588 38.7137 83.1587 38.7137C83.1587 39.8878 82.208 40.8397 81.033 40.8397ZM81.033 40.8397L81.0308 40.6683C81.0618 40.6673 81.0928 40.6663 81.1248 40.6653" stroke="#00FFFF" stroke-width="0.28" stroke-miterlimit="10"/>
<path d="M83.6267 36.5974C83.6257 36.8904 83.5977 37.1814 83.5438 37.4693C83.4887 37.7584 83.4077 38.0384 83.2997 38.3094C83.2457 38.4454 83.1847 38.5784 83.1177 38.7093C83.0837 38.7744 83.0477 38.8393 83.0107 38.9034C82.9737 38.9674 82.9347 39.0304 82.8937 39.0914C82.7338 39.3374 82.5507 39.5654 82.3437 39.7754C82.2907 39.8284 82.2377 39.8794 82.1827 39.9294C82.1287 39.9794 82.0717 40.0284 82.0147 40.0754C81.8997 40.1694 81.7817 40.2574 81.6597 40.3393C81.4157 40.5024 81.1567 40.6413 80.8837 40.7554C80.8148 40.7844 80.7457 40.8114 80.6757 40.8364C80.6047 40.8624 80.5347 40.8863 80.4647 40.9084C80.3237 40.9514 80.1818 40.9884 80.0377 41.0194C79.7497 41.0804 79.4578 41.1164 79.1611 41.1263C57.9281 41.8644 36.5831 41.8644 15.3513 41.1261C15.0543 41.1161 14.7593 41.0801 14.4693 41.0181C14.3963 41.003 14.3233 40.9851 14.2513 40.9671C14.1803 40.9481 14.1093 40.9271 14.0383 40.9051C13.8982 40.8611 13.7593 40.81 13.6233 40.7541C13.4883 40.6971 13.3543 40.633 13.2243 40.5631C13.1583 40.5281 13.0933 40.4911 13.0303 40.4521C12.9663 40.414 12.9043 40.3741 12.8423 40.3331C12.5963 40.1671 12.3703 39.9801 12.1633 39.7701C12.1123 39.7181 12.0622 39.664 12.0123 39.6091C11.9633 39.5541 11.9153 39.4961 11.8683 39.4391C11.7763 39.3231 11.6903 39.2041 11.6113 39.081C11.4513 38.836 11.3183 38.5771 11.2093 38.305C11.1833 38.2361 11.1573 38.1671 11.1333 38.097C11.1103 38.0281 11.0873 37.9581 11.0683 37.888C11.0273 37.7471 10.9933 37.6061 10.9673 37.4631C10.9133 37.1791 10.8863 36.8891 10.8852 36.597C10.8692 31.8131 10.8522 27.0281 10.8322 22.244C10.8122 17.4601 10.7892 12.675 10.7646 7.89146C10.7556 7.73351 10.7496 7.5775 10.7506 7.42149C10.7526 7.26549 10.7616 7.10948 10.7776 6.95445C10.7866 6.87645 10.7976 6.79955 10.8096 6.72252C10.8216 6.64452 10.8366 6.56749 10.8526 6.49144C10.8866 6.33849 10.9266 6.18846 10.9766 6.04149C11.0246 5.89452 11.0816 5.75047 11.1466 5.60948C11.1806 5.53954 11.2146 5.47044 11.2516 5.40147C11.2886 5.3325 11.3276 5.26451 11.3686 5.19749C11.5326 4.93248 11.7246 4.68944 11.9436 4.47154C11.9986 4.41551 12.0556 4.36253 12.1136 4.31053C12.1436 4.28551 12.1736 4.25951 12.2026 4.23351C12.2326 4.20848 12.2646 4.18456 12.2946 4.15953C12.4176 4.06248 12.5456 3.97252 12.6786 3.89049C12.9416 3.72545 13.2246 3.58946 13.5206 3.48045C13.8186 3.37254 14.1226 3.29454 14.4316 3.24254C14.7396 3.19054 15.0546 3.16454 15.3722 3.16344C36.5902 3.06554 57.9212 3.06554 79.1395 3.16356C79.4265 3.16454 79.7105 3.18553 79.9895 3.22752C80.2695 3.27061 80.5445 3.3336 80.8145 3.42052C80.8835 3.44261 80.9505 3.46654 81.0175 3.49156C81.0845 3.51561 81.1495 3.54259 81.2155 3.56956C81.3465 3.6256 81.4735 3.68651 81.5975 3.75255C81.7215 3.81956 81.8415 3.89159 81.9575 3.97057C82.0165 4.00963 82.0735 4.05052 82.1305 4.09361C82.1875 4.1356 82.2425 4.17955 82.2975 4.22459C82.5155 4.4066 82.7105 4.60655 82.8835 4.82555C82.9695 4.93456 83.0495 5.04955 83.1245 5.16856C83.1615 5.22752 83.1975 5.28856 83.2315 5.35057C83.2665 5.41161 83.2995 5.47459 83.3295 5.53758C83.4535 5.78954 83.5495 6.0526 83.6195 6.32457C83.6365 6.39159 83.6525 6.46056 83.6665 6.52953C83.6815 6.59862 83.6935 6.66856 83.7045 6.73851C83.7275 6.87852 83.7415 7.01854 83.7515 7.16014C83.7255 12.0671 83.7015 16.9731 83.6815 21.8791C83.6605 26.7851 83.6425 31.6911 83.6255 36.597" stroke="#FF00FF" stroke-width="0.283465" stroke-miterlimit="10" stroke-linecap="round" stroke-linejoin="round"/>
<path d="M80.8588 44.9191V50.01H80.2423V45.5654H80.2124L78.9695 46.3907V45.7643L80.2423 44.9191H80.8588ZM82.4596 50.0498C82.337 50.0498 82.2317 50.0059 82.1439 49.918C82.0561 49.8302 82.0122 49.725 82.0122 49.6023C82.0122 49.4797 82.0561 49.3745 82.1439 49.2866C82.2317 49.1988 82.337 49.1549 82.4596 49.1549C82.5822 49.1549 82.6875 49.1988 82.7753 49.2866C82.8631 49.3745 82.907 49.4797 82.907 49.6023C82.907 49.6835 82.8863 49.7581 82.8449 49.8261C82.8051 49.894 82.7513 49.9487 82.6833 49.9901C82.617 50.0299 82.5425 50.0498 82.4596 50.0498ZM84.0064 50.01L86.2834 45.5057V45.466H83.6584V44.9191H86.9197V45.4958L84.6527 50.01H84.0064ZM89.3689 50.0796C89.0772 50.0796 88.8145 50.0216 88.5809 49.9056C88.3472 49.7896 88.1599 49.6305 88.0191 49.4283C87.8782 49.2262 87.8012 48.9958 87.7879 48.7373H88.3845C88.4077 48.9676 88.5121 49.1582 88.6977 49.309C88.885 49.4582 89.1087 49.5327 89.3689 49.5327C89.5777 49.5327 89.7633 49.4838 89.9257 49.3861C90.0898 49.2883 90.2182 49.1541 90.311 48.9834C90.4055 48.811 90.4527 48.6163 90.4527 48.3992C90.4527 48.1771 90.4038 47.9791 90.306 47.8051C90.2099 47.6294 90.0773 47.4911 89.9083 47.39C89.7393 47.2889 89.5462 47.2375 89.3291 47.2359C89.1733 47.2342 89.0134 47.2582 88.8493 47.308C88.6853 47.356 88.5502 47.4182 88.4442 47.4944L87.8675 47.4248L88.1757 44.9191H90.8206V45.466H88.6927L88.5138 46.9674H88.5436C88.648 46.8845 88.7789 46.8158 88.9363 46.7611C89.0938 46.7064 89.2578 46.679 89.4285 46.679C89.7401 46.679 90.0177 46.7536 90.2613 46.9028C90.5065 47.0503 90.6988 47.2524 90.838 47.5093C90.9788 47.7662 91.0493 48.0595 91.0493 48.3893C91.0493 48.7141 90.9764 49.0041 90.8305 49.2593C90.6863 49.5129 90.4875 49.7134 90.2339 49.8609C89.9804 50.0067 89.692 50.0796 89.3689 50.0796Z" fill="#0000FF"/>
<path fill-rule="evenodd" clip-rule="evenodd" d="M22.2794 15.4148C22.6906 15.0036 23.3573 15.0036 23.7685 15.4148L29.1613 20.8076C29.1645 20.8108 29.1677 20.814 29.1708 20.8173C29.6233 21.2776 29.7577 21.9643 29.5102 22.5619C29.261 23.1633 28.6741 23.5558 28.0228 23.5558H26.7732C26.6959 23.5558 26.6332 23.6185 26.6332 23.6958V26.7851C26.6332 27.6742 25.9125 28.395 25.0233 28.395H21.0243C20.1352 28.395 19.4144 27.6742 19.4144 26.7851V23.6958C19.4144 23.6185 19.3518 23.5558 19.2744 23.5558H18.0248C17.3736 23.5558 16.7867 23.1635 16.5375 22.5621C16.2886 21.9605 16.4261 21.2681 16.8864 20.8077L22.2794 15.4148ZM28.15 21.8045L23.1229 16.7774C23.0683 16.7227 22.9796 16.7227 22.9249 16.7774L17.8907 21.8116C17.8364 21.8659 17.82 21.9477 17.8495 22.0188C17.8789 22.0899 17.9481 22.1358 18.0248 22.1358H19.9543C20.4401 22.1358 20.8344 22.5295 20.8344 23.0159V26.7851C20.8344 26.89 20.9195 26.975 21.0243 26.975H25.0233C25.1282 26.975 25.2132 26.89 25.2132 26.7851V23.0159C25.2132 22.5299 25.6073 22.1358 26.0933 22.1358H28.0228C28.0995 22.1358 28.1688 22.0896 28.1982 22.0187M28.15 21.8045C28.1523 21.8069 28.1546 21.8092 28.157 21.8116C28.2114 21.866 28.2276 21.9477 28.1982 22.0187" fill="black"/>
<path d="M37.1006 25.8673C35.6943 25.8673 34.7568 25.2814 34.4834 24.4806C34.4395 24.3634 34.415 24.2365 34.415 24.1193C34.415 23.7677 34.6396 23.5431 34.9716 23.5431C35.2499 23.5431 35.4257 23.6554 35.5624 23.9386C35.7821 24.549 36.3876 24.8224 37.1396 24.8224C37.9892 24.8224 38.5849 24.4025 38.5849 23.8165C38.5849 23.3087 38.2333 22.9962 37.3154 22.8057L36.5586 22.6494C35.1475 22.3613 34.4883 21.6972 34.4883 20.667C34.4883 19.4268 35.5772 18.5869 37.1055 18.5869C38.3506 18.5869 39.3174 19.1435 39.6055 20.0762C39.6348 20.1543 39.6494 20.2471 39.6494 20.3643C39.6494 20.6719 39.4297 20.8819 39.1025 20.8819C38.8095 20.8819 38.6289 20.7549 38.497 20.4815C38.2577 19.8858 37.7548 19.6319 37.0956 19.6319C36.3143 19.6319 35.7577 20.003 35.7577 20.5938C35.7577 21.0723 36.1093 21.3799 36.9882 21.5655L37.745 21.7218C39.2294 22.0294 39.8544 22.6251 39.8544 23.6701C39.8544 25.0178 38.7948 25.8674 37.1005 25.8674L37.1006 25.8673Z" fill="black"/>
<path d="M40.9131 25.2081V19.2307C40.9131 18.8449 41.1426 18.6056 41.5138 18.6056C41.885 18.6056 42.1145 18.8449 42.1145 19.2307V20.7064C42.1145 20.8096 42.2211 20.8782 42.315 20.8354C42.6103 20.7008 43.1908 20.476 43.7749 20.476C44.9176 20.476 45.5867 21.2281 45.5867 22.4148V25.2082C45.5867 25.6184 45.3328 25.8479 44.9763 25.8479C44.6198 25.8479 44.3707 25.6184 44.3707 25.2082V22.6639C44.3707 21.9411 44.0093 21.5065 43.3061 21.5065C42.6029 21.5065 42.1292 22.0144 42.1292 22.7762V25.2082C42.1292 25.6184 41.8801 25.8479 41.5236 25.8479C41.1671 25.8479 40.9131 25.6183 40.9131 25.2081Z" fill="black"/>
<path d="M47.3979 20.4717C47.0268 20.4717 46.7924 20.7207 46.7924 21.1114V25.2081C46.7924 25.6036 47.0268 25.8478 47.3979 25.8478C47.769 25.8478 48.0083 25.6037 48.0083 25.2081V21.1163C48.0083 20.7208 47.769 20.4718 47.3979 20.4718V20.4717ZM47.3979 19.8467C47.7788 19.8467 48.0766 19.5537 48.0766 19.1875C48.0766 18.8213 47.7787 18.5283 47.3979 18.5283C47.0171 18.5283 46.7241 18.8164 46.7241 19.1875C46.7241 19.5586 47.022 19.8467 47.3979 19.8467Z" fill="black"/>
<path fill-rule="evenodd" clip-rule="evenodd" d="M50.2618 25.8477C49.8956 25.8477 49.6514 25.6231 49.6514 25.2129V21.6535C49.6514 21.5752 49.5879 21.5118 49.5097 21.5118H49.3292C49.0558 21.5118 48.8604 21.3458 48.8604 21.0479C48.8604 20.75 49.0557 20.5889 49.3292 20.5889H49.5097C49.588 20.5889 49.6514 20.5254 49.6514 20.4472V20.1299C49.6514 19.1192 50.1023 18.6505 51.213 18.6505C51.9889 18.6505 52.0097 18.9955 52.0097 19.1583C52.0097 19.3413 51.8989 19.5305 51.7166 19.5785C51.6311 19.601 51.5976 19.6036 51.4725 19.609C51.0285 19.6281 50.8475 19.7492 50.8475 20.1838V20.4473C50.8475 20.5238 50.9081 20.5861 50.9838 20.5889H52.3681C52.3806 20.5883 52.3932 20.588 52.4061 20.588H52.5915C52.6698 20.588 52.7332 20.5245 52.7332 20.4463V19.8833C52.7332 19.4926 52.9676 19.2484 53.3437 19.2484C53.7198 19.2484 53.9493 19.4925 53.9493 19.8833V20.4463C53.9493 20.5246 54.0128 20.588 54.091 20.588H54.5109C54.8136 20.588 54.9993 20.7588 54.9993 21.047C54.9993 21.3352 54.8138 21.5109 54.5109 21.5109H54.091C54.0127 21.5109 53.9493 21.5744 53.9493 21.6526V24.2052C53.9493 24.5959 54.086 24.7668 54.4377 24.7961L54.5256 24.8059C54.8479 24.8352 55.014 24.9719 55.014 25.2552C55.014 25.6116 54.7015 25.8022 54.1448 25.8022H54.096C53.1926 25.8022 52.7335 25.3529 52.7335 24.469H52.7333L52.7332 24.4689V21.6526C52.7332 21.5797 52.6782 21.5198 52.6076 21.5118H51.5131C51.5094 21.5119 51.5056 21.5119 51.5018 21.5119H51.0088C50.9305 21.5119 50.8671 21.5754 50.8671 21.6536V25.213C50.8671 25.6232 50.623 25.8478 50.2616 25.8478L50.2618 25.8477Z" fill="black"/>
</svg>
