<svg width="95" height="54" viewBox="0 0 95 54" fill="none" xmlns="http://www.w3.org/2000/svg">
<rect x="1.85" y="1.84961" width="90.8" height="50.3" rx="3" stroke="#8B1EFF" stroke-width="0.28"/>
<path d="M9.90808 37.0565C9.93207 37.7185 10.084 38.3814 10.3498 38.9937C10.6218 39.6168 11.0108 40.1858 11.4894 40.6655C11.9725 41.1505 12.5445 41.5435 13.1692 41.8247C13.7902 42.1036 14.4622 42.2716 15.1375 42.3183C25.8384 42.6733 36.5444 42.8513 47.2508 42.8517C57.9578 42.8517 68.6638 42.6737 79.3646 42.3186C80.0385 42.2706 80.7115 42.0976 81.33 41.8195C81.643 41.6797 81.9431 41.5127 82.2242 41.3198C82.5052 41.1268 82.7702 40.9078 83.0126 40.6661C83.2526 40.4251 83.4706 40.1622 83.6628 39.88C83.8519 39.6009 84.0168 39.3039 84.1497 38.9942C84.2167 38.8392 84.2757 38.6822 84.3273 38.5228C84.3793 38.3648 84.4243 38.2048 84.4612 38.0418C84.5363 37.7188 84.5853 37.3889 84.5938 37.0575C84.6708 27.1264 84.7728 17.1944 84.9016 7.26352C84.8876 6.71957 84.7916 6.17453 84.6219 5.65439C84.4529 5.13937 84.2089 4.64731 83.8973 4.20529C83.7413 3.98422 83.5693 3.77634 83.3809 3.58298C83.1938 3.39096 82.9919 3.21396 82.7748 3.05319C82.3448 2.73312 81.8639 2.47812 81.3613 2.29684C80.8863 2.12985 80.3873 2.02487 79.8863 1.97751C79.7183 1.96249 79.5503 1.95248 79.3816 1.95041C57.9615 1.85641 36.5406 1.85641 15.1202 1.95016C14.4182 1.95822 13.7112 2.08713 13.0491 2.33774C12.3901 2.58774 11.7741 2.95871 11.264 3.44199C10.7499 3.92795 10.345 4.52695 10.063 5.18051C9.77905 5.83945 9.62006 6.55246 9.59961 7.26389C9.72565 17.1949 9.82861 27.1259 9.90765 37.0578" stroke="#8B1EFF" stroke-width="0.283" stroke-miterlimit="10"/>
<path d="M81.033 40.8394H13.4791C12.304 40.8395 11.353 39.8875 11.353 38.7134C11.353 38.7137 11.353 6.47266 11.353 6.47266C11.353 5.29871 12.304 4.34668 13.4791 4.34668C13.479 4.34668 17.022 4.34668 17.022 4.34668C17.0219 4.34668 77.4899 4.34668 77.4899 4.34668C77.4897 4.34668 81.0327 4.34668 81.0327 4.34668C82.2077 4.34668 83.1588 5.29871 83.1588 6.47241C83.1588 6.47241 83.1588 38.7134 83.1587 38.7134C83.1587 39.8875 82.208 40.8394 81.033 40.8394ZM81.033 40.8394L81.0308 40.668C81.0618 40.667 81.0928 40.666 81.1248 40.665" stroke="#00FFFF" stroke-width="0.28" stroke-miterlimit="10"/>
<path d="M83.6267 36.5972C83.6257 36.8902 83.5977 37.1812 83.5438 37.4692C83.4887 37.7582 83.4077 38.0383 83.2997 38.3092C83.2457 38.4452 83.1847 38.5782 83.1177 38.7092C83.0837 38.7742 83.0477 38.8392 83.0107 38.9032C82.9737 38.9672 82.9347 39.0302 82.8937 39.0912C82.7338 39.3372 82.5507 39.5652 82.3437 39.7752C82.2907 39.8282 82.2377 39.8792 82.1827 39.9292C82.1287 39.9792 82.0717 40.0282 82.0147 40.0752C81.8997 40.1692 81.7817 40.2572 81.6597 40.3392C81.4157 40.5022 81.1567 40.6412 80.8837 40.7552C80.8148 40.7842 80.7457 40.8112 80.6757 40.8362C80.6047 40.8622 80.5347 40.8862 80.4647 40.9082C80.3237 40.9512 80.1818 40.9882 80.0377 41.0192C79.7497 41.0802 79.4578 41.1163 79.1611 41.1261C57.9281 41.8642 36.5831 41.8642 15.3513 41.1259C15.0543 41.1159 14.7593 41.0799 14.4693 41.0179C14.3963 41.0029 14.3233 40.9849 14.2513 40.967C14.1803 40.9479 14.1093 40.9269 14.0383 40.905C13.8982 40.8609 13.7593 40.8099 13.6233 40.754C13.4883 40.6969 13.3543 40.6329 13.2243 40.5629C13.1583 40.5279 13.0933 40.4909 13.0303 40.452C12.9663 40.4139 12.9043 40.3739 12.8423 40.3329C12.5963 40.1669 12.3703 39.9799 12.1633 39.7699C12.1123 39.7179 12.0622 39.6639 12.0123 39.6089C11.9633 39.5539 11.9153 39.4959 11.8683 39.4389C11.7763 39.3229 11.6903 39.2039 11.6113 39.0809C11.4513 38.8359 11.3183 38.577 11.2093 38.3049C11.1833 38.2359 11.1573 38.1669 11.1333 38.0968C11.1103 38.0279 11.0873 37.9579 11.0683 37.8879C11.0273 37.7469 10.9933 37.6059 10.9673 37.4629C10.9133 37.1789 10.8863 36.889 10.8852 36.5968C10.8692 31.8129 10.8522 27.0279 10.8322 22.2438C10.8122 17.4599 10.7892 12.6749 10.7646 7.89128C10.7556 7.73332 10.7496 7.57732 10.7506 7.42131C10.7526 7.2653 10.7616 7.1093 10.7776 6.95427C10.7866 6.87627 10.7976 6.79936 10.8096 6.72234C10.8216 6.64433 10.8366 6.56731 10.8526 6.49126C10.8866 6.3383 10.9266 6.18828 10.9766 6.04131C11.0246 5.89433 11.0816 5.75029 11.1466 5.6093C11.1806 5.53935 11.2146 5.47026 11.2516 5.40129C11.2886 5.33232 11.3276 5.26433 11.3686 5.19731C11.5326 4.9323 11.7246 4.68925 11.9436 4.47136C11.9986 4.41533 12.0556 4.36235 12.1136 4.31035C12.1436 4.28532 12.1736 4.25932 12.2026 4.23332C12.2326 4.2083 12.2646 4.18437 12.2946 4.15935C12.4176 4.0623 12.5456 3.97234 12.6786 3.8903C12.9416 3.72527 13.2246 3.58928 13.5206 3.48027C13.8186 3.37236 14.1226 3.29436 14.4316 3.24236C14.7396 3.19035 15.0546 3.16435 15.3722 3.16325C36.5902 3.06535 57.9212 3.06535 79.1395 3.16338C79.4265 3.16435 79.7105 3.18535 79.9895 3.22734C80.2695 3.27043 80.5445 3.33342 80.8145 3.42033C80.8835 3.44243 80.9505 3.46635 81.0175 3.49138C81.0845 3.51543 81.1495 3.5424 81.2155 3.56938C81.3465 3.62541 81.4735 3.68633 81.5975 3.75237C81.7215 3.81938 81.8415 3.8914 81.9575 3.97038C82.0165 4.00945 82.0735 4.05034 82.1305 4.09343C82.1875 4.13542 82.2425 4.17937 82.2975 4.22441C82.5155 4.40642 82.7105 4.60637 82.8835 4.82536C82.9695 4.93437 83.0495 5.04936 83.1245 5.16838C83.1615 5.22734 83.1975 5.28838 83.2315 5.35039C83.2665 5.41142 83.2995 5.47441 83.3295 5.5374C83.4535 5.78935 83.5495 6.05241 83.6195 6.32439C83.6365 6.3914 83.6525 6.46037 83.6665 6.52934C83.6815 6.59843 83.6935 6.66838 83.7045 6.73833C83.7275 6.87834 83.7415 7.01836 83.7515 7.15996C83.7255 12.0669 83.7015 16.9729 83.6815 21.879C83.6605 26.785 83.6425 31.691 83.6255 36.5968" stroke="#FF00FF" stroke-width="0.283465" stroke-miterlimit="10" stroke-linecap="round" stroke-linejoin="round"/>
<path d="M80.859 44.9189V50.0098H80.2425V45.5652H80.2127L78.9698 46.3904V45.764L80.2425 44.9189H80.859ZM82.4598 50.0495C82.3372 50.0495 82.232 50.0056 82.1442 49.9178C82.0563 49.83 82.0124 49.7247 82.0124 49.6021C82.0124 49.4795 82.0563 49.3742 82.1442 49.2864C82.232 49.1986 82.3372 49.1547 82.4598 49.1547C82.5825 49.1547 82.6877 49.1986 82.7755 49.2864C82.8634 49.3742 82.9073 49.4795 82.9073 49.6021C82.9073 49.6833 82.8866 49.7579 82.8451 49.8258C82.8054 49.8938 82.7515 49.9484 82.6836 49.9899C82.6173 50.0297 82.5427 50.0495 82.4598 50.0495ZM84.0066 50.0098L86.2836 45.5055V45.4657H83.6586V44.9189H86.92V45.4956L84.6529 50.0098H84.0066ZM89.3691 50.0794C89.0775 50.0794 88.8148 50.0214 88.5811 49.9054C88.3475 49.7894 88.1602 49.6303 88.0193 49.4281C87.8785 49.2259 87.8014 48.9956 87.7882 48.737H88.3847C88.4079 48.9674 88.5123 49.158 88.698 49.3088C88.8852 49.4579 89.1089 49.5325 89.3691 49.5325C89.5779 49.5325 89.7635 49.4836 89.9259 49.3858C90.09 49.2881 90.2184 49.1538 90.3112 48.9831C90.4057 48.8108 90.4529 48.6161 90.4529 48.399C90.4529 48.1769 90.404 47.9789 90.3063 47.8049C90.2101 47.6292 90.0776 47.4908 89.9085 47.3897C89.7395 47.2886 89.5464 47.2373 89.3293 47.2356C89.1736 47.234 89.0136 47.258 88.8496 47.3077C88.6855 47.3558 88.5505 47.4179 88.4444 47.4941L87.8677 47.4245L88.1759 44.9189H90.8208V45.4657H88.693L88.514 46.9672H88.5438C88.6482 46.8843 88.7792 46.8155 88.9366 46.7608C89.094 46.7061 89.2581 46.6788 89.4288 46.6788C89.7403 46.6788 90.0179 46.7534 90.2615 46.9025C90.5068 47.05 90.699 47.2522 90.8382 47.5091C90.9791 47.7659 91.0495 48.0592 91.0495 48.389C91.0495 48.7138 90.9766 49.0038 90.8308 49.2591C90.6866 49.5126 90.4877 49.7131 90.2342 49.8606C89.9806 50.0065 89.6923 50.0794 89.3691 50.0794Z" fill="#0000FF"/>
<path fill-rule="evenodd" clip-rule="evenodd" d="M22.2793 15.4148C22.6904 15.0037 23.3572 15.0037 23.7684 15.4148L29.1612 20.8076C29.1644 20.8108 29.1676 20.8141 29.1707 20.8174C29.6232 21.2777 29.7576 21.9644 29.5101 22.562C29.2609 23.1634 28.6739 23.5559 28.0227 23.5559H26.7731C26.6958 23.5559 26.6331 23.6186 26.6331 23.6959V26.7852C26.6331 27.6743 25.9123 28.3951 25.0232 28.3951H21.0242C20.1351 28.3951 19.4143 27.6743 19.4143 26.7852V23.6959C19.4143 23.6186 19.3516 23.5559 19.2743 23.5559H18.0247C17.3735 23.5559 16.7866 23.1635 16.5374 22.5621C16.2885 21.9606 16.426 21.2681 16.8863 20.8077L22.2793 15.4148ZM28.1499 21.8046L23.1228 16.7775C23.0681 16.7228 22.9795 16.7228 22.9248 16.7775L17.8906 21.8116C17.8363 21.866 17.8199 21.9477 17.8494 22.0189C17.8788 22.0899 17.9479 22.1359 18.0247 22.1359H19.9542C20.44 22.1359 20.8343 22.5296 20.8343 23.016V26.7852C20.8343 26.89 20.9193 26.9751 21.0242 26.9751H25.0232C25.1281 26.9751 25.2131 26.89 25.2131 26.7852V23.016C25.2131 22.5299 25.6072 22.1359 26.0932 22.1359H28.0227C28.0994 22.1359 28.1687 22.0897 28.1981 22.0187M28.1499 21.8046C28.1522 21.8069 28.1545 21.8093 28.1569 21.8116C28.2113 21.8661 28.2274 21.9478 28.1981 22.0187" fill="black"/>
<path d="M37.1006 25.8673C35.6943 25.8673 34.7568 25.2814 34.4834 24.4806C34.4395 24.3634 34.415 24.2365 34.415 24.1193C34.415 23.7677 34.6396 23.5431 34.9716 23.5431C35.2499 23.5431 35.4257 23.6554 35.5624 23.9386C35.7821 24.549 36.3876 24.8224 37.1396 24.8224C37.9892 24.8224 38.5849 24.4025 38.5849 23.8165C38.5849 23.3087 38.2333 22.9962 37.3154 22.8057L36.5586 22.6494C35.1475 22.3613 34.4883 21.6972 34.4883 20.667C34.4883 19.4268 35.5772 18.5869 37.1055 18.5869C38.3506 18.5869 39.3174 19.1435 39.6055 20.0762C39.6348 20.1543 39.6494 20.2471 39.6494 20.3643C39.6494 20.6719 39.4297 20.8819 39.1025 20.8819C38.8095 20.8819 38.6289 20.7549 38.497 20.4815C38.2577 19.8858 37.7548 19.6319 37.0956 19.6319C36.3143 19.6319 35.7577 20.003 35.7577 20.5938C35.7577 21.0723 36.1093 21.3799 36.9882 21.5655L37.745 21.7218C39.2294 22.0294 39.8544 22.6251 39.8544 23.6701C39.8544 25.0178 38.7948 25.8674 37.1005 25.8674L37.1006 25.8673Z" fill="black"/>
<path d="M40.9131 25.208V19.2306C40.9131 18.8448 41.1426 18.6055 41.5138 18.6055C41.885 18.6055 42.1145 18.8448 42.1145 19.2306V20.7063C42.1145 20.8095 42.2211 20.8781 42.315 20.8353C42.6103 20.7007 43.1908 20.4759 43.7749 20.4759C44.9176 20.4759 45.5867 21.228 45.5867 22.4147V25.2081C45.5867 25.6183 45.3328 25.8478 44.9763 25.8478C44.6198 25.8478 44.3707 25.6183 44.3707 25.2081V22.6638C44.3707 21.941 44.0093 21.5064 43.3061 21.5064C42.6029 21.5064 42.1292 22.0143 42.1292 22.7761V25.2081C42.1292 25.6183 41.8801 25.8478 41.5236 25.8478C41.1671 25.8478 40.9131 25.6182 40.9131 25.208Z" fill="black"/>
<path d="M47.3979 20.4717C47.0268 20.4717 46.7924 20.7207 46.7924 21.1114V25.2081C46.7924 25.6036 47.0268 25.8478 47.3979 25.8478C47.769 25.8478 48.0083 25.6037 48.0083 25.2081V21.1163C48.0083 20.7208 47.769 20.4718 47.3979 20.4718V20.4717ZM47.3979 19.8467C47.7788 19.8467 48.0766 19.5537 48.0766 19.1875C48.0766 18.8213 47.7787 18.5283 47.3979 18.5283C47.0171 18.5283 46.7241 18.8164 46.7241 19.1875C46.7241 19.5586 47.022 19.8467 47.3979 19.8467Z" fill="black"/>
<path fill-rule="evenodd" clip-rule="evenodd" d="M50.2618 25.8476C49.8956 25.8476 49.6514 25.623 49.6514 25.2128V21.6534C49.6514 21.5751 49.5879 21.5117 49.5097 21.5117H49.3292C49.0558 21.5117 48.8604 21.3457 48.8604 21.0478C48.8604 20.7499 49.0557 20.5888 49.3292 20.5888H49.5097C49.588 20.5888 49.6514 20.5253 49.6514 20.4471V20.1298C49.6514 19.1191 50.1023 18.6504 51.213 18.6504C51.9889 18.6504 52.0097 18.9954 52.0097 19.1582C52.0097 19.3412 51.8989 19.5304 51.7166 19.5784C51.6311 19.6009 51.5976 19.6035 51.4725 19.6089C51.0285 19.628 50.8475 19.7491 50.8475 20.1837V20.4472C50.8475 20.5237 50.9081 20.586 50.9838 20.5888H52.3681C52.3806 20.5882 52.3932 20.5879 52.4061 20.5879H52.5915C52.6698 20.5879 52.7332 20.5244 52.7332 20.4462V19.8832C52.7332 19.4925 52.9676 19.2483 53.3437 19.2483C53.7198 19.2483 53.9493 19.4924 53.9493 19.8832V20.4462C53.9493 20.5245 54.0128 20.5879 54.091 20.5879H54.5109C54.8136 20.5879 54.9993 20.7587 54.9993 21.0469C54.9993 21.3351 54.8138 21.5108 54.5109 21.5108H54.091C54.0127 21.5108 53.9493 21.5743 53.9493 21.6525V24.2051C53.9493 24.5958 54.086 24.7667 54.4377 24.796L54.5256 24.8058C54.8479 24.8351 55.014 24.9718 55.014 25.2551C55.014 25.6115 54.7015 25.8021 54.1448 25.8021H54.096C53.1926 25.8021 52.7335 25.3528 52.7335 24.4689H52.7333L52.7332 24.4688V21.6525C52.7332 21.5796 52.6782 21.5197 52.6076 21.5117H51.5131C51.5094 21.5118 51.5056 21.5118 51.5018 21.5118H51.0088C50.9305 21.5118 50.8671 21.5753 50.8671 21.6535V25.2129C50.8671 25.6231 50.623 25.8477 50.2616 25.8477L50.2618 25.8476Z" fill="black"/>
</svg>
