<svg width="68" height="54" viewBox="0 0 68 54" fill="none" xmlns="http://www.w3.org/2000/svg">
<rect x="2.3501" y="1.85001" width="63.8" height="50.3" rx="3" stroke="#8B1EFF" stroke-width="0.28"/>
<path d="M10.6999 37.0328C10.7199 37.6928 10.8699 38.3628 11.1399 38.9728C11.4099 39.6028 11.7899 40.1728 12.2599 40.6628C12.7299 41.1528 13.2999 41.5628 13.9199 41.8528C14.5299 42.1428 15.1999 42.3228 15.8699 42.3728C21.9899 42.6628 28.1199 42.8128 34.2499 42.8128C40.3799 42.8128 46.5099 42.6628 52.6299 42.3728C53.2999 42.3128 53.9699 42.1328 54.5799 41.8428C54.8899 41.6928 55.1799 41.5228 55.4599 41.3228C55.7399 41.1228 55.9999 40.9028 56.2399 40.6528C56.4799 40.4028 56.6899 40.1428 56.8799 39.8528C57.0699 39.5728 57.2299 39.2728 57.3599 38.9628C57.4899 38.6528 57.5899 38.3328 57.6599 38.0028C57.7299 37.6828 57.7799 37.3528 57.7899 37.0128C57.8699 27.0728 57.9699 17.1328 58.0999 7.20277C58.0799 6.66277 57.9999 6.12277 57.8299 5.61277C57.6699 5.10277 57.4399 4.61277 57.1299 4.17277C56.8299 3.73277 56.4599 3.34277 56.0499 3.02277C55.6299 2.70277 55.1699 2.44277 54.6699 2.25277C54.4399 2.16277 54.1999 2.09277 53.9599 2.04277C53.7199 1.99277 53.4699 1.95277 53.2199 1.92277C53.0499 1.90277 52.8899 1.89277 52.7199 1.89277C40.3999 1.83277 28.0799 1.83277 15.7699 1.91277C15.0799 1.91277 14.3799 2.05277 13.7399 2.31277C13.4199 2.44277 13.1099 2.59277 12.8199 2.78277C12.5299 2.97277 12.2499 3.18277 12.0099 3.42277C11.7599 3.66277 11.5399 3.94277 11.3399 4.22277C11.1399 4.51277 10.9799 4.82277 10.8499 5.15277C10.5799 5.80277 10.4199 6.51278 10.3999 7.22277C10.5199 17.1628 10.6299 27.1028 10.7099 37.0328" stroke="#8B1EFF" stroke-width="0.28" stroke-miterlimit="10"/>
<path d="M13.7901 4.34277C13.0101 4.34277 12.3701 4.98277 12.3701 5.76277V38.9228C12.3701 39.7028 13.0001 40.3428 13.7901 40.3428H54.6101C55.3901 40.3428 56.0301 39.7128 56.0301 38.9228V5.76277C56.0301 4.98277 55.3901 4.34277 54.6101 4.34277" stroke="#00FFFF" stroke-width="0.28" stroke-miterlimit="10"/>
<path d="M15.95 41.1328C15.76 41.1328 15.58 41.1028 15.4 41.0728C14.92 40.9928 14.45 40.8328 14.02 40.6128C13.59 40.3828 13.19 40.0828 12.86 39.7228C12.72 39.5728 12.59 39.4128 12.47 39.2528C12.18 38.8428 11.96 38.3828 11.82 37.9028C11.69 37.4628 11.62 37.0028 11.62 36.5428C11.6 31.6828 11.58 26.8328 11.56 21.9728C11.56 20.8028 11.56 19.6428 11.55 18.4728C11.54 15.2828 11.52 12.0928 11.5 8.90277C11.5 8.40277 11.5 7.89277 11.5 7.39277C11.5 7.35277 11.5 7.31277 11.5 7.27277C11.5 7.23277 11.5 7.19277 11.5 7.15277C11.5 7.11277 11.5 7.07277 11.5 7.03277C11.5 6.99277 11.5 6.95277 11.5 6.91277V6.79277C11.5 6.79277 11.52 6.71277 11.53 6.67277C11.53 6.63277 11.54 6.59277 11.55 6.56277C11.55 6.52277 11.56 6.48277 11.57 6.45277C11.57 6.41277 11.58 6.37277 11.59 6.34277C11.59 6.30277 11.61 6.26277 11.61 6.23277C11.62 6.19277 11.63 6.16277 11.64 6.12277C11.64 6.08277 11.66 6.05277 11.67 6.01277C11.68 5.97277 11.69 5.94277 11.7 5.90277C11.71 5.86277 11.72 5.83277 11.74 5.79277C11.75 5.75277 11.77 5.72277 11.78 5.68277C11.81 5.61277 11.84 5.55277 11.87 5.48277C11.9 5.41277 11.93 5.35277 11.97 5.29277C12 5.23277 12.04 5.16277 12.07 5.10277C12.11 5.04277 12.15 4.98277 12.19 4.92277C12.27 4.80277 12.36 4.68277 12.45 4.57277C12.54 4.46277 12.64 4.36277 12.74 4.26277C12.84 4.16277 12.95 4.07277 13.07 3.98277C13.18 3.89277 13.3 3.81277 13.43 3.73277C13.49 3.69277 13.55 3.66277 13.62 3.62277C13.68 3.59277 13.75 3.55277 13.81 3.52277C13.87 3.49277 13.94 3.46277 14.01 3.43277C14.08 3.40277 14.14 3.38277 14.21 3.35277C14.23 3.35277 14.25 3.34277 14.27 3.33277C14.29 3.33277 14.31 3.32277 14.33 3.31277C14.35 3.31277 14.37 3.30277 14.38 3.29277L14.44 3.27277C14.44 3.27277 14.48 3.26277 14.5 3.25277C14.52 3.25277 14.54 3.24277 14.56 3.23277C14.58 3.23277 14.6 3.23277 14.62 3.22277C14.64 3.22277 14.66 3.21277 14.68 3.20277C14.7 3.20277 14.72 3.19277 14.74 3.18277C14.76 3.18277 14.78 3.18277 14.8 3.17277C14.82 3.17277 14.84 3.17277 14.86 3.16277C14.88 3.16277 14.9 3.16277 14.92 3.15277C14.94 3.15277 14.96 3.15277 14.98 3.14277C15 3.14277 15.02 3.14277 15.04 3.13277C15.06 3.13277 15.08 3.13277 15.1 3.13277C15.12 3.13277 15.14 3.13277 15.16 3.12277C15.18 3.12277 15.2 3.12277 15.22 3.12277C15.24 3.12277 15.26 3.12277 15.28 3.12277C15.3 3.12277 15.32 3.12277 15.34 3.12277C15.36 3.12277 15.38 3.12277 15.4 3.12277C15.42 3.12277 15.44 3.12277 15.46 3.12277C15.48 3.12277 15.5 3.12277 15.52 3.12277C15.54 3.12277 15.56 3.12277 15.58 3.12277C15.6 3.12277 15.62 3.12277 15.64 3.12277C15.66 3.12277 15.68 3.12277 15.7 3.12277C15.72 3.12277 15.74 3.12277 15.76 3.12277C15.78 3.12277 15.8 3.12277 15.82 3.12277C15.84 3.12277 15.86 3.12277 15.88 3.12277C15.9 3.12277 15.92 3.12277 15.94 3.12277C16.04 3.12277 16.14 3.12277 16.25 3.12277C16.35 3.12277 16.45 3.12277 16.55 3.12277C16.65 3.12277 16.75 3.12277 16.86 3.12277C16.96 3.12277 17.06 3.12277 17.17 3.12277C17.27 3.12277 17.37 3.12277 17.48 3.12277C17.58 3.12277 17.68 3.12277 17.79 3.12277C17.89 3.12277 17.99 3.12277 18.1 3.12277C18.2 3.12277 18.3 3.12277 18.41 3.12277C18.51 3.12277 18.61 3.12277 18.72 3.12277C18.82 3.12277 18.92 3.12277 19.03 3.12277C19.13 3.12277 19.23 3.12277 19.34 3.12277C19.44 3.12277 19.54 3.12277 19.65 3.12277C19.75 3.12277 19.85 3.12277 19.95 3.12277C20.05 3.12277 20.16 3.12277 20.26 3.12277C20.36 3.12277 20.46 3.12277 20.57 3.12277C20.67 3.12277 20.77 3.12277 20.88 3.12277C20.98 3.12277 21.08 3.12277 21.19 3.12277C21.29 3.12277 21.39 3.12277 21.5 3.12277C21.6 3.12277 21.7 3.12277 21.81 3.12277C21.91 3.12277 22.01 3.12277 22.12 3.12277C22.22 3.12277 22.33 3.12277 22.43 3.12277H22.74C22.84 3.12277 22.94 3.12277 23.05 3.12277C23.15 3.12277 23.25 3.12277 23.36 3.12277C23.46 3.12277 23.57 3.12277 23.67 3.12277C23.77 3.12277 23.87 3.12277 23.98 3.12277C24.09 3.12277 24.18 3.12277 24.29 3.12277C24.39 3.12277 24.49 3.12277 24.6 3.12277H24.91C25.01 3.12277 25.11 3.12277 25.22 3.12277C25.33 3.12277 25.43 3.12277 25.53 3.12277C25.63 3.12277 25.73 3.12277 25.84 3.12277C25.95 3.12277 26.05 3.12277 26.15 3.12277C26.25 3.12277 26.36 3.12277 26.46 3.12277C26.56 3.12277 26.66 3.12277 26.77 3.12277C26.88 3.12277 26.97 3.12277 27.08 3.12277C27.18 3.12277 27.28 3.12277 27.39 3.12277H27.7C27.8 3.12277 27.9 3.12277 28.01 3.12277C28.12 3.12277 28.22 3.12277 28.32 3.12277H28.63C28.73 3.12277 28.84 3.12277 28.94 3.12277C29.04 3.12277 29.14 3.12277 29.25 3.12277H29.56C29.66 3.12277 29.77 3.12277 29.87 3.12277H30.18C30.28 3.12277 30.38 3.12277 30.49 3.12277H30.8C30.9 3.12277 31 3.12277 31.11 3.12277H31.72C31.82 3.12277 31.92 3.12277 32.03 3.12277H33.88C33.98 3.12277 34.09 3.12277 34.19 3.12277H34.5C34.6 3.12277 34.7 3.12277 34.81 3.12277H36.66C36.76 3.12277 36.87 3.12277 36.97 3.12277H37.58C37.68 3.12277 37.79 3.12277 37.89 3.12277H38.2C38.3 3.12277 38.41 3.12277 38.51 3.12277H38.82C38.92 3.12277 39.02 3.12277 39.13 3.12277H39.44C39.54 3.12277 39.64 3.12277 39.75 3.12277C39.86 3.12277 39.95 3.12277 40.06 3.12277H40.37C40.47 3.12277 40.58 3.12277 40.68 3.12277C40.78 3.12277 40.89 3.12277 40.99 3.12277H41.3C41.4 3.12277 41.5 3.12277 41.61 3.12277C41.71 3.12277 41.82 3.12277 41.92 3.12277C42.02 3.12277 42.12 3.12277 42.23 3.12277C42.34 3.12277 42.43 3.12277 42.54 3.12277C42.65 3.12277 42.75 3.12277 42.85 3.12277C42.95 3.12277 43.06 3.12277 43.16 3.12277C43.26 3.12277 43.36 3.12277 43.47 3.12277C43.58 3.12277 43.67 3.12277 43.78 3.12277C43.89 3.12277 43.98 3.12277 44.09 3.12277C44.2 3.12277 44.3 3.12277 44.4 3.12277C44.5 3.12277 44.6 3.12277 44.71 3.12277H45.02C45.12 3.12277 45.22 3.12277 45.33 3.12277C45.43 3.12277 45.54 3.12277 45.64 3.12277C45.74 3.12277 45.84 3.12277 45.95 3.12277C46.05 3.12277 46.15 3.12277 46.26 3.12277C46.36 3.12277 46.46 3.12277 46.57 3.12277C46.67 3.12277 46.78 3.12277 46.88 3.12277C46.98 3.12277 47.08 3.12277 47.19 3.12277C47.29 3.12277 47.39 3.12277 47.5 3.12277C47.6 3.12277 47.7 3.12277 47.81 3.12277C47.91 3.12277 48.01 3.12277 48.12 3.12277C48.22 3.12277 48.32 3.12277 48.43 3.12277C48.53 3.12277 48.63 3.12277 48.74 3.12277C48.84 3.12277 48.95 3.12277 49.05 3.12277C49.15 3.12277 49.25 3.12277 49.36 3.12277C49.46 3.12277 49.56 3.12277 49.67 3.12277C49.77 3.12277 49.88 3.12277 49.98 3.12277C50.08 3.12277 50.18 3.12277 50.29 3.12277C50.39 3.12277 50.49 3.12277 50.59 3.12277C50.69 3.12277 50.79 3.12277 50.9 3.12277C51 3.12277 51.1 3.12277 51.21 3.12277C51.31 3.12277 51.41 3.12277 51.51 3.12277C51.61 3.12277 51.71 3.12277 51.82 3.12277C51.92 3.12277 52.02 3.12277 52.13 3.12277C52.23 3.12277 52.33 3.12277 52.43 3.12277C52.53 3.12277 52.63 3.12277 52.74 3.12277C52.78 3.12277 52.82 3.12277 52.86 3.12277C52.9 3.12277 52.94 3.12277 52.98 3.12277C53.02 3.12277 53.06 3.12277 53.1 3.12277C53.14 3.12277 53.18 3.12277 53.22 3.13277C53.26 3.13277 53.3 3.13277 53.34 3.14277L53.46 3.16277C53.46 3.16277 53.54 3.17277 53.58 3.18277C53.62 3.18277 53.66 3.19277 53.7 3.20277C53.74 3.20277 53.77 3.22277 53.81 3.22277C53.85 3.22277 53.89 3.24277 53.92 3.25277C53.96 3.25277 54 3.27277 54.03 3.28277C54.07 3.28277 54.1 3.30277 54.14 3.31277C54.18 3.32277 54.21 3.33277 54.25 3.34277C54.29 3.35277 54.32 3.36277 54.36 3.37277C54.4 3.38277 54.43 3.39277 54.47 3.41277C54.54 3.44277 54.61 3.46277 54.67 3.49277C54.74 3.52277 54.8 3.55277 54.87 3.58277C54.93 3.61277 55 3.65277 55.06 3.68277C55.12 3.71277 55.19 3.75277 55.25 3.79277C55.37 3.87277 55.49 3.95277 55.61 4.04277C55.72 4.13277 55.83 4.22277 55.93 4.32277C56.03 4.42277 56.13 4.52277 56.22 4.63277C56.31 4.74277 56.4 4.86277 56.48 4.98277C56.52 5.04277 56.56 5.10277 56.59 5.16277C56.63 5.22277 56.66 5.28277 56.69 5.35277C56.72 5.41277 56.75 5.48277 56.78 5.54277C56.81 5.61277 56.84 5.67277 56.86 5.74277C56.86 5.76277 56.87 5.78277 56.88 5.80277C56.88 5.82277 56.89 5.84277 56.9 5.85277L56.92 5.91277C56.92 5.91277 56.93 5.95277 56.94 5.97277C56.94 5.99277 56.95 6.01277 56.96 6.03277C56.96 6.05277 56.97 6.07277 56.98 6.09277C56.98 6.11277 56.99 6.13277 57 6.15277C57 6.17277 57.01 6.19277 57.02 6.21277V6.27277C57.02 6.27277 57.04 6.31277 57.05 6.33277C57.05 6.35277 57.05 6.37277 57.06 6.39277C57.06 6.41277 57.06 6.43277 57.07 6.45277C57.07 6.47277 57.07 6.49277 57.08 6.51277V6.57277C57.08 6.57277 57.1 6.61277 57.1 6.63277C57.1 6.65277 57.1 6.67277 57.1 6.69277C57.1 6.71277 57.1 6.73277 57.1 6.75277C57.1 6.77277 57.1 6.79277 57.1 6.81277C57.1 6.83277 57.1 6.85277 57.1 6.87277C57.1 6.89277 57.1 6.91277 57.1 6.93277C57.1 6.95277 57.1 6.97277 57.1 6.99277C57.1 7.01277 57.1 7.03277 57.1 7.05277C57.1 7.07277 57.1 7.09277 57.1 7.11277C57.1 7.13277 57.1 7.15277 57.1 7.17277V7.23277C57.1 7.23277 57.1 7.27277 57.1 7.29277C57.1 7.31277 57.1 7.33277 57.1 7.35277C57.1 7.37277 57.1 7.39277 57.1 7.41277V7.47277V8.99277C57.08 12.1828 57.07 15.3728 57.05 18.5728C57.05 19.7328 57.04 20.9028 57.04 22.0628C57.02 26.9128 57 31.7728 56.98 36.6228C56.98 36.6628 56.98 36.7028 56.98 36.7428C56.98 36.7828 56.98 36.8228 56.98 36.8628C56.98 36.9028 56.98 36.9428 56.98 36.9828C56.98 37.0228 56.98 37.0628 56.98 37.1028C56.98 37.1428 56.98 37.1828 56.97 37.2128C56.97 37.2528 56.96 37.2928 56.95 37.3228C56.95 37.3628 56.94 37.4028 56.93 37.4328L56.91 37.5428C56.91 37.5428 56.9 37.6228 56.89 37.6528C56.89 37.6928 56.87 37.7328 56.86 37.7628C56.86 37.8028 56.84 37.8328 56.83 37.8728C56.82 37.9128 56.81 37.9428 56.8 37.9828C56.79 38.0228 56.78 38.0528 56.77 38.0928C56.76 38.1328 56.75 38.1628 56.73 38.2028C56.72 38.2428 56.7 38.2728 56.69 38.3128C56.64 38.4528 56.58 38.5828 56.51 38.7228C56.45 38.8528 56.38 38.9828 56.3 39.1028C56.22 39.2228 56.14 39.3428 56.05 39.4628C55.96 39.5728 55.87 39.6928 55.77 39.7928C55.67 39.9028 55.57 40.0028 55.46 40.1028C55.35 40.2028 55.23 40.2928 55.11 40.3728C55.05 40.4128 54.99 40.4528 54.93 40.4928C54.87 40.5328 54.81 40.5728 54.74 40.6028C54.68 40.6428 54.61 40.6728 54.55 40.7028C54.48 40.7328 54.42 40.7728 54.35 40.8028C54.33 40.8028 54.32 40.8128 54.3 40.8228C54.28 40.8328 54.26 40.8428 54.25 40.8428C54.23 40.8428 54.22 40.8528 54.2 40.8628C54.18 40.8628 54.17 40.8728 54.15 40.8828L54.1 40.9028C54.1 40.9028 54.06 40.9128 54.05 40.9228L54 40.9428C54 40.9428 53.97 40.9528 53.95 40.9628C53.93 40.9628 53.91 40.9728 53.9 40.9828C53.88 40.9828 53.86 40.9928 53.85 41.0028C53.83 41.0028 53.81 41.0128 53.8 41.0228C53.78 41.0228 53.76 41.0328 53.75 41.0428C53.73 41.0428 53.71 41.0528 53.7 41.0528L53.65 41.0728C53.65 41.0728 53.61 41.0728 53.6 41.0828C53.58 41.0828 53.56 41.0828 53.55 41.0928C53.53 41.0928 53.51 41.0928 53.49 41.1028C53.47 41.1028 53.45 41.1028 53.43 41.1128C53.41 41.1128 53.39 41.1128 53.38 41.1228C53.36 41.1228 53.34 41.1228 53.32 41.1328C53.3 41.1328 53.28 41.1328 53.26 41.1328H53.21L53.15 41.1528C53.13 41.1528 53.11 41.1528 53.09 41.1528C53.07 41.1528 53.05 41.1528 53.03 41.1528C53.01 41.1528 52.99 41.1528 52.97 41.1528C52.95 41.1528 52.93 41.1528 52.91 41.1528C52.89 41.1528 52.87 41.1528 52.85 41.1528C52.83 41.1528 52.81 41.1528 52.79 41.1528C52.77 41.1528 52.75 41.1528 52.73 41.1528C52.71 41.1528 52.69 41.1528 52.67 41.1528C52.57 41.1528 52.47 41.1628 52.36 41.1728C52.26 41.1728 52.16 41.1828 52.06 41.1928C51.96 41.1928 51.86 41.2028 51.75 41.2028C51.65 41.2028 51.55 41.2128 51.44 41.2228C51.34 41.2228 51.24 41.2228 51.14 41.2328C51.04 41.2328 50.94 41.2328 50.83 41.2428C50.73 41.2428 50.63 41.2428 50.52 41.2528C50.42 41.2528 50.32 41.2528 50.22 41.2628C50.12 41.2628 50.02 41.2628 49.91 41.2728C49.81 41.2728 49.71 41.2728 49.6 41.2828C49.5 41.2828 49.4 41.2828 49.29 41.2928C49.19 41.2928 49.09 41.2928 48.98 41.3028C48.88 41.3028 48.78 41.3028 48.67 41.3128C48.57 41.3128 48.47 41.3128 48.36 41.3228C48.26 41.3228 48.16 41.3228 48.05 41.3328C47.95 41.3328 47.85 41.3328 47.74 41.3428C47.64 41.3428 47.54 41.3428 47.43 41.3528C47.33 41.3528 47.23 41.3528 47.12 41.3628C47.02 41.3628 46.92 41.3628 46.81 41.3728C46.71 41.3728 46.61 41.3728 46.5 41.3828C46.4 41.3828 46.3 41.3828 46.19 41.3828C46.09 41.3828 45.99 41.3828 45.88 41.3928C45.77 41.4028 45.68 41.3928 45.57 41.4028C45.47 41.4028 45.37 41.4028 45.26 41.4028C45.16 41.4028 45.06 41.4028 44.95 41.4028C44.85 41.4028 44.75 41.4028 44.64 41.4028C44.54 41.4028 44.44 41.4028 44.33 41.4028C44.23 41.4028 44.13 41.4028 44.02 41.4028C43.92 41.4028 43.82 41.4028 43.71 41.4028C43.61 41.4028 43.51 41.4028 43.4 41.4028C43.3 41.4028 43.2 41.4028 43.09 41.4028C42.99 41.4028 42.89 41.4028 42.78 41.4028C42.68 41.4028 42.57 41.4028 42.47 41.4028C42.37 41.4028 42.27 41.4028 42.16 41.4028C42.06 41.4028 41.96 41.4028 41.85 41.4028H41.54C41.44 41.4028 41.34 41.4128 41.23 41.4128H40.92C40.82 41.4128 40.72 41.4128 40.61 41.4228C40.51 41.4228 40.41 41.4228 40.3 41.4228C40.2 41.4228 40.09 41.4228 39.99 41.4228C39.89 41.4228 39.79 41.4228 39.68 41.4228H39.37C39.27 41.4228 39.16 41.4228 39.06 41.4228C38.96 41.4228 38.86 41.4228 38.75 41.4228C38.64 41.4228 38.55 41.4228 38.44 41.4228C38.34 41.4228 38.23 41.4228 38.13 41.4228C38.03 41.4228 37.93 41.4228 37.82 41.4228H37.51C37.41 41.4228 37.3 41.4228 37.2 41.4228C37.1 41.4228 36.99 41.4228 36.89 41.4228C36.79 41.4228 36.69 41.4228 36.58 41.4228C36.48 41.4228 36.38 41.4228 36.27 41.4228H35.96H35.65C35.55 41.4228 35.45 41.4228 35.34 41.4228H35.03C34.93 41.4228 34.82 41.4228 34.72 41.4228H33.8C33.7 41.4228 33.6 41.4228 33.49 41.4228H33.18C33.08 41.4228 32.98 41.4228 32.87 41.4228C32.77 41.4228 32.67 41.4228 32.56 41.4228H32.25C32.15 41.4228 32.05 41.4228 31.94 41.4228C31.84 41.4228 31.73 41.4228 31.63 41.4228C31.53 41.4228 31.42 41.4228 31.32 41.4228C31.22 41.4228 31.12 41.4228 31.01 41.4228H30.7H30.39C30.29 41.4228 30.19 41.4228 30.08 41.4228C29.98 41.4228 29.88 41.4228 29.77 41.4228C29.67 41.4228 29.56 41.4228 29.46 41.4228C29.36 41.4228 29.26 41.4228 29.15 41.4228C29.05 41.4228 28.95 41.4228 28.84 41.4228C28.74 41.4228 28.64 41.4228 28.53 41.4228C28.43 41.4228 28.32 41.4228 28.22 41.4228C28.12 41.4228 28.02 41.4228 27.91 41.4228C27.81 41.4228 27.71 41.4228 27.6 41.4228C27.5 41.4228 27.4 41.4228 27.29 41.4228H26.98C26.88 41.4228 26.78 41.4228 26.67 41.4128C26.57 41.4128 26.47 41.4128 26.36 41.4128C26.26 41.4128 26.16 41.4128 26.05 41.4128C25.95 41.4128 25.84 41.4128 25.74 41.4128H25.43C25.33 41.4128 25.23 41.4028 25.12 41.4028C25.02 41.4028 24.91 41.4028 24.81 41.4028C24.71 41.4028 24.6 41.4028 24.5 41.4028C24.4 41.4028 24.3 41.4028 24.19 41.4028C24.09 41.4028 23.99 41.4028 23.88 41.4028C23.78 41.4028 23.68 41.4028 23.57 41.4028C23.47 41.4028 23.37 41.4028 23.26 41.4028C23.16 41.4028 23.06 41.4028 22.95 41.4028C22.85 41.4028 22.75 41.4028 22.64 41.3928C22.54 41.3928 22.44 41.3928 22.33 41.3828C22.23 41.3828 22.13 41.3828 22.02 41.3828C21.92 41.3828 21.82 41.3828 21.71 41.3728C21.61 41.3728 21.51 41.3728 21.4 41.3628C21.3 41.3628 21.2 41.3628 21.09 41.3528C20.99 41.3528 20.89 41.3528 20.78 41.3428C20.68 41.3428 20.58 41.3428 20.47 41.3328C20.37 41.3328 20.27 41.3328 20.16 41.3228C20.06 41.3228 19.96 41.3228 19.85 41.3128C19.75 41.3128 19.65 41.3128 19.54 41.3028C19.44 41.3028 19.34 41.3028 19.23 41.2928C19.13 41.2928 19.03 41.2928 18.92 41.2828C18.82 41.2828 18.72 41.2828 18.61 41.2728C18.51 41.2728 18.41 41.2728 18.3 41.2628C18.2 41.2628 18.1 41.2628 18 41.2528C17.9 41.2528 17.8 41.2528 17.69 41.2428C17.59 41.2428 17.49 41.2428 17.38 41.2328C17.28 41.2328 17.18 41.2228 17.08 41.2228C16.98 41.2228 16.88 41.2128 16.77 41.2028H16.47C16.37 41.1828 16.27 41.1828 16.17 41.1728C16.07 41.1728 15.97 41.1628 15.86 41.1528L15.95 41.1328Z" stroke="#FF00FF" stroke-width="0.28" stroke-linecap="round" stroke-linejoin="round"/>
<path d="M53.9491 44.9191V50.01H53.3326V45.5654H53.3028L52.0599 46.3907V45.7643L53.3326 44.9191H53.9491ZM55.5499 50.0498C55.4273 50.0498 55.3221 50.0059 55.2342 49.918C55.1464 49.8302 55.1025 49.725 55.1025 49.6023C55.1025 49.4797 55.1464 49.3745 55.2342 49.2866C55.3221 49.1988 55.4273 49.1549 55.5499 49.1549C55.6726 49.1549 55.7778 49.1988 55.8656 49.2866C55.9535 49.3745 55.9974 49.4797 55.9974 49.6023C55.9974 49.6835 55.9767 49.7581 55.9352 49.8261C55.8955 49.894 55.8416 49.9487 55.7737 49.9901C55.7074 50.0299 55.6328 50.0498 55.5499 50.0498ZM57.0402 50.01V49.5626L58.7206 47.7231C58.9178 47.5076 59.0802 47.3204 59.2078 47.1613C59.3354 47.0005 59.4299 46.8497 59.4912 46.7089C59.5541 46.5664 59.5856 46.4172 59.5856 46.2614C59.5856 46.0825 59.5425 45.9275 59.4564 45.7966C59.3718 45.6657 59.2558 45.5646 59.1084 45.4933C58.9609 45.4221 58.7951 45.3864 58.6112 45.3864C58.4156 45.3864 58.245 45.427 58.0991 45.5082C57.9549 45.5878 57.8431 45.6996 57.7635 45.8438C57.6857 45.988 57.6467 46.157 57.6467 46.3509H57.0601C57.0601 46.0526 57.1288 45.7908 57.2664 45.5654C57.4039 45.34 57.5912 45.1644 57.8282 45.0384C58.0668 44.9125 58.3344 44.8495 58.6311 44.8495C58.9294 44.8495 59.1937 44.9125 59.4241 45.0384C59.6544 45.1644 59.835 45.3342 59.966 45.548C60.0969 45.7618 60.1623 45.9996 60.1623 46.2614C60.1623 46.4487 60.1284 46.6318 60.0604 46.8108C59.9941 46.9881 59.8781 47.1861 59.7124 47.4049C59.5483 47.622 59.3205 47.8871 59.0288 48.2004L57.8853 49.4234V49.4631H60.2518V50.01H57.0402ZM62.8694 50.0796C62.5777 50.0796 62.315 50.0216 62.0814 49.9056C61.8477 49.7896 61.6604 49.6305 61.5196 49.4283C61.3787 49.2262 61.3017 48.9958 61.2884 48.7373H61.885C61.9082 48.9676 62.0126 49.1582 62.1982 49.309C62.3855 49.4582 62.6092 49.5327 62.8694 49.5327C63.0782 49.5327 63.2638 49.4838 63.4262 49.3861C63.5902 49.2883 63.7187 49.1541 63.8115 48.9834C63.9059 48.811 63.9532 48.6163 63.9532 48.3992C63.9532 48.1771 63.9043 47.9791 63.8065 47.8051C63.7104 47.6294 63.5778 47.4911 63.4088 47.39C63.2397 47.2889 63.0467 47.2375 62.8296 47.2359C62.6738 47.2342 62.5139 47.2582 62.3498 47.308C62.1858 47.356 62.0507 47.4182 61.9446 47.4944L61.3679 47.4248L61.6762 44.9191H64.3211V45.466H62.1932L62.0142 46.9674H62.0441C62.1485 46.8845 62.2794 46.8158 62.4368 46.7611C62.5943 46.7064 62.7583 46.679 62.929 46.679C63.2406 46.679 63.5182 46.7536 63.7618 46.9028C64.007 47.0503 64.1993 47.2524 64.3385 47.5093C64.4793 47.7662 64.5498 48.0595 64.5498 48.3893C64.5498 48.7141 64.4768 49.0041 64.331 49.2593C64.1868 49.5129 63.988 49.7134 63.7344 49.8609C63.4809 50.0067 63.1925 50.0796 62.8694 50.0796Z" fill="#0000FF"/>
<path fill-rule="evenodd" clip-rule="evenodd" d="M27.8158 17.2844C27.6433 17.1119 27.357 17.1119 27.1845 17.2844L25.8345 18.6344C25.567 18.9019 25.1333 18.9019 24.8658 18.6344C24.5983 18.3669 24.5983 17.9332 24.8658 17.6657L26.2158 16.3157C26.9233 15.6082 28.077 15.6082 28.7845 16.3157L30.1345 17.6657C30.402 17.9332 30.402 18.3669 30.1345 18.6344C29.867 18.9019 29.4333 18.9019 29.1658 18.6344L27.8158 17.2844ZM23.3845 21.0844C23.652 20.8169 23.652 20.3832 23.3845 20.1157C23.117 19.8482 22.6833 19.8482 22.4158 20.1157L21.0658 21.4657C20.3583 22.1732 20.3583 23.3269 21.0658 24.0344L22.4158 25.3844C22.6833 25.6519 23.117 25.6519 23.3845 25.3844C23.652 25.1169 23.652 24.6832 23.3845 24.4157L22.0345 23.0657C21.862 22.8932 21.862 22.6069 22.0345 22.4344L23.3845 21.0844ZM25.8345 26.8657C25.567 26.5982 25.1333 26.5982 24.8658 26.8657C24.5983 27.1332 24.5983 27.5669 24.8658 27.8344L26.2158 29.1844C26.9233 29.8919 28.077 29.8919 28.7845 29.1844L30.1345 27.8344C30.402 27.5669 30.402 27.1332 30.1345 26.8657C29.867 26.5982 29.4333 26.5982 29.1658 26.8657L27.8158 28.2157C27.6433 28.3882 27.357 28.3882 27.1845 28.2157L25.8345 26.8657ZM32.5845 20.1157C32.317 19.8482 31.8833 19.8482 31.6158 20.1157C31.3483 20.3832 31.3483 20.8169 31.6158 21.0844L32.9658 22.4344C33.1383 22.6069 33.1383 22.8932 32.9658 23.0657L31.6158 24.4157C31.3483 24.6832 31.3483 25.1169 31.6158 25.3844C31.8833 25.6519 32.317 25.6519 32.5845 25.3844L33.9345 24.0344C34.642 23.3269 34.642 22.1732 33.9345 21.4657L32.5845 20.1157Z" fill="black"/>
</svg>
