<svg width="54" height="54" viewBox="0 0 54 54" fill="none" xmlns="http://www.w3.org/2000/svg">
<rect x="1.8501" y="1.84998" width="50.3" height="50.3" rx="3" stroke="#8B1EFF" stroke-width="0.28"/>
<path d="M9.91309 37.0476C9.83508 27.0607 9.73608 17.0726 9.61914 7.0846L9.6192 7.08216C9.62323 6.91614 9.63623 6.75013 9.65631 6.58399C9.67633 6.41895 9.70233 6.25501 9.73553 6.09156C9.76752 5.92957 9.80652 5.76856 9.85266 5.60975C9.89966 5.45179 9.95166 5.29578 10.0115 5.14161C10.1985 4.66761 10.4535 4.21668 10.77 3.81434C11.083 3.41736 11.456 3.06837 11.8725 2.78394C12.2875 2.50196 12.7465 2.28394 13.2258 2.13697C13.7078 1.98987 14.2118 1.91395 14.7141 1.90662C18.8081 1.87171 22.9021 1.85462 26.9963 1.85499C31.0893 1.85499 35.1833 1.87195 39.2776 1.90723C39.4396 1.91016 39.6016 1.92115 39.7635 1.93775C40.0035 1.96375 40.2435 2.00477 40.4799 2.06153C40.7139 2.11854 40.9449 2.19044 41.1697 2.27955C41.4037 2.37256 41.6287 2.48353 41.8449 2.61072C42.062 2.73865 42.2689 2.8827 42.4627 3.04163C42.6577 3.20167 42.8417 3.37671 43.0105 3.56324C43.1795 3.7522 43.3355 3.95423 43.476 4.16578C43.757 4.59485 43.975 5.06483 44.125 5.55652C44.276 6.05445 44.358 6.57447 44.373 7.09266C44.252 17.0696 44.154 27.0466 44.08 37.0252C44.074 37.1851 44.0601 37.3451 44.039 37.5037C44.018 37.6647 43.991 37.8236 43.9569 37.9813C43.9239 38.1403 43.8839 38.2983 43.8358 38.4537C43.7888 38.6097 43.7349 38.7637 43.675 38.9157C43.484 39.3908 43.228 39.8407 42.9172 40.2495C42.6032 40.6605 42.2352 41.0286 41.8244 41.3395C41.4154 41.6495 40.9624 41.9036 40.4838 42.0906C40.0098 42.2755 39.5098 42.3955 39.0063 42.4435C31.0073 42.9535 22.9843 42.9535 14.9849 42.4436C14.6529 42.4116 14.3229 42.3477 14.0024 42.2535C13.6794 42.1596 13.3654 42.0346 13.0632 41.882C12.4602 41.575 11.9092 41.1569 11.4476 40.6577C10.9866 40.1607 10.6126 39.5817 10.349 38.9596C10.219 38.6516 10.115 38.3325 10.0411 38.0056C9.96912 37.6836 9.92407 37.3546 9.91113 37.0245" stroke="#8B1EFF" stroke-width="0.283" stroke-miterlimit="10"/>
<rect x="12.6855" y="5.52832" width="28.63" height="34.31" rx="1.43" stroke="#00FFFF" stroke-width="0.28"/>
<path d="M42.9399 36.5841C42.9578 31.7322 42.9778 26.8792 43.0009 22.0272C43.0219 17.1742 43.0469 12.3221 43.0759 7.46912C43.0767 7.32446 43.0717 7.18042 43.0596 7.03748C43.0497 6.89441 43.0317 6.75146 43.0076 6.61047C42.9606 6.32837 42.8887 6.05444 42.7897 5.78943C42.7646 5.72339 42.7386 5.65747 42.7106 5.59241C42.6816 5.52637 42.6526 5.46143 42.6216 5.39844C42.5587 5.27039 42.4907 5.14746 42.4156 5.02844C42.2667 4.79041 42.0936 4.57043 41.8937 4.36646C41.6957 4.16345 41.4777 3.98645 41.2437 3.83337C41.1266 3.75745 41.0057 3.6864 40.8796 3.62244C40.8167 3.59045 40.7537 3.55945 40.6877 3.5304C40.6237 3.50037 40.5566 3.47339 40.4907 3.44739C40.2236 3.34338 39.9507 3.26843 39.6716 3.21741C39.3926 3.16638 39.1077 3.14038 38.8167 3.13745C37.8378 3.12988 36.8568 3.12183 35.8738 3.11584C34.8898 3.10889 33.9058 3.10388 32.9208 3.09888C30.9498 3.09082 28.9758 3.08691 26.9988 3.08691C26.5038 3.08691 26.0098 3.08691 25.5148 3.08691C25.0208 3.08789 24.5258 3.08887 24.0308 3.08984C23.0418 3.09192 22.0538 3.09485 21.0688 3.09888C19.0968 3.10791 17.1328 3.12085 15.1758 3.13782C15.0301 3.13892 14.8861 3.14685 14.7411 3.15991C14.5981 3.17383 14.4541 3.19287 14.3131 3.21887C14.0301 3.27087 13.7561 3.3479 13.4911 3.4519C13.4251 3.47791 13.3601 3.50488 13.2951 3.53491C13.2301 3.56384 13.1651 3.59583 13.1021 3.62793C12.9751 3.69385 12.8541 3.76489 12.7361 3.8429C12.5011 3.99683 12.2841 4.1759 12.0861 4.37988C12.0371 4.42993 11.9891 4.48291 11.9431 4.53589C11.8971 4.58887 11.8521 4.64282 11.8091 4.69885C11.7231 4.80884 11.6431 4.92383 11.5691 5.04187C11.4951 5.16089 11.4281 5.28394 11.3651 5.40991C11.3351 5.4729 11.3061 5.53687 11.2781 5.60291C11.2501 5.66785 11.2241 5.73486 11.1991 5.80188C11.1011 6.06787 11.0301 6.34082 10.9841 6.6189C10.9381 6.89685 10.9151 7.18091 10.9171 7.46985C10.9454 12.3224 10.9714 17.1744 10.9935 22.0275C11.0165 26.8794 11.0355 31.7324 11.0535 36.5845C11.0541 36.8712 11.0781 37.1552 11.1281 37.4392C11.1411 37.5101 11.1552 37.5812 11.1701 37.6511C11.1862 37.7212 11.2021 37.7911 11.2211 37.8601C11.2581 37.9991 11.3011 38.1351 11.3502 38.2701C11.3991 38.4052 11.4531 38.5382 11.5151 38.6682C11.5461 38.7332 11.5771 38.7982 11.6121 38.8622C11.6461 38.9261 11.6812 38.9901 11.7181 39.0532C11.8651 39.3032 12.0331 39.5361 12.2241 39.7532C12.3192 39.8612 12.4201 39.9652 12.5272 40.0652C12.5791 40.1151 12.6342 40.1632 12.6901 40.2102C12.7451 40.2572 12.8011 40.3021 12.8591 40.3462C13.0881 40.5211 13.3322 40.6721 13.5921 40.7982C13.6571 40.8302 13.7231 40.8601 13.7902 40.8882C13.8571 40.9171 13.9241 40.9431 13.9921 40.9681C14.1281 41.0182 14.2651 41.0612 14.4041 41.0972C14.6801 41.1692 14.9631 41.2131 15.2512 41.2312C16.2243 41.2916 17.1993 41.3446 18.1773 41.3896C19.1533 41.4357 20.1323 41.4727 21.1113 41.5027C23.0683 41.5636 25.0293 41.5936 26.9943 41.5936C27.4853 41.5936 27.9773 41.5917 28.4683 41.5876C28.9593 41.5846 29.4513 41.5786 29.9423 41.5707C30.9253 41.5557 31.9063 41.5336 32.8863 41.5027C34.8443 41.4426 36.7963 41.3527 38.7416 41.2316C38.8866 41.2227 39.0296 41.2067 39.1726 41.1846C39.2436 41.1726 39.3146 41.1597 39.3866 41.1447C39.4566 41.1296 39.5276 41.1136 39.5966 41.0946C39.8766 41.0226 40.1456 40.9226 40.4046 40.7957C40.4706 40.7646 40.5336 40.7316 40.5966 40.6967C40.6606 40.6616 40.7236 40.6246 40.7856 40.5856C40.9096 40.5096 41.0286 40.4266 41.1426 40.3386C41.3726 40.1636 41.5826 39.9667 41.7736 39.7487C41.8216 39.6936 41.8676 39.6376 41.9136 39.5807C41.9586 39.5237 42.0026 39.4656 42.0446 39.4066C42.1296 39.2897 42.2076 39.1686 42.2796 39.0447C42.4256 38.7966 42.5466 38.5376 42.6446 38.2656C42.6696 38.1976 42.6926 38.1287 42.7146 38.0596C42.7356 37.9906 42.7556 37.9216 42.7736 37.8527C42.8106 37.7136 42.8416 37.5746 42.8656 37.4346C42.9146 37.1537 42.9386 36.8706 42.9399 36.5841Z" stroke="#FF00FF" stroke-width="0.283465" stroke-miterlimit="10" stroke-linecap="round" stroke-linejoin="round"/>
<path fill-rule="evenodd" clip-rule="evenodd" d="M21.3158 10.2844C21.1433 10.1119 20.857 10.1119 20.6845 10.2844L19.3345 11.6344C19.067 11.9019 18.6333 11.9019 18.3658 11.6344C18.0983 11.3669 18.0983 10.9332 18.3658 10.6657L19.7158 9.31567C20.4233 8.60816 21.577 8.60816 22.2845 9.31567L23.6345 10.6657C23.902 10.9332 23.902 11.3669 23.6345 11.6344C23.367 11.9019 22.9333 11.9019 22.6658 11.6344L21.3158 10.2844ZM16.8845 14.0844C17.152 13.8169 17.152 13.3832 16.8845 13.1157C16.617 12.8482 16.1833 12.8482 15.9158 13.1157L14.5658 14.4657C13.8583 15.1732 13.8583 16.3269 14.5658 17.0344L15.9158 18.3844C16.1833 18.6519 16.617 18.6519 16.8845 18.3844C17.152 18.1169 17.152 17.6832 16.8845 17.4157L15.5345 16.0657C15.362 15.8932 15.362 15.6069 15.5345 15.4344L16.8845 14.0844ZM19.3345 19.8657C19.067 19.5982 18.6333 19.5982 18.3658 19.8657C18.0983 20.1332 18.0983 20.5669 18.3658 20.8344L19.7158 22.1844C20.4233 22.8919 21.577 22.8919 22.2845 22.1844L23.6345 20.8344C23.902 20.5669 23.902 20.1332 23.6345 19.8657C23.367 19.5982 22.9333 19.5982 22.6658 19.8657L21.3158 21.2157C21.1433 21.3882 20.857 21.3882 20.6845 21.2157L19.3345 19.8657ZM26.0845 13.1157C25.817 12.8482 25.3833 12.8482 25.1158 13.1157C24.8483 13.3832 24.8483 13.8169 25.1158 14.0844L26.4658 15.4344C26.6383 15.6069 26.6383 15.8932 26.4658 16.0657L25.1158 17.4157C24.8483 17.6832 24.8483 18.1169 25.1158 18.3844C25.3833 18.6519 25.817 18.6519 26.0845 18.3844L27.4345 17.0344C28.142 16.3269 28.142 15.1732 27.4345 14.4657L26.0845 13.1157Z" fill="black"/>
<path d="M16.4908 35.8671C15.0845 35.8671 14.147 35.2812 13.8736 34.4804C13.8297 34.3632 13.8052 34.2363 13.8052 34.1191C13.8052 33.7675 14.0298 33.5429 14.3618 33.5429C14.6401 33.5429 14.8159 33.6552 14.9526 33.9384C15.1723 34.5488 15.7778 34.8222 16.5298 34.8222C17.3794 34.8222 17.9751 34.4023 17.9751 33.8163C17.9751 33.3085 17.6235 32.996 16.7056 32.8055L15.9488 32.6492C14.5377 32.3611 13.8785 31.697 13.8785 30.6668C13.8785 29.4266 14.9674 28.5867 16.4957 28.5867C17.7408 28.5867 18.7076 29.1433 18.9957 30.076C19.025 30.1541 19.0396 30.2469 19.0396 30.3641C19.0396 30.6717 18.8199 30.8817 18.4927 30.8817C18.1997 30.8817 18.0191 30.7547 17.8872 30.4813C17.6479 29.8856 17.145 29.6317 16.4858 29.6317C15.7045 29.6317 15.1479 30.0028 15.1479 30.5936C15.1479 31.0721 15.4995 31.3797 16.3784 31.5653L17.1352 31.7216C18.6196 32.0292 19.2446 32.6249 19.2446 33.6699C19.2446 35.0176 18.185 35.8672 16.4907 35.8672L16.4908 35.8671Z" fill="black"/>
<path d="M28.2466 34.8362C27.4896 34.8362 26.9866 34.1769 26.9817 33.1611C26.9866 32.1551 27.4604 31.486 28.2466 31.486C29.0328 31.486 29.5212 32.1404 29.5212 33.1611C29.5212 34.1867 29.0036 34.8362 28.2466 34.8362ZM30.7665 33.161C30.7665 31.5054 29.9314 30.4848 28.6176 30.4848C28.1316 30.4848 27.3615 30.7288 27.0606 30.8308C26.9931 30.8537 26.9184 30.824 26.8867 30.76C26.8787 30.7437 26.8704 30.7275 26.86 30.7127C26.7407 30.5422 26.565 30.4702 26.3663 30.4702C26.0195 30.4702 25.7754 30.6948 25.7754 31.0953V36.951C25.7754 37.3613 26.0244 37.5908 26.381 37.5908C26.7376 37.5908 26.9915 37.3613 26.9915 36.951V35.5928C26.9915 35.4901 27.0974 35.4212 27.191 35.4634C27.5529 35.6263 28.1556 35.8325 28.6373 35.8325C29.9363 35.8325 30.7666 34.8118 30.7666 33.1611L30.7665 33.161Z" fill="black"/>
<path d="M35.1011 32.5478H33.0119C32.9213 32.5478 32.8545 32.464 32.8735 32.3754C33.0101 31.7367 33.4817 31.4091 34.0761 31.4091C34.6705 31.4091 35.1246 31.7239 35.2408 32.3822C35.2561 32.4687 35.189 32.5478 35.1011 32.5478ZM34.0713 30.4666C32.5771 30.4666 31.625 31.531 31.625 33.1815C31.625 34.832 32.5576 35.8524 34.1397 35.8524C34.9399 35.8524 35.5259 35.6746 36.0256 35.1196C36.2493 34.8712 36.1894 34.5005 35.8933 34.342C35.6439 34.2084 35.3602 34.3365 35.2209 34.4659C34.7782 34.8773 34.4534 34.9149 34.13 34.9149C33.3838 34.9149 32.8938 34.4302 32.8408 33.6067C32.8355 33.5246 32.8999 33.4549 32.9822 33.4549H35.9364C36.2176 33.4549 36.447 33.2301 36.4534 32.949C36.4861 31.5061 35.5109 30.4666 34.0713 30.4666Z" fill="black"/>
<path d="M37.3037 35.2076V31.0854C37.3037 30.7044 37.5381 30.47 37.8849 30.47C38.1185 30.47 38.3051 30.5826 38.3977 30.7785C38.3996 30.7825 38.406 30.7986 38.4145 30.8204C38.4486 30.9079 38.5569 30.9389 38.6318 30.8822C38.8342 30.7291 39.2165 30.4847 39.5944 30.4847C39.7849 30.4847 39.9314 30.5335 40.0242 30.6166C40.1365 30.7094 40.1951 30.8559 40.1951 31.0562C40.1951 31.2565 40.1365 31.3883 40.0144 31.486C39.8972 31.5886 39.7165 31.6423 39.4771 31.6472C38.7835 31.6521 38.5198 32.0868 38.5198 32.7168V35.2077C38.5198 35.6082 38.2756 35.8475 37.9093 35.8475C37.543 35.8475 37.3037 35.6081 37.3037 35.2076Z" fill="black"/>
<path d="M20.0938 33.9182V31.1098C20.0938 30.7044 20.3429 30.47 20.6994 30.47C21.0559 30.47 21.3099 30.7044 21.3099 31.1147V33.674C21.3099 34.4164 21.6713 34.8169 22.3551 34.8169C23.0389 34.8169 23.4931 34.3187 23.4931 33.5666V31.1098C23.4931 30.7044 23.7471 30.47 24.1036 30.47C24.4601 30.47 24.7092 30.7044 24.7092 31.1147V35.2321C24.7092 35.6228 24.4748 35.8475 24.128 35.8475C23.8932 35.8475 23.7085 35.7473 23.6116 35.5644C23.6057 35.5532 23.6001 35.5423 23.5948 35.5318C23.5604 35.4635 23.4781 35.4347 23.4087 35.4669C23.1478 35.5882 22.529 35.8425 21.9301 35.8425C20.8069 35.8426 20.0938 35.1148 20.0938 33.9182Z" fill="black"/>
</svg>
