<svg width="54" height="54" viewBox="0 0 54 54" fill="none" xmlns="http://www.w3.org/2000/svg">
<rect x="1.85" y="1.84961" width="50.3" height="50.3" rx="3" stroke="#8B1EFF" stroke-width="0.28"/>
<path d="M9.91309 37.0471C9.83508 27.0602 9.73608 17.0721 9.61914 7.08411L9.6192 7.08167C9.62323 6.91566 9.63623 6.74964 9.65631 6.5835C9.67633 6.41846 9.70233 6.25452 9.73553 6.09107C9.76752 5.92908 9.80652 5.76807 9.85266 5.60926C9.89966 5.4513 9.95166 5.29529 10.0115 5.14112C10.1985 4.66712 10.4535 4.21619 10.77 3.81385C11.083 3.41688 11.456 3.06788 11.8725 2.78345C12.2875 2.50147 12.7465 2.28345 13.2258 2.13648C13.7078 1.98939 14.2118 1.91346 14.7141 1.90613C18.8081 1.87122 22.9021 1.85413 26.9963 1.8545C31.0893 1.8545 35.1833 1.87147 39.2776 1.90674C39.4396 1.90967 39.6016 1.92066 39.7635 1.93726C40.0035 1.96326 40.2435 2.00428 40.4799 2.06104C40.7139 2.11805 40.9449 2.18995 41.1697 2.27906C41.4037 2.37208 41.6287 2.48304 41.8449 2.61024C42.062 2.73816 42.2689 2.88221 42.4627 3.04114C42.6577 3.20118 42.8417 3.37623 43.0105 3.56275C43.1795 3.75171 43.3355 3.95374 43.476 4.16529C43.757 4.59437 43.975 5.06434 44.125 5.55604C44.276 6.05396 44.358 6.57398 44.373 7.09217C44.252 17.0691 44.154 27.0462 44.08 37.0247C44.074 37.1846 44.0601 37.3446 44.039 37.5032C44.018 37.6642 43.991 37.8231 43.9569 37.9808C43.9239 38.1398 43.8839 38.2979 43.8358 38.4533C43.7888 38.6093 43.7349 38.7632 43.675 38.9152C43.484 39.3903 43.228 39.8402 42.9172 40.249C42.6032 40.66 42.2352 41.0281 41.8244 41.339C41.4154 41.6491 40.9624 41.9031 40.4838 42.0901C40.0098 42.275 39.5098 42.395 39.0063 42.443C31.0073 42.953 22.9843 42.953 14.9849 42.4431C14.6529 42.4111 14.3229 42.3472 14.0024 42.2531C13.6794 42.1591 13.3654 42.0341 13.0632 41.8815C12.4602 41.5745 11.9092 41.1564 11.4476 40.6572C10.9866 40.1602 10.6126 39.5812 10.349 38.9591C10.219 38.6511 10.115 38.332 10.0411 38.0051C9.96912 37.6831 9.92407 37.3541 9.91113 37.0241" stroke="#8B1EFF" stroke-width="0.283" stroke-miterlimit="10"/>
<rect x="12.6854" y="5.52832" width="28.63" height="34.31" rx="1.43" stroke="#00FFFF" stroke-width="0.28"/>
<path d="M42.9396 36.5841C42.9576 31.7322 42.9776 26.8792 43.0006 22.0272C43.0216 17.1742 43.0466 12.3221 43.0756 7.46912C43.0764 7.32446 43.0714 7.18042 43.0594 7.03748C43.0494 6.89441 43.0314 6.75146 43.0074 6.61047C42.9604 6.32837 42.8884 6.05444 42.7894 5.78943C42.7644 5.72339 42.7384 5.65747 42.7104 5.59241C42.6814 5.52637 42.6524 5.46143 42.6214 5.39844C42.5584 5.27039 42.4904 5.14746 42.4154 5.02844C42.2664 4.79041 42.0934 4.57043 41.8934 4.36646C41.6954 4.16345 41.4774 3.98645 41.2434 3.83337C41.1264 3.75745 41.0054 3.6864 40.8794 3.62244C40.8164 3.59045 40.7534 3.55945 40.6874 3.5304C40.6234 3.50037 40.5564 3.47339 40.4904 3.44739C40.2234 3.34338 39.9504 3.26843 39.6714 3.21741C39.3924 3.16638 39.1074 3.14038 38.8164 3.13745C37.8376 3.12988 36.8566 3.12183 35.8735 3.11584C34.8896 3.10889 33.9056 3.10388 32.9205 3.09888C30.9496 3.09082 28.9756 3.08691 26.9985 3.08691C26.5035 3.08691 26.0096 3.08691 25.5146 3.08691C25.0206 3.08789 24.5256 3.08887 24.0306 3.08984C23.0416 3.09192 22.0536 3.09485 21.0685 3.09888C19.0966 3.10791 17.1326 3.12085 15.1755 3.13782C15.0298 3.13892 14.8859 3.14685 14.7408 3.15991C14.5979 3.17383 14.4539 3.19287 14.3129 3.21887C14.0298 3.27087 13.7559 3.3479 13.4908 3.4519C13.4249 3.47791 13.3599 3.50488 13.2949 3.53491C13.2299 3.56384 13.1649 3.59583 13.1019 3.62793C12.9749 3.69385 12.8539 3.76489 12.7359 3.8429C12.5009 3.99683 12.2839 4.1759 12.0859 4.37988C12.0369 4.42993 11.9889 4.48291 11.9429 4.53589C11.8969 4.58887 11.8519 4.64282 11.8089 4.69885C11.7229 4.80884 11.6429 4.92383 11.5688 5.04187C11.4949 5.16089 11.4279 5.28394 11.3649 5.40991C11.3349 5.4729 11.3058 5.53687 11.2779 5.60291C11.2499 5.66785 11.2239 5.73486 11.1989 5.80188C11.1009 6.06787 11.0298 6.34082 10.9839 6.6189C10.9379 6.89685 10.9149 7.18091 10.9169 7.46985C10.9452 12.3224 10.9712 17.1744 10.9932 22.0275C11.0162 26.8794 11.0352 31.7324 11.0532 36.5845C11.0539 36.8712 11.0779 37.1552 11.1279 37.4392C11.1409 37.5101 11.1549 37.5812 11.1699 37.6511C11.1859 37.7212 11.2019 37.7911 11.2209 37.8601C11.2579 37.9991 11.3009 38.1351 11.3499 38.2701C11.3989 38.4052 11.4529 38.5382 11.5149 38.6682C11.5459 38.7332 11.5769 38.7982 11.6119 38.8622C11.6459 38.9261 11.6809 38.9901 11.7179 39.0532C11.8649 39.3032 12.0329 39.5361 12.2239 39.7532C12.3189 39.8612 12.4199 39.9652 12.5269 40.0652C12.5789 40.1151 12.6339 40.1632 12.6899 40.2102C12.7449 40.2572 12.8009 40.3021 12.8589 40.3462C13.0879 40.5211 13.3319 40.6721 13.5919 40.7982C13.6569 40.8302 13.7229 40.8601 13.7899 40.8882C13.8569 40.9171 13.9239 40.9431 13.9919 40.9681C14.1279 41.0182 14.2649 41.0612 14.4039 41.0972C14.6799 41.1692 14.9629 41.2131 15.2509 41.2312C16.2241 41.2916 17.1991 41.3446 18.1771 41.3896C19.1531 41.4357 20.1321 41.4727 21.1111 41.5027C23.0681 41.5636 25.0291 41.5936 26.9941 41.5936C27.485 41.5936 27.9771 41.5917 28.4681 41.5876C28.959 41.5846 29.451 41.5786 29.9421 41.5707C30.925 41.5557 31.9061 41.5336 32.886 41.5027C34.8441 41.4426 36.7961 41.3527 38.7414 41.2316C38.8864 41.2227 39.0294 41.2067 39.1724 41.1846C39.2433 41.1726 39.3144 41.1597 39.3864 41.1447C39.4564 41.1296 39.5273 41.1136 39.5964 41.0946C39.8763 41.0226 40.1454 40.9226 40.4044 40.7957C40.4703 40.7646 40.5334 40.7316 40.5964 40.6967C40.6603 40.6616 40.7234 40.6246 40.7853 40.5856C40.9094 40.5096 41.0284 40.4266 41.1423 40.3386C41.3724 40.1636 41.5823 39.9667 41.7734 39.7487C41.8214 39.6936 41.8674 39.6376 41.9134 39.5807C41.9584 39.5237 42.0024 39.4656 42.0444 39.4066C42.1293 39.2897 42.2073 39.1686 42.2794 39.0447C42.4254 38.7966 42.5464 38.5376 42.6443 38.2656C42.6694 38.1976 42.6924 38.1287 42.7144 38.0596C42.7354 37.9906 42.7554 37.9216 42.7734 37.8527C42.8104 37.7136 42.8414 37.5746 42.8654 37.4346C42.9144 37.1537 42.9384 36.8706 42.9396 36.5841Z" stroke="#FF00FF" stroke-width="0.283465" stroke-miterlimit="10" stroke-linecap="round" stroke-linejoin="round"/>
<path fill-rule="evenodd" clip-rule="evenodd" d="M21.3157 10.2845C21.1432 10.112 20.8569 10.112 20.6844 10.2845L19.3344 11.6345C19.0669 11.902 18.6332 11.902 18.3657 11.6345C18.0982 11.367 18.0982 10.9333 18.3657 10.6658L19.7157 9.31579C20.4232 8.60828 21.5769 8.60828 22.2844 9.31579L23.6344 10.6658C23.9019 10.9333 23.9019 11.367 23.6344 11.6345C23.3669 11.902 22.9332 11.902 22.6657 11.6345L21.3157 10.2845ZM16.8844 14.0845C17.1519 13.817 17.1519 13.3833 16.8844 13.1158C16.6169 12.8483 16.1832 12.8483 15.9157 13.1158L14.5657 14.4658C13.8582 15.1733 13.8582 16.327 14.5657 17.0345L15.9157 18.3845C16.1832 18.652 16.6169 18.652 16.8844 18.3845C17.1519 18.117 17.1519 17.6833 16.8844 17.4158L15.5344 16.0658C15.3619 15.8933 15.3619 15.607 15.5344 15.4345L16.8844 14.0845ZM19.3344 19.8658C19.0669 19.5983 18.6332 19.5983 18.3657 19.8658C18.0982 20.1333 18.0982 20.567 18.3657 20.8345L19.7157 22.1845C20.4232 22.892 21.5769 22.892 22.2844 22.1845L23.6344 20.8345C23.9019 20.567 23.9019 20.1333 23.6344 19.8658C23.3669 19.5983 22.9332 19.5983 22.6657 19.8658L21.3157 21.2158C21.1432 21.3883 20.8569 21.3883 20.6844 21.2158L19.3344 19.8658ZM26.0844 13.1158C25.8169 12.8483 25.3832 12.8483 25.1157 13.1158C24.8482 13.3833 24.8482 13.817 25.1157 14.0845L26.4657 15.4345C26.6382 15.607 26.6382 15.8933 26.4657 16.0658L25.1157 17.4158C24.8482 17.6833 24.8482 18.117 25.1157 18.3845C25.3832 18.652 25.8169 18.652 26.0844 18.3845L27.4344 17.0345C28.1419 16.327 28.1419 15.1733 27.4344 14.4658L26.0844 13.1158Z" fill="black"/>
<path d="M16.4906 35.8673C15.0843 35.8673 14.1468 35.2814 13.8734 34.4806C13.8295 34.3634 13.805 34.2365 13.805 34.1193C13.805 33.7677 14.0296 33.5431 14.3616 33.5431C14.6399 33.5431 14.8157 33.6554 14.9524 33.9386C15.1721 34.549 15.7776 34.8224 16.5296 34.8224C17.3792 34.8224 17.9749 34.4025 17.9749 33.8165C17.9749 33.3087 17.6233 32.9962 16.7054 32.8057L15.9486 32.6494C14.5375 32.3613 13.8783 31.6972 13.8783 30.667C13.8783 29.4268 14.9672 28.5869 16.4955 28.5869C17.7406 28.5869 18.7074 29.1435 18.9955 30.0762C19.0248 30.1543 19.0394 30.2471 19.0394 30.3643C19.0394 30.6719 18.8197 30.8819 18.4925 30.8819C18.1995 30.8819 18.0189 30.7549 17.887 30.4815C17.6477 29.8858 17.1448 29.6319 16.4856 29.6319C15.7043 29.6319 15.1477 30.003 15.1477 30.5938C15.1477 31.0723 15.4993 31.3799 16.3782 31.5655L17.135 31.7218C18.6194 32.0294 19.2444 32.6251 19.2444 33.6701C19.2444 35.0178 18.1848 35.8674 16.4905 35.8674L16.4906 35.8673Z" fill="black"/>
<path d="M28.2464 34.8367C27.4894 34.8367 26.9864 34.1774 26.9815 33.1616C26.9864 32.1556 27.4602 31.4865 28.2464 31.4865C29.0326 31.4865 29.521 32.1409 29.521 33.1616C29.521 34.1872 29.0034 34.8367 28.2464 34.8367ZM30.7663 33.1615C30.7663 31.5059 29.9312 30.4853 28.6174 30.4853C28.1314 30.4853 27.3613 30.7293 27.0604 30.8313C26.9929 30.8542 26.9182 30.8245 26.8865 30.7605C26.8785 30.7442 26.8702 30.728 26.8598 30.7132C26.7405 30.5427 26.5648 30.4707 26.3661 30.4707C26.0193 30.4707 25.7752 30.6953 25.7752 31.0958V36.9515C25.7752 37.3618 26.0242 37.5913 26.3808 37.5913C26.7374 37.5913 26.9913 37.3618 26.9913 36.9515V35.5933C26.9913 35.4906 27.0972 35.4217 27.1908 35.4639C27.5527 35.6268 28.1554 35.833 28.6371 35.833C29.9361 35.833 30.7664 34.8123 30.7664 33.1616L30.7663 33.1615Z" fill="black"/>
<path d="M35.1012 32.548H33.012C32.9214 32.548 32.8546 32.4642 32.8736 32.3756C33.0102 31.7369 33.4818 31.4093 34.0762 31.4093C34.6706 31.4093 35.1247 31.7241 35.2409 32.3824C35.2562 32.4689 35.1891 32.548 35.1012 32.548ZM34.0714 30.4668C32.5772 30.4668 31.6251 31.5312 31.6251 33.1817C31.6251 34.8322 32.5577 35.8526 34.1398 35.8526C34.94 35.8526 35.526 35.6748 36.0257 35.1198C36.2494 34.8714 36.1895 34.5007 35.8934 34.3422C35.644 34.2086 35.3603 34.3367 35.221 34.4661C34.7783 34.8775 34.4535 34.9151 34.1301 34.9151C33.3839 34.9151 32.8939 34.4304 32.8409 33.6069C32.8356 33.5248 32.9 33.4551 32.9823 33.4551H35.9365C36.2177 33.4551 36.4471 33.2303 36.4535 32.9492C36.4862 31.5063 35.511 30.4668 34.0714 30.4668Z" fill="black"/>
<path d="M37.3035 35.2073V31.0851C37.3035 30.7041 37.5379 30.4697 37.8847 30.4697C38.1183 30.4697 38.3049 30.5823 38.3975 30.7782C38.3994 30.7822 38.4058 30.7983 38.4143 30.8201C38.4484 30.9076 38.5567 30.9386 38.6316 30.8819C38.834 30.7288 39.2163 30.4844 39.5942 30.4844C39.7847 30.4844 39.9312 30.5332 40.024 30.6163C40.1363 30.7091 40.1949 30.8556 40.1949 31.0559C40.1949 31.2562 40.1363 31.388 40.0142 31.4857C39.897 31.5883 39.7163 31.642 39.4769 31.6469C38.7833 31.6518 38.5196 32.0865 38.5196 32.7165V35.2074C38.5196 35.6079 38.2754 35.8472 37.9091 35.8472C37.5428 35.8472 37.3035 35.6078 37.3035 35.2073Z" fill="black"/>
<path d="M20.0936 33.9179V31.1095C20.0936 30.7041 20.3427 30.4697 20.6992 30.4697C21.0557 30.4697 21.3097 30.7041 21.3097 31.1144V33.6737C21.3097 34.4161 21.6711 34.8166 22.3549 34.8166C23.0387 34.8166 23.4929 34.3184 23.4929 33.5663V31.1095C23.4929 30.7041 23.7469 30.4697 24.1034 30.4697C24.4599 30.4697 24.709 30.7041 24.709 31.1144V35.2318C24.709 35.6225 24.4746 35.8472 24.1278 35.8472C23.893 35.8472 23.7083 35.747 23.6114 35.5641C23.6055 35.5529 23.5999 35.542 23.5946 35.5315C23.5602 35.4632 23.4779 35.4344 23.4085 35.4666C23.1476 35.5879 22.5288 35.8422 21.9299 35.8422C20.8067 35.8423 20.0936 35.1145 20.0936 33.9179Z" fill="black"/>
</svg>
