<svg width="54" height="55" viewBox="0 0 54 55" fill="none" xmlns="http://www.w3.org/2000/svg">
<rect x="1.8501" y="2.79846" width="50.3" height="50.3" rx="3" stroke="#8B1EFF" stroke-width="0.28"/>
<path d="M9.91309 37.9961C9.83508 28.0092 9.73608 18.0211 9.61914 8.03309L9.6192 8.03065C9.62323 7.86463 9.63623 7.69861 9.65631 7.53248C9.67633 7.36744 9.70233 7.2035 9.73553 7.04004C9.76752 6.87806 9.80652 6.71705 9.85266 6.55823C9.89966 6.40027 9.95166 6.24427 10.0115 6.09009C10.1985 5.61609 10.4535 5.16517 10.77 4.76282C11.083 4.36585 11.456 4.01685 11.8725 3.73243C12.2875 3.45045 12.7465 3.23243 13.2258 3.08545C13.7078 2.93836 14.2118 2.86243 14.7141 2.85511C18.8081 2.8202 22.9021 2.80311 26.9963 2.80347C31.0893 2.80347 35.1833 2.82044 39.2776 2.85572C39.4396 2.85865 39.6016 2.86963 39.7635 2.88624C40.0035 2.91224 40.2435 2.95325 40.4799 3.01002C40.7139 3.06702 40.9449 3.13892 41.1697 3.22803C41.4037 3.32105 41.6287 3.43201 41.8449 3.55921C42.062 3.68714 42.2689 3.83118 42.4627 3.99012C42.6577 4.15015 42.8417 4.3252 43.0105 4.51172C43.1795 4.70069 43.3355 4.90272 43.476 5.11426C43.757 5.54334 43.975 6.01331 44.125 6.50501C44.276 7.00294 44.358 7.52295 44.373 8.04114C44.252 18.0181 44.154 27.9951 44.08 37.9736C44.074 38.1336 44.0601 38.2936 44.039 38.4522C44.018 38.6132 43.991 38.7721 43.9569 38.9298C43.9239 39.0888 43.8839 39.2468 43.8358 39.4022C43.7888 39.5582 43.7349 39.7122 43.675 39.8641C43.484 40.3392 43.228 40.7892 42.9172 41.198C42.6032 41.609 42.2352 41.9771 41.8244 42.288C41.4154 42.598 40.9624 42.8521 40.4838 43.0391C40.0098 43.224 39.5098 43.344 39.0063 43.392C31.0073 43.902 22.9843 43.902 14.9849 43.3921C14.6529 43.3601 14.3229 43.2962 14.0024 43.202C13.6794 43.108 13.3654 42.983 13.0632 42.8305C12.4602 42.5234 11.9092 42.1054 11.4476 41.6062C10.9866 41.1091 10.6126 40.5302 10.349 39.9081C10.219 39.6001 10.115 39.281 10.0411 38.9541C9.96912 38.6321 9.92407 38.3031 9.91113 37.973" stroke="#8B1EFF" stroke-width="0.283" stroke-miterlimit="10"/>
<rect x="12.6855" y="6.47681" width="28.63" height="34.31" rx="1.43" stroke="#00FFFF" stroke-width="0.28"/>
<path d="M42.9396 37.5326C42.9576 32.6807 42.9776 27.8276 43.0006 22.9757C43.0216 18.1227 43.0466 13.2706 43.0756 8.4176C43.0764 8.27295 43.0714 8.12891 43.0594 7.98596C43.0494 7.8429 43.0314 7.69995 43.0074 7.55896C42.9604 7.27686 42.8884 7.00293 42.7894 6.73792C42.7644 6.67188 42.7384 6.60596 42.7104 6.54089C42.6814 6.47485 42.6524 6.40991 42.6214 6.34692C42.5584 6.21887 42.4904 6.09595 42.4154 5.97693C42.2664 5.73889 42.0934 5.51892 41.8934 5.31494C41.6954 5.11194 41.4774 4.93494 41.2434 4.78186C41.1264 4.70593 41.0054 4.63489 40.8794 4.57092C40.8164 4.53894 40.7534 4.50793 40.6874 4.47888C40.6234 4.44885 40.5564 4.42188 40.4904 4.39587C40.2234 4.29187 39.9504 4.21692 39.6714 4.16589C39.3924 4.11487 39.1074 4.08887 38.8164 4.08594C37.8376 4.07837 36.8566 4.07031 35.8735 4.06433C34.8896 4.05737 33.9056 4.05237 32.9205 4.04736C30.9496 4.03931 28.9756 4.0354 26.9985 4.0354C26.5035 4.0354 26.0096 4.0354 25.5146 4.0354C25.0206 4.03638 24.5256 4.03735 24.0306 4.03833C23.0416 4.04041 22.0536 4.04333 21.0685 4.04736C19.0966 4.0564 17.1326 4.06934 15.1755 4.0863C15.0298 4.0874 14.8859 4.09534 14.7408 4.1084C14.5979 4.12231 14.4539 4.14136 14.3129 4.16736C14.0298 4.21936 13.7559 4.29639 13.4908 4.40039C13.4249 4.42639 13.3599 4.45337 13.2949 4.4834C13.2299 4.51233 13.1649 4.54431 13.1019 4.57642C12.9749 4.64233 12.8539 4.71338 12.7359 4.79138C12.5009 4.94531 12.2839 5.12439 12.0859 5.32837C12.0369 5.37842 11.9889 5.4314 11.9429 5.48438C11.8969 5.53735 11.8519 5.59131 11.8089 5.64734C11.7229 5.75732 11.6429 5.87231 11.5688 5.99036C11.4949 6.10938 11.4279 6.23242 11.3649 6.3584C11.3349 6.42139 11.3058 6.48535 11.2779 6.55139C11.2499 6.61633 11.2239 6.68335 11.1989 6.75037C11.1009 7.01636 11.0298 7.28931 10.9839 7.56738C10.9379 7.84534 10.9149 8.12939 10.9169 8.41833C10.9452 13.2709 10.9712 18.1229 10.9932 22.976C11.0162 27.8279 11.0352 32.6809 11.0532 37.533C11.0539 37.8197 11.0779 38.1036 11.1279 38.3877C11.1409 38.4586 11.1549 38.5297 11.1699 38.5996C11.1859 38.6697 11.2019 38.7396 11.2209 38.8086C11.2579 38.9476 11.3009 39.0836 11.3499 39.2186C11.3989 39.3536 11.4529 39.4867 11.5149 39.6167C11.5459 39.6816 11.5769 39.7467 11.6119 39.8107C11.6459 39.8746 11.6809 39.9386 11.7179 40.0017C11.8649 40.2517 12.0329 40.4846 12.2239 40.7017C12.3189 40.8097 12.4199 40.9137 12.5269 41.0137C12.5789 41.0636 12.6339 41.1117 12.6899 41.1587C12.7449 41.2057 12.8009 41.2506 12.8589 41.2947C13.0879 41.4696 13.3319 41.6206 13.5919 41.7467C13.6569 41.7787 13.7229 41.8086 13.7899 41.8367C13.8569 41.8656 13.9239 41.8916 13.9919 41.9166C14.1279 41.9667 14.2649 42.0096 14.4039 42.0457C14.6799 42.1177 14.9629 42.1616 15.2509 42.1797C16.2241 42.2401 17.1991 42.2931 18.1771 42.3381C19.1531 42.3842 20.1321 42.4211 21.1111 42.4512C23.0681 42.5121 25.0291 42.5421 26.9941 42.5421C27.485 42.5421 27.9771 42.5402 28.4681 42.5361C28.959 42.5331 29.451 42.5271 29.9421 42.5192C30.925 42.5042 31.9061 42.4821 32.886 42.4512C34.8441 42.3911 36.7961 42.3011 38.7414 42.1801C38.8864 42.1711 39.0294 42.1552 39.1724 42.1331C39.2433 42.1211 39.3144 42.1082 39.3864 42.0931C39.4564 42.0781 39.5273 42.0621 39.5964 42.0431C39.8763 41.9711 40.1454 41.8711 40.4044 41.7441C40.4703 41.7131 40.5334 41.6801 40.5964 41.6451C40.6603 41.6101 40.7234 41.5731 40.7853 41.5341C40.9094 41.4581 41.0284 41.3751 41.1423 41.2871C41.3724 41.1121 41.5823 40.9152 41.7734 40.6971C41.8214 40.6421 41.8674 40.5861 41.9134 40.5292C41.9584 40.4722 42.0024 40.4141 42.0444 40.3551C42.1293 40.2382 42.2073 40.1171 42.2794 39.9932C42.4254 39.7451 42.5464 39.4861 42.6443 39.2141C42.6694 39.1461 42.6924 39.0771 42.7144 39.0081C42.7354 38.9391 42.7554 38.8701 42.7734 38.8011C42.8104 38.6621 42.8414 38.5231 42.8654 38.3831C42.9144 38.1022 42.9384 37.8191 42.9396 37.5326Z" stroke="#FF00FF" stroke-width="0.283465" stroke-miterlimit="10" stroke-linecap="round" stroke-linejoin="round"/>
<path d="M14.9399 19.646C14.9399 19.1889 15.1245 18.8548 15.9596 17.756L20.9014 11.0196C20.9701 10.926 20.9033 10.794 20.7872 10.794H16.1618C15.5553 10.794 15.1509 10.4072 15.1509 9.82706C15.1509 9.2381 15.5641 8.85132 16.1618 8.85132H22.4646C23.2381 8.85132 23.7216 9.29963 23.7216 10.0204C23.7216 10.4863 23.5194 10.8643 22.6931 11.9719L17.8377 18.6828C17.7699 18.7765 17.8369 18.9076 17.9525 18.9076H22.9832C23.5721 18.9076 23.9853 19.3031 23.9853 19.8833C23.9853 20.4547 23.5634 20.8503 22.9744 20.8503H16.2409C15.4674 20.8503 14.9399 20.358 14.9399 19.646Z" fill="black"/>
<path fill-rule="evenodd" clip-rule="evenodd" d="M35.6518 29.9726C34.0147 30.007 32.1076 30.4953 30.7158 30.9228C30.341 31.0379 29.9438 30.8274 29.8286 30.4526C29.7135 30.0778 29.924 29.6805 30.2988 29.5654C31.7144 29.1305 33.7782 28.5917 35.6219 28.5529C36.5426 28.5335 37.4712 28.6366 38.2517 28.988C39.0601 29.3519 39.7016 29.982 39.9783 30.9472C40.2836 32.0122 40.26 32.9697 39.9283 33.7984C39.5979 34.6241 38.991 35.2491 38.2587 35.7052C36.8187 36.6021 34.7994 36.9096 32.9285 36.8479C32.5365 36.835 32.2293 36.5068 32.2422 36.1149C32.2552 35.723 32.5833 35.4158 32.9752 35.4287C34.7125 35.486 36.4071 35.1856 37.5079 34.4999C38.046 34.1647 38.4163 33.7547 38.61 33.2708C38.8024 32.79 38.8498 32.1633 38.6133 31.3385C38.4667 30.8272 38.1488 30.499 37.6687 30.2828C37.1606 30.0541 36.4714 29.9553 35.6518 29.9726Z" fill="black"/>
<path fill-rule="evenodd" clip-rule="evenodd" d="M35.5161 12.6455C34.264 12.6726 32.7946 13.0582 31.711 13.4007C31.3371 13.5188 30.9382 13.3115 30.8201 12.9376C30.7019 12.5637 30.9092 12.1648 31.2831 12.0467C32.3907 11.6966 34.0208 11.2575 35.4854 11.2258C36.2169 11.21 36.971 11.2935 37.6126 11.5906C38.2831 11.9012 38.8136 12.4402 39.0406 13.2547C39.2846 14.1305 39.2683 14.9274 38.9975 15.6233C38.7275 16.3175 38.2313 16.842 37.6372 17.2227C36.4741 17.968 34.8588 18.2163 33.381 18.1662C32.9891 18.1529 32.6822 17.8244 32.6955 17.4325C32.7088 17.0406 33.0372 16.7337 33.4291 16.747C34.7677 16.7924 36.0511 16.5526 36.8711 16.0271C37.2686 15.7724 37.5351 15.4658 37.6741 15.1085C37.8125 14.7529 37.8515 14.2777 37.6727 13.636C37.5693 13.265 37.351 13.0344 37.0158 12.8792C36.6517 12.7105 36.1429 12.6319 35.5161 12.6455Z" fill="black"/>
</svg>
