<svg width="54" height="54" viewBox="0 0 54 54" fill="none" xmlns="http://www.w3.org/2000/svg">
<path d="M11.4159 40.9328C10.9698 40.4188 10.6218 39.8188 10.3779 39.1807C10.1359 38.5486 9.99377 37.8777 9.96387 37.2056L9.94531 7.2232C9.96619 6.6817 10.0662 6.13873 10.2383 5.62262C10.3237 5.36517 10.4277 5.11517 10.5479 4.8731C10.668 4.63336 10.8049 4.40033 10.958 4.17926C11.1099 3.95977 11.2788 3.75177 11.4629 3.55767C11.6456 3.36554 11.8436 3.18756 12.0537 3.02545C12.2628 2.86444 12.4847 2.71942 12.7148 2.59137C12.9446 2.46344 13.1836 2.35235 13.4297 2.25933C13.5842 2.20208 13.7423 2.15008 13.9023 2.10699C14.0616 2.06317 14.2236 2.02716 14.3857 1.99713C14.549 1.96734 14.7129 1.94342 14.877 1.92633C15.042 1.90911 15.208 1.89813 15.374 1.89508C19.2509 1.8648 23.1278 1.84869 27.0049 1.84869C30.8817 1.84918 34.7596 1.86419 38.6367 1.89508C39.3231 1.90509 40.0171 2.04107 40.6592 2.294C40.981 2.42181 41.2909 2.57879 41.583 2.76471C41.8763 2.95233 42.1514 3.16827 42.4014 3.41021C42.9058 3.89923 43.3108 4.49517 43.5918 5.14312C43.8774 5.8012 44.0394 6.51324 44.0645 7.2232L44.0469 37.2056C44.0157 37.8773 43.8767 38.5493 43.6348 39.1812C43.3896 39.8193 43.0397 40.4183 42.5938 40.9332C42.1498 41.4473 41.6078 41.8784 41.0059 42.1983C40.4106 42.5143 39.7577 42.7234 39.0947 42.8013C31.047 43.4144 22.964 43.4144 14.916 42.8013C14.2518 42.723 13.5999 42.5119 13.006 42.1962C12.403 41.8752 11.861 41.4462 11.4159 40.9328Z" stroke="#16215B" stroke-width="0.283" stroke-miterlimit="10"/>
<rect x="12.688" y="5.46797" width="28.63" height="34.34" rx="1.46" stroke="#00FFFF" stroke-width="0.28"/>
<path d="M42.9594 36.7488C42.9584 37.0358 42.9374 37.3198 42.8964 37.6008C42.8544 37.8808 42.7934 38.1578 42.7084 38.4308C42.6863 38.4998 42.6643 38.5678 42.6393 38.6358C42.6154 38.7028 42.5894 38.7708 42.5624 38.8378C42.5083 38.9708 42.4484 39.1008 42.3833 39.2278C42.2523 39.4817 42.0994 39.7228 41.9224 39.9507C41.8783 40.0068 41.8313 40.0628 41.7843 40.1177C41.7373 40.1718 41.6884 40.2238 41.6393 40.2758C41.5413 40.3788 41.4363 40.4758 41.3294 40.5678C41.2204 40.6598 41.1073 40.7458 40.9894 40.8257C40.9303 40.8658 40.8704 40.9048 40.8084 40.9407C40.7473 40.9778 40.6844 41.0137 40.6214 41.0478C40.3683 41.1818 40.1044 41.2868 39.8323 41.3648C39.7633 41.3848 39.6944 41.4018 39.6254 41.4178C39.5553 41.4338 39.4854 41.4478 39.4153 41.4608C39.2733 41.4858 39.1324 41.5027 38.9894 41.5137C37.0055 41.6638 35.0155 41.7758 33.0176 41.8508C32.0186 41.8887 31.0166 41.9168 30.0136 41.9358C29.5126 41.9448 29.0095 41.9518 28.5076 41.9568C28.0055 41.9618 27.5045 41.9638 27.0026 41.9638C24.9976 41.9638 22.9966 41.9268 20.9986 41.8508C19.9995 41.8138 19.0005 41.7668 18.0036 41.7108C17.5055 41.6818 17.0076 41.6518 16.5105 41.6188C16.0136 41.5868 15.5166 41.5518 15.0219 41.5141C14.7368 41.4921 14.4578 41.4441 14.1858 41.3671C14.0498 41.3292 13.9158 41.2831 13.7829 41.2302C13.7168 41.2042 13.6519 41.1751 13.5858 41.1452C13.5219 41.1152 13.4568 41.0832 13.3948 41.0501C13.1438 40.9172 12.9079 40.7591 12.6908 40.5751C12.6359 40.5291 12.5818 40.4811 12.5298 40.4332C12.4778 40.3831 12.4258 40.3321 12.3759 40.2812C12.2769 40.1782 12.1829 40.0701 12.0949 39.9582C12.0069 39.8461 11.9239 39.7292 11.8468 39.6092C11.8089 39.5491 11.7719 39.4881 11.7359 39.4251C11.6989 39.3631 11.6648 39.3001 11.6319 39.2361C11.4988 38.9802 11.3919 38.7151 11.3068 38.4432C11.2638 38.3072 11.2268 38.1681 11.1949 38.0281C11.1789 37.9582 11.1638 37.8881 11.1509 37.8172C11.1378 37.7462 11.1249 37.6761 11.1149 37.6052C11.0729 37.3211 11.0529 37.0362 11.0517 36.7488C11.0297 27.0169 11.0047 17.2839 10.9771 7.55182C10.9761 7.25482 11.0021 6.96283 11.0561 6.67486C11.0821 6.53082 11.1161 6.38885 11.1571 6.24786C11.1781 6.17682 11.1991 6.10687 11.224 6.03692C11.2481 5.96783 11.2731 5.89886 11.3011 5.83184C11.411 5.56085 11.547 5.30487 11.7091 5.0639C11.75 5.00384 11.792 4.94488 11.8361 4.88592C11.88 4.82782 11.9261 4.77093 11.973 4.7149C12.067 4.60284 12.166 4.49688 12.271 4.39691C12.4801 4.19683 12.708 4.01983 12.9571 3.8659C13.2061 3.71185 13.4671 3.5849 13.739 3.48382C13.875 3.43292 14.0141 3.38885 14.1541 3.35089C14.2261 3.33184 14.297 3.3139 14.3681 3.29791C14.4391 3.28192 14.5121 3.26788 14.5841 3.25592C14.8721 3.20489 15.1641 3.17889 15.4589 3.17682C17.3719 3.16082 19.2908 3.14984 21.2168 3.1419C22.1798 3.1369 23.1448 3.13482 24.1109 3.13287C24.5939 3.13189 25.0758 3.13092 25.5598 3.13092C26.0419 3.12982 26.5259 3.12982 27.0078 3.12982C28.9389 3.12982 30.8649 3.13385 32.7898 3.14093C33.7528 3.14483 34.7139 3.14984 35.6748 3.15582C36.6369 3.16192 37.5949 3.16888 38.5523 3.17682C38.8473 3.17889 39.1372 3.20489 39.4232 3.25482C39.7083 3.30389 39.9883 3.37884 40.2632 3.48089C40.3323 3.50592 40.4003 3.53289 40.4683 3.56182C40.5353 3.59088 40.6012 3.62091 40.6673 3.65289C40.7982 3.71685 40.9253 3.78582 41.0482 3.86187C41.2932 4.01385 41.5222 4.18988 41.7333 4.3919C41.7873 4.44183 41.8393 4.49383 41.8882 4.54693C41.9383 4.59991 41.9862 4.65484 42.0332 4.7099C42.1272 4.82086 42.2152 4.93585 42.2963 5.05584C42.3772 5.17584 42.4523 5.29986 42.5203 5.42791C42.5553 5.49286 42.5883 5.55792 42.6193 5.62494C42.6503 5.69183 42.6803 5.75982 42.7083 5.82782C42.7353 5.89593 42.7622 5.9649 42.7853 6.03485C42.8092 6.10492 42.8323 6.17486 42.8523 6.24591C42.8943 6.3869 42.9282 6.52984 42.9552 6.67389C43.0093 6.96185 43.0353 7.25482 43.0341 7.55218C43.0061 17.2841 42.9801 27.0171 42.9582 36.7491" stroke="#FF00FF" stroke-width="0.283465" stroke-miterlimit="10" stroke-linecap="round" stroke-linejoin="round"/>
<path d="M32.4374 16.3267C32.3526 16.0438 32.2142 15.7843 32.026 15.5553C31.8379 15.3263 31.6101 15.1402 31.349 15.0021C31.0778 14.8587 30.7841 14.7744 30.4761 14.7517C29.9534 14.7131 29.4323 14.8617 29.0086 15.1699C28.7438 15.3625 28.5266 15.6106 28.3707 15.8938C28.3174 15.9906 28.1782 15.9913 28.1237 15.895C27.9665 15.6172 27.7512 15.3733 27.4905 15.1823C27.0606 14.8673 26.531 14.7133 25.9991 14.7488C25.3521 14.792 24.7534 15.111 24.3567 15.6239C23.9599 16.1368 23.8016 16.7964 23.9223 17.4335L24.468 20.3137C24.4829 20.3922 24.43 20.4677 24.3511 20.48C23.9809 20.5378 23.6263 20.6559 23.2918 20.8332C22.8285 21.0787 22.4209 21.4354 22.113 21.8648C21.8051 22.2942 21.5979 22.7947 21.5139 23.3122C21.4243 23.8642 21.4711 24.4164 21.6529 24.9535L22.4212 27.223C23.1366 29.3364 25.1164 30.7563 27.3476 30.7563H27.7071C28.8419 30.7563 29.944 30.3466 30.8103 29.6027C31.6719 28.8629 32.2462 27.8398 32.4274 26.7221C32.4661 26.4841 32.4857 26.2412 32.4857 26.0003V25.6609C32.4857 24.9072 32.2496 24.1766 31.8148 23.5686C31.7738 23.5112 31.7561 23.4404 31.7646 23.3704L32.5137 17.2315C32.5511 16.925 32.5254 16.6205 32.4373 16.3267H32.4374ZM31.0684 26.0003C31.0684 26.1654 31.055 26.3318 31.0284 26.4951C30.9006 27.2834 30.4953 28.0051 29.887 28.5274C29.2776 29.0507 28.5034 29.3389 27.7071 29.3389H27.3476C25.7244 29.3389 24.2841 28.3059 23.7636 26.7684L22.9953 24.4989C22.7859 23.8804 22.8841 23.2213 23.2647 22.6907C23.6453 22.1601 24.238 21.8558 24.891 21.8558H25.1836C25.4299 21.8558 25.6669 21.7522 25.8275 21.5654C25.9881 21.3786 26.0624 21.1155 26.015 20.8652L25.3148 17.1695C25.2689 16.9271 25.3267 16.6861 25.4777 16.491C25.6287 16.2959 25.8474 16.1793 26.0935 16.1629C26.5068 16.1354 26.878 16.4073 26.9762 16.8097L27.811 20.2318C27.9236 20.6932 28.5797 20.6932 28.6922 20.2318L29.5358 16.7732C29.6288 16.3919 29.9805 16.1361 30.3718 16.165C30.5921 16.1813 30.7907 16.2842 30.9309 16.4549C31.0711 16.6256 31.1336 16.8403 31.1068 17.0596L30.3876 22.9533C30.3766 23.0438 30.2842 23.1005 30.1985 23.0693L29.228 22.7164C28.8973 22.5961 28.5512 22.5419 28.1994 22.5552L26.8823 22.6053C26.5617 22.6175 26.2484 22.7136 25.9762 22.8834C25.704 23.0531 25.4797 23.2921 25.3277 23.5746C25.1286 23.9444 25.0616 24.3753 25.1388 24.7882C25.2159 25.2004 25.4338 25.5779 25.7524 25.8511C26.5846 26.5647 27.2619 26.9422 27.823 27.0051C27.9344 27.0176 28.0387 27.0727 28.1094 27.1564L28.4271 27.5326C28.5673 27.6986 28.7674 27.784 28.9689 27.784C29.1304 27.784 29.2928 27.7291 29.4258 27.6167C29.7248 27.3642 29.7625 26.9171 29.51 26.618L29.1923 26.2418C28.8858 25.8788 28.4556 25.6496 27.9809 25.5964C27.938 25.5916 27.7716 25.5593 27.4332 25.3467C27.2061 25.204 26.951 25.0117 26.675 24.775C26.5203 24.6424 26.4795 24.425 26.5757 24.2463C26.6473 24.1134 26.7854 24.0272 26.9363 24.0215L28.2533 23.9714C28.421 23.9651 28.5861 23.9909 28.7438 24.0482L30.8457 24.8125C30.8844 24.8266 30.9153 24.8566 30.9297 24.8952C31.0207 25.1379 31.0684 25.3969 31.0684 25.6605V25.9999V26.0003Z" fill="black"/>
</svg>
