<svg width="55" height="54" viewBox="0 0 55 54" fill="none" xmlns="http://www.w3.org/2000/svg">
<path d="M11.9159 40.9327C11.4698 40.4187 11.1218 39.8187 10.8779 39.1807C10.6359 38.5486 10.4938 37.8777 10.4639 37.2056L10.4453 7.22314C10.4662 6.68164 10.5662 6.13867 10.7383 5.62256C10.8237 5.36511 10.9277 5.11511 11.0479 4.87305C11.168 4.6333 11.3049 4.40027 11.458 4.1792C11.6099 3.95972 11.7788 3.75171 11.9629 3.55762C12.1456 3.36548 12.3436 3.1875 12.5537 3.02539C12.7628 2.86438 12.9847 2.71936 13.2148 2.59131C13.4446 2.46338 13.6836 2.35229 13.9297 2.25928C14.0842 2.20203 14.2423 2.15002 14.4023 2.10693C14.5616 2.06311 14.7236 2.0271 14.8857 1.99707C15.049 1.96729 15.2129 1.94336 15.377 1.92627C15.542 1.90906 15.708 1.89807 15.874 1.89502C19.7509 1.86475 23.6278 1.84863 27.5049 1.84863C31.3817 1.84912 35.2596 1.86414 39.1367 1.89502C39.8231 1.90503 40.5171 2.04102 41.1592 2.29395C41.481 2.42175 41.7909 2.57874 42.083 2.76465C42.3763 2.95227 42.6514 3.16821 42.9014 3.41016C43.4058 3.89917 43.8108 4.49512 44.0918 5.14307C44.3774 5.80115 44.5394 6.51318 44.5645 7.22314L44.5469 37.2056C44.5157 37.8772 44.3767 38.5492 44.1348 39.1812C43.8896 39.8192 43.5397 40.4182 43.0938 40.9331C42.6498 41.4473 42.1078 41.8783 41.5059 42.1982C40.9106 42.5143 40.2577 42.7234 39.5947 42.8013C31.547 43.4143 23.464 43.4143 15.416 42.8013C14.7518 42.7229 14.0999 42.5118 13.506 42.1962C12.903 41.8751 12.361 41.4462 11.9159 40.9327Z" stroke="#16215B" stroke-width="0.283" stroke-miterlimit="10"/>
<rect x="13.1882" y="5.46802" width="28.63" height="34.34" rx="1.46" stroke="#00FFFF" stroke-width="0.28"/>
<path d="M43.4594 36.7488C43.4584 37.0358 43.4374 37.3197 43.3964 37.6007C43.3544 37.8807 43.2934 38.1577 43.2084 38.4308C43.1863 38.4998 43.1643 38.5677 43.1393 38.6357C43.1154 38.7028 43.0894 38.7708 43.0624 38.8378C43.0083 38.9707 42.9484 39.1007 42.8833 39.2278C42.7523 39.4817 42.5994 39.7228 42.4224 39.9507C42.3783 40.0067 42.3313 40.0627 42.2843 40.1177C42.2373 40.1718 42.1884 40.2238 42.1393 40.2758C42.0413 40.3788 41.9363 40.4757 41.8294 40.5677C41.7204 40.6598 41.6073 40.7457 41.4894 40.8257C41.4303 40.8657 41.3704 40.9048 41.3084 40.9407C41.2473 40.9778 41.1844 41.0137 41.1214 41.0477C40.8683 41.1818 40.6044 41.2867 40.3323 41.3647C40.2633 41.3848 40.1944 41.4017 40.1254 41.4177C40.0553 41.4337 39.9854 41.4478 39.9153 41.4607C39.7733 41.4857 39.6324 41.5027 39.4894 41.5137C37.5055 41.6637 35.5155 41.7758 33.5176 41.8507C32.5186 41.8887 31.5166 41.9167 30.5136 41.9358C30.0126 41.9447 29.5095 41.9518 29.0076 41.9568C28.5055 41.9618 28.0045 41.9637 27.5026 41.9637C25.4976 41.9637 23.4966 41.9268 21.4986 41.8507C20.4995 41.8137 19.5005 41.7667 18.5036 41.7107C18.0055 41.6818 17.5076 41.6517 17.0105 41.6188C16.5136 41.5868 16.0166 41.5518 15.5219 41.514C15.2368 41.4921 14.9578 41.4441 14.6858 41.3671C14.5498 41.3291 14.4158 41.2831 14.2829 41.2301C14.2168 41.2041 14.1519 41.175 14.0858 41.1451C14.0219 41.1151 13.9568 41.0831 13.8948 41.05C13.6438 40.9171 13.4079 40.759 13.1908 40.5751C13.1359 40.5291 13.0818 40.4811 13.0298 40.4331C12.9778 40.3831 12.9258 40.332 12.8759 40.2811C12.7769 40.1781 12.6829 40.0701 12.5949 39.9581C12.5069 39.8461 12.4239 39.7291 12.3468 39.6091C12.3089 39.5491 12.2719 39.488 12.2359 39.425C12.1989 39.363 12.1648 39.3 12.1319 39.2361C11.9988 38.9801 11.8919 38.7151 11.8068 38.4431C11.7638 38.3071 11.7268 38.1681 11.6949 38.0281C11.6789 37.9581 11.6638 37.8881 11.6509 37.8171C11.6378 37.7461 11.6249 37.676 11.6149 37.6051C11.5729 37.321 11.5529 37.0361 11.5517 36.7488C11.5297 27.0168 11.5047 17.2838 11.4771 7.55176C11.4761 7.25476 11.5021 6.96277 11.5561 6.6748C11.5821 6.53076 11.6161 6.38879 11.6571 6.2478C11.6781 6.17676 11.6991 6.10681 11.724 6.03687C11.7481 5.96777 11.7731 5.8988 11.8011 5.83179C11.911 5.56079 12.047 5.30481 12.2091 5.06384C12.25 5.00378 12.292 4.94482 12.3361 4.88586C12.38 4.82776 12.4261 4.77087 12.473 4.71484C12.567 4.60278 12.666 4.49683 12.771 4.39685C12.9801 4.19678 13.208 4.01978 13.4571 3.86584C13.7061 3.71179 13.9671 3.58484 14.239 3.48376C14.375 3.43286 14.5141 3.38879 14.6541 3.35083C14.7261 3.33179 14.797 3.31384 14.8681 3.29785C14.9391 3.28186 15.0121 3.26782 15.0841 3.25586C15.3721 3.20483 15.6641 3.17883 15.9589 3.17676C17.8719 3.16077 19.7908 3.14978 21.7168 3.14185C22.6798 3.13684 23.6448 3.13477 24.6109 3.13281C25.0939 3.13184 25.5758 3.13086 26.0598 3.13086C26.5419 3.12976 27.0259 3.12976 27.5078 3.12976C29.4389 3.12976 31.3649 3.13379 33.2898 3.14087C34.2528 3.14478 35.2139 3.14978 36.1748 3.15576C37.1369 3.16187 38.0949 3.16882 39.0523 3.17676C39.3473 3.17883 39.6372 3.20483 39.9232 3.25476C40.2083 3.30383 40.4883 3.37878 40.7632 3.48083C40.8323 3.50586 40.9003 3.53284 40.9683 3.56177C41.0353 3.59082 41.1012 3.62085 41.1673 3.65283C41.2982 3.7168 41.4253 3.78577 41.5482 3.86182C41.7932 4.01379 42.0222 4.18982 42.2333 4.39185C42.2873 4.44177 42.3393 4.49377 42.3882 4.54688C42.4383 4.59985 42.4862 4.65479 42.5332 4.70984C42.6272 4.8208 42.7152 4.93579 42.7963 5.05579C42.8772 5.17578 42.9523 5.2998 43.0203 5.42786C43.0553 5.4928 43.0883 5.55786 43.1193 5.62488C43.1503 5.69177 43.1803 5.75977 43.2083 5.82776C43.2353 5.89587 43.2622 5.96484 43.2853 6.03479C43.3092 6.10486 43.3323 6.1748 43.3523 6.24585C43.3943 6.38684 43.4282 6.52979 43.4552 6.67383C43.5093 6.96179 43.5353 7.25476 43.5341 7.55212C43.5061 17.2841 43.4801 27.0171 43.4582 36.749" stroke="#FF00FF" stroke-width="0.283465" stroke-miterlimit="10" stroke-linecap="round" stroke-linejoin="round"/>
<path d="M16.5399 20.0061C15.8899 20.0061 15.4399 19.6061 15.4399 19.0161C15.4399 18.7761 15.4999 18.5061 15.6499 18.0561L18.6799 9.3861C19.0599 8.2661 19.5899 7.8061 20.5999 7.8061C21.6099 7.8061 22.1199 8.2661 22.4999 9.3861L25.5199 18.0561C25.6399 18.4361 25.6999 18.7261 25.6999 18.9661C25.6999 19.5961 25.2499 20.0061 24.5799 20.0061C23.9399 20.0061 23.5699 19.6761 23.3299 18.8561L22.6899 16.9161C22.6699 16.8561 22.6199 16.8161 22.5599 16.8161H18.5599C18.4999 16.8161 18.4399 16.8561 18.4299 16.9161L17.7899 18.8561C17.5399 19.6861 17.1899 20.0061 16.5599 20.0061H16.5399ZM19.1599 15.0461H21.9399C22.0399 15.0461 22.0999 14.9561 22.0799 14.8661L20.6999 10.4461C20.6599 10.3161 20.4699 10.3161 20.4299 10.4461L19.0399 14.8661C19.0099 14.9561 19.0799 15.0461 19.1799 15.0461H19.1599Z" fill="black"/>
</svg>
