<svg width="55" height="54" viewBox="0 0 55 54" fill="none" xmlns="http://www.w3.org/2000/svg">
<path d="M11.9159 40.9328C11.4698 40.4188 11.1218 39.8188 10.8779 39.1807C10.6359 38.5486 10.4938 37.8777 10.4639 37.2056L10.4453 7.22321C10.4662 6.6817 10.5662 6.13873 10.7383 5.62262C10.8237 5.36517 10.9277 5.11517 11.0479 4.87311C11.168 4.63336 11.3049 4.40033 11.458 4.17926C11.6099 3.95978 11.7788 3.75177 11.9629 3.55768C12.1456 3.36554 12.3436 3.18756 12.5537 3.02545C12.7628 2.86444 12.9847 2.71942 13.2148 2.59137C13.4446 2.46344 13.6836 2.35236 13.9297 2.25934C14.0842 2.20209 14.2423 2.15009 14.4023 2.10699C14.5616 2.06317 14.7236 2.02716 14.8857 1.99713C15.049 1.96735 15.2129 1.94342 15.377 1.92633C15.542 1.90912 15.708 1.89813 15.874 1.89508C19.7509 1.86481 23.6278 1.84869 27.5049 1.84869C31.3817 1.84918 35.2596 1.8642 39.1367 1.89508C39.8231 1.90509 40.5171 2.04108 41.1592 2.29401C41.481 2.42181 41.7909 2.5788 42.083 2.76471C42.3763 2.95233 42.6514 3.16827 42.9014 3.41022C43.4058 3.89923 43.8108 4.49518 44.0918 5.14313C44.3774 5.80121 44.5394 6.51324 44.5645 7.22321L44.5469 37.2056C44.5157 37.8773 44.3767 38.5493 44.1348 39.1812C43.8896 39.8193 43.5397 40.4183 43.0938 40.9332C42.6498 41.4473 42.1078 41.8784 41.5059 42.1983C40.9106 42.5143 40.2577 42.7234 39.5947 42.8013C31.547 43.4144 23.464 43.4144 15.416 42.8013C14.7518 42.723 14.0999 42.5119 13.506 42.1962C12.903 41.8752 12.361 41.4462 11.9159 40.9328Z" stroke="#16215B" stroke-width="0.283" stroke-miterlimit="10"/>
<rect x="13.188" y="5.46796" width="28.63" height="34.34" rx="1.46" stroke="#00FFFF" stroke-width="0.28"/>
<path d="M43.4594 36.7488C43.4584 37.0358 43.4374 37.3198 43.3964 37.6008C43.3544 37.8808 43.2934 38.1578 43.2084 38.4308C43.1863 38.4998 43.1643 38.5678 43.1393 38.6358C43.1154 38.7028 43.0894 38.7708 43.0624 38.8378C43.0083 38.9708 42.9484 39.1008 42.8833 39.2278C42.7523 39.4818 42.5994 39.7228 42.4224 39.9507C42.3783 40.0068 42.3313 40.0628 42.2843 40.1177C42.2373 40.1718 42.1884 40.2238 42.1393 40.2758C42.0413 40.3788 41.9363 40.4758 41.8294 40.5678C41.7204 40.6599 41.6073 40.7458 41.4894 40.8257C41.4303 40.8658 41.3704 40.9048 41.3084 40.9407C41.2473 40.9778 41.1844 41.0137 41.1214 41.0478C40.8683 41.1818 40.6044 41.2868 40.3323 41.3648C40.2633 41.3848 40.1944 41.4018 40.1254 41.4178C40.0553 41.4338 39.9854 41.4478 39.9153 41.4608C39.7733 41.4858 39.6324 41.5027 39.4894 41.5137C37.5055 41.6638 35.5155 41.7758 33.5176 41.8508C32.5186 41.8887 31.5166 41.9168 30.5136 41.9359C30.0126 41.9448 29.5095 41.9518 29.0076 41.9568C28.5055 41.9619 28.0045 41.9638 27.5026 41.9638C25.4976 41.9638 23.4966 41.9268 21.4986 41.8508C20.4995 41.8138 19.5005 41.7668 18.5036 41.7108C18.0055 41.6818 17.5076 41.6518 17.0105 41.6188C16.5136 41.5869 16.0166 41.5518 15.5219 41.5141C15.2368 41.4921 14.9578 41.4442 14.6858 41.3671C14.5498 41.3292 14.4158 41.2831 14.2829 41.2302C14.2168 41.2042 14.1519 41.1751 14.0858 41.1452C14.0219 41.1152 13.9568 41.0832 13.8948 41.0501C13.6438 40.9172 13.4079 40.7591 13.1908 40.5751C13.1359 40.5291 13.0818 40.4811 13.0298 40.4332C12.9778 40.3831 12.9258 40.3321 12.8759 40.2812C12.7769 40.1782 12.6829 40.0701 12.5949 39.9582C12.5069 39.8461 12.4239 39.7292 12.3468 39.6092C12.3089 39.5491 12.2719 39.4881 12.2359 39.4251C12.1989 39.3631 12.1648 39.3001 12.1319 39.2361C11.9988 38.9802 11.8919 38.7151 11.8068 38.4432C11.7638 38.3072 11.7268 38.1682 11.6949 38.0281C11.6789 37.9582 11.6638 37.8881 11.6509 37.8172C11.6378 37.7462 11.6249 37.6761 11.6149 37.6052C11.5729 37.3211 11.5529 37.0362 11.5517 36.7488C11.5297 27.0169 11.5047 17.2839 11.4771 7.55182C11.4761 7.25482 11.5021 6.96283 11.5561 6.67487C11.5821 6.53082 11.6161 6.38886 11.6571 6.24786C11.6781 6.17682 11.6991 6.10687 11.724 6.03693C11.7481 5.96783 11.7731 5.89886 11.8011 5.83185C11.911 5.56085 12.047 5.30487 12.2091 5.0639C12.25 5.00385 12.292 4.94489 12.3361 4.88593C12.38 4.82782 12.4261 4.77094 12.473 4.7149C12.567 4.60284 12.666 4.49689 12.771 4.39691C12.9801 4.19684 13.208 4.01984 13.4571 3.86591C13.7061 3.71185 13.9671 3.5849 14.239 3.48383C14.375 3.43292 14.5141 3.38886 14.6541 3.35089C14.7261 3.33185 14.797 3.3139 14.8681 3.29791C14.9391 3.28192 15.0121 3.26788 15.0841 3.25592C15.3721 3.2049 15.6641 3.17889 15.9589 3.17682C17.8719 3.16083 19.7908 3.14984 21.7168 3.14191C22.6798 3.1369 23.6448 3.13483 24.6109 3.13287C25.0939 3.1319 25.5758 3.13092 26.0598 3.13092C26.5419 3.12982 27.0259 3.12982 27.5078 3.12982C29.4389 3.12982 31.3649 3.13385 33.2898 3.14093C34.2528 3.14484 35.2139 3.14984 36.1748 3.15582C37.1369 3.16193 38.0949 3.16888 39.0523 3.17682C39.3473 3.17889 39.6372 3.2049 39.9232 3.25482C40.2083 3.30389 40.4883 3.37885 40.7632 3.4809C40.8323 3.50592 40.9003 3.5329 40.9683 3.56183C41.0353 3.59088 41.1012 3.62091 41.1673 3.65289C41.2982 3.71686 41.4253 3.78583 41.5482 3.86188C41.7932 4.01385 42.0222 4.18988 42.2333 4.39191C42.2873 4.44183 42.3393 4.49384 42.3882 4.54694C42.4383 4.59991 42.4862 4.65485 42.5332 4.7099C42.6272 4.82086 42.7152 4.93585 42.7963 5.05585C42.8772 5.17584 42.9523 5.29987 43.0203 5.42792C43.0553 5.49286 43.0883 5.55792 43.1193 5.62494C43.1503 5.69183 43.1803 5.75983 43.2083 5.82782C43.2353 5.89594 43.2622 5.9649 43.2853 6.03485C43.3092 6.10492 43.3323 6.17487 43.3523 6.24591C43.3943 6.3869 43.4282 6.52985 43.4552 6.67389C43.5093 6.96185 43.5353 7.25482 43.5341 7.55219C43.5061 17.2841 43.4801 27.0172 43.4582 36.7491" stroke="#FF00FF" stroke-width="0.283465" stroke-miterlimit="10" stroke-linecap="round" stroke-linejoin="round"/>
<path d="M19.3941 16.7973C19.2891 16.7973 19.193 16.856 19.145 16.9494L18.0542 19.0737C17.7905 19.6537 17.3599 19.9526 16.8413 19.9526C16.1733 19.9526 15.6636 19.4516 15.6636 18.8012C15.6636 18.5903 15.7163 18.3793 15.8394 18.1508L20.3569 9.46722C20.9282 8.32465 21.5347 7.90277 22.6245 7.90277H30.1128C30.6929 7.90277 31.1323 8.32465 31.1323 8.87836C31.1323 9.43207 30.7017 9.84515 30.1128 9.84515H25.6825C25.6052 9.84515 25.5425 9.90783 25.5425 9.98515V12.7813C25.5425 12.8586 25.6052 12.9213 25.6825 12.9213H29.8667C30.4204 12.9213 30.8247 13.308 30.8247 13.8354C30.8247 14.3627 30.4292 14.7407 29.8667 14.7407H25.6825C25.6052 14.7407 25.5425 14.8033 25.5425 14.8807V17.8175C25.5425 17.8948 25.6052 17.9575 25.6825 17.9575H30.0864C30.7017 17.9575 31.1323 18.3705 31.1323 18.933C31.1323 19.4955 30.7017 19.8998 30.0864 19.8998H24.8218C23.7495 19.8998 23.1958 19.3549 23.1958 18.3442V16.9373C23.1958 16.86 23.1331 16.7973 23.0558 16.7973H19.3941ZM20.175 14.7498C20.1292 14.8428 20.1969 14.9516 20.3006 14.9516H23.0558C23.1331 14.9516 23.1958 14.8889 23.1958 14.8116V9.98515C23.1958 9.90783 23.1331 9.84515 23.0558 9.84515H22.6765C22.6231 9.84515 22.5744 9.87547 22.5509 9.92332L20.175 14.7498Z" fill="black"/>
</svg>
