<svg width="54" height="54" viewBox="0 0 54 54" fill="none" xmlns="http://www.w3.org/2000/svg">
<rect x="1.8501" y="1.85001" width="50.3" height="50.3" rx="3" stroke="#8B1EFF" stroke-width="0.28"/>
<path d="M11.4159 40.9328C10.9698 40.4188 10.6218 39.8188 10.3779 39.1807C10.1359 38.5486 9.99377 37.8777 9.96387 37.2056L9.94531 7.22321C9.96619 6.6817 10.0662 6.13873 10.2383 5.62262C10.3237 5.36517 10.4277 5.11517 10.5479 4.87311C10.668 4.63336 10.8049 4.40033 10.958 4.17926C11.1099 3.95978 11.2788 3.75177 11.4629 3.55768C11.6456 3.36554 11.8436 3.18756 12.0537 3.02545C12.2628 2.86444 12.4847 2.71942 12.7148 2.59137C12.9446 2.46344 13.1836 2.35236 13.4297 2.25934C13.5842 2.20209 13.7423 2.15009 13.9023 2.10699C14.0616 2.06317 14.2236 2.02716 14.3857 1.99713C14.549 1.96735 14.7129 1.94342 14.877 1.92633C15.042 1.90912 15.208 1.89813 15.374 1.89508C19.2509 1.86481 23.1278 1.84869 27.0049 1.84869C30.8817 1.84918 34.7596 1.8642 38.6367 1.89508C39.3231 1.90509 40.0171 2.04108 40.6592 2.29401C40.981 2.42181 41.2909 2.5788 41.583 2.76471C41.8763 2.95233 42.1514 3.16827 42.4014 3.41022C42.9058 3.89923 43.3108 4.49518 43.5918 5.14313C43.8774 5.80121 44.0394 6.51324 44.0645 7.22321L44.0469 37.2056C44.0157 37.8773 43.8767 38.5493 43.6348 39.1812C43.3896 39.8193 43.0397 40.4183 42.5938 40.9332C42.1498 41.4473 41.6078 41.8784 41.0059 42.1983C40.4106 42.5143 39.7577 42.7234 39.0947 42.8013C31.047 43.4144 22.964 43.4144 14.916 42.8013C14.2518 42.723 13.5999 42.5119 13.006 42.1962C12.403 41.8752 11.861 41.4462 11.4159 40.9328Z" stroke="#8B1EFF" stroke-width="0.283" stroke-miterlimit="10"/>
<rect x="12.688" y="5.46796" width="28.63" height="34.34" rx="1.46" stroke="#00FFFF" stroke-width="0.28"/>
<path d="M42.9594 36.7488C42.9584 37.0358 42.9374 37.3198 42.8964 37.6008C42.8544 37.8808 42.7934 38.1578 42.7084 38.4308C42.6863 38.4998 42.6643 38.5678 42.6393 38.6358C42.6154 38.7028 42.5894 38.7708 42.5624 38.8378C42.5083 38.9708 42.4484 39.1008 42.3833 39.2278C42.2523 39.4818 42.0994 39.7228 41.9224 39.9507C41.8783 40.0068 41.8313 40.0628 41.7843 40.1177C41.7373 40.1718 41.6884 40.2238 41.6393 40.2758C41.5413 40.3788 41.4363 40.4758 41.3294 40.5678C41.2204 40.6599 41.1073 40.7458 40.9894 40.8257C40.9303 40.8658 40.8704 40.9048 40.8084 40.9407C40.7473 40.9778 40.6844 41.0137 40.6214 41.0478C40.3683 41.1818 40.1044 41.2868 39.8323 41.3648C39.7633 41.3848 39.6944 41.4018 39.6254 41.4178C39.5553 41.4338 39.4854 41.4478 39.4153 41.4608C39.2733 41.4858 39.1324 41.5027 38.9894 41.5137C37.0055 41.6638 35.0155 41.7758 33.0176 41.8508C32.0186 41.8887 31.0166 41.9168 30.0136 41.9359C29.5126 41.9448 29.0095 41.9518 28.5076 41.9568C28.0055 41.9619 27.5045 41.9638 27.0026 41.9638C24.9976 41.9638 22.9966 41.9268 20.9986 41.8508C19.9995 41.8138 19.0005 41.7668 18.0036 41.7108C17.5055 41.6818 17.0076 41.6518 16.5105 41.6188C16.0136 41.5869 15.5166 41.5518 15.0219 41.5141C14.7368 41.4921 14.4578 41.4442 14.1858 41.3671C14.0498 41.3292 13.9158 41.2831 13.7829 41.2302C13.7168 41.2042 13.6519 41.1751 13.5858 41.1452C13.5219 41.1152 13.4568 41.0832 13.3948 41.0501C13.1438 40.9172 12.9079 40.7591 12.6908 40.5751C12.6359 40.5291 12.5818 40.4811 12.5298 40.4332C12.4778 40.3831 12.4258 40.3321 12.3759 40.2812C12.2769 40.1782 12.1829 40.0701 12.0949 39.9582C12.0069 39.8461 11.9239 39.7292 11.8468 39.6092C11.8089 39.5491 11.7719 39.4881 11.7359 39.4251C11.6989 39.3631 11.6648 39.3001 11.6319 39.2361C11.4988 38.9802 11.3919 38.7151 11.3068 38.4432C11.2638 38.3072 11.2268 38.1682 11.1949 38.0281C11.1789 37.9582 11.1638 37.8881 11.1509 37.8172C11.1378 37.7462 11.1249 37.6761 11.1149 37.6052C11.0729 37.3211 11.0529 37.0362 11.0517 36.7488C11.0297 27.0169 11.0047 17.2839 10.9771 7.55182C10.9761 7.25482 11.0021 6.96283 11.0561 6.67487C11.0821 6.53082 11.1161 6.38886 11.1571 6.24786C11.1781 6.17682 11.1991 6.10687 11.224 6.03693C11.2481 5.96783 11.2731 5.89886 11.3011 5.83185C11.411 5.56085 11.547 5.30487 11.7091 5.0639C11.75 5.00385 11.792 4.94489 11.8361 4.88593C11.88 4.82782 11.9261 4.77094 11.973 4.7149C12.067 4.60284 12.166 4.49689 12.271 4.39691C12.4801 4.19684 12.708 4.01984 12.9571 3.86591C13.2061 3.71185 13.4671 3.5849 13.739 3.48383C13.875 3.43292 14.0141 3.38886 14.1541 3.35089C14.2261 3.33185 14.297 3.3139 14.3681 3.29791C14.4391 3.28192 14.5121 3.26788 14.5841 3.25592C14.8721 3.2049 15.1641 3.17889 15.4589 3.17682C17.3719 3.16083 19.2908 3.14984 21.2168 3.14191C22.1798 3.1369 23.1448 3.13483 24.1109 3.13287C24.5939 3.1319 25.0758 3.13092 25.5598 3.13092C26.0419 3.12982 26.5259 3.12982 27.0078 3.12982C28.9389 3.12982 30.8649 3.13385 32.7898 3.14093C33.7528 3.14484 34.7139 3.14984 35.6748 3.15582C36.6369 3.16193 37.5949 3.16888 38.5523 3.17682C38.8473 3.17889 39.1372 3.2049 39.4232 3.25482C39.7083 3.30389 39.9883 3.37885 40.2632 3.4809C40.3323 3.50592 40.4003 3.5329 40.4683 3.56183C40.5353 3.59088 40.6012 3.62091 40.6673 3.65289C40.7982 3.71686 40.9253 3.78583 41.0482 3.86188C41.2932 4.01385 41.5222 4.18988 41.7333 4.39191C41.7873 4.44183 41.8393 4.49384 41.8882 4.54694C41.9383 4.59991 41.9862 4.65485 42.0332 4.7099C42.1272 4.82086 42.2152 4.93585 42.2963 5.05585C42.3772 5.17584 42.4523 5.29987 42.5203 5.42792C42.5553 5.49286 42.5883 5.55792 42.6193 5.62494C42.6503 5.69183 42.6803 5.75983 42.7083 5.82782C42.7353 5.89594 42.7622 5.9649 42.7853 6.03485C42.8092 6.10492 42.8323 6.17487 42.8523 6.24591C42.8943 6.3869 42.9282 6.52985 42.9552 6.67389C43.0093 6.96185 43.0353 7.25482 43.0341 7.55219C43.0061 17.2841 42.9801 27.0172 42.9582 36.7491" stroke="#FF00FF" stroke-width="0.283465" stroke-miterlimit="10" stroke-linecap="round" stroke-linejoin="round"/>
<path d="M17.2982 19.268C17.2982 19.911 16.9492 20.252 16.4022 20.252C15.8552 20.252 15.4932 19.91 15.4932 19.268V11.4C15.4932 10.764 15.8422 10.422 16.3952 10.422C16.9482 10.422 17.2972 10.764 17.2972 11.4V14.722C17.2972 15.754 17.7482 16.349 18.5962 16.349C19.4442 16.349 20.0662 15.686 20.0662 14.708V11.4C20.0662 10.764 20.4152 10.422 20.9682 10.422C21.5212 10.422 21.8642 10.764 21.8642 11.4V15.597C21.8642 16.144 21.9942 16.363 22.3292 16.404L22.4072 16.404C22.4625 16.404 22.5182 16.412 22.5709 16.4292C22.8145 16.5088 22.9442 16.6844 22.9442 16.957C22.9442 17.643 22.1182 17.805 21.8712 17.805C21.1694 17.805 20.6102 17.5102 20.4048 16.8726C20.3659 16.752 20.1988 16.7401 20.144 16.8543C19.816 17.5379 19.2469 17.86 18.5832 17.86C18.1959 17.86 17.8108 17.7396 17.5436 17.4702C17.4529 17.3787 17.2982 17.4377 17.2982 17.5664V19.268Z" fill="black"/>
<path d="M18.9983 33.1261C18.6023 33.1261 18.2963 32.8201 18.3143 32.3701L18.3275 31.6689C18.3296 31.5589 18.2099 31.4896 18.1155 31.5462L17.5223 31.9021C17.3783 31.9921 17.2163 32.0281 17.0723 32.0281C16.7123 32.0281 16.4243 31.7401 16.4243 31.3621C16.4243 31.0741 16.5683 30.8581 16.8383 30.7141L17.44 30.3871C17.5375 30.3341 17.5375 30.1941 17.44 30.1411L16.8383 29.8141C16.5683 29.6701 16.4243 29.4541 16.4243 29.1661C16.4243 28.7881 16.7123 28.5001 17.0723 28.5001C17.2163 28.5001 17.3783 28.5361 17.5223 28.6261L18.1136 28.994C18.2079 29.0527 18.3296 28.9835 18.3275 28.8726L18.3143 28.1581C18.2963 27.7081 18.6023 27.4021 18.9983 27.4021C19.3943 27.4021 19.7003 27.7081 19.6823 28.1581L19.6559 28.87C19.6518 28.9815 19.7734 29.0528 19.8686 28.9948L20.4743 28.6261C20.6183 28.5361 20.7803 28.5001 20.9243 28.5001C21.2843 28.5001 21.5723 28.7881 21.5723 29.1661C21.5723 29.4541 21.4283 29.6701 21.1583 29.8141L20.5447 30.1405C20.4457 30.1932 20.4457 30.335 20.5447 30.3877L21.1583 30.7141C21.4283 30.8581 21.5723 31.0741 21.5723 31.3621C21.5723 31.7401 21.2843 32.0281 20.9243 32.0281C20.7803 32.0281 20.6183 31.9921 20.4743 31.9021L19.8667 31.5455C19.7714 31.4895 19.6518 31.561 19.656 31.6715L19.6823 32.3701C19.7003 32.8201 19.3943 33.1261 18.9983 33.1261Z" fill="black"/>
</svg>
