<svg width="95" height="54" viewBox="0 0 95 54" fill="none" xmlns="http://www.w3.org/2000/svg">
<path d="M84.0363 40.0263C83.8513 40.3174 83.6393 40.5923 83.4034 40.8432C83.1669 41.0949 82.9059 41.3239 82.627 41.5258C82.3473 41.7273 82.0493 41.9023 81.7373 42.0503C81.1186 42.342 80.4436 42.526 79.7646 42.5849C69.0999 43.013 58.4269 43.227 47.752 43.227C37.0782 43.227 26.4052 43.013 15.7403 42.5849C15.4005 42.5553 15.0625 42.4944 14.7335 42.4043C14.4016 42.3139 14.0796 42.1939 13.7686 42.0478C13.457 41.9005 13.158 41.7264 12.879 41.5244C12.5985 41.3228 12.3376 41.0948 12.1006 40.8427C11.8648 40.5919 11.6538 40.318 11.4688 40.0258C11.285 39.7348 11.1291 39.4279 11.0001 39.1098C10.8712 38.7934 10.7702 38.4654 10.6963 38.1313C10.6245 37.7995 10.5795 37.4616 10.5635 37.1225L10.5518 7.25143C10.5794 6.52536 10.7594 5.79636 11.0674 5.13327C11.2211 4.80234 11.4061 4.48837 11.6211 4.19528C11.8347 3.90366 12.0777 3.63266 12.3477 3.39059C12.8813 2.91135 13.5154 2.54538 14.1934 2.29831C14.8688 2.05148 15.5868 1.92551 16.3008 1.91745C37.2681 1.82748 58.2361 1.82748 79.2041 1.91745C79.4579 1.92172 79.7119 1.94064 79.9639 1.97263C80.215 2.00485 80.465 2.05087 80.712 2.11179C80.8762 2.15195 81.0392 2.19992 81.1992 2.25388C81.717 2.43112 82.215 2.68112 82.6631 2.99704C82.8888 3.15646 83.1017 3.33249 83.2998 3.52341C83.4985 3.71603 83.6825 3.92404 83.8495 4.14499C84.1837 4.58835 84.4497 5.08444 84.6367 5.60934C84.8241 6.13754 84.9321 6.69455 84.9521 7.25143L84.9414 37.1225C84.9099 37.7999 84.7628 38.4798 84.5071 39.1104C84.3781 39.4294 84.2212 39.7364 84.0363 40.0263Z" stroke="#16215B" stroke-width="0.283" stroke-miterlimit="10"/>
<path d="M17.4952 4.0835H13.9512M13.9512 4.0835C13.9508 4.0835 81.5518 4.0835 81.5518 4.0835C82.7258 4.0835 83.6778 5.03552 83.6778 6.20996C83.6778 6.20996 83.6778 38.5469 83.6778 38.5469C83.6778 39.7209 82.7258 40.6729 81.5522 40.6729C81.5522 40.6729 13.9512 40.6729 13.9512 40.673C12.7772 40.673 11.8252 39.7209 11.8252 38.5465C11.8252 38.5465 11.8252 6.20947 11.8252 6.20959C11.8252 5.03552 12.7772 4.0835 13.9512 4.0835Z" stroke="#00FFFF" stroke-width="0.28" stroke-miterlimit="10"/>
<path d="M84.2106 7.59486C84.1836 17.2888 84.1596 26.9818 84.1386 36.6758C84.1369 36.9682 84.1139 37.2572 84.0689 37.5423C84.0229 37.8272 83.9549 38.1072 83.8599 38.3822C83.8369 38.4512 83.8119 38.5202 83.7839 38.5882C83.7579 38.6563 83.7289 38.7243 83.6979 38.7912C83.6379 38.9252 83.5709 39.0552 83.4989 39.1812C83.4259 39.3071 83.3479 39.4292 83.2619 39.5482C83.1769 39.6662 83.0849 39.7813 82.9869 39.8913C82.7899 40.1112 82.5739 40.3071 82.3389 40.4782C82.2219 40.5642 82.0989 40.6432 81.9719 40.7172C81.9079 40.7542 81.8429 40.7892 81.7769 40.8233C81.7119 40.8562 81.6459 40.8882 81.5789 40.9173C81.3129 41.0361 81.0349 41.1272 80.7499 41.1922C80.6789 41.2081 80.6059 41.2232 80.5339 41.2362C80.4619 41.2482 80.3889 41.2601 80.3159 41.2692C80.1709 41.2882 80.0239 41.3012 79.8769 41.3071C58.497 42.1967 37.002 42.1967 15.622 41.3067C15.4742 41.3013 15.3292 41.2883 15.1832 41.2693C15.1112 41.2603 15.0392 41.2483 14.9672 41.2363C14.8942 41.2233 14.8222 41.2083 14.7512 41.1923C14.4662 41.1283 14.1902 41.0372 13.9242 40.9193C13.8572 40.8893 13.7912 40.8583 13.7252 40.8244C13.6602 40.7913 13.5952 40.7562 13.5322 40.7193C13.4052 40.6463 13.2832 40.5673 13.1662 40.4813C12.9302 40.3103 12.7152 40.1163 12.5182 39.8963C12.4692 39.8423 12.4222 39.7853 12.3762 39.7283C12.3302 39.6723 12.2862 39.6143 12.2432 39.5543C12.1582 39.4363 12.0792 39.3143 12.0072 39.1893C11.9332 39.0632 11.8672 38.9343 11.8062 38.8013C11.7762 38.7343 11.7482 38.6663 11.7202 38.5983C11.6932 38.5303 11.6682 38.4613 11.6432 38.3913C11.6202 38.3223 11.5972 38.2523 11.5772 38.1823C11.5552 38.1123 11.5372 38.0423 11.5192 37.9713C11.4842 37.8303 11.4562 37.6882 11.4322 37.5463C11.3872 37.2603 11.3652 36.9704 11.3639 36.6779C11.3429 26.9839 11.3189 17.2879 11.292 7.59254C11.292 7.43849 11.299 7.28456 11.314 7.13148C11.322 7.05556 11.332 6.97853 11.344 6.90248C11.355 6.82655 11.369 6.7505 11.385 6.67458C11.448 6.37453 11.543 6.08546 11.669 5.80849C11.7 5.73854 11.734 5.67055 11.77 5.60255C11.788 5.5685 11.806 5.53456 11.825 5.50148C11.844 5.46754 11.863 5.43459 11.883 5.4015C11.962 5.27052 12.048 5.14455 12.14 5.02357C12.324 4.78358 12.533 4.56447 12.767 4.36757C12.825 4.31752 12.886 4.27052 12.946 4.22353C13.008 4.17751 13.07 4.13258 13.133 4.08949C13.26 4.00356 13.39 3.92458 13.522 3.85255C13.656 3.77956 13.793 3.71352 13.933 3.65358C14.003 3.62355 14.073 3.5945 14.145 3.56752C14.217 3.54152 14.29 3.51552 14.363 3.49147C14.655 3.3965 14.952 3.32753 15.253 3.28053C15.554 3.23451 15.858 3.21156 16.1659 3.21046C37.1869 3.11647 58.3159 3.11647 79.3368 3.21083C79.6458 3.21181 79.9508 3.23476 80.2528 3.28175C80.4028 3.30385 80.5538 3.33376 80.7028 3.36879C80.8518 3.40382 81.0008 3.44582 81.1468 3.49281C81.4378 3.58876 81.7168 3.70778 81.9848 3.85475C82.0528 3.89076 82.1178 3.92885 82.1838 3.96974C82.2488 4.00978 82.3148 4.05177 82.3768 4.09474C82.5038 4.1808 82.6248 4.27284 82.7408 4.37074C82.8578 4.46877 82.9678 4.57277 83.0728 4.68275C83.1258 4.73878 83.1768 4.79482 83.2268 4.85378C83.2758 4.91176 83.3248 4.97182 83.3708 5.03285C83.5568 5.27577 83.7118 5.53578 83.8378 5.81386C83.8688 5.88283 83.8998 5.95277 83.9268 6.0248C83.9538 6.09584 83.9808 6.16884 84.0038 6.24086C84.0518 6.38783 84.0908 6.53481 84.1218 6.68483C84.1838 6.9828 84.2138 7.28578 84.2128 7.59474" stroke="#FF00FF" stroke-width="0.283465" stroke-miterlimit="10" stroke-linecap="round" stroke-linejoin="round"/>
<path d="M83.3588 46.9191V52.01H82.7423V47.5654H82.7124L81.4695 48.3907V47.7643L82.7423 46.9191H83.3588ZM84.9596 52.0498C84.837 52.0498 84.7317 52.0059 84.6439 51.918C84.5561 51.8302 84.5122 51.725 84.5122 51.6023C84.5122 51.4797 84.5561 51.3745 84.6439 51.2866C84.7317 51.1988 84.837 51.1549 84.9596 51.1549C85.0822 51.1549 85.1875 51.1988 85.2753 51.2866C85.3631 51.3745 85.407 51.4797 85.407 51.6023C85.407 51.6835 85.3863 51.7581 85.3449 51.8261C85.3051 51.894 85.2513 51.9487 85.1833 51.9901C85.117 52.0299 85.0425 52.0498 84.9596 52.0498ZM86.5064 52.01L88.7834 47.5057V47.466H86.1584V46.9191H89.4197V47.4958L87.1527 52.01H86.5064ZM91.8689 52.0796C91.5772 52.0796 91.3145 52.0216 91.0809 51.9056C90.8472 51.7896 90.6599 51.6305 90.5191 51.4283C90.3782 51.2262 90.3012 50.9958 90.2879 50.7373H90.8845C90.9077 50.9676 91.0121 51.1582 91.1977 51.309C91.385 51.4582 91.6087 51.5327 91.8689 51.5327C92.0777 51.5327 92.2633 51.4838 92.4257 51.3861C92.5898 51.2883 92.7182 51.1541 92.811 50.9834C92.9055 50.811 92.9527 50.6163 92.9527 50.3992C92.9527 50.1771 92.9038 49.9791 92.806 49.8051C92.7099 49.6294 92.5773 49.4911 92.4083 49.39C92.2393 49.2889 92.0462 49.2375 91.8291 49.2359C91.6733 49.2342 91.5134 49.2582 91.3493 49.308C91.1853 49.356 91.0502 49.4182 90.9442 49.4944L90.3675 49.4248L90.6757 46.9191H93.3206V47.466H91.1927L91.0138 48.9674H91.0436C91.148 48.8845 91.2789 48.8158 91.4363 48.7611C91.5938 48.7064 91.7578 48.679 91.9285 48.679C92.2401 48.679 92.5177 48.7536 92.7613 48.9028C93.0065 49.0503 93.1988 49.2524 93.338 49.5093C93.4788 49.7662 93.5493 50.0595 93.5493 50.3893C93.5493 50.7141 93.4764 51.0041 93.3305 51.2593C93.1863 51.5129 92.9875 51.7134 92.7339 51.8609C92.4804 52.0067 92.192 52.0796 91.8689 52.0796Z" fill="#0000FF"/>
<path fill-rule="evenodd" clip-rule="evenodd" d="M24.2446 13.994C23.8334 13.5829 23.1666 13.5829 22.7555 13.994L17.3625 19.3869C16.9022 19.8474 16.7647 20.5398 17.0136 21.1414C17.2628 21.7428 17.8497 22.1351 18.5009 22.1351H19.7505C19.8278 22.1351 19.8905 22.1978 19.8905 22.2751V25.3644C19.8905 26.2535 20.6113 26.9743 21.5004 26.9743H25.4994C26.3885 26.9743 27.1093 26.2535 27.1093 25.3644V22.2751C27.1093 22.1978 27.172 22.1351 27.2493 22.1351H28.4989C29.1501 22.1351 29.7371 21.7426 29.9863 21.1412C30.2338 20.5436 30.0994 19.8569 29.6469 19.3966L29.6374 19.3868L24.2446 13.994ZM23.599 15.3567L28.6261 20.3838L28.6331 20.3908C28.6875 20.4453 28.7036 20.527 28.6743 20.598C28.6449 20.6689 28.5756 20.7151 28.4989 20.7151H26.5694C26.0834 20.7151 25.6893 21.1092 25.6893 21.5952V25.3644C25.6893 25.4693 25.6043 25.5543 25.4994 25.5543H21.5004C21.3955 25.5543 21.3105 25.4693 21.3105 25.3644V21.5952C21.3105 21.1088 20.9162 20.7151 20.4304 20.7151H18.5009C18.4241 20.7151 18.355 20.6691 18.3256 20.5981C18.2961 20.5269 18.3125 20.4452 18.3667 20.3908L23.401 15.3567C23.4557 15.302 23.5443 15.302 23.599 15.3567ZM20.5962 28.3943C20.2041 28.3943 19.8862 28.7122 19.8862 29.1043C19.8862 29.4964 20.2041 29.8143 20.5962 29.8143H26.3962C26.7883 29.8143 27.1062 29.4964 27.1062 29.1043C27.1062 28.7122 26.7883 28.3943 26.3962 28.3943H20.5962Z" fill="black"/>
<path d="M38.1749 25.8683C36.1387 25.8683 34.8838 24.4864 34.8838 22.2257C34.8838 19.965 36.1583 18.588 38.1505 18.588C39.4542 18.588 40.4845 19.1984 40.9484 20.2286C41.0265 20.3897 41.0656 20.5558 41.0656 20.7022C41.0656 21.0391 40.8459 21.254 40.509 21.254C40.2209 21.254 40.0305 21.1173 39.8938 20.8097C39.5666 20.0529 38.927 19.6573 38.1604 19.6573C36.9494 19.6573 36.1731 20.6534 36.1731 22.2257C36.1731 23.798 36.9446 24.799 38.1653 24.799C38.971 24.799 39.5911 24.4474 39.9134 23.7052C40.0404 23.4171 40.2015 23.2999 40.4749 23.2999C40.8216 23.2999 41.0608 23.5294 41.0608 23.8614C41.0608 24.0225 41.0217 24.169 40.9436 24.335C40.4944 25.292 39.4934 25.8682 38.175 25.8682L38.1749 25.8683Z" fill="black"/>
<path d="M44.4247 20.4679C43.4335 20.4679 42.8619 20.8082 42.5696 21.1357C42.4003 21.3254 42.3786 21.7249 42.6108 21.9106C42.8822 22.1276 43.3369 21.9652 43.4931 21.7732C43.6333 21.6008 43.9481 21.4257 44.3758 21.4201C44.9763 21.4122 45.3426 21.7326 45.3426 22.2746V22.5341C45.3426 22.5604 45.3221 22.5821 45.2958 22.5836L43.9705 22.6591C42.7109 22.7371 42.0029 23.3536 42.0029 24.2715C42.0029 25.1894 42.7329 25.834 43.7314 25.834C44.4557 25.834 44.9925 25.6059 45.2327 25.4806C45.3027 25.4441 45.3882 25.4722 45.4245 25.5423C45.4925 25.6736 45.6416 25.8486 45.953 25.8486C46.2948 25.8486 46.5438 25.6289 46.5438 25.2383V22.1866C46.5438 21.1466 45.7089 20.4679 44.4247 20.4679ZM45.3427 23.8321C45.3427 24.4571 44.7861 24.9161 44.1025 24.9161C43.5752 24.9161 43.2187 24.6476 43.2187 24.2228C43.2187 23.798 43.5556 23.549 44.1415 23.5099L45.29 23.4399C45.3185 23.4382 45.3426 23.4608 45.3426 23.4894V23.8322L45.3427 23.8321Z" fill="black"/>
<path d="M50.5669 20.4874C49.9525 20.4874 49.3775 20.7856 49.0947 20.9593C49.0145 21.0085 48.9104 20.9677 48.8839 20.8774C48.8664 20.8175 48.838 20.7519 48.7922 20.6915C48.6751 20.5369 48.5051 20.4728 48.3159 20.4728C47.9692 20.4728 47.7251 20.6974 47.7251 21.0978V26.9524C47.7251 27.3626 47.9741 27.5921 48.3306 27.5921C48.6871 27.5921 48.941 27.3626 48.941 26.9524V25.5406C48.941 25.4327 49.0567 25.3643 49.1512 25.4165C49.4424 25.5773 49.9993 25.8342 50.5865 25.8342C51.8853 25.8342 52.7154 24.8137 52.7154 23.1633C52.7154 21.5129 51.8804 20.4875 50.5669 20.4875V20.4874ZM50.1958 24.838C49.439 24.838 48.936 24.1788 48.9311 23.1632C48.936 22.1573 49.4389 21.4884 50.1958 21.4884C50.9527 21.4884 51.4702 22.1427 51.4702 23.1632C51.4702 24.1837 50.9819 24.838 50.1958 24.838Z" fill="black"/>
<path d="M55.6938 25.8536C54.6 25.8536 53.8334 25.4337 53.5844 24.8136C53.5502 24.7257 53.5356 24.6476 53.5356 24.5743C53.5356 24.2813 53.7504 24.0958 54.0434 24.0958C54.2436 24.0958 54.4145 24.1886 54.5707 24.3937C54.8441 24.7892 55.1566 24.965 55.7377 24.965C56.3188 24.965 56.6801 24.7257 56.6801 24.3351C56.6801 24.0226 56.4848 23.8517 55.9526 23.7296L55.1127 23.5392C54.1019 23.3097 53.6039 22.8117 53.6039 22.0597C53.6039 21.0978 54.434 20.4679 55.7133 20.4679C56.7094 20.4679 57.4809 20.9562 57.642 21.5519C57.6566 21.6154 57.6664 21.674 57.6664 21.7326C57.6664 21.9865 57.5053 22.1672 57.1976 22.1672C57.0218 22.1672 56.846 22.1037 56.7337 21.9426C56.4944 21.5862 56.1966 21.3615 55.6839 21.3615C55.1712 21.3615 54.7855 21.6203 54.7855 21.9914C54.7855 22.2941 55.0101 22.4992 55.5472 22.6213L56.3724 22.802C57.4662 23.051 57.9007 23.4465 57.9007 24.2131C57.9007 25.2043 57.012 25.8537 55.6936 25.8537L55.6938 25.8536Z" fill="black"/>
</svg>
