<svg width="95" height="55" viewBox="0 0 95 55" fill="none" xmlns="http://www.w3.org/2000/svg">
<path d="M83.5363 40.0264C83.3513 40.3174 83.1393 40.5923 82.9034 40.8433C82.6669 41.095 82.4059 41.324 82.127 41.5259C81.8473 41.7273 81.5493 41.9023 81.2373 42.0503C80.6186 42.342 79.9436 42.526 79.2646 42.585C68.5999 43.0131 57.9269 43.2271 47.252 43.2271C36.5782 43.2271 25.9052 43.0131 15.2403 42.585C14.9005 42.5553 14.5625 42.4944 14.2335 42.4043C13.9016 42.314 13.5796 42.194 13.2686 42.0479C12.957 41.9005 12.658 41.7264 12.379 41.5244C12.0985 41.3229 11.8376 41.0948 11.6006 40.8428C11.3648 40.5919 11.1538 40.318 10.9688 40.0259C10.785 39.7349 10.6291 39.428 10.5001 39.1099C10.3712 38.7935 10.2702 38.4655 10.1963 38.1313C10.1245 37.7996 10.0795 37.4617 10.0635 37.1226L10.0518 7.25146C10.0794 6.52539 10.2594 5.79639 10.5674 5.1333C10.7211 4.80237 10.9061 4.4884 11.1211 4.19531C11.3347 3.90369 11.5777 3.63269 11.8477 3.39062C12.3813 2.91138 13.0154 2.54541 13.6934 2.29834C14.3688 2.05151 15.0868 1.92554 15.8008 1.91748C36.7681 1.82751 57.7361 1.82751 78.7041 1.91748C78.9579 1.92175 79.2119 1.94067 79.4639 1.97266C79.715 2.00488 79.965 2.0509 80.212 2.11182C80.3762 2.15198 80.5392 2.19995 80.6992 2.25391C81.217 2.43115 81.715 2.68115 82.1631 2.99707C82.3888 3.15649 82.6017 3.33252 82.7998 3.52344C82.9985 3.71606 83.1825 3.92407 83.3495 4.14502C83.6837 4.58838 83.9497 5.08447 84.1367 5.60938C84.3241 6.13757 84.4321 6.69458 84.4521 7.25146L84.4414 37.1226C84.4099 37.7999 84.2628 38.4799 84.0071 39.1105C83.8781 39.4294 83.7212 39.7365 83.5363 40.0264Z" stroke="#16215B" stroke-width="0.283" stroke-miterlimit="10"/>
<path d="M16.9952 4.0835H13.4512M13.4512 4.0835C13.4508 4.0835 81.0518 4.0835 81.0518 4.0835C82.2258 4.0835 83.1778 5.03552 83.1778 6.20996C83.1778 6.20996 83.1778 38.5469 83.1778 38.5469C83.1778 39.7209 82.2258 40.6729 81.0522 40.6729C81.0522 40.6729 13.4512 40.6729 13.4512 40.673C12.2772 40.673 11.3252 39.7209 11.3252 38.5465C11.3252 38.5465 11.3252 6.20947 11.3252 6.20959C11.3252 5.03552 12.2772 4.0835 13.4512 4.0835Z" stroke="#00FFFF" stroke-width="0.28" stroke-miterlimit="10"/>
<path d="M83.7106 7.59483C83.6836 17.2888 83.6596 26.9818 83.6386 36.6758C83.6369 36.9681 83.6139 37.2572 83.5689 37.5422C83.5229 37.8271 83.4549 38.1072 83.3599 38.3822C83.3369 38.4512 83.3119 38.5201 83.2839 38.5881C83.2579 38.6562 83.2289 38.7242 83.1979 38.7911C83.1379 38.9252 83.0709 39.0552 82.9989 39.1811C82.9259 39.3071 82.8479 39.4292 82.7619 39.5482C82.6769 39.6661 82.5849 39.7812 82.4869 39.8912C82.2899 40.1112 82.0739 40.3071 81.8389 40.4781C81.7219 40.5642 81.5989 40.6432 81.4719 40.7171C81.4079 40.7541 81.3429 40.7892 81.2769 40.8232C81.2119 40.8562 81.1459 40.8882 81.0789 40.9172C80.8129 41.0361 80.5349 41.1272 80.2499 41.1921C80.1789 41.2081 80.1059 41.2231 80.0339 41.2362C79.9619 41.2482 79.8889 41.2601 79.8159 41.2691C79.6709 41.2882 79.5239 41.3011 79.3769 41.3071C57.997 42.1966 36.502 42.1966 15.122 41.3066C14.9742 41.3013 14.8292 41.2883 14.6832 41.2693C14.6112 41.2602 14.5392 41.2483 14.4672 41.2363C14.3942 41.2233 14.3222 41.2082 14.2512 41.1922C13.9662 41.1283 13.6902 41.0372 13.4242 40.9193C13.3572 40.8893 13.2912 40.8583 13.2252 40.8243C13.1602 40.7912 13.0952 40.7562 13.0322 40.7192C12.9052 40.6462 12.7832 40.5672 12.6662 40.4813C12.4302 40.3103 12.2152 40.1163 12.0182 39.8962C11.9692 39.8423 11.9222 39.7853 11.8762 39.7283C11.8302 39.6722 11.7862 39.6142 11.7432 39.5543C11.6582 39.4363 11.5792 39.3143 11.5072 39.1893C11.4332 39.0632 11.3672 38.9343 11.3062 38.8013C11.2762 38.7342 11.2482 38.6662 11.2202 38.5983C11.1932 38.5303 11.1682 38.4613 11.1432 38.3912C11.1202 38.3223 11.0972 38.2523 11.0772 38.1822C11.0552 38.1123 11.0372 38.0422 11.0192 37.9713C10.9842 37.8303 10.9562 37.6882 10.9322 37.5462C10.8872 37.2602 10.8652 36.9703 10.8639 36.6778C10.8429 26.9839 10.8189 17.2878 10.792 7.59251C10.792 7.43846 10.799 7.28453 10.814 7.13145C10.822 7.05553 10.832 6.9785 10.844 6.90245C10.855 6.82652 10.869 6.75047 10.885 6.67455C10.948 6.3745 11.043 6.08543 11.169 5.80846C11.2 5.73851 11.234 5.67052 11.27 5.60252C11.288 5.56847 11.306 5.53453 11.325 5.50145C11.344 5.46751 11.363 5.43456 11.383 5.40147C11.462 5.27049 11.548 5.14452 11.64 5.02354C11.824 4.78355 12.033 4.56444 12.267 4.36754C12.325 4.31749 12.386 4.27049 12.446 4.2235C12.508 4.17747 12.57 4.13255 12.633 4.08946C12.76 4.00352 12.89 3.92455 13.022 3.85252C13.156 3.77953 13.293 3.71349 13.433 3.65355C13.503 3.62352 13.573 3.59447 13.645 3.56749C13.717 3.54149 13.79 3.51549 13.863 3.49144C14.155 3.39647 14.452 3.3275 14.753 3.2805C15.054 3.23448 15.358 3.21153 15.6659 3.21043C36.6869 3.11644 57.8159 3.11644 78.8368 3.2108C79.1458 3.21178 79.4508 3.23473 79.7528 3.28172C79.9028 3.30382 80.0538 3.33373 80.2028 3.36876C80.3518 3.40379 80.5008 3.44579 80.6468 3.49278C80.9378 3.58873 81.2168 3.70775 81.4848 3.85472C81.5528 3.89073 81.6178 3.92882 81.6838 3.96971C81.7488 4.00975 81.8148 4.05174 81.8768 4.09471C82.0038 4.18077 82.1248 4.27281 82.2408 4.37071C82.3578 4.46873 82.4678 4.57274 82.5728 4.68272C82.6258 4.73875 82.6768 4.79478 82.7268 4.85374C82.7758 4.91173 82.8248 4.97179 82.8708 5.03282C83.0568 5.27574 83.2118 5.53575 83.3378 5.81383C83.3688 5.8828 83.3998 5.95274 83.4268 6.02477C83.4538 6.09581 83.4808 6.16881 83.5038 6.24083C83.5518 6.3878 83.5908 6.53477 83.6218 6.6848C83.6838 6.98277 83.7138 7.28575 83.7128 7.59471" stroke="#FF00FF" stroke-width="0.283465" stroke-miterlimit="10" stroke-linecap="round" stroke-linejoin="round"/>
<path d="M74.8592 46.9191V52.01H74.2428V47.5654H74.2129L72.97 48.3907V47.7643L74.2428 46.9191H74.8592ZM76.4601 52.0498C76.3375 52.0498 76.2322 52.0059 76.1444 51.918C76.0566 51.8302 76.0127 51.725 76.0127 51.6023C76.0127 51.4797 76.0566 51.3745 76.1444 51.2866C76.2322 51.1988 76.3375 51.1549 76.4601 51.1549C76.5827 51.1549 76.688 51.1988 76.7758 51.2866C76.8636 51.3745 76.9075 51.4797 76.9075 51.6023C76.9075 51.6835 76.8868 51.7581 76.8454 51.8261C76.8056 51.894 76.7518 51.9487 76.6838 51.9901C76.6175 52.0299 76.543 52.0498 76.4601 52.0498ZM78.0069 52.01L80.2839 47.5057V47.466H77.6589V46.9191H80.9202V47.4958L78.6532 52.01H78.0069ZM83.3694 52.0796C83.0777 52.0796 82.815 52.0216 82.5814 51.9056C82.3477 51.7896 82.1604 51.6305 82.0196 51.4283C81.8787 51.2262 81.8017 50.9958 81.7884 50.7373H82.385C82.4082 50.9676 82.5126 51.1582 82.6982 51.309C82.8855 51.4582 83.1092 51.5327 83.3694 51.5327C83.5782 51.5327 83.7638 51.4838 83.9262 51.3861C84.0902 51.2883 84.2187 51.1541 84.3115 50.9834C84.4059 50.811 84.4532 50.6163 84.4532 50.3992C84.4532 50.1771 84.4043 49.9791 84.3065 49.8051C84.2104 49.6294 84.0778 49.4911 83.9088 49.39C83.7397 49.2889 83.5467 49.2375 83.3296 49.2359C83.1738 49.2342 83.0139 49.2582 82.8498 49.308C82.6858 49.356 82.5507 49.4182 82.4446 49.4944L81.8679 49.4248L82.1762 46.9191H84.8211V47.466H82.6932L82.5142 48.9674H82.5441C82.6485 48.8845 82.7794 48.8158 82.9368 48.7611C83.0943 48.7064 83.2583 48.679 83.429 48.679C83.7406 48.679 84.0182 48.7536 84.2618 48.9028C84.507 49.0503 84.6993 49.2524 84.8385 49.5093C84.9793 49.7662 85.0498 50.0595 85.0498 50.3893C85.0498 50.7141 84.9768 51.0041 84.831 51.2593C84.6868 51.5129 84.488 51.7134 84.2344 51.8609C83.9809 52.0067 83.6925 52.0796 83.3694 52.0796Z" fill="#0000FF"/>
<path fill-rule="evenodd" clip-rule="evenodd" d="M23.7446 13.994C23.3334 13.5829 22.6666 13.5829 22.2555 13.994L16.8625 19.3869C16.4022 19.8474 16.2647 20.5398 16.5136 21.1414C16.7628 21.7428 17.3497 22.1351 18.0009 22.1351H19.2505C19.3278 22.1351 19.3905 22.1978 19.3905 22.2751V25.3644C19.3905 26.2535 20.1113 26.9743 21.0004 26.9743H24.9994C25.8885 26.9743 26.6093 26.2535 26.6093 25.3644V22.2751C26.6093 22.1978 26.672 22.1351 26.7493 22.1351H27.9989C28.6501 22.1351 29.2371 21.7426 29.4863 21.1412C29.7338 20.5436 29.5994 19.8569 29.1469 19.3966L29.1374 19.3868L23.7446 13.994ZM23.099 15.3567L28.1261 20.3838L28.1331 20.3908C28.1875 20.4453 28.2036 20.527 28.1743 20.598C28.1449 20.6689 28.0756 20.7151 27.9989 20.7151H26.0694C25.5834 20.7151 25.1893 21.1092 25.1893 21.5952V25.3644C25.1893 25.4693 25.1043 25.5543 24.9994 25.5543H21.0004C20.8955 25.5543 20.8105 25.4693 20.8105 25.3644V21.5952C20.8105 21.1088 20.4162 20.7151 19.9304 20.7151H18.0009C17.9241 20.7151 17.855 20.6691 17.8256 20.5981C17.7961 20.5269 17.8125 20.4452 17.8667 20.3908L22.901 15.3567C22.9557 15.302 23.0443 15.302 23.099 15.3567ZM20.0962 28.3943C19.7041 28.3943 19.3862 28.7122 19.3862 29.1043C19.3862 29.4964 19.7041 29.8143 20.0962 29.8143H25.8962C26.2883 29.8143 26.6062 29.4964 26.6062 29.1043C26.6062 28.7122 26.2883 28.3943 25.8962 28.3943H20.0962Z" fill="black"/>
<path d="M37.6719 25.8672C35.6357 25.8672 34.3809 24.4854 34.3809 22.2246C34.3809 19.9785 35.6553 18.5869 37.6475 18.5869C38.9512 18.5869 39.9814 19.1973 40.4453 20.2275C40.5234 20.3887 40.5625 20.5547 40.5625 20.7012C40.5625 21.0381 40.3428 21.2529 40.0059 21.2529C39.7178 21.2529 39.5273 21.1162 39.3906 20.8086C39.0635 20.0518 38.4238 19.6562 37.6572 19.6562C36.4463 19.6562 35.6699 20.6523 35.6699 22.2246C35.6699 23.8066 36.4414 24.7979 37.6621 24.7979C38.4678 24.7979 39.0879 24.4463 39.4102 23.7041C39.5371 23.416 39.6982 23.2988 39.9717 23.2988C40.3184 23.2988 40.5576 23.5283 40.5576 23.8604C40.5576 24.0215 40.5186 24.168 40.4404 24.334C39.9912 25.291 38.9902 25.8672 37.6719 25.8672ZM43.2283 25.833C42.2273 25.833 41.4998 25.2031 41.4998 24.2705C41.4998 23.3525 42.2078 22.8008 43.4676 22.7227L44.8396 22.6445V22.2734C44.8396 21.7314 44.4734 21.4189 43.8729 21.4189C43.3992 21.4189 43.0916 21.5801 42.7889 22.0244C42.6619 22.1904 42.5008 22.2686 42.2957 22.2686C41.9979 22.2686 41.783 22.0732 41.783 21.7803C41.783 21.668 41.8123 21.5605 41.866 21.4482C42.1297 20.8477 42.9305 20.4668 43.9217 20.4668C45.2059 20.4668 46.0408 21.1455 46.0408 22.1855V25.2373C46.0408 25.6279 45.7918 25.8477 45.45 25.8477C45.118 25.8477 44.8885 25.6475 44.8689 25.2861V24.9248H44.8445C44.5467 25.4863 43.8973 25.833 43.2283 25.833ZM43.5994 24.915C44.283 24.915 44.8396 24.4561 44.8396 23.8311V23.4355L43.6385 23.5088C43.0525 23.5479 42.7156 23.8115 42.7156 24.2217C42.7156 24.6465 43.0721 24.915 43.5994 24.915ZM47.8277 27.5908C47.4713 27.5908 47.2223 27.3613 47.2223 26.9512V21.0967C47.2223 20.6963 47.4664 20.4717 47.8131 20.4717C48.1598 20.4717 48.4088 20.6963 48.4088 21.0967V21.4678H48.4332C48.7262 20.8672 49.3121 20.4863 50.0641 20.4863C51.3775 20.4863 52.2125 21.5068 52.2125 23.1621C52.2125 24.8125 51.3824 25.833 50.0836 25.833C49.3316 25.833 48.7457 25.4717 48.4625 24.8906H48.4381V26.9512C48.4381 27.3613 48.1842 27.5908 47.8277 27.5908ZM49.693 24.8369C50.4791 24.8369 50.9674 24.1875 50.9674 23.1621C50.9674 22.1416 50.4791 21.4873 49.693 21.4873C48.9361 21.4873 48.4332 22.1562 48.4283 23.1621C48.4332 24.1777 48.9361 24.8369 49.693 24.8369ZM55.1908 25.8525C54.0971 25.8525 53.3305 25.4326 53.0814 24.8125C53.0473 24.7246 53.0326 24.6465 53.0326 24.5732C53.0326 24.2803 53.2475 24.0947 53.5404 24.0947C53.7406 24.0947 53.9115 24.1875 54.0678 24.3926C54.3412 24.7881 54.6537 24.9639 55.2348 24.9639C55.8012 24.9639 56.1771 24.7246 56.1771 24.334C56.1771 24.0215 55.9818 23.8506 55.4496 23.7285L54.6098 23.5381C53.599 23.3086 53.101 22.8105 53.101 22.0586C53.101 21.0967 53.9311 20.4668 55.2104 20.4668C56.2064 20.4668 56.9779 20.9551 57.1391 21.5508C57.1537 21.6143 57.1635 21.6729 57.1635 21.7314C57.1635 21.9854 57.0023 22.166 56.6947 22.166C56.5189 22.166 56.3432 22.1025 56.2309 21.9414C55.9916 21.585 55.6938 21.3604 55.1811 21.3604C54.6488 21.3604 54.2826 21.6191 54.2826 21.9902C54.2826 22.293 54.5072 22.498 55.0443 22.6201L55.8695 22.8008C56.9633 23.0498 57.3979 23.4453 57.3979 24.2119C57.3979 25.2031 56.5092 25.8525 55.1908 25.8525Z" fill="black"/>
<path d="M37.6749 25.8683C35.6387 25.8683 34.3838 24.4864 34.3838 22.2257C34.3838 19.965 35.6583 18.588 37.6505 18.588C38.9542 18.588 39.9845 19.1984 40.4484 20.2286C40.5265 20.3897 40.5656 20.5558 40.5656 20.7022C40.5656 21.0391 40.3459 21.254 40.009 21.254C39.7209 21.254 39.5305 21.1173 39.3938 20.8097C39.0666 20.0529 38.427 19.6573 37.6604 19.6573C36.4494 19.6573 35.6731 20.6534 35.6731 22.2257C35.6731 23.798 36.4446 24.799 37.6653 24.799C38.471 24.799 39.0911 24.4474 39.4134 23.7052C39.5404 23.4171 39.7015 23.2999 39.9749 23.2999C40.3216 23.2999 40.5608 23.5294 40.5608 23.8614C40.5608 24.0225 40.5217 24.169 40.4436 24.335C39.9944 25.292 38.9934 25.8682 37.675 25.8682L37.6749 25.8683Z" fill="black"/>
<path d="M43.9247 20.468C42.9335 20.468 42.3619 20.8083 42.0696 21.1358C41.9003 21.3255 41.8786 21.725 42.1108 21.9107C42.3822 22.1277 42.8369 21.9653 42.9931 21.7733C43.1333 21.6009 43.4481 21.4258 43.8758 21.4202C44.4763 21.4123 44.8426 21.7327 44.8426 22.2747V22.5342C44.8426 22.5605 44.8221 22.5822 44.7958 22.5837L43.4705 22.6592C42.2109 22.7372 41.5029 23.3537 41.5029 24.2716C41.5029 25.1895 42.2329 25.8341 43.2314 25.8341C43.9557 25.8341 44.4925 25.606 44.7327 25.4807C44.8027 25.4442 44.8882 25.4723 44.9245 25.5424C44.9925 25.6737 45.1416 25.8487 45.453 25.8487C45.7948 25.8487 46.0438 25.629 46.0438 25.2384V22.1867C46.0438 21.1467 45.2089 20.468 43.9247 20.468ZM44.8427 23.8322C44.8427 24.4572 44.2861 24.9162 43.6025 24.9162C43.0752 24.9162 42.7187 24.6477 42.7187 24.2229C42.7187 23.7981 43.0556 23.5491 43.6415 23.51L44.79 23.44C44.8185 23.4383 44.8426 23.4609 44.8426 23.4895V23.8323L44.8427 23.8322Z" fill="black"/>
<path d="M50.0669 20.4874C49.4525 20.4874 48.8775 20.7856 48.5947 20.9593C48.5145 21.0085 48.4104 20.9677 48.3839 20.8774C48.3664 20.8175 48.338 20.7519 48.2922 20.6915C48.1751 20.5369 48.0051 20.4728 47.8159 20.4728C47.4692 20.4728 47.2251 20.6974 47.2251 21.0978V26.9524C47.2251 27.3626 47.4741 27.5921 47.8306 27.5921C48.1871 27.5921 48.441 27.3626 48.441 26.9524V25.5406C48.441 25.4327 48.5567 25.3643 48.6512 25.4165C48.9424 25.5773 49.4993 25.8342 50.0865 25.8342C51.3853 25.8342 52.2154 24.8137 52.2154 23.1633C52.2154 21.5129 51.3804 20.4875 50.0669 20.4875V20.4874ZM49.6958 24.838C48.939 24.838 48.436 24.1788 48.4311 23.1632C48.436 22.1573 48.9389 21.4884 49.6958 21.4884C50.4527 21.4884 50.9702 22.1427 50.9702 23.1632C50.9702 24.1837 50.4819 24.838 49.6958 24.838Z" fill="black"/>
<path d="M55.1938 25.8536C54.1 25.8536 53.3334 25.4337 53.0844 24.8136C53.0502 24.7257 53.0356 24.6476 53.0356 24.5743C53.0356 24.2813 53.2504 24.0958 53.5434 24.0958C53.7436 24.0958 53.9145 24.1886 54.0707 24.3937C54.3441 24.7892 54.6566 24.965 55.2377 24.965C55.8188 24.965 56.1801 24.7257 56.1801 24.3351C56.1801 24.0226 55.9848 23.8517 55.4526 23.7296L54.6127 23.5392C53.6019 23.3097 53.1039 22.8117 53.1039 22.0597C53.1039 21.0978 53.934 20.4679 55.2133 20.4679C56.2094 20.4679 56.9809 20.9562 57.142 21.5519C57.1566 21.6154 57.1664 21.674 57.1664 21.7326C57.1664 21.9865 57.0053 22.1672 56.6976 22.1672C56.5218 22.1672 56.346 22.1037 56.2337 21.9426C55.9944 21.5862 55.6966 21.3615 55.1839 21.3615C54.6712 21.3615 54.2855 21.6203 54.2855 21.9914C54.2855 22.2941 54.5101 22.4992 55.0472 22.6213L55.8724 22.802C56.9662 23.051 57.4007 23.4465 57.4007 24.2131C57.4007 25.2043 56.512 25.8537 55.1936 25.8537L55.1938 25.8536Z" fill="black"/>
</svg>
