<svg width="95" height="54" viewBox="0 0 95 54" fill="none" xmlns="http://www.w3.org/2000/svg">
<path d="M84.0363 40.0264C83.8513 40.3174 83.6393 40.5923 83.4034 40.8433C83.1669 41.095 82.9059 41.324 82.627 41.5259C82.3473 41.7273 82.0493 41.9023 81.7373 42.0503C81.1186 42.342 80.4436 42.526 79.7646 42.585C69.0999 43.0131 58.4269 43.2271 47.752 43.2271C37.0782 43.2271 26.4052 43.0131 15.7403 42.585C15.4005 42.5553 15.0625 42.4944 14.7335 42.4043C14.4016 42.314 14.0796 42.194 13.7686 42.0479C13.457 41.9005 13.158 41.7264 12.879 41.5244C12.5985 41.3229 12.3376 41.0948 12.1006 40.8428C11.8648 40.5919 11.6538 40.318 11.4688 40.0259C11.285 39.7349 11.1291 39.428 11.0001 39.1099C10.8712 38.7935 10.7702 38.4655 10.6963 38.1313C10.6245 37.7996 10.5795 37.4617 10.5635 37.1226L10.5518 7.25146C10.5794 6.52539 10.7594 5.79639 11.0674 5.1333C11.2211 4.80237 11.4061 4.4884 11.6211 4.19531C11.8347 3.90369 12.0777 3.63269 12.3477 3.39062C12.8813 2.91138 13.5154 2.54541 14.1934 2.29834C14.8688 2.05151 15.5868 1.92554 16.3008 1.91748C37.2681 1.82751 58.2361 1.82751 79.2041 1.91748C79.4579 1.92175 79.7119 1.94067 79.9639 1.97266C80.215 2.00488 80.465 2.0509 80.712 2.11182C80.8762 2.15198 81.0392 2.19995 81.1992 2.25391C81.717 2.43115 82.215 2.68115 82.6631 2.99707C82.8888 3.15649 83.1017 3.33252 83.2998 3.52344C83.4985 3.71606 83.6825 3.92407 83.8495 4.14502C84.1837 4.58838 84.4497 5.08447 84.6367 5.60938C84.8241 6.13757 84.9321 6.69458 84.9521 7.25146L84.9414 37.1226C84.9099 37.7999 84.7628 38.4799 84.5071 39.1105C84.3781 39.4294 84.2212 39.7365 84.0363 40.0264Z" stroke="#16215B" stroke-width="0.283" stroke-miterlimit="10"/>
<path d="M17.4952 4.0835H13.9512M13.9512 4.0835C13.9508 4.0835 81.5518 4.0835 81.5518 4.0835C82.7258 4.0835 83.6778 5.03552 83.6778 6.20996C83.6778 6.20996 83.6778 38.5469 83.6778 38.5469C83.6778 39.7209 82.7258 40.6729 81.5522 40.6729C81.5522 40.6729 13.9512 40.6729 13.9512 40.673C12.7772 40.673 11.8252 39.7209 11.8252 38.5465C11.8252 38.5465 11.8252 6.20947 11.8252 6.20959C11.8252 5.03552 12.7772 4.0835 13.9512 4.0835Z" stroke="#00FFFF" stroke-width="0.28" stroke-miterlimit="10"/>
<path d="M84.2106 7.59483C84.1836 17.2888 84.1596 26.9818 84.1386 36.6758C84.1369 36.9681 84.1139 37.2572 84.0689 37.5422C84.0229 37.8271 83.9549 38.1072 83.8599 38.3822C83.8369 38.4512 83.8119 38.5201 83.7839 38.5881C83.7579 38.6562 83.7289 38.7242 83.6979 38.7911C83.6379 38.9252 83.5709 39.0552 83.4989 39.1811C83.4259 39.3071 83.3479 39.4292 83.2619 39.5482C83.1769 39.6661 83.0849 39.7812 82.9869 39.8912C82.7899 40.1112 82.5739 40.3071 82.3389 40.4781C82.2219 40.5642 82.0989 40.6432 81.9719 40.7171C81.9079 40.7541 81.8429 40.7892 81.7769 40.8232C81.7119 40.8562 81.6459 40.8882 81.5789 40.9172C81.3129 41.0361 81.0349 41.1272 80.7499 41.1921C80.6789 41.2081 80.6059 41.2231 80.5339 41.2362C80.4619 41.2482 80.3889 41.2601 80.3159 41.2691C80.1709 41.2882 80.0239 41.3011 79.8769 41.3071C58.497 42.1966 37.002 42.1966 15.622 41.3066C15.4742 41.3013 15.3292 41.2883 15.1832 41.2693C15.1112 41.2602 15.0392 41.2483 14.9672 41.2363C14.8942 41.2233 14.8222 41.2082 14.7512 41.1922C14.4662 41.1283 14.1902 41.0372 13.9242 40.9193C13.8572 40.8893 13.7912 40.8583 13.7252 40.8243C13.6602 40.7912 13.5952 40.7562 13.5322 40.7192C13.4052 40.6462 13.2832 40.5672 13.1662 40.4813C12.9302 40.3103 12.7152 40.1163 12.5182 39.8962C12.4692 39.8423 12.4222 39.7853 12.3762 39.7283C12.3302 39.6722 12.2862 39.6142 12.2432 39.5543C12.1582 39.4363 12.0792 39.3143 12.0072 39.1893C11.9332 39.0632 11.8672 38.9343 11.8062 38.8013C11.7762 38.7342 11.7482 38.6662 11.7202 38.5983C11.6932 38.5303 11.6682 38.4613 11.6432 38.3912C11.6202 38.3223 11.5972 38.2523 11.5772 38.1822C11.5552 38.1123 11.5372 38.0422 11.5192 37.9713C11.4842 37.8303 11.4562 37.6882 11.4322 37.5462C11.3872 37.2602 11.3652 36.9703 11.3639 36.6778C11.3429 26.9839 11.3189 17.2878 11.292 7.59251C11.292 7.43846 11.299 7.28453 11.314 7.13145C11.322 7.05553 11.332 6.9785 11.344 6.90245C11.355 6.82652 11.369 6.75047 11.385 6.67455C11.448 6.3745 11.543 6.08543 11.669 5.80846C11.7 5.73851 11.734 5.67052 11.77 5.60252C11.788 5.56847 11.806 5.53453 11.825 5.50145C11.844 5.46751 11.863 5.43456 11.883 5.40147C11.962 5.27049 12.048 5.14452 12.14 5.02354C12.324 4.78355 12.533 4.56444 12.767 4.36754C12.825 4.31749 12.886 4.27049 12.946 4.2235C13.008 4.17747 13.07 4.13255 13.133 4.08946C13.26 4.00352 13.39 3.92455 13.522 3.85252C13.656 3.77953 13.793 3.71349 13.933 3.65355C14.003 3.62352 14.073 3.59447 14.145 3.56749C14.217 3.54149 14.29 3.51549 14.363 3.49144C14.655 3.39647 14.952 3.3275 15.253 3.2805C15.554 3.23448 15.858 3.21153 16.1659 3.21043C37.1869 3.11644 58.3159 3.11644 79.3368 3.2108C79.6458 3.21178 79.9508 3.23473 80.2528 3.28172C80.4028 3.30382 80.5538 3.33373 80.7028 3.36876C80.8518 3.40379 81.0008 3.44579 81.1468 3.49278C81.4378 3.58873 81.7168 3.70775 81.9848 3.85472C82.0528 3.89073 82.1178 3.92882 82.1838 3.96971C82.2488 4.00975 82.3148 4.05174 82.3768 4.09471C82.5038 4.18077 82.6248 4.27281 82.7408 4.37071C82.8578 4.46873 82.9678 4.57274 83.0728 4.68272C83.1258 4.73875 83.1768 4.79478 83.2268 4.85374C83.2758 4.91173 83.3248 4.97179 83.3708 5.03282C83.5568 5.27574 83.7118 5.53575 83.8378 5.81383C83.8688 5.8828 83.8998 5.95274 83.9268 6.02477C83.9538 6.09581 83.9808 6.16881 84.0038 6.24083C84.0518 6.3878 84.0908 6.53477 84.1218 6.6848C84.1838 6.98277 84.2138 7.28575 84.2128 7.59471" stroke="#FF00FF" stroke-width="0.283465" stroke-miterlimit="10" stroke-linecap="round" stroke-linejoin="round"/>
<path d="M83.3588 46.9191V52.01H82.7423V47.5654H82.7124L81.4695 48.3907V47.7643L82.7423 46.9191H83.3588ZM84.9596 52.0498C84.837 52.0498 84.7317 52.0059 84.6439 51.918C84.5561 51.8302 84.5122 51.725 84.5122 51.6023C84.5122 51.4797 84.5561 51.3745 84.6439 51.2866C84.7317 51.1988 84.837 51.1549 84.9596 51.1549C85.0822 51.1549 85.1875 51.1988 85.2753 51.2866C85.3631 51.3745 85.407 51.4797 85.407 51.6023C85.407 51.6835 85.3863 51.7581 85.3449 51.8261C85.3051 51.894 85.2513 51.9487 85.1833 51.9901C85.117 52.0299 85.0425 52.0498 84.9596 52.0498ZM86.5064 52.01L88.7834 47.5057V47.466H86.1584V46.9191H89.4197V47.4958L87.1527 52.01H86.5064ZM91.8689 52.0796C91.5772 52.0796 91.3145 52.0216 91.0809 51.9056C90.8472 51.7896 90.6599 51.6305 90.5191 51.4283C90.3782 51.2262 90.3012 50.9958 90.2879 50.7373H90.8845C90.9077 50.9676 91.0121 51.1582 91.1977 51.309C91.385 51.4582 91.6087 51.5327 91.8689 51.5327C92.0777 51.5327 92.2633 51.4838 92.4257 51.3861C92.5898 51.2883 92.7182 51.1541 92.811 50.9834C92.9055 50.811 92.9527 50.6163 92.9527 50.3992C92.9527 50.1771 92.9038 49.9791 92.806 49.8051C92.7099 49.6294 92.5773 49.4911 92.4083 49.39C92.2393 49.2889 92.0462 49.2375 91.8291 49.2359C91.6733 49.2342 91.5134 49.2582 91.3493 49.308C91.1853 49.356 91.0502 49.4182 90.9442 49.4944L90.3675 49.4248L90.6757 46.9191H93.3206V47.466H91.1927L91.0138 48.9674H91.0436C91.148 48.8845 91.2789 48.8158 91.4363 48.7611C91.5938 48.7064 91.7578 48.679 91.9285 48.679C92.2401 48.679 92.5177 48.7536 92.7613 48.9028C93.0065 49.0503 93.1988 49.2524 93.338 49.5093C93.4788 49.7662 93.5493 50.0595 93.5493 50.3893C93.5493 50.7141 93.4764 51.0041 93.3305 51.2593C93.1863 51.5129 92.9875 51.7134 92.7339 51.8609C92.4804 52.0067 92.192 52.0796 91.8689 52.0796Z" fill="#0000FF"/>
<path d="M60.4439 25.8477C60.0875 25.8477 59.8335 25.6182 59.8335 25.208V19.246C59.8335 18.8358 60.0874 18.6063 60.4439 18.6063C60.8004 18.6063 61.0494 18.8358 61.0494 19.246V22.388C61.0494 22.5139 61.2012 22.5773 61.2907 22.4888L63.0953 20.7059C63.2516 20.5399 63.3834 20.4715 63.5689 20.4715C63.8716 20.4715 64.1011 20.701 64.1011 20.994C64.1011 21.1747 64.0474 21.287 63.8814 21.4432L62.5014 22.7501C62.4479 22.8008 62.4421 22.884 62.4882 22.9415L64.0279 24.8661C64.1549 25.0419 64.1939 25.1493 64.1939 25.3056C64.1939 25.623 63.9546 25.8476 63.6177 25.8476C63.3784 25.8476 63.2368 25.7646 63.0611 25.5107L61.6039 23.664C61.5525 23.5989 61.4564 23.5916 61.3958 23.6483L61.1391 23.8886C61.0819 23.9422 61.0494 24.0171 61.0494 24.0955V25.2079C61.0494 25.6181 60.8004 25.8476 60.4439 25.8476V25.8477Z" fill="black"/>
<path d="M56.5821 25.8525C55.0684 25.8525 54.0918 24.8271 54.0918 23.1669C54.0918 21.5067 55.0635 20.4667 56.5723 20.4667C57.5879 20.4667 58.4522 20.9892 58.7012 21.7167C58.7403 21.8192 58.7647 21.9218 58.7647 22.0097C58.7647 22.3124 58.5352 22.498 58.2422 22.498C57.9981 22.498 57.8516 22.3955 57.71 22.1513C57.4512 21.6777 57.1094 21.4531 56.6065 21.4531C55.8252 21.4531 55.3272 22.1025 55.3272 23.1621C55.3272 24.2217 55.8301 24.8711 56.6016 24.8711C57.1387 24.8711 57.4707 24.6221 57.7051 24.207C57.8711 23.9336 58.003 23.831 58.2666 23.831C58.5547 23.831 58.7793 24.0263 58.7793 24.3291C58.7793 24.4219 58.7549 24.5244 58.7061 24.6416C58.418 25.3496 57.5586 25.8525 56.5821 25.8525Z" fill="black"/>
<path d="M50.8203 20.4667C49.3115 20.4667 48.3154 21.4921 48.3154 23.162C48.3154 24.8319 49.3017 25.8525 50.8203 25.8525C52.3389 25.8525 53.3252 24.8417 53.3252 23.162C53.3252 21.4823 52.3291 20.4667 50.8203 20.4667ZM50.8203 24.8906C50.0488 24.8906 49.5508 24.2656 49.5508 23.1621C49.5508 22.0586 50.0537 21.4336 50.8203 21.4336C51.5869 21.4336 52.0898 22.0635 52.0898 23.1621C52.0898 24.2607 51.5917 24.8906 50.8203 24.8906Z" fill="black"/>
<path d="M43.8184 25.75C43.4278 25.75 43.1885 25.5059 43.1885 25.0957V19.2753C43.1885 18.8603 43.4278 18.621 43.8184 18.621C44.209 18.621 44.4483 18.8603 44.4483 19.2753V24.5438C44.4483 24.6221 44.5118 24.6855 44.59 24.6855H47.1485C47.4903 24.6855 47.7247 24.8906 47.7247 25.2177C47.7247 25.5448 47.4952 25.7499 47.1485 25.7499H43.8184V25.75Z" fill="black"/>
<path d="M20.172 25.8672C18.1358 25.8672 16.8809 24.4853 16.8809 22.2246C16.8809 19.9639 18.1554 18.5869 20.1476 18.5869C21.4513 18.5869 22.4816 19.1973 22.9455 20.2275C23.0236 20.3886 23.0627 20.5547 23.0627 20.7011C23.0627 21.038 22.843 21.2529 22.5061 21.2529C22.218 21.2529 22.0276 21.1162 21.8909 20.8086C21.5637 20.0518 20.9241 19.6562 20.1575 19.6562C18.9465 19.6562 18.1702 20.6523 18.1702 22.2246C18.1702 23.7969 18.9417 24.7979 20.1624 24.7979C20.9681 24.7979 21.5882 24.4463 21.9105 23.7041C22.0375 23.416 22.1986 23.2988 22.472 23.2988C22.8187 23.2988 23.0579 23.5283 23.0579 23.8603C23.0579 24.0214 23.0188 24.1679 22.9407 24.3339C22.4915 25.2909 21.4905 25.8671 20.1721 25.8671L20.172 25.8672Z" fill="black"/>
<path d="M27.34 23.8314C27.34 24.4563 26.7835 24.9153 26.0999 24.9153C25.5727 24.9153 25.2162 24.6468 25.2162 24.2221C25.2162 23.7974 25.5531 23.5484 26.1389 23.5093L27.2873 23.4393C27.3158 23.4376 27.3399 23.4602 27.3399 23.4888V23.8316L27.34 23.8314ZM26.4221 20.4675C25.431 20.4675 24.8594 20.8078 24.5671 21.1352C24.3978 21.3249 24.3761 21.7243 24.6083 21.91C24.8797 22.127 25.3343 21.9646 25.4905 21.7726C25.6307 21.6002 25.9455 21.4251 26.3731 21.4195C26.9735 21.4116 27.3398 21.732 27.3398 22.2739V22.4765C27.3398 22.5028 27.3193 22.5245 27.293 22.526L25.9678 22.6015C24.7084 22.6796 24.0005 23.3529 24.0005 24.2707C24.0005 25.1885 24.7304 25.833 25.7288 25.833C26.3606 25.833 26.9765 25.668 27.2829 25.5427C27.3472 25.5164 27.4209 25.5412 27.4571 25.6005C27.4599 25.605 27.4623 25.6088 27.4643 25.6117C27.5457 25.7276 27.6922 25.8476 27.9502 25.8476C28.292 25.8476 28.5409 25.6279 28.5409 25.2374V22.186C28.5409 21.1461 27.7061 20.4675 26.4221 20.4675Z" fill="black"/>
<path d="M32.1924 24.8364C31.4354 24.8364 30.9324 24.1771 30.9275 23.1613C30.9324 22.1553 31.4062 21.4862 32.1924 21.4862C32.9786 21.4862 33.467 22.1406 33.467 23.1613C33.467 24.1869 32.9494 24.8364 32.1924 24.8364ZM34.7123 23.1612C34.7123 21.5056 33.8772 20.485 32.5634 20.485C32.0774 20.485 31.3073 20.729 31.0064 20.831C30.9389 20.8539 30.8642 20.8242 30.8325 20.7602C30.8245 20.7439 30.8162 20.7277 30.8058 20.7129C30.6865 20.5424 30.5108 20.4704 30.3121 20.4704C29.9653 20.4704 29.7212 20.695 29.7212 21.0955V26.9512C29.7212 27.3615 29.9702 27.591 30.3268 27.591C30.6834 27.591 30.9373 27.3615 30.9373 26.9512V25.593C30.9373 25.4903 31.0432 25.4214 31.1368 25.4636C31.4987 25.6265 32.1014 25.8327 32.5831 25.8327C33.8821 25.8327 34.7124 24.812 34.7124 23.1613L34.7123 23.1612Z" fill="black"/>
<path d="M37.6909 25.8525C36.5971 25.8525 35.8305 25.4326 35.5815 24.8125C35.5473 24.7246 35.5327 24.6465 35.5327 24.5732C35.5327 24.2802 35.7475 24.0947 36.0405 24.0947C36.2407 24.0947 36.4116 24.1875 36.5678 24.3926C36.8412 24.7881 37.1537 24.9455 37.7348 24.9455C38.3159 24.9455 38.6772 24.7246 38.6772 24.334C38.6772 24.0215 38.4819 23.8506 37.9497 23.7285L37.1098 23.5381C36.099 23.3086 35.601 22.8106 35.601 22.0586C35.601 21.0967 36.4311 20.4668 37.7104 20.4668C38.7065 20.4668 39.478 20.9551 39.6391 21.5508C39.6537 21.6143 39.6635 21.6729 39.6635 21.7315C39.6635 21.9854 39.5024 22.1661 39.1947 22.1661C39.0189 22.1661 38.8431 22.1026 38.7308 21.9415C38.4915 21.5851 38.1937 21.3739 37.681 21.3739C37.1683 21.3739 36.7826 21.6192 36.7826 21.9903C36.7826 22.293 37.0072 22.4981 37.5443 22.6202L38.3695 22.8009C39.4633 23.0499 39.8978 23.4454 39.8978 24.212C39.8978 25.2032 39.0091 25.8526 37.6907 25.8526H37.6909V25.8525Z" fill="black"/>
</svg>
