<svg width="96" height="54" viewBox="0 0 96 54" fill="none" xmlns="http://www.w3.org/2000/svg">
<rect x="2.8501" y="1.85001" width="90.8" height="50.3" rx="3" stroke="#16215B" stroke-width="0.28"/>
<path d="M9.88481 37.1229C9.89581 37.2928 9.91281 37.4619 9.93381 37.6298C9.95581 37.7988 9.98381 37.9658 10.0178 38.1324C10.0518 38.2994 10.0928 38.4654 10.1427 38.6284C10.1917 38.7923 10.2497 38.9533 10.3136 39.1126C10.3786 39.2706 10.4506 39.4276 10.5284 39.5793C10.6074 39.7324 10.6934 39.8813 10.7852 40.0273C10.9702 40.3183 11.1822 40.5922 11.4195 40.843C11.6555 41.0939 11.9175 41.322 12.1972 41.5244C12.4772 41.7253 12.7742 41.9003 13.0859 42.0479C13.7039 42.341 14.3789 42.5259 15.0575 42.5849C25.7235 43.0129 36.3965 43.2279 47.0705 43.2279C48.6835 43.2279 50.2965 43.2228 51.9085 43.2133C52.2715 43.1854 52.6345 43.1303 52.9884 43.0488C53.3454 42.9667 53.6944 42.8577 54.035 42.7194C54.714 42.4444 55.355 42.0505 55.884 41.5445C56.149 41.2906 56.385 41.0085 56.5924 40.707C56.7984 40.406 56.9744 40.085 57.12 39.7507C57.266 39.4196 57.382 39.0756 57.469 38.7232C57.555 38.3742 57.612 38.0181 57.636 37.6597L57.6362 7.11543C57.6092 6.71748 57.5352 6.32148 57.4195 5.93989C57.3025 5.55683 57.1445 5.18989 56.9464 4.84113C56.5554 4.15107 56.0104 3.53706 55.3677 3.07917C55.0637 2.86213 54.7377 2.67414 54.3982 2.51618C54.0682 2.36225 53.7272 2.23725 53.376 2.13862C52.702 1.94856 51.999 1.85761 51.3014 1.852C39.4064 1.84492 27.5134 1.86701 15.6197 1.91779C15.2797 1.9228 14.9407 1.95478 14.6054 2.01032C14.2704 2.06733 13.9394 2.14838 13.6185 2.25605C13.1005 2.43305 12.6045 2.68403 12.1568 3.00043C11.9308 3.15937 11.7178 3.33442 11.5209 3.52595C11.3229 3.71894 11.1399 3.92793 10.9736 4.14863C10.8076 4.37165 10.6586 4.60554 10.5277 4.85078C10.3967 5.09577 10.2837 5.3498 10.1894 5.6125C10.0014 6.1385 9.89142 6.6955 9.87012 7.25105L9.88213 36.853" stroke="#16215B" stroke-width="0.283" stroke-miterlimit="10"/>
<path d="M52.5645 39.9726H14.9404C13.7664 39.9727 12.8145 39.0207 12.8145 37.8466V7.23273C12.8144 6.05841 13.7664 5.10638 14.9404 5.10638H18.4844H49.0215H52.5645C53.7394 5.10638 54.6905 6.05841 54.6905 7.23236L54.6904 37.8466C54.6904 39.0207 53.7394 39.9726 52.5645 39.9726Z" stroke="#00FFFF" stroke-width="0.28" stroke-miterlimit="10"/>
<path d="M23.3964 41.7773C32.7854 42.1103 42.2174 41.9924 51.5594 41.4244C51.8585 41.4068 52.1535 41.3648 52.4445 41.2968C52.5175 41.2787 52.5895 41.2598 52.6615 41.2388C52.7335 41.2188 52.8035 41.1968 52.8735 41.1728C53.0145 41.1248 53.1525 41.0698 53.2885 41.0078C53.4225 40.9459 53.5545 40.8758 53.6835 40.7988C53.7475 40.7598 53.8115 40.7198 53.8725 40.6778C53.9355 40.6358 53.9965 40.5928 54.0545 40.5478C54.2905 40.3679 54.5055 40.1628 54.6985 39.9328C54.7465 39.8758 54.7925 39.8168 54.8375 39.7558C54.8825 39.6959 54.9255 39.6348 54.9675 39.5728C55.0505 39.4488 55.1255 39.3209 55.1955 39.1888C55.2655 39.0578 55.3285 38.9228 55.3845 38.7838C55.4135 38.7158 55.4405 38.6448 55.4645 38.5738C55.4905 38.5038 55.5135 38.4318 55.5365 38.3608C55.6235 38.0757 55.6855 37.7868 55.7265 37.4938C55.7665 37.2007 55.7865 36.9058 55.7862 36.6069V33.7859V22.499C55.7862 17.494 55.7862 12.489 55.7871 7.48334C55.7871 7.33136 55.7791 7.17938 55.7651 7.02838C55.7571 6.95245 55.7481 6.87738 55.7361 6.80243C55.7251 6.72736 55.7121 6.65241 55.6961 6.57843C55.6361 6.28241 55.5461 5.99738 55.4241 5.72345C55.3921 5.65436 55.3601 5.58734 55.3261 5.51935C55.2921 5.45245 55.2551 5.38641 55.2171 5.32135C55.1411 5.19135 55.0581 5.06744 54.9691 4.94843C54.7901 4.71137 54.5861 4.49542 54.3561 4.29938C54.2991 4.2514 54.2401 4.20343 54.1811 4.15839C54.1211 4.11237 54.0601 4.0694 53.9991 4.02741C53.8751 3.94342 53.7481 3.86542 53.6171 3.79535C53.4861 3.72345 53.3511 3.65936 53.2141 3.6004C53.1441 3.57135 53.0741 3.5434 53.0041 3.5174C52.9331 3.49042 52.8621 3.46637 52.7911 3.44342C52.5061 3.35138 52.2161 3.28534 51.9221 3.24139C51.6271 3.19745 51.3281 3.17438 51.0263 3.17279C39.5333 3.09784 27.9163 3.09784 16.4257 3.17377C16.1227 3.17584 15.8237 3.19977 15.5287 3.24786C15.3807 3.27179 15.2347 3.30182 15.0877 3.33783C15.0157 3.35687 14.9427 3.37579 14.8707 3.39789C14.7987 3.41888 14.7277 3.44183 14.6567 3.46588C14.3737 3.56281 14.1027 3.68488 13.8437 3.83283C13.7787 3.86981 13.7137 3.90888 13.6517 3.94977C13.5877 3.98981 13.5257 4.0318 13.4647 4.07587C13.3437 4.16278 13.2277 4.2558 13.1157 4.35382C13.0057 4.45184 12.8997 4.55682 12.7997 4.66681C12.7487 4.72186 12.6997 4.77887 12.6527 4.83783C12.6057 4.89581 12.5597 4.95477 12.5157 5.01581C12.3397 5.25678 12.1937 5.51483 12.0737 5.78888C12.0437 5.85785 12.0157 5.92682 11.9897 5.99786C11.9637 6.06781 11.9397 6.13983 11.9167 6.21185C11.8717 6.35577 11.8347 6.50079 11.8057 6.64679C11.7467 6.93988 11.7187 7.23785 11.7198 7.54193C11.7407 17.272 11.7597 27.003 11.7773 36.7328C11.7773 37.0219 11.7983 37.3079 11.8423 37.5899C11.8863 37.8729 11.9523 38.1529 12.0433 38.4279C12.0883 38.5659 12.1393 38.702 12.1973 38.8349C12.2263 38.9009 12.2563 38.9669 12.2883 39.0319C12.3203 39.0969 12.3533 39.1619 12.3883 39.2259C12.5283 39.4799 12.6903 39.7169 12.8763 39.937C12.9683 40.046 13.0673 40.1519 13.1723 40.2529C13.2243 40.3029 13.2783 40.3519 13.3323 40.3989C13.3863 40.4459 13.4423 40.4919 13.4993 40.5359C13.7253 40.7119 13.9673 40.8619 14.2263 40.9879C14.2923 41.0189 14.3573 41.0489 14.4233 41.077C14.4913 41.1049 14.5573 41.1309 14.6263 41.1559C14.7603 41.2049 14.8973 41.2469 15.0363 41.2819C15.3123 41.3519 15.5943 41.3959 15.8828 41.413C20.4278 41.6921 24.9958 41.8651 29.5738 41.9321L23.3964 41.7773Z" stroke="#FF00FF" stroke-width="0.283465" stroke-miterlimit="10" stroke-linecap="round" stroke-linejoin="round"/>
<path d="M50.8871 44.9191V50.01H50.2706V45.5654H50.2408L48.9979 46.3907V45.7643L50.2706 44.9191H50.8871ZM52.4879 50.0498C52.3653 50.0498 52.2601 50.0059 52.1722 49.918C52.0844 49.8302 52.0405 49.725 52.0405 49.6023C52.0405 49.4797 52.0844 49.3745 52.1722 49.2866C52.2601 49.1988 52.3653 49.1549 52.4879 49.1549C52.6106 49.1549 52.7158 49.1988 52.8036 49.2866C52.8915 49.3745 52.9354 49.4797 52.9354 49.6023C52.9354 49.6835 52.9147 49.7581 52.8732 49.8261C52.8335 49.894 52.7796 49.9487 52.7116 49.9901C52.6454 50.0299 52.5708 50.0498 52.4879 50.0498ZM54.0347 50.01L56.3117 45.5057V45.466H53.6867V44.9191H56.9481V45.4958L54.681 50.01H54.0347ZM59.3972 50.0796C59.1055 50.0796 58.8429 50.0216 58.6092 49.9056C58.3755 49.7896 58.1883 49.6305 58.0474 49.4283C57.9065 49.2262 57.8295 48.9958 57.8162 48.7373H58.4128C58.436 48.9676 58.5404 49.1582 58.726 49.309C58.9133 49.4582 59.137 49.5327 59.3972 49.5327C59.606 49.5327 59.7916 49.4838 59.954 49.3861C60.1181 49.2883 60.2465 49.1541 60.3393 48.9834C60.4338 48.811 60.481 48.6163 60.481 48.3992C60.481 48.1771 60.4321 47.9791 60.3343 47.8051C60.2382 47.6294 60.1056 47.4911 59.9366 47.39C59.7676 47.2889 59.5745 47.2375 59.3574 47.2359C59.2016 47.2342 59.0417 47.2582 58.8777 47.308C58.7136 47.356 58.5785 47.4182 58.4725 47.4944L57.8958 47.4248L58.204 44.9191H60.8489V45.466H58.7211L58.5421 46.9674H58.5719C58.6763 46.8845 58.8072 46.8158 58.9647 46.7611C59.1221 46.7064 59.2862 46.679 59.4569 46.679C59.7684 46.679 60.046 46.7536 60.2896 46.9028C60.5349 47.0503 60.7271 47.2524 60.8663 47.5093C61.0072 47.7662 61.0776 48.0595 61.0776 48.3893C61.0776 48.7141 61.0047 49.0041 60.8588 49.2593C60.7147 49.5129 60.5158 49.7134 60.2623 49.8609C60.0087 50.0067 59.7203 50.0796 59.3972 50.0796ZM66.9074 46.1918C66.8776 45.9399 66.7566 45.7444 66.5445 45.6052C66.3324 45.466 66.0722 45.3964 65.7639 45.3964C65.5386 45.3964 65.3414 45.4328 65.1723 45.5057C65.0049 45.5787 64.874 45.6789 64.7796 45.8065C64.6868 45.9341 64.6404 46.0791 64.6404 46.2415C64.6404 46.3774 64.6727 46.4943 64.7373 46.592C64.8036 46.6882 64.8881 46.7685 64.9909 46.8332C65.0936 46.8961 65.2013 46.9483 65.314 46.9898C65.4267 47.0295 65.5303 47.0619 65.6247 47.0867L66.1418 47.2259C66.2744 47.2607 66.4218 47.3088 66.5843 47.3701C66.7483 47.4314 66.9049 47.5151 67.0541 47.6212C67.2049 47.7256 67.3292 47.8598 67.4269 48.0239C67.5247 48.1879 67.5736 48.3893 67.5736 48.6279C67.5736 48.903 67.5015 49.1516 67.3573 49.3736C67.2148 49.5957 67.006 49.7722 66.7309 49.9031C66.4575 50.034 66.1252 50.0995 65.7341 50.0995C65.3695 50.0995 65.0538 50.0407 64.787 49.923C64.5219 49.8053 64.3131 49.6413 64.1606 49.4308C64.0098 49.2204 63.9244 48.9759 63.9046 48.6975H64.5409C64.5575 48.8897 64.6221 49.0488 64.7348 49.1748C64.8492 49.2991 64.9933 49.3919 65.1673 49.4532C65.343 49.5129 65.5319 49.5427 65.7341 49.5427C65.9694 49.5427 66.1807 49.5046 66.368 49.4283C66.5552 49.3504 66.7036 49.2427 66.8129 49.1052C66.9223 48.966 66.977 48.8036 66.977 48.618C66.977 48.4489 66.9298 48.3114 66.8353 48.2053C66.7409 48.0993 66.6166 48.0131 66.4624 47.9468C66.3083 47.8805 66.1418 47.8225 65.9628 47.7728L65.3364 47.5938C64.9387 47.4795 64.6238 47.3162 64.3918 47.1041C64.1598 46.892 64.0438 46.6144 64.0438 46.2714C64.0438 45.9863 64.1208 45.7378 64.2749 45.5256C64.4307 45.3119 64.6395 45.1461 64.9014 45.0285C65.1649 44.9092 65.459 44.8495 65.7838 44.8495C66.1119 44.8495 66.4036 44.9083 66.6588 45.026C66.914 45.142 67.1162 45.3011 67.2654 45.5033C67.4162 45.7054 67.4957 45.935 67.504 46.1918H66.9074ZM70.1681 46.1918V46.689H68.1895V46.1918H70.1681ZM68.7662 45.2771H69.3528V48.9163C69.3528 49.082 69.3768 49.2063 69.4249 49.2891C69.4746 49.3703 69.5376 49.425 69.6138 49.4532C69.6917 49.4797 69.7737 49.493 69.8599 49.493C69.9245 49.493 69.9776 49.4896 70.019 49.483C70.0604 49.4747 70.0936 49.4681 70.1184 49.4631L70.2377 49.9901C70.198 50.005 70.1425 50.02 70.0712 50.0349C69.9999 50.0514 69.9096 50.0597 69.8002 50.0597C69.6345 50.0597 69.4721 50.0241 69.313 49.9528C69.1556 49.8816 69.0247 49.773 68.9203 49.6272C68.8175 49.4814 68.7662 49.2974 68.7662 49.0754V45.2771ZM72.6104 50.0896C72.2425 50.0896 71.9252 50.0084 71.6584 49.8459C71.3932 49.6819 71.1886 49.4532 71.0444 49.1599C70.9019 48.8649 70.8306 48.5218 70.8306 48.1307C70.8306 47.7396 70.9019 47.395 71.0444 47.0967C71.1886 46.7967 71.3891 46.563 71.646 46.3957C71.9045 46.2266 72.2061 46.1421 72.5508 46.1421C72.7496 46.1421 72.946 46.1753 73.1399 46.2415C73.3338 46.3078 73.5103 46.4155 73.6694 46.5647C73.8285 46.7122 73.9553 46.9077 74.0497 47.1513C74.1442 47.395 74.1914 47.6949 74.1914 48.0512V48.2998H71.2482V47.7927H73.5948C73.5948 47.5772 73.5517 47.385 73.4656 47.216C73.381 47.0469 73.2601 46.9135 73.1026 46.8158C72.9469 46.718 72.7629 46.6691 72.5508 46.6691C72.3171 46.6691 72.1149 46.7271 71.9442 46.8431C71.7752 46.9575 71.6451 47.1066 71.554 47.2905C71.4628 47.4745 71.4173 47.6717 71.4173 47.8822V48.2202C71.4173 48.5086 71.467 48.753 71.5664 48.9535C71.6675 49.1524 71.8075 49.304 71.9865 49.4084C72.1655 49.5112 72.3735 49.5626 72.6104 49.5626C72.7646 49.5626 72.9038 49.541 73.0281 49.4979C73.154 49.4532 73.2625 49.3869 73.3537 49.2991C73.4448 49.2096 73.5153 49.0986 73.565 48.966L74.1317 49.1251C74.0721 49.3173 73.9718 49.4863 73.831 49.6322C73.6901 49.7763 73.5161 49.889 73.3089 49.9702C73.1018 50.0498 72.869 50.0896 72.6104 50.0896ZM75.0838 51.4418V46.1918H75.6506V46.7984H75.7202C75.7633 46.7321 75.8229 46.6476 75.8991 46.5448C75.977 46.4404 76.0881 46.3476 76.2322 46.2664C76.3781 46.1835 76.5753 46.1421 76.8239 46.1421C77.1454 46.1421 77.4287 46.2225 77.674 46.3832C77.9193 46.544 78.1107 46.7718 78.2482 47.0668C78.3858 47.3618 78.4545 47.7098 78.4545 48.1109C78.4545 48.5152 78.3858 48.8657 78.2482 49.1624C78.1107 49.4573 77.9201 49.686 77.6765 49.8484C77.4329 50.0092 77.152 50.0896 76.8338 50.0896C76.5885 50.0896 76.3922 50.049 76.2447 49.9678C76.0972 49.8849 75.9837 49.7913 75.9041 49.6869C75.8246 49.5808 75.7633 49.493 75.7202 49.4234H75.6705V51.4418H75.0838ZM75.6605 48.1009C75.6605 48.3893 75.7028 48.6437 75.7873 48.8641C75.8718 49.0828 75.9953 49.2543 76.1577 49.3786C76.3201 49.5013 76.5189 49.5626 76.7543 49.5626C76.9995 49.5626 77.2042 49.4979 77.3683 49.3687C77.534 49.2378 77.6583 49.0621 77.7411 48.8417C77.8256 48.6196 77.8679 48.3727 77.8679 48.1009C77.8679 47.8325 77.8265 47.5905 77.7436 47.3751C77.6624 47.158 77.5389 46.9865 77.3732 46.8605C77.2092 46.7329 77.0028 46.6691 76.7543 46.6691C76.5156 46.6691 76.3151 46.7296 76.1527 46.8506C75.9903 46.9699 75.8677 47.1373 75.7848 47.3527C75.7019 47.5665 75.6605 47.8159 75.6605 48.1009ZM79.3494 51.4418V46.1918H79.9162V46.7984H79.9858C80.0289 46.7321 80.0885 46.6476 80.1648 46.5448C80.2427 46.4404 80.3537 46.3476 80.4979 46.2664C80.6437 46.1835 80.8409 46.1421 81.0895 46.1421C81.411 46.1421 81.6944 46.2225 81.9396 46.3832C82.1849 46.544 82.3763 46.7718 82.5138 47.0668C82.6514 47.3618 82.7202 47.7098 82.7202 48.1109C82.7202 48.5152 82.6514 48.8657 82.5138 49.1624C82.3763 49.4573 82.1857 49.686 81.9421 49.8484C81.6985 50.0092 81.4176 50.0896 81.0994 50.0896C80.8542 50.0896 80.6578 50.049 80.5103 49.9678C80.3628 49.8849 80.2493 49.7913 80.1697 49.6869C80.0902 49.5808 80.0289 49.493 79.9858 49.4234H79.9361V51.4418H79.3494ZM79.9261 48.1009C79.9261 48.3893 79.9684 48.6437 80.0529 48.8641C80.1374 49.0828 80.2609 49.2543 80.4233 49.3786C80.5857 49.5013 80.7846 49.5626 81.0199 49.5626C81.2652 49.5626 81.4698 49.4979 81.6339 49.3687C81.7996 49.2378 81.9239 49.0621 82.0067 48.8417C82.0913 48.6196 82.1335 48.3727 82.1335 48.1009C82.1335 47.8325 82.0921 47.5905 82.0092 47.3751C81.928 47.158 81.8046 46.9865 81.6388 46.8605C81.4748 46.7329 81.2685 46.6691 81.0199 46.6691C80.7813 46.6691 80.5807 46.7296 80.4183 46.8506C80.2559 46.9699 80.1333 47.1373 80.0504 47.3527C79.9676 47.5665 79.9261 47.8159 79.9261 48.1009ZM85.2159 50.0896C84.848 50.0896 84.5307 50.0084 84.2638 49.8459C83.9987 49.6819 83.794 49.4532 83.6499 49.1599C83.5073 48.8649 83.4361 48.5218 83.4361 48.1307C83.4361 47.7396 83.5073 47.395 83.6499 47.0967C83.794 46.7967 83.9946 46.563 84.2514 46.3957C84.5099 46.2266 84.8116 46.1421 85.1562 46.1421C85.3551 46.1421 85.5515 46.1753 85.7454 46.2415C85.9393 46.3078 86.1158 46.4155 86.2749 46.5647C86.4339 46.7122 86.5607 46.9077 86.6552 47.1513C86.7496 47.395 86.7969 47.6949 86.7969 48.0512V48.2998H83.8537V47.7927H86.2003C86.2003 47.5772 86.1572 47.385 86.071 47.216C85.9865 47.0469 85.8655 46.9135 85.7081 46.8158C85.5523 46.718 85.3684 46.6691 85.1562 46.6691C84.9226 46.6691 84.7204 46.7271 84.5497 46.8431C84.3807 46.9575 84.2506 47.1066 84.1594 47.2905C84.0683 47.4745 84.0227 47.6717 84.0227 47.8822V48.2202C84.0227 48.5086 84.0724 48.753 84.1719 48.9535C84.273 49.1524 84.413 49.304 84.592 49.4084C84.771 49.5112 84.9789 49.5626 85.2159 49.5626C85.37 49.5626 85.5092 49.541 85.6335 49.4979C85.7595 49.4532 85.868 49.3869 85.9592 49.2991C86.0503 49.2096 86.1207 49.0986 86.1705 48.966L86.7372 49.1251C86.6776 49.3173 86.5773 49.4863 86.4364 49.6322C86.2956 49.7763 86.1216 49.889 85.9144 49.9702C85.7073 50.0498 85.4744 50.0896 85.2159 50.0896ZM89.131 50.0896C88.8129 50.0896 88.532 50.0092 88.2884 49.8484C88.0447 49.686 87.8542 49.4573 87.7166 49.1624C87.5791 48.8657 87.5103 48.5152 87.5103 48.1109C87.5103 47.7098 87.5791 47.3618 87.7166 47.0668C87.8542 46.7718 88.0456 46.544 88.2908 46.3832C88.5361 46.2225 88.8195 46.1421 89.141 46.1421C89.3896 46.1421 89.5859 46.1835 89.7301 46.2664C89.8759 46.3476 89.987 46.4404 90.0632 46.5448C90.1411 46.6476 90.2016 46.7321 90.2447 46.7984H90.2944V44.9191H90.881V50.01H90.3143V49.4234H90.2447C90.2016 49.493 90.1403 49.5808 90.0607 49.6869C89.9812 49.7913 89.8677 49.8849 89.7202 49.9678C89.5727 50.049 89.3763 50.0896 89.131 50.0896ZM89.2106 49.5626C89.4459 49.5626 89.6448 49.5013 89.8072 49.3786C89.9696 49.2543 90.093 49.0828 90.1776 48.8641C90.2621 48.6437 90.3043 48.3893 90.3043 48.1009C90.3043 47.8159 90.2629 47.5665 90.18 47.3527C90.0972 47.1373 89.9746 46.9699 89.8121 46.8506C89.6497 46.7296 89.4492 46.6691 89.2106 46.6691C88.962 46.6691 88.7549 46.7329 88.5891 46.8605C88.4251 46.9865 88.3016 47.158 88.2188 47.3751C88.1375 47.5905 88.0969 47.8325 88.0969 48.1009C88.0969 48.3727 88.1384 48.6196 88.2212 48.8417C88.3058 49.0621 88.43 49.2378 88.5941 49.3687C88.7598 49.4979 88.9653 49.5626 89.2106 49.5626Z" fill="#0000FF"/>
<path fill-rule="evenodd" clip-rule="evenodd" d="M27.7446 14.994C27.3334 14.5829 26.6666 14.5829 26.2555 14.994L20.8625 20.3869C20.4022 20.8474 20.2647 21.5398 20.5136 22.1414C20.7628 22.7428 21.3497 23.1351 22.0009 23.1351H23.2505C23.3278 23.1351 23.3905 23.1978 23.3905 23.2751V26.3644C23.3905 27.2535 24.1113 27.9743 25.0004 27.9743H28.9994C29.8885 27.9743 30.6093 27.2535 30.6093 26.3644V23.2751C30.6093 23.1978 30.672 23.1351 30.7493 23.1351H31.9989C32.6501 23.1351 33.2371 22.7426 33.4863 22.1412C33.7338 21.5436 33.5994 20.8569 33.1469 20.3966L33.1374 20.3868L27.7446 14.994ZM27.099 16.3567L32.1261 21.3838L32.1331 21.3908C32.1875 21.4453 32.2036 21.527 32.1743 21.598C32.1449 21.6689 32.0756 21.7151 31.9989 21.7151H30.0694C29.5834 21.7151 29.1893 22.1092 29.1893 22.5952V26.3644C29.1893 26.4693 29.1043 26.5543 28.9994 26.5543H25.0004C24.8955 26.5543 24.8105 26.4693 24.8105 26.3644V22.5952C24.8105 22.1088 24.4162 21.7151 23.9304 21.7151H22.0009C21.9241 21.7151 21.855 21.6691 21.8256 21.5981C21.7961 21.5269 21.8125 21.4452 21.8667 21.3908L26.901 16.3567C26.9557 16.302 27.0443 16.302 27.099 16.3567ZM24.0962 29.3943C23.7041 29.3943 23.3862 29.7122 23.3862 30.1043C23.3862 30.4964 23.7041 30.8143 24.0962 30.8143H29.8962C30.2883 30.8143 30.6062 30.4964 30.6062 30.1043C30.6062 29.7122 30.2883 29.3943 29.8962 29.3943H24.0962Z" fill="black"/>
</svg>
