<svg width="95" height="54" viewBox="0 0 95 54" fill="none" xmlns="http://www.w3.org/2000/svg">
<path d="M9.88481 37.1229C9.89581 37.2928 9.91281 37.4619 9.93381 37.6298C9.95581 37.7988 9.98381 37.9658 10.0178 38.1324C10.0518 38.2994 10.0928 38.4654 10.1427 38.6284C10.1917 38.7923 10.2497 38.9533 10.3136 39.1126C10.3786 39.2706 10.4506 39.4276 10.5284 39.5793C10.6074 39.7324 10.6934 39.8813 10.7852 40.0273C10.9702 40.3183 11.1822 40.5922 11.4195 40.843C11.6555 41.0939 11.9175 41.322 12.1972 41.5244C12.4772 41.7253 12.7742 41.9003 13.0859 42.0479C13.7039 42.341 14.3789 42.5259 15.0575 42.5849C25.7235 43.0129 36.3965 43.2279 47.0705 43.2279C48.6835 43.2279 50.2965 43.2228 51.9085 43.2133C52.2715 43.1854 52.6345 43.1303 52.9884 43.0488C53.3454 42.9667 53.6944 42.8577 54.035 42.7194C54.714 42.4444 55.355 42.0505 55.884 41.5445C56.149 41.2906 56.385 41.0085 56.5924 40.707C56.7984 40.406 56.9744 40.085 57.12 39.7507C57.266 39.4196 57.382 39.0756 57.469 38.7232C57.555 38.3742 57.612 38.0181 57.636 37.6597L57.6362 7.11543C57.6092 6.71748 57.5352 6.32148 57.4195 5.93989C57.3025 5.55683 57.1445 5.18989 56.9464 4.84113C56.5554 4.15107 56.0104 3.53706 55.3677 3.07917C55.0637 2.86213 54.7377 2.67414 54.3982 2.51618C54.0682 2.36225 53.7272 2.23725 53.376 2.13862C52.702 1.94856 51.999 1.85761 51.3014 1.852C39.4064 1.84492 27.5134 1.86701 15.6197 1.91779C15.2797 1.9228 14.9407 1.95478 14.6054 2.01032C14.2704 2.06733 13.9394 2.14838 13.6185 2.25605C13.1005 2.43305 12.6045 2.68403 12.1568 3.00043C11.9308 3.15937 11.7178 3.33442 11.5209 3.52595C11.3229 3.71894 11.1399 3.92793 10.9736 4.14863C10.8076 4.37165 10.6586 4.60554 10.5277 4.85078C10.3967 5.09577 10.2837 5.3498 10.1894 5.6125C10.0014 6.1385 9.89142 6.6955 9.87012 7.25105L9.88213 36.853" stroke="#16215B" stroke-width="0.283" stroke-miterlimit="10"/>
<path d="M52.5645 39.9726H14.9404C13.7664 39.9727 12.8145 39.0207 12.8145 37.8466V7.23273C12.8144 6.05841 13.7664 5.10638 14.9404 5.10638H18.4844H49.0215H52.5645C53.7394 5.10638 54.6905 6.05841 54.6905 7.23236L54.6904 37.8466C54.6904 39.0207 53.7394 39.9726 52.5645 39.9726Z" stroke="#00FFFF" stroke-width="0.28" stroke-miterlimit="10"/>
<path d="M23.3964 41.7773C32.7854 42.1103 42.2174 41.9924 51.5594 41.4244C51.8585 41.4068 52.1535 41.3648 52.4445 41.2968C52.5175 41.2787 52.5895 41.2598 52.6615 41.2388C52.7335 41.2188 52.8035 41.1968 52.8735 41.1728C53.0145 41.1248 53.1525 41.0698 53.2885 41.0078C53.4225 40.9459 53.5545 40.8758 53.6835 40.7988C53.7475 40.7598 53.8115 40.7198 53.8725 40.6778C53.9355 40.6358 53.9965 40.5928 54.0545 40.5478C54.2905 40.3679 54.5055 40.1628 54.6985 39.9328C54.7465 39.8758 54.7925 39.8168 54.8375 39.7558C54.8825 39.6959 54.9255 39.6348 54.9675 39.5728C55.0505 39.4488 55.1255 39.3209 55.1955 39.1888C55.2655 39.0578 55.3285 38.9228 55.3845 38.7838C55.4135 38.7158 55.4405 38.6448 55.4645 38.5738C55.4905 38.5038 55.5135 38.4318 55.5365 38.3608C55.6235 38.0757 55.6855 37.7868 55.7265 37.4938C55.7665 37.2007 55.7865 36.9058 55.7862 36.6069V33.7859V22.499C55.7862 17.494 55.7862 12.489 55.7871 7.48334C55.7871 7.33136 55.7791 7.17938 55.7651 7.02838C55.7571 6.95245 55.7481 6.87738 55.7361 6.80243C55.7251 6.72736 55.7121 6.65241 55.6961 6.57843C55.6361 6.28241 55.5461 5.99738 55.4241 5.72345C55.3921 5.65436 55.3601 5.58734 55.3261 5.51935C55.2921 5.45245 55.2551 5.38641 55.2171 5.32135C55.1411 5.19135 55.0581 5.06744 54.9691 4.94843C54.7901 4.71137 54.5861 4.49542 54.3561 4.29938C54.2991 4.2514 54.2401 4.20343 54.1811 4.15839C54.1211 4.11237 54.0601 4.0694 53.9991 4.02741C53.8751 3.94342 53.7481 3.86542 53.6171 3.79535C53.4861 3.72345 53.3511 3.65936 53.2141 3.6004C53.1441 3.57135 53.0741 3.5434 53.0041 3.5174C52.9331 3.49042 52.8621 3.46637 52.7911 3.44342C52.5061 3.35138 52.2161 3.28534 51.9221 3.24139C51.6271 3.19745 51.3281 3.17438 51.0263 3.17279C39.5333 3.09784 27.9163 3.09784 16.4257 3.17377C16.1227 3.17584 15.8237 3.19977 15.5287 3.24786C15.3807 3.27179 15.2347 3.30182 15.0877 3.33783C15.0157 3.35687 14.9427 3.37579 14.8707 3.39789C14.7987 3.41888 14.7277 3.44183 14.6567 3.46588C14.3737 3.56281 14.1027 3.68488 13.8437 3.83283C13.7787 3.86981 13.7137 3.90888 13.6517 3.94977C13.5877 3.98981 13.5257 4.0318 13.4647 4.07587C13.3437 4.16278 13.2277 4.2558 13.1157 4.35382C13.0057 4.45184 12.8997 4.55682 12.7997 4.66681C12.7487 4.72186 12.6997 4.77887 12.6527 4.83783C12.6057 4.89581 12.5597 4.95477 12.5157 5.01581C12.3397 5.25678 12.1937 5.51483 12.0737 5.78888C12.0437 5.85785 12.0157 5.92682 11.9897 5.99786C11.9637 6.06781 11.9397 6.13983 11.9167 6.21185C11.8717 6.35577 11.8347 6.50079 11.8057 6.64679C11.7467 6.93988 11.7187 7.23785 11.7198 7.54193C11.7407 17.272 11.7597 27.003 11.7773 36.7328C11.7773 37.0219 11.7983 37.3079 11.8423 37.5899C11.8863 37.8729 11.9523 38.1529 12.0433 38.4279C12.0883 38.5659 12.1393 38.702 12.1973 38.8349C12.2263 38.9009 12.2563 38.9669 12.2883 39.0319C12.3203 39.0969 12.3533 39.1619 12.3883 39.2259C12.5283 39.4799 12.6903 39.7169 12.8763 39.937C12.9683 40.046 13.0673 40.1519 13.1723 40.2529C13.2243 40.3029 13.2783 40.3519 13.3323 40.3989C13.3863 40.4459 13.4423 40.4919 13.4993 40.5359C13.7253 40.7119 13.9673 40.8619 14.2263 40.9879C14.2923 41.0189 14.3573 41.0489 14.4233 41.077C14.4913 41.1049 14.5573 41.1309 14.6263 41.1559C14.7603 41.2049 14.8973 41.2469 15.0363 41.2819C15.3123 41.3519 15.5943 41.3959 15.8828 41.413C20.4278 41.6921 24.9958 41.8651 29.5738 41.9321L23.3964 41.7773Z" stroke="#FF00FF" stroke-width="0.283465" stroke-miterlimit="10" stroke-linecap="round" stroke-linejoin="round"/>
<path d="M16.8968 46.9191V52.01H16.2804V47.5654H16.2505L15.0076 48.3907V47.7643L16.2804 46.9191H16.8968ZM18.4977 52.0498C18.3751 52.0498 18.2698 52.0059 18.182 51.918C18.0942 51.8302 18.0502 51.725 18.0502 51.6023C18.0502 51.4797 18.0942 51.3745 18.182 51.2866C18.2698 51.1988 18.3751 51.1549 18.4977 51.1549C18.6203 51.1549 18.7256 51.1988 18.8134 51.2866C18.9012 51.3745 18.9451 51.4797 18.9451 51.6023C18.9451 51.6835 18.9244 51.7581 18.883 51.8261C18.8432 51.894 18.7894 51.9487 18.7214 51.9901C18.6551 52.0299 18.5806 52.0498 18.4977 52.0498ZM20.0445 52.01L22.3215 47.5057V47.466H19.6965V46.9191H22.9578V47.4958L20.6908 52.01H20.0445ZM25.407 52.0796C25.1153 52.0796 24.8526 52.0216 24.619 51.9056C24.3853 51.7896 24.198 51.6305 24.0572 51.4283C23.9163 51.2262 23.8393 50.9958 23.826 50.7373H24.4226C24.4458 50.9676 24.5502 51.1582 24.7358 51.309C24.9231 51.4582 25.1468 51.5327 25.407 51.5327C25.6158 51.5327 25.8014 51.4838 25.9638 51.3861C26.1278 51.2883 26.2563 51.1541 26.3491 50.9834C26.4435 50.811 26.4908 50.6163 26.4908 50.3992C26.4908 50.1771 26.4419 49.9791 26.3441 49.8051C26.248 49.6294 26.1154 49.4911 25.9464 49.39C25.7773 49.2889 25.5843 49.2375 25.3672 49.2359C25.2114 49.2342 25.0515 49.2582 24.8874 49.308C24.7234 49.356 24.5883 49.4182 24.4822 49.4944L23.9055 49.4248L24.2138 46.9191H26.8587V47.466H24.7308L24.5518 48.9674H24.5817C24.6861 48.8845 24.817 48.8158 24.9744 48.7611C25.1319 48.7064 25.2959 48.679 25.4666 48.679C25.7782 48.679 26.0558 48.7536 26.2994 48.9028C26.5446 49.0503 26.7369 49.2524 26.8761 49.5093C27.0169 49.7662 27.0874 50.0595 27.0874 50.3893C27.0874 50.7141 27.0144 51.0041 26.8686 51.2593C26.7244 51.5129 26.5256 51.7134 26.272 51.8609C26.0185 52.0067 25.7301 52.0796 25.407 52.0796ZM32.9172 48.1918C32.8873 47.9399 32.7664 47.7444 32.5542 47.6052C32.3421 47.466 32.0819 47.3964 31.7737 47.3964C31.5483 47.3964 31.3511 47.4328 31.1821 47.5057C31.0147 47.5787 30.8838 47.6789 30.7893 47.8065C30.6965 47.9341 30.6501 48.0791 30.6501 48.2415C30.6501 48.3774 30.6824 48.4943 30.7471 48.592C30.8134 48.6882 30.8979 48.7685 31.0006 48.8332C31.1034 48.8961 31.2111 48.9483 31.3238 48.9898C31.4365 49.0295 31.54 49.0619 31.6345 49.0867L32.1515 49.2259C32.2841 49.2607 32.4316 49.3088 32.594 49.3701C32.7581 49.4314 32.9147 49.5151 33.0638 49.6212C33.2146 49.7256 33.3389 49.8598 33.4367 50.0239C33.5345 50.1879 33.5834 50.3893 33.5834 50.6279C33.5834 50.903 33.5113 51.1516 33.3671 51.3736C33.2246 51.5957 33.0158 51.7722 32.7407 51.9031C32.4672 52.034 32.135 52.0995 31.7439 52.0995C31.3793 52.0995 31.0636 52.0407 30.7968 51.923C30.5316 51.8053 30.3228 51.6413 30.1704 51.4308C30.0196 51.2204 29.9342 50.9759 29.9143 50.6975H30.5507C30.5673 50.8897 30.6319 51.0488 30.7446 51.1748C30.8589 51.2991 31.0031 51.3919 31.1771 51.4532C31.3528 51.5129 31.5417 51.5427 31.7439 51.5427C31.9792 51.5427 32.1905 51.5046 32.3778 51.4283C32.565 51.3504 32.7133 51.2427 32.8227 51.1052C32.9321 50.966 32.9868 50.8036 32.9868 50.618C32.9868 50.4489 32.9395 50.3114 32.8451 50.2053C32.7506 50.0993 32.6263 50.0131 32.4722 49.9468C32.3181 49.8805 32.1515 49.8225 31.9726 49.7728L31.3461 49.5938C30.9484 49.4795 30.6336 49.3162 30.4015 49.1041C30.1695 48.892 30.0535 48.6144 30.0535 48.2714C30.0535 47.9863 30.1306 47.7378 30.2847 47.5256C30.4405 47.3119 30.6493 47.1461 30.9111 47.0285C31.1746 46.9092 31.4688 46.8495 31.7936 46.8495C32.1217 46.8495 32.4134 46.9083 32.6686 47.026C32.9238 47.142 33.126 47.3011 33.2751 47.5033C33.4259 47.7054 33.5055 47.935 33.5138 48.1918H32.9172ZM36.1779 48.1918V48.689H34.1992V48.1918H36.1779ZM34.7759 47.2771H35.3626V50.9163C35.3626 51.082 35.3866 51.2063 35.4347 51.2891C35.4844 51.3703 35.5473 51.425 35.6236 51.4532C35.7015 51.4797 35.7835 51.493 35.8697 51.493C35.9343 51.493 35.9873 51.4896 36.0288 51.483C36.0702 51.4747 36.1033 51.4681 36.1282 51.4631L36.2475 51.9901C36.2077 52.005 36.1522 52.02 36.081 52.0349C36.0097 52.0514 35.9194 52.0597 35.81 52.0597C35.6443 52.0597 35.4819 52.0241 35.3228 51.9528C35.1654 51.8816 35.0344 51.773 34.93 51.6272C34.8273 51.4814 34.7759 51.2974 34.7759 51.0754V47.2771ZM38.6202 52.0896C38.2523 52.0896 37.935 52.0084 37.6681 51.8459C37.403 51.6819 37.1983 51.4532 37.0542 51.1599C36.9116 50.8649 36.8404 50.5218 36.8404 50.1307C36.8404 49.7396 36.9116 49.395 37.0542 49.0967C37.1983 48.7967 37.3989 48.563 37.6557 48.3957C37.9142 48.2266 38.2158 48.1421 38.5605 48.1421C38.7594 48.1421 38.9558 48.1753 39.1497 48.2415C39.3436 48.3078 39.5201 48.4155 39.6792 48.5647C39.8382 48.7122 39.965 48.9077 40.0595 49.1513C40.1539 49.395 40.2012 49.6949 40.2012 50.0512V50.2998H37.258V49.7927H39.6046C39.6046 49.5772 39.5615 49.385 39.4753 49.216C39.3908 49.0469 39.2698 48.9135 39.1124 48.8158C38.9566 48.718 38.7727 48.6691 38.5605 48.6691C38.3269 48.6691 38.1247 48.7271 37.954 48.8431C37.785 48.9575 37.6549 49.1066 37.5637 49.2905C37.4726 49.4745 37.427 49.6717 37.427 49.8822V50.2202C37.427 50.5086 37.4767 50.753 37.5762 50.9535C37.6773 51.1524 37.8173 51.304 37.9963 51.4084C38.1752 51.5112 38.3832 51.5626 38.6202 51.5626C38.7743 51.5626 38.9135 51.541 39.0378 51.4979C39.1638 51.4532 39.2723 51.3869 39.3635 51.2991C39.4546 51.2096 39.525 51.0986 39.5748 50.966L40.1415 51.1251C40.0819 51.3173 39.9816 51.4863 39.8407 51.6322C39.6999 51.7763 39.5259 51.889 39.3187 51.9702C39.1116 52.0498 38.8787 52.0896 38.6202 52.0896ZM41.0936 53.4418V48.1918H41.6603V48.7984H41.7299C41.773 48.7321 41.8327 48.6476 41.9089 48.5448C41.9868 48.4404 42.0978 48.3476 42.242 48.2664C42.3878 48.1835 42.585 48.1421 42.8336 48.1421C43.1551 48.1421 43.4385 48.2225 43.6838 48.3832C43.929 48.544 44.1204 48.7718 44.258 49.0668C44.3955 49.3618 44.4643 49.7098 44.4643 50.1109C44.4643 50.5152 44.3955 50.8657 44.258 51.1624C44.1204 51.4573 43.9299 51.686 43.6863 51.8484C43.4426 52.0092 43.1618 52.0896 42.8436 52.0896C42.5983 52.0896 42.4019 52.049 42.2544 51.9678C42.1069 51.8849 41.9934 51.7913 41.9139 51.6869C41.8343 51.5808 41.773 51.493 41.7299 51.4234H41.6802V53.4418H41.0936ZM41.6703 50.1009C41.6703 50.3893 41.7125 50.6437 41.7971 50.8641C41.8816 51.0828 42.005 51.2543 42.1674 51.3786C42.3298 51.5013 42.5287 51.5626 42.764 51.5626C43.0093 51.5626 43.214 51.4979 43.378 51.3687C43.5437 51.2378 43.668 51.0621 43.7509 50.8417C43.8354 50.6196 43.8777 50.3727 43.8777 50.1009C43.8777 49.8325 43.8362 49.5905 43.7534 49.3751C43.6722 49.158 43.5487 48.9865 43.383 48.8605C43.2189 48.7329 43.0126 48.6691 42.764 48.6691C42.5254 48.6691 42.3249 48.7296 42.1625 48.8506C42.0001 48.9699 41.8774 49.1373 41.7946 49.3527C41.7117 49.5665 41.6703 49.8159 41.6703 50.1009ZM45.3592 53.4418V48.1918H45.926V48.7984H45.9956C46.0386 48.7321 46.0983 48.6476 46.1745 48.5448C46.2524 48.4404 46.3635 48.3476 46.5076 48.2664C46.6535 48.1835 46.8507 48.1421 47.0993 48.1421C47.4208 48.1421 47.7041 48.2225 47.9494 48.3832C48.1947 48.544 48.3861 48.7718 48.5236 49.0668C48.6612 49.3618 48.7299 49.7098 48.7299 50.1109C48.7299 50.5152 48.6612 50.8657 48.5236 51.1624C48.3861 51.4573 48.1955 51.686 47.9519 51.8484C47.7083 52.0092 47.4274 52.0896 47.1092 52.0896C46.8639 52.0896 46.6676 52.049 46.5201 51.9678C46.3726 51.8849 46.2591 51.7913 46.1795 51.6869C46.1 51.5808 46.0386 51.493 45.9956 51.4234H45.9458V53.4418H45.3592ZM45.9359 50.1009C45.9359 50.3893 45.9782 50.6437 46.0627 50.8641C46.1472 51.0828 46.2707 51.2543 46.4331 51.3786C46.5955 51.5013 46.7943 51.5626 47.0297 51.5626C47.2749 51.5626 47.4796 51.4979 47.6436 51.3687C47.8094 51.2378 47.9337 51.0621 48.0165 50.8417C48.101 50.6196 48.1433 50.3727 48.1433 50.1009C48.1433 49.8325 48.1019 49.5905 48.019 49.3751C47.9378 49.158 47.8143 48.9865 47.6486 48.8605C47.4846 48.7329 47.2782 48.6691 47.0297 48.6691C46.791 48.6691 46.5905 48.7296 46.4281 48.8506C46.2657 48.9699 46.1431 49.1373 46.0602 49.3527C45.9773 49.5665 45.9359 49.8159 45.9359 50.1009ZM51.2257 52.0896C50.8578 52.0896 50.5404 52.0084 50.2736 51.8459C50.0085 51.6819 49.8038 51.4532 49.6596 51.1599C49.5171 50.8649 49.4458 50.5218 49.4458 50.1307C49.4458 49.7396 49.5171 49.395 49.6596 49.0967C49.8038 48.7967 50.0043 48.563 50.2612 48.3957C50.5197 48.2266 50.8213 48.1421 51.166 48.1421C51.3649 48.1421 51.5613 48.1753 51.7551 48.2415C51.949 48.3078 52.1255 48.4155 52.2846 48.5647C52.4437 48.7122 52.5705 48.9077 52.665 49.1513C52.7594 49.395 52.8066 49.6949 52.8066 50.0512V50.2998H49.8635V49.7927H52.21C52.21 49.5772 52.167 49.385 52.0808 49.216C51.9963 49.0469 51.8753 48.9135 51.7179 48.8158C51.5621 48.718 51.3781 48.6691 51.166 48.6691C50.9324 48.6691 50.7302 48.7271 50.5595 48.8431C50.3904 48.9575 50.2604 49.1066 50.1692 49.2905C50.0781 49.4745 50.0325 49.6717 50.0325 49.8822V50.2202C50.0325 50.5086 50.0822 50.753 50.1816 50.9535C50.2827 51.1524 50.4228 51.304 50.6017 51.4084C50.7807 51.5112 50.9887 51.5626 51.2257 51.5626C51.3798 51.5626 51.519 51.541 51.6433 51.4979C51.7692 51.4532 51.8778 51.3869 51.9689 51.2991C52.0601 51.2096 52.1305 51.0986 52.1802 50.966L52.747 51.1251C52.6873 51.3173 52.5871 51.4863 52.4462 51.6322C52.3053 51.7763 52.1313 51.889 51.9242 51.9702C51.717 52.0498 51.4842 52.0896 51.2257 52.0896ZM55.1408 52.0896C54.8226 52.0896 54.5417 52.0092 54.2981 51.8484C54.0545 51.686 53.8639 51.4573 53.7264 51.1624C53.5888 50.8657 53.5201 50.5152 53.5201 50.1109C53.5201 49.7098 53.5888 49.3618 53.7264 49.0668C53.8639 48.7718 54.0553 48.544 54.3006 48.3832C54.5459 48.2225 54.8292 48.1421 55.1507 48.1421C55.3993 48.1421 55.5957 48.1835 55.7399 48.2664C55.8857 48.3476 55.9967 48.4404 56.073 48.5448C56.1509 48.6476 56.2114 48.7321 56.2544 48.7984H56.3042V46.9191H56.8908V52.01H56.324V51.4234H56.2544C56.2114 51.493 56.15 51.5808 56.0705 51.6869C55.9909 51.7913 55.8774 51.8849 55.7299 51.9678C55.5824 52.049 55.3861 52.0896 55.1408 52.0896ZM55.2203 51.5626C55.4557 51.5626 55.6545 51.5013 55.8169 51.3786C55.9793 51.2543 56.1028 51.0828 56.1873 50.8641C56.2718 50.6437 56.3141 50.3893 56.3141 50.1009C56.3141 49.8159 56.2727 49.5665 56.1898 49.3527C56.1069 49.1373 55.9843 48.9699 55.8219 48.8506C55.6595 48.7296 55.459 48.6691 55.2203 48.6691C54.9718 48.6691 54.7646 48.7329 54.5989 48.8605C54.4348 48.9865 54.3114 49.158 54.2285 49.3751C54.1473 49.5905 54.1067 49.8325 54.1067 50.1009C54.1067 50.3727 54.1481 50.6196 54.231 50.8417C54.3155 51.0621 54.4398 51.2378 54.6039 51.3687C54.7696 51.4979 54.9751 51.5626 55.2203 51.5626Z" fill="#0000FF"/>
<path d="M19.672 25.8672C17.6358 25.8672 16.3809 24.4853 16.3809 22.2246C16.3809 19.9639 17.6554 18.5869 19.6476 18.5869C20.9513 18.5869 21.9816 19.1973 22.4455 20.2275C22.5236 20.3886 22.5627 20.5547 22.5627 20.7011C22.5627 21.038 22.343 21.2529 22.0061 21.2529C21.718 21.2529 21.5276 21.1162 21.3909 20.8086C21.0637 20.0518 20.4241 19.6562 19.6575 19.6562C18.4465 19.6562 17.6702 20.6523 17.6702 22.2246C17.6702 23.7969 18.4417 24.7979 19.6624 24.7979C20.4681 24.7979 21.0882 24.4463 21.4105 23.7041C21.5375 23.416 21.6986 23.2988 21.972 23.2988C22.3187 23.2988 22.5579 23.5283 22.5579 23.8603C22.5579 24.0214 22.5188 24.1679 22.4407 24.3339C21.9915 25.2909 20.9905 25.8671 19.6721 25.8671L19.672 25.8672Z" fill="black"/>
<path d="M26.84 23.8314C26.84 24.4563 26.2835 24.9153 25.5999 24.9153C25.0727 24.9153 24.7162 24.6468 24.7162 24.2221C24.7162 23.7974 25.0531 23.5484 25.6389 23.5093L26.7873 23.4393C26.8158 23.4376 26.8399 23.4602 26.8399 23.4888V23.8316L26.84 23.8314ZM25.9221 20.4675C24.931 20.4675 24.3594 20.8078 24.0671 21.1352C23.8978 21.3249 23.8761 21.7243 24.1083 21.91C24.3797 22.127 24.8343 21.9646 24.9905 21.7726C25.1307 21.6002 25.4455 21.4251 25.8731 21.4195C26.4735 21.4116 26.8398 21.732 26.8398 22.2739V22.4765C26.8398 22.5028 26.8193 22.5245 26.793 22.526L25.4678 22.6015C24.2084 22.6796 23.5005 23.3529 23.5005 24.2707C23.5005 25.1885 24.2304 25.833 25.2288 25.833C25.8606 25.833 26.4765 25.668 26.7829 25.5427C26.8472 25.5164 26.9209 25.5412 26.9571 25.6005C26.9599 25.605 26.9623 25.6088 26.9643 25.6117C27.0457 25.7276 27.1922 25.8476 27.4502 25.8476C27.792 25.8476 28.0409 25.6279 28.0409 25.2374V22.186C28.0409 21.1461 27.2061 20.4675 25.9221 20.4675Z" fill="black"/>
<path d="M31.6924 24.8364C30.9354 24.8364 30.4324 24.1771 30.4275 23.1613C30.4324 22.1553 30.9062 21.4862 31.6924 21.4862C32.4786 21.4862 32.967 22.1406 32.967 23.1613C32.967 24.1869 32.4494 24.8364 31.6924 24.8364ZM34.2123 23.1612C34.2123 21.5056 33.3772 20.485 32.0634 20.485C31.5774 20.485 30.8073 20.729 30.5064 20.831C30.4389 20.8539 30.3642 20.8242 30.3325 20.7602C30.3245 20.7439 30.3162 20.7277 30.3058 20.7129C30.1865 20.5424 30.0108 20.4704 29.8121 20.4704C29.4653 20.4704 29.2212 20.695 29.2212 21.0955V26.9512C29.2212 27.3615 29.4702 27.591 29.8268 27.591C30.1834 27.591 30.4373 27.3615 30.4373 26.9512V25.593C30.4373 25.4903 30.5432 25.4214 30.6368 25.4636C30.9987 25.6265 31.6014 25.8327 32.0831 25.8327C33.3821 25.8327 34.2124 24.812 34.2124 23.1613L34.2123 23.1612Z" fill="black"/>
<path d="M37.1909 25.8525C36.0971 25.8525 35.3305 25.4326 35.0815 24.8125C35.0473 24.7246 35.0327 24.6465 35.0327 24.5732C35.0327 24.2802 35.2475 24.0947 35.5405 24.0947C35.7407 24.0947 35.9116 24.1875 36.0678 24.3926C36.3412 24.7881 36.6537 24.9455 37.2348 24.9455C37.8159 24.9455 38.1772 24.7246 38.1772 24.334C38.1772 24.0215 37.9819 23.8506 37.4497 23.7285L36.6098 23.5381C35.599 23.3086 35.101 22.8106 35.101 22.0586C35.101 21.0967 35.9311 20.4668 37.2104 20.4668C38.2065 20.4668 38.978 20.9551 39.1391 21.5508C39.1537 21.6143 39.1635 21.6729 39.1635 21.7315C39.1635 21.9854 39.0024 22.1661 38.6947 22.1661C38.5189 22.1661 38.3431 22.1026 38.2308 21.9415C37.9915 21.5851 37.6937 21.3739 37.181 21.3739C36.6683 21.3739 36.2826 21.6192 36.2826 21.9903C36.2826 22.293 36.5072 22.4981 37.0443 22.6202L37.8695 22.8009C38.9633 23.0499 39.3978 23.4454 39.3978 24.212C39.3978 25.2032 38.5091 25.8526 37.1907 25.8526H37.1909V25.8525Z" fill="black"/>
</svg>
