<svg width="95" height="54" viewBox="0 0 95 54" fill="none" xmlns="http://www.w3.org/2000/svg">
<path d="M10.3848 37.1229C10.3958 37.2928 10.4128 37.4619 10.4338 37.6298C10.4558 37.7988 10.4838 37.9658 10.5178 38.1324C10.5518 38.2994 10.5928 38.4654 10.6427 38.6284C10.6917 38.7923 10.7497 38.9533 10.8136 39.1126C10.8786 39.2706 10.9506 39.4276 11.0284 39.5793C11.1074 39.7324 11.1934 39.8813 11.2852 40.0273C11.4702 40.3183 11.6822 40.5922 11.9195 40.843C12.1555 41.0939 12.4175 41.322 12.6972 41.5244C12.9772 41.7253 13.2742 41.9003 13.5859 42.0479C14.2039 42.341 14.8789 42.5259 15.5575 42.5849C26.2235 43.0129 36.8965 43.2279 47.5705 43.2279C49.1835 43.2279 50.7965 43.2228 52.4085 43.2133C52.7715 43.1854 53.1345 43.1303 53.4884 43.0488C53.8454 42.9667 54.1944 42.8577 54.535 42.7194C55.214 42.4444 55.855 42.0505 56.384 41.5445C56.649 41.2906 56.885 41.0085 57.0924 40.707C57.2984 40.406 57.4744 40.085 57.62 39.7507C57.766 39.4196 57.882 39.0756 57.969 38.7232C58.055 38.3742 58.112 38.0181 58.136 37.6597L58.1362 7.11543C58.1092 6.71748 58.0352 6.32148 57.9195 5.93989C57.8025 5.55683 57.6445 5.18989 57.4464 4.84113C57.0554 4.15107 56.5104 3.53706 55.8677 3.07917C55.5637 2.86213 55.2377 2.67414 54.8982 2.51618C54.5682 2.36225 54.2272 2.23725 53.876 2.13862C53.202 1.94856 52.499 1.85761 51.8014 1.852C39.9064 1.84492 28.0134 1.86701 16.1197 1.91779C15.7797 1.9228 15.4407 1.95478 15.1054 2.01032C14.7704 2.06733 14.4394 2.14838 14.1185 2.25605C13.6005 2.43305 13.1045 2.68403 12.6568 3.00043C12.4308 3.15937 12.2178 3.33442 12.0209 3.52595C11.8229 3.71894 11.6399 3.92793 11.4736 4.14863C11.3076 4.37165 11.1586 4.60554 11.0277 4.85078C10.8967 5.09577 10.7837 5.3498 10.6894 5.6125C10.5014 6.1385 10.3914 6.6955 10.3701 7.25105L10.3821 36.853" stroke="#16215B" stroke-width="0.283" stroke-miterlimit="10"/>
<path d="M53.0645 39.9727H15.4404C14.2664 39.9728 13.3145 39.0208 13.3145 37.8467V7.23279C13.3144 6.05847 14.2664 5.10645 15.4404 5.10645H18.9844H49.5215H53.0645C54.2394 5.10645 55.1905 6.05847 55.1905 7.23242L55.1904 37.8467C55.1904 39.0208 54.2394 39.9727 53.0645 39.9727Z" stroke="#00FFFF" stroke-width="0.28" stroke-miterlimit="10"/>
<path d="M23.8964 41.7773C33.2854 42.1103 42.7174 41.9924 52.0594 41.4244C52.3585 41.4068 52.6535 41.3648 52.9445 41.2968C53.0175 41.2787 53.0895 41.2598 53.1615 41.2388C53.2335 41.2188 53.3035 41.1968 53.3735 41.1728C53.5145 41.1248 53.6525 41.0698 53.7885 41.0078C53.9225 40.9459 54.0545 40.8758 54.1835 40.7988C54.2475 40.7598 54.3115 40.7198 54.3725 40.6778C54.4355 40.6358 54.4965 40.5928 54.5545 40.5478C54.7905 40.3679 55.0055 40.1628 55.1985 39.9328C55.2465 39.8758 55.2925 39.8168 55.3375 39.7558C55.3825 39.6959 55.4255 39.6348 55.4675 39.5728C55.5505 39.4488 55.6255 39.3209 55.6955 39.1888C55.7655 39.0578 55.8285 38.9228 55.8845 38.7838C55.9135 38.7158 55.9405 38.6448 55.9645 38.5738C55.9905 38.5038 56.0135 38.4318 56.0365 38.3608C56.1235 38.0757 56.1855 37.7868 56.2265 37.4938C56.2665 37.2007 56.2865 36.9058 56.2862 36.6069V33.7859V22.499C56.2862 17.494 56.2862 12.489 56.2871 7.48334C56.2871 7.33136 56.2791 7.17938 56.2651 7.02838C56.2571 6.95245 56.2481 6.87738 56.2361 6.80243C56.2251 6.72736 56.2121 6.65241 56.1961 6.57843C56.1361 6.28241 56.0461 5.99738 55.9241 5.72345C55.8921 5.65436 55.8601 5.58734 55.8261 5.51935C55.7921 5.45245 55.7551 5.38641 55.7171 5.32135C55.6411 5.19135 55.5581 5.06744 55.4691 4.94843C55.2901 4.71137 55.0861 4.49542 54.8561 4.29938C54.7991 4.2514 54.7401 4.20343 54.6811 4.15839C54.6211 4.11237 54.5601 4.0694 54.4991 4.02741C54.3751 3.94342 54.2481 3.86542 54.1171 3.79535C53.9861 3.72345 53.8511 3.65936 53.7141 3.6004C53.6441 3.57135 53.5741 3.5434 53.5041 3.5174C53.4331 3.49042 53.3621 3.46637 53.2911 3.44342C53.0061 3.35138 52.7161 3.28534 52.4221 3.24139C52.1271 3.19745 51.8281 3.17438 51.5263 3.17279C40.0333 3.09784 28.4163 3.09784 16.9257 3.17377C16.6227 3.17584 16.3237 3.19977 16.0287 3.24786C15.8807 3.27179 15.7347 3.30182 15.5877 3.33783C15.5157 3.35687 15.4427 3.37579 15.3707 3.39789C15.2987 3.41888 15.2277 3.44183 15.1567 3.46588C14.8737 3.56281 14.6027 3.68488 14.3437 3.83283C14.2787 3.86981 14.2137 3.90888 14.1517 3.94977C14.0877 3.98981 14.0257 4.0318 13.9647 4.07587C13.8437 4.16278 13.7277 4.2558 13.6157 4.35382C13.5057 4.45184 13.3997 4.55682 13.2997 4.66681C13.2487 4.72186 13.1997 4.77887 13.1527 4.83783C13.1057 4.89581 13.0597 4.95477 13.0157 5.01581C12.8397 5.25678 12.6937 5.51483 12.5737 5.78888C12.5437 5.85785 12.5157 5.92682 12.4897 5.99786C12.4637 6.06781 12.4397 6.13983 12.4167 6.21185C12.3717 6.35577 12.3347 6.50079 12.3057 6.64679C12.2467 6.93988 12.2187 7.23785 12.2198 7.54193C12.2407 17.272 12.2597 27.003 12.2773 36.7328C12.2773 37.0219 12.2983 37.3079 12.3423 37.5899C12.3863 37.8729 12.4523 38.1529 12.5433 38.4279C12.5883 38.5659 12.6393 38.702 12.6973 38.8349C12.7263 38.9009 12.7563 38.9669 12.7883 39.0319C12.8203 39.0969 12.8533 39.1619 12.8883 39.2259C13.0283 39.4799 13.1903 39.7169 13.3763 39.937C13.4683 40.046 13.5673 40.1519 13.6723 40.2529C13.7243 40.3029 13.7783 40.3519 13.8323 40.3989C13.8863 40.4459 13.9423 40.4919 13.9993 40.5359C14.2253 40.7119 14.4673 40.8619 14.7263 40.9879C14.7923 41.0189 14.8573 41.0489 14.9233 41.077C14.9913 41.1049 15.0573 41.1309 15.1263 41.1559C15.2603 41.2049 15.3973 41.2469 15.5363 41.2819C15.8123 41.3519 16.0943 41.3959 16.3828 41.413C20.9278 41.6921 25.4958 41.8651 30.0738 41.9321L23.8964 41.7773Z" stroke="#FF00FF" stroke-width="0.283465" stroke-miterlimit="10" stroke-linecap="round" stroke-linejoin="round"/>
<path d="M17.3968 46.9191V52.01H16.7804V47.5654H16.7505L15.5076 48.3907V47.7643L16.7804 46.9191H17.3968ZM18.9977 52.0498C18.8751 52.0498 18.7698 52.0059 18.682 51.918C18.5942 51.8302 18.5502 51.725 18.5502 51.6023C18.5502 51.4797 18.5942 51.3745 18.682 51.2866C18.7698 51.1988 18.8751 51.1549 18.9977 51.1549C19.1203 51.1549 19.2256 51.1988 19.3134 51.2866C19.4012 51.3745 19.4451 51.4797 19.4451 51.6023C19.4451 51.6835 19.4244 51.7581 19.383 51.8261C19.3432 51.894 19.2894 51.9487 19.2214 51.9901C19.1551 52.0299 19.0806 52.0498 18.9977 52.0498ZM20.5445 52.01L22.8215 47.5057V47.466H20.1965V46.9191H23.4578V47.4958L21.1908 52.01H20.5445ZM25.907 52.0796C25.6153 52.0796 25.3526 52.0216 25.119 51.9056C24.8853 51.7896 24.698 51.6305 24.5572 51.4283C24.4163 51.2262 24.3393 50.9958 24.326 50.7373H24.9226C24.9458 50.9676 25.0502 51.1582 25.2358 51.309C25.4231 51.4582 25.6468 51.5327 25.907 51.5327C26.1158 51.5327 26.3014 51.4838 26.4638 51.3861C26.6278 51.2883 26.7563 51.1541 26.8491 50.9834C26.9435 50.811 26.9908 50.6163 26.9908 50.3992C26.9908 50.1771 26.9419 49.9791 26.8441 49.8051C26.748 49.6294 26.6154 49.4911 26.4464 49.39C26.2773 49.2889 26.0843 49.2375 25.8672 49.2359C25.7114 49.2342 25.5515 49.2582 25.3874 49.308C25.2234 49.356 25.0883 49.4182 24.9822 49.4944L24.4055 49.4248L24.7138 46.9191H27.3587V47.466H25.2308L25.0518 48.9674H25.0817C25.1861 48.8845 25.317 48.8158 25.4744 48.7611C25.6319 48.7064 25.7959 48.679 25.9666 48.679C26.2782 48.679 26.5558 48.7536 26.7994 48.9028C27.0446 49.0503 27.2369 49.2524 27.3761 49.5093C27.5169 49.7662 27.5874 50.0595 27.5874 50.3893C27.5874 50.7141 27.5144 51.0041 27.3686 51.2593C27.2244 51.5129 27.0256 51.7134 26.772 51.8609C26.5185 52.0067 26.2301 52.0796 25.907 52.0796ZM33.4172 48.1918C33.3873 47.9399 33.2664 47.7444 33.0542 47.6052C32.8421 47.466 32.5819 47.3964 32.2737 47.3964C32.0483 47.3964 31.8511 47.4328 31.6821 47.5057C31.5147 47.5787 31.3838 47.6789 31.2893 47.8065C31.1965 47.9341 31.1501 48.0791 31.1501 48.2415C31.1501 48.3774 31.1824 48.4943 31.2471 48.592C31.3134 48.6882 31.3979 48.7685 31.5006 48.8332C31.6034 48.8961 31.7111 48.9483 31.8238 48.9898C31.9365 49.0295 32.04 49.0619 32.1345 49.0867L32.6515 49.2259C32.7841 49.2607 32.9316 49.3088 33.094 49.3701C33.2581 49.4314 33.4147 49.5151 33.5638 49.6212C33.7146 49.7256 33.8389 49.8598 33.9367 50.0239C34.0345 50.1879 34.0834 50.3893 34.0834 50.6279C34.0834 50.903 34.0113 51.1516 33.8671 51.3736C33.7246 51.5957 33.5158 51.7722 33.2407 51.9031C32.9672 52.034 32.635 52.0995 32.2439 52.0995C31.8793 52.0995 31.5636 52.0407 31.2968 51.923C31.0316 51.8053 30.8228 51.6413 30.6704 51.4308C30.5196 51.2204 30.4342 50.9759 30.4143 50.6975H31.0507C31.0673 50.8897 31.1319 51.0488 31.2446 51.1748C31.3589 51.2991 31.5031 51.3919 31.6771 51.4532C31.8528 51.5129 32.0417 51.5427 32.2439 51.5427C32.4792 51.5427 32.6905 51.5046 32.8778 51.4283C33.065 51.3504 33.2133 51.2427 33.3227 51.1052C33.4321 50.966 33.4868 50.8036 33.4868 50.618C33.4868 50.4489 33.4395 50.3114 33.3451 50.2053C33.2506 50.0993 33.1263 50.0131 32.9722 49.9468C32.8181 49.8805 32.6515 49.8225 32.4726 49.7728L31.8461 49.5938C31.4484 49.4795 31.1336 49.3162 30.9015 49.1041C30.6695 48.892 30.5535 48.6144 30.5535 48.2714C30.5535 47.9863 30.6306 47.7378 30.7847 47.5256C30.9405 47.3119 31.1493 47.1461 31.4111 47.0285C31.6746 46.9092 31.9688 46.8495 32.2936 46.8495C32.6217 46.8495 32.9134 46.9083 33.1686 47.026C33.4238 47.142 33.626 47.3011 33.7751 47.5033C33.9259 47.7054 34.0055 47.935 34.0138 48.1918H33.4172ZM36.6779 48.1918V48.689H34.6992V48.1918H36.6779ZM35.2759 47.2771H35.8626V50.9163C35.8626 51.082 35.8866 51.2063 35.9347 51.2891C35.9844 51.3703 36.0473 51.425 36.1236 51.4532C36.2015 51.4797 36.2835 51.493 36.3697 51.493C36.4343 51.493 36.4873 51.4896 36.5288 51.483C36.5702 51.4747 36.6033 51.4681 36.6282 51.4631L36.7475 51.9901C36.7077 52.005 36.6522 52.02 36.581 52.0349C36.5097 52.0514 36.4194 52.0597 36.31 52.0597C36.1443 52.0597 35.9819 52.0241 35.8228 51.9528C35.6654 51.8816 35.5344 51.773 35.43 51.6272C35.3273 51.4814 35.2759 51.2974 35.2759 51.0754V47.2771ZM39.1202 52.0896C38.7523 52.0896 38.435 52.0084 38.1681 51.8459C37.903 51.6819 37.6983 51.4532 37.5542 51.1599C37.4116 50.8649 37.3404 50.5218 37.3404 50.1307C37.3404 49.7396 37.4116 49.395 37.5542 49.0967C37.6983 48.7967 37.8989 48.563 38.1557 48.3957C38.4142 48.2266 38.7158 48.1421 39.0605 48.1421C39.2594 48.1421 39.4558 48.1753 39.6497 48.2415C39.8436 48.3078 40.0201 48.4155 40.1792 48.5647C40.3382 48.7122 40.465 48.9077 40.5595 49.1513C40.6539 49.395 40.7012 49.6949 40.7012 50.0512V50.2998H37.758V49.7927H40.1046C40.1046 49.5772 40.0615 49.385 39.9753 49.216C39.8908 49.0469 39.7698 48.9135 39.6124 48.8158C39.4566 48.718 39.2727 48.6691 39.0605 48.6691C38.8269 48.6691 38.6247 48.7271 38.454 48.8431C38.285 48.9575 38.1549 49.1066 38.0637 49.2905C37.9726 49.4745 37.927 49.6717 37.927 49.8822V50.2202C37.927 50.5086 37.9767 50.753 38.0762 50.9535C38.1773 51.1524 38.3173 51.304 38.4963 51.4084C38.6752 51.5112 38.8832 51.5626 39.1202 51.5626C39.2743 51.5626 39.4135 51.541 39.5378 51.4979C39.6638 51.4532 39.7723 51.3869 39.8635 51.2991C39.9546 51.2096 40.025 51.0986 40.0748 50.966L40.6415 51.1251C40.5819 51.3173 40.4816 51.4863 40.3407 51.6322C40.1999 51.7763 40.0259 51.889 39.8187 51.9702C39.6116 52.0498 39.3787 52.0896 39.1202 52.0896ZM41.5936 53.4418V48.1918H42.1603V48.7984H42.2299C42.273 48.7321 42.3327 48.6476 42.4089 48.5448C42.4868 48.4404 42.5978 48.3476 42.742 48.2664C42.8878 48.1835 43.085 48.1421 43.3336 48.1421C43.6551 48.1421 43.9385 48.2225 44.1838 48.3832C44.429 48.544 44.6204 48.7718 44.758 49.0668C44.8955 49.3618 44.9643 49.7098 44.9643 50.1109C44.9643 50.5152 44.8955 50.8657 44.758 51.1624C44.6204 51.4573 44.4299 51.686 44.1863 51.8484C43.9426 52.0092 43.6618 52.0896 43.3436 52.0896C43.0983 52.0896 42.9019 52.049 42.7544 51.9678C42.6069 51.8849 42.4934 51.7913 42.4139 51.6869C42.3343 51.5808 42.273 51.493 42.2299 51.4234H42.1802V53.4418H41.5936ZM42.1703 50.1009C42.1703 50.3893 42.2125 50.6437 42.2971 50.8641C42.3816 51.0828 42.505 51.2543 42.6674 51.3786C42.8298 51.5013 43.0287 51.5626 43.264 51.5626C43.5093 51.5626 43.714 51.4979 43.878 51.3687C44.0437 51.2378 44.168 51.0621 44.2509 50.8417C44.3354 50.6196 44.3777 50.3727 44.3777 50.1009C44.3777 49.8325 44.3362 49.5905 44.2534 49.3751C44.1722 49.158 44.0487 48.9865 43.883 48.8605C43.7189 48.7329 43.5126 48.6691 43.264 48.6691C43.0254 48.6691 42.8249 48.7296 42.6625 48.8506C42.5001 48.9699 42.3774 49.1373 42.2946 49.3527C42.2117 49.5665 42.1703 49.8159 42.1703 50.1009ZM45.8592 53.4418V48.1918H46.426V48.7984H46.4956C46.5386 48.7321 46.5983 48.6476 46.6745 48.5448C46.7524 48.4404 46.8635 48.3476 47.0076 48.2664C47.1535 48.1835 47.3507 48.1421 47.5993 48.1421C47.9208 48.1421 48.2041 48.2225 48.4494 48.3832C48.6947 48.544 48.8861 48.7718 49.0236 49.0668C49.1612 49.3618 49.2299 49.7098 49.2299 50.1109C49.2299 50.5152 49.1612 50.8657 49.0236 51.1624C48.8861 51.4573 48.6955 51.686 48.4519 51.8484C48.2083 52.0092 47.9274 52.0896 47.6092 52.0896C47.3639 52.0896 47.1676 52.049 47.0201 51.9678C46.8726 51.8849 46.7591 51.7913 46.6795 51.6869C46.6 51.5808 46.5386 51.493 46.4956 51.4234H46.4458V53.4418H45.8592ZM46.4359 50.1009C46.4359 50.3893 46.4782 50.6437 46.5627 50.8641C46.6472 51.0828 46.7707 51.2543 46.9331 51.3786C47.0955 51.5013 47.2943 51.5626 47.5297 51.5626C47.7749 51.5626 47.9796 51.4979 48.1436 51.3687C48.3094 51.2378 48.4337 51.0621 48.5165 50.8417C48.601 50.6196 48.6433 50.3727 48.6433 50.1009C48.6433 49.8325 48.6019 49.5905 48.519 49.3751C48.4378 49.158 48.3143 48.9865 48.1486 48.8605C47.9846 48.7329 47.7782 48.6691 47.5297 48.6691C47.291 48.6691 47.0905 48.7296 46.9281 48.8506C46.7657 48.9699 46.6431 49.1373 46.5602 49.3527C46.4773 49.5665 46.4359 49.8159 46.4359 50.1009ZM51.7257 52.0896C51.3578 52.0896 51.0404 52.0084 50.7736 51.8459C50.5085 51.6819 50.3038 51.4532 50.1596 51.1599C50.0171 50.8649 49.9458 50.5218 49.9458 50.1307C49.9458 49.7396 50.0171 49.395 50.1596 49.0967C50.3038 48.7967 50.5043 48.563 50.7612 48.3957C51.0197 48.2266 51.3213 48.1421 51.666 48.1421C51.8649 48.1421 52.0613 48.1753 52.2551 48.2415C52.449 48.3078 52.6255 48.4155 52.7846 48.5647C52.9437 48.7122 53.0705 48.9077 53.165 49.1513C53.2594 49.395 53.3066 49.6949 53.3066 50.0512V50.2998H50.3635V49.7927H52.71C52.71 49.5772 52.667 49.385 52.5808 49.216C52.4963 49.0469 52.3753 48.9135 52.2179 48.8158C52.0621 48.718 51.8781 48.6691 51.666 48.6691C51.4324 48.6691 51.2302 48.7271 51.0595 48.8431C50.8904 48.9575 50.7604 49.1066 50.6692 49.2905C50.5781 49.4745 50.5325 49.6717 50.5325 49.8822V50.2202C50.5325 50.5086 50.5822 50.753 50.6816 50.9535C50.7827 51.1524 50.9228 51.304 51.1017 51.4084C51.2807 51.5112 51.4887 51.5626 51.7257 51.5626C51.8798 51.5626 52.019 51.541 52.1433 51.4979C52.2692 51.4532 52.3778 51.3869 52.4689 51.2991C52.5601 51.2096 52.6305 51.0986 52.6802 50.966L53.247 51.1251C53.1873 51.3173 53.0871 51.4863 52.9462 51.6322C52.8053 51.7763 52.6313 51.889 52.4242 51.9702C52.217 52.0498 51.9842 52.0896 51.7257 52.0896ZM55.6408 52.0896C55.3226 52.0896 55.0417 52.0092 54.7981 51.8484C54.5545 51.686 54.3639 51.4573 54.2264 51.1624C54.0888 50.8657 54.0201 50.5152 54.0201 50.1109C54.0201 49.7098 54.0888 49.3618 54.2264 49.0668C54.3639 48.7718 54.5553 48.544 54.8006 48.3832C55.0459 48.2225 55.3292 48.1421 55.6507 48.1421C55.8993 48.1421 56.0957 48.1835 56.2399 48.2664C56.3857 48.3476 56.4967 48.4404 56.573 48.5448C56.6509 48.6476 56.7114 48.7321 56.7544 48.7984H56.8042V46.9191H57.3908V52.01H56.824V51.4234H56.7544C56.7114 51.493 56.65 51.5808 56.5705 51.6869C56.4909 51.7913 56.3774 51.8849 56.2299 51.9678C56.0824 52.049 55.8861 52.0896 55.6408 52.0896ZM55.7203 51.5626C55.9557 51.5626 56.1545 51.5013 56.3169 51.3786C56.4793 51.2543 56.6028 51.0828 56.6873 50.8641C56.7718 50.6437 56.8141 50.3893 56.8141 50.1009C56.8141 49.8159 56.7727 49.5665 56.6898 49.3527C56.6069 49.1373 56.4843 48.9699 56.3219 48.8506C56.1595 48.7296 55.959 48.6691 55.7203 48.6691C55.4718 48.6691 55.2646 48.7329 55.0989 48.8605C54.9348 48.9865 54.8114 49.158 54.7285 49.3751C54.6473 49.5905 54.6067 49.8325 54.6067 50.1009C54.6067 50.3727 54.6481 50.6196 54.731 50.8417C54.8155 51.0621 54.9398 51.2378 55.1039 51.3687C55.2696 51.4979 55.4751 51.5626 55.7203 51.5626Z" fill="#0000FF"/>
<path fill-rule="evenodd" clip-rule="evenodd" d="M21.5888 13.994C21.1776 13.5829 20.5109 13.5829 20.0997 13.994L14.7067 19.3869C14.2465 19.8474 14.1089 20.5398 14.3578 21.1414C14.607 21.7428 15.1939 22.1351 15.8451 22.1351H17.0947C17.1721 22.1351 17.2347 22.1978 17.2347 22.2751V25.3644C17.2347 26.2535 17.9555 26.9743 18.8446 26.9743H22.8436C23.7328 26.9743 24.4535 26.2535 24.4535 25.3644V22.2751C24.4535 22.1978 24.5162 22.1351 24.5935 22.1351H25.8431C26.4944 22.1351 27.0814 21.7426 27.3305 21.1412C27.578 20.5436 27.4436 19.8569 26.9911 19.3966L26.9816 19.3868L21.5888 13.994ZM20.9432 15.3567L25.9703 20.3838L25.9773 20.3908C26.0317 20.4453 26.0479 20.527 26.0186 20.598C25.9891 20.6689 25.9199 20.7151 25.8431 20.7151H23.9136C23.4276 20.7151 23.0335 21.1092 23.0335 21.5952V25.3644C23.0335 25.4693 22.9485 25.5543 22.8436 25.5543H18.8446C18.7398 25.5543 18.6547 25.4693 18.6547 25.3644V21.5952C18.6547 21.1088 18.2604 20.7151 17.7746 20.7151H15.8451C15.7684 20.7151 15.6992 20.6691 15.6698 20.5981C15.6403 20.5269 15.6567 20.4452 15.711 20.3908L20.7452 15.3567C20.7999 15.302 20.8886 15.302 20.9432 15.3567ZM17.9404 28.3943C17.5483 28.3943 17.2304 28.7122 17.2304 29.1043C17.2304 29.4964 17.5483 29.8143 17.9404 29.8143H23.7404C24.1326 29.8143 24.4504 29.4964 24.4504 29.1043C24.4504 28.7122 24.1326 28.3943 23.7404 28.3943H17.9404Z" fill="black"/>
<path d="M34.5162 25.8683C32.48 25.8683 31.2251 24.4864 31.2251 22.2257C31.2251 19.965 32.4996 18.588 34.4918 18.588C35.7955 18.588 36.8258 19.1984 37.2897 20.2286C37.3678 20.3897 37.4069 20.5558 37.4069 20.7022C37.4069 21.0391 37.1872 21.254 36.8503 21.254C36.5622 21.254 36.3718 21.1173 36.2351 20.8097C35.9079 20.0529 35.2683 19.6573 34.5017 19.6573C33.2907 19.6573 32.5144 20.6534 32.5144 22.2257C32.5144 23.798 33.2859 24.799 34.5066 24.799C35.3123 24.799 35.9324 24.4474 36.2547 23.7052C36.3817 23.4171 36.5428 23.2999 36.8162 23.2999C37.1629 23.2999 37.4021 23.5294 37.4021 23.8614C37.4021 24.0225 37.363 24.169 37.2849 24.335C36.8357 25.292 35.8347 25.8682 34.5163 25.8682L34.5162 25.8683Z" fill="black"/>
<path d="M40.766 20.4679C39.7748 20.4679 39.2032 20.8082 38.9109 21.1357C38.7416 21.3254 38.7199 21.7249 38.9521 21.9106C39.2235 22.1276 39.6782 21.9652 39.8344 21.7732C39.9746 21.6008 40.2894 21.4257 40.7171 21.4201C41.3176 21.4122 41.6839 21.7326 41.6839 22.2746V22.5341C41.6839 22.5604 41.6634 22.5821 41.6371 22.5836L40.3118 22.6591C39.0522 22.7371 38.3442 23.3536 38.3442 24.2715C38.3442 25.1894 39.0742 25.834 40.0727 25.834C40.797 25.834 41.3338 25.6059 41.574 25.4806C41.644 25.4441 41.7295 25.4722 41.7658 25.5423C41.8338 25.6736 41.9829 25.8486 42.2943 25.8486C42.6361 25.8486 42.8851 25.6289 42.8851 25.2383V22.1866C42.8851 21.1466 42.0502 20.4679 40.766 20.4679ZM41.684 23.8321C41.684 24.4571 41.1274 24.9161 40.4438 24.9161C39.9165 24.9161 39.56 24.6476 39.56 24.2228C39.56 23.798 39.8969 23.549 40.4828 23.5099L41.6313 23.4399C41.6598 23.4382 41.6839 23.4608 41.6839 23.4894V23.8322L41.684 23.8321Z" fill="black"/>
<path d="M46.9082 20.4874C46.2938 20.4874 45.7188 20.7856 45.436 20.9593C45.3558 21.0085 45.2517 20.9677 45.2252 20.8774C45.2077 20.8175 45.1793 20.7519 45.1335 20.6915C45.0164 20.5369 44.8464 20.4728 44.6572 20.4728C44.3105 20.4728 44.0664 20.6974 44.0664 21.0978V26.9524C44.0664 27.3626 44.3154 27.5921 44.6719 27.5921C45.0284 27.5921 45.2823 27.3626 45.2823 26.9524V25.5406C45.2823 25.4327 45.398 25.3643 45.4925 25.4165C45.7837 25.5773 46.3406 25.8342 46.9278 25.8342C48.2266 25.8342 49.0567 24.8137 49.0567 23.1633C49.0567 21.5129 48.2217 20.4875 46.9082 20.4875V20.4874ZM46.5371 24.838C45.7803 24.838 45.2773 24.1788 45.2724 23.1632C45.2773 22.1573 45.7802 21.4884 46.5371 21.4884C47.294 21.4884 47.8115 22.1427 47.8115 23.1632C47.8115 24.1837 47.3232 24.838 46.5371 24.838Z" fill="black"/>
<path d="M52.0352 25.8536C50.9414 25.8536 50.1748 25.4337 49.9258 24.8136C49.8916 24.7257 49.877 24.6476 49.877 24.5743C49.877 24.2813 50.0918 24.0958 50.3848 24.0958C50.585 24.0958 50.7559 24.1886 50.9121 24.3937C51.1855 24.7892 51.498 24.965 52.0791 24.965C52.6602 24.965 53.0215 24.7257 53.0215 24.3351C53.0215 24.0226 52.8262 23.8517 52.294 23.7296L51.4541 23.5392C50.4433 23.3097 49.9453 22.8117 49.9453 22.0597C49.9453 21.0978 50.7754 20.4679 52.0547 20.4679C53.0508 20.4679 53.8223 20.9562 53.9834 21.5519C53.998 21.6154 54.0078 21.674 54.0078 21.7326C54.0078 21.9865 53.8467 22.1672 53.539 22.1672C53.3632 22.1672 53.1874 22.1037 53.0751 21.9426C52.8358 21.5862 52.538 21.3615 52.0253 21.3615C51.5126 21.3615 51.1269 21.6203 51.1269 21.9914C51.1269 22.2941 51.3515 22.4992 51.8886 22.6213L52.7138 22.802C53.8076 23.051 54.2421 23.4465 54.2421 24.2131C54.2421 25.2043 53.3534 25.8537 52.035 25.8537L52.0352 25.8536Z" fill="black"/>
</svg>
