<svg width="96" height="54" viewBox="0 0 96 54" fill="none" xmlns="http://www.w3.org/2000/svg">
<rect x="3.3501" y="1.85001" width="90.8" height="50.3" rx="3" stroke="#16215B" stroke-width="0.28"/>
<path d="M10.3848 37.1229C10.3958 37.2928 10.4128 37.4619 10.4338 37.6298C10.4558 37.7988 10.4838 37.9658 10.5178 38.1324C10.5518 38.2994 10.5928 38.4654 10.6427 38.6284C10.6917 38.7923 10.7497 38.9533 10.8136 39.1126C10.8786 39.2706 10.9506 39.4276 11.0284 39.5793C11.1074 39.7324 11.1934 39.8813 11.2852 40.0273C11.4702 40.3183 11.6822 40.5922 11.9195 40.843C12.1555 41.0939 12.4175 41.322 12.6972 41.5244C12.9772 41.7253 13.2742 41.9003 13.5859 42.0479C14.2039 42.341 14.8789 42.5259 15.5575 42.5849C26.2235 43.0129 36.8965 43.2279 47.5705 43.2279C49.1835 43.2279 50.7965 43.2228 52.4085 43.2133C52.7715 43.1854 53.1345 43.1303 53.4884 43.0488C53.8454 42.9667 54.1944 42.8577 54.535 42.7194C55.214 42.4444 55.855 42.0505 56.384 41.5445C56.649 41.2906 56.885 41.0085 57.0924 40.707C57.2984 40.406 57.4744 40.085 57.62 39.7507C57.766 39.4196 57.882 39.0756 57.969 38.7232C58.055 38.3742 58.112 38.0181 58.136 37.6597L58.1362 7.11543C58.1092 6.71748 58.0352 6.32148 57.9195 5.93989C57.8025 5.55683 57.6445 5.18989 57.4464 4.84113C57.0554 4.15107 56.5104 3.53706 55.8677 3.07917C55.5637 2.86213 55.2377 2.67414 54.8982 2.51618C54.5682 2.36225 54.2272 2.23725 53.876 2.13862C53.202 1.94856 52.499 1.85761 51.8014 1.852C39.9064 1.84492 28.0134 1.86701 16.1197 1.91779C15.7797 1.9228 15.4407 1.95478 15.1054 2.01032C14.7704 2.06733 14.4394 2.14838 14.1185 2.25605C13.6005 2.43305 13.1045 2.68403 12.6568 3.00043C12.4308 3.15937 12.2178 3.33442 12.0209 3.52595C11.8229 3.71894 11.6399 3.92793 11.4736 4.14863C11.3076 4.37165 11.1586 4.60554 11.0277 4.85078C10.8967 5.09577 10.7837 5.3498 10.6894 5.6125C10.5014 6.1385 10.3914 6.6955 10.3701 7.25105L10.3821 36.853" stroke="#16215B" stroke-width="0.283" stroke-miterlimit="10"/>
<path d="M53.0645 39.9726H15.4404C14.2664 39.9727 13.3145 39.0207 13.3145 37.8466V7.23273C13.3144 6.05841 14.2664 5.10638 15.4404 5.10638H18.9844H49.5215H53.0645C54.2394 5.10638 55.1905 6.05841 55.1905 7.23236L55.1904 37.8466C55.1904 39.0207 54.2394 39.9726 53.0645 39.9726Z" stroke="#00FFFF" stroke-width="0.28" stroke-miterlimit="10"/>
<path d="M23.8964 41.7773C33.2854 42.1103 42.7174 41.9924 52.0594 41.4244C52.3585 41.4068 52.6535 41.3648 52.9445 41.2968C53.0175 41.2787 53.0895 41.2598 53.1615 41.2388C53.2335 41.2188 53.3035 41.1968 53.3735 41.1728C53.5145 41.1248 53.6525 41.0698 53.7885 41.0078C53.9225 40.9459 54.0545 40.8758 54.1835 40.7988C54.2475 40.7598 54.3115 40.7198 54.3725 40.6778C54.4355 40.6358 54.4965 40.5928 54.5545 40.5478C54.7905 40.3679 55.0055 40.1628 55.1985 39.9328C55.2465 39.8758 55.2925 39.8168 55.3375 39.7558C55.3825 39.6959 55.4255 39.6348 55.4675 39.5728C55.5505 39.4488 55.6255 39.3209 55.6955 39.1888C55.7655 39.0578 55.8285 38.9228 55.8845 38.7838C55.9135 38.7158 55.9405 38.6448 55.9645 38.5738C55.9905 38.5038 56.0135 38.4318 56.0365 38.3608C56.1235 38.0757 56.1855 37.7868 56.2265 37.4938C56.2665 37.2007 56.2865 36.9058 56.2862 36.6069V33.7859V22.499C56.2862 17.494 56.2862 12.489 56.2871 7.48334C56.2871 7.33136 56.2791 7.17938 56.2651 7.02838C56.2571 6.95245 56.2481 6.87738 56.2361 6.80243C56.2251 6.72736 56.2121 6.65241 56.1961 6.57843C56.1361 6.28241 56.0461 5.99738 55.9241 5.72345C55.8921 5.65436 55.8601 5.58734 55.8261 5.51935C55.7921 5.45245 55.7551 5.38641 55.7171 5.32135C55.6411 5.19135 55.5581 5.06744 55.4691 4.94843C55.2901 4.71137 55.0861 4.49542 54.8561 4.29938C54.7991 4.2514 54.7401 4.20343 54.6811 4.15839C54.6211 4.11237 54.5601 4.0694 54.4991 4.02741C54.3751 3.94342 54.2481 3.86542 54.1171 3.79535C53.9861 3.72345 53.8511 3.65936 53.7141 3.6004C53.6441 3.57135 53.5741 3.5434 53.5041 3.5174C53.4331 3.49042 53.3621 3.46637 53.2911 3.44342C53.0061 3.35138 52.7161 3.28534 52.4221 3.24139C52.1271 3.19745 51.8281 3.17438 51.5263 3.17279C40.0333 3.09784 28.4163 3.09784 16.9257 3.17377C16.6227 3.17584 16.3237 3.19977 16.0287 3.24786C15.8807 3.27179 15.7347 3.30182 15.5877 3.33783C15.5157 3.35687 15.4427 3.37579 15.3707 3.39789C15.2987 3.41888 15.2277 3.44183 15.1567 3.46588C14.8737 3.56281 14.6027 3.68488 14.3437 3.83283C14.2787 3.86981 14.2137 3.90888 14.1517 3.94977C14.0877 3.98981 14.0257 4.0318 13.9647 4.07587C13.8437 4.16278 13.7277 4.2558 13.6157 4.35382C13.5057 4.45184 13.3997 4.55682 13.2997 4.66681C13.2487 4.72186 13.1997 4.77887 13.1527 4.83783C13.1057 4.89581 13.0597 4.95477 13.0157 5.01581C12.8397 5.25678 12.6937 5.51483 12.5737 5.78888C12.5437 5.85785 12.5157 5.92682 12.4897 5.99786C12.4637 6.06781 12.4397 6.13983 12.4167 6.21185C12.3717 6.35577 12.3347 6.50079 12.3057 6.64679C12.2467 6.93988 12.2187 7.23785 12.2198 7.54193C12.2407 17.272 12.2597 27.003 12.2773 36.7328C12.2773 37.0219 12.2983 37.3079 12.3423 37.5899C12.3863 37.8729 12.4523 38.1529 12.5433 38.4279C12.5883 38.5659 12.6393 38.702 12.6973 38.8349C12.7263 38.9009 12.7563 38.9669 12.7883 39.0319C12.8203 39.0969 12.8533 39.1619 12.8883 39.2259C13.0283 39.4799 13.1903 39.7169 13.3763 39.937C13.4683 40.046 13.5673 40.1519 13.6723 40.2529C13.7243 40.3029 13.7783 40.3519 13.8323 40.3989C13.8863 40.4459 13.9423 40.4919 13.9993 40.5359C14.2253 40.7119 14.4673 40.8619 14.7263 40.9879C14.7923 41.0189 14.8573 41.0489 14.9233 41.077C14.9913 41.1049 15.0573 41.1309 15.1263 41.1559C15.2603 41.2049 15.3973 41.2469 15.5363 41.2819C15.8123 41.3519 16.0943 41.3959 16.3828 41.413C20.9278 41.6921 25.4958 41.8651 30.0738 41.9321L23.8964 41.7773Z" stroke="#FF00FF" stroke-width="0.283465" stroke-miterlimit="10" stroke-linecap="round" stroke-linejoin="round"/>
<path d="M51.3871 44.9191V50.01H50.7706V45.5654H50.7408L49.4979 46.3907V45.7643L50.7706 44.9191H51.3871ZM52.9879 50.0498C52.8653 50.0498 52.7601 50.0059 52.6722 49.918C52.5844 49.8302 52.5405 49.725 52.5405 49.6023C52.5405 49.4797 52.5844 49.3745 52.6722 49.2866C52.7601 49.1988 52.8653 49.1549 52.9879 49.1549C53.1106 49.1549 53.2158 49.1988 53.3036 49.2866C53.3915 49.3745 53.4354 49.4797 53.4354 49.6023C53.4354 49.6835 53.4147 49.7581 53.3732 49.8261C53.3335 49.894 53.2796 49.9487 53.2116 49.9901C53.1454 50.0299 53.0708 50.0498 52.9879 50.0498ZM54.5347 50.01L56.8117 45.5057V45.466H54.1867V44.9191H57.4481V45.4958L55.181 50.01H54.5347ZM59.8972 50.0796C59.6055 50.0796 59.3429 50.0216 59.1092 49.9056C58.8755 49.7896 58.6883 49.6305 58.5474 49.4283C58.4065 49.2262 58.3295 48.9958 58.3162 48.7373H58.9128C58.936 48.9676 59.0404 49.1582 59.226 49.309C59.4133 49.4582 59.637 49.5327 59.8972 49.5327C60.106 49.5327 60.2916 49.4838 60.454 49.3861C60.6181 49.2883 60.7465 49.1541 60.8393 48.9834C60.9338 48.811 60.981 48.6163 60.981 48.3992C60.981 48.1771 60.9321 47.9791 60.8343 47.8051C60.7382 47.6294 60.6056 47.4911 60.4366 47.39C60.2676 47.2889 60.0745 47.2375 59.8574 47.2359C59.7016 47.2342 59.5417 47.2582 59.3777 47.308C59.2136 47.356 59.0785 47.4182 58.9725 47.4944L58.3958 47.4248L58.704 44.9191H61.3489V45.466H59.2211L59.0421 46.9674H59.0719C59.1763 46.8845 59.3072 46.8158 59.4647 46.7611C59.6221 46.7064 59.7862 46.679 59.9569 46.679C60.2684 46.679 60.546 46.7536 60.7896 46.9028C61.0349 47.0503 61.2271 47.2524 61.3663 47.5093C61.5072 47.7662 61.5776 48.0595 61.5776 48.3893C61.5776 48.7141 61.5047 49.0041 61.3588 49.2593C61.2147 49.5129 61.0158 49.7134 60.7623 49.8609C60.5087 50.0067 60.2203 50.0796 59.8972 50.0796ZM67.4074 46.1918C67.3776 45.9399 67.2566 45.7444 67.0445 45.6052C66.8324 45.466 66.5722 45.3964 66.2639 45.3964C66.0386 45.3964 65.8414 45.4328 65.6723 45.5057C65.5049 45.5787 65.374 45.6789 65.2796 45.8065C65.1868 45.9341 65.1404 46.0791 65.1404 46.2415C65.1404 46.3774 65.1727 46.4943 65.2373 46.592C65.3036 46.6882 65.3881 46.7685 65.4909 46.8332C65.5936 46.8961 65.7013 46.9483 65.814 46.9898C65.9267 47.0295 66.0303 47.0619 66.1247 47.0867L66.6418 47.2259C66.7744 47.2607 66.9218 47.3088 67.0843 47.3701C67.2483 47.4314 67.4049 47.5151 67.5541 47.6212C67.7049 47.7256 67.8292 47.8598 67.9269 48.0239C68.0247 48.1879 68.0736 48.3893 68.0736 48.6279C68.0736 48.903 68.0015 49.1516 67.8573 49.3736C67.7148 49.5957 67.506 49.7722 67.2309 49.9031C66.9575 50.034 66.6252 50.0995 66.2341 50.0995C65.8695 50.0995 65.5538 50.0407 65.287 49.923C65.0219 49.8053 64.8131 49.6413 64.6606 49.4308C64.5098 49.2204 64.4244 48.9759 64.4046 48.6975H65.0409C65.0575 48.8897 65.1221 49.0488 65.2348 49.1748C65.3492 49.2991 65.4933 49.3919 65.6673 49.4532C65.843 49.5129 66.0319 49.5427 66.2341 49.5427C66.4694 49.5427 66.6807 49.5046 66.868 49.4283C67.0552 49.3504 67.2036 49.2427 67.3129 49.1052C67.4223 48.966 67.477 48.8036 67.477 48.618C67.477 48.4489 67.4298 48.3114 67.3353 48.2053C67.2409 48.0993 67.1166 48.0131 66.9624 47.9468C66.8083 47.8805 66.6418 47.8225 66.4628 47.7728L65.8364 47.5938C65.4387 47.4795 65.1238 47.3162 64.8918 47.1041C64.6598 46.892 64.5438 46.6144 64.5438 46.2714C64.5438 45.9863 64.6208 45.7378 64.7749 45.5256C64.9307 45.3119 65.1395 45.1461 65.4014 45.0285C65.6649 44.9092 65.959 44.8495 66.2838 44.8495C66.6119 44.8495 66.9036 44.9083 67.1588 45.026C67.414 45.142 67.6162 45.3011 67.7654 45.5033C67.9162 45.7054 67.9957 45.935 68.004 46.1918H67.4074ZM70.6681 46.1918V46.689H68.6895V46.1918H70.6681ZM69.2662 45.2771H69.8528V48.9163C69.8528 49.082 69.8768 49.2063 69.9249 49.2891C69.9746 49.3703 70.0376 49.425 70.1138 49.4532C70.1917 49.4797 70.2737 49.493 70.3599 49.493C70.4245 49.493 70.4776 49.4896 70.519 49.483C70.5604 49.4747 70.5936 49.4681 70.6184 49.4631L70.7377 49.9901C70.698 50.005 70.6425 50.02 70.5712 50.0349C70.4999 50.0514 70.4096 50.0597 70.3002 50.0597C70.1345 50.0597 69.9721 50.0241 69.813 49.9528C69.6556 49.8816 69.5247 49.773 69.4203 49.6272C69.3175 49.4814 69.2662 49.2974 69.2662 49.0754V45.2771ZM73.1104 50.0896C72.7425 50.0896 72.4252 50.0084 72.1584 49.8459C71.8932 49.6819 71.6886 49.4532 71.5444 49.1599C71.4019 48.8649 71.3306 48.5218 71.3306 48.1307C71.3306 47.7396 71.4019 47.395 71.5444 47.0967C71.6886 46.7967 71.8891 46.563 72.146 46.3957C72.4045 46.2266 72.7061 46.1421 73.0508 46.1421C73.2496 46.1421 73.446 46.1753 73.6399 46.2415C73.8338 46.3078 74.0103 46.4155 74.1694 46.5647C74.3285 46.7122 74.4553 46.9077 74.5497 47.1513C74.6442 47.395 74.6914 47.6949 74.6914 48.0512V48.2998H71.7482V47.7927H74.0948C74.0948 47.5772 74.0517 47.385 73.9656 47.216C73.881 47.0469 73.7601 46.9135 73.6026 46.8158C73.4469 46.718 73.2629 46.6691 73.0508 46.6691C72.8171 46.6691 72.6149 46.7271 72.4442 46.8431C72.2752 46.9575 72.1451 47.1066 72.054 47.2905C71.9628 47.4745 71.9173 47.6717 71.9173 47.8822V48.2202C71.9173 48.5086 71.967 48.753 72.0664 48.9535C72.1675 49.1524 72.3075 49.304 72.4865 49.4084C72.6655 49.5112 72.8735 49.5626 73.1104 49.5626C73.2646 49.5626 73.4038 49.541 73.5281 49.4979C73.654 49.4532 73.7625 49.3869 73.8537 49.2991C73.9448 49.2096 74.0153 49.0986 74.065 48.966L74.6317 49.1251C74.5721 49.3173 74.4718 49.4863 74.331 49.6322C74.1901 49.7763 74.0161 49.889 73.8089 49.9702C73.6018 50.0498 73.369 50.0896 73.1104 50.0896ZM75.5838 51.4418V46.1918H76.1506V46.7984H76.2202C76.2633 46.7321 76.3229 46.6476 76.3991 46.5448C76.477 46.4404 76.5881 46.3476 76.7322 46.2664C76.8781 46.1835 77.0753 46.1421 77.3239 46.1421C77.6454 46.1421 77.9287 46.2225 78.174 46.3832C78.4193 46.544 78.6107 46.7718 78.7482 47.0668C78.8858 47.3618 78.9545 47.7098 78.9545 48.1109C78.9545 48.5152 78.8858 48.8657 78.7482 49.1624C78.6107 49.4573 78.4201 49.686 78.1765 49.8484C77.9329 50.0092 77.652 50.0896 77.3338 50.0896C77.0885 50.0896 76.8922 50.049 76.7447 49.9678C76.5972 49.8849 76.4837 49.7913 76.4041 49.6869C76.3246 49.5808 76.2633 49.493 76.2202 49.4234H76.1705V51.4418H75.5838ZM76.1605 48.1009C76.1605 48.3893 76.2028 48.6437 76.2873 48.8641C76.3718 49.0828 76.4953 49.2543 76.6577 49.3786C76.8201 49.5013 77.0189 49.5626 77.2543 49.5626C77.4995 49.5626 77.7042 49.4979 77.8683 49.3687C78.034 49.2378 78.1583 49.0621 78.2411 48.8417C78.3256 48.6196 78.3679 48.3727 78.3679 48.1009C78.3679 47.8325 78.3265 47.5905 78.2436 47.3751C78.1624 47.158 78.0389 46.9865 77.8732 46.8605C77.7092 46.7329 77.5028 46.6691 77.2543 46.6691C77.0156 46.6691 76.8151 46.7296 76.6527 46.8506C76.4903 46.9699 76.3677 47.1373 76.2848 47.3527C76.2019 47.5665 76.1605 47.8159 76.1605 48.1009ZM79.8494 51.4418V46.1918H80.4162V46.7984H80.4858C80.5289 46.7321 80.5885 46.6476 80.6648 46.5448C80.7427 46.4404 80.8537 46.3476 80.9979 46.2664C81.1437 46.1835 81.3409 46.1421 81.5895 46.1421C81.911 46.1421 82.1944 46.2225 82.4396 46.3832C82.6849 46.544 82.8763 46.7718 83.0138 47.0668C83.1514 47.3618 83.2202 47.7098 83.2202 48.1109C83.2202 48.5152 83.1514 48.8657 83.0138 49.1624C82.8763 49.4573 82.6857 49.686 82.4421 49.8484C82.1985 50.0092 81.9176 50.0896 81.5994 50.0896C81.3542 50.0896 81.1578 50.049 81.0103 49.9678C80.8628 49.8849 80.7493 49.7913 80.6697 49.6869C80.5902 49.5808 80.5289 49.493 80.4858 49.4234H80.4361V51.4418H79.8494ZM80.4261 48.1009C80.4261 48.3893 80.4684 48.6437 80.5529 48.8641C80.6374 49.0828 80.7609 49.2543 80.9233 49.3786C81.0857 49.5013 81.2846 49.5626 81.5199 49.5626C81.7652 49.5626 81.9698 49.4979 82.1339 49.3687C82.2996 49.2378 82.4239 49.0621 82.5067 48.8417C82.5913 48.6196 82.6335 48.3727 82.6335 48.1009C82.6335 47.8325 82.5921 47.5905 82.5092 47.3751C82.428 47.158 82.3046 46.9865 82.1388 46.8605C81.9748 46.7329 81.7685 46.6691 81.5199 46.6691C81.2813 46.6691 81.0807 46.7296 80.9183 46.8506C80.7559 46.9699 80.6333 47.1373 80.5504 47.3527C80.4676 47.5665 80.4261 47.8159 80.4261 48.1009ZM85.7159 50.0896C85.348 50.0896 85.0307 50.0084 84.7638 49.8459C84.4987 49.6819 84.294 49.4532 84.1499 49.1599C84.0073 48.8649 83.9361 48.5218 83.9361 48.1307C83.9361 47.7396 84.0073 47.395 84.1499 47.0967C84.294 46.7967 84.4946 46.563 84.7514 46.3957C85.0099 46.2266 85.3116 46.1421 85.6562 46.1421C85.8551 46.1421 86.0515 46.1753 86.2454 46.2415C86.4393 46.3078 86.6158 46.4155 86.7749 46.5647C86.9339 46.7122 87.0607 46.9077 87.1552 47.1513C87.2496 47.395 87.2969 47.6949 87.2969 48.0512V48.2998H84.3537V47.7927H86.7003C86.7003 47.5772 86.6572 47.385 86.571 47.216C86.4865 47.0469 86.3655 46.9135 86.2081 46.8158C86.0523 46.718 85.8684 46.6691 85.6562 46.6691C85.4226 46.6691 85.2204 46.7271 85.0497 46.8431C84.8807 46.9575 84.7506 47.1066 84.6594 47.2905C84.5683 47.4745 84.5227 47.6717 84.5227 47.8822V48.2202C84.5227 48.5086 84.5724 48.753 84.6719 48.9535C84.773 49.1524 84.913 49.304 85.092 49.4084C85.271 49.5112 85.4789 49.5626 85.7159 49.5626C85.87 49.5626 86.0092 49.541 86.1335 49.4979C86.2595 49.4532 86.368 49.3869 86.4592 49.2991C86.5503 49.2096 86.6207 49.0986 86.6705 48.966L87.2372 49.1251C87.1776 49.3173 87.0773 49.4863 86.9364 49.6322C86.7956 49.7763 86.6216 49.889 86.4144 49.9702C86.2073 50.0498 85.9744 50.0896 85.7159 50.0896ZM89.631 50.0896C89.3129 50.0896 89.032 50.0092 88.7884 49.8484C88.5447 49.686 88.3542 49.4573 88.2166 49.1624C88.0791 48.8657 88.0103 48.5152 88.0103 48.1109C88.0103 47.7098 88.0791 47.3618 88.2166 47.0668C88.3542 46.7718 88.5456 46.544 88.7908 46.3832C89.0361 46.2225 89.3195 46.1421 89.641 46.1421C89.8896 46.1421 90.0859 46.1835 90.2301 46.2664C90.3759 46.3476 90.487 46.4404 90.5632 46.5448C90.6411 46.6476 90.7016 46.7321 90.7447 46.7984H90.7944V44.9191H91.381V50.01H90.8143V49.4234H90.7447C90.7016 49.493 90.6403 49.5808 90.5607 49.6869C90.4812 49.7913 90.3677 49.8849 90.2202 49.9678C90.0727 50.049 89.8763 50.0896 89.631 50.0896ZM89.7106 49.5626C89.9459 49.5626 90.1448 49.5013 90.3072 49.3786C90.4696 49.2543 90.593 49.0828 90.6776 48.8641C90.7621 48.6437 90.8043 48.3893 90.8043 48.1009C90.8043 47.8159 90.7629 47.5665 90.68 47.3527C90.5972 47.1373 90.4746 46.9699 90.3121 46.8506C90.1497 46.7296 89.9492 46.6691 89.7106 46.6691C89.462 46.6691 89.2549 46.7329 89.0891 46.8605C88.9251 46.9865 88.8016 47.158 88.7188 47.3751C88.6375 47.5905 88.5969 47.8325 88.5969 48.1009C88.5969 48.3727 88.6384 48.6196 88.7212 48.8417C88.8058 49.0621 88.93 49.2378 89.0941 49.3687C89.2598 49.4979 89.4653 49.5626 89.7106 49.5626Z" fill="#0000FF"/>
<path d="M20.172 25.8672C18.1358 25.8672 16.8809 24.4853 16.8809 22.2246C16.8809 19.9639 18.1554 18.5869 20.1476 18.5869C21.4513 18.5869 22.4816 19.1973 22.9455 20.2275C23.0236 20.3886 23.0627 20.5547 23.0627 20.7011C23.0627 21.038 22.843 21.2529 22.5061 21.2529C22.218 21.2529 22.0276 21.1162 21.8909 20.8086C21.5637 20.0518 20.9241 19.6562 20.1575 19.6562C18.9465 19.6562 18.1702 20.6523 18.1702 22.2246C18.1702 23.7969 18.9417 24.7979 20.1624 24.7979C20.9681 24.7979 21.5882 24.4463 21.9105 23.7041C22.0375 23.416 22.1986 23.2988 22.472 23.2988C22.8187 23.2988 23.0579 23.5283 23.0579 23.8603C23.0579 24.0214 23.0188 24.1679 22.9407 24.3339C22.4915 25.2909 21.4905 25.8671 20.1721 25.8671L20.172 25.8672Z" fill="black"/>
<path d="M27.34 23.8314C27.34 24.4563 26.7835 24.9153 26.0999 24.9153C25.5727 24.9153 25.2162 24.6468 25.2162 24.2221C25.2162 23.7974 25.5531 23.5484 26.1389 23.5093L27.2873 23.4393C27.3158 23.4376 27.3399 23.4602 27.3399 23.4888V23.8316L27.34 23.8314ZM26.4221 20.4675C25.431 20.4675 24.8594 20.8078 24.5671 21.1352C24.3978 21.3249 24.3761 21.7243 24.6083 21.91C24.8797 22.127 25.3343 21.9646 25.4905 21.7726C25.6307 21.6002 25.9455 21.4251 26.3731 21.4195C26.9735 21.4116 27.3398 21.732 27.3398 22.2739V22.4765C27.3398 22.5028 27.3193 22.5245 27.293 22.526L25.9678 22.6015C24.7084 22.6796 24.0005 23.3529 24.0005 24.2707C24.0005 25.1885 24.7304 25.833 25.7288 25.833C26.3606 25.833 26.9765 25.668 27.2829 25.5427C27.3472 25.5164 27.4209 25.5412 27.4571 25.6005C27.4599 25.605 27.4623 25.6088 27.4643 25.6117C27.5457 25.7276 27.6922 25.8476 27.9502 25.8476C28.292 25.8476 28.5409 25.6279 28.5409 25.2374V22.186C28.5409 21.1461 27.7061 20.4675 26.4221 20.4675Z" fill="black"/>
<path d="M32.1924 24.8364C31.4354 24.8364 30.9324 24.1771 30.9275 23.1613C30.9324 22.1553 31.4062 21.4862 32.1924 21.4862C32.9786 21.4862 33.467 22.1406 33.467 23.1613C33.467 24.1869 32.9494 24.8364 32.1924 24.8364ZM34.7123 23.1612C34.7123 21.5056 33.8772 20.485 32.5634 20.485C32.0774 20.485 31.3073 20.729 31.0064 20.831C30.9389 20.8539 30.8642 20.8242 30.8325 20.7602C30.8245 20.7439 30.8162 20.7277 30.8058 20.7129C30.6865 20.5424 30.5108 20.4704 30.3121 20.4704C29.9653 20.4704 29.7212 20.695 29.7212 21.0955V26.9512C29.7212 27.3615 29.9702 27.591 30.3268 27.591C30.6834 27.591 30.9373 27.3615 30.9373 26.9512V25.593C30.9373 25.4903 31.0432 25.4214 31.1368 25.4636C31.4987 25.6265 32.1014 25.8327 32.5831 25.8327C33.8821 25.8327 34.7124 24.812 34.7124 23.1613L34.7123 23.1612Z" fill="black"/>
<path d="M37.6909 25.8525C36.5971 25.8525 35.8305 25.4326 35.5815 24.8125C35.5473 24.7246 35.5327 24.6465 35.5327 24.5732C35.5327 24.2802 35.7475 24.0947 36.0405 24.0947C36.2407 24.0947 36.4116 24.1875 36.5678 24.3926C36.8412 24.7881 37.1537 24.9455 37.7348 24.9455C38.3159 24.9455 38.6772 24.7246 38.6772 24.334C38.6772 24.0215 38.4819 23.8506 37.9497 23.7285L37.1098 23.5381C36.099 23.3086 35.601 22.8106 35.601 22.0586C35.601 21.0967 36.4311 20.4668 37.7104 20.4668C38.7065 20.4668 39.478 20.9551 39.6391 21.5508C39.6537 21.6143 39.6635 21.6729 39.6635 21.7315C39.6635 21.9854 39.5024 22.1661 39.1947 22.1661C39.0189 22.1661 38.8431 22.1026 38.7308 21.9415C38.4915 21.5851 38.1937 21.3739 37.681 21.3739C37.1683 21.3739 36.7826 21.6192 36.7826 21.9903C36.7826 22.293 37.0072 22.4981 37.5443 22.6202L38.3695 22.8009C39.4633 23.0499 39.8978 23.4454 39.8978 24.212C39.8978 25.2032 39.0091 25.8526 37.6907 25.8526H37.6909V25.8525Z" fill="black"/>
</svg>
