<svg width="95" height="55" viewBox="0 0 95 55" fill="none" xmlns="http://www.w3.org/2000/svg">
<path d="M83.5363 40.0264C83.3513 40.3174 83.1393 40.5923 82.9034 40.8433C82.6669 41.095 82.4059 41.324 82.127 41.5259C81.8473 41.7273 81.5493 41.9023 81.2373 42.0503C80.6186 42.342 79.9436 42.526 79.2646 42.585C68.5999 43.0131 57.9269 43.2271 47.252 43.2271C36.5782 43.2271 25.9052 43.0131 15.2403 42.585C14.9005 42.5553 14.5625 42.4944 14.2335 42.4043C13.9016 42.314 13.5796 42.194 13.2686 42.0479C12.957 41.9005 12.658 41.7264 12.379 41.5244C12.0985 41.3229 11.8376 41.0948 11.6006 40.8428C11.3648 40.5919 11.1538 40.318 10.9688 40.0259C10.785 39.7349 10.6291 39.428 10.5001 39.1099C10.3712 38.7935 10.2702 38.4655 10.1963 38.1313C10.1245 37.7996 10.0795 37.4617 10.0635 37.1226L10.0518 7.25146C10.0794 6.52539 10.2594 5.79639 10.5674 5.1333C10.7211 4.80237 10.9061 4.4884 11.1211 4.19531C11.3347 3.90369 11.5777 3.63269 11.8477 3.39062C12.3813 2.91138 13.0154 2.54541 13.6934 2.29834C14.3688 2.05151 15.0868 1.92554 15.8008 1.91748C36.7681 1.82751 57.7361 1.82751 78.7041 1.91748C78.9579 1.92175 79.2119 1.94067 79.4639 1.97266C79.715 2.00488 79.965 2.0509 80.212 2.11182C80.3762 2.15198 80.5392 2.19995 80.6992 2.25391C81.217 2.43115 81.715 2.68115 82.1631 2.99707C82.3888 3.15649 82.6017 3.33252 82.7998 3.52344C82.9985 3.71606 83.1825 3.92407 83.3495 4.14502C83.6837 4.58838 83.9497 5.08447 84.1367 5.60938C84.3241 6.13757 84.4321 6.69458 84.4521 7.25146L84.4414 37.1226C84.4099 37.7999 84.2628 38.4799 84.0071 39.1105C83.8781 39.4294 83.7212 39.7365 83.5363 40.0264Z" stroke="#16215B" stroke-width="0.283" stroke-miterlimit="10"/>
<path d="M16.9952 4.0835H13.4512M13.4512 4.0835C13.4508 4.0835 81.0518 4.0835 81.0518 4.0835C82.2258 4.0835 83.1778 5.03552 83.1778 6.20996C83.1778 6.20996 83.1778 38.5469 83.1778 38.5469C83.1778 39.7209 82.2258 40.6729 81.0522 40.6729C81.0522 40.6729 13.4512 40.6729 13.4512 40.673C12.2772 40.673 11.3252 39.7209 11.3252 38.5465C11.3252 38.5465 11.3252 6.20947 11.3252 6.20959C11.3252 5.03552 12.2772 4.0835 13.4512 4.0835Z" stroke="#00FFFF" stroke-width="0.28" stroke-miterlimit="10"/>
<path d="M83.7106 7.59483C83.6836 17.2888 83.6596 26.9818 83.6386 36.6758C83.6369 36.9681 83.6139 37.2572 83.5689 37.5422C83.5229 37.8271 83.4549 38.1072 83.3599 38.3822C83.3369 38.4512 83.3119 38.5201 83.2839 38.5881C83.2579 38.6562 83.2289 38.7242 83.1979 38.7911C83.1379 38.9252 83.0709 39.0552 82.9989 39.1811C82.9259 39.3071 82.8479 39.4292 82.7619 39.5482C82.6769 39.6661 82.5849 39.7812 82.4869 39.8912C82.2899 40.1112 82.0739 40.3071 81.8389 40.4781C81.7219 40.5642 81.5989 40.6432 81.4719 40.7171C81.4079 40.7541 81.3429 40.7892 81.2769 40.8232C81.2119 40.8562 81.1459 40.8882 81.0789 40.9172C80.8129 41.0361 80.5349 41.1272 80.2499 41.1921C80.1789 41.2081 80.1059 41.2231 80.0339 41.2362C79.9619 41.2482 79.8889 41.2601 79.8159 41.2691C79.6709 41.2882 79.5239 41.3011 79.3769 41.3071C57.997 42.1966 36.502 42.1966 15.122 41.3066C14.9742 41.3013 14.8292 41.2883 14.6832 41.2693C14.6112 41.2602 14.5392 41.2483 14.4672 41.2363C14.3942 41.2233 14.3222 41.2082 14.2512 41.1922C13.9662 41.1283 13.6902 41.0372 13.4242 40.9193C13.3572 40.8893 13.2912 40.8583 13.2252 40.8243C13.1602 40.7912 13.0952 40.7562 13.0322 40.7192C12.9052 40.6462 12.7832 40.5672 12.6662 40.4813C12.4302 40.3103 12.2152 40.1163 12.0182 39.8962C11.9692 39.8423 11.9222 39.7853 11.8762 39.7283C11.8302 39.6722 11.7862 39.6142 11.7432 39.5543C11.6582 39.4363 11.5792 39.3143 11.5072 39.1893C11.4332 39.0632 11.3672 38.9343 11.3062 38.8013C11.2762 38.7342 11.2482 38.6662 11.2202 38.5983C11.1932 38.5303 11.1682 38.4613 11.1432 38.3912C11.1202 38.3223 11.0972 38.2523 11.0772 38.1822C11.0552 38.1123 11.0372 38.0422 11.0192 37.9713C10.9842 37.8303 10.9562 37.6882 10.9322 37.5462C10.8872 37.2602 10.8652 36.9703 10.8639 36.6778C10.8429 26.9839 10.8189 17.2878 10.792 7.59251C10.792 7.43846 10.799 7.28453 10.814 7.13145C10.822 7.05553 10.832 6.9785 10.844 6.90245C10.855 6.82652 10.869 6.75047 10.885 6.67455C10.948 6.3745 11.043 6.08543 11.169 5.80846C11.2 5.73851 11.234 5.67052 11.27 5.60252C11.288 5.56847 11.306 5.53453 11.325 5.50145C11.344 5.46751 11.363 5.43456 11.383 5.40147C11.462 5.27049 11.548 5.14452 11.64 5.02354C11.824 4.78355 12.033 4.56444 12.267 4.36754C12.325 4.31749 12.386 4.27049 12.446 4.2235C12.508 4.17747 12.57 4.13255 12.633 4.08946C12.76 4.00352 12.89 3.92455 13.022 3.85252C13.156 3.77953 13.293 3.71349 13.433 3.65355C13.503 3.62352 13.573 3.59447 13.645 3.56749C13.717 3.54149 13.79 3.51549 13.863 3.49144C14.155 3.39647 14.452 3.3275 14.753 3.2805C15.054 3.23448 15.358 3.21153 15.6659 3.21043C36.6869 3.11644 57.8159 3.11644 78.8368 3.2108C79.1458 3.21178 79.4508 3.23473 79.7528 3.28172C79.9028 3.30382 80.0538 3.33373 80.2028 3.36876C80.3518 3.40379 80.5008 3.44579 80.6468 3.49278C80.9378 3.58873 81.2168 3.70775 81.4848 3.85472C81.5528 3.89073 81.6178 3.92882 81.6838 3.96971C81.7488 4.00975 81.8148 4.05174 81.8768 4.09471C82.0038 4.18077 82.1248 4.27281 82.2408 4.37071C82.3578 4.46873 82.4678 4.57274 82.5728 4.68272C82.6258 4.73875 82.6768 4.79478 82.7268 4.85374C82.7758 4.91173 82.8248 4.97179 82.8708 5.03282C83.0568 5.27574 83.2118 5.53575 83.3378 5.81383C83.3688 5.8828 83.3998 5.95274 83.4268 6.02477C83.4538 6.09581 83.4808 6.16881 83.5038 6.24083C83.5518 6.3878 83.5908 6.53477 83.6218 6.6848C83.6838 6.98277 83.7138 7.28575 83.7128 7.59471" stroke="#FF00FF" stroke-width="0.283465" stroke-miterlimit="10" stroke-linecap="round" stroke-linejoin="round"/>
<path d="M74.8592 46.9191V52.01H74.2428V47.5654H74.2129L72.97 48.3907V47.7643L74.2428 46.9191H74.8592ZM76.4601 52.0498C76.3375 52.0498 76.2322 52.0059 76.1444 51.918C76.0566 51.8302 76.0127 51.725 76.0127 51.6023C76.0127 51.4797 76.0566 51.3745 76.1444 51.2866C76.2322 51.1988 76.3375 51.1549 76.4601 51.1549C76.5827 51.1549 76.688 51.1988 76.7758 51.2866C76.8636 51.3745 76.9075 51.4797 76.9075 51.6023C76.9075 51.6835 76.8868 51.7581 76.8454 51.8261C76.8056 51.894 76.7518 51.9487 76.6838 51.9901C76.6175 52.0299 76.543 52.0498 76.4601 52.0498ZM78.0069 52.01L80.2839 47.5057V47.466H77.6589V46.9191H80.9202V47.4958L78.6532 52.01H78.0069ZM83.3694 52.0796C83.0777 52.0796 82.815 52.0216 82.5814 51.9056C82.3477 51.7896 82.1604 51.6305 82.0196 51.4283C81.8787 51.2262 81.8017 50.9958 81.7884 50.7373H82.385C82.4082 50.9676 82.5126 51.1582 82.6982 51.309C82.8855 51.4582 83.1092 51.5327 83.3694 51.5327C83.5782 51.5327 83.7638 51.4838 83.9262 51.3861C84.0902 51.2883 84.2187 51.1541 84.3115 50.9834C84.4059 50.811 84.4532 50.6163 84.4532 50.3992C84.4532 50.1771 84.4043 49.9791 84.3065 49.8051C84.2104 49.6294 84.0778 49.4911 83.9088 49.39C83.7397 49.2889 83.5467 49.2375 83.3296 49.2359C83.1738 49.2342 83.0139 49.2582 82.8498 49.308C82.6858 49.356 82.5507 49.4182 82.4446 49.4944L81.8679 49.4248L82.1762 46.9191H84.8211V47.466H82.6932L82.5142 48.9674H82.5441C82.6485 48.8845 82.7794 48.8158 82.9368 48.7611C83.0943 48.7064 83.2583 48.679 83.429 48.679C83.7406 48.679 84.0182 48.7536 84.2618 48.9028C84.507 49.0503 84.6993 49.2524 84.8385 49.5093C84.9793 49.7662 85.0498 50.0595 85.0498 50.3893C85.0498 50.7141 84.9768 51.0041 84.831 51.2593C84.6868 51.5129 84.488 51.7134 84.2344 51.8609C83.9809 52.0067 83.6925 52.0796 83.3694 52.0796Z" fill="#0000FF"/>
<path d="M19.672 25.8672C17.6358 25.8672 16.3809 24.4853 16.3809 22.2246C16.3809 19.9639 17.6554 18.5869 19.6476 18.5869C20.9513 18.5869 21.9816 19.1973 22.4455 20.2275C22.5236 20.3886 22.5627 20.5547 22.5627 20.7011C22.5627 21.038 22.343 21.2529 22.0061 21.2529C21.718 21.2529 21.5276 21.1162 21.3909 20.8086C21.0637 20.0518 20.4241 19.6562 19.6575 19.6562C18.4465 19.6562 17.6702 20.6523 17.6702 22.2246C17.6702 23.7969 18.4417 24.7979 19.6624 24.7979C20.4681 24.7979 21.0882 24.4463 21.4105 23.7041C21.5375 23.416 21.6986 23.2988 21.972 23.2988C22.3187 23.2988 22.5579 23.5283 22.5579 23.8603C22.5579 24.0214 22.5188 24.1679 22.4407 24.3339C21.9915 25.2909 20.9905 25.8671 19.6721 25.8671L19.672 25.8672Z" fill="black"/>
<path d="M48.7437 25.8478C48.3873 25.8478 48.1333 25.6183 48.1333 25.2081V19.2461C48.1333 18.8359 48.3872 18.6064 48.7437 18.6064C49.1002 18.6064 49.3492 18.8359 49.3492 19.2461V25.2081C49.3492 25.6183 49.1002 25.8478 48.7437 25.8478Z" fill="black"/>
<path d="M30.1109 25.8477C29.7545 25.8477 29.5054 25.6181 29.5054 25.2079V21.0868C29.5054 20.7108 29.7251 20.4716 30.0865 20.4716C30.2357 20.4716 30.4105 20.5107 30.5457 20.6657C30.5922 20.719 30.6235 20.7786 30.6447 20.8328C30.6762 20.9137 30.7727 20.947 30.8477 20.9032C31.1109 20.7496 31.6706 20.4765 32.3229 20.4765C33.4655 20.4765 34.1149 21.209 34.1149 22.4053V25.208C34.1149 25.6182 33.8659 25.8478 33.5094 25.8478C33.1529 25.8478 32.899 25.6182 32.899 25.208V22.6494C32.899 21.917 32.5572 21.5068 31.8638 21.5068C31.1704 21.5068 30.7212 22.0097 30.7212 22.7519V25.208C30.7212 25.6182 30.4673 25.8478 30.1108 25.8478L30.1109 25.8477Z" fill="black"/>
<path d="M26.0195 20.4668C24.5107 20.4668 23.5146 21.4922 23.5146 23.1621C23.5146 24.832 24.5009 25.8526 26.0195 25.8526C27.5381 25.8526 28.5244 24.8418 28.5244 23.1621C28.5244 21.4824 27.5283 20.4668 26.0195 20.4668ZM26.0195 24.8907C25.248 24.8907 24.75 24.2657 24.75 23.1622C24.75 22.0587 25.2529 21.4337 26.0195 21.4337C26.7861 21.4337 27.289 22.0636 27.289 23.1622C27.289 24.2608 26.7909 24.8907 26.0195 24.8907Z" fill="black"/>
<path d="M44.6128 20.4668C43.104 20.4668 42.1079 21.4922 42.1079 23.1621C42.1079 24.832 43.0942 25.8526 44.6128 25.8526C46.1314 25.8526 47.1177 24.8418 47.1177 23.1621C47.1177 21.4824 46.1216 20.4668 44.6128 20.4668ZM44.6128 24.8907C43.8413 24.8907 43.3433 24.2657 43.3433 23.1622C43.3433 22.0587 43.8462 21.4337 44.6128 21.4337C45.3794 21.4337 45.8823 22.0636 45.8823 23.1622C45.8823 24.2608 45.3842 24.8907 44.6128 24.8907Z" fill="black"/>
<path d="M39.4561 25.8477C39.0899 25.8477 38.8506 25.6083 38.8506 25.2079V21.0868C38.8506 20.7059 39.085 20.4716 39.4317 20.4716C39.7784 20.4716 39.9163 20.7042 39.9615 20.8202C39.9679 20.8365 39.9734 20.8534 39.9782 20.8706C40.0073 20.9747 40.1392 21.007 40.2152 20.9302C40.4117 20.7318 40.7365 20.4862 41.1407 20.4862C41.3311 20.4862 41.4776 20.535 41.5704 20.618C41.6827 20.7108 41.7413 20.8574 41.7413 21.0576C41.7413 21.2578 41.6827 21.3895 41.5606 21.4872C41.4434 21.5897 41.2627 21.6435 41.0235 21.6483C40.3301 21.6532 40.0665 22.0879 40.0665 22.7177V25.2079C40.0665 25.6083 39.8224 25.8477 39.4561 25.8477Z" fill="black"/>
<path d="M35.6284 24.4707V21.6534C35.6284 21.5751 35.5649 21.5117 35.4867 21.5117H35.3013C34.9986 21.5117 34.813 21.331 34.813 21.0381C34.813 20.7452 34.9985 20.5742 35.3013 20.5742H35.4867C35.565 20.5742 35.6284 20.5107 35.6284 20.4325V19.8857C35.6284 19.4951 35.8628 19.2509 36.2388 19.2509C36.6148 19.2509 36.8443 19.495 36.8443 19.8857V20.4325C36.8443 20.5108 36.9078 20.5742 36.986 20.5742H37.4058C37.7085 20.5742 37.8941 20.75 37.8941 21.0381C37.8941 21.3262 37.7086 21.5117 37.4058 21.5117H36.986C36.9077 21.5117 36.8443 21.5752 36.8443 21.6534V24.207C36.8443 24.5976 36.981 24.7685 37.3326 24.7978L37.4205 24.8076C37.7428 24.8369 37.9088 24.9736 37.9088 25.2568C37.9088 25.6132 37.5963 25.8037 37.0397 25.8037H36.9909C36.0876 25.8037 35.6286 25.3545 35.6286 24.4707H35.6284Z" fill="black"/>
</svg>
