<svg width="95" height="54" viewBox="0 0 95 54" fill="none" xmlns="http://www.w3.org/2000/svg">
<rect x="1.8501" y="1.85001" width="90.8" height="50.3" rx="3" stroke="#8B1EFF" stroke-width="0.28"/>
<path d="M83.5363 40.0264C83.3513 40.3174 83.1393 40.5923 82.9034 40.8433C82.6669 41.095 82.4059 41.324 82.127 41.5259C81.8473 41.7273 81.5493 41.9023 81.2373 42.0503C80.6186 42.342 79.9436 42.526 79.2646 42.585C68.5999 43.0131 57.9269 43.2271 47.252 43.2271C36.5782 43.2271 25.9052 43.0131 15.2403 42.585C14.9005 42.5553 14.5625 42.4944 14.2335 42.4043C13.9016 42.314 13.5796 42.194 13.2686 42.0479C12.957 41.9005 12.658 41.7264 12.379 41.5244C12.0985 41.3229 11.8376 41.0948 11.6006 40.8428C11.3648 40.5919 11.1538 40.318 10.9688 40.0259C10.785 39.7349 10.6291 39.428 10.5001 39.1099C10.3712 38.7935 10.2702 38.4655 10.1963 38.1313C10.1245 37.7996 10.0795 37.4617 10.0635 37.1226L10.0518 7.25146C10.0794 6.52539 10.2594 5.79639 10.5674 5.1333C10.7211 4.80237 10.9061 4.4884 11.1211 4.19531C11.3347 3.90369 11.5777 3.63269 11.8477 3.39062C12.3813 2.91138 13.0154 2.54541 13.6934 2.29834C14.3688 2.05151 15.0868 1.92554 15.8008 1.91748C36.7681 1.82751 57.7361 1.82751 78.7041 1.91748C78.9579 1.92175 79.2119 1.94067 79.4639 1.97266C79.715 2.00488 79.965 2.0509 80.212 2.11182C80.3762 2.15198 80.5392 2.19995 80.6992 2.25391C81.217 2.43115 81.715 2.68115 82.1631 2.99707C82.3888 3.15649 82.6017 3.33252 82.7998 3.52344C82.9985 3.71606 83.1825 3.92407 83.3495 4.14502C83.6837 4.58838 83.9497 5.08447 84.1367 5.60938C84.3241 6.13757 84.4321 6.69458 84.4521 7.25146L84.4414 37.1226C84.4099 37.7999 84.2628 38.4799 84.0071 39.1105C83.8781 39.4294 83.7212 39.7365 83.5363 40.0264Z" stroke="#8B1EFF" stroke-width="0.283" stroke-miterlimit="10"/>
<path d="M16.9952 4.0835H13.4512M13.4512 4.0835C13.4508 4.0835 81.0518 4.0835 81.0518 4.0835C82.2258 4.0835 83.1778 5.03552 83.1778 6.20996C83.1778 6.20996 83.1778 38.5469 83.1778 38.5469C83.1778 39.7209 82.2258 40.6729 81.0522 40.6729C81.0522 40.6729 13.4512 40.6729 13.4512 40.673C12.2772 40.673 11.3252 39.7209 11.3252 38.5465C11.3252 38.5465 11.3252 6.20947 11.3252 6.20959C11.3252 5.03552 12.2772 4.0835 13.4512 4.0835Z" stroke="#00FFFF" stroke-width="0.28" stroke-miterlimit="10"/>
<path d="M83.7106 7.59483C83.6836 17.2888 83.6596 26.9818 83.6386 36.6758C83.6369 36.9681 83.6139 37.2572 83.5689 37.5422C83.5229 37.8271 83.4549 38.1072 83.3599 38.3822C83.3369 38.4512 83.3119 38.5201 83.2839 38.5881C83.2579 38.6562 83.2289 38.7242 83.1979 38.7911C83.1379 38.9252 83.0709 39.0552 82.9989 39.1811C82.9259 39.3071 82.8479 39.4292 82.7619 39.5482C82.6769 39.6661 82.5849 39.7812 82.4869 39.8912C82.2899 40.1112 82.0739 40.3071 81.8389 40.4781C81.7219 40.5642 81.5989 40.6432 81.4719 40.7171C81.4079 40.7541 81.3429 40.7892 81.2769 40.8232C81.2119 40.8562 81.1459 40.8882 81.0789 40.9172C80.8129 41.0361 80.5349 41.1272 80.2499 41.1921C80.1789 41.2081 80.1059 41.2231 80.0339 41.2362C79.9619 41.2482 79.8889 41.2601 79.8159 41.2691C79.6709 41.2882 79.5239 41.3011 79.3769 41.3071C57.997 42.1966 36.502 42.1966 15.122 41.3066C14.9742 41.3013 14.8292 41.2883 14.6832 41.2693C14.6112 41.2602 14.5392 41.2483 14.4672 41.2363C14.3942 41.2233 14.3222 41.2082 14.2512 41.1922C13.9662 41.1283 13.6902 41.0372 13.4242 40.9193C13.3572 40.8893 13.2912 40.8583 13.2252 40.8243C13.1602 40.7912 13.0952 40.7562 13.0322 40.7192C12.9052 40.6462 12.7832 40.5672 12.6662 40.4813C12.4302 40.3103 12.2152 40.1163 12.0182 39.8962C11.9692 39.8423 11.9222 39.7853 11.8762 39.7283C11.8302 39.6722 11.7862 39.6142 11.7432 39.5543C11.6582 39.4363 11.5792 39.3143 11.5072 39.1893C11.4332 39.0632 11.3672 38.9343 11.3062 38.8013C11.2762 38.7342 11.2482 38.6662 11.2202 38.5983C11.1932 38.5303 11.1682 38.4613 11.1432 38.3912C11.1202 38.3223 11.0972 38.2523 11.0772 38.1822C11.0552 38.1123 11.0372 38.0422 11.0192 37.9713C10.9842 37.8303 10.9562 37.6882 10.9322 37.5462C10.8872 37.2602 10.8652 36.9703 10.8639 36.6778C10.8429 26.9839 10.8189 17.2878 10.792 7.59251C10.792 7.43846 10.799 7.28453 10.814 7.13145C10.822 7.05553 10.832 6.9785 10.844 6.90245C10.855 6.82652 10.869 6.75047 10.885 6.67455C10.948 6.3745 11.043 6.08543 11.169 5.80846C11.2 5.73851 11.234 5.67052 11.27 5.60252C11.288 5.56847 11.306 5.53453 11.325 5.50145C11.344 5.46751 11.363 5.43456 11.383 5.40147C11.462 5.27049 11.548 5.14452 11.64 5.02354C11.824 4.78355 12.033 4.56444 12.267 4.36754C12.325 4.31749 12.386 4.27049 12.446 4.2235C12.508 4.17747 12.57 4.13255 12.633 4.08946C12.76 4.00352 12.89 3.92455 13.022 3.85252C13.156 3.77953 13.293 3.71349 13.433 3.65355C13.503 3.62352 13.573 3.59447 13.645 3.56749C13.717 3.54149 13.79 3.51549 13.863 3.49144C14.155 3.39647 14.452 3.3275 14.753 3.2805C15.054 3.23448 15.358 3.21153 15.6659 3.21043C36.6869 3.11644 57.8159 3.11644 78.8368 3.2108C79.1458 3.21178 79.4508 3.23473 79.7528 3.28172C79.9028 3.30382 80.0538 3.33373 80.2028 3.36876C80.3518 3.40379 80.5008 3.44579 80.6468 3.49278C80.9378 3.58873 81.2168 3.70775 81.4848 3.85472C81.5528 3.89073 81.6178 3.92882 81.6838 3.96971C81.7488 4.00975 81.8148 4.05174 81.8768 4.09471C82.0038 4.18077 82.1248 4.27281 82.2408 4.37071C82.3578 4.46873 82.4678 4.57274 82.5728 4.68272C82.6258 4.73875 82.6768 4.79478 82.7268 4.85374C82.7758 4.91173 82.8248 4.97179 82.8708 5.03282C83.0568 5.27574 83.2118 5.53575 83.3378 5.81383C83.3688 5.8828 83.3998 5.95274 83.4268 6.02477C83.4538 6.09581 83.4808 6.16881 83.5038 6.24083C83.5518 6.3878 83.5908 6.53477 83.6218 6.6848C83.6838 6.98277 83.7138 7.28575 83.7128 7.59471" stroke="#FF00FF" stroke-width="0.283465" stroke-miterlimit="10" stroke-linecap="round" stroke-linejoin="round"/>
<path d="M80.8588 44.9191V50.01H80.2423V45.5654H80.2124L78.9695 46.3907V45.7643L80.2423 44.9191H80.8588ZM82.4596 50.0498C82.337 50.0498 82.2317 50.0059 82.1439 49.918C82.0561 49.8302 82.0122 49.725 82.0122 49.6023C82.0122 49.4797 82.0561 49.3745 82.1439 49.2866C82.2317 49.1988 82.337 49.1549 82.4596 49.1549C82.5822 49.1549 82.6875 49.1988 82.7753 49.2866C82.8631 49.3745 82.907 49.4797 82.907 49.6023C82.907 49.6835 82.8863 49.7581 82.8449 49.8261C82.8051 49.894 82.7513 49.9487 82.6833 49.9901C82.617 50.0299 82.5425 50.0498 82.4596 50.0498ZM84.0064 50.01L86.2834 45.5057V45.466H83.6584V44.9191H86.9197V45.4958L84.6527 50.01H84.0064ZM89.3689 50.0796C89.0772 50.0796 88.8145 50.0216 88.5809 49.9056C88.3472 49.7896 88.1599 49.6305 88.0191 49.4283C87.8782 49.2262 87.8012 48.9958 87.7879 48.7373H88.3845C88.4077 48.9676 88.5121 49.1582 88.6977 49.309C88.885 49.4582 89.1087 49.5327 89.3689 49.5327C89.5777 49.5327 89.7633 49.4838 89.9257 49.3861C90.0898 49.2883 90.2182 49.1541 90.311 48.9834C90.4055 48.811 90.4527 48.6163 90.4527 48.3992C90.4527 48.1771 90.4038 47.9791 90.306 47.8051C90.2099 47.6294 90.0773 47.4911 89.9083 47.39C89.7393 47.2889 89.5462 47.2375 89.3291 47.2359C89.1733 47.2342 89.0134 47.2582 88.8493 47.308C88.6853 47.356 88.5502 47.4182 88.4442 47.4944L87.8675 47.4248L88.1757 44.9191H90.8206V45.466H88.6927L88.5138 46.9674H88.5436C88.648 46.8845 88.7789 46.8158 88.9363 46.7611C89.0938 46.7064 89.2578 46.679 89.4285 46.679C89.7401 46.679 90.0177 46.7536 90.2613 46.9028C90.5065 47.0503 90.6988 47.2524 90.838 47.5093C90.9788 47.7662 91.0493 48.0595 91.0493 48.3893C91.0493 48.7141 90.9764 49.0041 90.8305 49.2593C90.6863 49.5129 90.4875 49.7134 90.2339 49.8609C89.9804 50.0067 89.692 50.0796 89.3689 50.0796Z" fill="#0000FF"/>
<path fill-rule="evenodd" clip-rule="evenodd" d="M26.4927 18.3919C26.7698 18.1148 27.219 18.1146 27.4964 18.3915L33.1364 24.0215C33.4139 24.2985 33.4143 24.748 33.1373 25.0256C32.8603 25.3031 32.4107 25.3035 32.1332 25.0265L27.0942 19.9964C27.0395 19.9418 26.951 19.9419 26.8963 19.9965L21.8668 25.026C21.5896 25.3033 21.14 25.3033 20.8627 25.026C20.5855 24.7487 20.5855 24.2992 20.8627 24.0219L26.4927 18.3919Z" fill="black"/>
</svg>
