<svg width="122" height="54" viewBox="0 0 122 54" fill="none" xmlns="http://www.w3.org/2000/svg">
<rect x="2.3501" y="1.85001" width="117.8" height="50.3" rx="3" stroke="#8B1EFF" stroke-width="0.28"/>
<path d="M110.346 40.8597C109.867 41.3588 109.292 41.7657 108.662 42.0547C108.035 42.3424 107.356 42.5134 106.673 42.5664C91.535 43.0283 76.392 43.2593 61.247 43.2593C46.1022 43.2595 30.9592 43.0284 15.8212 42.5664C15.1389 42.5129 14.4589 42.3339 13.8349 42.0479C13.5195 41.9038 13.2175 41.7328 12.9355 41.5337C12.6523 41.335 12.3873 41.1089 12.1483 40.8589C11.9087 40.6085 11.6937 40.3364 11.5067 40.0454C11.3212 39.7554 11.1622 39.4495 11.0313 39.1304C10.7718 38.4998 10.6188 37.8187 10.5888 37.1396L10.5732 7.25537C10.5995 6.52502 10.7835 5.79309 11.0985 5.12598C11.4123 4.46387 11.8563 3.86292 12.4023 3.38086C12.9453 2.90198 13.5893 2.53894 14.2744 2.29492C14.9592 2.05103 15.6832 1.927 16.4042 1.91992C46.2998 1.82202 76.1938 1.82202 106.09 1.91992C106.451 1.92505 106.814 1.95813 107.171 2.02002C107.528 2.08154 107.879 2.17053 108.22 2.2915C108.904 2.53345 109.547 2.90137 110.092 3.38135C110.639 3.86462 111.086 4.46155 111.399 5.12451C111.714 5.79138 111.895 6.52441 111.921 7.25537L111.905 37.1396C111.875 37.8193 111.73 38.5004 111.468 39.1324C111.204 39.7715 110.824 40.3615 110.346 40.8597Z" stroke="#8B1EFF" stroke-width="0.283" stroke-miterlimit="10"/>
<path d="M11.7354 6.23291V38.5249C11.7354 39.699 12.6873 40.651 13.8613 40.651L108.631 40.6509C109.805 40.6509 110.757 39.699 110.757 38.5249V6.2334C110.757 5.05945 109.805 4.10742 108.631 4.10742H102.253H13.8612C12.6872 4.10742 11.7352 5.05945 11.7354 6.23291Z" stroke="#00FFFF" stroke-width="0.28" stroke-miterlimit="10"/>
<path d="M15.6 41.27C13.18 41.27 11.23 39.21 11.23 36.68V7.61999C11.23 5.19999 13.47 3.23999 16.24 3.23999H106.29C109.04 3.23999 111.26 5.14999 111.26 7.50999L111.19 36.69C111.19 39.23 109.23 41.28 106.81 41.28C76.45 42.24 45.98 42.24 15.62 41.28H15.59L15.6 41.27Z" stroke="#FF00FF" stroke-width="0.28" stroke-linecap="round" stroke-linejoin="round"/>
<path d="M104.874 50.01V49.5626L106.554 47.7231C106.751 47.5076 106.914 47.3204 107.041 47.1613C107.169 47.0005 107.263 46.8497 107.325 46.7089C107.388 46.5664 107.419 46.4172 107.419 46.2614C107.419 46.0825 107.376 45.9275 107.29 45.7966C107.205 45.6657 107.089 45.5646 106.942 45.4933C106.794 45.4221 106.629 45.3864 106.445 45.3864C106.249 45.3864 106.078 45.427 105.933 45.5082C105.788 45.5878 105.677 45.6996 105.597 45.8438C105.519 45.988 105.48 46.157 105.48 46.3509H104.894C104.894 46.0526 104.962 45.7908 105.1 45.5654C105.237 45.34 105.425 45.1644 105.662 45.0384C105.9 44.9125 106.168 44.8495 106.465 44.8495C106.763 44.8495 107.027 44.9125 107.258 45.0384C107.488 45.1644 107.669 45.3342 107.799 45.548C107.93 45.7618 107.996 45.9996 107.996 46.2614C107.996 46.4487 107.962 46.6318 107.894 46.8108C107.828 46.9881 107.712 47.1861 107.546 47.4049C107.382 47.622 107.154 47.8871 106.862 48.2004L105.719 49.4234V49.4631H108.085V50.01H104.874ZM109.549 50.0498C109.427 50.0498 109.322 50.0059 109.234 49.918C109.146 49.8302 109.102 49.725 109.102 49.6023C109.102 49.4797 109.146 49.3745 109.234 49.2866C109.322 49.1988 109.427 49.1549 109.549 49.1549C109.672 49.1549 109.777 49.1988 109.865 49.2866C109.953 49.3745 109.997 49.4797 109.997 49.6023C109.997 49.6835 109.976 49.7581 109.935 49.8261C109.895 49.894 109.841 49.9487 109.773 49.9901C109.707 50.0299 109.632 50.0498 109.549 50.0498ZM111.04 50.01V49.5626L112.72 47.7231C112.917 47.5076 113.08 47.3204 113.207 47.1613C113.335 47.0005 113.429 46.8497 113.491 46.7089C113.554 46.5664 113.585 46.4172 113.585 46.2614C113.585 46.0825 113.542 45.9275 113.456 45.7966C113.371 45.6657 113.255 45.5646 113.108 45.4933C112.96 45.4221 112.795 45.3864 112.611 45.3864C112.415 45.3864 112.244 45.427 112.099 45.5082C111.954 45.5878 111.843 45.6996 111.763 45.8438C111.685 45.988 111.646 46.157 111.646 46.3509H111.06C111.06 46.0526 111.128 45.7908 111.266 45.5654C111.403 45.34 111.591 45.1644 111.828 45.0384C112.066 44.9125 112.334 44.8495 112.631 44.8495C112.929 44.8495 113.193 44.9125 113.424 45.0384C113.654 45.1644 113.835 45.3342 113.965 45.548C114.096 45.7618 114.162 45.9996 114.162 46.2614C114.162 46.4487 114.128 46.6318 114.06 46.8108C113.994 46.9881 113.878 47.1861 113.712 47.4049C113.548 47.622 113.32 47.8871 113.028 48.2004L111.885 49.4234V49.4631H114.251V50.01H111.04ZM116.869 50.0796C116.577 50.0796 116.315 50.0216 116.081 49.9056C115.847 49.7896 115.66 49.6305 115.519 49.4283C115.378 49.2262 115.301 48.9958 115.288 48.7373H115.884C115.908 48.9676 116.012 49.1582 116.198 49.309C116.385 49.4582 116.609 49.5327 116.869 49.5327C117.078 49.5327 117.263 49.4838 117.426 49.3861C117.59 49.2883 117.718 49.1541 117.811 48.9834C117.905 48.811 117.953 48.6163 117.953 48.3992C117.953 48.1771 117.904 47.9791 117.806 47.8051C117.71 47.6294 117.577 47.4911 117.408 47.39C117.239 47.2889 117.046 47.2375 116.829 47.2359C116.673 47.2342 116.513 47.2582 116.349 47.308C116.185 47.356 116.05 47.4182 115.944 47.4944L115.367 47.4248L115.676 44.9191H118.321V45.466H116.193L116.014 46.9674H116.044C116.148 46.8845 116.279 46.8158 116.436 46.7611C116.594 46.7064 116.758 46.679 116.929 46.679C117.24 46.679 117.518 46.7536 117.761 46.9028C118.007 47.0503 118.199 47.2524 118.338 47.5093C118.479 47.7662 118.549 48.0595 118.549 48.3893C118.549 48.7141 118.476 49.0041 118.331 49.2593C118.186 49.5129 117.987 49.7134 117.734 49.8609C117.48 50.0067 117.192 50.0796 116.869 50.0796Z" fill="#0000FF"/>
<path fill-rule="evenodd" clip-rule="evenodd" d="M31.0793 16.4825C30.6872 16.4825 30.3693 16.8004 30.3693 17.1925C30.3693 17.5846 30.6872 17.9025 31.0793 17.9025H33.0693C33.3972 17.9025 33.6593 18.1646 33.6593 18.4925V23.3225C33.6593 23.6504 33.3972 23.9125 33.0693 23.9125H25.9491C25.8473 23.9125 25.7795 23.8073 25.8217 23.7146L26.2779 22.711C26.3183 22.622 26.3393 22.5253 26.3393 22.4275V22.4175C26.3393 22.1815 26.2177 21.9621 26.0177 21.8369C25.8176 21.7117 25.5672 21.6983 25.3549 21.8014L21.4496 23.6991C20.6692 24.0665 20.6692 25.1785 21.4496 25.5459L25.3549 27.4436C25.6146 27.5698 25.9256 27.5196 26.1324 27.3181C26.3392 27.1165 26.3974 26.8069 26.2779 26.5441L25.8171 25.5304C25.775 25.4378 25.8428 25.3325 25.9446 25.3325H33.0693C34.1814 25.3325 35.0793 24.4346 35.0793 23.3225V18.4925C35.0793 17.3804 34.1814 16.4825 33.0693 16.4825H31.0793Z" fill="black"/>
</svg>
