<svg width="122" height="55" viewBox="0 0 122 55" fill="none" xmlns="http://www.w3.org/2000/svg">
<path d="M109.846 40.8597C109.367 41.3588 108.792 41.7657 108.162 42.0547C107.535 42.3424 106.856 42.5134 106.173 42.5664C91.035 43.0283 75.892 43.2593 60.747 43.2593C45.6022 43.2595 30.4592 43.0284 15.3212 42.5664C14.6389 42.5129 13.9589 42.3339 13.3349 42.0479C13.0195 41.9038 12.7175 41.7328 12.4355 41.5337C12.1523 41.335 11.8873 41.1089 11.6483 40.8589C11.4087 40.6085 11.1937 40.3364 11.0067 40.0454C10.8212 39.7554 10.6622 39.4495 10.5312 39.1304C10.2718 38.4998 10.1188 37.8187 10.0888 37.1396L10.0732 7.25537C10.0995 6.52502 10.2835 5.79309 10.5985 5.12598C10.9123 4.46387 11.3563 3.86292 11.9023 3.38086C12.4453 2.90198 13.0893 2.53894 13.7744 2.29492C14.4592 2.05103 15.1832 1.927 15.9042 1.91992C45.7998 1.82202 75.6938 1.82202 105.59 1.91992C105.951 1.92505 106.314 1.95813 106.671 2.02002C107.028 2.08154 107.379 2.17053 107.72 2.2915C108.404 2.53345 109.047 2.90137 109.592 3.38135C110.139 3.86462 110.586 4.46155 110.899 5.12451C111.214 5.79138 111.395 6.52441 111.421 7.25537L111.405 37.1396C111.375 37.8193 111.23 38.5004 110.968 39.1324C110.704 39.7715 110.324 40.3615 109.846 40.8597Z" stroke="#16215B" stroke-width="0.283" stroke-miterlimit="10"/>
<path d="M11.2354 6.23291V38.5249C11.2354 39.699 12.1873 40.651 13.3613 40.651L108.131 40.6509C109.305 40.6509 110.257 39.699 110.257 38.5249V6.2334C110.257 5.05945 109.305 4.10742 108.131 4.10742H101.753H13.3612C12.1872 4.10742 11.2352 5.05945 11.2354 6.23291Z" stroke="#00FFFF" stroke-width="0.28" stroke-miterlimit="10"/>
<path d="M12.8109 40.5879C12.8789 40.631 12.9489 40.672 13.0199 40.7119C13.0839 40.7469 13.1499 40.781 13.2159 40.813C13.2829 40.845 13.3499 40.876 13.4169 40.9039C13.6869 41.0189 13.9659 41.106 14.2529 41.1659C14.3969 41.1959 14.5419 41.22 14.6889 41.2369C14.8349 41.255 14.9819 41.2649 15.1289 41.2699C45.4943 42.2346 75.9553 42.2346 106.319 41.2706C106.357 41.27 106.394 41.269 106.431 41.2671M106.431 41.2671C106.468 41.2661 106.505 41.2631 106.542 41.2611C106.615 41.2561 106.688 41.25 106.761 41.2421C106.907 41.2261 107.051 41.2041 107.195 41.175C107.481 41.1171 107.762 41.0331 108.038 40.9191C108.107 40.8911 108.174 40.8611 108.242 40.8291M106.431 41.2671C106.395 41.269 106.359 41.27 106.321 41.2706C75.9562 42.2346 45.4952 42.2346 15.1312 41.2693C14.9842 41.2653 14.8372 41.2543 14.6912 41.2373C14.5442 41.2203 14.3992 41.1963 14.2552 41.1663C13.9682 41.1052 13.6892 41.0193 13.4182 40.9043C13.3512 40.8763 13.2832 40.8453 13.2172 40.8132C13.1512 40.7813 13.0852 40.7473 13.0212 40.7113C12.8932 40.6403 12.7692 40.5632 12.6492 40.4802C12.5302 40.3962 12.4142 40.3063 12.3042 40.2103C12.2482 40.1622 12.1952 40.1133 12.1422 40.0613C12.0892 40.0103 12.0372 39.9573 11.9872 39.9033C11.7862 39.6873 11.6132 39.4523 11.4632 39.2023C11.3882 39.0763 11.3202 38.9473 11.2572 38.8132C11.1952 38.6793 11.1392 38.5433 11.0902 38.4053C11.0402 38.2673 10.9982 38.1263 10.9622 37.9833C10.9252 37.8413 10.8962 37.6973 10.8722 37.5532C10.8242 37.2633 10.8022 36.9723 10.8012 36.6782L10.7999 36.6787C10.779 26.9927 10.7549 17.3066 10.729 7.62061L10.7981 36.6782C10.778 26.9922 10.754 17.3062 10.7271 7.62012L10.7256 7.62024C10.7246 7.30725 10.7566 6.99829 10.8216 6.69434C10.8376 6.61829 10.8556 6.54224 10.8776 6.46729C10.8976 6.39124 10.9206 6.31726 10.9446 6.24329C10.9947 6.09631 11.0526 5.95227 11.1186 5.81226C11.1516 5.74133 11.1866 5.67224 11.2237 5.60425C11.2616 5.53528 11.3017 5.46826 11.3416 5.40234C11.3886 5.32532 11.4386 5.25134 11.4917 5.17822L11.9847 4.6084C12.0167 4.57739 12.0497 4.54736 12.0827 4.51733C12.1407 4.46533 12.1997 4.41443 12.2597 4.36536C12.5017 4.16943 12.7597 4.00134 13.0357 3.8584C13.1037 3.82141 13.1737 3.78735 13.2447 3.75537C13.3147 3.72144 13.3867 3.69043 13.4587 3.66138C13.6027 3.60242 13.7487 3.54944 13.8957 3.50439C14.1917 3.41235 14.4947 3.34436 14.8037 3.30042C14.9587 3.27844 15.1137 3.26233 15.2697 3.25134C15.3467 3.24634 15.4257 3.24243 15.5037 3.23938C15.5427 3.2384 15.5817 3.23743 15.6207 3.23633C15.6598 3.23633 15.6988 3.23633 15.7378 3.23633H15.7394C45.7264 3.13342 75.8064 3.13342 105.793 3.23633C106.1 3.23706 106.405 3.25903 106.708 3.30298C106.784 3.31506 106.86 3.32703 106.935 3.34106C107.009 3.35498 107.084 3.37 107.159 3.38696C107.306 3.42004 107.453 3.45898 107.597 3.50403C107.885 3.59399 108.165 3.70703 108.437 3.84705C108.505 3.88196 108.573 3.91907 108.638 3.95801M106.431 41.2671C106.468 41.2661 106.507 41.2631 106.544 41.2611C106.617 41.2561 106.69 41.25 106.763 41.2421C106.909 41.2261 107.053 41.2041 107.197 41.175C107.483 41.1171 107.764 41.0331 108.04 40.9191C108.108 40.8911 108.175 40.8611 108.242 40.8291M108.242 40.8291C108.308 40.797 108.375 40.764 108.439 40.729C108.509 40.691 108.578 40.651 108.645 40.6101L110.226 38.832C110.227 38.8301 110.229 38.8281 110.23 38.826M108.242 40.8291C108.309 40.797 108.376 40.764 108.441 40.729C108.57 40.6591 108.696 40.583 108.817 40.499C108.938 40.416 109.055 40.326 109.169 40.229C109.225 40.181 109.28 40.1311 109.334 40.0791C109.387 40.0281 109.439 39.9761 109.49 39.921C109.692 39.7061 109.869 39.472 110.021 39.218C110.06 39.1541 110.096 39.0891 110.132 39.024C110.167 38.958 110.199 38.8921 110.23 38.826M110.23 38.826C110.292 38.6921 110.349 38.5562 110.398 38.4171C110.448 38.2791 110.491 38.1381 110.528 37.9951M110.23 38.826C110.294 38.692 110.35 38.556 110.4 38.4171C110.45 38.2791 110.492 38.1381 110.528 37.9951M110.528 37.9951C110.564 37.8531 110.595 37.707 110.619 37.561C110.667 37.269 110.691 36.9751 110.691 36.6781L110.694 36.6782C110.715 26.9532 110.739 17.2273 110.766 7.50232C110.764 7.42505 110.76 7.349 110.754 7.27307C110.748 7.19604 110.741 7.12097 110.731 7.04504C110.711 6.89502 110.685 6.74597 110.649 6.59802C110.614 6.45105 110.571 6.30603 110.519 6.16199C110.493 6.08997 110.464 6.01807 110.435 5.948C110.405 5.87805 110.373 5.80896 110.339 5.74097C110.205 5.46997 110.041 5.21606 109.85 4.98096C109.802 4.922 109.752 4.86401 109.701 4.80701C109.649 4.75098 109.596 4.69604 109.541 4.64197C109.433 4.53601 109.32 4.43506 109.202 4.34106C109.083 4.24707 108.96 4.15906 108.833 4.07605C108.769 4.03503 108.704 3.99597 108.638 3.95801M110.528 37.9951C110.565 37.853 110.596 37.707 110.621 37.561C110.669 37.269 110.692 36.9751 110.693 36.6781C110.714 26.9532 110.737 17.2273 110.764 7.50232L109.459 4.56445C109.375 4.48657 109.289 4.41248 109.2 4.34045C109.082 4.24646 108.959 4.15857 108.831 4.07654C108.768 4.03552 108.703 3.99597 108.638 3.95801M108.638 3.95801C108.571 3.91895 108.503 3.88257 108.435 3.84753C108.164 3.70752 107.883 3.59351 107.595 3.50354C107.45 3.45947 107.305 3.41956 107.156 3.38647C107.082 3.37048 107.008 3.35449 106.933 3.34045C106.857 3.32751 106.782 3.31445 106.706 3.30347C106.403 3.25854 106.098 3.23755 105.791 3.23633C104.444 3.23145 103.098 3.22742 101.75 3.22339" stroke="#FF00FF" stroke-width="0.283465" stroke-miterlimit="10" stroke-linecap="round" stroke-linejoin="round"/>
<path d="M98.3737 52.01V51.5626L100.054 49.7231C100.251 49.5076 100.414 49.3204 100.541 49.1613C100.669 49.0005 100.763 48.8497 100.825 48.7089C100.888 48.5664 100.919 48.4172 100.919 48.2614C100.919 48.0825 100.876 47.9275 100.79 47.7966C100.705 47.6657 100.589 47.5646 100.442 47.4933C100.294 47.4221 100.129 47.3864 99.9447 47.3864C99.7491 47.3864 99.5785 47.427 99.4326 47.5082C99.2884 47.5878 99.1766 47.6996 99.097 47.8438C99.0191 47.988 98.9802 48.157 98.9802 48.3509H98.3936C98.3936 48.0526 98.4623 47.7908 98.5999 47.5654C98.7374 47.34 98.9247 47.1644 99.1617 47.0384C99.4003 46.9125 99.6679 46.8495 99.9646 46.8495C100.263 46.8495 100.527 46.9125 100.758 47.0384C100.988 47.1644 101.169 47.3342 101.299 47.548C101.43 47.7618 101.496 47.9996 101.496 48.2614C101.496 48.4487 101.462 48.6318 101.394 48.8108C101.328 48.9881 101.212 49.1861 101.046 49.4049C100.882 49.622 100.654 49.8871 100.362 50.2004L99.2188 51.4234V51.4631H101.585V52.01H98.3737ZM103.049 52.0498C102.927 52.0498 102.822 52.0059 102.734 51.918C102.646 51.8302 102.602 51.725 102.602 51.6023C102.602 51.4797 102.646 51.3745 102.734 51.2866C102.822 51.1988 102.927 51.1549 103.049 51.1549C103.172 51.1549 103.277 51.1988 103.365 51.2866C103.453 51.3745 103.497 51.4797 103.497 51.6023C103.497 51.6835 103.476 51.7581 103.435 51.8261C103.395 51.894 103.341 51.9487 103.273 51.9901C103.207 52.0299 103.132 52.0498 103.049 52.0498ZM104.54 52.01V51.5626L106.22 49.7231C106.417 49.5076 106.58 49.3204 106.707 49.1613C106.835 49.0005 106.929 48.8497 106.991 48.7089C107.054 48.5664 107.085 48.4172 107.085 48.2614C107.085 48.0825 107.042 47.9275 106.956 47.7966C106.871 47.6657 106.755 47.5646 106.608 47.4933C106.46 47.4221 106.295 47.3864 106.111 47.3864C105.915 47.3864 105.744 47.427 105.599 47.5082C105.454 47.5878 105.343 47.6996 105.263 47.8438C105.185 47.988 105.146 48.157 105.146 48.3509H104.56C104.56 48.0526 104.628 47.7908 104.766 47.5654C104.903 47.34 105.091 47.1644 105.328 47.0384C105.566 46.9125 105.834 46.8495 106.131 46.8495C106.429 46.8495 106.693 46.9125 106.924 47.0384C107.154 47.1644 107.335 47.3342 107.465 47.548C107.596 47.7618 107.662 47.9996 107.662 48.2614C107.662 48.4487 107.628 48.6318 107.56 48.8108C107.494 48.9881 107.378 49.1861 107.212 49.4049C107.048 49.622 106.82 49.8871 106.528 50.2004L105.385 51.4234V51.4631H107.751V52.01H104.54ZM110.369 52.0796C110.077 52.0796 109.815 52.0216 109.581 51.9056C109.347 51.7896 109.16 51.6305 109.019 51.4283C108.878 51.2262 108.801 50.9958 108.788 50.7373H109.384C109.408 50.9676 109.512 51.1582 109.698 51.309C109.885 51.4582 110.109 51.5327 110.369 51.5327C110.578 51.5327 110.763 51.4838 110.926 51.3861C111.09 51.2883 111.218 51.1541 111.311 50.9834C111.405 50.811 111.453 50.6163 111.453 50.3992C111.453 50.1771 111.404 49.9791 111.306 49.8051C111.21 49.6294 111.077 49.4911 110.908 49.39C110.739 49.2889 110.546 49.2375 110.329 49.2359C110.173 49.2342 110.013 49.2582 109.849 49.308C109.685 49.356 109.55 49.4182 109.444 49.4944L108.867 49.4248L109.176 46.9191H111.821V47.466H109.693L109.514 48.9674H109.544C109.648 48.8845 109.779 48.8158 109.936 48.7611C110.094 48.7064 110.258 48.679 110.429 48.679C110.74 48.679 111.018 48.7536 111.261 48.9028C111.507 49.0503 111.699 49.2524 111.838 49.5093C111.979 49.7662 112.049 50.0595 112.049 50.3893C112.049 50.7141 111.976 51.0041 111.831 51.2593C111.686 51.5129 111.487 51.7134 111.234 51.8609C110.98 52.0067 110.692 52.0796 110.369 52.0796Z" fill="#0000FF"/>
<path d="M17.25 25.7501C16.8594 25.7501 16.6201 25.506 16.6201 25.0958V19.3584C16.6201 18.9482 16.8594 18.7041 17.25 18.7041H20.6827C21.0294 18.7041 21.2589 18.9092 21.2589 19.2363C21.2589 19.5634 21.0294 19.7685 20.6827 19.7685H18.0217C17.9434 19.7685 17.88 19.832 17.88 19.9102V21.5311C17.88 21.6094 17.9435 21.6728 18.0217 21.6728H20.5362C20.8585 21.6728 21.0782 21.8632 21.0782 22.1709C21.0782 22.4786 20.8634 22.6738 20.5362 22.6738H18.0217C17.9434 22.6738 17.88 22.7373 17.88 22.8155V24.5438C17.88 24.6221 17.9435 24.6855 18.0217 24.6855H20.6827C21.0294 24.6855 21.2589 24.8906 21.2589 25.2177C21.2589 25.5448 21.0294 25.7499 20.6827 25.7499H17.25V25.7501Z" fill="black"/>
<path d="M33.8315 20.4668C32.3374 20.4668 31.3853 21.5312 31.3853 23.1816C31.3853 24.832 32.3179 25.8524 33.8999 25.8524C34.7001 25.8524 35.286 25.6746 35.7857 25.1196C36.0094 24.8712 35.9495 24.5005 35.6534 24.342C35.404 24.2084 35.1203 24.3365 34.981 24.4659C34.5383 24.8773 34.2135 24.9149 33.8901 24.9149C33.1439 24.9149 32.654 24.4302 32.601 23.6068C32.5957 23.5247 32.6601 23.455 32.7424 23.455H35.6965C35.9777 23.455 36.2071 23.2302 36.2135 22.9491C36.2462 21.5063 35.271 20.4668 33.8315 20.4668ZM34.8613 22.6011H32.7722C32.6816 22.6011 32.6148 22.5173 32.6338 22.4287C32.7704 21.79 33.242 21.4093 33.8363 21.4093C34.4306 21.4093 34.8848 21.7772 35.001 22.4355C35.0163 22.522 34.9491 22.6011 34.8612 22.6011H34.8613Z" fill="black"/>
<path d="M22.958 25.8477C22.6016 25.8477 22.3525 25.6182 22.3525 25.208V21.0869C22.3525 20.7109 22.5722 20.4717 22.9336 20.4717C23.0828 20.4717 23.2576 20.5108 23.3928 20.6658C23.4393 20.7191 23.4706 20.7786 23.4918 20.8328C23.5233 20.9137 23.6198 20.9471 23.6948 20.9033C23.958 20.7497 24.5177 20.4766 25.17 20.4766C26.3126 20.4766 26.962 21.209 26.962 22.4053V25.2081C26.962 25.6183 26.713 25.8478 26.3565 25.8478C26 25.8478 25.7461 25.6183 25.7461 25.2081V22.6495C25.7461 21.9171 25.4043 21.5069 24.7109 21.5069C24.0175 21.5069 23.5683 22.0098 23.5683 22.752V25.2081C23.5683 25.6183 23.3144 25.8478 22.9579 25.8478L22.958 25.8477Z" fill="black"/>
<path d="M37.8057 25.8477C37.4395 25.8477 37.2002 25.6084 37.2002 25.208V21.0869C37.2002 20.706 37.4346 20.4717 37.7813 20.4717C38.128 20.4717 38.2659 20.7042 38.3111 20.8202C38.3175 20.8365 38.323 20.8535 38.3278 20.8707C38.3569 20.9748 38.4888 21.007 38.5648 20.9302C38.7613 20.7318 39.0861 20.4863 39.4903 20.4863C39.6807 20.4863 39.8272 20.5351 39.92 20.6181C40.0323 20.7109 40.0909 20.8574 40.0909 21.0576C40.0909 21.2578 40.0323 21.3896 39.9102 21.4873C39.793 21.5898 39.6123 21.6436 39.3731 21.6484C38.6797 21.6533 38.4161 22.0879 38.4161 22.7177V25.208C38.4161 25.6084 38.172 25.8477 37.8057 25.8477Z" fill="black"/>
<path d="M28.4751 24.4708V21.6535C28.4751 21.5752 28.4116 21.5118 28.3334 21.5118H28.148C27.8453 21.5118 27.6597 21.3311 27.6597 21.0382C27.6597 20.7453 27.8452 20.5743 28.148 20.5743H28.3334C28.4117 20.5743 28.4751 20.5108 28.4751 20.4326V19.8858C28.4751 19.4952 28.7095 19.251 29.0855 19.251C29.4615 19.251 29.691 19.4951 29.691 19.8858V20.4326C29.691 20.5109 29.7545 20.5743 29.8327 20.5743H30.2525C30.5552 20.5743 30.7408 20.7501 30.7408 21.0382C30.7408 21.3263 30.5553 21.5118 30.2525 21.5118H29.8327C29.7544 21.5118 29.691 21.5753 29.691 21.6535V24.2071C29.691 24.5977 29.8277 24.7686 30.1793 24.7979L30.2672 24.8077C30.5895 24.837 30.7555 24.9737 30.7555 25.2569C30.7555 25.6133 30.443 25.8038 29.8864 25.8038H29.8376C28.9343 25.8038 28.4753 25.3546 28.4753 24.4708H28.4751Z" fill="black"/>
</svg>
