<svg width="123" height="54" viewBox="0 0 123 54" fill="none" xmlns="http://www.w3.org/2000/svg">
<rect x="2.8501" y="1.85001" width="117.8" height="50.3" rx="3" stroke="#16215B" stroke-width="0.28"/>
<path d="M110.346 40.8597C109.867 41.3588 109.292 41.7657 108.662 42.0547C108.035 42.3424 107.356 42.5134 106.673 42.5664C91.535 43.0283 76.392 43.2593 61.247 43.2593C46.1022 43.2595 30.9592 43.0284 15.8212 42.5664C15.1389 42.5129 14.4589 42.3339 13.8349 42.0479C13.5195 41.9038 13.2175 41.7328 12.9355 41.5337C12.6523 41.335 12.3873 41.1089 12.1483 40.8589C11.9087 40.6085 11.6937 40.3364 11.5067 40.0454C11.3212 39.7554 11.1622 39.4495 11.0313 39.1304C10.7718 38.4998 10.6188 37.8187 10.5888 37.1396L10.5732 7.25537C10.5995 6.52502 10.7835 5.79309 11.0985 5.12598C11.4123 4.46387 11.8563 3.86292 12.4023 3.38086C12.9453 2.90198 13.5893 2.53894 14.2744 2.29492C14.9592 2.05103 15.6832 1.927 16.4042 1.91992C46.2998 1.82202 76.1938 1.82202 106.09 1.91992C106.451 1.92505 106.814 1.95813 107.171 2.02002C107.528 2.08154 107.879 2.17053 108.22 2.2915C108.904 2.53345 109.547 2.90137 110.092 3.38135C110.639 3.86462 111.086 4.46155 111.399 5.12451C111.714 5.79138 111.895 6.52441 111.921 7.25537L111.905 37.1396C111.875 37.8193 111.73 38.5004 111.468 39.1324C111.204 39.7715 110.824 40.3615 110.346 40.8597Z" stroke="#16215B" stroke-width="0.283" stroke-miterlimit="10"/>
<path d="M11.7354 6.23291V38.5249C11.7354 39.699 12.6873 40.651 13.8613 40.651L108.631 40.6509C109.805 40.6509 110.757 39.699 110.757 38.5249V6.2334C110.757 5.05945 109.805 4.10742 108.631 4.10742H102.253H13.8612C12.6872 4.10742 11.7352 5.05945 11.7354 6.23291Z" stroke="#00FFFF" stroke-width="0.28" stroke-miterlimit="10"/>
<path d="M13.3109 40.5879C13.3789 40.631 13.4489 40.672 13.5199 40.7119C13.5839 40.7469 13.6499 40.781 13.7159 40.813C13.7829 40.845 13.8499 40.876 13.9169 40.9039C14.1869 41.0189 14.4659 41.106 14.7529 41.1659C14.8969 41.1959 15.0419 41.22 15.1889 41.2369C15.3349 41.255 15.4819 41.2649 15.6289 41.2699C45.9943 42.2346 76.4553 42.2346 106.819 41.2706C106.857 41.27 106.894 41.269 106.931 41.2671M106.931 41.2671C106.968 41.2661 107.005 41.2631 107.042 41.2611C107.115 41.2561 107.188 41.25 107.261 41.2421C107.407 41.2261 107.551 41.2041 107.695 41.175C107.981 41.1171 108.262 41.0331 108.538 40.9191C108.607 40.8911 108.674 40.8611 108.742 40.8291M106.931 41.2671C106.895 41.269 106.859 41.27 106.821 41.2706C76.4562 42.2346 45.9952 42.2346 15.6312 41.2693C15.4842 41.2653 15.3372 41.2543 15.1912 41.2373C15.0442 41.2203 14.8992 41.1963 14.7552 41.1663C14.4682 41.1052 14.1892 41.0193 13.9182 40.9043C13.8512 40.8763 13.7832 40.8453 13.7172 40.8132C13.6512 40.7813 13.5852 40.7473 13.5212 40.7113C13.3932 40.6403 13.2692 40.5632 13.1492 40.4802C13.0302 40.3962 12.9142 40.3063 12.8042 40.2103C12.7482 40.1622 12.6952 40.1133 12.6422 40.0613C12.5892 40.0103 12.5372 39.9573 12.4872 39.9033C12.2862 39.6873 12.1132 39.4523 11.9632 39.2023C11.8882 39.0763 11.8202 38.9473 11.7572 38.8132C11.6952 38.6793 11.6392 38.5433 11.5902 38.4053C11.5402 38.2673 11.4982 38.1263 11.4622 37.9833C11.4252 37.8413 11.3962 37.6973 11.3722 37.5532C11.3242 37.2633 11.3022 36.9723 11.3012 36.6782L11.2999 36.6787C11.279 26.9927 11.2549 17.3066 11.229 7.62061L11.2981 36.6782C11.278 26.9922 11.254 17.3062 11.2271 7.62012L11.2256 7.62024C11.2246 7.30725 11.2566 6.99829 11.3216 6.69434C11.3376 6.61829 11.3556 6.54224 11.3776 6.46729C11.3976 6.39124 11.4206 6.31726 11.4446 6.24329C11.4947 6.09631 11.5526 5.95227 11.6186 5.81226C11.6516 5.74133 11.6866 5.67224 11.7237 5.60425C11.7616 5.53528 11.8017 5.46826 11.8416 5.40234C11.8886 5.32532 11.9386 5.25134 11.9917 5.17822L12.4847 4.6084C12.5167 4.57739 12.5497 4.54736 12.5827 4.51733C12.6407 4.46533 12.6997 4.41443 12.7597 4.36536C13.0017 4.16943 13.2597 4.00134 13.5357 3.8584C13.6037 3.82141 13.6737 3.78735 13.7447 3.75537C13.8147 3.72144 13.8867 3.69043 13.9587 3.66138C14.1027 3.60242 14.2487 3.54944 14.3957 3.50439C14.6917 3.41235 14.9947 3.34436 15.3037 3.30042C15.4587 3.27844 15.6137 3.26233 15.7697 3.25134C15.8467 3.24634 15.9257 3.24243 16.0037 3.23938C16.0427 3.2384 16.0817 3.23743 16.1207 3.23633C16.1598 3.23633 16.1988 3.23633 16.2378 3.23633H16.2394C46.2264 3.13342 76.3064 3.13342 106.293 3.23633C106.6 3.23706 106.905 3.25903 107.208 3.30298C107.284 3.31506 107.36 3.32703 107.435 3.34106C107.509 3.35498 107.584 3.37 107.659 3.38696C107.806 3.42004 107.953 3.45898 108.097 3.50403C108.385 3.59399 108.665 3.70703 108.937 3.84705C109.005 3.88196 109.073 3.91907 109.138 3.95801M106.931 41.2671C106.968 41.2661 107.007 41.2631 107.044 41.2611C107.117 41.2561 107.19 41.25 107.263 41.2421C107.409 41.2261 107.553 41.2041 107.697 41.175C107.983 41.1171 108.264 41.0331 108.54 40.9191C108.608 40.8911 108.675 40.8611 108.742 40.8291M108.742 40.8291C108.808 40.797 108.875 40.764 108.939 40.729C109.009 40.691 109.078 40.651 109.145 40.6101L110.726 38.832C110.727 38.8301 110.729 38.8281 110.73 38.826M108.742 40.8291C108.809 40.797 108.876 40.764 108.941 40.729C109.07 40.6591 109.196 40.583 109.317 40.499C109.438 40.416 109.555 40.326 109.669 40.229C109.725 40.181 109.78 40.1311 109.834 40.0791C109.887 40.0281 109.939 39.9761 109.99 39.921C110.192 39.7061 110.369 39.472 110.521 39.218C110.56 39.1541 110.596 39.0891 110.632 39.024C110.667 38.958 110.699 38.8921 110.73 38.826M110.73 38.826C110.792 38.6921 110.849 38.5562 110.898 38.4171C110.948 38.2791 110.991 38.1381 111.028 37.9951M110.73 38.826C110.794 38.692 110.85 38.556 110.9 38.4171C110.95 38.2791 110.992 38.1381 111.028 37.9951M111.028 37.9951C111.064 37.8531 111.095 37.707 111.119 37.561C111.167 37.269 111.191 36.9751 111.191 36.6781L111.194 36.6782C111.215 26.9532 111.239 17.2273 111.266 7.50232C111.264 7.42505 111.26 7.349 111.254 7.27307C111.248 7.19604 111.241 7.12097 111.231 7.04504C111.211 6.89502 111.185 6.74597 111.149 6.59802C111.114 6.45105 111.071 6.30603 111.019 6.16199C110.993 6.08997 110.964 6.01807 110.935 5.948C110.905 5.87805 110.873 5.80896 110.839 5.74097C110.705 5.46997 110.541 5.21606 110.35 4.98096C110.302 4.922 110.252 4.86401 110.201 4.80701C110.149 4.75098 110.096 4.69604 110.041 4.64197C109.933 4.53601 109.82 4.43506 109.702 4.34106C109.583 4.24707 109.46 4.15906 109.333 4.07605C109.269 4.03503 109.204 3.99597 109.138 3.95801M111.028 37.9951C111.065 37.853 111.096 37.707 111.121 37.561C111.169 37.269 111.192 36.9751 111.193 36.6781C111.214 26.9532 111.237 17.2273 111.264 7.50232L109.959 4.56445C109.875 4.48657 109.789 4.41248 109.7 4.34045C109.582 4.24646 109.459 4.15857 109.331 4.07654C109.268 4.03552 109.203 3.99597 109.138 3.95801M109.138 3.95801C109.071 3.91895 109.003 3.88257 108.935 3.84753C108.664 3.70752 108.383 3.59351 108.095 3.50354C107.95 3.45947 107.805 3.41956 107.656 3.38647C107.582 3.37048 107.508 3.35449 107.433 3.34045C107.357 3.32751 107.282 3.31445 107.206 3.30347C106.903 3.25854 106.598 3.23755 106.291 3.23633C104.944 3.23145 103.598 3.22742 102.25 3.22339" stroke="#FF00FF" stroke-width="0.283465" stroke-miterlimit="10" stroke-linecap="round" stroke-linejoin="round"/>
<path d="M104.874 50.01V49.5626L106.554 47.7231C106.751 47.5076 106.914 47.3204 107.041 47.1613C107.169 47.0005 107.263 46.8497 107.325 46.7089C107.388 46.5664 107.419 46.4172 107.419 46.2614C107.419 46.0825 107.376 45.9275 107.29 45.7966C107.205 45.6657 107.089 45.5646 106.942 45.4933C106.794 45.4221 106.629 45.3864 106.445 45.3864C106.249 45.3864 106.078 45.427 105.933 45.5082C105.788 45.5878 105.677 45.6996 105.597 45.8438C105.519 45.988 105.48 46.157 105.48 46.3509H104.894C104.894 46.0526 104.962 45.7908 105.1 45.5654C105.237 45.34 105.425 45.1644 105.662 45.0384C105.9 44.9125 106.168 44.8495 106.465 44.8495C106.763 44.8495 107.027 44.9125 107.258 45.0384C107.488 45.1644 107.669 45.3342 107.799 45.548C107.93 45.7618 107.996 45.9996 107.996 46.2614C107.996 46.4487 107.962 46.6318 107.894 46.8108C107.828 46.9881 107.712 47.1861 107.546 47.4049C107.382 47.622 107.154 47.8871 106.862 48.2004L105.719 49.4234V49.4631H108.085V50.01H104.874ZM109.549 50.0498C109.427 50.0498 109.322 50.0059 109.234 49.918C109.146 49.8302 109.102 49.725 109.102 49.6023C109.102 49.4797 109.146 49.3745 109.234 49.2866C109.322 49.1988 109.427 49.1549 109.549 49.1549C109.672 49.1549 109.777 49.1988 109.865 49.2866C109.953 49.3745 109.997 49.4797 109.997 49.6023C109.997 49.6835 109.976 49.7581 109.935 49.8261C109.895 49.894 109.841 49.9487 109.773 49.9901C109.707 50.0299 109.632 50.0498 109.549 50.0498ZM111.04 50.01V49.5626L112.72 47.7231C112.917 47.5076 113.08 47.3204 113.207 47.1613C113.335 47.0005 113.429 46.8497 113.491 46.7089C113.554 46.5664 113.585 46.4172 113.585 46.2614C113.585 46.0825 113.542 45.9275 113.456 45.7966C113.371 45.6657 113.255 45.5646 113.108 45.4933C112.96 45.4221 112.795 45.3864 112.611 45.3864C112.415 45.3864 112.244 45.427 112.099 45.5082C111.954 45.5878 111.843 45.6996 111.763 45.8438C111.685 45.988 111.646 46.157 111.646 46.3509H111.06C111.06 46.0526 111.128 45.7908 111.266 45.5654C111.403 45.34 111.591 45.1644 111.828 45.0384C112.066 44.9125 112.334 44.8495 112.631 44.8495C112.929 44.8495 113.193 44.9125 113.424 45.0384C113.654 45.1644 113.835 45.3342 113.965 45.548C114.096 45.7618 114.162 45.9996 114.162 46.2614C114.162 46.4487 114.128 46.6318 114.06 46.8108C113.994 46.9881 113.878 47.1861 113.712 47.4049C113.548 47.622 113.32 47.8871 113.028 48.2004L111.885 49.4234V49.4631H114.251V50.01H111.04ZM116.869 50.0796C116.577 50.0796 116.315 50.0216 116.081 49.9056C115.847 49.7896 115.66 49.6305 115.519 49.4283C115.378 49.2262 115.301 48.9958 115.288 48.7373H115.884C115.908 48.9676 116.012 49.1582 116.198 49.309C116.385 49.4582 116.609 49.5327 116.869 49.5327C117.078 49.5327 117.263 49.4838 117.426 49.3861C117.59 49.2883 117.718 49.1541 117.811 48.9834C117.905 48.811 117.953 48.6163 117.953 48.3992C117.953 48.1771 117.904 47.9791 117.806 47.8051C117.71 47.6294 117.577 47.4911 117.408 47.39C117.239 47.2889 117.046 47.2375 116.829 47.2359C116.673 47.2342 116.513 47.2582 116.349 47.308C116.185 47.356 116.05 47.4182 115.944 47.4944L115.367 47.4248L115.676 44.9191H118.321V45.466H116.193L116.014 46.9674H116.044C116.148 46.8845 116.279 46.8158 116.436 46.7611C116.594 46.7064 116.758 46.679 116.929 46.679C117.24 46.679 117.518 46.7536 117.761 46.9028C118.007 47.0503 118.199 47.2524 118.338 47.5093C118.479 47.7662 118.549 48.0595 118.549 48.3893C118.549 48.7141 118.476 49.0041 118.331 49.2593C118.186 49.5129 117.987 49.7134 117.734 49.8609C117.48 50.0067 117.192 50.0796 116.869 50.0796Z" fill="#0000FF"/>
<path fill-rule="evenodd" clip-rule="evenodd" d="M31.0793 16.4825C30.6872 16.4825 30.3693 16.8004 30.3693 17.1925C30.3693 17.5846 30.6872 17.9025 31.0793 17.9025H33.0693C33.3972 17.9025 33.6593 18.1646 33.6593 18.4925V23.3225C33.6593 23.6504 33.3972 23.9125 33.0693 23.9125H25.9491C25.8473 23.9125 25.7795 23.8073 25.8217 23.7146L26.2779 22.711C26.3183 22.622 26.3393 22.5253 26.3393 22.4275V22.4175C26.3393 22.1815 26.2177 21.9621 26.0177 21.8369C25.8176 21.7117 25.5672 21.6983 25.3549 21.8014L21.4496 23.6991C20.6692 24.0665 20.6692 25.1785 21.4496 25.5459L25.3549 27.4436C25.6146 27.5698 25.9256 27.5196 26.1324 27.3181C26.3392 27.1165 26.3974 26.8069 26.2779 26.5441L25.8171 25.5304C25.775 25.4378 25.8428 25.3325 25.9446 25.3325H33.0693C34.1814 25.3325 35.0793 24.4346 35.0793 23.3225V18.4925C35.0793 17.3804 34.1814 16.4825 33.0693 16.4825H31.0793Z" fill="black"/>
</svg>
