<svg width="68" height="55" viewBox="0 0 68 55" fill="none" xmlns="http://www.w3.org/2000/svg">
<path d="M47.4491 46.9191V52.01H46.8326V47.5654H46.8028L45.5599 48.3907V47.7643L46.8326 46.9191H47.4491ZM49.0499 52.0498C48.9273 52.0498 48.8221 52.0059 48.7342 51.918C48.6464 51.8302 48.6025 51.725 48.6025 51.6023C48.6025 51.4797 48.6464 51.3745 48.7342 51.2866C48.8221 51.1988 48.9273 51.1549 49.0499 51.1549C49.1726 51.1549 49.2778 51.1988 49.3656 51.2866C49.4535 51.3745 49.4974 51.4797 49.4974 51.6023C49.4974 51.6835 49.4767 51.7581 49.4352 51.8261C49.3955 51.894 49.3416 51.9487 49.2737 51.9901C49.2074 52.0299 49.1328 52.0498 49.0499 52.0498ZM50.5402 52.01V51.5626L52.2206 49.7231C52.4178 49.5076 52.5802 49.3204 52.7078 49.1613C52.8354 49.0005 52.9299 48.8497 52.9912 48.7089C53.0541 48.5664 53.0856 48.4172 53.0856 48.2614C53.0856 48.0825 53.0425 47.9275 52.9564 47.7966C52.8718 47.6657 52.7558 47.5646 52.6084 47.4933C52.4609 47.4221 52.2951 47.3864 52.1112 47.3864C51.9156 47.3864 51.745 47.427 51.5991 47.5082C51.4549 47.5878 51.3431 47.6996 51.2635 47.8438C51.1857 47.988 51.1467 48.157 51.1467 48.3509H50.5601C50.5601 48.0526 50.6288 47.7908 50.7664 47.5654C50.9039 47.34 51.0912 47.1644 51.3282 47.0384C51.5668 46.9125 51.8344 46.8495 52.1311 46.8495C52.4294 46.8495 52.6937 46.9125 52.9241 47.0384C53.1544 47.1644 53.335 47.3342 53.466 47.548C53.5969 47.7618 53.6623 47.9996 53.6623 48.2614C53.6623 48.4487 53.6284 48.6318 53.5604 48.8108C53.4941 48.9881 53.3781 49.1861 53.2124 49.4049C53.0483 49.622 52.8205 49.8871 52.5288 50.2004L51.3853 51.4234V51.4631H53.7518V52.01H50.5402ZM56.3694 52.0796C56.0777 52.0796 55.815 52.0216 55.5814 51.9056C55.3477 51.7896 55.1604 51.6305 55.0196 51.4283C54.8787 51.2262 54.8017 50.9958 54.7884 50.7373H55.385C55.4082 50.9676 55.5126 51.1582 55.6982 51.309C55.8855 51.4582 56.1092 51.5327 56.3694 51.5327C56.5782 51.5327 56.7638 51.4838 56.9262 51.3861C57.0902 51.2883 57.2187 51.1541 57.3115 50.9834C57.4059 50.811 57.4532 50.6163 57.4532 50.3992C57.4532 50.1771 57.4043 49.9791 57.3065 49.8051C57.2104 49.6294 57.0778 49.4911 56.9088 49.39C56.7397 49.2889 56.5467 49.2375 56.3296 49.2359C56.1738 49.2342 56.0139 49.2582 55.8498 49.308C55.6858 49.356 55.5507 49.4182 55.4446 49.4944L54.8679 49.4248L55.1762 46.9191H57.8211V47.466H55.6932L55.5142 48.9674H55.5441C55.6485 48.8845 55.7794 48.8158 55.9368 48.7611C56.0943 48.7064 56.2583 48.679 56.429 48.679C56.7406 48.679 57.0182 48.7536 57.2618 48.9028C57.507 49.0503 57.6993 49.2524 57.8385 49.5093C57.9793 49.7662 58.0498 50.0595 58.0498 50.3893C58.0498 50.7141 57.9768 51.0041 57.831 51.2593C57.6868 51.5129 57.488 51.7134 57.2344 51.8609C56.9809 52.0067 56.6925 52.0796 56.3694 52.0796Z" fill="#0000FF"/>
<path d="M9.88481 37.1229C9.89581 37.2928 9.91281 37.4619 9.93381 37.6298C9.95581 37.7988 9.98381 37.9658 10.0178 38.1324C10.0518 38.2994 10.0928 38.4654 10.1427 38.6284C10.1917 38.7923 10.2497 38.9533 10.3136 39.1126C10.3786 39.2706 10.4506 39.4276 10.5284 39.5793C10.6074 39.7324 10.6934 39.8813 10.7852 40.0273C10.9702 40.3183 11.1822 40.5922 11.4195 40.843C11.6555 41.0939 11.9175 41.322 12.1972 41.5244C12.4772 41.7253 12.7742 41.9003 13.0859 42.0479C13.7039 42.341 14.3789 42.5259 15.0575 42.5849C25.7235 43.0129 36.3965 43.2279 47.0705 43.2279C48.6835 43.2279 50.2965 43.2228 51.9085 43.2133C52.2715 43.1854 52.6345 43.1303 52.9884 43.0488C53.3454 42.9667 53.6944 42.8577 54.035 42.7194C54.714 42.4444 55.355 42.0505 55.884 41.5445C56.149 41.2906 56.385 41.0085 56.5924 40.707C56.7984 40.406 56.9744 40.085 57.12 39.7507C57.266 39.4196 57.382 39.0756 57.469 38.7232C57.555 38.3742 57.612 38.0181 57.636 37.6597L57.6362 7.11543C57.6092 6.71748 57.5352 6.32148 57.4195 5.93989C57.3025 5.55683 57.1445 5.18989 56.9464 4.84113C56.5554 4.15107 56.0104 3.53706 55.3677 3.07917C55.0637 2.86213 54.7377 2.67414 54.3982 2.51618C54.0682 2.36225 53.7272 2.23725 53.376 2.13862C52.702 1.94856 51.999 1.85761 51.3014 1.852C39.4064 1.84492 27.5134 1.86701 15.6197 1.91779C15.2797 1.9228 14.9407 1.95478 14.6054 2.01032C14.2704 2.06733 13.9394 2.14838 13.6185 2.25605C13.1005 2.43305 12.6045 2.68403 12.1568 3.00043C11.9308 3.15937 11.7178 3.33442 11.5209 3.52595C11.3229 3.71894 11.1399 3.92793 10.9736 4.14863C10.8076 4.37165 10.6586 4.60554 10.5277 4.85078C10.3967 5.09577 10.2837 5.3498 10.1894 5.6125C10.0014 6.1385 9.89142 6.6955 9.87012 7.25105L9.88213 36.853" stroke="#16215B" stroke-width="0.283" stroke-miterlimit="10"/>
<path d="M52.5645 39.9726H14.9404C13.7664 39.9727 12.8145 39.0207 12.8145 37.8466V7.23273C12.8144 6.05841 13.7664 5.10638 14.9404 5.10638H18.4844H49.0215H52.5645C53.7394 5.10638 54.6905 6.05841 54.6905 7.23236L54.6904 37.8466C54.6904 39.0207 53.7394 39.9726 52.5645 39.9726Z" stroke="#00FFFF" stroke-width="0.28" stroke-miterlimit="10"/>
<path d="M23.3964 41.7773C32.7854 42.1103 42.2174 41.9924 51.5594 41.4244C51.8585 41.4068 52.1535 41.3648 52.4445 41.2968C52.5175 41.2787 52.5895 41.2598 52.6615 41.2388C52.7335 41.2188 52.8035 41.1968 52.8735 41.1728C53.0145 41.1248 53.1525 41.0698 53.2885 41.0078C53.4225 40.9459 53.5545 40.8758 53.6835 40.7988C53.7475 40.7598 53.8115 40.7198 53.8725 40.6778C53.9355 40.6358 53.9965 40.5928 54.0545 40.5478C54.2905 40.3679 54.5055 40.1628 54.6985 39.9328C54.7465 39.8758 54.7925 39.8168 54.8375 39.7558C54.8825 39.6959 54.9255 39.6348 54.9675 39.5728C55.0505 39.4488 55.1255 39.3209 55.1955 39.1888C55.2655 39.0578 55.3285 38.9228 55.3845 38.7838C55.4135 38.7158 55.4405 38.6448 55.4645 38.5738C55.4905 38.5038 55.5135 38.4318 55.5365 38.3608C55.6235 38.0757 55.6855 37.7868 55.7265 37.4938C55.7665 37.2007 55.7865 36.9058 55.7862 36.6069V33.7859V22.499C55.7862 17.494 55.7862 12.489 55.7871 7.48334C55.7871 7.33136 55.7791 7.17938 55.7651 7.02838C55.7571 6.95245 55.7481 6.87738 55.7361 6.80243C55.7251 6.72736 55.7121 6.65241 55.6961 6.57843C55.6361 6.28241 55.5461 5.99738 55.4241 5.72345C55.3921 5.65436 55.3601 5.58734 55.3261 5.51935C55.2921 5.45245 55.2551 5.38641 55.2171 5.32135C55.1411 5.19135 55.0581 5.06744 54.9691 4.94843C54.7901 4.71137 54.5861 4.49542 54.3561 4.29938C54.2991 4.2514 54.2401 4.20343 54.1811 4.15839C54.1211 4.11237 54.0601 4.0694 53.9991 4.02741C53.8751 3.94342 53.7481 3.86542 53.6171 3.79535C53.4861 3.72345 53.3511 3.65936 53.2141 3.6004C53.1441 3.57135 53.0741 3.5434 53.0041 3.5174C52.9331 3.49042 52.8621 3.46637 52.7911 3.44342C52.5061 3.35138 52.2161 3.28534 51.9221 3.24139C51.6271 3.19745 51.3281 3.17438 51.0263 3.17279C39.5333 3.09784 27.9163 3.09784 16.4257 3.17377C16.1227 3.17584 15.8237 3.19977 15.5287 3.24786C15.3807 3.27179 15.2347 3.30182 15.0877 3.33783C15.0157 3.35687 14.9427 3.37579 14.8707 3.39789C14.7987 3.41888 14.7277 3.44183 14.6567 3.46588C14.3737 3.56281 14.1027 3.68488 13.8437 3.83283C13.7787 3.86981 13.7137 3.90888 13.6517 3.94977C13.5877 3.98981 13.5257 4.0318 13.4647 4.07587C13.3437 4.16278 13.2277 4.2558 13.1157 4.35382C13.0057 4.45184 12.8997 4.55682 12.7997 4.66681C12.7487 4.72186 12.6997 4.77887 12.6527 4.83783C12.6057 4.89581 12.5597 4.95477 12.5157 5.01581C12.3397 5.25678 12.1937 5.51483 12.0737 5.78888C12.0437 5.85785 12.0157 5.92682 11.9897 5.99786C11.9637 6.06781 11.9397 6.13983 11.9167 6.21185C11.8717 6.35577 11.8347 6.50079 11.8057 6.64679C11.7467 6.93988 11.7187 7.23785 11.7198 7.54193C11.7407 17.272 11.7597 27.003 11.7773 36.7328C11.7773 37.0219 11.7983 37.3079 11.8423 37.5899C11.8863 37.8729 11.9523 38.1529 12.0433 38.4279C12.0883 38.5659 12.1393 38.702 12.1973 38.8349C12.2263 38.9009 12.2563 38.9669 12.2883 39.0319C12.3203 39.0969 12.3533 39.1619 12.3883 39.2259C12.5283 39.4799 12.6903 39.7169 12.8763 39.937C12.9683 40.046 13.0673 40.1519 13.1723 40.2529C13.2243 40.3029 13.2783 40.3519 13.3323 40.3989C13.3863 40.4459 13.4423 40.4919 13.4993 40.5359C13.7253 40.7119 13.9673 40.8619 14.2263 40.9879C14.2923 41.0189 14.3573 41.0489 14.4233 41.077C14.4913 41.1049 14.5573 41.1309 14.6263 41.1559C14.7603 41.2049 14.8973 41.2469 15.0363 41.2819C15.3123 41.3519 15.5943 41.3959 15.8828 41.413C20.4278 41.6921 24.9958 41.8651 29.5738 41.9321L23.3964 41.7773Z" stroke="#FF00FF" stroke-width="0.283465" stroke-miterlimit="10" stroke-linecap="round" stroke-linejoin="round"/>
<path fill-rule="evenodd" clip-rule="evenodd" d="M41.0793 22.4825C40.6872 22.4825 40.3693 22.8004 40.3693 23.1925C40.3693 23.5846 40.6872 23.9025 41.0793 23.9025H43.0693C43.3972 23.9025 43.6593 24.1646 43.6593 24.4925V29.3225C43.6593 29.6504 43.3972 29.9125 43.0693 29.9125H35.9491C35.8473 29.9125 35.7795 29.8073 35.8217 29.7146L36.2779 28.711C36.3183 28.622 36.3393 28.5253 36.3393 28.4275V28.4175C36.3393 28.1815 36.2177 27.9621 36.0177 27.8369C35.8176 27.7117 35.5672 27.6983 35.3549 27.8014L31.4496 29.6991C30.6692 30.0665 30.6692 31.1785 31.4496 31.5459L35.3549 33.4436C35.6146 33.5698 35.9256 33.5196 36.1324 33.3181C36.3392 33.1165 36.3974 32.8069 36.2779 32.5441L35.8171 31.5304C35.775 31.4378 35.8428 31.3325 35.9446 31.3325H43.0693C44.1814 31.3325 45.0793 30.4346 45.0793 29.3225V24.4925C45.0793 23.3804 44.1814 22.4825 43.0693 22.4825H41.0793Z" fill="black"/>
<path d="M22.75 16.7501C22.3594 16.7501 22.1201 16.506 22.1201 16.0958V10.3584C22.1201 9.9482 22.3594 9.7041 22.75 9.7041H26.1827C26.5294 9.7041 26.7589 9.9092 26.7589 10.2363C26.7589 10.5634 26.5294 10.7685 26.1827 10.7685H23.5217C23.4434 10.7685 23.38 10.832 23.38 10.9102V12.5311C23.38 12.6094 23.4435 12.6728 23.5217 12.6728H26.0362C26.3585 12.6728 26.5782 12.8632 26.5782 13.1709C26.5782 13.4786 26.3634 13.6738 26.0362 13.6738H23.5217C23.4434 13.6738 23.38 13.7373 23.38 13.8155V15.5438C23.38 15.6221 23.4435 15.6855 23.5217 15.6855H26.1827C26.5294 15.6855 26.7589 15.8906 26.7589 16.2177C26.7589 16.5448 26.5294 16.7499 26.1827 16.7499H22.75V16.7501Z" fill="black"/>
<path d="M39.3315 11.4668C37.8374 11.4668 36.8853 12.5312 36.8853 14.1816C36.8853 15.832 37.8179 16.8524 39.3999 16.8524C40.2001 16.8524 40.786 16.6746 41.2857 16.1196C41.5094 15.8712 41.4495 15.5005 41.1534 15.342C40.904 15.2084 40.6203 15.3365 40.481 15.4659C40.0383 15.8773 39.7135 15.9149 39.3901 15.9149C38.6439 15.9149 38.154 15.4302 38.101 14.6068C38.0957 14.5247 38.1601 14.455 38.2424 14.455H41.1965C41.4777 14.455 41.7071 14.2302 41.7135 13.9491C41.7462 12.5063 40.771 11.4668 39.3315 11.4668ZM40.3613 13.6011H38.2722C38.1816 13.6011 38.1148 13.5173 38.1338 13.4287C38.2704 12.79 38.742 12.4093 39.3363 12.4093C39.9306 12.4093 40.3848 12.7772 40.501 13.4355C40.5163 13.522 40.4491 13.6011 40.3612 13.6011H40.3613Z" fill="black"/>
<path d="M28.458 16.8477C28.1016 16.8477 27.8525 16.6182 27.8525 16.208V12.0869C27.8525 11.7109 28.0722 11.4717 28.4336 11.4717C28.5828 11.4717 28.7576 11.5108 28.8928 11.6658C28.9393 11.7191 28.9706 11.7786 28.9918 11.8328C29.0233 11.9137 29.1198 11.9471 29.1948 11.9033C29.458 11.7497 30.0177 11.4766 30.67 11.4766C31.8126 11.4766 32.462 12.209 32.462 13.4053V16.2081C32.462 16.6183 32.213 16.8478 31.8565 16.8478C31.5 16.8478 31.2461 16.6183 31.2461 16.2081V13.6495C31.2461 12.9171 30.9043 12.5069 30.2109 12.5069C29.5175 12.5069 29.0683 13.0098 29.0683 13.752V16.2081C29.0683 16.6183 28.8144 16.8478 28.4579 16.8478L28.458 16.8477Z" fill="black"/>
<path d="M43.3057 16.8477C42.9395 16.8477 42.7002 16.6084 42.7002 16.208V12.0869C42.7002 11.706 42.9346 11.4717 43.2813 11.4717C43.628 11.4717 43.7659 11.7042 43.8111 11.8202C43.8175 11.8365 43.823 11.8535 43.8278 11.8707C43.8569 11.9748 43.9888 12.007 44.0648 11.9302C44.2613 11.7318 44.5861 11.4863 44.9903 11.4863C45.1807 11.4863 45.3272 11.5351 45.42 11.6181C45.5323 11.7109 45.5909 11.8574 45.5909 12.0576C45.5909 12.2578 45.5323 12.3896 45.4102 12.4873C45.293 12.5898 45.1123 12.6436 44.8731 12.6484C44.1797 12.6533 43.9161 13.0879 43.9161 13.7177V16.208C43.9161 16.6084 43.672 16.8477 43.3057 16.8477Z" fill="black"/>
<path d="M33.9751 15.4708V12.6535C33.9751 12.5752 33.9116 12.5118 33.8334 12.5118H33.648C33.3453 12.5118 33.1597 12.3311 33.1597 12.0382C33.1597 11.7453 33.3452 11.5743 33.648 11.5743H33.8334C33.9117 11.5743 33.9751 11.5108 33.9751 11.4326V10.8858C33.9751 10.4952 34.2095 10.251 34.5855 10.251C34.9615 10.251 35.191 10.4951 35.191 10.8858V11.4326C35.191 11.5109 35.2545 11.5743 35.3327 11.5743H35.7525C36.0552 11.5743 36.2408 11.7501 36.2408 12.0382C36.2408 12.3263 36.0553 12.5118 35.7525 12.5118H35.3327C35.2544 12.5118 35.191 12.5753 35.191 12.6535V15.2071C35.191 15.5977 35.3277 15.7686 35.6793 15.7979L35.7672 15.8077C36.0895 15.837 36.2555 15.9737 36.2555 16.2569C36.2555 16.6133 35.943 16.8038 35.3864 16.8038H35.3376C34.4343 16.8038 33.9753 16.3546 33.9753 15.4708H33.9751Z" fill="black"/>
</svg>
