<svg width="122" height="54" viewBox="0 0 122 54" fill="none" xmlns="http://www.w3.org/2000/svg">
<path d="M110.346 40.8597C109.867 41.3587 109.292 41.7657 108.662 42.0546C108.034 42.3423 107.356 42.5134 106.673 42.5663C91.5347 43.0283 76.3917 43.2592 61.2468 43.2592C46.1019 43.2595 30.9589 43.0284 15.821 42.5663C15.1386 42.5129 14.4586 42.3338 13.8347 42.0478C13.5193 41.9037 13.2173 41.7327 12.9353 41.5336C12.652 41.3349 12.387 41.1088 12.1481 40.8588C11.9084 40.6085 11.6934 40.3364 11.5065 40.0453C11.321 39.7553 11.162 39.4494 11.031 39.1303C10.7715 38.4997 10.6185 37.8187 10.5886 37.1396L10.573 7.25531C10.5992 6.52496 10.7833 5.79303 11.0983 5.12592C11.412 4.46381 11.8561 3.86285 12.4021 3.3808C12.9451 2.90192 13.5891 2.53888 14.2741 2.29486C14.959 2.05096 15.683 1.92694 16.404 1.91986C46.2996 1.82196 76.1936 1.82196 106.09 1.91986C106.451 1.92499 106.814 1.95807 107.171 2.01996C107.527 2.08148 107.878 2.17047 108.219 2.29144C108.903 2.53339 109.546 2.90131 110.092 3.38129C110.639 3.86456 111.086 4.46149 111.399 5.12445C111.714 5.79132 111.895 6.52435 111.921 7.25531L111.905 37.1396C111.874 37.8193 111.729 38.5003 111.467 39.1324C111.203 39.7714 110.823 40.3614 110.346 40.8597Z" stroke="#16215B" stroke-width="0.283" stroke-miterlimit="10"/>
<path d="M11.7351 6.23291V38.5249C11.7351 39.699 12.6871 40.651 13.8611 40.651L108.631 40.6509C109.805 40.6509 110.757 39.699 110.757 38.5249V6.2334C110.757 5.05945 109.805 4.10742 108.631 4.10742H102.253H13.861C12.687 4.10742 11.7349 5.05945 11.7351 6.23291Z" stroke="#00FFFF" stroke-width="0.28" stroke-miterlimit="10"/>
<path d="M13.3109 40.5879C13.3789 40.631 13.4489 40.672 13.5199 40.7119C13.5839 40.747 13.6499 40.781 13.7159 40.813C13.7829 40.845 13.8499 40.876 13.9169 40.904C14.1869 41.019 14.4659 41.106 14.7529 41.1659C14.8969 41.196 15.0419 41.22 15.1889 41.237C15.3349 41.255 15.4819 41.2649 15.6289 41.2699C45.9943 42.2346 76.4553 42.2346 106.819 41.2707C106.857 41.2701 106.894 41.2691 106.931 41.2671M106.931 41.2671C106.968 41.2661 107.005 41.2631 107.042 41.2611C107.115 41.2561 107.188 41.25 107.261 41.2421C107.407 41.2261 107.551 41.2041 107.695 41.1751C107.981 41.1171 108.262 41.0331 108.538 40.9191C108.607 40.8911 108.674 40.8611 108.742 40.8291M106.931 41.2671C106.895 41.2691 106.859 41.2701 106.821 41.2707C76.4562 42.2346 45.9952 42.2346 15.6312 41.2693C15.4842 41.2653 15.3372 41.2543 15.1912 41.2373C15.0442 41.2204 14.8992 41.1963 14.7552 41.1663C14.4682 41.1053 14.1892 41.0193 13.9182 40.9043C13.8512 40.8764 13.7832 40.8454 13.7172 40.8133C13.6512 40.7813 13.5852 40.7473 13.5212 40.7113C13.3932 40.6403 13.2692 40.5633 13.1492 40.4803C13.0302 40.3963 12.9142 40.3063 12.8042 40.2104C12.7482 40.1623 12.6952 40.1133 12.6422 40.0613C12.5892 40.0103 12.5372 39.9573 12.4872 39.9034C12.2862 39.6873 12.1132 39.4523 11.9632 39.2023C11.8882 39.0763 11.8202 38.9473 11.7572 38.8133C11.6952 38.6794 11.6392 38.5434 11.5902 38.4053C11.5402 38.2674 11.4982 38.1264 11.4622 37.9833C11.4252 37.8413 11.3962 37.6973 11.3722 37.5533C11.3242 37.2633 11.3022 36.9723 11.3012 36.6783L11.2999 36.6787C11.279 26.9927 11.2549 17.3067 11.229 7.62064L11.2981 36.6783C11.278 26.9922 11.254 17.3062 11.2271 7.62015L11.2256 7.62027C11.2246 7.30728 11.2566 6.99832 11.3216 6.69437C11.3376 6.61832 11.3556 6.54227 11.3776 6.46732C11.3976 6.39127 11.4206 6.31729 11.4446 6.24332C11.4947 6.09634 11.5526 5.9523 11.6186 5.81229C11.6516 5.74136 11.6866 5.67227 11.7237 5.60428C11.7616 5.53531 11.8017 5.46829 11.8416 5.40237C11.8886 5.32535 11.9386 5.25137 11.9917 5.17825L12.4847 4.60843C12.5167 4.57742 12.5497 4.54739 12.5827 4.51736C12.6407 4.46536 12.6997 4.41446 12.7597 4.36539C13.0017 4.16946 13.2597 4.00137 13.5357 3.85843C13.6037 3.82144 13.6737 3.78738 13.7447 3.7554C13.8147 3.72147 13.8867 3.69046 13.9587 3.66141C14.1027 3.60245 14.2487 3.54947 14.3957 3.50443C14.6917 3.41238 14.9947 3.34439 15.3037 3.30045C15.4587 3.27847 15.6137 3.26236 15.7697 3.25137C15.8467 3.24637 15.9257 3.24246 16.0037 3.23941C16.0427 3.23843 16.0817 3.23746 16.1207 3.23636C16.1598 3.23636 16.1988 3.23636 16.2378 3.23636H16.2394C46.2264 3.13345 76.3064 3.13345 106.293 3.23636C106.6 3.23709 106.905 3.25906 107.208 3.30301C107.284 3.31509 107.36 3.32706 107.435 3.3411C107.509 3.35501 107.584 3.37003 107.659 3.38699C107.806 3.42007 107.953 3.45901 108.097 3.50406C108.385 3.59402 108.665 3.70706 108.937 3.84708C109.005 3.88199 109.073 3.9191 109.138 3.95804M106.931 41.2671C106.968 41.2661 107.007 41.2631 107.044 41.2611C107.117 41.2561 107.19 41.25 107.263 41.2421C107.409 41.2261 107.553 41.2041 107.697 41.1751C107.983 41.1171 108.264 41.0331 108.54 40.9191C108.608 40.8911 108.675 40.8611 108.742 40.8291M108.742 40.8291C108.808 40.797 108.875 40.7641 108.939 40.729C109.009 40.6911 109.078 40.651 109.145 40.6101L110.726 38.8321C110.727 38.8301 110.729 38.8282 110.73 38.8261M108.742 40.8291C108.809 40.797 108.876 40.7641 108.941 40.729C109.07 40.6591 109.196 40.583 109.317 40.4991C109.438 40.416 109.555 40.3261 109.669 40.229C109.725 40.1811 109.78 40.1311 109.834 40.0791C109.887 40.0281 109.939 39.9761 109.99 39.9211C110.192 39.7061 110.369 39.4721 110.521 39.218C110.56 39.1541 110.596 39.0891 110.632 39.0241C110.667 38.958 110.699 38.8921 110.73 38.8261M110.73 38.8261C110.792 38.6922 110.849 38.5562 110.898 38.4171C110.948 38.2791 110.991 38.1381 111.028 37.9951M110.73 38.8261C110.794 38.692 110.85 38.5561 110.9 38.4171C110.95 38.2791 110.992 38.1381 111.028 37.9951M111.028 37.9951C111.064 37.8532 111.095 37.7071 111.119 37.5611C111.167 37.2691 111.191 36.9751 111.191 36.6781L111.194 36.6783C111.215 26.9533 111.239 17.2273 111.266 7.50235C111.264 7.42508 111.26 7.34903 111.254 7.2731C111.248 7.19608 111.241 7.121 111.231 7.04507C111.211 6.89505 111.185 6.746 111.149 6.59805C111.114 6.45108 111.071 6.30606 111.019 6.16202C110.993 6.09 110.964 6.0181 110.935 5.94803C110.905 5.87808 110.873 5.80899 110.839 5.741C110.705 5.47 110.541 5.2161 110.35 4.98099C110.302 4.92203 110.252 4.86404 110.201 4.80704C110.149 4.75101 110.096 4.69608 110.041 4.642C109.933 4.53604 109.82 4.43509 109.702 4.34109C109.583 4.2471 109.46 4.15909 109.333 4.07608C109.269 4.03506 109.204 3.996 109.138 3.95804M111.028 37.9951C111.065 37.8531 111.096 37.7071 111.121 37.5611C111.169 37.2691 111.192 36.9751 111.193 36.6781C111.214 26.9533 111.237 17.2273 111.264 7.50235L109.959 4.56448C109.875 4.4866 109.789 4.41251 109.7 4.34048C109.582 4.24649 109.459 4.1586 109.331 4.07657C109.268 4.03555 109.203 3.996 109.138 3.95804M109.138 3.95804C109.071 3.91898 109.003 3.8826 108.935 3.84756C108.664 3.70755 108.383 3.59354 108.095 3.50357C107.95 3.4595 107.805 3.41959 107.656 3.38651C107.582 3.37051 107.508 3.35452 107.433 3.34048C107.357 3.32755 107.282 3.31448 107.206 3.3035C106.903 3.25858 106.598 3.23758 106.291 3.23636C104.944 3.23148 103.598 3.22745 102.25 3.22342" stroke="#FF00FF" stroke-width="0.283465" stroke-miterlimit="10" stroke-linecap="round" stroke-linejoin="round"/>
<path d="M106.874 52.01V51.5626L108.554 49.7231C108.752 49.5076 108.914 49.3204 109.042 49.1613C109.169 49.0005 109.264 48.8497 109.325 48.7089C109.388 48.5664 109.419 48.4172 109.419 48.2614C109.419 48.0825 109.376 47.9275 109.29 47.7966C109.206 47.6657 109.09 47.5646 108.942 47.4933C108.795 47.4221 108.629 47.3864 108.445 47.3864C108.249 47.3864 108.079 47.427 107.933 47.5082C107.789 47.5878 107.677 47.6996 107.597 47.8438C107.519 47.988 107.48 48.157 107.48 48.3509H106.894C106.894 48.0526 106.963 47.7908 107.1 47.5654C107.238 47.34 107.425 47.1644 107.662 47.0384C107.901 46.9125 108.168 46.8495 108.465 46.8495C108.763 46.8495 109.027 46.9125 109.258 47.0384C109.488 47.1644 109.669 47.3342 109.8 47.548C109.931 47.7618 109.996 47.9996 109.996 48.2614C109.996 48.4487 109.962 48.6318 109.894 48.8108C109.828 48.9881 109.712 49.1861 109.546 49.4049C109.382 49.622 109.154 49.8871 108.863 50.2004L107.719 51.4234V51.4631H110.086V52.01H106.874ZM111.55 52.0498C111.427 52.0498 111.322 52.0059 111.234 51.918C111.146 51.8302 111.102 51.725 111.102 51.6023C111.102 51.4797 111.146 51.3745 111.234 51.2866C111.322 51.1988 111.427 51.1549 111.55 51.1549C111.672 51.1549 111.778 51.1988 111.865 51.2866C111.953 51.3745 111.997 51.4797 111.997 51.6023C111.997 51.6835 111.976 51.7581 111.935 51.8261C111.895 51.894 111.841 51.9487 111.773 51.9901C111.707 52.0299 111.633 52.0498 111.55 52.0498ZM113.04 52.01V51.5626L114.72 49.7231C114.918 49.5076 115.08 49.3204 115.208 49.1613C115.335 49.0005 115.43 48.8497 115.491 48.7089C115.554 48.5664 115.585 48.4172 115.585 48.2614C115.585 48.0825 115.542 47.9275 115.456 47.7966C115.372 47.6657 115.256 47.5646 115.108 47.4933C114.961 47.4221 114.795 47.3864 114.611 47.3864C114.415 47.3864 114.245 47.427 114.099 47.5082C113.955 47.5878 113.843 47.6996 113.763 47.8438C113.685 47.988 113.646 48.157 113.646 48.3509H113.06C113.06 48.0526 113.129 47.7908 113.266 47.5654C113.404 47.34 113.591 47.1644 113.828 47.0384C114.067 46.9125 114.334 46.8495 114.631 46.8495C114.929 46.8495 115.193 46.9125 115.424 47.0384C115.654 47.1644 115.835 47.3342 115.966 47.548C116.097 47.7618 116.162 47.9996 116.162 48.2614C116.162 48.4487 116.128 48.6318 116.06 48.8108C115.994 48.9881 115.878 49.1861 115.712 49.4049C115.548 49.622 115.32 49.8871 115.029 50.2004L113.885 51.4234V51.4631H116.252V52.01H113.04ZM118.869 52.0796C118.577 52.0796 118.315 52.0216 118.081 51.9056C117.847 51.7896 117.66 51.6305 117.519 51.4283C117.378 51.2262 117.301 50.9958 117.288 50.7373H117.885C117.908 50.9676 118.012 51.1582 118.198 51.309C118.385 51.4582 118.609 51.5327 118.869 51.5327C119.078 51.5327 119.264 51.4838 119.426 51.3861C119.59 51.2883 119.718 51.1541 119.811 50.9834C119.906 50.811 119.953 50.6163 119.953 50.3992C119.953 50.1771 119.904 49.9791 119.806 49.8051C119.71 49.6294 119.578 49.4911 119.409 49.39C119.24 49.2889 119.046 49.2375 118.829 49.2359C118.674 49.2342 118.514 49.2582 118.35 49.308C118.186 49.356 118.05 49.4182 117.944 49.4944L117.368 49.4248L117.676 46.9191H120.321V47.466H118.193L118.014 48.9674H118.044C118.148 48.8845 118.279 48.8158 118.437 48.7611C118.594 48.7064 118.758 48.679 118.929 48.679C119.24 48.679 119.518 48.7536 119.762 48.9028C120.007 49.0503 120.199 49.2524 120.338 49.5093C120.479 49.7662 120.55 50.0595 120.55 50.3893C120.55 50.7141 120.477 51.0041 120.331 51.2593C120.187 51.5129 119.988 51.7134 119.734 51.8609C119.481 52.0067 119.192 52.0796 118.869 52.0796Z" fill="#0000FF"/>
<path fill-rule="evenodd" clip-rule="evenodd" d="M31.0791 16.4825C30.687 16.4825 30.3691 16.8004 30.3691 17.1925C30.3691 17.5847 30.687 17.9025 31.0791 17.9025H33.0691C33.397 17.9025 33.6591 18.1647 33.6591 18.4925V23.3225C33.6591 23.6504 33.397 23.9125 33.0691 23.9125H25.9489C25.8471 23.9125 25.7793 23.8073 25.8214 23.7146L26.2776 22.711C26.3181 22.622 26.339 22.5253 26.339 22.4276V22.4176C26.339 22.1815 26.2175 21.9621 26.0174 21.8369C25.8174 21.7117 25.5669 21.6983 25.3546 21.8014L21.4493 23.6992C20.6689 24.0665 20.6689 25.1786 21.4493 25.5459L25.3546 27.4437C25.6143 27.5699 25.9253 27.5197 26.1321 27.3181C26.3389 27.1166 26.3971 26.807 26.2776 26.5441L25.8169 25.5305C25.7747 25.4378 25.8425 25.3325 25.9443 25.3325H33.0691C34.1812 25.3325 35.0791 24.4347 35.0791 23.3225V18.4925C35.0791 17.3804 34.1812 16.4825 33.0691 16.4825H31.0791Z" fill="black"/>
</svg>
