<svg width="68" height="54" viewBox="0 0 68 54" fill="none" xmlns="http://www.w3.org/2000/svg">
<rect x="1.8501" y="1.85001" width="63.8" height="50.3" rx="3" stroke="#16215B" stroke-width="0.28"/>
<path d="M53.4491 44.9191V50.01H52.8326V45.5654H52.8028L51.5599 46.3907V45.7643L52.8326 44.9191H53.4491ZM55.0499 50.0498C54.9273 50.0498 54.8221 50.0059 54.7342 49.918C54.6464 49.8302 54.6025 49.725 54.6025 49.6023C54.6025 49.4797 54.6464 49.3745 54.7342 49.2866C54.8221 49.1988 54.9273 49.1549 55.0499 49.1549C55.1726 49.1549 55.2778 49.1988 55.3656 49.2866C55.4535 49.3745 55.4974 49.4797 55.4974 49.6023C55.4974 49.6835 55.4767 49.7581 55.4352 49.8261C55.3955 49.894 55.3416 49.9487 55.2737 49.9901C55.2074 50.0299 55.1328 50.0498 55.0499 50.0498ZM56.5402 50.01V49.5626L58.2206 47.7231C58.4178 47.5076 58.5802 47.3204 58.7078 47.1613C58.8354 47.0005 58.9299 46.8497 58.9912 46.7089C59.0541 46.5664 59.0856 46.4172 59.0856 46.2614C59.0856 46.0825 59.0425 45.9275 58.9564 45.7966C58.8718 45.6657 58.7558 45.5646 58.6084 45.4933C58.4609 45.4221 58.2951 45.3864 58.1112 45.3864C57.9156 45.3864 57.745 45.427 57.5991 45.5082C57.4549 45.5878 57.3431 45.6996 57.2635 45.8438C57.1857 45.988 57.1467 46.157 57.1467 46.3509H56.5601C56.5601 46.0526 56.6288 45.7908 56.7664 45.5654C56.9039 45.34 57.0912 45.1644 57.3282 45.0384C57.5668 44.9125 57.8344 44.8495 58.1311 44.8495C58.4294 44.8495 58.6937 44.9125 58.9241 45.0384C59.1544 45.1644 59.335 45.3342 59.466 45.548C59.5969 45.7618 59.6623 45.9996 59.6623 46.2614C59.6623 46.4487 59.6284 46.6318 59.5604 46.8108C59.4941 46.9881 59.3781 47.1861 59.2124 47.4049C59.0483 47.622 58.8205 47.8871 58.5288 48.2004L57.3853 49.4234V49.4631H59.7518V50.01H56.5402ZM62.3694 50.0796C62.0777 50.0796 61.815 50.0216 61.5814 49.9056C61.3477 49.7896 61.1604 49.6305 61.0196 49.4283C60.8787 49.2262 60.8017 48.9958 60.7884 48.7373H61.385C61.4082 48.9676 61.5126 49.1582 61.6982 49.309C61.8855 49.4582 62.1092 49.5327 62.3694 49.5327C62.5782 49.5327 62.7638 49.4838 62.9262 49.3861C63.0902 49.2883 63.2187 49.1541 63.3115 48.9834C63.4059 48.811 63.4532 48.6163 63.4532 48.3992C63.4532 48.1771 63.4043 47.9791 63.3065 47.8051C63.2104 47.6294 63.0778 47.4911 62.9088 47.39C62.7397 47.2889 62.5467 47.2375 62.3296 47.2359C62.1738 47.2342 62.0139 47.2582 61.8498 47.308C61.6858 47.356 61.5507 47.4182 61.4446 47.4944L60.8679 47.4248L61.1762 44.9191H63.8211V45.466H61.6932L61.5142 46.9674H61.5441C61.6485 46.8845 61.7794 46.8158 61.9368 46.7611C62.0943 46.7064 62.2583 46.679 62.429 46.679C62.7406 46.679 63.0182 46.7536 63.2618 46.9028C63.507 47.0503 63.6993 47.2524 63.8385 47.5093C63.9793 47.7662 64.0498 48.0595 64.0498 48.3893C64.0498 48.7141 63.9768 49.0041 63.831 49.2593C63.6868 49.5129 63.488 49.7134 63.2344 49.8609C62.9809 50.0067 62.6925 50.0796 62.3694 50.0796Z" fill="#0000FF"/>
<path d="M9.88481 37.1229C9.89581 37.2928 9.91281 37.4619 9.93381 37.6298C9.95581 37.7988 9.98381 37.9658 10.0178 38.1324C10.0518 38.2994 10.0928 38.4654 10.1427 38.6284C10.1917 38.7923 10.2497 38.9533 10.3136 39.1126C10.3786 39.2706 10.4506 39.4276 10.5284 39.5793C10.6074 39.7324 10.6934 39.8813 10.7852 40.0273C10.9702 40.3183 11.1822 40.5922 11.4195 40.843C11.6555 41.0939 11.9175 41.322 12.1972 41.5244C12.4772 41.7253 12.7742 41.9003 13.0859 42.0479C13.7039 42.341 14.3789 42.5259 15.0575 42.5849C25.7235 43.0129 36.3965 43.2279 47.0705 43.2279C48.6835 43.2279 50.2965 43.2228 51.9085 43.2133C52.2715 43.1854 52.6345 43.1303 52.9884 43.0488C53.3454 42.9667 53.6944 42.8577 54.035 42.7194C54.714 42.4444 55.355 42.0505 55.884 41.5445C56.149 41.2906 56.385 41.0085 56.5924 40.707C56.7984 40.406 56.9744 40.085 57.12 39.7507C57.266 39.4196 57.382 39.0756 57.469 38.7232C57.555 38.3742 57.612 38.0181 57.636 37.6597L57.6362 7.11543C57.6092 6.71748 57.5352 6.32148 57.4195 5.93989C57.3025 5.55683 57.1445 5.18989 56.9464 4.84113C56.5554 4.15107 56.0104 3.53706 55.3677 3.07917C55.0637 2.86213 54.7377 2.67414 54.3982 2.51618C54.0682 2.36225 53.7272 2.23725 53.376 2.13862C52.702 1.94856 51.999 1.85761 51.3014 1.852C39.4064 1.84492 27.5134 1.86701 15.6197 1.91779C15.2797 1.9228 14.9407 1.95478 14.6054 2.01032C14.2704 2.06733 13.9394 2.14838 13.6185 2.25605C13.1005 2.43305 12.6045 2.68403 12.1568 3.00043C11.9308 3.15937 11.7178 3.33442 11.5209 3.52595C11.3229 3.71894 11.1399 3.92793 10.9736 4.14863C10.8076 4.37165 10.6586 4.60554 10.5277 4.85078C10.3967 5.09577 10.2837 5.3498 10.1894 5.6125C10.0014 6.1385 9.89142 6.6955 9.87012 7.25105L9.88213 36.853" stroke="#16215B" stroke-width="0.283" stroke-miterlimit="10"/>
<path d="M52.5645 39.9726H14.9404C13.7664 39.9727 12.8145 39.0207 12.8145 37.8466V7.23273C12.8144 6.05841 13.7664 5.10638 14.9404 5.10638H18.4844H49.0215H52.5645C53.7394 5.10638 54.6905 6.05841 54.6905 7.23236L54.6904 37.8466C54.6904 39.0207 53.7394 39.9726 52.5645 39.9726Z" stroke="#00FFFF" stroke-width="0.28" stroke-miterlimit="10"/>
<path d="M23.3964 41.7773C32.7854 42.1103 42.2174 41.9924 51.5594 41.4244C51.8585 41.4068 52.1535 41.3648 52.4445 41.2968C52.5175 41.2787 52.5895 41.2598 52.6615 41.2388C52.7335 41.2188 52.8035 41.1968 52.8735 41.1728C53.0145 41.1248 53.1525 41.0698 53.2885 41.0078C53.4225 40.9459 53.5545 40.8758 53.6835 40.7988C53.7475 40.7598 53.8115 40.7198 53.8725 40.6778C53.9355 40.6358 53.9965 40.5928 54.0545 40.5478C54.2905 40.3679 54.5055 40.1628 54.6985 39.9328C54.7465 39.8758 54.7925 39.8168 54.8375 39.7558C54.8825 39.6959 54.9255 39.6348 54.9675 39.5728C55.0505 39.4488 55.1255 39.3209 55.1955 39.1888C55.2655 39.0578 55.3285 38.9228 55.3845 38.7838C55.4135 38.7158 55.4405 38.6448 55.4645 38.5738C55.4905 38.5038 55.5135 38.4318 55.5365 38.3608C55.6235 38.0757 55.6855 37.7868 55.7265 37.4938C55.7665 37.2007 55.7865 36.9058 55.7862 36.6069V33.7859V22.499C55.7862 17.494 55.7862 12.489 55.7871 7.48334C55.7871 7.33136 55.7791 7.17938 55.7651 7.02838C55.7571 6.95245 55.7481 6.87738 55.7361 6.80243C55.7251 6.72736 55.7121 6.65241 55.6961 6.57843C55.6361 6.28241 55.5461 5.99738 55.4241 5.72345C55.3921 5.65436 55.3601 5.58734 55.3261 5.51935C55.2921 5.45245 55.2551 5.38641 55.2171 5.32135C55.1411 5.19135 55.0581 5.06744 54.9691 4.94843C54.7901 4.71137 54.5861 4.49542 54.3561 4.29938C54.2991 4.2514 54.2401 4.20343 54.1811 4.15839C54.1211 4.11237 54.0601 4.0694 53.9991 4.02741C53.8751 3.94342 53.7481 3.86542 53.6171 3.79535C53.4861 3.72345 53.3511 3.65936 53.2141 3.6004C53.1441 3.57135 53.0741 3.5434 53.0041 3.5174C52.9331 3.49042 52.8621 3.46637 52.7911 3.44342C52.5061 3.35138 52.2161 3.28534 51.9221 3.24139C51.6271 3.19745 51.3281 3.17438 51.0263 3.17279C39.5333 3.09784 27.9163 3.09784 16.4257 3.17377C16.1227 3.17584 15.8237 3.19977 15.5287 3.24786C15.3807 3.27179 15.2347 3.30182 15.0877 3.33783C15.0157 3.35687 14.9427 3.37579 14.8707 3.39789C14.7987 3.41888 14.7277 3.44183 14.6567 3.46588C14.3737 3.56281 14.1027 3.68488 13.8437 3.83283C13.7787 3.86981 13.7137 3.90888 13.6517 3.94977C13.5877 3.98981 13.5257 4.0318 13.4647 4.07587C13.3437 4.16278 13.2277 4.2558 13.1157 4.35382C13.0057 4.45184 12.8997 4.55682 12.7997 4.66681C12.7487 4.72186 12.6997 4.77887 12.6527 4.83783C12.6057 4.89581 12.5597 4.95477 12.5157 5.01581C12.3397 5.25678 12.1937 5.51483 12.0737 5.78888C12.0437 5.85785 12.0157 5.92682 11.9897 5.99786C11.9637 6.06781 11.9397 6.13983 11.9167 6.21185C11.8717 6.35577 11.8347 6.50079 11.8057 6.64679C11.7467 6.93988 11.7187 7.23785 11.7198 7.54193C11.7407 17.272 11.7597 27.003 11.7773 36.7328C11.7773 37.0219 11.7983 37.3079 11.8423 37.5899C11.8863 37.8729 11.9523 38.1529 12.0433 38.4279C12.0883 38.5659 12.1393 38.702 12.1973 38.8349C12.2263 38.9009 12.2563 38.9669 12.2883 39.0319C12.3203 39.0969 12.3533 39.1619 12.3883 39.2259C12.5283 39.4799 12.6903 39.7169 12.8763 39.937C12.9683 40.046 13.0673 40.1519 13.1723 40.2529C13.2243 40.3029 13.2783 40.3519 13.3323 40.3989C13.3863 40.4459 13.4423 40.4919 13.4993 40.5359C13.7253 40.7119 13.9673 40.8619 14.2263 40.9879C14.2923 41.0189 14.3573 41.0489 14.4233 41.077C14.4913 41.1049 14.5573 41.1309 14.6263 41.1559C14.7603 41.2049 14.8973 41.2469 15.0363 41.2819C15.3123 41.3519 15.5943 41.3959 15.8828 41.413C20.4278 41.6921 24.9958 41.8651 29.5738 41.9321L23.3964 41.7773Z" stroke="#FF00FF" stroke-width="0.283465" stroke-miterlimit="10" stroke-linecap="round" stroke-linejoin="round"/>
<path fill-rule="evenodd" clip-rule="evenodd" d="M41.0793 22.4825C40.6872 22.4825 40.3693 22.8004 40.3693 23.1925C40.3693 23.5846 40.6872 23.9025 41.0793 23.9025H43.0693C43.3972 23.9025 43.6593 24.1646 43.6593 24.4925V29.3225C43.6593 29.6504 43.3972 29.9125 43.0693 29.9125H35.9491C35.8473 29.9125 35.7795 29.8073 35.8217 29.7146L36.2779 28.711C36.3183 28.622 36.3393 28.5253 36.3393 28.4275V28.4175C36.3393 28.1815 36.2177 27.9621 36.0177 27.8369C35.8176 27.7117 35.5672 27.6983 35.3549 27.8014L31.4496 29.6991C30.6692 30.0665 30.6692 31.1785 31.4496 31.5459L35.3549 33.4436C35.6146 33.5698 35.9256 33.5196 36.1324 33.3181C36.3392 33.1165 36.3974 32.8069 36.2779 32.5441L35.8171 31.5304C35.775 31.4378 35.8428 31.3325 35.9446 31.3325H43.0693C44.1814 31.3325 45.0793 30.4346 45.0793 29.3225V24.4925C45.0793 23.3804 44.1814 22.4825 43.0693 22.4825H41.0793Z" fill="black"/>
<path d="M22.75 16.7501C22.3594 16.7501 22.1201 16.506 22.1201 16.0958V10.3584C22.1201 9.9482 22.3594 9.7041 22.75 9.7041H26.1827C26.5294 9.7041 26.7589 9.9092 26.7589 10.2363C26.7589 10.5634 26.5294 10.7685 26.1827 10.7685H23.5217C23.4434 10.7685 23.38 10.832 23.38 10.9102V12.5311C23.38 12.6094 23.4435 12.6728 23.5217 12.6728H26.0362C26.3585 12.6728 26.5782 12.8632 26.5782 13.1709C26.5782 13.4786 26.3634 13.6738 26.0362 13.6738H23.5217C23.4434 13.6738 23.38 13.7373 23.38 13.8155V15.5438C23.38 15.6221 23.4435 15.6855 23.5217 15.6855H26.1827C26.5294 15.6855 26.7589 15.8906 26.7589 16.2177C26.7589 16.5448 26.5294 16.7499 26.1827 16.7499H22.75V16.7501Z" fill="black"/>
<path d="M40.3614 13.548H38.2722C38.1816 13.548 38.1148 13.4642 38.1338 13.3756C38.2704 12.7369 38.742 12.4093 39.3364 12.4093C39.9308 12.4093 40.3849 12.7241 40.5011 13.3824C40.5164 13.4689 40.4493 13.548 40.3614 13.548ZM39.3316 11.4668C37.8374 11.4668 36.8853 12.5312 36.8853 14.1817C36.8853 15.8322 37.8179 16.8526 39.4 16.8526C40.2002 16.8526 40.7862 16.6748 41.2859 16.1198C41.5096 15.8714 41.4497 15.5007 41.1536 15.3422C40.9042 15.2086 40.6205 15.3367 40.4812 15.4661C40.0385 15.8775 39.7137 15.9151 39.3903 15.9151C38.6441 15.9151 38.1541 15.4304 38.1011 14.6069C38.0958 14.5248 38.1602 14.4551 38.2425 14.4551H41.1967C41.4779 14.4551 41.7073 14.2303 41.7137 13.9492C41.7464 12.5063 40.7712 11.4668 39.3316 11.4668Z" fill="black"/>
<path d="M27.8516 16.2079V12.0858C27.8516 11.7097 28.0714 11.4704 28.4328 11.4704C28.6396 11.4704 28.8086 11.5509 28.9141 11.6919C28.9397 11.7261 28.9615 11.7648 28.9792 11.8013C29.0136 11.872 29.0981 11.9021 29.1688 11.8678C29.435 11.7388 30.0543 11.4753 30.6697 11.4753C31.8126 11.4753 32.4622 12.2079 32.4622 13.4045V16.208C32.4622 16.6183 32.2131 16.8478 31.8566 16.8478C31.5001 16.8478 31.2461 16.6182 31.2461 16.208V13.6488C31.2461 12.9162 30.9042 12.5059 30.2107 12.5059C29.5172 12.5059 29.0678 13.009 29.0678 13.7513V16.208C29.0678 16.6183 28.8138 16.8478 28.4573 16.8478C28.1008 16.8478 27.8516 16.6182 27.8516 16.2079Z" fill="black"/>
<path d="M42.6992 16.2078V12.0856C42.6992 11.7046 42.9336 11.4702 43.2804 11.4702C43.514 11.4702 43.7006 11.5828 43.7932 11.7787C43.7951 11.7827 43.8015 11.7988 43.81 11.8206C43.8441 11.9081 43.9524 11.9391 44.0273 11.8824C44.2297 11.7293 44.612 11.4849 44.9899 11.4849C45.1804 11.4849 45.3269 11.5337 45.4197 11.6168C45.532 11.7096 45.5906 11.8561 45.5906 12.0564C45.5906 12.2567 45.532 12.3885 45.4099 12.4862C45.2927 12.5888 45.112 12.6425 44.8726 12.6474C44.179 12.6523 43.9153 13.087 43.9153 13.717V16.2079C43.9153 16.6084 43.6711 16.8477 43.3048 16.8477C42.9385 16.8477 42.6992 16.6083 42.6992 16.2078Z" fill="black"/>
<path d="M33.9752 15.4706V12.6543C33.9752 12.576 33.9117 12.5126 33.8335 12.5126H33.6481C33.3454 12.5126 33.1597 12.3417 33.1597 12.0487C33.1597 11.7557 33.3452 11.5897 33.6481 11.5897H33.8335C33.9118 11.5897 33.9752 11.5262 33.9752 11.448V10.885C33.9752 10.4943 34.2096 10.2501 34.5857 10.2501C34.9618 10.2501 35.1913 10.4942 35.1913 10.885V11.448C35.1913 11.5263 35.2548 11.5897 35.333 11.5897H35.7529C36.0556 11.5897 36.2413 11.7605 36.2413 12.0487C36.2413 12.3369 36.0558 12.5126 35.7529 12.5126H35.333C35.2547 12.5126 35.1913 12.5761 35.1913 12.6543V15.2069C35.1913 15.5976 35.328 15.7685 35.6797 15.7978L35.7676 15.8076C36.0899 15.8369 36.256 15.9736 36.256 16.2569C36.256 16.6133 35.9435 16.8039 35.3868 16.8039H35.338C34.4346 16.8039 33.9755 16.3546 33.9755 15.4707H33.9753L33.9752 15.4706Z" fill="black"/>
</svg>
