<svg width="82" height="54" viewBox="0 0 82 54" fill="none" xmlns="http://www.w3.org/2000/svg">
<path d="M71.5068 37.0028C71.5848 27.0808 71.6919 17.1588 71.8298 7.23671C71.8199 6.87971 71.7788 6.52272 71.7035 6.17207C71.6305 5.82307 71.5245 5.48207 71.3847 5.15388C71.2467 4.82887 71.0757 4.51692 70.876 4.22517C70.676 3.9352 70.448 3.66518 70.1949 3.42085C69.9419 3.17787 69.6649 2.96083 69.3693 2.77419C69.0733 2.58717 68.7583 2.42921 68.4325 2.30348C68.1065 2.17751 67.7675 2.08156 67.4237 2.01747C67.0777 1.95351 66.7278 1.91945 66.3745 1.91591C49.4605 1.82497 32.5455 1.82497 15.6317 1.91554C15.2937 1.92165 14.9567 1.95461 14.6241 2.01491C14.2921 2.07387 13.9641 2.15981 13.6495 2.27443C13.4005 2.36745 13.1575 2.47841 12.9246 2.605C12.6925 2.73305 12.4685 2.87807 12.2568 3.03871C12.0458 3.20064 11.8468 3.37862 11.663 3.57118C11.4779 3.76521 11.3099 3.9742 11.1587 4.19405C11.0067 4.41499 10.8716 4.64803 10.7538 4.8885C10.6358 5.13155 10.5358 5.38155 10.4525 5.63875C10.2864 6.15474 10.1914 6.69673 10.1777 7.23628C10.3117 17.1583 10.4188 27.0803 10.5002 37.0014C10.5251 37.6633 10.6751 38.3273 10.94 38.9409C11.209 39.5659 11.595 40.1389 12.071 40.6232C12.55 41.1112 13.118 41.5102 13.7408 41.796C14.3578 42.081 15.0288 42.254 15.7026 42.3052C24.1317 42.6482 32.5667 42.8192 41.0034 42.819C49.4394 42.819 57.8744 42.648 66.3044 42.3048C66.9783 42.2537 67.6483 42.0808 68.2662 41.7969C68.8882 41.5099 69.4572 41.1109 69.9361 40.6233C70.4111 40.1383 70.7971 39.5663 71.0675 38.9408C71.3305 38.3278 71.4825 37.6638 71.5066 37.0008" stroke="#16215B" stroke-width="0.283" stroke-miterlimit="10"/>
<path d="M11.7583 38.7131V6.44019C11.7583 5.26575 12.7093 4.31372 13.8843 4.31372H17.4273H64.6312H68.1743C69.3483 4.31372 70.3003 5.26575 70.3003 6.4397V38.7127C70.3003 39.8871 69.3483 40.8391 68.1743 40.8391L13.8843 40.8392C12.7093 40.8392 11.7583 39.8871 11.7583 38.7131Z" stroke="#00FFFF" stroke-width="0.28" stroke-miterlimit="10"/>
<path d="M66.1805 41.1328C49.4365 41.8178 32.5695 41.8178 15.8265 41.1328C15.5304 41.1201 15.2384 41.0831 14.9494 41.0181C14.8044 40.9861 14.6624 40.9471 14.5224 40.9021C14.3833 40.8561 14.2453 40.8051 14.1104 40.746C13.9754 40.6881 13.8443 40.6231 13.7154 40.5521C13.6503 40.5161 13.5864 40.478 13.5224 40.4391C13.4603 40.4001 13.3984 40.3601 13.3384 40.3181C13.0964 40.1501 12.8724 39.9611 12.6694 39.7491C12.6184 39.6961 12.5683 39.642 12.5194 39.5861C12.4714 39.5311 12.4244 39.4731 12.3783 39.4151C12.2874 39.3001 12.2024 39.1801 12.1243 39.0571C11.9684 38.8111 11.8374 38.5521 11.7304 38.28C11.7044 38.2111 11.6794 38.142 11.6564 38.0731C11.6333 38.0031 11.6113 37.9331 11.5914 37.8631C11.5524 37.7231 11.5184 37.582 11.4924 37.4401C11.4393 37.1561 11.4133 36.8691 11.4124 36.577C11.3963 31.7905 11.3783 27.0025 11.3583 22.2155C11.3382 17.4285 11.3153 12.6415 11.2903 7.85347C11.2815 7.69789 11.2755 7.54189 11.2765 7.38692C11.2775 7.23091 11.2865 7.07692 11.3035 6.92293C11.3105 6.8459 11.3215 6.76888 11.3335 6.69191C11.3455 6.61488 11.3595 6.53889 11.3755 6.46193C11.4075 6.31093 11.4475 6.16188 11.4955 6.01491C11.5425 5.86891 11.5975 5.72591 11.6625 5.58492C11.6935 5.51491 11.7275 5.44588 11.7635 5.37691C11.8005 5.30891 11.8385 5.24092 11.8785 5.1739C12.0375 4.90889 12.2245 4.66689 12.4395 4.44691C12.4935 4.39192 12.5495 4.33791 12.6065 4.28688C12.6355 4.2599 12.6645 4.23488 12.6935 4.20888C12.7235 4.18391 12.7535 4.15889 12.7835 4.13393C12.9045 4.03688 13.0305 3.94588 13.1605 3.86293C13.4205 3.69691 13.6985 3.55989 13.9925 3.44893C14.2865 3.33888 14.5875 3.2599 14.8925 3.20692C15.1985 3.15388 15.5105 3.12691 15.8255 3.12587C32.57 3.03389 49.437 3.03389 66.18 3.12587C66.4961 3.12697 66.8081 3.15395 67.1131 3.20692C67.4191 3.25996 67.7201 3.33894 68.0141 3.44893C68.3081 3.55995 68.5851 3.69698 68.8461 3.86293C68.9761 3.94594 69.1011 4.03596 69.2221 4.13393C69.2521 4.15895 69.2821 4.18398 69.3121 4.20894C69.3411 4.23396 69.3701 4.25996 69.4001 4.28596C69.4561 4.33797 69.5121 4.39192 69.5661 4.44698C69.7801 4.66597 69.9681 4.90895 70.1281 5.17397C70.1681 5.23994 70.2061 5.30794 70.2421 5.37697C70.2791 5.44496 70.3121 5.51497 70.3441 5.58498C70.4071 5.72493 70.4631 5.86897 70.5111 6.01497C70.5591 6.16096 70.5991 6.30995 70.6301 6.46193C70.6471 6.53798 70.6601 6.61494 70.6731 6.69093C70.6851 6.76796 70.6951 6.84492 70.7031 6.92195C70.7201 7.07594 70.7281 7.23097 70.7301 7.38594C70.7311 7.54097 70.7251 7.69698 70.7161 7.85292C70.691 12.6401 70.668 17.4281 70.648 22.215C70.627 27.0021 70.61 31.7901 70.594 36.5768C70.593 36.8688 70.566 37.1588 70.513 37.4458C70.486 37.5908 70.452 37.7328 70.412 37.8718C70.372 38.0118 70.326 38.1498 70.273 38.2848C70.22 38.4198 70.16 38.5528 70.094 38.6838C70.061 38.7498 70.026 38.8148 69.99 38.8788C69.952 38.9428 69.914 39.0058 69.875 39.0668C69.717 39.3138 69.536 39.5428 69.332 39.7548C69.282 39.8068 69.229 39.8588 69.175 39.9088C69.121 39.9598 69.066 40.0088 69.009 40.0568C68.896 40.1528 68.78 40.2418 68.659 40.3238C68.417 40.4898 68.161 40.6318 67.89 40.7488C67.823 40.7778 67.753 40.8058 67.684 40.8318C67.615 40.8578 67.545 40.8818 67.475 40.9038C67.335 40.9498 67.194 40.9878 67.051 41.0198C66.766 41.0828 66.475 41.1208 66.1805 41.1328Z" stroke="#FF00FF" stroke-width="0.283465" stroke-miterlimit="10" stroke-linecap="round" stroke-linejoin="round"/>
<path d="M73.2894 46.9191V52.01H72.6729V47.5654H72.6431L71.4002 48.3907V47.7643L72.6729 46.9191H73.2894ZM74.8903 52.0498C74.7676 52.0498 74.6624 52.0059 74.5746 51.918C74.4867 51.8302 74.4428 51.725 74.4428 51.6023C74.4428 51.4797 74.4867 51.3745 74.5746 51.2866C74.6624 51.1988 74.7676 51.1549 74.8903 51.1549C75.0129 51.1549 75.1181 51.1988 75.206 51.2866C75.2938 51.3745 75.3377 51.4797 75.3377 51.6023C75.3377 51.6835 75.317 51.7581 75.2756 51.8261C75.2358 51.894 75.1819 51.9487 75.114 51.9901C75.0477 52.0299 74.9731 52.0498 74.8903 52.0498ZM77.8689 52.0796C77.5772 52.0796 77.3145 52.0216 77.0809 51.9056C76.8472 51.7896 76.6599 51.6305 76.5191 51.4283C76.3782 51.2262 76.3012 50.9958 76.2879 50.7373H76.8845C76.9077 50.9676 77.0121 51.1582 77.1977 51.309C77.385 51.4582 77.6087 51.5327 77.8689 51.5327C78.0777 51.5327 78.2633 51.4838 78.4257 51.3861C78.5898 51.2883 78.7182 51.1541 78.811 50.9834C78.9055 50.811 78.9527 50.6163 78.9527 50.3992C78.9527 50.1771 78.9038 49.9791 78.806 49.8051C78.7099 49.6294 78.5773 49.4911 78.4083 49.39C78.2393 49.2889 78.0462 49.2375 77.8291 49.2359C77.6733 49.2342 77.5134 49.2582 77.3493 49.308C77.1853 49.356 77.0502 49.4182 76.9442 49.4944L76.3675 49.4248L76.6757 46.9191H79.3206V47.466H77.1927L77.0138 48.9674H77.0436C77.148 48.8845 77.2789 48.8158 77.4363 48.7611C77.5938 48.7064 77.7578 48.679 77.9285 48.679C78.2401 48.679 78.5177 48.7536 78.7613 48.9028C79.0065 49.0503 79.1988 49.2524 79.338 49.5093C79.4788 49.7662 79.5493 50.0595 79.5493 50.3893C79.5493 50.7141 79.4764 51.0041 79.3305 51.2593C79.1863 51.5129 78.9875 51.7134 78.7339 51.8609C78.4804 52.0067 78.192 52.0796 77.8689 52.0796Z" fill="#0000FF"/>
<path fill-rule="evenodd" clip-rule="evenodd" d="M28.0793 18.6825C27.6872 18.6825 27.3693 19.0004 27.3693 19.3925C27.3693 19.7846 27.6872 20.1025 28.0793 20.1025H29.0693C29.3972 20.1025 29.6593 20.3646 29.6593 20.6925V22.3225C29.6593 22.6504 29.3972 22.9125 29.0693 22.9125H21.9491C21.8473 22.9125 21.7795 22.8073 21.8217 22.7146L22.2779 21.711C22.3183 21.6219 22.3393 21.5253 22.3393 21.4275V21.4175C22.3393 21.1815 22.2177 20.9621 22.0177 20.8369C21.8176 20.7116 21.5672 20.6982 21.3549 20.8014L17.4496 22.6991C16.6692 23.0665 16.6692 24.1785 17.4496 24.5459L21.3549 26.4436C21.6146 26.5698 21.9256 26.5196 22.1324 26.3181C22.3392 26.1165 22.3974 25.8069 22.2779 25.544L21.8171 24.5304C21.775 24.4377 21.8428 24.3325 21.9446 24.3325H29.0693C30.1814 24.3325 31.0793 23.4346 31.0793 22.3225V20.6925C31.0793 19.5804 30.1814 18.6825 29.0693 18.6825H28.0793Z" fill="black"/>
<path d="M35.75 25.7501C35.3594 25.7501 35.1201 25.506 35.1201 25.0958V19.3584C35.1201 18.9482 35.3594 18.7041 35.75 18.7041H39.1827C39.5294 18.7041 39.7589 18.9092 39.7589 19.2363C39.7589 19.5634 39.5294 19.7685 39.1827 19.7685H36.5217C36.4434 19.7685 36.38 19.832 36.38 19.9102V21.5311C36.38 21.6094 36.4435 21.6728 36.5217 21.6728H39.0362C39.3585 21.6728 39.5782 21.8632 39.5782 22.1709C39.5782 22.4786 39.3634 22.6738 39.0362 22.6738H36.5217C36.4434 22.6738 36.38 22.7373 36.38 22.8155V24.5438C36.38 24.6221 36.4435 24.6855 36.5217 24.6855H39.1827C39.5294 24.6855 39.7589 24.8906 39.7589 25.2177C39.7589 25.5448 39.5294 25.7499 39.1827 25.7499H35.75V25.7501Z" fill="black"/>
<path d="M52.3315 20.4668C50.8374 20.4668 49.8853 21.5312 49.8853 23.1816C49.8853 24.832 50.8179 25.8524 52.3999 25.8524C53.2001 25.8524 53.786 25.6746 54.2857 25.1196C54.5094 24.8712 54.4495 24.5005 54.1534 24.342C53.904 24.2084 53.6203 24.3365 53.481 24.4659C53.0383 24.8773 52.7135 24.9149 52.3901 24.9149C51.6439 24.9149 51.154 24.4302 51.101 23.6068C51.0957 23.5247 51.1601 23.455 51.2424 23.455H54.1965C54.4777 23.455 54.7071 23.2302 54.7135 22.9491C54.7462 21.5063 53.771 20.4668 52.3315 20.4668ZM53.3613 22.6011H51.2722C51.1816 22.6011 51.1148 22.5173 51.1338 22.4287C51.2704 21.79 51.742 21.4093 52.3363 21.4093C52.9306 21.4093 53.3848 21.7772 53.501 22.4355C53.5163 22.522 53.4491 22.6011 53.3612 22.6011H53.3613Z" fill="black"/>
<path d="M41.458 25.8477C41.1016 25.8477 40.8525 25.6182 40.8525 25.208V21.0869C40.8525 20.7109 41.0722 20.4717 41.4336 20.4717C41.5828 20.4717 41.7576 20.5108 41.8928 20.6658C41.9393 20.7191 41.9706 20.7786 41.9918 20.8328C42.0233 20.9137 42.1198 20.9471 42.1948 20.9033C42.458 20.7497 43.0177 20.4766 43.67 20.4766C44.8126 20.4766 45.462 21.209 45.462 22.4053V25.2081C45.462 25.6183 45.213 25.8478 44.8565 25.8478C44.5 25.8478 44.2461 25.6183 44.2461 25.2081V22.6495C44.2461 21.9171 43.9043 21.5069 43.2109 21.5069C42.5175 21.5069 42.0683 22.0098 42.0683 22.752V25.2081C42.0683 25.6183 41.8144 25.8478 41.4579 25.8478L41.458 25.8477Z" fill="black"/>
<path d="M56.3057 25.8477C55.9395 25.8477 55.7002 25.6084 55.7002 25.208V21.0869C55.7002 20.706 55.9346 20.4717 56.2813 20.4717C56.628 20.4717 56.7659 20.7042 56.8111 20.8202C56.8175 20.8365 56.823 20.8535 56.8278 20.8707C56.8569 20.9748 56.9888 21.007 57.0648 20.9302C57.2613 20.7318 57.5861 20.4863 57.9903 20.4863C58.1807 20.4863 58.3272 20.5351 58.42 20.6181C58.5323 20.7109 58.5909 20.8574 58.5909 21.0576C58.5909 21.2578 58.5323 21.3896 58.4102 21.4873C58.293 21.5898 58.1123 21.6436 57.8731 21.6484C57.1797 21.6533 56.9161 22.0879 56.9161 22.7177V25.208C56.9161 25.6084 56.672 25.8477 56.3057 25.8477Z" fill="black"/>
<path d="M46.9751 24.4708V21.6535C46.9751 21.5752 46.9116 21.5118 46.8334 21.5118H46.648C46.3453 21.5118 46.1597 21.3311 46.1597 21.0382C46.1597 20.7453 46.3452 20.5743 46.648 20.5743H46.8334C46.9117 20.5743 46.9751 20.5108 46.9751 20.4326V19.8858C46.9751 19.4952 47.2095 19.251 47.5855 19.251C47.9615 19.251 48.191 19.4951 48.191 19.8858V20.4326C48.191 20.5109 48.2545 20.5743 48.3327 20.5743H48.7525C49.0552 20.5743 49.2408 20.7501 49.2408 21.0382C49.2408 21.3263 49.0553 21.5118 48.7525 21.5118H48.3327C48.2544 21.5118 48.191 21.5753 48.191 21.6535V24.2071C48.191 24.5977 48.3277 24.7686 48.6793 24.7979L48.7672 24.8077C49.0895 24.837 49.2555 24.9737 49.2555 25.2569C49.2555 25.6133 48.943 25.8038 48.3864 25.8038H48.3376C47.4343 25.8038 46.9753 25.3546 46.9753 24.4708H46.9751Z" fill="black"/>
</svg>
