<svg width="122" height="54" viewBox="0 0 122 54" fill="none" xmlns="http://www.w3.org/2000/svg">
<path d="M110.346 40.8597C109.867 41.3588 109.292 41.7657 108.662 42.0547C108.035 42.3424 107.356 42.5134 106.673 42.5664C91.535 43.0283 76.392 43.2593 61.247 43.2593C46.1022 43.2595 30.9592 43.0284 15.8212 42.5664C15.1389 42.5129 14.4589 42.3339 13.8349 42.0479C13.5195 41.9038 13.2175 41.7328 12.9355 41.5337C12.6523 41.335 12.3873 41.1089 12.1483 40.8589C11.9087 40.6085 11.6937 40.3364 11.5067 40.0454C11.3212 39.7554 11.1622 39.4495 11.0313 39.1304C10.7718 38.4998 10.6188 37.8187 10.5888 37.1396L10.5732 7.25537C10.5995 6.52502 10.7835 5.79309 11.0985 5.12598C11.4123 4.46387 11.8563 3.86292 12.4023 3.38086C12.9453 2.90198 13.5893 2.53894 14.2744 2.29492C14.9592 2.05103 15.6832 1.927 16.4042 1.91992C46.2998 1.82202 76.1938 1.82202 106.09 1.91992C106.451 1.92505 106.814 1.95813 107.171 2.02002C107.528 2.08154 107.879 2.17053 108.22 2.2915C108.904 2.53345 109.547 2.90137 110.092 3.38135C110.639 3.86462 111.086 4.46155 111.399 5.12451C111.714 5.79138 111.895 6.52441 111.921 7.25537L111.905 37.1396C111.875 37.8193 111.73 38.5004 111.468 39.1324C111.204 39.7715 110.824 40.3615 110.346 40.8597Z" stroke="#16215B" stroke-width="0.283" stroke-miterlimit="10"/>
<path d="M11.7354 6.23291V38.5249C11.7354 39.699 12.6873 40.651 13.8613 40.651L108.631 40.6509C109.805 40.6509 110.757 39.699 110.757 38.5249V6.2334C110.757 5.05945 109.805 4.10742 108.631 4.10742H102.253H13.8612C12.6872 4.10742 11.7352 5.05945 11.7354 6.23291Z" stroke="#00FFFF" stroke-width="0.28" stroke-miterlimit="10"/>
<path d="M13.3109 40.5879C13.3789 40.631 13.4489 40.672 13.5199 40.7119C13.5839 40.7469 13.6499 40.781 13.7159 40.813C13.7829 40.845 13.8499 40.876 13.9169 40.9039C14.1869 41.0189 14.4659 41.106 14.7529 41.1659C14.8969 41.1959 15.0419 41.22 15.1889 41.2369C15.3349 41.255 15.4819 41.2649 15.6289 41.2699C45.9943 42.2346 76.4553 42.2346 106.819 41.2706C106.857 41.27 106.894 41.269 106.931 41.2671M106.931 41.2671C106.968 41.2661 107.005 41.2631 107.042 41.2611C107.115 41.2561 107.188 41.25 107.261 41.2421C107.407 41.2261 107.551 41.2041 107.695 41.175C107.981 41.1171 108.262 41.0331 108.538 40.9191C108.607 40.8911 108.674 40.8611 108.742 40.8291M106.931 41.2671C106.895 41.269 106.859 41.27 106.821 41.2706C76.4562 42.2346 45.9952 42.2346 15.6312 41.2693C15.4842 41.2653 15.3372 41.2543 15.1912 41.2373C15.0442 41.2203 14.8992 41.1963 14.7552 41.1663C14.4682 41.1052 14.1892 41.0193 13.9182 40.9043C13.8512 40.8763 13.7832 40.8453 13.7172 40.8132C13.6512 40.7813 13.5852 40.7473 13.5212 40.7113C13.3932 40.6403 13.2692 40.5632 13.1492 40.4802C13.0302 40.3962 12.9142 40.3063 12.8042 40.2103C12.7482 40.1622 12.6952 40.1133 12.6422 40.0613C12.5892 40.0103 12.5372 39.9573 12.4872 39.9033C12.2862 39.6873 12.1132 39.4523 11.9632 39.2023C11.8882 39.0763 11.8202 38.9473 11.7572 38.8132C11.6952 38.6793 11.6392 38.5433 11.5902 38.4053C11.5402 38.2673 11.4982 38.1263 11.4622 37.9833C11.4252 37.8413 11.3962 37.6973 11.3722 37.5532C11.3242 37.2633 11.3022 36.9723 11.3012 36.6782L11.2999 36.6787C11.279 26.9927 11.2549 17.3066 11.229 7.62061L11.2981 36.6782C11.278 26.9922 11.254 17.3062 11.2271 7.62012L11.2256 7.62024C11.2246 7.30725 11.2566 6.99829 11.3216 6.69434C11.3376 6.61829 11.3556 6.54224 11.3776 6.46729C11.3976 6.39124 11.4206 6.31726 11.4446 6.24329C11.4947 6.09631 11.5526 5.95227 11.6186 5.81226C11.6516 5.74133 11.6866 5.67224 11.7237 5.60425C11.7616 5.53528 11.8017 5.46826 11.8416 5.40234C11.8886 5.32532 11.9386 5.25134 11.9917 5.17822L12.4847 4.6084C12.5167 4.57739 12.5497 4.54736 12.5827 4.51733C12.6407 4.46533 12.6997 4.41443 12.7597 4.36536C13.0017 4.16943 13.2597 4.00134 13.5357 3.8584C13.6037 3.82141 13.6737 3.78735 13.7447 3.75537C13.8147 3.72144 13.8867 3.69043 13.9587 3.66138C14.1027 3.60242 14.2487 3.54944 14.3957 3.50439C14.6917 3.41235 14.9947 3.34436 15.3037 3.30042C15.4587 3.27844 15.6137 3.26233 15.7697 3.25134C15.8467 3.24634 15.9257 3.24243 16.0037 3.23938C16.0427 3.2384 16.0817 3.23743 16.1207 3.23633C16.1598 3.23633 16.1988 3.23633 16.2378 3.23633H16.2394C46.2264 3.13342 76.3064 3.13342 106.293 3.23633C106.6 3.23706 106.905 3.25903 107.208 3.30298C107.284 3.31506 107.36 3.32703 107.435 3.34106C107.509 3.35498 107.584 3.37 107.659 3.38696C107.806 3.42004 107.953 3.45898 108.097 3.50403C108.385 3.59399 108.665 3.70703 108.937 3.84705C109.005 3.88196 109.073 3.91907 109.138 3.95801M106.931 41.2671C106.968 41.2661 107.007 41.2631 107.044 41.2611C107.117 41.2561 107.19 41.25 107.263 41.2421C107.409 41.2261 107.553 41.2041 107.697 41.175C107.983 41.1171 108.264 41.0331 108.54 40.9191C108.608 40.8911 108.675 40.8611 108.742 40.8291M108.742 40.8291C108.808 40.797 108.875 40.764 108.939 40.729C109.009 40.691 109.078 40.651 109.145 40.6101L110.726 38.832C110.727 38.8301 110.729 38.8281 110.73 38.826M108.742 40.8291C108.809 40.797 108.876 40.764 108.941 40.729C109.07 40.6591 109.196 40.583 109.317 40.499C109.438 40.416 109.555 40.326 109.669 40.229C109.725 40.181 109.78 40.1311 109.834 40.0791C109.887 40.0281 109.939 39.9761 109.99 39.921C110.192 39.7061 110.369 39.472 110.521 39.218C110.56 39.1541 110.596 39.0891 110.632 39.024C110.667 38.958 110.699 38.8921 110.73 38.826M110.73 38.826C110.792 38.6921 110.849 38.5562 110.898 38.4171C110.948 38.2791 110.991 38.1381 111.028 37.9951M110.73 38.826C110.794 38.692 110.85 38.556 110.9 38.4171C110.95 38.2791 110.992 38.1381 111.028 37.9951M111.028 37.9951C111.064 37.8531 111.095 37.707 111.119 37.561C111.167 37.269 111.191 36.9751 111.191 36.6781L111.194 36.6782C111.215 26.9532 111.239 17.2273 111.266 7.50232C111.264 7.42505 111.26 7.349 111.254 7.27307C111.248 7.19604 111.241 7.12097 111.231 7.04504C111.211 6.89502 111.185 6.74597 111.149 6.59802C111.114 6.45105 111.071 6.30603 111.019 6.16199C110.993 6.08997 110.964 6.01807 110.935 5.948C110.905 5.87805 110.873 5.80896 110.839 5.74097C110.705 5.46997 110.541 5.21606 110.35 4.98096C110.302 4.922 110.252 4.86401 110.201 4.80701C110.149 4.75098 110.096 4.69604 110.041 4.64197C109.933 4.53601 109.82 4.43506 109.702 4.34106C109.583 4.24707 109.46 4.15906 109.333 4.07605C109.269 4.03503 109.204 3.99597 109.138 3.95801M111.028 37.9951C111.065 37.853 111.096 37.707 111.121 37.561C111.169 37.269 111.192 36.9751 111.193 36.6781C111.214 26.9532 111.237 17.2273 111.264 7.50232L109.959 4.56445C109.875 4.48657 109.789 4.41248 109.7 4.34045C109.582 4.24646 109.459 4.15857 109.331 4.07654C109.268 4.03552 109.203 3.99597 109.138 3.95801M109.138 3.95801C109.071 3.91895 109.003 3.88257 108.935 3.84753C108.664 3.70752 108.383 3.59351 108.095 3.50354C107.95 3.45947 107.805 3.41956 107.656 3.38647C107.582 3.37048 107.508 3.35449 107.433 3.34045C107.357 3.32751 107.282 3.31445 107.206 3.30347C106.903 3.25854 106.598 3.23755 106.291 3.23633C104.944 3.23145 103.598 3.22742 102.25 3.22339" stroke="#FF00FF" stroke-width="0.283465" stroke-miterlimit="10" stroke-linecap="round" stroke-linejoin="round"/>
<path d="M106.874 52.01V51.5626L108.554 49.7231C108.751 49.5076 108.914 49.3204 109.041 49.1613C109.169 49.0005 109.263 48.8497 109.325 48.7089C109.388 48.5664 109.419 48.4172 109.419 48.2614C109.419 48.0825 109.376 47.9275 109.29 47.7966C109.205 47.6657 109.089 47.5646 108.942 47.4933C108.794 47.4221 108.629 47.3864 108.445 47.3864C108.249 47.3864 108.078 47.427 107.933 47.5082C107.788 47.5878 107.677 47.6996 107.597 47.8438C107.519 47.988 107.48 48.157 107.48 48.3509H106.894C106.894 48.0526 106.962 47.7908 107.1 47.5654C107.237 47.34 107.425 47.1644 107.662 47.0384C107.9 46.9125 108.168 46.8495 108.465 46.8495C108.763 46.8495 109.027 46.9125 109.258 47.0384C109.488 47.1644 109.669 47.3342 109.799 47.548C109.93 47.7618 109.996 47.9996 109.996 48.2614C109.996 48.4487 109.962 48.6318 109.894 48.8108C109.828 48.9881 109.712 49.1861 109.546 49.4049C109.382 49.622 109.154 49.8871 108.862 50.2004L107.719 51.4234V51.4631H110.085V52.01H106.874ZM111.549 52.0498C111.427 52.0498 111.322 52.0059 111.234 51.918C111.146 51.8302 111.102 51.725 111.102 51.6023C111.102 51.4797 111.146 51.3745 111.234 51.2866C111.322 51.1988 111.427 51.1549 111.549 51.1549C111.672 51.1549 111.777 51.1988 111.865 51.2866C111.953 51.3745 111.997 51.4797 111.997 51.6023C111.997 51.6835 111.976 51.7581 111.935 51.8261C111.895 51.894 111.841 51.9487 111.773 51.9901C111.707 52.0299 111.632 52.0498 111.549 52.0498ZM113.04 52.01V51.5626L114.72 49.7231C114.917 49.5076 115.08 49.3204 115.207 49.1613C115.335 49.0005 115.429 48.8497 115.491 48.7089C115.554 48.5664 115.585 48.4172 115.585 48.2614C115.585 48.0825 115.542 47.9275 115.456 47.7966C115.371 47.6657 115.255 47.5646 115.108 47.4933C114.96 47.4221 114.795 47.3864 114.611 47.3864C114.415 47.3864 114.244 47.427 114.099 47.5082C113.954 47.5878 113.843 47.6996 113.763 47.8438C113.685 47.988 113.646 48.157 113.646 48.3509H113.06C113.06 48.0526 113.128 47.7908 113.266 47.5654C113.403 47.34 113.591 47.1644 113.828 47.0384C114.066 46.9125 114.334 46.8495 114.631 46.8495C114.929 46.8495 115.193 46.9125 115.424 47.0384C115.654 47.1644 115.835 47.3342 115.965 47.548C116.096 47.7618 116.162 47.9996 116.162 48.2614C116.162 48.4487 116.128 48.6318 116.06 48.8108C115.994 48.9881 115.878 49.1861 115.712 49.4049C115.548 49.622 115.32 49.8871 115.028 50.2004L113.885 51.4234V51.4631H116.251V52.01H113.04ZM118.869 52.0796C118.577 52.0796 118.315 52.0216 118.081 51.9056C117.847 51.7896 117.66 51.6305 117.519 51.4283C117.378 51.2262 117.301 50.9958 117.288 50.7373H117.884C117.908 50.9676 118.012 51.1582 118.198 51.309C118.385 51.4582 118.609 51.5327 118.869 51.5327C119.078 51.5327 119.263 51.4838 119.426 51.3861C119.59 51.2883 119.718 51.1541 119.811 50.9834C119.905 50.811 119.953 50.6163 119.953 50.3992C119.953 50.1771 119.904 49.9791 119.806 49.8051C119.71 49.6294 119.577 49.4911 119.408 49.39C119.239 49.2889 119.046 49.2375 118.829 49.2359C118.673 49.2342 118.513 49.2582 118.349 49.308C118.185 49.356 118.05 49.4182 117.944 49.4944L117.367 49.4248L117.676 46.9191H120.321V47.466H118.193L118.014 48.9674H118.044C118.148 48.8845 118.279 48.8158 118.436 48.7611C118.594 48.7064 118.758 48.679 118.929 48.679C119.24 48.679 119.518 48.7536 119.761 48.9028C120.007 49.0503 120.199 49.2524 120.338 49.5093C120.479 49.7662 120.549 50.0595 120.549 50.3893C120.549 50.7141 120.476 51.0041 120.331 51.2593C120.186 51.5129 119.987 51.7134 119.734 51.8609C119.48 52.0067 119.192 52.0796 118.869 52.0796Z" fill="#0000FF"/>
<path d="M17.75 25.7501C17.3594 25.7501 17.1201 25.506 17.1201 25.0958V19.3584C17.1201 18.9482 17.3594 18.7041 17.75 18.7041H21.1827C21.5294 18.7041 21.7589 18.9092 21.7589 19.2363C21.7589 19.5634 21.5294 19.7685 21.1827 19.7685H18.5217C18.4434 19.7685 18.38 19.832 18.38 19.9102V21.5311C18.38 21.6094 18.4435 21.6728 18.5217 21.6728H21.0362C21.3585 21.6728 21.5782 21.8632 21.5782 22.1709C21.5782 22.4786 21.3634 22.6738 21.0362 22.6738H18.5217C18.4434 22.6738 18.38 22.7373 18.38 22.8155V24.5438C18.38 24.6221 18.4435 24.6855 18.5217 24.6855H21.1827C21.5294 24.6855 21.7589 24.8906 21.7589 25.2177C21.7589 25.5448 21.5294 25.7499 21.1827 25.7499H17.75V25.7501Z" fill="black"/>
<path d="M35.3614 22.548H33.2722C33.1816 22.548 33.1148 22.4642 33.1338 22.3756C33.2704 21.7369 33.742 21.4093 34.3364 21.4093C34.9308 21.4093 35.3849 21.7241 35.5011 22.3824C35.5164 22.4689 35.4493 22.548 35.3614 22.548ZM34.3316 20.4668C32.8374 20.4668 31.8853 21.5312 31.8853 23.1817C31.8853 24.8322 32.8179 25.8526 34.4 25.8526C35.2002 25.8526 35.7862 25.6748 36.2859 25.1198C36.5096 24.8714 36.4497 24.5007 36.1536 24.3422C35.9042 24.2086 35.6205 24.3367 35.4812 24.4661C35.0385 24.8775 34.7137 24.9151 34.3903 24.9151C33.6441 24.9151 33.1541 24.4304 33.1011 23.6069C33.0958 23.5248 33.1602 23.4551 33.2425 23.4551H36.1967C36.4779 23.4551 36.7073 23.2303 36.7137 22.9492C36.7464 21.5063 35.7712 20.4668 34.3316 20.4668Z" fill="black"/>
<path d="M22.8516 25.2079V21.0858C22.8516 20.7097 23.0714 20.4704 23.4328 20.4704C23.6396 20.4704 23.8086 20.5509 23.9141 20.6919C23.9397 20.7261 23.9615 20.7648 23.9792 20.8013C24.0136 20.872 24.0981 20.9021 24.1688 20.8678C24.435 20.7388 25.0543 20.4753 25.6697 20.4753C26.8126 20.4753 27.4622 21.2079 27.4622 22.4045V25.208C27.4622 25.6183 27.2131 25.8478 26.8566 25.8478C26.5001 25.8478 26.2461 25.6182 26.2461 25.208V22.6488C26.2461 21.9162 25.9042 21.5059 25.2107 21.5059C24.5172 21.5059 24.0678 22.009 24.0678 22.7513V25.208C24.0678 25.6183 23.8138 25.8478 23.4573 25.8478C23.1008 25.8478 22.8516 25.6182 22.8516 25.2079Z" fill="black"/>
<path d="M37.6992 25.2078V21.0856C37.6992 20.7046 37.9336 20.4702 38.2804 20.4702C38.514 20.4702 38.7006 20.5828 38.7932 20.7787C38.7951 20.7827 38.8015 20.7988 38.81 20.8206C38.8441 20.9081 38.9524 20.9391 39.0273 20.8824C39.2297 20.7293 39.612 20.4849 39.9899 20.4849C40.1804 20.4849 40.3269 20.5337 40.4197 20.6168C40.532 20.7096 40.5906 20.8561 40.5906 21.0564C40.5906 21.2567 40.532 21.3885 40.4099 21.4862C40.2927 21.5888 40.112 21.6425 39.8726 21.6474C39.179 21.6523 38.9153 22.087 38.9153 22.717V25.2079C38.9153 25.6084 38.6711 25.8477 38.3048 25.8477C37.9385 25.8477 37.6992 25.6083 37.6992 25.2078Z" fill="black"/>
<path d="M28.9752 24.4706V21.6543C28.9752 21.576 28.9117 21.5126 28.8335 21.5126H28.6481C28.3454 21.5126 28.1597 21.3417 28.1597 21.0487C28.1597 20.7557 28.3452 20.5897 28.6481 20.5897H28.8335C28.9118 20.5897 28.9752 20.5262 28.9752 20.448V19.885C28.9752 19.4943 29.2096 19.2501 29.5857 19.2501C29.9618 19.2501 30.1913 19.4942 30.1913 19.885V20.448C30.1913 20.5263 30.2548 20.5897 30.333 20.5897H30.7529C31.0556 20.5897 31.2413 20.7605 31.2413 21.0487C31.2413 21.3369 31.0558 21.5126 30.7529 21.5126H30.333C30.2547 21.5126 30.1913 21.5761 30.1913 21.6543V24.2069C30.1913 24.5976 30.328 24.7685 30.6797 24.7978L30.7676 24.8076C31.0899 24.8369 31.256 24.9736 31.256 25.2569C31.256 25.6133 30.9435 25.8039 30.3868 25.8039H30.338C29.4346 25.8039 28.9755 25.3546 28.9755 24.4707H28.9753L28.9752 24.4706Z" fill="black"/>
</svg>
