<svg width="95" height="55" viewBox="0 0 95 55" fill="none" xmlns="http://www.w3.org/2000/svg">
<path d="M84.0363 40.0264C83.8513 40.3174 83.6393 40.5923 83.4034 40.8433C83.1669 41.095 82.9059 41.324 82.627 41.5259C82.3473 41.7273 82.0493 41.9023 81.7373 42.0503C81.1186 42.342 80.4436 42.526 79.7646 42.585C69.0999 43.0131 58.4269 43.2271 47.752 43.2271C37.0782 43.2271 26.4052 43.0131 15.7403 42.585C15.4005 42.5553 15.0625 42.4944 14.7335 42.4043C14.4016 42.314 14.0796 42.194 13.7686 42.0479C13.457 41.9005 13.158 41.7264 12.879 41.5244C12.5985 41.3229 12.3376 41.0948 12.1006 40.8428C11.8648 40.5919 11.6538 40.318 11.4688 40.0259C11.285 39.7349 11.1291 39.428 11.0001 39.1099C10.8712 38.7935 10.7702 38.4655 10.6963 38.1313C10.6245 37.7996 10.5795 37.4617 10.5635 37.1226L10.5518 7.25146C10.5794 6.52539 10.7594 5.79639 11.0674 5.1333C11.2211 4.80237 11.4061 4.4884 11.6211 4.19531C11.8347 3.90369 12.0777 3.63269 12.3477 3.39062C12.8813 2.91138 13.5154 2.54541 14.1934 2.29834C14.8688 2.05151 15.5868 1.92554 16.3008 1.91748C37.2681 1.82751 58.2361 1.82751 79.2041 1.91748C79.4579 1.92175 79.7119 1.94067 79.9639 1.97266C80.215 2.00488 80.465 2.0509 80.712 2.11182C80.8762 2.15198 81.0392 2.19995 81.1992 2.25391C81.717 2.43115 82.215 2.68115 82.6631 2.99707C82.8888 3.15649 83.1017 3.33252 83.2998 3.52344C83.4985 3.71606 83.6825 3.92407 83.8495 4.14502C84.1837 4.58838 84.4497 5.08447 84.6367 5.60938C84.8241 6.13757 84.9321 6.69458 84.9521 7.25146L84.9414 37.1226C84.9099 37.7999 84.7628 38.4799 84.5071 39.1105C84.3781 39.4294 84.2212 39.7365 84.0363 40.0264Z" stroke="#16215B" stroke-width="0.283" stroke-miterlimit="10"/>
<path d="M17.4952 4.0835H13.9512M13.9512 4.0835C13.9508 4.0835 81.5518 4.0835 81.5518 4.0835C82.7258 4.0835 83.6778 5.03552 83.6778 6.20996C83.6778 6.20996 83.6778 38.5469 83.6778 38.5469C83.6778 39.7209 82.7258 40.6729 81.5522 40.6729C81.5522 40.6729 13.9512 40.6729 13.9512 40.673C12.7772 40.673 11.8252 39.7209 11.8252 38.5465C11.8252 38.5465 11.8252 6.20947 11.8252 6.20959C11.8252 5.03552 12.7772 4.0835 13.9512 4.0835Z" stroke="#00FFFF" stroke-width="0.28" stroke-miterlimit="10"/>
<path d="M84.2106 7.59483C84.1836 17.2888 84.1596 26.9818 84.1386 36.6758C84.1369 36.9681 84.1139 37.2572 84.0689 37.5422C84.0229 37.8271 83.9549 38.1072 83.8599 38.3822C83.8369 38.4512 83.8119 38.5201 83.7839 38.5881C83.7579 38.6562 83.7289 38.7242 83.6979 38.7911C83.6379 38.9252 83.5709 39.0552 83.4989 39.1811C83.4259 39.3071 83.3479 39.4292 83.2619 39.5482C83.1769 39.6661 83.0849 39.7812 82.9869 39.8912C82.7899 40.1112 82.5739 40.3071 82.3389 40.4781C82.2219 40.5642 82.0989 40.6432 81.9719 40.7171C81.9079 40.7541 81.8429 40.7892 81.7769 40.8232C81.7119 40.8562 81.6459 40.8882 81.5789 40.9172C81.3129 41.0361 81.0349 41.1272 80.7499 41.1921C80.6789 41.2081 80.6059 41.2231 80.5339 41.2362C80.4619 41.2482 80.3889 41.2601 80.3159 41.2691C80.1709 41.2882 80.0239 41.3011 79.8769 41.3071C58.497 42.1966 37.002 42.1966 15.622 41.3066C15.4742 41.3013 15.3292 41.2883 15.1832 41.2693C15.1112 41.2602 15.0392 41.2483 14.9672 41.2363C14.8942 41.2233 14.8222 41.2082 14.7512 41.1922C14.4662 41.1283 14.1902 41.0372 13.9242 40.9193C13.8572 40.8893 13.7912 40.8583 13.7252 40.8243C13.6602 40.7912 13.5952 40.7562 13.5322 40.7192C13.4052 40.6462 13.2832 40.5672 13.1662 40.4813C12.9302 40.3103 12.7152 40.1163 12.5182 39.8962C12.4692 39.8423 12.4222 39.7853 12.3762 39.7283C12.3302 39.6722 12.2862 39.6142 12.2432 39.5543C12.1582 39.4363 12.0792 39.3143 12.0072 39.1893C11.9332 39.0632 11.8672 38.9343 11.8062 38.8013C11.7762 38.7342 11.7482 38.6662 11.7202 38.5983C11.6932 38.5303 11.6682 38.4613 11.6432 38.3912C11.6202 38.3223 11.5972 38.2523 11.5772 38.1822C11.5552 38.1123 11.5372 38.0422 11.5192 37.9713C11.4842 37.8303 11.4562 37.6882 11.4322 37.5462C11.3872 37.2602 11.3652 36.9703 11.3639 36.6778C11.3429 26.9839 11.3189 17.2878 11.292 7.59251C11.292 7.43846 11.299 7.28453 11.314 7.13145C11.322 7.05553 11.332 6.9785 11.344 6.90245C11.355 6.82652 11.369 6.75047 11.385 6.67455C11.448 6.3745 11.543 6.08543 11.669 5.80846C11.7 5.73851 11.734 5.67052 11.77 5.60252C11.788 5.56847 11.806 5.53453 11.825 5.50145C11.844 5.46751 11.863 5.43456 11.883 5.40147C11.962 5.27049 12.048 5.14452 12.14 5.02354C12.324 4.78355 12.533 4.56444 12.767 4.36754C12.825 4.31749 12.886 4.27049 12.946 4.2235C13.008 4.17747 13.07 4.13255 13.133 4.08946C13.26 4.00352 13.39 3.92455 13.522 3.85252C13.656 3.77953 13.793 3.71349 13.933 3.65355C14.003 3.62352 14.073 3.59447 14.145 3.56749C14.217 3.54149 14.29 3.51549 14.363 3.49144C14.655 3.39647 14.952 3.3275 15.253 3.2805C15.554 3.23448 15.858 3.21153 16.1659 3.21043C37.1869 3.11644 58.3159 3.11644 79.3368 3.2108C79.6458 3.21178 79.9508 3.23473 80.2528 3.28172C80.4028 3.30382 80.5538 3.33373 80.7028 3.36876C80.8518 3.40379 81.0008 3.44579 81.1468 3.49278C81.4378 3.58873 81.7168 3.70775 81.9848 3.85472C82.0528 3.89073 82.1178 3.92882 82.1838 3.96971C82.2488 4.00975 82.3148 4.05174 82.3768 4.09471C82.5038 4.18077 82.6248 4.27281 82.7408 4.37071C82.8578 4.46873 82.9678 4.57274 83.0728 4.68272C83.1258 4.73875 83.1768 4.79478 83.2268 4.85374C83.2758 4.91173 83.3248 4.97179 83.3708 5.03282C83.5568 5.27574 83.7118 5.53575 83.8378 5.81383C83.8688 5.8828 83.8998 5.95274 83.9268 6.02477C83.9538 6.09581 83.9808 6.16881 84.0038 6.24083C84.0518 6.3878 84.0908 6.53477 84.1218 6.6848C84.1838 6.98277 84.2138 7.28575 84.2128 7.59471" stroke="#FF00FF" stroke-width="0.283465" stroke-miterlimit="10" stroke-linecap="round" stroke-linejoin="round"/>
<path d="M75.3592 46.9191V52.01H74.7428V47.5654H74.7129L73.47 48.3907V47.7643L74.7428 46.9191H75.3592ZM76.9601 52.0498C76.8375 52.0498 76.7322 52.0059 76.6444 51.918C76.5566 51.8302 76.5127 51.725 76.5127 51.6023C76.5127 51.4797 76.5566 51.3745 76.6444 51.2866C76.7322 51.1988 76.8375 51.1549 76.9601 51.1549C77.0827 51.1549 77.188 51.1988 77.2758 51.2866C77.3636 51.3745 77.4075 51.4797 77.4075 51.6023C77.4075 51.6835 77.3868 51.7581 77.3454 51.8261C77.3056 51.894 77.2518 51.9487 77.1838 51.9901C77.1175 52.0299 77.043 52.0498 76.9601 52.0498ZM78.5069 52.01L80.7839 47.5057V47.466H78.1589V46.9191H81.4202V47.4958L79.1532 52.01H78.5069ZM83.8694 52.0796C83.5777 52.0796 83.315 52.0216 83.0814 51.9056C82.8477 51.7896 82.6604 51.6305 82.5196 51.4283C82.3787 51.2262 82.3017 50.9958 82.2884 50.7373H82.885C82.9082 50.9676 83.0126 51.1582 83.1982 51.309C83.3855 51.4582 83.6092 51.5327 83.8694 51.5327C84.0782 51.5327 84.2638 51.4838 84.4262 51.3861C84.5902 51.2883 84.7187 51.1541 84.8115 50.9834C84.9059 50.811 84.9532 50.6163 84.9532 50.3992C84.9532 50.1771 84.9043 49.9791 84.8065 49.8051C84.7104 49.6294 84.5778 49.4911 84.4088 49.39C84.2397 49.2889 84.0467 49.2375 83.8296 49.2359C83.6738 49.2342 83.5139 49.2582 83.3498 49.308C83.1858 49.356 83.0507 49.4182 82.9446 49.4944L82.3679 49.4248L82.6762 46.9191H85.3211V47.466H83.1932L83.0142 48.9674H83.0441C83.1485 48.8845 83.2794 48.8158 83.4368 48.7611C83.5943 48.7064 83.7583 48.679 83.929 48.679C84.2406 48.679 84.5182 48.7536 84.7618 48.9028C85.007 49.0503 85.1993 49.2524 85.3385 49.5093C85.4793 49.7662 85.5498 50.0595 85.5498 50.3893C85.5498 50.7141 85.4768 51.0041 85.331 51.2593C85.1868 51.5129 84.988 51.7134 84.7344 51.8609C84.4809 52.0067 84.1925 52.0796 83.8694 52.0796Z" fill="#0000FF"/>
<path fill-rule="evenodd" clip-rule="evenodd" d="M28.0793 18.6825C27.6872 18.6825 27.3693 19.0004 27.3693 19.3925C27.3693 19.7846 27.6872 20.1025 28.0793 20.1025H29.0693C29.3972 20.1025 29.6593 20.3646 29.6593 20.6925V22.3225C29.6593 22.6504 29.3972 22.9125 29.0693 22.9125H21.9491C21.8473 22.9125 21.7795 22.8073 21.8217 22.7146L22.2779 21.711C22.3183 21.6219 22.3393 21.5253 22.3393 21.4275V21.4175C22.3393 21.1815 22.2177 20.9621 22.0177 20.8369C21.8176 20.7116 21.5672 20.6982 21.3549 20.8014L17.4496 22.6991C16.6692 23.0665 16.6692 24.1785 17.4496 24.5459L21.3549 26.4436C21.6146 26.5698 21.9256 26.5196 22.1324 26.3181C22.3392 26.1165 22.3974 25.8069 22.2779 25.544L21.8171 24.5304C21.775 24.4377 21.8428 24.3325 21.9446 24.3325H29.0693C30.1814 24.3325 31.0793 23.4346 31.0793 22.3225V20.6925C31.0793 19.5804 30.1814 18.6825 29.0693 18.6825H28.0793Z" fill="black"/>
<path d="M35.75 25.7501C35.3594 25.7501 35.1201 25.506 35.1201 25.0958V19.3584C35.1201 18.9482 35.3594 18.7041 35.75 18.7041H39.1827C39.5294 18.7041 39.7589 18.9092 39.7589 19.2363C39.7589 19.5634 39.5294 19.7685 39.1827 19.7685H36.5217C36.4434 19.7685 36.38 19.832 36.38 19.9102V21.5311C36.38 21.6094 36.4435 21.6728 36.5217 21.6728H39.0362C39.3585 21.6728 39.5782 21.8632 39.5782 22.1709C39.5782 22.4786 39.3634 22.6738 39.0362 22.6738H36.5217C36.4434 22.6738 36.38 22.7373 36.38 22.8155V24.5438C36.38 24.6221 36.4435 24.6855 36.5217 24.6855H39.1827C39.5294 24.6855 39.7589 24.8906 39.7589 25.2177C39.7589 25.5448 39.5294 25.7499 39.1827 25.7499H35.75V25.7501Z" fill="black"/>
<path d="M52.3315 20.4668C50.8374 20.4668 49.8853 21.5312 49.8853 23.1816C49.8853 24.832 50.8179 25.8524 52.3999 25.8524C53.2001 25.8524 53.786 25.6746 54.2857 25.1196C54.5094 24.8712 54.4495 24.5005 54.1534 24.342C53.904 24.2084 53.6203 24.3365 53.481 24.4659C53.0383 24.8773 52.7135 24.9149 52.3901 24.9149C51.6439 24.9149 51.154 24.4302 51.101 23.6068C51.0957 23.5247 51.1601 23.455 51.2424 23.455H54.1965C54.4777 23.455 54.7071 23.2302 54.7135 22.9491C54.7462 21.5063 53.771 20.4668 52.3315 20.4668ZM53.3613 22.6011H51.2722C51.1816 22.6011 51.1148 22.5173 51.1338 22.4287C51.2704 21.79 51.742 21.4093 52.3363 21.4093C52.9306 21.4093 53.3848 21.7772 53.501 22.4355C53.5163 22.522 53.4491 22.6011 53.3612 22.6011H53.3613Z" fill="black"/>
<path d="M41.458 25.8477C41.1016 25.8477 40.8525 25.6182 40.8525 25.208V21.0869C40.8525 20.7109 41.0722 20.4717 41.4336 20.4717C41.5828 20.4717 41.7576 20.5108 41.8928 20.6658C41.9393 20.7191 41.9706 20.7786 41.9918 20.8328C42.0233 20.9137 42.1198 20.9471 42.1948 20.9033C42.458 20.7497 43.0177 20.4766 43.67 20.4766C44.8126 20.4766 45.462 21.209 45.462 22.4053V25.2081C45.462 25.6183 45.213 25.8478 44.8565 25.8478C44.5 25.8478 44.2461 25.6183 44.2461 25.2081V22.6495C44.2461 21.9171 43.9043 21.5069 43.2109 21.5069C42.5175 21.5069 42.0683 22.0098 42.0683 22.752V25.2081C42.0683 25.6183 41.8144 25.8478 41.4579 25.8478L41.458 25.8477Z" fill="black"/>
<path d="M56.3057 25.8477C55.9395 25.8477 55.7002 25.6084 55.7002 25.208V21.0869C55.7002 20.706 55.9346 20.4717 56.2813 20.4717C56.628 20.4717 56.7659 20.7042 56.8111 20.8202C56.8175 20.8365 56.823 20.8535 56.8278 20.8707C56.8569 20.9748 56.9888 21.007 57.0648 20.9302C57.2613 20.7318 57.5861 20.4863 57.9903 20.4863C58.1807 20.4863 58.3272 20.5351 58.42 20.6181C58.5323 20.7109 58.5909 20.8574 58.5909 21.0576C58.5909 21.2578 58.5323 21.3896 58.4102 21.4873C58.293 21.5898 58.1123 21.6436 57.8731 21.6484C57.1797 21.6533 56.9161 22.0879 56.9161 22.7177V25.208C56.9161 25.6084 56.672 25.8477 56.3057 25.8477Z" fill="black"/>
<path d="M46.9751 24.4708V21.6535C46.9751 21.5752 46.9116 21.5118 46.8334 21.5118H46.648C46.3453 21.5118 46.1597 21.3311 46.1597 21.0382C46.1597 20.7453 46.3452 20.5743 46.648 20.5743H46.8334C46.9117 20.5743 46.9751 20.5108 46.9751 20.4326V19.8858C46.9751 19.4952 47.2095 19.251 47.5855 19.251C47.9615 19.251 48.191 19.4951 48.191 19.8858V20.4326C48.191 20.5109 48.2545 20.5743 48.3327 20.5743H48.7525C49.0552 20.5743 49.2408 20.7501 49.2408 21.0382C49.2408 21.3263 49.0553 21.5118 48.7525 21.5118H48.3327C48.2544 21.5118 48.191 21.5753 48.191 21.6535V24.2071C48.191 24.5977 48.3277 24.7686 48.6793 24.7979L48.7672 24.8077C49.0895 24.837 49.2555 24.9737 49.2555 25.2569C49.2555 25.6133 48.943 25.8038 48.3864 25.8038H48.3376C47.4343 25.8038 46.9753 25.3546 46.9753 24.4708H46.9751Z" fill="black"/>
</svg>
