<svg width="82" height="54" viewBox="0 0 82 54" fill="none" xmlns="http://www.w3.org/2000/svg">
<path d="M71.5068 37.0027C71.5848 27.0807 71.6919 17.1587 71.8298 7.23665C71.8199 6.87965 71.7788 6.52266 71.7035 6.17201C71.6305 5.82301 71.5245 5.48201 71.3847 5.15382C71.2467 4.82881 71.0757 4.51686 70.876 4.22511C70.676 3.93513 70.448 3.66512 70.1949 3.42079C69.9419 3.17781 69.6649 2.96077 69.3693 2.77412C69.0733 2.58711 68.7583 2.42915 68.4325 2.30342C68.1065 2.17744 67.7675 2.0815 67.4237 2.01741C67.0777 1.95345 66.7278 1.91939 66.3745 1.91585C49.4605 1.82491 32.5455 1.82491 15.6317 1.91548C15.2937 1.92159 14.9567 1.95454 14.6241 2.01485C14.2921 2.07381 13.9641 2.15974 13.6495 2.27437C13.4005 2.36739 13.1575 2.47835 12.9246 2.60493C12.6925 2.73299 12.4685 2.87801 12.2568 3.03865C12.0458 3.20058 11.8468 3.37856 11.663 3.57112C11.4779 3.76515 11.3099 3.97414 11.1587 4.19398C11.0067 4.41493 10.8716 4.64796 10.7538 4.88844C10.6358 5.13149 10.5358 5.38149 10.4525 5.63869C10.2864 6.15468 10.1914 6.69667 10.1777 7.23622C10.3117 17.1582 10.4188 27.0802 10.5002 37.0013C10.5251 37.6633 10.6751 38.3273 10.94 38.9409C11.209 39.5659 11.595 40.1389 12.071 40.6231C12.55 41.1111 13.118 41.5101 13.7408 41.796C14.3578 42.0809 15.0288 42.254 15.7026 42.3051C24.1317 42.6481 32.5667 42.8191 41.0034 42.819C49.4394 42.819 57.8744 42.648 66.3044 42.3047C66.9783 42.2537 67.6483 42.0807 68.2662 41.7968C68.8882 41.5098 69.4572 41.1109 69.9361 40.6232C70.4111 40.1383 70.7971 39.5662 71.0675 38.9408C71.3305 38.3278 71.4825 37.6638 71.5066 37.0007" stroke="#16215B" stroke-width="0.283" stroke-miterlimit="10"/>
<path d="M11.7583 38.7131V6.44019C11.7583 5.26575 12.7093 4.31372 13.8843 4.31372H17.4273H64.6312H68.1743C69.3483 4.31372 70.3003 5.26575 70.3003 6.4397V38.7127C70.3003 39.8871 69.3483 40.8391 68.1743 40.8391L13.8843 40.8392C12.7093 40.8392 11.7583 39.8871 11.7583 38.7131Z" stroke="#00FFFF" stroke-width="0.28" stroke-miterlimit="10"/>
<path d="M66.1805 41.1327C49.4365 41.8178 32.5695 41.8178 15.8265 41.1327C15.5304 41.12 15.2384 41.083 14.9494 41.018C14.8044 40.986 14.6624 40.947 14.5224 40.902C14.3833 40.856 14.2453 40.805 14.1104 40.746C13.9754 40.688 13.8443 40.623 13.7154 40.552C13.6503 40.516 13.5864 40.478 13.5224 40.439C13.4603 40.4 13.3984 40.36 13.3384 40.318C13.0964 40.15 12.8724 39.961 12.6694 39.749C12.6184 39.696 12.5683 39.642 12.5194 39.586C12.4714 39.531 12.4244 39.473 12.3783 39.415C12.2874 39.3 12.2024 39.18 12.1243 39.057C11.9684 38.811 11.8374 38.552 11.7304 38.28C11.7044 38.211 11.6794 38.142 11.6564 38.073C11.6333 38.003 11.6113 37.933 11.5914 37.863C11.5524 37.723 11.5184 37.582 11.4924 37.44C11.4393 37.156 11.4133 36.869 11.4124 36.577C11.3963 31.7904 11.3783 27.0025 11.3583 22.2155C11.3382 17.4284 11.3153 12.6414 11.2903 7.85341C11.2815 7.69783 11.2755 7.54182 11.2765 7.38686C11.2775 7.23085 11.2865 7.07686 11.3035 6.92287C11.3105 6.84584 11.3215 6.76881 11.3335 6.69185C11.3455 6.61482 11.3595 6.53883 11.3755 6.46187C11.4075 6.31087 11.4475 6.16182 11.4955 6.01485C11.5425 5.86885 11.5975 5.72585 11.6625 5.58485C11.6935 5.51485 11.7275 5.44582 11.7635 5.37685C11.8005 5.30885 11.8385 5.24086 11.8785 5.17384C12.0375 4.90883 12.2245 4.66682 12.4395 4.44685C12.4935 4.39186 12.5495 4.33784 12.6065 4.28682C12.6355 4.25984 12.6645 4.23482 12.6935 4.20882C12.7235 4.18385 12.7535 4.15883 12.7835 4.13387C12.9045 4.03682 13.0305 3.94582 13.1605 3.86287C13.4205 3.69685 13.6985 3.55983 13.9925 3.44887C14.2865 3.33882 14.5875 3.25984 14.8925 3.20686C15.1985 3.15382 15.5105 3.12685 15.8255 3.12581C32.57 3.03383 49.437 3.03383 66.18 3.12581C66.4961 3.12691 66.8081 3.15388 67.1131 3.20686C67.4191 3.2599 67.7201 3.33888 68.0141 3.44887C68.3081 3.55989 68.5851 3.69691 68.8461 3.86287C68.9761 3.94588 69.1011 4.0359 69.2221 4.13387C69.2521 4.15889 69.2821 4.18391 69.3121 4.20888C69.3411 4.2339 69.3701 4.2599 69.4001 4.2859C69.4561 4.33791 69.5121 4.39186 69.5661 4.44691C69.7801 4.66591 69.9681 4.90889 70.1281 5.1739C70.1681 5.23988 70.2061 5.30788 70.2421 5.37691C70.2791 5.4449 70.3121 5.51491 70.3441 5.58492C70.4071 5.72487 70.4631 5.86891 70.5111 6.01491C70.5591 6.1609 70.5991 6.30989 70.6301 6.46187C70.6471 6.53792 70.6601 6.61488 70.6731 6.69087C70.6851 6.7679 70.6951 6.84486 70.7031 6.92189C70.7201 7.07588 70.7281 7.23091 70.7301 7.38588C70.7311 7.54091 70.7251 7.69691 70.7161 7.85286C70.691 12.64 70.668 17.428 70.648 22.215C70.627 27.002 70.61 31.79 70.594 36.5767C70.593 36.8687 70.566 37.1587 70.513 37.4458C70.486 37.5907 70.452 37.7327 70.412 37.8717C70.372 38.0117 70.326 38.1497 70.273 38.2847C70.22 38.4198 70.16 38.5527 70.094 38.6837C70.061 38.7497 70.026 38.8147 69.99 38.8787C69.952 38.9428 69.914 39.0058 69.875 39.0667C69.717 39.3137 69.536 39.5427 69.332 39.7547C69.282 39.8067 69.229 39.8587 69.175 39.9087C69.121 39.9597 69.066 40.0087 69.009 40.0567C68.896 40.1527 68.78 40.2417 68.659 40.3237C68.417 40.4898 68.161 40.6317 67.89 40.7487C67.823 40.7777 67.753 40.8057 67.684 40.8317C67.615 40.8577 67.545 40.8817 67.475 40.9038C67.335 40.9497 67.194 40.9877 67.051 41.0197C66.766 41.0827 66.475 41.1207 66.1805 41.1327Z" stroke="#FF00FF" stroke-width="0.283465" stroke-miterlimit="10" stroke-linecap="round" stroke-linejoin="round"/>
<path d="M73.2894 46.9191V52.01H72.6729V47.5654H72.6431L71.4002 48.3907V47.7643L72.6729 46.9191H73.2894ZM74.8903 52.0498C74.7676 52.0498 74.6624 52.0059 74.5746 51.918C74.4867 51.8302 74.4428 51.725 74.4428 51.6023C74.4428 51.4797 74.4867 51.3745 74.5746 51.2866C74.6624 51.1988 74.7676 51.1549 74.8903 51.1549C75.0129 51.1549 75.1181 51.1988 75.206 51.2866C75.2938 51.3745 75.3377 51.4797 75.3377 51.6023C75.3377 51.6835 75.317 51.7581 75.2756 51.8261C75.2358 51.894 75.1819 51.9487 75.114 51.9901C75.0477 52.0299 74.9731 52.0498 74.8903 52.0498ZM77.8689 52.0796C77.5772 52.0796 77.3145 52.0216 77.0809 51.9056C76.8472 51.7896 76.6599 51.6305 76.5191 51.4283C76.3782 51.2262 76.3012 50.9958 76.2879 50.7373H76.8845C76.9077 50.9676 77.0121 51.1582 77.1977 51.309C77.385 51.4582 77.6087 51.5327 77.8689 51.5327C78.0777 51.5327 78.2633 51.4838 78.4257 51.3861C78.5898 51.2883 78.7182 51.1541 78.811 50.9834C78.9055 50.811 78.9527 50.6163 78.9527 50.3992C78.9527 50.1771 78.9038 49.9791 78.806 49.8051C78.7099 49.6294 78.5773 49.4911 78.4083 49.39C78.2393 49.2889 78.0462 49.2375 77.8291 49.2359C77.6733 49.2342 77.5134 49.2582 77.3493 49.308C77.1853 49.356 77.0502 49.4182 76.9442 49.4944L76.3675 49.4248L76.6757 46.9191H79.3206V47.466H77.1927L77.0138 48.9674H77.0436C77.148 48.8845 77.2789 48.8158 77.4363 48.7611C77.5938 48.7064 77.7578 48.679 77.9285 48.679C78.2401 48.679 78.5177 48.7536 78.7613 48.9028C79.0065 49.0503 79.1988 49.2524 79.338 49.5093C79.4788 49.7662 79.5493 50.0595 79.5493 50.3893C79.5493 50.7141 79.4764 51.0041 79.3305 51.2593C79.1863 51.5129 78.9875 51.7134 78.7339 51.8609C78.4804 52.0067 78.192 52.0796 77.8689 52.0796Z" fill="#0000FF"/>
<path fill-rule="evenodd" clip-rule="evenodd" d="M28.0793 18.6825C27.6872 18.6825 27.3693 19.0004 27.3693 19.3925C27.3693 19.7846 27.6872 20.1025 28.0793 20.1025H29.0693C29.3972 20.1025 29.6593 20.3646 29.6593 20.6925V22.3225C29.6593 22.6504 29.3972 22.9125 29.0693 22.9125H21.9491C21.8473 22.9125 21.7795 22.8073 21.8217 22.7146L22.2779 21.711C22.3183 21.6219 22.3393 21.5253 22.3393 21.4275V21.4175C22.3393 21.1815 22.2177 20.9621 22.0177 20.8369C21.8176 20.7116 21.5672 20.6982 21.3549 20.8014L17.4496 22.6991C16.6692 23.0665 16.6692 24.1785 17.4496 24.5459L21.3549 26.4436C21.6146 26.5698 21.9256 26.5196 22.1324 26.3181C22.3392 26.1165 22.3974 25.8069 22.2779 25.544L21.8171 24.5304C21.775 24.4377 21.8428 24.3325 21.9446 24.3325H29.0693C30.1814 24.3325 31.0793 23.4346 31.0793 22.3225V20.6925C31.0793 19.5804 30.1814 18.6825 29.0693 18.6825H28.0793Z" fill="black"/>
<path d="M35.75 25.7501C35.3594 25.7501 35.1201 25.506 35.1201 25.0958V19.3584C35.1201 18.9482 35.3594 18.7041 35.75 18.7041H39.1827C39.5294 18.7041 39.7589 18.9092 39.7589 19.2363C39.7589 19.5634 39.5294 19.7685 39.1827 19.7685H36.5217C36.4434 19.7685 36.38 19.832 36.38 19.9102V21.5311C36.38 21.6094 36.4435 21.6728 36.5217 21.6728H39.0362C39.3585 21.6728 39.5782 21.8632 39.5782 22.1709C39.5782 22.4786 39.3634 22.6738 39.0362 22.6738H36.5217C36.4434 22.6738 36.38 22.7373 36.38 22.8155V24.5438C36.38 24.6221 36.4435 24.6855 36.5217 24.6855H39.1827C39.5294 24.6855 39.7589 24.8906 39.7589 25.2177C39.7589 25.5448 39.5294 25.7499 39.1827 25.7499H35.75V25.7501Z" fill="black"/>
<path d="M53.3614 22.548H51.2722C51.1816 22.548 51.1148 22.4642 51.1338 22.3756C51.2704 21.7369 51.742 21.4093 52.3364 21.4093C52.9308 21.4093 53.3849 21.7241 53.5011 22.3824C53.5164 22.4689 53.4493 22.548 53.3614 22.548ZM52.3316 20.4668C50.8374 20.4668 49.8853 21.5312 49.8853 23.1817C49.8853 24.8322 50.8179 25.8526 52.4 25.8526C53.2002 25.8526 53.7862 25.6748 54.2859 25.1198C54.5096 24.8714 54.4497 24.5007 54.1536 24.3422C53.9042 24.2086 53.6205 24.3367 53.4812 24.4661C53.0385 24.8775 52.7137 24.9151 52.3903 24.9151C51.6441 24.9151 51.1541 24.4304 51.1011 23.6069C51.0958 23.5248 51.1602 23.4551 51.2425 23.4551H54.1967C54.4779 23.4551 54.7073 23.2303 54.7137 22.9492C54.7464 21.5063 53.7712 20.4668 52.3316 20.4668Z" fill="black"/>
<path d="M40.8516 25.2079V21.0858C40.8516 20.7097 41.0714 20.4704 41.4328 20.4704C41.6396 20.4704 41.8086 20.5509 41.9141 20.6919C41.9397 20.7261 41.9615 20.7648 41.9792 20.8013C42.0136 20.872 42.0981 20.9021 42.1688 20.8678C42.435 20.7388 43.0543 20.4753 43.6697 20.4753C44.8126 20.4753 45.4622 21.2079 45.4622 22.4045V25.208C45.4622 25.6183 45.2131 25.8478 44.8566 25.8478C44.5001 25.8478 44.2461 25.6182 44.2461 25.208V22.6488C44.2461 21.9162 43.9042 21.5059 43.2107 21.5059C42.5172 21.5059 42.0678 22.009 42.0678 22.7513V25.208C42.0678 25.6183 41.8138 25.8478 41.4573 25.8478C41.1008 25.8478 40.8516 25.6182 40.8516 25.2079Z" fill="black"/>
<path d="M55.6992 25.2078V21.0856C55.6992 20.7046 55.9336 20.4702 56.2804 20.4702C56.514 20.4702 56.7006 20.5828 56.7932 20.7787C56.7951 20.7827 56.8015 20.7988 56.81 20.8206C56.8441 20.9081 56.9524 20.9391 57.0273 20.8824C57.2297 20.7293 57.612 20.4849 57.9899 20.4849C58.1804 20.4849 58.3269 20.5337 58.4197 20.6168C58.532 20.7096 58.5906 20.8561 58.5906 21.0564C58.5906 21.2567 58.532 21.3885 58.4099 21.4862C58.2927 21.5888 58.112 21.6425 57.8726 21.6474C57.179 21.6523 56.9153 22.087 56.9153 22.717V25.2079C56.9153 25.6084 56.6711 25.8477 56.3048 25.8477C55.9385 25.8477 55.6992 25.6083 55.6992 25.2078Z" fill="black"/>
<path d="M46.9752 24.4706V21.6543C46.9752 21.576 46.9117 21.5126 46.8335 21.5126H46.6481C46.3454 21.5126 46.1597 21.3417 46.1597 21.0487C46.1597 20.7557 46.3452 20.5897 46.6481 20.5897H46.8335C46.9118 20.5897 46.9752 20.5262 46.9752 20.448V19.885C46.9752 19.4943 47.2096 19.2501 47.5857 19.2501C47.9618 19.2501 48.1913 19.4942 48.1913 19.885V20.448C48.1913 20.5263 48.2548 20.5897 48.333 20.5897H48.7529C49.0556 20.5897 49.2413 20.7605 49.2413 21.0487C49.2413 21.3369 49.0558 21.5126 48.7529 21.5126H48.333C48.2547 21.5126 48.1913 21.5761 48.1913 21.6543V24.2069C48.1913 24.5976 48.328 24.7685 48.6797 24.7978L48.7676 24.8076C49.0899 24.8369 49.256 24.9736 49.256 25.2569C49.256 25.6133 48.9435 25.8039 48.3868 25.8039H48.338C47.4346 25.8039 46.9755 25.3546 46.9755 24.4707H46.9753L46.9752 24.4706Z" fill="black"/>
</svg>
