<svg width="122" height="54" viewBox="0 0 122 54" fill="none" xmlns="http://www.w3.org/2000/svg">
<path d="M110.346 40.8597C109.867 41.3587 109.292 41.7657 108.662 42.0546C108.035 42.3423 107.356 42.5134 106.673 42.5663C91.535 43.0283 76.392 43.2592 61.247 43.2592C46.1022 43.2595 30.9592 43.0284 15.8212 42.5663C15.1389 42.5129 14.4589 42.3338 13.8349 42.0478C13.5195 41.9037 13.2175 41.7327 12.9355 41.5336C12.6523 41.3349 12.3873 41.1088 12.1483 40.8588C11.9087 40.6085 11.6937 40.3364 11.5067 40.0453C11.3212 39.7553 11.1622 39.4494 11.0313 39.1303C10.7718 38.4997 10.6188 37.8187 10.5888 37.1396L10.5732 7.25531C10.5995 6.52496 10.7835 5.79303 11.0985 5.12592C11.4123 4.46381 11.8563 3.86285 12.4023 3.3808C12.9453 2.90192 13.5893 2.53888 14.2744 2.29486C14.9592 2.05096 15.6832 1.92694 16.4042 1.91986C46.2998 1.82196 76.1938 1.82196 106.09 1.91986C106.451 1.92499 106.814 1.95807 107.171 2.01996C107.528 2.08148 107.879 2.17047 108.22 2.29144C108.904 2.53339 109.547 2.90131 110.092 3.38129C110.639 3.86456 111.086 4.46149 111.399 5.12445C111.714 5.79132 111.895 6.52435 111.921 7.25531L111.905 37.1396C111.875 37.8193 111.73 38.5003 111.468 39.1324C111.204 39.7714 110.824 40.3614 110.346 40.8597Z" stroke="#16215B" stroke-width="0.283" stroke-miterlimit="10"/>
<path d="M11.7354 6.23291V38.5249C11.7354 39.699 12.6873 40.651 13.8613 40.651L108.631 40.6509C109.805 40.6509 110.757 39.699 110.757 38.5249V6.2334C110.757 5.05945 109.805 4.10742 108.631 4.10742H102.253H13.8612C12.6872 4.10742 11.7352 5.05945 11.7354 6.23291Z" stroke="#00FFFF" stroke-width="0.28" stroke-miterlimit="10"/>
<path d="M13.3109 40.5879C13.3789 40.631 13.4489 40.672 13.5199 40.7119C13.5839 40.747 13.6499 40.781 13.7159 40.813C13.7829 40.845 13.8499 40.876 13.9169 40.904C14.1869 41.019 14.4659 41.106 14.7529 41.1659C14.8969 41.196 15.0419 41.22 15.1889 41.237C15.3349 41.255 15.4819 41.2649 15.6289 41.2699C45.9943 42.2346 76.4553 42.2346 106.819 41.2707C106.857 41.2701 106.894 41.2691 106.931 41.2671M106.931 41.2671C106.968 41.2661 107.005 41.2631 107.042 41.2611C107.115 41.2561 107.188 41.25 107.261 41.2421C107.407 41.2261 107.551 41.2041 107.695 41.1751C107.981 41.1171 108.262 41.0331 108.538 40.9191C108.607 40.8911 108.674 40.8611 108.742 40.8291M106.931 41.2671C106.895 41.2691 106.859 41.2701 106.821 41.2707C76.4562 42.2346 45.9952 42.2346 15.6312 41.2693C15.4842 41.2653 15.3372 41.2543 15.1912 41.2373C15.0442 41.2204 14.8992 41.1963 14.7552 41.1663C14.4682 41.1053 14.1892 41.0193 13.9182 40.9043C13.8512 40.8764 13.7832 40.8454 13.7172 40.8133C13.6512 40.7813 13.5852 40.7473 13.5212 40.7113C13.3932 40.6403 13.2692 40.5633 13.1492 40.4803C13.0302 40.3963 12.9142 40.3063 12.8042 40.2104C12.7482 40.1623 12.6952 40.1133 12.6422 40.0613C12.5892 40.0103 12.5372 39.9573 12.4872 39.9034C12.2862 39.6873 12.1132 39.4523 11.9632 39.2023C11.8882 39.0763 11.8202 38.9473 11.7572 38.8133C11.6952 38.6794 11.6392 38.5434 11.5902 38.4053C11.5402 38.2674 11.4982 38.1264 11.4622 37.9833C11.4252 37.8413 11.3962 37.6973 11.3722 37.5533C11.3242 37.2633 11.3022 36.9723 11.3012 36.6783L11.2999 36.6787C11.279 26.9927 11.2549 17.3067 11.229 7.62064L11.2981 36.6783C11.278 26.9922 11.254 17.3062 11.2271 7.62015L11.2256 7.62027C11.2246 7.30728 11.2566 6.99832 11.3216 6.69437C11.3376 6.61832 11.3556 6.54227 11.3776 6.46732C11.3976 6.39127 11.4206 6.31729 11.4446 6.24332C11.4947 6.09634 11.5526 5.9523 11.6186 5.81229C11.6516 5.74136 11.6866 5.67227 11.7237 5.60428C11.7616 5.53531 11.8017 5.46829 11.8416 5.40237C11.8886 5.32535 11.9386 5.25137 11.9917 5.17825L12.4847 4.60843C12.5167 4.57742 12.5497 4.54739 12.5827 4.51736C12.6407 4.46536 12.6997 4.41446 12.7597 4.36539C13.0017 4.16946 13.2597 4.00137 13.5357 3.85843C13.6037 3.82144 13.6737 3.78738 13.7447 3.7554C13.8147 3.72147 13.8867 3.69046 13.9587 3.66141C14.1027 3.60245 14.2487 3.54947 14.3957 3.50443C14.6917 3.41238 14.9947 3.34439 15.3037 3.30045C15.4587 3.27847 15.6137 3.26236 15.7697 3.25137C15.8467 3.24637 15.9257 3.24246 16.0037 3.23941C16.0427 3.23843 16.0817 3.23746 16.1207 3.23636C16.1598 3.23636 16.1988 3.23636 16.2378 3.23636H16.2394C46.2264 3.13345 76.3064 3.13345 106.293 3.23636C106.6 3.23709 106.905 3.25906 107.208 3.30301C107.284 3.31509 107.36 3.32706 107.435 3.3411C107.509 3.35501 107.584 3.37003 107.659 3.38699C107.806 3.42007 107.953 3.45901 108.097 3.50406C108.385 3.59402 108.665 3.70706 108.937 3.84708C109.005 3.88199 109.073 3.9191 109.138 3.95804M106.931 41.2671C106.968 41.2661 107.007 41.2631 107.044 41.2611C107.117 41.2561 107.19 41.25 107.263 41.2421C107.409 41.2261 107.553 41.2041 107.697 41.1751C107.983 41.1171 108.264 41.0331 108.54 40.9191C108.608 40.8911 108.675 40.8611 108.742 40.8291M108.742 40.8291C108.808 40.797 108.875 40.7641 108.939 40.729C109.009 40.6911 109.078 40.651 109.145 40.6101L110.726 38.8321C110.727 38.8301 110.729 38.8282 110.73 38.8261M108.742 40.8291C108.809 40.797 108.876 40.7641 108.941 40.729C109.07 40.6591 109.196 40.583 109.317 40.4991C109.438 40.416 109.555 40.3261 109.669 40.229C109.725 40.1811 109.78 40.1311 109.834 40.0791C109.887 40.0281 109.939 39.9761 109.99 39.9211C110.192 39.7061 110.369 39.4721 110.521 39.218C110.56 39.1541 110.596 39.0891 110.632 39.0241C110.667 38.958 110.699 38.8921 110.73 38.8261M110.73 38.8261C110.792 38.6922 110.849 38.5562 110.898 38.4171C110.948 38.2791 110.991 38.1381 111.028 37.9951M110.73 38.8261C110.794 38.692 110.85 38.5561 110.9 38.4171C110.95 38.2791 110.992 38.1381 111.028 37.9951M111.028 37.9951C111.064 37.8532 111.095 37.7071 111.119 37.5611C111.167 37.2691 111.191 36.9751 111.191 36.6781L111.194 36.6783C111.215 26.9533 111.239 17.2273 111.266 7.50235C111.264 7.42508 111.26 7.34903 111.254 7.2731C111.248 7.19608 111.241 7.121 111.231 7.04507C111.211 6.89505 111.185 6.746 111.149 6.59805C111.114 6.45108 111.071 6.30606 111.019 6.16202C110.993 6.09 110.964 6.0181 110.935 5.94803C110.905 5.87808 110.873 5.80899 110.839 5.741C110.705 5.47 110.541 5.2161 110.35 4.98099C110.302 4.92203 110.252 4.86404 110.201 4.80704C110.149 4.75101 110.096 4.69608 110.041 4.642C109.933 4.53604 109.82 4.43509 109.702 4.34109C109.583 4.2471 109.46 4.15909 109.333 4.07608C109.269 4.03506 109.204 3.996 109.138 3.95804M111.028 37.9951C111.065 37.8531 111.096 37.7071 111.121 37.5611C111.169 37.2691 111.192 36.9751 111.193 36.6781C111.214 26.9533 111.237 17.2273 111.264 7.50235L109.959 4.56448C109.875 4.4866 109.789 4.41251 109.7 4.34048C109.582 4.24649 109.459 4.1586 109.331 4.07657C109.268 4.03555 109.203 3.996 109.138 3.95804M109.138 3.95804C109.071 3.91898 109.003 3.8826 108.935 3.84756C108.664 3.70755 108.383 3.59354 108.095 3.50357C107.95 3.4595 107.805 3.41959 107.656 3.38651C107.582 3.37051 107.508 3.35452 107.433 3.34048C107.357 3.32755 107.282 3.31448 107.206 3.3035C106.903 3.25858 106.598 3.23758 106.291 3.23636C104.944 3.23148 103.598 3.22745 102.25 3.22342" stroke="#FF00FF" stroke-width="0.283465" stroke-miterlimit="10" stroke-linecap="round" stroke-linejoin="round"/>
<path d="M106.874 52.01V51.5626L108.554 49.7231C108.751 49.5076 108.914 49.3204 109.041 49.1613C109.169 49.0005 109.263 48.8497 109.325 48.7089C109.388 48.5664 109.419 48.4172 109.419 48.2614C109.419 48.0825 109.376 47.9275 109.29 47.7966C109.205 47.6657 109.089 47.5646 108.942 47.4933C108.794 47.4221 108.629 47.3864 108.445 47.3864C108.249 47.3864 108.078 47.427 107.933 47.5082C107.788 47.5878 107.677 47.6996 107.597 47.8438C107.519 47.988 107.48 48.157 107.48 48.3509H106.894C106.894 48.0526 106.962 47.7908 107.1 47.5654C107.237 47.34 107.425 47.1644 107.662 47.0384C107.9 46.9125 108.168 46.8495 108.465 46.8495C108.763 46.8495 109.027 46.9125 109.258 47.0384C109.488 47.1644 109.669 47.3342 109.799 47.548C109.93 47.7618 109.996 47.9996 109.996 48.2614C109.996 48.4487 109.962 48.6318 109.894 48.8108C109.828 48.9881 109.712 49.1861 109.546 49.4049C109.382 49.622 109.154 49.8871 108.862 50.2004L107.719 51.4234V51.4631H110.085V52.01H106.874ZM111.549 52.0498C111.427 52.0498 111.322 52.0059 111.234 51.918C111.146 51.8302 111.102 51.725 111.102 51.6023C111.102 51.4797 111.146 51.3745 111.234 51.2866C111.322 51.1988 111.427 51.1549 111.549 51.1549C111.672 51.1549 111.777 51.1988 111.865 51.2866C111.953 51.3745 111.997 51.4797 111.997 51.6023C111.997 51.6835 111.976 51.7581 111.935 51.8261C111.895 51.894 111.841 51.9487 111.773 51.9901C111.707 52.0299 111.632 52.0498 111.549 52.0498ZM113.04 52.01V51.5626L114.72 49.7231C114.917 49.5076 115.08 49.3204 115.207 49.1613C115.335 49.0005 115.429 48.8497 115.491 48.7089C115.554 48.5664 115.585 48.4172 115.585 48.2614C115.585 48.0825 115.542 47.9275 115.456 47.7966C115.371 47.6657 115.255 47.5646 115.108 47.4933C114.96 47.4221 114.795 47.3864 114.611 47.3864C114.415 47.3864 114.244 47.427 114.099 47.5082C113.954 47.5878 113.843 47.6996 113.763 47.8438C113.685 47.988 113.646 48.157 113.646 48.3509H113.06C113.06 48.0526 113.128 47.7908 113.266 47.5654C113.403 47.34 113.591 47.1644 113.828 47.0384C114.066 46.9125 114.334 46.8495 114.631 46.8495C114.929 46.8495 115.193 46.9125 115.424 47.0384C115.654 47.1644 115.835 47.3342 115.965 47.548C116.096 47.7618 116.162 47.9996 116.162 48.2614C116.162 48.4487 116.128 48.6318 116.06 48.8108C115.994 48.9881 115.878 49.1861 115.712 49.4049C115.548 49.622 115.32 49.8871 115.028 50.2004L113.885 51.4234V51.4631H116.251V52.01H113.04ZM118.869 52.0796C118.577 52.0796 118.315 52.0216 118.081 51.9056C117.847 51.7896 117.66 51.6305 117.519 51.4283C117.378 51.2262 117.301 50.9958 117.288 50.7373H117.884C117.908 50.9676 118.012 51.1582 118.198 51.309C118.385 51.4582 118.609 51.5327 118.869 51.5327C119.078 51.5327 119.263 51.4838 119.426 51.3861C119.59 51.2883 119.718 51.1541 119.811 50.9834C119.905 50.811 119.953 50.6163 119.953 50.3992C119.953 50.1771 119.904 49.9791 119.806 49.8051C119.71 49.6294 119.577 49.4911 119.408 49.39C119.239 49.2889 119.046 49.2375 118.829 49.2359C118.673 49.2342 118.513 49.2582 118.349 49.308C118.185 49.356 118.05 49.4182 117.944 49.4944L117.367 49.4248L117.676 46.9191H120.321V47.466H118.193L118.014 48.9674H118.044C118.148 48.8845 118.279 48.8158 118.436 48.7611C118.594 48.7064 118.758 48.679 118.929 48.679C119.24 48.679 119.518 48.7536 119.761 48.9028C120.007 49.0503 120.199 49.2524 120.338 49.5093C120.479 49.7662 120.549 50.0595 120.549 50.3893C120.549 50.7141 120.476 51.0041 120.331 51.2593C120.186 51.5129 119.987 51.7134 119.734 51.8609C119.48 52.0067 119.192 52.0796 118.869 52.0796Z" fill="#0000FF"/>
<path d="M17.75 25.7501C17.3594 25.7501 17.1201 25.506 17.1201 25.0958V19.3584C17.1201 18.9482 17.3594 18.7041 17.75 18.7041H21.1827C21.5294 18.7041 21.7589 18.9092 21.7589 19.2363C21.7589 19.5634 21.5294 19.7685 21.1827 19.7685H18.5217C18.4434 19.7685 18.38 19.832 18.38 19.9102V21.5311C18.38 21.6094 18.4435 21.6728 18.5217 21.6728H21.0362C21.3585 21.6728 21.5782 21.8632 21.5782 22.1709C21.5782 22.4786 21.3634 22.6738 21.0362 22.6738H18.5217C18.4434 22.6738 18.38 22.7373 18.38 22.8155V24.5438C18.38 24.6221 18.4435 24.6855 18.5217 24.6855H21.1827C21.5294 24.6855 21.7589 24.8906 21.7589 25.2177C21.7589 25.5448 21.5294 25.7499 21.1827 25.7499H17.75V25.7501Z" fill="black"/>
<path d="M34.3315 20.4668C32.8374 20.4668 31.8853 21.5312 31.8853 23.1816C31.8853 24.832 32.8179 25.8524 34.3999 25.8524C35.2001 25.8524 35.786 25.6746 36.2857 25.1196C36.5094 24.8712 36.4495 24.5005 36.1534 24.342C35.904 24.2084 35.6203 24.3365 35.481 24.4659C35.0383 24.8773 34.7135 24.9149 34.3901 24.9149C33.6439 24.9149 33.154 24.4302 33.101 23.6068C33.0957 23.5247 33.1601 23.455 33.2424 23.455H36.1965C36.4777 23.455 36.7071 23.2302 36.7135 22.9491C36.7462 21.5063 35.771 20.4668 34.3315 20.4668ZM35.3613 22.6011H33.2722C33.1816 22.6011 33.1148 22.5173 33.1338 22.4287C33.2704 21.79 33.742 21.4093 34.3363 21.4093C34.9306 21.4093 35.3848 21.7772 35.501 22.4355C35.5163 22.522 35.4491 22.6011 35.3612 22.6011H35.3613Z" fill="black"/>
<path d="M23.458 25.8477C23.1016 25.8477 22.8525 25.6182 22.8525 25.208V21.0869C22.8525 20.7109 23.0722 20.4717 23.4336 20.4717C23.5828 20.4717 23.7576 20.5108 23.8928 20.6658C23.9393 20.7191 23.9706 20.7786 23.9918 20.8328C24.0233 20.9137 24.1198 20.9471 24.1948 20.9033C24.458 20.7497 25.0177 20.4766 25.67 20.4766C26.8126 20.4766 27.462 21.209 27.462 22.4053V25.2081C27.462 25.6183 27.213 25.8478 26.8565 25.8478C26.5 25.8478 26.2461 25.6183 26.2461 25.2081V22.6495C26.2461 21.9171 25.9043 21.5069 25.2109 21.5069C24.5175 21.5069 24.0683 22.0098 24.0683 22.752V25.2081C24.0683 25.6183 23.8144 25.8478 23.4579 25.8478L23.458 25.8477Z" fill="black"/>
<path d="M38.3057 25.8477C37.9395 25.8477 37.7002 25.6084 37.7002 25.208V21.0869C37.7002 20.706 37.9346 20.4717 38.2813 20.4717C38.628 20.4717 38.7659 20.7042 38.8111 20.8202C38.8175 20.8365 38.823 20.8535 38.8278 20.8707C38.8569 20.9748 38.9888 21.007 39.0648 20.9302C39.2613 20.7318 39.5861 20.4863 39.9903 20.4863C40.1807 20.4863 40.3272 20.5351 40.42 20.6181C40.5323 20.7109 40.5909 20.8574 40.5909 21.0576C40.5909 21.2578 40.5323 21.3896 40.4102 21.4873C40.293 21.5898 40.1123 21.6436 39.8731 21.6484C39.1797 21.6533 38.9161 22.0879 38.9161 22.7177V25.208C38.9161 25.6084 38.672 25.8477 38.3057 25.8477Z" fill="black"/>
<path d="M28.9751 24.4708V21.6535C28.9751 21.5752 28.9116 21.5118 28.8334 21.5118H28.648C28.3453 21.5118 28.1597 21.3311 28.1597 21.0382C28.1597 20.7453 28.3452 20.5743 28.648 20.5743H28.8334C28.9117 20.5743 28.9751 20.5108 28.9751 20.4326V19.8858C28.9751 19.4952 29.2095 19.251 29.5855 19.251C29.9615 19.251 30.191 19.4951 30.191 19.8858V20.4326C30.191 20.5109 30.2545 20.5743 30.3327 20.5743H30.7525C31.0552 20.5743 31.2408 20.7501 31.2408 21.0382C31.2408 21.3263 31.0553 21.5118 30.7525 21.5118H30.3327C30.2544 21.5118 30.191 21.5753 30.191 21.6535V24.2071C30.191 24.5977 30.3277 24.7686 30.6793 24.7979L30.7672 24.8077C31.0895 24.837 31.2555 24.9737 31.2555 25.2569C31.2555 25.6133 30.943 25.8038 30.3864 25.8038H30.3376C29.4343 25.8038 28.9753 25.3546 28.9753 24.4708H28.9751Z" fill="black"/>
</svg>
