<svg width="96" height="54" viewBox="0 0 96 54" fill="none" xmlns="http://www.w3.org/2000/svg">
<rect x="2.8501" y="1.85001" width="90.8" height="50.3" rx="3" stroke="#16215B" stroke-width="0.28"/>
<path d="M84.0363 40.0264C83.8513 40.3174 83.6393 40.5923 83.4034 40.8433C83.1669 41.095 82.9059 41.324 82.627 41.5259C82.3473 41.7273 82.0493 41.9023 81.7373 42.0503C81.1186 42.342 80.4436 42.526 79.7646 42.585C69.0999 43.0131 58.4269 43.2271 47.752 43.2271C37.0782 43.2271 26.4052 43.0131 15.7403 42.585C15.4005 42.5553 15.0625 42.4944 14.7335 42.4043C14.4016 42.314 14.0796 42.194 13.7686 42.0479C13.457 41.9005 13.158 41.7264 12.879 41.5244C12.5985 41.3229 12.3376 41.0948 12.1006 40.8428C11.8648 40.5919 11.6538 40.318 11.4688 40.0259C11.285 39.7349 11.1291 39.428 11.0001 39.1099C10.8712 38.7935 10.7702 38.4655 10.6963 38.1313C10.6245 37.7996 10.5795 37.4617 10.5635 37.1226L10.5518 7.25146C10.5794 6.52539 10.7594 5.79639 11.0674 5.1333C11.2211 4.80237 11.4061 4.4884 11.6211 4.19531C11.8347 3.90369 12.0777 3.63269 12.3477 3.39062C12.8813 2.91138 13.5154 2.54541 14.1934 2.29834C14.8688 2.05151 15.5868 1.92554 16.3008 1.91748C37.2681 1.82751 58.2361 1.82751 79.2041 1.91748C79.4579 1.92175 79.7119 1.94067 79.9639 1.97266C80.215 2.00488 80.465 2.0509 80.712 2.11182C80.8762 2.15198 81.0392 2.19995 81.1992 2.25391C81.717 2.43115 82.215 2.68115 82.6631 2.99707C82.8888 3.15649 83.1017 3.33252 83.2998 3.52344C83.4985 3.71606 83.6825 3.92407 83.8495 4.14502C84.1837 4.58838 84.4497 5.08447 84.6367 5.60938C84.8241 6.13757 84.9321 6.69458 84.9521 7.25146L84.9414 37.1226C84.9099 37.7999 84.7628 38.4799 84.5071 39.1105C84.3781 39.4294 84.2212 39.7365 84.0363 40.0264Z" stroke="#16215B" stroke-width="0.283" stroke-miterlimit="10"/>
<path d="M17.4952 4.0835H13.9512M13.9512 4.0835C13.9508 4.0835 81.5518 4.0835 81.5518 4.0835C82.7258 4.0835 83.6778 5.03552 83.6778 6.20996C83.6778 6.20996 83.6778 38.5469 83.6778 38.5469C83.6778 39.7209 82.7258 40.6729 81.5522 40.6729C81.5522 40.6729 13.9512 40.6729 13.9512 40.673C12.7772 40.673 11.8252 39.7209 11.8252 38.5465C11.8252 38.5465 11.8252 6.20947 11.8252 6.20959C11.8252 5.03552 12.7772 4.0835 13.9512 4.0835Z" stroke="#00FFFF" stroke-width="0.28" stroke-miterlimit="10"/>
<path d="M84.2106 7.59483C84.1836 17.2888 84.1596 26.9818 84.1386 36.6758C84.1369 36.9681 84.1139 37.2572 84.0689 37.5422C84.0229 37.8271 83.9549 38.1072 83.8599 38.3822C83.8369 38.4512 83.8119 38.5201 83.7839 38.5881C83.7579 38.6562 83.7289 38.7242 83.6979 38.7911C83.6379 38.9252 83.5709 39.0552 83.4989 39.1811C83.4259 39.3071 83.3479 39.4292 83.2619 39.5482C83.1769 39.6661 83.0849 39.7812 82.9869 39.8912C82.7899 40.1112 82.5739 40.3071 82.3389 40.4781C82.2219 40.5642 82.0989 40.6432 81.9719 40.7171C81.9079 40.7541 81.8429 40.7892 81.7769 40.8232C81.7119 40.8562 81.6459 40.8882 81.5789 40.9172C81.3129 41.0361 81.0349 41.1272 80.7499 41.1921C80.6789 41.2081 80.6059 41.2231 80.5339 41.2362C80.4619 41.2482 80.3889 41.2601 80.3159 41.2691C80.1709 41.2882 80.0239 41.3011 79.8769 41.3071C58.497 42.1966 37.002 42.1966 15.622 41.3066C15.4742 41.3013 15.3292 41.2883 15.1832 41.2693C15.1112 41.2602 15.0392 41.2483 14.9672 41.2363C14.8942 41.2233 14.8222 41.2082 14.7512 41.1922C14.4662 41.1283 14.1902 41.0372 13.9242 40.9193C13.8572 40.8893 13.7912 40.8583 13.7252 40.8243C13.6602 40.7912 13.5952 40.7562 13.5322 40.7192C13.4052 40.6462 13.2832 40.5672 13.1662 40.4813C12.9302 40.3103 12.7152 40.1163 12.5182 39.8962C12.4692 39.8423 12.4222 39.7853 12.3762 39.7283C12.3302 39.6722 12.2862 39.6142 12.2432 39.5543C12.1582 39.4363 12.0792 39.3143 12.0072 39.1893C11.9332 39.0632 11.8672 38.9343 11.8062 38.8013C11.7762 38.7342 11.7482 38.6662 11.7202 38.5983C11.6932 38.5303 11.6682 38.4613 11.6432 38.3912C11.6202 38.3223 11.5972 38.2523 11.5772 38.1822C11.5552 38.1123 11.5372 38.0422 11.5192 37.9713C11.4842 37.8303 11.4562 37.6882 11.4322 37.5462C11.3872 37.2602 11.3652 36.9703 11.3639 36.6778C11.3429 26.9839 11.3189 17.2878 11.292 7.59251C11.292 7.43846 11.299 7.28453 11.314 7.13145C11.322 7.05553 11.332 6.9785 11.344 6.90245C11.355 6.82652 11.369 6.75047 11.385 6.67455C11.448 6.3745 11.543 6.08543 11.669 5.80846C11.7 5.73851 11.734 5.67052 11.77 5.60252C11.788 5.56847 11.806 5.53453 11.825 5.50145C11.844 5.46751 11.863 5.43456 11.883 5.40147C11.962 5.27049 12.048 5.14452 12.14 5.02354C12.324 4.78355 12.533 4.56444 12.767 4.36754C12.825 4.31749 12.886 4.27049 12.946 4.2235C13.008 4.17747 13.07 4.13255 13.133 4.08946C13.26 4.00352 13.39 3.92455 13.522 3.85252C13.656 3.77953 13.793 3.71349 13.933 3.65355C14.003 3.62352 14.073 3.59447 14.145 3.56749C14.217 3.54149 14.29 3.51549 14.363 3.49144C14.655 3.39647 14.952 3.3275 15.253 3.2805C15.554 3.23448 15.858 3.21153 16.1659 3.21043C37.1869 3.11644 58.3159 3.11644 79.3368 3.2108C79.6458 3.21178 79.9508 3.23473 80.2528 3.28172C80.4028 3.30382 80.5538 3.33373 80.7028 3.36876C80.8518 3.40379 81.0008 3.44579 81.1468 3.49278C81.4378 3.58873 81.7168 3.70775 81.9848 3.85472C82.0528 3.89073 82.1178 3.92882 82.1838 3.96971C82.2488 4.00975 82.3148 4.05174 82.3768 4.09471C82.5038 4.18077 82.6248 4.27281 82.7408 4.37071C82.8578 4.46873 82.9678 4.57274 83.0728 4.68272C83.1258 4.73875 83.1768 4.79478 83.2268 4.85374C83.2758 4.91173 83.3248 4.97179 83.3708 5.03282C83.5568 5.27574 83.7118 5.53575 83.8378 5.81383C83.8688 5.8828 83.8998 5.95274 83.9268 6.02477C83.9538 6.09581 83.9808 6.16881 84.0038 6.24083C84.0518 6.3878 84.0908 6.53477 84.1218 6.6848C84.1838 6.98277 84.2138 7.28575 84.2128 7.59471" stroke="#FF00FF" stroke-width="0.283465" stroke-miterlimit="10" stroke-linecap="round" stroke-linejoin="round"/>
<path d="M81.3588 44.9191V50.01H80.7423V45.5654H80.7124L79.4695 46.3907V45.7643L80.7423 44.9191H81.3588ZM82.9596 50.0498C82.837 50.0498 82.7317 50.0059 82.6439 49.918C82.5561 49.8302 82.5122 49.725 82.5122 49.6023C82.5122 49.4797 82.5561 49.3745 82.6439 49.2866C82.7317 49.1988 82.837 49.1549 82.9596 49.1549C83.0822 49.1549 83.1875 49.1988 83.2753 49.2866C83.3631 49.3745 83.407 49.4797 83.407 49.6023C83.407 49.6835 83.3863 49.7581 83.3449 49.8261C83.3051 49.894 83.2513 49.9487 83.1833 49.9901C83.117 50.0299 83.0425 50.0498 82.9596 50.0498ZM84.5064 50.01L86.7834 45.5057V45.466H84.1584V44.9191H87.4197V45.4958L85.1527 50.01H84.5064ZM89.8689 50.0796C89.5772 50.0796 89.3145 50.0216 89.0809 49.9056C88.8472 49.7896 88.6599 49.6305 88.5191 49.4283C88.3782 49.2262 88.3012 48.9958 88.2879 48.7373H88.8845C88.9077 48.9676 89.0121 49.1582 89.1977 49.309C89.385 49.4582 89.6087 49.5327 89.8689 49.5327C90.0777 49.5327 90.2633 49.4838 90.4257 49.3861C90.5898 49.2883 90.7182 49.1541 90.811 48.9834C90.9055 48.811 90.9527 48.6163 90.9527 48.3992C90.9527 48.1771 90.9038 47.9791 90.806 47.8051C90.7099 47.6294 90.5773 47.4911 90.4083 47.39C90.2393 47.2889 90.0462 47.2375 89.8291 47.2359C89.6733 47.2342 89.5134 47.2582 89.3493 47.308C89.1853 47.356 89.0502 47.4182 88.9442 47.4944L88.3675 47.4248L88.6757 44.9191H91.3206V45.466H89.1927L89.0138 46.9674H89.0436C89.148 46.8845 89.2789 46.8158 89.4363 46.7611C89.5938 46.7064 89.7578 46.679 89.9285 46.679C90.2401 46.679 90.5177 46.7536 90.7613 46.9028C91.0065 47.0503 91.1988 47.2524 91.338 47.5093C91.4788 47.7662 91.5493 48.0595 91.5493 48.3893C91.5493 48.7141 91.4764 49.0041 91.3305 49.2593C91.1863 49.5129 90.9875 49.7134 90.7339 49.8609C90.4804 50.0067 90.192 50.0796 89.8689 50.0796Z" fill="#0000FF"/>
<path fill-rule="evenodd" clip-rule="evenodd" d="M28.0793 18.6825C27.6872 18.6825 27.3693 19.0004 27.3693 19.3925C27.3693 19.7846 27.6872 20.1025 28.0793 20.1025H29.0693C29.3972 20.1025 29.6593 20.3646 29.6593 20.6925V22.3225C29.6593 22.6504 29.3972 22.9125 29.0693 22.9125H21.9491C21.8473 22.9125 21.7795 22.8073 21.8217 22.7146L22.2779 21.711C22.3183 21.6219 22.3393 21.5253 22.3393 21.4275V21.4175C22.3393 21.1815 22.2177 20.9621 22.0177 20.8369C21.8176 20.7116 21.5672 20.6982 21.3549 20.8014L17.4496 22.6991C16.6692 23.0665 16.6692 24.1785 17.4496 24.5459L21.3549 26.4436C21.6146 26.5698 21.9256 26.5196 22.1324 26.3181C22.3392 26.1165 22.3974 25.8069 22.2779 25.544L21.8171 24.5304C21.775 24.4377 21.8428 24.3325 21.9446 24.3325H29.0693C30.1814 24.3325 31.0793 23.4346 31.0793 22.3225V20.6925C31.0793 19.5804 30.1814 18.6825 29.0693 18.6825H28.0793Z" fill="black"/>
<path d="M35.75 25.7501C35.3594 25.7501 35.1201 25.506 35.1201 25.0958V19.3584C35.1201 18.9482 35.3594 18.7041 35.75 18.7041H39.1827C39.5294 18.7041 39.7589 18.9092 39.7589 19.2363C39.7589 19.5634 39.5294 19.7685 39.1827 19.7685H36.5217C36.4434 19.7685 36.38 19.832 36.38 19.9102V21.5311C36.38 21.6094 36.4435 21.6728 36.5217 21.6728H39.0362C39.3585 21.6728 39.5782 21.8632 39.5782 22.1709C39.5782 22.4786 39.3634 22.6738 39.0362 22.6738H36.5217C36.4434 22.6738 36.38 22.7373 36.38 22.8155V24.5438C36.38 24.6221 36.4435 24.6855 36.5217 24.6855H39.1827C39.5294 24.6855 39.7589 24.8906 39.7589 25.2177C39.7589 25.5448 39.5294 25.7499 39.1827 25.7499H35.75V25.7501Z" fill="black"/>
<path d="M53.3614 22.548H51.2722C51.1816 22.548 51.1148 22.4642 51.1338 22.3756C51.2704 21.7369 51.742 21.4093 52.3364 21.4093C52.9308 21.4093 53.3849 21.7241 53.5011 22.3824C53.5164 22.4689 53.4493 22.548 53.3614 22.548ZM52.3316 20.4668C50.8374 20.4668 49.8853 21.5312 49.8853 23.1817C49.8853 24.8322 50.8179 25.8526 52.4 25.8526C53.2002 25.8526 53.7862 25.6748 54.2859 25.1198C54.5096 24.8714 54.4497 24.5007 54.1536 24.3422C53.9042 24.2086 53.6205 24.3367 53.4812 24.4661C53.0385 24.8775 52.7137 24.9151 52.3903 24.9151C51.6441 24.9151 51.1541 24.4304 51.1011 23.6069C51.0958 23.5248 51.1602 23.4551 51.2425 23.4551H54.1967C54.4779 23.4551 54.7073 23.2303 54.7137 22.9492C54.7464 21.5063 53.7712 20.4668 52.3316 20.4668Z" fill="black"/>
<path d="M40.8516 25.2079V21.0858C40.8516 20.7097 41.0714 20.4704 41.4328 20.4704C41.6396 20.4704 41.8086 20.5509 41.9141 20.6919C41.9397 20.7261 41.9615 20.7648 41.9792 20.8013C42.0136 20.872 42.0981 20.9021 42.1688 20.8678C42.435 20.7388 43.0543 20.4753 43.6697 20.4753C44.8126 20.4753 45.4622 21.2079 45.4622 22.4045V25.208C45.4622 25.6183 45.2131 25.8478 44.8566 25.8478C44.5001 25.8478 44.2461 25.6182 44.2461 25.208V22.6488C44.2461 21.9162 43.9042 21.5059 43.2107 21.5059C42.5172 21.5059 42.0678 22.009 42.0678 22.7513V25.208C42.0678 25.6183 41.8138 25.8478 41.4573 25.8478C41.1008 25.8478 40.8516 25.6182 40.8516 25.2079Z" fill="black"/>
<path d="M55.6992 25.2078V21.0856C55.6992 20.7046 55.9336 20.4702 56.2804 20.4702C56.514 20.4702 56.7006 20.5828 56.7932 20.7787C56.7951 20.7827 56.8015 20.7988 56.81 20.8206C56.8441 20.9081 56.9524 20.9391 57.0273 20.8824C57.2297 20.7293 57.612 20.4849 57.9899 20.4849C58.1804 20.4849 58.3269 20.5337 58.4197 20.6168C58.532 20.7096 58.5906 20.8561 58.5906 21.0564C58.5906 21.2567 58.532 21.3885 58.4099 21.4862C58.2927 21.5888 58.112 21.6425 57.8726 21.6474C57.179 21.6523 56.9153 22.087 56.9153 22.717V25.2079C56.9153 25.6084 56.6711 25.8477 56.3048 25.8477C55.9385 25.8477 55.6992 25.6083 55.6992 25.2078Z" fill="black"/>
<path d="M46.9752 24.4706V21.6543C46.9752 21.576 46.9117 21.5126 46.8335 21.5126H46.6481C46.3454 21.5126 46.1597 21.3417 46.1597 21.0487C46.1597 20.7557 46.3452 20.5897 46.6481 20.5897H46.8335C46.9118 20.5897 46.9752 20.5262 46.9752 20.448V19.885C46.9752 19.4943 47.2096 19.2501 47.5857 19.2501C47.9618 19.2501 48.1913 19.4942 48.1913 19.885V20.448C48.1913 20.5263 48.2548 20.5897 48.333 20.5897H48.7529C49.0556 20.5897 49.2413 20.7605 49.2413 21.0487C49.2413 21.3369 49.0558 21.5126 48.7529 21.5126H48.333C48.2547 21.5126 48.1913 21.5761 48.1913 21.6543V24.2069C48.1913 24.5976 48.328 24.7685 48.6797 24.7978L48.7676 24.8076C49.0899 24.8369 49.256 24.9736 49.256 25.2569C49.256 25.6133 48.9435 25.8039 48.3868 25.8039H48.338C47.4346 25.8039 46.9755 25.3546 46.9755 24.4707H46.9753L46.9752 24.4706Z" fill="black"/>
</svg>
