<svg width="55" height="54" viewBox="0 0 55 54" fill="none" xmlns="http://www.w3.org/2000/svg">
<path d="M11.9159 40.9328C11.4698 40.4188 11.1218 39.8188 10.8779 39.1807C10.6359 38.5486 10.4938 37.8777 10.4639 37.2056L10.4453 7.22321C10.4662 6.6817 10.5662 6.13873 10.7383 5.62262C10.8237 5.36517 10.9277 5.11517 11.0479 4.87311C11.168 4.63336 11.3049 4.40033 11.458 4.17926C11.6099 3.95978 11.7788 3.75177 11.9629 3.55768C12.1456 3.36554 12.3436 3.18756 12.5537 3.02545C12.7628 2.86444 12.9847 2.71942 13.2148 2.59137C13.4446 2.46344 13.6836 2.35236 13.9297 2.25934C14.0842 2.20209 14.2423 2.15009 14.4023 2.10699C14.5616 2.06317 14.7236 2.02716 14.8857 1.99713C15.049 1.96735 15.2129 1.94342 15.377 1.92633C15.542 1.90912 15.708 1.89813 15.874 1.89508C19.7509 1.86481 23.6278 1.84869 27.5049 1.84869C31.3817 1.84918 35.2596 1.8642 39.1367 1.89508C39.8231 1.90509 40.5171 2.04108 41.1592 2.29401C41.481 2.42181 41.7909 2.5788 42.083 2.76471C42.3763 2.95233 42.6514 3.16827 42.9014 3.41022C43.4058 3.89923 43.8108 4.49518 44.0918 5.14313C44.3774 5.80121 44.5394 6.51324 44.5645 7.22321L44.5469 37.2056C44.5157 37.8773 44.3767 38.5493 44.1348 39.1812C43.8896 39.8193 43.5397 40.4183 43.0938 40.9332C42.6498 41.4473 42.1078 41.8784 41.5059 42.1983C40.9106 42.5143 40.2577 42.7234 39.5947 42.8013C31.547 43.4144 23.464 43.4144 15.416 42.8013C14.7518 42.723 14.0999 42.5119 13.506 42.1962C12.903 41.8752 12.361 41.4462 11.9159 40.9328Z" stroke="#16215B" stroke-width="0.283" stroke-miterlimit="10"/>
<rect x="13.188" y="5.46796" width="28.63" height="34.34" rx="1.46" stroke="#00FFFF" stroke-width="0.28"/>
<path d="M43.4594 36.7488C43.4584 37.0358 43.4374 37.3198 43.3964 37.6008C43.3544 37.8808 43.2934 38.1578 43.2084 38.4308C43.1863 38.4998 43.1643 38.5678 43.1393 38.6358C43.1154 38.7028 43.0894 38.7708 43.0624 38.8378C43.0083 38.9708 42.9484 39.1008 42.8833 39.2278C42.7523 39.4818 42.5994 39.7228 42.4224 39.9507C42.3783 40.0068 42.3313 40.0628 42.2843 40.1177C42.2373 40.1718 42.1884 40.2238 42.1393 40.2758C42.0413 40.3788 41.9363 40.4758 41.8294 40.5678C41.7204 40.6599 41.6073 40.7458 41.4894 40.8257C41.4303 40.8658 41.3704 40.9048 41.3084 40.9407C41.2473 40.9778 41.1844 41.0137 41.1214 41.0478C40.8683 41.1818 40.6044 41.2868 40.3323 41.3648C40.2633 41.3848 40.1944 41.4018 40.1254 41.4178C40.0553 41.4338 39.9854 41.4478 39.9153 41.4608C39.7733 41.4858 39.6324 41.5027 39.4894 41.5137C37.5055 41.6638 35.5155 41.7758 33.5176 41.8508C32.5186 41.8887 31.5166 41.9168 30.5136 41.9359C30.0126 41.9448 29.5095 41.9518 29.0076 41.9568C28.5055 41.9619 28.0045 41.9638 27.5026 41.9638C25.4976 41.9638 23.4966 41.9268 21.4986 41.8508C20.4995 41.8138 19.5005 41.7668 18.5036 41.7108C18.0055 41.6818 17.5076 41.6518 17.0105 41.6188C16.5136 41.5869 16.0166 41.5518 15.5219 41.5141C15.2368 41.4921 14.9578 41.4442 14.6858 41.3671C14.5498 41.3292 14.4158 41.2831 14.2829 41.2302C14.2168 41.2042 14.1519 41.1751 14.0858 41.1452C14.0219 41.1152 13.9568 41.0832 13.8948 41.0501C13.6438 40.9172 13.4079 40.7591 13.1908 40.5751C13.1359 40.5291 13.0818 40.4811 13.0298 40.4332C12.9778 40.3831 12.9258 40.3321 12.8759 40.2812C12.7769 40.1782 12.6829 40.0701 12.5949 39.9582C12.5069 39.8461 12.4239 39.7292 12.3468 39.6092C12.3089 39.5491 12.2719 39.4881 12.2359 39.4251C12.1989 39.3631 12.1648 39.3001 12.1319 39.2361C11.9988 38.9802 11.8919 38.7151 11.8068 38.4432C11.7638 38.3072 11.7268 38.1682 11.6949 38.0281C11.6789 37.9582 11.6638 37.8881 11.6509 37.8172C11.6378 37.7462 11.6249 37.6761 11.6149 37.6052C11.5729 37.3211 11.5529 37.0362 11.5517 36.7488C11.5297 27.0169 11.5047 17.2839 11.4771 7.55182C11.4761 7.25482 11.5021 6.96283 11.5561 6.67487C11.5821 6.53082 11.6161 6.38886 11.6571 6.24786C11.6781 6.17682 11.6991 6.10687 11.724 6.03693C11.7481 5.96783 11.7731 5.89886 11.8011 5.83185C11.911 5.56085 12.047 5.30487 12.2091 5.0639C12.25 5.00385 12.292 4.94489 12.3361 4.88593C12.38 4.82782 12.4261 4.77094 12.473 4.7149C12.567 4.60284 12.666 4.49689 12.771 4.39691C12.9801 4.19684 13.208 4.01984 13.4571 3.86591C13.7061 3.71185 13.9671 3.5849 14.239 3.48383C14.375 3.43292 14.5141 3.38886 14.6541 3.35089C14.7261 3.33185 14.797 3.3139 14.8681 3.29791C14.9391 3.28192 15.0121 3.26788 15.0841 3.25592C15.3721 3.2049 15.6641 3.17889 15.9589 3.17682C17.8719 3.16083 19.7908 3.14984 21.7168 3.14191C22.6798 3.1369 23.6448 3.13483 24.6109 3.13287C25.0939 3.1319 25.5758 3.13092 26.0598 3.13092C26.5419 3.12982 27.0259 3.12982 27.5078 3.12982C29.4389 3.12982 31.3649 3.13385 33.2898 3.14093C34.2528 3.14484 35.2139 3.14984 36.1748 3.15582C37.1369 3.16193 38.0949 3.16888 39.0523 3.17682C39.3473 3.17889 39.6372 3.2049 39.9232 3.25482C40.2083 3.30389 40.4883 3.37885 40.7632 3.4809C40.8323 3.50592 40.9003 3.5329 40.9683 3.56183C41.0353 3.59088 41.1012 3.62091 41.1673 3.65289C41.2982 3.71686 41.4253 3.78583 41.5482 3.86188C41.7932 4.01385 42.0222 4.18988 42.2333 4.39191C42.2873 4.44183 42.3393 4.49384 42.3882 4.54694C42.4383 4.59991 42.4862 4.65485 42.5332 4.7099C42.6272 4.82086 42.7152 4.93585 42.7963 5.05585C42.8772 5.17584 42.9523 5.29987 43.0203 5.42792C43.0553 5.49286 43.0883 5.55792 43.1193 5.62494C43.1503 5.69183 43.1803 5.75983 43.2083 5.82782C43.2353 5.89594 43.2622 5.9649 43.2853 6.03485C43.3092 6.10492 43.3323 6.17487 43.3523 6.24591C43.3943 6.3869 43.4282 6.52985 43.4552 6.67389C43.5093 6.96185 43.5353 7.25482 43.5341 7.55219C43.5061 17.2841 43.4801 27.0172 43.4582 36.7491" stroke="#FF00FF" stroke-width="0.283465" stroke-miterlimit="10" stroke-linecap="round" stroke-linejoin="round"/>
<path fill-rule="evenodd" clip-rule="evenodd" d="M34.5793 22.4825C34.1872 22.4825 33.8693 22.8004 33.8693 23.1925C33.8693 23.5846 34.1872 23.9025 34.5793 23.9025H36.5693C36.8972 23.9025 37.1593 24.1646 37.1593 24.4925V29.3225C37.1593 29.6504 36.8972 29.9125 36.5693 29.9125H29.4491C29.3473 29.9125 29.2795 29.8073 29.3217 29.7146L29.7779 28.711C29.8183 28.622 29.8393 28.5253 29.8393 28.4275V28.4175C29.8393 28.1815 29.7177 27.9621 29.5177 27.8369C29.3176 27.7117 29.0672 27.6983 28.8549 27.8014L24.9496 29.6991C24.1692 30.0665 24.1692 31.1785 24.9496 31.5459L28.8549 33.4436C29.1146 33.5698 29.4256 33.5196 29.6324 33.3181C29.8392 33.1165 29.8974 32.8069 29.7779 32.5441L29.3171 31.5304C29.275 31.4378 29.3428 31.3325 29.4446 31.3325H36.5693C37.6814 31.3325 38.5793 30.4346 38.5793 29.3225V24.4925C38.5793 23.3804 37.6814 22.4825 36.5693 22.4825H34.5793Z" fill="black"/>
<path d="M16.25 16.7501C15.8594 16.7501 15.6201 16.506 15.6201 16.0958V10.3584C15.6201 9.9482 15.8594 9.7041 16.25 9.7041H19.6827C20.0294 9.7041 20.2589 9.9092 20.2589 10.2363C20.2589 10.5634 20.0294 10.7685 19.6827 10.7685H17.0217C16.9434 10.7685 16.88 10.832 16.88 10.9102V12.5311C16.88 12.6094 16.9435 12.6728 17.0217 12.6728H19.5362C19.8585 12.6728 20.0782 12.8632 20.0782 13.1709C20.0782 13.4786 19.8634 13.6738 19.5362 13.6738H17.0217C16.9434 13.6738 16.88 13.7373 16.88 13.8155V15.5438C16.88 15.6221 16.9435 15.6855 17.0217 15.6855H19.6827C20.0294 15.6855 20.2589 15.8906 20.2589 16.2177C20.2589 16.5448 20.0294 16.7499 19.6827 16.7499H16.25V16.7501Z" fill="black"/>
<path d="M33.8614 13.548H31.7722C31.6816 13.548 31.6148 13.4642 31.6338 13.3756C31.7704 12.7369 32.242 12.4093 32.8364 12.4093C33.4308 12.4093 33.8849 12.7241 34.0011 13.3824C34.0164 13.4689 33.9493 13.548 33.8614 13.548ZM32.8316 11.4668C31.3374 11.4668 30.3853 12.5312 30.3853 14.1817C30.3853 15.8322 31.3179 16.8526 32.9 16.8526C33.7002 16.8526 34.2862 16.6748 34.7859 16.1198C35.0096 15.8714 34.9497 15.5007 34.6536 15.3422C34.4042 15.2086 34.1205 15.3367 33.9812 15.4661C33.5385 15.8775 33.2137 15.9151 32.8903 15.9151C32.1441 15.9151 31.6541 15.4304 31.6011 14.6069C31.5958 14.5248 31.6602 14.4551 31.7425 14.4551H34.6967C34.9779 14.4551 35.2073 14.2303 35.2137 13.9492C35.2464 12.5063 34.2712 11.4668 32.8316 11.4668Z" fill="black"/>
<path d="M21.3516 16.2079V12.0858C21.3516 11.7097 21.5714 11.4704 21.9328 11.4704C22.1396 11.4704 22.3086 11.5509 22.4141 11.6919C22.4397 11.7261 22.4615 11.7648 22.4792 11.8013C22.5136 11.872 22.5981 11.9021 22.6688 11.8678C22.935 11.7388 23.5543 11.4753 24.1697 11.4753C25.3126 11.4753 25.9622 12.2079 25.9622 13.4045V16.208C25.9622 16.6183 25.7131 16.8478 25.3566 16.8478C25.0001 16.8478 24.7461 16.6182 24.7461 16.208V13.6488C24.7461 12.9162 24.4042 12.5059 23.7107 12.5059C23.0172 12.5059 22.5678 13.009 22.5678 13.7513V16.208C22.5678 16.6183 22.3138 16.8478 21.9573 16.8478C21.6008 16.8478 21.3516 16.6182 21.3516 16.2079Z" fill="black"/>
<path d="M36.1992 16.2078V12.0856C36.1992 11.7046 36.4336 11.4702 36.7804 11.4702C37.014 11.4702 37.2006 11.5828 37.2932 11.7787C37.2951 11.7827 37.3015 11.7988 37.31 11.8206C37.3441 11.9081 37.4524 11.9391 37.5273 11.8824C37.7297 11.7293 38.112 11.4849 38.4899 11.4849C38.6804 11.4849 38.8269 11.5337 38.9197 11.6168C39.032 11.7096 39.0906 11.8561 39.0906 12.0564C39.0906 12.2567 39.032 12.3885 38.9099 12.4862C38.7927 12.5888 38.612 12.6425 38.3726 12.6474C37.679 12.6523 37.4153 13.087 37.4153 13.717V16.2079C37.4153 16.6084 37.1711 16.8477 36.8048 16.8477C36.4385 16.8477 36.1992 16.6083 36.1992 16.2078Z" fill="black"/>
<path d="M27.4752 15.4706V12.6543C27.4752 12.576 27.4117 12.5126 27.3335 12.5126H27.1481C26.8454 12.5126 26.6597 12.3417 26.6597 12.0487C26.6597 11.7557 26.8452 11.5897 27.1481 11.5897H27.3335C27.4118 11.5897 27.4752 11.5262 27.4752 11.448V10.885C27.4752 10.4943 27.7096 10.2501 28.0857 10.2501C28.4618 10.2501 28.6913 10.4942 28.6913 10.885V11.448C28.6913 11.5263 28.7548 11.5897 28.833 11.5897H29.2529C29.5556 11.5897 29.7413 11.7605 29.7413 12.0487C29.7413 12.3369 29.5558 12.5126 29.2529 12.5126H28.833C28.7547 12.5126 28.6913 12.5761 28.6913 12.6543V15.2069C28.6913 15.5976 28.828 15.7685 29.1797 15.7978L29.2676 15.8076C29.5899 15.8369 29.756 15.9736 29.756 16.2569C29.756 16.6133 29.4435 16.8039 28.8868 16.8039H28.838C27.9346 16.8039 27.4755 16.3546 27.4755 15.4707H27.4753L27.4752 15.4706Z" fill="black"/>
</svg>
