<svg width="122" height="54" viewBox="0 0 122 54" fill="none" xmlns="http://www.w3.org/2000/svg">
<path d="M109.846 40.8597C109.367 41.3588 108.792 41.7657 108.162 42.0547C107.535 42.3424 106.856 42.5134 106.173 42.5664C91.035 43.0283 75.892 43.2593 60.747 43.2593C45.6022 43.2595 30.4592 43.0284 15.3212 42.5664C14.6389 42.5129 13.9589 42.3339 13.3349 42.0479C13.0195 41.9038 12.7175 41.7328 12.4355 41.5337C12.1523 41.335 11.8873 41.1089 11.6483 40.8589C11.4087 40.6085 11.1937 40.3364 11.0067 40.0454C10.8212 39.7554 10.6622 39.4495 10.5313 39.1304C10.2718 38.4998 10.1188 37.8187 10.0888 37.1396L10.0732 7.25537C10.0995 6.52502 10.2835 5.79309 10.5985 5.12598C10.9123 4.46387 11.3563 3.86292 11.9023 3.38086C12.4453 2.90198 13.0893 2.53894 13.7744 2.29492C14.4592 2.05103 15.1832 1.927 15.9042 1.91992C45.7998 1.82202 75.6938 1.82202 105.59 1.91992C105.951 1.92505 106.314 1.95813 106.671 2.02002C107.028 2.08154 107.379 2.17053 107.72 2.2915C108.404 2.53345 109.047 2.90137 109.592 3.38135C110.139 3.86462 110.586 4.46155 110.899 5.12451C111.214 5.79138 111.395 6.52441 111.421 7.25537L111.405 37.1396C111.375 37.8193 111.23 38.5004 110.968 39.1324C110.704 39.7715 110.324 40.3615 109.846 40.8597Z" stroke="#16215B" stroke-width="0.283" stroke-miterlimit="10"/>
<path d="M11.2354 6.23291V38.5249C11.2354 39.699 12.1873 40.651 13.3613 40.651L108.131 40.6509C109.305 40.6509 110.257 39.699 110.257 38.5249V6.2334C110.257 5.05945 109.305 4.10742 108.131 4.10742H101.753H13.3612C12.1872 4.10742 11.2352 5.05945 11.2354 6.23291Z" stroke="#00FFFF" stroke-width="0.28" stroke-miterlimit="10"/>
<path d="M12.8109 40.5879C12.8789 40.631 12.9489 40.672 13.0199 40.7119C13.0839 40.7469 13.1499 40.781 13.2159 40.813C13.2829 40.845 13.3499 40.876 13.4169 40.9039C13.6869 41.0189 13.9659 41.106 14.2529 41.1659C14.3969 41.1959 14.5419 41.22 14.6889 41.2369C14.8349 41.255 14.9819 41.2649 15.1289 41.2699C45.4943 42.2346 75.9553 42.2346 106.319 41.2706C106.357 41.27 106.394 41.269 106.431 41.2671M106.431 41.2671C106.468 41.2661 106.505 41.2631 106.542 41.2611C106.615 41.2561 106.688 41.25 106.761 41.2421C106.907 41.2261 107.051 41.2041 107.195 41.175C107.481 41.1171 107.762 41.0331 108.038 40.9191C108.107 40.8911 108.174 40.8611 108.242 40.8291M106.431 41.2671C106.395 41.269 106.359 41.27 106.321 41.2706C75.9562 42.2346 45.4952 42.2346 15.1312 41.2693C14.9842 41.2653 14.8372 41.2543 14.6912 41.2373C14.5442 41.2203 14.3992 41.1963 14.2552 41.1663C13.9682 41.1052 13.6892 41.0193 13.4182 40.9043C13.3512 40.8763 13.2832 40.8453 13.2172 40.8132C13.1512 40.7813 13.0852 40.7473 13.0212 40.7113C12.8932 40.6403 12.7692 40.5632 12.6492 40.4802C12.5302 40.3962 12.4142 40.3063 12.3042 40.2103C12.2482 40.1622 12.1952 40.1133 12.1422 40.0613C12.0892 40.0103 12.0372 39.9573 11.9872 39.9033C11.7862 39.6873 11.6132 39.4523 11.4632 39.2023C11.3882 39.0763 11.3202 38.9473 11.2572 38.8132C11.1952 38.6793 11.1392 38.5433 11.0902 38.4053C11.0402 38.2673 10.9982 38.1263 10.9622 37.9833C10.9252 37.8413 10.8962 37.6973 10.8722 37.5532C10.8242 37.2633 10.8022 36.9723 10.8012 36.6782L10.7999 36.6787C10.779 26.9927 10.7549 17.3066 10.729 7.62061L10.7981 36.6782C10.778 26.9922 10.754 17.3062 10.7271 7.62012L10.7256 7.62024C10.7246 7.30725 10.7566 6.99829 10.8216 6.69434C10.8376 6.61829 10.8556 6.54224 10.8776 6.46729C10.8976 6.39124 10.9206 6.31726 10.9446 6.24329C10.9947 6.09631 11.0526 5.95227 11.1186 5.81226C11.1516 5.74133 11.1866 5.67224 11.2237 5.60425C11.2616 5.53528 11.3017 5.46826 11.3416 5.40234C11.3886 5.32532 11.4386 5.25134 11.4917 5.17822L11.9847 4.6084C12.0167 4.57739 12.0497 4.54736 12.0827 4.51733C12.1407 4.46533 12.1997 4.41443 12.2597 4.36536C12.5017 4.16943 12.7597 4.00134 13.0357 3.8584C13.1037 3.82141 13.1737 3.78735 13.2447 3.75537C13.3147 3.72144 13.3867 3.69043 13.4587 3.66138C13.6027 3.60242 13.7487 3.54944 13.8957 3.50439C14.1917 3.41235 14.4947 3.34436 14.8037 3.30042C14.9587 3.27844 15.1137 3.26233 15.2697 3.25134C15.3467 3.24634 15.4257 3.24243 15.5037 3.23938C15.5427 3.2384 15.5817 3.23743 15.6207 3.23633C15.6598 3.23633 15.6988 3.23633 15.7378 3.23633H15.7394C45.7264 3.13342 75.8064 3.13342 105.793 3.23633C106.1 3.23706 106.405 3.25903 106.708 3.30298C106.784 3.31506 106.86 3.32703 106.935 3.34106C107.009 3.35498 107.084 3.37 107.159 3.38696C107.306 3.42004 107.453 3.45898 107.597 3.50403C107.885 3.59399 108.165 3.70703 108.437 3.84705C108.505 3.88196 108.573 3.91907 108.638 3.95801M106.431 41.2671C106.468 41.2661 106.507 41.2631 106.544 41.2611C106.617 41.2561 106.69 41.25 106.763 41.2421C106.909 41.2261 107.053 41.2041 107.197 41.175C107.483 41.1171 107.764 41.0331 108.04 40.9191C108.108 40.8911 108.175 40.8611 108.242 40.8291M108.242 40.8291C108.308 40.797 108.375 40.764 108.439 40.729C108.509 40.691 108.578 40.651 108.645 40.6101L110.226 38.832C110.227 38.8301 110.229 38.8281 110.23 38.826M108.242 40.8291C108.309 40.797 108.376 40.764 108.441 40.729C108.57 40.6591 108.696 40.583 108.817 40.499C108.938 40.416 109.055 40.326 109.169 40.229C109.225 40.181 109.28 40.1311 109.334 40.0791C109.387 40.0281 109.439 39.9761 109.49 39.921C109.692 39.7061 109.869 39.472 110.021 39.218C110.06 39.1541 110.096 39.0891 110.132 39.024C110.167 38.958 110.199 38.8921 110.23 38.826M110.23 38.826C110.292 38.6921 110.349 38.5562 110.398 38.4171C110.448 38.2791 110.491 38.1381 110.528 37.9951M110.23 38.826C110.294 38.692 110.35 38.556 110.4 38.4171C110.45 38.2791 110.492 38.1381 110.528 37.9951M110.528 37.9951C110.564 37.8531 110.595 37.707 110.619 37.561C110.667 37.269 110.691 36.9751 110.691 36.6781L110.694 36.6782C110.715 26.9532 110.739 17.2273 110.766 7.50232C110.764 7.42505 110.76 7.349 110.754 7.27307C110.748 7.19604 110.741 7.12097 110.731 7.04504C110.711 6.89502 110.685 6.74597 110.649 6.59802C110.614 6.45105 110.571 6.30603 110.519 6.16199C110.493 6.08997 110.464 6.01807 110.435 5.948C110.405 5.87805 110.373 5.80896 110.339 5.74097C110.205 5.46997 110.041 5.21606 109.85 4.98096C109.802 4.922 109.752 4.86401 109.701 4.80701C109.649 4.75098 109.596 4.69604 109.541 4.64197C109.433 4.53601 109.32 4.43506 109.202 4.34106C109.083 4.24707 108.96 4.15906 108.833 4.07605C108.769 4.03503 108.704 3.99597 108.638 3.95801M110.528 37.9951C110.565 37.853 110.596 37.707 110.621 37.561C110.669 37.269 110.692 36.9751 110.693 36.6781C110.714 26.9532 110.737 17.2273 110.764 7.50232L109.459 4.56445C109.375 4.48657 109.289 4.41248 109.2 4.34045C109.082 4.24646 108.959 4.15857 108.831 4.07654C108.768 4.03552 108.703 3.99597 108.638 3.95801M108.638 3.95801C108.571 3.91895 108.503 3.88257 108.435 3.84753C108.164 3.70752 107.883 3.59351 107.595 3.50354C107.45 3.45947 107.305 3.41956 107.156 3.38647C107.082 3.37048 107.008 3.35449 106.933 3.34045C106.857 3.32751 106.782 3.31445 106.706 3.30347C106.403 3.25854 106.098 3.23755 105.791 3.23633C104.444 3.23145 103.098 3.22742 101.75 3.22339" stroke="#FF00FF" stroke-width="0.283465" stroke-miterlimit="10" stroke-linecap="round" stroke-linejoin="round"/>
<path d="M106.374 52.01V51.5626L108.054 49.7231C108.251 49.5076 108.414 49.3204 108.541 49.1613C108.669 49.0005 108.763 48.8497 108.825 48.7089C108.888 48.5664 108.919 48.4172 108.919 48.2614C108.919 48.0825 108.876 47.9275 108.79 47.7966C108.705 47.6657 108.589 47.5646 108.442 47.4933C108.294 47.4221 108.129 47.3864 107.945 47.3864C107.749 47.3864 107.578 47.427 107.433 47.5082C107.288 47.5878 107.177 47.6996 107.097 47.8438C107.019 47.988 106.98 48.157 106.98 48.3509H106.394C106.394 48.0526 106.462 47.7908 106.6 47.5654C106.737 47.34 106.925 47.1644 107.162 47.0384C107.4 46.9125 107.668 46.8495 107.965 46.8495C108.263 46.8495 108.527 46.9125 108.758 47.0384C108.988 47.1644 109.169 47.3342 109.299 47.548C109.43 47.7618 109.496 47.9996 109.496 48.2614C109.496 48.4487 109.462 48.6318 109.394 48.8108C109.328 48.9881 109.212 49.1861 109.046 49.4049C108.882 49.622 108.654 49.8871 108.362 50.2004L107.219 51.4234V51.4631H109.585V52.01H106.374ZM111.049 52.0498C110.927 52.0498 110.822 52.0059 110.734 51.918C110.646 51.8302 110.602 51.725 110.602 51.6023C110.602 51.4797 110.646 51.3745 110.734 51.2866C110.822 51.1988 110.927 51.1549 111.049 51.1549C111.172 51.1549 111.277 51.1988 111.365 51.2866C111.453 51.3745 111.497 51.4797 111.497 51.6023C111.497 51.6835 111.476 51.7581 111.435 51.8261C111.395 51.894 111.341 51.9487 111.273 51.9901C111.207 52.0299 111.132 52.0498 111.049 52.0498ZM112.54 52.01V51.5626L114.22 49.7231C114.417 49.5076 114.58 49.3204 114.707 49.1613C114.835 49.0005 114.929 48.8497 114.991 48.7089C115.054 48.5664 115.085 48.4172 115.085 48.2614C115.085 48.0825 115.042 47.9275 114.956 47.7966C114.871 47.6657 114.755 47.5646 114.608 47.4933C114.46 47.4221 114.295 47.3864 114.111 47.3864C113.915 47.3864 113.744 47.427 113.599 47.5082C113.454 47.5878 113.343 47.6996 113.263 47.8438C113.185 47.988 113.146 48.157 113.146 48.3509H112.56C112.56 48.0526 112.628 47.7908 112.766 47.5654C112.903 47.34 113.091 47.1644 113.328 47.0384C113.566 46.9125 113.834 46.8495 114.131 46.8495C114.429 46.8495 114.693 46.9125 114.924 47.0384C115.154 47.1644 115.335 47.3342 115.465 47.548C115.596 47.7618 115.662 47.9996 115.662 48.2614C115.662 48.4487 115.628 48.6318 115.56 48.8108C115.494 48.9881 115.378 49.1861 115.212 49.4049C115.048 49.622 114.82 49.8871 114.528 50.2004L113.385 51.4234V51.4631H115.751V52.01H112.54ZM118.369 52.0796C118.077 52.0796 117.815 52.0216 117.581 51.9056C117.347 51.7896 117.16 51.6305 117.019 51.4283C116.878 51.2262 116.801 50.9958 116.788 50.7373H117.384C117.408 50.9676 117.512 51.1582 117.698 51.309C117.885 51.4582 118.109 51.5327 118.369 51.5327C118.578 51.5327 118.763 51.4838 118.926 51.3861C119.09 51.2883 119.218 51.1541 119.311 50.9834C119.405 50.811 119.453 50.6163 119.453 50.3992C119.453 50.1771 119.404 49.9791 119.306 49.8051C119.21 49.6294 119.077 49.4911 118.908 49.39C118.739 49.2889 118.546 49.2375 118.329 49.2359C118.173 49.2342 118.013 49.2582 117.849 49.308C117.685 49.356 117.55 49.4182 117.444 49.4944L116.867 49.4248L117.176 46.9191H119.821V47.466H117.693L117.514 48.9674H117.544C117.648 48.8845 117.779 48.8158 117.936 48.7611C118.094 48.7064 118.258 48.679 118.429 48.679C118.74 48.679 119.018 48.7536 119.261 48.9028C119.507 49.0503 119.699 49.2524 119.838 49.5093C119.979 49.7662 120.049 50.0595 120.049 50.3893C120.049 50.7141 119.976 51.0041 119.831 51.2593C119.686 51.5129 119.487 51.7134 119.234 51.8609C118.98 52.0067 118.692 52.0796 118.369 52.0796Z" fill="#0000FF"/>
<path fill-rule="evenodd" clip-rule="evenodd" d="M27.5793 18.6825C27.1872 18.6825 26.8693 19.0004 26.8693 19.3925C26.8693 19.7846 27.1872 20.1025 27.5793 20.1025H28.5693C28.8972 20.1025 29.1593 20.3646 29.1593 20.6925V22.3225C29.1593 22.6504 28.8972 22.9125 28.5693 22.9125H21.4491C21.3473 22.9125 21.2795 22.8073 21.3217 22.7146L21.7779 21.711C21.8183 21.6219 21.8393 21.5253 21.8393 21.4275V21.4175C21.8393 21.1815 21.7177 20.9621 21.5177 20.8369C21.3176 20.7116 21.0672 20.6982 20.8549 20.8014L16.9496 22.6991C16.1692 23.0665 16.1692 24.1785 16.9496 24.5459L20.8549 26.4436C21.1146 26.5698 21.4256 26.5196 21.6324 26.3181C21.8392 26.1165 21.8974 25.8069 21.7779 25.544L21.3171 24.5304C21.275 24.4377 21.3428 24.3325 21.4446 24.3325H28.5693C29.6814 24.3325 30.5793 23.4346 30.5793 22.3225V20.6925C30.5793 19.5804 29.6814 18.6825 28.5693 18.6825H27.5793Z" fill="black"/>
<path d="M35.25 25.7501C34.8594 25.7501 34.6201 25.506 34.6201 25.0958V19.3584C34.6201 18.9482 34.8594 18.7041 35.25 18.7041H38.6827C39.0294 18.7041 39.2589 18.9092 39.2589 19.2363C39.2589 19.5634 39.0294 19.7685 38.6827 19.7685H36.0217C35.9434 19.7685 35.88 19.832 35.88 19.9102V21.5311C35.88 21.6094 35.9435 21.6728 36.0217 21.6728H38.5362C38.8585 21.6728 39.0782 21.8632 39.0782 22.1709C39.0782 22.4786 38.8634 22.6738 38.5362 22.6738H36.0217C35.9434 22.6738 35.88 22.7373 35.88 22.8155V24.5438C35.88 24.6221 35.9435 24.6855 36.0217 24.6855H38.6827C39.0294 24.6855 39.2589 24.8906 39.2589 25.2177C39.2589 25.5448 39.0294 25.7499 38.6827 25.7499H35.25V25.7501Z" fill="black"/>
<path d="M52.8614 22.548H50.7722C50.6816 22.548 50.6148 22.4642 50.6338 22.3756C50.7704 21.7369 51.242 21.4093 51.8364 21.4093C52.4308 21.4093 52.8849 21.7241 53.0011 22.3824C53.0164 22.4689 52.9493 22.548 52.8614 22.548ZM51.8316 20.4668C50.3374 20.4668 49.3853 21.5312 49.3853 23.1817C49.3853 24.8322 50.3179 25.8526 51.9 25.8526C52.7002 25.8526 53.2862 25.6748 53.7859 25.1198C54.0096 24.8714 53.9497 24.5007 53.6536 24.3422C53.4042 24.2086 53.1205 24.3367 52.9812 24.4661C52.5385 24.8775 52.2137 24.9151 51.8903 24.9151C51.1441 24.9151 50.6541 24.4304 50.6011 23.6069C50.5958 23.5248 50.6602 23.4551 50.7425 23.4551H53.6967C53.9779 23.4551 54.2073 23.2303 54.2137 22.9492C54.2464 21.5063 53.2712 20.4668 51.8316 20.4668Z" fill="black"/>
<path d="M40.3516 25.2079V21.0858C40.3516 20.7097 40.5714 20.4704 40.9328 20.4704C41.1396 20.4704 41.3086 20.5509 41.4141 20.6919C41.4397 20.7261 41.4615 20.7648 41.4792 20.8013C41.5136 20.872 41.5981 20.9021 41.6688 20.8678C41.935 20.7388 42.5543 20.4753 43.1697 20.4753C44.3126 20.4753 44.9622 21.2079 44.9622 22.4045V25.208C44.9622 25.6183 44.7131 25.8478 44.3566 25.8478C44.0001 25.8478 43.7461 25.6182 43.7461 25.208V22.6488C43.7461 21.9162 43.4042 21.5059 42.7107 21.5059C42.0172 21.5059 41.5678 22.009 41.5678 22.7513V25.208C41.5678 25.6183 41.3138 25.8478 40.9573 25.8478C40.6008 25.8478 40.3516 25.6182 40.3516 25.2079Z" fill="black"/>
<path d="M55.1992 25.2078V21.0856C55.1992 20.7046 55.4336 20.4702 55.7804 20.4702C56.014 20.4702 56.2006 20.5828 56.2932 20.7787C56.2951 20.7827 56.3015 20.7988 56.31 20.8206C56.3441 20.9081 56.4524 20.9391 56.5273 20.8824C56.7297 20.7293 57.112 20.4849 57.4899 20.4849C57.6804 20.4849 57.8269 20.5337 57.9197 20.6168C58.032 20.7096 58.0906 20.8561 58.0906 21.0564C58.0906 21.2567 58.032 21.3885 57.9099 21.4862C57.7927 21.5888 57.612 21.6425 57.3726 21.6474C56.679 21.6523 56.4153 22.087 56.4153 22.717V25.2079C56.4153 25.6084 56.1711 25.8477 55.8048 25.8477C55.4385 25.8477 55.1992 25.6083 55.1992 25.2078Z" fill="black"/>
<path d="M46.4752 24.4706V21.6543C46.4752 21.576 46.4117 21.5126 46.3335 21.5126H46.1481C45.8454 21.5126 45.6597 21.3417 45.6597 21.0487C45.6597 20.7557 45.8452 20.5897 46.1481 20.5897H46.3335C46.4118 20.5897 46.4752 20.5262 46.4752 20.448V19.885C46.4752 19.4943 46.7096 19.2501 47.0857 19.2501C47.4618 19.2501 47.6913 19.4942 47.6913 19.885V20.448C47.6913 20.5263 47.7548 20.5897 47.833 20.5897H48.2529C48.5556 20.5897 48.7413 20.7605 48.7413 21.0487C48.7413 21.3369 48.5558 21.5126 48.2529 21.5126H47.833C47.7547 21.5126 47.6913 21.5761 47.6913 21.6543V24.2069C47.6913 24.5976 47.828 24.7685 48.1797 24.7978L48.2676 24.8076C48.5899 24.8369 48.756 24.9736 48.756 25.2569C48.756 25.6133 48.4435 25.8039 47.8868 25.8039H47.838C46.9346 25.8039 46.4755 25.3546 46.4755 24.4707H46.4753L46.4752 24.4706Z" fill="black"/>
</svg>
