<svg width="55" height="54" viewBox="0 0 55 54" fill="none" xmlns="http://www.w3.org/2000/svg">
<path d="M11.9159 40.9328C11.4698 40.4188 11.1218 39.8188 10.8779 39.1807C10.6359 38.5486 10.4938 37.8777 10.4639 37.2056L10.4453 7.22321C10.4662 6.6817 10.5662 6.13873 10.7383 5.62262C10.8237 5.36517 10.9277 5.11517 11.0479 4.87311C11.168 4.63336 11.3049 4.40033 11.458 4.17926C11.6099 3.95978 11.7788 3.75177 11.9629 3.55768C12.1456 3.36554 12.3436 3.18756 12.5537 3.02545C12.7628 2.86444 12.9847 2.71942 13.2148 2.59137C13.4446 2.46344 13.6836 2.35236 13.9297 2.25934C14.0842 2.20209 14.2423 2.15009 14.4023 2.10699C14.5616 2.06317 14.7236 2.02716 14.8857 1.99713C15.049 1.96735 15.2129 1.94342 15.377 1.92633C15.542 1.90912 15.708 1.89813 15.874 1.89508C19.7509 1.86481 23.6278 1.84869 27.5049 1.84869C31.3817 1.84918 35.2596 1.8642 39.1367 1.89508C39.8231 1.90509 40.5171 2.04108 41.1592 2.29401C41.481 2.42181 41.7909 2.5788 42.083 2.76471C42.3763 2.95233 42.6514 3.16827 42.9014 3.41022C43.4058 3.89923 43.8108 4.49518 44.0918 5.14313C44.3774 5.80121 44.5394 6.51324 44.5645 7.22321L44.5469 37.2056C44.5157 37.8773 44.3767 38.5493 44.1348 39.1812C43.8896 39.8193 43.5397 40.4183 43.0938 40.9332C42.6498 41.4473 42.1078 41.8784 41.5059 42.1983C40.9106 42.5143 40.2577 42.7234 39.5947 42.8013C31.547 43.4144 23.464 43.4144 15.416 42.8013C14.7518 42.723 14.0999 42.5119 13.506 42.1962C12.903 41.8752 12.361 41.4462 11.9159 40.9328Z" stroke="#16215B" stroke-width="0.283" stroke-miterlimit="10"/>
<rect x="13.188" y="5.46796" width="28.63" height="34.34" rx="1.46" stroke="#00FFFF" stroke-width="0.28"/>
<path d="M43.4594 36.7488C43.4584 37.0358 43.4374 37.3198 43.3964 37.6008C43.3544 37.8808 43.2934 38.1578 43.2084 38.4308C43.1863 38.4998 43.1643 38.5678 43.1393 38.6358C43.1154 38.7028 43.0894 38.7708 43.0624 38.8378C43.0083 38.9708 42.9484 39.1008 42.8833 39.2278C42.7523 39.4818 42.5994 39.7228 42.4224 39.9507C42.3783 40.0068 42.3313 40.0628 42.2843 40.1177C42.2373 40.1718 42.1884 40.2238 42.1393 40.2758C42.0413 40.3788 41.9363 40.4758 41.8294 40.5678C41.7204 40.6599 41.6073 40.7458 41.4894 40.8257C41.4303 40.8658 41.3704 40.9048 41.3084 40.9407C41.2473 40.9778 41.1844 41.0137 41.1214 41.0478C40.8683 41.1818 40.6044 41.2868 40.3323 41.3648C40.2633 41.3848 40.1944 41.4018 40.1254 41.4178C40.0553 41.4338 39.9854 41.4478 39.9153 41.4608C39.7733 41.4858 39.6324 41.5027 39.4894 41.5137C37.5055 41.6638 35.5155 41.7758 33.5176 41.8508C32.5186 41.8887 31.5166 41.9168 30.5136 41.9359C30.0126 41.9448 29.5095 41.9518 29.0076 41.9568C28.5055 41.9619 28.0045 41.9638 27.5026 41.9638C25.4976 41.9638 23.4966 41.9268 21.4986 41.8508C20.4995 41.8138 19.5005 41.7668 18.5036 41.7108C18.0055 41.6818 17.5076 41.6518 17.0105 41.6188C16.5136 41.5869 16.0166 41.5518 15.5219 41.5141C15.2368 41.4921 14.9578 41.4442 14.6858 41.3671C14.5498 41.3292 14.4158 41.2831 14.2829 41.2302C14.2168 41.2042 14.1519 41.1751 14.0858 41.1452C14.0219 41.1152 13.9568 41.0832 13.8948 41.0501C13.6438 40.9172 13.4079 40.7591 13.1908 40.5751C13.1359 40.5291 13.0818 40.4811 13.0298 40.4332C12.9778 40.3831 12.9258 40.3321 12.8759 40.2812C12.7769 40.1782 12.6829 40.0701 12.5949 39.9582C12.5069 39.8461 12.4239 39.7292 12.3468 39.6092C12.3089 39.5491 12.2719 39.4881 12.2359 39.4251C12.1989 39.3631 12.1648 39.3001 12.1319 39.2361C11.9988 38.9802 11.8919 38.7151 11.8068 38.4432C11.7638 38.3072 11.7268 38.1682 11.6949 38.0281C11.6789 37.9582 11.6638 37.8881 11.6509 37.8172C11.6378 37.7462 11.6249 37.6761 11.6149 37.6052C11.5729 37.3211 11.5529 37.0362 11.5517 36.7488C11.5297 27.0169 11.5047 17.2839 11.4771 7.55182C11.4761 7.25482 11.5021 6.96283 11.5561 6.67487C11.5821 6.53082 11.6161 6.38886 11.6571 6.24786C11.6781 6.17682 11.6991 6.10687 11.724 6.03693C11.7481 5.96783 11.7731 5.89886 11.8011 5.83185C11.911 5.56085 12.047 5.30487 12.2091 5.0639C12.25 5.00385 12.292 4.94489 12.3361 4.88593C12.38 4.82782 12.4261 4.77094 12.473 4.7149C12.567 4.60284 12.666 4.49689 12.771 4.39691C12.9801 4.19684 13.208 4.01984 13.4571 3.86591C13.7061 3.71185 13.9671 3.5849 14.239 3.48383C14.375 3.43292 14.5141 3.38886 14.6541 3.35089C14.7261 3.33185 14.797 3.3139 14.8681 3.29791C14.9391 3.28192 15.0121 3.26788 15.0841 3.25592C15.3721 3.2049 15.6641 3.17889 15.9589 3.17682C17.8719 3.16083 19.7908 3.14984 21.7168 3.14191C22.6798 3.1369 23.6448 3.13483 24.6109 3.13287C25.0939 3.1319 25.5758 3.13092 26.0598 3.13092C26.5419 3.12982 27.0259 3.12982 27.5078 3.12982C29.4389 3.12982 31.3649 3.13385 33.2898 3.14093C34.2528 3.14484 35.2139 3.14984 36.1748 3.15582C37.1369 3.16193 38.0949 3.16888 39.0523 3.17682C39.3473 3.17889 39.6372 3.2049 39.9232 3.25482C40.2083 3.30389 40.4883 3.37885 40.7632 3.4809C40.8323 3.50592 40.9003 3.5329 40.9683 3.56183C41.0353 3.59088 41.1012 3.62091 41.1673 3.65289C41.2982 3.71686 41.4253 3.78583 41.5482 3.86188C41.7932 4.01385 42.0222 4.18988 42.2333 4.39191C42.2873 4.44183 42.3393 4.49384 42.3882 4.54694C42.4383 4.59991 42.4862 4.65485 42.5332 4.7099C42.6272 4.82086 42.7152 4.93585 42.7963 5.05585C42.8772 5.17584 42.9523 5.29987 43.0203 5.42792C43.0553 5.49286 43.0883 5.55792 43.1193 5.62494C43.1503 5.69183 43.1803 5.75983 43.2083 5.82782C43.2353 5.89594 43.2622 5.9649 43.2853 6.03485C43.3092 6.10492 43.3323 6.17487 43.3523 6.24591C43.3943 6.3869 43.4282 6.52985 43.4552 6.67389C43.5093 6.96185 43.5353 7.25482 43.5341 7.55219C43.5061 17.2841 43.4801 27.0172 43.4582 36.7491" stroke="#FF00FF" stroke-width="0.283465" stroke-miterlimit="10" stroke-linecap="round" stroke-linejoin="round"/>
<path d="M18.8736 14.3608L18.7619 12.5191C18.7309 12.0974 19.0348 11.7501 19.4937 11.7501C19.9464 11.7501 20.244 12.1036 20.2192 12.5191L20.1076 14.3608C20.0828 14.7143 19.8223 15.0119 19.4875 15.0119C19.1526 15.0119 18.8922 14.7143 18.8736 14.3608Z" fill="black"/>
<path d="M19.5 35.0618L19.7885 33.6359C19.8061 33.5491 19.7398 33.4681 19.6513 33.4681H18.5108C18.4441 33.4681 18.3867 33.5151 18.3736 33.5805L18.0303 35.285C17.9559 35.6695 17.7141 35.8742 17.3854 35.8742C17.0443 35.8742 16.8149 35.6447 16.8149 35.2912C16.8149 35.2168 16.8211 35.13 16.8335 35.0618L17.1275 33.6364C17.1454 33.5495 17.079 33.4681 16.9903 33.4681H16.6661C16.2072 33.4681 15.9653 33.2325 15.9653 32.8604C15.9653 32.5007 16.2072 32.2713 16.6661 32.2713H17.2829C17.3497 32.2713 17.4072 32.2241 17.4202 32.1585L17.6809 30.8448C17.6981 30.7583 17.6318 30.6776 17.5436 30.6776H17.2614C16.8025 30.6776 16.5606 30.4357 16.5606 30.0699C16.5606 29.704 16.8025 29.4745 17.2614 29.4745H17.8416C17.9081 29.4745 17.9655 29.4277 17.9788 29.3626L18.3032 27.7754C18.3714 27.4096 18.607 27.2111 18.9109 27.2111C19.2644 27.2111 19.5186 27.4654 19.5186 27.8064C19.5186 27.8684 19.5062 27.9491 19.4938 28.0173L19.2305 29.3065C19.2127 29.3933 19.279 29.4745 19.3676 29.4745H20.5019C20.5684 29.4745 20.6258 29.4277 20.6391 29.3626L20.9635 27.7754C21.0379 27.4158 21.2735 27.2111 21.5898 27.2111C21.9371 27.2111 22.1851 27.4654 22.1851 27.8064C22.1851 27.8684 22.1789 27.9491 22.1665 28.0173L21.8978 29.306C21.8797 29.3929 21.946 29.4745 22.0348 29.4745H22.4394C22.8982 29.4745 23.1277 29.6978 23.1277 30.0637C23.1277 30.4419 22.892 30.6776 22.427 30.6776H21.7415C21.6749 30.6776 21.6175 30.7245 21.6043 30.7898L21.3045 32.2713H21.844C22.3029 32.2713 22.5324 32.4883 22.5324 32.8604C22.5324 33.2325 22.2967 33.4681 21.8316 33.4681H21.1773C21.1106 33.4681 21.0532 33.5151 21.0401 33.5805L20.6968 35.285C20.6224 35.6695 20.3868 35.8742 20.0643 35.8742C19.717 35.8742 19.4752 35.6385 19.4752 35.2912C19.4752 35.2168 19.4876 35.13 19.5 35.0618ZM18.9947 30.5598C18.9279 30.5598 18.8705 30.6069 18.8574 30.6723L18.5475 32.2216C18.5302 32.3083 18.5964 32.3891 18.6848 32.3891H20.0298C20.0967 32.3891 20.1542 32.3418 20.1671 32.2761L20.4718 30.7268C20.4888 30.6403 20.4225 30.5598 20.3344 30.5598H18.9947Z" fill="black"/>
</svg>
