<svg width="54" height="54" viewBox="0 0 54 54" fill="none" xmlns="http://www.w3.org/2000/svg">
<path d="M11.4159 40.9327C10.9698 40.4187 10.6218 39.8187 10.3779 39.1807C10.1359 38.5486 9.99377 37.8777 9.96387 37.2056L9.94531 7.22314C9.96619 6.68164 10.0662 6.13867 10.2383 5.62256C10.3237 5.36511 10.4277 5.11511 10.5479 4.87305C10.668 4.6333 10.8049 4.40027 10.958 4.1792C11.1099 3.95972 11.2788 3.75171 11.4629 3.55762C11.6456 3.36548 11.8436 3.1875 12.0537 3.02539C12.2628 2.86438 12.4847 2.71936 12.7148 2.59131C12.9446 2.46338 13.1836 2.35229 13.4297 2.25928C13.5842 2.20203 13.7423 2.15002 13.9023 2.10693C14.0616 2.06311 14.2236 2.0271 14.3857 1.99707C14.549 1.96729 14.7129 1.94336 14.877 1.92627C15.042 1.90906 15.208 1.89807 15.374 1.89502C19.2509 1.86475 23.1278 1.84863 27.0049 1.84863C30.8817 1.84912 34.7596 1.86414 38.6367 1.89502C39.3231 1.90503 40.0171 2.04102 40.6592 2.29395C40.981 2.42175 41.2909 2.57874 41.583 2.76465C41.8763 2.95227 42.1514 3.16821 42.4014 3.41016C42.9058 3.89917 43.3108 4.49512 43.5918 5.14307C43.8774 5.80115 44.0394 6.51318 44.0645 7.22314L44.0469 37.2056C44.0157 37.8772 43.8767 38.5492 43.6348 39.1812C43.3896 39.8192 43.0397 40.4182 42.5938 40.9331C42.1498 41.4473 41.6078 41.8783 41.0059 42.1982C40.4106 42.5143 39.7577 42.7234 39.0947 42.8013C31.047 43.4143 22.964 43.4143 14.916 42.8013C14.2518 42.7229 13.5999 42.5118 13.006 42.1962C12.403 41.8751 11.861 41.4462 11.4159 40.9327Z" stroke="#16215B" stroke-width="0.283" stroke-miterlimit="10"/>
<rect x="12.688" y="5.46802" width="28.63" height="34.34" rx="1.46" stroke="#00FFFF" stroke-width="0.28"/>
<path d="M42.9594 36.7488C42.9584 37.0358 42.9374 37.3197 42.8964 37.6007C42.8544 37.8807 42.7934 38.1577 42.7084 38.4308C42.6863 38.4998 42.6643 38.5677 42.6393 38.6357C42.6154 38.7028 42.5894 38.7708 42.5624 38.8378C42.5083 38.9707 42.4484 39.1007 42.3833 39.2278C42.2523 39.4817 42.0994 39.7228 41.9224 39.9507C41.8783 40.0067 41.8313 40.0627 41.7843 40.1177C41.7373 40.1718 41.6884 40.2238 41.6393 40.2758C41.5413 40.3788 41.4363 40.4757 41.3294 40.5677C41.2204 40.6598 41.1073 40.7457 40.9894 40.8257C40.9303 40.8657 40.8704 40.9048 40.8084 40.9407C40.7473 40.9778 40.6844 41.0137 40.6214 41.0477C40.3683 41.1818 40.1044 41.2867 39.8323 41.3647C39.7633 41.3848 39.6944 41.4017 39.6254 41.4177C39.5553 41.4337 39.4854 41.4478 39.4153 41.4607C39.2733 41.4857 39.1324 41.5027 38.9894 41.5137C37.0055 41.6637 35.0155 41.7758 33.0176 41.8507C32.0186 41.8887 31.0166 41.9167 30.0136 41.9358C29.5126 41.9447 29.0095 41.9518 28.5076 41.9568C28.0055 41.9618 27.5045 41.9637 27.0026 41.9637C24.9976 41.9637 22.9966 41.9268 20.9986 41.8507C19.9995 41.8137 19.0005 41.7667 18.0036 41.7107C17.5055 41.6818 17.0076 41.6517 16.5105 41.6188C16.0136 41.5868 15.5166 41.5518 15.0219 41.514C14.7368 41.4921 14.4578 41.4441 14.1858 41.3671C14.0498 41.3291 13.9158 41.2831 13.7829 41.2301C13.7168 41.2041 13.6519 41.175 13.5858 41.1451C13.5219 41.1151 13.4568 41.0831 13.3948 41.05C13.1438 40.9171 12.9079 40.759 12.6908 40.5751C12.6359 40.5291 12.5818 40.4811 12.5298 40.4331C12.4778 40.3831 12.4258 40.332 12.3759 40.2811C12.2769 40.1781 12.1829 40.0701 12.0949 39.9581C12.0069 39.8461 11.9239 39.7291 11.8468 39.6091C11.8089 39.5491 11.7719 39.488 11.7359 39.425C11.6989 39.363 11.6648 39.3 11.6319 39.2361C11.4988 38.9801 11.3919 38.7151 11.3068 38.4431C11.2638 38.3071 11.2268 38.1681 11.1949 38.0281C11.1789 37.9581 11.1638 37.8881 11.1509 37.8171C11.1378 37.7461 11.1249 37.676 11.1149 37.6051C11.0729 37.321 11.0529 37.0361 11.0517 36.7488C11.0297 27.0168 11.0047 17.2838 10.9771 7.55176C10.9761 7.25476 11.0021 6.96277 11.0561 6.6748C11.0821 6.53076 11.1161 6.38879 11.1571 6.2478C11.1781 6.17676 11.1991 6.10681 11.224 6.03687C11.2481 5.96777 11.2731 5.8988 11.3011 5.83179C11.411 5.56079 11.547 5.30481 11.7091 5.06384C11.75 5.00378 11.792 4.94482 11.8361 4.88586C11.88 4.82776 11.9261 4.77087 11.973 4.71484C12.067 4.60278 12.166 4.49683 12.271 4.39685C12.4801 4.19678 12.708 4.01978 12.9571 3.86584C13.2061 3.71179 13.4671 3.58484 13.739 3.48376C13.875 3.43286 14.0141 3.38879 14.1541 3.35083C14.2261 3.33179 14.297 3.31384 14.3681 3.29785C14.4391 3.28186 14.5121 3.26782 14.5841 3.25586C14.8721 3.20483 15.1641 3.17883 15.4589 3.17676C17.3719 3.16077 19.2908 3.14978 21.2168 3.14185C22.1798 3.13684 23.1448 3.13477 24.1109 3.13281C24.5939 3.13184 25.0758 3.13086 25.5598 3.13086C26.0419 3.12976 26.5259 3.12976 27.0078 3.12976C28.9389 3.12976 30.8649 3.13379 32.7898 3.14087C33.7528 3.14478 34.7139 3.14978 35.6748 3.15576C36.6369 3.16187 37.5949 3.16882 38.5523 3.17676C38.8473 3.17883 39.1372 3.20483 39.4232 3.25476C39.7083 3.30383 39.9883 3.37878 40.2632 3.48083C40.3323 3.50586 40.4003 3.53284 40.4683 3.56177C40.5353 3.59082 40.6012 3.62085 40.6673 3.65283C40.7982 3.7168 40.9253 3.78577 41.0482 3.86182C41.2932 4.01379 41.5222 4.18982 41.7333 4.39185C41.7873 4.44177 41.8393 4.49377 41.8882 4.54688C41.9383 4.59985 41.9862 4.65479 42.0332 4.70984C42.1272 4.8208 42.2152 4.93579 42.2963 5.05579C42.3772 5.17578 42.4523 5.2998 42.5203 5.42786C42.5553 5.4928 42.5883 5.55786 42.6193 5.62488C42.6503 5.69177 42.6803 5.75977 42.7083 5.82776C42.7353 5.89587 42.7622 5.96484 42.7853 6.03479C42.8092 6.10486 42.8323 6.1748 42.8523 6.24585C42.8943 6.38684 42.9282 6.52979 42.9552 6.67383C43.0093 6.96179 43.0353 7.25476 43.0341 7.55212C43.0061 17.2841 42.9801 27.0171 42.9582 36.749" stroke="#FF00FF" stroke-width="0.283465" stroke-miterlimit="10" stroke-linecap="round" stroke-linejoin="round"/>
<path d="M18.0587 16.0479C18.0587 17.3576 18.9552 18.2805 20.2034 18.2805C21.4516 18.2805 22.269 17.3927 22.269 16.0567C22.269 14.7207 21.4252 13.8593 20.1683 13.8593C18.9114 13.8593 18.0587 14.7646 18.0587 16.0479ZM15.5449 14.0966C15.5449 9.98308 17.294 7.68018 20.4143 7.68018C21.4603 7.68018 22.4359 7.95268 23.1567 8.42728C23.772 8.84038 24.1411 9.38538 24.1411 9.85118C24.1411 10.3786 23.7631 10.739 23.2182 10.739C22.893 10.739 22.6469 10.6335 22.2338 10.3083C21.6273 9.78968 21.0824 9.56118 20.4056 9.56118C18.8208 9.56118 17.9025 10.8526 17.7887 13.3823C17.7821 13.5272 17.9718 13.5871 18.0497 13.4648C18.6199 12.5702 19.6691 12.0838 20.7748 12.0838C22.981 12.0838 24.528 13.6747 24.528 15.9688C24.528 18.4738 22.7789 20.1527 20.1771 20.1527C18.6477 20.1527 17.4172 19.555 16.6261 18.4299C15.9053 17.4191 15.5449 15.9512 15.5449 14.0966Z" fill="black"/>
</svg>
