<svg width="54" height="54" viewBox="0 0 54 54" fill="none" xmlns="http://www.w3.org/2000/svg">
<path d="M11.4159 40.9328C10.9698 40.4188 10.6218 39.8188 10.3779 39.1807C10.1359 38.5486 9.99377 37.8777 9.96387 37.2056L9.94531 7.22321C9.96619 6.6817 10.0662 6.13873 10.2383 5.62262C10.3237 5.36517 10.4277 5.11517 10.5479 4.87311C10.668 4.63336 10.8049 4.40033 10.958 4.17926C11.1099 3.95978 11.2788 3.75177 11.4629 3.55768C11.6456 3.36554 11.8436 3.18756 12.0537 3.02545C12.2628 2.86444 12.4847 2.71942 12.7148 2.59137C12.9446 2.46344 13.1836 2.35236 13.4297 2.25934C13.5842 2.20209 13.7423 2.15009 13.9023 2.10699C14.0616 2.06317 14.2236 2.02716 14.3857 1.99713C14.549 1.96735 14.7129 1.94342 14.877 1.92633C15.042 1.90912 15.208 1.89813 15.374 1.89508C19.2509 1.86481 23.1278 1.84869 27.0049 1.84869C30.8817 1.84918 34.7596 1.8642 38.6367 1.89508C39.3231 1.90509 40.0171 2.04108 40.6592 2.29401C40.981 2.42181 41.2909 2.5788 41.583 2.76471C41.8763 2.95233 42.1514 3.16827 42.4014 3.41022C42.9058 3.89923 43.3108 4.49518 43.5918 5.14313C43.8774 5.80121 44.0394 6.51324 44.0645 7.22321L44.0469 37.2056C44.0157 37.8773 43.8767 38.5493 43.6348 39.1812C43.3896 39.8193 43.0397 40.4183 42.5938 40.9332C42.1498 41.4473 41.6078 41.8784 41.0059 42.1983C40.4106 42.5143 39.7577 42.7234 39.0947 42.8013C31.047 43.4144 22.964 43.4144 14.916 42.8013C14.2518 42.723 13.5999 42.5119 13.006 42.1962C12.403 41.8752 11.861 41.4462 11.4159 40.9328Z" stroke="#16215B" stroke-width="0.283" stroke-miterlimit="10"/>
<rect x="12.688" y="5.46796" width="28.63" height="34.34" rx="1.46" stroke="#00FFFF" stroke-width="0.28"/>
<path d="M42.9594 36.7488C42.9584 37.0358 42.9374 37.3198 42.8964 37.6008C42.8544 37.8808 42.7934 38.1578 42.7084 38.4308C42.6863 38.4998 42.6643 38.5678 42.6393 38.6358C42.6154 38.7028 42.5894 38.7708 42.5624 38.8378C42.5083 38.9708 42.4484 39.1008 42.3833 39.2278C42.2523 39.4818 42.0994 39.7228 41.9224 39.9507C41.8783 40.0068 41.8313 40.0628 41.7843 40.1177C41.7373 40.1718 41.6884 40.2238 41.6393 40.2758C41.5413 40.3788 41.4363 40.4758 41.3294 40.5678C41.2204 40.6599 41.1073 40.7458 40.9894 40.8257C40.9303 40.8658 40.8704 40.9048 40.8084 40.9407C40.7473 40.9778 40.6844 41.0137 40.6214 41.0478C40.3683 41.1818 40.1044 41.2868 39.8323 41.3648C39.7633 41.3848 39.6944 41.4018 39.6254 41.4178C39.5553 41.4338 39.4854 41.4478 39.4153 41.4608C39.2733 41.4858 39.1324 41.5027 38.9894 41.5137C37.0055 41.6638 35.0155 41.7758 33.0176 41.8508C32.0186 41.8887 31.0166 41.9168 30.0136 41.9359C29.5126 41.9448 29.0095 41.9518 28.5076 41.9568C28.0055 41.9619 27.5045 41.9638 27.0026 41.9638C24.9976 41.9638 22.9966 41.9268 20.9986 41.8508C19.9995 41.8138 19.0005 41.7668 18.0036 41.7108C17.5055 41.6818 17.0076 41.6518 16.5105 41.6188C16.0136 41.5869 15.5166 41.5518 15.0219 41.5141C14.7368 41.4921 14.4578 41.4442 14.1858 41.3671C14.0498 41.3292 13.9158 41.2831 13.7829 41.2302C13.7168 41.2042 13.6519 41.1751 13.5858 41.1452C13.5219 41.1152 13.4568 41.0832 13.3948 41.0501C13.1438 40.9172 12.9079 40.7591 12.6908 40.5751C12.6359 40.5291 12.5818 40.4811 12.5298 40.4332C12.4778 40.3831 12.4258 40.3321 12.3759 40.2812C12.2769 40.1782 12.1829 40.0701 12.0949 39.9582C12.0069 39.8461 11.9239 39.7292 11.8468 39.6092C11.8089 39.5491 11.7719 39.4881 11.7359 39.4251C11.6989 39.3631 11.6648 39.3001 11.6319 39.2361C11.4988 38.9802 11.3919 38.7151 11.3068 38.4432C11.2638 38.3072 11.2268 38.1682 11.1949 38.0281C11.1789 37.9582 11.1638 37.8881 11.1509 37.8172C11.1378 37.7462 11.1249 37.6761 11.1149 37.6052C11.0729 37.3211 11.0529 37.0362 11.0517 36.7488C11.0297 27.0169 11.0047 17.2839 10.9771 7.55182C10.9761 7.25482 11.0021 6.96283 11.0561 6.67487C11.0821 6.53082 11.1161 6.38886 11.1571 6.24786C11.1781 6.17682 11.1991 6.10687 11.224 6.03693C11.2481 5.96783 11.2731 5.89886 11.3011 5.83185C11.411 5.56085 11.547 5.30487 11.7091 5.0639C11.75 5.00385 11.792 4.94489 11.8361 4.88593C11.88 4.82782 11.9261 4.77094 11.973 4.7149C12.067 4.60284 12.166 4.49689 12.271 4.39691C12.4801 4.19684 12.708 4.01984 12.9571 3.86591C13.2061 3.71185 13.4671 3.5849 13.739 3.48383C13.875 3.43292 14.0141 3.38886 14.1541 3.35089C14.2261 3.33185 14.297 3.3139 14.3681 3.29791C14.4391 3.28192 14.5121 3.26788 14.5841 3.25592C14.8721 3.2049 15.1641 3.17889 15.4589 3.17682C17.3719 3.16083 19.2908 3.14984 21.2168 3.14191C22.1798 3.1369 23.1448 3.13483 24.1109 3.13287C24.5939 3.1319 25.0758 3.13092 25.5598 3.13092C26.0419 3.12982 26.5259 3.12982 27.0078 3.12982C28.9389 3.12982 30.8649 3.13385 32.7898 3.14093C33.7528 3.14484 34.7139 3.14984 35.6748 3.15582C36.6369 3.16193 37.5949 3.16888 38.5523 3.17682C38.8473 3.17889 39.1372 3.2049 39.4232 3.25482C39.7083 3.30389 39.9883 3.37885 40.2632 3.4809C40.3323 3.50592 40.4003 3.5329 40.4683 3.56183C40.5353 3.59088 40.6012 3.62091 40.6673 3.65289C40.7982 3.71686 40.9253 3.78583 41.0482 3.86188C41.2932 4.01385 41.5222 4.18988 41.7333 4.39191C41.7873 4.44183 41.8393 4.49384 41.8882 4.54694C41.9383 4.59991 41.9862 4.65485 42.0332 4.7099C42.1272 4.82086 42.2152 4.93585 42.2963 5.05585C42.3772 5.17584 42.4523 5.29987 42.5203 5.42792C42.5553 5.49286 42.5883 5.55792 42.6193 5.62494C42.6503 5.69183 42.6803 5.75983 42.7083 5.82782C42.7353 5.89594 42.7622 5.9649 42.7853 6.03485C42.8092 6.10492 42.8323 6.17487 42.8523 6.24591C42.8943 6.3869 42.9282 6.52985 42.9552 6.67389C43.0093 6.96185 43.0353 7.25482 43.0341 7.55219C43.0061 17.2841 42.9801 27.0172 42.9582 36.7491" stroke="#FF00FF" stroke-width="0.283465" stroke-miterlimit="10" stroke-linecap="round" stroke-linejoin="round"/>
<path d="M36.0301 35.4991V34.0291C36.0301 33.0891 36.3401 32.9791 36.6701 32.8791C36.9601 32.7891 37.2201 32.6091 37.2201 32.1391C37.2201 31.6291 36.9201 31.4591 36.6501 31.3791C36.3501 31.2891 36.0301 31.1691 36.0301 30.2391V29.0091C36.0301 27.4191 35.1401 26.8491 33.8601 26.8491C33.3401 26.8491 32.9001 26.9391 32.9001 27.4791C32.9001 27.8391 33.0901 27.9691 33.4901 28.0491C33.9701 28.1491 34.4801 28.1891 34.4801 29.2591V30.6891C34.4801 31.3691 34.7201 31.8091 35.1701 32.0191C35.2801 32.0691 35.2801 32.2191 35.1701 32.2791C34.7101 32.5091 34.4701 32.9891 34.4701 33.6691V35.2791C34.4701 36.3591 33.9601 36.3991 33.4801 36.4891C33.0801 36.5691 32.8901 36.6991 32.8901 37.0491C32.8901 37.3791 33.1501 37.6491 33.4801 37.6691C34.9601 37.7891 36.0201 37.2391 36.0201 35.4991H36.0301Z" fill="black"/>
<path d="M20.4405 24.175C19.5265 24.175 18.9377 23.8674 18.9377 23.3841C18.9377 23.0765 19.1398 22.8832 19.4386 22.8832C19.711 22.8832 19.8692 23.0502 20.3262 23.0502C20.7568 23.0502 21.0381 22.8305 21.0381 22.479C21.0381 22.1275 20.7657 21.9517 20.212 21.9517C19.6583 21.9517 19.3332 21.732 19.3332 21.3102C19.3332 21.1531 19.4266 20.7503 19.628 20.22C19.6475 20.1686 19.6138 20.1127 19.5594 20.1055C16.9115 19.7585 15.4399 17.8083 15.4399 14.6346V13.0966C15.4399 9.69562 17.2767 7.67432 20.4492 7.67432C21.9696 7.67432 23.2702 8.14012 24.1227 8.98382C24.7115 9.56382 25.0718 10.2845 25.0718 10.8206C25.0718 11.4182 24.6675 11.8049 24.0875 11.8049C23.6657 11.8049 23.3669 11.6379 22.989 11.1721C22.3211 10.1702 21.5917 9.71322 20.581 9.71322C18.8145 9.71322 17.8215 10.9787 17.8215 13.1934V14.5468C17.8215 16.8493 18.797 18.1061 20.581 18.1061C21.6004 18.1061 22.4002 17.6579 23.0329 16.6736C23.4108 16.2078 23.6744 16.0496 24.0787 16.0496C24.6851 16.0496 25.0806 16.4363 25.0806 17.0251C25.0806 17.6579 24.6324 18.4312 23.9293 19.02C23.2199 19.6429 22.2551 20.0358 21.0851 20.1318C21.0512 20.1346 21.0221 20.1571 21.0112 20.1893L20.7852 20.8574C20.7669 20.9114 20.8059 20.9673 20.8628 20.9696C21.8851 21.0103 22.5144 21.5978 22.5144 22.4877C22.5144 23.4808 21.6531 24.1751 20.4404 24.1751L20.4405 24.175Z" fill="black"/>
</svg>
