<svg width="54" height="54" viewBox="0 0 54 54" fill="none" xmlns="http://www.w3.org/2000/svg">
<rect x="1.8501" y="1.85001" width="50.3" height="50.3" rx="3" stroke="#8B1EFF" stroke-width="0.28"/>
<path d="M9.91309 37.0476C9.83508 27.0606 9.73608 17.0726 9.61914 7.08457L9.6192 7.08213C9.62323 6.91611 9.63623 6.7501 9.65631 6.58396C9.67633 6.41892 9.70233 6.25498 9.73553 6.09153C9.76752 5.92954 9.80652 5.76853 9.85266 5.60972C9.89966 5.45176 9.95166 5.29575 10.0115 5.14158C10.1985 4.66758 10.4535 4.21665 10.77 3.81431C11.083 3.41733 11.456 3.06833 11.8725 2.78391C12.2875 2.50193 12.7465 2.28391 13.2258 2.13694C13.7078 1.98984 14.2118 1.91392 14.7141 1.90659C18.8081 1.87168 22.9021 1.85459 26.9963 1.85496C31.0893 1.85496 35.1833 1.87192 39.2776 1.9072C39.4396 1.91013 39.6016 1.92112 39.7635 1.93772C40.0035 1.96372 40.2435 2.00474 40.4799 2.0615C40.7139 2.11851 40.9449 2.1904 41.1697 2.27952C41.4037 2.37253 41.6287 2.4835 41.8449 2.61069C42.062 2.73862 42.2689 2.88267 42.4627 3.0416C42.6577 3.20164 42.8417 3.37668 43.0105 3.56321C43.1795 3.75217 43.3355 3.9542 43.476 4.16575C43.757 4.59482 43.975 5.06479 44.125 5.55649C44.276 6.05442 44.358 6.57444 44.373 7.09263C44.252 17.0696 44.154 27.0466 44.08 37.0251C44.074 37.185 44.0601 37.3451 44.039 37.5036C44.018 37.6646 43.991 37.8236 43.9569 37.9813C43.9239 38.1402 43.8839 38.2983 43.8358 38.4537C43.7888 38.6097 43.7349 38.7636 43.675 38.9156C43.484 39.3907 43.228 39.8407 42.9172 40.2495C42.6032 40.6605 42.2352 41.0285 41.8244 41.3395C41.4154 41.6495 40.9624 41.9035 40.4838 42.0906C40.0098 42.2755 39.5098 42.3955 39.0063 42.4435C31.0073 42.9535 22.9843 42.9535 14.9849 42.4436C14.6529 42.4116 14.3229 42.3476 14.0024 42.2535C13.6794 42.1595 13.3654 42.0345 13.0632 41.8819C12.4602 41.5749 11.9092 41.1568 11.4476 40.6577C10.9866 40.1606 10.6126 39.5816 10.349 38.9596C10.219 38.6516 10.115 38.3325 10.0411 38.0056C9.96912 37.6836 9.92407 37.3546 9.91113 37.0245" stroke="#8B1EFF" stroke-width="0.283" stroke-miterlimit="10"/>
<rect x="12.6855" y="5.52831" width="28.63" height="34.31" rx="1.43" stroke="#00FFFF" stroke-width="0.28"/>
<path d="M42.9399 36.5841C42.9578 31.7321 42.9778 26.8791 43.0009 22.0272C43.0219 17.1742 43.0469 12.3221 43.0759 7.46909C43.0767 7.32443 43.0717 7.18039 43.0596 7.03745C43.0497 6.89438 43.0317 6.75143 43.0076 6.61044C42.9606 6.32834 42.8887 6.05441 42.7897 5.7894C42.7646 5.72336 42.7386 5.65744 42.7106 5.59238C42.6816 5.52634 42.6526 5.4614 42.6216 5.39841C42.5587 5.27036 42.4907 5.14743 42.4156 5.02841C42.2667 4.79037 42.0936 4.5704 41.8937 4.36642C41.6957 4.16342 41.4777 3.98642 41.2437 3.83334C41.1266 3.75742 41.0057 3.68637 40.8796 3.62241C40.8167 3.59042 40.7537 3.55942 40.6877 3.53036C40.6237 3.50034 40.5566 3.47336 40.4907 3.44736C40.2236 3.34335 39.9507 3.2684 39.6716 3.21738C39.3926 3.16635 39.1077 3.14035 38.8167 3.13742C37.8378 3.12985 36.8568 3.1218 35.8738 3.11581C34.8898 3.10886 33.9058 3.10385 32.9208 3.09885C30.9498 3.09079 28.9758 3.08688 26.9988 3.08688C26.5038 3.08688 26.0098 3.08688 25.5148 3.08688C25.0208 3.08786 24.5258 3.08884 24.0308 3.08981C23.0418 3.09189 22.0538 3.09482 21.0688 3.09885C19.0968 3.10788 17.1328 3.12082 15.1758 3.13779C15.0301 3.13889 14.8861 3.14682 14.7411 3.15988C14.5981 3.1738 14.4541 3.19284 14.3131 3.21884C14.0301 3.27084 13.7561 3.34787 13.4911 3.45187C13.4251 3.47787 13.3601 3.50485 13.2951 3.53488C13.2301 3.56381 13.1651 3.59579 13.1021 3.6279C12.9751 3.69382 12.8541 3.76486 12.7361 3.84286C12.5011 3.9968 12.2841 4.17587 12.0861 4.37985C12.0371 4.4299 11.9891 4.48288 11.9431 4.53586C11.8971 4.58884 11.8521 4.64279 11.8091 4.69882C11.7231 4.80881 11.6431 4.9238 11.5691 5.04184C11.4951 5.16086 11.4281 5.2839 11.3651 5.40988C11.3351 5.47287 11.3061 5.53683 11.2781 5.60287C11.2501 5.66782 11.2241 5.73483 11.1991 5.80185C11.1011 6.06784 11.0301 6.34079 10.9841 6.61887C10.9381 6.89682 10.9151 7.18088 10.9171 7.46982C10.9454 12.3224 10.9714 17.1744 10.9935 22.0274C11.0165 26.8794 11.0355 31.7324 11.0535 36.5844C11.0541 36.8712 11.0781 37.1551 11.1281 37.4392C11.1411 37.5101 11.1552 37.5811 11.1701 37.6511C11.1862 37.7212 11.2021 37.7911 11.2211 37.8601C11.2581 37.9991 11.3011 38.1351 11.3502 38.2701C11.3991 38.4051 11.4531 38.5382 11.5151 38.6682C11.5461 38.7331 11.5771 38.7982 11.6121 38.8622C11.6461 38.9261 11.6812 38.9901 11.7181 39.0532C11.8651 39.3032 12.0331 39.5361 12.2241 39.7531C12.3192 39.8612 12.4201 39.9652 12.5272 40.0652C12.5791 40.1151 12.6342 40.1632 12.6901 40.2102C12.7451 40.2572 12.8011 40.3021 12.8591 40.3462C13.0881 40.5211 13.3322 40.6721 13.5921 40.7982C13.6571 40.8302 13.7231 40.8601 13.7902 40.8882C13.8571 40.9171 13.9241 40.9431 13.9921 40.9681C14.1281 41.0182 14.2651 41.0611 14.4041 41.0971C14.6801 41.1692 14.9631 41.2131 15.2512 41.2312C16.2243 41.2916 17.1993 41.3446 18.1773 41.3896C19.1533 41.4356 20.1323 41.4726 21.1113 41.5027C23.0683 41.5636 25.0293 41.5936 26.9943 41.5936C27.4853 41.5936 27.9773 41.5916 28.4683 41.5876C28.9593 41.5846 29.4513 41.5786 29.9423 41.5706C30.9253 41.5556 31.9063 41.5335 32.8863 41.5027C34.8443 41.4426 36.7963 41.3526 38.7416 41.2315C38.8866 41.2226 39.0296 41.2066 39.1726 41.1845C39.2436 41.1726 39.3146 41.1596 39.3866 41.1446C39.4566 41.1296 39.5276 41.1136 39.5966 41.0946C39.8766 41.0226 40.1456 40.9226 40.4046 40.7956C40.4706 40.7646 40.5336 40.7315 40.5966 40.6966C40.6606 40.6616 40.7236 40.6246 40.7856 40.5855C40.9096 40.5096 41.0286 40.4266 41.1426 40.3386C41.3726 40.1635 41.5826 39.9666 41.7736 39.7486C41.8216 39.6936 41.8676 39.6375 41.9136 39.5807C41.9586 39.5237 42.0026 39.4655 42.0446 39.4066C42.1296 39.2896 42.2076 39.1685 42.2796 39.0446C42.4256 38.7966 42.5466 38.5376 42.6446 38.2656C42.6696 38.1976 42.6926 38.1286 42.7146 38.0595C42.7356 37.9906 42.7556 37.9216 42.7736 37.8526C42.8106 37.7136 42.8416 37.5746 42.8656 37.4345C42.9146 37.1537 42.9386 36.8706 42.9399 36.5841Z" stroke="#FF00FF" stroke-width="0.283465" stroke-miterlimit="10" stroke-linecap="round" stroke-linejoin="round"/>
<path fill-rule="evenodd" clip-rule="evenodd" d="M18.1426 7.98524C19.651 7.12708 21.3923 6.70824 22.6 6.70824C23.8076 6.70824 25.5489 7.12708 27.0573 7.98524C28.5658 8.8435 29.9731 10.2218 30.2409 12.2037C30.5055 14.1613 30.1615 15.7718 29.4922 16.7881C29.3678 16.977 29.2898 17.1434 29.2565 17.2952C29.1077 17.9743 28.8892 18.5206 28.5083 18.949C28.1259 19.3792 27.6442 19.6175 27.1248 19.8048C26.8271 19.9122 26.6235 20.1547 26.5743 20.4332C26.3538 21.681 26.043 22.7766 25.4276 23.5592C24.7663 24.4 23.8296 24.7918 22.6 24.7918C21.3703 24.7918 20.4336 24.4 19.7724 23.5592C19.1569 22.7766 18.8462 21.681 18.6257 20.4332C18.5765 20.1547 18.3728 19.9122 18.0751 19.8048C17.5558 19.6175 17.074 19.3792 16.6916 18.949C16.3108 18.5206 16.0922 17.9743 15.9434 17.2952C15.9102 17.1434 15.8321 16.977 15.7078 16.7881C15.0385 15.7718 14.6945 14.1613 14.9591 12.2037C15.2269 10.2218 16.6341 8.8435 18.1426 7.98524ZM17.9615 15.5649C17.8255 14.283 19.2836 13.7117 20.2436 13.6469C20.7523 13.6126 22.0887 13.6469 21.9916 15.0065C21.846 17.0458 20.2436 17.7014 19.5153 17.6042C18.7869 17.5071 18.1314 17.1672 17.9615 15.5649ZM27.2384 15.5649C27.3744 14.283 25.9163 13.7117 24.9563 13.6469C24.4476 13.6126 23.1112 13.6469 23.2083 15.0065C23.3539 17.0458 24.9563 17.7014 25.6846 17.6042C26.413 17.5071 27.0685 17.1672 27.2384 15.5649ZM22.6551 17.5506C22.6118 17.5256 22.5584 17.5256 22.5151 17.5506L21.6312 18.0609C21.3665 18.2138 21.2758 18.5523 21.4287 18.817C21.5815 19.0818 21.92 19.1725 22.1847 19.0196L22.1874 19.0181L22.4451 18.8693C22.5317 18.8193 22.6385 18.8193 22.7251 18.8693L22.9828 19.0181L22.9854 19.0196C23.2501 19.1724 23.5887 19.0817 23.7415 18.817C23.8943 18.5523 23.8036 18.2137 23.5389 18.0609L22.6551 17.5506Z" fill="black"/>
<path d="M35.5394 31.4817C36.2964 31.4817 36.7994 32.141 36.8043 33.1568C36.7994 34.1628 36.3256 34.8319 35.5394 34.8319C34.7532 34.8319 34.2648 34.1775 34.2648 33.1568C34.2648 32.1312 34.7824 31.4817 35.5394 31.4817ZM33.0195 33.1569C33.0195 34.8125 33.8546 35.8331 35.1684 35.8331C35.6544 35.8331 36.4245 35.5891 36.7254 35.4871C36.7929 35.4642 36.8676 35.4939 36.8993 35.5579C36.9073 35.5742 36.9156 35.5904 36.926 35.6052C37.0454 35.7757 37.2211 35.8477 37.4198 35.8477C37.7666 35.8477 38.0107 35.6231 38.0107 35.2226V29.245C38.0106 28.8347 37.7616 28.6052 37.405 28.6052C37.0484 28.6052 36.7945 28.8347 36.7945 29.245V30.7251C36.7945 30.8278 36.6886 30.8967 36.595 30.8545C36.2331 30.6916 35.6304 30.4854 35.1487 30.4854C33.8497 30.4854 33.0195 31.5061 33.0195 33.1568V33.1569Z" fill="black"/>
<path d="M30.8527 33.8314C30.8527 34.4563 30.2962 34.9153 29.6126 34.9153C29.0854 34.9153 28.7289 34.6468 28.7289 34.2221C28.7289 33.7974 29.0658 33.5484 29.6516 33.5093L30.8 33.4393C30.8285 33.4376 30.8526 33.4602 30.8526 33.4888V33.8316L30.8527 33.8314ZM29.9348 30.4675C28.9437 30.4675 28.3721 30.8078 28.0798 31.1352C27.9105 31.3249 27.8888 31.7243 28.121 31.91C28.3924 32.127 28.847 31.9646 29.0032 31.7726C29.1434 31.6002 29.4582 31.4251 29.8858 31.4195C30.4862 31.4116 30.8525 31.732 30.8525 32.2739V32.4765C30.8525 32.5028 30.832 32.5245 30.8057 32.526L29.4805 32.6015C28.2211 32.6796 27.5132 33.3529 27.5132 34.2707C27.5132 35.1885 28.2431 35.833 29.2415 35.833C29.8733 35.833 30.4892 35.668 30.7956 35.5427C30.8599 35.5164 30.9336 35.5412 30.9698 35.6005C30.9726 35.605 30.975 35.6088 30.977 35.6117C31.0584 35.7276 31.2049 35.8476 31.4629 35.8476C31.8047 35.8476 32.0536 35.6279 32.0536 35.2374V32.186C32.0536 31.1461 31.2188 30.4675 29.9348 30.4675Z" fill="black"/>
<path d="M25.3833 32.5481H23.2941C23.2035 32.5481 23.1367 32.4643 23.1557 32.3757C23.2923 31.737 23.7639 31.4094 24.3583 31.4094C24.9527 31.4094 25.4068 31.7242 25.523 32.3825C25.5383 32.469 25.4712 32.5481 25.3833 32.5481ZM24.3535 30.4669C22.8593 30.4669 21.9072 31.5313 21.9072 33.1818C21.9072 34.8323 22.8398 35.8527 24.4219 35.8527C25.2221 35.8527 25.8081 35.6749 26.3078 35.1199C26.5315 34.8715 26.4716 34.5008 26.1755 34.3423C25.9261 34.2087 25.6424 34.3368 25.5031 34.4662C25.0604 34.8776 24.7356 34.9152 24.4122 34.9152C23.666 34.9152 23.176 34.4305 23.123 33.607C23.1177 33.5249 23.1821 33.4552 23.2644 33.4552H26.2186C26.4998 33.4552 26.7292 33.2304 26.7356 32.9493C26.7683 31.5064 25.7931 30.4669 24.3535 30.4669Z" fill="black"/>
<path d="M17.6934 28.704H15.75C15.3594 28.704 15.1201 28.9481 15.1201 29.3583V35.0957C15.1201 35.5059 15.3594 35.75 15.75 35.75H17.6934C19.8028 35.75 21.043 34.4414 21.043 32.2099C21.043 29.9784 19.798 28.704 17.6934 28.704ZM17.5616 34.6855H16.5217C16.4434 34.6855 16.38 34.622 16.38 34.5438V29.9102C16.38 29.8319 16.4435 29.7685 16.5217 29.7685H17.5616C18.9679 29.7685 19.7589 30.6377 19.7589 32.2148C19.7589 33.7919 18.9776 34.6855 17.5616 34.6855Z" fill="black"/>
</svg>
