<svg width="68" height="54" viewBox="0 0 68 54" fill="none" xmlns="http://www.w3.org/2000/svg">
<rect x="1.8501" y="1.85001" width="63.8" height="50.3" rx="3" stroke="#8B1EFF" stroke-width="0.28"/>
<path d="M10.1999 37.0328C10.2199 37.6928 10.3699 38.3628 10.6399 38.9728C10.9099 39.6028 11.2899 40.1728 11.7599 40.6628C12.2299 41.1528 12.7999 41.5628 13.4199 41.8528C14.0299 42.1428 14.6999 42.3228 15.3699 42.3728C21.4899 42.6628 27.6199 42.8128 33.7499 42.8128C39.8799 42.8128 46.0099 42.6628 52.1299 42.3728C52.7999 42.3128 53.4699 42.1328 54.0799 41.8428C54.3899 41.6928 54.6799 41.5228 54.9599 41.3228C55.2399 41.1228 55.4999 40.9028 55.7399 40.6528C55.9799 40.4028 56.1899 40.1428 56.3799 39.8528C56.5699 39.5728 56.7299 39.2728 56.8599 38.9628C56.9899 38.6528 57.0899 38.3328 57.1599 38.0028C57.2299 37.6828 57.2799 37.3528 57.2899 37.0128C57.3699 27.0728 57.4699 17.1328 57.5999 7.20277C57.5799 6.66277 57.4999 6.12277 57.3299 5.61277C57.1699 5.10277 56.9399 4.61277 56.6299 4.17277C56.3299 3.73277 55.9599 3.34277 55.5499 3.02277C55.1299 2.70277 54.6699 2.44277 54.1699 2.25277C53.9399 2.16277 53.6999 2.09277 53.4599 2.04277C53.2199 1.99277 52.9699 1.95277 52.7199 1.92277C52.5499 1.90277 52.3899 1.89277 52.2199 1.89277C39.8999 1.83277 27.5799 1.83277 15.2699 1.91277C14.5799 1.91277 13.8799 2.05277 13.2399 2.31277C12.9199 2.44277 12.6099 2.59277 12.3199 2.78277C12.0299 2.97277 11.7499 3.18277 11.5099 3.42277C11.2599 3.66277 11.0399 3.94277 10.8399 4.22277C10.6399 4.51277 10.4799 4.82277 10.3499 5.15277C10.0799 5.80277 9.9199 6.51278 9.8999 7.22277C10.0199 17.1628 10.1299 27.1028 10.2099 37.0328" stroke="#8B1EFF" stroke-width="0.28" stroke-miterlimit="10"/>
<path d="M13.2901 4.34277C12.5101 4.34277 11.8701 4.98277 11.8701 5.76277V38.9228C11.8701 39.7028 12.5001 40.3428 13.2901 40.3428H54.1101C54.8901 40.3428 55.5301 39.7128 55.5301 38.9228V5.76277C55.5301 4.98277 54.8901 4.34277 54.1101 4.34277" stroke="#00FFFF" stroke-width="0.28" stroke-miterlimit="10"/>
<path d="M15.45 41.1328C15.26 41.1328 15.08 41.1028 14.9 41.0728C14.42 40.9928 13.95 40.8328 13.52 40.6128C13.09 40.3828 12.69 40.0828 12.36 39.7228C12.22 39.5728 12.09 39.4128 11.97 39.2528C11.68 38.8428 11.46 38.3828 11.32 37.9028C11.19 37.4628 11.12 37.0028 11.12 36.5428C11.1 31.6828 11.08 26.8328 11.06 21.9728C11.06 20.8028 11.06 19.6428 11.05 18.4728C11.04 15.2828 11.02 12.0928 11 8.90277C11 8.40277 11 7.89277 11 7.39277C11 7.35277 11 7.31277 11 7.27277C11 7.23277 11 7.19277 11 7.15277C11 7.11277 11 7.07277 11 7.03277C11 6.99277 11 6.95277 11 6.91277V6.79277C11 6.79277 11.02 6.71277 11.03 6.67277C11.03 6.63277 11.04 6.59277 11.05 6.56277C11.05 6.52277 11.06 6.48277 11.07 6.45277C11.07 6.41277 11.08 6.37277 11.09 6.34277C11.09 6.30277 11.11 6.26277 11.11 6.23277C11.12 6.19277 11.13 6.16277 11.14 6.12277C11.14 6.08277 11.16 6.05277 11.17 6.01277C11.18 5.97277 11.19 5.94277 11.2 5.90277C11.21 5.86277 11.22 5.83277 11.24 5.79277C11.25 5.75277 11.27 5.72277 11.28 5.68277C11.31 5.61277 11.34 5.55277 11.37 5.48277C11.4 5.41277 11.43 5.35277 11.47 5.29277C11.5 5.23277 11.54 5.16277 11.57 5.10277C11.61 5.04277 11.65 4.98277 11.69 4.92277C11.77 4.80277 11.86 4.68277 11.95 4.57277C12.04 4.46277 12.14 4.36277 12.24 4.26277C12.34 4.16277 12.45 4.07277 12.57 3.98277C12.68 3.89277 12.8 3.81277 12.93 3.73277C12.99 3.69277 13.05 3.66277 13.12 3.62277C13.18 3.59277 13.25 3.55277 13.31 3.52277C13.37 3.49277 13.44 3.46277 13.51 3.43277C13.58 3.40277 13.64 3.38277 13.71 3.35277C13.73 3.35277 13.75 3.34277 13.77 3.33277C13.79 3.33277 13.81 3.32277 13.83 3.31277C13.85 3.31277 13.87 3.30277 13.88 3.29277L13.94 3.27277C13.94 3.27277 13.98 3.26277 14 3.25277C14.02 3.25277 14.04 3.24277 14.06 3.23277C14.08 3.23277 14.1 3.23277 14.12 3.22277C14.14 3.22277 14.16 3.21277 14.18 3.20277C14.2 3.20277 14.22 3.19277 14.24 3.18277C14.26 3.18277 14.28 3.18277 14.3 3.17277C14.32 3.17277 14.34 3.17277 14.36 3.16277C14.38 3.16277 14.4 3.16277 14.42 3.15277C14.44 3.15277 14.46 3.15277 14.48 3.14277C14.5 3.14277 14.52 3.14277 14.54 3.13277C14.56 3.13277 14.58 3.13277 14.6 3.13277C14.62 3.13277 14.64 3.13277 14.66 3.12277C14.68 3.12277 14.7 3.12277 14.72 3.12277C14.74 3.12277 14.76 3.12277 14.78 3.12277C14.8 3.12277 14.82 3.12277 14.84 3.12277C14.86 3.12277 14.88 3.12277 14.9 3.12277C14.92 3.12277 14.94 3.12277 14.96 3.12277C14.98 3.12277 15 3.12277 15.02 3.12277C15.04 3.12277 15.06 3.12277 15.08 3.12277C15.1 3.12277 15.12 3.12277 15.14 3.12277C15.16 3.12277 15.18 3.12277 15.2 3.12277C15.22 3.12277 15.24 3.12277 15.26 3.12277C15.28 3.12277 15.3 3.12277 15.32 3.12277C15.34 3.12277 15.36 3.12277 15.38 3.12277C15.4 3.12277 15.42 3.12277 15.44 3.12277C15.54 3.12277 15.64 3.12277 15.75 3.12277C15.85 3.12277 15.95 3.12277 16.05 3.12277C16.15 3.12277 16.25 3.12277 16.36 3.12277C16.46 3.12277 16.56 3.12277 16.67 3.12277C16.77 3.12277 16.87 3.12277 16.98 3.12277C17.08 3.12277 17.18 3.12277 17.29 3.12277C17.39 3.12277 17.49 3.12277 17.6 3.12277C17.7 3.12277 17.8 3.12277 17.91 3.12277C18.01 3.12277 18.11 3.12277 18.22 3.12277C18.32 3.12277 18.42 3.12277 18.53 3.12277C18.63 3.12277 18.73 3.12277 18.84 3.12277C18.94 3.12277 19.04 3.12277 19.15 3.12277C19.25 3.12277 19.35 3.12277 19.45 3.12277C19.55 3.12277 19.66 3.12277 19.76 3.12277C19.86 3.12277 19.96 3.12277 20.07 3.12277C20.17 3.12277 20.27 3.12277 20.38 3.12277C20.48 3.12277 20.58 3.12277 20.69 3.12277C20.79 3.12277 20.89 3.12277 21 3.12277C21.1 3.12277 21.2 3.12277 21.31 3.12277C21.41 3.12277 21.51 3.12277 21.62 3.12277C21.72 3.12277 21.83 3.12277 21.93 3.12277H22.24C22.34 3.12277 22.44 3.12277 22.55 3.12277C22.65 3.12277 22.75 3.12277 22.86 3.12277C22.96 3.12277 23.07 3.12277 23.17 3.12277C23.27 3.12277 23.37 3.12277 23.48 3.12277C23.59 3.12277 23.68 3.12277 23.79 3.12277C23.89 3.12277 23.99 3.12277 24.1 3.12277H24.41C24.51 3.12277 24.61 3.12277 24.72 3.12277C24.83 3.12277 24.93 3.12277 25.03 3.12277C25.13 3.12277 25.23 3.12277 25.34 3.12277C25.45 3.12277 25.55 3.12277 25.65 3.12277C25.75 3.12277 25.86 3.12277 25.96 3.12277C26.06 3.12277 26.16 3.12277 26.27 3.12277C26.38 3.12277 26.47 3.12277 26.58 3.12277C26.68 3.12277 26.78 3.12277 26.89 3.12277H27.2C27.3 3.12277 27.4 3.12277 27.51 3.12277C27.62 3.12277 27.72 3.12277 27.82 3.12277H28.13C28.23 3.12277 28.34 3.12277 28.44 3.12277C28.54 3.12277 28.64 3.12277 28.75 3.12277H29.06C29.16 3.12277 29.27 3.12277 29.37 3.12277H29.68C29.78 3.12277 29.88 3.12277 29.99 3.12277H30.3C30.4 3.12277 30.5 3.12277 30.61 3.12277H31.22C31.32 3.12277 31.42 3.12277 31.53 3.12277H33.38C33.48 3.12277 33.59 3.12277 33.69 3.12277H34C34.1 3.12277 34.2 3.12277 34.31 3.12277H36.16C36.26 3.12277 36.37 3.12277 36.47 3.12277H37.08C37.18 3.12277 37.29 3.12277 37.39 3.12277H37.7C37.8 3.12277 37.91 3.12277 38.01 3.12277H38.32C38.42 3.12277 38.52 3.12277 38.63 3.12277H38.94C39.04 3.12277 39.14 3.12277 39.25 3.12277C39.36 3.12277 39.45 3.12277 39.56 3.12277H39.87C39.97 3.12277 40.08 3.12277 40.18 3.12277C40.28 3.12277 40.39 3.12277 40.49 3.12277H40.8C40.9 3.12277 41 3.12277 41.11 3.12277C41.21 3.12277 41.32 3.12277 41.42 3.12277C41.52 3.12277 41.62 3.12277 41.73 3.12277C41.84 3.12277 41.93 3.12277 42.04 3.12277C42.15 3.12277 42.25 3.12277 42.35 3.12277C42.45 3.12277 42.56 3.12277 42.66 3.12277C42.76 3.12277 42.86 3.12277 42.97 3.12277C43.08 3.12277 43.17 3.12277 43.28 3.12277C43.39 3.12277 43.48 3.12277 43.59 3.12277C43.7 3.12277 43.8 3.12277 43.9 3.12277C44 3.12277 44.1 3.12277 44.21 3.12277H44.52C44.62 3.12277 44.72 3.12277 44.83 3.12277C44.93 3.12277 45.04 3.12277 45.14 3.12277C45.24 3.12277 45.34 3.12277 45.45 3.12277C45.55 3.12277 45.65 3.12277 45.76 3.12277C45.86 3.12277 45.96 3.12277 46.07 3.12277C46.17 3.12277 46.28 3.12277 46.38 3.12277C46.48 3.12277 46.58 3.12277 46.69 3.12277C46.79 3.12277 46.89 3.12277 47 3.12277C47.1 3.12277 47.2 3.12277 47.31 3.12277C47.41 3.12277 47.51 3.12277 47.62 3.12277C47.72 3.12277 47.82 3.12277 47.93 3.12277C48.03 3.12277 48.13 3.12277 48.24 3.12277C48.34 3.12277 48.45 3.12277 48.55 3.12277C48.65 3.12277 48.75 3.12277 48.86 3.12277C48.96 3.12277 49.06 3.12277 49.17 3.12277C49.27 3.12277 49.38 3.12277 49.48 3.12277C49.58 3.12277 49.68 3.12277 49.79 3.12277C49.89 3.12277 49.99 3.12277 50.09 3.12277C50.19 3.12277 50.29 3.12277 50.4 3.12277C50.5 3.12277 50.6 3.12277 50.71 3.12277C50.81 3.12277 50.91 3.12277 51.01 3.12277C51.11 3.12277 51.21 3.12277 51.32 3.12277C51.42 3.12277 51.52 3.12277 51.63 3.12277C51.73 3.12277 51.83 3.12277 51.93 3.12277C52.03 3.12277 52.13 3.12277 52.24 3.12277C52.28 3.12277 52.32 3.12277 52.36 3.12277C52.4 3.12277 52.44 3.12277 52.48 3.12277C52.52 3.12277 52.56 3.12277 52.6 3.12277C52.64 3.12277 52.68 3.12277 52.72 3.13277C52.76 3.13277 52.8 3.13277 52.84 3.14277L52.96 3.16277C52.96 3.16277 53.04 3.17277 53.08 3.18277C53.12 3.18277 53.16 3.19277 53.2 3.20277C53.24 3.20277 53.27 3.22277 53.31 3.22277C53.35 3.22277 53.39 3.24277 53.42 3.25277C53.46 3.25277 53.5 3.27277 53.53 3.28277C53.57 3.28277 53.6 3.30277 53.64 3.31277C53.68 3.32277 53.71 3.33277 53.75 3.34277C53.79 3.35277 53.82 3.36277 53.86 3.37277C53.9 3.38277 53.93 3.39277 53.97 3.41277C54.04 3.44277 54.11 3.46277 54.17 3.49277C54.24 3.52277 54.3 3.55277 54.37 3.58277C54.43 3.61277 54.5 3.65277 54.56 3.68277C54.62 3.71277 54.69 3.75277 54.75 3.79277C54.87 3.87277 54.99 3.95277 55.11 4.04277C55.22 4.13277 55.33 4.22277 55.43 4.32277C55.53 4.42277 55.63 4.52277 55.72 4.63277C55.81 4.74277 55.9 4.86277 55.98 4.98277C56.02 5.04277 56.06 5.10277 56.09 5.16277C56.13 5.22277 56.16 5.28277 56.19 5.35277C56.22 5.41277 56.25 5.48277 56.28 5.54277C56.31 5.61277 56.34 5.67277 56.36 5.74277C56.36 5.76277 56.37 5.78277 56.38 5.80277C56.38 5.82277 56.39 5.84277 56.4 5.85277L56.42 5.91277C56.42 5.91277 56.43 5.95277 56.44 5.97277C56.44 5.99277 56.45 6.01277 56.46 6.03277C56.46 6.05277 56.47 6.07277 56.48 6.09277C56.48 6.11277 56.49 6.13277 56.5 6.15277C56.5 6.17277 56.51 6.19277 56.52 6.21277V6.27277C56.52 6.27277 56.54 6.31277 56.55 6.33277C56.55 6.35277 56.55 6.37277 56.56 6.39277C56.56 6.41277 56.56 6.43277 56.57 6.45277C56.57 6.47277 56.57 6.49277 56.58 6.51277V6.57277C56.58 6.57277 56.6 6.61277 56.6 6.63277C56.6 6.65277 56.6 6.67277 56.6 6.69277C56.6 6.71277 56.6 6.73277 56.6 6.75277C56.6 6.77277 56.6 6.79277 56.6 6.81277C56.6 6.83277 56.6 6.85277 56.6 6.87277C56.6 6.89277 56.6 6.91277 56.6 6.93277C56.6 6.95277 56.6 6.97277 56.6 6.99277C56.6 7.01277 56.6 7.03277 56.6 7.05277C56.6 7.07277 56.6 7.09277 56.6 7.11277C56.6 7.13277 56.6 7.15277 56.6 7.17277V7.23277C56.6 7.23277 56.6 7.27277 56.6 7.29277C56.6 7.31277 56.6 7.33277 56.6 7.35277C56.6 7.37277 56.6 7.39277 56.6 7.41277V7.47277V8.99277C56.58 12.1828 56.57 15.3728 56.55 18.5728C56.55 19.7328 56.54 20.9028 56.54 22.0628C56.52 26.9128 56.5 31.7728 56.48 36.6228C56.48 36.6628 56.48 36.7028 56.48 36.7428C56.48 36.7828 56.48 36.8228 56.48 36.8628C56.48 36.9028 56.48 36.9428 56.48 36.9828C56.48 37.0228 56.48 37.0628 56.48 37.1028C56.48 37.1428 56.48 37.1828 56.47 37.2128C56.47 37.2528 56.46 37.2928 56.45 37.3228C56.45 37.3628 56.44 37.4028 56.43 37.4328L56.41 37.5428C56.41 37.5428 56.4 37.6228 56.39 37.6528C56.39 37.6928 56.37 37.7328 56.36 37.7628C56.36 37.8028 56.34 37.8328 56.33 37.8728C56.32 37.9128 56.31 37.9428 56.3 37.9828C56.29 38.0228 56.28 38.0528 56.27 38.0928C56.26 38.1328 56.25 38.1628 56.23 38.2028C56.22 38.2428 56.2 38.2728 56.19 38.3128C56.14 38.4528 56.08 38.5828 56.01 38.7228C55.95 38.8528 55.88 38.9828 55.8 39.1028C55.72 39.2228 55.64 39.3428 55.55 39.4628C55.46 39.5728 55.37 39.6928 55.27 39.7928C55.17 39.9028 55.07 40.0028 54.96 40.1028C54.85 40.2028 54.73 40.2928 54.61 40.3728C54.55 40.4128 54.49 40.4528 54.43 40.4928C54.37 40.5328 54.31 40.5728 54.24 40.6028C54.18 40.6428 54.11 40.6728 54.05 40.7028C53.98 40.7328 53.92 40.7728 53.85 40.8028C53.83 40.8028 53.82 40.8128 53.8 40.8228C53.78 40.8328 53.76 40.8428 53.75 40.8428C53.73 40.8428 53.72 40.8528 53.7 40.8628C53.68 40.8628 53.67 40.8728 53.65 40.8828L53.6 40.9028C53.6 40.9028 53.56 40.9128 53.55 40.9228L53.5 40.9428C53.5 40.9428 53.47 40.9528 53.45 40.9628C53.43 40.9628 53.41 40.9728 53.4 40.9828C53.38 40.9828 53.36 40.9928 53.35 41.0028C53.33 41.0028 53.31 41.0128 53.3 41.0228C53.28 41.0228 53.26 41.0328 53.25 41.0428C53.23 41.0428 53.21 41.0528 53.2 41.0528L53.15 41.0728C53.15 41.0728 53.11 41.0728 53.1 41.0828C53.08 41.0828 53.06 41.0828 53.05 41.0928C53.03 41.0928 53.01 41.0928 52.99 41.1028C52.97 41.1028 52.95 41.1028 52.93 41.1128C52.91 41.1128 52.89 41.1128 52.88 41.1228C52.86 41.1228 52.84 41.1228 52.82 41.1328C52.8 41.1328 52.78 41.1328 52.76 41.1328H52.71L52.65 41.1528C52.63 41.1528 52.61 41.1528 52.59 41.1528C52.57 41.1528 52.55 41.1528 52.53 41.1528C52.51 41.1528 52.49 41.1528 52.47 41.1528C52.45 41.1528 52.43 41.1528 52.41 41.1528C52.39 41.1528 52.37 41.1528 52.35 41.1528C52.33 41.1528 52.31 41.1528 52.29 41.1528C52.27 41.1528 52.25 41.1528 52.23 41.1528C52.21 41.1528 52.19 41.1528 52.17 41.1528C52.07 41.1528 51.97 41.1628 51.86 41.1728C51.76 41.1728 51.66 41.1828 51.56 41.1928C51.46 41.1928 51.36 41.2028 51.25 41.2028C51.15 41.2028 51.05 41.2128 50.94 41.2228C50.84 41.2228 50.74 41.2228 50.64 41.2328C50.54 41.2328 50.44 41.2328 50.33 41.2428C50.23 41.2428 50.13 41.2428 50.02 41.2528C49.92 41.2528 49.82 41.2528 49.72 41.2628C49.62 41.2628 49.52 41.2628 49.41 41.2728C49.31 41.2728 49.21 41.2728 49.1 41.2828C49 41.2828 48.9 41.2828 48.79 41.2928C48.69 41.2928 48.59 41.2928 48.48 41.3028C48.38 41.3028 48.28 41.3028 48.17 41.3128C48.07 41.3128 47.97 41.3128 47.86 41.3228C47.76 41.3228 47.66 41.3228 47.55 41.3328C47.45 41.3328 47.35 41.3328 47.24 41.3428C47.14 41.3428 47.04 41.3428 46.93 41.3528C46.83 41.3528 46.73 41.3528 46.62 41.3628C46.52 41.3628 46.42 41.3628 46.31 41.3728C46.21 41.3728 46.11 41.3728 46 41.3828C45.9 41.3828 45.8 41.3828 45.69 41.3828C45.59 41.3828 45.49 41.3828 45.38 41.3928C45.27 41.4028 45.18 41.3928 45.07 41.4028C44.97 41.4028 44.87 41.4028 44.76 41.4028C44.66 41.4028 44.56 41.4028 44.45 41.4028C44.35 41.4028 44.25 41.4028 44.14 41.4028C44.04 41.4028 43.94 41.4028 43.83 41.4028C43.73 41.4028 43.63 41.4028 43.52 41.4028C43.42 41.4028 43.32 41.4028 43.21 41.4028C43.11 41.4028 43.01 41.4028 42.9 41.4028C42.8 41.4028 42.7 41.4028 42.59 41.4028C42.49 41.4028 42.39 41.4028 42.28 41.4028C42.18 41.4028 42.07 41.4028 41.97 41.4028C41.87 41.4028 41.77 41.4028 41.66 41.4028C41.56 41.4028 41.46 41.4028 41.35 41.4028H41.04C40.94 41.4028 40.84 41.4128 40.73 41.4128H40.42C40.32 41.4128 40.22 41.4128 40.11 41.4228C40.01 41.4228 39.91 41.4228 39.8 41.4228C39.7 41.4228 39.59 41.4228 39.49 41.4228C39.39 41.4228 39.29 41.4228 39.18 41.4228H38.87C38.77 41.4228 38.66 41.4228 38.56 41.4228C38.46 41.4228 38.36 41.4228 38.25 41.4228C38.14 41.4228 38.05 41.4228 37.94 41.4228C37.84 41.4228 37.73 41.4228 37.63 41.4228C37.53 41.4228 37.43 41.4228 37.32 41.4228H37.01C36.91 41.4228 36.8 41.4228 36.7 41.4228C36.6 41.4228 36.49 41.4228 36.39 41.4228C36.29 41.4228 36.19 41.4228 36.08 41.4228C35.98 41.4228 35.88 41.4228 35.77 41.4228H35.46H35.15C35.05 41.4228 34.95 41.4228 34.84 41.4228H34.53C34.43 41.4228 34.32 41.4228 34.22 41.4228H33.3C33.2 41.4228 33.1 41.4228 32.99 41.4228H32.68C32.58 41.4228 32.48 41.4228 32.37 41.4228C32.27 41.4228 32.17 41.4228 32.06 41.4228H31.75C31.65 41.4228 31.55 41.4228 31.44 41.4228C31.34 41.4228 31.23 41.4228 31.13 41.4228C31.03 41.4228 30.92 41.4228 30.82 41.4228C30.72 41.4228 30.62 41.4228 30.51 41.4228H30.2H29.89C29.79 41.4228 29.69 41.4228 29.58 41.4228C29.48 41.4228 29.38 41.4228 29.27 41.4228C29.17 41.4228 29.06 41.4228 28.96 41.4228C28.86 41.4228 28.76 41.4228 28.65 41.4228C28.55 41.4228 28.45 41.4228 28.34 41.4228C28.24 41.4228 28.14 41.4228 28.03 41.4228C27.93 41.4228 27.82 41.4228 27.72 41.4228C27.62 41.4228 27.52 41.4228 27.41 41.4228C27.31 41.4228 27.21 41.4228 27.1 41.4228C27 41.4228 26.9 41.4228 26.79 41.4228H26.48C26.38 41.4228 26.28 41.4228 26.17 41.4128C26.07 41.4128 25.97 41.4128 25.86 41.4128C25.76 41.4128 25.66 41.4128 25.55 41.4128C25.45 41.4128 25.34 41.4128 25.24 41.4128H24.93C24.83 41.4128 24.73 41.4028 24.62 41.4028C24.52 41.4028 24.41 41.4028 24.31 41.4028C24.21 41.4028 24.1 41.4028 24 41.4028C23.9 41.4028 23.8 41.4028 23.69 41.4028C23.59 41.4028 23.49 41.4028 23.38 41.4028C23.28 41.4028 23.18 41.4028 23.07 41.4028C22.97 41.4028 22.87 41.4028 22.76 41.4028C22.66 41.4028 22.56 41.4028 22.45 41.4028C22.35 41.4028 22.25 41.4028 22.14 41.3928C22.04 41.3928 21.94 41.3928 21.83 41.3828C21.73 41.3828 21.63 41.3828 21.52 41.3828C21.42 41.3828 21.32 41.3828 21.21 41.3728C21.11 41.3728 21.01 41.3728 20.9 41.3628C20.8 41.3628 20.7 41.3628 20.59 41.3528C20.49 41.3528 20.39 41.3528 20.28 41.3428C20.18 41.3428 20.08 41.3428 19.97 41.3328C19.87 41.3328 19.77 41.3328 19.66 41.3228C19.56 41.3228 19.46 41.3228 19.35 41.3128C19.25 41.3128 19.15 41.3128 19.04 41.3028C18.94 41.3028 18.84 41.3028 18.73 41.2928C18.63 41.2928 18.53 41.2928 18.42 41.2828C18.32 41.2828 18.22 41.2828 18.11 41.2728C18.01 41.2728 17.91 41.2728 17.8 41.2628C17.7 41.2628 17.6 41.2628 17.5 41.2528C17.4 41.2528 17.3 41.2528 17.19 41.2428C17.09 41.2428 16.99 41.2428 16.88 41.2328C16.78 41.2328 16.68 41.2228 16.58 41.2228C16.48 41.2228 16.38 41.2128 16.27 41.2028H15.97C15.87 41.1828 15.77 41.1828 15.67 41.1728C15.57 41.1728 15.47 41.1628 15.36 41.1528L15.45 41.1328Z" stroke="#FF00FF" stroke-width="0.28" stroke-linecap="round" stroke-linejoin="round"/>
<path d="M53.4491 44.9191V50.01H52.8326V45.5654H52.8028L51.5599 46.3907V45.7643L52.8326 44.9191H53.4491ZM55.0499 50.0498C54.9273 50.0498 54.8221 50.0059 54.7342 49.918C54.6464 49.8302 54.6025 49.725 54.6025 49.6023C54.6025 49.4797 54.6464 49.3745 54.7342 49.2866C54.8221 49.1988 54.9273 49.1549 55.0499 49.1549C55.1726 49.1549 55.2778 49.1988 55.3656 49.2866C55.4535 49.3745 55.4974 49.4797 55.4974 49.6023C55.4974 49.6835 55.4767 49.7581 55.4352 49.8261C55.3955 49.894 55.3416 49.9487 55.2737 49.9901C55.2074 50.0299 55.1328 50.0498 55.0499 50.0498ZM56.5402 50.01V49.5626L58.2206 47.7231C58.4178 47.5076 58.5802 47.3204 58.7078 47.1613C58.8354 47.0005 58.9299 46.8497 58.9912 46.7089C59.0541 46.5664 59.0856 46.4172 59.0856 46.2614C59.0856 46.0825 59.0425 45.9275 58.9564 45.7966C58.8718 45.6657 58.7558 45.5646 58.6084 45.4933C58.4609 45.4221 58.2951 45.3864 58.1112 45.3864C57.9156 45.3864 57.745 45.427 57.5991 45.5082C57.4549 45.5878 57.3431 45.6996 57.2635 45.8438C57.1857 45.988 57.1467 46.157 57.1467 46.3509H56.5601C56.5601 46.0526 56.6288 45.7908 56.7664 45.5654C56.9039 45.34 57.0912 45.1644 57.3282 45.0384C57.5668 44.9125 57.8344 44.8495 58.1311 44.8495C58.4294 44.8495 58.6937 44.9125 58.9241 45.0384C59.1544 45.1644 59.335 45.3342 59.466 45.548C59.5969 45.7618 59.6623 45.9996 59.6623 46.2614C59.6623 46.4487 59.6284 46.6318 59.5604 46.8108C59.4941 46.9881 59.3781 47.1861 59.2124 47.4049C59.0483 47.622 58.8205 47.8871 58.5288 48.2004L57.3853 49.4234V49.4631H59.7518V50.01H56.5402ZM62.3694 50.0796C62.0777 50.0796 61.815 50.0216 61.5814 49.9056C61.3477 49.7896 61.1604 49.6305 61.0196 49.4283C60.8787 49.2262 60.8017 48.9958 60.7884 48.7373H61.385C61.4082 48.9676 61.5126 49.1582 61.6982 49.309C61.8855 49.4582 62.1092 49.5327 62.3694 49.5327C62.5782 49.5327 62.7638 49.4838 62.9262 49.3861C63.0902 49.2883 63.2187 49.1541 63.3115 48.9834C63.4059 48.811 63.4532 48.6163 63.4532 48.3992C63.4532 48.1771 63.4043 47.9791 63.3065 47.8051C63.2104 47.6294 63.0778 47.4911 62.9088 47.39C62.7397 47.2889 62.5467 47.2375 62.3296 47.2359C62.1738 47.2342 62.0139 47.2582 61.8498 47.308C61.6858 47.356 61.5507 47.4182 61.4446 47.4944L60.8679 47.4248L61.1762 44.9191H63.8211V45.466H61.6932L61.5142 46.9674H61.5441C61.6485 46.8845 61.7794 46.8158 61.9368 46.7611C62.0943 46.7064 62.2583 46.679 62.429 46.679C62.7406 46.679 63.0182 46.7536 63.2618 46.9028C63.507 47.0503 63.6993 47.2524 63.8385 47.5093C63.9793 47.7662 64.0498 48.0595 64.0498 48.3893C64.0498 48.7141 63.9768 49.0041 63.831 49.2593C63.6868 49.5129 63.488 49.7134 63.2344 49.8609C62.9809 50.0067 62.6925 50.0796 62.3694 50.0796Z" fill="#0000FF"/>
<path fill-rule="evenodd" clip-rule="evenodd" d="M18.5426 7.98524C20.0509 7.12708 21.7922 6.70824 22.9999 6.70824C24.2075 6.70824 25.9488 7.12708 27.4572 7.98524C28.9658 8.8435 30.373 10.2218 30.6408 12.2037C30.9054 14.1613 30.5614 15.7718 29.8921 16.7881C29.7677 16.977 29.6897 17.1434 29.6564 17.2952C29.5076 17.9743 29.2891 18.5206 28.9082 18.949C28.5258 19.3792 28.0441 19.6175 27.5247 19.8048C27.227 19.9122 27.0234 20.1547 26.9742 20.4332C26.7537 21.681 26.4429 22.7766 25.8275 23.5592C25.1662 24.4 24.2295 24.7918 22.9999 24.7918C21.7702 24.7918 20.8335 24.4 20.1723 23.5592C19.5568 22.7766 19.2461 21.681 19.0256 20.4332C18.9764 20.1547 18.7727 19.9122 18.475 19.8048C17.9557 19.6175 17.4739 19.3792 17.0915 18.949C16.7107 18.5206 16.4921 17.9743 16.3433 17.2952C16.3101 17.1434 16.2321 16.977 16.1077 16.7881C15.4384 15.7718 15.0944 14.1613 15.359 12.2037C15.6268 10.2218 17.034 8.8435 18.5426 7.98524ZM18.3614 15.5649C18.2254 14.283 19.6835 13.7117 20.6435 13.6469C21.1522 13.6126 22.4886 13.6469 22.3915 15.0065C22.2459 17.0458 20.6435 17.7014 19.9152 17.6042C19.1868 17.5071 18.5313 17.1672 18.3614 15.5649ZM27.6383 15.5649C27.7743 14.283 26.3162 13.7117 25.3562 13.6469C24.8475 13.6126 23.5111 13.6469 23.6082 15.0065C23.7538 17.0458 25.3562 17.7014 26.0845 17.6042C26.8129 17.5071 27.4684 17.1672 27.6383 15.5649ZM23.055 17.5506C23.0117 17.5256 22.9583 17.5256 22.915 17.5506L22.0311 18.0609C21.7664 18.2138 21.6757 18.5523 21.8286 18.817C21.9814 19.0818 22.3199 19.1725 22.5846 19.0196L22.5873 19.0181L22.845 18.8693C22.9316 18.8193 23.0384 18.8193 23.125 18.8693L23.3827 19.0181L23.3853 19.0196C23.65 19.1724 23.9886 19.0817 24.1414 18.817C24.2942 18.5523 24.2035 18.2137 23.9388 18.0609L23.055 17.5506Z" fill="black"/>
<path d="M35.0394 31.4817C35.7964 31.4817 36.2994 32.141 36.3043 33.1568C36.2994 34.1628 35.8256 34.8319 35.0394 34.8319C34.2532 34.8319 33.7648 34.1775 33.7648 33.1568C33.7648 32.1312 34.2824 31.4817 35.0394 31.4817ZM32.5195 33.1569C32.5195 34.8125 33.3546 35.8331 34.6684 35.8331C35.1544 35.8331 35.9245 35.5891 36.2254 35.4871C36.2929 35.4642 36.3676 35.4939 36.3993 35.5579C36.4073 35.5742 36.4156 35.5904 36.426 35.6052C36.5454 35.7757 36.7211 35.8477 36.9198 35.8477C37.2666 35.8477 37.5107 35.6231 37.5107 35.2226V29.245C37.5106 28.8347 37.2616 28.6052 36.905 28.6052C36.5484 28.6052 36.2945 28.8347 36.2945 29.245V30.7251C36.2945 30.8278 36.1886 30.8967 36.095 30.8545C35.7331 30.6916 35.1304 30.4854 34.6487 30.4854C33.3497 30.4854 32.5195 31.5061 32.5195 33.1568V33.1569Z" fill="black"/>
<path d="M30.3527 33.8314C30.3527 34.4563 29.7962 34.9153 29.1126 34.9153C28.5854 34.9153 28.2289 34.6468 28.2289 34.2221C28.2289 33.7974 28.5658 33.5484 29.1516 33.5093L30.3 33.4393C30.3285 33.4376 30.3526 33.4602 30.3526 33.4888V33.8316L30.3527 33.8314ZM29.4348 30.4675C28.4437 30.4675 27.8721 30.8078 27.5798 31.1352C27.4105 31.3249 27.3888 31.7243 27.621 31.91C27.8924 32.127 28.347 31.9646 28.5032 31.7726C28.6434 31.6002 28.9582 31.4251 29.3858 31.4195C29.9862 31.4116 30.3525 31.732 30.3525 32.2739V32.4765C30.3525 32.5028 30.332 32.5245 30.3057 32.526L28.9805 32.6015C27.7211 32.6796 27.0132 33.3529 27.0132 34.2707C27.0132 35.1885 27.7431 35.833 28.7415 35.833C29.3733 35.833 29.9892 35.668 30.2956 35.5427C30.3599 35.5164 30.4336 35.5412 30.4698 35.6005C30.4726 35.605 30.475 35.6088 30.477 35.6117C30.5584 35.7276 30.7049 35.8476 30.9629 35.8476C31.3047 35.8476 31.5536 35.6279 31.5536 35.2374V32.186C31.5536 31.1461 30.7188 30.4675 29.4348 30.4675Z" fill="black"/>
<path d="M24.8833 32.5481H22.7941C22.7035 32.5481 22.6367 32.4643 22.6557 32.3757C22.7923 31.737 23.2639 31.4094 23.8583 31.4094C24.4527 31.4094 24.9068 31.7242 25.023 32.3825C25.0383 32.469 24.9712 32.5481 24.8833 32.5481ZM23.8535 30.4669C22.3593 30.4669 21.4072 31.5313 21.4072 33.1818C21.4072 34.8323 22.3398 35.8527 23.9219 35.8527C24.7221 35.8527 25.3081 35.6749 25.8078 35.1199C26.0315 34.8715 25.9716 34.5008 25.6755 34.3423C25.4261 34.2087 25.1424 34.3368 25.0031 34.4662C24.5604 34.8776 24.2356 34.9152 23.9122 34.9152C23.166 34.9152 22.676 34.4305 22.623 33.607C22.6177 33.5249 22.6821 33.4552 22.7644 33.4552H25.7186C25.9998 33.4552 26.2292 33.2304 26.2356 32.9493C26.2683 31.5064 25.2931 30.4669 23.8535 30.4669Z" fill="black"/>
<path d="M17.1934 28.704H15.25C14.8594 28.704 14.6201 28.9481 14.6201 29.3583V35.0957C14.6201 35.5059 14.8594 35.75 15.25 35.75H17.1934C19.3028 35.75 20.543 34.4414 20.543 32.2099C20.543 29.9784 19.298 28.704 17.1934 28.704ZM17.0616 34.6855H16.0217C15.9434 34.6855 15.88 34.622 15.88 34.5438V29.9102C15.88 29.8319 15.9435 29.7685 16.0217 29.7685H17.0616C18.4679 29.7685 19.2589 30.6377 19.2589 32.2148C19.2589 33.7919 18.4776 34.6855 17.0616 34.6855Z" fill="black"/>
</svg>
