<svg width="68" height="54" viewBox="0 0 68 54" fill="none" xmlns="http://www.w3.org/2000/svg">
<rect x="2.3501" y="1.85" width="63.8" height="50.3" rx="3" stroke="#8B1EFF" stroke-width="0.28"/>
<path d="M10.6999 37.0328C10.7199 37.6928 10.8699 38.3628 11.1399 38.9728C11.4099 39.6028 11.7899 40.1728 12.2599 40.6628C12.7299 41.1528 13.2999 41.5628 13.9199 41.8528C14.5299 42.1428 15.1999 42.3228 15.8699 42.3728C21.9899 42.6628 28.1199 42.8128 34.2499 42.8128C40.3799 42.8128 46.5099 42.6628 52.6299 42.3728C53.2999 42.3128 53.9699 42.1328 54.5799 41.8428C54.8899 41.6928 55.1799 41.5228 55.4599 41.3228C55.7399 41.1228 55.9999 40.9028 56.2399 40.6528C56.4799 40.4028 56.6899 40.1428 56.8799 39.8528C57.0699 39.5728 57.2299 39.2728 57.3599 38.9628C57.4899 38.6528 57.5899 38.3328 57.6599 38.0028C57.7299 37.6828 57.7799 37.3528 57.7899 37.0128C57.8699 27.0728 57.9699 17.1328 58.0999 7.20277C58.0799 6.66277 57.9999 6.12277 57.8299 5.61277C57.6699 5.10277 57.4399 4.61277 57.1299 4.17277C56.8299 3.73277 56.4599 3.34277 56.0499 3.02277C55.6299 2.70277 55.1699 2.44277 54.6699 2.25277C54.4399 2.16277 54.1999 2.09277 53.9599 2.04277C53.7199 1.99277 53.4699 1.95277 53.2199 1.92277C53.0499 1.90277 52.8899 1.89277 52.7199 1.89277C40.3999 1.83277 28.0799 1.83277 15.7699 1.91277C15.0799 1.91277 14.3799 2.05277 13.7399 2.31277C13.4199 2.44277 13.1099 2.59277 12.8199 2.78277C12.5299 2.97277 12.2499 3.18277 12.0099 3.42277C11.7599 3.66277 11.5399 3.94277 11.3399 4.22277C11.1399 4.51277 10.9799 4.82277 10.8499 5.15277C10.5799 5.80277 10.4199 6.51277 10.3999 7.22277C10.5199 17.1628 10.6299 27.1028 10.7099 37.0328" stroke="#8B1EFF" stroke-width="0.28" stroke-miterlimit="10"/>
<path d="M13.7901 4.34277C13.0101 4.34277 12.3701 4.98277 12.3701 5.76277V38.9228C12.3701 39.7028 13.0001 40.3428 13.7901 40.3428H54.6101C55.3901 40.3428 56.0301 39.7128 56.0301 38.9228V5.76277C56.0301 4.98277 55.3901 4.34277 54.6101 4.34277" stroke="#00FFFF" stroke-width="0.28" stroke-miterlimit="10"/>
<path d="M15.95 41.1328C15.76 41.1328 15.58 41.1028 15.4 41.0728C14.92 40.9928 14.45 40.8328 14.02 40.6128C13.59 40.3828 13.19 40.0828 12.86 39.7228C12.72 39.5728 12.59 39.4128 12.47 39.2528C12.18 38.8428 11.96 38.3828 11.82 37.9028C11.69 37.4628 11.62 37.0028 11.62 36.5428C11.6 31.6828 11.58 26.8328 11.56 21.9728C11.56 20.8028 11.56 19.6428 11.55 18.4728C11.54 15.2828 11.52 12.0928 11.5 8.90276C11.5 8.40276 11.5 7.89276 11.5 7.39276C11.5 7.35276 11.5 7.31276 11.5 7.27276C11.5 7.23276 11.5 7.19276 11.5 7.15276C11.5 7.11276 11.5 7.07276 11.5 7.03276C11.5 6.99276 11.5 6.95276 11.5 6.91276V6.79276C11.5 6.79276 11.52 6.71276 11.53 6.67276C11.53 6.63276 11.54 6.59276 11.55 6.56276C11.55 6.52276 11.56 6.48276 11.57 6.45276C11.57 6.41276 11.58 6.37276 11.59 6.34276C11.59 6.30276 11.61 6.26276 11.61 6.23276C11.62 6.19276 11.63 6.16276 11.64 6.12276C11.64 6.08276 11.66 6.05276 11.67 6.01276C11.68 5.97276 11.69 5.94276 11.7 5.90276C11.71 5.86276 11.72 5.83276 11.74 5.79276C11.75 5.75276 11.77 5.72276 11.78 5.68276C11.81 5.61276 11.84 5.55276 11.87 5.48276C11.9 5.41276 11.93 5.35276 11.97 5.29276C12 5.23276 12.04 5.16276 12.07 5.10276C12.11 5.04276 12.15 4.98276 12.19 4.92276C12.27 4.80276 12.36 4.68276 12.45 4.57276C12.54 4.46276 12.64 4.36276 12.74 4.26276C12.84 4.16276 12.95 4.07276 13.07 3.98276C13.18 3.89276 13.3 3.81276 13.43 3.73276C13.49 3.69276 13.55 3.66276 13.62 3.62276C13.68 3.59276 13.75 3.55276 13.81 3.52276C13.87 3.49276 13.94 3.46276 14.01 3.43276C14.08 3.40276 14.14 3.38276 14.21 3.35276C14.23 3.35276 14.25 3.34276 14.27 3.33276C14.29 3.33276 14.31 3.32276 14.33 3.31276C14.35 3.31276 14.37 3.30276 14.38 3.29276L14.44 3.27276C14.44 3.27276 14.48 3.26276 14.5 3.25276C14.52 3.25276 14.54 3.24276 14.56 3.23276C14.58 3.23276 14.6 3.23276 14.62 3.22276C14.64 3.22276 14.66 3.21276 14.68 3.20276C14.7 3.20276 14.72 3.19276 14.74 3.18276C14.76 3.18276 14.78 3.18276 14.8 3.17276C14.82 3.17276 14.84 3.17276 14.86 3.16276C14.88 3.16276 14.9 3.16276 14.92 3.15276C14.94 3.15276 14.96 3.15276 14.98 3.14276C15 3.14276 15.02 3.14276 15.04 3.13276C15.06 3.13276 15.08 3.13276 15.1 3.13276C15.12 3.13276 15.14 3.13276 15.16 3.12276C15.18 3.12276 15.2 3.12276 15.22 3.12276C15.24 3.12276 15.26 3.12276 15.28 3.12276C15.3 3.12276 15.32 3.12276 15.34 3.12276C15.36 3.12276 15.38 3.12276 15.4 3.12276C15.42 3.12276 15.44 3.12276 15.46 3.12276C15.48 3.12276 15.5 3.12276 15.52 3.12276C15.54 3.12276 15.56 3.12276 15.58 3.12276C15.6 3.12276 15.62 3.12276 15.64 3.12276C15.66 3.12276 15.68 3.12276 15.7 3.12276C15.72 3.12276 15.74 3.12276 15.76 3.12276C15.78 3.12276 15.8 3.12276 15.82 3.12276C15.84 3.12276 15.86 3.12276 15.88 3.12276C15.9 3.12276 15.92 3.12276 15.94 3.12276C16.04 3.12276 16.14 3.12276 16.25 3.12276C16.35 3.12276 16.45 3.12276 16.55 3.12276C16.65 3.12276 16.75 3.12276 16.86 3.12276C16.96 3.12276 17.06 3.12276 17.17 3.12276C17.27 3.12276 17.37 3.12276 17.48 3.12276C17.58 3.12276 17.68 3.12276 17.79 3.12276C17.89 3.12276 17.99 3.12276 18.1 3.12276C18.2 3.12276 18.3 3.12276 18.41 3.12276C18.51 3.12276 18.61 3.12276 18.72 3.12276C18.82 3.12276 18.92 3.12276 19.03 3.12276C19.13 3.12276 19.23 3.12276 19.34 3.12276C19.44 3.12276 19.54 3.12276 19.65 3.12276C19.75 3.12276 19.85 3.12276 19.95 3.12276C20.05 3.12276 20.16 3.12276 20.26 3.12276C20.36 3.12276 20.46 3.12276 20.57 3.12276C20.67 3.12276 20.77 3.12276 20.88 3.12276C20.98 3.12276 21.08 3.12276 21.19 3.12276C21.29 3.12276 21.39 3.12276 21.5 3.12276C21.6 3.12276 21.7 3.12276 21.81 3.12276C21.91 3.12276 22.01 3.12276 22.12 3.12276C22.22 3.12276 22.33 3.12276 22.43 3.12276H22.74C22.84 3.12276 22.94 3.12276 23.05 3.12276C23.15 3.12276 23.25 3.12276 23.36 3.12276C23.46 3.12276 23.57 3.12276 23.67 3.12276C23.77 3.12276 23.87 3.12276 23.98 3.12276C24.09 3.12276 24.18 3.12276 24.29 3.12276C24.39 3.12276 24.49 3.12276 24.6 3.12276H24.91C25.01 3.12276 25.11 3.12276 25.22 3.12276C25.33 3.12276 25.43 3.12276 25.53 3.12276C25.63 3.12276 25.73 3.12276 25.84 3.12276C25.95 3.12276 26.05 3.12276 26.15 3.12276C26.25 3.12276 26.36 3.12276 26.46 3.12276C26.56 3.12276 26.66 3.12276 26.77 3.12276C26.88 3.12276 26.97 3.12276 27.08 3.12276C27.18 3.12276 27.28 3.12276 27.39 3.12276H27.7C27.8 3.12276 27.9 3.12276 28.01 3.12276C28.12 3.12276 28.22 3.12276 28.32 3.12276H28.63C28.73 3.12276 28.84 3.12276 28.94 3.12276C29.04 3.12276 29.14 3.12276 29.25 3.12276H29.56C29.66 3.12276 29.77 3.12276 29.87 3.12276H30.18C30.28 3.12276 30.38 3.12276 30.49 3.12276H30.8C30.9 3.12276 31 3.12276 31.11 3.12276H31.72C31.82 3.12276 31.92 3.12276 32.03 3.12276H33.88C33.98 3.12276 34.09 3.12276 34.19 3.12276H34.5C34.6 3.12276 34.7 3.12276 34.81 3.12276H36.66C36.76 3.12276 36.87 3.12276 36.97 3.12276H37.58C37.68 3.12276 37.79 3.12276 37.89 3.12276H38.2C38.3 3.12276 38.41 3.12276 38.51 3.12276H38.82C38.92 3.12276 39.02 3.12276 39.13 3.12276H39.44C39.54 3.12276 39.64 3.12276 39.75 3.12276C39.86 3.12276 39.95 3.12276 40.06 3.12276H40.37C40.47 3.12276 40.58 3.12276 40.68 3.12276C40.78 3.12276 40.89 3.12276 40.99 3.12276H41.3C41.4 3.12276 41.5 3.12276 41.61 3.12276C41.71 3.12276 41.82 3.12276 41.92 3.12276C42.02 3.12276 42.12 3.12276 42.23 3.12276C42.34 3.12276 42.43 3.12276 42.54 3.12276C42.65 3.12276 42.75 3.12276 42.85 3.12276C42.95 3.12276 43.06 3.12276 43.16 3.12276C43.26 3.12276 43.36 3.12276 43.47 3.12276C43.58 3.12276 43.67 3.12276 43.78 3.12276C43.89 3.12276 43.98 3.12276 44.09 3.12276C44.2 3.12276 44.3 3.12276 44.4 3.12276C44.5 3.12276 44.6 3.12276 44.71 3.12276H45.02C45.12 3.12276 45.22 3.12276 45.33 3.12276C45.43 3.12276 45.54 3.12276 45.64 3.12276C45.74 3.12276 45.84 3.12276 45.95 3.12276C46.05 3.12276 46.15 3.12276 46.26 3.12276C46.36 3.12276 46.46 3.12276 46.57 3.12276C46.67 3.12276 46.78 3.12276 46.88 3.12276C46.98 3.12276 47.08 3.12276 47.19 3.12276C47.29 3.12276 47.39 3.12276 47.5 3.12276C47.6 3.12276 47.7 3.12276 47.81 3.12276C47.91 3.12276 48.01 3.12276 48.12 3.12276C48.22 3.12276 48.32 3.12276 48.43 3.12276C48.53 3.12276 48.63 3.12276 48.74 3.12276C48.84 3.12276 48.95 3.12276 49.05 3.12276C49.15 3.12276 49.25 3.12276 49.36 3.12276C49.46 3.12276 49.56 3.12276 49.67 3.12276C49.77 3.12276 49.88 3.12276 49.98 3.12276C50.08 3.12276 50.18 3.12276 50.29 3.12276C50.39 3.12276 50.49 3.12276 50.59 3.12276C50.69 3.12276 50.79 3.12276 50.9 3.12276C51 3.12276 51.1 3.12276 51.21 3.12276C51.31 3.12276 51.41 3.12276 51.51 3.12276C51.61 3.12276 51.71 3.12276 51.82 3.12276C51.92 3.12276 52.02 3.12276 52.13 3.12276C52.23 3.12276 52.33 3.12276 52.43 3.12276C52.53 3.12276 52.63 3.12276 52.74 3.12276C52.78 3.12276 52.82 3.12276 52.86 3.12276C52.9 3.12276 52.94 3.12276 52.98 3.12276C53.02 3.12276 53.06 3.12276 53.1 3.12276C53.14 3.12276 53.18 3.12276 53.22 3.13276C53.26 3.13276 53.3 3.13276 53.34 3.14276L53.46 3.16276C53.46 3.16276 53.54 3.17276 53.58 3.18276C53.62 3.18276 53.66 3.19276 53.7 3.20276C53.74 3.20276 53.77 3.22276 53.81 3.22276C53.85 3.22276 53.89 3.24276 53.92 3.25276C53.96 3.25276 54 3.27276 54.03 3.28276C54.07 3.28276 54.1 3.30276 54.14 3.31276C54.18 3.32276 54.21 3.33276 54.25 3.34276C54.29 3.35276 54.32 3.36276 54.36 3.37276C54.4 3.38276 54.43 3.39276 54.47 3.41276C54.54 3.44276 54.61 3.46276 54.67 3.49276C54.74 3.52276 54.8 3.55276 54.87 3.58276C54.93 3.61276 55 3.65276 55.06 3.68276C55.12 3.71276 55.19 3.75276 55.25 3.79276C55.37 3.87276 55.49 3.95276 55.61 4.04276C55.72 4.13276 55.83 4.22276 55.93 4.32276C56.03 4.42276 56.13 4.52276 56.22 4.63276C56.31 4.74276 56.4 4.86276 56.48 4.98276C56.52 5.04276 56.56 5.10276 56.59 5.16276C56.63 5.22276 56.66 5.28276 56.69 5.35276C56.72 5.41276 56.75 5.48276 56.78 5.54276C56.81 5.61276 56.84 5.67276 56.86 5.74276C56.86 5.76276 56.87 5.78276 56.88 5.80276C56.88 5.82276 56.89 5.84276 56.9 5.85276L56.92 5.91276C56.92 5.91276 56.93 5.95276 56.94 5.97276C56.94 5.99276 56.95 6.01276 56.96 6.03276C56.96 6.05276 56.97 6.07276 56.98 6.09276C56.98 6.11276 56.99 6.13276 57 6.15276C57 6.17276 57.01 6.19276 57.02 6.21276V6.27276C57.02 6.27276 57.04 6.31276 57.05 6.33276C57.05 6.35276 57.05 6.37276 57.06 6.39276C57.06 6.41276 57.06 6.43276 57.07 6.45276C57.07 6.47276 57.07 6.49276 57.08 6.51276V6.57276C57.08 6.57276 57.1 6.61276 57.1 6.63276C57.1 6.65276 57.1 6.67276 57.1 6.69276C57.1 6.71276 57.1 6.73276 57.1 6.75276C57.1 6.77276 57.1 6.79276 57.1 6.81276C57.1 6.83276 57.1 6.85276 57.1 6.87276C57.1 6.89276 57.1 6.91276 57.1 6.93276C57.1 6.95276 57.1 6.97276 57.1 6.99276C57.1 7.01276 57.1 7.03276 57.1 7.05276C57.1 7.07276 57.1 7.09276 57.1 7.11276C57.1 7.13276 57.1 7.15276 57.1 7.17276V7.23276C57.1 7.23276 57.1 7.27276 57.1 7.29276C57.1 7.31276 57.1 7.33276 57.1 7.35276C57.1 7.37276 57.1 7.39276 57.1 7.41276V7.47276V8.99276C57.08 12.1828 57.07 15.3728 57.05 18.5728C57.05 19.7328 57.04 20.9028 57.04 22.0628C57.02 26.9128 57 31.7728 56.98 36.6228C56.98 36.6628 56.98 36.7028 56.98 36.7428C56.98 36.7828 56.98 36.8228 56.98 36.8628C56.98 36.9028 56.98 36.9428 56.98 36.9828C56.98 37.0228 56.98 37.0628 56.98 37.1028C56.98 37.1428 56.98 37.1828 56.97 37.2128C56.97 37.2528 56.96 37.2928 56.95 37.3228C56.95 37.3628 56.94 37.4028 56.93 37.4328L56.91 37.5428C56.91 37.5428 56.9 37.6228 56.89 37.6528C56.89 37.6928 56.87 37.7328 56.86 37.7628C56.86 37.8028 56.84 37.8328 56.83 37.8728C56.82 37.9128 56.81 37.9428 56.8 37.9828C56.79 38.0228 56.78 38.0528 56.77 38.0928C56.76 38.1328 56.75 38.1628 56.73 38.2028C56.72 38.2428 56.7 38.2728 56.69 38.3128C56.64 38.4528 56.58 38.5828 56.51 38.7228C56.45 38.8528 56.38 38.9828 56.3 39.1028C56.22 39.2228 56.14 39.3428 56.05 39.4628C55.96 39.5728 55.87 39.6928 55.77 39.7928C55.67 39.9028 55.57 40.0028 55.46 40.1028C55.35 40.2028 55.23 40.2928 55.11 40.3728C55.05 40.4128 54.99 40.4528 54.93 40.4928C54.87 40.5328 54.81 40.5728 54.74 40.6028C54.68 40.6428 54.61 40.6728 54.55 40.7028C54.48 40.7328 54.42 40.7728 54.35 40.8028C54.33 40.8028 54.32 40.8128 54.3 40.8228C54.28 40.8328 54.26 40.8428 54.25 40.8428C54.23 40.8428 54.22 40.8528 54.2 40.8628C54.18 40.8628 54.17 40.8728 54.15 40.8828L54.1 40.9028C54.1 40.9028 54.06 40.9128 54.05 40.9228L54 40.9428C54 40.9428 53.97 40.9528 53.95 40.9628C53.93 40.9628 53.91 40.9728 53.9 40.9828C53.88 40.9828 53.86 40.9928 53.85 41.0028C53.83 41.0028 53.81 41.0128 53.8 41.0228C53.78 41.0228 53.76 41.0328 53.75 41.0428C53.73 41.0428 53.71 41.0528 53.7 41.0528L53.65 41.0728C53.65 41.0728 53.61 41.0728 53.6 41.0828C53.58 41.0828 53.56 41.0828 53.55 41.0928C53.53 41.0928 53.51 41.0928 53.49 41.1028C53.47 41.1028 53.45 41.1028 53.43 41.1128C53.41 41.1128 53.39 41.1128 53.38 41.1228C53.36 41.1228 53.34 41.1228 53.32 41.1328C53.3 41.1328 53.28 41.1328 53.26 41.1328H53.21L53.15 41.1528C53.13 41.1528 53.11 41.1528 53.09 41.1528C53.07 41.1528 53.05 41.1528 53.03 41.1528C53.01 41.1528 52.99 41.1528 52.97 41.1528C52.95 41.1528 52.93 41.1528 52.91 41.1528C52.89 41.1528 52.87 41.1528 52.85 41.1528C52.83 41.1528 52.81 41.1528 52.79 41.1528C52.77 41.1528 52.75 41.1528 52.73 41.1528C52.71 41.1528 52.69 41.1528 52.67 41.1528C52.57 41.1528 52.47 41.1628 52.36 41.1728C52.26 41.1728 52.16 41.1828 52.06 41.1928C51.96 41.1928 51.86 41.2028 51.75 41.2028C51.65 41.2028 51.55 41.2128 51.44 41.2228C51.34 41.2228 51.24 41.2228 51.14 41.2328C51.04 41.2328 50.94 41.2328 50.83 41.2428C50.73 41.2428 50.63 41.2428 50.52 41.2528C50.42 41.2528 50.32 41.2528 50.22 41.2628C50.12 41.2628 50.02 41.2628 49.91 41.2728C49.81 41.2728 49.71 41.2728 49.6 41.2828C49.5 41.2828 49.4 41.2828 49.29 41.2928C49.19 41.2928 49.09 41.2928 48.98 41.3028C48.88 41.3028 48.78 41.3028 48.67 41.3128C48.57 41.3128 48.47 41.3128 48.36 41.3228C48.26 41.3228 48.16 41.3228 48.05 41.3328C47.95 41.3328 47.85 41.3328 47.74 41.3428C47.64 41.3428 47.54 41.3428 47.43 41.3528C47.33 41.3528 47.23 41.3528 47.12 41.3628C47.02 41.3628 46.92 41.3628 46.81 41.3728C46.71 41.3728 46.61 41.3728 46.5 41.3828C46.4 41.3828 46.3 41.3828 46.19 41.3828C46.09 41.3828 45.99 41.3828 45.88 41.3928C45.77 41.4028 45.68 41.3928 45.57 41.4028C45.47 41.4028 45.37 41.4028 45.26 41.4028C45.16 41.4028 45.06 41.4028 44.95 41.4028C44.85 41.4028 44.75 41.4028 44.64 41.4028C44.54 41.4028 44.44 41.4028 44.33 41.4028C44.23 41.4028 44.13 41.4028 44.02 41.4028C43.92 41.4028 43.82 41.4028 43.71 41.4028C43.61 41.4028 43.51 41.4028 43.4 41.4028C43.3 41.4028 43.2 41.4028 43.09 41.4028C42.99 41.4028 42.89 41.4028 42.78 41.4028C42.68 41.4028 42.57 41.4028 42.47 41.4028C42.37 41.4028 42.27 41.4028 42.16 41.4028C42.06 41.4028 41.96 41.4028 41.85 41.4028H41.54C41.44 41.4028 41.34 41.4128 41.23 41.4128H40.92C40.82 41.4128 40.72 41.4128 40.61 41.4228C40.51 41.4228 40.41 41.4228 40.3 41.4228C40.2 41.4228 40.09 41.4228 39.99 41.4228C39.89 41.4228 39.79 41.4228 39.68 41.4228H39.37C39.27 41.4228 39.16 41.4228 39.06 41.4228C38.96 41.4228 38.86 41.4228 38.75 41.4228C38.64 41.4228 38.55 41.4228 38.44 41.4228C38.34 41.4228 38.23 41.4228 38.13 41.4228C38.03 41.4228 37.93 41.4228 37.82 41.4228H37.51C37.41 41.4228 37.3 41.4228 37.2 41.4228C37.1 41.4228 36.99 41.4228 36.89 41.4228C36.79 41.4228 36.69 41.4228 36.58 41.4228C36.48 41.4228 36.38 41.4228 36.27 41.4228H35.96H35.65C35.55 41.4228 35.45 41.4228 35.34 41.4228H35.03C34.93 41.4228 34.82 41.4228 34.72 41.4228H33.8C33.7 41.4228 33.6 41.4228 33.49 41.4228H33.18C33.08 41.4228 32.98 41.4228 32.87 41.4228C32.77 41.4228 32.67 41.4228 32.56 41.4228H32.25C32.15 41.4228 32.05 41.4228 31.94 41.4228C31.84 41.4228 31.73 41.4228 31.63 41.4228C31.53 41.4228 31.42 41.4228 31.32 41.4228C31.22 41.4228 31.12 41.4228 31.01 41.4228H30.7H30.39C30.29 41.4228 30.19 41.4228 30.08 41.4228C29.98 41.4228 29.88 41.4228 29.77 41.4228C29.67 41.4228 29.56 41.4228 29.46 41.4228C29.36 41.4228 29.26 41.4228 29.15 41.4228C29.05 41.4228 28.95 41.4228 28.84 41.4228C28.74 41.4228 28.64 41.4228 28.53 41.4228C28.43 41.4228 28.32 41.4228 28.22 41.4228C28.12 41.4228 28.02 41.4228 27.91 41.4228C27.81 41.4228 27.71 41.4228 27.6 41.4228C27.5 41.4228 27.4 41.4228 27.29 41.4228H26.98C26.88 41.4228 26.78 41.4228 26.67 41.4128C26.57 41.4128 26.47 41.4128 26.36 41.4128C26.26 41.4128 26.16 41.4128 26.05 41.4128C25.95 41.4128 25.84 41.4128 25.74 41.4128H25.43C25.33 41.4128 25.23 41.4028 25.12 41.4028C25.02 41.4028 24.91 41.4028 24.81 41.4028C24.71 41.4028 24.6 41.4028 24.5 41.4028C24.4 41.4028 24.3 41.4028 24.19 41.4028C24.09 41.4028 23.99 41.4028 23.88 41.4028C23.78 41.4028 23.68 41.4028 23.57 41.4028C23.47 41.4028 23.37 41.4028 23.26 41.4028C23.16 41.4028 23.06 41.4028 22.95 41.4028C22.85 41.4028 22.75 41.4028 22.64 41.3928C22.54 41.3928 22.44 41.3928 22.33 41.3828C22.23 41.3828 22.13 41.3828 22.02 41.3828C21.92 41.3828 21.82 41.3828 21.71 41.3728C21.61 41.3728 21.51 41.3728 21.4 41.3628C21.3 41.3628 21.2 41.3628 21.09 41.3528C20.99 41.3528 20.89 41.3528 20.78 41.3428C20.68 41.3428 20.58 41.3428 20.47 41.3328C20.37 41.3328 20.27 41.3328 20.16 41.3228C20.06 41.3228 19.96 41.3228 19.85 41.3128C19.75 41.3128 19.65 41.3128 19.54 41.3028C19.44 41.3028 19.34 41.3028 19.23 41.2928C19.13 41.2928 19.03 41.2928 18.92 41.2828C18.82 41.2828 18.72 41.2828 18.61 41.2728C18.51 41.2728 18.41 41.2728 18.3 41.2628C18.2 41.2628 18.1 41.2628 18 41.2528C17.9 41.2528 17.8 41.2528 17.69 41.2428C17.59 41.2428 17.49 41.2428 17.38 41.2328C17.28 41.2328 17.18 41.2228 17.08 41.2228C16.98 41.2228 16.88 41.2128 16.77 41.2028H16.47C16.37 41.1828 16.27 41.1828 16.17 41.1728C16.07 41.1728 15.97 41.1628 15.86 41.1528L15.95 41.1328Z" stroke="#FF00FF" stroke-width="0.28" stroke-linecap="round" stroke-linejoin="round"/>
<path d="M53.9491 44.9191V50.01H53.3326V45.5654H53.3028L52.0599 46.3907V45.7643L53.3326 44.9191H53.9491ZM55.5499 50.0498C55.4273 50.0498 55.3221 50.0059 55.2342 49.918C55.1464 49.8302 55.1025 49.725 55.1025 49.6023C55.1025 49.4797 55.1464 49.3745 55.2342 49.2866C55.3221 49.1988 55.4273 49.1549 55.5499 49.1549C55.6726 49.1549 55.7778 49.1988 55.8656 49.2866C55.9535 49.3745 55.9974 49.4797 55.9974 49.6023C55.9974 49.6835 55.9767 49.7581 55.9352 49.8261C55.8955 49.894 55.8416 49.9487 55.7737 49.9901C55.7074 50.0299 55.6328 50.0498 55.5499 50.0498ZM57.0402 50.01V49.5626L58.7206 47.7231C58.9178 47.5076 59.0802 47.3204 59.2078 47.1613C59.3354 47.0005 59.4299 46.8497 59.4912 46.7089C59.5541 46.5664 59.5856 46.4172 59.5856 46.2614C59.5856 46.0825 59.5425 45.9275 59.4564 45.7966C59.3718 45.6657 59.2558 45.5646 59.1084 45.4933C58.9609 45.4221 58.7951 45.3864 58.6112 45.3864C58.4156 45.3864 58.245 45.427 58.0991 45.5082C57.9549 45.5878 57.8431 45.6996 57.7635 45.8438C57.6857 45.988 57.6467 46.157 57.6467 46.3509H57.0601C57.0601 46.0526 57.1288 45.7908 57.2664 45.5654C57.4039 45.34 57.5912 45.1644 57.8282 45.0384C58.0668 44.9125 58.3344 44.8495 58.6311 44.8495C58.9294 44.8495 59.1937 44.9125 59.4241 45.0384C59.6544 45.1644 59.835 45.3342 59.966 45.548C60.0969 45.7618 60.1623 45.9996 60.1623 46.2614C60.1623 46.4487 60.1284 46.6318 60.0604 46.8108C59.9941 46.9881 59.8781 47.1861 59.7124 47.4049C59.5483 47.622 59.3205 47.8871 59.0288 48.2004L57.8853 49.4234V49.4631H60.2518V50.01H57.0402ZM62.8694 50.0796C62.5777 50.0796 62.315 50.0216 62.0814 49.9056C61.8477 49.7896 61.6604 49.6305 61.5196 49.4283C61.3787 49.2262 61.3017 48.9958 61.2884 48.7373H61.885C61.9082 48.9676 62.0126 49.1582 62.1982 49.309C62.3855 49.4582 62.6092 49.5327 62.8694 49.5327C63.0782 49.5327 63.2638 49.4838 63.4262 49.3861C63.5902 49.2883 63.7187 49.1541 63.8115 48.9834C63.9059 48.811 63.9532 48.6163 63.9532 48.3992C63.9532 48.1771 63.9043 47.9791 63.8065 47.8051C63.7104 47.6294 63.5778 47.4911 63.4088 47.39C63.2397 47.2889 63.0467 47.2375 62.8296 47.2359C62.6738 47.2342 62.5139 47.2582 62.3498 47.308C62.1858 47.356 62.0507 47.4182 61.9446 47.4944L61.3679 47.4248L61.6762 44.9191H64.3211V45.466H62.1932L62.0142 46.9674H62.0441C62.1485 46.8845 62.2794 46.8158 62.4368 46.7611C62.5943 46.7064 62.7583 46.679 62.929 46.679C63.2406 46.679 63.5182 46.7536 63.7618 46.9028C64.007 47.0503 64.1993 47.2524 64.3385 47.5093C64.4793 47.7662 64.5498 48.0595 64.5498 48.3893C64.5498 48.7141 64.4768 49.0041 64.331 49.2593C64.1868 49.5129 63.988 49.7134 63.7344 49.8609C63.4809 50.0067 63.1925 50.0796 62.8694 50.0796Z" fill="#0000FF"/>
<path d="M28.9374 9.32666C28.8526 9.04376 28.7142 8.78426 28.526 8.55526C28.3379 8.32626 28.1101 8.14016 27.849 8.00206C27.5778 7.85866 27.2841 7.77436 26.9761 7.75166C26.4534 7.71306 25.9323 7.86166 25.5086 8.16986C25.2438 8.36246 25.0266 8.61056 24.8707 8.89376C24.8174 8.99056 24.6782 8.99126 24.6237 8.89496C24.4665 8.61716 24.2512 8.37326 23.9905 8.18226C23.5606 7.86726 23.031 7.71326 22.4991 7.74876C21.8521 7.79196 21.2534 8.11096 20.8567 8.62386C20.4599 9.13676 20.3016 9.79636 20.4223 10.4335L20.968 13.3137C20.9829 13.3922 20.93 13.4677 20.8511 13.48C20.4809 13.5378 20.1263 13.6559 19.7918 13.8332C19.3285 14.0787 18.9209 14.4354 18.613 14.8648C18.3051 15.2942 18.0979 15.7947 18.0139 16.3122C17.9243 16.8642 17.9711 17.4164 18.1529 17.9535L18.9212 20.223C19.6366 22.3364 21.6164 23.7563 23.8476 23.7563H24.2071C25.3419 23.7563 26.444 23.3466 27.3103 22.6027C28.1719 21.8629 28.7462 20.8398 28.9274 19.7221C28.9661 19.4841 28.9857 19.2412 28.9857 19.0003V18.6609C28.9857 17.9072 28.7496 17.1766 28.3148 16.5686C28.2738 16.5112 28.2561 16.4404 28.2646 16.3704L29.0137 10.2315C29.0511 9.92496 29.0254 9.62046 28.9373 9.32666H28.9374ZM27.5684 19.0003C27.5684 19.1654 27.555 19.3318 27.5284 19.4951C27.4006 20.2834 26.9953 21.0051 26.387 21.5274C25.7776 22.0507 25.0034 22.3389 24.2071 22.3389H23.8476C22.2244 22.3389 20.7841 21.3059 20.2636 19.7684L19.4953 17.4989C19.2859 16.8804 19.3841 16.2213 19.7647 15.6907C20.1453 15.1601 20.738 14.8558 21.391 14.8558H21.6836C21.9299 14.8558 22.1669 14.7522 22.3275 14.5654C22.4881 14.3786 22.5624 14.1155 22.515 13.8652L21.8148 10.1695C21.7689 9.92706 21.8267 9.68606 21.9777 9.49096C22.1287 9.29586 22.3474 9.17926 22.5935 9.16286C23.0068 9.13536 23.378 9.40726 23.4762 9.80966L24.311 13.2318C24.4236 13.6932 25.0797 13.6932 25.1922 13.2318L26.0358 9.77316C26.1288 9.39186 26.4805 9.13606 26.8718 9.16496C27.0921 9.18126 27.2907 9.28416 27.4309 9.45486C27.5711 9.62556 27.6336 9.84026 27.6068 10.0596L26.8876 15.9533C26.8766 16.0438 26.7842 16.1005 26.6985 16.0693L25.728 15.7164C25.3973 15.5961 25.0512 15.5419 24.6994 15.5552L23.3823 15.6053C23.0617 15.6175 22.7484 15.7136 22.4762 15.8834C22.204 16.0531 21.9797 16.2921 21.8277 16.5746C21.6286 16.9444 21.5616 17.3753 21.6388 17.7882C21.7159 18.2004 21.9338 18.5779 22.2524 18.8511C23.0846 19.5647 23.7619 19.9422 24.323 20.0051C24.4344 20.0176 24.5387 20.0727 24.6094 20.1564L24.9271 20.5326C25.0673 20.6986 25.2674 20.784 25.4689 20.784C25.6304 20.784 25.7928 20.7291 25.9258 20.6167C26.2248 20.3642 26.2625 19.9171 26.01 19.618L25.6923 19.2418C25.3858 18.8788 24.9556 18.6496 24.4809 18.5964C24.438 18.5916 24.2716 18.5593 23.9332 18.3467C23.7061 18.204 23.451 18.0117 23.175 17.775C23.0203 17.6424 22.9795 17.425 23.0757 17.2463C23.1473 17.1134 23.2854 17.0272 23.4363 17.0215L24.7533 16.9714C24.921 16.9651 25.0861 16.9909 25.2438 17.0482L27.3457 17.8125C27.3844 17.8266 27.4153 17.8566 27.4297 17.8952C27.5207 18.1379 27.5684 18.3969 27.5684 18.6605V18.9999V19.0003Z" fill="black"/>
<path d="M30.772 34.4705V31.6542C30.772 31.5759 30.7085 31.5125 30.6303 31.5125H30.4449C30.1422 31.5125 29.9565 31.3416 29.9565 31.0486C29.9565 30.7556 30.142 30.5896 30.4449 30.5896H30.6303C30.7086 30.5896 30.772 30.5261 30.772 30.4479V29.8849C30.772 29.4942 31.0064 29.25 31.3825 29.25C31.7586 29.25 31.9881 29.4941 31.9881 29.8849V30.4479C31.9881 30.5262 32.0516 30.5896 32.1298 30.5896H32.5497C32.8524 30.5896 33.0381 30.7604 33.0381 31.0486C33.0381 31.3368 32.8526 31.5125 32.5497 31.5125H32.1298C32.0515 31.5125 31.9881 31.576 31.9881 31.6542V34.2068C31.9881 34.5975 32.1248 34.7684 32.4765 34.7977L32.5644 34.8075C32.8867 34.8368 33.0528 34.9735 33.0528 35.2568C33.0528 35.6132 32.7403 35.8038 32.1836 35.8038H32.1348C31.2314 35.8038 30.7723 35.3545 30.7723 34.4706H30.7721L30.772 34.4705Z" fill="black"/>
<path d="M24.6235 33.9184V31.11C24.6235 30.7046 24.8726 30.4702 25.2291 30.4702C25.5856 30.4702 25.8396 30.7046 25.8396 31.1149V33.6742C25.8396 34.4166 26.201 34.8171 26.8848 34.8171C27.5686 34.8171 28.0228 34.3189 28.0228 33.5668V31.11C28.0228 30.7046 28.2768 30.4702 28.6333 30.4702C28.9898 30.4702 29.2389 30.7046 29.2389 31.1149V35.2323C29.2389 35.623 29.0045 35.8477 28.6577 35.8477C28.4229 35.8477 28.2382 35.7475 28.1413 35.5646C28.1354 35.5534 28.1298 35.5425 28.1245 35.532C28.0901 35.4637 28.0078 35.4349 27.9384 35.4671C27.6775 35.5884 27.0587 35.8427 26.4598 35.8427C25.3366 35.8428 24.6235 35.115 24.6235 33.9184Z" fill="black"/>
<path d="M20.2257 28.5869C18.17 28.5869 16.8809 29.9883 16.8809 32.2295C16.8809 34.4707 18.17 35.8672 20.2257 35.8672C22.2814 35.8672 23.5656 34.4707 23.5656 32.2295C23.5656 29.9883 22.2765 28.5869 20.2257 28.5869ZM20.2257 34.793C18.9659 34.793 18.17 33.7969 18.17 32.2295C18.17 30.6621 18.9659 29.6611 20.2257 29.6611C21.4855 29.6611 22.2814 30.6572 22.2814 32.2295C22.2814 33.8018 21.4806 34.793 20.2257 34.793Z" fill="black"/>
</svg>
