<svg width="68" height="54" viewBox="0 0 68 54" fill="none" xmlns="http://www.w3.org/2000/svg">
<rect x="1.8501" y="1.85" width="63.8" height="50.3" rx="3" stroke="#16215B" stroke-width="0.28"/>
<path d="M10.2042 37.0347C10.1252 27.0966 10.0222 17.1597 9.89746 7.22124C9.91747 6.51726 10.0715 5.80827 10.3435 5.15544C10.4795 4.83147 10.6445 4.52055 10.8396 4.22832C11.0316 3.93828 11.2546 3.66728 11.5041 3.42375C11.7511 3.18083 12.0251 2.96477 12.3169 2.77861C12.6079 2.59258 12.9179 2.43657 13.2402 2.30962C13.8842 2.05559 14.5822 1.92058 15.2713 1.91154C27.5883 1.83257 39.9073 1.83257 52.2242 1.91191C52.3903 1.91496 52.5573 1.92387 52.7235 1.9406C52.9716 1.9655 53.2176 2.00456 53.4604 2.05949C53.7035 2.11443 53.9435 2.18547 54.1755 2.27104C54.6665 2.4561 55.1345 2.71501 55.5504 3.0385C55.9694 3.36345 56.3354 3.75346 56.6357 4.18938C56.9377 4.62944 57.1727 5.11748 57.3333 5.62761C57.4952 6.14372 57.5822 6.68266 57.5987 7.22209C57.4707 17.1591 57.3677 27.0971 57.2917 37.035C57.2817 37.366 57.2338 37.696 57.1611 38.0201C57.0861 38.3471 56.9861 38.668 56.8557 38.9766C56.7247 39.2886 56.5627 39.5885 56.3759 39.8709C56.187 40.155 55.973 40.4229 55.7365 40.6684C55.4995 40.9144 55.2386 41.1384 54.9608 41.3365C54.6818 41.5345 54.3878 41.7074 54.0767 41.8533C53.4657 42.1413 52.7977 42.3254 52.1257 42.3811C46.0037 42.6772 39.8767 42.8241 33.7478 42.8244C27.6188 42.8244 21.4918 42.6763 15.3697 42.3809C14.6977 42.3259 14.0297 42.1479 13.4165 41.858C12.7975 41.566 12.2325 41.1609 11.7583 40.668C11.2863 40.179 10.9053 39.6031 10.6398 38.9756C10.3778 38.3606 10.2278 37.6967 10.2028 37.0336" stroke="#16215B" stroke-width="0.283" stroke-miterlimit="10"/>
<path d="M13.3384 4.39252C12.5554 4.39252 11.9204 5.02655 11.9204 5.80914V38.975C11.9204 39.7581 12.5554 40.3922 13.3387 40.3925H54.1567C54.9397 40.3925 55.5737 39.7576 55.5737 38.9755V5.80951C55.5737 5.02655 54.9398 4.39252 54.1568 4.39252" stroke="#00FFFF" stroke-width="0.28" stroke-miterlimit="10"/>
<path d="M11.0405 7.43842V7.31744C11.0415 7.2785 11.0424 7.23846 11.0435 7.19843L11.0495 7.08051C11.0525 7.04047 11.0555 7.00153 11.0594 6.96246C11.0635 6.92352 11.0675 6.88446 11.0715 6.84552L11.0854 6.73041C11.0915 6.69147 11.0975 6.6535 11.1045 6.61542C11.1105 6.57745 11.1174 6.53949 11.1245 6.50153L11.1475 6.38947C11.1564 6.35248 11.1655 6.31451 11.1734 6.27753C11.1824 6.24042 11.1925 6.20343 11.2035 6.16742C11.2124 6.13043 11.2234 6.09344 11.2345 6.05743C11.2465 6.02142 11.2565 5.98444 11.2695 5.94843C11.2814 5.91241 11.2935 5.87653 11.3065 5.84052C11.3195 5.80548 11.3335 5.76947 11.3465 5.73346C11.3735 5.66742 11.4015 5.60052 11.4315 5.53448C11.4604 5.46844 11.4924 5.40448 11.5255 5.34052C11.5585 5.27643 11.5935 5.21344 11.6295 5.15253C11.6665 5.09052 11.7055 5.02948 11.7445 4.96942C11.8244 4.84943 11.9115 4.73346 12.0034 4.6225C12.0955 4.51251 12.1925 4.40741 12.2955 4.30951C12.3985 4.20941 12.5065 4.11749 12.6205 4.02948C12.7355 3.94147 12.8555 3.85846 12.9785 3.78241C13.0405 3.74445 13.1024 3.70844 13.1665 3.67352C13.2295 3.63849 13.2935 3.60541 13.3585 3.57452C13.4234 3.54242 13.4895 3.51251 13.5555 3.48444C13.6235 3.45648 13.6905 3.4295 13.7585 3.40448C13.7775 3.39752 13.7944 3.39142 13.8135 3.38446L13.8695 3.36542C13.8875 3.35944 13.9064 3.35345 13.9255 3.34747L13.9815 3.32953C14.0005 3.32343 14.0195 3.31744 14.0385 3.31244C14.0565 3.30646 14.0764 3.30145 14.0945 3.29547C14.1145 3.29047 14.1325 3.28546 14.1525 3.27948C14.1705 3.27448 14.1905 3.27045 14.2085 3.26544C14.2285 3.25946 14.2485 3.25543 14.2664 3.25043C14.2865 3.24542 14.3055 3.24152 14.3255 3.23651C14.3435 3.23248 14.3634 3.22845 14.3825 3.22345C14.4025 3.21942 14.4214 3.21552 14.4415 3.21149L14.5005 3.19952C14.5195 3.1955 14.5405 3.19244 14.5594 3.18842L14.6185 3.17853C14.6385 3.1745 14.6584 3.17145 14.6785 3.16852C14.6985 3.16547 14.7175 3.16241 14.7384 3.15948C14.7575 3.15643 14.7785 3.15448 14.7984 3.15143C14.8185 3.1485 14.8385 3.14642 14.8585 3.14447C14.8784 3.14142 14.8995 3.13947 14.9194 3.13751C14.9395 3.13446 14.9595 3.13251 14.9805 3.13043C15.0005 3.12848 15.0215 3.12653 15.0424 3.12543C15.0625 3.12347 15.0835 3.1225 15.1035 3.12042C15.1245 3.11847 15.1445 3.11749 15.1655 3.11652C15.1864 3.11444 15.2075 3.11346 15.2274 3.11249C15.2485 3.11151 15.2695 3.11041 15.2905 3.10944C15.3105 3.10846 15.3325 3.10846 15.3524 3.10748C15.3745 3.10651 15.3945 3.10651 15.4165 3.10651C15.4364 3.10541 15.4585 3.10541 15.4795 3.10541C15.5806 3.10541 15.6826 3.10443 15.7856 3.10345C15.8866 3.10345 15.9886 3.10248 16.0905 3.1015C16.1926 3.10052 16.2935 3.10052 16.3965 3.09943C16.4975 3.09845 16.5995 3.09845 16.7025 3.09747C16.8035 3.0965 16.9066 3.0965 17.0076 3.09552C17.1095 3.09442 17.2115 3.09442 17.3136 3.09344C17.4155 3.09344 17.5175 3.09247 17.6205 3.09149C17.7216 3.09149 17.8246 3.09052 17.9256 3.08942C18.0285 3.08942 18.1295 3.08844 18.2325 3.08844C18.3336 3.08746 18.4366 3.08649 18.5376 3.08649C18.6405 3.08551 18.7426 3.08551 18.8445 3.08441C18.9465 3.08441 19.0486 3.08344 19.1505 3.08344C19.2525 3.08246 19.3555 3.08246 19.4565 3.08148C19.5596 3.08148 19.6615 3.08051 19.7635 3.08051C19.8665 3.07953 19.9675 3.07953 20.0706 3.07843C20.1725 3.07745 20.2746 3.07745 20.3766 3.07648C20.4785 3.07648 20.5806 3.0755 20.6835 3.0755C20.7856 3.07452 20.8875 3.07452 20.9906 3.07343C21.0916 3.07343 21.1945 3.07245 21.2966 3.07245C21.3996 3.07147 21.5005 3.07147 21.6035 3.07147C21.7056 3.0705 21.8076 3.0705 21.9106 3.06952C22.0125 3.06952 22.1156 3.06842 22.2166 3.06842L22.5246 3.06647C22.6266 3.06647 22.7285 3.06647 22.8306 3.06549C22.9335 3.06549 23.0365 3.06451 23.1375 3.06451C23.2406 3.06451 23.3425 3.06342 23.4456 3.06342C23.5475 3.06342 23.6505 3.06244 23.7516 3.06244L24.0596 3.06146C24.1626 3.06146 24.2645 3.06049 24.3665 3.06049C24.4686 3.05951 24.5715 3.05951 24.6735 3.05951C24.7765 3.05841 24.8786 3.05841 24.9816 3.05841C25.0825 3.05743 25.1855 3.05743 25.2876 3.05743C25.3905 3.05646 25.4935 3.05646 25.5955 3.05646C25.6985 3.05548 25.8006 3.05548 25.9035 3.05548C26.0055 3.05548 26.1085 3.0545 26.2095 3.0545C26.3125 3.0545 26.4145 3.05353 26.5175 3.05353C26.6205 3.05353 26.7225 3.05353 26.8255 3.05243C26.9275 3.05243 27.0305 3.05243 27.1326 3.05243C27.2355 3.05145 27.3375 3.05145 27.4405 3.05145C27.5425 3.05145 27.6456 3.05048 27.7475 3.05048C27.8505 3.05048 27.9535 3.05048 28.0555 3.0495C28.1586 3.0495 28.2605 3.0495 28.3635 3.0495C28.4655 3.0495 28.5685 3.04852 28.6705 3.04852C28.7735 3.04852 28.8755 3.04852 28.9785 3.04852C29.0806 3.04742 29.1835 3.04742 29.2865 3.04742C29.3885 3.04742 29.4915 3.04742 29.5936 3.04742C29.6965 3.04645 29.7985 3.04645 29.9015 3.04645C30.0036 3.04645 30.1066 3.04645 30.2085 3.04645C30.3115 3.04645 30.4135 3.04547 30.5166 3.04547C30.6196 3.04547 30.7215 3.04547 30.8245 3.04547H31.1315C31.2345 3.04547 31.3365 3.04449 31.4395 3.04449H31.7465C31.8495 3.04449 31.9525 3.04449 32.0555 3.04449H32.3635H32.6705C32.7735 3.04352 32.8755 3.04352 32.9785 3.04352H33.2865H33.5936H33.9025H34.2095H34.5175C34.6205 3.04352 34.7225 3.04352 34.8255 3.04449H35.1326H35.4405C35.5425 3.04449 35.6456 3.04449 35.7475 3.04449H36.0565C36.1595 3.04449 36.2616 3.04547 36.3645 3.04547H36.6716C36.7746 3.04547 36.8765 3.04547 36.9795 3.04547C37.0815 3.04547 37.1846 3.04645 37.2876 3.04645C37.3895 3.04645 37.4925 3.04645 37.5945 3.04645C37.6976 3.04645 37.7995 3.04645 37.9025 3.04742C38.0045 3.04742 38.1075 3.04742 38.2095 3.04742C38.3125 3.04742 38.4145 3.04742 38.5175 3.04852C38.6205 3.04852 38.7225 3.04852 38.8255 3.04852C38.9275 3.04852 39.0305 3.0495 39.1326 3.0495C39.2355 3.0495 39.3375 3.0495 39.4405 3.0495C39.5425 3.05048 39.6456 3.05048 39.7475 3.05048C39.8505 3.05048 39.9535 3.05145 40.0555 3.05145C40.1586 3.05145 40.2605 3.05145 40.3635 3.05243C40.4655 3.05243 40.5685 3.05243 40.6705 3.05243C40.7735 3.05353 40.8755 3.05353 40.9785 3.05353C41.0806 3.05353 41.1825 3.0545 41.2855 3.0545C41.3875 3.0545 41.4906 3.05548 41.5925 3.05548C41.6955 3.05548 41.7975 3.05548 41.9005 3.05646C42.0025 3.05646 42.1055 3.05646 42.2075 3.05743C42.3096 3.05743 42.4126 3.05743 42.5145 3.05841C42.6175 3.05841 42.7195 3.05841 42.8226 3.05951C42.9245 3.05951 43.0275 3.05951 43.1286 3.06049C43.2316 3.06049 43.3335 3.06146 43.4365 3.06146L43.7446 3.06244C43.8455 3.06244 43.9485 3.06342 44.0506 3.06342C44.1535 3.06342 44.2555 3.06451 44.3575 3.06451L44.6645 3.06549C44.7675 3.06647 44.8696 3.06647 44.9715 3.06647C45.0745 3.06744 45.1765 3.06744 45.2785 3.06842L45.5855 3.06952C45.6875 3.0705 45.7895 3.0705 45.8925 3.07147C45.9955 3.07147 46.0965 3.07147 46.1995 3.07245C46.3015 3.07245 46.4035 3.07343 46.5055 3.07343C46.6085 3.07452 46.7095 3.07452 46.8125 3.0755C46.9145 3.0755 47.0166 3.07648 47.1196 3.07648C47.2215 3.07745 47.3235 3.07745 47.4256 3.07843C47.5285 3.07953 47.6295 3.07953 47.7325 3.08051C47.8335 3.08051 47.9365 3.08148 48.0385 3.08148C48.1405 3.08246 48.2435 3.08246 48.3445 3.08344C48.4476 3.08344 48.5495 3.08441 48.6515 3.08441C48.7536 3.08551 48.8555 3.08551 48.9575 3.08649C49.0596 3.08649 49.1626 3.08746 49.2635 3.08844C49.3665 3.08844 49.4675 3.08942 49.5705 3.08942C49.6716 3.09052 49.7746 3.09149 49.8755 3.09149C49.9785 3.09247 50.0795 3.09344 50.1825 3.09344C50.2845 3.09442 50.3855 3.09442 50.4885 3.09552C50.5896 3.0965 50.6926 3.0965 50.7935 3.09747C50.8956 3.09845 50.9975 3.09845 51.0995 3.09943C51.2025 3.10052 51.3035 3.10052 51.4055 3.1015C51.5076 3.10248 51.6095 3.10345 51.7105 3.10345C51.8136 3.10443 51.9145 3.10541 52.0166 3.10541C52.058 3.10553 52.099 3.10651 52.139 3.10748C52.18 3.10846 52.22 3.11053 52.26 3.11249C52.3 3.11444 52.34 3.11652 52.38 3.11945C52.42 3.1225 52.46 3.12543 52.499 3.12946C52.5379 3.13251 52.578 3.13751 52.617 3.14142C52.656 3.14642 52.695 3.15045 52.733 3.15643C52.772 3.16144 52.811 3.16742 52.85 3.17352C52.888 3.18048 52.9259 3.18646 52.964 3.19342C53.002 3.2005 53.04 3.20843 53.078 3.21649C53.115 3.22443 53.153 3.23248 53.19 3.24152C53.227 3.25043 53.265 3.25946 53.302 3.26947C53.339 3.2785 53.376 3.28851 53.412 3.29852C53.449 3.30951 53.485 3.3205 53.521 3.33148C53.558 3.34247 53.5939 3.35553 53.63 3.36652C53.666 3.37848 53.702 3.39142 53.737 3.40448C53.806 3.4295 53.873 3.45648 53.9389 3.48444C54.007 3.51251 54.072 3.54242 54.138 3.57452C54.202 3.60553 54.267 3.63849 54.33 3.67352C54.393 3.70844 54.455 3.74445 54.517 3.78253C54.641 3.85846 54.761 3.94049 54.876 4.02948C54.989 4.11652 55.097 4.20953 55.2 4.30853C55.303 4.40753 55.3999 4.51251 55.492 4.6225C55.585 4.73346 55.671 4.84943 55.751 4.96942C55.791 5.02948 55.829 5.09052 55.866 5.15253C55.902 5.21344 55.937 5.27643 55.971 5.34052C56.004 5.40448 56.035 5.46844 56.0639 5.53448C56.095 5.60052 56.123 5.66644 56.149 5.73346C56.156 5.7525 56.1629 5.77045 56.17 5.78949C56.177 5.80743 56.184 5.82648 56.19 5.84442C56.197 5.86249 56.204 5.88153 56.21 5.89948C56.217 5.91852 56.223 5.93744 56.229 5.95648C56.235 5.97443 56.241 5.99347 56.247 6.01251C56.253 6.03046 56.259 6.0495 56.265 6.06842C56.27 6.08746 56.276 6.10651 56.281 6.12543C56.287 6.14447 56.292 6.16351 56.297 6.18243C56.303 6.20148 56.308 6.22052 56.312 6.23944C56.317 6.25848 56.322 6.27753 56.327 6.29645C56.331 6.31549 56.336 6.33551 56.341 6.35443C56.345 6.37445 56.349 6.39349 56.353 6.41254C56.3569 6.43243 56.361 6.45148 56.365 6.47052L56.377 6.52948C56.38 6.54852 56.384 6.56842 56.388 6.58746C56.391 6.60748 56.394 6.6275 56.397 6.64642C56.3999 6.66742 56.403 6.68646 56.406 6.70648C56.409 6.7265 56.412 6.74652 56.414 6.76642C56.417 6.78644 56.42 6.80548 56.422 6.8255C56.425 6.84552 56.427 6.86542 56.429 6.88544C56.431 6.90643 56.433 6.92645 56.435 6.94647C56.436 6.96649 56.438 6.98651 56.44 7.00653C56.442 7.02753 56.443 7.04742 56.445 7.06744C56.446 7.08746 56.447 7.10846 56.448 7.12848C56.45 7.14948 56.451 7.16949 56.452 7.19049C56.452 7.21051 56.453 7.23151 56.454 7.25153C56.455 7.27252 56.455 7.29352 56.456 7.31342V7.37653V7.43842C56.4541 7.94391 56.451 8.44891 56.448 8.9549C56.4321 12.1459 56.4161 15.338 56.401 18.53C56.395 19.6939 56.391 20.858 56.3861 22.0229C56.365 26.8769 56.3471 31.732 56.3301 36.5859C56.3299 36.6252 56.329 36.6641 56.328 36.7032C56.327 36.7432 56.3259 36.7822 56.324 36.8212C56.3219 36.8602 56.319 36.8992 56.316 36.9372C56.3129 36.9761 56.31 37.0142 56.307 37.0532C56.303 37.0922 56.299 37.1302 56.294 37.1682C56.29 37.2061 56.284 37.2442 56.2789 37.2831C56.273 37.3212 56.268 37.3582 56.2609 37.3962C56.255 37.4341 56.248 37.4722 56.2399 37.5092C56.233 37.5472 56.226 37.5842 56.217 37.6212C56.209 37.6591 56.2 37.6962 56.191 37.7332C56.182 37.7702 56.173 37.8072 56.1619 37.8442C56.152 37.8802 56.142 37.9172 56.131 37.9532C56.1199 37.9902 56.108 38.0272 56.097 38.0632C56.0849 38.0992 56.0719 38.1362 56.06 38.1722C56.047 38.2082 56.034 38.2432 56.0199 38.2802C55.9679 38.4172 55.909 38.5541 55.8439 38.6862C55.7789 38.8172 55.709 38.9442 55.6329 39.0682C55.557 39.1912 55.475 39.3101 55.3869 39.4262C55.299 39.5412 55.2049 39.6522 55.105 39.7581C55.0069 39.8652 54.901 39.9661 54.7919 40.0632C54.682 40.1591 54.5669 40.2512 54.448 40.3372C54.389 40.3792 54.328 40.4212 54.267 40.4601C54.2049 40.5002 54.143 40.5381 54.0799 40.5751C54.017 40.6111 53.953 40.6462 53.889 40.6791C53.823 40.7122 53.7579 40.7442 53.691 40.7742C53.674 40.7822 53.657 40.7891 53.64 40.7972C53.623 40.8051 53.605 40.8122 53.588 40.8192C53.57 40.8262 53.554 40.8342 53.536 40.8411C53.519 40.8482 53.501 40.8552 53.483 40.8621C53.467 40.8692 53.449 40.8762 53.432 40.8821C53.414 40.8892 53.396 40.8952 53.379 40.9022L53.3259 40.9212C53.3089 40.9272 53.291 40.9332 53.272 40.9391C53.255 40.9462 53.237 40.9512 53.22 40.9572C53.202 40.9632 53.185 40.9692 53.166 40.9742C53.148 40.9802 53.131 40.9852 53.112 40.9911C53.095 40.9962 53.077 41.0012 53.0589 41.0062C53.041 41.0121 53.022 41.0162 53.005 41.0212C52.9859 41.0262 52.9689 41.0312 52.95 41.0352C52.933 41.0402 52.914 41.0452 52.896 41.0502C52.8779 41.0541 52.859 41.0582 52.842 41.0622C52.823 41.0672 52.8049 41.0712 52.7869 41.0751L52.7309 41.0872C52.713 41.0911 52.695 41.0942 52.677 41.0982L52.621 41.1082C52.6019 41.1121 52.584 41.1152 52.565 41.1182C52.547 41.1212 52.528 41.1242 52.51 41.1271C52.491 41.1302 52.4729 41.1331 52.453 41.1362C52.435 41.1381 52.416 41.1412 52.397 41.1431C52.379 41.1462 52.359 41.1481 52.341 41.1512C52.3219 41.1531 52.303 41.1552 52.284 41.1572C52.2659 41.1591 52.246 41.1612 52.2269 41.1631C52.208 41.1652 52.1889 41.1672 52.17 41.1682C52.151 41.1702 52.1319 41.1712 52.113 41.1732C52.0939 41.1741 52.075 41.1762 52.056 41.1772C52.036 41.1782 52.018 41.1791 51.998 41.1801C51.896 41.1851 51.795 41.1901 51.692 41.1951L51.388 41.2101C51.285 41.2151 51.1839 41.2202 51.082 41.2242C50.98 41.2292 50.8779 41.2342 50.776 41.2392C50.6749 41.2432 50.5719 41.2482 50.471 41.2532C50.3689 41.2581 50.267 41.2621 50.165 41.2662C50.0629 41.2712 49.961 41.2762 49.859 41.2802C49.7579 41.2841 49.655 41.2891 49.554 41.2932C49.452 41.2982 49.35 41.3022 49.248 41.3062C49.1449 41.3112 49.044 41.3151 48.942 41.3192C48.84 41.3242 48.738 41.3282 48.636 41.3322C48.534 41.3361 48.432 41.3401 48.33 41.3442C48.2269 41.3482 48.126 41.3522 48.024 41.3561C47.922 41.3602 47.82 41.3642 47.718 41.3682C47.616 41.3721 47.514 41.3762 47.411 41.3802C47.31 41.3831 47.207 41.3871 47.105 41.3912C47.0029 41.3942 46.901 41.3981 46.799 41.4022C46.6969 41.4062 46.595 41.4091 46.493 41.4122C46.3909 41.4162 46.2879 41.4202 46.186 41.4232C46.084 41.4272 45.9819 41.4301 45.88 41.4332C45.777 41.4372 45.6759 41.4401 45.573 41.4432C45.471 41.4472 45.3689 41.4501 45.267 41.4532C45.165 41.4561 45.062 41.4592 44.9599 41.4622C44.858 41.4661 44.756 41.4692 44.653 41.4722C44.552 41.4752 44.449 41.4782 44.347 41.4811C44.2439 41.4842 44.143 41.4871 44.04 41.4892C43.937 41.4921 43.836 41.4952 43.733 41.4982C43.631 41.5002 43.528 41.5032 43.427 41.5062C43.324 41.5092 43.222 41.5112 43.1199 41.5142C43.018 41.5162 42.915 41.5192 42.812 41.5222C42.7099 41.5242 42.608 41.5272 42.506 41.5292C42.403 41.5322 42.3009 41.5341 42.199 41.5362L41.892 41.5432C41.789 41.5452 41.687 41.5482 41.5849 41.5502C41.4819 41.5522 41.38 41.5541 41.277 41.5562C41.1759 41.5582 41.073 41.5601 40.971 41.5622L40.6629 41.5682C40.561 41.5701 40.459 41.5722 40.3559 41.5742C40.254 41.5762 40.151 41.5772 40.049 41.5792C39.946 41.5811 39.845 41.5832 39.742 41.5842C39.64 41.5861 39.5369 41.5882 39.435 41.5892C39.332 41.5911 39.229 41.5922 39.1279 41.5942L38.82 41.5982L38.513 41.6022C38.41 41.6032 38.308 41.6052 38.205 41.6061C38.103 41.6071 38.001 41.6092 37.898 41.6102C37.7959 41.6111 37.6929 41.6121 37.591 41.6132L37.2829 41.6161C37.181 41.6171 37.078 41.6182 36.9769 41.6192C36.8739 41.6202 36.771 41.6202 36.669 41.6212C36.566 41.6221 36.4639 41.6232 36.3609 41.6242C36.259 41.6242 36.156 41.6252 36.054 41.6262C35.9509 41.6262 35.849 41.6271 35.746 41.6282C35.643 41.6282 35.541 41.6292 35.4389 41.6292C35.337 41.6302 35.234 41.6302 35.1319 41.6302L34.824 41.6321C34.722 41.6321 34.6189 41.6321 34.517 41.6321C34.414 41.6331 34.311 41.6331 34.209 41.6331C34.1059 41.6331 34.004 41.6331 33.901 41.6331H33.595C33.492 41.6331 33.39 41.6331 33.2869 41.6331C33.185 41.6331 33.082 41.6331 32.979 41.6321C32.877 41.6321 32.7739 41.6321 32.672 41.6321L32.364 41.6302C32.2619 41.6302 32.159 41.6302 32.057 41.6292C31.954 41.6292 31.8519 41.6282 31.75 41.6282C31.647 41.6271 31.545 41.6262 31.442 41.6262C31.34 41.6252 31.237 41.6242 31.135 41.6242C31.032 41.6232 30.9299 41.6221 30.827 41.6212C30.725 41.6202 30.622 41.6202 30.519 41.6192C30.4169 41.6182 30.315 41.6171 30.213 41.6161L29.905 41.6132C29.803 41.6121 29.7 41.6111 29.5979 41.6102C29.4949 41.6092 29.393 41.6071 29.29 41.6061C29.187 41.6052 29.086 41.6032 28.983 41.6022L28.6759 41.5982L28.368 41.5942C28.2659 41.5922 28.164 41.5911 28.061 41.5892C27.959 41.5882 27.8559 41.5861 27.754 41.5842C27.651 41.5832 27.549 41.5811 27.4469 41.5792C27.345 41.5772 27.242 41.5762 27.14 41.5742L26.832 41.5682C26.73 41.5662 26.6279 41.5641 26.5249 41.5622C26.423 41.5601 26.32 41.5582 26.2179 41.5562C26.116 41.5541 26.014 41.5522 25.911 41.5502C25.8089 41.5482 25.7059 41.5452 25.604 41.5432L25.297 41.5362C25.194 41.5341 25.0929 41.5322 24.9899 41.5292C24.888 41.5272 24.785 41.5242 24.6839 41.5222C24.581 41.5192 24.478 41.5162 24.376 41.5142C24.274 41.5112 24.172 41.5092 24.069 41.5062C23.967 41.5032 23.865 41.5002 23.763 41.4982C23.66 41.4952 23.559 41.4921 23.456 41.4892C23.353 41.4871 23.251 41.4842 23.149 41.4811C23.047 41.4782 22.944 41.4752 22.843 41.4722C22.74 41.4692 22.638 41.4661 22.536 41.4622C22.434 41.4592 22.331 41.4561 22.229 41.4532C22.127 41.4501 22.024 41.4472 21.923 41.4432C21.82 41.4401 21.719 41.4372 21.616 41.4332C21.514 41.4301 21.412 41.4272 21.31 41.4232C21.208 41.4202 21.105 41.4162 21.003 41.4122C20.901 41.4091 20.799 41.4062 20.697 41.4022C20.595 41.3981 20.493 41.3942 20.391 41.3912C20.288 41.3871 20.186 41.3831 20.084 41.3802C19.982 41.3762 19.88 41.3721 19.778 41.3682C19.676 41.3642 19.574 41.3602 19.472 41.3561C19.37 41.3522 19.268 41.3482 19.166 41.3442C19.063 41.3401 18.962 41.3361 18.86 41.3322C18.758 41.3282 18.656 41.3242 18.554 41.3192C18.452 41.3151 18.35 41.3112 18.248 41.3062C18.146 41.3022 18.044 41.2982 17.942 41.2932C17.84 41.2891 17.738 41.2841 17.637 41.2802C17.534 41.2762 17.433 41.2712 17.331 41.2662C17.228 41.2621 17.127 41.2581 17.025 41.2532C16.923 41.2482 16.821 41.2432 16.72 41.2392C16.618 41.2342 16.516 41.2292 16.414 41.2242C16.312 41.2202 16.211 41.2151 16.108 41.2101L15.804 41.1951C15.701 41.1901 15.6 41.1851 15.498 41.18C15.312 41.171 15.127 41.1509 14.944 41.1209C14.466 41.04 13.993 40.883 13.563 40.6559C13.132 40.4289 12.732 40.124 12.398 39.7669C12.26 39.618 12.129 39.4589 12.012 39.2919C11.724 38.883 11.503 38.421 11.363 37.9449C11.232 37.5049 11.167 37.0429 11.1661 36.5855C11.149 31.7294 11.1311 26.8735 11.1101 22.0164C11.1051 20.8515 11.1011 19.6855 11.0951 18.5204C11.08 15.3305 11.0641 12.1404 11.048 8.9505C11.0451 8.44647 11.0421 7.94244 11.0391 7.43842" stroke="#FF00FF" stroke-width="0.283465" stroke-miterlimit="10" stroke-linecap="round" stroke-linejoin="round"/>
<path d="M53.4491 44.9191V50.01H52.8326V45.5654H52.8028L51.5599 46.3907V45.7643L52.8326 44.9191H53.4491ZM55.0499 50.0498C54.9273 50.0498 54.8221 50.0059 54.7342 49.918C54.6464 49.8302 54.6025 49.725 54.6025 49.6023C54.6025 49.4797 54.6464 49.3745 54.7342 49.2866C54.8221 49.1988 54.9273 49.1549 55.0499 49.1549C55.1726 49.1549 55.2778 49.1988 55.3656 49.2866C55.4535 49.3745 55.4974 49.4797 55.4974 49.6023C55.4974 49.6835 55.4767 49.7581 55.4352 49.8261C55.3955 49.894 55.3416 49.9487 55.2737 49.9901C55.2074 50.0299 55.1328 50.0498 55.0499 50.0498ZM56.5402 50.01V49.5626L58.2206 47.7231C58.4178 47.5076 58.5802 47.3204 58.7078 47.1613C58.8354 47.0005 58.9299 46.8497 58.9912 46.7089C59.0541 46.5664 59.0856 46.4172 59.0856 46.2614C59.0856 46.0825 59.0425 45.9275 58.9564 45.7966C58.8718 45.6657 58.7558 45.5646 58.6084 45.4933C58.4609 45.4221 58.2951 45.3864 58.1112 45.3864C57.9156 45.3864 57.745 45.427 57.5991 45.5082C57.4549 45.5878 57.3431 45.6996 57.2635 45.8438C57.1857 45.988 57.1467 46.157 57.1467 46.3509H56.5601C56.5601 46.0526 56.6288 45.7908 56.7664 45.5654C56.9039 45.34 57.0912 45.1644 57.3282 45.0384C57.5668 44.9125 57.8344 44.8495 58.1311 44.8495C58.4294 44.8495 58.6937 44.9125 58.9241 45.0384C59.1544 45.1644 59.335 45.3342 59.466 45.548C59.5969 45.7618 59.6623 45.9996 59.6623 46.2614C59.6623 46.4487 59.6284 46.6318 59.5604 46.8108C59.4941 46.9881 59.3781 47.1861 59.2124 47.4049C59.0483 47.622 58.8205 47.8871 58.5288 48.2004L57.3853 49.4234V49.4631H59.7518V50.01H56.5402ZM62.3694 50.0796C62.0777 50.0796 61.815 50.0216 61.5814 49.9056C61.3477 49.7896 61.1604 49.6305 61.0196 49.4283C60.8787 49.2262 60.8017 48.9958 60.7884 48.7373H61.385C61.4082 48.9676 61.5126 49.1582 61.6982 49.309C61.8855 49.4582 62.1092 49.5327 62.3694 49.5327C62.5782 49.5327 62.7638 49.4838 62.9262 49.3861C63.0902 49.2883 63.2187 49.1541 63.3115 48.9834C63.4059 48.811 63.4532 48.6163 63.4532 48.3992C63.4532 48.1771 63.4043 47.9791 63.3065 47.8051C63.2104 47.6294 63.0778 47.4911 62.9088 47.39C62.7397 47.2889 62.5467 47.2375 62.3296 47.2359C62.1738 47.2342 62.0139 47.2582 61.8498 47.308C61.6858 47.356 61.5507 47.4182 61.4446 47.4944L60.8679 47.4248L61.1762 44.9191H63.8211V45.466H61.6932L61.5142 46.9674H61.5441C61.6485 46.8845 61.7794 46.8158 61.9368 46.7611C62.0943 46.7064 62.2583 46.679 62.429 46.679C62.7406 46.679 63.0182 46.7536 63.2618 46.9028C63.507 47.0503 63.6993 47.2524 63.8385 47.5093C63.9793 47.7662 64.0498 48.0595 64.0498 48.3893C64.0498 48.7141 63.9768 49.0041 63.831 49.2593C63.6868 49.5129 63.488 49.7134 63.2344 49.8609C62.9809 50.0067 62.6925 50.0796 62.3694 50.0796Z" fill="#0000FF"/>
<path fill-rule="evenodd" clip-rule="evenodd" d="M21.9845 8.53145C21.9289 8.50815 21.8729 8.49745 21.8187 8.49745L21.8189 8.49725C21.5522 8.49725 21.33 8.75645 21.4136 9.04155L21.4169 9.05275C21.5536 9.52327 21.2318 9.89122 21.0564 10.0917L21.0564 10.0917C21.0383 10.1124 21.0217 10.1314 21.0074 10.1484C20.5666 10.6738 20.4035 11.1314 20.6342 11.622C20.6963 11.7543 20.6276 11.9117 20.4879 11.9548C19.8296 12.1581 19.3608 12.497 19.0485 13.0037C18.6425 13.6624 18.5895 14.3112 18.8424 15.0049C18.8912 15.1387 18.8158 15.2858 18.6782 15.3223C18.0052 15.5009 17.5183 15.8541 17.2887 16.4568C17.0261 17.1458 17.0752 17.7443 17.3798 18.2758C17.4563 18.4092 17.3887 18.5789 17.2421 18.6252C15.9041 19.0475 15.285 19.8935 15.4405 21.138C15.5664 22.1454 16.2448 22.7393 17.371 22.7393C17.5402 22.7393 17.7193 22.7259 17.9084 22.6985C18.6576 22.5899 19.3506 22.5482 20.0033 22.5482C21.1142 22.5482 22.1101 22.6689 23.0754 22.7859H23.0754H23.0754C23.9833 22.8959 24.8642 23.0026 25.7883 23.0026C26.6139 23.0026 27.4737 22.9174 28.4182 22.6732C29.6063 22.366 30.6157 21.7472 30.5823 20.7657C30.538 19.4621 29.7803 18.8058 28.8014 18.599C28.6501 18.5671 28.5676 18.403 28.6319 18.2624C28.8673 17.7474 28.9795 17.1983 28.7212 16.5008C28.5267 15.9754 28.0566 15.5694 27.3029 15.3156C27.1732 15.2719 27.1057 15.1286 27.1551 15.0008C27.331 14.5454 27.3747 14.0432 27.0169 13.579C26.6355 13.0844 26.1006 12.8632 25.5382 12.8273C25.3845 12.8175 25.2787 12.6699 25.3201 12.5215C25.5036 11.8649 25.3823 11.1791 24.7038 10.5135C23.4943 9.32705 22.5812 8.78165 21.9845 8.53145ZM20.9764 7.28525C21.2362 7.15095 21.5275 7.07995 21.8189 7.07995H21.819C22.0644 7.07995 22.3046 7.12855 22.5329 7.22425C23.5089 7.63345 24.5734 8.39975 25.6967 9.50165C26.2006 9.99605 26.539 10.5494 26.7025 11.1464C26.7508 11.3229 26.7836 11.5015 26.8008 11.6819C26.8553 11.7048 26.9092 11.7291 26.9624 11.7548C27.4257 11.9787 27.8218 12.3012 28.1397 12.7136C28.3148 12.9408 28.4516 13.188 28.5463 13.4482C28.6365 13.6962 28.6889 13.957 28.702 14.2236C28.705 14.2859 28.7059 14.3485 28.7047 14.4115C29.4901 14.8978 29.8685 15.5171 30.0505 16.0087C30.2437 16.5305 30.3188 17.0569 30.2738 17.5732C30.2715 17.5999 30.2689 17.6265 30.2659 17.6532C30.5807 17.8351 30.8596 18.0601 31.0964 18.3234C31.3787 18.6374 31.599 19.0033 31.7511 19.4109C31.8996 19.809 31.9831 20.2487 31.999 20.7176C32.0074 20.965 31.9829 21.2105 31.9261 21.4474C31.8713 21.6759 31.7859 21.8983 31.6725 22.1083C31.4768 22.4706 31.1972 22.7979 30.8413 23.0812C30.311 23.5034 29.6152 23.8278 28.7732 24.0455C27.7985 24.2975 26.7981 24.42 25.7885 24.42C24.7789 24.42 23.8263 24.3046 22.9052 24.193C21.9828 24.0812 21.0289 23.9656 20.0035 23.9656C19.3604 23.9656 18.7417 24.01 18.112 24.1013C17.8582 24.1381 17.6089 24.1568 17.3712 24.1568C16.947 24.1568 16.5467 24.0978 16.1815 23.9813C15.7822 23.8539 15.4245 23.6587 15.1183 23.4011C14.5165 22.8947 14.1417 22.173 14.0343 21.3139C13.9757 20.8449 13.9923 20.3951 14.0838 19.977C14.1822 19.527 14.3665 19.1125 14.6315 18.7447C14.9138 18.3531 15.2813 18.0216 15.7302 17.7528C15.7194 17.6716 15.7116 17.5898 15.7068 17.5075C15.6774 17.0012 15.7641 16.4779 15.9644 15.9523C16.1563 15.4488 16.534 14.8332 17.2773 14.3837C17.2672 14.2058 17.2708 14.0288 17.2879 13.8534C17.3414 13.306 17.5278 12.77 17.842 12.2602C18.0944 11.8507 18.4184 11.5005 18.8049 11.2194C18.9045 11.147 19.0089 11.0787 19.118 11.0147C19.1293 10.849 19.1578 10.6833 19.2034 10.5192C19.3223 10.0912 19.5572 9.67195 19.9218 9.23745C19.9454 9.20925 19.9679 9.18355 19.9897 9.15865L19.9937 9.15405C19.9688 8.95965 19.9747 8.76195 20.0119 8.57055C20.0643 8.30055 20.1795 8.04095 20.345 7.81995C20.5115 7.59765 20.7298 7.41275 20.9764 7.28525ZM25.1641 19.771H20.8363C20.4127 19.771 20.2198 20.3005 20.5448 20.5721C21.0588 21.0017 21.8639 21.4438 23.0002 21.4438C24.1365 21.4438 24.9415 21.0017 25.4556 20.5721C25.7806 20.3005 25.5876 19.771 25.1641 19.771ZM21.0253 15.5563C21.3384 15.5563 21.5922 16.0639 21.5922 16.6902C21.5922 17.3165 21.3384 17.8241 21.0253 17.8241C20.7122 17.8241 20.4584 17.3165 20.4584 16.6902C20.4584 16.0639 20.7122 15.5563 21.0253 15.5563ZM21.0253 14.6492C20.7325 14.6492 20.4536 14.7542 20.2188 14.9529C20.0569 15.0898 19.9204 15.2681 19.8131 15.4828C19.6418 15.8254 19.5513 16.2429 19.5513 16.6902C19.5513 17.1375 19.6418 17.5551 19.8131 17.8976C19.9204 18.1123 20.0569 18.2905 20.2188 18.4275C20.4536 18.6262 20.7325 18.7312 21.0253 18.7312C21.3181 18.7312 21.597 18.6262 21.8318 18.4275C21.9937 18.2906 22.1302 18.1123 22.2375 17.8976C22.4088 17.555 22.4993 17.1375 22.4993 16.6902C22.4993 16.2429 22.4088 15.8253 22.2375 15.4828C22.1302 15.2681 21.9937 15.0899 21.8318 14.9529C21.597 14.7542 21.3181 14.6492 21.0253 14.6492ZM25.5419 16.7072C25.5419 16.0809 25.2881 15.5733 24.975 15.5733C24.6619 15.5733 24.4081 16.0809 24.4081 16.7072C24.4081 17.3335 24.6619 17.8411 24.975 17.8411C25.2881 17.8411 25.5419 17.3335 25.5419 16.7072ZM24.1685 14.9699C24.4033 14.7712 24.6822 14.6662 24.975 14.6662C25.2678 14.6662 25.5467 14.7712 25.7815 14.9699C25.9434 15.1069 26.0799 15.2851 26.1872 15.4998C26.3585 15.8423 26.449 16.2599 26.449 16.7072C26.449 17.1545 26.3585 17.572 26.1872 17.9146C26.0799 18.1293 25.9434 18.3076 25.7815 18.4445C25.5467 18.6432 25.2678 18.7482 24.975 18.7482C24.6822 18.7482 24.4033 18.6432 24.1685 18.4445C24.0066 18.3075 23.8701 18.1293 23.7628 17.9146C23.5915 17.5721 23.501 17.1545 23.501 16.7072C23.501 16.2599 23.5915 15.8424 23.7628 15.4998C23.8701 15.2851 24.0066 15.1068 24.1685 14.9699Z" fill="black"/>
<path d="M33.3846 35.2224L32.2612 31.3542C32.2221 31.2028 32.2026 31.1003 32.2026 30.9928C32.2026 30.6851 32.4419 30.4702 32.7887 30.4702C33.0915 30.4702 33.282 30.646 33.3553 30.983L34.0246 34.0282C34.0563 34.1723 34.2597 34.1781 34.2995 34.036L35.1428 31.027C35.2259 30.6656 35.4652 30.4702 35.8364 30.4702C36.2076 30.4702 36.4371 30.6607 36.5202 31.027L37.3516 34.0381C37.3908 34.1802 37.5939 34.1754 37.6265 34.0317L38.3176 30.9781C38.3909 30.6411 38.5765 30.4702 38.8744 30.4702C39.2212 30.4702 39.4556 30.6802 39.4556 30.9879C39.4556 31.0954 39.4361 31.1979 39.3921 31.3444L38.2736 35.2224C38.1515 35.6473 37.9122 35.8476 37.5019 35.8476C37.0672 35.8476 36.8328 35.662 36.7204 35.2175L35.956 32.4581C35.9176 32.3195 35.7211 32.3196 35.6828 32.4581L34.9182 35.2223C34.8156 35.6472 34.5665 35.8475 34.1465 35.8475C33.7265 35.8475 33.5116 35.657 33.3846 35.2223V35.2224Z" fill="black"/>
<path d="M29.0532 30.4667C27.5444 30.4667 26.5483 31.4921 26.5483 33.162C26.5483 34.8319 27.5346 35.8525 29.0532 35.8525C30.5718 35.8525 31.5581 34.8417 31.5581 33.162C31.5581 31.4823 30.562 30.4667 29.0532 30.4667ZM29.0532 34.8906C28.2817 34.8906 27.7837 34.2656 27.7837 33.1621C27.7837 32.0586 28.2866 31.4336 29.0532 31.4336C29.8198 31.4336 30.3227 32.0635 30.3227 33.1621C30.3227 34.2607 29.8246 34.8906 29.0532 34.8906Z" fill="black"/>
<path d="M20.9131 35.2079V29.2305C20.9131 28.8447 21.1426 28.6054 21.5138 28.6054C21.885 28.6054 22.1145 28.8447 22.1145 29.2305V30.7062C22.1145 30.8094 22.2211 30.878 22.315 30.8352C22.6103 30.7006 23.1908 30.4758 23.7749 30.4758C24.9176 30.4758 25.5867 31.2279 25.5867 32.4146V35.208C25.5867 35.6182 25.3328 35.8477 24.9763 35.8477C24.6198 35.8477 24.3707 35.6182 24.3707 35.208V32.6637C24.3707 31.9409 24.0093 31.5063 23.3061 31.5063C22.6029 31.5063 22.1292 32.0142 22.1292 32.776V35.208C22.1292 35.6182 21.8801 35.8477 21.5236 35.8477C21.1671 35.8477 20.9131 35.6181 20.9131 35.2079Z" fill="black"/>
<path d="M17.1006 35.8671C15.6943 35.8671 14.7568 35.2812 14.4834 34.4804C14.4395 34.3632 14.415 34.2363 14.415 34.1191C14.415 33.7675 14.6396 33.5429 14.9716 33.5429C15.2499 33.5429 15.4257 33.6552 15.5624 33.9384C15.7821 34.5488 16.3876 34.8222 17.1396 34.8222C17.9892 34.8222 18.5849 34.4023 18.5849 33.8163C18.5849 33.3085 18.2333 32.996 17.3154 32.8055L16.5586 32.6492C15.1475 32.3611 14.4883 31.697 14.4883 30.6668C14.4883 29.4266 15.5772 28.5867 17.1055 28.5867C18.3506 28.5867 19.3174 29.1433 19.6055 30.076C19.6348 30.1541 19.6494 30.2469 19.6494 30.3641C19.6494 30.6717 19.4297 30.8817 19.1025 30.8817C18.8095 30.8817 18.6289 30.7547 18.497 30.4813C18.2577 29.8856 17.7548 29.6317 17.0956 29.6317C16.3143 29.6317 15.7577 30.0028 15.7577 30.5936C15.7577 31.0721 16.1093 31.3797 16.9882 31.5653L17.745 31.7216C19.2294 32.0292 19.8544 32.6249 19.8544 33.6699C19.8544 35.0176 18.7948 35.8672 17.1005 35.8672L17.1006 35.8671Z" fill="black"/>
</svg>
