<svg width="54" height="54" viewBox="0 0 54 54" fill="none" xmlns="http://www.w3.org/2000/svg">
<rect x="1.8501" y="1.85001" width="50.3" height="50.3" rx="3" stroke="#8B1EFF" style="stroke:#8B1EFF;stroke:color(display-p3 0.5448 0.1190 1.0000);stroke-opacity:1;" stroke-width="0.28"/>
<path d="M9.91309 37.0476C9.83508 27.0606 9.73608 17.0726 9.61914 7.08457L9.6192 7.08213C9.62323 6.91611 9.63623 6.7501 9.65631 6.58396C9.67633 6.41892 9.70233 6.25498 9.73553 6.09153C9.76752 5.92954 9.80652 5.76853 9.85266 5.60972C9.89966 5.45176 9.95166 5.29575 10.0115 5.14158C10.1985 4.66758 10.4535 4.21665 10.77 3.81431C11.083 3.41733 11.456 3.06833 11.8725 2.78391C12.2875 2.50193 12.7465 2.28391 13.2258 2.13694C13.7078 1.98984 14.2118 1.91392 14.7141 1.90659C18.8081 1.87168 22.9021 1.85459 26.9963 1.85496C31.0893 1.85496 35.1833 1.87192 39.2776 1.9072C39.4396 1.91013 39.6016 1.92112 39.7635 1.93772C40.0035 1.96372 40.2435 2.00474 40.4799 2.0615C40.7139 2.11851 40.9449 2.1904 41.1697 2.27952C41.4037 2.37253 41.6287 2.4835 41.8449 2.61069C42.062 2.73862 42.2689 2.88267 42.4627 3.0416C42.6577 3.20164 42.8417 3.37668 43.0105 3.56321C43.1795 3.75217 43.3355 3.9542 43.476 4.16575C43.757 4.59482 43.975 5.06479 44.125 5.55649C44.276 6.05442 44.358 6.57444 44.373 7.09263C44.252 17.0696 44.154 27.0466 44.08 37.0251C44.074 37.185 44.0601 37.3451 44.039 37.5036C44.018 37.6646 43.991 37.8236 43.9569 37.9813C43.9239 38.1402 43.8839 38.2983 43.8358 38.4537C43.7888 38.6097 43.7349 38.7636 43.675 38.9156C43.484 39.3907 43.228 39.8407 42.9172 40.2495C42.6032 40.6605 42.2352 41.0285 41.8244 41.3395C41.4154 41.6495 40.9624 41.9035 40.4838 42.0906C40.0098 42.2755 39.5098 42.3955 39.0063 42.4435C31.0073 42.9535 22.9843 42.9535 14.9849 42.4436C14.6529 42.4116 14.3229 42.3476 14.0024 42.2535C13.6794 42.1595 13.3654 42.0345 13.0632 41.8819C12.4602 41.5749 11.9092 41.1568 11.4476 40.6577C10.9866 40.1606 10.6126 39.5816 10.349 38.9596C10.219 38.6516 10.115 38.3325 10.0411 38.0056C9.96912 37.6836 9.92407 37.3546 9.91113 37.0245" stroke="#8B1EFF" style="stroke:#8B1EFF;stroke:color(display-p3 0.5448 0.1190 1.0000);stroke-opacity:1;" stroke-width="0.283" stroke-miterlimit="10"/>
<rect x="12.6855" y="5.52831" width="28.63" height="34.31" rx="1.43" stroke="#00FFFF" style="stroke:#00FFFF;stroke:color(display-p3 0.0000 1.0000 1.0000);stroke-opacity:1;" stroke-width="0.28"/>
<path d="M42.9399 36.5841C42.9578 31.7321 42.9778 26.8791 43.0009 22.0272C43.0219 17.1742 43.0469 12.3221 43.0759 7.46909C43.0767 7.32443 43.0717 7.18039 43.0596 7.03745C43.0497 6.89438 43.0317 6.75143 43.0076 6.61044C42.9606 6.32834 42.8887 6.05441 42.7897 5.7894C42.7646 5.72336 42.7386 5.65744 42.7106 5.59238C42.6816 5.52634 42.6526 5.4614 42.6216 5.39841C42.5587 5.27036 42.4907 5.14743 42.4156 5.02841C42.2667 4.79037 42.0936 4.5704 41.8937 4.36642C41.6957 4.16342 41.4777 3.98642 41.2437 3.83334C41.1266 3.75742 41.0057 3.68637 40.8796 3.62241C40.8167 3.59042 40.7537 3.55942 40.6877 3.53036C40.6237 3.50034 40.5566 3.47336 40.4907 3.44736C40.2236 3.34335 39.9507 3.2684 39.6716 3.21738C39.3926 3.16635 39.1077 3.14035 38.8167 3.13742C37.8378 3.12985 36.8568 3.1218 35.8738 3.11581C34.8898 3.10886 33.9058 3.10385 32.9208 3.09885C30.9498 3.09079 28.9758 3.08688 26.9988 3.08688C26.5038 3.08688 26.0098 3.08688 25.5148 3.08688C25.0208 3.08786 24.5258 3.08884 24.0308 3.08981C23.0418 3.09189 22.0538 3.09482 21.0688 3.09885C19.0968 3.10788 17.1328 3.12082 15.1758 3.13779C15.0301 3.13889 14.8861 3.14682 14.7411 3.15988C14.5981 3.1738 14.4541 3.19284 14.3131 3.21884C14.0301 3.27084 13.7561 3.34787 13.4911 3.45187C13.4251 3.47787 13.3601 3.50485 13.2951 3.53488C13.2301 3.56381 13.1651 3.59579 13.1021 3.6279C12.9751 3.69382 12.8541 3.76486 12.7361 3.84286C12.5011 3.9968 12.2841 4.17587 12.0861 4.37985C12.0371 4.4299 11.9891 4.48288 11.9431 4.53586C11.8971 4.58884 11.8521 4.64279 11.8091 4.69882C11.7231 4.80881 11.6431 4.9238 11.5691 5.04184C11.4951 5.16086 11.4281 5.2839 11.3651 5.40988C11.3351 5.47287 11.3061 5.53683 11.2781 5.60287C11.2501 5.66782 11.2241 5.73483 11.1991 5.80185C11.1011 6.06784 11.0301 6.34079 10.9841 6.61887C10.9381 6.89682 10.9151 7.18088 10.9171 7.46982C10.9454 12.3224 10.9714 17.1744 10.9935 22.0274C11.0165 26.8794 11.0355 31.7324 11.0535 36.5844C11.0541 36.8712 11.0781 37.1551 11.1281 37.4392C11.1411 37.5101 11.1552 37.5811 11.1701 37.6511C11.1862 37.7212 11.2021 37.7911 11.2211 37.8601C11.2581 37.9991 11.3011 38.1351 11.3502 38.2701C11.3991 38.4051 11.4531 38.5382 11.5151 38.6682C11.5461 38.7331 11.5771 38.7982 11.6121 38.8622C11.6461 38.9261 11.6812 38.9901 11.7181 39.0532C11.8651 39.3032 12.0331 39.5361 12.2241 39.7531C12.3192 39.8612 12.4201 39.9652 12.5272 40.0652C12.5791 40.1151 12.6342 40.1632 12.6901 40.2102C12.7451 40.2572 12.8011 40.3021 12.8591 40.3462C13.0881 40.5211 13.3322 40.6721 13.5921 40.7982C13.6571 40.8302 13.7231 40.8601 13.7902 40.8882C13.8571 40.9171 13.9241 40.9431 13.9921 40.9681C14.1281 41.0182 14.2651 41.0611 14.4041 41.0971C14.6801 41.1692 14.9631 41.2131 15.2512 41.2312C16.2243 41.2916 17.1993 41.3446 18.1773 41.3896C19.1533 41.4356 20.1323 41.4726 21.1113 41.5027C23.0683 41.5636 25.0293 41.5936 26.9943 41.5936C27.4853 41.5936 27.9773 41.5916 28.4683 41.5876C28.9593 41.5846 29.4513 41.5786 29.9423 41.5706C30.9253 41.5556 31.9063 41.5335 32.8863 41.5027C34.8443 41.4426 36.7963 41.3526 38.7416 41.2315C38.8866 41.2226 39.0296 41.2066 39.1726 41.1845C39.2436 41.1726 39.3146 41.1596 39.3866 41.1446C39.4566 41.1296 39.5276 41.1136 39.5966 41.0946C39.8766 41.0226 40.1456 40.9226 40.4046 40.7956C40.4706 40.7646 40.5336 40.7315 40.5966 40.6966C40.6606 40.6616 40.7236 40.6246 40.7856 40.5855C40.9096 40.5096 41.0286 40.4266 41.1426 40.3386C41.3726 40.1635 41.5826 39.9666 41.7736 39.7486C41.8216 39.6936 41.8676 39.6375 41.9136 39.5807C41.9586 39.5237 42.0026 39.4655 42.0446 39.4066C42.1296 39.2896 42.2076 39.1685 42.2796 39.0446C42.4256 38.7966 42.5466 38.5376 42.6446 38.2656C42.6696 38.1976 42.6926 38.1286 42.7146 38.0595C42.7356 37.9906 42.7556 37.9216 42.7736 37.8526C42.8106 37.7136 42.8416 37.5746 42.8656 37.4345C42.9146 37.1537 42.9386 36.8706 42.9399 36.5841Z" stroke="#FF00FF" style="stroke:#FF00FF;stroke:color(display-p3 1.0000 0.0000 1.0000);stroke-opacity:1;" stroke-width="0.283465" stroke-miterlimit="10" stroke-linecap="round" stroke-linejoin="round"/>
<path fill-rule="evenodd" clip-rule="evenodd" d="M21.8186 8.49724C21.8728 8.49724 21.9288 8.50794 21.9844 8.53124L21.9843 8.53104C22.581 8.78124 23.4941 9.32664 24.7036 10.5132C25.3196 11.1175 25.4747 11.7382 25.3626 12.3392C25.3161 12.5887 25.4834 12.8115 25.7351 12.8476C26.2243 12.9178 26.6802 13.1424 27.0167 13.5788C27.3335 13.9898 27.337 14.431 27.2098 14.8423C27.1553 15.0185 27.211 15.2753 27.4726 15.3771C28.1278 15.632 28.5415 16.0159 28.721 16.5007C28.9499 17.1189 28.8886 17.6207 28.7069 18.085C28.6326 18.2749 28.7124 18.5667 28.9957 18.6469C29.8789 18.8968 30.5408 19.5498 30.5821 20.7657C30.6155 21.7472 29.6061 22.366 28.418 22.6732C27.4735 22.9174 26.6137 23.0026 25.7881 23.0026C24.8646 23.0026 23.9842 22.896 23.0769 22.7861L23.0752 22.7858C22.1099 22.6688 21.114 22.5482 20.0031 22.5482C19.3504 22.5482 18.6574 22.5899 17.9082 22.6985C17.7191 22.7259 17.54 22.7393 17.3708 22.7393C16.2446 22.7393 15.5662 22.1454 15.4403 21.138C15.2926 19.9558 15.8433 19.1319 17.0463 18.6918C17.3397 18.5844 17.3896 18.3106 17.2988 18.1203C17.0648 17.6298 17.0512 17.0794 17.2885 16.4567C17.4989 15.9045 17.9253 15.5615 18.513 15.3708C18.7363 15.2984 18.856 15.0644 18.7885 14.8425C18.5963 14.2104 18.6742 13.6107 19.0484 13.0036C19.3328 12.5423 19.747 12.2205 20.3156 12.0126C20.5798 11.916 20.6308 11.6466 20.5752 11.4711C20.4376 11.037 20.6119 10.6195 21.0073 10.1483C21.0216 10.1312 21.0382 10.1122 21.0563 10.0915C21.2317 9.89104 21.5535 9.52304 21.4168 9.05254L21.4135 9.04134C21.3299 8.75624 21.5521 8.49704 21.8188 8.49704L21.8186 8.49724ZM21.8188 7.07974C21.5274 7.07974 21.2361 7.15074 20.9763 7.28504L20.9764 7.28514C20.7298 7.41264 20.5115 7.59754 20.345 7.81984C20.1795 8.04084 20.0643 8.30044 20.0119 8.57044C19.9747 8.76184 19.9688 8.95954 19.9937 9.15394L19.9897 9.15854C19.9679 9.18344 19.9454 9.20914 19.9218 9.23734C19.5572 9.67184 19.3223 10.0912 19.2034 10.5192C19.1617 10.6693 19.1343 10.8207 19.1213 10.9722C19.1189 10.9992 19.1033 11.0232 19.0801 11.0372C18.9847 11.0946 18.8929 11.1554 18.8049 11.2194C18.4184 11.5005 18.0944 11.8507 17.842 12.2602C17.5278 12.77 17.3414 13.306 17.2879 13.8534C17.2724 14.0126 17.268 14.1731 17.2749 14.3344C17.2762 14.3646 17.2611 14.3934 17.2354 14.4094C16.5197 14.8564 16.1527 15.4583 15.9644 15.9522C15.7641 16.4778 15.6774 17.0011 15.7068 17.5074C15.7105 17.5717 15.7161 17.6357 15.7235 17.6993C15.7274 17.7321 15.7113 17.764 15.6832 17.7813C15.2556 18.0449 14.9039 18.3668 14.6315 18.7447C14.3665 19.1125 14.1822 19.527 14.0838 19.977C13.9923 20.3951 13.9757 20.8449 14.0343 21.3139C14.1417 22.173 14.5165 22.8947 15.1183 23.4011C15.4245 23.6587 15.7822 23.8539 16.1815 23.9813C16.5467 24.0978 16.947 24.1568 17.3712 24.1568C17.6089 24.1568 17.8582 24.1381 18.112 24.1013C18.7417 24.01 19.3604 23.9656 20.0035 23.9656C21.0289 23.9656 21.9828 24.0812 22.9052 24.193C23.8263 24.3046 24.7789 24.42 25.7885 24.42C26.7981 24.42 27.7985 24.2975 28.7732 24.0455C29.6152 23.8278 30.311 23.5034 30.8413 23.0812C31.1972 22.7979 31.4768 22.4706 31.6725 22.1083C31.7859 21.8983 31.8713 21.6759 31.9261 21.4474C31.9829 21.2105 32.0074 20.965 31.999 20.7176C31.9831 20.2487 31.8996 19.809 31.7511 19.4109C31.599 19.0033 31.3787 18.6374 31.0964 18.3234C30.8712 18.0731 30.608 17.8574 30.3121 17.6804C30.2841 17.6636 30.2683 17.6323 30.2714 17.5998L30.2738 17.5732C30.3188 17.0569 30.2437 16.5305 30.0505 16.0087C29.8715 15.5254 29.5028 14.9187 28.7442 14.4363C28.7198 14.4207 28.7051 14.3937 28.7051 14.3648C28.7052 14.3175 28.7042 14.2704 28.7019 14.2235C28.6888 13.9569 28.6364 13.6961 28.5462 13.4481C28.4515 13.1879 28.3147 12.9407 28.1396 12.7135C27.8217 12.3011 27.4256 11.9786 26.9623 11.7547C26.9238 11.7361 26.8849 11.7182 26.8457 11.7011C26.8181 11.6891 26.799 11.6632 26.7957 11.6333C26.7775 11.4694 26.7464 11.307 26.7024 11.1463C26.5389 10.5493 26.2005 9.99584 25.6966 9.50144C24.5733 8.39954 23.5088 7.63324 22.5328 7.22404C22.3045 7.12834 22.0643 7.07974 21.8189 7.07974H21.8188ZM25.1641 19.7708H20.8363C20.4127 19.7708 20.2198 20.3003 20.5448 20.5719C21.0588 21.0015 21.8639 21.4436 23.0002 21.4436C24.1365 21.4436 24.9415 21.0015 25.4556 20.5719C25.7806 20.3003 25.5876 19.7708 25.1641 19.7708ZM21.0253 15.5561C21.3384 15.5561 21.5922 16.0637 21.5922 16.69C21.5922 17.3163 21.3384 17.8239 21.0253 17.8239C20.7122 17.8239 20.4584 17.3163 20.4584 16.69C20.4584 16.0637 20.7122 15.5561 21.0253 15.5561ZM21.0253 14.649C20.7325 14.649 20.4536 14.754 20.2188 14.9527C20.0569 15.0896 19.9204 15.2679 19.8131 15.4826C19.6418 15.8252 19.5513 16.2427 19.5513 16.69C19.5513 17.1373 19.6418 17.5549 19.8131 17.8974C19.9204 18.1121 20.0569 18.2903 20.2188 18.4273C20.4536 18.626 20.7325 18.731 21.0253 18.731C21.3181 18.731 21.597 18.626 21.8318 18.4273C21.9937 18.2904 22.1302 18.1121 22.2375 17.8974C22.4088 17.5548 22.4993 17.1373 22.4993 16.69C22.4993 16.2427 22.4088 15.8251 22.2375 15.4826C22.1302 15.2679 21.9937 15.0897 21.8318 14.9527C21.597 14.754 21.3181 14.649 21.0253 14.649ZM25.5419 16.707C25.5419 16.0807 25.2881 15.5731 24.975 15.5731C24.6619 15.5731 24.4081 16.0807 24.4081 16.707C24.4081 17.3333 24.6619 17.8409 24.975 17.8409C25.2881 17.8409 25.5419 17.3333 25.5419 16.707ZM24.1685 14.9697C24.4033 14.771 24.6822 14.666 24.975 14.666C25.2678 14.666 25.5467 14.771 25.7815 14.9697C25.9434 15.1067 26.0799 15.2849 26.1872 15.4996C26.3585 15.8421 26.449 16.2597 26.449 16.707C26.449 17.1543 26.3585 17.5718 26.1872 17.9144C26.0799 18.1291 25.9434 18.3074 25.7815 18.4443C25.5467 18.643 25.2678 18.748 24.975 18.748C24.6822 18.748 24.4033 18.643 24.1685 18.4443C24.0066 18.3073 23.8701 18.1291 23.7628 17.9144C23.5915 17.5719 23.501 17.1543 23.501 16.707C23.501 16.2597 23.5915 15.8422 23.7628 15.4996C23.8701 15.2849 24.0066 15.1066 24.1685 14.9697Z" fill="black" style="fill:black;fill-opacity:1;"/>
<path d="M32.7665 35.2224L31.6431 31.3542C31.604 31.2028 31.5845 31.1003 31.5845 30.9928C31.5845 30.6851 31.8238 30.4702 32.1706 30.4702C32.4734 30.4702 32.6639 30.646 32.7372 30.983L33.4065 34.0282C33.4382 34.1723 33.6416 34.1781 33.6814 34.036L34.5247 31.027C34.6078 30.6656 34.8471 30.4702 35.2183 30.4702C35.5895 30.4702 35.819 30.6607 35.9021 31.027L36.7335 34.0381C36.7727 34.1802 36.9758 34.1754 37.0084 34.0317L37.6995 30.9781C37.7728 30.6411 37.9584 30.4702 38.2563 30.4702C38.6031 30.4702 38.8375 30.6802 38.8375 30.9879C38.8375 31.0954 38.818 31.1979 38.774 31.3444L37.6555 35.2224C37.5334 35.6473 37.2941 35.8476 36.8838 35.8476C36.4491 35.8476 36.2147 35.662 36.1023 35.2175L35.3379 32.4581C35.2995 32.3195 35.103 32.3196 35.0647 32.4581L34.3001 35.2223C34.1975 35.6472 33.9484 35.8475 33.5284 35.8475C33.1084 35.8475 32.8935 35.657 32.7665 35.2223V35.2224Z" fill="black" style="fill:black;fill-opacity:1;"/>
<path d="M28.4351 30.4667C26.9263 30.4667 25.9302 31.4921 25.9302 33.162C25.9302 34.8319 26.9165 35.8525 28.4351 35.8525C29.9537 35.8525 30.94 34.8417 30.94 33.162C30.94 31.4823 29.9439 30.4667 28.4351 30.4667ZM28.4351 34.8906C27.6636 34.8906 27.1656 34.2656 27.1656 33.1621C27.1656 32.0586 27.6685 31.4336 28.4351 31.4336C29.2017 31.4336 29.7046 32.0635 29.7046 33.1621C29.7046 34.2607 29.2065 34.8906 28.4351 34.8906Z" fill="black" style="fill:black;fill-opacity:1;"/>
<path d="M20.2949 35.2079V29.2305C20.2949 28.8447 20.5244 28.6054 20.8956 28.6054C21.2668 28.6054 21.4963 28.8447 21.4963 29.2305V30.7062C21.4963 30.8094 21.6029 30.878 21.6968 30.8352C21.9921 30.7006 22.5726 30.4758 23.1567 30.4758C24.2994 30.4758 24.9685 31.2279 24.9685 32.4146V35.208C24.9685 35.6182 24.7146 35.8477 24.3581 35.8477C24.0016 35.8477 23.7525 35.6182 23.7525 35.208V32.6637C23.7525 31.9409 23.3911 31.5063 22.6879 31.5063C21.9847 31.5063 21.511 32.0142 21.511 32.776V35.208C21.511 35.6182 21.2619 35.8477 20.9054 35.8477C20.5489 35.8477 20.2949 35.6181 20.2949 35.2079Z" fill="black" style="fill:black;fill-opacity:1;"/>
<path d="M16.4825 35.8671C15.0762 35.8671 14.1387 35.2812 13.8653 34.4804C13.8214 34.3632 13.7969 34.2363 13.7969 34.1191C13.7969 33.7675 14.0215 33.5429 14.3535 33.5429C14.6318 33.5429 14.8076 33.6552 14.9443 33.9384C15.164 34.5488 15.7695 34.8222 16.5215 34.8222C17.3711 34.8222 17.9668 34.4023 17.9668 33.8163C17.9668 33.3085 17.6152 32.996 16.6973 32.8055L15.9405 32.6492C14.5294 32.3611 13.8702 31.697 13.8702 30.6668C13.8702 29.4266 14.9591 28.5867 16.4874 28.5867C17.7325 28.5867 18.6993 29.1433 18.9874 30.076C19.0167 30.1541 19.0313 30.2469 19.0313 30.3641C19.0313 30.6717 18.8116 30.8817 18.4844 30.8817C18.1914 30.8817 18.0108 30.7547 17.8789 30.4813C17.6396 29.8856 17.1367 29.6317 16.4775 29.6317C15.6962 29.6317 15.1396 30.0028 15.1396 30.5936C15.1396 31.0721 15.4912 31.3797 16.3701 31.5653L17.1269 31.7216C18.6113 32.0292 19.2363 32.6249 19.2363 33.6699C19.2363 35.0176 18.1767 35.8672 16.4824 35.8672L16.4825 35.8671Z" fill="black" style="fill:black;fill-opacity:1;"/>
</svg>
