<svg width="68" height="54" viewBox="0 0 68 54" fill="none" xmlns="http://www.w3.org/2000/svg">
<rect x="1.8501" y="1.85" width="63.8" height="50.3" rx="3" stroke="#8B1EFF" style="stroke:#8B1EFF;stroke:color(display-p3 0.5448 0.1190 1.0000);stroke-opacity:1;" stroke-width="0.28"/>
<path d="M10.1999 37.0328C10.2199 37.6928 10.3699 38.3628 10.6399 38.9728C10.9099 39.6028 11.2899 40.1728 11.7599 40.6628C12.2299 41.1528 12.7999 41.5628 13.4199 41.8528C14.0299 42.1428 14.6999 42.3228 15.3699 42.3728C21.4899 42.6628 27.6199 42.8128 33.7499 42.8128C39.8799 42.8128 46.0099 42.6628 52.1299 42.3728C52.7999 42.3128 53.4699 42.1328 54.0799 41.8428C54.3899 41.6928 54.6799 41.5228 54.9599 41.3228C55.2399 41.1228 55.4999 40.9028 55.7399 40.6528C55.9799 40.4028 56.1899 40.1428 56.3799 39.8528C56.5699 39.5728 56.7299 39.2728 56.8599 38.9628C56.9899 38.6528 57.0899 38.3328 57.1599 38.0028C57.2299 37.6828 57.2799 37.3528 57.2899 37.0128C57.3699 27.0728 57.4699 17.1328 57.5999 7.20277C57.5799 6.66277 57.4999 6.12277 57.3299 5.61277C57.1699 5.10277 56.9399 4.61277 56.6299 4.17277C56.3299 3.73277 55.9599 3.34277 55.5499 3.02277C55.1299 2.70277 54.6699 2.44277 54.1699 2.25277C53.9399 2.16277 53.6999 2.09277 53.4599 2.04277C53.2199 1.99277 52.9699 1.95277 52.7199 1.92277C52.5499 1.90277 52.3899 1.89277 52.2199 1.89277C39.8999 1.83277 27.5799 1.83277 15.2699 1.91277C14.5799 1.91277 13.8799 2.05277 13.2399 2.31277C12.9199 2.44277 12.6099 2.59277 12.3199 2.78277C12.0299 2.97277 11.7499 3.18277 11.5099 3.42277C11.2599 3.66277 11.0399 3.94277 10.8399 4.22277C10.6399 4.51277 10.4799 4.82277 10.3499 5.15277C10.0799 5.80277 9.9199 6.51277 9.8999 7.22277C10.0199 17.1628 10.1299 27.1028 10.2099 37.0328" stroke="#8B1EFF" style="stroke:#8B1EFF;stroke:color(display-p3 0.5448 0.1190 1.0000);stroke-opacity:1;" stroke-width="0.28" stroke-miterlimit="10"/>
<path d="M13.2901 4.34277C12.5101 4.34277 11.8701 4.98277 11.8701 5.76277V38.9228C11.8701 39.7028 12.5001 40.3428 13.2901 40.3428H54.1101C54.8901 40.3428 55.5301 39.7128 55.5301 38.9228V5.76277C55.5301 4.98277 54.8901 4.34277 54.1101 4.34277" stroke="#00FFFF" style="stroke:#00FFFF;stroke:color(display-p3 0.0000 1.0000 1.0000);stroke-opacity:1;" stroke-width="0.28" stroke-miterlimit="10"/>
<path d="M15.45 41.1328C15.26 41.1328 15.08 41.1028 14.9 41.0728C14.42 40.9928 13.95 40.8328 13.52 40.6128C13.09 40.3828 12.69 40.0828 12.36 39.7228C12.22 39.5728 12.09 39.4128 11.97 39.2528C11.68 38.8428 11.46 38.3828 11.32 37.9028C11.19 37.4628 11.12 37.0028 11.12 36.5428C11.1 31.6828 11.08 26.8328 11.06 21.9728C11.06 20.8028 11.06 19.6428 11.05 18.4728C11.04 15.2828 11.02 12.0928 11 8.90276C11 8.40276 11 7.89276 11 7.39276C11 7.35276 11 7.31276 11 7.27276C11 7.23276 11 7.19276 11 7.15276C11 7.11276 11 7.07276 11 7.03276C11 6.99276 11 6.95276 11 6.91276V6.79276C11 6.79276 11.02 6.71276 11.03 6.67276C11.03 6.63276 11.04 6.59276 11.05 6.56276C11.05 6.52276 11.06 6.48276 11.07 6.45276C11.07 6.41276 11.08 6.37276 11.09 6.34276C11.09 6.30276 11.11 6.26276 11.11 6.23276C11.12 6.19276 11.13 6.16276 11.14 6.12276C11.14 6.08276 11.16 6.05276 11.17 6.01276C11.18 5.97276 11.19 5.94276 11.2 5.90276C11.21 5.86276 11.22 5.83276 11.24 5.79276C11.25 5.75276 11.27 5.72276 11.28 5.68276C11.31 5.61276 11.34 5.55276 11.37 5.48276C11.4 5.41276 11.43 5.35276 11.47 5.29276C11.5 5.23276 11.54 5.16276 11.57 5.10276C11.61 5.04276 11.65 4.98276 11.69 4.92276C11.77 4.80276 11.86 4.68276 11.95 4.57276C12.04 4.46276 12.14 4.36276 12.24 4.26276C12.34 4.16276 12.45 4.07276 12.57 3.98276C12.68 3.89276 12.8 3.81276 12.93 3.73276C12.99 3.69276 13.05 3.66276 13.12 3.62276C13.18 3.59276 13.25 3.55276 13.31 3.52276C13.37 3.49276 13.44 3.46276 13.51 3.43276C13.58 3.40276 13.64 3.38276 13.71 3.35276C13.73 3.35276 13.75 3.34276 13.77 3.33276C13.79 3.33276 13.81 3.32276 13.83 3.31276C13.85 3.31276 13.87 3.30276 13.88 3.29276L13.94 3.27276C13.94 3.27276 13.98 3.26276 14 3.25276C14.02 3.25276 14.04 3.24276 14.06 3.23276C14.08 3.23276 14.1 3.23276 14.12 3.22276C14.14 3.22276 14.16 3.21276 14.18 3.20276C14.2 3.20276 14.22 3.19276 14.24 3.18276C14.26 3.18276 14.28 3.18276 14.3 3.17276C14.32 3.17276 14.34 3.17276 14.36 3.16276C14.38 3.16276 14.4 3.16276 14.42 3.15276C14.44 3.15276 14.46 3.15276 14.48 3.14276C14.5 3.14276 14.52 3.14276 14.54 3.13276C14.56 3.13276 14.58 3.13276 14.6 3.13276C14.62 3.13276 14.64 3.13276 14.66 3.12276C14.68 3.12276 14.7 3.12276 14.72 3.12276C14.74 3.12276 14.76 3.12276 14.78 3.12276C14.8 3.12276 14.82 3.12276 14.84 3.12276C14.86 3.12276 14.88 3.12276 14.9 3.12276C14.92 3.12276 14.94 3.12276 14.96 3.12276C14.98 3.12276 15 3.12276 15.02 3.12276C15.04 3.12276 15.06 3.12276 15.08 3.12276C15.1 3.12276 15.12 3.12276 15.14 3.12276C15.16 3.12276 15.18 3.12276 15.2 3.12276C15.22 3.12276 15.24 3.12276 15.26 3.12276C15.28 3.12276 15.3 3.12276 15.32 3.12276C15.34 3.12276 15.36 3.12276 15.38 3.12276C15.4 3.12276 15.42 3.12276 15.44 3.12276C15.54 3.12276 15.64 3.12276 15.75 3.12276C15.85 3.12276 15.95 3.12276 16.05 3.12276C16.15 3.12276 16.25 3.12276 16.36 3.12276C16.46 3.12276 16.56 3.12276 16.67 3.12276C16.77 3.12276 16.87 3.12276 16.98 3.12276C17.08 3.12276 17.18 3.12276 17.29 3.12276C17.39 3.12276 17.49 3.12276 17.6 3.12276C17.7 3.12276 17.8 3.12276 17.91 3.12276C18.01 3.12276 18.11 3.12276 18.22 3.12276C18.32 3.12276 18.42 3.12276 18.53 3.12276C18.63 3.12276 18.73 3.12276 18.84 3.12276C18.94 3.12276 19.04 3.12276 19.15 3.12276C19.25 3.12276 19.35 3.12276 19.45 3.12276C19.55 3.12276 19.66 3.12276 19.76 3.12276C19.86 3.12276 19.96 3.12276 20.07 3.12276C20.17 3.12276 20.27 3.12276 20.38 3.12276C20.48 3.12276 20.58 3.12276 20.69 3.12276C20.79 3.12276 20.89 3.12276 21 3.12276C21.1 3.12276 21.2 3.12276 21.31 3.12276C21.41 3.12276 21.51 3.12276 21.62 3.12276C21.72 3.12276 21.83 3.12276 21.93 3.12276H22.24C22.34 3.12276 22.44 3.12276 22.55 3.12276C22.65 3.12276 22.75 3.12276 22.86 3.12276C22.96 3.12276 23.07 3.12276 23.17 3.12276C23.27 3.12276 23.37 3.12276 23.48 3.12276C23.59 3.12276 23.68 3.12276 23.79 3.12276C23.89 3.12276 23.99 3.12276 24.1 3.12276H24.41C24.51 3.12276 24.61 3.12276 24.72 3.12276C24.83 3.12276 24.93 3.12276 25.03 3.12276C25.13 3.12276 25.23 3.12276 25.34 3.12276C25.45 3.12276 25.55 3.12276 25.65 3.12276C25.75 3.12276 25.86 3.12276 25.96 3.12276C26.06 3.12276 26.16 3.12276 26.27 3.12276C26.38 3.12276 26.47 3.12276 26.58 3.12276C26.68 3.12276 26.78 3.12276 26.89 3.12276H27.2C27.3 3.12276 27.4 3.12276 27.51 3.12276C27.62 3.12276 27.72 3.12276 27.82 3.12276H28.13C28.23 3.12276 28.34 3.12276 28.44 3.12276C28.54 3.12276 28.64 3.12276 28.75 3.12276H29.06C29.16 3.12276 29.27 3.12276 29.37 3.12276H29.68C29.78 3.12276 29.88 3.12276 29.99 3.12276H30.3C30.4 3.12276 30.5 3.12276 30.61 3.12276H31.22C31.32 3.12276 31.42 3.12276 31.53 3.12276H33.38C33.48 3.12276 33.59 3.12276 33.69 3.12276H34C34.1 3.12276 34.2 3.12276 34.31 3.12276H36.16C36.26 3.12276 36.37 3.12276 36.47 3.12276H37.08C37.18 3.12276 37.29 3.12276 37.39 3.12276H37.7C37.8 3.12276 37.91 3.12276 38.01 3.12276H38.32C38.42 3.12276 38.52 3.12276 38.63 3.12276H38.94C39.04 3.12276 39.14 3.12276 39.25 3.12276C39.36 3.12276 39.45 3.12276 39.56 3.12276H39.87C39.97 3.12276 40.08 3.12276 40.18 3.12276C40.28 3.12276 40.39 3.12276 40.49 3.12276H40.8C40.9 3.12276 41 3.12276 41.11 3.12276C41.21 3.12276 41.32 3.12276 41.42 3.12276C41.52 3.12276 41.62 3.12276 41.73 3.12276C41.84 3.12276 41.93 3.12276 42.04 3.12276C42.15 3.12276 42.25 3.12276 42.35 3.12276C42.45 3.12276 42.56 3.12276 42.66 3.12276C42.76 3.12276 42.86 3.12276 42.97 3.12276C43.08 3.12276 43.17 3.12276 43.28 3.12276C43.39 3.12276 43.48 3.12276 43.59 3.12276C43.7 3.12276 43.8 3.12276 43.9 3.12276C44 3.12276 44.1 3.12276 44.21 3.12276H44.52C44.62 3.12276 44.72 3.12276 44.83 3.12276C44.93 3.12276 45.04 3.12276 45.14 3.12276C45.24 3.12276 45.34 3.12276 45.45 3.12276C45.55 3.12276 45.65 3.12276 45.76 3.12276C45.86 3.12276 45.96 3.12276 46.07 3.12276C46.17 3.12276 46.28 3.12276 46.38 3.12276C46.48 3.12276 46.58 3.12276 46.69 3.12276C46.79 3.12276 46.89 3.12276 47 3.12276C47.1 3.12276 47.2 3.12276 47.31 3.12276C47.41 3.12276 47.51 3.12276 47.62 3.12276C47.72 3.12276 47.82 3.12276 47.93 3.12276C48.03 3.12276 48.13 3.12276 48.24 3.12276C48.34 3.12276 48.45 3.12276 48.55 3.12276C48.65 3.12276 48.75 3.12276 48.86 3.12276C48.96 3.12276 49.06 3.12276 49.17 3.12276C49.27 3.12276 49.38 3.12276 49.48 3.12276C49.58 3.12276 49.68 3.12276 49.79 3.12276C49.89 3.12276 49.99 3.12276 50.09 3.12276C50.19 3.12276 50.29 3.12276 50.4 3.12276C50.5 3.12276 50.6 3.12276 50.71 3.12276C50.81 3.12276 50.91 3.12276 51.01 3.12276C51.11 3.12276 51.21 3.12276 51.32 3.12276C51.42 3.12276 51.52 3.12276 51.63 3.12276C51.73 3.12276 51.83 3.12276 51.93 3.12276C52.03 3.12276 52.13 3.12276 52.24 3.12276C52.28 3.12276 52.32 3.12276 52.36 3.12276C52.4 3.12276 52.44 3.12276 52.48 3.12276C52.52 3.12276 52.56 3.12276 52.6 3.12276C52.64 3.12276 52.68 3.12276 52.72 3.13276C52.76 3.13276 52.8 3.13276 52.84 3.14276L52.96 3.16276C52.96 3.16276 53.04 3.17276 53.08 3.18276C53.12 3.18276 53.16 3.19276 53.2 3.20276C53.24 3.20276 53.27 3.22276 53.31 3.22276C53.35 3.22276 53.39 3.24276 53.42 3.25276C53.46 3.25276 53.5 3.27276 53.53 3.28276C53.57 3.28276 53.6 3.30276 53.64 3.31276C53.68 3.32276 53.71 3.33276 53.75 3.34276C53.79 3.35276 53.82 3.36276 53.86 3.37276C53.9 3.38276 53.93 3.39276 53.97 3.41276C54.04 3.44276 54.11 3.46276 54.17 3.49276C54.24 3.52276 54.3 3.55276 54.37 3.58276C54.43 3.61276 54.5 3.65276 54.56 3.68276C54.62 3.71276 54.69 3.75276 54.75 3.79276C54.87 3.87276 54.99 3.95276 55.11 4.04276C55.22 4.13276 55.33 4.22276 55.43 4.32276C55.53 4.42276 55.63 4.52276 55.72 4.63276C55.81 4.74276 55.9 4.86276 55.98 4.98276C56.02 5.04276 56.06 5.10276 56.09 5.16276C56.13 5.22276 56.16 5.28276 56.19 5.35276C56.22 5.41276 56.25 5.48276 56.28 5.54276C56.31 5.61276 56.34 5.67276 56.36 5.74276C56.36 5.76276 56.37 5.78276 56.38 5.80276C56.38 5.82276 56.39 5.84276 56.4 5.85276L56.42 5.91276C56.42 5.91276 56.43 5.95276 56.44 5.97276C56.44 5.99276 56.45 6.01276 56.46 6.03276C56.46 6.05276 56.47 6.07276 56.48 6.09276C56.48 6.11276 56.49 6.13276 56.5 6.15276C56.5 6.17276 56.51 6.19276 56.52 6.21276V6.27276C56.52 6.27276 56.54 6.31276 56.55 6.33276C56.55 6.35276 56.55 6.37276 56.56 6.39276C56.56 6.41276 56.56 6.43276 56.57 6.45276C56.57 6.47276 56.57 6.49276 56.58 6.51276V6.57276C56.58 6.57276 56.6 6.61276 56.6 6.63276C56.6 6.65276 56.6 6.67276 56.6 6.69276C56.6 6.71276 56.6 6.73276 56.6 6.75276C56.6 6.77276 56.6 6.79276 56.6 6.81276C56.6 6.83276 56.6 6.85276 56.6 6.87276C56.6 6.89276 56.6 6.91276 56.6 6.93276C56.6 6.95276 56.6 6.97276 56.6 6.99276C56.6 7.01276 56.6 7.03276 56.6 7.05276C56.6 7.07276 56.6 7.09276 56.6 7.11276C56.6 7.13276 56.6 7.15276 56.6 7.17276V7.23276C56.6 7.23276 56.6 7.27276 56.6 7.29276C56.6 7.31276 56.6 7.33276 56.6 7.35276C56.6 7.37276 56.6 7.39276 56.6 7.41276V7.47276V8.99276C56.58 12.1828 56.57 15.3728 56.55 18.5728C56.55 19.7328 56.54 20.9028 56.54 22.0628C56.52 26.9128 56.5 31.7728 56.48 36.6228C56.48 36.6628 56.48 36.7028 56.48 36.7428C56.48 36.7828 56.48 36.8228 56.48 36.8628C56.48 36.9028 56.48 36.9428 56.48 36.9828C56.48 37.0228 56.48 37.0628 56.48 37.1028C56.48 37.1428 56.48 37.1828 56.47 37.2128C56.47 37.2528 56.46 37.2928 56.45 37.3228C56.45 37.3628 56.44 37.4028 56.43 37.4328L56.41 37.5428C56.41 37.5428 56.4 37.6228 56.39 37.6528C56.39 37.6928 56.37 37.7328 56.36 37.7628C56.36 37.8028 56.34 37.8328 56.33 37.8728C56.32 37.9128 56.31 37.9428 56.3 37.9828C56.29 38.0228 56.28 38.0528 56.27 38.0928C56.26 38.1328 56.25 38.1628 56.23 38.2028C56.22 38.2428 56.2 38.2728 56.19 38.3128C56.14 38.4528 56.08 38.5828 56.01 38.7228C55.95 38.8528 55.88 38.9828 55.8 39.1028C55.72 39.2228 55.64 39.3428 55.55 39.4628C55.46 39.5728 55.37 39.6928 55.27 39.7928C55.17 39.9028 55.07 40.0028 54.96 40.1028C54.85 40.2028 54.73 40.2928 54.61 40.3728C54.55 40.4128 54.49 40.4528 54.43 40.4928C54.37 40.5328 54.31 40.5728 54.24 40.6028C54.18 40.6428 54.11 40.6728 54.05 40.7028C53.98 40.7328 53.92 40.7728 53.85 40.8028C53.83 40.8028 53.82 40.8128 53.8 40.8228C53.78 40.8328 53.76 40.8428 53.75 40.8428C53.73 40.8428 53.72 40.8528 53.7 40.8628C53.68 40.8628 53.67 40.8728 53.65 40.8828L53.6 40.9028C53.6 40.9028 53.56 40.9128 53.55 40.9228L53.5 40.9428C53.5 40.9428 53.47 40.9528 53.45 40.9628C53.43 40.9628 53.41 40.9728 53.4 40.9828C53.38 40.9828 53.36 40.9928 53.35 41.0028C53.33 41.0028 53.31 41.0128 53.3 41.0228C53.28 41.0228 53.26 41.0328 53.25 41.0428C53.23 41.0428 53.21 41.0528 53.2 41.0528L53.15 41.0728C53.15 41.0728 53.11 41.0728 53.1 41.0828C53.08 41.0828 53.06 41.0828 53.05 41.0928C53.03 41.0928 53.01 41.0928 52.99 41.1028C52.97 41.1028 52.95 41.1028 52.93 41.1128C52.91 41.1128 52.89 41.1128 52.88 41.1228C52.86 41.1228 52.84 41.1228 52.82 41.1328C52.8 41.1328 52.78 41.1328 52.76 41.1328H52.71L52.65 41.1528C52.63 41.1528 52.61 41.1528 52.59 41.1528C52.57 41.1528 52.55 41.1528 52.53 41.1528C52.51 41.1528 52.49 41.1528 52.47 41.1528C52.45 41.1528 52.43 41.1528 52.41 41.1528C52.39 41.1528 52.37 41.1528 52.35 41.1528C52.33 41.1528 52.31 41.1528 52.29 41.1528C52.27 41.1528 52.25 41.1528 52.23 41.1528C52.21 41.1528 52.19 41.1528 52.17 41.1528C52.07 41.1528 51.97 41.1628 51.86 41.1728C51.76 41.1728 51.66 41.1828 51.56 41.1928C51.46 41.1928 51.36 41.2028 51.25 41.2028C51.15 41.2028 51.05 41.2128 50.94 41.2228C50.84 41.2228 50.74 41.2228 50.64 41.2328C50.54 41.2328 50.44 41.2328 50.33 41.2428C50.23 41.2428 50.13 41.2428 50.02 41.2528C49.92 41.2528 49.82 41.2528 49.72 41.2628C49.62 41.2628 49.52 41.2628 49.41 41.2728C49.31 41.2728 49.21 41.2728 49.1 41.2828C49 41.2828 48.9 41.2828 48.79 41.2928C48.69 41.2928 48.59 41.2928 48.48 41.3028C48.38 41.3028 48.28 41.3028 48.17 41.3128C48.07 41.3128 47.97 41.3128 47.86 41.3228C47.76 41.3228 47.66 41.3228 47.55 41.3328C47.45 41.3328 47.35 41.3328 47.24 41.3428C47.14 41.3428 47.04 41.3428 46.93 41.3528C46.83 41.3528 46.73 41.3528 46.62 41.3628C46.52 41.3628 46.42 41.3628 46.31 41.3728C46.21 41.3728 46.11 41.3728 46 41.3828C45.9 41.3828 45.8 41.3828 45.69 41.3828C45.59 41.3828 45.49 41.3828 45.38 41.3928C45.27 41.4028 45.18 41.3928 45.07 41.4028C44.97 41.4028 44.87 41.4028 44.76 41.4028C44.66 41.4028 44.56 41.4028 44.45 41.4028C44.35 41.4028 44.25 41.4028 44.14 41.4028C44.04 41.4028 43.94 41.4028 43.83 41.4028C43.73 41.4028 43.63 41.4028 43.52 41.4028C43.42 41.4028 43.32 41.4028 43.21 41.4028C43.11 41.4028 43.01 41.4028 42.9 41.4028C42.8 41.4028 42.7 41.4028 42.59 41.4028C42.49 41.4028 42.39 41.4028 42.28 41.4028C42.18 41.4028 42.07 41.4028 41.97 41.4028C41.87 41.4028 41.77 41.4028 41.66 41.4028C41.56 41.4028 41.46 41.4028 41.35 41.4028H41.04C40.94 41.4028 40.84 41.4128 40.73 41.4128H40.42C40.32 41.4128 40.22 41.4128 40.11 41.4228C40.01 41.4228 39.91 41.4228 39.8 41.4228C39.7 41.4228 39.59 41.4228 39.49 41.4228C39.39 41.4228 39.29 41.4228 39.18 41.4228H38.87C38.77 41.4228 38.66 41.4228 38.56 41.4228C38.46 41.4228 38.36 41.4228 38.25 41.4228C38.14 41.4228 38.05 41.4228 37.94 41.4228C37.84 41.4228 37.73 41.4228 37.63 41.4228C37.53 41.4228 37.43 41.4228 37.32 41.4228H37.01C36.91 41.4228 36.8 41.4228 36.7 41.4228C36.6 41.4228 36.49 41.4228 36.39 41.4228C36.29 41.4228 36.19 41.4228 36.08 41.4228C35.98 41.4228 35.88 41.4228 35.77 41.4228H35.46H35.15C35.05 41.4228 34.95 41.4228 34.84 41.4228H34.53C34.43 41.4228 34.32 41.4228 34.22 41.4228H33.3C33.2 41.4228 33.1 41.4228 32.99 41.4228H32.68C32.58 41.4228 32.48 41.4228 32.37 41.4228C32.27 41.4228 32.17 41.4228 32.06 41.4228H31.75C31.65 41.4228 31.55 41.4228 31.44 41.4228C31.34 41.4228 31.23 41.4228 31.13 41.4228C31.03 41.4228 30.92 41.4228 30.82 41.4228C30.72 41.4228 30.62 41.4228 30.51 41.4228H30.2H29.89C29.79 41.4228 29.69 41.4228 29.58 41.4228C29.48 41.4228 29.38 41.4228 29.27 41.4228C29.17 41.4228 29.06 41.4228 28.96 41.4228C28.86 41.4228 28.76 41.4228 28.65 41.4228C28.55 41.4228 28.45 41.4228 28.34 41.4228C28.24 41.4228 28.14 41.4228 28.03 41.4228C27.93 41.4228 27.82 41.4228 27.72 41.4228C27.62 41.4228 27.52 41.4228 27.41 41.4228C27.31 41.4228 27.21 41.4228 27.1 41.4228C27 41.4228 26.9 41.4228 26.79 41.4228H26.48C26.38 41.4228 26.28 41.4228 26.17 41.4128C26.07 41.4128 25.97 41.4128 25.86 41.4128C25.76 41.4128 25.66 41.4128 25.55 41.4128C25.45 41.4128 25.34 41.4128 25.24 41.4128H24.93C24.83 41.4128 24.73 41.4028 24.62 41.4028C24.52 41.4028 24.41 41.4028 24.31 41.4028C24.21 41.4028 24.1 41.4028 24 41.4028C23.9 41.4028 23.8 41.4028 23.69 41.4028C23.59 41.4028 23.49 41.4028 23.38 41.4028C23.28 41.4028 23.18 41.4028 23.07 41.4028C22.97 41.4028 22.87 41.4028 22.76 41.4028C22.66 41.4028 22.56 41.4028 22.45 41.4028C22.35 41.4028 22.25 41.4028 22.14 41.3928C22.04 41.3928 21.94 41.3928 21.83 41.3828C21.73 41.3828 21.63 41.3828 21.52 41.3828C21.42 41.3828 21.32 41.3828 21.21 41.3728C21.11 41.3728 21.01 41.3728 20.9 41.3628C20.8 41.3628 20.7 41.3628 20.59 41.3528C20.49 41.3528 20.39 41.3528 20.28 41.3428C20.18 41.3428 20.08 41.3428 19.97 41.3328C19.87 41.3328 19.77 41.3328 19.66 41.3228C19.56 41.3228 19.46 41.3228 19.35 41.3128C19.25 41.3128 19.15 41.3128 19.04 41.3028C18.94 41.3028 18.84 41.3028 18.73 41.2928C18.63 41.2928 18.53 41.2928 18.42 41.2828C18.32 41.2828 18.22 41.2828 18.11 41.2728C18.01 41.2728 17.91 41.2728 17.8 41.2628C17.7 41.2628 17.6 41.2628 17.5 41.2528C17.4 41.2528 17.3 41.2528 17.19 41.2428C17.09 41.2428 16.99 41.2428 16.88 41.2328C16.78 41.2328 16.68 41.2228 16.58 41.2228C16.48 41.2228 16.38 41.2128 16.27 41.2028H15.97C15.87 41.1828 15.77 41.1828 15.67 41.1728C15.57 41.1728 15.47 41.1628 15.36 41.1528L15.45 41.1328Z" stroke="#FF00FF" style="stroke:#FF00FF;stroke:color(display-p3 1.0000 0.0000 1.0000);stroke-opacity:1;" stroke-width="0.28" stroke-linecap="round" stroke-linejoin="round"/>
<path d="M53.4491 44.9191V50.01H52.8326V45.5654H52.8028L51.5599 46.3907V45.7643L52.8326 44.9191H53.4491ZM55.0499 50.0498C54.9273 50.0498 54.8221 50.0059 54.7342 49.918C54.6464 49.8302 54.6025 49.725 54.6025 49.6023C54.6025 49.4797 54.6464 49.3745 54.7342 49.2866C54.8221 49.1988 54.9273 49.1549 55.0499 49.1549C55.1726 49.1549 55.2778 49.1988 55.3656 49.2866C55.4535 49.3745 55.4974 49.4797 55.4974 49.6023C55.4974 49.6835 55.4767 49.7581 55.4352 49.8261C55.3955 49.894 55.3416 49.9487 55.2737 49.9901C55.2074 50.0299 55.1328 50.0498 55.0499 50.0498ZM56.5402 50.01V49.5626L58.2206 47.7231C58.4178 47.5076 58.5802 47.3204 58.7078 47.1613C58.8354 47.0005 58.9299 46.8497 58.9912 46.7089C59.0541 46.5664 59.0856 46.4172 59.0856 46.2614C59.0856 46.0825 59.0425 45.9275 58.9564 45.7966C58.8718 45.6657 58.7558 45.5646 58.6084 45.4933C58.4609 45.4221 58.2951 45.3864 58.1112 45.3864C57.9156 45.3864 57.745 45.427 57.5991 45.5082C57.4549 45.5878 57.3431 45.6996 57.2635 45.8438C57.1857 45.988 57.1467 46.157 57.1467 46.3509H56.5601C56.5601 46.0526 56.6288 45.7908 56.7664 45.5654C56.9039 45.34 57.0912 45.1644 57.3282 45.0384C57.5668 44.9125 57.8344 44.8495 58.1311 44.8495C58.4294 44.8495 58.6937 44.9125 58.9241 45.0384C59.1544 45.1644 59.335 45.3342 59.466 45.548C59.5969 45.7618 59.6623 45.9996 59.6623 46.2614C59.6623 46.4487 59.6284 46.6318 59.5604 46.8108C59.4941 46.9881 59.3781 47.1861 59.2124 47.4049C59.0483 47.622 58.8205 47.8871 58.5288 48.2004L57.3853 49.4234V49.4631H59.7518V50.01H56.5402ZM62.3694 50.0796C62.0777 50.0796 61.815 50.0216 61.5814 49.9056C61.3477 49.7896 61.1604 49.6305 61.0196 49.4283C60.8787 49.2262 60.8017 48.9958 60.7884 48.7373H61.385C61.4082 48.9676 61.5126 49.1582 61.6982 49.309C61.8855 49.4582 62.1092 49.5327 62.3694 49.5327C62.5782 49.5327 62.7638 49.4838 62.9262 49.3861C63.0902 49.2883 63.2187 49.1541 63.3115 48.9834C63.4059 48.811 63.4532 48.6163 63.4532 48.3992C63.4532 48.1771 63.4043 47.9791 63.3065 47.8051C63.2104 47.6294 63.0778 47.4911 62.9088 47.39C62.7397 47.2889 62.5467 47.2375 62.3296 47.2359C62.1738 47.2342 62.0139 47.2582 61.8498 47.308C61.6858 47.356 61.5507 47.4182 61.4446 47.4944L60.8679 47.4248L61.1762 44.9191H63.8211V45.466H61.6932L61.5142 46.9674H61.5441C61.6485 46.8845 61.7794 46.8158 61.9368 46.7611C62.0943 46.7064 62.2583 46.679 62.429 46.679C62.7406 46.679 63.0182 46.7536 63.2618 46.9028C63.507 47.0503 63.6993 47.2524 63.8385 47.5093C63.9793 47.7662 64.0498 48.0595 64.0498 48.3893C64.0498 48.7141 63.9768 49.0041 63.831 49.2593C63.6868 49.5129 63.488 49.7134 63.2344 49.8609C62.9809 50.0067 62.6925 50.0796 62.3694 50.0796Z" fill="#0000FF" style="fill:#0000FF;fill:color(display-p3 0.0000 0.0000 1.0000);fill-opacity:1;"/>
<path fill-rule="evenodd" clip-rule="evenodd" d="M21.8186 8.49725C21.8728 8.49725 21.9288 8.50795 21.9844 8.53125L21.9843 8.53105C22.581 8.78125 23.4941 9.32665 24.7036 10.5133C25.3196 11.1175 25.4747 11.7383 25.3626 12.3393C25.3161 12.5887 25.4834 12.8115 25.7351 12.8476C26.2243 12.9178 26.6802 13.1424 27.0167 13.5788C27.3335 13.9898 27.337 14.431 27.2098 14.8424C27.1553 15.0185 27.211 15.2753 27.4726 15.3771C28.1278 15.632 28.5415 16.0159 28.721 16.5007C28.9499 17.1189 28.8886 17.6208 28.7069 18.0851C28.6326 18.275 28.7124 18.5667 28.9957 18.6469C29.8789 18.8968 30.5408 19.5498 30.5821 20.7657C30.6155 21.7472 29.6061 22.366 28.418 22.6732C27.4735 22.9174 26.6137 23.0027 25.7881 23.0027C24.8646 23.0027 23.9842 22.896 23.0769 22.7861L23.0752 22.7858C22.1099 22.6688 21.114 22.5482 20.0031 22.5482C19.3504 22.5482 18.6574 22.5899 17.9082 22.6986C17.7191 22.7259 17.54 22.7393 17.3708 22.7393C16.2446 22.7393 15.5662 22.1454 15.4403 21.138C15.2926 19.9558 15.8433 19.1319 17.0463 18.6918C17.3397 18.5844 17.3896 18.3107 17.2988 18.1204C17.0648 17.6299 17.0512 17.0794 17.2885 16.4567C17.4989 15.9045 17.9253 15.5616 18.513 15.3708C18.7363 15.2984 18.856 15.0645 18.7885 14.8426C18.5963 14.2105 18.6742 13.6108 19.0484 13.0037C19.3328 12.5424 19.747 12.2206 20.3156 12.0127C20.5798 11.916 20.6308 11.6467 20.5752 11.4711C20.4376 11.0371 20.6119 10.6195 21.0073 10.1483C21.0216 10.1312 21.0382 10.1122 21.0563 10.0915C21.2317 9.89105 21.5535 9.52305 21.4168 9.05255L21.4135 9.04135C21.3299 8.75625 21.5521 8.49705 21.8188 8.49705L21.8186 8.49725ZM21.8188 7.07975C21.5274 7.07975 21.2361 7.15075 20.9763 7.28505L20.9764 7.28515C20.7298 7.41265 20.5115 7.59755 20.345 7.81985C20.1795 8.04085 20.0643 8.30045 20.0119 8.57045C19.9747 8.76185 19.9688 8.95955 19.9937 9.15395L19.9897 9.15855C19.9679 9.18345 19.9454 9.20915 19.9218 9.23735C19.5572 9.67185 19.3223 10.0913 19.2034 10.5193C19.1617 10.6694 19.1343 10.8207 19.1213 10.9722C19.1189 10.9992 19.1033 11.0232 19.0801 11.0373C18.9847 11.0946 18.8929 11.1554 18.8049 11.2194C18.4184 11.5005 18.0944 11.8507 17.842 12.2602C17.5278 12.77 17.3414 13.306 17.2879 13.8534C17.2724 14.0127 17.268 14.1731 17.2749 14.3344C17.2762 14.3646 17.2611 14.3934 17.2354 14.4094C16.5197 14.8564 16.1527 15.4584 15.9644 15.9522C15.7641 16.4778 15.6774 17.0012 15.7068 17.5075C15.7105 17.5717 15.7161 17.6357 15.7235 17.6993C15.7274 17.7321 15.7113 17.7641 15.6832 17.7814C15.2556 18.045 14.9039 18.3668 14.6315 18.7448C14.3665 19.1125 14.1822 19.5271 14.0838 19.977C13.9923 20.3951 13.9757 20.8449 14.0343 21.314C14.1417 22.173 14.5165 22.8947 15.1183 23.4011C15.4245 23.6588 15.7822 23.854 16.1815 23.9813C16.5467 24.0979 16.947 24.1568 17.3712 24.1568C17.6089 24.1568 17.8582 24.1381 18.112 24.1014C18.7417 24.01 19.3604 23.9656 20.0035 23.9656C21.0289 23.9656 21.9828 24.0812 22.9052 24.193C23.8263 24.3046 24.7789 24.42 25.7885 24.42C26.7981 24.42 27.7985 24.2975 28.7732 24.0455C29.6152 23.8278 30.311 23.5035 30.8413 23.0812C31.1972 22.7979 31.4768 22.4706 31.6725 22.1083C31.7859 21.8983 31.8713 21.676 31.9261 21.4474C31.9829 21.2106 32.0074 20.965 31.999 20.7177C31.9831 20.2487 31.8996 19.809 31.7511 19.4109C31.599 19.0033 31.3787 18.6375 31.0964 18.3235C30.8712 18.0731 30.608 17.8574 30.3121 17.6804C30.2841 17.6636 30.2683 17.6323 30.2714 17.5998L30.2738 17.5732C30.3188 17.0569 30.2437 16.5306 30.0505 16.0087C29.8715 15.5254 29.5028 14.9187 28.7442 14.4363C28.7198 14.4207 28.7051 14.3938 28.7051 14.3649C28.7052 14.3176 28.7042 14.2705 28.7019 14.2235C28.6888 13.957 28.6364 13.6962 28.5462 13.4482C28.4515 13.188 28.3147 12.9408 28.1396 12.7136C27.8217 12.3011 27.4256 11.9787 26.9623 11.7547C26.9238 11.7361 26.8849 11.7183 26.8457 11.7011C26.8181 11.6892 26.799 11.6632 26.7957 11.6333C26.7775 11.4694 26.7464 11.3071 26.7024 11.1463C26.5389 10.5494 26.2005 9.99585 25.6966 9.50145C24.5733 8.39955 23.5088 7.63325 22.5328 7.22405C22.3045 7.12835 22.0643 7.07975 21.8189 7.07975H21.8188ZM25.1641 19.7708H20.8363C20.4127 19.7708 20.2198 20.3003 20.5448 20.5719C21.0588 21.0015 21.8639 21.4436 23.0002 21.4436C24.1365 21.4436 24.9415 21.0015 25.4556 20.5719C25.7806 20.3003 25.5876 19.7708 25.1641 19.7708ZM21.0253 15.5562C21.3384 15.5562 21.5922 16.0638 21.5922 16.6901C21.5922 17.3163 21.3384 17.824 21.0253 17.824C20.7122 17.824 20.4584 17.3163 20.4584 16.6901C20.4584 16.0638 20.7122 15.5562 21.0253 15.5562ZM21.0253 14.649C20.7325 14.649 20.4536 14.7541 20.2188 14.9528C20.0569 15.0897 19.9204 15.268 19.8131 15.4827C19.6418 15.8253 19.5513 16.2428 19.5513 16.6901C19.5513 17.1374 19.6418 17.5549 19.8131 17.8975C19.9204 18.1122 20.0569 18.2903 20.2188 18.4274C20.4536 18.626 20.7325 18.7311 21.0253 18.7311C21.3181 18.7311 21.597 18.626 21.8318 18.4274C21.9937 18.2905 22.1302 18.1122 22.2375 17.8975C22.4088 17.5549 22.4993 17.1374 22.4993 16.6901C22.4993 16.2428 22.4088 15.8252 22.2375 15.4827C22.1302 15.268 21.9937 15.0898 21.8318 14.9528C21.597 14.7541 21.3181 14.649 21.0253 14.649ZM25.5419 16.7071C25.5419 16.0808 25.2881 15.5731 24.975 15.5731C24.6619 15.5731 24.4081 16.0808 24.4081 16.7071C24.4081 17.3334 24.6619 17.841 24.975 17.841C25.2881 17.841 25.5419 17.3334 25.5419 16.7071ZM24.1685 14.9697C24.4033 14.771 24.6822 14.666 24.975 14.666C25.2678 14.666 25.5467 14.771 25.7815 14.9697C25.9434 15.1067 26.0799 15.285 26.1872 15.4997C26.3585 15.8421 26.449 16.2598 26.449 16.7071C26.449 17.1544 26.3585 17.5718 26.1872 17.9144C26.0799 18.1291 25.9434 18.3074 25.7815 18.4443C25.5467 18.643 25.2678 18.7481 24.975 18.7481C24.6822 18.7481 24.4033 18.643 24.1685 18.4443C24.0066 18.3073 23.8701 18.1291 23.7628 17.9144C23.5915 17.5719 23.501 17.1544 23.501 16.7071C23.501 16.2598 23.5915 15.8422 23.7628 15.4997C23.8701 15.285 24.0066 15.1067 24.1685 14.9697Z" fill="black" style="fill:black;fill-opacity:1;"/>
<path d="M33.3846 35.2224L32.2612 31.3542C32.2221 31.2028 32.2026 31.1003 32.2026 30.9928C32.2026 30.6851 32.4419 30.4702 32.7887 30.4702C33.0915 30.4702 33.282 30.646 33.3553 30.983L34.0246 34.0282C34.0563 34.1723 34.2597 34.1781 34.2995 34.036L35.1428 31.027C35.2259 30.6656 35.4652 30.4702 35.8364 30.4702C36.2076 30.4702 36.4371 30.6607 36.5202 31.027L37.3516 34.0381C37.3908 34.1802 37.5939 34.1754 37.6265 34.0317L38.3176 30.9781C38.3909 30.6411 38.5765 30.4702 38.8744 30.4702C39.2212 30.4702 39.4556 30.6802 39.4556 30.9879C39.4556 31.0954 39.4361 31.1979 39.3921 31.3444L38.2736 35.2224C38.1515 35.6473 37.9122 35.8476 37.5019 35.8476C37.0672 35.8476 36.8328 35.662 36.7204 35.2175L35.956 32.4581C35.9176 32.3195 35.7211 32.3196 35.6828 32.4581L34.9182 35.2223C34.8156 35.6472 34.5665 35.8475 34.1465 35.8475C33.7265 35.8475 33.5116 35.657 33.3846 35.2223V35.2224Z" fill="black" style="fill:black;fill-opacity:1;"/>
<path d="M29.0532 30.4667C27.5444 30.4667 26.5483 31.4921 26.5483 33.162C26.5483 34.8319 27.5346 35.8525 29.0532 35.8525C30.5718 35.8525 31.5581 34.8417 31.5581 33.162C31.5581 31.4823 30.562 30.4667 29.0532 30.4667ZM29.0532 34.8906C28.2817 34.8906 27.7837 34.2656 27.7837 33.1621C27.7837 32.0586 28.2866 31.4336 29.0532 31.4336C29.8198 31.4336 30.3227 32.0635 30.3227 33.1621C30.3227 34.2607 29.8246 34.8906 29.0532 34.8906Z" fill="black" style="fill:black;fill-opacity:1;"/>
<path d="M20.9131 35.2079V29.2305C20.9131 28.8447 21.1426 28.6054 21.5138 28.6054C21.885 28.6054 22.1145 28.8447 22.1145 29.2305V30.7062C22.1145 30.8094 22.2211 30.878 22.315 30.8352C22.6103 30.7006 23.1908 30.4758 23.7749 30.4758C24.9176 30.4758 25.5867 31.2279 25.5867 32.4146V35.208C25.5867 35.6182 25.3328 35.8477 24.9763 35.8477C24.6198 35.8477 24.3707 35.6182 24.3707 35.208V32.6637C24.3707 31.9409 24.0093 31.5063 23.3061 31.5063C22.6029 31.5063 22.1292 32.0142 22.1292 32.776V35.208C22.1292 35.6182 21.8801 35.8477 21.5236 35.8477C21.1671 35.8477 20.9131 35.6181 20.9131 35.2079Z" fill="black" style="fill:black;fill-opacity:1;"/>
<path d="M17.1006 35.8671C15.6943 35.8671 14.7568 35.2812 14.4834 34.4804C14.4395 34.3632 14.415 34.2363 14.415 34.1191C14.415 33.7675 14.6396 33.5429 14.9716 33.5429C15.2499 33.5429 15.4257 33.6552 15.5624 33.9384C15.7821 34.5488 16.3876 34.8222 17.1396 34.8222C17.9892 34.8222 18.5849 34.4023 18.5849 33.8163C18.5849 33.3085 18.2333 32.996 17.3154 32.8055L16.5586 32.6492C15.1475 32.3611 14.4883 31.697 14.4883 30.6668C14.4883 29.4266 15.5772 28.5867 17.1055 28.5867C18.3506 28.5867 19.3174 29.1433 19.6055 30.076C19.6348 30.1541 19.6494 30.2469 19.6494 30.3641C19.6494 30.6717 19.4297 30.8817 19.1025 30.8817C18.8095 30.8817 18.6289 30.7547 18.497 30.4813C18.2577 29.8856 17.7548 29.6317 17.0956 29.6317C16.3143 29.6317 15.7577 30.0028 15.7577 30.5936C15.7577 31.0721 16.1093 31.3797 16.9882 31.5653L17.745 31.7216C19.2294 32.0292 19.8544 32.6249 19.8544 33.6699C19.8544 35.0176 18.7948 35.8672 17.1005 35.8672L17.1006 35.8671Z" fill="black" style="fill:black;fill-opacity:1;"/>
</svg>
