<svg width="81" height="54" viewBox="0 0 81 54" fill="none" xmlns="http://www.w3.org/2000/svg">
<rect x="1.8501" y="1.85" width="77.3" height="50.3" rx="3" stroke="#8B1EFF" style="stroke:#8B1EFF;stroke:color(display-p3 0.5448 0.1190 1.0000);stroke-opacity:1;" stroke-width="0.28"/>
<path d="M71.0068 37.0027C71.0848 27.0807 71.1919 17.1587 71.3298 7.23665C71.3199 6.87965 71.2788 6.52266 71.2035 6.17201C71.1305 5.82301 71.0245 5.48201 70.8847 5.15382C70.7467 4.82881 70.5757 4.51686 70.376 4.22511C70.176 3.93513 69.948 3.66512 69.6949 3.42079C69.4419 3.17781 69.1649 2.96077 68.8693 2.77412C68.5733 2.58711 68.2583 2.42915 67.9325 2.30342C67.6065 2.17744 67.2675 2.0815 66.9237 2.01741C66.5777 1.95345 66.2278 1.91939 65.8745 1.91585C48.9605 1.82491 32.0455 1.82491 15.1317 1.91548C14.7937 1.92159 14.4567 1.95454 14.1241 2.01485C13.7921 2.07381 13.4641 2.15974 13.1495 2.27437C12.9005 2.36739 12.6575 2.47835 12.4246 2.60493C12.1925 2.73299 11.9685 2.87801 11.7568 3.03865C11.5458 3.20058 11.3468 3.37856 11.163 3.57112C10.9779 3.76515 10.8099 3.97414 10.6587 4.19398C10.5067 4.41493 10.3716 4.64796 10.2538 4.88844C10.1358 5.13149 10.0358 5.38149 9.95245 5.63869C9.78644 6.15468 9.69144 6.69667 9.67773 7.23622C9.81174 17.1582 9.91876 27.0802 10.0002 37.0013C10.0251 37.6633 10.1751 38.3273 10.44 38.9409C10.709 39.5659 11.095 40.1389 11.571 40.6231C12.05 41.1111 12.618 41.5101 13.2408 41.796C13.8578 42.0809 14.5288 42.254 15.2026 42.3051C23.6317 42.6481 32.0667 42.8191 40.5034 42.819C48.9394 42.819 57.3744 42.648 65.8044 42.3047C66.4783 42.2537 67.1483 42.0807 67.7662 41.7968C68.3882 41.5098 68.9572 41.1109 69.4361 40.6232C69.9111 40.1383 70.2971 39.5662 70.5675 38.9408C70.8305 38.3278 70.9825 37.6638 71.0066 37.0007" stroke="#8B1EFF" style="stroke:#8B1EFF;stroke:color(display-p3 0.5448 0.1190 1.0000);stroke-opacity:1;" stroke-width="0.283" stroke-miterlimit="10"/>
<path d="M11.2583 38.7131V6.44019C11.2583 5.26575 12.2093 4.31372 13.3843 4.31372H16.9273H64.1312H67.6743C68.8483 4.31372 69.8003 5.26575 69.8003 6.4397V38.7127C69.8003 39.8871 68.8483 40.8391 67.6743 40.8391L13.3843 40.8392C12.2093 40.8392 11.2583 39.8871 11.2583 38.7131Z" stroke="#00FFFF" style="stroke:#00FFFF;stroke:color(display-p3 0.0000 1.0000 1.0000);stroke-opacity:1;" stroke-width="0.28" stroke-miterlimit="10"/>
<path d="M65.6805 41.1327C48.9365 41.8178 32.0695 41.8178 15.3265 41.1327C15.0304 41.12 14.7384 41.083 14.4494 41.018C14.3044 40.986 14.1624 40.947 14.0224 40.902C13.8833 40.856 13.7453 40.805 13.6104 40.746C13.4754 40.688 13.3443 40.623 13.2154 40.552C13.1503 40.516 13.0864 40.478 13.0224 40.439C12.9603 40.4 12.8984 40.36 12.8384 40.318C12.5964 40.15 12.3724 39.961 12.1694 39.749C12.1184 39.696 12.0683 39.642 12.0194 39.586C11.9714 39.531 11.9244 39.473 11.8783 39.415C11.7874 39.3 11.7023 39.18 11.6243 39.057C11.4684 38.811 11.3374 38.552 11.2304 38.28C11.2044 38.211 11.1794 38.142 11.1564 38.073C11.1333 38.003 11.1113 37.933 11.0914 37.863C11.0524 37.723 11.0184 37.582 10.9924 37.44C10.9393 37.156 10.9133 36.869 10.9124 36.577C10.8963 31.7904 10.8783 27.0025 10.8583 22.2155C10.8382 17.4284 10.8153 12.6414 10.7903 7.85341C10.7815 7.69783 10.7755 7.54182 10.7765 7.38686C10.7775 7.23085 10.7865 7.07686 10.8035 6.92287C10.8105 6.84584 10.8215 6.76881 10.8335 6.69185C10.8455 6.61482 10.8595 6.53883 10.8755 6.46187C10.9075 6.31087 10.9475 6.16182 10.9955 6.01485C11.0425 5.86885 11.0975 5.72585 11.1625 5.58485C11.1935 5.51485 11.2275 5.44582 11.2635 5.37685C11.3005 5.30885 11.3385 5.24086 11.3785 5.17384C11.5375 4.90883 11.7245 4.66682 11.9395 4.44685C11.9935 4.39186 12.0495 4.33784 12.1065 4.28682C12.1355 4.25984 12.1645 4.23482 12.1935 4.20882C12.2235 4.18385 12.2535 4.15883 12.2835 4.13387C12.4045 4.03682 12.5305 3.94582 12.6605 3.86287C12.9205 3.69685 13.1985 3.55983 13.4925 3.44887C13.7865 3.33882 14.0875 3.25984 14.3925 3.20686C14.6985 3.15382 15.0105 3.12685 15.3255 3.12581C32.07 3.03383 48.937 3.03383 65.68 3.12581C65.9961 3.12691 66.3081 3.15388 66.6131 3.20686C66.9191 3.2599 67.2201 3.33888 67.5141 3.44887C67.8081 3.55989 68.0851 3.69691 68.3461 3.86287C68.4761 3.94588 68.6011 4.0359 68.7221 4.13387C68.7521 4.15889 68.7821 4.18391 68.8121 4.20888C68.8411 4.2339 68.8701 4.2599 68.9001 4.2859C68.9561 4.33791 69.0121 4.39186 69.0661 4.44691C69.2801 4.66591 69.4681 4.90889 69.6281 5.1739C69.6681 5.23988 69.7061 5.30788 69.7421 5.37691C69.7791 5.4449 69.8121 5.51491 69.8441 5.58492C69.9071 5.72487 69.9631 5.86891 70.0111 6.01491C70.0591 6.1609 70.0991 6.30989 70.1301 6.46187C70.1471 6.53792 70.1601 6.61488 70.1731 6.69087C70.1851 6.7679 70.1951 6.84486 70.2031 6.92189C70.2201 7.07588 70.2281 7.23091 70.2301 7.38588C70.2311 7.54091 70.2251 7.69691 70.2161 7.85286C70.191 12.64 70.168 17.428 70.148 22.215C70.127 27.002 70.11 31.79 70.094 36.5767C70.093 36.8687 70.066 37.1587 70.013 37.4458C69.986 37.5907 69.952 37.7327 69.912 37.8717C69.872 38.0117 69.826 38.1497 69.773 38.2847C69.72 38.4198 69.66 38.5527 69.594 38.6837C69.561 38.7497 69.526 38.8147 69.49 38.8787C69.452 38.9428 69.414 39.0058 69.375 39.0667C69.217 39.3137 69.036 39.5427 68.832 39.7547C68.782 39.8067 68.729 39.8587 68.675 39.9087C68.621 39.9597 68.566 40.0087 68.509 40.0567C68.396 40.1527 68.28 40.2417 68.159 40.3237C67.917 40.4898 67.661 40.6317 67.39 40.7487C67.323 40.7777 67.253 40.8057 67.184 40.8317C67.115 40.8577 67.045 40.8817 66.975 40.9038C66.835 40.9497 66.694 40.9877 66.551 41.0197C66.266 41.0827 65.975 41.1207 65.6805 41.1327Z" stroke="#FF00FF" style="stroke:#FF00FF;stroke:color(display-p3 1.0000 0.0000 1.0000);stroke-opacity:1;" stroke-width="0.283465" stroke-miterlimit="10" stroke-linecap="round" stroke-linejoin="round"/>
<path d="M66.4144 44.9191V50.01H65.7979V45.5654H65.7681L64.5252 46.3907V45.7643L65.7979 44.9191H66.4144ZM68.0153 50.0498C67.8926 50.0498 67.7874 50.0059 67.6996 49.918C67.6117 49.8302 67.5678 49.725 67.5678 49.6023C67.5678 49.4797 67.6117 49.3745 67.6996 49.2866C67.7874 49.1988 67.8926 49.1549 68.0153 49.1549C68.1379 49.1549 68.2431 49.1988 68.331 49.2866C68.4188 49.3745 68.4627 49.4797 68.4627 49.6023C68.4627 49.6835 68.442 49.7581 68.4006 49.8261C68.3608 49.894 68.3069 49.9487 68.239 49.9901C68.1727 50.0299 68.0981 50.0498 68.0153 50.0498ZM70.9939 50.0796C70.7022 50.0796 70.4395 50.0216 70.2059 49.9056C69.9722 49.7896 69.7849 49.6305 69.6441 49.4283C69.5032 49.2262 69.4262 48.9958 69.4129 48.7373H70.0095C70.0327 48.9676 70.1371 49.1582 70.3227 49.309C70.51 49.4582 70.7337 49.5327 70.9939 49.5327C71.2027 49.5327 71.3883 49.4838 71.5507 49.3861C71.7148 49.2883 71.8432 49.1541 71.936 48.9834C72.0305 48.811 72.0777 48.6163 72.0777 48.3992C72.0777 48.1771 72.0288 47.9791 71.931 47.8051C71.8349 47.6294 71.7023 47.4911 71.5333 47.39C71.3643 47.2889 71.1712 47.2375 70.9541 47.2359C70.7983 47.2342 70.6384 47.2582 70.4743 47.308C70.3103 47.356 70.1752 47.4182 70.0692 47.4944L69.4925 47.4248L69.8007 44.9191H72.4456V45.466H70.3177L70.1388 46.9674H70.1686C70.273 46.8845 70.4039 46.8158 70.5613 46.7611C70.7188 46.7064 70.8828 46.679 71.0535 46.679C71.3651 46.679 71.6427 46.7536 71.8863 46.9028C72.1315 47.0503 72.3238 47.2524 72.463 47.5093C72.6038 47.7662 72.6743 48.0595 72.6743 48.3893C72.6743 48.7141 72.6014 49.0041 72.4555 49.2593C72.3113 49.5129 72.1125 49.7134 71.8589 49.8609C71.6054 50.0067 71.317 50.0796 70.9939 50.0796ZM75.3223 50.0796C74.9477 50.0796 74.6287 49.9777 74.3652 49.7739C74.1017 49.5684 73.9004 49.2709 73.7612 48.8815C73.622 48.4904 73.5524 48.0181 73.5524 47.4646C73.5524 46.9144 73.622 46.4446 73.7612 46.0551C73.902 45.664 74.1042 45.3657 74.3677 45.1602C74.6329 44.9531 74.9511 44.8495 75.3223 44.8495C75.6935 44.8495 76.0108 44.9531 76.2743 45.1602C76.5395 45.3657 76.7417 45.664 76.8809 46.0551C77.0217 46.4446 77.0922 46.9144 77.0922 47.4646C77.0922 48.0181 77.0225 48.4904 76.8833 48.8815C76.7441 49.2709 76.5428 49.5684 76.2793 49.7739C76.0158 49.9777 75.6968 50.0796 75.3223 50.0796ZM75.3223 49.5327C75.6935 49.5327 75.9818 49.3538 76.1873 48.9958C76.3928 48.6379 76.4956 48.1274 76.4956 47.4646C76.4956 47.0237 76.4483 46.6484 76.3539 46.3385C76.2611 46.0286 76.1268 45.7924 75.9512 45.63C75.7772 45.4676 75.5675 45.3864 75.3223 45.3864C74.9544 45.3864 74.6668 45.5679 74.4597 45.9308C74.2525 46.2921 74.149 46.8033 74.149 47.4646C74.149 47.9054 74.1954 48.2799 74.2882 48.5881C74.381 48.8964 74.5144 49.1309 74.6884 49.2916C74.8641 49.4524 75.0753 49.5327 75.3223 49.5327Z" fill="#0000FF" style="fill:#0000FF;fill:color(display-p3 0.0000 0.0000 1.0000);fill-opacity:1;"/>
<path fill-rule="evenodd" clip-rule="evenodd" d="M21.8186 8.49725C21.8728 8.49725 21.9288 8.50795 21.9844 8.53125L21.9843 8.53105C22.581 8.78125 23.4941 9.32665 24.7036 10.5133C25.3196 11.1175 25.4747 11.7383 25.3626 12.3393C25.3161 12.5887 25.4834 12.8115 25.7351 12.8476C26.2243 12.9178 26.6802 13.1424 27.0167 13.5788C27.3335 13.9898 27.337 14.431 27.2098 14.8424C27.1553 15.0185 27.211 15.2753 27.4726 15.3771C28.1278 15.632 28.5415 16.0159 28.721 16.5007C28.9499 17.1189 28.8886 17.6208 28.7069 18.0851C28.6326 18.275 28.7124 18.5667 28.9957 18.6469C29.8789 18.8968 30.5408 19.5498 30.5821 20.7657C30.6155 21.7472 29.6061 22.366 28.418 22.6732C27.4735 22.9174 26.6137 23.0027 25.7881 23.0027C24.8646 23.0027 23.9842 22.896 23.0769 22.7861L23.0752 22.7858C22.1099 22.6688 21.114 22.5482 20.0031 22.5482C19.3504 22.5482 18.6574 22.5899 17.9082 22.6986C17.7191 22.7259 17.54 22.7393 17.3708 22.7393C16.2446 22.7393 15.5662 22.1454 15.4403 21.138C15.2926 19.9558 15.8433 19.1319 17.0463 18.6918C17.3397 18.5844 17.3896 18.3107 17.2988 18.1204C17.0648 17.6299 17.0512 17.0794 17.2885 16.4567C17.4989 15.9045 17.9253 15.5616 18.513 15.3708C18.7363 15.2984 18.856 15.0645 18.7885 14.8426C18.5963 14.2105 18.6742 13.6108 19.0484 13.0037C19.3328 12.5424 19.747 12.2206 20.3156 12.0127C20.5798 11.916 20.6308 11.6467 20.5752 11.4711C20.4376 11.0371 20.6119 10.6195 21.0073 10.1483C21.0216 10.1312 21.0382 10.1122 21.0563 10.0915C21.2317 9.89105 21.5535 9.52305 21.4168 9.05255L21.4135 9.04135C21.3299 8.75625 21.5521 8.49705 21.8188 8.49705L21.8186 8.49725ZM21.8188 7.07975C21.5274 7.07975 21.2361 7.15075 20.9763 7.28505L20.9764 7.28515C20.7298 7.41265 20.5115 7.59755 20.345 7.81985C20.1795 8.04085 20.0643 8.30045 20.0119 8.57045C19.9747 8.76185 19.9688 8.95955 19.9937 9.15395L19.9897 9.15855C19.9679 9.18345 19.9454 9.20915 19.9218 9.23735C19.5572 9.67185 19.3223 10.0913 19.2034 10.5193C19.1617 10.6694 19.1343 10.8207 19.1213 10.9722C19.1189 10.9992 19.1033 11.0232 19.0801 11.0373C18.9847 11.0946 18.8929 11.1554 18.8049 11.2194C18.4184 11.5005 18.0944 11.8507 17.842 12.2602C17.5278 12.77 17.3414 13.306 17.2879 13.8534C17.2724 14.0127 17.268 14.1731 17.2749 14.3344C17.2762 14.3646 17.2611 14.3934 17.2354 14.4094C16.5197 14.8564 16.1527 15.4584 15.9644 15.9522C15.7641 16.4778 15.6774 17.0012 15.7068 17.5075C15.7105 17.5717 15.7161 17.6357 15.7235 17.6993C15.7274 17.7321 15.7113 17.7641 15.6832 17.7814C15.2556 18.045 14.9039 18.3668 14.6315 18.7448C14.3665 19.1125 14.1822 19.5271 14.0838 19.977C13.9923 20.3951 13.9757 20.8449 14.0343 21.314C14.1417 22.173 14.5165 22.8947 15.1183 23.4011C15.4245 23.6588 15.7822 23.854 16.1815 23.9813C16.5467 24.0979 16.947 24.1568 17.3712 24.1568C17.6089 24.1568 17.8582 24.1381 18.112 24.1014C18.7417 24.01 19.3604 23.9656 20.0035 23.9656C21.0289 23.9656 21.9828 24.0812 22.9052 24.193C23.8263 24.3046 24.7789 24.42 25.7885 24.42C26.7981 24.42 27.7985 24.2975 28.7732 24.0455C29.6152 23.8278 30.311 23.5035 30.8413 23.0812C31.1972 22.7979 31.4768 22.4706 31.6725 22.1083C31.7859 21.8983 31.8713 21.676 31.9261 21.4474C31.9829 21.2106 32.0074 20.965 31.999 20.7177C31.9831 20.2487 31.8996 19.809 31.7511 19.4109C31.599 19.0033 31.3787 18.6375 31.0964 18.3235C30.8712 18.0731 30.608 17.8574 30.3121 17.6804C30.2841 17.6636 30.2683 17.6323 30.2714 17.5998L30.2738 17.5732C30.3188 17.0569 30.2437 16.5306 30.0505 16.0087C29.8715 15.5254 29.5028 14.9187 28.7442 14.4363C28.7198 14.4207 28.7051 14.3938 28.7051 14.3649C28.7052 14.3176 28.7042 14.2705 28.7019 14.2235C28.6888 13.957 28.6364 13.6962 28.5462 13.4482C28.4515 13.188 28.3147 12.9408 28.1396 12.7136C27.8217 12.3011 27.4256 11.9787 26.9623 11.7547C26.9238 11.7361 26.8849 11.7183 26.8457 11.7011C26.8181 11.6892 26.799 11.6632 26.7957 11.6333C26.7775 11.4694 26.7464 11.3071 26.7024 11.1463C26.5389 10.5494 26.2005 9.99585 25.6966 9.50145C24.5733 8.39955 23.5088 7.63325 22.5328 7.22405C22.3045 7.12835 22.0643 7.07975 21.8189 7.07975H21.8188ZM25.1641 19.7708H20.8363C20.4127 19.7708 20.2198 20.3003 20.5448 20.5719C21.0588 21.0015 21.8639 21.4436 23.0002 21.4436C24.1365 21.4436 24.9415 21.0015 25.4556 20.5719C25.7806 20.3003 25.5876 19.7708 25.1641 19.7708ZM21.0253 15.5562C21.3384 15.5562 21.5922 16.0638 21.5922 16.6901C21.5922 17.3163 21.3384 17.824 21.0253 17.824C20.7122 17.824 20.4584 17.3163 20.4584 16.6901C20.4584 16.0638 20.7122 15.5562 21.0253 15.5562ZM21.0253 14.649C20.7325 14.649 20.4536 14.7541 20.2188 14.9528C20.0569 15.0897 19.9204 15.268 19.8131 15.4827C19.6418 15.8253 19.5513 16.2428 19.5513 16.6901C19.5513 17.1374 19.6418 17.5549 19.8131 17.8975C19.9204 18.1122 20.0569 18.2903 20.2188 18.4274C20.4536 18.626 20.7325 18.7311 21.0253 18.7311C21.3181 18.7311 21.597 18.626 21.8318 18.4274C21.9937 18.2905 22.1302 18.1122 22.2375 17.8975C22.4088 17.5549 22.4993 17.1374 22.4993 16.6901C22.4993 16.2428 22.4088 15.8252 22.2375 15.4827C22.1302 15.268 21.9937 15.0898 21.8318 14.9528C21.597 14.7541 21.3181 14.649 21.0253 14.649ZM25.5419 16.7071C25.5419 16.0808 25.2881 15.5731 24.975 15.5731C24.6619 15.5731 24.4081 16.0808 24.4081 16.7071C24.4081 17.3334 24.6619 17.841 24.975 17.841C25.2881 17.841 25.5419 17.3334 25.5419 16.7071ZM24.1685 14.9697C24.4033 14.771 24.6822 14.666 24.975 14.666C25.2678 14.666 25.5467 14.771 25.7815 14.9697C25.9434 15.1067 26.0799 15.285 26.1872 15.4997C26.3585 15.8421 26.449 16.2598 26.449 16.7071C26.449 17.1544 26.3585 17.5718 26.1872 17.9144C26.0799 18.1291 25.9434 18.3074 25.7815 18.4443C25.5467 18.643 25.2678 18.7481 24.975 18.7481C24.6822 18.7481 24.4033 18.643 24.1685 18.4443C24.0066 18.3073 23.8701 18.1291 23.7628 17.9144C23.5915 17.5719 23.501 17.1544 23.501 16.7071C23.501 16.2598 23.5915 15.8422 23.7628 15.4997C23.8701 15.285 24.0066 15.1067 24.1685 14.9697Z" fill="black" style="fill:black;fill-opacity:1;"/>
<path d="M33.3846 35.2224L32.2612 31.3542C32.2221 31.2028 32.2026 31.1003 32.2026 30.9928C32.2026 30.6851 32.4419 30.4702 32.7887 30.4702C33.0915 30.4702 33.282 30.646 33.3553 30.983L34.0246 34.0282C34.0563 34.1723 34.2597 34.1781 34.2995 34.036L35.1428 31.027C35.2259 30.6656 35.4652 30.4702 35.8364 30.4702C36.2076 30.4702 36.4371 30.6607 36.5202 31.027L37.3516 34.0381C37.3908 34.1802 37.5939 34.1754 37.6265 34.0317L38.3176 30.9781C38.3909 30.6411 38.5765 30.4702 38.8744 30.4702C39.2212 30.4702 39.4556 30.6802 39.4556 30.9879C39.4556 31.0954 39.4361 31.1979 39.3921 31.3444L38.2736 35.2224C38.1515 35.6473 37.9122 35.8476 37.5019 35.8476C37.0672 35.8476 36.8328 35.662 36.7204 35.2175L35.956 32.4581C35.9176 32.3195 35.7211 32.3196 35.6828 32.4581L34.9182 35.2223C34.8156 35.6472 34.5665 35.8475 34.1465 35.8475C33.7265 35.8475 33.5116 35.657 33.3846 35.2223V35.2224Z" fill="black" style="fill:black;fill-opacity:1;"/>
<path d="M29.0532 30.4667C27.5444 30.4667 26.5483 31.4921 26.5483 33.162C26.5483 34.8319 27.5346 35.8525 29.0532 35.8525C30.5718 35.8525 31.5581 34.8417 31.5581 33.162C31.5581 31.4823 30.562 30.4667 29.0532 30.4667ZM29.0532 34.8906C28.2817 34.8906 27.7837 34.2656 27.7837 33.1621C27.7837 32.0586 28.2866 31.4336 29.0532 31.4336C29.8198 31.4336 30.3227 32.0635 30.3227 33.1621C30.3227 34.2607 29.8246 34.8906 29.0532 34.8906Z" fill="black" style="fill:black;fill-opacity:1;"/>
<path d="M20.9131 35.2079V29.2305C20.9131 28.8447 21.1426 28.6054 21.5138 28.6054C21.885 28.6054 22.1145 28.8447 22.1145 29.2305V30.7062C22.1145 30.8094 22.2211 30.878 22.315 30.8352C22.6103 30.7006 23.1908 30.4758 23.7749 30.4758C24.9176 30.4758 25.5867 31.2279 25.5867 32.4146V35.208C25.5867 35.6182 25.3328 35.8477 24.9763 35.8477C24.6198 35.8477 24.3707 35.6182 24.3707 35.208V32.6637C24.3707 31.9409 24.0093 31.5063 23.3061 31.5063C22.6029 31.5063 22.1292 32.0142 22.1292 32.776V35.208C22.1292 35.6182 21.8801 35.8477 21.5236 35.8477C21.1671 35.8477 20.9131 35.6181 20.9131 35.2079Z" fill="black" style="fill:black;fill-opacity:1;"/>
<path d="M17.1006 35.8671C15.6943 35.8671 14.7568 35.2812 14.4834 34.4804C14.4395 34.3632 14.415 34.2363 14.415 34.1191C14.415 33.7675 14.6396 33.5429 14.9716 33.5429C15.2499 33.5429 15.4257 33.6552 15.5624 33.9384C15.7821 34.5488 16.3876 34.8222 17.1396 34.8222C17.9892 34.8222 18.5849 34.4023 18.5849 33.8163C18.5849 33.3085 18.2333 32.996 17.3154 32.8055L16.5586 32.6492C15.1475 32.3611 14.4883 31.697 14.4883 30.6668C14.4883 29.4266 15.5772 28.5867 17.1055 28.5867C18.3506 28.5867 19.3174 29.1433 19.6055 30.076C19.6348 30.1541 19.6494 30.2469 19.6494 30.3641C19.6494 30.6717 19.4297 30.8817 19.1025 30.8817C18.8095 30.8817 18.6289 30.7547 18.497 30.4813C18.2577 29.8856 17.7548 29.6317 17.0956 29.6317C16.3143 29.6317 15.7577 30.0028 15.7577 30.5936C15.7577 31.0721 16.1093 31.3797 16.9882 31.5653L17.745 31.7216C19.2294 32.0292 19.8544 32.6249 19.8544 33.6699C19.8544 35.0176 18.7948 35.8672 17.1005 35.8672L17.1006 35.8671Z" fill="black" style="fill:black;fill-opacity:1;"/>
</svg>
