<svg width="54" height="54" viewBox="0 0 54 54" fill="none" xmlns="http://www.w3.org/2000/svg">
<rect x="1.8501" y="1.85001" width="50.3" height="50.3" rx="3" stroke="#16215B" stroke-width="0.28"/>
<path d="M9.91309 37.0476C9.83508 27.0606 9.73608 17.0726 9.61914 7.08457L9.6192 7.08213C9.62323 6.91611 9.63623 6.7501 9.65631 6.58396C9.67633 6.41892 9.70233 6.25498 9.73553 6.09153C9.76752 5.92954 9.80652 5.76853 9.85266 5.60972C9.89966 5.45176 9.95166 5.29575 10.0115 5.14158C10.1985 4.66758 10.4535 4.21665 10.77 3.81431C11.083 3.41733 11.456 3.06833 11.8725 2.78391C12.2875 2.50193 12.7465 2.28391 13.2258 2.13694C13.7078 1.98984 14.2118 1.91392 14.7141 1.90659C18.8081 1.87168 22.9021 1.85459 26.9963 1.85496C31.0893 1.85496 35.1833 1.87192 39.2776 1.9072C39.4396 1.91013 39.6016 1.92112 39.7635 1.93772C40.0035 1.96372 40.2435 2.00474 40.4799 2.0615C40.7139 2.11851 40.9449 2.1904 41.1697 2.27952C41.4037 2.37253 41.6287 2.4835 41.8449 2.61069C42.062 2.73862 42.2689 2.88267 42.4627 3.0416C42.6577 3.20164 42.8417 3.37668 43.0105 3.56321C43.1795 3.75217 43.3355 3.9542 43.476 4.16575C43.757 4.59482 43.975 5.06479 44.125 5.55649C44.276 6.05442 44.358 6.57444 44.373 7.09263C44.252 17.0696 44.154 27.0466 44.08 37.0251C44.074 37.185 44.0601 37.3451 44.039 37.5036C44.018 37.6646 43.991 37.8236 43.9569 37.9813C43.9239 38.1402 43.8839 38.2983 43.8358 38.4537C43.7888 38.6097 43.7349 38.7636 43.675 38.9156C43.484 39.3907 43.228 39.8407 42.9172 40.2495C42.6032 40.6605 42.2352 41.0285 41.8244 41.3395C41.4154 41.6495 40.9624 41.9035 40.4838 42.0906C40.0098 42.2755 39.5098 42.3955 39.0063 42.4435C31.0073 42.9535 22.9843 42.9535 14.9849 42.4436C14.6529 42.4116 14.3229 42.3476 14.0024 42.2535C13.6794 42.1595 13.3654 42.0345 13.0632 41.8819C12.4602 41.5749 11.9092 41.1568 11.4476 40.6577C10.9866 40.1606 10.6126 39.5816 10.349 38.9596C10.219 38.6516 10.115 38.3325 10.0411 38.0056C9.96912 37.6836 9.92407 37.3546 9.91113 37.0245" stroke="#16215B" stroke-width="0.283" stroke-miterlimit="10"/>
<rect x="12.6855" y="5.52831" width="28.63" height="34.31" rx="1.43" stroke="#00FFFF" stroke-width="0.28"/>
<path d="M42.9399 36.5841C42.9578 31.7321 42.9778 26.8791 43.0009 22.0272C43.0219 17.1742 43.0469 12.3221 43.0759 7.46909C43.0767 7.32443 43.0717 7.18039 43.0596 7.03745C43.0497 6.89438 43.0317 6.75143 43.0076 6.61044C42.9606 6.32834 42.8887 6.05441 42.7897 5.7894C42.7646 5.72336 42.7386 5.65744 42.7106 5.59238C42.6816 5.52634 42.6526 5.4614 42.6216 5.39841C42.5587 5.27036 42.4907 5.14743 42.4156 5.02841C42.2667 4.79037 42.0936 4.5704 41.8937 4.36642C41.6957 4.16342 41.4777 3.98642 41.2437 3.83334C41.1266 3.75742 41.0057 3.68637 40.8796 3.62241C40.8167 3.59042 40.7537 3.55942 40.6877 3.53036C40.6237 3.50034 40.5566 3.47336 40.4907 3.44736C40.2236 3.34335 39.9507 3.2684 39.6716 3.21738C39.3926 3.16635 39.1077 3.14035 38.8167 3.13742C37.8378 3.12985 36.8568 3.1218 35.8738 3.11581C34.8898 3.10886 33.9058 3.10385 32.9208 3.09885C30.9498 3.09079 28.9758 3.08688 26.9988 3.08688C26.5038 3.08688 26.0098 3.08688 25.5148 3.08688C25.0208 3.08786 24.5258 3.08884 24.0308 3.08981C23.0418 3.09189 22.0538 3.09482 21.0688 3.09885C19.0968 3.10788 17.1328 3.12082 15.1758 3.13779C15.0301 3.13889 14.8861 3.14682 14.7411 3.15988C14.5981 3.1738 14.4541 3.19284 14.3131 3.21884C14.0301 3.27084 13.7561 3.34787 13.4911 3.45187C13.4251 3.47787 13.3601 3.50485 13.2951 3.53488C13.2301 3.56381 13.1651 3.59579 13.1021 3.6279C12.9751 3.69382 12.8541 3.76486 12.7361 3.84286C12.5011 3.9968 12.2841 4.17587 12.0861 4.37985C12.0371 4.4299 11.9891 4.48288 11.9431 4.53586C11.8971 4.58884 11.8521 4.64279 11.8091 4.69882C11.7231 4.80881 11.6431 4.9238 11.5691 5.04184C11.4951 5.16086 11.4281 5.2839 11.3651 5.40988C11.3351 5.47287 11.3061 5.53683 11.2781 5.60287C11.2501 5.66782 11.2241 5.73483 11.1991 5.80185C11.1011 6.06784 11.0301 6.34079 10.9841 6.61887C10.9381 6.89682 10.9151 7.18088 10.9171 7.46982C10.9454 12.3224 10.9714 17.1744 10.9935 22.0274C11.0165 26.8794 11.0355 31.7324 11.0535 36.5844C11.0541 36.8712 11.0781 37.1551 11.1281 37.4392C11.1411 37.5101 11.1552 37.5811 11.1701 37.6511C11.1862 37.7212 11.2021 37.7911 11.2211 37.8601C11.2581 37.9991 11.3011 38.1351 11.3502 38.2701C11.3991 38.4051 11.4531 38.5382 11.5151 38.6682C11.5461 38.7331 11.5771 38.7982 11.6121 38.8622C11.6461 38.9261 11.6812 38.9901 11.7181 39.0532C11.8651 39.3032 12.0331 39.5361 12.2241 39.7531C12.3192 39.8612 12.4201 39.9652 12.5272 40.0652C12.5791 40.1151 12.6342 40.1632 12.6901 40.2102C12.7451 40.2572 12.8011 40.3021 12.8591 40.3462C13.0881 40.5211 13.3322 40.6721 13.5921 40.7982C13.6571 40.8302 13.7231 40.8601 13.7902 40.8882C13.8571 40.9171 13.9241 40.9431 13.9921 40.9681C14.1281 41.0182 14.2651 41.0611 14.4041 41.0971C14.6801 41.1692 14.9631 41.2131 15.2512 41.2312C16.2243 41.2916 17.1993 41.3446 18.1773 41.3896C19.1533 41.4356 20.1323 41.4726 21.1113 41.5027C23.0683 41.5636 25.0293 41.5936 26.9943 41.5936C27.4853 41.5936 27.9773 41.5916 28.4683 41.5876C28.9593 41.5846 29.4513 41.5786 29.9423 41.5706C30.9253 41.5556 31.9063 41.5335 32.8863 41.5027C34.8443 41.4426 36.7963 41.3526 38.7416 41.2315C38.8866 41.2226 39.0296 41.2066 39.1726 41.1845C39.2436 41.1726 39.3146 41.1596 39.3866 41.1446C39.4566 41.1296 39.5276 41.1136 39.5966 41.0946C39.8766 41.0226 40.1456 40.9226 40.4046 40.7956C40.4706 40.7646 40.5336 40.7315 40.5966 40.6966C40.6606 40.6616 40.7236 40.6246 40.7856 40.5855C40.9096 40.5096 41.0286 40.4266 41.1426 40.3386C41.3726 40.1635 41.5826 39.9666 41.7736 39.7486C41.8216 39.6936 41.8676 39.6375 41.9136 39.5807C41.9586 39.5237 42.0026 39.4655 42.0446 39.4066C42.1296 39.2896 42.2076 39.1685 42.2796 39.0446C42.4256 38.7966 42.5466 38.5376 42.6446 38.2656C42.6696 38.1976 42.6926 38.1286 42.7146 38.0595C42.7356 37.9906 42.7556 37.9216 42.7736 37.8526C42.8106 37.7136 42.8416 37.5746 42.8656 37.4345C42.9146 37.1537 42.9386 36.8706 42.9399 36.5841Z" stroke="#FF00FF" stroke-width="0.283465" stroke-miterlimit="10" stroke-linecap="round" stroke-linejoin="round"/>
<path d="M16.3967 22.8783C16.1253 22.8783 15.8562 22.7803 15.642 22.5892C15.27 22.2573 15.158 21.7291 15.3633 21.2749L16.329 19.1381C16.3574 19.0752 16.3363 19.0012 16.2792 18.9624C16.0379 18.7985 15.8106 18.6232 15.5996 18.4381C15.228 18.1119 14.906 17.7543 14.6426 17.3752C14.3691 16.9815 14.1578 16.5633 14.0147 16.1322C13.8656 15.6828 13.79 15.2179 13.79 14.7506C13.79 13.9466 14.0084 13.1701 14.4391 12.4427C14.8423 11.7618 15.4137 11.1544 16.1374 10.6375C16.8435 10.1332 17.6618 9.73837 18.5697 9.46407C19.4993 9.18317 20.4851 9.04077 21.4997 9.04077C22.5143 9.04077 23.5 9.18317 24.4296 9.46397C25.3375 9.73827 26.1558 10.1331 26.8619 10.6374C27.5856 11.1544 28.157 11.7617 28.5602 12.4426C28.9909 13.17 29.2093 13.9465 29.2093 14.7505C29.2093 15.5545 28.9909 16.331 28.5602 17.0584C28.157 17.7393 27.5856 18.3467 26.8619 18.8636C26.1559 19.3679 25.3375 19.7627 24.4296 20.037C23.5 20.3178 22.5142 20.4603 21.4997 20.4603C21.28 20.4603 21.0589 20.4534 20.8398 20.4398C20.8113 20.438 20.7829 20.4448 20.7584 20.4595L16.9796 22.7166C16.798 22.825 16.5967 22.8783 16.3967 22.8783ZM21.4997 10.4607C20.6244 10.4607 19.7768 10.5827 18.9804 10.8233C18.2212 11.0527 17.5424 11.3789 16.9628 11.7929C15.8324 12.6003 15.2099 13.6507 15.2099 14.7506C15.2099 15.3826 15.4114 15.9931 15.8088 16.5651C16.2072 17.1385 16.7989 17.6561 17.5201 18.0618C17.7049 18.1659 17.8434 18.3335 17.9107 18.5339C17.9793 18.7382 17.9683 18.9587 17.8796 19.1548L17.1244 20.8258C17.0958 20.889 17.1657 20.9514 17.2253 20.9158L20.2225 19.1255C20.377 19.0334 20.5526 18.993 20.7309 19.0082C20.9839 19.0295 21.2427 19.0404 21.4995 19.0404C22.3748 19.0404 23.2224 18.9184 24.0187 18.6778C24.7779 18.4484 25.4567 18.1222 26.0363 17.7082C27.1666 16.9008 27.7892 15.8504 27.7892 14.7505C27.7892 13.6506 27.1667 12.6002 26.0363 11.7928C25.4567 11.3788 24.7779 11.0526 24.0187 10.8232C23.2224 10.5826 22.3748 10.4606 21.4995 10.4606L21.4997 10.4607ZM20.6114 20.4231C20.6114 20.4231 20.612 20.4231 20.6123 20.4231C20.612 20.4231 20.6117 20.4231 20.6114 20.4231Z" fill="black"/>
<path d="M27.502 34.8362C26.745 34.8362 26.242 34.1769 26.2371 33.1611C26.242 32.1551 26.7158 31.486 27.502 31.486C28.2882 31.486 28.7766 32.1404 28.7766 33.1611C28.7766 34.1867 28.259 34.8362 27.502 34.8362ZM30.0219 33.161C30.0219 31.5054 29.1868 30.4848 27.873 30.4848C27.387 30.4848 26.6169 30.7288 26.316 30.8308C26.2485 30.8537 26.1738 30.824 26.1421 30.76C26.1341 30.7437 26.1258 30.7275 26.1154 30.7127C25.9961 30.5422 25.8204 30.4702 25.6217 30.4702C25.2749 30.4702 25.0308 30.6948 25.0308 31.0953V36.951C25.0308 37.3613 25.2798 37.5908 25.6364 37.5908C25.993 37.5908 26.2469 37.3613 26.2469 36.951V35.5928C26.2469 35.4901 26.3528 35.4212 26.4464 35.4634C26.8083 35.6263 27.411 35.8325 27.8927 35.8325C29.1917 35.8325 30.022 34.8118 30.022 33.1611L30.0219 33.161Z" fill="black"/>
<path d="M22.6496 33.8314C22.6496 34.4563 22.0931 34.9153 21.4095 34.9153C20.8823 34.9153 20.5258 34.6468 20.5258 34.2221C20.5258 33.7974 20.8627 33.5484 21.4485 33.5093L22.5969 33.4393C22.6254 33.4376 22.6495 33.4602 22.6495 33.4888V33.8316L22.6496 33.8314ZM21.7317 30.4675C20.7406 30.4675 20.169 30.8078 19.8767 31.1352C19.7074 31.3249 19.6857 31.7243 19.9179 31.91C20.1893 32.127 20.6439 31.9646 20.8001 31.7726C20.9403 31.6002 21.2551 31.4251 21.6827 31.4195C22.2831 31.4116 22.6494 31.732 22.6494 32.2739V32.4765C22.6494 32.5028 22.6289 32.5245 22.6026 32.526L21.2774 32.6015C20.018 32.6796 19.3101 33.3529 19.3101 34.2707C19.3101 35.1885 20.04 35.833 21.0384 35.833C21.6702 35.833 22.2861 35.668 22.5925 35.5427C22.6568 35.5164 22.7305 35.5412 22.7667 35.6005C22.7695 35.605 22.7719 35.6088 22.7739 35.6117C22.8553 35.7276 23.0018 35.8476 23.2598 35.8476C23.6016 35.8476 23.8505 35.6279 23.8505 35.2374V32.186C23.8505 31.1461 23.0157 30.4675 21.7317 30.4675Z" fill="black"/>
<path d="M16.6095 35.8329C16.2189 35.8329 15.9845 35.5936 15.9845 35.1786V33.0563C15.9845 33.001 15.9683 32.9469 15.938 32.9007L13.7823 29.617C13.6944 29.4754 13.6553 29.3387 13.6553 29.1971C13.6553 28.8651 13.9239 28.6209 14.2803 28.6209C14.544 28.6209 14.6953 28.7137 14.8565 28.9871L16.4993 31.6028C16.5548 31.6912 16.6836 31.6913 16.7393 31.603L18.3868 28.9872C18.5431 28.7235 18.6993 28.621 18.9483 28.621C19.2999 28.621 19.5684 28.8651 19.5684 29.1923C19.5684 29.3388 19.5293 29.4706 19.4366 29.6171L17.2857 32.9009C17.2555 32.9471 17.2394 33.001 17.2394 33.0562V35.1787C17.2394 35.5937 17.005 35.833 16.6095 35.833V35.8329Z" fill="black"/>
</svg>
