<svg width="32" height="32" viewBox="0 0 32 32" fill="none" xmlns="http://www.w3.org/2000/svg">
<path fill-rule="evenodd" clip-rule="evenodd" d="M22.9783 29.7882C27.0518 29.7882 30.3832 26.4568 30.3832 22.2905L30.4001 22.3073C30.4001 18.2253 27.0771 14.8939 22.9951 14.8939H9.79611C9.18887 14.8939 8.6744 15.3915 8.6744 16.0157C8.6744 16.6398 9.18887 17.1374 9.79611 17.1374H22.9951C25.8374 17.1374 28.1567 19.5495 28.1567 22.3917C28.1567 25.2339 25.8374 27.5532 22.9951 27.5532H9.2479C7.82257 27.5532 5.89965 26.9291 4.77794 25.2086C3.31044 22.9314 3.58876 19.3808 5.57916 14.9108C6.88641 11.9758 7.72137 8.09623 8.08403 5.5745L10.6901 7.73357C10.8841 7.89382 11.1455 7.99502 11.3985 7.99502H22.0927C22.3457 7.99502 22.5988 7.89382 22.8012 7.73357L25.4157 5.5745C25.6856 7.43839 26.2085 10.0192 26.9422 12.3047C27.094 12.7939 27.541 13.0891 28.0133 13.0891C28.1229 13.0891 28.2326 13.0722 28.3507 13.0385C28.941 12.8529 29.27 12.212 29.0675 11.63C27.8952 7.91912 27.4314 4.01423 27.4482 3.54193C27.5326 3.0865 27.3049 2.62264 26.9085 2.38649C26.4952 2.1419 25.9892 2.20094 25.6181 2.49613L21.6795 5.75161H11.7949L7.83944 2.49613C7.47679 2.19251 6.96232 2.1166 6.56592 2.34432C6.1611 2.58047 5.93338 3.01059 6.01772 3.47446C6.05989 4.22508 5.32614 9.93482 3.51286 13.9915C0.586297 20.5447 1.55619 24.3821 2.88032 26.4231C4.49119 28.9026 7.2069 29.7882 9.23103 29.7882H22.9783ZM10.2262 23.7158H12.554C12.7986 23.7158 13.001 23.5134 13.001 23.2688V20.941C13.001 20.6965 12.7986 20.4941 12.554 20.4941H10.2262C9.98165 20.4941 9.77924 20.6965 9.77924 20.941V23.2688C9.77924 23.5134 9.98165 23.7158 10.2262 23.7158ZM15.2613 23.7158H17.589C17.8336 23.7158 18.036 23.5134 18.036 23.2688V20.941C18.036 20.6965 17.8336 20.4941 17.589 20.4941H15.2613C15.0167 20.4941 14.8143 20.6965 14.8143 20.941V23.2688C14.8143 23.5134 15.0167 23.7158 15.2613 23.7158ZM22.6156 23.7158H20.2878C20.0432 23.7158 19.8408 23.5134 19.8408 23.2688V20.941C19.8408 20.6965 20.0432 20.4941 20.2878 20.4941H22.6156C22.8602 20.4941 23.0626 20.6965 23.0626 20.941V23.2688C23.0626 23.5134 22.8602 23.7158 22.6156 23.7158Z" fill="#61AFFF"/>
</svg>
