<svg width="13" height="18" viewBox="0 0 13 18" fill="none" xmlns="http://www.w3.org/2000/svg">
<path d="M2.45435 12.1902C3.57023 12.7143 4.82609 12.9256 6.08651 12.8019C7.19002 12.6967 8.3147 12.3097 9.29484 11.7023L10.7551 13.1626C10.9566 13.3631 11.2561 13.4214 11.5116 13.3146C11.7766 13.2081 11.9475 12.9539 11.9475 12.6671L11.9472 7.33216C11.9472 6.94674 11.6337 6.63294 11.2483 6.63294H5.91333C5.72843 6.63294 5.55396 6.70521 5.41398 6.84323C5.35148 6.90768 5.30265 6.9819 5.2675 7.06458C5.15942 7.32695 5.21867 7.62643 5.41919 7.8263L6.8658 9.27324C5.93937 10.3712 4.35995 11.0005 2.81698 10.8618C2.47909 10.8328 2.16528 11.0447 2.07674 11.3751C1.9882 11.7036 2.14771 12.0467 2.45435 12.1902Z" fill="white"/>
</svg>
