<svg width="32" height="32" viewBox="0 0 32 32" fill="none" xmlns="http://www.w3.org/2000/svg">
<path d="M26.0778 5.9224C24.562 4.40666 21.8929 4.34272 16.0001 4.34272C10.1073 4.34272 7.43815 4.40666 5.9224 5.92211C4.40666 7.43757 4.34272 10.107 4.34272 15.9998C4.34272 21.8926 4.40666 24.562 5.92211 26.0775C7.43786 27.593 10.1065 27.6569 15.9984 27.6569H16.0001C21.8932 27.6569 24.562 27.593 26.0778 26.0772C27.5932 24.562 27.6572 21.8932 27.6572 16.0015C27.6572 10.1099 27.5932 7.43757 26.0778 5.92211V5.9224ZM23.5523 13.6417C23.5523 14.2934 23.2387 14.9132 22.7137 15.3L22.3761 15.5485C22.0706 15.7732 21.642 15.7078 21.4174 15.4028C21.193 15.0978 21.2581 14.6687 21.5631 14.444L21.9006 14.1955C22.0763 14.0665 22.1809 13.8594 22.1809 13.6417V10.3976C22.1809 10.1402 22.002 10.0241 21.9248 9.98608C21.8479 9.94807 21.6466 9.87693 21.4427 10.0336L15.9989 14.2145L10.5572 10.0342C10.3524 9.87722 10.1517 9.94864 10.0751 9.98637C9.99789 10.0244 9.81904 10.1404 9.81904 10.3979V13.6451C9.81904 13.8628 9.92359 14.0702 10.099 14.1992L15.9987 18.5388L18.129 16.9709C18.4852 16.7089 18.9072 16.5703 19.3492 16.5703H21.4928C22.6284 16.5703 23.552 17.494 23.552 18.6295V21.3762C23.552 22.5115 22.6284 23.4351 21.4928 23.4351H10.5068C9.37149 23.4351 8.44787 22.5115 8.44787 21.3762V18.4665C8.44787 17.9599 8.64515 17.4839 9.00314 17.1259C9.27098 16.8581 9.70499 16.8581 9.97283 17.1259C10.2407 17.3937 10.2407 17.8277 9.97283 18.0956C9.87376 18.1947 9.81933 18.3263 9.81933 18.4665V21.3762C9.81933 21.7552 10.1278 22.0636 10.5068 22.0636H21.4934C21.8727 22.0636 22.1812 21.7552 22.1812 21.3762V18.6295C22.1812 18.2502 21.8727 17.9418 21.4934 17.9418H19.3498C19.2044 17.9418 19.0595 17.989 18.9423 18.0754L15.9992 20.2412L9.28682 15.304C8.76151 14.9175 8.44816 14.2974 8.44816 13.6454V10.3982C8.44816 9.69607 8.83955 9.06707 9.46941 8.75661C10.0996 8.44615 10.8365 8.5193 11.3932 8.94698L15.9995 12.4856L20.6078 8.9464C21.1648 8.51872 21.9021 8.44586 22.5316 8.75632C23.1615 9.06679 23.5529 9.69578 23.5529 10.3979V13.642L23.5523 13.6417ZM28.0175 3.98301C25.6346 1.6001 22.2123 1.6001 16.0001 1.6001C9.78794 1.6001 6.36592 1.6001 3.98301 3.98301C1.6001 6.36592 1.6001 9.78794 1.6001 16.0001C1.6001 22.2123 1.6001 25.6348 3.98301 28.0175C6.36563 30.4001 9.78707 30.4001 15.9987 30.4001H16.0004C22.2125 30.4001 25.6346 30.4001 28.0175 28.0172C30.4001 25.6348 30.4001 22.2131 30.4001 16.0001C30.4001 9.78707 30.4001 6.36592 28.0175 3.98301ZM27.0478 27.0475C25.0666 29.0286 21.8465 29.0286 16.0004 29.0286H15.9987C10.1537 29.0286 6.93386 29.0286 4.95299 27.0478C2.97184 25.0669 2.97184 21.8465 2.97184 16.0001C2.97184 10.1537 2.97184 6.93386 4.95299 4.95271C6.93386 2.97155 10.1543 2.97155 16.0001 2.97155C21.8459 2.97155 25.066 2.97155 27.0475 4.95271C29.0284 6.93386 29.0284 10.154 29.0284 16.0018C29.0284 21.8497 29.0284 25.0666 27.0475 27.0475H27.0478Z" fill="#61AFFF"/>
</svg>
