<svg width="48" height="48" viewBox="0 0 48 48" fill="none" xmlns="http://www.w3.org/2000/svg">
<path d="M40.7962 7.20384C38.2699 4.6776 33.8213 4.57104 24 4.57104C14.1787 4.57104 9.73008 4.6776 7.20384 7.20336C4.6776 9.72912 4.57104 14.1782 4.57104 23.9995C4.57104 33.8208 4.6776 38.2699 7.20336 40.7957C9.7296 43.3214 14.1773 43.428 23.9971 43.428H24C33.8218 43.428 38.2699 43.3214 40.7962 40.7952C43.3219 38.2699 43.4285 33.8218 43.4285 24.0024C43.4285 14.183 43.3219 9.72912 40.7962 7.20336V7.20384ZM36.587 20.0693C36.587 21.1555 36.0643 22.1885 35.1893 22.8331L34.6267 23.2474C34.1174 23.6218 33.4032 23.5128 33.0288 23.0045C32.6549 22.4962 32.7634 21.781 33.2717 21.4066L33.8342 20.9923C34.127 20.7773 34.3013 20.4322 34.3013 20.0693V14.6626C34.3013 14.2334 34.0032 14.04 33.8746 13.9766C33.7464 13.9133 33.4109 13.7947 33.071 14.0558L23.9981 21.024L14.9285 14.0568C14.5872 13.7952 14.2526 13.9142 14.125 13.9771C13.9963 14.0405 13.6982 14.2339 13.6982 14.663V20.075C13.6982 20.4379 13.8725 20.7835 14.1648 20.9986L23.9976 28.2312L27.5482 25.6181C28.1419 25.1813 28.8451 24.9504 29.5819 24.9504H33.1546C35.0472 24.9504 36.5866 26.4898 36.5866 28.3824V32.9602C36.5866 34.8523 35.0472 36.3917 33.1546 36.3917H14.8445C12.9523 36.3917 11.413 34.8523 11.413 32.9602V28.1107C11.413 27.2664 11.7418 26.473 12.3384 25.8763C12.7848 25.4299 13.5082 25.4299 13.9546 25.8763C14.401 26.3227 14.401 27.0461 13.9546 27.4925C13.7894 27.6576 13.6987 27.877 13.6987 28.1107V32.9602C13.6987 33.5918 14.2128 34.1059 14.8445 34.1059H33.1555C33.7877 34.1059 34.3018 33.5918 34.3018 32.9602V28.3824C34.3018 27.7502 33.7877 27.2362 33.1555 27.2362H29.5829C29.3405 27.2362 29.099 27.3149 28.9037 27.4589L23.9986 31.0685L12.8112 22.8398C11.9357 22.1957 11.4134 21.1622 11.4134 20.0755V14.6635C11.4134 13.4933 12.0658 12.445 13.1155 11.9275C14.1658 11.4101 15.3941 11.532 16.3219 12.2448L23.999 18.1426L31.6795 12.2438C32.6078 11.531 33.8366 11.4096 34.8859 11.927C35.9357 12.4445 36.588 13.4928 36.588 14.663V20.0698L36.587 20.0693ZM44.029 3.97152C40.0574 0 34.3536 0 24 0C13.6464 0 7.94304 0 3.97152 3.97152C0 7.94304 0 13.6464 0 24C0 34.3536 0 40.0579 3.97152 44.029C7.94256 48 13.645 48 23.9976 48H24.0005C34.3541 48 40.0574 48 44.029 44.0285C48 40.0579 48 34.355 48 24C48 13.645 48 7.94304 44.029 3.97152ZM42.4128 42.4123C39.1109 45.7142 33.744 45.7142 24.0005 45.7142H23.9976C14.256 45.7142 8.8896 45.7142 5.58816 42.4128C2.28624 39.1114 2.28624 33.744 2.28624 24C2.28624 14.256 2.28624 8.8896 5.58816 5.58768C8.8896 2.28576 14.257 2.28576 24 2.28576C33.743 2.28576 39.1099 2.28576 42.4123 5.58768C45.7138 8.8896 45.7138 14.2565 45.7138 24.0029C45.7138 33.7493 45.7138 39.1109 42.4123 42.4123H42.4128Z" fill="white"/>
</svg>
