<svg width="32" height="32" viewBox="0 0 32 32" fill="none" xmlns="http://www.w3.org/2000/svg">
<path fill-rule="evenodd" clip-rule="evenodd" d="M12.9067 4.93253L15.3357 2.49426C15.6998 2.13017 16.2881 2.13017 16.6522 2.49426L19.1098 4.96119C19.4722 5.32612 19.4722 5.91694 19.1098 6.28188L16.6808 8.72014C16.3167 9.08424 15.7284 9.08424 15.3643 8.72014L12.9067 6.25322C12.5426 5.88828 12.5426 5.29747 12.9067 4.93253ZM20.4802 7.54022L15.6779 12.3603C15.3138 12.7252 15.3138 13.316 15.6779 13.681L18.1355 16.1479C18.4996 16.512 19.0879 16.512 19.452 16.1479L24.2543 11.3278C24.6184 10.9629 24.6184 10.3721 24.2543 10.0071L21.7967 7.54022C21.4326 7.17613 20.8443 7.17613 20.4802 7.54022ZM25.7461 12.8314L12.9067 25.7181C12.5426 26.083 12.5426 26.6738 12.9067 27.0388L15.3643 29.5057C15.7284 29.8698 16.3167 29.8698 16.6808 29.5057L29.5203 16.619C29.8827 16.2541 29.8827 15.6633 29.5203 15.2983L27.0626 12.8314C26.6985 12.4673 26.1102 12.4673 25.7461 12.8314ZM10.0934 7.70792L7.6644 10.1462C7.3003 10.5111 7.3003 11.1019 7.6644 11.4669L10.1221 13.9338C10.4861 14.2979 11.0744 14.2979 11.4385 13.9338L13.8675 11.4955C14.2299 11.1306 14.2299 10.5398 13.8675 10.1748L11.4099 7.70792C11.0458 7.34382 10.4575 7.34382 10.0934 7.70792ZM2.48108 15.3371L4.91008 12.8988C5.27417 12.5339 5.86246 12.5339 6.22655 12.8988L8.6842 15.3658C9.04662 15.7307 9.04662 16.3215 8.6842 16.6865L6.25521 19.1247C5.89111 19.4888 5.30283 19.4888 4.93873 19.1247L2.48108 16.6578C2.11698 16.2929 2.11698 15.7021 2.48108 15.3371ZM13.1637 14.8583L10.7347 17.2966C10.3706 17.6616 10.3706 18.2524 10.7347 18.6173L13.1924 21.0842C13.5565 21.4483 14.1448 21.4483 14.5089 21.0842L16.9378 18.646C17.3003 18.281 17.3003 17.6902 16.9378 17.3253L14.4802 14.8583C14.1161 14.4934 13.5278 14.4934 13.1637 14.8583Z" fill="#61AFFF"/>
</svg>
