<svg width="84" height="72" viewBox="0 0 84 72" fill="none" xmlns="http://www.w3.org/2000/svg">
  <path
    d="M7.63549 0.454102C3.41852 0.454102 0 3.87263 0 8.08959V63.9101C0 68.127 3.41852 71.5456 7.63549 71.5456H15.271C19.4879 71.5456 22.9065 68.127 22.9065 63.9101C22.9065 59.6931 19.4879 56.2746 15.271 56.2746V15.7251H57.2658C63.5912 15.7251 68.719 20.8529 68.719 27.1783C68.719 33.5038 63.5912 38.6315 57.2658 38.6315H48.9757L53.5843 34.0229C56.5661 31.0411 56.5661 26.2066 53.5843 23.2247C50.6024 20.2429 45.7679 20.2429 42.786 23.2247L25.1428 40.8679C22.161 43.8498 22.161 48.6843 25.1428 51.6661L42.786 69.3093C45.7679 72.2912 50.6024 72.2912 53.5843 69.3093C56.5661 66.3275 56.5661 61.493 53.5843 58.5111L48.9756 53.9025H57.2658C72.0252 53.9025 83.99 41.9377 83.99 27.1783C83.99 12.4189 72.0252 0.454102 57.2658 0.454102H7.63549Z"
    fill="#61AFFF" />
</svg>
