<svg width="512" height="512" viewBox="0 0 512 512" fill="none" xmlns="http://www.w3.org/2000/svg">
<path d="M435.159 76.841C408.212 49.8944 360.76 48.7578 256 48.7578C151.24 48.7578 103.788 49.8944 76.841 76.8358C49.8944 103.777 48.7578 151.235 48.7578 255.995C48.7578 360.755 49.8944 408.212 76.8358 435.154C103.782 462.095 151.224 463.232 255.969 463.232H256C360.765 463.232 408.212 462.095 435.159 435.149C462.1 408.213 463.237 360.765 463.237 256.026C463.237 151.286 462.1 103.777 435.159 76.8358V76.841ZM390.262 214.072C390.262 225.659 384.686 236.677 375.352 243.553L369.352 247.972C363.919 251.965 356.301 250.803 352.307 245.381C348.319 239.959 349.476 232.33 354.898 228.337L360.899 223.918C364.022 221.624 365.88 217.943 365.88 214.072V156.401C365.88 151.823 362.701 149.76 361.329 149.084C359.962 148.408 356.383 147.144 352.758 149.929L255.98 224.256L159.237 149.939C155.597 147.149 152.028 148.419 150.666 149.089C149.294 149.765 146.115 151.828 146.115 156.406V214.134C146.115 218.004 147.973 221.691 151.091 223.985L255.974 301.133L293.847 273.26C300.18 268.6 307.681 266.138 315.54 266.138H353.649C373.837 266.138 390.257 282.557 390.257 302.746V351.575C390.257 371.758 373.837 388.178 353.649 388.178H158.341C138.158 388.178 121.738 371.758 121.738 351.575V299.848C121.738 290.842 125.245 282.378 131.61 276.014C136.371 271.253 144.087 271.253 148.849 276.014C153.61 280.776 153.61 288.492 148.849 293.253C147.087 295.014 146.12 297.354 146.12 299.848V351.575C146.12 358.313 151.603 363.796 158.341 363.796H353.659C360.402 363.796 365.885 358.313 365.885 351.575V302.746C365.885 296.003 360.402 290.519 353.659 290.519H315.551C312.965 290.519 310.39 291.359 308.306 292.895L255.985 331.397L136.653 243.625C127.314 236.754 121.743 225.731 121.743 214.139V156.411C121.743 143.928 128.701 132.746 139.899 127.227C151.101 121.708 164.204 123.008 174.1 130.611L255.99 193.521L337.915 130.601C347.817 122.998 360.924 121.702 372.116 127.222C383.314 132.741 390.272 143.923 390.272 156.406V214.077L390.262 214.072ZM469.642 42.3629C427.279 0 366.438 0 256 0C145.562 0 84.7258 0 42.3629 42.3629C0 84.7258 0 145.562 0 256C0 366.438 0 427.285 42.3629 469.642C84.7206 512 145.546 512 255.974 512H256.005C366.444 512 427.279 512 469.642 469.637C512 427.285 512 366.454 512 256C512 145.546 512 84.7258 469.642 42.3629ZM452.403 452.398C417.183 487.619 359.936 487.619 256.005 487.619H255.974C152.064 487.619 94.8224 487.619 59.607 452.403C24.3866 417.188 24.3866 359.936 24.3866 256C24.3866 152.064 24.3866 94.8224 59.607 59.6019C94.8224 24.3814 152.074 24.3814 256 24.3814C359.926 24.3814 417.173 24.3814 452.398 59.6019C487.613 94.8224 487.613 152.069 487.613 256.031C487.613 359.992 487.613 417.183 452.398 452.398H452.403Z" fill="#0685EE"/>
</svg>
