<svg width="512" height="512" viewBox="0 0 512 512" fill="none" xmlns="http://www.w3.org/2000/svg">
<rect width="512" height="512" rx="51.2" fill="#0685EE" style="fill:#0685EE;fill:color(display-p3 0.0235 0.5216 0.9333);fill-opacity:1;"/>
<path d="M149.76 136.849C135.621 136.849 124.16 148.311 124.16 162.45V349.603C124.16 363.742 135.621 375.204 149.76 375.204H175.36C189.499 375.204 200.96 363.742 200.96 349.603C200.96 335.465 189.499 324.003 175.36 324.003V188.05H316.16C337.367 188.05 354.56 205.242 354.56 226.45C354.56 247.658 337.367 264.85 316.16 264.85H288.365L303.816 249.398C313.814 239.401 313.814 223.192 303.816 213.194C293.819 203.197 277.61 203.197 267.612 213.194L208.458 272.348C198.461 282.346 198.461 298.555 208.458 308.552L267.612 367.706C277.61 377.703 293.819 377.703 303.816 367.706C313.814 357.708 313.814 341.499 303.816 331.502L288.364 316.05H316.16C365.644 316.05 405.76 275.935 405.76 226.45C405.76 176.965 365.644 136.849 316.16 136.849H149.76Z" fill="white" style="fill:white;fill-opacity:1;"/>
</svg>
