<svg width="812" height="811" viewBox="0 0 812 811" fill="none" xmlns="http://www.w3.org/2000/svg">
<path fill-rule="evenodd" clip-rule="evenodd" d="M475.634 679.713C475.634 680.105 475.951 680.423 476.344 680.423H484.444C484.836 680.423 485.154 680.105 485.154 679.713C485.154 679.321 484.836 679.003 484.444 679.003H476.344C475.951 679.003 475.634 679.321 475.634 679.713Z" fill="#FF00FF"/>
<path fill-rule="evenodd" clip-rule="evenodd" d="M422.344 677.483C421.951 677.483 421.634 677.801 421.634 678.193C421.634 678.585 421.951 678.903 422.344 678.903H425.543C425.621 678.903 425.683 678.966 425.683 679.043V682.385C425.683 682.778 426.001 683.095 426.393 683.095C426.785 683.095 427.103 682.778 427.103 682.385V679.043C427.103 678.966 427.166 678.903 427.243 678.903H430.443C430.836 678.903 431.153 678.585 431.153 678.193C431.153 677.801 430.836 677.483 430.443 677.483H422.344Z" fill="#FF00FF"/>
<path fill-rule="evenodd" clip-rule="evenodd" d="M368.344 677.483C367.952 677.483 367.634 677.801 367.634 678.193C367.634 678.585 367.952 678.903 368.344 678.903H369.79C369.867 678.903 369.93 678.966 369.93 679.043V682.385C369.93 682.778 370.248 683.095 370.64 683.095C371.032 683.095 371.35 682.778 371.35 682.385V679.043C371.35 678.966 371.413 678.903 371.49 678.903H373.297C373.375 678.903 373.437 678.966 373.437 679.043V682.388C373.437 682.78 373.755 683.098 374.147 683.098C374.539 683.098 374.857 682.78 374.857 682.388V679.043C374.857 678.966 374.92 678.903 374.997 678.903H376.444C376.836 678.903 377.154 678.585 377.154 678.193C377.154 677.801 376.836 677.483 376.444 677.483H368.344Z" fill="#FF00FF"/>
<path fill-rule="evenodd" clip-rule="evenodd" d="M315.839 677.123C315.839 676.731 316.157 676.413 316.549 676.413H322.449C322.841 676.413 323.159 676.731 323.159 677.123C323.159 677.515 322.841 677.833 322.449 677.833H322.104C322.026 677.833 321.964 677.896 321.964 677.973L321.964 681.527C321.964 681.604 322.026 681.667 322.104 681.667H322.449C322.841 681.667 323.159 681.985 323.159 682.377C323.159 682.769 322.841 683.087 322.449 683.087H316.549C316.157 683.087 315.839 682.769 315.839 682.377C315.839 681.985 316.157 681.667 316.549 681.667H316.894C316.971 681.667 317.034 681.604 317.034 681.527L317.034 677.973C317.034 677.896 316.971 677.833 316.894 677.833H316.549C316.157 677.833 315.839 677.515 315.839 677.123ZM320.404 681.667C320.481 681.667 320.544 681.604 320.544 681.527L320.544 677.973C320.544 677.896 320.481 677.833 320.404 677.833H318.594C318.516 677.833 318.454 677.896 318.454 677.973L318.454 681.527C318.454 681.604 318.516 681.667 318.594 681.667H320.404Z" fill="#FF00FF"/>
<path fill-rule="evenodd" clip-rule="evenodd" d="M266.21 676.235C266.21 675.843 265.892 675.525 265.5 675.525C265.108 675.525 264.79 675.843 264.79 676.235C264.79 676.496 264.788 676.747 264.782 676.987C264.78 677.063 264.718 677.123 264.642 677.123H262.549C262.157 677.123 261.839 677.441 261.839 677.833C261.839 678.225 262.157 678.543 262.549 678.543H264.512C264.596 678.543 264.662 678.618 264.649 678.702C264.582 679.127 264.487 679.506 264.352 679.844C264.023 680.673 263.446 681.295 262.309 681.705C261.94 681.838 261.749 682.245 261.882 682.614C262.015 682.983 262.422 683.174 262.791 683.041C264.017 682.598 264.841 681.911 265.367 681.001C265.425 680.901 265.575 680.901 265.633 681.001C266.159 681.911 266.983 682.598 268.209 683.041C268.578 683.174 268.985 682.983 269.118 682.614C269.251 682.245 269.06 681.838 268.691 681.705C267.554 681.295 266.977 680.673 266.648 679.844C266.513 679.506 266.418 679.127 266.351 678.702C266.338 678.618 266.404 678.543 266.488 678.543H268.449C268.841 678.543 269.159 678.225 269.159 677.833C269.159 677.441 268.841 677.123 268.449 677.123H266.358C266.282 677.123 266.22 677.063 266.218 676.987C266.212 676.747 266.21 676.496 266.21 676.235Z" fill="#FF00FF"/>
<path fill-rule="evenodd" clip-rule="evenodd" d="M208.554 676.413C208.161 676.413 207.844 676.731 207.844 677.123V679.75V682.377C207.844 682.565 207.918 682.746 208.051 682.879C208.185 683.012 208.365 683.087 208.554 683.087H214.447C214.839 683.087 215.157 682.769 215.157 682.377C215.157 681.985 214.839 681.667 214.447 681.667H209.404C209.326 681.667 209.264 681.604 209.264 681.527L209.264 680.6C209.264 680.523 209.326 680.46 209.404 680.46H214.449C214.841 680.46 215.159 680.142 215.159 679.75C215.159 679.358 214.841 679.04 214.449 679.04H209.404C209.326 679.04 209.264 678.977 209.264 678.9L209.264 677.973C209.264 677.896 209.326 677.833 209.404 677.833L214.447 677.833C214.839 677.833 215.157 677.515 215.157 677.123C215.157 676.731 214.839 676.413 214.447 676.413H208.554Z" fill="#FF00FF"/>
<path fill-rule="evenodd" clip-rule="evenodd" d="M160.447 676.413C160.839 676.413 161.157 676.731 161.157 677.123V679.75V682.378C161.157 682.77 160.839 683.088 160.447 683.088C160.055 683.088 159.737 682.77 159.737 682.378V680.6C159.737 680.523 159.674 680.46 159.597 680.46H154.549C154.157 680.46 153.839 680.142 153.839 679.75C153.839 679.358 154.157 679.04 154.549 679.04H159.597C159.674 679.04 159.737 678.977 159.737 678.9V677.973C159.737 677.896 159.674 677.833 159.597 677.833L154.549 677.833C154.157 677.833 153.839 677.515 153.839 677.123C153.839 676.731 154.157 676.413 154.549 676.413L160.447 676.413Z" fill="#FF00FF"/>
<path fill-rule="evenodd" clip-rule="evenodd" d="M562.5 619.573C562.892 619.573 563.21 619.891 563.21 620.283V628.383C563.21 628.775 562.892 629.093 562.5 629.093C562.108 629.093 561.79 628.775 561.79 628.383V620.283C561.79 619.891 562.108 619.573 562.5 619.573Z" fill="#FF00FF"/>
<path fill-rule="evenodd" clip-rule="evenodd" d="M508.858 620.283C508.858 619.891 508.541 619.573 508.148 619.573C507.756 619.573 507.438 619.891 507.438 620.283V624.333V628.383C507.438 628.775 507.756 629.093 508.148 629.093C508.541 629.093 508.858 628.775 508.858 628.383V625.183C508.858 625.105 508.921 625.043 508.998 625.043H510.438C510.831 625.043 511.148 624.725 511.148 624.333C511.148 623.941 510.831 623.623 510.438 623.623H508.998C508.921 623.623 508.858 623.56 508.858 623.483V620.283Z" fill="#FF00FF"/>
<path fill-rule="evenodd" clip-rule="evenodd" d="M456.737 620.283C456.737 619.891 456.419 619.573 456.027 619.573C455.634 619.573 455.317 619.891 455.317 620.283V623.483C455.317 623.56 455.254 623.623 455.177 623.623H453.737C453.344 623.623 453.027 623.941 453.027 624.333C453.027 624.725 453.344 625.043 453.737 625.043H455.177C455.254 625.043 455.317 625.105 455.317 625.183V628.383C455.317 628.775 455.634 629.093 456.027 629.093C456.419 629.093 456.737 628.775 456.737 628.383V624.333V620.283Z" fill="#FF00FF"/>
<path fill-rule="evenodd" clip-rule="evenodd" d="M400.103 623.933C400.103 623.541 399.785 623.223 399.393 623.223C399.001 623.223 398.683 623.541 398.683 623.933L398.683 626.562C398.683 626.639 398.621 626.702 398.543 626.702H395.343C394.951 626.702 394.633 627.02 394.633 627.412C394.633 627.804 394.951 628.122 395.343 628.122H399.355C399.368 628.123 399.38 628.123 399.393 628.123C399.406 628.123 399.419 628.123 399.432 628.122H403.443C403.835 628.122 404.153 627.804 404.153 627.412C404.153 627.02 403.835 626.702 403.443 626.702H400.243C400.166 626.702 400.103 626.639 400.103 626.562L400.103 623.933Z" fill="#FF00FF"/>
<path fill-rule="evenodd" clip-rule="evenodd" d="M347.21 622.273C347.21 622.351 347.273 622.413 347.35 622.413H349.802C350.194 622.413 350.512 622.731 350.512 623.123C350.512 623.515 350.194 623.833 349.802 623.833H343.199C342.806 623.833 342.489 623.515 342.489 623.123C342.489 622.731 342.806 622.413 343.199 622.413H345.65C345.727 622.413 345.79 622.351 345.79 622.273V621.743C345.79 621.351 346.108 621.033 346.5 621.033C346.892 621.033 347.21 621.351 347.21 621.743V622.273ZM345.211 626.478C344.908 626.697 344.8 626.938 344.8 627.133C344.8 627.328 344.908 627.568 345.211 627.787C345.514 628.005 345.967 628.162 346.5 628.162C347.033 628.162 347.486 628.005 347.789 627.787C348.092 627.568 348.2 627.328 348.2 627.133C348.2 626.938 348.092 626.697 347.789 626.478C347.486 626.26 347.033 626.103 346.5 626.103C345.967 626.103 345.514 626.26 345.211 626.478ZM344.38 625.327C344.95 624.916 345.702 624.683 346.5 624.683C347.298 624.683 348.05 624.916 348.62 625.327C349.189 625.738 349.62 626.367 349.62 627.133C349.62 627.899 349.189 628.528 348.62 628.938C348.05 629.35 347.298 629.582 346.5 629.582C345.702 629.582 344.95 629.35 344.38 628.938C343.811 628.528 343.38 627.899 343.38 627.133C343.38 626.367 343.811 625.738 344.38 625.327Z" fill="#FF00FF"/>
<path fill-rule="evenodd" clip-rule="evenodd" d="M288.844 623.123C288.844 622.731 289.161 622.413 289.554 622.413H295.447C295.839 622.413 296.157 622.731 296.157 623.123V625.75C296.157 625.938 296.082 626.119 295.949 626.252C295.815 626.385 295.635 626.46 295.447 626.46L290.404 626.46C290.326 626.46 290.264 626.523 290.264 626.6L290.264 627.527C290.264 627.604 290.326 627.667 290.404 627.667L295.444 627.667C295.836 627.667 296.154 627.985 296.154 628.377C296.154 628.769 295.836 629.087 295.444 629.087L289.554 629.087C289.365 629.087 289.185 629.012 289.051 628.879C288.918 628.746 288.844 628.565 288.844 628.377L288.844 625.75C288.844 625.358 289.161 625.04 289.554 625.04L294.597 625.04C294.674 625.04 294.737 624.977 294.737 624.9V623.973C294.737 623.896 294.674 623.833 294.597 623.833H289.554C289.161 623.833 288.844 623.515 288.844 623.123Z" fill="#FF00FF"/>
<path fill-rule="evenodd" clip-rule="evenodd" d="M238.5 623.655C237.093 623.655 236.086 624.663 236.086 625.75C236.086 626.837 237.093 627.844 238.5 627.844C239.907 627.844 240.914 626.837 240.914 625.75C240.914 624.663 239.907 623.655 238.5 623.655ZM234.666 625.75C234.666 623.739 236.457 622.235 238.5 622.235C240.543 622.235 242.334 623.739 242.334 625.75C242.334 627.761 240.543 629.264 238.5 629.264C236.457 629.264 234.666 627.761 234.666 625.75Z" fill="#FF00FF"/>
<path fill-rule="evenodd" clip-rule="evenodd" d="M188.158 628.375C188.158 628.767 187.84 629.085 187.448 629.085L181.553 629.085C181.16 629.085 180.843 628.767 180.843 628.375V623.125C180.843 622.733 181.16 622.415 181.553 622.415C181.945 622.415 182.263 622.733 182.263 623.125V627.525C182.263 627.602 182.325 627.665 182.403 627.665L187.448 627.665C187.84 627.665 188.158 627.983 188.158 628.375Z" fill="#FF00FF"/>
<path fill-rule="evenodd" clip-rule="evenodd" d="M126.844 623.123C126.844 622.731 127.161 622.413 127.554 622.413H133.447C133.839 622.413 134.157 622.731 134.157 623.123V628.377C134.157 628.769 133.839 629.087 133.447 629.087H127.554C127.161 629.087 126.844 628.769 126.844 628.377V623.123ZM128.404 623.833C128.326 623.833 128.264 623.896 128.264 623.973V627.527C128.264 627.604 128.326 627.667 128.404 627.667H132.597C132.674 627.667 132.737 627.604 132.737 627.527V623.973C132.737 623.896 132.674 623.833 132.597 623.833H128.404Z" fill="#FF00FF"/>
<path fill-rule="evenodd" clip-rule="evenodd" d="M604.814 565.573C605.206 565.573 605.524 565.891 605.524 566.283V574.383C605.524 574.775 605.206 575.093 604.814 575.093C604.422 575.093 604.104 574.775 604.104 574.383V566.283C604.104 565.891 604.422 565.573 604.814 565.573ZM602.113 565.573C602.505 565.573 602.823 565.891 602.823 566.283V570.329C602.823 570.33 602.823 570.332 602.823 570.333C602.823 570.334 602.823 570.336 602.823 570.337V574.383C602.823 574.775 602.505 575.093 602.113 575.093C601.72 575.093 601.403 574.775 601.403 574.383V571.183C601.403 571.106 601.34 571.043 601.263 571.043H599.983C599.591 571.043 599.273 570.725 599.273 570.333C599.273 569.941 599.591 569.623 599.983 569.623H601.263C601.34 569.623 601.403 569.56 601.403 569.483V566.283C601.403 565.891 601.72 565.573 602.113 565.573Z" fill="#FF00FF"/>
<path fill-rule="evenodd" clip-rule="evenodd" d="M550.598 565.573C550.99 565.573 551.308 565.891 551.308 566.283V574.383C551.308 574.775 550.99 575.093 550.598 575.093C550.206 575.093 549.888 574.775 549.888 574.383V571.183C549.888 571.106 549.825 571.043 549.748 571.043H548.253C548.175 571.043 548.113 571.106 548.113 571.183V574.383C548.113 574.775 547.795 575.093 547.403 575.093C547.011 575.093 546.693 574.775 546.693 574.383V570.342C546.693 570.339 546.693 570.336 546.693 570.333C546.693 570.33 546.693 570.327 546.693 570.324V566.283C546.693 565.891 547.011 565.573 547.403 565.573C547.795 565.573 548.113 565.891 548.113 566.283V569.483C548.113 569.56 548.175 569.623 548.253 569.623H549.748C549.825 569.623 549.888 569.56 549.888 569.483V566.283C549.888 565.891 550.206 565.573 550.598 565.573Z" fill="#FF00FF"/>
<path fill-rule="evenodd" clip-rule="evenodd" d="M494.649 565.573C495.041 565.573 495.359 565.891 495.359 566.283V567.728C495.359 567.805 495.421 567.868 495.499 567.868H496.943C497.336 567.868 497.653 568.186 497.653 568.578C497.653 568.97 497.336 569.288 496.943 569.288H495.499C495.421 569.288 495.359 569.351 495.359 569.428V571.238C495.359 571.315 495.421 571.378 495.499 571.378H496.943C497.335 571.378 497.653 571.696 497.653 572.088C497.653 572.48 497.335 572.798 496.943 572.798H495.499C495.421 572.798 495.359 572.861 495.359 572.938V574.383C495.359 574.775 495.041 575.093 494.649 575.093C494.257 575.093 493.939 574.775 493.939 574.383V566.283C493.939 565.891 494.257 565.573 494.649 565.573Z" fill="#FF00FF"/>
<path fill-rule="evenodd" clip-rule="evenodd" d="M442.527 565.573C442.919 565.573 443.237 565.891 443.237 566.283V574.383C443.237 574.775 442.919 575.093 442.527 575.093C442.134 575.093 441.817 574.775 441.817 574.383V572.938C441.817 572.861 441.754 572.798 441.677 572.798H440.231C439.839 572.798 439.521 572.48 439.521 572.088C439.521 571.696 439.839 571.378 440.231 571.378H441.677C441.754 571.378 441.817 571.315 441.817 571.238V569.428C441.817 569.351 441.754 569.288 441.677 569.288H440.231C439.839 569.288 439.521 568.97 439.521 568.578C439.521 568.186 439.839 567.868 440.231 567.868H441.677C441.754 567.868 441.817 567.805 441.817 567.728V566.283C441.817 565.891 442.134 565.573 442.527 565.573Z" fill="#FF00FF"/>
<path fill-rule="evenodd" clip-rule="evenodd" d="M387.648 569.223C388.041 569.223 388.358 569.541 388.358 569.933V572.563C388.358 572.64 388.421 572.703 388.498 572.703H389.944C390.336 572.703 390.654 573.021 390.654 573.413C390.654 573.805 390.336 574.123 389.944 574.123H381.844C381.451 574.123 381.134 573.805 381.134 573.413C381.134 573.021 381.451 572.703 381.844 572.703H383.288C383.366 572.703 383.428 572.64 383.428 572.563L383.428 569.933C383.428 569.541 383.746 569.223 384.138 569.223C384.531 569.223 384.848 569.541 384.848 569.933L384.848 572.563C384.848 572.64 384.911 572.703 384.988 572.703H386.798C386.876 572.703 386.938 572.64 386.938 572.563V569.933C386.938 569.541 387.256 569.223 387.648 569.223Z" fill="#FF00FF"/>
<path fill-rule="evenodd" clip-rule="evenodd" d="M333 568.418C333.392 568.418 333.71 568.736 333.71 569.128C333.71 570.246 333.892 571.175 334.287 571.926C334.674 572.664 335.291 573.278 336.251 573.736C336.605 573.905 336.755 574.329 336.586 574.683C336.417 575.037 335.993 575.187 335.639 575.018C334.426 574.439 333.571 573.618 333.029 572.586C333.017 572.563 332.983 572.563 332.971 572.586C332.429 573.618 331.574 574.439 330.361 575.018C330.007 575.187 329.583 575.037 329.414 574.683C329.245 574.329 329.395 573.905 329.749 573.736C330.709 573.278 331.326 572.664 331.714 571.926C332.108 571.175 332.29 570.246 332.29 569.128C332.29 568.736 332.608 568.418 333 568.418Z" fill="#FF00FF"/>
<path fill-rule="evenodd" clip-rule="evenodd" d="M275.344 569.123C275.344 568.731 275.661 568.413 276.054 568.413L281.949 568.413C282.341 568.413 282.659 568.731 282.659 569.123V574.373C282.659 574.765 282.341 575.083 281.949 575.083C281.556 575.083 281.239 574.765 281.239 574.373V569.973C281.239 569.896 281.176 569.833 281.099 569.833L276.054 569.833C275.661 569.833 275.344 569.515 275.344 569.123Z" fill="#FF00FF"/>
<path fill-rule="evenodd" clip-rule="evenodd" d="M221.344 569.123C221.344 568.731 221.661 568.413 222.054 568.413L227.949 568.413C228.341 568.413 228.659 568.731 228.659 569.123C228.659 569.515 228.341 569.833 227.949 569.833L222.904 569.833C222.826 569.833 222.764 569.896 222.764 569.973L222.764 573.527C222.764 573.604 222.826 573.667 222.904 573.667H227.949C228.341 573.667 228.659 573.985 228.659 574.377C228.659 574.769 228.341 575.087 227.949 575.087H222.054C221.865 575.087 221.685 575.012 221.551 574.879C221.418 574.746 221.344 574.565 221.344 574.377L221.344 569.123Z" fill="#FF00FF"/>
<path fill-rule="evenodd" clip-rule="evenodd" d="M168.059 568.413C167.666 568.413 167.349 568.731 167.349 569.123C167.349 569.515 167.666 569.833 168.059 569.833H170.089C170.171 569.833 170.236 569.904 170.227 569.986C170.142 570.733 169.971 571.362 169.707 571.891C169.319 572.668 168.706 573.279 167.749 573.736C167.395 573.905 167.245 574.329 167.414 574.683C167.583 575.037 168.007 575.187 168.361 575.018C169.577 574.437 170.436 573.611 170.978 572.526C170.987 572.507 171.013 572.507 171.023 572.526C171.564 573.611 172.423 574.437 173.639 575.018C173.993 575.187 174.417 575.037 174.586 574.683C174.755 574.329 174.605 573.905 174.251 573.736C173.294 573.279 172.681 572.668 172.293 571.891C172.029 571.362 171.858 570.733 171.774 569.986C171.764 569.904 171.829 569.833 171.912 569.833H173.949C174.341 569.833 174.659 569.515 174.659 569.123C174.659 568.731 174.341 568.413 173.949 568.413H168.059Z" fill="#FF00FF"/>
<path fill-rule="evenodd" clip-rule="evenodd" d="M114.054 568.418C114.446 568.418 114.764 568.736 114.764 569.128V570.328C114.764 570.405 114.826 570.468 114.904 570.468H119.097C119.174 570.468 119.237 570.405 119.237 570.328V569.128C119.237 568.736 119.554 568.418 119.947 568.418C120.339 568.418 120.657 568.736 120.657 569.128V574.377C120.657 574.769 120.339 575.087 119.947 575.087H114.054L114.036 575.087C113.993 575.086 113.951 575.081 113.91 575.073C113.587 575.006 113.344 574.72 113.344 574.377L113.344 574.369V571.185C113.344 571.183 113.344 571.18 113.344 571.178C113.344 571.175 113.344 571.173 113.344 571.17V569.128C113.344 568.736 113.661 568.418 114.054 568.418ZM114.904 571.888C114.826 571.888 114.764 571.951 114.764 572.028V573.527C114.764 573.604 114.826 573.667 114.904 573.667H119.097C119.174 573.667 119.237 573.604 119.237 573.527V572.028C119.237 571.951 119.174 571.888 119.097 571.888H114.904Z" fill="#FF00FF"/>
<path d="M797.102 570.715H796.374C796.285 570.715 796.218 570.634 796.235 570.547L796.781 567.732C796.8 567.627 796.812 567.527 796.812 567.428C796.812 567.019 796.514 566.752 796.086 566.752C795.714 566.752 795.423 566.994 795.367 567.366L794.853 570.596C794.842 570.665 794.783 570.715 794.713 570.715H793.665C793.599 570.715 793.542 570.67 793.527 570.607L792.763 567.41C792.67 566.988 792.422 566.752 792 566.752C791.572 566.752 791.324 567 791.225 567.428L790.461 570.607C790.445 570.67 790.388 570.715 790.323 570.715H789.281C789.211 570.715 789.152 570.665 789.141 570.596L788.627 567.366C788.571 567 788.279 566.752 787.907 566.752C787.479 566.752 787.182 567.019 787.182 567.428C787.182 567.527 787.194 567.627 787.213 567.732L787.759 570.547C787.776 570.634 787.709 570.715 787.62 570.715H786.892C786.655 570.715 786.444 570.889 786.421 571.124C786.395 571.395 786.607 571.622 786.873 571.622H787.852C787.92 571.622 787.978 571.671 787.991 571.737L788.596 574.863C788.695 575.378 789.079 575.676 789.569 575.676C790.047 575.676 790.419 575.384 790.524 574.882L791.28 571.731C791.295 571.667 791.352 571.622 791.418 571.622H792.576C792.641 571.622 792.698 571.667 792.714 571.731L793.47 574.882C793.575 575.384 793.947 575.676 794.425 575.676C794.914 575.676 795.299 575.378 795.398 574.863L796.003 571.737C796.016 571.671 796.074 571.622 796.142 571.622H797.121C797.386 571.622 797.598 571.395 797.573 571.124C797.55 570.889 797.339 570.715 797.102 570.715ZM791.859 569.321C791.894 569.176 792.1 569.176 792.135 569.321L792.426 570.541C792.448 570.63 792.38 570.715 792.288 570.715H791.705C791.614 570.715 791.546 570.63 791.567 570.541L791.859 569.321ZM789.836 573.238C789.8 573.389 789.582 573.381 789.558 573.227L789.33 571.786C789.316 571.7 789.383 571.622 789.47 571.622H790.042C790.133 571.622 790.201 571.708 790.179 571.797L789.836 573.238ZM794.436 573.227C794.412 573.381 794.194 573.389 794.158 573.238L793.814 571.797C793.793 571.708 793.861 571.622 793.952 571.622H794.524C794.611 571.622 794.678 571.7 794.664 571.786L794.436 573.227Z" fill="#FF00FF"/>
<path d="M108.602 408.715H107.874C107.785 408.715 107.718 408.634 107.735 408.547L108.281 405.732C108.3 405.627 108.312 405.527 108.312 405.428C108.312 405.019 108.014 404.752 107.586 404.752C107.214 404.752 106.923 404.994 106.867 405.366L106.353 408.596C106.342 408.665 106.283 408.715 106.213 408.715H105.165C105.099 408.715 105.042 408.67 105.027 408.607L104.263 405.41C104.17 404.988 103.922 404.752 103.5 404.752C103.072 404.752 102.824 405 102.725 405.428L101.961 408.607C101.945 408.67 101.888 408.715 101.823 408.715H100.781C100.711 408.715 100.652 408.665 100.641 408.596L100.127 405.366C100.071 405 99.7792 404.752 99.4072 404.752C98.9793 404.752 98.6816 405.019 98.6816 405.428C98.6816 405.527 98.694 405.627 98.7126 405.732L99.2587 408.547C99.2757 408.634 99.2087 408.715 99.1196 408.715H98.3919C98.1551 408.715 97.9435 408.889 97.9211 409.124C97.8953 409.395 98.1073 409.622 98.3725 409.622H99.3519C99.4198 409.622 99.4781 409.671 99.491 409.737L100.096 412.863C100.195 413.378 100.579 413.676 101.069 413.676C101.547 413.676 101.919 413.384 102.024 412.882L102.78 409.731C102.795 409.667 102.852 409.622 102.918 409.622H104.076C104.141 409.622 104.198 409.667 104.214 409.731L104.97 412.882C105.075 413.384 105.447 413.676 105.925 413.676C106.414 413.676 106.799 413.378 106.898 412.863L107.503 409.737C107.516 409.671 107.574 409.622 107.642 409.622H108.621C108.886 409.622 109.098 409.395 109.073 409.124C109.05 408.889 108.839 408.715 108.602 408.715ZM103.359 407.321C103.394 407.176 103.6 407.176 103.635 407.321L103.926 408.541C103.948 408.63 103.88 408.715 103.788 408.715H103.205C103.114 408.715 103.046 408.63 103.067 408.541L103.359 407.321ZM101.336 411.238C101.3 411.389 101.082 411.381 101.058 411.227L100.83 409.786C100.816 409.7 100.883 409.622 100.97 409.622H101.542C101.633 409.622 101.701 409.708 101.679 409.797L101.336 411.238ZM105.936 411.227C105.912 411.381 105.694 411.389 105.658 411.238L105.314 409.797C105.293 409.708 105.361 409.622 105.452 409.622H106.024C106.111 409.622 106.178 409.7 106.164 409.786L105.936 411.227Z" fill="#FF00FF"/>
<rect x="743.5" y="702" width="67.5" height="54" stroke="#00FFFF"/>
<rect x="676" y="702" width="67.5" height="54" stroke="#00FFFF"/>
<rect x="608.5" y="702" width="67.5" height="54" stroke="#00FFFF"/>
<rect x="541" y="702" width="67.5" height="54" stroke="#00FFFF"/>
<rect x="136" y="702" width="67.5" height="54" stroke="#00FFFF"/>
<rect x="68.5" y="702" width="67.5" height="54" stroke="#00FFFF"/>
<rect x="1" y="702" width="67.5" height="54" stroke="#00FFFF"/>
<rect x="662.5" y="648" width="148.5" height="54" stroke="#00FFFF"/>
<rect x="1" y="648" width="121.5" height="54" stroke="#00FFFF"/>
<rect x="689.5" y="594" width="121.5" height="54" stroke="#00FFFF"/>
<rect x="1" y="594" width="94.5" height="54" stroke="#00FFFF"/>
<rect x="1" y="540" width="81" height="54" stroke="#00FFFF"/>
<rect x="703" y="486" width="108" height="54" stroke="#00FFFF"/>
<rect x="608.5" y="648" width="54" height="54" stroke="#00FFFF"/>
<rect x="554.5" y="648" width="54" height="54" stroke="#00FFFF"/>
<rect x="500.5" y="648" width="54" height="54" stroke="#00FFFF"/>
<rect x="446.5" y="648" width="54" height="54" stroke="#00FFFF"/>
<rect x="392.5" y="648" width="54" height="54" stroke="#00FFFF"/>
<rect x="338.5" y="648" width="54" height="54" stroke="#00FFFF"/>
<rect x="284.5" y="648" width="54" height="54" stroke="#00FFFF"/>
<rect x="230.5" y="648" width="54" height="54" stroke="#00FFFF"/>
<rect x="176.5" y="648" width="54" height="54" stroke="#00FFFF"/>
<rect x="122.5" y="648" width="54" height="54" stroke="#00FFFF"/>
<rect x="635.5" y="594" width="54" height="54" stroke="#00FFFF"/>
<rect x="581.5" y="594" width="54" height="54" stroke="#00FFFF"/>
<rect x="527.5" y="594" width="54" height="54" stroke="#00FFFF"/>
<rect x="473.5" y="594" width="54" height="54" stroke="#00FFFF"/>
<rect x="419.5" y="594" width="54" height="54" stroke="#00FFFF"/>
<rect x="365.5" y="594" width="54" height="54" stroke="#00FFFF"/>
<rect x="311.5" y="594" width="54" height="54" stroke="#00FFFF"/>
<rect x="257.5" y="594" width="54" height="54" stroke="#00FFFF"/>
<rect x="203.5" y="594" width="54" height="54" stroke="#00FFFF"/>
<rect x="149.5" y="594" width="54" height="54" stroke="#00FFFF"/>
<rect x="95.5" y="594" width="54" height="54" stroke="#00FFFF"/>
<rect x="730" y="540" width="81" height="54" stroke="#00FFFF"/>
<rect x="676" y="540" width="54" height="54" stroke="#00FFFF"/>
<rect x="622" y="540" width="54" height="54" stroke="#00FFFF"/>
<rect x="568" y="540" width="54" height="54" stroke="#00FFFF"/>
<rect x="514" y="540" width="54" height="54" stroke="#00FFFF"/>
<rect x="460" y="540" width="54" height="54" stroke="#00FFFF"/>
<rect x="406" y="540" width="54" height="54" stroke="#00FFFF"/>
<rect x="352" y="540" width="54" height="54" stroke="#00FFFF"/>
<rect x="298" y="540" width="54" height="54" stroke="#00FFFF"/>
<rect x="244" y="540" width="54" height="54" stroke="#00FFFF"/>
<rect x="190" y="540" width="54" height="54" stroke="#00FFFF"/>
<rect x="136" y="540" width="54" height="54" stroke="#00FFFF"/>
<rect x="82" y="540" width="54" height="54" stroke="#00FFFF"/>
<rect x="55" y="486" width="54" height="54" stroke="#00FFFF"/>
<rect x="109" y="486" width="54" height="54" stroke="#00FFFF"/>
<rect x="163" y="486" width="54" height="54" stroke="#00FFFF"/>
<rect x="217" y="486" width="54" height="54" stroke="#00FFFF"/>
<rect x="271" y="486" width="54" height="54" stroke="#00FFFF"/>
<rect x="325" y="486" width="54" height="54" stroke="#00FFFF"/>
<rect x="379" y="486" width="54" height="54" stroke="#00FFFF"/>
<rect x="433" y="486" width="54" height="54" stroke="#00FFFF"/>
<rect x="487" y="486" width="54" height="54" stroke="#00FFFF"/>
<rect x="541" y="486" width="54" height="54" stroke="#00FFFF"/>
<rect x="595" y="486" width="54" height="54" stroke="#00FFFF"/>
<rect x="649" y="486" width="54" height="54" stroke="#00FFFF"/>
<rect x="1" y="486" width="54" height="54" stroke="#00FFFF"/>
<rect x="217" y="432" width="54" height="54" stroke="#00FFFF"/>
<rect x="163" y="432" width="54" height="54" stroke="#00FFFF"/>
<rect x="109" y="432" width="54" height="54" stroke="#00FFFF"/>
<rect x="55" y="432" width="54" height="54" stroke="#00FFFF"/>
<rect x="433" y="432" width="54" height="54" stroke="#00FFFF"/>
<rect x="379" y="432" width="54" height="54" stroke="#00FFFF"/>
<rect x="325" y="432" width="54" height="54" stroke="#00FFFF"/>
<rect x="271" y="432" width="54" height="54" stroke="#00FFFF"/>
<rect x="649" y="432" width="54" height="54" stroke="#00FFFF"/>
<rect x="595" y="432" width="54" height="54" stroke="#00FFFF"/>
<rect x="541" y="432" width="54" height="54" stroke="#00FFFF"/>
<rect x="487" y="432" width="54" height="54" stroke="#00FFFF"/>
<rect x="541" y="378" width="54" height="54" stroke="#00FFFF"/>
<rect x="487" y="378" width="54" height="54" stroke="#00FFFF"/>
<rect x="433" y="378" width="54" height="54" stroke="#00FFFF"/>
<rect x="487" y="324" width="54" height="54" stroke="#00FFFF"/>
<rect x="703" y="378" width="54" height="54" stroke="#00FFFF"/>
<rect x="595" y="378" width="108" height="54" stroke="#00FFFF"/>
<rect x="757" y="324" width="54" height="108" stroke="#00FFFF"/>
<rect x="703" y="324" width="54" height="54" stroke="#00FFFF"/>
<rect x="649" y="324" width="54" height="54" stroke="#00FFFF"/>
<rect x="595" y="324" width="54" height="54" stroke="#00FFFF"/>
<rect x="703" y="270" width="54" height="54" stroke="#00FFFF"/>
<rect x="595" y="270" width="54" height="54" stroke="#00FFFF"/>
<rect x="757" y="216" width="54" height="108" stroke="#00FFFF"/>
<rect x="703" y="216" width="54" height="54" stroke="#00FFFF"/>
<rect x="649" y="216" width="54" height="54" stroke="#00FFFF"/>
<rect x="595" y="216" width="54" height="54" stroke="#00FFFF"/>
<rect x="757" y="162" width="54" height="54" stroke="#00FFFF"/>
<rect x="703" y="162" width="54" height="54" stroke="#00FFFF"/>
<rect x="649" y="162" width="54" height="54" stroke="#00FFFF"/>
<rect x="595" y="162" width="54" height="54" stroke="#00FFFF"/>
<rect x="649" y="270" width="54" height="54" stroke="#00FFFF"/>
<rect x="541" y="162" width="54" height="54" stroke="#00FFFF"/>
<rect x="487" y="162" width="54" height="54" stroke="#00FFFF"/>
<rect x="433" y="162" width="54" height="54" stroke="#00FFFF"/>
<rect x="541" y="216" width="54" height="54" stroke="#00FFFF"/>
<rect x="487" y="216" width="54" height="54" stroke="#00FFFF"/>
<rect x="433" y="216" width="54" height="54" stroke="#00FFFF"/>
<rect x="541" y="270" width="54" height="54" stroke="#00FFFF"/>
<rect x="487" y="270" width="54" height="54" stroke="#00FFFF"/>
<rect x="433" y="270" width="54" height="54" stroke="#00FFFF"/>
<rect x="595" y="756" width="81" height="54" stroke="#00FFFF"/>
<rect x="676" y="756" width="54" height="54" stroke="#00FFFF"/>
<rect x="730" y="756" width="81" height="54" stroke="#00FFFF"/>
<rect x="136" y="756" width="81" height="54" stroke="#00FFFF"/>
<rect x="82" y="756" width="54" height="54" stroke="#00FFFF"/>
<rect x="1" y="756" width="81" height="54" stroke="#00FFFF"/>
<rect x="1" y="432" width="54" height="54" stroke="#00FFFF"/>
<rect x="757" y="432" width="54" height="54" stroke="#00FFFF"/>
<rect x="703" y="432" width="54" height="54" stroke="#00FFFF"/>
<rect x="541" y="324" width="54" height="54" stroke="#00FFFF"/>
<rect x="433" y="324" width="54" height="54" stroke="#00FFFF"/>
<rect x="379" y="324" width="54" height="54" stroke="#00FFFF"/>
<rect x="379" y="378" width="54" height="54" stroke="#00FFFF"/>
<rect x="298" y="378" width="81" height="54" stroke="#00FFFF"/>
<rect x="298" y="324" width="81" height="54" stroke="#00FFFF"/>
<rect x="217" y="324" width="81" height="108" stroke="#00FFFF"/>
<rect x="176.5" y="378" width="54" height="54" stroke="#00FFFF"/>
<rect x="122.5" y="378" width="54" height="54" stroke="#00FFFF"/>
<rect x="68.5" y="378" width="54" height="54" stroke="#00FFFF"/>
<rect x="1" y="378" width="67.5" height="54" stroke="#00FFFF"/>
<rect x="109" y="324" width="54" height="54" stroke="#00FFFF"/>
<rect x="55" y="324" width="54" height="54" stroke="#00FFFF"/>
<rect x="1" y="324" width="54" height="54" stroke="#00FFFF"/>
<rect x="163" y="324" width="54" height="54" stroke="#00FFFF"/>
<rect x="271" y="270" width="94.5" height="54" stroke="#00FFFF"/>
<rect x="365.5" y="270" width="67.5" height="54" stroke="#00FFFF"/>
<rect x="217" y="270" width="54" height="54" stroke="#00FFFF"/>
<rect x="163" y="270" width="54" height="54" stroke="#00FFFF"/>
<rect x="95.5" y="270" width="67.5" height="54" stroke="#00FFFF"/>
<rect x="1" y="270" width="94.5" height="54" stroke="#00FFFF"/>
<rect x="379" y="162" width="54" height="54" stroke="#00FFFF"/>
<rect x="271" y="162" width="54" height="54" stroke="#00FFFF"/>
<rect x="163" y="162" width="108" height="54" stroke="#00FFFF"/>
<rect x="95.5" y="162" width="67.5" height="54" stroke="#00FFFF"/>
<rect x="217" y="216" width="54" height="54" stroke="#00FFFF"/>
<rect x="163" y="216" width="54" height="54" stroke="#00FFFF"/>
<rect x="95.5" y="216" width="67.5" height="54" stroke="#00FFFF"/>
<rect x="1" y="216" width="94.5" height="54" stroke="#00FFFF"/>
<rect x="1" y="162" width="94.5" height="54" stroke="#00FFFF"/>
<rect x="730" y="54" width="81" height="108" stroke="#00FFFF"/>
<rect x="635.5" y="108" width="54" height="54" stroke="#00FFFF"/>
<rect x="554.5" y="108" width="81" height="54" stroke="#00FFFF"/>
<rect x="446.5" y="108" width="108" height="54" stroke="#00FFFF"/>
<rect x="311.5" y="108" width="81" height="54" stroke="#00FFFF"/>
<rect x="257.5" y="108" width="54" height="54" stroke="#00FFFF"/>
<rect x="163" y="108" width="94.5" height="54" stroke="#00FFFF"/>
<rect x="82" y="108" width="81" height="54" stroke="#00FFFF"/>
<rect x="1" y="108" width="81" height="54" stroke="#00FFFF"/>
<rect x="635.5" y="54" width="94.5" height="54" stroke="#00FFFF"/>
<rect x="527.5" y="54" width="54" height="54" stroke="#00FFFF"/>
<rect x="473.5" y="54" width="54" height="54" stroke="#00FFFF"/>
<rect x="392.5" y="54" width="81" height="54" stroke="#00FFFF"/>
</svg>
