<svg width="812" height="811" viewBox="0 0 812 811" fill="none" xmlns="http://www.w3.org/2000/svg">
<path d="M84.5399 722.006C83.8899 722.006 83.4399 721.606 83.4399 721.016C83.4399 720.776 83.4999 720.506 83.6499 720.056L86.6799 711.386C87.0599 710.266 87.5899 709.806 88.5999 709.806C89.6099 709.806 90.1199 710.266 90.4999 711.386L93.5199 720.056C93.6399 720.436 93.6999 720.726 93.6999 720.966C93.6999 721.596 93.2499 722.006 92.5799 722.006C91.9399 722.006 91.5699 721.676 91.3299 720.856L90.6899 718.916C90.6699 718.856 90.6199 718.816 90.5599 718.816H86.5599C86.4999 718.816 86.4399 718.856 86.4299 718.916L85.7899 720.856C85.5399 721.686 85.1899 722.006 84.5599 722.006H84.5399ZM87.1599 717.046H89.9399C90.0399 717.046 90.0999 716.956 90.0799 716.866L88.6999 712.446C88.6599 712.316 88.4699 712.316 88.4299 712.446L87.0399 716.866C87.0099 716.956 87.0799 717.046 87.1799 717.046H87.1599Z" fill="#FF00FF"/>
<path fill-rule="evenodd" clip-rule="evenodd" d="M17.6177 721.988C16.8706 721.988 16.4399 721.513 16.4399 720.705V711.634C16.4399 710.386 16.9146 709.903 18.1538 709.903H21.186C23.6821 709.903 25.2905 711.467 25.2905 713.84C25.2905 716.319 23.6646 717.787 21.0894 717.787H18.953C18.8757 717.787 18.813 717.849 18.813 717.927V720.705C18.813 721.513 18.3735 721.988 17.6177 721.988ZM18.813 715.801C18.813 715.878 18.8757 715.941 18.953 715.941H20.3335C22.1792 715.941 22.9263 715.405 22.9263 713.875C22.9263 712.557 22.188 711.801 20.8872 711.801H18.953C18.8757 711.801 18.813 711.864 18.813 711.941V715.801Z" fill="#FF00FF"/>
<path d="M15.9399 612.697C15.9399 612.24 16.1245 611.906 16.9596 610.807L21.9014 604.071C21.9701 603.977 21.9033 603.845 21.7872 603.845H17.1618C16.5553 603.845 16.1509 603.458 16.1509 602.878C16.1509 602.289 16.5641 601.903 17.1618 601.903H23.4646C24.2381 601.903 24.7216 602.351 24.7216 603.072C24.7216 603.538 24.5194 603.916 23.6931 605.023L18.8377 611.734C18.7699 611.828 18.8369 611.959 18.9525 611.959H23.9832C24.5721 611.959 24.9853 612.354 24.9853 612.935C24.9853 613.506 24.5634 613.902 23.9744 613.902H17.2409C16.4674 613.902 15.9399 613.409 15.9399 612.697Z" fill="#FF00FF"/>
<path d="M99.25 781.75C98.8594 781.75 98.6201 781.506 98.6201 781.096V775.275C98.6201 774.86 98.8594 774.621 99.25 774.621C99.6406 774.621 99.8799 774.86 99.8799 775.275V780.544C99.8799 780.622 99.9434 780.686 100.022 780.686H102.58C102.922 780.686 103.156 780.891 103.156 781.218C103.156 781.545 102.927 781.75 102.58 781.75H99.25V781.75Z" fill="#FF00FF"/>
<path d="M106.252 776.467C104.743 776.467 103.747 777.492 103.747 779.162C103.747 780.832 104.733 781.853 106.252 781.853C107.77 781.853 108.757 780.842 108.757 779.162C108.757 777.482 107.761 776.467 106.252 776.467ZM106.252 780.891C105.48 780.891 104.982 780.266 104.982 779.162C104.982 778.059 105.485 777.434 106.252 777.434C107.018 777.434 107.521 778.064 107.521 779.162C107.521 780.261 107.023 780.891 106.252 780.891Z" fill="#FF00FF"/>
<path d="M112.097 781.853C110.583 781.853 109.607 780.827 109.607 779.167C109.607 777.507 110.578 776.467 112.087 776.467C113.103 776.467 113.967 776.989 114.216 777.717C114.255 777.819 114.28 777.922 114.28 778.01C114.28 778.312 114.05 778.498 113.757 778.498C113.513 778.498 113.366 778.396 113.225 778.151C112.966 777.678 112.624 777.453 112.121 777.453C111.34 777.453 110.842 778.103 110.842 779.162C110.842 780.222 111.345 780.871 112.116 780.871C112.654 780.871 112.986 780.622 113.22 780.207C113.386 779.934 113.518 779.831 113.781 779.831C114.07 779.831 114.294 780.026 114.294 780.329C114.294 780.422 114.27 780.524 114.221 780.642C113.933 781.35 113.073 781.853 112.097 781.853Z" fill="#FF00FF"/>
<path d="M115.959 781.848C115.603 781.848 115.349 781.618 115.349 781.208V775.246C115.349 774.836 115.603 774.606 115.959 774.606C116.316 774.606 116.565 774.836 116.565 775.246V778.388C116.565 778.514 116.717 778.577 116.806 778.489L118.611 776.706C118.767 776.54 118.899 776.472 119.084 776.472C119.387 776.472 119.616 776.701 119.616 776.994C119.616 777.175 119.563 777.287 119.397 777.443L118.017 778.75C117.963 778.801 117.957 778.884 118.004 778.942L119.543 780.866C119.67 781.042 119.709 781.149 119.709 781.306C119.709 781.623 119.47 781.848 119.133 781.848C118.894 781.848 118.752 781.765 118.576 781.511L117.119 779.664C117.068 779.599 116.972 779.592 116.911 779.648L116.654 779.889C116.597 779.942 116.565 780.017 116.565 780.096V781.208C116.565 781.618 116.316 781.848 115.959 781.848V781.848Z" fill="#FF00FF"/>
<path fill-rule="evenodd" clip-rule="evenodd" d="M16.6079 765.216C16.9055 764.818 17.4694 764.737 17.8674 765.034L23.2104 769.029C23.4376 769.199 23.5714 769.466 23.5714 769.75C23.5714 770.034 23.4376 770.301 23.2104 770.471L17.8674 774.466C17.4694 774.763 16.9055 774.682 16.6079 774.284C16.3104 773.886 16.3917 773.322 16.7897 773.025L21.0191 769.862C21.094 769.806 21.094 769.694 21.0191 769.638L16.7897 766.475C16.3917 766.178 16.3104 765.614 16.6079 765.216Z" fill="#FF00FF"/>
<path d="M19.0326 790.919C19.0326 790.392 19.4667 789.958 19.9938 789.958C20.5271 789.958 20.9612 790.392 20.9612 790.919C20.9612 791.452 20.5271 791.887 19.9938 791.887C19.4667 791.887 19.0326 791.452 19.0326 790.919Z" fill="#FF00FF"/>
<rect x="743.5" y="702" width="67.5" height="54" stroke="#00FFFF"/>
<rect x="676" y="702" width="67.5" height="54" stroke="#00FFFF"/>
<rect x="608.5" y="702" width="67.5" height="54" stroke="#00FFFF"/>
<rect x="541" y="702" width="67.5" height="54" stroke="#00FFFF"/>
<rect x="136" y="702" width="67.5" height="54" stroke="#00FFFF"/>
<rect x="68.5" y="702" width="67.5" height="54" stroke="#00FFFF"/>
<rect x="1" y="702" width="67.5" height="54" stroke="#00FFFF"/>
<rect x="662.5" y="648" width="148.5" height="54" stroke="#00FFFF"/>
<rect x="1" y="648" width="121.5" height="54" stroke="#00FFFF"/>
<rect x="689.5" y="594" width="121.5" height="54" stroke="#00FFFF"/>
<rect x="1" y="594" width="94.5" height="54" stroke="#00FFFF"/>
<rect x="1" y="540" width="81" height="54" stroke="#00FFFF"/>
<rect x="703" y="486" width="108" height="54" stroke="#00FFFF"/>
<rect x="608.5" y="648" width="54" height="54" stroke="#00FFFF"/>
<rect x="554.5" y="648" width="54" height="54" stroke="#00FFFF"/>
<rect x="500.5" y="648" width="54" height="54" stroke="#00FFFF"/>
<rect x="446.5" y="648" width="54" height="54" stroke="#00FFFF"/>
<rect x="392.5" y="648" width="54" height="54" stroke="#00FFFF"/>
<rect x="338.5" y="648" width="54" height="54" stroke="#00FFFF"/>
<rect x="284.5" y="648" width="54" height="54" stroke="#00FFFF"/>
<rect x="230.5" y="648" width="54" height="54" stroke="#00FFFF"/>
<rect x="176.5" y="648" width="54" height="54" stroke="#00FFFF"/>
<rect x="122.5" y="648" width="54" height="54" stroke="#00FFFF"/>
<rect x="635.5" y="594" width="54" height="54" stroke="#00FFFF"/>
<rect x="581.5" y="594" width="54" height="54" stroke="#00FFFF"/>
<rect x="527.5" y="594" width="54" height="54" stroke="#00FFFF"/>
<rect x="473.5" y="594" width="54" height="54" stroke="#00FFFF"/>
<rect x="419.5" y="594" width="54" height="54" stroke="#00FFFF"/>
<rect x="365.5" y="594" width="54" height="54" stroke="#00FFFF"/>
<rect x="311.5" y="594" width="54" height="54" stroke="#00FFFF"/>
<rect x="257.5" y="594" width="54" height="54" stroke="#00FFFF"/>
<rect x="203.5" y="594" width="54" height="54" stroke="#00FFFF"/>
<rect x="149.5" y="594" width="54" height="54" stroke="#00FFFF"/>
<rect x="95.5" y="594" width="54" height="54" stroke="#00FFFF"/>
<rect x="730" y="540" width="81" height="54" stroke="#00FFFF"/>
<rect x="676" y="540" width="54" height="54" stroke="#00FFFF"/>
<rect x="622" y="540" width="54" height="54" stroke="#00FFFF"/>
<rect x="568" y="540" width="54" height="54" stroke="#00FFFF"/>
<rect x="514" y="540" width="54" height="54" stroke="#00FFFF"/>
<rect x="460" y="540" width="54" height="54" stroke="#00FFFF"/>
<rect x="406" y="540" width="54" height="54" stroke="#00FFFF"/>
<rect x="352" y="540" width="54" height="54" stroke="#00FFFF"/>
<rect x="298" y="540" width="54" height="54" stroke="#00FFFF"/>
<rect x="244" y="540" width="54" height="54" stroke="#00FFFF"/>
<rect x="190" y="540" width="54" height="54" stroke="#00FFFF"/>
<rect x="136" y="540" width="54" height="54" stroke="#00FFFF"/>
<rect x="82" y="540" width="54" height="54" stroke="#00FFFF"/>
<rect x="55" y="486" width="54" height="54" stroke="#00FFFF"/>
<rect x="109" y="486" width="54" height="54" stroke="#00FFFF"/>
<rect x="163" y="486" width="54" height="54" stroke="#00FFFF"/>
<rect x="217" y="486" width="54" height="54" stroke="#00FFFF"/>
<rect x="271" y="486" width="54" height="54" stroke="#00FFFF"/>
<rect x="325" y="486" width="54" height="54" stroke="#00FFFF"/>
<rect x="379" y="486" width="54" height="54" stroke="#00FFFF"/>
<rect x="433" y="486" width="54" height="54" stroke="#00FFFF"/>
<rect x="487" y="486" width="54" height="54" stroke="#00FFFF"/>
<rect x="541" y="486" width="54" height="54" stroke="#00FFFF"/>
<rect x="595" y="486" width="54" height="54" stroke="#00FFFF"/>
<rect x="649" y="486" width="54" height="54" stroke="#00FFFF"/>
<rect x="1" y="486" width="54" height="54" stroke="#00FFFF"/>
<rect x="217" y="432" width="54" height="54" stroke="#00FFFF"/>
<rect x="163" y="432" width="54" height="54" stroke="#00FFFF"/>
<rect x="109" y="432" width="54" height="54" stroke="#00FFFF"/>
<rect x="55" y="432" width="54" height="54" stroke="#00FFFF"/>
<rect x="433" y="432" width="54" height="54" stroke="#00FFFF"/>
<rect x="379" y="432" width="54" height="54" stroke="#00FFFF"/>
<rect x="325" y="432" width="54" height="54" stroke="#00FFFF"/>
<rect x="271" y="432" width="54" height="54" stroke="#00FFFF"/>
<rect x="649" y="432" width="54" height="54" stroke="#00FFFF"/>
<rect x="595" y="432" width="54" height="54" stroke="#00FFFF"/>
<rect x="541" y="432" width="54" height="54" stroke="#00FFFF"/>
<rect x="487" y="432" width="54" height="54" stroke="#00FFFF"/>
<rect x="541" y="378" width="54" height="54" stroke="#00FFFF"/>
<rect x="487" y="378" width="54" height="54" stroke="#00FFFF"/>
<rect x="433" y="378" width="54" height="54" stroke="#00FFFF"/>
<rect x="487" y="324" width="54" height="54" stroke="#00FFFF"/>
<rect x="703" y="378" width="54" height="54" stroke="#00FFFF"/>
<rect x="595" y="378" width="108" height="54" stroke="#00FFFF"/>
<rect x="757" y="324" width="54" height="108" stroke="#00FFFF"/>
<rect x="703" y="324" width="54" height="54" stroke="#00FFFF"/>
<rect x="649" y="324" width="54" height="54" stroke="#00FFFF"/>
<rect x="595" y="324" width="54" height="54" stroke="#00FFFF"/>
<rect x="703" y="270" width="54" height="54" stroke="#00FFFF"/>
<rect x="595" y="270" width="54" height="54" stroke="#00FFFF"/>
<rect x="757" y="216" width="54" height="108" stroke="#00FFFF"/>
<rect x="703" y="216" width="54" height="54" stroke="#00FFFF"/>
<rect x="649" y="216" width="54" height="54" stroke="#00FFFF"/>
<rect x="595" y="216" width="54" height="54" stroke="#00FFFF"/>
<rect x="757" y="162" width="54" height="54" stroke="#00FFFF"/>
<rect x="703" y="162" width="54" height="54" stroke="#00FFFF"/>
<rect x="649" y="162" width="54" height="54" stroke="#00FFFF"/>
<rect x="595" y="162" width="54" height="54" stroke="#00FFFF"/>
<rect x="649" y="270" width="54" height="54" stroke="#00FFFF"/>
<rect x="541" y="162" width="54" height="54" stroke="#00FFFF"/>
<rect x="487" y="162" width="54" height="54" stroke="#00FFFF"/>
<rect x="433" y="162" width="54" height="54" stroke="#00FFFF"/>
<rect x="541" y="216" width="54" height="54" stroke="#00FFFF"/>
<rect x="487" y="216" width="54" height="54" stroke="#00FFFF"/>
<rect x="433" y="216" width="54" height="54" stroke="#00FFFF"/>
<rect x="541" y="270" width="54" height="54" stroke="#00FFFF"/>
<rect x="487" y="270" width="54" height="54" stroke="#00FFFF"/>
<rect x="433" y="270" width="54" height="54" stroke="#00FFFF"/>
<rect x="595" y="756" width="81" height="54" stroke="#00FFFF"/>
<rect x="676" y="756" width="54" height="54" stroke="#00FFFF"/>
<rect x="730" y="756" width="81" height="54" stroke="#00FFFF"/>
<rect x="136" y="756" width="81" height="54" stroke="#00FFFF"/>
<rect x="82" y="756" width="54" height="54" stroke="#00FFFF"/>
<rect x="1" y="756" width="81" height="54" stroke="#00FFFF"/>
<rect x="1" y="432" width="54" height="54" stroke="#00FFFF"/>
<rect x="757" y="432" width="54" height="54" stroke="#00FFFF"/>
<rect x="703" y="432" width="54" height="54" stroke="#00FFFF"/>
<rect x="541" y="324" width="54" height="54" stroke="#00FFFF"/>
<rect x="433" y="324" width="54" height="54" stroke="#00FFFF"/>
<rect x="379" y="324" width="54" height="54" stroke="#00FFFF"/>
<rect x="379" y="378" width="54" height="54" stroke="#00FFFF"/>
<rect x="298" y="378" width="81" height="54" stroke="#00FFFF"/>
<rect x="298" y="324" width="81" height="54" stroke="#00FFFF"/>
<rect x="217" y="324" width="81" height="108" stroke="#00FFFF"/>
<rect x="176.5" y="378" width="54" height="54" stroke="#00FFFF"/>
<rect x="122.5" y="378" width="54" height="54" stroke="#00FFFF"/>
<rect x="68.5" y="378" width="54" height="54" stroke="#00FFFF"/>
<rect x="1" y="378" width="67.5" height="54" stroke="#00FFFF"/>
<rect x="109" y="324" width="54" height="54" stroke="#00FFFF"/>
<rect x="55" y="324" width="54" height="54" stroke="#00FFFF"/>
<rect x="1" y="324" width="54" height="54" stroke="#00FFFF"/>
<rect x="163" y="324" width="54" height="54" stroke="#00FFFF"/>
<rect x="271" y="270" width="94.5" height="54" stroke="#00FFFF"/>
<rect x="365.5" y="270" width="67.5" height="54" stroke="#00FFFF"/>
<rect x="217" y="270" width="54" height="54" stroke="#00FFFF"/>
<rect x="163" y="270" width="54" height="54" stroke="#00FFFF"/>
<rect x="95.5" y="270" width="67.5" height="54" stroke="#00FFFF"/>
<rect x="1" y="270" width="94.5" height="54" stroke="#00FFFF"/>
<rect x="379" y="162" width="54" height="54" stroke="#00FFFF"/>
<rect x="271" y="162" width="54" height="54" stroke="#00FFFF"/>
<rect x="163" y="162" width="108" height="54" stroke="#00FFFF"/>
<rect x="95.5" y="162" width="67.5" height="54" stroke="#00FFFF"/>
<rect x="217" y="216" width="54" height="54" stroke="#00FFFF"/>
<rect x="163" y="216" width="54" height="54" stroke="#00FFFF"/>
<rect x="95.5" y="216" width="67.5" height="54" stroke="#00FFFF"/>
<rect x="1" y="216" width="94.5" height="54" stroke="#00FFFF"/>
<rect x="1" y="162" width="94.5" height="54" stroke="#00FFFF"/>
<rect x="730" y="54" width="81" height="108" stroke="#00FFFF"/>
<rect x="635.5" y="108" width="54" height="54" stroke="#00FFFF"/>
<rect x="554.5" y="108" width="81" height="54" stroke="#00FFFF"/>
<rect x="446.5" y="108" width="108" height="54" stroke="#00FFFF"/>
<rect x="311.5" y="108" width="81" height="54" stroke="#00FFFF"/>
<rect x="257.5" y="108" width="54" height="54" stroke="#00FFFF"/>
<rect x="163" y="108" width="94.5" height="54" stroke="#00FFFF"/>
<rect x="82" y="108" width="81" height="54" stroke="#00FFFF"/>
<rect x="1" y="108" width="81" height="54" stroke="#00FFFF"/>
<rect x="635.5" y="54" width="94.5" height="54" stroke="#00FFFF"/>
<rect x="527.5" y="54" width="54" height="54" stroke="#00FFFF"/>
<rect x="473.5" y="54" width="54" height="54" stroke="#00FFFF"/>
<rect x="392.5" y="54" width="81" height="54" stroke="#00FFFF"/>
</svg>
