<svg width="812" height="811" viewBox="0 0 812 811" fill="none" xmlns="http://www.w3.org/2000/svg">
<path d="M627.798 727.87C625.762 727.87 624.507 726.488 624.507 724.228C624.507 721.967 625.782 720.59 627.774 720.59C629.077 720.59 630.108 721.2 630.572 722.23C630.65 722.392 630.689 722.558 630.689 722.704C630.689 723.041 630.469 723.256 630.132 723.256C629.844 723.256 629.654 723.119 629.517 722.812C629.19 722.055 628.55 721.659 627.784 721.659C626.573 721.659 625.796 722.655 625.796 724.228C625.796 725.8 626.568 726.801 627.789 726.801C628.594 726.801 629.214 726.449 629.537 725.707C629.664 725.419 629.825 725.302 630.098 725.302C630.445 725.302 630.684 725.531 630.684 725.863C630.684 726.024 630.645 726.171 630.567 726.337C630.118 727.294 629.117 727.87 627.798 727.87L627.798 727.87Z" fill="#FF00FF"/>
<path d="M642.778 723.485C643.535 723.485 644.038 724.144 644.043 725.16C644.038 726.166 643.564 726.835 642.778 726.835C641.992 726.835 641.503 726.181 641.503 725.16C641.503 724.134 642.021 723.485 642.778 723.485ZM640.258 725.16C640.258 726.816 641.093 727.836 642.407 727.836C642.893 727.836 643.663 727.592 643.964 727.49C644.031 727.467 644.106 727.497 644.138 727.561C644.146 727.577 644.154 727.594 644.164 727.608C644.284 727.779 644.459 727.851 644.658 727.851C645.005 727.851 645.249 727.626 645.249 727.226V721.248C645.249 720.838 645 720.608 644.643 720.608C644.287 720.608 644.033 720.838 644.033 721.248V722.728C644.033 722.831 643.927 722.9 643.833 722.858C643.471 722.695 642.869 722.489 642.387 722.489C641.088 722.489 640.258 723.509 640.258 725.16V725.16Z" fill="#FF00FF"/>
<path d="M631.855 727.211V723.094C631.855 722.698 632.095 722.474 632.437 722.474C632.591 722.474 632.724 722.52 632.826 722.605C632.887 722.656 632.931 722.726 632.961 722.786C632.995 722.853 633.076 722.881 633.145 722.85C633.414 722.731 634.039 722.479 634.522 722.479C635.135 722.479 635.704 722.801 635.898 722.923C635.941 722.951 635.996 722.952 636.041 722.928C636.258 722.809 636.921 722.479 637.609 722.479C638.629 722.479 639.298 723.167 639.298 724.203V727.211C639.298 727.616 639.054 727.851 638.693 727.851C638.332 727.851 638.082 727.616 638.082 727.211V724.5C638.082 723.866 637.75 723.504 637.154 723.504C636.559 723.504 636.168 723.934 636.168 724.554V727.211C636.168 727.616 635.938 727.851 635.577 727.851C635.216 727.851 634.986 727.616 634.986 727.211V724.437C634.986 723.861 634.634 723.504 634.068 723.504C633.501 723.504 633.072 723.958 633.072 724.583V727.211C633.072 727.616 632.822 727.851 632.461 727.851C632.1 727.851 631.855 727.616 631.855 727.211Z" fill="#FF00FF"/>
<path d="M560.36 720.648C558.304 720.648 557.015 722.05 557.015 724.291C557.015 726.532 558.304 727.929 560.36 727.929C562.416 727.929 563.7 726.532 563.7 724.291C563.7 722.05 562.411 720.648 560.36 720.648ZM560.36 726.855C559.1 726.855 558.304 725.858 558.304 724.291C558.304 722.724 559.1 721.723 560.36 721.723C561.62 721.723 562.416 722.719 562.416 724.291C562.416 725.863 561.615 726.855 560.36 726.855Z" fill="#FF00FF"/>
<path d="M574.949 722.533C574.578 722.533 574.344 722.782 574.344 723.173V727.27C574.344 727.665 574.578 727.909 574.949 727.909C575.32 727.909 575.559 727.665 575.559 727.27V723.178C575.559 722.782 575.32 722.533 574.949 722.533V722.533ZM574.949 721.908C575.33 721.908 575.628 721.615 575.628 721.249C575.628 720.883 575.33 720.59 574.949 720.59C574.568 720.59 574.275 720.878 574.275 721.249C574.275 721.62 574.573 721.908 574.949 721.908Z" fill="#FF00FF"/>
<path d="M582.555 727.269V723.147C582.555 722.771 582.775 722.532 583.136 722.532C583.343 722.532 583.512 722.612 583.617 722.753C583.643 722.787 583.665 722.826 583.682 722.863C583.717 722.933 583.801 722.963 583.872 722.929C584.138 722.8 584.758 722.537 585.373 722.537C586.516 722.537 587.165 723.269 587.165 724.466V727.269C587.165 727.68 586.916 727.909 586.56 727.909C586.203 727.909 585.949 727.68 585.949 727.269V724.71C585.949 723.978 585.607 723.567 584.914 723.567C584.22 723.567 583.771 724.07 583.771 724.813V727.269C583.771 727.68 583.517 727.909 583.161 727.909C582.804 727.909 582.555 727.68 582.555 727.269Z" fill="#FF00FF"/>
<path d="M579.07 722.528C577.561 722.528 576.565 723.554 576.565 725.224C576.565 726.894 577.551 727.914 579.07 727.914C580.589 727.914 581.575 726.903 581.575 725.224C581.575 723.544 580.579 722.528 579.07 722.528ZM579.07 726.952C578.298 726.952 577.8 726.327 577.8 725.224C577.8 724.12 578.303 723.495 579.07 723.495C579.837 723.495 580.339 724.125 580.339 725.224C580.339 726.322 579.841 726.952 579.07 726.952Z" fill="#FF00FF"/>
<path d="M567.254 726.898C566.497 726.898 565.994 726.238 565.989 725.223C565.994 724.217 566.467 723.548 567.254 723.548C568.04 723.548 568.528 724.202 568.528 725.223C568.528 726.248 568.011 726.898 567.254 726.898ZM569.773 725.223C569.773 723.567 568.938 722.546 567.625 722.546C567.139 722.546 566.368 722.79 566.068 722.892C566 722.915 565.925 722.886 565.894 722.822C565.886 722.805 565.877 722.789 565.867 722.774C565.748 722.604 565.572 722.532 565.373 722.532C565.026 722.532 564.782 722.756 564.782 723.157V729.013C564.782 729.423 565.031 729.652 565.388 729.652C565.745 729.652 565.998 729.423 565.998 729.013V727.654C565.998 727.552 566.104 727.483 566.198 727.525C566.56 727.688 567.163 727.894 567.644 727.894C568.943 727.894 569.774 726.873 569.774 725.223L569.773 725.223Z" fill="#FF00FF"/>
<path d="M571.092 726.532V723.716C571.092 723.637 571.028 723.574 570.95 723.574H570.765C570.462 723.574 570.276 723.403 570.276 723.11C570.276 722.817 570.462 722.651 570.765 722.651H570.95C571.028 722.651 571.092 722.588 571.092 722.509V721.946C571.092 721.556 571.326 721.312 571.702 721.312C572.078 721.312 572.308 721.556 572.308 721.946V722.509C572.308 722.588 572.371 722.651 572.45 722.651H572.869C573.172 722.651 573.358 722.822 573.358 723.11C573.358 723.398 573.172 723.574 572.869 723.574H572.45C572.371 723.574 572.308 723.638 572.308 723.716V726.268C572.308 726.659 572.445 726.83 572.796 726.859L572.884 726.869C573.206 726.898 573.373 727.035 573.373 727.318C573.373 727.675 573.06 727.865 572.503 727.865H572.455C571.551 727.865 571.092 727.416 571.092 726.532H571.092L571.092 726.532Z" fill="#FF00FF"/>
<path d="M155.36 720.648C153.304 720.648 152.015 722.05 152.015 724.291C152.015 726.532 153.304 727.929 155.36 727.929C157.416 727.929 158.7 726.532 158.7 724.291C158.7 722.05 157.411 720.648 155.36 720.648ZM155.36 726.855C154.1 726.855 153.304 725.858 153.304 724.291C153.304 722.724 154.1 721.723 155.36 721.723C156.62 721.723 157.416 722.719 157.416 724.291C157.416 725.863 156.615 726.855 155.36 726.855Z" fill="#FF00FF"/>
<path d="M169.949 722.533C169.578 722.533 169.344 722.782 169.344 723.173V727.27C169.344 727.665 169.578 727.909 169.949 727.909C170.32 727.909 170.559 727.665 170.559 727.27V723.178C170.559 722.782 170.32 722.533 169.949 722.533V722.533ZM169.949 721.908C170.33 721.908 170.628 721.615 170.628 721.249C170.628 720.883 170.33 720.59 169.949 720.59C169.568 720.59 169.275 720.878 169.275 721.249C169.275 721.62 169.573 721.908 169.949 721.908Z" fill="#FF00FF"/>
<path d="M177.555 727.269V723.147C177.555 722.771 177.775 722.532 178.136 722.532C178.343 722.532 178.512 722.612 178.617 722.753C178.643 722.787 178.665 722.826 178.682 722.863C178.717 722.933 178.801 722.963 178.872 722.929C179.138 722.8 179.758 722.537 180.373 722.537C181.516 722.537 182.165 723.269 182.165 724.466V727.269C182.165 727.68 181.916 727.909 181.56 727.909C181.203 727.909 180.949 727.68 180.949 727.269V724.71C180.949 723.978 180.607 723.567 179.914 723.567C179.22 723.567 178.771 724.07 178.771 724.813V727.269C178.771 727.68 178.517 727.909 178.161 727.909C177.804 727.909 177.555 727.68 177.555 727.269Z" fill="#FF00FF"/>
<path d="M174.07 722.528C172.561 722.528 171.565 723.554 171.565 725.224C171.565 726.894 172.551 727.914 174.07 727.914C175.589 727.914 176.575 726.903 176.575 725.224C176.575 723.544 175.579 722.528 174.07 722.528ZM174.07 726.952C173.298 726.952 172.8 726.327 172.8 725.224C172.8 724.12 173.303 723.495 174.07 723.495C174.837 723.495 175.339 724.125 175.339 725.224C175.339 726.322 174.841 726.952 174.07 726.952Z" fill="#FF00FF"/>
<path d="M162.254 726.898C161.497 726.898 160.994 726.238 160.989 725.223C160.994 724.217 161.467 723.548 162.254 723.548C163.04 723.548 163.528 724.202 163.528 725.223C163.528 726.248 163.011 726.898 162.254 726.898ZM164.773 725.223C164.773 723.567 163.938 722.546 162.625 722.546C162.139 722.546 161.368 722.79 161.068 722.892C161 722.915 160.925 722.886 160.894 722.822C160.886 722.805 160.877 722.789 160.867 722.774C160.748 722.604 160.572 722.532 160.373 722.532C160.026 722.532 159.782 722.756 159.782 723.157V729.013C159.782 729.423 160.031 729.652 160.388 729.652C160.745 729.652 160.998 729.423 160.998 729.013V727.654C160.998 727.552 161.104 727.483 161.198 727.525C161.56 727.688 162.163 727.894 162.644 727.894C163.943 727.894 164.774 726.873 164.774 725.223L164.773 725.223Z" fill="#FF00FF"/>
<path d="M166.092 726.532V723.716C166.092 723.637 166.028 723.574 165.95 723.574H165.765C165.462 723.574 165.276 723.403 165.276 723.11C165.276 722.817 165.462 722.651 165.765 722.651H165.95C166.028 722.651 166.092 722.588 166.092 722.509V721.946C166.092 721.556 166.326 721.312 166.702 721.312C167.078 721.312 167.308 721.556 167.308 721.946V722.509C167.308 722.588 167.371 722.651 167.45 722.651H167.869C168.172 722.651 168.358 722.822 168.358 723.11C168.358 723.398 168.172 723.574 167.869 723.574H167.45C167.371 723.574 167.308 723.638 167.308 723.716V726.268C167.308 726.659 167.445 726.83 167.796 726.859L167.884 726.869C168.206 726.898 168.373 727.035 168.373 727.318C168.373 727.675 168.06 727.865 167.503 727.865H167.455C166.551 727.865 166.092 727.416 166.092 726.532H166.092L166.092 726.532Z" fill="#FF00FF"/>
<path d="M87.7982 727.87C85.762 727.87 84.5071 726.488 84.5071 724.228C84.5071 721.967 85.7816 720.59 87.7738 720.59C89.0775 720.59 90.1078 721.2 90.5717 722.23C90.6498 722.392 90.6889 722.558 90.6889 722.704C90.6889 723.041 90.4692 723.256 90.1323 723.256C89.8442 723.256 89.6538 723.119 89.5171 722.812C89.1899 722.055 88.5503 721.659 87.7837 721.659C86.5727 721.659 85.7964 722.655 85.7964 724.228C85.7964 725.8 86.5679 726.801 87.7886 726.801C88.5943 726.801 89.2144 726.449 89.5367 725.707C89.6637 725.419 89.8248 725.302 90.0982 725.302C90.4449 725.302 90.6841 725.531 90.6841 725.863C90.6841 726.024 90.645 726.171 90.5669 726.337C90.1177 727.294 89.1167 727.87 87.7983 727.87L87.7982 727.87Z" fill="#FF00FF"/>
<path d="M102.778 723.485C103.535 723.485 104.038 724.144 104.043 725.16C104.038 726.166 103.564 726.835 102.778 726.835C101.992 726.835 101.503 726.181 101.503 725.16C101.503 724.134 102.021 723.485 102.778 723.485ZM100.258 725.16C100.258 726.816 101.093 727.836 102.407 727.836C102.893 727.836 103.663 727.592 103.964 727.49C104.031 727.467 104.106 727.497 104.138 727.561C104.146 727.577 104.154 727.594 104.164 727.608C104.284 727.779 104.459 727.851 104.658 727.851C105.005 727.851 105.249 727.626 105.249 727.226V721.248C105.249 720.838 105 720.608 104.643 720.608C104.287 720.608 104.033 720.838 104.033 721.248V722.728C104.033 722.831 103.927 722.9 103.833 722.858C103.471 722.695 102.869 722.489 102.387 722.489C101.088 722.489 100.258 723.509 100.258 725.16V725.16Z" fill="#FF00FF"/>
<path d="M91.8555 727.211V723.094C91.8555 722.698 92.0948 722.474 92.4366 722.474C92.5906 722.474 92.7239 722.52 92.8257 722.605C92.8865 722.656 92.9309 722.726 92.9611 722.786C92.9949 722.853 93.076 722.881 93.1447 722.85C93.4137 722.731 94.0388 722.479 94.5221 722.479C95.1352 722.479 95.704 722.801 95.8976 722.923C95.9411 722.951 95.996 722.952 96.0411 722.928C96.2576 722.809 96.9214 722.479 97.6086 722.479C98.6294 722.479 99.2985 723.167 99.2985 724.203V727.211C99.2985 727.616 99.0543 727.851 98.6929 727.851C98.3315 727.851 98.0824 727.616 98.0824 727.211V724.5C98.0824 723.866 97.7503 723.504 97.1545 723.504C96.5586 723.504 96.1679 723.934 96.1679 724.554V727.211C96.1679 727.616 95.9383 727.851 95.5769 727.851C95.2155 727.851 94.9859 727.616 94.9859 727.211V724.437C94.9859 723.861 94.6343 723.504 94.0678 723.504C93.5013 723.504 93.0715 723.958 93.0715 724.583V727.211C93.0715 727.616 92.8224 727.851 92.461 727.851C92.0997 727.851 91.8555 727.616 91.8555 727.211Z" fill="#FF00FF"/>
<path d="M631.388 658.935C631.388 659.835 630.563 660.915 629.183 660.915C627.998 660.915 626.693 659.895 625.928 659.895C625.103 659.895 624.893 660.795 624.263 660.795C623.783 660.795 623.618 660.42 623.618 660.075C623.618 659.175 624.443 658.095 625.733 658.095C627.008 658.095 628.313 659.115 629.078 659.115C629.903 659.115 630.113 658.215 630.743 658.215C631.223 658.215 631.388 658.59 631.388 658.935Z" fill="#FF00FF"/>
<path d="M627.422 679.895L626.27 678.576C626.143 678.42 626.064 678.205 626.064 677.98C626.064 677.492 626.465 677.082 626.953 677.082C627.207 677.082 627.461 677.15 627.695 677.492L628.623 678.898C628.711 679.035 628.789 679.201 628.789 679.377C628.789 679.816 628.428 680.178 628.018 680.178C627.773 680.178 627.568 680.061 627.422 679.895Z" fill="#FF00FF"/>
<path fill-rule="evenodd" clip-rule="evenodd" d="M246.209 462.353C246.209 464.33 244.606 465.933 242.629 465.933C240.652 465.933 239.049 464.33 239.049 462.353C239.049 460.376 240.652 458.773 242.629 458.773C244.606 458.773 246.209 460.376 246.209 462.353ZM245.5 466.585C245.453 466.537 245.379 466.53 245.322 466.566C244.545 467.064 243.621 467.353 242.629 467.353C239.868 467.353 237.629 465.114 237.629 462.353C237.629 459.592 239.868 457.353 242.629 457.353C245.39 457.353 247.629 459.592 247.629 462.353C247.629 463.371 247.325 464.318 246.802 465.108C246.765 465.164 246.772 465.239 246.819 465.287L250.1 468.568C250.461 468.929 250.461 469.515 250.1 469.876C249.739 470.237 249.153 470.237 248.792 469.876L245.5 466.585Z" fill="#FF00FF"/>
<path d="M239.085 447.833C238.694 447.833 238.455 447.594 238.455 447.179V441.358C238.455 440.948 238.694 440.704 239.085 440.704H242.454C242.801 440.704 243.03 440.909 243.03 441.236C243.03 441.563 242.796 441.769 242.454 441.769H239.857C239.778 441.769 239.715 441.832 239.715 441.91V443.707C239.715 443.785 239.778 443.849 239.857 443.849H242.2C242.532 443.849 242.752 444.044 242.752 444.361C242.752 444.679 242.532 444.874 242.2 444.874H239.857C239.778 444.874 239.715 444.937 239.715 445.016V447.179C239.715 447.594 239.481 447.833 239.085 447.833V447.833Z" fill="#FF00FF"/>
<path d="M249.016 445.362H248.665C248.587 445.362 248.523 445.299 248.523 445.221V441.534C248.523 440.948 248.138 440.606 247.488 440.606C246.97 440.606 246.663 440.821 246.204 441.505C245.359 442.745 244.558 443.951 244.065 444.835C243.87 445.187 243.792 445.416 243.792 445.69C243.792 446.109 244.09 446.398 244.544 446.398H247.18C247.259 446.398 247.322 446.461 247.322 446.539V447.228C247.322 447.623 247.576 447.848 247.923 447.848C248.269 447.848 248.523 447.623 248.523 447.228V446.539C248.523 446.461 248.587 446.398 248.665 446.398H249.012C249.348 446.398 249.549 446.188 249.549 445.88C249.549 445.572 249.348 445.362 249.016 445.362H249.016ZM247.2 445.392H245.167C245.056 445.392 244.988 445.271 245.046 445.176C245.382 444.625 246.304 443.127 247.083 442.003C247.163 441.889 247.342 441.945 247.342 442.084V445.25C247.342 445.328 247.278 445.392 247.2 445.392Z" fill="#FF00FF"/>
<path fill-rule="evenodd" clip-rule="evenodd" d="M184.399 460.404C184.261 460.404 184.169 460.506 184.169 460.624V461.914C184.169 462.042 184.271 462.144 184.399 462.144H188.059C188.11 462.144 188.164 462.123 188.21 462.077C188.255 462.031 188.279 461.972 188.279 461.914V460.624C188.279 460.501 188.182 460.404 188.059 460.404H184.399ZM182.749 460.624C182.749 459.702 183.497 458.984 184.399 458.984H188.059C188.956 458.984 189.699 459.707 189.699 460.624V461.914C189.699 462.806 188.971 463.564 188.059 463.564H184.399C183.487 463.564 182.749 462.826 182.749 461.914V460.624ZM193.409 461.074C193.291 461.074 193.189 461.176 193.189 461.294V464.614C193.189 464.752 193.291 464.844 193.409 464.844H195.609C195.727 464.844 195.829 464.752 195.829 464.614V461.294C195.829 461.176 195.727 461.074 195.609 461.074H193.409ZM191.769 461.294C191.769 460.392 192.507 459.654 193.409 459.654H195.609C196.511 459.654 197.249 460.392 197.249 461.294V464.614C197.249 465.516 196.531 466.264 195.609 466.264H193.409C192.507 466.264 191.769 465.536 191.769 464.614V461.294ZM186.339 465.794C186.339 465.746 186.359 465.694 186.403 465.651C186.447 465.607 186.503 465.584 186.559 465.584H189.529C189.588 465.584 189.643 465.608 189.685 465.651C189.73 465.695 189.749 465.749 189.749 465.794V466.864C189.749 466.982 189.647 467.084 189.529 467.084H186.559C186.441 467.084 186.339 466.982 186.339 466.864V465.794ZM186.559 464.164C185.662 464.164 184.919 464.897 184.919 465.794V466.864C184.919 467.766 185.657 468.504 186.559 468.504H189.529C190.431 468.504 191.169 467.766 191.169 466.864V465.794C191.169 464.917 190.446 464.164 189.529 464.164H186.559Z" fill="#FF00FF"/>
<path d="M185.291 447.833C184.9 447.833 184.661 447.594 184.661 447.179V441.358C184.661 440.948 184.9 440.704 185.291 440.704H188.66C189.006 440.704 189.236 440.909 189.236 441.236C189.236 441.563 189.002 441.769 188.66 441.769H186.062C185.984 441.769 185.92 441.832 185.92 441.91V443.707C185.92 443.785 185.984 443.849 186.062 443.849H188.406C188.738 443.849 188.958 444.044 188.958 444.361C188.958 444.679 188.738 444.874 188.406 444.874H186.062C185.984 444.874 185.92 444.937 185.92 445.016V447.179C185.92 447.594 185.686 447.833 185.291 447.833V447.833Z" fill="#FF00FF"/>
<path d="M192.703 447.892C191.467 447.892 190.666 447.389 190.3 446.68C190.207 446.51 190.168 446.348 190.168 446.182C190.168 445.85 190.378 445.64 190.73 445.64C190.989 445.64 191.145 445.752 191.277 446.011C191.521 446.544 191.946 446.861 192.718 446.861C193.489 446.861 194.061 446.402 194.061 445.762C194.065 445.01 193.518 444.59 192.615 444.59H192.215C191.902 444.59 191.716 444.4 191.716 444.121C191.716 443.843 191.902 443.652 192.215 443.652H192.586C193.362 443.652 193.88 443.208 193.88 442.583C193.88 441.957 193.479 441.562 192.698 441.562C192.034 441.562 191.648 441.835 191.414 442.387C191.277 442.69 191.14 442.802 190.847 442.802C190.495 442.802 190.31 442.597 190.31 442.275C190.31 442.099 190.344 441.943 190.432 441.772C190.764 441.074 191.545 440.561 192.693 440.561C194.153 440.561 195.091 441.323 195.091 442.412C195.091 443.176 194.583 443.675 194.296 443.895C194.217 443.956 194.225 444.079 194.312 444.13C194.662 444.335 195.34 444.852 195.34 445.792C195.34 447.042 194.246 447.892 192.703 447.892H192.703V447.892Z" fill="#FF00FF"/>
<path fill-rule="evenodd" clip-rule="evenodd" d="M135.99 456.99C136.382 456.99 136.7 457.308 136.7 457.7V458.83C136.7 459.222 136.382 459.54 135.99 459.54C135.598 459.54 135.28 459.222 135.28 458.83V457.7C135.28 457.308 135.598 456.99 135.99 456.99ZM140.782 459.962C141.059 459.685 141.059 459.235 140.782 458.958C140.505 458.681 140.055 458.681 139.778 458.958L138.968 459.768C138.691 460.045 138.691 460.495 138.968 460.772C139.245 461.049 139.695 461.049 139.972 460.772L140.782 459.962ZM136 462.33C135.214 462.33 134.58 462.97 134.58 463.75C134.58 464.524 135.218 465.16 136 465.16C136.792 465.16 137.42 464.534 137.42 463.75C137.42 462.962 136.788 462.33 136 462.33ZM133.16 463.75C133.16 462.19 134.426 460.91 136 460.91C137.572 460.91 138.84 462.178 138.84 463.75C138.84 465.326 137.568 466.58 136 466.58C134.442 466.58 133.16 465.316 133.16 463.75ZM136.01 467.96C136.402 467.96 136.72 468.278 136.72 468.67V469.8C136.72 470.192 136.402 470.51 136.01 470.51C135.618 470.51 135.3 470.192 135.3 469.8V468.67C135.3 468.278 135.618 467.96 136.01 467.96ZM139.982 466.718C139.705 466.441 139.255 466.441 138.978 466.718C138.701 466.995 138.701 467.445 138.978 467.722L139.788 468.532C140.065 468.809 140.515 468.809 140.792 468.532C141.069 468.255 141.069 467.805 140.792 467.528L139.982 466.718ZM140.21 463.74C140.21 463.348 140.528 463.03 140.92 463.03H142.05C142.442 463.03 142.76 463.348 142.76 463.74C142.76 464.132 142.442 464.45 142.05 464.45H140.92C140.528 464.45 140.21 464.132 140.21 463.74ZM132.212 458.968C131.935 458.691 131.485 458.691 131.208 458.968C130.931 459.245 130.931 459.695 131.208 459.972L132.018 460.782C132.295 461.059 132.745 461.059 133.022 460.782C133.299 460.505 133.299 460.055 133.022 459.778L132.212 458.968ZM129.24 463.76C129.24 463.368 129.558 463.05 129.95 463.05H131.08C131.472 463.05 131.79 463.368 131.79 463.76C131.79 464.152 131.472 464.47 131.08 464.47H129.95C129.558 464.47 129.24 464.152 129.24 463.76ZM133.032 467.732C133.309 467.455 133.309 467.005 133.032 466.728C132.755 466.451 132.305 466.451 132.028 466.728L131.218 467.538C130.941 467.815 130.941 468.265 131.218 468.542C131.495 468.819 131.945 468.819 132.222 468.542L133.032 467.732Z" fill="#FF00FF"/>
<path d="M131.366 447.833C130.976 447.833 130.736 447.594 130.736 447.179V441.358C130.736 440.948 130.976 440.704 131.366 440.704H134.735C135.082 440.704 135.312 440.909 135.312 441.236C135.312 441.563 135.077 441.769 134.735 441.769H132.138C132.06 441.769 131.996 441.832 131.996 441.91V443.707C131.996 443.785 132.06 443.849 132.138 443.849H134.481C134.813 443.849 135.033 444.044 135.033 444.361C135.033 444.679 134.814 444.874 134.481 444.874H132.138C132.06 444.874 131.996 444.937 131.996 445.016V447.179C131.996 447.594 131.762 447.833 131.366 447.833V447.833Z" fill="#FF00FF"/>
<path d="M136.83 447.75C136.439 447.75 136.234 447.535 136.234 447.218C136.234 446.974 136.317 446.827 136.586 446.573L138.739 444.44C139.638 443.551 139.862 443.194 139.862 442.657C139.862 442.027 139.379 441.573 138.7 441.573C138.065 441.573 137.621 441.896 137.372 442.53C137.245 442.784 137.099 442.916 136.811 442.916C136.469 442.916 136.264 442.706 136.264 442.393C136.264 442.301 136.278 442.213 136.303 442.13C136.493 441.368 137.338 440.562 138.71 440.562C140.082 440.562 141.093 441.397 141.093 442.579C141.093 443.404 140.697 443.961 139.53 445.104L138.136 446.477C138.045 446.566 138.108 446.72 138.235 446.72H140.726C141.058 446.72 141.264 446.925 141.264 447.237C141.264 447.55 141.058 447.75 140.726 447.75H136.83Z" fill="#FF00FF"/>
<path fill-rule="evenodd" clip-rule="evenodd" d="M82.7049 458.405C82.7049 458.013 82.387 457.695 81.9949 457.695C81.6028 457.695 81.2849 458.013 81.2849 458.405V458.825C81.2849 459.217 81.6028 459.535 81.9949 459.535C82.387 459.535 82.7049 459.217 82.7049 458.825V458.405ZM86.2769 459.463C86.5542 459.74 86.5542 460.19 86.2769 460.467L85.9769 460.767C85.6997 461.044 85.2501 461.044 84.9728 460.767C84.6956 460.49 84.6956 460.04 84.9728 459.763L85.2728 459.463C85.5501 459.186 85.9997 459.186 86.2769 459.463ZM80.5849 463.755C80.5849 462.983 81.2214 462.335 82.0049 462.335C82.7928 462.335 83.4249 462.967 83.4249 463.755C83.4249 464.539 82.7972 465.165 82.0049 465.165C81.2249 465.165 80.5849 464.521 80.5849 463.755ZM82.0049 460.915C80.4285 460.915 79.1649 462.207 79.1649 463.755C79.1649 465.309 80.445 466.585 82.0049 466.585C83.5727 466.585 84.8449 465.332 84.8449 463.755C84.8449 462.183 83.577 460.915 82.0049 460.915ZM82.7149 468.675C82.7149 468.283 82.397 467.965 82.0049 467.965C81.6128 467.965 81.2949 468.283 81.2949 468.675V469.105C81.2949 469.497 81.6128 469.815 82.0049 469.815C82.397 469.815 82.7149 469.497 82.7149 469.105V468.675ZM84.9829 466.723C85.2601 466.446 85.7097 466.446 85.9869 466.723L86.2869 467.023C86.5642 467.3 86.5642 467.75 86.2869 468.027C86.0097 468.304 85.5601 468.304 85.2829 468.027L84.9829 467.727C84.7056 467.45 84.7056 467 84.9829 466.723ZM86.925 463.035C86.5328 463.035 86.215 463.353 86.215 463.745C86.215 464.137 86.5328 464.455 86.925 464.455H87.355C87.7471 464.455 88.065 464.137 88.065 463.745C88.065 463.353 87.7471 463.035 87.355 463.035H86.925ZM77.713 459.473C77.9902 459.196 78.4398 459.196 78.7171 459.473L79.0171 459.773C79.2943 460.05 79.2943 460.5 79.0171 460.777C78.7398 461.054 78.2902 461.054 78.013 460.777L77.713 460.477C77.4357 460.2 77.4357 459.75 77.713 459.473ZM76.6549 463.045C76.2628 463.045 75.9449 463.363 75.9449 463.755C75.9449 464.147 76.2628 464.465 76.6549 464.465H77.0749C77.4671 464.465 77.7849 464.147 77.7849 463.755C77.7849 463.363 77.4671 463.045 77.0749 463.045H76.6549ZM79.0269 466.733C79.3042 467.01 79.3042 467.46 79.0269 467.737L78.7269 468.037C78.4497 468.314 78.0001 468.314 77.7228 468.037C77.4456 467.76 77.4456 467.31 77.7228 467.033L78.0228 466.733C78.3001 466.456 78.7497 466.456 79.0269 466.733Z" fill="#FF00FF"/>
<path d="M78.3673 447.833C77.9767 447.833 77.7374 447.594 77.7374 447.179V441.358C77.7374 440.948 77.9767 440.704 78.3673 440.704H81.7365C82.0832 440.704 82.3127 440.909 82.3127 441.236C82.3127 441.563 82.0783 441.769 81.7365 441.769H79.1389C79.0606 441.769 78.9972 441.832 78.9972 441.91V443.707C78.9972 443.785 79.0607 443.849 79.1389 443.849H81.4825C81.8145 443.849 82.0343 444.044 82.0343 444.361C82.0343 444.679 81.8146 444.874 81.4825 444.874H79.1389C79.0606 444.874 78.9972 444.937 78.9972 445.016V447.179C78.9972 447.594 78.7628 447.833 78.3673 447.833V447.833Z" fill="#FF00FF"/>
<path d="M85.6425 447.848C85.2763 447.848 85.0224 447.594 85.0224 447.213V442.179C85.0224 442.065 84.8937 441.997 84.7998 442.063L83.8603 442.716C83.7382 442.804 83.6406 442.838 83.5038 442.838C83.2401 442.838 83.0497 442.648 83.0497 442.369C83.0497 442.174 83.1278 442.027 83.3378 441.881L84.7782 440.87C85.0907 440.65 85.286 440.606 85.5497 440.606C85.994 440.606 86.2626 440.875 86.2626 441.31V447.213C86.2626 447.594 86.0087 447.848 85.6425 447.848V447.848Z" fill="#FF00FF"/>
<path fill-rule="evenodd" clip-rule="evenodd" d="M461.707 460.514H462.618C462.924 460.514 463.172 460.762 463.172 461.068V466.432C463.172 466.738 462.924 466.986 462.618 466.986H461.707C461.401 466.986 461.153 466.738 461.153 466.432V461.068C461.153 460.762 461.401 460.514 461.707 460.514ZM465.613 460.514H466.525C466.83 460.514 467.078 460.762 467.078 461.068V466.432C467.078 466.738 466.83 466.986 466.525 466.986H465.613C465.307 466.986 465.06 466.738 465.06 466.432V461.068C465.06 460.762 465.307 460.514 465.613 460.514ZM458.172 464.616C458.838 464.231 458.838 463.269 458.172 462.884L454.422 460.719C453.755 460.334 452.922 460.815 452.922 461.585V465.915C452.922 466.685 453.755 467.166 454.422 466.781L458.172 464.616Z" fill="#FF00FF"/>
<path d="M455.18 447.833C454.789 447.833 454.55 447.594 454.55 447.179V441.358C454.55 440.948 454.789 440.704 455.18 440.704H458.549C458.896 440.704 459.125 440.909 459.125 441.236C459.125 441.563 458.891 441.769 458.549 441.769H455.952C455.873 441.769 455.81 441.832 455.81 441.91V443.707C455.81 443.785 455.873 443.849 455.952 443.849H458.295C458.627 443.849 458.847 444.044 458.847 444.361C458.847 444.679 458.627 444.874 458.295 444.874H455.952C455.873 444.874 455.81 444.937 455.81 445.016V447.179C455.81 447.594 455.576 447.833 455.18 447.833V447.833Z" fill="#FF00FF"/>
<path d="M465.449 445.845C465.449 445.005 464.993 444.534 464.346 444.132C464.263 444.081 464.255 443.963 464.331 443.902C464.851 443.479 465.195 443.131 465.195 442.442C465.195 441.357 464.16 440.562 462.705 440.562C461.249 440.562 460.214 441.357 460.214 442.442C460.214 443.131 460.558 443.479 461.078 443.902C461.154 443.963 461.146 444.081 461.063 444.132C460.416 444.534 459.96 445.005 459.96 445.845C459.96 447.047 461.093 447.892 462.704 447.892C464.316 447.892 465.449 447.047 465.449 445.845H465.449ZM462.705 441.514C463.432 441.514 463.95 441.948 463.95 442.569C463.95 443.189 463.437 443.614 462.705 443.614C461.972 443.614 461.459 443.189 461.459 442.569C461.459 441.948 461.977 441.514 462.705 441.514ZM462.705 446.93C461.86 446.93 461.264 446.436 461.264 445.753C461.264 445.069 461.86 444.576 462.705 444.576C463.549 444.576 464.145 445.069 464.145 445.753C464.145 446.436 463.549 446.93 462.705 446.93Z" fill="#FF00FF"/>
<path fill-rule="evenodd" clip-rule="evenodd" d="M399.608 462.884C398.942 463.269 398.942 464.231 399.608 464.616L403.358 466.781C404.025 467.166 404.858 466.685 404.858 465.915L404.858 461.585C404.858 460.815 404.025 460.334 403.358 460.719L399.608 462.884ZM407.11 462.884C406.443 463.269 406.443 464.231 407.11 464.616L410.86 466.781C411.527 467.166 412.36 466.685 412.36 465.915V461.585C412.36 460.815 411.527 460.334 410.86 460.719L407.11 462.884Z" fill="#FF00FF"/>
<path d="M401.495 447.833C401.104 447.833 400.865 447.594 400.865 447.179V441.358C400.865 440.948 401.104 440.704 401.495 440.704H404.864C405.211 440.704 405.44 440.909 405.44 441.236C405.44 441.563 405.206 441.769 404.864 441.769H402.267C402.188 441.769 402.125 441.832 402.125 441.91V443.707C402.125 443.785 402.188 443.849 402.267 443.849H404.61C404.942 443.849 405.162 444.044 405.162 444.361C405.162 444.679 404.942 444.874 404.61 444.874H402.267C402.188 444.874 402.125 444.937 402.125 445.016V447.179C402.125 447.594 401.891 447.833 401.495 447.833V447.833Z" fill="#FF00FF"/>
<path d="M407.584 447.848C407.232 447.848 407.008 447.633 407.008 447.335C407.008 447.189 407.042 447.081 407.115 446.935L409.757 441.942C409.807 441.848 409.739 441.734 409.632 441.734H406.662C406.378 441.734 406.141 441.508 406.138 441.223C406.135 440.907 406.361 440.704 406.675 440.704H410.377C410.826 440.704 411.133 440.968 411.133 441.412C411.133 441.642 411.06 441.837 410.889 442.169L408.15 447.482C408.013 447.75 407.857 447.848 407.584 447.848L407.584 447.848Z" fill="#FF00FF"/>
<path fill-rule="evenodd" clip-rule="evenodd" d="M358.061 465.69C358.424 466.19 358.421 466.868 358.053 467.366C356.84 469.01 354.884 470.081 352.678 470.081C348.99 470.081 346 467.092 346 463.404C346 461.196 347.074 459.238 348.723 458.025C349.221 457.658 349.899 457.656 350.399 458.02C350.899 458.383 351.107 459.029 350.912 459.615C350.768 460.049 350.69 460.514 350.69 461C350.69 463.426 352.658 465.394 355.086 465.394C355.571 465.394 356.034 465.317 356.466 465.174C357.053 464.98 357.698 465.189 358.061 465.69ZM354.771 468.228C354.878 468.181 354.983 468.131 355.086 468.078C355.677 467.773 356.202 467.36 356.635 466.865C356.725 466.762 356.621 466.611 356.488 466.644C356.039 466.755 355.57 466.814 355.086 466.814C354.887 466.814 354.689 466.804 354.495 466.785C351.752 466.508 349.572 464.326 349.299 461.583C349.28 461.391 349.27 461.197 349.27 461C349.27 460.514 349.33 460.042 349.442 459.591C349.475 459.459 349.324 459.354 349.221 459.444C348.723 459.879 348.307 460.406 348.001 461C347.95 461.099 347.901 461.201 347.856 461.305C347.576 461.948 347.42 462.658 347.42 463.404C347.42 466.307 349.774 468.661 352.678 468.661C353.422 468.661 354.13 468.506 354.771 468.228Z" fill="#FF00FF"/>
<path d="M347.19 447.833C346.799 447.833 346.56 447.594 346.56 447.179V441.358C346.56 440.948 346.799 440.704 347.19 440.704H350.559C350.906 440.704 351.135 440.909 351.135 441.236C351.135 441.563 350.901 441.769 350.559 441.769H347.962C347.883 441.769 347.82 441.832 347.82 441.91V443.707C347.82 443.785 347.883 443.849 347.962 443.849H350.305C350.637 443.849 350.857 444.044 350.857 444.361C350.857 444.679 350.637 444.874 350.305 444.874H347.962C347.883 444.874 347.82 444.937 347.82 445.016V447.179C347.82 447.594 347.586 447.833 347.19 447.833V447.833Z" fill="#FF00FF"/>
<path d="M352.356 446.325C352.097 445.783 351.965 445.109 351.965 444.308C351.965 441.96 353.039 440.559 354.831 440.559C355.905 440.559 356.625 440.974 356.961 441.552C357.039 441.694 357.073 441.816 357.073 441.953C357.073 442.241 356.868 442.461 356.536 442.461C356.287 442.461 356.131 442.343 355.936 442.094C355.633 441.773 355.349 441.584 354.826 441.584C353.649 441.584 353.323 442.815 353.234 443.407C353.217 443.52 353.333 443.605 353.436 443.556C353.773 443.392 354.436 443.122 355.134 443.122C356.491 443.122 357.443 444.098 357.443 445.431C357.443 446.862 356.335 447.892 354.811 447.892C353.713 447.892 352.844 447.355 352.356 446.325H352.356ZM356.203 445.48C356.208 444.669 355.617 444.093 354.807 444.093C353.996 444.093 353.386 444.669 353.386 445.456C353.386 446.242 354.006 446.867 354.792 446.867C355.578 446.867 356.203 446.251 356.203 445.48Z" fill="#FF00FF"/>
<path fill-rule="evenodd" clip-rule="evenodd" d="M298.67 459.72V463.57C298.67 463.937 298.372 464.235 298.005 464.235C297.638 464.235 297.34 463.937 297.34 463.57V459.72C297.34 459.353 297.638 459.055 298.005 459.055C298.372 459.055 298.67 459.353 298.67 459.72ZM295.92 459.72C295.92 458.568 296.853 457.635 298.005 457.635C299.156 457.635 300.09 458.568 300.09 459.72V463.57C300.09 464.722 299.156 465.655 298.005 465.655C296.853 465.655 295.92 464.722 295.92 463.57V459.72ZM300.94 462.475C300.94 462.115 301.22 461.835 301.58 461.835C301.93 461.835 302.21 462.115 302.21 462.475V463.685C302.181 465.793 300.815 467.382 298.763 467.688C298.693 467.699 298.64 467.758 298.64 467.829V468.455C298.64 468.532 298.703 468.595 298.78 468.595H300.5C300.85 468.595 301.14 468.885 301.14 469.235C301.14 469.585 300.86 469.865 300.5 469.865H295.51C295.16 469.865 294.87 469.585 294.87 469.235C294.87 468.885 295.16 468.595 295.51 468.595H297.23C297.307 468.595 297.37 468.532 297.37 468.455V467.829C297.37 467.758 297.317 467.699 297.247 467.688C295.165 467.382 293.79 465.763 293.79 463.605V462.475C293.79 462.115 294.07 461.835 294.43 461.835C294.79 461.835 295.07 462.115 295.07 462.475V463.575C295.07 465.365 296.23 466.525 298.01 466.525C299.79 466.525 300.94 465.365 300.94 463.575V462.475Z" fill="#FF00FF"/>
<path d="M293.25 447.833C292.859 447.833 292.62 447.594 292.62 447.179V441.358C292.62 440.948 292.859 440.704 293.25 440.704H296.619C296.966 440.704 297.195 440.909 297.195 441.236C297.195 441.563 296.961 441.769 296.619 441.769H294.022C293.943 441.769 293.88 441.832 293.88 441.91V443.707C293.88 443.785 293.943 443.849 294.022 443.849H296.365C296.697 443.849 296.917 444.044 296.917 444.361C296.917 444.679 296.697 444.874 296.365 444.874H294.022C293.943 444.874 293.88 444.937 293.88 445.016V447.179C293.88 447.594 293.646 447.833 293.25 447.833V447.833Z" fill="#FF00FF"/>
<path d="M298.366 446.607C298.298 446.456 298.254 446.309 298.254 446.129C298.254 445.801 298.464 445.596 298.796 445.596C299.06 445.596 299.221 445.699 299.353 445.958C299.585 446.513 300.034 446.846 300.682 446.865C301.491 446.889 302.164 446.254 302.166 445.444C302.168 444.631 301.576 444.053 300.745 444.053C300.3 444.053 299.914 444.234 299.646 444.497C299.353 444.79 299.231 444.854 298.943 444.854C298.537 444.854 298.337 444.566 298.347 444.224C298.347 444.195 298.347 444.175 298.352 444.146L298.576 441.484C298.62 440.927 298.903 440.703 299.455 440.703H302.493C302.815 440.703 303.025 440.908 303.025 441.216C303.025 441.523 302.815 441.733 302.493 441.733H299.775C299.702 441.733 299.641 441.789 299.634 441.863L299.513 443.223C299.504 443.328 299.61 443.407 299.708 443.366C299.969 443.259 300.45 443.106 301.072 443.106C302.42 443.106 303.382 444.058 303.382 445.406C303.382 446.881 302.298 447.892 300.735 447.892C299.651 447.892 298.713 447.374 298.366 446.607L298.366 446.607Z" fill="#FF00FF"/>
<path fill-rule="evenodd" clip-rule="evenodd" d="M680.144 458.149C680.454 457.908 680.9 457.964 681.141 458.274C682.314 459.784 683.01 461.677 683.01 463.74C683.01 465.804 682.303 467.706 681.131 469.215C680.89 469.525 680.444 469.581 680.134 469.34C679.825 469.1 679.769 468.654 680.009 468.344C680.997 467.073 681.59 465.475 681.59 463.74C681.59 462.002 681.006 460.415 680.019 459.145C679.779 458.836 679.835 458.389 680.144 458.149ZM679.118 459.579C678.87 459.276 678.422 459.232 678.119 459.481C677.816 459.73 677.772 460.177 678.021 460.48C678.752 461.369 679.19 462.491 679.19 463.74C679.19 464.989 678.751 466.119 678.014 467.006C677.763 467.307 677.804 467.755 678.106 468.005C678.407 468.256 678.855 468.215 679.106 467.914C680.049 466.78 680.61 465.33 680.61 463.74C680.61 462.148 680.048 460.71 679.118 459.579ZM677.064 460.87C676.794 460.586 676.345 460.575 676.06 460.845C675.776 461.116 675.765 461.565 676.036 461.849C676.509 462.346 676.8 463.004 676.8 463.74C676.8 464.476 676.508 465.142 676.03 465.636C675.757 465.918 675.764 466.367 676.046 466.64C676.328 466.912 676.777 466.905 677.05 466.623C677.772 465.877 678.22 464.863 678.22 463.74C678.22 462.615 677.771 461.613 677.064 460.87ZM674.8 460.558C674.8 459.788 673.881 459.426 673.35 459.955L671.673 461.614C671.618 461.668 671.545 461.698 671.469 461.698H670.21C669.529 461.698 669 462.255 669 462.908V464.608C669 465.28 669.538 465.818 670.21 465.818H671.472C671.548 465.818 671.62 465.848 671.675 465.901L673.351 467.544C673.921 468.108 674.8 467.644 674.8 466.938V460.558Z" fill="#FF00FF"/>
<path d="M668.93 447.833C668.539 447.833 668.3 447.594 668.3 447.179V441.358C668.3 440.948 668.539 440.704 668.93 440.704H672.299C672.646 440.704 672.875 440.909 672.875 441.236C672.875 441.563 672.641 441.769 672.299 441.769H669.702C669.623 441.769 669.56 441.832 669.56 441.91V443.707C669.56 443.785 669.623 443.849 669.702 443.849H672.045C672.377 443.849 672.597 444.044 672.597 444.361C672.597 444.679 672.377 444.874 672.045 444.874H669.702C669.623 444.874 669.56 444.937 669.56 445.016V447.179C669.56 447.594 669.326 447.833 668.93 447.833V447.833Z" fill="#FF00FF"/>
<path d="M676.205 447.848C675.839 447.848 675.585 447.594 675.585 447.213V442.179C675.585 442.065 675.456 441.997 675.362 442.063L674.423 442.716C674.301 442.804 674.203 442.838 674.066 442.838C673.803 442.838 673.612 442.648 673.612 442.369C673.612 442.174 673.69 442.027 673.9 441.881L675.341 440.87C675.653 440.65 675.849 440.606 676.112 440.606C676.557 440.606 676.825 440.875 676.825 441.31V447.213C676.825 447.594 676.571 447.848 676.205 447.848V447.848Z" fill="#FF00FF"/>
<path d="M679.262 447.75C678.871 447.75 678.666 447.535 678.666 447.218C678.666 446.974 678.749 446.827 679.017 446.573L681.171 444.44C682.069 443.551 682.294 443.194 682.294 442.657C682.294 442.027 681.811 441.573 681.132 441.573C680.497 441.573 680.053 441.896 679.804 442.53C679.677 442.784 679.53 442.916 679.242 442.916C678.9 442.916 678.695 442.706 678.695 442.393C678.695 442.301 678.71 442.213 678.734 442.13C678.925 441.368 679.769 440.562 681.141 440.562C682.514 440.562 683.524 441.397 683.524 442.579C683.524 443.404 683.129 443.961 681.962 445.104L680.567 446.477C680.477 446.566 680.54 446.72 680.667 446.72H683.158C683.49 446.72 683.695 446.925 683.695 447.237C683.695 447.55 683.49 447.75 683.158 447.75H679.262Z" fill="#FF00FF"/>
<path fill-rule="evenodd" clip-rule="evenodd" d="M622.634 459.753C622.542 459.717 622.442 459.698 622.339 459.698H622.305C622.135 459.698 621.971 459.761 621.845 459.875C621.813 459.899 621.783 459.925 621.753 459.955L620.076 461.614C620.022 461.668 619.949 461.698 619.872 461.698H618.614C618.227 461.698 617.889 461.878 617.67 462.152C617.504 462.355 617.404 462.614 617.404 462.899V462.9C617.404 462.902 617.404 462.905 617.404 462.908V464.608C617.404 465.28 617.942 465.818 618.614 465.818H619.875C619.951 465.818 620.024 465.848 620.078 465.901L621.755 467.544C621.778 467.567 621.802 467.588 621.826 467.608C621.954 467.732 622.126 467.802 622.305 467.802H622.339C622.529 467.802 622.705 467.737 622.846 467.627C623.057 467.473 623.204 467.226 623.204 466.938V460.558C623.204 460.155 622.951 459.863 622.634 459.753ZM624.464 460.845C624.748 460.575 625.198 460.586 625.468 460.87C626.175 461.613 626.624 462.615 626.624 463.739C626.624 464.863 626.176 465.877 625.454 466.623C625.181 466.905 624.732 466.912 624.45 466.64C624.168 466.367 624.161 465.918 624.433 465.636C624.912 465.142 625.204 464.476 625.204 463.739C625.204 463.004 624.913 462.346 624.439 461.849C624.169 461.565 624.18 461.115 624.464 460.845Z" fill="#FF00FF"/>
<path d="M615.935 447.833C615.544 447.833 615.305 447.594 615.305 447.179V441.358C615.305 440.948 615.544 440.704 615.935 440.704H619.304C619.651 440.704 619.88 440.909 619.88 441.236C619.88 441.563 619.646 441.769 619.304 441.769H616.707C616.628 441.769 616.565 441.832 616.565 441.91V443.707C616.565 443.785 616.628 443.849 616.707 443.849H619.05C619.382 443.849 619.602 444.044 619.602 444.361C619.602 444.679 619.382 444.874 619.05 444.874H616.707C616.628 444.874 616.565 444.937 616.565 445.016V447.179C616.565 447.594 616.331 447.833 615.935 447.833V447.833Z" fill="#FF00FF"/>
<path d="M623.21 447.848C622.844 447.848 622.59 447.594 622.59 447.213V442.179C622.59 442.065 622.461 441.997 622.367 442.063L621.428 442.716C621.306 442.804 621.208 442.838 621.071 442.838C620.808 442.838 620.617 442.648 620.617 442.369C620.617 442.174 620.695 442.027 620.905 441.881L622.346 440.87C622.658 440.65 622.854 440.606 623.117 440.606C623.562 440.606 623.83 440.875 623.83 441.31V447.213C623.83 447.594 623.576 447.848 623.21 447.848V447.848Z" fill="#FF00FF"/>
<path d="M628.078 447.848C627.712 447.848 627.458 447.594 627.458 447.213V442.179C627.458 442.065 627.329 441.997 627.235 442.063L626.296 442.716C626.174 442.804 626.076 442.838 625.939 442.838C625.676 442.838 625.485 442.648 625.485 442.369C625.485 442.174 625.563 442.027 625.773 441.881L627.214 440.87C627.526 440.65 627.722 440.606 627.985 440.606C628.43 440.606 628.698 440.875 628.698 441.31V447.213C628.698 447.594 628.444 447.848 628.078 447.848V447.848Z" fill="#FF00FF"/>
<path fill-rule="evenodd" clip-rule="evenodd" d="M570.879 460.518C570.879 460.054 570.499 459.698 570.057 459.698H570.022C569.944 459.698 569.867 459.711 569.795 459.737C569.664 459.774 569.538 459.845 569.428 459.955L567.751 461.614C567.697 461.668 567.624 461.698 567.547 461.698H566.289C565.607 461.698 565.079 462.255 565.079 462.908V464.608C565.079 465.28 565.616 465.818 566.289 465.818H567.55C567.626 465.818 567.699 465.848 567.753 465.901L569.43 467.544C569.546 467.658 569.674 467.731 569.805 467.767C569.875 467.79 569.948 467.802 570.022 467.802H570.057C570.505 467.802 570.879 467.441 570.879 466.981V466.938V460.558V460.518Z" fill="#FF00FF"/>
<path d="M560.72 447.833C560.329 447.833 560.09 447.594 560.09 447.179V441.358C560.09 440.948 560.329 440.704 560.72 440.704H564.089C564.436 440.704 564.665 440.909 564.665 441.236C564.665 441.563 564.431 441.769 564.089 441.769H561.492C561.413 441.769 561.35 441.832 561.35 441.91V443.707C561.35 443.785 561.413 443.849 561.492 443.849H563.835C564.167 443.849 564.387 444.044 564.387 444.361C564.387 444.679 564.167 444.874 563.835 444.874H561.492C561.413 444.874 561.35 444.937 561.35 445.016V447.179C561.35 447.594 561.116 447.833 560.72 447.833V447.833Z" fill="#FF00FF"/>
<path d="M567.995 447.848C567.629 447.848 567.375 447.594 567.375 447.213V442.179C567.375 442.065 567.246 441.997 567.152 442.063L566.213 442.716C566.091 442.804 565.993 442.838 565.856 442.838C565.593 442.838 565.402 442.648 565.402 442.369C565.402 442.174 565.48 442.027 565.69 441.881L567.131 440.87C567.443 440.65 567.639 440.606 567.902 440.606C568.347 440.606 568.615 440.875 568.615 441.31V447.213C568.615 447.594 568.361 447.848 567.995 447.848V447.848Z" fill="#FF00FF"/>
<path d="M573.141 446.861C574.094 446.861 574.636 445.89 574.636 444.22C574.636 442.55 574.084 441.593 573.141 441.593C572.199 441.593 571.638 442.574 571.638 444.215C571.638 445.855 572.184 446.861 573.141 446.861ZM573.141 447.892C571.403 447.892 570.368 446.48 570.368 444.22C570.368 441.959 571.413 440.562 573.141 440.562C574.87 440.562 575.905 441.959 575.905 444.215C575.905 446.471 574.875 447.892 573.141 447.892Z" fill="#FF00FF"/>
<path fill-rule="evenodd" clip-rule="evenodd" d="M520.39 464.616C521.057 464.231 521.057 463.269 520.39 462.884L516.64 460.719C515.973 460.334 515.14 460.815 515.14 461.585L515.14 465.915C515.14 466.685 515.973 467.166 516.64 466.781L520.39 464.616ZM512.888 464.616C513.555 464.231 513.555 463.269 512.888 462.884L509.138 460.719C508.472 460.334 507.638 460.815 507.638 461.585L507.638 465.915C507.638 466.685 508.472 467.166 509.138 466.781L512.888 464.616Z" fill="#FF00FF"/>
<path d="M509.205 447.833C508.814 447.833 508.575 447.594 508.575 447.179V441.358C508.575 440.948 508.814 440.704 509.205 440.704H512.574C512.921 440.704 513.15 440.909 513.15 441.236C513.15 441.563 512.916 441.769 512.574 441.769H509.977C509.898 441.769 509.835 441.832 509.835 441.91V443.707C509.835 443.785 509.898 443.849 509.977 443.849H512.32C512.652 443.849 512.872 444.044 512.872 444.361C512.872 444.679 512.652 444.874 512.32 444.874H509.977C509.898 444.874 509.835 444.937 509.835 445.016V447.179C509.835 447.594 509.601 447.833 509.205 447.833V447.833Z" fill="#FF00FF"/>
<path d="M519.034 442.125C519.293 442.667 519.424 443.341 519.424 444.141C519.424 446.49 518.35 447.891 516.559 447.891C515.484 447.891 514.765 447.475 514.429 446.897C514.35 446.755 514.316 446.633 514.316 446.497C514.316 446.209 514.521 445.989 514.853 445.989C515.102 445.989 515.259 446.106 515.454 446.355C515.756 446.677 516.041 446.866 516.563 446.866C517.741 446.866 518.067 445.634 518.156 445.042C518.173 444.93 518.056 444.844 517.954 444.894C517.616 445.058 516.953 445.328 516.256 445.328C514.899 445.328 513.947 444.351 513.947 443.018C513.947 441.588 515.055 440.558 516.578 440.558C517.677 440.558 518.546 441.095 519.034 442.125H519.034ZM515.187 442.969C515.182 443.78 515.772 444.356 516.583 444.356C517.393 444.356 518.004 443.78 518.004 442.994C518.004 442.208 517.384 441.583 516.598 441.583C515.812 441.583 515.187 442.198 515.187 442.969Z" fill="#FF00FF"/>
<path d="M614.726 774.648C612.67 774.648 611.381 776.05 611.381 778.291C611.381 780.532 612.67 781.929 614.726 781.929C616.781 781.929 618.066 780.532 618.066 778.291C618.066 776.05 616.776 774.648 614.726 774.648ZM614.726 780.855C613.466 780.855 612.67 779.858 612.67 778.291C612.67 776.724 613.466 775.723 614.726 775.723C615.985 775.723 616.781 776.719 616.781 778.291C616.781 779.863 615.981 780.855 614.726 780.855Z" fill="#FF00FF"/>
<path d="M629.315 776.533C628.944 776.533 628.709 776.782 628.709 777.173V781.27C628.709 781.665 628.944 781.909 629.315 781.909C629.686 781.909 629.925 781.665 629.925 781.27V777.178C629.925 776.782 629.686 776.533 629.315 776.533V776.533ZM629.315 775.908C629.696 775.908 629.994 775.615 629.994 775.249C629.994 774.883 629.696 774.59 629.315 774.59C628.934 774.59 628.641 774.878 628.641 775.249C628.641 775.62 628.939 775.908 629.315 775.908Z" fill="#FF00FF"/>
<path d="M636.921 781.269V777.147C636.921 776.771 637.14 776.532 637.502 776.532C637.709 776.532 637.878 776.612 637.983 776.753C638.009 776.787 638.031 776.826 638.048 776.863C638.083 776.933 638.167 776.963 638.238 776.929C638.504 776.8 639.123 776.537 639.739 776.537C640.882 776.537 641.531 777.269 641.531 778.466V781.269C641.531 781.68 641.282 781.909 640.926 781.909C640.569 781.909 640.315 781.68 640.315 781.269V778.71C640.315 777.978 639.973 777.567 639.28 777.567C638.586 777.567 638.137 778.07 638.137 778.813V781.269C638.137 781.68 637.883 781.909 637.526 781.909C637.17 781.909 636.921 781.68 636.921 781.269Z" fill="#FF00FF"/>
<path d="M633.436 776.528C631.927 776.528 630.931 777.554 630.931 779.224C630.931 780.894 631.917 781.914 633.436 781.914C634.954 781.914 635.941 780.903 635.941 779.224C635.941 777.544 634.945 776.528 633.436 776.528ZM633.436 780.952C632.664 780.952 632.166 780.327 632.166 779.224C632.166 778.12 632.669 777.495 633.436 777.495C634.202 777.495 634.705 778.125 634.705 779.224C634.705 780.322 634.207 780.952 633.436 780.952Z" fill="#FF00FF"/>
<path d="M621.619 780.898C620.862 780.898 620.359 780.238 620.354 779.223C620.359 778.217 620.833 777.548 621.619 777.548C622.406 777.548 622.894 778.202 622.894 779.223C622.894 780.248 622.376 780.898 621.619 780.898ZM624.139 779.223C624.139 777.567 623.304 776.546 621.99 776.546C621.504 776.546 620.734 776.79 620.433 776.892C620.366 776.915 620.291 776.886 620.259 776.822C620.251 776.805 620.243 776.789 620.233 776.774C620.113 776.604 619.938 776.532 619.739 776.532C619.392 776.532 619.148 776.756 619.148 777.157V783.013C619.148 783.423 619.397 783.652 619.754 783.652C620.11 783.652 620.364 783.423 620.364 783.013V781.654C620.364 781.552 620.47 781.483 620.564 781.525C620.926 781.688 621.528 781.894 622.01 781.894C623.309 781.894 624.139 780.873 624.139 779.223L624.139 779.223Z" fill="#FF00FF"/>
<path d="M625.458 780.532V777.716C625.458 777.637 625.394 777.574 625.316 777.574H625.13C624.828 777.574 624.642 777.403 624.642 777.11C624.642 776.817 624.828 776.651 625.13 776.651H625.316C625.394 776.651 625.458 776.588 625.458 776.509V775.946C625.458 775.556 625.692 775.312 626.068 775.312C626.444 775.312 626.674 775.556 626.674 775.946V776.509C626.674 776.588 626.737 776.651 626.815 776.651H627.235C627.538 776.651 627.724 776.822 627.724 777.11C627.724 777.398 627.538 777.574 627.235 777.574H626.815C626.737 777.574 626.674 777.638 626.674 777.716V780.268C626.674 780.659 626.81 780.83 627.162 780.859L627.25 780.869C627.572 780.898 627.738 781.035 627.738 781.318C627.738 781.675 627.426 781.865 626.869 781.865H626.82C625.917 781.865 625.458 781.416 625.458 780.532H625.458L625.458 780.532Z" fill="#FF00FF"/>
<path d="M695.298 781.867C693.262 781.867 692.007 780.485 692.007 778.225C692.007 775.964 693.282 774.587 695.274 774.587C696.577 774.587 697.608 775.197 698.072 776.228C698.15 776.389 698.189 776.555 698.189 776.701C698.189 777.038 697.969 777.253 697.632 777.253C697.344 777.253 697.154 777.116 697.017 776.809C696.69 776.052 696.05 775.656 695.284 775.656C694.073 775.656 693.296 776.652 693.296 778.225C693.296 779.797 694.068 780.798 695.289 780.798C696.094 780.798 696.714 780.446 697.037 779.704C697.164 779.416 697.325 779.299 697.598 779.299C697.945 779.299 698.184 779.528 698.184 779.86C698.184 780.021 698.145 780.168 698.067 780.334C697.618 781.291 696.617 781.867 695.298 781.867L695.298 781.867Z" fill="#FF00FF"/>
<path d="M710.278 777.482C711.035 777.482 711.538 778.141 711.543 779.157C711.538 780.163 711.064 780.832 710.278 780.832C709.492 780.832 709.003 780.178 709.003 779.157C709.003 778.131 709.521 777.482 710.278 777.482ZM707.758 779.157C707.758 780.813 708.593 781.833 709.907 781.833C710.393 781.833 711.163 781.589 711.464 781.487C711.531 781.464 711.606 781.494 711.638 781.558C711.646 781.574 711.654 781.591 711.664 781.605C711.784 781.776 711.959 781.848 712.158 781.848C712.505 781.848 712.749 781.623 712.749 781.223V775.245C712.749 774.835 712.5 774.605 712.143 774.605C711.787 774.605 711.533 774.835 711.533 775.245V776.725C711.533 776.828 711.427 776.897 711.333 776.855C710.971 776.692 710.369 776.486 709.887 776.486C708.588 776.486 707.758 777.506 707.758 779.157V779.157Z" fill="#FF00FF"/>
<path d="M699.355 781.208V777.091C699.355 776.695 699.595 776.471 699.937 776.471C700.091 776.471 700.224 776.517 700.326 776.602C700.387 776.653 700.431 776.723 700.461 776.783C700.495 776.85 700.576 776.878 700.645 776.847C700.914 776.728 701.539 776.476 702.022 776.476C702.635 776.476 703.204 776.798 703.398 776.92C703.441 776.948 703.496 776.949 703.541 776.925C703.758 776.806 704.421 776.476 705.109 776.476C706.129 776.476 706.798 777.164 706.798 778.2V781.208C706.798 781.613 706.554 781.848 706.193 781.848C705.832 781.848 705.582 781.613 705.582 781.208V778.498C705.582 777.863 705.25 777.501 704.654 777.501C704.059 777.501 703.668 777.931 703.668 778.551V781.208C703.668 781.613 703.438 781.848 703.077 781.848C702.716 781.848 702.486 781.613 702.486 781.208V778.434C702.486 777.858 702.134 777.501 701.568 777.501C701.001 777.501 700.572 777.955 700.572 778.581V781.208C700.572 781.613 700.322 781.848 699.961 781.848C699.6 781.848 699.355 781.613 699.355 781.208Z" fill="#FF00FF"/>
<path d="M155.726 774.648C153.67 774.648 152.381 776.05 152.381 778.291C152.381 780.532 153.67 781.929 155.726 781.929C157.781 781.929 159.066 780.532 159.066 778.291C159.066 776.05 157.776 774.648 155.726 774.648ZM155.726 780.855C154.466 780.855 153.67 779.858 153.67 778.291C153.67 776.724 154.466 775.723 155.726 775.723C156.985 775.723 157.781 776.719 157.781 778.291C157.781 779.863 156.981 780.855 155.726 780.855Z" fill="#FF00FF"/>
<path d="M170.315 776.533C169.944 776.533 169.709 776.782 169.709 777.173V781.27C169.709 781.665 169.944 781.909 170.315 781.909C170.686 781.909 170.925 781.665 170.925 781.27V777.178C170.925 776.782 170.686 776.533 170.315 776.533V776.533ZM170.315 775.908C170.696 775.908 170.994 775.615 170.994 775.249C170.994 774.883 170.696 774.59 170.315 774.59C169.934 774.59 169.641 774.878 169.641 775.249C169.641 775.62 169.939 775.908 170.315 775.908Z" fill="#FF00FF"/>
<path d="M177.921 781.269V777.147C177.921 776.771 178.14 776.532 178.502 776.532C178.709 776.532 178.878 776.612 178.983 776.753C179.009 776.787 179.031 776.826 179.048 776.863C179.083 776.933 179.167 776.963 179.238 776.929C179.504 776.8 180.123 776.537 180.739 776.537C181.882 776.537 182.531 777.269 182.531 778.466V781.269C182.531 781.68 182.282 781.909 181.926 781.909C181.569 781.909 181.315 781.68 181.315 781.269V778.71C181.315 777.978 180.973 777.567 180.28 777.567C179.586 777.567 179.137 778.07 179.137 778.813V781.269C179.137 781.68 178.883 781.909 178.526 781.909C178.17 781.909 177.921 781.68 177.921 781.269Z" fill="#FF00FF"/>
<path d="M174.436 776.528C172.927 776.528 171.931 777.554 171.931 779.224C171.931 780.894 172.917 781.914 174.436 781.914C175.954 781.914 176.941 780.903 176.941 779.224C176.941 777.544 175.945 776.528 174.436 776.528ZM174.436 780.952C173.664 780.952 173.166 780.327 173.166 779.224C173.166 778.12 173.669 777.495 174.436 777.495C175.202 777.495 175.705 778.125 175.705 779.224C175.705 780.322 175.207 780.952 174.436 780.952Z" fill="#FF00FF"/>
<path d="M162.619 780.898C161.862 780.898 161.359 780.238 161.354 779.223C161.359 778.217 161.833 777.548 162.619 777.548C163.406 777.548 163.894 778.202 163.894 779.223C163.894 780.248 163.376 780.898 162.619 780.898ZM165.139 779.223C165.139 777.567 164.304 776.546 162.99 776.546C162.504 776.546 161.734 776.79 161.433 776.892C161.366 776.915 161.291 776.886 161.259 776.822C161.251 776.805 161.243 776.789 161.233 776.774C161.113 776.604 160.938 776.532 160.739 776.532C160.392 776.532 160.148 776.756 160.148 777.157V783.013C160.148 783.423 160.397 783.652 160.754 783.652C161.11 783.652 161.364 783.423 161.364 783.013V781.654C161.364 781.552 161.47 781.483 161.564 781.525C161.926 781.688 162.528 781.894 163.01 781.894C164.309 781.894 165.139 780.873 165.139 779.223L165.139 779.223Z" fill="#FF00FF"/>
<path d="M166.458 780.532V777.716C166.458 777.637 166.394 777.574 166.316 777.574H166.13C165.828 777.574 165.642 777.403 165.642 777.11C165.642 776.817 165.828 776.651 166.13 776.651H166.316C166.394 776.651 166.458 776.588 166.458 776.509V775.946C166.458 775.556 166.692 775.312 167.068 775.312C167.444 775.312 167.674 775.556 167.674 775.946V776.509C167.674 776.588 167.737 776.651 167.815 776.651H168.235C168.538 776.651 168.724 776.822 168.724 777.11C168.724 777.398 168.538 777.574 168.235 777.574H167.815C167.737 777.574 167.674 777.638 167.674 777.716V780.268C167.674 780.659 167.81 780.83 168.162 780.859L168.25 780.869C168.572 780.898 168.738 781.035 168.738 781.318C168.738 781.675 168.426 781.865 167.869 781.865H167.82C166.917 781.865 166.458 781.416 166.458 780.532H166.458L166.458 780.532Z" fill="#FF00FF"/>
<path d="M101.298 781.867C99.262 781.867 98.0071 780.485 98.0071 778.225C98.0071 775.964 99.2816 774.587 101.274 774.587C102.577 774.587 103.608 775.197 104.072 776.228C104.15 776.389 104.189 776.555 104.189 776.701C104.189 777.038 103.969 777.253 103.632 777.253C103.344 777.253 103.154 777.116 103.017 776.809C102.69 776.052 102.05 775.656 101.284 775.656C100.073 775.656 99.2964 776.652 99.2964 778.225C99.2964 779.797 100.068 780.798 101.289 780.798C102.094 780.798 102.714 780.446 103.037 779.704C103.164 779.416 103.325 779.299 103.598 779.299C103.945 779.299 104.184 779.528 104.184 779.86C104.184 780.021 104.145 780.168 104.067 780.334C103.618 781.291 102.617 781.867 101.298 781.867L101.298 781.867Z" fill="#FF00FF"/>
<path d="M116.278 777.482C117.035 777.482 117.538 778.141 117.543 779.157C117.538 780.163 117.064 780.832 116.278 780.832C115.492 780.832 115.003 780.178 115.003 779.157C115.003 778.131 115.521 777.482 116.278 777.482ZM113.758 779.157C113.758 780.813 114.593 781.833 115.907 781.833C116.393 781.833 117.163 781.589 117.464 781.487C117.531 781.464 117.606 781.494 117.638 781.558C117.646 781.574 117.654 781.591 117.664 781.605C117.784 781.776 117.959 781.848 118.158 781.848C118.505 781.848 118.749 781.623 118.749 781.223V775.245C118.749 774.835 118.5 774.605 118.143 774.605C117.787 774.605 117.533 774.835 117.533 775.245V776.725C117.533 776.828 117.427 776.897 117.333 776.855C116.971 776.692 116.369 776.486 115.887 776.486C114.588 776.486 113.758 777.506 113.758 779.157V779.157Z" fill="#FF00FF"/>
<path d="M105.355 781.208V777.091C105.355 776.695 105.595 776.471 105.937 776.471C106.091 776.471 106.224 776.517 106.326 776.602C106.387 776.653 106.431 776.723 106.461 776.783C106.495 776.85 106.576 776.878 106.645 776.847C106.914 776.728 107.539 776.476 108.022 776.476C108.635 776.476 109.204 776.798 109.398 776.92C109.441 776.948 109.496 776.949 109.541 776.925C109.758 776.806 110.421 776.476 111.109 776.476C112.129 776.476 112.798 777.164 112.798 778.2V781.208C112.798 781.613 112.554 781.848 112.193 781.848C111.832 781.848 111.582 781.613 111.582 781.208V778.498C111.582 777.863 111.25 777.501 110.654 777.501C110.059 777.501 109.668 777.931 109.668 778.551V781.208C109.668 781.613 109.438 781.848 109.077 781.848C108.716 781.848 108.486 781.613 108.486 781.208V778.434C108.486 777.858 108.134 777.501 107.568 777.501C107.001 777.501 106.572 777.955 106.572 778.581V781.208C106.572 781.613 106.322 781.848 105.961 781.848C105.6 781.848 105.355 781.613 105.355 781.208Z" fill="#FF00FF"/>
<path d="M20.6759 338.761C20.6759 339.195 20.4031 339.468 19.9752 339.468C19.5411 339.468 19.2745 339.195 19.2745 338.761V337.921C19.2745 337.844 19.2118 337.781 19.1345 337.781H17.5691C17.1599 337.781 16.8746 337.521 16.8746 337.143C16.8746 336.764 17.1599 336.504 17.5691 336.504H19.1345C19.2118 336.504 19.2745 336.441 19.2745 336.364V335.574C19.2745 335.14 19.5411 334.867 19.969 334.867C20.4031 334.867 20.6759 335.14 20.6759 335.574V336.364C20.6759 336.441 20.7386 336.504 20.8159 336.504H22.4371C22.8525 336.504 23.1316 336.764 23.1316 337.143C23.1316 337.521 22.8525 337.781 22.4371 337.781H20.8159C20.7386 337.781 20.6759 337.844 20.6759 337.921V338.761ZM16.8746 340.659C16.8746 340.268 17.1227 340.02 17.5877 340.02H22.4371C22.9021 340.02 23.1502 340.268 23.1502 340.659C23.1502 341.043 22.9021 341.297 22.4371 341.297H17.5877C17.1227 341.297 16.8746 341.043 16.8746 340.659Z" fill="#FF00FF"/>
<path d="M19.9573 360.144C20.6273 360.144 21.0273 359.804 21.0273 359.304C21.0273 358.754 20.4873 358.574 19.3873 358.264C18.1873 357.924 17.4673 357.434 17.4673 356.424C17.4673 355.714 17.8273 355.254 18.3373 354.934C18.4273 354.884 18.4173 354.754 18.3373 354.694C17.8173 354.334 17.5273 353.854 17.5273 353.184C17.5273 351.924 18.6273 351.124 20.0373 351.124C20.6673 351.124 21.2773 351.294 21.7273 351.594C22.1273 351.844 22.3773 352.184 22.3673 352.534C22.3573 352.884 22.0573 353.114 21.7273 353.094C21.5273 353.074 21.3773 352.984 21.1373 352.764C20.7673 352.434 20.4673 352.274 20.0373 352.274C19.4073 352.274 19.0073 352.624 19.0073 353.104C19.0073 353.654 19.5873 353.864 20.6173 354.154C21.8973 354.504 22.5673 354.944 22.5673 355.974C22.5673 356.664 22.2373 357.174 21.7473 357.554C21.6673 357.614 21.6773 357.734 21.7473 357.784C22.2673 358.144 22.5173 358.554 22.5173 359.184C22.5173 360.514 21.3673 361.314 19.9573 361.314C19.4273 361.314 18.8673 361.194 18.4473 360.974C17.9073 360.714 17.5473 360.304 17.5473 359.884C17.5473 359.534 17.8473 359.284 18.1873 359.304C18.3873 359.314 18.5273 359.404 18.7673 359.634C19.0973 359.974 19.4673 360.154 19.9473 360.154L19.9573 360.144ZM20.0173 357.164C20.0173 357.164 20.2573 357.224 20.3873 357.254C20.4573 357.274 20.5373 357.254 20.5973 357.224C20.8973 357.044 21.1173 356.674 21.1173 356.284C21.1173 355.754 20.7373 355.454 19.9873 355.294C19.9573 355.294 19.7773 355.254 19.6673 355.224C19.6073 355.214 19.5473 355.224 19.4973 355.244C19.1673 355.404 18.9073 355.824 18.9073 356.204C18.9073 356.704 19.2673 356.994 20.0173 357.174V357.164Z" fill="#FF00FF"/>
<path d="M331.172 133.87C329.136 133.87 327.881 132.488 327.881 130.228C327.881 127.967 329.155 126.59 331.148 126.59C332.451 126.59 333.482 127.2 333.945 128.231C334.024 128.392 334.063 128.558 334.063 128.704C334.063 129.041 333.843 129.256 333.506 129.256C333.218 129.256 333.028 129.119 332.891 128.812C332.564 128.055 331.924 127.659 331.157 127.659C329.946 127.659 329.17 128.655 329.17 130.228C329.17 131.8 329.942 132.801 331.162 132.801C331.968 132.801 332.588 132.449 332.91 131.707C333.037 131.419 333.199 131.302 333.472 131.302C333.819 131.302 334.058 131.531 334.058 131.863C334.058 132.025 334.019 132.171 333.941 132.337C333.491 133.294 332.49 133.87 331.172 133.87L331.172 133.87Z" fill="#FF00FF"/>
<path d="M361.371 131.835C361.371 132.46 360.815 132.919 360.131 132.919C359.604 132.919 359.248 132.65 359.248 132.225C359.248 131.801 359.585 131.552 360.17 131.513L361.319 131.443C361.347 131.441 361.371 131.463 361.371 131.492V131.835L361.371 131.835ZM360.454 128.471C359.462 128.471 358.891 128.811 358.599 129.138C358.429 129.328 358.408 129.728 358.64 129.913C358.911 130.13 359.366 129.968 359.522 129.776C359.662 129.603 359.977 129.428 360.405 129.423C361.005 129.415 361.371 129.735 361.371 130.277V130.48C361.371 130.506 361.351 130.528 361.324 130.529L359.999 130.605C358.74 130.683 358.032 131.356 358.032 132.274C358.032 133.192 358.762 133.836 359.76 133.836C360.392 133.836 361.008 133.671 361.314 133.546C361.379 133.52 361.452 133.544 361.489 133.604C361.491 133.608 361.494 133.612 361.496 133.615C361.577 133.731 361.724 133.851 361.982 133.851C362.323 133.851 362.572 133.631 362.572 133.241V130.189C362.572 129.149 361.738 128.471 360.454 128.471Z" fill="#FF00FF"/>
<path d="M371.844 129.485C372.601 129.485 373.104 130.144 373.109 131.16C373.104 132.166 372.63 132.835 371.844 132.835C371.058 132.835 370.57 132.181 370.57 131.16C370.57 130.134 371.087 129.485 371.844 129.485ZM369.324 131.16C369.324 132.816 370.159 133.836 371.473 133.836C371.959 133.836 372.729 133.592 373.03 133.49C373.098 133.467 373.172 133.497 373.204 133.561C373.212 133.577 373.22 133.594 373.231 133.608C373.35 133.779 373.526 133.851 373.725 133.851C374.071 133.851 374.315 133.626 374.315 133.226V127.248C374.315 126.838 374.066 126.608 373.71 126.608C373.353 126.608 373.099 126.838 373.099 127.248V128.728C373.099 128.831 372.993 128.9 372.9 128.858C372.538 128.695 371.935 128.489 371.453 128.489C370.154 128.489 369.324 129.509 369.324 131.16V131.16Z" fill="#FF00FF"/>
<path d="M341.005 133.211V129.094C341.005 128.699 341.245 128.474 341.587 128.474C341.741 128.474 341.874 128.52 341.976 128.606C342.036 128.657 342.081 128.726 342.111 128.786C342.145 128.853 342.226 128.881 342.295 128.85C342.564 128.731 343.189 128.479 343.672 128.479C344.285 128.479 344.854 128.801 345.048 128.923C345.091 128.951 345.146 128.952 345.191 128.928C345.407 128.809 346.071 128.479 346.759 128.479C347.779 128.479 348.448 129.167 348.448 130.203V133.211C348.448 133.617 348.204 133.851 347.843 133.851C347.481 133.851 347.232 133.617 347.232 133.211V130.501C347.232 129.866 346.9 129.504 346.304 129.504C345.708 129.504 345.318 129.934 345.318 130.554V133.211C345.318 133.617 345.088 133.851 344.727 133.851C344.365 133.851 344.136 133.617 344.136 133.211V130.437C344.136 129.861 343.784 129.504 343.218 129.504C342.651 129.504 342.221 129.959 342.221 130.584V133.211C342.221 133.617 341.972 133.851 341.611 133.851C341.25 133.851 341.005 133.617 341.005 133.211Z" fill="#FF00FF"/>
<path d="M349.624 133.211V129.094C349.624 128.699 349.863 128.474 350.205 128.474C350.359 128.474 350.492 128.52 350.594 128.606C350.655 128.657 350.699 128.726 350.729 128.786C350.763 128.853 350.844 128.881 350.913 128.85C351.182 128.731 351.807 128.479 352.29 128.479C352.903 128.479 353.472 128.801 353.666 128.923C353.709 128.951 353.764 128.952 353.809 128.928C354.026 128.809 354.689 128.479 355.377 128.479C356.397 128.479 357.067 129.167 357.067 130.203V133.211C357.067 133.617 356.822 133.851 356.461 133.851C356.1 133.851 355.85 133.617 355.85 133.211V130.501C355.85 129.866 355.518 129.504 354.923 129.504C354.327 129.504 353.936 129.934 353.936 130.554V133.211C353.936 133.617 353.706 133.851 353.345 133.851C352.984 133.851 352.754 133.617 352.754 133.211V130.437C352.754 129.861 352.402 129.504 351.836 129.504C351.269 129.504 350.84 129.959 350.84 130.584V133.211C350.84 133.617 350.59 133.851 350.229 133.851C349.868 133.851 349.624 133.617 349.624 133.211Z" fill="#FF00FF"/>
<path d="M363.753 133.211V129.089C363.753 128.713 363.972 128.474 364.334 128.474C364.541 128.474 364.71 128.554 364.815 128.695C364.841 128.729 364.863 128.768 364.88 128.805C364.915 128.875 364.999 128.905 365.07 128.871C365.336 128.742 365.955 128.479 366.571 128.479C367.714 128.479 368.363 129.211 368.363 130.408V133.211C368.363 133.622 368.114 133.851 367.758 133.851C367.401 133.851 367.147 133.621 367.147 133.211V130.652C367.147 129.919 366.805 129.509 366.112 129.509C365.418 129.509 364.969 130.012 364.969 130.755V133.211C364.969 133.622 364.715 133.851 364.358 133.851C364.002 133.851 363.753 133.621 363.753 133.211Z" fill="#FF00FF"/>
<path d="M337.519 128.47C336.011 128.47 335.014 129.495 335.014 131.165C335.014 132.835 336.001 133.856 337.519 133.856C339.038 133.856 340.024 132.845 340.024 131.165C340.024 129.486 339.028 128.47 337.519 128.47ZM337.519 132.894C336.748 132.894 336.25 132.269 336.25 131.165C336.25 130.062 336.753 129.437 337.519 129.437C338.286 129.437 338.789 130.067 338.789 131.165C338.789 132.264 338.291 132.894 337.519 132.894Z" fill="#FF00FF"/>
<path d="M547.226 72.5869C545.17 72.5869 543.881 73.9883 543.881 76.2295C543.881 78.4707 545.17 79.8672 547.226 79.8672C549.281 79.8672 550.566 78.4707 550.566 76.2295C550.566 73.9883 549.276 72.5869 547.226 72.5869ZM547.226 78.793C545.966 78.793 545.17 77.7969 545.17 76.2295C545.17 74.6621 545.966 73.6611 547.226 73.6611C548.485 73.6611 549.281 74.6572 549.281 76.2295C549.281 77.8018 548.481 78.793 547.226 78.793Z" fill="#FF00FF"/>
<path d="M554.119 78.8362C553.362 78.8362 552.859 78.1769 552.854 77.1611C552.859 76.1551 553.333 75.486 554.119 75.486C554.906 75.486 555.394 76.1404 555.394 77.1611C555.394 78.1867 554.876 78.8362 554.119 78.8362ZM556.639 77.161C556.639 75.5054 555.804 74.4848 554.49 74.4848C554.004 74.4848 553.234 74.7288 552.933 74.8308C552.866 74.8537 552.791 74.824 552.759 74.76C552.751 74.7437 552.743 74.7275 552.733 74.7127C552.613 74.5422 552.438 74.4702 552.239 74.4702C551.892 74.4702 551.648 74.6948 551.648 75.0953V80.951C551.648 81.3613 551.897 81.5908 552.254 81.5908C552.61 81.5908 552.864 81.3613 552.864 80.951V79.5928C552.864 79.4901 552.97 79.4212 553.064 79.4634C553.426 79.6263 554.028 79.8325 554.51 79.8325C555.809 79.8325 556.639 78.8118 556.639 77.1611L556.639 77.161Z" fill="#FF00FF"/>
<path d="M557.958 78.4705V75.6542C557.958 75.5759 557.894 75.5125 557.816 75.5125H557.63C557.328 75.5125 557.142 75.3416 557.142 75.0486C557.142 74.7556 557.328 74.5896 557.63 74.5896H557.816C557.894 74.5896 557.958 74.5261 557.958 74.4479V73.8849C557.958 73.4942 558.192 73.25 558.568 73.25C558.944 73.25 559.174 73.4941 559.174 73.8849V74.4479C559.174 74.5262 559.237 74.5896 559.315 74.5896H559.735C560.038 74.5896 560.224 74.7604 560.224 75.0486C560.224 75.3368 560.038 75.5125 559.735 75.5125H559.315C559.237 75.5125 559.174 75.576 559.174 75.6542V78.2068C559.174 78.5975 559.31 78.7684 559.662 78.7977L559.75 78.8075C560.072 78.8368 560.238 78.9735 560.238 79.2568C560.238 79.6132 559.926 79.8038 559.369 79.8038H559.32C558.417 79.8038 557.958 79.3545 557.958 78.4706H557.958L557.958 78.4705Z" fill="#FF00FF"/>
<rect x="743.5" y="702" width="67.5" height="54" stroke="#00FFFF"/>
<rect x="676" y="702" width="67.5" height="54" stroke="#00FFFF"/>
<rect x="608.5" y="702" width="67.5" height="54" stroke="#00FFFF"/>
<rect x="541" y="702" width="67.5" height="54" stroke="#00FFFF"/>
<rect x="136" y="702" width="67.5" height="54" stroke="#00FFFF"/>
<rect x="68.5" y="702" width="67.5" height="54" stroke="#00FFFF"/>
<rect x="1" y="702" width="67.5" height="54" stroke="#00FFFF"/>
<rect x="662.5" y="648" width="148.5" height="54" stroke="#00FFFF"/>
<rect x="1" y="648" width="121.5" height="54" stroke="#00FFFF"/>
<rect x="689.5" y="594" width="121.5" height="54" stroke="#00FFFF"/>
<rect x="1" y="594" width="94.5" height="54" stroke="#00FFFF"/>
<rect x="1" y="540" width="81" height="54" stroke="#00FFFF"/>
<rect x="703" y="486" width="108" height="54" stroke="#00FFFF"/>
<rect x="608.5" y="648" width="54" height="54" stroke="#00FFFF"/>
<rect x="554.5" y="648" width="54" height="54" stroke="#00FFFF"/>
<rect x="500.5" y="648" width="54" height="54" stroke="#00FFFF"/>
<rect x="446.5" y="648" width="54" height="54" stroke="#00FFFF"/>
<rect x="392.5" y="648" width="54" height="54" stroke="#00FFFF"/>
<rect x="338.5" y="648" width="54" height="54" stroke="#00FFFF"/>
<rect x="284.5" y="648" width="54" height="54" stroke="#00FFFF"/>
<rect x="230.5" y="648" width="54" height="54" stroke="#00FFFF"/>
<rect x="176.5" y="648" width="54" height="54" stroke="#00FFFF"/>
<rect x="122.5" y="648" width="54" height="54" stroke="#00FFFF"/>
<rect x="635.5" y="594" width="54" height="54" stroke="#00FFFF"/>
<rect x="581.5" y="594" width="54" height="54" stroke="#00FFFF"/>
<rect x="527.5" y="594" width="54" height="54" stroke="#00FFFF"/>
<rect x="473.5" y="594" width="54" height="54" stroke="#00FFFF"/>
<rect x="419.5" y="594" width="54" height="54" stroke="#00FFFF"/>
<rect x="365.5" y="594" width="54" height="54" stroke="#00FFFF"/>
<rect x="311.5" y="594" width="54" height="54" stroke="#00FFFF"/>
<rect x="257.5" y="594" width="54" height="54" stroke="#00FFFF"/>
<rect x="203.5" y="594" width="54" height="54" stroke="#00FFFF"/>
<rect x="149.5" y="594" width="54" height="54" stroke="#00FFFF"/>
<rect x="95.5" y="594" width="54" height="54" stroke="#00FFFF"/>
<rect x="730" y="540" width="81" height="54" stroke="#00FFFF"/>
<rect x="676" y="540" width="54" height="54" stroke="#00FFFF"/>
<rect x="622" y="540" width="54" height="54" stroke="#00FFFF"/>
<rect x="568" y="540" width="54" height="54" stroke="#00FFFF"/>
<rect x="514" y="540" width="54" height="54" stroke="#00FFFF"/>
<rect x="460" y="540" width="54" height="54" stroke="#00FFFF"/>
<rect x="406" y="540" width="54" height="54" stroke="#00FFFF"/>
<rect x="352" y="540" width="54" height="54" stroke="#00FFFF"/>
<rect x="298" y="540" width="54" height="54" stroke="#00FFFF"/>
<rect x="244" y="540" width="54" height="54" stroke="#00FFFF"/>
<rect x="190" y="540" width="54" height="54" stroke="#00FFFF"/>
<rect x="136" y="540" width="54" height="54" stroke="#00FFFF"/>
<rect x="82" y="540" width="54" height="54" stroke="#00FFFF"/>
<rect x="55" y="486" width="54" height="54" stroke="#00FFFF"/>
<rect x="109" y="486" width="54" height="54" stroke="#00FFFF"/>
<rect x="163" y="486" width="54" height="54" stroke="#00FFFF"/>
<rect x="217" y="486" width="54" height="54" stroke="#00FFFF"/>
<rect x="271" y="486" width="54" height="54" stroke="#00FFFF"/>
<rect x="325" y="486" width="54" height="54" stroke="#00FFFF"/>
<rect x="379" y="486" width="54" height="54" stroke="#00FFFF"/>
<rect x="433" y="486" width="54" height="54" stroke="#00FFFF"/>
<rect x="487" y="486" width="54" height="54" stroke="#00FFFF"/>
<rect x="541" y="486" width="54" height="54" stroke="#00FFFF"/>
<rect x="595" y="486" width="54" height="54" stroke="#00FFFF"/>
<rect x="649" y="486" width="54" height="54" stroke="#00FFFF"/>
<rect x="1" y="486" width="54" height="54" stroke="#00FFFF"/>
<rect x="217" y="432" width="54" height="54" stroke="#00FFFF"/>
<rect x="163" y="432" width="54" height="54" stroke="#00FFFF"/>
<rect x="109" y="432" width="54" height="54" stroke="#00FFFF"/>
<rect x="55" y="432" width="54" height="54" stroke="#00FFFF"/>
<rect x="433" y="432" width="54" height="54" stroke="#00FFFF"/>
<rect x="379" y="432" width="54" height="54" stroke="#00FFFF"/>
<rect x="325" y="432" width="54" height="54" stroke="#00FFFF"/>
<rect x="271" y="432" width="54" height="54" stroke="#00FFFF"/>
<rect x="649" y="432" width="54" height="54" stroke="#00FFFF"/>
<rect x="595" y="432" width="54" height="54" stroke="#00FFFF"/>
<rect x="541" y="432" width="54" height="54" stroke="#00FFFF"/>
<rect x="487" y="432" width="54" height="54" stroke="#00FFFF"/>
<rect x="541" y="378" width="54" height="54" stroke="#00FFFF"/>
<rect x="487" y="378" width="54" height="54" stroke="#00FFFF"/>
<rect x="433" y="378" width="54" height="54" stroke="#00FFFF"/>
<rect x="487" y="324" width="54" height="54" stroke="#00FFFF"/>
<rect x="703" y="378" width="54" height="54" stroke="#00FFFF"/>
<rect x="595" y="378" width="108" height="54" stroke="#00FFFF"/>
<rect x="757" y="324" width="54" height="108" stroke="#00FFFF"/>
<rect x="703" y="324" width="54" height="54" stroke="#00FFFF"/>
<rect x="649" y="324" width="54" height="54" stroke="#00FFFF"/>
<rect x="595" y="324" width="54" height="54" stroke="#00FFFF"/>
<rect x="703" y="270" width="54" height="54" stroke="#00FFFF"/>
<rect x="595" y="270" width="54" height="54" stroke="#00FFFF"/>
<rect x="757" y="216" width="54" height="108" stroke="#00FFFF"/>
<rect x="703" y="216" width="54" height="54" stroke="#00FFFF"/>
<rect x="649" y="216" width="54" height="54" stroke="#00FFFF"/>
<rect x="595" y="216" width="54" height="54" stroke="#00FFFF"/>
<rect x="757" y="162" width="54" height="54" stroke="#00FFFF"/>
<rect x="703" y="162" width="54" height="54" stroke="#00FFFF"/>
<rect x="649" y="162" width="54" height="54" stroke="#00FFFF"/>
<rect x="595" y="162" width="54" height="54" stroke="#00FFFF"/>
<rect x="649" y="270" width="54" height="54" stroke="#00FFFF"/>
<rect x="541" y="162" width="54" height="54" stroke="#00FFFF"/>
<rect x="487" y="162" width="54" height="54" stroke="#00FFFF"/>
<rect x="433" y="162" width="54" height="54" stroke="#00FFFF"/>
<rect x="541" y="216" width="54" height="54" stroke="#00FFFF"/>
<rect x="487" y="216" width="54" height="54" stroke="#00FFFF"/>
<rect x="433" y="216" width="54" height="54" stroke="#00FFFF"/>
<rect x="541" y="270" width="54" height="54" stroke="#00FFFF"/>
<rect x="487" y="270" width="54" height="54" stroke="#00FFFF"/>
<rect x="433" y="270" width="54" height="54" stroke="#00FFFF"/>
<rect x="595" y="756" width="81" height="54" stroke="#00FFFF"/>
<rect x="676" y="756" width="54" height="54" stroke="#00FFFF"/>
<rect x="730" y="756" width="81" height="54" stroke="#00FFFF"/>
<rect x="136" y="756" width="81" height="54" stroke="#00FFFF"/>
<rect x="82" y="756" width="54" height="54" stroke="#00FFFF"/>
<rect x="1" y="756" width="81" height="54" stroke="#00FFFF"/>
<rect x="1" y="432" width="54" height="54" stroke="#00FFFF"/>
<rect x="757" y="432" width="54" height="54" stroke="#00FFFF"/>
<rect x="703" y="432" width="54" height="54" stroke="#00FFFF"/>
<rect x="541" y="324" width="54" height="54" stroke="#00FFFF"/>
<rect x="433" y="324" width="54" height="54" stroke="#00FFFF"/>
<rect x="379" y="324" width="54" height="54" stroke="#00FFFF"/>
<rect x="379" y="378" width="54" height="54" stroke="#00FFFF"/>
<rect x="298" y="378" width="81" height="54" stroke="#00FFFF"/>
<rect x="298" y="324" width="81" height="54" stroke="#00FFFF"/>
<rect x="217" y="324" width="81" height="108" stroke="#00FFFF"/>
<rect x="176.5" y="378" width="54" height="54" stroke="#00FFFF"/>
<rect x="122.5" y="378" width="54" height="54" stroke="#00FFFF"/>
<rect x="68.5" y="378" width="54" height="54" stroke="#00FFFF"/>
<rect x="1" y="378" width="67.5" height="54" stroke="#00FFFF"/>
<rect x="109" y="324" width="54" height="54" stroke="#00FFFF"/>
<rect x="55" y="324" width="54" height="54" stroke="#00FFFF"/>
<rect x="1" y="324" width="54" height="54" stroke="#00FFFF"/>
<rect x="163" y="324" width="54" height="54" stroke="#00FFFF"/>
<rect x="271" y="270" width="94.5" height="54" stroke="#00FFFF"/>
<rect x="365.5" y="270" width="67.5" height="54" stroke="#00FFFF"/>
<rect x="217" y="270" width="54" height="54" stroke="#00FFFF"/>
<rect x="163" y="270" width="54" height="54" stroke="#00FFFF"/>
<rect x="95.5" y="270" width="67.5" height="54" stroke="#00FFFF"/>
<rect x="1" y="270" width="94.5" height="54" stroke="#00FFFF"/>
<rect x="379" y="162" width="54" height="54" stroke="#00FFFF"/>
<rect x="271" y="162" width="54" height="54" stroke="#00FFFF"/>
<rect x="163" y="162" width="108" height="54" stroke="#00FFFF"/>
<rect x="95.5" y="162" width="67.5" height="54" stroke="#00FFFF"/>
<rect x="217" y="216" width="54" height="54" stroke="#00FFFF"/>
<rect x="163" y="216" width="54" height="54" stroke="#00FFFF"/>
<rect x="95.5" y="216" width="67.5" height="54" stroke="#00FFFF"/>
<rect x="1" y="216" width="94.5" height="54" stroke="#00FFFF"/>
<rect x="1" y="162" width="94.5" height="54" stroke="#00FFFF"/>
<rect x="730" y="54" width="81" height="108" stroke="#00FFFF"/>
<rect x="635.5" y="108" width="54" height="54" stroke="#00FFFF"/>
<rect x="554.5" y="108" width="81" height="54" stroke="#00FFFF"/>
<rect x="446.5" y="108" width="108" height="54" stroke="#00FFFF"/>
<rect x="311.5" y="108" width="81" height="54" stroke="#00FFFF"/>
<rect x="257.5" y="108" width="54" height="54" stroke="#00FFFF"/>
<rect x="163" y="108" width="94.5" height="54" stroke="#00FFFF"/>
<rect x="82" y="108" width="81" height="54" stroke="#00FFFF"/>
<rect x="1" y="108" width="81" height="54" stroke="#00FFFF"/>
<rect x="635.5" y="54" width="94.5" height="54" stroke="#00FFFF"/>
<rect x="527.5" y="54" width="54" height="54" stroke="#00FFFF"/>
<rect x="473.5" y="54" width="54" height="54" stroke="#00FFFF"/>
<rect x="392.5" y="54" width="81" height="54" stroke="#00FFFF"/>
</svg>
