<svg width="812" height="811" viewBox="0 0 812 811" fill="none" xmlns="http://www.w3.org/2000/svg">
<path fill-rule="evenodd" clip-rule="evenodd" d="M631.311 719.177C630.547 719.177 629.927 719.797 629.927 720.561C629.927 721.326 630.547 721.945 631.311 721.945H632.556C632.633 721.945 632.696 721.883 632.696 721.805V720.561C632.696 719.797 632.076 719.177 631.311 719.177ZM634.256 721.945C634.178 721.945 634.116 721.883 634.116 721.805V720.561C634.116 719.012 632.86 717.757 631.311 717.757C629.763 717.757 628.507 719.012 628.507 720.561C628.507 722.11 629.762 723.365 631.311 723.365H632.556C632.633 723.365 632.696 723.428 632.696 723.505V725.994C632.696 726.071 632.633 726.134 632.556 726.134H631.311C629.763 726.134 628.507 727.39 628.507 728.938C628.507 730.487 629.763 731.743 631.311 731.743C632.86 731.743 634.116 730.487 634.116 728.938V727.694C634.116 727.617 634.178 727.554 634.256 727.554H636.744C636.821 727.554 636.884 727.617 636.884 727.694L636.884 728.938C636.884 730.487 638.14 731.743 639.689 731.743C641.237 731.743 642.493 730.487 642.493 728.938C642.493 727.39 641.237 726.134 639.689 726.134H638.444C638.367 726.134 638.304 726.071 638.304 725.994V723.505C638.304 723.428 638.367 723.365 638.444 723.365H639.689C641.237 723.365 642.493 722.11 642.493 720.561C642.493 719.012 641.237 717.757 639.689 717.757C638.14 717.757 636.884 719.012 636.884 720.561V721.805C636.884 721.883 636.822 721.945 636.744 721.945H634.256ZM634.256 723.365C634.178 723.365 634.116 723.428 634.116 723.505V725.994C634.116 726.071 634.178 726.134 634.256 726.134H636.744C636.821 726.134 636.884 726.071 636.884 725.994L636.884 723.505C636.884 723.428 636.822 723.365 636.744 723.365H634.256ZM638.444 727.554C638.367 727.554 638.304 727.617 638.304 727.694V728.938C638.304 729.703 638.924 730.323 639.689 730.323C640.453 730.323 641.073 729.703 641.073 728.938C641.073 728.174 640.453 727.554 639.689 727.554H638.444ZM638.304 721.805C638.304 721.883 638.367 721.945 638.444 721.945H639.689C640.453 721.945 641.073 721.326 641.073 720.561C641.073 719.797 640.453 719.177 639.689 719.177C638.924 719.177 638.304 719.797 638.304 720.561V721.805ZM632.696 727.694C632.696 727.617 632.633 727.554 632.556 727.554H631.311C630.547 727.554 629.927 728.174 629.927 728.938C629.927 729.703 630.547 730.323 631.311 730.323C632.076 730.323 632.696 729.703 632.696 728.938V727.694Z" fill="#FF00FF"/>
<path fill-rule="evenodd" clip-rule="evenodd" d="M561.725 721.756C561.333 721.756 561.015 722.074 561.015 722.466C561.015 722.858 561.333 723.176 561.725 723.176H565C565.138 723.176 565.268 723.244 565.346 723.358L567.803 726.937C568.146 727.437 568.714 727.736 569.32 727.736H574.275C574.667 727.736 574.985 727.418 574.985 727.026C574.985 726.634 574.667 726.316 574.275 726.316H569.32C569.182 726.316 569.052 726.248 568.974 726.134L566.517 722.555C566.174 722.055 565.606 721.756 565 721.756H561.725ZM569.975 721.756C569.583 721.756 569.265 722.074 569.265 722.466C569.265 722.858 569.583 723.176 569.975 723.176H574.275C574.667 723.176 574.985 722.858 574.985 722.466C574.985 722.074 574.667 721.756 574.275 721.756H569.975Z" fill="#FF00FF"/>
<path fill-rule="evenodd" clip-rule="evenodd" d="M561.725 721.756C561.333 721.756 561.015 722.074 561.015 722.466C561.015 722.858 561.333 723.176 561.725 723.176H565C565.138 723.176 565.268 723.244 565.346 723.358L567.803 726.937C568.146 727.437 568.714 727.736 569.32 727.736H574.275C574.667 727.736 574.985 727.418 574.985 727.026C574.985 726.634 574.667 726.316 574.275 726.316H569.32C569.182 726.316 569.052 726.248 568.974 726.134L566.517 722.555C566.174 722.055 565.606 721.756 565 721.756H561.725ZM569.975 721.756C569.583 721.756 569.265 722.074 569.265 722.466C569.265 722.858 569.583 723.176 569.975 723.176H574.275C574.667 723.176 574.985 722.858 574.985 722.466C574.985 722.074 574.667 721.756 574.275 721.756H569.975Z" fill="#FF00FF"/>
<path fill-rule="evenodd" clip-rule="evenodd" d="M156.725 721.756C156.333 721.756 156.015 722.074 156.015 722.466C156.015 722.858 156.333 723.176 156.725 723.176H160C160.138 723.176 160.268 723.244 160.346 723.358L162.803 726.937C163.146 727.437 163.714 727.736 164.32 727.736H169.275C169.667 727.736 169.985 727.418 169.985 727.026C169.985 726.634 169.667 726.316 169.275 726.316H164.32C164.182 726.316 164.052 726.248 163.974 726.134L161.517 722.555C161.174 722.055 160.606 721.756 160 721.756H156.725ZM164.975 721.756C164.583 721.756 164.265 722.074 164.265 722.466C164.265 722.858 164.583 723.176 164.975 723.176H169.275C169.667 723.176 169.985 722.858 169.985 722.466C169.985 722.074 169.667 721.756 169.275 721.756H164.975Z" fill="#FF00FF"/>
<path fill-rule="evenodd" clip-rule="evenodd" d="M156.725 721.756C156.333 721.756 156.015 722.074 156.015 722.466C156.015 722.858 156.333 723.176 156.725 723.176H160C160.138 723.176 160.268 723.244 160.346 723.358L162.803 726.937C163.146 727.437 163.714 727.736 164.32 727.736H169.275C169.667 727.736 169.985 727.418 169.985 727.026C169.985 726.634 169.667 726.316 169.275 726.316H164.32C164.182 726.316 164.052 726.248 163.974 726.134L161.517 722.555C161.174 722.055 160.606 721.756 160 721.756H156.725ZM164.975 721.756C164.583 721.756 164.265 722.074 164.265 722.466C164.265 722.858 164.583 723.176 164.975 723.176H169.275C169.667 723.176 169.985 722.858 169.985 722.466C169.985 722.074 169.667 721.756 169.275 721.756H164.975Z" fill="#FF00FF"/>
<path fill-rule="evenodd" clip-rule="evenodd" d="M91.3113 719.177C90.5469 719.177 89.927 719.797 89.927 720.561C89.927 721.326 90.5468 721.945 91.3113 721.945H92.5556C92.633 721.945 92.6956 721.883 92.6956 721.805V720.561C92.6956 719.797 92.0758 719.177 91.3113 719.177ZM94.2556 721.945C94.1783 721.945 94.1156 721.883 94.1156 721.805V720.561C94.1156 719.012 92.8601 717.757 91.3113 717.757C89.7626 717.757 88.507 719.012 88.507 720.561C88.507 722.11 89.7625 723.365 91.3113 723.365H92.5556C92.633 723.365 92.6956 723.428 92.6956 723.505V725.994C92.6956 726.071 92.633 726.134 92.5556 726.134H91.3113C89.7626 726.134 88.507 727.39 88.507 728.938C88.507 730.487 89.7626 731.743 91.3113 731.743C92.86 731.743 94.1156 730.487 94.1156 728.938V727.694C94.1156 727.617 94.1783 727.554 94.2556 727.554H96.7437C96.821 727.554 96.8836 727.617 96.8837 727.694L96.8843 728.938C96.8843 730.487 98.1399 731.743 99.6887 731.743C101.237 731.743 102.493 730.487 102.493 728.938C102.493 727.39 101.237 726.134 99.6887 726.134H98.4444C98.367 726.134 98.3043 726.071 98.3043 725.994V723.505C98.3043 723.428 98.367 723.365 98.4444 723.365H99.6887C101.237 723.365 102.493 722.11 102.493 720.561C102.493 719.012 101.237 717.757 99.6887 717.757C98.1399 717.757 96.8843 719.012 96.8843 720.561V721.805C96.8843 721.883 96.8217 721.945 96.7443 721.945H94.2556ZM94.2556 723.365C94.1783 723.365 94.1156 723.428 94.1156 723.505V725.994C94.1156 726.071 94.1783 726.134 94.2556 726.134H96.7436C96.8209 726.134 96.8836 726.071 96.8836 725.994L96.8843 723.505C96.8843 723.428 96.8216 723.365 96.7443 723.365H94.2556ZM98.4444 727.554C98.367 727.554 98.3043 727.617 98.3043 727.694V728.938C98.3043 729.703 98.9242 730.323 99.6887 730.323C100.453 730.323 101.073 729.703 101.073 728.938C101.073 728.174 100.453 727.554 99.6887 727.554H98.4444ZM98.3043 721.805C98.3043 721.883 98.367 721.945 98.4444 721.945H99.6887C100.453 721.945 101.073 721.326 101.073 720.561C101.073 719.797 100.453 719.177 99.6887 719.177C98.9241 719.177 98.3043 719.797 98.3043 720.561V721.805ZM92.6956 727.694C92.6956 727.617 92.633 727.554 92.5556 727.554H91.3113C90.5469 727.554 89.927 728.174 89.927 728.938C89.927 729.703 90.5469 730.323 91.3113 730.323C92.0758 730.323 92.6956 729.703 92.6956 728.938V727.694Z" fill="#FF00FF"/>
<path d="M631.388 658.935C631.388 659.835 630.563 660.915 629.183 660.915C627.998 660.915 626.693 659.895 625.928 659.895C625.103 659.895 624.893 660.795 624.263 660.795C623.783 660.795 623.618 660.42 623.618 660.075C623.618 659.175 624.443 658.095 625.733 658.095C627.008 658.095 628.313 659.115 629.078 659.115C629.903 659.115 630.113 658.215 630.743 658.215C631.223 658.215 631.388 658.59 631.388 658.935Z" fill="#FF00FF"/>
<path d="M627.422 679.895L626.27 678.576C626.143 678.42 626.064 678.205 626.064 677.98C626.064 677.492 626.465 677.082 626.953 677.082C627.207 677.082 627.461 677.15 627.695 677.492L628.623 678.898C628.711 679.035 628.789 679.201 628.789 679.377C628.789 679.816 628.428 680.178 628.018 680.178C627.773 680.178 627.568 680.061 627.422 679.895Z" fill="#FF00FF"/>
<path fill-rule="evenodd" clip-rule="evenodd" d="M246.209 462.353C246.209 464.33 244.606 465.933 242.629 465.933C240.652 465.933 239.049 464.33 239.049 462.353C239.049 460.376 240.652 458.773 242.629 458.773C244.606 458.773 246.209 460.376 246.209 462.353ZM245.5 466.585C245.453 466.537 245.379 466.53 245.322 466.566C244.545 467.064 243.621 467.353 242.629 467.353C239.868 467.353 237.629 465.114 237.629 462.353C237.629 459.592 239.868 457.353 242.629 457.353C245.39 457.353 247.629 459.592 247.629 462.353C247.629 463.371 247.325 464.318 246.802 465.108C246.765 465.164 246.772 465.239 246.819 465.287L250.1 468.568C250.461 468.929 250.461 469.515 250.1 469.876C249.739 470.237 249.153 470.237 248.792 469.876L245.5 466.585Z" fill="#FF00FF"/>
<path d="M239.085 447.833C238.694 447.833 238.455 447.594 238.455 447.179V441.358C238.455 440.948 238.694 440.704 239.085 440.704H242.454C242.801 440.704 243.03 440.909 243.03 441.236C243.03 441.563 242.796 441.769 242.454 441.769H239.857C239.778 441.769 239.715 441.832 239.715 441.91V443.707C239.715 443.785 239.778 443.849 239.857 443.849H242.2C242.532 443.849 242.752 444.044 242.752 444.361C242.752 444.679 242.532 444.874 242.2 444.874H239.857C239.778 444.874 239.715 444.937 239.715 445.016V447.179C239.715 447.594 239.481 447.833 239.085 447.833V447.833Z" fill="#FF00FF"/>
<path d="M249.016 445.362H248.665C248.587 445.362 248.523 445.299 248.523 445.221V441.534C248.523 440.948 248.138 440.606 247.488 440.606C246.97 440.606 246.663 440.821 246.204 441.505C245.359 442.745 244.558 443.951 244.065 444.835C243.87 445.187 243.792 445.416 243.792 445.69C243.792 446.109 244.09 446.398 244.544 446.398H247.18C247.259 446.398 247.322 446.461 247.322 446.539V447.228C247.322 447.623 247.576 447.848 247.923 447.848C248.269 447.848 248.523 447.623 248.523 447.228V446.539C248.523 446.461 248.587 446.398 248.665 446.398H249.012C249.348 446.398 249.549 446.188 249.549 445.88C249.549 445.572 249.348 445.362 249.016 445.362H249.016ZM247.2 445.392H245.167C245.056 445.392 244.988 445.271 245.046 445.176C245.382 444.625 246.304 443.127 247.083 442.003C247.163 441.889 247.342 441.945 247.342 442.084V445.25C247.342 445.328 247.278 445.392 247.2 445.392Z" fill="#FF00FF"/>
<path fill-rule="evenodd" clip-rule="evenodd" d="M184.399 460.404C184.261 460.404 184.169 460.506 184.169 460.624V461.914C184.169 462.042 184.271 462.144 184.399 462.144H188.059C188.11 462.144 188.164 462.123 188.21 462.077C188.255 462.031 188.279 461.972 188.279 461.914V460.624C188.279 460.501 188.182 460.404 188.059 460.404H184.399ZM182.749 460.624C182.749 459.702 183.497 458.984 184.399 458.984H188.059C188.956 458.984 189.699 459.707 189.699 460.624V461.914C189.699 462.807 188.971 463.564 188.059 463.564H184.399C183.487 463.564 182.749 462.826 182.749 461.914V460.624ZM193.409 461.074C193.291 461.074 193.189 461.177 193.189 461.294V464.614C193.189 464.752 193.291 464.844 193.409 464.844H195.609C195.727 464.844 195.829 464.752 195.829 464.614V461.294C195.829 461.177 195.727 461.074 195.609 461.074H193.409ZM191.769 461.294C191.769 460.392 192.507 459.654 193.409 459.654H195.609C196.511 459.654 197.249 460.392 197.249 461.294V464.614C197.249 465.517 196.531 466.264 195.609 466.264H193.409C192.507 466.264 191.769 465.537 191.769 464.614V461.294ZM186.339 465.794C186.339 465.747 186.359 465.694 186.403 465.651C186.447 465.607 186.503 465.584 186.559 465.584H189.529C189.588 465.584 189.643 465.608 189.685 465.651C189.73 465.696 189.749 465.749 189.749 465.794V466.864C189.749 466.982 189.647 467.084 189.529 467.084H186.559C186.441 467.084 186.339 466.982 186.339 466.864V465.794ZM186.559 464.164C185.662 464.164 184.919 464.897 184.919 465.794V466.864C184.919 467.766 185.657 468.504 186.559 468.504H189.529C190.431 468.504 191.169 467.766 191.169 466.864V465.794C191.169 464.917 190.446 464.164 189.529 464.164H186.559Z" fill="#FF00FF"/>
<path d="M185.291 447.833C184.9 447.833 184.661 447.594 184.661 447.179V441.358C184.661 440.948 184.9 440.704 185.291 440.704H188.66C189.006 440.704 189.236 440.909 189.236 441.236C189.236 441.563 189.002 441.769 188.66 441.769H186.062C185.984 441.769 185.92 441.832 185.92 441.91V443.707C185.92 443.785 185.984 443.849 186.062 443.849H188.406C188.738 443.849 188.958 444.044 188.958 444.361C188.958 444.679 188.738 444.874 188.406 444.874H186.062C185.984 444.874 185.92 444.937 185.92 445.016V447.179C185.92 447.594 185.686 447.833 185.291 447.833V447.833Z" fill="#FF00FF"/>
<path d="M192.703 447.892C191.467 447.892 190.666 447.389 190.3 446.681C190.207 446.51 190.168 446.349 190.168 446.183C190.168 445.85 190.378 445.64 190.73 445.64C190.989 445.64 191.145 445.753 191.277 446.012C191.521 446.544 191.946 446.861 192.718 446.861C193.489 446.861 194.061 446.402 194.061 445.762C194.065 445.01 193.518 444.59 192.615 444.59H192.215C191.902 444.59 191.716 444.4 191.716 444.121C191.716 443.843 191.902 443.653 192.215 443.653H192.586C193.362 443.653 193.88 443.208 193.88 442.583C193.88 441.958 193.479 441.562 192.698 441.562C192.034 441.562 191.648 441.836 191.414 442.388C191.277 442.69 191.14 442.803 190.847 442.803C190.495 442.803 190.31 442.598 190.31 442.275C190.31 442.099 190.344 441.943 190.432 441.772C190.764 441.074 191.545 440.562 192.693 440.562C194.153 440.562 195.091 441.323 195.091 442.412C195.091 443.176 194.583 443.675 194.296 443.895C194.217 443.957 194.225 444.079 194.312 444.13C194.662 444.335 195.34 444.852 195.34 445.792C195.34 447.042 194.246 447.892 192.703 447.892H192.703V447.892Z" fill="#FF00FF"/>
<path fill-rule="evenodd" clip-rule="evenodd" d="M135.99 456.99C136.382 456.99 136.7 457.308 136.7 457.7V458.83C136.7 459.222 136.382 459.54 135.99 459.54C135.598 459.54 135.28 459.222 135.28 458.83V457.7C135.28 457.308 135.598 456.99 135.99 456.99ZM140.782 459.962C141.059 459.685 141.059 459.235 140.782 458.958C140.505 458.681 140.055 458.681 139.778 458.958L138.968 459.768C138.691 460.045 138.691 460.495 138.968 460.772C139.245 461.05 139.695 461.05 139.972 460.772L140.782 459.962ZM136 462.33C135.214 462.33 134.58 462.97 134.58 463.75C134.58 464.524 135.218 465.16 136 465.16C136.792 465.16 137.42 464.534 137.42 463.75C137.42 462.962 136.788 462.33 136 462.33ZM133.16 463.75C133.16 462.19 134.426 460.91 136 460.91C137.572 460.91 138.84 462.178 138.84 463.75C138.84 465.327 137.568 466.58 136 466.58C134.442 466.58 133.16 465.317 133.16 463.75ZM136.01 467.96C136.402 467.96 136.72 468.278 136.72 468.67V469.8C136.72 470.192 136.402 470.51 136.01 470.51C135.618 470.51 135.3 470.192 135.3 469.8V468.67C135.3 468.278 135.618 467.96 136.01 467.96ZM139.982 466.718C139.705 466.441 139.255 466.441 138.978 466.718C138.701 466.995 138.701 467.445 138.978 467.722L139.788 468.532C140.065 468.81 140.515 468.81 140.792 468.532C141.069 468.255 141.069 467.805 140.792 467.528L139.982 466.718ZM140.21 463.74C140.21 463.348 140.528 463.03 140.92 463.03H142.05C142.442 463.03 142.76 463.348 142.76 463.74C142.76 464.132 142.442 464.45 142.05 464.45H140.92C140.528 464.45 140.21 464.132 140.21 463.74ZM132.212 458.968C131.935 458.691 131.485 458.691 131.208 458.968C130.931 459.245 130.931 459.695 131.208 459.972L132.018 460.782C132.295 461.06 132.745 461.06 133.022 460.782C133.299 460.505 133.299 460.055 133.022 459.778L132.212 458.968ZM129.24 463.76C129.24 463.368 129.558 463.05 129.95 463.05H131.08C131.472 463.05 131.79 463.368 131.79 463.76C131.79 464.152 131.472 464.47 131.08 464.47H129.95C129.558 464.47 129.24 464.152 129.24 463.76ZM133.032 467.732C133.309 467.455 133.309 467.005 133.032 466.728C132.755 466.451 132.305 466.451 132.028 466.728L131.218 467.538C130.941 467.815 130.941 468.265 131.218 468.542C131.495 468.82 131.945 468.82 132.222 468.542L133.032 467.732Z" fill="#FF00FF"/>
<path d="M131.366 447.833C130.976 447.833 130.736 447.594 130.736 447.179V441.358C130.736 440.948 130.976 440.704 131.366 440.704H134.735C135.082 440.704 135.312 440.909 135.312 441.236C135.312 441.563 135.077 441.769 134.735 441.769H132.138C132.06 441.769 131.996 441.832 131.996 441.91V443.707C131.996 443.785 132.06 443.849 132.138 443.849H134.481C134.813 443.849 135.033 444.044 135.033 444.361C135.033 444.679 134.814 444.874 134.481 444.874H132.138C132.06 444.874 131.996 444.937 131.996 445.016V447.179C131.996 447.594 131.762 447.833 131.366 447.833V447.833Z" fill="#FF00FF"/>
<path d="M136.83 447.75C136.439 447.75 136.234 447.535 136.234 447.218C136.234 446.974 136.317 446.827 136.586 446.573L138.739 444.44C139.638 443.551 139.862 443.194 139.862 442.657C139.862 442.027 139.379 441.573 138.7 441.573C138.065 441.573 137.621 441.896 137.372 442.53C137.245 442.784 137.099 442.916 136.811 442.916C136.469 442.916 136.264 442.706 136.264 442.393C136.264 442.301 136.278 442.213 136.303 442.13C136.493 441.368 137.338 440.562 138.71 440.562C140.082 440.562 141.093 441.397 141.093 442.579C141.093 443.404 140.697 443.961 139.53 445.104L138.136 446.477C138.045 446.566 138.108 446.72 138.235 446.72H140.726C141.058 446.72 141.264 446.925 141.264 447.237C141.264 447.55 141.058 447.75 140.726 447.75H136.83Z" fill="#FF00FF"/>
<path fill-rule="evenodd" clip-rule="evenodd" d="M82.7049 458.405C82.7049 458.013 82.387 457.695 81.9949 457.695C81.6028 457.695 81.2849 458.013 81.2849 458.405V458.825C81.2849 459.217 81.6028 459.535 81.9949 459.535C82.387 459.535 82.7049 459.217 82.7049 458.825V458.405ZM86.2769 459.463C86.5542 459.74 86.5542 460.19 86.2769 460.467L85.9769 460.767C85.6997 461.044 85.2501 461.044 84.9728 460.767C84.6956 460.49 84.6956 460.04 84.9728 459.763L85.2728 459.463C85.5501 459.186 85.9997 459.186 86.2769 459.463ZM80.5849 463.755C80.5849 462.983 81.2214 462.335 82.0049 462.335C82.7928 462.335 83.4249 462.967 83.4249 463.755C83.4249 464.538 82.7972 465.165 82.0049 465.165C81.2249 465.165 80.5849 464.521 80.5849 463.755ZM82.0049 460.915C80.4285 460.915 79.1649 462.207 79.1649 463.755C79.1649 465.309 80.445 466.585 82.0049 466.585C83.5727 466.585 84.8449 465.331 84.8449 463.755C84.8449 462.183 83.577 460.915 82.0049 460.915ZM82.7149 468.675C82.7149 468.283 82.397 467.965 82.0049 467.965C81.6128 467.965 81.2949 468.283 81.2949 468.675V469.105C81.2949 469.497 81.6128 469.815 82.0049 469.815C82.397 469.815 82.7149 469.497 82.7149 469.105V468.675ZM84.9829 466.723C85.2601 466.446 85.7097 466.446 85.9869 466.723L86.2869 467.023C86.5642 467.3 86.5642 467.75 86.2869 468.027C86.0097 468.304 85.5601 468.304 85.2829 468.027L84.9829 467.727C84.7056 467.45 84.7056 467 84.9829 466.723ZM86.925 463.035C86.5328 463.035 86.215 463.353 86.215 463.745C86.215 464.137 86.5328 464.455 86.925 464.455H87.355C87.7471 464.455 88.065 464.137 88.065 463.745C88.065 463.353 87.7471 463.035 87.355 463.035H86.925ZM77.713 459.473C77.9902 459.196 78.4398 459.196 78.7171 459.473L79.0171 459.773C79.2943 460.05 79.2943 460.5 79.0171 460.777C78.7398 461.054 78.2902 461.054 78.013 460.777L77.713 460.477C77.4357 460.2 77.4357 459.75 77.713 459.473ZM76.6549 463.045C76.2628 463.045 75.9449 463.363 75.9449 463.755C75.9449 464.147 76.2628 464.465 76.6549 464.465H77.0749C77.4671 464.465 77.7849 464.147 77.7849 463.755C77.7849 463.363 77.4671 463.045 77.0749 463.045H76.6549ZM79.0269 466.733C79.3042 467.01 79.3042 467.46 79.0269 467.737L78.7269 468.037C78.4497 468.314 78.0001 468.314 77.7228 468.037C77.4456 467.76 77.4456 467.31 77.7228 467.033L78.0228 466.733C78.3001 466.455 78.7497 466.455 79.0269 466.733Z" fill="#FF00FF"/>
<path d="M78.3673 447.833C77.9767 447.833 77.7374 447.594 77.7374 447.179V441.358C77.7374 440.948 77.9767 440.704 78.3673 440.704H81.7365C82.0832 440.704 82.3127 440.909 82.3127 441.236C82.3127 441.563 82.0783 441.769 81.7365 441.769H79.1389C79.0606 441.769 78.9972 441.832 78.9972 441.91V443.707C78.9972 443.785 79.0607 443.849 79.1389 443.849H81.4825C81.8145 443.849 82.0343 444.044 82.0343 444.361C82.0343 444.679 81.8146 444.874 81.4825 444.874H79.1389C79.0606 444.874 78.9972 444.937 78.9972 445.016V447.179C78.9972 447.594 78.7628 447.833 78.3673 447.833V447.833Z" fill="#FF00FF"/>
<path d="M85.6425 447.848C85.2763 447.848 85.0224 447.594 85.0224 447.213V442.179C85.0224 442.065 84.8937 441.997 84.7998 442.063L83.8603 442.716C83.7382 442.804 83.6406 442.838 83.5038 442.838C83.2401 442.838 83.0497 442.648 83.0497 442.369C83.0497 442.174 83.1278 442.027 83.3378 441.881L84.7782 440.87C85.0907 440.65 85.286 440.606 85.5497 440.606C85.994 440.606 86.2626 440.875 86.2626 441.31V447.213C86.2626 447.594 86.0087 447.848 85.6425 447.848V447.848Z" fill="#FF00FF"/>
<path fill-rule="evenodd" clip-rule="evenodd" d="M461.707 460.514H462.618C462.924 460.514 463.172 460.762 463.172 461.068V466.432C463.172 466.738 462.924 466.986 462.618 466.986H461.707C461.401 466.986 461.153 466.738 461.153 466.432V461.068C461.153 460.762 461.401 460.514 461.707 460.514ZM465.613 460.514H466.525C466.83 460.514 467.078 460.762 467.078 461.068V466.432C467.078 466.738 466.83 466.986 466.525 466.986H465.613C465.307 466.986 465.06 466.738 465.06 466.432V461.068C465.06 460.762 465.307 460.514 465.613 460.514ZM458.172 464.616C458.838 464.231 458.838 463.269 458.172 462.884L454.422 460.719C453.755 460.334 452.922 460.815 452.922 461.585V465.915C452.922 466.685 453.755 467.166 454.422 466.781L458.172 464.616Z" fill="#FF00FF"/>
<path d="M455.18 447.833C454.789 447.833 454.55 447.594 454.55 447.179V441.358C454.55 440.948 454.789 440.704 455.18 440.704H458.549C458.896 440.704 459.125 440.909 459.125 441.236C459.125 441.563 458.891 441.769 458.549 441.769H455.952C455.873 441.769 455.81 441.832 455.81 441.91V443.707C455.81 443.785 455.873 443.849 455.952 443.849H458.295C458.627 443.849 458.847 444.044 458.847 444.361C458.847 444.679 458.627 444.874 458.295 444.874H455.952C455.873 444.874 455.81 444.937 455.81 445.016V447.179C455.81 447.594 455.576 447.833 455.18 447.833V447.833Z" fill="#FF00FF"/>
<path d="M465.449 445.845C465.449 445.005 464.993 444.534 464.346 444.132C464.263 444.081 464.255 443.963 464.331 443.902C464.851 443.479 465.195 443.131 465.195 442.442C465.195 441.357 464.16 440.562 462.705 440.562C461.249 440.562 460.214 441.357 460.214 442.442C460.214 443.131 460.558 443.479 461.078 443.902C461.154 443.963 461.146 444.081 461.063 444.132C460.416 444.534 459.96 445.005 459.96 445.845C459.96 447.047 461.093 447.892 462.704 447.892C464.316 447.892 465.449 447.047 465.449 445.845H465.449ZM462.705 441.514C463.432 441.514 463.95 441.948 463.95 442.569C463.95 443.189 463.437 443.614 462.705 443.614C461.972 443.614 461.459 443.189 461.459 442.569C461.459 441.948 461.977 441.514 462.705 441.514ZM462.705 446.93C461.86 446.93 461.264 446.436 461.264 445.753C461.264 445.069 461.86 444.576 462.705 444.576C463.549 444.576 464.145 445.069 464.145 445.753C464.145 446.436 463.549 446.93 462.705 446.93Z" fill="#FF00FF"/>
<path fill-rule="evenodd" clip-rule="evenodd" d="M399.608 462.884C398.942 463.269 398.942 464.231 399.608 464.616L403.358 466.781C404.025 467.166 404.858 466.685 404.858 465.915L404.858 461.585C404.858 460.815 404.025 460.334 403.358 460.719L399.608 462.884ZM407.11 462.884C406.443 463.269 406.443 464.231 407.11 464.616L410.86 466.781C411.527 467.166 412.36 466.685 412.36 465.915V461.585C412.36 460.815 411.527 460.334 410.86 460.719L407.11 462.884Z" fill="#FF00FF"/>
<path d="M401.495 447.833C401.104 447.833 400.865 447.594 400.865 447.179V441.358C400.865 440.948 401.104 440.704 401.495 440.704H404.864C405.211 440.704 405.44 440.909 405.44 441.236C405.44 441.563 405.206 441.769 404.864 441.769H402.267C402.188 441.769 402.125 441.832 402.125 441.91V443.707C402.125 443.785 402.188 443.849 402.267 443.849H404.61C404.942 443.849 405.162 444.044 405.162 444.361C405.162 444.679 404.942 444.874 404.61 444.874H402.267C402.188 444.874 402.125 444.937 402.125 445.016V447.179C402.125 447.594 401.891 447.833 401.495 447.833V447.833Z" fill="#FF00FF"/>
<path d="M407.584 447.848C407.232 447.848 407.008 447.633 407.008 447.335C407.008 447.189 407.042 447.081 407.115 446.935L409.757 441.942C409.807 441.848 409.739 441.734 409.632 441.734H406.662C406.378 441.734 406.141 441.508 406.138 441.223C406.135 440.907 406.361 440.704 406.675 440.704H410.377C410.826 440.704 411.133 440.968 411.133 441.412C411.133 441.642 411.06 441.837 410.889 442.169L408.15 447.482C408.013 447.75 407.857 447.848 407.584 447.848L407.584 447.848Z" fill="#FF00FF"/>
<path fill-rule="evenodd" clip-rule="evenodd" d="M358.061 465.69C358.424 466.19 358.421 466.868 358.053 467.366C356.84 469.01 354.884 470.081 352.678 470.081C348.99 470.081 346 467.092 346 463.404C346 461.196 347.074 459.238 348.723 458.025C349.221 457.658 349.899 457.656 350.399 458.02C350.899 458.383 351.107 459.029 350.912 459.615C350.768 460.049 350.69 460.514 350.69 461C350.69 463.426 352.658 465.394 355.086 465.394C355.571 465.394 356.034 465.317 356.466 465.174C357.053 464.98 357.698 465.189 358.061 465.69ZM354.771 468.228C354.878 468.181 354.983 468.131 355.086 468.078C355.677 467.773 356.202 467.36 356.635 466.865C356.725 466.762 356.621 466.611 356.488 466.644C356.039 466.755 355.57 466.814 355.086 466.814C354.887 466.814 354.689 466.804 354.495 466.785C351.752 466.508 349.572 464.326 349.299 461.583C349.28 461.391 349.27 461.197 349.27 461C349.27 460.514 349.33 460.042 349.442 459.591C349.475 459.459 349.324 459.354 349.221 459.444C348.723 459.879 348.307 460.406 348.001 461C347.95 461.099 347.901 461.201 347.856 461.305C347.576 461.948 347.42 462.658 347.42 463.404C347.42 466.307 349.774 468.661 352.678 468.661C353.422 468.661 354.13 468.506 354.771 468.228Z" fill="#FF00FF"/>
<path d="M347.19 447.833C346.799 447.833 346.56 447.594 346.56 447.179V441.358C346.56 440.948 346.799 440.704 347.19 440.704H350.559C350.906 440.704 351.135 440.909 351.135 441.236C351.135 441.563 350.901 441.769 350.559 441.769H347.962C347.883 441.769 347.82 441.832 347.82 441.91V443.707C347.82 443.785 347.883 443.849 347.962 443.849H350.305C350.637 443.849 350.857 444.044 350.857 444.361C350.857 444.679 350.637 444.874 350.305 444.874H347.962C347.883 444.874 347.82 444.937 347.82 445.016V447.179C347.82 447.594 347.586 447.833 347.19 447.833V447.833Z" fill="#FF00FF"/>
<path d="M352.356 446.325C352.097 445.783 351.965 445.109 351.965 444.308C351.965 441.96 353.039 440.559 354.831 440.559C355.905 440.559 356.625 440.974 356.961 441.552C357.039 441.694 357.073 441.816 357.073 441.953C357.073 442.241 356.868 442.461 356.536 442.461C356.287 442.461 356.131 442.343 355.936 442.094C355.633 441.773 355.349 441.584 354.826 441.584C353.649 441.584 353.323 442.815 353.234 443.407C353.217 443.52 353.333 443.605 353.436 443.556C353.773 443.392 354.436 443.122 355.134 443.122C356.491 443.122 357.443 444.098 357.443 445.431C357.443 446.862 356.335 447.892 354.811 447.892C353.713 447.892 352.844 447.355 352.356 446.325H352.356ZM356.203 445.48C356.208 444.669 355.617 444.093 354.807 444.093C353.996 444.093 353.386 444.669 353.386 445.456C353.386 446.242 354.006 446.867 354.792 446.867C355.578 446.867 356.203 446.251 356.203 445.48Z" fill="#FF00FF"/>
<path fill-rule="evenodd" clip-rule="evenodd" d="M298.67 459.72V463.57C298.67 463.937 298.372 464.235 298.005 464.235C297.638 464.235 297.34 463.937 297.34 463.57V459.72C297.34 459.352 297.638 459.055 298.005 459.055C298.372 459.055 298.67 459.352 298.67 459.72ZM295.92 459.72C295.92 458.568 296.853 457.635 298.005 457.635C299.156 457.635 300.09 458.568 300.09 459.72V463.57C300.09 464.721 299.156 465.655 298.005 465.655C296.853 465.655 295.92 464.721 295.92 463.57V459.72ZM300.94 462.475C300.94 462.115 301.22 461.835 301.58 461.835C301.93 461.835 302.21 462.115 302.21 462.475V463.685C302.181 465.793 300.815 467.382 298.763 467.688C298.693 467.698 298.64 467.758 298.64 467.829V468.455C298.64 468.532 298.703 468.595 298.78 468.595H300.5C300.85 468.595 301.14 468.885 301.14 469.235C301.14 469.585 300.86 469.865 300.5 469.865H295.51C295.16 469.865 294.87 469.585 294.87 469.235C294.87 468.885 295.16 468.595 295.51 468.595H297.23C297.307 468.595 297.37 468.532 297.37 468.455V467.829C297.37 467.758 297.317 467.699 297.247 467.688C295.165 467.381 293.79 465.762 293.79 463.605V462.475C293.79 462.115 294.07 461.835 294.43 461.835C294.79 461.835 295.07 462.115 295.07 462.475V463.575C295.07 465.365 296.23 466.525 298.01 466.525C299.79 466.525 300.94 465.365 300.94 463.575V462.475Z" fill="#FF00FF"/>
<path d="M293.25 447.833C292.859 447.833 292.62 447.594 292.62 447.179V441.358C292.62 440.948 292.859 440.704 293.25 440.704H296.619C296.966 440.704 297.195 440.909 297.195 441.236C297.195 441.563 296.961 441.769 296.619 441.769H294.022C293.943 441.769 293.88 441.832 293.88 441.91V443.707C293.88 443.785 293.943 443.849 294.022 443.849H296.365C296.697 443.849 296.917 444.044 296.917 444.361C296.917 444.679 296.697 444.874 296.365 444.874H294.022C293.943 444.874 293.88 444.937 293.88 445.016V447.179C293.88 447.594 293.646 447.833 293.25 447.833V447.833Z" fill="#FF00FF"/>
<path d="M298.366 446.607C298.298 446.456 298.254 446.31 298.254 446.129C298.254 445.802 298.464 445.597 298.796 445.597C299.06 445.597 299.221 445.699 299.353 445.958C299.585 446.513 300.034 446.847 300.682 446.865C301.491 446.889 302.164 446.254 302.166 445.445C302.168 444.632 301.576 444.053 300.745 444.053C300.3 444.053 299.914 444.234 299.646 444.498C299.353 444.791 299.231 444.854 298.943 444.854C298.537 444.854 298.337 444.566 298.347 444.224C298.347 444.195 298.347 444.175 298.352 444.146L298.576 441.485C298.62 440.928 298.903 440.703 299.455 440.703H302.493C302.815 440.703 303.025 440.908 303.025 441.216C303.025 441.524 302.815 441.734 302.493 441.734H299.775C299.702 441.734 299.641 441.79 299.634 441.863L299.513 443.223C299.504 443.329 299.61 443.407 299.708 443.367C299.969 443.259 300.45 443.106 301.072 443.106C302.42 443.106 303.382 444.058 303.382 445.406C303.382 446.881 302.298 447.892 300.735 447.892C299.651 447.892 298.713 447.374 298.366 446.608L298.366 446.607Z" fill="#FF00FF"/>
<path fill-rule="evenodd" clip-rule="evenodd" d="M680.144 458.149C680.454 457.908 680.9 457.964 681.141 458.274C682.314 459.784 683.01 461.677 683.01 463.74C683.01 465.804 682.303 467.706 681.131 469.215C680.89 469.525 680.444 469.581 680.134 469.34C679.825 469.1 679.769 468.654 680.009 468.344C680.997 467.073 681.59 465.475 681.59 463.74C681.59 462.002 681.006 460.415 680.019 459.145C679.779 458.836 679.835 458.389 680.144 458.149ZM679.118 459.579C678.87 459.276 678.422 459.232 678.119 459.481C677.816 459.73 677.772 460.177 678.021 460.48C678.752 461.369 679.19 462.491 679.19 463.74C679.19 464.989 678.751 466.119 678.014 467.006C677.763 467.307 677.804 467.755 678.106 468.005C678.407 468.256 678.855 468.215 679.106 467.914C680.049 466.78 680.61 465.33 680.61 463.74C680.61 462.148 680.048 460.71 679.118 459.579ZM677.064 460.87C676.794 460.586 676.345 460.575 676.06 460.845C675.776 461.116 675.765 461.565 676.036 461.849C676.509 462.346 676.8 463.004 676.8 463.74C676.8 464.476 676.508 465.142 676.03 465.636C675.757 465.918 675.764 466.367 676.046 466.64C676.328 466.912 676.777 466.905 677.05 466.623C677.772 465.877 678.22 464.863 678.22 463.74C678.22 462.615 677.771 461.613 677.064 460.87ZM674.8 460.558C674.8 459.788 673.881 459.426 673.35 459.955L671.673 461.614C671.618 461.668 671.545 461.698 671.469 461.698H670.21C669.529 461.698 669 462.255 669 462.908V464.608C669 465.28 669.538 465.818 670.21 465.818H671.472C671.548 465.818 671.62 465.848 671.675 465.901L673.351 467.544C673.921 468.108 674.8 467.644 674.8 466.938V460.558Z" fill="#FF00FF"/>
<path d="M668.93 447.833C668.539 447.833 668.3 447.594 668.3 447.179V441.358C668.3 440.948 668.539 440.704 668.93 440.704H672.299C672.646 440.704 672.875 440.909 672.875 441.236C672.875 441.563 672.641 441.769 672.299 441.769H669.702C669.623 441.769 669.56 441.832 669.56 441.91V443.707C669.56 443.785 669.623 443.849 669.702 443.849H672.045C672.377 443.849 672.597 444.044 672.597 444.361C672.597 444.679 672.377 444.874 672.045 444.874H669.702C669.623 444.874 669.56 444.937 669.56 445.016V447.179C669.56 447.594 669.326 447.833 668.93 447.833V447.833Z" fill="#FF00FF"/>
<path d="M676.205 447.848C675.839 447.848 675.585 447.594 675.585 447.213V442.179C675.585 442.065 675.456 441.997 675.362 442.063L674.423 442.716C674.301 442.804 674.203 442.838 674.066 442.838C673.803 442.838 673.612 442.648 673.612 442.369C673.612 442.174 673.69 442.027 673.9 441.881L675.341 440.87C675.653 440.65 675.849 440.606 676.112 440.606C676.557 440.606 676.825 440.875 676.825 441.31V447.213C676.825 447.594 676.571 447.848 676.205 447.848V447.848Z" fill="#FF00FF"/>
<path d="M679.262 447.75C678.871 447.75 678.666 447.535 678.666 447.218C678.666 446.974 678.749 446.827 679.017 446.573L681.171 444.44C682.069 443.551 682.294 443.194 682.294 442.657C682.294 442.027 681.811 441.573 681.132 441.573C680.497 441.573 680.053 441.896 679.804 442.53C679.677 442.784 679.53 442.916 679.242 442.916C678.9 442.916 678.695 442.706 678.695 442.393C678.695 442.301 678.71 442.213 678.734 442.13C678.925 441.368 679.769 440.562 681.141 440.562C682.514 440.562 683.524 441.397 683.524 442.579C683.524 443.404 683.129 443.961 681.962 445.104L680.567 446.477C680.477 446.566 680.54 446.72 680.667 446.72H683.158C683.49 446.72 683.695 446.925 683.695 447.237C683.695 447.55 683.49 447.75 683.158 447.75H679.262Z" fill="#FF00FF"/>
<path fill-rule="evenodd" clip-rule="evenodd" d="M622.634 459.753C622.542 459.718 622.442 459.698 622.339 459.698H622.305C622.135 459.698 621.971 459.761 621.845 459.875C621.813 459.899 621.783 459.925 621.753 459.955L620.076 461.615C620.022 461.668 619.949 461.699 619.872 461.699H618.614C618.227 461.699 617.889 461.878 617.67 462.152C617.504 462.355 617.404 462.614 617.404 462.9V462.9C617.404 462.903 617.404 462.906 617.404 462.909V464.609C617.404 465.281 617.942 465.819 618.614 465.819H619.875C619.951 465.819 620.024 465.848 620.078 465.901L621.755 467.544C621.778 467.567 621.802 467.588 621.826 467.608C621.954 467.732 622.126 467.802 622.305 467.802H622.339C622.529 467.802 622.705 467.737 622.846 467.628C623.057 467.474 623.204 467.226 623.204 466.939V460.559C623.204 460.155 622.951 459.863 622.634 459.753ZM624.464 460.845C624.748 460.575 625.198 460.586 625.468 460.87C626.175 461.613 626.624 462.615 626.624 463.74C626.624 464.863 626.176 465.878 625.454 466.623C625.181 466.905 624.732 466.913 624.45 466.64C624.168 466.367 624.161 465.918 624.433 465.636C624.912 465.142 625.204 464.477 625.204 463.74C625.204 463.004 624.913 462.347 624.439 461.849C624.169 461.565 624.18 461.116 624.464 460.845Z" fill="#FF00FF"/>
<path d="M615.935 447.833C615.544 447.833 615.305 447.594 615.305 447.179V441.358C615.305 440.948 615.544 440.704 615.935 440.704H619.304C619.651 440.704 619.88 440.909 619.88 441.236C619.88 441.563 619.646 441.769 619.304 441.769H616.707C616.628 441.769 616.565 441.832 616.565 441.91V443.707C616.565 443.785 616.628 443.849 616.707 443.849H619.05C619.382 443.849 619.602 444.044 619.602 444.361C619.602 444.679 619.382 444.874 619.05 444.874H616.707C616.628 444.874 616.565 444.937 616.565 445.016V447.179C616.565 447.594 616.331 447.833 615.935 447.833V447.833Z" fill="#FF00FF"/>
<path d="M623.21 447.848C622.844 447.848 622.59 447.594 622.59 447.213V442.179C622.59 442.065 622.461 441.997 622.367 442.063L621.428 442.716C621.306 442.804 621.208 442.838 621.071 442.838C620.808 442.838 620.617 442.648 620.617 442.369C620.617 442.174 620.695 442.027 620.905 441.881L622.346 440.87C622.658 440.65 622.854 440.606 623.117 440.606C623.562 440.606 623.83 440.875 623.83 441.31V447.213C623.83 447.594 623.576 447.848 623.21 447.848V447.848Z" fill="#FF00FF"/>
<path d="M628.078 447.848C627.712 447.848 627.458 447.594 627.458 447.213V442.179C627.458 442.065 627.329 441.997 627.235 442.063L626.296 442.716C626.174 442.804 626.076 442.838 625.939 442.838C625.676 442.838 625.485 442.648 625.485 442.369C625.485 442.174 625.563 442.027 625.773 441.881L627.214 440.87C627.526 440.65 627.722 440.606 627.985 440.606C628.43 440.606 628.698 440.875 628.698 441.31V447.213C628.698 447.594 628.444 447.848 628.078 447.848V447.848Z" fill="#FF00FF"/>
<path fill-rule="evenodd" clip-rule="evenodd" d="M570.879 460.518C570.879 460.054 570.499 459.698 570.057 459.698H570.022C569.944 459.698 569.867 459.712 569.795 459.737C569.664 459.775 569.538 459.846 569.428 459.955L567.751 461.615C567.697 461.668 567.624 461.699 567.547 461.699H566.289C565.607 461.699 565.079 462.256 565.079 462.909V464.609C565.079 465.281 565.616 465.819 566.289 465.819H567.55C567.626 465.819 567.699 465.848 567.753 465.901L569.43 467.544C569.546 467.659 569.674 467.731 569.805 467.767C569.875 467.79 569.948 467.802 570.022 467.802H570.057C570.505 467.802 570.879 467.441 570.879 466.981V466.939V460.559V460.518Z" fill="#FF00FF"/>
<path d="M560.72 447.833C560.329 447.833 560.09 447.594 560.09 447.179V441.358C560.09 440.948 560.329 440.704 560.72 440.704H564.089C564.436 440.704 564.665 440.909 564.665 441.236C564.665 441.563 564.431 441.769 564.089 441.769H561.492C561.413 441.769 561.35 441.832 561.35 441.91V443.707C561.35 443.785 561.413 443.849 561.492 443.849H563.835C564.167 443.849 564.387 444.044 564.387 444.361C564.387 444.679 564.167 444.874 563.835 444.874H561.492C561.413 444.874 561.35 444.937 561.35 445.016V447.179C561.35 447.594 561.116 447.833 560.72 447.833V447.833Z" fill="#FF00FF"/>
<path d="M567.995 447.848C567.629 447.848 567.375 447.594 567.375 447.213V442.179C567.375 442.065 567.246 441.997 567.152 442.063L566.213 442.716C566.091 442.804 565.993 442.838 565.856 442.838C565.593 442.838 565.402 442.648 565.402 442.369C565.402 442.174 565.48 442.027 565.69 441.881L567.131 440.87C567.443 440.65 567.639 440.606 567.902 440.606C568.347 440.606 568.615 440.875 568.615 441.31V447.213C568.615 447.594 568.361 447.848 567.995 447.848V447.848Z" fill="#FF00FF"/>
<path d="M573.141 446.861C574.094 446.861 574.636 445.89 574.636 444.22C574.636 442.55 574.084 441.593 573.141 441.593C572.199 441.593 571.638 442.574 571.638 444.215C571.638 445.855 572.184 446.861 573.141 446.861ZM573.141 447.892C571.403 447.892 570.368 446.48 570.368 444.22C570.368 441.959 571.413 440.562 573.141 440.562C574.87 440.562 575.905 441.959 575.905 444.215C575.905 446.471 574.875 447.892 573.141 447.892Z" fill="#FF00FF"/>
<path fill-rule="evenodd" clip-rule="evenodd" d="M520.39 464.616C521.057 464.231 521.057 463.269 520.39 462.884L516.64 460.719C515.973 460.334 515.14 460.815 515.14 461.585L515.14 465.915C515.14 466.685 515.973 467.166 516.64 466.781L520.39 464.616ZM512.888 464.616C513.555 464.231 513.555 463.269 512.888 462.884L509.138 460.719C508.472 460.334 507.638 460.815 507.638 461.585L507.638 465.915C507.638 466.685 508.472 467.166 509.138 466.781L512.888 464.616Z" fill="#FF00FF"/>
<path d="M509.205 447.833C508.814 447.833 508.575 447.594 508.575 447.179V441.358C508.575 440.948 508.814 440.704 509.205 440.704H512.574C512.921 440.704 513.15 440.909 513.15 441.236C513.15 441.563 512.916 441.769 512.574 441.769H509.977C509.898 441.769 509.835 441.832 509.835 441.91V443.707C509.835 443.785 509.898 443.849 509.977 443.849H512.32C512.652 443.849 512.872 444.044 512.872 444.361C512.872 444.679 512.652 444.874 512.32 444.874H509.977C509.898 444.874 509.835 444.937 509.835 445.016V447.179C509.835 447.594 509.601 447.833 509.205 447.833V447.833Z" fill="#FF00FF"/>
<path d="M519.034 442.125C519.293 442.667 519.424 443.341 519.424 444.141C519.424 446.49 518.35 447.891 516.559 447.891C515.484 447.891 514.765 447.475 514.429 446.897C514.35 446.755 514.316 446.633 514.316 446.497C514.316 446.209 514.521 445.989 514.853 445.989C515.102 445.989 515.259 446.106 515.454 446.355C515.756 446.677 516.041 446.866 516.563 446.866C517.741 446.866 518.067 445.634 518.156 445.042C518.173 444.93 518.056 444.844 517.954 444.894C517.616 445.058 516.953 445.328 516.256 445.328C514.899 445.328 513.947 444.351 513.947 443.018C513.947 441.588 515.055 440.558 516.578 440.558C517.677 440.558 518.546 441.095 519.034 442.125H519.034ZM515.187 442.969C515.182 443.78 515.772 444.356 516.583 444.356C517.393 444.356 518.004 443.78 518.004 442.994C518.004 442.208 517.384 441.583 516.598 441.583C515.812 441.583 515.187 442.198 515.187 442.969Z" fill="#FF00FF"/>
<path fill-rule="evenodd" clip-rule="evenodd" d="M615.725 775.756C615.333 775.756 615.015 776.074 615.015 776.466C615.015 776.858 615.333 777.176 615.725 777.176H619C619.138 777.176 619.268 777.244 619.346 777.358L621.803 780.937C622.146 781.437 622.714 781.736 623.32 781.736H628.275C628.667 781.736 628.985 781.418 628.985 781.026C628.985 780.634 628.667 780.316 628.275 780.316H623.32C623.182 780.316 623.052 780.248 622.974 780.134L620.517 776.555C620.174 776.055 619.606 775.756 619 775.756H615.725ZM623.975 775.756C623.583 775.756 623.265 776.074 623.265 776.466C623.265 776.858 623.583 777.176 623.975 777.176H628.275C628.667 777.176 628.985 776.858 628.985 776.466C628.985 776.074 628.667 775.756 628.275 775.756H623.975Z" fill="#FF00FF"/>
<path fill-rule="evenodd" clip-rule="evenodd" d="M615.725 775.756C615.333 775.756 615.015 776.074 615.015 776.466C615.015 776.858 615.333 777.176 615.725 777.176H619C619.138 777.176 619.268 777.244 619.346 777.358L621.803 780.937C622.146 781.437 622.714 781.736 623.32 781.736H628.275C628.667 781.736 628.985 781.418 628.985 781.026C628.985 780.634 628.667 780.316 628.275 780.316H623.32C623.182 780.316 623.052 780.248 622.974 780.134L620.517 776.555C620.174 776.055 619.606 775.756 619 775.756H615.725ZM623.975 775.756C623.583 775.756 623.265 776.074 623.265 776.466C623.265 776.858 623.583 777.176 623.975 777.176H628.275C628.667 777.176 628.985 776.858 628.985 776.466C628.985 776.074 628.667 775.756 628.275 775.756H623.975Z" fill="#FF00FF"/>
<path fill-rule="evenodd" clip-rule="evenodd" d="M698.811 773.177C698.047 773.177 697.427 773.797 697.427 774.561C697.427 775.326 698.047 775.945 698.811 775.945H700.056C700.133 775.945 700.196 775.883 700.196 775.805V774.561C700.196 773.797 699.576 773.177 698.811 773.177ZM701.756 775.945C701.678 775.945 701.616 775.883 701.616 775.805V774.561C701.616 773.012 700.36 771.757 698.811 771.757C697.263 771.757 696.007 773.012 696.007 774.561C696.007 776.11 697.262 777.365 698.811 777.365H700.056C700.133 777.365 700.196 777.428 700.196 777.505V779.994C700.196 780.071 700.133 780.134 700.056 780.134H698.811C697.263 780.134 696.007 781.39 696.007 782.938C696.007 784.487 697.263 785.743 698.811 785.743C700.36 785.743 701.616 784.487 701.616 782.938V781.694C701.616 781.617 701.678 781.554 701.756 781.554H704.244C704.321 781.554 704.384 781.617 704.384 781.694L704.384 782.938C704.384 784.487 705.64 785.743 707.189 785.743C708.737 785.743 709.993 784.487 709.993 782.938C709.993 781.39 708.737 780.134 707.189 780.134H705.944C705.867 780.134 705.804 780.071 705.804 779.994V777.505C705.804 777.428 705.867 777.365 705.944 777.365H707.189C708.737 777.365 709.993 776.11 709.993 774.561C709.993 773.012 708.737 771.757 707.189 771.757C705.64 771.757 704.384 773.012 704.384 774.561V775.805C704.384 775.883 704.322 775.945 704.244 775.945H701.756ZM701.756 777.365C701.678 777.365 701.616 777.428 701.616 777.505V779.994C701.616 780.071 701.678 780.134 701.756 780.134H704.244C704.321 780.134 704.384 780.071 704.384 779.994L704.384 777.505C704.384 777.428 704.322 777.365 704.244 777.365H701.756ZM705.944 781.554C705.867 781.554 705.804 781.617 705.804 781.694V782.938C705.804 783.703 706.424 784.323 707.189 784.323C707.953 784.323 708.573 783.703 708.573 782.938C708.573 782.174 707.953 781.554 707.189 781.554H705.944ZM705.804 775.805C705.804 775.883 705.867 775.945 705.944 775.945H707.189C707.953 775.945 708.573 775.326 708.573 774.561C708.573 773.797 707.953 773.177 707.189 773.177C706.424 773.177 705.804 773.797 705.804 774.561V775.805ZM700.196 781.694C700.196 781.617 700.133 781.554 700.056 781.554H698.811C698.047 781.554 697.427 782.174 697.427 782.938C697.427 783.703 698.047 784.323 698.811 784.323C699.576 784.323 700.196 783.703 700.196 782.938V781.694Z" fill="#FF00FF"/>
<path fill-rule="evenodd" clip-rule="evenodd" d="M156.725 775.756C156.333 775.756 156.015 776.074 156.015 776.466C156.015 776.858 156.333 777.176 156.725 777.176H160C160.138 777.176 160.268 777.244 160.346 777.358L162.803 780.937C163.146 781.437 163.714 781.736 164.32 781.736H169.275C169.667 781.736 169.985 781.418 169.985 781.026C169.985 780.634 169.667 780.316 169.275 780.316H164.32C164.182 780.316 164.052 780.248 163.974 780.134L161.517 776.555C161.174 776.055 160.606 775.756 160 775.756H156.725ZM164.975 775.756C164.583 775.756 164.265 776.074 164.265 776.466C164.265 776.858 164.583 777.176 164.975 777.176H169.275C169.667 777.176 169.985 776.858 169.985 776.466C169.985 776.074 169.667 775.756 169.275 775.756H164.975Z" fill="#FF00FF"/>
<path fill-rule="evenodd" clip-rule="evenodd" d="M156.725 775.756C156.333 775.756 156.015 776.074 156.015 776.466C156.015 776.858 156.333 777.176 156.725 777.176H160C160.138 777.176 160.268 777.244 160.346 777.358L162.803 780.937C163.146 781.437 163.714 781.736 164.32 781.736H169.275C169.667 781.736 169.985 781.418 169.985 781.026C169.985 780.634 169.667 780.316 169.275 780.316H164.32C164.182 780.316 164.052 780.248 163.974 780.134L161.517 776.555C161.174 776.055 160.606 775.756 160 775.756H156.725ZM164.975 775.756C164.583 775.756 164.265 776.074 164.265 776.466C164.265 776.858 164.583 777.176 164.975 777.176H169.275C169.667 777.176 169.985 776.858 169.985 776.466C169.985 776.074 169.667 775.756 169.275 775.756H164.975Z" fill="#FF00FF"/>
<path fill-rule="evenodd" clip-rule="evenodd" d="M104.811 773.177C104.047 773.177 103.427 773.797 103.427 774.561C103.427 775.326 104.047 775.945 104.811 775.945H106.056C106.133 775.945 106.196 775.883 106.196 775.805V774.561C106.196 773.797 105.576 773.177 104.811 773.177ZM107.756 775.945C107.678 775.945 107.616 775.883 107.616 775.805V774.561C107.616 773.012 106.36 771.757 104.811 771.757C103.263 771.757 102.007 773.012 102.007 774.561C102.007 776.11 103.263 777.365 104.811 777.365H106.056C106.133 777.365 106.196 777.428 106.196 777.505V779.994C106.196 780.071 106.133 780.134 106.056 780.134H104.811C103.263 780.134 102.007 781.39 102.007 782.938C102.007 784.487 103.263 785.743 104.811 785.743C106.36 785.743 107.616 784.487 107.616 782.938V781.694C107.616 781.617 107.678 781.554 107.756 781.554H110.244C110.321 781.554 110.384 781.617 110.384 781.694L110.384 782.938C110.384 784.487 111.64 785.743 113.189 785.743C114.737 785.743 115.993 784.487 115.993 782.938C115.993 781.39 114.737 780.134 113.189 780.134H111.944C111.867 780.134 111.804 780.071 111.804 779.994V777.505C111.804 777.428 111.867 777.365 111.944 777.365H113.189C114.737 777.365 115.993 776.11 115.993 774.561C115.993 773.012 114.737 771.757 113.189 771.757C111.64 771.757 110.384 773.012 110.384 774.561V775.805C110.384 775.883 110.322 775.945 110.244 775.945H107.756ZM107.756 777.365C107.678 777.365 107.616 777.428 107.616 777.505V779.994C107.616 780.071 107.678 780.134 107.756 780.134H110.244C110.321 780.134 110.384 780.071 110.384 779.994L110.384 777.505C110.384 777.428 110.322 777.365 110.244 777.365H107.756ZM111.944 781.554C111.867 781.554 111.804 781.617 111.804 781.694V782.938C111.804 783.703 112.424 784.323 113.189 784.323C113.953 784.323 114.573 783.703 114.573 782.938C114.573 782.174 113.953 781.554 113.189 781.554H111.944ZM111.804 775.805C111.804 775.883 111.867 775.945 111.944 775.945H113.189C113.953 775.945 114.573 775.326 114.573 774.561C114.573 773.797 113.953 773.177 113.189 773.177C112.424 773.177 111.804 773.797 111.804 774.561V775.805ZM106.196 781.694C106.196 781.617 106.133 781.554 106.056 781.554H104.811C104.047 781.554 103.427 782.174 103.427 782.938C103.427 783.703 104.047 784.323 104.811 784.323C105.576 784.323 106.196 783.703 106.196 782.938V781.694Z" fill="#FF00FF"/>
<path d="M20.6759 338.761C20.6759 339.195 20.4031 339.468 19.9752 339.468C19.5411 339.468 19.2745 339.195 19.2745 338.761V337.921C19.2745 337.844 19.2118 337.781 19.1345 337.781H17.5691C17.1599 337.781 16.8746 337.521 16.8746 337.143C16.8746 336.764 17.1599 336.504 17.5691 336.504H19.1345C19.2118 336.504 19.2745 336.441 19.2745 336.364V335.574C19.2745 335.14 19.5411 334.867 19.969 334.867C20.4031 334.867 20.6759 335.14 20.6759 335.574V336.364C20.6759 336.441 20.7386 336.504 20.8159 336.504H22.4371C22.8525 336.504 23.1316 336.764 23.1316 337.143C23.1316 337.521 22.8525 337.781 22.4371 337.781H20.8159C20.7386 337.781 20.6759 337.844 20.6759 337.921V338.761ZM16.8746 340.659C16.8746 340.268 17.1227 340.02 17.5877 340.02H22.4371C22.9021 340.02 23.1502 340.268 23.1502 340.659C23.1502 341.043 22.9021 341.297 22.4371 341.297H17.5877C17.1227 341.297 16.8746 341.043 16.8746 340.659Z" fill="#FF00FF"/>
<path d="M19.9573 360.144C20.6273 360.144 21.0273 359.804 21.0273 359.304C21.0273 358.754 20.4873 358.574 19.3873 358.264C18.1873 357.924 17.4673 357.434 17.4673 356.424C17.4673 355.714 17.8273 355.254 18.3373 354.934C18.4273 354.884 18.4173 354.754 18.3373 354.694C17.8173 354.334 17.5273 353.854 17.5273 353.184C17.5273 351.924 18.6273 351.124 20.0373 351.124C20.6673 351.124 21.2773 351.294 21.7273 351.594C22.1273 351.844 22.3773 352.184 22.3673 352.534C22.3573 352.884 22.0573 353.114 21.7273 353.094C21.5273 353.074 21.3773 352.984 21.1373 352.764C20.7673 352.434 20.4673 352.274 20.0373 352.274C19.4073 352.274 19.0073 352.624 19.0073 353.104C19.0073 353.654 19.5873 353.864 20.6173 354.154C21.8973 354.504 22.5673 354.944 22.5673 355.974C22.5673 356.664 22.2373 357.174 21.7473 357.554C21.6673 357.614 21.6773 357.734 21.7473 357.784C22.2673 358.144 22.5173 358.554 22.5173 359.184C22.5173 360.514 21.3673 361.314 19.9573 361.314C19.4273 361.314 18.8673 361.194 18.4473 360.974C17.9073 360.714 17.5473 360.304 17.5473 359.884C17.5473 359.534 17.8473 359.284 18.1873 359.304C18.3873 359.314 18.5273 359.404 18.7673 359.634C19.0973 359.974 19.4673 360.154 19.9473 360.154L19.9573 360.144ZM20.0173 357.164C20.0173 357.164 20.2573 357.224 20.3873 357.254C20.4573 357.274 20.5373 357.254 20.5973 357.224C20.8973 357.044 21.1173 356.674 21.1173 356.284C21.1173 355.754 20.7373 355.454 19.9873 355.294C19.9573 355.294 19.7773 355.254 19.6673 355.224C19.6073 355.214 19.5473 355.224 19.4973 355.244C19.1673 355.404 18.9073 355.824 18.9073 356.204C18.9073 356.704 19.2673 356.994 20.0173 357.174V357.164Z" fill="#FF00FF"/>
<path fill-rule="evenodd" clip-rule="evenodd" d="M334.311 125.177C333.547 125.177 332.927 125.797 332.927 126.561C332.927 127.326 333.547 127.945 334.311 127.945H335.556C335.633 127.945 335.696 127.883 335.696 127.805V126.561C335.696 125.797 335.076 125.177 334.311 125.177ZM337.256 127.945C337.178 127.945 337.116 127.883 337.116 127.805V126.561C337.116 125.012 335.86 123.757 334.311 123.757C332.763 123.757 331.507 125.012 331.507 126.561C331.507 128.11 332.762 129.365 334.311 129.365H335.556C335.633 129.365 335.696 129.428 335.696 129.505V131.994C335.696 132.071 335.633 132.134 335.556 132.134H334.311C332.763 132.134 331.507 133.39 331.507 134.938C331.507 136.487 332.763 137.743 334.311 137.743C335.86 137.743 337.116 136.487 337.116 134.938V133.694C337.116 133.617 337.178 133.554 337.256 133.554H339.744C339.821 133.554 339.884 133.617 339.884 133.694L339.884 134.938C339.884 136.487 341.14 137.743 342.689 137.743C344.237 137.743 345.493 136.487 345.493 134.938C345.493 133.39 344.237 132.134 342.689 132.134H341.444C341.367 132.134 341.304 132.071 341.304 131.994V129.505C341.304 129.428 341.367 129.365 341.444 129.365H342.689C344.237 129.365 345.493 128.11 345.493 126.561C345.493 125.012 344.237 123.757 342.689 123.757C341.14 123.757 339.884 125.012 339.884 126.561V127.805C339.884 127.883 339.822 127.945 339.744 127.945H337.256ZM337.256 129.365C337.178 129.365 337.116 129.428 337.116 129.505V131.994C337.116 132.071 337.178 132.134 337.256 132.134H339.744C339.821 132.134 339.884 132.071 339.884 131.994L339.884 129.505C339.884 129.428 339.822 129.365 339.744 129.365H337.256ZM341.444 133.554C341.367 133.554 341.304 133.617 341.304 133.694V134.938C341.304 135.703 341.924 136.323 342.689 136.323C343.453 136.323 344.073 135.703 344.073 134.938C344.073 134.174 343.453 133.554 342.689 133.554H341.444ZM341.304 127.805C341.304 127.883 341.367 127.945 341.444 127.945H342.689C343.453 127.945 344.073 127.326 344.073 126.561C344.073 125.797 343.453 125.177 342.689 125.177C341.924 125.177 341.304 125.797 341.304 126.561V127.805ZM335.696 133.694C335.696 133.617 335.633 133.554 335.556 133.554H334.311C333.547 133.554 332.927 134.174 332.927 134.938C332.927 135.703 333.547 136.323 334.311 136.323C335.076 136.323 335.696 135.703 335.696 134.938V133.694Z" fill="#FF00FF"/>
<path fill-rule="evenodd" clip-rule="evenodd" d="M548.225 73.7559C547.833 73.7559 547.515 74.0737 547.515 74.4659C547.515 74.858 547.833 75.1759 548.225 75.1759H551.5C551.638 75.1759 551.768 75.2441 551.846 75.3582L554.303 78.9371C554.646 79.4371 555.214 79.7359 555.82 79.7359H560.775C561.167 79.7359 561.485 79.418 561.485 79.0259C561.485 78.6337 561.167 78.3159 560.775 78.3159H555.82C555.682 78.3159 555.552 78.2477 555.474 78.1335L553.017 74.5546C552.674 74.0546 552.106 73.7559 551.5 73.7559H548.225ZM556.475 73.7559C556.083 73.7559 555.765 74.0737 555.765 74.4659C555.765 74.858 556.083 75.1759 556.475 75.1759H560.775C561.167 75.1759 561.485 74.858 561.485 74.4659C561.485 74.0737 561.167 73.7559 560.775 73.7559H556.475Z" fill="#FF00FF"/>
<rect x="743.5" y="702" width="67.5" height="54" stroke="#00FFFF"/>
<rect x="676" y="702" width="67.5" height="54" stroke="#00FFFF"/>
<rect x="608.5" y="702" width="67.5" height="54" stroke="#00FFFF"/>
<rect x="541" y="702" width="67.5" height="54" stroke="#00FFFF"/>
<rect x="136" y="702" width="67.5" height="54" stroke="#00FFFF"/>
<rect x="68.5" y="702" width="67.5" height="54" stroke="#00FFFF"/>
<rect x="1" y="702" width="67.5" height="54" stroke="#00FFFF"/>
<rect x="662.5" y="648" width="148.5" height="54" stroke="#00FFFF"/>
<rect x="1" y="648" width="121.5" height="54" stroke="#00FFFF"/>
<rect x="689.5" y="594" width="121.5" height="54" stroke="#00FFFF"/>
<rect x="1" y="594" width="94.5" height="54" stroke="#00FFFF"/>
<rect x="1" y="540" width="81" height="54" stroke="#00FFFF"/>
<rect x="703" y="486" width="108" height="54" stroke="#00FFFF"/>
<rect x="608.5" y="648" width="54" height="54" stroke="#00FFFF"/>
<rect x="554.5" y="648" width="54" height="54" stroke="#00FFFF"/>
<rect x="500.5" y="648" width="54" height="54" stroke="#00FFFF"/>
<rect x="446.5" y="648" width="54" height="54" stroke="#00FFFF"/>
<rect x="392.5" y="648" width="54" height="54" stroke="#00FFFF"/>
<rect x="338.5" y="648" width="54" height="54" stroke="#00FFFF"/>
<rect x="284.5" y="648" width="54" height="54" stroke="#00FFFF"/>
<rect x="230.5" y="648" width="54" height="54" stroke="#00FFFF"/>
<rect x="176.5" y="648" width="54" height="54" stroke="#00FFFF"/>
<rect x="122.5" y="648" width="54" height="54" stroke="#00FFFF"/>
<rect x="635.5" y="594" width="54" height="54" stroke="#00FFFF"/>
<rect x="581.5" y="594" width="54" height="54" stroke="#00FFFF"/>
<rect x="527.5" y="594" width="54" height="54" stroke="#00FFFF"/>
<rect x="473.5" y="594" width="54" height="54" stroke="#00FFFF"/>
<rect x="419.5" y="594" width="54" height="54" stroke="#00FFFF"/>
<rect x="365.5" y="594" width="54" height="54" stroke="#00FFFF"/>
<rect x="311.5" y="594" width="54" height="54" stroke="#00FFFF"/>
<rect x="257.5" y="594" width="54" height="54" stroke="#00FFFF"/>
<rect x="203.5" y="594" width="54" height="54" stroke="#00FFFF"/>
<rect x="149.5" y="594" width="54" height="54" stroke="#00FFFF"/>
<rect x="95.5" y="594" width="54" height="54" stroke="#00FFFF"/>
<rect x="730" y="540" width="81" height="54" stroke="#00FFFF"/>
<rect x="676" y="540" width="54" height="54" stroke="#00FFFF"/>
<rect x="622" y="540" width="54" height="54" stroke="#00FFFF"/>
<rect x="568" y="540" width="54" height="54" stroke="#00FFFF"/>
<rect x="514" y="540" width="54" height="54" stroke="#00FFFF"/>
<rect x="460" y="540" width="54" height="54" stroke="#00FFFF"/>
<rect x="406" y="540" width="54" height="54" stroke="#00FFFF"/>
<rect x="352" y="540" width="54" height="54" stroke="#00FFFF"/>
<rect x="298" y="540" width="54" height="54" stroke="#00FFFF"/>
<rect x="244" y="540" width="54" height="54" stroke="#00FFFF"/>
<rect x="190" y="540" width="54" height="54" stroke="#00FFFF"/>
<rect x="136" y="540" width="54" height="54" stroke="#00FFFF"/>
<rect x="82" y="540" width="54" height="54" stroke="#00FFFF"/>
<rect x="55" y="486" width="54" height="54" stroke="#00FFFF"/>
<rect x="109" y="486" width="54" height="54" stroke="#00FFFF"/>
<rect x="163" y="486" width="54" height="54" stroke="#00FFFF"/>
<rect x="217" y="486" width="54" height="54" stroke="#00FFFF"/>
<rect x="271" y="486" width="54" height="54" stroke="#00FFFF"/>
<rect x="325" y="486" width="54" height="54" stroke="#00FFFF"/>
<rect x="379" y="486" width="54" height="54" stroke="#00FFFF"/>
<rect x="433" y="486" width="54" height="54" stroke="#00FFFF"/>
<rect x="487" y="486" width="54" height="54" stroke="#00FFFF"/>
<rect x="541" y="486" width="54" height="54" stroke="#00FFFF"/>
<rect x="595" y="486" width="54" height="54" stroke="#00FFFF"/>
<rect x="649" y="486" width="54" height="54" stroke="#00FFFF"/>
<rect x="1" y="486" width="54" height="54" stroke="#00FFFF"/>
<rect x="217" y="432" width="54" height="54" stroke="#00FFFF"/>
<rect x="163" y="432" width="54" height="54" stroke="#00FFFF"/>
<rect x="109" y="432" width="54" height="54" stroke="#00FFFF"/>
<rect x="55" y="432" width="54" height="54" stroke="#00FFFF"/>
<rect x="433" y="432" width="54" height="54" stroke="#00FFFF"/>
<rect x="379" y="432" width="54" height="54" stroke="#00FFFF"/>
<rect x="325" y="432" width="54" height="54" stroke="#00FFFF"/>
<rect x="271" y="432" width="54" height="54" stroke="#00FFFF"/>
<rect x="649" y="432" width="54" height="54" stroke="#00FFFF"/>
<rect x="595" y="432" width="54" height="54" stroke="#00FFFF"/>
<rect x="541" y="432" width="54" height="54" stroke="#00FFFF"/>
<rect x="487" y="432" width="54" height="54" stroke="#00FFFF"/>
<rect x="541" y="378" width="54" height="54" stroke="#00FFFF"/>
<rect x="487" y="378" width="54" height="54" stroke="#00FFFF"/>
<rect x="433" y="378" width="54" height="54" stroke="#00FFFF"/>
<rect x="487" y="324" width="54" height="54" stroke="#00FFFF"/>
<rect x="703" y="378" width="54" height="54" stroke="#00FFFF"/>
<rect x="595" y="378" width="108" height="54" stroke="#00FFFF"/>
<rect x="757" y="324" width="54" height="108" stroke="#00FFFF"/>
<rect x="703" y="324" width="54" height="54" stroke="#00FFFF"/>
<rect x="649" y="324" width="54" height="54" stroke="#00FFFF"/>
<rect x="595" y="324" width="54" height="54" stroke="#00FFFF"/>
<rect x="703" y="270" width="54" height="54" stroke="#00FFFF"/>
<rect x="595" y="270" width="54" height="54" stroke="#00FFFF"/>
<rect x="757" y="216" width="54" height="108" stroke="#00FFFF"/>
<rect x="703" y="216" width="54" height="54" stroke="#00FFFF"/>
<rect x="649" y="216" width="54" height="54" stroke="#00FFFF"/>
<rect x="595" y="216" width="54" height="54" stroke="#00FFFF"/>
<rect x="757" y="162" width="54" height="54" stroke="#00FFFF"/>
<rect x="703" y="162" width="54" height="54" stroke="#00FFFF"/>
<rect x="649" y="162" width="54" height="54" stroke="#00FFFF"/>
<rect x="595" y="162" width="54" height="54" stroke="#00FFFF"/>
<rect x="649" y="270" width="54" height="54" stroke="#00FFFF"/>
<rect x="541" y="162" width="54" height="54" stroke="#00FFFF"/>
<rect x="487" y="162" width="54" height="54" stroke="#00FFFF"/>
<rect x="433" y="162" width="54" height="54" stroke="#00FFFF"/>
<rect x="541" y="216" width="54" height="54" stroke="#00FFFF"/>
<rect x="487" y="216" width="54" height="54" stroke="#00FFFF"/>
<rect x="433" y="216" width="54" height="54" stroke="#00FFFF"/>
<rect x="541" y="270" width="54" height="54" stroke="#00FFFF"/>
<rect x="487" y="270" width="54" height="54" stroke="#00FFFF"/>
<rect x="433" y="270" width="54" height="54" stroke="#00FFFF"/>
<rect x="595" y="756" width="81" height="54" stroke="#00FFFF"/>
<rect x="676" y="756" width="54" height="54" stroke="#00FFFF"/>
<rect x="730" y="756" width="81" height="54" stroke="#00FFFF"/>
<rect x="136" y="756" width="81" height="54" stroke="#00FFFF"/>
<rect x="82" y="756" width="54" height="54" stroke="#00FFFF"/>
<rect x="1" y="756" width="81" height="54" stroke="#00FFFF"/>
<rect x="1" y="432" width="54" height="54" stroke="#00FFFF"/>
<rect x="757" y="432" width="54" height="54" stroke="#00FFFF"/>
<rect x="703" y="432" width="54" height="54" stroke="#00FFFF"/>
<rect x="541" y="324" width="54" height="54" stroke="#00FFFF"/>
<rect x="433" y="324" width="54" height="54" stroke="#00FFFF"/>
<rect x="379" y="324" width="54" height="54" stroke="#00FFFF"/>
<rect x="379" y="378" width="54" height="54" stroke="#00FFFF"/>
<rect x="298" y="378" width="81" height="54" stroke="#00FFFF"/>
<rect x="298" y="324" width="81" height="54" stroke="#00FFFF"/>
<rect x="217" y="324" width="81" height="108" stroke="#00FFFF"/>
<rect x="176.5" y="378" width="54" height="54" stroke="#00FFFF"/>
<rect x="122.5" y="378" width="54" height="54" stroke="#00FFFF"/>
<rect x="68.5" y="378" width="54" height="54" stroke="#00FFFF"/>
<rect x="1" y="378" width="67.5" height="54" stroke="#00FFFF"/>
<rect x="109" y="324" width="54" height="54" stroke="#00FFFF"/>
<rect x="55" y="324" width="54" height="54" stroke="#00FFFF"/>
<rect x="1" y="324" width="54" height="54" stroke="#00FFFF"/>
<rect x="163" y="324" width="54" height="54" stroke="#00FFFF"/>
<rect x="271" y="270" width="94.5" height="54" stroke="#00FFFF"/>
<rect x="365.5" y="270" width="67.5" height="54" stroke="#00FFFF"/>
<rect x="217" y="270" width="54" height="54" stroke="#00FFFF"/>
<rect x="163" y="270" width="54" height="54" stroke="#00FFFF"/>
<rect x="95.5" y="270" width="67.5" height="54" stroke="#00FFFF"/>
<rect x="1" y="270" width="94.5" height="54" stroke="#00FFFF"/>
<rect x="379" y="162" width="54" height="54" stroke="#00FFFF"/>
<rect x="271" y="162" width="54" height="54" stroke="#00FFFF"/>
<rect x="163" y="162" width="108" height="54" stroke="#00FFFF"/>
<rect x="95.5" y="162" width="67.5" height="54" stroke="#00FFFF"/>
<rect x="217" y="216" width="54" height="54" stroke="#00FFFF"/>
<rect x="163" y="216" width="54" height="54" stroke="#00FFFF"/>
<rect x="95.5" y="216" width="67.5" height="54" stroke="#00FFFF"/>
<rect x="1" y="216" width="94.5" height="54" stroke="#00FFFF"/>
<rect x="1" y="162" width="94.5" height="54" stroke="#00FFFF"/>
<rect x="730" y="54" width="81" height="108" stroke="#00FFFF"/>
<rect x="635.5" y="108" width="54" height="54" stroke="#00FFFF"/>
<rect x="554.5" y="108" width="81" height="54" stroke="#00FFFF"/>
<rect x="446.5" y="108" width="108" height="54" stroke="#00FFFF"/>
<rect x="311.5" y="108" width="81" height="54" stroke="#00FFFF"/>
<rect x="257.5" y="108" width="54" height="54" stroke="#00FFFF"/>
<rect x="163" y="108" width="94.5" height="54" stroke="#00FFFF"/>
<rect x="82" y="108" width="81" height="54" stroke="#00FFFF"/>
<rect x="1" y="108" width="81" height="54" stroke="#00FFFF"/>
<rect x="635.5" y="54" width="94.5" height="54" stroke="#00FFFF"/>
<rect x="527.5" y="54" width="54" height="54" stroke="#00FFFF"/>
<rect x="473.5" y="54" width="54" height="54" stroke="#00FFFF"/>
<rect x="392.5" y="54" width="81" height="54" stroke="#00FFFF"/>
</svg>
