<svg width="812" height="812" viewBox="0 0 812 812" fill="none" xmlns="http://www.w3.org/2000/svg">
<path d="M462.995 668.987C462.3 668.987 461.94 668.556 461.94 667.73V658.335C461.94 657.377 462.476 656.797 463.328 656.797C464.093 656.797 464.541 657.158 464.954 658.239L467.688 665C467.735 665.118 467.903 665.118 467.951 665L470.675 658.23C471.089 657.14 471.528 656.797 472.31 656.797C473.18 656.797 473.681 657.36 473.681 658.335V667.73C473.681 668.538 473.294 668.987 472.6 668.987C471.915 668.987 471.554 668.556 471.554 667.73V661.448C471.554 661.292 471.34 661.25 471.281 661.394L469.041 666.886C468.716 667.712 468.355 667.976 467.819 667.976C467.274 667.976 466.914 667.695 466.589 666.886L464.348 661.394C464.29 661.25 464.075 661.292 464.075 661.448V667.73C464.075 668.538 463.689 668.987 462.995 668.987Z" fill="#FF00FF"/>
<path d="M410.163 667.73C410.163 668.521 409.759 668.987 409.056 668.987C408.353 668.987 407.94 668.512 407.94 667.73V658.247C407.94 657.307 408.353 656.815 409.161 656.815C409.733 656.815 410.067 657.14 410.559 657.87L415 664.633C415.078 664.751 415.26 664.696 415.26 664.556V658.072C415.26 657.281 415.665 656.815 416.368 656.815C417.071 656.815 417.493 657.29 417.493 658.072V667.607C417.493 668.503 417.088 668.987 416.333 668.987C415.761 668.987 415.427 668.749 414.909 667.967L410.424 661.125C410.346 661.007 410.163 661.062 410.163 661.202V667.73Z" fill="#FF00FF"/>
<path d="M360.716 662.507C360.716 662.447 360.753 662.393 360.81 662.372C361.867 661.983 362.492 661.072 362.492 659.856C362.492 658.045 361.121 656.903 358.941 656.903H355.522C354.459 656.903 353.94 657.413 353.94 658.423V667.38C353.94 668.399 354.459 668.9 355.522 668.9H358.932C361.472 668.9 363.107 667.573 363.107 665.516C363.107 664.019 362.222 662.935 360.831 662.648C360.764 662.634 360.716 662.576 360.716 662.507ZM356.295 658.829C356.295 658.751 356.359 658.687 356.437 658.687H358.396C359.504 658.687 360.154 659.285 360.154 660.26C360.154 661.306 359.451 661.895 357.86 661.895H356.437C356.359 661.895 356.295 661.832 356.295 661.753V658.829ZM358.053 667.116H356.437C356.359 667.116 356.295 667.053 356.295 666.974V663.689C356.295 663.611 356.359 663.548 356.437 663.548H358.546C359.934 663.548 360.69 664.242 360.69 665.376C360.69 666.518 359.925 667.116 358.053 667.116Z" fill="#FF00FF"/>
<path d="M304.423 665.989C304.465 666.121 304.652 666.12 304.694 665.988L307.208 657.966C307.454 657.131 307.815 656.789 308.448 656.789C309.124 656.789 309.616 657.219 309.616 657.852C309.616 658.089 309.537 658.485 309.432 658.81L306.461 667.334C306.075 668.494 305.521 668.986 304.546 668.986C303.553 668.986 302.981 668.485 302.595 667.334L299.633 658.81C299.51 658.449 299.44 658.107 299.44 657.861C299.44 657.228 299.941 656.789 300.626 656.789C301.241 656.789 301.628 657.158 301.874 657.966L304.423 665.989Z" fill="#FF00FF"/>
<path d="M245.44 663.635V662.097C245.44 658.696 247.277 656.674 250.45 656.674C251.97 656.674 253.271 657.14 254.124 657.984C254.712 658.564 255.073 659.285 255.073 659.821C255.073 660.418 254.668 660.805 254.088 660.805C253.667 660.805 253.368 660.638 252.99 660.172C252.322 659.17 251.592 658.713 250.582 658.713C248.815 658.713 247.822 659.979 247.822 662.194V663.556C247.822 665.859 248.797 667.116 250.582 667.116C251.601 667.116 252.401 666.659 253.034 665.674C253.412 665.208 253.675 665.05 254.08 665.05C254.686 665.05 255.082 665.437 255.082 666.026C255.082 666.659 254.633 667.432 253.93 668.021C253.086 668.75 251.9 669.155 250.45 669.155C247.242 669.155 245.44 667.151 245.44 663.635Z" fill="#FF00FF"/>
<path d="M191.44 667.915C191.44 667.651 191.545 667.405 191.818 667.019L194.646 663.017C194.715 662.919 194.715 662.787 194.645 662.689L191.835 658.766C191.572 658.414 191.458 658.142 191.458 657.861C191.458 657.246 191.95 656.789 192.618 656.789C193.083 656.789 193.33 656.973 193.848 657.711L196.186 661.197C196.242 661.281 196.367 661.28 196.422 661.195L198.691 657.711C199.165 656.991 199.429 656.789 199.903 656.789C200.554 656.789 201.037 657.246 201.037 657.861C201.037 658.133 200.932 658.379 200.659 658.757L197.774 662.781C197.702 662.881 197.704 663.017 197.778 663.116L200.694 667.019C200.958 667.361 201.064 667.634 201.064 667.915C201.064 668.53 200.571 668.987 199.903 668.987C199.446 668.987 199.236 668.829 198.673 668.064L196.303 664.676C196.246 664.595 196.125 664.596 196.069 664.678L193.787 668.064C193.268 668.803 193.031 668.987 192.574 668.987C191.915 668.987 191.44 668.53 191.44 667.915Z" fill="#FF00FF"/>
<path d="M137.44 667.697C137.44 667.24 137.625 666.906 138.46 665.808L143.401 659.071C143.47 658.977 143.403 658.846 143.287 658.846H138.662C138.055 658.846 137.651 658.459 137.651 657.879C137.651 657.29 138.064 656.903 138.662 656.903H144.965C145.738 656.903 146.222 657.351 146.222 658.072C146.222 658.538 146.019 658.916 145.193 660.023L140.338 666.734C140.27 666.828 140.337 666.959 140.453 666.959H145.483C146.072 666.959 146.485 667.355 146.485 667.935C146.485 668.506 146.063 668.902 145.474 668.902H138.741C137.967 668.902 137.44 668.41 137.44 667.697Z" fill="#FF00FF"/>
<path d="M550.542 613.889C550.542 614.496 550.103 614.9 549.479 614.9H544.522C543.458 614.9 542.94 614.399 542.94 613.379V604.098C542.94 603.29 543.371 602.815 544.126 602.815C544.874 602.815 545.313 603.29 545.313 604.098V612.738C545.313 612.816 545.376 612.878 545.453 612.878H549.479C550.103 612.878 550.542 613.292 550.542 613.889Z" fill="#FF00FF"/>
<path d="M497.018 614.953C496.57 614.953 496.192 614.715 495.796 614.17L492.678 609.817C492.626 609.745 492.522 609.737 492.461 609.8L491.393 610.897C491.342 610.95 491.313 611.021 491.313 611.095V613.705C491.313 614.522 490.891 614.988 490.144 614.988C489.388 614.988 488.94 614.513 488.94 613.705V604.097C488.94 603.289 489.371 602.814 490.127 602.814C490.874 602.814 491.313 603.289 491.313 604.097L491.287 607.966C491.286 608.096 491.445 608.159 491.533 608.064L495.858 603.412C496.218 603.007 496.508 602.849 496.851 602.849C497.448 602.849 497.906 603.306 497.906 603.886C497.906 604.194 497.791 604.414 497.413 604.818L494.425 608.064C494.379 608.114 494.374 608.189 494.414 608.243L497.642 612.659C498.073 613.239 498.178 613.485 498.178 613.819C498.178 614.487 497.703 614.953 497.018 614.953Z" fill="#FF00FF"/>
<path d="M439.792 604.133C439.792 603.29 440.214 602.815 440.97 602.815C441.735 602.815 442.174 603.29 442.174 604.133V611.033C442.174 613.643 440.689 615.155 438.131 615.155C436.804 615.155 435.741 614.786 435.082 614.083C434.677 613.661 434.44 613.133 434.44 612.606C434.44 611.964 434.835 611.551 435.433 611.551C435.855 611.551 436.11 611.745 436.391 612.131C436.787 612.729 437.332 613.107 438.131 613.107C439.212 613.107 439.792 612.448 439.792 611.068V604.133Z" fill="#FF00FF"/>
<path d="M389.536 614.988C388.789 614.988 388.349 614.513 388.349 613.705V609.89C388.349 609.812 388.286 609.75 388.209 609.75H383.453C383.376 609.75 383.313 609.812 383.313 609.89V613.705C383.313 614.513 382.874 614.988 382.126 614.988C381.371 614.988 380.94 614.513 380.94 613.705V604.098C380.94 603.29 381.371 602.815 382.126 602.815C382.874 602.815 383.313 603.29 383.313 604.098V607.658C383.313 607.736 383.376 607.798 383.453 607.798H388.209C388.286 607.798 388.349 607.736 388.349 607.658V604.098C388.349 603.29 388.789 602.815 389.536 602.815C390.292 602.815 390.731 603.29 390.731 604.098V613.705C390.731 614.513 390.292 614.988 389.536 614.988Z" fill="#FF00FF"/>
<path d="M326.44 609.758V608.027C326.44 604.705 328.321 602.674 331.458 602.674C332.856 602.674 334.034 603.07 334.886 603.808C335.607 604.397 336.082 605.153 336.082 605.786C336.082 606.375 335.677 606.77 335.106 606.77C334.763 606.77 334.526 606.638 334.271 606.313C333.568 605.381 332.821 604.713 331.617 604.713C329.806 604.713 328.822 605.909 328.822 608.124V609.75C328.822 611.938 329.841 613.168 331.643 613.168C333.084 613.168 334.051 612.307 334.051 611.024V610.408C334.051 610.331 333.989 610.268 333.911 610.268H332.452C331.801 610.268 331.423 609.943 331.423 609.372C331.423 608.8 331.792 608.484 332.452 608.484H334.851C335.862 608.484 336.31 608.932 336.31 609.917V610.883C336.31 613.397 334.359 615.155 331.555 615.155C328.347 615.155 326.44 613.133 326.44 609.758Z" fill="#FF00FF"/>
<path d="M274.144 614.988C273.388 614.988 272.94 614.513 272.94 613.705V604.423C272.94 603.413 273.458 602.903 274.522 602.903H279.734C280.332 602.903 280.745 603.307 280.745 603.887C280.745 604.476 280.332 604.863 279.734 604.863H275.453C275.376 604.863 275.313 604.925 275.313 605.003V608.071C275.313 608.149 275.376 608.211 275.453 608.211H279.286C279.901 608.211 280.296 608.589 280.296 609.169C280.296 609.75 279.892 610.127 279.286 610.127H275.453C275.376 610.127 275.313 610.19 275.313 610.267V613.705C275.313 614.522 274.891 614.988 274.144 614.988Z" fill="#FF00FF"/>
<path fill-rule="evenodd" clip-rule="evenodd" d="M218.94 613.379V604.423C218.94 603.404 219.467 602.903 220.522 602.903H223.317C226.824 602.903 228.678 604.977 228.678 608.906C228.678 612.826 226.824 614.9 223.317 614.9H220.522C219.467 614.9 218.94 614.399 218.94 613.379ZM221.313 612.818C221.313 612.895 221.376 612.958 221.453 612.958H223.018C225.224 612.958 226.252 611.657 226.252 608.906C226.252 606.137 225.215 604.836 223.018 604.836H221.453C221.376 604.836 221.313 604.899 221.313 604.976V612.818Z" fill="#FF00FF"/>
<path d="M164.44 612.43C164.44 611.833 164.853 611.411 165.389 611.411C165.785 611.411 166.11 611.578 166.532 612.035C167.208 612.817 168.105 613.221 169.151 613.221C170.557 613.221 171.357 612.659 171.357 611.683C171.357 610.875 170.794 610.374 169.494 610.066L167.701 609.626C165.635 609.152 164.607 608.053 164.607 606.313C164.607 604.107 166.347 602.674 169.019 602.674C170.452 602.674 171.735 603.087 172.526 603.817C173.071 604.309 173.361 604.872 173.361 605.425C173.361 605.979 172.974 606.357 172.403 606.357C172.034 606.357 171.717 606.199 171.436 605.847C170.9 605.047 170.091 604.599 169.054 604.599C167.806 604.599 167.006 605.197 167.006 606.128C167.006 606.875 167.551 607.403 168.667 607.658L170.469 608.088C172.667 608.589 173.704 609.653 173.704 611.419C173.704 613.705 171.884 615.155 169.019 615.155C167.463 615.155 166.083 614.724 165.292 613.977C164.739 613.467 164.44 612.931 164.44 612.43Z" fill="#FF00FF"/>
<path d="M111.54 615.006C110.89 615.006 110.44 614.606 110.44 614.016C110.44 613.776 110.5 613.506 110.65 613.056L113.68 604.386C114.06 603.266 114.59 602.806 115.6 602.806C116.61 602.806 117.12 603.266 117.5 604.386L120.52 613.056C120.64 613.436 120.7 613.726 120.7 613.966C120.7 614.596 120.25 615.006 119.58 615.006C118.94 615.006 118.57 614.676 118.33 613.856L117.69 611.916C117.67 611.856 117.62 611.816 117.56 611.816H113.56C113.5 611.816 113.44 611.856 113.43 611.916L112.79 613.856C112.54 614.686 112.19 615.006 111.56 615.006H111.54ZM114.16 610.046H116.94C117.04 610.046 117.1 609.956 117.08 609.866L115.7 605.446C115.66 605.316 115.47 605.316 115.43 605.446L114.04 609.866C114.01 609.956 114.08 610.046 114.18 610.046H114.16Z" fill="#FF00FF"/>
<path fill-rule="evenodd" clip-rule="evenodd" d="M584.618 560.988C583.871 560.988 583.44 560.513 583.44 559.705V550.634C583.44 549.386 583.915 548.903 585.154 548.903H588.186C590.682 548.903 592.291 550.467 592.291 552.84C592.291 555.319 590.665 556.787 588.089 556.787H585.953C585.876 556.787 585.813 556.849 585.813 556.927V559.705C585.813 560.513 585.374 560.988 584.618 560.988ZM585.813 554.801C585.813 554.878 585.876 554.941 585.953 554.941H587.333C589.179 554.941 589.926 554.405 589.926 552.875C589.926 551.557 589.188 550.801 587.887 550.801H585.953C585.876 550.801 585.813 550.864 585.813 550.941V554.801Z" fill="#FF00FF"/>
<path d="M528.94 555.741V554.176C528.94 550.757 530.856 548.674 534.038 548.674C537.237 548.674 539.135 550.757 539.135 554.176V555.741C539.135 559.116 537.237 561.155 534.038 561.155C530.821 561.155 528.94 559.116 528.94 555.741ZM531.313 554.167V555.732C531.313 557.894 532.341 559.168 534.038 559.168C535.734 559.168 536.762 557.894 536.762 555.732V554.167C536.762 551.979 535.734 550.661 534.038 550.661C532.341 550.661 531.313 551.979 531.313 554.167Z" fill="#FF00FF"/>
<path d="M476.635 560.988C475.879 560.988 475.44 560.513 475.44 559.705V550.098C475.44 549.29 475.871 548.815 476.626 548.815C477.374 548.815 477.813 549.29 477.813 550.098V559.705C477.813 560.513 477.382 560.988 476.635 560.988Z" fill="#FF00FF"/>
<path d="M431.134 556.769C431.134 559.423 429.218 561.155 426.292 561.155C423.259 561.155 421.44 559.406 421.44 556.751V550.081C421.44 549.29 421.888 548.815 422.626 548.815C423.365 548.815 423.822 549.29 423.822 550.081V556.523C423.822 558.14 424.753 559.116 426.292 559.116C427.812 559.116 428.752 558.123 428.752 556.523V550.081C428.752 549.29 429.201 548.815 429.939 548.815C430.677 548.815 431.134 549.29 431.134 550.081V556.769Z" fill="#FF00FF"/>
<path d="M371.643 560.989C370.904 560.989 370.43 560.497 370.447 559.776L370.482 556.191C370.482 556.139 370.468 556.087 370.44 556.042L367.309 550.881C367.037 550.424 366.94 550.16 366.94 549.87C366.94 549.219 367.379 548.789 368.039 548.789C368.549 548.789 368.883 549.043 369.225 549.694L371.51 553.856C371.564 553.954 371.704 553.954 371.758 553.857L374.077 549.694C374.42 549.07 374.781 548.789 375.273 548.789C375.897 548.789 376.345 549.228 376.345 549.835C376.345 550.125 376.231 550.406 375.932 550.916L372.827 556.042C372.8 556.087 372.786 556.139 372.786 556.191L372.82 559.776C372.838 560.497 372.363 560.989 371.643 560.989Z" fill="#FF00FF"/>
<path d="M318.186 560.988C317.448 560.988 317 560.513 317 559.722V551.038C317 550.961 316.937 550.898 316.86 550.898H314.459C313.871 550.898 313.44 550.476 313.44 549.905C313.44 549.325 313.871 548.903 314.459 548.903H321.921C322.519 548.903 322.941 549.316 322.941 549.905C322.941 550.485 322.519 550.898 321.921 550.898H319.513C319.435 550.898 319.373 550.961 319.373 551.038V559.722C319.373 560.504 318.916 560.988 318.186 560.988Z" fill="#FF00FF"/>
<path fill-rule="evenodd" clip-rule="evenodd" d="M261.813 559.705C261.813 560.513 261.382 560.988 260.635 560.988C259.879 560.988 259.44 560.513 259.44 559.705V550.713C259.44 549.465 259.985 548.903 261.233 548.903H264.3C266.867 548.903 268.458 550.309 268.458 552.577C268.458 554.043 267.73 555.223 266.481 555.81C266.406 555.845 266.374 555.936 266.414 556.009L268.08 559.063C268.211 559.3 268.291 559.599 268.291 559.854C268.291 560.496 267.79 560.953 267.113 560.953C266.489 560.953 266.155 560.689 265.759 559.916L264.07 556.588C264.023 556.494 263.926 556.435 263.821 556.435H261.953C261.876 556.435 261.813 556.498 261.813 556.575V559.705ZM261.813 554.52C261.813 554.597 261.876 554.66 261.953 554.66H263.958C265.302 554.66 266.076 553.992 266.076 552.761C266.076 551.54 265.293 550.845 263.984 550.845H261.953C261.876 550.845 261.813 550.908 261.813 550.985V554.52Z" fill="#FF00FF"/>
<path d="M205.44 559.379V550.423C205.44 549.413 205.958 548.903 207.022 548.903H212.331C212.928 548.903 213.333 549.298 213.333 549.878C213.333 550.458 212.928 550.845 212.331 550.845H207.935C207.858 550.845 207.795 550.908 207.795 550.985V553.781C207.795 553.859 207.858 553.921 207.935 553.921H212.084C212.647 553.921 213.025 554.282 213.025 554.835C213.025 555.389 212.647 555.741 212.084 555.741H207.935C207.858 555.741 207.795 555.803 207.795 555.881V558.818C207.795 558.895 207.858 558.958 207.935 558.958H212.304C212.928 558.958 213.333 559.344 213.333 559.933C213.333 560.522 212.928 560.9 212.304 560.9H207.022C205.958 560.9 205.44 560.399 205.44 559.379Z" fill="#FF00FF"/>
<path d="M151.94 559.678L149.453 550.775C149.374 550.476 149.33 550.151 149.33 549.958C149.33 549.272 149.822 548.789 150.525 548.789C151.167 548.789 151.562 549.219 151.765 550.124L153.4 557.27C153.433 557.416 153.64 557.417 153.676 557.272L155.421 550.116C155.641 549.193 156.027 548.789 156.73 548.789C157.442 548.789 157.838 549.21 158.057 550.116L159.801 557.267C159.837 557.413 160.045 557.411 160.077 557.265L161.67 550.124C161.863 549.237 162.276 548.789 162.927 548.789C163.621 548.789 164.104 549.263 164.104 549.94C164.104 550.142 164.069 550.458 164.016 550.661L161.529 559.678C161.274 560.592 160.87 560.952 160.14 560.952C159.376 560.952 158.91 560.566 158.664 559.625L156.872 552.852C156.835 552.711 156.635 552.711 156.598 552.852L154.806 559.678C154.577 560.539 154.102 560.952 153.373 560.952C152.652 560.952 152.213 560.645 151.94 559.678Z" fill="#FF00FF"/>
<path d="M73.2561 501.29L73.1258 496.918C73.1072 496.434 73.4855 496.043 74.0002 496.043C74.5149 496.043 74.8994 496.434 74.8808 496.918L74.7319 501.29C74.7133 501.705 74.3971 501.997 74.0002 501.997C73.5909 501.997 73.2685 501.693 73.2561 501.29ZM73.0576 504C73.0576 503.485 73.4793 503.125 73.994 503.125C74.5149 503.125 74.9366 503.485 74.9366 504C74.9366 504.514 74.5149 504.874 73.994 504.874C73.4793 504.874 73.0576 504.514 73.0576 504Z" fill="#FF00FF"/>
<path d="M73.9471 521.919V516.149C73.9471 516.029 73.8171 515.969 73.7271 516.029L73.0671 516.499C72.8271 516.659 72.6771 516.719 72.5171 516.729C72.1671 516.749 71.8871 516.509 71.8671 516.159C71.8571 515.889 72.0171 515.649 72.3471 515.429L73.4571 514.659C73.9071 514.359 74.2571 514.229 74.6071 514.229C75.2071 514.229 75.6071 514.649 75.6071 515.269V521.919C75.6071 522.489 75.3071 522.819 74.7771 522.819C74.2471 522.819 73.9571 522.489 73.9571 521.919H73.9471Z" fill="#FF00FF"/>
<path d="M182 504.062L182.289 502.636C182.306 502.549 182.24 502.468 182.151 502.468H181.011C180.944 502.468 180.887 502.515 180.874 502.58L180.53 504.285C180.456 504.669 180.214 504.874 179.885 504.874C179.544 504.874 179.315 504.645 179.315 504.291C179.315 504.217 179.321 504.13 179.333 504.062L179.627 502.636C179.645 502.549 179.579 502.468 179.49 502.468H179.166C178.707 502.468 178.465 502.232 178.465 501.86C178.465 501.501 178.707 501.271 179.166 501.271H179.783C179.85 501.271 179.907 501.224 179.92 501.158L180.181 499.845C180.198 499.758 180.132 499.677 180.044 499.677H179.761C179.302 499.677 179.061 499.436 179.061 499.07C179.061 498.704 179.302 498.474 179.761 498.474H180.342C180.408 498.474 180.465 498.428 180.479 498.362L180.803 496.775C180.871 496.409 181.107 496.211 181.411 496.211C181.764 496.211 182.019 496.465 182.019 496.806C182.019 496.868 182.006 496.949 181.994 497.017L181.73 498.306C181.713 498.393 181.779 498.474 181.868 498.474H183.002C183.068 498.474 183.126 498.428 183.139 498.362L183.463 496.775C183.538 496.416 183.774 496.211 184.09 496.211C184.437 496.211 184.685 496.465 184.685 496.806C184.685 496.868 184.679 496.949 184.667 497.017L184.398 498.306C184.38 498.393 184.446 498.474 184.535 498.474H184.939C185.398 498.474 185.628 498.698 185.628 499.063C185.628 499.442 185.392 499.677 184.927 499.677H184.242C184.175 499.677 184.118 499.724 184.104 499.79L183.805 501.271H184.344C184.803 501.271 185.032 501.488 185.032 501.86C185.032 502.232 184.797 502.468 184.332 502.468H183.677C183.611 502.468 183.553 502.515 183.54 502.58L183.197 504.285C183.122 504.669 182.887 504.874 182.564 504.874C182.217 504.874 181.975 504.638 181.975 504.291C181.975 504.217 181.988 504.13 182 504.062ZM181.495 499.56C181.428 499.56 181.37 499.607 181.357 499.672L181.048 501.221C181.03 501.308 181.096 501.389 181.185 501.389H182.53C182.597 501.389 182.654 501.342 182.667 501.276L182.972 499.727C182.989 499.64 182.923 499.56 182.834 499.56H181.495Z" fill="#FF00FF"/>
<path d="M178.995 520.964C178.995 520.574 179.275 520.284 179.655 520.284C179.925 520.284 180.135 520.414 180.365 520.754C180.725 521.324 181.275 521.624 181.975 521.624C182.905 521.624 183.505 521.124 183.505 520.354C183.505 519.584 182.895 519.064 181.975 519.064H181.365C180.995 519.064 180.725 518.784 180.725 518.404C180.725 518.024 180.995 517.754 181.365 517.754H181.945C182.705 517.754 183.265 517.254 183.265 516.574C183.265 515.894 182.715 515.424 181.935 515.424C181.325 515.424 180.845 515.714 180.515 516.264C180.325 516.574 180.115 516.704 179.825 516.704C179.425 516.704 179.145 516.424 179.145 516.024C179.145 515.034 180.345 514.124 181.955 514.124C183.665 514.124 184.865 515.044 184.865 516.374C184.865 517.124 184.405 517.854 183.775 518.164C183.665 518.224 183.665 518.374 183.785 518.414C184.575 518.704 185.125 519.504 185.125 520.414C185.125 521.894 183.815 522.934 181.945 522.934C180.275 522.934 178.985 521.994 178.985 520.964H178.995Z" fill="#FF00FF"/>
<path d="M236.012 505.816C235.727 505.816 235.479 505.661 235.479 505.289V504.927C235.479 504.855 235.424 504.794 235.352 504.786C234.541 504.691 233.818 504.417 233.346 503.987C232.968 503.658 232.757 503.28 232.757 502.914C232.757 502.499 233.042 502.257 233.42 502.257C233.656 502.257 233.83 502.325 234.146 502.641C234.704 503.243 235.318 503.522 236.056 503.522C237.042 503.522 237.594 503.075 237.594 502.369C237.594 501.823 237.215 501.5 236.298 501.283L235.039 500.992C233.625 500.676 232.887 499.876 232.887 498.673C232.887 497.333 233.856 496.386 235.389 496.2C235.461 496.191 235.516 496.131 235.516 496.058V495.69C235.516 495.318 235.764 495.169 236.043 495.169C236.329 495.169 236.577 495.324 236.577 495.69V496.081C236.577 496.152 236.629 496.211 236.699 496.222C237.424 496.334 238.064 496.612 238.499 497.023C238.846 497.364 239.051 497.742 239.051 498.09C239.051 498.449 238.784 498.691 238.437 498.691C238.152 498.691 237.941 498.586 237.668 498.301C237.129 497.699 236.645 497.463 235.95 497.463C235.095 497.463 234.549 497.922 234.549 498.555C234.549 499.082 234.933 499.442 235.721 499.615L236.98 499.9C238.512 500.235 239.249 500.979 239.249 502.207C239.249 503.598 238.26 504.564 236.665 504.778C236.594 504.788 236.54 504.847 236.54 504.919V505.289C236.54 505.661 236.292 505.816 236.012 505.816Z" fill="#FF00FF"/>
<path d="M234.445 519.817H236.665C236.745 519.817 236.805 519.757 236.805 519.677V515.957C236.805 515.817 236.625 515.757 236.545 515.877C235.845 516.997 234.695 518.967 234.325 519.607C234.275 519.697 234.345 519.817 234.445 519.817ZM236.805 521.977V521.327C236.805 521.247 236.745 521.187 236.665 521.187H233.715C233.085 521.187 232.695 520.847 232.695 520.267C232.695 519.997 232.765 519.757 232.995 519.287C233.705 517.947 234.365 516.817 235.465 515.187C235.985 514.427 236.385 514.167 237.025 514.167C237.865 514.167 238.365 514.617 238.365 515.347V519.667C238.365 519.747 238.425 519.807 238.505 519.807H238.775C239.225 519.807 239.495 520.077 239.495 520.497C239.495 520.917 239.225 521.167 238.775 521.167H238.505C238.425 521.167 238.365 521.227 238.365 521.307V521.957C238.365 522.487 238.065 522.807 237.575 522.807C237.085 522.807 236.795 522.487 236.795 521.957L236.805 521.977Z" fill="#FF00FF"/>
<path d="M285.591 498.27V498.028C285.591 496.843 286.261 496.037 287.352 496.037C288.443 496.037 289.088 496.831 289.088 498.028V498.27C289.088 499.411 288.437 500.266 287.321 500.266C286.242 500.266 285.591 499.46 285.591 498.27ZM286.614 504.086L289.659 500.167L292.536 496.403C292.722 496.149 292.958 496.124 293.156 496.217C293.355 496.26 293.497 496.428 293.504 496.632C293.51 496.769 293.454 496.905 293.348 497.042L290.477 500.75L287.426 504.731C287.234 504.985 286.992 504.998 286.8 504.911C286.626 504.874 286.471 504.713 286.465 504.527C286.453 504.39 286.502 504.235 286.614 504.086ZM286.763 498.059V498.239C286.763 498.939 286.986 499.299 287.34 499.299C287.687 499.299 287.91 498.939 287.91 498.239V498.059C287.91 497.358 287.687 497.004 287.34 497.004C286.986 497.004 286.763 497.358 286.763 498.059ZM290.911 502.852V502.61C290.911 501.426 291.587 500.62 292.679 500.62C293.77 500.62 294.409 501.414 294.409 502.61V502.852C294.409 503.993 293.758 504.855 292.648 504.855C291.563 504.855 290.911 504.043 290.911 502.852ZM292.083 502.641V502.821C292.083 503.522 292.313 503.888 292.66 503.888C293.007 503.888 293.237 503.522 293.237 502.821V502.641C293.237 501.947 293.014 501.587 292.66 501.587C292.307 501.587 292.083 501.941 292.083 502.641Z" fill="#FF00FF"/>
<path d="M287.042 521.029C287.042 520.609 287.312 520.289 287.722 520.289C287.982 520.289 288.182 520.399 288.382 520.689C288.762 521.259 289.252 521.549 289.862 521.559C290.742 521.579 291.422 521.019 291.492 520.139C291.572 519.149 290.912 518.449 289.972 518.449C289.552 518.449 289.132 518.609 288.772 518.889C288.402 519.199 288.222 519.269 287.992 519.269C287.482 519.269 287.132 518.899 287.172 518.329L287.412 515.149C287.452 514.559 287.812 514.279 288.492 514.279H292.002C292.502 514.279 292.792 514.529 292.792 514.969C292.792 515.409 292.502 515.649 292.002 515.649H288.922C288.852 515.649 288.782 515.709 288.782 515.779L288.642 517.549C288.632 517.679 288.772 517.749 288.872 517.659C289.242 517.329 289.852 517.169 290.412 517.169C292.022 517.169 293.132 518.289 293.132 519.919C293.132 521.719 291.832 522.929 289.912 522.929C288.232 522.929 287.042 521.979 287.042 521.029Z" fill="#FF00FF"/>
<path fill-rule="evenodd" clip-rule="evenodd" d="M600.674 600.475C599.795 600.475 599.136 601.099 599.136 601.837C599.136 602.224 599.338 602.443 599.698 602.443C600.032 602.443 600.199 602.285 600.296 602.039C600.402 601.749 600.551 601.573 600.771 601.573C600.955 601.573 601.149 601.705 601.421 601.951C601.773 602.259 602.124 602.47 602.739 602.47C603.583 602.47 604.242 601.863 604.242 601.134C604.242 600.721 604.04 600.483 603.671 600.483C603.381 600.483 603.214 600.65 603.126 600.879C603.038 601.151 602.871 601.354 602.669 601.354C602.476 601.354 602.282 601.239 601.992 600.967C601.667 600.677 601.28 600.475 600.674 600.475ZM598.056 614.987C598.759 614.987 599.163 614.521 599.163 613.73V607.202C599.163 607.062 599.346 607.007 599.424 607.125L603.909 613.967C604.427 614.749 604.761 614.987 605.333 614.987C606.088 614.987 606.493 614.503 606.493 613.607V604.072C606.493 603.29 606.071 602.815 605.368 602.815C604.665 602.815 604.26 603.281 604.26 604.072V610.556C604.26 610.696 604.078 610.751 604 610.634L599.559 603.87C599.067 603.14 598.733 602.815 598.161 602.815C597.353 602.815 596.94 603.307 596.94 604.247V613.73C596.94 614.512 597.353 614.987 598.056 614.987Z" fill="#FF00FF"/>
<path d="M116.925 574.569C117.645 574.569 118.115 573.969 118.115 572.999C118.115 572.029 117.655 571.459 116.935 571.459C116.215 571.459 115.785 572.039 115.785 573.009C115.785 573.979 116.205 574.569 116.925 574.569ZM111.945 572.999C111.945 569.849 114.075 567.789 117.155 567.789C120.065 567.789 122.135 569.619 122.135 572.429C122.135 574.299 121.235 575.599 119.765 575.599C118.932 575.599 118.565 575.23 118.413 574.984C118.362 574.901 118.245 574.893 118.183 574.969C117.984 575.214 117.533 575.599 116.665 575.599C115.385 575.599 114.515 574.539 114.515 572.979C114.515 571.419 115.375 570.419 116.605 570.419C117.332 570.419 117.759 570.677 117.982 570.879C118.059 570.95 118.185 570.913 118.213 570.812C118.222 570.78 118.233 570.748 118.247 570.718C118.328 570.553 118.486 570.419 118.765 570.419C119.125 570.419 119.345 570.639 119.345 571.029V573.959C119.345 574.389 119.575 574.639 119.995 574.639C120.645 574.639 121.085 573.769 121.085 572.529C121.085 570.079 119.365 568.709 117.145 568.709C114.645 568.709 112.985 570.469 112.985 573.029C112.985 575.589 114.755 577.209 117.415 577.209C117.975 577.209 118.365 577.139 118.855 577.019C118.955 576.999 119.035 576.999 119.105 576.999C119.385 576.999 119.545 577.149 119.545 577.379C119.545 577.609 119.415 577.779 119.065 577.899C118.635 578.039 117.995 578.139 117.215 578.139C114.135 578.139 111.945 576.199 111.945 572.989V572.999Z" fill="#FF00FF"/>
<path fill-rule="evenodd" clip-rule="evenodd" d="M105.518 562.271C105.043 562.271 104.674 562.025 104.279 561.462L103.901 560.948C103.864 560.899 103.8 560.879 103.741 560.898C103.238 561.062 102.673 561.155 102.046 561.155C98.812 561.155 96.9399 559.116 96.9399 555.741V554.176C96.9399 550.757 98.856 548.674 102.046 548.674C105.202 548.674 107.153 550.757 107.153 554.176V555.741C107.153 557.478 106.666 558.794 105.805 559.689C105.757 559.739 105.75 559.816 105.791 559.872L106.151 560.373C106.432 560.786 106.494 561.005 106.494 561.278C106.494 561.832 106.098 562.271 105.518 562.271ZM99.313 555.855C99.313 557.964 100.315 559.23 101.95 559.283C102.158 559.283 102.361 559.252 102.547 559.194C102.634 559.168 102.662 559.063 102.608 558.99L102.407 558.72C102.257 558.492 102.152 558.237 102.152 557.991C102.152 557.472 102.53 557.085 103.057 557.085C103.338 557.085 103.593 557.208 103.848 557.507L104.078 557.831C104.133 557.91 104.249 557.91 104.3 557.829C104.601 557.347 104.771 556.746 104.771 555.855V554.167C104.771 551.979 103.646 550.661 102.046 550.661C100.35 550.661 99.313 551.979 99.313 554.167V555.855Z" fill="#FF00FF"/>
<path d="M669.228 496.998C669.228 497.513 668.806 497.873 668.292 497.873C667.777 497.873 667.349 497.513 667.349 496.998C667.349 496.484 667.777 496.124 668.292 496.124C668.806 496.124 669.228 496.484 669.228 496.998ZM665.278 502.722C665.278 501.761 665.805 501.234 666.599 500.645C667.2 500.186 667.405 499.969 667.554 499.442C667.702 499.082 667.864 498.834 668.298 498.834C668.763 498.834 668.999 499.119 668.999 499.566C668.999 500.285 668.713 500.676 667.87 501.333C667.237 501.829 666.94 502.096 666.94 502.61C666.94 503.28 667.473 503.658 668.192 503.658C668.769 503.658 669.154 503.441 669.464 502.921C669.65 502.66 669.798 502.548 670.059 502.548C670.45 502.548 670.667 502.827 670.667 503.162C670.667 503.565 670.419 504 670.028 504.341C669.575 504.725 668.918 504.954 668.044 504.954C666.413 504.954 665.278 504.105 665.278 502.722Z" fill="#FF00FF"/>
<path d="M668.937 514.918C668.937 515.433 668.515 515.792 667.994 515.792C667.479 515.792 667.058 515.433 667.058 514.918C667.058 514.403 667.479 514.043 667.994 514.043C668.515 514.043 668.937 514.403 668.937 514.918ZM667.107 522L667.25 517.659C667.268 517.256 667.585 516.921 667.994 516.921C668.397 516.921 668.713 517.256 668.726 517.659L668.862 522C668.887 522.489 668.502 522.88 667.988 522.88C667.473 522.88 667.095 522.489 667.107 522Z" fill="#FF00FF"/>
<path d="M557.011 500.025C557.011 499.634 557.278 499.38 557.755 499.38H562.245C562.723 499.38 562.995 499.634 562.995 500.025C562.995 500.415 562.723 500.676 562.245 500.676H557.755C557.278 500.676 557.011 500.415 557.011 500.025ZM557.011 502.642C557.011 502.251 557.278 501.997 557.755 501.997H562.245C562.723 501.997 562.995 502.245 562.995 502.642C562.995 503.032 562.723 503.293 562.245 503.293H557.755C557.278 503.293 557.011 503.032 557.011 502.642Z" fill="#FF00FF"/>
<path d="M556.769 518.725V518.328C556.769 515.786 557.984 514.124 560 514.124C562.021 514.124 563.212 515.767 563.212 518.328V518.725C563.212 521.262 561.984 522.93 559.975 522.93C557.966 522.93 556.769 521.28 556.769 518.725ZM558.443 518.335V518.713C558.443 520.499 559.026 521.565 559.987 521.565C560.949 521.565 561.532 520.499 561.532 518.713V518.335C561.532 516.555 560.949 515.488 559.987 515.488C559.026 515.488 558.443 516.549 558.443 518.335Z" fill="#FF00FF"/>
<path d="M505.659 506.319C505.405 506.641 505.182 506.728 504.977 506.728C504.611 506.728 504.351 506.48 504.351 506.145C504.351 505.947 504.419 505.786 504.499 505.606C504.902 504.75 505.492 503.336 505.492 501.191C505.492 499.15 504.902 497.736 504.499 496.881C504.419 496.701 504.351 496.54 504.351 496.341C504.351 496.006 504.611 495.758 504.977 495.758C505.182 495.758 505.405 495.845 505.659 496.168C505.988 496.583 507.16 498.245 507.16 501.191C507.16 504.242 505.988 505.903 505.659 506.319Z" fill="#FF00FF"/>
<path d="M509.218 518.392C509.218 521.291 507.988 522.911 505.778 522.911C505.038 522.911 504.348 522.721 503.838 522.381C503.408 522.091 503.148 521.701 503.148 521.381C503.148 521.011 503.418 520.751 503.798 520.751C504.028 520.751 504.198 520.821 504.488 521.051C504.918 521.421 505.298 521.581 505.778 521.581C506.791 521.581 507.472 520.829 507.608 519.166C507.619 519.037 507.465 518.963 507.371 519.05C507.042 519.355 506.409 519.801 505.518 519.801C503.958 519.801 502.868 518.682 502.868 517.062C502.868 515.292 504.098 514.112 505.938 514.112C507.018 514.112 507.888 514.532 508.448 515.332C508.958 516.042 509.218 517.082 509.218 518.392ZM507.448 517.012C507.448 516.092 506.818 515.432 505.938 515.432C505.058 515.432 504.478 516.062 504.478 517.002C504.478 517.942 505.078 518.552 505.958 518.552C506.838 518.552 507.448 517.912 507.448 517.012Z" fill="#FF00FF"/>
<path d="M452.341 506.319C452.019 505.903 450.847 504.242 450.847 501.191C450.847 498.245 452.019 496.583 452.341 496.168C452.595 495.845 452.825 495.758 453.023 495.758C453.395 495.758 453.65 496.006 453.65 496.341C453.65 496.54 453.581 496.701 453.501 496.881C453.104 497.736 452.509 499.15 452.509 501.191C452.509 503.336 453.104 504.75 453.501 505.606C453.581 505.786 453.65 505.947 453.65 506.145C453.65 506.48 453.395 506.728 453.023 506.728C452.825 506.728 452.595 506.641 452.341 506.319Z" fill="#FF00FF"/>
<path d="M451.984 522.924C450.034 522.924 448.724 521.934 448.724 520.444C448.724 519.524 449.264 518.724 450.114 518.404C450.224 518.364 450.234 518.204 450.124 518.144C449.444 517.794 449.054 517.144 449.054 516.364C449.064 515.044 450.274 514.124 452.004 514.124C453.734 514.124 454.944 515.044 454.944 516.364C454.944 517.134 454.544 517.794 453.864 518.144C453.754 518.204 453.764 518.354 453.874 518.404C454.724 518.734 455.274 519.534 455.274 520.444C455.274 521.924 453.944 522.934 451.984 522.934V522.924ZM452.004 517.764C452.784 517.764 453.344 517.254 453.344 516.544C453.344 515.834 452.784 515.344 452.004 515.344C451.224 515.344 450.664 515.844 450.664 516.544C450.664 517.244 451.224 517.764 452.004 517.764ZM452.004 521.724C452.944 521.724 453.614 521.134 453.614 520.334C453.614 519.534 452.934 518.934 452.004 518.934C451.074 518.934 450.394 519.524 450.394 520.334C450.394 521.144 451.064 521.724 452.004 521.724Z" fill="#FF00FF"/>
<path d="M397.349 506.226C397.256 506.548 396.983 506.747 396.648 506.747C396.245 506.747 395.929 506.424 395.941 506.04C395.941 505.953 395.96 505.848 395.978 505.798L398.657 496.298C398.744 495.975 399.017 495.777 399.352 495.777C399.761 495.777 400.071 496.099 400.065 496.484C400.059 496.577 400.04 496.676 400.022 496.732L397.349 506.226Z" fill="#FF00FF"/>
<path d="M396.166 522.095C396.166 521.925 396.226 521.765 396.316 521.585L399.146 515.855C399.196 515.765 399.126 515.655 399.016 515.655H395.746C395.226 515.655 394.936 515.385 394.936 514.975C394.936 514.565 395.226 514.285 395.746 514.285H400.086C400.586 514.285 400.946 514.615 400.946 515.125C400.946 515.445 400.836 515.805 400.606 516.265L397.686 522.315C397.506 522.665 397.286 522.845 396.936 522.845C396.496 522.845 396.156 522.545 396.156 522.095H396.166Z" fill="#FF00FF"/>
<path d="M340.335 502.542C340.335 501.637 340.8 500.912 341.811 500.335C341.858 500.303 341.982 500.235 342.095 500.175C342.178 500.13 342.197 500.018 342.133 499.948C341.474 499.236 341.222 498.735 341.222 498.158C341.222 497.011 342.22 496.174 343.566 496.174C344.918 496.174 345.879 496.98 345.879 498.14C345.879 498.956 345.393 499.615 344.313 500.229C344.234 500.274 344.215 500.382 344.277 500.449L345.71 502.002C345.774 502.073 345.889 502.058 345.925 501.97C346.079 501.592 346.152 501.071 346.152 500.384V500.248C346.152 499.845 346.431 499.553 346.803 499.553C347.181 499.553 347.46 499.845 347.46 500.248V500.453C347.46 501.49 347.236 502.371 346.83 502.998C346.794 503.055 346.799 503.129 346.846 503.178L347.435 503.789C347.553 503.919 347.609 504.068 347.609 504.235C347.609 504.595 347.317 504.893 346.952 504.893C346.766 504.893 346.573 504.812 346.437 504.669L345.928 504.129C345.877 504.074 345.791 504.071 345.732 504.118C345.096 504.63 344.189 504.936 343.237 504.936C341.495 504.936 340.335 503.969 340.335 502.542ZM343.313 499.506C343.356 499.549 343.423 499.559 343.476 499.529C344.222 499.117 344.515 498.764 344.515 498.239C344.515 497.668 344.124 497.271 343.553 497.271C342.989 497.271 342.586 497.668 342.586 498.239C342.586 498.643 342.774 498.967 343.313 499.506ZM342.71 501.091C342.096 501.451 341.829 501.885 341.829 502.425C341.829 503.218 342.468 503.758 343.411 503.758C343.976 503.758 344.542 503.547 344.918 503.204C344.972 503.155 344.972 503.071 344.923 503.017L343.069 500.997C343.028 500.953 342.965 500.941 342.913 500.969C342.837 501.01 342.739 501.067 342.71 501.091Z" fill="#FF00FF"/>
<path d="M341 519.27C341 516.37 342.23 514.75 344.44 514.75C345.18 514.75 345.87 514.94 346.38 515.28C346.81 515.57 347.07 515.96 347.07 516.28C347.07 516.65 346.8 516.91 346.42 516.91C346.19 516.91 346.02 516.84 345.73 516.61C345.3 516.24 344.92 516.08 344.44 516.08C343.427 516.08 342.746 516.832 342.609 518.495C342.599 518.624 342.752 518.699 342.847 518.611C343.176 518.306 343.809 517.86 344.7 517.86C346.26 517.86 347.35 518.98 347.35 520.6C347.35 522.369 346.12 523.549 344.28 523.549C343.2 523.549 342.33 523.129 341.77 522.329C341.26 521.62 341 520.58 341 519.27ZM342.77 520.65C342.77 521.569 343.4 522.229 344.28 522.229C345.16 522.229 345.74 521.599 345.74 520.66C345.74 519.72 345.14 519.11 344.26 519.11C343.38 519.11 342.77 519.75 342.77 520.65Z" fill="#FF00FF"/>
<path d="M128.589 502.361L128.471 500.519C128.44 500.097 128.751 499.75 129.197 499.75C129.644 499.75 129.947 500.103 129.916 500.519L129.799 502.361C129.774 502.714 129.526 503.006 129.191 503.006C128.856 503.006 128.608 502.714 128.589 502.361ZM126.177 502.361L126.059 500.519C126.028 500.097 126.344 499.75 126.785 499.75C127.231 499.75 127.535 500.103 127.504 500.519L127.386 502.361C127.361 502.714 127.113 503.006 126.779 503.006C126.444 503.006 126.196 502.714 126.177 502.361Z" fill="#FF00FF"/>
<path d="M125.206 523.004C125.206 522.684 125.376 522.424 125.896 521.884L128.206 519.394C128.886 518.664 129.156 518.194 129.156 517.674C129.156 516.964 128.646 516.494 127.876 516.494C127.246 516.494 126.776 516.844 126.536 517.494C126.336 517.884 126.116 518.054 125.786 518.044C125.416 518.034 125.116 517.714 125.116 517.324C125.116 516.214 126.306 515.124 127.976 515.124C129.646 515.124 130.796 516.134 130.796 517.534C130.796 518.384 130.416 519.084 129.356 520.204L127.536 522.154C127.456 522.244 127.516 522.394 127.636 522.394H130.296C130.776 522.394 131.076 522.654 131.076 523.084C131.076 523.514 130.786 523.764 130.296 523.764H126.106C125.556 523.764 125.206 523.464 125.206 523.014V523.004Z" fill="#FF00FF"/>
<path d="M714.888 569.935C714.888 570.835 714.063 571.915 712.683 571.915C711.498 571.915 710.193 570.895 709.428 570.895C708.603 570.895 708.393 571.795 707.763 571.795C707.283 571.795 707.118 571.42 707.118 571.075C707.118 570.175 707.943 569.095 709.233 569.095C710.508 569.095 711.813 570.115 712.578 570.115C713.403 570.115 713.613 569.215 714.243 569.215C714.723 569.215 714.888 569.59 714.888 569.935Z" fill="#FF00FF"/>
<path d="M694.998 556.126C694.602 556.126 694.296 555.82 694.314 555.37L694.328 554.669C694.33 554.559 694.21 554.489 694.116 554.546L693.522 554.902C693.378 554.992 693.216 555.028 693.072 555.028C692.712 555.028 692.424 554.74 692.424 554.362C692.424 554.074 692.568 553.858 692.838 553.714L693.44 553.387C693.538 553.334 693.538 553.194 693.44 553.141L692.838 552.814C692.568 552.67 692.424 552.454 692.424 552.166C692.424 551.788 692.712 551.5 693.072 551.5C693.216 551.5 693.378 551.536 693.522 551.626L694.114 551.994C694.208 552.052 694.33 551.983 694.328 551.872L694.314 551.158C694.296 550.708 694.602 550.402 694.998 550.402C695.394 550.402 695.7 550.708 695.682 551.158L695.656 551.87C695.652 551.981 695.773 552.053 695.869 551.995L696.474 551.626C696.618 551.536 696.78 551.5 696.924 551.5C697.284 551.5 697.572 551.788 697.572 552.166C697.572 552.454 697.428 552.67 697.158 552.814L696.545 553.14C696.446 553.193 696.446 553.335 696.545 553.387L697.158 553.714C697.428 553.858 697.572 554.074 697.572 554.362C697.572 554.74 697.284 555.028 696.924 555.028C696.78 555.028 696.618 554.992 696.474 554.902L695.867 554.545C695.771 554.489 695.652 554.561 695.656 554.671L695.682 555.37C695.7 555.82 695.394 556.126 694.998 556.126Z" fill="#FF00FF"/>
<path d="M695.682 576.062C695.682 576.508 695.397 576.793 694.981 576.793C694.566 576.793 694.281 576.508 694.281 576.062V574.137C694.281 574.059 694.218 573.997 694.141 573.997H692.383C691.937 573.997 691.651 573.724 691.651 573.308C691.651 572.899 691.937 572.62 692.383 572.62H694.141C694.218 572.62 694.281 572.557 694.281 572.48V570.642C694.281 570.202 694.56 569.91 694.981 569.91C695.397 569.91 695.682 570.202 695.682 570.642V572.48C695.682 572.557 695.745 572.62 695.822 572.62H697.604C698.057 572.62 698.342 572.893 698.342 573.308C698.342 573.724 698.057 573.997 697.604 573.997H695.822C695.745 573.997 695.682 574.059 695.682 574.137V576.062Z" fill="#FF00FF"/>
<path fill-rule="evenodd" clip-rule="evenodd" d="M670.009 624.121C670.28 623.85 670.72 623.85 670.991 624.121L674.083 627.213C674.354 627.484 674.354 627.924 674.083 628.195C673.812 628.466 673.372 628.466 673.101 628.195L670.599 625.693C670.544 625.638 670.456 625.638 670.401 625.693L667.899 628.195C667.628 628.466 667.188 628.466 666.917 628.195C666.646 627.924 666.646 627.484 666.917 627.213L670.009 624.121Z" fill="#FF00FF"/>
<path d="M653.186 613.705V604.819C653.186 604.186 653.558 603.839 654.196 603.839H655.939C656.367 603.839 656.602 604.081 656.602 604.453C656.602 604.819 656.367 605.06 655.939 605.06H654.888C654.811 605.06 654.748 605.123 654.748 605.2V613.323C654.748 613.4 654.811 613.463 654.888 613.463H655.939C656.367 613.463 656.602 613.705 656.602 614.077C656.602 614.443 656.367 614.685 655.939 614.685H654.196C653.558 614.685 653.186 614.337 653.186 613.705Z" fill="#FF00FF"/>
<path d="M653.47 630.489V629.019C653.47 628.079 653.16 627.969 652.83 627.869C652.54 627.779 652.28 627.599 652.28 627.129C652.28 626.619 652.58 626.449 652.85 626.369C653.15 626.279 653.47 626.159 653.47 625.229V623.999C653.47 622.409 654.36 621.839 655.64 621.839C656.16 621.839 656.6 621.929 656.6 622.469C656.6 622.829 656.41 622.959 656.01 623.039C655.53 623.139 655.02 623.179 655.02 624.249V625.679C655.02 626.359 654.78 626.799 654.33 627.009C654.22 627.059 654.22 627.209 654.33 627.269C654.79 627.499 655.03 627.979 655.03 628.659V630.269C655.03 631.349 655.54 631.389 656.02 631.479C656.42 631.559 656.61 631.689 656.61 632.039C656.61 632.369 656.35 632.639 656.02 632.659C654.54 632.779 653.48 632.229 653.48 630.489H653.47Z" fill="#FF00FF"/>
<path d="M724.422 626.895L723.27 625.576C723.143 625.42 723.064 625.205 723.064 624.98C723.064 624.492 723.465 624.082 723.953 624.082C724.207 624.082 724.461 624.15 724.695 624.492L725.623 625.898C725.711 626.035 725.789 626.201 725.789 626.377C725.789 626.816 725.428 627.178 725.018 627.178C724.773 627.178 724.568 627.061 724.422 626.895Z" fill="#FF00FF"/>
<path d="M706.404 614.077C706.404 613.705 706.633 613.463 707.061 613.463H708.118C708.195 613.463 708.258 613.4 708.258 613.323V605.2C708.258 605.123 708.195 605.06 708.118 605.06H707.061C706.633 605.06 706.404 604.819 706.404 604.453C706.404 604.081 706.633 603.839 707.061 603.839H708.804C709.449 603.839 709.821 604.186 709.821 604.819V613.705C709.821 614.337 709.449 614.685 708.804 614.685H707.061C706.633 614.685 706.404 614.443 706.404 614.077Z" fill="#FF00FF"/>
<path d="M709.53 630.499V629.029C709.53 628.089 709.84 627.979 710.17 627.879C710.46 627.789 710.72 627.609 710.72 627.139C710.72 626.629 710.42 626.459 710.15 626.379C709.85 626.289 709.53 626.169 709.53 625.239V624.009C709.53 622.419 708.64 621.849 707.36 621.849C706.84 621.849 706.4 621.939 706.4 622.479C706.4 622.839 706.59 622.969 706.99 623.049C707.47 623.149 707.98 623.189 707.98 624.259V625.689C707.98 626.369 708.22 626.809 708.67 627.019C708.78 627.069 708.78 627.219 708.67 627.279C708.21 627.509 707.97 627.989 707.97 628.669V630.279C707.97 631.359 707.46 631.399 706.98 631.489C706.58 631.569 706.39 631.699 706.39 632.049C706.39 632.379 706.65 632.649 706.98 632.669C708.46 632.789 709.52 632.239 709.52 630.499H709.53Z" fill="#FF00FF"/>
<path d="M623.774 667.015C623.774 666.637 624.047 666.389 624.519 666.389H629.994C630.472 666.389 630.745 666.637 630.745 667.015C630.745 667.393 630.472 667.635 629.994 667.635H624.519C624.047 667.635 623.774 667.399 623.774 667.015Z" fill="#FF00FF"/>
<path d="M625.095 681.277C625.095 680.837 625.399 680.552 625.932 680.552H628.574C629.107 680.552 629.405 680.837 629.405 681.271C629.405 681.711 629.107 682.003 628.574 682.003H625.932C625.393 682.003 625.095 681.711 625.095 681.277Z" fill="#FF00FF"/>
<path d="M572.298 661.715C572.298 661.188 572.732 660.753 573.259 660.753C573.786 660.753 574.22 661.188 574.22 661.715C574.22 662.242 573.786 662.676 573.259 662.676C572.732 662.676 572.298 662.242 572.298 661.715ZM572.298 665.919C572.298 665.392 572.732 664.958 573.259 664.958C573.786 664.958 574.22 665.392 574.22 665.919C574.22 666.452 573.786 666.886 573.259 666.886C572.732 666.886 572.298 666.452 572.298 665.919Z" fill="#FF00FF"/>
<path d="M572.292 683.919C572.292 683.392 572.726 682.958 573.253 682.958C573.786 682.958 574.221 683.392 574.221 683.919C574.221 684.452 573.786 684.887 573.253 684.887C572.726 684.887 572.292 684.452 572.292 683.919Z" fill="#FF00FF"/>
<path d="M518.298 661.715C518.298 661.188 518.732 660.753 519.259 660.753C519.793 660.753 520.221 661.188 520.221 661.715C520.221 662.242 519.793 662.676 519.259 662.676C518.732 662.676 518.298 662.242 518.298 661.715ZM518.1 667.941L518.509 665.975C518.577 665.566 518.906 665.324 519.272 665.324C519.774 665.324 520.14 665.826 519.997 666.279L519.34 668.213C519.253 668.523 519.005 668.691 518.714 668.691C518.292 668.691 518.025 668.319 518.1 667.941Z" fill="#FF00FF"/>
<path d="M518.335 685.68L518.745 683.721C518.819 683.287 519.16 683.063 519.52 683.063C520.028 683.063 520.382 683.541 520.233 684.025L519.576 685.959C519.489 686.269 519.247 686.437 518.949 686.437C518.534 686.437 518.261 686.09 518.335 685.68Z" fill="#FF00FF"/>
<path d="M20.006 501.23C19.1502 501.23 18.4805 500.56 18.4805 499.704C18.4805 498.855 19.144 498.185 20.006 498.185C20.8555 498.185 21.5252 498.855 21.5252 499.704C21.5252 500.56 20.8555 501.23 20.006 501.23ZM20.006 500.38C20.3842 500.38 20.6695 500.07 20.6695 499.704C20.6695 499.326 20.3842 499.035 20.006 499.035C19.6463 499.035 19.3362 499.326 19.3362 499.704C19.3362 500.07 19.6401 500.38 20.006 500.38Z" fill="#FF00FF"/>
<path d="M19.2622 523.928V514.595C19.2622 514.044 19.5847 513.777 20.0001 513.777C20.4156 513.777 20.7381 514.044 20.7381 514.595V523.928C20.7381 524.48 20.4156 524.747 20.0001 524.747C19.5847 524.747 19.2622 524.48 19.2622 523.928Z" fill="#FF00FF"/>
<path d="M629.349 524.226C629.256 524.548 628.983 524.747 628.648 524.747C628.245 524.747 627.929 524.424 627.941 524.04C627.941 523.953 627.96 523.848 627.978 523.798L630.657 514.298C630.744 513.975 631.017 513.777 631.352 513.777C631.761 513.777 632.071 514.099 632.065 514.484C632.059 514.577 632.04 514.676 632.022 514.732L629.349 524.226Z" fill="#FF00FF"/>
<path d="M612.965 501.55C612.965 500.818 613.256 500.403 614.093 499.746C614.695 499.274 615.029 498.977 615.029 498.431C615.029 497.823 614.49 497.42 613.808 497.42C613.213 497.42 612.803 497.65 612.506 498.158C612.313 498.412 612.165 498.53 611.904 498.53C611.513 498.53 611.296 498.251 611.296 497.91C611.296 497.501 611.538 497.067 611.91 496.738C612.363 496.353 613.039 496.124 613.919 496.124C615.55 496.124 616.685 496.974 616.685 498.356C616.685 499.318 616.158 499.845 615.364 500.434C614.763 500.893 614.558 501.11 614.416 501.631C614.261 501.997 614.099 502.245 613.665 502.245C613.213 502.245 612.965 501.947 612.965 501.55ZM612.729 504C612.729 503.485 613.151 503.125 613.665 503.125C614.18 503.125 614.608 503.485 614.608 504C614.608 504.514 614.18 504.874 613.665 504.874C613.151 504.874 612.729 504.514 612.729 504Z" fill="#FF00FF"/>
<path d="M613.374 519.361L613.262 517.519C613.231 517.097 613.535 516.75 613.994 516.75C614.446 516.75 614.744 517.103 614.719 517.519L614.608 519.361C614.583 519.714 614.322 520.012 613.987 520.012C613.653 520.012 613.392 519.714 613.374 519.361Z" fill="#FF00FF"/>
<path d="M639.108 550.645C639.108 550.223 639.406 549.926 639.803 549.926C640.212 549.926 640.516 550.223 640.516 550.645C640.516 551.048 640.212 551.34 639.803 551.34C639.406 551.34 639.108 551.048 639.108 550.645ZM641.483 550.645C641.483 550.223 641.775 549.926 642.172 549.926C642.587 549.926 642.897 550.223 642.897 550.645C642.897 551.048 642.587 551.34 642.172 551.34C641.775 551.34 641.483 551.048 641.483 550.645Z" fill="#FF00FF"/>
<path d="M639.779 572.377C639.779 572.201 639.848 572.035 639.945 571.898L640.863 570.492C641.098 570.15 641.352 570.082 641.605 570.082C642.094 570.082 642.494 570.492 642.494 570.98C642.494 571.205 642.416 571.42 642.289 571.576L641.146 572.895C640.99 573.061 640.785 573.178 640.551 573.178C640.131 573.178 639.779 572.816 639.779 572.377Z" fill="#FF00FF"/>
<path d="M103.422 410.895L102.27 409.576C102.143 409.42 102.064 409.205 102.064 408.98C102.064 408.492 102.465 408.082 102.953 408.082C103.207 408.082 103.461 408.15 103.695 408.492L104.623 409.898C104.711 410.035 104.789 410.201 104.789 410.377C104.789 410.816 104.428 411.178 104.018 411.178C103.773 411.178 103.568 411.061 103.422 410.895Z" fill="#FF00FF"/>
<path d="M85.4038 398.077C85.4038 397.705 85.6333 397.463 86.0611 397.463H87.118C87.1953 397.463 87.258 397.4 87.258 397.323V389.2C87.258 389.123 87.1953 389.06 87.118 389.06H86.0611C85.6333 389.06 85.4038 388.819 85.4038 388.453C85.4038 388.081 85.6333 387.839 86.0611 387.839H87.8037C88.4486 387.839 88.8207 388.186 88.8207 388.819V397.705C88.8207 398.337 88.4486 398.685 87.8037 398.685H86.0611C85.6333 398.685 85.4038 398.443 85.4038 398.077Z" fill="#FF00FF"/>
<path d="M88.5301 414.499V413.029C88.5301 412.089 88.8401 411.979 89.1701 411.879C89.4601 411.789 89.7201 411.609 89.7201 411.139C89.7201 410.629 89.4201 410.459 89.1501 410.379C88.8501 410.289 88.5301 410.169 88.5301 409.239V408.009C88.5301 406.419 87.6401 405.849 86.3601 405.849C85.8401 405.849 85.4001 405.939 85.4001 406.479C85.4001 406.839 85.5901 406.969 85.9901 407.049C86.4701 407.149 86.9801 407.189 86.9801 408.259V409.689C86.9801 410.369 87.2201 410.809 87.6701 411.019C87.7801 411.069 87.7801 411.219 87.6701 411.279C87.2101 411.509 86.9701 411.989 86.9701 412.669V414.279C86.9701 415.359 86.4601 415.399 85.9801 415.489C85.5801 415.569 85.3901 415.699 85.3901 416.049C85.3901 416.379 85.6501 416.649 85.9801 416.669C87.4601 416.789 88.5201 416.239 88.5201 414.499H88.5301Z" fill="#FF00FF"/>
<rect x="743.5" y="703" width="67.5" height="54" stroke="#00FFFF"/>
<rect x="676" y="703" width="67.5" height="54" stroke="#00FFFF"/>
<rect x="608.5" y="703" width="67.5" height="54" stroke="#00FFFF"/>
<rect x="541" y="703" width="67.5" height="54" stroke="#00FFFF"/>
<rect x="136" y="703" width="67.5" height="54" stroke="#00FFFF"/>
<rect x="68.5" y="703" width="67.5" height="54" stroke="#00FFFF"/>
<rect x="1" y="703" width="67.5" height="54" stroke="#00FFFF"/>
<rect x="662.5" y="649" width="148.5" height="54" stroke="#00FFFF"/>
<rect x="1" y="649" width="121.5" height="54" stroke="#00FFFF"/>
<rect x="689.5" y="595" width="121.5" height="54" stroke="#00FFFF"/>
<rect x="1" y="595" width="94.5" height="54" stroke="#00FFFF"/>
<rect x="1" y="541" width="81" height="54" stroke="#00FFFF"/>
<rect x="703" y="487" width="108" height="54" stroke="#00FFFF"/>
<rect x="608.5" y="649" width="54" height="54" stroke="#00FFFF"/>
<rect x="554.5" y="649" width="54" height="54" stroke="#00FFFF"/>
<rect x="500.5" y="649" width="54" height="54" stroke="#00FFFF"/>
<rect x="446.5" y="649" width="54" height="54" stroke="#00FFFF"/>
<rect x="392.5" y="649" width="54" height="54" stroke="#00FFFF"/>
<rect x="338.5" y="649" width="54" height="54" stroke="#00FFFF"/>
<rect x="284.5" y="649" width="54" height="54" stroke="#00FFFF"/>
<rect x="230.5" y="649" width="54" height="54" stroke="#00FFFF"/>
<rect x="176.5" y="649" width="54" height="54" stroke="#00FFFF"/>
<rect x="122.5" y="649" width="54" height="54" stroke="#00FFFF"/>
<rect x="635.5" y="595" width="54" height="54" stroke="#00FFFF"/>
<rect x="581.5" y="595" width="54" height="54" stroke="#00FFFF"/>
<rect x="527.5" y="595" width="54" height="54" stroke="#00FFFF"/>
<rect x="473.5" y="595" width="54" height="54" stroke="#00FFFF"/>
<rect x="419.5" y="595" width="54" height="54" stroke="#00FFFF"/>
<rect x="365.5" y="595" width="54" height="54" stroke="#00FFFF"/>
<rect x="311.5" y="595" width="54" height="54" stroke="#00FFFF"/>
<rect x="257.5" y="595" width="54" height="54" stroke="#00FFFF"/>
<rect x="203.5" y="595" width="54" height="54" stroke="#00FFFF"/>
<rect x="149.5" y="595" width="54" height="54" stroke="#00FFFF"/>
<rect x="95.5" y="595" width="54" height="54" stroke="#00FFFF"/>
<rect x="730" y="541" width="81" height="54" stroke="#00FFFF"/>
<rect x="676" y="541" width="54" height="54" stroke="#00FFFF"/>
<rect x="622" y="541" width="54" height="54" stroke="#00FFFF"/>
<rect x="568" y="541" width="54" height="54" stroke="#00FFFF"/>
<rect x="514" y="541" width="54" height="54" stroke="#00FFFF"/>
<rect x="460" y="541" width="54" height="54" stroke="#00FFFF"/>
<rect x="406" y="541" width="54" height="54" stroke="#00FFFF"/>
<rect x="352" y="541" width="54" height="54" stroke="#00FFFF"/>
<rect x="298" y="541" width="54" height="54" stroke="#00FFFF"/>
<rect x="244" y="541" width="54" height="54" stroke="#00FFFF"/>
<rect x="190" y="541" width="54" height="54" stroke="#00FFFF"/>
<rect x="136" y="541" width="54" height="54" stroke="#00FFFF"/>
<rect x="82" y="541" width="54" height="54" stroke="#00FFFF"/>
<rect x="55" y="487" width="54" height="54" stroke="#00FFFF"/>
<rect x="109" y="487" width="54" height="54" stroke="#00FFFF"/>
<rect x="163" y="487" width="54" height="54" stroke="#00FFFF"/>
<rect x="217" y="487" width="54" height="54" stroke="#00FFFF"/>
<rect x="271" y="487" width="54" height="54" stroke="#00FFFF"/>
<rect x="325" y="487" width="54" height="54" stroke="#00FFFF"/>
<rect x="379" y="487" width="54" height="54" stroke="#00FFFF"/>
<rect x="433" y="487" width="54" height="54" stroke="#00FFFF"/>
<rect x="487" y="487" width="54" height="54" stroke="#00FFFF"/>
<rect x="541" y="487" width="54" height="54" stroke="#00FFFF"/>
<rect x="595" y="487" width="54" height="54" stroke="#00FFFF"/>
<rect x="649" y="487" width="54" height="54" stroke="#00FFFF"/>
<rect x="1" y="487" width="54" height="54" stroke="#00FFFF"/>
<rect x="217" y="433" width="54" height="54" stroke="#00FFFF"/>
<rect x="163" y="433" width="54" height="54" stroke="#00FFFF"/>
<rect x="109" y="433" width="54" height="54" stroke="#00FFFF"/>
<rect x="55" y="433" width="54" height="54" stroke="#00FFFF"/>
<rect x="433" y="433" width="54" height="54" stroke="#00FFFF"/>
<rect x="379" y="433" width="54" height="54" stroke="#00FFFF"/>
<rect x="325" y="433" width="54" height="54" stroke="#00FFFF"/>
<rect x="271" y="433" width="54" height="54" stroke="#00FFFF"/>
<rect x="649" y="433" width="54" height="54" stroke="#00FFFF"/>
<rect x="595" y="433" width="54" height="54" stroke="#00FFFF"/>
<rect x="541" y="433" width="54" height="54" stroke="#00FFFF"/>
<rect x="487" y="433" width="54" height="54" stroke="#00FFFF"/>
<rect x="541" y="379" width="54" height="54" stroke="#00FFFF"/>
<rect x="487" y="379" width="54" height="54" stroke="#00FFFF"/>
<rect x="433" y="379" width="54" height="54" stroke="#00FFFF"/>
<rect x="487" y="325" width="54" height="54" stroke="#00FFFF"/>
<rect x="703" y="379" width="54" height="54" stroke="#00FFFF"/>
<rect x="595" y="379" width="108" height="54" stroke="#00FFFF"/>
<rect x="757" y="325" width="54" height="108" stroke="#00FFFF"/>
<rect x="703" y="325" width="54" height="54" stroke="#00FFFF"/>
<rect x="649" y="325" width="54" height="54" stroke="#00FFFF"/>
<rect x="595" y="325" width="54" height="54" stroke="#00FFFF"/>
<rect x="703" y="271" width="54" height="54" stroke="#00FFFF"/>
<rect x="595" y="271" width="54" height="54" stroke="#00FFFF"/>
<rect x="757" y="217" width="54" height="108" stroke="#00FFFF"/>
<rect x="703" y="217" width="54" height="54" stroke="#00FFFF"/>
<rect x="649" y="217" width="54" height="54" stroke="#00FFFF"/>
<rect x="595" y="217" width="54" height="54" stroke="#00FFFF"/>
<rect x="757" y="163" width="54" height="54" stroke="#00FFFF"/>
<rect x="703" y="163" width="54" height="54" stroke="#00FFFF"/>
<rect x="649" y="163" width="54" height="54" stroke="#00FFFF"/>
<rect x="595" y="163" width="54" height="54" stroke="#00FFFF"/>
<rect x="649" y="271" width="54" height="54" stroke="#00FFFF"/>
<rect x="541" y="163" width="54" height="54" stroke="#00FFFF"/>
<rect x="487" y="163" width="54" height="54" stroke="#00FFFF"/>
<rect x="433" y="163" width="54" height="54" stroke="#00FFFF"/>
<rect x="541" y="217" width="54" height="54" stroke="#00FFFF"/>
<rect x="487" y="217" width="54" height="54" stroke="#00FFFF"/>
<rect x="433" y="217" width="54" height="54" stroke="#00FFFF"/>
<rect x="541" y="271" width="54" height="54" stroke="#00FFFF"/>
<rect x="487" y="271" width="54" height="54" stroke="#00FFFF"/>
<rect x="433" y="271" width="54" height="54" stroke="#00FFFF"/>
<rect x="595" y="757" width="81" height="54" stroke="#00FFFF"/>
<rect x="676" y="757" width="54" height="54" stroke="#00FFFF"/>
<rect x="730" y="757" width="81" height="54" stroke="#00FFFF"/>
<rect x="136" y="757" width="81" height="54" stroke="#00FFFF"/>
<rect x="82" y="757" width="54" height="54" stroke="#00FFFF"/>
<rect x="1" y="757" width="81" height="54" stroke="#00FFFF"/>
<rect x="1" y="433" width="54" height="54" stroke="#00FFFF"/>
<rect x="757" y="433" width="54" height="54" stroke="#00FFFF"/>
<rect x="703" y="433" width="54" height="54" stroke="#00FFFF"/>
<rect x="541" y="325" width="54" height="54" stroke="#00FFFF"/>
<rect x="433" y="325" width="54" height="54" stroke="#00FFFF"/>
<rect x="379" y="325" width="54" height="54" stroke="#00FFFF"/>
<rect x="379" y="379" width="54" height="54" stroke="#00FFFF"/>
<rect x="298" y="379" width="81" height="54" stroke="#00FFFF"/>
<rect x="298" y="325" width="81" height="54" stroke="#00FFFF"/>
<rect x="217" y="325" width="81" height="108" stroke="#00FFFF"/>
<rect x="176.5" y="379" width="54" height="54" stroke="#00FFFF"/>
<rect x="122.5" y="379" width="54" height="54" stroke="#00FFFF"/>
<rect x="68.5" y="379" width="54" height="54" stroke="#00FFFF"/>
<rect x="1" y="379" width="67.5" height="54" stroke="#00FFFF"/>
<rect x="109" y="325" width="54" height="54" stroke="#00FFFF"/>
<rect x="55" y="325" width="54" height="54" stroke="#00FFFF"/>
<rect x="1" y="325" width="54" height="54" stroke="#00FFFF"/>
<rect x="163" y="325" width="54" height="54" stroke="#00FFFF"/>
<rect x="271" y="271" width="94.5" height="54" stroke="#00FFFF"/>
<rect x="365.5" y="271" width="67.5" height="54" stroke="#00FFFF"/>
<rect x="217" y="271" width="54" height="54" stroke="#00FFFF"/>
<rect x="163" y="271" width="54" height="54" stroke="#00FFFF"/>
<rect x="95.5" y="271" width="67.5" height="54" stroke="#00FFFF"/>
<rect x="1" y="271" width="94.5" height="54" stroke="#00FFFF"/>
<rect x="379" y="163" width="54" height="54" stroke="#00FFFF"/>
<rect x="271" y="163" width="54" height="54" stroke="#00FFFF"/>
<rect x="163" y="163" width="108" height="54" stroke="#00FFFF"/>
<rect x="95.5" y="163" width="67.5" height="54" stroke="#00FFFF"/>
<rect x="217" y="217" width="54" height="54" stroke="#00FFFF"/>
<rect x="163" y="217" width="54" height="54" stroke="#00FFFF"/>
<rect x="95.5" y="217" width="67.5" height="54" stroke="#00FFFF"/>
<rect x="1" y="217" width="94.5" height="54" stroke="#00FFFF"/>
<rect x="1" y="163" width="94.5" height="54" stroke="#00FFFF"/>
<rect x="730" y="55" width="81" height="108" stroke="#00FFFF"/>
<rect x="635.5" y="109" width="54" height="54" stroke="#00FFFF"/>
<rect x="554.5" y="109" width="81" height="54" stroke="#00FFFF"/>
<rect x="446.5" y="109" width="108" height="54" stroke="#00FFFF"/>
<rect x="311.5" y="109" width="81" height="54" stroke="#00FFFF"/>
<rect x="257.5" y="109" width="54" height="54" stroke="#00FFFF"/>
<rect x="163" y="109" width="94.5" height="54" stroke="#00FFFF"/>
<rect x="82" y="109" width="81" height="54" stroke="#00FFFF"/>
<rect x="1" y="109" width="81" height="54" stroke="#00FFFF"/>
<rect x="635.5" y="55" width="94.5" height="54" stroke="#00FFFF"/>
<rect x="527.5" y="55" width="54" height="54" stroke="#00FFFF"/>
<rect x="473.5" y="55" width="54" height="54" stroke="#00FFFF"/>
<rect x="392.5" y="55" width="81" height="54" stroke="#00FFFF"/>
<rect x="1" y="1" width="54" height="54" stroke="#00FFFF"/>
<rect x="55" y="1" width="54" height="54" stroke="#00FFFF"/>
<rect x="109" y="1" width="54" height="54" stroke="#00FFFF"/>
<rect x="163" y="1" width="54" height="54" stroke="#00FFFF"/>
<rect x="217" y="1" width="54" height="54" stroke="#00FFFF"/>
<rect x="271" y="1" width="54" height="54" stroke="#00FFFF"/>
<rect x="325" y="1" width="54" height="54" stroke="#00FFFF"/>
<rect x="379" y="1" width="54" height="54" stroke="#00FFFF"/>
</svg>
