<svg width="812" height="812" viewBox="0 0 812 812" fill="none" xmlns="http://www.w3.org/2000/svg">
<path d="M84.5399 723.006C83.8899 723.006 83.4399 722.606 83.4399 722.016C83.4399 721.776 83.4999 721.506 83.6499 721.056L86.6799 712.386C87.0599 711.266 87.5899 710.806 88.5999 710.806C89.6099 710.806 90.1199 711.266 90.4999 712.386L93.5199 721.056C93.6399 721.436 93.6999 721.726 93.6999 721.966C93.6999 722.596 93.2499 723.006 92.5799 723.006C91.9399 723.006 91.5699 722.676 91.3299 721.856L90.6899 719.916C90.6699 719.856 90.6199 719.816 90.5599 719.816H86.5599C86.4999 719.816 86.4399 719.856 86.4299 719.916L85.7899 721.856C85.5399 722.686 85.1899 723.006 84.5599 723.006H84.5399ZM87.1599 718.046H89.9399C90.0399 718.046 90.0999 717.956 90.0799 717.866L88.6999 713.446C88.6599 713.316 88.4699 713.316 88.4299 713.446L87.0399 717.866C87.0099 717.956 87.0799 718.046 87.1799 718.046H87.1599Z" fill="#FF00FF"/>
<path fill-rule="evenodd" clip-rule="evenodd" d="M17.6177 722.988C16.8706 722.988 16.4399 722.513 16.4399 721.705V712.634C16.4399 711.386 16.9146 710.903 18.1538 710.903H21.186C23.6821 710.903 25.2905 712.467 25.2905 714.84C25.2905 717.319 23.6646 718.787 21.0894 718.787H18.953C18.8757 718.787 18.813 718.849 18.813 718.927V721.705C18.813 722.513 18.3735 722.988 17.6177 722.988ZM18.813 716.801C18.813 716.878 18.8757 716.941 18.953 716.941H20.3335C22.1792 716.941 22.9263 716.405 22.9263 714.875C22.9263 713.557 22.188 712.801 20.8872 712.801H18.953C18.8757 712.801 18.813 712.864 18.813 712.941V716.801Z" fill="#FF00FF"/>
<path d="M15.9399 613.697C15.9399 613.24 16.1245 612.906 16.9596 611.807L21.9014 605.071C21.9701 604.977 21.9033 604.845 21.7872 604.845H17.1618C16.5553 604.845 16.1509 604.458 16.1509 603.878C16.1509 603.289 16.5641 602.903 17.1618 602.903H23.4646C24.2381 602.903 24.7216 603.351 24.7216 604.072C24.7216 604.538 24.5194 604.916 23.6931 606.023L18.8377 612.734C18.7699 612.828 18.8369 612.959 18.9525 612.959H23.9832C24.5721 612.959 24.9853 613.354 24.9853 613.935C24.9853 614.506 24.5634 614.902 23.9744 614.902H17.2409C16.4674 614.902 15.9399 614.409 15.9399 613.697Z" fill="#FF00FF"/>
<path d="M99.25 782.75C98.8594 782.75 98.6201 782.506 98.6201 782.096V776.275C98.6201 775.86 98.8594 775.621 99.25 775.621C99.6406 775.621 99.8799 775.86 99.8799 776.275V781.544C99.8799 781.622 99.9434 781.686 100.022 781.686H102.58C102.922 781.686 103.156 781.891 103.156 782.218C103.156 782.545 102.927 782.75 102.58 782.75H99.25V782.75Z" fill="#FF00FF"/>
<path d="M106.252 777.467C104.743 777.467 103.747 778.492 103.747 780.162C103.747 781.832 104.733 782.853 106.252 782.853C107.77 782.853 108.757 781.842 108.757 780.162C108.757 778.482 107.761 777.467 106.252 777.467ZM106.252 781.891C105.48 781.891 104.982 781.266 104.982 780.162C104.982 779.059 105.485 778.434 106.252 778.434C107.018 778.434 107.521 779.064 107.521 780.162C107.521 781.261 107.023 781.891 106.252 781.891Z" fill="#FF00FF"/>
<path d="M112.097 782.853C110.583 782.853 109.607 781.827 109.607 780.167C109.607 778.507 110.578 777.467 112.087 777.467C113.103 777.467 113.967 777.989 114.216 778.717C114.255 778.819 114.28 778.922 114.28 779.01C114.28 779.312 114.05 779.498 113.757 779.498C113.513 779.498 113.366 779.396 113.225 779.151C112.966 778.678 112.624 778.453 112.121 778.453C111.34 778.453 110.842 779.103 110.842 780.162C110.842 781.222 111.345 781.871 112.116 781.871C112.654 781.871 112.986 781.622 113.22 781.207C113.386 780.934 113.518 780.831 113.781 780.831C114.07 780.831 114.294 781.026 114.294 781.329C114.294 781.422 114.27 781.524 114.221 781.642C113.933 782.35 113.073 782.853 112.097 782.853Z" fill="#FF00FF"/>
<path d="M115.959 782.848C115.603 782.848 115.349 782.618 115.349 782.208V776.246C115.349 775.836 115.603 775.606 115.959 775.606C116.316 775.606 116.565 775.836 116.565 776.246V779.388C116.565 779.514 116.717 779.577 116.806 779.489L118.611 777.706C118.767 777.54 118.899 777.472 119.084 777.472C119.387 777.472 119.616 777.701 119.616 777.994C119.616 778.175 119.563 778.287 119.397 778.443L118.017 779.75C117.963 779.801 117.957 779.884 118.004 779.942L119.543 781.866C119.67 782.042 119.709 782.149 119.709 782.306C119.709 782.623 119.47 782.848 119.133 782.848C118.894 782.848 118.752 782.765 118.576 782.511L117.119 780.664C117.068 780.599 116.972 780.592 116.911 780.648L116.654 780.889C116.597 780.942 116.565 781.017 116.565 781.096V782.208C116.565 782.618 116.316 782.848 115.959 782.848V782.848Z" fill="#FF00FF"/>
<path fill-rule="evenodd" clip-rule="evenodd" d="M16.6079 766.216C16.9055 765.818 17.4694 765.737 17.8674 766.034L23.2104 770.029C23.4376 770.199 23.5714 770.466 23.5714 770.75C23.5714 771.034 23.4376 771.301 23.2104 771.471L17.8674 775.466C17.4694 775.763 16.9055 775.682 16.6079 775.284C16.3104 774.886 16.3917 774.322 16.7897 774.025L21.0191 770.862C21.094 770.806 21.094 770.694 21.0191 770.638L16.7897 767.475C16.3917 767.178 16.3104 766.614 16.6079 766.216Z" fill="#FF00FF"/>
<path d="M19.0326 791.919C19.0326 791.392 19.4667 790.958 19.9938 790.958C20.5271 790.958 20.9612 791.392 20.9612 791.919C20.9612 792.452 20.5271 792.887 19.9938 792.887C19.4667 792.887 19.0326 792.452 19.0326 791.919Z" fill="#FF00FF"/>
<rect x="743.5" y="703" width="67.5" height="54" stroke="#00FFFF"/>
<rect x="676" y="703" width="67.5" height="54" stroke="#00FFFF"/>
<rect x="608.5" y="703" width="67.5" height="54" stroke="#00FFFF"/>
<rect x="541" y="703" width="67.5" height="54" stroke="#00FFFF"/>
<rect x="136" y="703" width="67.5" height="54" stroke="#00FFFF"/>
<rect x="68.5" y="703" width="67.5" height="54" stroke="#00FFFF"/>
<rect x="1" y="703" width="67.5" height="54" stroke="#00FFFF"/>
<rect x="662.5" y="649" width="148.5" height="54" stroke="#00FFFF"/>
<rect x="1" y="649" width="121.5" height="54" stroke="#00FFFF"/>
<rect x="689.5" y="595" width="121.5" height="54" stroke="#00FFFF"/>
<rect x="1" y="595" width="94.5" height="54" stroke="#00FFFF"/>
<rect x="1" y="541" width="81" height="54" stroke="#00FFFF"/>
<rect x="703" y="487" width="108" height="54" stroke="#00FFFF"/>
<rect x="608.5" y="649" width="54" height="54" stroke="#00FFFF"/>
<rect x="554.5" y="649" width="54" height="54" stroke="#00FFFF"/>
<rect x="500.5" y="649" width="54" height="54" stroke="#00FFFF"/>
<rect x="446.5" y="649" width="54" height="54" stroke="#00FFFF"/>
<rect x="392.5" y="649" width="54" height="54" stroke="#00FFFF"/>
<rect x="338.5" y="649" width="54" height="54" stroke="#00FFFF"/>
<rect x="284.5" y="649" width="54" height="54" stroke="#00FFFF"/>
<rect x="230.5" y="649" width="54" height="54" stroke="#00FFFF"/>
<rect x="176.5" y="649" width="54" height="54" stroke="#00FFFF"/>
<rect x="122.5" y="649" width="54" height="54" stroke="#00FFFF"/>
<rect x="635.5" y="595" width="54" height="54" stroke="#00FFFF"/>
<rect x="581.5" y="595" width="54" height="54" stroke="#00FFFF"/>
<rect x="527.5" y="595" width="54" height="54" stroke="#00FFFF"/>
<rect x="473.5" y="595" width="54" height="54" stroke="#00FFFF"/>
<rect x="419.5" y="595" width="54" height="54" stroke="#00FFFF"/>
<rect x="365.5" y="595" width="54" height="54" stroke="#00FFFF"/>
<rect x="311.5" y="595" width="54" height="54" stroke="#00FFFF"/>
<rect x="257.5" y="595" width="54" height="54" stroke="#00FFFF"/>
<rect x="203.5" y="595" width="54" height="54" stroke="#00FFFF"/>
<rect x="149.5" y="595" width="54" height="54" stroke="#00FFFF"/>
<rect x="95.5" y="595" width="54" height="54" stroke="#00FFFF"/>
<rect x="730" y="541" width="81" height="54" stroke="#00FFFF"/>
<rect x="676" y="541" width="54" height="54" stroke="#00FFFF"/>
<rect x="622" y="541" width="54" height="54" stroke="#00FFFF"/>
<rect x="568" y="541" width="54" height="54" stroke="#00FFFF"/>
<rect x="514" y="541" width="54" height="54" stroke="#00FFFF"/>
<rect x="460" y="541" width="54" height="54" stroke="#00FFFF"/>
<rect x="406" y="541" width="54" height="54" stroke="#00FFFF"/>
<rect x="352" y="541" width="54" height="54" stroke="#00FFFF"/>
<rect x="298" y="541" width="54" height="54" stroke="#00FFFF"/>
<rect x="244" y="541" width="54" height="54" stroke="#00FFFF"/>
<rect x="190" y="541" width="54" height="54" stroke="#00FFFF"/>
<rect x="136" y="541" width="54" height="54" stroke="#00FFFF"/>
<rect x="82" y="541" width="54" height="54" stroke="#00FFFF"/>
<rect x="55" y="487" width="54" height="54" stroke="#00FFFF"/>
<rect x="109" y="487" width="54" height="54" stroke="#00FFFF"/>
<rect x="163" y="487" width="54" height="54" stroke="#00FFFF"/>
<rect x="217" y="487" width="54" height="54" stroke="#00FFFF"/>
<rect x="271" y="487" width="54" height="54" stroke="#00FFFF"/>
<rect x="325" y="487" width="54" height="54" stroke="#00FFFF"/>
<rect x="379" y="487" width="54" height="54" stroke="#00FFFF"/>
<rect x="433" y="487" width="54" height="54" stroke="#00FFFF"/>
<rect x="487" y="487" width="54" height="54" stroke="#00FFFF"/>
<rect x="541" y="487" width="54" height="54" stroke="#00FFFF"/>
<rect x="595" y="487" width="54" height="54" stroke="#00FFFF"/>
<rect x="649" y="487" width="54" height="54" stroke="#00FFFF"/>
<rect x="1" y="487" width="54" height="54" stroke="#00FFFF"/>
<rect x="217" y="433" width="54" height="54" stroke="#00FFFF"/>
<rect x="163" y="433" width="54" height="54" stroke="#00FFFF"/>
<rect x="109" y="433" width="54" height="54" stroke="#00FFFF"/>
<rect x="55" y="433" width="54" height="54" stroke="#00FFFF"/>
<rect x="433" y="433" width="54" height="54" stroke="#00FFFF"/>
<rect x="379" y="433" width="54" height="54" stroke="#00FFFF"/>
<rect x="325" y="433" width="54" height="54" stroke="#00FFFF"/>
<rect x="271" y="433" width="54" height="54" stroke="#00FFFF"/>
<rect x="649" y="433" width="54" height="54" stroke="#00FFFF"/>
<rect x="595" y="433" width="54" height="54" stroke="#00FFFF"/>
<rect x="541" y="433" width="54" height="54" stroke="#00FFFF"/>
<rect x="487" y="433" width="54" height="54" stroke="#00FFFF"/>
<rect x="541" y="379" width="54" height="54" stroke="#00FFFF"/>
<rect x="487" y="379" width="54" height="54" stroke="#00FFFF"/>
<rect x="433" y="379" width="54" height="54" stroke="#00FFFF"/>
<rect x="487" y="325" width="54" height="54" stroke="#00FFFF"/>
<rect x="703" y="379" width="54" height="54" stroke="#00FFFF"/>
<rect x="595" y="379" width="108" height="54" stroke="#00FFFF"/>
<rect x="757" y="325" width="54" height="108" stroke="#00FFFF"/>
<rect x="703" y="325" width="54" height="54" stroke="#00FFFF"/>
<rect x="649" y="325" width="54" height="54" stroke="#00FFFF"/>
<rect x="595" y="325" width="54" height="54" stroke="#00FFFF"/>
<rect x="703" y="271" width="54" height="54" stroke="#00FFFF"/>
<rect x="595" y="271" width="54" height="54" stroke="#00FFFF"/>
<rect x="757" y="217" width="54" height="108" stroke="#00FFFF"/>
<rect x="703" y="217" width="54" height="54" stroke="#00FFFF"/>
<rect x="649" y="217" width="54" height="54" stroke="#00FFFF"/>
<rect x="595" y="217" width="54" height="54" stroke="#00FFFF"/>
<rect x="757" y="163" width="54" height="54" stroke="#00FFFF"/>
<rect x="703" y="163" width="54" height="54" stroke="#00FFFF"/>
<rect x="649" y="163" width="54" height="54" stroke="#00FFFF"/>
<rect x="595" y="163" width="54" height="54" stroke="#00FFFF"/>
<rect x="649" y="271" width="54" height="54" stroke="#00FFFF"/>
<rect x="541" y="163" width="54" height="54" stroke="#00FFFF"/>
<rect x="487" y="163" width="54" height="54" stroke="#00FFFF"/>
<rect x="433" y="163" width="54" height="54" stroke="#00FFFF"/>
<rect x="541" y="217" width="54" height="54" stroke="#00FFFF"/>
<rect x="487" y="217" width="54" height="54" stroke="#00FFFF"/>
<rect x="433" y="217" width="54" height="54" stroke="#00FFFF"/>
<rect x="541" y="271" width="54" height="54" stroke="#00FFFF"/>
<rect x="487" y="271" width="54" height="54" stroke="#00FFFF"/>
<rect x="433" y="271" width="54" height="54" stroke="#00FFFF"/>
<rect x="595" y="757" width="81" height="54" stroke="#00FFFF"/>
<rect x="676" y="757" width="54" height="54" stroke="#00FFFF"/>
<rect x="730" y="757" width="81" height="54" stroke="#00FFFF"/>
<rect x="136" y="757" width="81" height="54" stroke="#00FFFF"/>
<rect x="82" y="757" width="54" height="54" stroke="#00FFFF"/>
<rect x="1" y="757" width="81" height="54" stroke="#00FFFF"/>
<rect x="1" y="433" width="54" height="54" stroke="#00FFFF"/>
<rect x="757" y="433" width="54" height="54" stroke="#00FFFF"/>
<rect x="703" y="433" width="54" height="54" stroke="#00FFFF"/>
<rect x="541" y="325" width="54" height="54" stroke="#00FFFF"/>
<rect x="433" y="325" width="54" height="54" stroke="#00FFFF"/>
<rect x="379" y="325" width="54" height="54" stroke="#00FFFF"/>
<rect x="379" y="379" width="54" height="54" stroke="#00FFFF"/>
<rect x="298" y="379" width="81" height="54" stroke="#00FFFF"/>
<rect x="298" y="325" width="81" height="54" stroke="#00FFFF"/>
<rect x="217" y="325" width="81" height="108" stroke="#00FFFF"/>
<rect x="176.5" y="379" width="54" height="54" stroke="#00FFFF"/>
<rect x="122.5" y="379" width="54" height="54" stroke="#00FFFF"/>
<rect x="68.5" y="379" width="54" height="54" stroke="#00FFFF"/>
<rect x="1" y="379" width="67.5" height="54" stroke="#00FFFF"/>
<rect x="109" y="325" width="54" height="54" stroke="#00FFFF"/>
<rect x="55" y="325" width="54" height="54" stroke="#00FFFF"/>
<rect x="1" y="325" width="54" height="54" stroke="#00FFFF"/>
<rect x="163" y="325" width="54" height="54" stroke="#00FFFF"/>
<rect x="271" y="271" width="94.5" height="54" stroke="#00FFFF"/>
<rect x="365.5" y="271" width="67.5" height="54" stroke="#00FFFF"/>
<rect x="217" y="271" width="54" height="54" stroke="#00FFFF"/>
<rect x="163" y="271" width="54" height="54" stroke="#00FFFF"/>
<rect x="95.5" y="271" width="67.5" height="54" stroke="#00FFFF"/>
<rect x="1" y="271" width="94.5" height="54" stroke="#00FFFF"/>
<rect x="379" y="163" width="54" height="54" stroke="#00FFFF"/>
<rect x="271" y="163" width="54" height="54" stroke="#00FFFF"/>
<rect x="163" y="163" width="108" height="54" stroke="#00FFFF"/>
<rect x="95.5" y="163" width="67.5" height="54" stroke="#00FFFF"/>
<rect x="217" y="217" width="54" height="54" stroke="#00FFFF"/>
<rect x="163" y="217" width="54" height="54" stroke="#00FFFF"/>
<rect x="95.5" y="217" width="67.5" height="54" stroke="#00FFFF"/>
<rect x="1" y="217" width="94.5" height="54" stroke="#00FFFF"/>
<rect x="1" y="163" width="94.5" height="54" stroke="#00FFFF"/>
<rect x="730" y="55" width="81" height="108" stroke="#00FFFF"/>
<rect x="635.5" y="109" width="54" height="54" stroke="#00FFFF"/>
<rect x="554.5" y="109" width="81" height="54" stroke="#00FFFF"/>
<rect x="446.5" y="109" width="108" height="54" stroke="#00FFFF"/>
<rect x="311.5" y="109" width="81" height="54" stroke="#00FFFF"/>
<rect x="257.5" y="109" width="54" height="54" stroke="#00FFFF"/>
<rect x="163" y="109" width="94.5" height="54" stroke="#00FFFF"/>
<rect x="82" y="109" width="81" height="54" stroke="#00FFFF"/>
<rect x="1" y="109" width="81" height="54" stroke="#00FFFF"/>
<rect x="635.5" y="55" width="94.5" height="54" stroke="#00FFFF"/>
<rect x="527.5" y="55" width="54" height="54" stroke="#00FFFF"/>
<rect x="473.5" y="55" width="54" height="54" stroke="#00FFFF"/>
<rect x="392.5" y="55" width="81" height="54" stroke="#00FFFF"/>
<rect x="1" y="1" width="54" height="54" stroke="#00FFFF"/>
<rect x="55" y="1" width="54" height="54" stroke="#00FFFF"/>
<rect x="109" y="1" width="54" height="54" stroke="#00FFFF"/>
<rect x="163" y="1" width="54" height="54" stroke="#00FFFF"/>
<rect x="217" y="1" width="54" height="54" stroke="#00FFFF"/>
<rect x="271" y="1" width="54" height="54" stroke="#00FFFF"/>
<rect x="325" y="1" width="54" height="54" stroke="#00FFFF"/>
<rect x="379" y="1" width="54" height="54" stroke="#00FFFF"/>
</svg>
