<svg width="812" height="811" viewBox="0 0 812 811" fill="none" xmlns="http://www.w3.org/2000/svg">
<path fill-rule="evenodd" clip-rule="evenodd" d="M699.105 718.157L703.011 716.259C703.223 716.156 703.473 716.169 703.673 716.294C703.874 716.42 703.995 716.639 703.995 716.875V716.885C703.995 716.983 703.974 717.079 703.934 717.168L703.466 718.198C703.425 718.288 703.487 718.39 703.584 718.399C703.681 718.408 703.777 718.419 703.874 718.433C705.267 718.625 706.558 719.273 707.545 720.276C708.532 721.278 709.159 722.579 709.33 723.975C709.501 725.372 709.205 726.785 708.489 727.996C708.29 728.334 707.854 728.445 707.517 728.246C707.179 728.046 707.068 727.611 707.267 727.273C707.824 726.332 708.054 725.233 707.921 724.148C707.788 723.062 707.3 722.051 706.533 721.272C705.766 720.493 704.762 719.989 703.679 719.839C703.662 719.837 703.645 719.834 703.627 719.832C703.522 719.819 703.445 719.927 703.489 720.024L703.934 721.001C704.053 721.264 703.995 721.574 703.788 721.775C703.581 721.977 703.27 722.027 703.011 721.901L699.105 720.003C698.325 719.636 698.325 718.524 699.105 718.157ZM698.733 722.227C698.932 721.889 698.82 721.454 698.483 721.254C698.145 721.054 697.71 721.166 697.51 721.504C696.794 722.715 696.499 724.128 696.67 725.525C696.84 726.921 697.468 728.222 698.455 729.224C699.442 730.227 700.733 730.875 702.126 731.067C702.222 731.081 702.319 731.092 702.415 731.101C702.513 731.11 702.575 731.212 702.534 731.302L702.066 732.331C702.026 732.42 702.005 732.517 702.005 732.615V732.625C702.005 732.861 702.126 733.08 702.326 733.206C702.526 733.331 702.777 733.344 702.989 733.241L706.894 731.343C707.675 730.976 707.675 729.864 706.894 729.497L702.989 727.599C702.729 727.473 702.418 727.523 702.212 727.724C702.005 727.926 701.947 728.235 702.066 728.498L702.51 729.476C702.554 729.573 702.478 729.681 702.372 729.668C702.355 729.665 702.338 729.663 702.321 729.661C701.237 729.511 700.234 729.007 699.467 728.228C698.7 727.449 698.212 726.438 698.079 725.352C697.946 724.267 698.176 723.168 698.733 722.227Z" fill="#FF00FF"/>
<path fill-rule="evenodd" clip-rule="evenodd" d="M635.143 717.013C635.354 716.892 635.614 716.891 635.826 717.013L640.505 719.694C640.718 719.816 640.85 720.042 640.85 720.288C640.85 720.533 640.719 720.759 640.507 720.882L635.857 723.563C635.645 723.685 635.385 723.686 635.174 723.564L630.494 720.883C630.282 720.761 630.15 720.535 630.15 720.289C630.15 720.044 630.28 719.818 630.493 719.695L635.143 717.013ZM632.42 720.165C632.327 720.219 632.327 720.354 632.421 720.408L635.374 722.1C635.46 722.149 635.567 722.149 635.653 722.1L638.579 720.412C638.673 720.358 638.673 720.223 638.579 720.169L635.626 718.477C635.54 718.427 635.433 718.428 635.347 718.477L632.42 720.165ZM632.679 724.701L634.577 728.606C634.944 729.386 636.056 729.386 636.423 728.606L638.321 724.701C638.447 724.441 638.397 724.13 638.196 723.923C637.994 723.716 637.684 723.658 637.422 723.778L635.621 724.596C635.547 724.63 635.463 724.63 635.389 724.596L633.588 723.778C633.499 723.737 633.403 723.716 633.305 723.716H633.295C633.059 723.716 632.84 723.838 632.714 724.038C632.589 724.238 632.576 724.488 632.679 724.701ZM632.99 728.76C633.317 728.571 633.43 728.152 633.241 727.824C633.052 727.496 632.633 727.384 632.305 727.573L630.493 728.618C630.28 728.74 630.15 728.967 630.15 729.212C630.15 729.458 630.282 729.684 630.494 729.806L635.174 732.487C635.386 732.609 635.646 732.608 635.857 732.486L640.507 729.805C640.72 729.682 640.85 729.456 640.85 729.21C640.85 728.965 640.718 728.739 640.506 728.617L638.694 727.579C638.366 727.391 637.948 727.505 637.759 727.833C637.571 728.161 637.685 728.58 638.013 728.768L638.579 729.092C638.673 729.146 638.673 729.281 638.58 729.335L635.653 731.022C635.567 731.072 635.46 731.072 635.374 731.023L632.421 729.331C632.327 729.277 632.327 729.142 632.421 729.088L632.99 728.76Z" fill="#FF00FF"/>
<path fill-rule="evenodd" clip-rule="evenodd" d="M95.1431 716.398C95.3543 716.276 95.6143 716.276 95.8258 716.397L100.505 719.078C100.718 719.2 100.85 719.427 100.85 719.672C100.85 719.917 100.719 720.144 100.507 720.266L95.8567 722.948C95.6455 723.069 95.3855 723.07 95.1739 722.949L90.4943 720.267C90.2816 720.145 90.1502 719.919 90.1499 719.674C90.1496 719.428 90.2803 719.202 90.4927 719.079L95.1431 716.398ZM92.4204 719.549C92.3268 719.603 92.327 719.738 92.4207 719.792L95.3738 721.484C95.4603 721.534 95.5666 721.534 95.6529 721.484L98.5794 719.796C98.673 719.742 98.6728 719.607 98.5791 719.554L95.626 717.861C95.5395 717.812 95.4332 717.812 95.3469 717.862L92.4204 719.549ZM98.3211 728.37L96.4234 724.465C96.056 723.685 94.944 723.685 94.5766 724.465L92.6789 728.37C92.5527 728.63 92.6029 728.941 92.8045 729.148C93.006 729.355 93.3156 729.413 93.5785 729.293L95.3791 728.475C95.4528 728.442 95.5373 728.442 95.6109 728.475L97.4116 729.293C97.5006 729.334 97.5972 729.355 97.695 729.355H97.705C97.941 729.355 98.1604 729.233 98.2857 729.033C98.4109 728.833 98.4243 728.583 98.3211 728.37ZM90.2407 729.486C90.4288 729.158 90.8474 729.045 91.1756 729.233L95.3739 731.638C95.4604 731.688 95.5667 731.688 95.653 731.638L99.8228 729.234C100.151 729.045 100.569 729.157 100.758 729.485C100.947 729.813 100.835 730.231 100.507 730.42L95.8568 733.102C95.6456 733.224 95.3856 733.224 95.1741 733.103L90.4944 730.421C90.1662 730.233 90.0526 729.815 90.2407 729.486Z" fill="#FF00FF"/>
<path fill-rule="evenodd" clip-rule="evenodd" d="M108.643 770.398C108.854 770.276 109.114 770.276 109.326 770.397L114.005 773.078C114.218 773.2 114.35 773.427 114.35 773.672C114.35 773.917 114.219 774.144 114.007 774.266L109.357 776.948C109.145 777.069 108.885 777.07 108.674 776.949L103.994 774.267C103.782 774.145 103.65 773.919 103.65 773.674C103.65 773.428 103.78 773.202 103.993 773.079L108.643 770.398ZM105.92 773.549C105.827 773.603 105.827 773.738 105.921 773.792L108.874 775.484C108.96 775.534 109.067 775.534 109.153 775.484L112.079 773.796C112.173 773.742 112.173 773.607 112.079 773.554L109.126 771.861C109.04 771.812 108.933 771.812 108.847 771.862L105.92 773.549ZM111.821 782.37L109.923 778.465C109.556 777.685 108.444 777.685 108.077 778.465L106.179 782.37C106.053 782.63 106.103 782.941 106.304 783.148C106.506 783.355 106.816 783.413 107.078 783.293L108.879 782.475C108.953 782.442 109.037 782.442 109.111 782.475L110.912 783.293C111.001 783.334 111.097 783.355 111.195 783.355H111.205C111.441 783.355 111.66 783.233 111.786 783.033C111.911 782.833 111.924 782.583 111.821 782.37ZM103.741 783.486C103.929 783.158 104.347 783.045 104.676 783.233L108.874 785.638C108.96 785.688 109.067 785.688 109.153 785.638L113.323 783.234C113.651 783.045 114.069 783.157 114.258 783.485C114.447 783.813 114.335 784.231 114.007 784.42L109.357 787.102C109.146 787.224 108.886 787.224 108.674 787.103L103.994 784.421C103.666 784.233 103.553 783.815 103.741 783.486Z" fill="#FF00FF"/>
<path fill-rule="evenodd" clip-rule="evenodd" d="M186.105 340.157L190.011 338.259C190.223 338.156 190.473 338.169 190.673 338.294C190.874 338.42 190.995 338.639 190.995 338.875V338.885C190.995 338.983 190.974 339.079 190.934 339.168L190.466 340.198C190.425 340.288 190.487 340.39 190.584 340.399C190.681 340.408 190.777 340.419 190.874 340.433C192.267 340.625 193.558 341.273 194.545 342.276C195.532 343.278 196.159 344.579 196.33 345.975C196.501 347.372 196.205 348.785 195.489 349.996C195.29 350.334 194.854 350.445 194.517 350.246C194.179 350.046 194.068 349.611 194.267 349.273C194.824 348.332 195.054 347.233 194.921 346.148C194.788 345.062 194.3 344.051 193.533 343.272C192.766 342.493 191.762 341.989 190.679 341.839C190.662 341.837 190.645 341.834 190.627 341.832C190.522 341.819 190.445 341.927 190.489 342.024L190.934 343.001C191.053 343.264 190.995 343.574 190.788 343.775C190.581 343.977 190.27 344.027 190.011 343.901L186.105 342.003C185.325 341.636 185.325 340.524 186.105 340.157ZM185.733 344.227C185.932 343.889 185.82 343.454 185.483 343.254C185.145 343.054 184.71 343.166 184.51 343.504C183.794 344.715 183.499 346.128 183.67 347.525C183.84 348.921 184.468 350.222 185.455 351.224C186.442 352.227 187.733 352.875 189.126 353.067C189.222 353.081 189.319 353.092 189.415 353.101C189.513 353.11 189.575 353.212 189.534 353.302L189.066 354.331C189.026 354.42 189.005 354.517 189.005 354.615V354.625C189.005 354.861 189.126 355.08 189.326 355.206C189.526 355.331 189.777 355.344 189.989 355.241L193.894 353.343C194.675 352.976 194.675 351.864 193.894 351.497L189.989 349.599C189.729 349.473 189.418 349.523 189.212 349.724C189.005 349.926 188.947 350.235 189.066 350.498L189.51 351.476C189.554 351.573 189.478 351.681 189.372 351.668C189.355 351.665 189.338 351.663 189.321 351.661C188.237 351.511 187.234 351.007 186.467 350.228C185.7 349.449 185.212 348.438 185.079 347.352C184.946 346.267 185.176 345.168 185.733 344.227Z" fill="#FF00FF"/>
<path fill-rule="evenodd" clip-rule="evenodd" d="M560.18 72.6182C560.572 72.6182 560.89 72.3004 560.89 71.9082C560.89 71.5161 560.572 71.1982 560.18 71.1982C559.788 71.1982 559.47 71.5161 559.47 71.9082C559.47 72.3004 559.788 72.6182 560.18 72.6182ZM557.34 82.2982C557.732 82.2982 558.05 81.9804 558.05 81.5882C558.05 81.1961 557.732 80.8782 557.34 80.8782C556.948 80.8782 556.63 81.1961 556.63 81.5882C556.63 81.9804 556.948 82.2982 557.34 82.2982ZM560.89 74.3283C560.89 74.7204 560.572 75.0383 560.18 75.0383C559.788 75.0383 559.47 74.7204 559.47 74.3283C559.47 73.9361 559.788 73.6183 560.18 73.6183C560.572 73.6183 560.89 73.9361 560.89 74.3283ZM560.18 77.4582C560.572 77.4582 560.89 77.1404 560.89 76.7482C560.89 76.3561 560.572 76.0382 560.18 76.0382C559.788 76.0382 559.47 76.3561 559.47 76.7482C559.47 77.1404 559.788 77.4582 560.18 77.4582ZM560.89 79.1683C560.89 79.5604 560.572 79.8783 560.18 79.8783C559.788 79.8783 559.47 79.5604 559.47 79.1683C559.47 78.7761 559.788 78.4583 560.18 78.4583C560.572 78.4583 560.89 78.7761 560.89 79.1683ZM560.18 82.2982C560.572 82.2982 560.89 81.9804 560.89 81.5882C560.89 81.1961 560.572 80.8782 560.18 80.8782C559.788 80.8782 559.47 81.1961 559.47 81.5882C559.47 81.9804 559.788 82.2982 560.18 82.2982ZM558.05 71.9082C558.05 72.3004 557.732 72.6182 557.34 72.6182C556.948 72.6182 556.63 72.3004 556.63 71.9082C556.63 71.5161 556.948 71.1982 557.34 71.1982C557.732 71.1982 558.05 71.5161 558.05 71.9082ZM549.53 71.1983C548.746 71.1983 548.11 71.834 548.11 72.6183V80.8783C548.11 81.6625 548.746 82.2983 549.53 82.2983H553.79C554.574 82.2983 555.21 81.6625 555.21 80.8783V72.6183C555.21 71.834 554.574 71.1983 553.79 71.1983H549.53ZM549.67 80.8783C549.593 80.8783 549.53 80.8156 549.53 80.7383V72.7583C549.53 72.6809 549.593 72.6183 549.67 72.6183H553.65C553.727 72.6183 553.79 72.6809 553.79 72.7583L553.79 80.7383C553.79 80.8156 553.727 80.8783 553.65 80.8783H549.67Z" fill="#FF00FF"/>
<path fill-rule="evenodd" clip-rule="evenodd" d="M496.807 69.1039L494.12 72.5145C493.578 73.1854 494.063 74.1861 494.925 74.1765L499.267 74.1815C499.556 74.1818 499.814 74.0011 499.912 73.7295C500.011 73.458 499.928 73.154 499.706 72.9695L498.88 72.2836C498.798 72.2155 498.819 72.0848 498.92 72.0509L498.97 72.0345C500.01 71.697 501.133 71.7129 502.163 72.0797C503.193 72.4465 504.073 73.1436 504.666 74.0625C505.259 74.9814 505.531 76.0706 505.44 77.1603C505.408 77.5511 505.698 77.8942 506.089 77.9267C506.48 77.9591 506.823 77.6687 506.855 77.2779C506.972 75.876 506.622 74.4749 505.859 73.2928C505.096 72.1106 503.964 71.2138 502.639 70.742C501.314 70.2701 499.87 70.2497 498.532 70.6838C498.439 70.7138 498.348 70.7459 498.257 70.78C498.165 70.8145 498.065 70.7492 498.062 70.651L498.035 69.52C498.032 69.4222 498.009 69.3261 497.966 69.2381L497.962 69.2291C497.859 69.0167 497.654 68.8722 497.419 68.8468C497.185 68.8213 496.953 68.9185 496.807 69.1039ZM506.879 80.9856L504.192 84.3962C504.046 84.5816 503.815 84.6787 503.58 84.6533C503.346 84.6278 503.141 84.4834 503.038 84.271L503.033 84.262C502.991 84.174 502.968 84.0779 502.965 83.9801L502.917 82.0027C502.915 81.9219 502.878 81.8458 502.816 81.7942L501.294 80.5306C501.072 80.3461 500.989 80.0421 501.087 79.7706C501.186 79.499 501.444 79.3182 501.732 79.3186L506.074 79.3236C506.937 79.314 507.422 80.3147 506.879 80.9856ZM495.543 76.5787C495.556 76.1869 495.25 75.8582 494.858 75.8447C494.466 75.8311 494.137 76.1378 494.124 76.5297C494.11 76.9216 494.417 77.2503 494.809 77.2638C495.201 77.2774 495.529 76.9706 495.543 76.5787ZM496.121 79.0802C495.937 78.7341 495.507 78.6028 495.161 78.787C494.815 78.9712 494.684 79.4012 494.868 79.7473C495.052 80.0935 495.482 80.2248 495.828 80.0405C496.174 79.8563 496.306 79.4264 496.121 79.0802ZM496.895 81.1835C497.103 80.8509 497.541 80.7496 497.873 80.9573C498.206 81.1649 498.307 81.6029 498.099 81.9355C497.892 82.2681 497.454 82.3694 497.121 82.1618C496.789 81.9541 496.687 81.5161 496.895 81.1835ZM500.329 81.707C499.937 81.6934 499.608 82.0001 499.595 82.392C499.581 82.7839 499.888 83.1126 500.28 83.1261C500.672 83.1397 501 82.8329 501.014 82.441C501.027 82.0492 500.721 81.7205 500.329 81.707Z" fill="#FF00FF"/>
<rect x="743.5" y="702" width="67.5" height="54" stroke="#00FFFF"/>
<rect x="676" y="702" width="67.5" height="54" stroke="#00FFFF"/>
<rect x="608.5" y="702" width="67.5" height="54" stroke="#00FFFF"/>
<rect x="541" y="702" width="67.5" height="54" stroke="#00FFFF"/>
<rect x="136" y="702" width="67.5" height="54" stroke="#00FFFF"/>
<rect x="68.5" y="702" width="67.5" height="54" stroke="#00FFFF"/>
<rect x="1" y="702" width="67.5" height="54" stroke="#00FFFF"/>
<rect x="662.5" y="648" width="148.5" height="54" stroke="#00FFFF"/>
<rect x="1" y="648" width="121.5" height="54" stroke="#00FFFF"/>
<rect x="689.5" y="594" width="121.5" height="54" stroke="#00FFFF"/>
<rect x="1" y="594" width="94.5" height="54" stroke="#00FFFF"/>
<rect x="1" y="540" width="81" height="54" stroke="#00FFFF"/>
<rect x="703" y="486" width="108" height="54" stroke="#00FFFF"/>
<rect x="608.5" y="648" width="54" height="54" stroke="#00FFFF"/>
<rect x="554.5" y="648" width="54" height="54" stroke="#00FFFF"/>
<rect x="500.5" y="648" width="54" height="54" stroke="#00FFFF"/>
<rect x="446.5" y="648" width="54" height="54" stroke="#00FFFF"/>
<rect x="392.5" y="648" width="54" height="54" stroke="#00FFFF"/>
<rect x="338.5" y="648" width="54" height="54" stroke="#00FFFF"/>
<rect x="284.5" y="648" width="54" height="54" stroke="#00FFFF"/>
<rect x="230.5" y="648" width="54" height="54" stroke="#00FFFF"/>
<rect x="176.5" y="648" width="54" height="54" stroke="#00FFFF"/>
<rect x="122.5" y="648" width="54" height="54" stroke="#00FFFF"/>
<rect x="635.5" y="594" width="54" height="54" stroke="#00FFFF"/>
<rect x="581.5" y="594" width="54" height="54" stroke="#00FFFF"/>
<rect x="527.5" y="594" width="54" height="54" stroke="#00FFFF"/>
<rect x="473.5" y="594" width="54" height="54" stroke="#00FFFF"/>
<rect x="419.5" y="594" width="54" height="54" stroke="#00FFFF"/>
<rect x="365.5" y="594" width="54" height="54" stroke="#00FFFF"/>
<rect x="311.5" y="594" width="54" height="54" stroke="#00FFFF"/>
<rect x="257.5" y="594" width="54" height="54" stroke="#00FFFF"/>
<rect x="203.5" y="594" width="54" height="54" stroke="#00FFFF"/>
<rect x="149.5" y="594" width="54" height="54" stroke="#00FFFF"/>
<rect x="95.5" y="594" width="54" height="54" stroke="#00FFFF"/>
<rect x="730" y="540" width="81" height="54" stroke="#00FFFF"/>
<rect x="676" y="540" width="54" height="54" stroke="#00FFFF"/>
<rect x="622" y="540" width="54" height="54" stroke="#00FFFF"/>
<rect x="568" y="540" width="54" height="54" stroke="#00FFFF"/>
<rect x="514" y="540" width="54" height="54" stroke="#00FFFF"/>
<rect x="460" y="540" width="54" height="54" stroke="#00FFFF"/>
<rect x="406" y="540" width="54" height="54" stroke="#00FFFF"/>
<rect x="352" y="540" width="54" height="54" stroke="#00FFFF"/>
<rect x="298" y="540" width="54" height="54" stroke="#00FFFF"/>
<rect x="244" y="540" width="54" height="54" stroke="#00FFFF"/>
<rect x="190" y="540" width="54" height="54" stroke="#00FFFF"/>
<rect x="136" y="540" width="54" height="54" stroke="#00FFFF"/>
<rect x="82" y="540" width="54" height="54" stroke="#00FFFF"/>
<rect x="55" y="486" width="54" height="54" stroke="#00FFFF"/>
<rect x="109" y="486" width="54" height="54" stroke="#00FFFF"/>
<rect x="163" y="486" width="54" height="54" stroke="#00FFFF"/>
<rect x="217" y="486" width="54" height="54" stroke="#00FFFF"/>
<rect x="271" y="486" width="54" height="54" stroke="#00FFFF"/>
<rect x="325" y="486" width="54" height="54" stroke="#00FFFF"/>
<rect x="379" y="486" width="54" height="54" stroke="#00FFFF"/>
<rect x="433" y="486" width="54" height="54" stroke="#00FFFF"/>
<rect x="487" y="486" width="54" height="54" stroke="#00FFFF"/>
<rect x="541" y="486" width="54" height="54" stroke="#00FFFF"/>
<rect x="595" y="486" width="54" height="54" stroke="#00FFFF"/>
<rect x="649" y="486" width="54" height="54" stroke="#00FFFF"/>
<rect x="1" y="486" width="54" height="54" stroke="#00FFFF"/>
<rect x="217" y="432" width="54" height="54" stroke="#00FFFF"/>
<rect x="163" y="432" width="54" height="54" stroke="#00FFFF"/>
<rect x="109" y="432" width="54" height="54" stroke="#00FFFF"/>
<rect x="55" y="432" width="54" height="54" stroke="#00FFFF"/>
<rect x="433" y="432" width="54" height="54" stroke="#00FFFF"/>
<rect x="379" y="432" width="54" height="54" stroke="#00FFFF"/>
<rect x="325" y="432" width="54" height="54" stroke="#00FFFF"/>
<rect x="271" y="432" width="54" height="54" stroke="#00FFFF"/>
<rect x="649" y="432" width="54" height="54" stroke="#00FFFF"/>
<rect x="595" y="432" width="54" height="54" stroke="#00FFFF"/>
<rect x="541" y="432" width="54" height="54" stroke="#00FFFF"/>
<rect x="487" y="432" width="54" height="54" stroke="#00FFFF"/>
<rect x="541" y="378" width="54" height="54" stroke="#00FFFF"/>
<rect x="487" y="378" width="54" height="54" stroke="#00FFFF"/>
<rect x="433" y="378" width="54" height="54" stroke="#00FFFF"/>
<rect x="487" y="324" width="54" height="54" stroke="#00FFFF"/>
<rect x="703" y="378" width="54" height="54" stroke="#00FFFF"/>
<rect x="595" y="378" width="108" height="54" stroke="#00FFFF"/>
<rect x="757" y="324" width="54" height="108" stroke="#00FFFF"/>
<rect x="703" y="324" width="54" height="54" stroke="#00FFFF"/>
<rect x="649" y="324" width="54" height="54" stroke="#00FFFF"/>
<rect x="595" y="324" width="54" height="54" stroke="#00FFFF"/>
<rect x="703" y="270" width="54" height="54" stroke="#00FFFF"/>
<rect x="595" y="270" width="54" height="54" stroke="#00FFFF"/>
<rect x="757" y="216" width="54" height="108" stroke="#00FFFF"/>
<rect x="703" y="216" width="54" height="54" stroke="#00FFFF"/>
<rect x="649" y="216" width="54" height="54" stroke="#00FFFF"/>
<rect x="595" y="216" width="54" height="54" stroke="#00FFFF"/>
<rect x="757" y="162" width="54" height="54" stroke="#00FFFF"/>
<rect x="703" y="162" width="54" height="54" stroke="#00FFFF"/>
<rect x="649" y="162" width="54" height="54" stroke="#00FFFF"/>
<rect x="595" y="162" width="54" height="54" stroke="#00FFFF"/>
<rect x="649" y="270" width="54" height="54" stroke="#00FFFF"/>
<rect x="541" y="162" width="54" height="54" stroke="#00FFFF"/>
<rect x="487" y="162" width="54" height="54" stroke="#00FFFF"/>
<rect x="433" y="162" width="54" height="54" stroke="#00FFFF"/>
<rect x="541" y="216" width="54" height="54" stroke="#00FFFF"/>
<rect x="487" y="216" width="54" height="54" stroke="#00FFFF"/>
<rect x="433" y="216" width="54" height="54" stroke="#00FFFF"/>
<rect x="541" y="270" width="54" height="54" stroke="#00FFFF"/>
<rect x="487" y="270" width="54" height="54" stroke="#00FFFF"/>
<rect x="433" y="270" width="54" height="54" stroke="#00FFFF"/>
<rect x="595" y="756" width="81" height="54" stroke="#00FFFF"/>
<rect x="676" y="756" width="54" height="54" stroke="#00FFFF"/>
<rect x="730" y="756" width="81" height="54" stroke="#00FFFF"/>
<rect x="136" y="756" width="81" height="54" stroke="#00FFFF"/>
<rect x="82" y="756" width="54" height="54" stroke="#00FFFF"/>
<rect x="1" y="756" width="81" height="54" stroke="#00FFFF"/>
<rect x="1" y="432" width="54" height="54" stroke="#00FFFF"/>
<rect x="757" y="432" width="54" height="54" stroke="#00FFFF"/>
<rect x="703" y="432" width="54" height="54" stroke="#00FFFF"/>
<rect x="541" y="324" width="54" height="54" stroke="#00FFFF"/>
<rect x="433" y="324" width="54" height="54" stroke="#00FFFF"/>
<rect x="379" y="324" width="54" height="54" stroke="#00FFFF"/>
<rect x="379" y="378" width="54" height="54" stroke="#00FFFF"/>
<rect x="298" y="378" width="81" height="54" stroke="#00FFFF"/>
<rect x="298" y="324" width="81" height="54" stroke="#00FFFF"/>
<rect x="217" y="324" width="81" height="108" stroke="#00FFFF"/>
<rect x="176.5" y="378" width="54" height="54" stroke="#00FFFF"/>
<rect x="122.5" y="378" width="54" height="54" stroke="#00FFFF"/>
<rect x="68.5" y="378" width="54" height="54" stroke="#00FFFF"/>
<rect x="1" y="378" width="67.5" height="54" stroke="#00FFFF"/>
<rect x="109" y="324" width="54" height="54" stroke="#00FFFF"/>
<rect x="55" y="324" width="54" height="54" stroke="#00FFFF"/>
<rect x="1" y="324" width="54" height="54" stroke="#00FFFF"/>
<rect x="163" y="324" width="54" height="54" stroke="#00FFFF"/>
<rect x="271" y="270" width="94.5" height="54" stroke="#00FFFF"/>
<rect x="365.5" y="270" width="67.5" height="54" stroke="#00FFFF"/>
<rect x="217" y="270" width="54" height="54" stroke="#00FFFF"/>
<rect x="163" y="270" width="54" height="54" stroke="#00FFFF"/>
<rect x="95.5" y="270" width="67.5" height="54" stroke="#00FFFF"/>
<rect x="1" y="270" width="94.5" height="54" stroke="#00FFFF"/>
<rect x="379" y="162" width="54" height="54" stroke="#00FFFF"/>
<rect x="271" y="162" width="54" height="54" stroke="#00FFFF"/>
<rect x="163" y="162" width="108" height="54" stroke="#00FFFF"/>
<rect x="95.5" y="162" width="67.5" height="54" stroke="#00FFFF"/>
<rect x="217" y="216" width="54" height="54" stroke="#00FFFF"/>
<rect x="163" y="216" width="54" height="54" stroke="#00FFFF"/>
<rect x="95.5" y="216" width="67.5" height="54" stroke="#00FFFF"/>
<rect x="1" y="216" width="94.5" height="54" stroke="#00FFFF"/>
<rect x="1" y="162" width="94.5" height="54" stroke="#00FFFF"/>
<rect x="730" y="54" width="81" height="108" stroke="#00FFFF"/>
<rect x="635.5" y="108" width="54" height="54" stroke="#00FFFF"/>
<rect x="554.5" y="108" width="81" height="54" stroke="#00FFFF"/>
<rect x="446.5" y="108" width="108" height="54" stroke="#00FFFF"/>
<rect x="311.5" y="108" width="81" height="54" stroke="#00FFFF"/>
<rect x="257.5" y="108" width="54" height="54" stroke="#00FFFF"/>
<rect x="163" y="108" width="94.5" height="54" stroke="#00FFFF"/>
<rect x="82" y="108" width="81" height="54" stroke="#00FFFF"/>
<rect x="1" y="108" width="81" height="54" stroke="#00FFFF"/>
<rect x="635.5" y="54" width="94.5" height="54" stroke="#00FFFF"/>
<rect x="527.5" y="54" width="54" height="54" stroke="#00FFFF"/>
<rect x="473.5" y="54" width="54" height="54" stroke="#00FFFF"/>
<rect x="392.5" y="54" width="81" height="54" stroke="#00FFFF"/>
</svg>
