<svg width="812" height="811" viewBox="0 0 812 811" fill="none" xmlns="http://www.w3.org/2000/svg">
<path d="M128.589 500.361L128.471 498.519C128.44 498.097 128.75 497.75 129.197 497.75C129.643 497.75 129.947 498.103 129.916 498.519L129.798 500.361C129.773 500.714 129.525 501.006 129.191 501.006C128.856 501.006 128.608 500.714 128.589 500.361ZM126.177 500.361L126.059 498.519C126.028 498.097 126.344 497.75 126.785 497.75C127.231 497.75 127.535 498.103 127.504 498.519L127.386 500.361C127.361 500.714 127.113 501.006 126.778 501.006C126.443 501.006 126.195 500.714 126.177 500.361Z" fill="#FF00FF"/>
<path d="M125.206 521.004C125.206 520.684 125.376 520.424 125.896 519.884L128.206 517.394C128.886 516.664 129.156 516.194 129.156 515.674C129.156 514.964 128.646 514.494 127.876 514.494C127.246 514.494 126.776 514.844 126.536 515.494C126.336 515.884 126.116 516.054 125.786 516.044C125.416 516.034 125.116 515.714 125.116 515.324C125.116 514.214 126.306 513.124 127.976 513.124C129.646 513.124 130.796 514.134 130.796 515.534C130.796 516.384 130.416 517.084 129.356 518.204L127.536 520.154C127.456 520.244 127.516 520.394 127.636 520.394H130.296C130.776 520.394 131.076 520.654 131.076 521.084C131.076 521.514 130.786 521.764 130.296 521.764H126.106C125.556 521.764 125.206 521.464 125.206 521.014V521.004Z" fill="#FF00FF"/>
<path d="M340.335 501.542C340.335 500.637 340.8 499.912 341.811 499.335C341.858 499.303 341.982 499.235 342.095 499.175C342.178 499.13 342.197 499.018 342.133 498.948C341.474 498.236 341.222 497.735 341.222 497.158C341.222 496.011 342.22 495.174 343.566 495.174C344.918 495.174 345.879 495.98 345.879 497.14C345.879 497.956 345.393 498.615 344.314 499.229C344.234 499.274 344.216 499.382 344.278 499.449L345.71 501.002C345.775 501.073 345.889 501.058 345.925 500.97C346.079 500.592 346.152 500.071 346.152 499.384V499.248C346.152 498.845 346.431 498.553 346.803 498.553C347.181 498.553 347.46 498.845 347.46 499.248V499.453C347.46 500.49 347.236 501.371 346.831 501.998C346.794 502.055 346.8 502.129 346.846 502.178L347.436 502.789C347.553 502.919 347.609 503.068 347.609 503.235C347.609 503.595 347.318 503.893 346.952 503.893C346.766 503.893 346.574 503.812 346.437 503.669L345.929 503.129C345.877 503.074 345.791 503.071 345.732 503.118C345.096 503.63 344.189 503.936 343.237 503.936C341.495 503.936 340.335 502.969 340.335 501.542ZM343.313 498.506C343.356 498.549 343.423 498.559 343.477 498.529C344.222 498.117 344.515 497.764 344.515 497.239C344.515 496.668 344.124 496.271 343.554 496.271C342.989 496.271 342.586 496.668 342.586 497.239C342.586 497.643 342.774 497.967 343.313 498.506ZM342.71 500.091C342.096 500.451 341.83 500.885 341.83 501.425C341.83 502.218 342.468 502.758 343.411 502.758C343.976 502.758 344.542 502.547 344.918 502.204C344.973 502.155 344.973 502.071 344.923 502.017L343.069 499.997C343.029 499.953 342.966 499.941 342.913 499.969C342.837 500.01 342.739 500.067 342.71 500.091Z" fill="#FF00FF"/>
<path d="M341 518.27C341 515.37 342.23 513.75 344.44 513.75C345.18 513.75 345.87 513.94 346.38 514.28C346.81 514.57 347.07 514.96 347.07 515.28C347.07 515.65 346.8 515.91 346.42 515.91C346.19 515.91 346.02 515.84 345.73 515.61C345.3 515.24 344.92 515.08 344.44 515.08C343.427 515.08 342.746 515.832 342.609 517.495C342.599 517.624 342.752 517.699 342.847 517.611C343.176 517.306 343.809 516.86 344.7 516.86C346.26 516.86 347.35 517.98 347.35 519.6C347.35 521.369 346.12 522.549 344.28 522.549C343.2 522.549 342.33 522.129 341.77 521.329C341.26 520.62 341 519.58 341 518.27ZM342.77 519.65C342.77 520.569 343.4 521.229 344.28 521.229C345.16 521.229 345.74 520.599 345.74 519.66C345.74 518.72 345.14 518.11 344.26 518.11C343.38 518.11 342.77 518.75 342.77 519.65Z" fill="#FF00FF"/>
<path d="M397.374 500.361L397.262 498.519C397.231 498.097 397.535 497.75 397.994 497.75C398.446 497.75 398.744 498.103 398.719 498.519L398.608 500.361C398.583 500.714 398.322 501.012 397.987 501.012C397.653 501.012 397.392 500.714 397.374 500.361Z" fill="#FF00FF"/>
<path d="M396.166 521.095C396.166 520.925 396.226 520.765 396.316 520.585L399.146 514.855C399.196 514.765 399.126 514.655 399.016 514.655H395.746C395.226 514.655 394.936 514.385 394.936 513.975C394.936 513.565 395.226 513.285 395.746 513.285H400.086C400.586 513.285 400.946 513.615 400.946 514.125C400.946 514.445 400.836 514.805 400.606 515.265L397.686 521.315C397.506 521.665 397.286 521.845 396.936 521.845C396.496 521.845 396.156 521.545 396.156 521.095H396.166Z" fill="#FF00FF"/>
<path d="M452.341 505.319C452.019 504.903 450.847 503.242 450.847 500.191C450.847 497.245 452.019 495.583 452.341 495.168C452.595 494.845 452.825 494.758 453.023 494.758C453.395 494.758 453.65 495.006 453.65 495.341C453.65 495.54 453.581 495.701 453.501 495.881C453.104 496.736 452.509 498.15 452.509 500.191C452.509 502.336 453.104 503.75 453.501 504.606C453.581 504.786 453.65 504.947 453.65 505.145C453.65 505.48 453.395 505.728 453.023 505.728C452.825 505.728 452.595 505.641 452.341 505.319Z" fill="#FF00FF"/>
<path d="M451.984 521.924C450.034 521.924 448.724 520.934 448.724 519.444C448.724 518.524 449.264 517.724 450.114 517.404C450.224 517.364 450.234 517.204 450.124 517.144C449.444 516.794 449.054 516.144 449.054 515.364C449.064 514.044 450.274 513.124 452.004 513.124C453.734 513.124 454.944 514.044 454.944 515.364C454.944 516.134 454.544 516.794 453.864 517.144C453.754 517.204 453.764 517.354 453.874 517.404C454.724 517.734 455.274 518.534 455.274 519.444C455.274 520.924 453.944 521.934 451.984 521.934V521.924ZM452.004 516.764C452.784 516.764 453.344 516.254 453.344 515.544C453.344 514.834 452.784 514.344 452.004 514.344C451.224 514.344 450.664 514.844 450.664 515.544C450.664 516.244 451.224 516.764 452.004 516.764ZM452.004 520.724C452.944 520.724 453.614 520.134 453.614 519.334C453.614 518.534 452.934 517.934 452.004 517.934C451.074 517.934 450.394 518.524 450.394 519.334C450.394 520.144 451.064 520.724 452.004 520.724Z" fill="#FF00FF"/>
<path d="M505.659 505.319C505.405 505.641 505.182 505.728 504.977 505.728C504.611 505.728 504.351 505.48 504.351 505.145C504.351 504.947 504.419 504.786 504.499 504.606C504.902 503.75 505.492 502.336 505.492 500.191C505.492 498.15 504.902 496.736 504.499 495.881C504.419 495.701 504.351 495.54 504.351 495.341C504.351 495.006 504.611 494.758 504.977 494.758C505.182 494.758 505.405 494.845 505.659 495.168C505.988 495.583 507.16 497.245 507.16 500.191C507.16 503.242 505.988 504.903 505.659 505.319Z" fill="#FF00FF"/>
<path d="M509.218 517.392C509.218 520.291 507.988 521.911 505.778 521.911C505.038 521.911 504.348 521.721 503.838 521.381C503.408 521.091 503.148 520.701 503.148 520.381C503.148 520.011 503.418 519.751 503.798 519.751C504.028 519.751 504.198 519.821 504.488 520.051C504.918 520.421 505.298 520.581 505.778 520.581C506.791 520.581 507.472 519.829 507.609 518.166C507.619 518.037 507.466 517.963 507.371 518.05C507.042 518.355 506.409 518.801 505.518 518.801C503.958 518.801 502.868 517.682 502.868 516.062C502.868 514.292 504.098 513.112 505.938 513.112C507.018 513.112 507.888 513.532 508.448 514.332C508.958 515.042 509.218 516.082 509.218 517.392ZM507.448 516.012C507.448 515.092 506.818 514.432 505.938 514.432C505.058 514.432 504.478 515.062 504.478 516.002C504.478 516.942 505.078 517.552 505.958 517.552C506.838 517.552 507.448 516.912 507.448 516.012Z" fill="#FF00FF"/>
<path d="M556.769 517.725V517.328C556.769 514.786 557.985 513.124 560 513.124C562.022 513.124 563.212 514.767 563.212 517.328V517.725C563.212 520.262 561.984 521.93 559.975 521.93C557.966 521.93 556.769 520.28 556.769 517.725ZM558.444 517.335V517.713C558.444 519.499 559.027 520.565 559.988 520.565C560.949 520.565 561.532 519.499 561.532 517.713V517.335C561.532 515.555 560.949 514.488 559.988 514.488C559.027 514.488 558.444 515.549 558.444 517.335Z" fill="#FF00FF"/>
<path d="M611.011 499.025C611.011 498.634 611.278 498.38 611.755 498.38H616.245C616.722 498.38 616.995 498.634 616.995 499.025C616.995 499.415 616.722 499.676 616.245 499.676H611.755C611.278 499.676 611.011 499.415 611.011 499.025ZM611.011 501.642C611.011 501.251 611.278 500.997 611.755 500.997H616.245C616.722 500.997 616.995 501.245 616.995 501.642C616.995 502.032 616.722 502.293 616.245 502.293H611.755C611.278 502.293 611.011 502.032 611.011 501.642Z" fill="#FF00FF"/>
<path d="M611.836 518.277C611.836 517.837 612.14 517.552 612.673 517.552H615.315C615.848 517.552 616.146 517.837 616.146 518.271C616.146 518.711 615.848 519.003 615.315 519.003H612.673C612.133 519.003 611.836 518.711 611.836 518.277Z" fill="#FF00FF"/>
<path d="M671.888 496.935C671.888 497.835 671.063 498.915 669.683 498.915C668.498 498.915 667.193 497.895 666.428 497.895C665.603 497.895 665.393 498.795 664.763 498.795C664.283 498.795 664.118 498.42 664.118 498.075C664.118 497.175 664.943 496.095 666.233 496.095C667.508 496.095 668.813 497.115 669.578 497.115C670.403 497.115 670.613 496.215 671.243 496.215C671.723 496.215 671.888 496.59 671.888 496.935Z" fill="#FF00FF"/>
<path fill-rule="evenodd" clip-rule="evenodd" d="M667.509 515.121C667.78 514.85 668.22 514.85 668.491 515.121L671.583 518.213C671.854 518.484 671.854 518.924 671.583 519.195C671.312 519.466 670.872 519.466 670.601 519.195L668.099 516.693C668.044 516.638 667.956 516.638 667.901 516.693L665.399 519.195C665.128 519.466 664.688 519.466 664.417 519.195C664.146 518.924 664.146 518.484 664.417 518.213L667.509 515.121Z" fill="#FF00FF"/>
<path d="M601.182 611.062C601.182 611.508 600.897 611.793 600.481 611.793C600.066 611.793 599.781 611.508 599.781 611.062V609.137C599.781 609.059 599.718 608.997 599.641 608.997H597.883C597.437 608.997 597.151 608.724 597.151 608.308C597.151 607.899 597.437 607.62 597.883 607.62H599.641C599.718 607.62 599.781 607.557 599.781 607.48V605.642C599.781 605.202 600.06 604.91 600.481 604.91C600.897 604.91 601.182 605.202 601.182 605.642V607.48C601.182 607.557 601.245 607.62 601.322 607.62H603.104C603.557 607.62 603.842 607.893 603.842 608.308C603.842 608.724 603.557 608.997 603.104 608.997H601.322C601.245 608.997 601.182 609.059 601.182 609.137V611.062Z" fill="#FF00FF"/>
<path d="M599.539 624.715C599.539 624.188 599.973 623.753 600.5 623.753C601.033 623.753 601.461 624.188 601.461 624.715C601.461 625.242 601.033 625.676 600.5 625.676C599.973 625.676 599.539 625.242 599.539 624.715ZM599.34 630.941L599.75 628.975C599.818 628.566 600.146 628.324 600.512 628.324C601.015 628.324 601.38 628.826 601.238 629.279L600.581 631.213C600.494 631.523 600.246 631.691 599.954 631.691C599.533 631.691 599.266 631.319 599.34 630.941Z" fill="#FF00FF"/>
<path d="M654.498 609.126C654.102 609.126 653.796 608.82 653.814 608.37L653.827 607.669C653.829 607.559 653.71 607.489 653.615 607.546L653.022 607.902C652.878 607.992 652.716 608.028 652.572 608.028C652.212 608.028 651.924 607.74 651.924 607.362C651.924 607.074 652.068 606.858 652.338 606.714L652.94 606.387C653.037 606.334 653.037 606.194 652.94 606.141L652.338 605.814C652.068 605.67 651.924 605.454 651.924 605.166C651.924 604.788 652.212 604.5 652.572 604.5C652.716 604.5 652.878 604.536 653.022 604.626L653.613 604.994C653.708 605.052 653.829 604.983 653.827 604.872L653.814 604.158C653.796 603.708 654.102 603.402 654.498 603.402C654.894 603.402 655.2 603.708 655.182 604.158L655.156 604.87C655.152 604.981 655.273 605.053 655.368 604.995L655.974 604.626C656.118 604.536 656.28 604.5 656.424 604.5C656.784 604.5 657.072 604.788 657.072 605.166C657.072 605.454 656.928 605.67 656.658 605.814L656.044 606.14C655.945 606.193 655.945 606.335 656.044 606.387L656.658 606.714C656.928 606.858 657.072 607.074 657.072 607.362C657.072 607.74 656.784 608.028 656.424 608.028C656.28 608.028 656.118 607.992 655.974 607.902L655.366 607.545C655.271 607.489 655.152 607.561 655.156 607.671L655.182 608.37C655.2 608.82 654.894 609.126 654.498 609.126Z" fill="#FF00FF"/>
<path d="M653.539 624.715C653.539 624.188 653.973 623.753 654.5 623.753C655.027 623.753 655.461 624.188 655.461 624.715C655.461 625.242 655.027 625.676 654.5 625.676C653.973 625.676 653.539 625.242 653.539 624.715ZM653.539 628.919C653.539 628.392 653.973 627.958 654.5 627.958C655.027 627.958 655.461 628.392 655.461 628.919C655.461 629.452 655.027 629.886 654.5 629.886C653.973 629.886 653.539 629.452 653.539 628.919Z" fill="#FF00FF"/>
<path d="M640.374 554.361L640.262 552.519C640.231 552.097 640.535 551.75 640.994 551.75C641.446 551.75 641.744 552.103 641.719 552.519L641.608 554.361C641.583 554.714 641.322 555.012 640.987 555.012C640.653 555.012 640.392 554.714 640.374 554.361Z" fill="#FF00FF"/>
<path d="M640.925 573.569C641.645 573.569 642.115 572.969 642.115 571.999C642.115 571.029 641.655 570.459 640.935 570.459C640.215 570.459 639.785 571.039 639.785 572.009C639.785 572.979 640.205 573.569 640.925 573.569ZM635.945 571.999C635.945 568.849 638.075 566.789 641.155 566.789C644.065 566.789 646.135 568.619 646.135 571.429C646.135 573.299 645.235 574.599 643.765 574.599C642.932 574.599 642.565 574.23 642.413 573.984C642.362 573.901 642.245 573.893 642.183 573.969C641.984 574.214 641.533 574.599 640.665 574.599C639.385 574.599 638.515 573.539 638.515 571.979C638.515 570.419 639.375 569.419 640.605 569.419C641.332 569.419 641.758 569.677 641.981 569.879C642.059 569.95 642.185 569.913 642.213 569.812C642.221 569.78 642.233 569.748 642.247 569.718C642.328 569.553 642.486 569.419 642.765 569.419C643.125 569.419 643.345 569.639 643.345 570.029V572.959C643.345 573.389 643.575 573.639 643.995 573.639C644.645 573.639 645.085 572.769 645.085 571.529C645.085 569.079 643.365 567.709 641.145 567.709C638.645 567.709 636.985 569.469 636.985 572.029C636.985 574.589 638.755 576.209 641.415 576.209C641.975 576.209 642.365 576.139 642.855 576.019C642.955 575.999 643.035 575.999 643.105 575.999C643.385 575.999 643.545 576.149 643.545 576.379C643.545 576.609 643.415 576.779 643.065 576.899C642.635 577.039 641.995 577.139 641.215 577.139C638.135 577.139 635.945 575.199 635.945 571.989V571.999Z" fill="#FF00FF"/>
<path d="M693.97 557.489V556.019C693.97 555.079 693.66 554.969 693.33 554.869C693.04 554.779 692.78 554.599 692.78 554.129C692.78 553.619 693.08 553.449 693.35 553.369C693.65 553.279 693.97 553.159 693.97 552.229V550.999C693.97 549.409 694.86 548.839 696.14 548.839C696.66 548.839 697.1 548.929 697.1 549.469C697.1 549.829 696.91 549.959 696.51 550.039C696.03 550.139 695.52 550.179 695.52 551.249V552.679C695.52 553.359 695.28 553.799 694.83 554.009C694.72 554.059 694.72 554.209 694.83 554.269C695.29 554.499 695.53 554.979 695.53 555.659V557.269C695.53 558.349 696.04 558.389 696.52 558.479C696.92 558.559 697.11 558.689 697.11 559.039C697.11 559.369 696.85 559.639 696.52 559.659C695.04 559.779 693.98 559.229 693.98 557.489H693.97Z" fill="#FF00FF"/>
<path d="M693.685 576.705V567.819C693.685 567.186 694.057 566.839 694.696 566.839H696.439C696.867 566.839 697.102 567.081 697.102 567.453C697.102 567.819 696.867 568.06 696.439 568.06H695.388C695.311 568.06 695.248 568.123 695.248 568.2V576.323C695.248 576.4 695.311 576.463 695.388 576.463H696.439C696.867 576.463 697.102 576.705 697.102 577.077C697.102 577.443 696.867 577.685 696.439 577.685H694.696C694.057 577.685 693.685 577.337 693.685 576.705Z" fill="#FF00FF"/>
<path d="M73.262 450.928V441.595C73.262 441.044 73.5844 440.777 73.9999 440.777C74.4154 440.777 74.7378 441.044 74.7378 441.595V450.928C74.7378 451.48 74.4154 451.747 73.9999 451.747C73.5844 451.747 73.262 451.48 73.262 450.928Z" fill="#FF00FF"/>
<path d="M74.8251 467.105C74.7816 467.614 74.391 467.849 73.9942 467.849C73.5973 467.849 73.2067 467.614 73.1633 467.105V466.447C73.1633 466.369 73.0998 466.305 73.0215 466.305H71.8735C71.5325 466.305 71.3155 466.126 71.3155 465.822C71.3155 465.524 71.5325 465.35 71.8735 465.35H73.0339C73.1122 465.35 73.1757 465.287 73.1757 465.209V464.804C73.1757 464.726 73.1122 464.662 73.0339 464.662H71.8735C71.5325 464.662 71.3155 464.482 71.3155 464.185C71.3155 463.881 71.5325 463.707 71.8735 463.707H72.5226C72.6327 463.707 72.7007 463.587 72.6442 463.493L70.9868 460.725C70.7574 460.347 70.7202 460.179 70.7202 460.012C70.7202 459.553 71.0551 459.249 71.5325 459.249C71.8797 459.249 72.1092 459.441 72.3386 459.888L73.8715 462.666C73.9252 462.763 74.065 462.763 74.1193 462.666L75.6745 459.888C75.8606 459.54 76.0838 459.249 76.4868 459.249C76.9519 459.249 77.2805 459.571 77.2805 459.981C77.2805 460.223 77.1751 460.421 76.9829 460.75L75.3438 463.493C75.2874 463.587 75.3554 463.707 75.4655 463.707H76.152C76.493 463.707 76.7101 463.881 76.7101 464.185C76.7101 464.482 76.493 464.662 76.152 464.662H74.9544C74.8761 464.662 74.8126 464.726 74.8126 464.804V465.209C74.8126 465.287 74.8761 465.35 74.9544 465.35H76.152C76.493 465.35 76.7101 465.524 76.7101 465.822C76.7101 466.126 76.493 466.305 76.152 466.305H74.9668C74.8885 466.305 74.8251 466.369 74.8251 466.447V467.105Z" fill="#FF00FF"/>
<path d="M398.657 415.226L395.978 405.732C395.96 405.676 395.941 405.577 395.941 405.484C395.929 405.099 396.245 404.777 396.648 404.777C396.983 404.777 397.256 404.975 397.349 405.298L400.022 414.798C400.04 414.848 400.059 414.953 400.065 415.04C400.071 415.424 399.761 415.747 399.352 415.747C399.017 415.747 398.744 415.548 398.657 415.226Z" fill="#FF00FF"/>
<path fill-rule="evenodd" clip-rule="evenodd" d="M394.32 386.994C394.419 386.972 394.523 386.96 394.63 386.96H395.1C395.493 386.96 395.81 386.642 395.81 386.25C395.81 385.858 395.493 385.54 395.1 385.54H394.63C394.419 385.54 394.212 385.563 394.013 385.607C393.63 385.692 393.388 386.072 393.473 386.454C393.558 386.837 393.938 387.079 394.32 386.994ZM397.53 385.54C397.137 385.54 396.82 385.858 396.82 386.25C396.82 386.642 397.137 386.96 397.53 386.96H398.47C398.863 386.96 399.18 386.642 399.18 386.25C399.18 385.858 398.863 385.54 398.47 385.54H397.53ZM400.9 385.54C400.507 385.54 400.19 385.858 400.19 386.25C400.19 386.642 400.507 386.96 400.9 386.96H401.37C401.477 386.96 401.581 386.972 401.68 386.994C402.063 387.079 402.442 386.837 402.527 386.454C402.612 386.072 402.37 385.692 401.987 385.607C401.788 385.563 401.581 385.54 401.37 385.54H400.9ZM393.244 388.07C393.329 387.688 393.087 387.308 392.704 387.223C392.322 387.138 391.942 387.38 391.857 387.763C391.813 387.962 391.79 388.169 391.79 388.38V388.85C391.79 389.243 392.108 389.56 392.5 389.56C392.892 389.56 393.21 389.243 393.21 388.85V388.38C393.21 388.273 393.222 388.169 393.244 388.07ZM404.143 387.763C404.058 387.38 403.678 387.138 403.296 387.223C402.913 387.308 402.671 387.688 402.756 388.07C402.778 388.169 402.79 388.273 402.79 388.38V388.85C402.79 389.243 403.108 389.56 403.5 389.56C403.892 389.56 404.21 389.243 404.21 388.85V388.38C404.21 388.169 404.187 387.962 404.143 387.763ZM404.21 391.28C404.21 390.887 403.892 390.57 403.5 390.57C403.108 390.57 402.79 390.887 402.79 391.28V392.22C402.79 392.613 403.108 392.93 403.5 392.93C403.892 392.93 404.21 392.613 404.21 392.22V391.28ZM393.21 391.28C393.21 390.887 392.892 390.57 392.5 390.57C392.108 390.57 391.79 390.887 391.79 391.28V392.22C391.79 392.613 392.108 392.93 392.5 392.93C392.892 392.93 393.21 392.613 393.21 392.22V391.28ZM404.21 394.65C404.21 394.257 403.892 393.94 403.5 393.94C403.108 393.94 402.79 394.257 402.79 394.65V395.12C402.79 395.227 402.778 395.331 402.756 395.43C402.671 395.813 402.913 396.192 403.296 396.277C403.678 396.362 404.058 396.12 404.143 395.737C404.187 395.538 404.21 395.331 404.21 395.12V394.65ZM393.21 394.65C393.21 394.257 392.892 393.94 392.5 393.94C392.108 393.94 391.79 394.257 391.79 394.65V395.12C391.79 395.331 391.813 395.538 391.857 395.737C391.942 396.12 392.322 396.362 392.704 396.277C393.087 396.192 393.329 395.813 393.244 395.43C393.222 395.331 393.21 395.227 393.21 395.12V394.65ZM394.32 396.506C393.938 396.421 393.558 396.663 393.473 397.046C393.388 397.428 393.63 397.808 394.013 397.893C394.212 397.937 394.419 397.96 394.63 397.96H395.1C395.493 397.96 395.81 397.642 395.81 397.25C395.81 396.858 395.493 396.54 395.1 396.54H394.63C394.523 396.54 394.419 396.528 394.32 396.506ZM401.987 397.893C402.37 397.808 402.612 397.428 402.527 397.046C402.442 396.663 402.063 396.421 401.68 396.506C401.581 396.528 401.477 396.54 401.37 396.54H400.9C400.507 396.54 400.19 396.858 400.19 397.25C400.19 397.642 400.507 397.96 400.9 397.96H401.37C401.581 397.96 401.788 397.937 401.987 397.893ZM397.53 396.54C397.137 396.54 396.82 396.858 396.82 397.25C396.82 397.642 397.137 397.96 397.53 397.96H398.47C398.863 397.96 399.18 397.642 399.18 397.25C399.18 396.858 398.863 396.54 398.47 396.54H397.53ZM395.085 399.38C394.693 399.38 394.375 399.698 394.375 400.09C394.375 400.482 394.693 400.8 395.085 400.8H400.925C401.317 400.8 401.635 400.482 401.635 400.09C401.635 399.698 401.317 399.38 400.925 399.38H395.085Z" fill="#FF00FF"/>
<path d="M196.53 395.499V394.029C196.53 393.089 196.84 392.979 197.17 392.879C197.46 392.789 197.72 392.609 197.72 392.139C197.72 391.629 197.42 391.459 197.15 391.379C196.85 391.289 196.53 391.169 196.53 390.239V389.009C196.53 387.419 195.64 386.849 194.36 386.849C193.84 386.849 193.4 386.939 193.4 387.479C193.4 387.839 193.59 387.969 193.99 388.049C194.47 388.149 194.98 388.189 194.98 389.259V390.689C194.98 391.369 195.22 391.809 195.67 392.019C195.78 392.069 195.78 392.219 195.67 392.279C195.21 392.509 194.97 392.989 194.97 393.669V395.279C194.97 396.359 194.46 396.399 193.98 396.489C193.58 396.569 193.39 396.699 193.39 397.049C193.39 397.379 193.65 397.649 193.98 397.669C195.46 397.789 196.52 397.239 196.52 395.499H196.53Z" fill="#FF00FF"/>
<path d="M193.404 415.077C193.404 414.705 193.633 414.463 194.061 414.463H195.118C195.196 414.463 195.258 414.4 195.258 414.323V406.2C195.258 406.123 195.196 406.06 195.118 406.06H194.061C193.633 406.06 193.404 405.819 193.404 405.453C193.404 405.081 193.633 404.839 194.061 404.839H195.804C196.449 404.839 196.821 405.186 196.821 405.819V414.705C196.821 415.337 196.449 415.685 195.804 415.685H194.061C193.633 415.685 193.404 415.443 193.404 415.077Z" fill="#FF00FF"/>
<rect x="743.5" y="702" width="67.5" height="54" stroke="#00FFFF"/>
<rect x="676" y="702" width="67.5" height="54" stroke="#00FFFF"/>
<rect x="608.5" y="702" width="67.5" height="54" stroke="#00FFFF"/>
<rect x="541" y="702" width="67.5" height="54" stroke="#00FFFF"/>
<rect x="136" y="702" width="67.5" height="54" stroke="#00FFFF"/>
<rect x="68.5" y="702" width="67.5" height="54" stroke="#00FFFF"/>
<rect x="1" y="702" width="67.5" height="54" stroke="#00FFFF"/>
<rect x="662.5" y="648" width="148.5" height="54" stroke="#00FFFF"/>
<rect x="1" y="648" width="121.5" height="54" stroke="#00FFFF"/>
<rect x="689.5" y="594" width="121.5" height="54" stroke="#00FFFF"/>
<rect x="1" y="594" width="94.5" height="54" stroke="#00FFFF"/>
<rect x="1" y="540" width="81" height="54" stroke="#00FFFF"/>
<rect x="703" y="486" width="108" height="54" stroke="#00FFFF"/>
<rect x="608.5" y="648" width="54" height="54" stroke="#00FFFF"/>
<rect x="554.5" y="648" width="54" height="54" stroke="#00FFFF"/>
<rect x="500.5" y="648" width="54" height="54" stroke="#00FFFF"/>
<rect x="446.5" y="648" width="54" height="54" stroke="#00FFFF"/>
<rect x="392.5" y="648" width="54" height="54" stroke="#00FFFF"/>
<rect x="338.5" y="648" width="54" height="54" stroke="#00FFFF"/>
<rect x="284.5" y="648" width="54" height="54" stroke="#00FFFF"/>
<rect x="230.5" y="648" width="54" height="54" stroke="#00FFFF"/>
<rect x="176.5" y="648" width="54" height="54" stroke="#00FFFF"/>
<rect x="122.5" y="648" width="54" height="54" stroke="#00FFFF"/>
<rect x="635.5" y="594" width="54" height="54" stroke="#00FFFF"/>
<rect x="581.5" y="594" width="54" height="54" stroke="#00FFFF"/>
<rect x="527.5" y="594" width="54" height="54" stroke="#00FFFF"/>
<rect x="473.5" y="594" width="54" height="54" stroke="#00FFFF"/>
<rect x="419.5" y="594" width="54" height="54" stroke="#00FFFF"/>
<rect x="365.5" y="594" width="54" height="54" stroke="#00FFFF"/>
<rect x="311.5" y="594" width="54" height="54" stroke="#00FFFF"/>
<rect x="257.5" y="594" width="54" height="54" stroke="#00FFFF"/>
<rect x="203.5" y="594" width="54" height="54" stroke="#00FFFF"/>
<rect x="149.5" y="594" width="54" height="54" stroke="#00FFFF"/>
<rect x="95.5" y="594" width="54" height="54" stroke="#00FFFF"/>
<rect x="730" y="540" width="81" height="54" stroke="#00FFFF"/>
<rect x="676" y="540" width="54" height="54" stroke="#00FFFF"/>
<rect x="622" y="540" width="54" height="54" stroke="#00FFFF"/>
<rect x="568" y="540" width="54" height="54" stroke="#00FFFF"/>
<rect x="514" y="540" width="54" height="54" stroke="#00FFFF"/>
<rect x="460" y="540" width="54" height="54" stroke="#00FFFF"/>
<rect x="406" y="540" width="54" height="54" stroke="#00FFFF"/>
<rect x="352" y="540" width="54" height="54" stroke="#00FFFF"/>
<rect x="298" y="540" width="54" height="54" stroke="#00FFFF"/>
<rect x="244" y="540" width="54" height="54" stroke="#00FFFF"/>
<rect x="190" y="540" width="54" height="54" stroke="#00FFFF"/>
<rect x="136" y="540" width="54" height="54" stroke="#00FFFF"/>
<rect x="82" y="540" width="54" height="54" stroke="#00FFFF"/>
<rect x="55" y="486" width="54" height="54" stroke="#00FFFF"/>
<rect x="109" y="486" width="54" height="54" stroke="#00FFFF"/>
<rect x="163" y="486" width="54" height="54" stroke="#00FFFF"/>
<rect x="217" y="486" width="54" height="54" stroke="#00FFFF"/>
<rect x="271" y="486" width="54" height="54" stroke="#00FFFF"/>
<rect x="325" y="486" width="54" height="54" stroke="#00FFFF"/>
<rect x="379" y="486" width="54" height="54" stroke="#00FFFF"/>
<rect x="433" y="486" width="54" height="54" stroke="#00FFFF"/>
<rect x="487" y="486" width="54" height="54" stroke="#00FFFF"/>
<rect x="541" y="486" width="54" height="54" stroke="#00FFFF"/>
<rect x="595" y="486" width="54" height="54" stroke="#00FFFF"/>
<rect x="649" y="486" width="54" height="54" stroke="#00FFFF"/>
<rect x="1" y="486" width="54" height="54" stroke="#00FFFF"/>
<rect x="217" y="432" width="54" height="54" stroke="#00FFFF"/>
<rect x="163" y="432" width="54" height="54" stroke="#00FFFF"/>
<rect x="109" y="432" width="54" height="54" stroke="#00FFFF"/>
<rect x="55" y="432" width="54" height="54" stroke="#00FFFF"/>
<rect x="433" y="432" width="54" height="54" stroke="#00FFFF"/>
<rect x="379" y="432" width="54" height="54" stroke="#00FFFF"/>
<rect x="325" y="432" width="54" height="54" stroke="#00FFFF"/>
<rect x="271" y="432" width="54" height="54" stroke="#00FFFF"/>
<rect x="649" y="432" width="54" height="54" stroke="#00FFFF"/>
<rect x="595" y="432" width="54" height="54" stroke="#00FFFF"/>
<rect x="541" y="432" width="54" height="54" stroke="#00FFFF"/>
<rect x="487" y="432" width="54" height="54" stroke="#00FFFF"/>
<rect x="541" y="378" width="54" height="54" stroke="#00FFFF"/>
<rect x="487" y="378" width="54" height="54" stroke="#00FFFF"/>
<rect x="433" y="378" width="54" height="54" stroke="#00FFFF"/>
<rect x="487" y="324" width="54" height="54" stroke="#00FFFF"/>
<rect x="703" y="378" width="54" height="54" stroke="#00FFFF"/>
<rect x="595" y="378" width="108" height="54" stroke="#00FFFF"/>
<rect x="757" y="324" width="54" height="108" stroke="#00FFFF"/>
<rect x="703" y="324" width="54" height="54" stroke="#00FFFF"/>
<rect x="649" y="324" width="54" height="54" stroke="#00FFFF"/>
<rect x="595" y="324" width="54" height="54" stroke="#00FFFF"/>
<rect x="703" y="270" width="54" height="54" stroke="#00FFFF"/>
<rect x="595" y="270" width="54" height="54" stroke="#00FFFF"/>
<rect x="757" y="216" width="54" height="108" stroke="#00FFFF"/>
<rect x="703" y="216" width="54" height="54" stroke="#00FFFF"/>
<rect x="649" y="216" width="54" height="54" stroke="#00FFFF"/>
<rect x="595" y="216" width="54" height="54" stroke="#00FFFF"/>
<rect x="757" y="162" width="54" height="54" stroke="#00FFFF"/>
<rect x="703" y="162" width="54" height="54" stroke="#00FFFF"/>
<rect x="649" y="162" width="54" height="54" stroke="#00FFFF"/>
<rect x="595" y="162" width="54" height="54" stroke="#00FFFF"/>
<rect x="649" y="270" width="54" height="54" stroke="#00FFFF"/>
<rect x="541" y="162" width="54" height="54" stroke="#00FFFF"/>
<rect x="487" y="162" width="54" height="54" stroke="#00FFFF"/>
<rect x="433" y="162" width="54" height="54" stroke="#00FFFF"/>
<rect x="541" y="216" width="54" height="54" stroke="#00FFFF"/>
<rect x="487" y="216" width="54" height="54" stroke="#00FFFF"/>
<rect x="433" y="216" width="54" height="54" stroke="#00FFFF"/>
<rect x="541" y="270" width="54" height="54" stroke="#00FFFF"/>
<rect x="487" y="270" width="54" height="54" stroke="#00FFFF"/>
<rect x="433" y="270" width="54" height="54" stroke="#00FFFF"/>
<rect x="595" y="756" width="81" height="54" stroke="#00FFFF"/>
<rect x="676" y="756" width="54" height="54" stroke="#00FFFF"/>
<rect x="730" y="756" width="81" height="54" stroke="#00FFFF"/>
<rect x="136" y="756" width="81" height="54" stroke="#00FFFF"/>
<rect x="82" y="756" width="54" height="54" stroke="#00FFFF"/>
<rect x="1" y="756" width="81" height="54" stroke="#00FFFF"/>
<rect x="1" y="432" width="54" height="54" stroke="#00FFFF"/>
<rect x="757" y="432" width="54" height="54" stroke="#00FFFF"/>
<rect x="703" y="432" width="54" height="54" stroke="#00FFFF"/>
<rect x="541" y="324" width="54" height="54" stroke="#00FFFF"/>
<rect x="433" y="324" width="54" height="54" stroke="#00FFFF"/>
<rect x="379" y="324" width="54" height="54" stroke="#00FFFF"/>
<rect x="379" y="378" width="54" height="54" stroke="#00FFFF"/>
<rect x="298" y="378" width="81" height="54" stroke="#00FFFF"/>
<rect x="298" y="324" width="81" height="54" stroke="#00FFFF"/>
<rect x="217" y="324" width="81" height="108" stroke="#00FFFF"/>
<rect x="176.5" y="378" width="54" height="54" stroke="#00FFFF"/>
<rect x="122.5" y="378" width="54" height="54" stroke="#00FFFF"/>
<rect x="68.5" y="378" width="54" height="54" stroke="#00FFFF"/>
<rect x="1" y="378" width="67.5" height="54" stroke="#00FFFF"/>
<rect x="109" y="324" width="54" height="54" stroke="#00FFFF"/>
<rect x="55" y="324" width="54" height="54" stroke="#00FFFF"/>
<rect x="1" y="324" width="54" height="54" stroke="#00FFFF"/>
<rect x="163" y="324" width="54" height="54" stroke="#00FFFF"/>
<rect x="271" y="270" width="94.5" height="54" stroke="#00FFFF"/>
<rect x="365.5" y="270" width="67.5" height="54" stroke="#00FFFF"/>
<rect x="217" y="270" width="54" height="54" stroke="#00FFFF"/>
<rect x="163" y="270" width="54" height="54" stroke="#00FFFF"/>
<rect x="95.5" y="270" width="67.5" height="54" stroke="#00FFFF"/>
<rect x="1" y="270" width="94.5" height="54" stroke="#00FFFF"/>
<rect x="379" y="162" width="54" height="54" stroke="#00FFFF"/>
<rect x="271" y="162" width="54" height="54" stroke="#00FFFF"/>
<rect x="163" y="162" width="108" height="54" stroke="#00FFFF"/>
<rect x="95.5" y="162" width="67.5" height="54" stroke="#00FFFF"/>
<rect x="217" y="216" width="54" height="54" stroke="#00FFFF"/>
<rect x="163" y="216" width="54" height="54" stroke="#00FFFF"/>
<rect x="95.5" y="216" width="67.5" height="54" stroke="#00FFFF"/>
<rect x="1" y="216" width="94.5" height="54" stroke="#00FFFF"/>
<rect x="1" y="162" width="94.5" height="54" stroke="#00FFFF"/>
<rect x="730" y="54" width="81" height="108" stroke="#00FFFF"/>
<rect x="635.5" y="108" width="54" height="54" stroke="#00FFFF"/>
<rect x="554.5" y="108" width="81" height="54" stroke="#00FFFF"/>
<rect x="446.5" y="108" width="108" height="54" stroke="#00FFFF"/>
<rect x="311.5" y="108" width="81" height="54" stroke="#00FFFF"/>
<rect x="257.5" y="108" width="54" height="54" stroke="#00FFFF"/>
<rect x="163" y="108" width="94.5" height="54" stroke="#00FFFF"/>
<rect x="82" y="108" width="81" height="54" stroke="#00FFFF"/>
<rect x="1" y="108" width="81" height="54" stroke="#00FFFF"/>
<rect x="635.5" y="54" width="94.5" height="54" stroke="#00FFFF"/>
<rect x="527.5" y="54" width="54" height="54" stroke="#00FFFF"/>
<rect x="473.5" y="54" width="54" height="54" stroke="#00FFFF"/>
<rect x="392.5" y="54" width="81" height="54" stroke="#00FFFF"/>
</svg>
