<svg width="812" height="811" viewBox="0 0 812 811" fill="none" xmlns="http://www.w3.org/2000/svg">
<path d="M137.44 666.697C137.44 666.24 137.625 665.906 138.46 664.808L143.401 658.071C143.47 657.977 143.403 657.846 143.287 657.846H138.662C138.055 657.846 137.651 657.459 137.651 656.879C137.651 656.29 138.064 655.903 138.662 655.903H144.965C145.738 655.903 146.222 656.351 146.222 657.072C146.222 657.538 146.019 657.916 145.193 659.023L140.338 665.734C140.27 665.828 140.337 665.959 140.453 665.959H145.483C146.072 665.959 146.485 666.355 146.485 666.935C146.485 667.506 146.063 667.902 145.474 667.902H138.741C137.967 667.902 137.44 667.41 137.44 666.697Z" fill="#FF00FF"/>
<path d="M191.44 666.915C191.44 666.651 191.545 666.405 191.818 666.019L194.646 662.017C194.715 661.919 194.715 661.787 194.645 661.689L191.835 657.766C191.572 657.414 191.458 657.142 191.458 656.861C191.458 656.246 191.95 655.789 192.618 655.789C193.083 655.789 193.33 655.973 193.848 656.711L196.186 660.197C196.242 660.281 196.367 660.28 196.422 660.195L198.691 656.711C199.165 655.991 199.429 655.789 199.903 655.789C200.554 655.789 201.037 656.246 201.037 656.861C201.037 657.133 200.932 657.379 200.659 657.757L197.774 661.781C197.702 661.881 197.704 662.017 197.778 662.116L200.694 666.019C200.958 666.361 201.064 666.634 201.064 666.915C201.064 667.53 200.571 667.987 199.903 667.987C199.446 667.987 199.236 667.829 198.673 667.064L196.303 663.676C196.246 663.595 196.125 663.596 196.069 663.678L193.787 667.064C193.268 667.803 193.031 667.987 192.574 667.987C191.915 667.987 191.44 667.53 191.44 666.915Z" fill="#FF00FF"/>
<path d="M245.44 662.635V661.097C245.44 657.696 247.277 655.674 250.45 655.674C251.97 655.674 253.271 656.14 254.124 656.984C254.712 657.564 255.073 658.285 255.073 658.821C255.073 659.418 254.668 659.805 254.088 659.805C253.667 659.805 253.368 659.638 252.99 659.172C252.322 658.17 251.592 657.713 250.582 657.713C248.815 657.713 247.822 658.979 247.822 661.194V662.556C247.822 664.859 248.797 666.116 250.582 666.116C251.601 666.116 252.401 665.659 253.034 664.674C253.412 664.208 253.675 664.05 254.08 664.05C254.686 664.05 255.082 664.437 255.082 665.026C255.082 665.659 254.633 666.432 253.93 667.021C253.086 667.75 251.9 668.155 250.45 668.155C247.242 668.155 245.44 666.151 245.44 662.635Z" fill="#FF00FF"/>
<path d="M304.423 664.989C304.465 665.121 304.652 665.12 304.694 664.988L307.208 656.966C307.454 656.131 307.815 655.789 308.448 655.789C309.124 655.789 309.616 656.219 309.616 656.852C309.616 657.089 309.537 657.485 309.432 657.81L306.461 666.334C306.075 667.494 305.521 667.986 304.546 667.986C303.553 667.986 302.981 667.485 302.595 666.334L299.633 657.81C299.51 657.449 299.44 657.107 299.44 656.861C299.44 656.228 299.941 655.789 300.626 655.789C301.241 655.789 301.628 656.158 301.874 656.966L304.423 664.989Z" fill="#FF00FF"/>
<path d="M360.716 661.507C360.716 661.447 360.753 661.393 360.81 661.372C361.867 660.983 362.492 660.072 362.492 658.856C362.492 657.045 361.121 655.903 358.941 655.903H355.522C354.459 655.903 353.94 656.413 353.94 657.423V666.38C353.94 667.399 354.459 667.9 355.522 667.9H358.932C361.472 667.9 363.107 666.573 363.107 664.516C363.107 663.019 362.222 661.935 360.831 661.648C360.764 661.634 360.716 661.576 360.716 661.507ZM356.295 657.829C356.295 657.751 356.359 657.687 356.437 657.687H358.396C359.504 657.687 360.154 658.285 360.154 659.26C360.154 660.306 359.451 660.895 357.86 660.895H356.437C356.359 660.895 356.295 660.832 356.295 660.753V657.829ZM358.053 666.116H356.437C356.359 666.116 356.295 666.053 356.295 665.974V662.689C356.295 662.611 356.359 662.548 356.437 662.548H358.546C359.934 662.548 360.69 663.242 360.69 664.376C360.69 665.518 359.925 666.116 358.053 666.116Z" fill="#FF00FF"/>
<path d="M410.163 666.73C410.163 667.521 409.759 667.987 409.056 667.987C408.353 667.987 407.94 667.512 407.94 666.73V657.247C407.94 656.307 408.353 655.815 409.161 655.815C409.733 655.815 410.067 656.14 410.559 656.87L415 663.633C415.078 663.751 415.26 663.696 415.26 663.556V657.072C415.26 656.281 415.665 655.815 416.368 655.815C417.071 655.815 417.493 656.29 417.493 657.072V666.607C417.493 667.503 417.088 667.987 416.333 667.987C415.761 667.987 415.427 667.749 414.909 666.967L410.424 660.125C410.346 660.007 410.163 660.062 410.163 660.202V666.73Z" fill="#FF00FF"/>
<path d="M462.995 667.987C462.3 667.987 461.94 667.556 461.94 666.73V657.335C461.94 656.377 462.476 655.797 463.328 655.797C464.093 655.797 464.541 656.158 464.954 657.239L467.688 664C467.735 664.118 467.903 664.118 467.951 664L470.675 657.23C471.089 656.14 471.528 655.797 472.31 655.797C473.18 655.797 473.681 656.36 473.681 657.335V666.73C473.681 667.538 473.294 667.987 472.6 667.987C471.915 667.987 471.554 667.556 471.554 666.73V660.448C471.554 660.292 471.34 660.25 471.281 660.394L469.041 665.886C468.716 666.712 468.355 666.976 467.819 666.976C467.274 666.976 466.914 666.695 466.589 665.886L464.348 660.394C464.29 660.25 464.075 660.292 464.075 660.448V666.73C464.075 667.538 463.689 667.987 462.995 667.987Z" fill="#FF00FF"/>
<path fill-rule="evenodd" clip-rule="evenodd" d="M522.892 657.216C522.595 656.818 522.031 656.737 521.633 657.034L516.29 661.029C516.062 661.199 515.929 661.466 515.929 661.75C515.929 662.034 516.062 662.301 516.29 662.471L521.633 666.466C522.031 666.763 522.595 666.682 522.892 666.284C523.19 665.886 523.108 665.322 522.71 665.025L518.481 661.862C518.406 661.806 518.406 661.694 518.481 661.638L522.71 658.475C523.108 658.178 523.19 657.614 522.892 657.216Z" fill="#FF00FF"/>
<path d="M518.576 684.68L518.985 682.721C519.06 682.287 519.401 682.063 519.761 682.063C520.269 682.063 520.623 682.541 520.474 683.025L519.816 684.959C519.73 685.269 519.488 685.437 519.19 685.437C518.775 685.437 518.502 685.09 518.576 684.68Z" fill="#FF00FF"/>
<path fill-rule="evenodd" clip-rule="evenodd" d="M570.108 657.216C570.406 656.818 570.969 656.737 571.367 657.034L576.71 661.029C576.938 661.199 577.071 661.466 577.071 661.75C577.071 662.034 576.938 662.301 576.71 662.471L571.367 666.466C570.969 666.763 570.406 666.682 570.108 666.284C569.81 665.886 569.892 665.322 570.29 665.025L574.519 661.862C574.594 661.806 574.594 661.694 574.519 661.638L570.29 658.475C569.892 658.178 569.81 657.614 570.108 657.216Z" fill="#FF00FF"/>
<path d="M572.533 682.919C572.533 682.392 572.967 681.958 573.494 681.958C574.027 681.958 574.461 682.392 574.461 682.919C574.461 683.452 574.027 683.887 573.494 683.887C572.967 683.887 572.533 683.452 572.533 682.919Z" fill="#FF00FF"/>
<path d="M626.576 666.68L626.985 664.721C627.06 664.287 627.401 664.063 627.761 664.063C628.269 664.063 628.623 664.541 628.474 665.025L627.816 666.959C627.73 667.269 627.488 667.437 627.19 667.437C626.775 667.437 626.502 667.09 626.576 666.68Z" fill="#FF00FF"/>
<path d="M626.533 682.919C626.533 682.392 626.967 681.958 627.494 681.958C628.027 681.958 628.461 682.392 628.461 682.919C628.461 683.452 628.027 683.887 627.494 683.887C626.967 683.887 626.533 683.452 626.533 682.919Z" fill="#FF00FF"/>
<path d="M111.54 614.006C110.89 614.006 110.44 613.606 110.44 613.016C110.44 612.776 110.5 612.506 110.65 612.056L113.68 603.386C114.06 602.266 114.59 601.806 115.6 601.806C116.61 601.806 117.12 602.266 117.5 603.386L120.52 612.056C120.64 612.436 120.7 612.726 120.7 612.966C120.7 613.596 120.25 614.006 119.58 614.006C118.94 614.006 118.57 613.676 118.33 612.856L117.69 610.916C117.67 610.856 117.62 610.816 117.56 610.816H113.56C113.5 610.816 113.44 610.856 113.43 610.916L112.79 612.856C112.54 613.686 112.19 614.006 111.56 614.006H111.54ZM114.16 609.046H116.94C117.04 609.046 117.1 608.956 117.08 608.866L115.7 604.446C115.66 604.316 115.47 604.316 115.43 604.446L114.04 608.866C114.01 608.956 114.08 609.046 114.18 609.046H114.16Z" fill="#FF00FF"/>
<path d="M164.44 611.43C164.44 610.832 164.853 610.41 165.389 610.41C165.785 610.41 166.11 610.577 166.532 611.034C167.208 611.817 168.105 612.221 169.151 612.221C170.557 612.221 171.357 611.658 171.357 610.683C171.357 609.874 170.794 609.373 169.494 609.066L167.701 608.626C165.635 608.152 164.607 607.053 164.607 605.313C164.607 603.107 166.347 601.674 169.019 601.674C170.452 601.674 171.735 602.087 172.526 602.817C173.071 603.309 173.361 603.871 173.361 604.425C173.361 604.979 172.974 605.357 172.403 605.357C172.034 605.357 171.717 605.198 171.436 604.847C170.9 604.047 170.091 603.599 169.054 603.599C167.806 603.599 167.006 604.197 167.006 605.128C167.006 605.875 167.551 606.403 168.667 606.657L170.469 607.088C172.667 607.589 173.704 608.653 173.704 610.419C173.704 612.704 171.884 614.155 169.019 614.155C167.463 614.155 166.083 613.724 165.292 612.977C164.739 612.467 164.44 611.931 164.44 611.43Z" fill="#FF00FF"/>
<path fill-rule="evenodd" clip-rule="evenodd" d="M218.94 612.379V603.423C218.94 602.404 219.467 601.903 220.522 601.903H223.317C226.824 601.903 228.678 603.977 228.678 607.906C228.678 611.825 226.824 613.9 223.317 613.9H220.522C219.467 613.9 218.94 613.399 218.94 612.379ZM221.313 611.817C221.313 611.895 221.376 611.957 221.453 611.957H223.018C225.224 611.957 226.252 610.656 226.252 607.906C226.252 605.137 225.215 603.836 223.018 603.836H221.453C221.376 603.836 221.313 603.899 221.313 603.976V611.817Z" fill="#FF00FF"/>
<path d="M274.144 613.988C273.388 613.988 272.94 613.513 272.94 612.704V603.423C272.94 602.412 273.458 601.903 274.522 601.903H279.734C280.332 601.903 280.745 602.307 280.745 602.887C280.745 603.476 280.332 603.863 279.734 603.863H275.453C275.376 603.863 275.313 603.925 275.313 604.003V607.071C275.313 607.149 275.376 607.211 275.453 607.211H279.286C279.901 607.211 280.296 607.589 280.296 608.169C280.296 608.749 279.892 609.127 279.286 609.127H275.453C275.376 609.127 275.313 609.19 275.313 609.267V612.704C275.313 613.522 274.891 613.988 274.144 613.988Z" fill="#FF00FF"/>
<path d="M326.44 608.758V607.027C326.44 603.704 328.321 601.674 331.458 601.674C332.856 601.674 334.034 602.07 334.886 602.808C335.607 603.397 336.082 604.153 336.082 604.785C336.082 605.374 335.677 605.77 335.106 605.77C334.763 605.77 334.526 605.638 334.271 605.313C333.568 604.381 332.821 603.713 331.617 603.713C329.806 603.713 328.822 604.908 328.822 607.123V608.749C328.822 610.938 329.841 612.168 331.643 612.168C333.084 612.168 334.051 611.307 334.051 610.024V609.408C334.051 609.331 333.989 609.268 333.911 609.268H332.452C331.801 609.268 331.423 608.943 331.423 608.371C331.423 607.8 331.792 607.484 332.452 607.484H334.851C335.862 607.484 336.31 607.932 336.31 608.916V609.883C336.31 612.397 334.359 614.155 331.555 614.155C328.347 614.155 326.44 612.133 326.44 608.758Z" fill="#FF00FF"/>
<path d="M389.536 613.988C388.789 613.988 388.349 613.513 388.349 612.704V608.889C388.349 608.812 388.286 608.749 388.209 608.749H383.453C383.376 608.749 383.313 608.812 383.313 608.889V612.704C383.313 613.513 382.874 613.988 382.126 613.988C381.371 613.988 380.94 613.513 380.94 612.704V603.098C380.94 602.289 381.371 601.815 382.126 601.815C382.874 601.815 383.313 602.289 383.313 603.098V606.658C383.313 606.735 383.376 606.798 383.453 606.798H388.209C388.286 606.798 388.349 606.735 388.349 606.658V603.098C388.349 602.289 388.789 601.815 389.536 601.815C390.292 601.815 390.731 602.289 390.731 603.098V612.704C390.731 613.513 390.292 613.988 389.536 613.988Z" fill="#FF00FF"/>
<path d="M439.792 603.133C439.792 602.289 440.214 601.815 440.97 601.815C441.735 601.815 442.174 602.289 442.174 603.133V610.032C442.174 612.643 440.689 614.155 438.131 614.155C436.804 614.155 435.741 613.785 435.082 613.082C434.677 612.66 434.44 612.133 434.44 611.606C434.44 610.964 434.835 610.551 435.433 610.551C435.855 610.551 436.11 610.744 436.391 611.131C436.787 611.729 437.332 612.107 438.131 612.107C439.212 612.107 439.792 611.448 439.792 610.068V603.133Z" fill="#FF00FF"/>
<path d="M497.018 613.952C496.57 613.952 496.192 613.715 495.796 613.17L492.678 608.816C492.626 608.745 492.522 608.737 492.461 608.8L491.393 609.897C491.342 609.95 491.313 610.021 491.313 610.095V612.704C491.313 613.522 490.891 613.988 490.144 613.988C489.388 613.988 488.94 613.513 488.94 612.704V603.097C488.94 602.288 489.371 601.814 490.127 601.814C490.874 601.814 491.313 602.288 491.313 603.097L491.287 606.966C491.286 607.095 491.445 607.158 491.533 607.064L495.858 602.411C496.218 602.007 496.508 601.849 496.851 601.849C497.448 601.849 497.906 602.306 497.906 602.886C497.906 603.194 497.791 603.413 497.413 603.818L494.425 607.063C494.379 607.113 494.374 607.189 494.414 607.243L497.642 611.658C498.073 612.238 498.178 612.485 498.178 612.819C498.178 613.487 497.703 613.952 497.018 613.952Z" fill="#FF00FF"/>
<path d="M550.542 612.889C550.542 613.495 550.103 613.9 549.479 613.9H544.522C543.458 613.9 542.94 613.399 542.94 612.379V603.098C542.94 602.289 543.371 601.815 544.126 601.815C544.874 601.815 545.313 602.289 545.313 603.098V611.738C545.313 611.815 545.376 611.878 545.453 611.878H549.479C550.103 611.878 550.542 612.291 550.542 612.889Z" fill="#FF00FF"/>
<path d="M599.539 606.715C599.539 606.188 599.973 605.753 600.5 605.753C601.027 605.753 601.461 606.188 601.461 606.715C601.461 607.242 601.027 607.676 600.5 607.676C599.973 607.676 599.539 607.242 599.539 606.715ZM599.539 610.919C599.539 610.392 599.973 609.958 600.5 609.958C601.027 609.958 601.461 610.392 601.461 610.919C601.461 611.452 601.027 611.886 600.5 611.886C599.973 611.886 599.539 611.452 599.539 610.919Z" fill="#FF00FF"/>
<path d="M599.539 624.715C599.539 624.188 599.973 623.753 600.5 623.753C601.033 623.753 601.461 624.188 601.461 624.715C601.461 625.242 601.033 625.676 600.5 625.676C599.973 625.676 599.539 625.242 599.539 624.715ZM599.341 630.941L599.75 628.975C599.818 628.566 600.147 628.324 600.513 628.324C601.015 628.324 601.381 628.826 601.238 629.279L600.581 631.213C600.494 631.523 600.246 631.691 599.954 631.691C599.533 631.691 599.266 631.319 599.341 630.941Z" fill="#FF00FF"/>
<path d="M655.089 608.361L654.971 606.519C654.94 606.097 655.251 605.75 655.697 605.75C656.144 605.75 656.447 606.103 656.416 606.519L656.299 608.361C656.274 608.714 656.026 609.006 655.691 609.006C655.356 609.006 655.108 608.714 655.089 608.361ZM652.677 608.361L652.559 606.519C652.528 606.097 652.844 605.75 653.285 605.75C653.731 605.75 654.035 606.103 654.004 606.519L653.886 608.361C653.861 608.714 653.613 609.006 653.279 609.006C652.944 609.006 652.696 608.714 652.677 608.361Z" fill="#FF00FF"/>
<path d="M653.874 626.361L653.762 624.519C653.731 624.097 654.035 623.75 654.494 623.75C654.946 623.75 655.244 624.103 655.219 624.519L655.108 626.361C655.083 626.714 654.822 627.012 654.487 627.012C654.153 627.012 653.892 626.714 653.874 626.361Z" fill="#FF00FF"/>
<path fill-rule="evenodd" clip-rule="evenodd" d="M105.518 561.271C105.043 561.271 104.674 561.025 104.279 560.462L103.901 559.948C103.864 559.898 103.8 559.879 103.741 559.898C103.238 560.062 102.673 560.155 102.046 560.155C98.812 560.155 96.9399 558.115 96.9399 554.74V553.176C96.9399 549.757 98.856 547.674 102.046 547.674C105.202 547.674 107.153 549.757 107.153 553.176V554.74C107.153 556.477 106.666 557.794 105.805 558.689C105.757 558.739 105.75 558.816 105.791 558.872L106.151 559.372C106.432 559.785 106.494 560.005 106.494 560.278C106.494 560.831 106.098 561.271 105.518 561.271ZM99.313 554.855C99.313 556.964 100.315 558.23 101.95 558.282C102.158 558.282 102.361 558.252 102.547 558.194C102.634 558.167 102.662 558.063 102.608 557.99L102.407 557.72C102.257 557.491 102.152 557.237 102.152 556.99C102.152 556.472 102.53 556.085 103.057 556.085C103.338 556.085 103.593 556.208 103.848 556.507L104.078 556.831C104.133 556.909 104.249 556.91 104.3 556.829C104.601 556.346 104.771 555.745 104.771 554.855V553.167C104.771 550.979 103.646 549.66 102.046 549.66C100.35 549.66 99.313 550.979 99.313 553.167V554.855Z" fill="#FF00FF"/>
<path d="M151.94 558.678L149.453 549.775C149.374 549.476 149.33 549.151 149.33 548.957C149.33 548.272 149.822 547.788 150.525 547.788C151.167 547.788 151.562 548.219 151.765 549.124L153.4 556.27C153.433 556.415 153.64 556.417 153.676 556.271L155.421 549.115C155.641 548.193 156.027 547.788 156.73 547.788C157.442 547.788 157.838 548.21 158.057 549.115L159.801 556.267C159.837 556.413 160.045 556.411 160.077 556.264L161.67 549.124C161.863 548.237 162.276 547.788 162.927 547.788C163.621 547.788 164.104 548.263 164.104 548.94C164.104 549.142 164.069 549.458 164.016 549.66L161.529 558.678C161.274 559.592 160.87 559.952 160.14 559.952C159.376 559.952 158.91 559.565 158.664 558.625L156.872 551.851C156.835 551.711 156.635 551.711 156.598 551.852L154.806 558.678C154.577 559.539 154.102 559.952 153.373 559.952C152.652 559.952 152.213 559.645 151.94 558.678Z" fill="#FF00FF"/>
<path d="M205.44 558.379V549.423C205.44 548.412 205.958 547.903 207.022 547.903H212.331C212.928 547.903 213.333 548.298 213.333 548.878C213.333 549.458 212.928 549.845 212.331 549.845H207.935C207.858 549.845 207.795 549.908 207.795 549.985V552.781C207.795 552.858 207.858 552.921 207.935 552.921H212.084C212.647 552.921 213.025 553.281 213.025 553.835C213.025 554.389 212.647 554.74 212.084 554.74H207.935C207.858 554.74 207.795 554.803 207.795 554.88V557.817C207.795 557.895 207.858 557.957 207.935 557.957H212.304C212.928 557.957 213.333 558.344 213.333 558.933C213.333 559.522 212.928 559.9 212.304 559.9H207.022C205.958 559.9 205.44 559.399 205.44 558.379Z" fill="#FF00FF"/>
<path fill-rule="evenodd" clip-rule="evenodd" d="M261.813 558.704C261.813 559.513 261.382 559.988 260.635 559.988C259.879 559.988 259.44 559.513 259.44 558.704V549.713C259.44 548.465 259.985 547.903 261.233 547.903H264.3C266.867 547.903 268.458 549.309 268.458 551.576C268.458 553.042 267.73 554.222 266.481 554.809C266.406 554.845 266.374 554.936 266.414 555.008L268.08 558.063C268.211 558.3 268.291 558.599 268.291 558.854C268.291 559.495 267.79 559.952 267.113 559.952C266.489 559.952 266.155 559.689 265.759 558.915L264.07 555.588C264.023 555.494 263.926 555.435 263.821 555.435H261.953C261.876 555.435 261.813 555.497 261.813 555.575V558.704ZM261.813 553.519C261.813 553.597 261.876 553.659 261.953 553.659H263.958C265.302 553.659 266.076 552.991 266.076 551.761C266.076 550.539 265.293 549.845 263.984 549.845H261.953C261.876 549.845 261.813 549.908 261.813 549.985V553.519Z" fill="#FF00FF"/>
<path d="M318.186 559.988C317.448 559.988 317 559.513 317 558.722V550.038C317 549.96 316.937 549.898 316.86 549.898H314.459C313.871 549.898 313.44 549.476 313.44 548.905C313.44 548.324 313.871 547.903 314.459 547.903H321.921C322.519 547.903 322.941 548.316 322.941 548.905C322.941 549.485 322.519 549.898 321.921 549.898H319.513C319.435 549.898 319.373 549.96 319.373 550.038V558.722C319.373 559.504 318.916 559.988 318.186 559.988Z" fill="#FF00FF"/>
<path d="M371.643 559.989C370.904 559.989 370.43 559.497 370.447 558.776L370.482 555.191C370.482 555.138 370.468 555.087 370.44 555.041L367.309 549.88C367.037 549.423 366.94 549.16 366.94 548.87C366.94 548.219 367.379 547.788 368.039 547.788C368.549 547.788 368.883 548.043 369.225 548.694L371.51 552.856C371.564 552.953 371.704 552.954 371.758 552.856L374.077 548.694C374.42 548.07 374.781 547.788 375.273 547.788C375.897 547.788 376.345 548.228 376.345 548.834C376.345 549.124 376.231 549.406 375.932 549.916L372.827 555.041C372.8 555.087 372.786 555.138 372.786 555.191L372.82 558.776C372.838 559.497 372.363 559.989 371.643 559.989Z" fill="#FF00FF"/>
<path d="M431.134 555.769C431.134 558.423 429.218 560.155 426.292 560.155C423.259 560.155 421.44 558.406 421.44 555.751V549.08C421.44 548.289 421.888 547.815 422.626 547.815C423.365 547.815 423.822 548.289 423.822 549.08V555.523C423.822 557.14 424.753 558.115 426.292 558.115C427.812 558.115 428.752 557.122 428.752 555.523V549.08C428.752 548.289 429.201 547.815 429.939 547.815C430.677 547.815 431.134 548.289 431.134 549.08V555.769Z" fill="#FF00FF"/>
<path d="M476.635 559.988C475.879 559.988 475.44 559.513 475.44 558.704V549.098C475.44 548.289 475.871 547.815 476.626 547.815C477.374 547.815 477.813 548.289 477.813 549.098V558.704C477.813 559.513 477.382 559.988 476.635 559.988Z" fill="#FF00FF"/>
<path d="M528.94 554.74V553.176C528.94 549.757 530.856 547.674 534.038 547.674C537.237 547.674 539.135 549.757 539.135 553.176V554.74C539.135 558.115 537.237 560.155 534.038 560.155C530.821 560.155 528.94 558.115 528.94 554.74ZM531.313 553.167V554.732C531.313 556.894 532.341 558.168 534.038 558.168C535.734 558.168 536.762 556.894 536.762 554.732V553.167C536.762 550.979 535.734 549.66 534.038 549.66C532.341 549.66 531.313 550.979 531.313 553.167Z" fill="#FF00FF"/>
<path fill-rule="evenodd" clip-rule="evenodd" d="M584.618 559.988C583.871 559.988 583.44 559.513 583.44 558.704V549.634C583.44 548.386 583.915 547.903 585.154 547.903H588.186C590.682 547.903 592.291 549.467 592.291 551.84C592.291 554.319 590.665 555.786 588.089 555.786H585.953C585.876 555.786 585.813 555.849 585.813 555.926V558.704C585.813 559.513 585.374 559.988 584.618 559.988ZM585.813 553.801C585.813 553.878 585.876 553.941 585.953 553.941H587.333C589.179 553.941 589.926 553.405 589.926 551.875C589.926 550.557 589.188 549.801 587.887 549.801H585.953C585.876 549.801 585.813 549.864 585.813 549.941V553.801Z" fill="#FF00FF"/>
<path d="M639.97 557.489V556.019C639.97 555.079 639.66 554.969 639.33 554.869C639.04 554.779 638.78 554.599 638.78 554.129C638.78 553.619 639.08 553.449 639.35 553.369C639.65 553.279 639.97 553.159 639.97 552.229V550.999C639.97 549.409 640.86 548.839 642.14 548.839C642.66 548.839 643.1 548.929 643.1 549.469C643.1 549.829 642.91 549.959 642.51 550.039C642.03 550.139 641.52 550.179 641.52 551.249V552.679C641.52 553.359 641.28 553.799 640.83 554.009C640.72 554.059 640.72 554.209 640.83 554.269C641.29 554.499 641.53 554.979 641.53 555.659V557.269C641.53 558.349 642.04 558.389 642.52 558.479C642.92 558.559 643.11 558.689 643.11 559.039C643.11 559.369 642.85 559.639 642.52 559.659C641.04 559.779 639.98 559.229 639.98 557.489H639.97Z" fill="#FF00FF"/>
<path d="M639.686 576.705V567.819C639.686 567.186 640.058 566.839 640.696 566.839H642.439C642.867 566.839 643.102 567.081 643.102 567.453C643.102 567.819 642.867 568.06 642.439 568.06H641.388C641.311 568.06 641.248 568.123 641.248 568.2V576.323C641.248 576.4 641.311 576.463 641.388 576.463H642.439C642.867 576.463 643.102 576.705 643.102 577.077C643.102 577.443 642.867 577.685 642.439 577.685H640.696C640.058 577.685 639.686 577.337 639.686 576.705Z" fill="#FF00FF"/>
<path d="M696.03 557.499V556.029C696.03 555.089 696.34 554.979 696.67 554.879C696.96 554.789 697.22 554.609 697.22 554.139C697.22 553.629 696.92 553.459 696.65 553.379C696.35 553.289 696.03 553.169 696.03 552.239V551.009C696.03 549.419 695.14 548.849 693.86 548.849C693.34 548.849 692.9 548.939 692.9 549.479C692.9 549.839 693.09 549.969 693.49 550.049C693.97 550.149 694.48 550.189 694.48 551.259V552.689C694.48 553.369 694.72 553.809 695.17 554.019C695.28 554.069 695.28 554.219 695.17 554.279C694.71 554.509 694.47 554.989 694.47 555.669V557.279C694.47 558.359 693.96 558.399 693.48 558.489C693.08 558.569 692.89 558.699 692.89 559.049C692.89 559.379 693.15 559.649 693.48 559.669C694.96 559.789 696.02 559.239 696.02 557.499H696.03Z" fill="#FF00FF"/>
<path d="M692.904 577.077C692.904 576.705 693.133 576.463 693.561 576.463H694.618C694.695 576.463 694.758 576.4 694.758 576.323V568.2C694.758 568.123 694.695 568.06 694.618 568.06H693.561C693.133 568.06 692.904 567.819 692.904 567.453C692.904 567.081 693.133 566.839 693.561 566.839H695.304C695.949 566.839 696.321 567.186 696.321 567.819V576.705C696.321 577.337 695.949 577.685 695.304 577.685H693.561C693.133 577.685 692.904 577.443 692.904 577.077Z" fill="#FF00FF"/>
<path d="M748.262 558.928V549.595C748.262 549.044 748.585 548.777 749 548.777C749.416 548.777 749.738 549.044 749.738 549.595V558.928C749.738 559.48 749.416 559.747 749 559.747C748.585 559.747 748.262 559.48 748.262 558.928Z" fill="#FF00FF"/>
<path d="M749.657 577.226L746.978 567.732C746.96 567.676 746.941 567.577 746.941 567.484C746.929 567.099 747.245 566.777 747.648 566.777C747.983 566.777 748.256 566.975 748.349 567.298L751.022 576.798C751.04 576.848 751.059 576.953 751.065 577.04C751.071 577.424 750.761 577.747 750.352 577.747C750.017 577.747 749.744 577.548 749.657 577.226Z" fill="#FF00FF"/>
<path d="M23.8882 496.935C23.8882 497.835 23.0632 498.915 21.6832 498.915C20.4982 498.915 19.1932 497.895 18.4282 497.895C17.6032 497.895 17.3932 498.795 16.7632 498.795C16.2832 498.795 16.1182 498.42 16.1182 498.075C16.1182 497.175 16.9432 496.095 18.2332 496.095C19.5082 496.095 20.8132 497.115 21.5782 497.115C22.4032 497.115 22.6132 496.215 23.2432 496.215C23.7232 496.215 23.8882 496.59 23.8882 496.935Z" fill="#FF00FF"/>
<path d="M19.9219 517.895L18.7695 516.576C18.6426 516.42 18.5645 516.205 18.5645 515.98C18.5645 515.492 18.9648 515.082 19.4531 515.082C19.707 515.082 19.9609 515.15 20.1953 515.492L21.123 516.898C21.2109 517.035 21.2891 517.201 21.2891 517.377C21.2891 517.816 20.9277 518.178 20.5176 518.178C20.2734 518.178 20.0684 518.061 19.9219 517.895Z" fill="#FF00FF"/>
<path d="M73.2561 500.29L73.1258 495.918C73.1072 495.434 73.4855 495.043 74.0002 495.043C74.5149 495.043 74.8994 495.434 74.8808 495.918L74.7319 500.29C74.7133 500.705 74.3971 500.997 74.0002 500.997C73.5909 500.997 73.2685 500.693 73.2561 500.29ZM73.0576 503C73.0576 502.485 73.4793 502.125 73.994 502.125C74.5149 502.125 74.9366 502.485 74.9366 503C74.9366 503.514 74.5149 503.874 73.994 503.874C73.4793 503.874 73.0576 503.514 73.0576 503Z" fill="#FF00FF"/>
<path d="M73.9471 520.919V515.149C73.9471 515.029 73.8171 514.969 73.7271 515.029L73.0671 515.499C72.8271 515.659 72.6771 515.719 72.5171 515.729C72.1671 515.749 71.8871 515.509 71.8671 515.159C71.8571 514.889 72.0171 514.649 72.3471 514.429L73.4571 513.659C73.9071 513.359 74.2571 513.229 74.6071 513.229C75.2071 513.229 75.6071 513.649 75.6071 514.269V520.919C75.6071 521.489 75.3071 521.819 74.7771 521.819C74.2471 521.819 73.9571 521.489 73.9571 520.919H73.9471Z" fill="#FF00FF"/>
<path d="M128.589 500.361L128.471 498.519C128.44 498.097 128.751 497.75 129.197 497.75C129.644 497.75 129.947 498.103 129.916 498.519L129.799 500.361C129.774 500.714 129.526 501.006 129.191 501.006C128.856 501.006 128.608 500.714 128.589 500.361ZM126.177 500.361L126.059 498.519C126.028 498.097 126.344 497.75 126.785 497.75C127.231 497.75 127.535 498.103 127.504 498.519L127.386 500.361C127.361 500.714 127.113 501.006 126.779 501.006C126.444 501.006 126.196 500.714 126.177 500.361Z" fill="#FF00FF"/>
<path d="M125.206 521.004C125.206 520.684 125.376 520.424 125.896 519.884L128.206 517.394C128.886 516.664 129.156 516.194 129.156 515.674C129.156 514.964 128.646 514.494 127.876 514.494C127.246 514.494 126.776 514.844 126.536 515.494C126.336 515.884 126.116 516.054 125.786 516.044C125.416 516.034 125.116 515.714 125.116 515.324C125.116 514.214 126.306 513.124 127.976 513.124C129.646 513.124 130.796 514.134 130.796 515.534C130.796 516.384 130.416 517.084 129.356 518.204L127.536 520.154C127.456 520.244 127.516 520.394 127.636 520.394H130.296C130.776 520.394 131.076 520.654 131.076 521.084C131.076 521.514 130.786 521.764 130.296 521.764H126.106C125.556 521.764 125.206 521.464 125.206 521.014V521.004Z" fill="#FF00FF"/>
<path fill-rule="evenodd" clip-rule="evenodd" d="M179.531 504.079C179.911 504.014 180.179 503.666 180.179 503.28V498.755C180.179 498.615 180.361 498.56 180.439 498.677L183.757 503.669C183.959 503.958 184.28 504.146 184.659 504.076C185.084 503.997 185.381 503.608 185.381 503.176V496.307C185.381 495.917 185.11 495.566 184.725 495.501C184.24 495.419 183.812 495.8 183.812 496.271V500.803C183.812 500.943 183.63 500.998 183.552 500.882L180.216 495.868C180.027 495.602 179.719 495.439 179.374 495.485C178.93 495.545 178.61 495.944 178.61 496.392V503.309C178.61 503.781 179.047 504.162 179.531 504.079ZM186.938 501.474C186.603 501.474 186.337 501.207 186.337 500.879C186.337 500.551 186.604 500.278 186.938 500.278H189.431C189.76 500.278 190.032 500.545 190.032 500.879C190.032 501.213 189.759 501.474 189.431 501.474H186.938ZM188.166 498.448C188.656 498.448 188.935 498.064 188.935 497.412C188.935 496.76 188.644 496.395 188.166 496.395C187.688 496.395 187.416 496.792 187.416 497.412C187.416 498.063 187.695 498.448 188.166 498.448ZM188.166 499.428C187 499.428 186.207 498.616 186.207 497.419C186.207 496.222 186.994 495.409 188.166 495.409C189.338 495.409 190.15 496.221 190.15 497.418C190.15 498.615 189.35 499.427 188.166 499.427V499.428Z" fill="#FF00FF"/>
<path d="M178.995 519.964C178.995 519.574 179.275 519.284 179.655 519.284C179.925 519.284 180.135 519.414 180.365 519.754C180.725 520.324 181.275 520.624 181.975 520.624C182.905 520.624 183.505 520.124 183.505 519.354C183.505 518.584 182.895 518.064 181.975 518.064H181.365C180.995 518.064 180.725 517.784 180.725 517.404C180.725 517.024 180.995 516.754 181.365 516.754H181.945C182.705 516.754 183.265 516.254 183.265 515.574C183.265 514.894 182.715 514.424 181.935 514.424C181.325 514.424 180.845 514.714 180.515 515.264C180.325 515.574 180.115 515.704 179.825 515.704C179.425 515.704 179.145 515.424 179.145 515.024C179.145 514.034 180.345 513.124 181.955 513.124C183.665 513.124 184.865 514.044 184.865 515.374C184.865 516.124 184.405 516.854 183.775 517.164C183.665 517.224 183.665 517.374 183.785 517.414C184.575 517.704 185.125 518.504 185.125 519.414C185.125 520.894 183.815 521.934 181.945 521.934C180.275 521.934 178.985 520.994 178.985 519.964H178.995Z" fill="#FF00FF"/>
<path d="M235.039 498.715C235.039 498.188 235.473 497.753 236 497.753C236.533 497.753 236.961 498.188 236.961 498.715C236.961 499.242 236.533 499.676 236 499.676C235.473 499.676 235.039 499.242 235.039 498.715ZM234.841 504.941L235.25 502.975C235.318 502.566 235.647 502.324 236.013 502.324C236.515 502.324 236.881 502.826 236.738 503.279L236.081 505.213C235.994 505.523 235.746 505.691 235.454 505.691C235.033 505.691 234.766 505.319 234.841 504.941Z" fill="#FF00FF"/>
<path d="M234.445 518.817H236.665C236.745 518.817 236.805 518.757 236.805 518.677V514.957C236.805 514.817 236.625 514.757 236.545 514.877C235.845 515.997 234.695 517.967 234.325 518.607C234.275 518.697 234.345 518.817 234.445 518.817ZM236.805 520.977V520.327C236.805 520.247 236.745 520.187 236.665 520.187H233.715C233.085 520.187 232.695 519.847 232.695 519.267C232.695 518.997 232.765 518.757 232.995 518.287C233.705 516.947 234.365 515.817 235.465 514.187C235.985 513.427 236.385 513.167 237.025 513.167C237.865 513.167 238.365 513.617 238.365 514.347V518.667C238.365 518.747 238.425 518.807 238.505 518.807H238.775C239.225 518.807 239.495 519.077 239.495 519.497C239.495 519.917 239.225 520.167 238.775 520.167H238.505C238.425 520.167 238.365 520.227 238.365 520.307V520.957C238.365 521.487 238.065 521.807 237.575 521.807C237.085 521.807 236.795 521.487 236.795 520.957L236.805 520.977Z" fill="#FF00FF"/>
<path d="M285.591 497.27V497.028C285.591 495.844 286.261 495.037 287.352 495.037C288.443 495.037 289.088 495.831 289.088 497.028V497.27C289.088 498.411 288.437 499.267 287.321 499.267C286.242 499.267 285.591 498.46 285.591 497.27ZM286.614 503.086L289.659 499.167L292.536 495.403C292.722 495.149 292.958 495.124 293.156 495.217C293.355 495.261 293.497 495.428 293.504 495.633C293.51 495.769 293.454 495.906 293.348 496.042L290.477 499.75L287.426 503.731C287.234 503.986 286.992 503.998 286.8 503.911C286.626 503.874 286.471 503.713 286.465 503.527C286.453 503.39 286.502 503.235 286.614 503.086ZM286.763 497.059V497.239C286.763 497.94 286.986 498.299 287.34 498.299C287.687 498.299 287.91 497.94 287.91 497.239V497.059C287.91 496.358 287.687 496.005 287.34 496.005C286.986 496.005 286.763 496.358 286.763 497.059ZM290.911 501.852V501.611C290.911 500.426 291.587 499.62 292.679 499.62C293.77 499.62 294.409 500.414 294.409 501.611V501.852C294.409 502.993 293.758 503.855 292.648 503.855C291.563 503.855 290.911 503.043 290.911 501.852ZM292.083 501.642V501.821C292.083 502.522 292.313 502.888 292.66 502.888C293.007 502.888 293.237 502.522 293.237 501.821V501.642C293.237 500.947 293.014 500.587 292.66 500.587C292.307 500.587 292.083 500.941 292.083 501.642Z" fill="#FF00FF"/>
<path d="M287.042 520.029C287.042 519.609 287.312 519.289 287.722 519.289C287.982 519.289 288.182 519.399 288.382 519.689C288.762 520.259 289.252 520.549 289.862 520.559C290.742 520.579 291.422 520.019 291.492 519.139C291.572 518.149 290.912 517.449 289.972 517.449C289.552 517.449 289.132 517.609 288.772 517.889C288.402 518.199 288.222 518.269 287.992 518.269C287.482 518.269 287.132 517.899 287.172 517.329L287.412 514.149C287.452 513.559 287.812 513.279 288.492 513.279H292.002C292.502 513.279 292.792 513.529 292.792 513.969C292.792 514.409 292.502 514.649 292.002 514.649H288.922C288.852 514.649 288.782 514.709 288.782 514.779L288.642 516.549C288.632 516.679 288.772 516.749 288.872 516.659C289.242 516.329 289.852 516.169 290.412 516.169C292.022 516.169 293.132 517.289 293.132 518.919C293.132 520.719 291.832 521.929 289.912 521.929C288.232 521.929 287.042 520.979 287.042 520.029Z" fill="#FF00FF"/>
<path d="M343.039 498.715C343.039 498.188 343.473 497.753 344 497.753C344.527 497.753 344.961 498.188 344.961 498.715C344.961 499.242 344.527 499.676 344 499.676C343.473 499.676 343.039 499.242 343.039 498.715ZM343.039 502.919C343.039 502.392 343.473 501.958 344 501.958C344.527 501.958 344.961 502.392 344.961 502.919C344.961 503.452 344.527 503.886 344 503.886C343.473 503.886 343.039 503.452 343.039 502.919Z" fill="#FF00FF"/>
<path d="M341 518.27C341 515.37 342.23 513.75 344.44 513.75C345.18 513.75 345.87 513.94 346.38 514.28C346.81 514.57 347.07 514.96 347.07 515.28C347.07 515.65 346.8 515.91 346.42 515.91C346.19 515.91 346.02 515.84 345.73 515.61C345.3 515.24 344.92 515.08 344.44 515.08C343.427 515.08 342.746 515.832 342.609 517.495C342.599 517.624 342.752 517.699 342.847 517.611C343.176 517.306 343.809 516.86 344.7 516.86C346.26 516.86 347.35 517.98 347.35 519.6C347.35 521.369 346.12 522.549 344.28 522.549C343.2 522.549 342.33 522.129 341.77 521.329C341.26 520.62 341 519.58 341 518.27ZM342.77 519.65C342.77 520.569 343.4 521.229 344.28 521.229C345.16 521.229 345.74 520.599 345.74 519.66C345.74 518.72 345.14 518.11 344.26 518.11C343.38 518.11 342.77 518.75 342.77 519.65Z" fill="#FF00FF"/>
<path d="M396.965 500.55C396.965 499.819 397.256 499.403 398.093 498.746C398.695 498.274 399.029 497.977 399.029 497.431C399.029 496.823 398.49 496.42 397.808 496.42C397.213 496.42 396.803 496.65 396.506 497.158C396.313 497.413 396.165 497.53 395.904 497.53C395.513 497.53 395.296 497.251 395.296 496.91C395.296 496.501 395.538 496.067 395.91 495.738C396.363 495.354 397.039 495.124 397.919 495.124C399.55 495.124 400.685 495.974 400.685 497.357C400.685 498.318 400.158 498.845 399.364 499.434C398.763 499.893 398.558 500.11 398.416 500.631C398.261 500.997 398.099 501.245 397.665 501.245C397.213 501.245 396.965 500.947 396.965 500.55ZM396.729 503C396.729 502.485 397.151 502.125 397.665 502.125C398.18 502.125 398.608 502.485 398.608 503C398.608 503.514 398.18 503.874 397.665 503.874C397.151 503.874 396.729 503.514 396.729 503Z" fill="#FF00FF"/>
<path d="M396.166 521.095C396.166 520.925 396.226 520.765 396.316 520.585L399.146 514.855C399.196 514.765 399.126 514.655 399.016 514.655H395.746C395.226 514.655 394.936 514.385 394.936 513.975C394.936 513.565 395.226 513.285 395.746 513.285H400.086C400.586 513.285 400.946 513.615 400.946 514.125C400.946 514.445 400.836 514.805 400.606 515.265L397.686 521.315C397.506 521.665 397.286 521.845 396.936 521.845C396.496 521.845 396.156 521.545 396.156 521.095H396.166Z" fill="#FF00FF"/>
<path d="M451.998 501.126C451.602 501.126 451.296 500.82 451.314 500.37L451.328 499.669C451.33 499.559 451.21 499.49 451.116 499.546L450.522 499.902C450.378 499.992 450.216 500.028 450.072 500.028C449.712 500.028 449.424 499.74 449.424 499.362C449.424 499.074 449.568 498.858 449.838 498.714L450.44 498.387C450.538 498.334 450.538 498.194 450.44 498.141L449.838 497.814C449.568 497.67 449.424 497.454 449.424 497.166C449.424 496.788 449.712 496.5 450.072 496.5C450.216 496.5 450.378 496.536 450.522 496.626L451.114 496.994C451.208 497.053 451.33 496.984 451.328 496.873L451.314 496.158C451.296 495.708 451.602 495.402 451.998 495.402C452.394 495.402 452.7 495.708 452.682 496.158L452.656 496.87C452.652 496.981 452.773 497.053 452.869 496.995L453.474 496.626C453.618 496.536 453.78 496.5 453.924 496.5C454.284 496.5 454.572 496.788 454.572 497.166C454.572 497.454 454.428 497.67 454.158 497.814L453.545 498.14C453.446 498.193 453.446 498.335 453.545 498.388L454.158 498.714C454.428 498.858 454.572 499.074 454.572 499.362C454.572 499.74 454.284 500.028 453.924 500.028C453.78 500.028 453.618 499.992 453.474 499.902L452.867 499.545C452.771 499.489 452.652 499.561 452.656 499.671L452.682 500.37C452.7 500.82 452.394 501.126 451.998 501.126Z" fill="#FF00FF"/>
<path d="M451.984 521.924C450.034 521.924 448.724 520.934 448.724 519.444C448.724 518.524 449.264 517.724 450.114 517.404C450.224 517.364 450.234 517.204 450.124 517.144C449.444 516.794 449.054 516.144 449.054 515.364C449.064 514.044 450.274 513.124 452.004 513.124C453.734 513.124 454.944 514.044 454.944 515.364C454.944 516.134 454.544 516.794 453.864 517.144C453.754 517.204 453.764 517.354 453.874 517.404C454.724 517.734 455.274 518.534 455.274 519.444C455.274 520.924 453.944 521.934 451.984 521.934V521.924ZM452.004 516.764C452.784 516.764 453.344 516.254 453.344 515.544C453.344 514.834 452.784 514.344 452.004 514.344C451.224 514.344 450.664 514.844 450.664 515.544C450.664 516.244 451.224 516.764 452.004 516.764ZM452.004 520.724C452.944 520.724 453.614 520.134 453.614 519.334C453.614 518.534 452.934 517.934 452.004 517.934C451.074 517.934 450.394 518.524 450.394 519.334C450.394 520.144 451.064 520.724 452.004 520.724Z" fill="#FF00FF"/>
<path d="M506.341 505.319C506.019 504.903 504.847 503.242 504.847 500.191C504.847 497.245 506.019 495.583 506.341 495.168C506.595 494.845 506.825 494.758 507.023 494.758C507.395 494.758 507.65 495.006 507.65 495.341C507.65 495.54 507.581 495.701 507.501 495.881C507.104 496.736 506.509 498.15 506.509 500.191C506.509 502.336 507.104 503.75 507.501 504.606C507.581 504.786 507.65 504.947 507.65 505.145C507.65 505.48 507.395 505.728 507.023 505.728C506.825 505.728 506.595 505.641 506.341 505.319Z" fill="#FF00FF"/>
<path d="M509.218 517.392C509.218 520.291 507.988 521.911 505.778 521.911C505.038 521.911 504.348 521.721 503.838 521.381C503.408 521.091 503.148 520.701 503.148 520.381C503.148 520.011 503.418 519.751 503.798 519.751C504.028 519.751 504.198 519.821 504.488 520.051C504.918 520.421 505.298 520.581 505.778 520.581C506.791 520.581 507.472 519.829 507.608 518.166C507.619 518.037 507.465 517.963 507.371 518.05C507.042 518.355 506.409 518.801 505.518 518.801C503.958 518.801 502.868 517.682 502.868 516.062C502.868 514.292 504.098 513.112 505.938 513.112C507.018 513.112 507.888 513.532 508.448 514.332C508.958 515.042 509.218 516.082 509.218 517.392ZM507.448 516.012C507.448 515.092 506.818 514.432 505.938 514.432C505.058 514.432 504.478 515.062 504.478 516.002C504.478 516.942 505.078 517.552 505.958 517.552C506.838 517.552 507.448 516.912 507.448 516.012Z" fill="#FF00FF"/>
<path d="M559.659 505.319C559.405 505.641 559.182 505.728 558.977 505.728C558.611 505.728 558.351 505.48 558.351 505.145C558.351 504.947 558.419 504.786 558.499 504.606C558.902 503.75 559.492 502.336 559.492 500.191C559.492 498.15 558.902 496.736 558.499 495.881C558.419 495.701 558.351 495.54 558.351 495.341C558.351 495.006 558.611 494.758 558.977 494.758C559.182 494.758 559.405 494.845 559.659 495.168C559.988 495.583 561.16 497.245 561.16 500.191C561.16 503.242 559.988 504.903 559.659 505.319Z" fill="#FF00FF"/>
<path d="M556.769 517.726V517.329C556.769 514.786 557.984 513.124 560 513.124C562.021 513.124 563.212 514.768 563.212 517.329V517.726C563.212 520.262 561.984 521.93 559.975 521.93C557.966 521.93 556.769 520.28 556.769 517.726ZM558.443 517.335V517.713C558.443 519.499 559.026 520.566 559.987 520.566C560.949 520.566 561.532 519.499 561.532 517.713V517.335C561.532 515.555 560.949 514.489 559.987 514.489C559.026 514.489 558.443 515.549 558.443 517.335Z" fill="#FF00FF"/>
<path d="M610.515 504.015C610.515 503.637 610.788 503.389 611.259 503.389H616.735C617.212 503.389 617.485 503.637 617.485 504.015C617.485 504.393 617.212 504.635 616.735 504.635H611.259C610.788 504.635 610.515 504.399 610.515 504.015Z" fill="#FF00FF"/>
<path d="M611.836 518.277C611.836 517.837 612.14 517.552 612.673 517.552H615.315C615.848 517.552 616.146 517.837 616.146 518.271C616.146 518.711 615.848 519.003 615.315 519.003H612.673C612.134 519.003 611.836 518.711 611.836 518.277Z" fill="#FF00FF"/>
<path d="M668.682 503.062C668.682 503.508 668.397 503.793 667.981 503.793C667.566 503.793 667.281 503.508 667.281 503.062V501.137C667.281 501.059 667.218 500.997 667.141 500.997H665.383C664.937 500.997 664.651 500.724 664.651 500.308C664.651 499.899 664.937 499.62 665.383 499.62H667.141C667.218 499.62 667.281 499.557 667.281 499.48V497.642C667.281 497.202 667.56 496.91 667.981 496.91C668.397 496.91 668.682 497.202 668.682 497.642V499.48C668.682 499.557 668.745 499.62 668.822 499.62H670.604C671.057 499.62 671.342 499.893 671.342 500.308C671.342 500.724 671.057 500.997 670.604 500.997H668.822C668.745 500.997 668.682 501.059 668.682 501.137V503.062Z" fill="#FF00FF"/>
<path d="M665.011 517.025C665.011 516.634 665.278 516.38 665.755 516.38H670.245C670.723 516.38 670.995 516.634 670.995 517.025C670.995 517.415 670.723 517.676 670.245 517.676H665.755C665.278 517.676 665.011 517.415 665.011 517.025ZM665.011 519.642C665.011 519.251 665.278 518.997 665.755 518.997H670.245C670.723 518.997 670.995 519.245 670.995 519.642C670.995 520.032 670.723 520.293 670.245 520.293H665.755C665.278 520.293 665.011 520.032 665.011 519.642Z" fill="#FF00FF"/>
<path fill-rule="evenodd" clip-rule="evenodd" d="M27.3629 441.15C27.3982 441.078 27.4459 441.012 27.5049 440.955C27.6382 440.825 27.817 440.754 28 440.754C28.183 440.754 28.3618 440.825 28.4951 440.955C28.5541 441.012 28.6018 441.078 28.6371 441.15L28.6392 441.154C28.6451 441.166 28.6521 441.181 28.66 441.198C28.6758 441.232 28.6951 441.278 28.7166 441.334C28.7597 441.447 28.8113 441.604 28.8611 441.81C28.9605 442.223 29.0516 442.831 29.0516 443.668C29.0516 444.47 28.9954 446.308 28.9401 447.931C28.9123 448.746 28.8845 449.511 28.8636 450.073C28.8532 450.354 28.8445 450.584 28.8384 450.744L28.8314 450.928L28.8295 450.977L28.8294 450.979C28.8322 453.168 29.5146 454.752 30.2629 456.489L30.2804 456.53C30.5345 457.119 30.7944 457.725 31.0277 458.371C31.0506 458.435 31.115 458.473 31.1812 458.462C31.7479 458.362 32.1719 458.195 32.4596 457.988C32.8022 457.742 32.9724 457.432 32.9724 457C32.9724 456.537 32.8722 456.233 32.7204 456.026C32.5721 455.825 32.3162 455.637 31.8476 455.515C31.5238 455.43 31.3028 455.131 31.3173 454.797C31.4145 452.545 31.6828 450.043 32.3509 447.898C33.0123 445.774 34.1144 443.846 35.9916 442.976C36.2114 442.874 36.468 442.891 36.6723 443.022C36.8765 443.152 37 443.378 37 443.62V462.327C37 463.112 36.3643 463.747 35.58 463.747H31.8986C31.8296 463.747 31.7711 463.798 31.7589 463.866C31.3727 466.027 29.7974 467.477 28.5989 468.581L28.5272 468.647C28.3973 468.791 28.2092 468.881 28 468.881C27.9112 468.881 27.8261 468.865 27.7477 468.835C27.6417 468.795 27.5478 468.73 27.4731 468.647L27.4011 468.581C26.2027 467.477 24.6273 466.027 24.2411 463.866C24.2289 463.798 24.1704 463.747 24.1014 463.747H20.42C19.6358 463.747 19 463.111 19 462.327V443.62C19 443.378 19.1236 443.152 19.3278 443.022C19.532 442.891 19.7886 442.874 20.0085 442.976C21.8856 443.846 22.9877 445.774 23.6492 447.898C24.3172 450.043 24.5855 452.545 24.6828 454.797C24.6972 455.131 24.4762 455.43 24.1524 455.514C23.6838 455.637 23.428 455.825 23.2797 456.026C23.1279 456.233 23.0276 456.537 23.0276 457C23.0276 457.432 23.1978 457.742 23.5404 457.988C23.8281 458.195 24.2521 458.362 24.8188 458.462C24.885 458.473 24.9494 458.435 24.9723 458.371C25.2056 457.725 25.4656 457.119 25.7196 456.53L25.7371 456.489C26.4855 454.752 27.1678 453.168 27.1706 450.979L27.1705 450.977L27.1686 450.928L27.1616 450.744C27.1555 450.584 27.1468 450.354 27.1364 450.073C27.1155 449.511 27.0878 448.746 27.0599 447.931C27.0046 446.308 26.9485 444.47 26.9485 443.668C26.9485 442.831 27.0395 442.223 27.139 441.81C27.1887 441.604 27.2403 441.447 27.2834 441.334C27.3049 441.278 27.3242 441.232 27.34 441.198C27.3479 441.181 27.3549 441.166 27.3608 441.154L27.3629 441.15ZM24.4837 459.995C24.5022 459.916 24.4516 459.838 24.3726 459.822C23.7398 459.69 23.1717 459.471 22.7126 459.142C22.2368 458.8 21.8951 458.351 21.7265 457.809C21.7077 457.749 21.6525 457.706 21.589 457.706H20.56C20.4827 457.706 20.42 457.768 20.42 457.846V462.187C20.42 462.265 20.4827 462.327 20.56 462.327H24.0293C24.1044 462.327 24.166 462.268 24.1699 462.193C24.2111 461.397 24.3245 460.67 24.4837 459.995ZM25.7315 462.327C25.6517 462.327 25.5879 462.261 25.5926 462.181C25.6338 461.485 25.7372 460.848 25.8829 460.248C25.9026 460.167 25.9894 460.122 26.0652 460.157C26.3735 460.3 26.6187 460.499 26.8079 460.719C27.1577 461.125 27.29 461.567 27.29 461.803V462.187C27.29 462.265 27.2273 462.327 27.15 462.327H25.7315ZM25.8367 463.747C25.7478 463.747 25.6813 463.829 25.7032 463.915C25.9299 464.806 26.4321 465.553 27.0525 466.243C27.1369 466.337 27.29 466.276 27.29 466.15V463.887C27.29 463.81 27.2273 463.747 27.15 463.747H25.8367ZM28.71 466.15C28.71 466.276 28.8631 466.337 28.9475 466.243C29.5679 465.553 30.0701 464.806 30.2968 463.915C30.3187 463.829 30.2522 463.747 30.1633 463.747H28.85C28.7727 463.747 28.71 463.81 28.71 463.887V466.15ZM31.8301 462.193C31.834 462.268 31.8956 462.327 31.9707 462.327H35.44C35.5174 462.327 35.58 462.265 35.58 462.187V457.846C35.58 457.768 35.5174 457.706 35.44 457.706H34.411C34.3475 457.706 34.2924 457.749 34.2735 457.809C34.1049 458.351 33.7632 458.801 33.2874 459.142C32.8284 459.471 32.2602 459.69 31.6274 459.822C31.5484 459.838 31.4978 459.916 31.5163 459.995C31.6755 460.67 31.7889 461.397 31.8301 462.193ZM29.9349 460.157C30.0106 460.122 30.0974 460.167 30.1171 460.248C30.2628 460.848 30.3662 461.485 30.4074 462.181C30.4121 462.261 30.3483 462.327 30.2685 462.327H28.85C28.7727 462.327 28.71 462.265 28.71 462.187V461.803C28.71 461.567 28.8423 461.125 29.1922 460.719C29.3813 460.499 29.6265 460.3 29.9349 460.157ZM29.601 458.608C29.6286 458.681 29.5904 458.762 29.518 458.791C28.9353 459.024 28.4679 459.384 28.1165 459.792C28.1157 459.793 28.1148 459.794 28.114 459.795C28.0545 459.864 27.9456 459.864 27.8861 459.795C27.8852 459.794 27.8844 459.793 27.8835 459.792C27.5322 459.384 27.0647 459.024 26.4821 458.791C26.4096 458.762 26.3715 458.681 26.399 458.608C26.5924 458.097 26.8059 457.597 27.0238 457.091L27.0671 456.991L27.0671 456.991C27.3395 456.359 27.6179 455.713 27.8609 455.025C27.9062 454.896 28.0938 454.896 28.1391 455.025C28.3821 455.713 28.6605 456.359 28.9329 456.991L28.9762 457.091C29.1941 457.597 29.4076 458.097 29.601 458.608ZM27.9999 450.961L28 450.961L28.0001 450.961L28 450.961L27.9999 450.961ZM22.1358 455.185C21.9162 455.483 21.7751 455.817 21.6945 456.172C21.6796 456.238 21.6222 456.286 21.5549 456.286H20.56C20.4827 456.286 20.42 456.223 20.42 456.146V445.28C20.42 445.157 20.5646 445.096 20.6478 445.186C21.3457 445.943 21.8866 447.014 22.2934 448.32C22.8501 450.108 23.1167 452.213 23.2327 454.233C23.2361 454.292 23.2024 454.346 23.1494 454.37C22.74 454.563 22.3963 454.831 22.1358 455.185ZM33.8643 455.185C34.0838 455.484 34.2249 455.817 34.3055 456.172C34.3204 456.238 34.3779 456.286 34.4451 456.286H35.44C35.5174 456.286 35.58 456.223 35.58 456.146V445.28C35.58 445.157 35.4354 445.096 35.3522 445.186C34.6543 445.943 34.1134 447.014 33.7067 448.32C33.15 450.108 32.8833 452.213 32.7673 454.233C32.764 454.292 32.7976 454.346 32.8506 454.37C33.2601 454.563 33.6038 454.831 33.8643 455.185Z" fill="#FF00FF"/>
<path d="M140.762 396.928V387.595C140.762 387.044 141.085 386.777 141.5 386.777C141.916 386.777 142.238 387.044 142.238 387.595V396.928C142.238 397.48 141.916 397.747 141.5 397.747C141.085 397.747 140.762 397.48 140.762 396.928Z" fill="#FF00FF"/>
<path d="M142.157 415.226L139.478 405.732C139.46 405.676 139.441 405.577 139.441 405.484C139.429 405.099 139.745 404.777 140.148 404.777C140.483 404.777 140.756 404.975 140.849 405.298L143.522 414.798C143.54 414.848 143.559 414.953 143.565 415.04C143.571 415.424 143.261 415.747 142.852 415.747C142.517 415.747 142.244 415.548 142.157 415.226Z" fill="#FF00FF"/>
<path d="M86.7622 396.928V387.595C86.7622 387.044 87.0847 386.777 87.5001 386.777C87.9156 386.777 88.2381 387.044 88.2381 387.595V396.928C88.2381 397.48 87.9156 397.747 87.5001 397.747C87.0847 397.747 86.7622 397.48 86.7622 396.928Z" fill="#FF00FF"/>
<path d="M88.1574 415.226L85.4785 405.732C85.4599 405.676 85.4413 405.577 85.4413 405.484C85.4289 405.099 85.7451 404.777 86.1482 404.777C86.4831 404.777 86.7559 404.975 86.8489 405.298L89.5216 414.798C89.5402 414.848 89.5588 414.953 89.565 415.04C89.5713 415.424 89.2612 415.747 88.8519 415.747C88.5171 415.747 88.2442 415.548 88.1574 415.226Z" fill="#FF00FF"/>
<path fill-rule="evenodd" clip-rule="evenodd" d="M286.608 171.216C286.906 170.818 287.469 170.737 287.867 171.034L293.21 175.029C293.438 175.199 293.571 175.466 293.571 175.75C293.571 176.034 293.438 176.301 293.21 176.471L287.867 180.466C287.469 180.763 286.906 180.682 286.608 180.284C286.31 179.886 286.392 179.322 286.79 179.025L291.019 175.862C291.094 175.806 291.094 175.694 291.019 175.638L286.79 172.475C286.392 172.178 286.31 171.614 286.608 171.216Z" fill="#FF00FF"/>
<path fill-rule="evenodd" clip-rule="evenodd" d="M293.392 189.216C293.095 188.818 292.531 188.737 292.133 189.034L286.79 193.029C286.562 193.199 286.429 193.466 286.429 193.75C286.429 194.034 286.562 194.301 286.79 194.471L292.133 198.466C292.531 198.763 293.095 198.682 293.392 198.284C293.69 197.886 293.608 197.322 293.21 197.025L288.981 193.862C288.906 193.806 288.906 193.694 288.981 193.638L293.21 190.475C293.608 190.178 293.69 189.614 293.392 189.216Z" fill="#FF00FF"/>
<rect x="743.5" y="702" width="67.5" height="54" stroke="#00FFFF"/>
<rect x="676" y="702" width="67.5" height="54" stroke="#00FFFF"/>
<rect x="608.5" y="702" width="67.5" height="54" stroke="#00FFFF"/>
<rect x="541" y="702" width="67.5" height="54" stroke="#00FFFF"/>
<rect x="136" y="702" width="67.5" height="54" stroke="#00FFFF"/>
<rect x="68.5" y="702" width="67.5" height="54" stroke="#00FFFF"/>
<rect x="1" y="702" width="67.5" height="54" stroke="#00FFFF"/>
<rect x="662.5" y="648" width="148.5" height="54" stroke="#00FFFF"/>
<rect x="1" y="648" width="121.5" height="54" stroke="#00FFFF"/>
<rect x="689.5" y="594" width="121.5" height="54" stroke="#00FFFF"/>
<rect x="1" y="594" width="94.5" height="54" stroke="#00FFFF"/>
<rect x="1" y="540" width="81" height="54" stroke="#00FFFF"/>
<rect x="703" y="486" width="108" height="54" stroke="#00FFFF"/>
<rect x="608.5" y="648" width="54" height="54" stroke="#00FFFF"/>
<rect x="554.5" y="648" width="54" height="54" stroke="#00FFFF"/>
<rect x="500.5" y="648" width="54" height="54" stroke="#00FFFF"/>
<rect x="446.5" y="648" width="54" height="54" stroke="#00FFFF"/>
<rect x="392.5" y="648" width="54" height="54" stroke="#00FFFF"/>
<rect x="338.5" y="648" width="54" height="54" stroke="#00FFFF"/>
<rect x="284.5" y="648" width="54" height="54" stroke="#00FFFF"/>
<rect x="230.5" y="648" width="54" height="54" stroke="#00FFFF"/>
<rect x="176.5" y="648" width="54" height="54" stroke="#00FFFF"/>
<rect x="122.5" y="648" width="54" height="54" stroke="#00FFFF"/>
<rect x="635.5" y="594" width="54" height="54" stroke="#00FFFF"/>
<rect x="581.5" y="594" width="54" height="54" stroke="#00FFFF"/>
<rect x="527.5" y="594" width="54" height="54" stroke="#00FFFF"/>
<rect x="473.5" y="594" width="54" height="54" stroke="#00FFFF"/>
<rect x="419.5" y="594" width="54" height="54" stroke="#00FFFF"/>
<rect x="365.5" y="594" width="54" height="54" stroke="#00FFFF"/>
<rect x="311.5" y="594" width="54" height="54" stroke="#00FFFF"/>
<rect x="257.5" y="594" width="54" height="54" stroke="#00FFFF"/>
<rect x="203.5" y="594" width="54" height="54" stroke="#00FFFF"/>
<rect x="149.5" y="594" width="54" height="54" stroke="#00FFFF"/>
<rect x="95.5" y="594" width="54" height="54" stroke="#00FFFF"/>
<rect x="730" y="540" width="81" height="54" stroke="#00FFFF"/>
<rect x="676" y="540" width="54" height="54" stroke="#00FFFF"/>
<rect x="622" y="540" width="54" height="54" stroke="#00FFFF"/>
<rect x="568" y="540" width="54" height="54" stroke="#00FFFF"/>
<rect x="514" y="540" width="54" height="54" stroke="#00FFFF"/>
<rect x="460" y="540" width="54" height="54" stroke="#00FFFF"/>
<rect x="406" y="540" width="54" height="54" stroke="#00FFFF"/>
<rect x="352" y="540" width="54" height="54" stroke="#00FFFF"/>
<rect x="298" y="540" width="54" height="54" stroke="#00FFFF"/>
<rect x="244" y="540" width="54" height="54" stroke="#00FFFF"/>
<rect x="190" y="540" width="54" height="54" stroke="#00FFFF"/>
<rect x="136" y="540" width="54" height="54" stroke="#00FFFF"/>
<rect x="82" y="540" width="54" height="54" stroke="#00FFFF"/>
<rect x="55" y="486" width="54" height="54" stroke="#00FFFF"/>
<rect x="109" y="486" width="54" height="54" stroke="#00FFFF"/>
<rect x="163" y="486" width="54" height="54" stroke="#00FFFF"/>
<rect x="217" y="486" width="54" height="54" stroke="#00FFFF"/>
<rect x="271" y="486" width="54" height="54" stroke="#00FFFF"/>
<rect x="325" y="486" width="54" height="54" stroke="#00FFFF"/>
<rect x="379" y="486" width="54" height="54" stroke="#00FFFF"/>
<rect x="433" y="486" width="54" height="54" stroke="#00FFFF"/>
<rect x="487" y="486" width="54" height="54" stroke="#00FFFF"/>
<rect x="541" y="486" width="54" height="54" stroke="#00FFFF"/>
<rect x="595" y="486" width="54" height="54" stroke="#00FFFF"/>
<rect x="649" y="486" width="54" height="54" stroke="#00FFFF"/>
<rect x="1" y="486" width="54" height="54" stroke="#00FFFF"/>
<rect x="217" y="432" width="54" height="54" stroke="#00FFFF"/>
<rect x="163" y="432" width="54" height="54" stroke="#00FFFF"/>
<rect x="109" y="432" width="54" height="54" stroke="#00FFFF"/>
<rect x="55" y="432" width="54" height="54" stroke="#00FFFF"/>
<rect x="433" y="432" width="54" height="54" stroke="#00FFFF"/>
<rect x="379" y="432" width="54" height="54" stroke="#00FFFF"/>
<rect x="325" y="432" width="54" height="54" stroke="#00FFFF"/>
<rect x="271" y="432" width="54" height="54" stroke="#00FFFF"/>
<rect x="649" y="432" width="54" height="54" stroke="#00FFFF"/>
<rect x="595" y="432" width="54" height="54" stroke="#00FFFF"/>
<rect x="541" y="432" width="54" height="54" stroke="#00FFFF"/>
<rect x="487" y="432" width="54" height="54" stroke="#00FFFF"/>
<rect x="541" y="378" width="54" height="54" stroke="#00FFFF"/>
<rect x="487" y="378" width="54" height="54" stroke="#00FFFF"/>
<rect x="433" y="378" width="54" height="54" stroke="#00FFFF"/>
<rect x="487" y="324" width="54" height="54" stroke="#00FFFF"/>
<rect x="703" y="378" width="54" height="54" stroke="#00FFFF"/>
<rect x="595" y="378" width="108" height="54" stroke="#00FFFF"/>
<rect x="757" y="324" width="54" height="108" stroke="#00FFFF"/>
<rect x="703" y="324" width="54" height="54" stroke="#00FFFF"/>
<rect x="649" y="324" width="54" height="54" stroke="#00FFFF"/>
<rect x="595" y="324" width="54" height="54" stroke="#00FFFF"/>
<rect x="703" y="270" width="54" height="54" stroke="#00FFFF"/>
<rect x="595" y="270" width="54" height="54" stroke="#00FFFF"/>
<rect x="757" y="216" width="54" height="108" stroke="#00FFFF"/>
<rect x="703" y="216" width="54" height="54" stroke="#00FFFF"/>
<rect x="649" y="216" width="54" height="54" stroke="#00FFFF"/>
<rect x="595" y="216" width="54" height="54" stroke="#00FFFF"/>
<rect x="757" y="162" width="54" height="54" stroke="#00FFFF"/>
<rect x="703" y="162" width="54" height="54" stroke="#00FFFF"/>
<rect x="649" y="162" width="54" height="54" stroke="#00FFFF"/>
<rect x="595" y="162" width="54" height="54" stroke="#00FFFF"/>
<rect x="649" y="270" width="54" height="54" stroke="#00FFFF"/>
<rect x="541" y="162" width="54" height="54" stroke="#00FFFF"/>
<rect x="487" y="162" width="54" height="54" stroke="#00FFFF"/>
<rect x="433" y="162" width="54" height="54" stroke="#00FFFF"/>
<rect x="541" y="216" width="54" height="54" stroke="#00FFFF"/>
<rect x="487" y="216" width="54" height="54" stroke="#00FFFF"/>
<rect x="433" y="216" width="54" height="54" stroke="#00FFFF"/>
<rect x="541" y="270" width="54" height="54" stroke="#00FFFF"/>
<rect x="487" y="270" width="54" height="54" stroke="#00FFFF"/>
<rect x="433" y="270" width="54" height="54" stroke="#00FFFF"/>
<rect x="595" y="756" width="81" height="54" stroke="#00FFFF"/>
<rect x="676" y="756" width="54" height="54" stroke="#00FFFF"/>
<rect x="730" y="756" width="81" height="54" stroke="#00FFFF"/>
<rect x="136" y="756" width="81" height="54" stroke="#00FFFF"/>
<rect x="82" y="756" width="54" height="54" stroke="#00FFFF"/>
<rect x="1" y="756" width="81" height="54" stroke="#00FFFF"/>
<rect x="1" y="432" width="54" height="54" stroke="#00FFFF"/>
<rect x="757" y="432" width="54" height="54" stroke="#00FFFF"/>
<rect x="703" y="432" width="54" height="54" stroke="#00FFFF"/>
<rect x="541" y="324" width="54" height="54" stroke="#00FFFF"/>
<rect x="433" y="324" width="54" height="54" stroke="#00FFFF"/>
<rect x="379" y="324" width="54" height="54" stroke="#00FFFF"/>
<rect x="379" y="378" width="54" height="54" stroke="#00FFFF"/>
<rect x="298" y="378" width="81" height="54" stroke="#00FFFF"/>
<rect x="298" y="324" width="81" height="54" stroke="#00FFFF"/>
<rect x="217" y="324" width="81" height="108" stroke="#00FFFF"/>
<rect x="176.5" y="378" width="54" height="54" stroke="#00FFFF"/>
<rect x="122.5" y="378" width="54" height="54" stroke="#00FFFF"/>
<rect x="68.5" y="378" width="54" height="54" stroke="#00FFFF"/>
<rect x="1" y="378" width="67.5" height="54" stroke="#00FFFF"/>
<rect x="109" y="324" width="54" height="54" stroke="#00FFFF"/>
<rect x="55" y="324" width="54" height="54" stroke="#00FFFF"/>
<rect x="1" y="324" width="54" height="54" stroke="#00FFFF"/>
<rect x="163" y="324" width="54" height="54" stroke="#00FFFF"/>
<rect x="271" y="270" width="94.5" height="54" stroke="#00FFFF"/>
<rect x="365.5" y="270" width="67.5" height="54" stroke="#00FFFF"/>
<rect x="217" y="270" width="54" height="54" stroke="#00FFFF"/>
<rect x="163" y="270" width="54" height="54" stroke="#00FFFF"/>
<rect x="95.5" y="270" width="67.5" height="54" stroke="#00FFFF"/>
<rect x="1" y="270" width="94.5" height="54" stroke="#00FFFF"/>
<rect x="379" y="162" width="54" height="54" stroke="#00FFFF"/>
<rect x="271" y="162" width="54" height="54" stroke="#00FFFF"/>
<rect x="163" y="162" width="108" height="54" stroke="#00FFFF"/>
<rect x="95.5" y="162" width="67.5" height="54" stroke="#00FFFF"/>
<rect x="217" y="216" width="54" height="54" stroke="#00FFFF"/>
<rect x="163" y="216" width="54" height="54" stroke="#00FFFF"/>
<rect x="95.5" y="216" width="67.5" height="54" stroke="#00FFFF"/>
<rect x="1" y="216" width="94.5" height="54" stroke="#00FFFF"/>
<rect x="1" y="162" width="94.5" height="54" stroke="#00FFFF"/>
<rect x="730" y="54" width="81" height="108" stroke="#00FFFF"/>
<rect x="635.5" y="108" width="54" height="54" stroke="#00FFFF"/>
<rect x="554.5" y="108" width="81" height="54" stroke="#00FFFF"/>
<rect x="446.5" y="108" width="108" height="54" stroke="#00FFFF"/>
<rect x="311.5" y="108" width="81" height="54" stroke="#00FFFF"/>
<rect x="257.5" y="108" width="54" height="54" stroke="#00FFFF"/>
<rect x="163" y="108" width="94.5" height="54" stroke="#00FFFF"/>
<rect x="82" y="108" width="81" height="54" stroke="#00FFFF"/>
<rect x="1" y="108" width="81" height="54" stroke="#00FFFF"/>
<rect x="635.5" y="54" width="94.5" height="54" stroke="#00FFFF"/>
<rect x="527.5" y="54" width="54" height="54" stroke="#00FFFF"/>
<rect x="473.5" y="54" width="54" height="54" stroke="#00FFFF"/>
<rect x="392.5" y="54" width="81" height="54" stroke="#00FFFF"/>
</svg>
