<svg width="812" height="812" viewBox="0 0 812 812" fill="none" xmlns="http://www.w3.org/2000/svg">
<path fill-rule="evenodd" clip-rule="evenodd" d="M160.195 720.996C160.019 720.996 159.851 721.065 159.727 721.188L155.617 725.298C155.354 725.561 155.354 725.971 155.617 726.234L155.618 726.235L159.727 730.364C159.851 730.487 160.019 730.556 160.195 730.556H169.275C169.619 730.556 169.895 730.278 169.895 729.936V721.616C169.895 721.272 169.616 720.996 169.275 720.996H160.195ZM158.723 720.184C159.119 719.788 159.651 719.576 160.195 719.576H169.275C170.394 719.576 171.315 720.481 171.315 721.616V729.936C171.315 731.055 170.411 731.976 169.275 731.976H160.195C159.651 731.976 159.119 731.765 158.723 731.368L158.722 731.367L154.613 727.238L154.612 727.237C153.796 726.42 153.796 725.111 154.613 724.294L158.723 720.184ZM167.287 722.994C167.564 723.271 167.564 723.721 167.287 723.998L165.621 725.664C165.567 725.719 165.567 725.807 165.621 725.862L167.287 727.524C167.564 727.801 167.565 728.25 167.288 728.528C167.011 728.805 166.561 728.806 166.284 728.529L164.617 726.866C164.562 726.811 164.474 726.811 164.419 726.866L162.757 728.528C162.48 728.806 162.03 728.806 161.753 728.528C161.476 728.251 161.476 727.801 161.753 727.524L163.414 725.863C163.469 725.809 163.468 725.72 163.414 725.665L161.744 723.999C161.466 723.722 161.465 723.272 161.742 722.995C162.019 722.717 162.469 722.717 162.747 722.994L164.418 724.661C164.473 724.716 164.561 724.716 164.616 724.661L166.283 722.994C166.56 722.717 167.01 722.717 167.287 722.994Z" fill="#FF00FF"/>
<path d="M84.5399 723.006C83.8899 723.006 83.4399 722.606 83.4399 722.016C83.4399 721.776 83.4999 721.506 83.6499 721.056L86.6799 712.386C87.0599 711.266 87.5899 710.806 88.5999 710.806C89.6099 710.806 90.1199 711.266 90.4999 712.386L93.5199 721.056C93.6399 721.436 93.6999 721.726 93.6999 721.966C93.6999 722.596 93.2499 723.006 92.5799 723.006C91.9399 723.006 91.5699 722.676 91.3299 721.856L90.6899 719.916C90.6699 719.856 90.6199 719.816 90.5599 719.816H86.5599C86.4999 719.816 86.4399 719.856 86.4299 719.916L85.7899 721.856C85.5399 722.686 85.1899 723.006 84.5599 723.006H84.5399ZM87.1599 718.046H89.9399C90.0399 718.046 90.0999 717.956 90.0799 717.866L88.6999 713.446C88.6599 713.316 88.4699 713.316 88.4299 713.446L87.0399 717.866C87.0099 717.956 87.0799 718.046 87.1799 718.046H87.1599Z" fill="#FF00FF"/>
<path fill-rule="evenodd" clip-rule="evenodd" d="M17.6177 722.988C16.8706 722.988 16.4399 722.513 16.4399 721.705V712.634C16.4399 711.386 16.9146 710.903 18.1538 710.903H21.186C23.6821 710.903 25.2905 712.467 25.2905 714.84C25.2905 717.319 23.6646 718.787 21.0894 718.787H18.953C18.8757 718.787 18.813 718.849 18.813 718.927V721.705C18.813 722.513 18.3735 722.988 17.6177 722.988ZM18.813 716.801C18.813 716.878 18.8757 716.941 18.953 716.941H20.3335C22.1792 716.941 22.9263 716.405 22.9263 714.875C22.9263 713.557 22.188 712.801 20.8872 712.801H18.953C18.8757 712.801 18.813 712.864 18.813 712.941V716.801Z" fill="#FF00FF"/>
<path d="M15.9399 613.697C15.9399 613.24 16.1245 612.906 16.9596 611.808L21.9014 605.071C21.9701 604.977 21.9033 604.846 21.7872 604.846H17.1618C16.5553 604.846 16.1509 604.459 16.1509 603.879C16.1509 603.29 16.5641 602.903 17.1618 602.903H23.4646C24.2381 602.903 24.7216 603.351 24.7216 604.072C24.7216 604.538 24.5194 604.916 23.6931 606.023L18.8377 612.734C18.7699 612.828 18.8369 612.959 18.9525 612.959H23.9832C24.5721 612.959 24.9853 613.355 24.9853 613.935C24.9853 614.506 24.5634 614.902 23.9744 614.902H17.2409C16.4674 614.902 15.9399 614.41 15.9399 613.697Z" fill="#FF00FF"/>
<path d="M107.685 775.152C107.685 774.426 108.274 773.837 109 773.837C109.726 773.837 110.315 774.426 110.315 775.152L110.315 777.152C110.315 777.53 110.622 777.837 111 777.837C111.378 777.837 111.685 777.53 111.685 777.152L111.685 775.152C111.685 773.669 110.483 772.467 109 772.467C107.517 772.467 106.315 773.669 106.315 775.152L106.315 777.152C106.315 777.53 106.622 777.837 107 777.837C107.378 777.837 107.685 777.53 107.685 777.152L107.685 775.152Z" fill="#FF00FF"/>
<path d="M104.676 777.596C104.347 777.408 103.929 777.522 103.741 777.85C103.553 778.178 103.666 778.597 103.994 778.785L108.674 781.467C108.886 781.588 109.146 781.588 109.357 781.466L114.007 778.784C114.335 778.595 114.447 778.176 114.258 777.849C114.069 777.521 113.651 777.408 113.323 777.597L109.014 780.082L104.676 777.596Z" fill="#FF00FF"/>
<path d="M104.676 780.33C104.347 780.142 103.929 780.256 103.741 780.584C103.553 780.912 103.666 781.331 103.994 781.519L108.674 784.201C108.886 784.322 109.146 784.321 109.357 784.2L114.007 781.518C114.335 781.329 114.447 780.91 114.258 780.583C114.069 780.255 113.651 780.142 113.323 780.331L109.014 782.816L104.676 780.33Z" fill="#FF00FF"/>
<path d="M103.741 783.326C103.929 782.997 104.347 782.884 104.676 783.072L109.014 785.558L113.323 783.073C113.651 782.884 114.069 782.996 114.258 783.324C114.447 783.652 114.335 784.071 114.007 784.26L109.357 786.941C109.146 787.063 108.886 787.063 108.674 786.942L103.994 784.261C103.666 784.073 103.553 783.654 103.741 783.326Z" fill="#FF00FF"/>
<path fill-rule="evenodd" clip-rule="evenodd" d="M16.6079 766.216C16.9055 765.818 17.4694 765.737 17.8674 766.034L23.2104 770.029C23.4376 770.199 23.5714 770.466 23.5714 770.75C23.5714 771.034 23.4376 771.301 23.2104 771.471L17.8674 775.466C17.4694 775.763 16.9055 775.682 16.6079 775.284C16.3104 774.886 16.3917 774.322 16.7897 774.025L21.0191 770.862C21.094 770.806 21.094 770.694 21.0191 770.638L16.7897 767.475C16.3917 767.178 16.3104 766.614 16.6079 766.216Z" fill="#FF00FF"/>
<path d="M19.0326 791.919C19.0326 791.392 19.4667 790.958 19.9938 790.958C20.5271 790.958 20.9612 791.392 20.9612 791.919C20.9612 792.452 20.5271 792.887 19.9938 792.887C19.4667 792.887 19.0326 792.452 19.0326 791.919Z" fill="#FF00FF"/>
<rect x="743.5" y="703" width="67.5" height="54" stroke="#00FFFF"/>
<rect x="676" y="703" width="67.5" height="54" stroke="#00FFFF"/>
<rect x="608.5" y="703" width="67.5" height="54" stroke="#00FFFF"/>
<rect x="541" y="703" width="67.5" height="54" stroke="#00FFFF"/>
<rect x="136" y="703" width="67.5" height="54" stroke="#00FFFF"/>
<rect x="68.5" y="703" width="67.5" height="54" stroke="#00FFFF"/>
<rect x="1" y="703" width="67.5" height="54" stroke="#00FFFF"/>
<rect x="662.5" y="649" width="148.5" height="54" stroke="#00FFFF"/>
<rect x="1" y="649" width="121.5" height="54" stroke="#00FFFF"/>
<rect x="689.5" y="595" width="121.5" height="54" stroke="#00FFFF"/>
<rect x="1" y="595" width="94.5" height="54" stroke="#00FFFF"/>
<rect x="1" y="541" width="81" height="54" stroke="#00FFFF"/>
<rect x="703" y="487" width="108" height="54" stroke="#00FFFF"/>
<rect x="608.5" y="649" width="54" height="54" stroke="#00FFFF"/>
<rect x="554.5" y="649" width="54" height="54" stroke="#00FFFF"/>
<rect x="500.5" y="649" width="54" height="54" stroke="#00FFFF"/>
<rect x="446.5" y="649" width="54" height="54" stroke="#00FFFF"/>
<rect x="392.5" y="649" width="54" height="54" stroke="#00FFFF"/>
<rect x="338.5" y="649" width="54" height="54" stroke="#00FFFF"/>
<rect x="284.5" y="649" width="54" height="54" stroke="#00FFFF"/>
<rect x="230.5" y="649" width="54" height="54" stroke="#00FFFF"/>
<rect x="176.5" y="649" width="54" height="54" stroke="#00FFFF"/>
<rect x="122.5" y="649" width="54" height="54" stroke="#00FFFF"/>
<rect x="635.5" y="595" width="54" height="54" stroke="#00FFFF"/>
<rect x="581.5" y="595" width="54" height="54" stroke="#00FFFF"/>
<rect x="527.5" y="595" width="54" height="54" stroke="#00FFFF"/>
<rect x="473.5" y="595" width="54" height="54" stroke="#00FFFF"/>
<rect x="419.5" y="595" width="54" height="54" stroke="#00FFFF"/>
<rect x="365.5" y="595" width="54" height="54" stroke="#00FFFF"/>
<rect x="311.5" y="595" width="54" height="54" stroke="#00FFFF"/>
<rect x="257.5" y="595" width="54" height="54" stroke="#00FFFF"/>
<rect x="203.5" y="595" width="54" height="54" stroke="#00FFFF"/>
<rect x="149.5" y="595" width="54" height="54" stroke="#00FFFF"/>
<rect x="95.5" y="595" width="54" height="54" stroke="#00FFFF"/>
<rect x="730" y="541" width="81" height="54" stroke="#00FFFF"/>
<rect x="676" y="541" width="54" height="54" stroke="#00FFFF"/>
<rect x="622" y="541" width="54" height="54" stroke="#00FFFF"/>
<rect x="568" y="541" width="54" height="54" stroke="#00FFFF"/>
<rect x="514" y="541" width="54" height="54" stroke="#00FFFF"/>
<rect x="460" y="541" width="54" height="54" stroke="#00FFFF"/>
<rect x="406" y="541" width="54" height="54" stroke="#00FFFF"/>
<rect x="352" y="541" width="54" height="54" stroke="#00FFFF"/>
<rect x="298" y="541" width="54" height="54" stroke="#00FFFF"/>
<rect x="244" y="541" width="54" height="54" stroke="#00FFFF"/>
<rect x="190" y="541" width="54" height="54" stroke="#00FFFF"/>
<rect x="136" y="541" width="54" height="54" stroke="#00FFFF"/>
<rect x="82" y="541" width="54" height="54" stroke="#00FFFF"/>
<rect x="55" y="487" width="54" height="54" stroke="#00FFFF"/>
<rect x="109" y="487" width="54" height="54" stroke="#00FFFF"/>
<rect x="163" y="487" width="54" height="54" stroke="#00FFFF"/>
<rect x="217" y="487" width="54" height="54" stroke="#00FFFF"/>
<rect x="271" y="487" width="54" height="54" stroke="#00FFFF"/>
<rect x="325" y="487" width="54" height="54" stroke="#00FFFF"/>
<rect x="379" y="487" width="54" height="54" stroke="#00FFFF"/>
<rect x="433" y="487" width="54" height="54" stroke="#00FFFF"/>
<rect x="487" y="487" width="54" height="54" stroke="#00FFFF"/>
<rect x="541" y="487" width="54" height="54" stroke="#00FFFF"/>
<rect x="595" y="487" width="54" height="54" stroke="#00FFFF"/>
<rect x="649" y="487" width="54" height="54" stroke="#00FFFF"/>
<rect x="1" y="487" width="54" height="54" stroke="#00FFFF"/>
<rect x="217" y="433" width="54" height="54" stroke="#00FFFF"/>
<rect x="163" y="433" width="54" height="54" stroke="#00FFFF"/>
<rect x="109" y="433" width="54" height="54" stroke="#00FFFF"/>
<rect x="55" y="433" width="54" height="54" stroke="#00FFFF"/>
<rect x="433" y="433" width="54" height="54" stroke="#00FFFF"/>
<rect x="379" y="433" width="54" height="54" stroke="#00FFFF"/>
<rect x="325" y="433" width="54" height="54" stroke="#00FFFF"/>
<rect x="271" y="433" width="54" height="54" stroke="#00FFFF"/>
<rect x="649" y="433" width="54" height="54" stroke="#00FFFF"/>
<rect x="595" y="433" width="54" height="54" stroke="#00FFFF"/>
<rect x="541" y="433" width="54" height="54" stroke="#00FFFF"/>
<rect x="487" y="433" width="54" height="54" stroke="#00FFFF"/>
<rect x="541" y="379" width="54" height="54" stroke="#00FFFF"/>
<rect x="487" y="379" width="54" height="54" stroke="#00FFFF"/>
<rect x="433" y="379" width="54" height="54" stroke="#00FFFF"/>
<rect x="487" y="325" width="54" height="54" stroke="#00FFFF"/>
<rect x="703" y="379" width="54" height="54" stroke="#00FFFF"/>
<rect x="595" y="379" width="108" height="54" stroke="#00FFFF"/>
<rect x="757" y="325" width="54" height="108" stroke="#00FFFF"/>
<rect x="703" y="325" width="54" height="54" stroke="#00FFFF"/>
<rect x="649" y="325" width="54" height="54" stroke="#00FFFF"/>
<rect x="595" y="325" width="54" height="54" stroke="#00FFFF"/>
<rect x="703" y="271" width="54" height="54" stroke="#00FFFF"/>
<rect x="595" y="271" width="54" height="54" stroke="#00FFFF"/>
<rect x="757" y="217" width="54" height="108" stroke="#00FFFF"/>
<rect x="703" y="217" width="54" height="54" stroke="#00FFFF"/>
<rect x="649" y="217" width="54" height="54" stroke="#00FFFF"/>
<rect x="595" y="217" width="54" height="54" stroke="#00FFFF"/>
<rect x="757" y="163" width="54" height="54" stroke="#00FFFF"/>
<rect x="703" y="163" width="54" height="54" stroke="#00FFFF"/>
<rect x="649" y="163" width="54" height="54" stroke="#00FFFF"/>
<rect x="595" y="163" width="54" height="54" stroke="#00FFFF"/>
<rect x="649" y="271" width="54" height="54" stroke="#00FFFF"/>
<rect x="541" y="163" width="54" height="54" stroke="#00FFFF"/>
<rect x="487" y="163" width="54" height="54" stroke="#00FFFF"/>
<rect x="433" y="163" width="54" height="54" stroke="#00FFFF"/>
<rect x="541" y="217" width="54" height="54" stroke="#00FFFF"/>
<rect x="487" y="217" width="54" height="54" stroke="#00FFFF"/>
<rect x="433" y="217" width="54" height="54" stroke="#00FFFF"/>
<rect x="541" y="271" width="54" height="54" stroke="#00FFFF"/>
<rect x="487" y="271" width="54" height="54" stroke="#00FFFF"/>
<rect x="433" y="271" width="54" height="54" stroke="#00FFFF"/>
<rect x="595" y="757" width="81" height="54" stroke="#00FFFF"/>
<rect x="676" y="757" width="54" height="54" stroke="#00FFFF"/>
<rect x="730" y="757" width="81" height="54" stroke="#00FFFF"/>
<rect x="136" y="757" width="81" height="54" stroke="#00FFFF"/>
<rect x="82" y="757" width="54" height="54" stroke="#00FFFF"/>
<rect x="1" y="757" width="81" height="54" stroke="#00FFFF"/>
<rect x="1" y="433" width="54" height="54" stroke="#00FFFF"/>
<rect x="757" y="433" width="54" height="54" stroke="#00FFFF"/>
<rect x="703" y="433" width="54" height="54" stroke="#00FFFF"/>
<rect x="541" y="325" width="54" height="54" stroke="#00FFFF"/>
<rect x="433" y="325" width="54" height="54" stroke="#00FFFF"/>
<rect x="379" y="325" width="54" height="54" stroke="#00FFFF"/>
<rect x="379" y="379" width="54" height="54" stroke="#00FFFF"/>
<rect x="298" y="379" width="81" height="54" stroke="#00FFFF"/>
<rect x="298" y="325" width="81" height="54" stroke="#00FFFF"/>
<rect x="217" y="325" width="81" height="108" stroke="#00FFFF"/>
<rect x="176.5" y="379" width="54" height="54" stroke="#00FFFF"/>
<rect x="122.5" y="379" width="54" height="54" stroke="#00FFFF"/>
<rect x="68.5" y="379" width="54" height="54" stroke="#00FFFF"/>
<rect x="1" y="379" width="67.5" height="54" stroke="#00FFFF"/>
<rect x="109" y="325" width="54" height="54" stroke="#00FFFF"/>
<rect x="55" y="325" width="54" height="54" stroke="#00FFFF"/>
<rect x="1" y="325" width="54" height="54" stroke="#00FFFF"/>
<rect x="163" y="325" width="54" height="54" stroke="#00FFFF"/>
<rect x="271" y="271" width="94.5" height="54" stroke="#00FFFF"/>
<rect x="365.5" y="271" width="67.5" height="54" stroke="#00FFFF"/>
<rect x="217" y="271" width="54" height="54" stroke="#00FFFF"/>
<rect x="163" y="271" width="54" height="54" stroke="#00FFFF"/>
<rect x="95.5" y="271" width="67.5" height="54" stroke="#00FFFF"/>
<rect x="1" y="271" width="94.5" height="54" stroke="#00FFFF"/>
<rect x="379" y="163" width="54" height="54" stroke="#00FFFF"/>
<rect x="271" y="163" width="54" height="54" stroke="#00FFFF"/>
<rect x="163" y="163" width="108" height="54" stroke="#00FFFF"/>
<rect x="95.5" y="163" width="67.5" height="54" stroke="#00FFFF"/>
<rect x="217" y="217" width="54" height="54" stroke="#00FFFF"/>
<rect x="163" y="217" width="54" height="54" stroke="#00FFFF"/>
<rect x="95.5" y="217" width="67.5" height="54" stroke="#00FFFF"/>
<rect x="1" y="217" width="94.5" height="54" stroke="#00FFFF"/>
<rect x="1" y="163" width="94.5" height="54" stroke="#00FFFF"/>
<rect x="730" y="55" width="81" height="108" stroke="#00FFFF"/>
<rect x="635.5" y="109" width="54" height="54" stroke="#00FFFF"/>
<rect x="554.5" y="109" width="81" height="54" stroke="#00FFFF"/>
<rect x="446.5" y="109" width="108" height="54" stroke="#00FFFF"/>
<rect x="311.5" y="109" width="81" height="54" stroke="#00FFFF"/>
<rect x="257.5" y="109" width="54" height="54" stroke="#00FFFF"/>
<rect x="163" y="109" width="94.5" height="54" stroke="#00FFFF"/>
<rect x="82" y="109" width="81" height="54" stroke="#00FFFF"/>
<rect x="1" y="109" width="81" height="54" stroke="#00FFFF"/>
<rect x="635.5" y="55" width="94.5" height="54" stroke="#00FFFF"/>
<rect x="527.5" y="55" width="54" height="54" stroke="#00FFFF"/>
<rect x="473.5" y="55" width="54" height="54" stroke="#00FFFF"/>
<rect x="392.5" y="55" width="81" height="54" stroke="#00FFFF"/>
<rect x="1" y="1" width="54" height="54" stroke="#00FFFF"/>
<rect x="55" y="1" width="54" height="54" stroke="#00FFFF"/>
<rect x="109" y="1" width="54" height="54" stroke="#00FFFF"/>
<rect x="163" y="1" width="54" height="54" stroke="#00FFFF"/>
<rect x="217" y="1" width="54" height="54" stroke="#00FFFF"/>
<rect x="271" y="1" width="54" height="54" stroke="#00FFFF"/>
<rect x="325" y="1" width="54" height="54" stroke="#00FFFF"/>
<rect x="379" y="1" width="54" height="54" stroke="#00FFFF"/>
</svg>
