<svg width="812" height="812" viewBox="0 0 812 812" fill="none" xmlns="http://www.w3.org/2000/svg">
<path fill-rule="evenodd" clip-rule="evenodd" d="M627.311 713.177C626.547 713.177 625.927 713.797 625.927 714.561C625.927 715.326 626.547 715.945 627.311 715.945H628.556C628.633 715.945 628.696 715.883 628.696 715.805V714.561C628.696 713.797 628.076 713.177 627.311 713.177ZM630.256 715.945C630.178 715.945 630.116 715.883 630.116 715.805V714.561C630.116 713.012 628.86 711.757 627.311 711.757C625.763 711.757 624.507 713.012 624.507 714.561C624.507 716.11 625.762 717.365 627.311 717.365H628.556C628.633 717.365 628.696 717.428 628.696 717.505V719.994C628.696 720.071 628.633 720.134 628.556 720.134H627.311C625.763 720.134 624.507 721.39 624.507 722.938C624.507 724.487 625.763 725.743 627.311 725.743C628.86 725.743 630.116 724.487 630.116 722.938V721.694C630.116 721.617 630.178 721.554 630.256 721.554H632.744C632.821 721.554 632.884 721.617 632.884 721.694L632.884 722.938C632.884 724.487 634.14 725.743 635.689 725.743C637.237 725.743 638.493 724.487 638.493 722.938C638.493 721.39 637.237 720.134 635.689 720.134H634.444C634.367 720.134 634.304 720.071 634.304 719.994V717.505C634.304 717.428 634.367 717.365 634.444 717.365H635.689C637.237 717.365 638.493 716.11 638.493 714.561C638.493 713.012 637.237 711.757 635.689 711.757C634.14 711.757 632.884 713.012 632.884 714.561V715.805C632.884 715.883 632.822 715.945 632.744 715.945H630.256ZM630.256 717.365C630.178 717.365 630.116 717.428 630.116 717.505V719.994C630.116 720.071 630.178 720.134 630.256 720.134H632.744C632.821 720.134 632.884 720.071 632.884 719.994L632.884 717.505C632.884 717.428 632.822 717.365 632.744 717.365H630.256ZM634.444 721.554C634.367 721.554 634.304 721.617 634.304 721.694V722.938C634.304 723.703 634.924 724.323 635.689 724.323C636.453 724.323 637.073 723.703 637.073 722.938C637.073 722.174 636.453 721.554 635.689 721.554H634.444ZM634.304 715.805C634.304 715.883 634.367 715.945 634.444 715.945H635.689C636.453 715.945 637.073 715.326 637.073 714.561C637.073 713.797 636.453 713.177 635.689 713.177C634.924 713.177 634.304 713.797 634.304 714.561V715.805ZM628.696 721.694C628.696 721.617 628.633 721.554 628.556 721.554H627.311C626.547 721.554 625.927 722.174 625.927 722.938C625.927 723.703 626.547 724.323 627.311 724.323C628.076 724.323 628.696 723.703 628.696 722.938V721.694Z" fill="#FF00FF"/>
<path d="M627.798 738.867C625.762 738.867 624.507 737.485 624.507 735.225C624.507 732.964 625.782 731.587 627.774 731.587C629.077 731.587 630.108 732.197 630.572 733.228C630.65 733.389 630.689 733.555 630.689 733.701C630.689 734.038 630.469 734.253 630.132 734.253C629.844 734.253 629.654 734.116 629.517 733.809C629.19 733.052 628.55 732.656 627.784 732.656C626.573 732.656 625.796 733.652 625.796 735.225C625.796 736.797 626.568 737.798 627.789 737.798C628.594 737.798 629.214 737.446 629.537 736.704C629.664 736.416 629.825 736.299 630.098 736.299C630.445 736.299 630.684 736.528 630.684 736.86C630.684 737.021 630.645 737.168 630.567 737.334C630.118 738.291 629.117 738.867 627.798 738.867L627.798 738.867Z" fill="#FF00FF"/>
<path d="M642.778 734.482C643.535 734.482 644.038 735.141 644.043 736.157C644.038 737.163 643.564 737.832 642.778 737.832C641.992 737.832 641.503 737.178 641.503 736.157C641.503 735.131 642.021 734.482 642.778 734.482ZM640.258 736.157C640.258 737.813 641.093 738.833 642.407 738.833C642.893 738.833 643.663 738.589 643.964 738.487C644.031 738.464 644.106 738.494 644.138 738.558C644.146 738.574 644.154 738.591 644.164 738.605C644.284 738.776 644.459 738.848 644.658 738.848C645.005 738.848 645.249 738.623 645.249 738.223V732.245C645.249 731.835 645 731.605 644.643 731.605C644.287 731.605 644.033 731.835 644.033 732.245V733.725C644.033 733.828 643.927 733.897 643.833 733.855C643.471 733.692 642.869 733.486 642.387 733.486C641.088 733.486 640.258 734.506 640.258 736.157V736.157Z" fill="#FF00FF"/>
<path d="M631.855 738.208V734.091C631.855 733.695 632.095 733.471 632.437 733.471C632.591 733.471 632.724 733.517 632.826 733.602C632.887 733.653 632.931 733.723 632.961 733.783C632.995 733.85 633.076 733.878 633.145 733.847C633.414 733.728 634.039 733.476 634.522 733.476C635.135 733.476 635.704 733.798 635.898 733.92C635.941 733.948 635.996 733.949 636.041 733.925C636.258 733.806 636.921 733.476 637.609 733.476C638.629 733.476 639.298 734.164 639.298 735.2V738.208C639.298 738.613 639.054 738.848 638.693 738.848C638.332 738.848 638.082 738.613 638.082 738.208V735.498C638.082 734.863 637.75 734.501 637.154 734.501C636.559 734.501 636.168 734.931 636.168 735.551V738.208C636.168 738.613 635.938 738.848 635.577 738.848C635.216 738.848 634.986 738.613 634.986 738.208V735.434C634.986 734.858 634.634 734.501 634.068 734.501C633.501 734.501 633.072 734.955 633.072 735.581V738.208C633.072 738.613 632.822 738.848 632.461 738.848C632.1 738.848 631.855 738.613 631.855 738.208Z" fill="#FF00FF"/>
<path fill-rule="evenodd" clip-rule="evenodd" d="M557.725 712.756C557.333 712.756 557.015 713.074 557.015 713.466C557.015 713.858 557.333 714.176 557.725 714.176H561C561.138 714.176 561.268 714.244 561.346 714.358L563.803 717.937C564.146 718.437 564.714 718.736 565.32 718.736H570.275C570.667 718.736 570.985 718.418 570.985 718.026C570.985 717.634 570.667 717.316 570.275 717.316H565.32C565.182 717.316 565.052 717.248 564.974 717.134L562.517 713.555C562.174 713.055 561.606 712.756 561 712.756H557.725ZM565.975 712.756C565.583 712.756 565.265 713.074 565.265 713.466C565.265 713.858 565.583 714.176 565.975 714.176H570.275C570.667 714.176 570.985 713.858 570.985 713.466C570.985 713.074 570.667 712.756 570.275 712.756H565.975Z" fill="#FF00FF"/>
<path d="M560.36 731.587C558.304 731.587 557.015 732.988 557.015 735.23C557.015 737.471 558.304 738.867 560.36 738.867C562.416 738.867 563.7 737.471 563.7 735.23C563.7 732.988 562.411 731.587 560.36 731.587ZM560.36 737.793C559.1 737.793 558.304 736.797 558.304 735.23C558.304 733.662 559.1 732.661 560.36 732.661C561.62 732.661 562.416 733.657 562.416 735.23C562.416 736.802 561.615 737.793 560.36 737.793Z" fill="#FF00FF"/>
<path d="M574.949 733.472C574.578 733.472 574.344 733.721 574.344 734.111V738.208C574.344 738.604 574.578 738.848 574.949 738.848C575.32 738.848 575.559 738.604 575.559 738.208V734.116C575.559 733.721 575.32 733.472 574.949 733.472V733.472ZM574.949 732.847C575.33 732.847 575.628 732.554 575.628 732.188C575.628 731.821 575.33 731.528 574.949 731.528C574.568 731.528 574.275 731.816 574.275 732.188C574.275 732.559 574.573 732.847 574.949 732.847Z" fill="#FF00FF"/>
<path d="M582.555 738.208V734.086C582.555 733.71 582.775 733.47 583.136 733.47C583.343 733.47 583.512 733.551 583.617 733.692C583.643 733.726 583.665 733.765 583.682 733.801C583.717 733.872 583.801 733.902 583.872 733.868C584.138 733.739 584.758 733.475 585.373 733.475C586.516 733.475 587.165 734.208 587.165 735.404V738.208C587.165 738.618 586.916 738.848 586.56 738.848C586.203 738.848 585.949 738.618 585.949 738.208V735.649C585.949 734.916 585.607 734.506 584.914 734.506C584.22 734.506 583.771 735.009 583.771 735.751V738.208C583.771 738.618 583.517 738.848 583.161 738.848C582.804 738.848 582.555 738.618 582.555 738.208Z" fill="#FF00FF"/>
<path d="M579.07 733.467C577.561 733.467 576.565 734.492 576.565 736.162C576.565 737.832 577.551 738.853 579.07 738.853C580.589 738.853 581.575 737.842 581.575 736.162C581.575 734.482 580.579 733.467 579.07 733.467ZM579.07 737.891C578.298 737.891 577.8 737.266 577.8 736.162C577.8 735.059 578.303 734.434 579.07 734.434C579.837 734.434 580.339 735.064 580.339 736.162C580.339 737.261 579.841 737.891 579.07 737.891Z" fill="#FF00FF"/>
<path d="M567.254 737.836C566.497 737.836 565.994 737.177 565.989 736.161C565.994 735.155 566.467 734.486 567.254 734.486C568.04 734.486 568.528 735.14 568.528 736.161C568.528 737.187 568.011 737.836 567.254 737.836ZM569.773 736.161C569.773 734.505 568.938 733.485 567.625 733.485C567.139 733.485 566.368 733.729 566.068 733.831C566 733.854 565.925 733.824 565.894 733.76C565.886 733.744 565.877 733.728 565.867 733.713C565.748 733.542 565.572 733.47 565.373 733.47C565.026 733.47 564.782 733.695 564.782 734.095V739.951C564.782 740.361 565.031 740.591 565.388 740.591C565.745 740.591 565.998 740.361 565.998 739.951V738.593C565.998 738.49 566.104 738.421 566.198 738.463C566.56 738.626 567.163 738.833 567.644 738.833C568.943 738.833 569.774 737.812 569.774 736.161L569.773 736.161Z" fill="#FF00FF"/>
<path d="M571.092 737.47V734.654C571.092 734.576 571.028 734.512 570.95 734.512H570.765C570.462 734.512 570.276 734.342 570.276 734.049C570.276 733.756 570.462 733.59 570.765 733.59H570.95C571.028 733.59 571.092 733.526 571.092 733.448V732.885C571.092 732.494 571.326 732.25 571.702 732.25C572.078 732.25 572.308 732.494 572.308 732.885V733.448C572.308 733.526 572.371 733.59 572.45 733.59H572.869C573.172 733.59 573.358 733.76 573.358 734.049C573.358 734.337 573.172 734.512 572.869 734.512H572.45C572.371 734.512 572.308 734.576 572.308 734.654V737.207C572.308 737.597 572.445 737.768 572.796 737.798L572.884 737.807C573.206 737.837 573.373 737.973 573.373 738.257C573.373 738.613 573.06 738.804 572.503 738.804H572.455C571.551 738.804 571.092 738.354 571.092 737.471H571.092L571.092 737.47Z" fill="#FF00FF"/>
<path fill-rule="evenodd" clip-rule="evenodd" d="M152.725 712.756C152.333 712.756 152.015 713.074 152.015 713.466C152.015 713.858 152.333 714.176 152.725 714.176H156C156.138 714.176 156.268 714.244 156.346 714.358L158.803 717.937C159.146 718.437 159.714 718.736 160.32 718.736H165.275C165.667 718.736 165.985 718.418 165.985 718.026C165.985 717.634 165.667 717.316 165.275 717.316H160.32C160.182 717.316 160.052 717.248 159.974 717.134L157.517 713.555C157.174 713.055 156.606 712.756 156 712.756H152.725ZM160.975 712.756C160.583 712.756 160.265 713.074 160.265 713.466C160.265 713.858 160.583 714.176 160.975 714.176H165.275C165.667 714.176 165.985 713.858 165.985 713.466C165.985 713.074 165.667 712.756 165.275 712.756H160.975Z" fill="#FF00FF"/>
<path d="M155.36 731.587C153.304 731.587 152.015 732.988 152.015 735.23C152.015 737.471 153.304 738.867 155.36 738.867C157.416 738.867 158.7 737.471 158.7 735.23C158.7 732.988 157.411 731.587 155.36 731.587ZM155.36 737.793C154.1 737.793 153.304 736.797 153.304 735.23C153.304 733.662 154.1 732.661 155.36 732.661C156.62 732.661 157.416 733.657 157.416 735.23C157.416 736.802 156.615 737.793 155.36 737.793Z" fill="#FF00FF"/>
<path d="M169.949 733.472C169.578 733.472 169.344 733.721 169.344 734.111V738.208C169.344 738.604 169.578 738.848 169.949 738.848C170.32 738.848 170.559 738.604 170.559 738.208V734.116C170.559 733.721 170.32 733.472 169.949 733.472V733.472ZM169.949 732.847C170.33 732.847 170.628 732.554 170.628 732.188C170.628 731.821 170.33 731.528 169.949 731.528C169.568 731.528 169.275 731.816 169.275 732.188C169.275 732.559 169.573 732.847 169.949 732.847Z" fill="#FF00FF"/>
<path d="M177.555 738.208V734.086C177.555 733.71 177.775 733.47 178.136 733.47C178.343 733.47 178.512 733.551 178.617 733.692C178.643 733.726 178.665 733.765 178.682 733.801C178.717 733.872 178.801 733.902 178.872 733.868C179.138 733.739 179.758 733.475 180.373 733.475C181.516 733.475 182.165 734.208 182.165 735.404V738.208C182.165 738.618 181.916 738.848 181.56 738.848C181.203 738.848 180.949 738.618 180.949 738.208V735.649C180.949 734.916 180.607 734.506 179.914 734.506C179.22 734.506 178.771 735.009 178.771 735.751V738.208C178.771 738.618 178.517 738.848 178.161 738.848C177.804 738.848 177.555 738.618 177.555 738.208Z" fill="#FF00FF"/>
<path d="M174.07 733.467C172.561 733.467 171.565 734.492 171.565 736.162C171.565 737.832 172.551 738.853 174.07 738.853C175.589 738.853 176.575 737.842 176.575 736.162C176.575 734.482 175.579 733.467 174.07 733.467ZM174.07 737.891C173.298 737.891 172.8 737.266 172.8 736.162C172.8 735.059 173.303 734.434 174.07 734.434C174.837 734.434 175.339 735.064 175.339 736.162C175.339 737.261 174.841 737.891 174.07 737.891Z" fill="#FF00FF"/>
<path d="M162.254 737.836C161.497 737.836 160.994 737.177 160.989 736.161C160.994 735.155 161.467 734.486 162.254 734.486C163.04 734.486 163.528 735.14 163.528 736.161C163.528 737.187 163.011 737.836 162.254 737.836ZM164.773 736.161C164.773 734.505 163.938 733.485 162.625 733.485C162.139 733.485 161.368 733.729 161.068 733.831C161 733.854 160.925 733.824 160.894 733.76C160.886 733.744 160.877 733.728 160.867 733.713C160.748 733.542 160.572 733.47 160.373 733.47C160.026 733.47 159.782 733.695 159.782 734.095V739.951C159.782 740.361 160.031 740.591 160.388 740.591C160.745 740.591 160.998 740.361 160.998 739.951V738.593C160.998 738.49 161.104 738.421 161.198 738.463C161.56 738.626 162.163 738.833 162.644 738.833C163.943 738.833 164.774 737.812 164.774 736.161L164.773 736.161Z" fill="#FF00FF"/>
<path d="M166.092 737.47V734.654C166.092 734.576 166.028 734.512 165.95 734.512H165.765C165.462 734.512 165.276 734.342 165.276 734.049C165.276 733.756 165.462 733.59 165.765 733.59H165.95C166.028 733.59 166.092 733.526 166.092 733.448V732.885C166.092 732.494 166.326 732.25 166.702 732.25C167.078 732.25 167.308 732.494 167.308 732.885V733.448C167.308 733.526 167.371 733.59 167.45 733.59H167.869C168.172 733.59 168.358 733.76 168.358 734.049C168.358 734.337 168.172 734.512 167.869 734.512H167.45C167.371 734.512 167.308 734.576 167.308 734.654V737.207C167.308 737.597 167.445 737.768 167.796 737.798L167.884 737.807C168.206 737.837 168.373 737.973 168.373 738.257C168.373 738.613 168.06 738.804 167.503 738.804H167.455C166.551 738.804 166.092 738.354 166.092 737.471H166.092L166.092 737.47Z" fill="#FF00FF"/>
<path fill-rule="evenodd" clip-rule="evenodd" d="M87.3113 713.177C86.5469 713.177 85.927 713.797 85.927 714.561C85.927 715.326 86.5468 715.945 87.3113 715.945H88.5556C88.633 715.945 88.6956 715.883 88.6956 715.805V714.561C88.6956 713.797 88.0758 713.177 87.3113 713.177ZM90.2556 715.945C90.1783 715.945 90.1156 715.883 90.1156 715.805V714.561C90.1156 713.012 88.8601 711.757 87.3113 711.757C85.7626 711.757 84.507 713.012 84.507 714.561C84.507 716.11 85.7625 717.365 87.3113 717.365H88.5556C88.633 717.365 88.6956 717.428 88.6956 717.505V719.994C88.6956 720.071 88.633 720.134 88.5556 720.134H87.3113C85.7626 720.134 84.507 721.39 84.507 722.938C84.507 724.487 85.7626 725.743 87.3113 725.743C88.86 725.743 90.1156 724.487 90.1156 722.938V721.694C90.1156 721.617 90.1783 721.554 90.2556 721.554H92.7437C92.821 721.554 92.8836 721.617 92.8837 721.694L92.8843 722.938C92.8843 724.487 94.1399 725.743 95.6887 725.743C97.2374 725.743 98.4929 724.487 98.4929 722.938C98.4929 721.39 97.2375 720.134 95.6887 720.134H94.4443C94.367 720.134 94.3043 720.071 94.3043 719.994V717.505C94.3043 717.428 94.367 717.365 94.4443 717.365H95.6887C97.2374 717.365 98.4929 716.11 98.4929 714.561C98.4929 713.012 97.2374 711.757 95.6887 711.757C94.1399 711.757 92.8843 713.012 92.8843 714.561V715.805C92.8843 715.883 92.8217 715.945 92.7443 715.945H90.2556ZM90.2556 717.365C90.1783 717.365 90.1156 717.428 90.1156 717.505V719.994C90.1156 720.071 90.1783 720.134 90.2556 720.134H92.7436C92.8209 720.134 92.8836 720.071 92.8836 719.994L92.8843 717.505C92.8843 717.428 92.8216 717.365 92.7443 717.365H90.2556ZM94.4443 721.554C94.367 721.554 94.3043 721.617 94.3043 721.694V722.938C94.3043 723.703 94.9242 724.323 95.6887 724.323C96.4531 724.323 97.0729 723.703 97.0729 722.938C97.0729 722.174 96.4532 721.554 95.6887 721.554H94.4443ZM94.3043 715.805C94.3043 715.883 94.367 715.945 94.4443 715.945H95.6887C96.4531 715.945 97.0729 715.326 97.0729 714.561C97.0729 713.797 96.4531 713.177 95.6887 713.177C94.9241 713.177 94.3043 713.797 94.3043 714.561V715.805ZM88.6956 721.694C88.6956 721.617 88.633 721.554 88.5556 721.554H87.3113C86.5469 721.554 85.927 722.174 85.927 722.938C85.927 723.703 86.5469 724.323 87.3113 724.323C88.0758 724.323 88.6956 723.703 88.6956 722.938V721.694Z" fill="#FF00FF"/>
<path d="M87.7982 738.867C85.762 738.867 84.5071 737.485 84.5071 735.225C84.5071 732.964 85.7816 731.587 87.7738 731.587C89.0775 731.587 90.1078 732.197 90.5717 733.228C90.6498 733.389 90.6889 733.555 90.6889 733.701C90.6889 734.038 90.4692 734.253 90.1323 734.253C89.8442 734.253 89.6538 734.116 89.5171 733.809C89.1899 733.052 88.5503 732.656 87.7837 732.656C86.5727 732.656 85.7964 733.652 85.7964 735.225C85.7964 736.797 86.5679 737.798 87.7886 737.798C88.5943 737.798 89.2144 737.446 89.5367 736.704C89.6637 736.416 89.8248 736.299 90.0982 736.299C90.4449 736.299 90.6841 736.528 90.6841 736.86C90.6841 737.021 90.645 737.168 90.5669 737.334C90.1177 738.291 89.1167 738.867 87.7983 738.867L87.7982 738.867Z" fill="#FF00FF"/>
<path d="M102.778 734.482C103.535 734.482 104.038 735.141 104.043 736.157C104.038 737.163 103.564 737.832 102.778 737.832C101.992 737.832 101.503 737.178 101.503 736.157C101.503 735.131 102.021 734.482 102.778 734.482ZM100.258 736.157C100.258 737.813 101.093 738.833 102.407 738.833C102.893 738.833 103.663 738.589 103.964 738.487C104.031 738.464 104.106 738.494 104.138 738.558C104.146 738.574 104.154 738.591 104.164 738.605C104.284 738.776 104.459 738.848 104.658 738.848C105.005 738.848 105.249 738.623 105.249 738.223V732.245C105.249 731.835 105 731.605 104.643 731.605C104.287 731.605 104.033 731.835 104.033 732.245V733.725C104.033 733.828 103.927 733.897 103.833 733.855C103.471 733.692 102.869 733.486 102.387 733.486C101.088 733.486 100.258 734.506 100.258 736.157V736.157Z" fill="#FF00FF"/>
<path d="M91.8555 738.208V734.091C91.8555 733.695 92.0948 733.471 92.4366 733.471C92.5906 733.471 92.7239 733.517 92.8257 733.602C92.8865 733.653 92.9309 733.723 92.9611 733.783C92.9949 733.85 93.076 733.878 93.1447 733.847C93.4137 733.728 94.0388 733.476 94.5221 733.476C95.1352 733.476 95.704 733.798 95.8976 733.92C95.9411 733.948 95.996 733.949 96.0411 733.925C96.2576 733.806 96.9214 733.476 97.6086 733.476C98.6294 733.476 99.2985 734.164 99.2985 735.2V738.208C99.2985 738.613 99.0543 738.848 98.6929 738.848C98.3315 738.848 98.0824 738.613 98.0824 738.208V735.498C98.0824 734.863 97.7503 734.501 97.1545 734.501C96.5586 734.501 96.1679 734.931 96.1679 735.551V738.208C96.1679 738.613 95.9383 738.848 95.5769 738.848C95.2155 738.848 94.9859 738.613 94.9859 738.208V735.434C94.9859 734.858 94.6343 734.501 94.0678 734.501C93.5013 734.501 93.0715 734.955 93.0715 735.581V738.208C93.0715 738.613 92.8224 738.848 92.461 738.848C92.0997 738.848 91.8555 738.613 91.8555 738.208Z" fill="#FF00FF"/>
<path d="M631.388 659.935C631.388 660.835 630.563 661.915 629.183 661.915C627.998 661.915 626.693 660.895 625.928 660.895C625.103 660.895 624.893 661.795 624.263 661.795C623.783 661.795 623.618 661.42 623.618 661.075C623.618 660.175 624.443 659.095 625.733 659.095C627.008 659.095 628.313 660.115 629.078 660.115C629.903 660.115 630.113 659.215 630.743 659.215C631.223 659.215 631.388 659.59 631.388 659.935Z" fill="#FF00FF"/>
<path d="M627.422 680.895L626.27 679.576C626.143 679.42 626.064 679.205 626.064 678.98C626.064 678.492 626.465 678.082 626.953 678.082C627.207 678.082 627.461 678.15 627.695 678.492L628.623 679.898C628.711 680.035 628.789 680.201 628.789 680.377C628.789 680.816 628.428 681.178 628.018 681.178C627.773 681.178 627.568 681.061 627.422 680.895Z" fill="#FF00FF"/>
<path fill-rule="evenodd" clip-rule="evenodd" d="M246.209 463.353C246.209 465.33 244.606 466.933 242.629 466.933C240.652 466.933 239.049 465.33 239.049 463.353C239.049 461.376 240.652 459.773 242.629 459.773C244.606 459.773 246.209 461.376 246.209 463.353ZM245.5 467.585C245.453 467.537 245.379 467.53 245.322 467.566C244.545 468.064 243.621 468.353 242.629 468.353C239.868 468.353 237.629 466.114 237.629 463.353C237.629 460.592 239.868 458.353 242.629 458.353C245.39 458.353 247.629 460.592 247.629 463.353C247.629 464.371 247.325 465.318 246.802 466.108C246.765 466.164 246.772 466.239 246.819 466.287L250.1 469.568C250.461 469.929 250.461 470.515 250.1 470.876C249.739 471.237 249.153 471.237 248.792 470.876L245.5 467.585Z" fill="#FF00FF"/>
<path d="M239.085 448.833C238.694 448.833 238.455 448.594 238.455 448.179V442.358C238.455 441.948 238.694 441.704 239.085 441.704H242.454C242.801 441.704 243.03 441.909 243.03 442.236C243.03 442.563 242.796 442.769 242.454 442.769H239.857C239.778 442.769 239.715 442.832 239.715 442.91V444.707C239.715 444.785 239.778 444.849 239.857 444.849H242.2C242.532 444.849 242.752 445.044 242.752 445.361C242.752 445.679 242.532 445.874 242.2 445.874H239.857C239.778 445.874 239.715 445.937 239.715 446.016V448.179C239.715 448.594 239.481 448.833 239.085 448.833V448.833Z" fill="#FF00FF"/>
<path d="M249.016 446.362H248.665C248.587 446.362 248.523 446.299 248.523 446.221V442.534C248.523 441.948 248.138 441.606 247.488 441.606C246.97 441.606 246.663 441.821 246.204 442.505C245.359 443.745 244.558 444.951 244.065 445.835C243.87 446.187 243.792 446.416 243.792 446.69C243.792 447.109 244.09 447.398 244.544 447.398H247.18C247.259 447.398 247.322 447.461 247.322 447.539V448.228C247.322 448.623 247.576 448.848 247.923 448.848C248.269 448.848 248.523 448.623 248.523 448.228V447.539C248.523 447.461 248.587 447.398 248.665 447.398H249.012C249.348 447.398 249.549 447.188 249.549 446.88C249.549 446.572 249.348 446.362 249.016 446.362H249.016ZM247.2 446.392H245.167C245.056 446.392 244.988 446.271 245.046 446.176C245.382 445.625 246.304 444.127 247.083 443.003C247.163 442.889 247.342 442.945 247.342 443.084V446.25C247.342 446.328 247.278 446.392 247.2 446.392Z" fill="#FF00FF"/>
<path fill-rule="evenodd" clip-rule="evenodd" d="M184.399 461.404C184.261 461.404 184.169 461.506 184.169 461.624V462.914C184.169 463.042 184.271 463.144 184.399 463.144H188.059C188.11 463.144 188.164 463.123 188.21 463.077C188.255 463.031 188.279 462.972 188.279 462.914V461.624C188.279 461.501 188.182 461.404 188.059 461.404H184.399ZM182.749 461.624C182.749 460.702 183.497 459.984 184.399 459.984H188.059C188.956 459.984 189.699 460.707 189.699 461.624V462.914C189.699 463.807 188.971 464.564 188.059 464.564H184.399C183.487 464.564 182.749 463.826 182.749 462.914V461.624ZM193.409 462.074C193.291 462.074 193.189 462.177 193.189 462.294V465.614C193.189 465.752 193.291 465.844 193.409 465.844H195.609C195.727 465.844 195.829 465.752 195.829 465.614V462.294C195.829 462.177 195.727 462.074 195.609 462.074H193.409ZM191.769 462.294C191.769 461.392 192.507 460.654 193.409 460.654H195.609C196.511 460.654 197.249 461.392 197.249 462.294V465.614C197.249 466.517 196.531 467.264 195.609 467.264H193.409C192.507 467.264 191.769 466.537 191.769 465.614V462.294ZM186.339 466.794C186.339 466.747 186.359 466.694 186.403 466.651C186.447 466.607 186.503 466.584 186.559 466.584H189.529C189.588 466.584 189.643 466.608 189.685 466.651C189.73 466.696 189.749 466.749 189.749 466.794V467.864C189.749 467.982 189.647 468.084 189.529 468.084H186.559C186.441 468.084 186.339 467.982 186.339 467.864V466.794ZM186.559 465.164C185.662 465.164 184.919 465.897 184.919 466.794V467.864C184.919 468.766 185.657 469.504 186.559 469.504H189.529C190.431 469.504 191.169 468.766 191.169 467.864V466.794C191.169 465.917 190.446 465.164 189.529 465.164H186.559Z" fill="#FF00FF"/>
<path d="M185.291 448.833C184.9 448.833 184.661 448.594 184.661 448.179V442.358C184.661 441.948 184.9 441.704 185.291 441.704H188.66C189.006 441.704 189.236 441.909 189.236 442.236C189.236 442.563 189.002 442.769 188.66 442.769H186.062C185.984 442.769 185.92 442.832 185.92 442.91V444.707C185.92 444.785 185.984 444.849 186.062 444.849H188.406C188.738 444.849 188.958 445.044 188.958 445.361C188.958 445.679 188.738 445.874 188.406 445.874H186.062C185.984 445.874 185.92 445.937 185.92 446.016V448.179C185.92 448.594 185.686 448.833 185.291 448.833V448.833Z" fill="#FF00FF"/>
<path d="M192.703 448.892C191.467 448.892 190.666 448.389 190.3 447.681C190.207 447.51 190.168 447.349 190.168 447.183C190.168 446.85 190.378 446.64 190.73 446.64C190.989 446.64 191.145 446.753 191.277 447.012C191.521 447.544 191.946 447.861 192.718 447.861C193.489 447.861 194.061 447.402 194.061 446.762C194.065 446.01 193.518 445.59 192.615 445.59H192.215C191.902 445.59 191.716 445.4 191.716 445.121C191.716 444.843 191.902 444.653 192.215 444.653H192.586C193.362 444.653 193.88 444.208 193.88 443.583C193.88 442.958 193.479 442.562 192.698 442.562C192.034 442.562 191.648 442.836 191.414 443.388C191.277 443.69 191.14 443.803 190.847 443.803C190.495 443.803 190.31 443.598 190.31 443.275C190.31 443.099 190.344 442.943 190.432 442.772C190.764 442.074 191.545 441.562 192.693 441.562C194.153 441.562 195.091 442.323 195.091 443.412C195.091 444.176 194.583 444.675 194.296 444.895C194.217 444.957 194.225 445.079 194.312 445.13C194.662 445.335 195.34 445.852 195.34 446.792C195.34 448.042 194.246 448.892 192.703 448.892H192.703V448.892Z" fill="#FF00FF"/>
<path fill-rule="evenodd" clip-rule="evenodd" d="M135.99 457.99C136.382 457.99 136.7 458.308 136.7 458.7V459.83C136.7 460.222 136.382 460.54 135.99 460.54C135.598 460.54 135.28 460.222 135.28 459.83V458.7C135.28 458.308 135.598 457.99 135.99 457.99ZM140.782 460.962C141.059 460.685 141.059 460.235 140.782 459.958C140.505 459.681 140.055 459.681 139.778 459.958L138.968 460.768C138.691 461.045 138.691 461.495 138.968 461.772C139.245 462.05 139.695 462.05 139.972 461.772L140.782 460.962ZM136 463.33C135.214 463.33 134.58 463.97 134.58 464.75C134.58 465.524 135.218 466.16 136 466.16C136.792 466.16 137.42 465.534 137.42 464.75C137.42 463.962 136.788 463.33 136 463.33ZM133.16 464.75C133.16 463.19 134.426 461.91 136 461.91C137.572 461.91 138.84 463.178 138.84 464.75C138.84 466.327 137.568 467.58 136 467.58C134.442 467.58 133.16 466.317 133.16 464.75ZM136.01 468.96C136.402 468.96 136.72 469.278 136.72 469.67V470.8C136.72 471.192 136.402 471.51 136.01 471.51C135.618 471.51 135.3 471.192 135.3 470.8V469.67C135.3 469.278 135.618 468.96 136.01 468.96ZM139.982 467.718C139.705 467.441 139.255 467.441 138.978 467.718C138.701 467.995 138.701 468.445 138.978 468.722L139.788 469.532C140.065 469.81 140.515 469.81 140.792 469.532C141.069 469.255 141.069 468.805 140.792 468.528L139.982 467.718ZM140.21 464.74C140.21 464.348 140.528 464.03 140.92 464.03H142.05C142.442 464.03 142.76 464.348 142.76 464.74C142.76 465.132 142.442 465.45 142.05 465.45H140.92C140.528 465.45 140.21 465.132 140.21 464.74ZM132.212 459.968C131.935 459.691 131.485 459.691 131.208 459.968C130.931 460.245 130.931 460.695 131.208 460.972L132.018 461.782C132.295 462.06 132.745 462.06 133.022 461.782C133.299 461.505 133.299 461.055 133.022 460.778L132.212 459.968ZM129.24 464.76C129.24 464.368 129.558 464.05 129.95 464.05H131.08C131.472 464.05 131.79 464.368 131.79 464.76C131.79 465.152 131.472 465.47 131.08 465.47H129.95C129.558 465.47 129.24 465.152 129.24 464.76ZM133.032 468.732C133.309 468.455 133.309 468.005 133.032 467.728C132.755 467.451 132.305 467.451 132.028 467.728L131.218 468.538C130.941 468.815 130.941 469.265 131.218 469.542C131.495 469.82 131.945 469.82 132.222 469.542L133.032 468.732Z" fill="#FF00FF"/>
<path d="M131.366 448.833C130.976 448.833 130.736 448.594 130.736 448.179V442.358C130.736 441.948 130.976 441.704 131.366 441.704H134.735C135.082 441.704 135.312 441.909 135.312 442.236C135.312 442.563 135.077 442.769 134.735 442.769H132.138C132.06 442.769 131.996 442.832 131.996 442.91V444.707C131.996 444.785 132.06 444.849 132.138 444.849H134.481C134.813 444.849 135.033 445.044 135.033 445.361C135.033 445.679 134.814 445.874 134.481 445.874H132.138C132.06 445.874 131.996 445.937 131.996 446.016V448.179C131.996 448.594 131.762 448.833 131.366 448.833V448.833Z" fill="#FF00FF"/>
<path d="M136.83 448.75C136.439 448.75 136.234 448.535 136.234 448.218C136.234 447.974 136.317 447.827 136.586 447.573L138.739 445.44C139.638 444.551 139.862 444.194 139.862 443.657C139.862 443.027 139.379 442.573 138.7 442.573C138.065 442.573 137.621 442.896 137.372 443.53C137.245 443.784 137.099 443.916 136.811 443.916C136.469 443.916 136.264 443.706 136.264 443.393C136.264 443.301 136.278 443.213 136.303 443.13C136.493 442.368 137.338 441.562 138.71 441.562C140.082 441.562 141.093 442.397 141.093 443.579C141.093 444.404 140.697 444.961 139.53 446.104L138.136 447.477C138.045 447.566 138.108 447.72 138.235 447.72H140.726C141.058 447.72 141.264 447.925 141.264 448.237C141.264 448.55 141.058 448.75 140.726 448.75H136.83Z" fill="#FF00FF"/>
<path fill-rule="evenodd" clip-rule="evenodd" d="M82.7049 459.405C82.7049 459.013 82.387 458.695 81.9949 458.695C81.6028 458.695 81.2849 459.013 81.2849 459.405V459.825C81.2849 460.217 81.6028 460.535 81.9949 460.535C82.387 460.535 82.7049 460.217 82.7049 459.825V459.405ZM86.2769 460.463C86.5542 460.74 86.5542 461.19 86.2769 461.467L85.9769 461.767C85.6997 462.044 85.2501 462.044 84.9728 461.767C84.6956 461.49 84.6956 461.04 84.9728 460.763L85.2728 460.463C85.5501 460.186 85.9997 460.186 86.2769 460.463ZM80.5849 464.755C80.5849 463.983 81.2214 463.335 82.0049 463.335C82.7928 463.335 83.4249 463.967 83.4249 464.755C83.4249 465.538 82.7972 466.165 82.0049 466.165C81.2249 466.165 80.5849 465.521 80.5849 464.755ZM82.0049 461.915C80.4285 461.915 79.1649 463.207 79.1649 464.755C79.1649 466.309 80.445 467.585 82.0049 467.585C83.5727 467.585 84.8449 466.331 84.8449 464.755C84.8449 463.183 83.577 461.915 82.0049 461.915ZM82.7149 469.675C82.7149 469.283 82.397 468.965 82.0049 468.965C81.6128 468.965 81.2949 469.283 81.2949 469.675V470.105C81.2949 470.497 81.6128 470.815 82.0049 470.815C82.397 470.815 82.7149 470.497 82.7149 470.105V469.675ZM84.9829 467.723C85.2601 467.446 85.7097 467.446 85.9869 467.723L86.2869 468.023C86.5642 468.3 86.5642 468.75 86.2869 469.027C86.0097 469.304 85.5601 469.304 85.2829 469.027L84.9829 468.727C84.7056 468.45 84.7056 468 84.9829 467.723ZM86.925 464.035C86.5328 464.035 86.215 464.353 86.215 464.745C86.215 465.137 86.5328 465.455 86.925 465.455H87.355C87.7471 465.455 88.065 465.137 88.065 464.745C88.065 464.353 87.7471 464.035 87.355 464.035H86.925ZM77.713 460.473C77.9902 460.196 78.4398 460.196 78.7171 460.473L79.0171 460.773C79.2943 461.05 79.2943 461.5 79.0171 461.777C78.7398 462.054 78.2902 462.054 78.013 461.777L77.713 461.477C77.4357 461.2 77.4357 460.75 77.713 460.473ZM76.6549 464.045C76.2628 464.045 75.9449 464.363 75.9449 464.755C75.9449 465.147 76.2628 465.465 76.6549 465.465H77.0749C77.4671 465.465 77.7849 465.147 77.7849 464.755C77.7849 464.363 77.4671 464.045 77.0749 464.045H76.6549ZM79.0269 467.733C79.3042 468.01 79.3042 468.46 79.0269 468.737L78.7269 469.037C78.4497 469.314 78.0001 469.314 77.7228 469.037C77.4456 468.76 77.4456 468.31 77.7228 468.033L78.0228 467.733C78.3001 467.455 78.7497 467.455 79.0269 467.733Z" fill="#FF00FF"/>
<path d="M78.3673 448.833C77.9767 448.833 77.7374 448.594 77.7374 448.179V442.358C77.7374 441.948 77.9767 441.704 78.3673 441.704H81.7365C82.0832 441.704 82.3127 441.909 82.3127 442.236C82.3127 442.563 82.0783 442.769 81.7365 442.769H79.1389C79.0606 442.769 78.9972 442.832 78.9972 442.91V444.707C78.9972 444.785 79.0607 444.849 79.1389 444.849H81.4825C81.8145 444.849 82.0343 445.044 82.0343 445.361C82.0343 445.679 81.8146 445.874 81.4825 445.874H79.1389C79.0606 445.874 78.9972 445.937 78.9972 446.016V448.179C78.9972 448.594 78.7628 448.833 78.3673 448.833V448.833Z" fill="#FF00FF"/>
<path d="M85.6425 448.848C85.2763 448.848 85.0224 448.594 85.0224 448.213V443.179C85.0224 443.065 84.8937 442.997 84.7998 443.063L83.8603 443.716C83.7382 443.804 83.6406 443.838 83.5038 443.838C83.2401 443.838 83.0497 443.648 83.0497 443.369C83.0497 443.174 83.1278 443.027 83.3378 442.881L84.7782 441.87C85.0907 441.65 85.286 441.606 85.5497 441.606C85.994 441.606 86.2626 441.875 86.2626 442.31V448.213C86.2626 448.594 86.0087 448.848 85.6425 448.848V448.848Z" fill="#FF00FF"/>
<path fill-rule="evenodd" clip-rule="evenodd" d="M461.707 461.514H462.618C462.924 461.514 463.172 461.762 463.172 462.068V467.432C463.172 467.738 462.924 467.986 462.618 467.986H461.707C461.401 467.986 461.153 467.738 461.153 467.432V462.068C461.153 461.762 461.401 461.514 461.707 461.514ZM465.613 461.514H466.525C466.83 461.514 467.078 461.762 467.078 462.068V467.432C467.078 467.738 466.83 467.986 466.525 467.986H465.613C465.307 467.986 465.06 467.738 465.06 467.432V462.068C465.06 461.762 465.307 461.514 465.613 461.514ZM458.172 465.616C458.838 465.231 458.838 464.269 458.172 463.884L454.422 461.719C453.755 461.334 452.922 461.815 452.922 462.585V466.915C452.922 467.685 453.755 468.166 454.422 467.781L458.172 465.616Z" fill="#FF00FF"/>
<path d="M455.18 448.833C454.789 448.833 454.55 448.594 454.55 448.179V442.358C454.55 441.948 454.789 441.704 455.18 441.704H458.549C458.896 441.704 459.125 441.909 459.125 442.236C459.125 442.563 458.891 442.769 458.549 442.769H455.952C455.873 442.769 455.81 442.832 455.81 442.91V444.707C455.81 444.785 455.873 444.849 455.952 444.849H458.295C458.627 444.849 458.847 445.044 458.847 445.361C458.847 445.679 458.627 445.874 458.295 445.874H455.952C455.873 445.874 455.81 445.937 455.81 446.016V448.179C455.81 448.594 455.576 448.833 455.18 448.833V448.833Z" fill="#FF00FF"/>
<path d="M465.449 446.845C465.449 446.005 464.993 445.534 464.346 445.132C464.263 445.081 464.255 444.963 464.331 444.902C464.851 444.479 465.195 444.131 465.195 443.442C465.195 442.357 464.16 441.562 462.705 441.562C461.249 441.562 460.214 442.357 460.214 443.442C460.214 444.131 460.558 444.479 461.078 444.902C461.154 444.963 461.146 445.081 461.063 445.132C460.416 445.534 459.96 446.005 459.96 446.845C459.96 448.047 461.093 448.892 462.704 448.892C464.316 448.892 465.449 448.047 465.449 446.845H465.449ZM462.705 442.514C463.432 442.514 463.95 442.948 463.95 443.569C463.95 444.189 463.437 444.614 462.705 444.614C461.972 444.614 461.459 444.189 461.459 443.569C461.459 442.948 461.977 442.514 462.705 442.514ZM462.705 447.93C461.86 447.93 461.264 447.436 461.264 446.753C461.264 446.069 461.86 445.576 462.705 445.576C463.549 445.576 464.145 446.069 464.145 446.753C464.145 447.436 463.549 447.93 462.705 447.93Z" fill="#FF00FF"/>
<path fill-rule="evenodd" clip-rule="evenodd" d="M399.608 463.884C398.942 464.269 398.942 465.231 399.608 465.616L403.358 467.781C404.025 468.166 404.858 467.685 404.858 466.915L404.858 462.585C404.858 461.815 404.025 461.334 403.358 461.719L399.608 463.884ZM407.11 463.884C406.443 464.269 406.443 465.231 407.11 465.616L410.86 467.781C411.527 468.166 412.36 467.685 412.36 466.915V462.585C412.36 461.815 411.527 461.334 410.86 461.719L407.11 463.884Z" fill="#FF00FF"/>
<path d="M401.495 448.833C401.104 448.833 400.865 448.594 400.865 448.179V442.358C400.865 441.948 401.104 441.704 401.495 441.704H404.864C405.211 441.704 405.44 441.909 405.44 442.236C405.44 442.563 405.206 442.769 404.864 442.769H402.267C402.188 442.769 402.125 442.832 402.125 442.91V444.707C402.125 444.785 402.188 444.849 402.267 444.849H404.61C404.942 444.849 405.162 445.044 405.162 445.361C405.162 445.679 404.942 445.874 404.61 445.874H402.267C402.188 445.874 402.125 445.937 402.125 446.016V448.179C402.125 448.594 401.891 448.833 401.495 448.833V448.833Z" fill="#FF00FF"/>
<path d="M407.584 448.848C407.232 448.848 407.008 448.633 407.008 448.335C407.008 448.189 407.042 448.081 407.115 447.935L409.757 442.942C409.807 442.848 409.739 442.734 409.632 442.734H406.662C406.378 442.734 406.141 442.508 406.138 442.223C406.135 441.907 406.361 441.704 406.675 441.704H410.377C410.826 441.704 411.133 441.968 411.133 442.412C411.133 442.642 411.06 442.837 410.889 443.169L408.15 448.482C408.013 448.75 407.857 448.848 407.584 448.848L407.584 448.848Z" fill="#FF00FF"/>
<path fill-rule="evenodd" clip-rule="evenodd" d="M358.061 466.69C358.424 467.19 358.421 467.868 358.053 468.366C356.84 470.01 354.884 471.081 352.678 471.081C348.99 471.081 346 468.092 346 464.404C346 462.196 347.074 460.238 348.723 459.025C349.221 458.658 349.899 458.656 350.399 459.02C350.899 459.383 351.107 460.029 350.912 460.615C350.768 461.049 350.69 461.514 350.69 462C350.69 464.426 352.658 466.394 355.086 466.394C355.571 466.394 356.034 466.317 356.466 466.174C357.053 465.98 357.698 466.189 358.061 466.69ZM354.771 469.228C354.878 469.181 354.983 469.131 355.086 469.078C355.677 468.773 356.202 468.36 356.635 467.865C356.725 467.762 356.621 467.611 356.488 467.644C356.039 467.755 355.57 467.814 355.086 467.814C354.887 467.814 354.689 467.804 354.495 467.785C351.752 467.508 349.572 465.326 349.299 462.583C349.28 462.391 349.27 462.197 349.27 462C349.27 461.514 349.33 461.042 349.442 460.591C349.475 460.459 349.324 460.354 349.221 460.444C348.723 460.879 348.307 461.406 348.001 462C347.95 462.099 347.901 462.201 347.856 462.305C347.576 462.948 347.42 463.658 347.42 464.404C347.42 467.307 349.774 469.661 352.678 469.661C353.422 469.661 354.13 469.506 354.771 469.228Z" fill="#FF00FF"/>
<path d="M347.19 448.833C346.799 448.833 346.56 448.594 346.56 448.179V442.358C346.56 441.948 346.799 441.704 347.19 441.704H350.559C350.906 441.704 351.135 441.909 351.135 442.236C351.135 442.563 350.901 442.769 350.559 442.769H347.962C347.883 442.769 347.82 442.832 347.82 442.91V444.707C347.82 444.785 347.883 444.849 347.962 444.849H350.305C350.637 444.849 350.857 445.044 350.857 445.361C350.857 445.679 350.637 445.874 350.305 445.874H347.962C347.883 445.874 347.82 445.937 347.82 446.016V448.179C347.82 448.594 347.586 448.833 347.19 448.833V448.833Z" fill="#FF00FF"/>
<path d="M352.356 447.325C352.097 446.783 351.965 446.109 351.965 445.308C351.965 442.96 353.039 441.559 354.831 441.559C355.905 441.559 356.625 441.974 356.961 442.552C357.039 442.694 357.073 442.816 357.073 442.953C357.073 443.241 356.868 443.461 356.536 443.461C356.287 443.461 356.131 443.343 355.936 443.094C355.633 442.773 355.349 442.584 354.826 442.584C353.649 442.584 353.323 443.815 353.234 444.407C353.217 444.52 353.333 444.605 353.436 444.556C353.773 444.392 354.436 444.122 355.134 444.122C356.491 444.122 357.443 445.098 357.443 446.431C357.443 447.862 356.335 448.892 354.811 448.892C353.713 448.892 352.844 448.355 352.356 447.325H352.356ZM356.203 446.48C356.208 445.669 355.617 445.093 354.807 445.093C353.996 445.093 353.386 445.669 353.386 446.456C353.386 447.242 354.006 447.867 354.792 447.867C355.578 447.867 356.203 447.251 356.203 446.48Z" fill="#FF00FF"/>
<path fill-rule="evenodd" clip-rule="evenodd" d="M298.67 460.72V464.57C298.67 464.937 298.372 465.235 298.005 465.235C297.638 465.235 297.34 464.937 297.34 464.57V460.72C297.34 460.352 297.638 460.055 298.005 460.055C298.372 460.055 298.67 460.352 298.67 460.72ZM295.92 460.72C295.92 459.568 296.853 458.635 298.005 458.635C299.156 458.635 300.09 459.568 300.09 460.72V464.57C300.09 465.721 299.156 466.655 298.005 466.655C296.853 466.655 295.92 465.721 295.92 464.57V460.72ZM300.94 463.475C300.94 463.115 301.22 462.835 301.58 462.835C301.93 462.835 302.21 463.115 302.21 463.475V464.685C302.181 466.793 300.815 468.382 298.763 468.688C298.693 468.698 298.64 468.758 298.64 468.829V469.455C298.64 469.532 298.703 469.595 298.78 469.595H300.5C300.85 469.595 301.14 469.885 301.14 470.235C301.14 470.585 300.86 470.865 300.5 470.865H295.51C295.16 470.865 294.87 470.585 294.87 470.235C294.87 469.885 295.16 469.595 295.51 469.595H297.23C297.307 469.595 297.37 469.532 297.37 469.455V468.829C297.37 468.758 297.317 468.699 297.247 468.688C295.165 468.381 293.79 466.762 293.79 464.605V463.475C293.79 463.115 294.07 462.835 294.43 462.835C294.79 462.835 295.07 463.115 295.07 463.475V464.575C295.07 466.365 296.23 467.525 298.01 467.525C299.79 467.525 300.94 466.365 300.94 464.575V463.475Z" fill="#FF00FF"/>
<path d="M293.25 448.833C292.859 448.833 292.62 448.594 292.62 448.179V442.358C292.62 441.948 292.859 441.704 293.25 441.704H296.619C296.966 441.704 297.195 441.909 297.195 442.236C297.195 442.563 296.961 442.769 296.619 442.769H294.022C293.943 442.769 293.88 442.832 293.88 442.91V444.707C293.88 444.785 293.943 444.849 294.022 444.849H296.365C296.697 444.849 296.917 445.044 296.917 445.361C296.917 445.679 296.697 445.874 296.365 445.874H294.022C293.943 445.874 293.88 445.937 293.88 446.016V448.179C293.88 448.594 293.646 448.833 293.25 448.833V448.833Z" fill="#FF00FF"/>
<path d="M298.366 447.607C298.298 447.456 298.254 447.31 298.254 447.129C298.254 446.802 298.464 446.597 298.796 446.597C299.06 446.597 299.221 446.699 299.353 446.958C299.585 447.513 300.034 447.847 300.682 447.865C301.491 447.889 302.164 447.254 302.166 446.445C302.168 445.632 301.576 445.053 300.745 445.053C300.3 445.053 299.914 445.234 299.646 445.498C299.353 445.791 299.231 445.854 298.943 445.854C298.537 445.854 298.337 445.566 298.347 445.224C298.347 445.195 298.347 445.175 298.352 445.146L298.576 442.485C298.62 441.928 298.903 441.703 299.455 441.703H302.493C302.815 441.703 303.025 441.908 303.025 442.216C303.025 442.524 302.815 442.734 302.493 442.734H299.775C299.702 442.734 299.641 442.79 299.634 442.863L299.513 444.223C299.504 444.329 299.61 444.407 299.708 444.367C299.969 444.259 300.45 444.106 301.072 444.106C302.42 444.106 303.382 445.058 303.382 446.406C303.382 447.881 302.298 448.892 300.735 448.892C299.651 448.892 298.713 448.374 298.366 447.608L298.366 447.607Z" fill="#FF00FF"/>
<path fill-rule="evenodd" clip-rule="evenodd" d="M680.144 459.149C680.454 458.908 680.9 458.964 681.141 459.274C682.314 460.784 683.01 462.677 683.01 464.74C683.01 466.804 682.303 468.706 681.131 470.215C680.89 470.525 680.444 470.581 680.134 470.34C679.825 470.1 679.769 469.654 680.009 469.344C680.997 468.073 681.59 466.475 681.59 464.74C681.59 463.002 681.006 461.415 680.019 460.145C679.779 459.836 679.835 459.389 680.144 459.149ZM679.118 460.579C678.87 460.276 678.422 460.232 678.119 460.481C677.816 460.73 677.772 461.177 678.021 461.48C678.752 462.369 679.19 463.491 679.19 464.74C679.19 465.989 678.751 467.119 678.014 468.006C677.763 468.307 677.804 468.755 678.106 469.005C678.407 469.256 678.855 469.215 679.106 468.914C680.049 467.78 680.61 466.33 680.61 464.74C680.61 463.148 680.048 461.71 679.118 460.579ZM677.064 461.87C676.794 461.586 676.345 461.575 676.06 461.845C675.776 462.116 675.765 462.565 676.036 462.849C676.509 463.346 676.8 464.004 676.8 464.74C676.8 465.476 676.508 466.142 676.03 466.636C675.757 466.918 675.764 467.367 676.046 467.64C676.328 467.912 676.777 467.905 677.05 467.623C677.772 466.877 678.22 465.863 678.22 464.74C678.22 463.615 677.771 462.613 677.064 461.87ZM674.8 461.558C674.8 460.788 673.881 460.426 673.35 460.955L671.673 462.614C671.618 462.668 671.545 462.698 671.469 462.698H670.21C669.529 462.698 669 463.255 669 463.908V465.608C669 466.28 669.538 466.818 670.21 466.818H671.472C671.548 466.818 671.62 466.848 671.675 466.901L673.351 468.544C673.921 469.108 674.8 468.644 674.8 467.938V461.558Z" fill="#FF00FF"/>
<path d="M668.93 448.833C668.539 448.833 668.3 448.594 668.3 448.179V442.358C668.3 441.948 668.539 441.704 668.93 441.704H672.299C672.646 441.704 672.875 441.909 672.875 442.236C672.875 442.563 672.641 442.769 672.299 442.769H669.702C669.623 442.769 669.56 442.832 669.56 442.91V444.707C669.56 444.785 669.623 444.849 669.702 444.849H672.045C672.377 444.849 672.597 445.044 672.597 445.361C672.597 445.679 672.377 445.874 672.045 445.874H669.702C669.623 445.874 669.56 445.937 669.56 446.016V448.179C669.56 448.594 669.326 448.833 668.93 448.833V448.833Z" fill="#FF00FF"/>
<path d="M676.205 448.848C675.839 448.848 675.585 448.594 675.585 448.213V443.179C675.585 443.065 675.456 442.997 675.362 443.063L674.423 443.716C674.301 443.804 674.203 443.838 674.066 443.838C673.803 443.838 673.612 443.648 673.612 443.369C673.612 443.174 673.69 443.027 673.9 442.881L675.341 441.87C675.653 441.65 675.849 441.606 676.112 441.606C676.557 441.606 676.825 441.875 676.825 442.31V448.213C676.825 448.594 676.571 448.848 676.205 448.848V448.848Z" fill="#FF00FF"/>
<path d="M679.262 448.75C678.871 448.75 678.666 448.535 678.666 448.218C678.666 447.974 678.749 447.827 679.017 447.573L681.171 445.44C682.069 444.551 682.294 444.194 682.294 443.657C682.294 443.027 681.811 442.573 681.132 442.573C680.497 442.573 680.053 442.896 679.804 443.53C679.677 443.784 679.53 443.916 679.242 443.916C678.9 443.916 678.695 443.706 678.695 443.393C678.695 443.301 678.71 443.213 678.734 443.13C678.925 442.368 679.769 441.562 681.141 441.562C682.514 441.562 683.524 442.397 683.524 443.579C683.524 444.404 683.129 444.961 681.962 446.104L680.567 447.477C680.477 447.566 680.54 447.72 680.667 447.72H683.158C683.49 447.72 683.695 447.925 683.695 448.237C683.695 448.55 683.49 448.75 683.158 448.75H679.262Z" fill="#FF00FF"/>
<path fill-rule="evenodd" clip-rule="evenodd" d="M622.634 460.753C622.542 460.718 622.442 460.698 622.339 460.698H622.305C622.135 460.698 621.971 460.761 621.845 460.875C621.813 460.899 621.783 460.925 621.753 460.955L620.076 462.615C620.022 462.668 619.949 462.699 619.872 462.699H618.614C618.227 462.699 617.889 462.878 617.67 463.152C617.504 463.355 617.404 463.614 617.404 463.9V463.9C617.404 463.903 617.404 463.906 617.404 463.909V465.609C617.404 466.281 617.942 466.819 618.614 466.819H619.875C619.951 466.819 620.024 466.848 620.078 466.901L621.755 468.544C621.778 468.567 621.802 468.588 621.826 468.608C621.954 468.732 622.126 468.802 622.305 468.802H622.339C622.529 468.802 622.705 468.737 622.846 468.628C623.057 468.474 623.204 468.226 623.204 467.939V461.559C623.204 461.155 622.951 460.863 622.634 460.753ZM624.464 461.845C624.748 461.575 625.198 461.586 625.468 461.87C626.175 462.613 626.624 463.615 626.624 464.74C626.624 465.863 626.176 466.878 625.454 467.623C625.181 467.905 624.732 467.913 624.45 467.64C624.168 467.367 624.161 466.918 624.433 466.636C624.912 466.142 625.204 465.477 625.204 464.74C625.204 464.004 624.913 463.347 624.439 462.849C624.169 462.565 624.18 462.116 624.464 461.845Z" fill="#FF00FF"/>
<path d="M615.935 448.833C615.544 448.833 615.305 448.594 615.305 448.179V442.358C615.305 441.948 615.544 441.704 615.935 441.704H619.304C619.651 441.704 619.88 441.909 619.88 442.236C619.88 442.563 619.646 442.769 619.304 442.769H616.707C616.628 442.769 616.565 442.832 616.565 442.91V444.707C616.565 444.785 616.628 444.849 616.707 444.849H619.05C619.382 444.849 619.602 445.044 619.602 445.361C619.602 445.679 619.382 445.874 619.05 445.874H616.707C616.628 445.874 616.565 445.937 616.565 446.016V448.179C616.565 448.594 616.331 448.833 615.935 448.833V448.833Z" fill="#FF00FF"/>
<path d="M623.21 448.848C622.844 448.848 622.59 448.594 622.59 448.213V443.179C622.59 443.065 622.461 442.997 622.367 443.063L621.428 443.716C621.306 443.804 621.208 443.838 621.071 443.838C620.808 443.838 620.617 443.648 620.617 443.369C620.617 443.174 620.695 443.027 620.905 442.881L622.346 441.87C622.658 441.65 622.854 441.606 623.117 441.606C623.562 441.606 623.83 441.875 623.83 442.31V448.213C623.83 448.594 623.576 448.848 623.21 448.848V448.848Z" fill="#FF00FF"/>
<path d="M628.078 448.848C627.712 448.848 627.458 448.594 627.458 448.213V443.179C627.458 443.065 627.329 442.997 627.235 443.063L626.296 443.716C626.174 443.804 626.076 443.838 625.939 443.838C625.676 443.838 625.485 443.648 625.485 443.369C625.485 443.174 625.563 443.027 625.773 442.881L627.214 441.87C627.526 441.65 627.722 441.606 627.985 441.606C628.43 441.606 628.698 441.875 628.698 442.31V448.213C628.698 448.594 628.444 448.848 628.078 448.848V448.848Z" fill="#FF00FF"/>
<path fill-rule="evenodd" clip-rule="evenodd" d="M570.879 461.518C570.879 461.054 570.499 460.698 570.057 460.698H570.022C569.944 460.698 569.867 460.712 569.795 460.737C569.664 460.775 569.538 460.846 569.428 460.955L567.751 462.615C567.697 462.668 567.624 462.699 567.547 462.699H566.289C565.607 462.699 565.079 463.256 565.079 463.909V465.609C565.079 466.281 565.616 466.819 566.289 466.819H567.55C567.626 466.819 567.699 466.848 567.753 466.901L569.43 468.544C569.546 468.659 569.674 468.731 569.805 468.767C569.875 468.79 569.948 468.802 570.022 468.802H570.057C570.505 468.802 570.879 468.441 570.879 467.981V467.939V461.559V461.518Z" fill="#FF00FF"/>
<path d="M560.72 448.833C560.329 448.833 560.09 448.594 560.09 448.179V442.358C560.09 441.948 560.329 441.704 560.72 441.704H564.089C564.436 441.704 564.665 441.909 564.665 442.236C564.665 442.563 564.431 442.769 564.089 442.769H561.492C561.413 442.769 561.35 442.832 561.35 442.91V444.707C561.35 444.785 561.413 444.849 561.492 444.849H563.835C564.167 444.849 564.387 445.044 564.387 445.361C564.387 445.679 564.167 445.874 563.835 445.874H561.492C561.413 445.874 561.35 445.937 561.35 446.016V448.179C561.35 448.594 561.116 448.833 560.72 448.833V448.833Z" fill="#FF00FF"/>
<path d="M567.995 448.848C567.629 448.848 567.375 448.594 567.375 448.213V443.179C567.375 443.065 567.246 442.997 567.152 443.063L566.213 443.716C566.091 443.804 565.993 443.838 565.856 443.838C565.593 443.838 565.402 443.648 565.402 443.369C565.402 443.174 565.48 443.027 565.69 442.881L567.131 441.87C567.443 441.65 567.639 441.606 567.902 441.606C568.347 441.606 568.615 441.875 568.615 442.31V448.213C568.615 448.594 568.361 448.848 567.995 448.848V448.848Z" fill="#FF00FF"/>
<path d="M573.141 447.861C574.094 447.861 574.636 446.89 574.636 445.22C574.636 443.55 574.084 442.593 573.141 442.593C572.199 442.593 571.638 443.574 571.638 445.215C571.638 446.855 572.184 447.861 573.141 447.861ZM573.141 448.892C571.403 448.892 570.368 447.48 570.368 445.22C570.368 442.959 571.413 441.562 573.141 441.562C574.87 441.562 575.905 442.959 575.905 445.215C575.905 447.471 574.875 448.892 573.141 448.892Z" fill="#FF00FF"/>
<path fill-rule="evenodd" clip-rule="evenodd" d="M520.39 465.616C521.057 465.231 521.057 464.269 520.39 463.884L516.64 461.719C515.973 461.334 515.14 461.815 515.14 462.585L515.14 466.915C515.14 467.685 515.973 468.166 516.64 467.781L520.39 465.616ZM512.888 465.616C513.555 465.231 513.555 464.269 512.888 463.884L509.138 461.719C508.472 461.334 507.638 461.815 507.638 462.585L507.638 466.915C507.638 467.685 508.472 468.166 509.138 467.781L512.888 465.616Z" fill="#FF00FF"/>
<path d="M509.205 448.833C508.814 448.833 508.575 448.594 508.575 448.179V442.358C508.575 441.948 508.814 441.704 509.205 441.704H512.574C512.921 441.704 513.15 441.909 513.15 442.236C513.15 442.563 512.916 442.769 512.574 442.769H509.977C509.898 442.769 509.835 442.832 509.835 442.91V444.707C509.835 444.785 509.898 444.849 509.977 444.849H512.32C512.652 444.849 512.872 445.044 512.872 445.361C512.872 445.679 512.652 445.874 512.32 445.874H509.977C509.898 445.874 509.835 445.937 509.835 446.016V448.179C509.835 448.594 509.601 448.833 509.205 448.833V448.833Z" fill="#FF00FF"/>
<path d="M519.034 443.125C519.293 443.667 519.424 444.341 519.424 445.141C519.424 447.49 518.35 448.891 516.559 448.891C515.484 448.891 514.765 448.475 514.429 447.897C514.35 447.755 514.316 447.633 514.316 447.497C514.316 447.209 514.521 446.989 514.853 446.989C515.102 446.989 515.259 447.106 515.454 447.355C515.756 447.677 516.041 447.866 516.563 447.866C517.741 447.866 518.067 446.634 518.156 446.042C518.173 445.93 518.056 445.844 517.954 445.894C517.616 446.058 516.953 446.328 516.256 446.328C514.899 446.328 513.947 445.351 513.947 444.018C513.947 442.588 515.055 441.558 516.578 441.558C517.677 441.558 518.546 442.095 519.034 443.125H519.034ZM515.187 443.969C515.182 444.78 515.772 445.356 516.583 445.356C517.393 445.356 518.004 444.78 518.004 443.994C518.004 443.208 517.384 442.583 516.598 442.583C515.812 442.583 515.187 443.198 515.187 443.969Z" fill="#FF00FF"/>
<path fill-rule="evenodd" clip-rule="evenodd" d="M611.725 766.756C611.333 766.756 611.015 767.074 611.015 767.466C611.015 767.858 611.333 768.176 611.725 768.176H615C615.138 768.176 615.268 768.244 615.346 768.358L617.803 771.937C618.146 772.437 618.714 772.736 619.32 772.736H624.275C624.667 772.736 624.985 772.418 624.985 772.026C624.985 771.634 624.667 771.316 624.275 771.316H619.32C619.182 771.316 619.052 771.248 618.974 771.134L616.517 767.555C616.174 767.055 615.606 766.756 615 766.756H611.725ZM619.975 766.756C619.583 766.756 619.265 767.074 619.265 767.466C619.265 767.858 619.583 768.176 619.975 768.176H624.275C624.667 768.176 624.985 767.858 624.985 767.466C624.985 767.074 624.667 766.756 624.275 766.756H619.975Z" fill="#FF00FF"/>
<path d="M614.726 785.587C612.67 785.587 611.381 786.988 611.381 789.23C611.381 791.471 612.67 792.867 614.726 792.867C616.781 792.867 618.066 791.471 618.066 789.23C618.066 786.988 616.776 785.587 614.726 785.587ZM614.726 791.793C613.466 791.793 612.67 790.797 612.67 789.23C612.67 787.662 613.466 786.661 614.726 786.661C615.985 786.661 616.781 787.657 616.781 789.23C616.781 790.802 615.981 791.793 614.726 791.793Z" fill="#FF00FF"/>
<path d="M629.315 787.472C628.944 787.472 628.709 787.721 628.709 788.111V792.208C628.709 792.604 628.944 792.848 629.315 792.848C629.686 792.848 629.925 792.604 629.925 792.208V788.116C629.925 787.721 629.686 787.472 629.315 787.472V787.472ZM629.315 786.847C629.696 786.847 629.994 786.554 629.994 786.188C629.994 785.821 629.696 785.528 629.315 785.528C628.934 785.528 628.641 785.816 628.641 786.188C628.641 786.559 628.939 786.847 629.315 786.847Z" fill="#FF00FF"/>
<path d="M636.921 792.208V788.086C636.921 787.71 637.14 787.47 637.502 787.47C637.709 787.47 637.878 787.551 637.983 787.692C638.009 787.726 638.031 787.765 638.048 787.801C638.083 787.872 638.167 787.902 638.238 787.868C638.504 787.739 639.123 787.475 639.739 787.475C640.882 787.475 641.531 788.208 641.531 789.404V792.208C641.531 792.618 641.282 792.848 640.926 792.848C640.569 792.848 640.315 792.618 640.315 792.208V789.649C640.315 788.916 639.973 788.506 639.28 788.506C638.586 788.506 638.137 789.009 638.137 789.751V792.208C638.137 792.618 637.883 792.848 637.526 792.848C637.17 792.848 636.921 792.618 636.921 792.208Z" fill="#FF00FF"/>
<path d="M633.436 787.467C631.927 787.467 630.931 788.492 630.931 790.162C630.931 791.832 631.917 792.853 633.436 792.853C634.954 792.853 635.941 791.842 635.941 790.162C635.941 788.482 634.945 787.467 633.436 787.467ZM633.436 791.891C632.664 791.891 632.166 791.266 632.166 790.162C632.166 789.059 632.669 788.434 633.436 788.434C634.202 788.434 634.705 789.064 634.705 790.162C634.705 791.261 634.207 791.891 633.436 791.891Z" fill="#FF00FF"/>
<path d="M621.619 791.836C620.862 791.836 620.359 791.177 620.354 790.161C620.359 789.155 620.833 788.486 621.619 788.486C622.406 788.486 622.894 789.14 622.894 790.161C622.894 791.187 622.376 791.836 621.619 791.836ZM624.139 790.161C624.139 788.505 623.304 787.485 621.99 787.485C621.504 787.485 620.734 787.729 620.433 787.831C620.366 787.854 620.291 787.824 620.259 787.76C620.251 787.744 620.243 787.728 620.233 787.713C620.113 787.542 619.938 787.47 619.739 787.47C619.392 787.47 619.148 787.695 619.148 788.095V793.951C619.148 794.361 619.397 794.591 619.754 794.591C620.11 794.591 620.364 794.361 620.364 793.951V792.593C620.364 792.49 620.47 792.421 620.564 792.463C620.926 792.626 621.528 792.833 622.01 792.833C623.309 792.833 624.139 791.812 624.139 790.161L624.139 790.161Z" fill="#FF00FF"/>
<path d="M625.458 791.47V788.654C625.458 788.576 625.394 788.512 625.316 788.512H625.13C624.828 788.512 624.642 788.342 624.642 788.049C624.642 787.756 624.828 787.59 625.13 787.59H625.316C625.394 787.59 625.458 787.526 625.458 787.448V786.885C625.458 786.494 625.692 786.25 626.068 786.25C626.444 786.25 626.674 786.494 626.674 786.885V787.448C626.674 787.526 626.737 787.59 626.815 787.59H627.235C627.538 787.59 627.724 787.76 627.724 788.049C627.724 788.337 627.538 788.512 627.235 788.512H626.815C626.737 788.512 626.674 788.576 626.674 788.654V791.207C626.674 791.597 626.81 791.768 627.162 791.798L627.25 791.807C627.572 791.837 627.738 791.973 627.738 792.257C627.738 792.613 627.426 792.804 626.869 792.804H626.82C625.917 792.804 625.458 792.354 625.458 791.471H625.458L625.458 791.47Z" fill="#FF00FF"/>
<path fill-rule="evenodd" clip-rule="evenodd" d="M694.811 767.177C694.047 767.177 693.427 767.797 693.427 768.561C693.427 769.326 694.047 769.945 694.811 769.945H696.056C696.133 769.945 696.196 769.883 696.196 769.805V768.561C696.196 767.797 695.576 767.177 694.811 767.177ZM697.756 769.945C697.678 769.945 697.616 769.883 697.616 769.805V768.561C697.616 767.012 696.36 765.757 694.811 765.757C693.263 765.757 692.007 767.012 692.007 768.561C692.007 770.11 693.262 771.365 694.811 771.365H696.056C696.133 771.365 696.196 771.428 696.196 771.505V773.994C696.196 774.071 696.133 774.134 696.056 774.134H694.811C693.263 774.134 692.007 775.39 692.007 776.938C692.007 778.487 693.263 779.743 694.811 779.743C696.36 779.743 697.616 778.487 697.616 776.938V775.694C697.616 775.617 697.678 775.554 697.756 775.554H700.244C700.321 775.554 700.384 775.617 700.384 775.694L700.384 776.938C700.384 778.487 701.64 779.743 703.189 779.743C704.737 779.743 705.993 778.487 705.993 776.938C705.993 775.39 704.737 774.134 703.189 774.134H701.944C701.867 774.134 701.804 774.071 701.804 773.994V771.505C701.804 771.428 701.867 771.365 701.944 771.365H703.189C704.737 771.365 705.993 770.11 705.993 768.561C705.993 767.012 704.737 765.757 703.189 765.757C701.64 765.757 700.384 767.012 700.384 768.561V769.805C700.384 769.883 700.322 769.945 700.244 769.945H697.756ZM697.756 771.365C697.678 771.365 697.616 771.428 697.616 771.505V773.994C697.616 774.071 697.678 774.134 697.756 774.134H700.244C700.321 774.134 700.384 774.071 700.384 773.994L700.384 771.505C700.384 771.428 700.322 771.365 700.244 771.365H697.756ZM701.944 775.554C701.867 775.554 701.804 775.617 701.804 775.694V776.938C701.804 777.703 702.424 778.323 703.189 778.323C703.953 778.323 704.573 777.703 704.573 776.938C704.573 776.174 703.953 775.554 703.189 775.554H701.944ZM701.804 769.805C701.804 769.883 701.867 769.945 701.944 769.945H703.189C703.953 769.945 704.573 769.326 704.573 768.561C704.573 767.797 703.953 767.177 703.189 767.177C702.424 767.177 701.804 767.797 701.804 768.561V769.805ZM696.196 775.694C696.196 775.617 696.133 775.554 696.056 775.554H694.811C694.047 775.554 693.427 776.174 693.427 776.938C693.427 777.703 694.047 778.323 694.811 778.323C695.576 778.323 696.196 777.703 696.196 776.938V775.694Z" fill="#FF00FF"/>
<path d="M695.298 792.867C693.262 792.867 692.007 791.485 692.007 789.225C692.007 786.964 693.282 785.587 695.274 785.587C696.577 785.587 697.608 786.197 698.072 787.228C698.15 787.389 698.189 787.555 698.189 787.701C698.189 788.038 697.969 788.253 697.632 788.253C697.344 788.253 697.154 788.116 697.017 787.809C696.69 787.052 696.05 786.656 695.284 786.656C694.073 786.656 693.296 787.652 693.296 789.225C693.296 790.797 694.068 791.798 695.289 791.798C696.094 791.798 696.714 791.446 697.037 790.704C697.164 790.416 697.325 790.299 697.598 790.299C697.945 790.299 698.184 790.528 698.184 790.86C698.184 791.021 698.145 791.168 698.067 791.334C697.618 792.291 696.617 792.867 695.298 792.867L695.298 792.867Z" fill="#FF00FF"/>
<path d="M710.278 788.482C711.035 788.482 711.538 789.141 711.543 790.157C711.538 791.163 711.064 791.832 710.278 791.832C709.492 791.832 709.003 791.178 709.003 790.157C709.003 789.131 709.521 788.482 710.278 788.482ZM707.758 790.157C707.758 791.813 708.593 792.833 709.907 792.833C710.393 792.833 711.163 792.589 711.464 792.487C711.531 792.464 711.606 792.494 711.638 792.558C711.646 792.574 711.654 792.591 711.664 792.605C711.784 792.776 711.959 792.848 712.158 792.848C712.505 792.848 712.749 792.623 712.749 792.223V786.245C712.749 785.835 712.5 785.605 712.143 785.605C711.787 785.605 711.533 785.835 711.533 786.245V787.725C711.533 787.828 711.427 787.897 711.333 787.855C710.971 787.692 710.369 787.486 709.887 787.486C708.588 787.486 707.758 788.506 707.758 790.157V790.157Z" fill="#FF00FF"/>
<path d="M699.355 792.208V788.091C699.355 787.695 699.595 787.471 699.937 787.471C700.091 787.471 700.224 787.517 700.326 787.602C700.387 787.653 700.431 787.723 700.461 787.783C700.495 787.85 700.576 787.878 700.645 787.847C700.914 787.728 701.539 787.476 702.022 787.476C702.635 787.476 703.204 787.798 703.398 787.92C703.441 787.948 703.496 787.949 703.541 787.925C703.758 787.806 704.421 787.476 705.109 787.476C706.129 787.476 706.798 788.164 706.798 789.2V792.208C706.798 792.613 706.554 792.848 706.193 792.848C705.832 792.848 705.582 792.613 705.582 792.208V789.498C705.582 788.863 705.25 788.501 704.654 788.501C704.059 788.501 703.668 788.931 703.668 789.551V792.208C703.668 792.613 703.438 792.848 703.077 792.848C702.716 792.848 702.486 792.613 702.486 792.208V789.434C702.486 788.858 702.134 788.501 701.568 788.501C701.001 788.501 700.572 788.955 700.572 789.581V792.208C700.572 792.613 700.322 792.848 699.961 792.848C699.6 792.848 699.355 792.613 699.355 792.208Z" fill="#FF00FF"/>
<path fill-rule="evenodd" clip-rule="evenodd" d="M152.725 766.756C152.333 766.756 152.015 767.074 152.015 767.466C152.015 767.858 152.333 768.176 152.725 768.176H156C156.138 768.176 156.268 768.244 156.346 768.358L158.803 771.937C159.146 772.437 159.714 772.736 160.32 772.736H165.275C165.667 772.736 165.985 772.418 165.985 772.026C165.985 771.634 165.667 771.316 165.275 771.316H160.32C160.182 771.316 160.052 771.248 159.974 771.134L157.517 767.555C157.174 767.055 156.606 766.756 156 766.756H152.725ZM160.975 766.756C160.583 766.756 160.265 767.074 160.265 767.466C160.265 767.858 160.583 768.176 160.975 768.176H165.275C165.667 768.176 165.985 767.858 165.985 767.466C165.985 767.074 165.667 766.756 165.275 766.756H160.975Z" fill="#FF00FF"/>
<path d="M155.726 785.587C153.67 785.587 152.381 786.988 152.381 789.23C152.381 791.471 153.67 792.867 155.726 792.867C157.781 792.867 159.066 791.471 159.066 789.23C159.066 786.988 157.776 785.587 155.726 785.587ZM155.726 791.793C154.466 791.793 153.67 790.797 153.67 789.23C153.67 787.662 154.466 786.661 155.726 786.661C156.985 786.661 157.781 787.657 157.781 789.23C157.781 790.802 156.981 791.793 155.726 791.793Z" fill="#FF00FF"/>
<path d="M170.315 787.472C169.944 787.472 169.709 787.721 169.709 788.111V792.208C169.709 792.604 169.944 792.848 170.315 792.848C170.686 792.848 170.925 792.604 170.925 792.208V788.116C170.925 787.721 170.686 787.472 170.315 787.472V787.472ZM170.315 786.847C170.696 786.847 170.994 786.554 170.994 786.188C170.994 785.821 170.696 785.528 170.315 785.528C169.934 785.528 169.641 785.816 169.641 786.188C169.641 786.559 169.939 786.847 170.315 786.847Z" fill="#FF00FF"/>
<path d="M177.921 792.208V788.086C177.921 787.71 178.14 787.47 178.502 787.47C178.709 787.47 178.878 787.551 178.983 787.692C179.009 787.726 179.031 787.765 179.048 787.801C179.083 787.872 179.167 787.902 179.238 787.868C179.504 787.739 180.123 787.475 180.739 787.475C181.882 787.475 182.531 788.208 182.531 789.404V792.208C182.531 792.618 182.282 792.848 181.926 792.848C181.569 792.848 181.315 792.618 181.315 792.208V789.649C181.315 788.916 180.973 788.506 180.28 788.506C179.586 788.506 179.137 789.009 179.137 789.751V792.208C179.137 792.618 178.883 792.848 178.526 792.848C178.17 792.848 177.921 792.618 177.921 792.208Z" fill="#FF00FF"/>
<path d="M174.436 787.467C172.927 787.467 171.931 788.492 171.931 790.162C171.931 791.832 172.917 792.853 174.436 792.853C175.954 792.853 176.941 791.842 176.941 790.162C176.941 788.482 175.945 787.467 174.436 787.467ZM174.436 791.891C173.664 791.891 173.166 791.266 173.166 790.162C173.166 789.059 173.669 788.434 174.436 788.434C175.202 788.434 175.705 789.064 175.705 790.162C175.705 791.261 175.207 791.891 174.436 791.891Z" fill="#FF00FF"/>
<path d="M162.619 791.836C161.862 791.836 161.359 791.177 161.354 790.161C161.359 789.155 161.833 788.486 162.619 788.486C163.406 788.486 163.894 789.14 163.894 790.161C163.894 791.187 163.376 791.836 162.619 791.836ZM165.139 790.161C165.139 788.505 164.304 787.485 162.99 787.485C162.504 787.485 161.734 787.729 161.433 787.831C161.366 787.854 161.291 787.824 161.259 787.76C161.251 787.744 161.243 787.728 161.233 787.713C161.113 787.542 160.938 787.47 160.739 787.47C160.392 787.47 160.148 787.695 160.148 788.095V793.951C160.148 794.361 160.397 794.591 160.754 794.591C161.11 794.591 161.364 794.361 161.364 793.951V792.593C161.364 792.49 161.47 792.421 161.564 792.463C161.926 792.626 162.528 792.833 163.01 792.833C164.309 792.833 165.139 791.812 165.139 790.161L165.139 790.161Z" fill="#FF00FF"/>
<path d="M166.458 791.47V788.654C166.458 788.576 166.394 788.512 166.316 788.512H166.13C165.828 788.512 165.642 788.342 165.642 788.049C165.642 787.756 165.828 787.59 166.13 787.59H166.316C166.394 787.59 166.458 787.526 166.458 787.448V786.885C166.458 786.494 166.692 786.25 167.068 786.25C167.444 786.25 167.674 786.494 167.674 786.885V787.448C167.674 787.526 167.737 787.59 167.815 787.59H168.235C168.538 787.59 168.724 787.76 168.724 788.049C168.724 788.337 168.538 788.512 168.235 788.512H167.815C167.737 788.512 167.674 788.576 167.674 788.654V791.207C167.674 791.597 167.81 791.768 168.162 791.798L168.25 791.807C168.572 791.837 168.738 791.973 168.738 792.257C168.738 792.613 168.426 792.804 167.869 792.804H167.82C166.917 792.804 166.458 792.354 166.458 791.471H166.458L166.458 791.47Z" fill="#FF00FF"/>
<path fill-rule="evenodd" clip-rule="evenodd" d="M100.811 767.177C100.047 767.177 99.427 767.797 99.427 768.561C99.427 769.326 100.047 769.945 100.811 769.945H102.056C102.133 769.945 102.196 769.883 102.196 769.805V768.561C102.196 767.797 101.576 767.177 100.811 767.177ZM103.756 769.945C103.678 769.945 103.616 769.883 103.616 769.805V768.561C103.616 767.012 102.36 765.757 100.811 765.757C99.2626 765.757 98.007 767.012 98.007 768.561C98.007 770.11 99.2625 771.365 100.811 771.365H102.056C102.133 771.365 102.196 771.428 102.196 771.505V773.994C102.196 774.071 102.133 774.134 102.056 774.134H100.811C99.2626 774.134 98.007 775.39 98.007 776.938C98.007 778.487 99.2626 779.743 100.811 779.743C102.36 779.743 103.616 778.487 103.616 776.938V775.694C103.616 775.617 103.678 775.554 103.756 775.554H106.244C106.321 775.554 106.384 775.617 106.384 775.694L106.384 776.938C106.384 778.487 107.64 779.743 109.189 779.743C110.737 779.743 111.993 778.487 111.993 776.938C111.993 775.39 110.737 774.134 109.189 774.134H107.944C107.867 774.134 107.804 774.071 107.804 773.994V771.505C107.804 771.428 107.867 771.365 107.944 771.365H109.189C110.737 771.365 111.993 770.11 111.993 768.561C111.993 767.012 110.737 765.757 109.189 765.757C107.64 765.757 106.384 767.012 106.384 768.561V769.805C106.384 769.883 106.322 769.945 106.244 769.945H103.756ZM103.756 771.365C103.678 771.365 103.616 771.428 103.616 771.505V773.994C103.616 774.071 103.678 774.134 103.756 774.134H106.244C106.321 774.134 106.384 774.071 106.384 773.994L106.384 771.505C106.384 771.428 106.322 771.365 106.244 771.365H103.756ZM107.944 775.554C107.867 775.554 107.804 775.617 107.804 775.694V776.938C107.804 777.703 108.424 778.323 109.189 778.323C109.953 778.323 110.573 777.703 110.573 776.938C110.573 776.174 109.953 775.554 109.189 775.554H107.944ZM107.804 769.805C107.804 769.883 107.867 769.945 107.944 769.945H109.189C109.953 769.945 110.573 769.326 110.573 768.561C110.573 767.797 109.953 767.177 109.189 767.177C108.424 767.177 107.804 767.797 107.804 768.561V769.805ZM102.196 775.694C102.196 775.617 102.133 775.554 102.056 775.554H100.811C100.047 775.554 99.427 776.174 99.427 776.938C99.427 777.703 100.047 778.323 100.811 778.323C101.576 778.323 102.196 777.703 102.196 776.938V775.694Z" fill="#FF00FF"/>
<path d="M101.298 792.867C99.262 792.867 98.0071 791.485 98.0071 789.225C98.0071 786.964 99.2816 785.587 101.274 785.587C102.577 785.587 103.608 786.197 104.072 787.228C104.15 787.389 104.189 787.555 104.189 787.701C104.189 788.038 103.969 788.253 103.632 788.253C103.344 788.253 103.154 788.116 103.017 787.809C102.69 787.052 102.05 786.656 101.284 786.656C100.073 786.656 99.2964 787.652 99.2964 789.225C99.2964 790.797 100.068 791.798 101.289 791.798C102.094 791.798 102.714 791.446 103.037 790.704C103.164 790.416 103.325 790.299 103.598 790.299C103.945 790.299 104.184 790.528 104.184 790.86C104.184 791.021 104.145 791.168 104.067 791.334C103.618 792.291 102.617 792.867 101.298 792.867L101.298 792.867Z" fill="#FF00FF"/>
<path d="M116.278 788.482C117.035 788.482 117.538 789.141 117.543 790.157C117.538 791.163 117.064 791.832 116.278 791.832C115.492 791.832 115.003 791.178 115.003 790.157C115.003 789.131 115.521 788.482 116.278 788.482ZM113.758 790.157C113.758 791.813 114.593 792.833 115.907 792.833C116.393 792.833 117.163 792.589 117.464 792.487C117.531 792.464 117.606 792.494 117.638 792.558C117.646 792.574 117.654 792.591 117.664 792.605C117.784 792.776 117.959 792.848 118.158 792.848C118.505 792.848 118.749 792.623 118.749 792.223V786.245C118.749 785.835 118.5 785.605 118.143 785.605C117.787 785.605 117.533 785.835 117.533 786.245V787.725C117.533 787.828 117.427 787.897 117.333 787.855C116.971 787.692 116.369 787.486 115.887 787.486C114.588 787.486 113.758 788.506 113.758 790.157V790.157Z" fill="#FF00FF"/>
<path d="M105.355 792.208V788.091C105.355 787.695 105.595 787.471 105.937 787.471C106.091 787.471 106.224 787.517 106.326 787.602C106.387 787.653 106.431 787.723 106.461 787.783C106.495 787.85 106.576 787.878 106.645 787.847C106.914 787.728 107.539 787.476 108.022 787.476C108.635 787.476 109.204 787.798 109.398 787.92C109.441 787.948 109.496 787.949 109.541 787.925C109.758 787.806 110.421 787.476 111.109 787.476C112.129 787.476 112.798 788.164 112.798 789.2V792.208C112.798 792.613 112.554 792.848 112.193 792.848C111.832 792.848 111.582 792.613 111.582 792.208V789.498C111.582 788.863 111.25 788.501 110.654 788.501C110.059 788.501 109.668 788.931 109.668 789.551V792.208C109.668 792.613 109.438 792.848 109.077 792.848C108.716 792.848 108.486 792.613 108.486 792.208V789.434C108.486 788.858 108.134 788.501 107.568 788.501C107.001 788.501 106.572 788.955 106.572 789.581V792.208C106.572 792.613 106.322 792.848 105.961 792.848C105.6 792.848 105.355 792.613 105.355 792.208Z" fill="#FF00FF"/>
<path d="M20.6759 339.761C20.6759 340.195 20.4031 340.468 19.9752 340.468C19.5411 340.468 19.2745 340.195 19.2745 339.761V338.921C19.2745 338.844 19.2118 338.781 19.1345 338.781H17.5691C17.1599 338.781 16.8746 338.521 16.8746 338.143C16.8746 337.764 17.1599 337.504 17.5691 337.504H19.1345C19.2118 337.504 19.2745 337.441 19.2745 337.364V336.574C19.2745 336.14 19.5411 335.867 19.969 335.867C20.4031 335.867 20.6759 336.14 20.6759 336.574V337.364C20.6759 337.441 20.7386 337.504 20.8159 337.504H22.4371C22.8525 337.504 23.1316 337.764 23.1316 338.143C23.1316 338.521 22.8525 338.781 22.4371 338.781H20.8159C20.7386 338.781 20.6759 338.844 20.6759 338.921V339.761ZM16.8746 341.659C16.8746 341.268 17.1227 341.02 17.5877 341.02H22.4371C22.9021 341.02 23.1502 341.268 23.1502 341.659C23.1502 342.043 22.9021 342.297 22.4371 342.297H17.5877C17.1227 342.297 16.8746 342.043 16.8746 341.659Z" fill="#FF00FF"/>
<path d="M19.9573 361.144C20.6273 361.144 21.0273 360.804 21.0273 360.304C21.0273 359.754 20.4873 359.574 19.3873 359.264C18.1873 358.924 17.4673 358.434 17.4673 357.424C17.4673 356.714 17.8273 356.254 18.3373 355.934C18.4273 355.884 18.4173 355.754 18.3373 355.694C17.8173 355.334 17.5273 354.854 17.5273 354.184C17.5273 352.924 18.6273 352.124 20.0373 352.124C20.6673 352.124 21.2773 352.294 21.7273 352.594C22.1273 352.844 22.3773 353.184 22.3673 353.534C22.3573 353.884 22.0573 354.114 21.7273 354.094C21.5273 354.074 21.3773 353.984 21.1373 353.764C20.7673 353.434 20.4673 353.274 20.0373 353.274C19.4073 353.274 19.0073 353.624 19.0073 354.104C19.0073 354.654 19.5873 354.864 20.6173 355.154C21.8973 355.504 22.5673 355.944 22.5673 356.974C22.5673 357.664 22.2373 358.174 21.7473 358.554C21.6673 358.614 21.6773 358.734 21.7473 358.784C22.2673 359.144 22.5173 359.554 22.5173 360.184C22.5173 361.514 21.3673 362.314 19.9573 362.314C19.4273 362.314 18.8673 362.194 18.4473 361.974C17.9073 361.714 17.5473 361.304 17.5473 360.884C17.5473 360.534 17.8473 360.284 18.1873 360.304C18.3873 360.314 18.5273 360.404 18.7673 360.634C19.0973 360.974 19.4673 361.154 19.9473 361.154L19.9573 361.144ZM20.0173 358.164C20.0173 358.164 20.2573 358.224 20.3873 358.254C20.4573 358.274 20.5373 358.254 20.5973 358.224C20.8973 358.044 21.1173 357.674 21.1173 357.284C21.1173 356.754 20.7373 356.454 19.9873 356.294C19.9573 356.294 19.7773 356.254 19.6673 356.224C19.6073 356.214 19.5473 356.224 19.4973 356.244C19.1673 356.404 18.9073 356.824 18.9073 357.204C18.9073 357.704 19.2673 357.994 20.0173 358.174V358.164Z" fill="#FF00FF"/>
<path fill-rule="evenodd" clip-rule="evenodd" d="M330.311 119.177C329.547 119.177 328.927 119.797 328.927 120.561C328.927 121.326 329.547 121.945 330.311 121.945H331.556C331.633 121.945 331.696 121.883 331.696 121.805V120.561C331.696 119.797 331.076 119.177 330.311 119.177ZM333.256 121.945C333.178 121.945 333.116 121.883 333.116 121.805V120.561C333.116 119.012 331.86 117.757 330.311 117.757C328.763 117.757 327.507 119.012 327.507 120.561C327.507 122.11 328.762 123.365 330.311 123.365H331.556C331.633 123.365 331.696 123.428 331.696 123.505V125.994C331.696 126.071 331.633 126.134 331.556 126.134H330.311C328.763 126.134 327.507 127.39 327.507 128.938C327.507 130.487 328.763 131.743 330.311 131.743C331.86 131.743 333.116 130.487 333.116 128.938V127.694C333.116 127.617 333.178 127.554 333.256 127.554H335.744C335.821 127.554 335.884 127.617 335.884 127.694L335.884 128.938C335.884 130.487 337.14 131.743 338.689 131.743C340.237 131.743 341.493 130.487 341.493 128.938C341.493 127.39 340.237 126.134 338.689 126.134H337.444C337.367 126.134 337.304 126.071 337.304 125.994V123.505C337.304 123.428 337.367 123.365 337.444 123.365H338.689C340.237 123.365 341.493 122.11 341.493 120.561C341.493 119.012 340.237 117.757 338.689 117.757C337.14 117.757 335.884 119.012 335.884 120.561V121.805C335.884 121.883 335.822 121.945 335.744 121.945H333.256ZM333.256 123.365C333.178 123.365 333.116 123.428 333.116 123.505V125.994C333.116 126.071 333.178 126.134 333.256 126.134H335.744C335.821 126.134 335.884 126.071 335.884 125.994L335.884 123.505C335.884 123.428 335.822 123.365 335.744 123.365H333.256ZM337.444 127.554C337.367 127.554 337.304 127.617 337.304 127.694V128.938C337.304 129.703 337.924 130.323 338.689 130.323C339.453 130.323 340.073 129.703 340.073 128.938C340.073 128.174 339.453 127.554 338.689 127.554H337.444ZM337.304 121.805C337.304 121.883 337.367 121.945 337.444 121.945H338.689C339.453 121.945 340.073 121.326 340.073 120.561C340.073 119.797 339.453 119.177 338.689 119.177C337.924 119.177 337.304 119.797 337.304 120.561V121.805ZM331.696 127.694C331.696 127.617 331.633 127.554 331.556 127.554H330.311C329.547 127.554 328.927 128.174 328.927 128.938C328.927 129.703 329.547 130.323 330.311 130.323C331.076 130.323 331.696 129.703 331.696 128.938V127.694Z" fill="#FF00FF"/>
<path d="M331.172 144.867C329.136 144.867 327.881 143.485 327.881 141.225C327.881 138.964 329.155 137.587 331.148 137.587C332.451 137.587 333.482 138.197 333.945 139.228C334.024 139.389 334.063 139.555 334.063 139.701C334.063 140.038 333.843 140.253 333.506 140.253C333.218 140.253 333.028 140.116 332.891 139.809C332.564 139.052 331.924 138.656 331.157 138.656C329.946 138.656 329.17 139.652 329.17 141.225C329.17 142.797 329.942 143.798 331.162 143.798C331.968 143.798 332.588 143.446 332.91 142.704C333.037 142.416 333.199 142.299 333.472 142.299C333.819 142.299 334.058 142.528 334.058 142.86C334.058 143.021 334.019 143.168 333.941 143.334C333.491 144.291 332.49 144.867 331.172 144.867L331.172 144.867Z" fill="#FF00FF"/>
<path d="M361.371 142.831C361.371 143.456 360.815 143.915 360.131 143.915C359.604 143.915 359.248 143.647 359.248 143.222C359.248 142.797 359.585 142.548 360.17 142.509L361.319 142.439C361.347 142.437 361.371 142.46 361.371 142.489V142.831L361.371 142.831ZM360.454 139.467C359.462 139.467 358.891 139.808 358.599 140.135C358.429 140.325 358.408 140.724 358.64 140.91C358.911 141.127 359.366 140.964 359.522 140.772C359.662 140.6 359.977 140.425 360.405 140.419C361.005 140.411 361.371 140.732 361.371 141.274V141.476C361.371 141.503 361.351 141.524 361.324 141.526L359.999 141.601C358.74 141.679 358.032 142.353 358.032 143.27C358.032 144.188 358.762 144.833 359.76 144.833C360.392 144.833 361.008 144.668 361.314 144.542C361.379 144.516 361.452 144.541 361.489 144.6C361.491 144.605 361.494 144.609 361.496 144.611C361.577 144.727 361.724 144.847 361.982 144.847C362.323 144.847 362.572 144.628 362.572 144.237V141.186C362.572 140.146 361.738 139.467 360.454 139.467Z" fill="#FF00FF"/>
<path d="M371.844 140.482C372.601 140.482 373.104 141.141 373.109 142.157C373.104 143.163 372.63 143.832 371.844 143.832C371.058 143.832 370.57 143.178 370.57 142.157C370.57 141.131 371.087 140.482 371.844 140.482ZM369.324 142.157C369.324 143.813 370.159 144.833 371.473 144.833C371.959 144.833 372.729 144.589 373.03 144.487C373.098 144.464 373.172 144.494 373.204 144.558C373.212 144.574 373.22 144.591 373.231 144.605C373.35 144.776 373.526 144.848 373.725 144.848C374.071 144.848 374.315 144.623 374.315 144.223V138.245C374.315 137.835 374.066 137.605 373.71 137.605C373.353 137.605 373.099 137.835 373.099 138.245V139.725C373.099 139.828 372.993 139.897 372.9 139.855C372.538 139.692 371.935 139.486 371.453 139.486C370.154 139.486 369.324 140.506 369.324 142.157V142.157Z" fill="#FF00FF"/>
<path d="M341.005 144.208V140.091C341.005 139.695 341.245 139.471 341.587 139.471C341.741 139.471 341.874 139.517 341.976 139.602C342.036 139.653 342.081 139.723 342.111 139.783C342.145 139.85 342.226 139.878 342.295 139.847C342.564 139.728 343.189 139.476 343.672 139.476C344.285 139.476 344.854 139.798 345.048 139.92C345.091 139.948 345.146 139.949 345.191 139.925C345.407 139.806 346.071 139.476 346.759 139.476C347.779 139.476 348.448 140.164 348.448 141.2V144.208C348.448 144.613 348.204 144.848 347.843 144.848C347.481 144.848 347.232 144.613 347.232 144.208V141.498C347.232 140.863 346.9 140.501 346.304 140.501C345.708 140.501 345.318 140.931 345.318 141.551V144.208C345.318 144.613 345.088 144.848 344.727 144.848C344.365 144.848 344.136 144.613 344.136 144.208V141.434C344.136 140.858 343.784 140.501 343.218 140.501C342.651 140.501 342.221 140.955 342.221 141.581V144.208C342.221 144.613 341.972 144.848 341.611 144.848C341.25 144.848 341.005 144.613 341.005 144.208Z" fill="#FF00FF"/>
<path d="M349.624 144.208V140.091C349.624 139.695 349.863 139.471 350.205 139.471C350.359 139.471 350.492 139.517 350.594 139.602C350.655 139.653 350.699 139.723 350.729 139.783C350.763 139.85 350.844 139.878 350.913 139.847C351.182 139.728 351.807 139.476 352.29 139.476C352.903 139.476 353.472 139.798 353.666 139.92C353.709 139.948 353.764 139.949 353.809 139.925C354.026 139.806 354.689 139.476 355.377 139.476C356.397 139.476 357.067 140.164 357.067 141.2V144.208C357.067 144.613 356.822 144.848 356.461 144.848C356.1 144.848 355.85 144.613 355.85 144.208V141.498C355.85 140.863 355.518 140.501 354.923 140.501C354.327 140.501 353.936 140.931 353.936 141.551V144.208C353.936 144.613 353.706 144.848 353.345 144.848C352.984 144.848 352.754 144.613 352.754 144.208V141.434C352.754 140.858 352.402 140.501 351.836 140.501C351.269 140.501 350.84 140.955 350.84 141.581V144.208C350.84 144.613 350.59 144.848 350.229 144.848C349.868 144.848 349.624 144.613 349.624 144.208Z" fill="#FF00FF"/>
<path d="M363.753 144.208V140.086C363.753 139.71 363.972 139.47 364.334 139.47C364.541 139.47 364.71 139.551 364.815 139.692C364.841 139.726 364.863 139.765 364.88 139.801C364.915 139.872 364.999 139.902 365.07 139.868C365.336 139.739 365.955 139.475 366.571 139.475C367.714 139.475 368.363 140.208 368.363 141.404V144.208C368.363 144.618 368.114 144.848 367.758 144.848C367.401 144.848 367.147 144.618 367.147 144.208V141.649C367.147 140.916 366.805 140.506 366.112 140.506C365.418 140.506 364.969 141.009 364.969 141.751V144.208C364.969 144.618 364.715 144.848 364.358 144.848C364.002 144.848 363.753 144.618 363.753 144.208Z" fill="#FF00FF"/>
<path d="M337.519 139.467C336.011 139.467 335.014 140.492 335.014 142.162C335.014 143.832 336.001 144.853 337.519 144.853C339.038 144.853 340.024 143.842 340.024 142.162C340.024 140.482 339.028 139.467 337.519 139.467ZM337.519 143.891C336.748 143.891 336.25 143.266 336.25 142.162C336.25 141.059 336.753 140.434 337.519 140.434C338.286 140.434 338.789 141.064 338.789 142.162C338.789 143.261 338.291 143.891 337.519 143.891Z" fill="#FF00FF"/>
<path fill-rule="evenodd" clip-rule="evenodd" d="M544.225 64.7559C543.833 64.7559 543.515 65.0737 543.515 65.4659C543.515 65.858 543.833 66.1759 544.225 66.1759H547.5C547.638 66.1759 547.768 66.2441 547.846 66.3582L550.303 69.9371C550.646 70.4371 551.214 70.7359 551.82 70.7359H556.775C557.167 70.7359 557.485 70.418 557.485 70.0259C557.485 69.6337 557.167 69.3159 556.775 69.3159H551.82C551.682 69.3159 551.552 69.2477 551.474 69.1335L549.017 65.5546C548.674 65.0546 548.106 64.7559 547.5 64.7559H544.225ZM552.475 64.7559C552.083 64.7559 551.765 65.0737 551.765 65.4659C551.765 65.858 552.083 66.1759 552.475 66.1759H556.775C557.167 66.1759 557.485 65.858 557.485 65.4659C557.485 65.0737 557.167 64.7559 556.775 64.7559H552.475Z" fill="#FF00FF"/>
<path d="M546.86 83.5869C544.804 83.5869 543.515 84.9883 543.515 87.2295C543.515 89.4707 544.804 90.8672 546.86 90.8672C548.916 90.8672 550.2 89.4707 550.2 87.2295C550.2 84.9883 548.911 83.5869 546.86 83.5869ZM546.86 89.793C545.6 89.793 544.804 88.7969 544.804 87.2295C544.804 85.6621 545.6 84.6611 546.86 84.6611C548.12 84.6611 548.916 85.6572 548.916 87.2295C548.916 88.8018 548.115 89.793 546.86 89.793Z" fill="#FF00FF"/>
<path d="M553.754 89.8362C552.997 89.8362 552.494 89.1769 552.489 88.1611C552.494 87.1551 552.967 86.486 553.754 86.486C554.54 86.486 555.028 87.1404 555.028 88.1611C555.028 89.1867 554.511 89.8362 553.754 89.8362ZM556.273 88.161C556.273 86.5054 555.438 85.4848 554.125 85.4848C553.639 85.4848 552.868 85.7288 552.568 85.8308C552.5 85.8537 552.425 85.824 552.394 85.76C552.386 85.7437 552.377 85.7275 552.367 85.7127C552.248 85.5422 552.072 85.4702 551.873 85.4702C551.526 85.4702 551.282 85.6948 551.282 86.0953V91.951C551.282 92.3613 551.531 92.5908 551.888 92.5908C552.245 92.5908 552.498 92.3613 552.498 91.951V90.5928C552.498 90.4901 552.604 90.4212 552.698 90.4634C553.06 90.6263 553.663 90.8325 554.144 90.8325C555.443 90.8325 556.274 89.8118 556.274 88.1611L556.273 88.161Z" fill="#FF00FF"/>
<path d="M557.592 89.4705V86.6542C557.592 86.5759 557.528 86.5125 557.45 86.5125H557.265C556.962 86.5125 556.776 86.3416 556.776 86.0486C556.776 85.7556 556.962 85.5896 557.265 85.5896H557.45C557.528 85.5896 557.592 85.5261 557.592 85.4479V84.8849C557.592 84.4942 557.826 84.25 558.202 84.25C558.578 84.25 558.808 84.4941 558.808 84.8849V85.4479C558.808 85.5262 558.871 85.5896 558.95 85.5896H559.369C559.672 85.5896 559.858 85.7604 559.858 86.0486C559.858 86.3368 559.672 86.5125 559.369 86.5125H558.95C558.871 86.5125 558.808 86.576 558.808 86.6542V89.2068C558.808 89.5975 558.945 89.7684 559.296 89.7977L559.384 89.8075C559.706 89.8368 559.873 89.9735 559.873 90.2568C559.873 90.6132 559.56 90.8038 559.003 90.8038H558.955C558.051 90.8038 557.592 90.3545 557.592 89.4706H557.592L557.592 89.4705Z" fill="#FF00FF"/>
<rect x="743.5" y="703" width="67.5" height="54" stroke="#00FFFF"/>
<rect x="676" y="703" width="67.5" height="54" stroke="#00FFFF"/>
<rect x="608.5" y="703" width="67.5" height="54" stroke="#00FFFF"/>
<rect x="541" y="703" width="67.5" height="54" stroke="#00FFFF"/>
<rect x="136" y="703" width="67.5" height="54" stroke="#00FFFF"/>
<rect x="68.5" y="703" width="67.5" height="54" stroke="#00FFFF"/>
<rect x="1" y="703" width="67.5" height="54" stroke="#00FFFF"/>
<rect x="662.5" y="649" width="148.5" height="54" stroke="#00FFFF"/>
<rect x="1" y="649" width="121.5" height="54" stroke="#00FFFF"/>
<rect x="689.5" y="595" width="121.5" height="54" stroke="#00FFFF"/>
<rect x="1" y="595" width="94.5" height="54" stroke="#00FFFF"/>
<rect x="1" y="541" width="81" height="54" stroke="#00FFFF"/>
<rect x="703" y="487" width="108" height="54" stroke="#00FFFF"/>
<rect x="608.5" y="649" width="54" height="54" stroke="#00FFFF"/>
<rect x="554.5" y="649" width="54" height="54" stroke="#00FFFF"/>
<rect x="500.5" y="649" width="54" height="54" stroke="#00FFFF"/>
<rect x="446.5" y="649" width="54" height="54" stroke="#00FFFF"/>
<rect x="392.5" y="649" width="54" height="54" stroke="#00FFFF"/>
<rect x="338.5" y="649" width="54" height="54" stroke="#00FFFF"/>
<rect x="284.5" y="649" width="54" height="54" stroke="#00FFFF"/>
<rect x="230.5" y="649" width="54" height="54" stroke="#00FFFF"/>
<rect x="176.5" y="649" width="54" height="54" stroke="#00FFFF"/>
<rect x="122.5" y="649" width="54" height="54" stroke="#00FFFF"/>
<rect x="635.5" y="595" width="54" height="54" stroke="#00FFFF"/>
<rect x="581.5" y="595" width="54" height="54" stroke="#00FFFF"/>
<rect x="527.5" y="595" width="54" height="54" stroke="#00FFFF"/>
<rect x="473.5" y="595" width="54" height="54" stroke="#00FFFF"/>
<rect x="419.5" y="595" width="54" height="54" stroke="#00FFFF"/>
<rect x="365.5" y="595" width="54" height="54" stroke="#00FFFF"/>
<rect x="311.5" y="595" width="54" height="54" stroke="#00FFFF"/>
<rect x="257.5" y="595" width="54" height="54" stroke="#00FFFF"/>
<rect x="203.5" y="595" width="54" height="54" stroke="#00FFFF"/>
<rect x="149.5" y="595" width="54" height="54" stroke="#00FFFF"/>
<rect x="95.5" y="595" width="54" height="54" stroke="#00FFFF"/>
<rect x="730" y="541" width="81" height="54" stroke="#00FFFF"/>
<rect x="676" y="541" width="54" height="54" stroke="#00FFFF"/>
<rect x="622" y="541" width="54" height="54" stroke="#00FFFF"/>
<rect x="568" y="541" width="54" height="54" stroke="#00FFFF"/>
<rect x="514" y="541" width="54" height="54" stroke="#00FFFF"/>
<rect x="460" y="541" width="54" height="54" stroke="#00FFFF"/>
<rect x="406" y="541" width="54" height="54" stroke="#00FFFF"/>
<rect x="352" y="541" width="54" height="54" stroke="#00FFFF"/>
<rect x="298" y="541" width="54" height="54" stroke="#00FFFF"/>
<rect x="244" y="541" width="54" height="54" stroke="#00FFFF"/>
<rect x="190" y="541" width="54" height="54" stroke="#00FFFF"/>
<rect x="136" y="541" width="54" height="54" stroke="#00FFFF"/>
<rect x="82" y="541" width="54" height="54" stroke="#00FFFF"/>
<rect x="55" y="487" width="54" height="54" stroke="#00FFFF"/>
<rect x="109" y="487" width="54" height="54" stroke="#00FFFF"/>
<rect x="163" y="487" width="54" height="54" stroke="#00FFFF"/>
<rect x="217" y="487" width="54" height="54" stroke="#00FFFF"/>
<rect x="271" y="487" width="54" height="54" stroke="#00FFFF"/>
<rect x="325" y="487" width="54" height="54" stroke="#00FFFF"/>
<rect x="379" y="487" width="54" height="54" stroke="#00FFFF"/>
<rect x="433" y="487" width="54" height="54" stroke="#00FFFF"/>
<rect x="487" y="487" width="54" height="54" stroke="#00FFFF"/>
<rect x="541" y="487" width="54" height="54" stroke="#00FFFF"/>
<rect x="595" y="487" width="54" height="54" stroke="#00FFFF"/>
<rect x="649" y="487" width="54" height="54" stroke="#00FFFF"/>
<rect x="1" y="487" width="54" height="54" stroke="#00FFFF"/>
<rect x="217" y="433" width="54" height="54" stroke="#00FFFF"/>
<rect x="163" y="433" width="54" height="54" stroke="#00FFFF"/>
<rect x="109" y="433" width="54" height="54" stroke="#00FFFF"/>
<rect x="55" y="433" width="54" height="54" stroke="#00FFFF"/>
<rect x="433" y="433" width="54" height="54" stroke="#00FFFF"/>
<rect x="379" y="433" width="54" height="54" stroke="#00FFFF"/>
<rect x="325" y="433" width="54" height="54" stroke="#00FFFF"/>
<rect x="271" y="433" width="54" height="54" stroke="#00FFFF"/>
<rect x="649" y="433" width="54" height="54" stroke="#00FFFF"/>
<rect x="595" y="433" width="54" height="54" stroke="#00FFFF"/>
<rect x="541" y="433" width="54" height="54" stroke="#00FFFF"/>
<rect x="487" y="433" width="54" height="54" stroke="#00FFFF"/>
<rect x="541" y="379" width="54" height="54" stroke="#00FFFF"/>
<rect x="487" y="379" width="54" height="54" stroke="#00FFFF"/>
<rect x="433" y="379" width="54" height="54" stroke="#00FFFF"/>
<rect x="487" y="325" width="54" height="54" stroke="#00FFFF"/>
<rect x="703" y="379" width="54" height="54" stroke="#00FFFF"/>
<rect x="595" y="379" width="108" height="54" stroke="#00FFFF"/>
<rect x="757" y="325" width="54" height="108" stroke="#00FFFF"/>
<rect x="703" y="325" width="54" height="54" stroke="#00FFFF"/>
<rect x="649" y="325" width="54" height="54" stroke="#00FFFF"/>
<rect x="595" y="325" width="54" height="54" stroke="#00FFFF"/>
<rect x="703" y="271" width="54" height="54" stroke="#00FFFF"/>
<rect x="595" y="271" width="54" height="54" stroke="#00FFFF"/>
<rect x="757" y="217" width="54" height="108" stroke="#00FFFF"/>
<rect x="703" y="217" width="54" height="54" stroke="#00FFFF"/>
<rect x="649" y="217" width="54" height="54" stroke="#00FFFF"/>
<rect x="595" y="217" width="54" height="54" stroke="#00FFFF"/>
<rect x="757" y="163" width="54" height="54" stroke="#00FFFF"/>
<rect x="703" y="163" width="54" height="54" stroke="#00FFFF"/>
<rect x="649" y="163" width="54" height="54" stroke="#00FFFF"/>
<rect x="595" y="163" width="54" height="54" stroke="#00FFFF"/>
<rect x="649" y="271" width="54" height="54" stroke="#00FFFF"/>
<rect x="541" y="163" width="54" height="54" stroke="#00FFFF"/>
<rect x="487" y="163" width="54" height="54" stroke="#00FFFF"/>
<rect x="433" y="163" width="54" height="54" stroke="#00FFFF"/>
<rect x="541" y="217" width="54" height="54" stroke="#00FFFF"/>
<rect x="487" y="217" width="54" height="54" stroke="#00FFFF"/>
<rect x="433" y="217" width="54" height="54" stroke="#00FFFF"/>
<rect x="541" y="271" width="54" height="54" stroke="#00FFFF"/>
<rect x="487" y="271" width="54" height="54" stroke="#00FFFF"/>
<rect x="433" y="271" width="54" height="54" stroke="#00FFFF"/>
<rect x="595" y="757" width="81" height="54" stroke="#00FFFF"/>
<rect x="676" y="757" width="54" height="54" stroke="#00FFFF"/>
<rect x="730" y="757" width="81" height="54" stroke="#00FFFF"/>
<rect x="136" y="757" width="81" height="54" stroke="#00FFFF"/>
<rect x="82" y="757" width="54" height="54" stroke="#00FFFF"/>
<rect x="1" y="757" width="81" height="54" stroke="#00FFFF"/>
<rect x="1" y="433" width="54" height="54" stroke="#00FFFF"/>
<rect x="757" y="433" width="54" height="54" stroke="#00FFFF"/>
<rect x="703" y="433" width="54" height="54" stroke="#00FFFF"/>
<rect x="541" y="325" width="54" height="54" stroke="#00FFFF"/>
<rect x="433" y="325" width="54" height="54" stroke="#00FFFF"/>
<rect x="379" y="325" width="54" height="54" stroke="#00FFFF"/>
<rect x="379" y="379" width="54" height="54" stroke="#00FFFF"/>
<rect x="298" y="379" width="81" height="54" stroke="#00FFFF"/>
<rect x="298" y="325" width="81" height="54" stroke="#00FFFF"/>
<rect x="217" y="325" width="81" height="108" stroke="#00FFFF"/>
<rect x="176.5" y="379" width="54" height="54" stroke="#00FFFF"/>
<rect x="122.5" y="379" width="54" height="54" stroke="#00FFFF"/>
<rect x="68.5" y="379" width="54" height="54" stroke="#00FFFF"/>
<rect x="1" y="379" width="67.5" height="54" stroke="#00FFFF"/>
<rect x="109" y="325" width="54" height="54" stroke="#00FFFF"/>
<rect x="55" y="325" width="54" height="54" stroke="#00FFFF"/>
<rect x="1" y="325" width="54" height="54" stroke="#00FFFF"/>
<rect x="163" y="325" width="54" height="54" stroke="#00FFFF"/>
<rect x="271" y="271" width="94.5" height="54" stroke="#00FFFF"/>
<rect x="365.5" y="271" width="67.5" height="54" stroke="#00FFFF"/>
<rect x="217" y="271" width="54" height="54" stroke="#00FFFF"/>
<rect x="163" y="271" width="54" height="54" stroke="#00FFFF"/>
<rect x="95.5" y="271" width="67.5" height="54" stroke="#00FFFF"/>
<rect x="1" y="271" width="94.5" height="54" stroke="#00FFFF"/>
<rect x="379" y="163" width="54" height="54" stroke="#00FFFF"/>
<rect x="271" y="163" width="54" height="54" stroke="#00FFFF"/>
<rect x="163" y="163" width="108" height="54" stroke="#00FFFF"/>
<rect x="95.5" y="163" width="67.5" height="54" stroke="#00FFFF"/>
<rect x="217" y="217" width="54" height="54" stroke="#00FFFF"/>
<rect x="163" y="217" width="54" height="54" stroke="#00FFFF"/>
<rect x="95.5" y="217" width="67.5" height="54" stroke="#00FFFF"/>
<rect x="1" y="217" width="94.5" height="54" stroke="#00FFFF"/>
<rect x="1" y="163" width="94.5" height="54" stroke="#00FFFF"/>
<rect x="730" y="55" width="81" height="108" stroke="#00FFFF"/>
<rect x="635.5" y="109" width="54" height="54" stroke="#00FFFF"/>
<rect x="554.5" y="109" width="81" height="54" stroke="#00FFFF"/>
<rect x="446.5" y="109" width="108" height="54" stroke="#00FFFF"/>
<rect x="311.5" y="109" width="81" height="54" stroke="#00FFFF"/>
<rect x="257.5" y="109" width="54" height="54" stroke="#00FFFF"/>
<rect x="163" y="109" width="94.5" height="54" stroke="#00FFFF"/>
<rect x="82" y="109" width="81" height="54" stroke="#00FFFF"/>
<rect x="1" y="109" width="81" height="54" stroke="#00FFFF"/>
<rect x="635.5" y="55" width="94.5" height="54" stroke="#00FFFF"/>
<rect x="527.5" y="55" width="54" height="54" stroke="#00FFFF"/>
<rect x="473.5" y="55" width="54" height="54" stroke="#00FFFF"/>
<rect x="392.5" y="55" width="81" height="54" stroke="#00FFFF"/>
<rect x="1" y="1" width="54" height="54" stroke="#00FFFF"/>
<rect x="55" y="1" width="54" height="54" stroke="#00FFFF"/>
<rect x="109" y="1" width="54" height="54" stroke="#00FFFF"/>
<rect x="163" y="1" width="54" height="54" stroke="#00FFFF"/>
<rect x="217" y="1" width="54" height="54" stroke="#00FFFF"/>
<rect x="271" y="1" width="54" height="54" stroke="#00FFFF"/>
<rect x="325" y="1" width="54" height="54" stroke="#00FFFF"/>
<rect x="379" y="1" width="54" height="54" stroke="#00FFFF"/>
</svg>
