<svg width="812" height="812" viewBox="0 0 812 812" fill="none" xmlns="http://www.w3.org/2000/svg">
<path d="M154.499 683.292L155.788 681.554C155.846 681.476 155.809 681.365 155.719 681.33C154.764 680.958 154.189 680.103 154.189 679.001C154.189 677.339 155.354 676.285 157.14 676.285H159.298C160.173 676.285 160.514 676.626 160.514 677.507V683.906C160.514 684.477 160.21 684.812 159.683 684.812C159.15 684.812 158.84 684.477 158.84 683.906V681.814C158.84 681.737 158.777 681.674 158.7 681.674H157.624C157.578 681.674 157.534 681.697 157.508 681.736L155.813 684.272C155.54 684.657 155.28 684.83 154.927 684.83C154.474 684.83 154.133 684.514 154.133 684.08C154.133 683.795 154.232 683.603 154.499 683.292ZM157.401 680.372H158.7C158.777 680.372 158.84 680.309 158.84 680.232V677.746C158.84 677.669 158.777 677.606 158.7 677.606H157.401C156.427 677.606 155.888 678.102 155.888 678.989C155.888 679.882 156.433 680.372 157.401 680.372Z" fill="#FF00FF"/>
<path d="M213.899 684.811C213.366 684.811 213.062 684.476 213.062 683.906V681.443C213.062 681.34 212.956 681.271 212.862 681.314C212.399 681.527 211.695 681.655 211.053 681.655C209.156 681.655 208.083 680.589 208.083 678.698V677.129C208.083 676.559 208.393 676.224 208.92 676.224C209.447 676.224 209.757 676.559 209.757 677.129V678.617C209.757 679.714 210.303 680.266 211.375 680.266C211.931 680.266 212.611 680.115 212.987 679.908C213.033 679.883 213.062 679.835 213.062 679.783V677.129C213.062 676.559 213.366 676.224 213.899 676.224C214.432 676.224 214.736 676.559 214.736 677.129V683.906C214.736 684.476 214.432 684.811 213.899 684.811Z" fill="#FF00FF"/>
<path d="M262.114 681.035V679.95C262.114 677.55 263.41 676.124 265.649 676.124C266.722 676.124 267.64 676.453 268.241 677.048C268.656 677.457 268.911 677.966 268.911 678.344C268.911 678.766 268.625 679.039 268.216 679.039C267.919 679.039 267.708 678.921 267.441 678.592C266.97 677.885 266.455 677.563 265.742 677.563C264.496 677.563 263.795 678.456 263.795 680.018V680.98C263.795 682.604 264.483 683.491 265.742 683.491C266.461 683.491 267.026 683.169 267.472 682.474C267.739 682.145 267.925 682.034 268.21 682.034C268.638 682.034 268.917 682.307 268.917 682.722C268.917 683.169 268.601 683.714 268.105 684.13C267.509 684.644 266.672 684.93 265.649 684.93C263.385 684.93 262.114 683.516 262.114 681.035Z" fill="#FF00FF"/>
<path d="M316.095 684.813C315.611 684.813 315.357 684.509 315.357 683.926V677.296C315.357 676.62 315.729 676.211 316.337 676.211C316.87 676.211 317.193 676.465 317.484 677.228L319.373 681.899C319.421 682.016 319.586 682.016 319.633 681.899L321.515 677.222C321.813 676.453 322.117 676.211 322.669 676.211C323.283 676.211 323.643 676.608 323.643 677.296V683.926C323.643 684.497 323.37 684.813 322.874 684.813C322.378 684.813 322.136 684.509 322.136 683.926V679.698C322.136 679.544 321.925 679.503 321.867 679.645L320.368 683.33C320.132 683.913 319.884 684.099 319.5 684.099C319.116 684.099 318.861 683.901 318.632 683.33L317.134 679.645C317.076 679.503 316.864 679.544 316.864 679.698V683.926C316.864 684.497 316.591 684.813 316.095 684.813Z" fill="#FF00FF"/>
<path d="M370.059 683.906V677.111C370.059 676.559 370.344 676.224 370.859 676.224C371.374 676.224 371.671 676.553 371.671 677.111V681.779C371.671 681.921 371.858 681.975 371.933 681.854L374.964 676.993C375.324 676.41 375.596 676.224 376.061 676.224C376.625 676.224 376.941 676.565 376.941 677.166V683.925C376.941 684.477 376.637 684.812 376.123 684.812C375.609 684.812 375.329 684.483 375.329 683.925V679.257C375.329 679.115 375.142 679.061 375.067 679.182L372.037 684.042C371.677 684.619 371.386 684.811 370.909 684.811C370.351 684.811 370.06 684.495 370.06 683.906H370.059Z" fill="#FF00FF"/>
<path d="M427.5 684.812C426.979 684.812 426.663 684.477 426.663 683.919V677.833C426.663 677.756 426.6 677.693 426.523 677.693H424.871C424.455 677.693 424.151 677.395 424.151 676.992C424.151 676.583 424.455 676.285 424.871 676.285H430.135C430.557 676.285 430.855 676.577 430.855 676.992C430.855 677.401 430.557 677.693 430.135 677.693H428.477C428.4 677.693 428.337 677.756 428.337 677.833V683.919C428.337 684.471 428.015 684.812 427.5 684.812Z" fill="#FF00FF"/>
<path d="M480.328 677.129V678.973C480.328 679.051 480.391 679.113 480.468 679.113H482.021C483.751 679.113 484.898 680.217 484.898 681.91C484.898 683.622 483.751 684.75 482.04 684.75H479.77C479.02 684.75 478.654 684.397 478.654 683.677V677.129C478.654 676.558 478.958 676.224 479.491 676.224C480.018 676.224 480.328 676.558 480.328 677.129ZM481.717 683.423C482.654 683.423 483.193 682.871 483.193 681.935C483.193 680.992 482.647 680.44 481.717 680.44H480.468C480.391 680.44 480.328 680.503 480.328 680.58V683.283C480.328 683.361 480.391 683.423 480.468 683.423H481.717Z" fill="#FF00FF"/>
<path d="M535.99 684.75H533.757C533.007 684.75 532.641 684.396 532.641 683.677V677.358C532.641 676.645 533.007 676.285 533.757 676.285H537.428C537.844 676.285 538.135 676.57 538.135 676.98C538.135 677.389 537.844 677.668 537.428 677.668H534.455C534.378 677.668 534.315 677.731 534.315 677.808V679.351C534.315 679.428 534.378 679.491 534.455 679.491H535.977C537.701 679.491 538.848 680.514 538.848 682.089C538.848 683.696 537.701 684.75 535.99 684.75ZM534.315 683.277C534.315 683.354 534.378 683.417 534.455 683.417H535.723C536.622 683.417 537.143 682.927 537.143 682.102C537.143 681.271 536.622 680.781 535.723 680.781H534.455C534.378 680.781 534.315 680.844 534.315 680.921V683.277Z" fill="#FF00FF"/>
<path d="M591.063 684.93C588.884 684.93 587.685 683.598 587.553 681.251C587.549 681.176 587.487 681.116 587.412 681.116H586.515C586.437 681.116 586.375 681.179 586.375 681.256V683.906C586.375 684.477 586.071 684.812 585.544 684.812C585.01 684.812 584.7 684.477 584.7 683.906V677.129C584.7 676.558 585.004 676.223 585.537 676.223C586.064 676.223 586.375 676.558 586.375 677.129V679.593C586.375 679.67 586.437 679.733 586.515 679.733H587.413C587.488 679.733 587.549 679.674 587.554 679.599C587.699 677.463 588.985 676.124 591.075 676.124C593.326 676.124 594.634 677.637 594.634 680.006V681.091C594.634 683.435 593.326 684.93 591.063 684.93ZM589.184 679.994V681.11C589.184 682.648 589.897 683.528 591.069 683.528C592.241 683.528 592.954 682.641 592.954 681.11V679.994C592.954 678.449 592.228 677.525 591.069 677.525C589.909 677.525 589.184 678.443 589.184 679.994Z" fill="#FF00FF"/>
<path d="M129.687 629.987C129.687 629.911 129.626 629.849 129.55 629.846C127.218 629.748 125.923 628.534 125.923 626.533V626.44C125.923 624.384 127.23 623.182 129.55 623.089C129.626 623.086 129.687 623.024 129.687 622.948V622.849C129.749 622.409 130.041 622.161 130.494 622.161C130.949 622.161 131.246 622.412 131.311 622.84C131.312 622.846 131.312 622.853 131.312 622.859V622.948C131.312 623.024 131.374 623.086 131.45 623.089C133.77 623.182 135.076 624.384 135.076 626.403V626.49C135.076 628.533 133.764 629.759 131.45 629.853C131.374 629.856 131.312 629.918 131.312 629.994V630.142C131.263 630.607 130.959 630.886 130.494 630.886C130.029 630.886 129.731 630.607 129.687 630.142V629.987ZM127.56 626.533C127.56 627.743 128.243 628.438 129.57 628.506C129.648 628.51 129.712 628.447 129.712 628.369V624.561C129.712 624.483 129.648 624.419 129.57 624.423C128.254 624.494 127.56 625.224 127.56 626.44V626.533ZM133.439 626.403C133.439 625.181 132.74 624.492 131.43 624.423C131.352 624.419 131.287 624.483 131.287 624.561V628.374C131.287 628.453 131.352 628.516 131.431 628.512C132.734 628.435 133.439 627.717 133.439 626.49V626.403Z" fill="#FF00FF"/>
<path d="M184.506 630.812C183.973 630.812 183.663 630.477 183.663 629.907V623.129C183.663 622.558 183.967 622.224 184.5 622.224C185.027 622.224 185.337 622.558 185.337 623.129V629.907C185.337 630.477 185.034 630.812 184.506 630.812Z" fill="#FF00FF"/>
<path d="M237.161 629.35C237.161 629.428 237.224 629.492 237.303 629.492H238.402C239.723 629.492 240.263 629.07 240.263 628.264C240.263 627.458 239.73 626.974 238.75 626.974H237.304C237.226 626.974 237.162 627.037 237.162 627.116V629.351L237.161 629.35ZM237.161 625.666C237.161 625.744 237.224 625.808 237.303 625.808H238.265C239.388 625.808 239.884 625.392 239.884 624.654C239.884 623.966 239.425 623.544 238.644 623.544H237.303C237.225 623.544 237.161 623.607 237.161 623.686V625.666ZM235.499 629.678V623.358C235.499 622.645 235.865 622.285 236.615 622.285H239.028C240.566 622.285 241.534 623.091 241.534 624.369C241.534 625.149 241.17 625.776 240.542 626.095C240.43 626.152 240.442 626.317 240.562 626.355C241.427 626.623 241.967 627.381 241.967 628.364C241.967 629.815 240.813 630.752 239.021 630.752H236.615C235.865 630.752 235.499 630.398 235.499 629.679V629.678Z" fill="#FF00FF"/>
<path d="M291.429 627.145C291.4 627.235 291.468 627.327 291.562 627.327H293.407C293.502 627.327 293.569 627.236 293.541 627.146L292.623 624.202C292.583 624.071 292.397 624.071 292.356 624.201L291.429 627.145ZM289.653 630.824C289.194 630.824 288.878 630.545 288.878 630.123C288.878 629.956 288.921 629.763 289.027 629.447L291.166 623.333C291.427 622.546 291.811 622.217 292.512 622.217C293.213 622.217 293.591 622.539 293.858 623.333L295.985 629.447C296.078 629.714 296.121 629.918 296.121 630.092C296.121 630.538 295.805 630.824 295.321 630.824C294.875 630.824 294.614 630.588 294.44 630.012L294.001 628.67C293.982 628.612 293.928 628.573 293.868 628.573H291.101C291.04 628.573 290.987 628.612 290.968 628.669L290.522 630.012C290.348 630.595 290.106 630.824 289.653 630.824Z" fill="#FF00FF"/>
<path d="M349.892 623.383V629.906C349.892 630.477 349.588 630.812 349.055 630.812C348.522 630.812 348.211 630.477 348.211 629.906V623.808C348.211 623.731 348.149 623.668 348.071 623.668H344.922C344.845 623.668 344.782 623.731 344.782 623.808V629.906C344.782 630.477 344.472 630.812 343.945 630.812C343.412 630.812 343.108 630.477 343.108 629.906V623.383C343.108 622.663 343.499 622.285 344.249 622.285H348.745C349.495 622.285 349.892 622.663 349.892 623.383Z" fill="#FF00FF"/>
<path d="M398.497 630.812C397.97 630.812 397.666 630.477 397.666 629.906V623.507C397.666 622.626 398.001 622.285 398.875 622.285H401.015C402.776 622.285 403.911 623.389 403.911 625.063C403.911 626.812 402.763 627.848 400.946 627.848H399.48C399.403 627.848 399.34 627.91 399.34 627.988V629.906C399.34 630.477 399.03 630.812 398.497 630.812ZM399.34 626.405C399.34 626.483 399.403 626.545 399.48 626.545H400.413C401.715 626.545 402.242 626.167 402.242 625.088C402.242 624.158 401.722 623.625 400.804 623.625H399.48C399.403 623.625 399.34 623.687 399.34 623.765V626.405Z" fill="#FF00FF"/>
<path d="M450.903 627.11V626.006C450.903 623.594 452.255 622.124 454.5 622.124C456.757 622.124 458.097 623.594 458.097 626.006V627.11C458.097 629.491 456.757 630.93 454.5 630.93C452.23 630.93 450.903 629.491 450.903 627.11ZM452.578 626V627.104C452.578 628.629 453.303 629.528 454.5 629.528C455.697 629.528 456.422 628.629 456.422 627.104V626C456.422 624.456 455.697 623.525 454.5 623.525C453.303 623.525 452.578 624.456 452.578 626Z" fill="#FF00FF"/>
<path d="M505.356 630.917C505.096 630.917 504.866 630.843 504.705 630.712C504.538 630.588 504.451 630.402 504.451 630.191C504.451 629.949 504.583 629.617 505.158 629.416C505.733 629.215 505.927 628.449 505.983 625.435L506.02 623.358C506.032 622.632 506.386 622.285 507.13 622.285H510.609C511.359 622.285 511.725 622.645 511.725 623.358V629.906C511.725 630.476 511.415 630.811 510.888 630.811C510.361 630.811 510.051 630.476 510.051 629.906V623.81C510.051 623.732 509.988 623.668 509.909 623.668H507.697C507.62 623.668 507.557 623.73 507.555 623.807L507.514 625.783C507.446 629.522 506.844 630.917 505.356 630.917Z" fill="#FF00FF"/>
<path d="M564.013 629.224V623.809C564.013 623.731 563.95 623.667 563.871 623.667H561.458C561.382 623.667 561.319 623.727 561.316 623.803L561.247 625.589C561.189 627.69 561.048 628.586 560.717 629.149C560.661 629.245 560.727 629.365 560.838 629.365H563.871C563.949 629.365 564.013 629.302 564.013 629.223V629.224ZM558.153 631.794V630.408C558.153 629.848 558.314 629.568 558.751 629.392C558.834 629.359 558.912 629.311 558.976 629.249C559.483 628.761 559.659 627.826 559.734 625.367L559.796 623.358C559.821 622.633 560.174 622.285 560.918 622.285H564.539C565.289 622.285 565.661 622.645 565.661 623.358V629.232C565.661 629.305 565.72 629.365 565.793 629.367C566.413 629.381 566.721 629.691 566.721 630.284V631.809C566.721 632.276 566.433 632.55 565.97 632.547C565.561 632.545 565.226 632.203 565.226 631.794V630.891C565.226 630.813 565.163 630.749 565.084 630.749H559.789C559.711 630.749 559.647 630.812 559.647 630.891V631.81C559.647 632.277 559.359 632.551 558.896 632.548C558.488 632.544 558.153 632.202 558.153 631.794Z" fill="#FF00FF"/>
<path d="M617.312 629.919C617.312 630.471 616.996 630.812 616.5 630.812C616.004 630.812 615.688 630.477 615.688 629.919V627.368C615.688 627.237 615.525 627.176 615.439 627.275L612.848 630.26C612.507 630.657 612.265 630.812 611.924 630.812C611.471 630.812 611.155 630.508 611.155 630.062C611.155 629.82 611.254 629.628 611.57 629.256L614.077 626.413C614.125 626.358 614.124 626.276 614.074 626.223L611.639 623.613C611.391 623.346 611.31 623.185 611.31 622.95C611.31 622.54 611.626 622.23 612.048 622.23C612.315 622.23 612.494 622.329 612.773 622.645L615.441 625.586C615.528 625.682 615.688 625.62 615.688 625.491V623.117C615.688 622.559 615.992 622.224 616.5 622.224C617.008 622.224 617.312 622.565 617.312 623.117V625.491C617.312 625.621 617.472 625.682 617.559 625.586L620.227 622.645C620.519 622.322 620.693 622.23 620.948 622.23C621.345 622.23 621.675 622.557 621.678 622.954C621.68 623.188 621.606 623.337 621.349 623.612L618.925 626.209C618.875 626.262 618.874 626.345 618.922 626.399L621.441 629.26C621.757 629.632 621.838 629.818 621.838 630.06C621.838 630.506 621.528 630.81 621.075 630.81C620.734 630.81 620.492 630.655 620.151 630.258L617.56 627.273C617.474 627.174 617.311 627.235 617.311 627.366V629.917L617.312 629.919Z" fill="#FF00FF"/>
<path d="M670.673 629.497C671.451 629.497 672.027 629.167 672.433 628.475C672.482 628.392 672.534 628.31 672.598 628.238C672.795 628.017 672.972 627.935 673.226 627.934C673.615 627.934 673.927 628.243 673.928 628.632C673.929 629.154 673.594 629.738 673.054 630.16C672.446 630.65 671.665 630.929 670.66 630.929C668.373 630.93 667.089 629.46 667.089 627.06V626.006C667.089 623.619 668.397 622.124 670.642 622.124C671.628 622.124 672.564 622.434 673.166 622.992C673.631 623.419 673.911 623.954 673.904 624.417C673.898 624.802 673.563 625.109 673.178 625.1C672.928 625.094 672.743 625.005 672.565 624.814C672.503 624.748 672.454 624.671 672.408 624.593C672.029 623.946 671.361 623.537 670.655 623.537C669.562 623.537 668.887 624.311 668.801 625.656C668.801 625.662 668.801 625.669 668.8 625.676C668.796 625.757 668.861 625.825 668.942 625.825H671.257C671.648 625.825 671.921 626.048 671.921 626.451C671.921 626.854 671.642 627.115 671.257 627.115H668.937C668.859 627.115 668.795 627.178 668.795 627.257V627.277C668.838 628.716 669.508 629.497 670.674 629.497H670.673Z" fill="#FF00FF"/>
<path fill-rule="evenodd" clip-rule="evenodd" d="M115.487 565.6C115.233 565.6 115.022 565.774 115.022 566.084C115.022 566.412 115.227 566.76 115.518 567.02C115.872 567.343 116.405 567.529 117.031 567.529C117.713 567.529 118.24 567.312 118.569 566.983C118.83 566.723 119.016 566.388 119.016 566.084C119.016 565.786 118.817 565.6 118.551 565.6C118.302 565.6 118.185 565.755 118.085 565.954C117.887 566.375 117.577 566.679 117.025 566.679C116.479 566.679 116.169 566.381 115.94 565.916C115.834 565.712 115.698 565.6 115.487 565.6ZM113.559 569.111V575.906H113.56C113.56 576.495 113.851 576.811 114.409 576.811C114.886 576.811 115.177 576.619 115.537 576.042L118.567 571.182C118.642 571.061 118.829 571.115 118.829 571.257V575.925C118.829 576.483 119.109 576.812 119.623 576.812C120.137 576.812 120.441 576.477 120.441 575.925V569.166C120.441 568.565 120.125 568.224 119.561 568.224C119.096 568.224 118.824 568.41 118.464 568.993L115.433 573.854C115.358 573.975 115.171 573.921 115.171 573.779V569.111C115.171 568.553 114.874 568.224 114.359 568.224C113.844 568.224 113.559 568.559 113.559 569.111Z" fill="#FF00FF"/>
<path d="M175.279 577.811C175.279 578.276 174.993 578.549 174.535 578.549C174.069 578.549 173.784 578.27 173.784 577.811V576.89C173.784 576.813 173.721 576.75 173.644 576.75H168.513C167.763 576.75 167.397 576.397 167.397 575.677V569.129C167.397 568.558 167.701 568.224 168.234 568.224C168.761 568.224 169.071 568.558 169.071 569.129V575.227C169.071 575.305 169.134 575.367 169.211 575.367H172.398C172.475 575.367 172.538 575.305 172.538 575.227V569.129C172.538 568.558 172.842 568.224 173.375 568.224C173.908 568.224 174.218 568.558 174.218 569.129V575.227C174.218 575.305 174.281 575.367 174.358 575.367H174.367C174.975 575.367 175.279 575.684 175.279 576.36V577.811Z" fill="#FF00FF"/>
<path d="M223.232 576.841C222.872 576.841 222.581 576.76 222.383 576.612C222.197 576.476 222.092 576.271 222.092 576.029C222.092 575.688 222.352 575.428 222.724 575.428C222.811 575.428 222.91 575.434 223.09 575.434C223.525 575.434 223.865 575.202 224.158 574.698C224.204 574.619 224.209 574.522 224.169 574.44L221.85 569.624C221.701 569.352 221.645 569.159 221.645 568.949C221.645 568.508 221.961 568.217 222.408 568.217C222.786 568.217 223.022 568.403 223.264 568.918L224.961 572.546C225.013 572.657 225.171 572.654 225.219 572.542L226.785 568.924C227.002 568.428 227.256 568.217 227.634 568.217C228.056 568.217 228.366 568.508 228.366 568.924C228.366 569.116 228.304 569.327 228.149 569.649L225.948 574.423C225.105 576.19 224.373 576.841 223.232 576.841Z" fill="#FF00FF"/>
<path d="M277.661 575.909C277.661 576.486 277.363 576.815 276.836 576.815C276.309 576.815 275.986 576.48 275.986 575.909V569.13C275.986 568.559 276.29 568.224 276.823 568.224C277.356 568.224 277.66 568.559 277.66 569.13V571.502C277.66 571.63 277.816 571.692 277.904 571.6L280.712 568.646C281.003 568.33 281.176 568.231 281.429 568.23C281.828 568.229 282.162 568.559 282.163 568.958C282.163 569.19 282.084 569.339 281.828 569.613L279.286 572.208C279.233 572.262 279.232 572.348 279.283 572.403L281.914 575.25C282.237 575.616 282.317 575.808 282.317 576.056C282.317 576.496 282.001 576.813 281.554 576.813C281.194 576.813 280.971 576.658 280.624 576.255L277.906 573.263C277.819 573.167 277.659 573.229 277.659 573.358V575.907L277.661 575.909Z" fill="#FF00FF"/>
<path d="M330.402 575.677V569.358C330.402 568.645 330.768 568.285 331.518 568.285H335.264C335.685 568.285 335.971 568.564 335.971 568.973C335.971 569.383 335.685 569.656 335.264 569.656H332.204C332.126 569.656 332.064 569.718 332.064 569.796V571.686C332.064 571.763 332.126 571.826 332.204 571.826H335.09C335.487 571.826 335.753 572.08 335.753 572.471C335.753 572.862 335.487 573.11 335.09 573.11H332.204C332.126 573.11 332.064 573.172 332.064 573.25V575.239C332.064 575.317 332.126 575.379 332.204 575.379H335.245C335.685 575.379 335.971 575.652 335.971 576.068C335.971 576.483 335.685 576.75 335.245 576.75H331.518C330.768 576.75 330.402 576.396 330.402 575.677Z" fill="#FF00FF"/>
<path d="M389.611 576.812C389.084 576.812 388.773 576.477 388.773 575.907V573.256C388.773 573.179 388.711 573.116 388.633 573.116H385.36C385.283 573.116 385.22 573.179 385.22 573.256V575.907C385.22 576.477 384.91 576.812 384.383 576.812C383.85 576.812 383.546 576.477 383.546 575.907V569.129C383.546 568.558 383.85 568.224 384.383 568.224C384.91 568.224 385.22 568.558 385.22 569.129V571.6C385.22 571.677 385.283 571.74 385.36 571.74H388.633C388.711 571.74 388.773 571.677 388.773 571.6V569.129C388.773 568.558 389.084 568.224 389.611 568.224C390.144 568.224 390.454 568.558 390.454 569.129V575.907C390.454 576.477 390.144 576.812 389.611 576.812Z" fill="#FF00FF"/>
<path d="M439.425 576.812C438.904 576.812 438.588 576.477 438.588 575.919V569.358C438.588 568.645 438.954 568.285 439.704 568.285H443.357C443.772 568.285 444.064 568.577 444.064 568.98C444.064 569.383 443.772 569.668 443.357 569.668H440.402C440.325 569.668 440.262 569.731 440.262 569.808V575.919C440.262 576.471 439.94 576.812 439.425 576.812Z" fill="#FF00FF"/>
<path d="M498.956 576.75H491.038C490.287 576.75 489.921 576.397 489.921 575.677V569.129C489.921 568.558 490.225 568.224 490.759 568.224C491.286 568.224 491.596 568.558 491.596 569.129V575.227C491.596 575.305 491.658 575.367 491.736 575.367H494.017C494.094 575.367 494.157 575.305 494.157 575.227V569.129C494.157 568.558 494.467 568.224 494.994 568.224C495.527 568.224 495.837 568.558 495.837 569.129V575.227C495.837 575.305 495.9 575.367 495.977 575.367H498.258C498.336 575.367 498.398 575.305 498.398 575.227V569.129C498.398 568.558 498.702 568.224 499.236 568.224C499.769 568.224 500.073 568.558 500.073 569.129V575.677C500.073 576.397 499.707 576.75 498.956 576.75Z" fill="#FF00FF"/>
<path d="M543.729 575.677V569.129C543.729 568.558 544.033 568.224 544.566 568.224C545.093 568.224 545.403 568.558 545.403 569.129V575.227C545.403 575.305 545.466 575.367 545.543 575.367H547.824C547.902 575.367 547.964 575.305 547.964 575.227V569.129C547.964 568.558 548.274 568.224 548.802 568.224C549.335 568.224 549.645 568.558 549.645 569.129V575.227C549.645 575.305 549.708 575.367 549.785 575.367H552.066C552.143 575.367 552.206 575.305 552.206 575.227V569.129C552.206 568.558 552.51 568.224 553.043 568.224C553.576 568.224 553.88 568.558 553.88 569.129V575.287C553.88 575.331 553.916 575.367 553.961 575.367V575.367C554.643 575.367 554.947 575.708 554.947 576.36V577.811C554.947 578.332 554.6 578.549 554.197 578.549C553.806 578.549 553.452 578.338 553.452 577.811V576.89C553.452 576.813 553.39 576.75 553.312 576.75H544.845C544.095 576.75 543.729 576.397 543.729 575.677Z" fill="#FF00FF"/>
<path d="M599.844 574.981C599.844 574.566 600.123 574.28 600.52 574.28C600.787 574.28 601.01 574.416 601.214 574.708C601.505 575.235 602.107 575.595 602.944 575.595C603.979 575.595 604.612 575.118 604.612 574.312C604.612 573.506 604.004 573.041 602.963 573.041H602.431C602.061 573.041 601.749 572.743 601.754 572.372C601.759 572.001 602.031 571.751 602.411 571.751H602.969C603.812 571.751 604.376 571.28 604.376 570.567C604.376 569.897 603.787 569.445 602.944 569.445C602.2 569.445 601.661 569.761 601.344 570.319C601.177 570.567 600.953 570.691 600.656 570.691C600.247 570.691 599.968 570.412 599.968 570.021C599.968 569.073 601.313 568.124 602.944 568.124C604.723 568.124 605.976 569.042 605.976 570.393C605.976 571.175 605.558 571.844 604.9 572.143C604.783 572.196 604.791 572.362 604.912 572.405C605.7 572.688 606.237 573.419 606.237 574.354C606.237 575.885 604.904 576.927 602.889 576.927C601.203 576.927 599.845 576.022 599.845 574.98L599.844 574.981Z" fill="#FF00FF"/>
<path d="M653.62 576.054C653.62 575.868 653.694 575.694 653.887 575.422L655.907 572.564C655.941 572.515 655.941 572.45 655.906 572.402L653.899 569.6C653.713 569.352 653.632 569.16 653.632 568.961C653.632 568.527 653.98 568.205 654.451 568.205C654.78 568.205 654.953 568.335 655.319 568.856L656.934 571.264C656.99 571.347 657.113 571.346 657.168 571.262L658.735 568.856C659.07 568.348 659.256 568.205 659.591 568.205C660.05 568.205 660.391 568.527 660.391 568.961C660.391 569.153 660.317 569.327 660.124 569.593L658.064 572.466C658.028 572.516 658.029 572.583 658.065 572.632L660.149 575.421C660.335 575.663 660.409 575.855 660.409 576.053C660.409 576.487 660.062 576.809 659.591 576.809C659.269 576.809 659.12 576.697 658.723 576.158L657.085 573.816C657.029 573.735 656.909 573.736 656.854 573.818L655.276 576.158C654.91 576.679 654.743 576.809 654.42 576.809C653.955 576.809 653.62 576.487 653.62 576.053V576.054Z" fill="#FF00FF"/>
<path d="M709.282 566.921C709.282 566.549 709.549 566.27 709.902 566.27C710.268 566.27 710.566 566.549 710.566 566.921C710.566 567.287 710.268 567.56 709.902 567.56C709.549 567.56 709.282 567.287 709.282 566.921ZM711.44 566.921C711.44 566.549 711.719 566.27 712.073 566.27C712.445 566.27 712.724 566.549 712.724 566.921C712.724 567.287 712.445 567.56 712.073 567.56C711.719 567.56 711.44 567.287 711.44 566.921ZM711.012 576.812C710.473 576.812 710.163 576.477 710.163 575.907V569.129C710.163 568.558 710.473 568.223 711 568.223C711.533 568.223 711.843 568.558 711.843 569.129V575.907C711.843 576.477 711.539 576.812 711.012 576.812Z" fill="#FF00FF"/>
<path d="M791.349 560.226C791.256 560.548 790.983 560.747 790.648 560.747C790.245 560.747 789.929 560.424 789.941 560.04C789.941 559.953 789.96 559.848 789.978 559.798L792.657 550.298C792.744 549.975 793.017 549.777 793.352 549.777C793.761 549.777 794.071 550.099 794.065 550.484C794.059 550.577 794.04 550.676 794.022 550.732L791.349 560.226Z" fill="#FF00FF"/>
<path d="M35.3736 519.361L35.2619 517.519C35.2309 517.097 35.5348 516.75 35.9937 516.75C36.4464 516.75 36.744 517.103 36.7192 517.519L36.6076 519.361C36.5828 519.714 36.3223 520.012 35.9875 520.012C35.6526 520.012 35.3922 519.714 35.3736 519.361Z" fill="#FF00FF"/>
<path d="M39.2176 500.541L32.7967 500.541C32.5599 500.541 32.3483 500.714 32.3259 500.95C32.3001 501.22 32.5121 501.448 32.7773 501.448L33.0754 501.448C33.1866 501.448 33.2525 501.569 33.1954 501.664C33.0466 501.913 32.9685 502.195 32.9685 502.473C32.9685 503.769 34.1776 504.767 36.0129 504.767C37.2282 504.767 38.2698 504.352 38.7597 503.484C38.8775 503.298 38.9519 503.112 38.9519 502.876C38.9519 502.517 38.6667 502.262 38.3008 502.262C37.9598 502.262 37.78 502.411 37.6126 502.653C37.2654 503.23 36.8003 503.49 36.0315 503.49C35.1014 503.49 34.5 503 34.5 502.374C34.5 502.058 34.6012 501.756 34.8544 501.524C34.9072 501.475 34.976 501.448 35.0476 501.448C35.6137 501.448 38.3687 501.448 39.1986 501.448C39.4355 501.448 39.6466 501.275 39.669 501.039C39.6948 500.769 39.4828 500.541 39.2176 500.541ZM32.7773 499.783L39.1982 499.783C39.435 499.783 39.6465 499.61 39.669 499.374C39.6948 499.104 39.4828 498.876 39.2176 498.876L38.8759 498.876C38.7685 498.876 38.7014 498.762 38.7519 498.667C38.8622 498.46 38.9209 498.233 38.9209 498.003C38.9209 496.558 37.5816 495.733 35.9571 495.733C34.934 495.733 33.9109 496.043 33.4025 496.918C33.2785 497.11 33.2103 497.302 33.2103 497.525C33.2103 497.873 33.4707 498.133 33.8613 498.133C34.1403 498.133 34.3388 498.034 34.5248 497.749C34.8348 497.234 35.337 497.011 35.9509 497.011C36.7321 497.011 37.3956 497.389 37.3956 498.121C37.3956 498.361 37.3165 498.604 37.1489 498.788C37.0964 498.845 37.0204 498.876 36.9425 498.876L32.7967 498.876C32.5599 498.876 32.3483 499.049 32.3259 499.285C32.3001 499.556 32.5121 499.783 32.7773 499.783Z" fill="#FF00FF"/>
<path d="M156.849 398.226C156.756 398.548 156.483 398.747 156.148 398.747C155.745 398.747 155.429 398.424 155.441 398.04C155.441 397.953 155.46 397.848 155.478 397.798L158.157 388.298C158.244 387.975 158.517 387.777 158.852 387.777C159.261 387.777 159.571 388.099 159.565 388.484C159.559 388.577 159.54 388.676 159.522 388.732L156.849 398.226Z" fill="#FF00FF"/>
<path d="M104.824 406.286C104.901 406.286 104.964 406.223 104.964 406.146V405.225C104.964 404.766 105.249 404.487 105.714 404.487C106.173 404.487 106.458 404.76 106.458 405.225V406.596C106.458 407.315 106.086 407.669 105.342 407.669H102.902C102.825 407.669 102.762 407.731 102.762 407.809V413.919C102.762 414.471 102.44 414.812 101.925 414.812C101.404 414.812 101.088 414.477 101.088 413.919V407.358C101.088 406.645 101.454 406.286 102.204 406.286H104.824Z" fill="#FF00FF"/>
<path d="M307.324 190.286C307.401 190.286 307.464 190.223 307.464 190.146V189.225C307.464 188.766 307.749 188.487 308.214 188.487C308.673 188.487 308.958 188.76 308.958 189.225V190.596C308.958 191.315 308.586 191.669 307.842 191.669H305.402C305.325 191.669 305.262 191.731 305.262 191.809V197.919C305.262 198.471 304.94 198.812 304.425 198.812C303.904 198.812 303.588 198.477 303.588 197.919V191.358C303.588 190.645 303.954 190.286 304.704 190.286H307.324Z" fill="#FF00FF"/>
<rect x="743.5" y="703" width="67.5" height="54" stroke="#00FFFF"/>
<rect x="676" y="703" width="67.5" height="54" stroke="#00FFFF"/>
<rect x="608.5" y="703" width="67.5" height="54" stroke="#00FFFF"/>
<rect x="541" y="703" width="67.5" height="54" stroke="#00FFFF"/>
<rect x="136" y="703" width="67.5" height="54" stroke="#00FFFF"/>
<rect x="68.5" y="703" width="67.5" height="54" stroke="#00FFFF"/>
<rect x="1" y="703" width="67.5" height="54" stroke="#00FFFF"/>
<rect x="662.5" y="649" width="148.5" height="54" stroke="#00FFFF"/>
<rect x="1" y="649" width="121.5" height="54" stroke="#00FFFF"/>
<rect x="689.5" y="595" width="121.5" height="54" stroke="#00FFFF"/>
<rect x="1" y="595" width="94.5" height="54" stroke="#00FFFF"/>
<rect x="1" y="541" width="81" height="54" stroke="#00FFFF"/>
<rect x="703" y="487" width="108" height="54" stroke="#00FFFF"/>
<rect x="608.5" y="649" width="54" height="54" stroke="#00FFFF"/>
<rect x="554.5" y="649" width="54" height="54" stroke="#00FFFF"/>
<rect x="500.5" y="649" width="54" height="54" stroke="#00FFFF"/>
<rect x="446.5" y="649" width="54" height="54" stroke="#00FFFF"/>
<rect x="392.5" y="649" width="54" height="54" stroke="#00FFFF"/>
<rect x="338.5" y="649" width="54" height="54" stroke="#00FFFF"/>
<rect x="284.5" y="649" width="54" height="54" stroke="#00FFFF"/>
<rect x="230.5" y="649" width="54" height="54" stroke="#00FFFF"/>
<rect x="176.5" y="649" width="54" height="54" stroke="#00FFFF"/>
<rect x="122.5" y="649" width="54" height="54" stroke="#00FFFF"/>
<rect x="635.5" y="595" width="54" height="54" stroke="#00FFFF"/>
<rect x="581.5" y="595" width="54" height="54" stroke="#00FFFF"/>
<rect x="527.5" y="595" width="54" height="54" stroke="#00FFFF"/>
<rect x="473.5" y="595" width="54" height="54" stroke="#00FFFF"/>
<rect x="419.5" y="595" width="54" height="54" stroke="#00FFFF"/>
<rect x="365.5" y="595" width="54" height="54" stroke="#00FFFF"/>
<rect x="311.5" y="595" width="54" height="54" stroke="#00FFFF"/>
<rect x="257.5" y="595" width="54" height="54" stroke="#00FFFF"/>
<rect x="203.5" y="595" width="54" height="54" stroke="#00FFFF"/>
<rect x="149.5" y="595" width="54" height="54" stroke="#00FFFF"/>
<rect x="95.5" y="595" width="54" height="54" stroke="#00FFFF"/>
<rect x="730" y="541" width="81" height="54" stroke="#00FFFF"/>
<rect x="676" y="541" width="54" height="54" stroke="#00FFFF"/>
<rect x="622" y="541" width="54" height="54" stroke="#00FFFF"/>
<rect x="568" y="541" width="54" height="54" stroke="#00FFFF"/>
<rect x="514" y="541" width="54" height="54" stroke="#00FFFF"/>
<rect x="460" y="541" width="54" height="54" stroke="#00FFFF"/>
<rect x="406" y="541" width="54" height="54" stroke="#00FFFF"/>
<rect x="352" y="541" width="54" height="54" stroke="#00FFFF"/>
<rect x="298" y="541" width="54" height="54" stroke="#00FFFF"/>
<rect x="244" y="541" width="54" height="54" stroke="#00FFFF"/>
<rect x="190" y="541" width="54" height="54" stroke="#00FFFF"/>
<rect x="136" y="541" width="54" height="54" stroke="#00FFFF"/>
<rect x="82" y="541" width="54" height="54" stroke="#00FFFF"/>
<rect x="55" y="487" width="54" height="54" stroke="#00FFFF"/>
<rect x="109" y="487" width="54" height="54" stroke="#00FFFF"/>
<rect x="163" y="487" width="54" height="54" stroke="#00FFFF"/>
<rect x="217" y="487" width="54" height="54" stroke="#00FFFF"/>
<rect x="271" y="487" width="54" height="54" stroke="#00FFFF"/>
<rect x="325" y="487" width="54" height="54" stroke="#00FFFF"/>
<rect x="379" y="487" width="54" height="54" stroke="#00FFFF"/>
<rect x="433" y="487" width="54" height="54" stroke="#00FFFF"/>
<rect x="487" y="487" width="54" height="54" stroke="#00FFFF"/>
<rect x="541" y="487" width="54" height="54" stroke="#00FFFF"/>
<rect x="595" y="487" width="54" height="54" stroke="#00FFFF"/>
<rect x="649" y="487" width="54" height="54" stroke="#00FFFF"/>
<rect x="1" y="487" width="54" height="54" stroke="#00FFFF"/>
<rect x="217" y="433" width="54" height="54" stroke="#00FFFF"/>
<rect x="163" y="433" width="54" height="54" stroke="#00FFFF"/>
<rect x="109" y="433" width="54" height="54" stroke="#00FFFF"/>
<rect x="55" y="433" width="54" height="54" stroke="#00FFFF"/>
<rect x="433" y="433" width="54" height="54" stroke="#00FFFF"/>
<rect x="379" y="433" width="54" height="54" stroke="#00FFFF"/>
<rect x="325" y="433" width="54" height="54" stroke="#00FFFF"/>
<rect x="271" y="433" width="54" height="54" stroke="#00FFFF"/>
<rect x="649" y="433" width="54" height="54" stroke="#00FFFF"/>
<rect x="595" y="433" width="54" height="54" stroke="#00FFFF"/>
<rect x="541" y="433" width="54" height="54" stroke="#00FFFF"/>
<rect x="487" y="433" width="54" height="54" stroke="#00FFFF"/>
<rect x="541" y="379" width="54" height="54" stroke="#00FFFF"/>
<rect x="487" y="379" width="54" height="54" stroke="#00FFFF"/>
<rect x="433" y="379" width="54" height="54" stroke="#00FFFF"/>
<rect x="487" y="325" width="54" height="54" stroke="#00FFFF"/>
<rect x="703" y="379" width="54" height="54" stroke="#00FFFF"/>
<rect x="595" y="379" width="108" height="54" stroke="#00FFFF"/>
<rect x="757" y="325" width="54" height="108" stroke="#00FFFF"/>
<rect x="703" y="325" width="54" height="54" stroke="#00FFFF"/>
<rect x="649" y="325" width="54" height="54" stroke="#00FFFF"/>
<rect x="595" y="325" width="54" height="54" stroke="#00FFFF"/>
<rect x="703" y="271" width="54" height="54" stroke="#00FFFF"/>
<rect x="595" y="271" width="54" height="54" stroke="#00FFFF"/>
<rect x="757" y="217" width="54" height="108" stroke="#00FFFF"/>
<rect x="703" y="217" width="54" height="54" stroke="#00FFFF"/>
<rect x="649" y="217" width="54" height="54" stroke="#00FFFF"/>
<rect x="595" y="217" width="54" height="54" stroke="#00FFFF"/>
<rect x="757" y="163" width="54" height="54" stroke="#00FFFF"/>
<rect x="703" y="163" width="54" height="54" stroke="#00FFFF"/>
<rect x="649" y="163" width="54" height="54" stroke="#00FFFF"/>
<rect x="595" y="163" width="54" height="54" stroke="#00FFFF"/>
<rect x="649" y="271" width="54" height="54" stroke="#00FFFF"/>
<rect x="541" y="163" width="54" height="54" stroke="#00FFFF"/>
<rect x="487" y="163" width="54" height="54" stroke="#00FFFF"/>
<rect x="433" y="163" width="54" height="54" stroke="#00FFFF"/>
<rect x="541" y="217" width="54" height="54" stroke="#00FFFF"/>
<rect x="487" y="217" width="54" height="54" stroke="#00FFFF"/>
<rect x="433" y="217" width="54" height="54" stroke="#00FFFF"/>
<rect x="541" y="271" width="54" height="54" stroke="#00FFFF"/>
<rect x="487" y="271" width="54" height="54" stroke="#00FFFF"/>
<rect x="433" y="271" width="54" height="54" stroke="#00FFFF"/>
<rect x="595" y="757" width="81" height="54" stroke="#00FFFF"/>
<rect x="676" y="757" width="54" height="54" stroke="#00FFFF"/>
<rect x="730" y="757" width="81" height="54" stroke="#00FFFF"/>
<rect x="136" y="757" width="81" height="54" stroke="#00FFFF"/>
<rect x="82" y="757" width="54" height="54" stroke="#00FFFF"/>
<rect x="1" y="757" width="81" height="54" stroke="#00FFFF"/>
<rect x="1" y="433" width="54" height="54" stroke="#00FFFF"/>
<rect x="757" y="433" width="54" height="54" stroke="#00FFFF"/>
<rect x="703" y="433" width="54" height="54" stroke="#00FFFF"/>
<rect x="541" y="325" width="54" height="54" stroke="#00FFFF"/>
<rect x="433" y="325" width="54" height="54" stroke="#00FFFF"/>
<rect x="379" y="325" width="54" height="54" stroke="#00FFFF"/>
<rect x="379" y="379" width="54" height="54" stroke="#00FFFF"/>
<rect x="298" y="379" width="81" height="54" stroke="#00FFFF"/>
<rect x="298" y="325" width="81" height="54" stroke="#00FFFF"/>
<rect x="217" y="325" width="81" height="108" stroke="#00FFFF"/>
<rect x="176.5" y="379" width="54" height="54" stroke="#00FFFF"/>
<rect x="122.5" y="379" width="54" height="54" stroke="#00FFFF"/>
<rect x="68.5" y="379" width="54" height="54" stroke="#00FFFF"/>
<rect x="1" y="379" width="67.5" height="54" stroke="#00FFFF"/>
<rect x="109" y="325" width="54" height="54" stroke="#00FFFF"/>
<rect x="55" y="325" width="54" height="54" stroke="#00FFFF"/>
<rect x="1" y="325" width="54" height="54" stroke="#00FFFF"/>
<rect x="163" y="325" width="54" height="54" stroke="#00FFFF"/>
<rect x="271" y="271" width="94.5" height="54" stroke="#00FFFF"/>
<rect x="365.5" y="271" width="67.5" height="54" stroke="#00FFFF"/>
<rect x="217" y="271" width="54" height="54" stroke="#00FFFF"/>
<rect x="163" y="271" width="54" height="54" stroke="#00FFFF"/>
<rect x="95.5" y="271" width="67.5" height="54" stroke="#00FFFF"/>
<rect x="1" y="271" width="94.5" height="54" stroke="#00FFFF"/>
<rect x="379" y="163" width="54" height="54" stroke="#00FFFF"/>
<rect x="271" y="163" width="54" height="54" stroke="#00FFFF"/>
<rect x="163" y="163" width="108" height="54" stroke="#00FFFF"/>
<rect x="95.5" y="163" width="67.5" height="54" stroke="#00FFFF"/>
<rect x="217" y="217" width="54" height="54" stroke="#00FFFF"/>
<rect x="163" y="217" width="54" height="54" stroke="#00FFFF"/>
<rect x="95.5" y="217" width="67.5" height="54" stroke="#00FFFF"/>
<rect x="1" y="217" width="94.5" height="54" stroke="#00FFFF"/>
<rect x="1" y="163" width="94.5" height="54" stroke="#00FFFF"/>
<rect x="730" y="55" width="81" height="108" stroke="#00FFFF"/>
<rect x="635.5" y="109" width="54" height="54" stroke="#00FFFF"/>
<rect x="554.5" y="109" width="81" height="54" stroke="#00FFFF"/>
<rect x="446.5" y="109" width="108" height="54" stroke="#00FFFF"/>
<rect x="311.5" y="109" width="81" height="54" stroke="#00FFFF"/>
<rect x="257.5" y="109" width="54" height="54" stroke="#00FFFF"/>
<rect x="163" y="109" width="94.5" height="54" stroke="#00FFFF"/>
<rect x="82" y="109" width="81" height="54" stroke="#00FFFF"/>
<rect x="1" y="109" width="81" height="54" stroke="#00FFFF"/>
<rect x="635.5" y="55" width="94.5" height="54" stroke="#00FFFF"/>
<rect x="527.5" y="55" width="54" height="54" stroke="#00FFFF"/>
<rect x="473.5" y="55" width="54" height="54" stroke="#00FFFF"/>
<rect x="392.5" y="55" width="81" height="54" stroke="#00FFFF"/>
<rect x="1" y="1" width="54" height="54" stroke="#00FFFF"/>
<rect x="55" y="1" width="54" height="54" stroke="#00FFFF"/>
<rect x="109" y="1" width="54" height="54" stroke="#00FFFF"/>
<rect x="163" y="1" width="54" height="54" stroke="#00FFFF"/>
<rect x="217" y="1" width="54" height="54" stroke="#00FFFF"/>
<rect x="271" y="1" width="54" height="54" stroke="#00FFFF"/>
<rect x="325" y="1" width="54" height="54" stroke="#00FFFF"/>
<rect x="379" y="1" width="54" height="54" stroke="#00FFFF"/>
</svg>
