<svg width="812" height="811" viewBox="0 0 812 811" fill="none" xmlns="http://www.w3.org/2000/svg">
<path d="M704.583 727.208V723.086C704.583 722.71 704.803 722.471 705.164 722.471C705.371 722.471 705.54 722.551 705.646 722.692C705.671 722.726 705.693 722.765 705.711 722.802C705.745 722.872 705.83 722.902 705.9 722.868C706.167 722.739 706.786 722.476 707.401 722.476C708.544 722.476 709.194 723.208 709.194 724.405V727.208C709.194 727.619 708.945 727.848 708.588 727.848C708.232 727.848 707.978 727.619 707.978 727.208V724.649C707.978 723.917 707.636 723.506 706.942 723.506C706.249 723.506 705.799 724.009 705.799 724.752V727.208C705.799 727.619 705.545 727.848 705.189 727.848C704.832 727.848 704.583 727.619 704.583 727.208Z" fill="#FF00FF"/>
<path d="M702.202 725.832C702.202 726.457 701.645 726.916 700.962 726.916C700.435 726.916 700.078 726.647 700.078 726.222C700.078 725.798 700.415 725.549 701.001 725.51L702.149 725.44C702.178 725.438 702.202 725.46 702.202 725.489V725.832L702.202 725.832ZM701.284 722.468C700.293 722.468 699.721 722.808 699.429 723.135C699.26 723.325 699.238 723.725 699.47 723.91C699.742 724.127 700.196 723.965 700.352 723.773C700.493 723.6 700.807 723.425 701.235 723.42C701.835 723.412 702.202 723.732 702.202 724.274V724.477C702.202 724.503 702.181 724.525 702.155 724.526L700.83 724.602C699.57 724.68 698.862 725.353 698.862 726.271C698.862 727.189 699.592 727.833 700.591 727.833C701.222 727.833 701.838 727.668 702.145 727.543C702.209 727.517 702.283 727.541 702.319 727.601C702.322 727.605 702.324 727.609 702.326 727.612C702.408 727.728 702.554 727.848 702.812 727.848C703.154 727.848 703.403 727.628 703.403 727.238V724.186C703.403 723.146 702.568 722.468 701.284 722.468Z" fill="#FF00FF"/>
<path d="M713.5 725.832C713.5 726.457 712.944 726.916 712.26 726.916C711.733 726.916 711.377 726.647 711.377 726.222C711.377 725.798 711.713 725.549 712.299 725.51L713.448 725.44C713.476 725.438 713.5 725.46 713.5 725.489V725.832L713.5 725.832ZM712.582 722.468C711.591 722.468 711.02 722.808 710.727 723.135C710.558 723.325 710.536 723.725 710.769 723.91C711.04 724.127 711.495 723.965 711.651 723.773C711.791 723.6 712.106 723.425 712.533 723.42C713.134 723.412 713.5 723.732 713.5 724.274V724.477C713.5 724.503 713.48 724.525 713.453 724.526L712.128 724.602C710.869 724.68 710.161 725.353 710.161 726.271C710.161 727.189 710.891 727.833 711.889 727.833C712.521 727.833 713.137 727.668 713.443 727.543C713.508 727.517 713.581 727.541 713.617 727.601C713.62 727.605 713.623 727.609 713.625 727.612C713.706 727.728 713.853 727.848 714.111 727.848C714.452 727.848 714.701 727.628 714.701 727.238V724.186C714.701 723.146 713.866 722.468 712.582 722.468Z" fill="#FF00FF"/>
<path d="M693.25 727.833C692.859 727.833 692.62 727.594 692.62 727.179V721.275C692.62 720.86 692.859 720.621 693.25 720.621C693.641 720.621 693.88 720.86 693.88 721.275V723.623C693.88 723.751 694.038 723.813 694.126 723.719L696.756 720.88C696.927 720.694 697.078 720.616 697.283 720.616C697.62 720.616 697.869 720.87 697.869 721.192C697.869 721.363 697.811 721.495 697.664 721.651L695.632 723.772C695.582 723.824 695.579 723.905 695.625 723.961L697.874 726.681C698.045 726.891 698.118 727.067 698.118 727.233C698.118 727.574 697.854 727.838 697.513 727.838C697.264 727.838 697.093 727.745 696.897 727.501L694.714 724.833C694.66 724.767 694.56 724.763 694.501 724.826L693.957 725.403C693.907 725.455 693.88 725.525 693.88 725.597V727.179C693.88 727.594 693.645 727.833 693.25 727.833L693.25 727.833Z" fill="#FF00FF"/>
<path d="M637.166 727.75C636.775 727.75 636.536 727.506 636.536 727.096V721.358C636.536 720.948 636.775 720.704 637.166 720.704H640.598C640.945 720.704 641.174 720.909 641.174 721.236C641.174 721.563 640.945 721.769 640.598 721.769H637.937C637.859 721.769 637.796 721.832 637.796 721.91V723.531C637.796 723.609 637.859 723.673 637.937 723.673H640.452C640.774 723.673 640.994 723.863 640.994 724.171C640.994 724.479 640.779 724.674 640.452 724.674H637.937C637.859 724.674 637.796 724.737 637.796 724.816V726.544C637.796 726.622 637.859 726.686 637.937 726.686H640.598C640.945 726.686 641.174 726.891 641.174 727.218C641.174 727.545 640.945 727.75 640.598 727.75H637.166V727.75Z" fill="#FF00FF"/>
<path d="M628.386 727.833C628.03 727.833 627.82 727.613 627.82 727.242V721.422C627.82 720.924 628.128 720.621 628.631 720.621C629.065 720.621 629.314 720.807 629.5 721.275L631.326 725.748C631.374 725.865 631.541 725.865 631.589 725.748L633.411 721.275C633.596 720.811 633.85 720.621 634.29 720.621C634.793 720.621 635.091 720.919 635.091 721.422V727.242C635.091 727.613 634.881 727.833 634.524 727.833C634.168 727.833 633.958 727.613 633.958 727.242V723.382C633.958 723.227 633.744 723.185 633.685 723.328L632.054 727.281C631.931 727.574 631.751 727.706 631.458 727.706C631.165 727.706 630.979 727.574 630.862 727.286L629.231 723.329C629.171 723.185 628.958 723.228 628.958 723.383V727.242C628.958 727.613 628.743 727.833 628.386 727.833Z" fill="#FF00FF"/>
<path d="M625.75 727.833C625.359 727.833 625.12 727.594 625.12 727.179V721.275C625.12 720.86 625.359 720.621 625.75 720.621C626.141 720.621 626.38 720.86 626.38 721.275V727.179C626.38 727.594 626.146 727.833 625.75 727.833Z" fill="#FF00FF"/>
<path d="M109.358 725.832C109.358 726.457 108.801 726.916 108.118 726.916C107.591 726.916 107.234 726.647 107.234 726.222C107.234 725.798 107.571 725.549 108.157 725.51L109.305 725.44C109.334 725.438 109.358 725.46 109.358 725.489V725.832L109.358 725.832ZM108.44 722.468C107.449 722.468 106.877 722.808 106.585 723.135C106.416 723.325 106.394 723.725 106.626 723.91C106.898 724.127 107.352 723.965 107.508 723.773C107.649 723.6 107.963 723.425 108.391 723.42C108.991 723.412 109.358 723.732 109.358 724.274V724.477C109.358 724.503 109.337 724.525 109.311 724.526L107.986 724.602C106.726 724.68 106.018 725.353 106.018 726.271C106.018 727.189 106.748 727.833 107.747 727.833C108.378 727.833 108.994 727.668 109.301 727.543C109.365 727.517 109.439 727.541 109.475 727.601C109.478 727.605 109.48 727.609 109.482 727.612C109.564 727.728 109.71 727.848 109.968 727.848C110.31 727.848 110.559 727.628 110.559 727.238V724.186C110.559 723.146 109.724 722.468 108.44 722.468Z" fill="#FF00FF"/>
<path d="M100.378 727.208V721.231C100.378 720.845 100.607 720.605 100.978 720.605C101.35 720.605 101.579 720.845 101.579 721.231V722.706C101.579 722.809 101.686 722.878 101.78 722.835C102.075 722.701 102.655 722.476 103.239 722.476C104.382 722.476 105.051 723.228 105.051 724.415V727.208C105.051 727.618 104.797 727.848 104.441 727.848C104.084 727.848 103.835 727.618 103.835 727.208V724.664C103.835 723.941 103.474 723.506 102.771 723.506C102.067 723.506 101.594 724.014 101.594 724.776V727.208C101.594 727.618 101.345 727.848 100.988 727.848C100.632 727.848 100.378 727.618 100.378 727.208Z" fill="#FF00FF"/>
<path d="M96.8428 726.837C96.0858 726.837 95.5828 726.177 95.5779 725.162C95.5828 724.156 96.0566 723.487 96.8428 723.487C97.629 723.487 98.1174 724.141 98.1174 725.162C98.1174 726.187 97.5998 726.837 96.8428 726.837ZM99.3627 725.162C99.3627 723.506 98.5276 722.485 97.2138 722.485C96.7278 722.485 95.9577 722.729 95.6568 722.831C95.5893 722.854 95.5146 722.825 95.4829 722.761C95.4749 722.744 95.4666 722.728 95.4562 722.713C95.3369 722.543 95.1612 722.471 94.9625 722.471C94.6157 722.471 94.3716 722.695 94.3716 723.096V728.952C94.3716 729.362 94.6206 729.591 94.9772 729.591C95.3338 729.591 95.5877 729.362 95.5877 728.952V727.593C95.5877 727.491 95.6936 727.422 95.7872 727.464C96.1491 727.627 96.7518 727.833 97.2335 727.833C98.5325 727.833 99.3628 726.812 99.3628 725.162L99.3627 725.162Z" fill="#FF00FF"/>
<path d="M92.532 727.848C92.1756 727.848 91.9216 727.618 91.9216 727.208V721.246C91.9216 720.836 92.1755 720.606 92.532 720.606C92.8885 720.606 93.1375 720.836 93.1375 721.246V727.208C93.1375 727.618 92.8885 727.848 92.532 727.848Z" fill="#FF00FF"/>
<path d="M90.8086 726.866L88.7578 721.3C88.5821 720.826 88.2989 720.621 87.835 720.621C87.3711 720.621 87.0928 720.836 86.9219 721.305L84.876 726.866C84.8174 727.018 84.793 727.154 84.793 727.252C84.793 727.608 85.042 727.833 85.4278 727.833C85.755 727.833 85.9405 727.672 86.0577 727.291L86.4885 726.048C86.5083 725.991 86.562 725.953 86.6224 725.953H89.0523C89.1128 725.953 89.1666 725.992 89.1863 726.049L89.6173 727.301C89.7296 727.677 89.92 727.833 90.2618 727.833C90.628 727.833 90.8917 727.594 90.8917 727.252C90.8917 727.14 90.8673 727.027 90.8087 726.866H90.8086ZM86.8806 724.771L87.6935 722.304C87.7362 722.174 87.9195 722.174 87.9626 722.304L88.7836 724.771C88.8141 724.862 88.7458 724.957 88.6491 724.957H87.0152C86.9187 724.957 86.8504 724.863 86.8806 724.771Z" fill="#FF00FF"/>
<path d="M120.682 779.832C120.682 780.457 120.126 780.916 119.442 780.916C118.915 780.916 118.558 780.647 118.558 780.222C118.558 779.798 118.895 779.549 119.481 779.51L120.629 779.44C120.658 779.438 120.682 779.46 120.682 779.489V779.832L120.682 779.832ZM119.764 776.468C118.773 776.468 118.201 776.808 117.909 777.135C117.74 777.325 117.718 777.725 117.95 777.91C118.222 778.127 118.676 777.965 118.833 777.773C118.973 777.6 119.288 777.425 119.715 777.42C120.316 777.412 120.682 777.732 120.682 778.274V778.477C120.682 778.503 120.661 778.525 120.635 778.526L119.31 778.602C118.05 778.68 117.343 779.353 117.343 780.271C117.343 781.189 118.072 781.833 119.071 781.833C119.703 781.833 120.319 781.668 120.625 781.543C120.689 781.517 120.763 781.541 120.799 781.601C120.802 781.605 120.804 781.609 120.806 781.612C120.888 781.728 121.034 781.848 121.292 781.848C121.634 781.848 121.883 781.628 121.883 781.238V778.186C121.883 777.146 121.048 776.468 119.764 776.468Z" fill="#FF00FF"/>
<path d="M111.702 781.208V775.231C111.702 774.845 111.931 774.605 112.303 774.605C112.674 774.605 112.903 774.845 112.903 775.231V776.706C112.903 776.809 113.01 776.878 113.104 776.835C113.399 776.701 113.98 776.476 114.564 776.476C115.706 776.476 116.376 777.228 116.376 778.415V781.208C116.376 781.618 116.122 781.848 115.765 781.848C115.409 781.848 115.16 781.618 115.16 781.208V778.664C115.16 777.941 114.798 777.506 114.095 777.506C113.392 777.506 112.918 778.014 112.918 778.776V781.208C112.918 781.618 112.669 781.848 112.312 781.848C111.956 781.848 111.702 781.618 111.702 781.208Z" fill="#FF00FF"/>
<path d="M108.167 780.837C107.41 780.837 106.907 780.177 106.902 779.162C106.907 778.156 107.381 777.487 108.167 777.487C108.953 777.487 109.442 778.141 109.442 779.162C109.442 780.187 108.924 780.837 108.167 780.837ZM110.687 779.162C110.687 777.506 109.852 776.485 108.538 776.485C108.052 776.485 107.282 776.729 106.981 776.831C106.914 776.854 106.839 776.825 106.807 776.761C106.799 776.744 106.791 776.728 106.78 776.713C106.661 776.543 106.485 776.471 106.287 776.471C105.94 776.471 105.696 776.695 105.696 777.096V782.952C105.696 783.362 105.945 783.591 106.301 783.591C106.658 783.591 106.912 783.362 106.912 782.952V781.593C106.912 781.491 107.018 781.422 107.111 781.464C107.473 781.627 108.076 781.833 108.558 781.833C109.857 781.833 110.687 780.812 110.687 779.162L110.687 779.162Z" fill="#FF00FF"/>
<path d="M103.856 781.848C103.5 781.848 103.246 781.618 103.246 781.208V775.246C103.246 774.836 103.5 774.606 103.856 774.606C104.213 774.606 104.462 774.836 104.462 775.246V781.208C104.462 781.618 104.213 781.848 103.856 781.848Z" fill="#FF00FF"/>
<path d="M102.133 780.866L100.082 775.3C99.9063 774.826 99.6231 774.621 99.1592 774.621C98.6953 774.621 98.417 774.836 98.2461 775.305L96.2002 780.866C96.1416 781.018 96.1172 781.154 96.1172 781.252C96.1172 781.608 96.3662 781.833 96.752 781.833C97.0792 781.833 97.2647 781.672 97.3819 781.291L97.8127 780.048C97.8325 779.991 97.8862 779.953 97.9466 779.953H100.376C100.437 779.953 100.491 779.992 100.51 780.049L100.941 781.301C101.054 781.677 101.244 781.833 101.586 781.833C101.952 781.833 102.216 781.594 102.216 781.252C102.216 781.14 102.191 781.027 102.133 780.866H102.133ZM98.2048 778.771L99.0177 776.304C99.0604 776.174 99.2437 776.174 99.2868 776.304L100.108 778.771C100.138 778.862 100.07 778.957 99.9733 778.957H98.3394C98.2429 778.957 98.1746 778.863 98.2048 778.771Z" fill="#FF00FF"/>
<path d="M190.922 349.207V345.085C190.922 344.709 191.142 344.47 191.504 344.47C191.71 344.47 191.879 344.55 191.985 344.691C192.01 344.725 192.032 344.764 192.05 344.801C192.084 344.871 192.169 344.901 192.24 344.867C192.506 344.738 193.125 344.475 193.74 344.475C194.883 344.475 195.533 345.207 195.533 346.404V349.207C195.533 349.618 195.284 349.847 194.927 349.847C194.571 349.847 194.317 349.618 194.317 349.207V346.648C194.317 345.916 193.975 345.505 193.281 345.505C192.588 345.505 192.139 346.008 192.139 346.751V349.207C192.139 349.618 191.885 349.847 191.528 349.847C191.172 349.847 190.922 349.618 190.922 349.207Z" fill="#FF00FF"/>
<path d="M188.541 347.831C188.541 348.456 187.985 348.915 187.301 348.915C186.774 348.915 186.417 348.647 186.417 348.222C186.417 347.797 186.754 347.548 187.34 347.509L188.488 347.439C188.517 347.437 188.541 347.46 188.541 347.489V347.831L188.541 347.831ZM187.623 344.467C186.632 344.467 186.061 344.808 185.768 345.135C185.599 345.325 185.577 345.724 185.809 345.91C186.081 346.127 186.535 345.964 186.692 345.772C186.832 345.6 187.147 345.425 187.574 345.419C188.175 345.411 188.541 345.732 188.541 346.274V346.476C188.541 346.503 188.52 346.524 188.494 346.526L187.169 346.601C185.91 346.679 185.202 347.353 185.202 348.27C185.202 349.188 185.932 349.833 186.93 349.833C187.562 349.833 188.178 349.668 188.484 349.542C188.548 349.516 188.622 349.541 188.658 349.6C188.661 349.605 188.663 349.609 188.665 349.611C188.747 349.727 188.893 349.847 189.151 349.847C189.493 349.847 189.742 349.628 189.742 349.237V346.186C189.742 345.146 188.907 344.467 187.623 344.467Z" fill="#FF00FF"/>
<path d="M199.839 347.831C199.839 348.456 199.283 348.915 198.599 348.915C198.072 348.915 197.716 348.647 197.716 348.222C197.716 347.797 198.053 347.548 198.638 347.509L199.787 347.439C199.815 347.437 199.839 347.46 199.839 347.489V347.831L199.839 347.831ZM198.922 344.467C197.931 344.467 197.359 344.808 197.067 345.135C196.897 345.325 196.876 345.724 197.108 345.91C197.379 346.127 197.834 345.964 197.99 345.772C198.13 345.6 198.445 345.425 198.873 345.419C199.473 345.411 199.839 345.732 199.839 346.274V346.476C199.839 346.503 199.819 346.524 199.793 346.526L198.467 346.601C197.208 346.679 196.5 347.353 196.5 348.27C196.5 349.188 197.23 349.833 198.228 349.833C198.86 349.833 199.476 349.668 199.782 349.542C199.847 349.516 199.92 349.541 199.957 349.6C199.959 349.605 199.962 349.609 199.964 349.611C200.045 349.727 200.192 349.847 200.45 349.847C200.792 349.847 201.04 349.628 201.04 349.237V346.186C201.04 345.146 200.206 344.467 198.922 344.467Z" fill="#FF00FF"/>
<path d="M179.589 349.833C179.199 349.833 178.959 349.593 178.959 349.178V343.275C178.959 342.86 179.199 342.621 179.589 342.621C179.98 342.621 180.219 342.86 180.219 343.275V345.622C180.219 345.751 180.377 345.813 180.465 345.718L183.095 342.879C183.266 342.694 183.417 342.616 183.622 342.616C183.959 342.616 184.208 342.87 184.208 343.192C184.208 343.363 184.15 343.495 184.003 343.651L181.971 345.772C181.921 345.824 181.919 345.905 181.964 345.96L184.213 348.68C184.384 348.89 184.457 349.066 184.457 349.232C184.457 349.574 184.193 349.838 183.852 349.838C183.603 349.838 183.432 349.745 183.236 349.501L181.053 346.833C180.999 346.766 180.899 346.763 180.841 346.825L180.296 347.402C180.246 347.455 180.219 347.524 180.219 347.597V349.178C180.219 349.593 179.984 349.833 179.589 349.833L179.589 349.833Z" fill="#FF00FF"/>
<path d="M563.212 79.208V73.2306C563.212 72.8448 563.441 72.6055 563.812 72.6055C564.184 72.6055 564.413 72.8448 564.413 73.2306V74.7063C564.413 74.8095 564.52 74.8781 564.614 74.8353C564.909 74.7007 565.489 74.4759 566.073 74.4759C567.216 74.4759 567.885 75.228 567.885 76.4147V79.2081C567.885 79.6183 567.631 79.8478 567.275 79.8478C566.918 79.8478 566.669 79.6183 566.669 79.2081V76.6638C566.669 75.941 566.308 75.5064 565.605 75.5064C564.901 75.5064 564.428 76.0143 564.428 76.7761V79.2081C564.428 79.6183 564.179 79.8478 563.822 79.8478C563.466 79.8478 563.212 79.6182 563.212 79.208Z" fill="#FF00FF"/>
<path d="M559.956 78.4705V75.6542C559.956 75.5759 559.892 75.5125 559.814 75.5125H559.629C559.326 75.5125 559.14 75.3416 559.14 75.0486C559.14 74.7556 559.326 74.5896 559.629 74.5896H559.814C559.892 74.5896 559.956 74.5261 559.956 74.4479V73.8849C559.956 73.4942 560.19 73.25 560.566 73.25C560.942 73.25 561.172 73.4941 561.172 73.8849V74.4479C561.172 74.5262 561.235 74.5896 561.313 74.5896H561.733C562.036 74.5896 562.222 74.7604 562.222 75.0486C562.222 75.3368 562.036 75.5125 561.733 75.5125H561.313C561.235 75.5125 561.172 75.576 561.172 75.6542V78.2068C561.172 78.5975 561.308 78.7684 561.66 78.7977L561.748 78.8075C562.07 78.8368 562.236 78.9735 562.236 79.2568C562.236 79.6132 561.924 79.8038 561.367 79.8038H561.318C560.415 79.8038 559.956 79.3545 559.956 78.4706H559.956L559.956 78.4705Z" fill="#FF00FF"/>
<path d="M555.753 75.482C556.51 75.482 557.013 76.1413 557.017 77.1571C557.013 78.1631 556.539 78.8322 555.753 78.8322C554.966 78.8322 554.478 78.1778 554.478 77.1571C554.478 76.1315 554.996 75.482 555.753 75.482ZM553.233 77.1572C553.233 78.8128 554.068 79.8334 555.382 79.8334C555.868 79.8334 556.638 79.5894 556.939 79.4874C557.006 79.4645 557.081 79.4942 557.112 79.5582C557.12 79.5745 557.129 79.5907 557.139 79.6055C557.259 79.776 557.434 79.848 557.633 79.848C557.98 79.848 558.224 79.6234 558.224 79.2229V73.2453C558.224 72.835 557.975 72.6055 557.618 72.6055C557.262 72.6055 557.008 72.835 557.008 73.2453V74.7254C557.008 74.8281 556.902 74.897 556.808 74.8548C556.446 74.6919 555.844 74.4857 555.362 74.4857C554.063 74.4857 553.233 75.5064 553.233 77.1571V77.1572Z" fill="#FF00FF"/>
<path d="M551.617 74.4717C551.246 74.4717 551.012 74.7207 551.012 75.1114V79.2081C551.012 79.6036 551.246 79.8478 551.617 79.8478C551.988 79.8478 552.228 79.6037 552.228 79.2081V75.1163C552.228 74.7208 551.988 74.4718 551.617 74.4718V74.4717ZM551.617 73.8467C551.998 73.8467 552.296 73.5537 552.296 73.1875C552.296 72.8213 551.998 72.5283 551.617 72.5283C551.236 72.5283 550.943 72.8164 550.943 73.1875C550.943 73.5586 551.241 73.8467 551.617 73.8467Z" fill="#FF00FF"/>
<path d="M543.468 79.8331C543.077 79.8331 542.863 79.6427 542.741 79.2032L541.178 73.5879C541.134 73.4316 541.115 73.2998 541.115 73.1875C541.115 72.8408 541.359 72.6211 541.735 72.6211C542.062 72.6211 542.267 72.8018 542.345 73.1484L543.41 77.576C543.444 77.7189 543.647 77.7215 543.685 77.5796L544.855 73.2168C544.962 72.7969 545.167 72.6211 545.538 72.6211C545.91 72.6211 546.105 72.8066 546.212 73.2022L547.383 77.5788C547.421 77.7208 547.623 77.7182 547.657 77.5753L548.722 73.1485C548.8 72.7969 549.005 72.6212 549.332 72.6212C549.708 72.6212 549.952 72.8409 549.952 73.1876C549.952 73.295 549.933 73.4269 549.889 73.588L548.322 79.2082C548.204 79.6428 547.99 79.8332 547.604 79.8332C547.198 79.8332 546.984 79.6525 546.862 79.2082L545.67 75.0433C545.63 74.9063 545.436 74.9063 545.397 75.0433L544.205 79.2082C544.088 79.6477 543.863 79.8332 543.468 79.8332L543.468 79.8331Z" fill="#FF00FF"/>
<path d="M501.57 79.8672C500.564 79.8672 499.778 79.3887 499.47 78.6074C499.402 78.417 499.363 78.2607 499.363 78.0556C499.363 77.6845 499.592 77.4501 499.949 77.4501C500.266 77.4501 500.452 77.6064 500.554 77.9628C500.701 78.4804 501.052 78.7636 501.555 78.7636C502.229 78.7636 502.595 78.3534 502.595 77.5917V73.2754C502.595 72.8604 502.83 72.6211 503.225 72.6211C503.621 72.6211 503.85 72.8604 503.85 73.2754V77.6016C503.85 79.0372 503 79.8672 501.57 79.8672Z" fill="#FF00FF"/>
<path d="M496.236 80.6387C495.909 80.6387 495.709 80.4385 495.709 80.1602C495.709 80.0771 495.724 79.9941 495.738 79.9404L497.965 72.2744C498.058 71.9619 498.224 71.8154 498.517 71.8154C498.829 71.8154 499.039 72.0156 499.039 72.3135C499.039 72.3818 499.034 72.4404 499.015 72.5137L496.778 80.209C496.69 80.4971 496.52 80.6387 496.236 80.6387Z" fill="#FF00FF"/>
<path d="M490.75 79.7501C490.359 79.7501 490.12 79.506 490.12 79.0958V73.3584C490.12 72.9482 490.359 72.7041 490.75 72.7041H494.183C494.529 72.7041 494.759 72.9092 494.759 73.2363C494.759 73.5634 494.529 73.7685 494.183 73.7685H491.522C491.443 73.7685 491.38 73.832 491.38 73.9102V75.5311C491.38 75.6094 491.444 75.6728 491.522 75.6728H494.036C494.359 75.6728 494.578 75.8632 494.578 76.1709C494.578 76.4786 494.363 76.6738 494.036 76.6738H491.522C491.443 76.6738 491.38 76.7373 491.38 76.8155V78.5438C491.38 78.6221 491.444 78.6855 491.522 78.6855H494.183C494.529 78.6855 494.759 78.8906 494.759 79.2177C494.759 79.5448 494.529 79.7499 494.183 79.7499H490.75V79.7501Z" fill="#FF00FF"/>
<rect x="743.5" y="702" width="67.5" height="54" stroke="#00FFFF"/>
<rect x="676" y="702" width="67.5" height="54" stroke="#00FFFF"/>
<rect x="608.5" y="702" width="67.5" height="54" stroke="#00FFFF"/>
<rect x="541" y="702" width="67.5" height="54" stroke="#00FFFF"/>
<rect x="136" y="702" width="67.5" height="54" stroke="#00FFFF"/>
<rect x="68.5" y="702" width="67.5" height="54" stroke="#00FFFF"/>
<rect x="1" y="702" width="67.5" height="54" stroke="#00FFFF"/>
<rect x="662.5" y="648" width="148.5" height="54" stroke="#00FFFF"/>
<rect x="1" y="648" width="121.5" height="54" stroke="#00FFFF"/>
<rect x="689.5" y="594" width="121.5" height="54" stroke="#00FFFF"/>
<rect x="1" y="594" width="94.5" height="54" stroke="#00FFFF"/>
<rect x="1" y="540" width="81" height="54" stroke="#00FFFF"/>
<rect x="703" y="486" width="108" height="54" stroke="#00FFFF"/>
<rect x="608.5" y="648" width="54" height="54" stroke="#00FFFF"/>
<rect x="554.5" y="648" width="54" height="54" stroke="#00FFFF"/>
<rect x="500.5" y="648" width="54" height="54" stroke="#00FFFF"/>
<rect x="446.5" y="648" width="54" height="54" stroke="#00FFFF"/>
<rect x="392.5" y="648" width="54" height="54" stroke="#00FFFF"/>
<rect x="338.5" y="648" width="54" height="54" stroke="#00FFFF"/>
<rect x="284.5" y="648" width="54" height="54" stroke="#00FFFF"/>
<rect x="230.5" y="648" width="54" height="54" stroke="#00FFFF"/>
<rect x="176.5" y="648" width="54" height="54" stroke="#00FFFF"/>
<rect x="122.5" y="648" width="54" height="54" stroke="#00FFFF"/>
<rect x="635.5" y="594" width="54" height="54" stroke="#00FFFF"/>
<rect x="581.5" y="594" width="54" height="54" stroke="#00FFFF"/>
<rect x="527.5" y="594" width="54" height="54" stroke="#00FFFF"/>
<rect x="473.5" y="594" width="54" height="54" stroke="#00FFFF"/>
<rect x="419.5" y="594" width="54" height="54" stroke="#00FFFF"/>
<rect x="365.5" y="594" width="54" height="54" stroke="#00FFFF"/>
<rect x="311.5" y="594" width="54" height="54" stroke="#00FFFF"/>
<rect x="257.5" y="594" width="54" height="54" stroke="#00FFFF"/>
<rect x="203.5" y="594" width="54" height="54" stroke="#00FFFF"/>
<rect x="149.5" y="594" width="54" height="54" stroke="#00FFFF"/>
<rect x="95.5" y="594" width="54" height="54" stroke="#00FFFF"/>
<rect x="730" y="540" width="81" height="54" stroke="#00FFFF"/>
<rect x="676" y="540" width="54" height="54" stroke="#00FFFF"/>
<rect x="622" y="540" width="54" height="54" stroke="#00FFFF"/>
<rect x="568" y="540" width="54" height="54" stroke="#00FFFF"/>
<rect x="514" y="540" width="54" height="54" stroke="#00FFFF"/>
<rect x="460" y="540" width="54" height="54" stroke="#00FFFF"/>
<rect x="406" y="540" width="54" height="54" stroke="#00FFFF"/>
<rect x="352" y="540" width="54" height="54" stroke="#00FFFF"/>
<rect x="298" y="540" width="54" height="54" stroke="#00FFFF"/>
<rect x="244" y="540" width="54" height="54" stroke="#00FFFF"/>
<rect x="190" y="540" width="54" height="54" stroke="#00FFFF"/>
<rect x="136" y="540" width="54" height="54" stroke="#00FFFF"/>
<rect x="82" y="540" width="54" height="54" stroke="#00FFFF"/>
<rect x="55" y="486" width="54" height="54" stroke="#00FFFF"/>
<rect x="109" y="486" width="54" height="54" stroke="#00FFFF"/>
<rect x="163" y="486" width="54" height="54" stroke="#00FFFF"/>
<rect x="217" y="486" width="54" height="54" stroke="#00FFFF"/>
<rect x="271" y="486" width="54" height="54" stroke="#00FFFF"/>
<rect x="325" y="486" width="54" height="54" stroke="#00FFFF"/>
<rect x="379" y="486" width="54" height="54" stroke="#00FFFF"/>
<rect x="433" y="486" width="54" height="54" stroke="#00FFFF"/>
<rect x="487" y="486" width="54" height="54" stroke="#00FFFF"/>
<rect x="541" y="486" width="54" height="54" stroke="#00FFFF"/>
<rect x="595" y="486" width="54" height="54" stroke="#00FFFF"/>
<rect x="649" y="486" width="54" height="54" stroke="#00FFFF"/>
<rect x="1" y="486" width="54" height="54" stroke="#00FFFF"/>
<rect x="217" y="432" width="54" height="54" stroke="#00FFFF"/>
<rect x="163" y="432" width="54" height="54" stroke="#00FFFF"/>
<rect x="109" y="432" width="54" height="54" stroke="#00FFFF"/>
<rect x="55" y="432" width="54" height="54" stroke="#00FFFF"/>
<rect x="433" y="432" width="54" height="54" stroke="#00FFFF"/>
<rect x="379" y="432" width="54" height="54" stroke="#00FFFF"/>
<rect x="325" y="432" width="54" height="54" stroke="#00FFFF"/>
<rect x="271" y="432" width="54" height="54" stroke="#00FFFF"/>
<rect x="649" y="432" width="54" height="54" stroke="#00FFFF"/>
<rect x="595" y="432" width="54" height="54" stroke="#00FFFF"/>
<rect x="541" y="432" width="54" height="54" stroke="#00FFFF"/>
<rect x="487" y="432" width="54" height="54" stroke="#00FFFF"/>
<rect x="541" y="378" width="54" height="54" stroke="#00FFFF"/>
<rect x="487" y="378" width="54" height="54" stroke="#00FFFF"/>
<rect x="433" y="378" width="54" height="54" stroke="#00FFFF"/>
<rect x="487" y="324" width="54" height="54" stroke="#00FFFF"/>
<rect x="703" y="378" width="54" height="54" stroke="#00FFFF"/>
<rect x="595" y="378" width="108" height="54" stroke="#00FFFF"/>
<rect x="757" y="324" width="54" height="108" stroke="#00FFFF"/>
<rect x="703" y="324" width="54" height="54" stroke="#00FFFF"/>
<rect x="649" y="324" width="54" height="54" stroke="#00FFFF"/>
<rect x="595" y="324" width="54" height="54" stroke="#00FFFF"/>
<rect x="703" y="270" width="54" height="54" stroke="#00FFFF"/>
<rect x="595" y="270" width="54" height="54" stroke="#00FFFF"/>
<rect x="757" y="216" width="54" height="108" stroke="#00FFFF"/>
<rect x="703" y="216" width="54" height="54" stroke="#00FFFF"/>
<rect x="649" y="216" width="54" height="54" stroke="#00FFFF"/>
<rect x="595" y="216" width="54" height="54" stroke="#00FFFF"/>
<rect x="757" y="162" width="54" height="54" stroke="#00FFFF"/>
<rect x="703" y="162" width="54" height="54" stroke="#00FFFF"/>
<rect x="649" y="162" width="54" height="54" stroke="#00FFFF"/>
<rect x="595" y="162" width="54" height="54" stroke="#00FFFF"/>
<rect x="649" y="270" width="54" height="54" stroke="#00FFFF"/>
<rect x="541" y="162" width="54" height="54" stroke="#00FFFF"/>
<rect x="487" y="162" width="54" height="54" stroke="#00FFFF"/>
<rect x="433" y="162" width="54" height="54" stroke="#00FFFF"/>
<rect x="541" y="216" width="54" height="54" stroke="#00FFFF"/>
<rect x="487" y="216" width="54" height="54" stroke="#00FFFF"/>
<rect x="433" y="216" width="54" height="54" stroke="#00FFFF"/>
<rect x="541" y="270" width="54" height="54" stroke="#00FFFF"/>
<rect x="487" y="270" width="54" height="54" stroke="#00FFFF"/>
<rect x="433" y="270" width="54" height="54" stroke="#00FFFF"/>
<rect x="595" y="756" width="81" height="54" stroke="#00FFFF"/>
<rect x="676" y="756" width="54" height="54" stroke="#00FFFF"/>
<rect x="730" y="756" width="81" height="54" stroke="#00FFFF"/>
<rect x="136" y="756" width="81" height="54" stroke="#00FFFF"/>
<rect x="82" y="756" width="54" height="54" stroke="#00FFFF"/>
<rect x="1" y="756" width="81" height="54" stroke="#00FFFF"/>
<rect x="1" y="432" width="54" height="54" stroke="#00FFFF"/>
<rect x="757" y="432" width="54" height="54" stroke="#00FFFF"/>
<rect x="703" y="432" width="54" height="54" stroke="#00FFFF"/>
<rect x="541" y="324" width="54" height="54" stroke="#00FFFF"/>
<rect x="433" y="324" width="54" height="54" stroke="#00FFFF"/>
<rect x="379" y="324" width="54" height="54" stroke="#00FFFF"/>
<rect x="379" y="378" width="54" height="54" stroke="#00FFFF"/>
<rect x="298" y="378" width="81" height="54" stroke="#00FFFF"/>
<rect x="298" y="324" width="81" height="54" stroke="#00FFFF"/>
<rect x="217" y="324" width="81" height="108" stroke="#00FFFF"/>
<rect x="176.5" y="378" width="54" height="54" stroke="#00FFFF"/>
<rect x="122.5" y="378" width="54" height="54" stroke="#00FFFF"/>
<rect x="68.5" y="378" width="54" height="54" stroke="#00FFFF"/>
<rect x="1" y="378" width="67.5" height="54" stroke="#00FFFF"/>
<rect x="109" y="324" width="54" height="54" stroke="#00FFFF"/>
<rect x="55" y="324" width="54" height="54" stroke="#00FFFF"/>
<rect x="1" y="324" width="54" height="54" stroke="#00FFFF"/>
<rect x="163" y="324" width="54" height="54" stroke="#00FFFF"/>
<rect x="271" y="270" width="94.5" height="54" stroke="#00FFFF"/>
<rect x="365.5" y="270" width="67.5" height="54" stroke="#00FFFF"/>
<rect x="217" y="270" width="54" height="54" stroke="#00FFFF"/>
<rect x="163" y="270" width="54" height="54" stroke="#00FFFF"/>
<rect x="95.5" y="270" width="67.5" height="54" stroke="#00FFFF"/>
<rect x="1" y="270" width="94.5" height="54" stroke="#00FFFF"/>
<rect x="379" y="162" width="54" height="54" stroke="#00FFFF"/>
<rect x="271" y="162" width="54" height="54" stroke="#00FFFF"/>
<rect x="163" y="162" width="108" height="54" stroke="#00FFFF"/>
<rect x="95.5" y="162" width="67.5" height="54" stroke="#00FFFF"/>
<rect x="217" y="216" width="54" height="54" stroke="#00FFFF"/>
<rect x="163" y="216" width="54" height="54" stroke="#00FFFF"/>
<rect x="95.5" y="216" width="67.5" height="54" stroke="#00FFFF"/>
<rect x="1" y="216" width="94.5" height="54" stroke="#00FFFF"/>
<rect x="1" y="162" width="94.5" height="54" stroke="#00FFFF"/>
<rect x="730" y="54" width="81" height="108" stroke="#00FFFF"/>
<rect x="635.5" y="108" width="54" height="54" stroke="#00FFFF"/>
<rect x="554.5" y="108" width="81" height="54" stroke="#00FFFF"/>
<rect x="446.5" y="108" width="108" height="54" stroke="#00FFFF"/>
<rect x="311.5" y="108" width="81" height="54" stroke="#00FFFF"/>
<rect x="257.5" y="108" width="54" height="54" stroke="#00FFFF"/>
<rect x="163" y="108" width="94.5" height="54" stroke="#00FFFF"/>
<rect x="82" y="108" width="81" height="54" stroke="#00FFFF"/>
<rect x="1" y="108" width="81" height="54" stroke="#00FFFF"/>
<rect x="635.5" y="54" width="94.5" height="54" stroke="#00FFFF"/>
<rect x="527.5" y="54" width="54" height="54" stroke="#00FFFF"/>
<rect x="473.5" y="54" width="54" height="54" stroke="#00FFFF"/>
<rect x="392.5" y="54" width="81" height="54" stroke="#00FFFF"/>
</svg>
