<svg width="812" height="811" viewBox="0 0 812 811" fill="none" xmlns="http://www.w3.org/2000/svg">
<path fill-rule="evenodd" clip-rule="evenodd" d="M31.4062 515.637C31.4062 514.455 32.3644 513.497 33.5462 513.497H38.4536C39.6355 513.497 40.5936 514.455 40.5936 515.637V520.42C40.5936 520.422 40.5936 520.424 40.5936 520.426L40.5936 522.186C40.5936 522.578 40.2757 522.896 39.8836 522.896C39.4915 522.896 39.1736 522.578 39.1736 522.186L39.1736 521.98C39.1736 521.903 39.1109 521.84 39.0336 521.84H32.9663C32.889 521.84 32.8263 521.903 32.8263 521.98L32.8263 522.191C32.8263 522.583 32.5084 522.901 32.1163 522.901C31.7242 522.901 31.4063 522.583 31.4063 522.191L31.4063 520.428L31.4062 520.42V515.637ZM39.1736 517.055C39.1736 517.057 39.1736 517.058 39.1736 517.06L39.1736 520.28C39.1736 520.357 39.1109 520.42 39.0336 520.42L32.9663 520.42C32.889 520.42 32.8263 520.357 32.8263 520.28L32.8263 517.06L32.8263 517.055V515.637C32.8263 515.239 33.1486 514.917 33.5462 514.917H38.4536C38.8513 514.917 39.1736 515.239 39.1736 515.637V517.055Z" fill="#FF00FF"/>
<path fill-rule="evenodd" clip-rule="evenodd" d="M86.3162 514.011L92.2908 514.011C92.3791 514.011 92.4454 514.091 92.4261 514.177C92.2179 515.105 91.8051 516.079 91.2103 516.998C91.1674 517.064 91.0777 517.081 91.0132 517.035C90.0115 516.327 89.0166 515.713 88.1684 515.291C87.8172 515.117 87.3911 515.26 87.2166 515.611C87.0422 515.963 87.1855 516.389 87.5367 516.563C88.2989 516.942 89.2073 517.501 90.1312 518.151C90.1996 518.199 90.2104 518.296 90.1536 518.357C89.037 519.562 87.5671 520.548 85.8108 521.013C85.4318 521.113 85.2059 521.502 85.3063 521.881C85.4068 522.26 85.7955 522.486 86.1745 522.386C88.2718 521.83 90.0114 520.644 91.3136 519.193C91.3632 519.138 91.4472 519.13 91.5055 519.176C92.2272 519.746 92.9176 520.344 93.5109 520.925C93.7911 521.199 94.2407 521.194 94.5149 520.914C94.7892 520.634 94.7844 520.184 94.5041 519.91C93.8735 519.293 93.1402 518.657 92.3719 518.051C92.3142 518.005 92.3013 517.923 92.3418 517.861C93.2154 516.538 93.7638 515.103 93.9395 513.773C94.0266 513.114 93.4984 512.591 92.8927 512.591L86.3162 512.591C85.924 512.591 85.6062 512.908 85.6062 513.301C85.6062 513.693 85.924 514.011 86.3162 514.011Z" fill="#FF00FF"/>
<path fill-rule="evenodd" clip-rule="evenodd" d="M139.202 513.35C139.202 512.958 139.52 512.64 139.912 512.64L147.737 512.64C148.351 512.64 148.862 513.168 148.791 513.809C148.604 515.514 148.061 517.278 146.898 518.794C145.728 520.318 143.97 521.543 141.44 522.216C141.062 522.317 140.673 522.092 140.572 521.713C140.471 521.334 140.696 520.945 141.075 520.844C143.333 520.243 144.812 519.18 145.771 517.93C146.616 516.828 147.087 515.543 147.303 514.22C147.316 514.136 147.251 514.06 147.165 514.06L139.912 514.06C139.52 514.06 139.202 513.742 139.202 513.35Z" fill="#FF00FF"/>
<path fill-rule="evenodd" clip-rule="evenodd" d="M194.546 497.473L200.363 497.473C200.461 497.473 200.528 497.57 200.489 497.66C200.105 498.548 199.45 499.116 198.657 499.457C198.56 499.499 198.457 499.417 198.471 499.312C198.478 499.25 198.486 499.188 198.494 499.125C198.541 498.736 198.264 498.382 197.875 498.334C197.486 498.287 197.132 498.564 197.084 498.953C196.956 500.001 196.826 500.718 196.495 501.309C196.181 501.87 195.641 502.39 194.533 502.907C194.178 503.073 194.024 503.495 194.19 503.85C194.356 504.206 194.779 504.359 195.134 504.193C196.422 503.592 197.233 502.897 197.734 502.003C197.88 501.742 197.996 501.471 198.089 501.191C198.105 501.144 198.144 501.108 198.192 501.097C199.901 500.688 201.531 499.606 202.087 497.344C202.258 496.646 201.704 496.053 201.062 496.053H194.546C194.154 496.053 193.836 496.371 193.836 496.763C193.836 497.155 194.154 497.473 194.546 497.473Z" fill="#FF00FF"/>
<path fill-rule="evenodd" clip-rule="evenodd" d="M193.692 512.6C193.3 512.6 192.982 512.918 192.982 513.31C192.982 513.702 193.3 514.02 193.692 514.02L201.286 514.021C201.381 514.021 201.449 514.114 201.415 514.203C200.88 515.64 199.763 516.546 198.537 517.034C198.439 517.073 198.338 516.991 198.351 516.887C198.401 516.472 198.428 516.05 198.442 515.626C198.455 515.234 198.148 514.906 197.756 514.893C197.364 514.88 197.036 515.187 197.023 515.579C196.981 516.84 196.813 517.91 196.364 518.815C195.925 519.7 195.191 520.481 193.911 521.115C193.56 521.29 193.416 521.715 193.59 522.067C193.764 522.418 194.19 522.562 194.541 522.388C196.069 521.631 197.045 520.638 197.636 519.446C197.745 519.227 197.84 519.002 197.922 518.774C197.939 518.729 197.976 518.695 198.023 518.684C200.088 518.18 202.339 516.74 202.991 513.877C203.147 513.189 202.603 512.601 201.961 512.601L193.692 512.6Z" fill="#FF00FF"/>
<path fill-rule="evenodd" clip-rule="evenodd" d="M252.558 496.11C252.558 495.718 252.24 495.4 251.848 495.4C251.456 495.4 251.138 495.718 251.138 496.11V496.689C251.138 496.766 251.076 496.829 250.998 496.829L249.101 496.829C248.512 496.829 248.036 497.306 248.036 497.894V499.704C248.036 500.096 248.354 500.414 248.746 500.414C249.138 500.414 249.456 500.096 249.456 499.704V498.389C249.456 498.312 249.518 498.249 249.596 498.249L251.802 498.249C251.817 498.25 251.833 498.251 251.848 498.251C251.864 498.251 251.879 498.25 251.895 498.249L254.343 498.249C254.427 498.249 254.492 498.323 254.48 498.407C254.346 499.356 254.097 500.186 253.616 500.87C253.06 501.664 252.133 502.344 250.484 502.728C250.102 502.817 249.864 503.198 249.953 503.58C250.042 503.962 250.423 504.2 250.805 504.111C252.722 503.665 253.982 502.822 254.779 501.686C255.561 500.572 255.837 499.258 255.959 497.988C256.02 497.355 255.517 496.829 254.902 496.829L252.698 496.829C252.621 496.829 252.558 496.766 252.558 496.689V496.11Z" fill="#FF00FF"/>
<path fill-rule="evenodd" clip-rule="evenodd" d="M252.528 512.88C252.528 512.488 252.21 512.17 251.818 512.17C251.426 512.17 251.108 512.488 251.108 512.88V513.79C251.108 513.867 251.045 513.93 250.968 513.93L248.256 513.93C247.668 513.93 247.191 514.407 247.191 514.995V517.495C247.191 517.887 247.509 518.205 247.901 518.205C248.293 518.205 248.611 517.887 248.611 517.495V515.49C248.611 515.413 248.674 515.35 248.751 515.35L251.772 515.35C251.787 515.351 251.802 515.352 251.818 515.352C251.834 515.352 251.849 515.351 251.864 515.35L255.196 515.35C255.279 515.35 255.344 515.422 255.334 515.505C255.175 516.895 254.901 518.042 254.266 518.973C253.569 519.996 252.365 520.859 250.096 521.396C249.715 521.487 249.479 521.869 249.569 522.251C249.66 522.632 250.042 522.869 250.424 522.778C252.923 522.186 254.485 521.173 255.439 519.773C256.374 518.402 256.651 516.759 256.804 515.089C256.862 514.462 256.366 513.93 255.745 513.93L252.668 513.93C252.591 513.93 252.528 513.867 252.528 513.79V512.88Z" fill="#FF00FF"/>
<path fill-rule="evenodd" clip-rule="evenodd" d="M302.281 497.21C302.281 496.818 302.599 496.5 302.991 496.5H306H309.009C309.401 496.5 309.719 496.818 309.719 497.21C309.719 497.602 309.401 497.92 309.009 497.92L306.85 497.92C306.773 497.92 306.71 497.983 306.71 498.06V502.566C306.71 502.643 306.773 502.706 306.85 502.706H309.653C310.045 502.706 310.363 503.024 310.363 503.416C310.363 503.808 310.045 504.126 309.653 504.126H306H302.347C301.955 504.126 301.637 503.808 301.637 503.416C301.637 503.024 301.955 502.706 302.347 502.706H305.15C305.227 502.706 305.29 502.643 305.29 502.566L305.29 498.06C305.29 497.983 305.227 497.92 305.15 497.92L302.991 497.92C302.599 497.92 302.281 497.602 302.281 497.21Z" fill="#FF00FF"/>
<path fill-rule="evenodd" clip-rule="evenodd" d="M302.281 513.36C302.281 512.968 302.599 512.65 302.991 512.65H306H309.009C309.401 512.65 309.719 512.968 309.719 513.36C309.719 513.752 309.401 514.07 309.009 514.07L306.85 514.07C306.773 514.07 306.71 514.133 306.71 514.21L306.71 520.303C306.71 520.381 306.773 520.443 306.85 520.443H309.653C310.045 520.443 310.363 520.761 310.363 521.153C310.363 521.545 310.045 521.863 309.653 521.863H302.347C301.955 521.863 301.637 521.545 301.637 521.153C301.637 520.761 301.955 520.443 302.347 520.443H305.15C305.227 520.443 305.29 520.381 305.29 520.303L305.29 514.21C305.29 514.133 305.227 514.07 305.15 514.07L302.991 514.07C302.599 514.07 302.281 513.752 302.281 513.36Z" fill="#FF00FF"/>
<path fill-rule="evenodd" clip-rule="evenodd" d="M361.714 495.42C362.106 495.42 362.424 495.738 362.424 496.13L362.424 496.814C362.424 496.891 362.487 496.954 362.564 496.954H363.888C364.28 496.954 364.598 497.272 364.598 497.664C364.598 498.056 364.28 498.374 363.888 498.374H362.564C362.487 498.374 362.424 498.437 362.424 498.514L362.424 503.423C362.424 503.815 362.106 504.133 361.714 504.133C361.322 504.133 361.004 503.815 361.004 503.423L361.004 500.195C361.004 500.056 360.82 499.999 360.736 500.11C359.706 501.472 358.323 502.374 357.103 502.95C356.749 503.117 356.326 502.965 356.158 502.611C355.991 502.256 356.143 501.833 356.497 501.666C357.807 501.047 359.2 500.068 360.049 498.576C360.101 498.485 360.034 498.374 359.929 498.374H356.96C356.568 498.374 356.25 498.056 356.25 497.664C356.25 497.272 356.568 496.954 356.96 496.954L360.864 496.954C360.942 496.954 361.004 496.891 361.004 496.814L361.004 496.13C361.004 495.738 361.322 495.42 361.714 495.42Z" fill="#FF00FF"/>
<path fill-rule="evenodd" clip-rule="evenodd" d="M361.708 512.8C362.1 512.8 362.418 513.118 362.418 513.51L362.418 514.7C362.418 514.778 362.481 514.84 362.558 514.84H364.546C364.938 514.84 365.256 515.158 365.256 515.55C365.256 515.943 364.938 516.26 364.546 516.26H362.558C362.481 516.26 362.418 516.323 362.418 516.4L362.418 522.791C362.418 523.183 362.1 523.501 361.708 523.501C361.316 523.501 360.998 523.183 360.998 522.791L360.998 518.02C360.998 517.876 360.802 517.822 360.723 517.943C359.41 519.962 357.459 521.227 355.758 522.03C355.403 522.197 354.98 522.046 354.813 521.691C354.645 521.337 354.797 520.913 355.151 520.746C356.944 519.9 358.863 518.58 359.942 516.459C359.989 516.367 359.921 516.26 359.818 516.26H355.658C355.266 516.26 354.948 515.943 354.948 515.55C354.948 515.158 355.266 514.84 355.658 514.84L360.858 514.84C360.935 514.84 360.998 514.778 360.998 514.7L360.998 513.51C360.998 513.118 361.316 512.8 361.708 512.8Z" fill="#FF00FF"/>
<path fill-rule="evenodd" clip-rule="evenodd" d="M413.111 495.859C413.033 495.475 412.659 495.227 412.274 495.304C411.89 495.382 411.641 495.757 411.719 496.141L411.957 497.317C411.973 497.395 411.921 497.47 411.842 497.483L410.258 497.742C409.871 497.805 409.609 498.17 409.672 498.557C409.735 498.944 410.1 499.206 410.487 499.143L412.134 498.874C412.208 498.862 412.279 498.911 412.294 498.984L413.219 503.56C413.297 503.944 413.671 504.193 414.056 504.115C414.44 504.037 414.689 503.663 414.611 503.279L413.698 498.766C413.683 498.688 413.735 498.612 413.813 498.6L416.576 498.148C416.684 498.131 416.767 498.237 416.716 498.334C416.438 498.861 415.931 499.404 415.217 499.905C414.896 500.13 414.818 500.572 415.043 500.893C415.268 501.215 415.711 501.292 416.032 501.067C417.127 500.299 418.034 499.288 418.305 498.117C418.413 497.653 418.237 497.229 417.933 496.963C417.642 496.709 417.244 496.6 416.855 496.664L413.521 497.209C413.447 497.221 413.376 497.172 413.361 497.098L413.111 495.859Z" fill="#FF00FF"/>
<path fill-rule="evenodd" clip-rule="evenodd" d="M412.715 512.739C412.637 512.355 412.263 512.106 411.878 512.184C411.494 512.262 411.246 512.636 411.323 513.021L411.632 514.547C411.648 514.625 411.596 514.7 411.517 514.713L409.289 515.082C408.902 515.146 408.641 515.511 408.705 515.898C408.769 516.285 409.134 516.547 409.521 516.483L411.809 516.104C411.883 516.092 411.954 516.14 411.969 516.214L413.217 522.386C413.295 522.77 413.669 523.019 414.053 522.941C414.438 522.863 414.686 522.489 414.609 522.104L413.373 515.992C413.357 515.914 413.409 515.839 413.487 515.826L417.646 515.138C417.743 515.122 417.826 515.208 417.798 515.303C417.552 516.133 416.841 517.015 415.237 518.046C414.907 518.258 414.812 518.697 415.024 519.027C415.236 519.357 415.675 519.452 416.005 519.24C418.021 517.945 419.1 516.631 419.294 515.058C419.412 514.103 418.522 513.553 417.786 513.675L413.196 514.435C413.121 514.447 413.051 514.399 413.036 514.325L412.715 512.739Z" fill="#FF00FF"/>
<path fill-rule="evenodd" clip-rule="evenodd" d="M470.567 498.129C470.574 497.577 470.126 497.137 469.585 497.137L465.292 497.142C464.9 497.143 464.582 497.461 464.583 497.853C464.583 498.245 464.902 498.563 465.294 498.562L468.993 498.558C469.072 498.558 469.135 498.623 469.132 498.702C469.087 499.89 468.954 500.952 468.824 501.753C468.771 502.079 468.719 502.361 468.674 502.589C468.661 502.654 468.603 502.701 468.537 502.701H464.371C463.979 502.701 463.661 503.019 463.661 503.411C463.661 503.803 463.979 504.121 464.371 504.121H471.632C472.024 504.121 472.342 503.803 472.342 503.411C472.342 503.019 472.024 502.701 471.632 502.701H470.268C470.18 502.701 470.114 502.621 470.13 502.535C470.161 502.367 470.194 502.181 470.226 501.98C470.385 501 470.549 499.641 470.567 498.129Z" fill="#FF00FF"/>
<path fill-rule="evenodd" clip-rule="evenodd" d="M470.614 520.381C470.525 520.381 470.459 520.3 470.476 520.214C470.531 519.933 470.591 519.601 470.651 519.227C470.853 517.98 471.062 516.251 471.086 514.328C471.093 513.733 470.61 513.259 470.027 513.259L464.532 513.266C464.14 513.266 463.823 513.584 463.823 513.976C463.823 514.368 464.142 514.686 464.534 514.686L469.515 514.68C469.594 514.68 469.657 514.745 469.655 514.823C469.606 516.453 469.426 517.915 469.25 519C469.166 519.518 469.083 519.949 469.016 520.27C469.003 520.335 468.946 520.381 468.88 520.381H463.353C462.961 520.381 462.643 520.699 462.643 521.091C462.643 521.483 462.961 521.801 463.353 521.801H472.647C473.039 521.801 473.357 521.483 473.357 521.091C473.357 520.699 473.039 520.381 472.647 520.381H470.614Z" fill="#FF00FF"/>
<path fill-rule="evenodd" clip-rule="evenodd" d="M519.022 496.321C518.63 496.321 518.312 496.638 518.312 497.031C518.312 497.423 518.63 497.741 519.022 497.741H524.234C524.312 497.741 524.374 497.803 524.374 497.881V499.373C524.374 499.45 524.312 499.513 524.234 499.513H519.164C518.772 499.513 518.454 499.83 518.454 500.223C518.454 500.615 518.772 500.933 519.164 500.933H524.234C524.312 500.933 524.374 500.995 524.374 501.073V502.565C524.374 502.642 524.312 502.705 524.234 502.705L518.877 502.705C518.485 502.705 518.167 503.023 518.167 503.415C518.167 503.807 518.485 504.125 518.877 504.125H524.374C525.159 504.125 525.794 503.489 525.794 502.705V497.741C525.794 496.956 525.159 496.321 524.374 496.321H519.022Z" fill="#FF00FF"/>
<path fill-rule="evenodd" clip-rule="evenodd" d="M518.297 512.81C517.905 512.81 517.587 513.128 517.587 513.52C517.587 513.912 517.905 514.23 518.297 514.23H525.034C525.111 514.23 525.174 514.293 525.174 514.37V516.664C525.174 516.742 525.111 516.804 525.034 516.804H518.475C518.083 516.804 517.765 517.122 517.765 517.514C517.765 517.907 518.083 518.224 518.475 518.224H525.034C525.111 518.224 525.174 518.287 525.174 518.364V520.659C525.174 520.736 525.111 520.799 525.034 520.799L518.116 520.799C517.724 520.799 517.406 521.117 517.406 521.509C517.406 521.901 517.724 522.219 518.116 522.219H525.174C525.958 522.219 526.594 521.583 526.594 520.799V517.514V514.23C526.594 513.446 525.958 512.81 525.174 512.81H518.297Z" fill="#FF00FF"/>
<path fill-rule="evenodd" clip-rule="evenodd" d="M571.912 495.56C571.52 495.56 571.202 495.878 571.202 496.27C571.202 496.662 571.52 496.98 571.912 496.98L579.165 496.98C579.251 496.98 579.316 497.056 579.303 497.141C579.225 497.619 579.113 498.093 578.963 498.555C578.944 498.612 578.891 498.65 578.831 498.65H572.346C571.954 498.65 571.636 498.968 571.636 499.36C571.636 499.752 571.954 500.07 572.346 500.07H578.049C578.157 500.07 578.224 500.186 578.167 500.278C578.045 500.473 577.914 500.664 577.771 500.85C576.812 502.1 575.333 503.163 573.075 503.765C572.696 503.866 572.471 504.255 572.572 504.634C572.673 505.013 573.062 505.238 573.44 505.137C575.97 504.463 577.728 503.238 578.898 501.714C580.061 500.199 580.604 498.434 580.791 496.73C580.862 496.088 580.351 495.56 579.737 495.56L571.912 495.56Z" fill="#FF00FF"/>
<path fill-rule="evenodd" clip-rule="evenodd" d="M571.191 515.703C571.191 515.115 571.668 514.638 572.256 514.638L579.745 514.638C580.366 514.638 580.862 515.17 580.804 515.797C580.651 517.468 580.374 519.11 579.439 520.481C578.485 521.881 576.923 522.894 574.424 523.486C574.042 523.577 573.66 523.341 573.569 522.959C573.479 522.578 573.715 522.195 574.096 522.105C576.365 521.567 577.569 520.704 578.266 519.682C578.901 518.75 579.175 517.604 579.334 516.213C579.344 516.131 579.279 516.058 579.196 516.058L572.751 516.058C572.674 516.058 572.611 516.121 572.611 516.198V518.203C572.611 518.595 572.293 518.913 571.901 518.913C571.509 518.913 571.191 518.595 571.191 518.203V515.703Z" fill="#FF00FF"/>
<path fill-rule="evenodd" clip-rule="evenodd" d="M625.22 494.994C625.319 494.972 625.423 494.96 625.53 494.96H626C626.392 494.96 626.71 494.642 626.71 494.25C626.71 493.858 626.392 493.54 626 493.54H625.53C625.319 493.54 625.112 493.563 624.913 493.607C624.53 493.692 624.288 494.072 624.373 494.454C624.458 494.837 624.837 495.079 625.22 494.994ZM628.43 493.54C628.037 493.54 627.72 493.858 627.72 494.25C627.72 494.642 628.037 494.96 628.43 494.96H629.37C629.762 494.96 630.08 494.642 630.08 494.25C630.08 493.858 629.762 493.54 629.37 493.54H628.43ZM631.8 493.54C631.407 493.54 631.09 493.858 631.09 494.25C631.09 494.642 631.407 494.96 631.8 494.96H632.27C632.377 494.96 632.481 494.972 632.58 494.994C632.962 495.079 633.342 494.837 633.427 494.454C633.512 494.072 633.27 493.692 632.887 493.607C632.688 493.563 632.481 493.54 632.27 493.54H631.8ZM624.144 496.07C624.229 495.688 623.987 495.308 623.604 495.223C623.222 495.138 622.842 495.38 622.757 495.763C622.713 495.962 622.69 496.169 622.69 496.38V496.85C622.69 497.243 623.008 497.56 623.4 497.56C623.792 497.56 624.11 497.243 624.11 496.85V496.38C624.11 496.273 624.122 496.169 624.144 496.07ZM635.042 495.763C634.958 495.38 634.578 495.138 634.196 495.223C633.813 495.308 633.571 495.688 633.656 496.07C633.678 496.169 633.69 496.273 633.69 496.38V496.85C633.69 497.243 634.008 497.56 634.4 497.56C634.792 497.56 635.11 497.243 635.11 496.85V496.38C635.11 496.169 635.087 495.962 635.042 495.763ZM635.11 499.28C635.11 498.887 634.792 498.57 634.4 498.57C634.008 498.57 633.69 498.887 633.69 499.28V500.22C633.69 500.613 634.008 500.93 634.4 500.93C634.792 500.93 635.11 500.613 635.11 500.22V499.28ZM624.11 499.28C624.11 498.887 623.792 498.57 623.4 498.57C623.008 498.57 622.69 498.887 622.69 499.28V500.22C622.69 500.613 623.008 500.93 623.4 500.93C623.792 500.93 624.11 500.613 624.11 500.22V499.28ZM635.11 502.65C635.11 502.257 634.792 501.94 634.4 501.94C634.008 501.94 633.69 502.257 633.69 502.65V503.12C633.69 503.227 633.678 503.331 633.656 503.43C633.571 503.813 633.813 504.192 634.196 504.277C634.578 504.362 634.958 504.12 635.042 503.737C635.087 503.538 635.11 503.331 635.11 503.12V502.65ZM624.11 502.65C624.11 502.257 623.792 501.94 623.4 501.94C623.008 501.94 622.69 502.257 622.69 502.65V503.12C622.69 503.331 622.713 503.538 622.757 503.737C622.842 504.12 623.222 504.362 623.604 504.277C623.987 504.192 624.229 503.813 624.144 503.43C624.122 503.331 624.11 503.227 624.11 503.12V502.65ZM625.22 504.506C624.837 504.421 624.458 504.663 624.373 505.046C624.288 505.428 624.53 505.808 624.913 505.893C625.112 505.937 625.319 505.96 625.53 505.96H626C626.392 505.96 626.71 505.642 626.71 505.25C626.71 504.858 626.392 504.54 626 504.54H625.53C625.423 504.54 625.319 504.528 625.22 504.506ZM632.887 505.893C633.27 505.808 633.512 505.428 633.427 505.046C633.342 504.663 632.962 504.421 632.58 504.506C632.481 504.528 632.377 504.54 632.27 504.54H631.8C631.407 504.54 631.09 504.858 631.09 505.25C631.09 505.642 631.407 505.96 631.8 505.96H632.27C632.481 505.96 632.688 505.937 632.887 505.893ZM628.43 504.54C628.037 504.54 627.72 504.858 627.72 505.25C627.72 505.642 628.037 505.96 628.43 505.96H629.37C629.762 505.96 630.08 505.642 630.08 505.25C630.08 504.858 629.762 504.54 629.37 504.54H628.43ZM625.985 499.04C625.593 499.04 625.275 499.358 625.275 499.75C625.275 500.142 625.593 500.46 625.985 500.46H631.825C632.217 500.46 632.535 500.142 632.535 499.75C632.535 499.358 632.217 499.04 631.825 499.04H625.985Z" fill="#FF00FF"/>
<path fill-rule="evenodd" clip-rule="evenodd" d="M628.19 522.247C628.19 522.639 628.508 522.957 628.9 522.957C629.292 522.957 629.61 522.639 629.61 522.247L629.61 515.492C629.61 515.414 629.672 515.352 629.75 515.352H633.389C633.781 515.352 634.099 515.034 634.099 514.642C634.099 514.249 633.781 513.932 633.389 513.932L629.75 513.932C629.672 513.932 629.61 513.869 629.61 513.792V512.81C629.61 512.418 629.292 512.1 628.9 512.1C628.508 512.1 628.19 512.418 628.19 512.81V513.792C628.19 513.869 628.127 513.932 628.05 513.932L624.411 513.932C624.018 513.932 623.701 514.249 623.701 514.642C623.701 515.034 624.018 515.352 624.411 515.352H628.05C628.127 515.352 628.19 515.414 628.19 515.492L628.19 522.247ZM626.375 516.557C626.756 516.649 626.991 517.033 626.899 517.414C626.473 519.177 625.858 520.415 624.869 521.629C624.621 521.933 624.174 521.979 623.87 521.731C623.566 521.484 623.52 521.037 623.768 520.733C624.613 519.695 625.138 518.654 625.518 517.081C625.61 516.699 625.994 516.465 626.375 516.557ZM630.901 517.414C630.809 517.033 631.043 516.649 631.424 516.557C631.805 516.465 632.189 516.699 632.281 517.081C632.661 518.654 633.187 519.695 634.032 520.733C634.279 521.037 634.234 521.484 633.93 521.731C633.626 521.979 633.178 521.933 632.931 521.629C631.941 520.415 631.327 519.177 630.901 517.414Z" fill="#FF00FF"/>
<path fill-rule="evenodd" clip-rule="evenodd" d="M678.753 519.902C678.434 519.674 678.361 519.23 678.589 518.912L681.709 514.557C682.103 514.006 682.905 513.96 683.361 514.46C683.894 515.045 684.377 515.584 684.853 516.116C686.116 517.527 687.335 518.889 689.34 520.93C689.614 521.209 689.611 521.659 689.331 521.934C689.051 522.209 688.602 522.205 688.327 521.925C686.297 519.859 685.05 518.465 683.78 517.047C683.435 516.661 683.088 516.274 682.723 515.87C682.664 515.804 682.558 515.81 682.506 515.883L679.744 519.739C679.515 520.057 679.072 520.131 678.753 519.902Z" fill="#FF00FF"/>
<path fill-rule="evenodd" clip-rule="evenodd" d="M127.302 620.989C126.911 621.015 126.615 621.354 126.642 621.745C126.668 622.136 127.007 622.432 127.398 622.406L127.625 622.39C128.447 622.335 129.261 622.28 130.125 622.173C130.209 622.162 130.284 622.227 130.284 622.312V623.387C130.284 623.473 130.283 623.557 130.283 623.64C130.283 623.717 130.22 623.779 130.143 623.779H126.56C126.168 623.779 125.85 624.097 125.85 624.489C125.85 624.881 126.168 625.199 126.56 625.199H130.097C130.178 625.199 130.242 625.267 130.237 625.347C130.174 626.368 130.038 627.119 129.77 627.708C129.39 628.539 128.699 629.131 127.187 629.625C126.814 629.746 126.611 630.147 126.732 630.52C126.854 630.893 127.255 631.096 127.628 630.975C129.355 630.411 130.458 629.621 131.061 628.298C131.435 627.48 131.595 626.496 131.661 625.332C131.665 625.258 131.726 625.199 131.801 625.199H134.44C134.832 625.199 135.15 624.881 135.15 624.489C135.15 624.097 134.832 623.779 134.44 623.779H131.843C131.766 623.779 131.703 623.716 131.703 623.638C131.703 623.555 131.704 623.472 131.704 623.387V622.034C131.704 621.967 131.751 621.91 131.816 621.896C132.407 621.775 133.032 621.621 133.704 621.42C134.079 621.307 134.293 620.912 134.18 620.536C134.068 620.16 133.672 619.947 133.297 620.059C131.028 620.738 129.355 620.85 127.51 620.975L127.302 620.989Z" fill="#FF00FF"/>
<path fill-rule="evenodd" clip-rule="evenodd" d="M182.112 621.115C182.112 620.723 181.794 620.405 181.402 620.405C181.01 620.405 180.692 620.723 180.692 621.115V630.385C180.692 630.778 181.01 631.095 181.402 631.095C181.794 631.095 182.112 630.778 182.112 630.385L182.112 625.68C182.112 625.586 182.203 625.519 182.292 625.547C183.943 626.062 185.902 626.84 187.282 627.525C187.633 627.699 188.059 627.556 188.234 627.205C188.408 626.853 188.265 626.427 187.913 626.253C186.331 625.468 184.041 624.571 182.213 624.04C182.153 624.023 182.112 623.968 182.112 623.905L182.112 621.115Z" fill="#FF00FF"/>
<path fill-rule="evenodd" clip-rule="evenodd" d="M235.589 620.81C235.244 620.623 234.813 620.75 234.626 621.095C234.439 621.439 234.567 621.871 234.911 622.058L237.519 623.474C237.864 623.661 238.295 623.534 238.482 623.189C238.669 622.845 238.542 622.414 238.197 622.226L235.589 620.81ZM242.953 622.976C243.324 623.103 243.522 623.506 243.395 623.877C242.788 625.658 241.937 627.265 240.512 628.49C239.081 629.72 237.141 630.506 234.462 630.772C234.072 630.811 233.724 630.526 233.685 630.136C233.646 629.746 233.931 629.398 234.322 629.359C236.79 629.114 238.43 628.407 239.586 627.414C240.747 626.416 241.488 625.07 242.052 623.419C242.178 623.048 242.582 622.849 242.953 622.976ZM233.65 624.073C233.834 623.727 234.264 623.596 234.61 623.78L237.365 625.249C237.712 625.433 237.843 625.863 237.658 626.209C237.474 626.555 237.044 626.686 236.698 626.502L233.942 625.033C233.596 624.849 233.465 624.419 233.65 624.073Z" fill="#FF00FF"/>
<path fill-rule="evenodd" clip-rule="evenodd" d="M291.152 621.693C291.181 621.302 290.888 620.961 290.497 620.932C290.106 620.903 289.765 621.196 289.736 621.587C289.504 624.689 288.909 626.684 287.318 628.619C287.069 628.922 287.113 629.369 287.416 629.618C287.719 629.867 288.166 629.824 288.415 629.521C290.26 627.278 290.908 624.959 291.152 621.693ZM293.848 621.693C293.819 621.302 294.112 620.961 294.503 620.932C294.894 620.903 295.235 621.196 295.264 621.587C295.496 624.689 296.09 626.684 297.682 628.619C297.931 628.922 297.887 629.369 297.584 629.618C297.281 629.867 296.834 629.824 296.585 629.521C294.74 627.278 294.092 624.959 293.848 621.693Z" fill="#FF00FF"/>
<path fill-rule="evenodd" clip-rule="evenodd" d="M345.539 620.361C345.155 620.444 344.911 620.821 344.994 621.204L345.262 622.452C345.278 622.531 345.226 622.607 345.147 622.62L342.096 623.113C341.709 623.175 341.446 623.54 341.508 623.927C341.571 624.314 341.935 624.577 342.323 624.515L345.46 624.008C345.533 623.996 345.603 624.044 345.619 624.117L345.961 625.709C345.978 625.788 345.926 625.864 345.846 625.877L342.102 626.482C341.715 626.545 341.452 626.909 341.514 627.296C341.577 627.684 341.942 627.947 342.329 627.884L346.159 627.265C346.233 627.253 346.303 627.301 346.318 627.374L346.992 630.513C347.075 630.896 347.452 631.14 347.836 631.058C348.219 630.976 348.463 630.598 348.381 630.215L347.725 627.161C347.708 627.083 347.76 627.006 347.84 626.993L351.207 626.449C351.594 626.387 351.858 626.022 351.795 625.635C351.732 625.248 351.368 624.985 350.981 625.047L347.527 625.605C347.453 625.617 347.383 625.57 347.368 625.497L347.026 623.904C347.009 623.825 347.061 623.749 347.14 623.736L350.313 623.223C350.7 623.161 350.963 622.796 350.9 622.409C350.838 622.022 350.473 621.759 350.086 621.822L346.827 622.348C346.754 622.36 346.684 622.312 346.668 622.239L346.382 620.906C346.3 620.523 345.922 620.279 345.539 620.361Z" fill="#FF00FF"/>
<path fill-rule="evenodd" clip-rule="evenodd" d="M400.64 621.347C400.791 620.985 400.621 620.57 400.259 620.418C399.897 620.267 399.481 620.438 399.33 620.8C398.599 622.549 397.619 623.788 396.121 624.882C395.804 625.113 395.734 625.557 395.966 625.874C396.197 626.19 396.641 626.26 396.958 626.029C398.021 625.252 398.866 624.399 399.552 623.386C399.578 623.347 399.622 623.324 399.668 623.324L403.533 623.324C403.619 623.324 403.685 623.401 403.67 623.485C403.451 624.725 402.984 625.929 402.15 626.963C401.194 628.149 399.718 629.163 397.458 629.739C397.078 629.835 396.848 630.222 396.945 630.602C397.042 630.982 397.428 631.211 397.808 631.115C400.326 630.474 402.083 629.31 403.256 627.854C404.424 626.404 404.973 624.714 405.164 623.079C405.239 622.434 404.726 621.904 404.111 621.904L400.614 621.904C400.511 621.904 400.443 621.797 400.485 621.703C400.538 621.586 400.59 621.468 400.64 621.347Z" fill="#FF00FF"/>
<path fill-rule="evenodd" clip-rule="evenodd" d="M450.102 621.17C449.71 621.17 449.392 621.488 449.392 621.88C449.392 622.272 449.71 622.59 450.102 622.59L457.799 622.59C457.901 622.59 457.969 622.695 457.922 622.785C457.575 623.463 457.011 624.167 456.35 624.824C455.716 625.455 455.036 626.001 454.475 626.393C454.418 626.433 454.34 626.423 454.293 626.372C453.561 625.569 452.795 624.824 452.086 624.243C451.783 623.995 451.335 624.039 451.087 624.343C450.838 624.646 450.883 625.093 451.186 625.342C452.599 626.5 454.304 628.413 455.376 630.015C455.594 630.341 456.035 630.429 456.361 630.211C456.687 629.993 456.775 629.552 456.557 629.226C456.22 628.723 455.827 628.192 455.4 627.662C455.349 627.599 455.362 627.506 455.428 627.458C456.027 627.029 456.712 626.468 457.352 625.831C458.295 624.892 459.225 623.708 459.568 622.471C459.769 621.748 459.178 621.17 458.559 621.17L450.102 621.17Z" fill="#FF00FF"/>
<path fill-rule="evenodd" clip-rule="evenodd" d="M512.365 620.971C512.746 621.065 512.978 621.45 512.884 621.83C512.4 623.787 511.684 625.553 510.444 627.04C509.199 628.533 507.467 629.695 505.031 630.513C504.66 630.638 504.257 630.438 504.132 630.066C504.007 629.695 504.207 629.292 504.579 629.167C506.813 628.417 508.306 627.386 509.354 626.13C510.406 624.868 511.051 623.328 511.506 621.489C511.6 621.109 511.985 620.876 512.365 620.971Z" fill="#FF00FF"/>
<path fill-rule="evenodd" clip-rule="evenodd" d="M566.201 621.303C566.201 620.911 565.883 620.593 565.491 620.593C565.099 620.593 564.781 620.911 564.781 621.303V624.949C564.781 626.635 564.396 627.575 563.778 628.179C563.131 628.812 562.111 629.199 560.558 629.5C560.173 629.574 559.921 629.947 559.996 630.332C560.07 630.717 560.443 630.968 560.828 630.894C562.428 630.584 563.808 630.136 564.771 629.194C565.765 628.222 566.201 626.844 566.201 624.949V621.303ZM558.799 626.549C558.799 626.941 559.117 627.259 559.509 627.259C559.901 627.259 560.219 626.941 560.219 626.549L560.219 621.304C560.219 620.912 559.901 620.594 559.509 620.594C559.117 620.594 558.799 620.912 558.799 621.304V626.549Z" fill="#FF00FF"/>
<path fill-rule="evenodd" clip-rule="evenodd" d="M613.676 629.245C613.599 629.247 613.537 629.184 613.537 629.107L613.537 621.543C613.537 621.151 613.22 620.833 612.827 620.833C612.435 620.833 612.117 621.151 612.117 621.543L612.117 629.298C612.117 629.974 612.624 630.642 613.409 630.664C615.954 630.734 618.972 629.222 620.778 626.26C620.983 625.925 620.877 625.488 620.542 625.284C620.207 625.08 619.77 625.185 619.566 625.52C618.06 627.989 615.634 629.206 613.676 629.245ZM613.537 629.298C613.537 629.299 613.537 629.299 613.537 629.298V629.298Z" fill="#FF00FF"/>
<path fill-rule="evenodd" clip-rule="evenodd" d="M668.934 620.403C669.307 620.525 669.51 620.926 669.387 621.299C669.276 621.637 669.156 621.972 669.021 622.305C668.983 622.398 669.051 622.5 669.152 622.5H675.224C675.616 622.5 675.934 622.818 675.934 623.21C675.934 623.602 675.616 623.92 675.224 623.92H673.165C673.093 623.92 673.032 623.975 673.025 624.047C672.883 625.466 672.569 626.796 671.908 627.949C671.111 629.338 669.846 630.405 667.934 631.091C667.564 631.224 667.158 631.032 667.026 630.663C666.893 630.293 667.085 629.887 667.454 629.755C669.088 629.169 670.067 628.304 670.676 627.242C671.18 626.364 671.456 625.308 671.594 624.074C671.603 623.992 671.539 623.92 671.456 623.92H668.3C668.251 623.92 668.205 623.946 668.18 623.987C667.691 624.783 667.068 625.548 666.242 626.267C665.947 626.525 665.498 626.494 665.241 626.198C664.983 625.903 665.014 625.454 665.309 625.197C666.777 623.918 667.506 622.475 668.038 620.856C668.16 620.483 668.562 620.28 668.934 620.403Z" fill="#FF00FF"/>
<path fill-rule="evenodd" clip-rule="evenodd" d="M157.353 658.288C157.209 657.924 156.796 657.746 156.432 657.89C156.067 658.034 155.889 658.447 156.033 658.812L156.966 661.165C157.111 661.53 157.523 661.708 157.888 661.563C158.252 661.419 158.431 661.006 158.286 660.642L157.353 658.288ZM160.822 658.091C161.213 658.123 161.504 658.466 161.472 658.857C161.351 660.339 161.008 661.752 160.14 662.985C159.267 664.224 157.916 665.209 155.913 665.932C155.544 666.065 155.137 665.873 155.004 665.505C154.871 665.136 155.062 664.729 155.431 664.596C157.235 663.945 158.315 663.111 158.979 662.168C159.646 661.219 159.946 660.087 160.057 658.741C160.089 658.35 160.431 658.059 160.822 658.091ZM153.973 658.353C154.337 658.207 154.75 658.385 154.895 658.749L155.865 661.177C156.011 661.541 155.833 661.954 155.469 662.099C155.105 662.245 154.692 662.067 154.546 661.703L153.577 659.275C153.431 658.911 153.609 658.498 153.973 658.353Z" fill="#FF00FF"/>
<path fill-rule="evenodd" clip-rule="evenodd" d="M157.129 675.199C156.985 674.834 156.572 674.656 156.207 674.8C155.843 674.945 155.664 675.357 155.809 675.722L157.001 678.729C157.146 679.094 157.558 679.272 157.923 679.128C158.287 678.983 158.466 678.571 158.321 678.206L157.129 675.199ZM161.729 675.07C162.12 675.102 162.411 675.445 162.379 675.836C162.225 677.711 161.794 679.478 160.712 681.015C159.626 682.557 157.937 683.794 155.405 684.708C155.036 684.841 154.629 684.65 154.496 684.281C154.363 683.912 154.554 683.505 154.923 683.372C157.256 682.53 158.673 681.443 159.551 680.197C160.432 678.945 160.821 677.459 160.964 675.72C160.996 675.329 161.338 675.038 161.729 675.07ZM153.065 675.391C153.429 675.246 153.843 675.423 153.988 675.787L155.227 678.89C155.373 679.254 155.195 679.667 154.831 679.813C154.467 679.958 154.054 679.781 153.908 679.417L152.669 676.314C152.524 675.95 152.701 675.537 153.065 675.391Z" fill="#FF00FF"/>
<path fill-rule="evenodd" clip-rule="evenodd" d="M214.626 675.564C214.626 675.171 214.308 674.854 213.916 674.854C213.524 674.854 213.206 675.171 213.206 675.564L213.206 677.109C213.206 677.186 213.144 677.249 213.066 677.249H209.83C209.752 677.249 209.69 677.186 209.69 677.109V675.589C209.69 675.197 209.372 674.879 208.98 674.879C208.588 674.879 208.27 675.197 208.27 675.589V677.109C208.27 677.186 208.207 677.249 208.13 677.249H206.66C206.268 677.249 205.95 677.567 205.95 677.959C205.95 678.351 206.268 678.669 206.66 678.669H208.13C208.207 678.669 208.27 678.732 208.27 678.809V681.35C208.27 681.743 208.588 682.06 208.98 682.06C209.372 682.06 209.69 681.743 209.69 681.35V678.809C209.69 678.732 209.752 678.669 209.83 678.669H213.069C213.146 678.669 213.209 678.731 213.209 678.809C213.209 679.301 213.205 679.755 213.177 680.186C213.135 680.867 213.037 681.431 212.84 681.911C212.474 682.8 211.689 683.575 209.669 684.11C209.29 684.211 209.064 684.599 209.165 684.978C209.265 685.357 209.654 685.583 210.033 685.483C212.315 684.878 213.562 683.888 214.153 682.451C214.435 681.767 214.547 681.028 214.595 680.275C214.624 679.809 214.629 679.315 214.629 678.809C214.629 678.732 214.691 678.669 214.769 678.669H216.241C216.633 678.669 216.951 678.351 216.951 677.959C216.951 677.567 216.633 677.249 216.241 677.249H214.766C214.689 677.249 214.626 677.186 214.626 677.109L214.626 675.564Z" fill="#FF00FF"/>
<path fill-rule="evenodd" clip-rule="evenodd" d="M268.922 676.199C268.964 675.809 268.682 675.459 268.292 675.418C267.902 675.376 267.552 675.658 267.51 676.048C267.136 679.565 265.514 682.657 261.593 683.839C261.217 683.952 261.005 684.349 261.118 684.724C261.231 685.099 261.627 685.312 262.003 685.199C266.648 683.798 268.51 680.074 268.922 676.199ZM261.582 679.882C261.717 680.25 262.125 680.439 262.493 680.304C262.861 680.169 263.05 679.762 262.916 679.393C262.5 678.258 261.761 676.845 261.052 675.778C260.835 675.451 260.394 675.362 260.068 675.579C259.741 675.796 259.652 676.237 259.869 676.563C260.526 677.553 261.21 678.866 261.582 679.882Z" fill="#FF00FF"/>
<path fill-rule="evenodd" clip-rule="evenodd" d="M315.334 675.501C315.334 675.109 315.652 674.791 316.044 674.791C316.436 674.791 316.754 675.109 316.754 675.501L316.754 678.321C316.754 678.407 316.83 678.472 316.914 678.459C318.81 678.16 320.894 677.404 322.12 676.673C322.456 676.472 322.892 676.582 323.093 676.918C323.294 677.255 323.184 677.691 322.847 677.892C321.409 678.75 319.025 679.602 316.876 679.9C316.806 679.91 316.754 679.969 316.754 680.039L316.754 682.024C316.754 682.391 316.807 682.653 316.889 682.825C316.96 682.975 317.056 683.067 317.214 683.124C317.435 683.203 317.826 683.261 318.365 683.281C318.886 683.3 319.485 683.283 320.082 683.247C321.278 683.175 322.423 683.027 322.848 682.962C323.236 682.903 323.598 683.169 323.657 683.557C323.717 683.944 323.45 684.307 323.063 684.366C322.602 684.436 321.414 684.589 320.168 684.665C319.546 684.702 318.897 684.722 318.312 684.7C317.745 684.679 317.171 684.617 316.735 684.461C315.595 684.052 315.334 682.949 315.334 682.024L315.334 675.501Z" fill="#FF00FF"/>
<path fill-rule="evenodd" clip-rule="evenodd" d="M376.632 677.044C376.632 676.967 376.57 676.904 376.492 676.904L369.901 676.904C369.508 676.904 369.191 676.587 369.191 676.194C369.191 675.802 369.508 675.484 369.901 675.484L376.632 675.484C377.417 675.484 378.052 676.12 378.052 676.904V682.595C378.052 683.38 377.417 684.015 376.632 684.015L369.657 684.015C369.265 684.015 368.947 683.698 368.947 683.305C368.947 682.913 369.265 682.595 369.657 682.595L376.492 682.595C376.57 682.595 376.632 682.533 376.632 682.455V677.044Z" fill="#FF00FF"/>
<path fill-rule="evenodd" clip-rule="evenodd" d="M424.747 674.698C424.357 674.656 424.007 674.938 423.965 675.328C423.923 675.718 424.205 676.068 424.595 676.11C426.564 676.322 428.96 676.795 430.935 677.379C431.312 677.49 431.706 677.276 431.818 676.9C431.929 676.523 431.714 676.129 431.338 676.017C429.28 675.409 426.8 674.919 424.747 674.698ZM423.774 678.662C423.827 678.273 424.185 678.001 424.573 678.054C426.507 678.318 428.842 678.782 430.898 679.369C431.275 679.477 431.494 679.87 431.386 680.247C431.278 680.624 430.885 680.842 430.508 680.734C428.525 680.168 426.256 679.717 424.381 679.461C423.993 679.408 423.721 679.05 423.774 678.662ZM422.879 682.153C422.932 681.764 423.29 681.492 423.679 681.545C425.608 681.808 429.695 682.669 431.673 683.433C432.038 683.575 432.22 683.986 432.079 684.351C431.938 684.717 431.527 684.899 431.161 684.758C429.33 684.051 425.367 683.209 423.487 682.952C423.098 682.899 422.826 682.542 422.879 682.153Z" fill="#FF00FF"/>
<path fill-rule="evenodd" clip-rule="evenodd" d="M477.599 674.961C477.207 674.961 476.889 675.279 476.889 675.671C476.889 676.063 477.207 676.381 477.599 676.381H479.646C479.723 676.381 479.786 676.444 479.786 676.521V678.252C479.786 678.329 479.723 678.392 479.646 678.392H476.848C476.456 678.392 476.138 678.71 476.138 679.102C476.138 679.494 476.456 679.812 476.848 679.812H479.646C479.723 679.812 479.786 679.875 479.786 679.952V681.793V681.8C479.786 682.166 479.786 682.65 479.914 683.086C480.058 683.574 480.369 684.03 480.964 684.283C481.327 684.437 481.782 684.499 482.211 684.524C482.657 684.55 483.148 684.54 483.621 684.512C484.569 684.458 485.498 684.333 485.952 684.263C486.34 684.204 486.606 683.842 486.547 683.454C486.488 683.066 486.125 682.8 485.738 682.859C485.307 682.925 484.426 683.044 483.54 683.095C483.097 683.12 482.665 683.128 482.294 683.106C481.906 683.084 481.651 683.032 481.52 682.976C481.386 682.919 481.323 682.844 481.276 682.684C481.215 682.476 481.206 682.199 481.206 681.793V679.952C481.206 679.875 481.268 679.812 481.346 679.812H486.152C486.544 679.812 486.862 679.494 486.862 679.102C486.862 678.71 486.544 678.392 486.152 678.392H481.346C481.268 678.392 481.206 678.329 481.206 678.252V676.521C481.206 676.444 481.268 676.381 481.346 676.381H485.406C485.798 676.381 486.116 676.063 486.116 675.671C486.116 675.279 485.798 674.961 485.406 674.961H477.599Z" fill="#FF00FF"/>
<path fill-rule="evenodd" clip-rule="evenodd" d="M531.03 656.96C530.923 656.96 530.819 656.972 530.72 656.994C530.338 657.079 529.958 656.837 529.873 656.454C529.788 656.072 530.03 655.692 530.413 655.607C530.612 655.563 530.819 655.54 531.03 655.54H531.5C531.893 655.54 532.21 655.858 532.21 656.25C532.21 656.642 531.893 656.96 531.5 656.96H531.03ZM533.22 656.25C533.22 655.858 533.537 655.54 533.93 655.54H534.87C535.263 655.54 535.58 655.858 535.58 656.25C535.58 656.642 535.263 656.96 534.87 656.96H533.93C533.537 656.96 533.22 656.642 533.22 656.25ZM536.59 656.25C536.59 655.858 536.907 655.54 537.3 655.54H537.77C537.981 655.54 538.188 655.563 538.387 655.607C538.77 655.692 539.012 656.072 538.927 656.454C538.842 656.837 538.463 657.079 538.08 656.994C537.981 656.972 537.877 656.96 537.77 656.96H537.3C536.907 656.96 536.59 656.642 536.59 656.25ZM529.104 657.223C529.487 657.308 529.729 657.688 529.644 658.07C529.622 658.169 529.61 658.273 529.61 658.38V658.85C529.61 659.243 529.292 659.56 528.9 659.56C528.508 659.56 528.19 659.243 528.19 658.85V658.38C528.19 658.169 528.213 657.962 528.257 657.763C528.342 657.38 528.722 657.138 529.104 657.223ZM539.696 657.223C540.078 657.138 540.458 657.38 540.543 657.763C540.587 657.962 540.61 658.169 540.61 658.38V658.85C540.61 659.243 540.292 659.56 539.9 659.56C539.508 659.56 539.19 659.243 539.19 658.85V658.38C539.19 658.273 539.178 658.169 539.156 658.07C539.071 657.688 539.313 657.308 539.696 657.223ZM539.9 660.57C540.292 660.57 540.61 660.887 540.61 661.28V662.22C540.61 662.613 540.292 662.93 539.9 662.93C539.508 662.93 539.19 662.613 539.19 662.22V661.28C539.19 660.887 539.508 660.57 539.9 660.57ZM528.9 660.57C529.292 660.57 529.61 660.887 529.61 661.28V662.22C529.61 662.613 529.292 662.93 528.9 662.93C528.508 662.93 528.19 662.613 528.19 662.22V661.28C528.19 660.887 528.508 660.57 528.9 660.57ZM539.9 663.94C540.292 663.94 540.61 664.257 540.61 664.65V665.12C540.61 665.331 540.587 665.538 540.543 665.737C540.458 666.12 540.078 666.362 539.696 666.277C539.313 666.192 539.071 665.813 539.156 665.43C539.178 665.331 539.19 665.227 539.19 665.12V664.65C539.19 664.257 539.508 663.94 539.9 663.94ZM538.927 667.046C539.012 667.428 538.77 667.808 538.387 667.893C538.188 667.937 537.981 667.96 537.77 667.96H537.3C536.907 667.96 536.59 667.642 536.59 667.25C536.59 666.858 536.907 666.54 537.3 666.54H537.77C537.877 666.54 537.981 666.528 538.08 666.506C538.463 666.421 538.842 666.663 538.927 667.046ZM533.22 667.25C533.22 666.858 533.537 666.54 533.93 666.54H534.87C535.263 666.54 535.58 666.858 535.58 667.25C535.58 667.642 535.263 667.96 534.87 667.96H533.93C533.537 667.96 533.22 667.642 533.22 667.25ZM528.787 664.478C528.49 664.222 528.042 664.255 527.786 664.552C527.53 664.849 527.563 665.297 527.86 665.553C528.405 666.023 529.238 666.858 529.875 667.737C530.105 668.055 530.548 668.126 530.866 667.896C531.184 667.666 531.255 667.222 531.025 666.905C530.31 665.916 529.395 665.002 528.787 664.478Z" fill="#FF00FF"/>
<path fill-rule="evenodd" clip-rule="evenodd" d="M535.031 674.943C535.031 674.551 534.714 674.233 534.321 674.233C533.929 674.233 533.611 674.551 533.611 674.943V675.752C533.611 675.83 533.549 675.892 533.471 675.892L530.447 675.892C530.055 675.892 529.737 676.21 529.737 676.602C529.737 676.995 530.055 677.312 530.447 677.312L536.346 677.312C536.47 677.312 536.531 677.46 536.439 677.543C536.36 677.615 536.274 677.689 536.182 677.764C535.675 678.183 535.023 678.617 534.286 679.038C532.81 679.882 531.047 680.644 529.529 681.118C529.154 681.235 528.946 681.633 529.062 682.007C529.179 682.382 529.577 682.59 529.952 682.473C531.049 682.131 532.257 681.651 533.409 681.098C533.503 681.053 533.611 681.121 533.611 681.225V684.556C533.611 684.948 533.929 685.266 534.321 685.266C534.714 685.266 535.031 684.948 535.031 684.556V681.047C535.031 680.943 535.141 680.875 535.234 680.921L538.735 682.658C539.087 682.832 539.513 682.688 539.687 682.337C539.861 681.986 539.718 681.56 539.366 681.386L536.165 679.798C536.068 679.75 536.06 679.614 536.149 679.554C536.487 679.326 536.802 679.094 537.086 678.86C537.662 678.385 538.163 677.86 538.433 677.306C538.605 676.951 538.541 676.567 538.332 676.294C538.135 676.036 537.827 675.892 537.507 675.892L535.171 675.892C535.094 675.892 535.031 675.83 535.031 675.752V674.943Z" fill="#FF00FF"/>
<path fill-rule="evenodd" clip-rule="evenodd" d="M585.03 656.96C584.923 656.96 584.819 656.972 584.72 656.994C584.338 657.079 583.958 656.837 583.873 656.454C583.789 656.072 584.03 655.692 584.413 655.607C584.612 655.563 584.819 655.54 585.03 655.54H585.501C585.893 655.54 586.211 655.858 586.211 656.25C586.211 656.642 585.893 656.96 585.501 656.96H585.03ZM587.22 656.25C587.22 655.858 587.538 655.54 587.93 655.54H588.871C589.263 655.54 589.581 655.858 589.581 656.25C589.581 656.642 589.263 656.96 588.871 656.96H587.93C587.538 656.96 587.22 656.642 587.22 656.25ZM590.59 656.25C590.59 655.858 590.908 655.54 591.3 655.54H591.77C591.981 655.54 592.188 655.563 592.387 655.607C592.77 655.692 593.012 656.072 592.927 656.454C592.842 656.837 592.463 657.079 592.08 656.994C591.981 656.972 591.877 656.96 591.77 656.96H591.3C590.908 656.96 590.59 656.642 590.59 656.25ZM583.105 657.223C583.487 657.308 583.729 657.688 583.644 658.07C583.622 658.169 583.61 658.273 583.61 658.38V658.85C583.61 659.243 583.292 659.56 582.9 659.56C582.508 659.56 582.19 659.243 582.19 658.85V658.38C582.19 658.169 582.213 657.962 582.258 657.763C582.343 657.38 582.722 657.138 583.105 657.223ZM593.696 657.223C594.079 657.138 594.458 657.38 594.543 657.763C594.587 657.962 594.61 658.169 594.61 658.38V658.85C594.61 659.243 594.292 659.56 593.9 659.56C593.508 659.56 593.19 659.243 593.19 658.85V658.38C593.19 658.273 593.178 658.169 593.156 658.07C593.071 657.688 593.313 657.308 593.696 657.223ZM593.9 660.57C594.292 660.57 594.61 660.887 594.61 661.28V662.22C594.61 662.613 594.292 662.93 593.9 662.93C593.508 662.93 593.19 662.613 593.19 662.22V661.28C593.19 660.887 593.508 660.57 593.9 660.57ZM582.9 660.57C583.292 660.57 583.61 660.887 583.61 661.28V662.22C583.61 662.613 583.292 662.93 582.9 662.93C582.508 662.93 582.19 662.613 582.19 662.22V661.28C582.19 660.887 582.508 660.57 582.9 660.57ZM593.9 663.94C594.292 663.94 594.61 664.257 594.61 664.65V665.12C594.61 665.331 594.587 665.538 594.543 665.737C594.458 666.12 594.079 666.362 593.696 666.277C593.313 666.192 593.071 665.813 593.156 665.43C593.178 665.331 593.19 665.227 593.19 665.12V664.65C593.19 664.257 593.508 663.94 593.9 663.94ZM592.927 667.046C593.012 667.428 592.77 667.808 592.387 667.893C592.188 667.937 591.981 667.96 591.77 667.96H591.3C590.908 667.96 590.59 667.642 590.59 667.25C590.59 666.858 590.908 666.54 591.3 666.54H591.77C591.877 666.54 591.981 666.528 592.08 666.506C592.463 666.421 592.842 666.663 592.927 667.046ZM587.22 667.25C587.22 666.858 587.538 666.54 587.93 666.54H588.871C589.263 666.54 589.581 666.858 589.581 667.25C589.581 667.642 589.263 667.96 588.871 667.96H587.93C587.538 667.96 587.22 667.642 587.22 667.25ZM581.11 666.555C581.11 665.183 582.223 664.07 583.595 664.07C584.968 664.07 586.08 665.183 586.08 666.555C586.08 667.927 584.968 669.04 583.595 669.04C582.223 669.04 581.11 667.927 581.11 666.555ZM582.53 666.555C582.53 665.967 583.007 665.49 583.595 665.49C584.183 665.49 584.66 665.967 584.66 666.555C584.66 667.143 584.183 667.62 583.595 667.62C583.007 667.62 582.53 667.143 582.53 666.555Z" fill="#FF00FF"/>
<path fill-rule="evenodd" clip-rule="evenodd" d="M587.611 675.311C587.611 674.919 587.293 674.601 586.901 674.601C586.509 674.601 586.191 674.919 586.191 675.311V678.927C586.191 679.827 586.008 680.798 585.658 681.65C585.306 682.508 584.807 683.197 584.211 683.602C583.886 683.823 583.802 684.264 584.023 684.588C584.243 684.913 584.685 684.997 585.009 684.776C585.905 684.167 586.551 683.214 586.972 682.189C587.394 681.16 587.611 680.006 587.611 678.927V675.311ZM590.733 675.312L590.733 683.012C590.733 683.103 590.819 683.17 590.906 683.141C591.693 682.872 592.791 682.068 593.586 680.235C593.741 679.875 594.159 679.71 594.519 679.866C594.879 680.022 595.044 680.44 594.888 680.799C593.798 683.315 592.074 684.454 590.706 684.643C589.807 684.768 589.313 683.972 589.313 683.349L589.313 675.312C589.313 674.919 589.631 674.602 590.023 674.602C590.415 674.602 590.733 674.919 590.733 675.312Z" fill="#FF00FF"/>
<path fill-rule="evenodd" clip-rule="evenodd" d="M638.72 656.994C638.819 656.972 638.923 656.96 639.03 656.96H639.5C639.892 656.96 640.21 656.642 640.21 656.25C640.21 655.858 639.892 655.54 639.5 655.54H639.03C638.819 655.54 638.612 655.563 638.413 655.607C638.03 655.692 637.788 656.072 637.873 656.454C637.958 656.837 638.337 657.079 638.72 656.994ZM641.93 655.54C641.537 655.54 641.22 655.858 641.22 656.25C641.22 656.642 641.537 656.96 641.93 656.96H642.87C643.262 656.96 643.58 656.642 643.58 656.25C643.58 655.858 643.262 655.54 642.87 655.54H641.93ZM645.3 655.54C644.907 655.54 644.59 655.858 644.59 656.25C644.59 656.642 644.907 656.96 645.3 656.96H645.77C645.877 656.96 645.981 656.972 646.08 656.994C646.462 657.079 646.842 656.837 646.927 656.454C647.012 656.072 646.77 655.692 646.387 655.607C646.188 655.563 645.981 655.54 645.77 655.54H645.3ZM637.644 658.07C637.729 657.688 637.487 657.308 637.104 657.223C636.722 657.138 636.342 657.38 636.257 657.763C636.213 657.962 636.19 658.169 636.19 658.38V658.85C636.19 659.243 636.508 659.56 636.9 659.56C637.292 659.56 637.61 659.243 637.61 658.85V658.38C637.61 658.273 637.622 658.169 637.644 658.07ZM648.542 657.763C648.458 657.38 648.078 657.138 647.696 657.223C647.313 657.308 647.071 657.688 647.156 658.07C647.178 658.169 647.19 658.273 647.19 658.38V658.85C647.19 659.243 647.508 659.56 647.9 659.56C648.292 659.56 648.61 659.243 648.61 658.85V658.38C648.61 658.169 648.587 657.962 648.542 657.763ZM648.61 661.28C648.61 660.887 648.292 660.57 647.9 660.57C647.508 660.57 647.19 660.887 647.19 661.28V662.22C647.19 662.613 647.508 662.93 647.9 662.93C648.292 662.93 648.61 662.613 648.61 662.22V661.28ZM637.61 661.28C637.61 660.887 637.292 660.57 636.9 660.57C636.508 660.57 636.19 660.887 636.19 661.28V662.22C636.19 662.613 636.508 662.93 636.9 662.93C637.292 662.93 637.61 662.613 637.61 662.22V661.28ZM648.61 664.65C648.61 664.257 648.292 663.94 647.9 663.94C647.508 663.94 647.19 664.257 647.19 664.65V665.12C647.19 665.227 647.178 665.331 647.156 665.43C647.071 665.813 647.313 666.192 647.696 666.277C648.078 666.362 648.458 666.12 648.542 665.737C648.587 665.538 648.61 665.331 648.61 665.12V664.65ZM637.61 664.65C637.61 664.257 637.292 663.94 636.9 663.94C636.508 663.94 636.19 664.257 636.19 664.65V665.12C636.19 665.331 636.213 665.538 636.257 665.737C636.342 666.12 636.722 666.362 637.104 666.277C637.487 666.192 637.729 665.813 637.644 665.43C637.622 665.331 637.61 665.227 637.61 665.12V664.65ZM638.72 666.506C638.337 666.421 637.958 666.663 637.873 667.046C637.788 667.428 638.03 667.808 638.413 667.893C638.612 667.937 638.819 667.96 639.03 667.96H639.5C639.892 667.96 640.21 667.642 640.21 667.25C640.21 666.858 639.892 666.54 639.5 666.54H639.03C638.923 666.54 638.819 666.528 638.72 666.506ZM646.387 667.893C646.77 667.808 647.012 667.428 646.927 667.046C646.842 666.663 646.462 666.421 646.08 666.506C645.981 666.528 645.877 666.54 645.77 666.54H645.3C644.907 666.54 644.59 666.858 644.59 667.25C644.59 667.642 644.907 667.96 645.3 667.96H645.77C645.981 667.96 646.188 667.937 646.387 667.893ZM641.93 666.54C641.537 666.54 641.22 666.858 641.22 667.25C641.22 667.642 641.537 667.96 641.93 667.96H642.87C643.262 667.96 643.58 667.642 643.58 667.25C643.58 666.858 643.262 666.54 642.87 666.54H641.93ZM642.4 663.17C643.184 663.17 643.82 662.534 643.82 661.75C643.82 660.966 643.184 660.33 642.4 660.33C641.616 660.33 640.98 660.966 640.98 661.75C640.98 662.534 641.616 663.17 642.4 663.17Z" fill="#FF00FF"/>
<path fill-rule="evenodd" clip-rule="evenodd" d="M646.455 675.56C646.55 675.179 646.317 674.794 645.937 674.7C645.556 674.606 645.171 674.838 645.077 675.219C644.753 676.527 644.282 677.734 643.628 678.827C643.584 678.901 643.484 678.916 643.418 678.86C642.316 677.917 641.186 677.084 640.242 676.53C639.904 676.331 639.469 676.444 639.271 676.782C639.072 677.12 639.185 677.555 639.523 677.754C640.431 678.288 641.54 679.112 642.614 680.042C642.671 680.091 642.679 680.177 642.631 680.235C641.553 681.527 640.138 682.614 638.31 683.467C637.954 683.633 637.801 684.055 637.967 684.41C638.133 684.766 638.555 684.919 638.91 684.754C640.908 683.821 642.47 682.624 643.668 681.207C643.721 681.145 643.815 681.14 643.874 681.196C644.626 681.929 645.308 682.678 645.823 683.367C646.058 683.681 646.503 683.745 646.817 683.511C647.131 683.276 647.196 682.831 646.961 682.517C646.362 681.715 645.566 680.85 644.695 680.015C644.646 679.969 644.637 679.894 644.673 679.837C645.491 678.546 646.072 677.112 646.455 675.56Z" fill="#FF00FF"/>
<path fill-rule="evenodd" clip-rule="evenodd" d="M116.759 566.859C117.121 567.01 117.291 567.426 117.14 567.788C117.09 567.909 117.038 568.027 116.985 568.144C116.943 568.238 117.011 568.345 117.114 568.345L120.611 568.345C121.226 568.345 121.739 568.875 121.664 569.52C121.473 571.155 120.924 572.845 119.756 574.295C118.583 575.751 116.826 576.915 114.308 577.556C113.928 577.652 113.542 577.423 113.445 577.043C113.348 576.663 113.578 576.276 113.958 576.18C115.725 575.73 117.013 575.012 117.947 574.153C118.006 574.099 118.006 574.007 117.947 573.952C117.391 573.438 116.702 572.881 116.071 572.476C115.74 572.265 115.644 571.826 115.856 571.495C116.068 571.165 116.507 571.069 116.837 571.281C117.523 571.721 118.252 572.306 118.854 572.857C118.917 572.915 119.017 572.904 119.064 572.832C119.643 571.937 119.99 570.944 120.17 569.926C120.185 569.842 120.119 569.765 120.033 569.765L116.168 569.765C116.122 569.765 116.078 569.788 116.052 569.827C115.366 570.84 114.521 571.693 113.458 572.469C113.141 572.701 112.697 572.631 112.466 572.314C112.234 571.998 112.304 571.554 112.621 571.322C114.119 570.229 115.099 568.99 115.83 567.241C115.981 566.879 116.397 566.708 116.759 566.859Z" fill="#FF00FF"/>
<path fill-rule="evenodd" clip-rule="evenodd" d="M166.691 568.146C166.691 567.754 167.009 567.436 167.401 567.436H174.599C174.991 567.436 175.309 567.754 175.309 568.146C175.309 568.538 174.991 568.856 174.599 568.856H167.401C167.009 568.856 166.691 568.538 166.691 568.146ZM165.638 571.167C165.638 570.775 165.956 570.457 166.348 570.457H175.652C176.044 570.457 176.362 570.775 176.362 571.167C176.362 571.56 176.044 571.877 175.652 571.877H172.173C172.099 571.877 172.038 571.935 172.033 572.009C171.946 573.262 171.734 574.319 171.211 575.185C170.566 576.253 169.522 576.919 168.015 577.41C167.642 577.532 167.241 577.328 167.12 576.956C166.998 576.583 167.202 576.182 167.575 576.06C168.91 575.625 169.595 575.114 169.995 574.451C170.339 573.883 170.522 573.127 170.607 572.027C170.614 571.946 170.549 571.877 170.468 571.877H166.348C165.956 571.877 165.638 571.56 165.638 571.167Z" fill="#FF00FF"/>
<path fill-rule="evenodd" clip-rule="evenodd" d="M228.91 550.816C229.162 550.515 229.122 550.067 228.822 549.816C228.521 549.564 228.073 549.603 227.821 549.904C226.278 551.746 223.795 553.047 221.725 553.774C221.355 553.904 221.16 554.309 221.29 554.679C221.42 555.049 221.826 555.244 222.195 555.114C223.077 554.804 224.052 554.389 225.019 553.865C225.113 553.814 225.228 553.882 225.228 553.988V557.444C225.228 557.836 225.546 558.154 225.938 558.154C226.33 558.154 226.648 557.836 226.648 557.444V552.931C226.648 552.885 226.67 552.842 226.707 552.816C227.519 552.238 228.277 551.572 228.91 550.816Z" fill="#FF00FF"/>
<path fill-rule="evenodd" clip-rule="evenodd" d="M229.632 567.698C229.883 567.396 229.842 566.949 229.54 566.698C229.239 566.447 228.791 566.489 228.541 566.79C227.773 567.713 226.494 568.751 225.041 569.667C223.592 570.581 222.025 571.338 220.711 571.728C220.335 571.84 220.121 572.235 220.233 572.611C220.345 572.987 220.74 573.201 221.116 573.089C222.341 572.725 223.714 572.095 225.019 571.34C225.113 571.285 225.231 571.353 225.231 571.461V576.256C225.231 576.648 225.549 576.966 225.941 576.966C226.333 576.966 226.651 576.648 226.651 576.256V570.378C226.651 570.333 226.673 570.29 226.711 570.263C227.873 569.452 228.916 568.559 229.632 567.698Z" fill="#FF00FF"/>
<path fill-rule="evenodd" clip-rule="evenodd" d="M275.253 567.048C274.861 567.048 274.543 567.366 274.543 567.758C274.543 568.15 274.861 568.468 275.253 568.468H281.029C281.123 568.468 281.191 568.56 281.16 568.649C280.278 571.172 277.77 573.729 274.251 575.079C273.885 575.219 273.702 575.63 273.842 575.996C273.983 576.362 274.393 576.545 274.76 576.405C276.72 575.653 278.434 574.541 279.779 573.23C279.828 573.182 279.905 573.177 279.961 573.218C281.198 574.134 282.02 574.904 282.96 575.982C283.217 576.278 283.666 576.308 283.962 576.051C284.257 575.793 284.288 575.345 284.03 575.049C283.051 573.926 282.18 573.106 280.936 572.173C280.872 572.126 280.861 572.035 280.909 571.972C281.802 570.829 282.431 569.589 282.73 568.336C282.896 567.644 282.349 567.048 281.703 567.048H275.253Z" fill="#FF00FF"/>
<path fill-rule="evenodd" clip-rule="evenodd" d="M333.289 567.22C333.289 566.828 332.971 566.51 332.579 566.51C332.187 566.51 331.869 566.828 331.869 567.22C331.869 567.686 331.864 568.128 331.852 568.549C331.85 568.625 331.788 568.685 331.712 568.685L329.18 568.685C328.788 568.685 328.47 569.003 328.47 569.395C328.47 569.787 328.788 570.105 329.18 570.105L331.602 570.105C331.685 570.105 331.75 570.176 331.74 570.259C331.654 571.023 331.515 571.708 331.296 572.332C330.834 573.643 330.001 574.723 328.419 575.671C328.083 575.872 327.973 576.309 328.175 576.645C328.377 576.981 328.813 577.091 329.149 576.889C330.991 575.786 332.055 574.452 332.635 572.803C332.915 572.009 333.078 571.151 333.171 570.232C333.179 570.16 333.239 570.105 333.311 570.105L336.325 570.105C336.406 570.105 336.471 570.174 336.465 570.255C336.428 570.776 336.407 571.291 336.387 571.776L336.387 571.776L336.387 571.776C336.377 572.011 336.367 572.239 336.356 572.457C336.314 573.305 336.254 573.995 336.109 574.518C335.966 575.039 335.778 575.254 335.585 575.346C335.371 575.448 334.938 575.504 334.076 575.211C333.705 575.086 333.302 575.284 333.176 575.656C333.05 576.027 333.249 576.43 333.62 576.556C334.613 576.893 335.486 576.967 336.197 576.627C336.929 576.278 337.287 575.59 337.478 574.896C337.669 574.204 337.733 573.369 337.775 572.527C337.786 572.287 337.797 572.046 337.807 571.803C337.834 571.165 337.861 570.516 337.922 569.855C337.978 569.238 337.497 568.685 336.857 568.685L333.414 568.685C333.334 568.685 333.271 568.619 333.273 568.54C333.285 568.112 333.289 567.672 333.289 567.22Z" fill="#FF00FF"/>
<path fill-rule="evenodd" clip-rule="evenodd" d="M383.205 567.452C382.845 567.296 382.427 567.461 382.271 567.82C382.114 568.18 382.279 568.598 382.638 568.754C383.608 569.177 384.834 569.958 385.56 570.545C385.864 570.792 386.311 570.745 386.558 570.44C386.805 570.135 386.758 569.688 386.453 569.441C385.643 568.785 384.308 567.933 383.205 567.452ZM391.756 569.39C391.874 569.016 391.666 568.617 391.292 568.499C390.918 568.381 390.519 568.589 390.401 568.963C389.866 570.659 389.163 572.038 388.068 573.057C386.982 574.067 385.446 574.783 383.131 575.032C382.741 575.074 382.459 575.424 382.501 575.814C382.543 576.204 382.893 576.486 383.283 576.444C385.831 576.17 387.677 575.36 389.035 574.097C390.383 572.843 391.184 571.202 391.756 569.39Z" fill="#FF00FF"/>
<path fill-rule="evenodd" clip-rule="evenodd" d="M442.275 567.169C442.275 566.777 441.957 566.459 441.565 566.459C441.173 566.459 440.855 566.777 440.855 567.169V569.418C440.855 569.42 440.853 569.422 440.851 569.422H436.348C435.956 569.422 435.638 569.74 435.638 570.132C435.638 570.524 435.956 570.842 436.348 570.842H440.668C440.749 570.842 440.813 570.91 440.808 570.991C440.725 572.182 440.529 573.029 440.174 573.676C439.704 574.529 438.895 575.136 437.34 575.658C436.968 575.782 436.767 576.185 436.892 576.557C437.017 576.928 437.419 577.129 437.791 577.004C439.518 576.425 440.708 575.651 441.418 574.36C441.921 573.445 442.148 572.33 442.232 570.974C442.237 570.9 442.298 570.842 442.372 570.842H445.652C446.044 570.842 446.362 570.524 446.362 570.132C446.362 569.74 446.044 569.422 445.652 569.422H442.278C442.276 569.422 442.275 569.42 442.275 569.418V567.169Z" fill="#FF00FF"/>
<path fill-rule="evenodd" clip-rule="evenodd" d="M491.548 569.125C491.156 569.125 490.838 568.807 490.838 568.415C490.838 568.023 491.156 567.705 491.548 567.705H498.462C498.854 567.705 499.172 568.023 499.172 568.415C499.172 568.807 498.854 569.125 498.462 569.125L491.548 569.125ZM499.456 574.375L490.543 574.375C490.151 574.375 489.833 574.693 489.833 575.085C489.833 575.477 490.151 575.795 490.543 575.795L499.456 575.795C499.849 575.795 500.166 575.477 500.166 575.085C500.166 574.693 499.849 574.375 499.456 574.375Z" fill="#FF00FF"/>
<path fill-rule="evenodd" clip-rule="evenodd" d="M545.83 566.657C545.438 566.657 545.12 566.975 545.12 567.367C545.12 567.759 545.438 568.077 545.83 568.077L552.257 568.077C552.65 568.077 552.967 567.759 552.967 567.367C552.967 566.975 552.65 566.657 552.257 566.657L545.83 566.657ZM544.95 569.494C544.557 569.494 544.24 569.812 544.24 570.204C544.239 570.597 544.557 570.914 544.949 570.914L552.145 570.915C552.235 570.915 552.302 570.999 552.279 571.086C552.032 572.023 551.551 572.927 550.767 573.673C549.913 574.486 548.664 575.146 546.87 575.432C546.483 575.494 546.219 575.858 546.281 576.245C546.343 576.632 546.707 576.896 547.094 576.834C549.13 576.509 550.656 575.739 551.746 574.702C552.834 573.667 553.452 572.398 553.728 571.133C553.926 570.223 553.186 569.495 552.371 569.495L544.95 569.494Z" fill="#FF00FF"/>
<path fill-rule="evenodd" clip-rule="evenodd" d="M600.48 567.354C600.48 566.962 600.798 566.644 601.19 566.644C601.583 566.644 601.9 566.962 601.9 567.354V569.297C601.9 569.382 601.976 569.448 602.06 569.436L607.077 568.737C607.774 568.64 608.451 569.27 608.237 570.043C607.816 571.56 606.872 572.701 605.238 573.696C604.903 573.9 604.466 573.794 604.262 573.459C604.058 573.124 604.165 572.687 604.499 572.483C605.546 571.846 606.182 571.197 606.564 570.453C606.613 570.355 606.531 570.246 606.423 570.262L602.021 570.875C601.952 570.885 601.9 570.944 601.9 571.014V574.135C601.9 574.502 601.953 574.763 602.035 574.936C602.107 575.086 602.202 575.178 602.361 575.235C602.873 575.418 603.783 575.463 604.768 575.421C605.719 575.381 606.623 575.266 607.048 575.201C607.436 575.142 607.798 575.408 607.857 575.796C607.916 576.183 607.65 576.545 607.263 576.605C606.802 576.675 605.845 576.796 604.829 576.84C603.847 576.882 602.683 576.859 601.881 576.571C600.741 576.162 600.48 575.059 600.48 574.135V571.251C600.48 571.166 600.405 571.1 600.321 571.112L598.531 571.361C598.142 571.416 597.784 571.145 597.73 570.756C597.675 570.368 597.946 570.009 598.335 569.955L600.36 569.673C600.429 569.663 600.48 569.604 600.48 569.534V567.354Z" fill="#FF00FF"/>
<path fill-rule="evenodd" clip-rule="evenodd" d="M657.81 550.921C657.81 550.529 657.492 550.211 657.1 550.211H655.059C654.473 550.211 653.999 550.685 653.999 551.271V556.58C653.999 556.972 654.317 557.29 654.709 557.29C655.101 557.29 655.419 556.972 655.419 556.58V551.771C655.419 551.693 655.481 551.631 655.559 551.631H657.1C657.492 551.631 657.81 551.313 657.81 550.921Z" fill="#FF00FF"/>
<path fill-rule="evenodd" clip-rule="evenodd" d="M660.294 565.452C660.575 565.178 661.024 565.184 661.298 565.464C661.615 565.79 662.036 566.342 662.302 566.796C662.5 567.135 662.387 567.57 662.049 567.768C661.71 567.966 661.275 567.853 661.077 567.515C660.865 567.153 660.513 566.693 660.281 566.456C660.007 566.175 660.013 565.725 660.294 565.452ZM658.444 566.779C658.725 566.505 659.175 566.511 659.448 566.792C659.765 567.117 660.186 567.67 660.453 568.124C660.651 568.462 660.537 568.897 660.199 569.095C659.861 569.294 659.426 569.18 659.228 568.842C659.016 568.48 658.663 568.02 658.432 567.783C658.158 567.502 658.164 567.053 658.444 566.779ZM659.27 576.54C659.377 576.54 659.481 576.528 659.58 576.506C659.962 576.421 660.342 576.663 660.427 577.046C660.512 577.429 660.27 577.808 659.887 577.893C659.688 577.937 659.481 577.96 659.27 577.96H658.8C658.407 577.96 658.09 577.642 658.09 577.25C658.09 576.858 658.407 576.54 658.8 576.54H659.27ZM657.08 577.25C657.08 577.642 656.762 577.96 656.37 577.96H655.43C655.037 577.96 654.72 577.642 654.72 577.25C654.72 576.858 655.037 576.54 655.43 576.54H656.37C656.762 576.54 657.08 576.858 657.08 577.25ZM653.71 577.25C653.71 577.642 653.392 577.96 653 577.96H652.53C652.319 577.96 652.112 577.937 651.913 577.893C651.53 577.808 651.288 577.429 651.373 577.046C651.458 576.663 651.837 576.421 652.22 576.506C652.319 576.528 652.423 576.54 652.53 576.54H653C653.392 576.54 653.71 576.858 653.71 577.25ZM661.196 576.277C660.813 576.192 660.571 575.813 660.656 575.43C660.678 575.331 660.69 575.227 660.69 575.12V574.65C660.69 574.258 661.008 573.94 661.4 573.94C661.792 573.94 662.11 574.258 662.11 574.65V575.12C662.11 575.331 662.087 575.538 662.042 575.738C661.958 576.12 661.578 576.362 661.196 576.277ZM650.604 576.277C650.222 576.362 649.842 576.12 649.757 575.738C649.713 575.538 649.69 575.331 649.69 575.12V574.65C649.69 574.258 650.008 573.94 650.4 573.94C650.792 573.94 651.11 574.258 651.11 574.65V575.12C651.11 575.227 651.122 575.331 651.144 575.43C651.229 575.813 650.987 576.192 650.604 576.277ZM650.4 572.931C650.008 572.931 649.69 572.613 649.69 572.221V571.28C649.69 570.888 650.008 570.57 650.4 570.57C650.792 570.57 651.11 570.888 651.11 571.28V572.221C651.11 572.613 650.792 572.931 650.4 572.931ZM661.4 572.931C661.008 572.931 660.69 572.613 660.69 572.221V571.28C660.69 570.888 661.008 570.57 661.4 570.57C661.792 570.57 662.11 570.888 662.11 571.28V572.221C662.11 572.613 661.792 572.931 661.4 572.931ZM650.4 569.561C650.008 569.561 649.69 569.243 649.69 568.851V568.38C649.69 568.169 649.713 567.962 649.757 567.763C649.842 567.38 650.222 567.139 650.604 567.224C650.987 567.308 651.229 567.688 651.144 568.07C651.122 568.17 651.11 568.273 651.11 568.38V568.851C651.11 569.243 650.792 569.561 650.4 569.561ZM651.373 566.455C651.288 566.072 651.53 565.693 651.913 565.608C652.112 565.563 652.319 565.54 652.53 565.54H653C653.392 565.54 653.71 565.858 653.71 566.25C653.71 566.642 653.392 566.96 653 566.96H652.53C652.423 566.96 652.319 566.972 652.22 566.994C651.837 567.079 651.458 566.837 651.373 566.455ZM657.08 566.25C657.08 566.642 656.762 566.96 656.37 566.96H655.43C655.037 566.96 654.72 566.642 654.72 566.25C654.72 565.858 655.037 565.54 655.43 565.54H656.37C656.762 565.54 657.08 565.858 657.08 566.25Z" fill="#FF00FF"/>
<path fill-rule="evenodd" clip-rule="evenodd" d="M707.99 556.58C707.99 556.972 708.308 557.29 708.7 557.29H710.741C711.327 557.29 711.801 556.815 711.801 556.23V550.921C711.801 550.529 711.483 550.211 711.091 550.211C710.699 550.211 710.381 550.529 710.381 550.921V555.73C710.381 555.807 710.318 555.87 710.241 555.87H708.7C708.308 555.87 707.99 556.187 707.99 556.58Z" fill="#FF00FF"/>
<path fill-rule="evenodd" clip-rule="evenodd" d="M716.4 567.38C716.4 568.556 715.446 569.51 714.27 569.51C713.094 569.51 712.14 568.556 712.14 567.38C712.14 566.204 713.094 565.25 714.27 565.25C715.446 565.25 716.4 566.204 716.4 567.38ZM714.98 567.38C714.98 567.772 714.662 568.09 714.27 568.09C713.878 568.09 713.56 567.772 713.56 567.38C713.56 566.988 713.878 566.67 714.27 566.67C714.662 566.67 714.98 566.988 714.98 567.38ZM713.27 576.54C713.377 576.54 713.481 576.528 713.58 576.506C713.962 576.421 714.342 576.663 714.427 577.046C714.512 577.429 714.27 577.808 713.887 577.893C713.688 577.937 713.481 577.96 713.27 577.96H712.8C712.407 577.96 712.09 577.642 712.09 577.25C712.09 576.858 712.407 576.54 712.8 576.54H713.27ZM711.08 577.25C711.08 577.642 710.762 577.96 710.37 577.96H709.43C709.037 577.96 708.72 577.642 708.72 577.25C708.72 576.858 709.037 576.54 709.43 576.54H710.37C710.762 576.54 711.08 576.858 711.08 577.25ZM707.71 577.25C707.71 577.642 707.392 577.96 707 577.96H706.53C706.319 577.96 706.112 577.937 705.913 577.893C705.53 577.808 705.288 577.429 705.373 577.046C705.458 576.663 705.837 576.421 706.22 576.506C706.319 576.528 706.423 576.54 706.53 576.54H707C707.392 576.54 707.71 576.858 707.71 577.25ZM715.196 576.277C714.813 576.192 714.571 575.813 714.656 575.43C714.678 575.331 714.69 575.227 714.69 575.12V574.65C714.69 574.258 715.008 573.94 715.4 573.94C715.792 573.94 716.11 574.258 716.11 574.65V575.12C716.11 575.331 716.087 575.538 716.042 575.738C715.958 576.12 715.578 576.362 715.196 576.277ZM704.604 576.277C704.222 576.362 703.842 576.12 703.757 575.738C703.713 575.538 703.69 575.331 703.69 575.12V574.65C703.69 574.258 704.008 573.94 704.4 573.94C704.792 573.94 705.11 574.258 705.11 574.65V575.12C705.11 575.227 705.122 575.331 705.144 575.43C705.229 575.813 704.987 576.192 704.604 576.277ZM704.4 572.931C704.008 572.931 703.69 572.613 703.69 572.221V571.28C703.69 570.888 704.008 570.57 704.4 570.57C704.792 570.57 705.11 570.888 705.11 571.28L705.11 572.221C705.11 572.613 704.792 572.931 704.4 572.931ZM715.4 572.931C715.008 572.931 714.69 572.613 714.69 572.221V571.28C714.69 570.888 715.008 570.57 715.4 570.57C715.792 570.57 716.11 570.888 716.11 571.28V572.221C716.11 572.613 715.792 572.931 715.4 572.931ZM704.4 569.561C704.008 569.561 703.69 569.243 703.69 568.851V568.38C703.69 568.169 703.713 567.962 703.757 567.763C703.842 567.38 704.222 567.139 704.604 567.224C704.987 567.308 705.229 567.688 705.144 568.07C705.122 568.17 705.11 568.273 705.11 568.38V568.851C705.11 569.243 704.792 569.561 704.4 569.561ZM705.373 566.455C705.288 566.072 705.53 565.693 705.913 565.608C706.112 565.563 706.319 565.54 706.53 565.54L707 565.54C707.392 565.54 707.71 565.858 707.71 566.25C707.71 566.642 707.392 566.96 707 566.96H706.53C706.423 566.96 706.319 566.972 706.22 566.994C705.837 567.079 705.458 566.837 705.373 566.455ZM711.08 566.25C711.08 566.642 710.762 566.96 710.37 566.96L709.43 566.96C709.037 566.96 708.72 566.642 708.72 566.25C708.72 565.858 709.037 565.54 709.43 565.54L710.37 565.54C710.762 565.54 711.08 565.858 711.08 566.25Z" fill="#FF00FF"/>
<path fill-rule="evenodd" clip-rule="evenodd" d="M787.795 575.074C787.774 575.12 787.73 575.15 787.679 575.154C787.563 575.162 787.451 575.17 787.344 575.177C786.953 575.203 786.656 575.541 786.682 575.932C786.707 576.323 787.045 576.62 787.437 576.594C789.472 576.461 793.343 576.008 795.512 575.632C795.578 575.621 795.642 575.658 795.666 575.72C795.76 575.969 795.85 576.222 795.937 576.477C796.063 576.848 796.466 577.047 796.838 576.921C797.209 576.795 797.408 576.391 797.282 576.02C796.637 574.122 795.778 572.339 794.969 571.075C794.758 570.745 794.319 570.648 793.988 570.86C793.658 571.071 793.562 571.51 793.773 571.84C794.172 572.463 794.591 573.238 794.99 574.102C795.028 574.186 794.977 574.283 794.886 574.297C793.44 574.533 791.386 574.793 789.622 574.976C789.515 574.987 789.437 574.88 789.479 574.781C790.527 572.309 791.487 569.182 791.95 567.375C792.047 566.995 791.818 566.609 791.438 566.511C791.058 566.414 790.671 566.643 790.574 567.023C790.064 569.019 788.937 572.629 787.795 575.074Z" fill="#FF00FF"/>
<path fill-rule="evenodd" clip-rule="evenodd" d="M207.295 413.074C207.274 413.12 207.23 413.15 207.179 413.154C207.063 413.162 206.951 413.17 206.844 413.177C206.453 413.203 206.156 413.541 206.182 413.932C206.207 414.323 206.545 414.62 206.937 414.594C208.972 414.461 212.843 414.008 215.012 413.632C215.078 413.621 215.142 413.658 215.166 413.72C215.26 413.969 215.35 414.222 215.437 414.477C215.563 414.848 215.966 415.047 216.338 414.921C216.709 414.795 216.908 414.391 216.782 414.02C216.137 412.122 215.278 410.339 214.469 409.075C214.258 408.745 213.819 408.648 213.488 408.86C213.158 409.071 213.062 409.51 213.273 409.84C213.672 410.463 214.091 411.238 214.49 412.102C214.528 412.186 214.477 412.283 214.386 412.297C212.94 412.533 210.886 412.793 209.122 412.976C209.015 412.987 208.937 412.88 208.979 412.781C210.027 410.309 210.987 407.182 211.45 405.375C211.547 404.995 211.318 404.609 210.938 404.511C210.558 404.414 210.171 404.643 210.074 405.023C209.564 407.019 208.437 410.629 207.295 413.074Z" fill="#FF00FF"/>
<path fill-rule="evenodd" clip-rule="evenodd" d="M155.934 404.403C156.307 404.525 156.51 404.926 156.387 405.299C156.276 405.637 156.156 405.972 156.021 406.305C155.983 406.398 156.051 406.5 156.152 406.5H162.224C162.616 406.5 162.934 406.818 162.934 407.21C162.934 407.602 162.616 407.92 162.224 407.92H160.165C160.093 407.92 160.032 407.975 160.025 408.047C159.883 409.466 159.569 410.796 158.908 411.949C158.111 413.338 156.846 414.405 154.934 415.091C154.564 415.224 154.158 415.032 154.026 414.663C153.893 414.293 154.085 413.887 154.454 413.755C156.088 413.169 157.067 412.304 157.676 411.242C158.18 410.364 158.456 409.308 158.594 408.074C158.603 407.992 158.539 407.92 158.456 407.92H155.3C155.251 407.92 155.205 407.946 155.18 407.987C154.691 408.783 154.068 409.548 153.242 410.267C152.947 410.525 152.498 410.494 152.241 410.198C151.983 409.903 152.014 409.454 152.309 409.197C153.777 407.918 154.506 406.475 155.038 404.856C155.16 404.483 155.562 404.28 155.934 404.403Z" fill="#FF00FF"/>
<path fill-rule="evenodd" clip-rule="evenodd" d="M99.2949 413.074C99.2736 413.12 99.2296 413.15 99.1794 413.154C99.0629 413.162 98.9509 413.17 98.8442 413.177C98.4529 413.203 98.1564 413.541 98.182 413.932C98.2075 414.323 98.5454 414.62 98.9367 414.594C100.972 414.461 104.843 414.008 107.012 413.632C107.078 413.621 107.142 413.658 107.166 413.72C107.26 413.969 107.35 414.222 107.437 414.477C107.563 414.848 107.966 415.047 108.338 414.921C108.709 414.795 108.908 414.391 108.782 414.02C108.137 412.122 107.278 410.339 106.469 409.075C106.258 408.745 105.819 408.648 105.488 408.86C105.158 409.071 105.062 409.51 105.273 409.84C105.672 410.463 106.091 411.238 106.49 412.102C106.528 412.186 106.477 412.283 106.386 412.297C104.94 412.533 102.886 412.793 101.122 412.976C101.015 412.987 100.937 412.88 100.979 412.781C102.027 410.309 102.987 407.182 103.45 405.375C103.547 404.995 103.318 404.609 102.938 404.511C102.558 404.414 102.171 404.643 102.074 405.023C101.564 407.019 100.437 410.629 99.2949 413.074Z" fill="#FF00FF"/>
<path fill-rule="evenodd" clip-rule="evenodd" d="M140.546 335.473L146.363 335.473C146.461 335.473 146.528 335.57 146.489 335.66C146.105 336.548 145.45 337.116 144.657 337.457C144.56 337.499 144.457 337.417 144.471 337.312C144.478 337.25 144.486 337.188 144.494 337.125C144.541 336.736 144.264 336.382 143.875 336.334C143.486 336.287 143.132 336.564 143.084 336.953C142.956 338.001 142.826 338.718 142.495 339.309C142.181 339.87 141.641 340.39 140.533 340.907C140.178 341.073 140.024 341.495 140.19 341.85C140.356 342.206 140.779 342.359 141.134 342.193C142.422 341.592 143.233 340.897 143.734 340.003C143.88 339.742 143.996 339.471 144.089 339.191C144.105 339.144 144.144 339.108 144.192 339.097C145.901 338.688 147.531 337.606 148.087 335.344C148.258 334.646 147.704 334.053 147.062 334.053H140.546C140.154 334.053 139.836 334.371 139.836 334.763C139.836 335.155 140.154 335.473 140.546 335.473Z" fill="#FF00FF"/>
<path fill-rule="evenodd" clip-rule="evenodd" d="M139.692 350.6C139.3 350.6 138.982 350.918 138.982 351.31C138.982 351.702 139.3 352.02 139.692 352.02L147.286 352.021C147.381 352.021 147.449 352.114 147.415 352.203C146.88 353.64 145.763 354.546 144.537 355.034C144.439 355.073 144.338 354.991 144.351 354.887C144.401 354.472 144.428 354.05 144.442 353.626C144.455 353.234 144.148 352.906 143.756 352.893C143.364 352.88 143.036 353.187 143.023 353.579C142.981 354.84 142.813 355.91 142.364 356.815C141.925 357.7 141.191 358.481 139.911 359.115C139.56 359.29 139.416 359.715 139.59 360.067C139.764 360.418 140.19 360.562 140.541 360.388C142.069 359.631 143.045 358.638 143.636 357.446C143.745 357.227 143.84 357.002 143.922 356.774C143.939 356.729 143.976 356.695 144.023 356.684C146.088 356.18 148.339 354.74 148.991 351.877C149.147 351.189 148.603 350.601 147.961 350.601L139.692 350.6Z" fill="#FF00FF"/>
<path fill-rule="evenodd" clip-rule="evenodd" d="M85.2024 351.35C85.2024 350.958 85.5203 350.64 85.9124 350.64L93.7374 350.64C94.3515 350.64 94.8615 351.168 94.7912 351.809C94.6042 353.514 94.0607 355.278 92.8976 356.794C91.7284 358.318 89.9697 359.543 87.4405 360.216C87.0616 360.317 86.6725 360.092 86.5716 359.713C86.4706 359.334 86.6959 358.945 87.0748 358.844C89.3333 358.243 90.8117 357.18 91.771 355.93C92.6164 354.828 93.0868 353.543 93.3027 352.22C93.3165 352.136 93.2509 352.06 93.1654 352.06L85.9124 352.06C85.5203 352.06 85.2024 351.742 85.2024 351.35Z" fill="#FF00FF"/>
<path fill-rule="evenodd" clip-rule="evenodd" d="M31.4062 353.637C31.4062 352.455 32.3644 351.497 33.5462 351.497H38.4536C39.6355 351.497 40.5936 352.455 40.5936 353.637V358.42C40.5936 358.422 40.5936 358.424 40.5936 358.426L40.5936 360.186C40.5936 360.578 40.2757 360.896 39.8836 360.896C39.4915 360.896 39.1736 360.578 39.1736 360.186L39.1736 359.98C39.1736 359.903 39.1109 359.84 39.0336 359.84H32.9663C32.889 359.84 32.8263 359.903 32.8263 359.98L32.8263 360.191C32.8263 360.583 32.5084 360.901 32.1163 360.901C31.7242 360.901 31.4063 360.583 31.4063 360.191L31.4063 358.428L31.4062 358.42V353.637ZM39.1736 355.055C39.1736 355.057 39.1736 355.058 39.1736 355.06L39.1736 358.28C39.1736 358.357 39.1109 358.42 39.0336 358.42L32.9663 358.42C32.889 358.42 32.8263 358.357 32.8263 358.28L32.8263 355.06L32.8263 355.055V353.637C32.8263 353.239 33.1486 352.917 33.5462 352.917H38.4536C38.8513 352.917 39.1736 353.239 39.1736 353.637V355.055Z" fill="#FF00FF"/>
<rect x="743.5" y="702" width="67.5" height="54" stroke="#00FFFF"/>
<rect x="676" y="702" width="67.5" height="54" stroke="#00FFFF"/>
<rect x="608.5" y="702" width="67.5" height="54" stroke="#00FFFF"/>
<rect x="541" y="702" width="67.5" height="54" stroke="#00FFFF"/>
<rect x="136" y="702" width="67.5" height="54" stroke="#00FFFF"/>
<rect x="68.5" y="702" width="67.5" height="54" stroke="#00FFFF"/>
<rect x="1" y="702" width="67.5" height="54" stroke="#00FFFF"/>
<rect x="662.5" y="648" width="148.5" height="54" stroke="#00FFFF"/>
<rect x="1" y="648" width="121.5" height="54" stroke="#00FFFF"/>
<rect x="689.5" y="594" width="121.5" height="54" stroke="#00FFFF"/>
<rect x="1" y="594" width="94.5" height="54" stroke="#00FFFF"/>
<rect x="1" y="540" width="81" height="54" stroke="#00FFFF"/>
<rect x="703" y="486" width="108" height="54" stroke="#00FFFF"/>
<rect x="608.5" y="648" width="54" height="54" stroke="#00FFFF"/>
<rect x="554.5" y="648" width="54" height="54" stroke="#00FFFF"/>
<rect x="500.5" y="648" width="54" height="54" stroke="#00FFFF"/>
<rect x="446.5" y="648" width="54" height="54" stroke="#00FFFF"/>
<rect x="392.5" y="648" width="54" height="54" stroke="#00FFFF"/>
<rect x="338.5" y="648" width="54" height="54" stroke="#00FFFF"/>
<rect x="284.5" y="648" width="54" height="54" stroke="#00FFFF"/>
<rect x="230.5" y="648" width="54" height="54" stroke="#00FFFF"/>
<rect x="176.5" y="648" width="54" height="54" stroke="#00FFFF"/>
<rect x="122.5" y="648" width="54" height="54" stroke="#00FFFF"/>
<rect x="635.5" y="594" width="54" height="54" stroke="#00FFFF"/>
<rect x="581.5" y="594" width="54" height="54" stroke="#00FFFF"/>
<rect x="527.5" y="594" width="54" height="54" stroke="#00FFFF"/>
<rect x="473.5" y="594" width="54" height="54" stroke="#00FFFF"/>
<rect x="419.5" y="594" width="54" height="54" stroke="#00FFFF"/>
<rect x="365.5" y="594" width="54" height="54" stroke="#00FFFF"/>
<rect x="311.5" y="594" width="54" height="54" stroke="#00FFFF"/>
<rect x="257.5" y="594" width="54" height="54" stroke="#00FFFF"/>
<rect x="203.5" y="594" width="54" height="54" stroke="#00FFFF"/>
<rect x="149.5" y="594" width="54" height="54" stroke="#00FFFF"/>
<rect x="95.5" y="594" width="54" height="54" stroke="#00FFFF"/>
<rect x="730" y="540" width="81" height="54" stroke="#00FFFF"/>
<rect x="676" y="540" width="54" height="54" stroke="#00FFFF"/>
<rect x="622" y="540" width="54" height="54" stroke="#00FFFF"/>
<rect x="568" y="540" width="54" height="54" stroke="#00FFFF"/>
<rect x="514" y="540" width="54" height="54" stroke="#00FFFF"/>
<rect x="460" y="540" width="54" height="54" stroke="#00FFFF"/>
<rect x="406" y="540" width="54" height="54" stroke="#00FFFF"/>
<rect x="352" y="540" width="54" height="54" stroke="#00FFFF"/>
<rect x="298" y="540" width="54" height="54" stroke="#00FFFF"/>
<rect x="244" y="540" width="54" height="54" stroke="#00FFFF"/>
<rect x="190" y="540" width="54" height="54" stroke="#00FFFF"/>
<rect x="136" y="540" width="54" height="54" stroke="#00FFFF"/>
<rect x="82" y="540" width="54" height="54" stroke="#00FFFF"/>
<rect x="55" y="486" width="54" height="54" stroke="#00FFFF"/>
<rect x="109" y="486" width="54" height="54" stroke="#00FFFF"/>
<rect x="163" y="486" width="54" height="54" stroke="#00FFFF"/>
<rect x="217" y="486" width="54" height="54" stroke="#00FFFF"/>
<rect x="271" y="486" width="54" height="54" stroke="#00FFFF"/>
<rect x="325" y="486" width="54" height="54" stroke="#00FFFF"/>
<rect x="379" y="486" width="54" height="54" stroke="#00FFFF"/>
<rect x="433" y="486" width="54" height="54" stroke="#00FFFF"/>
<rect x="487" y="486" width="54" height="54" stroke="#00FFFF"/>
<rect x="541" y="486" width="54" height="54" stroke="#00FFFF"/>
<rect x="595" y="486" width="54" height="54" stroke="#00FFFF"/>
<rect x="649" y="486" width="54" height="54" stroke="#00FFFF"/>
<rect x="1" y="486" width="54" height="54" stroke="#00FFFF"/>
<rect x="217" y="432" width="54" height="54" stroke="#00FFFF"/>
<rect x="163" y="432" width="54" height="54" stroke="#00FFFF"/>
<rect x="109" y="432" width="54" height="54" stroke="#00FFFF"/>
<rect x="55" y="432" width="54" height="54" stroke="#00FFFF"/>
<rect x="433" y="432" width="54" height="54" stroke="#00FFFF"/>
<rect x="379" y="432" width="54" height="54" stroke="#00FFFF"/>
<rect x="325" y="432" width="54" height="54" stroke="#00FFFF"/>
<rect x="271" y="432" width="54" height="54" stroke="#00FFFF"/>
<rect x="649" y="432" width="54" height="54" stroke="#00FFFF"/>
<rect x="595" y="432" width="54" height="54" stroke="#00FFFF"/>
<rect x="541" y="432" width="54" height="54" stroke="#00FFFF"/>
<rect x="487" y="432" width="54" height="54" stroke="#00FFFF"/>
<rect x="541" y="378" width="54" height="54" stroke="#00FFFF"/>
<rect x="487" y="378" width="54" height="54" stroke="#00FFFF"/>
<rect x="433" y="378" width="54" height="54" stroke="#00FFFF"/>
<rect x="487" y="324" width="54" height="54" stroke="#00FFFF"/>
<rect x="703" y="378" width="54" height="54" stroke="#00FFFF"/>
<rect x="595" y="378" width="108" height="54" stroke="#00FFFF"/>
<rect x="757" y="324" width="54" height="108" stroke="#00FFFF"/>
<rect x="703" y="324" width="54" height="54" stroke="#00FFFF"/>
<rect x="649" y="324" width="54" height="54" stroke="#00FFFF"/>
<rect x="595" y="324" width="54" height="54" stroke="#00FFFF"/>
<rect x="703" y="270" width="54" height="54" stroke="#00FFFF"/>
<rect x="595" y="270" width="54" height="54" stroke="#00FFFF"/>
<rect x="757" y="216" width="54" height="108" stroke="#00FFFF"/>
<rect x="703" y="216" width="54" height="54" stroke="#00FFFF"/>
<rect x="649" y="216" width="54" height="54" stroke="#00FFFF"/>
<rect x="595" y="216" width="54" height="54" stroke="#00FFFF"/>
<rect x="757" y="162" width="54" height="54" stroke="#00FFFF"/>
<rect x="703" y="162" width="54" height="54" stroke="#00FFFF"/>
<rect x="649" y="162" width="54" height="54" stroke="#00FFFF"/>
<rect x="595" y="162" width="54" height="54" stroke="#00FFFF"/>
<rect x="649" y="270" width="54" height="54" stroke="#00FFFF"/>
<rect x="541" y="162" width="54" height="54" stroke="#00FFFF"/>
<rect x="487" y="162" width="54" height="54" stroke="#00FFFF"/>
<rect x="433" y="162" width="54" height="54" stroke="#00FFFF"/>
<rect x="541" y="216" width="54" height="54" stroke="#00FFFF"/>
<rect x="487" y="216" width="54" height="54" stroke="#00FFFF"/>
<rect x="433" y="216" width="54" height="54" stroke="#00FFFF"/>
<rect x="541" y="270" width="54" height="54" stroke="#00FFFF"/>
<rect x="487" y="270" width="54" height="54" stroke="#00FFFF"/>
<rect x="433" y="270" width="54" height="54" stroke="#00FFFF"/>
<rect x="595" y="756" width="81" height="54" stroke="#00FFFF"/>
<rect x="676" y="756" width="54" height="54" stroke="#00FFFF"/>
<rect x="730" y="756" width="81" height="54" stroke="#00FFFF"/>
<rect x="136" y="756" width="81" height="54" stroke="#00FFFF"/>
<rect x="82" y="756" width="54" height="54" stroke="#00FFFF"/>
<rect x="1" y="756" width="81" height="54" stroke="#00FFFF"/>
<rect x="1" y="432" width="54" height="54" stroke="#00FFFF"/>
<rect x="757" y="432" width="54" height="54" stroke="#00FFFF"/>
<rect x="703" y="432" width="54" height="54" stroke="#00FFFF"/>
<rect x="541" y="324" width="54" height="54" stroke="#00FFFF"/>
<rect x="433" y="324" width="54" height="54" stroke="#00FFFF"/>
<rect x="379" y="324" width="54" height="54" stroke="#00FFFF"/>
<rect x="379" y="378" width="54" height="54" stroke="#00FFFF"/>
<rect x="298" y="378" width="81" height="54" stroke="#00FFFF"/>
<rect x="298" y="324" width="81" height="54" stroke="#00FFFF"/>
<rect x="217" y="324" width="81" height="108" stroke="#00FFFF"/>
<rect x="176.5" y="378" width="54" height="54" stroke="#00FFFF"/>
<rect x="122.5" y="378" width="54" height="54" stroke="#00FFFF"/>
<rect x="68.5" y="378" width="54" height="54" stroke="#00FFFF"/>
<rect x="1" y="378" width="67.5" height="54" stroke="#00FFFF"/>
<rect x="109" y="324" width="54" height="54" stroke="#00FFFF"/>
<rect x="55" y="324" width="54" height="54" stroke="#00FFFF"/>
<rect x="1" y="324" width="54" height="54" stroke="#00FFFF"/>
<rect x="163" y="324" width="54" height="54" stroke="#00FFFF"/>
<rect x="271" y="270" width="94.5" height="54" stroke="#00FFFF"/>
<rect x="365.5" y="270" width="67.5" height="54" stroke="#00FFFF"/>
<rect x="217" y="270" width="54" height="54" stroke="#00FFFF"/>
<rect x="163" y="270" width="54" height="54" stroke="#00FFFF"/>
<rect x="95.5" y="270" width="67.5" height="54" stroke="#00FFFF"/>
<rect x="1" y="270" width="94.5" height="54" stroke="#00FFFF"/>
<rect x="379" y="162" width="54" height="54" stroke="#00FFFF"/>
<rect x="271" y="162" width="54" height="54" stroke="#00FFFF"/>
<rect x="163" y="162" width="108" height="54" stroke="#00FFFF"/>
<rect x="95.5" y="162" width="67.5" height="54" stroke="#00FFFF"/>
<rect x="217" y="216" width="54" height="54" stroke="#00FFFF"/>
<rect x="163" y="216" width="54" height="54" stroke="#00FFFF"/>
<rect x="95.5" y="216" width="67.5" height="54" stroke="#00FFFF"/>
<rect x="1" y="216" width="94.5" height="54" stroke="#00FFFF"/>
<rect x="1" y="162" width="94.5" height="54" stroke="#00FFFF"/>
<rect x="730" y="54" width="81" height="108" stroke="#00FFFF"/>
<rect x="635.5" y="108" width="54" height="54" stroke="#00FFFF"/>
<rect x="554.5" y="108" width="81" height="54" stroke="#00FFFF"/>
<rect x="446.5" y="108" width="108" height="54" stroke="#00FFFF"/>
<rect x="311.5" y="108" width="81" height="54" stroke="#00FFFF"/>
<rect x="257.5" y="108" width="54" height="54" stroke="#00FFFF"/>
<rect x="163" y="108" width="94.5" height="54" stroke="#00FFFF"/>
<rect x="82" y="108" width="81" height="54" stroke="#00FFFF"/>
<rect x="1" y="108" width="81" height="54" stroke="#00FFFF"/>
<rect x="635.5" y="54" width="94.5" height="54" stroke="#00FFFF"/>
<rect x="527.5" y="54" width="54" height="54" stroke="#00FFFF"/>
<rect x="473.5" y="54" width="54" height="54" stroke="#00FFFF"/>
<rect x="392.5" y="54" width="81" height="54" stroke="#00FFFF"/>
</svg>
